{
"notes": [
	{
		"name": "G1",
		"midi": 31,
		"time": 28,
		"velocity": 0.8346456692913385,
		"duration": 0.216666666666665
	},
	{
		"name": "G1",
		"midi": 31,
		"time": 28.25,
		"velocity": 0.8346456692913385,
		"duration": 0.216666666666665
	},
	{
		"name": "G1",
		"midi": 31,
		"time": 28.5,
		"velocity": 0.8346456692913385,
		"duration": 0.216666666666665
	},
	{
		"name": "G1",
		"midi": 31,
		"time": 28.75,
		"velocity": 0.8346456692913385,
		"duration": 0.216666666666665
	},
	{
		"name": "G1",
		"midi": 31,
		"time": 29,
		"velocity": 0.8346456692913385,
		"duration": 0.216666666666665
	},
	{
		"name": "G1",
		"midi": 31,
		"time": 29.25,
		"velocity": 0.8346456692913385,
		"duration": 0.216666666666665
	},
	{
		"name": "G1",
		"midi": 31,
		"time": 29.5,
		"velocity": 0.8346456692913385,
		"duration": 0.216666666666665
	},
	{
		"name": "G1",
		"midi": 31,
		"time": 29.75,
		"velocity": 0.8346456692913385,
		"duration": 0.216666666666665
	},
	{
		"name": "A#1",
		"midi": 34,
		"time": 30,
		"velocity": 0.8346456692913385,
		"duration": 0.216666666666665
	},
	{
		"name": "A#1",
		"midi": 34,
		"time": 30.25,
		"velocity": 0.8346456692913385,
		"duration": 0.216666666666665
	},
	{
		"name": "A#1",
		"midi": 34,
		"time": 30.5,
		"velocity": 0.8346456692913385,
		"duration": 0.216666666666665
	},
	{
		"name": "A#1",
		"midi": 34,
		"time": 30.75,
		"velocity": 0.8346456692913385,
		"duration": 0.216666666666665
	},
	{
		"name": "A#1",
		"midi": 34,
		"time": 31,
		"velocity": 0.8346456692913385,
		"duration": 0.216666666666665
	},
	{
		"name": "A#1",
		"midi": 34,
		"time": 31.25,
		"velocity": 0.8346456692913385,
		"duration": 0.216666666666665
	},
	{
		"name": "A#1",
		"midi": 34,
		"time": 31.5,
		"velocity": 0.8346456692913385,
		"duration": 0.216666666666665
	},
	{
		"name": "A#1",
		"midi": 34,
		"time": 31.75,
		"velocity": 0.8346456692913385,
		"duration": 0.216666666666665
	},
	{
		"name": "F1",
		"midi": 29,
		"time": 32,
		"velocity": 0.8346456692913385,
		"duration": 0.21666666666666856
	},
	{
		"name": "F1",
		"midi": 29,
		"time": 32.25,
		"velocity": 0.8346456692913385,
		"duration": 0.21666666666666856
	},
	{
		"name": "F1",
		"midi": 29,
		"time": 32.5,
		"velocity": 0.8346456692913385,
		"duration": 0.21666666666666856
	},
	{
		"name": "F1",
		"midi": 29,
		"time": 32.75,
		"velocity": 0.8346456692913385,
		"duration": 0.21666666666666856
	},
	{
		"name": "F1",
		"midi": 29,
		"time": 33,
		"velocity": 0.8346456692913385,
		"duration": 0.21666666666666856
	},
	{
		"name": "F1",
		"midi": 29,
		"time": 33.25,
		"velocity": 0.8346456692913385,
		"duration": 0.21666666666666856
	},
	{
		"name": "F1",
		"midi": 29,
		"time": 33.5,
		"velocity": 0.8346456692913385,
		"duration": 0.21666666666666856
	},
	{
		"name": "F1",
		"midi": 29,
		"time": 33.75,
		"velocity": 0.8346456692913385,
		"duration": 0.21666666666666856
	},
	{
		"name": "C2",
		"midi": 36,
		"time": 34,
		"velocity": 0.8346456692913385,
		"duration": 0.21666666666666856
	},
	{
		"name": "C2",
		"midi": 36,
		"time": 34.25,
		"velocity": 0.8346456692913385,
		"duration": 0.21666666666666856
	},
	{
		"name": "C2",
		"midi": 36,
		"time": 34.5,
		"velocity": 0.8346456692913385,
		"duration": 0.21666666666666856
	},
	{
		"name": "C2",
		"midi": 36,
		"time": 34.75,
		"velocity": 0.8346456692913385,
		"duration": 0.21666666666666856
	},
	{
		"name": "C2",
		"midi": 36,
		"time": 35,
		"velocity": 0.8346456692913385,
		"duration": 0.21666666666666856
	},
	{
		"name": "C2",
		"midi": 36,
		"time": 35.25,
		"velocity": 0.8346456692913385,
		"duration": 0.21666666666666856
	},
	{
		"name": "C2",
		"midi": 36,
		"time": 35.5,
		"velocity": 0.8346456692913385,
		"duration": 0.21666666666666856
	},
	{
		"name": "C2",
		"midi": 36,
		"time": 35.75,
		"velocity": 0.8346456692913385,
		"duration": 0.21666666666666856
	},
	{
		"name": "G1",
		"midi": 31,
		"time": 36,
		"velocity": 0.8346456692913385,
		"duration": 0.21666666666666856
	},
	{
		"name": "G1",
		"midi": 31,
		"time": 36.25,
		"velocity": 0.8346456692913385,
		"duration": 0.21666666666666856
	},
	{
		"name": "G1",
		"midi": 31,
		"time": 36.5,
		"velocity": 0.8346456692913385,
		"duration": 0.21666666666666856
	},
	{
		"name": "G1",
		"midi": 31,
		"time": 36.75,
		"velocity": 0.8346456692913385,
		"duration": 0.21666666666666856
	},
	{
		"name": "G1",
		"midi": 31,
		"time": 37,
		"velocity": 0.8346456692913385,
		"duration": 0.21666666666666856
	},
	{
		"name": "G1",
		"midi": 31,
		"time": 37.25,
		"velocity": 0.8346456692913385,
		"duration": 0.21666666666666856
	},
	{
		"name": "G1",
		"midi": 31,
		"time": 37.5,
		"velocity": 0.8346456692913385,
		"duration": 0.21666666666666856
	},
	{
		"name": "G1",
		"midi": 31,
		"time": 37.75,
		"velocity": 0.8346456692913385,
		"duration": 0.21666666666666856
	},
	{
		"name": "A#1",
		"midi": 34,
		"time": 38,
		"velocity": 0.8346456692913385,
		"duration": 0.21666666666666856
	},
	{
		"name": "A#1",
		"midi": 34,
		"time": 38.25,
		"velocity": 0.8346456692913385,
		"duration": 0.21666666666666856
	},
	{
		"name": "A#1",
		"midi": 34,
		"time": 38.5,
		"velocity": 0.8346456692913385,
		"duration": 0.21666666666666856
	},
	{
		"name": "A#1",
		"midi": 34,
		"time": 38.75,
		"velocity": 0.8346456692913385,
		"duration": 0.21666666666666856
	},
	{
		"name": "A#1",
		"midi": 34,
		"time": 39,
		"velocity": 0.8346456692913385,
		"duration": 0.21666666666666856
	},
	{
		"name": "A#1",
		"midi": 34,
		"time": 39.25,
		"velocity": 0.8346456692913385,
		"duration": 0.21666666666666856
	},
	{
		"name": "A#1",
		"midi": 34,
		"time": 39.5,
		"velocity": 0.8346456692913385,
		"duration": 0.21666666666666856
	},
	{
		"name": "A#1",
		"midi": 34,
		"time": 39.75,
		"velocity": 0.8346456692913385,
		"duration": 0.21666666666666856
	},
	{
		"name": "F1",
		"midi": 29,
		"time": 40,
		"velocity": 0.8346456692913385,
		"duration": 0.21666666666666856
	},
	{
		"name": "F1",
		"midi": 29,
		"time": 40.25,
		"velocity": 0.8346456692913385,
		"duration": 0.21666666666666856
	},
	{
		"name": "F1",
		"midi": 29,
		"time": 40.5,
		"velocity": 0.8346456692913385,
		"duration": 0.21666666666666856
	},
	{
		"name": "F1",
		"midi": 29,
		"time": 40.75,
		"velocity": 0.8346456692913385,
		"duration": 0.21666666666666856
	},
	{
		"name": "F1",
		"midi": 29,
		"time": 41,
		"velocity": 0.8346456692913385,
		"duration": 0.21666666666666856
	},
	{
		"name": "F1",
		"midi": 29,
		"time": 41.25,
		"velocity": 0.8346456692913385,
		"duration": 0.21666666666666856
	},
	{
		"name": "F1",
		"midi": 29,
		"time": 41.5,
		"velocity": 0.8346456692913385,
		"duration": 0.21666666666666856
	},
	{
		"name": "F1",
		"midi": 29,
		"time": 41.75,
		"velocity": 0.8346456692913385,
		"duration": 0.21666666666666856
	},
	{
		"name": "C2",
		"midi": 36,
		"time": 42,
		"velocity": 0.8346456692913385,
		"duration": 0.21666666666666856
	},
	{
		"name": "C2",
		"midi": 36,
		"time": 42.25,
		"velocity": 0.8346456692913385,
		"duration": 0.21666666666666856
	},
	{
		"name": "C2",
		"midi": 36,
		"time": 42.5,
		"velocity": 0.8346456692913385,
		"duration": 0.21666666666666856
	},
	{
		"name": "C2",
		"midi": 36,
		"time": 42.75,
		"velocity": 0.8346456692913385,
		"duration": 0.21666666666666856
	},
	{
		"name": "C2",
		"midi": 36,
		"time": 43,
		"velocity": 0.8346456692913385,
		"duration": 0.21666666666666856
	},
	{
		"name": "C2",
		"midi": 36,
		"time": 43.25,
		"velocity": 0.8346456692913385,
		"duration": 0.21666666666666856
	},
	{
		"name": "C2",
		"midi": 36,
		"time": 43.5,
		"velocity": 0.8346456692913385,
		"duration": 0.21666666666666856
	},
	{
		"name": "C2",
		"midi": 36,
		"time": 43.75,
		"velocity": 0.8346456692913385,
		"duration": 0.21666666666666856
	},
	{
		"name": "G1",
		"midi": 31,
		"time": 44,
		"velocity": 0.8346456692913385,
		"duration": 3.800000000000054
	},
	{
		"name": "G1",
		"midi": 31,
		"time": 48.00000000000005,
		"velocity": 0.8346456692913385,
		"duration": 2
	},
	{
		"name": "A#1",
		"midi": 34,
		"time": 50.00000000000005,
		"velocity": 0.8346456692913385,
		"duration": 2
	},
	{
		"name": "F1",
		"midi": 29,
		"time": 52.00000000000005,
		"velocity": 0.8346456692913385,
		"duration": 2
	},
	{
		"name": "C2",
		"midi": 36,
		"time": 54.00000000000005,
		"velocity": 0.8346456692913385,
		"duration": 2
	},
	{
		"name": "G1",
		"midi": 31,
		"time": 56.00000000000005,
		"velocity": 0.8346456692913385,
		"duration": 2
	},
	{
		"name": "A#1",
		"midi": 34,
		"time": 58.00000000000005,
		"velocity": 0.8346456692913385,
		"duration": 2
	},
	{
		"name": "F1",
		"midi": 29,
		"time": 60.00000000000005,
		"velocity": 0.8346456692913385,
		"duration": 2
	},
	{
		"name": "C2",
		"midi": 36,
		"time": 62.00000000000005,
		"velocity": 0.8346456692913385,
		"duration": 1.9500000000000028
	},
	{
		"name": "D#2",
		"midi": 39,
		"time": 64.00000000000006,
		"velocity": 0.8346456692913385,
		"duration": 3.933333333333337
	},
	{
		"name": "F1",
		"midi": 29,
		"time": 68.00000000000006,
		"velocity": 0.8346456692913385,
		"duration": 3.933333333333337
	},
	{
		"name": "G1",
		"midi": 31,
		"time": 72.00000000000006,
		"velocity": 0.8346456692913385,
		"duration": 0.21666666666666856
	},
	{
		"name": "G1",
		"midi": 31,
		"time": 72.25000000000006,
		"velocity": 0.8346456692913385,
		"duration": 0.21666666666666856
	},
	{
		"name": "G1",
		"midi": 31,
		"time": 72.50000000000006,
		"velocity": 0.8346456692913385,
		"duration": 0.21666666666666856
	},
	{
		"name": "G1",
		"midi": 31,
		"time": 72.75000000000006,
		"velocity": 0.8346456692913385,
		"duration": 0.21666666666666856
	},
	{
		"name": "G1",
		"midi": 31,
		"time": 73.00000000000006,
		"velocity": 0.8346456692913385,
		"duration": 0.21666666666666856
	},
	{
		"name": "G1",
		"midi": 31,
		"time": 73.25000000000006,
		"velocity": 0.8346456692913385,
		"duration": 0.21666666666666856
	},
	{
		"name": "G1",
		"midi": 31,
		"time": 73.50000000000006,
		"velocity": 0.8346456692913385,
		"duration": 0.21666666666666856
	},
	{
		"name": "G1",
		"midi": 31,
		"time": 73.75000000000006,
		"velocity": 0.8346456692913385,
		"duration": 0.21666666666666856
	},
	{
		"name": "A#1",
		"midi": 34,
		"time": 74.00000000000006,
		"velocity": 0.8346456692913385,
		"duration": 0.21666666666666856
	},
	{
		"name": "A#1",
		"midi": 34,
		"time": 74.25000000000006,
		"velocity": 0.8346456692913385,
		"duration": 0.21666666666666856
	},
	{
		"name": "A#1",
		"midi": 34,
		"time": 74.50000000000006,
		"velocity": 0.8346456692913385,
		"duration": 0.21666666666666856
	},
	{
		"name": "A#1",
		"midi": 34,
		"time": 74.75000000000006,
		"velocity": 0.8346456692913385,
		"duration": 0.21666666666666856
	},
	{
		"name": "A#1",
		"midi": 34,
		"time": 75.00000000000006,
		"velocity": 0.8346456692913385,
		"duration": 0.21666666666666856
	},
	{
		"name": "A#1",
		"midi": 34,
		"time": 75.25000000000006,
		"velocity": 0.8346456692913385,
		"duration": 0.21666666666666856
	},
	{
		"name": "A#1",
		"midi": 34,
		"time": 75.50000000000006,
		"velocity": 0.8346456692913385,
		"duration": 0.21666666666666856
	},
	{
		"name": "A#1",
		"midi": 34,
		"time": 75.75000000000006,
		"velocity": 0.8346456692913385,
		"duration": 0.21666666666666856
	},
	{
		"name": "F1",
		"midi": 29,
		"time": 76.00000000000006,
		"velocity": 0.8346456692913385,
		"duration": 0.21666666666666856
	},
	{
		"name": "F1",
		"midi": 29,
		"time": 76.25000000000006,
		"velocity": 0.8346456692913385,
		"duration": 0.21666666666666856
	},
	{
		"name": "F1",
		"midi": 29,
		"time": 76.50000000000006,
		"velocity": 0.8346456692913385,
		"duration": 0.21666666666666856
	},
	{
		"name": "F1",
		"midi": 29,
		"time": 76.75000000000006,
		"velocity": 0.8346456692913385,
		"duration": 0.21666666666666856
	},
	{
		"name": "F1",
		"midi": 29,
		"time": 77.00000000000006,
		"velocity": 0.8346456692913385,
		"duration": 0.21666666666666856
	},
	{
		"name": "F1",
		"midi": 29,
		"time": 77.25000000000006,
		"velocity": 0.8346456692913385,
		"duration": 0.21666666666666856
	},
	{
		"name": "F1",
		"midi": 29,
		"time": 77.50000000000006,
		"velocity": 0.8346456692913385,
		"duration": 0.21666666666666856
	},
	{
		"name": "F1",
		"midi": 29,
		"time": 77.75000000000006,
		"velocity": 0.8346456692913385,
		"duration": 0.21666666666666856
	},
	{
		"name": "C2",
		"midi": 36,
		"time": 78.00000000000006,
		"velocity": 0.8346456692913385,
		"duration": 0.21666666666666856
	},
	{
		"name": "C2",
		"midi": 36,
		"time": 78.25000000000006,
		"velocity": 0.8346456692913385,
		"duration": 0.21666666666666856
	},
	{
		"name": "C2",
		"midi": 36,
		"time": 78.50000000000006,
		"velocity": 0.8346456692913385,
		"duration": 0.21666666666666856
	},
	{
		"name": "C2",
		"midi": 36,
		"time": 78.75000000000006,
		"velocity": 0.8346456692913385,
		"duration": 0.21666666666666856
	},
	{
		"name": "C2",
		"midi": 36,
		"time": 79.00000000000006,
		"velocity": 0.8346456692913385,
		"duration": 0.21666666666666856
	},
	{
		"name": "C2",
		"midi": 36,
		"time": 79.25000000000006,
		"velocity": 0.8346456692913385,
		"duration": 0.21666666666666856
	},
	{
		"name": "C2",
		"midi": 36,
		"time": 79.50000000000006,
		"velocity": 0.8346456692913385,
		"duration": 0.21666666666666856
	},
	{
		"name": "C2",
		"midi": 36,
		"time": 79.75000000000006,
		"velocity": 0.8346456692913385,
		"duration": 0.21666666666666856
	},
	{
		"name": "G1",
		"midi": 31,
		"time": 80.00000000000006,
		"velocity": 0.8346456692913385,
		"duration": 0.21666666666666856
	},
	{
		"name": "G1",
		"midi": 31,
		"time": 80.25000000000006,
		"velocity": 0.8346456692913385,
		"duration": 0.21666666666666856
	},
	{
		"name": "G1",
		"midi": 31,
		"time": 80.50000000000006,
		"velocity": 0.8346456692913385,
		"duration": 0.21666666666666856
	},
	{
		"name": "G1",
		"midi": 31,
		"time": 80.75000000000006,
		"velocity": 0.8346456692913385,
		"duration": 0.21666666666666856
	},
	{
		"name": "G1",
		"midi": 31,
		"time": 81.00000000000006,
		"velocity": 0.8346456692913385,
		"duration": 0.21666666666666856
	},
	{
		"name": "G1",
		"midi": 31,
		"time": 81.25000000000006,
		"velocity": 0.8346456692913385,
		"duration": 0.21666666666666856
	},
	{
		"name": "G1",
		"midi": 31,
		"time": 81.50000000000006,
		"velocity": 0.8346456692913385,
		"duration": 0.21666666666666856
	},
	{
		"name": "G1",
		"midi": 31,
		"time": 81.75000000000006,
		"velocity": 0.8346456692913385,
		"duration": 0.21666666666666856
	},
	{
		"name": "A#1",
		"midi": 34,
		"time": 82.00000000000006,
		"velocity": 0.8346456692913385,
		"duration": 0.21666666666666856
	},
	{
		"name": "A#1",
		"midi": 34,
		"time": 82.25000000000006,
		"velocity": 0.8346456692913385,
		"duration": 0.21666666666666856
	},
	{
		"name": "A#1",
		"midi": 34,
		"time": 82.50000000000006,
		"velocity": 0.8346456692913385,
		"duration": 0.21666666666666856
	},
	{
		"name": "A#1",
		"midi": 34,
		"time": 82.75000000000006,
		"velocity": 0.8346456692913385,
		"duration": 0.21666666666666856
	},
	{
		"name": "A#1",
		"midi": 34,
		"time": 83.00000000000006,
		"velocity": 0.8346456692913385,
		"duration": 0.21666666666666856
	},
	{
		"name": "A#1",
		"midi": 34,
		"time": 83.25000000000006,
		"velocity": 0.8346456692913385,
		"duration": 0.21666666666666856
	},
	{
		"name": "A#1",
		"midi": 34,
		"time": 83.50000000000006,
		"velocity": 0.8346456692913385,
		"duration": 0.21666666666666856
	},
	{
		"name": "A#1",
		"midi": 34,
		"time": 83.75000000000006,
		"velocity": 0.8346456692913385,
		"duration": 0.21666666666666856
	},
	{
		"name": "F1",
		"midi": 29,
		"time": 84.00000000000006,
		"velocity": 0.8346456692913385,
		"duration": 0.21666666666666856
	},
	{
		"name": "F1",
		"midi": 29,
		"time": 84.25000000000006,
		"velocity": 0.8346456692913385,
		"duration": 0.21666666666666856
	},
	{
		"name": "F1",
		"midi": 29,
		"time": 84.50000000000006,
		"velocity": 0.8346456692913385,
		"duration": 0.21666666666666856
	},
	{
		"name": "F1",
		"midi": 29,
		"time": 84.75000000000006,
		"velocity": 0.8346456692913385,
		"duration": 0.21666666666666856
	},
	{
		"name": "F1",
		"midi": 29,
		"time": 85.00000000000006,
		"velocity": 0.8346456692913385,
		"duration": 0.21666666666666856
	},
	{
		"name": "F1",
		"midi": 29,
		"time": 85.25000000000006,
		"velocity": 0.8346456692913385,
		"duration": 0.21666666666666856
	},
	{
		"name": "F1",
		"midi": 29,
		"time": 85.50000000000006,
		"velocity": 0.8346456692913385,
		"duration": 0.21666666666666856
	},
	{
		"name": "F1",
		"midi": 29,
		"time": 85.75000000000006,
		"velocity": 0.8346456692913385,
		"duration": 0.21666666666666856
	},
	{
		"name": "C2",
		"midi": 36,
		"time": 86.00000000000006,
		"velocity": 0.8346456692913385,
		"duration": 0.21666666666666856
	},
	{
		"name": "C2",
		"midi": 36,
		"time": 86.25000000000006,
		"velocity": 0.8346456692913385,
		"duration": 0.21666666666666856
	},
	{
		"name": "C2",
		"midi": 36,
		"time": 86.50000000000006,
		"velocity": 0.8346456692913385,
		"duration": 0.21666666666666856
	},
	{
		"name": "C2",
		"midi": 36,
		"time": 86.75000000000006,
		"velocity": 0.8346456692913385,
		"duration": 0.21666666666666856
	},
	{
		"name": "C2",
		"midi": 36,
		"time": 87.00000000000006,
		"velocity": 0.8346456692913385,
		"duration": 0.21666666666666856
	},
	{
		"name": "C2",
		"midi": 36,
		"time": 87.25000000000006,
		"velocity": 0.8346456692913385,
		"duration": 0.21666666666666856
	},
	{
		"name": "C2",
		"midi": 36,
		"time": 87.50000000000006,
		"velocity": 0.8346456692913385,
		"duration": 0.21666666666666856
	},
	{
		"name": "C2",
		"midi": 36,
		"time": 87.75000000000006,
		"velocity": 0.8346456692913385,
		"duration": 0.21666666666666856
	},
	{
		"name": "G1",
		"midi": 31,
		"time": 88.00000000000006,
		"velocity": 0.8346456692913385,
		"duration": 2
	},
	{
		"name": "A#1",
		"midi": 34,
		"time": 90.00000000000006,
		"velocity": 0.8346456692913385,
		"duration": 2
	},
	{
		"name": "F1",
		"midi": 29,
		"time": 92.00000000000006,
		"velocity": 0.8346456692913385,
		"duration": 2
	},
	{
		"name": "C2",
		"midi": 36,
		"time": 94.00000000000006,
		"velocity": 0.8346456692913385,
		"duration": 2
	},
	{
		"name": "G1",
		"midi": 31,
		"time": 96.00000000000006,
		"velocity": 0.8346456692913385,
		"duration": 2
	},
	{
		"name": "A#1",
		"midi": 34,
		"time": 98.00000000000006,
		"velocity": 0.8346456692913385,
		"duration": 2
	},
	{
		"name": "F1",
		"midi": 29,
		"time": 100.00000000000006,
		"velocity": 0.8346456692913385,
		"duration": 2
	},
	{
		"name": "C2",
		"midi": 36,
		"time": 102.00000000000006,
		"velocity": 0.8346456692913385,
		"duration": 2
	},
	{
		"name": "D#2",
		"midi": 39,
		"time": 104.00000000000006,
		"velocity": 0.8346456692913385,
		"duration": 3.933333333333337
	},
	{
		"name": "F1",
		"midi": 29,
		"time": 108.00000000000006,
		"velocity": 0.8346456692913385,
		"duration": 1.8333333333333286
	},
	{
		"name": "F1",
		"midi": 29,
		"time": 110.00000000000006,
		"velocity": 0.8346456692913385,
		"duration": 1.9499999999999034
	},
	{
		"name": "G1",
		"midi": 31,
		"time": 111.99999999999996,
		"velocity": 0.8346456692913385,
		"duration": 0.21666666666666856
	},
	{
		"name": "G1",
		"midi": 31,
		"time": 112.24999999999996,
		"velocity": 0.8346456692913385,
		"duration": 0.21666666666666856
	},
	{
		"name": "G1",
		"midi": 31,
		"time": 112.49999999999996,
		"velocity": 0.8346456692913385,
		"duration": 0.21666666666666856
	},
	{
		"name": "G1",
		"midi": 31,
		"time": 112.74999999999996,
		"velocity": 0.8346456692913385,
		"duration": 0.21666666666666856
	},
	{
		"name": "G1",
		"midi": 31,
		"time": 112.99999999999996,
		"velocity": 0.8346456692913385,
		"duration": 0.21666666666666856
	},
	{
		"name": "G1",
		"midi": 31,
		"time": 113.24999999999996,
		"velocity": 0.8346456692913385,
		"duration": 0.21666666666666856
	},
	{
		"name": "G1",
		"midi": 31,
		"time": 113.49999999999996,
		"velocity": 0.8346456692913385,
		"duration": 0.21666666666666856
	},
	{
		"name": "G1",
		"midi": 31,
		"time": 113.74999999999996,
		"velocity": 0.8346456692913385,
		"duration": 0.21666666666666856
	},
	{
		"name": "A#1",
		"midi": 34,
		"time": 113.99999999999996,
		"velocity": 0.8346456692913385,
		"duration": 0.21666666666666856
	},
	{
		"name": "A#1",
		"midi": 34,
		"time": 114.24999999999996,
		"velocity": 0.8346456692913385,
		"duration": 0.21666666666666856
	},
	{
		"name": "A#1",
		"midi": 34,
		"time": 114.49999999999996,
		"velocity": 0.8346456692913385,
		"duration": 0.21666666666666856
	},
	{
		"name": "A#1",
		"midi": 34,
		"time": 114.74999999999996,
		"velocity": 0.8346456692913385,
		"duration": 0.21666666666666856
	},
	{
		"name": "A#1",
		"midi": 34,
		"time": 114.99999999999996,
		"velocity": 0.8346456692913385,
		"duration": 0.21666666666666856
	},
	{
		"name": "A#1",
		"midi": 34,
		"time": 115.24999999999996,
		"velocity": 0.8346456692913385,
		"duration": 0.21666666666666856
	},
	{
		"name": "A#1",
		"midi": 34,
		"time": 115.49999999999996,
		"velocity": 0.8346456692913385,
		"duration": 0.21666666666666856
	},
	{
		"name": "A#1",
		"midi": 34,
		"time": 115.74999999999996,
		"velocity": 0.8346456692913385,
		"duration": 0.21666666666666856
	},
	{
		"name": "F1",
		"midi": 29,
		"time": 115.99999999999996,
		"velocity": 0.8346456692913385,
		"duration": 0.21666666666666856
	},
	{
		"name": "F1",
		"midi": 29,
		"time": 116.24999999999996,
		"velocity": 0.8346456692913385,
		"duration": 0.21666666666666856
	},
	{
		"name": "F1",
		"midi": 29,
		"time": 116.49999999999996,
		"velocity": 0.8346456692913385,
		"duration": 0.21666666666666856
	},
	{
		"name": "F1",
		"midi": 29,
		"time": 116.74999999999996,
		"velocity": 0.8346456692913385,
		"duration": 0.21666666666666856
	},
	{
		"name": "F1",
		"midi": 29,
		"time": 116.99999999999996,
		"velocity": 0.8346456692913385,
		"duration": 0.21666666666666856
	},
	{
		"name": "F1",
		"midi": 29,
		"time": 117.24999999999996,
		"velocity": 0.8346456692913385,
		"duration": 0.21666666666666856
	},
	{
		"name": "F1",
		"midi": 29,
		"time": 117.49999999999996,
		"velocity": 0.8346456692913385,
		"duration": 0.21666666666666856
	},
	{
		"name": "F1",
		"midi": 29,
		"time": 117.74999999999996,
		"velocity": 0.8346456692913385,
		"duration": 0.21666666666666856
	},
	{
		"name": "C2",
		"midi": 36,
		"time": 117.99999999999996,
		"velocity": 0.8346456692913385,
		"duration": 0.21666666666666856
	},
	{
		"name": "C2",
		"midi": 36,
		"time": 118.24999999999996,
		"velocity": 0.8346456692913385,
		"duration": 0.21666666666666856
	},
	{
		"name": "C2",
		"midi": 36,
		"time": 118.49999999999996,
		"velocity": 0.8346456692913385,
		"duration": 0.21666666666666856
	},
	{
		"name": "C2",
		"midi": 36,
		"time": 118.74999999999996,
		"velocity": 0.8346456692913385,
		"duration": 0.21666666666666856
	},
	{
		"name": "C2",
		"midi": 36,
		"time": 118.99999999999996,
		"velocity": 0.8346456692913385,
		"duration": 0.21666666666666856
	},
	{
		"name": "C2",
		"midi": 36,
		"time": 119.24999999999996,
		"velocity": 0.8346456692913385,
		"duration": 0.21666666666666856
	},
	{
		"name": "C2",
		"midi": 36,
		"time": 119.49999999999996,
		"velocity": 0.8346456692913385,
		"duration": 0.21666666666666856
	},
	{
		"name": "C2",
		"midi": 36,
		"time": 119.74999999999996,
		"velocity": 0.8346456692913385,
		"duration": 0.21666666666666856
	},
	{
		"name": "G1",
		"midi": 31,
		"time": 119.99999999999996,
		"velocity": 0.8346456692913385,
		"duration": 0.21666666666666856
	},
	{
		"name": "G1",
		"midi": 31,
		"time": 120.24999999999996,
		"velocity": 0.8346456692913385,
		"duration": 0.21666666666666856
	},
	{
		"name": "G1",
		"midi": 31,
		"time": 120.49999999999996,
		"velocity": 0.8346456692913385,
		"duration": 0.21666666666666856
	},
	{
		"name": "G1",
		"midi": 31,
		"time": 120.74999999999996,
		"velocity": 0.8346456692913385,
		"duration": 0.21666666666666856
	},
	{
		"name": "G1",
		"midi": 31,
		"time": 120.99999999999996,
		"velocity": 0.8346456692913385,
		"duration": 0.21666666666666856
	},
	{
		"name": "G1",
		"midi": 31,
		"time": 121.24999999999996,
		"velocity": 0.8346456692913385,
		"duration": 0.21666666666666856
	},
	{
		"name": "G1",
		"midi": 31,
		"time": 121.49999999999996,
		"velocity": 0.8346456692913385,
		"duration": 0.21666666666666856
	},
	{
		"name": "G1",
		"midi": 31,
		"time": 121.74999999999996,
		"velocity": 0.8346456692913385,
		"duration": 0.21666666666666856
	},
	{
		"name": "A#1",
		"midi": 34,
		"time": 121.99999999999996,
		"velocity": 0.8346456692913385,
		"duration": 0.21666666666666856
	},
	{
		"name": "A#1",
		"midi": 34,
		"time": 122.24999999999996,
		"velocity": 0.8346456692913385,
		"duration": 0.21666666666666856
	},
	{
		"name": "A#1",
		"midi": 34,
		"time": 122.49999999999996,
		"velocity": 0.8346456692913385,
		"duration": 0.21666666666666856
	},
	{
		"name": "A#1",
		"midi": 34,
		"time": 122.74999999999996,
		"velocity": 0.8346456692913385,
		"duration": 0.21666666666666856
	},
	{
		"name": "A#1",
		"midi": 34,
		"time": 122.99999999999996,
		"velocity": 0.8346456692913385,
		"duration": 0.21666666666666856
	},
	{
		"name": "A#1",
		"midi": 34,
		"time": 123.24999999999996,
		"velocity": 0.8346456692913385,
		"duration": 0.21666666666666856
	},
	{
		"name": "A#1",
		"midi": 34,
		"time": 123.49999999999996,
		"velocity": 0.8346456692913385,
		"duration": 0.21666666666666856
	},
	{
		"name": "A#1",
		"midi": 34,
		"time": 123.74999999999996,
		"velocity": 0.8346456692913385,
		"duration": 0.21666666666666856
	},
	{
		"name": "F1",
		"midi": 29,
		"time": 123.99999999999996,
		"velocity": 0.8346456692913385,
		"duration": 0.21666666666666856
	},
	{
		"name": "F1",
		"midi": 29,
		"time": 124.24999999999996,
		"velocity": 0.8346456692913385,
		"duration": 0.21666666666666856
	},
	{
		"name": "F1",
		"midi": 29,
		"time": 124.49999999999996,
		"velocity": 0.8346456692913385,
		"duration": 0.21666666666666856
	},
	{
		"name": "F1",
		"midi": 29,
		"time": 124.74999999999996,
		"velocity": 0.8346456692913385,
		"duration": 0.21666666666666856
	},
	{
		"name": "F1",
		"midi": 29,
		"time": 124.99999999999996,
		"velocity": 0.8346456692913385,
		"duration": 0.21666666666666856
	},
	{
		"name": "F1",
		"midi": 29,
		"time": 125.24999999999996,
		"velocity": 0.8346456692913385,
		"duration": 0.21666666666666856
	},
	{
		"name": "F1",
		"midi": 29,
		"time": 125.49999999999996,
		"velocity": 0.8346456692913385,
		"duration": 0.21666666666666856
	},
	{
		"name": "F1",
		"midi": 29,
		"time": 125.74999999999996,
		"velocity": 0.8346456692913385,
		"duration": 0.21666666666666856
	},
	{
		"name": "C2",
		"midi": 36,
		"time": 125.99999999999996,
		"velocity": 0.8346456692913385,
		"duration": 0.21666666666666856
	},
	{
		"name": "C2",
		"midi": 36,
		"time": 126.24999999999996,
		"velocity": 0.8346456692913385,
		"duration": 0.21666666666666856
	},
	{
		"name": "C2",
		"midi": 36,
		"time": 126.49999999999996,
		"velocity": 0.8346456692913385,
		"duration": 0.21666666666666856
	},
	{
		"name": "C2",
		"midi": 36,
		"time": 126.74999999999996,
		"velocity": 0.8346456692913385,
		"duration": 0.21666666666666856
	},
	{
		"name": "D2",
		"midi": 38,
		"time": 126.99999999999996,
		"velocity": 0.8346456692913385,
		"duration": 0.21666666666666856
	},
	{
		"name": "D2",
		"midi": 38,
		"time": 127.24999999999996,
		"velocity": 0.8346456692913385,
		"duration": 0.21666666666666856
	},
	{
		"name": "D2",
		"midi": 38,
		"time": 127.49999999999996,
		"velocity": 0.8346456692913385,
		"duration": 0.21666666666666856
	},
	{
		"name": "D2",
		"midi": 38,
		"time": 127.74999999999996,
		"velocity": 0.8346456692913385,
		"duration": 0.21666666666666856
	},
	{
		"name": "D#2",
		"midi": 39,
		"time": 127.99999999999996,
		"velocity": 0.8346456692913385,
		"duration": 0.21666666666665435
	},
	{
		"name": "D#2",
		"midi": 39,
		"time": 128.24999999999994,
		"velocity": 0.8346456692913385,
		"duration": 0.21666666666666856
	},
	{
		"name": "D#2",
		"midi": 39,
		"time": 128.49999999999994,
		"velocity": 0.8346456692913385,
		"duration": 0.21666666666666856
	},
	{
		"name": "D#2",
		"midi": 39,
		"time": 128.74999999999994,
		"velocity": 0.8346456692913385,
		"duration": 0.21666666666666856
	},
	{
		"name": "D2",
		"midi": 38,
		"time": 128.99999999999994,
		"velocity": 0.8346456692913385,
		"duration": 0.21666666666666856
	},
	{
		"name": "D2",
		"midi": 38,
		"time": 129.24999999999994,
		"velocity": 0.8346456692913385,
		"duration": 0.21666666666666856
	},
	{
		"name": "D2",
		"midi": 38,
		"time": 129.49999999999994,
		"velocity": 0.8346456692913385,
		"duration": 0.21666666666666856
	},
	{
		"name": "D2",
		"midi": 38,
		"time": 129.74999999999994,
		"velocity": 0.8346456692913385,
		"duration": 0.21666666666666856
	},
	{
		"name": "G1",
		"midi": 31,
		"time": 129.99999999999994,
		"velocity": 0.8346456692913385,
		"duration": 0.21666666666666856
	},
	{
		"name": "G1",
		"midi": 31,
		"time": 130.24999999999994,
		"velocity": 0.8346456692913385,
		"duration": 0.21666666666666856
	},
	{
		"name": "G1",
		"midi": 31,
		"time": 130.49999999999994,
		"velocity": 0.8346456692913385,
		"duration": 0.21666666666666856
	},
	{
		"name": "G1",
		"midi": 31,
		"time": 130.74999999999994,
		"velocity": 0.8346456692913385,
		"duration": 0.21666666666666856
	},
	{
		"name": "G1",
		"midi": 31,
		"time": 130.99999999999994,
		"velocity": 0.8346456692913385,
		"duration": 0.21666666666666856
	},
	{
		"name": "G1",
		"midi": 31,
		"time": 131.24999999999994,
		"velocity": 0.8346456692913385,
		"duration": 0.21666666666666856
	},
	{
		"name": "G1",
		"midi": 31,
		"time": 131.49999999999994,
		"velocity": 0.8346456692913385,
		"duration": 0.21666666666666856
	},
	{
		"name": "G1",
		"midi": 31,
		"time": 131.74999999999994,
		"velocity": 0.8346456692913385,
		"duration": 0.21666666666666856
	},
	{
		"name": "A#1",
		"midi": 34,
		"time": 131.99999999999994,
		"velocity": 0.8346456692913385,
		"duration": 0.21666666666666856
	},
	{
		"name": "A#1",
		"midi": 34,
		"time": 132.24999999999994,
		"velocity": 0.8346456692913385,
		"duration": 0.21666666666666856
	},
	{
		"name": "A#1",
		"midi": 34,
		"time": 132.49999999999994,
		"velocity": 0.8346456692913385,
		"duration": 0.21666666666666856
	},
	{
		"name": "A#1",
		"midi": 34,
		"time": 132.74999999999994,
		"velocity": 0.8346456692913385,
		"duration": 0.21666666666666856
	},
	{
		"name": "A#1",
		"midi": 34,
		"time": 132.99999999999994,
		"velocity": 0.8346456692913385,
		"duration": 0.21666666666666856
	},
	{
		"name": "A#1",
		"midi": 34,
		"time": 133.24999999999994,
		"velocity": 0.8346456692913385,
		"duration": 0.21666666666666856
	},
	{
		"name": "A#1",
		"midi": 34,
		"time": 133.49999999999994,
		"velocity": 0.8346456692913385,
		"duration": 0.21666666666666856
	},
	{
		"name": "A#1",
		"midi": 34,
		"time": 133.74999999999994,
		"velocity": 0.8346456692913385,
		"duration": 0.21666666666666856
	},
	{
		"name": "F1",
		"midi": 29,
		"time": 133.99999999999994,
		"velocity": 0.8346456692913385,
		"duration": 0.21666666666666856
	},
	{
		"name": "F1",
		"midi": 29,
		"time": 134.24999999999994,
		"velocity": 0.8346456692913385,
		"duration": 0.21666666666666856
	},
	{
		"name": "F1",
		"midi": 29,
		"time": 134.49999999999994,
		"velocity": 0.8346456692913385,
		"duration": 0.21666666666666856
	},
	{
		"name": "F1",
		"midi": 29,
		"time": 134.74999999999994,
		"velocity": 0.8346456692913385,
		"duration": 0.21666666666666856
	},
	{
		"name": "F1",
		"midi": 29,
		"time": 134.99999999999994,
		"velocity": 0.8346456692913385,
		"duration": 0.21666666666666856
	},
	{
		"name": "F1",
		"midi": 29,
		"time": 135.24999999999994,
		"velocity": 0.8346456692913385,
		"duration": 0.21666666666666856
	},
	{
		"name": "F1",
		"midi": 29,
		"time": 135.49999999999994,
		"velocity": 0.8346456692913385,
		"duration": 0.21666666666666856
	},
	{
		"name": "F1",
		"midi": 29,
		"time": 135.74999999999994,
		"velocity": 0.8346456692913385,
		"duration": 0.21666666666666856
	},
	{
		"name": "C2",
		"midi": 36,
		"time": 135.99999999999994,
		"velocity": 0.8346456692913385,
		"duration": 0.21666666666666856
	},
	{
		"name": "C2",
		"midi": 36,
		"time": 136.24999999999994,
		"velocity": 0.8346456692913385,
		"duration": 0.21666666666666856
	},
	{
		"name": "C2",
		"midi": 36,
		"time": 136.49999999999994,
		"velocity": 0.8346456692913385,
		"duration": 0.21666666666666856
	},
	{
		"name": "C2",
		"midi": 36,
		"time": 136.74999999999994,
		"velocity": 0.8346456692913385,
		"duration": 0.21666666666666856
	},
	{
		"name": "C2",
		"midi": 36,
		"time": 136.99999999999994,
		"velocity": 0.8346456692913385,
		"duration": 0.21666666666666856
	},
	{
		"name": "C2",
		"midi": 36,
		"time": 137.24999999999994,
		"velocity": 0.8346456692913385,
		"duration": 0.21666666666666856
	},
	{
		"name": "C2",
		"midi": 36,
		"time": 137.49999999999994,
		"velocity": 0.8346456692913385,
		"duration": 0.21666666666666856
	},
	{
		"name": "C2",
		"midi": 36,
		"time": 137.74999999999994,
		"velocity": 0.8346456692913385,
		"duration": 0.21666666666666856
	},
	{
		"name": "G1",
		"midi": 31,
		"time": 137.99999999999994,
		"velocity": 0.8346456692913385,
		"duration": 0.21666666666666856
	},
	{
		"name": "G1",
		"midi": 31,
		"time": 138.24999999999994,
		"velocity": 0.8346456692913385,
		"duration": 0.21666666666666856
	},
	{
		"name": "G1",
		"midi": 31,
		"time": 138.49999999999994,
		"velocity": 0.8346456692913385,
		"duration": 0.21666666666666856
	},
	{
		"name": "G1",
		"midi": 31,
		"time": 138.74999999999994,
		"velocity": 0.8346456692913385,
		"duration": 0.21666666666666856
	},
	{
		"name": "G1",
		"midi": 31,
		"time": 138.99999999999994,
		"velocity": 0.8346456692913385,
		"duration": 0.21666666666666856
	},
	{
		"name": "G1",
		"midi": 31,
		"time": 139.24999999999994,
		"velocity": 0.8346456692913385,
		"duration": 0.21666666666666856
	},
	{
		"name": "G1",
		"midi": 31,
		"time": 139.49999999999994,
		"velocity": 0.8346456692913385,
		"duration": 0.21666666666666856
	},
	{
		"name": "G1",
		"midi": 31,
		"time": 139.74999999999994,
		"velocity": 0.8346456692913385,
		"duration": 0.21666666666666856
	},
	{
		"name": "A#1",
		"midi": 34,
		"time": 139.99999999999994,
		"velocity": 0.8346456692913385,
		"duration": 0.21666666666666856
	},
	{
		"name": "A#1",
		"midi": 34,
		"time": 140.24999999999994,
		"velocity": 0.8346456692913385,
		"duration": 0.21666666666666856
	},
	{
		"name": "A#1",
		"midi": 34,
		"time": 140.49999999999994,
		"velocity": 0.8346456692913385,
		"duration": 0.21666666666666856
	},
	{
		"name": "A#1",
		"midi": 34,
		"time": 140.74999999999994,
		"velocity": 0.8346456692913385,
		"duration": 0.21666666666666856
	},
	{
		"name": "A#1",
		"midi": 34,
		"time": 140.99999999999994,
		"velocity": 0.8346456692913385,
		"duration": 0.21666666666666856
	},
	{
		"name": "A#1",
		"midi": 34,
		"time": 141.24999999999994,
		"velocity": 0.8346456692913385,
		"duration": 0.21666666666666856
	},
	{
		"name": "A#1",
		"midi": 34,
		"time": 141.49999999999994,
		"velocity": 0.8346456692913385,
		"duration": 0.21666666666666856
	},
	{
		"name": "A#1",
		"midi": 34,
		"time": 141.74999999999994,
		"velocity": 0.8346456692913385,
		"duration": 0.21666666666666856
	},
	{
		"name": "F1",
		"midi": 29,
		"time": 141.99999999999994,
		"velocity": 0.8346456692913385,
		"duration": 0.21666666666666856
	},
	{
		"name": "F1",
		"midi": 29,
		"time": 142.24999999999994,
		"velocity": 0.8346456692913385,
		"duration": 0.21666666666666856
	},
	{
		"name": "F1",
		"midi": 29,
		"time": 142.49999999999994,
		"velocity": 0.8346456692913385,
		"duration": 0.21666666666666856
	},
	{
		"name": "F1",
		"midi": 29,
		"time": 142.74999999999994,
		"velocity": 0.8346456692913385,
		"duration": 0.21666666666666856
	},
	{
		"name": "F1",
		"midi": 29,
		"time": 142.99999999999994,
		"velocity": 0.8346456692913385,
		"duration": 0.21666666666666856
	},
	{
		"name": "F1",
		"midi": 29,
		"time": 143.24999999999994,
		"velocity": 0.8346456692913385,
		"duration": 0.21666666666666856
	},
	{
		"name": "F1",
		"midi": 29,
		"time": 143.49999999999994,
		"velocity": 0.8346456692913385,
		"duration": 0.21666666666666856
	},
	{
		"name": "F1",
		"midi": 29,
		"time": 143.74999999999994,
		"velocity": 0.8346456692913385,
		"duration": 0.21666666666666856
	},
	{
		"name": "C2",
		"midi": 36,
		"time": 143.99999999999994,
		"velocity": 0.8346456692913385,
		"duration": 0.21666666666666856
	},
	{
		"name": "C2",
		"midi": 36,
		"time": 144.24999999999994,
		"velocity": 0.8346456692913385,
		"duration": 0.21666666666666856
	},
	{
		"name": "C2",
		"midi": 36,
		"time": 144.49999999999994,
		"velocity": 0.8346456692913385,
		"duration": 0.21666666666666856
	},
	{
		"name": "C2",
		"midi": 36,
		"time": 144.74999999999994,
		"velocity": 0.8346456692913385,
		"duration": 0.21666666666666856
	},
	{
		"name": "D2",
		"midi": 38,
		"time": 144.99999999999994,
		"velocity": 0.8346456692913385,
		"duration": 0.21666666666666856
	},
	{
		"name": "D2",
		"midi": 38,
		"time": 145.24999999999994,
		"velocity": 0.8346456692913385,
		"duration": 0.21666666666666856
	},
	{
		"name": "D2",
		"midi": 38,
		"time": 145.49999999999994,
		"velocity": 0.8346456692913385,
		"duration": 0.21666666666666856
	},
	{
		"name": "D2",
		"midi": 38,
		"time": 145.74999999999994,
		"velocity": 0.8346456692913385,
		"duration": 0.21666666666666856
	},
	{
		"name": "D#2",
		"midi": 39,
		"time": 145.99999999999994,
		"velocity": 0.8346456692913385,
		"duration": 0.21666666666666856
	},
	{
		"name": "D#2",
		"midi": 39,
		"time": 146.24999999999994,
		"velocity": 0.8346456692913385,
		"duration": 0.21666666666666856
	},
	{
		"name": "D#2",
		"midi": 39,
		"time": 146.49999999999994,
		"velocity": 0.8346456692913385,
		"duration": 0.21666666666666856
	},
	{
		"name": "D#2",
		"midi": 39,
		"time": 146.74999999999994,
		"velocity": 0.8346456692913385,
		"duration": 0.21666666666666856
	},
	{
		"name": "F2",
		"midi": 41,
		"time": 146.99999999999994,
		"velocity": 0.8346456692913385,
		"duration": 0.21666666666666856
	},
	{
		"name": "F2",
		"midi": 41,
		"time": 147.24999999999994,
		"velocity": 0.8346456692913385,
		"duration": 0.21666666666666856
	},
	{
		"name": "F2",
		"midi": 41,
		"time": 147.49999999999994,
		"velocity": 0.8346456692913385,
		"duration": 0.21666666666666856
	},
	{
		"name": "F2",
		"midi": 41,
		"time": 147.74999999999994,
		"velocity": 0.8346456692913385,
		"duration": 0.21666666666666856
	},
	{
		"name": "G1",
		"midi": 31,
		"time": 165.99999999999994,
		"velocity": 0.8346456692913385,
		"duration": 0.21666666666666856
	},
	{
		"name": "G1",
		"midi": 31,
		"time": 166.24999999999994,
		"velocity": 0.8346456692913385,
		"duration": 0.21666666666666856
	},
	{
		"name": "G1",
		"midi": 31,
		"time": 166.49999999999994,
		"velocity": 0.8346456692913385,
		"duration": 0.21666666666666856
	},
	{
		"name": "G1",
		"midi": 31,
		"time": 166.74999999999994,
		"velocity": 0.8346456692913385,
		"duration": 0.21666666666666856
	},
	{
		"name": "G1",
		"midi": 31,
		"time": 166.99999999999994,
		"velocity": 0.8346456692913385,
		"duration": 0.21666666666666856
	},
	{
		"name": "G1",
		"midi": 31,
		"time": 167.24999999999994,
		"velocity": 0.8346456692913385,
		"duration": 0.21666666666666856
	},
	{
		"name": "G1",
		"midi": 31,
		"time": 167.49999999999994,
		"velocity": 0.8346456692913385,
		"duration": 0.21666666666666856
	},
	{
		"name": "G1",
		"midi": 31,
		"time": 167.74999999999994,
		"velocity": 0.8346456692913385,
		"duration": 0.21666666666666856
	},
	{
		"name": "A#1",
		"midi": 34,
		"time": 167.99999999999994,
		"velocity": 0.8346456692913385,
		"duration": 0.21666666666666856
	},
	{
		"name": "A#1",
		"midi": 34,
		"time": 168.24999999999994,
		"velocity": 0.8346456692913385,
		"duration": 0.21666666666666856
	},
	{
		"name": "A#1",
		"midi": 34,
		"time": 168.49999999999994,
		"velocity": 0.8346456692913385,
		"duration": 0.21666666666666856
	},
	{
		"name": "A#1",
		"midi": 34,
		"time": 168.74999999999994,
		"velocity": 0.8346456692913385,
		"duration": 0.21666666666666856
	},
	{
		"name": "A#1",
		"midi": 34,
		"time": 168.99999999999994,
		"velocity": 0.8346456692913385,
		"duration": 0.21666666666666856
	},
	{
		"name": "A#1",
		"midi": 34,
		"time": 169.24999999999994,
		"velocity": 0.8346456692913385,
		"duration": 0.21666666666666856
	},
	{
		"name": "A#1",
		"midi": 34,
		"time": 169.49999999999994,
		"velocity": 0.8346456692913385,
		"duration": 0.21666666666666856
	},
	{
		"name": "A#1",
		"midi": 34,
		"time": 169.74999999999994,
		"velocity": 0.8346456692913385,
		"duration": 0.21666666666666856
	},
	{
		"name": "F1",
		"midi": 29,
		"time": 169.99999999999994,
		"velocity": 0.8346456692913385,
		"duration": 0.21666666666666856
	},
	{
		"name": "F1",
		"midi": 29,
		"time": 170.24999999999994,
		"velocity": 0.8346456692913385,
		"duration": 0.21666666666666856
	},
	{
		"name": "F1",
		"midi": 29,
		"time": 170.49999999999994,
		"velocity": 0.8346456692913385,
		"duration": 0.21666666666666856
	},
	{
		"name": "F1",
		"midi": 29,
		"time": 170.74999999999994,
		"velocity": 0.8346456692913385,
		"duration": 0.21666666666666856
	},
	{
		"name": "F1",
		"midi": 29,
		"time": 170.99999999999994,
		"velocity": 0.8346456692913385,
		"duration": 0.21666666666666856
	},
	{
		"name": "F1",
		"midi": 29,
		"time": 171.24999999999994,
		"velocity": 0.8346456692913385,
		"duration": 0.21666666666666856
	},
	{
		"name": "F1",
		"midi": 29,
		"time": 171.49999999999994,
		"velocity": 0.8346456692913385,
		"duration": 0.21666666666666856
	},
	{
		"name": "F1",
		"midi": 29,
		"time": 171.74999999999994,
		"velocity": 0.8346456692913385,
		"duration": 0.21666666666666856
	},
	{
		"name": "C2",
		"midi": 36,
		"time": 171.99999999999994,
		"velocity": 0.8346456692913385,
		"duration": 0.21666666666666856
	},
	{
		"name": "C2",
		"midi": 36,
		"time": 172.24999999999994,
		"velocity": 0.8346456692913385,
		"duration": 0.21666666666666856
	},
	{
		"name": "C2",
		"midi": 36,
		"time": 172.49999999999994,
		"velocity": 0.8346456692913385,
		"duration": 0.21666666666666856
	},
	{
		"name": "C2",
		"midi": 36,
		"time": 172.74999999999994,
		"velocity": 0.8346456692913385,
		"duration": 0.21666666666666856
	},
	{
		"name": "C2",
		"midi": 36,
		"time": 172.99999999999994,
		"velocity": 0.8346456692913385,
		"duration": 0.21666666666666856
	},
	{
		"name": "C2",
		"midi": 36,
		"time": 173.24999999999994,
		"velocity": 0.8346456692913385,
		"duration": 0.21666666666666856
	},
	{
		"name": "C2",
		"midi": 36,
		"time": 173.49999999999994,
		"velocity": 0.8346456692913385,
		"duration": 0.21666666666666856
	},
	{
		"name": "C2",
		"midi": 36,
		"time": 173.74999999999994,
		"velocity": 0.8346456692913385,
		"duration": 0.21666666666666856
	},
	{
		"name": "G1",
		"midi": 31,
		"time": 173.99999999999994,
		"velocity": 0.8346456692913385,
		"duration": 0.21666666666666856
	},
	{
		"name": "G1",
		"midi": 31,
		"time": 174.24999999999994,
		"velocity": 0.8346456692913385,
		"duration": 0.21666666666666856
	},
	{
		"name": "G1",
		"midi": 31,
		"time": 174.49999999999994,
		"velocity": 0.8346456692913385,
		"duration": 0.21666666666666856
	},
	{
		"name": "G1",
		"midi": 31,
		"time": 174.74999999999994,
		"velocity": 0.8346456692913385,
		"duration": 0.21666666666666856
	},
	{
		"name": "G1",
		"midi": 31,
		"time": 174.99999999999994,
		"velocity": 0.8346456692913385,
		"duration": 0.21666666666666856
	},
	{
		"name": "G1",
		"midi": 31,
		"time": 175.24999999999994,
		"velocity": 0.8346456692913385,
		"duration": 0.21666666666666856
	},
	{
		"name": "G1",
		"midi": 31,
		"time": 175.49999999999994,
		"velocity": 0.8346456692913385,
		"duration": 0.21666666666666856
	},
	{
		"name": "G1",
		"midi": 31,
		"time": 175.74999999999994,
		"velocity": 0.8346456692913385,
		"duration": 0.21666666666666856
	},
	{
		"name": "A#1",
		"midi": 34,
		"time": 175.99999999999994,
		"velocity": 0.8346456692913385,
		"duration": 0.21666666666666856
	},
	{
		"name": "A#1",
		"midi": 34,
		"time": 176.24999999999994,
		"velocity": 0.8346456692913385,
		"duration": 0.21666666666666856
	},
	{
		"name": "A#1",
		"midi": 34,
		"time": 176.49999999999994,
		"velocity": 0.8346456692913385,
		"duration": 0.21666666666666856
	},
	{
		"name": "A#1",
		"midi": 34,
		"time": 176.74999999999994,
		"velocity": 0.8346456692913385,
		"duration": 0.21666666666666856
	},
	{
		"name": "A#1",
		"midi": 34,
		"time": 176.99999999999994,
		"velocity": 0.8346456692913385,
		"duration": 0.21666666666666856
	},
	{
		"name": "A#1",
		"midi": 34,
		"time": 177.24999999999994,
		"velocity": 0.8346456692913385,
		"duration": 0.21666666666666856
	},
	{
		"name": "A#1",
		"midi": 34,
		"time": 177.49999999999994,
		"velocity": 0.8346456692913385,
		"duration": 0.21666666666666856
	},
	{
		"name": "A#1",
		"midi": 34,
		"time": 177.74999999999994,
		"velocity": 0.8346456692913385,
		"duration": 0.21666666666666856
	},
	{
		"name": "F1",
		"midi": 29,
		"time": 177.99999999999994,
		"velocity": 0.8346456692913385,
		"duration": 0.21666666666666856
	},
	{
		"name": "F1",
		"midi": 29,
		"time": 178.24999999999994,
		"velocity": 0.8346456692913385,
		"duration": 0.21666666666666856
	},
	{
		"name": "F1",
		"midi": 29,
		"time": 178.49999999999994,
		"velocity": 0.8346456692913385,
		"duration": 0.21666666666666856
	},
	{
		"name": "F1",
		"midi": 29,
		"time": 178.74999999999994,
		"velocity": 0.8346456692913385,
		"duration": 0.21666666666666856
	},
	{
		"name": "F1",
		"midi": 29,
		"time": 178.99999999999994,
		"velocity": 0.8346456692913385,
		"duration": 0.21666666666666856
	},
	{
		"name": "F1",
		"midi": 29,
		"time": 179.24999999999994,
		"velocity": 0.8346456692913385,
		"duration": 0.21666666666666856
	},
	{
		"name": "F1",
		"midi": 29,
		"time": 179.49999999999994,
		"velocity": 0.8346456692913385,
		"duration": 0.21666666666666856
	},
	{
		"name": "F1",
		"midi": 29,
		"time": 179.74999999999994,
		"velocity": 0.8346456692913385,
		"duration": 0.21666666666666856
	},
	{
		"name": "C2",
		"midi": 36,
		"time": 179.99999999999994,
		"velocity": 0.8346456692913385,
		"duration": 0.21666666666666856
	},
	{
		"name": "C2",
		"midi": 36,
		"time": 180.24999999999994,
		"velocity": 0.8346456692913385,
		"duration": 0.21666666666666856
	},
	{
		"name": "C2",
		"midi": 36,
		"time": 180.49999999999994,
		"velocity": 0.8346456692913385,
		"duration": 0.21666666666666856
	},
	{
		"name": "C2",
		"midi": 36,
		"time": 180.74999999999994,
		"velocity": 0.8346456692913385,
		"duration": 0.21666666666666856
	},
	{
		"name": "C2",
		"midi": 36,
		"time": 180.99999999999994,
		"velocity": 0.8346456692913385,
		"duration": 0.21666666666666856
	},
	{
		"name": "C2",
		"midi": 36,
		"time": 181.24999999999994,
		"velocity": 0.8346456692913385,
		"duration": 0.21666666666666856
	},
	{
		"name": "C2",
		"midi": 36,
		"time": 181.49999999999994,
		"velocity": 0.8346456692913385,
		"duration": 0.21666666666666856
	},
	{
		"name": "C2",
		"midi": 36,
		"time": 181.74999999999994,
		"velocity": 0.8346456692913385,
		"duration": 0.21666666666666856
	},
	{
		"name": "G1",
		"midi": 31,
		"time": 181.99999999999994,
		"velocity": 0.8346456692913385,
		"duration": 0.21666666666666856
	},
	{
		"name": "G1",
		"midi": 31,
		"time": 182.24999999999994,
		"velocity": 0.8346456692913385,
		"duration": 0.21666666666666856
	},
	{
		"name": "G1",
		"midi": 31,
		"time": 182.49999999999994,
		"velocity": 0.8346456692913385,
		"duration": 0.21666666666666856
	},
	{
		"name": "G1",
		"midi": 31,
		"time": 182.74999999999994,
		"velocity": 0.8346456692913385,
		"duration": 0.21666666666666856
	},
	{
		"name": "G1",
		"midi": 31,
		"time": 182.99999999999994,
		"velocity": 0.8346456692913385,
		"duration": 0.21666666666666856
	},
	{
		"name": "G1",
		"midi": 31,
		"time": 183.24999999999994,
		"velocity": 0.8346456692913385,
		"duration": 0.21666666666666856
	},
	{
		"name": "G1",
		"midi": 31,
		"time": 183.49999999999994,
		"velocity": 0.8346456692913385,
		"duration": 0.21666666666666856
	},
	{
		"name": "G1",
		"midi": 31,
		"time": 183.74999999999994,
		"velocity": 0.8346456692913385,
		"duration": 0.21666666666666856
	},
	{
		"name": "A#1",
		"midi": 34,
		"time": 183.99999999999994,
		"velocity": 0.8346456692913385,
		"duration": 0.21666666666666856
	},
	{
		"name": "A#1",
		"midi": 34,
		"time": 184.24999999999994,
		"velocity": 0.8346456692913385,
		"duration": 0.21666666666666856
	},
	{
		"name": "A#1",
		"midi": 34,
		"time": 184.49999999999994,
		"velocity": 0.8346456692913385,
		"duration": 0.21666666666666856
	},
	{
		"name": "A#1",
		"midi": 34,
		"time": 184.74999999999994,
		"velocity": 0.8346456692913385,
		"duration": 0.21666666666666856
	},
	{
		"name": "A#1",
		"midi": 34,
		"time": 184.99999999999994,
		"velocity": 0.8346456692913385,
		"duration": 0.21666666666666856
	},
	{
		"name": "A#1",
		"midi": 34,
		"time": 185.24999999999994,
		"velocity": 0.8346456692913385,
		"duration": 0.21666666666666856
	},
	{
		"name": "A#1",
		"midi": 34,
		"time": 185.49999999999994,
		"velocity": 0.8346456692913385,
		"duration": 0.21666666666666856
	},
	{
		"name": "A#1",
		"midi": 34,
		"time": 185.74999999999994,
		"velocity": 0.8346456692913385,
		"duration": 0.21666666666666856
	},
	{
		"name": "F1",
		"midi": 29,
		"time": 185.99999999999994,
		"velocity": 0.8346456692913385,
		"duration": 0.21666666666666856
	},
	{
		"name": "F1",
		"midi": 29,
		"time": 186.24999999999994,
		"velocity": 0.8346456692913385,
		"duration": 0.21666666666666856
	},
	{
		"name": "F1",
		"midi": 29,
		"time": 186.49999999999994,
		"velocity": 0.8346456692913385,
		"duration": 0.21666666666666856
	},
	{
		"name": "F1",
		"midi": 29,
		"time": 186.74999999999994,
		"velocity": 0.8346456692913385,
		"duration": 0.21666666666666856
	},
	{
		"name": "F1",
		"midi": 29,
		"time": 186.99999999999994,
		"velocity": 0.8346456692913385,
		"duration": 0.21666666666666856
	},
	{
		"name": "F1",
		"midi": 29,
		"time": 187.24999999999994,
		"velocity": 0.8346456692913385,
		"duration": 0.21666666666666856
	},
	{
		"name": "F1",
		"midi": 29,
		"time": 187.49999999999994,
		"velocity": 0.8346456692913385,
		"duration": 0.21666666666666856
	},
	{
		"name": "F1",
		"midi": 29,
		"time": 187.74999999999994,
		"velocity": 0.8346456692913385,
		"duration": 0.21666666666666856
	},
	{
		"name": "C2",
		"midi": 36,
		"time": 187.99999999999994,
		"velocity": 0.8346456692913385,
		"duration": 0.21666666666666856
	},
	{
		"name": "C2",
		"midi": 36,
		"time": 188.24999999999994,
		"velocity": 0.8346456692913385,
		"duration": 0.21666666666666856
	},
	{
		"name": "C2",
		"midi": 36,
		"time": 188.49999999999994,
		"velocity": 0.8346456692913385,
		"duration": 0.21666666666666856
	},
	{
		"name": "C2",
		"midi": 36,
		"time": 188.74999999999994,
		"velocity": 0.8346456692913385,
		"duration": 0.21666666666666856
	},
	{
		"name": "C2",
		"midi": 36,
		"time": 188.99999999999994,
		"velocity": 0.8346456692913385,
		"duration": 0.21666666666666856
	},
	{
		"name": "C2",
		"midi": 36,
		"time": 189.24999999999994,
		"velocity": 0.8346456692913385,
		"duration": 0.21666666666666856
	},
	{
		"name": "C2",
		"midi": 36,
		"time": 189.49999999999994,
		"velocity": 0.8346456692913385,
		"duration": 0.21666666666666856
	},
	{
		"name": "C2",
		"midi": 36,
		"time": 189.74999999999994,
		"velocity": 0.8346456692913385,
		"duration": 0.21666666666666856
	},
	{
		"name": "G1",
		"midi": 31,
		"time": 189.99999999999994,
		"velocity": 0.8346456692913385,
		"duration": 0.21666666666666856
	},
	{
		"name": "G1",
		"midi": 31,
		"time": 190.24999999999994,
		"velocity": 0.8346456692913385,
		"duration": 0.21666666666666856
	},
	{
		"name": "G1",
		"midi": 31,
		"time": 190.49999999999994,
		"velocity": 0.8346456692913385,
		"duration": 0.21666666666666856
	},
	{
		"name": "G1",
		"midi": 31,
		"time": 190.74999999999994,
		"velocity": 0.8346456692913385,
		"duration": 0.21666666666666856
	},
	{
		"name": "G1",
		"midi": 31,
		"time": 190.99999999999994,
		"velocity": 0.8346456692913385,
		"duration": 0.21666666666666856
	},
	{
		"name": "G1",
		"midi": 31,
		"time": 191.24999999999994,
		"velocity": 0.8346456692913385,
		"duration": 0.21666666666666856
	},
	{
		"name": "G1",
		"midi": 31,
		"time": 191.49999999999994,
		"velocity": 0.8346456692913385,
		"duration": 0.21666666666666856
	},
	{
		"name": "G1",
		"midi": 31,
		"time": 191.74999999999994,
		"velocity": 0.8346456692913385,
		"duration": 0.21666666666666856
	},
	{
		"name": "A#1",
		"midi": 34,
		"time": 191.99999999999994,
		"velocity": 0.8346456692913385,
		"duration": 0.21666666666666856
	},
	{
		"name": "A#1",
		"midi": 34,
		"time": 192.24999999999994,
		"velocity": 0.8346456692913385,
		"duration": 0.21666666666666856
	},
	{
		"name": "A#1",
		"midi": 34,
		"time": 192.49999999999994,
		"velocity": 0.8346456692913385,
		"duration": 0.21666666666666856
	},
	{
		"name": "A#1",
		"midi": 34,
		"time": 192.74999999999994,
		"velocity": 0.8346456692913385,
		"duration": 0.21666666666666856
	},
	{
		"name": "A#1",
		"midi": 34,
		"time": 192.99999999999994,
		"velocity": 0.8346456692913385,
		"duration": 0.21666666666666856
	},
	{
		"name": "A#1",
		"midi": 34,
		"time": 193.24999999999994,
		"velocity": 0.8346456692913385,
		"duration": 0.21666666666666856
	},
	{
		"name": "A#1",
		"midi": 34,
		"time": 193.49999999999994,
		"velocity": 0.8346456692913385,
		"duration": 0.21666666666666856
	},
	{
		"name": "A#1",
		"midi": 34,
		"time": 193.74999999999994,
		"velocity": 0.8346456692913385,
		"duration": 0.21666666666666856
	},
	{
		"name": "F1",
		"midi": 29,
		"time": 193.99999999999994,
		"velocity": 0.8346456692913385,
		"duration": 0.21666666666666856
	},
	{
		"name": "F1",
		"midi": 29,
		"time": 194.24999999999994,
		"velocity": 0.8346456692913385,
		"duration": 0.21666666666666856
	},
	{
		"name": "F1",
		"midi": 29,
		"time": 194.49999999999994,
		"velocity": 0.8346456692913385,
		"duration": 0.21666666666666856
	},
	{
		"name": "F1",
		"midi": 29,
		"time": 194.74999999999994,
		"velocity": 0.8346456692913385,
		"duration": 0.21666666666666856
	},
	{
		"name": "F1",
		"midi": 29,
		"time": 194.99999999999994,
		"velocity": 0.8346456692913385,
		"duration": 0.21666666666666856
	},
	{
		"name": "F1",
		"midi": 29,
		"time": 195.24999999999994,
		"velocity": 0.8346456692913385,
		"duration": 0.21666666666666856
	},
	{
		"name": "F1",
		"midi": 29,
		"time": 195.49999999999994,
		"velocity": 0.8346456692913385,
		"duration": 0.21666666666666856
	},
	{
		"name": "F1",
		"midi": 29,
		"time": 195.74999999999994,
		"velocity": 0.8346456692913385,
		"duration": 0.21666666666666856
	},
	{
		"name": "C2",
		"midi": 36,
		"time": 195.99999999999994,
		"velocity": 0.8346456692913385,
		"duration": 0.21666666666666856
	},
	{
		"name": "C2",
		"midi": 36,
		"time": 196.24999999999994,
		"velocity": 0.8346456692913385,
		"duration": 0.21666666666666856
	},
	{
		"name": "C2",
		"midi": 36,
		"time": 196.49999999999994,
		"velocity": 0.8346456692913385,
		"duration": 0.21666666666666856
	},
	{
		"name": "A#1",
		"midi": 34,
		"time": 196.74999999999994,
		"velocity": 0.8346456692913385,
		"duration": 0.21666666666666856
	},
	{
		"name": "C2",
		"midi": 36,
		"time": 196.99999999999994,
		"velocity": 0.8346456692913385,
		"duration": 0.21666666666666856
	},
	{
		"name": "C2",
		"midi": 36,
		"time": 197.24999999999994,
		"velocity": 0.8346456692913385,
		"duration": 0.21666666666666856
	},
	{
		"name": "C2",
		"midi": 36,
		"time": 197.49999999999994,
		"velocity": 0.8346456692913385,
		"duration": 0.21666666666666856
	},
	{
		"name": "A#1",
		"midi": 34,
		"time": 197.74999999999994,
		"velocity": 0.8346456692913385,
		"duration": 0.21666666666666856
	},
	{
		"name": "G1",
		"midi": 31,
		"time": 197.99999999999994,
		"velocity": 0.8346456692913385,
		"duration": 7.949999999999989
	}
]
}
