{
"notes": [
	{
		"name": "A#3",
		"midi": 58,
		"time": 46.5,
		"velocity": 0.8346456692913385,
		"duration": 0.3333333333333357
	},
	{
		"name": "A#3",
		"midi": 58,
		"time": 47,
		"velocity": 0.8346456692913385,
		"duration": 0.3333333333333357
	},
	{
		"name": "A3",
		"midi": 57,
		"time": 47.5,
		"velocity": 0.8346456692913385,
		"duration": 0.3999999999999986
	},
	{
		"name": "A#3",
		"midi": 58,
		"time": 48,
		"velocity": 0.8346456692913385,
		"duration": 0.9500000000000028
	},
	{
		"name": "A#3",
		"midi": 58,
		"time": 49.25,
		"velocity": 0.8346456692913385,
		"duration": 0.23333333333333428
	},
	{
		"name": "A3",
		"midi": 57,
		"time": 49.5,
		"velocity": 0.8346456692913385,
		"duration": 0.23333333333333428
	},
	{
		"name": "A#3",
		"midi": 58,
		"time": 49.75,
		"velocity": 0.8346456692913385,
		"duration": 1.0499999999999972
	},
	{
		"name": "A#3",
		"midi": 58,
		"time": 51.25,
		"velocity": 0.8346456692913385,
		"duration": 0.23333333333333428
	},
	{
		"name": "A3",
		"midi": 57,
		"time": 51.5,
		"velocity": 0.8346456692913385,
		"duration": 0.23333333333333428
	},
	{
		"name": "A#3",
		"midi": 58,
		"time": 51.75,
		"velocity": 0.8346456692913385,
		"duration": 0.46666666666666856
	},
	{
		"name": "G3",
		"midi": 55,
		"time": 52.25,
		"velocity": 0.8346456692913385,
		"duration": 0.4166666666666643
	},
	{
		"name": "G3",
		"midi": 55,
		"time": 52.75,
		"velocity": 0.8346456692913385,
		"duration": 1.1333333333333329
	},
	{
		"name": "G3",
		"midi": 55,
		"time": 54.25,
		"velocity": 0.8346456692913385,
		"duration": 0.1666666666666643
	},
	{
		"name": "A#3",
		"midi": 58,
		"time": 54.5,
		"velocity": 0.8346456692913385,
		"duration": 0.28333333333333144
	},
	{
		"name": "A#3",
		"midi": 58,
		"time": 55,
		"velocity": 0.8346456692913385,
		"duration": 0.31666666666667
	},
	{
		"name": "A3",
		"midi": 57,
		"time": 55.5,
		"velocity": 0.8346456692913385,
		"duration": 0.3500000000000014
	},
	{
		"name": "A#3",
		"midi": 58,
		"time": 56,
		"velocity": 0.8346456692913385,
		"duration": 1.06666666666667
	},
	{
		"name": "G3",
		"midi": 55,
		"time": 57.25,
		"velocity": 0.8346456692913385,
		"duration": 0.23333333333333428
	},
	{
		"name": "A3",
		"midi": 57,
		"time": 57.5,
		"velocity": 0.8346456692913385,
		"duration": 0.23333333333333428
	},
	{
		"name": "A#3",
		"midi": 58,
		"time": 57.75,
		"velocity": 0.8346456692913385,
		"duration": 1.3500000000000014
	},
	{
		"name": "G3",
		"midi": 55,
		"time": 59.25,
		"velocity": 0.8346456692913385,
		"duration": 0.23333333333333428
	},
	{
		"name": "A3",
		"midi": 57,
		"time": 59.5,
		"velocity": 0.8346456692913385,
		"duration": 0.23333333333333428
	},
	{
		"name": "A#3",
		"midi": 58,
		"time": 59.75,
		"velocity": 0.8346456692913385,
		"duration": 0.3999999999999986
	},
	{
		"name": "G3",
		"midi": 55,
		"time": 60.25,
		"velocity": 0.8346456692913385,
		"duration": 0.3333333333333357
	},
	{
		"name": "G3",
		"midi": 55,
		"time": 60.75,
		"velocity": 0.8346456692913385,
		"duration": 1.18333333333333
	},
	{
		"name": "G3",
		"midi": 55,
		"time": 62.25,
		"velocity": 0.8346456692913385,
		"duration": 0.23333333333333428
	},
	{
		"name": "D4",
		"midi": 62,
		"time": 62.5,
		"velocity": 0.8346456692913385,
		"duration": 0.3500000000000014
	},
	{
		"name": "D4",
		"midi": 62,
		"time": 63,
		"velocity": 0.8346456692913385,
		"duration": 0.3500000000000014
	},
	{
		"name": "C4",
		"midi": 60,
		"time": 63.5,
		"velocity": 0.8346456692913385,
		"duration": 0.45000000000000284
	},
	{
		"name": "A#3",
		"midi": 58,
		"time": 64,
		"velocity": 0.8346456692913385,
		"duration": 1.6500000000000057
	},
	{
		"name": "A#3",
		"midi": 58,
		"time": 65.75,
		"velocity": 0.8346456692913385,
		"duration": 0.21666666666666856
	},
	{
		"name": "C4",
		"midi": 60,
		"time": 66,
		"velocity": 0.8346456692913385,
		"duration": 0.9666666666666686
	},
	{
		"name": "D4",
		"midi": 62,
		"time": 67,
		"velocity": 0.8346456692913385,
		"duration": 0.9500000000000028
	},
	{
		"name": "C4",
		"midi": 60,
		"time": 68,
		"velocity": 0.8346456692913385,
		"duration": 1.9666666666666686
	},
	{
		"name": "G4",
		"midi": 67,
		"time": 70,
		"velocity": 0.8346456692913385,
		"duration": 0.9666666666666686
	},
	{
		"name": "F4",
		"midi": 65,
		"time": 71,
		"velocity": 0.8346456692913385,
		"duration": 0.9500000000000028
	},
	{
		"name": "G4",
		"midi": 67,
		"time": 72,
		"velocity": 0.8346456692913385,
		"duration": 1.4666666666666686
	},
	{
		"name": "D4",
		"midi": 62,
		"time": 73.75,
		"velocity": 0.8346456692913385,
		"duration": 0.20000000000000284
	},
	{
		"name": "F4",
		"midi": 65,
		"time": 74,
		"velocity": 0.8346456692913385,
		"duration": 0.28333333333333144
	},
	{
		"name": "D#4",
		"midi": 63,
		"time": 74.5,
		"velocity": 0.8346456692913385,
		"duration": 0.3333333333333286
	},
	{
		"name": "D4",
		"midi": 62,
		"time": 75,
		"velocity": 0.8346456692913385,
		"duration": 0.9500000000000028
	},
	{
		"name": "D4",
		"midi": 62,
		"time": 76.25,
		"velocity": 0.8346456692913385,
		"duration": 0.20000000000000284
	},
	{
		"name": "F4",
		"midi": 65,
		"time": 76.5,
		"velocity": 0.8346456692913385,
		"duration": 0.3166666666666629
	},
	{
		"name": "F4",
		"midi": 65,
		"time": 77,
		"velocity": 0.8346456692913385,
		"duration": 0.36666666666666003
	},
	{
		"name": "D4",
		"midi": 62,
		"time": 77.5,
		"velocity": 0.8346456692913385,
		"duration": 0.29999999999999716
	},
	{
		"name": "G4",
		"midi": 67,
		"time": 78,
		"velocity": 0.8346456692913385,
		"duration": 0.9166666666666714
	},
	{
		"name": "F4",
		"midi": 65,
		"time": 79,
		"velocity": 0.8346456692913385,
		"duration": 0.9500000000000028
	},
	{
		"name": "G4",
		"midi": 67,
		"time": 80,
		"velocity": 0.8346456692913385,
		"duration": 1.4333333333333371
	},
	{
		"name": "D4",
		"midi": 62,
		"time": 81.75,
		"velocity": 0.8346456692913385,
		"duration": 0.23333333333333428
	},
	{
		"name": "F4",
		"midi": 65,
		"time": 82,
		"velocity": 0.8346456692913385,
		"duration": 0.29999999999999716
	},
	{
		"name": "D#4",
		"midi": 63,
		"time": 82.5,
		"velocity": 0.8346456692913385,
		"duration": 0.28333333333333144
	},
	{
		"name": "D4",
		"midi": 62,
		"time": 83,
		"velocity": 0.8346456692913385,
		"duration": 0.9333333333333371
	},
	{
		"name": "D4",
		"midi": 62,
		"time": 84.25,
		"velocity": 0.8346456692913385,
		"duration": 0.23333333333333428
	},
	{
		"name": "F4",
		"midi": 65,
		"time": 84.5,
		"velocity": 0.8346456692913385,
		"duration": 0.28333333333333144
	},
	{
		"name": "F4",
		"midi": 65,
		"time": 85,
		"velocity": 0.8346456692913385,
		"duration": 0.2666666666666657
	},
	{
		"name": "D4",
		"midi": 62,
		"time": 85.5,
		"velocity": 0.8346456692913385,
		"duration": 0.2666666666666657
	},
	{
		"name": "G4",
		"midi": 67,
		"time": 86,
		"velocity": 0.8346456692913385,
		"duration": 0.9166666666666714
	},
	{
		"name": "F4",
		"midi": 65,
		"time": 87,
		"velocity": 0.8346456692913385,
		"duration": 0.9666666666666686
	},
	{
		"name": "G4",
		"midi": 67,
		"time": 88,
		"velocity": 0.8346456692913385,
		"duration": 1.0166666666666657
	},
	{
		"name": "D4",
		"midi": 62,
		"time": 89.25,
		"velocity": 0.8346456692913385,
		"duration": 0.25
	},
	{
		"name": "C4",
		"midi": 60,
		"time": 89.5,
		"velocity": 0.8346456692913385,
		"duration": 0.25
	},
	{
		"name": "A#3",
		"midi": 58,
		"time": 89.75,
		"velocity": 0.8346456692913385,
		"duration": 1.1833333333333371
	},
	{
		"name": "G3",
		"midi": 55,
		"time": 91.25,
		"velocity": 0.8346456692913385,
		"duration": 0.1666666666666714
	},
	{
		"name": "G3",
		"midi": 55,
		"time": 91.5,
		"velocity": 0.8346456692913385,
		"duration": 0.20000000000000284
	},
	{
		"name": "A#3",
		"midi": 58,
		"time": 91.75,
		"velocity": 0.8346456692913385,
		"duration": 0.4000000000000057
	},
	{
		"name": "G3",
		"midi": 55,
		"time": 92.25,
		"velocity": 0.8346456692913385,
		"duration": 0.29999999999999716
	},
	{
		"name": "G3",
		"midi": 55,
		"time": 92.75,
		"velocity": 0.8346456692913385,
		"duration": 1.0833333333333286
	},
	{
		"name": "G3",
		"midi": 55,
		"time": 94.25,
		"velocity": 0.8346456692913385,
		"duration": 0.23333333333333428
	},
	{
		"name": "A#3",
		"midi": 58,
		"time": 94.5,
		"velocity": 0.8346456692913385,
		"duration": 0.29999999999999716
	},
	{
		"name": "A#3",
		"midi": 58,
		"time": 95,
		"velocity": 0.8346456692913385,
		"duration": 0.28333333333333144
	},
	{
		"name": "A3",
		"midi": 57,
		"time": 95.5,
		"velocity": 0.8346456692913385,
		"duration": 0.29999999999999716
	},
	{
		"name": "A#3",
		"midi": 58,
		"time": 96,
		"velocity": 0.8346456692913385,
		"duration": 0.9666666666666686
	},
	{
		"name": "G3",
		"midi": 55,
		"time": 97.25,
		"velocity": 0.8346456692913385,
		"duration": 0.21666666666666856
	},
	{
		"name": "A3",
		"midi": 57,
		"time": 97.5,
		"velocity": 0.8346456692913385,
		"duration": 0.21666666666666856
	},
	{
		"name": "A#3",
		"midi": 58,
		"time": 97.75,
		"velocity": 0.8346456692913385,
		"duration": 1.1833333333333371
	},
	{
		"name": "G3",
		"midi": 55,
		"time": 99.25,
		"velocity": 0.8346456692913385,
		"duration": 0.21666666666666856
	},
	{
		"name": "A3",
		"midi": 57,
		"time": 99.5,
		"velocity": 0.8346456692913385,
		"duration": 0.21666666666666856
	},
	{
		"name": "A#3",
		"midi": 58,
		"time": 99.75,
		"velocity": 0.8346456692913385,
		"duration": 0.38333333333333997
	},
	{
		"name": "C4",
		"midi": 60,
		"time": 100.25,
		"velocity": 0.8346456692913385,
		"duration": 0.3499999999999943
	},
	{
		"name": "C4",
		"midi": 60,
		"time": 100.75,
		"velocity": 0.8346456692913385,
		"duration": 1.1500000000000057
	},
	{
		"name": "C4",
		"midi": 60,
		"time": 102.25,
		"velocity": 0.8346456692913385,
		"duration": 0.21666666666666856
	},
	{
		"name": "D4",
		"midi": 62,
		"time": 102.5,
		"velocity": 0.8346456692913385,
		"duration": 0.28333333333333144
	},
	{
		"name": "D4",
		"midi": 62,
		"time": 103,
		"velocity": 0.8346456692913385,
		"duration": 0.28333333333333144
	},
	{
		"name": "C4",
		"midi": 60,
		"time": 103.5,
		"velocity": 0.8346456692913385,
		"duration": 0.3333333333333286
	},
	{
		"name": "A#3",
		"midi": 58,
		"time": 104,
		"velocity": 0.8346456692913385,
		"duration": 1.6500000000000057
	},
	{
		"name": "A#3",
		"midi": 58,
		"time": 105.75,
		"velocity": 0.8346456692913385,
		"duration": 0.21666666666666856
	},
	{
		"name": "C4",
		"midi": 60,
		"time": 106,
		"velocity": 0.8346456692913385,
		"duration": 0.9666666666666686
	},
	{
		"name": "D4",
		"midi": 62,
		"time": 107,
		"velocity": 0.8346456692913385,
		"duration": 0.9500000000000028
	},
	{
		"name": "C4",
		"midi": 60,
		"time": 108,
		"velocity": 0.8346456692913385,
		"duration": 1.9666666666666686
	},
	{
		"name": "G4",
		"midi": 67,
		"time": 110,
		"velocity": 0.8346456692913385,
		"duration": 0.9666666666666686
	},
	{
		"name": "F4",
		"midi": 65,
		"time": 111,
		"velocity": 0.8346456692913385,
		"duration": 0.9500000000000028
	},
	{
		"name": "G4",
		"midi": 67,
		"time": 112,
		"velocity": 0.8346456692913385,
		"duration": 1.4500000000000028
	},
	{
		"name": "D4",
		"midi": 62,
		"time": 113.75,
		"velocity": 0.8346456692913385,
		"duration": 0.20000000000000284
	},
	{
		"name": "F4",
		"midi": 65,
		"time": 114,
		"velocity": 0.8346456692913385,
		"duration": 0.28333333333333144
	},
	{
		"name": "D#4",
		"midi": 63,
		"time": 114.5,
		"velocity": 0.8346456692913385,
		"duration": 0.3333333333333286
	},
	{
		"name": "D4",
		"midi": 62,
		"time": 115,
		"velocity": 0.8346456692913385,
		"duration": 0.9500000000000028
	},
	{
		"name": "D4",
		"midi": 62,
		"time": 116.25,
		"velocity": 0.8346456692913385,
		"duration": 0.20000000000000284
	},
	{
		"name": "F4",
		"midi": 65,
		"time": 116.5,
		"velocity": 0.8346456692913385,
		"duration": 0.3166666666666629
	},
	{
		"name": "F4",
		"midi": 65,
		"time": 117,
		"velocity": 0.8346456692913385,
		"duration": 0.36666666666666003
	},
	{
		"name": "D4",
		"midi": 62,
		"time": 117.5,
		"velocity": 0.8346456692913385,
		"duration": 0.36666666666666003
	},
	{
		"name": "G4",
		"midi": 67,
		"time": 118,
		"velocity": 0.8346456692913385,
		"duration": 0.9166666666666714
	},
	{
		"name": "F4",
		"midi": 65,
		"time": 119,
		"velocity": 0.8346456692913385,
		"duration": 0.9500000000000028
	},
	{
		"name": "G4",
		"midi": 67,
		"time": 120,
		"velocity": 0.8346456692913385,
		"duration": 1.4500000000000028
	},
	{
		"name": "D4",
		"midi": 62,
		"time": 121.75,
		"velocity": 0.8346456692913385,
		"duration": 0.23333333333333428
	},
	{
		"name": "F4",
		"midi": 65,
		"time": 122,
		"velocity": 0.8346456692913385,
		"duration": 0.29999999999999716
	},
	{
		"name": "D#4",
		"midi": 63,
		"time": 122.5,
		"velocity": 0.8346456692913385,
		"duration": 0.28333333333333144
	},
	{
		"name": "D4",
		"midi": 62,
		"time": 123,
		"velocity": 0.8346456692913385,
		"duration": 0.9000000000000057
	},
	{
		"name": "D4",
		"midi": 62,
		"time": 124.25,
		"velocity": 0.8346456692913385,
		"duration": 0.23333333333333428
	},
	{
		"name": "F4",
		"midi": 65,
		"time": 124.5,
		"velocity": 0.8346456692913385,
		"duration": 0.28333333333333144
	},
	{
		"name": "F4",
		"midi": 65,
		"time": 125,
		"velocity": 0.8346456692913385,
		"duration": 0.2666666666666657
	},
	{
		"name": "D4",
		"midi": 62,
		"time": 125.5,
		"velocity": 0.8346456692913385,
		"duration": 0.2666666666666657
	},
	{
		"name": "G4",
		"midi": 67,
		"time": 126,
		"velocity": 0.8346456692913385,
		"duration": 1.9166666666666714
	},
	{
		"name": "F4",
		"midi": 65,
		"time": 128,
		"velocity": 0.8346456692913385,
		"duration": 1.4499999999999886
	},
	{
		"name": "F4",
		"midi": 65,
		"time": 145.5,
		"velocity": 0.8346456692913385,
		"duration": 0.4333333333333371
	},
	{
		"name": "G4",
		"midi": 67,
		"time": 146,
		"velocity": 0.8346456692913385,
		"duration": 0.8666666666666742
	},
	{
		"name": "F4",
		"midi": 65,
		"time": 147,
		"velocity": 0.8346456692913385,
		"duration": 0.9166666666666572
	},
	{
		"name": "G4",
		"midi": 67,
		"time": 148,
		"velocity": 0.8346456692913385,
		"duration": 1.4499999999999886
	},
	{
		"name": "D4",
		"midi": 62,
		"time": 149.75,
		"velocity": 0.8346456692913385,
		"duration": 0.18333333333333712
	},
	{
		"name": "F4",
		"midi": 65,
		"time": 150,
		"velocity": 0.8346456692913385,
		"duration": 0.30000000000001137
	},
	{
		"name": "D#4",
		"midi": 63,
		"time": 150.5,
		"velocity": 0.8346456692913385,
		"duration": 0.26666666666667993
	},
	{
		"name": "D4",
		"midi": 62,
		"time": 151,
		"velocity": 0.8346456692913385,
		"duration": 0.9166666666666572
	},
	{
		"name": "D4",
		"midi": 62,
		"time": 152.25,
		"velocity": 0.8346456692913385,
		"duration": 0.19999999999998863
	},
	{
		"name": "F4",
		"midi": 65,
		"time": 152.5,
		"velocity": 0.8346456692913385,
		"duration": 0.26666666666667993
	},
	{
		"name": "F4",
		"midi": 65,
		"time": 153,
		"velocity": 0.8346456692913385,
		"duration": 0.26666666666667993
	},
	{
		"name": "D4",
		"midi": 62,
		"time": 153.5,
		"velocity": 0.8346456692913385,
		"duration": 0.36666666666667425
	},
	{
		"name": "G4",
		"midi": 67,
		"time": 154,
		"velocity": 0.8346456692913385,
		"duration": 0.9333333333333371
	},
	{
		"name": "F4",
		"midi": 65,
		"time": 155,
		"velocity": 0.8346456692913385,
		"duration": 0.9666666666666686
	},
	{
		"name": "G4",
		"midi": 67,
		"time": 156,
		"velocity": 0.8346456692913385,
		"duration": 1.4666666666666686
	},
	{
		"name": "D4",
		"midi": 62,
		"time": 157.75,
		"velocity": 0.8346456692913385,
		"duration": 0.23333333333332007
	},
	{
		"name": "F4",
		"midi": 65,
		"time": 158,
		"velocity": 0.8346456692913385,
		"duration": 0.30000000000001137
	},
	{
		"name": "D#4",
		"midi": 63,
		"time": 158.5,
		"velocity": 0.8346456692913385,
		"duration": 0.3166666666666629
	},
	{
		"name": "D4",
		"midi": 62,
		"time": 159,
		"velocity": 0.8346456692913385,
		"duration": 0.9333333333333371
	},
	{
		"name": "D4",
		"midi": 62,
		"time": 160.25,
		"velocity": 0.8346456692913385,
		"duration": 0.23333333333332007
	},
	{
		"name": "F4",
		"midi": 65,
		"time": 160.5,
		"velocity": 0.8346456692913385,
		"duration": 0.23333333333332007
	},
	{
		"name": "F4",
		"midi": 65,
		"time": 161,
		"velocity": 0.8346456692913385,
		"duration": 0.30000000000001137
	},
	{
		"name": "D4",
		"midi": 62,
		"time": 161.5,
		"velocity": 0.8346456692913385,
		"duration": 0.3499999999999943
	},
	{
		"name": "G4",
		"midi": 67,
		"time": 162,
		"velocity": 0.8346456692913385,
		"duration": 1.9499999999999886
	},
	{
		"name": "F4",
		"midi": 65,
		"time": 164,
		"velocity": 0.8346456692913385,
		"duration": 1.4666666666666686
	},
	{
		"name": "G4",
		"midi": 67,
		"time": 166,
		"velocity": 0.8346456692913385,
		"duration": 1.4666666666666686
	},
	{
		"name": "D4",
		"midi": 62,
		"time": 167.75,
		"velocity": 0.8346456692913385,
		"duration": 0.19999999999998863
	},
	{
		"name": "F4",
		"midi": 65,
		"time": 168,
		"velocity": 0.8346456692913385,
		"duration": 0.28333333333333144
	},
	{
		"name": "D#4",
		"midi": 63,
		"time": 168.5,
		"velocity": 0.8346456692913385,
		"duration": 0.3333333333333428
	},
	{
		"name": "D4",
		"midi": 62,
		"time": 169,
		"velocity": 0.8346456692913385,
		"duration": 0.9000000000000057
	},
	{
		"name": "D4",
		"midi": 62,
		"time": 170.25,
		"velocity": 0.8346456692913385,
		"duration": 0.19999999999998863
	},
	{
		"name": "F4",
		"midi": 65,
		"time": 170.5,
		"velocity": 0.8346456692913385,
		"duration": 0.3166666666666629
	},
	{
		"name": "F4",
		"midi": 65,
		"time": 171,
		"velocity": 0.8346456692913385,
		"duration": 0.36666666666667425
	},
	{
		"name": "D4",
		"midi": 62,
		"time": 171.5,
		"velocity": 0.8346456692913385,
		"duration": 0.44999999999998863
	},
	{
		"name": "G4",
		"midi": 67,
		"time": 172,
		"velocity": 0.8346456692913385,
		"duration": 0.9166666666666572
	},
	{
		"name": "F4",
		"midi": 65,
		"time": 173,
		"velocity": 0.8346456692913385,
		"duration": 0.9000000000000057
	},
	{
		"name": "G4",
		"midi": 67,
		"time": 174,
		"velocity": 0.8346456692913385,
		"duration": 1.5833333333333428
	},
	{
		"name": "D4",
		"midi": 62,
		"time": 175.75,
		"velocity": 0.8346456692913385,
		"duration": 0.23333333333332007
	},
	{
		"name": "F4",
		"midi": 65,
		"time": 176,
		"velocity": 0.8346456692913385,
		"duration": 0.30000000000001137
	},
	{
		"name": "D#4",
		"midi": 63,
		"time": 176.5,
		"velocity": 0.8346456692913385,
		"duration": 0.28333333333333144
	},
	{
		"name": "D4",
		"midi": 62,
		"time": 177,
		"velocity": 0.8346456692913385,
		"duration": 0.8833333333333258
	},
	{
		"name": "D4",
		"midi": 62,
		"time": 178.25,
		"velocity": 0.8346456692913385,
		"duration": 0.23333333333332007
	},
	{
		"name": "F4",
		"midi": 65,
		"time": 178.5,
		"velocity": 0.8346456692913385,
		"duration": 0.28333333333333144
	},
	{
		"name": "F4",
		"midi": 65,
		"time": 179,
		"velocity": 0.8346456692913385,
		"duration": 0.26666666666667993
	},
	{
		"name": "D4",
		"midi": 62,
		"time": 179.5,
		"velocity": 0.8346456692913385,
		"duration": 0.3166666666666629
	},
	{
		"name": "G4",
		"midi": 67,
		"time": 180,
		"velocity": 0.8346456692913385,
		"duration": 0.9166666666666572
	},
	{
		"name": "F4",
		"midi": 65,
		"time": 181,
		"velocity": 0.8346456692913385,
		"duration": 0.9666666666666686
	},
	{
		"name": "G4",
		"midi": 67,
		"time": 182,
		"velocity": 0.8346456692913385,
		"duration": 5.800000000000011
	},
	{
		"name": "G4",
		"midi": 67,
		"time": 188,
		"velocity": 0.8346456692913385,
		"duration": 0.9499999999999886
	},
	{
		"name": "F4",
		"midi": 65,
		"time": 189,
		"velocity": 0.8346456692913385,
		"duration": 0.9666666666666686
	},
	{
		"name": "G4",
		"midi": 67,
		"time": 190,
		"velocity": 0.8346456692913385,
		"duration": 4.25
	},
	{
		"name": "F4",
		"midi": 65,
		"time": 194.5,
		"velocity": 0.8346456692913385,
		"duration": 0.3499999999999943
	},
	{
		"name": "F4",
		"midi": 65,
		"time": 195,
		"velocity": 0.8346456692913385,
		"duration": 0.3499999999999943
	},
	{
		"name": "D4",
		"midi": 62,
		"time": 195.5,
		"velocity": 0.8346456692913385,
		"duration": 0.3499999999999943
	},
	{
		"name": "G4",
		"midi": 67,
		"time": 196,
		"velocity": 0.8346456692913385,
		"duration": 0.9166666666666572
	},
	{
		"name": "F4",
		"midi": 65,
		"time": 197,
		"velocity": 0.8346456692913385,
		"duration": 0.9333333333333371
	}
]
}
