{ "notes": [
	{
		"name": "D3",
		"midi": 50,
		"time": 12,
		"velocity": 0.8346456692913385,
		"duration": 1.9000000000000004
	},
	{
		"name": "G3",
		"midi": 55,
		"time": 12,
		"velocity": 0.5039370078740157,
		"duration": 1.9333333333333336
	},
	{
		"name": "G2",
		"midi": 43,
		"time": 12,
		"velocity": 0.8346456692913385,
		"duration": 1.9000000000000004
	},
	{
		"name": "A#2",
		"midi": 46,
		"time": 14,
		"velocity": 0.8346456692913385,
		"duration": 1.9000000000000004
	},
	{
		"name": "A#3",
		"midi": 58,
		"time": 14,
		"velocity": 0.5039370078740157,
		"duration": 1.9333333333333336
	},
	{
		"name": "F3",
		"midi": 53,
		"time": 14,
		"velocity": 0.8346456692913385,
		"duration": 1.9000000000000004
	},
	{
		"name": "F4",
		"midi": 65,
		"time": 16,
		"velocity": 0.5039370078740157,
		"duration": 1.9333333333333336
	},
	{
		"name": "F3",
		"midi": 53,
		"time": 16,
		"velocity": 0.8346456692913385,
		"duration": 1.8999999999999986
	},
	{
		"name": "C4",
		"midi": 60,
		"time": 16,
		"velocity": 0.8346456692913385,
		"duration": 1.8999999999999986
	},
	{
		"name": "C3",
		"midi": 48,
		"time": 18,
		"velocity": 0.8346456692913385,
		"duration": 1.9666666666666686
	},
	{
		"name": "G3",
		"midi": 55,
		"time": 18,
		"velocity": 0.8346456692913385,
		"duration": 1.8999999999999986
	},
	{
		"name": "C4",
		"midi": 60,
		"time": 18,
		"velocity": 0.5039370078740157,
		"duration": 1.9333333333333336
	},
	{
		"name": "G2",
		"midi": 43,
		"time": 20.000000000000004,
		"velocity": 0.8346456692913385,
		"duration": 1.8999999999999986
	},
	{
		"name": "D3",
		"midi": 50,
		"time": 20.000000000000004,
		"velocity": 0.8346456692913385,
		"duration": 1.8999999999999986
	},
	{
		"name": "G3",
		"midi": 55,
		"time": 20.000000000000004,
		"velocity": 0.5039370078740157,
		"duration": 1.9333333333333336
	},
	{
		"name": "A#3",
		"midi": 58,
		"time": 22.000000000000004,
		"velocity": 0.5039370078740157,
		"duration": 1.9333333333333336
	},
	{
		"name": "A#2",
		"midi": 46,
		"time": 22.000000000000004,
		"velocity": 0.8346456692913385,
		"duration": 1.8999999999999986
	},
	{
		"name": "F3",
		"midi": 53,
		"time": 22.000000000000004,
		"velocity": 0.8346456692913385,
		"duration": 1.8999999999999986
	},
	{
		"name": "F3",
		"midi": 53,
		"time": 24.000000000000004,
		"velocity": 0.8346456692913385,
		"duration": 1.8999999999999986
	},
	{
		"name": "C4",
		"midi": 60,
		"time": 24.000000000000004,
		"velocity": 0.8346456692913385,
		"duration": 1.8999999999999986
	},
	{
		"name": "F4",
		"midi": 65,
		"time": 24.000000000000004,
		"velocity": 0.5039370078740157,
		"duration": 1.9333333333333336
	},
	{
		"name": "C3",
		"midi": 48,
		"time": 26.000000000000004,
		"velocity": 0.8346456692913385,
		"duration": 1.9666666666666686
	},
	{
		"name": "C4",
		"midi": 60,
		"time": 26.000000000000004,
		"velocity": 0.5039370078740157,
		"duration": 1.9333333333333336
	},
	{
		"name": "G3",
		"midi": 55,
		"time": 26.000000000000004,
		"velocity": 0.8346456692913385,
		"duration": 1.8999999999999986
	},
	{
		"name": "D3",
		"midi": 50,
		"time": 28.000000000000007,
		"velocity": 0.8346456692913385,
		"duration": 1.8999999999999986
	},
	{
		"name": "G3",
		"midi": 55,
		"time": 28.000000000000007,
		"velocity": 0.5039370078740157,
		"duration": 1.9333333333333336
	},
	{
		"name": "G2",
		"midi": 43,
		"time": 28.000000000000007,
		"velocity": 0.8346456692913385,
		"duration": 1.8999999999999986
	},
	{
		"name": "A#2",
		"midi": 46,
		"time": 30.000000000000007,
		"velocity": 0.8346456692913385,
		"duration": 1.8999999999999986
	},
	{
		"name": "F3",
		"midi": 53,
		"time": 30.000000000000007,
		"velocity": 0.8346456692913385,
		"duration": 1.8999999999999986
	},
	{
		"name": "A#3",
		"midi": 58,
		"time": 30.000000000000007,
		"velocity": 0.5039370078740157,
		"duration": 1.9333333333333336
	},
	{
		"name": "F4",
		"midi": 65,
		"time": 32.00000000000001,
		"velocity": 0.5039370078740157,
		"duration": 1.93333333333333
	},
	{
		"name": "F3",
		"midi": 53,
		"time": 32.00000000000001,
		"velocity": 0.8346456692913385,
		"duration": 1.8999999999999986
	},
	{
		"name": "C4",
		"midi": 60,
		"time": 32.00000000000001,
		"velocity": 0.8346456692913385,
		"duration": 1.8999999999999986
	},
	{
		"name": "C3",
		"midi": 48,
		"time": 34.00000000000001,
		"velocity": 0.8346456692913385,
		"duration": 1.9666666666666615
	},
	{
		"name": "C4",
		"midi": 60,
		"time": 34.00000000000001,
		"velocity": 0.5039370078740157,
		"duration": 1.93333333333333
	},
	{
		"name": "G3",
		"midi": 55,
		"time": 34.00000000000001,
		"velocity": 0.8346456692913385,
		"duration": 1.8999999999999986
	},
	{
		"name": "G2",
		"midi": 43,
		"time": 36,
		"velocity": 0.8346456692913385,
		"duration": 1.8999999999999986
	},
	{
		"name": "D3",
		"midi": 50,
		"time": 36,
		"velocity": 0.8346456692913385,
		"duration": 1.8999999999999986
	},
	{
		"name": "G3",
		"midi": 55,
		"time": 36,
		"velocity": 0.5039370078740157,
		"duration": 1.93333333333333
	},
	{
		"name": "F3",
		"midi": 53,
		"time": 38,
		"velocity": 0.8346456692913385,
		"duration": 1.8999999999999986
	},
	{
		"name": "A#3",
		"midi": 58,
		"time": 38,
		"velocity": 0.5039370078740157,
		"duration": 1.93333333333333
	},
	{
		"name": "A#2",
		"midi": 46,
		"time": 38,
		"velocity": 0.8346456692913385,
		"duration": 1.8999999999999986
	},
	{
		"name": "F3",
		"midi": 53,
		"time": 40,
		"velocity": 0.8346456692913385,
		"duration": 1.8999999999999986
	},
	{
		"name": "C4",
		"midi": 60,
		"time": 40,
		"velocity": 0.8346456692913385,
		"duration": 1.8999999999999986
	},
	{
		"name": "F4",
		"midi": 65,
		"time": 40,
		"velocity": 0.5039370078740157,
		"duration": 1.93333333333333
	},
	{
		"name": "C4",
		"midi": 60,
		"time": 42,
		"velocity": 0.5039370078740157,
		"duration": 1.93333333333333
	},
	{
		"name": "G3",
		"midi": 55,
		"time": 42,
		"velocity": 0.8346456692913385,
		"duration": 1.8999999999999986
	},
	{
		"name": "C3",
		"midi": 48,
		"time": 42,
		"velocity": 0.8346456692913385,
		"duration": 1.9666666666666615
	},
	{
		"name": "D5",
		"midi": 74,
		"time": 64,
		"velocity": 0.8346456692913385,
		"duration": 0.9333333333333371
	},
	{
		"name": "D5",
		"midi": 74,
		"time": 65,
		"velocity": 0.8346456692913385,
		"duration": 0.9333333333333371
	},
	{
		"name": "D5",
		"midi": 74,
		"time": 66,
		"velocity": 0.8346456692913385,
		"duration": 0.9333333333333371
	},
	{
		"name": "D5",
		"midi": 74,
		"time": 67,
		"velocity": 0.8346456692913385,
		"duration": 0.9333333333333371
	},
	{
		"name": "D5",
		"midi": 74,
		"time": 68,
		"velocity": 0.8346456692913385,
		"duration": 0.9333333333333371
	},
	{
		"name": "D5",
		"midi": 74,
		"time": 69,
		"velocity": 0.8346456692913385,
		"duration": 0.9333333333333371
	},
	{
		"name": "D5",
		"midi": 74,
		"time": 70,
		"velocity": 0.8346456692913385,
		"duration": 1.9666666666666686
	},
	{
		"name": "G2",
		"midi": 43,
		"time": 72,
		"velocity": 0.8346456692913385,
		"duration": 1.9000000000000057
	},
	{
		"name": "D3",
		"midi": 50,
		"time": 72,
		"velocity": 0.8346456692913385,
		"duration": 1.9000000000000057
	},
	{
		"name": "G3",
		"midi": 55,
		"time": 72,
		"velocity": 0.5039370078740157,
		"duration": 1.9333333333333371
	},
	{
		"name": "F3",
		"midi": 53,
		"time": 74,
		"velocity": 0.8346456692913385,
		"duration": 1.9000000000000057
	},
	{
		"name": "A#2",
		"midi": 46,
		"time": 74,
		"velocity": 0.8346456692913385,
		"duration": 1.9000000000000057
	},
	{
		"name": "A#3",
		"midi": 58,
		"time": 74,
		"velocity": 0.5039370078740157,
		"duration": 1.9333333333333371
	},
	{
		"name": "C4",
		"midi": 60,
		"time": 76,
		"velocity": 0.8346456692913385,
		"duration": 1.9000000000000057
	},
	{
		"name": "F4",
		"midi": 65,
		"time": 76,
		"velocity": 0.5039370078740157,
		"duration": 1.9333333333333371
	},
	{
		"name": "F3",
		"midi": 53,
		"time": 76,
		"velocity": 0.8346456692913385,
		"duration": 1.9000000000000057
	},
	{
		"name": "C4",
		"midi": 60,
		"time": 78,
		"velocity": 0.5039370078740157,
		"duration": 1.9333333333333371
	},
	{
		"name": "C3",
		"midi": 48,
		"time": 78,
		"velocity": 0.8346456692913385,
		"duration": 1.9666666666666686
	},
	{
		"name": "G3",
		"midi": 55,
		"time": 78,
		"velocity": 0.8346456692913385,
		"duration": 1.9000000000000057
	},
	{
		"name": "G3",
		"midi": 55,
		"time": 80,
		"velocity": 0.5039370078740157,
		"duration": 1.9333333333333371
	},
	{
		"name": "D3",
		"midi": 50,
		"time": 80,
		"velocity": 0.8346456692913385,
		"duration": 1.9000000000000057
	},
	{
		"name": "G2",
		"midi": 43,
		"time": 80,
		"velocity": 0.8346456692913385,
		"duration": 1.9000000000000057
	},
	{
		"name": "A#3",
		"midi": 58,
		"time": 82,
		"velocity": 0.5039370078740157,
		"duration": 1.9333333333333371
	},
	{
		"name": "F3",
		"midi": 53,
		"time": 82,
		"velocity": 0.8346456692913385,
		"duration": 1.9000000000000057
	},
	{
		"name": "A#2",
		"midi": 46,
		"time": 82,
		"velocity": 0.8346456692913385,
		"duration": 1.9000000000000057
	},
	{
		"name": "F3",
		"midi": 53,
		"time": 84,
		"velocity": 0.8346456692913385,
		"duration": 1.9000000000000057
	},
	{
		"name": "C4",
		"midi": 60,
		"time": 84,
		"velocity": 0.8346456692913385,
		"duration": 1.9000000000000057
	},
	{
		"name": "F4",
		"midi": 65,
		"time": 84,
		"velocity": 0.5039370078740157,
		"duration": 1.9333333333333371
	},
	{
		"name": "G3",
		"midi": 55,
		"time": 86,
		"velocity": 0.8346456692913385,
		"duration": 1.9000000000000057
	},
	{
		"name": "C3",
		"midi": 48,
		"time": 86,
		"velocity": 0.8346456692913385,
		"duration": 1.9666666666666686
	},
	{
		"name": "C4",
		"midi": 60,
		"time": 86,
		"velocity": 0.5039370078740157,
		"duration": 1.9333333333333371
	},
	{
		"name": "D5",
		"midi": 74,
		"time": 104,
		"velocity": 0.8346456692913385,
		"duration": 0.9333333333333371
	},
	{
		"name": "D5",
		"midi": 74,
		"time": 105,
		"velocity": 0.8346456692913385,
		"duration": 0.9333333333333371
	},
	{
		"name": "D5",
		"midi": 74,
		"time": 106,
		"velocity": 0.8346456692913385,
		"duration": 0.9333333333333371
	},
	{
		"name": "D5",
		"midi": 74,
		"time": 107,
		"velocity": 0.8346456692913385,
		"duration": 0.9333333333333371
	},
	{
		"name": "D5",
		"midi": 74,
		"time": 108,
		"velocity": 0.8346456692913385,
		"duration": 0.9333333333333371
	},
	{
		"name": "D5",
		"midi": 74,
		"time": 109,
		"velocity": 0.8346456692913385,
		"duration": 0.9333333333333371
	},
	{
		"name": "D5",
		"midi": 74,
		"time": 110,
		"velocity": 0.8346456692913385,
		"duration": 1.9666666666666686
	},
	{
		"name": "G2",
		"midi": 43,
		"time": 112,
		"velocity": 0.8346456692913385,
		"duration": 1.9000000000000057
	},
	{
		"name": "G3",
		"midi": 55,
		"time": 112,
		"velocity": 0.5039370078740157,
		"duration": 1.9333333333333371
	},
	{
		"name": "D3",
		"midi": 50,
		"time": 112,
		"velocity": 0.8346456692913385,
		"duration": 1.9000000000000057
	},
	{
		"name": "F3",
		"midi": 53,
		"time": 114,
		"velocity": 0.8346456692913385,
		"duration": 1.9000000000000057
	},
	{
		"name": "A#2",
		"midi": 46,
		"time": 114,
		"velocity": 0.8346456692913385,
		"duration": 1.9000000000000057
	},
	{
		"name": "A#3",
		"midi": 58,
		"time": 114,
		"velocity": 0.5039370078740157,
		"duration": 1.9333333333333371
	},
	{
		"name": "F4",
		"midi": 65,
		"time": 116,
		"velocity": 0.5039370078740157,
		"duration": 1.9333333333333371
	},
	{
		"name": "F3",
		"midi": 53,
		"time": 116,
		"velocity": 0.8346456692913385,
		"duration": 1.9000000000000057
	},
	{
		"name": "C4",
		"midi": 60,
		"time": 116,
		"velocity": 0.8346456692913385,
		"duration": 1.9000000000000057
	},
	{
		"name": "C3",
		"midi": 48,
		"time": 118,
		"velocity": 0.8346456692913385,
		"duration": 1.9666666666666686
	},
	{
		"name": "C4",
		"midi": 60,
		"time": 118,
		"velocity": 0.5039370078740157,
		"duration": 1.9333333333333371
	},
	{
		"name": "G3",
		"midi": 55,
		"time": 118,
		"velocity": 0.8346456692913385,
		"duration": 1.9000000000000057
	},
	{
		"name": "D3",
		"midi": 50,
		"time": 120,
		"velocity": 0.8346456692913385,
		"duration": 1.9000000000000057
	},
	{
		"name": "G2",
		"midi": 43,
		"time": 120,
		"velocity": 0.8346456692913385,
		"duration": 1.9000000000000057
	},
	{
		"name": "G3",
		"midi": 55,
		"time": 120,
		"velocity": 0.5039370078740157,
		"duration": 1.9333333333333371
	},
	{
		"name": "A#3",
		"midi": 58,
		"time": 122,
		"velocity": 0.5039370078740157,
		"duration": 1.9333333333333371
	},
	{
		"name": "A#2",
		"midi": 46,
		"time": 122,
		"velocity": 0.8346456692913385,
		"duration": 1.9000000000000057
	},
	{
		"name": "F3",
		"midi": 53,
		"time": 122,
		"velocity": 0.8346456692913385,
		"duration": 1.9000000000000057
	},
	{
		"name": "C4",
		"midi": 60,
		"time": 124,
		"velocity": 0.8346456692913385,
		"duration": 1.9000000000000057
	},
	{
		"name": "F4",
		"midi": 65,
		"time": 124,
		"velocity": 0.5039370078740157,
		"duration": 1.9333333333333371
	},
	{
		"name": "F3",
		"midi": 53,
		"time": 124,
		"velocity": 0.8346456692913385,
		"duration": 1.9000000000000057
	},
	{
		"name": "C3",
		"midi": 48,
		"time": 126,
		"velocity": 0.8346456692913385,
		"duration": 0.9333333333333371
	},
	{
		"name": "D3",
		"midi": 50,
		"time": 127,
		"velocity": 0.8346456692913385,
		"duration": 0.9833333333333343
	},
	{
		"name": "D#3",
		"midi": 51,
		"time": 128,
		"velocity": 0.8346456692913385,
		"duration": 0.9666666666666686
	},
	{
		"name": "D3",
		"midi": 50,
		"time": 129,
		"velocity": 0.8346456692913385,
		"duration": 0.9499999999999886
	},
	{
		"name": "D3",
		"midi": 50,
		"time": 130,
		"velocity": 0.8346456692913385,
		"duration": 1.9000000000000057
	},
	{
		"name": "G3",
		"midi": 55,
		"time": 130,
		"velocity": 0.5039370078740157,
		"duration": 1.9333333333333371
	},
	{
		"name": "G2",
		"midi": 43,
		"time": 130,
		"velocity": 0.8346456692913385,
		"duration": 1.9000000000000057
	},
	{
		"name": "A#3",
		"midi": 58,
		"time": 132,
		"velocity": 0.5039370078740157,
		"duration": 1.9333333333333371
	},
	{
		"name": "A#2",
		"midi": 46,
		"time": 132,
		"velocity": 0.8346456692913385,
		"duration": 1.9000000000000057
	},
	{
		"name": "F3",
		"midi": 53,
		"time": 132,
		"velocity": 0.8346456692913385,
		"duration": 1.9000000000000057
	},
	{
		"name": "F4",
		"midi": 65,
		"time": 134,
		"velocity": 0.5039370078740157,
		"duration": 1.9333333333333371
	},
	{
		"name": "F3",
		"midi": 53,
		"time": 134,
		"velocity": 0.8346456692913385,
		"duration": 1.9000000000000057
	},
	{
		"name": "C4",
		"midi": 60,
		"time": 134,
		"velocity": 0.8346456692913385,
		"duration": 1.9000000000000057
	},
	{
		"name": "G3",
		"midi": 55,
		"time": 136,
		"velocity": 0.8346456692913385,
		"duration": 1.9000000000000057
	},
	{
		"name": "C4",
		"midi": 60,
		"time": 136,
		"velocity": 0.5039370078740157,
		"duration": 1.9333333333333371
	},
	{
		"name": "C3",
		"midi": 48,
		"time": 136,
		"velocity": 0.8346456692913385,
		"duration": 1.9666666666666686
	},
	{
		"name": "G3",
		"midi": 55,
		"time": 138,
		"velocity": 0.5039370078740157,
		"duration": 1.9333333333333371
	},
	{
		"name": "G2",
		"midi": 43,
		"time": 138,
		"velocity": 0.8346456692913385,
		"duration": 1.9000000000000057
	},
	{
		"name": "D3",
		"midi": 50,
		"time": 138,
		"velocity": 0.8346456692913385,
		"duration": 1.9000000000000057
	},
	{
		"name": "A#2",
		"midi": 46,
		"time": 140,
		"velocity": 0.8346456692913385,
		"duration": 1.9000000000000057
	},
	{
		"name": "A#3",
		"midi": 58,
		"time": 140,
		"velocity": 0.5039370078740157,
		"duration": 1.9333333333333371
	},
	{
		"name": "F3",
		"midi": 53,
		"time": 140,
		"velocity": 0.8346456692913385,
		"duration": 1.9000000000000057
	},
	{
		"name": "F3",
		"midi": 53,
		"time": 142,
		"velocity": 0.8346456692913385,
		"duration": 1.9000000000000057
	},
	{
		"name": "C4",
		"midi": 60,
		"time": 142,
		"velocity": 0.8346456692913385,
		"duration": 1.9000000000000057
	},
	{
		"name": "F4",
		"midi": 65,
		"time": 142,
		"velocity": 0.5039370078740157,
		"duration": 1.9333333333333371
	},
	{
		"name": "C3",
		"midi": 48,
		"time": 144,
		"velocity": 0.8346456692913385,
		"duration": 0.9166666666666572
	},
	{
		"name": "D3",
		"midi": 50,
		"time": 145,
		"velocity": 0.8346456692913385,
		"duration": 0.9166666666666572
	},
	{
		"name": "D#3",
		"midi": 51,
		"time": 146,
		"velocity": 0.8346456692913385,
		"duration": 0.9666666666666686
	},
	{
		"name": "F3",
		"midi": 53,
		"time": 147,
		"velocity": 0.8346456692913385,
		"duration": 0.9833333333333201
	},
	{
		"name": "G3",
		"midi": 55,
		"time": 166,
		"velocity": 0.5039370078740157,
		"duration": 1.9333333333333371
	},
	{
		"name": "G2",
		"midi": 43,
		"time": 166,
		"velocity": 0.8346456692913385,
		"duration": 1.9000000000000057
	},
	{
		"name": "D3",
		"midi": 50,
		"time": 166,
		"velocity": 0.8346456692913385,
		"duration": 1.9000000000000057
	},
	{
		"name": "A#2",
		"midi": 46,
		"time": 168,
		"velocity": 0.8346456692913385,
		"duration": 1.9000000000000057
	},
	{
		"name": "F3",
		"midi": 53,
		"time": 168,
		"velocity": 0.8346456692913385,
		"duration": 1.9000000000000057
	},
	{
		"name": "A#3",
		"midi": 58,
		"time": 168,
		"velocity": 0.5039370078740157,
		"duration": 1.9333333333333371
	},
	{
		"name": "F4",
		"midi": 65,
		"time": 170,
		"velocity": 0.5039370078740157,
		"duration": 1.9333333333333371
	},
	{
		"name": "F3",
		"midi": 53,
		"time": 170,
		"velocity": 0.8346456692913385,
		"duration": 1.9000000000000057
	},
	{
		"name": "C4",
		"midi": 60,
		"time": 170,
		"velocity": 0.8346456692913385,
		"duration": 1.9000000000000057
	},
	{
		"name": "C4",
		"midi": 60,
		"time": 172,
		"velocity": 0.5039370078740157,
		"duration": 1.9333333333333371
	},
	{
		"name": "G3",
		"midi": 55,
		"time": 172,
		"velocity": 0.8346456692913385,
		"duration": 1.9000000000000057
	},
	{
		"name": "C3",
		"midi": 48,
		"time": 172,
		"velocity": 0.8346456692913385,
		"duration": 1.9666666666666686
	},
	{
		"name": "D3",
		"midi": 50,
		"time": 174,
		"velocity": 0.8346456692913385,
		"duration": 1.9000000000000057
	},
	{
		"name": "G2",
		"midi": 43,
		"time": 174,
		"velocity": 0.8346456692913385,
		"duration": 1.9000000000000057
	},
	{
		"name": "G3",
		"midi": 55,
		"time": 174,
		"velocity": 0.5039370078740157,
		"duration": 1.9333333333333371
	},
	{
		"name": "F3",
		"midi": 53,
		"time": 176,
		"velocity": 0.8346456692913385,
		"duration": 1.9000000000000057
	},
	{
		"name": "A#2",
		"midi": 46,
		"time": 176,
		"velocity": 0.8346456692913385,
		"duration": 1.9000000000000057
	},
	{
		"name": "A#3",
		"midi": 58,
		"time": 176,
		"velocity": 0.5039370078740157,
		"duration": 1.9333333333333371
	},
	{
		"name": "F3",
		"midi": 53,
		"time": 178,
		"velocity": 0.8346456692913385,
		"duration": 1.9000000000000057
	},
	{
		"name": "F4",
		"midi": 65,
		"time": 178,
		"velocity": 0.5039370078740157,
		"duration": 1.9333333333333371
	},
	{
		"name": "C4",
		"midi": 60,
		"time": 178,
		"velocity": 0.8346456692913385,
		"duration": 1.9000000000000057
	},
	{
		"name": "C4",
		"midi": 60,
		"time": 180,
		"velocity": 0.5039370078740157,
		"duration": 1.9333333333333371
	},
	{
		"name": "G3",
		"midi": 55,
		"time": 180,
		"velocity": 0.8346456692913385,
		"duration": 1.9000000000000057
	},
	{
		"name": "C3",
		"midi": 48,
		"time": 180,
		"velocity": 0.8346456692913385,
		"duration": 1.9666666666666686
	},
	{
		"name": "D3",
		"midi": 50,
		"time": 182,
		"velocity": 0.8346456692913385,
		"duration": 1.9000000000000057
	},
	{
		"name": "G2",
		"midi": 43,
		"time": 182,
		"velocity": 0.8346456692913385,
		"duration": 1.9000000000000057
	},
	{
		"name": "G3",
		"midi": 55,
		"time": 182,
		"velocity": 0.5039370078740157,
		"duration": 1.9333333333333371
	},
	{
		"name": "A#2",
		"midi": 46,
		"time": 184,
		"velocity": 0.8346456692913385,
		"duration": 1.9000000000000057
	},
	{
		"name": "F3",
		"midi": 53,
		"time": 184,
		"velocity": 0.8346456692913385,
		"duration": 1.9000000000000057
	},
	{
		"name": "A#3",
		"midi": 58,
		"time": 184,
		"velocity": 0.5039370078740157,
		"duration": 1.9333333333333371
	},
	{
		"name": "F3",
		"midi": 53,
		"time": 186,
		"velocity": 0.8346456692913385,
		"duration": 1.9000000000000057
	},
	{
		"name": "C4",
		"midi": 60,
		"time": 186,
		"velocity": 0.8346456692913385,
		"duration": 1.9000000000000057
	},
	{
		"name": "F4",
		"midi": 65,
		"time": 186,
		"velocity": 0.5039370078740157,
		"duration": 1.9333333333333371
	},
	{
		"name": "C3",
		"midi": 48,
		"time": 188,
		"velocity": 0.8346456692913385,
		"duration": 1.9666666666666686
	},
	{
		"name": "G3",
		"midi": 55,
		"time": 188,
		"velocity": 0.8346456692913385,
		"duration": 1.9000000000000057
	},
	{
		"name": "C4",
		"midi": 60,
		"time": 188,
		"velocity": 0.5039370078740157,
		"duration": 1.9333333333333371
	},
	{
		"name": "G2",
		"midi": 43,
		"time": 190,
		"velocity": 0.8346456692913385,
		"duration": 1.9000000000000057
	},
	{
		"name": "G3",
		"midi": 55,
		"time": 190,
		"velocity": 0.5039370078740157,
		"duration": 1.9333333333333371
	},
	{
		"name": "D3",
		"midi": 50,
		"time": 190,
		"velocity": 0.8346456692913385,
		"duration": 1.9000000000000057
	},
	{
		"name": "A#3",
		"midi": 58,
		"time": 192,
		"velocity": 0.5039370078740157,
		"duration": 1.9333333333333371
	},
	{
		"name": "F3",
		"midi": 53,
		"time": 192,
		"velocity": 0.8346456692913385,
		"duration": 1.9000000000000057
	},
	{
		"name": "A#2",
		"midi": 46,
		"time": 192,
		"velocity": 0.8346456692913385,
		"duration": 1.9000000000000057
	},
	{
		"name": "F3",
		"midi": 53,
		"time": 194,
		"velocity": 0.8346456692913385,
		"duration": 1.9000000000000057
	},
	{
		"name": "F4",
		"midi": 65,
		"time": 194,
		"velocity": 0.5039370078740157,
		"duration": 1.9333333333333371
	},
	{
		"name": "C4",
		"midi": 60,
		"time": 194,
		"velocity": 0.8346456692913385,
		"duration": 1.9000000000000057
	},
	{
		"name": "C3",
		"midi": 48,
		"time": 196,
		"velocity": 0.8346456692913385,
		"duration": 1.9666666666666686
	},
	{
		"name": "G3",
		"midi": 55,
		"time": 196,
		"velocity": 0.8346456692913385,
		"duration": 1.9000000000000057
	},
	{
		"name": "C4",
		"midi": 60,
		"time": 196,
		"velocity": 0.5039370078740157,
		"duration": 1.9333333333333371
	}
]
}
