{
  "header": {
    "PPQ": 120,
    "bpm": 120,
    "name": ""
  },
  "startTime": 3.7500000000000004,
  "duration": 209.10833333333576,
  "tracks": [
    {
      "startTime": 12,
      "duration": 209.10833333333576,
      "length": 2095,
      "notes": [
        {
          "name": "G#2",
          "midi": 44,
          "time": 12,
          "velocity": 0.8346456692913385,
          "duration": 0.15000000000000036
        },
        {
          "name": "F#3",
          "midi": 54,
          "time": 12.25,
          "velocity": 0.3779527559055118,
          "duration": 0.1083333333333325
        },
        {
          "name": "G#2",
          "midi": 44,
          "time": 12.5,
          "velocity": 0.8346456692913385,
          "duration": 0.15000000000000036
        },
        {
          "name": "F#3",
          "midi": 54,
          "time": 12.75,
          "velocity": 0.3779527559055118,
          "duration": 0.1083333333333325
        },
        {
          "name": "G#2",
          "midi": 44,
          "time": 13,
          "velocity": 0.8346456692913385,
          "duration": 0.15000000000000036
        },
        {
          "name": "F#3",
          "midi": 54,
          "time": 13.25,
          "velocity": 0.3779527559055118,
          "duration": 0.1083333333333325
        },
        {
          "name": "G#2",
          "midi": 44,
          "time": 13.5,
          "velocity": 0.8346456692913385,
          "duration": 0.15000000000000036
        },
        {
          "name": "F#3",
          "midi": 54,
          "time": 13.75,
          "velocity": 0.3779527559055118,
          "duration": 0.1083333333333325
        },
        {
          "name": "G#2",
          "midi": 44,
          "time": 14,
          "velocity": 0.8346456692913385,
          "duration": 0.15000000000000036
        },
        {
          "name": "F#3",
          "midi": 54,
          "time": 14.25,
          "velocity": 0.3779527559055118,
          "duration": 0.1083333333333325
        },
        {
          "name": "G#2",
          "midi": 44,
          "time": 14.5,
          "velocity": 0.8346456692913385,
          "duration": 0.15000000000000036
        },
        {
          "name": "F#3",
          "midi": 54,
          "time": 14.75,
          "velocity": 0.3779527559055118,
          "duration": 0.1083333333333325
        },
        {
          "name": "G#2",
          "midi": 44,
          "time": 15,
          "velocity": 0.8346456692913385,
          "duration": 0.15000000000000036
        },
        {
          "name": "F#3",
          "midi": 54,
          "time": 15.25,
          "velocity": 0.3779527559055118,
          "duration": 0.1083333333333325
        },
        {
          "name": "G#2",
          "midi": 44,
          "time": 15.5,
          "velocity": 0.8346456692913385,
          "duration": 0.15000000000000036
        },
        {
          "name": "F#3",
          "midi": 54,
          "time": 15.75,
          "velocity": 0.3779527559055118,
          "duration": 0.1083333333333325
        },
        {
          "name": "G#2",
          "midi": 44,
          "time": 16,
          "velocity": 0.8346456692913385,
          "duration": 0.08333333333333215
        },
        {
          "name": "F#3",
          "midi": 54,
          "time": 16.25,
          "velocity": 0.3779527559055118,
          "duration": 0.10833333333333428
        },
        {
          "name": "G#2",
          "midi": 44,
          "time": 16.5,
          "velocity": 0.8346456692913385,
          "duration": 0.08333333333333215
        },
        {
          "name": "F#3",
          "midi": 54,
          "time": 16.75,
          "velocity": 0.3779527559055118,
          "duration": 0.10833333333333428
        },
        {
          "name": "G#2",
          "midi": 44,
          "time": 17,
          "velocity": 0.8346456692913385,
          "duration": 0.08333333333333215
        },
        {
          "name": "F#3",
          "midi": 54,
          "time": 17.25,
          "velocity": 0.3779527559055118,
          "duration": 0.10833333333333428
        },
        {
          "name": "G#2",
          "midi": 44,
          "time": 17.5,
          "velocity": 0.8346456692913385,
          "duration": 0.08333333333333215
        },
        {
          "name": "F#3",
          "midi": 54,
          "time": 17.75,
          "velocity": 0.3779527559055118,
          "duration": 0.10833333333333428
        },
        {
          "name": "G#2",
          "midi": 44,
          "time": 18,
          "velocity": 0.8346456692913385,
          "duration": 0.08333333333333215
        },
        {
          "name": "F#3",
          "midi": 54,
          "time": 18.25,
          "velocity": 0.3779527559055118,
          "duration": 0.10833333333333428
        },
        {
          "name": "G#2",
          "midi": 44,
          "time": 18.5,
          "velocity": 0.8346456692913385,
          "duration": 0.08333333333333215
        },
        {
          "name": "F#3",
          "midi": 54,
          "time": 18.75,
          "velocity": 0.3779527559055118,
          "duration": 0.10833333333333428
        },
        {
          "name": "G#2",
          "midi": 44,
          "time": 19,
          "velocity": 0.8346456692913385,
          "duration": 0.08333333333333215
        },
        {
          "name": "F#3",
          "midi": 54,
          "time": 19.25,
          "velocity": 0.3779527559055118,
          "duration": 0.10833333333333428
        },
        {
          "name": "G#2",
          "midi": 44,
          "time": 19.5,
          "velocity": 0.8346456692913385,
          "duration": 0.08333333333333215
        },
        {
          "name": "F#3",
          "midi": 54,
          "time": 19.75,
          "velocity": 0.3779527559055118,
          "duration": 0.10833333333333428
        },
        {
          "name": "C2",
          "midi": 36,
          "time": 20,
          "velocity": 0.8346456692913385,
          "duration": 0.11666666666666714
        },
        {
          "name": "A#2",
          "midi": 46,
          "time": 20,
          "velocity": 0.7322834645669292,
          "duration": 0.16666666666666785
        },
        {
          "name": "F#3",
          "midi": 54,
          "time": 20.250000000000004,
          "velocity": 0.3779527559055118,
          "duration": 0.10833333333333428
        },
        {
          "name": "C2",
          "midi": 36,
          "time": 20.500000000000004,
          "velocity": 0.8346456692913385,
          "duration": 0.11666666666666359
        },
        {
          "name": "E2",
          "midi": 40,
          "time": 20.500000000000004,
          "velocity": 0.3779527559055118,
          "duration": 0.10833333333333073
        },
        {
          "name": "G#2",
          "midi": 44,
          "time": 20.500000000000004,
          "velocity": 0.8346456692913385,
          "duration": 0.08333333333333215
        },
        {
          "name": "C#2",
          "midi": 37,
          "time": 20.500000000000004,
          "velocity": 0.3779527559055118,
          "duration": 0.10833333333333073
        },
        {
          "name": "C2",
          "midi": 36,
          "time": 20.75,
          "velocity": 0.8346456692913385,
          "duration": 0.11666666666666714
        },
        {
          "name": "F#3",
          "midi": 54,
          "time": 20.75,
          "velocity": 0.3779527559055118,
          "duration": 0.10833333333333428
        },
        {
          "name": "C2",
          "midi": 36,
          "time": 21,
          "velocity": 0.8346456692913385,
          "duration": 0.11666666666666714
        },
        {
          "name": "G#2",
          "midi": 44,
          "time": 21,
          "velocity": 0.8346456692913385,
          "duration": 0.08333333333333215
        },
        {
          "name": "F#3",
          "midi": 54,
          "time": 21.25,
          "velocity": 0.3779527559055118,
          "duration": 0.10833333333333428
        },
        {
          "name": "C#2",
          "midi": 37,
          "time": 21.25,
          "velocity": 0.3779527559055118,
          "duration": 0.10833333333333428
        },
        {
          "name": "C2",
          "midi": 36,
          "time": 21.25,
          "velocity": 0.8346456692913385,
          "duration": 0.11666666666666714
        },
        {
          "name": "E2",
          "midi": 40,
          "time": 21.25,
          "velocity": 0.3779527559055118,
          "duration": 0.10833333333333428
        },
        {
          "name": "G#2",
          "midi": 44,
          "time": 21.5,
          "velocity": 0.8346456692913385,
          "duration": 0.08333333333333215
        },
        {
          "name": "F#3",
          "midi": 54,
          "time": 21.75,
          "velocity": 0.3779527559055118,
          "duration": 0.10833333333333428
        },
        {
          "name": "C2",
          "midi": 36,
          "time": 21.75,
          "velocity": 0.8346456692913385,
          "duration": 0.11666666666666714
        },
        {
          "name": "G#2",
          "midi": 44,
          "time": 22,
          "velocity": 0.8346456692913385,
          "duration": 0.08333333333333215
        },
        {
          "name": "C2",
          "midi": 36,
          "time": 22,
          "velocity": 0.8346456692913385,
          "duration": 0.11666666666666714
        },
        {
          "name": "F#3",
          "midi": 54,
          "time": 22.25,
          "velocity": 0.3779527559055118,
          "duration": 0.10833333333333428
        },
        {
          "name": "G#2",
          "midi": 44,
          "time": 22.5,
          "velocity": 0.8346456692913385,
          "duration": 0.08333333333333215
        },
        {
          "name": "C#2",
          "midi": 37,
          "time": 22.5,
          "velocity": 0.5039370078740157,
          "duration": 0.10833333333333073
        },
        {
          "name": "E2",
          "midi": 40,
          "time": 22.5,
          "velocity": 0.3779527559055118,
          "duration": 0.10833333333333073
        },
        {
          "name": "C2",
          "midi": 36,
          "time": 22.5,
          "velocity": 0.8346456692913385,
          "duration": 0.11666666666666359
        },
        {
          "name": "C2",
          "midi": 36,
          "time": 22.749999999999996,
          "velocity": 0.8346456692913385,
          "duration": 0.11666666666666714
        },
        {
          "name": "F#3",
          "midi": 54,
          "time": 22.749999999999996,
          "velocity": 0.3779527559055118,
          "duration": 0.10833333333333428
        },
        {
          "name": "C2",
          "midi": 36,
          "time": 22.999999999999996,
          "velocity": 0.8346456692913385,
          "duration": 0.11666666666666714
        },
        {
          "name": "G#2",
          "midi": 44,
          "time": 22.999999999999996,
          "velocity": 0.8346456692913385,
          "duration": 0.08333333333333215
        },
        {
          "name": "E2",
          "midi": 40,
          "time": 23.249999999999996,
          "velocity": 0.3779527559055118,
          "duration": 0.10833333333333428
        },
        {
          "name": "C2",
          "midi": 36,
          "time": 23.249999999999996,
          "velocity": 0.8346456692913385,
          "duration": 0.11666666666666714
        },
        {
          "name": "C#2",
          "midi": 37,
          "time": 23.249999999999996,
          "velocity": 0.3779527559055118,
          "duration": 0.11666666666666714
        },
        {
          "name": "F#3",
          "midi": 54,
          "time": 23.249999999999996,
          "velocity": 0.3779527559055118,
          "duration": 0.10833333333333428
        },
        {
          "name": "G#2",
          "midi": 44,
          "time": 23.499999999999996,
          "velocity": 0.8346456692913385,
          "duration": 0.08333333333333215
        },
        {
          "name": "C2",
          "midi": 36,
          "time": 23.749999999999996,
          "velocity": 0.8346456692913385,
          "duration": 0.11666666666666714
        },
        {
          "name": "F#3",
          "midi": 54,
          "time": 23.749999999999996,
          "velocity": 0.3779527559055118,
          "duration": 0.10833333333333428
        },
        {
          "name": "A#2",
          "midi": 46,
          "time": 23.999999999999996,
          "velocity": 0.7322834645669292,
          "duration": 0.16666666666666785
        },
        {
          "name": "C2",
          "midi": 36,
          "time": 23.999999999999996,
          "velocity": 0.8346456692913385,
          "duration": 0.11666666666666714
        },
        {
          "name": "F#3",
          "midi": 54,
          "time": 24.249999999999996,
          "velocity": 0.3779527559055118,
          "duration": 0.10833333333333428
        },
        {
          "name": "C2",
          "midi": 36,
          "time": 24.499999999999996,
          "velocity": 0.8346456692913385,
          "duration": 0.11666666666666359
        },
        {
          "name": "C#2",
          "midi": 37,
          "time": 24.499999999999996,
          "velocity": 0.3779527559055118,
          "duration": 0.11666666666666359
        },
        {
          "name": "E2",
          "midi": 40,
          "time": 24.499999999999996,
          "velocity": 0.3779527559055118,
          "duration": 0.10833333333333073
        },
        {
          "name": "G#2",
          "midi": 44,
          "time": 24.499999999999996,
          "velocity": 0.8346456692913385,
          "duration": 0.08333333333333215
        },
        {
          "name": "F#3",
          "midi": 54,
          "time": 24.749999999999993,
          "velocity": 0.3779527559055118,
          "duration": 0.10833333333333428
        },
        {
          "name": "C2",
          "midi": 36,
          "time": 24.749999999999993,
          "velocity": 0.8346456692913385,
          "duration": 0.11666666666666714
        },
        {
          "name": "C2",
          "midi": 36,
          "time": 24.999999999999993,
          "velocity": 0.8346456692913385,
          "duration": 0.11666666666666714
        },
        {
          "name": "G#2",
          "midi": 44,
          "time": 24.999999999999993,
          "velocity": 0.8346456692913385,
          "duration": 0.08333333333333215
        },
        {
          "name": "C2",
          "midi": 36,
          "time": 25.249999999999993,
          "velocity": 0.8346456692913385,
          "duration": 0.11666666666666714
        },
        {
          "name": "E2",
          "midi": 40,
          "time": 25.249999999999993,
          "velocity": 0.3779527559055118,
          "duration": 0.10833333333333428
        },
        {
          "name": "F#3",
          "midi": 54,
          "time": 25.249999999999993,
          "velocity": 0.3779527559055118,
          "duration": 0.10833333333333428
        },
        {
          "name": "C#2",
          "midi": 37,
          "time": 25.249999999999993,
          "velocity": 0.3779527559055118,
          "duration": 0.10833333333333428
        },
        {
          "name": "G#2",
          "midi": 44,
          "time": 25.499999999999993,
          "velocity": 0.8346456692913385,
          "duration": 0.08333333333333215
        },
        {
          "name": "F#3",
          "midi": 54,
          "time": 25.749999999999993,
          "velocity": 0.3779527559055118,
          "duration": 0.10833333333333428
        },
        {
          "name": "C2",
          "midi": 36,
          "time": 25.749999999999993,
          "velocity": 0.8346456692913385,
          "duration": 0.11666666666666714
        },
        {
          "name": "G#2",
          "midi": 44,
          "time": 25.999999999999993,
          "velocity": 0.8346456692913385,
          "duration": 0.08333333333333215
        },
        {
          "name": "C2",
          "midi": 36,
          "time": 25.999999999999993,
          "velocity": 0.8346456692913385,
          "duration": 0.11666666666666714
        },
        {
          "name": "F#3",
          "midi": 54,
          "time": 26.249999999999993,
          "velocity": 0.3779527559055118,
          "duration": 0.10833333333333428
        },
        {
          "name": "C2",
          "midi": 36,
          "time": 26.499999999999993,
          "velocity": 0.8346456692913385,
          "duration": 0.11666666666666359
        },
        {
          "name": "C#2",
          "midi": 37,
          "time": 26.499999999999993,
          "velocity": 0.5039370078740157,
          "duration": 0.10833333333333073
        },
        {
          "name": "G#2",
          "midi": 44,
          "time": 26.499999999999993,
          "velocity": 0.8346456692913385,
          "duration": 0.08333333333333215
        },
        {
          "name": "E2",
          "midi": 40,
          "time": 26.499999999999993,
          "velocity": 0.5039370078740157,
          "duration": 0.10833333333333073
        },
        {
          "name": "F#3",
          "midi": 54,
          "time": 26.74999999999999,
          "velocity": 0.3779527559055118,
          "duration": 0.10833333333333428
        },
        {
          "name": "C2",
          "midi": 36,
          "time": 26.74999999999999,
          "velocity": 0.8346456692913385,
          "duration": 0.11666666666666714
        },
        {
          "name": "C2",
          "midi": 36,
          "time": 26.99999999999999,
          "velocity": 0.8346456692913385,
          "duration": 0.11666666666666714
        },
        {
          "name": "G#2",
          "midi": 44,
          "time": 26.99999999999999,
          "velocity": 0.8346456692913385,
          "duration": 0.08333333333333215
        },
        {
          "name": "E2",
          "midi": 40,
          "time": 27.24999999999999,
          "velocity": 0.5039370078740157,
          "duration": 0.10833333333333428
        },
        {
          "name": "C2",
          "midi": 36,
          "time": 27.24999999999999,
          "velocity": 0.8346456692913385,
          "duration": 0.11666666666666714
        },
        {
          "name": "F#3",
          "midi": 54,
          "time": 27.24999999999999,
          "velocity": 0.3779527559055118,
          "duration": 0.10833333333333428
        },
        {
          "name": "C#2",
          "midi": 37,
          "time": 27.24999999999999,
          "velocity": 0.5039370078740157,
          "duration": 0.10833333333333428
        },
        {
          "name": "G#2",
          "midi": 44,
          "time": 27.49999999999999,
          "velocity": 0.8346456692913385,
          "duration": 0.08333333333333215
        },
        {
          "name": "F#3",
          "midi": 54,
          "time": 27.74999999999999,
          "velocity": 0.3779527559055118,
          "duration": 0.10833333333333428
        },
        {
          "name": "C2",
          "midi": 36,
          "time": 27.74999999999999,
          "velocity": 0.8346456692913385,
          "duration": 0.11666666666666714
        },
        {
          "name": "B3",
          "midi": 59,
          "time": 27.99999999999999,
          "velocity": 0.8346456692913385,
          "duration": 0.08333333333333215
        },
        {
          "name": "G3",
          "midi": 55,
          "time": 27.99999999999999,
          "velocity": 0.8346456692913385,
          "duration": 0.08333333333333215
        },
        {
          "name": "G#2",
          "midi": 44,
          "time": 27.99999999999999,
          "velocity": 0.8346456692913385,
          "duration": 0.08333333333333215
        },
        {
          "name": "C2",
          "midi": 36,
          "time": 27.99999999999999,
          "velocity": 0.8346456692913385,
          "duration": 0.11666666666666359
        },
        {
          "name": "F#3",
          "midi": 54,
          "time": 28.249999999999986,
          "velocity": 0.5039370078740157,
          "duration": 0.10833333333333073
        },
        {
          "name": "G#2",
          "midi": 44,
          "time": 28.249999999999986,
          "velocity": 0.8346456692913385,
          "duration": 0.08333333333333215
        },
        {
          "name": "C2",
          "midi": 36,
          "time": 28.499999999999982,
          "velocity": 0.8346456692913385,
          "duration": 0.11666666666666359
        },
        {
          "name": "G#2",
          "midi": 44,
          "time": 28.499999999999982,
          "velocity": 0.8346456692913385,
          "duration": 0.08333333333333215
        },
        {
          "name": "B3",
          "midi": 59,
          "time": 28.499999999999982,
          "velocity": 0.8346456692913385,
          "duration": 0.08333333333333215
        },
        {
          "name": "C#2",
          "midi": 37,
          "time": 28.499999999999982,
          "velocity": 0.5039370078740157,
          "duration": 0.10833333333333073
        },
        {
          "name": "E2",
          "midi": 40,
          "time": 28.499999999999982,
          "velocity": 0.5039370078740157,
          "duration": 0.10833333333333073
        },
        {
          "name": "C2",
          "midi": 36,
          "time": 28.74999999999998,
          "velocity": 0.8346456692913385,
          "duration": 0.11666666666666359
        },
        {
          "name": "G#2",
          "midi": 44,
          "time": 28.74999999999998,
          "velocity": 0.8346456692913385,
          "duration": 0.08333333333333215
        },
        {
          "name": "F#3",
          "midi": 54,
          "time": 28.74999999999998,
          "velocity": 0.5039370078740157,
          "duration": 0.10833333333333073
        },
        {
          "name": "G#2",
          "midi": 44,
          "time": 28.999999999999975,
          "velocity": 0.8346456692913385,
          "duration": 0.08333333333333215
        },
        {
          "name": "C2",
          "midi": 36,
          "time": 28.999999999999975,
          "velocity": 0.8346456692913385,
          "duration": 0.11666666666666714
        },
        {
          "name": "B3",
          "midi": 59,
          "time": 28.999999999999975,
          "velocity": 0.8346456692913385,
          "duration": 0.08333333333333215
        },
        {
          "name": "C#2",
          "midi": 37,
          "time": 29.249999999999975,
          "velocity": 0.5039370078740157,
          "duration": 0.10833333333333073
        },
        {
          "name": "E2",
          "midi": 40,
          "time": 29.249999999999975,
          "velocity": 0.5039370078740157,
          "duration": 0.10833333333333073
        },
        {
          "name": "F#3",
          "midi": 54,
          "time": 29.249999999999975,
          "velocity": 0.5039370078740157,
          "duration": 0.10833333333333073
        },
        {
          "name": "G#2",
          "midi": 44,
          "time": 29.249999999999975,
          "velocity": 0.8346456692913385,
          "duration": 0.08333333333333215
        },
        {
          "name": "C2",
          "midi": 36,
          "time": 29.249999999999975,
          "velocity": 0.8346456692913385,
          "duration": 0.11666666666666359
        },
        {
          "name": "G#2",
          "midi": 44,
          "time": 29.49999999999997,
          "velocity": 0.8346456692913385,
          "duration": 0.08333333333333215
        },
        {
          "name": "C2",
          "midi": 36,
          "time": 29.49999999999997,
          "velocity": 0.8346456692913385,
          "duration": 0.11666666666666714
        },
        {
          "name": "B3",
          "midi": 59,
          "time": 29.49999999999997,
          "velocity": 0.8346456692913385,
          "duration": 0.08333333333333215
        },
        {
          "name": "G#2",
          "midi": 44,
          "time": 29.74999999999997,
          "velocity": 0.8346456692913385,
          "duration": 0.08333333333333215
        },
        {
          "name": "F#3",
          "midi": 54,
          "time": 29.74999999999997,
          "velocity": 0.5039370078740157,
          "duration": 0.10833333333333073
        },
        {
          "name": "C2",
          "midi": 36,
          "time": 29.74999999999997,
          "velocity": 0.8346456692913385,
          "duration": 0.11666666666666359
        },
        {
          "name": "B3",
          "midi": 59,
          "time": 29.999999999999968,
          "velocity": 0.8346456692913385,
          "duration": 0.08333333333333215
        },
        {
          "name": "C2",
          "midi": 36,
          "time": 29.999999999999968,
          "velocity": 0.8346456692913385,
          "duration": 0.11666666666666714
        },
        {
          "name": "G#2",
          "midi": 44,
          "time": 29.999999999999968,
          "velocity": 0.8346456692913385,
          "duration": 0.08333333333333215
        },
        {
          "name": "F#3",
          "midi": 54,
          "time": 30.249999999999968,
          "velocity": 0.5039370078740157,
          "duration": 0.10833333333333073
        },
        {
          "name": "G#2",
          "midi": 44,
          "time": 30.249999999999968,
          "velocity": 0.8346456692913385,
          "duration": 0.08333333333333215
        },
        {
          "name": "G#2",
          "midi": 44,
          "time": 30.499999999999964,
          "velocity": 0.8346456692913385,
          "duration": 0.08333333333333215
        },
        {
          "name": "B3",
          "midi": 59,
          "time": 30.499999999999964,
          "velocity": 0.8346456692913385,
          "duration": 0.08333333333333215
        },
        {
          "name": "C#2",
          "midi": 37,
          "time": 30.499999999999964,
          "velocity": 0.5039370078740157,
          "duration": 0.10833333333333073
        },
        {
          "name": "E2",
          "midi": 40,
          "time": 30.499999999999964,
          "velocity": 0.5039370078740157,
          "duration": 0.10833333333333073
        },
        {
          "name": "C2",
          "midi": 36,
          "time": 30.499999999999964,
          "velocity": 0.8346456692913385,
          "duration": 0.11666666666666359
        },
        {
          "name": "C2",
          "midi": 36,
          "time": 30.74999999999996,
          "velocity": 0.8346456692913385,
          "duration": 0.11666666666666359
        },
        {
          "name": "G#2",
          "midi": 44,
          "time": 30.74999999999996,
          "velocity": 0.8346456692913385,
          "duration": 0.08333333333333215
        },
        {
          "name": "F#3",
          "midi": 54,
          "time": 30.74999999999996,
          "velocity": 0.5039370078740157,
          "duration": 0.10833333333333073
        },
        {
          "name": "C2",
          "midi": 36,
          "time": 30.999999999999957,
          "velocity": 0.8346456692913385,
          "duration": 0.11666666666666714
        },
        {
          "name": "B3",
          "midi": 59,
          "time": 30.999999999999957,
          "velocity": 0.8346456692913385,
          "duration": 0.08333333333333215
        },
        {
          "name": "G#2",
          "midi": 44,
          "time": 30.999999999999957,
          "velocity": 0.8346456692913385,
          "duration": 0.08333333333333215
        },
        {
          "name": "C2",
          "midi": 36,
          "time": 31.249999999999957,
          "velocity": 0.8346456692913385,
          "duration": 0.11666666666666359
        },
        {
          "name": "E2",
          "midi": 40,
          "time": 31.249999999999957,
          "velocity": 0.5039370078740157,
          "duration": 0.10833333333333073
        },
        {
          "name": "F#3",
          "midi": 54,
          "time": 31.249999999999957,
          "velocity": 0.5039370078740157,
          "duration": 0.10833333333333073
        },
        {
          "name": "C#2",
          "midi": 37,
          "time": 31.249999999999957,
          "velocity": 0.5039370078740157,
          "duration": 0.10833333333333073
        },
        {
          "name": "G#2",
          "midi": 44,
          "time": 31.249999999999957,
          "velocity": 0.8346456692913385,
          "duration": 0.08333333333333215
        },
        {
          "name": "B3",
          "midi": 59,
          "time": 31.499999999999954,
          "velocity": 0.8346456692913385,
          "duration": 0.08333333333333215
        },
        {
          "name": "G#2",
          "midi": 44,
          "time": 31.499999999999954,
          "velocity": 0.8346456692913385,
          "duration": 0.08333333333333215
        },
        {
          "name": "C2",
          "midi": 36,
          "time": 31.499999999999954,
          "velocity": 0.8346456692913385,
          "duration": 0.11666666666666714
        },
        {
          "name": "C2",
          "midi": 36,
          "time": 31.749999999999954,
          "velocity": 0.8346456692913385,
          "duration": 0.11666666666666359
        },
        {
          "name": "G#2",
          "midi": 44,
          "time": 31.749999999999954,
          "velocity": 0.8346456692913385,
          "duration": 0.08333333333333215
        },
        {
          "name": "F#3",
          "midi": 54,
          "time": 31.749999999999954,
          "velocity": 0.5039370078740157,
          "duration": 0.10833333333333073
        },
        {
          "name": "C2",
          "midi": 36,
          "time": 31.99999999999995,
          "velocity": 0.8346456692913385,
          "duration": 0.11666666666666714
        },
        {
          "name": "B3",
          "midi": 59,
          "time": 31.99999999999995,
          "velocity": 0.8346456692913385,
          "duration": 0.0833333333333357
        },
        {
          "name": "G#2",
          "midi": 44,
          "time": 31.99999999999995,
          "velocity": 0.8346456692913385,
          "duration": 0.0833333333333357
        },
        {
          "name": "G#2",
          "midi": 44,
          "time": 32.24999999999995,
          "velocity": 0.8346456692913385,
          "duration": 0.0833333333333357
        },
        {
          "name": "F#3",
          "midi": 54,
          "time": 32.24999999999995,
          "velocity": 0.5039370078740157,
          "duration": 0.10833333333333428
        },
        {
          "name": "C2",
          "midi": 36,
          "time": 32.49999999999995,
          "velocity": 0.8346456692913385,
          "duration": 0.11666666666666714
        },
        {
          "name": "B3",
          "midi": 59,
          "time": 32.49999999999995,
          "velocity": 0.8346456692913385,
          "duration": 0.0833333333333357
        },
        {
          "name": "E2",
          "midi": 40,
          "time": 32.49999999999995,
          "velocity": 0.5039370078740157,
          "duration": 0.10833333333333428
        },
        {
          "name": "G#2",
          "midi": 44,
          "time": 32.49999999999995,
          "velocity": 0.8346456692913385,
          "duration": 0.0833333333333357
        },
        {
          "name": "C#2",
          "midi": 37,
          "time": 32.49999999999995,
          "velocity": 0.5039370078740157,
          "duration": 0.10833333333333428
        },
        {
          "name": "F#3",
          "midi": 54,
          "time": 32.74999999999995,
          "velocity": 0.5039370078740157,
          "duration": 0.10833333333333428
        },
        {
          "name": "C2",
          "midi": 36,
          "time": 32.74999999999995,
          "velocity": 0.8346456692913385,
          "duration": 0.11666666666666714
        },
        {
          "name": "G#2",
          "midi": 44,
          "time": 32.74999999999995,
          "velocity": 0.8346456692913385,
          "duration": 0.0833333333333357
        },
        {
          "name": "C2",
          "midi": 36,
          "time": 32.99999999999995,
          "velocity": 0.8346456692913385,
          "duration": 0.11666666666666714
        },
        {
          "name": "G#2",
          "midi": 44,
          "time": 32.99999999999995,
          "velocity": 0.8346456692913385,
          "duration": 0.0833333333333357
        },
        {
          "name": "B3",
          "midi": 59,
          "time": 32.99999999999995,
          "velocity": 0.8346456692913385,
          "duration": 0.0833333333333357
        },
        {
          "name": "G#2",
          "midi": 44,
          "time": 33.24999999999995,
          "velocity": 0.8346456692913385,
          "duration": 0.0833333333333357
        },
        {
          "name": "E2",
          "midi": 40,
          "time": 33.24999999999995,
          "velocity": 0.5039370078740157,
          "duration": 0.10833333333333428
        },
        {
          "name": "C#2",
          "midi": 37,
          "time": 33.24999999999995,
          "velocity": 0.5039370078740157,
          "duration": 0.10833333333333428
        },
        {
          "name": "F#3",
          "midi": 54,
          "time": 33.24999999999995,
          "velocity": 0.5039370078740157,
          "duration": 0.10833333333333428
        },
        {
          "name": "C2",
          "midi": 36,
          "time": 33.24999999999995,
          "velocity": 0.8346456692913385,
          "duration": 0.11666666666666714
        },
        {
          "name": "C2",
          "midi": 36,
          "time": 33.49999999999995,
          "velocity": 0.8346456692913385,
          "duration": 0.11666666666666714
        },
        {
          "name": "B3",
          "midi": 59,
          "time": 33.49999999999995,
          "velocity": 0.8346456692913385,
          "duration": 0.0833333333333357
        },
        {
          "name": "G#2",
          "midi": 44,
          "time": 33.49999999999995,
          "velocity": 0.8346456692913385,
          "duration": 0.0833333333333357
        },
        {
          "name": "F#3",
          "midi": 54,
          "time": 33.74999999999995,
          "velocity": 0.5039370078740157,
          "duration": 0.10833333333333428
        },
        {
          "name": "G#2",
          "midi": 44,
          "time": 33.74999999999995,
          "velocity": 0.8346456692913385,
          "duration": 0.0833333333333357
        },
        {
          "name": "C2",
          "midi": 36,
          "time": 33.74999999999995,
          "velocity": 0.8346456692913385,
          "duration": 0.11666666666666714
        },
        {
          "name": "B3",
          "midi": 59,
          "time": 33.99999999999995,
          "velocity": 0.8346456692913385,
          "duration": 0.0833333333333357
        },
        {
          "name": "G#2",
          "midi": 44,
          "time": 33.99999999999995,
          "velocity": 0.8346456692913385,
          "duration": 0.0833333333333357
        },
        {
          "name": "C2",
          "midi": 36,
          "time": 33.99999999999995,
          "velocity": 0.8346456692913385,
          "duration": 0.11666666666666714
        },
        {
          "name": "G#2",
          "midi": 44,
          "time": 34.24999999999995,
          "velocity": 0.8346456692913385,
          "duration": 0.0833333333333357
        },
        {
          "name": "F#3",
          "midi": 54,
          "time": 34.24999999999995,
          "velocity": 0.5039370078740157,
          "duration": 0.10833333333333428
        },
        {
          "name": "G#2",
          "midi": 44,
          "time": 34.49999999999995,
          "velocity": 0.8346456692913385,
          "duration": 0.0833333333333357
        },
        {
          "name": "C#2",
          "midi": 37,
          "time": 34.49999999999995,
          "velocity": 0.5039370078740157,
          "duration": 0.10833333333333428
        },
        {
          "name": "C2",
          "midi": 36,
          "time": 34.49999999999995,
          "velocity": 0.8346456692913385,
          "duration": 0.11666666666666714
        },
        {
          "name": "B3",
          "midi": 59,
          "time": 34.49999999999995,
          "velocity": 0.8346456692913385,
          "duration": 0.0833333333333357
        },
        {
          "name": "E2",
          "midi": 40,
          "time": 34.49999999999995,
          "velocity": 0.5039370078740157,
          "duration": 0.10833333333333428
        },
        {
          "name": "C2",
          "midi": 36,
          "time": 34.74999999999995,
          "velocity": 0.8346456692913385,
          "duration": 0.11666666666666714
        },
        {
          "name": "G#2",
          "midi": 44,
          "time": 34.74999999999995,
          "velocity": 0.8346456692913385,
          "duration": 0.0833333333333357
        },
        {
          "name": "F#3",
          "midi": 54,
          "time": 34.74999999999995,
          "velocity": 0.5039370078740157,
          "duration": 0.10833333333333428
        },
        {
          "name": "G#2",
          "midi": 44,
          "time": 34.99999999999995,
          "velocity": 0.8346456692913385,
          "duration": 0.0833333333333357
        },
        {
          "name": "C2",
          "midi": 36,
          "time": 34.99999999999995,
          "velocity": 0.8346456692913385,
          "duration": 0.11666666666666714
        },
        {
          "name": "B3",
          "midi": 59,
          "time": 34.99999999999995,
          "velocity": 0.8346456692913385,
          "duration": 0.0833333333333357
        },
        {
          "name": "C2",
          "midi": 36,
          "time": 35.24999999999995,
          "velocity": 0.8346456692913385,
          "duration": 0.11666666666666714
        },
        {
          "name": "G#2",
          "midi": 44,
          "time": 35.24999999999995,
          "velocity": 0.8346456692913385,
          "duration": 0.0833333333333357
        },
        {
          "name": "F#3",
          "midi": 54,
          "time": 35.24999999999995,
          "velocity": 0.5039370078740157,
          "duration": 0.10833333333333428
        },
        {
          "name": "C#2",
          "midi": 37,
          "time": 35.24999999999995,
          "velocity": 0.5039370078740157,
          "duration": 0.10833333333333428
        },
        {
          "name": "E2",
          "midi": 40,
          "time": 35.24999999999995,
          "velocity": 0.5039370078740157,
          "duration": 0.10833333333333428
        },
        {
          "name": "G#2",
          "midi": 44,
          "time": 35.49999999999995,
          "velocity": 0.8346456692913385,
          "duration": 0.0833333333333357
        },
        {
          "name": "B3",
          "midi": 59,
          "time": 35.49999999999995,
          "velocity": 0.8346456692913385,
          "duration": 0.0833333333333357
        },
        {
          "name": "C2",
          "midi": 36,
          "time": 35.49999999999995,
          "velocity": 0.8346456692913385,
          "duration": 0.11666666666666714
        },
        {
          "name": "G#2",
          "midi": 44,
          "time": 35.74999999999995,
          "velocity": 0.8346456692913385,
          "duration": 0.0833333333333357
        },
        {
          "name": "F#3",
          "midi": 54,
          "time": 35.74999999999995,
          "velocity": 0.5039370078740157,
          "duration": 0.10833333333333428
        },
        {
          "name": "C2",
          "midi": 36,
          "time": 35.74999999999995,
          "velocity": 0.8346456692913385,
          "duration": 0.11666666666666714
        },
        {
          "name": "B3",
          "midi": 59,
          "time": 35.99999999999995,
          "velocity": 0.8346456692913385,
          "duration": 0.0833333333333357
        },
        {
          "name": "G3",
          "midi": 55,
          "time": 35.99999999999995,
          "velocity": 0.8346456692913385,
          "duration": 0.0833333333333357
        },
        {
          "name": "G#2",
          "midi": 44,
          "time": 35.99999999999995,
          "velocity": 0.8346456692913385,
          "duration": 0.0833333333333357
        },
        {
          "name": "C2",
          "midi": 36,
          "time": 35.99999999999995,
          "velocity": 0.8346456692913385,
          "duration": 0.11666666666666714
        },
        {
          "name": "G#2",
          "midi": 44,
          "time": 36.24999999999995,
          "velocity": 0.8346456692913385,
          "duration": 0.0833333333333357
        },
        {
          "name": "F#3",
          "midi": 54,
          "time": 36.24999999999995,
          "velocity": 0.5039370078740157,
          "duration": 0.10833333333333428
        },
        {
          "name": "C2",
          "midi": 36,
          "time": 36.49999999999995,
          "velocity": 0.8346456692913385,
          "duration": 0.11666666666666714
        },
        {
          "name": "C#2",
          "midi": 37,
          "time": 36.49999999999995,
          "velocity": 0.5039370078740157,
          "duration": 0.10833333333333428
        },
        {
          "name": "E2",
          "midi": 40,
          "time": 36.49999999999995,
          "velocity": 0.5039370078740157,
          "duration": 0.10833333333333428
        },
        {
          "name": "G#2",
          "midi": 44,
          "time": 36.49999999999995,
          "velocity": 0.8346456692913385,
          "duration": 0.0833333333333357
        },
        {
          "name": "B3",
          "midi": 59,
          "time": 36.49999999999995,
          "velocity": 0.8346456692913385,
          "duration": 0.0833333333333357
        },
        {
          "name": "F#3",
          "midi": 54,
          "time": 36.74999999999995,
          "velocity": 0.5039370078740157,
          "duration": 0.10833333333333428
        },
        {
          "name": "G#2",
          "midi": 44,
          "time": 36.74999999999995,
          "velocity": 0.8346456692913385,
          "duration": 0.0833333333333357
        },
        {
          "name": "C2",
          "midi": 36,
          "time": 36.74999999999995,
          "velocity": 0.8346456692913385,
          "duration": 0.11666666666666714
        },
        {
          "name": "B3",
          "midi": 59,
          "time": 36.99999999999995,
          "velocity": 0.8346456692913385,
          "duration": 0.0833333333333357
        },
        {
          "name": "C2",
          "midi": 36,
          "time": 36.99999999999995,
          "velocity": 0.8346456692913385,
          "duration": 0.11666666666666714
        },
        {
          "name": "G#2",
          "midi": 44,
          "time": 36.99999999999995,
          "velocity": 0.8346456692913385,
          "duration": 0.0833333333333357
        },
        {
          "name": "C#2",
          "midi": 37,
          "time": 37.24999999999995,
          "velocity": 0.5039370078740157,
          "duration": 0.10833333333333428
        },
        {
          "name": "G#2",
          "midi": 44,
          "time": 37.24999999999995,
          "velocity": 0.8346456692913385,
          "duration": 0.0833333333333357
        },
        {
          "name": "F#3",
          "midi": 54,
          "time": 37.24999999999995,
          "velocity": 0.5039370078740157,
          "duration": 0.10833333333333428
        },
        {
          "name": "C2",
          "midi": 36,
          "time": 37.24999999999995,
          "velocity": 0.8346456692913385,
          "duration": 0.11666666666666714
        },
        {
          "name": "E2",
          "midi": 40,
          "time": 37.24999999999995,
          "velocity": 0.5039370078740157,
          "duration": 0.10833333333333428
        },
        {
          "name": "G#2",
          "midi": 44,
          "time": 37.49999999999995,
          "velocity": 0.8346456692913385,
          "duration": 0.0833333333333357
        },
        {
          "name": "C2",
          "midi": 36,
          "time": 37.49999999999995,
          "velocity": 0.8346456692913385,
          "duration": 0.11666666666666714
        },
        {
          "name": "B3",
          "midi": 59,
          "time": 37.49999999999995,
          "velocity": 0.8346456692913385,
          "duration": 0.0833333333333357
        },
        {
          "name": "C2",
          "midi": 36,
          "time": 37.74999999999995,
          "velocity": 0.8346456692913385,
          "duration": 0.11666666666666714
        },
        {
          "name": "G#2",
          "midi": 44,
          "time": 37.74999999999995,
          "velocity": 0.8346456692913385,
          "duration": 0.0833333333333357
        },
        {
          "name": "F#3",
          "midi": 54,
          "time": 37.74999999999995,
          "velocity": 0.5039370078740157,
          "duration": 0.10833333333333428
        },
        {
          "name": "B3",
          "midi": 59,
          "time": 37.99999999999995,
          "velocity": 0.8346456692913385,
          "duration": 0.0833333333333357
        },
        {
          "name": "C2",
          "midi": 36,
          "time": 37.99999999999995,
          "velocity": 0.8346456692913385,
          "duration": 0.11666666666666714
        },
        {
          "name": "G#2",
          "midi": 44,
          "time": 37.99999999999995,
          "velocity": 0.8346456692913385,
          "duration": 0.0833333333333357
        },
        {
          "name": "G#2",
          "midi": 44,
          "time": 38.24999999999995,
          "velocity": 0.8346456692913385,
          "duration": 0.0833333333333357
        },
        {
          "name": "F#3",
          "midi": 54,
          "time": 38.24999999999995,
          "velocity": 0.5039370078740157,
          "duration": 0.10833333333333428
        },
        {
          "name": "C2",
          "midi": 36,
          "time": 38.49999999999995,
          "velocity": 0.8346456692913385,
          "duration": 0.11666666666666714
        },
        {
          "name": "C#2",
          "midi": 37,
          "time": 38.49999999999995,
          "velocity": 0.5039370078740157,
          "duration": 0.10833333333333428
        },
        {
          "name": "B3",
          "midi": 59,
          "time": 38.49999999999995,
          "velocity": 0.8346456692913385,
          "duration": 0.0833333333333357
        },
        {
          "name": "G#2",
          "midi": 44,
          "time": 38.49999999999995,
          "velocity": 0.8346456692913385,
          "duration": 0.0833333333333357
        },
        {
          "name": "E2",
          "midi": 40,
          "time": 38.49999999999995,
          "velocity": 0.5039370078740157,
          "duration": 0.10833333333333428
        },
        {
          "name": "G#2",
          "midi": 44,
          "time": 38.74999999999995,
          "velocity": 0.8346456692913385,
          "duration": 0.0833333333333357
        },
        {
          "name": "C2",
          "midi": 36,
          "time": 38.74999999999995,
          "velocity": 0.8346456692913385,
          "duration": 0.11666666666666714
        },
        {
          "name": "F#3",
          "midi": 54,
          "time": 38.74999999999995,
          "velocity": 0.5039370078740157,
          "duration": 0.10833333333333428
        },
        {
          "name": "B3",
          "midi": 59,
          "time": 38.99999999999995,
          "velocity": 0.8346456692913385,
          "duration": 0.0833333333333357
        },
        {
          "name": "C2",
          "midi": 36,
          "time": 38.99999999999995,
          "velocity": 0.8346456692913385,
          "duration": 0.11666666666666714
        },
        {
          "name": "G#2",
          "midi": 44,
          "time": 38.99999999999995,
          "velocity": 0.8346456692913385,
          "duration": 0.0833333333333357
        },
        {
          "name": "F#3",
          "midi": 54,
          "time": 39.24999999999995,
          "velocity": 0.5039370078740157,
          "duration": 0.10833333333333428
        },
        {
          "name": "G#2",
          "midi": 44,
          "time": 39.24999999999995,
          "velocity": 0.8346456692913385,
          "duration": 0.0833333333333357
        },
        {
          "name": "C#2",
          "midi": 37,
          "time": 39.24999999999995,
          "velocity": 0.5039370078740157,
          "duration": 0.10833333333333428
        },
        {
          "name": "E2",
          "midi": 40,
          "time": 39.24999999999995,
          "velocity": 0.5039370078740157,
          "duration": 0.10833333333333428
        },
        {
          "name": "C2",
          "midi": 36,
          "time": 39.24999999999995,
          "velocity": 0.8346456692913385,
          "duration": 0.11666666666666714
        },
        {
          "name": "C2",
          "midi": 36,
          "time": 39.49999999999995,
          "velocity": 0.8346456692913385,
          "duration": 0.11666666666666714
        },
        {
          "name": "G#2",
          "midi": 44,
          "time": 39.49999999999995,
          "velocity": 0.8346456692913385,
          "duration": 0.0833333333333357
        },
        {
          "name": "B3",
          "midi": 59,
          "time": 39.49999999999995,
          "velocity": 0.8346456692913385,
          "duration": 0.0833333333333357
        },
        {
          "name": "F#3",
          "midi": 54,
          "time": 39.74999999999995,
          "velocity": 0.5039370078740157,
          "duration": 0.10833333333333428
        },
        {
          "name": "C2",
          "midi": 36,
          "time": 39.74999999999995,
          "velocity": 0.8346456692913385,
          "duration": 0.11666666666666714
        },
        {
          "name": "G#2",
          "midi": 44,
          "time": 39.74999999999995,
          "velocity": 0.8346456692913385,
          "duration": 0.0833333333333357
        },
        {
          "name": "B3",
          "midi": 59,
          "time": 39.99999999999995,
          "velocity": 0.8346456692913385,
          "duration": 0.0833333333333357
        },
        {
          "name": "C2",
          "midi": 36,
          "time": 39.99999999999995,
          "velocity": 0.8346456692913385,
          "duration": 0.11666666666666714
        },
        {
          "name": "G#2",
          "midi": 44,
          "time": 39.99999999999995,
          "velocity": 0.8346456692913385,
          "duration": 0.0833333333333357
        },
        {
          "name": "G#2",
          "midi": 44,
          "time": 40.24999999999995,
          "velocity": 0.8346456692913385,
          "duration": 0.0833333333333357
        },
        {
          "name": "F#3",
          "midi": 54,
          "time": 40.24999999999995,
          "velocity": 0.5039370078740157,
          "duration": 0.10833333333333428
        },
        {
          "name": "C2",
          "midi": 36,
          "time": 40.49999999999995,
          "velocity": 0.8346456692913385,
          "duration": 0.11666666666666714
        },
        {
          "name": "G#2",
          "midi": 44,
          "time": 40.49999999999995,
          "velocity": 0.8346456692913385,
          "duration": 0.0833333333333357
        },
        {
          "name": "C#2",
          "midi": 37,
          "time": 40.49999999999995,
          "velocity": 0.5039370078740157,
          "duration": 0.10833333333333428
        },
        {
          "name": "E2",
          "midi": 40,
          "time": 40.49999999999995,
          "velocity": 0.5039370078740157,
          "duration": 0.10833333333333428
        },
        {
          "name": "B3",
          "midi": 59,
          "time": 40.49999999999995,
          "velocity": 0.8346456692913385,
          "duration": 0.0833333333333357
        },
        {
          "name": "C2",
          "midi": 36,
          "time": 40.74999999999995,
          "velocity": 0.8346456692913385,
          "duration": 0.11666666666666714
        },
        {
          "name": "G#2",
          "midi": 44,
          "time": 40.74999999999995,
          "velocity": 0.8346456692913385,
          "duration": 0.0833333333333357
        },
        {
          "name": "F#3",
          "midi": 54,
          "time": 40.74999999999995,
          "velocity": 0.5039370078740157,
          "duration": 0.10833333333333428
        },
        {
          "name": "G#2",
          "midi": 44,
          "time": 40.99999999999995,
          "velocity": 0.8346456692913385,
          "duration": 0.0833333333333357
        },
        {
          "name": "B3",
          "midi": 59,
          "time": 40.99999999999995,
          "velocity": 0.8346456692913385,
          "duration": 0.0833333333333357
        },
        {
          "name": "C2",
          "midi": 36,
          "time": 40.99999999999995,
          "velocity": 0.8346456692913385,
          "duration": 0.11666666666666714
        },
        {
          "name": "E2",
          "midi": 40,
          "time": 41.24999999999995,
          "velocity": 0.5039370078740157,
          "duration": 0.10833333333333428
        },
        {
          "name": "G#2",
          "midi": 44,
          "time": 41.24999999999995,
          "velocity": 0.8346456692913385,
          "duration": 0.0833333333333357
        },
        {
          "name": "C#2",
          "midi": 37,
          "time": 41.24999999999995,
          "velocity": 0.5039370078740157,
          "duration": 0.10833333333333428
        },
        {
          "name": "F#3",
          "midi": 54,
          "time": 41.24999999999995,
          "velocity": 0.5039370078740157,
          "duration": 0.10833333333333428
        },
        {
          "name": "C2",
          "midi": 36,
          "time": 41.24999999999995,
          "velocity": 0.8346456692913385,
          "duration": 0.11666666666666714
        },
        {
          "name": "C2",
          "midi": 36,
          "time": 41.49999999999995,
          "velocity": 0.8346456692913385,
          "duration": 0.11666666666666714
        },
        {
          "name": "B3",
          "midi": 59,
          "time": 41.49999999999995,
          "velocity": 0.8346456692913385,
          "duration": 0.0833333333333357
        },
        {
          "name": "G#2",
          "midi": 44,
          "time": 41.49999999999995,
          "velocity": 0.8346456692913385,
          "duration": 0.0833333333333357
        },
        {
          "name": "F#3",
          "midi": 54,
          "time": 41.74999999999995,
          "velocity": 0.5039370078740157,
          "duration": 0.10833333333333428
        },
        {
          "name": "C2",
          "midi": 36,
          "time": 41.74999999999995,
          "velocity": 0.8346456692913385,
          "duration": 0.11666666666666714
        },
        {
          "name": "G#2",
          "midi": 44,
          "time": 41.74999999999995,
          "velocity": 0.8346456692913385,
          "duration": 0.0833333333333357
        },
        {
          "name": "G#2",
          "midi": 44,
          "time": 41.99999999999995,
          "velocity": 0.8346456692913385,
          "duration": 0.0833333333333357
        },
        {
          "name": "C2",
          "midi": 36,
          "time": 41.99999999999995,
          "velocity": 0.8346456692913385,
          "duration": 0.11666666666666714
        },
        {
          "name": "B3",
          "midi": 59,
          "time": 41.99999999999995,
          "velocity": 0.8346456692913385,
          "duration": 0.0833333333333357
        },
        {
          "name": "G#2",
          "midi": 44,
          "time": 42.24999999999995,
          "velocity": 0.8346456692913385,
          "duration": 0.0833333333333357
        },
        {
          "name": "F#3",
          "midi": 54,
          "time": 42.24999999999995,
          "velocity": 0.5039370078740157,
          "duration": 0.10833333333333428
        },
        {
          "name": "C2",
          "midi": 36,
          "time": 42.49999999999995,
          "velocity": 0.8346456692913385,
          "duration": 0.11666666666666714
        },
        {
          "name": "C#2",
          "midi": 37,
          "time": 42.49999999999995,
          "velocity": 0.5039370078740157,
          "duration": 0.10833333333333428
        },
        {
          "name": "G#2",
          "midi": 44,
          "time": 42.49999999999995,
          "velocity": 0.8346456692913385,
          "duration": 0.0833333333333357
        },
        {
          "name": "B3",
          "midi": 59,
          "time": 42.49999999999995,
          "velocity": 0.8346456692913385,
          "duration": 0.0833333333333357
        },
        {
          "name": "E2",
          "midi": 40,
          "time": 42.49999999999995,
          "velocity": 0.5039370078740157,
          "duration": 0.10833333333333428
        },
        {
          "name": "G#2",
          "midi": 44,
          "time": 42.74999999999995,
          "velocity": 0.8346456692913385,
          "duration": 0.0833333333333357
        },
        {
          "name": "F#3",
          "midi": 54,
          "time": 42.74999999999995,
          "velocity": 0.5039370078740157,
          "duration": 0.10833333333333428
        },
        {
          "name": "C2",
          "midi": 36,
          "time": 42.74999999999995,
          "velocity": 0.8346456692913385,
          "duration": 0.11666666666666714
        },
        {
          "name": "G#2",
          "midi": 44,
          "time": 42.99999999999995,
          "velocity": 0.8346456692913385,
          "duration": 0.0833333333333357
        },
        {
          "name": "C2",
          "midi": 36,
          "time": 42.99999999999995,
          "velocity": 0.8346456692913385,
          "duration": 0.11666666666666714
        },
        {
          "name": "B3",
          "midi": 59,
          "time": 42.99999999999995,
          "velocity": 0.8346456692913385,
          "duration": 0.0833333333333357
        },
        {
          "name": "E2",
          "midi": 40,
          "time": 43.24999999999995,
          "velocity": 0.5039370078740157,
          "duration": 0.10833333333333428
        },
        {
          "name": "G#2",
          "midi": 44,
          "time": 43.24999999999995,
          "velocity": 0.8346456692913385,
          "duration": 0.0833333333333357
        },
        {
          "name": "C#2",
          "midi": 37,
          "time": 43.24999999999995,
          "velocity": 0.5039370078740157,
          "duration": 0.10833333333333428
        },
        {
          "name": "C2",
          "midi": 36,
          "time": 43.24999999999995,
          "velocity": 0.8346456692913385,
          "duration": 0.11666666666666714
        },
        {
          "name": "F#3",
          "midi": 54,
          "time": 43.24999999999995,
          "velocity": 0.5039370078740157,
          "duration": 0.10833333333333428
        },
        {
          "name": "B3",
          "midi": 59,
          "time": 43.49999999999995,
          "velocity": 0.8346456692913385,
          "duration": 0.0833333333333357
        },
        {
          "name": "C2",
          "midi": 36,
          "time": 43.49999999999995,
          "velocity": 0.8346456692913385,
          "duration": 0.11666666666666714
        },
        {
          "name": "G#2",
          "midi": 44,
          "time": 43.49999999999995,
          "velocity": 0.8346456692913385,
          "duration": 0.0833333333333357
        },
        {
          "name": "G#2",
          "midi": 44,
          "time": 43.74999999999995,
          "velocity": 0.8346456692913385,
          "duration": 0.0833333333333357
        },
        {
          "name": "C2",
          "midi": 36,
          "time": 43.74999999999995,
          "velocity": 0.8346456692913385,
          "duration": 0.11666666666666714
        },
        {
          "name": "F#3",
          "midi": 54,
          "time": 43.74999999999995,
          "velocity": 0.5039370078740157,
          "duration": 0.10833333333333428
        },
        {
          "name": "C2",
          "midi": 36,
          "time": 43.99999999999995,
          "velocity": 0.8346456692913385,
          "duration": 0.11666666666666714
        },
        {
          "name": "G3",
          "midi": 55,
          "time": 43.99999999999995,
          "velocity": 0.8346456692913385,
          "duration": 0.0833333333333357
        },
        {
          "name": "G#2",
          "midi": 44,
          "time": 43.99999999999995,
          "velocity": 0.8346456692913385,
          "duration": 0.0833333333333357
        },
        {
          "name": "F#3",
          "midi": 54,
          "time": 44.24999999999995,
          "velocity": 0.5039370078740157,
          "duration": 0.10833333333333428
        },
        {
          "name": "C2",
          "midi": 36,
          "time": 44.49999999999995,
          "velocity": 0.5039370078740157,
          "duration": 0.10833333333333428
        },
        {
          "name": "G#2",
          "midi": 44,
          "time": 44.49999999999995,
          "velocity": 0.8346456692913385,
          "duration": 0.0833333333333357
        },
        {
          "name": "C#2",
          "midi": 37,
          "time": 44.49999999999995,
          "velocity": 0.5039370078740157,
          "duration": 0.10833333333333428
        },
        {
          "name": "E2",
          "midi": 40,
          "time": 44.49999999999995,
          "velocity": 0.5039370078740157,
          "duration": 0.10833333333333428
        },
        {
          "name": "C2",
          "midi": 36,
          "time": 44.74999999999995,
          "velocity": 0.8346456692913385,
          "duration": 0.11666666666666714
        },
        {
          "name": "F#3",
          "midi": 54,
          "time": 44.74999999999995,
          "velocity": 0.5039370078740157,
          "duration": 0.10833333333333428
        },
        {
          "name": "C2",
          "midi": 36,
          "time": 44.99999999999995,
          "velocity": 0.8346456692913385,
          "duration": 0.11666666666666714
        },
        {
          "name": "G#2",
          "midi": 44,
          "time": 44.99999999999995,
          "velocity": 0.8346456692913385,
          "duration": 0.0833333333333357
        },
        {
          "name": "E2",
          "midi": 40,
          "time": 45.24999999999995,
          "velocity": 0.5039370078740157,
          "duration": 0.10833333333333428
        },
        {
          "name": "F#3",
          "midi": 54,
          "time": 45.24999999999995,
          "velocity": 0.5039370078740157,
          "duration": 0.10833333333333428
        },
        {
          "name": "C2",
          "midi": 36,
          "time": 45.24999999999995,
          "velocity": 0.5039370078740157,
          "duration": 0.10833333333333428
        },
        {
          "name": "C#2",
          "midi": 37,
          "time": 45.24999999999995,
          "velocity": 0.5039370078740157,
          "duration": 0.10833333333333428
        },
        {
          "name": "G#2",
          "midi": 44,
          "time": 45.49999999999995,
          "velocity": 0.8346456692913385,
          "duration": 0.0833333333333357
        },
        {
          "name": "F#3",
          "midi": 54,
          "time": 45.74999999999995,
          "velocity": 0.5039370078740157,
          "duration": 0.10833333333333428
        },
        {
          "name": "C2",
          "midi": 36,
          "time": 45.74999999999995,
          "velocity": 0.8346456692913385,
          "duration": 0.11666666666666714
        },
        {
          "name": "G#2",
          "midi": 44,
          "time": 45.99999999999995,
          "velocity": 0.8346456692913385,
          "duration": 0.0833333333333357
        },
        {
          "name": "C2",
          "midi": 36,
          "time": 45.99999999999995,
          "velocity": 0.8346456692913385,
          "duration": 0.11666666666666714
        },
        {
          "name": "F#3",
          "midi": 54,
          "time": 46.24999999999995,
          "velocity": 0.5039370078740157,
          "duration": 0.10833333333333428
        },
        {
          "name": "E2",
          "midi": 40,
          "time": 46.49999999999995,
          "velocity": 0.5039370078740157,
          "duration": 0.10833333333333428
        },
        {
          "name": "G#2",
          "midi": 44,
          "time": 46.49999999999995,
          "velocity": 0.8346456692913385,
          "duration": 0.0833333333333357
        },
        {
          "name": "C#2",
          "midi": 37,
          "time": 46.49999999999995,
          "velocity": 0.5039370078740157,
          "duration": 0.10833333333333428
        },
        {
          "name": "C2",
          "midi": 36,
          "time": 46.49999999999995,
          "velocity": 0.8346456692913385,
          "duration": 0.11666666666666714
        },
        {
          "name": "F#3",
          "midi": 54,
          "time": 46.74999999999995,
          "velocity": 0.5039370078740157,
          "duration": 0.10833333333333428
        },
        {
          "name": "C2",
          "midi": 36,
          "time": 46.74999999999995,
          "velocity": 0.8346456692913385,
          "duration": 0.11666666666666714
        },
        {
          "name": "G#2",
          "midi": 44,
          "time": 46.99999999999995,
          "velocity": 0.8346456692913385,
          "duration": 0.0833333333333357
        },
        {
          "name": "C2",
          "midi": 36,
          "time": 46.99999999999995,
          "velocity": 0.8346456692913385,
          "duration": 0.11666666666666714
        },
        {
          "name": "C#2",
          "midi": 37,
          "time": 47.24999999999995,
          "velocity": 0.5039370078740157,
          "duration": 0.11666666666666714
        },
        {
          "name": "C2",
          "midi": 36,
          "time": 47.24999999999995,
          "velocity": 0.8346456692913385,
          "duration": 0.11666666666666714
        },
        {
          "name": "F#3",
          "midi": 54,
          "time": 47.24999999999995,
          "velocity": 0.5039370078740157,
          "duration": 0.10833333333333428
        },
        {
          "name": "E2",
          "midi": 40,
          "time": 47.24999999999995,
          "velocity": 0.5039370078740157,
          "duration": 0.11666666666666714
        },
        {
          "name": "G#2",
          "midi": 44,
          "time": 47.49999999999995,
          "velocity": 0.8346456692913385,
          "duration": 0.0833333333333357
        },
        {
          "name": "C2",
          "midi": 36,
          "time": 47.74999999999995,
          "velocity": 0.8346456692913385,
          "duration": 0.11666666666666714
        },
        {
          "name": "F#3",
          "midi": 54,
          "time": 47.74999999999995,
          "velocity": 0.5039370078740157,
          "duration": 0.10833333333333428
        },
        {
          "name": "A#2",
          "midi": 46,
          "time": 47.99999999999995,
          "velocity": 0.7322834645669292,
          "duration": 0.1666666666666643
        },
        {
          "name": "C2",
          "midi": 36,
          "time": 47.99999999999995,
          "velocity": 0.8346456692913385,
          "duration": 0.11666666666666714
        },
        {
          "name": "F#3",
          "midi": 54,
          "time": 48.24999999999995,
          "velocity": 0.5039370078740157,
          "duration": 0.10833333333333428
        },
        {
          "name": "C2",
          "midi": 36,
          "time": 48.49999999999995,
          "velocity": 0.8346456692913385,
          "duration": 0.11666666666666714
        },
        {
          "name": "C#2",
          "midi": 37,
          "time": 48.49999999999995,
          "velocity": 0.5039370078740157,
          "duration": 0.11666666666666714
        },
        {
          "name": "G#2",
          "midi": 44,
          "time": 48.49999999999995,
          "velocity": 0.8346456692913385,
          "duration": 0.0833333333333357
        },
        {
          "name": "E2",
          "midi": 40,
          "time": 48.49999999999995,
          "velocity": 0.5039370078740157,
          "duration": 0.11666666666666714
        },
        {
          "name": "C2",
          "midi": 36,
          "time": 48.74999999999995,
          "velocity": 0.8346456692913385,
          "duration": 0.11666666666666714
        },
        {
          "name": "F#3",
          "midi": 54,
          "time": 48.74999999999995,
          "velocity": 0.5039370078740157,
          "duration": 0.10833333333333428
        },
        {
          "name": "G#2",
          "midi": 44,
          "time": 48.99999999999995,
          "velocity": 0.8346456692913385,
          "duration": 0.0833333333333357
        },
        {
          "name": "C2",
          "midi": 36,
          "time": 48.99999999999995,
          "velocity": 0.8346456692913385,
          "duration": 0.11666666666666714
        },
        {
          "name": "C2",
          "midi": 36,
          "time": 49.24999999999995,
          "velocity": 0.8346456692913385,
          "duration": 0.11666666666666714
        },
        {
          "name": "C#2",
          "midi": 37,
          "time": 49.24999999999995,
          "velocity": 0.5039370078740157,
          "duration": 0.10833333333333428
        },
        {
          "name": "E2",
          "midi": 40,
          "time": 49.24999999999995,
          "velocity": 0.5039370078740157,
          "duration": 0.10833333333333428
        },
        {
          "name": "F#3",
          "midi": 54,
          "time": 49.24999999999995,
          "velocity": 0.5039370078740157,
          "duration": 0.10833333333333428
        },
        {
          "name": "G#2",
          "midi": 44,
          "time": 49.49999999999995,
          "velocity": 0.8346456692913385,
          "duration": 0.0833333333333357
        },
        {
          "name": "C2",
          "midi": 36,
          "time": 49.74999999999995,
          "velocity": 0.8346456692913385,
          "duration": 0.11666666666666714
        },
        {
          "name": "F#3",
          "midi": 54,
          "time": 49.74999999999995,
          "velocity": 0.3779527559055118,
          "duration": 0.10833333333333428
        },
        {
          "name": "G#2",
          "midi": 44,
          "time": 49.99999999999995,
          "velocity": 0.8346456692913385,
          "duration": 0.0833333333333357
        },
        {
          "name": "C2",
          "midi": 36,
          "time": 49.99999999999995,
          "velocity": 0.8346456692913385,
          "duration": 0.11666666666666714
        },
        {
          "name": "F#3",
          "midi": 54,
          "time": 50.24999999999995,
          "velocity": 0.3779527559055118,
          "duration": 0.10833333333333428
        },
        {
          "name": "C2",
          "midi": 36,
          "time": 50.49999999999995,
          "velocity": 0.8346456692913385,
          "duration": 0.11666666666666714
        },
        {
          "name": "G#2",
          "midi": 44,
          "time": 50.49999999999995,
          "velocity": 0.8346456692913385,
          "duration": 0.0833333333333357
        },
        {
          "name": "C#2",
          "midi": 37,
          "time": 50.49999999999995,
          "velocity": 0.5039370078740157,
          "duration": 0.10833333333333428
        },
        {
          "name": "E2",
          "midi": 40,
          "time": 50.49999999999995,
          "velocity": 0.5039370078740157,
          "duration": 0.10833333333333428
        },
        {
          "name": "C2",
          "midi": 36,
          "time": 50.74999999999995,
          "velocity": 0.8346456692913385,
          "duration": 0.11666666666666714
        },
        {
          "name": "F#3",
          "midi": 54,
          "time": 50.74999999999995,
          "velocity": 0.3779527559055118,
          "duration": 0.10833333333333428
        },
        {
          "name": "C2",
          "midi": 36,
          "time": 50.99999999999995,
          "velocity": 0.8346456692913385,
          "duration": 0.11666666666666714
        },
        {
          "name": "G#2",
          "midi": 44,
          "time": 50.99999999999995,
          "velocity": 0.8346456692913385,
          "duration": 0.0833333333333357
        },
        {
          "name": "C2",
          "midi": 36,
          "time": 51.24999999999995,
          "velocity": 0.8346456692913385,
          "duration": 0.11666666666666714
        },
        {
          "name": "E2",
          "midi": 40,
          "time": 51.24999999999995,
          "velocity": 0.5039370078740157,
          "duration": 0.10833333333333428
        },
        {
          "name": "C#2",
          "midi": 37,
          "time": 51.24999999999995,
          "velocity": 0.5039370078740157,
          "duration": 0.10833333333333428
        },
        {
          "name": "F#3",
          "midi": 54,
          "time": 51.24999999999995,
          "velocity": 0.5039370078740157,
          "duration": 0.10833333333333428
        },
        {
          "name": "G#2",
          "midi": 44,
          "time": 51.49999999999995,
          "velocity": 0.8346456692913385,
          "duration": 0.0833333333333357
        },
        {
          "name": "C2",
          "midi": 36,
          "time": 51.74999999999995,
          "velocity": 0.8346456692913385,
          "duration": 0.11666666666666714
        },
        {
          "name": "F#3",
          "midi": 54,
          "time": 51.74999999999995,
          "velocity": 0.5039370078740157,
          "duration": 0.10833333333333428
        },
        {
          "name": "A#2",
          "midi": 46,
          "time": 51.99999999999995,
          "velocity": 0.7322834645669292,
          "duration": 0.1666666666666643
        },
        {
          "name": "C2",
          "midi": 36,
          "time": 51.99999999999995,
          "velocity": 0.8346456692913385,
          "duration": 0.11666666666666714
        },
        {
          "name": "F#3",
          "midi": 54,
          "time": 52.24999999999995,
          "velocity": 0.5039370078740157,
          "duration": 0.10833333333333428
        },
        {
          "name": "E2",
          "midi": 40,
          "time": 52.49999999999995,
          "velocity": 0.5039370078740157,
          "duration": 0.10833333333333428
        },
        {
          "name": "C#2",
          "midi": 37,
          "time": 52.49999999999995,
          "velocity": 0.5039370078740157,
          "duration": 0.10833333333333428
        },
        {
          "name": "G#2",
          "midi": 44,
          "time": 52.49999999999995,
          "velocity": 0.8346456692913385,
          "duration": 0.0833333333333357
        },
        {
          "name": "C2",
          "midi": 36,
          "time": 52.49999999999995,
          "velocity": 0.8346456692913385,
          "duration": 0.11666666666666714
        },
        {
          "name": "F#3",
          "midi": 54,
          "time": 52.74999999999995,
          "velocity": 0.5039370078740157,
          "duration": 0.10833333333333428
        },
        {
          "name": "C2",
          "midi": 36,
          "time": 52.74999999999995,
          "velocity": 0.8346456692913385,
          "duration": 0.11666666666666714
        },
        {
          "name": "C2",
          "midi": 36,
          "time": 52.99999999999995,
          "velocity": 0.8346456692913385,
          "duration": 0.11666666666666714
        },
        {
          "name": "G#2",
          "midi": 44,
          "time": 52.99999999999995,
          "velocity": 0.8346456692913385,
          "duration": 0.0833333333333357
        },
        {
          "name": "C#2",
          "midi": 37,
          "time": 53.24999999999995,
          "velocity": 0.5039370078740157,
          "duration": 0.10833333333333428
        },
        {
          "name": "C2",
          "midi": 36,
          "time": 53.24999999999995,
          "velocity": 0.8346456692913385,
          "duration": 0.11666666666666714
        },
        {
          "name": "F#3",
          "midi": 54,
          "time": 53.24999999999995,
          "velocity": 0.5039370078740157,
          "duration": 0.10833333333333428
        },
        {
          "name": "E2",
          "midi": 40,
          "time": 53.24999999999995,
          "velocity": 0.5039370078740157,
          "duration": 0.10833333333333428
        },
        {
          "name": "G#2",
          "midi": 44,
          "time": 53.49999999999995,
          "velocity": 0.8346456692913385,
          "duration": 0.0833333333333357
        },
        {
          "name": "C2",
          "midi": 36,
          "time": 53.74999999999995,
          "velocity": 0.8346456692913385,
          "duration": 0.11666666666666714
        },
        {
          "name": "F#3",
          "midi": 54,
          "time": 53.74999999999995,
          "velocity": 0.3779527559055118,
          "duration": 0.10833333333333428
        },
        {
          "name": "C2",
          "midi": 36,
          "time": 53.99999999999995,
          "velocity": 0.8346456692913385,
          "duration": 0.11666666666666714
        },
        {
          "name": "G#2",
          "midi": 44,
          "time": 53.99999999999995,
          "velocity": 0.8346456692913385,
          "duration": 0.0833333333333357
        },
        {
          "name": "F#3",
          "midi": 54,
          "time": 54.24999999999995,
          "velocity": 0.3779527559055118,
          "duration": 0.10833333333333428
        },
        {
          "name": "C#2",
          "midi": 37,
          "time": 54.49999999999995,
          "velocity": 0.5039370078740157,
          "duration": 0.10833333333333428
        },
        {
          "name": "E2",
          "midi": 40,
          "time": 54.49999999999995,
          "velocity": 0.5039370078740157,
          "duration": 0.10833333333333428
        },
        {
          "name": "G#2",
          "midi": 44,
          "time": 54.49999999999995,
          "velocity": 0.8346456692913385,
          "duration": 0.0833333333333357
        },
        {
          "name": "C2",
          "midi": 36,
          "time": 54.49999999999995,
          "velocity": 0.8346456692913385,
          "duration": 0.11666666666666714
        },
        {
          "name": "C2",
          "midi": 36,
          "time": 54.74999999999995,
          "velocity": 0.8346456692913385,
          "duration": 0.11666666666666714
        },
        {
          "name": "F#3",
          "midi": 54,
          "time": 54.74999999999995,
          "velocity": 0.3779527559055118,
          "duration": 0.10833333333333428
        },
        {
          "name": "G#2",
          "midi": 44,
          "time": 54.99999999999995,
          "velocity": 0.8346456692913385,
          "duration": 0.0833333333333357
        },
        {
          "name": "C2",
          "midi": 36,
          "time": 54.99999999999995,
          "velocity": 0.8346456692913385,
          "duration": 0.11666666666666714
        },
        {
          "name": "F#3",
          "midi": 54,
          "time": 55.24999999999995,
          "velocity": 0.3779527559055118,
          "duration": 0.10833333333333428
        },
        {
          "name": "E2",
          "midi": 40,
          "time": 55.24999999999995,
          "velocity": 0.5039370078740157,
          "duration": 0.10833333333333428
        },
        {
          "name": "C2",
          "midi": 36,
          "time": 55.24999999999995,
          "velocity": 0.8346456692913385,
          "duration": 0.11666666666666714
        },
        {
          "name": "C#2",
          "midi": 37,
          "time": 55.24999999999995,
          "velocity": 0.5039370078740157,
          "duration": 0.10833333333333428
        },
        {
          "name": "G#2",
          "midi": 44,
          "time": 55.49999999999995,
          "velocity": 0.8346456692913385,
          "duration": 0.0833333333333357
        },
        {
          "name": "C2",
          "midi": 36,
          "time": 55.74999999999995,
          "velocity": 0.8346456692913385,
          "duration": 0.11666666666666714
        },
        {
          "name": "F#3",
          "midi": 54,
          "time": 55.74999999999995,
          "velocity": 0.3779527559055118,
          "duration": 0.10833333333333428
        },
        {
          "name": "C2",
          "midi": 36,
          "time": 55.99999999999995,
          "velocity": 0.8346456692913385,
          "duration": 0.11666666666666714
        },
        {
          "name": "A#2",
          "midi": 46,
          "time": 55.99999999999995,
          "velocity": 0.7322834645669292,
          "duration": 0.1666666666666643
        },
        {
          "name": "F#3",
          "midi": 54,
          "time": 56.24999999999995,
          "velocity": 0.5039370078740157,
          "duration": 0.10833333333333428
        },
        {
          "name": "C2",
          "midi": 36,
          "time": 56.49999999999995,
          "velocity": 0.8346456692913385,
          "duration": 0.11666666666666714
        },
        {
          "name": "C#2",
          "midi": 37,
          "time": 56.49999999999995,
          "velocity": 0.5039370078740157,
          "duration": 0.10833333333333428
        },
        {
          "name": "E2",
          "midi": 40,
          "time": 56.49999999999995,
          "velocity": 0.5039370078740157,
          "duration": 0.10833333333333428
        },
        {
          "name": "G#2",
          "midi": 44,
          "time": 56.49999999999995,
          "velocity": 0.8346456692913385,
          "duration": 0.0833333333333357
        },
        {
          "name": "F#3",
          "midi": 54,
          "time": 56.74999999999995,
          "velocity": 0.5039370078740157,
          "duration": 0.10833333333333428
        },
        {
          "name": "C2",
          "midi": 36,
          "time": 56.74999999999995,
          "velocity": 0.8346456692913385,
          "duration": 0.11666666666666714
        },
        {
          "name": "G#2",
          "midi": 44,
          "time": 56.99999999999995,
          "velocity": 0.8346456692913385,
          "duration": 0.0833333333333357
        },
        {
          "name": "C2",
          "midi": 36,
          "time": 56.99999999999995,
          "velocity": 0.8346456692913385,
          "duration": 0.11666666666666714
        },
        {
          "name": "C2",
          "midi": 36,
          "time": 57.24999999999995,
          "velocity": 0.8346456692913385,
          "duration": 0.11666666666666714
        },
        {
          "name": "E2",
          "midi": 40,
          "time": 57.24999999999995,
          "velocity": 0.5039370078740157,
          "duration": 0.10833333333333428
        },
        {
          "name": "C#2",
          "midi": 37,
          "time": 57.24999999999995,
          "velocity": 0.5039370078740157,
          "duration": 0.10833333333333428
        },
        {
          "name": "F#3",
          "midi": 54,
          "time": 57.24999999999995,
          "velocity": 0.5039370078740157,
          "duration": 0.10833333333333428
        },
        {
          "name": "G#2",
          "midi": 44,
          "time": 57.49999999999995,
          "velocity": 0.8346456692913385,
          "duration": 0.0833333333333357
        },
        {
          "name": "F#3",
          "midi": 54,
          "time": 57.74999999999995,
          "velocity": 0.3779527559055118,
          "duration": 0.10833333333333428
        },
        {
          "name": "C2",
          "midi": 36,
          "time": 57.74999999999995,
          "velocity": 0.8346456692913385,
          "duration": 0.11666666666666714
        },
        {
          "name": "C2",
          "midi": 36,
          "time": 57.99999999999995,
          "velocity": 0.8346456692913385,
          "duration": 0.11666666666666714
        },
        {
          "name": "G#2",
          "midi": 44,
          "time": 57.99999999999995,
          "velocity": 0.8346456692913385,
          "duration": 0.0833333333333357
        },
        {
          "name": "F#3",
          "midi": 54,
          "time": 58.24999999999995,
          "velocity": 0.3779527559055118,
          "duration": 0.10833333333333428
        },
        {
          "name": "C2",
          "midi": 36,
          "time": 58.49999999999995,
          "velocity": 0.8346456692913385,
          "duration": 0.11666666666666714
        },
        {
          "name": "E2",
          "midi": 40,
          "time": 58.49999999999995,
          "velocity": 0.5039370078740157,
          "duration": 0.10833333333333428
        },
        {
          "name": "C#2",
          "midi": 37,
          "time": 58.49999999999995,
          "velocity": 0.5039370078740157,
          "duration": 0.10833333333333428
        },
        {
          "name": "G#2",
          "midi": 44,
          "time": 58.49999999999995,
          "velocity": 0.8346456692913385,
          "duration": 0.0833333333333357
        },
        {
          "name": "F#3",
          "midi": 54,
          "time": 58.74999999999995,
          "velocity": 0.3779527559055118,
          "duration": 0.10833333333333428
        },
        {
          "name": "C2",
          "midi": 36,
          "time": 58.74999999999995,
          "velocity": 0.8346456692913385,
          "duration": 0.11666666666666714
        },
        {
          "name": "G#2",
          "midi": 44,
          "time": 58.99999999999995,
          "velocity": 0.8346456692913385,
          "duration": 0.0833333333333357
        },
        {
          "name": "C2",
          "midi": 36,
          "time": 58.99999999999995,
          "velocity": 0.8346456692913385,
          "duration": 0.11666666666666714
        },
        {
          "name": "E2",
          "midi": 40,
          "time": 59.24999999999995,
          "velocity": 0.5039370078740157,
          "duration": 0.10833333333333428
        },
        {
          "name": "C2",
          "midi": 36,
          "time": 59.24999999999995,
          "velocity": 0.8346456692913385,
          "duration": 0.11666666666666714
        },
        {
          "name": "C#2",
          "midi": 37,
          "time": 59.24999999999995,
          "velocity": 0.5039370078740157,
          "duration": 0.10833333333333428
        },
        {
          "name": "F#3",
          "midi": 54,
          "time": 59.24999999999995,
          "velocity": 0.3779527559055118,
          "duration": 0.10833333333333428
        },
        {
          "name": "G#2",
          "midi": 44,
          "time": 59.49999999999995,
          "velocity": 0.8346456692913385,
          "duration": 0.0833333333333357
        },
        {
          "name": "F#3",
          "midi": 54,
          "time": 59.74999999999995,
          "velocity": 0.3779527559055118,
          "duration": 0.10833333333333428
        },
        {
          "name": "C2",
          "midi": 36,
          "time": 59.74999999999995,
          "velocity": 0.8346456692913385,
          "duration": 0.11666666666666714
        },
        {
          "name": "A#2",
          "midi": 46,
          "time": 59.99999999999995,
          "velocity": 0.7322834645669292,
          "duration": 0.1666666666666643
        },
        {
          "name": "C2",
          "midi": 36,
          "time": 59.99999999999995,
          "velocity": 0.8346456692913385,
          "duration": 0.11666666666666714
        },
        {
          "name": "F#3",
          "midi": 54,
          "time": 60.24999999999995,
          "velocity": 0.5039370078740157,
          "duration": 0.10833333333333428
        },
        {
          "name": "E2",
          "midi": 40,
          "time": 60.49999999999995,
          "velocity": 0.5039370078740157,
          "duration": 0.10833333333333428
        },
        {
          "name": "C2",
          "midi": 36,
          "time": 60.49999999999995,
          "velocity": 0.8346456692913385,
          "duration": 0.11666666666666714
        },
        {
          "name": "G#2",
          "midi": 44,
          "time": 60.49999999999995,
          "velocity": 0.8346456692913385,
          "duration": 0.0833333333333357
        },
        {
          "name": "C#2",
          "midi": 37,
          "time": 60.49999999999995,
          "velocity": 0.5039370078740157,
          "duration": 0.10833333333333428
        },
        {
          "name": "C2",
          "midi": 36,
          "time": 60.74999999999995,
          "velocity": 0.8346456692913385,
          "duration": 0.11666666666666714
        },
        {
          "name": "F#3",
          "midi": 54,
          "time": 60.74999999999995,
          "velocity": 0.5039370078740157,
          "duration": 0.10833333333333428
        },
        {
          "name": "C2",
          "midi": 36,
          "time": 60.99999999999995,
          "velocity": 0.8346456692913385,
          "duration": 0.11666666666666714
        },
        {
          "name": "G#2",
          "midi": 44,
          "time": 60.99999999999995,
          "velocity": 0.8346456692913385,
          "duration": 0.0833333333333357
        },
        {
          "name": "C#2",
          "midi": 37,
          "time": 61.24999999999995,
          "velocity": 0.5039370078740157,
          "duration": 0.10833333333333428
        },
        {
          "name": "C2",
          "midi": 36,
          "time": 61.24999999999995,
          "velocity": 0.8346456692913385,
          "duration": 0.11666666666666714
        },
        {
          "name": "E2",
          "midi": 40,
          "time": 61.24999999999995,
          "velocity": 0.5039370078740157,
          "duration": 0.10833333333333428
        },
        {
          "name": "F#3",
          "midi": 54,
          "time": 61.24999999999995,
          "velocity": 0.5039370078740157,
          "duration": 0.10833333333333428
        },
        {
          "name": "G#2",
          "midi": 44,
          "time": 61.49999999999995,
          "velocity": 0.8346456692913385,
          "duration": 0.0833333333333357
        },
        {
          "name": "C2",
          "midi": 36,
          "time": 61.74999999999995,
          "velocity": 0.8346456692913385,
          "duration": 0.11666666666666714
        },
        {
          "name": "F#3",
          "midi": 54,
          "time": 61.74999999999995,
          "velocity": 0.3779527559055118,
          "duration": 0.10833333333333428
        },
        {
          "name": "C2",
          "midi": 36,
          "time": 61.99999999999995,
          "velocity": 0.8346456692913385,
          "duration": 0.11666666666666714
        },
        {
          "name": "G#2",
          "midi": 44,
          "time": 61.99999999999995,
          "velocity": 0.8346456692913385,
          "duration": 0.0833333333333357
        },
        {
          "name": "F#3",
          "midi": 54,
          "time": 62.24999999999995,
          "velocity": 0.3779527559055118,
          "duration": 0.10833333333333428
        },
        {
          "name": "C2",
          "midi": 36,
          "time": 62.49999999999995,
          "velocity": 0.8346456692913385,
          "duration": 0.11666666666666714
        },
        {
          "name": "G#2",
          "midi": 44,
          "time": 62.49999999999995,
          "velocity": 0.8346456692913385,
          "duration": 0.0833333333333357
        },
        {
          "name": "C#2",
          "midi": 37,
          "time": 62.49999999999995,
          "velocity": 0.5039370078740157,
          "duration": 0.10833333333333428
        },
        {
          "name": "E2",
          "midi": 40,
          "time": 62.49999999999995,
          "velocity": 0.5039370078740157,
          "duration": 0.10833333333333428
        },
        {
          "name": "C2",
          "midi": 36,
          "time": 62.74999999999995,
          "velocity": 0.8346456692913385,
          "duration": 0.11666666666666714
        },
        {
          "name": "F#3",
          "midi": 54,
          "time": 62.74999999999995,
          "velocity": 0.3779527559055118,
          "duration": 0.10833333333333428
        },
        {
          "name": "C2",
          "midi": 36,
          "time": 62.99999999999995,
          "velocity": 0.8346456692913385,
          "duration": 0.11666666666666714
        },
        {
          "name": "G#2",
          "midi": 44,
          "time": 62.99999999999995,
          "velocity": 0.8346456692913385,
          "duration": 0.0833333333333357
        },
        {
          "name": "F#3",
          "midi": 54,
          "time": 63.24999999999995,
          "velocity": 0.3779527559055118,
          "duration": 0.10833333333333428
        },
        {
          "name": "E2",
          "midi": 40,
          "time": 63.24999999999995,
          "velocity": 0.5039370078740157,
          "duration": 0.10833333333333428
        },
        {
          "name": "C#2",
          "midi": 37,
          "time": 63.24999999999995,
          "velocity": 0.5039370078740157,
          "duration": 0.10833333333333428
        },
        {
          "name": "C2",
          "midi": 36,
          "time": 63.24999999999995,
          "velocity": 0.8346456692913385,
          "duration": 0.11666666666666714
        },
        {
          "name": "G#2",
          "midi": 44,
          "time": 63.49999999999995,
          "velocity": 0.8346456692913385,
          "duration": 0.0833333333333357
        },
        {
          "name": "F#3",
          "midi": 54,
          "time": 63.74999999999995,
          "velocity": 0.3779527559055118,
          "duration": 0.10833333333333428
        },
        {
          "name": "C2",
          "midi": 36,
          "time": 63.74999999999995,
          "velocity": 0.8346456692913385,
          "duration": 0.11666666666666714
        },
        {
          "name": "G3",
          "midi": 55,
          "time": 63.99999999999995,
          "velocity": 0.8346456692913385,
          "duration": 0.0833333333333357
        },
        {
          "name": "C2",
          "midi": 36,
          "time": 63.99999999999995,
          "velocity": 0.8346456692913385,
          "duration": 0.11666666666666714
        },
        {
          "name": "G#2",
          "midi": 44,
          "time": 63.99999999999995,
          "velocity": 0.8346456692913385,
          "duration": 0.0833333333333357
        },
        {
          "name": "F#3",
          "midi": 54,
          "time": 64.24999999999996,
          "velocity": 0.5039370078740157,
          "duration": 0.10833333333333428
        },
        {
          "name": "C#2",
          "midi": 37,
          "time": 64.49999999999996,
          "velocity": 0.5039370078740157,
          "duration": 0.10833333333333428
        },
        {
          "name": "E2",
          "midi": 40,
          "time": 64.49999999999996,
          "velocity": 0.5039370078740157,
          "duration": 0.10833333333333428
        },
        {
          "name": "G#2",
          "midi": 44,
          "time": 64.49999999999996,
          "velocity": 0.8346456692913385,
          "duration": 0.0833333333333286
        },
        {
          "name": "C2",
          "midi": 36,
          "time": 64.49999999999996,
          "velocity": 0.8346456692913385,
          "duration": 0.11666666666667425
        },
        {
          "name": "F#3",
          "midi": 54,
          "time": 64.74999999999997,
          "velocity": 0.5039370078740157,
          "duration": 0.10833333333333428
        },
        {
          "name": "C2",
          "midi": 36,
          "time": 64.74999999999997,
          "velocity": 0.8346456692913385,
          "duration": 0.11666666666667425
        },
        {
          "name": "C2",
          "midi": 36,
          "time": 64.99999999999999,
          "velocity": 0.8346456692913385,
          "duration": 0.11666666666666003
        },
        {
          "name": "G#2",
          "midi": 44,
          "time": 64.99999999999999,
          "velocity": 0.8346456692913385,
          "duration": 0.0833333333333286
        },
        {
          "name": "C#2",
          "midi": 37,
          "time": 65.24999999999999,
          "velocity": 0.5039370078740157,
          "duration": 0.10833333333333428
        },
        {
          "name": "C2",
          "midi": 36,
          "time": 65.24999999999999,
          "velocity": 0.8346456692913385,
          "duration": 0.11666666666667425
        },
        {
          "name": "E2",
          "midi": 40,
          "time": 65.24999999999999,
          "velocity": 0.5039370078740157,
          "duration": 0.10833333333333428
        },
        {
          "name": "F#3",
          "midi": 54,
          "time": 65.24999999999999,
          "velocity": 0.5039370078740157,
          "duration": 0.10833333333333428
        },
        {
          "name": "G#2",
          "midi": 44,
          "time": 65.5,
          "velocity": 0.8346456692913385,
          "duration": 0.0833333333333286
        },
        {
          "name": "F#3",
          "midi": 54,
          "time": 65.75,
          "velocity": 0.3779527559055118,
          "duration": 0.10833333333333428
        },
        {
          "name": "C2",
          "midi": 36,
          "time": 65.75,
          "velocity": 0.8346456692913385,
          "duration": 0.11666666666667425
        },
        {
          "name": "G#2",
          "midi": 44,
          "time": 66.00000000000001,
          "velocity": 0.8346456692913385,
          "duration": 0.0833333333333286
        },
        {
          "name": "C2",
          "midi": 36,
          "time": 66.00000000000001,
          "velocity": 0.8346456692913385,
          "duration": 0.11666666666666003
        },
        {
          "name": "F#3",
          "midi": 54,
          "time": 66.25000000000001,
          "velocity": 0.3779527559055118,
          "duration": 0.10833333333333428
        },
        {
          "name": "G#2",
          "midi": 44,
          "time": 66.50000000000001,
          "velocity": 0.8346456692913385,
          "duration": 0.0833333333333286
        },
        {
          "name": "C#2",
          "midi": 37,
          "time": 66.50000000000001,
          "velocity": 0.5039370078740157,
          "duration": 0.10833333333333428
        },
        {
          "name": "C2",
          "midi": 36,
          "time": 66.50000000000001,
          "velocity": 0.8346456692913385,
          "duration": 0.11666666666667425
        },
        {
          "name": "E2",
          "midi": 40,
          "time": 66.50000000000001,
          "velocity": 0.5039370078740157,
          "duration": 0.10833333333333428
        },
        {
          "name": "C2",
          "midi": 36,
          "time": 66.75000000000003,
          "velocity": 0.8346456692913385,
          "duration": 0.11666666666667425
        },
        {
          "name": "F#3",
          "midi": 54,
          "time": 66.75000000000003,
          "velocity": 0.3779527559055118,
          "duration": 0.10833333333333428
        },
        {
          "name": "C2",
          "midi": 36,
          "time": 67.00000000000004,
          "velocity": 0.8346456692913385,
          "duration": 0.11666666666666003
        },
        {
          "name": "G#2",
          "midi": 44,
          "time": 67.00000000000004,
          "velocity": 0.8346456692913385,
          "duration": 0.0833333333333286
        },
        {
          "name": "C2",
          "midi": 36,
          "time": 67.25000000000004,
          "velocity": 0.8346456692913385,
          "duration": 0.11666666666667425
        },
        {
          "name": "E2",
          "midi": 40,
          "time": 67.25000000000004,
          "velocity": 0.5039370078740157,
          "duration": 0.10833333333333428
        },
        {
          "name": "F#3",
          "midi": 54,
          "time": 67.25000000000004,
          "velocity": 0.3779527559055118,
          "duration": 0.10833333333333428
        },
        {
          "name": "C#2",
          "midi": 37,
          "time": 67.25000000000004,
          "velocity": 0.5039370078740157,
          "duration": 0.10833333333333428
        },
        {
          "name": "G#2",
          "midi": 44,
          "time": 67.50000000000006,
          "velocity": 0.8346456692913385,
          "duration": 0.0833333333333286
        },
        {
          "name": "F#3",
          "midi": 54,
          "time": 67.75000000000006,
          "velocity": 0.3779527559055118,
          "duration": 0.10833333333333428
        },
        {
          "name": "C2",
          "midi": 36,
          "time": 67.75000000000006,
          "velocity": 0.8346456692913385,
          "duration": 0.11666666666667425
        },
        {
          "name": "D#3",
          "midi": 51,
          "time": 68.00000000000007,
          "velocity": 0.8346456692913385,
          "duration": 0.0833333333333286
        },
        {
          "name": "C2",
          "midi": 36,
          "time": 68.00000000000007,
          "velocity": 0.8346456692913385,
          "duration": 0.11666666666666003
        },
        {
          "name": "G#2",
          "midi": 44,
          "time": 68.00000000000007,
          "velocity": 0.8346456692913385,
          "duration": 0.0833333333333286
        },
        {
          "name": "F#3",
          "midi": 54,
          "time": 68.25000000000007,
          "velocity": 0.3779527559055118,
          "duration": 0.10833333333333428
        },
        {
          "name": "C#2",
          "midi": 37,
          "time": 68.50000000000007,
          "velocity": 0.5039370078740157,
          "duration": 0.10833333333333428
        },
        {
          "name": "G#2",
          "midi": 44,
          "time": 68.50000000000007,
          "velocity": 0.8346456692913385,
          "duration": 0.0833333333333286
        },
        {
          "name": "C2",
          "midi": 36,
          "time": 68.50000000000007,
          "velocity": 0.8346456692913385,
          "duration": 0.11666666666667425
        },
        {
          "name": "E2",
          "midi": 40,
          "time": 68.50000000000007,
          "velocity": 0.5039370078740157,
          "duration": 0.10833333333333428
        },
        {
          "name": "F#3",
          "midi": 54,
          "time": 68.75000000000009,
          "velocity": 0.3779527559055118,
          "duration": 0.10833333333333428
        },
        {
          "name": "C2",
          "midi": 36,
          "time": 68.75000000000009,
          "velocity": 0.8346456692913385,
          "duration": 0.11666666666667425
        },
        {
          "name": "G#2",
          "midi": 44,
          "time": 69.0000000000001,
          "velocity": 0.8346456692913385,
          "duration": 0.0833333333333286
        },
        {
          "name": "C2",
          "midi": 36,
          "time": 69.0000000000001,
          "velocity": 0.8346456692913385,
          "duration": 0.11666666666666003
        },
        {
          "name": "E2",
          "midi": 40,
          "time": 69.2500000000001,
          "velocity": 0.5039370078740157,
          "duration": 0.10833333333333428
        },
        {
          "name": "C2",
          "midi": 36,
          "time": 69.2500000000001,
          "velocity": 0.8346456692913385,
          "duration": 0.11666666666667425
        },
        {
          "name": "C#2",
          "midi": 37,
          "time": 69.2500000000001,
          "velocity": 0.5039370078740157,
          "duration": 0.10833333333333428
        },
        {
          "name": "F#3",
          "midi": 54,
          "time": 69.2500000000001,
          "velocity": 0.3779527559055118,
          "duration": 0.10833333333333428
        },
        {
          "name": "G#2",
          "midi": 44,
          "time": 69.50000000000011,
          "velocity": 0.8346456692913385,
          "duration": 0.0833333333333286
        },
        {
          "name": "C2",
          "midi": 36,
          "time": 69.75000000000011,
          "velocity": 0.8346456692913385,
          "duration": 0.11666666666667425
        },
        {
          "name": "F#3",
          "midi": 54,
          "time": 69.75000000000011,
          "velocity": 0.3779527559055118,
          "duration": 0.10833333333333428
        },
        {
          "name": "G#2",
          "midi": 44,
          "time": 70.00000000000013,
          "velocity": 0.8346456692913385,
          "duration": 0.0833333333333286
        },
        {
          "name": "C2",
          "midi": 36,
          "time": 70.00000000000013,
          "velocity": 0.8346456692913385,
          "duration": 0.11666666666666003
        },
        {
          "name": "G3",
          "midi": 55,
          "time": 72.00000000000013,
          "velocity": 0.8346456692913385,
          "duration": 0.09999999999999432
        },
        {
          "name": "G#2",
          "midi": 44,
          "time": 72.00000000000013,
          "velocity": 0.8346456692913385,
          "duration": 0.0833333333333286
        },
        {
          "name": "C2",
          "midi": 36,
          "time": 72.00000000000013,
          "velocity": 0.8346456692913385,
          "duration": 0.11666666666666003
        },
        {
          "name": "B3",
          "midi": 59,
          "time": 72.00000000000013,
          "velocity": 0.8346456692913385,
          "duration": 0.0833333333333286
        },
        {
          "name": "F#3",
          "midi": 54,
          "time": 72.25000000000013,
          "velocity": 0.5039370078740157,
          "duration": 0.10833333333333428
        },
        {
          "name": "G#2",
          "midi": 44,
          "time": 72.25000000000013,
          "velocity": 0.8346456692913385,
          "duration": 0.0833333333333286
        },
        {
          "name": "C2",
          "midi": 36,
          "time": 72.50000000000013,
          "velocity": 0.8346456692913385,
          "duration": 0.11666666666667425
        },
        {
          "name": "B3",
          "midi": 59,
          "time": 72.50000000000013,
          "velocity": 0.8346456692913385,
          "duration": 0.0833333333333286
        },
        {
          "name": "G#2",
          "midi": 44,
          "time": 72.50000000000013,
          "velocity": 0.8346456692913385,
          "duration": 0.0833333333333286
        },
        {
          "name": "E2",
          "midi": 40,
          "time": 72.50000000000013,
          "velocity": 0.5039370078740157,
          "duration": 0.10833333333333428
        },
        {
          "name": "C#2",
          "midi": 37,
          "time": 72.50000000000013,
          "velocity": 0.5039370078740157,
          "duration": 0.10833333333333428
        },
        {
          "name": "G#2",
          "midi": 44,
          "time": 72.75000000000014,
          "velocity": 0.8346456692913385,
          "duration": 0.0833333333333286
        },
        {
          "name": "F#3",
          "midi": 54,
          "time": 72.75000000000014,
          "velocity": 0.5039370078740157,
          "duration": 0.10833333333333428
        },
        {
          "name": "C2",
          "midi": 36,
          "time": 72.75000000000014,
          "velocity": 0.8346456692913385,
          "duration": 0.11666666666667425
        },
        {
          "name": "C2",
          "midi": 36,
          "time": 73.00000000000016,
          "velocity": 0.8346456692913385,
          "duration": 0.11666666666666003
        },
        {
          "name": "B3",
          "midi": 59,
          "time": 73.00000000000016,
          "velocity": 0.8346456692913385,
          "duration": 0.0833333333333286
        },
        {
          "name": "G#2",
          "midi": 44,
          "time": 73.00000000000016,
          "velocity": 0.8346456692913385,
          "duration": 0.0833333333333286
        },
        {
          "name": "C#2",
          "midi": 37,
          "time": 73.25000000000016,
          "velocity": 0.5039370078740157,
          "duration": 0.10833333333333428
        },
        {
          "name": "G#2",
          "midi": 44,
          "time": 73.25000000000016,
          "velocity": 0.8346456692913385,
          "duration": 0.0833333333333286
        },
        {
          "name": "C2",
          "midi": 36,
          "time": 73.25000000000016,
          "velocity": 0.8346456692913385,
          "duration": 0.11666666666667425
        },
        {
          "name": "E2",
          "midi": 40,
          "time": 73.25000000000016,
          "velocity": 0.5039370078740157,
          "duration": 0.10833333333333428
        },
        {
          "name": "F#3",
          "midi": 54,
          "time": 73.25000000000016,
          "velocity": 0.5039370078740157,
          "duration": 0.10833333333333428
        },
        {
          "name": "G#2",
          "midi": 44,
          "time": 73.50000000000017,
          "velocity": 0.8346456692913385,
          "duration": 0.0833333333333286
        },
        {
          "name": "B3",
          "midi": 59,
          "time": 73.50000000000017,
          "velocity": 0.8346456692913385,
          "duration": 0.0833333333333286
        },
        {
          "name": "C2",
          "midi": 36,
          "time": 73.50000000000017,
          "velocity": 0.8346456692913385,
          "duration": 0.11666666666666003
        },
        {
          "name": "G#2",
          "midi": 44,
          "time": 73.75000000000017,
          "velocity": 0.8346456692913385,
          "duration": 0.0833333333333286
        },
        {
          "name": "C2",
          "midi": 36,
          "time": 73.75000000000017,
          "velocity": 0.8346456692913385,
          "duration": 0.11666666666667425
        },
        {
          "name": "F#3",
          "midi": 54,
          "time": 73.75000000000017,
          "velocity": 0.5039370078740157,
          "duration": 0.10833333333333428
        },
        {
          "name": "C2",
          "midi": 36,
          "time": 74.00000000000018,
          "velocity": 0.8346456692913385,
          "duration": 0.11666666666666003
        },
        {
          "name": "B3",
          "midi": 59,
          "time": 74.00000000000018,
          "velocity": 0.8346456692913385,
          "duration": 0.0833333333333286
        },
        {
          "name": "G#2",
          "midi": 44,
          "time": 74.00000000000018,
          "velocity": 0.8346456692913385,
          "duration": 0.0833333333333286
        },
        {
          "name": "G#2",
          "midi": 44,
          "time": 74.25000000000018,
          "velocity": 0.8346456692913385,
          "duration": 0.0833333333333286
        },
        {
          "name": "F#3",
          "midi": 54,
          "time": 74.25000000000018,
          "velocity": 0.5039370078740157,
          "duration": 0.10833333333333428
        },
        {
          "name": "C2",
          "midi": 36,
          "time": 74.50000000000018,
          "velocity": 0.8346456692913385,
          "duration": 0.11666666666667425
        },
        {
          "name": "C#2",
          "midi": 37,
          "time": 74.50000000000018,
          "velocity": 0.5039370078740157,
          "duration": 0.10833333333333428
        },
        {
          "name": "B3",
          "midi": 59,
          "time": 74.50000000000018,
          "velocity": 0.8346456692913385,
          "duration": 0.0833333333333286
        },
        {
          "name": "E2",
          "midi": 40,
          "time": 74.50000000000018,
          "velocity": 0.5039370078740157,
          "duration": 0.10833333333333428
        },
        {
          "name": "G#2",
          "midi": 44,
          "time": 74.50000000000018,
          "velocity": 0.8346456692913385,
          "duration": 0.0833333333333286
        },
        {
          "name": "F#3",
          "midi": 54,
          "time": 74.7500000000002,
          "velocity": 0.5039370078740157,
          "duration": 0.10833333333333428
        },
        {
          "name": "G#2",
          "midi": 44,
          "time": 74.7500000000002,
          "velocity": 0.8346456692913385,
          "duration": 0.0833333333333286
        },
        {
          "name": "C2",
          "midi": 36,
          "time": 74.7500000000002,
          "velocity": 0.8346456692913385,
          "duration": 0.11666666666667425
        },
        {
          "name": "B3",
          "midi": 59,
          "time": 75.00000000000021,
          "velocity": 0.8346456692913385,
          "duration": 0.0833333333333286
        },
        {
          "name": "C2",
          "midi": 36,
          "time": 75.00000000000021,
          "velocity": 0.8346456692913385,
          "duration": 0.11666666666666003
        },
        {
          "name": "G#2",
          "midi": 44,
          "time": 75.00000000000021,
          "velocity": 0.8346456692913385,
          "duration": 0.0833333333333286
        },
        {
          "name": "F#3",
          "midi": 54,
          "time": 75.25000000000021,
          "velocity": 0.5039370078740157,
          "duration": 0.10833333333333428
        },
        {
          "name": "C#2",
          "midi": 37,
          "time": 75.25000000000021,
          "velocity": 0.5039370078740157,
          "duration": 0.10833333333333428
        },
        {
          "name": "G#2",
          "midi": 44,
          "time": 75.25000000000021,
          "velocity": 0.8346456692913385,
          "duration": 0.0833333333333286
        },
        {
          "name": "C2",
          "midi": 36,
          "time": 75.25000000000021,
          "velocity": 0.8346456692913385,
          "duration": 0.11666666666667425
        },
        {
          "name": "E2",
          "midi": 40,
          "time": 75.25000000000021,
          "velocity": 0.5039370078740157,
          "duration": 0.10833333333333428
        },
        {
          "name": "G#2",
          "midi": 44,
          "time": 75.50000000000023,
          "velocity": 0.8346456692913385,
          "duration": 0.0833333333333286
        },
        {
          "name": "C2",
          "midi": 36,
          "time": 75.50000000000023,
          "velocity": 0.8346456692913385,
          "duration": 0.11666666666666003
        },
        {
          "name": "B3",
          "midi": 59,
          "time": 75.50000000000023,
          "velocity": 0.8346456692913385,
          "duration": 0.0833333333333286
        },
        {
          "name": "C2",
          "midi": 36,
          "time": 75.75000000000023,
          "velocity": 0.8346456692913385,
          "duration": 0.11666666666667425
        },
        {
          "name": "G#2",
          "midi": 44,
          "time": 75.75000000000023,
          "velocity": 0.8346456692913385,
          "duration": 0.0833333333333286
        },
        {
          "name": "F#3",
          "midi": 54,
          "time": 75.75000000000023,
          "velocity": 0.5039370078740157,
          "duration": 0.10833333333333428
        },
        {
          "name": "G#2",
          "midi": 44,
          "time": 76.00000000000024,
          "velocity": 0.8346456692913385,
          "duration": 0.0833333333333286
        },
        {
          "name": "B3",
          "midi": 59,
          "time": 76.00000000000024,
          "velocity": 0.8346456692913385,
          "duration": 0.0833333333333286
        },
        {
          "name": "C2",
          "midi": 36,
          "time": 76.00000000000024,
          "velocity": 0.8346456692913385,
          "duration": 0.11666666666666003
        },
        {
          "name": "F#3",
          "midi": 54,
          "time": 76.25000000000024,
          "velocity": 0.5039370078740157,
          "duration": 0.10833333333333428
        },
        {
          "name": "G#2",
          "midi": 44,
          "time": 76.25000000000024,
          "velocity": 0.8346456692913385,
          "duration": 0.0833333333333286
        },
        {
          "name": "C#2",
          "midi": 37,
          "time": 76.50000000000024,
          "velocity": 0.5039370078740157,
          "duration": 0.10833333333333428
        },
        {
          "name": "C2",
          "midi": 36,
          "time": 76.50000000000024,
          "velocity": 0.8346456692913385,
          "duration": 0.11666666666667425
        },
        {
          "name": "B3",
          "midi": 59,
          "time": 76.50000000000024,
          "velocity": 0.8346456692913385,
          "duration": 0.0833333333333286
        },
        {
          "name": "G#2",
          "midi": 44,
          "time": 76.50000000000024,
          "velocity": 0.8346456692913385,
          "duration": 0.0833333333333286
        },
        {
          "name": "E2",
          "midi": 40,
          "time": 76.50000000000024,
          "velocity": 0.5039370078740157,
          "duration": 0.10833333333333428
        },
        {
          "name": "F#3",
          "midi": 54,
          "time": 76.75000000000026,
          "velocity": 0.5039370078740157,
          "duration": 0.10833333333333428
        },
        {
          "name": "C2",
          "midi": 36,
          "time": 76.75000000000026,
          "velocity": 0.8346456692913385,
          "duration": 0.11666666666667425
        },
        {
          "name": "G#2",
          "midi": 44,
          "time": 76.75000000000026,
          "velocity": 0.8346456692913385,
          "duration": 0.0833333333333286
        },
        {
          "name": "C2",
          "midi": 36,
          "time": 77.00000000000027,
          "velocity": 0.8346456692913385,
          "duration": 0.11666666666666003
        },
        {
          "name": "G#2",
          "midi": 44,
          "time": 77.00000000000027,
          "velocity": 0.8346456692913385,
          "duration": 0.0833333333333286
        },
        {
          "name": "B3",
          "midi": 59,
          "time": 77.00000000000027,
          "velocity": 0.8346456692913385,
          "duration": 0.0833333333333286
        },
        {
          "name": "C#2",
          "midi": 37,
          "time": 77.25000000000027,
          "velocity": 0.5039370078740157,
          "duration": 0.10833333333333428
        },
        {
          "name": "G#2",
          "midi": 44,
          "time": 77.25000000000027,
          "velocity": 0.8346456692913385,
          "duration": 0.0833333333333286
        },
        {
          "name": "F#3",
          "midi": 54,
          "time": 77.25000000000027,
          "velocity": 0.5039370078740157,
          "duration": 0.10833333333333428
        },
        {
          "name": "E2",
          "midi": 40,
          "time": 77.25000000000027,
          "velocity": 0.5039370078740157,
          "duration": 0.10833333333333428
        },
        {
          "name": "C2",
          "midi": 36,
          "time": 77.25000000000027,
          "velocity": 0.8346456692913385,
          "duration": 0.11666666666667425
        },
        {
          "name": "G#2",
          "midi": 44,
          "time": 77.50000000000028,
          "velocity": 0.8346456692913385,
          "duration": 0.0833333333333286
        },
        {
          "name": "B3",
          "midi": 59,
          "time": 77.50000000000028,
          "velocity": 0.8346456692913385,
          "duration": 0.0833333333333286
        },
        {
          "name": "C2",
          "midi": 36,
          "time": 77.50000000000028,
          "velocity": 0.8346456692913385,
          "duration": 0.11666666666666003
        },
        {
          "name": "F#3",
          "midi": 54,
          "time": 77.75000000000028,
          "velocity": 0.5039370078740157,
          "duration": 0.10833333333333428
        },
        {
          "name": "G#2",
          "midi": 44,
          "time": 77.75000000000028,
          "velocity": 0.8346456692913385,
          "duration": 0.0833333333333286
        },
        {
          "name": "C2",
          "midi": 36,
          "time": 77.75000000000028,
          "velocity": 0.8346456692913385,
          "duration": 0.11666666666667425
        },
        {
          "name": "C2",
          "midi": 36,
          "time": 78.0000000000003,
          "velocity": 0.8346456692913385,
          "duration": 0.11666666666666003
        },
        {
          "name": "B3",
          "midi": 59,
          "time": 78.0000000000003,
          "velocity": 0.8346456692913385,
          "duration": 0.0833333333333286
        },
        {
          "name": "G#2",
          "midi": 44,
          "time": 78.0000000000003,
          "velocity": 0.8346456692913385,
          "duration": 0.0833333333333286
        },
        {
          "name": "G#2",
          "midi": 44,
          "time": 78.2500000000003,
          "velocity": 0.8346456692913385,
          "duration": 0.0833333333333286
        },
        {
          "name": "F#3",
          "midi": 54,
          "time": 78.2500000000003,
          "velocity": 0.5039370078740157,
          "duration": 0.10833333333333428
        },
        {
          "name": "C#2",
          "midi": 37,
          "time": 78.5000000000003,
          "velocity": 0.5039370078740157,
          "duration": 0.10833333333333428
        },
        {
          "name": "C2",
          "midi": 36,
          "time": 78.5000000000003,
          "velocity": 0.8346456692913385,
          "duration": 0.11666666666667425
        },
        {
          "name": "G#2",
          "midi": 44,
          "time": 78.5000000000003,
          "velocity": 0.8346456692913385,
          "duration": 0.0833333333333286
        },
        {
          "name": "E2",
          "midi": 40,
          "time": 78.5000000000003,
          "velocity": 0.5039370078740157,
          "duration": 0.10833333333333428
        },
        {
          "name": "B3",
          "midi": 59,
          "time": 78.5000000000003,
          "velocity": 0.8346456692913385,
          "duration": 0.0833333333333286
        },
        {
          "name": "C2",
          "midi": 36,
          "time": 78.75000000000031,
          "velocity": 0.8346456692913385,
          "duration": 0.11666666666667425
        },
        {
          "name": "G#2",
          "midi": 44,
          "time": 78.75000000000031,
          "velocity": 0.8346456692913385,
          "duration": 0.0833333333333286
        },
        {
          "name": "F#3",
          "midi": 54,
          "time": 78.75000000000031,
          "velocity": 0.5039370078740157,
          "duration": 0.10833333333333428
        },
        {
          "name": "B3",
          "midi": 59,
          "time": 79.00000000000033,
          "velocity": 0.8346456692913385,
          "duration": 0.0833333333333286
        },
        {
          "name": "G#2",
          "midi": 44,
          "time": 79.00000000000033,
          "velocity": 0.8346456692913385,
          "duration": 0.0833333333333286
        },
        {
          "name": "C2",
          "midi": 36,
          "time": 79.00000000000033,
          "velocity": 0.8346456692913385,
          "duration": 0.11666666666666003
        },
        {
          "name": "G#2",
          "midi": 44,
          "time": 79.25000000000033,
          "velocity": 0.8346456692913385,
          "duration": 0.0833333333333286
        },
        {
          "name": "C#2",
          "midi": 37,
          "time": 79.25000000000033,
          "velocity": 0.5039370078740157,
          "duration": 0.10833333333333428
        },
        {
          "name": "E2",
          "midi": 40,
          "time": 79.25000000000033,
          "velocity": 0.5039370078740157,
          "duration": 0.10833333333333428
        },
        {
          "name": "C2",
          "midi": 36,
          "time": 79.25000000000033,
          "velocity": 0.8346456692913385,
          "duration": 0.11666666666667425
        },
        {
          "name": "F#3",
          "midi": 54,
          "time": 79.25000000000033,
          "velocity": 0.5039370078740157,
          "duration": 0.10833333333333428
        },
        {
          "name": "B3",
          "midi": 59,
          "time": 79.50000000000034,
          "velocity": 0.8346456692913385,
          "duration": 0.0833333333333286
        },
        {
          "name": "C2",
          "midi": 36,
          "time": 79.50000000000034,
          "velocity": 0.8346456692913385,
          "duration": 0.11666666666666003
        },
        {
          "name": "G#2",
          "midi": 44,
          "time": 79.50000000000034,
          "velocity": 0.8346456692913385,
          "duration": 0.0833333333333286
        },
        {
          "name": "C2",
          "midi": 36,
          "time": 79.75000000000034,
          "velocity": 0.8346456692913385,
          "duration": 0.11666666666667425
        },
        {
          "name": "G#2",
          "midi": 44,
          "time": 79.75000000000034,
          "velocity": 0.8346456692913385,
          "duration": 0.0833333333333286
        },
        {
          "name": "F#3",
          "midi": 54,
          "time": 79.75000000000034,
          "velocity": 0.5039370078740157,
          "duration": 0.10833333333333428
        },
        {
          "name": "C2",
          "midi": 36,
          "time": 80.00000000000036,
          "velocity": 0.8346456692913385,
          "duration": 0.11666666666666003
        },
        {
          "name": "B3",
          "midi": 59,
          "time": 80.00000000000036,
          "velocity": 0.8346456692913385,
          "duration": 0.0833333333333286
        },
        {
          "name": "G3",
          "midi": 55,
          "time": 80.00000000000036,
          "velocity": 0.8346456692913385,
          "duration": 0.0833333333333286
        },
        {
          "name": "G#2",
          "midi": 44,
          "time": 80.00000000000036,
          "velocity": 0.8346456692913385,
          "duration": 0.0833333333333286
        },
        {
          "name": "G#2",
          "midi": 44,
          "time": 80.25000000000036,
          "velocity": 0.8346456692913385,
          "duration": 0.0833333333333286
        },
        {
          "name": "F#3",
          "midi": 54,
          "time": 80.25000000000036,
          "velocity": 0.5039370078740157,
          "duration": 0.10833333333333428
        },
        {
          "name": "B3",
          "midi": 59,
          "time": 80.50000000000036,
          "velocity": 0.8346456692913385,
          "duration": 0.0833333333333286
        },
        {
          "name": "E2",
          "midi": 40,
          "time": 80.50000000000036,
          "velocity": 0.5039370078740157,
          "duration": 0.10833333333333428
        },
        {
          "name": "C2",
          "midi": 36,
          "time": 80.50000000000036,
          "velocity": 0.8346456692913385,
          "duration": 0.11666666666667425
        },
        {
          "name": "C#2",
          "midi": 37,
          "time": 80.50000000000036,
          "velocity": 0.5039370078740157,
          "duration": 0.10833333333333428
        },
        {
          "name": "G#2",
          "midi": 44,
          "time": 80.50000000000036,
          "velocity": 0.8346456692913385,
          "duration": 0.0833333333333286
        },
        {
          "name": "G#2",
          "midi": 44,
          "time": 80.75000000000037,
          "velocity": 0.8346456692913385,
          "duration": 0.0833333333333286
        },
        {
          "name": "C2",
          "midi": 36,
          "time": 80.75000000000037,
          "velocity": 0.8346456692913385,
          "duration": 0.11666666666667425
        },
        {
          "name": "F#3",
          "midi": 54,
          "time": 80.75000000000037,
          "velocity": 0.5039370078740157,
          "duration": 0.10833333333333428
        },
        {
          "name": "G#2",
          "midi": 44,
          "time": 81.00000000000038,
          "velocity": 0.8346456692913385,
          "duration": 0.0833333333333286
        },
        {
          "name": "C2",
          "midi": 36,
          "time": 81.00000000000038,
          "velocity": 0.8346456692913385,
          "duration": 0.11666666666666003
        },
        {
          "name": "B3",
          "midi": 59,
          "time": 81.00000000000038,
          "velocity": 0.8346456692913385,
          "duration": 0.0833333333333286
        },
        {
          "name": "E2",
          "midi": 40,
          "time": 81.25000000000038,
          "velocity": 0.5039370078740157,
          "duration": 0.10833333333333428
        },
        {
          "name": "C#2",
          "midi": 37,
          "time": 81.25000000000038,
          "velocity": 0.5039370078740157,
          "duration": 0.10833333333333428
        },
        {
          "name": "G#2",
          "midi": 44,
          "time": 81.25000000000038,
          "velocity": 0.8346456692913385,
          "duration": 0.0833333333333286
        },
        {
          "name": "F#3",
          "midi": 54,
          "time": 81.25000000000038,
          "velocity": 0.5039370078740157,
          "duration": 0.10833333333333428
        },
        {
          "name": "C2",
          "midi": 36,
          "time": 81.25000000000038,
          "velocity": 0.8346456692913385,
          "duration": 0.11666666666667425
        },
        {
          "name": "G#2",
          "midi": 44,
          "time": 81.5000000000004,
          "velocity": 0.8346456692913385,
          "duration": 0.0833333333333286
        },
        {
          "name": "C2",
          "midi": 36,
          "time": 81.5000000000004,
          "velocity": 0.8346456692913385,
          "duration": 0.11666666666666003
        },
        {
          "name": "B3",
          "midi": 59,
          "time": 81.5000000000004,
          "velocity": 0.8346456692913385,
          "duration": 0.0833333333333286
        },
        {
          "name": "G#2",
          "midi": 44,
          "time": 81.7500000000004,
          "velocity": 0.8346456692913385,
          "duration": 0.0833333333333286
        },
        {
          "name": "F#3",
          "midi": 54,
          "time": 81.7500000000004,
          "velocity": 0.5039370078740157,
          "duration": 0.10833333333333428
        },
        {
          "name": "C2",
          "midi": 36,
          "time": 81.7500000000004,
          "velocity": 0.8346456692913385,
          "duration": 0.11666666666667425
        },
        {
          "name": "G#2",
          "midi": 44,
          "time": 82.00000000000041,
          "velocity": 0.8346456692913385,
          "duration": 0.0833333333333286
        },
        {
          "name": "B3",
          "midi": 59,
          "time": 82.00000000000041,
          "velocity": 0.8346456692913385,
          "duration": 0.0833333333333286
        },
        {
          "name": "C2",
          "midi": 36,
          "time": 82.00000000000041,
          "velocity": 0.8346456692913385,
          "duration": 0.11666666666666003
        },
        {
          "name": "G#2",
          "midi": 44,
          "time": 82.25000000000041,
          "velocity": 0.8346456692913385,
          "duration": 0.0833333333333286
        },
        {
          "name": "F#3",
          "midi": 54,
          "time": 82.25000000000041,
          "velocity": 0.5039370078740157,
          "duration": 0.10833333333333428
        },
        {
          "name": "E2",
          "midi": 40,
          "time": 82.50000000000041,
          "velocity": 0.5039370078740157,
          "duration": 0.10833333333333428
        },
        {
          "name": "C#2",
          "midi": 37,
          "time": 82.50000000000041,
          "velocity": 0.5039370078740157,
          "duration": 0.10833333333333428
        },
        {
          "name": "G#2",
          "midi": 44,
          "time": 82.50000000000041,
          "velocity": 0.8346456692913385,
          "duration": 0.0833333333333286
        },
        {
          "name": "B3",
          "midi": 59,
          "time": 82.50000000000041,
          "velocity": 0.8346456692913385,
          "duration": 0.0833333333333286
        },
        {
          "name": "C2",
          "midi": 36,
          "time": 82.50000000000041,
          "velocity": 0.8346456692913385,
          "duration": 0.11666666666667425
        },
        {
          "name": "C2",
          "midi": 36,
          "time": 82.75000000000043,
          "velocity": 0.8346456692913385,
          "duration": 0.11666666666667425
        },
        {
          "name": "G#2",
          "midi": 44,
          "time": 82.75000000000043,
          "velocity": 0.8346456692913385,
          "duration": 0.0833333333333286
        },
        {
          "name": "F#3",
          "midi": 54,
          "time": 82.75000000000043,
          "velocity": 0.5039370078740157,
          "duration": 0.10833333333333428
        },
        {
          "name": "C2",
          "midi": 36,
          "time": 83.00000000000044,
          "velocity": 0.8346456692913385,
          "duration": 0.11666666666666003
        },
        {
          "name": "B3",
          "midi": 59,
          "time": 83.00000000000044,
          "velocity": 0.8346456692913385,
          "duration": 0.0833333333333286
        },
        {
          "name": "G#2",
          "midi": 44,
          "time": 83.00000000000044,
          "velocity": 0.8346456692913385,
          "duration": 0.0833333333333286
        },
        {
          "name": "C#2",
          "midi": 37,
          "time": 83.25000000000044,
          "velocity": 0.5039370078740157,
          "duration": 0.10833333333333428
        },
        {
          "name": "F#3",
          "midi": 54,
          "time": 83.25000000000044,
          "velocity": 0.5039370078740157,
          "duration": 0.10833333333333428
        },
        {
          "name": "G#2",
          "midi": 44,
          "time": 83.25000000000044,
          "velocity": 0.8346456692913385,
          "duration": 0.0833333333333286
        },
        {
          "name": "E2",
          "midi": 40,
          "time": 83.25000000000044,
          "velocity": 0.5039370078740157,
          "duration": 0.10833333333333428
        },
        {
          "name": "C2",
          "midi": 36,
          "time": 83.25000000000044,
          "velocity": 0.8346456692913385,
          "duration": 0.11666666666667425
        },
        {
          "name": "C2",
          "midi": 36,
          "time": 83.50000000000045,
          "velocity": 0.8346456692913385,
          "duration": 0.11666666666666003
        },
        {
          "name": "B3",
          "midi": 59,
          "time": 83.50000000000045,
          "velocity": 0.8346456692913385,
          "duration": 0.0833333333333286
        },
        {
          "name": "G#2",
          "midi": 44,
          "time": 83.50000000000045,
          "velocity": 0.8346456692913385,
          "duration": 0.0833333333333286
        },
        {
          "name": "F#3",
          "midi": 54,
          "time": 83.75000000000045,
          "velocity": 0.5039370078740157,
          "duration": 0.10833333333333428
        },
        {
          "name": "C2",
          "midi": 36,
          "time": 83.75000000000045,
          "velocity": 0.8346456692913385,
          "duration": 0.11666666666667425
        },
        {
          "name": "G#2",
          "midi": 44,
          "time": 83.75000000000045,
          "velocity": 0.8346456692913385,
          "duration": 0.0833333333333286
        },
        {
          "name": "G#2",
          "midi": 44,
          "time": 84.00000000000047,
          "velocity": 0.8346456692913385,
          "duration": 0.0833333333333286
        },
        {
          "name": "B3",
          "midi": 59,
          "time": 84.00000000000047,
          "velocity": 0.8346456692913385,
          "duration": 0.0833333333333286
        },
        {
          "name": "C2",
          "midi": 36,
          "time": 84.00000000000047,
          "velocity": 0.8346456692913385,
          "duration": 0.11666666666666003
        },
        {
          "name": "F#3",
          "midi": 54,
          "time": 84.25000000000047,
          "velocity": 0.5039370078740157,
          "duration": 0.10833333333333428
        },
        {
          "name": "G#2",
          "midi": 44,
          "time": 84.25000000000047,
          "velocity": 0.8346456692913385,
          "duration": 0.0833333333333286
        },
        {
          "name": "C#2",
          "midi": 37,
          "time": 84.50000000000047,
          "velocity": 0.5039370078740157,
          "duration": 0.10833333333333428
        },
        {
          "name": "E2",
          "midi": 40,
          "time": 84.50000000000047,
          "velocity": 0.5039370078740157,
          "duration": 0.10833333333333428
        },
        {
          "name": "C2",
          "midi": 36,
          "time": 84.50000000000047,
          "velocity": 0.8346456692913385,
          "duration": 0.11666666666667425
        },
        {
          "name": "B3",
          "midi": 59,
          "time": 84.50000000000047,
          "velocity": 0.8346456692913385,
          "duration": 0.0833333333333286
        },
        {
          "name": "G#2",
          "midi": 44,
          "time": 84.50000000000047,
          "velocity": 0.8346456692913385,
          "duration": 0.0833333333333286
        },
        {
          "name": "F#3",
          "midi": 54,
          "time": 84.75000000000048,
          "velocity": 0.5039370078740157,
          "duration": 0.10833333333333428
        },
        {
          "name": "G#2",
          "midi": 44,
          "time": 84.75000000000048,
          "velocity": 0.8346456692913385,
          "duration": 0.0833333333333286
        },
        {
          "name": "C2",
          "midi": 36,
          "time": 84.75000000000048,
          "velocity": 0.8346456692913385,
          "duration": 0.11666666666667425
        },
        {
          "name": "C2",
          "midi": 36,
          "time": 85.0000000000005,
          "velocity": 0.8346456692913385,
          "duration": 0.11666666666666003
        },
        {
          "name": "G#2",
          "midi": 44,
          "time": 85.0000000000005,
          "velocity": 0.8346456692913385,
          "duration": 0.0833333333333286
        },
        {
          "name": "B3",
          "midi": 59,
          "time": 85.0000000000005,
          "velocity": 0.8346456692913385,
          "duration": 0.0833333333333286
        },
        {
          "name": "C2",
          "midi": 36,
          "time": 85.2500000000005,
          "velocity": 0.8346456692913385,
          "duration": 0.11666666666667425
        },
        {
          "name": "C#2",
          "midi": 37,
          "time": 85.2500000000005,
          "velocity": 0.5039370078740157,
          "duration": 0.10833333333333428
        },
        {
          "name": "G#2",
          "midi": 44,
          "time": 85.2500000000005,
          "velocity": 0.8346456692913385,
          "duration": 0.0833333333333286
        },
        {
          "name": "F#3",
          "midi": 54,
          "time": 85.2500000000005,
          "velocity": 0.5039370078740157,
          "duration": 0.10833333333333428
        },
        {
          "name": "E2",
          "midi": 40,
          "time": 85.2500000000005,
          "velocity": 0.5039370078740157,
          "duration": 0.10833333333333428
        },
        {
          "name": "C2",
          "midi": 36,
          "time": 85.50000000000051,
          "velocity": 0.8346456692913385,
          "duration": 0.11666666666666003
        },
        {
          "name": "G#2",
          "midi": 44,
          "time": 85.50000000000051,
          "velocity": 0.8346456692913385,
          "duration": 0.0833333333333286
        },
        {
          "name": "B3",
          "midi": 59,
          "time": 85.50000000000051,
          "velocity": 0.8346456692913385,
          "duration": 0.0833333333333286
        },
        {
          "name": "G#2",
          "midi": 44,
          "time": 85.75000000000051,
          "velocity": 0.8346456692913385,
          "duration": 0.0833333333333286
        },
        {
          "name": "C2",
          "midi": 36,
          "time": 85.75000000000051,
          "velocity": 0.8346456692913385,
          "duration": 0.11666666666667425
        },
        {
          "name": "F#3",
          "midi": 54,
          "time": 85.75000000000051,
          "velocity": 0.5039370078740157,
          "duration": 0.10833333333333428
        },
        {
          "name": "C2",
          "midi": 36,
          "time": 86.00000000000053,
          "velocity": 0.8346456692913385,
          "duration": 0.11666666666666003
        },
        {
          "name": "B3",
          "midi": 59,
          "time": 86.00000000000053,
          "velocity": 0.8346456692913385,
          "duration": 0.0833333333333286
        },
        {
          "name": "G#2",
          "midi": 44,
          "time": 86.00000000000053,
          "velocity": 0.8346456692913385,
          "duration": 0.0833333333333286
        },
        {
          "name": "G#2",
          "midi": 44,
          "time": 86.25000000000053,
          "velocity": 0.8346456692913385,
          "duration": 0.0833333333333286
        },
        {
          "name": "F#3",
          "midi": 54,
          "time": 86.25000000000053,
          "velocity": 0.5039370078740157,
          "duration": 0.10833333333333428
        },
        {
          "name": "B3",
          "midi": 59,
          "time": 86.50000000000053,
          "velocity": 0.8346456692913385,
          "duration": 0.0833333333333286
        },
        {
          "name": "E2",
          "midi": 40,
          "time": 86.50000000000053,
          "velocity": 0.5039370078740157,
          "duration": 0.10833333333333428
        },
        {
          "name": "C#2",
          "midi": 37,
          "time": 86.50000000000053,
          "velocity": 0.5039370078740157,
          "duration": 0.10833333333333428
        },
        {
          "name": "C2",
          "midi": 36,
          "time": 86.50000000000053,
          "velocity": 0.8346456692913385,
          "duration": 0.11666666666667425
        },
        {
          "name": "G#2",
          "midi": 44,
          "time": 86.50000000000053,
          "velocity": 0.8346456692913385,
          "duration": 0.0833333333333286
        },
        {
          "name": "C2",
          "midi": 36,
          "time": 86.75000000000054,
          "velocity": 0.8346456692913385,
          "duration": 0.11666666666667425
        },
        {
          "name": "G#2",
          "midi": 44,
          "time": 86.75000000000054,
          "velocity": 0.8346456692913385,
          "duration": 0.0833333333333286
        },
        {
          "name": "F#3",
          "midi": 54,
          "time": 86.75000000000054,
          "velocity": 0.5039370078740157,
          "duration": 0.10833333333333428
        },
        {
          "name": "G#2",
          "midi": 44,
          "time": 87.00000000000055,
          "velocity": 0.8346456692913385,
          "duration": 0.0833333333333286
        },
        {
          "name": "B3",
          "midi": 59,
          "time": 87.00000000000055,
          "velocity": 0.8346456692913385,
          "duration": 0.0833333333333286
        },
        {
          "name": "C2",
          "midi": 36,
          "time": 87.00000000000055,
          "velocity": 0.8346456692913385,
          "duration": 0.11666666666666003
        },
        {
          "name": "C2",
          "midi": 36,
          "time": 87.25000000000055,
          "velocity": 0.8346456692913385,
          "duration": 0.11666666666667425
        },
        {
          "name": "C#2",
          "midi": 37,
          "time": 87.25000000000055,
          "velocity": 0.5039370078740157,
          "duration": 0.10833333333333428
        },
        {
          "name": "E2",
          "midi": 40,
          "time": 87.25000000000055,
          "velocity": 0.5039370078740157,
          "duration": 0.10833333333333428
        },
        {
          "name": "F#3",
          "midi": 54,
          "time": 87.25000000000055,
          "velocity": 0.5039370078740157,
          "duration": 0.10833333333333428
        },
        {
          "name": "G#2",
          "midi": 44,
          "time": 87.25000000000055,
          "velocity": 0.8346456692913385,
          "duration": 0.0833333333333286
        },
        {
          "name": "B3",
          "midi": 59,
          "time": 87.50000000000057,
          "velocity": 0.8346456692913385,
          "duration": 0.0833333333333286
        },
        {
          "name": "G#2",
          "midi": 44,
          "time": 87.50000000000057,
          "velocity": 0.8346456692913385,
          "duration": 0.0833333333333286
        },
        {
          "name": "C2",
          "midi": 36,
          "time": 87.50000000000057,
          "velocity": 0.8346456692913385,
          "duration": 0.11666666666666003
        },
        {
          "name": "F#3",
          "midi": 54,
          "time": 87.75000000000057,
          "velocity": 0.5039370078740157,
          "duration": 0.10833333333333428
        },
        {
          "name": "G#2",
          "midi": 44,
          "time": 87.75000000000057,
          "velocity": 0.8346456692913385,
          "duration": 0.0833333333333286
        },
        {
          "name": "C2",
          "midi": 36,
          "time": 87.75000000000057,
          "velocity": 0.8346456692913385,
          "duration": 0.11666666666667425
        },
        {
          "name": "G3",
          "midi": 55,
          "time": 88.00000000000058,
          "velocity": 0.8346456692913385,
          "duration": 0.0833333333333286
        },
        {
          "name": "G#2",
          "midi": 44,
          "time": 88.00000000000058,
          "velocity": 0.8346456692913385,
          "duration": 0.0833333333333286
        },
        {
          "name": "C2",
          "midi": 36,
          "time": 88.00000000000058,
          "velocity": 0.8346456692913385,
          "duration": 0.11666666666666003
        },
        {
          "name": "F#3",
          "midi": 54,
          "time": 88.25000000000058,
          "velocity": 0.5039370078740157,
          "duration": 0.10833333333333428
        },
        {
          "name": "G#2",
          "midi": 44,
          "time": 88.25000000000058,
          "velocity": 0.8346456692913385,
          "duration": 0.0833333333333286
        },
        {
          "name": "E2",
          "midi": 40,
          "time": 88.50000000000058,
          "velocity": 0.5039370078740157,
          "duration": 0.10833333333333428
        },
        {
          "name": "C2",
          "midi": 36,
          "time": 88.50000000000058,
          "velocity": 0.8346456692913385,
          "duration": 0.11666666666667425
        },
        {
          "name": "C#2",
          "midi": 37,
          "time": 88.50000000000058,
          "velocity": 0.5039370078740157,
          "duration": 0.10833333333333428
        },
        {
          "name": "G#2",
          "midi": 44,
          "time": 88.50000000000058,
          "velocity": 0.8346456692913385,
          "duration": 0.0833333333333286
        },
        {
          "name": "F#3",
          "midi": 54,
          "time": 88.7500000000006,
          "velocity": 0.5039370078740157,
          "duration": 0.10833333333333428
        },
        {
          "name": "C2",
          "midi": 36,
          "time": 88.7500000000006,
          "velocity": 0.8346456692913385,
          "duration": 0.11666666666667425
        },
        {
          "name": "G#2",
          "midi": 44,
          "time": 88.7500000000006,
          "velocity": 0.8346456692913385,
          "duration": 0.0833333333333286
        },
        {
          "name": "G#2",
          "midi": 44,
          "time": 89.00000000000061,
          "velocity": 0.8346456692913385,
          "duration": 0.0833333333333286
        },
        {
          "name": "C2",
          "midi": 36,
          "time": 89.00000000000061,
          "velocity": 0.8346456692913385,
          "duration": 0.11666666666666003
        },
        {
          "name": "F#3",
          "midi": 54,
          "time": 89.25000000000061,
          "velocity": 0.5039370078740157,
          "duration": 0.10833333333333428
        },
        {
          "name": "C#2",
          "midi": 37,
          "time": 89.25000000000061,
          "velocity": 0.5039370078740157,
          "duration": 0.10833333333333428
        },
        {
          "name": "C2",
          "midi": 36,
          "time": 89.25000000000061,
          "velocity": 0.8346456692913385,
          "duration": 0.11666666666667425
        },
        {
          "name": "G#2",
          "midi": 44,
          "time": 89.25000000000061,
          "velocity": 0.8346456692913385,
          "duration": 0.0833333333333286
        },
        {
          "name": "E2",
          "midi": 40,
          "time": 89.25000000000061,
          "velocity": 0.5039370078740157,
          "duration": 0.10833333333333428
        },
        {
          "name": "G#2",
          "midi": 44,
          "time": 89.50000000000063,
          "velocity": 0.8346456692913385,
          "duration": 0.0833333333333286
        },
        {
          "name": "G#2",
          "midi": 44,
          "time": 89.75000000000063,
          "velocity": 0.8346456692913385,
          "duration": 0.0833333333333286
        },
        {
          "name": "C2",
          "midi": 36,
          "time": 89.75000000000063,
          "velocity": 0.8346456692913385,
          "duration": 0.11666666666667425
        },
        {
          "name": "F#3",
          "midi": 54,
          "time": 89.75000000000063,
          "velocity": 0.3779527559055118,
          "duration": 0.10833333333333428
        },
        {
          "name": "G#2",
          "midi": 44,
          "time": 90.00000000000064,
          "velocity": 0.8346456692913385,
          "duration": 0.0833333333333286
        },
        {
          "name": "C2",
          "midi": 36,
          "time": 90.00000000000064,
          "velocity": 0.8346456692913385,
          "duration": 0.11666666666666003
        },
        {
          "name": "G#2",
          "midi": 44,
          "time": 90.25000000000064,
          "velocity": 0.8346456692913385,
          "duration": 0.0833333333333286
        },
        {
          "name": "F#3",
          "midi": 54,
          "time": 90.25000000000064,
          "velocity": 0.3779527559055118,
          "duration": 0.10833333333333428
        },
        {
          "name": "C2",
          "midi": 36,
          "time": 90.50000000000064,
          "velocity": 0.8346456692913385,
          "duration": 0.11666666666667425
        },
        {
          "name": "G#2",
          "midi": 44,
          "time": 90.50000000000064,
          "velocity": 0.8346456692913385,
          "duration": 0.0833333333333286
        },
        {
          "name": "C#2",
          "midi": 37,
          "time": 90.50000000000064,
          "velocity": 0.5039370078740157,
          "duration": 0.10833333333333428
        },
        {
          "name": "E2",
          "midi": 40,
          "time": 90.50000000000064,
          "velocity": 0.5039370078740157,
          "duration": 0.10833333333333428
        },
        {
          "name": "G#2",
          "midi": 44,
          "time": 90.75000000000065,
          "velocity": 0.8346456692913385,
          "duration": 0.0833333333333286
        },
        {
          "name": "F#3",
          "midi": 54,
          "time": 90.75000000000065,
          "velocity": 0.3779527559055118,
          "duration": 0.10833333333333428
        },
        {
          "name": "C2",
          "midi": 36,
          "time": 90.75000000000065,
          "velocity": 0.8346456692913385,
          "duration": 0.11666666666667425
        },
        {
          "name": "C2",
          "midi": 36,
          "time": 91.00000000000067,
          "velocity": 0.8346456692913385,
          "duration": 0.11666666666666003
        },
        {
          "name": "G#2",
          "midi": 44,
          "time": 91.00000000000067,
          "velocity": 0.8346456692913385,
          "duration": 0.0833333333333286
        },
        {
          "name": "C2",
          "midi": 36,
          "time": 91.25000000000067,
          "velocity": 0.8346456692913385,
          "duration": 0.11666666666667425
        },
        {
          "name": "G#2",
          "midi": 44,
          "time": 91.25000000000067,
          "velocity": 0.8346456692913385,
          "duration": 0.0833333333333286
        },
        {
          "name": "F#3",
          "midi": 54,
          "time": 91.25000000000067,
          "velocity": 0.3779527559055118,
          "duration": 0.10833333333333428
        },
        {
          "name": "E2",
          "midi": 40,
          "time": 91.25000000000067,
          "velocity": 0.5039370078740157,
          "duration": 0.10833333333333428
        },
        {
          "name": "C#2",
          "midi": 37,
          "time": 91.25000000000067,
          "velocity": 0.5039370078740157,
          "duration": 0.10833333333333428
        },
        {
          "name": "G#2",
          "midi": 44,
          "time": 91.50000000000068,
          "velocity": 0.8346456692913385,
          "duration": 0.0833333333333286
        },
        {
          "name": "F#3",
          "midi": 54,
          "time": 91.75000000000068,
          "velocity": 0.3779527559055118,
          "duration": 0.10833333333333428
        },
        {
          "name": "G#2",
          "midi": 44,
          "time": 91.75000000000068,
          "velocity": 0.8346456692913385,
          "duration": 0.0833333333333286
        },
        {
          "name": "C2",
          "midi": 36,
          "time": 91.75000000000068,
          "velocity": 0.8346456692913385,
          "duration": 0.11666666666667425
        },
        {
          "name": "A#2",
          "midi": 46,
          "time": 92.0000000000007,
          "velocity": 0.7322834645669292,
          "duration": 0.1666666666666572
        },
        {
          "name": "C2",
          "midi": 36,
          "time": 92.0000000000007,
          "velocity": 0.8346456692913385,
          "duration": 0.11666666666666003
        },
        {
          "name": "G#2",
          "midi": 44,
          "time": 92.0000000000007,
          "velocity": 0.8346456692913385,
          "duration": 0.0833333333333286
        },
        {
          "name": "G#2",
          "midi": 44,
          "time": 92.25000000000068,
          "velocity": 0.8346456692913385,
          "duration": 0.0833333333333286
        },
        {
          "name": "F#3",
          "midi": 54,
          "time": 92.25000000000068,
          "velocity": 0.5039370078740157,
          "duration": 0.10833333333333428
        },
        {
          "name": "G#2",
          "midi": 44,
          "time": 92.50000000000068,
          "velocity": 0.8346456692913385,
          "duration": 0.0833333333333286
        },
        {
          "name": "C2",
          "midi": 36,
          "time": 92.50000000000068,
          "velocity": 0.8346456692913385,
          "duration": 0.11666666666667425
        },
        {
          "name": "C#2",
          "midi": 37,
          "time": 92.50000000000068,
          "velocity": 0.5039370078740157,
          "duration": 0.10833333333333428
        },
        {
          "name": "E2",
          "midi": 40,
          "time": 92.50000000000068,
          "velocity": 0.5039370078740157,
          "duration": 0.10833333333333428
        },
        {
          "name": "F#3",
          "midi": 54,
          "time": 92.7500000000007,
          "velocity": 0.5039370078740157,
          "duration": 0.10833333333333428
        },
        {
          "name": "G#2",
          "midi": 44,
          "time": 92.7500000000007,
          "velocity": 0.8346456692913385,
          "duration": 0.0833333333333286
        },
        {
          "name": "C2",
          "midi": 36,
          "time": 92.7500000000007,
          "velocity": 0.8346456692913385,
          "duration": 0.11666666666667425
        },
        {
          "name": "G#2",
          "midi": 44,
          "time": 93.00000000000071,
          "velocity": 0.8346456692913385,
          "duration": 0.0833333333333286
        },
        {
          "name": "C2",
          "midi": 36,
          "time": 93.00000000000071,
          "velocity": 0.8346456692913385,
          "duration": 0.11666666666666003
        },
        {
          "name": "C2",
          "midi": 36,
          "time": 93.25000000000071,
          "velocity": 0.8346456692913385,
          "duration": 0.11666666666667425
        },
        {
          "name": "G#2",
          "midi": 44,
          "time": 93.25000000000071,
          "velocity": 0.8346456692913385,
          "duration": 0.0833333333333286
        },
        {
          "name": "C#2",
          "midi": 37,
          "time": 93.25000000000071,
          "velocity": 0.5039370078740157,
          "duration": 0.10833333333333428
        },
        {
          "name": "F#3",
          "midi": 54,
          "time": 93.25000000000071,
          "velocity": 0.5039370078740157,
          "duration": 0.10833333333333428
        },
        {
          "name": "E2",
          "midi": 40,
          "time": 93.25000000000071,
          "velocity": 0.5039370078740157,
          "duration": 0.10833333333333428
        },
        {
          "name": "G#2",
          "midi": 44,
          "time": 93.50000000000072,
          "velocity": 0.8346456692913385,
          "duration": 0.0833333333333286
        },
        {
          "name": "F#3",
          "midi": 54,
          "time": 93.75000000000072,
          "velocity": 0.3779527559055118,
          "duration": 0.10833333333333428
        },
        {
          "name": "C2",
          "midi": 36,
          "time": 93.75000000000072,
          "velocity": 0.8346456692913385,
          "duration": 0.11666666666667425
        },
        {
          "name": "G#2",
          "midi": 44,
          "time": 93.75000000000072,
          "velocity": 0.8346456692913385,
          "duration": 0.0833333333333286
        },
        {
          "name": "G#2",
          "midi": 44,
          "time": 94.00000000000074,
          "velocity": 0.8346456692913385,
          "duration": 0.0833333333333286
        },
        {
          "name": "C2",
          "midi": 36,
          "time": 94.00000000000074,
          "velocity": 0.8346456692913385,
          "duration": 0.11666666666666003
        },
        {
          "name": "G#2",
          "midi": 44,
          "time": 94.25000000000074,
          "velocity": 0.8346456692913385,
          "duration": 0.0833333333333286
        },
        {
          "name": "F#3",
          "midi": 54,
          "time": 94.25000000000074,
          "velocity": 0.3779527559055118,
          "duration": 0.10833333333333428
        },
        {
          "name": "G#2",
          "midi": 44,
          "time": 94.50000000000074,
          "velocity": 0.8346456692913385,
          "duration": 0.0833333333333286
        },
        {
          "name": "C#2",
          "midi": 37,
          "time": 94.50000000000074,
          "velocity": 0.5039370078740157,
          "duration": 0.10833333333333428
        },
        {
          "name": "E2",
          "midi": 40,
          "time": 94.50000000000074,
          "velocity": 0.5039370078740157,
          "duration": 0.10833333333333428
        },
        {
          "name": "C2",
          "midi": 36,
          "time": 94.50000000000074,
          "velocity": 0.8346456692913385,
          "duration": 0.11666666666667425
        },
        {
          "name": "C2",
          "midi": 36,
          "time": 94.75000000000075,
          "velocity": 0.8346456692913385,
          "duration": 0.11666666666667425
        },
        {
          "name": "F#3",
          "midi": 54,
          "time": 94.75000000000075,
          "velocity": 0.3779527559055118,
          "duration": 0.10833333333333428
        },
        {
          "name": "G#2",
          "midi": 44,
          "time": 94.75000000000075,
          "velocity": 0.8346456692913385,
          "duration": 0.0833333333333286
        },
        {
          "name": "G#2",
          "midi": 44,
          "time": 95.00000000000077,
          "velocity": 0.8346456692913385,
          "duration": 0.0833333333333286
        },
        {
          "name": "C2",
          "midi": 36,
          "time": 95.00000000000077,
          "velocity": 0.8346456692913385,
          "duration": 0.11666666666666003
        },
        {
          "name": "E2",
          "midi": 40,
          "time": 95.25000000000077,
          "velocity": 0.5039370078740157,
          "duration": 0.10833333333333428
        },
        {
          "name": "F#3",
          "midi": 54,
          "time": 95.25000000000077,
          "velocity": 0.3779527559055118,
          "duration": 0.10833333333333428
        },
        {
          "name": "G#2",
          "midi": 44,
          "time": 95.25000000000077,
          "velocity": 0.8346456692913385,
          "duration": 0.0833333333333286
        },
        {
          "name": "C#2",
          "midi": 37,
          "time": 95.25000000000077,
          "velocity": 0.5039370078740157,
          "duration": 0.10833333333333428
        },
        {
          "name": "C2",
          "midi": 36,
          "time": 95.25000000000077,
          "velocity": 0.8346456692913385,
          "duration": 0.11666666666667425
        },
        {
          "name": "G#2",
          "midi": 44,
          "time": 95.50000000000078,
          "velocity": 0.8346456692913385,
          "duration": 0.0833333333333286
        },
        {
          "name": "G#2",
          "midi": 44,
          "time": 95.75000000000078,
          "velocity": 0.8346456692913385,
          "duration": 0.0833333333333286
        },
        {
          "name": "F#3",
          "midi": 54,
          "time": 95.75000000000078,
          "velocity": 0.3779527559055118,
          "duration": 0.10833333333333428
        },
        {
          "name": "C2",
          "midi": 36,
          "time": 95.75000000000078,
          "velocity": 0.8346456692913385,
          "duration": 0.11666666666667425
        },
        {
          "name": "A#2",
          "midi": 46,
          "time": 96.0000000000008,
          "velocity": 0.7322834645669292,
          "duration": 0.1666666666666572
        },
        {
          "name": "C2",
          "midi": 36,
          "time": 96.0000000000008,
          "velocity": 0.8346456692913385,
          "duration": 0.11666666666666003
        },
        {
          "name": "F#3",
          "midi": 54,
          "time": 96.25000000000078,
          "velocity": 0.5039370078740157,
          "duration": 0.10833333333333428
        },
        {
          "name": "G#2",
          "midi": 44,
          "time": 96.25000000000078,
          "velocity": 0.8346456692913385,
          "duration": 0.0833333333333286
        },
        {
          "name": "C2",
          "midi": 36,
          "time": 96.50000000000078,
          "velocity": 0.8346456692913385,
          "duration": 0.11666666666667425
        },
        {
          "name": "E2",
          "midi": 40,
          "time": 96.50000000000078,
          "velocity": 0.5039370078740157,
          "duration": 0.10833333333333428
        },
        {
          "name": "C#2",
          "midi": 37,
          "time": 96.50000000000078,
          "velocity": 0.5039370078740157,
          "duration": 0.10833333333333428
        },
        {
          "name": "G#2",
          "midi": 44,
          "time": 96.50000000000078,
          "velocity": 0.8346456692913385,
          "duration": 0.0833333333333286
        },
        {
          "name": "G#2",
          "midi": 44,
          "time": 96.7500000000008,
          "velocity": 0.8346456692913385,
          "duration": 0.0833333333333286
        },
        {
          "name": "F#3",
          "midi": 54,
          "time": 96.7500000000008,
          "velocity": 0.5039370078740157,
          "duration": 0.10833333333333428
        },
        {
          "name": "C2",
          "midi": 36,
          "time": 96.7500000000008,
          "velocity": 0.8346456692913385,
          "duration": 0.11666666666667425
        },
        {
          "name": "C2",
          "midi": 36,
          "time": 97.00000000000081,
          "velocity": 0.8346456692913385,
          "duration": 0.11666666666666003
        },
        {
          "name": "G#2",
          "midi": 44,
          "time": 97.00000000000081,
          "velocity": 0.8346456692913385,
          "duration": 0.0833333333333286
        },
        {
          "name": "E2",
          "midi": 40,
          "time": 97.25000000000081,
          "velocity": 0.5039370078740157,
          "duration": 0.10833333333333428
        },
        {
          "name": "G#2",
          "midi": 44,
          "time": 97.25000000000081,
          "velocity": 0.8346456692913385,
          "duration": 0.0833333333333286
        },
        {
          "name": "C#2",
          "midi": 37,
          "time": 97.25000000000081,
          "velocity": 0.5039370078740157,
          "duration": 0.10833333333333428
        },
        {
          "name": "F#3",
          "midi": 54,
          "time": 97.25000000000081,
          "velocity": 0.5039370078740157,
          "duration": 0.10833333333333428
        },
        {
          "name": "C2",
          "midi": 36,
          "time": 97.25000000000081,
          "velocity": 0.8346456692913385,
          "duration": 0.11666666666667425
        },
        {
          "name": "G#2",
          "midi": 44,
          "time": 97.50000000000082,
          "velocity": 0.8346456692913385,
          "duration": 0.0833333333333286
        },
        {
          "name": "C2",
          "midi": 36,
          "time": 97.75000000000082,
          "velocity": 0.8346456692913385,
          "duration": 0.11666666666667425
        },
        {
          "name": "G#2",
          "midi": 44,
          "time": 97.75000000000082,
          "velocity": 0.8346456692913385,
          "duration": 0.0833333333333286
        },
        {
          "name": "F#3",
          "midi": 54,
          "time": 97.75000000000082,
          "velocity": 0.3779527559055118,
          "duration": 0.10833333333333428
        },
        {
          "name": "G#2",
          "midi": 44,
          "time": 98.00000000000084,
          "velocity": 0.8346456692913385,
          "duration": 0.0833333333333286
        },
        {
          "name": "C2",
          "midi": 36,
          "time": 98.00000000000084,
          "velocity": 0.8346456692913385,
          "duration": 0.11666666666666003
        },
        {
          "name": "G#2",
          "midi": 44,
          "time": 98.25000000000084,
          "velocity": 0.8346456692913385,
          "duration": 0.0833333333333286
        },
        {
          "name": "F#3",
          "midi": 54,
          "time": 98.25000000000084,
          "velocity": 0.3779527559055118,
          "duration": 0.10833333333333428
        },
        {
          "name": "C2",
          "midi": 36,
          "time": 98.50000000000084,
          "velocity": 0.8346456692913385,
          "duration": 0.11666666666667425
        },
        {
          "name": "C#2",
          "midi": 37,
          "time": 98.50000000000084,
          "velocity": 0.5039370078740157,
          "duration": 0.10833333333333428
        },
        {
          "name": "E2",
          "midi": 40,
          "time": 98.50000000000084,
          "velocity": 0.5039370078740157,
          "duration": 0.10833333333333428
        },
        {
          "name": "G#2",
          "midi": 44,
          "time": 98.50000000000084,
          "velocity": 0.8346456692913385,
          "duration": 0.0833333333333286
        },
        {
          "name": "C2",
          "midi": 36,
          "time": 98.75000000000085,
          "velocity": 0.8346456692913385,
          "duration": 0.11666666666667425
        },
        {
          "name": "G#2",
          "midi": 44,
          "time": 98.75000000000085,
          "velocity": 0.8346456692913385,
          "duration": 0.0833333333333286
        },
        {
          "name": "F#3",
          "midi": 54,
          "time": 98.75000000000085,
          "velocity": 0.3779527559055118,
          "duration": 0.10833333333333428
        },
        {
          "name": "C2",
          "midi": 36,
          "time": 99.00000000000087,
          "velocity": 0.8346456692913385,
          "duration": 0.11666666666666003
        },
        {
          "name": "G#2",
          "midi": 44,
          "time": 99.00000000000087,
          "velocity": 0.8346456692913385,
          "duration": 0.0833333333333286
        },
        {
          "name": "E2",
          "midi": 40,
          "time": 99.25000000000087,
          "velocity": 0.5039370078740157,
          "duration": 0.10833333333333428
        },
        {
          "name": "C#2",
          "midi": 37,
          "time": 99.25000000000087,
          "velocity": 0.5039370078740157,
          "duration": 0.10833333333333428
        },
        {
          "name": "C2",
          "midi": 36,
          "time": 99.25000000000087,
          "velocity": 0.8346456692913385,
          "duration": 0.11666666666667425
        },
        {
          "name": "G#2",
          "midi": 44,
          "time": 99.25000000000087,
          "velocity": 0.8346456692913385,
          "duration": 0.0833333333333286
        },
        {
          "name": "F#3",
          "midi": 54,
          "time": 99.25000000000087,
          "velocity": 0.3779527559055118,
          "duration": 0.10833333333333428
        },
        {
          "name": "G#2",
          "midi": 44,
          "time": 99.50000000000088,
          "velocity": 0.8346456692913385,
          "duration": 0.0833333333333286
        },
        {
          "name": "G#2",
          "midi": 44,
          "time": 99.75000000000088,
          "velocity": 0.8346456692913385,
          "duration": 0.0833333333333286
        },
        {
          "name": "C2",
          "midi": 36,
          "time": 99.75000000000088,
          "velocity": 0.8346456692913385,
          "duration": 0.11666666666667425
        },
        {
          "name": "F#3",
          "midi": 54,
          "time": 99.75000000000088,
          "velocity": 0.3779527559055118,
          "duration": 0.10833333333333428
        },
        {
          "name": "C2",
          "midi": 36,
          "time": 100.0000000000009,
          "velocity": 0.8346456692913385,
          "duration": 0.11666666666666003
        },
        {
          "name": "A#2",
          "midi": 46,
          "time": 100.0000000000009,
          "velocity": 0.7322834645669292,
          "duration": 0.1666666666666572
        },
        {
          "name": "F#3",
          "midi": 54,
          "time": 100.25000000000088,
          "velocity": 0.5039370078740157,
          "duration": 0.10833333333333428
        },
        {
          "name": "G#2",
          "midi": 44,
          "time": 100.25000000000088,
          "velocity": 0.8346456692913385,
          "duration": 0.0833333333333286
        },
        {
          "name": "C#2",
          "midi": 37,
          "time": 100.50000000000088,
          "velocity": 0.5039370078740157,
          "duration": 0.10833333333333428
        },
        {
          "name": "G#2",
          "midi": 44,
          "time": 100.50000000000088,
          "velocity": 0.8346456692913385,
          "duration": 0.0833333333333286
        },
        {
          "name": "E2",
          "midi": 40,
          "time": 100.50000000000088,
          "velocity": 0.5039370078740157,
          "duration": 0.10833333333333428
        },
        {
          "name": "C2",
          "midi": 36,
          "time": 100.50000000000088,
          "velocity": 0.8346456692913385,
          "duration": 0.11666666666667425
        },
        {
          "name": "G#2",
          "midi": 44,
          "time": 100.7500000000009,
          "velocity": 0.8346456692913385,
          "duration": 0.0833333333333286
        },
        {
          "name": "C2",
          "midi": 36,
          "time": 100.7500000000009,
          "velocity": 0.8346456692913385,
          "duration": 0.11666666666667425
        },
        {
          "name": "F#3",
          "midi": 54,
          "time": 100.7500000000009,
          "velocity": 0.5039370078740157,
          "duration": 0.10833333333333428
        },
        {
          "name": "C2",
          "midi": 36,
          "time": 101.00000000000091,
          "velocity": 0.8346456692913385,
          "duration": 0.11666666666666003
        },
        {
          "name": "G#2",
          "midi": 44,
          "time": 101.00000000000091,
          "velocity": 0.8346456692913385,
          "duration": 0.0833333333333286
        },
        {
          "name": "E2",
          "midi": 40,
          "time": 101.25000000000091,
          "velocity": 0.5039370078740157,
          "duration": 0.10833333333333428
        },
        {
          "name": "G#2",
          "midi": 44,
          "time": 101.25000000000091,
          "velocity": 0.8346456692913385,
          "duration": 0.0833333333333286
        },
        {
          "name": "C#2",
          "midi": 37,
          "time": 101.25000000000091,
          "velocity": 0.5039370078740157,
          "duration": 0.10833333333333428
        },
        {
          "name": "F#3",
          "midi": 54,
          "time": 101.25000000000091,
          "velocity": 0.5039370078740157,
          "duration": 0.10833333333333428
        },
        {
          "name": "C2",
          "midi": 36,
          "time": 101.25000000000091,
          "velocity": 0.8346456692913385,
          "duration": 0.11666666666667425
        },
        {
          "name": "G#2",
          "midi": 44,
          "time": 101.50000000000092,
          "velocity": 0.8346456692913385,
          "duration": 0.0833333333333286
        },
        {
          "name": "G#2",
          "midi": 44,
          "time": 101.75000000000092,
          "velocity": 0.8346456692913385,
          "duration": 0.0833333333333286
        },
        {
          "name": "C2",
          "midi": 36,
          "time": 101.75000000000092,
          "velocity": 0.8346456692913385,
          "duration": 0.11666666666667425
        },
        {
          "name": "F#3",
          "midi": 54,
          "time": 101.75000000000092,
          "velocity": 0.3779527559055118,
          "duration": 0.10833333333333428
        },
        {
          "name": "G#2",
          "midi": 44,
          "time": 102.00000000000094,
          "velocity": 0.8346456692913385,
          "duration": 0.0833333333333286
        },
        {
          "name": "C2",
          "midi": 36,
          "time": 102.00000000000094,
          "velocity": 0.8346456692913385,
          "duration": 0.11666666666666003
        },
        {
          "name": "F#3",
          "midi": 54,
          "time": 102.25000000000094,
          "velocity": 0.3779527559055118,
          "duration": 0.10833333333333428
        },
        {
          "name": "G#2",
          "midi": 44,
          "time": 102.25000000000094,
          "velocity": 0.8346456692913385,
          "duration": 0.0833333333333286
        },
        {
          "name": "G#2",
          "midi": 44,
          "time": 102.50000000000094,
          "velocity": 0.8346456692913385,
          "duration": 0.0833333333333286
        },
        {
          "name": "C2",
          "midi": 36,
          "time": 102.50000000000094,
          "velocity": 0.8346456692913385,
          "duration": 0.11666666666667425
        },
        {
          "name": "C#2",
          "midi": 37,
          "time": 102.50000000000094,
          "velocity": 0.5039370078740157,
          "duration": 0.10833333333333428
        },
        {
          "name": "E2",
          "midi": 40,
          "time": 102.50000000000094,
          "velocity": 0.5039370078740157,
          "duration": 0.10833333333333428
        },
        {
          "name": "G#2",
          "midi": 44,
          "time": 102.75000000000095,
          "velocity": 0.8346456692913385,
          "duration": 0.0833333333333286
        },
        {
          "name": "C2",
          "midi": 36,
          "time": 102.75000000000095,
          "velocity": 0.8346456692913385,
          "duration": 0.11666666666667425
        },
        {
          "name": "F#3",
          "midi": 54,
          "time": 102.75000000000095,
          "velocity": 0.3779527559055118,
          "duration": 0.10833333333333428
        },
        {
          "name": "G#2",
          "midi": 44,
          "time": 103.00000000000097,
          "velocity": 0.8346456692913385,
          "duration": 0.0833333333333286
        },
        {
          "name": "C2",
          "midi": 36,
          "time": 103.00000000000097,
          "velocity": 0.8346456692913385,
          "duration": 0.11666666666666003
        },
        {
          "name": "F#3",
          "midi": 54,
          "time": 103.25000000000097,
          "velocity": 0.3779527559055118,
          "duration": 0.10833333333333428
        },
        {
          "name": "E2",
          "midi": 40,
          "time": 103.25000000000097,
          "velocity": 0.5039370078740157,
          "duration": 0.10833333333333428
        },
        {
          "name": "C2",
          "midi": 36,
          "time": 103.25000000000097,
          "velocity": 0.8346456692913385,
          "duration": 0.11666666666667425
        },
        {
          "name": "G#2",
          "midi": 44,
          "time": 103.25000000000097,
          "velocity": 0.8346456692913385,
          "duration": 0.0833333333333286
        },
        {
          "name": "C#2",
          "midi": 37,
          "time": 103.25000000000097,
          "velocity": 0.5039370078740157,
          "duration": 0.10833333333333428
        },
        {
          "name": "G#2",
          "midi": 44,
          "time": 103.50000000000098,
          "velocity": 0.8346456692913385,
          "duration": 0.0833333333333286
        },
        {
          "name": "C2",
          "midi": 36,
          "time": 103.75000000000098,
          "velocity": 0.8346456692913385,
          "duration": 0.11666666666667425
        },
        {
          "name": "F#3",
          "midi": 54,
          "time": 103.75000000000098,
          "velocity": 0.3779527559055118,
          "duration": 0.10833333333333428
        },
        {
          "name": "G#2",
          "midi": 44,
          "time": 103.75000000000098,
          "velocity": 0.8346456692913385,
          "duration": 0.0833333333333286
        },
        {
          "name": "G#2",
          "midi": 44,
          "time": 104.000000000001,
          "velocity": 0.8346456692913385,
          "duration": 0.0833333333333286
        },
        {
          "name": "C2",
          "midi": 36,
          "time": 104.000000000001,
          "velocity": 0.8346456692913385,
          "duration": 0.11666666666666003
        },
        {
          "name": "G3",
          "midi": 55,
          "time": 104.000000000001,
          "velocity": 0.8346456692913385,
          "duration": 0.0833333333333286
        },
        {
          "name": "F#3",
          "midi": 54,
          "time": 104.250000000001,
          "velocity": 0.5039370078740157,
          "duration": 0.10833333333333428
        },
        {
          "name": "G#2",
          "midi": 44,
          "time": 104.500000000001,
          "velocity": 0.8346456692913385,
          "duration": 0.0833333333333286
        },
        {
          "name": "E2",
          "midi": 40,
          "time": 104.500000000001,
          "velocity": 0.5039370078740157,
          "duration": 0.10833333333333428
        },
        {
          "name": "C2",
          "midi": 36,
          "time": 104.500000000001,
          "velocity": 0.8346456692913385,
          "duration": 0.11666666666667425
        },
        {
          "name": "C#2",
          "midi": 37,
          "time": 104.500000000001,
          "velocity": 0.5039370078740157,
          "duration": 0.10833333333333428
        },
        {
          "name": "C2",
          "midi": 36,
          "time": 104.75000000000101,
          "velocity": 0.8346456692913385,
          "duration": 0.11666666666667425
        },
        {
          "name": "F#3",
          "midi": 54,
          "time": 104.75000000000101,
          "velocity": 0.5039370078740157,
          "duration": 0.10833333333333428
        },
        {
          "name": "C2",
          "midi": 36,
          "time": 105.00000000000102,
          "velocity": 0.8346456692913385,
          "duration": 0.11666666666666003
        },
        {
          "name": "G#2",
          "midi": 44,
          "time": 105.00000000000102,
          "velocity": 0.8346456692913385,
          "duration": 0.0833333333333286
        },
        {
          "name": "F#3",
          "midi": 54,
          "time": 105.25000000000102,
          "velocity": 0.5039370078740157,
          "duration": 0.10833333333333428
        },
        {
          "name": "E2",
          "midi": 40,
          "time": 105.25000000000102,
          "velocity": 0.5039370078740157,
          "duration": 0.10833333333333428
        },
        {
          "name": "C#2",
          "midi": 37,
          "time": 105.25000000000102,
          "velocity": 0.5039370078740157,
          "duration": 0.10833333333333428
        },
        {
          "name": "C2",
          "midi": 36,
          "time": 105.25000000000102,
          "velocity": 0.8346456692913385,
          "duration": 0.11666666666667425
        },
        {
          "name": "G#2",
          "midi": 44,
          "time": 105.50000000000104,
          "velocity": 0.8346456692913385,
          "duration": 0.0833333333333286
        },
        {
          "name": "F#3",
          "midi": 54,
          "time": 105.75000000000104,
          "velocity": 0.3779527559055118,
          "duration": 0.10833333333333428
        },
        {
          "name": "C2",
          "midi": 36,
          "time": 105.75000000000104,
          "velocity": 0.8346456692913385,
          "duration": 0.11666666666667425
        },
        {
          "name": "C2",
          "midi": 36,
          "time": 106.00000000000105,
          "velocity": 0.8346456692913385,
          "duration": 0.11666666666666003
        },
        {
          "name": "G#2",
          "midi": 44,
          "time": 106.00000000000105,
          "velocity": 0.8346456692913385,
          "duration": 0.0833333333333286
        },
        {
          "name": "F#3",
          "midi": 54,
          "time": 106.25000000000105,
          "velocity": 0.3779527559055118,
          "duration": 0.10833333333333428
        },
        {
          "name": "E2",
          "midi": 40,
          "time": 106.50000000000105,
          "velocity": 0.5039370078740157,
          "duration": 0.10833333333333428
        },
        {
          "name": "G#2",
          "midi": 44,
          "time": 106.50000000000105,
          "velocity": 0.8346456692913385,
          "duration": 0.0833333333333286
        },
        {
          "name": "C#2",
          "midi": 37,
          "time": 106.50000000000105,
          "velocity": 0.5039370078740157,
          "duration": 0.10833333333333428
        },
        {
          "name": "C2",
          "midi": 36,
          "time": 106.50000000000105,
          "velocity": 0.8346456692913385,
          "duration": 0.11666666666667425
        },
        {
          "name": "C2",
          "midi": 36,
          "time": 106.75000000000107,
          "velocity": 0.8346456692913385,
          "duration": 0.11666666666667425
        },
        {
          "name": "F#3",
          "midi": 54,
          "time": 106.75000000000107,
          "velocity": 0.3779527559055118,
          "duration": 0.10833333333333428
        },
        {
          "name": "C2",
          "midi": 36,
          "time": 107.00000000000108,
          "velocity": 0.8346456692913385,
          "duration": 0.11666666666666003
        },
        {
          "name": "G#2",
          "midi": 44,
          "time": 107.00000000000108,
          "velocity": 0.8346456692913385,
          "duration": 0.0833333333333286
        },
        {
          "name": "C#2",
          "midi": 37,
          "time": 107.25000000000108,
          "velocity": 0.5039370078740157,
          "duration": 0.10833333333333428
        },
        {
          "name": "F#3",
          "midi": 54,
          "time": 107.25000000000108,
          "velocity": 0.3779527559055118,
          "duration": 0.10833333333333428
        },
        {
          "name": "E2",
          "midi": 40,
          "time": 107.25000000000108,
          "velocity": 0.5039370078740157,
          "duration": 0.10833333333333428
        },
        {
          "name": "C2",
          "midi": 36,
          "time": 107.25000000000108,
          "velocity": 0.8346456692913385,
          "duration": 0.11666666666667425
        },
        {
          "name": "G#2",
          "midi": 44,
          "time": 107.5000000000011,
          "velocity": 0.8346456692913385,
          "duration": 0.0833333333333286
        },
        {
          "name": "C2",
          "midi": 36,
          "time": 107.7500000000011,
          "velocity": 0.8346456692913385,
          "duration": 0.11666666666667425
        },
        {
          "name": "F#3",
          "midi": 54,
          "time": 107.7500000000011,
          "velocity": 0.3779527559055118,
          "duration": 0.10833333333333428
        },
        {
          "name": "C2",
          "midi": 36,
          "time": 108.00000000000111,
          "velocity": 0.8346456692913385,
          "duration": 0.11666666666666003
        },
        {
          "name": "G#2",
          "midi": 44,
          "time": 108.00000000000111,
          "velocity": 0.8346456692913385,
          "duration": 0.0833333333333286
        },
        {
          "name": "D#3",
          "midi": 51,
          "time": 108.00000000000111,
          "velocity": 0.8346456692913385,
          "duration": 0.0833333333333286
        },
        {
          "name": "F#3",
          "midi": 54,
          "time": 108.25000000000111,
          "velocity": 0.3779527559055118,
          "duration": 0.10833333333333428
        },
        {
          "name": "G#2",
          "midi": 44,
          "time": 108.50000000000111,
          "velocity": 0.8346456692913385,
          "duration": 0.0833333333333286
        },
        {
          "name": "E2",
          "midi": 40,
          "time": 108.50000000000111,
          "velocity": 0.5039370078740157,
          "duration": 0.10833333333333428
        },
        {
          "name": "C2",
          "midi": 36,
          "time": 108.50000000000111,
          "velocity": 0.8346456692913385,
          "duration": 0.11666666666667425
        },
        {
          "name": "C#2",
          "midi": 37,
          "time": 108.50000000000111,
          "velocity": 0.5039370078740157,
          "duration": 0.10833333333333428
        },
        {
          "name": "C2",
          "midi": 36,
          "time": 108.75000000000112,
          "velocity": 0.8346456692913385,
          "duration": 0.11666666666667425
        },
        {
          "name": "F#3",
          "midi": 54,
          "time": 108.75000000000112,
          "velocity": 0.3779527559055118,
          "duration": 0.10833333333333428
        },
        {
          "name": "C2",
          "midi": 36,
          "time": 109.00000000000114,
          "velocity": 0.8346456692913385,
          "duration": 0.11666666666666003
        },
        {
          "name": "G#2",
          "midi": 44,
          "time": 109.00000000000114,
          "velocity": 0.8346456692913385,
          "duration": 0.0833333333333286
        },
        {
          "name": "E2",
          "midi": 40,
          "time": 109.25000000000114,
          "velocity": 0.5039370078740157,
          "duration": 0.10833333333333428
        },
        {
          "name": "C2",
          "midi": 36,
          "time": 109.25000000000114,
          "velocity": 0.8346456692913385,
          "duration": 0.11666666666667425
        },
        {
          "name": "F#3",
          "midi": 54,
          "time": 109.25000000000114,
          "velocity": 0.3779527559055118,
          "duration": 0.10833333333333428
        },
        {
          "name": "C#2",
          "midi": 37,
          "time": 109.25000000000114,
          "velocity": 0.5039370078740157,
          "duration": 0.10833333333333428
        },
        {
          "name": "G#2",
          "midi": 44,
          "time": 109.50000000000115,
          "velocity": 0.8346456692913385,
          "duration": 0.0833333333333286
        },
        {
          "name": "C2",
          "midi": 36,
          "time": 109.75000000000115,
          "velocity": 0.8346456692913385,
          "duration": 0.11666666666667425
        },
        {
          "name": "F#3",
          "midi": 54,
          "time": 109.75000000000115,
          "velocity": 0.3779527559055118,
          "duration": 0.10833333333333428
        },
        {
          "name": "C2",
          "midi": 36,
          "time": 110.00000000000117,
          "velocity": 0.8346456692913385,
          "duration": 0.11666666666666003
        },
        {
          "name": "G#2",
          "midi": 44,
          "time": 110.00000000000117,
          "velocity": 0.8346456692913385,
          "duration": 0.0833333333333286
        },
        {
          "name": "C2",
          "midi": 36,
          "time": 111.00000000000117,
          "velocity": 0.8346456692913385,
          "duration": 0.11666666666667425
        },
        {
          "name": "G#2",
          "midi": 44,
          "time": 111.00000000000117,
          "velocity": 0.8346456692913385,
          "duration": 0.0833333333333286
        },
        {
          "name": "E2",
          "midi": 40,
          "time": 111.00000000000117,
          "velocity": 0.5039370078740157,
          "duration": 0.10833333333333428
        },
        {
          "name": "C#2",
          "midi": 37,
          "time": 111.00000000000117,
          "velocity": 0.5039370078740157,
          "duration": 0.10833333333333428
        },
        {
          "name": "C2",
          "midi": 36,
          "time": 111.25000000000118,
          "velocity": 0.8346456692913385,
          "duration": 0.11666666666666003
        },
        {
          "name": "G#2",
          "midi": 44,
          "time": 111.25000000000118,
          "velocity": 0.8346456692913385,
          "duration": 0.0833333333333286
        },
        {
          "name": "E2",
          "midi": 40,
          "time": 111.50000000000118,
          "velocity": 0.5039370078740157,
          "duration": 0.10833333333333428
        },
        {
          "name": "G#2",
          "midi": 44,
          "time": 111.50000000000118,
          "velocity": 0.8346456692913385,
          "duration": 0.0833333333333286
        },
        {
          "name": "C2",
          "midi": 36,
          "time": 111.50000000000118,
          "velocity": 0.8346456692913385,
          "duration": 0.11666666666667425
        },
        {
          "name": "C#2",
          "midi": 37,
          "time": 111.50000000000118,
          "velocity": 0.5039370078740157,
          "duration": 0.10833333333333428
        },
        {
          "name": "G#2",
          "midi": 44,
          "time": 111.7500000000012,
          "velocity": 0.8346456692913385,
          "duration": 0.0833333333333286
        },
        {
          "name": "C2",
          "midi": 36,
          "time": 111.7500000000012,
          "velocity": 0.8346456692913385,
          "duration": 0.11666666666666003
        },
        {
          "name": "C2",
          "midi": 36,
          "time": 112.0000000000012,
          "velocity": 0.8346456692913385,
          "duration": 0.11666666666666003
        },
        {
          "name": "G3",
          "midi": 55,
          "time": 112.0000000000012,
          "velocity": 0.8346456692913385,
          "duration": 0.0833333333333286
        },
        {
          "name": "B3",
          "midi": 59,
          "time": 112.0000000000012,
          "velocity": 0.8346456692913385,
          "duration": 0.0833333333333286
        },
        {
          "name": "G#2",
          "midi": 44,
          "time": 112.0000000000012,
          "velocity": 0.8346456692913385,
          "duration": 0.0833333333333286
        },
        {
          "name": "G#2",
          "midi": 44,
          "time": 112.2500000000012,
          "velocity": 0.8346456692913385,
          "duration": 0.0833333333333286
        },
        {
          "name": "F#3",
          "midi": 54,
          "time": 112.2500000000012,
          "velocity": 0.5039370078740157,
          "duration": 0.10833333333333428
        },
        {
          "name": "C#2",
          "midi": 37,
          "time": 112.5000000000012,
          "velocity": 0.5039370078740157,
          "duration": 0.10833333333333428
        },
        {
          "name": "B3",
          "midi": 59,
          "time": 112.5000000000012,
          "velocity": 0.8346456692913385,
          "duration": 0.0833333333333286
        },
        {
          "name": "G#2",
          "midi": 44,
          "time": 112.5000000000012,
          "velocity": 0.8346456692913385,
          "duration": 0.0833333333333286
        },
        {
          "name": "C2",
          "midi": 36,
          "time": 112.5000000000012,
          "velocity": 0.8346456692913385,
          "duration": 0.11666666666667425
        },
        {
          "name": "E2",
          "midi": 40,
          "time": 112.5000000000012,
          "velocity": 0.5039370078740157,
          "duration": 0.10833333333333428
        },
        {
          "name": "F#3",
          "midi": 54,
          "time": 112.75000000000121,
          "velocity": 0.5039370078740157,
          "duration": 0.10833333333333428
        },
        {
          "name": "G#2",
          "midi": 44,
          "time": 112.75000000000121,
          "velocity": 0.8346456692913385,
          "duration": 0.0833333333333286
        },
        {
          "name": "C2",
          "midi": 36,
          "time": 112.75000000000121,
          "velocity": 0.8346456692913385,
          "duration": 0.11666666666667425
        },
        {
          "name": "B3",
          "midi": 59,
          "time": 113.00000000000122,
          "velocity": 0.8346456692913385,
          "duration": 0.0833333333333286
        },
        {
          "name": "G#2",
          "midi": 44,
          "time": 113.00000000000122,
          "velocity": 0.8346456692913385,
          "duration": 0.0833333333333286
        },
        {
          "name": "C2",
          "midi": 36,
          "time": 113.00000000000122,
          "velocity": 0.8346456692913385,
          "duration": 0.11666666666666003
        },
        {
          "name": "E2",
          "midi": 40,
          "time": 113.25000000000122,
          "velocity": 0.5039370078740157,
          "duration": 0.10833333333333428
        },
        {
          "name": "G#2",
          "midi": 44,
          "time": 113.25000000000122,
          "velocity": 0.8346456692913385,
          "duration": 0.0833333333333286
        },
        {
          "name": "C2",
          "midi": 36,
          "time": 113.25000000000122,
          "velocity": 0.8346456692913385,
          "duration": 0.11666666666667425
        },
        {
          "name": "F#3",
          "midi": 54,
          "time": 113.25000000000122,
          "velocity": 0.5039370078740157,
          "duration": 0.10833333333333428
        },
        {
          "name": "C#2",
          "midi": 37,
          "time": 113.25000000000122,
          "velocity": 0.5039370078740157,
          "duration": 0.10833333333333428
        },
        {
          "name": "C2",
          "midi": 36,
          "time": 113.50000000000124,
          "velocity": 0.8346456692913385,
          "duration": 0.11666666666666003
        },
        {
          "name": "B3",
          "midi": 59,
          "time": 113.50000000000124,
          "velocity": 0.8346456692913385,
          "duration": 0.0833333333333286
        },
        {
          "name": "G#2",
          "midi": 44,
          "time": 113.50000000000124,
          "velocity": 0.8346456692913385,
          "duration": 0.0833333333333286
        },
        {
          "name": "C2",
          "midi": 36,
          "time": 113.75000000000124,
          "velocity": 0.8346456692913385,
          "duration": 0.11666666666667425
        },
        {
          "name": "G#2",
          "midi": 44,
          "time": 113.75000000000124,
          "velocity": 0.8346456692913385,
          "duration": 0.0833333333333286
        },
        {
          "name": "F#3",
          "midi": 54,
          "time": 113.75000000000124,
          "velocity": 0.5039370078740157,
          "duration": 0.10833333333333428
        },
        {
          "name": "B3",
          "midi": 59,
          "time": 114.00000000000125,
          "velocity": 0.8346456692913385,
          "duration": 0.0833333333333286
        },
        {
          "name": "C2",
          "midi": 36,
          "time": 114.00000000000125,
          "velocity": 0.8346456692913385,
          "duration": 0.11666666666666003
        },
        {
          "name": "G#2",
          "midi": 44,
          "time": 114.00000000000125,
          "velocity": 0.8346456692913385,
          "duration": 0.0833333333333286
        },
        {
          "name": "F#3",
          "midi": 54,
          "time": 114.25000000000125,
          "velocity": 0.5039370078740157,
          "duration": 0.10833333333333428
        },
        {
          "name": "G#2",
          "midi": 44,
          "time": 114.25000000000125,
          "velocity": 0.8346456692913385,
          "duration": 0.0833333333333286
        },
        {
          "name": "C2",
          "midi": 36,
          "time": 114.50000000000125,
          "velocity": 0.8346456692913385,
          "duration": 0.11666666666667425
        },
        {
          "name": "E2",
          "midi": 40,
          "time": 114.50000000000125,
          "velocity": 0.5039370078740157,
          "duration": 0.10833333333333428
        },
        {
          "name": "G#2",
          "midi": 44,
          "time": 114.50000000000125,
          "velocity": 0.8346456692913385,
          "duration": 0.0833333333333286
        },
        {
          "name": "C#2",
          "midi": 37,
          "time": 114.50000000000125,
          "velocity": 0.5039370078740157,
          "duration": 0.10833333333333428
        },
        {
          "name": "B3",
          "midi": 59,
          "time": 114.50000000000125,
          "velocity": 0.8346456692913385,
          "duration": 0.0833333333333286
        },
        {
          "name": "G#2",
          "midi": 44,
          "time": 114.75000000000126,
          "velocity": 0.8346456692913385,
          "duration": 0.0833333333333286
        },
        {
          "name": "F#3",
          "midi": 54,
          "time": 114.75000000000126,
          "velocity": 0.5039370078740157,
          "duration": 0.10833333333333428
        },
        {
          "name": "C2",
          "midi": 36,
          "time": 114.75000000000126,
          "velocity": 0.8346456692913385,
          "duration": 0.11666666666667425
        },
        {
          "name": "C2",
          "midi": 36,
          "time": 115.00000000000128,
          "velocity": 0.8346456692913385,
          "duration": 0.11666666666666003
        },
        {
          "name": "G#2",
          "midi": 44,
          "time": 115.00000000000128,
          "velocity": 0.8346456692913385,
          "duration": 0.0833333333333286
        },
        {
          "name": "B3",
          "midi": 59,
          "time": 115.00000000000128,
          "velocity": 0.8346456692913385,
          "duration": 0.0833333333333286
        },
        {
          "name": "C2",
          "midi": 36,
          "time": 115.25000000000128,
          "velocity": 0.8346456692913385,
          "duration": 0.11666666666667425
        },
        {
          "name": "C#2",
          "midi": 37,
          "time": 115.25000000000128,
          "velocity": 0.5039370078740157,
          "duration": 0.10833333333333428
        },
        {
          "name": "G#2",
          "midi": 44,
          "time": 115.25000000000128,
          "velocity": 0.8346456692913385,
          "duration": 0.0833333333333286
        },
        {
          "name": "E2",
          "midi": 40,
          "time": 115.25000000000128,
          "velocity": 0.5039370078740157,
          "duration": 0.10833333333333428
        },
        {
          "name": "F#3",
          "midi": 54,
          "time": 115.25000000000128,
          "velocity": 0.5039370078740157,
          "duration": 0.10833333333333428
        },
        {
          "name": "G#2",
          "midi": 44,
          "time": 115.5000000000013,
          "velocity": 0.8346456692913385,
          "duration": 0.0833333333333286
        },
        {
          "name": "B3",
          "midi": 59,
          "time": 115.5000000000013,
          "velocity": 0.8346456692913385,
          "duration": 0.0833333333333286
        },
        {
          "name": "C2",
          "midi": 36,
          "time": 115.5000000000013,
          "velocity": 0.8346456692913385,
          "duration": 0.11666666666666003
        },
        {
          "name": "F#3",
          "midi": 54,
          "time": 115.7500000000013,
          "velocity": 0.5039370078740157,
          "duration": 0.10833333333333428
        },
        {
          "name": "G#2",
          "midi": 44,
          "time": 115.7500000000013,
          "velocity": 0.8346456692913385,
          "duration": 0.0833333333333286
        },
        {
          "name": "C2",
          "midi": 36,
          "time": 115.7500000000013,
          "velocity": 0.8346456692913385,
          "duration": 0.11666666666667425
        },
        {
          "name": "C2",
          "midi": 36,
          "time": 116.00000000000131,
          "velocity": 0.8346456692913385,
          "duration": 0.11666666666666003
        },
        {
          "name": "G#2",
          "midi": 44,
          "time": 116.00000000000131,
          "velocity": 0.8346456692913385,
          "duration": 0.0833333333333286
        },
        {
          "name": "B3",
          "midi": 59,
          "time": 116.00000000000131,
          "velocity": 0.8346456692913385,
          "duration": 0.0833333333333286
        },
        {
          "name": "F#3",
          "midi": 54,
          "time": 116.25000000000131,
          "velocity": 0.5039370078740157,
          "duration": 0.10833333333333428
        },
        {
          "name": "G#2",
          "midi": 44,
          "time": 116.25000000000131,
          "velocity": 0.8346456692913385,
          "duration": 0.0833333333333286
        },
        {
          "name": "C2",
          "midi": 36,
          "time": 116.50000000000131,
          "velocity": 0.8346456692913385,
          "duration": 0.11666666666667425
        },
        {
          "name": "C#2",
          "midi": 37,
          "time": 116.50000000000131,
          "velocity": 0.5039370078740157,
          "duration": 0.10833333333333428
        },
        {
          "name": "E2",
          "midi": 40,
          "time": 116.50000000000131,
          "velocity": 0.5039370078740157,
          "duration": 0.10833333333333428
        },
        {
          "name": "B3",
          "midi": 59,
          "time": 116.50000000000131,
          "velocity": 0.8346456692913385,
          "duration": 0.0833333333333286
        },
        {
          "name": "G#2",
          "midi": 44,
          "time": 116.50000000000131,
          "velocity": 0.8346456692913385,
          "duration": 0.0833333333333286
        },
        {
          "name": "F#3",
          "midi": 54,
          "time": 116.75000000000132,
          "velocity": 0.5039370078740157,
          "duration": 0.10833333333333428
        },
        {
          "name": "C2",
          "midi": 36,
          "time": 116.75000000000132,
          "velocity": 0.8346456692913385,
          "duration": 0.11666666666667425
        },
        {
          "name": "G#2",
          "midi": 44,
          "time": 116.75000000000132,
          "velocity": 0.8346456692913385,
          "duration": 0.0833333333333286
        },
        {
          "name": "B3",
          "midi": 59,
          "time": 117.00000000000134,
          "velocity": 0.8346456692913385,
          "duration": 0.0833333333333286
        },
        {
          "name": "C2",
          "midi": 36,
          "time": 117.00000000000134,
          "velocity": 0.8346456692913385,
          "duration": 0.11666666666666003
        },
        {
          "name": "G#2",
          "midi": 44,
          "time": 117.00000000000134,
          "velocity": 0.8346456692913385,
          "duration": 0.0833333333333286
        },
        {
          "name": "C#2",
          "midi": 37,
          "time": 117.25000000000134,
          "velocity": 0.5039370078740157,
          "duration": 0.10833333333333428
        },
        {
          "name": "C2",
          "midi": 36,
          "time": 117.25000000000134,
          "velocity": 0.8346456692913385,
          "duration": 0.11666666666667425
        },
        {
          "name": "E2",
          "midi": 40,
          "time": 117.25000000000134,
          "velocity": 0.5039370078740157,
          "duration": 0.10833333333333428
        },
        {
          "name": "G#2",
          "midi": 44,
          "time": 117.25000000000134,
          "velocity": 0.8346456692913385,
          "duration": 0.0833333333333286
        },
        {
          "name": "F#3",
          "midi": 54,
          "time": 117.25000000000134,
          "velocity": 0.5039370078740157,
          "duration": 0.10833333333333428
        },
        {
          "name": "C2",
          "midi": 36,
          "time": 117.50000000000135,
          "velocity": 0.8346456692913385,
          "duration": 0.11666666666666003
        },
        {
          "name": "G#2",
          "midi": 44,
          "time": 117.50000000000135,
          "velocity": 0.8346456692913385,
          "duration": 0.0833333333333286
        },
        {
          "name": "B3",
          "midi": 59,
          "time": 117.50000000000135,
          "velocity": 0.8346456692913385,
          "duration": 0.0833333333333286
        },
        {
          "name": "G#2",
          "midi": 44,
          "time": 117.75000000000135,
          "velocity": 0.8346456692913385,
          "duration": 0.0833333333333286
        },
        {
          "name": "C2",
          "midi": 36,
          "time": 117.75000000000135,
          "velocity": 0.8346456692913385,
          "duration": 0.11666666666667425
        },
        {
          "name": "F#3",
          "midi": 54,
          "time": 117.75000000000135,
          "velocity": 0.5039370078740157,
          "duration": 0.10833333333333428
        },
        {
          "name": "G#2",
          "midi": 44,
          "time": 118.00000000000136,
          "velocity": 0.8346456692913385,
          "duration": 0.0833333333333286
        },
        {
          "name": "B3",
          "midi": 59,
          "time": 118.00000000000136,
          "velocity": 0.8346456692913385,
          "duration": 0.0833333333333286
        },
        {
          "name": "C2",
          "midi": 36,
          "time": 118.00000000000136,
          "velocity": 0.8346456692913385,
          "duration": 0.11666666666666003
        },
        {
          "name": "G#2",
          "midi": 44,
          "time": 118.25000000000136,
          "velocity": 0.8346456692913385,
          "duration": 0.0833333333333286
        },
        {
          "name": "F#3",
          "midi": 54,
          "time": 118.25000000000136,
          "velocity": 0.5039370078740157,
          "duration": 0.10833333333333428
        },
        {
          "name": "C2",
          "midi": 36,
          "time": 118.50000000000136,
          "velocity": 0.8346456692913385,
          "duration": 0.11666666666667425
        },
        {
          "name": "E2",
          "midi": 40,
          "time": 118.50000000000136,
          "velocity": 0.5039370078740157,
          "duration": 0.10833333333333428
        },
        {
          "name": "B3",
          "midi": 59,
          "time": 118.50000000000136,
          "velocity": 0.8346456692913385,
          "duration": 0.0833333333333286
        },
        {
          "name": "G#2",
          "midi": 44,
          "time": 118.50000000000136,
          "velocity": 0.8346456692913385,
          "duration": 0.0833333333333286
        },
        {
          "name": "C#2",
          "midi": 37,
          "time": 118.50000000000136,
          "velocity": 0.5039370078740157,
          "duration": 0.10833333333333428
        },
        {
          "name": "G#2",
          "midi": 44,
          "time": 118.75000000000138,
          "velocity": 0.8346456692913385,
          "duration": 0.0833333333333286
        },
        {
          "name": "C2",
          "midi": 36,
          "time": 118.75000000000138,
          "velocity": 0.8346456692913385,
          "duration": 0.11666666666667425
        },
        {
          "name": "F#3",
          "midi": 54,
          "time": 118.75000000000138,
          "velocity": 0.5039370078740157,
          "duration": 0.10833333333333428
        },
        {
          "name": "B3",
          "midi": 59,
          "time": 119.00000000000139,
          "velocity": 0.8346456692913385,
          "duration": 0.0833333333333286
        },
        {
          "name": "G#2",
          "midi": 44,
          "time": 119.00000000000139,
          "velocity": 0.8346456692913385,
          "duration": 0.0833333333333286
        },
        {
          "name": "C2",
          "midi": 36,
          "time": 119.00000000000139,
          "velocity": 0.8346456692913385,
          "duration": 0.11666666666666003
        },
        {
          "name": "C#2",
          "midi": 37,
          "time": 119.25000000000139,
          "velocity": 0.5039370078740157,
          "duration": 0.10833333333333428
        },
        {
          "name": "G#2",
          "midi": 44,
          "time": 119.25000000000139,
          "velocity": 0.8346456692913385,
          "duration": 0.0833333333333286
        },
        {
          "name": "E2",
          "midi": 40,
          "time": 119.25000000000139,
          "velocity": 0.5039370078740157,
          "duration": 0.10833333333333428
        },
        {
          "name": "F#3",
          "midi": 54,
          "time": 119.25000000000139,
          "velocity": 0.5039370078740157,
          "duration": 0.10833333333333428
        },
        {
          "name": "C2",
          "midi": 36,
          "time": 119.25000000000139,
          "velocity": 0.8346456692913385,
          "duration": 0.11666666666667425
        },
        {
          "name": "C2",
          "midi": 36,
          "time": 119.5000000000014,
          "velocity": 0.8346456692913385,
          "duration": 0.11666666666666003
        },
        {
          "name": "G#2",
          "midi": 44,
          "time": 119.5000000000014,
          "velocity": 0.8346456692913385,
          "duration": 0.0833333333333286
        },
        {
          "name": "B3",
          "midi": 59,
          "time": 119.5000000000014,
          "velocity": 0.8346456692913385,
          "duration": 0.0833333333333286
        },
        {
          "name": "C2",
          "midi": 36,
          "time": 119.7500000000014,
          "velocity": 0.8346456692913385,
          "duration": 0.11666666666667425
        },
        {
          "name": "F#3",
          "midi": 54,
          "time": 119.7500000000014,
          "velocity": 0.5039370078740157,
          "duration": 0.10833333333333428
        },
        {
          "name": "G#2",
          "midi": 44,
          "time": 119.7500000000014,
          "velocity": 0.8346456692913385,
          "duration": 0.0833333333333286
        },
        {
          "name": "B3",
          "midi": 59,
          "time": 120.00000000000142,
          "velocity": 0.8346456692913385,
          "duration": 0.0833333333333286
        },
        {
          "name": "C2",
          "midi": 36,
          "time": 120.00000000000142,
          "velocity": 0.8346456692913385,
          "duration": 0.11666666666666003
        },
        {
          "name": "G3",
          "midi": 55,
          "time": 120.00000000000142,
          "velocity": 0.8346456692913385,
          "duration": 0.0833333333333286
        },
        {
          "name": "G#2",
          "midi": 44,
          "time": 120.00000000000142,
          "velocity": 0.8346456692913385,
          "duration": 0.0833333333333286
        },
        {
          "name": "F#3",
          "midi": 54,
          "time": 120.25000000000142,
          "velocity": 0.5039370078740157,
          "duration": 0.10833333333333428
        },
        {
          "name": "G#2",
          "midi": 44,
          "time": 120.25000000000142,
          "velocity": 0.8346456692913385,
          "duration": 0.0833333333333286
        },
        {
          "name": "C#2",
          "midi": 37,
          "time": 120.50000000000142,
          "velocity": 0.5039370078740157,
          "duration": 0.10833333333333428
        },
        {
          "name": "B3",
          "midi": 59,
          "time": 120.50000000000142,
          "velocity": 0.8346456692913385,
          "duration": 0.0833333333333286
        },
        {
          "name": "C2",
          "midi": 36,
          "time": 120.50000000000142,
          "velocity": 0.8346456692913385,
          "duration": 0.11666666666667425
        },
        {
          "name": "E2",
          "midi": 40,
          "time": 120.50000000000142,
          "velocity": 0.5039370078740157,
          "duration": 0.10833333333333428
        },
        {
          "name": "G#2",
          "midi": 44,
          "time": 120.50000000000142,
          "velocity": 0.8346456692913385,
          "duration": 0.0833333333333286
        },
        {
          "name": "F#3",
          "midi": 54,
          "time": 120.75000000000144,
          "velocity": 0.5039370078740157,
          "duration": 0.10833333333333428
        },
        {
          "name": "C2",
          "midi": 36,
          "time": 120.75000000000144,
          "velocity": 0.8346456692913385,
          "duration": 0.11666666666667425
        },
        {
          "name": "G#2",
          "midi": 44,
          "time": 120.75000000000144,
          "velocity": 0.8346456692913385,
          "duration": 0.0833333333333286
        },
        {
          "name": "C2",
          "midi": 36,
          "time": 121.00000000000145,
          "velocity": 0.8346456692913385,
          "duration": 0.11666666666666003
        },
        {
          "name": "G#2",
          "midi": 44,
          "time": 121.00000000000145,
          "velocity": 0.8346456692913385,
          "duration": 0.0833333333333286
        },
        {
          "name": "B3",
          "midi": 59,
          "time": 121.00000000000145,
          "velocity": 0.8346456692913385,
          "duration": 0.0833333333333286
        },
        {
          "name": "C#2",
          "midi": 37,
          "time": 121.25000000000145,
          "velocity": 0.5039370078740157,
          "duration": 0.10833333333333428
        },
        {
          "name": "C2",
          "midi": 36,
          "time": 121.25000000000145,
          "velocity": 0.8346456692913385,
          "duration": 0.11666666666667425
        },
        {
          "name": "E2",
          "midi": 40,
          "time": 121.25000000000145,
          "velocity": 0.5039370078740157,
          "duration": 0.10833333333333428
        },
        {
          "name": "F#3",
          "midi": 54,
          "time": 121.25000000000145,
          "velocity": 0.5039370078740157,
          "duration": 0.10833333333333428
        },
        {
          "name": "G#2",
          "midi": 44,
          "time": 121.25000000000145,
          "velocity": 0.8346456692913385,
          "duration": 0.0833333333333286
        },
        {
          "name": "B3",
          "midi": 59,
          "time": 121.50000000000146,
          "velocity": 0.8346456692913385,
          "duration": 0.0833333333333286
        },
        {
          "name": "G#2",
          "midi": 44,
          "time": 121.50000000000146,
          "velocity": 0.8346456692913385,
          "duration": 0.0833333333333286
        },
        {
          "name": "C2",
          "midi": 36,
          "time": 121.50000000000146,
          "velocity": 0.8346456692913385,
          "duration": 0.11666666666666003
        },
        {
          "name": "G#2",
          "midi": 44,
          "time": 121.75000000000146,
          "velocity": 0.8346456692913385,
          "duration": 0.0833333333333286
        },
        {
          "name": "F#3",
          "midi": 54,
          "time": 121.75000000000146,
          "velocity": 0.5039370078740157,
          "duration": 0.10833333333333428
        },
        {
          "name": "C2",
          "midi": 36,
          "time": 121.75000000000146,
          "velocity": 0.8346456692913385,
          "duration": 0.11666666666667425
        },
        {
          "name": "G#2",
          "midi": 44,
          "time": 122.00000000000148,
          "velocity": 0.8346456692913385,
          "duration": 0.0833333333333286
        },
        {
          "name": "B3",
          "midi": 59,
          "time": 122.00000000000148,
          "velocity": 0.8346456692913385,
          "duration": 0.0833333333333286
        },
        {
          "name": "C2",
          "midi": 36,
          "time": 122.00000000000148,
          "velocity": 0.8346456692913385,
          "duration": 0.11666666666666003
        },
        {
          "name": "G#2",
          "midi": 44,
          "time": 122.25000000000148,
          "velocity": 0.8346456692913385,
          "duration": 0.0833333333333286
        },
        {
          "name": "F#3",
          "midi": 54,
          "time": 122.25000000000148,
          "velocity": 0.5039370078740157,
          "duration": 0.10833333333333428
        },
        {
          "name": "G#2",
          "midi": 44,
          "time": 122.50000000000148,
          "velocity": 0.8346456692913385,
          "duration": 0.0833333333333286
        },
        {
          "name": "E2",
          "midi": 40,
          "time": 122.50000000000148,
          "velocity": 0.5039370078740157,
          "duration": 0.10833333333333428
        },
        {
          "name": "C2",
          "midi": 36,
          "time": 122.50000000000148,
          "velocity": 0.8346456692913385,
          "duration": 0.11666666666667425
        },
        {
          "name": "C#2",
          "midi": 37,
          "time": 122.50000000000148,
          "velocity": 0.5039370078740157,
          "duration": 0.10833333333333428
        },
        {
          "name": "B3",
          "midi": 59,
          "time": 122.50000000000148,
          "velocity": 0.8346456692913385,
          "duration": 0.0833333333333286
        },
        {
          "name": "F#3",
          "midi": 54,
          "time": 122.75000000000149,
          "velocity": 0.5039370078740157,
          "duration": 0.10833333333333428
        },
        {
          "name": "G#2",
          "midi": 44,
          "time": 122.75000000000149,
          "velocity": 0.8346456692913385,
          "duration": 0.0833333333333286
        },
        {
          "name": "C2",
          "midi": 36,
          "time": 122.75000000000149,
          "velocity": 0.8346456692913385,
          "duration": 0.11666666666667425
        },
        {
          "name": "B3",
          "midi": 59,
          "time": 123.0000000000015,
          "velocity": 0.8346456692913385,
          "duration": 0.0833333333333286
        },
        {
          "name": "C2",
          "midi": 36,
          "time": 123.0000000000015,
          "velocity": 0.8346456692913385,
          "duration": 0.11666666666666003
        },
        {
          "name": "G#2",
          "midi": 44,
          "time": 123.0000000000015,
          "velocity": 0.8346456692913385,
          "duration": 0.0833333333333286
        },
        {
          "name": "E2",
          "midi": 40,
          "time": 123.2500000000015,
          "velocity": 0.5039370078740157,
          "duration": 0.10833333333333428
        },
        {
          "name": "G#2",
          "midi": 44,
          "time": 123.2500000000015,
          "velocity": 0.8346456692913385,
          "duration": 0.0833333333333286
        },
        {
          "name": "C2",
          "midi": 36,
          "time": 123.2500000000015,
          "velocity": 0.8346456692913385,
          "duration": 0.11666666666667425
        },
        {
          "name": "F#3",
          "midi": 54,
          "time": 123.2500000000015,
          "velocity": 0.5039370078740157,
          "duration": 0.10833333333333428
        },
        {
          "name": "C#2",
          "midi": 37,
          "time": 123.2500000000015,
          "velocity": 0.5039370078740157,
          "duration": 0.10833333333333428
        },
        {
          "name": "G#2",
          "midi": 44,
          "time": 123.50000000000152,
          "velocity": 0.8346456692913385,
          "duration": 0.0833333333333286
        },
        {
          "name": "B3",
          "midi": 59,
          "time": 123.50000000000152,
          "velocity": 0.8346456692913385,
          "duration": 0.0833333333333286
        },
        {
          "name": "C2",
          "midi": 36,
          "time": 123.50000000000152,
          "velocity": 0.8346456692913385,
          "duration": 0.11666666666666003
        },
        {
          "name": "C2",
          "midi": 36,
          "time": 123.75000000000152,
          "velocity": 0.8346456692913385,
          "duration": 0.11666666666667425
        },
        {
          "name": "G#2",
          "midi": 44,
          "time": 123.75000000000152,
          "velocity": 0.8346456692913385,
          "duration": 0.0833333333333286
        },
        {
          "name": "F#3",
          "midi": 54,
          "time": 123.75000000000152,
          "velocity": 0.5039370078740157,
          "duration": 0.10833333333333428
        },
        {
          "name": "G#2",
          "midi": 44,
          "time": 124.00000000000153,
          "velocity": 0.8346456692913385,
          "duration": 0.0833333333333286
        },
        {
          "name": "C2",
          "midi": 36,
          "time": 124.00000000000153,
          "velocity": 0.8346456692913385,
          "duration": 0.11666666666666003
        },
        {
          "name": "B3",
          "midi": 59,
          "time": 124.00000000000153,
          "velocity": 0.8346456692913385,
          "duration": 0.0833333333333286
        },
        {
          "name": "G#2",
          "midi": 44,
          "time": 124.25000000000153,
          "velocity": 0.8346456692913385,
          "duration": 0.0833333333333286
        },
        {
          "name": "F#3",
          "midi": 54,
          "time": 124.25000000000153,
          "velocity": 0.5039370078740157,
          "duration": 0.10833333333333428
        },
        {
          "name": "E2",
          "midi": 40,
          "time": 124.50000000000153,
          "velocity": 0.5039370078740157,
          "duration": 0.10833333333333428
        },
        {
          "name": "G#2",
          "midi": 44,
          "time": 124.50000000000153,
          "velocity": 0.8346456692913385,
          "duration": 0.0833333333333286
        },
        {
          "name": "B3",
          "midi": 59,
          "time": 124.50000000000153,
          "velocity": 0.8346456692913385,
          "duration": 0.0833333333333286
        },
        {
          "name": "C2",
          "midi": 36,
          "time": 124.50000000000153,
          "velocity": 0.8346456692913385,
          "duration": 0.11666666666667425
        },
        {
          "name": "C#2",
          "midi": 37,
          "time": 124.50000000000153,
          "velocity": 0.5039370078740157,
          "duration": 0.10833333333333428
        },
        {
          "name": "G#2",
          "midi": 44,
          "time": 124.75000000000155,
          "velocity": 0.8346456692913385,
          "duration": 0.0833333333333286
        },
        {
          "name": "C2",
          "midi": 36,
          "time": 124.75000000000155,
          "velocity": 0.8346456692913385,
          "duration": 0.11666666666667425
        },
        {
          "name": "F#3",
          "midi": 54,
          "time": 124.75000000000155,
          "velocity": 0.5039370078740157,
          "duration": 0.10833333333333428
        },
        {
          "name": "G#2",
          "midi": 44,
          "time": 125.00000000000156,
          "velocity": 0.8346456692913385,
          "duration": 0.0833333333333286
        },
        {
          "name": "C2",
          "midi": 36,
          "time": 125.00000000000156,
          "velocity": 0.8346456692913385,
          "duration": 0.11666666666666003
        },
        {
          "name": "B3",
          "midi": 59,
          "time": 125.00000000000156,
          "velocity": 0.8346456692913385,
          "duration": 0.0833333333333286
        },
        {
          "name": "C#2",
          "midi": 37,
          "time": 125.25000000000156,
          "velocity": 0.5039370078740157,
          "duration": 0.10833333333333428
        },
        {
          "name": "E2",
          "midi": 40,
          "time": 125.25000000000156,
          "velocity": 0.5039370078740157,
          "duration": 0.10833333333333428
        },
        {
          "name": "F#3",
          "midi": 54,
          "time": 125.25000000000156,
          "velocity": 0.5039370078740157,
          "duration": 0.10833333333333428
        },
        {
          "name": "G#2",
          "midi": 44,
          "time": 125.25000000000156,
          "velocity": 0.8346456692913385,
          "duration": 0.0833333333333286
        },
        {
          "name": "C2",
          "midi": 36,
          "time": 125.25000000000156,
          "velocity": 0.8346456692913385,
          "duration": 0.11666666666667425
        },
        {
          "name": "B3",
          "midi": 59,
          "time": 125.50000000000158,
          "velocity": 0.8346456692913385,
          "duration": 0.0833333333333286
        },
        {
          "name": "G#2",
          "midi": 44,
          "time": 125.50000000000158,
          "velocity": 0.8346456692913385,
          "duration": 0.0833333333333286
        },
        {
          "name": "C2",
          "midi": 36,
          "time": 125.50000000000158,
          "velocity": 0.8346456692913385,
          "duration": 0.11666666666666003
        },
        {
          "name": "F#3",
          "midi": 54,
          "time": 125.75000000000158,
          "velocity": 0.5039370078740157,
          "duration": 0.10833333333333428
        },
        {
          "name": "G#2",
          "midi": 44,
          "time": 125.75000000000158,
          "velocity": 0.8346456692913385,
          "duration": 0.0833333333333286
        },
        {
          "name": "C2",
          "midi": 36,
          "time": 125.75000000000158,
          "velocity": 0.8346456692913385,
          "duration": 0.11666666666667425
        },
        {
          "name": "C2",
          "midi": 36,
          "time": 126.00000000000159,
          "velocity": 0.8346456692913385,
          "duration": 0.11666666666666003
        },
        {
          "name": "B3",
          "midi": 59,
          "time": 126.00000000000159,
          "velocity": 0.8346456692913385,
          "duration": 0.0833333333333286
        },
        {
          "name": "G#2",
          "midi": 44,
          "time": 126.00000000000159,
          "velocity": 0.8346456692913385,
          "duration": 0.0833333333333286
        },
        {
          "name": "G#2",
          "midi": 44,
          "time": 126.25000000000159,
          "velocity": 0.8346456692913385,
          "duration": 0.0833333333333286
        },
        {
          "name": "F#3",
          "midi": 54,
          "time": 126.25000000000159,
          "velocity": 0.5039370078740157,
          "duration": 0.10833333333333428
        },
        {
          "name": "C#2",
          "midi": 37,
          "time": 126.50000000000159,
          "velocity": 0.5039370078740157,
          "duration": 0.10833333333333428
        },
        {
          "name": "E2",
          "midi": 40,
          "time": 126.50000000000159,
          "velocity": 0.5039370078740157,
          "duration": 0.10833333333333428
        },
        {
          "name": "B3",
          "midi": 59,
          "time": 126.50000000000159,
          "velocity": 0.8346456692913385,
          "duration": 0.0833333333333286
        },
        {
          "name": "G#2",
          "midi": 44,
          "time": 126.50000000000159,
          "velocity": 0.8346456692913385,
          "duration": 0.0833333333333286
        },
        {
          "name": "C2",
          "midi": 36,
          "time": 126.50000000000159,
          "velocity": 0.8346456692913385,
          "duration": 0.11666666666667425
        },
        {
          "name": "F#3",
          "midi": 54,
          "time": 126.7500000000016,
          "velocity": 0.5039370078740157,
          "duration": 0.10833333333333428
        },
        {
          "name": "C2",
          "midi": 36,
          "time": 126.7500000000016,
          "velocity": 0.8346456692913385,
          "duration": 0.11666666666667425
        },
        {
          "name": "G#2",
          "midi": 44,
          "time": 126.7500000000016,
          "velocity": 0.8346456692913385,
          "duration": 0.0833333333333286
        },
        {
          "name": "G#2",
          "midi": 44,
          "time": 127.00000000000162,
          "velocity": 0.8346456692913385,
          "duration": 0.0833333333333286
        },
        {
          "name": "C2",
          "midi": 36,
          "time": 127.00000000000162,
          "velocity": 0.8346456692913385,
          "duration": 0.11666666666666003
        },
        {
          "name": "B3",
          "midi": 59,
          "time": 127.00000000000162,
          "velocity": 0.8346456692913385,
          "duration": 0.0833333333333286
        },
        {
          "name": "F#3",
          "midi": 54,
          "time": 127.25000000000162,
          "velocity": 0.5039370078740157,
          "duration": 0.10833333333333428
        },
        {
          "name": "G#2",
          "midi": 44,
          "time": 127.25000000000162,
          "velocity": 0.8346456692913385,
          "duration": 0.0833333333333286
        },
        {
          "name": "C2",
          "midi": 36,
          "time": 127.25000000000162,
          "velocity": 0.8346456692913385,
          "duration": 0.11666666666667425
        },
        {
          "name": "E2",
          "midi": 40,
          "time": 127.25000000000162,
          "velocity": 0.5039370078740157,
          "duration": 0.10833333333333428
        },
        {
          "name": "C#2",
          "midi": 37,
          "time": 127.25000000000162,
          "velocity": 0.5039370078740157,
          "duration": 0.10833333333333428
        },
        {
          "name": "G#2",
          "midi": 44,
          "time": 127.50000000000163,
          "velocity": 0.8346456692913385,
          "duration": 0.0833333333333286
        },
        {
          "name": "B3",
          "midi": 59,
          "time": 127.50000000000163,
          "velocity": 0.8346456692913385,
          "duration": 0.0833333333333286
        },
        {
          "name": "C2",
          "midi": 36,
          "time": 127.75000000000163,
          "velocity": 0.8346456692913385,
          "duration": 0.11666666666667425
        },
        {
          "name": "G#2",
          "midi": 44,
          "time": 127.75000000000163,
          "velocity": 0.8346456692913385,
          "duration": 0.0833333333333286
        },
        {
          "name": "F#3",
          "midi": 54,
          "time": 127.75000000000163,
          "velocity": 0.5039370078740157,
          "duration": 0.10833333333333428
        },
        {
          "name": "C2",
          "midi": 36,
          "time": 128.00000000000165,
          "velocity": 0.8346456692913385,
          "duration": 0.11666666666667425
        },
        {
          "name": "B3",
          "midi": 59,
          "time": 128.00000000000165,
          "velocity": 0.8346456692913385,
          "duration": 0.08333333333334281
        },
        {
          "name": "G#2",
          "midi": 44,
          "time": 128.00000000000165,
          "velocity": 0.8346456692913385,
          "duration": 0.08333333333334281
        },
        {
          "name": "F#3",
          "midi": 54,
          "time": 128.25000000000165,
          "velocity": 0.5039370078740157,
          "duration": 0.10833333333334849
        },
        {
          "name": "G#2",
          "midi": 44,
          "time": 128.25000000000165,
          "velocity": 0.8346456692913385,
          "duration": 0.08333333333334281
        },
        {
          "name": "B3",
          "midi": 59,
          "time": 128.50000000000168,
          "velocity": 0.8346456692913385,
          "duration": 0.08333333333334281
        },
        {
          "name": "C#2",
          "midi": 37,
          "time": 128.50000000000168,
          "velocity": 0.5039370078740157,
          "duration": 0.10833333333334849
        },
        {
          "name": "G#2",
          "midi": 44,
          "time": 128.50000000000168,
          "velocity": 0.8346456692913385,
          "duration": 0.08333333333334281
        },
        {
          "name": "C2",
          "midi": 36,
          "time": 128.50000000000168,
          "velocity": 0.8346456692913385,
          "duration": 0.11666666666667425
        },
        {
          "name": "E2",
          "midi": 40,
          "time": 128.50000000000168,
          "velocity": 0.5039370078740157,
          "duration": 0.10833333333334849
        },
        {
          "name": "F#3",
          "midi": 54,
          "time": 128.75000000000168,
          "velocity": 0.5039370078740157,
          "duration": 0.10833333333334849
        },
        {
          "name": "G#2",
          "midi": 44,
          "time": 128.75000000000168,
          "velocity": 0.8346456692913385,
          "duration": 0.08333333333334281
        },
        {
          "name": "G#2",
          "midi": 44,
          "time": 129.0000000000017,
          "velocity": 0.8346456692913385,
          "duration": 0.08333333333334281
        },
        {
          "name": "C#2",
          "midi": 37,
          "time": 129.0000000000017,
          "velocity": 0.5039370078740157,
          "duration": 0.10833333333334849
        },
        {
          "name": "E2",
          "midi": 40,
          "time": 129.0000000000017,
          "velocity": 0.5039370078740157,
          "duration": 0.10833333333334849
        },
        {
          "name": "C2",
          "midi": 36,
          "time": 129.0000000000017,
          "velocity": 0.8346456692913385,
          "duration": 0.11666666666667425
        },
        {
          "name": "B3",
          "midi": 59,
          "time": 129.0000000000017,
          "velocity": 0.8346456692913385,
          "duration": 0.08333333333334281
        },
        {
          "name": "F#3",
          "midi": 54,
          "time": 129.2500000000017,
          "velocity": 0.5039370078740157,
          "duration": 0.10833333333334849
        },
        {
          "name": "G#2",
          "midi": 44,
          "time": 129.2500000000017,
          "velocity": 0.8346456692913385,
          "duration": 0.08333333333334281
        },
        {
          "name": "B3",
          "midi": 59,
          "time": 129.50000000000173,
          "velocity": 0.8346456692913385,
          "duration": 0.08333333333334281
        },
        {
          "name": "G#2",
          "midi": 44,
          "time": 129.50000000000173,
          "velocity": 0.8346456692913385,
          "duration": 0.08333333333334281
        },
        {
          "name": "E2",
          "midi": 40,
          "time": 129.50000000000173,
          "velocity": 0.5039370078740157,
          "duration": 0.10833333333334849
        },
        {
          "name": "C#2",
          "midi": 37,
          "time": 129.50000000000173,
          "velocity": 0.5039370078740157,
          "duration": 0.10833333333334849
        },
        {
          "name": "C2",
          "midi": 36,
          "time": 129.50000000000173,
          "velocity": 0.8346456692913385,
          "duration": 0.11666666666667425
        },
        {
          "name": "F#3",
          "midi": 54,
          "time": 129.75000000000173,
          "velocity": 0.5039370078740157,
          "duration": 0.10833333333334849
        },
        {
          "name": "G#2",
          "midi": 44,
          "time": 129.75000000000173,
          "velocity": 0.8346456692913385,
          "duration": 0.08333333333334281
        },
        {
          "name": "C2",
          "midi": 36,
          "time": 130.00000000000176,
          "velocity": 0.8346456692913385,
          "duration": 0.11666666666667425
        },
        {
          "name": "G#2",
          "midi": 44,
          "time": 130.00000000000176,
          "velocity": 0.8346456692913385,
          "duration": 0.08333333333334281
        },
        {
          "name": "G3",
          "midi": 55,
          "time": 130.00000000000176,
          "velocity": 0.8346456692913385,
          "duration": 0.08333333333334281
        },
        {
          "name": "B3",
          "midi": 59,
          "time": 130.00000000000176,
          "velocity": 0.8346456692913385,
          "duration": 0.08333333333334281
        },
        {
          "name": "F#3",
          "midi": 54,
          "time": 130.25000000000176,
          "velocity": 0.5039370078740157,
          "duration": 0.10833333333334849
        },
        {
          "name": "G#2",
          "midi": 44,
          "time": 130.25000000000176,
          "velocity": 0.8346456692913385,
          "duration": 0.08333333333334281
        },
        {
          "name": "B3",
          "midi": 59,
          "time": 130.5000000000018,
          "velocity": 0.8346456692913385,
          "duration": 0.08333333333334281
        },
        {
          "name": "C2",
          "midi": 36,
          "time": 130.5000000000018,
          "velocity": 0.8346456692913385,
          "duration": 0.11666666666667425
        },
        {
          "name": "G#2",
          "midi": 44,
          "time": 130.5000000000018,
          "velocity": 0.8346456692913385,
          "duration": 0.08333333333334281
        },
        {
          "name": "C2",
          "midi": 36,
          "time": 130.7500000000018,
          "velocity": 0.8346456692913385,
          "duration": 0.11666666666667425
        },
        {
          "name": "F#3",
          "midi": 54,
          "time": 130.7500000000018,
          "velocity": 0.5039370078740157,
          "duration": 0.10833333333334849
        },
        {
          "name": "G#2",
          "midi": 44,
          "time": 130.7500000000018,
          "velocity": 0.8346456692913385,
          "duration": 0.08333333333334281
        },
        {
          "name": "E2",
          "midi": 40,
          "time": 131.0000000000018,
          "velocity": 0.5039370078740157,
          "duration": 0.10833333333334849
        },
        {
          "name": "C#2",
          "midi": 37,
          "time": 131.0000000000018,
          "velocity": 0.5039370078740157,
          "duration": 0.10833333333334849
        },
        {
          "name": "G#2",
          "midi": 44,
          "time": 131.0000000000018,
          "velocity": 0.8346456692913385,
          "duration": 0.08333333333334281
        },
        {
          "name": "C2",
          "midi": 36,
          "time": 131.0000000000018,
          "velocity": 0.8346456692913385,
          "duration": 0.11666666666667425
        },
        {
          "name": "B3",
          "midi": 59,
          "time": 131.0000000000018,
          "velocity": 0.8346456692913385,
          "duration": 0.08333333333334281
        },
        {
          "name": "C2",
          "midi": 36,
          "time": 131.2500000000018,
          "velocity": 0.8346456692913385,
          "duration": 0.11666666666667425
        },
        {
          "name": "F#3",
          "midi": 54,
          "time": 131.2500000000018,
          "velocity": 0.5039370078740157,
          "duration": 0.10833333333334849
        },
        {
          "name": "G#2",
          "midi": 44,
          "time": 131.2500000000018,
          "velocity": 0.8346456692913385,
          "duration": 0.08333333333334281
        },
        {
          "name": "G#2",
          "midi": 44,
          "time": 131.5000000000018,
          "velocity": 0.8346456692913385,
          "duration": 0.08333333333334281
        },
        {
          "name": "B3",
          "midi": 59,
          "time": 131.5000000000018,
          "velocity": 0.8346456692913385,
          "duration": 0.08333333333334281
        },
        {
          "name": "F#3",
          "midi": 54,
          "time": 131.7500000000018,
          "velocity": 0.5039370078740157,
          "duration": 0.10833333333334849
        },
        {
          "name": "C2",
          "midi": 36,
          "time": 131.7500000000018,
          "velocity": 0.8346456692913385,
          "duration": 0.11666666666667425
        },
        {
          "name": "G#2",
          "midi": 44,
          "time": 131.7500000000018,
          "velocity": 0.8346456692913385,
          "duration": 0.08333333333334281
        },
        {
          "name": "B3",
          "midi": 59,
          "time": 132.0000000000018,
          "velocity": 0.8346456692913385,
          "duration": 0.08333333333334281
        },
        {
          "name": "C2",
          "midi": 36,
          "time": 132.0000000000018,
          "velocity": 0.8346456692913385,
          "duration": 0.11666666666667425
        },
        {
          "name": "G#2",
          "midi": 44,
          "time": 132.0000000000018,
          "velocity": 0.8346456692913385,
          "duration": 0.08333333333334281
        },
        {
          "name": "G#2",
          "midi": 44,
          "time": 132.2500000000018,
          "velocity": 0.8346456692913385,
          "duration": 0.08333333333334281
        },
        {
          "name": "F#3",
          "midi": 54,
          "time": 132.2500000000018,
          "velocity": 0.5039370078740157,
          "duration": 0.10833333333334849
        },
        {
          "name": "C2",
          "midi": 36,
          "time": 132.50000000000182,
          "velocity": 0.8346456692913385,
          "duration": 0.11666666666667425
        },
        {
          "name": "G#2",
          "midi": 44,
          "time": 132.50000000000182,
          "velocity": 0.8346456692913385,
          "duration": 0.08333333333334281
        },
        {
          "name": "B3",
          "midi": 59,
          "time": 132.50000000000182,
          "velocity": 0.8346456692913385,
          "duration": 0.08333333333334281
        },
        {
          "name": "C2",
          "midi": 36,
          "time": 132.75000000000182,
          "velocity": 0.8346456692913385,
          "duration": 0.11666666666667425
        },
        {
          "name": "F#3",
          "midi": 54,
          "time": 132.75000000000182,
          "velocity": 0.5039370078740157,
          "duration": 0.10833333333334849
        },
        {
          "name": "G#2",
          "midi": 44,
          "time": 132.75000000000182,
          "velocity": 0.8346456692913385,
          "duration": 0.08333333333334281
        },
        {
          "name": "G#2",
          "midi": 44,
          "time": 133.00000000000182,
          "velocity": 0.8346456692913385,
          "duration": 0.08333333333334281
        },
        {
          "name": "B3",
          "midi": 59,
          "time": 133.00000000000182,
          "velocity": 0.8346456692913385,
          "duration": 0.08333333333334281
        },
        {
          "name": "C2",
          "midi": 36,
          "time": 133.00000000000182,
          "velocity": 0.8346456692913385,
          "duration": 0.11666666666667425
        },
        {
          "name": "E2",
          "midi": 40,
          "time": 133.00000000000182,
          "velocity": 0.5039370078740157,
          "duration": 0.10833333333334849
        },
        {
          "name": "C#2",
          "midi": 37,
          "time": 133.00000000000182,
          "velocity": 0.5039370078740157,
          "duration": 0.10833333333334849
        },
        {
          "name": "F#3",
          "midi": 54,
          "time": 133.25000000000182,
          "velocity": 0.5039370078740157,
          "duration": 0.10833333333334849
        },
        {
          "name": "G#2",
          "midi": 44,
          "time": 133.25000000000182,
          "velocity": 0.8346456692913385,
          "duration": 0.08333333333334281
        },
        {
          "name": "C2",
          "midi": 36,
          "time": 133.25000000000182,
          "velocity": 0.8346456692913385,
          "duration": 0.11666666666667425
        },
        {
          "name": "G#2",
          "midi": 44,
          "time": 133.50000000000182,
          "velocity": 0.8346456692913385,
          "duration": 0.08333333333334281
        },
        {
          "name": "B3",
          "midi": 59,
          "time": 133.50000000000182,
          "velocity": 0.8346456692913385,
          "duration": 0.08333333333334281
        },
        {
          "name": "F#3",
          "midi": 54,
          "time": 133.75000000000182,
          "velocity": 0.5039370078740157,
          "duration": 0.10833333333334849
        },
        {
          "name": "C2",
          "midi": 36,
          "time": 133.75000000000182,
          "velocity": 0.8346456692913385,
          "duration": 0.11666666666667425
        },
        {
          "name": "G#2",
          "midi": 44,
          "time": 133.75000000000182,
          "velocity": 0.8346456692913385,
          "duration": 0.08333333333334281
        },
        {
          "name": "B3",
          "midi": 59,
          "time": 134.00000000000182,
          "velocity": 0.8346456692913385,
          "duration": 0.08333333333334281
        },
        {
          "name": "G#2",
          "midi": 44,
          "time": 134.00000000000182,
          "velocity": 0.8346456692913385,
          "duration": 0.08333333333334281
        },
        {
          "name": "C2",
          "midi": 36,
          "time": 134.00000000000182,
          "velocity": 0.8346456692913385,
          "duration": 0.11666666666667425
        },
        {
          "name": "F#3",
          "midi": 54,
          "time": 134.25000000000182,
          "velocity": 0.5039370078740157,
          "duration": 0.10833333333334849
        },
        {
          "name": "G#2",
          "midi": 44,
          "time": 134.25000000000182,
          "velocity": 0.8346456692913385,
          "duration": 0.08333333333334281
        },
        {
          "name": "B3",
          "midi": 59,
          "time": 134.50000000000185,
          "velocity": 0.8346456692913385,
          "duration": 0.08333333333334281
        },
        {
          "name": "G#2",
          "midi": 44,
          "time": 134.50000000000185,
          "velocity": 0.8346456692913385,
          "duration": 0.08333333333334281
        },
        {
          "name": "C2",
          "midi": 36,
          "time": 134.50000000000185,
          "velocity": 0.8346456692913385,
          "duration": 0.11666666666667425
        },
        {
          "name": "F#3",
          "midi": 54,
          "time": 134.75000000000185,
          "velocity": 0.5039370078740157,
          "duration": 0.10833333333334849
        },
        {
          "name": "C2",
          "midi": 36,
          "time": 134.75000000000185,
          "velocity": 0.8346456692913385,
          "duration": 0.11666666666667425
        },
        {
          "name": "G#2",
          "midi": 44,
          "time": 134.75000000000185,
          "velocity": 0.8346456692913385,
          "duration": 0.08333333333334281
        },
        {
          "name": "B3",
          "midi": 59,
          "time": 135.00000000000185,
          "velocity": 0.8346456692913385,
          "duration": 0.08333333333334281
        },
        {
          "name": "G#2",
          "midi": 44,
          "time": 135.00000000000185,
          "velocity": 0.8346456692913385,
          "duration": 0.08333333333334281
        },
        {
          "name": "C#2",
          "midi": 37,
          "time": 135.00000000000185,
          "velocity": 0.5039370078740157,
          "duration": 0.10833333333334849
        },
        {
          "name": "E2",
          "midi": 40,
          "time": 135.00000000000185,
          "velocity": 0.5039370078740157,
          "duration": 0.10833333333334849
        },
        {
          "name": "C2",
          "midi": 36,
          "time": 135.00000000000185,
          "velocity": 0.8346456692913385,
          "duration": 0.11666666666667425
        },
        {
          "name": "F#3",
          "midi": 54,
          "time": 135.25000000000185,
          "velocity": 0.5039370078740157,
          "duration": 0.10833333333334849
        },
        {
          "name": "G#2",
          "midi": 44,
          "time": 135.25000000000185,
          "velocity": 0.8346456692913385,
          "duration": 0.08333333333334281
        },
        {
          "name": "C2",
          "midi": 36,
          "time": 135.25000000000185,
          "velocity": 0.8346456692913385,
          "duration": 0.11666666666667425
        },
        {
          "name": "G#2",
          "midi": 44,
          "time": 135.50000000000185,
          "velocity": 0.8346456692913385,
          "duration": 0.08333333333334281
        },
        {
          "name": "B3",
          "midi": 59,
          "time": 135.50000000000185,
          "velocity": 0.8346456692913385,
          "duration": 0.08333333333334281
        },
        {
          "name": "F#3",
          "midi": 54,
          "time": 135.75000000000185,
          "velocity": 0.5039370078740157,
          "duration": 0.10833333333334849
        },
        {
          "name": "C2",
          "midi": 36,
          "time": 135.75000000000185,
          "velocity": 0.8346456692913385,
          "duration": 0.11666666666667425
        },
        {
          "name": "G#2",
          "midi": 44,
          "time": 135.75000000000185,
          "velocity": 0.8346456692913385,
          "duration": 0.08333333333334281
        },
        {
          "name": "G#2",
          "midi": 44,
          "time": 136.00000000000185,
          "velocity": 0.8346456692913385,
          "duration": 0.08333333333334281
        },
        {
          "name": "B3",
          "midi": 59,
          "time": 136.00000000000185,
          "velocity": 0.8346456692913385,
          "duration": 0.08333333333334281
        },
        {
          "name": "C2",
          "midi": 36,
          "time": 136.00000000000185,
          "velocity": 0.8346456692913385,
          "duration": 0.11666666666667425
        },
        {
          "name": "F#3",
          "midi": 54,
          "time": 136.25000000000185,
          "velocity": 0.5039370078740157,
          "duration": 0.10833333333334849
        },
        {
          "name": "G#2",
          "midi": 44,
          "time": 136.25000000000185,
          "velocity": 0.8346456692913385,
          "duration": 0.08333333333334281
        },
        {
          "name": "B3",
          "midi": 59,
          "time": 136.50000000000188,
          "velocity": 0.8346456692913385,
          "duration": 0.08333333333334281
        },
        {
          "name": "C2",
          "midi": 36,
          "time": 136.50000000000188,
          "velocity": 0.8346456692913385,
          "duration": 0.11666666666667425
        },
        {
          "name": "G#2",
          "midi": 44,
          "time": 136.50000000000188,
          "velocity": 0.8346456692913385,
          "duration": 0.08333333333334281
        },
        {
          "name": "F#3",
          "midi": 54,
          "time": 136.75000000000188,
          "velocity": 0.5039370078740157,
          "duration": 0.10833333333334849
        },
        {
          "name": "C2",
          "midi": 36,
          "time": 136.75000000000188,
          "velocity": 0.8346456692913385,
          "duration": 0.11666666666667425
        },
        {
          "name": "G#2",
          "midi": 44,
          "time": 136.75000000000188,
          "velocity": 0.8346456692913385,
          "duration": 0.08333333333334281
        },
        {
          "name": "E2",
          "midi": 40,
          "time": 137.00000000000188,
          "velocity": 0.5039370078740157,
          "duration": 0.10833333333334849
        },
        {
          "name": "B3",
          "midi": 59,
          "time": 137.00000000000188,
          "velocity": 0.8346456692913385,
          "duration": 0.08333333333334281
        },
        {
          "name": "G#2",
          "midi": 44,
          "time": 137.00000000000188,
          "velocity": 0.8346456692913385,
          "duration": 0.08333333333334281
        },
        {
          "name": "C#2",
          "midi": 37,
          "time": 137.00000000000188,
          "velocity": 0.5039370078740157,
          "duration": 0.10833333333334849
        },
        {
          "name": "C2",
          "midi": 36,
          "time": 137.00000000000188,
          "velocity": 0.8346456692913385,
          "duration": 0.11666666666667425
        },
        {
          "name": "G#2",
          "midi": 44,
          "time": 137.25000000000188,
          "velocity": 0.8346456692913385,
          "duration": 0.08333333333334281
        },
        {
          "name": "C2",
          "midi": 36,
          "time": 137.25000000000188,
          "velocity": 0.8346456692913385,
          "duration": 0.11666666666667425
        },
        {
          "name": "F#3",
          "midi": 54,
          "time": 137.25000000000188,
          "velocity": 0.5039370078740157,
          "duration": 0.10833333333334849
        },
        {
          "name": "B3",
          "midi": 59,
          "time": 137.50000000000188,
          "velocity": 0.8346456692913385,
          "duration": 0.08333333333334281
        },
        {
          "name": "G#2",
          "midi": 44,
          "time": 137.50000000000188,
          "velocity": 0.8346456692913385,
          "duration": 0.08333333333334281
        },
        {
          "name": "C2",
          "midi": 36,
          "time": 137.75000000000188,
          "velocity": 0.8346456692913385,
          "duration": 0.11666666666667425
        },
        {
          "name": "F#3",
          "midi": 54,
          "time": 137.75000000000188,
          "velocity": 0.5039370078740157,
          "duration": 0.10833333333334849
        },
        {
          "name": "G#2",
          "midi": 44,
          "time": 137.75000000000188,
          "velocity": 0.8346456692913385,
          "duration": 0.08333333333334281
        },
        {
          "name": "C2",
          "midi": 36,
          "time": 138.00000000000188,
          "velocity": 0.8346456692913385,
          "duration": 0.11666666666670267
        },
        {
          "name": "G3",
          "midi": 55,
          "time": 138.00000000000188,
          "velocity": 0.8346456692913385,
          "duration": 0.10000000000002274
        },
        {
          "name": "G#2",
          "midi": 44,
          "time": 138.00000000000188,
          "velocity": 0.8346456692913385,
          "duration": 0.08333333333334281
        },
        {
          "name": "B3",
          "midi": 59,
          "time": 138.00000000000188,
          "velocity": 0.8346456692913385,
          "duration": 0.08333333333334281
        },
        {
          "name": "F#3",
          "midi": 54,
          "time": 138.2500000000019,
          "velocity": 0.5039370078740157,
          "duration": 0.10833333333334849
        },
        {
          "name": "G#2",
          "midi": 44,
          "time": 138.2500000000019,
          "velocity": 0.8346456692913385,
          "duration": 0.08333333333334281
        },
        {
          "name": "G#2",
          "midi": 44,
          "time": 138.50000000000193,
          "velocity": 0.8346456692913385,
          "duration": 0.08333333333334281
        },
        {
          "name": "B3",
          "midi": 59,
          "time": 138.50000000000193,
          "velocity": 0.8346456692913385,
          "duration": 0.08333333333334281
        },
        {
          "name": "C2",
          "midi": 36,
          "time": 138.50000000000193,
          "velocity": 0.8346456692913385,
          "duration": 0.11666666666667425
        },
        {
          "name": "C2",
          "midi": 36,
          "time": 138.75000000000193,
          "velocity": 0.8346456692913385,
          "duration": 0.11666666666667425
        },
        {
          "name": "G#2",
          "midi": 44,
          "time": 138.75000000000193,
          "velocity": 0.8346456692913385,
          "duration": 0.08333333333334281
        },
        {
          "name": "F#3",
          "midi": 54,
          "time": 138.75000000000193,
          "velocity": 0.5039370078740157,
          "duration": 0.10833333333334849
        },
        {
          "name": "E2",
          "midi": 40,
          "time": 139.00000000000193,
          "velocity": 0.5039370078740157,
          "duration": 0.10833333333334849
        },
        {
          "name": "C2",
          "midi": 36,
          "time": 139.00000000000193,
          "velocity": 0.8346456692913385,
          "duration": 0.11666666666667425
        },
        {
          "name": "C#2",
          "midi": 37,
          "time": 139.00000000000193,
          "velocity": 0.5039370078740157,
          "duration": 0.10833333333334849
        },
        {
          "name": "B3",
          "midi": 59,
          "time": 139.00000000000193,
          "velocity": 0.8346456692913385,
          "duration": 0.08333333333334281
        },
        {
          "name": "G#2",
          "midi": 44,
          "time": 139.00000000000193,
          "velocity": 0.8346456692913385,
          "duration": 0.08333333333334281
        },
        {
          "name": "F#3",
          "midi": 54,
          "time": 139.25000000000193,
          "velocity": 0.5039370078740157,
          "duration": 0.10833333333334849
        },
        {
          "name": "G#2",
          "midi": 44,
          "time": 139.25000000000193,
          "velocity": 0.8346456692913385,
          "duration": 0.08333333333334281
        },
        {
          "name": "C2",
          "midi": 36,
          "time": 139.25000000000193,
          "velocity": 0.8346456692913385,
          "duration": 0.11666666666667425
        },
        {
          "name": "B3",
          "midi": 59,
          "time": 139.50000000000193,
          "velocity": 0.8346456692913385,
          "duration": 0.08333333333334281
        },
        {
          "name": "G#2",
          "midi": 44,
          "time": 139.50000000000193,
          "velocity": 0.8346456692913385,
          "duration": 0.08333333333334281
        },
        {
          "name": "F#3",
          "midi": 54,
          "time": 139.75000000000193,
          "velocity": 0.5039370078740157,
          "duration": 0.10833333333334849
        },
        {
          "name": "C2",
          "midi": 36,
          "time": 139.75000000000193,
          "velocity": 0.8346456692913385,
          "duration": 0.11666666666667425
        },
        {
          "name": "G#2",
          "midi": 44,
          "time": 139.75000000000193,
          "velocity": 0.8346456692913385,
          "duration": 0.08333333333334281
        },
        {
          "name": "B3",
          "midi": 59,
          "time": 140.00000000000193,
          "velocity": 0.8346456692913385,
          "duration": 0.08333333333334281
        },
        {
          "name": "G#2",
          "midi": 44,
          "time": 140.00000000000193,
          "velocity": 0.8346456692913385,
          "duration": 0.08333333333334281
        },
        {
          "name": "C2",
          "midi": 36,
          "time": 140.00000000000193,
          "velocity": 0.8346456692913385,
          "duration": 0.11666666666667425
        },
        {
          "name": "F#3",
          "midi": 54,
          "time": 140.25000000000193,
          "velocity": 0.5039370078740157,
          "duration": 0.10833333333334849
        },
        {
          "name": "G#2",
          "midi": 44,
          "time": 140.25000000000193,
          "velocity": 0.8346456692913385,
          "duration": 0.08333333333334281
        },
        {
          "name": "B3",
          "midi": 59,
          "time": 140.50000000000196,
          "velocity": 0.8346456692913385,
          "duration": 0.08333333333334281
        },
        {
          "name": "C2",
          "midi": 36,
          "time": 140.50000000000196,
          "velocity": 0.8346456692913385,
          "duration": 0.11666666666667425
        },
        {
          "name": "G#2",
          "midi": 44,
          "time": 140.50000000000196,
          "velocity": 0.8346456692913385,
          "duration": 0.08333333333334281
        },
        {
          "name": "C2",
          "midi": 36,
          "time": 140.75000000000196,
          "velocity": 0.8346456692913385,
          "duration": 0.11666666666667425
        },
        {
          "name": "G#2",
          "midi": 44,
          "time": 140.75000000000196,
          "velocity": 0.8346456692913385,
          "duration": 0.08333333333334281
        },
        {
          "name": "F#3",
          "midi": 54,
          "time": 140.75000000000196,
          "velocity": 0.5039370078740157,
          "duration": 0.10833333333334849
        },
        {
          "name": "E2",
          "midi": 40,
          "time": 141.00000000000196,
          "velocity": 0.5039370078740157,
          "duration": 0.10833333333334849
        },
        {
          "name": "B3",
          "midi": 59,
          "time": 141.00000000000196,
          "velocity": 0.8346456692913385,
          "duration": 0.08333333333334281
        },
        {
          "name": "G#2",
          "midi": 44,
          "time": 141.00000000000196,
          "velocity": 0.8346456692913385,
          "duration": 0.08333333333334281
        },
        {
          "name": "C#2",
          "midi": 37,
          "time": 141.00000000000196,
          "velocity": 0.5039370078740157,
          "duration": 0.10833333333334849
        },
        {
          "name": "C2",
          "midi": 36,
          "time": 141.00000000000196,
          "velocity": 0.8346456692913385,
          "duration": 0.11666666666667425
        },
        {
          "name": "F#3",
          "midi": 54,
          "time": 141.25000000000196,
          "velocity": 0.5039370078740157,
          "duration": 0.10833333333334849
        },
        {
          "name": "G#2",
          "midi": 44,
          "time": 141.25000000000196,
          "velocity": 0.8346456692913385,
          "duration": 0.08333333333334281
        },
        {
          "name": "C2",
          "midi": 36,
          "time": 141.25000000000196,
          "velocity": 0.8346456692913385,
          "duration": 0.11666666666667425
        },
        {
          "name": "B3",
          "midi": 59,
          "time": 141.50000000000196,
          "velocity": 0.8346456692913385,
          "duration": 0.08333333333334281
        },
        {
          "name": "G#2",
          "midi": 44,
          "time": 141.50000000000196,
          "velocity": 0.8346456692913385,
          "duration": 0.08333333333334281
        },
        {
          "name": "F#3",
          "midi": 54,
          "time": 141.75000000000196,
          "velocity": 0.5039370078740157,
          "duration": 0.10833333333334849
        },
        {
          "name": "G#2",
          "midi": 44,
          "time": 141.75000000000196,
          "velocity": 0.8346456692913385,
          "duration": 0.08333333333334281
        },
        {
          "name": "C2",
          "midi": 36,
          "time": 141.75000000000196,
          "velocity": 0.8346456692913385,
          "duration": 0.11666666666667425
        },
        {
          "name": "C2",
          "midi": 36,
          "time": 142.00000000000196,
          "velocity": 0.8346456692913385,
          "duration": 0.11666666666667425
        },
        {
          "name": "G#2",
          "midi": 44,
          "time": 142.00000000000196,
          "velocity": 0.8346456692913385,
          "duration": 0.08333333333334281
        },
        {
          "name": "B3",
          "midi": 59,
          "time": 142.00000000000196,
          "velocity": 0.8346456692913385,
          "duration": 0.08333333333334281
        },
        {
          "name": "F#3",
          "midi": 54,
          "time": 142.25000000000196,
          "velocity": 0.5039370078740157,
          "duration": 0.10833333333334849
        },
        {
          "name": "G#2",
          "midi": 44,
          "time": 142.25000000000196,
          "velocity": 0.8346456692913385,
          "duration": 0.08333333333334281
        },
        {
          "name": "C2",
          "midi": 36,
          "time": 142.500000000002,
          "velocity": 0.8346456692913385,
          "duration": 0.11666666666667425
        },
        {
          "name": "G#2",
          "midi": 44,
          "time": 142.500000000002,
          "velocity": 0.8346456692913385,
          "duration": 0.08333333333334281
        },
        {
          "name": "B3",
          "midi": 59,
          "time": 142.500000000002,
          "velocity": 0.8346456692913385,
          "duration": 0.08333333333334281
        },
        {
          "name": "G#2",
          "midi": 44,
          "time": 142.750000000002,
          "velocity": 0.8346456692913385,
          "duration": 0.08333333333334281
        },
        {
          "name": "F#3",
          "midi": 54,
          "time": 142.750000000002,
          "velocity": 0.5039370078740157,
          "duration": 0.10833333333334849
        },
        {
          "name": "C2",
          "midi": 36,
          "time": 142.750000000002,
          "velocity": 0.8346456692913385,
          "duration": 0.11666666666667425
        },
        {
          "name": "G#2",
          "midi": 44,
          "time": 143.000000000002,
          "velocity": 0.8346456692913385,
          "duration": 0.08333333333334281
        },
        {
          "name": "B3",
          "midi": 59,
          "time": 143.000000000002,
          "velocity": 0.8346456692913385,
          "duration": 0.08333333333334281
        },
        {
          "name": "C2",
          "midi": 36,
          "time": 143.000000000002,
          "velocity": 0.8346456692913385,
          "duration": 0.11666666666667425
        },
        {
          "name": "E2",
          "midi": 40,
          "time": 143.000000000002,
          "velocity": 0.5039370078740157,
          "duration": 0.10833333333334849
        },
        {
          "name": "C#2",
          "midi": 37,
          "time": 143.000000000002,
          "velocity": 0.5039370078740157,
          "duration": 0.10833333333334849
        },
        {
          "name": "C2",
          "midi": 36,
          "time": 143.250000000002,
          "velocity": 0.8346456692913385,
          "duration": 0.11666666666667425
        },
        {
          "name": "G#2",
          "midi": 44,
          "time": 143.250000000002,
          "velocity": 0.8346456692913385,
          "duration": 0.08333333333334281
        },
        {
          "name": "F#3",
          "midi": 54,
          "time": 143.250000000002,
          "velocity": 0.5039370078740157,
          "duration": 0.10833333333334849
        },
        {
          "name": "B3",
          "midi": 59,
          "time": 143.500000000002,
          "velocity": 0.8346456692913385,
          "duration": 0.08333333333334281
        },
        {
          "name": "G#2",
          "midi": 44,
          "time": 143.500000000002,
          "velocity": 0.8346456692913385,
          "duration": 0.08333333333334281
        },
        {
          "name": "C2",
          "midi": 36,
          "time": 143.750000000002,
          "velocity": 0.8346456692913385,
          "duration": 0.11666666666667425
        },
        {
          "name": "F#3",
          "midi": 54,
          "time": 143.750000000002,
          "velocity": 0.5039370078740157,
          "duration": 0.10833333333334849
        },
        {
          "name": "G#2",
          "midi": 44,
          "time": 143.750000000002,
          "velocity": 0.8346456692913385,
          "duration": 0.08333333333334281
        },
        {
          "name": "B3",
          "midi": 59,
          "time": 144.000000000002,
          "velocity": 0.8346456692913385,
          "duration": 0.08333333333334281
        },
        {
          "name": "G#2",
          "midi": 44,
          "time": 144.000000000002,
          "velocity": 0.8346456692913385,
          "duration": 0.08333333333334281
        },
        {
          "name": "C2",
          "midi": 36,
          "time": 144.000000000002,
          "velocity": 0.8346456692913385,
          "duration": 0.11666666666667425
        },
        {
          "name": "F#3",
          "midi": 54,
          "time": 144.250000000002,
          "velocity": 0.5039370078740157,
          "duration": 0.10833333333334849
        },
        {
          "name": "G#2",
          "midi": 44,
          "time": 144.250000000002,
          "velocity": 0.8346456692913385,
          "duration": 0.08333333333334281
        },
        {
          "name": "B3",
          "midi": 59,
          "time": 144.50000000000202,
          "velocity": 0.8346456692913385,
          "duration": 0.08333333333334281
        },
        {
          "name": "C2",
          "midi": 36,
          "time": 144.50000000000202,
          "velocity": 0.8346456692913385,
          "duration": 0.11666666666667425
        },
        {
          "name": "G#2",
          "midi": 44,
          "time": 144.50000000000202,
          "velocity": 0.8346456692913385,
          "duration": 0.08333333333334281
        },
        {
          "name": "G#2",
          "midi": 44,
          "time": 144.75000000000202,
          "velocity": 0.8346456692913385,
          "duration": 0.08333333333334281
        },
        {
          "name": "F#3",
          "midi": 54,
          "time": 144.75000000000202,
          "velocity": 0.5039370078740157,
          "duration": 0.10833333333334849
        },
        {
          "name": "C2",
          "midi": 36,
          "time": 144.75000000000202,
          "velocity": 0.8346456692913385,
          "duration": 0.11666666666667425
        },
        {
          "name": "B3",
          "midi": 59,
          "time": 145.00000000000202,
          "velocity": 0.8346456692913385,
          "duration": 0.08333333333334281
        },
        {
          "name": "G#2",
          "midi": 44,
          "time": 145.00000000000202,
          "velocity": 0.8346456692913385,
          "duration": 0.08333333333334281
        },
        {
          "name": "E2",
          "midi": 40,
          "time": 145.00000000000202,
          "velocity": 0.5039370078740157,
          "duration": 0.10833333333334849
        },
        {
          "name": "C2",
          "midi": 36,
          "time": 145.00000000000202,
          "velocity": 0.8346456692913385,
          "duration": 0.11666666666667425
        },
        {
          "name": "C#2",
          "midi": 37,
          "time": 145.00000000000202,
          "velocity": 0.5039370078740157,
          "duration": 0.10833333333334849
        },
        {
          "name": "C2",
          "midi": 36,
          "time": 145.25000000000202,
          "velocity": 0.8346456692913385,
          "duration": 0.11666666666667425
        },
        {
          "name": "F#3",
          "midi": 54,
          "time": 145.25000000000202,
          "velocity": 0.5039370078740157,
          "duration": 0.10833333333334849
        },
        {
          "name": "G#2",
          "midi": 44,
          "time": 145.25000000000202,
          "velocity": 0.8346456692913385,
          "duration": 0.08333333333334281
        },
        {
          "name": "B3",
          "midi": 59,
          "time": 145.50000000000202,
          "velocity": 0.8346456692913385,
          "duration": 0.08333333333334281
        },
        {
          "name": "G#2",
          "midi": 44,
          "time": 145.50000000000202,
          "velocity": 0.8346456692913385,
          "duration": 0.08333333333334281
        },
        {
          "name": "F#3",
          "midi": 54,
          "time": 145.75000000000202,
          "velocity": 0.5039370078740157,
          "duration": 0.10833333333334849
        },
        {
          "name": "G#2",
          "midi": 44,
          "time": 145.75000000000202,
          "velocity": 0.8346456692913385,
          "duration": 0.08333333333334281
        },
        {
          "name": "C2",
          "midi": 36,
          "time": 145.75000000000202,
          "velocity": 0.8346456692913385,
          "duration": 0.11666666666667425
        },
        {
          "name": "C2",
          "midi": 36,
          "time": 146.00000000000202,
          "velocity": 0.8346456692913385,
          "duration": 0.11666666666667425
        },
        {
          "name": "G#2",
          "midi": 44,
          "time": 146.00000000000202,
          "velocity": 0.8346456692913385,
          "duration": 0.08333333333334281
        },
        {
          "name": "B3",
          "midi": 59,
          "time": 146.00000000000202,
          "velocity": 0.8346456692913385,
          "duration": 0.08333333333334281
        },
        {
          "name": "F#3",
          "midi": 54,
          "time": 146.25000000000202,
          "velocity": 0.5039370078740157,
          "duration": 0.10833333333334849
        },
        {
          "name": "G#2",
          "midi": 44,
          "time": 146.25000000000202,
          "velocity": 0.8346456692913385,
          "duration": 0.08333333333334281
        },
        {
          "name": "C2",
          "midi": 36,
          "time": 146.50000000000205,
          "velocity": 0.8346456692913385,
          "duration": 0.11666666666667425
        },
        {
          "name": "B3",
          "midi": 59,
          "time": 146.50000000000205,
          "velocity": 0.8346456692913385,
          "duration": 0.08333333333334281
        },
        {
          "name": "G#2",
          "midi": 44,
          "time": 146.50000000000205,
          "velocity": 0.8346456692913385,
          "duration": 0.08333333333334281
        },
        {
          "name": "C2",
          "midi": 36,
          "time": 146.75000000000205,
          "velocity": 0.8346456692913385,
          "duration": 0.11666666666667425
        },
        {
          "name": "G#2",
          "midi": 44,
          "time": 146.75000000000205,
          "velocity": 0.8346456692913385,
          "duration": 0.08333333333334281
        },
        {
          "name": "F#3",
          "midi": 54,
          "time": 146.75000000000205,
          "velocity": 0.5039370078740157,
          "duration": 0.10833333333334849
        },
        {
          "name": "E2",
          "midi": 40,
          "time": 147.00000000000205,
          "velocity": 0.5039370078740157,
          "duration": 0.10833333333334849
        },
        {
          "name": "B3",
          "midi": 59,
          "time": 147.00000000000205,
          "velocity": 0.8346456692913385,
          "duration": 0.08333333333334281
        },
        {
          "name": "G#2",
          "midi": 44,
          "time": 147.00000000000205,
          "velocity": 0.8346456692913385,
          "duration": 0.08333333333334281
        },
        {
          "name": "C#2",
          "midi": 37,
          "time": 147.00000000000205,
          "velocity": 0.5039370078740157,
          "duration": 0.10833333333334849
        },
        {
          "name": "C2",
          "midi": 36,
          "time": 147.00000000000205,
          "velocity": 0.8346456692913385,
          "duration": 0.11666666666667425
        },
        {
          "name": "G#2",
          "midi": 44,
          "time": 147.25000000000205,
          "velocity": 0.8346456692913385,
          "duration": 0.08333333333334281
        },
        {
          "name": "C2",
          "midi": 36,
          "time": 147.25000000000205,
          "velocity": 0.8346456692913385,
          "duration": 0.11666666666667425
        },
        {
          "name": "F#3",
          "midi": 54,
          "time": 147.25000000000205,
          "velocity": 0.5039370078740157,
          "duration": 0.10833333333334849
        },
        {
          "name": "B3",
          "midi": 59,
          "time": 147.50000000000205,
          "velocity": 0.8346456692913385,
          "duration": 0.08333333333334281
        },
        {
          "name": "G#2",
          "midi": 44,
          "time": 147.50000000000205,
          "velocity": 0.8346456692913385,
          "duration": 0.08333333333334281
        },
        {
          "name": "C#2",
          "midi": 37,
          "time": 147.50000000000205,
          "velocity": 0.5039370078740157,
          "duration": 0.10833333333334849
        },
        {
          "name": "E2",
          "midi": 40,
          "time": 147.50000000000205,
          "velocity": 0.5039370078740157,
          "duration": 0.10833333333334849
        },
        {
          "name": "G#2",
          "midi": 44,
          "time": 147.75000000000207,
          "velocity": 0.8346456692913385,
          "duration": 0.08333333333334281
        },
        {
          "name": "F#3",
          "midi": 54,
          "time": 147.75000000000207,
          "velocity": 0.5039370078740157,
          "duration": 0.10833333333334849
        },
        {
          "name": "C2",
          "midi": 36,
          "time": 147.75000000000207,
          "velocity": 0.8346456692913385,
          "duration": 0.11666666666667425
        },
        {
          "name": "G3",
          "midi": 55,
          "time": 148.00000000000207,
          "velocity": 0.8346456692913385,
          "duration": 0.1666666666666572
        },
        {
          "name": "A#2",
          "midi": 46,
          "time": 156.00000000000207,
          "velocity": 0.7322834645669292,
          "duration": 0.16666666666668561
        },
        {
          "name": "C2",
          "midi": 36,
          "time": 156.00000000000207,
          "velocity": 0.5118110236220472,
          "duration": 0.11666666666667425
        },
        {
          "name": "C2",
          "midi": 36,
          "time": 156.2500000000021,
          "velocity": 0.5039370078740157,
          "duration": 0.11666666666667425
        },
        {
          "name": "G#2",
          "midi": 44,
          "time": 156.2500000000021,
          "velocity": 0.5118110236220472,
          "duration": 0.08333333333334281
        },
        {
          "name": "F#3",
          "midi": 54,
          "time": 156.2500000000021,
          "velocity": 0.5118110236220472,
          "duration": 0.10833333333334849
        },
        {
          "name": "G#2",
          "midi": 44,
          "time": 156.5000000000021,
          "velocity": 0.5118110236220472,
          "duration": 0.08333333333334281
        },
        {
          "name": "C2",
          "midi": 36,
          "time": 156.5000000000021,
          "velocity": 0.5118110236220472,
          "duration": 0.11666666666667425
        },
        {
          "name": "C#2",
          "midi": 37,
          "time": 156.5000000000021,
          "velocity": 0.5118110236220472,
          "duration": 0.11666666666667425
        },
        {
          "name": "E2",
          "midi": 40,
          "time": 156.5000000000021,
          "velocity": 0.5118110236220472,
          "duration": 0.10833333333334849
        },
        {
          "name": "G#2",
          "midi": 44,
          "time": 156.7500000000021,
          "velocity": 0.5118110236220472,
          "duration": 0.08333333333334281
        },
        {
          "name": "C2",
          "midi": 36,
          "time": 156.7500000000021,
          "velocity": 0.5118110236220472,
          "duration": 0.11666666666667425
        },
        {
          "name": "F#3",
          "midi": 54,
          "time": 156.7500000000021,
          "velocity": 0.5118110236220472,
          "duration": 0.10833333333334849
        },
        {
          "name": "C2",
          "midi": 36,
          "time": 157.0000000000021,
          "velocity": 0.5039370078740157,
          "duration": 0.11666666666667425
        },
        {
          "name": "G#2",
          "midi": 44,
          "time": 157.0000000000021,
          "velocity": 0.5039370078740157,
          "duration": 0.08333333333334281
        },
        {
          "name": "F#3",
          "midi": 54,
          "time": 157.2500000000021,
          "velocity": 0.5039370078740157,
          "duration": 0.10833333333334849
        },
        {
          "name": "C#2",
          "midi": 37,
          "time": 157.2500000000021,
          "velocity": 0.5118110236220472,
          "duration": 0.11666666666667425
        },
        {
          "name": "C2",
          "midi": 36,
          "time": 157.2500000000021,
          "velocity": 0.5039370078740157,
          "duration": 0.11666666666667425
        },
        {
          "name": "E2",
          "midi": 40,
          "time": 157.2500000000021,
          "velocity": 0.5039370078740157,
          "duration": 0.10833333333334849
        },
        {
          "name": "G#2",
          "midi": 44,
          "time": 157.2500000000021,
          "velocity": 0.5118110236220472,
          "duration": 0.08333333333334281
        },
        {
          "name": "C2",
          "midi": 36,
          "time": 157.5000000000021,
          "velocity": 0.5039370078740157,
          "duration": 0.11666666666667425
        },
        {
          "name": "G#2",
          "midi": 44,
          "time": 157.5000000000021,
          "velocity": 0.5039370078740157,
          "duration": 0.08333333333334281
        },
        {
          "name": "G#2",
          "midi": 44,
          "time": 157.7500000000021,
          "velocity": 0.5118110236220472,
          "duration": 0.08333333333334281
        },
        {
          "name": "C2",
          "midi": 36,
          "time": 157.7500000000021,
          "velocity": 0.5039370078740157,
          "duration": 0.11666666666667425
        },
        {
          "name": "F#3",
          "midi": 54,
          "time": 157.7500000000021,
          "velocity": 0.5039370078740157,
          "duration": 0.10833333333334849
        },
        {
          "name": "G#2",
          "midi": 44,
          "time": 158.0000000000021,
          "velocity": 0.5039370078740157,
          "duration": 0.08333333333334281
        },
        {
          "name": "C2",
          "midi": 36,
          "time": 158.0000000000021,
          "velocity": 0.5039370078740157,
          "duration": 0.11666666666667425
        },
        {
          "name": "G#2",
          "midi": 44,
          "time": 158.2500000000021,
          "velocity": 0.5118110236220472,
          "duration": 0.08333333333334281
        },
        {
          "name": "C2",
          "midi": 36,
          "time": 158.2500000000021,
          "velocity": 0.5039370078740157,
          "duration": 0.11666666666667425
        },
        {
          "name": "F#3",
          "midi": 54,
          "time": 158.2500000000021,
          "velocity": 0.5118110236220472,
          "duration": 0.10833333333334849
        },
        {
          "name": "G#2",
          "midi": 44,
          "time": 158.5000000000021,
          "velocity": 0.5118110236220472,
          "duration": 0.08333333333334281
        },
        {
          "name": "E2",
          "midi": 40,
          "time": 158.5000000000021,
          "velocity": 0.5118110236220472,
          "duration": 0.10833333333334849
        },
        {
          "name": "C2",
          "midi": 36,
          "time": 158.5000000000021,
          "velocity": 0.5118110236220472,
          "duration": 0.11666666666667425
        },
        {
          "name": "C#2",
          "midi": 37,
          "time": 158.5000000000021,
          "velocity": 0.5118110236220472,
          "duration": 0.11666666666667425
        },
        {
          "name": "C2",
          "midi": 36,
          "time": 158.7500000000021,
          "velocity": 0.5118110236220472,
          "duration": 0.11666666666667425
        },
        {
          "name": "F#3",
          "midi": 54,
          "time": 158.7500000000021,
          "velocity": 0.5118110236220472,
          "duration": 0.10833333333334849
        },
        {
          "name": "G#2",
          "midi": 44,
          "time": 158.7500000000021,
          "velocity": 0.5118110236220472,
          "duration": 0.08333333333334281
        },
        {
          "name": "C2",
          "midi": 36,
          "time": 159.0000000000021,
          "velocity": 0.5118110236220472,
          "duration": 0.11666666666667425
        },
        {
          "name": "G#2",
          "midi": 44,
          "time": 159.0000000000021,
          "velocity": 0.5118110236220472,
          "duration": 0.08333333333334281
        },
        {
          "name": "G#2",
          "midi": 44,
          "time": 159.2500000000021,
          "velocity": 0.5118110236220472,
          "duration": 0.08333333333334281
        },
        {
          "name": "F#3",
          "midi": 54,
          "time": 159.2500000000021,
          "velocity": 0.5039370078740157,
          "duration": 0.10833333333334849
        },
        {
          "name": "E2",
          "midi": 40,
          "time": 159.2500000000021,
          "velocity": 0.5039370078740157,
          "duration": 0.10833333333334849
        },
        {
          "name": "C#2",
          "midi": 37,
          "time": 159.2500000000021,
          "velocity": 0.5118110236220472,
          "duration": 0.11666666666667425
        },
        {
          "name": "C2",
          "midi": 36,
          "time": 159.2500000000021,
          "velocity": 0.5039370078740157,
          "duration": 0.11666666666667425
        },
        {
          "name": "C2",
          "midi": 36,
          "time": 159.5000000000021,
          "velocity": 0.5039370078740157,
          "duration": 0.11666666666667425
        },
        {
          "name": "G#2",
          "midi": 44,
          "time": 159.5000000000021,
          "velocity": 0.5118110236220472,
          "duration": 0.08333333333334281
        },
        {
          "name": "C2",
          "midi": 36,
          "time": 159.7500000000021,
          "velocity": 0.5039370078740157,
          "duration": 0.11666666666667425
        },
        {
          "name": "G#2",
          "midi": 44,
          "time": 159.7500000000021,
          "velocity": 0.5118110236220472,
          "duration": 0.08333333333334281
        },
        {
          "name": "F#3",
          "midi": 54,
          "time": 159.7500000000021,
          "velocity": 0.5039370078740157,
          "duration": 0.10833333333334849
        },
        {
          "name": "C2",
          "midi": 36,
          "time": 160.0000000000021,
          "velocity": 0.5118110236220472,
          "duration": 0.11666666666667425
        },
        {
          "name": "A#2",
          "midi": 46,
          "time": 160.0000000000021,
          "velocity": 0.7322834645669292,
          "duration": 0.16666666666668561
        },
        {
          "name": "C2",
          "midi": 36,
          "time": 160.25000000000213,
          "velocity": 0.5118110236220472,
          "duration": 0.11666666666667425
        },
        {
          "name": "F#3",
          "midi": 54,
          "time": 160.25000000000213,
          "velocity": 0.5118110236220472,
          "duration": 0.10833333333334849
        },
        {
          "name": "G#2",
          "midi": 44,
          "time": 160.25000000000213,
          "velocity": 0.5118110236220472,
          "duration": 0.08333333333334281
        },
        {
          "name": "C2",
          "midi": 36,
          "time": 160.50000000000213,
          "velocity": 0.5118110236220472,
          "duration": 0.11666666666667425
        },
        {
          "name": "C#2",
          "midi": 37,
          "time": 160.50000000000213,
          "velocity": 0.5118110236220472,
          "duration": 0.11666666666667425
        },
        {
          "name": "G#2",
          "midi": 44,
          "time": 160.50000000000213,
          "velocity": 0.5118110236220472,
          "duration": 0.08333333333334281
        },
        {
          "name": "E2",
          "midi": 40,
          "time": 160.50000000000213,
          "velocity": 0.5118110236220472,
          "duration": 0.10833333333334849
        },
        {
          "name": "F#3",
          "midi": 54,
          "time": 160.75000000000213,
          "velocity": 0.5118110236220472,
          "duration": 0.10833333333334849
        },
        {
          "name": "G#2",
          "midi": 44,
          "time": 160.75000000000213,
          "velocity": 0.5118110236220472,
          "duration": 0.08333333333334281
        },
        {
          "name": "C2",
          "midi": 36,
          "time": 160.75000000000213,
          "velocity": 0.5118110236220472,
          "duration": 0.11666666666667425
        },
        {
          "name": "C2",
          "midi": 36,
          "time": 161.00000000000213,
          "velocity": 0.5039370078740157,
          "duration": 0.11666666666667425
        },
        {
          "name": "G#2",
          "midi": 44,
          "time": 161.00000000000213,
          "velocity": 0.5039370078740157,
          "duration": 0.08333333333334281
        },
        {
          "name": "F#3",
          "midi": 54,
          "time": 161.25000000000213,
          "velocity": 0.5039370078740157,
          "duration": 0.10833333333334849
        },
        {
          "name": "C2",
          "midi": 36,
          "time": 161.25000000000213,
          "velocity": 0.5039370078740157,
          "duration": 0.11666666666667425
        },
        {
          "name": "E2",
          "midi": 40,
          "time": 161.25000000000213,
          "velocity": 0.5039370078740157,
          "duration": 0.10833333333334849
        },
        {
          "name": "G#2",
          "midi": 44,
          "time": 161.25000000000213,
          "velocity": 0.5039370078740157,
          "duration": 0.08333333333334281
        },
        {
          "name": "C#2",
          "midi": 37,
          "time": 161.25000000000213,
          "velocity": 0.5039370078740157,
          "duration": 0.11666666666667425
        },
        {
          "name": "G#2",
          "midi": 44,
          "time": 161.50000000000213,
          "velocity": 0.5039370078740157,
          "duration": 0.08333333333334281
        },
        {
          "name": "C2",
          "midi": 36,
          "time": 161.50000000000213,
          "velocity": 0.5039370078740157,
          "duration": 0.11666666666667425
        },
        {
          "name": "G#2",
          "midi": 44,
          "time": 161.75000000000213,
          "velocity": 0.5039370078740157,
          "duration": 0.08333333333334281
        },
        {
          "name": "C2",
          "midi": 36,
          "time": 161.75000000000213,
          "velocity": 0.5039370078740157,
          "duration": 0.11666666666667425
        },
        {
          "name": "F#3",
          "midi": 54,
          "time": 161.75000000000213,
          "velocity": 0.5039370078740157,
          "duration": 0.10833333333334849
        },
        {
          "name": "C2",
          "midi": 36,
          "time": 162.00000000000213,
          "velocity": 0.5118110236220472,
          "duration": 0.11666666666667425
        },
        {
          "name": "C2",
          "midi": 36,
          "time": 162.25000000000213,
          "velocity": 0.5826771653543307,
          "duration": 0.11666666666667425
        },
        {
          "name": "C2",
          "midi": 36,
          "time": 162.50000000000213,
          "velocity": 0.6220472440944882,
          "duration": 0.11666666666667425
        },
        {
          "name": "C2",
          "midi": 36,
          "time": 162.75000000000213,
          "velocity": 0.6456692913385826,
          "duration": 0.11666666666667425
        },
        {
          "name": "C2",
          "midi": 36,
          "time": 163.00000000000213,
          "velocity": 0.6850393700787402,
          "duration": 0.11666666666667425
        },
        {
          "name": "C2",
          "midi": 36,
          "time": 163.25000000000213,
          "velocity": 0.7244094488188977,
          "duration": 0.11666666666667425
        },
        {
          "name": "C2",
          "midi": 36,
          "time": 163.50000000000213,
          "velocity": 0.7480314960629921,
          "duration": 0.11666666666667425
        },
        {
          "name": "C2",
          "midi": 36,
          "time": 163.75000000000213,
          "velocity": 0.7795275590551181,
          "duration": 0.11666666666667425
        },
        {
          "name": "C2",
          "midi": 36,
          "time": 164.00000000000213,
          "velocity": 0.8346456692913385,
          "duration": 0.11666666666667425
        },
        {
          "name": "C2",
          "midi": 36,
          "time": 164.25000000000213,
          "velocity": 0.8976377952755905,
          "duration": 0.11666666666667425
        },
        {
          "name": "C2",
          "midi": 36,
          "time": 164.50000000000213,
          "velocity": 0.9448818897637795,
          "duration": 0.11666666666667425
        },
        {
          "name": "C2",
          "midi": 36,
          "time": 164.75000000000213,
          "velocity": 0.968503937007874,
          "duration": 0.11666666666667425
        },
        {
          "name": "C2",
          "midi": 36,
          "time": 165.00000000000213,
          "velocity": 0.9921259842519685,
          "duration": 0.11666666666667425
        },
        {
          "name": "C2",
          "midi": 36,
          "time": 165.25000000000213,
          "velocity": 0.9921259842519685,
          "duration": 0.11666666666667425
        },
        {
          "name": "E2",
          "midi": 40,
          "time": 165.50000000000213,
          "velocity": 0.5905511811023622,
          "duration": 0.11666666666667425
        },
        {
          "name": "D2",
          "midi": 38,
          "time": 165.50000000000213,
          "velocity": 0.5905511811023622,
          "duration": 0.11666666666667425
        },
        {
          "name": "C2",
          "midi": 36,
          "time": 165.50000000000213,
          "velocity": 0.5905511811023622,
          "duration": 0.11666666666667425
        },
        {
          "name": "C2",
          "midi": 36,
          "time": 166.00000000000213,
          "velocity": 0.8346456692913385,
          "duration": 0.11666666666670267
        },
        {
          "name": "G3",
          "midi": 55,
          "time": 166.00000000000213,
          "velocity": 0.8346456692913385,
          "duration": 0.10000000000002274
        },
        {
          "name": "B3",
          "midi": 59,
          "time": 166.00000000000213,
          "velocity": 0.8346456692913385,
          "duration": 0.08333333333334281
        },
        {
          "name": "G#2",
          "midi": 44,
          "time": 166.00000000000213,
          "velocity": 0.8346456692913385,
          "duration": 0.08333333333334281
        },
        {
          "name": "G#2",
          "midi": 44,
          "time": 166.25000000000216,
          "velocity": 0.8346456692913385,
          "duration": 0.08333333333334281
        },
        {
          "name": "F#3",
          "midi": 54,
          "time": 166.25000000000216,
          "velocity": 0.5039370078740157,
          "duration": 0.10833333333334849
        },
        {
          "name": "E2",
          "midi": 40,
          "time": 166.5000000000022,
          "velocity": 0.5039370078740157,
          "duration": 0.10833333333334849
        },
        {
          "name": "G#2",
          "midi": 44,
          "time": 166.5000000000022,
          "velocity": 0.8346456692913385,
          "duration": 0.08333333333334281
        },
        {
          "name": "C2",
          "midi": 36,
          "time": 166.5000000000022,
          "velocity": 0.8346456692913385,
          "duration": 0.11666666666667425
        },
        {
          "name": "C#2",
          "midi": 37,
          "time": 166.5000000000022,
          "velocity": 0.5039370078740157,
          "duration": 0.10833333333334849
        },
        {
          "name": "B3",
          "midi": 59,
          "time": 166.5000000000022,
          "velocity": 0.8346456692913385,
          "duration": 0.08333333333334281
        },
        {
          "name": "G#2",
          "midi": 44,
          "time": 166.7500000000022,
          "velocity": 0.8346456692913385,
          "duration": 0.08333333333334281
        },
        {
          "name": "C2",
          "midi": 36,
          "time": 166.7500000000022,
          "velocity": 0.8346456692913385,
          "duration": 0.11666666666667425
        },
        {
          "name": "F#3",
          "midi": 54,
          "time": 166.7500000000022,
          "velocity": 0.5039370078740157,
          "duration": 0.10833333333334849
        },
        {
          "name": "G#2",
          "midi": 44,
          "time": 167.0000000000022,
          "velocity": 0.8346456692913385,
          "duration": 0.08333333333334281
        },
        {
          "name": "B3",
          "midi": 59,
          "time": 167.0000000000022,
          "velocity": 0.8346456692913385,
          "duration": 0.08333333333334281
        },
        {
          "name": "C2",
          "midi": 36,
          "time": 167.0000000000022,
          "velocity": 0.8346456692913385,
          "duration": 0.11666666666667425
        },
        {
          "name": "C#2",
          "midi": 37,
          "time": 167.2500000000022,
          "velocity": 0.5039370078740157,
          "duration": 0.10833333333334849
        },
        {
          "name": "G#2",
          "midi": 44,
          "time": 167.2500000000022,
          "velocity": 0.8346456692913385,
          "duration": 0.08333333333334281
        },
        {
          "name": "C2",
          "midi": 36,
          "time": 167.2500000000022,
          "velocity": 0.8346456692913385,
          "duration": 0.11666666666667425
        },
        {
          "name": "E2",
          "midi": 40,
          "time": 167.2500000000022,
          "velocity": 0.5039370078740157,
          "duration": 0.10833333333334849
        },
        {
          "name": "F#3",
          "midi": 54,
          "time": 167.2500000000022,
          "velocity": 0.5039370078740157,
          "duration": 0.10833333333334849
        },
        {
          "name": "G#2",
          "midi": 44,
          "time": 167.5000000000022,
          "velocity": 0.8346456692913385,
          "duration": 0.08333333333334281
        },
        {
          "name": "C2",
          "midi": 36,
          "time": 167.5000000000022,
          "velocity": 0.8346456692913385,
          "duration": 0.11666666666667425
        },
        {
          "name": "B3",
          "midi": 59,
          "time": 167.5000000000022,
          "velocity": 0.8346456692913385,
          "duration": 0.08333333333334281
        },
        {
          "name": "F#3",
          "midi": 54,
          "time": 167.7500000000022,
          "velocity": 0.5039370078740157,
          "duration": 0.10833333333334849
        },
        {
          "name": "C2",
          "midi": 36,
          "time": 167.7500000000022,
          "velocity": 0.8346456692913385,
          "duration": 0.11666666666667425
        },
        {
          "name": "G#2",
          "midi": 44,
          "time": 167.7500000000022,
          "velocity": 0.8346456692913385,
          "duration": 0.08333333333334281
        },
        {
          "name": "B3",
          "midi": 59,
          "time": 168.0000000000022,
          "velocity": 0.8346456692913385,
          "duration": 0.08333333333334281
        },
        {
          "name": "C2",
          "midi": 36,
          "time": 168.0000000000022,
          "velocity": 0.8346456692913385,
          "duration": 0.11666666666667425
        },
        {
          "name": "G#2",
          "midi": 44,
          "time": 168.0000000000022,
          "velocity": 0.8346456692913385,
          "duration": 0.08333333333334281
        },
        {
          "name": "G#2",
          "midi": 44,
          "time": 168.2500000000022,
          "velocity": 0.8346456692913385,
          "duration": 0.08333333333334281
        },
        {
          "name": "F#3",
          "midi": 54,
          "time": 168.2500000000022,
          "velocity": 0.5039370078740157,
          "duration": 0.10833333333334849
        },
        {
          "name": "B3",
          "midi": 59,
          "time": 168.50000000000222,
          "velocity": 0.8346456692913385,
          "duration": 0.08333333333334281
        },
        {
          "name": "C2",
          "midi": 36,
          "time": 168.50000000000222,
          "velocity": 0.8346456692913385,
          "duration": 0.11666666666667425
        },
        {
          "name": "G#2",
          "midi": 44,
          "time": 168.50000000000222,
          "velocity": 0.8346456692913385,
          "duration": 0.08333333333334281
        },
        {
          "name": "C#2",
          "midi": 37,
          "time": 168.50000000000222,
          "velocity": 0.5039370078740157,
          "duration": 0.10833333333334849
        },
        {
          "name": "E2",
          "midi": 40,
          "time": 168.50000000000222,
          "velocity": 0.5039370078740157,
          "duration": 0.10833333333334849
        },
        {
          "name": "F#3",
          "midi": 54,
          "time": 168.75000000000222,
          "velocity": 0.5039370078740157,
          "duration": 0.10833333333334849
        },
        {
          "name": "G#2",
          "midi": 44,
          "time": 168.75000000000222,
          "velocity": 0.8346456692913385,
          "duration": 0.08333333333334281
        },
        {
          "name": "C2",
          "midi": 36,
          "time": 168.75000000000222,
          "velocity": 0.8346456692913385,
          "duration": 0.11666666666667425
        },
        {
          "name": "G#2",
          "midi": 44,
          "time": 169.00000000000222,
          "velocity": 0.8346456692913385,
          "duration": 0.08333333333334281
        },
        {
          "name": "C2",
          "midi": 36,
          "time": 169.00000000000222,
          "velocity": 0.8346456692913385,
          "duration": 0.11666666666667425
        },
        {
          "name": "B3",
          "midi": 59,
          "time": 169.00000000000222,
          "velocity": 0.8346456692913385,
          "duration": 0.08333333333334281
        },
        {
          "name": "C2",
          "midi": 36,
          "time": 169.25000000000222,
          "velocity": 0.8346456692913385,
          "duration": 0.11666666666667425
        },
        {
          "name": "G#2",
          "midi": 44,
          "time": 169.25000000000222,
          "velocity": 0.8346456692913385,
          "duration": 0.08333333333334281
        },
        {
          "name": "F#3",
          "midi": 54,
          "time": 169.25000000000222,
          "velocity": 0.5039370078740157,
          "duration": 0.10833333333334849
        },
        {
          "name": "E2",
          "midi": 40,
          "time": 169.25000000000222,
          "velocity": 0.5039370078740157,
          "duration": 0.10833333333334849
        },
        {
          "name": "C#2",
          "midi": 37,
          "time": 169.25000000000222,
          "velocity": 0.5039370078740157,
          "duration": 0.10833333333334849
        },
        {
          "name": "C2",
          "midi": 36,
          "time": 169.50000000000222,
          "velocity": 0.8346456692913385,
          "duration": 0.11666666666667425
        },
        {
          "name": "G#2",
          "midi": 44,
          "time": 169.50000000000222,
          "velocity": 0.8346456692913385,
          "duration": 0.08333333333334281
        },
        {
          "name": "B3",
          "midi": 59,
          "time": 169.50000000000222,
          "velocity": 0.8346456692913385,
          "duration": 0.08333333333334281
        },
        {
          "name": "C2",
          "midi": 36,
          "time": 169.75000000000222,
          "velocity": 0.8346456692913385,
          "duration": 0.11666666666667425
        },
        {
          "name": "G#2",
          "midi": 44,
          "time": 169.75000000000222,
          "velocity": 0.8346456692913385,
          "duration": 0.08333333333334281
        },
        {
          "name": "F#3",
          "midi": 54,
          "time": 169.75000000000222,
          "velocity": 0.5039370078740157,
          "duration": 0.10833333333334849
        },
        {
          "name": "G#2",
          "midi": 44,
          "time": 170.00000000000222,
          "velocity": 0.8346456692913385,
          "duration": 0.08333333333334281
        },
        {
          "name": "C2",
          "midi": 36,
          "time": 170.00000000000222,
          "velocity": 0.8346456692913385,
          "duration": 0.11666666666667425
        },
        {
          "name": "B3",
          "midi": 59,
          "time": 170.00000000000222,
          "velocity": 0.8346456692913385,
          "duration": 0.08333333333334281
        },
        {
          "name": "G#2",
          "midi": 44,
          "time": 170.25000000000222,
          "velocity": 0.8346456692913385,
          "duration": 0.08333333333334281
        },
        {
          "name": "F#3",
          "midi": 54,
          "time": 170.25000000000222,
          "velocity": 0.5039370078740157,
          "duration": 0.10833333333334849
        },
        {
          "name": "C#2",
          "midi": 37,
          "time": 170.50000000000225,
          "velocity": 0.5039370078740157,
          "duration": 0.10833333333334849
        },
        {
          "name": "B3",
          "midi": 59,
          "time": 170.50000000000225,
          "velocity": 0.8346456692913385,
          "duration": 0.08333333333334281
        },
        {
          "name": "E2",
          "midi": 40,
          "time": 170.50000000000225,
          "velocity": 0.5039370078740157,
          "duration": 0.10833333333334849
        },
        {
          "name": "G#2",
          "midi": 44,
          "time": 170.50000000000225,
          "velocity": 0.8346456692913385,
          "duration": 0.08333333333334281
        },
        {
          "name": "C2",
          "midi": 36,
          "time": 170.50000000000225,
          "velocity": 0.8346456692913385,
          "duration": 0.11666666666667425
        },
        {
          "name": "C2",
          "midi": 36,
          "time": 170.75000000000225,
          "velocity": 0.8346456692913385,
          "duration": 0.11666666666667425
        },
        {
          "name": "G#2",
          "midi": 44,
          "time": 170.75000000000225,
          "velocity": 0.8346456692913385,
          "duration": 0.08333333333334281
        },
        {
          "name": "F#3",
          "midi": 54,
          "time": 170.75000000000225,
          "velocity": 0.5039370078740157,
          "duration": 0.10833333333334849
        },
        {
          "name": "C2",
          "midi": 36,
          "time": 171.00000000000225,
          "velocity": 0.8346456692913385,
          "duration": 0.11666666666667425
        },
        {
          "name": "B3",
          "midi": 59,
          "time": 171.00000000000225,
          "velocity": 0.8346456692913385,
          "duration": 0.08333333333334281
        },
        {
          "name": "G#2",
          "midi": 44,
          "time": 171.00000000000225,
          "velocity": 0.8346456692913385,
          "duration": 0.08333333333334281
        },
        {
          "name": "C#2",
          "midi": 37,
          "time": 171.25000000000225,
          "velocity": 0.5039370078740157,
          "duration": 0.10833333333334849
        },
        {
          "name": "C2",
          "midi": 36,
          "time": 171.25000000000225,
          "velocity": 0.8346456692913385,
          "duration": 0.11666666666667425
        },
        {
          "name": "G#2",
          "midi": 44,
          "time": 171.25000000000225,
          "velocity": 0.8346456692913385,
          "duration": 0.08333333333334281
        },
        {
          "name": "E2",
          "midi": 40,
          "time": 171.25000000000225,
          "velocity": 0.5039370078740157,
          "duration": 0.10833333333334849
        },
        {
          "name": "F#3",
          "midi": 54,
          "time": 171.25000000000225,
          "velocity": 0.5039370078740157,
          "duration": 0.10833333333334849
        },
        {
          "name": "G#2",
          "midi": 44,
          "time": 171.50000000000225,
          "velocity": 0.8346456692913385,
          "duration": 0.08333333333334281
        },
        {
          "name": "C2",
          "midi": 36,
          "time": 171.50000000000225,
          "velocity": 0.8346456692913385,
          "duration": 0.11666666666667425
        },
        {
          "name": "B3",
          "midi": 59,
          "time": 171.50000000000225,
          "velocity": 0.8346456692913385,
          "duration": 0.08333333333334281
        },
        {
          "name": "C2",
          "midi": 36,
          "time": 171.75000000000225,
          "velocity": 0.8346456692913385,
          "duration": 0.11666666666667425
        },
        {
          "name": "F#3",
          "midi": 54,
          "time": 171.75000000000225,
          "velocity": 0.5039370078740157,
          "duration": 0.10833333333334849
        },
        {
          "name": "G#2",
          "midi": 44,
          "time": 171.75000000000225,
          "velocity": 0.8346456692913385,
          "duration": 0.08333333333334281
        },
        {
          "name": "G#2",
          "midi": 44,
          "time": 172.00000000000225,
          "velocity": 0.8346456692913385,
          "duration": 0.08333333333334281
        },
        {
          "name": "B3",
          "midi": 59,
          "time": 172.00000000000225,
          "velocity": 0.8346456692913385,
          "duration": 0.08333333333334281
        },
        {
          "name": "C2",
          "midi": 36,
          "time": 172.00000000000225,
          "velocity": 0.8346456692913385,
          "duration": 0.11666666666667425
        },
        {
          "name": "F#3",
          "midi": 54,
          "time": 172.25000000000225,
          "velocity": 0.5039370078740157,
          "duration": 0.10833333333334849
        },
        {
          "name": "G#2",
          "midi": 44,
          "time": 172.25000000000225,
          "velocity": 0.8346456692913385,
          "duration": 0.08333333333334281
        },
        {
          "name": "B3",
          "midi": 59,
          "time": 172.50000000000227,
          "velocity": 0.8346456692913385,
          "duration": 0.08333333333334281
        },
        {
          "name": "C#2",
          "midi": 37,
          "time": 172.50000000000227,
          "velocity": 0.5039370078740157,
          "duration": 0.10833333333334849
        },
        {
          "name": "E2",
          "midi": 40,
          "time": 172.50000000000227,
          "velocity": 0.5039370078740157,
          "duration": 0.10833333333334849
        },
        {
          "name": "G#2",
          "midi": 44,
          "time": 172.50000000000227,
          "velocity": 0.8346456692913385,
          "duration": 0.08333333333334281
        },
        {
          "name": "C2",
          "midi": 36,
          "time": 172.50000000000227,
          "velocity": 0.8346456692913385,
          "duration": 0.11666666666667425
        },
        {
          "name": "G#2",
          "midi": 44,
          "time": 172.75000000000227,
          "velocity": 0.8346456692913385,
          "duration": 0.08333333333334281
        },
        {
          "name": "C2",
          "midi": 36,
          "time": 172.75000000000227,
          "velocity": 0.8346456692913385,
          "duration": 0.11666666666667425
        },
        {
          "name": "F#3",
          "midi": 54,
          "time": 172.75000000000227,
          "velocity": 0.5039370078740157,
          "duration": 0.10833333333334849
        },
        {
          "name": "G#2",
          "midi": 44,
          "time": 173.00000000000227,
          "velocity": 0.8346456692913385,
          "duration": 0.08333333333334281
        },
        {
          "name": "C2",
          "midi": 36,
          "time": 173.00000000000227,
          "velocity": 0.8346456692913385,
          "duration": 0.11666666666667425
        },
        {
          "name": "B3",
          "midi": 59,
          "time": 173.00000000000227,
          "velocity": 0.8346456692913385,
          "duration": 0.08333333333334281
        },
        {
          "name": "C2",
          "midi": 36,
          "time": 173.25000000000227,
          "velocity": 0.8346456692913385,
          "duration": 0.11666666666667425
        },
        {
          "name": "G#2",
          "midi": 44,
          "time": 173.25000000000227,
          "velocity": 0.8346456692913385,
          "duration": 0.08333333333334281
        },
        {
          "name": "F#3",
          "midi": 54,
          "time": 173.25000000000227,
          "velocity": 0.5039370078740157,
          "duration": 0.10833333333334849
        },
        {
          "name": "C#2",
          "midi": 37,
          "time": 173.25000000000227,
          "velocity": 0.5039370078740157,
          "duration": 0.10833333333334849
        },
        {
          "name": "E2",
          "midi": 40,
          "time": 173.25000000000227,
          "velocity": 0.5039370078740157,
          "duration": 0.10833333333334849
        },
        {
          "name": "G#2",
          "midi": 44,
          "time": 173.50000000000227,
          "velocity": 0.8346456692913385,
          "duration": 0.08333333333334281
        },
        {
          "name": "C2",
          "midi": 36,
          "time": 173.50000000000227,
          "velocity": 0.8346456692913385,
          "duration": 0.11666666666667425
        },
        {
          "name": "B3",
          "midi": 59,
          "time": 173.50000000000227,
          "velocity": 0.8346456692913385,
          "duration": 0.08333333333334281
        },
        {
          "name": "C2",
          "midi": 36,
          "time": 173.75000000000227,
          "velocity": 0.8346456692913385,
          "duration": 0.11666666666667425
        },
        {
          "name": "G#2",
          "midi": 44,
          "time": 173.75000000000227,
          "velocity": 0.8346456692913385,
          "duration": 0.08333333333334281
        },
        {
          "name": "F#3",
          "midi": 54,
          "time": 173.75000000000227,
          "velocity": 0.5039370078740157,
          "duration": 0.10833333333334849
        },
        {
          "name": "B3",
          "midi": 59,
          "time": 174.00000000000227,
          "velocity": 0.8346456692913385,
          "duration": 0.08333333333334281
        },
        {
          "name": "C2",
          "midi": 36,
          "time": 174.00000000000227,
          "velocity": 0.8346456692913385,
          "duration": 0.11666666666667425
        },
        {
          "name": "G3",
          "midi": 55,
          "time": 174.00000000000227,
          "velocity": 0.8346456692913385,
          "duration": 0.08333333333334281
        },
        {
          "name": "G#2",
          "midi": 44,
          "time": 174.00000000000227,
          "velocity": 0.8346456692913385,
          "duration": 0.08333333333334281
        },
        {
          "name": "F#3",
          "midi": 54,
          "time": 174.25000000000227,
          "velocity": 0.5039370078740157,
          "duration": 0.10833333333334849
        },
        {
          "name": "G#2",
          "midi": 44,
          "time": 174.25000000000227,
          "velocity": 0.8346456692913385,
          "duration": 0.08333333333334281
        },
        {
          "name": "G#2",
          "midi": 44,
          "time": 174.5000000000023,
          "velocity": 0.8346456692913385,
          "duration": 0.08333333333334281
        },
        {
          "name": "E2",
          "midi": 40,
          "time": 174.5000000000023,
          "velocity": 0.5039370078740157,
          "duration": 0.10833333333334849
        },
        {
          "name": "C#2",
          "midi": 37,
          "time": 174.5000000000023,
          "velocity": 0.5039370078740157,
          "duration": 0.10833333333334849
        },
        {
          "name": "B3",
          "midi": 59,
          "time": 174.5000000000023,
          "velocity": 0.8346456692913385,
          "duration": 0.08333333333334281
        },
        {
          "name": "C2",
          "midi": 36,
          "time": 174.5000000000023,
          "velocity": 0.8346456692913385,
          "duration": 0.11666666666667425
        },
        {
          "name": "C2",
          "midi": 36,
          "time": 174.7500000000023,
          "velocity": 0.8346456692913385,
          "duration": 0.11666666666667425
        },
        {
          "name": "G#2",
          "midi": 44,
          "time": 174.7500000000023,
          "velocity": 0.8346456692913385,
          "duration": 0.08333333333334281
        },
        {
          "name": "F#3",
          "midi": 54,
          "time": 174.7500000000023,
          "velocity": 0.5039370078740157,
          "duration": 0.10833333333334849
        },
        {
          "name": "C2",
          "midi": 36,
          "time": 175.0000000000023,
          "velocity": 0.8346456692913385,
          "duration": 0.11666666666667425
        },
        {
          "name": "B3",
          "midi": 59,
          "time": 175.0000000000023,
          "velocity": 0.8346456692913385,
          "duration": 0.08333333333334281
        },
        {
          "name": "G#2",
          "midi": 44,
          "time": 175.0000000000023,
          "velocity": 0.8346456692913385,
          "duration": 0.08333333333334281
        },
        {
          "name": "E2",
          "midi": 40,
          "time": 175.2500000000023,
          "velocity": 0.5039370078740157,
          "duration": 0.10833333333334849
        },
        {
          "name": "C2",
          "midi": 36,
          "time": 175.2500000000023,
          "velocity": 0.8346456692913385,
          "duration": 0.11666666666667425
        },
        {
          "name": "F#3",
          "midi": 54,
          "time": 175.2500000000023,
          "velocity": 0.5039370078740157,
          "duration": 0.10833333333334849
        },
        {
          "name": "C#2",
          "midi": 37,
          "time": 175.2500000000023,
          "velocity": 0.5039370078740157,
          "duration": 0.10833333333334849
        },
        {
          "name": "G#2",
          "midi": 44,
          "time": 175.2500000000023,
          "velocity": 0.8346456692913385,
          "duration": 0.08333333333334281
        },
        {
          "name": "G#2",
          "midi": 44,
          "time": 175.5000000000023,
          "velocity": 0.8346456692913385,
          "duration": 0.08333333333334281
        },
        {
          "name": "B3",
          "midi": 59,
          "time": 175.5000000000023,
          "velocity": 0.8346456692913385,
          "duration": 0.08333333333334281
        },
        {
          "name": "C2",
          "midi": 36,
          "time": 175.5000000000023,
          "velocity": 0.8346456692913385,
          "duration": 0.11666666666667425
        },
        {
          "name": "G#2",
          "midi": 44,
          "time": 175.7500000000023,
          "velocity": 0.8346456692913385,
          "duration": 0.08333333333334281
        },
        {
          "name": "F#3",
          "midi": 54,
          "time": 175.7500000000023,
          "velocity": 0.5039370078740157,
          "duration": 0.10833333333334849
        },
        {
          "name": "C2",
          "midi": 36,
          "time": 175.7500000000023,
          "velocity": 0.8346456692913385,
          "duration": 0.11666666666667425
        },
        {
          "name": "B3",
          "midi": 59,
          "time": 176.0000000000023,
          "velocity": 0.8346456692913385,
          "duration": 0.08333333333334281
        },
        {
          "name": "G#2",
          "midi": 44,
          "time": 176.0000000000023,
          "velocity": 0.8346456692913385,
          "duration": 0.08333333333334281
        },
        {
          "name": "C2",
          "midi": 36,
          "time": 176.0000000000023,
          "velocity": 0.8346456692913385,
          "duration": 0.11666666666667425
        },
        {
          "name": "F#3",
          "midi": 54,
          "time": 176.2500000000023,
          "velocity": 0.5039370078740157,
          "duration": 0.10833333333334849
        },
        {
          "name": "G#2",
          "midi": 44,
          "time": 176.2500000000023,
          "velocity": 0.8346456692913385,
          "duration": 0.08333333333334281
        },
        {
          "name": "G#2",
          "midi": 44,
          "time": 176.50000000000233,
          "velocity": 0.8346456692913385,
          "duration": 0.08333333333334281
        },
        {
          "name": "C2",
          "midi": 36,
          "time": 176.50000000000233,
          "velocity": 0.8346456692913385,
          "duration": 0.11666666666667425
        },
        {
          "name": "E2",
          "midi": 40,
          "time": 176.50000000000233,
          "velocity": 0.5039370078740157,
          "duration": 0.10833333333334849
        },
        {
          "name": "C#2",
          "midi": 37,
          "time": 176.50000000000233,
          "velocity": 0.5039370078740157,
          "duration": 0.10833333333334849
        },
        {
          "name": "B3",
          "midi": 59,
          "time": 176.50000000000233,
          "velocity": 0.8346456692913385,
          "duration": 0.08333333333334281
        },
        {
          "name": "G#2",
          "midi": 44,
          "time": 176.75000000000233,
          "velocity": 0.8346456692913385,
          "duration": 0.08333333333334281
        },
        {
          "name": "C2",
          "midi": 36,
          "time": 176.75000000000233,
          "velocity": 0.8346456692913385,
          "duration": 0.11666666666667425
        },
        {
          "name": "F#3",
          "midi": 54,
          "time": 176.75000000000233,
          "velocity": 0.5039370078740157,
          "duration": 0.10833333333334849
        },
        {
          "name": "G#2",
          "midi": 44,
          "time": 177.00000000000233,
          "velocity": 0.8346456692913385,
          "duration": 0.08333333333334281
        },
        {
          "name": "B3",
          "midi": 59,
          "time": 177.00000000000233,
          "velocity": 0.8346456692913385,
          "duration": 0.08333333333334281
        },
        {
          "name": "C2",
          "midi": 36,
          "time": 177.00000000000233,
          "velocity": 0.8346456692913385,
          "duration": 0.11666666666667425
        },
        {
          "name": "E2",
          "midi": 40,
          "time": 177.25000000000233,
          "velocity": 0.5039370078740157,
          "duration": 0.10833333333334849
        },
        {
          "name": "C#2",
          "midi": 37,
          "time": 177.25000000000233,
          "velocity": 0.5039370078740157,
          "duration": 0.10833333333334849
        },
        {
          "name": "C2",
          "midi": 36,
          "time": 177.25000000000233,
          "velocity": 0.8346456692913385,
          "duration": 0.11666666666667425
        },
        {
          "name": "F#3",
          "midi": 54,
          "time": 177.25000000000233,
          "velocity": 0.5039370078740157,
          "duration": 0.10833333333334849
        },
        {
          "name": "G#2",
          "midi": 44,
          "time": 177.25000000000233,
          "velocity": 0.8346456692913385,
          "duration": 0.08333333333334281
        },
        {
          "name": "G#2",
          "midi": 44,
          "time": 177.50000000000233,
          "velocity": 0.8346456692913385,
          "duration": 0.08333333333334281
        },
        {
          "name": "C2",
          "midi": 36,
          "time": 177.50000000000233,
          "velocity": 0.8346456692913385,
          "duration": 0.11666666666667425
        },
        {
          "name": "B3",
          "midi": 59,
          "time": 177.50000000000233,
          "velocity": 0.8346456692913385,
          "duration": 0.08333333333334281
        },
        {
          "name": "C2",
          "midi": 36,
          "time": 177.75000000000233,
          "velocity": 0.8346456692913385,
          "duration": 0.11666666666667425
        },
        {
          "name": "F#3",
          "midi": 54,
          "time": 177.75000000000233,
          "velocity": 0.5039370078740157,
          "duration": 0.10833333333334849
        },
        {
          "name": "G#2",
          "midi": 44,
          "time": 177.75000000000233,
          "velocity": 0.8346456692913385,
          "duration": 0.08333333333334281
        },
        {
          "name": "C2",
          "midi": 36,
          "time": 178.00000000000233,
          "velocity": 0.8346456692913385,
          "duration": 0.11666666666667425
        },
        {
          "name": "B3",
          "midi": 59,
          "time": 178.00000000000233,
          "velocity": 0.8346456692913385,
          "duration": 0.08333333333334281
        },
        {
          "name": "G#2",
          "midi": 44,
          "time": 178.00000000000233,
          "velocity": 0.8346456692913385,
          "duration": 0.08333333333334281
        },
        {
          "name": "F#3",
          "midi": 54,
          "time": 178.25000000000233,
          "velocity": 0.5039370078740157,
          "duration": 0.10833333333334849
        },
        {
          "name": "G#2",
          "midi": 44,
          "time": 178.25000000000233,
          "velocity": 0.8346456692913385,
          "duration": 0.08333333333334281
        },
        {
          "name": "C2",
          "midi": 36,
          "time": 178.50000000000236,
          "velocity": 0.8346456692913385,
          "duration": 0.11666666666667425
        },
        {
          "name": "C#2",
          "midi": 37,
          "time": 178.50000000000236,
          "velocity": 0.5039370078740157,
          "duration": 0.10833333333334849
        },
        {
          "name": "E2",
          "midi": 40,
          "time": 178.50000000000236,
          "velocity": 0.5039370078740157,
          "duration": 0.10833333333334849
        },
        {
          "name": "B3",
          "midi": 59,
          "time": 178.50000000000236,
          "velocity": 0.8346456692913385,
          "duration": 0.08333333333334281
        },
        {
          "name": "G#2",
          "midi": 44,
          "time": 178.50000000000236,
          "velocity": 0.8346456692913385,
          "duration": 0.08333333333334281
        },
        {
          "name": "G#2",
          "midi": 44,
          "time": 178.75000000000236,
          "velocity": 0.8346456692913385,
          "duration": 0.08333333333334281
        },
        {
          "name": "C2",
          "midi": 36,
          "time": 178.75000000000236,
          "velocity": 0.8346456692913385,
          "duration": 0.11666666666667425
        },
        {
          "name": "F#3",
          "midi": 54,
          "time": 178.75000000000236,
          "velocity": 0.5039370078740157,
          "duration": 0.10833333333334849
        },
        {
          "name": "B3",
          "midi": 59,
          "time": 179.00000000000236,
          "velocity": 0.8346456692913385,
          "duration": 0.08333333333334281
        },
        {
          "name": "G#2",
          "midi": 44,
          "time": 179.00000000000236,
          "velocity": 0.8346456692913385,
          "duration": 0.08333333333334281
        },
        {
          "name": "C2",
          "midi": 36,
          "time": 179.00000000000236,
          "velocity": 0.8346456692913385,
          "duration": 0.11666666666667425
        },
        {
          "name": "C2",
          "midi": 36,
          "time": 179.25000000000236,
          "velocity": 0.8346456692913385,
          "duration": 0.11666666666667425
        },
        {
          "name": "G#2",
          "midi": 44,
          "time": 179.25000000000236,
          "velocity": 0.8346456692913385,
          "duration": 0.08333333333334281
        },
        {
          "name": "C#2",
          "midi": 37,
          "time": 179.25000000000236,
          "velocity": 0.5039370078740157,
          "duration": 0.10833333333334849
        },
        {
          "name": "F#3",
          "midi": 54,
          "time": 179.25000000000236,
          "velocity": 0.5039370078740157,
          "duration": 0.10833333333334849
        },
        {
          "name": "E2",
          "midi": 40,
          "time": 179.25000000000236,
          "velocity": 0.5039370078740157,
          "duration": 0.10833333333334849
        },
        {
          "name": "G#2",
          "midi": 44,
          "time": 179.50000000000236,
          "velocity": 0.8346456692913385,
          "duration": 0.08333333333334281
        },
        {
          "name": "B3",
          "midi": 59,
          "time": 179.50000000000236,
          "velocity": 0.8346456692913385,
          "duration": 0.08333333333334281
        },
        {
          "name": "C2",
          "midi": 36,
          "time": 179.50000000000236,
          "velocity": 0.8346456692913385,
          "duration": 0.11666666666667425
        },
        {
          "name": "F#3",
          "midi": 54,
          "time": 179.75000000000236,
          "velocity": 0.5039370078740157,
          "duration": 0.10833333333334849
        },
        {
          "name": "C2",
          "midi": 36,
          "time": 179.75000000000236,
          "velocity": 0.8346456692913385,
          "duration": 0.11666666666667425
        },
        {
          "name": "G#2",
          "midi": 44,
          "time": 179.75000000000236,
          "velocity": 0.8346456692913385,
          "duration": 0.08333333333334281
        },
        {
          "name": "B3",
          "midi": 59,
          "time": 180.00000000000236,
          "velocity": 0.8346456692913385,
          "duration": 0.08333333333334281
        },
        {
          "name": "G#2",
          "midi": 44,
          "time": 180.00000000000236,
          "velocity": 0.8346456692913385,
          "duration": 0.08333333333334281
        },
        {
          "name": "C2",
          "midi": 36,
          "time": 180.00000000000236,
          "velocity": 0.8346456692913385,
          "duration": 0.11666666666667425
        },
        {
          "name": "G#2",
          "midi": 44,
          "time": 180.25000000000236,
          "velocity": 0.8346456692913385,
          "duration": 0.08333333333334281
        },
        {
          "name": "F#3",
          "midi": 54,
          "time": 180.25000000000236,
          "velocity": 0.5039370078740157,
          "duration": 0.10833333333334849
        },
        {
          "name": "C#2",
          "midi": 37,
          "time": 180.5000000000024,
          "velocity": 0.5039370078740157,
          "duration": 0.10833333333334849
        },
        {
          "name": "B3",
          "midi": 59,
          "time": 180.5000000000024,
          "velocity": 0.8346456692913385,
          "duration": 0.08333333333334281
        },
        {
          "name": "E2",
          "midi": 40,
          "time": 180.5000000000024,
          "velocity": 0.5039370078740157,
          "duration": 0.10833333333334849
        },
        {
          "name": "G#2",
          "midi": 44,
          "time": 180.5000000000024,
          "velocity": 0.8346456692913385,
          "duration": 0.08333333333334281
        },
        {
          "name": "C2",
          "midi": 36,
          "time": 180.5000000000024,
          "velocity": 0.8346456692913385,
          "duration": 0.11666666666667425
        },
        {
          "name": "G#2",
          "midi": 44,
          "time": 180.7500000000024,
          "velocity": 0.8346456692913385,
          "duration": 0.08333333333334281
        },
        {
          "name": "C2",
          "midi": 36,
          "time": 180.7500000000024,
          "velocity": 0.8346456692913385,
          "duration": 0.11666666666667425
        },
        {
          "name": "F#3",
          "midi": 54,
          "time": 180.7500000000024,
          "velocity": 0.5039370078740157,
          "duration": 0.10833333333334849
        },
        {
          "name": "G#2",
          "midi": 44,
          "time": 181.0000000000024,
          "velocity": 0.8346456692913385,
          "duration": 0.08333333333334281
        },
        {
          "name": "C2",
          "midi": 36,
          "time": 181.0000000000024,
          "velocity": 0.8346456692913385,
          "duration": 0.11666666666667425
        },
        {
          "name": "B3",
          "midi": 59,
          "time": 181.0000000000024,
          "velocity": 0.8346456692913385,
          "duration": 0.08333333333334281
        },
        {
          "name": "C2",
          "midi": 36,
          "time": 181.2500000000024,
          "velocity": 0.8346456692913385,
          "duration": 0.11666666666667425
        },
        {
          "name": "E2",
          "midi": 40,
          "time": 181.2500000000024,
          "velocity": 0.5039370078740157,
          "duration": 0.10833333333334849
        },
        {
          "name": "G#2",
          "midi": 44,
          "time": 181.2500000000024,
          "velocity": 0.8346456692913385,
          "duration": 0.08333333333334281
        },
        {
          "name": "F#3",
          "midi": 54,
          "time": 181.2500000000024,
          "velocity": 0.5039370078740157,
          "duration": 0.10833333333334849
        },
        {
          "name": "C#2",
          "midi": 37,
          "time": 181.2500000000024,
          "velocity": 0.5039370078740157,
          "duration": 0.10833333333334849
        },
        {
          "name": "C2",
          "midi": 36,
          "time": 181.5000000000024,
          "velocity": 0.8346456692913385,
          "duration": 0.11666666666667425
        },
        {
          "name": "B3",
          "midi": 59,
          "time": 181.5000000000024,
          "velocity": 0.8346456692913385,
          "duration": 0.08333333333334281
        },
        {
          "name": "G#2",
          "midi": 44,
          "time": 181.5000000000024,
          "velocity": 0.8346456692913385,
          "duration": 0.08333333333334281
        },
        {
          "name": "C2",
          "midi": 36,
          "time": 181.7500000000024,
          "velocity": 0.8346456692913385,
          "duration": 0.11666666666667425
        },
        {
          "name": "G#2",
          "midi": 44,
          "time": 181.7500000000024,
          "velocity": 0.8346456692913385,
          "duration": 0.08333333333334281
        },
        {
          "name": "F#3",
          "midi": 54,
          "time": 181.7500000000024,
          "velocity": 0.5039370078740157,
          "duration": 0.10833333333334849
        },
        {
          "name": "B3",
          "midi": 59,
          "time": 182.0000000000024,
          "velocity": 0.8346456692913385,
          "duration": 0.08333333333334281
        },
        {
          "name": "G3",
          "midi": 55,
          "time": 182.0000000000024,
          "velocity": 0.8346456692913385,
          "duration": 0.10000000000002274
        },
        {
          "name": "G#2",
          "midi": 44,
          "time": 182.0000000000024,
          "velocity": 0.8346456692913385,
          "duration": 0.08333333333334281
        },
        {
          "name": "C2",
          "midi": 36,
          "time": 182.0000000000024,
          "velocity": 0.8346456692913385,
          "duration": 0.11666666666670267
        },
        {
          "name": "G#2",
          "midi": 44,
          "time": 182.25000000000242,
          "velocity": 0.8346456692913385,
          "duration": 0.08333333333334281
        },
        {
          "name": "F#3",
          "midi": 54,
          "time": 182.25000000000242,
          "velocity": 0.5039370078740157,
          "duration": 0.10833333333334849
        },
        {
          "name": "C#2",
          "midi": 37,
          "time": 182.50000000000244,
          "velocity": 0.5039370078740157,
          "duration": 0.10833333333334849
        },
        {
          "name": "E2",
          "midi": 40,
          "time": 182.50000000000244,
          "velocity": 0.5039370078740157,
          "duration": 0.10833333333334849
        },
        {
          "name": "C2",
          "midi": 36,
          "time": 182.50000000000244,
          "velocity": 0.8346456692913385,
          "duration": 0.11666666666667425
        },
        {
          "name": "G#2",
          "midi": 44,
          "time": 182.50000000000244,
          "velocity": 0.8346456692913385,
          "duration": 0.08333333333334281
        },
        {
          "name": "B3",
          "midi": 59,
          "time": 182.50000000000244,
          "velocity": 0.8346456692913385,
          "duration": 0.08333333333334281
        },
        {
          "name": "F#3",
          "midi": 54,
          "time": 182.75000000000244,
          "velocity": 0.5039370078740157,
          "duration": 0.10833333333334849
        },
        {
          "name": "G#2",
          "midi": 44,
          "time": 182.75000000000244,
          "velocity": 0.8346456692913385,
          "duration": 0.08333333333334281
        },
        {
          "name": "C2",
          "midi": 36,
          "time": 182.75000000000244,
          "velocity": 0.8346456692913385,
          "duration": 0.11666666666667425
        },
        {
          "name": "B3",
          "midi": 59,
          "time": 183.00000000000244,
          "velocity": 0.8346456692913385,
          "duration": 0.08333333333334281
        },
        {
          "name": "C2",
          "midi": 36,
          "time": 183.00000000000244,
          "velocity": 0.8346456692913385,
          "duration": 0.11666666666667425
        },
        {
          "name": "G#2",
          "midi": 44,
          "time": 183.00000000000244,
          "velocity": 0.8346456692913385,
          "duration": 0.08333333333334281
        },
        {
          "name": "C2",
          "midi": 36,
          "time": 183.25000000000244,
          "velocity": 0.8346456692913385,
          "duration": 0.11666666666667425
        },
        {
          "name": "C#2",
          "midi": 37,
          "time": 183.25000000000244,
          "velocity": 0.5039370078740157,
          "duration": 0.10833333333334849
        },
        {
          "name": "F#3",
          "midi": 54,
          "time": 183.25000000000244,
          "velocity": 0.5039370078740157,
          "duration": 0.10833333333334849
        },
        {
          "name": "E2",
          "midi": 40,
          "time": 183.25000000000244,
          "velocity": 0.5039370078740157,
          "duration": 0.10833333333334849
        },
        {
          "name": "G#2",
          "midi": 44,
          "time": 183.25000000000244,
          "velocity": 0.8346456692913385,
          "duration": 0.08333333333334281
        },
        {
          "name": "C2",
          "midi": 36,
          "time": 183.50000000000244,
          "velocity": 0.8346456692913385,
          "duration": 0.11666666666667425
        },
        {
          "name": "G#2",
          "midi": 44,
          "time": 183.50000000000244,
          "velocity": 0.8346456692913385,
          "duration": 0.08333333333334281
        },
        {
          "name": "B3",
          "midi": 59,
          "time": 183.50000000000244,
          "velocity": 0.8346456692913385,
          "duration": 0.08333333333334281
        },
        {
          "name": "G#2",
          "midi": 44,
          "time": 183.75000000000244,
          "velocity": 0.8346456692913385,
          "duration": 0.08333333333334281
        },
        {
          "name": "F#3",
          "midi": 54,
          "time": 183.75000000000244,
          "velocity": 0.5039370078740157,
          "duration": 0.10833333333334849
        },
        {
          "name": "C2",
          "midi": 36,
          "time": 183.75000000000244,
          "velocity": 0.8346456692913385,
          "duration": 0.11666666666667425
        },
        {
          "name": "G#2",
          "midi": 44,
          "time": 184.00000000000244,
          "velocity": 0.8346456692913385,
          "duration": 0.08333333333334281
        },
        {
          "name": "B3",
          "midi": 59,
          "time": 184.00000000000244,
          "velocity": 0.8346456692913385,
          "duration": 0.08333333333334281
        },
        {
          "name": "C2",
          "midi": 36,
          "time": 184.00000000000244,
          "velocity": 0.8346456692913385,
          "duration": 0.11666666666667425
        },
        {
          "name": "F#3",
          "midi": 54,
          "time": 184.25000000000244,
          "velocity": 0.5039370078740157,
          "duration": 0.10833333333334849
        },
        {
          "name": "G#2",
          "midi": 44,
          "time": 184.25000000000244,
          "velocity": 0.8346456692913385,
          "duration": 0.08333333333334281
        },
        {
          "name": "C#2",
          "midi": 37,
          "time": 184.50000000000247,
          "velocity": 0.5039370078740157,
          "duration": 0.10833333333334849
        },
        {
          "name": "E2",
          "midi": 40,
          "time": 184.50000000000247,
          "velocity": 0.5039370078740157,
          "duration": 0.10833333333334849
        },
        {
          "name": "C2",
          "midi": 36,
          "time": 184.50000000000247,
          "velocity": 0.8346456692913385,
          "duration": 0.11666666666667425
        },
        {
          "name": "B3",
          "midi": 59,
          "time": 184.50000000000247,
          "velocity": 0.8346456692913385,
          "duration": 0.08333333333334281
        },
        {
          "name": "G#2",
          "midi": 44,
          "time": 184.50000000000247,
          "velocity": 0.8346456692913385,
          "duration": 0.08333333333334281
        },
        {
          "name": "G#2",
          "midi": 44,
          "time": 184.75000000000247,
          "velocity": 0.8346456692913385,
          "duration": 0.08333333333334281
        },
        {
          "name": "C2",
          "midi": 36,
          "time": 184.75000000000247,
          "velocity": 0.8346456692913385,
          "duration": 0.11666666666667425
        },
        {
          "name": "F#3",
          "midi": 54,
          "time": 184.75000000000247,
          "velocity": 0.5039370078740157,
          "duration": 0.10833333333334849
        },
        {
          "name": "B3",
          "midi": 59,
          "time": 185.00000000000247,
          "velocity": 0.8346456692913385,
          "duration": 0.08333333333334281
        },
        {
          "name": "C2",
          "midi": 36,
          "time": 185.00000000000247,
          "velocity": 0.8346456692913385,
          "duration": 0.11666666666667425
        },
        {
          "name": "G#2",
          "midi": 44,
          "time": 185.00000000000247,
          "velocity": 0.8346456692913385,
          "duration": 0.08333333333334281
        },
        {
          "name": "G#2",
          "midi": 44,
          "time": 185.25000000000247,
          "velocity": 0.8346456692913385,
          "duration": 0.08333333333334281
        },
        {
          "name": "C2",
          "midi": 36,
          "time": 185.25000000000247,
          "velocity": 0.8346456692913385,
          "duration": 0.11666666666667425
        },
        {
          "name": "F#3",
          "midi": 54,
          "time": 185.25000000000247,
          "velocity": 0.5039370078740157,
          "duration": 0.10833333333334849
        },
        {
          "name": "C#2",
          "midi": 37,
          "time": 185.25000000000247,
          "velocity": 0.5039370078740157,
          "duration": 0.10833333333334849
        },
        {
          "name": "E2",
          "midi": 40,
          "time": 185.25000000000247,
          "velocity": 0.5039370078740157,
          "duration": 0.10833333333334849
        },
        {
          "name": "B3",
          "midi": 59,
          "time": 185.50000000000247,
          "velocity": 0.8346456692913385,
          "duration": 0.08333333333334281
        },
        {
          "name": "C2",
          "midi": 36,
          "time": 185.50000000000247,
          "velocity": 0.8346456692913385,
          "duration": 0.11666666666667425
        },
        {
          "name": "G#2",
          "midi": 44,
          "time": 185.50000000000247,
          "velocity": 0.8346456692913385,
          "duration": 0.08333333333334281
        },
        {
          "name": "G#2",
          "midi": 44,
          "time": 185.75000000000247,
          "velocity": 0.8346456692913385,
          "duration": 0.08333333333334281
        },
        {
          "name": "C2",
          "midi": 36,
          "time": 185.75000000000247,
          "velocity": 0.8346456692913385,
          "duration": 0.11666666666667425
        },
        {
          "name": "F#3",
          "midi": 54,
          "time": 185.75000000000247,
          "velocity": 0.5039370078740157,
          "duration": 0.10833333333334849
        },
        {
          "name": "G#2",
          "midi": 44,
          "time": 186.00000000000247,
          "velocity": 0.8346456692913385,
          "duration": 0.08333333333334281
        },
        {
          "name": "C2",
          "midi": 36,
          "time": 186.00000000000247,
          "velocity": 0.8346456692913385,
          "duration": 0.11666666666667425
        },
        {
          "name": "B3",
          "midi": 59,
          "time": 186.00000000000247,
          "velocity": 0.8346456692913385,
          "duration": 0.08333333333334281
        },
        {
          "name": "F#3",
          "midi": 54,
          "time": 186.25000000000247,
          "velocity": 0.5039370078740157,
          "duration": 0.10833333333334849
        },
        {
          "name": "G#2",
          "midi": 44,
          "time": 186.25000000000247,
          "velocity": 0.8346456692913385,
          "duration": 0.08333333333334281
        },
        {
          "name": "C2",
          "midi": 36,
          "time": 186.5000000000025,
          "velocity": 0.8346456692913385,
          "duration": 0.11666666666667425
        },
        {
          "name": "C#2",
          "midi": 37,
          "time": 186.5000000000025,
          "velocity": 0.5039370078740157,
          "duration": 0.10833333333334849
        },
        {
          "name": "B3",
          "midi": 59,
          "time": 186.5000000000025,
          "velocity": 0.8346456692913385,
          "duration": 0.08333333333334281
        },
        {
          "name": "G#2",
          "midi": 44,
          "time": 186.5000000000025,
          "velocity": 0.8346456692913385,
          "duration": 0.08333333333334281
        },
        {
          "name": "E2",
          "midi": 40,
          "time": 186.5000000000025,
          "velocity": 0.5039370078740157,
          "duration": 0.10833333333334849
        },
        {
          "name": "C2",
          "midi": 36,
          "time": 186.7500000000025,
          "velocity": 0.8346456692913385,
          "duration": 0.11666666666667425
        },
        {
          "name": "F#3",
          "midi": 54,
          "time": 186.7500000000025,
          "velocity": 0.5039370078740157,
          "duration": 0.10833333333334849
        },
        {
          "name": "G#2",
          "midi": 44,
          "time": 186.7500000000025,
          "velocity": 0.8346456692913385,
          "duration": 0.08333333333334281
        },
        {
          "name": "B3",
          "midi": 59,
          "time": 187.0000000000025,
          "velocity": 0.8346456692913385,
          "duration": 0.10000000000002274
        },
        {
          "name": "G#2",
          "midi": 44,
          "time": 187.0000000000025,
          "velocity": 0.8346456692913385,
          "duration": 0.08333333333334281
        },
        {
          "name": "C2",
          "midi": 36,
          "time": 187.0000000000025,
          "velocity": 0.8346456692913385,
          "duration": 0.11666666666670267
        },
        {
          "name": "G#2",
          "midi": 44,
          "time": 187.25000000000253,
          "velocity": 0.8346456692913385,
          "duration": 0.08333333333334281
        },
        {
          "name": "C2",
          "midi": 36,
          "time": 187.25000000000253,
          "velocity": 0.8346456692913385,
          "duration": 0.11666666666667425
        },
        {
          "name": "E2",
          "midi": 40,
          "time": 187.25000000000253,
          "velocity": 0.5039370078740157,
          "duration": 0.10833333333334849
        },
        {
          "name": "C#2",
          "midi": 37,
          "time": 187.25000000000253,
          "velocity": 0.5039370078740157,
          "duration": 0.10833333333334849
        },
        {
          "name": "F#3",
          "midi": 54,
          "time": 187.25000000000253,
          "velocity": 0.5039370078740157,
          "duration": 0.10833333333334849
        },
        {
          "name": "G#2",
          "midi": 44,
          "time": 187.50000000000253,
          "velocity": 0.8346456692913385,
          "duration": 0.08333333333334281
        },
        {
          "name": "B3",
          "midi": 59,
          "time": 187.50000000000253,
          "velocity": 0.8346456692913385,
          "duration": 0.10000000000002274
        },
        {
          "name": "C2",
          "midi": 36,
          "time": 187.50000000000253,
          "velocity": 0.8346456692913385,
          "duration": 0.11666666666670267
        },
        {
          "name": "G#2",
          "midi": 44,
          "time": 187.75000000000256,
          "velocity": 0.8346456692913385,
          "duration": 0.08333333333334281
        },
        {
          "name": "C2",
          "midi": 36,
          "time": 187.75000000000256,
          "velocity": 0.8346456692913385,
          "duration": 0.11666666666667425
        },
        {
          "name": "F#3",
          "midi": 54,
          "time": 187.75000000000256,
          "velocity": 0.5039370078740157,
          "duration": 0.10833333333334849
        },
        {
          "name": "G#2",
          "midi": 44,
          "time": 188.00000000000256,
          "velocity": 0.8346456692913385,
          "duration": 0.08333333333334281
        },
        {
          "name": "B3",
          "midi": 59,
          "time": 188.00000000000256,
          "velocity": 0.8346456692913385,
          "duration": 0.10000000000002274
        },
        {
          "name": "C2",
          "midi": 36,
          "time": 188.00000000000256,
          "velocity": 0.8346456692913385,
          "duration": 0.11666666666670267
        },
        {
          "name": "F#3",
          "midi": 54,
          "time": 188.2500000000026,
          "velocity": 0.5039370078740157,
          "duration": 0.10833333333334849
        },
        {
          "name": "G#2",
          "midi": 44,
          "time": 188.2500000000026,
          "velocity": 0.8346456692913385,
          "duration": 0.08333333333334281
        },
        {
          "name": "C2",
          "midi": 36,
          "time": 188.50000000000261,
          "velocity": 0.8346456692913385,
          "duration": 0.11666666666667425
        },
        {
          "name": "C#2",
          "midi": 37,
          "time": 188.50000000000261,
          "velocity": 0.5039370078740157,
          "duration": 0.10833333333334849
        },
        {
          "name": "G#2",
          "midi": 44,
          "time": 188.50000000000261,
          "velocity": 0.8346456692913385,
          "duration": 0.08333333333334281
        },
        {
          "name": "B3",
          "midi": 59,
          "time": 188.50000000000261,
          "velocity": 0.8346456692913385,
          "duration": 0.10000000000002274
        },
        {
          "name": "E2",
          "midi": 40,
          "time": 188.50000000000261,
          "velocity": 0.5039370078740157,
          "duration": 0.10833333333334849
        },
        {
          "name": "C2",
          "midi": 36,
          "time": 188.75000000000261,
          "velocity": 0.8346456692913385,
          "duration": 0.11666666666667425
        },
        {
          "name": "F#3",
          "midi": 54,
          "time": 188.75000000000261,
          "velocity": 0.5039370078740157,
          "duration": 0.10833333333334849
        },
        {
          "name": "G#2",
          "midi": 44,
          "time": 188.75000000000261,
          "velocity": 0.8346456692913385,
          "duration": 0.08333333333334281
        },
        {
          "name": "C2",
          "midi": 36,
          "time": 189.00000000000261,
          "velocity": 0.8346456692913385,
          "duration": 0.11666666666667425
        },
        {
          "name": "B3",
          "midi": 59,
          "time": 189.00000000000261,
          "velocity": 0.8346456692913385,
          "duration": 0.08333333333334281
        },
        {
          "name": "G#2",
          "midi": 44,
          "time": 189.00000000000261,
          "velocity": 0.8346456692913385,
          "duration": 0.08333333333334281
        },
        {
          "name": "F#3",
          "midi": 54,
          "time": 189.25000000000261,
          "velocity": 0.5039370078740157,
          "duration": 0.10833333333334849
        },
        {
          "name": "C2",
          "midi": 36,
          "time": 189.25000000000261,
          "velocity": 0.8346456692913385,
          "duration": 0.11666666666667425
        },
        {
          "name": "E2",
          "midi": 40,
          "time": 189.25000000000261,
          "velocity": 0.5039370078740157,
          "duration": 0.10833333333334849
        },
        {
          "name": "G#2",
          "midi": 44,
          "time": 189.25000000000261,
          "velocity": 0.8346456692913385,
          "duration": 0.08333333333334281
        },
        {
          "name": "C#2",
          "midi": 37,
          "time": 189.25000000000261,
          "velocity": 0.5039370078740157,
          "duration": 0.10833333333334849
        },
        {
          "name": "C2",
          "midi": 36,
          "time": 189.50000000000261,
          "velocity": 0.8346456692913385,
          "duration": 0.11666666666667425
        },
        {
          "name": "B3",
          "midi": 59,
          "time": 189.50000000000261,
          "velocity": 0.8346456692913385,
          "duration": 0.08333333333334281
        },
        {
          "name": "G#2",
          "midi": 44,
          "time": 189.50000000000261,
          "velocity": 0.8346456692913385,
          "duration": 0.08333333333334281
        },
        {
          "name": "F#3",
          "midi": 54,
          "time": 189.75000000000261,
          "velocity": 0.5039370078740157,
          "duration": 0.10833333333334849
        },
        {
          "name": "C2",
          "midi": 36,
          "time": 189.75000000000261,
          "velocity": 0.8346456692913385,
          "duration": 0.11666666666667425
        },
        {
          "name": "G#2",
          "midi": 44,
          "time": 189.75000000000261,
          "velocity": 0.8346456692913385,
          "duration": 0.08333333333334281
        },
        {
          "name": "G#2",
          "midi": 44,
          "time": 190.00000000000261,
          "velocity": 0.8346456692913385,
          "duration": 0.08333333333334281
        },
        {
          "name": "C2",
          "midi": 36,
          "time": 190.00000000000261,
          "velocity": 0.8346456692913385,
          "duration": 0.11666666666667425
        },
        {
          "name": "G3",
          "midi": 55,
          "time": 190.00000000000261,
          "velocity": 0.8346456692913385,
          "duration": 0.08333333333334281
        },
        {
          "name": "B3",
          "midi": 59,
          "time": 190.00000000000261,
          "velocity": 0.8346456692913385,
          "duration": 0.08333333333334281
        },
        {
          "name": "G#2",
          "midi": 44,
          "time": 190.25000000000261,
          "velocity": 0.8346456692913385,
          "duration": 0.08333333333334281
        },
        {
          "name": "F#3",
          "midi": 54,
          "time": 190.25000000000261,
          "velocity": 0.5039370078740157,
          "duration": 0.10833333333334849
        },
        {
          "name": "G#2",
          "midi": 44,
          "time": 190.50000000000264,
          "velocity": 0.8346456692913385,
          "duration": 0.08333333333334281
        },
        {
          "name": "B3",
          "midi": 59,
          "time": 190.50000000000264,
          "velocity": 0.8346456692913385,
          "duration": 0.08333333333334281
        },
        {
          "name": "E2",
          "midi": 40,
          "time": 190.50000000000264,
          "velocity": 0.5039370078740157,
          "duration": 0.10833333333334849
        },
        {
          "name": "C#2",
          "midi": 37,
          "time": 190.50000000000264,
          "velocity": 0.5039370078740157,
          "duration": 0.10833333333334849
        },
        {
          "name": "C2",
          "midi": 36,
          "time": 190.50000000000264,
          "velocity": 0.8346456692913385,
          "duration": 0.11666666666667425
        },
        {
          "name": "G#2",
          "midi": 44,
          "time": 190.75000000000264,
          "velocity": 0.8346456692913385,
          "duration": 0.08333333333334281
        },
        {
          "name": "C2",
          "midi": 36,
          "time": 190.75000000000264,
          "velocity": 0.8346456692913385,
          "duration": 0.11666666666667425
        },
        {
          "name": "F#3",
          "midi": 54,
          "time": 190.75000000000264,
          "velocity": 0.5039370078740157,
          "duration": 0.10833333333334849
        },
        {
          "name": "G#2",
          "midi": 44,
          "time": 191.00000000000264,
          "velocity": 0.8346456692913385,
          "duration": 0.08333333333334281
        },
        {
          "name": "C2",
          "midi": 36,
          "time": 191.00000000000264,
          "velocity": 0.8346456692913385,
          "duration": 0.11666666666667425
        },
        {
          "name": "B3",
          "midi": 59,
          "time": 191.00000000000264,
          "velocity": 0.8346456692913385,
          "duration": 0.08333333333334281
        },
        {
          "name": "C#2",
          "midi": 37,
          "time": 191.25000000000264,
          "velocity": 0.5039370078740157,
          "duration": 0.10833333333334849
        },
        {
          "name": "F#3",
          "midi": 54,
          "time": 191.25000000000264,
          "velocity": 0.5039370078740157,
          "duration": 0.10833333333334849
        },
        {
          "name": "E2",
          "midi": 40,
          "time": 191.25000000000264,
          "velocity": 0.5039370078740157,
          "duration": 0.10833333333334849
        },
        {
          "name": "C2",
          "midi": 36,
          "time": 191.25000000000264,
          "velocity": 0.8346456692913385,
          "duration": 0.11666666666667425
        },
        {
          "name": "G#2",
          "midi": 44,
          "time": 191.25000000000264,
          "velocity": 0.8346456692913385,
          "duration": 0.08333333333334281
        },
        {
          "name": "C2",
          "midi": 36,
          "time": 191.50000000000264,
          "velocity": 0.8346456692913385,
          "duration": 0.11666666666667425
        },
        {
          "name": "G#2",
          "midi": 44,
          "time": 191.50000000000264,
          "velocity": 0.8346456692913385,
          "duration": 0.08333333333334281
        },
        {
          "name": "B3",
          "midi": 59,
          "time": 191.50000000000264,
          "velocity": 0.8346456692913385,
          "duration": 0.08333333333334281
        },
        {
          "name": "G#2",
          "midi": 44,
          "time": 191.75000000000264,
          "velocity": 0.8346456692913385,
          "duration": 0.08333333333334281
        },
        {
          "name": "F#3",
          "midi": 54,
          "time": 191.75000000000264,
          "velocity": 0.5039370078740157,
          "duration": 0.10833333333334849
        },
        {
          "name": "C2",
          "midi": 36,
          "time": 191.75000000000264,
          "velocity": 0.8346456692913385,
          "duration": 0.11666666666667425
        },
        {
          "name": "C2",
          "midi": 36,
          "time": 192.00000000000264,
          "velocity": 0.8346456692913385,
          "duration": 0.11666666666667425
        },
        {
          "name": "B3",
          "midi": 59,
          "time": 192.00000000000264,
          "velocity": 0.8346456692913385,
          "duration": 0.08333333333334281
        },
        {
          "name": "G#2",
          "midi": 44,
          "time": 192.00000000000264,
          "velocity": 0.8346456692913385,
          "duration": 0.08333333333334281
        },
        {
          "name": "G#2",
          "midi": 44,
          "time": 192.25000000000264,
          "velocity": 0.8346456692913385,
          "duration": 0.08333333333334281
        },
        {
          "name": "F#3",
          "midi": 54,
          "time": 192.25000000000264,
          "velocity": 0.5039370078740157,
          "duration": 0.10833333333334849
        },
        {
          "name": "C2",
          "midi": 36,
          "time": 192.50000000000267,
          "velocity": 0.8346456692913385,
          "duration": 0.11666666666667425
        },
        {
          "name": "B3",
          "midi": 59,
          "time": 192.50000000000267,
          "velocity": 0.8346456692913385,
          "duration": 0.08333333333334281
        },
        {
          "name": "C#2",
          "midi": 37,
          "time": 192.50000000000267,
          "velocity": 0.5039370078740157,
          "duration": 0.10833333333334849
        },
        {
          "name": "G#2",
          "midi": 44,
          "time": 192.50000000000267,
          "velocity": 0.8346456692913385,
          "duration": 0.08333333333334281
        },
        {
          "name": "E2",
          "midi": 40,
          "time": 192.50000000000267,
          "velocity": 0.5039370078740157,
          "duration": 0.10833333333334849
        },
        {
          "name": "F#3",
          "midi": 54,
          "time": 192.75000000000267,
          "velocity": 0.5039370078740157,
          "duration": 0.10833333333334849
        },
        {
          "name": "C2",
          "midi": 36,
          "time": 192.75000000000267,
          "velocity": 0.8346456692913385,
          "duration": 0.11666666666667425
        },
        {
          "name": "G#2",
          "midi": 44,
          "time": 192.75000000000267,
          "velocity": 0.8346456692913385,
          "duration": 0.08333333333334281
        },
        {
          "name": "G#2",
          "midi": 44,
          "time": 193.00000000000267,
          "velocity": 0.8346456692913385,
          "duration": 0.08333333333334281
        },
        {
          "name": "C2",
          "midi": 36,
          "time": 193.00000000000267,
          "velocity": 0.8346456692913385,
          "duration": 0.11666666666667425
        },
        {
          "name": "B3",
          "midi": 59,
          "time": 193.00000000000267,
          "velocity": 0.8346456692913385,
          "duration": 0.08333333333334281
        },
        {
          "name": "E2",
          "midi": 40,
          "time": 193.25000000000267,
          "velocity": 0.5039370078740157,
          "duration": 0.10833333333334849
        },
        {
          "name": "C2",
          "midi": 36,
          "time": 193.25000000000267,
          "velocity": 0.8346456692913385,
          "duration": 0.11666666666667425
        },
        {
          "name": "C#2",
          "midi": 37,
          "time": 193.25000000000267,
          "velocity": 0.5039370078740157,
          "duration": 0.10833333333334849
        },
        {
          "name": "G#2",
          "midi": 44,
          "time": 193.25000000000267,
          "velocity": 0.8346456692913385,
          "duration": 0.08333333333334281
        },
        {
          "name": "F#3",
          "midi": 54,
          "time": 193.25000000000267,
          "velocity": 0.5039370078740157,
          "duration": 0.10833333333334849
        },
        {
          "name": "G#2",
          "midi": 44,
          "time": 193.50000000000267,
          "velocity": 0.8346456692913385,
          "duration": 0.08333333333334281
        },
        {
          "name": "B3",
          "midi": 59,
          "time": 193.50000000000267,
          "velocity": 0.8346456692913385,
          "duration": 0.08333333333334281
        },
        {
          "name": "C2",
          "midi": 36,
          "time": 193.50000000000267,
          "velocity": 0.8346456692913385,
          "duration": 0.11666666666667425
        },
        {
          "name": "G#2",
          "midi": 44,
          "time": 193.75000000000267,
          "velocity": 0.8346456692913385,
          "duration": 0.08333333333334281
        },
        {
          "name": "F#3",
          "midi": 54,
          "time": 193.75000000000267,
          "velocity": 0.5039370078740157,
          "duration": 0.10833333333334849
        },
        {
          "name": "C2",
          "midi": 36,
          "time": 193.75000000000267,
          "velocity": 0.8346456692913385,
          "duration": 0.11666666666667425
        },
        {
          "name": "G#2",
          "midi": 44,
          "time": 194.00000000000267,
          "velocity": 0.8346456692913385,
          "duration": 0.08333333333334281
        },
        {
          "name": "C2",
          "midi": 36,
          "time": 194.00000000000267,
          "velocity": 0.8346456692913385,
          "duration": 0.11666666666667425
        },
        {
          "name": "B3",
          "midi": 59,
          "time": 194.00000000000267,
          "velocity": 0.8346456692913385,
          "duration": 0.08333333333334281
        },
        {
          "name": "F#3",
          "midi": 54,
          "time": 194.25000000000267,
          "velocity": 0.5039370078740157,
          "duration": 0.10833333333334849
        },
        {
          "name": "G#2",
          "midi": 44,
          "time": 194.25000000000267,
          "velocity": 0.8346456692913385,
          "duration": 0.08333333333334281
        },
        {
          "name": "B3",
          "midi": 59,
          "time": 194.5000000000027,
          "velocity": 0.8346456692913385,
          "duration": 0.08333333333334281
        },
        {
          "name": "E2",
          "midi": 40,
          "time": 194.5000000000027,
          "velocity": 0.5039370078740157,
          "duration": 0.10833333333334849
        },
        {
          "name": "G#2",
          "midi": 44,
          "time": 194.5000000000027,
          "velocity": 0.8346456692913385,
          "duration": 0.08333333333334281
        },
        {
          "name": "C#2",
          "midi": 37,
          "time": 194.5000000000027,
          "velocity": 0.5039370078740157,
          "duration": 0.10833333333334849
        },
        {
          "name": "C2",
          "midi": 36,
          "time": 194.5000000000027,
          "velocity": 0.8346456692913385,
          "duration": 0.11666666666667425
        },
        {
          "name": "C2",
          "midi": 36,
          "time": 194.7500000000027,
          "velocity": 0.8346456692913385,
          "duration": 0.11666666666667425
        },
        {
          "name": "F#3",
          "midi": 54,
          "time": 194.7500000000027,
          "velocity": 0.5039370078740157,
          "duration": 0.10833333333334849
        },
        {
          "name": "G#2",
          "midi": 44,
          "time": 194.7500000000027,
          "velocity": 0.8346456692913385,
          "duration": 0.08333333333334281
        },
        {
          "name": "G#2",
          "midi": 44,
          "time": 195.0000000000027,
          "velocity": 0.8346456692913385,
          "duration": 0.08333333333334281
        },
        {
          "name": "B3",
          "midi": 59,
          "time": 195.0000000000027,
          "velocity": 0.8346456692913385,
          "duration": 0.08333333333334281
        },
        {
          "name": "C2",
          "midi": 36,
          "time": 195.0000000000027,
          "velocity": 0.8346456692913385,
          "duration": 0.11666666666667425
        },
        {
          "name": "E2",
          "midi": 40,
          "time": 195.2500000000027,
          "velocity": 0.5039370078740157,
          "duration": 0.10833333333334849
        },
        {
          "name": "C#2",
          "midi": 37,
          "time": 195.2500000000027,
          "velocity": 0.5039370078740157,
          "duration": 0.10833333333334849
        },
        {
          "name": "G#2",
          "midi": 44,
          "time": 195.2500000000027,
          "velocity": 0.8346456692913385,
          "duration": 0.08333333333334281
        },
        {
          "name": "F#3",
          "midi": 54,
          "time": 195.2500000000027,
          "velocity": 0.5039370078740157,
          "duration": 0.10833333333334849
        },
        {
          "name": "C2",
          "midi": 36,
          "time": 195.2500000000027,
          "velocity": 0.8346456692913385,
          "duration": 0.11666666666667425
        },
        {
          "name": "C2",
          "midi": 36,
          "time": 195.5000000000027,
          "velocity": 0.8346456692913385,
          "duration": 0.11666666666667425
        },
        {
          "name": "B3",
          "midi": 59,
          "time": 195.5000000000027,
          "velocity": 0.8346456692913385,
          "duration": 0.08333333333334281
        },
        {
          "name": "G#2",
          "midi": 44,
          "time": 195.5000000000027,
          "velocity": 0.8346456692913385,
          "duration": 0.08333333333334281
        },
        {
          "name": "F#3",
          "midi": 54,
          "time": 195.7500000000027,
          "velocity": 0.5039370078740157,
          "duration": 0.10833333333334849
        },
        {
          "name": "C2",
          "midi": 36,
          "time": 195.7500000000027,
          "velocity": 0.8346456692913385,
          "duration": 0.11666666666667425
        },
        {
          "name": "G#2",
          "midi": 44,
          "time": 195.7500000000027,
          "velocity": 0.8346456692913385,
          "duration": 0.08333333333334281
        },
        {
          "name": "C#2",
          "midi": 37,
          "time": 196.0000000000027,
          "velocity": 0.5039370078740157,
          "duration": 0.10833333333334849
        },
        {
          "name": "G#2",
          "midi": 44,
          "time": 196.0000000000027,
          "velocity": 0.8346456692913385,
          "duration": 0.08333333333334281
        },
        {
          "name": "B3",
          "midi": 59,
          "time": 196.0000000000027,
          "velocity": 0.8346456692913385,
          "duration": 0.08333333333334281
        },
        {
          "name": "C2",
          "midi": 36,
          "time": 196.0000000000027,
          "velocity": 0.8346456692913385,
          "duration": 0.11666666666667425
        },
        {
          "name": "E2",
          "midi": 40,
          "time": 196.0000000000027,
          "velocity": 0.5039370078740157,
          "duration": 0.10833333333334849
        },
        {
          "name": "G#2",
          "midi": 44,
          "time": 196.2500000000027,
          "velocity": 0.8346456692913385,
          "duration": 0.08333333333334281
        },
        {
          "name": "F#3",
          "midi": 54,
          "time": 196.2500000000027,
          "velocity": 0.5039370078740157,
          "duration": 0.10833333333334849
        },
        {
          "name": "C2",
          "midi": 36,
          "time": 196.50000000000273,
          "velocity": 0.8346456692913385,
          "duration": 0.11666666666667425
        },
        {
          "name": "C#2",
          "midi": 37,
          "time": 196.50000000000273,
          "velocity": 0.5039370078740157,
          "duration": 0.10833333333334849
        },
        {
          "name": "B3",
          "midi": 59,
          "time": 196.50000000000273,
          "velocity": 0.8346456692913385,
          "duration": 0.08333333333334281
        },
        {
          "name": "G#2",
          "midi": 44,
          "time": 196.50000000000273,
          "velocity": 0.8346456692913385,
          "duration": 0.08333333333334281
        },
        {
          "name": "E2",
          "midi": 40,
          "time": 196.50000000000273,
          "velocity": 0.5039370078740157,
          "duration": 0.10833333333334849
        },
        {
          "name": "G#2",
          "midi": 44,
          "time": 196.75000000000273,
          "velocity": 0.8346456692913385,
          "duration": 0.08333333333334281
        },
        {
          "name": "F#3",
          "midi": 54,
          "time": 196.75000000000273,
          "velocity": 0.5039370078740157,
          "duration": 0.10833333333334849
        },
        {
          "name": "C2",
          "midi": 36,
          "time": 196.75000000000273,
          "velocity": 0.8346456692913385,
          "duration": 0.11666666666667425
        },
        {
          "name": "C2",
          "midi": 36,
          "time": 197.00000000000273,
          "velocity": 0.8346456692913385,
          "duration": 0.11666666666667425
        },
        {
          "name": "C#2",
          "midi": 37,
          "time": 197.00000000000273,
          "velocity": 0.5039370078740157,
          "duration": 0.10833333333334849
        },
        {
          "name": "B3",
          "midi": 59,
          "time": 197.00000000000273,
          "velocity": 0.8346456692913385,
          "duration": 0.08333333333334281
        },
        {
          "name": "G#2",
          "midi": 44,
          "time": 197.00000000000273,
          "velocity": 0.8346456692913385,
          "duration": 0.08333333333334281
        },
        {
          "name": "E2",
          "midi": 40,
          "time": 197.00000000000273,
          "velocity": 0.5039370078740157,
          "duration": 0.10833333333334849
        },
        {
          "name": "F#3",
          "midi": 54,
          "time": 197.25000000000273,
          "velocity": 0.5039370078740157,
          "duration": 0.10833333333334849
        },
        {
          "name": "G#2",
          "midi": 44,
          "time": 197.25000000000273,
          "velocity": 0.8346456692913385,
          "duration": 0.08333333333334281
        },
        {
          "name": "C2",
          "midi": 36,
          "time": 197.25000000000273,
          "velocity": 0.8346456692913385,
          "duration": 0.11666666666667425
        },
        {
          "name": "C#2",
          "midi": 37,
          "time": 197.50000000000273,
          "velocity": 0.5039370078740157,
          "duration": 0.10833333333334849
        },
        {
          "name": "E2",
          "midi": 40,
          "time": 197.50000000000273,
          "velocity": 0.5039370078740157,
          "duration": 0.10833333333334849
        },
        {
          "name": "C2",
          "midi": 36,
          "time": 197.50000000000273,
          "velocity": 0.8346456692913385,
          "duration": 0.11666666666667425
        },
        {
          "name": "G#2",
          "midi": 44,
          "time": 197.50000000000273,
          "velocity": 0.8346456692913385,
          "duration": 0.08333333333334281
        },
        {
          "name": "B3",
          "midi": 59,
          "time": 197.50000000000273,
          "velocity": 0.8346456692913385,
          "duration": 0.08333333333334281
        },
        {
          "name": "C2",
          "midi": 36,
          "time": 197.75000000000273,
          "velocity": 0.8346456692913385,
          "duration": 0.11666666666667425
        },
        {
          "name": "G#2",
          "midi": 44,
          "time": 197.75000000000273,
          "velocity": 0.8346456692913385,
          "duration": 0.08333333333334281
        },
        {
          "name": "F#3",
          "midi": 54,
          "time": 197.75000000000273,
          "velocity": 0.5039370078740157,
          "duration": 0.10833333333334849
        },
        {
          "name": "C2",
          "midi": 36,
          "time": 198.00000000000273,
          "velocity": 0.5118110236220472,
          "duration": 0.11666666666667425
        },
        {
          "name": "G#2",
          "midi": 44,
          "time": 198.00000000000273,
          "velocity": 0.5118110236220472,
          "duration": 0.08333333333334281
        },
        {
          "name": "G3",
          "midi": 55,
          "time": 198.00000000000273,
          "velocity": 0.8346456692913385,
          "duration": 0.08333333333334281
        },
        {
          "name": "F#3",
          "midi": 54,
          "time": 198.25000000000273,
          "velocity": 0.5118110236220472,
          "duration": 0.10833333333332007
        },
        {
          "name": "E2",
          "midi": 40,
          "time": 198.50000000000273,
          "velocity": 0.5118110236220472,
          "duration": 0.10833333333334849
        },
        {
          "name": "C#2",
          "midi": 37,
          "time": 198.50000000000273,
          "velocity": 0.5118110236220472,
          "duration": 0.11666666666667425
        },
        {
          "name": "C2",
          "midi": 36,
          "time": 198.50000000000273,
          "velocity": 0.5118110236220472,
          "duration": 0.11666666666667425
        },
        {
          "name": "G#2",
          "midi": 44,
          "time": 198.50000000000273,
          "velocity": 0.5118110236220472,
          "duration": 0.08333333333334281
        },
        {
          "name": "F#3",
          "midi": 54,
          "time": 198.75000000000273,
          "velocity": 0.5118110236220472,
          "duration": 0.10833333333332007
        },
        {
          "name": "C2",
          "midi": 36,
          "time": 198.75000000000273,
          "velocity": 0.5118110236220472,
          "duration": 0.11666666666664582
        },
        {
          "name": "C2",
          "midi": 36,
          "time": 199.0000000000027,
          "velocity": 0.5039370078740157,
          "duration": 0.11666666666667425
        },
        {
          "name": "G#2",
          "midi": 44,
          "time": 199.0000000000027,
          "velocity": 0.5039370078740157,
          "duration": 0.08333333333334281
        },
        {
          "name": "F#3",
          "midi": 54,
          "time": 199.2500000000027,
          "velocity": 0.5039370078740157,
          "duration": 0.10833333333332007
        },
        {
          "name": "C2",
          "midi": 36,
          "time": 199.2500000000027,
          "velocity": 0.5039370078740157,
          "duration": 0.11666666666664582
        },
        {
          "name": "C#2",
          "midi": 37,
          "time": 199.2500000000027,
          "velocity": 0.5118110236220472,
          "duration": 0.11666666666664582
        },
        {
          "name": "E2",
          "midi": 40,
          "time": 199.2500000000027,
          "velocity": 0.5039370078740157,
          "duration": 0.10833333333332007
        },
        {
          "name": "G#2",
          "midi": 44,
          "time": 199.50000000000267,
          "velocity": 0.5039370078740157,
          "duration": 0.08333333333334281
        },
        {
          "name": "C2",
          "midi": 36,
          "time": 199.75000000000267,
          "velocity": 0.5039370078740157,
          "duration": 0.11666666666664582
        },
        {
          "name": "F#3",
          "midi": 54,
          "time": 199.75000000000267,
          "velocity": 0.5039370078740157,
          "duration": 0.10833333333332007
        },
        {
          "name": "C2",
          "midi": 36,
          "time": 200.00000000000264,
          "velocity": 0.5039370078740157,
          "duration": 0.11666666666667425
        },
        {
          "name": "G#2",
          "midi": 44,
          "time": 200.00000000000264,
          "velocity": 0.5039370078740157,
          "duration": 0.08333333333334281
        },
        {
          "name": "F#3",
          "midi": 54,
          "time": 200.25000000000264,
          "velocity": 0.5118110236220472,
          "duration": 0.10833333333332007
        },
        {
          "name": "G#2",
          "midi": 44,
          "time": 200.50000000000264,
          "velocity": 0.5118110236220472,
          "duration": 0.08333333333334281
        },
        {
          "name": "C2",
          "midi": 36,
          "time": 200.50000000000264,
          "velocity": 0.5118110236220472,
          "duration": 0.11666666666667425
        },
        {
          "name": "E2",
          "midi": 40,
          "time": 200.50000000000264,
          "velocity": 0.5118110236220472,
          "duration": 0.10833333333334849
        },
        {
          "name": "C#2",
          "midi": 37,
          "time": 200.50000000000264,
          "velocity": 0.5118110236220472,
          "duration": 0.11666666666667425
        },
        {
          "name": "F#3",
          "midi": 54,
          "time": 200.75000000000264,
          "velocity": 0.5118110236220472,
          "duration": 0.10833333333332007
        },
        {
          "name": "C2",
          "midi": 36,
          "time": 200.75000000000264,
          "velocity": 0.5118110236220472,
          "duration": 0.11666666666664582
        },
        {
          "name": "C2",
          "midi": 36,
          "time": 201.00000000000261,
          "velocity": 0.5118110236220472,
          "duration": 0.11666666666667425
        },
        {
          "name": "G#2",
          "midi": 44,
          "time": 201.00000000000261,
          "velocity": 0.5118110236220472,
          "duration": 0.08333333333334281
        },
        {
          "name": "C2",
          "midi": 36,
          "time": 201.25000000000261,
          "velocity": 0.5039370078740157,
          "duration": 0.11666666666664582
        },
        {
          "name": "F#3",
          "midi": 54,
          "time": 201.25000000000261,
          "velocity": 0.5039370078740157,
          "duration": 0.10833333333332007
        },
        {
          "name": "C#2",
          "midi": 37,
          "time": 201.25000000000261,
          "velocity": 0.5118110236220472,
          "duration": 0.11666666666664582
        },
        {
          "name": "E2",
          "midi": 40,
          "time": 201.25000000000261,
          "velocity": 0.5039370078740157,
          "duration": 0.10833333333332007
        },
        {
          "name": "G#2",
          "midi": 44,
          "time": 201.5000000000026,
          "velocity": 0.5118110236220472,
          "duration": 0.08333333333334281
        },
        {
          "name": "C2",
          "midi": 36,
          "time": 201.7500000000026,
          "velocity": 0.5039370078740157,
          "duration": 0.11666666666664582
        },
        {
          "name": "F#3",
          "midi": 54,
          "time": 201.7500000000026,
          "velocity": 0.5039370078740157,
          "duration": 0.10833333333332007
        },
        {
          "name": "A#2",
          "midi": 46,
          "time": 202.00000000000256,
          "velocity": 0.7322834645669292,
          "duration": 0.16666666666668561
        },
        {
          "name": "C2",
          "midi": 36,
          "time": 202.00000000000256,
          "velocity": 0.5118110236220472,
          "duration": 0.11666666666667425
        },
        {
          "name": "F#3",
          "midi": 54,
          "time": 202.2500000000026,
          "velocity": 0.5118110236220472,
          "duration": 0.10833333333332007
        },
        {
          "name": "E2",
          "midi": 40,
          "time": 202.5000000000026,
          "velocity": 0.5118110236220472,
          "duration": 0.10833333333334849
        },
        {
          "name": "C2",
          "midi": 36,
          "time": 202.5000000000026,
          "velocity": 0.5118110236220472,
          "duration": 0.11666666666667425
        },
        {
          "name": "C#2",
          "midi": 37,
          "time": 202.5000000000026,
          "velocity": 0.5118110236220472,
          "duration": 0.11666666666667425
        },
        {
          "name": "G#2",
          "midi": 44,
          "time": 202.5000000000026,
          "velocity": 0.5118110236220472,
          "duration": 0.08333333333334281
        },
        {
          "name": "C2",
          "midi": 36,
          "time": 202.7500000000026,
          "velocity": 0.5118110236220472,
          "duration": 0.11666666666664582
        },
        {
          "name": "F#3",
          "midi": 54,
          "time": 202.7500000000026,
          "velocity": 0.5118110236220472,
          "duration": 0.10833333333332007
        },
        {
          "name": "C2",
          "midi": 36,
          "time": 203.00000000000256,
          "velocity": 0.5039370078740157,
          "duration": 0.11666666666667425
        },
        {
          "name": "G#2",
          "midi": 44,
          "time": 203.00000000000256,
          "velocity": 0.5039370078740157,
          "duration": 0.08333333333334281
        },
        {
          "name": "C2",
          "midi": 36,
          "time": 203.25000000000256,
          "velocity": 0.5039370078740157,
          "duration": 0.11666666666664582
        },
        {
          "name": "E2",
          "midi": 40,
          "time": 203.25000000000256,
          "velocity": 0.5039370078740157,
          "duration": 0.10833333333332007
        },
        {
          "name": "F#3",
          "midi": 54,
          "time": 203.25000000000256,
          "velocity": 0.5039370078740157,
          "duration": 0.10833333333332007
        },
        {
          "name": "C#2",
          "midi": 37,
          "time": 203.25000000000256,
          "velocity": 0.5118110236220472,
          "duration": 0.11666666666664582
        },
        {
          "name": "G#2",
          "midi": 44,
          "time": 203.50000000000253,
          "velocity": 0.5039370078740157,
          "duration": 0.08333333333334281
        },
        {
          "name": "F#3",
          "midi": 54,
          "time": 203.75000000000253,
          "velocity": 0.5039370078740157,
          "duration": 0.10833333333332007
        },
        {
          "name": "C2",
          "midi": 36,
          "time": 203.75000000000253,
          "velocity": 0.5039370078740157,
          "duration": 0.11666666666664582
        },
        {
          "name": "C2",
          "midi": 36,
          "time": 204.0000000000025,
          "velocity": 0.5039370078740157,
          "duration": 0.11666666666667425
        },
        {
          "name": "G#2",
          "midi": 44,
          "time": 204.0000000000025,
          "velocity": 0.5039370078740157,
          "duration": 0.08333333333334281
        },
        {
          "name": "F#3",
          "midi": 54,
          "time": 204.2500000000025,
          "velocity": 0.5118110236220472,
          "duration": 0.10833333333332007
        },
        {
          "name": "C2",
          "midi": 36,
          "time": 204.5000000000025,
          "velocity": 0.5118110236220472,
          "duration": 0.11666666666667425
        },
        {
          "name": "G#2",
          "midi": 44,
          "time": 204.5000000000025,
          "velocity": 0.5118110236220472,
          "duration": 0.08333333333334281
        },
        {
          "name": "C#2",
          "midi": 37,
          "time": 204.5000000000025,
          "velocity": 0.5118110236220472,
          "duration": 0.11666666666667425
        },
        {
          "name": "E2",
          "midi": 40,
          "time": 204.5000000000025,
          "velocity": 0.5118110236220472,
          "duration": 0.10833333333334849
        },
        {
          "name": "C2",
          "midi": 36,
          "time": 204.7500000000025,
          "velocity": 0.5118110236220472,
          "duration": 0.11666666666664582
        },
        {
          "name": "F#3",
          "midi": 54,
          "time": 204.7500000000025,
          "velocity": 0.5118110236220472,
          "duration": 0.10833333333332007
        },
        {
          "name": "G#2",
          "midi": 44,
          "time": 205.00000000000247,
          "velocity": 0.5118110236220472,
          "duration": 0.08333333333334281
        },
        {
          "name": "C2",
          "midi": 36,
          "time": 205.00000000000247,
          "velocity": 0.5118110236220472,
          "duration": 0.11666666666667425
        },
        {
          "name": "E2",
          "midi": 40,
          "time": 205.25000000000247,
          "velocity": 0.5039370078740157,
          "duration": 0.10833333333332007
        },
        {
          "name": "C#2",
          "midi": 37,
          "time": 205.25000000000247,
          "velocity": 0.5118110236220472,
          "duration": 0.11666666666664582
        },
        {
          "name": "C2",
          "midi": 36,
          "time": 205.25000000000247,
          "velocity": 0.5039370078740157,
          "duration": 0.11666666666664582
        },
        {
          "name": "F#3",
          "midi": 54,
          "time": 205.25000000000247,
          "velocity": 0.5039370078740157,
          "duration": 0.10833333333332007
        },
        {
          "name": "G#2",
          "midi": 44,
          "time": 205.50000000000244,
          "velocity": 0.5118110236220472,
          "duration": 0.08333333333334281
        },
        {
          "name": "C2",
          "midi": 36,
          "time": 205.75000000000244,
          "velocity": 0.5118110236220472,
          "duration": 0.08333333333334281
        },
        {
          "name": "G#2",
          "midi": 44,
          "time": 205.75000000000244,
          "velocity": 0.5118110236220472,
          "duration": 0.08333333333334281
        },
        {
          "name": "F#3",
          "midi": 54,
          "time": 205.75000000000244,
          "velocity": 0.5039370078740157,
          "duration": 0.10833333333334849
        },
        {
          "name": "G#2",
          "midi": 44,
          "time": 209.00000000000244,
          "velocity": 0.5039370078740157,
          "duration": 0.10833333333332007
        }
      ],
      "controlChanges": {
        "7": [
          {
            "number": 7,
            "time": 0,
            "value": 0.8188976377952756
          },
          {
            "number": 7,
            "time": 20.1,
            "value": 0.8267716535433071
          },
          {
            "number": 7,
            "time": 20.200000000000003,
            "value": 0.8188976377952756
          },
          {
            "number": 7,
            "time": 24.099999999999998,
            "value": 0.8267716535433071
          },
          {
            "number": 7,
            "time": 24.23333333333333,
            "value": 0.8188976377952756
          },
          {
            "number": 7,
            "time": 27.99999999999999,
            "value": 0.8267716535433071
          },
          {
            "number": 7,
            "time": 28.099999999999987,
            "value": 0.8188976377952756
          },
          {
            "number": 7,
            "time": 56.03333333333328,
            "value": 0.8267716535433071
          },
          {
            "number": 7,
            "time": 56.13333333333328,
            "value": 0.8188976377952756
          },
          {
            "number": 7,
            "time": 92.13333333333402,
            "value": 0.8267716535433071
          },
          {
            "number": 7,
            "time": 92.26666666666735,
            "value": 0.8188976377952756
          },
          {
            "number": 7,
            "time": 96.06666666666746,
            "value": 0.8267716535433071
          },
          {
            "number": 7,
            "time": 96.23333333333412,
            "value": 0.8188976377952756
          },
          {
            "number": 7,
            "time": 156.26666666666878,
            "value": 0.8267716535433071
          },
          {
            "number": 7,
            "time": 156.4000000000021,
            "value": 0.8188976377952756
          },
          {
            "number": 7,
            "time": 160.06666666666877,
            "value": 0.8267716535433071
          },
          {
            "number": 7,
            "time": 160.23333333333545,
            "value": 0.8188976377952756
          },
          {
            "number": 7,
            "time": 202.06666666666922,
            "value": 0.8267716535433071
          },
          {
            "number": 7,
            "time": 202.10000000000255,
            "value": 0.8188976377952756
          },
          {
            "number": 7,
            "time": 207.93333333333578,
            "value": 0
          },
          {
            "number": 7,
            "time": 210.03333333333578,
            "value": 0.8188976377952756
          }
        ],
        "10": [
          {
            "number": 10,
            "time": 0,
            "value": 0.5039370078740157
          }
        ],
        "91": [
          {
            "number": 91,
            "time": 0,
            "value": 0.31496062992125984
          }
        ],
        "93": [
          {
            "number": 93,
            "time": 0,
            "value": 0
          }
        ]
      },
      "id": 0,
      "name": "1",
      "instrumentNumber": 0,
      "instrument": "standard kit",
      "instrumentFamily": "drums",
      "channelNumber": 9,
      "isPercussion": true
    },
    {
      "startTime": 12,
      "duration": 197.93333333333334,
      "length": 184,
      "notes": [
        {
          "name": "D3",
          "midi": 50,
          "time": 12,
          "velocity": 0.8346456692913385,
          "duration": 1.9000000000000004
        },
        {
          "name": "G3",
          "midi": 55,
          "time": 12,
          "velocity": 0.5039370078740157,
          "duration": 1.9333333333333336
        },
        {
          "name": "G2",
          "midi": 43,
          "time": 12,
          "velocity": 0.8346456692913385,
          "duration": 1.9000000000000004
        },
        {
          "name": "A#2",
          "midi": 46,
          "time": 14,
          "velocity": 0.8346456692913385,
          "duration": 1.9000000000000004
        },
        {
          "name": "A#3",
          "midi": 58,
          "time": 14,
          "velocity": 0.5039370078740157,
          "duration": 1.9333333333333336
        },
        {
          "name": "F3",
          "midi": 53,
          "time": 14,
          "velocity": 0.8346456692913385,
          "duration": 1.9000000000000004
        },
        {
          "name": "F4",
          "midi": 65,
          "time": 16,
          "velocity": 0.5039370078740157,
          "duration": 1.9333333333333336
        },
        {
          "name": "F3",
          "midi": 53,
          "time": 16,
          "velocity": 0.8346456692913385,
          "duration": 1.8999999999999986
        },
        {
          "name": "C4",
          "midi": 60,
          "time": 16,
          "velocity": 0.8346456692913385,
          "duration": 1.8999999999999986
        },
        {
          "name": "C3",
          "midi": 48,
          "time": 18,
          "velocity": 0.8346456692913385,
          "duration": 1.9666666666666686
        },
        {
          "name": "G3",
          "midi": 55,
          "time": 18,
          "velocity": 0.8346456692913385,
          "duration": 1.8999999999999986
        },
        {
          "name": "C4",
          "midi": 60,
          "time": 18,
          "velocity": 0.5039370078740157,
          "duration": 1.9333333333333336
        },
        {
          "name": "G2",
          "midi": 43,
          "time": 20.000000000000004,
          "velocity": 0.8346456692913385,
          "duration": 1.8999999999999986
        },
        {
          "name": "D3",
          "midi": 50,
          "time": 20.000000000000004,
          "velocity": 0.8346456692913385,
          "duration": 1.8999999999999986
        },
        {
          "name": "G3",
          "midi": 55,
          "time": 20.000000000000004,
          "velocity": 0.5039370078740157,
          "duration": 1.9333333333333336
        },
        {
          "name": "A#3",
          "midi": 58,
          "time": 22.000000000000004,
          "velocity": 0.5039370078740157,
          "duration": 1.9333333333333336
        },
        {
          "name": "A#2",
          "midi": 46,
          "time": 22.000000000000004,
          "velocity": 0.8346456692913385,
          "duration": 1.8999999999999986
        },
        {
          "name": "F3",
          "midi": 53,
          "time": 22.000000000000004,
          "velocity": 0.8346456692913385,
          "duration": 1.8999999999999986
        },
        {
          "name": "F3",
          "midi": 53,
          "time": 24.000000000000004,
          "velocity": 0.8346456692913385,
          "duration": 1.8999999999999986
        },
        {
          "name": "C4",
          "midi": 60,
          "time": 24.000000000000004,
          "velocity": 0.8346456692913385,
          "duration": 1.8999999999999986
        },
        {
          "name": "F4",
          "midi": 65,
          "time": 24.000000000000004,
          "velocity": 0.5039370078740157,
          "duration": 1.9333333333333336
        },
        {
          "name": "C3",
          "midi": 48,
          "time": 26.000000000000004,
          "velocity": 0.8346456692913385,
          "duration": 1.9666666666666686
        },
        {
          "name": "C4",
          "midi": 60,
          "time": 26.000000000000004,
          "velocity": 0.5039370078740157,
          "duration": 1.9333333333333336
        },
        {
          "name": "G3",
          "midi": 55,
          "time": 26.000000000000004,
          "velocity": 0.8346456692913385,
          "duration": 1.8999999999999986
        },
        {
          "name": "D3",
          "midi": 50,
          "time": 28.000000000000007,
          "velocity": 0.8346456692913385,
          "duration": 1.8999999999999986
        },
        {
          "name": "G3",
          "midi": 55,
          "time": 28.000000000000007,
          "velocity": 0.5039370078740157,
          "duration": 1.9333333333333336
        },
        {
          "name": "G2",
          "midi": 43,
          "time": 28.000000000000007,
          "velocity": 0.8346456692913385,
          "duration": 1.8999999999999986
        },
        {
          "name": "A#2",
          "midi": 46,
          "time": 30.000000000000007,
          "velocity": 0.8346456692913385,
          "duration": 1.8999999999999986
        },
        {
          "name": "F3",
          "midi": 53,
          "time": 30.000000000000007,
          "velocity": 0.8346456692913385,
          "duration": 1.8999999999999986
        },
        {
          "name": "A#3",
          "midi": 58,
          "time": 30.000000000000007,
          "velocity": 0.5039370078740157,
          "duration": 1.9333333333333336
        },
        {
          "name": "F4",
          "midi": 65,
          "time": 32.00000000000001,
          "velocity": 0.5039370078740157,
          "duration": 1.93333333333333
        },
        {
          "name": "F3",
          "midi": 53,
          "time": 32.00000000000001,
          "velocity": 0.8346456692913385,
          "duration": 1.8999999999999986
        },
        {
          "name": "C4",
          "midi": 60,
          "time": 32.00000000000001,
          "velocity": 0.8346456692913385,
          "duration": 1.8999999999999986
        },
        {
          "name": "C3",
          "midi": 48,
          "time": 34.00000000000001,
          "velocity": 0.8346456692913385,
          "duration": 1.9666666666666615
        },
        {
          "name": "C4",
          "midi": 60,
          "time": 34.00000000000001,
          "velocity": 0.5039370078740157,
          "duration": 1.93333333333333
        },
        {
          "name": "G3",
          "midi": 55,
          "time": 34.00000000000001,
          "velocity": 0.8346456692913385,
          "duration": 1.8999999999999986
        },
        {
          "name": "G2",
          "midi": 43,
          "time": 36,
          "velocity": 0.8346456692913385,
          "duration": 1.8999999999999986
        },
        {
          "name": "D3",
          "midi": 50,
          "time": 36,
          "velocity": 0.8346456692913385,
          "duration": 1.8999999999999986
        },
        {
          "name": "G3",
          "midi": 55,
          "time": 36,
          "velocity": 0.5039370078740157,
          "duration": 1.93333333333333
        },
        {
          "name": "F3",
          "midi": 53,
          "time": 38,
          "velocity": 0.8346456692913385,
          "duration": 1.8999999999999986
        },
        {
          "name": "A#3",
          "midi": 58,
          "time": 38,
          "velocity": 0.5039370078740157,
          "duration": 1.93333333333333
        },
        {
          "name": "A#2",
          "midi": 46,
          "time": 38,
          "velocity": 0.8346456692913385,
          "duration": 1.8999999999999986
        },
        {
          "name": "F3",
          "midi": 53,
          "time": 40,
          "velocity": 0.8346456692913385,
          "duration": 1.8999999999999986
        },
        {
          "name": "C4",
          "midi": 60,
          "time": 40,
          "velocity": 0.8346456692913385,
          "duration": 1.8999999999999986
        },
        {
          "name": "F4",
          "midi": 65,
          "time": 40,
          "velocity": 0.5039370078740157,
          "duration": 1.93333333333333
        },
        {
          "name": "C4",
          "midi": 60,
          "time": 42,
          "velocity": 0.5039370078740157,
          "duration": 1.93333333333333
        },
        {
          "name": "G3",
          "midi": 55,
          "time": 42,
          "velocity": 0.8346456692913385,
          "duration": 1.8999999999999986
        },
        {
          "name": "C3",
          "midi": 48,
          "time": 42,
          "velocity": 0.8346456692913385,
          "duration": 1.9666666666666615
        },
        {
          "name": "D5",
          "midi": 74,
          "time": 64,
          "velocity": 0.8346456692913385,
          "duration": 0.9333333333333371
        },
        {
          "name": "D5",
          "midi": 74,
          "time": 65,
          "velocity": 0.8346456692913385,
          "duration": 0.9333333333333371
        },
        {
          "name": "D5",
          "midi": 74,
          "time": 66,
          "velocity": 0.8346456692913385,
          "duration": 0.9333333333333371
        },
        {
          "name": "D5",
          "midi": 74,
          "time": 67,
          "velocity": 0.8346456692913385,
          "duration": 0.9333333333333371
        },
        {
          "name": "D5",
          "midi": 74,
          "time": 68,
          "velocity": 0.8346456692913385,
          "duration": 0.9333333333333371
        },
        {
          "name": "D5",
          "midi": 74,
          "time": 69,
          "velocity": 0.8346456692913385,
          "duration": 0.9333333333333371
        },
        {
          "name": "D5",
          "midi": 74,
          "time": 70,
          "velocity": 0.8346456692913385,
          "duration": 1.9666666666666686
        },
        {
          "name": "G2",
          "midi": 43,
          "time": 72,
          "velocity": 0.8346456692913385,
          "duration": 1.9000000000000057
        },
        {
          "name": "D3",
          "midi": 50,
          "time": 72,
          "velocity": 0.8346456692913385,
          "duration": 1.9000000000000057
        },
        {
          "name": "G3",
          "midi": 55,
          "time": 72,
          "velocity": 0.5039370078740157,
          "duration": 1.9333333333333371
        },
        {
          "name": "F3",
          "midi": 53,
          "time": 74,
          "velocity": 0.8346456692913385,
          "duration": 1.9000000000000057
        },
        {
          "name": "A#2",
          "midi": 46,
          "time": 74,
          "velocity": 0.8346456692913385,
          "duration": 1.9000000000000057
        },
        {
          "name": "A#3",
          "midi": 58,
          "time": 74,
          "velocity": 0.5039370078740157,
          "duration": 1.9333333333333371
        },
        {
          "name": "C4",
          "midi": 60,
          "time": 76,
          "velocity": 0.8346456692913385,
          "duration": 1.9000000000000057
        },
        {
          "name": "F4",
          "midi": 65,
          "time": 76,
          "velocity": 0.5039370078740157,
          "duration": 1.9333333333333371
        },
        {
          "name": "F3",
          "midi": 53,
          "time": 76,
          "velocity": 0.8346456692913385,
          "duration": 1.9000000000000057
        },
        {
          "name": "C4",
          "midi": 60,
          "time": 78,
          "velocity": 0.5039370078740157,
          "duration": 1.9333333333333371
        },
        {
          "name": "C3",
          "midi": 48,
          "time": 78,
          "velocity": 0.8346456692913385,
          "duration": 1.9666666666666686
        },
        {
          "name": "G3",
          "midi": 55,
          "time": 78,
          "velocity": 0.8346456692913385,
          "duration": 1.9000000000000057
        },
        {
          "name": "G3",
          "midi": 55,
          "time": 80,
          "velocity": 0.5039370078740157,
          "duration": 1.9333333333333371
        },
        {
          "name": "D3",
          "midi": 50,
          "time": 80,
          "velocity": 0.8346456692913385,
          "duration": 1.9000000000000057
        },
        {
          "name": "G2",
          "midi": 43,
          "time": 80,
          "velocity": 0.8346456692913385,
          "duration": 1.9000000000000057
        },
        {
          "name": "A#3",
          "midi": 58,
          "time": 82,
          "velocity": 0.5039370078740157,
          "duration": 1.9333333333333371
        },
        {
          "name": "F3",
          "midi": 53,
          "time": 82,
          "velocity": 0.8346456692913385,
          "duration": 1.9000000000000057
        },
        {
          "name": "A#2",
          "midi": 46,
          "time": 82,
          "velocity": 0.8346456692913385,
          "duration": 1.9000000000000057
        },
        {
          "name": "F3",
          "midi": 53,
          "time": 84,
          "velocity": 0.8346456692913385,
          "duration": 1.9000000000000057
        },
        {
          "name": "C4",
          "midi": 60,
          "time": 84,
          "velocity": 0.8346456692913385,
          "duration": 1.9000000000000057
        },
        {
          "name": "F4",
          "midi": 65,
          "time": 84,
          "velocity": 0.5039370078740157,
          "duration": 1.9333333333333371
        },
        {
          "name": "G3",
          "midi": 55,
          "time": 86,
          "velocity": 0.8346456692913385,
          "duration": 1.9000000000000057
        },
        {
          "name": "C3",
          "midi": 48,
          "time": 86,
          "velocity": 0.8346456692913385,
          "duration": 1.9666666666666686
        },
        {
          "name": "C4",
          "midi": 60,
          "time": 86,
          "velocity": 0.5039370078740157,
          "duration": 1.9333333333333371
        },
        {
          "name": "D5",
          "midi": 74,
          "time": 104,
          "velocity": 0.8346456692913385,
          "duration": 0.9333333333333371
        },
        {
          "name": "D5",
          "midi": 74,
          "time": 105,
          "velocity": 0.8346456692913385,
          "duration": 0.9333333333333371
        },
        {
          "name": "D5",
          "midi": 74,
          "time": 106,
          "velocity": 0.8346456692913385,
          "duration": 0.9333333333333371
        },
        {
          "name": "D5",
          "midi": 74,
          "time": 107,
          "velocity": 0.8346456692913385,
          "duration": 0.9333333333333371
        },
        {
          "name": "D5",
          "midi": 74,
          "time": 108,
          "velocity": 0.8346456692913385,
          "duration": 0.9333333333333371
        },
        {
          "name": "D5",
          "midi": 74,
          "time": 109,
          "velocity": 0.8346456692913385,
          "duration": 0.9333333333333371
        },
        {
          "name": "D5",
          "midi": 74,
          "time": 110,
          "velocity": 0.8346456692913385,
          "duration": 1.9666666666666686
        },
        {
          "name": "G2",
          "midi": 43,
          "time": 112,
          "velocity": 0.8346456692913385,
          "duration": 1.9000000000000057
        },
        {
          "name": "G3",
          "midi": 55,
          "time": 112,
          "velocity": 0.5039370078740157,
          "duration": 1.9333333333333371
        },
        {
          "name": "D3",
          "midi": 50,
          "time": 112,
          "velocity": 0.8346456692913385,
          "duration": 1.9000000000000057
        },
        {
          "name": "F3",
          "midi": 53,
          "time": 114,
          "velocity": 0.8346456692913385,
          "duration": 1.9000000000000057
        },
        {
          "name": "A#2",
          "midi": 46,
          "time": 114,
          "velocity": 0.8346456692913385,
          "duration": 1.9000000000000057
        },
        {
          "name": "A#3",
          "midi": 58,
          "time": 114,
          "velocity": 0.5039370078740157,
          "duration": 1.9333333333333371
        },
        {
          "name": "F4",
          "midi": 65,
          "time": 116,
          "velocity": 0.5039370078740157,
          "duration": 1.9333333333333371
        },
        {
          "name": "F3",
          "midi": 53,
          "time": 116,
          "velocity": 0.8346456692913385,
          "duration": 1.9000000000000057
        },
        {
          "name": "C4",
          "midi": 60,
          "time": 116,
          "velocity": 0.8346456692913385,
          "duration": 1.9000000000000057
        },
        {
          "name": "C3",
          "midi": 48,
          "time": 118,
          "velocity": 0.8346456692913385,
          "duration": 1.9666666666666686
        },
        {
          "name": "C4",
          "midi": 60,
          "time": 118,
          "velocity": 0.5039370078740157,
          "duration": 1.9333333333333371
        },
        {
          "name": "G3",
          "midi": 55,
          "time": 118,
          "velocity": 0.8346456692913385,
          "duration": 1.9000000000000057
        },
        {
          "name": "D3",
          "midi": 50,
          "time": 120,
          "velocity": 0.8346456692913385,
          "duration": 1.9000000000000057
        },
        {
          "name": "G2",
          "midi": 43,
          "time": 120,
          "velocity": 0.8346456692913385,
          "duration": 1.9000000000000057
        },
        {
          "name": "G3",
          "midi": 55,
          "time": 120,
          "velocity": 0.5039370078740157,
          "duration": 1.9333333333333371
        },
        {
          "name": "A#3",
          "midi": 58,
          "time": 122,
          "velocity": 0.5039370078740157,
          "duration": 1.9333333333333371
        },
        {
          "name": "A#2",
          "midi": 46,
          "time": 122,
          "velocity": 0.8346456692913385,
          "duration": 1.9000000000000057
        },
        {
          "name": "F3",
          "midi": 53,
          "time": 122,
          "velocity": 0.8346456692913385,
          "duration": 1.9000000000000057
        },
        {
          "name": "C4",
          "midi": 60,
          "time": 124,
          "velocity": 0.8346456692913385,
          "duration": 1.9000000000000057
        },
        {
          "name": "F4",
          "midi": 65,
          "time": 124,
          "velocity": 0.5039370078740157,
          "duration": 1.9333333333333371
        },
        {
          "name": "F3",
          "midi": 53,
          "time": 124,
          "velocity": 0.8346456692913385,
          "duration": 1.9000000000000057
        },
        {
          "name": "C3",
          "midi": 48,
          "time": 126,
          "velocity": 0.8346456692913385,
          "duration": 0.9333333333333371
        },
        {
          "name": "D3",
          "midi": 50,
          "time": 127,
          "velocity": 0.8346456692913385,
          "duration": 0.9833333333333343
        },
        {
          "name": "D#3",
          "midi": 51,
          "time": 128,
          "velocity": 0.8346456692913385,
          "duration": 0.9666666666666686
        },
        {
          "name": "D3",
          "midi": 50,
          "time": 129,
          "velocity": 0.8346456692913385,
          "duration": 0.9499999999999886
        },
        {
          "name": "D3",
          "midi": 50,
          "time": 130,
          "velocity": 0.8346456692913385,
          "duration": 1.9000000000000057
        },
        {
          "name": "G3",
          "midi": 55,
          "time": 130,
          "velocity": 0.5039370078740157,
          "duration": 1.9333333333333371
        },
        {
          "name": "G2",
          "midi": 43,
          "time": 130,
          "velocity": 0.8346456692913385,
          "duration": 1.9000000000000057
        },
        {
          "name": "A#3",
          "midi": 58,
          "time": 132,
          "velocity": 0.5039370078740157,
          "duration": 1.9333333333333371
        },
        {
          "name": "A#2",
          "midi": 46,
          "time": 132,
          "velocity": 0.8346456692913385,
          "duration": 1.9000000000000057
        },
        {
          "name": "F3",
          "midi": 53,
          "time": 132,
          "velocity": 0.8346456692913385,
          "duration": 1.9000000000000057
        },
        {
          "name": "F4",
          "midi": 65,
          "time": 134,
          "velocity": 0.5039370078740157,
          "duration": 1.9333333333333371
        },
        {
          "name": "F3",
          "midi": 53,
          "time": 134,
          "velocity": 0.8346456692913385,
          "duration": 1.9000000000000057
        },
        {
          "name": "C4",
          "midi": 60,
          "time": 134,
          "velocity": 0.8346456692913385,
          "duration": 1.9000000000000057
        },
        {
          "name": "G3",
          "midi": 55,
          "time": 136,
          "velocity": 0.8346456692913385,
          "duration": 1.9000000000000057
        },
        {
          "name": "C4",
          "midi": 60,
          "time": 136,
          "velocity": 0.5039370078740157,
          "duration": 1.9333333333333371
        },
        {
          "name": "C3",
          "midi": 48,
          "time": 136,
          "velocity": 0.8346456692913385,
          "duration": 1.9666666666666686
        },
        {
          "name": "G3",
          "midi": 55,
          "time": 138,
          "velocity": 0.5039370078740157,
          "duration": 1.9333333333333371
        },
        {
          "name": "G2",
          "midi": 43,
          "time": 138,
          "velocity": 0.8346456692913385,
          "duration": 1.9000000000000057
        },
        {
          "name": "D3",
          "midi": 50,
          "time": 138,
          "velocity": 0.8346456692913385,
          "duration": 1.9000000000000057
        },
        {
          "name": "A#2",
          "midi": 46,
          "time": 140,
          "velocity": 0.8346456692913385,
          "duration": 1.9000000000000057
        },
        {
          "name": "A#3",
          "midi": 58,
          "time": 140,
          "velocity": 0.5039370078740157,
          "duration": 1.9333333333333371
        },
        {
          "name": "F3",
          "midi": 53,
          "time": 140,
          "velocity": 0.8346456692913385,
          "duration": 1.9000000000000057
        },
        {
          "name": "F3",
          "midi": 53,
          "time": 142,
          "velocity": 0.8346456692913385,
          "duration": 1.9000000000000057
        },
        {
          "name": "C4",
          "midi": 60,
          "time": 142,
          "velocity": 0.8346456692913385,
          "duration": 1.9000000000000057
        },
        {
          "name": "F4",
          "midi": 65,
          "time": 142,
          "velocity": 0.5039370078740157,
          "duration": 1.9333333333333371
        },
        {
          "name": "C3",
          "midi": 48,
          "time": 144,
          "velocity": 0.8346456692913385,
          "duration": 0.9166666666666572
        },
        {
          "name": "D3",
          "midi": 50,
          "time": 145,
          "velocity": 0.8346456692913385,
          "duration": 0.9166666666666572
        },
        {
          "name": "D#3",
          "midi": 51,
          "time": 146,
          "velocity": 0.8346456692913385,
          "duration": 0.9666666666666686
        },
        {
          "name": "F3",
          "midi": 53,
          "time": 147,
          "velocity": 0.8346456692913385,
          "duration": 0.9833333333333201
        },
        {
          "name": "G3",
          "midi": 55,
          "time": 166,
          "velocity": 0.5039370078740157,
          "duration": 1.9333333333333371
        },
        {
          "name": "G2",
          "midi": 43,
          "time": 166,
          "velocity": 0.8346456692913385,
          "duration": 1.9000000000000057
        },
        {
          "name": "D3",
          "midi": 50,
          "time": 166,
          "velocity": 0.8346456692913385,
          "duration": 1.9000000000000057
        },
        {
          "name": "A#2",
          "midi": 46,
          "time": 168,
          "velocity": 0.8346456692913385,
          "duration": 1.9000000000000057
        },
        {
          "name": "F3",
          "midi": 53,
          "time": 168,
          "velocity": 0.8346456692913385,
          "duration": 1.9000000000000057
        },
        {
          "name": "A#3",
          "midi": 58,
          "time": 168,
          "velocity": 0.5039370078740157,
          "duration": 1.9333333333333371
        },
        {
          "name": "F4",
          "midi": 65,
          "time": 170,
          "velocity": 0.5039370078740157,
          "duration": 1.9333333333333371
        },
        {
          "name": "F3",
          "midi": 53,
          "time": 170,
          "velocity": 0.8346456692913385,
          "duration": 1.9000000000000057
        },
        {
          "name": "C4",
          "midi": 60,
          "time": 170,
          "velocity": 0.8346456692913385,
          "duration": 1.9000000000000057
        },
        {
          "name": "C4",
          "midi": 60,
          "time": 172,
          "velocity": 0.5039370078740157,
          "duration": 1.9333333333333371
        },
        {
          "name": "G3",
          "midi": 55,
          "time": 172,
          "velocity": 0.8346456692913385,
          "duration": 1.9000000000000057
        },
        {
          "name": "C3",
          "midi": 48,
          "time": 172,
          "velocity": 0.8346456692913385,
          "duration": 1.9666666666666686
        },
        {
          "name": "D3",
          "midi": 50,
          "time": 174,
          "velocity": 0.8346456692913385,
          "duration": 1.9000000000000057
        },
        {
          "name": "G2",
          "midi": 43,
          "time": 174,
          "velocity": 0.8346456692913385,
          "duration": 1.9000000000000057
        },
        {
          "name": "G3",
          "midi": 55,
          "time": 174,
          "velocity": 0.5039370078740157,
          "duration": 1.9333333333333371
        },
        {
          "name": "F3",
          "midi": 53,
          "time": 176,
          "velocity": 0.8346456692913385,
          "duration": 1.9000000000000057
        },
        {
          "name": "A#2",
          "midi": 46,
          "time": 176,
          "velocity": 0.8346456692913385,
          "duration": 1.9000000000000057
        },
        {
          "name": "A#3",
          "midi": 58,
          "time": 176,
          "velocity": 0.5039370078740157,
          "duration": 1.9333333333333371
        },
        {
          "name": "F3",
          "midi": 53,
          "time": 178,
          "velocity": 0.8346456692913385,
          "duration": 1.9000000000000057
        },
        {
          "name": "F4",
          "midi": 65,
          "time": 178,
          "velocity": 0.5039370078740157,
          "duration": 1.9333333333333371
        },
        {
          "name": "C4",
          "midi": 60,
          "time": 178,
          "velocity": 0.8346456692913385,
          "duration": 1.9000000000000057
        },
        {
          "name": "C4",
          "midi": 60,
          "time": 180,
          "velocity": 0.5039370078740157,
          "duration": 1.9333333333333371
        },
        {
          "name": "G3",
          "midi": 55,
          "time": 180,
          "velocity": 0.8346456692913385,
          "duration": 1.9000000000000057
        },
        {
          "name": "C3",
          "midi": 48,
          "time": 180,
          "velocity": 0.8346456692913385,
          "duration": 1.9666666666666686
        },
        {
          "name": "D3",
          "midi": 50,
          "time": 182,
          "velocity": 0.8346456692913385,
          "duration": 1.9000000000000057
        },
        {
          "name": "G2",
          "midi": 43,
          "time": 182,
          "velocity": 0.8346456692913385,
          "duration": 1.9000000000000057
        },
        {
          "name": "G3",
          "midi": 55,
          "time": 182,
          "velocity": 0.5039370078740157,
          "duration": 1.9333333333333371
        },
        {
          "name": "A#2",
          "midi": 46,
          "time": 184,
          "velocity": 0.8346456692913385,
          "duration": 1.9000000000000057
        },
        {
          "name": "F3",
          "midi": 53,
          "time": 184,
          "velocity": 0.8346456692913385,
          "duration": 1.9000000000000057
        },
        {
          "name": "A#3",
          "midi": 58,
          "time": 184,
          "velocity": 0.5039370078740157,
          "duration": 1.9333333333333371
        },
        {
          "name": "F3",
          "midi": 53,
          "time": 186,
          "velocity": 0.8346456692913385,
          "duration": 1.9000000000000057
        },
        {
          "name": "C4",
          "midi": 60,
          "time": 186,
          "velocity": 0.8346456692913385,
          "duration": 1.9000000000000057
        },
        {
          "name": "F4",
          "midi": 65,
          "time": 186,
          "velocity": 0.5039370078740157,
          "duration": 1.9333333333333371
        },
        {
          "name": "C3",
          "midi": 48,
          "time": 188,
          "velocity": 0.8346456692913385,
          "duration": 1.9666666666666686
        },
        {
          "name": "G3",
          "midi": 55,
          "time": 188,
          "velocity": 0.8346456692913385,
          "duration": 1.9000000000000057
        },
        {
          "name": "C4",
          "midi": 60,
          "time": 188,
          "velocity": 0.5039370078740157,
          "duration": 1.9333333333333371
        },
        {
          "name": "G2",
          "midi": 43,
          "time": 190,
          "velocity": 0.8346456692913385,
          "duration": 1.9000000000000057
        },
        {
          "name": "G3",
          "midi": 55,
          "time": 190,
          "velocity": 0.5039370078740157,
          "duration": 1.9333333333333371
        },
        {
          "name": "D3",
          "midi": 50,
          "time": 190,
          "velocity": 0.8346456692913385,
          "duration": 1.9000000000000057
        },
        {
          "name": "A#3",
          "midi": 58,
          "time": 192,
          "velocity": 0.5039370078740157,
          "duration": 1.9333333333333371
        },
        {
          "name": "F3",
          "midi": 53,
          "time": 192,
          "velocity": 0.8346456692913385,
          "duration": 1.9000000000000057
        },
        {
          "name": "A#2",
          "midi": 46,
          "time": 192,
          "velocity": 0.8346456692913385,
          "duration": 1.9000000000000057
        },
        {
          "name": "F3",
          "midi": 53,
          "time": 194,
          "velocity": 0.8346456692913385,
          "duration": 1.9000000000000057
        },
        {
          "name": "F4",
          "midi": 65,
          "time": 194,
          "velocity": 0.5039370078740157,
          "duration": 1.9333333333333371
        },
        {
          "name": "C4",
          "midi": 60,
          "time": 194,
          "velocity": 0.8346456692913385,
          "duration": 1.9000000000000057
        },
        {
          "name": "C3",
          "midi": 48,
          "time": 196,
          "velocity": 0.8346456692913385,
          "duration": 1.9666666666666686
        },
        {
          "name": "G3",
          "midi": 55,
          "time": 196,
          "velocity": 0.8346456692913385,
          "duration": 1.9000000000000057
        },
        {
          "name": "C4",
          "midi": 60,
          "time": 196,
          "velocity": 0.5039370078740157,
          "duration": 1.9333333333333371
        }
      ],
      "controlChanges": {
        "7": [
          {
            "number": 7,
            "time": 0,
            "value": 0.7007874015748031
          }
        ],
        "10": [
          {
            "number": 10,
            "time": 0,
            "value": 0.5039370078740157
          }
        ],
        "91": [
          {
            "number": 91,
            "time": 0,
            "value": 0.31496062992125984
          }
        ],
        "93": [
          {
            "number": 93,
            "time": 0,
            "value": 0
          }
        ]
      },
      "id": 1,
      "name": "2",
      "instrumentNumber": 1,
      "instrument": "bright acoustic piano",
      "instrumentFamily": "piano",
      "channelNumber": 1,
      "isPercussion": false
    },
    {
      "startTime": 8,
      "duration": 207.9666666666667,
      "length": 657,
      "notes": [
        {
          "name": "G4",
          "midi": 67,
          "time": 8,
          "velocity": 0.8346456692913385,
          "duration": 0.2833333333333332
        },
        {
          "name": "D5",
          "midi": 74,
          "time": 8.25,
          "velocity": 0.8346456692913385,
          "duration": 0.31666666666666643
        },
        {
          "name": "G4",
          "midi": 67,
          "time": 8.5,
          "velocity": 0.8346456692913385,
          "duration": 0.2833333333333332
        },
        {
          "name": "D5",
          "midi": 74,
          "time": 8.75,
          "velocity": 0.8346456692913385,
          "duration": 0.3000000000000007
        },
        {
          "name": "D#5",
          "midi": 75,
          "time": 9,
          "velocity": 0.8346456692913385,
          "duration": 0.31666666666666643
        },
        {
          "name": "D5",
          "midi": 74,
          "time": 9.25,
          "velocity": 0.8346456692913385,
          "duration": 0.3333333333333339
        },
        {
          "name": "G4",
          "midi": 67,
          "time": 9.5,
          "velocity": 0.8346456692913385,
          "duration": 0.3000000000000007
        },
        {
          "name": "D5",
          "midi": 74,
          "time": 9.75,
          "velocity": 0.8346456692913385,
          "duration": 0.36666666666666714
        },
        {
          "name": "G4",
          "midi": 67,
          "time": 10,
          "velocity": 0.8346456692913385,
          "duration": 0.2833333333333332
        },
        {
          "name": "D5",
          "midi": 74,
          "time": 10.25,
          "velocity": 0.8346456692913385,
          "duration": 0.31666666666666643
        },
        {
          "name": "G4",
          "midi": 67,
          "time": 10.5,
          "velocity": 0.8346456692913385,
          "duration": 0.2833333333333332
        },
        {
          "name": "D5",
          "midi": 74,
          "time": 10.75,
          "velocity": 0.8346456692913385,
          "duration": 0.3000000000000007
        },
        {
          "name": "D#5",
          "midi": 75,
          "time": 11,
          "velocity": 0.8346456692913385,
          "duration": 0.31666666666666643
        },
        {
          "name": "D5",
          "midi": 74,
          "time": 11.25,
          "velocity": 0.8346456692913385,
          "duration": 0.3333333333333339
        },
        {
          "name": "G4",
          "midi": 67,
          "time": 11.5,
          "velocity": 0.8346456692913385,
          "duration": 0.3000000000000007
        },
        {
          "name": "D5",
          "midi": 74,
          "time": 11.75,
          "velocity": 0.8346456692913385,
          "duration": 0.34999999999999964
        },
        {
          "name": "G4",
          "midi": 67,
          "time": 12,
          "velocity": 0.8346456692913385,
          "duration": 0.2833333333333332
        },
        {
          "name": "D5",
          "midi": 74,
          "time": 12.25,
          "velocity": 0.8346456692913385,
          "duration": 0.31666666666666643
        },
        {
          "name": "G4",
          "midi": 67,
          "time": 12.5,
          "velocity": 0.8346456692913385,
          "duration": 0.2833333333333332
        },
        {
          "name": "D5",
          "midi": 74,
          "time": 12.75,
          "velocity": 0.8346456692913385,
          "duration": 0.3000000000000007
        },
        {
          "name": "D#5",
          "midi": 75,
          "time": 13,
          "velocity": 0.8346456692913385,
          "duration": 0.31666666666666643
        },
        {
          "name": "D5",
          "midi": 74,
          "time": 13.25,
          "velocity": 0.8346456692913385,
          "duration": 0.3333333333333339
        },
        {
          "name": "G4",
          "midi": 67,
          "time": 13.5,
          "velocity": 0.8346456692913385,
          "duration": 0.3000000000000007
        },
        {
          "name": "D5",
          "midi": 74,
          "time": 13.75,
          "velocity": 0.8346456692913385,
          "duration": 0.31666666666666643
        },
        {
          "name": "G4",
          "midi": 67,
          "time": 14,
          "velocity": 0.8346456692913385,
          "duration": 0.2833333333333332
        },
        {
          "name": "D5",
          "midi": 74,
          "time": 14.25,
          "velocity": 0.8346456692913385,
          "duration": 0.31666666666666643
        },
        {
          "name": "G4",
          "midi": 67,
          "time": 14.5,
          "velocity": 0.8346456692913385,
          "duration": 0.2833333333333332
        },
        {
          "name": "D5",
          "midi": 74,
          "time": 14.75,
          "velocity": 0.8346456692913385,
          "duration": 0.3000000000000007
        },
        {
          "name": "D#5",
          "midi": 75,
          "time": 15,
          "velocity": 0.8346456692913385,
          "duration": 0.31666666666666643
        },
        {
          "name": "D5",
          "midi": 74,
          "time": 15.25,
          "velocity": 0.8346456692913385,
          "duration": 0.3333333333333339
        },
        {
          "name": "G4",
          "midi": 67,
          "time": 15.5,
          "velocity": 0.8346456692913385,
          "duration": 0.3000000000000007
        },
        {
          "name": "D5",
          "midi": 74,
          "time": 15.75,
          "velocity": 0.8346456692913385,
          "duration": 0.31666666666666643
        },
        {
          "name": "G4",
          "midi": 67,
          "time": 16,
          "velocity": 0.8346456692913385,
          "duration": 0.283333333333335
        },
        {
          "name": "D5",
          "midi": 74,
          "time": 16.25,
          "velocity": 0.8346456692913385,
          "duration": 0.31666666666666643
        },
        {
          "name": "G4",
          "midi": 67,
          "time": 16.5,
          "velocity": 0.8346456692913385,
          "duration": 0.283333333333335
        },
        {
          "name": "D5",
          "midi": 74,
          "time": 16.75,
          "velocity": 0.8346456692913385,
          "duration": 0.3000000000000007
        },
        {
          "name": "D#5",
          "midi": 75,
          "time": 17,
          "velocity": 0.8346456692913385,
          "duration": 0.31666666666666643
        },
        {
          "name": "D5",
          "midi": 74,
          "time": 17.25,
          "velocity": 0.8346456692913385,
          "duration": 0.33333333333333215
        },
        {
          "name": "G4",
          "midi": 67,
          "time": 17.5,
          "velocity": 0.8346456692913385,
          "duration": 0.3000000000000007
        },
        {
          "name": "D5",
          "midi": 74,
          "time": 17.75,
          "velocity": 0.8346456692913385,
          "duration": 0.31666666666666643
        },
        {
          "name": "G4",
          "midi": 67,
          "time": 18,
          "velocity": 0.8346456692913385,
          "duration": 0.283333333333335
        },
        {
          "name": "D5",
          "midi": 74,
          "time": 18.25,
          "velocity": 0.8346456692913385,
          "duration": 0.31666666666666643
        },
        {
          "name": "G4",
          "midi": 67,
          "time": 18.5,
          "velocity": 0.8346456692913385,
          "duration": 0.283333333333335
        },
        {
          "name": "D5",
          "midi": 74,
          "time": 18.75,
          "velocity": 0.8346456692913385,
          "duration": 0.3000000000000007
        },
        {
          "name": "D#5",
          "midi": 75,
          "time": 19,
          "velocity": 0.8346456692913385,
          "duration": 0.31666666666666643
        },
        {
          "name": "D5",
          "midi": 74,
          "time": 19.25,
          "velocity": 0.8346456692913385,
          "duration": 0.33333333333333215
        },
        {
          "name": "G4",
          "midi": 67,
          "time": 19.5,
          "velocity": 0.8346456692913385,
          "duration": 0.3000000000000007
        },
        {
          "name": "D5",
          "midi": 74,
          "time": 19.75,
          "velocity": 0.8346456692913385,
          "duration": 0.31666666666666643
        },
        {
          "name": "G4",
          "midi": 67,
          "time": 20,
          "velocity": 0.8346456692913385,
          "duration": 0.283333333333335
        },
        {
          "name": "D5",
          "midi": 74,
          "time": 20.25,
          "velocity": 0.8346456692913385,
          "duration": 0.31666666666666643
        },
        {
          "name": "G4",
          "midi": 67,
          "time": 20.5,
          "velocity": 0.8346456692913385,
          "duration": 0.283333333333335
        },
        {
          "name": "D5",
          "midi": 74,
          "time": 20.75,
          "velocity": 0.8346456692913385,
          "duration": 0.3000000000000007
        },
        {
          "name": "D#5",
          "midi": 75,
          "time": 21,
          "velocity": 0.8346456692913385,
          "duration": 0.31666666666666643
        },
        {
          "name": "D5",
          "midi": 74,
          "time": 21.25,
          "velocity": 0.8346456692913385,
          "duration": 0.33333333333333215
        },
        {
          "name": "G4",
          "midi": 67,
          "time": 21.5,
          "velocity": 0.8346456692913385,
          "duration": 0.3000000000000007
        },
        {
          "name": "D5",
          "midi": 74,
          "time": 21.75,
          "velocity": 0.8346456692913385,
          "duration": 0.31666666666666643
        },
        {
          "name": "G4",
          "midi": 67,
          "time": 22,
          "velocity": 0.8346456692913385,
          "duration": 0.283333333333335
        },
        {
          "name": "D5",
          "midi": 74,
          "time": 22.25,
          "velocity": 0.8346456692913385,
          "duration": 0.31666666666666643
        },
        {
          "name": "G4",
          "midi": 67,
          "time": 22.5,
          "velocity": 0.8346456692913385,
          "duration": 0.283333333333335
        },
        {
          "name": "D5",
          "midi": 74,
          "time": 22.75,
          "velocity": 0.8346456692913385,
          "duration": 0.3000000000000007
        },
        {
          "name": "D#5",
          "midi": 75,
          "time": 23,
          "velocity": 0.8346456692913385,
          "duration": 0.31666666666666643
        },
        {
          "name": "D5",
          "midi": 74,
          "time": 23.25,
          "velocity": 0.8346456692913385,
          "duration": 0.33333333333333215
        },
        {
          "name": "G4",
          "midi": 67,
          "time": 23.5,
          "velocity": 0.8346456692913385,
          "duration": 0.3000000000000007
        },
        {
          "name": "D5",
          "midi": 74,
          "time": 23.75,
          "velocity": 0.8346456692913385,
          "duration": 0.31666666666666643
        },
        {
          "name": "G4",
          "midi": 67,
          "time": 24,
          "velocity": 0.8346456692913385,
          "duration": 0.283333333333335
        },
        {
          "name": "D5",
          "midi": 74,
          "time": 24.25,
          "velocity": 0.8346456692913385,
          "duration": 0.31666666666666643
        },
        {
          "name": "G4",
          "midi": 67,
          "time": 24.5,
          "velocity": 0.8346456692913385,
          "duration": 0.283333333333335
        },
        {
          "name": "D5",
          "midi": 74,
          "time": 24.75,
          "velocity": 0.8346456692913385,
          "duration": 0.3000000000000007
        },
        {
          "name": "D#5",
          "midi": 75,
          "time": 25,
          "velocity": 0.8346456692913385,
          "duration": 0.31666666666666643
        },
        {
          "name": "D5",
          "midi": 74,
          "time": 25.25,
          "velocity": 0.8346456692913385,
          "duration": 0.33333333333333215
        },
        {
          "name": "G4",
          "midi": 67,
          "time": 25.5,
          "velocity": 0.8346456692913385,
          "duration": 0.3000000000000007
        },
        {
          "name": "D5",
          "midi": 74,
          "time": 25.75,
          "velocity": 0.8346456692913385,
          "duration": 0.31666666666666643
        },
        {
          "name": "G4",
          "midi": 67,
          "time": 26,
          "velocity": 0.8346456692913385,
          "duration": 0.283333333333335
        },
        {
          "name": "D5",
          "midi": 74,
          "time": 26.25,
          "velocity": 0.8346456692913385,
          "duration": 0.31666666666666643
        },
        {
          "name": "G4",
          "midi": 67,
          "time": 26.5,
          "velocity": 0.8346456692913385,
          "duration": 0.283333333333335
        },
        {
          "name": "D5",
          "midi": 74,
          "time": 26.75,
          "velocity": 0.8346456692913385,
          "duration": 0.3000000000000007
        },
        {
          "name": "D#5",
          "midi": 75,
          "time": 27,
          "velocity": 0.8346456692913385,
          "duration": 0.31666666666666643
        },
        {
          "name": "D5",
          "midi": 74,
          "time": 27.25,
          "velocity": 0.8346456692913385,
          "duration": 0.33333333333333215
        },
        {
          "name": "G4",
          "midi": 67,
          "time": 27.5,
          "velocity": 0.8346456692913385,
          "duration": 0.3000000000000007
        },
        {
          "name": "D5",
          "midi": 74,
          "time": 27.75,
          "velocity": 0.8346456692913385,
          "duration": 0.21666666666666856
        },
        {
          "name": "G4",
          "midi": 67,
          "time": 28.000000000000004,
          "velocity": 0.6929133858267716,
          "duration": 0.283333333333335
        },
        {
          "name": "D5",
          "midi": 74,
          "time": 28.250000000000004,
          "velocity": 0.6929133858267716,
          "duration": 0.31666666666666643
        },
        {
          "name": "G4",
          "midi": 67,
          "time": 28.500000000000004,
          "velocity": 0.6929133858267716,
          "duration": 0.283333333333335
        },
        {
          "name": "D5",
          "midi": 74,
          "time": 28.750000000000004,
          "velocity": 0.6929133858267716,
          "duration": 0.3000000000000007
        },
        {
          "name": "D#5",
          "midi": 75,
          "time": 29.000000000000004,
          "velocity": 0.6929133858267716,
          "duration": 0.31666666666666643
        },
        {
          "name": "D5",
          "midi": 74,
          "time": 29.250000000000004,
          "velocity": 0.6929133858267716,
          "duration": 0.33333333333333215
        },
        {
          "name": "G4",
          "midi": 67,
          "time": 29.500000000000004,
          "velocity": 0.6929133858267716,
          "duration": 0.3000000000000007
        },
        {
          "name": "D5",
          "midi": 74,
          "time": 29.750000000000004,
          "velocity": 0.6929133858267716,
          "duration": 0.31666666666666643
        },
        {
          "name": "G4",
          "midi": 67,
          "time": 30.000000000000004,
          "velocity": 0.6929133858267716,
          "duration": 0.283333333333335
        },
        {
          "name": "D5",
          "midi": 74,
          "time": 30.250000000000004,
          "velocity": 0.7007874015748031,
          "duration": 0.31666666666666643
        },
        {
          "name": "G4",
          "midi": 67,
          "time": 30.500000000000004,
          "velocity": 0.7007874015748031,
          "duration": 0.283333333333335
        },
        {
          "name": "D5",
          "midi": 74,
          "time": 30.750000000000004,
          "velocity": 0.7007874015748031,
          "duration": 0.3000000000000007
        },
        {
          "name": "D#5",
          "midi": 75,
          "time": 31.000000000000004,
          "velocity": 0.6929133858267716,
          "duration": 0.31666666666666643
        },
        {
          "name": "D5",
          "midi": 74,
          "time": 31.250000000000004,
          "velocity": 0.6929133858267716,
          "duration": 0.33333333333333215
        },
        {
          "name": "G4",
          "midi": 67,
          "time": 31.500000000000004,
          "velocity": 0.6929133858267716,
          "duration": 0.3000000000000007
        },
        {
          "name": "D5",
          "midi": 74,
          "time": 31.750000000000004,
          "velocity": 0.6929133858267716,
          "duration": 0.31666666666667354
        },
        {
          "name": "G4",
          "midi": 67,
          "time": 32.00000000000001,
          "velocity": 0.6929133858267716,
          "duration": 0.28333333333333144
        },
        {
          "name": "D5",
          "midi": 74,
          "time": 32.25000000000001,
          "velocity": 0.6929133858267716,
          "duration": 0.31666666666667
        },
        {
          "name": "G4",
          "midi": 67,
          "time": 32.50000000000001,
          "velocity": 0.6929133858267716,
          "duration": 0.28333333333333144
        },
        {
          "name": "D5",
          "midi": 74,
          "time": 32.75000000000001,
          "velocity": 0.6929133858267716,
          "duration": 0.29999999999999716
        },
        {
          "name": "D#5",
          "midi": 75,
          "time": 33.00000000000001,
          "velocity": 0.6929133858267716,
          "duration": 0.31666666666667
        },
        {
          "name": "D5",
          "midi": 74,
          "time": 33.25000000000001,
          "velocity": 0.6929133858267716,
          "duration": 0.3333333333333357
        },
        {
          "name": "G4",
          "midi": 67,
          "time": 33.50000000000001,
          "velocity": 0.6929133858267716,
          "duration": 0.29999999999999716
        },
        {
          "name": "D5",
          "midi": 74,
          "time": 33.75000000000001,
          "velocity": 0.7007874015748031,
          "duration": 0.31666666666667
        },
        {
          "name": "G4",
          "midi": 67,
          "time": 34.00000000000001,
          "velocity": 0.6929133858267716,
          "duration": 0.28333333333333144
        },
        {
          "name": "D5",
          "midi": 74,
          "time": 34.25000000000001,
          "velocity": 0.6929133858267716,
          "duration": 0.31666666666667
        },
        {
          "name": "G4",
          "midi": 67,
          "time": 34.50000000000001,
          "velocity": 0.6929133858267716,
          "duration": 0.28333333333333144
        },
        {
          "name": "D5",
          "midi": 74,
          "time": 34.75000000000001,
          "velocity": 0.6929133858267716,
          "duration": 0.29999999999999716
        },
        {
          "name": "D#5",
          "midi": 75,
          "time": 35.00000000000001,
          "velocity": 0.6929133858267716,
          "duration": 0.31666666666667
        },
        {
          "name": "D5",
          "midi": 74,
          "time": 35.25000000000001,
          "velocity": 0.7007874015748031,
          "duration": 0.3333333333333357
        },
        {
          "name": "G4",
          "midi": 67,
          "time": 35.50000000000001,
          "velocity": 0.7007874015748031,
          "duration": 0.29999999999999716
        },
        {
          "name": "D5",
          "midi": 74,
          "time": 35.75000000000001,
          "velocity": 0.7007874015748031,
          "duration": 0.31666666666667
        },
        {
          "name": "G4",
          "midi": 67,
          "time": 36.00000000000001,
          "velocity": 0.7007874015748031,
          "duration": 0.28333333333333144
        },
        {
          "name": "D5",
          "midi": 74,
          "time": 36.25000000000001,
          "velocity": 0.6929133858267716,
          "duration": 0.31666666666667
        },
        {
          "name": "G4",
          "midi": 67,
          "time": 36.50000000000001,
          "velocity": 0.6929133858267716,
          "duration": 0.28333333333333144
        },
        {
          "name": "D5",
          "midi": 74,
          "time": 36.75000000000001,
          "velocity": 0.6929133858267716,
          "duration": 0.29999999999999716
        },
        {
          "name": "D#5",
          "midi": 75,
          "time": 37.00000000000001,
          "velocity": 0.6929133858267716,
          "duration": 0.31666666666667
        },
        {
          "name": "D5",
          "midi": 74,
          "time": 37.25000000000001,
          "velocity": 0.6929133858267716,
          "duration": 0.3333333333333357
        },
        {
          "name": "G4",
          "midi": 67,
          "time": 37.50000000000001,
          "velocity": 0.7007874015748031,
          "duration": 0.29999999999999716
        },
        {
          "name": "D5",
          "midi": 74,
          "time": 37.75000000000001,
          "velocity": 0.7007874015748031,
          "duration": 0.31666666666667
        },
        {
          "name": "G4",
          "midi": 67,
          "time": 38.00000000000001,
          "velocity": 0.7007874015748031,
          "duration": 0.28333333333333144
        },
        {
          "name": "D5",
          "midi": 74,
          "time": 38.25000000000001,
          "velocity": 0.6929133858267716,
          "duration": 0.31666666666667
        },
        {
          "name": "G4",
          "midi": 67,
          "time": 38.50000000000001,
          "velocity": 0.6929133858267716,
          "duration": 0.28333333333333144
        },
        {
          "name": "D5",
          "midi": 74,
          "time": 38.75000000000001,
          "velocity": 0.6929133858267716,
          "duration": 0.29999999999999716
        },
        {
          "name": "D#5",
          "midi": 75,
          "time": 39.00000000000001,
          "velocity": 0.6929133858267716,
          "duration": 0.31666666666667
        },
        {
          "name": "D5",
          "midi": 74,
          "time": 39.25000000000001,
          "velocity": 0.7007874015748031,
          "duration": 0.3333333333333357
        },
        {
          "name": "G4",
          "midi": 67,
          "time": 39.50000000000001,
          "velocity": 0.7007874015748031,
          "duration": 0.29999999999999716
        },
        {
          "name": "D5",
          "midi": 74,
          "time": 39.75000000000001,
          "velocity": 0.6929133858267716,
          "duration": 0.31666666666667
        },
        {
          "name": "G4",
          "midi": 67,
          "time": 40.00000000000001,
          "velocity": 0.6929133858267716,
          "duration": 0.28333333333333144
        },
        {
          "name": "D5",
          "midi": 74,
          "time": 40.25000000000001,
          "velocity": 0.6929133858267716,
          "duration": 0.31666666666667
        },
        {
          "name": "G4",
          "midi": 67,
          "time": 40.50000000000001,
          "velocity": 0.6929133858267716,
          "duration": 0.28333333333333144
        },
        {
          "name": "D5",
          "midi": 74,
          "time": 40.75000000000001,
          "velocity": 0.6929133858267716,
          "duration": 0.29999999999999716
        },
        {
          "name": "D#5",
          "midi": 75,
          "time": 41.00000000000001,
          "velocity": 0.6929133858267716,
          "duration": 0.31666666666667
        },
        {
          "name": "D5",
          "midi": 74,
          "time": 41.25000000000001,
          "velocity": 0.6929133858267716,
          "duration": 0.3333333333333357
        },
        {
          "name": "G4",
          "midi": 67,
          "time": 41.50000000000001,
          "velocity": 0.6929133858267716,
          "duration": 0.29999999999999716
        },
        {
          "name": "D5",
          "midi": 74,
          "time": 41.75000000000001,
          "velocity": 0.6929133858267716,
          "duration": 0.31666666666667
        },
        {
          "name": "G4",
          "midi": 67,
          "time": 42.00000000000001,
          "velocity": 0.6929133858267716,
          "duration": 0.28333333333333144
        },
        {
          "name": "D5",
          "midi": 74,
          "time": 42.25000000000001,
          "velocity": 0.6929133858267716,
          "duration": 0.31666666666667
        },
        {
          "name": "G4",
          "midi": 67,
          "time": 42.50000000000001,
          "velocity": 0.6929133858267716,
          "duration": 0.28333333333333144
        },
        {
          "name": "D5",
          "midi": 74,
          "time": 42.75000000000001,
          "velocity": 0.6929133858267716,
          "duration": 0.29999999999999716
        },
        {
          "name": "D#5",
          "midi": 75,
          "time": 43.00000000000001,
          "velocity": 0.6929133858267716,
          "duration": 0.31666666666667
        },
        {
          "name": "D5",
          "midi": 74,
          "time": 43.25000000000001,
          "velocity": 0.6929133858267716,
          "duration": 0.3333333333333357
        },
        {
          "name": "G4",
          "midi": 67,
          "time": 43.50000000000001,
          "velocity": 0.6929133858267716,
          "duration": 0.29999999999999716
        },
        {
          "name": "D5",
          "midi": 74,
          "time": 43.75000000000001,
          "velocity": 0.7007874015748031,
          "duration": 0.31666666666667
        },
        {
          "name": "G4",
          "midi": 67,
          "time": 44.00000000000001,
          "velocity": 0.6929133858267716,
          "duration": 0.28333333333333144
        },
        {
          "name": "D5",
          "midi": 74,
          "time": 44.25000000000001,
          "velocity": 0.6929133858267716,
          "duration": 0.31666666666667
        },
        {
          "name": "G4",
          "midi": 67,
          "time": 44.50000000000001,
          "velocity": 0.6929133858267716,
          "duration": 0.28333333333333144
        },
        {
          "name": "D5",
          "midi": 74,
          "time": 44.75000000000001,
          "velocity": 0.6929133858267716,
          "duration": 0.29999999999999716
        },
        {
          "name": "D#5",
          "midi": 75,
          "time": 45.00000000000001,
          "velocity": 0.7007874015748031,
          "duration": 0.31666666666667
        },
        {
          "name": "D5",
          "midi": 74,
          "time": 45.25000000000001,
          "velocity": 0.6929133858267716,
          "duration": 0.3333333333333357
        },
        {
          "name": "G4",
          "midi": 67,
          "time": 45.50000000000001,
          "velocity": 0.7007874015748031,
          "duration": 0.29999999999999716
        },
        {
          "name": "D5",
          "midi": 74,
          "time": 45.75000000000001,
          "velocity": 0.6929133858267716,
          "duration": 0.31666666666667
        },
        {
          "name": "G4",
          "midi": 67,
          "time": 46.00000000000001,
          "velocity": 0.6929133858267716,
          "duration": 0.28333333333333144
        },
        {
          "name": "D5",
          "midi": 74,
          "time": 46.25000000000001,
          "velocity": 0.6929133858267716,
          "duration": 0.31666666666667
        },
        {
          "name": "G4",
          "midi": 67,
          "time": 46.50000000000001,
          "velocity": 0.6929133858267716,
          "duration": 0.28333333333333144
        },
        {
          "name": "D5",
          "midi": 74,
          "time": 46.75000000000001,
          "velocity": 0.6929133858267716,
          "duration": 0.29999999999999716
        },
        {
          "name": "D#5",
          "midi": 75,
          "time": 47.00000000000001,
          "velocity": 0.6929133858267716,
          "duration": 0.31666666666667
        },
        {
          "name": "D5",
          "midi": 74,
          "time": 47.25000000000001,
          "velocity": 0.6929133858267716,
          "duration": 0.3333333333333357
        },
        {
          "name": "G4",
          "midi": 67,
          "time": 47.50000000000001,
          "velocity": 0.7007874015748031,
          "duration": 0.29999999999999716
        },
        {
          "name": "D5",
          "midi": 74,
          "time": 47.75000000000001,
          "velocity": 0.7007874015748031,
          "duration": 0.31666666666667
        },
        {
          "name": "G4",
          "midi": 67,
          "time": 48.00000000000001,
          "velocity": 0.7007874015748031,
          "duration": 0.28333333333333144
        },
        {
          "name": "D5",
          "midi": 74,
          "time": 48.25000000000001,
          "velocity": 0.7007874015748031,
          "duration": 0.31666666666667
        },
        {
          "name": "G4",
          "midi": 67,
          "time": 48.50000000000001,
          "velocity": 0.7007874015748031,
          "duration": 0.28333333333333144
        },
        {
          "name": "D5",
          "midi": 74,
          "time": 48.75000000000001,
          "velocity": 0.7007874015748031,
          "duration": 0.29999999999999716
        },
        {
          "name": "D#5",
          "midi": 75,
          "time": 49.00000000000001,
          "velocity": 0.7007874015748031,
          "duration": 0.31666666666667
        },
        {
          "name": "D5",
          "midi": 74,
          "time": 49.25000000000001,
          "velocity": 0.7007874015748031,
          "duration": 0.3333333333333357
        },
        {
          "name": "G4",
          "midi": 67,
          "time": 49.50000000000001,
          "velocity": 0.7007874015748031,
          "duration": 0.29999999999999716
        },
        {
          "name": "D5",
          "midi": 74,
          "time": 49.75000000000001,
          "velocity": 0.7007874015748031,
          "duration": 0.31666666666667
        },
        {
          "name": "G4",
          "midi": 67,
          "time": 50.00000000000001,
          "velocity": 0.7007874015748031,
          "duration": 0.28333333333333144
        },
        {
          "name": "D5",
          "midi": 74,
          "time": 50.25000000000001,
          "velocity": 0.7007874015748031,
          "duration": 0.31666666666667
        },
        {
          "name": "G4",
          "midi": 67,
          "time": 50.50000000000001,
          "velocity": 0.7007874015748031,
          "duration": 0.28333333333333144
        },
        {
          "name": "D5",
          "midi": 74,
          "time": 50.75000000000001,
          "velocity": 0.7007874015748031,
          "duration": 0.29999999999999716
        },
        {
          "name": "D#5",
          "midi": 75,
          "time": 51.00000000000001,
          "velocity": 0.7007874015748031,
          "duration": 0.31666666666667
        },
        {
          "name": "D5",
          "midi": 74,
          "time": 51.25000000000001,
          "velocity": 0.7007874015748031,
          "duration": 0.3333333333333357
        },
        {
          "name": "G4",
          "midi": 67,
          "time": 51.50000000000001,
          "velocity": 0.7007874015748031,
          "duration": 0.29999999999999716
        },
        {
          "name": "D5",
          "midi": 74,
          "time": 51.75000000000001,
          "velocity": 0.7007874015748031,
          "duration": 0.31666666666667
        },
        {
          "name": "G4",
          "midi": 67,
          "time": 52.00000000000001,
          "velocity": 0.7007874015748031,
          "duration": 0.28333333333333144
        },
        {
          "name": "D5",
          "midi": 74,
          "time": 52.25000000000001,
          "velocity": 0.7007874015748031,
          "duration": 0.31666666666667
        },
        {
          "name": "G4",
          "midi": 67,
          "time": 52.50000000000001,
          "velocity": 0.7007874015748031,
          "duration": 0.28333333333333144
        },
        {
          "name": "D5",
          "midi": 74,
          "time": 52.75000000000001,
          "velocity": 0.7007874015748031,
          "duration": 0.29999999999999716
        },
        {
          "name": "D#5",
          "midi": 75,
          "time": 53.00000000000001,
          "velocity": 0.7007874015748031,
          "duration": 0.31666666666667
        },
        {
          "name": "D5",
          "midi": 74,
          "time": 53.25000000000001,
          "velocity": 0.7007874015748031,
          "duration": 0.3333333333333357
        },
        {
          "name": "G4",
          "midi": 67,
          "time": 53.50000000000001,
          "velocity": 0.7007874015748031,
          "duration": 0.29999999999999716
        },
        {
          "name": "D5",
          "midi": 74,
          "time": 53.75000000000001,
          "velocity": 0.6929133858267716,
          "duration": 0.31666666666667
        },
        {
          "name": "G4",
          "midi": 67,
          "time": 54.00000000000001,
          "velocity": 0.6929133858267716,
          "duration": 0.28333333333333144
        },
        {
          "name": "D5",
          "midi": 74,
          "time": 54.25000000000001,
          "velocity": 0.6929133858267716,
          "duration": 0.31666666666667
        },
        {
          "name": "G4",
          "midi": 67,
          "time": 54.50000000000001,
          "velocity": 0.6929133858267716,
          "duration": 0.28333333333333144
        },
        {
          "name": "D5",
          "midi": 74,
          "time": 54.75000000000001,
          "velocity": 0.6929133858267716,
          "duration": 0.29999999999999716
        },
        {
          "name": "D#5",
          "midi": 75,
          "time": 55.00000000000001,
          "velocity": 0.6929133858267716,
          "duration": 0.31666666666667
        },
        {
          "name": "D5",
          "midi": 74,
          "time": 55.25000000000001,
          "velocity": 0.6929133858267716,
          "duration": 0.3333333333333357
        },
        {
          "name": "G4",
          "midi": 67,
          "time": 55.50000000000001,
          "velocity": 0.7007874015748031,
          "duration": 0.29999999999999716
        },
        {
          "name": "D5",
          "midi": 74,
          "time": 55.75000000000001,
          "velocity": 0.7007874015748031,
          "duration": 0.31666666666667
        },
        {
          "name": "G4",
          "midi": 67,
          "time": 56.00000000000001,
          "velocity": 0.7007874015748031,
          "duration": 0.28333333333333144
        },
        {
          "name": "D5",
          "midi": 74,
          "time": 56.25000000000001,
          "velocity": 0.7007874015748031,
          "duration": 0.31666666666667
        },
        {
          "name": "G4",
          "midi": 67,
          "time": 56.50000000000001,
          "velocity": 0.7007874015748031,
          "duration": 0.28333333333333144
        },
        {
          "name": "D5",
          "midi": 74,
          "time": 56.75000000000001,
          "velocity": 0.7007874015748031,
          "duration": 0.29999999999999716
        },
        {
          "name": "D#5",
          "midi": 75,
          "time": 57.00000000000001,
          "velocity": 0.7007874015748031,
          "duration": 0.31666666666667
        },
        {
          "name": "D5",
          "midi": 74,
          "time": 57.25000000000001,
          "velocity": 0.7007874015748031,
          "duration": 0.3333333333333357
        },
        {
          "name": "G4",
          "midi": 67,
          "time": 57.50000000000001,
          "velocity": 0.7007874015748031,
          "duration": 0.29999999999999716
        },
        {
          "name": "D5",
          "midi": 74,
          "time": 57.75000000000001,
          "velocity": 0.7007874015748031,
          "duration": 0.31666666666667
        },
        {
          "name": "G4",
          "midi": 67,
          "time": 58.00000000000001,
          "velocity": 0.7007874015748031,
          "duration": 0.28333333333333144
        },
        {
          "name": "D5",
          "midi": 74,
          "time": 58.25000000000001,
          "velocity": 0.7007874015748031,
          "duration": 0.31666666666667
        },
        {
          "name": "G4",
          "midi": 67,
          "time": 58.50000000000001,
          "velocity": 0.7007874015748031,
          "duration": 0.28333333333333144
        },
        {
          "name": "D5",
          "midi": 74,
          "time": 58.75000000000001,
          "velocity": 0.7007874015748031,
          "duration": 0.29999999999999716
        },
        {
          "name": "D#5",
          "midi": 75,
          "time": 59.00000000000001,
          "velocity": 0.7007874015748031,
          "duration": 0.31666666666667
        },
        {
          "name": "D5",
          "midi": 74,
          "time": 59.25000000000001,
          "velocity": 0.7007874015748031,
          "duration": 0.3333333333333357
        },
        {
          "name": "G4",
          "midi": 67,
          "time": 59.50000000000001,
          "velocity": 0.7007874015748031,
          "duration": 0.29999999999999716
        },
        {
          "name": "D5",
          "midi": 74,
          "time": 59.75000000000001,
          "velocity": 0.7007874015748031,
          "duration": 0.31666666666667
        },
        {
          "name": "G4",
          "midi": 67,
          "time": 60.00000000000001,
          "velocity": 0.7007874015748031,
          "duration": 0.28333333333333144
        },
        {
          "name": "D5",
          "midi": 74,
          "time": 60.25000000000001,
          "velocity": 0.7007874015748031,
          "duration": 0.31666666666667
        },
        {
          "name": "G4",
          "midi": 67,
          "time": 60.50000000000001,
          "velocity": 0.7007874015748031,
          "duration": 0.28333333333333144
        },
        {
          "name": "D5",
          "midi": 74,
          "time": 60.75000000000001,
          "velocity": 0.7007874015748031,
          "duration": 0.29999999999999716
        },
        {
          "name": "D#5",
          "midi": 75,
          "time": 61.00000000000001,
          "velocity": 0.7007874015748031,
          "duration": 0.31666666666667
        },
        {
          "name": "D5",
          "midi": 74,
          "time": 61.25000000000001,
          "velocity": 0.7007874015748031,
          "duration": 0.3333333333333357
        },
        {
          "name": "G4",
          "midi": 67,
          "time": 61.50000000000001,
          "velocity": 0.7007874015748031,
          "duration": 0.29999999999999716
        },
        {
          "name": "D5",
          "midi": 74,
          "time": 61.75000000000001,
          "velocity": 0.7007874015748031,
          "duration": 0.31666666666667
        },
        {
          "name": "G4",
          "midi": 67,
          "time": 62.00000000000001,
          "velocity": 0.7007874015748031,
          "duration": 0.28333333333333144
        },
        {
          "name": "D5",
          "midi": 74,
          "time": 62.25000000000001,
          "velocity": 0.7007874015748031,
          "duration": 0.31666666666667
        },
        {
          "name": "G4",
          "midi": 67,
          "time": 62.50000000000001,
          "velocity": 0.7007874015748031,
          "duration": 0.28333333333333144
        },
        {
          "name": "D5",
          "midi": 74,
          "time": 62.75000000000001,
          "velocity": 0.7007874015748031,
          "duration": 0.29999999999999716
        },
        {
          "name": "D#5",
          "midi": 75,
          "time": 63.00000000000001,
          "velocity": 0.7007874015748031,
          "duration": 0.31666666666667
        },
        {
          "name": "D5",
          "midi": 74,
          "time": 63.25000000000001,
          "velocity": 0.6929133858267716,
          "duration": 0.3333333333333357
        },
        {
          "name": "G4",
          "midi": 67,
          "time": 63.50000000000001,
          "velocity": 0.6929133858267716,
          "duration": 0.29999999999999716
        },
        {
          "name": "D5",
          "midi": 74,
          "time": 63.75000000000001,
          "velocity": 0.6929133858267716,
          "duration": 0.19999999999999574
        },
        {
          "name": "G4",
          "midi": 67,
          "time": 72,
          "velocity": 0.6929133858267716,
          "duration": 0.28333333333333144
        },
        {
          "name": "D5",
          "midi": 74,
          "time": 72.25,
          "velocity": 0.6929133858267716,
          "duration": 0.3166666666666629
        },
        {
          "name": "G4",
          "midi": 67,
          "time": 72.5,
          "velocity": 0.6929133858267716,
          "duration": 0.28333333333333144
        },
        {
          "name": "D5",
          "midi": 74,
          "time": 72.75,
          "velocity": 0.6929133858267716,
          "duration": 0.29999999999999716
        },
        {
          "name": "D#5",
          "midi": 75,
          "time": 73,
          "velocity": 0.6929133858267716,
          "duration": 0.3166666666666629
        },
        {
          "name": "D5",
          "midi": 74,
          "time": 73.25,
          "velocity": 0.6929133858267716,
          "duration": 0.3333333333333286
        },
        {
          "name": "G4",
          "midi": 67,
          "time": 73.5,
          "velocity": 0.6929133858267716,
          "duration": 0.29999999999999716
        },
        {
          "name": "D5",
          "midi": 74,
          "time": 73.75,
          "velocity": 0.6929133858267716,
          "duration": 0.3166666666666629
        },
        {
          "name": "G4",
          "midi": 67,
          "time": 74,
          "velocity": 0.6929133858267716,
          "duration": 0.28333333333333144
        },
        {
          "name": "D5",
          "midi": 74,
          "time": 74.25,
          "velocity": 0.7007874015748031,
          "duration": 0.3166666666666629
        },
        {
          "name": "G4",
          "midi": 67,
          "time": 74.5,
          "velocity": 0.7007874015748031,
          "duration": 0.28333333333333144
        },
        {
          "name": "D5",
          "midi": 74,
          "time": 74.75,
          "velocity": 0.7007874015748031,
          "duration": 0.29999999999999716
        },
        {
          "name": "D#5",
          "midi": 75,
          "time": 75,
          "velocity": 0.6929133858267716,
          "duration": 0.3166666666666629
        },
        {
          "name": "D5",
          "midi": 74,
          "time": 75.25,
          "velocity": 0.6929133858267716,
          "duration": 0.3333333333333286
        },
        {
          "name": "G4",
          "midi": 67,
          "time": 75.5,
          "velocity": 0.6929133858267716,
          "duration": 0.29999999999999716
        },
        {
          "name": "D5",
          "midi": 74,
          "time": 75.75,
          "velocity": 0.6929133858267716,
          "duration": 0.3166666666666629
        },
        {
          "name": "G4",
          "midi": 67,
          "time": 76,
          "velocity": 0.6929133858267716,
          "duration": 0.28333333333333144
        },
        {
          "name": "D5",
          "midi": 74,
          "time": 76.25,
          "velocity": 0.6929133858267716,
          "duration": 0.3166666666666629
        },
        {
          "name": "G4",
          "midi": 67,
          "time": 76.5,
          "velocity": 0.6929133858267716,
          "duration": 0.28333333333333144
        },
        {
          "name": "D5",
          "midi": 74,
          "time": 76.75,
          "velocity": 0.6929133858267716,
          "duration": 0.29999999999999716
        },
        {
          "name": "D#5",
          "midi": 75,
          "time": 77,
          "velocity": 0.6929133858267716,
          "duration": 0.3166666666666629
        },
        {
          "name": "D5",
          "midi": 74,
          "time": 77.25,
          "velocity": 0.6929133858267716,
          "duration": 0.3333333333333286
        },
        {
          "name": "G4",
          "midi": 67,
          "time": 77.5,
          "velocity": 0.6929133858267716,
          "duration": 0.29999999999999716
        },
        {
          "name": "D5",
          "midi": 74,
          "time": 77.75,
          "velocity": 0.7007874015748031,
          "duration": 0.3166666666666629
        },
        {
          "name": "G4",
          "midi": 67,
          "time": 78,
          "velocity": 0.6929133858267716,
          "duration": 0.28333333333333144
        },
        {
          "name": "D5",
          "midi": 74,
          "time": 78.25,
          "velocity": 0.6929133858267716,
          "duration": 0.3166666666666629
        },
        {
          "name": "G4",
          "midi": 67,
          "time": 78.5,
          "velocity": 0.6929133858267716,
          "duration": 0.28333333333333144
        },
        {
          "name": "D5",
          "midi": 74,
          "time": 78.75,
          "velocity": 0.6929133858267716,
          "duration": 0.29999999999999716
        },
        {
          "name": "D#5",
          "midi": 75,
          "time": 79,
          "velocity": 0.6929133858267716,
          "duration": 0.3166666666666629
        },
        {
          "name": "D5",
          "midi": 74,
          "time": 79.25,
          "velocity": 0.7007874015748031,
          "duration": 0.3333333333333286
        },
        {
          "name": "G4",
          "midi": 67,
          "time": 79.5,
          "velocity": 0.7007874015748031,
          "duration": 0.29999999999999716
        },
        {
          "name": "D5",
          "midi": 74,
          "time": 79.75,
          "velocity": 0.7007874015748031,
          "duration": 0.3166666666666629
        },
        {
          "name": "G4",
          "midi": 67,
          "time": 80,
          "velocity": 0.7007874015748031,
          "duration": 0.28333333333333144
        },
        {
          "name": "D5",
          "midi": 74,
          "time": 80.25,
          "velocity": 0.6929133858267716,
          "duration": 0.3166666666666629
        },
        {
          "name": "G4",
          "midi": 67,
          "time": 80.5,
          "velocity": 0.6929133858267716,
          "duration": 0.28333333333333144
        },
        {
          "name": "D5",
          "midi": 74,
          "time": 80.75,
          "velocity": 0.6929133858267716,
          "duration": 0.29999999999999716
        },
        {
          "name": "D#5",
          "midi": 75,
          "time": 81,
          "velocity": 0.6929133858267716,
          "duration": 0.3166666666666629
        },
        {
          "name": "D5",
          "midi": 74,
          "time": 81.25,
          "velocity": 0.6929133858267716,
          "duration": 0.3333333333333286
        },
        {
          "name": "G4",
          "midi": 67,
          "time": 81.5,
          "velocity": 0.7007874015748031,
          "duration": 0.29999999999999716
        },
        {
          "name": "D5",
          "midi": 74,
          "time": 81.75,
          "velocity": 0.7007874015748031,
          "duration": 0.3166666666666629
        },
        {
          "name": "G4",
          "midi": 67,
          "time": 82,
          "velocity": 0.7007874015748031,
          "duration": 0.28333333333333144
        },
        {
          "name": "D5",
          "midi": 74,
          "time": 82.25,
          "velocity": 0.6929133858267716,
          "duration": 0.3166666666666629
        },
        {
          "name": "G4",
          "midi": 67,
          "time": 82.5,
          "velocity": 0.6929133858267716,
          "duration": 0.28333333333333144
        },
        {
          "name": "D5",
          "midi": 74,
          "time": 82.75,
          "velocity": 0.6929133858267716,
          "duration": 0.29999999999999716
        },
        {
          "name": "D#5",
          "midi": 75,
          "time": 83,
          "velocity": 0.6929133858267716,
          "duration": 0.3166666666666629
        },
        {
          "name": "D5",
          "midi": 74,
          "time": 83.25,
          "velocity": 0.7007874015748031,
          "duration": 0.3333333333333286
        },
        {
          "name": "G4",
          "midi": 67,
          "time": 83.5,
          "velocity": 0.7007874015748031,
          "duration": 0.29999999999999716
        },
        {
          "name": "D5",
          "midi": 74,
          "time": 83.75,
          "velocity": 0.6929133858267716,
          "duration": 0.3166666666666629
        },
        {
          "name": "G4",
          "midi": 67,
          "time": 84,
          "velocity": 0.6929133858267716,
          "duration": 0.28333333333333144
        },
        {
          "name": "D5",
          "midi": 74,
          "time": 84.25,
          "velocity": 0.6929133858267716,
          "duration": 0.3166666666666629
        },
        {
          "name": "G4",
          "midi": 67,
          "time": 84.5,
          "velocity": 0.6929133858267716,
          "duration": 0.28333333333333144
        },
        {
          "name": "D5",
          "midi": 74,
          "time": 84.75,
          "velocity": 0.6929133858267716,
          "duration": 0.29999999999999716
        },
        {
          "name": "D#5",
          "midi": 75,
          "time": 85,
          "velocity": 0.6929133858267716,
          "duration": 0.3166666666666629
        },
        {
          "name": "D5",
          "midi": 74,
          "time": 85.25,
          "velocity": 0.6929133858267716,
          "duration": 0.3333333333333286
        },
        {
          "name": "G4",
          "midi": 67,
          "time": 85.5,
          "velocity": 0.6929133858267716,
          "duration": 0.29999999999999716
        },
        {
          "name": "D5",
          "midi": 74,
          "time": 85.75,
          "velocity": 0.6929133858267716,
          "duration": 0.3166666666666629
        },
        {
          "name": "G4",
          "midi": 67,
          "time": 86,
          "velocity": 0.6929133858267716,
          "duration": 0.28333333333333144
        },
        {
          "name": "D5",
          "midi": 74,
          "time": 86.25,
          "velocity": 0.6929133858267716,
          "duration": 0.3166666666666629
        },
        {
          "name": "G4",
          "midi": 67,
          "time": 86.5,
          "velocity": 0.6929133858267716,
          "duration": 0.28333333333333144
        },
        {
          "name": "D5",
          "midi": 74,
          "time": 86.75,
          "velocity": 0.6929133858267716,
          "duration": 0.29999999999999716
        },
        {
          "name": "D#5",
          "midi": 75,
          "time": 87,
          "velocity": 0.6929133858267716,
          "duration": 0.3166666666666629
        },
        {
          "name": "D5",
          "midi": 74,
          "time": 87.25,
          "velocity": 0.6929133858267716,
          "duration": 0.3333333333333286
        },
        {
          "name": "G4",
          "midi": 67,
          "time": 87.5,
          "velocity": 0.6929133858267716,
          "duration": 0.29999999999999716
        },
        {
          "name": "D5",
          "midi": 74,
          "time": 87.75,
          "velocity": 0.7007874015748031,
          "duration": 0.3166666666666629
        },
        {
          "name": "G4",
          "midi": 67,
          "time": 88,
          "velocity": 0.7007874015748031,
          "duration": 0.28333333333333144
        },
        {
          "name": "D5",
          "midi": 74,
          "time": 88.25,
          "velocity": 0.7007874015748031,
          "duration": 0.3166666666666629
        },
        {
          "name": "G4",
          "midi": 67,
          "time": 88.5,
          "velocity": 0.7007874015748031,
          "duration": 0.28333333333333144
        },
        {
          "name": "D5",
          "midi": 74,
          "time": 88.75,
          "velocity": 0.7007874015748031,
          "duration": 0.29999999999999716
        },
        {
          "name": "D#5",
          "midi": 75,
          "time": 89,
          "velocity": 0.7007874015748031,
          "duration": 0.3166666666666629
        },
        {
          "name": "D5",
          "midi": 74,
          "time": 89.25,
          "velocity": 0.7007874015748031,
          "duration": 0.3333333333333286
        },
        {
          "name": "G4",
          "midi": 67,
          "time": 89.5,
          "velocity": 0.7007874015748031,
          "duration": 0.29999999999999716
        },
        {
          "name": "D5",
          "midi": 74,
          "time": 89.75,
          "velocity": 0.7007874015748031,
          "duration": 0.3166666666666629
        },
        {
          "name": "G4",
          "midi": 67,
          "time": 90,
          "velocity": 0.7007874015748031,
          "duration": 0.28333333333333144
        },
        {
          "name": "D5",
          "midi": 74,
          "time": 90.25,
          "velocity": 0.7007874015748031,
          "duration": 0.3166666666666629
        },
        {
          "name": "G4",
          "midi": 67,
          "time": 90.5,
          "velocity": 0.7007874015748031,
          "duration": 0.28333333333333144
        },
        {
          "name": "D5",
          "midi": 74,
          "time": 90.75,
          "velocity": 0.7007874015748031,
          "duration": 0.29999999999999716
        },
        {
          "name": "D#5",
          "midi": 75,
          "time": 91,
          "velocity": 0.7007874015748031,
          "duration": 0.3166666666666629
        },
        {
          "name": "D5",
          "midi": 74,
          "time": 91.25,
          "velocity": 0.7007874015748031,
          "duration": 0.3333333333333286
        },
        {
          "name": "G4",
          "midi": 67,
          "time": 91.5,
          "velocity": 0.7007874015748031,
          "duration": 0.29999999999999716
        },
        {
          "name": "D5",
          "midi": 74,
          "time": 91.75,
          "velocity": 0.7007874015748031,
          "duration": 0.3166666666666629
        },
        {
          "name": "G4",
          "midi": 67,
          "time": 92,
          "velocity": 0.7007874015748031,
          "duration": 0.28333333333333144
        },
        {
          "name": "D5",
          "midi": 74,
          "time": 92.25,
          "velocity": 0.7007874015748031,
          "duration": 0.3166666666666629
        },
        {
          "name": "G4",
          "midi": 67,
          "time": 92.5,
          "velocity": 0.7007874015748031,
          "duration": 0.28333333333333144
        },
        {
          "name": "D5",
          "midi": 74,
          "time": 92.75,
          "velocity": 0.7007874015748031,
          "duration": 0.29999999999999716
        },
        {
          "name": "D#5",
          "midi": 75,
          "time": 93,
          "velocity": 0.7007874015748031,
          "duration": 0.3166666666666629
        },
        {
          "name": "D5",
          "midi": 74,
          "time": 93.25,
          "velocity": 0.7007874015748031,
          "duration": 0.3333333333333286
        },
        {
          "name": "G4",
          "midi": 67,
          "time": 93.5,
          "velocity": 0.7007874015748031,
          "duration": 0.29999999999999716
        },
        {
          "name": "D5",
          "midi": 74,
          "time": 93.75,
          "velocity": 0.7007874015748031,
          "duration": 0.3166666666666629
        },
        {
          "name": "G4",
          "midi": 67,
          "time": 94,
          "velocity": 0.7007874015748031,
          "duration": 0.28333333333333144
        },
        {
          "name": "D5",
          "midi": 74,
          "time": 94.25,
          "velocity": 0.7007874015748031,
          "duration": 0.3166666666666629
        },
        {
          "name": "G4",
          "midi": 67,
          "time": 94.5,
          "velocity": 0.7007874015748031,
          "duration": 0.28333333333333144
        },
        {
          "name": "D5",
          "midi": 74,
          "time": 94.75,
          "velocity": 0.7007874015748031,
          "duration": 0.29999999999999716
        },
        {
          "name": "D#5",
          "midi": 75,
          "time": 95,
          "velocity": 0.7007874015748031,
          "duration": 0.3166666666666629
        },
        {
          "name": "D5",
          "midi": 74,
          "time": 95.25,
          "velocity": 0.7007874015748031,
          "duration": 0.3333333333333286
        },
        {
          "name": "G4",
          "midi": 67,
          "time": 95.5,
          "velocity": 0.7007874015748031,
          "duration": 0.29999999999999716
        },
        {
          "name": "D5",
          "midi": 74,
          "time": 95.75,
          "velocity": 0.7007874015748031,
          "duration": 0.3166666666666629
        },
        {
          "name": "G4",
          "midi": 67,
          "time": 96,
          "velocity": 0.7007874015748031,
          "duration": 0.28333333333333144
        },
        {
          "name": "D5",
          "midi": 74,
          "time": 96.25,
          "velocity": 0.7007874015748031,
          "duration": 0.3166666666666629
        },
        {
          "name": "G4",
          "midi": 67,
          "time": 96.5,
          "velocity": 0.7007874015748031,
          "duration": 0.28333333333333144
        },
        {
          "name": "D5",
          "midi": 74,
          "time": 96.75,
          "velocity": 0.7007874015748031,
          "duration": 0.29999999999999716
        },
        {
          "name": "D#5",
          "midi": 75,
          "time": 97,
          "velocity": 0.7007874015748031,
          "duration": 0.3166666666666629
        },
        {
          "name": "D5",
          "midi": 74,
          "time": 97.25,
          "velocity": 0.7007874015748031,
          "duration": 0.3333333333333286
        },
        {
          "name": "G4",
          "midi": 67,
          "time": 97.5,
          "velocity": 0.7007874015748031,
          "duration": 0.29999999999999716
        },
        {
          "name": "D5",
          "midi": 74,
          "time": 97.75,
          "velocity": 0.7007874015748031,
          "duration": 0.3166666666666629
        },
        {
          "name": "G4",
          "midi": 67,
          "time": 98,
          "velocity": 0.7007874015748031,
          "duration": 0.28333333333333144
        },
        {
          "name": "D5",
          "midi": 74,
          "time": 98.25,
          "velocity": 0.7007874015748031,
          "duration": 0.3166666666666629
        },
        {
          "name": "G4",
          "midi": 67,
          "time": 98.5,
          "velocity": 0.7007874015748031,
          "duration": 0.28333333333333144
        },
        {
          "name": "D5",
          "midi": 74,
          "time": 98.75,
          "velocity": 0.7007874015748031,
          "duration": 0.29999999999999716
        },
        {
          "name": "D#5",
          "midi": 75,
          "time": 99,
          "velocity": 0.7007874015748031,
          "duration": 0.3166666666666629
        },
        {
          "name": "D5",
          "midi": 74,
          "time": 99.25,
          "velocity": 0.7007874015748031,
          "duration": 0.3333333333333286
        },
        {
          "name": "G4",
          "midi": 67,
          "time": 99.5,
          "velocity": 0.7007874015748031,
          "duration": 0.29999999999999716
        },
        {
          "name": "D5",
          "midi": 74,
          "time": 99.75,
          "velocity": 0.7007874015748031,
          "duration": 0.3166666666666629
        },
        {
          "name": "G4",
          "midi": 67,
          "time": 100,
          "velocity": 0.7007874015748031,
          "duration": 0.28333333333333144
        },
        {
          "name": "D5",
          "midi": 74,
          "time": 100.25,
          "velocity": 0.7007874015748031,
          "duration": 0.3166666666666629
        },
        {
          "name": "G4",
          "midi": 67,
          "time": 100.5,
          "velocity": 0.7007874015748031,
          "duration": 0.28333333333333144
        },
        {
          "name": "D5",
          "midi": 74,
          "time": 100.75,
          "velocity": 0.7007874015748031,
          "duration": 0.29999999999999716
        },
        {
          "name": "D#5",
          "midi": 75,
          "time": 101,
          "velocity": 0.7007874015748031,
          "duration": 0.3166666666666629
        },
        {
          "name": "D5",
          "midi": 74,
          "time": 101.25,
          "velocity": 0.7007874015748031,
          "duration": 0.3333333333333286
        },
        {
          "name": "G4",
          "midi": 67,
          "time": 101.5,
          "velocity": 0.7007874015748031,
          "duration": 0.29999999999999716
        },
        {
          "name": "D5",
          "midi": 74,
          "time": 101.75,
          "velocity": 0.7007874015748031,
          "duration": 0.3166666666666629
        },
        {
          "name": "G4",
          "midi": 67,
          "time": 102,
          "velocity": 0.7007874015748031,
          "duration": 0.28333333333333144
        },
        {
          "name": "D5",
          "midi": 74,
          "time": 102.25,
          "velocity": 0.7007874015748031,
          "duration": 0.3166666666666629
        },
        {
          "name": "G4",
          "midi": 67,
          "time": 102.5,
          "velocity": 0.7007874015748031,
          "duration": 0.28333333333333144
        },
        {
          "name": "D5",
          "midi": 74,
          "time": 102.75,
          "velocity": 0.7007874015748031,
          "duration": 0.29999999999999716
        },
        {
          "name": "D#5",
          "midi": 75,
          "time": 103,
          "velocity": 0.7007874015748031,
          "duration": 0.3166666666666629
        },
        {
          "name": "D5",
          "midi": 74,
          "time": 103.25,
          "velocity": 0.7007874015748031,
          "duration": 0.3333333333333286
        },
        {
          "name": "G4",
          "midi": 67,
          "time": 103.5,
          "velocity": 0.7007874015748031,
          "duration": 0.29999999999999716
        },
        {
          "name": "D5",
          "midi": 74,
          "time": 103.75,
          "velocity": 0.7007874015748031,
          "duration": 0.3166666666666629
        },
        {
          "name": "G4",
          "midi": 67,
          "time": 112,
          "velocity": 0.6929133858267716,
          "duration": 0.28333333333333144
        },
        {
          "name": "D5",
          "midi": 74,
          "time": 112.25,
          "velocity": 0.6929133858267716,
          "duration": 0.3166666666666629
        },
        {
          "name": "G4",
          "midi": 67,
          "time": 112.5,
          "velocity": 0.6929133858267716,
          "duration": 0.28333333333333144
        },
        {
          "name": "D5",
          "midi": 74,
          "time": 112.75,
          "velocity": 0.6929133858267716,
          "duration": 0.29999999999999716
        },
        {
          "name": "D#5",
          "midi": 75,
          "time": 113,
          "velocity": 0.6929133858267716,
          "duration": 0.3166666666666629
        },
        {
          "name": "D5",
          "midi": 74,
          "time": 113.25,
          "velocity": 0.6929133858267716,
          "duration": 0.3333333333333286
        },
        {
          "name": "G4",
          "midi": 67,
          "time": 113.5,
          "velocity": 0.6929133858267716,
          "duration": 0.29999999999999716
        },
        {
          "name": "D5",
          "midi": 74,
          "time": 113.75,
          "velocity": 0.6929133858267716,
          "duration": 0.3166666666666629
        },
        {
          "name": "G4",
          "midi": 67,
          "time": 114,
          "velocity": 0.6929133858267716,
          "duration": 0.28333333333333144
        },
        {
          "name": "D5",
          "midi": 74,
          "time": 114.25,
          "velocity": 0.7007874015748031,
          "duration": 0.3166666666666629
        },
        {
          "name": "G4",
          "midi": 67,
          "time": 114.5,
          "velocity": 0.7007874015748031,
          "duration": 0.28333333333333144
        },
        {
          "name": "D5",
          "midi": 74,
          "time": 114.75,
          "velocity": 0.7007874015748031,
          "duration": 0.29999999999999716
        },
        {
          "name": "D#5",
          "midi": 75,
          "time": 115,
          "velocity": 0.6929133858267716,
          "duration": 0.3166666666666629
        },
        {
          "name": "D5",
          "midi": 74,
          "time": 115.25,
          "velocity": 0.6929133858267716,
          "duration": 0.3333333333333286
        },
        {
          "name": "G4",
          "midi": 67,
          "time": 115.5,
          "velocity": 0.6929133858267716,
          "duration": 0.29999999999999716
        },
        {
          "name": "D5",
          "midi": 74,
          "time": 115.75,
          "velocity": 0.6929133858267716,
          "duration": 0.3166666666666629
        },
        {
          "name": "G4",
          "midi": 67,
          "time": 116,
          "velocity": 0.6929133858267716,
          "duration": 0.28333333333333144
        },
        {
          "name": "D5",
          "midi": 74,
          "time": 116.25,
          "velocity": 0.6929133858267716,
          "duration": 0.3166666666666629
        },
        {
          "name": "G4",
          "midi": 67,
          "time": 116.5,
          "velocity": 0.6929133858267716,
          "duration": 0.28333333333333144
        },
        {
          "name": "D5",
          "midi": 74,
          "time": 116.75,
          "velocity": 0.6929133858267716,
          "duration": 0.29999999999999716
        },
        {
          "name": "D#5",
          "midi": 75,
          "time": 117,
          "velocity": 0.6929133858267716,
          "duration": 0.3166666666666629
        },
        {
          "name": "D5",
          "midi": 74,
          "time": 117.25,
          "velocity": 0.6929133858267716,
          "duration": 0.3333333333333286
        },
        {
          "name": "G4",
          "midi": 67,
          "time": 117.5,
          "velocity": 0.6929133858267716,
          "duration": 0.29999999999999716
        },
        {
          "name": "D5",
          "midi": 74,
          "time": 117.75,
          "velocity": 0.7007874015748031,
          "duration": 0.3166666666666629
        },
        {
          "name": "G4",
          "midi": 67,
          "time": 118,
          "velocity": 0.6929133858267716,
          "duration": 0.28333333333333144
        },
        {
          "name": "D5",
          "midi": 74,
          "time": 118.25,
          "velocity": 0.6929133858267716,
          "duration": 0.3166666666666629
        },
        {
          "name": "G4",
          "midi": 67,
          "time": 118.5,
          "velocity": 0.6929133858267716,
          "duration": 0.28333333333333144
        },
        {
          "name": "D5",
          "midi": 74,
          "time": 118.75,
          "velocity": 0.6929133858267716,
          "duration": 0.29999999999999716
        },
        {
          "name": "D#5",
          "midi": 75,
          "time": 119,
          "velocity": 0.6929133858267716,
          "duration": 0.3166666666666629
        },
        {
          "name": "D5",
          "midi": 74,
          "time": 119.25,
          "velocity": 0.7007874015748031,
          "duration": 0.3333333333333286
        },
        {
          "name": "G4",
          "midi": 67,
          "time": 119.5,
          "velocity": 0.7007874015748031,
          "duration": 0.29999999999999716
        },
        {
          "name": "D5",
          "midi": 74,
          "time": 119.75,
          "velocity": 0.7007874015748031,
          "duration": 0.3166666666666629
        },
        {
          "name": "G4",
          "midi": 67,
          "time": 120,
          "velocity": 0.7007874015748031,
          "duration": 0.28333333333333144
        },
        {
          "name": "D5",
          "midi": 74,
          "time": 120.25,
          "velocity": 0.6929133858267716,
          "duration": 0.3166666666666629
        },
        {
          "name": "G4",
          "midi": 67,
          "time": 120.5,
          "velocity": 0.6929133858267716,
          "duration": 0.28333333333333144
        },
        {
          "name": "D5",
          "midi": 74,
          "time": 120.75,
          "velocity": 0.6929133858267716,
          "duration": 0.29999999999999716
        },
        {
          "name": "D#5",
          "midi": 75,
          "time": 121,
          "velocity": 0.6929133858267716,
          "duration": 0.3166666666666629
        },
        {
          "name": "D5",
          "midi": 74,
          "time": 121.25,
          "velocity": 0.6929133858267716,
          "duration": 0.3333333333333286
        },
        {
          "name": "G4",
          "midi": 67,
          "time": 121.5,
          "velocity": 0.7007874015748031,
          "duration": 0.29999999999999716
        },
        {
          "name": "D5",
          "midi": 74,
          "time": 121.75,
          "velocity": 0.7007874015748031,
          "duration": 0.3166666666666629
        },
        {
          "name": "G4",
          "midi": 67,
          "time": 122,
          "velocity": 0.7007874015748031,
          "duration": 0.28333333333333144
        },
        {
          "name": "D5",
          "midi": 74,
          "time": 122.25,
          "velocity": 0.6929133858267716,
          "duration": 0.3166666666666629
        },
        {
          "name": "G4",
          "midi": 67,
          "time": 122.5,
          "velocity": 0.6929133858267716,
          "duration": 0.28333333333333144
        },
        {
          "name": "D5",
          "midi": 74,
          "time": 122.75,
          "velocity": 0.6929133858267716,
          "duration": 0.29999999999999716
        },
        {
          "name": "D#5",
          "midi": 75,
          "time": 123,
          "velocity": 0.6929133858267716,
          "duration": 0.3166666666666629
        },
        {
          "name": "D5",
          "midi": 74,
          "time": 123.25,
          "velocity": 0.7007874015748031,
          "duration": 0.3333333333333286
        },
        {
          "name": "G4",
          "midi": 67,
          "time": 123.5,
          "velocity": 0.7007874015748031,
          "duration": 0.29999999999999716
        },
        {
          "name": "D5",
          "midi": 74,
          "time": 123.75,
          "velocity": 0.6929133858267716,
          "duration": 0.3166666666666629
        },
        {
          "name": "G4",
          "midi": 67,
          "time": 124,
          "velocity": 0.6929133858267716,
          "duration": 0.28333333333333144
        },
        {
          "name": "D5",
          "midi": 74,
          "time": 124.25,
          "velocity": 0.6929133858267716,
          "duration": 0.3166666666666629
        },
        {
          "name": "G4",
          "midi": 67,
          "time": 124.5,
          "velocity": 0.6929133858267716,
          "duration": 0.28333333333333144
        },
        {
          "name": "D5",
          "midi": 74,
          "time": 124.75,
          "velocity": 0.6929133858267716,
          "duration": 0.29999999999999716
        },
        {
          "name": "D#5",
          "midi": 75,
          "time": 125,
          "velocity": 0.6929133858267716,
          "duration": 0.3166666666666629
        },
        {
          "name": "D5",
          "midi": 74,
          "time": 125.25,
          "velocity": 0.6929133858267716,
          "duration": 0.3333333333333286
        },
        {
          "name": "G4",
          "midi": 67,
          "time": 125.5,
          "velocity": 0.6929133858267716,
          "duration": 0.29999999999999716
        },
        {
          "name": "D5",
          "midi": 74,
          "time": 125.75,
          "velocity": 0.6929133858267716,
          "duration": 0.3166666666666629
        },
        {
          "name": "G4",
          "midi": 67,
          "time": 126,
          "velocity": 0.6929133858267716,
          "duration": 0.28333333333333144
        },
        {
          "name": "G4",
          "midi": 67,
          "time": 126,
          "velocity": 0.7007874015748031,
          "duration": 0.28333333333333144
        },
        {
          "name": "D5",
          "midi": 74,
          "time": 126.25,
          "velocity": 0.6929133858267716,
          "duration": 0.3166666666666629
        },
        {
          "name": "G4",
          "midi": 67,
          "time": 126.5,
          "velocity": 0.6929133858267716,
          "duration": 0.28333333333333144
        },
        {
          "name": "D5",
          "midi": 74,
          "time": 126.75,
          "velocity": 0.6929133858267716,
          "duration": 0.29999999999999716
        },
        {
          "name": "D#5",
          "midi": 75,
          "time": 127,
          "velocity": 0.6929133858267716,
          "duration": 0.3166666666666629
        },
        {
          "name": "D5",
          "midi": 74,
          "time": 127.25,
          "velocity": 0.7007874015748031,
          "duration": 0.3333333333333286
        },
        {
          "name": "G4",
          "midi": 67,
          "time": 127.5,
          "velocity": 0.7007874015748031,
          "duration": 0.29999999999999716
        },
        {
          "name": "D5",
          "midi": 74,
          "time": 127.75,
          "velocity": 0.6929133858267716,
          "duration": 0.3166666666666629
        },
        {
          "name": "G4",
          "midi": 67,
          "time": 128,
          "velocity": 0.6929133858267716,
          "duration": 0.28333333333333144
        },
        {
          "name": "D5",
          "midi": 74,
          "time": 128.25,
          "velocity": 0.6929133858267716,
          "duration": 0.3166666666666629
        },
        {
          "name": "G4",
          "midi": 67,
          "time": 128.5,
          "velocity": 0.6929133858267716,
          "duration": 0.28333333333333144
        },
        {
          "name": "D5",
          "midi": 74,
          "time": 128.75,
          "velocity": 0.6929133858267716,
          "duration": 0.30000000000001137
        },
        {
          "name": "D#5",
          "midi": 75,
          "time": 129,
          "velocity": 0.6929133858267716,
          "duration": 0.3166666666666629
        },
        {
          "name": "D5",
          "midi": 74,
          "time": 129.25,
          "velocity": 0.6929133858267716,
          "duration": 0.3333333333333428
        },
        {
          "name": "G4",
          "midi": 67,
          "time": 129.5,
          "velocity": 0.6929133858267716,
          "duration": 0.30000000000001137
        },
        {
          "name": "D5",
          "midi": 74,
          "time": 129.75,
          "velocity": 0.6929133858267716,
          "duration": 0.3166666666666629
        },
        {
          "name": "G4",
          "midi": 67,
          "time": 130,
          "velocity": 0.6929133858267716,
          "duration": 0.28333333333333144
        },
        {
          "name": "D5",
          "midi": 74,
          "time": 130.25,
          "velocity": 0.6929133858267716,
          "duration": 0.3166666666666629
        },
        {
          "name": "G4",
          "midi": 67,
          "time": 130.5,
          "velocity": 0.6929133858267716,
          "duration": 0.28333333333333144
        },
        {
          "name": "D5",
          "midi": 74,
          "time": 130.75,
          "velocity": 0.6929133858267716,
          "duration": 0.30000000000001137
        },
        {
          "name": "D#5",
          "midi": 75,
          "time": 131,
          "velocity": 0.6929133858267716,
          "duration": 0.3166666666666629
        },
        {
          "name": "D5",
          "midi": 74,
          "time": 131.25,
          "velocity": 0.6929133858267716,
          "duration": 0.3333333333333428
        },
        {
          "name": "G4",
          "midi": 67,
          "time": 131.5,
          "velocity": 0.6929133858267716,
          "duration": 0.30000000000001137
        },
        {
          "name": "D5",
          "midi": 74,
          "time": 131.75,
          "velocity": 0.6929133858267716,
          "duration": 0.3166666666666629
        },
        {
          "name": "G4",
          "midi": 67,
          "time": 132,
          "velocity": 0.6929133858267716,
          "duration": 0.28333333333333144
        },
        {
          "name": "D5",
          "midi": 74,
          "time": 132.25,
          "velocity": 0.7007874015748031,
          "duration": 0.3166666666666629
        },
        {
          "name": "G4",
          "midi": 67,
          "time": 132.5,
          "velocity": 0.7007874015748031,
          "duration": 0.28333333333333144
        },
        {
          "name": "D5",
          "midi": 74,
          "time": 132.75,
          "velocity": 0.7007874015748031,
          "duration": 0.30000000000001137
        },
        {
          "name": "D#5",
          "midi": 75,
          "time": 133,
          "velocity": 0.6929133858267716,
          "duration": 0.3166666666666629
        },
        {
          "name": "D5",
          "midi": 74,
          "time": 133.25,
          "velocity": 0.6929133858267716,
          "duration": 0.3333333333333428
        },
        {
          "name": "G4",
          "midi": 67,
          "time": 133.5,
          "velocity": 0.6929133858267716,
          "duration": 0.30000000000001137
        },
        {
          "name": "D5",
          "midi": 74,
          "time": 133.75,
          "velocity": 0.6929133858267716,
          "duration": 0.3166666666666629
        },
        {
          "name": "G4",
          "midi": 67,
          "time": 134,
          "velocity": 0.6929133858267716,
          "duration": 0.28333333333333144
        },
        {
          "name": "D5",
          "midi": 74,
          "time": 134.25,
          "velocity": 0.6929133858267716,
          "duration": 0.3166666666666629
        },
        {
          "name": "G4",
          "midi": 67,
          "time": 134.5,
          "velocity": 0.6929133858267716,
          "duration": 0.28333333333333144
        },
        {
          "name": "D5",
          "midi": 74,
          "time": 134.75,
          "velocity": 0.6929133858267716,
          "duration": 0.30000000000001137
        },
        {
          "name": "D#5",
          "midi": 75,
          "time": 135,
          "velocity": 0.6929133858267716,
          "duration": 0.3166666666666629
        },
        {
          "name": "D5",
          "midi": 74,
          "time": 135.25,
          "velocity": 0.6929133858267716,
          "duration": 0.3333333333333428
        },
        {
          "name": "G4",
          "midi": 67,
          "time": 135.5,
          "velocity": 0.6929133858267716,
          "duration": 0.30000000000001137
        },
        {
          "name": "D5",
          "midi": 74,
          "time": 135.75,
          "velocity": 0.7007874015748031,
          "duration": 0.3166666666666629
        },
        {
          "name": "G4",
          "midi": 67,
          "time": 136,
          "velocity": 0.6929133858267716,
          "duration": 0.28333333333333144
        },
        {
          "name": "D5",
          "midi": 74,
          "time": 136.25,
          "velocity": 0.6929133858267716,
          "duration": 0.3166666666666629
        },
        {
          "name": "G4",
          "midi": 67,
          "time": 136.5,
          "velocity": 0.6929133858267716,
          "duration": 0.28333333333333144
        },
        {
          "name": "D5",
          "midi": 74,
          "time": 136.75,
          "velocity": 0.6929133858267716,
          "duration": 0.30000000000001137
        },
        {
          "name": "D#5",
          "midi": 75,
          "time": 137,
          "velocity": 0.6929133858267716,
          "duration": 0.3166666666666629
        },
        {
          "name": "D5",
          "midi": 74,
          "time": 137.25,
          "velocity": 0.7007874015748031,
          "duration": 0.3333333333333428
        },
        {
          "name": "G4",
          "midi": 67,
          "time": 137.5,
          "velocity": 0.7007874015748031,
          "duration": 0.30000000000001137
        },
        {
          "name": "D5",
          "midi": 74,
          "time": 137.75,
          "velocity": 0.7007874015748031,
          "duration": 0.3166666666666629
        },
        {
          "name": "G4",
          "midi": 67,
          "time": 138,
          "velocity": 0.6929133858267716,
          "duration": 0.28333333333333144
        },
        {
          "name": "D5",
          "midi": 74,
          "time": 138.25,
          "velocity": 0.6929133858267716,
          "duration": 0.3166666666666629
        },
        {
          "name": "G4",
          "midi": 67,
          "time": 138.5,
          "velocity": 0.6929133858267716,
          "duration": 0.28333333333333144
        },
        {
          "name": "D5",
          "midi": 74,
          "time": 138.75,
          "velocity": 0.6929133858267716,
          "duration": 0.30000000000001137
        },
        {
          "name": "D#5",
          "midi": 75,
          "time": 139,
          "velocity": 0.6929133858267716,
          "duration": 0.3166666666666629
        },
        {
          "name": "D5",
          "midi": 74,
          "time": 139.25,
          "velocity": 0.6929133858267716,
          "duration": 0.3333333333333428
        },
        {
          "name": "G4",
          "midi": 67,
          "time": 139.5,
          "velocity": 0.6929133858267716,
          "duration": 0.30000000000001137
        },
        {
          "name": "D5",
          "midi": 74,
          "time": 139.75,
          "velocity": 0.6929133858267716,
          "duration": 0.3166666666666629
        },
        {
          "name": "G4",
          "midi": 67,
          "time": 140,
          "velocity": 0.6929133858267716,
          "duration": 0.28333333333333144
        },
        {
          "name": "D5",
          "midi": 74,
          "time": 140.25,
          "velocity": 0.7007874015748031,
          "duration": 0.3166666666666629
        },
        {
          "name": "G4",
          "midi": 67,
          "time": 140.5,
          "velocity": 0.7007874015748031,
          "duration": 0.28333333333333144
        },
        {
          "name": "D5",
          "midi": 74,
          "time": 140.75,
          "velocity": 0.7007874015748031,
          "duration": 0.30000000000001137
        },
        {
          "name": "D#5",
          "midi": 75,
          "time": 141,
          "velocity": 0.6929133858267716,
          "duration": 0.3166666666666629
        },
        {
          "name": "D5",
          "midi": 74,
          "time": 141.25,
          "velocity": 0.6929133858267716,
          "duration": 0.3333333333333428
        },
        {
          "name": "G4",
          "midi": 67,
          "time": 141.5,
          "velocity": 0.6929133858267716,
          "duration": 0.30000000000001137
        },
        {
          "name": "D5",
          "midi": 74,
          "time": 141.75,
          "velocity": 0.6929133858267716,
          "duration": 0.3166666666666629
        },
        {
          "name": "G4",
          "midi": 67,
          "time": 142,
          "velocity": 0.6929133858267716,
          "duration": 0.28333333333333144
        },
        {
          "name": "D5",
          "midi": 74,
          "time": 142.25,
          "velocity": 0.6929133858267716,
          "duration": 0.3166666666666629
        },
        {
          "name": "G4",
          "midi": 67,
          "time": 142.5,
          "velocity": 0.6929133858267716,
          "duration": 0.28333333333333144
        },
        {
          "name": "D5",
          "midi": 74,
          "time": 142.75,
          "velocity": 0.6929133858267716,
          "duration": 0.30000000000001137
        },
        {
          "name": "D#5",
          "midi": 75,
          "time": 143,
          "velocity": 0.6929133858267716,
          "duration": 0.3166666666666629
        },
        {
          "name": "D5",
          "midi": 74,
          "time": 143.25,
          "velocity": 0.6929133858267716,
          "duration": 0.3333333333333428
        },
        {
          "name": "G4",
          "midi": 67,
          "time": 143.5,
          "velocity": 0.6929133858267716,
          "duration": 0.30000000000001137
        },
        {
          "name": "D5",
          "midi": 74,
          "time": 143.75,
          "velocity": 0.7007874015748031,
          "duration": 0.3166666666666629
        },
        {
          "name": "G4",
          "midi": 67,
          "time": 144,
          "velocity": 0.6929133858267716,
          "duration": 0.28333333333333144
        },
        {
          "name": "D5",
          "midi": 74,
          "time": 144.25,
          "velocity": 0.6929133858267716,
          "duration": 0.3166666666666629
        },
        {
          "name": "G4",
          "midi": 67,
          "time": 144.5,
          "velocity": 0.6929133858267716,
          "duration": 0.28333333333333144
        },
        {
          "name": "D5",
          "midi": 74,
          "time": 144.75,
          "velocity": 0.6929133858267716,
          "duration": 0.30000000000001137
        },
        {
          "name": "D#5",
          "midi": 75,
          "time": 145,
          "velocity": 0.6929133858267716,
          "duration": 0.3166666666666629
        },
        {
          "name": "D5",
          "midi": 74,
          "time": 145.25,
          "velocity": 0.7007874015748031,
          "duration": 0.3333333333333428
        },
        {
          "name": "G4",
          "midi": 67,
          "time": 145.5,
          "velocity": 0.7007874015748031,
          "duration": 0.30000000000001137
        },
        {
          "name": "D5",
          "midi": 74,
          "time": 145.75,
          "velocity": 0.7007874015748031,
          "duration": 0.3166666666666629
        },
        {
          "name": "G4",
          "midi": 67,
          "time": 146,
          "velocity": 0.6929133858267716,
          "duration": 0.28333333333333144
        },
        {
          "name": "D5",
          "midi": 74,
          "time": 146.25,
          "velocity": 0.6929133858267716,
          "duration": 0.3166666666666629
        },
        {
          "name": "G4",
          "midi": 67,
          "time": 146.5,
          "velocity": 0.6929133858267716,
          "duration": 0.28333333333333144
        },
        {
          "name": "D5",
          "midi": 74,
          "time": 146.75,
          "velocity": 0.6929133858267716,
          "duration": 0.30000000000001137
        },
        {
          "name": "D#5",
          "midi": 75,
          "time": 147,
          "velocity": 0.6929133858267716,
          "duration": 0.3166666666666629
        },
        {
          "name": "D5",
          "midi": 74,
          "time": 147.25,
          "velocity": 0.6929133858267716,
          "duration": 0.3333333333333428
        },
        {
          "name": "G4",
          "midi": 67,
          "time": 147.5,
          "velocity": 0.6929133858267716,
          "duration": 0.30000000000001137
        },
        {
          "name": "D5",
          "midi": 74,
          "time": 147.75,
          "velocity": 0.6929133858267716,
          "duration": 0.3166666666666913
        },
        {
          "name": "G4",
          "midi": 67,
          "time": 166.00000000000003,
          "velocity": 0.6929133858267716,
          "duration": 0.28333333333333144
        },
        {
          "name": "D5",
          "midi": 74,
          "time": 166.25000000000003,
          "velocity": 0.6929133858267716,
          "duration": 0.3166666666666629
        },
        {
          "name": "G4",
          "midi": 67,
          "time": 166.50000000000003,
          "velocity": 0.6929133858267716,
          "duration": 0.28333333333333144
        },
        {
          "name": "D5",
          "midi": 74,
          "time": 166.75000000000003,
          "velocity": 0.6929133858267716,
          "duration": 0.30000000000001137
        },
        {
          "name": "D#5",
          "midi": 75,
          "time": 167.00000000000003,
          "velocity": 0.6929133858267716,
          "duration": 0.3166666666666629
        },
        {
          "name": "D5",
          "midi": 74,
          "time": 167.25000000000003,
          "velocity": 0.6929133858267716,
          "duration": 0.3333333333333428
        },
        {
          "name": "G4",
          "midi": 67,
          "time": 167.50000000000003,
          "velocity": 0.6929133858267716,
          "duration": 0.30000000000001137
        },
        {
          "name": "D5",
          "midi": 74,
          "time": 167.75000000000003,
          "velocity": 0.6929133858267716,
          "duration": 0.3166666666666629
        },
        {
          "name": "G4",
          "midi": 67,
          "time": 168.00000000000003,
          "velocity": 0.6929133858267716,
          "duration": 0.28333333333333144
        },
        {
          "name": "D5",
          "midi": 74,
          "time": 168.25000000000003,
          "velocity": 0.7007874015748031,
          "duration": 0.3166666666666629
        },
        {
          "name": "G4",
          "midi": 67,
          "time": 168.50000000000003,
          "velocity": 0.7007874015748031,
          "duration": 0.28333333333333144
        },
        {
          "name": "D5",
          "midi": 74,
          "time": 168.75000000000003,
          "velocity": 0.7007874015748031,
          "duration": 0.30000000000001137
        },
        {
          "name": "D#5",
          "midi": 75,
          "time": 169.00000000000003,
          "velocity": 0.6929133858267716,
          "duration": 0.3166666666666629
        },
        {
          "name": "D5",
          "midi": 74,
          "time": 169.25000000000003,
          "velocity": 0.6929133858267716,
          "duration": 0.3333333333333428
        },
        {
          "name": "G4",
          "midi": 67,
          "time": 169.50000000000003,
          "velocity": 0.6929133858267716,
          "duration": 0.30000000000001137
        },
        {
          "name": "D5",
          "midi": 74,
          "time": 169.75000000000003,
          "velocity": 0.6929133858267716,
          "duration": 0.3166666666666629
        },
        {
          "name": "G4",
          "midi": 67,
          "time": 170.00000000000003,
          "velocity": 0.6929133858267716,
          "duration": 0.28333333333333144
        },
        {
          "name": "D5",
          "midi": 74,
          "time": 170.25000000000003,
          "velocity": 0.6929133858267716,
          "duration": 0.3166666666666629
        },
        {
          "name": "G4",
          "midi": 67,
          "time": 170.50000000000003,
          "velocity": 0.6929133858267716,
          "duration": 0.28333333333333144
        },
        {
          "name": "D5",
          "midi": 74,
          "time": 170.75000000000003,
          "velocity": 0.6929133858267716,
          "duration": 0.30000000000001137
        },
        {
          "name": "D#5",
          "midi": 75,
          "time": 171.00000000000003,
          "velocity": 0.6929133858267716,
          "duration": 0.3166666666666629
        },
        {
          "name": "D5",
          "midi": 74,
          "time": 171.25000000000003,
          "velocity": 0.6929133858267716,
          "duration": 0.3333333333333428
        },
        {
          "name": "G4",
          "midi": 67,
          "time": 171.50000000000003,
          "velocity": 0.6929133858267716,
          "duration": 0.30000000000001137
        },
        {
          "name": "D5",
          "midi": 74,
          "time": 171.75000000000003,
          "velocity": 0.7007874015748031,
          "duration": 0.3166666666666629
        },
        {
          "name": "G4",
          "midi": 67,
          "time": 172.00000000000003,
          "velocity": 0.6929133858267716,
          "duration": 0.28333333333333144
        },
        {
          "name": "D5",
          "midi": 74,
          "time": 172.25000000000003,
          "velocity": 0.6929133858267716,
          "duration": 0.3166666666666629
        },
        {
          "name": "G4",
          "midi": 67,
          "time": 172.50000000000003,
          "velocity": 0.6929133858267716,
          "duration": 0.28333333333333144
        },
        {
          "name": "D5",
          "midi": 74,
          "time": 172.75000000000003,
          "velocity": 0.6929133858267716,
          "duration": 0.30000000000001137
        },
        {
          "name": "D#5",
          "midi": 75,
          "time": 173.00000000000003,
          "velocity": 0.6929133858267716,
          "duration": 0.3166666666666629
        },
        {
          "name": "D5",
          "midi": 74,
          "time": 173.25000000000003,
          "velocity": 0.7007874015748031,
          "duration": 0.3333333333333428
        },
        {
          "name": "G4",
          "midi": 67,
          "time": 173.50000000000003,
          "velocity": 0.7007874015748031,
          "duration": 0.30000000000001137
        },
        {
          "name": "D5",
          "midi": 74,
          "time": 173.75000000000003,
          "velocity": 0.7007874015748031,
          "duration": 0.3166666666666629
        },
        {
          "name": "G4",
          "midi": 67,
          "time": 174.00000000000003,
          "velocity": 0.7007874015748031,
          "duration": 0.28333333333333144
        },
        {
          "name": "D5",
          "midi": 74,
          "time": 174.25000000000003,
          "velocity": 0.6929133858267716,
          "duration": 0.3166666666666629
        },
        {
          "name": "G4",
          "midi": 67,
          "time": 174.50000000000003,
          "velocity": 0.6929133858267716,
          "duration": 0.28333333333333144
        },
        {
          "name": "D5",
          "midi": 74,
          "time": 174.75000000000003,
          "velocity": 0.6929133858267716,
          "duration": 0.30000000000001137
        },
        {
          "name": "D#5",
          "midi": 75,
          "time": 175.00000000000003,
          "velocity": 0.6929133858267716,
          "duration": 0.3166666666666629
        },
        {
          "name": "D5",
          "midi": 74,
          "time": 175.25000000000003,
          "velocity": 0.6929133858267716,
          "duration": 0.3333333333333428
        },
        {
          "name": "G4",
          "midi": 67,
          "time": 175.50000000000003,
          "velocity": 0.7007874015748031,
          "duration": 0.30000000000001137
        },
        {
          "name": "D5",
          "midi": 74,
          "time": 175.75000000000003,
          "velocity": 0.7007874015748031,
          "duration": 0.3166666666666629
        },
        {
          "name": "G4",
          "midi": 67,
          "time": 176.00000000000003,
          "velocity": 0.7007874015748031,
          "duration": 0.28333333333333144
        },
        {
          "name": "D5",
          "midi": 74,
          "time": 176.25000000000003,
          "velocity": 0.6929133858267716,
          "duration": 0.3166666666666629
        },
        {
          "name": "G4",
          "midi": 67,
          "time": 176.50000000000003,
          "velocity": 0.6929133858267716,
          "duration": 0.28333333333333144
        },
        {
          "name": "D5",
          "midi": 74,
          "time": 176.75000000000003,
          "velocity": 0.6929133858267716,
          "duration": 0.30000000000001137
        },
        {
          "name": "D#5",
          "midi": 75,
          "time": 177.00000000000003,
          "velocity": 0.6929133858267716,
          "duration": 0.3166666666666629
        },
        {
          "name": "D5",
          "midi": 74,
          "time": 177.25000000000003,
          "velocity": 0.7007874015748031,
          "duration": 0.3333333333333428
        },
        {
          "name": "G4",
          "midi": 67,
          "time": 177.50000000000003,
          "velocity": 0.7007874015748031,
          "duration": 0.30000000000001137
        },
        {
          "name": "D5",
          "midi": 74,
          "time": 177.75000000000003,
          "velocity": 0.6929133858267716,
          "duration": 0.3166666666666629
        },
        {
          "name": "G4",
          "midi": 67,
          "time": 178.00000000000003,
          "velocity": 0.6929133858267716,
          "duration": 0.28333333333333144
        },
        {
          "name": "D5",
          "midi": 74,
          "time": 178.25000000000003,
          "velocity": 0.6929133858267716,
          "duration": 0.3166666666666629
        },
        {
          "name": "G4",
          "midi": 67,
          "time": 178.50000000000003,
          "velocity": 0.6929133858267716,
          "duration": 0.28333333333333144
        },
        {
          "name": "D5",
          "midi": 74,
          "time": 178.75000000000003,
          "velocity": 0.6929133858267716,
          "duration": 0.30000000000001137
        },
        {
          "name": "D#5",
          "midi": 75,
          "time": 179.00000000000003,
          "velocity": 0.6929133858267716,
          "duration": 0.3166666666666629
        },
        {
          "name": "D5",
          "midi": 74,
          "time": 179.25000000000003,
          "velocity": 0.6929133858267716,
          "duration": 0.3333333333333428
        },
        {
          "name": "G4",
          "midi": 67,
          "time": 179.50000000000003,
          "velocity": 0.6929133858267716,
          "duration": 0.30000000000001137
        },
        {
          "name": "D5",
          "midi": 74,
          "time": 179.75000000000003,
          "velocity": 0.6929133858267716,
          "duration": 0.3166666666666629
        },
        {
          "name": "G4",
          "midi": 67,
          "time": 180.00000000000003,
          "velocity": 0.6929133858267716,
          "duration": 0.28333333333333144
        },
        {
          "name": "D5",
          "midi": 74,
          "time": 180.25000000000003,
          "velocity": 0.6929133858267716,
          "duration": 0.3166666666666629
        },
        {
          "name": "G4",
          "midi": 67,
          "time": 180.50000000000003,
          "velocity": 0.6929133858267716,
          "duration": 0.28333333333333144
        },
        {
          "name": "D5",
          "midi": 74,
          "time": 180.75000000000003,
          "velocity": 0.6929133858267716,
          "duration": 0.30000000000001137
        },
        {
          "name": "D#5",
          "midi": 75,
          "time": 181.00000000000003,
          "velocity": 0.6929133858267716,
          "duration": 0.3166666666666629
        },
        {
          "name": "D5",
          "midi": 74,
          "time": 181.25000000000003,
          "velocity": 0.6929133858267716,
          "duration": 0.3333333333333428
        },
        {
          "name": "G4",
          "midi": 67,
          "time": 181.50000000000003,
          "velocity": 0.6929133858267716,
          "duration": 0.30000000000001137
        },
        {
          "name": "D5",
          "midi": 74,
          "time": 181.75000000000003,
          "velocity": 0.7007874015748031,
          "duration": 0.3166666666666629
        },
        {
          "name": "G4",
          "midi": 67,
          "time": 182.00000000000003,
          "velocity": 0.6929133858267716,
          "duration": 0.28333333333333144
        },
        {
          "name": "D5",
          "midi": 74,
          "time": 182.25000000000003,
          "velocity": 0.6929133858267716,
          "duration": 0.3166666666666629
        },
        {
          "name": "G4",
          "midi": 67,
          "time": 182.50000000000003,
          "velocity": 0.6929133858267716,
          "duration": 0.28333333333333144
        },
        {
          "name": "D5",
          "midi": 74,
          "time": 182.75000000000003,
          "velocity": 0.6929133858267716,
          "duration": 0.30000000000001137
        },
        {
          "name": "D#5",
          "midi": 75,
          "time": 183.00000000000003,
          "velocity": 0.6929133858267716,
          "duration": 0.3166666666666629
        },
        {
          "name": "D5",
          "midi": 74,
          "time": 183.25000000000003,
          "velocity": 0.6929133858267716,
          "duration": 0.3333333333333428
        },
        {
          "name": "G4",
          "midi": 67,
          "time": 183.50000000000003,
          "velocity": 0.6929133858267716,
          "duration": 0.30000000000001137
        },
        {
          "name": "D5",
          "midi": 74,
          "time": 183.75000000000003,
          "velocity": 0.6929133858267716,
          "duration": 0.3166666666666629
        },
        {
          "name": "G4",
          "midi": 67,
          "time": 184.00000000000003,
          "velocity": 0.6929133858267716,
          "duration": 0.28333333333333144
        },
        {
          "name": "D5",
          "midi": 74,
          "time": 184.25000000000003,
          "velocity": 0.7007874015748031,
          "duration": 0.3166666666666629
        },
        {
          "name": "G4",
          "midi": 67,
          "time": 184.50000000000003,
          "velocity": 0.7007874015748031,
          "duration": 0.28333333333333144
        },
        {
          "name": "D5",
          "midi": 74,
          "time": 184.75000000000003,
          "velocity": 0.7007874015748031,
          "duration": 0.30000000000001137
        },
        {
          "name": "D#5",
          "midi": 75,
          "time": 185.00000000000003,
          "velocity": 0.6929133858267716,
          "duration": 0.3166666666666629
        },
        {
          "name": "D5",
          "midi": 74,
          "time": 185.25000000000003,
          "velocity": 0.6929133858267716,
          "duration": 0.3333333333333428
        },
        {
          "name": "G4",
          "midi": 67,
          "time": 185.50000000000003,
          "velocity": 0.6929133858267716,
          "duration": 0.30000000000001137
        },
        {
          "name": "D5",
          "midi": 74,
          "time": 185.75000000000003,
          "velocity": 0.6929133858267716,
          "duration": 0.3166666666666629
        },
        {
          "name": "G4",
          "midi": 67,
          "time": 186.00000000000003,
          "velocity": 0.6929133858267716,
          "duration": 0.28333333333333144
        },
        {
          "name": "D5",
          "midi": 74,
          "time": 186.25000000000003,
          "velocity": 0.6929133858267716,
          "duration": 0.3166666666666629
        },
        {
          "name": "G4",
          "midi": 67,
          "time": 186.50000000000003,
          "velocity": 0.6929133858267716,
          "duration": 0.28333333333333144
        },
        {
          "name": "D5",
          "midi": 74,
          "time": 186.75000000000003,
          "velocity": 0.6929133858267716,
          "duration": 0.30000000000001137
        },
        {
          "name": "D#5",
          "midi": 75,
          "time": 187.00000000000003,
          "velocity": 0.6929133858267716,
          "duration": 0.3166666666666629
        },
        {
          "name": "D5",
          "midi": 74,
          "time": 187.25000000000003,
          "velocity": 0.6929133858267716,
          "duration": 0.3333333333333428
        },
        {
          "name": "G4",
          "midi": 67,
          "time": 187.50000000000003,
          "velocity": 0.6929133858267716,
          "duration": 0.30000000000001137
        },
        {
          "name": "D5",
          "midi": 74,
          "time": 187.75000000000003,
          "velocity": 0.7007874015748031,
          "duration": 0.3166666666666629
        },
        {
          "name": "G4",
          "midi": 67,
          "time": 188.00000000000003,
          "velocity": 0.6929133858267716,
          "duration": 0.28333333333333144
        },
        {
          "name": "D5",
          "midi": 74,
          "time": 188.25000000000003,
          "velocity": 0.6929133858267716,
          "duration": 0.3166666666666629
        },
        {
          "name": "G4",
          "midi": 67,
          "time": 188.50000000000003,
          "velocity": 0.6929133858267716,
          "duration": 0.28333333333333144
        },
        {
          "name": "D5",
          "midi": 74,
          "time": 188.75000000000003,
          "velocity": 0.6929133858267716,
          "duration": 0.30000000000001137
        },
        {
          "name": "D#5",
          "midi": 75,
          "time": 189.00000000000003,
          "velocity": 0.6929133858267716,
          "duration": 0.3166666666666629
        },
        {
          "name": "D5",
          "midi": 74,
          "time": 189.25000000000003,
          "velocity": 0.7007874015748031,
          "duration": 0.3333333333333428
        },
        {
          "name": "G4",
          "midi": 67,
          "time": 189.50000000000003,
          "velocity": 0.7007874015748031,
          "duration": 0.30000000000001137
        },
        {
          "name": "D5",
          "midi": 74,
          "time": 189.75000000000003,
          "velocity": 0.7007874015748031,
          "duration": 0.3166666666666629
        },
        {
          "name": "G4",
          "midi": 67,
          "time": 190.00000000000003,
          "velocity": 0.6929133858267716,
          "duration": 0.28333333333333144
        },
        {
          "name": "D5",
          "midi": 74,
          "time": 190.25000000000003,
          "velocity": 0.6929133858267716,
          "duration": 0.3166666666666629
        },
        {
          "name": "G4",
          "midi": 67,
          "time": 190.50000000000003,
          "velocity": 0.6929133858267716,
          "duration": 0.28333333333333144
        },
        {
          "name": "D5",
          "midi": 74,
          "time": 190.75000000000003,
          "velocity": 0.6929133858267716,
          "duration": 0.30000000000001137
        },
        {
          "name": "D#5",
          "midi": 75,
          "time": 191.00000000000003,
          "velocity": 0.6929133858267716,
          "duration": 0.3166666666666629
        },
        {
          "name": "D5",
          "midi": 74,
          "time": 191.25000000000003,
          "velocity": 0.6929133858267716,
          "duration": 0.3333333333333428
        },
        {
          "name": "G4",
          "midi": 67,
          "time": 191.50000000000003,
          "velocity": 0.6929133858267716,
          "duration": 0.30000000000001137
        },
        {
          "name": "D5",
          "midi": 74,
          "time": 191.75000000000003,
          "velocity": 0.6929133858267716,
          "duration": 0.3166666666666629
        },
        {
          "name": "G4",
          "midi": 67,
          "time": 192.00000000000003,
          "velocity": 0.6929133858267716,
          "duration": 0.28333333333333144
        },
        {
          "name": "D5",
          "midi": 74,
          "time": 192.25000000000003,
          "velocity": 0.7007874015748031,
          "duration": 0.3166666666666629
        },
        {
          "name": "G4",
          "midi": 67,
          "time": 192.50000000000003,
          "velocity": 0.7007874015748031,
          "duration": 0.28333333333333144
        },
        {
          "name": "D5",
          "midi": 74,
          "time": 192.75000000000003,
          "velocity": 0.7007874015748031,
          "duration": 0.30000000000001137
        },
        {
          "name": "D#5",
          "midi": 75,
          "time": 193.00000000000003,
          "velocity": 0.6929133858267716,
          "duration": 0.3166666666666629
        },
        {
          "name": "D5",
          "midi": 74,
          "time": 193.25000000000003,
          "velocity": 0.6929133858267716,
          "duration": 0.3333333333333428
        },
        {
          "name": "G4",
          "midi": 67,
          "time": 193.50000000000003,
          "velocity": 0.6929133858267716,
          "duration": 0.30000000000001137
        },
        {
          "name": "D5",
          "midi": 74,
          "time": 193.75000000000003,
          "velocity": 0.6929133858267716,
          "duration": 0.3166666666666629
        },
        {
          "name": "G4",
          "midi": 67,
          "time": 194.00000000000003,
          "velocity": 0.6929133858267716,
          "duration": 0.28333333333333144
        },
        {
          "name": "D5",
          "midi": 74,
          "time": 194.25000000000003,
          "velocity": 0.6929133858267716,
          "duration": 0.3166666666666629
        },
        {
          "name": "G4",
          "midi": 67,
          "time": 194.50000000000003,
          "velocity": 0.6929133858267716,
          "duration": 0.28333333333333144
        },
        {
          "name": "D5",
          "midi": 74,
          "time": 194.75000000000003,
          "velocity": 0.6929133858267716,
          "duration": 0.30000000000001137
        },
        {
          "name": "D#5",
          "midi": 75,
          "time": 195.00000000000003,
          "velocity": 0.6929133858267716,
          "duration": 0.3166666666666629
        },
        {
          "name": "D5",
          "midi": 74,
          "time": 195.25000000000003,
          "velocity": 0.6929133858267716,
          "duration": 0.3333333333333428
        },
        {
          "name": "G4",
          "midi": 67,
          "time": 195.50000000000003,
          "velocity": 0.6929133858267716,
          "duration": 0.30000000000001137
        },
        {
          "name": "D5",
          "midi": 74,
          "time": 195.75000000000003,
          "velocity": 0.7007874015748031,
          "duration": 0.3166666666666629
        },
        {
          "name": "G4",
          "midi": 67,
          "time": 196.00000000000003,
          "velocity": 0.6929133858267716,
          "duration": 0.28333333333333144
        },
        {
          "name": "D5",
          "midi": 74,
          "time": 196.25000000000003,
          "velocity": 0.6929133858267716,
          "duration": 0.3166666666666629
        },
        {
          "name": "G4",
          "midi": 67,
          "time": 196.50000000000003,
          "velocity": 0.6929133858267716,
          "duration": 0.28333333333333144
        },
        {
          "name": "D5",
          "midi": 74,
          "time": 196.75000000000003,
          "velocity": 0.6929133858267716,
          "duration": 0.30000000000001137
        },
        {
          "name": "D#5",
          "midi": 75,
          "time": 197.00000000000003,
          "velocity": 0.6929133858267716,
          "duration": 0.3166666666666629
        },
        {
          "name": "D5",
          "midi": 74,
          "time": 197.25000000000003,
          "velocity": 0.7007874015748031,
          "duration": 0.3333333333333428
        },
        {
          "name": "G4",
          "midi": 67,
          "time": 197.50000000000003,
          "velocity": 0.7007874015748031,
          "duration": 0.30000000000001137
        },
        {
          "name": "D5",
          "midi": 74,
          "time": 197.75000000000003,
          "velocity": 0.7007874015748031,
          "duration": 0.3166666666666629
        },
        {
          "name": "G4",
          "midi": 67,
          "time": 198.00000000000003,
          "velocity": 0.6929133858267716,
          "duration": 0.28333333333333144
        },
        {
          "name": "D5",
          "midi": 74,
          "time": 198.25000000000003,
          "velocity": 0.6929133858267716,
          "duration": 0.3166666666666629
        },
        {
          "name": "G4",
          "midi": 67,
          "time": 198.50000000000003,
          "velocity": 0.6929133858267716,
          "duration": 0.28333333333333144
        },
        {
          "name": "D5",
          "midi": 74,
          "time": 198.75000000000003,
          "velocity": 0.6929133858267716,
          "duration": 0.30000000000001137
        },
        {
          "name": "D#5",
          "midi": 75,
          "time": 199.00000000000003,
          "velocity": 0.6929133858267716,
          "duration": 0.3166666666666629
        },
        {
          "name": "D5",
          "midi": 74,
          "time": 199.25000000000003,
          "velocity": 0.6929133858267716,
          "duration": 0.3333333333333428
        },
        {
          "name": "G4",
          "midi": 67,
          "time": 199.50000000000003,
          "velocity": 0.6929133858267716,
          "duration": 0.30000000000001137
        },
        {
          "name": "D5",
          "midi": 74,
          "time": 199.75000000000003,
          "velocity": 0.6929133858267716,
          "duration": 0.3166666666666629
        },
        {
          "name": "G4",
          "midi": 67,
          "time": 200.00000000000003,
          "velocity": 0.6929133858267716,
          "duration": 0.28333333333333144
        },
        {
          "name": "D5",
          "midi": 74,
          "time": 200.25000000000003,
          "velocity": 0.7007874015748031,
          "duration": 0.3166666666666629
        },
        {
          "name": "G4",
          "midi": 67,
          "time": 200.50000000000003,
          "velocity": 0.7007874015748031,
          "duration": 0.28333333333333144
        },
        {
          "name": "D5",
          "midi": 74,
          "time": 200.75000000000003,
          "velocity": 0.7007874015748031,
          "duration": 0.30000000000001137
        },
        {
          "name": "D#5",
          "midi": 75,
          "time": 201.00000000000003,
          "velocity": 0.6929133858267716,
          "duration": 0.3166666666666629
        },
        {
          "name": "D5",
          "midi": 74,
          "time": 201.25000000000003,
          "velocity": 0.6929133858267716,
          "duration": 0.3333333333333428
        },
        {
          "name": "G4",
          "midi": 67,
          "time": 201.50000000000003,
          "velocity": 0.6929133858267716,
          "duration": 0.30000000000001137
        },
        {
          "name": "D5",
          "midi": 74,
          "time": 201.75000000000003,
          "velocity": 0.6929133858267716,
          "duration": 0.3166666666666629
        },
        {
          "name": "G4",
          "midi": 67,
          "time": 202.00000000000003,
          "velocity": 0.6929133858267716,
          "duration": 0.28333333333333144
        },
        {
          "name": "D5",
          "midi": 74,
          "time": 202.25000000000003,
          "velocity": 0.6929133858267716,
          "duration": 0.3166666666666629
        },
        {
          "name": "G4",
          "midi": 67,
          "time": 202.50000000000003,
          "velocity": 0.6929133858267716,
          "duration": 0.28333333333333144
        },
        {
          "name": "D5",
          "midi": 74,
          "time": 202.75000000000003,
          "velocity": 0.6929133858267716,
          "duration": 0.30000000000001137
        },
        {
          "name": "D#5",
          "midi": 75,
          "time": 203.00000000000003,
          "velocity": 0.6929133858267716,
          "duration": 0.3166666666666629
        },
        {
          "name": "D5",
          "midi": 74,
          "time": 203.25000000000003,
          "velocity": 0.6929133858267716,
          "duration": 0.3333333333333428
        },
        {
          "name": "G4",
          "midi": 67,
          "time": 203.50000000000003,
          "velocity": 0.6929133858267716,
          "duration": 0.30000000000001137
        },
        {
          "name": "D5",
          "midi": 74,
          "time": 203.75000000000003,
          "velocity": 0.7007874015748031,
          "duration": 0.3166666666666629
        },
        {
          "name": "G4",
          "midi": 67,
          "time": 204.00000000000003,
          "velocity": 0.6929133858267716,
          "duration": 0.28333333333333144
        },
        {
          "name": "D5",
          "midi": 74,
          "time": 204.25000000000003,
          "velocity": 0.6929133858267716,
          "duration": 0.3166666666666629
        },
        {
          "name": "G4",
          "midi": 67,
          "time": 204.50000000000003,
          "velocity": 0.6929133858267716,
          "duration": 0.28333333333333144
        },
        {
          "name": "D5",
          "midi": 74,
          "time": 204.75000000000003,
          "velocity": 0.6929133858267716,
          "duration": 0.30000000000001137
        },
        {
          "name": "D#5",
          "midi": 75,
          "time": 205.00000000000003,
          "velocity": 0.6929133858267716,
          "duration": 0.3166666666666629
        },
        {
          "name": "D5",
          "midi": 74,
          "time": 205.25000000000003,
          "velocity": 0.7007874015748031,
          "duration": 0.3333333333333428
        },
        {
          "name": "G4",
          "midi": 67,
          "time": 205.50000000000003,
          "velocity": 0.7007874015748031,
          "duration": 0.30000000000001137
        },
        {
          "name": "D5",
          "midi": 74,
          "time": 205.75000000000003,
          "velocity": 0.7007874015748031,
          "duration": 2.2166666666666686
        }
      ],
      "controlChanges": {
        "7": [
          {
            "number": 7,
            "time": 0,
            "value": 0.7795275590551181
          }
        ],
        "10": [
          {
            "number": 10,
            "time": 0,
            "value": 0.5039370078740157
          }
        ],
        "91": [
          {
            "number": 91,
            "time": 0,
            "value": 0.31496062992125984
          }
        ],
        "93": [
          {
            "number": 93,
            "time": 0,
            "value": 0
          }
        ]
      },
      "id": 2,
      "name": "3",
      "instrumentNumber": 2,
      "instrument": "electric grand piano",
      "instrumentFamily": "piano",
      "channelNumber": 2,
      "isPercussion": false
    },
    {
      "startTime": 28,
      "duration": 205.94999999999993,
      "length": 423,
      "notes": [
        {
          "name": "G1",
          "midi": 31,
          "time": 28,
          "velocity": 0.8346456692913385,
          "duration": 0.216666666666665
        },
        {
          "name": "G1",
          "midi": 31,
          "time": 28.25,
          "velocity": 0.8346456692913385,
          "duration": 0.216666666666665
        },
        {
          "name": "G1",
          "midi": 31,
          "time": 28.5,
          "velocity": 0.8346456692913385,
          "duration": 0.216666666666665
        },
        {
          "name": "G1",
          "midi": 31,
          "time": 28.75,
          "velocity": 0.8346456692913385,
          "duration": 0.216666666666665
        },
        {
          "name": "G1",
          "midi": 31,
          "time": 29,
          "velocity": 0.8346456692913385,
          "duration": 0.216666666666665
        },
        {
          "name": "G1",
          "midi": 31,
          "time": 29.25,
          "velocity": 0.8346456692913385,
          "duration": 0.216666666666665
        },
        {
          "name": "G1",
          "midi": 31,
          "time": 29.5,
          "velocity": 0.8346456692913385,
          "duration": 0.216666666666665
        },
        {
          "name": "G1",
          "midi": 31,
          "time": 29.75,
          "velocity": 0.8346456692913385,
          "duration": 0.216666666666665
        },
        {
          "name": "A#1",
          "midi": 34,
          "time": 30,
          "velocity": 0.8346456692913385,
          "duration": 0.216666666666665
        },
        {
          "name": "A#1",
          "midi": 34,
          "time": 30.25,
          "velocity": 0.8346456692913385,
          "duration": 0.216666666666665
        },
        {
          "name": "A#1",
          "midi": 34,
          "time": 30.5,
          "velocity": 0.8346456692913385,
          "duration": 0.216666666666665
        },
        {
          "name": "A#1",
          "midi": 34,
          "time": 30.75,
          "velocity": 0.8346456692913385,
          "duration": 0.216666666666665
        },
        {
          "name": "A#1",
          "midi": 34,
          "time": 31,
          "velocity": 0.8346456692913385,
          "duration": 0.216666666666665
        },
        {
          "name": "A#1",
          "midi": 34,
          "time": 31.25,
          "velocity": 0.8346456692913385,
          "duration": 0.216666666666665
        },
        {
          "name": "A#1",
          "midi": 34,
          "time": 31.5,
          "velocity": 0.8346456692913385,
          "duration": 0.216666666666665
        },
        {
          "name": "A#1",
          "midi": 34,
          "time": 31.75,
          "velocity": 0.8346456692913385,
          "duration": 0.216666666666665
        },
        {
          "name": "F1",
          "midi": 29,
          "time": 32,
          "velocity": 0.8346456692913385,
          "duration": 0.21666666666666856
        },
        {
          "name": "F1",
          "midi": 29,
          "time": 32.25,
          "velocity": 0.8346456692913385,
          "duration": 0.21666666666666856
        },
        {
          "name": "F1",
          "midi": 29,
          "time": 32.5,
          "velocity": 0.8346456692913385,
          "duration": 0.21666666666666856
        },
        {
          "name": "F1",
          "midi": 29,
          "time": 32.75,
          "velocity": 0.8346456692913385,
          "duration": 0.21666666666666856
        },
        {
          "name": "F1",
          "midi": 29,
          "time": 33,
          "velocity": 0.8346456692913385,
          "duration": 0.21666666666666856
        },
        {
          "name": "F1",
          "midi": 29,
          "time": 33.25,
          "velocity": 0.8346456692913385,
          "duration": 0.21666666666666856
        },
        {
          "name": "F1",
          "midi": 29,
          "time": 33.5,
          "velocity": 0.8346456692913385,
          "duration": 0.21666666666666856
        },
        {
          "name": "F1",
          "midi": 29,
          "time": 33.75,
          "velocity": 0.8346456692913385,
          "duration": 0.21666666666666856
        },
        {
          "name": "C2",
          "midi": 36,
          "time": 34,
          "velocity": 0.8346456692913385,
          "duration": 0.21666666666666856
        },
        {
          "name": "C2",
          "midi": 36,
          "time": 34.25,
          "velocity": 0.8346456692913385,
          "duration": 0.21666666666666856
        },
        {
          "name": "C2",
          "midi": 36,
          "time": 34.5,
          "velocity": 0.8346456692913385,
          "duration": 0.21666666666666856
        },
        {
          "name": "C2",
          "midi": 36,
          "time": 34.75,
          "velocity": 0.8346456692913385,
          "duration": 0.21666666666666856
        },
        {
          "name": "C2",
          "midi": 36,
          "time": 35,
          "velocity": 0.8346456692913385,
          "duration": 0.21666666666666856
        },
        {
          "name": "C2",
          "midi": 36,
          "time": 35.25,
          "velocity": 0.8346456692913385,
          "duration": 0.21666666666666856
        },
        {
          "name": "C2",
          "midi": 36,
          "time": 35.5,
          "velocity": 0.8346456692913385,
          "duration": 0.21666666666666856
        },
        {
          "name": "C2",
          "midi": 36,
          "time": 35.75,
          "velocity": 0.8346456692913385,
          "duration": 0.21666666666666856
        },
        {
          "name": "G1",
          "midi": 31,
          "time": 36,
          "velocity": 0.8346456692913385,
          "duration": 0.21666666666666856
        },
        {
          "name": "G1",
          "midi": 31,
          "time": 36.25,
          "velocity": 0.8346456692913385,
          "duration": 0.21666666666666856
        },
        {
          "name": "G1",
          "midi": 31,
          "time": 36.5,
          "velocity": 0.8346456692913385,
          "duration": 0.21666666666666856
        },
        {
          "name": "G1",
          "midi": 31,
          "time": 36.75,
          "velocity": 0.8346456692913385,
          "duration": 0.21666666666666856
        },
        {
          "name": "G1",
          "midi": 31,
          "time": 37,
          "velocity": 0.8346456692913385,
          "duration": 0.21666666666666856
        },
        {
          "name": "G1",
          "midi": 31,
          "time": 37.25,
          "velocity": 0.8346456692913385,
          "duration": 0.21666666666666856
        },
        {
          "name": "G1",
          "midi": 31,
          "time": 37.5,
          "velocity": 0.8346456692913385,
          "duration": 0.21666666666666856
        },
        {
          "name": "G1",
          "midi": 31,
          "time": 37.75,
          "velocity": 0.8346456692913385,
          "duration": 0.21666666666666856
        },
        {
          "name": "A#1",
          "midi": 34,
          "time": 38,
          "velocity": 0.8346456692913385,
          "duration": 0.21666666666666856
        },
        {
          "name": "A#1",
          "midi": 34,
          "time": 38.25,
          "velocity": 0.8346456692913385,
          "duration": 0.21666666666666856
        },
        {
          "name": "A#1",
          "midi": 34,
          "time": 38.5,
          "velocity": 0.8346456692913385,
          "duration": 0.21666666666666856
        },
        {
          "name": "A#1",
          "midi": 34,
          "time": 38.75,
          "velocity": 0.8346456692913385,
          "duration": 0.21666666666666856
        },
        {
          "name": "A#1",
          "midi": 34,
          "time": 39,
          "velocity": 0.8346456692913385,
          "duration": 0.21666666666666856
        },
        {
          "name": "A#1",
          "midi": 34,
          "time": 39.25,
          "velocity": 0.8346456692913385,
          "duration": 0.21666666666666856
        },
        {
          "name": "A#1",
          "midi": 34,
          "time": 39.5,
          "velocity": 0.8346456692913385,
          "duration": 0.21666666666666856
        },
        {
          "name": "A#1",
          "midi": 34,
          "time": 39.75,
          "velocity": 0.8346456692913385,
          "duration": 0.21666666666666856
        },
        {
          "name": "F1",
          "midi": 29,
          "time": 40,
          "velocity": 0.8346456692913385,
          "duration": 0.21666666666666856
        },
        {
          "name": "F1",
          "midi": 29,
          "time": 40.25,
          "velocity": 0.8346456692913385,
          "duration": 0.21666666666666856
        },
        {
          "name": "F1",
          "midi": 29,
          "time": 40.5,
          "velocity": 0.8346456692913385,
          "duration": 0.21666666666666856
        },
        {
          "name": "F1",
          "midi": 29,
          "time": 40.75,
          "velocity": 0.8346456692913385,
          "duration": 0.21666666666666856
        },
        {
          "name": "F1",
          "midi": 29,
          "time": 41,
          "velocity": 0.8346456692913385,
          "duration": 0.21666666666666856
        },
        {
          "name": "F1",
          "midi": 29,
          "time": 41.25,
          "velocity": 0.8346456692913385,
          "duration": 0.21666666666666856
        },
        {
          "name": "F1",
          "midi": 29,
          "time": 41.5,
          "velocity": 0.8346456692913385,
          "duration": 0.21666666666666856
        },
        {
          "name": "F1",
          "midi": 29,
          "time": 41.75,
          "velocity": 0.8346456692913385,
          "duration": 0.21666666666666856
        },
        {
          "name": "C2",
          "midi": 36,
          "time": 42,
          "velocity": 0.8346456692913385,
          "duration": 0.21666666666666856
        },
        {
          "name": "C2",
          "midi": 36,
          "time": 42.25,
          "velocity": 0.8346456692913385,
          "duration": 0.21666666666666856
        },
        {
          "name": "C2",
          "midi": 36,
          "time": 42.5,
          "velocity": 0.8346456692913385,
          "duration": 0.21666666666666856
        },
        {
          "name": "C2",
          "midi": 36,
          "time": 42.75,
          "velocity": 0.8346456692913385,
          "duration": 0.21666666666666856
        },
        {
          "name": "C2",
          "midi": 36,
          "time": 43,
          "velocity": 0.8346456692913385,
          "duration": 0.21666666666666856
        },
        {
          "name": "C2",
          "midi": 36,
          "time": 43.25,
          "velocity": 0.8346456692913385,
          "duration": 0.21666666666666856
        },
        {
          "name": "C2",
          "midi": 36,
          "time": 43.5,
          "velocity": 0.8346456692913385,
          "duration": 0.21666666666666856
        },
        {
          "name": "C2",
          "midi": 36,
          "time": 43.75,
          "velocity": 0.8346456692913385,
          "duration": 0.21666666666666856
        },
        {
          "name": "G1",
          "midi": 31,
          "time": 44,
          "velocity": 0.8346456692913385,
          "duration": 3.800000000000054
        },
        {
          "name": "G1",
          "midi": 31,
          "time": 48.00000000000005,
          "velocity": 0.8346456692913385,
          "duration": 2
        },
        {
          "name": "A#1",
          "midi": 34,
          "time": 50.00000000000005,
          "velocity": 0.8346456692913385,
          "duration": 2
        },
        {
          "name": "F1",
          "midi": 29,
          "time": 52.00000000000005,
          "velocity": 0.8346456692913385,
          "duration": 2
        },
        {
          "name": "C2",
          "midi": 36,
          "time": 54.00000000000005,
          "velocity": 0.8346456692913385,
          "duration": 2
        },
        {
          "name": "G1",
          "midi": 31,
          "time": 56.00000000000005,
          "velocity": 0.8346456692913385,
          "duration": 2
        },
        {
          "name": "A#1",
          "midi": 34,
          "time": 58.00000000000005,
          "velocity": 0.8346456692913385,
          "duration": 2
        },
        {
          "name": "F1",
          "midi": 29,
          "time": 60.00000000000005,
          "velocity": 0.8346456692913385,
          "duration": 2
        },
        {
          "name": "C2",
          "midi": 36,
          "time": 62.00000000000005,
          "velocity": 0.8346456692913385,
          "duration": 1.9500000000000028
        },
        {
          "name": "D#2",
          "midi": 39,
          "time": 64.00000000000006,
          "velocity": 0.8346456692913385,
          "duration": 3.933333333333337
        },
        {
          "name": "F1",
          "midi": 29,
          "time": 68.00000000000006,
          "velocity": 0.8346456692913385,
          "duration": 3.933333333333337
        },
        {
          "name": "G1",
          "midi": 31,
          "time": 72.00000000000006,
          "velocity": 0.8346456692913385,
          "duration": 0.21666666666666856
        },
        {
          "name": "G1",
          "midi": 31,
          "time": 72.25000000000006,
          "velocity": 0.8346456692913385,
          "duration": 0.21666666666666856
        },
        {
          "name": "G1",
          "midi": 31,
          "time": 72.50000000000006,
          "velocity": 0.8346456692913385,
          "duration": 0.21666666666666856
        },
        {
          "name": "G1",
          "midi": 31,
          "time": 72.75000000000006,
          "velocity": 0.8346456692913385,
          "duration": 0.21666666666666856
        },
        {
          "name": "G1",
          "midi": 31,
          "time": 73.00000000000006,
          "velocity": 0.8346456692913385,
          "duration": 0.21666666666666856
        },
        {
          "name": "G1",
          "midi": 31,
          "time": 73.25000000000006,
          "velocity": 0.8346456692913385,
          "duration": 0.21666666666666856
        },
        {
          "name": "G1",
          "midi": 31,
          "time": 73.50000000000006,
          "velocity": 0.8346456692913385,
          "duration": 0.21666666666666856
        },
        {
          "name": "G1",
          "midi": 31,
          "time": 73.75000000000006,
          "velocity": 0.8346456692913385,
          "duration": 0.21666666666666856
        },
        {
          "name": "A#1",
          "midi": 34,
          "time": 74.00000000000006,
          "velocity": 0.8346456692913385,
          "duration": 0.21666666666666856
        },
        {
          "name": "A#1",
          "midi": 34,
          "time": 74.25000000000006,
          "velocity": 0.8346456692913385,
          "duration": 0.21666666666666856
        },
        {
          "name": "A#1",
          "midi": 34,
          "time": 74.50000000000006,
          "velocity": 0.8346456692913385,
          "duration": 0.21666666666666856
        },
        {
          "name": "A#1",
          "midi": 34,
          "time": 74.75000000000006,
          "velocity": 0.8346456692913385,
          "duration": 0.21666666666666856
        },
        {
          "name": "A#1",
          "midi": 34,
          "time": 75.00000000000006,
          "velocity": 0.8346456692913385,
          "duration": 0.21666666666666856
        },
        {
          "name": "A#1",
          "midi": 34,
          "time": 75.25000000000006,
          "velocity": 0.8346456692913385,
          "duration": 0.21666666666666856
        },
        {
          "name": "A#1",
          "midi": 34,
          "time": 75.50000000000006,
          "velocity": 0.8346456692913385,
          "duration": 0.21666666666666856
        },
        {
          "name": "A#1",
          "midi": 34,
          "time": 75.75000000000006,
          "velocity": 0.8346456692913385,
          "duration": 0.21666666666666856
        },
        {
          "name": "F1",
          "midi": 29,
          "time": 76.00000000000006,
          "velocity": 0.8346456692913385,
          "duration": 0.21666666666666856
        },
        {
          "name": "F1",
          "midi": 29,
          "time": 76.25000000000006,
          "velocity": 0.8346456692913385,
          "duration": 0.21666666666666856
        },
        {
          "name": "F1",
          "midi": 29,
          "time": 76.50000000000006,
          "velocity": 0.8346456692913385,
          "duration": 0.21666666666666856
        },
        {
          "name": "F1",
          "midi": 29,
          "time": 76.75000000000006,
          "velocity": 0.8346456692913385,
          "duration": 0.21666666666666856
        },
        {
          "name": "F1",
          "midi": 29,
          "time": 77.00000000000006,
          "velocity": 0.8346456692913385,
          "duration": 0.21666666666666856
        },
        {
          "name": "F1",
          "midi": 29,
          "time": 77.25000000000006,
          "velocity": 0.8346456692913385,
          "duration": 0.21666666666666856
        },
        {
          "name": "F1",
          "midi": 29,
          "time": 77.50000000000006,
          "velocity": 0.8346456692913385,
          "duration": 0.21666666666666856
        },
        {
          "name": "F1",
          "midi": 29,
          "time": 77.75000000000006,
          "velocity": 0.8346456692913385,
          "duration": 0.21666666666666856
        },
        {
          "name": "C2",
          "midi": 36,
          "time": 78.00000000000006,
          "velocity": 0.8346456692913385,
          "duration": 0.21666666666666856
        },
        {
          "name": "C2",
          "midi": 36,
          "time": 78.25000000000006,
          "velocity": 0.8346456692913385,
          "duration": 0.21666666666666856
        },
        {
          "name": "C2",
          "midi": 36,
          "time": 78.50000000000006,
          "velocity": 0.8346456692913385,
          "duration": 0.21666666666666856
        },
        {
          "name": "C2",
          "midi": 36,
          "time": 78.75000000000006,
          "velocity": 0.8346456692913385,
          "duration": 0.21666666666666856
        },
        {
          "name": "C2",
          "midi": 36,
          "time": 79.00000000000006,
          "velocity": 0.8346456692913385,
          "duration": 0.21666666666666856
        },
        {
          "name": "C2",
          "midi": 36,
          "time": 79.25000000000006,
          "velocity": 0.8346456692913385,
          "duration": 0.21666666666666856
        },
        {
          "name": "C2",
          "midi": 36,
          "time": 79.50000000000006,
          "velocity": 0.8346456692913385,
          "duration": 0.21666666666666856
        },
        {
          "name": "C2",
          "midi": 36,
          "time": 79.75000000000006,
          "velocity": 0.8346456692913385,
          "duration": 0.21666666666666856
        },
        {
          "name": "G1",
          "midi": 31,
          "time": 80.00000000000006,
          "velocity": 0.8346456692913385,
          "duration": 0.21666666666666856
        },
        {
          "name": "G1",
          "midi": 31,
          "time": 80.25000000000006,
          "velocity": 0.8346456692913385,
          "duration": 0.21666666666666856
        },
        {
          "name": "G1",
          "midi": 31,
          "time": 80.50000000000006,
          "velocity": 0.8346456692913385,
          "duration": 0.21666666666666856
        },
        {
          "name": "G1",
          "midi": 31,
          "time": 80.75000000000006,
          "velocity": 0.8346456692913385,
          "duration": 0.21666666666666856
        },
        {
          "name": "G1",
          "midi": 31,
          "time": 81.00000000000006,
          "velocity": 0.8346456692913385,
          "duration": 0.21666666666666856
        },
        {
          "name": "G1",
          "midi": 31,
          "time": 81.25000000000006,
          "velocity": 0.8346456692913385,
          "duration": 0.21666666666666856
        },
        {
          "name": "G1",
          "midi": 31,
          "time": 81.50000000000006,
          "velocity": 0.8346456692913385,
          "duration": 0.21666666666666856
        },
        {
          "name": "G1",
          "midi": 31,
          "time": 81.75000000000006,
          "velocity": 0.8346456692913385,
          "duration": 0.21666666666666856
        },
        {
          "name": "A#1",
          "midi": 34,
          "time": 82.00000000000006,
          "velocity": 0.8346456692913385,
          "duration": 0.21666666666666856
        },
        {
          "name": "A#1",
          "midi": 34,
          "time": 82.25000000000006,
          "velocity": 0.8346456692913385,
          "duration": 0.21666666666666856
        },
        {
          "name": "A#1",
          "midi": 34,
          "time": 82.50000000000006,
          "velocity": 0.8346456692913385,
          "duration": 0.21666666666666856
        },
        {
          "name": "A#1",
          "midi": 34,
          "time": 82.75000000000006,
          "velocity": 0.8346456692913385,
          "duration": 0.21666666666666856
        },
        {
          "name": "A#1",
          "midi": 34,
          "time": 83.00000000000006,
          "velocity": 0.8346456692913385,
          "duration": 0.21666666666666856
        },
        {
          "name": "A#1",
          "midi": 34,
          "time": 83.25000000000006,
          "velocity": 0.8346456692913385,
          "duration": 0.21666666666666856
        },
        {
          "name": "A#1",
          "midi": 34,
          "time": 83.50000000000006,
          "velocity": 0.8346456692913385,
          "duration": 0.21666666666666856
        },
        {
          "name": "A#1",
          "midi": 34,
          "time": 83.75000000000006,
          "velocity": 0.8346456692913385,
          "duration": 0.21666666666666856
        },
        {
          "name": "F1",
          "midi": 29,
          "time": 84.00000000000006,
          "velocity": 0.8346456692913385,
          "duration": 0.21666666666666856
        },
        {
          "name": "F1",
          "midi": 29,
          "time": 84.25000000000006,
          "velocity": 0.8346456692913385,
          "duration": 0.21666666666666856
        },
        {
          "name": "F1",
          "midi": 29,
          "time": 84.50000000000006,
          "velocity": 0.8346456692913385,
          "duration": 0.21666666666666856
        },
        {
          "name": "F1",
          "midi": 29,
          "time": 84.75000000000006,
          "velocity": 0.8346456692913385,
          "duration": 0.21666666666666856
        },
        {
          "name": "F1",
          "midi": 29,
          "time": 85.00000000000006,
          "velocity": 0.8346456692913385,
          "duration": 0.21666666666666856
        },
        {
          "name": "F1",
          "midi": 29,
          "time": 85.25000000000006,
          "velocity": 0.8346456692913385,
          "duration": 0.21666666666666856
        },
        {
          "name": "F1",
          "midi": 29,
          "time": 85.50000000000006,
          "velocity": 0.8346456692913385,
          "duration": 0.21666666666666856
        },
        {
          "name": "F1",
          "midi": 29,
          "time": 85.75000000000006,
          "velocity": 0.8346456692913385,
          "duration": 0.21666666666666856
        },
        {
          "name": "C2",
          "midi": 36,
          "time": 86.00000000000006,
          "velocity": 0.8346456692913385,
          "duration": 0.21666666666666856
        },
        {
          "name": "C2",
          "midi": 36,
          "time": 86.25000000000006,
          "velocity": 0.8346456692913385,
          "duration": 0.21666666666666856
        },
        {
          "name": "C2",
          "midi": 36,
          "time": 86.50000000000006,
          "velocity": 0.8346456692913385,
          "duration": 0.21666666666666856
        },
        {
          "name": "C2",
          "midi": 36,
          "time": 86.75000000000006,
          "velocity": 0.8346456692913385,
          "duration": 0.21666666666666856
        },
        {
          "name": "C2",
          "midi": 36,
          "time": 87.00000000000006,
          "velocity": 0.8346456692913385,
          "duration": 0.21666666666666856
        },
        {
          "name": "C2",
          "midi": 36,
          "time": 87.25000000000006,
          "velocity": 0.8346456692913385,
          "duration": 0.21666666666666856
        },
        {
          "name": "C2",
          "midi": 36,
          "time": 87.50000000000006,
          "velocity": 0.8346456692913385,
          "duration": 0.21666666666666856
        },
        {
          "name": "C2",
          "midi": 36,
          "time": 87.75000000000006,
          "velocity": 0.8346456692913385,
          "duration": 0.21666666666666856
        },
        {
          "name": "G1",
          "midi": 31,
          "time": 88.00000000000006,
          "velocity": 0.8346456692913385,
          "duration": 2
        },
        {
          "name": "A#1",
          "midi": 34,
          "time": 90.00000000000006,
          "velocity": 0.8346456692913385,
          "duration": 2
        },
        {
          "name": "F1",
          "midi": 29,
          "time": 92.00000000000006,
          "velocity": 0.8346456692913385,
          "duration": 2
        },
        {
          "name": "C2",
          "midi": 36,
          "time": 94.00000000000006,
          "velocity": 0.8346456692913385,
          "duration": 2
        },
        {
          "name": "G1",
          "midi": 31,
          "time": 96.00000000000006,
          "velocity": 0.8346456692913385,
          "duration": 2
        },
        {
          "name": "A#1",
          "midi": 34,
          "time": 98.00000000000006,
          "velocity": 0.8346456692913385,
          "duration": 2
        },
        {
          "name": "F1",
          "midi": 29,
          "time": 100.00000000000006,
          "velocity": 0.8346456692913385,
          "duration": 2
        },
        {
          "name": "C2",
          "midi": 36,
          "time": 102.00000000000006,
          "velocity": 0.8346456692913385,
          "duration": 2
        },
        {
          "name": "D#2",
          "midi": 39,
          "time": 104.00000000000006,
          "velocity": 0.8346456692913385,
          "duration": 3.933333333333337
        },
        {
          "name": "F1",
          "midi": 29,
          "time": 108.00000000000006,
          "velocity": 0.8346456692913385,
          "duration": 1.8333333333333286
        },
        {
          "name": "F1",
          "midi": 29,
          "time": 110.00000000000006,
          "velocity": 0.8346456692913385,
          "duration": 1.9499999999999034
        },
        {
          "name": "G1",
          "midi": 31,
          "time": 111.99999999999996,
          "velocity": 0.8346456692913385,
          "duration": 0.21666666666666856
        },
        {
          "name": "G1",
          "midi": 31,
          "time": 112.24999999999996,
          "velocity": 0.8346456692913385,
          "duration": 0.21666666666666856
        },
        {
          "name": "G1",
          "midi": 31,
          "time": 112.49999999999996,
          "velocity": 0.8346456692913385,
          "duration": 0.21666666666666856
        },
        {
          "name": "G1",
          "midi": 31,
          "time": 112.74999999999996,
          "velocity": 0.8346456692913385,
          "duration": 0.21666666666666856
        },
        {
          "name": "G1",
          "midi": 31,
          "time": 112.99999999999996,
          "velocity": 0.8346456692913385,
          "duration": 0.21666666666666856
        },
        {
          "name": "G1",
          "midi": 31,
          "time": 113.24999999999996,
          "velocity": 0.8346456692913385,
          "duration": 0.21666666666666856
        },
        {
          "name": "G1",
          "midi": 31,
          "time": 113.49999999999996,
          "velocity": 0.8346456692913385,
          "duration": 0.21666666666666856
        },
        {
          "name": "G1",
          "midi": 31,
          "time": 113.74999999999996,
          "velocity": 0.8346456692913385,
          "duration": 0.21666666666666856
        },
        {
          "name": "A#1",
          "midi": 34,
          "time": 113.99999999999996,
          "velocity": 0.8346456692913385,
          "duration": 0.21666666666666856
        },
        {
          "name": "A#1",
          "midi": 34,
          "time": 114.24999999999996,
          "velocity": 0.8346456692913385,
          "duration": 0.21666666666666856
        },
        {
          "name": "A#1",
          "midi": 34,
          "time": 114.49999999999996,
          "velocity": 0.8346456692913385,
          "duration": 0.21666666666666856
        },
        {
          "name": "A#1",
          "midi": 34,
          "time": 114.74999999999996,
          "velocity": 0.8346456692913385,
          "duration": 0.21666666666666856
        },
        {
          "name": "A#1",
          "midi": 34,
          "time": 114.99999999999996,
          "velocity": 0.8346456692913385,
          "duration": 0.21666666666666856
        },
        {
          "name": "A#1",
          "midi": 34,
          "time": 115.24999999999996,
          "velocity": 0.8346456692913385,
          "duration": 0.21666666666666856
        },
        {
          "name": "A#1",
          "midi": 34,
          "time": 115.49999999999996,
          "velocity": 0.8346456692913385,
          "duration": 0.21666666666666856
        },
        {
          "name": "A#1",
          "midi": 34,
          "time": 115.74999999999996,
          "velocity": 0.8346456692913385,
          "duration": 0.21666666666666856
        },
        {
          "name": "F1",
          "midi": 29,
          "time": 115.99999999999996,
          "velocity": 0.8346456692913385,
          "duration": 0.21666666666666856
        },
        {
          "name": "F1",
          "midi": 29,
          "time": 116.24999999999996,
          "velocity": 0.8346456692913385,
          "duration": 0.21666666666666856
        },
        {
          "name": "F1",
          "midi": 29,
          "time": 116.49999999999996,
          "velocity": 0.8346456692913385,
          "duration": 0.21666666666666856
        },
        {
          "name": "F1",
          "midi": 29,
          "time": 116.74999999999996,
          "velocity": 0.8346456692913385,
          "duration": 0.21666666666666856
        },
        {
          "name": "F1",
          "midi": 29,
          "time": 116.99999999999996,
          "velocity": 0.8346456692913385,
          "duration": 0.21666666666666856
        },
        {
          "name": "F1",
          "midi": 29,
          "time": 117.24999999999996,
          "velocity": 0.8346456692913385,
          "duration": 0.21666666666666856
        },
        {
          "name": "F1",
          "midi": 29,
          "time": 117.49999999999996,
          "velocity": 0.8346456692913385,
          "duration": 0.21666666666666856
        },
        {
          "name": "F1",
          "midi": 29,
          "time": 117.74999999999996,
          "velocity": 0.8346456692913385,
          "duration": 0.21666666666666856
        },
        {
          "name": "C2",
          "midi": 36,
          "time": 117.99999999999996,
          "velocity": 0.8346456692913385,
          "duration": 0.21666666666666856
        },
        {
          "name": "C2",
          "midi": 36,
          "time": 118.24999999999996,
          "velocity": 0.8346456692913385,
          "duration": 0.21666666666666856
        },
        {
          "name": "C2",
          "midi": 36,
          "time": 118.49999999999996,
          "velocity": 0.8346456692913385,
          "duration": 0.21666666666666856
        },
        {
          "name": "C2",
          "midi": 36,
          "time": 118.74999999999996,
          "velocity": 0.8346456692913385,
          "duration": 0.21666666666666856
        },
        {
          "name": "C2",
          "midi": 36,
          "time": 118.99999999999996,
          "velocity": 0.8346456692913385,
          "duration": 0.21666666666666856
        },
        {
          "name": "C2",
          "midi": 36,
          "time": 119.24999999999996,
          "velocity": 0.8346456692913385,
          "duration": 0.21666666666666856
        },
        {
          "name": "C2",
          "midi": 36,
          "time": 119.49999999999996,
          "velocity": 0.8346456692913385,
          "duration": 0.21666666666666856
        },
        {
          "name": "C2",
          "midi": 36,
          "time": 119.74999999999996,
          "velocity": 0.8346456692913385,
          "duration": 0.21666666666666856
        },
        {
          "name": "G1",
          "midi": 31,
          "time": 119.99999999999996,
          "velocity": 0.8346456692913385,
          "duration": 0.21666666666666856
        },
        {
          "name": "G1",
          "midi": 31,
          "time": 120.24999999999996,
          "velocity": 0.8346456692913385,
          "duration": 0.21666666666666856
        },
        {
          "name": "G1",
          "midi": 31,
          "time": 120.49999999999996,
          "velocity": 0.8346456692913385,
          "duration": 0.21666666666666856
        },
        {
          "name": "G1",
          "midi": 31,
          "time": 120.74999999999996,
          "velocity": 0.8346456692913385,
          "duration": 0.21666666666666856
        },
        {
          "name": "G1",
          "midi": 31,
          "time": 120.99999999999996,
          "velocity": 0.8346456692913385,
          "duration": 0.21666666666666856
        },
        {
          "name": "G1",
          "midi": 31,
          "time": 121.24999999999996,
          "velocity": 0.8346456692913385,
          "duration": 0.21666666666666856
        },
        {
          "name": "G1",
          "midi": 31,
          "time": 121.49999999999996,
          "velocity": 0.8346456692913385,
          "duration": 0.21666666666666856
        },
        {
          "name": "G1",
          "midi": 31,
          "time": 121.74999999999996,
          "velocity": 0.8346456692913385,
          "duration": 0.21666666666666856
        },
        {
          "name": "A#1",
          "midi": 34,
          "time": 121.99999999999996,
          "velocity": 0.8346456692913385,
          "duration": 0.21666666666666856
        },
        {
          "name": "A#1",
          "midi": 34,
          "time": 122.24999999999996,
          "velocity": 0.8346456692913385,
          "duration": 0.21666666666666856
        },
        {
          "name": "A#1",
          "midi": 34,
          "time": 122.49999999999996,
          "velocity": 0.8346456692913385,
          "duration": 0.21666666666666856
        },
        {
          "name": "A#1",
          "midi": 34,
          "time": 122.74999999999996,
          "velocity": 0.8346456692913385,
          "duration": 0.21666666666666856
        },
        {
          "name": "A#1",
          "midi": 34,
          "time": 122.99999999999996,
          "velocity": 0.8346456692913385,
          "duration": 0.21666666666666856
        },
        {
          "name": "A#1",
          "midi": 34,
          "time": 123.24999999999996,
          "velocity": 0.8346456692913385,
          "duration": 0.21666666666666856
        },
        {
          "name": "A#1",
          "midi": 34,
          "time": 123.49999999999996,
          "velocity": 0.8346456692913385,
          "duration": 0.21666666666666856
        },
        {
          "name": "A#1",
          "midi": 34,
          "time": 123.74999999999996,
          "velocity": 0.8346456692913385,
          "duration": 0.21666666666666856
        },
        {
          "name": "F1",
          "midi": 29,
          "time": 123.99999999999996,
          "velocity": 0.8346456692913385,
          "duration": 0.21666666666666856
        },
        {
          "name": "F1",
          "midi": 29,
          "time": 124.24999999999996,
          "velocity": 0.8346456692913385,
          "duration": 0.21666666666666856
        },
        {
          "name": "F1",
          "midi": 29,
          "time": 124.49999999999996,
          "velocity": 0.8346456692913385,
          "duration": 0.21666666666666856
        },
        {
          "name": "F1",
          "midi": 29,
          "time": 124.74999999999996,
          "velocity": 0.8346456692913385,
          "duration": 0.21666666666666856
        },
        {
          "name": "F1",
          "midi": 29,
          "time": 124.99999999999996,
          "velocity": 0.8346456692913385,
          "duration": 0.21666666666666856
        },
        {
          "name": "F1",
          "midi": 29,
          "time": 125.24999999999996,
          "velocity": 0.8346456692913385,
          "duration": 0.21666666666666856
        },
        {
          "name": "F1",
          "midi": 29,
          "time": 125.49999999999996,
          "velocity": 0.8346456692913385,
          "duration": 0.21666666666666856
        },
        {
          "name": "F1",
          "midi": 29,
          "time": 125.74999999999996,
          "velocity": 0.8346456692913385,
          "duration": 0.21666666666666856
        },
        {
          "name": "C2",
          "midi": 36,
          "time": 125.99999999999996,
          "velocity": 0.8346456692913385,
          "duration": 0.21666666666666856
        },
        {
          "name": "C2",
          "midi": 36,
          "time": 126.24999999999996,
          "velocity": 0.8346456692913385,
          "duration": 0.21666666666666856
        },
        {
          "name": "C2",
          "midi": 36,
          "time": 126.49999999999996,
          "velocity": 0.8346456692913385,
          "duration": 0.21666666666666856
        },
        {
          "name": "C2",
          "midi": 36,
          "time": 126.74999999999996,
          "velocity": 0.8346456692913385,
          "duration": 0.21666666666666856
        },
        {
          "name": "D2",
          "midi": 38,
          "time": 126.99999999999996,
          "velocity": 0.8346456692913385,
          "duration": 0.21666666666666856
        },
        {
          "name": "D2",
          "midi": 38,
          "time": 127.24999999999996,
          "velocity": 0.8346456692913385,
          "duration": 0.21666666666666856
        },
        {
          "name": "D2",
          "midi": 38,
          "time": 127.49999999999996,
          "velocity": 0.8346456692913385,
          "duration": 0.21666666666666856
        },
        {
          "name": "D2",
          "midi": 38,
          "time": 127.74999999999996,
          "velocity": 0.8346456692913385,
          "duration": 0.21666666666666856
        },
        {
          "name": "D#2",
          "midi": 39,
          "time": 127.99999999999996,
          "velocity": 0.8346456692913385,
          "duration": 0.21666666666665435
        },
        {
          "name": "D#2",
          "midi": 39,
          "time": 128.24999999999994,
          "velocity": 0.8346456692913385,
          "duration": 0.21666666666666856
        },
        {
          "name": "D#2",
          "midi": 39,
          "time": 128.49999999999994,
          "velocity": 0.8346456692913385,
          "duration": 0.21666666666666856
        },
        {
          "name": "D#2",
          "midi": 39,
          "time": 128.74999999999994,
          "velocity": 0.8346456692913385,
          "duration": 0.21666666666666856
        },
        {
          "name": "D2",
          "midi": 38,
          "time": 128.99999999999994,
          "velocity": 0.8346456692913385,
          "duration": 0.21666666666666856
        },
        {
          "name": "D2",
          "midi": 38,
          "time": 129.24999999999994,
          "velocity": 0.8346456692913385,
          "duration": 0.21666666666666856
        },
        {
          "name": "D2",
          "midi": 38,
          "time": 129.49999999999994,
          "velocity": 0.8346456692913385,
          "duration": 0.21666666666666856
        },
        {
          "name": "D2",
          "midi": 38,
          "time": 129.74999999999994,
          "velocity": 0.8346456692913385,
          "duration": 0.21666666666666856
        },
        {
          "name": "G1",
          "midi": 31,
          "time": 129.99999999999994,
          "velocity": 0.8346456692913385,
          "duration": 0.21666666666666856
        },
        {
          "name": "G1",
          "midi": 31,
          "time": 130.24999999999994,
          "velocity": 0.8346456692913385,
          "duration": 0.21666666666666856
        },
        {
          "name": "G1",
          "midi": 31,
          "time": 130.49999999999994,
          "velocity": 0.8346456692913385,
          "duration": 0.21666666666666856
        },
        {
          "name": "G1",
          "midi": 31,
          "time": 130.74999999999994,
          "velocity": 0.8346456692913385,
          "duration": 0.21666666666666856
        },
        {
          "name": "G1",
          "midi": 31,
          "time": 130.99999999999994,
          "velocity": 0.8346456692913385,
          "duration": 0.21666666666666856
        },
        {
          "name": "G1",
          "midi": 31,
          "time": 131.24999999999994,
          "velocity": 0.8346456692913385,
          "duration": 0.21666666666666856
        },
        {
          "name": "G1",
          "midi": 31,
          "time": 131.49999999999994,
          "velocity": 0.8346456692913385,
          "duration": 0.21666666666666856
        },
        {
          "name": "G1",
          "midi": 31,
          "time": 131.74999999999994,
          "velocity": 0.8346456692913385,
          "duration": 0.21666666666666856
        },
        {
          "name": "A#1",
          "midi": 34,
          "time": 131.99999999999994,
          "velocity": 0.8346456692913385,
          "duration": 0.21666666666666856
        },
        {
          "name": "A#1",
          "midi": 34,
          "time": 132.24999999999994,
          "velocity": 0.8346456692913385,
          "duration": 0.21666666666666856
        },
        {
          "name": "A#1",
          "midi": 34,
          "time": 132.49999999999994,
          "velocity": 0.8346456692913385,
          "duration": 0.21666666666666856
        },
        {
          "name": "A#1",
          "midi": 34,
          "time": 132.74999999999994,
          "velocity": 0.8346456692913385,
          "duration": 0.21666666666666856
        },
        {
          "name": "A#1",
          "midi": 34,
          "time": 132.99999999999994,
          "velocity": 0.8346456692913385,
          "duration": 0.21666666666666856
        },
        {
          "name": "A#1",
          "midi": 34,
          "time": 133.24999999999994,
          "velocity": 0.8346456692913385,
          "duration": 0.21666666666666856
        },
        {
          "name": "A#1",
          "midi": 34,
          "time": 133.49999999999994,
          "velocity": 0.8346456692913385,
          "duration": 0.21666666666666856
        },
        {
          "name": "A#1",
          "midi": 34,
          "time": 133.74999999999994,
          "velocity": 0.8346456692913385,
          "duration": 0.21666666666666856
        },
        {
          "name": "F1",
          "midi": 29,
          "time": 133.99999999999994,
          "velocity": 0.8346456692913385,
          "duration": 0.21666666666666856
        },
        {
          "name": "F1",
          "midi": 29,
          "time": 134.24999999999994,
          "velocity": 0.8346456692913385,
          "duration": 0.21666666666666856
        },
        {
          "name": "F1",
          "midi": 29,
          "time": 134.49999999999994,
          "velocity": 0.8346456692913385,
          "duration": 0.21666666666666856
        },
        {
          "name": "F1",
          "midi": 29,
          "time": 134.74999999999994,
          "velocity": 0.8346456692913385,
          "duration": 0.21666666666666856
        },
        {
          "name": "F1",
          "midi": 29,
          "time": 134.99999999999994,
          "velocity": 0.8346456692913385,
          "duration": 0.21666666666666856
        },
        {
          "name": "F1",
          "midi": 29,
          "time": 135.24999999999994,
          "velocity": 0.8346456692913385,
          "duration": 0.21666666666666856
        },
        {
          "name": "F1",
          "midi": 29,
          "time": 135.49999999999994,
          "velocity": 0.8346456692913385,
          "duration": 0.21666666666666856
        },
        {
          "name": "F1",
          "midi": 29,
          "time": 135.74999999999994,
          "velocity": 0.8346456692913385,
          "duration": 0.21666666666666856
        },
        {
          "name": "C2",
          "midi": 36,
          "time": 135.99999999999994,
          "velocity": 0.8346456692913385,
          "duration": 0.21666666666666856
        },
        {
          "name": "C2",
          "midi": 36,
          "time": 136.24999999999994,
          "velocity": 0.8346456692913385,
          "duration": 0.21666666666666856
        },
        {
          "name": "C2",
          "midi": 36,
          "time": 136.49999999999994,
          "velocity": 0.8346456692913385,
          "duration": 0.21666666666666856
        },
        {
          "name": "C2",
          "midi": 36,
          "time": 136.74999999999994,
          "velocity": 0.8346456692913385,
          "duration": 0.21666666666666856
        },
        {
          "name": "C2",
          "midi": 36,
          "time": 136.99999999999994,
          "velocity": 0.8346456692913385,
          "duration": 0.21666666666666856
        },
        {
          "name": "C2",
          "midi": 36,
          "time": 137.24999999999994,
          "velocity": 0.8346456692913385,
          "duration": 0.21666666666666856
        },
        {
          "name": "C2",
          "midi": 36,
          "time": 137.49999999999994,
          "velocity": 0.8346456692913385,
          "duration": 0.21666666666666856
        },
        {
          "name": "C2",
          "midi": 36,
          "time": 137.74999999999994,
          "velocity": 0.8346456692913385,
          "duration": 0.21666666666666856
        },
        {
          "name": "G1",
          "midi": 31,
          "time": 137.99999999999994,
          "velocity": 0.8346456692913385,
          "duration": 0.21666666666666856
        },
        {
          "name": "G1",
          "midi": 31,
          "time": 138.24999999999994,
          "velocity": 0.8346456692913385,
          "duration": 0.21666666666666856
        },
        {
          "name": "G1",
          "midi": 31,
          "time": 138.49999999999994,
          "velocity": 0.8346456692913385,
          "duration": 0.21666666666666856
        },
        {
          "name": "G1",
          "midi": 31,
          "time": 138.74999999999994,
          "velocity": 0.8346456692913385,
          "duration": 0.21666666666666856
        },
        {
          "name": "G1",
          "midi": 31,
          "time": 138.99999999999994,
          "velocity": 0.8346456692913385,
          "duration": 0.21666666666666856
        },
        {
          "name": "G1",
          "midi": 31,
          "time": 139.24999999999994,
          "velocity": 0.8346456692913385,
          "duration": 0.21666666666666856
        },
        {
          "name": "G1",
          "midi": 31,
          "time": 139.49999999999994,
          "velocity": 0.8346456692913385,
          "duration": 0.21666666666666856
        },
        {
          "name": "G1",
          "midi": 31,
          "time": 139.74999999999994,
          "velocity": 0.8346456692913385,
          "duration": 0.21666666666666856
        },
        {
          "name": "A#1",
          "midi": 34,
          "time": 139.99999999999994,
          "velocity": 0.8346456692913385,
          "duration": 0.21666666666666856
        },
        {
          "name": "A#1",
          "midi": 34,
          "time": 140.24999999999994,
          "velocity": 0.8346456692913385,
          "duration": 0.21666666666666856
        },
        {
          "name": "A#1",
          "midi": 34,
          "time": 140.49999999999994,
          "velocity": 0.8346456692913385,
          "duration": 0.21666666666666856
        },
        {
          "name": "A#1",
          "midi": 34,
          "time": 140.74999999999994,
          "velocity": 0.8346456692913385,
          "duration": 0.21666666666666856
        },
        {
          "name": "A#1",
          "midi": 34,
          "time": 140.99999999999994,
          "velocity": 0.8346456692913385,
          "duration": 0.21666666666666856
        },
        {
          "name": "A#1",
          "midi": 34,
          "time": 141.24999999999994,
          "velocity": 0.8346456692913385,
          "duration": 0.21666666666666856
        },
        {
          "name": "A#1",
          "midi": 34,
          "time": 141.49999999999994,
          "velocity": 0.8346456692913385,
          "duration": 0.21666666666666856
        },
        {
          "name": "A#1",
          "midi": 34,
          "time": 141.74999999999994,
          "velocity": 0.8346456692913385,
          "duration": 0.21666666666666856
        },
        {
          "name": "F1",
          "midi": 29,
          "time": 141.99999999999994,
          "velocity": 0.8346456692913385,
          "duration": 0.21666666666666856
        },
        {
          "name": "F1",
          "midi": 29,
          "time": 142.24999999999994,
          "velocity": 0.8346456692913385,
          "duration": 0.21666666666666856
        },
        {
          "name": "F1",
          "midi": 29,
          "time": 142.49999999999994,
          "velocity": 0.8346456692913385,
          "duration": 0.21666666666666856
        },
        {
          "name": "F1",
          "midi": 29,
          "time": 142.74999999999994,
          "velocity": 0.8346456692913385,
          "duration": 0.21666666666666856
        },
        {
          "name": "F1",
          "midi": 29,
          "time": 142.99999999999994,
          "velocity": 0.8346456692913385,
          "duration": 0.21666666666666856
        },
        {
          "name": "F1",
          "midi": 29,
          "time": 143.24999999999994,
          "velocity": 0.8346456692913385,
          "duration": 0.21666666666666856
        },
        {
          "name": "F1",
          "midi": 29,
          "time": 143.49999999999994,
          "velocity": 0.8346456692913385,
          "duration": 0.21666666666666856
        },
        {
          "name": "F1",
          "midi": 29,
          "time": 143.74999999999994,
          "velocity": 0.8346456692913385,
          "duration": 0.21666666666666856
        },
        {
          "name": "C2",
          "midi": 36,
          "time": 143.99999999999994,
          "velocity": 0.8346456692913385,
          "duration": 0.21666666666666856
        },
        {
          "name": "C2",
          "midi": 36,
          "time": 144.24999999999994,
          "velocity": 0.8346456692913385,
          "duration": 0.21666666666666856
        },
        {
          "name": "C2",
          "midi": 36,
          "time": 144.49999999999994,
          "velocity": 0.8346456692913385,
          "duration": 0.21666666666666856
        },
        {
          "name": "C2",
          "midi": 36,
          "time": 144.74999999999994,
          "velocity": 0.8346456692913385,
          "duration": 0.21666666666666856
        },
        {
          "name": "D2",
          "midi": 38,
          "time": 144.99999999999994,
          "velocity": 0.8346456692913385,
          "duration": 0.21666666666666856
        },
        {
          "name": "D2",
          "midi": 38,
          "time": 145.24999999999994,
          "velocity": 0.8346456692913385,
          "duration": 0.21666666666666856
        },
        {
          "name": "D2",
          "midi": 38,
          "time": 145.49999999999994,
          "velocity": 0.8346456692913385,
          "duration": 0.21666666666666856
        },
        {
          "name": "D2",
          "midi": 38,
          "time": 145.74999999999994,
          "velocity": 0.8346456692913385,
          "duration": 0.21666666666666856
        },
        {
          "name": "D#2",
          "midi": 39,
          "time": 145.99999999999994,
          "velocity": 0.8346456692913385,
          "duration": 0.21666666666666856
        },
        {
          "name": "D#2",
          "midi": 39,
          "time": 146.24999999999994,
          "velocity": 0.8346456692913385,
          "duration": 0.21666666666666856
        },
        {
          "name": "D#2",
          "midi": 39,
          "time": 146.49999999999994,
          "velocity": 0.8346456692913385,
          "duration": 0.21666666666666856
        },
        {
          "name": "D#2",
          "midi": 39,
          "time": 146.74999999999994,
          "velocity": 0.8346456692913385,
          "duration": 0.21666666666666856
        },
        {
          "name": "F2",
          "midi": 41,
          "time": 146.99999999999994,
          "velocity": 0.8346456692913385,
          "duration": 0.21666666666666856
        },
        {
          "name": "F2",
          "midi": 41,
          "time": 147.24999999999994,
          "velocity": 0.8346456692913385,
          "duration": 0.21666666666666856
        },
        {
          "name": "F2",
          "midi": 41,
          "time": 147.49999999999994,
          "velocity": 0.8346456692913385,
          "duration": 0.21666666666666856
        },
        {
          "name": "F2",
          "midi": 41,
          "time": 147.74999999999994,
          "velocity": 0.8346456692913385,
          "duration": 0.21666666666666856
        },
        {
          "name": "G1",
          "midi": 31,
          "time": 165.99999999999994,
          "velocity": 0.8346456692913385,
          "duration": 0.21666666666666856
        },
        {
          "name": "G1",
          "midi": 31,
          "time": 166.24999999999994,
          "velocity": 0.8346456692913385,
          "duration": 0.21666666666666856
        },
        {
          "name": "G1",
          "midi": 31,
          "time": 166.49999999999994,
          "velocity": 0.8346456692913385,
          "duration": 0.21666666666666856
        },
        {
          "name": "G1",
          "midi": 31,
          "time": 166.74999999999994,
          "velocity": 0.8346456692913385,
          "duration": 0.21666666666666856
        },
        {
          "name": "G1",
          "midi": 31,
          "time": 166.99999999999994,
          "velocity": 0.8346456692913385,
          "duration": 0.21666666666666856
        },
        {
          "name": "G1",
          "midi": 31,
          "time": 167.24999999999994,
          "velocity": 0.8346456692913385,
          "duration": 0.21666666666666856
        },
        {
          "name": "G1",
          "midi": 31,
          "time": 167.49999999999994,
          "velocity": 0.8346456692913385,
          "duration": 0.21666666666666856
        },
        {
          "name": "G1",
          "midi": 31,
          "time": 167.74999999999994,
          "velocity": 0.8346456692913385,
          "duration": 0.21666666666666856
        },
        {
          "name": "A#1",
          "midi": 34,
          "time": 167.99999999999994,
          "velocity": 0.8346456692913385,
          "duration": 0.21666666666666856
        },
        {
          "name": "A#1",
          "midi": 34,
          "time": 168.24999999999994,
          "velocity": 0.8346456692913385,
          "duration": 0.21666666666666856
        },
        {
          "name": "A#1",
          "midi": 34,
          "time": 168.49999999999994,
          "velocity": 0.8346456692913385,
          "duration": 0.21666666666666856
        },
        {
          "name": "A#1",
          "midi": 34,
          "time": 168.74999999999994,
          "velocity": 0.8346456692913385,
          "duration": 0.21666666666666856
        },
        {
          "name": "A#1",
          "midi": 34,
          "time": 168.99999999999994,
          "velocity": 0.8346456692913385,
          "duration": 0.21666666666666856
        },
        {
          "name": "A#1",
          "midi": 34,
          "time": 169.24999999999994,
          "velocity": 0.8346456692913385,
          "duration": 0.21666666666666856
        },
        {
          "name": "A#1",
          "midi": 34,
          "time": 169.49999999999994,
          "velocity": 0.8346456692913385,
          "duration": 0.21666666666666856
        },
        {
          "name": "A#1",
          "midi": 34,
          "time": 169.74999999999994,
          "velocity": 0.8346456692913385,
          "duration": 0.21666666666666856
        },
        {
          "name": "F1",
          "midi": 29,
          "time": 169.99999999999994,
          "velocity": 0.8346456692913385,
          "duration": 0.21666666666666856
        },
        {
          "name": "F1",
          "midi": 29,
          "time": 170.24999999999994,
          "velocity": 0.8346456692913385,
          "duration": 0.21666666666666856
        },
        {
          "name": "F1",
          "midi": 29,
          "time": 170.49999999999994,
          "velocity": 0.8346456692913385,
          "duration": 0.21666666666666856
        },
        {
          "name": "F1",
          "midi": 29,
          "time": 170.74999999999994,
          "velocity": 0.8346456692913385,
          "duration": 0.21666666666666856
        },
        {
          "name": "F1",
          "midi": 29,
          "time": 170.99999999999994,
          "velocity": 0.8346456692913385,
          "duration": 0.21666666666666856
        },
        {
          "name": "F1",
          "midi": 29,
          "time": 171.24999999999994,
          "velocity": 0.8346456692913385,
          "duration": 0.21666666666666856
        },
        {
          "name": "F1",
          "midi": 29,
          "time": 171.49999999999994,
          "velocity": 0.8346456692913385,
          "duration": 0.21666666666666856
        },
        {
          "name": "F1",
          "midi": 29,
          "time": 171.74999999999994,
          "velocity": 0.8346456692913385,
          "duration": 0.21666666666666856
        },
        {
          "name": "C2",
          "midi": 36,
          "time": 171.99999999999994,
          "velocity": 0.8346456692913385,
          "duration": 0.21666666666666856
        },
        {
          "name": "C2",
          "midi": 36,
          "time": 172.24999999999994,
          "velocity": 0.8346456692913385,
          "duration": 0.21666666666666856
        },
        {
          "name": "C2",
          "midi": 36,
          "time": 172.49999999999994,
          "velocity": 0.8346456692913385,
          "duration": 0.21666666666666856
        },
        {
          "name": "C2",
          "midi": 36,
          "time": 172.74999999999994,
          "velocity": 0.8346456692913385,
          "duration": 0.21666666666666856
        },
        {
          "name": "C2",
          "midi": 36,
          "time": 172.99999999999994,
          "velocity": 0.8346456692913385,
          "duration": 0.21666666666666856
        },
        {
          "name": "C2",
          "midi": 36,
          "time": 173.24999999999994,
          "velocity": 0.8346456692913385,
          "duration": 0.21666666666666856
        },
        {
          "name": "C2",
          "midi": 36,
          "time": 173.49999999999994,
          "velocity": 0.8346456692913385,
          "duration": 0.21666666666666856
        },
        {
          "name": "C2",
          "midi": 36,
          "time": 173.74999999999994,
          "velocity": 0.8346456692913385,
          "duration": 0.21666666666666856
        },
        {
          "name": "G1",
          "midi": 31,
          "time": 173.99999999999994,
          "velocity": 0.8346456692913385,
          "duration": 0.21666666666666856
        },
        {
          "name": "G1",
          "midi": 31,
          "time": 174.24999999999994,
          "velocity": 0.8346456692913385,
          "duration": 0.21666666666666856
        },
        {
          "name": "G1",
          "midi": 31,
          "time": 174.49999999999994,
          "velocity": 0.8346456692913385,
          "duration": 0.21666666666666856
        },
        {
          "name": "G1",
          "midi": 31,
          "time": 174.74999999999994,
          "velocity": 0.8346456692913385,
          "duration": 0.21666666666666856
        },
        {
          "name": "G1",
          "midi": 31,
          "time": 174.99999999999994,
          "velocity": 0.8346456692913385,
          "duration": 0.21666666666666856
        },
        {
          "name": "G1",
          "midi": 31,
          "time": 175.24999999999994,
          "velocity": 0.8346456692913385,
          "duration": 0.21666666666666856
        },
        {
          "name": "G1",
          "midi": 31,
          "time": 175.49999999999994,
          "velocity": 0.8346456692913385,
          "duration": 0.21666666666666856
        },
        {
          "name": "G1",
          "midi": 31,
          "time": 175.74999999999994,
          "velocity": 0.8346456692913385,
          "duration": 0.21666666666666856
        },
        {
          "name": "A#1",
          "midi": 34,
          "time": 175.99999999999994,
          "velocity": 0.8346456692913385,
          "duration": 0.21666666666666856
        },
        {
          "name": "A#1",
          "midi": 34,
          "time": 176.24999999999994,
          "velocity": 0.8346456692913385,
          "duration": 0.21666666666666856
        },
        {
          "name": "A#1",
          "midi": 34,
          "time": 176.49999999999994,
          "velocity": 0.8346456692913385,
          "duration": 0.21666666666666856
        },
        {
          "name": "A#1",
          "midi": 34,
          "time": 176.74999999999994,
          "velocity": 0.8346456692913385,
          "duration": 0.21666666666666856
        },
        {
          "name": "A#1",
          "midi": 34,
          "time": 176.99999999999994,
          "velocity": 0.8346456692913385,
          "duration": 0.21666666666666856
        },
        {
          "name": "A#1",
          "midi": 34,
          "time": 177.24999999999994,
          "velocity": 0.8346456692913385,
          "duration": 0.21666666666666856
        },
        {
          "name": "A#1",
          "midi": 34,
          "time": 177.49999999999994,
          "velocity": 0.8346456692913385,
          "duration": 0.21666666666666856
        },
        {
          "name": "A#1",
          "midi": 34,
          "time": 177.74999999999994,
          "velocity": 0.8346456692913385,
          "duration": 0.21666666666666856
        },
        {
          "name": "F1",
          "midi": 29,
          "time": 177.99999999999994,
          "velocity": 0.8346456692913385,
          "duration": 0.21666666666666856
        },
        {
          "name": "F1",
          "midi": 29,
          "time": 178.24999999999994,
          "velocity": 0.8346456692913385,
          "duration": 0.21666666666666856
        },
        {
          "name": "F1",
          "midi": 29,
          "time": 178.49999999999994,
          "velocity": 0.8346456692913385,
          "duration": 0.21666666666666856
        },
        {
          "name": "F1",
          "midi": 29,
          "time": 178.74999999999994,
          "velocity": 0.8346456692913385,
          "duration": 0.21666666666666856
        },
        {
          "name": "F1",
          "midi": 29,
          "time": 178.99999999999994,
          "velocity": 0.8346456692913385,
          "duration": 0.21666666666666856
        },
        {
          "name": "F1",
          "midi": 29,
          "time": 179.24999999999994,
          "velocity": 0.8346456692913385,
          "duration": 0.21666666666666856
        },
        {
          "name": "F1",
          "midi": 29,
          "time": 179.49999999999994,
          "velocity": 0.8346456692913385,
          "duration": 0.21666666666666856
        },
        {
          "name": "F1",
          "midi": 29,
          "time": 179.74999999999994,
          "velocity": 0.8346456692913385,
          "duration": 0.21666666666666856
        },
        {
          "name": "C2",
          "midi": 36,
          "time": 179.99999999999994,
          "velocity": 0.8346456692913385,
          "duration": 0.21666666666666856
        },
        {
          "name": "C2",
          "midi": 36,
          "time": 180.24999999999994,
          "velocity": 0.8346456692913385,
          "duration": 0.21666666666666856
        },
        {
          "name": "C2",
          "midi": 36,
          "time": 180.49999999999994,
          "velocity": 0.8346456692913385,
          "duration": 0.21666666666666856
        },
        {
          "name": "C2",
          "midi": 36,
          "time": 180.74999999999994,
          "velocity": 0.8346456692913385,
          "duration": 0.21666666666666856
        },
        {
          "name": "C2",
          "midi": 36,
          "time": 180.99999999999994,
          "velocity": 0.8346456692913385,
          "duration": 0.21666666666666856
        },
        {
          "name": "C2",
          "midi": 36,
          "time": 181.24999999999994,
          "velocity": 0.8346456692913385,
          "duration": 0.21666666666666856
        },
        {
          "name": "C2",
          "midi": 36,
          "time": 181.49999999999994,
          "velocity": 0.8346456692913385,
          "duration": 0.21666666666666856
        },
        {
          "name": "C2",
          "midi": 36,
          "time": 181.74999999999994,
          "velocity": 0.8346456692913385,
          "duration": 0.21666666666666856
        },
        {
          "name": "G1",
          "midi": 31,
          "time": 181.99999999999994,
          "velocity": 0.8346456692913385,
          "duration": 0.21666666666666856
        },
        {
          "name": "G1",
          "midi": 31,
          "time": 182.24999999999994,
          "velocity": 0.8346456692913385,
          "duration": 0.21666666666666856
        },
        {
          "name": "G1",
          "midi": 31,
          "time": 182.49999999999994,
          "velocity": 0.8346456692913385,
          "duration": 0.21666666666666856
        },
        {
          "name": "G1",
          "midi": 31,
          "time": 182.74999999999994,
          "velocity": 0.8346456692913385,
          "duration": 0.21666666666666856
        },
        {
          "name": "G1",
          "midi": 31,
          "time": 182.99999999999994,
          "velocity": 0.8346456692913385,
          "duration": 0.21666666666666856
        },
        {
          "name": "G1",
          "midi": 31,
          "time": 183.24999999999994,
          "velocity": 0.8346456692913385,
          "duration": 0.21666666666666856
        },
        {
          "name": "G1",
          "midi": 31,
          "time": 183.49999999999994,
          "velocity": 0.8346456692913385,
          "duration": 0.21666666666666856
        },
        {
          "name": "G1",
          "midi": 31,
          "time": 183.74999999999994,
          "velocity": 0.8346456692913385,
          "duration": 0.21666666666666856
        },
        {
          "name": "A#1",
          "midi": 34,
          "time": 183.99999999999994,
          "velocity": 0.8346456692913385,
          "duration": 0.21666666666666856
        },
        {
          "name": "A#1",
          "midi": 34,
          "time": 184.24999999999994,
          "velocity": 0.8346456692913385,
          "duration": 0.21666666666666856
        },
        {
          "name": "A#1",
          "midi": 34,
          "time": 184.49999999999994,
          "velocity": 0.8346456692913385,
          "duration": 0.21666666666666856
        },
        {
          "name": "A#1",
          "midi": 34,
          "time": 184.74999999999994,
          "velocity": 0.8346456692913385,
          "duration": 0.21666666666666856
        },
        {
          "name": "A#1",
          "midi": 34,
          "time": 184.99999999999994,
          "velocity": 0.8346456692913385,
          "duration": 0.21666666666666856
        },
        {
          "name": "A#1",
          "midi": 34,
          "time": 185.24999999999994,
          "velocity": 0.8346456692913385,
          "duration": 0.21666666666666856
        },
        {
          "name": "A#1",
          "midi": 34,
          "time": 185.49999999999994,
          "velocity": 0.8346456692913385,
          "duration": 0.21666666666666856
        },
        {
          "name": "A#1",
          "midi": 34,
          "time": 185.74999999999994,
          "velocity": 0.8346456692913385,
          "duration": 0.21666666666666856
        },
        {
          "name": "F1",
          "midi": 29,
          "time": 185.99999999999994,
          "velocity": 0.8346456692913385,
          "duration": 0.21666666666666856
        },
        {
          "name": "F1",
          "midi": 29,
          "time": 186.24999999999994,
          "velocity": 0.8346456692913385,
          "duration": 0.21666666666666856
        },
        {
          "name": "F1",
          "midi": 29,
          "time": 186.49999999999994,
          "velocity": 0.8346456692913385,
          "duration": 0.21666666666666856
        },
        {
          "name": "F1",
          "midi": 29,
          "time": 186.74999999999994,
          "velocity": 0.8346456692913385,
          "duration": 0.21666666666666856
        },
        {
          "name": "F1",
          "midi": 29,
          "time": 186.99999999999994,
          "velocity": 0.8346456692913385,
          "duration": 0.21666666666666856
        },
        {
          "name": "F1",
          "midi": 29,
          "time": 187.24999999999994,
          "velocity": 0.8346456692913385,
          "duration": 0.21666666666666856
        },
        {
          "name": "F1",
          "midi": 29,
          "time": 187.49999999999994,
          "velocity": 0.8346456692913385,
          "duration": 0.21666666666666856
        },
        {
          "name": "F1",
          "midi": 29,
          "time": 187.74999999999994,
          "velocity": 0.8346456692913385,
          "duration": 0.21666666666666856
        },
        {
          "name": "C2",
          "midi": 36,
          "time": 187.99999999999994,
          "velocity": 0.8346456692913385,
          "duration": 0.21666666666666856
        },
        {
          "name": "C2",
          "midi": 36,
          "time": 188.24999999999994,
          "velocity": 0.8346456692913385,
          "duration": 0.21666666666666856
        },
        {
          "name": "C2",
          "midi": 36,
          "time": 188.49999999999994,
          "velocity": 0.8346456692913385,
          "duration": 0.21666666666666856
        },
        {
          "name": "C2",
          "midi": 36,
          "time": 188.74999999999994,
          "velocity": 0.8346456692913385,
          "duration": 0.21666666666666856
        },
        {
          "name": "C2",
          "midi": 36,
          "time": 188.99999999999994,
          "velocity": 0.8346456692913385,
          "duration": 0.21666666666666856
        },
        {
          "name": "C2",
          "midi": 36,
          "time": 189.24999999999994,
          "velocity": 0.8346456692913385,
          "duration": 0.21666666666666856
        },
        {
          "name": "C2",
          "midi": 36,
          "time": 189.49999999999994,
          "velocity": 0.8346456692913385,
          "duration": 0.21666666666666856
        },
        {
          "name": "C2",
          "midi": 36,
          "time": 189.74999999999994,
          "velocity": 0.8346456692913385,
          "duration": 0.21666666666666856
        },
        {
          "name": "G1",
          "midi": 31,
          "time": 189.99999999999994,
          "velocity": 0.8346456692913385,
          "duration": 0.21666666666666856
        },
        {
          "name": "G1",
          "midi": 31,
          "time": 190.24999999999994,
          "velocity": 0.8346456692913385,
          "duration": 0.21666666666666856
        },
        {
          "name": "G1",
          "midi": 31,
          "time": 190.49999999999994,
          "velocity": 0.8346456692913385,
          "duration": 0.21666666666666856
        },
        {
          "name": "G1",
          "midi": 31,
          "time": 190.74999999999994,
          "velocity": 0.8346456692913385,
          "duration": 0.21666666666666856
        },
        {
          "name": "G1",
          "midi": 31,
          "time": 190.99999999999994,
          "velocity": 0.8346456692913385,
          "duration": 0.21666666666666856
        },
        {
          "name": "G1",
          "midi": 31,
          "time": 191.24999999999994,
          "velocity": 0.8346456692913385,
          "duration": 0.21666666666666856
        },
        {
          "name": "G1",
          "midi": 31,
          "time": 191.49999999999994,
          "velocity": 0.8346456692913385,
          "duration": 0.21666666666666856
        },
        {
          "name": "G1",
          "midi": 31,
          "time": 191.74999999999994,
          "velocity": 0.8346456692913385,
          "duration": 0.21666666666666856
        },
        {
          "name": "A#1",
          "midi": 34,
          "time": 191.99999999999994,
          "velocity": 0.8346456692913385,
          "duration": 0.21666666666666856
        },
        {
          "name": "A#1",
          "midi": 34,
          "time": 192.24999999999994,
          "velocity": 0.8346456692913385,
          "duration": 0.21666666666666856
        },
        {
          "name": "A#1",
          "midi": 34,
          "time": 192.49999999999994,
          "velocity": 0.8346456692913385,
          "duration": 0.21666666666666856
        },
        {
          "name": "A#1",
          "midi": 34,
          "time": 192.74999999999994,
          "velocity": 0.8346456692913385,
          "duration": 0.21666666666666856
        },
        {
          "name": "A#1",
          "midi": 34,
          "time": 192.99999999999994,
          "velocity": 0.8346456692913385,
          "duration": 0.21666666666666856
        },
        {
          "name": "A#1",
          "midi": 34,
          "time": 193.24999999999994,
          "velocity": 0.8346456692913385,
          "duration": 0.21666666666666856
        },
        {
          "name": "A#1",
          "midi": 34,
          "time": 193.49999999999994,
          "velocity": 0.8346456692913385,
          "duration": 0.21666666666666856
        },
        {
          "name": "A#1",
          "midi": 34,
          "time": 193.74999999999994,
          "velocity": 0.8346456692913385,
          "duration": 0.21666666666666856
        },
        {
          "name": "F1",
          "midi": 29,
          "time": 193.99999999999994,
          "velocity": 0.8346456692913385,
          "duration": 0.21666666666666856
        },
        {
          "name": "F1",
          "midi": 29,
          "time": 194.24999999999994,
          "velocity": 0.8346456692913385,
          "duration": 0.21666666666666856
        },
        {
          "name": "F1",
          "midi": 29,
          "time": 194.49999999999994,
          "velocity": 0.8346456692913385,
          "duration": 0.21666666666666856
        },
        {
          "name": "F1",
          "midi": 29,
          "time": 194.74999999999994,
          "velocity": 0.8346456692913385,
          "duration": 0.21666666666666856
        },
        {
          "name": "F1",
          "midi": 29,
          "time": 194.99999999999994,
          "velocity": 0.8346456692913385,
          "duration": 0.21666666666666856
        },
        {
          "name": "F1",
          "midi": 29,
          "time": 195.24999999999994,
          "velocity": 0.8346456692913385,
          "duration": 0.21666666666666856
        },
        {
          "name": "F1",
          "midi": 29,
          "time": 195.49999999999994,
          "velocity": 0.8346456692913385,
          "duration": 0.21666666666666856
        },
        {
          "name": "F1",
          "midi": 29,
          "time": 195.74999999999994,
          "velocity": 0.8346456692913385,
          "duration": 0.21666666666666856
        },
        {
          "name": "C2",
          "midi": 36,
          "time": 195.99999999999994,
          "velocity": 0.8346456692913385,
          "duration": 0.21666666666666856
        },
        {
          "name": "C2",
          "midi": 36,
          "time": 196.24999999999994,
          "velocity": 0.8346456692913385,
          "duration": 0.21666666666666856
        },
        {
          "name": "C2",
          "midi": 36,
          "time": 196.49999999999994,
          "velocity": 0.8346456692913385,
          "duration": 0.21666666666666856
        },
        {
          "name": "A#1",
          "midi": 34,
          "time": 196.74999999999994,
          "velocity": 0.8346456692913385,
          "duration": 0.21666666666666856
        },
        {
          "name": "C2",
          "midi": 36,
          "time": 196.99999999999994,
          "velocity": 0.8346456692913385,
          "duration": 0.21666666666666856
        },
        {
          "name": "C2",
          "midi": 36,
          "time": 197.24999999999994,
          "velocity": 0.8346456692913385,
          "duration": 0.21666666666666856
        },
        {
          "name": "C2",
          "midi": 36,
          "time": 197.49999999999994,
          "velocity": 0.8346456692913385,
          "duration": 0.21666666666666856
        },
        {
          "name": "A#1",
          "midi": 34,
          "time": 197.74999999999994,
          "velocity": 0.8346456692913385,
          "duration": 0.21666666666666856
        },
        {
          "name": "G1",
          "midi": 31,
          "time": 197.99999999999994,
          "velocity": 0.8346456692913385,
          "duration": 7.949999999999989
        }
      ],
      "controlChanges": {
        "7": [
          {
            "number": 7,
            "time": 0,
            "value": 0.7795275590551181
          },
          {
            "number": 7,
            "time": 44.03333333333333,
            "value": 0.7716535433070866
          },
          {
            "number": 7,
            "time": 44.13333333333333,
            "value": 0.7637795275590551
          },
          {
            "number": 7,
            "time": 44.166666666666664,
            "value": 0.7480314960629921
          },
          {
            "number": 7,
            "time": 44.233333333333334,
            "value": 0.7401574803149606
          },
          {
            "number": 7,
            "time": 44.300000000000004,
            "value": 0.7244094488188977
          },
          {
            "number": 7,
            "time": 44.46666666666667,
            "value": 0.7165354330708661
          },
          {
            "number": 7,
            "time": 44.5,
            "value": 0.7007874015748031
          },
          {
            "number": 7,
            "time": 44.56666666666667,
            "value": 0.6929133858267716
          },
          {
            "number": 7,
            "time": 44.63333333333334,
            "value": 0.6850393700787402
          },
          {
            "number": 7,
            "time": 44.66666666666667,
            "value": 0.6692913385826772
          },
          {
            "number": 7,
            "time": 44.73333333333334,
            "value": 0.6614173228346457
          },
          {
            "number": 7,
            "time": 44.933333333333344,
            "value": 0.6456692913385826
          },
          {
            "number": 7,
            "time": 45.000000000000014,
            "value": 0.6377952755905512
          },
          {
            "number": 7,
            "time": 45.033333333333346,
            "value": 0.6220472440944882
          },
          {
            "number": 7,
            "time": 45.06666666666668,
            "value": 0.6141732283464567
          },
          {
            "number": 7,
            "time": 45.16666666666668,
            "value": 0.5984251968503937
          },
          {
            "number": 7,
            "time": 45.20000000000001,
            "value": 0.5905511811023622
          },
          {
            "number": 7,
            "time": 45.23333333333334,
            "value": 0.5826771653543307
          },
          {
            "number": 7,
            "time": 45.433333333333344,
            "value": 0.5590551181102362
          },
          {
            "number": 7,
            "time": 45.66666666666668,
            "value": 0.5354330708661418
          },
          {
            "number": 7,
            "time": 45.73333333333335,
            "value": 0.5196850393700787
          },
          {
            "number": 7,
            "time": 45.86666666666668,
            "value": 0.5039370078740157
          },
          {
            "number": 7,
            "time": 45.96666666666668,
            "value": 0.4881889763779528
          },
          {
            "number": 7,
            "time": 46.03333333333335,
            "value": 0.48031496062992124
          },
          {
            "number": 7,
            "time": 46.10000000000002,
            "value": 0.4645669291338583
          },
          {
            "number": 7,
            "time": 46.16666666666669,
            "value": 0.4566929133858268
          },
          {
            "number": 7,
            "time": 46.23333333333336,
            "value": 0.4409448818897638
          },
          {
            "number": 7,
            "time": 46.30000000000003,
            "value": 0.41732283464566927
          },
          {
            "number": 7,
            "time": 46.433333333333366,
            "value": 0.4094488188976378
          },
          {
            "number": 7,
            "time": 46.53333333333337,
            "value": 0.4015748031496063
          },
          {
            "number": 7,
            "time": 46.63333333333337,
            "value": 0.3779527559055118
          },
          {
            "number": 7,
            "time": 46.70000000000004,
            "value": 0.36220472440944884
          },
          {
            "number": 7,
            "time": 46.76666666666671,
            "value": 0.3543307086614173
          },
          {
            "number": 7,
            "time": 46.86666666666671,
            "value": 0.33858267716535434
          },
          {
            "number": 7,
            "time": 46.96666666666671,
            "value": 0.33070866141732286
          },
          {
            "number": 7,
            "time": 47.00000000000004,
            "value": 0.31496062992125984
          },
          {
            "number": 7,
            "time": 47.06666666666671,
            "value": 0.30708661417322836
          },
          {
            "number": 7,
            "time": 47.13333333333338,
            "value": 0.2992125984251969
          },
          {
            "number": 7,
            "time": 47.166666666666714,
            "value": 0.28346456692913385
          },
          {
            "number": 7,
            "time": 47.200000000000045,
            "value": 0.2755905511811024
          },
          {
            "number": 7,
            "time": 47.266666666666715,
            "value": 0.25984251968503935
          },
          {
            "number": 7,
            "time": 47.36666666666672,
            "value": 0.25196850393700787
          },
          {
            "number": 7,
            "time": 47.46666666666672,
            "value": 0.23622047244094488
          },
          {
            "number": 7,
            "time": 47.66666666666672,
            "value": 0.2125984251968504
          },
          {
            "number": 7,
            "time": 47.76666666666672,
            "value": 0.2047244094488189
          },
          {
            "number": 7,
            "time": 47.833333333333385,
            "value": 0.1968503937007874
          },
          {
            "number": 7,
            "time": 47.86666666666672,
            "value": 0.1732283464566929
          },
          {
            "number": 7,
            "time": 47.96666666666672,
            "value": 0.7716535433070866
          },
          {
            "number": 7,
            "time": 48.06666666666672,
            "value": 0.7795275590551181
          },
          {
            "number": 7,
            "time": 56.00000000000005,
            "value": 0.15748031496062992
          },
          {
            "number": 7,
            "time": 56.03333333333338,
            "value": 0.7795275590551181
          },
          {
            "number": 7,
            "time": 88.06666666666672,
            "value": 0.7795275590551181
          },
          {
            "number": 7,
            "time": 96.06666666666672,
            "value": 0.7795275590551181
          },
          {
            "number": 7,
            "time": 109.96666666666673,
            "value": 0.25984251968503935
          },
          {
            "number": 7,
            "time": 110.03333333333339,
            "value": 0.2755905511811024
          },
          {
            "number": 7,
            "time": 110.06666666666672,
            "value": 0.2992125984251969
          },
          {
            "number": 7,
            "time": 110.13333333333338,
            "value": 0.30708661417322836
          },
          {
            "number": 7,
            "time": 110.20000000000005,
            "value": 0.31496062992125984
          },
          {
            "number": 7,
            "time": 110.23333333333338,
            "value": 0.33070866141732286
          },
          {
            "number": 7,
            "time": 110.30000000000004,
            "value": 0.33858267716535434
          },
          {
            "number": 7,
            "time": 110.33333333333337,
            "value": 0.36220472440944884
          },
          {
            "number": 7,
            "time": 110.40000000000003,
            "value": 0.3779527559055118
          },
          {
            "number": 7,
            "time": 110.43333333333337,
            "value": 0.4015748031496063
          },
          {
            "number": 7,
            "time": 110.50000000000003,
            "value": 0.4094488188976378
          },
          {
            "number": 7,
            "time": 110.53333333333336,
            "value": 0.41732283464566927
          },
          {
            "number": 7,
            "time": 110.60000000000002,
            "value": 0.4330708661417323
          },
          {
            "number": 7,
            "time": 110.70000000000002,
            "value": 0.4566929133858268
          },
          {
            "number": 7,
            "time": 110.76666666666668,
            "value": 0.4645669291338583
          },
          {
            "number": 7,
            "time": 110.80000000000001,
            "value": 0.4881889763779528
          },
          {
            "number": 7,
            "time": 110.86666666666667,
            "value": 0.5118110236220472
          },
          {
            "number": 7,
            "time": 110.9,
            "value": 0.5196850393700787
          },
          {
            "number": 7,
            "time": 110.96666666666667,
            "value": 0.5354330708661418
          },
          {
            "number": 7,
            "time": 111,
            "value": 0.5433070866141733
          },
          {
            "number": 7,
            "time": 111.03333333333333,
            "value": 0.5590551181102362
          },
          {
            "number": 7,
            "time": 111.06666666666666,
            "value": 0.5826771653543307
          },
          {
            "number": 7,
            "time": 111.13333333333333,
            "value": 0.5984251968503937
          },
          {
            "number": 7,
            "time": 111.16666666666666,
            "value": 0.6141732283464567
          },
          {
            "number": 7,
            "time": 111.23333333333332,
            "value": 0.6456692913385826
          },
          {
            "number": 7,
            "time": 111.26666666666665,
            "value": 0.6692913385826772
          },
          {
            "number": 7,
            "time": 111.33333333333331,
            "value": 0.7007874015748031
          },
          {
            "number": 7,
            "time": 111.36666666666665,
            "value": 0.7165354330708661
          },
          {
            "number": 7,
            "time": 111.43333333333331,
            "value": 0.7480314960629921
          },
          {
            "number": 7,
            "time": 111.46666666666664,
            "value": 0.7637795275590551
          },
          {
            "number": 7,
            "time": 111.5333333333333,
            "value": 0.7716535433070866
          },
          {
            "number": 7,
            "time": 111.6333333333333,
            "value": 0.7795275590551181
          }
        ],
        "10": [
          {
            "number": 10,
            "time": 0,
            "value": 0.5039370078740157
          }
        ],
        "91": [
          {
            "number": 91,
            "time": 0,
            "value": 0.31496062992125984
          }
        ],
        "93": [
          {
            "number": 93,
            "time": 0,
            "value": 0
          }
        ]
      },
      "id": 3,
      "name": "4",
      "instrumentNumber": 33,
      "instrument": "electric bass (finger)",
      "instrumentFamily": "bass",
      "channelNumber": 3,
      "isPercussion": false
    },
    {
      "startTime": 3.7500000000000004,
      "duration": 205.98333333333304,
      "length": 1924,
      "notes": [
        {
          "name": "G2",
          "midi": 43,
          "time": 3.7500000000000004,
          "velocity": 0.8346456692913385,
          "duration": 4.216666666666658
        },
        {
          "name": "A#3",
          "midi": 58,
          "time": 3.7500000000000004,
          "velocity": 0.8346456692913385,
          "duration": 4.233333333333324
        },
        {
          "name": "G3",
          "midi": 55,
          "time": 3.7500000000000004,
          "velocity": 0.8346456692913385,
          "duration": 4.216666666666658
        },
        {
          "name": "A#3",
          "midi": 58,
          "time": 27.499999999999993,
          "velocity": 0.6692913385826772,
          "duration": 0.08333333333333215
        },
        {
          "name": "D4",
          "midi": 62,
          "time": 27.499999999999993,
          "velocity": 0.5039370078740157,
          "duration": 0.08333333333333215
        },
        {
          "name": "G3",
          "midi": 55,
          "time": 27.499999999999993,
          "velocity": 0.6692913385826772,
          "duration": 0.08333333333333215
        },
        {
          "name": "G4",
          "midi": 67,
          "time": 27.499999999999993,
          "velocity": 0.5039370078740157,
          "duration": 0.08333333333333215
        },
        {
          "name": "D3",
          "midi": 50,
          "time": 27.499999999999993,
          "velocity": 0.6692913385826772,
          "duration": 0.08333333333333215
        },
        {
          "name": "G3",
          "midi": 55,
          "time": 27.749999999999993,
          "velocity": 0.6692913385826772,
          "duration": 0.08333333333333215
        },
        {
          "name": "G4",
          "midi": 67,
          "time": 27.749999999999993,
          "velocity": 0.5039370078740157,
          "duration": 0.08333333333333215
        },
        {
          "name": "D3",
          "midi": 50,
          "time": 27.749999999999993,
          "velocity": 0.6692913385826772,
          "duration": 0.08333333333333215
        },
        {
          "name": "A#3",
          "midi": 58,
          "time": 27.749999999999993,
          "velocity": 0.6692913385826772,
          "duration": 0.08333333333333215
        },
        {
          "name": "D4",
          "midi": 62,
          "time": 27.749999999999993,
          "velocity": 0.5039370078740157,
          "duration": 0.08333333333333215
        },
        {
          "name": "D4",
          "midi": 62,
          "time": 27.999999999999993,
          "velocity": 0.5039370078740157,
          "duration": 0.14999999999999858
        },
        {
          "name": "G4",
          "midi": 67,
          "time": 27.999999999999993,
          "velocity": 0.5039370078740157,
          "duration": 0.14999999999999858
        },
        {
          "name": "D3",
          "midi": 50,
          "time": 27.999999999999993,
          "velocity": 0.6692913385826772,
          "duration": 0.14999999999999858
        },
        {
          "name": "G3",
          "midi": 55,
          "time": 27.999999999999993,
          "velocity": 0.6692913385826772,
          "duration": 0.14999999999999858
        },
        {
          "name": "G4",
          "midi": 67,
          "time": 28.249999999999993,
          "velocity": 0.5039370078740157,
          "duration": 0.14999999999999858
        },
        {
          "name": "D3",
          "midi": 50,
          "time": 28.249999999999993,
          "velocity": 0.6692913385826772,
          "duration": 0.14999999999999858
        },
        {
          "name": "D4",
          "midi": 62,
          "time": 28.249999999999993,
          "velocity": 0.5039370078740157,
          "duration": 0.14999999999999858
        },
        {
          "name": "G3",
          "midi": 55,
          "time": 28.249999999999993,
          "velocity": 0.6692913385826772,
          "duration": 0.14999999999999858
        },
        {
          "name": "G3",
          "midi": 55,
          "time": 28.499999999999993,
          "velocity": 0.6692913385826772,
          "duration": 0.14999999999999858
        },
        {
          "name": "G4",
          "midi": 67,
          "time": 28.499999999999993,
          "velocity": 0.5039370078740157,
          "duration": 0.14999999999999858
        },
        {
          "name": "D3",
          "midi": 50,
          "time": 28.499999999999993,
          "velocity": 0.6692913385826772,
          "duration": 0.14999999999999858
        },
        {
          "name": "D4",
          "midi": 62,
          "time": 28.499999999999993,
          "velocity": 0.5039370078740157,
          "duration": 0.14999999999999858
        },
        {
          "name": "G4",
          "midi": 67,
          "time": 28.749999999999993,
          "velocity": 0.5039370078740157,
          "duration": 0.14999999999999858
        },
        {
          "name": "G3",
          "midi": 55,
          "time": 28.749999999999993,
          "velocity": 0.6692913385826772,
          "duration": 0.14999999999999858
        },
        {
          "name": "D4",
          "midi": 62,
          "time": 28.749999999999993,
          "velocity": 0.5039370078740157,
          "duration": 0.14999999999999858
        },
        {
          "name": "D3",
          "midi": 50,
          "time": 28.749999999999993,
          "velocity": 0.6692913385826772,
          "duration": 0.14999999999999858
        },
        {
          "name": "D4",
          "midi": 62,
          "time": 28.999999999999993,
          "velocity": 0.5039370078740157,
          "duration": 0.14999999999999858
        },
        {
          "name": "G3",
          "midi": 55,
          "time": 28.999999999999993,
          "velocity": 0.6692913385826772,
          "duration": 0.14999999999999858
        },
        {
          "name": "D3",
          "midi": 50,
          "time": 28.999999999999993,
          "velocity": 0.6692913385826772,
          "duration": 0.14999999999999858
        },
        {
          "name": "G4",
          "midi": 67,
          "time": 28.999999999999993,
          "velocity": 0.5039370078740157,
          "duration": 0.14999999999999858
        },
        {
          "name": "G4",
          "midi": 67,
          "time": 29.249999999999993,
          "velocity": 0.5039370078740157,
          "duration": 0.14999999999999858
        },
        {
          "name": "G3",
          "midi": 55,
          "time": 29.249999999999993,
          "velocity": 0.6692913385826772,
          "duration": 0.14999999999999858
        },
        {
          "name": "D4",
          "midi": 62,
          "time": 29.249999999999993,
          "velocity": 0.5039370078740157,
          "duration": 0.14999999999999858
        },
        {
          "name": "D3",
          "midi": 50,
          "time": 29.249999999999993,
          "velocity": 0.6692913385826772,
          "duration": 0.14999999999999858
        },
        {
          "name": "D3",
          "midi": 50,
          "time": 29.499999999999993,
          "velocity": 0.6692913385826772,
          "duration": 0.14999999999999858
        },
        {
          "name": "D4",
          "midi": 62,
          "time": 29.499999999999993,
          "velocity": 0.5039370078740157,
          "duration": 0.14999999999999858
        },
        {
          "name": "G3",
          "midi": 55,
          "time": 29.499999999999993,
          "velocity": 0.6692913385826772,
          "duration": 0.14999999999999858
        },
        {
          "name": "G4",
          "midi": 67,
          "time": 29.499999999999993,
          "velocity": 0.5039370078740157,
          "duration": 0.14999999999999858
        },
        {
          "name": "D4",
          "midi": 62,
          "time": 29.749999999999993,
          "velocity": 0.5039370078740157,
          "duration": 0.14999999999999858
        },
        {
          "name": "G3",
          "midi": 55,
          "time": 29.749999999999993,
          "velocity": 0.6692913385826772,
          "duration": 0.14999999999999858
        },
        {
          "name": "G4",
          "midi": 67,
          "time": 29.749999999999993,
          "velocity": 0.5039370078740157,
          "duration": 0.14999999999999858
        },
        {
          "name": "D3",
          "midi": 50,
          "time": 29.749999999999993,
          "velocity": 0.6692913385826772,
          "duration": 0.14999999999999858
        },
        {
          "name": "A#4",
          "midi": 70,
          "time": 29.999999999999993,
          "velocity": 0.5039370078740157,
          "duration": 0.14999999999999858
        },
        {
          "name": "F3",
          "midi": 53,
          "time": 29.999999999999993,
          "velocity": 0.6692913385826772,
          "duration": 0.14999999999999858
        },
        {
          "name": "A#3",
          "midi": 58,
          "time": 29.999999999999993,
          "velocity": 0.6692913385826772,
          "duration": 0.14999999999999858
        },
        {
          "name": "F4",
          "midi": 65,
          "time": 29.999999999999993,
          "velocity": 0.5039370078740157,
          "duration": 0.14999999999999858
        },
        {
          "name": "A#4",
          "midi": 70,
          "time": 30.249999999999993,
          "velocity": 0.5039370078740157,
          "duration": 0.14999999999999858
        },
        {
          "name": "F3",
          "midi": 53,
          "time": 30.249999999999993,
          "velocity": 0.6692913385826772,
          "duration": 0.14999999999999858
        },
        {
          "name": "A#3",
          "midi": 58,
          "time": 30.249999999999993,
          "velocity": 0.6692913385826772,
          "duration": 0.14999999999999858
        },
        {
          "name": "F4",
          "midi": 65,
          "time": 30.249999999999993,
          "velocity": 0.5039370078740157,
          "duration": 0.14999999999999858
        },
        {
          "name": "F3",
          "midi": 53,
          "time": 30.499999999999993,
          "velocity": 0.6692913385826772,
          "duration": 0.14999999999999858
        },
        {
          "name": "A#3",
          "midi": 58,
          "time": 30.499999999999993,
          "velocity": 0.6692913385826772,
          "duration": 0.14999999999999858
        },
        {
          "name": "F4",
          "midi": 65,
          "time": 30.499999999999993,
          "velocity": 0.5039370078740157,
          "duration": 0.14999999999999858
        },
        {
          "name": "A#4",
          "midi": 70,
          "time": 30.499999999999993,
          "velocity": 0.5039370078740157,
          "duration": 0.14999999999999858
        },
        {
          "name": "F4",
          "midi": 65,
          "time": 30.749999999999993,
          "velocity": 0.5039370078740157,
          "duration": 0.14999999999999858
        },
        {
          "name": "A#3",
          "midi": 58,
          "time": 30.749999999999993,
          "velocity": 0.6692913385826772,
          "duration": 0.14999999999999858
        },
        {
          "name": "F3",
          "midi": 53,
          "time": 30.749999999999993,
          "velocity": 0.6692913385826772,
          "duration": 0.14999999999999858
        },
        {
          "name": "A#4",
          "midi": 70,
          "time": 30.749999999999993,
          "velocity": 0.5039370078740157,
          "duration": 0.14999999999999858
        },
        {
          "name": "A#4",
          "midi": 70,
          "time": 30.999999999999993,
          "velocity": 0.5039370078740157,
          "duration": 0.14999999999999858
        },
        {
          "name": "F3",
          "midi": 53,
          "time": 30.999999999999993,
          "velocity": 0.6692913385826772,
          "duration": 0.14999999999999858
        },
        {
          "name": "A#3",
          "midi": 58,
          "time": 30.999999999999993,
          "velocity": 0.6692913385826772,
          "duration": 0.14999999999999858
        },
        {
          "name": "F4",
          "midi": 65,
          "time": 30.999999999999993,
          "velocity": 0.5039370078740157,
          "duration": 0.14999999999999858
        },
        {
          "name": "F4",
          "midi": 65,
          "time": 31.249999999999993,
          "velocity": 0.5039370078740157,
          "duration": 0.14999999999999858
        },
        {
          "name": "A#4",
          "midi": 70,
          "time": 31.249999999999993,
          "velocity": 0.5039370078740157,
          "duration": 0.14999999999999858
        },
        {
          "name": "F3",
          "midi": 53,
          "time": 31.249999999999993,
          "velocity": 0.6692913385826772,
          "duration": 0.14999999999999858
        },
        {
          "name": "A#3",
          "midi": 58,
          "time": 31.249999999999993,
          "velocity": 0.6692913385826772,
          "duration": 0.14999999999999858
        },
        {
          "name": "F4",
          "midi": 65,
          "time": 31.499999999999993,
          "velocity": 0.5039370078740157,
          "duration": 0.14999999999999858
        },
        {
          "name": "A#3",
          "midi": 58,
          "time": 31.499999999999993,
          "velocity": 0.6692913385826772,
          "duration": 0.14999999999999858
        },
        {
          "name": "A#4",
          "midi": 70,
          "time": 31.499999999999993,
          "velocity": 0.5039370078740157,
          "duration": 0.14999999999999858
        },
        {
          "name": "F3",
          "midi": 53,
          "time": 31.499999999999993,
          "velocity": 0.6692913385826772,
          "duration": 0.14999999999999858
        },
        {
          "name": "A#3",
          "midi": 58,
          "time": 31.749999999999993,
          "velocity": 0.6692913385826772,
          "duration": 0.14999999999999858
        },
        {
          "name": "F4",
          "midi": 65,
          "time": 31.749999999999993,
          "velocity": 0.5039370078740157,
          "duration": 0.14999999999999858
        },
        {
          "name": "A#4",
          "midi": 70,
          "time": 31.749999999999993,
          "velocity": 0.5039370078740157,
          "duration": 0.14999999999999858
        },
        {
          "name": "F3",
          "midi": 53,
          "time": 31.749999999999993,
          "velocity": 0.6692913385826772,
          "duration": 0.14999999999999858
        },
        {
          "name": "C4",
          "midi": 60,
          "time": 31.999999999999993,
          "velocity": 0.5039370078740157,
          "duration": 0.14999999999999858
        },
        {
          "name": "C3",
          "midi": 48,
          "time": 31.999999999999993,
          "velocity": 0.6692913385826772,
          "duration": 0.14999999999999858
        },
        {
          "name": "F4",
          "midi": 65,
          "time": 31.999999999999993,
          "velocity": 0.5039370078740157,
          "duration": 0.14999999999999858
        },
        {
          "name": "F3",
          "midi": 53,
          "time": 31.999999999999993,
          "velocity": 0.6692913385826772,
          "duration": 0.14999999999999858
        },
        {
          "name": "C3",
          "midi": 48,
          "time": 32.24999999999999,
          "velocity": 0.6692913385826772,
          "duration": 0.14999999999999858
        },
        {
          "name": "C4",
          "midi": 60,
          "time": 32.24999999999999,
          "velocity": 0.5039370078740157,
          "duration": 0.14999999999999858
        },
        {
          "name": "F4",
          "midi": 65,
          "time": 32.24999999999999,
          "velocity": 0.5039370078740157,
          "duration": 0.14999999999999858
        },
        {
          "name": "F3",
          "midi": 53,
          "time": 32.24999999999999,
          "velocity": 0.6692913385826772,
          "duration": 0.14999999999999858
        },
        {
          "name": "C4",
          "midi": 60,
          "time": 32.49999999999999,
          "velocity": 0.5039370078740157,
          "duration": 0.14999999999999858
        },
        {
          "name": "F4",
          "midi": 65,
          "time": 32.49999999999999,
          "velocity": 0.5039370078740157,
          "duration": 0.14999999999999858
        },
        {
          "name": "F3",
          "midi": 53,
          "time": 32.49999999999999,
          "velocity": 0.6692913385826772,
          "duration": 0.14999999999999858
        },
        {
          "name": "C3",
          "midi": 48,
          "time": 32.49999999999999,
          "velocity": 0.6692913385826772,
          "duration": 0.14999999999999858
        },
        {
          "name": "F4",
          "midi": 65,
          "time": 32.74999999999999,
          "velocity": 0.5039370078740157,
          "duration": 0.14999999999999858
        },
        {
          "name": "F3",
          "midi": 53,
          "time": 32.74999999999999,
          "velocity": 0.6692913385826772,
          "duration": 0.14999999999999858
        },
        {
          "name": "C4",
          "midi": 60,
          "time": 32.74999999999999,
          "velocity": 0.5039370078740157,
          "duration": 0.14999999999999858
        },
        {
          "name": "C3",
          "midi": 48,
          "time": 32.74999999999999,
          "velocity": 0.6692913385826772,
          "duration": 0.14999999999999858
        },
        {
          "name": "F3",
          "midi": 53,
          "time": 32.99999999999999,
          "velocity": 0.6692913385826772,
          "duration": 0.14999999999999858
        },
        {
          "name": "F4",
          "midi": 65,
          "time": 32.99999999999999,
          "velocity": 0.5039370078740157,
          "duration": 0.14999999999999858
        },
        {
          "name": "C3",
          "midi": 48,
          "time": 32.99999999999999,
          "velocity": 0.6692913385826772,
          "duration": 0.14999999999999858
        },
        {
          "name": "C4",
          "midi": 60,
          "time": 32.99999999999999,
          "velocity": 0.5039370078740157,
          "duration": 0.14999999999999858
        },
        {
          "name": "F4",
          "midi": 65,
          "time": 33.24999999999999,
          "velocity": 0.5039370078740157,
          "duration": 0.14999999999999858
        },
        {
          "name": "C4",
          "midi": 60,
          "time": 33.24999999999999,
          "velocity": 0.5039370078740157,
          "duration": 0.14999999999999858
        },
        {
          "name": "C3",
          "midi": 48,
          "time": 33.24999999999999,
          "velocity": 0.6692913385826772,
          "duration": 0.14999999999999858
        },
        {
          "name": "F3",
          "midi": 53,
          "time": 33.24999999999999,
          "velocity": 0.6692913385826772,
          "duration": 0.14999999999999858
        },
        {
          "name": "F4",
          "midi": 65,
          "time": 33.49999999999999,
          "velocity": 0.5039370078740157,
          "duration": 0.14999999999999858
        },
        {
          "name": "C3",
          "midi": 48,
          "time": 33.49999999999999,
          "velocity": 0.6692913385826772,
          "duration": 0.14999999999999858
        },
        {
          "name": "C4",
          "midi": 60,
          "time": 33.49999999999999,
          "velocity": 0.5039370078740157,
          "duration": 0.14999999999999858
        },
        {
          "name": "F3",
          "midi": 53,
          "time": 33.49999999999999,
          "velocity": 0.6692913385826772,
          "duration": 0.14999999999999858
        },
        {
          "name": "F3",
          "midi": 53,
          "time": 33.74999999999999,
          "velocity": 0.6692913385826772,
          "duration": 0.14999999999999858
        },
        {
          "name": "F4",
          "midi": 65,
          "time": 33.74999999999999,
          "velocity": 0.5039370078740157,
          "duration": 0.14999999999999858
        },
        {
          "name": "C4",
          "midi": 60,
          "time": 33.74999999999999,
          "velocity": 0.5039370078740157,
          "duration": 0.14999999999999858
        },
        {
          "name": "C3",
          "midi": 48,
          "time": 33.74999999999999,
          "velocity": 0.6692913385826772,
          "duration": 0.14999999999999858
        },
        {
          "name": "C3",
          "midi": 48,
          "time": 33.99999999999999,
          "velocity": 0.6692913385826772,
          "duration": 0.14999999999999858
        },
        {
          "name": "G4",
          "midi": 67,
          "time": 33.99999999999999,
          "velocity": 0.5039370078740157,
          "duration": 0.14999999999999858
        },
        {
          "name": "G3",
          "midi": 55,
          "time": 33.99999999999999,
          "velocity": 0.6692913385826772,
          "duration": 0.14999999999999858
        },
        {
          "name": "C4",
          "midi": 60,
          "time": 33.99999999999999,
          "velocity": 0.5039370078740157,
          "duration": 0.14999999999999858
        },
        {
          "name": "G3",
          "midi": 55,
          "time": 34.24999999999999,
          "velocity": 0.6692913385826772,
          "duration": 0.14999999999999858
        },
        {
          "name": "G4",
          "midi": 67,
          "time": 34.24999999999999,
          "velocity": 0.5039370078740157,
          "duration": 0.14999999999999858
        },
        {
          "name": "C4",
          "midi": 60,
          "time": 34.24999999999999,
          "velocity": 0.5039370078740157,
          "duration": 0.14999999999999858
        },
        {
          "name": "C3",
          "midi": 48,
          "time": 34.24999999999999,
          "velocity": 0.6692913385826772,
          "duration": 0.14999999999999858
        },
        {
          "name": "G4",
          "midi": 67,
          "time": 34.49999999999999,
          "velocity": 0.5039370078740157,
          "duration": 0.14999999999999858
        },
        {
          "name": "G3",
          "midi": 55,
          "time": 34.49999999999999,
          "velocity": 0.6692913385826772,
          "duration": 0.14999999999999858
        },
        {
          "name": "C3",
          "midi": 48,
          "time": 34.49999999999999,
          "velocity": 0.6692913385826772,
          "duration": 0.14999999999999858
        },
        {
          "name": "C4",
          "midi": 60,
          "time": 34.49999999999999,
          "velocity": 0.5039370078740157,
          "duration": 0.14999999999999858
        },
        {
          "name": "C4",
          "midi": 60,
          "time": 34.74999999999999,
          "velocity": 0.5039370078740157,
          "duration": 0.14999999999999858
        },
        {
          "name": "C3",
          "midi": 48,
          "time": 34.74999999999999,
          "velocity": 0.6692913385826772,
          "duration": 0.14999999999999858
        },
        {
          "name": "G3",
          "midi": 55,
          "time": 34.74999999999999,
          "velocity": 0.6692913385826772,
          "duration": 0.14999999999999858
        },
        {
          "name": "G4",
          "midi": 67,
          "time": 34.74999999999999,
          "velocity": 0.5039370078740157,
          "duration": 0.14999999999999858
        },
        {
          "name": "C4",
          "midi": 60,
          "time": 34.99999999999999,
          "velocity": 0.5039370078740157,
          "duration": 0.14999999999999858
        },
        {
          "name": "C3",
          "midi": 48,
          "time": 34.99999999999999,
          "velocity": 0.6692913385826772,
          "duration": 0.14999999999999858
        },
        {
          "name": "G3",
          "midi": 55,
          "time": 34.99999999999999,
          "velocity": 0.6692913385826772,
          "duration": 0.14999999999999858
        },
        {
          "name": "G4",
          "midi": 67,
          "time": 34.99999999999999,
          "velocity": 0.5039370078740157,
          "duration": 0.14999999999999858
        },
        {
          "name": "G4",
          "midi": 67,
          "time": 35.24999999999999,
          "velocity": 0.5039370078740157,
          "duration": 0.14999999999999858
        },
        {
          "name": "C4",
          "midi": 60,
          "time": 35.24999999999999,
          "velocity": 0.5039370078740157,
          "duration": 0.14999999999999858
        },
        {
          "name": "G3",
          "midi": 55,
          "time": 35.24999999999999,
          "velocity": 0.6692913385826772,
          "duration": 0.14999999999999858
        },
        {
          "name": "C3",
          "midi": 48,
          "time": 35.24999999999999,
          "velocity": 0.6692913385826772,
          "duration": 0.14999999999999858
        },
        {
          "name": "C3",
          "midi": 48,
          "time": 35.49999999999999,
          "velocity": 0.6692913385826772,
          "duration": 0.14999999999999858
        },
        {
          "name": "C4",
          "midi": 60,
          "time": 35.49999999999999,
          "velocity": 0.5039370078740157,
          "duration": 0.14999999999999858
        },
        {
          "name": "G4",
          "midi": 67,
          "time": 35.49999999999999,
          "velocity": 0.5039370078740157,
          "duration": 0.14999999999999858
        },
        {
          "name": "G3",
          "midi": 55,
          "time": 35.49999999999999,
          "velocity": 0.6692913385826772,
          "duration": 0.14999999999999858
        },
        {
          "name": "G4",
          "midi": 67,
          "time": 35.74999999999999,
          "velocity": 0.5039370078740157,
          "duration": 0.14999999999999858
        },
        {
          "name": "G3",
          "midi": 55,
          "time": 35.74999999999999,
          "velocity": 0.6692913385826772,
          "duration": 0.14999999999999858
        },
        {
          "name": "C4",
          "midi": 60,
          "time": 35.74999999999999,
          "velocity": 0.5039370078740157,
          "duration": 0.14999999999999858
        },
        {
          "name": "C3",
          "midi": 48,
          "time": 35.74999999999999,
          "velocity": 0.6692913385826772,
          "duration": 0.14999999999999858
        },
        {
          "name": "G3",
          "midi": 55,
          "time": 35.99999999999999,
          "velocity": 0.6692913385826772,
          "duration": 0.14999999999999858
        },
        {
          "name": "D4",
          "midi": 62,
          "time": 35.99999999999999,
          "velocity": 0.5039370078740157,
          "duration": 0.14999999999999858
        },
        {
          "name": "D3",
          "midi": 50,
          "time": 35.99999999999999,
          "velocity": 0.6692913385826772,
          "duration": 0.14999999999999858
        },
        {
          "name": "G4",
          "midi": 67,
          "time": 35.99999999999999,
          "velocity": 0.5039370078740157,
          "duration": 0.14999999999999858
        },
        {
          "name": "D4",
          "midi": 62,
          "time": 36.24999999999999,
          "velocity": 0.5039370078740157,
          "duration": 0.14999999999999858
        },
        {
          "name": "G4",
          "midi": 67,
          "time": 36.24999999999999,
          "velocity": 0.5039370078740157,
          "duration": 0.14999999999999858
        },
        {
          "name": "G3",
          "midi": 55,
          "time": 36.24999999999999,
          "velocity": 0.6692913385826772,
          "duration": 0.14999999999999858
        },
        {
          "name": "D3",
          "midi": 50,
          "time": 36.24999999999999,
          "velocity": 0.6692913385826772,
          "duration": 0.14999999999999858
        },
        {
          "name": "G4",
          "midi": 67,
          "time": 36.49999999999999,
          "velocity": 0.5039370078740157,
          "duration": 0.14999999999999858
        },
        {
          "name": "G3",
          "midi": 55,
          "time": 36.49999999999999,
          "velocity": 0.6692913385826772,
          "duration": 0.14999999999999858
        },
        {
          "name": "D4",
          "midi": 62,
          "time": 36.49999999999999,
          "velocity": 0.5039370078740157,
          "duration": 0.14999999999999858
        },
        {
          "name": "D3",
          "midi": 50,
          "time": 36.49999999999999,
          "velocity": 0.6692913385826772,
          "duration": 0.14999999999999858
        },
        {
          "name": "G4",
          "midi": 67,
          "time": 36.74999999999999,
          "velocity": 0.5039370078740157,
          "duration": 0.14999999999999858
        },
        {
          "name": "G3",
          "midi": 55,
          "time": 36.74999999999999,
          "velocity": 0.6692913385826772,
          "duration": 0.14999999999999858
        },
        {
          "name": "D4",
          "midi": 62,
          "time": 36.74999999999999,
          "velocity": 0.5039370078740157,
          "duration": 0.14999999999999858
        },
        {
          "name": "D3",
          "midi": 50,
          "time": 36.74999999999999,
          "velocity": 0.6692913385826772,
          "duration": 0.14999999999999858
        },
        {
          "name": "D4",
          "midi": 62,
          "time": 36.99999999999999,
          "velocity": 0.5039370078740157,
          "duration": 0.14999999999999858
        },
        {
          "name": "D3",
          "midi": 50,
          "time": 36.99999999999999,
          "velocity": 0.6692913385826772,
          "duration": 0.14999999999999858
        },
        {
          "name": "G4",
          "midi": 67,
          "time": 36.99999999999999,
          "velocity": 0.5039370078740157,
          "duration": 0.14999999999999858
        },
        {
          "name": "G3",
          "midi": 55,
          "time": 36.99999999999999,
          "velocity": 0.6692913385826772,
          "duration": 0.14999999999999858
        },
        {
          "name": "D3",
          "midi": 50,
          "time": 37.24999999999999,
          "velocity": 0.6692913385826772,
          "duration": 0.14999999999999858
        },
        {
          "name": "G4",
          "midi": 67,
          "time": 37.24999999999999,
          "velocity": 0.5039370078740157,
          "duration": 0.14999999999999858
        },
        {
          "name": "G3",
          "midi": 55,
          "time": 37.24999999999999,
          "velocity": 0.6692913385826772,
          "duration": 0.14999999999999858
        },
        {
          "name": "D4",
          "midi": 62,
          "time": 37.24999999999999,
          "velocity": 0.5039370078740157,
          "duration": 0.14999999999999858
        },
        {
          "name": "G3",
          "midi": 55,
          "time": 37.49999999999999,
          "velocity": 0.6692913385826772,
          "duration": 0.14999999999999858
        },
        {
          "name": "D3",
          "midi": 50,
          "time": 37.49999999999999,
          "velocity": 0.6692913385826772,
          "duration": 0.14999999999999858
        },
        {
          "name": "G4",
          "midi": 67,
          "time": 37.49999999999999,
          "velocity": 0.5039370078740157,
          "duration": 0.14999999999999858
        },
        {
          "name": "D4",
          "midi": 62,
          "time": 37.49999999999999,
          "velocity": 0.5039370078740157,
          "duration": 0.14999999999999858
        },
        {
          "name": "D3",
          "midi": 50,
          "time": 37.74999999999999,
          "velocity": 0.6692913385826772,
          "duration": 0.14999999999999858
        },
        {
          "name": "G3",
          "midi": 55,
          "time": 37.74999999999999,
          "velocity": 0.6692913385826772,
          "duration": 0.14999999999999858
        },
        {
          "name": "G4",
          "midi": 67,
          "time": 37.74999999999999,
          "velocity": 0.5039370078740157,
          "duration": 0.14999999999999858
        },
        {
          "name": "D4",
          "midi": 62,
          "time": 37.74999999999999,
          "velocity": 0.5039370078740157,
          "duration": 0.14999999999999858
        },
        {
          "name": "A#3",
          "midi": 58,
          "time": 37.99999999999999,
          "velocity": 0.6692913385826772,
          "duration": 0.14999999999999858
        },
        {
          "name": "F3",
          "midi": 53,
          "time": 37.99999999999999,
          "velocity": 0.6692913385826772,
          "duration": 0.14999999999999858
        },
        {
          "name": "A#4",
          "midi": 70,
          "time": 37.99999999999999,
          "velocity": 0.5039370078740157,
          "duration": 0.14999999999999858
        },
        {
          "name": "F4",
          "midi": 65,
          "time": 37.99999999999999,
          "velocity": 0.5039370078740157,
          "duration": 0.14999999999999858
        },
        {
          "name": "A#4",
          "midi": 70,
          "time": 38.24999999999999,
          "velocity": 0.5039370078740157,
          "duration": 0.14999999999999858
        },
        {
          "name": "F3",
          "midi": 53,
          "time": 38.24999999999999,
          "velocity": 0.6692913385826772,
          "duration": 0.14999999999999858
        },
        {
          "name": "A#3",
          "midi": 58,
          "time": 38.24999999999999,
          "velocity": 0.6692913385826772,
          "duration": 0.14999999999999858
        },
        {
          "name": "F4",
          "midi": 65,
          "time": 38.24999999999999,
          "velocity": 0.5039370078740157,
          "duration": 0.14999999999999858
        },
        {
          "name": "A#4",
          "midi": 70,
          "time": 38.49999999999999,
          "velocity": 0.5039370078740157,
          "duration": 0.14999999999999858
        },
        {
          "name": "F4",
          "midi": 65,
          "time": 38.49999999999999,
          "velocity": 0.5039370078740157,
          "duration": 0.14999999999999858
        },
        {
          "name": "A#3",
          "midi": 58,
          "time": 38.49999999999999,
          "velocity": 0.6692913385826772,
          "duration": 0.14999999999999858
        },
        {
          "name": "F3",
          "midi": 53,
          "time": 38.49999999999999,
          "velocity": 0.6692913385826772,
          "duration": 0.14999999999999858
        },
        {
          "name": "A#3",
          "midi": 58,
          "time": 38.74999999999999,
          "velocity": 0.6692913385826772,
          "duration": 0.14999999999999858
        },
        {
          "name": "A#4",
          "midi": 70,
          "time": 38.74999999999999,
          "velocity": 0.5039370078740157,
          "duration": 0.14999999999999858
        },
        {
          "name": "F3",
          "midi": 53,
          "time": 38.74999999999999,
          "velocity": 0.6692913385826772,
          "duration": 0.14999999999999858
        },
        {
          "name": "F4",
          "midi": 65,
          "time": 38.74999999999999,
          "velocity": 0.5039370078740157,
          "duration": 0.14999999999999858
        },
        {
          "name": "A#3",
          "midi": 58,
          "time": 38.99999999999999,
          "velocity": 0.6692913385826772,
          "duration": 0.14999999999999858
        },
        {
          "name": "F4",
          "midi": 65,
          "time": 38.99999999999999,
          "velocity": 0.5039370078740157,
          "duration": 0.14999999999999858
        },
        {
          "name": "A#4",
          "midi": 70,
          "time": 38.99999999999999,
          "velocity": 0.5039370078740157,
          "duration": 0.14999999999999858
        },
        {
          "name": "F3",
          "midi": 53,
          "time": 38.99999999999999,
          "velocity": 0.6692913385826772,
          "duration": 0.14999999999999858
        },
        {
          "name": "A#4",
          "midi": 70,
          "time": 39.24999999999999,
          "velocity": 0.5039370078740157,
          "duration": 0.14999999999999858
        },
        {
          "name": "F3",
          "midi": 53,
          "time": 39.24999999999999,
          "velocity": 0.6692913385826772,
          "duration": 0.14999999999999858
        },
        {
          "name": "A#3",
          "midi": 58,
          "time": 39.24999999999999,
          "velocity": 0.6692913385826772,
          "duration": 0.14999999999999858
        },
        {
          "name": "F4",
          "midi": 65,
          "time": 39.24999999999999,
          "velocity": 0.5039370078740157,
          "duration": 0.14999999999999858
        },
        {
          "name": "A#4",
          "midi": 70,
          "time": 39.49999999999999,
          "velocity": 0.5039370078740157,
          "duration": 0.14999999999999858
        },
        {
          "name": "F4",
          "midi": 65,
          "time": 39.49999999999999,
          "velocity": 0.5039370078740157,
          "duration": 0.14999999999999858
        },
        {
          "name": "F3",
          "midi": 53,
          "time": 39.49999999999999,
          "velocity": 0.6692913385826772,
          "duration": 0.14999999999999858
        },
        {
          "name": "A#3",
          "midi": 58,
          "time": 39.49999999999999,
          "velocity": 0.6692913385826772,
          "duration": 0.14999999999999858
        },
        {
          "name": "A#3",
          "midi": 58,
          "time": 39.74999999999999,
          "velocity": 0.6692913385826772,
          "duration": 0.14999999999999858
        },
        {
          "name": "F3",
          "midi": 53,
          "time": 39.74999999999999,
          "velocity": 0.6692913385826772,
          "duration": 0.14999999999999858
        },
        {
          "name": "F4",
          "midi": 65,
          "time": 39.74999999999999,
          "velocity": 0.5039370078740157,
          "duration": 0.14999999999999858
        },
        {
          "name": "A#4",
          "midi": 70,
          "time": 39.74999999999999,
          "velocity": 0.5039370078740157,
          "duration": 0.14999999999999858
        },
        {
          "name": "C3",
          "midi": 48,
          "time": 39.99999999999999,
          "velocity": 0.6692913385826772,
          "duration": 0.14999999999999858
        },
        {
          "name": "F3",
          "midi": 53,
          "time": 39.99999999999999,
          "velocity": 0.6692913385826772,
          "duration": 0.14999999999999858
        },
        {
          "name": "F4",
          "midi": 65,
          "time": 39.99999999999999,
          "velocity": 0.5039370078740157,
          "duration": 0.14999999999999858
        },
        {
          "name": "C4",
          "midi": 60,
          "time": 39.99999999999999,
          "velocity": 0.5039370078740157,
          "duration": 0.14999999999999858
        },
        {
          "name": "F4",
          "midi": 65,
          "time": 40.24999999999999,
          "velocity": 0.5039370078740157,
          "duration": 0.14999999999999858
        },
        {
          "name": "C4",
          "midi": 60,
          "time": 40.24999999999999,
          "velocity": 0.5039370078740157,
          "duration": 0.14999999999999858
        },
        {
          "name": "F3",
          "midi": 53,
          "time": 40.24999999999999,
          "velocity": 0.6692913385826772,
          "duration": 0.14999999999999858
        },
        {
          "name": "C3",
          "midi": 48,
          "time": 40.24999999999999,
          "velocity": 0.6692913385826772,
          "duration": 0.14999999999999858
        },
        {
          "name": "F3",
          "midi": 53,
          "time": 40.49999999999999,
          "velocity": 0.6692913385826772,
          "duration": 0.14999999999999858
        },
        {
          "name": "C4",
          "midi": 60,
          "time": 40.49999999999999,
          "velocity": 0.5039370078740157,
          "duration": 0.14999999999999858
        },
        {
          "name": "F4",
          "midi": 65,
          "time": 40.49999999999999,
          "velocity": 0.5039370078740157,
          "duration": 0.14999999999999858
        },
        {
          "name": "C3",
          "midi": 48,
          "time": 40.49999999999999,
          "velocity": 0.6692913385826772,
          "duration": 0.14999999999999858
        },
        {
          "name": "F4",
          "midi": 65,
          "time": 40.74999999999999,
          "velocity": 0.5039370078740157,
          "duration": 0.14999999999999858
        },
        {
          "name": "C4",
          "midi": 60,
          "time": 40.74999999999999,
          "velocity": 0.5039370078740157,
          "duration": 0.14999999999999858
        },
        {
          "name": "F3",
          "midi": 53,
          "time": 40.74999999999999,
          "velocity": 0.6692913385826772,
          "duration": 0.14999999999999858
        },
        {
          "name": "C3",
          "midi": 48,
          "time": 40.74999999999999,
          "velocity": 0.6692913385826772,
          "duration": 0.14999999999999858
        },
        {
          "name": "C3",
          "midi": 48,
          "time": 40.99999999999999,
          "velocity": 0.6692913385826772,
          "duration": 0.14999999999999858
        },
        {
          "name": "F3",
          "midi": 53,
          "time": 40.99999999999999,
          "velocity": 0.6692913385826772,
          "duration": 0.14999999999999858
        },
        {
          "name": "F4",
          "midi": 65,
          "time": 40.99999999999999,
          "velocity": 0.5039370078740157,
          "duration": 0.14999999999999858
        },
        {
          "name": "C4",
          "midi": 60,
          "time": 40.99999999999999,
          "velocity": 0.5039370078740157,
          "duration": 0.14999999999999858
        },
        {
          "name": "C4",
          "midi": 60,
          "time": 41.24999999999999,
          "velocity": 0.5039370078740157,
          "duration": 0.14999999999999858
        },
        {
          "name": "F3",
          "midi": 53,
          "time": 41.24999999999999,
          "velocity": 0.6692913385826772,
          "duration": 0.14999999999999858
        },
        {
          "name": "C3",
          "midi": 48,
          "time": 41.24999999999999,
          "velocity": 0.6692913385826772,
          "duration": 0.14999999999999858
        },
        {
          "name": "F4",
          "midi": 65,
          "time": 41.24999999999999,
          "velocity": 0.5039370078740157,
          "duration": 0.14999999999999858
        },
        {
          "name": "F3",
          "midi": 53,
          "time": 41.49999999999999,
          "velocity": 0.6692913385826772,
          "duration": 0.14999999999999858
        },
        {
          "name": "C3",
          "midi": 48,
          "time": 41.49999999999999,
          "velocity": 0.6692913385826772,
          "duration": 0.14999999999999858
        },
        {
          "name": "F4",
          "midi": 65,
          "time": 41.49999999999999,
          "velocity": 0.5039370078740157,
          "duration": 0.14999999999999858
        },
        {
          "name": "C4",
          "midi": 60,
          "time": 41.49999999999999,
          "velocity": 0.5039370078740157,
          "duration": 0.14999999999999858
        },
        {
          "name": "C4",
          "midi": 60,
          "time": 41.74999999999999,
          "velocity": 0.5039370078740157,
          "duration": 0.14999999999999858
        },
        {
          "name": "F3",
          "midi": 53,
          "time": 41.74999999999999,
          "velocity": 0.6692913385826772,
          "duration": 0.14999999999999858
        },
        {
          "name": "F4",
          "midi": 65,
          "time": 41.74999999999999,
          "velocity": 0.5039370078740157,
          "duration": 0.14999999999999858
        },
        {
          "name": "C3",
          "midi": 48,
          "time": 41.74999999999999,
          "velocity": 0.6692913385826772,
          "duration": 0.14999999999999858
        },
        {
          "name": "C3",
          "midi": 48,
          "time": 41.99999999999999,
          "velocity": 0.6692913385826772,
          "duration": 0.14999999999999858
        },
        {
          "name": "G4",
          "midi": 67,
          "time": 41.99999999999999,
          "velocity": 0.5039370078740157,
          "duration": 0.14999999999999858
        },
        {
          "name": "C4",
          "midi": 60,
          "time": 41.99999999999999,
          "velocity": 0.5039370078740157,
          "duration": 0.14999999999999858
        },
        {
          "name": "G3",
          "midi": 55,
          "time": 41.99999999999999,
          "velocity": 0.6692913385826772,
          "duration": 0.14999999999999858
        },
        {
          "name": "C4",
          "midi": 60,
          "time": 42.24999999999999,
          "velocity": 0.5039370078740157,
          "duration": 0.14999999999999858
        },
        {
          "name": "C3",
          "midi": 48,
          "time": 42.24999999999999,
          "velocity": 0.6692913385826772,
          "duration": 0.14999999999999858
        },
        {
          "name": "G3",
          "midi": 55,
          "time": 42.24999999999999,
          "velocity": 0.6692913385826772,
          "duration": 0.14999999999999858
        },
        {
          "name": "G4",
          "midi": 67,
          "time": 42.24999999999999,
          "velocity": 0.5039370078740157,
          "duration": 0.14999999999999858
        },
        {
          "name": "C4",
          "midi": 60,
          "time": 42.49999999999999,
          "velocity": 0.5039370078740157,
          "duration": 0.14999999999999858
        },
        {
          "name": "G3",
          "midi": 55,
          "time": 42.49999999999999,
          "velocity": 0.6692913385826772,
          "duration": 0.14999999999999858
        },
        {
          "name": "G4",
          "midi": 67,
          "time": 42.49999999999999,
          "velocity": 0.5039370078740157,
          "duration": 0.14999999999999858
        },
        {
          "name": "C3",
          "midi": 48,
          "time": 42.49999999999999,
          "velocity": 0.6692913385826772,
          "duration": 0.14999999999999858
        },
        {
          "name": "G3",
          "midi": 55,
          "time": 42.74999999999999,
          "velocity": 0.6692913385826772,
          "duration": 0.14999999999999858
        },
        {
          "name": "G4",
          "midi": 67,
          "time": 42.74999999999999,
          "velocity": 0.5039370078740157,
          "duration": 0.14999999999999858
        },
        {
          "name": "C4",
          "midi": 60,
          "time": 42.74999999999999,
          "velocity": 0.5039370078740157,
          "duration": 0.14999999999999858
        },
        {
          "name": "C3",
          "midi": 48,
          "time": 42.74999999999999,
          "velocity": 0.6692913385826772,
          "duration": 0.14999999999999858
        },
        {
          "name": "C4",
          "midi": 60,
          "time": 42.99999999999999,
          "velocity": 0.5039370078740157,
          "duration": 0.14999999999999858
        },
        {
          "name": "G3",
          "midi": 55,
          "time": 42.99999999999999,
          "velocity": 0.6692913385826772,
          "duration": 0.14999999999999858
        },
        {
          "name": "G4",
          "midi": 67,
          "time": 42.99999999999999,
          "velocity": 0.5039370078740157,
          "duration": 0.14999999999999858
        },
        {
          "name": "C3",
          "midi": 48,
          "time": 42.99999999999999,
          "velocity": 0.6692913385826772,
          "duration": 0.14999999999999858
        },
        {
          "name": "G3",
          "midi": 55,
          "time": 43.24999999999999,
          "velocity": 0.6692913385826772,
          "duration": 0.14999999999999858
        },
        {
          "name": "C4",
          "midi": 60,
          "time": 43.24999999999999,
          "velocity": 0.5039370078740157,
          "duration": 0.14999999999999858
        },
        {
          "name": "C3",
          "midi": 48,
          "time": 43.24999999999999,
          "velocity": 0.6692913385826772,
          "duration": 0.14999999999999858
        },
        {
          "name": "G4",
          "midi": 67,
          "time": 43.24999999999999,
          "velocity": 0.5039370078740157,
          "duration": 0.14999999999999858
        },
        {
          "name": "C3",
          "midi": 48,
          "time": 43.49999999999999,
          "velocity": 0.6692913385826772,
          "duration": 0.14999999999999858
        },
        {
          "name": "G3",
          "midi": 55,
          "time": 43.49999999999999,
          "velocity": 0.6692913385826772,
          "duration": 0.14999999999999858
        },
        {
          "name": "C4",
          "midi": 60,
          "time": 43.49999999999999,
          "velocity": 0.5039370078740157,
          "duration": 0.14999999999999858
        },
        {
          "name": "G4",
          "midi": 67,
          "time": 43.49999999999999,
          "velocity": 0.5039370078740157,
          "duration": 0.14999999999999858
        },
        {
          "name": "C4",
          "midi": 60,
          "time": 43.74999999999999,
          "velocity": 0.5039370078740157,
          "duration": 0.14999999999999858
        },
        {
          "name": "C3",
          "midi": 48,
          "time": 43.74999999999999,
          "velocity": 0.6692913385826772,
          "duration": 0.14999999999999858
        },
        {
          "name": "G4",
          "midi": 67,
          "time": 43.74999999999999,
          "velocity": 0.5039370078740157,
          "duration": 0.14999999999999858
        },
        {
          "name": "G3",
          "midi": 55,
          "time": 43.74999999999999,
          "velocity": 0.6692913385826772,
          "duration": 0.14999999999999858
        },
        {
          "name": "G3",
          "midi": 55,
          "time": 43.99999999999999,
          "velocity": 0.6692913385826772,
          "duration": 3.8666666666667098
        },
        {
          "name": "D3",
          "midi": 50,
          "time": 43.99999999999999,
          "velocity": 0.6692913385826772,
          "duration": 3.8666666666667098
        },
        {
          "name": "A#3",
          "midi": 58,
          "time": 43.99999999999999,
          "velocity": 0.6692913385826772,
          "duration": 3.8666666666667098
        },
        {
          "name": "D3",
          "midi": 50,
          "time": 71.00000000000004,
          "velocity": 0.6692913385826772,
          "duration": 0.09999999999999432
        },
        {
          "name": "G2",
          "midi": 43,
          "time": 71.00000000000004,
          "velocity": 0.6692913385826772,
          "duration": 0.09999999999999432
        },
        {
          "name": "G4",
          "midi": 67,
          "time": 71.00000000000004,
          "velocity": 0.6692913385826772,
          "duration": 0.09999999999999432
        },
        {
          "name": "G3",
          "midi": 55,
          "time": 71.00000000000004,
          "velocity": 0.6692913385826772,
          "duration": 0.09999999999999432
        },
        {
          "name": "D4",
          "midi": 62,
          "time": 71.00000000000004,
          "velocity": 0.5039370078740157,
          "duration": 0.0833333333333286
        },
        {
          "name": "D3",
          "midi": 50,
          "time": 71.25000000000004,
          "velocity": 0.6692913385826772,
          "duration": 0.09999999999999432
        },
        {
          "name": "G2",
          "midi": 43,
          "time": 71.25000000000004,
          "velocity": 0.6692913385826772,
          "duration": 0.09999999999999432
        },
        {
          "name": "G4",
          "midi": 67,
          "time": 71.25000000000004,
          "velocity": 0.6692913385826772,
          "duration": 0.09999999999999432
        },
        {
          "name": "G3",
          "midi": 55,
          "time": 71.25000000000004,
          "velocity": 0.6692913385826772,
          "duration": 0.09999999999999432
        },
        {
          "name": "D4",
          "midi": 62,
          "time": 71.25000000000004,
          "velocity": 0.5039370078740157,
          "duration": 0.0833333333333286
        },
        {
          "name": "D4",
          "midi": 62,
          "time": 71.50000000000004,
          "velocity": 0.5039370078740157,
          "duration": 0.0833333333333286
        },
        {
          "name": "G3",
          "midi": 55,
          "time": 71.50000000000004,
          "velocity": 0.6692913385826772,
          "duration": 0.09999999999999432
        },
        {
          "name": "G4",
          "midi": 67,
          "time": 71.50000000000004,
          "velocity": 0.6692913385826772,
          "duration": 0.09999999999999432
        },
        {
          "name": "G2",
          "midi": 43,
          "time": 71.50000000000004,
          "velocity": 0.6692913385826772,
          "duration": 0.09999999999999432
        },
        {
          "name": "D3",
          "midi": 50,
          "time": 71.50000000000004,
          "velocity": 0.6692913385826772,
          "duration": 0.09999999999999432
        },
        {
          "name": "G2",
          "midi": 43,
          "time": 71.75000000000004,
          "velocity": 0.6692913385826772,
          "duration": 0.09999999999999432
        },
        {
          "name": "G4",
          "midi": 67,
          "time": 71.75000000000004,
          "velocity": 0.6692913385826772,
          "duration": 0.09999999999999432
        },
        {
          "name": "G3",
          "midi": 55,
          "time": 71.75000000000004,
          "velocity": 0.6692913385826772,
          "duration": 0.09999999999999432
        },
        {
          "name": "D3",
          "midi": 50,
          "time": 71.75000000000004,
          "velocity": 0.6692913385826772,
          "duration": 0.09999999999999432
        },
        {
          "name": "D4",
          "midi": 62,
          "time": 71.75000000000004,
          "velocity": 0.5039370078740157,
          "duration": 0.0833333333333286
        },
        {
          "name": "G4",
          "midi": 67,
          "time": 72.00000000000004,
          "velocity": 0.5039370078740157,
          "duration": 0.15000000000000568
        },
        {
          "name": "D3",
          "midi": 50,
          "time": 72.00000000000004,
          "velocity": 0.6692913385826772,
          "duration": 0.15000000000000568
        },
        {
          "name": "G3",
          "midi": 55,
          "time": 72.00000000000004,
          "velocity": 0.6692913385826772,
          "duration": 0.15000000000000568
        },
        {
          "name": "D4",
          "midi": 62,
          "time": 72.00000000000004,
          "velocity": 0.5039370078740157,
          "duration": 0.15000000000000568
        },
        {
          "name": "D3",
          "midi": 50,
          "time": 72.25000000000004,
          "velocity": 0.6692913385826772,
          "duration": 0.15000000000000568
        },
        {
          "name": "G4",
          "midi": 67,
          "time": 72.25000000000004,
          "velocity": 0.5039370078740157,
          "duration": 0.15000000000000568
        },
        {
          "name": "G3",
          "midi": 55,
          "time": 72.25000000000004,
          "velocity": 0.6692913385826772,
          "duration": 0.15000000000000568
        },
        {
          "name": "D4",
          "midi": 62,
          "time": 72.25000000000004,
          "velocity": 0.5039370078740157,
          "duration": 0.15000000000000568
        },
        {
          "name": "G4",
          "midi": 67,
          "time": 72.50000000000004,
          "velocity": 0.5039370078740157,
          "duration": 0.15000000000000568
        },
        {
          "name": "D4",
          "midi": 62,
          "time": 72.50000000000004,
          "velocity": 0.5039370078740157,
          "duration": 0.15000000000000568
        },
        {
          "name": "D3",
          "midi": 50,
          "time": 72.50000000000004,
          "velocity": 0.6692913385826772,
          "duration": 0.15000000000000568
        },
        {
          "name": "G3",
          "midi": 55,
          "time": 72.50000000000004,
          "velocity": 0.6692913385826772,
          "duration": 0.15000000000000568
        },
        {
          "name": "G3",
          "midi": 55,
          "time": 72.75000000000004,
          "velocity": 0.6692913385826772,
          "duration": 0.15000000000000568
        },
        {
          "name": "D3",
          "midi": 50,
          "time": 72.75000000000004,
          "velocity": 0.6692913385826772,
          "duration": 0.15000000000000568
        },
        {
          "name": "G4",
          "midi": 67,
          "time": 72.75000000000004,
          "velocity": 0.5039370078740157,
          "duration": 0.15000000000000568
        },
        {
          "name": "D4",
          "midi": 62,
          "time": 72.75000000000004,
          "velocity": 0.5039370078740157,
          "duration": 0.15000000000000568
        },
        {
          "name": "D4",
          "midi": 62,
          "time": 73.00000000000004,
          "velocity": 0.5039370078740157,
          "duration": 0.15000000000000568
        },
        {
          "name": "G3",
          "midi": 55,
          "time": 73.00000000000004,
          "velocity": 0.6692913385826772,
          "duration": 0.15000000000000568
        },
        {
          "name": "D3",
          "midi": 50,
          "time": 73.00000000000004,
          "velocity": 0.6692913385826772,
          "duration": 0.15000000000000568
        },
        {
          "name": "G4",
          "midi": 67,
          "time": 73.00000000000004,
          "velocity": 0.5039370078740157,
          "duration": 0.15000000000000568
        },
        {
          "name": "D3",
          "midi": 50,
          "time": 73.25000000000004,
          "velocity": 0.6692913385826772,
          "duration": 0.15000000000000568
        },
        {
          "name": "G4",
          "midi": 67,
          "time": 73.25000000000004,
          "velocity": 0.5039370078740157,
          "duration": 0.15000000000000568
        },
        {
          "name": "D4",
          "midi": 62,
          "time": 73.25000000000004,
          "velocity": 0.5039370078740157,
          "duration": 0.15000000000000568
        },
        {
          "name": "G3",
          "midi": 55,
          "time": 73.25000000000004,
          "velocity": 0.6692913385826772,
          "duration": 0.15000000000000568
        },
        {
          "name": "G4",
          "midi": 67,
          "time": 73.50000000000004,
          "velocity": 0.5039370078740157,
          "duration": 0.15000000000000568
        },
        {
          "name": "G3",
          "midi": 55,
          "time": 73.50000000000004,
          "velocity": 0.6692913385826772,
          "duration": 0.15000000000000568
        },
        {
          "name": "D3",
          "midi": 50,
          "time": 73.50000000000004,
          "velocity": 0.6692913385826772,
          "duration": 0.15000000000000568
        },
        {
          "name": "D4",
          "midi": 62,
          "time": 73.50000000000004,
          "velocity": 0.5039370078740157,
          "duration": 0.15000000000000568
        },
        {
          "name": "D3",
          "midi": 50,
          "time": 73.75000000000004,
          "velocity": 0.6692913385826772,
          "duration": 0.15000000000000568
        },
        {
          "name": "G4",
          "midi": 67,
          "time": 73.75000000000004,
          "velocity": 0.5039370078740157,
          "duration": 0.15000000000000568
        },
        {
          "name": "D4",
          "midi": 62,
          "time": 73.75000000000004,
          "velocity": 0.5039370078740157,
          "duration": 0.15000000000000568
        },
        {
          "name": "G3",
          "midi": 55,
          "time": 73.75000000000004,
          "velocity": 0.6692913385826772,
          "duration": 0.15000000000000568
        },
        {
          "name": "A#4",
          "midi": 70,
          "time": 74.00000000000004,
          "velocity": 0.5039370078740157,
          "duration": 0.15000000000000568
        },
        {
          "name": "F4",
          "midi": 65,
          "time": 74.00000000000004,
          "velocity": 0.5039370078740157,
          "duration": 0.15000000000000568
        },
        {
          "name": "A#3",
          "midi": 58,
          "time": 74.00000000000004,
          "velocity": 0.6692913385826772,
          "duration": 0.15000000000000568
        },
        {
          "name": "F3",
          "midi": 53,
          "time": 74.00000000000004,
          "velocity": 0.6692913385826772,
          "duration": 0.15000000000000568
        },
        {
          "name": "A#3",
          "midi": 58,
          "time": 74.25000000000004,
          "velocity": 0.6692913385826772,
          "duration": 0.15000000000000568
        },
        {
          "name": "F3",
          "midi": 53,
          "time": 74.25000000000004,
          "velocity": 0.6692913385826772,
          "duration": 0.15000000000000568
        },
        {
          "name": "A#4",
          "midi": 70,
          "time": 74.25000000000004,
          "velocity": 0.5039370078740157,
          "duration": 0.15000000000000568
        },
        {
          "name": "F4",
          "midi": 65,
          "time": 74.25000000000004,
          "velocity": 0.5039370078740157,
          "duration": 0.15000000000000568
        },
        {
          "name": "A#4",
          "midi": 70,
          "time": 74.50000000000004,
          "velocity": 0.5039370078740157,
          "duration": 0.15000000000000568
        },
        {
          "name": "F3",
          "midi": 53,
          "time": 74.50000000000004,
          "velocity": 0.6692913385826772,
          "duration": 0.15000000000000568
        },
        {
          "name": "F4",
          "midi": 65,
          "time": 74.50000000000004,
          "velocity": 0.5039370078740157,
          "duration": 0.15000000000000568
        },
        {
          "name": "A#3",
          "midi": 58,
          "time": 74.50000000000004,
          "velocity": 0.6692913385826772,
          "duration": 0.15000000000000568
        },
        {
          "name": "A#4",
          "midi": 70,
          "time": 74.75000000000004,
          "velocity": 0.5039370078740157,
          "duration": 0.15000000000000568
        },
        {
          "name": "F3",
          "midi": 53,
          "time": 74.75000000000004,
          "velocity": 0.6692913385826772,
          "duration": 0.15000000000000568
        },
        {
          "name": "A#3",
          "midi": 58,
          "time": 74.75000000000004,
          "velocity": 0.6692913385826772,
          "duration": 0.15000000000000568
        },
        {
          "name": "F4",
          "midi": 65,
          "time": 74.75000000000004,
          "velocity": 0.5039370078740157,
          "duration": 0.15000000000000568
        },
        {
          "name": "F3",
          "midi": 53,
          "time": 75.00000000000004,
          "velocity": 0.6692913385826772,
          "duration": 0.15000000000000568
        },
        {
          "name": "A#4",
          "midi": 70,
          "time": 75.00000000000004,
          "velocity": 0.5039370078740157,
          "duration": 0.15000000000000568
        },
        {
          "name": "F4",
          "midi": 65,
          "time": 75.00000000000004,
          "velocity": 0.5039370078740157,
          "duration": 0.15000000000000568
        },
        {
          "name": "A#3",
          "midi": 58,
          "time": 75.00000000000004,
          "velocity": 0.6692913385826772,
          "duration": 0.15000000000000568
        },
        {
          "name": "A#4",
          "midi": 70,
          "time": 75.25000000000004,
          "velocity": 0.5039370078740157,
          "duration": 0.15000000000000568
        },
        {
          "name": "F4",
          "midi": 65,
          "time": 75.25000000000004,
          "velocity": 0.5039370078740157,
          "duration": 0.15000000000000568
        },
        {
          "name": "A#3",
          "midi": 58,
          "time": 75.25000000000004,
          "velocity": 0.6692913385826772,
          "duration": 0.15000000000000568
        },
        {
          "name": "F3",
          "midi": 53,
          "time": 75.25000000000004,
          "velocity": 0.6692913385826772,
          "duration": 0.15000000000000568
        },
        {
          "name": "F3",
          "midi": 53,
          "time": 75.50000000000004,
          "velocity": 0.6692913385826772,
          "duration": 0.15000000000000568
        },
        {
          "name": "A#3",
          "midi": 58,
          "time": 75.50000000000004,
          "velocity": 0.6692913385826772,
          "duration": 0.15000000000000568
        },
        {
          "name": "F4",
          "midi": 65,
          "time": 75.50000000000004,
          "velocity": 0.5039370078740157,
          "duration": 0.15000000000000568
        },
        {
          "name": "A#4",
          "midi": 70,
          "time": 75.50000000000004,
          "velocity": 0.5039370078740157,
          "duration": 0.15000000000000568
        },
        {
          "name": "F3",
          "midi": 53,
          "time": 75.75000000000004,
          "velocity": 0.6692913385826772,
          "duration": 0.15000000000000568
        },
        {
          "name": "A#4",
          "midi": 70,
          "time": 75.75000000000004,
          "velocity": 0.5039370078740157,
          "duration": 0.15000000000000568
        },
        {
          "name": "F4",
          "midi": 65,
          "time": 75.75000000000004,
          "velocity": 0.5039370078740157,
          "duration": 0.15000000000000568
        },
        {
          "name": "A#3",
          "midi": 58,
          "time": 75.75000000000004,
          "velocity": 0.6692913385826772,
          "duration": 0.15000000000000568
        },
        {
          "name": "C3",
          "midi": 48,
          "time": 76.00000000000004,
          "velocity": 0.6692913385826772,
          "duration": 0.15000000000000568
        },
        {
          "name": "C4",
          "midi": 60,
          "time": 76.00000000000004,
          "velocity": 0.5039370078740157,
          "duration": 0.15000000000000568
        },
        {
          "name": "F3",
          "midi": 53,
          "time": 76.00000000000004,
          "velocity": 0.6692913385826772,
          "duration": 0.15000000000000568
        },
        {
          "name": "F4",
          "midi": 65,
          "time": 76.00000000000004,
          "velocity": 0.5039370078740157,
          "duration": 0.15000000000000568
        },
        {
          "name": "C4",
          "midi": 60,
          "time": 76.25000000000004,
          "velocity": 0.5039370078740157,
          "duration": 0.15000000000000568
        },
        {
          "name": "F4",
          "midi": 65,
          "time": 76.25000000000004,
          "velocity": 0.5039370078740157,
          "duration": 0.15000000000000568
        },
        {
          "name": "C3",
          "midi": 48,
          "time": 76.25000000000004,
          "velocity": 0.6692913385826772,
          "duration": 0.15000000000000568
        },
        {
          "name": "F3",
          "midi": 53,
          "time": 76.25000000000004,
          "velocity": 0.6692913385826772,
          "duration": 0.15000000000000568
        },
        {
          "name": "C3",
          "midi": 48,
          "time": 76.50000000000004,
          "velocity": 0.6692913385826772,
          "duration": 0.15000000000000568
        },
        {
          "name": "F3",
          "midi": 53,
          "time": 76.50000000000004,
          "velocity": 0.6692913385826772,
          "duration": 0.15000000000000568
        },
        {
          "name": "C4",
          "midi": 60,
          "time": 76.50000000000004,
          "velocity": 0.5039370078740157,
          "duration": 0.15000000000000568
        },
        {
          "name": "F4",
          "midi": 65,
          "time": 76.50000000000004,
          "velocity": 0.5039370078740157,
          "duration": 0.15000000000000568
        },
        {
          "name": "F4",
          "midi": 65,
          "time": 76.75000000000004,
          "velocity": 0.5039370078740157,
          "duration": 0.15000000000000568
        },
        {
          "name": "F3",
          "midi": 53,
          "time": 76.75000000000004,
          "velocity": 0.6692913385826772,
          "duration": 0.15000000000000568
        },
        {
          "name": "C4",
          "midi": 60,
          "time": 76.75000000000004,
          "velocity": 0.5039370078740157,
          "duration": 0.15000000000000568
        },
        {
          "name": "C3",
          "midi": 48,
          "time": 76.75000000000004,
          "velocity": 0.6692913385826772,
          "duration": 0.15000000000000568
        },
        {
          "name": "C3",
          "midi": 48,
          "time": 77.00000000000004,
          "velocity": 0.6692913385826772,
          "duration": 0.15000000000000568
        },
        {
          "name": "C4",
          "midi": 60,
          "time": 77.00000000000004,
          "velocity": 0.5039370078740157,
          "duration": 0.15000000000000568
        },
        {
          "name": "F4",
          "midi": 65,
          "time": 77.00000000000004,
          "velocity": 0.5039370078740157,
          "duration": 0.15000000000000568
        },
        {
          "name": "F3",
          "midi": 53,
          "time": 77.00000000000004,
          "velocity": 0.6692913385826772,
          "duration": 0.15000000000000568
        },
        {
          "name": "F4",
          "midi": 65,
          "time": 77.25000000000004,
          "velocity": 0.5039370078740157,
          "duration": 0.15000000000000568
        },
        {
          "name": "C4",
          "midi": 60,
          "time": 77.25000000000004,
          "velocity": 0.5039370078740157,
          "duration": 0.15000000000000568
        },
        {
          "name": "C3",
          "midi": 48,
          "time": 77.25000000000004,
          "velocity": 0.6692913385826772,
          "duration": 0.15000000000000568
        },
        {
          "name": "F3",
          "midi": 53,
          "time": 77.25000000000004,
          "velocity": 0.6692913385826772,
          "duration": 0.15000000000000568
        },
        {
          "name": "F3",
          "midi": 53,
          "time": 77.50000000000004,
          "velocity": 0.6692913385826772,
          "duration": 0.15000000000000568
        },
        {
          "name": "F4",
          "midi": 65,
          "time": 77.50000000000004,
          "velocity": 0.5039370078740157,
          "duration": 0.15000000000000568
        },
        {
          "name": "C3",
          "midi": 48,
          "time": 77.50000000000004,
          "velocity": 0.6692913385826772,
          "duration": 0.15000000000000568
        },
        {
          "name": "C4",
          "midi": 60,
          "time": 77.50000000000004,
          "velocity": 0.5039370078740157,
          "duration": 0.15000000000000568
        },
        {
          "name": "C4",
          "midi": 60,
          "time": 77.75000000000004,
          "velocity": 0.5039370078740157,
          "duration": 0.15000000000000568
        },
        {
          "name": "F4",
          "midi": 65,
          "time": 77.75000000000004,
          "velocity": 0.5039370078740157,
          "duration": 0.15000000000000568
        },
        {
          "name": "F3",
          "midi": 53,
          "time": 77.75000000000004,
          "velocity": 0.6692913385826772,
          "duration": 0.15000000000000568
        },
        {
          "name": "C3",
          "midi": 48,
          "time": 77.75000000000004,
          "velocity": 0.6692913385826772,
          "duration": 0.15000000000000568
        },
        {
          "name": "G4",
          "midi": 67,
          "time": 78.00000000000004,
          "velocity": 0.5039370078740157,
          "duration": 0.15000000000000568
        },
        {
          "name": "C4",
          "midi": 60,
          "time": 78.00000000000004,
          "velocity": 0.5039370078740157,
          "duration": 0.15000000000000568
        },
        {
          "name": "C3",
          "midi": 48,
          "time": 78.00000000000004,
          "velocity": 0.6692913385826772,
          "duration": 0.15000000000000568
        },
        {
          "name": "G3",
          "midi": 55,
          "time": 78.00000000000004,
          "velocity": 0.6692913385826772,
          "duration": 0.15000000000000568
        },
        {
          "name": "C3",
          "midi": 48,
          "time": 78.25000000000004,
          "velocity": 0.6692913385826772,
          "duration": 0.15000000000000568
        },
        {
          "name": "G3",
          "midi": 55,
          "time": 78.25000000000004,
          "velocity": 0.6692913385826772,
          "duration": 0.15000000000000568
        },
        {
          "name": "G4",
          "midi": 67,
          "time": 78.25000000000004,
          "velocity": 0.5039370078740157,
          "duration": 0.15000000000000568
        },
        {
          "name": "C4",
          "midi": 60,
          "time": 78.25000000000004,
          "velocity": 0.5039370078740157,
          "duration": 0.15000000000000568
        },
        {
          "name": "G4",
          "midi": 67,
          "time": 78.50000000000004,
          "velocity": 0.5039370078740157,
          "duration": 0.15000000000000568
        },
        {
          "name": "C4",
          "midi": 60,
          "time": 78.50000000000004,
          "velocity": 0.5039370078740157,
          "duration": 0.15000000000000568
        },
        {
          "name": "C3",
          "midi": 48,
          "time": 78.50000000000004,
          "velocity": 0.6692913385826772,
          "duration": 0.15000000000000568
        },
        {
          "name": "G3",
          "midi": 55,
          "time": 78.50000000000004,
          "velocity": 0.6692913385826772,
          "duration": 0.15000000000000568
        },
        {
          "name": "G4",
          "midi": 67,
          "time": 78.75000000000004,
          "velocity": 0.5039370078740157,
          "duration": 0.15000000000000568
        },
        {
          "name": "G3",
          "midi": 55,
          "time": 78.75000000000004,
          "velocity": 0.6692913385826772,
          "duration": 0.15000000000000568
        },
        {
          "name": "C3",
          "midi": 48,
          "time": 78.75000000000004,
          "velocity": 0.6692913385826772,
          "duration": 0.15000000000000568
        },
        {
          "name": "C4",
          "midi": 60,
          "time": 78.75000000000004,
          "velocity": 0.5039370078740157,
          "duration": 0.15000000000000568
        },
        {
          "name": "G4",
          "midi": 67,
          "time": 79.00000000000004,
          "velocity": 0.5039370078740157,
          "duration": 0.15000000000000568
        },
        {
          "name": "C4",
          "midi": 60,
          "time": 79.00000000000004,
          "velocity": 0.5039370078740157,
          "duration": 0.15000000000000568
        },
        {
          "name": "C3",
          "midi": 48,
          "time": 79.00000000000004,
          "velocity": 0.6692913385826772,
          "duration": 0.15000000000000568
        },
        {
          "name": "G3",
          "midi": 55,
          "time": 79.00000000000004,
          "velocity": 0.6692913385826772,
          "duration": 0.15000000000000568
        },
        {
          "name": "G3",
          "midi": 55,
          "time": 79.25000000000004,
          "velocity": 0.6692913385826772,
          "duration": 0.15000000000000568
        },
        {
          "name": "C3",
          "midi": 48,
          "time": 79.25000000000004,
          "velocity": 0.6692913385826772,
          "duration": 0.15000000000000568
        },
        {
          "name": "C4",
          "midi": 60,
          "time": 79.25000000000004,
          "velocity": 0.5039370078740157,
          "duration": 0.15000000000000568
        },
        {
          "name": "G4",
          "midi": 67,
          "time": 79.25000000000004,
          "velocity": 0.5039370078740157,
          "duration": 0.15000000000000568
        },
        {
          "name": "C3",
          "midi": 48,
          "time": 79.50000000000004,
          "velocity": 0.6692913385826772,
          "duration": 0.15000000000000568
        },
        {
          "name": "G4",
          "midi": 67,
          "time": 79.50000000000004,
          "velocity": 0.5039370078740157,
          "duration": 0.15000000000000568
        },
        {
          "name": "C4",
          "midi": 60,
          "time": 79.50000000000004,
          "velocity": 0.5039370078740157,
          "duration": 0.15000000000000568
        },
        {
          "name": "G3",
          "midi": 55,
          "time": 79.50000000000004,
          "velocity": 0.6692913385826772,
          "duration": 0.15000000000000568
        },
        {
          "name": "C4",
          "midi": 60,
          "time": 79.75000000000004,
          "velocity": 0.5039370078740157,
          "duration": 0.15000000000000568
        },
        {
          "name": "G3",
          "midi": 55,
          "time": 79.75000000000004,
          "velocity": 0.6692913385826772,
          "duration": 0.15000000000000568
        },
        {
          "name": "G4",
          "midi": 67,
          "time": 79.75000000000004,
          "velocity": 0.5039370078740157,
          "duration": 0.15000000000000568
        },
        {
          "name": "C3",
          "midi": 48,
          "time": 79.75000000000004,
          "velocity": 0.6692913385826772,
          "duration": 0.15000000000000568
        },
        {
          "name": "G3",
          "midi": 55,
          "time": 80.00000000000004,
          "velocity": 0.6692913385826772,
          "duration": 0.15000000000000568
        },
        {
          "name": "D4",
          "midi": 62,
          "time": 80.00000000000004,
          "velocity": 0.5039370078740157,
          "duration": 0.15000000000000568
        },
        {
          "name": "D3",
          "midi": 50,
          "time": 80.00000000000004,
          "velocity": 0.6692913385826772,
          "duration": 0.15000000000000568
        },
        {
          "name": "G4",
          "midi": 67,
          "time": 80.00000000000004,
          "velocity": 0.5039370078740157,
          "duration": 0.15000000000000568
        },
        {
          "name": "G4",
          "midi": 67,
          "time": 80.25000000000004,
          "velocity": 0.5039370078740157,
          "duration": 0.15000000000000568
        },
        {
          "name": "D3",
          "midi": 50,
          "time": 80.25000000000004,
          "velocity": 0.6692913385826772,
          "duration": 0.15000000000000568
        },
        {
          "name": "G3",
          "midi": 55,
          "time": 80.25000000000004,
          "velocity": 0.6692913385826772,
          "duration": 0.15000000000000568
        },
        {
          "name": "D4",
          "midi": 62,
          "time": 80.25000000000004,
          "velocity": 0.5039370078740157,
          "duration": 0.15000000000000568
        },
        {
          "name": "D3",
          "midi": 50,
          "time": 80.50000000000004,
          "velocity": 0.6692913385826772,
          "duration": 0.15000000000000568
        },
        {
          "name": "G3",
          "midi": 55,
          "time": 80.50000000000004,
          "velocity": 0.6692913385826772,
          "duration": 0.15000000000000568
        },
        {
          "name": "D4",
          "midi": 62,
          "time": 80.50000000000004,
          "velocity": 0.5039370078740157,
          "duration": 0.15000000000000568
        },
        {
          "name": "G4",
          "midi": 67,
          "time": 80.50000000000004,
          "velocity": 0.5039370078740157,
          "duration": 0.15000000000000568
        },
        {
          "name": "D3",
          "midi": 50,
          "time": 80.75000000000004,
          "velocity": 0.6692913385826772,
          "duration": 0.15000000000000568
        },
        {
          "name": "D4",
          "midi": 62,
          "time": 80.75000000000004,
          "velocity": 0.5039370078740157,
          "duration": 0.15000000000000568
        },
        {
          "name": "G4",
          "midi": 67,
          "time": 80.75000000000004,
          "velocity": 0.5039370078740157,
          "duration": 0.15000000000000568
        },
        {
          "name": "G3",
          "midi": 55,
          "time": 80.75000000000004,
          "velocity": 0.6692913385826772,
          "duration": 0.15000000000000568
        },
        {
          "name": "G3",
          "midi": 55,
          "time": 81.00000000000004,
          "velocity": 0.6692913385826772,
          "duration": 0.15000000000000568
        },
        {
          "name": "G4",
          "midi": 67,
          "time": 81.00000000000004,
          "velocity": 0.5039370078740157,
          "duration": 0.15000000000000568
        },
        {
          "name": "D4",
          "midi": 62,
          "time": 81.00000000000004,
          "velocity": 0.5039370078740157,
          "duration": 0.15000000000000568
        },
        {
          "name": "D3",
          "midi": 50,
          "time": 81.00000000000004,
          "velocity": 0.6692913385826772,
          "duration": 0.15000000000000568
        },
        {
          "name": "G4",
          "midi": 67,
          "time": 81.25000000000004,
          "velocity": 0.5039370078740157,
          "duration": 0.15000000000000568
        },
        {
          "name": "D3",
          "midi": 50,
          "time": 81.25000000000004,
          "velocity": 0.6692913385826772,
          "duration": 0.15000000000000568
        },
        {
          "name": "D4",
          "midi": 62,
          "time": 81.25000000000004,
          "velocity": 0.5039370078740157,
          "duration": 0.15000000000000568
        },
        {
          "name": "G3",
          "midi": 55,
          "time": 81.25000000000004,
          "velocity": 0.6692913385826772,
          "duration": 0.15000000000000568
        },
        {
          "name": "G3",
          "midi": 55,
          "time": 81.50000000000004,
          "velocity": 0.6692913385826772,
          "duration": 0.15000000000000568
        },
        {
          "name": "D3",
          "midi": 50,
          "time": 81.50000000000004,
          "velocity": 0.6692913385826772,
          "duration": 0.15000000000000568
        },
        {
          "name": "D4",
          "midi": 62,
          "time": 81.50000000000004,
          "velocity": 0.5039370078740157,
          "duration": 0.15000000000000568
        },
        {
          "name": "G4",
          "midi": 67,
          "time": 81.50000000000004,
          "velocity": 0.5039370078740157,
          "duration": 0.15000000000000568
        },
        {
          "name": "D3",
          "midi": 50,
          "time": 81.75000000000004,
          "velocity": 0.6692913385826772,
          "duration": 0.15000000000000568
        },
        {
          "name": "D4",
          "midi": 62,
          "time": 81.75000000000004,
          "velocity": 0.5039370078740157,
          "duration": 0.15000000000000568
        },
        {
          "name": "G3",
          "midi": 55,
          "time": 81.75000000000004,
          "velocity": 0.6692913385826772,
          "duration": 0.15000000000000568
        },
        {
          "name": "G4",
          "midi": 67,
          "time": 81.75000000000004,
          "velocity": 0.5039370078740157,
          "duration": 0.15000000000000568
        },
        {
          "name": "F3",
          "midi": 53,
          "time": 82.00000000000004,
          "velocity": 0.6692913385826772,
          "duration": 0.15000000000000568
        },
        {
          "name": "A#3",
          "midi": 58,
          "time": 82.00000000000004,
          "velocity": 0.6692913385826772,
          "duration": 0.15000000000000568
        },
        {
          "name": "F4",
          "midi": 65,
          "time": 82.00000000000004,
          "velocity": 0.5039370078740157,
          "duration": 0.15000000000000568
        },
        {
          "name": "A#4",
          "midi": 70,
          "time": 82.00000000000004,
          "velocity": 0.5039370078740157,
          "duration": 0.15000000000000568
        },
        {
          "name": "A#4",
          "midi": 70,
          "time": 82.25000000000004,
          "velocity": 0.5039370078740157,
          "duration": 0.15000000000000568
        },
        {
          "name": "A#3",
          "midi": 58,
          "time": 82.25000000000004,
          "velocity": 0.6692913385826772,
          "duration": 0.15000000000000568
        },
        {
          "name": "F3",
          "midi": 53,
          "time": 82.25000000000004,
          "velocity": 0.6692913385826772,
          "duration": 0.15000000000000568
        },
        {
          "name": "F4",
          "midi": 65,
          "time": 82.25000000000004,
          "velocity": 0.5039370078740157,
          "duration": 0.15000000000000568
        },
        {
          "name": "F4",
          "midi": 65,
          "time": 82.50000000000004,
          "velocity": 0.5039370078740157,
          "duration": 0.15000000000000568
        },
        {
          "name": "A#3",
          "midi": 58,
          "time": 82.50000000000004,
          "velocity": 0.6692913385826772,
          "duration": 0.15000000000000568
        },
        {
          "name": "F3",
          "midi": 53,
          "time": 82.50000000000004,
          "velocity": 0.6692913385826772,
          "duration": 0.15000000000000568
        },
        {
          "name": "A#4",
          "midi": 70,
          "time": 82.50000000000004,
          "velocity": 0.5039370078740157,
          "duration": 0.15000000000000568
        },
        {
          "name": "A#3",
          "midi": 58,
          "time": 82.75000000000004,
          "velocity": 0.6692913385826772,
          "duration": 0.15000000000000568
        },
        {
          "name": "F4",
          "midi": 65,
          "time": 82.75000000000004,
          "velocity": 0.5039370078740157,
          "duration": 0.15000000000000568
        },
        {
          "name": "A#4",
          "midi": 70,
          "time": 82.75000000000004,
          "velocity": 0.5039370078740157,
          "duration": 0.15000000000000568
        },
        {
          "name": "F3",
          "midi": 53,
          "time": 82.75000000000004,
          "velocity": 0.6692913385826772,
          "duration": 0.15000000000000568
        },
        {
          "name": "A#3",
          "midi": 58,
          "time": 83.00000000000004,
          "velocity": 0.6692913385826772,
          "duration": 0.15000000000000568
        },
        {
          "name": "F4",
          "midi": 65,
          "time": 83.00000000000004,
          "velocity": 0.5039370078740157,
          "duration": 0.15000000000000568
        },
        {
          "name": "F3",
          "midi": 53,
          "time": 83.00000000000004,
          "velocity": 0.6692913385826772,
          "duration": 0.15000000000000568
        },
        {
          "name": "A#4",
          "midi": 70,
          "time": 83.00000000000004,
          "velocity": 0.5039370078740157,
          "duration": 0.15000000000000568
        },
        {
          "name": "A#3",
          "midi": 58,
          "time": 83.25000000000004,
          "velocity": 0.6692913385826772,
          "duration": 0.15000000000000568
        },
        {
          "name": "A#4",
          "midi": 70,
          "time": 83.25000000000004,
          "velocity": 0.5039370078740157,
          "duration": 0.15000000000000568
        },
        {
          "name": "F3",
          "midi": 53,
          "time": 83.25000000000004,
          "velocity": 0.6692913385826772,
          "duration": 0.15000000000000568
        },
        {
          "name": "F4",
          "midi": 65,
          "time": 83.25000000000004,
          "velocity": 0.5039370078740157,
          "duration": 0.15000000000000568
        },
        {
          "name": "A#3",
          "midi": 58,
          "time": 83.50000000000004,
          "velocity": 0.6692913385826772,
          "duration": 0.15000000000000568
        },
        {
          "name": "F4",
          "midi": 65,
          "time": 83.50000000000004,
          "velocity": 0.5039370078740157,
          "duration": 0.15000000000000568
        },
        {
          "name": "F3",
          "midi": 53,
          "time": 83.50000000000004,
          "velocity": 0.6692913385826772,
          "duration": 0.15000000000000568
        },
        {
          "name": "A#4",
          "midi": 70,
          "time": 83.50000000000004,
          "velocity": 0.5039370078740157,
          "duration": 0.15000000000000568
        },
        {
          "name": "F4",
          "midi": 65,
          "time": 83.75000000000004,
          "velocity": 0.5039370078740157,
          "duration": 0.15000000000000568
        },
        {
          "name": "A#4",
          "midi": 70,
          "time": 83.75000000000004,
          "velocity": 0.5039370078740157,
          "duration": 0.15000000000000568
        },
        {
          "name": "F3",
          "midi": 53,
          "time": 83.75000000000004,
          "velocity": 0.6692913385826772,
          "duration": 0.15000000000000568
        },
        {
          "name": "A#3",
          "midi": 58,
          "time": 83.75000000000004,
          "velocity": 0.6692913385826772,
          "duration": 0.15000000000000568
        },
        {
          "name": "C3",
          "midi": 48,
          "time": 84.00000000000004,
          "velocity": 0.6692913385826772,
          "duration": 0.15000000000000568
        },
        {
          "name": "F3",
          "midi": 53,
          "time": 84.00000000000004,
          "velocity": 0.6692913385826772,
          "duration": 0.15000000000000568
        },
        {
          "name": "C4",
          "midi": 60,
          "time": 84.00000000000004,
          "velocity": 0.5039370078740157,
          "duration": 0.15000000000000568
        },
        {
          "name": "F4",
          "midi": 65,
          "time": 84.00000000000004,
          "velocity": 0.5039370078740157,
          "duration": 0.15000000000000568
        },
        {
          "name": "F4",
          "midi": 65,
          "time": 84.25000000000004,
          "velocity": 0.5039370078740157,
          "duration": 0.15000000000000568
        },
        {
          "name": "C4",
          "midi": 60,
          "time": 84.25000000000004,
          "velocity": 0.5039370078740157,
          "duration": 0.15000000000000568
        },
        {
          "name": "C3",
          "midi": 48,
          "time": 84.25000000000004,
          "velocity": 0.6692913385826772,
          "duration": 0.15000000000000568
        },
        {
          "name": "F3",
          "midi": 53,
          "time": 84.25000000000004,
          "velocity": 0.6692913385826772,
          "duration": 0.15000000000000568
        },
        {
          "name": "C3",
          "midi": 48,
          "time": 84.50000000000004,
          "velocity": 0.6692913385826772,
          "duration": 0.15000000000000568
        },
        {
          "name": "F3",
          "midi": 53,
          "time": 84.50000000000004,
          "velocity": 0.6692913385826772,
          "duration": 0.15000000000000568
        },
        {
          "name": "C4",
          "midi": 60,
          "time": 84.50000000000004,
          "velocity": 0.5039370078740157,
          "duration": 0.15000000000000568
        },
        {
          "name": "F4",
          "midi": 65,
          "time": 84.50000000000004,
          "velocity": 0.5039370078740157,
          "duration": 0.15000000000000568
        },
        {
          "name": "C4",
          "midi": 60,
          "time": 84.75000000000004,
          "velocity": 0.5039370078740157,
          "duration": 0.15000000000000568
        },
        {
          "name": "F3",
          "midi": 53,
          "time": 84.75000000000004,
          "velocity": 0.6692913385826772,
          "duration": 0.15000000000000568
        },
        {
          "name": "C3",
          "midi": 48,
          "time": 84.75000000000004,
          "velocity": 0.6692913385826772,
          "duration": 0.15000000000000568
        },
        {
          "name": "F4",
          "midi": 65,
          "time": 84.75000000000004,
          "velocity": 0.5039370078740157,
          "duration": 0.15000000000000568
        },
        {
          "name": "F4",
          "midi": 65,
          "time": 85.00000000000004,
          "velocity": 0.5039370078740157,
          "duration": 0.15000000000000568
        },
        {
          "name": "F3",
          "midi": 53,
          "time": 85.00000000000004,
          "velocity": 0.6692913385826772,
          "duration": 0.15000000000000568
        },
        {
          "name": "C4",
          "midi": 60,
          "time": 85.00000000000004,
          "velocity": 0.5039370078740157,
          "duration": 0.15000000000000568
        },
        {
          "name": "C3",
          "midi": 48,
          "time": 85.00000000000004,
          "velocity": 0.6692913385826772,
          "duration": 0.15000000000000568
        },
        {
          "name": "F3",
          "midi": 53,
          "time": 85.25000000000004,
          "velocity": 0.6692913385826772,
          "duration": 0.15000000000000568
        },
        {
          "name": "F4",
          "midi": 65,
          "time": 85.25000000000004,
          "velocity": 0.5039370078740157,
          "duration": 0.15000000000000568
        },
        {
          "name": "C4",
          "midi": 60,
          "time": 85.25000000000004,
          "velocity": 0.5039370078740157,
          "duration": 0.15000000000000568
        },
        {
          "name": "C3",
          "midi": 48,
          "time": 85.25000000000004,
          "velocity": 0.6692913385826772,
          "duration": 0.15000000000000568
        },
        {
          "name": "F4",
          "midi": 65,
          "time": 85.50000000000004,
          "velocity": 0.5039370078740157,
          "duration": 0.15000000000000568
        },
        {
          "name": "F3",
          "midi": 53,
          "time": 85.50000000000004,
          "velocity": 0.6692913385826772,
          "duration": 0.15000000000000568
        },
        {
          "name": "C4",
          "midi": 60,
          "time": 85.50000000000004,
          "velocity": 0.5039370078740157,
          "duration": 0.15000000000000568
        },
        {
          "name": "C3",
          "midi": 48,
          "time": 85.50000000000004,
          "velocity": 0.6692913385826772,
          "duration": 0.15000000000000568
        },
        {
          "name": "C4",
          "midi": 60,
          "time": 85.75000000000004,
          "velocity": 0.5039370078740157,
          "duration": 0.15000000000000568
        },
        {
          "name": "C3",
          "midi": 48,
          "time": 85.75000000000004,
          "velocity": 0.6692913385826772,
          "duration": 0.15000000000000568
        },
        {
          "name": "F3",
          "midi": 53,
          "time": 85.75000000000004,
          "velocity": 0.6692913385826772,
          "duration": 0.15000000000000568
        },
        {
          "name": "F4",
          "midi": 65,
          "time": 85.75000000000004,
          "velocity": 0.5039370078740157,
          "duration": 0.15000000000000568
        },
        {
          "name": "C3",
          "midi": 48,
          "time": 86.00000000000004,
          "velocity": 0.6692913385826772,
          "duration": 0.15000000000000568
        },
        {
          "name": "G4",
          "midi": 67,
          "time": 86.00000000000004,
          "velocity": 0.5039370078740157,
          "duration": 0.15000000000000568
        },
        {
          "name": "C4",
          "midi": 60,
          "time": 86.00000000000004,
          "velocity": 0.5039370078740157,
          "duration": 0.15000000000000568
        },
        {
          "name": "G3",
          "midi": 55,
          "time": 86.00000000000004,
          "velocity": 0.6692913385826772,
          "duration": 0.15000000000000568
        },
        {
          "name": "G3",
          "midi": 55,
          "time": 86.25000000000004,
          "velocity": 0.6692913385826772,
          "duration": 0.15000000000000568
        },
        {
          "name": "C3",
          "midi": 48,
          "time": 86.25000000000004,
          "velocity": 0.6692913385826772,
          "duration": 0.15000000000000568
        },
        {
          "name": "C4",
          "midi": 60,
          "time": 86.25000000000004,
          "velocity": 0.5039370078740157,
          "duration": 0.15000000000000568
        },
        {
          "name": "G4",
          "midi": 67,
          "time": 86.25000000000004,
          "velocity": 0.5039370078740157,
          "duration": 0.15000000000000568
        },
        {
          "name": "C3",
          "midi": 48,
          "time": 86.50000000000004,
          "velocity": 0.6692913385826772,
          "duration": 0.15000000000000568
        },
        {
          "name": "G4",
          "midi": 67,
          "time": 86.50000000000004,
          "velocity": 0.5039370078740157,
          "duration": 0.15000000000000568
        },
        {
          "name": "C4",
          "midi": 60,
          "time": 86.50000000000004,
          "velocity": 0.5039370078740157,
          "duration": 0.15000000000000568
        },
        {
          "name": "G3",
          "midi": 55,
          "time": 86.50000000000004,
          "velocity": 0.6692913385826772,
          "duration": 0.15000000000000568
        },
        {
          "name": "G3",
          "midi": 55,
          "time": 86.75000000000004,
          "velocity": 0.6692913385826772,
          "duration": 0.15000000000000568
        },
        {
          "name": "C3",
          "midi": 48,
          "time": 86.75000000000004,
          "velocity": 0.6692913385826772,
          "duration": 0.15000000000000568
        },
        {
          "name": "C4",
          "midi": 60,
          "time": 86.75000000000004,
          "velocity": 0.5039370078740157,
          "duration": 0.15000000000000568
        },
        {
          "name": "G4",
          "midi": 67,
          "time": 86.75000000000004,
          "velocity": 0.5039370078740157,
          "duration": 0.15000000000000568
        },
        {
          "name": "G4",
          "midi": 67,
          "time": 87.00000000000004,
          "velocity": 0.5039370078740157,
          "duration": 0.15000000000000568
        },
        {
          "name": "C4",
          "midi": 60,
          "time": 87.00000000000004,
          "velocity": 0.5039370078740157,
          "duration": 0.15000000000000568
        },
        {
          "name": "C3",
          "midi": 48,
          "time": 87.00000000000004,
          "velocity": 0.6692913385826772,
          "duration": 0.15000000000000568
        },
        {
          "name": "G3",
          "midi": 55,
          "time": 87.00000000000004,
          "velocity": 0.6692913385826772,
          "duration": 0.15000000000000568
        },
        {
          "name": "G4",
          "midi": 67,
          "time": 87.25000000000004,
          "velocity": 0.5039370078740157,
          "duration": 0.15000000000000568
        },
        {
          "name": "G3",
          "midi": 55,
          "time": 87.25000000000004,
          "velocity": 0.6692913385826772,
          "duration": 0.15000000000000568
        },
        {
          "name": "C4",
          "midi": 60,
          "time": 87.25000000000004,
          "velocity": 0.5039370078740157,
          "duration": 0.15000000000000568
        },
        {
          "name": "C3",
          "midi": 48,
          "time": 87.25000000000004,
          "velocity": 0.6692913385826772,
          "duration": 0.15000000000000568
        },
        {
          "name": "C3",
          "midi": 48,
          "time": 87.50000000000004,
          "velocity": 0.6692913385826772,
          "duration": 0.15000000000000568
        },
        {
          "name": "G4",
          "midi": 67,
          "time": 87.50000000000004,
          "velocity": 0.5039370078740157,
          "duration": 0.15000000000000568
        },
        {
          "name": "C4",
          "midi": 60,
          "time": 87.50000000000004,
          "velocity": 0.5039370078740157,
          "duration": 0.15000000000000568
        },
        {
          "name": "G3",
          "midi": 55,
          "time": 87.50000000000004,
          "velocity": 0.6692913385826772,
          "duration": 0.15000000000000568
        },
        {
          "name": "G4",
          "midi": 67,
          "time": 87.75000000000004,
          "velocity": 0.5039370078740157,
          "duration": 0.15000000000000568
        },
        {
          "name": "G3",
          "midi": 55,
          "time": 87.75000000000004,
          "velocity": 0.6692913385826772,
          "duration": 0.15000000000000568
        },
        {
          "name": "C4",
          "midi": 60,
          "time": 87.75000000000004,
          "velocity": 0.5039370078740157,
          "duration": 0.15000000000000568
        },
        {
          "name": "C3",
          "midi": 48,
          "time": 87.75000000000004,
          "velocity": 0.6692913385826772,
          "duration": 0.15000000000000568
        },
        {
          "name": "G3",
          "midi": 55,
          "time": 88.00000000000004,
          "velocity": 0.6692913385826772,
          "duration": 1.9499999999999034
        },
        {
          "name": "D4",
          "midi": 62,
          "time": 88.00000000000004,
          "velocity": 0.6692913385826772,
          "duration": 1.9499999999999034
        },
        {
          "name": "G5",
          "midi": 79,
          "time": 108.99999999999994,
          "velocity": 0.8346456692913385,
          "duration": 2.9666666666665265
        },
        {
          "name": "G4",
          "midi": 67,
          "time": 108.99999999999994,
          "velocity": 0.5039370078740157,
          "duration": 2.9499999999998607
        },
        {
          "name": "D5",
          "midi": 74,
          "time": 108.99999999999994,
          "velocity": 0.8346456692913385,
          "duration": 2.983333333333192
        },
        {
          "name": "G4",
          "midi": 67,
          "time": 111.9999999999998,
          "velocity": 0.5039370078740157,
          "duration": 0.15000000000000568
        },
        {
          "name": "D3",
          "midi": 50,
          "time": 111.9999999999998,
          "velocity": 0.6692913385826772,
          "duration": 0.15000000000000568
        },
        {
          "name": "D4",
          "midi": 62,
          "time": 111.9999999999998,
          "velocity": 0.5039370078740157,
          "duration": 0.15000000000000568
        },
        {
          "name": "G3",
          "midi": 55,
          "time": 111.9999999999998,
          "velocity": 0.6692913385826772,
          "duration": 0.15000000000000568
        },
        {
          "name": "D4",
          "midi": 62,
          "time": 112.2499999999998,
          "velocity": 0.5039370078740157,
          "duration": 0.15000000000000568
        },
        {
          "name": "G3",
          "midi": 55,
          "time": 112.2499999999998,
          "velocity": 0.6692913385826772,
          "duration": 0.15000000000000568
        },
        {
          "name": "G4",
          "midi": 67,
          "time": 112.2499999999998,
          "velocity": 0.5039370078740157,
          "duration": 0.15000000000000568
        },
        {
          "name": "D3",
          "midi": 50,
          "time": 112.2499999999998,
          "velocity": 0.6692913385826772,
          "duration": 0.15000000000000568
        },
        {
          "name": "D4",
          "midi": 62,
          "time": 112.4999999999998,
          "velocity": 0.5039370078740157,
          "duration": 0.15000000000000568
        },
        {
          "name": "D3",
          "midi": 50,
          "time": 112.4999999999998,
          "velocity": 0.6692913385826772,
          "duration": 0.15000000000000568
        },
        {
          "name": "G3",
          "midi": 55,
          "time": 112.4999999999998,
          "velocity": 0.6692913385826772,
          "duration": 0.15000000000000568
        },
        {
          "name": "G4",
          "midi": 67,
          "time": 112.4999999999998,
          "velocity": 0.5039370078740157,
          "duration": 0.15000000000000568
        },
        {
          "name": "D4",
          "midi": 62,
          "time": 112.7499999999998,
          "velocity": 0.5039370078740157,
          "duration": 0.15000000000000568
        },
        {
          "name": "D3",
          "midi": 50,
          "time": 112.7499999999998,
          "velocity": 0.6692913385826772,
          "duration": 0.15000000000000568
        },
        {
          "name": "G3",
          "midi": 55,
          "time": 112.7499999999998,
          "velocity": 0.6692913385826772,
          "duration": 0.15000000000000568
        },
        {
          "name": "G4",
          "midi": 67,
          "time": 112.7499999999998,
          "velocity": 0.5039370078740157,
          "duration": 0.15000000000000568
        },
        {
          "name": "D3",
          "midi": 50,
          "time": 112.9999999999998,
          "velocity": 0.6692913385826772,
          "duration": 0.15000000000000568
        },
        {
          "name": "G3",
          "midi": 55,
          "time": 112.9999999999998,
          "velocity": 0.6692913385826772,
          "duration": 0.15000000000000568
        },
        {
          "name": "D4",
          "midi": 62,
          "time": 112.9999999999998,
          "velocity": 0.5039370078740157,
          "duration": 0.15000000000000568
        },
        {
          "name": "G4",
          "midi": 67,
          "time": 112.9999999999998,
          "velocity": 0.5039370078740157,
          "duration": 0.15000000000000568
        },
        {
          "name": "G4",
          "midi": 67,
          "time": 113.2499999999998,
          "velocity": 0.5039370078740157,
          "duration": 0.15000000000000568
        },
        {
          "name": "D4",
          "midi": 62,
          "time": 113.2499999999998,
          "velocity": 0.5039370078740157,
          "duration": 0.15000000000000568
        },
        {
          "name": "D3",
          "midi": 50,
          "time": 113.2499999999998,
          "velocity": 0.6692913385826772,
          "duration": 0.15000000000000568
        },
        {
          "name": "G3",
          "midi": 55,
          "time": 113.2499999999998,
          "velocity": 0.6692913385826772,
          "duration": 0.15000000000000568
        },
        {
          "name": "D4",
          "midi": 62,
          "time": 113.4999999999998,
          "velocity": 0.5039370078740157,
          "duration": 0.15000000000000568
        },
        {
          "name": "D3",
          "midi": 50,
          "time": 113.4999999999998,
          "velocity": 0.6692913385826772,
          "duration": 0.15000000000000568
        },
        {
          "name": "G3",
          "midi": 55,
          "time": 113.4999999999998,
          "velocity": 0.6692913385826772,
          "duration": 0.15000000000000568
        },
        {
          "name": "G4",
          "midi": 67,
          "time": 113.4999999999998,
          "velocity": 0.5039370078740157,
          "duration": 0.15000000000000568
        },
        {
          "name": "G4",
          "midi": 67,
          "time": 113.7499999999998,
          "velocity": 0.5039370078740157,
          "duration": 0.15000000000000568
        },
        {
          "name": "G3",
          "midi": 55,
          "time": 113.7499999999998,
          "velocity": 0.6692913385826772,
          "duration": 0.15000000000000568
        },
        {
          "name": "D4",
          "midi": 62,
          "time": 113.7499999999998,
          "velocity": 0.5039370078740157,
          "duration": 0.15000000000000568
        },
        {
          "name": "D3",
          "midi": 50,
          "time": 113.7499999999998,
          "velocity": 0.6692913385826772,
          "duration": 0.15000000000000568
        },
        {
          "name": "A#4",
          "midi": 70,
          "time": 113.9999999999998,
          "velocity": 0.5039370078740157,
          "duration": 0.15000000000000568
        },
        {
          "name": "F3",
          "midi": 53,
          "time": 113.9999999999998,
          "velocity": 0.6692913385826772,
          "duration": 0.15000000000000568
        },
        {
          "name": "A#3",
          "midi": 58,
          "time": 113.9999999999998,
          "velocity": 0.6692913385826772,
          "duration": 0.15000000000000568
        },
        {
          "name": "F4",
          "midi": 65,
          "time": 113.9999999999998,
          "velocity": 0.5039370078740157,
          "duration": 0.15000000000000568
        },
        {
          "name": "A#4",
          "midi": 70,
          "time": 114.2499999999998,
          "velocity": 0.5039370078740157,
          "duration": 0.15000000000000568
        },
        {
          "name": "F4",
          "midi": 65,
          "time": 114.2499999999998,
          "velocity": 0.5039370078740157,
          "duration": 0.15000000000000568
        },
        {
          "name": "A#3",
          "midi": 58,
          "time": 114.2499999999998,
          "velocity": 0.6692913385826772,
          "duration": 0.15000000000000568
        },
        {
          "name": "F3",
          "midi": 53,
          "time": 114.2499999999998,
          "velocity": 0.6692913385826772,
          "duration": 0.15000000000000568
        },
        {
          "name": "F3",
          "midi": 53,
          "time": 114.4999999999998,
          "velocity": 0.6692913385826772,
          "duration": 0.15000000000000568
        },
        {
          "name": "A#4",
          "midi": 70,
          "time": 114.4999999999998,
          "velocity": 0.5039370078740157,
          "duration": 0.15000000000000568
        },
        {
          "name": "A#3",
          "midi": 58,
          "time": 114.4999999999998,
          "velocity": 0.6692913385826772,
          "duration": 0.15000000000000568
        },
        {
          "name": "F4",
          "midi": 65,
          "time": 114.4999999999998,
          "velocity": 0.5039370078740157,
          "duration": 0.15000000000000568
        },
        {
          "name": "F3",
          "midi": 53,
          "time": 114.7499999999998,
          "velocity": 0.6692913385826772,
          "duration": 0.15000000000000568
        },
        {
          "name": "F4",
          "midi": 65,
          "time": 114.7499999999998,
          "velocity": 0.5039370078740157,
          "duration": 0.15000000000000568
        },
        {
          "name": "A#3",
          "midi": 58,
          "time": 114.7499999999998,
          "velocity": 0.6692913385826772,
          "duration": 0.15000000000000568
        },
        {
          "name": "A#4",
          "midi": 70,
          "time": 114.7499999999998,
          "velocity": 0.5039370078740157,
          "duration": 0.15000000000000568
        },
        {
          "name": "A#4",
          "midi": 70,
          "time": 114.9999999999998,
          "velocity": 0.5039370078740157,
          "duration": 0.15000000000000568
        },
        {
          "name": "F4",
          "midi": 65,
          "time": 114.9999999999998,
          "velocity": 0.5039370078740157,
          "duration": 0.15000000000000568
        },
        {
          "name": "F3",
          "midi": 53,
          "time": 114.9999999999998,
          "velocity": 0.6692913385826772,
          "duration": 0.15000000000000568
        },
        {
          "name": "A#3",
          "midi": 58,
          "time": 114.9999999999998,
          "velocity": 0.6692913385826772,
          "duration": 0.15000000000000568
        },
        {
          "name": "A#4",
          "midi": 70,
          "time": 115.2499999999998,
          "velocity": 0.5039370078740157,
          "duration": 0.15000000000000568
        },
        {
          "name": "A#3",
          "midi": 58,
          "time": 115.2499999999998,
          "velocity": 0.6692913385826772,
          "duration": 0.15000000000000568
        },
        {
          "name": "F4",
          "midi": 65,
          "time": 115.2499999999998,
          "velocity": 0.5039370078740157,
          "duration": 0.15000000000000568
        },
        {
          "name": "F3",
          "midi": 53,
          "time": 115.2499999999998,
          "velocity": 0.6692913385826772,
          "duration": 0.15000000000000568
        },
        {
          "name": "A#4",
          "midi": 70,
          "time": 115.4999999999998,
          "velocity": 0.5039370078740157,
          "duration": 0.15000000000000568
        },
        {
          "name": "A#3",
          "midi": 58,
          "time": 115.4999999999998,
          "velocity": 0.6692913385826772,
          "duration": 0.15000000000000568
        },
        {
          "name": "F4",
          "midi": 65,
          "time": 115.4999999999998,
          "velocity": 0.5039370078740157,
          "duration": 0.15000000000000568
        },
        {
          "name": "F3",
          "midi": 53,
          "time": 115.4999999999998,
          "velocity": 0.6692913385826772,
          "duration": 0.15000000000000568
        },
        {
          "name": "F4",
          "midi": 65,
          "time": 115.7499999999998,
          "velocity": 0.5039370078740157,
          "duration": 0.15000000000000568
        },
        {
          "name": "A#4",
          "midi": 70,
          "time": 115.7499999999998,
          "velocity": 0.5039370078740157,
          "duration": 0.15000000000000568
        },
        {
          "name": "A#3",
          "midi": 58,
          "time": 115.7499999999998,
          "velocity": 0.6692913385826772,
          "duration": 0.15000000000000568
        },
        {
          "name": "F3",
          "midi": 53,
          "time": 115.7499999999998,
          "velocity": 0.6692913385826772,
          "duration": 0.15000000000000568
        },
        {
          "name": "C3",
          "midi": 48,
          "time": 115.9999999999998,
          "velocity": 0.6692913385826772,
          "duration": 0.15000000000000568
        },
        {
          "name": "F3",
          "midi": 53,
          "time": 115.9999999999998,
          "velocity": 0.6692913385826772,
          "duration": 0.15000000000000568
        },
        {
          "name": "F4",
          "midi": 65,
          "time": 115.9999999999998,
          "velocity": 0.5039370078740157,
          "duration": 0.15000000000000568
        },
        {
          "name": "C4",
          "midi": 60,
          "time": 115.9999999999998,
          "velocity": 0.5039370078740157,
          "duration": 0.15000000000000568
        },
        {
          "name": "C3",
          "midi": 48,
          "time": 116.2499999999998,
          "velocity": 0.6692913385826772,
          "duration": 0.15000000000000568
        },
        {
          "name": "F4",
          "midi": 65,
          "time": 116.2499999999998,
          "velocity": 0.5039370078740157,
          "duration": 0.15000000000000568
        },
        {
          "name": "F3",
          "midi": 53,
          "time": 116.2499999999998,
          "velocity": 0.6692913385826772,
          "duration": 0.15000000000000568
        },
        {
          "name": "C4",
          "midi": 60,
          "time": 116.2499999999998,
          "velocity": 0.5039370078740157,
          "duration": 0.15000000000000568
        },
        {
          "name": "C4",
          "midi": 60,
          "time": 116.4999999999998,
          "velocity": 0.5039370078740157,
          "duration": 0.15000000000000568
        },
        {
          "name": "F3",
          "midi": 53,
          "time": 116.4999999999998,
          "velocity": 0.6692913385826772,
          "duration": 0.15000000000000568
        },
        {
          "name": "C3",
          "midi": 48,
          "time": 116.4999999999998,
          "velocity": 0.6692913385826772,
          "duration": 0.15000000000000568
        },
        {
          "name": "F4",
          "midi": 65,
          "time": 116.4999999999998,
          "velocity": 0.5039370078740157,
          "duration": 0.15000000000000568
        },
        {
          "name": "F3",
          "midi": 53,
          "time": 116.7499999999998,
          "velocity": 0.6692913385826772,
          "duration": 0.15000000000000568
        },
        {
          "name": "F4",
          "midi": 65,
          "time": 116.7499999999998,
          "velocity": 0.5039370078740157,
          "duration": 0.15000000000000568
        },
        {
          "name": "C3",
          "midi": 48,
          "time": 116.7499999999998,
          "velocity": 0.6692913385826772,
          "duration": 0.15000000000000568
        },
        {
          "name": "C4",
          "midi": 60,
          "time": 116.7499999999998,
          "velocity": 0.5039370078740157,
          "duration": 0.15000000000000568
        },
        {
          "name": "C4",
          "midi": 60,
          "time": 116.9999999999998,
          "velocity": 0.5039370078740157,
          "duration": 0.15000000000000568
        },
        {
          "name": "F3",
          "midi": 53,
          "time": 116.9999999999998,
          "velocity": 0.6692913385826772,
          "duration": 0.15000000000000568
        },
        {
          "name": "C3",
          "midi": 48,
          "time": 116.9999999999998,
          "velocity": 0.6692913385826772,
          "duration": 0.15000000000000568
        },
        {
          "name": "F4",
          "midi": 65,
          "time": 116.9999999999998,
          "velocity": 0.5039370078740157,
          "duration": 0.15000000000000568
        },
        {
          "name": "F4",
          "midi": 65,
          "time": 117.2499999999998,
          "velocity": 0.5039370078740157,
          "duration": 0.15000000000000568
        },
        {
          "name": "F3",
          "midi": 53,
          "time": 117.2499999999998,
          "velocity": 0.6692913385826772,
          "duration": 0.15000000000000568
        },
        {
          "name": "C4",
          "midi": 60,
          "time": 117.2499999999998,
          "velocity": 0.5039370078740157,
          "duration": 0.15000000000000568
        },
        {
          "name": "C3",
          "midi": 48,
          "time": 117.2499999999998,
          "velocity": 0.6692913385826772,
          "duration": 0.15000000000000568
        },
        {
          "name": "C4",
          "midi": 60,
          "time": 117.4999999999998,
          "velocity": 0.5039370078740157,
          "duration": 0.15000000000000568
        },
        {
          "name": "F4",
          "midi": 65,
          "time": 117.4999999999998,
          "velocity": 0.5039370078740157,
          "duration": 0.15000000000000568
        },
        {
          "name": "C3",
          "midi": 48,
          "time": 117.4999999999998,
          "velocity": 0.6692913385826772,
          "duration": 0.15000000000000568
        },
        {
          "name": "F3",
          "midi": 53,
          "time": 117.4999999999998,
          "velocity": 0.6692913385826772,
          "duration": 0.15000000000000568
        },
        {
          "name": "C3",
          "midi": 48,
          "time": 117.7499999999998,
          "velocity": 0.6692913385826772,
          "duration": 0.15000000000000568
        },
        {
          "name": "F4",
          "midi": 65,
          "time": 117.7499999999998,
          "velocity": 0.5039370078740157,
          "duration": 0.15000000000000568
        },
        {
          "name": "F3",
          "midi": 53,
          "time": 117.7499999999998,
          "velocity": 0.6692913385826772,
          "duration": 0.15000000000000568
        },
        {
          "name": "C4",
          "midi": 60,
          "time": 117.7499999999998,
          "velocity": 0.5039370078740157,
          "duration": 0.15000000000000568
        },
        {
          "name": "G4",
          "midi": 67,
          "time": 117.9999999999998,
          "velocity": 0.5039370078740157,
          "duration": 0.15000000000000568
        },
        {
          "name": "G3",
          "midi": 55,
          "time": 117.9999999999998,
          "velocity": 0.6692913385826772,
          "duration": 0.15000000000000568
        },
        {
          "name": "C3",
          "midi": 48,
          "time": 117.9999999999998,
          "velocity": 0.6692913385826772,
          "duration": 0.15000000000000568
        },
        {
          "name": "C4",
          "midi": 60,
          "time": 117.9999999999998,
          "velocity": 0.5039370078740157,
          "duration": 0.15000000000000568
        },
        {
          "name": "G3",
          "midi": 55,
          "time": 118.2499999999998,
          "velocity": 0.6692913385826772,
          "duration": 0.15000000000000568
        },
        {
          "name": "G4",
          "midi": 67,
          "time": 118.2499999999998,
          "velocity": 0.5039370078740157,
          "duration": 0.15000000000000568
        },
        {
          "name": "C4",
          "midi": 60,
          "time": 118.2499999999998,
          "velocity": 0.5039370078740157,
          "duration": 0.15000000000000568
        },
        {
          "name": "C3",
          "midi": 48,
          "time": 118.2499999999998,
          "velocity": 0.6692913385826772,
          "duration": 0.15000000000000568
        },
        {
          "name": "G4",
          "midi": 67,
          "time": 118.4999999999998,
          "velocity": 0.5039370078740157,
          "duration": 0.15000000000000568
        },
        {
          "name": "G3",
          "midi": 55,
          "time": 118.4999999999998,
          "velocity": 0.6692913385826772,
          "duration": 0.15000000000000568
        },
        {
          "name": "C3",
          "midi": 48,
          "time": 118.4999999999998,
          "velocity": 0.6692913385826772,
          "duration": 0.15000000000000568
        },
        {
          "name": "C4",
          "midi": 60,
          "time": 118.4999999999998,
          "velocity": 0.5039370078740157,
          "duration": 0.15000000000000568
        },
        {
          "name": "C4",
          "midi": 60,
          "time": 118.7499999999998,
          "velocity": 0.5039370078740157,
          "duration": 0.15000000000000568
        },
        {
          "name": "G4",
          "midi": 67,
          "time": 118.7499999999998,
          "velocity": 0.5039370078740157,
          "duration": 0.15000000000000568
        },
        {
          "name": "G3",
          "midi": 55,
          "time": 118.7499999999998,
          "velocity": 0.6692913385826772,
          "duration": 0.15000000000000568
        },
        {
          "name": "C3",
          "midi": 48,
          "time": 118.7499999999998,
          "velocity": 0.6692913385826772,
          "duration": 0.15000000000000568
        },
        {
          "name": "C3",
          "midi": 48,
          "time": 118.9999999999998,
          "velocity": 0.6692913385826772,
          "duration": 0.15000000000000568
        },
        {
          "name": "C4",
          "midi": 60,
          "time": 118.9999999999998,
          "velocity": 0.5039370078740157,
          "duration": 0.15000000000000568
        },
        {
          "name": "G3",
          "midi": 55,
          "time": 118.9999999999998,
          "velocity": 0.6692913385826772,
          "duration": 0.15000000000000568
        },
        {
          "name": "G4",
          "midi": 67,
          "time": 118.9999999999998,
          "velocity": 0.5039370078740157,
          "duration": 0.15000000000000568
        },
        {
          "name": "G3",
          "midi": 55,
          "time": 119.2499999999998,
          "velocity": 0.6692913385826772,
          "duration": 0.15000000000000568
        },
        {
          "name": "C3",
          "midi": 48,
          "time": 119.2499999999998,
          "velocity": 0.6692913385826772,
          "duration": 0.15000000000000568
        },
        {
          "name": "G4",
          "midi": 67,
          "time": 119.2499999999998,
          "velocity": 0.5039370078740157,
          "duration": 0.15000000000000568
        },
        {
          "name": "C4",
          "midi": 60,
          "time": 119.2499999999998,
          "velocity": 0.5039370078740157,
          "duration": 0.15000000000000568
        },
        {
          "name": "G3",
          "midi": 55,
          "time": 119.4999999999998,
          "velocity": 0.6692913385826772,
          "duration": 0.15000000000000568
        },
        {
          "name": "C3",
          "midi": 48,
          "time": 119.4999999999998,
          "velocity": 0.6692913385826772,
          "duration": 0.15000000000000568
        },
        {
          "name": "C4",
          "midi": 60,
          "time": 119.4999999999998,
          "velocity": 0.5039370078740157,
          "duration": 0.15000000000000568
        },
        {
          "name": "G4",
          "midi": 67,
          "time": 119.4999999999998,
          "velocity": 0.5039370078740157,
          "duration": 0.15000000000000568
        },
        {
          "name": "C4",
          "midi": 60,
          "time": 119.7499999999998,
          "velocity": 0.5039370078740157,
          "duration": 0.15000000000000568
        },
        {
          "name": "G4",
          "midi": 67,
          "time": 119.7499999999998,
          "velocity": 0.5039370078740157,
          "duration": 0.15000000000000568
        },
        {
          "name": "G3",
          "midi": 55,
          "time": 119.7499999999998,
          "velocity": 0.6692913385826772,
          "duration": 0.15000000000000568
        },
        {
          "name": "C3",
          "midi": 48,
          "time": 119.7499999999998,
          "velocity": 0.6692913385826772,
          "duration": 0.15000000000000568
        },
        {
          "name": "D4",
          "midi": 62,
          "time": 119.9999999999998,
          "velocity": 0.5039370078740157,
          "duration": 0.15000000000000568
        },
        {
          "name": "G4",
          "midi": 67,
          "time": 119.9999999999998,
          "velocity": 0.5039370078740157,
          "duration": 0.15000000000000568
        },
        {
          "name": "G3",
          "midi": 55,
          "time": 119.9999999999998,
          "velocity": 0.6692913385826772,
          "duration": 0.15000000000000568
        },
        {
          "name": "D3",
          "midi": 50,
          "time": 119.9999999999998,
          "velocity": 0.6692913385826772,
          "duration": 0.15000000000000568
        },
        {
          "name": "D4",
          "midi": 62,
          "time": 120.2499999999998,
          "velocity": 0.5039370078740157,
          "duration": 0.15000000000000568
        },
        {
          "name": "G3",
          "midi": 55,
          "time": 120.2499999999998,
          "velocity": 0.6692913385826772,
          "duration": 0.15000000000000568
        },
        {
          "name": "G4",
          "midi": 67,
          "time": 120.2499999999998,
          "velocity": 0.5039370078740157,
          "duration": 0.15000000000000568
        },
        {
          "name": "D3",
          "midi": 50,
          "time": 120.2499999999998,
          "velocity": 0.6692913385826772,
          "duration": 0.15000000000000568
        },
        {
          "name": "G3",
          "midi": 55,
          "time": 120.4999999999998,
          "velocity": 0.6692913385826772,
          "duration": 0.15000000000000568
        },
        {
          "name": "D3",
          "midi": 50,
          "time": 120.4999999999998,
          "velocity": 0.6692913385826772,
          "duration": 0.15000000000000568
        },
        {
          "name": "D4",
          "midi": 62,
          "time": 120.4999999999998,
          "velocity": 0.5039370078740157,
          "duration": 0.15000000000000568
        },
        {
          "name": "G4",
          "midi": 67,
          "time": 120.4999999999998,
          "velocity": 0.5039370078740157,
          "duration": 0.15000000000000568
        },
        {
          "name": "G4",
          "midi": 67,
          "time": 120.7499999999998,
          "velocity": 0.5039370078740157,
          "duration": 0.15000000000000568
        },
        {
          "name": "G3",
          "midi": 55,
          "time": 120.7499999999998,
          "velocity": 0.6692913385826772,
          "duration": 0.15000000000000568
        },
        {
          "name": "D3",
          "midi": 50,
          "time": 120.7499999999998,
          "velocity": 0.6692913385826772,
          "duration": 0.15000000000000568
        },
        {
          "name": "D4",
          "midi": 62,
          "time": 120.7499999999998,
          "velocity": 0.5039370078740157,
          "duration": 0.15000000000000568
        },
        {
          "name": "G3",
          "midi": 55,
          "time": 120.9999999999998,
          "velocity": 0.6692913385826772,
          "duration": 0.15000000000000568
        },
        {
          "name": "D4",
          "midi": 62,
          "time": 120.9999999999998,
          "velocity": 0.5039370078740157,
          "duration": 0.15000000000000568
        },
        {
          "name": "G4",
          "midi": 67,
          "time": 120.9999999999998,
          "velocity": 0.5039370078740157,
          "duration": 0.15000000000000568
        },
        {
          "name": "D3",
          "midi": 50,
          "time": 120.9999999999998,
          "velocity": 0.6692913385826772,
          "duration": 0.15000000000000568
        },
        {
          "name": "G3",
          "midi": 55,
          "time": 121.2499999999998,
          "velocity": 0.6692913385826772,
          "duration": 0.15000000000000568
        },
        {
          "name": "G4",
          "midi": 67,
          "time": 121.2499999999998,
          "velocity": 0.5039370078740157,
          "duration": 0.15000000000000568
        },
        {
          "name": "D3",
          "midi": 50,
          "time": 121.2499999999998,
          "velocity": 0.6692913385826772,
          "duration": 0.15000000000000568
        },
        {
          "name": "D4",
          "midi": 62,
          "time": 121.2499999999998,
          "velocity": 0.5039370078740157,
          "duration": 0.15000000000000568
        },
        {
          "name": "G4",
          "midi": 67,
          "time": 121.4999999999998,
          "velocity": 0.5039370078740157,
          "duration": 0.15000000000000568
        },
        {
          "name": "D4",
          "midi": 62,
          "time": 121.4999999999998,
          "velocity": 0.5039370078740157,
          "duration": 0.15000000000000568
        },
        {
          "name": "G3",
          "midi": 55,
          "time": 121.4999999999998,
          "velocity": 0.6692913385826772,
          "duration": 0.15000000000000568
        },
        {
          "name": "D3",
          "midi": 50,
          "time": 121.4999999999998,
          "velocity": 0.6692913385826772,
          "duration": 0.15000000000000568
        },
        {
          "name": "G4",
          "midi": 67,
          "time": 121.7499999999998,
          "velocity": 0.5039370078740157,
          "duration": 0.15000000000000568
        },
        {
          "name": "D4",
          "midi": 62,
          "time": 121.7499999999998,
          "velocity": 0.5039370078740157,
          "duration": 0.15000000000000568
        },
        {
          "name": "D3",
          "midi": 50,
          "time": 121.7499999999998,
          "velocity": 0.6692913385826772,
          "duration": 0.15000000000000568
        },
        {
          "name": "G3",
          "midi": 55,
          "time": 121.7499999999998,
          "velocity": 0.6692913385826772,
          "duration": 0.15000000000000568
        },
        {
          "name": "A#3",
          "midi": 58,
          "time": 121.9999999999998,
          "velocity": 0.6692913385826772,
          "duration": 0.15000000000000568
        },
        {
          "name": "A#4",
          "midi": 70,
          "time": 121.9999999999998,
          "velocity": 0.5039370078740157,
          "duration": 0.15000000000000568
        },
        {
          "name": "F3",
          "midi": 53,
          "time": 121.9999999999998,
          "velocity": 0.6692913385826772,
          "duration": 0.15000000000000568
        },
        {
          "name": "F4",
          "midi": 65,
          "time": 121.9999999999998,
          "velocity": 0.5039370078740157,
          "duration": 0.15000000000000568
        },
        {
          "name": "F4",
          "midi": 65,
          "time": 122.2499999999998,
          "velocity": 0.5039370078740157,
          "duration": 0.15000000000000568
        },
        {
          "name": "A#3",
          "midi": 58,
          "time": 122.2499999999998,
          "velocity": 0.6692913385826772,
          "duration": 0.15000000000000568
        },
        {
          "name": "F3",
          "midi": 53,
          "time": 122.2499999999998,
          "velocity": 0.6692913385826772,
          "duration": 0.15000000000000568
        },
        {
          "name": "A#4",
          "midi": 70,
          "time": 122.2499999999998,
          "velocity": 0.5039370078740157,
          "duration": 0.15000000000000568
        },
        {
          "name": "A#3",
          "midi": 58,
          "time": 122.4999999999998,
          "velocity": 0.6692913385826772,
          "duration": 0.15000000000000568
        },
        {
          "name": "F3",
          "midi": 53,
          "time": 122.4999999999998,
          "velocity": 0.6692913385826772,
          "duration": 0.15000000000000568
        },
        {
          "name": "A#4",
          "midi": 70,
          "time": 122.4999999999998,
          "velocity": 0.5039370078740157,
          "duration": 0.15000000000000568
        },
        {
          "name": "F4",
          "midi": 65,
          "time": 122.4999999999998,
          "velocity": 0.5039370078740157,
          "duration": 0.15000000000000568
        },
        {
          "name": "A#4",
          "midi": 70,
          "time": 122.7499999999998,
          "velocity": 0.5039370078740157,
          "duration": 0.15000000000000568
        },
        {
          "name": "F4",
          "midi": 65,
          "time": 122.7499999999998,
          "velocity": 0.5039370078740157,
          "duration": 0.15000000000000568
        },
        {
          "name": "F3",
          "midi": 53,
          "time": 122.7499999999998,
          "velocity": 0.6692913385826772,
          "duration": 0.15000000000000568
        },
        {
          "name": "A#3",
          "midi": 58,
          "time": 122.7499999999998,
          "velocity": 0.6692913385826772,
          "duration": 0.15000000000000568
        },
        {
          "name": "F3",
          "midi": 53,
          "time": 122.9999999999998,
          "velocity": 0.6692913385826772,
          "duration": 0.15000000000000568
        },
        {
          "name": "A#4",
          "midi": 70,
          "time": 122.9999999999998,
          "velocity": 0.5039370078740157,
          "duration": 0.15000000000000568
        },
        {
          "name": "F4",
          "midi": 65,
          "time": 122.9999999999998,
          "velocity": 0.5039370078740157,
          "duration": 0.15000000000000568
        },
        {
          "name": "A#3",
          "midi": 58,
          "time": 122.9999999999998,
          "velocity": 0.6692913385826772,
          "duration": 0.15000000000000568
        },
        {
          "name": "F4",
          "midi": 65,
          "time": 123.2499999999998,
          "velocity": 0.5039370078740157,
          "duration": 0.15000000000000568
        },
        {
          "name": "F3",
          "midi": 53,
          "time": 123.2499999999998,
          "velocity": 0.6692913385826772,
          "duration": 0.15000000000000568
        },
        {
          "name": "A#3",
          "midi": 58,
          "time": 123.2499999999998,
          "velocity": 0.6692913385826772,
          "duration": 0.15000000000000568
        },
        {
          "name": "A#4",
          "midi": 70,
          "time": 123.2499999999998,
          "velocity": 0.5039370078740157,
          "duration": 0.15000000000000568
        },
        {
          "name": "A#3",
          "midi": 58,
          "time": 123.4999999999998,
          "velocity": 0.6692913385826772,
          "duration": 0.15000000000000568
        },
        {
          "name": "F4",
          "midi": 65,
          "time": 123.4999999999998,
          "velocity": 0.5039370078740157,
          "duration": 0.15000000000000568
        },
        {
          "name": "A#4",
          "midi": 70,
          "time": 123.4999999999998,
          "velocity": 0.5039370078740157,
          "duration": 0.15000000000000568
        },
        {
          "name": "F3",
          "midi": 53,
          "time": 123.4999999999998,
          "velocity": 0.6692913385826772,
          "duration": 0.15000000000000568
        },
        {
          "name": "F3",
          "midi": 53,
          "time": 123.7499999999998,
          "velocity": 0.6692913385826772,
          "duration": 0.15000000000000568
        },
        {
          "name": "F4",
          "midi": 65,
          "time": 123.7499999999998,
          "velocity": 0.5039370078740157,
          "duration": 0.15000000000000568
        },
        {
          "name": "A#4",
          "midi": 70,
          "time": 123.7499999999998,
          "velocity": 0.5039370078740157,
          "duration": 0.15000000000000568
        },
        {
          "name": "A#3",
          "midi": 58,
          "time": 123.7499999999998,
          "velocity": 0.6692913385826772,
          "duration": 0.15000000000000568
        },
        {
          "name": "F4",
          "midi": 65,
          "time": 123.9999999999998,
          "velocity": 0.5039370078740157,
          "duration": 0.15000000000000568
        },
        {
          "name": "C3",
          "midi": 48,
          "time": 123.9999999999998,
          "velocity": 0.6692913385826772,
          "duration": 0.15000000000000568
        },
        {
          "name": "C4",
          "midi": 60,
          "time": 123.9999999999998,
          "velocity": 0.5039370078740157,
          "duration": 0.15000000000000568
        },
        {
          "name": "F3",
          "midi": 53,
          "time": 123.9999999999998,
          "velocity": 0.6692913385826772,
          "duration": 0.15000000000000568
        },
        {
          "name": "F4",
          "midi": 65,
          "time": 124.2499999999998,
          "velocity": 0.5039370078740157,
          "duration": 0.15000000000000568
        },
        {
          "name": "C4",
          "midi": 60,
          "time": 124.2499999999998,
          "velocity": 0.5039370078740157,
          "duration": 0.15000000000000568
        },
        {
          "name": "C3",
          "midi": 48,
          "time": 124.2499999999998,
          "velocity": 0.6692913385826772,
          "duration": 0.15000000000000568
        },
        {
          "name": "F3",
          "midi": 53,
          "time": 124.2499999999998,
          "velocity": 0.6692913385826772,
          "duration": 0.15000000000000568
        },
        {
          "name": "C4",
          "midi": 60,
          "time": 124.4999999999998,
          "velocity": 0.5039370078740157,
          "duration": 0.15000000000000568
        },
        {
          "name": "F4",
          "midi": 65,
          "time": 124.4999999999998,
          "velocity": 0.5039370078740157,
          "duration": 0.15000000000000568
        },
        {
          "name": "F3",
          "midi": 53,
          "time": 124.4999999999998,
          "velocity": 0.6692913385826772,
          "duration": 0.15000000000000568
        },
        {
          "name": "C3",
          "midi": 48,
          "time": 124.4999999999998,
          "velocity": 0.6692913385826772,
          "duration": 0.15000000000000568
        },
        {
          "name": "F4",
          "midi": 65,
          "time": 124.7499999999998,
          "velocity": 0.5039370078740157,
          "duration": 0.15000000000000568
        },
        {
          "name": "C3",
          "midi": 48,
          "time": 124.7499999999998,
          "velocity": 0.6692913385826772,
          "duration": 0.15000000000000568
        },
        {
          "name": "C4",
          "midi": 60,
          "time": 124.7499999999998,
          "velocity": 0.5039370078740157,
          "duration": 0.15000000000000568
        },
        {
          "name": "F3",
          "midi": 53,
          "time": 124.7499999999998,
          "velocity": 0.6692913385826772,
          "duration": 0.15000000000000568
        },
        {
          "name": "F4",
          "midi": 65,
          "time": 124.9999999999998,
          "velocity": 0.5039370078740157,
          "duration": 0.15000000000000568
        },
        {
          "name": "F3",
          "midi": 53,
          "time": 124.9999999999998,
          "velocity": 0.6692913385826772,
          "duration": 0.15000000000000568
        },
        {
          "name": "C4",
          "midi": 60,
          "time": 124.9999999999998,
          "velocity": 0.5039370078740157,
          "duration": 0.15000000000000568
        },
        {
          "name": "C3",
          "midi": 48,
          "time": 124.9999999999998,
          "velocity": 0.6692913385826772,
          "duration": 0.15000000000000568
        },
        {
          "name": "C3",
          "midi": 48,
          "time": 125.2499999999998,
          "velocity": 0.6692913385826772,
          "duration": 0.15000000000000568
        },
        {
          "name": "F3",
          "midi": 53,
          "time": 125.2499999999998,
          "velocity": 0.6692913385826772,
          "duration": 0.15000000000000568
        },
        {
          "name": "C4",
          "midi": 60,
          "time": 125.2499999999998,
          "velocity": 0.5039370078740157,
          "duration": 0.15000000000000568
        },
        {
          "name": "F4",
          "midi": 65,
          "time": 125.2499999999998,
          "velocity": 0.5039370078740157,
          "duration": 0.15000000000000568
        },
        {
          "name": "C4",
          "midi": 60,
          "time": 125.4999999999998,
          "velocity": 0.5039370078740157,
          "duration": 0.15000000000000568
        },
        {
          "name": "F4",
          "midi": 65,
          "time": 125.4999999999998,
          "velocity": 0.5039370078740157,
          "duration": 0.15000000000000568
        },
        {
          "name": "C3",
          "midi": 48,
          "time": 125.4999999999998,
          "velocity": 0.6692913385826772,
          "duration": 0.15000000000000568
        },
        {
          "name": "F3",
          "midi": 53,
          "time": 125.4999999999998,
          "velocity": 0.6692913385826772,
          "duration": 0.15000000000000568
        },
        {
          "name": "C3",
          "midi": 48,
          "time": 125.7499999999998,
          "velocity": 0.6692913385826772,
          "duration": 0.15000000000000568
        },
        {
          "name": "F3",
          "midi": 53,
          "time": 125.7499999999998,
          "velocity": 0.6692913385826772,
          "duration": 0.15000000000000568
        },
        {
          "name": "F4",
          "midi": 65,
          "time": 125.7499999999998,
          "velocity": 0.5039370078740157,
          "duration": 0.15000000000000568
        },
        {
          "name": "C4",
          "midi": 60,
          "time": 125.7499999999998,
          "velocity": 0.5039370078740157,
          "duration": 0.15000000000000568
        },
        {
          "name": "C5",
          "midi": 72,
          "time": 125.9999999999998,
          "velocity": 0.5039370078740157,
          "duration": 0.15000000000000568
        },
        {
          "name": "G4",
          "midi": 67,
          "time": 125.9999999999998,
          "velocity": 0.5039370078740157,
          "duration": 0.15000000000000568
        },
        {
          "name": "G3",
          "midi": 55,
          "time": 125.9999999999998,
          "velocity": 0.6692913385826772,
          "duration": 0.15000000000000568
        },
        {
          "name": "C4",
          "midi": 60,
          "time": 125.9999999999998,
          "velocity": 0.6692913385826772,
          "duration": 0.15000000000000568
        },
        {
          "name": "G3",
          "midi": 55,
          "time": 126.2499999999998,
          "velocity": 0.6692913385826772,
          "duration": 0.15000000000000568
        },
        {
          "name": "C4",
          "midi": 60,
          "time": 126.2499999999998,
          "velocity": 0.6692913385826772,
          "duration": 0.15000000000000568
        },
        {
          "name": "G4",
          "midi": 67,
          "time": 126.2499999999998,
          "velocity": 0.5039370078740157,
          "duration": 0.15000000000000568
        },
        {
          "name": "C5",
          "midi": 72,
          "time": 126.2499999999998,
          "velocity": 0.5039370078740157,
          "duration": 0.15000000000000568
        },
        {
          "name": "G4",
          "midi": 67,
          "time": 126.4999999999998,
          "velocity": 0.5039370078740157,
          "duration": 0.15000000000000568
        },
        {
          "name": "C5",
          "midi": 72,
          "time": 126.4999999999998,
          "velocity": 0.5039370078740157,
          "duration": 0.15000000000000568
        },
        {
          "name": "C4",
          "midi": 60,
          "time": 126.4999999999998,
          "velocity": 0.6692913385826772,
          "duration": 0.15000000000000568
        },
        {
          "name": "G3",
          "midi": 55,
          "time": 126.4999999999998,
          "velocity": 0.6692913385826772,
          "duration": 0.15000000000000568
        },
        {
          "name": "G4",
          "midi": 67,
          "time": 126.7499999999998,
          "velocity": 0.5039370078740157,
          "duration": 0.15000000000000568
        },
        {
          "name": "C5",
          "midi": 72,
          "time": 126.7499999999998,
          "velocity": 0.5039370078740157,
          "duration": 0.15000000000000568
        },
        {
          "name": "G3",
          "midi": 55,
          "time": 126.7499999999998,
          "velocity": 0.6692913385826772,
          "duration": 0.15000000000000568
        },
        {
          "name": "C4",
          "midi": 60,
          "time": 126.7499999999998,
          "velocity": 0.6692913385826772,
          "duration": 0.15000000000000568
        },
        {
          "name": "D5",
          "midi": 74,
          "time": 126.9999999999998,
          "velocity": 0.5039370078740157,
          "duration": 0.15000000000000568
        },
        {
          "name": "A4",
          "midi": 69,
          "time": 126.9999999999998,
          "velocity": 0.5039370078740157,
          "duration": 0.15000000000000568
        },
        {
          "name": "A3",
          "midi": 57,
          "time": 126.9999999999998,
          "velocity": 0.6692913385826772,
          "duration": 0.15000000000000568
        },
        {
          "name": "D4",
          "midi": 62,
          "time": 126.9999999999998,
          "velocity": 0.6692913385826772,
          "duration": 0.15000000000000568
        },
        {
          "name": "D4",
          "midi": 62,
          "time": 127.2499999999998,
          "velocity": 0.6692913385826772,
          "duration": 0.15000000000000568
        },
        {
          "name": "D5",
          "midi": 74,
          "time": 127.2499999999998,
          "velocity": 0.5039370078740157,
          "duration": 0.15000000000000568
        },
        {
          "name": "A3",
          "midi": 57,
          "time": 127.2499999999998,
          "velocity": 0.6692913385826772,
          "duration": 0.15000000000000568
        },
        {
          "name": "A4",
          "midi": 69,
          "time": 127.2499999999998,
          "velocity": 0.5039370078740157,
          "duration": 0.15000000000000568
        },
        {
          "name": "A4",
          "midi": 69,
          "time": 127.4999999999998,
          "velocity": 0.5039370078740157,
          "duration": 0.15000000000000568
        },
        {
          "name": "D4",
          "midi": 62,
          "time": 127.4999999999998,
          "velocity": 0.6692913385826772,
          "duration": 0.15000000000000568
        },
        {
          "name": "D5",
          "midi": 74,
          "time": 127.4999999999998,
          "velocity": 0.5039370078740157,
          "duration": 0.15000000000000568
        },
        {
          "name": "A3",
          "midi": 57,
          "time": 127.4999999999998,
          "velocity": 0.6692913385826772,
          "duration": 0.15000000000000568
        },
        {
          "name": "D4",
          "midi": 62,
          "time": 127.7499999999998,
          "velocity": 0.6692913385826772,
          "duration": 0.15000000000000568
        },
        {
          "name": "A3",
          "midi": 57,
          "time": 127.7499999999998,
          "velocity": 0.6692913385826772,
          "duration": 0.15000000000000568
        },
        {
          "name": "A4",
          "midi": 69,
          "time": 127.7499999999998,
          "velocity": 0.5039370078740157,
          "duration": 0.15000000000000568
        },
        {
          "name": "D5",
          "midi": 74,
          "time": 127.7499999999998,
          "velocity": 0.5039370078740157,
          "duration": 0.15000000000000568
        },
        {
          "name": "D#4",
          "midi": 63,
          "time": 127.9999999999998,
          "velocity": 0.6692913385826772,
          "duration": 0.15000000000000568
        },
        {
          "name": "A#4",
          "midi": 70,
          "time": 127.9999999999998,
          "velocity": 0.5039370078740157,
          "duration": 0.15000000000000568
        },
        {
          "name": "A#3",
          "midi": 58,
          "time": 127.9999999999998,
          "velocity": 0.6692913385826772,
          "duration": 0.15000000000000568
        },
        {
          "name": "D#5",
          "midi": 75,
          "time": 127.9999999999998,
          "velocity": 0.5039370078740157,
          "duration": 0.15000000000000568
        },
        {
          "name": "A#4",
          "midi": 70,
          "time": 128.2499999999998,
          "velocity": 0.5039370078740157,
          "duration": 0.15000000000000568
        },
        {
          "name": "D#4",
          "midi": 63,
          "time": 128.2499999999998,
          "velocity": 0.6692913385826772,
          "duration": 0.15000000000000568
        },
        {
          "name": "A#3",
          "midi": 58,
          "time": 128.2499999999998,
          "velocity": 0.6692913385826772,
          "duration": 0.15000000000000568
        },
        {
          "name": "D#5",
          "midi": 75,
          "time": 128.2499999999998,
          "velocity": 0.5039370078740157,
          "duration": 0.15000000000000568
        },
        {
          "name": "D#4",
          "midi": 63,
          "time": 128.4999999999998,
          "velocity": 0.6692913385826772,
          "duration": 0.15000000000000568
        },
        {
          "name": "A#3",
          "midi": 58,
          "time": 128.4999999999998,
          "velocity": 0.6692913385826772,
          "duration": 0.15000000000000568
        },
        {
          "name": "D#5",
          "midi": 75,
          "time": 128.4999999999998,
          "velocity": 0.5039370078740157,
          "duration": 0.15000000000000568
        },
        {
          "name": "A#4",
          "midi": 70,
          "time": 128.4999999999998,
          "velocity": 0.5039370078740157,
          "duration": 0.15000000000000568
        },
        {
          "name": "D#4",
          "midi": 63,
          "time": 128.7499999999998,
          "velocity": 0.6692913385826772,
          "duration": 0.15000000000000568
        },
        {
          "name": "D#5",
          "midi": 75,
          "time": 128.7499999999998,
          "velocity": 0.5039370078740157,
          "duration": 0.15000000000000568
        },
        {
          "name": "A#3",
          "midi": 58,
          "time": 128.7499999999998,
          "velocity": 0.6692913385826772,
          "duration": 0.15000000000000568
        },
        {
          "name": "A#4",
          "midi": 70,
          "time": 128.7499999999998,
          "velocity": 0.5039370078740157,
          "duration": 0.15000000000000568
        },
        {
          "name": "A3",
          "midi": 57,
          "time": 128.9999999999998,
          "velocity": 0.6692913385826772,
          "duration": 0.15000000000000568
        },
        {
          "name": "D4",
          "midi": 62,
          "time": 128.9999999999998,
          "velocity": 0.6692913385826772,
          "duration": 0.15000000000000568
        },
        {
          "name": "A4",
          "midi": 69,
          "time": 128.9999999999998,
          "velocity": 0.5039370078740157,
          "duration": 0.15000000000000568
        },
        {
          "name": "D5",
          "midi": 74,
          "time": 128.9999999999998,
          "velocity": 0.5039370078740157,
          "duration": 0.15000000000000568
        },
        {
          "name": "D5",
          "midi": 74,
          "time": 129.2499999999998,
          "velocity": 0.5039370078740157,
          "duration": 0.15000000000000568
        },
        {
          "name": "D4",
          "midi": 62,
          "time": 129.2499999999998,
          "velocity": 0.6692913385826772,
          "duration": 0.15000000000000568
        },
        {
          "name": "A3",
          "midi": 57,
          "time": 129.2499999999998,
          "velocity": 0.6692913385826772,
          "duration": 0.15000000000000568
        },
        {
          "name": "A4",
          "midi": 69,
          "time": 129.2499999999998,
          "velocity": 0.5039370078740157,
          "duration": 0.15000000000000568
        },
        {
          "name": "A4",
          "midi": 69,
          "time": 129.4999999999998,
          "velocity": 0.5039370078740157,
          "duration": 0.15000000000000568
        },
        {
          "name": "D4",
          "midi": 62,
          "time": 129.4999999999998,
          "velocity": 0.6692913385826772,
          "duration": 0.15000000000000568
        },
        {
          "name": "D5",
          "midi": 74,
          "time": 129.4999999999998,
          "velocity": 0.5039370078740157,
          "duration": 0.15000000000000568
        },
        {
          "name": "A3",
          "midi": 57,
          "time": 129.4999999999998,
          "velocity": 0.6692913385826772,
          "duration": 0.15000000000000568
        },
        {
          "name": "D5",
          "midi": 74,
          "time": 129.7499999999998,
          "velocity": 0.5039370078740157,
          "duration": 0.15000000000000568
        },
        {
          "name": "A4",
          "midi": 69,
          "time": 129.7499999999998,
          "velocity": 0.5039370078740157,
          "duration": 0.15000000000000568
        },
        {
          "name": "D4",
          "midi": 62,
          "time": 129.7499999999998,
          "velocity": 0.6692913385826772,
          "duration": 0.15000000000000568
        },
        {
          "name": "A3",
          "midi": 57,
          "time": 129.7499999999998,
          "velocity": 0.6692913385826772,
          "duration": 0.15000000000000568
        },
        {
          "name": "G3",
          "midi": 55,
          "time": 129.9999999999998,
          "velocity": 0.6692913385826772,
          "duration": 0.15000000000000568
        },
        {
          "name": "D4",
          "midi": 62,
          "time": 129.9999999999998,
          "velocity": 0.5039370078740157,
          "duration": 0.15000000000000568
        },
        {
          "name": "D3",
          "midi": 50,
          "time": 129.9999999999998,
          "velocity": 0.6692913385826772,
          "duration": 0.15000000000000568
        },
        {
          "name": "G4",
          "midi": 67,
          "time": 129.9999999999998,
          "velocity": 0.5039370078740157,
          "duration": 0.15000000000000568
        },
        {
          "name": "G4",
          "midi": 67,
          "time": 130.2499999999998,
          "velocity": 0.5039370078740157,
          "duration": 0.15000000000000568
        },
        {
          "name": "G3",
          "midi": 55,
          "time": 130.2499999999998,
          "velocity": 0.6692913385826772,
          "duration": 0.15000000000000568
        },
        {
          "name": "D4",
          "midi": 62,
          "time": 130.2499999999998,
          "velocity": 0.5039370078740157,
          "duration": 0.15000000000000568
        },
        {
          "name": "D3",
          "midi": 50,
          "time": 130.2499999999998,
          "velocity": 0.6692913385826772,
          "duration": 0.15000000000000568
        },
        {
          "name": "D3",
          "midi": 50,
          "time": 130.4999999999998,
          "velocity": 0.6692913385826772,
          "duration": 0.15000000000000568
        },
        {
          "name": "D4",
          "midi": 62,
          "time": 130.4999999999998,
          "velocity": 0.5039370078740157,
          "duration": 0.15000000000000568
        },
        {
          "name": "G4",
          "midi": 67,
          "time": 130.4999999999998,
          "velocity": 0.5039370078740157,
          "duration": 0.15000000000000568
        },
        {
          "name": "G3",
          "midi": 55,
          "time": 130.4999999999998,
          "velocity": 0.6692913385826772,
          "duration": 0.15000000000000568
        },
        {
          "name": "G4",
          "midi": 67,
          "time": 130.7499999999998,
          "velocity": 0.5039370078740157,
          "duration": 0.15000000000000568
        },
        {
          "name": "D3",
          "midi": 50,
          "time": 130.7499999999998,
          "velocity": 0.6692913385826772,
          "duration": 0.15000000000000568
        },
        {
          "name": "G3",
          "midi": 55,
          "time": 130.7499999999998,
          "velocity": 0.6692913385826772,
          "duration": 0.15000000000000568
        },
        {
          "name": "D4",
          "midi": 62,
          "time": 130.7499999999998,
          "velocity": 0.5039370078740157,
          "duration": 0.15000000000000568
        },
        {
          "name": "D3",
          "midi": 50,
          "time": 130.9999999999998,
          "velocity": 0.6692913385826772,
          "duration": 0.15000000000000568
        },
        {
          "name": "G4",
          "midi": 67,
          "time": 130.9999999999998,
          "velocity": 0.5039370078740157,
          "duration": 0.15000000000000568
        },
        {
          "name": "G3",
          "midi": 55,
          "time": 130.9999999999998,
          "velocity": 0.6692913385826772,
          "duration": 0.15000000000000568
        },
        {
          "name": "D4",
          "midi": 62,
          "time": 130.9999999999998,
          "velocity": 0.5039370078740157,
          "duration": 0.15000000000000568
        },
        {
          "name": "D3",
          "midi": 50,
          "time": 131.2499999999998,
          "velocity": 0.6692913385826772,
          "duration": 0.15000000000000568
        },
        {
          "name": "G3",
          "midi": 55,
          "time": 131.2499999999998,
          "velocity": 0.6692913385826772,
          "duration": 0.15000000000000568
        },
        {
          "name": "G4",
          "midi": 67,
          "time": 131.2499999999998,
          "velocity": 0.5039370078740157,
          "duration": 0.15000000000000568
        },
        {
          "name": "D4",
          "midi": 62,
          "time": 131.2499999999998,
          "velocity": 0.5039370078740157,
          "duration": 0.15000000000000568
        },
        {
          "name": "G4",
          "midi": 67,
          "time": 131.4999999999998,
          "velocity": 0.5039370078740157,
          "duration": 0.15000000000000568
        },
        {
          "name": "D3",
          "midi": 50,
          "time": 131.4999999999998,
          "velocity": 0.6692913385826772,
          "duration": 0.15000000000000568
        },
        {
          "name": "D4",
          "midi": 62,
          "time": 131.4999999999998,
          "velocity": 0.5039370078740157,
          "duration": 0.15000000000000568
        },
        {
          "name": "G3",
          "midi": 55,
          "time": 131.4999999999998,
          "velocity": 0.6692913385826772,
          "duration": 0.15000000000000568
        },
        {
          "name": "G3",
          "midi": 55,
          "time": 131.7499999999998,
          "velocity": 0.6692913385826772,
          "duration": 0.15000000000000568
        },
        {
          "name": "D3",
          "midi": 50,
          "time": 131.7499999999998,
          "velocity": 0.6692913385826772,
          "duration": 0.15000000000000568
        },
        {
          "name": "G4",
          "midi": 67,
          "time": 131.7499999999998,
          "velocity": 0.5039370078740157,
          "duration": 0.15000000000000568
        },
        {
          "name": "D4",
          "midi": 62,
          "time": 131.7499999999998,
          "velocity": 0.5039370078740157,
          "duration": 0.15000000000000568
        },
        {
          "name": "F3",
          "midi": 53,
          "time": 131.9999999999998,
          "velocity": 0.6692913385826772,
          "duration": 0.15000000000000568
        },
        {
          "name": "A#3",
          "midi": 58,
          "time": 131.9999999999998,
          "velocity": 0.6692913385826772,
          "duration": 0.15000000000000568
        },
        {
          "name": "A#4",
          "midi": 70,
          "time": 131.9999999999998,
          "velocity": 0.5039370078740157,
          "duration": 0.15000000000000568
        },
        {
          "name": "F4",
          "midi": 65,
          "time": 131.9999999999998,
          "velocity": 0.5039370078740157,
          "duration": 0.15000000000000568
        },
        {
          "name": "A#3",
          "midi": 58,
          "time": 132.2499999999998,
          "velocity": 0.6692913385826772,
          "duration": 0.15000000000000568
        },
        {
          "name": "A#4",
          "midi": 70,
          "time": 132.2499999999998,
          "velocity": 0.5039370078740157,
          "duration": 0.15000000000000568
        },
        {
          "name": "F3",
          "midi": 53,
          "time": 132.2499999999998,
          "velocity": 0.6692913385826772,
          "duration": 0.15000000000000568
        },
        {
          "name": "F4",
          "midi": 65,
          "time": 132.2499999999998,
          "velocity": 0.5039370078740157,
          "duration": 0.15000000000000568
        },
        {
          "name": "F3",
          "midi": 53,
          "time": 132.4999999999998,
          "velocity": 0.6692913385826772,
          "duration": 0.15000000000000568
        },
        {
          "name": "F4",
          "midi": 65,
          "time": 132.4999999999998,
          "velocity": 0.5039370078740157,
          "duration": 0.15000000000000568
        },
        {
          "name": "A#3",
          "midi": 58,
          "time": 132.4999999999998,
          "velocity": 0.6692913385826772,
          "duration": 0.15000000000000568
        },
        {
          "name": "A#4",
          "midi": 70,
          "time": 132.4999999999998,
          "velocity": 0.5039370078740157,
          "duration": 0.15000000000000568
        },
        {
          "name": "F4",
          "midi": 65,
          "time": 132.7499999999998,
          "velocity": 0.5039370078740157,
          "duration": 0.15000000000000568
        },
        {
          "name": "A#4",
          "midi": 70,
          "time": 132.7499999999998,
          "velocity": 0.5039370078740157,
          "duration": 0.15000000000000568
        },
        {
          "name": "A#3",
          "midi": 58,
          "time": 132.7499999999998,
          "velocity": 0.6692913385826772,
          "duration": 0.15000000000000568
        },
        {
          "name": "F3",
          "midi": 53,
          "time": 132.7499999999998,
          "velocity": 0.6692913385826772,
          "duration": 0.15000000000000568
        },
        {
          "name": "A#4",
          "midi": 70,
          "time": 132.9999999999998,
          "velocity": 0.5039370078740157,
          "duration": 0.15000000000000568
        },
        {
          "name": "F4",
          "midi": 65,
          "time": 132.9999999999998,
          "velocity": 0.5039370078740157,
          "duration": 0.15000000000000568
        },
        {
          "name": "F3",
          "midi": 53,
          "time": 132.9999999999998,
          "velocity": 0.6692913385826772,
          "duration": 0.15000000000000568
        },
        {
          "name": "A#3",
          "midi": 58,
          "time": 132.9999999999998,
          "velocity": 0.6692913385826772,
          "duration": 0.15000000000000568
        },
        {
          "name": "F3",
          "midi": 53,
          "time": 133.2499999999998,
          "velocity": 0.6692913385826772,
          "duration": 0.15000000000000568
        },
        {
          "name": "A#3",
          "midi": 58,
          "time": 133.2499999999998,
          "velocity": 0.6692913385826772,
          "duration": 0.15000000000000568
        },
        {
          "name": "F4",
          "midi": 65,
          "time": 133.2499999999998,
          "velocity": 0.5039370078740157,
          "duration": 0.15000000000000568
        },
        {
          "name": "A#4",
          "midi": 70,
          "time": 133.2499999999998,
          "velocity": 0.5039370078740157,
          "duration": 0.15000000000000568
        },
        {
          "name": "A#3",
          "midi": 58,
          "time": 133.4999999999998,
          "velocity": 0.6692913385826772,
          "duration": 0.15000000000000568
        },
        {
          "name": "F4",
          "midi": 65,
          "time": 133.4999999999998,
          "velocity": 0.5039370078740157,
          "duration": 0.15000000000000568
        },
        {
          "name": "F3",
          "midi": 53,
          "time": 133.4999999999998,
          "velocity": 0.6692913385826772,
          "duration": 0.15000000000000568
        },
        {
          "name": "A#4",
          "midi": 70,
          "time": 133.4999999999998,
          "velocity": 0.5039370078740157,
          "duration": 0.15000000000000568
        },
        {
          "name": "F4",
          "midi": 65,
          "time": 133.7499999999998,
          "velocity": 0.5039370078740157,
          "duration": 0.15000000000000568
        },
        {
          "name": "A#4",
          "midi": 70,
          "time": 133.7499999999998,
          "velocity": 0.5039370078740157,
          "duration": 0.15000000000000568
        },
        {
          "name": "A#3",
          "midi": 58,
          "time": 133.7499999999998,
          "velocity": 0.6692913385826772,
          "duration": 0.15000000000000568
        },
        {
          "name": "F3",
          "midi": 53,
          "time": 133.7499999999998,
          "velocity": 0.6692913385826772,
          "duration": 0.15000000000000568
        },
        {
          "name": "C3",
          "midi": 48,
          "time": 133.9999999999998,
          "velocity": 0.6692913385826772,
          "duration": 0.15000000000000568
        },
        {
          "name": "F3",
          "midi": 53,
          "time": 133.9999999999998,
          "velocity": 0.6692913385826772,
          "duration": 0.15000000000000568
        },
        {
          "name": "F4",
          "midi": 65,
          "time": 133.9999999999998,
          "velocity": 0.5039370078740157,
          "duration": 0.15000000000000568
        },
        {
          "name": "C4",
          "midi": 60,
          "time": 133.9999999999998,
          "velocity": 0.5039370078740157,
          "duration": 0.15000000000000568
        },
        {
          "name": "F4",
          "midi": 65,
          "time": 134.2499999999998,
          "velocity": 0.5039370078740157,
          "duration": 0.15000000000000568
        },
        {
          "name": "C3",
          "midi": 48,
          "time": 134.2499999999998,
          "velocity": 0.6692913385826772,
          "duration": 0.15000000000000568
        },
        {
          "name": "F3",
          "midi": 53,
          "time": 134.2499999999998,
          "velocity": 0.6692913385826772,
          "duration": 0.15000000000000568
        },
        {
          "name": "C4",
          "midi": 60,
          "time": 134.2499999999998,
          "velocity": 0.5039370078740157,
          "duration": 0.15000000000000568
        },
        {
          "name": "F3",
          "midi": 53,
          "time": 134.4999999999998,
          "velocity": 0.6692913385826772,
          "duration": 0.15000000000000568
        },
        {
          "name": "F4",
          "midi": 65,
          "time": 134.4999999999998,
          "velocity": 0.5039370078740157,
          "duration": 0.15000000000000568
        },
        {
          "name": "C3",
          "midi": 48,
          "time": 134.4999999999998,
          "velocity": 0.6692913385826772,
          "duration": 0.15000000000000568
        },
        {
          "name": "C4",
          "midi": 60,
          "time": 134.4999999999998,
          "velocity": 0.5039370078740157,
          "duration": 0.15000000000000568
        },
        {
          "name": "C4",
          "midi": 60,
          "time": 134.7499999999998,
          "velocity": 0.5039370078740157,
          "duration": 0.15000000000000568
        },
        {
          "name": "F3",
          "midi": 53,
          "time": 134.7499999999998,
          "velocity": 0.6692913385826772,
          "duration": 0.15000000000000568
        },
        {
          "name": "C3",
          "midi": 48,
          "time": 134.7499999999998,
          "velocity": 0.6692913385826772,
          "duration": 0.15000000000000568
        },
        {
          "name": "F4",
          "midi": 65,
          "time": 134.7499999999998,
          "velocity": 0.5039370078740157,
          "duration": 0.15000000000000568
        },
        {
          "name": "C4",
          "midi": 60,
          "time": 134.9999999999998,
          "velocity": 0.5039370078740157,
          "duration": 0.15000000000000568
        },
        {
          "name": "F3",
          "midi": 53,
          "time": 134.9999999999998,
          "velocity": 0.6692913385826772,
          "duration": 0.15000000000000568
        },
        {
          "name": "C3",
          "midi": 48,
          "time": 134.9999999999998,
          "velocity": 0.6692913385826772,
          "duration": 0.15000000000000568
        },
        {
          "name": "F4",
          "midi": 65,
          "time": 134.9999999999998,
          "velocity": 0.5039370078740157,
          "duration": 0.15000000000000568
        },
        {
          "name": "F3",
          "midi": 53,
          "time": 135.2499999999998,
          "velocity": 0.6692913385826772,
          "duration": 0.15000000000000568
        },
        {
          "name": "F4",
          "midi": 65,
          "time": 135.2499999999998,
          "velocity": 0.5039370078740157,
          "duration": 0.15000000000000568
        },
        {
          "name": "C4",
          "midi": 60,
          "time": 135.2499999999998,
          "velocity": 0.5039370078740157,
          "duration": 0.15000000000000568
        },
        {
          "name": "C3",
          "midi": 48,
          "time": 135.2499999999998,
          "velocity": 0.6692913385826772,
          "duration": 0.15000000000000568
        },
        {
          "name": "F3",
          "midi": 53,
          "time": 135.4999999999998,
          "velocity": 0.6692913385826772,
          "duration": 0.15000000000000568
        },
        {
          "name": "F4",
          "midi": 65,
          "time": 135.4999999999998,
          "velocity": 0.5039370078740157,
          "duration": 0.15000000000000568
        },
        {
          "name": "C3",
          "midi": 48,
          "time": 135.4999999999998,
          "velocity": 0.6692913385826772,
          "duration": 0.15000000000000568
        },
        {
          "name": "C4",
          "midi": 60,
          "time": 135.4999999999998,
          "velocity": 0.5039370078740157,
          "duration": 0.15000000000000568
        },
        {
          "name": "C4",
          "midi": 60,
          "time": 135.7499999999998,
          "velocity": 0.5039370078740157,
          "duration": 0.15000000000000568
        },
        {
          "name": "F4",
          "midi": 65,
          "time": 135.7499999999998,
          "velocity": 0.5039370078740157,
          "duration": 0.15000000000000568
        },
        {
          "name": "C3",
          "midi": 48,
          "time": 135.7499999999998,
          "velocity": 0.6692913385826772,
          "duration": 0.15000000000000568
        },
        {
          "name": "F3",
          "midi": 53,
          "time": 135.7499999999998,
          "velocity": 0.6692913385826772,
          "duration": 0.15000000000000568
        },
        {
          "name": "C3",
          "midi": 48,
          "time": 135.9999999999998,
          "velocity": 0.6692913385826772,
          "duration": 0.15000000000000568
        },
        {
          "name": "C4",
          "midi": 60,
          "time": 135.9999999999998,
          "velocity": 0.5039370078740157,
          "duration": 0.15000000000000568
        },
        {
          "name": "G3",
          "midi": 55,
          "time": 135.9999999999998,
          "velocity": 0.6692913385826772,
          "duration": 0.15000000000000568
        },
        {
          "name": "G4",
          "midi": 67,
          "time": 135.9999999999998,
          "velocity": 0.5039370078740157,
          "duration": 0.15000000000000568
        },
        {
          "name": "C3",
          "midi": 48,
          "time": 136.2499999999998,
          "velocity": 0.6692913385826772,
          "duration": 0.15000000000000568
        },
        {
          "name": "G4",
          "midi": 67,
          "time": 136.2499999999998,
          "velocity": 0.5039370078740157,
          "duration": 0.15000000000000568
        },
        {
          "name": "G3",
          "midi": 55,
          "time": 136.2499999999998,
          "velocity": 0.6692913385826772,
          "duration": 0.15000000000000568
        },
        {
          "name": "C4",
          "midi": 60,
          "time": 136.2499999999998,
          "velocity": 0.5039370078740157,
          "duration": 0.15000000000000568
        },
        {
          "name": "G4",
          "midi": 67,
          "time": 136.4999999999998,
          "velocity": 0.5039370078740157,
          "duration": 0.15000000000000568
        },
        {
          "name": "G3",
          "midi": 55,
          "time": 136.4999999999998,
          "velocity": 0.6692913385826772,
          "duration": 0.15000000000000568
        },
        {
          "name": "C4",
          "midi": 60,
          "time": 136.4999999999998,
          "velocity": 0.5039370078740157,
          "duration": 0.15000000000000568
        },
        {
          "name": "C3",
          "midi": 48,
          "time": 136.4999999999998,
          "velocity": 0.6692913385826772,
          "duration": 0.15000000000000568
        },
        {
          "name": "C3",
          "midi": 48,
          "time": 136.7499999999998,
          "velocity": 0.6692913385826772,
          "duration": 0.15000000000000568
        },
        {
          "name": "G4",
          "midi": 67,
          "time": 136.7499999999998,
          "velocity": 0.5039370078740157,
          "duration": 0.15000000000000568
        },
        {
          "name": "C4",
          "midi": 60,
          "time": 136.7499999999998,
          "velocity": 0.5039370078740157,
          "duration": 0.15000000000000568
        },
        {
          "name": "G3",
          "midi": 55,
          "time": 136.7499999999998,
          "velocity": 0.6692913385826772,
          "duration": 0.15000000000000568
        },
        {
          "name": "C4",
          "midi": 60,
          "time": 136.9999999999998,
          "velocity": 0.5039370078740157,
          "duration": 0.15000000000000568
        },
        {
          "name": "C3",
          "midi": 48,
          "time": 136.9999999999998,
          "velocity": 0.6692913385826772,
          "duration": 0.15000000000000568
        },
        {
          "name": "G4",
          "midi": 67,
          "time": 136.9999999999998,
          "velocity": 0.5039370078740157,
          "duration": 0.15000000000000568
        },
        {
          "name": "G3",
          "midi": 55,
          "time": 136.9999999999998,
          "velocity": 0.6692913385826772,
          "duration": 0.15000000000000568
        },
        {
          "name": "G4",
          "midi": 67,
          "time": 137.2499999999998,
          "velocity": 0.5039370078740157,
          "duration": 0.15000000000000568
        },
        {
          "name": "G3",
          "midi": 55,
          "time": 137.2499999999998,
          "velocity": 0.6692913385826772,
          "duration": 0.15000000000000568
        },
        {
          "name": "C3",
          "midi": 48,
          "time": 137.2499999999998,
          "velocity": 0.6692913385826772,
          "duration": 0.15000000000000568
        },
        {
          "name": "C4",
          "midi": 60,
          "time": 137.2499999999998,
          "velocity": 0.5039370078740157,
          "duration": 0.15000000000000568
        },
        {
          "name": "C3",
          "midi": 48,
          "time": 137.4999999999998,
          "velocity": 0.6692913385826772,
          "duration": 0.15000000000000568
        },
        {
          "name": "C4",
          "midi": 60,
          "time": 137.4999999999998,
          "velocity": 0.5039370078740157,
          "duration": 0.15000000000000568
        },
        {
          "name": "G4",
          "midi": 67,
          "time": 137.4999999999998,
          "velocity": 0.5039370078740157,
          "duration": 0.15000000000000568
        },
        {
          "name": "G3",
          "midi": 55,
          "time": 137.4999999999998,
          "velocity": 0.6692913385826772,
          "duration": 0.15000000000000568
        },
        {
          "name": "C3",
          "midi": 48,
          "time": 137.7499999999998,
          "velocity": 0.6692913385826772,
          "duration": 0.15000000000000568
        },
        {
          "name": "G4",
          "midi": 67,
          "time": 137.7499999999998,
          "velocity": 0.5039370078740157,
          "duration": 0.15000000000000568
        },
        {
          "name": "C4",
          "midi": 60,
          "time": 137.7499999999998,
          "velocity": 0.5039370078740157,
          "duration": 0.15000000000000568
        },
        {
          "name": "G3",
          "midi": 55,
          "time": 137.7499999999998,
          "velocity": 0.6692913385826772,
          "duration": 0.15000000000000568
        },
        {
          "name": "D4",
          "midi": 62,
          "time": 137.9999999999998,
          "velocity": 0.5039370078740157,
          "duration": 0.15000000000000568
        },
        {
          "name": "G4",
          "midi": 67,
          "time": 137.9999999999998,
          "velocity": 0.5039370078740157,
          "duration": 0.15000000000000568
        },
        {
          "name": "D3",
          "midi": 50,
          "time": 137.9999999999998,
          "velocity": 0.6692913385826772,
          "duration": 0.15000000000000568
        },
        {
          "name": "G3",
          "midi": 55,
          "time": 137.9999999999998,
          "velocity": 0.6692913385826772,
          "duration": 0.15000000000000568
        },
        {
          "name": "D3",
          "midi": 50,
          "time": 138.2499999999998,
          "velocity": 0.6692913385826772,
          "duration": 0.15000000000000568
        },
        {
          "name": "G3",
          "midi": 55,
          "time": 138.2499999999998,
          "velocity": 0.6692913385826772,
          "duration": 0.15000000000000568
        },
        {
          "name": "D4",
          "midi": 62,
          "time": 138.2499999999998,
          "velocity": 0.5039370078740157,
          "duration": 0.15000000000000568
        },
        {
          "name": "G4",
          "midi": 67,
          "time": 138.2499999999998,
          "velocity": 0.5039370078740157,
          "duration": 0.15000000000000568
        },
        {
          "name": "D4",
          "midi": 62,
          "time": 138.4999999999998,
          "velocity": 0.5039370078740157,
          "duration": 0.15000000000000568
        },
        {
          "name": "G3",
          "midi": 55,
          "time": 138.4999999999998,
          "velocity": 0.6692913385826772,
          "duration": 0.15000000000000568
        },
        {
          "name": "G4",
          "midi": 67,
          "time": 138.4999999999998,
          "velocity": 0.5039370078740157,
          "duration": 0.15000000000000568
        },
        {
          "name": "D3",
          "midi": 50,
          "time": 138.4999999999998,
          "velocity": 0.6692913385826772,
          "duration": 0.15000000000000568
        },
        {
          "name": "G3",
          "midi": 55,
          "time": 138.7499999999998,
          "velocity": 0.6692913385826772,
          "duration": 0.15000000000000568
        },
        {
          "name": "D3",
          "midi": 50,
          "time": 138.7499999999998,
          "velocity": 0.6692913385826772,
          "duration": 0.15000000000000568
        },
        {
          "name": "D4",
          "midi": 62,
          "time": 138.7499999999998,
          "velocity": 0.5039370078740157,
          "duration": 0.15000000000000568
        },
        {
          "name": "G4",
          "midi": 67,
          "time": 138.7499999999998,
          "velocity": 0.5039370078740157,
          "duration": 0.15000000000000568
        },
        {
          "name": "G3",
          "midi": 55,
          "time": 138.9999999999998,
          "velocity": 0.6692913385826772,
          "duration": 0.15000000000000568
        },
        {
          "name": "G4",
          "midi": 67,
          "time": 138.9999999999998,
          "velocity": 0.5039370078740157,
          "duration": 0.15000000000000568
        },
        {
          "name": "D4",
          "midi": 62,
          "time": 138.9999999999998,
          "velocity": 0.5039370078740157,
          "duration": 0.15000000000000568
        },
        {
          "name": "D3",
          "midi": 50,
          "time": 138.9999999999998,
          "velocity": 0.6692913385826772,
          "duration": 0.15000000000000568
        },
        {
          "name": "D4",
          "midi": 62,
          "time": 139.2499999999998,
          "velocity": 0.5039370078740157,
          "duration": 0.15000000000000568
        },
        {
          "name": "G3",
          "midi": 55,
          "time": 139.2499999999998,
          "velocity": 0.6692913385826772,
          "duration": 0.15000000000000568
        },
        {
          "name": "G4",
          "midi": 67,
          "time": 139.2499999999998,
          "velocity": 0.5039370078740157,
          "duration": 0.15000000000000568
        },
        {
          "name": "D3",
          "midi": 50,
          "time": 139.2499999999998,
          "velocity": 0.6692913385826772,
          "duration": 0.15000000000000568
        },
        {
          "name": "D3",
          "midi": 50,
          "time": 139.4999999999998,
          "velocity": 0.6692913385826772,
          "duration": 0.15000000000000568
        },
        {
          "name": "G3",
          "midi": 55,
          "time": 139.4999999999998,
          "velocity": 0.6692913385826772,
          "duration": 0.15000000000000568
        },
        {
          "name": "D4",
          "midi": 62,
          "time": 139.4999999999998,
          "velocity": 0.5039370078740157,
          "duration": 0.15000000000000568
        },
        {
          "name": "G4",
          "midi": 67,
          "time": 139.4999999999998,
          "velocity": 0.5039370078740157,
          "duration": 0.15000000000000568
        },
        {
          "name": "G4",
          "midi": 67,
          "time": 139.7499999999998,
          "velocity": 0.5039370078740157,
          "duration": 0.15000000000000568
        },
        {
          "name": "D3",
          "midi": 50,
          "time": 139.7499999999998,
          "velocity": 0.6692913385826772,
          "duration": 0.15000000000000568
        },
        {
          "name": "G3",
          "midi": 55,
          "time": 139.7499999999998,
          "velocity": 0.6692913385826772,
          "duration": 0.15000000000000568
        },
        {
          "name": "D4",
          "midi": 62,
          "time": 139.7499999999998,
          "velocity": 0.5039370078740157,
          "duration": 0.15000000000000568
        },
        {
          "name": "F3",
          "midi": 53,
          "time": 139.9999999999998,
          "velocity": 0.6692913385826772,
          "duration": 0.15000000000000568
        },
        {
          "name": "F4",
          "midi": 65,
          "time": 139.9999999999998,
          "velocity": 0.5039370078740157,
          "duration": 0.15000000000000568
        },
        {
          "name": "A#4",
          "midi": 70,
          "time": 139.9999999999998,
          "velocity": 0.5039370078740157,
          "duration": 0.15000000000000568
        },
        {
          "name": "A#3",
          "midi": 58,
          "time": 139.9999999999998,
          "velocity": 0.6692913385826772,
          "duration": 0.15000000000000568
        },
        {
          "name": "F3",
          "midi": 53,
          "time": 140.2499999999998,
          "velocity": 0.6692913385826772,
          "duration": 0.15000000000000568
        },
        {
          "name": "A#4",
          "midi": 70,
          "time": 140.2499999999998,
          "velocity": 0.5039370078740157,
          "duration": 0.15000000000000568
        },
        {
          "name": "A#3",
          "midi": 58,
          "time": 140.2499999999998,
          "velocity": 0.6692913385826772,
          "duration": 0.15000000000000568
        },
        {
          "name": "F4",
          "midi": 65,
          "time": 140.2499999999998,
          "velocity": 0.5039370078740157,
          "duration": 0.15000000000000568
        },
        {
          "name": "F3",
          "midi": 53,
          "time": 140.4999999999998,
          "velocity": 0.6692913385826772,
          "duration": 0.15000000000000568
        },
        {
          "name": "A#4",
          "midi": 70,
          "time": 140.4999999999998,
          "velocity": 0.5039370078740157,
          "duration": 0.15000000000000568
        },
        {
          "name": "A#3",
          "midi": 58,
          "time": 140.4999999999998,
          "velocity": 0.6692913385826772,
          "duration": 0.15000000000000568
        },
        {
          "name": "F4",
          "midi": 65,
          "time": 140.4999999999998,
          "velocity": 0.5039370078740157,
          "duration": 0.15000000000000568
        },
        {
          "name": "A#4",
          "midi": 70,
          "time": 140.7499999999998,
          "velocity": 0.5039370078740157,
          "duration": 0.15000000000000568
        },
        {
          "name": "F3",
          "midi": 53,
          "time": 140.7499999999998,
          "velocity": 0.6692913385826772,
          "duration": 0.15000000000000568
        },
        {
          "name": "F4",
          "midi": 65,
          "time": 140.7499999999998,
          "velocity": 0.5039370078740157,
          "duration": 0.15000000000000568
        },
        {
          "name": "A#3",
          "midi": 58,
          "time": 140.7499999999998,
          "velocity": 0.6692913385826772,
          "duration": 0.15000000000000568
        },
        {
          "name": "F4",
          "midi": 65,
          "time": 140.9999999999998,
          "velocity": 0.5039370078740157,
          "duration": 0.15000000000000568
        },
        {
          "name": "A#4",
          "midi": 70,
          "time": 140.9999999999998,
          "velocity": 0.5039370078740157,
          "duration": 0.15000000000000568
        },
        {
          "name": "F3",
          "midi": 53,
          "time": 140.9999999999998,
          "velocity": 0.6692913385826772,
          "duration": 0.15000000000000568
        },
        {
          "name": "A#3",
          "midi": 58,
          "time": 140.9999999999998,
          "velocity": 0.6692913385826772,
          "duration": 0.15000000000000568
        },
        {
          "name": "F4",
          "midi": 65,
          "time": 141.2499999999998,
          "velocity": 0.5039370078740157,
          "duration": 0.15000000000000568
        },
        {
          "name": "A#3",
          "midi": 58,
          "time": 141.2499999999998,
          "velocity": 0.6692913385826772,
          "duration": 0.15000000000000568
        },
        {
          "name": "F3",
          "midi": 53,
          "time": 141.2499999999998,
          "velocity": 0.6692913385826772,
          "duration": 0.15000000000000568
        },
        {
          "name": "A#4",
          "midi": 70,
          "time": 141.2499999999998,
          "velocity": 0.5039370078740157,
          "duration": 0.15000000000000568
        },
        {
          "name": "F3",
          "midi": 53,
          "time": 141.4999999999998,
          "velocity": 0.6692913385826772,
          "duration": 0.15000000000000568
        },
        {
          "name": "F4",
          "midi": 65,
          "time": 141.4999999999998,
          "velocity": 0.5039370078740157,
          "duration": 0.15000000000000568
        },
        {
          "name": "A#3",
          "midi": 58,
          "time": 141.4999999999998,
          "velocity": 0.6692913385826772,
          "duration": 0.15000000000000568
        },
        {
          "name": "A#4",
          "midi": 70,
          "time": 141.4999999999998,
          "velocity": 0.5039370078740157,
          "duration": 0.15000000000000568
        },
        {
          "name": "F3",
          "midi": 53,
          "time": 141.7499999999998,
          "velocity": 0.6692913385826772,
          "duration": 0.15000000000000568
        },
        {
          "name": "A#4",
          "midi": 70,
          "time": 141.7499999999998,
          "velocity": 0.5039370078740157,
          "duration": 0.15000000000000568
        },
        {
          "name": "F4",
          "midi": 65,
          "time": 141.7499999999998,
          "velocity": 0.5039370078740157,
          "duration": 0.15000000000000568
        },
        {
          "name": "A#3",
          "midi": 58,
          "time": 141.7499999999998,
          "velocity": 0.6692913385826772,
          "duration": 0.15000000000000568
        },
        {
          "name": "C4",
          "midi": 60,
          "time": 141.9999999999998,
          "velocity": 0.5039370078740157,
          "duration": 0.15000000000000568
        },
        {
          "name": "F4",
          "midi": 65,
          "time": 141.9999999999998,
          "velocity": 0.5039370078740157,
          "duration": 0.15000000000000568
        },
        {
          "name": "F3",
          "midi": 53,
          "time": 141.9999999999998,
          "velocity": 0.6692913385826772,
          "duration": 0.15000000000000568
        },
        {
          "name": "C3",
          "midi": 48,
          "time": 141.9999999999998,
          "velocity": 0.6692913385826772,
          "duration": 0.15000000000000568
        },
        {
          "name": "F3",
          "midi": 53,
          "time": 142.2499999999998,
          "velocity": 0.6692913385826772,
          "duration": 0.15000000000000568
        },
        {
          "name": "C4",
          "midi": 60,
          "time": 142.2499999999998,
          "velocity": 0.5039370078740157,
          "duration": 0.15000000000000568
        },
        {
          "name": "F4",
          "midi": 65,
          "time": 142.2499999999998,
          "velocity": 0.5039370078740157,
          "duration": 0.15000000000000568
        },
        {
          "name": "C3",
          "midi": 48,
          "time": 142.2499999999998,
          "velocity": 0.6692913385826772,
          "duration": 0.15000000000000568
        },
        {
          "name": "F3",
          "midi": 53,
          "time": 142.4999999999998,
          "velocity": 0.6692913385826772,
          "duration": 0.15000000000000568
        },
        {
          "name": "C3",
          "midi": 48,
          "time": 142.4999999999998,
          "velocity": 0.6692913385826772,
          "duration": 0.15000000000000568
        },
        {
          "name": "F4",
          "midi": 65,
          "time": 142.4999999999998,
          "velocity": 0.5039370078740157,
          "duration": 0.15000000000000568
        },
        {
          "name": "C4",
          "midi": 60,
          "time": 142.4999999999998,
          "velocity": 0.5039370078740157,
          "duration": 0.15000000000000568
        },
        {
          "name": "F3",
          "midi": 53,
          "time": 142.7499999999998,
          "velocity": 0.6692913385826772,
          "duration": 0.15000000000000568
        },
        {
          "name": "F4",
          "midi": 65,
          "time": 142.7499999999998,
          "velocity": 0.5039370078740157,
          "duration": 0.15000000000000568
        },
        {
          "name": "C4",
          "midi": 60,
          "time": 142.7499999999998,
          "velocity": 0.5039370078740157,
          "duration": 0.15000000000000568
        },
        {
          "name": "C3",
          "midi": 48,
          "time": 142.7499999999998,
          "velocity": 0.6692913385826772,
          "duration": 0.15000000000000568
        },
        {
          "name": "F4",
          "midi": 65,
          "time": 142.9999999999998,
          "velocity": 0.5039370078740157,
          "duration": 0.15000000000000568
        },
        {
          "name": "C3",
          "midi": 48,
          "time": 142.9999999999998,
          "velocity": 0.6692913385826772,
          "duration": 0.15000000000000568
        },
        {
          "name": "C4",
          "midi": 60,
          "time": 142.9999999999998,
          "velocity": 0.5039370078740157,
          "duration": 0.15000000000000568
        },
        {
          "name": "F3",
          "midi": 53,
          "time": 142.9999999999998,
          "velocity": 0.6692913385826772,
          "duration": 0.15000000000000568
        },
        {
          "name": "C4",
          "midi": 60,
          "time": 143.2499999999998,
          "velocity": 0.5039370078740157,
          "duration": 0.15000000000000568
        },
        {
          "name": "F4",
          "midi": 65,
          "time": 143.2499999999998,
          "velocity": 0.5039370078740157,
          "duration": 0.15000000000000568
        },
        {
          "name": "C3",
          "midi": 48,
          "time": 143.2499999999998,
          "velocity": 0.6692913385826772,
          "duration": 0.15000000000000568
        },
        {
          "name": "F3",
          "midi": 53,
          "time": 143.2499999999998,
          "velocity": 0.6692913385826772,
          "duration": 0.15000000000000568
        },
        {
          "name": "C3",
          "midi": 48,
          "time": 143.4999999999998,
          "velocity": 0.6692913385826772,
          "duration": 0.15000000000000568
        },
        {
          "name": "F4",
          "midi": 65,
          "time": 143.4999999999998,
          "velocity": 0.5039370078740157,
          "duration": 0.15000000000000568
        },
        {
          "name": "C4",
          "midi": 60,
          "time": 143.4999999999998,
          "velocity": 0.5039370078740157,
          "duration": 0.15000000000000568
        },
        {
          "name": "F3",
          "midi": 53,
          "time": 143.4999999999998,
          "velocity": 0.6692913385826772,
          "duration": 0.15000000000000568
        },
        {
          "name": "C3",
          "midi": 48,
          "time": 143.7499999999998,
          "velocity": 0.6692913385826772,
          "duration": 0.15000000000000568
        },
        {
          "name": "F3",
          "midi": 53,
          "time": 143.7499999999998,
          "velocity": 0.6692913385826772,
          "duration": 0.15000000000000568
        },
        {
          "name": "F4",
          "midi": 65,
          "time": 143.7499999999998,
          "velocity": 0.5039370078740157,
          "duration": 0.15000000000000568
        },
        {
          "name": "C4",
          "midi": 60,
          "time": 143.7499999999998,
          "velocity": 0.5039370078740157,
          "duration": 0.15000000000000568
        },
        {
          "name": "C4",
          "midi": 60,
          "time": 143.9999999999998,
          "velocity": 0.6692913385826772,
          "duration": 0.15000000000000568
        },
        {
          "name": "G4",
          "midi": 67,
          "time": 143.9999999999998,
          "velocity": 0.5039370078740157,
          "duration": 0.15000000000000568
        },
        {
          "name": "C5",
          "midi": 72,
          "time": 143.9999999999998,
          "velocity": 0.5039370078740157,
          "duration": 0.15000000000000568
        },
        {
          "name": "G3",
          "midi": 55,
          "time": 143.9999999999998,
          "velocity": 0.6692913385826772,
          "duration": 0.15000000000000568
        },
        {
          "name": "G3",
          "midi": 55,
          "time": 144.2499999999998,
          "velocity": 0.6692913385826772,
          "duration": 0.15000000000000568
        },
        {
          "name": "C4",
          "midi": 60,
          "time": 144.2499999999998,
          "velocity": 0.6692913385826772,
          "duration": 0.15000000000000568
        },
        {
          "name": "G4",
          "midi": 67,
          "time": 144.2499999999998,
          "velocity": 0.5039370078740157,
          "duration": 0.15000000000000568
        },
        {
          "name": "C5",
          "midi": 72,
          "time": 144.2499999999998,
          "velocity": 0.5039370078740157,
          "duration": 0.15000000000000568
        },
        {
          "name": "G4",
          "midi": 67,
          "time": 144.4999999999998,
          "velocity": 0.5039370078740157,
          "duration": 0.15000000000000568
        },
        {
          "name": "G3",
          "midi": 55,
          "time": 144.4999999999998,
          "velocity": 0.6692913385826772,
          "duration": 0.15000000000000568
        },
        {
          "name": "C4",
          "midi": 60,
          "time": 144.4999999999998,
          "velocity": 0.6692913385826772,
          "duration": 0.15000000000000568
        },
        {
          "name": "C5",
          "midi": 72,
          "time": 144.4999999999998,
          "velocity": 0.5039370078740157,
          "duration": 0.15000000000000568
        },
        {
          "name": "C5",
          "midi": 72,
          "time": 144.7499999999998,
          "velocity": 0.5039370078740157,
          "duration": 0.15000000000000568
        },
        {
          "name": "G4",
          "midi": 67,
          "time": 144.7499999999998,
          "velocity": 0.5039370078740157,
          "duration": 0.15000000000000568
        },
        {
          "name": "G3",
          "midi": 55,
          "time": 144.7499999999998,
          "velocity": 0.6692913385826772,
          "duration": 0.15000000000000568
        },
        {
          "name": "C4",
          "midi": 60,
          "time": 144.7499999999998,
          "velocity": 0.6692913385826772,
          "duration": 0.15000000000000568
        },
        {
          "name": "A3",
          "midi": 57,
          "time": 144.9999999999998,
          "velocity": 0.6692913385826772,
          "duration": 0.15000000000000568
        },
        {
          "name": "D4",
          "midi": 62,
          "time": 144.9999999999998,
          "velocity": 0.6692913385826772,
          "duration": 0.15000000000000568
        },
        {
          "name": "D5",
          "midi": 74,
          "time": 144.9999999999998,
          "velocity": 0.5039370078740157,
          "duration": 0.15000000000000568
        },
        {
          "name": "A4",
          "midi": 69,
          "time": 144.9999999999998,
          "velocity": 0.5039370078740157,
          "duration": 0.15000000000000568
        },
        {
          "name": "D5",
          "midi": 74,
          "time": 145.2499999999998,
          "velocity": 0.5039370078740157,
          "duration": 0.15000000000000568
        },
        {
          "name": "D4",
          "midi": 62,
          "time": 145.2499999999998,
          "velocity": 0.6692913385826772,
          "duration": 0.15000000000000568
        },
        {
          "name": "A4",
          "midi": 69,
          "time": 145.2499999999998,
          "velocity": 0.5039370078740157,
          "duration": 0.15000000000000568
        },
        {
          "name": "A3",
          "midi": 57,
          "time": 145.2499999999998,
          "velocity": 0.6692913385826772,
          "duration": 0.15000000000000568
        },
        {
          "name": "D5",
          "midi": 74,
          "time": 145.4999999999998,
          "velocity": 0.5039370078740157,
          "duration": 0.15000000000000568
        },
        {
          "name": "A4",
          "midi": 69,
          "time": 145.4999999999998,
          "velocity": 0.5039370078740157,
          "duration": 0.15000000000000568
        },
        {
          "name": "D4",
          "midi": 62,
          "time": 145.4999999999998,
          "velocity": 0.6692913385826772,
          "duration": 0.15000000000000568
        },
        {
          "name": "A3",
          "midi": 57,
          "time": 145.4999999999998,
          "velocity": 0.6692913385826772,
          "duration": 0.15000000000000568
        },
        {
          "name": "A4",
          "midi": 69,
          "time": 145.7499999999998,
          "velocity": 0.5039370078740157,
          "duration": 0.15000000000000568
        },
        {
          "name": "D5",
          "midi": 74,
          "time": 145.7499999999998,
          "velocity": 0.5039370078740157,
          "duration": 0.15000000000000568
        },
        {
          "name": "A3",
          "midi": 57,
          "time": 145.7499999999998,
          "velocity": 0.6692913385826772,
          "duration": 0.15000000000000568
        },
        {
          "name": "D4",
          "midi": 62,
          "time": 145.7499999999998,
          "velocity": 0.6692913385826772,
          "duration": 0.15000000000000568
        },
        {
          "name": "A#4",
          "midi": 70,
          "time": 145.9999999999998,
          "velocity": 0.5039370078740157,
          "duration": 0.15000000000000568
        },
        {
          "name": "D#4",
          "midi": 63,
          "time": 145.9999999999998,
          "velocity": 0.6692913385826772,
          "duration": 0.15000000000000568
        },
        {
          "name": "D#5",
          "midi": 75,
          "time": 145.9999999999998,
          "velocity": 0.5039370078740157,
          "duration": 0.15000000000000568
        },
        {
          "name": "A#3",
          "midi": 58,
          "time": 145.9999999999998,
          "velocity": 0.6692913385826772,
          "duration": 0.15000000000000568
        },
        {
          "name": "D#5",
          "midi": 75,
          "time": 146.2499999999998,
          "velocity": 0.5039370078740157,
          "duration": 0.15000000000000568
        },
        {
          "name": "A#4",
          "midi": 70,
          "time": 146.2499999999998,
          "velocity": 0.5039370078740157,
          "duration": 0.15000000000000568
        },
        {
          "name": "A#3",
          "midi": 58,
          "time": 146.2499999999998,
          "velocity": 0.6692913385826772,
          "duration": 0.15000000000000568
        },
        {
          "name": "D#4",
          "midi": 63,
          "time": 146.2499999999998,
          "velocity": 0.6692913385826772,
          "duration": 0.15000000000000568
        },
        {
          "name": "A#3",
          "midi": 58,
          "time": 146.4999999999998,
          "velocity": 0.6692913385826772,
          "duration": 0.15000000000000568
        },
        {
          "name": "D#4",
          "midi": 63,
          "time": 146.4999999999998,
          "velocity": 0.6692913385826772,
          "duration": 0.15000000000000568
        },
        {
          "name": "A#4",
          "midi": 70,
          "time": 146.4999999999998,
          "velocity": 0.5039370078740157,
          "duration": 0.15000000000000568
        },
        {
          "name": "D#5",
          "midi": 75,
          "time": 146.4999999999998,
          "velocity": 0.5039370078740157,
          "duration": 0.15000000000000568
        },
        {
          "name": "D#4",
          "midi": 63,
          "time": 146.7499999999998,
          "velocity": 0.6692913385826772,
          "duration": 0.15000000000000568
        },
        {
          "name": "D#5",
          "midi": 75,
          "time": 146.7499999999998,
          "velocity": 0.5039370078740157,
          "duration": 0.15000000000000568
        },
        {
          "name": "A#3",
          "midi": 58,
          "time": 146.7499999999998,
          "velocity": 0.6692913385826772,
          "duration": 0.15000000000000568
        },
        {
          "name": "A#4",
          "midi": 70,
          "time": 146.7499999999998,
          "velocity": 0.5039370078740157,
          "duration": 0.15000000000000568
        },
        {
          "name": "C4",
          "midi": 60,
          "time": 146.9999999999998,
          "velocity": 0.6692913385826772,
          "duration": 0.15000000000000568
        },
        {
          "name": "G4",
          "midi": 67,
          "time": 146.9999999999998,
          "velocity": 0.6692913385826772,
          "duration": 0.15000000000000568
        },
        {
          "name": "F5",
          "midi": 77,
          "time": 146.9999999999998,
          "velocity": 0.5039370078740157,
          "duration": 0.15000000000000568
        },
        {
          "name": "C5",
          "midi": 72,
          "time": 146.9999999999998,
          "velocity": 0.5039370078740157,
          "duration": 0.15000000000000568
        },
        {
          "name": "C4",
          "midi": 60,
          "time": 147.2499999999998,
          "velocity": 0.6692913385826772,
          "duration": 0.15000000000000568
        },
        {
          "name": "F5",
          "midi": 77,
          "time": 147.2499999999998,
          "velocity": 0.5039370078740157,
          "duration": 0.15000000000000568
        },
        {
          "name": "G4",
          "midi": 67,
          "time": 147.2499999999998,
          "velocity": 0.6692913385826772,
          "duration": 0.15000000000000568
        },
        {
          "name": "C5",
          "midi": 72,
          "time": 147.2499999999998,
          "velocity": 0.5039370078740157,
          "duration": 0.15000000000000568
        },
        {
          "name": "F5",
          "midi": 77,
          "time": 147.4999999999998,
          "velocity": 0.5039370078740157,
          "duration": 0.15000000000000568
        },
        {
          "name": "G4",
          "midi": 67,
          "time": 147.4999999999998,
          "velocity": 0.6692913385826772,
          "duration": 0.15000000000000568
        },
        {
          "name": "C5",
          "midi": 72,
          "time": 147.4999999999998,
          "velocity": 0.5039370078740157,
          "duration": 0.15000000000000568
        },
        {
          "name": "C4",
          "midi": 60,
          "time": 147.4999999999998,
          "velocity": 0.6692913385826772,
          "duration": 0.15000000000000568
        },
        {
          "name": "F5",
          "midi": 77,
          "time": 147.7499999999998,
          "velocity": 0.5039370078740157,
          "duration": 0.15000000000000568
        },
        {
          "name": "C5",
          "midi": 72,
          "time": 147.7499999999998,
          "velocity": 0.5039370078740157,
          "duration": 0.15000000000000568
        },
        {
          "name": "C4",
          "midi": 60,
          "time": 147.7499999999998,
          "velocity": 0.6692913385826772,
          "duration": 0.15000000000000568
        },
        {
          "name": "G4",
          "midi": 67,
          "time": 147.7499999999998,
          "velocity": 0.6692913385826772,
          "duration": 0.15000000000000568
        },
        {
          "name": "D3",
          "midi": 50,
          "time": 147.9999999999998,
          "velocity": 0.6692913385826772,
          "duration": 0.15000000000000568
        },
        {
          "name": "D4",
          "midi": 62,
          "time": 147.9999999999998,
          "velocity": 0.6692913385826772,
          "duration": 0.15000000000000568
        },
        {
          "name": "G3",
          "midi": 55,
          "time": 147.9999999999998,
          "velocity": 0.6692913385826772,
          "duration": 0.15000000000000568
        },
        {
          "name": "G4",
          "midi": 67,
          "time": 147.9999999999998,
          "velocity": 0.5039370078740157,
          "duration": 0.15000000000000568
        },
        {
          "name": "G3",
          "midi": 55,
          "time": 148.2499999999998,
          "velocity": 0.6692913385826772,
          "duration": 0.15000000000000568
        },
        {
          "name": "D3",
          "midi": 50,
          "time": 148.2499999999998,
          "velocity": 0.6692913385826772,
          "duration": 0.15000000000000568
        },
        {
          "name": "D4",
          "midi": 62,
          "time": 148.2499999999998,
          "velocity": 0.6692913385826772,
          "duration": 0.15000000000000568
        },
        {
          "name": "G4",
          "midi": 67,
          "time": 148.2499999999998,
          "velocity": 0.5039370078740157,
          "duration": 0.15000000000000568
        },
        {
          "name": "D3",
          "midi": 50,
          "time": 148.4999999999998,
          "velocity": 0.6692913385826772,
          "duration": 0.15000000000000568
        },
        {
          "name": "G3",
          "midi": 55,
          "time": 148.4999999999998,
          "velocity": 0.6692913385826772,
          "duration": 0.15000000000000568
        },
        {
          "name": "G4",
          "midi": 67,
          "time": 148.4999999999998,
          "velocity": 0.5039370078740157,
          "duration": 0.15000000000000568
        },
        {
          "name": "D4",
          "midi": 62,
          "time": 148.4999999999998,
          "velocity": 0.6692913385826772,
          "duration": 0.15000000000000568
        },
        {
          "name": "D3",
          "midi": 50,
          "time": 148.7499999999998,
          "velocity": 0.6692913385826772,
          "duration": 0.15000000000000568
        },
        {
          "name": "G3",
          "midi": 55,
          "time": 148.7499999999998,
          "velocity": 0.6692913385826772,
          "duration": 0.15000000000000568
        },
        {
          "name": "G4",
          "midi": 67,
          "time": 148.7499999999998,
          "velocity": 0.5039370078740157,
          "duration": 0.15000000000000568
        },
        {
          "name": "D4",
          "midi": 62,
          "time": 148.7499999999998,
          "velocity": 0.6692913385826772,
          "duration": 0.15000000000000568
        },
        {
          "name": "G4",
          "midi": 67,
          "time": 148.9999999999998,
          "velocity": 0.5039370078740157,
          "duration": 0.15000000000000568
        },
        {
          "name": "G3",
          "midi": 55,
          "time": 148.9999999999998,
          "velocity": 0.6692913385826772,
          "duration": 0.15000000000000568
        },
        {
          "name": "D4",
          "midi": 62,
          "time": 148.9999999999998,
          "velocity": 0.6692913385826772,
          "duration": 0.15000000000000568
        },
        {
          "name": "D3",
          "midi": 50,
          "time": 148.9999999999998,
          "velocity": 0.6692913385826772,
          "duration": 0.15000000000000568
        },
        {
          "name": "G3",
          "midi": 55,
          "time": 149.2499999999998,
          "velocity": 0.6692913385826772,
          "duration": 0.15000000000000568
        },
        {
          "name": "G4",
          "midi": 67,
          "time": 149.2499999999998,
          "velocity": 0.5039370078740157,
          "duration": 0.15000000000000568
        },
        {
          "name": "D3",
          "midi": 50,
          "time": 149.2499999999998,
          "velocity": 0.6692913385826772,
          "duration": 0.15000000000000568
        },
        {
          "name": "D4",
          "midi": 62,
          "time": 149.2499999999998,
          "velocity": 0.6692913385826772,
          "duration": 0.15000000000000568
        },
        {
          "name": "D4",
          "midi": 62,
          "time": 149.4999999999998,
          "velocity": 0.6692913385826772,
          "duration": 0.15000000000000568
        },
        {
          "name": "D3",
          "midi": 50,
          "time": 149.4999999999998,
          "velocity": 0.6692913385826772,
          "duration": 0.15000000000000568
        },
        {
          "name": "G3",
          "midi": 55,
          "time": 149.4999999999998,
          "velocity": 0.6692913385826772,
          "duration": 0.15000000000000568
        },
        {
          "name": "G4",
          "midi": 67,
          "time": 149.4999999999998,
          "velocity": 0.5039370078740157,
          "duration": 0.15000000000000568
        },
        {
          "name": "G4",
          "midi": 67,
          "time": 149.7499999999998,
          "velocity": 0.5039370078740157,
          "duration": 0.15000000000000568
        },
        {
          "name": "D3",
          "midi": 50,
          "time": 149.7499999999998,
          "velocity": 0.6692913385826772,
          "duration": 0.15000000000000568
        },
        {
          "name": "D4",
          "midi": 62,
          "time": 149.7499999999998,
          "velocity": 0.6692913385826772,
          "duration": 0.15000000000000568
        },
        {
          "name": "G3",
          "midi": 55,
          "time": 149.7499999999998,
          "velocity": 0.6692913385826772,
          "duration": 0.15000000000000568
        },
        {
          "name": "F4",
          "midi": 65,
          "time": 149.9999999999998,
          "velocity": 0.6692913385826772,
          "duration": 0.15000000000000568
        },
        {
          "name": "A#3",
          "midi": 58,
          "time": 149.9999999999998,
          "velocity": 0.6692913385826772,
          "duration": 0.15000000000000568
        },
        {
          "name": "A#4",
          "midi": 70,
          "time": 149.9999999999998,
          "velocity": 0.5039370078740157,
          "duration": 0.15000000000000568
        },
        {
          "name": "F3",
          "midi": 53,
          "time": 149.9999999999998,
          "velocity": 0.6692913385826772,
          "duration": 0.15000000000000568
        },
        {
          "name": "A#4",
          "midi": 70,
          "time": 150.2499999999998,
          "velocity": 0.5039370078740157,
          "duration": 0.15000000000000568
        },
        {
          "name": "F3",
          "midi": 53,
          "time": 150.2499999999998,
          "velocity": 0.6692913385826772,
          "duration": 0.15000000000000568
        },
        {
          "name": "F4",
          "midi": 65,
          "time": 150.2499999999998,
          "velocity": 0.6692913385826772,
          "duration": 0.15000000000000568
        },
        {
          "name": "A#3",
          "midi": 58,
          "time": 150.2499999999998,
          "velocity": 0.6692913385826772,
          "duration": 0.15000000000000568
        },
        {
          "name": "F4",
          "midi": 65,
          "time": 150.4999999999998,
          "velocity": 0.6692913385826772,
          "duration": 0.15000000000000568
        },
        {
          "name": "A#3",
          "midi": 58,
          "time": 150.4999999999998,
          "velocity": 0.6692913385826772,
          "duration": 0.15000000000000568
        },
        {
          "name": "A#4",
          "midi": 70,
          "time": 150.4999999999998,
          "velocity": 0.5039370078740157,
          "duration": 0.15000000000000568
        },
        {
          "name": "F3",
          "midi": 53,
          "time": 150.4999999999998,
          "velocity": 0.6692913385826772,
          "duration": 0.15000000000000568
        },
        {
          "name": "A#3",
          "midi": 58,
          "time": 150.7499999999998,
          "velocity": 0.6692913385826772,
          "duration": 0.15000000000000568
        },
        {
          "name": "F3",
          "midi": 53,
          "time": 150.7499999999998,
          "velocity": 0.6692913385826772,
          "duration": 0.15000000000000568
        },
        {
          "name": "A#4",
          "midi": 70,
          "time": 150.7499999999998,
          "velocity": 0.5039370078740157,
          "duration": 0.15000000000000568
        },
        {
          "name": "F4",
          "midi": 65,
          "time": 150.7499999999998,
          "velocity": 0.6692913385826772,
          "duration": 0.15000000000000568
        },
        {
          "name": "A#3",
          "midi": 58,
          "time": 150.9999999999998,
          "velocity": 0.6692913385826772,
          "duration": 0.15000000000000568
        },
        {
          "name": "F4",
          "midi": 65,
          "time": 150.9999999999998,
          "velocity": 0.6692913385826772,
          "duration": 0.15000000000000568
        },
        {
          "name": "A#4",
          "midi": 70,
          "time": 150.9999999999998,
          "velocity": 0.5039370078740157,
          "duration": 0.15000000000000568
        },
        {
          "name": "F3",
          "midi": 53,
          "time": 150.9999999999998,
          "velocity": 0.6692913385826772,
          "duration": 0.15000000000000568
        },
        {
          "name": "A#4",
          "midi": 70,
          "time": 151.2499999999998,
          "velocity": 0.5039370078740157,
          "duration": 0.15000000000000568
        },
        {
          "name": "F3",
          "midi": 53,
          "time": 151.2499999999998,
          "velocity": 0.6692913385826772,
          "duration": 0.15000000000000568
        },
        {
          "name": "F4",
          "midi": 65,
          "time": 151.2499999999998,
          "velocity": 0.6692913385826772,
          "duration": 0.15000000000000568
        },
        {
          "name": "A#3",
          "midi": 58,
          "time": 151.2499999999998,
          "velocity": 0.6692913385826772,
          "duration": 0.15000000000000568
        },
        {
          "name": "A#3",
          "midi": 58,
          "time": 151.4999999999998,
          "velocity": 0.6692913385826772,
          "duration": 0.15000000000000568
        },
        {
          "name": "F3",
          "midi": 53,
          "time": 151.4999999999998,
          "velocity": 0.6692913385826772,
          "duration": 0.15000000000000568
        },
        {
          "name": "A#4",
          "midi": 70,
          "time": 151.4999999999998,
          "velocity": 0.5039370078740157,
          "duration": 0.15000000000000568
        },
        {
          "name": "F4",
          "midi": 65,
          "time": 151.4999999999998,
          "velocity": 0.6692913385826772,
          "duration": 0.15000000000000568
        },
        {
          "name": "A#4",
          "midi": 70,
          "time": 151.7499999999998,
          "velocity": 0.5039370078740157,
          "duration": 0.15000000000000568
        },
        {
          "name": "F4",
          "midi": 65,
          "time": 151.7499999999998,
          "velocity": 0.6692913385826772,
          "duration": 0.15000000000000568
        },
        {
          "name": "A#3",
          "midi": 58,
          "time": 151.7499999999998,
          "velocity": 0.6692913385826772,
          "duration": 0.15000000000000568
        },
        {
          "name": "F3",
          "midi": 53,
          "time": 151.7499999999998,
          "velocity": 0.6692913385826772,
          "duration": 0.15000000000000568
        },
        {
          "name": "F4",
          "midi": 65,
          "time": 151.9999999999998,
          "velocity": 0.5039370078740157,
          "duration": 0.15000000000000568
        },
        {
          "name": "C4",
          "midi": 60,
          "time": 151.9999999999998,
          "velocity": 0.6692913385826772,
          "duration": 0.15000000000000568
        },
        {
          "name": "F3",
          "midi": 53,
          "time": 151.9999999999998,
          "velocity": 0.6692913385826772,
          "duration": 0.15000000000000568
        },
        {
          "name": "C3",
          "midi": 48,
          "time": 151.9999999999998,
          "velocity": 0.6692913385826772,
          "duration": 0.15000000000000568
        },
        {
          "name": "C4",
          "midi": 60,
          "time": 152.2499999999998,
          "velocity": 0.6692913385826772,
          "duration": 0.15000000000000568
        },
        {
          "name": "F4",
          "midi": 65,
          "time": 152.2499999999998,
          "velocity": 0.5039370078740157,
          "duration": 0.15000000000000568
        },
        {
          "name": "F3",
          "midi": 53,
          "time": 152.2499999999998,
          "velocity": 0.6692913385826772,
          "duration": 0.15000000000000568
        },
        {
          "name": "C3",
          "midi": 48,
          "time": 152.2499999999998,
          "velocity": 0.6692913385826772,
          "duration": 0.15000000000000568
        },
        {
          "name": "F3",
          "midi": 53,
          "time": 152.4999999999998,
          "velocity": 0.6692913385826772,
          "duration": 0.15000000000000568
        },
        {
          "name": "F4",
          "midi": 65,
          "time": 152.4999999999998,
          "velocity": 0.5039370078740157,
          "duration": 0.15000000000000568
        },
        {
          "name": "C3",
          "midi": 48,
          "time": 152.4999999999998,
          "velocity": 0.6692913385826772,
          "duration": 0.15000000000000568
        },
        {
          "name": "C4",
          "midi": 60,
          "time": 152.4999999999998,
          "velocity": 0.6692913385826772,
          "duration": 0.15000000000000568
        },
        {
          "name": "F3",
          "midi": 53,
          "time": 152.7499999999998,
          "velocity": 0.6692913385826772,
          "duration": 0.15000000000000568
        },
        {
          "name": "C4",
          "midi": 60,
          "time": 152.7499999999998,
          "velocity": 0.6692913385826772,
          "duration": 0.15000000000000568
        },
        {
          "name": "F4",
          "midi": 65,
          "time": 152.7499999999998,
          "velocity": 0.5039370078740157,
          "duration": 0.15000000000000568
        },
        {
          "name": "C3",
          "midi": 48,
          "time": 152.7499999999998,
          "velocity": 0.6692913385826772,
          "duration": 0.15000000000000568
        },
        {
          "name": "F4",
          "midi": 65,
          "time": 152.9999999999998,
          "velocity": 0.5039370078740157,
          "duration": 0.15000000000000568
        },
        {
          "name": "F3",
          "midi": 53,
          "time": 152.9999999999998,
          "velocity": 0.6692913385826772,
          "duration": 0.15000000000000568
        },
        {
          "name": "C4",
          "midi": 60,
          "time": 152.9999999999998,
          "velocity": 0.6692913385826772,
          "duration": 0.15000000000000568
        },
        {
          "name": "C3",
          "midi": 48,
          "time": 152.9999999999998,
          "velocity": 0.6692913385826772,
          "duration": 0.15000000000000568
        },
        {
          "name": "F3",
          "midi": 53,
          "time": 153.2499999999998,
          "velocity": 0.6692913385826772,
          "duration": 0.15000000000000568
        },
        {
          "name": "F4",
          "midi": 65,
          "time": 153.2499999999998,
          "velocity": 0.5039370078740157,
          "duration": 0.15000000000000568
        },
        {
          "name": "C4",
          "midi": 60,
          "time": 153.2499999999998,
          "velocity": 0.6692913385826772,
          "duration": 0.15000000000000568
        },
        {
          "name": "C3",
          "midi": 48,
          "time": 153.2499999999998,
          "velocity": 0.6692913385826772,
          "duration": 0.15000000000000568
        },
        {
          "name": "C4",
          "midi": 60,
          "time": 153.4999999999998,
          "velocity": 0.6692913385826772,
          "duration": 0.15000000000000568
        },
        {
          "name": "F3",
          "midi": 53,
          "time": 153.4999999999998,
          "velocity": 0.6692913385826772,
          "duration": 0.15000000000000568
        },
        {
          "name": "F4",
          "midi": 65,
          "time": 153.4999999999998,
          "velocity": 0.5039370078740157,
          "duration": 0.15000000000000568
        },
        {
          "name": "C3",
          "midi": 48,
          "time": 153.4999999999998,
          "velocity": 0.6692913385826772,
          "duration": 0.15000000000000568
        },
        {
          "name": "F3",
          "midi": 53,
          "time": 153.7499999999998,
          "velocity": 0.6692913385826772,
          "duration": 0.15000000000000568
        },
        {
          "name": "C3",
          "midi": 48,
          "time": 153.7499999999998,
          "velocity": 0.6692913385826772,
          "duration": 0.15000000000000568
        },
        {
          "name": "C4",
          "midi": 60,
          "time": 153.7499999999998,
          "velocity": 0.6692913385826772,
          "duration": 0.15000000000000568
        },
        {
          "name": "F4",
          "midi": 65,
          "time": 153.7499999999998,
          "velocity": 0.5039370078740157,
          "duration": 0.15000000000000568
        },
        {
          "name": "G4",
          "midi": 67,
          "time": 153.9999999999998,
          "velocity": 0.5039370078740157,
          "duration": 0.15000000000000568
        },
        {
          "name": "G3",
          "midi": 55,
          "time": 153.9999999999998,
          "velocity": 0.6692913385826772,
          "duration": 0.15000000000000568
        },
        {
          "name": "C3",
          "midi": 48,
          "time": 153.9999999999998,
          "velocity": 0.6692913385826772,
          "duration": 0.15000000000000568
        },
        {
          "name": "C4",
          "midi": 60,
          "time": 153.9999999999998,
          "velocity": 0.6692913385826772,
          "duration": 0.15000000000000568
        },
        {
          "name": "C4",
          "midi": 60,
          "time": 154.2499999999998,
          "velocity": 0.6692913385826772,
          "duration": 0.15000000000000568
        },
        {
          "name": "C3",
          "midi": 48,
          "time": 154.2499999999998,
          "velocity": 0.6692913385826772,
          "duration": 0.15000000000000568
        },
        {
          "name": "G4",
          "midi": 67,
          "time": 154.2499999999998,
          "velocity": 0.5039370078740157,
          "duration": 0.15000000000000568
        },
        {
          "name": "G3",
          "midi": 55,
          "time": 154.2499999999998,
          "velocity": 0.6692913385826772,
          "duration": 0.15000000000000568
        },
        {
          "name": "C3",
          "midi": 48,
          "time": 154.4999999999998,
          "velocity": 0.6692913385826772,
          "duration": 0.15000000000000568
        },
        {
          "name": "G4",
          "midi": 67,
          "time": 154.4999999999998,
          "velocity": 0.5039370078740157,
          "duration": 0.15000000000000568
        },
        {
          "name": "G3",
          "midi": 55,
          "time": 154.4999999999998,
          "velocity": 0.6692913385826772,
          "duration": 0.15000000000000568
        },
        {
          "name": "C4",
          "midi": 60,
          "time": 154.4999999999998,
          "velocity": 0.6692913385826772,
          "duration": 0.15000000000000568
        },
        {
          "name": "G3",
          "midi": 55,
          "time": 154.7499999999998,
          "velocity": 0.6692913385826772,
          "duration": 0.15000000000000568
        },
        {
          "name": "C3",
          "midi": 48,
          "time": 154.7499999999998,
          "velocity": 0.6692913385826772,
          "duration": 0.15000000000000568
        },
        {
          "name": "C4",
          "midi": 60,
          "time": 154.7499999999998,
          "velocity": 0.6692913385826772,
          "duration": 0.15000000000000568
        },
        {
          "name": "G4",
          "midi": 67,
          "time": 154.7499999999998,
          "velocity": 0.5039370078740157,
          "duration": 0.15000000000000568
        },
        {
          "name": "G4",
          "midi": 67,
          "time": 154.9999999999998,
          "velocity": 0.5039370078740157,
          "duration": 0.15000000000000568
        },
        {
          "name": "A3",
          "midi": 57,
          "time": 154.9999999999998,
          "velocity": 0.6692913385826772,
          "duration": 0.15000000000000568
        },
        {
          "name": "C3",
          "midi": 48,
          "time": 154.9999999999998,
          "velocity": 0.6692913385826772,
          "duration": 0.15000000000000568
        },
        {
          "name": "C4",
          "midi": 60,
          "time": 154.9999999999998,
          "velocity": 0.6692913385826772,
          "duration": 0.15000000000000568
        },
        {
          "name": "C4",
          "midi": 60,
          "time": 155.2499999999998,
          "velocity": 0.6692913385826772,
          "duration": 0.15000000000000568
        },
        {
          "name": "A3",
          "midi": 57,
          "time": 155.2499999999998,
          "velocity": 0.6692913385826772,
          "duration": 0.15000000000000568
        },
        {
          "name": "C3",
          "midi": 48,
          "time": 155.2499999999998,
          "velocity": 0.6692913385826772,
          "duration": 0.15000000000000568
        },
        {
          "name": "G4",
          "midi": 67,
          "time": 155.2499999999998,
          "velocity": 0.5039370078740157,
          "duration": 0.15000000000000568
        },
        {
          "name": "A3",
          "midi": 57,
          "time": 155.4999999999998,
          "velocity": 0.6692913385826772,
          "duration": 0.15000000000000568
        },
        {
          "name": "C4",
          "midi": 60,
          "time": 155.4999999999998,
          "velocity": 0.6692913385826772,
          "duration": 0.15000000000000568
        },
        {
          "name": "G4",
          "midi": 67,
          "time": 155.4999999999998,
          "velocity": 0.5039370078740157,
          "duration": 0.15000000000000568
        },
        {
          "name": "C3",
          "midi": 48,
          "time": 155.4999999999998,
          "velocity": 0.6692913385826772,
          "duration": 0.15000000000000568
        },
        {
          "name": "A3",
          "midi": 57,
          "time": 155.7499999999998,
          "velocity": 0.6692913385826772,
          "duration": 0.15000000000000568
        },
        {
          "name": "C4",
          "midi": 60,
          "time": 155.7499999999998,
          "velocity": 0.6692913385826772,
          "duration": 0.15000000000000568
        },
        {
          "name": "C3",
          "midi": 48,
          "time": 155.7499999999998,
          "velocity": 0.6692913385826772,
          "duration": 0.15000000000000568
        },
        {
          "name": "G4",
          "midi": 67,
          "time": 155.7499999999998,
          "velocity": 0.5039370078740157,
          "duration": 0.15000000000000568
        },
        {
          "name": "D4",
          "midi": 62,
          "time": 155.9999999999998,
          "velocity": 0.6692913385826772,
          "duration": 0.15000000000000568
        },
        {
          "name": "G3",
          "midi": 55,
          "time": 155.9999999999998,
          "velocity": 0.6692913385826772,
          "duration": 0.15000000000000568
        },
        {
          "name": "D3",
          "midi": 50,
          "time": 155.9999999999998,
          "velocity": 0.6692913385826772,
          "duration": 0.15000000000000568
        },
        {
          "name": "G4",
          "midi": 67,
          "time": 155.9999999999998,
          "velocity": 0.5039370078740157,
          "duration": 0.15000000000000568
        },
        {
          "name": "D4",
          "midi": 62,
          "time": 156.2499999999998,
          "velocity": 0.6692913385826772,
          "duration": 0.15000000000000568
        },
        {
          "name": "D3",
          "midi": 50,
          "time": 156.2499999999998,
          "velocity": 0.6692913385826772,
          "duration": 0.15000000000000568
        },
        {
          "name": "G3",
          "midi": 55,
          "time": 156.2499999999998,
          "velocity": 0.6692913385826772,
          "duration": 0.15000000000000568
        },
        {
          "name": "G4",
          "midi": 67,
          "time": 156.2499999999998,
          "velocity": 0.5039370078740157,
          "duration": 0.15000000000000568
        },
        {
          "name": "G4",
          "midi": 67,
          "time": 156.4999999999998,
          "velocity": 0.5039370078740157,
          "duration": 0.15000000000000568
        },
        {
          "name": "G3",
          "midi": 55,
          "time": 156.4999999999998,
          "velocity": 0.6692913385826772,
          "duration": 0.15000000000000568
        },
        {
          "name": "D4",
          "midi": 62,
          "time": 156.4999999999998,
          "velocity": 0.6692913385826772,
          "duration": 0.15000000000000568
        },
        {
          "name": "D3",
          "midi": 50,
          "time": 156.4999999999998,
          "velocity": 0.6692913385826772,
          "duration": 0.15000000000000568
        },
        {
          "name": "D3",
          "midi": 50,
          "time": 156.7499999999998,
          "velocity": 0.6692913385826772,
          "duration": 0.15000000000000568
        },
        {
          "name": "D4",
          "midi": 62,
          "time": 156.7499999999998,
          "velocity": 0.6692913385826772,
          "duration": 0.15000000000000568
        },
        {
          "name": "G3",
          "midi": 55,
          "time": 156.7499999999998,
          "velocity": 0.6692913385826772,
          "duration": 0.15000000000000568
        },
        {
          "name": "G4",
          "midi": 67,
          "time": 156.7499999999998,
          "velocity": 0.5039370078740157,
          "duration": 0.15000000000000568
        },
        {
          "name": "D4",
          "midi": 62,
          "time": 156.9999999999998,
          "velocity": 0.6692913385826772,
          "duration": 0.15000000000000568
        },
        {
          "name": "D3",
          "midi": 50,
          "time": 156.9999999999998,
          "velocity": 0.6692913385826772,
          "duration": 0.15000000000000568
        },
        {
          "name": "G3",
          "midi": 55,
          "time": 156.9999999999998,
          "velocity": 0.6692913385826772,
          "duration": 0.15000000000000568
        },
        {
          "name": "G4",
          "midi": 67,
          "time": 156.9999999999998,
          "velocity": 0.5039370078740157,
          "duration": 0.15000000000000568
        },
        {
          "name": "G4",
          "midi": 67,
          "time": 157.2499999999998,
          "velocity": 0.5039370078740157,
          "duration": 0.15000000000000568
        },
        {
          "name": "D3",
          "midi": 50,
          "time": 157.2499999999998,
          "velocity": 0.6692913385826772,
          "duration": 0.15000000000000568
        },
        {
          "name": "G3",
          "midi": 55,
          "time": 157.2499999999998,
          "velocity": 0.6692913385826772,
          "duration": 0.15000000000000568
        },
        {
          "name": "D4",
          "midi": 62,
          "time": 157.2499999999998,
          "velocity": 0.6692913385826772,
          "duration": 0.15000000000000568
        },
        {
          "name": "D4",
          "midi": 62,
          "time": 157.4999999999998,
          "velocity": 0.6692913385826772,
          "duration": 0.15000000000000568
        },
        {
          "name": "D3",
          "midi": 50,
          "time": 157.4999999999998,
          "velocity": 0.6692913385826772,
          "duration": 0.15000000000000568
        },
        {
          "name": "G3",
          "midi": 55,
          "time": 157.4999999999998,
          "velocity": 0.6692913385826772,
          "duration": 0.15000000000000568
        },
        {
          "name": "G4",
          "midi": 67,
          "time": 157.4999999999998,
          "velocity": 0.5039370078740157,
          "duration": 0.15000000000000568
        },
        {
          "name": "D4",
          "midi": 62,
          "time": 157.7499999999998,
          "velocity": 0.6692913385826772,
          "duration": 0.15000000000000568
        },
        {
          "name": "G4",
          "midi": 67,
          "time": 157.7499999999998,
          "velocity": 0.5039370078740157,
          "duration": 0.15000000000000568
        },
        {
          "name": "D3",
          "midi": 50,
          "time": 157.7499999999998,
          "velocity": 0.6692913385826772,
          "duration": 0.15000000000000568
        },
        {
          "name": "G3",
          "midi": 55,
          "time": 157.7499999999998,
          "velocity": 0.6692913385826772,
          "duration": 0.15000000000000568
        },
        {
          "name": "A#3",
          "midi": 58,
          "time": 157.9999999999998,
          "velocity": 0.6692913385826772,
          "duration": 0.15000000000000568
        },
        {
          "name": "F3",
          "midi": 53,
          "time": 157.9999999999998,
          "velocity": 0.6692913385826772,
          "duration": 0.15000000000000568
        },
        {
          "name": "A#4",
          "midi": 70,
          "time": 157.9999999999998,
          "velocity": 0.5039370078740157,
          "duration": 0.15000000000000568
        },
        {
          "name": "F4",
          "midi": 65,
          "time": 157.9999999999998,
          "velocity": 0.6692913385826772,
          "duration": 0.15000000000000568
        },
        {
          "name": "A#3",
          "midi": 58,
          "time": 158.2499999999998,
          "velocity": 0.6692913385826772,
          "duration": 0.15000000000000568
        },
        {
          "name": "F3",
          "midi": 53,
          "time": 158.2499999999998,
          "velocity": 0.6692913385826772,
          "duration": 0.15000000000000568
        },
        {
          "name": "A#4",
          "midi": 70,
          "time": 158.2499999999998,
          "velocity": 0.5039370078740157,
          "duration": 0.15000000000000568
        },
        {
          "name": "F4",
          "midi": 65,
          "time": 158.2499999999998,
          "velocity": 0.6692913385826772,
          "duration": 0.15000000000000568
        },
        {
          "name": "F3",
          "midi": 53,
          "time": 158.4999999999998,
          "velocity": 0.6692913385826772,
          "duration": 0.15000000000000568
        },
        {
          "name": "A#3",
          "midi": 58,
          "time": 158.4999999999998,
          "velocity": 0.6692913385826772,
          "duration": 0.15000000000000568
        },
        {
          "name": "F4",
          "midi": 65,
          "time": 158.4999999999998,
          "velocity": 0.6692913385826772,
          "duration": 0.15000000000000568
        },
        {
          "name": "A#4",
          "midi": 70,
          "time": 158.4999999999998,
          "velocity": 0.5039370078740157,
          "duration": 0.15000000000000568
        },
        {
          "name": "A#4",
          "midi": 70,
          "time": 158.7499999999998,
          "velocity": 0.5039370078740157,
          "duration": 0.15000000000000568
        },
        {
          "name": "F4",
          "midi": 65,
          "time": 158.7499999999998,
          "velocity": 0.6692913385826772,
          "duration": 0.15000000000000568
        },
        {
          "name": "A#3",
          "midi": 58,
          "time": 158.7499999999998,
          "velocity": 0.6692913385826772,
          "duration": 0.15000000000000568
        },
        {
          "name": "F3",
          "midi": 53,
          "time": 158.7499999999998,
          "velocity": 0.6692913385826772,
          "duration": 0.15000000000000568
        },
        {
          "name": "A#3",
          "midi": 58,
          "time": 158.9999999999998,
          "velocity": 0.6692913385826772,
          "duration": 0.15000000000000568
        },
        {
          "name": "F3",
          "midi": 53,
          "time": 158.9999999999998,
          "velocity": 0.6692913385826772,
          "duration": 0.15000000000000568
        },
        {
          "name": "A#4",
          "midi": 70,
          "time": 158.9999999999998,
          "velocity": 0.5039370078740157,
          "duration": 0.15000000000000568
        },
        {
          "name": "F4",
          "midi": 65,
          "time": 158.9999999999998,
          "velocity": 0.6692913385826772,
          "duration": 0.15000000000000568
        },
        {
          "name": "F3",
          "midi": 53,
          "time": 159.2499999999998,
          "velocity": 0.6692913385826772,
          "duration": 0.15000000000000568
        },
        {
          "name": "F4",
          "midi": 65,
          "time": 159.2499999999998,
          "velocity": 0.6692913385826772,
          "duration": 0.15000000000000568
        },
        {
          "name": "A#3",
          "midi": 58,
          "time": 159.2499999999998,
          "velocity": 0.6692913385826772,
          "duration": 0.15000000000000568
        },
        {
          "name": "A#4",
          "midi": 70,
          "time": 159.2499999999998,
          "velocity": 0.5039370078740157,
          "duration": 0.15000000000000568
        },
        {
          "name": "F4",
          "midi": 65,
          "time": 159.4999999999998,
          "velocity": 0.5039370078740157,
          "duration": 0.15000000000000568
        },
        {
          "name": "F3",
          "midi": 53,
          "time": 159.4999999999998,
          "velocity": 0.6692913385826772,
          "duration": 0.15000000000000568
        },
        {
          "name": "A#3",
          "midi": 58,
          "time": 159.4999999999998,
          "velocity": 0.6692913385826772,
          "duration": 0.15000000000000568
        },
        {
          "name": "A#4",
          "midi": 70,
          "time": 159.4999999999998,
          "velocity": 0.5039370078740157,
          "duration": 0.15000000000000568
        },
        {
          "name": "A#3",
          "midi": 58,
          "time": 159.7499999999998,
          "velocity": 0.6692913385826772,
          "duration": 0.15000000000000568
        },
        {
          "name": "F3",
          "midi": 53,
          "time": 159.7499999999998,
          "velocity": 0.6692913385826772,
          "duration": 0.15000000000000568
        },
        {
          "name": "A#4",
          "midi": 70,
          "time": 159.7499999999998,
          "velocity": 0.5039370078740157,
          "duration": 0.15000000000000568
        },
        {
          "name": "F4",
          "midi": 65,
          "time": 159.7499999999998,
          "velocity": 0.5039370078740157,
          "duration": 0.15000000000000568
        },
        {
          "name": "F4",
          "midi": 65,
          "time": 159.9999999999998,
          "velocity": 0.5039370078740157,
          "duration": 0.15000000000000568
        },
        {
          "name": "C3",
          "midi": 48,
          "time": 159.9999999999998,
          "velocity": 0.6692913385826772,
          "duration": 0.15000000000000568
        },
        {
          "name": "F3",
          "midi": 53,
          "time": 159.9999999999998,
          "velocity": 0.6692913385826772,
          "duration": 0.15000000000000568
        },
        {
          "name": "C4",
          "midi": 60,
          "time": 159.9999999999998,
          "velocity": 0.6692913385826772,
          "duration": 0.15000000000000568
        },
        {
          "name": "F4",
          "midi": 65,
          "time": 160.2499999999998,
          "velocity": 0.5039370078740157,
          "duration": 0.15000000000000568
        },
        {
          "name": "C4",
          "midi": 60,
          "time": 160.2499999999998,
          "velocity": 0.6692913385826772,
          "duration": 0.15000000000000568
        },
        {
          "name": "F3",
          "midi": 53,
          "time": 160.2499999999998,
          "velocity": 0.6692913385826772,
          "duration": 0.15000000000000568
        },
        {
          "name": "C3",
          "midi": 48,
          "time": 160.2499999999998,
          "velocity": 0.6692913385826772,
          "duration": 0.15000000000000568
        },
        {
          "name": "F3",
          "midi": 53,
          "time": 160.4999999999998,
          "velocity": 0.6692913385826772,
          "duration": 0.15000000000000568
        },
        {
          "name": "F4",
          "midi": 65,
          "time": 160.4999999999998,
          "velocity": 0.5039370078740157,
          "duration": 0.15000000000000568
        },
        {
          "name": "C3",
          "midi": 48,
          "time": 160.4999999999998,
          "velocity": 0.6692913385826772,
          "duration": 0.15000000000000568
        },
        {
          "name": "C4",
          "midi": 60,
          "time": 160.4999999999998,
          "velocity": 0.6692913385826772,
          "duration": 0.15000000000000568
        },
        {
          "name": "F3",
          "midi": 53,
          "time": 160.7499999999998,
          "velocity": 0.6692913385826772,
          "duration": 0.15000000000000568
        },
        {
          "name": "C4",
          "midi": 60,
          "time": 160.7499999999998,
          "velocity": 0.6692913385826772,
          "duration": 0.15000000000000568
        },
        {
          "name": "F4",
          "midi": 65,
          "time": 160.7499999999998,
          "velocity": 0.5039370078740157,
          "duration": 0.15000000000000568
        },
        {
          "name": "C3",
          "midi": 48,
          "time": 160.7499999999998,
          "velocity": 0.6692913385826772,
          "duration": 0.15000000000000568
        },
        {
          "name": "F3",
          "midi": 53,
          "time": 160.9999999999998,
          "velocity": 0.6692913385826772,
          "duration": 0.15000000000000568
        },
        {
          "name": "C3",
          "midi": 48,
          "time": 160.9999999999998,
          "velocity": 0.6692913385826772,
          "duration": 0.15000000000000568
        },
        {
          "name": "C4",
          "midi": 60,
          "time": 160.9999999999998,
          "velocity": 0.6692913385826772,
          "duration": 0.15000000000000568
        },
        {
          "name": "F4",
          "midi": 65,
          "time": 160.9999999999998,
          "velocity": 0.5039370078740157,
          "duration": 0.15000000000000568
        },
        {
          "name": "F3",
          "midi": 53,
          "time": 161.2499999999998,
          "velocity": 0.6692913385826772,
          "duration": 0.15000000000000568
        },
        {
          "name": "C4",
          "midi": 60,
          "time": 161.2499999999998,
          "velocity": 0.6692913385826772,
          "duration": 0.15000000000000568
        },
        {
          "name": "C3",
          "midi": 48,
          "time": 161.2499999999998,
          "velocity": 0.6692913385826772,
          "duration": 0.15000000000000568
        },
        {
          "name": "F4",
          "midi": 65,
          "time": 161.2499999999998,
          "velocity": 0.5039370078740157,
          "duration": 0.15000000000000568
        },
        {
          "name": "F4",
          "midi": 65,
          "time": 161.4999999999998,
          "velocity": 0.5039370078740157,
          "duration": 0.15000000000000568
        },
        {
          "name": "C3",
          "midi": 48,
          "time": 161.4999999999998,
          "velocity": 0.6692913385826772,
          "duration": 0.15000000000000568
        },
        {
          "name": "C4",
          "midi": 60,
          "time": 161.4999999999998,
          "velocity": 0.6692913385826772,
          "duration": 0.15000000000000568
        },
        {
          "name": "F3",
          "midi": 53,
          "time": 161.4999999999998,
          "velocity": 0.6692913385826772,
          "duration": 0.15000000000000568
        },
        {
          "name": "F4",
          "midi": 65,
          "time": 161.7499999999998,
          "velocity": 0.5039370078740157,
          "duration": 0.15000000000000568
        },
        {
          "name": "C3",
          "midi": 48,
          "time": 161.7499999999998,
          "velocity": 0.6692913385826772,
          "duration": 0.15000000000000568
        },
        {
          "name": "F3",
          "midi": 53,
          "time": 161.7499999999998,
          "velocity": 0.6692913385826772,
          "duration": 0.15000000000000568
        },
        {
          "name": "C4",
          "midi": 60,
          "time": 161.7499999999998,
          "velocity": 0.6692913385826772,
          "duration": 0.15000000000000568
        },
        {
          "name": "G4",
          "midi": 67,
          "time": 161.9999999999998,
          "velocity": 0.5039370078740157,
          "duration": 0.15000000000000568
        },
        {
          "name": "C3",
          "midi": 48,
          "time": 161.9999999999998,
          "velocity": 0.6692913385826772,
          "duration": 0.15000000000000568
        },
        {
          "name": "G3",
          "midi": 55,
          "time": 161.9999999999998,
          "velocity": 0.6692913385826772,
          "duration": 0.15000000000000568
        },
        {
          "name": "C4",
          "midi": 60,
          "time": 161.9999999999998,
          "velocity": 0.6692913385826772,
          "duration": 0.15000000000000568
        },
        {
          "name": "C4",
          "midi": 60,
          "time": 162.2499999999998,
          "velocity": 0.6692913385826772,
          "duration": 0.15000000000000568
        },
        {
          "name": "G4",
          "midi": 67,
          "time": 162.2499999999998,
          "velocity": 0.5039370078740157,
          "duration": 0.15000000000000568
        },
        {
          "name": "G3",
          "midi": 55,
          "time": 162.2499999999998,
          "velocity": 0.6692913385826772,
          "duration": 0.15000000000000568
        },
        {
          "name": "C3",
          "midi": 48,
          "time": 162.2499999999998,
          "velocity": 0.6692913385826772,
          "duration": 0.15000000000000568
        },
        {
          "name": "C4",
          "midi": 60,
          "time": 162.4999999999998,
          "velocity": 0.6692913385826772,
          "duration": 0.15000000000000568
        },
        {
          "name": "C3",
          "midi": 48,
          "time": 162.4999999999998,
          "velocity": 0.6692913385826772,
          "duration": 0.15000000000000568
        },
        {
          "name": "G4",
          "midi": 67,
          "time": 162.4999999999998,
          "velocity": 0.5039370078740157,
          "duration": 0.15000000000000568
        },
        {
          "name": "G3",
          "midi": 55,
          "time": 162.4999999999998,
          "velocity": 0.6692913385826772,
          "duration": 0.15000000000000568
        },
        {
          "name": "C4",
          "midi": 60,
          "time": 162.7499999999998,
          "velocity": 0.6692913385826772,
          "duration": 0.15000000000000568
        },
        {
          "name": "C3",
          "midi": 48,
          "time": 162.7499999999998,
          "velocity": 0.6692913385826772,
          "duration": 0.15000000000000568
        },
        {
          "name": "G4",
          "midi": 67,
          "time": 162.7499999999998,
          "velocity": 0.5039370078740157,
          "duration": 0.15000000000000568
        },
        {
          "name": "G3",
          "midi": 55,
          "time": 162.7499999999998,
          "velocity": 0.6692913385826772,
          "duration": 0.15000000000000568
        },
        {
          "name": "C3",
          "midi": 48,
          "time": 162.9999999999998,
          "velocity": 0.6692913385826772,
          "duration": 0.15000000000000568
        },
        {
          "name": "C4",
          "midi": 60,
          "time": 162.9999999999998,
          "velocity": 0.6692913385826772,
          "duration": 0.15000000000000568
        },
        {
          "name": "G4",
          "midi": 67,
          "time": 162.9999999999998,
          "velocity": 0.5039370078740157,
          "duration": 0.15000000000000568
        },
        {
          "name": "G3",
          "midi": 55,
          "time": 162.9999999999998,
          "velocity": 0.6692913385826772,
          "duration": 0.15000000000000568
        },
        {
          "name": "C3",
          "midi": 48,
          "time": 163.2499999999998,
          "velocity": 0.6692913385826772,
          "duration": 0.15000000000000568
        },
        {
          "name": "C4",
          "midi": 60,
          "time": 163.2499999999998,
          "velocity": 0.6692913385826772,
          "duration": 0.15000000000000568
        },
        {
          "name": "G3",
          "midi": 55,
          "time": 163.2499999999998,
          "velocity": 0.6692913385826772,
          "duration": 0.15000000000000568
        },
        {
          "name": "G4",
          "midi": 67,
          "time": 163.2499999999998,
          "velocity": 0.5039370078740157,
          "duration": 0.15000000000000568
        },
        {
          "name": "C4",
          "midi": 60,
          "time": 163.4999999999998,
          "velocity": 0.6692913385826772,
          "duration": 0.15000000000000568
        },
        {
          "name": "G4",
          "midi": 67,
          "time": 163.4999999999998,
          "velocity": 0.5039370078740157,
          "duration": 0.15000000000000568
        },
        {
          "name": "C3",
          "midi": 48,
          "time": 163.4999999999998,
          "velocity": 0.6692913385826772,
          "duration": 0.15000000000000568
        },
        {
          "name": "G3",
          "midi": 55,
          "time": 163.4999999999998,
          "velocity": 0.6692913385826772,
          "duration": 0.15000000000000568
        },
        {
          "name": "G3",
          "midi": 55,
          "time": 163.7499999999998,
          "velocity": 0.6692913385826772,
          "duration": 0.15000000000000568
        },
        {
          "name": "G4",
          "midi": 67,
          "time": 163.7499999999998,
          "velocity": 0.5039370078740157,
          "duration": 0.15000000000000568
        },
        {
          "name": "C4",
          "midi": 60,
          "time": 163.7499999999998,
          "velocity": 0.6692913385826772,
          "duration": 0.15000000000000568
        },
        {
          "name": "C3",
          "midi": 48,
          "time": 163.7499999999998,
          "velocity": 0.6692913385826772,
          "duration": 0.15000000000000568
        },
        {
          "name": "A3",
          "midi": 57,
          "time": 163.9999999999998,
          "velocity": 0.6692913385826772,
          "duration": 0.15000000000000568
        },
        {
          "name": "C4",
          "midi": 60,
          "time": 163.9999999999998,
          "velocity": 0.6692913385826772,
          "duration": 0.15000000000000568
        },
        {
          "name": "F4",
          "midi": 65,
          "time": 163.9999999999998,
          "velocity": 0.5039370078740157,
          "duration": 0.15000000000000568
        },
        {
          "name": "C3",
          "midi": 48,
          "time": 163.9999999999998,
          "velocity": 0.6692913385826772,
          "duration": 0.15000000000000568
        },
        {
          "name": "C4",
          "midi": 60,
          "time": 164.2499999999998,
          "velocity": 0.6692913385826772,
          "duration": 0.15000000000000568
        },
        {
          "name": "F4",
          "midi": 65,
          "time": 164.2499999999998,
          "velocity": 0.5039370078740157,
          "duration": 0.15000000000000568
        },
        {
          "name": "C3",
          "midi": 48,
          "time": 164.2499999999998,
          "velocity": 0.6692913385826772,
          "duration": 0.15000000000000568
        },
        {
          "name": "A3",
          "midi": 57,
          "time": 164.2499999999998,
          "velocity": 0.6692913385826772,
          "duration": 0.15000000000000568
        },
        {
          "name": "F4",
          "midi": 65,
          "time": 164.4999999999998,
          "velocity": 0.5039370078740157,
          "duration": 0.15000000000000568
        },
        {
          "name": "C4",
          "midi": 60,
          "time": 164.4999999999998,
          "velocity": 0.6692913385826772,
          "duration": 0.15000000000000568
        },
        {
          "name": "C3",
          "midi": 48,
          "time": 164.4999999999998,
          "velocity": 0.6692913385826772,
          "duration": 0.15000000000000568
        },
        {
          "name": "A3",
          "midi": 57,
          "time": 164.4999999999998,
          "velocity": 0.6692913385826772,
          "duration": 0.15000000000000568
        },
        {
          "name": "F4",
          "midi": 65,
          "time": 164.7499999999998,
          "velocity": 0.5039370078740157,
          "duration": 0.15000000000000568
        },
        {
          "name": "A3",
          "midi": 57,
          "time": 164.7499999999998,
          "velocity": 0.6692913385826772,
          "duration": 0.15000000000000568
        },
        {
          "name": "C4",
          "midi": 60,
          "time": 164.7499999999998,
          "velocity": 0.6692913385826772,
          "duration": 0.15000000000000568
        },
        {
          "name": "C3",
          "midi": 48,
          "time": 164.7499999999998,
          "velocity": 0.6692913385826772,
          "duration": 0.15000000000000568
        },
        {
          "name": "C4",
          "midi": 60,
          "time": 164.9999999999998,
          "velocity": 0.6692913385826772,
          "duration": 0.15000000000000568
        },
        {
          "name": "A3",
          "midi": 57,
          "time": 164.9999999999998,
          "velocity": 0.6692913385826772,
          "duration": 0.15000000000000568
        },
        {
          "name": "C3",
          "midi": 48,
          "time": 164.9999999999998,
          "velocity": 0.6692913385826772,
          "duration": 0.15000000000000568
        },
        {
          "name": "F4",
          "midi": 65,
          "time": 164.9999999999998,
          "velocity": 0.5039370078740157,
          "duration": 0.15000000000000568
        },
        {
          "name": "F4",
          "midi": 65,
          "time": 165.2499999999998,
          "velocity": 0.5039370078740157,
          "duration": 0.15000000000000568
        },
        {
          "name": "C3",
          "midi": 48,
          "time": 165.2499999999998,
          "velocity": 0.6692913385826772,
          "duration": 0.15000000000000568
        },
        {
          "name": "A3",
          "midi": 57,
          "time": 165.2499999999998,
          "velocity": 0.6692913385826772,
          "duration": 0.15000000000000568
        },
        {
          "name": "C4",
          "midi": 60,
          "time": 165.2499999999998,
          "velocity": 0.6692913385826772,
          "duration": 0.15000000000000568
        },
        {
          "name": "D4",
          "midi": 62,
          "time": 165.9999999999998,
          "velocity": 0.5039370078740157,
          "duration": 0.15000000000000568
        },
        {
          "name": "G3",
          "midi": 55,
          "time": 165.9999999999998,
          "velocity": 0.6692913385826772,
          "duration": 0.15000000000000568
        },
        {
          "name": "G4",
          "midi": 67,
          "time": 165.9999999999998,
          "velocity": 0.5039370078740157,
          "duration": 0.15000000000000568
        },
        {
          "name": "D3",
          "midi": 50,
          "time": 165.9999999999998,
          "velocity": 0.6692913385826772,
          "duration": 0.15000000000000568
        },
        {
          "name": "D4",
          "midi": 62,
          "time": 166.2499999999998,
          "velocity": 0.5039370078740157,
          "duration": 0.15000000000000568
        },
        {
          "name": "G4",
          "midi": 67,
          "time": 166.2499999999998,
          "velocity": 0.5039370078740157,
          "duration": 0.15000000000000568
        },
        {
          "name": "D3",
          "midi": 50,
          "time": 166.2499999999998,
          "velocity": 0.6692913385826772,
          "duration": 0.15000000000000568
        },
        {
          "name": "G3",
          "midi": 55,
          "time": 166.2499999999998,
          "velocity": 0.6692913385826772,
          "duration": 0.15000000000000568
        },
        {
          "name": "G4",
          "midi": 67,
          "time": 166.4999999999998,
          "velocity": 0.5039370078740157,
          "duration": 0.15000000000000568
        },
        {
          "name": "G3",
          "midi": 55,
          "time": 166.4999999999998,
          "velocity": 0.6692913385826772,
          "duration": 0.15000000000000568
        },
        {
          "name": "D3",
          "midi": 50,
          "time": 166.4999999999998,
          "velocity": 0.6692913385826772,
          "duration": 0.15000000000000568
        },
        {
          "name": "D4",
          "midi": 62,
          "time": 166.4999999999998,
          "velocity": 0.5039370078740157,
          "duration": 0.15000000000000568
        },
        {
          "name": "G3",
          "midi": 55,
          "time": 166.7499999999998,
          "velocity": 0.6692913385826772,
          "duration": 0.15000000000000568
        },
        {
          "name": "D4",
          "midi": 62,
          "time": 166.7499999999998,
          "velocity": 0.5039370078740157,
          "duration": 0.15000000000000568
        },
        {
          "name": "G4",
          "midi": 67,
          "time": 166.7499999999998,
          "velocity": 0.5039370078740157,
          "duration": 0.15000000000000568
        },
        {
          "name": "D3",
          "midi": 50,
          "time": 166.7499999999998,
          "velocity": 0.6692913385826772,
          "duration": 0.15000000000000568
        },
        {
          "name": "G4",
          "midi": 67,
          "time": 166.9999999999998,
          "velocity": 0.5039370078740157,
          "duration": 0.15000000000000568
        },
        {
          "name": "D3",
          "midi": 50,
          "time": 166.9999999999998,
          "velocity": 0.6692913385826772,
          "duration": 0.15000000000000568
        },
        {
          "name": "D4",
          "midi": 62,
          "time": 166.9999999999998,
          "velocity": 0.5039370078740157,
          "duration": 0.15000000000000568
        },
        {
          "name": "G3",
          "midi": 55,
          "time": 166.9999999999998,
          "velocity": 0.6692913385826772,
          "duration": 0.15000000000000568
        },
        {
          "name": "G3",
          "midi": 55,
          "time": 167.2499999999998,
          "velocity": 0.6692913385826772,
          "duration": 0.15000000000000568
        },
        {
          "name": "D4",
          "midi": 62,
          "time": 167.2499999999998,
          "velocity": 0.5039370078740157,
          "duration": 0.15000000000000568
        },
        {
          "name": "G4",
          "midi": 67,
          "time": 167.2499999999998,
          "velocity": 0.5039370078740157,
          "duration": 0.15000000000000568
        },
        {
          "name": "D3",
          "midi": 50,
          "time": 167.2499999999998,
          "velocity": 0.6692913385826772,
          "duration": 0.15000000000000568
        },
        {
          "name": "G3",
          "midi": 55,
          "time": 167.4999999999998,
          "velocity": 0.6692913385826772,
          "duration": 0.15000000000000568
        },
        {
          "name": "G4",
          "midi": 67,
          "time": 167.4999999999998,
          "velocity": 0.5039370078740157,
          "duration": 0.15000000000000568
        },
        {
          "name": "D4",
          "midi": 62,
          "time": 167.4999999999998,
          "velocity": 0.5039370078740157,
          "duration": 0.15000000000000568
        },
        {
          "name": "D3",
          "midi": 50,
          "time": 167.4999999999998,
          "velocity": 0.6692913385826772,
          "duration": 0.15000000000000568
        },
        {
          "name": "D4",
          "midi": 62,
          "time": 167.7499999999998,
          "velocity": 0.5039370078740157,
          "duration": 0.15000000000000568
        },
        {
          "name": "G4",
          "midi": 67,
          "time": 167.7499999999998,
          "velocity": 0.5039370078740157,
          "duration": 0.15000000000000568
        },
        {
          "name": "G3",
          "midi": 55,
          "time": 167.7499999999998,
          "velocity": 0.6692913385826772,
          "duration": 0.15000000000000568
        },
        {
          "name": "D3",
          "midi": 50,
          "time": 167.7499999999998,
          "velocity": 0.6692913385826772,
          "duration": 0.15000000000000568
        },
        {
          "name": "F4",
          "midi": 65,
          "time": 167.9999999999998,
          "velocity": 0.5039370078740157,
          "duration": 0.15000000000000568
        },
        {
          "name": "A#4",
          "midi": 70,
          "time": 167.9999999999998,
          "velocity": 0.5039370078740157,
          "duration": 0.15000000000000568
        },
        {
          "name": "F3",
          "midi": 53,
          "time": 167.9999999999998,
          "velocity": 0.6692913385826772,
          "duration": 0.15000000000000568
        },
        {
          "name": "A#3",
          "midi": 58,
          "time": 167.9999999999998,
          "velocity": 0.6692913385826772,
          "duration": 0.15000000000000568
        },
        {
          "name": "F4",
          "midi": 65,
          "time": 168.2499999999998,
          "velocity": 0.5039370078740157,
          "duration": 0.15000000000000568
        },
        {
          "name": "F3",
          "midi": 53,
          "time": 168.2499999999998,
          "velocity": 0.6692913385826772,
          "duration": 0.15000000000000568
        },
        {
          "name": "A#3",
          "midi": 58,
          "time": 168.2499999999998,
          "velocity": 0.6692913385826772,
          "duration": 0.15000000000000568
        },
        {
          "name": "A#4",
          "midi": 70,
          "time": 168.2499999999998,
          "velocity": 0.5039370078740157,
          "duration": 0.15000000000000568
        },
        {
          "name": "A#4",
          "midi": 70,
          "time": 168.4999999999998,
          "velocity": 0.5039370078740157,
          "duration": 0.15000000000000568
        },
        {
          "name": "F3",
          "midi": 53,
          "time": 168.4999999999998,
          "velocity": 0.6692913385826772,
          "duration": 0.15000000000000568
        },
        {
          "name": "A#3",
          "midi": 58,
          "time": 168.4999999999998,
          "velocity": 0.6692913385826772,
          "duration": 0.15000000000000568
        },
        {
          "name": "F4",
          "midi": 65,
          "time": 168.4999999999998,
          "velocity": 0.5039370078740157,
          "duration": 0.15000000000000568
        },
        {
          "name": "F3",
          "midi": 53,
          "time": 168.7499999999998,
          "velocity": 0.6692913385826772,
          "duration": 0.15000000000000568
        },
        {
          "name": "A#4",
          "midi": 70,
          "time": 168.7499999999998,
          "velocity": 0.5039370078740157,
          "duration": 0.15000000000000568
        },
        {
          "name": "A#3",
          "midi": 58,
          "time": 168.7499999999998,
          "velocity": 0.6692913385826772,
          "duration": 0.15000000000000568
        },
        {
          "name": "F4",
          "midi": 65,
          "time": 168.7499999999998,
          "velocity": 0.5039370078740157,
          "duration": 0.15000000000000568
        },
        {
          "name": "A#3",
          "midi": 58,
          "time": 168.9999999999998,
          "velocity": 0.6692913385826772,
          "duration": 0.15000000000000568
        },
        {
          "name": "A#4",
          "midi": 70,
          "time": 168.9999999999998,
          "velocity": 0.5039370078740157,
          "duration": 0.15000000000000568
        },
        {
          "name": "F3",
          "midi": 53,
          "time": 168.9999999999998,
          "velocity": 0.6692913385826772,
          "duration": 0.15000000000000568
        },
        {
          "name": "F4",
          "midi": 65,
          "time": 168.9999999999998,
          "velocity": 0.5039370078740157,
          "duration": 0.15000000000000568
        },
        {
          "name": "A#4",
          "midi": 70,
          "time": 169.2499999999998,
          "velocity": 0.5039370078740157,
          "duration": 0.15000000000000568
        },
        {
          "name": "F3",
          "midi": 53,
          "time": 169.2499999999998,
          "velocity": 0.6692913385826772,
          "duration": 0.15000000000000568
        },
        {
          "name": "F4",
          "midi": 65,
          "time": 169.2499999999998,
          "velocity": 0.5039370078740157,
          "duration": 0.15000000000000568
        },
        {
          "name": "A#3",
          "midi": 58,
          "time": 169.2499999999998,
          "velocity": 0.6692913385826772,
          "duration": 0.15000000000000568
        },
        {
          "name": "A#3",
          "midi": 58,
          "time": 169.4999999999998,
          "velocity": 0.6692913385826772,
          "duration": 0.15000000000000568
        },
        {
          "name": "A#4",
          "midi": 70,
          "time": 169.4999999999998,
          "velocity": 0.5039370078740157,
          "duration": 0.15000000000000568
        },
        {
          "name": "F3",
          "midi": 53,
          "time": 169.4999999999998,
          "velocity": 0.6692913385826772,
          "duration": 0.15000000000000568
        },
        {
          "name": "F4",
          "midi": 65,
          "time": 169.4999999999998,
          "velocity": 0.5039370078740157,
          "duration": 0.15000000000000568
        },
        {
          "name": "F4",
          "midi": 65,
          "time": 169.7499999999998,
          "velocity": 0.5039370078740157,
          "duration": 0.15000000000000568
        },
        {
          "name": "A#3",
          "midi": 58,
          "time": 169.7499999999998,
          "velocity": 0.6692913385826772,
          "duration": 0.15000000000000568
        },
        {
          "name": "A#4",
          "midi": 70,
          "time": 169.7499999999998,
          "velocity": 0.5039370078740157,
          "duration": 0.15000000000000568
        },
        {
          "name": "F3",
          "midi": 53,
          "time": 169.7499999999998,
          "velocity": 0.6692913385826772,
          "duration": 0.15000000000000568
        },
        {
          "name": "F4",
          "midi": 65,
          "time": 169.9999999999998,
          "velocity": 0.5039370078740157,
          "duration": 0.15000000000000568
        },
        {
          "name": "F3",
          "midi": 53,
          "time": 169.9999999999998,
          "velocity": 0.6692913385826772,
          "duration": 0.15000000000000568
        },
        {
          "name": "C4",
          "midi": 60,
          "time": 169.9999999999998,
          "velocity": 0.5039370078740157,
          "duration": 0.15000000000000568
        },
        {
          "name": "C3",
          "midi": 48,
          "time": 169.9999999999998,
          "velocity": 0.6692913385826772,
          "duration": 0.15000000000000568
        },
        {
          "name": "C3",
          "midi": 48,
          "time": 170.2499999999998,
          "velocity": 0.6692913385826772,
          "duration": 0.15000000000000568
        },
        {
          "name": "F3",
          "midi": 53,
          "time": 170.2499999999998,
          "velocity": 0.6692913385826772,
          "duration": 0.15000000000000568
        },
        {
          "name": "C4",
          "midi": 60,
          "time": 170.2499999999998,
          "velocity": 0.5039370078740157,
          "duration": 0.15000000000000568
        },
        {
          "name": "F4",
          "midi": 65,
          "time": 170.2499999999998,
          "velocity": 0.5039370078740157,
          "duration": 0.15000000000000568
        },
        {
          "name": "F3",
          "midi": 53,
          "time": 170.4999999999998,
          "velocity": 0.6692913385826772,
          "duration": 0.15000000000000568
        },
        {
          "name": "C4",
          "midi": 60,
          "time": 170.4999999999998,
          "velocity": 0.5039370078740157,
          "duration": 0.15000000000000568
        },
        {
          "name": "F4",
          "midi": 65,
          "time": 170.4999999999998,
          "velocity": 0.5039370078740157,
          "duration": 0.15000000000000568
        },
        {
          "name": "C3",
          "midi": 48,
          "time": 170.4999999999998,
          "velocity": 0.6692913385826772,
          "duration": 0.15000000000000568
        },
        {
          "name": "C4",
          "midi": 60,
          "time": 170.7499999999998,
          "velocity": 0.5039370078740157,
          "duration": 0.15000000000000568
        },
        {
          "name": "F4",
          "midi": 65,
          "time": 170.7499999999998,
          "velocity": 0.5039370078740157,
          "duration": 0.15000000000000568
        },
        {
          "name": "C3",
          "midi": 48,
          "time": 170.7499999999998,
          "velocity": 0.6692913385826772,
          "duration": 0.15000000000000568
        },
        {
          "name": "F3",
          "midi": 53,
          "time": 170.7499999999998,
          "velocity": 0.6692913385826772,
          "duration": 0.15000000000000568
        },
        {
          "name": "F4",
          "midi": 65,
          "time": 170.9999999999998,
          "velocity": 0.5039370078740157,
          "duration": 0.15000000000000568
        },
        {
          "name": "C3",
          "midi": 48,
          "time": 170.9999999999998,
          "velocity": 0.6692913385826772,
          "duration": 0.15000000000000568
        },
        {
          "name": "C4",
          "midi": 60,
          "time": 170.9999999999998,
          "velocity": 0.5039370078740157,
          "duration": 0.15000000000000568
        },
        {
          "name": "F3",
          "midi": 53,
          "time": 170.9999999999998,
          "velocity": 0.6692913385826772,
          "duration": 0.15000000000000568
        },
        {
          "name": "C4",
          "midi": 60,
          "time": 171.2499999999998,
          "velocity": 0.5039370078740157,
          "duration": 0.15000000000000568
        },
        {
          "name": "F3",
          "midi": 53,
          "time": 171.2499999999998,
          "velocity": 0.6692913385826772,
          "duration": 0.15000000000000568
        },
        {
          "name": "C3",
          "midi": 48,
          "time": 171.2499999999998,
          "velocity": 0.6692913385826772,
          "duration": 0.15000000000000568
        },
        {
          "name": "F4",
          "midi": 65,
          "time": 171.2499999999998,
          "velocity": 0.5039370078740157,
          "duration": 0.15000000000000568
        },
        {
          "name": "F4",
          "midi": 65,
          "time": 171.4999999999998,
          "velocity": 0.5039370078740157,
          "duration": 0.15000000000000568
        },
        {
          "name": "C3",
          "midi": 48,
          "time": 171.4999999999998,
          "velocity": 0.6692913385826772,
          "duration": 0.15000000000000568
        },
        {
          "name": "C4",
          "midi": 60,
          "time": 171.4999999999998,
          "velocity": 0.5039370078740157,
          "duration": 0.15000000000000568
        },
        {
          "name": "F3",
          "midi": 53,
          "time": 171.4999999999998,
          "velocity": 0.6692913385826772,
          "duration": 0.15000000000000568
        },
        {
          "name": "C3",
          "midi": 48,
          "time": 171.7499999999998,
          "velocity": 0.6692913385826772,
          "duration": 0.15000000000000568
        },
        {
          "name": "F4",
          "midi": 65,
          "time": 171.7499999999998,
          "velocity": 0.5039370078740157,
          "duration": 0.15000000000000568
        },
        {
          "name": "C4",
          "midi": 60,
          "time": 171.7499999999998,
          "velocity": 0.5039370078740157,
          "duration": 0.15000000000000568
        },
        {
          "name": "F3",
          "midi": 53,
          "time": 171.7499999999998,
          "velocity": 0.6692913385826772,
          "duration": 0.15000000000000568
        },
        {
          "name": "G3",
          "midi": 55,
          "time": 171.9999999999998,
          "velocity": 0.6692913385826772,
          "duration": 0.15000000000000568
        },
        {
          "name": "C3",
          "midi": 48,
          "time": 171.9999999999998,
          "velocity": 0.6692913385826772,
          "duration": 0.15000000000000568
        },
        {
          "name": "C4",
          "midi": 60,
          "time": 171.9999999999998,
          "velocity": 0.5039370078740157,
          "duration": 0.15000000000000568
        },
        {
          "name": "G4",
          "midi": 67,
          "time": 171.9999999999998,
          "velocity": 0.5039370078740157,
          "duration": 0.15000000000000568
        },
        {
          "name": "G4",
          "midi": 67,
          "time": 172.2499999999998,
          "velocity": 0.5039370078740157,
          "duration": 0.15000000000000568
        },
        {
          "name": "G3",
          "midi": 55,
          "time": 172.2499999999998,
          "velocity": 0.6692913385826772,
          "duration": 0.15000000000000568
        },
        {
          "name": "C4",
          "midi": 60,
          "time": 172.2499999999998,
          "velocity": 0.5039370078740157,
          "duration": 0.15000000000000568
        },
        {
          "name": "C3",
          "midi": 48,
          "time": 172.2499999999998,
          "velocity": 0.6692913385826772,
          "duration": 0.15000000000000568
        },
        {
          "name": "G3",
          "midi": 55,
          "time": 172.4999999999998,
          "velocity": 0.6692913385826772,
          "duration": 0.15000000000000568
        },
        {
          "name": "C3",
          "midi": 48,
          "time": 172.4999999999998,
          "velocity": 0.6692913385826772,
          "duration": 0.15000000000000568
        },
        {
          "name": "C4",
          "midi": 60,
          "time": 172.4999999999998,
          "velocity": 0.5039370078740157,
          "duration": 0.15000000000000568
        },
        {
          "name": "G4",
          "midi": 67,
          "time": 172.4999999999998,
          "velocity": 0.5039370078740157,
          "duration": 0.15000000000000568
        },
        {
          "name": "C4",
          "midi": 60,
          "time": 172.7499999999998,
          "velocity": 0.5039370078740157,
          "duration": 0.15000000000000568
        },
        {
          "name": "G3",
          "midi": 55,
          "time": 172.7499999999998,
          "velocity": 0.6692913385826772,
          "duration": 0.15000000000000568
        },
        {
          "name": "G4",
          "midi": 67,
          "time": 172.7499999999998,
          "velocity": 0.5039370078740157,
          "duration": 0.15000000000000568
        },
        {
          "name": "C3",
          "midi": 48,
          "time": 172.7499999999998,
          "velocity": 0.6692913385826772,
          "duration": 0.15000000000000568
        },
        {
          "name": "C3",
          "midi": 48,
          "time": 172.9999999999998,
          "velocity": 0.6692913385826772,
          "duration": 0.15000000000000568
        },
        {
          "name": "G4",
          "midi": 67,
          "time": 172.9999999999998,
          "velocity": 0.5039370078740157,
          "duration": 0.15000000000000568
        },
        {
          "name": "C4",
          "midi": 60,
          "time": 172.9999999999998,
          "velocity": 0.5039370078740157,
          "duration": 0.15000000000000568
        },
        {
          "name": "G3",
          "midi": 55,
          "time": 172.9999999999998,
          "velocity": 0.6692913385826772,
          "duration": 0.15000000000000568
        },
        {
          "name": "G4",
          "midi": 67,
          "time": 173.2499999999998,
          "velocity": 0.5039370078740157,
          "duration": 0.15000000000000568
        },
        {
          "name": "C4",
          "midi": 60,
          "time": 173.2499999999998,
          "velocity": 0.5039370078740157,
          "duration": 0.15000000000000568
        },
        {
          "name": "C3",
          "midi": 48,
          "time": 173.2499999999998,
          "velocity": 0.6692913385826772,
          "duration": 0.15000000000000568
        },
        {
          "name": "G3",
          "midi": 55,
          "time": 173.2499999999998,
          "velocity": 0.6692913385826772,
          "duration": 0.15000000000000568
        },
        {
          "name": "G3",
          "midi": 55,
          "time": 173.4999999999998,
          "velocity": 0.6692913385826772,
          "duration": 0.15000000000000568
        },
        {
          "name": "C4",
          "midi": 60,
          "time": 173.4999999999998,
          "velocity": 0.5039370078740157,
          "duration": 0.15000000000000568
        },
        {
          "name": "G4",
          "midi": 67,
          "time": 173.4999999999998,
          "velocity": 0.5039370078740157,
          "duration": 0.15000000000000568
        },
        {
          "name": "C3",
          "midi": 48,
          "time": 173.4999999999998,
          "velocity": 0.6692913385826772,
          "duration": 0.15000000000000568
        },
        {
          "name": "C4",
          "midi": 60,
          "time": 173.7499999999998,
          "velocity": 0.5039370078740157,
          "duration": 0.15000000000000568
        },
        {
          "name": "C3",
          "midi": 48,
          "time": 173.7499999999998,
          "velocity": 0.6692913385826772,
          "duration": 0.15000000000000568
        },
        {
          "name": "G4",
          "midi": 67,
          "time": 173.7499999999998,
          "velocity": 0.5039370078740157,
          "duration": 0.15000000000000568
        },
        {
          "name": "G3",
          "midi": 55,
          "time": 173.7499999999998,
          "velocity": 0.6692913385826772,
          "duration": 0.15000000000000568
        },
        {
          "name": "D4",
          "midi": 62,
          "time": 173.9999999999998,
          "velocity": 0.5039370078740157,
          "duration": 0.15000000000000568
        },
        {
          "name": "G4",
          "midi": 67,
          "time": 173.9999999999998,
          "velocity": 0.5039370078740157,
          "duration": 0.15000000000000568
        },
        {
          "name": "G3",
          "midi": 55,
          "time": 173.9999999999998,
          "velocity": 0.6692913385826772,
          "duration": 0.15000000000000568
        },
        {
          "name": "D3",
          "midi": 50,
          "time": 173.9999999999998,
          "velocity": 0.6692913385826772,
          "duration": 0.15000000000000568
        },
        {
          "name": "D4",
          "midi": 62,
          "time": 174.2499999999998,
          "velocity": 0.5039370078740157,
          "duration": 0.15000000000000568
        },
        {
          "name": "D3",
          "midi": 50,
          "time": 174.2499999999998,
          "velocity": 0.6692913385826772,
          "duration": 0.15000000000000568
        },
        {
          "name": "G3",
          "midi": 55,
          "time": 174.2499999999998,
          "velocity": 0.6692913385826772,
          "duration": 0.15000000000000568
        },
        {
          "name": "G4",
          "midi": 67,
          "time": 174.2499999999998,
          "velocity": 0.5039370078740157,
          "duration": 0.15000000000000568
        },
        {
          "name": "G3",
          "midi": 55,
          "time": 174.4999999999998,
          "velocity": 0.6692913385826772,
          "duration": 0.15000000000000568
        },
        {
          "name": "D4",
          "midi": 62,
          "time": 174.4999999999998,
          "velocity": 0.5039370078740157,
          "duration": 0.15000000000000568
        },
        {
          "name": "D3",
          "midi": 50,
          "time": 174.4999999999998,
          "velocity": 0.6692913385826772,
          "duration": 0.15000000000000568
        },
        {
          "name": "G4",
          "midi": 67,
          "time": 174.4999999999998,
          "velocity": 0.5039370078740157,
          "duration": 0.15000000000000568
        },
        {
          "name": "G4",
          "midi": 67,
          "time": 174.7499999999998,
          "velocity": 0.5039370078740157,
          "duration": 0.15000000000000568
        },
        {
          "name": "G3",
          "midi": 55,
          "time": 174.7499999999998,
          "velocity": 0.6692913385826772,
          "duration": 0.15000000000000568
        },
        {
          "name": "D3",
          "midi": 50,
          "time": 174.7499999999998,
          "velocity": 0.6692913385826772,
          "duration": 0.15000000000000568
        },
        {
          "name": "D4",
          "midi": 62,
          "time": 174.7499999999998,
          "velocity": 0.5039370078740157,
          "duration": 0.15000000000000568
        },
        {
          "name": "G3",
          "midi": 55,
          "time": 174.9999999999998,
          "velocity": 0.6692913385826772,
          "duration": 0.15000000000000568
        },
        {
          "name": "D4",
          "midi": 62,
          "time": 174.9999999999998,
          "velocity": 0.5039370078740157,
          "duration": 0.15000000000000568
        },
        {
          "name": "D3",
          "midi": 50,
          "time": 174.9999999999998,
          "velocity": 0.6692913385826772,
          "duration": 0.15000000000000568
        },
        {
          "name": "G4",
          "midi": 67,
          "time": 174.9999999999998,
          "velocity": 0.5039370078740157,
          "duration": 0.15000000000000568
        },
        {
          "name": "D4",
          "midi": 62,
          "time": 175.2499999999998,
          "velocity": 0.5039370078740157,
          "duration": 0.15000000000000568
        },
        {
          "name": "G4",
          "midi": 67,
          "time": 175.2499999999998,
          "velocity": 0.5039370078740157,
          "duration": 0.15000000000000568
        },
        {
          "name": "D3",
          "midi": 50,
          "time": 175.2499999999998,
          "velocity": 0.6692913385826772,
          "duration": 0.15000000000000568
        },
        {
          "name": "G3",
          "midi": 55,
          "time": 175.2499999999998,
          "velocity": 0.6692913385826772,
          "duration": 0.15000000000000568
        },
        {
          "name": "D3",
          "midi": 50,
          "time": 175.4999999999998,
          "velocity": 0.6692913385826772,
          "duration": 0.15000000000000568
        },
        {
          "name": "G4",
          "midi": 67,
          "time": 175.4999999999998,
          "velocity": 0.5039370078740157,
          "duration": 0.15000000000000568
        },
        {
          "name": "G3",
          "midi": 55,
          "time": 175.4999999999998,
          "velocity": 0.6692913385826772,
          "duration": 0.15000000000000568
        },
        {
          "name": "D4",
          "midi": 62,
          "time": 175.4999999999998,
          "velocity": 0.5039370078740157,
          "duration": 0.15000000000000568
        },
        {
          "name": "G3",
          "midi": 55,
          "time": 175.7499999999998,
          "velocity": 0.6692913385826772,
          "duration": 0.15000000000000568
        },
        {
          "name": "G4",
          "midi": 67,
          "time": 175.7499999999998,
          "velocity": 0.5039370078740157,
          "duration": 0.15000000000000568
        },
        {
          "name": "D3",
          "midi": 50,
          "time": 175.7499999999998,
          "velocity": 0.6692913385826772,
          "duration": 0.15000000000000568
        },
        {
          "name": "D4",
          "midi": 62,
          "time": 175.7499999999998,
          "velocity": 0.5039370078740157,
          "duration": 0.15000000000000568
        },
        {
          "name": "A#3",
          "midi": 58,
          "time": 175.9999999999998,
          "velocity": 0.6692913385826772,
          "duration": 0.15000000000000568
        },
        {
          "name": "F4",
          "midi": 65,
          "time": 175.9999999999998,
          "velocity": 0.5039370078740157,
          "duration": 0.15000000000000568
        },
        {
          "name": "F3",
          "midi": 53,
          "time": 175.9999999999998,
          "velocity": 0.6692913385826772,
          "duration": 0.15000000000000568
        },
        {
          "name": "A#4",
          "midi": 70,
          "time": 175.9999999999998,
          "velocity": 0.5039370078740157,
          "duration": 0.15000000000000568
        },
        {
          "name": "A#4",
          "midi": 70,
          "time": 176.2499999999998,
          "velocity": 0.5039370078740157,
          "duration": 0.15000000000000568
        },
        {
          "name": "A#3",
          "midi": 58,
          "time": 176.2499999999998,
          "velocity": 0.6692913385826772,
          "duration": 0.15000000000000568
        },
        {
          "name": "F3",
          "midi": 53,
          "time": 176.2499999999998,
          "velocity": 0.6692913385826772,
          "duration": 0.15000000000000568
        },
        {
          "name": "F4",
          "midi": 65,
          "time": 176.2499999999998,
          "velocity": 0.5039370078740157,
          "duration": 0.15000000000000568
        },
        {
          "name": "A#3",
          "midi": 58,
          "time": 176.4999999999998,
          "velocity": 0.6692913385826772,
          "duration": 0.15000000000000568
        },
        {
          "name": "A#4",
          "midi": 70,
          "time": 176.4999999999998,
          "velocity": 0.5039370078740157,
          "duration": 0.15000000000000568
        },
        {
          "name": "F3",
          "midi": 53,
          "time": 176.4999999999998,
          "velocity": 0.6692913385826772,
          "duration": 0.15000000000000568
        },
        {
          "name": "F4",
          "midi": 65,
          "time": 176.4999999999998,
          "velocity": 0.5039370078740157,
          "duration": 0.15000000000000568
        },
        {
          "name": "A#3",
          "midi": 58,
          "time": 176.7499999999998,
          "velocity": 0.6692913385826772,
          "duration": 0.15000000000000568
        },
        {
          "name": "A#4",
          "midi": 70,
          "time": 176.7499999999998,
          "velocity": 0.5039370078740157,
          "duration": 0.15000000000000568
        },
        {
          "name": "F4",
          "midi": 65,
          "time": 176.7499999999998,
          "velocity": 0.5039370078740157,
          "duration": 0.15000000000000568
        },
        {
          "name": "F3",
          "midi": 53,
          "time": 176.7499999999998,
          "velocity": 0.6692913385826772,
          "duration": 0.15000000000000568
        },
        {
          "name": "A#3",
          "midi": 58,
          "time": 176.9999999999998,
          "velocity": 0.6692913385826772,
          "duration": 0.15000000000000568
        },
        {
          "name": "F4",
          "midi": 65,
          "time": 176.9999999999998,
          "velocity": 0.5039370078740157,
          "duration": 0.15000000000000568
        },
        {
          "name": "A#4",
          "midi": 70,
          "time": 176.9999999999998,
          "velocity": 0.5039370078740157,
          "duration": 0.15000000000000568
        },
        {
          "name": "F3",
          "midi": 53,
          "time": 176.9999999999998,
          "velocity": 0.6692913385826772,
          "duration": 0.15000000000000568
        },
        {
          "name": "F4",
          "midi": 65,
          "time": 177.2499999999998,
          "velocity": 0.5039370078740157,
          "duration": 0.15000000000000568
        },
        {
          "name": "F3",
          "midi": 53,
          "time": 177.2499999999998,
          "velocity": 0.6692913385826772,
          "duration": 0.15000000000000568
        },
        {
          "name": "A#3",
          "midi": 58,
          "time": 177.2499999999998,
          "velocity": 0.6692913385826772,
          "duration": 0.15000000000000568
        },
        {
          "name": "A#4",
          "midi": 70,
          "time": 177.2499999999998,
          "velocity": 0.5039370078740157,
          "duration": 0.15000000000000568
        },
        {
          "name": "F4",
          "midi": 65,
          "time": 177.4999999999998,
          "velocity": 0.5039370078740157,
          "duration": 0.15000000000000568
        },
        {
          "name": "F3",
          "midi": 53,
          "time": 177.4999999999998,
          "velocity": 0.6692913385826772,
          "duration": 0.15000000000000568
        },
        {
          "name": "A#3",
          "midi": 58,
          "time": 177.4999999999998,
          "velocity": 0.6692913385826772,
          "duration": 0.15000000000000568
        },
        {
          "name": "A#4",
          "midi": 70,
          "time": 177.4999999999998,
          "velocity": 0.5039370078740157,
          "duration": 0.15000000000000568
        },
        {
          "name": "F3",
          "midi": 53,
          "time": 177.7499999999998,
          "velocity": 0.6692913385826772,
          "duration": 0.15000000000000568
        },
        {
          "name": "F4",
          "midi": 65,
          "time": 177.7499999999998,
          "velocity": 0.5039370078740157,
          "duration": 0.15000000000000568
        },
        {
          "name": "A#4",
          "midi": 70,
          "time": 177.7499999999998,
          "velocity": 0.5039370078740157,
          "duration": 0.15000000000000568
        },
        {
          "name": "A#3",
          "midi": 58,
          "time": 177.7499999999998,
          "velocity": 0.6692913385826772,
          "duration": 0.15000000000000568
        },
        {
          "name": "F3",
          "midi": 53,
          "time": 177.9999999999998,
          "velocity": 0.6692913385826772,
          "duration": 0.15000000000000568
        },
        {
          "name": "C3",
          "midi": 48,
          "time": 177.9999999999998,
          "velocity": 0.6692913385826772,
          "duration": 0.15000000000000568
        },
        {
          "name": "C4",
          "midi": 60,
          "time": 177.9999999999998,
          "velocity": 0.5039370078740157,
          "duration": 0.15000000000000568
        },
        {
          "name": "F4",
          "midi": 65,
          "time": 177.9999999999998,
          "velocity": 0.5039370078740157,
          "duration": 0.15000000000000568
        },
        {
          "name": "C4",
          "midi": 60,
          "time": 178.2499999999998,
          "velocity": 0.5039370078740157,
          "duration": 0.15000000000000568
        },
        {
          "name": "F4",
          "midi": 65,
          "time": 178.2499999999998,
          "velocity": 0.5039370078740157,
          "duration": 0.15000000000000568
        },
        {
          "name": "C3",
          "midi": 48,
          "time": 178.2499999999998,
          "velocity": 0.6692913385826772,
          "duration": 0.15000000000000568
        },
        {
          "name": "F3",
          "midi": 53,
          "time": 178.2499999999998,
          "velocity": 0.6692913385826772,
          "duration": 0.15000000000000568
        },
        {
          "name": "C4",
          "midi": 60,
          "time": 178.4999999999998,
          "velocity": 0.5039370078740157,
          "duration": 0.15000000000000568
        },
        {
          "name": "C3",
          "midi": 48,
          "time": 178.4999999999998,
          "velocity": 0.6692913385826772,
          "duration": 0.15000000000000568
        },
        {
          "name": "F3",
          "midi": 53,
          "time": 178.4999999999998,
          "velocity": 0.6692913385826772,
          "duration": 0.15000000000000568
        },
        {
          "name": "F4",
          "midi": 65,
          "time": 178.4999999999998,
          "velocity": 0.5039370078740157,
          "duration": 0.15000000000000568
        },
        {
          "name": "C4",
          "midi": 60,
          "time": 178.7499999999998,
          "velocity": 0.5039370078740157,
          "duration": 0.15000000000000568
        },
        {
          "name": "F3",
          "midi": 53,
          "time": 178.7499999999998,
          "velocity": 0.6692913385826772,
          "duration": 0.15000000000000568
        },
        {
          "name": "C3",
          "midi": 48,
          "time": 178.7499999999998,
          "velocity": 0.6692913385826772,
          "duration": 0.15000000000000568
        },
        {
          "name": "F4",
          "midi": 65,
          "time": 178.7499999999998,
          "velocity": 0.5039370078740157,
          "duration": 0.15000000000000568
        },
        {
          "name": "F4",
          "midi": 65,
          "time": 178.9999999999998,
          "velocity": 0.5039370078740157,
          "duration": 0.15000000000000568
        },
        {
          "name": "C4",
          "midi": 60,
          "time": 178.9999999999998,
          "velocity": 0.5039370078740157,
          "duration": 0.15000000000000568
        },
        {
          "name": "F3",
          "midi": 53,
          "time": 178.9999999999998,
          "velocity": 0.6692913385826772,
          "duration": 0.15000000000000568
        },
        {
          "name": "C3",
          "midi": 48,
          "time": 178.9999999999998,
          "velocity": 0.6692913385826772,
          "duration": 0.15000000000000568
        },
        {
          "name": "C3",
          "midi": 48,
          "time": 179.2499999999998,
          "velocity": 0.6692913385826772,
          "duration": 0.15000000000000568
        },
        {
          "name": "F4",
          "midi": 65,
          "time": 179.2499999999998,
          "velocity": 0.5039370078740157,
          "duration": 0.15000000000000568
        },
        {
          "name": "C4",
          "midi": 60,
          "time": 179.2499999999998,
          "velocity": 0.5039370078740157,
          "duration": 0.15000000000000568
        },
        {
          "name": "F3",
          "midi": 53,
          "time": 179.2499999999998,
          "velocity": 0.6692913385826772,
          "duration": 0.15000000000000568
        },
        {
          "name": "F4",
          "midi": 65,
          "time": 179.4999999999998,
          "velocity": 0.5039370078740157,
          "duration": 0.15000000000000568
        },
        {
          "name": "C3",
          "midi": 48,
          "time": 179.4999999999998,
          "velocity": 0.6692913385826772,
          "duration": 0.15000000000000568
        },
        {
          "name": "C4",
          "midi": 60,
          "time": 179.4999999999998,
          "velocity": 0.5039370078740157,
          "duration": 0.15000000000000568
        },
        {
          "name": "F3",
          "midi": 53,
          "time": 179.4999999999998,
          "velocity": 0.6692913385826772,
          "duration": 0.15000000000000568
        },
        {
          "name": "F3",
          "midi": 53,
          "time": 179.7499999999998,
          "velocity": 0.6692913385826772,
          "duration": 0.15000000000000568
        },
        {
          "name": "F4",
          "midi": 65,
          "time": 179.7499999999998,
          "velocity": 0.5039370078740157,
          "duration": 0.15000000000000568
        },
        {
          "name": "C3",
          "midi": 48,
          "time": 179.7499999999998,
          "velocity": 0.6692913385826772,
          "duration": 0.15000000000000568
        },
        {
          "name": "C4",
          "midi": 60,
          "time": 179.7499999999998,
          "velocity": 0.5039370078740157,
          "duration": 0.15000000000000568
        },
        {
          "name": "G4",
          "midi": 67,
          "time": 179.9999999999998,
          "velocity": 0.5039370078740157,
          "duration": 0.15000000000000568
        },
        {
          "name": "C3",
          "midi": 48,
          "time": 179.9999999999998,
          "velocity": 0.6692913385826772,
          "duration": 0.15000000000000568
        },
        {
          "name": "C4",
          "midi": 60,
          "time": 179.9999999999998,
          "velocity": 0.5039370078740157,
          "duration": 0.15000000000000568
        },
        {
          "name": "G3",
          "midi": 55,
          "time": 179.9999999999998,
          "velocity": 0.6692913385826772,
          "duration": 0.15000000000000568
        },
        {
          "name": "C3",
          "midi": 48,
          "time": 180.2499999999998,
          "velocity": 0.6692913385826772,
          "duration": 0.15000000000000568
        },
        {
          "name": "G3",
          "midi": 55,
          "time": 180.2499999999998,
          "velocity": 0.6692913385826772,
          "duration": 0.15000000000000568
        },
        {
          "name": "C4",
          "midi": 60,
          "time": 180.2499999999998,
          "velocity": 0.5039370078740157,
          "duration": 0.15000000000000568
        },
        {
          "name": "G4",
          "midi": 67,
          "time": 180.2499999999998,
          "velocity": 0.5039370078740157,
          "duration": 0.15000000000000568
        },
        {
          "name": "G4",
          "midi": 67,
          "time": 180.4999999999998,
          "velocity": 0.5039370078740157,
          "duration": 0.15000000000000568
        },
        {
          "name": "C3",
          "midi": 48,
          "time": 180.4999999999998,
          "velocity": 0.6692913385826772,
          "duration": 0.15000000000000568
        },
        {
          "name": "G3",
          "midi": 55,
          "time": 180.4999999999998,
          "velocity": 0.6692913385826772,
          "duration": 0.15000000000000568
        },
        {
          "name": "C4",
          "midi": 60,
          "time": 180.4999999999998,
          "velocity": 0.5039370078740157,
          "duration": 0.15000000000000568
        },
        {
          "name": "G3",
          "midi": 55,
          "time": 180.7499999999998,
          "velocity": 0.6692913385826772,
          "duration": 0.15000000000000568
        },
        {
          "name": "C4",
          "midi": 60,
          "time": 180.7499999999998,
          "velocity": 0.5039370078740157,
          "duration": 0.15000000000000568
        },
        {
          "name": "C3",
          "midi": 48,
          "time": 180.7499999999998,
          "velocity": 0.6692913385826772,
          "duration": 0.15000000000000568
        },
        {
          "name": "G4",
          "midi": 67,
          "time": 180.7499999999998,
          "velocity": 0.5039370078740157,
          "duration": 0.15000000000000568
        },
        {
          "name": "G4",
          "midi": 67,
          "time": 180.9999999999998,
          "velocity": 0.5039370078740157,
          "duration": 0.15000000000000568
        },
        {
          "name": "G3",
          "midi": 55,
          "time": 180.9999999999998,
          "velocity": 0.6692913385826772,
          "duration": 0.15000000000000568
        },
        {
          "name": "C3",
          "midi": 48,
          "time": 180.9999999999998,
          "velocity": 0.6692913385826772,
          "duration": 0.15000000000000568
        },
        {
          "name": "C4",
          "midi": 60,
          "time": 180.9999999999998,
          "velocity": 0.5039370078740157,
          "duration": 0.15000000000000568
        },
        {
          "name": "G4",
          "midi": 67,
          "time": 181.2499999999998,
          "velocity": 0.5039370078740157,
          "duration": 0.15000000000000568
        },
        {
          "name": "C3",
          "midi": 48,
          "time": 181.2499999999998,
          "velocity": 0.6692913385826772,
          "duration": 0.15000000000000568
        },
        {
          "name": "G3",
          "midi": 55,
          "time": 181.2499999999998,
          "velocity": 0.6692913385826772,
          "duration": 0.15000000000000568
        },
        {
          "name": "C4",
          "midi": 60,
          "time": 181.2499999999998,
          "velocity": 0.5039370078740157,
          "duration": 0.15000000000000568
        },
        {
          "name": "G3",
          "midi": 55,
          "time": 181.4999999999998,
          "velocity": 0.6692913385826772,
          "duration": 0.15000000000000568
        },
        {
          "name": "C3",
          "midi": 48,
          "time": 181.4999999999998,
          "velocity": 0.6692913385826772,
          "duration": 0.15000000000000568
        },
        {
          "name": "G4",
          "midi": 67,
          "time": 181.4999999999998,
          "velocity": 0.5039370078740157,
          "duration": 0.15000000000000568
        },
        {
          "name": "C4",
          "midi": 60,
          "time": 181.4999999999998,
          "velocity": 0.5039370078740157,
          "duration": 0.15000000000000568
        },
        {
          "name": "G3",
          "midi": 55,
          "time": 181.7499999999998,
          "velocity": 0.6692913385826772,
          "duration": 0.15000000000000568
        },
        {
          "name": "G4",
          "midi": 67,
          "time": 181.7499999999998,
          "velocity": 0.5039370078740157,
          "duration": 0.15000000000000568
        },
        {
          "name": "C4",
          "midi": 60,
          "time": 181.7499999999998,
          "velocity": 0.5039370078740157,
          "duration": 0.15000000000000568
        },
        {
          "name": "C3",
          "midi": 48,
          "time": 181.7499999999998,
          "velocity": 0.6692913385826772,
          "duration": 0.15000000000000568
        },
        {
          "name": "G4",
          "midi": 67,
          "time": 181.9999999999998,
          "velocity": 0.5039370078740157,
          "duration": 0.15000000000000568
        },
        {
          "name": "G3",
          "midi": 55,
          "time": 181.9999999999998,
          "velocity": 0.6692913385826772,
          "duration": 0.15000000000000568
        },
        {
          "name": "D4",
          "midi": 62,
          "time": 181.9999999999998,
          "velocity": 0.5039370078740157,
          "duration": 0.15000000000000568
        },
        {
          "name": "D3",
          "midi": 50,
          "time": 181.9999999999998,
          "velocity": 0.6692913385826772,
          "duration": 0.15000000000000568
        },
        {
          "name": "D4",
          "midi": 62,
          "time": 182.2499999999998,
          "velocity": 0.5039370078740157,
          "duration": 0.15000000000000568
        },
        {
          "name": "G3",
          "midi": 55,
          "time": 182.2499999999998,
          "velocity": 0.6692913385826772,
          "duration": 0.15000000000000568
        },
        {
          "name": "G4",
          "midi": 67,
          "time": 182.2499999999998,
          "velocity": 0.5039370078740157,
          "duration": 0.15000000000000568
        },
        {
          "name": "D3",
          "midi": 50,
          "time": 182.2499999999998,
          "velocity": 0.6692913385826772,
          "duration": 0.15000000000000568
        },
        {
          "name": "D3",
          "midi": 50,
          "time": 182.4999999999998,
          "velocity": 0.6692913385826772,
          "duration": 0.15000000000000568
        },
        {
          "name": "G4",
          "midi": 67,
          "time": 182.4999999999998,
          "velocity": 0.5039370078740157,
          "duration": 0.15000000000000568
        },
        {
          "name": "D4",
          "midi": 62,
          "time": 182.4999999999998,
          "velocity": 0.5039370078740157,
          "duration": 0.15000000000000568
        },
        {
          "name": "G3",
          "midi": 55,
          "time": 182.4999999999998,
          "velocity": 0.6692913385826772,
          "duration": 0.15000000000000568
        },
        {
          "name": "G4",
          "midi": 67,
          "time": 182.7499999999998,
          "velocity": 0.5039370078740157,
          "duration": 0.15000000000000568
        },
        {
          "name": "D3",
          "midi": 50,
          "time": 182.7499999999998,
          "velocity": 0.6692913385826772,
          "duration": 0.15000000000000568
        },
        {
          "name": "D4",
          "midi": 62,
          "time": 182.7499999999998,
          "velocity": 0.5039370078740157,
          "duration": 0.15000000000000568
        },
        {
          "name": "G3",
          "midi": 55,
          "time": 182.7499999999998,
          "velocity": 0.6692913385826772,
          "duration": 0.15000000000000568
        },
        {
          "name": "D4",
          "midi": 62,
          "time": 182.9999999999998,
          "velocity": 0.5039370078740157,
          "duration": 0.15000000000000568
        },
        {
          "name": "G3",
          "midi": 55,
          "time": 182.9999999999998,
          "velocity": 0.6692913385826772,
          "duration": 0.15000000000000568
        },
        {
          "name": "D3",
          "midi": 50,
          "time": 182.9999999999998,
          "velocity": 0.6692913385826772,
          "duration": 0.15000000000000568
        },
        {
          "name": "G4",
          "midi": 67,
          "time": 182.9999999999998,
          "velocity": 0.5039370078740157,
          "duration": 0.15000000000000568
        },
        {
          "name": "G4",
          "midi": 67,
          "time": 183.2499999999998,
          "velocity": 0.5039370078740157,
          "duration": 0.15000000000000568
        },
        {
          "name": "D3",
          "midi": 50,
          "time": 183.2499999999998,
          "velocity": 0.6692913385826772,
          "duration": 0.15000000000000568
        },
        {
          "name": "D4",
          "midi": 62,
          "time": 183.2499999999998,
          "velocity": 0.5039370078740157,
          "duration": 0.15000000000000568
        },
        {
          "name": "G3",
          "midi": 55,
          "time": 183.2499999999998,
          "velocity": 0.6692913385826772,
          "duration": 0.15000000000000568
        },
        {
          "name": "D3",
          "midi": 50,
          "time": 183.4999999999998,
          "velocity": 0.6692913385826772,
          "duration": 0.15000000000000568
        },
        {
          "name": "G4",
          "midi": 67,
          "time": 183.4999999999998,
          "velocity": 0.5039370078740157,
          "duration": 0.15000000000000568
        },
        {
          "name": "G3",
          "midi": 55,
          "time": 183.4999999999998,
          "velocity": 0.6692913385826772,
          "duration": 0.15000000000000568
        },
        {
          "name": "D4",
          "midi": 62,
          "time": 183.4999999999998,
          "velocity": 0.5039370078740157,
          "duration": 0.15000000000000568
        },
        {
          "name": "D4",
          "midi": 62,
          "time": 183.7499999999998,
          "velocity": 0.5039370078740157,
          "duration": 0.15000000000000568
        },
        {
          "name": "D3",
          "midi": 50,
          "time": 183.7499999999998,
          "velocity": 0.6692913385826772,
          "duration": 0.15000000000000568
        },
        {
          "name": "G3",
          "midi": 55,
          "time": 183.7499999999998,
          "velocity": 0.6692913385826772,
          "duration": 0.15000000000000568
        },
        {
          "name": "G4",
          "midi": 67,
          "time": 183.7499999999998,
          "velocity": 0.5039370078740157,
          "duration": 0.15000000000000568
        },
        {
          "name": "A#3",
          "midi": 58,
          "time": 183.9999999999998,
          "velocity": 0.6692913385826772,
          "duration": 0.15000000000000568
        },
        {
          "name": "F3",
          "midi": 53,
          "time": 183.9999999999998,
          "velocity": 0.6692913385826772,
          "duration": 0.15000000000000568
        },
        {
          "name": "A#4",
          "midi": 70,
          "time": 183.9999999999998,
          "velocity": 0.5039370078740157,
          "duration": 0.15000000000000568
        },
        {
          "name": "F4",
          "midi": 65,
          "time": 183.9999999999998,
          "velocity": 0.5039370078740157,
          "duration": 0.15000000000000568
        },
        {
          "name": "F3",
          "midi": 53,
          "time": 184.2499999999998,
          "velocity": 0.6692913385826772,
          "duration": 0.15000000000000568
        },
        {
          "name": "A#3",
          "midi": 58,
          "time": 184.2499999999998,
          "velocity": 0.6692913385826772,
          "duration": 0.15000000000000568
        },
        {
          "name": "A#4",
          "midi": 70,
          "time": 184.2499999999998,
          "velocity": 0.5039370078740157,
          "duration": 0.15000000000000568
        },
        {
          "name": "F4",
          "midi": 65,
          "time": 184.2499999999998,
          "velocity": 0.5039370078740157,
          "duration": 0.15000000000000568
        },
        {
          "name": "F3",
          "midi": 53,
          "time": 184.4999999999998,
          "velocity": 0.6692913385826772,
          "duration": 0.15000000000000568
        },
        {
          "name": "F4",
          "midi": 65,
          "time": 184.4999999999998,
          "velocity": 0.5039370078740157,
          "duration": 0.15000000000000568
        },
        {
          "name": "A#4",
          "midi": 70,
          "time": 184.4999999999998,
          "velocity": 0.5039370078740157,
          "duration": 0.15000000000000568
        },
        {
          "name": "A#3",
          "midi": 58,
          "time": 184.4999999999998,
          "velocity": 0.6692913385826772,
          "duration": 0.15000000000000568
        },
        {
          "name": "F3",
          "midi": 53,
          "time": 184.7499999999998,
          "velocity": 0.6692913385826772,
          "duration": 0.15000000000000568
        },
        {
          "name": "A#4",
          "midi": 70,
          "time": 184.7499999999998,
          "velocity": 0.5039370078740157,
          "duration": 0.15000000000000568
        },
        {
          "name": "F4",
          "midi": 65,
          "time": 184.7499999999998,
          "velocity": 0.5039370078740157,
          "duration": 0.15000000000000568
        },
        {
          "name": "A#3",
          "midi": 58,
          "time": 184.7499999999998,
          "velocity": 0.6692913385826772,
          "duration": 0.15000000000000568
        },
        {
          "name": "F3",
          "midi": 53,
          "time": 184.9999999999998,
          "velocity": 0.6692913385826772,
          "duration": 0.15000000000000568
        },
        {
          "name": "F4",
          "midi": 65,
          "time": 184.9999999999998,
          "velocity": 0.5039370078740157,
          "duration": 0.15000000000000568
        },
        {
          "name": "A#3",
          "midi": 58,
          "time": 184.9999999999998,
          "velocity": 0.6692913385826772,
          "duration": 0.15000000000000568
        },
        {
          "name": "A#4",
          "midi": 70,
          "time": 184.9999999999998,
          "velocity": 0.5039370078740157,
          "duration": 0.15000000000000568
        },
        {
          "name": "A#4",
          "midi": 70,
          "time": 185.2499999999998,
          "velocity": 0.5039370078740157,
          "duration": 0.15000000000000568
        },
        {
          "name": "F3",
          "midi": 53,
          "time": 185.2499999999998,
          "velocity": 0.6692913385826772,
          "duration": 0.15000000000000568
        },
        {
          "name": "F4",
          "midi": 65,
          "time": 185.2499999999998,
          "velocity": 0.5039370078740157,
          "duration": 0.15000000000000568
        },
        {
          "name": "A#3",
          "midi": 58,
          "time": 185.2499999999998,
          "velocity": 0.6692913385826772,
          "duration": 0.15000000000000568
        },
        {
          "name": "F3",
          "midi": 53,
          "time": 185.4999999999998,
          "velocity": 0.6692913385826772,
          "duration": 0.15000000000000568
        },
        {
          "name": "F4",
          "midi": 65,
          "time": 185.4999999999998,
          "velocity": 0.5039370078740157,
          "duration": 0.15000000000000568
        },
        {
          "name": "A#3",
          "midi": 58,
          "time": 185.4999999999998,
          "velocity": 0.6692913385826772,
          "duration": 0.15000000000000568
        },
        {
          "name": "A#4",
          "midi": 70,
          "time": 185.4999999999998,
          "velocity": 0.5039370078740157,
          "duration": 0.15000000000000568
        },
        {
          "name": "A#3",
          "midi": 58,
          "time": 185.7499999999998,
          "velocity": 0.6692913385826772,
          "duration": 0.15000000000000568
        },
        {
          "name": "F4",
          "midi": 65,
          "time": 185.7499999999998,
          "velocity": 0.5039370078740157,
          "duration": 0.15000000000000568
        },
        {
          "name": "A#4",
          "midi": 70,
          "time": 185.7499999999998,
          "velocity": 0.5039370078740157,
          "duration": 0.15000000000000568
        },
        {
          "name": "F3",
          "midi": 53,
          "time": 185.7499999999998,
          "velocity": 0.6692913385826772,
          "duration": 0.15000000000000568
        },
        {
          "name": "C3",
          "midi": 48,
          "time": 185.9999999999998,
          "velocity": 0.6692913385826772,
          "duration": 0.15000000000000568
        },
        {
          "name": "F3",
          "midi": 53,
          "time": 185.9999999999998,
          "velocity": 0.6692913385826772,
          "duration": 0.15000000000000568
        },
        {
          "name": "C4",
          "midi": 60,
          "time": 185.9999999999998,
          "velocity": 0.5039370078740157,
          "duration": 0.15000000000000568
        },
        {
          "name": "F4",
          "midi": 65,
          "time": 185.9999999999998,
          "velocity": 0.5039370078740157,
          "duration": 0.15000000000000568
        },
        {
          "name": "F4",
          "midi": 65,
          "time": 186.2499999999998,
          "velocity": 0.5039370078740157,
          "duration": 0.15000000000000568
        },
        {
          "name": "C4",
          "midi": 60,
          "time": 186.2499999999998,
          "velocity": 0.5039370078740157,
          "duration": 0.15000000000000568
        },
        {
          "name": "C3",
          "midi": 48,
          "time": 186.2499999999998,
          "velocity": 0.6692913385826772,
          "duration": 0.15000000000000568
        },
        {
          "name": "F3",
          "midi": 53,
          "time": 186.2499999999998,
          "velocity": 0.6692913385826772,
          "duration": 0.15000000000000568
        },
        {
          "name": "F4",
          "midi": 65,
          "time": 186.4999999999998,
          "velocity": 0.5039370078740157,
          "duration": 0.15000000000000568
        },
        {
          "name": "F3",
          "midi": 53,
          "time": 186.4999999999998,
          "velocity": 0.6692913385826772,
          "duration": 0.15000000000000568
        },
        {
          "name": "C4",
          "midi": 60,
          "time": 186.4999999999998,
          "velocity": 0.5039370078740157,
          "duration": 0.15000000000000568
        },
        {
          "name": "C3",
          "midi": 48,
          "time": 186.4999999999998,
          "velocity": 0.6692913385826772,
          "duration": 0.15000000000000568
        },
        {
          "name": "C4",
          "midi": 60,
          "time": 186.7499999999998,
          "velocity": 0.5039370078740157,
          "duration": 0.15000000000000568
        },
        {
          "name": "F4",
          "midi": 65,
          "time": 186.7499999999998,
          "velocity": 0.5039370078740157,
          "duration": 0.15000000000000568
        },
        {
          "name": "F3",
          "midi": 53,
          "time": 186.7499999999998,
          "velocity": 0.6692913385826772,
          "duration": 0.15000000000000568
        },
        {
          "name": "C3",
          "midi": 48,
          "time": 186.7499999999998,
          "velocity": 0.6692913385826772,
          "duration": 0.15000000000000568
        },
        {
          "name": "F4",
          "midi": 65,
          "time": 186.9999999999998,
          "velocity": 0.5039370078740157,
          "duration": 0.15000000000000568
        },
        {
          "name": "F3",
          "midi": 53,
          "time": 186.9999999999998,
          "velocity": 0.6692913385826772,
          "duration": 0.15000000000000568
        },
        {
          "name": "C3",
          "midi": 48,
          "time": 186.9999999999998,
          "velocity": 0.6692913385826772,
          "duration": 0.15000000000000568
        },
        {
          "name": "C4",
          "midi": 60,
          "time": 186.9999999999998,
          "velocity": 0.5039370078740157,
          "duration": 0.15000000000000568
        },
        {
          "name": "F3",
          "midi": 53,
          "time": 187.2499999999998,
          "velocity": 0.6692913385826772,
          "duration": 0.15000000000000568
        },
        {
          "name": "F4",
          "midi": 65,
          "time": 187.2499999999998,
          "velocity": 0.5039370078740157,
          "duration": 0.15000000000000568
        },
        {
          "name": "C4",
          "midi": 60,
          "time": 187.2499999999998,
          "velocity": 0.5039370078740157,
          "duration": 0.15000000000000568
        },
        {
          "name": "C3",
          "midi": 48,
          "time": 187.2499999999998,
          "velocity": 0.6692913385826772,
          "duration": 0.15000000000000568
        },
        {
          "name": "F3",
          "midi": 53,
          "time": 187.4999999999998,
          "velocity": 0.6692913385826772,
          "duration": 0.15000000000000568
        },
        {
          "name": "C4",
          "midi": 60,
          "time": 187.4999999999998,
          "velocity": 0.5039370078740157,
          "duration": 0.15000000000000568
        },
        {
          "name": "C3",
          "midi": 48,
          "time": 187.4999999999998,
          "velocity": 0.6692913385826772,
          "duration": 0.15000000000000568
        },
        {
          "name": "F4",
          "midi": 65,
          "time": 187.4999999999998,
          "velocity": 0.5039370078740157,
          "duration": 0.15000000000000568
        },
        {
          "name": "F3",
          "midi": 53,
          "time": 187.7499999999998,
          "velocity": 0.6692913385826772,
          "duration": 0.15000000000000568
        },
        {
          "name": "C4",
          "midi": 60,
          "time": 187.7499999999998,
          "velocity": 0.5039370078740157,
          "duration": 0.15000000000000568
        },
        {
          "name": "F4",
          "midi": 65,
          "time": 187.7499999999998,
          "velocity": 0.5039370078740157,
          "duration": 0.15000000000000568
        },
        {
          "name": "C3",
          "midi": 48,
          "time": 187.7499999999998,
          "velocity": 0.6692913385826772,
          "duration": 0.15000000000000568
        },
        {
          "name": "G4",
          "midi": 67,
          "time": 187.9999999999998,
          "velocity": 0.5039370078740157,
          "duration": 0.15000000000000568
        },
        {
          "name": "C3",
          "midi": 48,
          "time": 187.9999999999998,
          "velocity": 0.6692913385826772,
          "duration": 0.15000000000000568
        },
        {
          "name": "C4",
          "midi": 60,
          "time": 187.9999999999998,
          "velocity": 0.5039370078740157,
          "duration": 0.15000000000000568
        },
        {
          "name": "G3",
          "midi": 55,
          "time": 187.9999999999998,
          "velocity": 0.6692913385826772,
          "duration": 0.15000000000000568
        },
        {
          "name": "G3",
          "midi": 55,
          "time": 188.2499999999998,
          "velocity": 0.6692913385826772,
          "duration": 0.15000000000000568
        },
        {
          "name": "C4",
          "midi": 60,
          "time": 188.2499999999998,
          "velocity": 0.5039370078740157,
          "duration": 0.15000000000000568
        },
        {
          "name": "C3",
          "midi": 48,
          "time": 188.2499999999998,
          "velocity": 0.6692913385826772,
          "duration": 0.15000000000000568
        },
        {
          "name": "G4",
          "midi": 67,
          "time": 188.2499999999998,
          "velocity": 0.5039370078740157,
          "duration": 0.15000000000000568
        },
        {
          "name": "G3",
          "midi": 55,
          "time": 188.4999999999998,
          "velocity": 0.6692913385826772,
          "duration": 0.15000000000000568
        },
        {
          "name": "C3",
          "midi": 48,
          "time": 188.4999999999998,
          "velocity": 0.6692913385826772,
          "duration": 0.15000000000000568
        },
        {
          "name": "C4",
          "midi": 60,
          "time": 188.4999999999998,
          "velocity": 0.5039370078740157,
          "duration": 0.15000000000000568
        },
        {
          "name": "G4",
          "midi": 67,
          "time": 188.4999999999998,
          "velocity": 0.5039370078740157,
          "duration": 0.15000000000000568
        },
        {
          "name": "C4",
          "midi": 60,
          "time": 188.7499999999998,
          "velocity": 0.5039370078740157,
          "duration": 0.15000000000000568
        },
        {
          "name": "G4",
          "midi": 67,
          "time": 188.7499999999998,
          "velocity": 0.5039370078740157,
          "duration": 0.15000000000000568
        },
        {
          "name": "G3",
          "midi": 55,
          "time": 188.7499999999998,
          "velocity": 0.6692913385826772,
          "duration": 0.15000000000000568
        },
        {
          "name": "C3",
          "midi": 48,
          "time": 188.7499999999998,
          "velocity": 0.6692913385826772,
          "duration": 0.15000000000000568
        },
        {
          "name": "G3",
          "midi": 55,
          "time": 188.9999999999998,
          "velocity": 0.6692913385826772,
          "duration": 0.15000000000000568
        },
        {
          "name": "C4",
          "midi": 60,
          "time": 188.9999999999998,
          "velocity": 0.5039370078740157,
          "duration": 0.15000000000000568
        },
        {
          "name": "C3",
          "midi": 48,
          "time": 188.9999999999998,
          "velocity": 0.6692913385826772,
          "duration": 0.15000000000000568
        },
        {
          "name": "G4",
          "midi": 67,
          "time": 188.9999999999998,
          "velocity": 0.5039370078740157,
          "duration": 0.15000000000000568
        },
        {
          "name": "G4",
          "midi": 67,
          "time": 189.2499999999998,
          "velocity": 0.5039370078740157,
          "duration": 0.15000000000000568
        },
        {
          "name": "C4",
          "midi": 60,
          "time": 189.2499999999998,
          "velocity": 0.5039370078740157,
          "duration": 0.15000000000000568
        },
        {
          "name": "G3",
          "midi": 55,
          "time": 189.2499999999998,
          "velocity": 0.6692913385826772,
          "duration": 0.15000000000000568
        },
        {
          "name": "C3",
          "midi": 48,
          "time": 189.2499999999998,
          "velocity": 0.6692913385826772,
          "duration": 0.15000000000000568
        },
        {
          "name": "G3",
          "midi": 55,
          "time": 189.4999999999998,
          "velocity": 0.6692913385826772,
          "duration": 0.15000000000000568
        },
        {
          "name": "C4",
          "midi": 60,
          "time": 189.4999999999998,
          "velocity": 0.5039370078740157,
          "duration": 0.15000000000000568
        },
        {
          "name": "G4",
          "midi": 67,
          "time": 189.4999999999998,
          "velocity": 0.5039370078740157,
          "duration": 0.15000000000000568
        },
        {
          "name": "C3",
          "midi": 48,
          "time": 189.4999999999998,
          "velocity": 0.6692913385826772,
          "duration": 0.15000000000000568
        },
        {
          "name": "G4",
          "midi": 67,
          "time": 189.7499999999998,
          "velocity": 0.5039370078740157,
          "duration": 0.15000000000000568
        },
        {
          "name": "C3",
          "midi": 48,
          "time": 189.7499999999998,
          "velocity": 0.6692913385826772,
          "duration": 0.15000000000000568
        },
        {
          "name": "C4",
          "midi": 60,
          "time": 189.7499999999998,
          "velocity": 0.5039370078740157,
          "duration": 0.15000000000000568
        },
        {
          "name": "G3",
          "midi": 55,
          "time": 189.7499999999998,
          "velocity": 0.6692913385826772,
          "duration": 0.15000000000000568
        },
        {
          "name": "D4",
          "midi": 62,
          "time": 189.9999999999998,
          "velocity": 0.5039370078740157,
          "duration": 0.15000000000000568
        },
        {
          "name": "G3",
          "midi": 55,
          "time": 189.9999999999998,
          "velocity": 0.6692913385826772,
          "duration": 0.15000000000000568
        },
        {
          "name": "G4",
          "midi": 67,
          "time": 189.9999999999998,
          "velocity": 0.5039370078740157,
          "duration": 0.15000000000000568
        },
        {
          "name": "D3",
          "midi": 50,
          "time": 189.9999999999998,
          "velocity": 0.6692913385826772,
          "duration": 0.15000000000000568
        },
        {
          "name": "D3",
          "midi": 50,
          "time": 190.2499999999998,
          "velocity": 0.6692913385826772,
          "duration": 0.15000000000000568
        },
        {
          "name": "G4",
          "midi": 67,
          "time": 190.2499999999998,
          "velocity": 0.5039370078740157,
          "duration": 0.15000000000000568
        },
        {
          "name": "D4",
          "midi": 62,
          "time": 190.2499999999998,
          "velocity": 0.5039370078740157,
          "duration": 0.15000000000000568
        },
        {
          "name": "G3",
          "midi": 55,
          "time": 190.2499999999998,
          "velocity": 0.6692913385826772,
          "duration": 0.15000000000000568
        },
        {
          "name": "G3",
          "midi": 55,
          "time": 190.4999999999998,
          "velocity": 0.6692913385826772,
          "duration": 0.15000000000000568
        },
        {
          "name": "D3",
          "midi": 50,
          "time": 190.4999999999998,
          "velocity": 0.6692913385826772,
          "duration": 0.15000000000000568
        },
        {
          "name": "D4",
          "midi": 62,
          "time": 190.4999999999998,
          "velocity": 0.5039370078740157,
          "duration": 0.15000000000000568
        },
        {
          "name": "G4",
          "midi": 67,
          "time": 190.4999999999998,
          "velocity": 0.5039370078740157,
          "duration": 0.15000000000000568
        },
        {
          "name": "D4",
          "midi": 62,
          "time": 190.7499999999998,
          "velocity": 0.5039370078740157,
          "duration": 0.15000000000000568
        },
        {
          "name": "G3",
          "midi": 55,
          "time": 190.7499999999998,
          "velocity": 0.6692913385826772,
          "duration": 0.15000000000000568
        },
        {
          "name": "D3",
          "midi": 50,
          "time": 190.7499999999998,
          "velocity": 0.6692913385826772,
          "duration": 0.15000000000000568
        },
        {
          "name": "G4",
          "midi": 67,
          "time": 190.7499999999998,
          "velocity": 0.5039370078740157,
          "duration": 0.15000000000000568
        },
        {
          "name": "D4",
          "midi": 62,
          "time": 190.9999999999998,
          "velocity": 0.5039370078740157,
          "duration": 0.15000000000000568
        },
        {
          "name": "G3",
          "midi": 55,
          "time": 190.9999999999998,
          "velocity": 0.6692913385826772,
          "duration": 0.15000000000000568
        },
        {
          "name": "D3",
          "midi": 50,
          "time": 190.9999999999998,
          "velocity": 0.6692913385826772,
          "duration": 0.15000000000000568
        },
        {
          "name": "G4",
          "midi": 67,
          "time": 190.9999999999998,
          "velocity": 0.5039370078740157,
          "duration": 0.15000000000000568
        },
        {
          "name": "D4",
          "midi": 62,
          "time": 191.2499999999998,
          "velocity": 0.5039370078740157,
          "duration": 0.15000000000000568
        },
        {
          "name": "D3",
          "midi": 50,
          "time": 191.2499999999998,
          "velocity": 0.6692913385826772,
          "duration": 0.15000000000000568
        },
        {
          "name": "G4",
          "midi": 67,
          "time": 191.2499999999998,
          "velocity": 0.5039370078740157,
          "duration": 0.15000000000000568
        },
        {
          "name": "G3",
          "midi": 55,
          "time": 191.2499999999998,
          "velocity": 0.6692913385826772,
          "duration": 0.15000000000000568
        },
        {
          "name": "G3",
          "midi": 55,
          "time": 191.4999999999998,
          "velocity": 0.6692913385826772,
          "duration": 0.15000000000000568
        },
        {
          "name": "G4",
          "midi": 67,
          "time": 191.4999999999998,
          "velocity": 0.5039370078740157,
          "duration": 0.15000000000000568
        },
        {
          "name": "D3",
          "midi": 50,
          "time": 191.4999999999998,
          "velocity": 0.6692913385826772,
          "duration": 0.15000000000000568
        },
        {
          "name": "D4",
          "midi": 62,
          "time": 191.4999999999998,
          "velocity": 0.5039370078740157,
          "duration": 0.15000000000000568
        },
        {
          "name": "G3",
          "midi": 55,
          "time": 191.7499999999998,
          "velocity": 0.6692913385826772,
          "duration": 0.15000000000000568
        },
        {
          "name": "D3",
          "midi": 50,
          "time": 191.7499999999998,
          "velocity": 0.6692913385826772,
          "duration": 0.15000000000000568
        },
        {
          "name": "D4",
          "midi": 62,
          "time": 191.7499999999998,
          "velocity": 0.5039370078740157,
          "duration": 0.15000000000000568
        },
        {
          "name": "G4",
          "midi": 67,
          "time": 191.7499999999998,
          "velocity": 0.5039370078740157,
          "duration": 0.15000000000000568
        },
        {
          "name": "A#4",
          "midi": 70,
          "time": 191.9999999999998,
          "velocity": 0.5039370078740157,
          "duration": 0.15000000000000568
        },
        {
          "name": "F4",
          "midi": 65,
          "time": 191.9999999999998,
          "velocity": 0.5039370078740157,
          "duration": 0.15000000000000568
        },
        {
          "name": "F3",
          "midi": 53,
          "time": 191.9999999999998,
          "velocity": 0.6692913385826772,
          "duration": 0.15000000000000568
        },
        {
          "name": "A#3",
          "midi": 58,
          "time": 191.9999999999998,
          "velocity": 0.6692913385826772,
          "duration": 0.15000000000000568
        },
        {
          "name": "F4",
          "midi": 65,
          "time": 192.2499999999998,
          "velocity": 0.5039370078740157,
          "duration": 0.15000000000000568
        },
        {
          "name": "A#4",
          "midi": 70,
          "time": 192.2499999999998,
          "velocity": 0.5039370078740157,
          "duration": 0.15000000000000568
        },
        {
          "name": "F3",
          "midi": 53,
          "time": 192.2499999999998,
          "velocity": 0.6692913385826772,
          "duration": 0.15000000000000568
        },
        {
          "name": "A#3",
          "midi": 58,
          "time": 192.2499999999998,
          "velocity": 0.6692913385826772,
          "duration": 0.15000000000000568
        },
        {
          "name": "A#3",
          "midi": 58,
          "time": 192.4999999999998,
          "velocity": 0.6692913385826772,
          "duration": 0.15000000000000568
        },
        {
          "name": "A#4",
          "midi": 70,
          "time": 192.4999999999998,
          "velocity": 0.5039370078740157,
          "duration": 0.15000000000000568
        },
        {
          "name": "F4",
          "midi": 65,
          "time": 192.4999999999998,
          "velocity": 0.5039370078740157,
          "duration": 0.15000000000000568
        },
        {
          "name": "F3",
          "midi": 53,
          "time": 192.4999999999998,
          "velocity": 0.6692913385826772,
          "duration": 0.15000000000000568
        },
        {
          "name": "F4",
          "midi": 65,
          "time": 192.7499999999998,
          "velocity": 0.5039370078740157,
          "duration": 0.15000000000000568
        },
        {
          "name": "F3",
          "midi": 53,
          "time": 192.7499999999998,
          "velocity": 0.6692913385826772,
          "duration": 0.15000000000000568
        },
        {
          "name": "A#4",
          "midi": 70,
          "time": 192.7499999999998,
          "velocity": 0.5039370078740157,
          "duration": 0.15000000000000568
        },
        {
          "name": "A#3",
          "midi": 58,
          "time": 192.7499999999998,
          "velocity": 0.6692913385826772,
          "duration": 0.15000000000000568
        },
        {
          "name": "F3",
          "midi": 53,
          "time": 192.9999999999998,
          "velocity": 0.6692913385826772,
          "duration": 0.15000000000000568
        },
        {
          "name": "A#3",
          "midi": 58,
          "time": 192.9999999999998,
          "velocity": 0.6692913385826772,
          "duration": 0.15000000000000568
        },
        {
          "name": "A#4",
          "midi": 70,
          "time": 192.9999999999998,
          "velocity": 0.5039370078740157,
          "duration": 0.15000000000000568
        },
        {
          "name": "F4",
          "midi": 65,
          "time": 192.9999999999998,
          "velocity": 0.5039370078740157,
          "duration": 0.15000000000000568
        },
        {
          "name": "F4",
          "midi": 65,
          "time": 193.2499999999998,
          "velocity": 0.5039370078740157,
          "duration": 0.15000000000000568
        },
        {
          "name": "A#4",
          "midi": 70,
          "time": 193.2499999999998,
          "velocity": 0.5039370078740157,
          "duration": 0.15000000000000568
        },
        {
          "name": "A#3",
          "midi": 58,
          "time": 193.2499999999998,
          "velocity": 0.6692913385826772,
          "duration": 0.15000000000000568
        },
        {
          "name": "F3",
          "midi": 53,
          "time": 193.2499999999998,
          "velocity": 0.6692913385826772,
          "duration": 0.15000000000000568
        },
        {
          "name": "F3",
          "midi": 53,
          "time": 193.4999999999998,
          "velocity": 0.6692913385826772,
          "duration": 0.15000000000000568
        },
        {
          "name": "F4",
          "midi": 65,
          "time": 193.4999999999998,
          "velocity": 0.5039370078740157,
          "duration": 0.15000000000000568
        },
        {
          "name": "A#3",
          "midi": 58,
          "time": 193.4999999999998,
          "velocity": 0.6692913385826772,
          "duration": 0.15000000000000568
        },
        {
          "name": "A#4",
          "midi": 70,
          "time": 193.4999999999998,
          "velocity": 0.5039370078740157,
          "duration": 0.15000000000000568
        },
        {
          "name": "F3",
          "midi": 53,
          "time": 193.7499999999998,
          "velocity": 0.6692913385826772,
          "duration": 0.15000000000000568
        },
        {
          "name": "A#3",
          "midi": 58,
          "time": 193.7499999999998,
          "velocity": 0.6692913385826772,
          "duration": 0.15000000000000568
        },
        {
          "name": "F4",
          "midi": 65,
          "time": 193.7499999999998,
          "velocity": 0.5039370078740157,
          "duration": 0.15000000000000568
        },
        {
          "name": "A#4",
          "midi": 70,
          "time": 193.7499999999998,
          "velocity": 0.5039370078740157,
          "duration": 0.15000000000000568
        },
        {
          "name": "C3",
          "midi": 48,
          "time": 193.9999999999998,
          "velocity": 0.6692913385826772,
          "duration": 0.15000000000000568
        },
        {
          "name": "F4",
          "midi": 65,
          "time": 193.9999999999998,
          "velocity": 0.5039370078740157,
          "duration": 0.15000000000000568
        },
        {
          "name": "F3",
          "midi": 53,
          "time": 193.9999999999998,
          "velocity": 0.6692913385826772,
          "duration": 0.15000000000000568
        },
        {
          "name": "C4",
          "midi": 60,
          "time": 193.9999999999998,
          "velocity": 0.5039370078740157,
          "duration": 0.15000000000000568
        },
        {
          "name": "C3",
          "midi": 48,
          "time": 194.2499999999998,
          "velocity": 0.6692913385826772,
          "duration": 0.15000000000000568
        },
        {
          "name": "F3",
          "midi": 53,
          "time": 194.2499999999998,
          "velocity": 0.6692913385826772,
          "duration": 0.15000000000000568
        },
        {
          "name": "F4",
          "midi": 65,
          "time": 194.2499999999998,
          "velocity": 0.5039370078740157,
          "duration": 0.15000000000000568
        },
        {
          "name": "C4",
          "midi": 60,
          "time": 194.2499999999998,
          "velocity": 0.5039370078740157,
          "duration": 0.15000000000000568
        },
        {
          "name": "C3",
          "midi": 48,
          "time": 194.4999999999998,
          "velocity": 0.6692913385826772,
          "duration": 0.15000000000000568
        },
        {
          "name": "F3",
          "midi": 53,
          "time": 194.4999999999998,
          "velocity": 0.6692913385826772,
          "duration": 0.15000000000000568
        },
        {
          "name": "F4",
          "midi": 65,
          "time": 194.4999999999998,
          "velocity": 0.5039370078740157,
          "duration": 0.15000000000000568
        },
        {
          "name": "C4",
          "midi": 60,
          "time": 194.4999999999998,
          "velocity": 0.5039370078740157,
          "duration": 0.15000000000000568
        },
        {
          "name": "F3",
          "midi": 53,
          "time": 194.7499999999998,
          "velocity": 0.6692913385826772,
          "duration": 0.15000000000000568
        },
        {
          "name": "C4",
          "midi": 60,
          "time": 194.7499999999998,
          "velocity": 0.5039370078740157,
          "duration": 0.15000000000000568
        },
        {
          "name": "F4",
          "midi": 65,
          "time": 194.7499999999998,
          "velocity": 0.5039370078740157,
          "duration": 0.15000000000000568
        },
        {
          "name": "C3",
          "midi": 48,
          "time": 194.7499999999998,
          "velocity": 0.6692913385826772,
          "duration": 0.15000000000000568
        },
        {
          "name": "C3",
          "midi": 48,
          "time": 194.9999999999998,
          "velocity": 0.6692913385826772,
          "duration": 0.15000000000000568
        },
        {
          "name": "F3",
          "midi": 53,
          "time": 194.9999999999998,
          "velocity": 0.6692913385826772,
          "duration": 0.15000000000000568
        },
        {
          "name": "C4",
          "midi": 60,
          "time": 194.9999999999998,
          "velocity": 0.5039370078740157,
          "duration": 0.15000000000000568
        },
        {
          "name": "F4",
          "midi": 65,
          "time": 194.9999999999998,
          "velocity": 0.5039370078740157,
          "duration": 0.15000000000000568
        },
        {
          "name": "C4",
          "midi": 60,
          "time": 195.2499999999998,
          "velocity": 0.5039370078740157,
          "duration": 0.15000000000000568
        },
        {
          "name": "F3",
          "midi": 53,
          "time": 195.2499999999998,
          "velocity": 0.6692913385826772,
          "duration": 0.15000000000000568
        },
        {
          "name": "C3",
          "midi": 48,
          "time": 195.2499999999998,
          "velocity": 0.6692913385826772,
          "duration": 0.15000000000000568
        },
        {
          "name": "F4",
          "midi": 65,
          "time": 195.2499999999998,
          "velocity": 0.5039370078740157,
          "duration": 0.15000000000000568
        },
        {
          "name": "C3",
          "midi": 48,
          "time": 195.4999999999998,
          "velocity": 0.6692913385826772,
          "duration": 0.15000000000000568
        },
        {
          "name": "F4",
          "midi": 65,
          "time": 195.4999999999998,
          "velocity": 0.5039370078740157,
          "duration": 0.15000000000000568
        },
        {
          "name": "C4",
          "midi": 60,
          "time": 195.4999999999998,
          "velocity": 0.5039370078740157,
          "duration": 0.15000000000000568
        },
        {
          "name": "F3",
          "midi": 53,
          "time": 195.4999999999998,
          "velocity": 0.6692913385826772,
          "duration": 0.15000000000000568
        },
        {
          "name": "F4",
          "midi": 65,
          "time": 195.7499999999998,
          "velocity": 0.5039370078740157,
          "duration": 0.15000000000000568
        },
        {
          "name": "C3",
          "midi": 48,
          "time": 195.7499999999998,
          "velocity": 0.6692913385826772,
          "duration": 0.15000000000000568
        },
        {
          "name": "F3",
          "midi": 53,
          "time": 195.7499999999998,
          "velocity": 0.6692913385826772,
          "duration": 0.15000000000000568
        },
        {
          "name": "C4",
          "midi": 60,
          "time": 195.7499999999998,
          "velocity": 0.5039370078740157,
          "duration": 0.15000000000000568
        },
        {
          "name": "G4",
          "midi": 67,
          "time": 195.9999999999998,
          "velocity": 0.5039370078740157,
          "duration": 0.15000000000000568
        },
        {
          "name": "C3",
          "midi": 48,
          "time": 195.9999999999998,
          "velocity": 0.6692913385826772,
          "duration": 0.15000000000000568
        },
        {
          "name": "C4",
          "midi": 60,
          "time": 195.9999999999998,
          "velocity": 0.5039370078740157,
          "duration": 0.15000000000000568
        },
        {
          "name": "G3",
          "midi": 55,
          "time": 195.9999999999998,
          "velocity": 0.6692913385826772,
          "duration": 0.15000000000000568
        },
        {
          "name": "G4",
          "midi": 67,
          "time": 196.2499999999998,
          "velocity": 0.5039370078740157,
          "duration": 0.15000000000000568
        },
        {
          "name": "G3",
          "midi": 55,
          "time": 196.2499999999998,
          "velocity": 0.6692913385826772,
          "duration": 0.15000000000000568
        },
        {
          "name": "C3",
          "midi": 48,
          "time": 196.2499999999998,
          "velocity": 0.6692913385826772,
          "duration": 0.15000000000000568
        },
        {
          "name": "C4",
          "midi": 60,
          "time": 196.2499999999998,
          "velocity": 0.5039370078740157,
          "duration": 0.15000000000000568
        },
        {
          "name": "C4",
          "midi": 60,
          "time": 196.4999999999998,
          "velocity": 0.5039370078740157,
          "duration": 0.15000000000000568
        },
        {
          "name": "G4",
          "midi": 67,
          "time": 196.4999999999998,
          "velocity": 0.5039370078740157,
          "duration": 0.15000000000000568
        },
        {
          "name": "G3",
          "midi": 55,
          "time": 196.4999999999998,
          "velocity": 0.6692913385826772,
          "duration": 0.15000000000000568
        },
        {
          "name": "C3",
          "midi": 48,
          "time": 196.4999999999998,
          "velocity": 0.6692913385826772,
          "duration": 0.15000000000000568
        },
        {
          "name": "G4",
          "midi": 67,
          "time": 196.7499999999998,
          "velocity": 0.5039370078740157,
          "duration": 0.15000000000000568
        },
        {
          "name": "C3",
          "midi": 48,
          "time": 196.7499999999998,
          "velocity": 0.6692913385826772,
          "duration": 0.15000000000000568
        },
        {
          "name": "G3",
          "midi": 55,
          "time": 196.7499999999998,
          "velocity": 0.6692913385826772,
          "duration": 0.15000000000000568
        },
        {
          "name": "C4",
          "midi": 60,
          "time": 196.7499999999998,
          "velocity": 0.5039370078740157,
          "duration": 0.15000000000000568
        },
        {
          "name": "G3",
          "midi": 55,
          "time": 196.9999999999998,
          "velocity": 0.6692913385826772,
          "duration": 0.15000000000000568
        },
        {
          "name": "C3",
          "midi": 48,
          "time": 196.9999999999998,
          "velocity": 0.6692913385826772,
          "duration": 0.15000000000000568
        },
        {
          "name": "C4",
          "midi": 60,
          "time": 196.9999999999998,
          "velocity": 0.5039370078740157,
          "duration": 0.15000000000000568
        },
        {
          "name": "G4",
          "midi": 67,
          "time": 196.9999999999998,
          "velocity": 0.5039370078740157,
          "duration": 0.15000000000000568
        },
        {
          "name": "G3",
          "midi": 55,
          "time": 197.2499999999998,
          "velocity": 0.6692913385826772,
          "duration": 0.15000000000000568
        },
        {
          "name": "C3",
          "midi": 48,
          "time": 197.2499999999998,
          "velocity": 0.6692913385826772,
          "duration": 0.15000000000000568
        },
        {
          "name": "G4",
          "midi": 67,
          "time": 197.2499999999998,
          "velocity": 0.5039370078740157,
          "duration": 0.15000000000000568
        },
        {
          "name": "C4",
          "midi": 60,
          "time": 197.2499999999998,
          "velocity": 0.5039370078740157,
          "duration": 0.15000000000000568
        },
        {
          "name": "G3",
          "midi": 55,
          "time": 197.4999999999998,
          "velocity": 0.6692913385826772,
          "duration": 0.15000000000000568
        },
        {
          "name": "C3",
          "midi": 48,
          "time": 197.4999999999998,
          "velocity": 0.6692913385826772,
          "duration": 0.15000000000000568
        },
        {
          "name": "C4",
          "midi": 60,
          "time": 197.4999999999998,
          "velocity": 0.5039370078740157,
          "duration": 0.15000000000000568
        },
        {
          "name": "G4",
          "midi": 67,
          "time": 197.4999999999998,
          "velocity": 0.5039370078740157,
          "duration": 0.15000000000000568
        },
        {
          "name": "G4",
          "midi": 67,
          "time": 197.7499999999998,
          "velocity": 0.5039370078740157,
          "duration": 0.15000000000000568
        },
        {
          "name": "G3",
          "midi": 55,
          "time": 197.7499999999998,
          "velocity": 0.6692913385826772,
          "duration": 0.15000000000000568
        },
        {
          "name": "C4",
          "midi": 60,
          "time": 197.7499999999998,
          "velocity": 0.5039370078740157,
          "duration": 0.15000000000000568
        },
        {
          "name": "C3",
          "midi": 48,
          "time": 197.7499999999998,
          "velocity": 0.6692913385826772,
          "duration": 0.15000000000000568
        },
        {
          "name": "D3",
          "midi": 50,
          "time": 197.9999999999998,
          "velocity": 0.6692913385826772,
          "duration": 7.949999999999875
        },
        {
          "name": "G2",
          "midi": 43,
          "time": 197.9999999999998,
          "velocity": 0.6692913385826772,
          "duration": 7.933333333333195
        },
        {
          "name": "G3",
          "midi": 55,
          "time": 197.9999999999998,
          "velocity": 0.6692913385826772,
          "duration": 7.983333333333235
        }
      ],
      "controlChanges": {
        "7": [
          {
            "number": 7,
            "time": 0,
            "value": 0.7637795275590551
          },
          {
            "number": 7,
            "time": 3,
            "value": 0
          },
          {
            "number": 7,
            "time": 3.2666666666666666,
            "value": 0.007874015748031496
          },
          {
            "number": 7,
            "time": 3.3333333333333335,
            "value": 0.023622047244094488
          },
          {
            "number": 7,
            "time": 3.3666666666666667,
            "value": 0.031496062992125984
          },
          {
            "number": 7,
            "time": 3.4,
            "value": 0.047244094488188976
          },
          {
            "number": 7,
            "time": 3.466666666666667,
            "value": 0.05511811023622047
          },
          {
            "number": 7,
            "time": 3.566666666666667,
            "value": 0.07086614173228346
          },
          {
            "number": 7,
            "time": 3.6333333333333337,
            "value": 0.07874015748031496
          },
          {
            "number": 7,
            "time": 3.666666666666667,
            "value": 0.09448818897637795
          },
          {
            "number": 7,
            "time": 3.733333333333334,
            "value": 0.10236220472440945
          },
          {
            "number": 7,
            "time": 3.8000000000000003,
            "value": 0.11023622047244094
          },
          {
            "number": 7,
            "time": 3.866666666666667,
            "value": 0.12598425196850394
          },
          {
            "number": 7,
            "time": 4.000000000000001,
            "value": 0.13385826771653545
          },
          {
            "number": 7,
            "time": 4.066666666666667,
            "value": 0.14960629921259844
          },
          {
            "number": 7,
            "time": 4.233333333333334,
            "value": 0.15748031496062992
          },
          {
            "number": 7,
            "time": 4.2666666666666675,
            "value": 0.1732283464566929
          },
          {
            "number": 7,
            "time": 4.333333333333334,
            "value": 0.18110236220472442
          },
          {
            "number": 7,
            "time": 4.366666666666667,
            "value": 0.1968503937007874
          },
          {
            "number": 7,
            "time": 4.4,
            "value": 0.2047244094488189
          },
          {
            "number": 7,
            "time": 4.466666666666667,
            "value": 0.2125984251968504
          },
          {
            "number": 7,
            "time": 4.5,
            "value": 0.2283464566929134
          },
          {
            "number": 7,
            "time": 4.666666666666667,
            "value": 0.23622047244094488
          },
          {
            "number": 7,
            "time": 4.733333333333333,
            "value": 0.25196850393700787
          },
          {
            "number": 7,
            "time": 4.833333333333333,
            "value": 0.25984251968503935
          },
          {
            "number": 7,
            "time": 4.933333333333333,
            "value": 0.2755905511811024
          },
          {
            "number": 7,
            "time": 4.999999999999999,
            "value": 0.28346456692913385
          },
          {
            "number": 7,
            "time": 5.099999999999999,
            "value": 0.2992125984251969
          },
          {
            "number": 7,
            "time": 5.133333333333332,
            "value": 0.30708661417322836
          },
          {
            "number": 7,
            "time": 5.166666666666665,
            "value": 0.31496062992125984
          },
          {
            "number": 7,
            "time": 5.233333333333332,
            "value": 0.33070866141732286
          },
          {
            "number": 7,
            "time": 5.299999999999998,
            "value": 0.33858267716535434
          },
          {
            "number": 7,
            "time": 5.3666666666666645,
            "value": 0.3543307086614173
          },
          {
            "number": 7,
            "time": 5.399999999999998,
            "value": 0.36220472440944884
          },
          {
            "number": 7,
            "time": 5.466666666666664,
            "value": 0.3779527559055118
          },
          {
            "number": 7,
            "time": 5.5333333333333306,
            "value": 0.3858267716535433
          },
          {
            "number": 7,
            "time": 5.566666666666664,
            "value": 0.4015748031496063
          },
          {
            "number": 7,
            "time": 5.63333333333333,
            "value": 0.4094488188976378
          },
          {
            "number": 7,
            "time": 5.666666666666663,
            "value": 0.41732283464566927
          },
          {
            "number": 7,
            "time": 5.766666666666663,
            "value": 0.4330708661417323
          },
          {
            "number": 7,
            "time": 5.8333333333333295,
            "value": 0.4566929133858268
          },
          {
            "number": 7,
            "time": 5.899999999999996,
            "value": 0.4645669291338583
          },
          {
            "number": 7,
            "time": 5.933333333333329,
            "value": 0.48031496062992124
          },
          {
            "number": 7,
            "time": 5.999999999999996,
            "value": 0.4881889763779528
          },
          {
            "number": 7,
            "time": 6.033333333333329,
            "value": 0.5039370078740157
          },
          {
            "number": 7,
            "time": 6.099999999999995,
            "value": 0.5118110236220472
          },
          {
            "number": 7,
            "time": 6.133333333333328,
            "value": 0.5196850393700787
          },
          {
            "number": 7,
            "time": 6.166666666666662,
            "value": 0.5433070866141733
          },
          {
            "number": 7,
            "time": 6.233333333333328,
            "value": 0.5590551181102362
          },
          {
            "number": 7,
            "time": 6.2999999999999945,
            "value": 0.5669291338582677
          },
          {
            "number": 7,
            "time": 6.333333333333328,
            "value": 0.5826771653543307
          },
          {
            "number": 7,
            "time": 6.366666666666661,
            "value": 0.5905511811023622
          },
          {
            "number": 7,
            "time": 6.433333333333327,
            "value": 0.5984251968503937
          },
          {
            "number": 7,
            "time": 6.533333333333327,
            "value": 0.6141732283464567
          },
          {
            "number": 7,
            "time": 6.56666666666666,
            "value": 0.6220472440944882
          },
          {
            "number": 7,
            "time": 6.633333333333327,
            "value": 0.6456692913385826
          },
          {
            "number": 7,
            "time": 6.699999999999993,
            "value": 0.6614173228346457
          },
          {
            "number": 7,
            "time": 6.7666666666666595,
            "value": 0.6850393700787402
          },
          {
            "number": 7,
            "time": 6.799999999999993,
            "value": 0.7007874015748031
          },
          {
            "number": 7,
            "time": 6.866666666666659,
            "value": 0.7165354330708661
          },
          {
            "number": 7,
            "time": 6.899999999999992,
            "value": 0.7244094488188977
          },
          {
            "number": 7,
            "time": 6.933333333333326,
            "value": 0.7401574803149606
          },
          {
            "number": 7,
            "time": 6.966666666666659,
            "value": 0.7480314960629921
          },
          {
            "number": 7,
            "time": 7.033333333333325,
            "value": 0.7716535433070866
          },
          {
            "number": 7,
            "time": 7.099999999999992,
            "value": 0.7952755905511811
          },
          {
            "number": 7,
            "time": 7.133333333333325,
            "value": 0.8188976377952756
          },
          {
            "number": 7,
            "time": 7.166666666666658,
            "value": 0.84251968503937
          },
          {
            "number": 7,
            "time": 7.2333333333333245,
            "value": 0.8503937007874016
          },
          {
            "number": 7,
            "time": 8.066666666666658,
            "value": 0.7637795275590551
          },
          {
            "number": 7,
            "time": 44.33333333333333,
            "value": 0.7401574803149606
          },
          {
            "number": 7,
            "time": 44.36666666666666,
            "value": 0.7244094488188977
          },
          {
            "number": 7,
            "time": 44.43333333333333,
            "value": 0.7165354330708661
          },
          {
            "number": 7,
            "time": 44.5,
            "value": 0.7007874015748031
          },
          {
            "number": 7,
            "time": 44.56666666666667,
            "value": 0.6929133858267716
          },
          {
            "number": 7,
            "time": 44.66666666666667,
            "value": 0.6850393700787402
          },
          {
            "number": 7,
            "time": 44.73333333333334,
            "value": 0.6692913385826772
          },
          {
            "number": 7,
            "time": 44.80000000000001,
            "value": 0.6614173228346457
          },
          {
            "number": 7,
            "time": 44.90000000000001,
            "value": 0.6456692913385826
          },
          {
            "number": 7,
            "time": 44.96666666666668,
            "value": 0.6377952755905512
          },
          {
            "number": 7,
            "time": 45.000000000000014,
            "value": 0.6220472440944882
          },
          {
            "number": 7,
            "time": 45.16666666666668,
            "value": 0.6141732283464567
          },
          {
            "number": 7,
            "time": 45.30000000000001,
            "value": 0.5984251968503937
          },
          {
            "number": 7,
            "time": 45.36666666666668,
            "value": 0.5905511811023622
          },
          {
            "number": 7,
            "time": 45.43333333333335,
            "value": 0.5826771653543307
          },
          {
            "number": 7,
            "time": 45.50000000000002,
            "value": 0.5669291338582677
          },
          {
            "number": 7,
            "time": 45.56666666666669,
            "value": 0.5590551181102362
          },
          {
            "number": 7,
            "time": 45.60000000000002,
            "value": 0.5433070866141733
          },
          {
            "number": 7,
            "time": 45.66666666666669,
            "value": 0.5354330708661418
          },
          {
            "number": 7,
            "time": 45.700000000000024,
            "value": 0.5196850393700787
          },
          {
            "number": 7,
            "time": 45.733333333333356,
            "value": 0.5118110236220472
          },
          {
            "number": 7,
            "time": 45.800000000000026,
            "value": 0.5039370078740157
          },
          {
            "number": 7,
            "time": 45.866666666666696,
            "value": 0.4881889763779528
          },
          {
            "number": 7,
            "time": 46.00000000000003,
            "value": 0.48031496062992124
          },
          {
            "number": 7,
            "time": 46.0666666666667,
            "value": 0.4645669291338583
          },
          {
            "number": 7,
            "time": 46.1666666666667,
            "value": 0.4566929133858268
          },
          {
            "number": 7,
            "time": 46.30000000000003,
            "value": 0.4409448818897638
          },
          {
            "number": 7,
            "time": 46.3666666666667,
            "value": 0.41732283464566927
          },
          {
            "number": 7,
            "time": 46.53333333333337,
            "value": 0.4094488188976378
          },
          {
            "number": 7,
            "time": 46.60000000000004,
            "value": 0.4015748031496063
          },
          {
            "number": 7,
            "time": 46.63333333333337,
            "value": 0.3858267716535433
          },
          {
            "number": 7,
            "time": 46.70000000000004,
            "value": 0.3779527559055118
          },
          {
            "number": 7,
            "time": 46.76666666666671,
            "value": 0.36220472440944884
          },
          {
            "number": 7,
            "time": 46.80000000000004,
            "value": 0.3543307086614173
          },
          {
            "number": 7,
            "time": 46.90000000000004,
            "value": 0.33858267716535434
          },
          {
            "number": 7,
            "time": 46.93333333333337,
            "value": 0.33070866141732286
          },
          {
            "number": 7,
            "time": 47.033333333333374,
            "value": 0.31496062992125984
          },
          {
            "number": 7,
            "time": 47.066666666666706,
            "value": 0.30708661417322836
          },
          {
            "number": 7,
            "time": 47.10000000000004,
            "value": 0.2992125984251969
          },
          {
            "number": 7,
            "time": 47.13333333333337,
            "value": 0.28346456692913385
          },
          {
            "number": 7,
            "time": 47.23333333333337,
            "value": 0.2755905511811024
          },
          {
            "number": 7,
            "time": 47.30000000000004,
            "value": 0.25196850393700787
          },
          {
            "number": 7,
            "time": 47.40000000000004,
            "value": 0.23622047244094488
          },
          {
            "number": 7,
            "time": 47.566666666666706,
            "value": 0.2125984251968504
          },
          {
            "number": 7,
            "time": 47.60000000000004,
            "value": 0.2047244094488189
          },
          {
            "number": 7,
            "time": 47.63333333333337,
            "value": 0.1968503937007874
          },
          {
            "number": 7,
            "time": 47.70000000000004,
            "value": 0.18110236220472442
          },
          {
            "number": 7,
            "time": 47.80000000000004,
            "value": 0.1732283464566929
          },
          {
            "number": 7,
            "time": 47.83333333333337,
            "value": 0.15748031496062992
          },
          {
            "number": 7,
            "time": 47.8666666666667,
            "value": 0.14960629921259844
          },
          {
            "number": 7,
            "time": 47.93333333333337,
            "value": 0.12598425196850394
          },
          {
            "number": 7,
            "time": 48.00000000000004,
            "value": 0.7637795275590551
          },
          {
            "number": 7,
            "time": 88.26666666666671,
            "value": 0.7559055118110236
          },
          {
            "number": 7,
            "time": 88.30000000000004,
            "value": 0.7322834645669292
          },
          {
            "number": 7,
            "time": 88.3666666666667,
            "value": 0.7165354330708661
          },
          {
            "number": 7,
            "time": 88.40000000000003,
            "value": 0.7007874015748031
          },
          {
            "number": 7,
            "time": 88.43333333333337,
            "value": 0.6771653543307087
          },
          {
            "number": 7,
            "time": 88.4666666666667,
            "value": 0.6692913385826772
          },
          {
            "number": 7,
            "time": 88.53333333333336,
            "value": 0.6535433070866141
          },
          {
            "number": 7,
            "time": 88.56666666666669,
            "value": 0.6456692913385826
          },
          {
            "number": 7,
            "time": 88.60000000000002,
            "value": 0.6220472440944882
          },
          {
            "number": 7,
            "time": 88.63333333333335,
            "value": 0.5984251968503937
          },
          {
            "number": 7,
            "time": 88.70000000000002,
            "value": 0.5826771653543307
          },
          {
            "number": 7,
            "time": 88.76666666666668,
            "value": 0.5748031496062992
          },
          {
            "number": 7,
            "time": 88.80000000000001,
            "value": 0.5669291338582677
          },
          {
            "number": 7,
            "time": 88.83333333333334,
            "value": 0.5511811023622047
          },
          {
            "number": 7,
            "time": 88.86666666666667,
            "value": 0.5433070866141733
          },
          {
            "number": 7,
            "time": 88.9,
            "value": 0.5196850393700787
          },
          {
            "number": 7,
            "time": 88.93333333333334,
            "value": 0.5039370078740157
          },
          {
            "number": 7,
            "time": 88.96666666666667,
            "value": 0.49606299212598426
          },
          {
            "number": 7,
            "time": 89,
            "value": 0.48031496062992124
          },
          {
            "number": 7,
            "time": 89.06666666666666,
            "value": 0.4566929133858268
          },
          {
            "number": 7,
            "time": 89.13333333333333,
            "value": 0.44881889763779526
          },
          {
            "number": 7,
            "time": 89.16666666666666,
            "value": 0.4330708661417323
          },
          {
            "number": 7,
            "time": 89.23333333333332,
            "value": 0.41732283464566927
          },
          {
            "number": 7,
            "time": 89.26666666666665,
            "value": 0.4015748031496063
          },
          {
            "number": 7,
            "time": 89.33333333333331,
            "value": 0.3937007874015748
          },
          {
            "number": 7,
            "time": 89.36666666666665,
            "value": 0.3779527559055118
          },
          {
            "number": 7,
            "time": 89.39999999999998,
            "value": 0.3700787401574803
          },
          {
            "number": 7,
            "time": 89.43333333333331,
            "value": 0.3543307086614173
          },
          {
            "number": 7,
            "time": 89.49999999999997,
            "value": 0.3464566929133858
          },
          {
            "number": 7,
            "time": 89.5333333333333,
            "value": 0.33070866141732286
          },
          {
            "number": 7,
            "time": 89.59999999999997,
            "value": 0.30708661417322836
          },
          {
            "number": 7,
            "time": 89.66666666666663,
            "value": 0.2992125984251969
          },
          {
            "number": 7,
            "time": 89.69999999999996,
            "value": 0.2755905511811024
          },
          {
            "number": 7,
            "time": 89.73333333333329,
            "value": 0.2677165354330709
          },
          {
            "number": 7,
            "time": 89.76666666666662,
            "value": 0.2440944881889764
          },
          {
            "number": 7,
            "time": 89.79999999999995,
            "value": 0.2283464566929134
          },
          {
            "number": 7,
            "time": 89.83333333333329,
            "value": 0.2047244094488189
          },
          {
            "number": 7,
            "time": 89.89999999999995,
            "value": 0.1968503937007874
          },
          {
            "number": 7,
            "time": 89.93333333333328,
            "value": 0.18110236220472442
          },
          {
            "number": 7,
            "time": 89.96666666666661,
            "value": 0.15748031496062992
          },
          {
            "number": 7,
            "time": 89.99999999999994,
            "value": 0.14173228346456693
          },
          {
            "number": 7,
            "time": 90.0666666666666,
            "value": 0.7637795275590551
          },
          {
            "number": 7,
            "time": 108.93333333333328,
            "value": 0.15748031496062992
          },
          {
            "number": 7,
            "time": 109.09999999999994,
            "value": 0.1732283464566929
          },
          {
            "number": 7,
            "time": 109.1666666666666,
            "value": 0.18110236220472442
          },
          {
            "number": 7,
            "time": 109.19999999999993,
            "value": 0.1968503937007874
          },
          {
            "number": 7,
            "time": 109.2666666666666,
            "value": 0.2047244094488189
          },
          {
            "number": 7,
            "time": 109.29999999999993,
            "value": 0.2125984251968504
          },
          {
            "number": 7,
            "time": 109.36666666666659,
            "value": 0.2283464566929134
          },
          {
            "number": 7,
            "time": 109.43333333333325,
            "value": 0.23622047244094488
          },
          {
            "number": 7,
            "time": 109.46666666666658,
            "value": 0.25196850393700787
          },
          {
            "number": 7,
            "time": 109.53333333333325,
            "value": 0.25984251968503935
          },
          {
            "number": 7,
            "time": 109.59999999999991,
            "value": 0.2755905511811024
          },
          {
            "number": 7,
            "time": 109.63333333333324,
            "value": 0.2992125984251969
          },
          {
            "number": 7,
            "time": 109.66666666666657,
            "value": 0.30708661417322836
          },
          {
            "number": 7,
            "time": 109.73333333333323,
            "value": 0.31496062992125984
          },
          {
            "number": 7,
            "time": 109.76666666666657,
            "value": 0.33070866141732286
          },
          {
            "number": 7,
            "time": 109.83333333333323,
            "value": 0.33858267716535434
          },
          {
            "number": 7,
            "time": 109.89999999999989,
            "value": 0.3543307086614173
          },
          {
            "number": 7,
            "time": 109.93333333333322,
            "value": 0.36220472440944884
          },
          {
            "number": 7,
            "time": 109.99999999999989,
            "value": 0.3779527559055118
          },
          {
            "number": 7,
            "time": 110.06666666666655,
            "value": 0.3858267716535433
          },
          {
            "number": 7,
            "time": 110.09999999999988,
            "value": 0.4094488188976378
          },
          {
            "number": 7,
            "time": 110.19999999999987,
            "value": 0.41732283464566927
          },
          {
            "number": 7,
            "time": 110.2333333333332,
            "value": 0.4330708661417323
          },
          {
            "number": 7,
            "time": 110.26666666666654,
            "value": 0.4409448818897638
          },
          {
            "number": 7,
            "time": 110.29999999999987,
            "value": 0.4566929133858268
          },
          {
            "number": 7,
            "time": 110.39999999999986,
            "value": 0.4645669291338583
          },
          {
            "number": 7,
            "time": 110.4333333333332,
            "value": 0.48031496062992124
          },
          {
            "number": 7,
            "time": 110.49999999999986,
            "value": 0.4881889763779528
          },
          {
            "number": 7,
            "time": 110.56666666666652,
            "value": 0.5039370078740157
          },
          {
            "number": 7,
            "time": 110.63333333333318,
            "value": 0.5118110236220472
          },
          {
            "number": 7,
            "time": 110.66666666666652,
            "value": 0.5196850393700787
          },
          {
            "number": 7,
            "time": 110.73333333333318,
            "value": 0.5354330708661418
          },
          {
            "number": 7,
            "time": 110.86666666666652,
            "value": 0.5590551181102362
          },
          {
            "number": 7,
            "time": 110.93333333333318,
            "value": 0.5669291338582677
          },
          {
            "number": 7,
            "time": 110.96666666666651,
            "value": 0.5984251968503937
          },
          {
            "number": 7,
            "time": 111.0666666666665,
            "value": 0.6141732283464567
          },
          {
            "number": 7,
            "time": 111.13333333333317,
            "value": 0.6377952755905512
          },
          {
            "number": 7,
            "time": 111.19999999999983,
            "value": 0.6614173228346457
          },
          {
            "number": 7,
            "time": 111.2666666666665,
            "value": 0.6692913385826772
          },
          {
            "number": 7,
            "time": 111.29999999999983,
            "value": 0.6850393700787402
          },
          {
            "number": 7,
            "time": 111.39999999999982,
            "value": 0.6929133858267716
          },
          {
            "number": 7,
            "time": 111.43333333333315,
            "value": 0.7007874015748031
          },
          {
            "number": 7,
            "time": 111.46666666666648,
            "value": 0.7165354330708661
          },
          {
            "number": 7,
            "time": 111.49999999999982,
            "value": 0.7244094488188977
          },
          {
            "number": 7,
            "time": 111.56666666666648,
            "value": 0.7401574803149606
          },
          {
            "number": 7,
            "time": 111.63333333333314,
            "value": 0.7480314960629921
          },
          {
            "number": 7,
            "time": 111.73333333333314,
            "value": 0.7637795275590551
          },
          {
            "number": 7,
            "time": 203.56666666666646,
            "value": 0.7480314960629921
          },
          {
            "number": 7,
            "time": 203.5999999999998,
            "value": 0.7401574803149606
          },
          {
            "number": 7,
            "time": 203.63333333333313,
            "value": 0.7165354330708661
          },
          {
            "number": 7,
            "time": 203.6999999999998,
            "value": 0.7007874015748031
          },
          {
            "number": 7,
            "time": 203.73333333333312,
            "value": 0.6929133858267716
          },
          {
            "number": 7,
            "time": 203.76666666666645,
            "value": 0.6850393700787402
          },
          {
            "number": 7,
            "time": 203.83333333333312,
            "value": 0.6692913385826772
          },
          {
            "number": 7,
            "time": 203.86666666666645,
            "value": 0.6614173228346457
          },
          {
            "number": 7,
            "time": 203.9333333333331,
            "value": 0.6377952755905512
          },
          {
            "number": 7,
            "time": 203.99999999999977,
            "value": 0.6220472440944882
          },
          {
            "number": 7,
            "time": 204.0333333333331,
            "value": 0.6141732283464567
          },
          {
            "number": 7,
            "time": 204.06666666666644,
            "value": 0.5984251968503937
          },
          {
            "number": 7,
            "time": 204.1333333333331,
            "value": 0.5826771653543307
          },
          {
            "number": 7,
            "time": 204.16666666666643,
            "value": 0.5669291338582677
          },
          {
            "number": 7,
            "time": 204.19999999999976,
            "value": 0.5590551181102362
          },
          {
            "number": 7,
            "time": 204.2333333333331,
            "value": 0.5433070866141733
          },
          {
            "number": 7,
            "time": 204.26666666666642,
            "value": 0.5354330708661418
          },
          {
            "number": 7,
            "time": 204.29999999999976,
            "value": 0.5196850393700787
          },
          {
            "number": 7,
            "time": 204.36666666666642,
            "value": 0.5118110236220472
          },
          {
            "number": 7,
            "time": 204.39999999999975,
            "value": 0.5039370078740157
          },
          {
            "number": 7,
            "time": 204.4666666666664,
            "value": 0.4881889763779528
          },
          {
            "number": 7,
            "time": 204.53333333333308,
            "value": 0.4645669291338583
          },
          {
            "number": 7,
            "time": 204.5666666666664,
            "value": 0.4409448818897638
          },
          {
            "number": 7,
            "time": 204.6666666666664,
            "value": 0.4330708661417323
          },
          {
            "number": 7,
            "time": 204.69999999999973,
            "value": 0.41732283464566927
          },
          {
            "number": 7,
            "time": 204.79999999999973,
            "value": 0.4015748031496063
          },
          {
            "number": 7,
            "time": 204.89999999999972,
            "value": 0.3779527559055118
          },
          {
            "number": 7,
            "time": 204.96666666666638,
            "value": 0.36220472440944884
          },
          {
            "number": 7,
            "time": 204.99999999999972,
            "value": 0.3543307086614173
          },
          {
            "number": 7,
            "time": 205.06666666666638,
            "value": 0.33858267716535434
          },
          {
            "number": 7,
            "time": 205.13333333333304,
            "value": 0.33070866141732286
          },
          {
            "number": 7,
            "time": 205.16666666666637,
            "value": 0.31496062992125984
          },
          {
            "number": 7,
            "time": 205.1999999999997,
            "value": 0.30708661417322836
          },
          {
            "number": 7,
            "time": 205.23333333333304,
            "value": 0.2992125984251969
          },
          {
            "number": 7,
            "time": 205.26666666666637,
            "value": 0.28346456692913385
          },
          {
            "number": 7,
            "time": 205.2999999999997,
            "value": 0.2755905511811024
          },
          {
            "number": 7,
            "time": 205.33333333333303,
            "value": 0.25984251968503935
          },
          {
            "number": 7,
            "time": 205.36666666666636,
            "value": 0.25196850393700787
          },
          {
            "number": 7,
            "time": 205.3999999999997,
            "value": 0.23622047244094488
          },
          {
            "number": 7,
            "time": 205.43333333333302,
            "value": 0.2283464566929134
          },
          {
            "number": 7,
            "time": 205.46666666666636,
            "value": 0.2125984251968504
          },
          {
            "number": 7,
            "time": 205.4999999999997,
            "value": 0.1968503937007874
          },
          {
            "number": 7,
            "time": 205.56666666666635,
            "value": 0.14960629921259844
          },
          {
            "number": 7,
            "time": 205.633333333333,
            "value": 0.15748031496062992
          },
          {
            "number": 7,
            "time": 205.66666666666634,
            "value": 0.11023622047244094
          },
          {
            "number": 7,
            "time": 205.733333333333,
            "value": 0.10236220472440945
          },
          {
            "number": 7,
            "time": 205.76666666666634,
            "value": 0.07874015748031496
          },
          {
            "number": 7,
            "time": 205.79999999999967,
            "value": 0.07086614173228346
          },
          {
            "number": 7,
            "time": 205.833333333333,
            "value": 0.047244094488188976
          },
          {
            "number": 7,
            "time": 205.89999999999966,
            "value": 0.031496062992125984
          },
          {
            "number": 7,
            "time": 205.933333333333,
            "value": 0.023622047244094488
          },
          {
            "number": 7,
            "time": 205.96666666666636,
            "value": 0
          },
          {
            "number": 7,
            "time": 207.99999999999972,
            "value": 0.7637795275590551
          }
        ],
        "10": [
          {
            "number": 10,
            "time": 0,
            "value": 0.5039370078740157
          }
        ],
        "91": [
          {
            "number": 91,
            "time": 0,
            "value": 0.31496062992125984
          }
        ],
        "93": [
          {
            "number": 93,
            "time": 0,
            "value": 0
          }
        ]
      },
      "id": 4,
      "name": "5",
      "instrumentNumber": 28,
      "instrument": "electric guitar (muted)",
      "instrumentFamily": "guitar",
      "channelNumber": 4,
      "isPercussion": false
    },
    {
      "startTime": 3.7500000000000004,
      "duration": 205.94999999999948,
      "length": 493,
      "notes": [
        {
          "name": "D3",
          "midi": 50,
          "time": 3.7500000000000004,
          "velocity": 0.6692913385826772,
          "duration": 4.166666666666657
        },
        {
          "name": "A#3",
          "midi": 58,
          "time": 3.7500000000000004,
          "velocity": 0.8346456692913385,
          "duration": 4.216666666666656
        },
        {
          "name": "G2",
          "midi": 43,
          "time": 3.7500000000000004,
          "velocity": 0.8346456692913385,
          "duration": 4.216666666666656
        },
        {
          "name": "D4",
          "midi": 62,
          "time": 27.49999999999999,
          "velocity": 0.5039370078740157,
          "duration": 0.06666666666666643
        },
        {
          "name": "A#3",
          "midi": 58,
          "time": 27.49999999999999,
          "velocity": 0.8267716535433071,
          "duration": 0.08333333333333215
        },
        {
          "name": "G4",
          "midi": 67,
          "time": 27.49999999999999,
          "velocity": 0.5039370078740157,
          "duration": 0.06666666666666643
        },
        {
          "name": "G3",
          "midi": 55,
          "time": 27.49999999999999,
          "velocity": 0.5039370078740157,
          "duration": 0.06666666666666643
        },
        {
          "name": "G4",
          "midi": 67,
          "time": 27.74999999999999,
          "velocity": 0.5039370078740157,
          "duration": 0.06666666666666643
        },
        {
          "name": "D4",
          "midi": 62,
          "time": 27.74999999999999,
          "velocity": 0.5039370078740157,
          "duration": 0.06666666666666643
        },
        {
          "name": "A#3",
          "midi": 58,
          "time": 27.74999999999999,
          "velocity": 0.8267716535433071,
          "duration": 0.08333333333333215
        },
        {
          "name": "G3",
          "midi": 55,
          "time": 27.74999999999999,
          "velocity": 0.5039370078740157,
          "duration": 0.06666666666666643
        },
        {
          "name": "A#3",
          "midi": 58,
          "time": 27.99999999999999,
          "velocity": 0.8110236220472441,
          "duration": 0.18333333333333357
        },
        {
          "name": "A#3",
          "midi": 58,
          "time": 28.24999999999999,
          "velocity": 0.8110236220472441,
          "duration": 0.18333333333333357
        },
        {
          "name": "A#3",
          "midi": 58,
          "time": 28.49999999999999,
          "velocity": 0.8110236220472441,
          "duration": 0.18333333333333357
        },
        {
          "name": "A#3",
          "midi": 58,
          "time": 28.74999999999999,
          "velocity": 0.8110236220472441,
          "duration": 0.18333333333333357
        },
        {
          "name": "A#3",
          "midi": 58,
          "time": 28.99999999999999,
          "velocity": 0.8110236220472441,
          "duration": 0.18333333333333357
        },
        {
          "name": "A#3",
          "midi": 58,
          "time": 29.24999999999999,
          "velocity": 0.8110236220472441,
          "duration": 0.18333333333333357
        },
        {
          "name": "A3",
          "midi": 57,
          "time": 29.49999999999999,
          "velocity": 0.8110236220472441,
          "duration": 0.18333333333333357
        },
        {
          "name": "A3",
          "midi": 57,
          "time": 29.74999999999999,
          "velocity": 0.8110236220472441,
          "duration": 0.18333333333333357
        },
        {
          "name": "A#3",
          "midi": 58,
          "time": 29.99999999999999,
          "velocity": 0.8110236220472441,
          "duration": 0.18333333333333357
        },
        {
          "name": "A#3",
          "midi": 58,
          "time": 30.24999999999999,
          "velocity": 0.8110236220472441,
          "duration": 0.18333333333333357
        },
        {
          "name": "A#3",
          "midi": 58,
          "time": 30.49999999999999,
          "velocity": 0.8110236220472441,
          "duration": 0.18333333333333357
        },
        {
          "name": "A#3",
          "midi": 58,
          "time": 30.74999999999999,
          "velocity": 0.8110236220472441,
          "duration": 0.18333333333333357
        },
        {
          "name": "A#3",
          "midi": 58,
          "time": 30.99999999999999,
          "velocity": 0.8110236220472441,
          "duration": 0.18333333333333357
        },
        {
          "name": "A#3",
          "midi": 58,
          "time": 31.24999999999999,
          "velocity": 0.8110236220472441,
          "duration": 0.18333333333333357
        },
        {
          "name": "C4",
          "midi": 60,
          "time": 31.49999999999999,
          "velocity": 0.8110236220472441,
          "duration": 0.18333333333333357
        },
        {
          "name": "C4",
          "midi": 60,
          "time": 31.74999999999999,
          "velocity": 0.8110236220472441,
          "duration": 0.18333333333333357
        },
        {
          "name": "A3",
          "midi": 57,
          "time": 31.99999999999999,
          "velocity": 0.8110236220472441,
          "duration": 0.18333333333333357
        },
        {
          "name": "A3",
          "midi": 57,
          "time": 32.24999999999999,
          "velocity": 0.8110236220472441,
          "duration": 0.18333333333333002
        },
        {
          "name": "A3",
          "midi": 57,
          "time": 32.49999999999999,
          "velocity": 0.8110236220472441,
          "duration": 0.18333333333333002
        },
        {
          "name": "A3",
          "midi": 57,
          "time": 32.74999999999999,
          "velocity": 0.8110236220472441,
          "duration": 0.18333333333333002
        },
        {
          "name": "A3",
          "midi": 57,
          "time": 32.99999999999999,
          "velocity": 0.8110236220472441,
          "duration": 0.18333333333333002
        },
        {
          "name": "A3",
          "midi": 57,
          "time": 33.24999999999999,
          "velocity": 0.8110236220472441,
          "duration": 0.18333333333333002
        },
        {
          "name": "A3",
          "midi": 57,
          "time": 33.49999999999999,
          "velocity": 0.8110236220472441,
          "duration": 0.18333333333333002
        },
        {
          "name": "A3",
          "midi": 57,
          "time": 33.74999999999999,
          "velocity": 0.8110236220472441,
          "duration": 0.18333333333333002
        },
        {
          "name": "G3",
          "midi": 55,
          "time": 33.99999999999999,
          "velocity": 0.8110236220472441,
          "duration": 0.18333333333333002
        },
        {
          "name": "G3",
          "midi": 55,
          "time": 34.24999999999999,
          "velocity": 0.8110236220472441,
          "duration": 0.18333333333333002
        },
        {
          "name": "G3",
          "midi": 55,
          "time": 34.49999999999999,
          "velocity": 0.8110236220472441,
          "duration": 0.18333333333333002
        },
        {
          "name": "G3",
          "midi": 55,
          "time": 34.74999999999999,
          "velocity": 0.8110236220472441,
          "duration": 0.18333333333333002
        },
        {
          "name": "G3",
          "midi": 55,
          "time": 34.99999999999999,
          "velocity": 0.8110236220472441,
          "duration": 0.18333333333333002
        },
        {
          "name": "G3",
          "midi": 55,
          "time": 35.24999999999999,
          "velocity": 0.8110236220472441,
          "duration": 0.18333333333333002
        },
        {
          "name": "A3",
          "midi": 57,
          "time": 35.49999999999999,
          "velocity": 0.8110236220472441,
          "duration": 0.18333333333333002
        },
        {
          "name": "A3",
          "midi": 57,
          "time": 35.74999999999999,
          "velocity": 0.8110236220472441,
          "duration": 0.18333333333333002
        },
        {
          "name": "A#3",
          "midi": 58,
          "time": 35.99999999999999,
          "velocity": 0.8188976377952756,
          "duration": 0.18333333333333002
        },
        {
          "name": "A#3",
          "midi": 58,
          "time": 36.24999999999999,
          "velocity": 0.8188976377952756,
          "duration": 0.18333333333333002
        },
        {
          "name": "A#3",
          "midi": 58,
          "time": 36.49999999999999,
          "velocity": 0.8110236220472441,
          "duration": 0.18333333333333002
        },
        {
          "name": "A#3",
          "midi": 58,
          "time": 36.74999999999999,
          "velocity": 0.8110236220472441,
          "duration": 0.18333333333333002
        },
        {
          "name": "A#3",
          "midi": 58,
          "time": 36.99999999999999,
          "velocity": 0.8110236220472441,
          "duration": 0.18333333333333002
        },
        {
          "name": "A#3",
          "midi": 58,
          "time": 37.24999999999999,
          "velocity": 0.8110236220472441,
          "duration": 0.18333333333333002
        },
        {
          "name": "A3",
          "midi": 57,
          "time": 37.49999999999999,
          "velocity": 0.8110236220472441,
          "duration": 0.18333333333333002
        },
        {
          "name": "A3",
          "midi": 57,
          "time": 37.74999999999999,
          "velocity": 0.8110236220472441,
          "duration": 0.18333333333333002
        },
        {
          "name": "A#3",
          "midi": 58,
          "time": 37.99999999999999,
          "velocity": 0.8110236220472441,
          "duration": 0.18333333333333002
        },
        {
          "name": "A#3",
          "midi": 58,
          "time": 38.24999999999999,
          "velocity": 0.8110236220472441,
          "duration": 0.18333333333333002
        },
        {
          "name": "A#3",
          "midi": 58,
          "time": 38.49999999999999,
          "velocity": 0.8110236220472441,
          "duration": 0.18333333333333002
        },
        {
          "name": "A#3",
          "midi": 58,
          "time": 38.74999999999999,
          "velocity": 0.8110236220472441,
          "duration": 0.18333333333333002
        },
        {
          "name": "A#3",
          "midi": 58,
          "time": 38.99999999999999,
          "velocity": 0.8110236220472441,
          "duration": 0.18333333333333002
        },
        {
          "name": "A#3",
          "midi": 58,
          "time": 39.24999999999999,
          "velocity": 0.8110236220472441,
          "duration": 0.18333333333333002
        },
        {
          "name": "C4",
          "midi": 60,
          "time": 39.49999999999999,
          "velocity": 0.8110236220472441,
          "duration": 0.18333333333333002
        },
        {
          "name": "C4",
          "midi": 60,
          "time": 39.74999999999999,
          "velocity": 0.8110236220472441,
          "duration": 0.18333333333333002
        },
        {
          "name": "A3",
          "midi": 57,
          "time": 39.99999999999999,
          "velocity": 0.8110236220472441,
          "duration": 0.18333333333333002
        },
        {
          "name": "A3",
          "midi": 57,
          "time": 40.24999999999999,
          "velocity": 0.8110236220472441,
          "duration": 0.18333333333333002
        },
        {
          "name": "A3",
          "midi": 57,
          "time": 40.49999999999999,
          "velocity": 0.8110236220472441,
          "duration": 0.18333333333333002
        },
        {
          "name": "A3",
          "midi": 57,
          "time": 40.74999999999999,
          "velocity": 0.8110236220472441,
          "duration": 0.18333333333333002
        },
        {
          "name": "A3",
          "midi": 57,
          "time": 40.99999999999999,
          "velocity": 0.8110236220472441,
          "duration": 0.18333333333333002
        },
        {
          "name": "A3",
          "midi": 57,
          "time": 41.24999999999999,
          "velocity": 0.8110236220472441,
          "duration": 0.18333333333333002
        },
        {
          "name": "A3",
          "midi": 57,
          "time": 41.49999999999999,
          "velocity": 0.8110236220472441,
          "duration": 0.18333333333333002
        },
        {
          "name": "A3",
          "midi": 57,
          "time": 41.74999999999999,
          "velocity": 0.8110236220472441,
          "duration": 0.18333333333333002
        },
        {
          "name": "G3",
          "midi": 55,
          "time": 41.99999999999999,
          "velocity": 0.8110236220472441,
          "duration": 0.18333333333333002
        },
        {
          "name": "G3",
          "midi": 55,
          "time": 42.24999999999999,
          "velocity": 0.8110236220472441,
          "duration": 0.18333333333333002
        },
        {
          "name": "G3",
          "midi": 55,
          "time": 42.49999999999999,
          "velocity": 0.8110236220472441,
          "duration": 0.18333333333333002
        },
        {
          "name": "G3",
          "midi": 55,
          "time": 42.74999999999999,
          "velocity": 0.8110236220472441,
          "duration": 0.18333333333333002
        },
        {
          "name": "G3",
          "midi": 55,
          "time": 42.99999999999999,
          "velocity": 0.8110236220472441,
          "duration": 0.18333333333333002
        },
        {
          "name": "G3",
          "midi": 55,
          "time": 43.24999999999999,
          "velocity": 0.8110236220472441,
          "duration": 0.18333333333333002
        },
        {
          "name": "A3",
          "midi": 57,
          "time": 43.49999999999999,
          "velocity": 0.8110236220472441,
          "duration": 0.18333333333333002
        },
        {
          "name": "A3",
          "midi": 57,
          "time": 43.74999999999999,
          "velocity": 0.8110236220472441,
          "duration": 0.18333333333333002
        },
        {
          "name": "A#3",
          "midi": 58,
          "time": 43.99999999999999,
          "velocity": 0.6377952755905512,
          "duration": 3.933333333333408
        },
        {
          "name": "G3",
          "midi": 55,
          "time": 43.99999999999999,
          "velocity": 0.6377952755905512,
          "duration": 3.9833333333334053
        },
        {
          "name": "D3",
          "midi": 50,
          "time": 43.99999999999999,
          "velocity": 0.6377952755905512,
          "duration": 3.9833333333334053
        },
        {
          "name": "D5",
          "midi": 74,
          "time": 69.00000000000006,
          "velocity": 0.6692913385826772,
          "duration": 2.933333333333195
        },
        {
          "name": "D4",
          "midi": 62,
          "time": 69.00000000000006,
          "velocity": 0.8346456692913385,
          "duration": 2.983333333333192
        },
        {
          "name": "G5",
          "midi": 79,
          "time": 69.00000000000006,
          "velocity": 0.8346456692913385,
          "duration": 2.983333333333192
        },
        {
          "name": "A#3",
          "midi": 58,
          "time": 71.99999999999991,
          "velocity": 0.8188976377952756,
          "duration": 0.18333333333333712
        },
        {
          "name": "A#3",
          "midi": 58,
          "time": 72.24999999999991,
          "velocity": 0.8188976377952756,
          "duration": 0.18333333333333712
        },
        {
          "name": "A#3",
          "midi": 58,
          "time": 72.49999999999991,
          "velocity": 0.8110236220472441,
          "duration": 0.18333333333333712
        },
        {
          "name": "A#3",
          "midi": 58,
          "time": 72.74999999999991,
          "velocity": 0.8110236220472441,
          "duration": 0.18333333333333712
        },
        {
          "name": "A#3",
          "midi": 58,
          "time": 72.99999999999991,
          "velocity": 0.8110236220472441,
          "duration": 0.18333333333333712
        },
        {
          "name": "A#3",
          "midi": 58,
          "time": 73.24999999999991,
          "velocity": 0.8110236220472441,
          "duration": 0.18333333333333712
        },
        {
          "name": "A3",
          "midi": 57,
          "time": 73.49999999999991,
          "velocity": 0.8110236220472441,
          "duration": 0.18333333333333712
        },
        {
          "name": "A3",
          "midi": 57,
          "time": 73.74999999999991,
          "velocity": 0.8110236220472441,
          "duration": 0.18333333333333712
        },
        {
          "name": "A#3",
          "midi": 58,
          "time": 73.99999999999991,
          "velocity": 0.8110236220472441,
          "duration": 0.18333333333333712
        },
        {
          "name": "A#3",
          "midi": 58,
          "time": 74.24999999999991,
          "velocity": 0.8110236220472441,
          "duration": 0.18333333333333712
        },
        {
          "name": "A#3",
          "midi": 58,
          "time": 74.49999999999991,
          "velocity": 0.8110236220472441,
          "duration": 0.18333333333333712
        },
        {
          "name": "A#3",
          "midi": 58,
          "time": 74.74999999999991,
          "velocity": 0.8110236220472441,
          "duration": 0.18333333333333712
        },
        {
          "name": "A#3",
          "midi": 58,
          "time": 74.99999999999991,
          "velocity": 0.8110236220472441,
          "duration": 0.18333333333333712
        },
        {
          "name": "A#3",
          "midi": 58,
          "time": 75.24999999999991,
          "velocity": 0.8110236220472441,
          "duration": 0.18333333333333712
        },
        {
          "name": "C4",
          "midi": 60,
          "time": 75.49999999999991,
          "velocity": 0.8110236220472441,
          "duration": 0.18333333333333712
        },
        {
          "name": "C4",
          "midi": 60,
          "time": 75.74999999999991,
          "velocity": 0.8110236220472441,
          "duration": 0.18333333333333712
        },
        {
          "name": "A3",
          "midi": 57,
          "time": 75.99999999999991,
          "velocity": 0.8110236220472441,
          "duration": 0.18333333333333712
        },
        {
          "name": "A3",
          "midi": 57,
          "time": 76.24999999999991,
          "velocity": 0.8110236220472441,
          "duration": 0.18333333333333712
        },
        {
          "name": "A3",
          "midi": 57,
          "time": 76.49999999999991,
          "velocity": 0.8110236220472441,
          "duration": 0.18333333333333712
        },
        {
          "name": "A3",
          "midi": 57,
          "time": 76.74999999999991,
          "velocity": 0.8110236220472441,
          "duration": 0.18333333333333712
        },
        {
          "name": "A3",
          "midi": 57,
          "time": 76.99999999999991,
          "velocity": 0.8110236220472441,
          "duration": 0.18333333333333712
        },
        {
          "name": "A3",
          "midi": 57,
          "time": 77.24999999999991,
          "velocity": 0.8110236220472441,
          "duration": 0.18333333333333712
        },
        {
          "name": "A3",
          "midi": 57,
          "time": 77.49999999999991,
          "velocity": 0.8110236220472441,
          "duration": 0.18333333333333712
        },
        {
          "name": "A3",
          "midi": 57,
          "time": 77.74999999999991,
          "velocity": 0.8110236220472441,
          "duration": 0.18333333333333712
        },
        {
          "name": "G3",
          "midi": 55,
          "time": 77.99999999999991,
          "velocity": 0.8110236220472441,
          "duration": 0.18333333333333712
        },
        {
          "name": "G3",
          "midi": 55,
          "time": 78.24999999999991,
          "velocity": 0.8110236220472441,
          "duration": 0.18333333333333712
        },
        {
          "name": "G3",
          "midi": 55,
          "time": 78.49999999999991,
          "velocity": 0.8110236220472441,
          "duration": 0.18333333333333712
        },
        {
          "name": "G3",
          "midi": 55,
          "time": 78.74999999999991,
          "velocity": 0.8110236220472441,
          "duration": 0.18333333333333712
        },
        {
          "name": "G3",
          "midi": 55,
          "time": 78.99999999999991,
          "velocity": 0.8110236220472441,
          "duration": 0.18333333333333712
        },
        {
          "name": "G3",
          "midi": 55,
          "time": 79.24999999999991,
          "velocity": 0.8110236220472441,
          "duration": 0.18333333333333712
        },
        {
          "name": "A3",
          "midi": 57,
          "time": 79.49999999999991,
          "velocity": 0.8110236220472441,
          "duration": 0.18333333333333712
        },
        {
          "name": "A3",
          "midi": 57,
          "time": 79.74999999999991,
          "velocity": 0.8110236220472441,
          "duration": 0.18333333333333712
        },
        {
          "name": "A#3",
          "midi": 58,
          "time": 79.99999999999991,
          "velocity": 0.8188976377952756,
          "duration": 0.18333333333333712
        },
        {
          "name": "A#3",
          "midi": 58,
          "time": 80.24999999999991,
          "velocity": 0.8188976377952756,
          "duration": 0.18333333333333712
        },
        {
          "name": "A#3",
          "midi": 58,
          "time": 80.49999999999991,
          "velocity": 0.8110236220472441,
          "duration": 0.18333333333333712
        },
        {
          "name": "A#3",
          "midi": 58,
          "time": 80.74999999999991,
          "velocity": 0.8110236220472441,
          "duration": 0.18333333333333712
        },
        {
          "name": "A#3",
          "midi": 58,
          "time": 80.99999999999991,
          "velocity": 0.8110236220472441,
          "duration": 0.18333333333333712
        },
        {
          "name": "A#3",
          "midi": 58,
          "time": 81.24999999999991,
          "velocity": 0.8110236220472441,
          "duration": 0.18333333333333712
        },
        {
          "name": "A3",
          "midi": 57,
          "time": 81.49999999999991,
          "velocity": 0.8110236220472441,
          "duration": 0.18333333333333712
        },
        {
          "name": "A3",
          "midi": 57,
          "time": 81.74999999999991,
          "velocity": 0.8110236220472441,
          "duration": 0.18333333333333712
        },
        {
          "name": "A#3",
          "midi": 58,
          "time": 81.99999999999991,
          "velocity": 0.8110236220472441,
          "duration": 0.18333333333333712
        },
        {
          "name": "A#3",
          "midi": 58,
          "time": 82.24999999999991,
          "velocity": 0.8110236220472441,
          "duration": 0.18333333333333712
        },
        {
          "name": "A#3",
          "midi": 58,
          "time": 82.49999999999991,
          "velocity": 0.8110236220472441,
          "duration": 0.18333333333333712
        },
        {
          "name": "A#3",
          "midi": 58,
          "time": 82.74999999999991,
          "velocity": 0.8110236220472441,
          "duration": 0.18333333333333712
        },
        {
          "name": "A#3",
          "midi": 58,
          "time": 82.99999999999991,
          "velocity": 0.8110236220472441,
          "duration": 0.18333333333333712
        },
        {
          "name": "A#3",
          "midi": 58,
          "time": 83.24999999999991,
          "velocity": 0.8110236220472441,
          "duration": 0.18333333333333712
        },
        {
          "name": "C4",
          "midi": 60,
          "time": 83.49999999999991,
          "velocity": 0.8110236220472441,
          "duration": 0.18333333333333712
        },
        {
          "name": "C4",
          "midi": 60,
          "time": 83.74999999999991,
          "velocity": 0.8110236220472441,
          "duration": 0.18333333333333712
        },
        {
          "name": "A3",
          "midi": 57,
          "time": 83.99999999999991,
          "velocity": 0.8110236220472441,
          "duration": 0.18333333333333712
        },
        {
          "name": "A3",
          "midi": 57,
          "time": 84.24999999999991,
          "velocity": 0.8110236220472441,
          "duration": 0.18333333333333712
        },
        {
          "name": "A3",
          "midi": 57,
          "time": 84.49999999999991,
          "velocity": 0.8110236220472441,
          "duration": 0.18333333333333712
        },
        {
          "name": "A3",
          "midi": 57,
          "time": 84.74999999999991,
          "velocity": 0.8110236220472441,
          "duration": 0.18333333333333712
        },
        {
          "name": "A3",
          "midi": 57,
          "time": 84.99999999999991,
          "velocity": 0.8110236220472441,
          "duration": 0.18333333333333712
        },
        {
          "name": "A3",
          "midi": 57,
          "time": 85.24999999999991,
          "velocity": 0.8110236220472441,
          "duration": 0.18333333333333712
        },
        {
          "name": "A3",
          "midi": 57,
          "time": 85.49999999999991,
          "velocity": 0.8110236220472441,
          "duration": 0.18333333333333712
        },
        {
          "name": "A3",
          "midi": 57,
          "time": 85.74999999999991,
          "velocity": 0.8110236220472441,
          "duration": 0.18333333333333712
        },
        {
          "name": "G3",
          "midi": 55,
          "time": 85.99999999999991,
          "velocity": 0.8110236220472441,
          "duration": 0.18333333333333712
        },
        {
          "name": "G3",
          "midi": 55,
          "time": 86.24999999999991,
          "velocity": 0.8110236220472441,
          "duration": 0.18333333333333712
        },
        {
          "name": "G3",
          "midi": 55,
          "time": 86.49999999999991,
          "velocity": 0.8110236220472441,
          "duration": 0.18333333333333712
        },
        {
          "name": "G3",
          "midi": 55,
          "time": 86.74999999999991,
          "velocity": 0.8110236220472441,
          "duration": 0.18333333333333712
        },
        {
          "name": "G3",
          "midi": 55,
          "time": 86.99999999999991,
          "velocity": 0.8110236220472441,
          "duration": 0.18333333333333712
        },
        {
          "name": "G3",
          "midi": 55,
          "time": 87.24999999999991,
          "velocity": 0.8110236220472441,
          "duration": 0.18333333333333712
        },
        {
          "name": "A3",
          "midi": 57,
          "time": 87.49999999999991,
          "velocity": 0.8110236220472441,
          "duration": 0.18333333333333712
        },
        {
          "name": "A3",
          "midi": 57,
          "time": 87.74999999999991,
          "velocity": 0.8110236220472441,
          "duration": 0.18333333333333712
        },
        {
          "name": "G3",
          "midi": 55,
          "time": 87.99999999999991,
          "velocity": 0.8346456692913385,
          "duration": 1.966666666666569
        },
        {
          "name": "D4",
          "midi": 62,
          "time": 108.99999999999979,
          "velocity": 0.8346456692913385,
          "duration": 2.983333333333192
        },
        {
          "name": "G5",
          "midi": 79,
          "time": 108.99999999999979,
          "velocity": 0.5039370078740157,
          "duration": 2.9666666666665265
        },
        {
          "name": "G4",
          "midi": 67,
          "time": 108.99999999999979,
          "velocity": 0.8346456692913385,
          "duration": 2.983333333333192
        },
        {
          "name": "D5",
          "midi": 74,
          "time": 108.99999999999979,
          "velocity": 0.5039370078740157,
          "duration": 2.9666666666665265
        },
        {
          "name": "A#3",
          "midi": 58,
          "time": 111.99999999999964,
          "velocity": 0.8188976377952756,
          "duration": 0.18333333333333712
        },
        {
          "name": "A#3",
          "midi": 58,
          "time": 112.24999999999964,
          "velocity": 0.8188976377952756,
          "duration": 0.18333333333333712
        },
        {
          "name": "A#3",
          "midi": 58,
          "time": 112.49999999999964,
          "velocity": 0.8110236220472441,
          "duration": 0.18333333333333712
        },
        {
          "name": "A#3",
          "midi": 58,
          "time": 112.74999999999964,
          "velocity": 0.8110236220472441,
          "duration": 0.18333333333333712
        },
        {
          "name": "A#3",
          "midi": 58,
          "time": 112.99999999999964,
          "velocity": 0.8110236220472441,
          "duration": 0.18333333333333712
        },
        {
          "name": "A#3",
          "midi": 58,
          "time": 113.24999999999964,
          "velocity": 0.8110236220472441,
          "duration": 0.18333333333333712
        },
        {
          "name": "A3",
          "midi": 57,
          "time": 113.49999999999964,
          "velocity": 0.8110236220472441,
          "duration": 0.18333333333333712
        },
        {
          "name": "A3",
          "midi": 57,
          "time": 113.74999999999964,
          "velocity": 0.8110236220472441,
          "duration": 0.18333333333333712
        },
        {
          "name": "A#3",
          "midi": 58,
          "time": 113.99999999999964,
          "velocity": 0.8110236220472441,
          "duration": 0.18333333333333712
        },
        {
          "name": "A#3",
          "midi": 58,
          "time": 114.24999999999964,
          "velocity": 0.8110236220472441,
          "duration": 0.18333333333333712
        },
        {
          "name": "A#3",
          "midi": 58,
          "time": 114.49999999999964,
          "velocity": 0.8110236220472441,
          "duration": 0.18333333333333712
        },
        {
          "name": "A#3",
          "midi": 58,
          "time": 114.74999999999964,
          "velocity": 0.8110236220472441,
          "duration": 0.18333333333333712
        },
        {
          "name": "A#3",
          "midi": 58,
          "time": 114.99999999999964,
          "velocity": 0.8110236220472441,
          "duration": 0.18333333333333712
        },
        {
          "name": "A#3",
          "midi": 58,
          "time": 115.24999999999964,
          "velocity": 0.8110236220472441,
          "duration": 0.18333333333333712
        },
        {
          "name": "C4",
          "midi": 60,
          "time": 115.49999999999964,
          "velocity": 0.8110236220472441,
          "duration": 0.18333333333333712
        },
        {
          "name": "C4",
          "midi": 60,
          "time": 115.74999999999964,
          "velocity": 0.8110236220472441,
          "duration": 0.18333333333333712
        },
        {
          "name": "A3",
          "midi": 57,
          "time": 115.99999999999964,
          "velocity": 0.8110236220472441,
          "duration": 0.18333333333333712
        },
        {
          "name": "A3",
          "midi": 57,
          "time": 116.24999999999964,
          "velocity": 0.8110236220472441,
          "duration": 0.18333333333333712
        },
        {
          "name": "A3",
          "midi": 57,
          "time": 116.49999999999964,
          "velocity": 0.8110236220472441,
          "duration": 0.18333333333333712
        },
        {
          "name": "A3",
          "midi": 57,
          "time": 116.74999999999964,
          "velocity": 0.8110236220472441,
          "duration": 0.18333333333333712
        },
        {
          "name": "A3",
          "midi": 57,
          "time": 116.99999999999964,
          "velocity": 0.8110236220472441,
          "duration": 0.18333333333333712
        },
        {
          "name": "A3",
          "midi": 57,
          "time": 117.24999999999964,
          "velocity": 0.8110236220472441,
          "duration": 0.18333333333333712
        },
        {
          "name": "A3",
          "midi": 57,
          "time": 117.49999999999964,
          "velocity": 0.8110236220472441,
          "duration": 0.18333333333333712
        },
        {
          "name": "A3",
          "midi": 57,
          "time": 117.74999999999964,
          "velocity": 0.8110236220472441,
          "duration": 0.18333333333333712
        },
        {
          "name": "G3",
          "midi": 55,
          "time": 117.99999999999964,
          "velocity": 0.8110236220472441,
          "duration": 0.18333333333333712
        },
        {
          "name": "G3",
          "midi": 55,
          "time": 118.24999999999964,
          "velocity": 0.8110236220472441,
          "duration": 0.18333333333333712
        },
        {
          "name": "G3",
          "midi": 55,
          "time": 118.49999999999964,
          "velocity": 0.8110236220472441,
          "duration": 0.18333333333333712
        },
        {
          "name": "G3",
          "midi": 55,
          "time": 118.74999999999964,
          "velocity": 0.8110236220472441,
          "duration": 0.18333333333333712
        },
        {
          "name": "G3",
          "midi": 55,
          "time": 118.99999999999964,
          "velocity": 0.8110236220472441,
          "duration": 0.18333333333333712
        },
        {
          "name": "G3",
          "midi": 55,
          "time": 119.24999999999964,
          "velocity": 0.8110236220472441,
          "duration": 0.18333333333333712
        },
        {
          "name": "A3",
          "midi": 57,
          "time": 119.49999999999964,
          "velocity": 0.8110236220472441,
          "duration": 0.18333333333333712
        },
        {
          "name": "A3",
          "midi": 57,
          "time": 119.74999999999964,
          "velocity": 0.8110236220472441,
          "duration": 0.18333333333333712
        },
        {
          "name": "A#3",
          "midi": 58,
          "time": 119.99999999999964,
          "velocity": 0.8188976377952756,
          "duration": 0.18333333333333712
        },
        {
          "name": "A#3",
          "midi": 58,
          "time": 120.24999999999964,
          "velocity": 0.8188976377952756,
          "duration": 0.18333333333333712
        },
        {
          "name": "A#3",
          "midi": 58,
          "time": 120.49999999999964,
          "velocity": 0.8110236220472441,
          "duration": 0.18333333333333712
        },
        {
          "name": "A#3",
          "midi": 58,
          "time": 120.74999999999964,
          "velocity": 0.8110236220472441,
          "duration": 0.18333333333333712
        },
        {
          "name": "A#3",
          "midi": 58,
          "time": 120.99999999999964,
          "velocity": 0.8110236220472441,
          "duration": 0.18333333333333712
        },
        {
          "name": "A#3",
          "midi": 58,
          "time": 121.24999999999964,
          "velocity": 0.8110236220472441,
          "duration": 0.18333333333333712
        },
        {
          "name": "A3",
          "midi": 57,
          "time": 121.49999999999964,
          "velocity": 0.8110236220472441,
          "duration": 0.18333333333333712
        },
        {
          "name": "A3",
          "midi": 57,
          "time": 121.74999999999964,
          "velocity": 0.8110236220472441,
          "duration": 0.18333333333333712
        },
        {
          "name": "A#3",
          "midi": 58,
          "time": 121.99999999999964,
          "velocity": 0.8110236220472441,
          "duration": 0.18333333333333712
        },
        {
          "name": "A#3",
          "midi": 58,
          "time": 122.24999999999964,
          "velocity": 0.8110236220472441,
          "duration": 0.18333333333333712
        },
        {
          "name": "A#3",
          "midi": 58,
          "time": 122.49999999999964,
          "velocity": 0.8110236220472441,
          "duration": 0.18333333333333712
        },
        {
          "name": "A#3",
          "midi": 58,
          "time": 122.74999999999964,
          "velocity": 0.8110236220472441,
          "duration": 0.18333333333333712
        },
        {
          "name": "A#3",
          "midi": 58,
          "time": 122.99999999999964,
          "velocity": 0.8110236220472441,
          "duration": 0.18333333333333712
        },
        {
          "name": "A#3",
          "midi": 58,
          "time": 123.24999999999964,
          "velocity": 0.8110236220472441,
          "duration": 0.18333333333333712
        },
        {
          "name": "C4",
          "midi": 60,
          "time": 123.49999999999964,
          "velocity": 0.8110236220472441,
          "duration": 0.18333333333333712
        },
        {
          "name": "C4",
          "midi": 60,
          "time": 123.74999999999964,
          "velocity": 0.8110236220472441,
          "duration": 0.18333333333333712
        },
        {
          "name": "A3",
          "midi": 57,
          "time": 123.99999999999964,
          "velocity": 0.8110236220472441,
          "duration": 0.18333333333333712
        },
        {
          "name": "A3",
          "midi": 57,
          "time": 124.24999999999964,
          "velocity": 0.8110236220472441,
          "duration": 0.18333333333333712
        },
        {
          "name": "A3",
          "midi": 57,
          "time": 124.49999999999964,
          "velocity": 0.8110236220472441,
          "duration": 0.18333333333333712
        },
        {
          "name": "A3",
          "midi": 57,
          "time": 124.74999999999964,
          "velocity": 0.8110236220472441,
          "duration": 0.18333333333333712
        },
        {
          "name": "A3",
          "midi": 57,
          "time": 124.99999999999964,
          "velocity": 0.8110236220472441,
          "duration": 0.18333333333333712
        },
        {
          "name": "A3",
          "midi": 57,
          "time": 125.24999999999964,
          "velocity": 0.8110236220472441,
          "duration": 0.18333333333333712
        },
        {
          "name": "A3",
          "midi": 57,
          "time": 125.49999999999964,
          "velocity": 0.8110236220472441,
          "duration": 0.18333333333333712
        },
        {
          "name": "A3",
          "midi": 57,
          "time": 125.74999999999964,
          "velocity": 0.8110236220472441,
          "duration": 0.18333333333333712
        },
        {
          "name": "G3",
          "midi": 55,
          "time": 125.99999999999964,
          "velocity": 0.8110236220472441,
          "duration": 0.18333333333333712
        },
        {
          "name": "G3",
          "midi": 55,
          "time": 126.24999999999964,
          "velocity": 0.8110236220472441,
          "duration": 0.18333333333333712
        },
        {
          "name": "G3",
          "midi": 55,
          "time": 126.49999999999964,
          "velocity": 0.8110236220472441,
          "duration": 0.18333333333333712
        },
        {
          "name": "G3",
          "midi": 55,
          "time": 126.74999999999964,
          "velocity": 0.8110236220472441,
          "duration": 0.18333333333333712
        },
        {
          "name": "A3",
          "midi": 57,
          "time": 126.99999999999964,
          "velocity": 0.8110236220472441,
          "duration": 0.18333333333333712
        },
        {
          "name": "A3",
          "midi": 57,
          "time": 127.24999999999964,
          "velocity": 0.8110236220472441,
          "duration": 0.18333333333333712
        },
        {
          "name": "A3",
          "midi": 57,
          "time": 127.49999999999964,
          "velocity": 0.8110236220472441,
          "duration": 0.18333333333333712
        },
        {
          "name": "A3",
          "midi": 57,
          "time": 127.74999999999964,
          "velocity": 0.8110236220472441,
          "duration": 0.18333333333333712
        },
        {
          "name": "A#3",
          "midi": 58,
          "time": 127.99999999999964,
          "velocity": 0.8110236220472441,
          "duration": 0.1833333333333229
        },
        {
          "name": "A#3",
          "midi": 58,
          "time": 128.24999999999963,
          "velocity": 0.8110236220472441,
          "duration": 0.18333333333333712
        },
        {
          "name": "A#3",
          "midi": 58,
          "time": 128.49999999999963,
          "velocity": 0.8110236220472441,
          "duration": 0.18333333333333712
        },
        {
          "name": "A#3",
          "midi": 58,
          "time": 128.74999999999963,
          "velocity": 0.8110236220472441,
          "duration": 0.18333333333333712
        },
        {
          "name": "A3",
          "midi": 57,
          "time": 128.99999999999963,
          "velocity": 0.8110236220472441,
          "duration": 0.18333333333333712
        },
        {
          "name": "A3",
          "midi": 57,
          "time": 129.24999999999963,
          "velocity": 0.8110236220472441,
          "duration": 0.18333333333333712
        },
        {
          "name": "A3",
          "midi": 57,
          "time": 129.49999999999963,
          "velocity": 0.8110236220472441,
          "duration": 0.18333333333333712
        },
        {
          "name": "A3",
          "midi": 57,
          "time": 129.74999999999963,
          "velocity": 0.8110236220472441,
          "duration": 0.18333333333333712
        },
        {
          "name": "A#3",
          "midi": 58,
          "time": 129.99999999999963,
          "velocity": 0.8188976377952756,
          "duration": 0.18333333333333712
        },
        {
          "name": "A#3",
          "midi": 58,
          "time": 130.24999999999963,
          "velocity": 0.8188976377952756,
          "duration": 0.18333333333333712
        },
        {
          "name": "A#3",
          "midi": 58,
          "time": 130.49999999999963,
          "velocity": 0.8110236220472441,
          "duration": 0.18333333333333712
        },
        {
          "name": "A#3",
          "midi": 58,
          "time": 130.74999999999963,
          "velocity": 0.8110236220472441,
          "duration": 0.18333333333333712
        },
        {
          "name": "A#3",
          "midi": 58,
          "time": 130.99999999999963,
          "velocity": 0.8110236220472441,
          "duration": 0.18333333333333712
        },
        {
          "name": "A#3",
          "midi": 58,
          "time": 131.24999999999963,
          "velocity": 0.8110236220472441,
          "duration": 0.18333333333333712
        },
        {
          "name": "A3",
          "midi": 57,
          "time": 131.49999999999963,
          "velocity": 0.8110236220472441,
          "duration": 0.18333333333333712
        },
        {
          "name": "A3",
          "midi": 57,
          "time": 131.74999999999963,
          "velocity": 0.8110236220472441,
          "duration": 0.18333333333333712
        },
        {
          "name": "A#3",
          "midi": 58,
          "time": 131.99999999999963,
          "velocity": 0.8110236220472441,
          "duration": 0.18333333333333712
        },
        {
          "name": "A#3",
          "midi": 58,
          "time": 132.24999999999963,
          "velocity": 0.8110236220472441,
          "duration": 0.18333333333333712
        },
        {
          "name": "A#3",
          "midi": 58,
          "time": 132.49999999999963,
          "velocity": 0.8110236220472441,
          "duration": 0.18333333333333712
        },
        {
          "name": "A#3",
          "midi": 58,
          "time": 132.74999999999963,
          "velocity": 0.8110236220472441,
          "duration": 0.18333333333333712
        },
        {
          "name": "A#3",
          "midi": 58,
          "time": 132.99999999999963,
          "velocity": 0.8110236220472441,
          "duration": 0.18333333333333712
        },
        {
          "name": "A#3",
          "midi": 58,
          "time": 133.24999999999963,
          "velocity": 0.8110236220472441,
          "duration": 0.18333333333333712
        },
        {
          "name": "C4",
          "midi": 60,
          "time": 133.49999999999963,
          "velocity": 0.8110236220472441,
          "duration": 0.18333333333333712
        },
        {
          "name": "C4",
          "midi": 60,
          "time": 133.74999999999963,
          "velocity": 0.8110236220472441,
          "duration": 0.18333333333333712
        },
        {
          "name": "A3",
          "midi": 57,
          "time": 133.99999999999963,
          "velocity": 0.8110236220472441,
          "duration": 0.18333333333333712
        },
        {
          "name": "A3",
          "midi": 57,
          "time": 134.24999999999963,
          "velocity": 0.8110236220472441,
          "duration": 0.18333333333333712
        },
        {
          "name": "A3",
          "midi": 57,
          "time": 134.49999999999963,
          "velocity": 0.8110236220472441,
          "duration": 0.18333333333333712
        },
        {
          "name": "A3",
          "midi": 57,
          "time": 134.74999999999963,
          "velocity": 0.8110236220472441,
          "duration": 0.18333333333333712
        },
        {
          "name": "A3",
          "midi": 57,
          "time": 134.99999999999963,
          "velocity": 0.8110236220472441,
          "duration": 0.18333333333333712
        },
        {
          "name": "A3",
          "midi": 57,
          "time": 135.24999999999963,
          "velocity": 0.8110236220472441,
          "duration": 0.18333333333333712
        },
        {
          "name": "A3",
          "midi": 57,
          "time": 135.49999999999963,
          "velocity": 0.8110236220472441,
          "duration": 0.18333333333333712
        },
        {
          "name": "A3",
          "midi": 57,
          "time": 135.74999999999963,
          "velocity": 0.8110236220472441,
          "duration": 0.18333333333333712
        },
        {
          "name": "G3",
          "midi": 55,
          "time": 135.99999999999963,
          "velocity": 0.8110236220472441,
          "duration": 0.18333333333333712
        },
        {
          "name": "G3",
          "midi": 55,
          "time": 136.24999999999963,
          "velocity": 0.8110236220472441,
          "duration": 0.18333333333333712
        },
        {
          "name": "G3",
          "midi": 55,
          "time": 136.49999999999963,
          "velocity": 0.8110236220472441,
          "duration": 0.18333333333333712
        },
        {
          "name": "G3",
          "midi": 55,
          "time": 136.74999999999963,
          "velocity": 0.8110236220472441,
          "duration": 0.18333333333333712
        },
        {
          "name": "G3",
          "midi": 55,
          "time": 136.99999999999963,
          "velocity": 0.8110236220472441,
          "duration": 0.18333333333333712
        },
        {
          "name": "G3",
          "midi": 55,
          "time": 137.24999999999963,
          "velocity": 0.8110236220472441,
          "duration": 0.18333333333333712
        },
        {
          "name": "A3",
          "midi": 57,
          "time": 137.49999999999963,
          "velocity": 0.8110236220472441,
          "duration": 0.18333333333333712
        },
        {
          "name": "A3",
          "midi": 57,
          "time": 137.74999999999963,
          "velocity": 0.8110236220472441,
          "duration": 0.18333333333333712
        },
        {
          "name": "A#3",
          "midi": 58,
          "time": 137.99999999999963,
          "velocity": 0.8188976377952756,
          "duration": 0.18333333333333712
        },
        {
          "name": "A#3",
          "midi": 58,
          "time": 138.24999999999963,
          "velocity": 0.8188976377952756,
          "duration": 0.18333333333333712
        },
        {
          "name": "A#3",
          "midi": 58,
          "time": 138.49999999999963,
          "velocity": 0.8110236220472441,
          "duration": 0.18333333333333712
        },
        {
          "name": "A#3",
          "midi": 58,
          "time": 138.74999999999963,
          "velocity": 0.8110236220472441,
          "duration": 0.18333333333333712
        },
        {
          "name": "A#3",
          "midi": 58,
          "time": 138.99999999999963,
          "velocity": 0.8110236220472441,
          "duration": 0.18333333333333712
        },
        {
          "name": "A#3",
          "midi": 58,
          "time": 139.24999999999963,
          "velocity": 0.8110236220472441,
          "duration": 0.18333333333333712
        },
        {
          "name": "A3",
          "midi": 57,
          "time": 139.49999999999963,
          "velocity": 0.8110236220472441,
          "duration": 0.18333333333333712
        },
        {
          "name": "A3",
          "midi": 57,
          "time": 139.74999999999963,
          "velocity": 0.8110236220472441,
          "duration": 0.18333333333333712
        },
        {
          "name": "A#3",
          "midi": 58,
          "time": 139.99999999999963,
          "velocity": 0.8110236220472441,
          "duration": 0.18333333333333712
        },
        {
          "name": "A#3",
          "midi": 58,
          "time": 140.24999999999963,
          "velocity": 0.8110236220472441,
          "duration": 0.18333333333333712
        },
        {
          "name": "A#3",
          "midi": 58,
          "time": 140.49999999999963,
          "velocity": 0.8110236220472441,
          "duration": 0.18333333333333712
        },
        {
          "name": "A#3",
          "midi": 58,
          "time": 140.74999999999963,
          "velocity": 0.8110236220472441,
          "duration": 0.18333333333333712
        },
        {
          "name": "A#3",
          "midi": 58,
          "time": 140.99999999999963,
          "velocity": 0.8110236220472441,
          "duration": 0.18333333333333712
        },
        {
          "name": "A#3",
          "midi": 58,
          "time": 141.24999999999963,
          "velocity": 0.8110236220472441,
          "duration": 0.18333333333333712
        },
        {
          "name": "C4",
          "midi": 60,
          "time": 141.49999999999963,
          "velocity": 0.8110236220472441,
          "duration": 0.18333333333333712
        },
        {
          "name": "C4",
          "midi": 60,
          "time": 141.74999999999963,
          "velocity": 0.8110236220472441,
          "duration": 0.18333333333333712
        },
        {
          "name": "A3",
          "midi": 57,
          "time": 141.99999999999963,
          "velocity": 0.8110236220472441,
          "duration": 0.18333333333333712
        },
        {
          "name": "A3",
          "midi": 57,
          "time": 142.24999999999963,
          "velocity": 0.8110236220472441,
          "duration": 0.18333333333333712
        },
        {
          "name": "A3",
          "midi": 57,
          "time": 142.49999999999963,
          "velocity": 0.8110236220472441,
          "duration": 0.18333333333333712
        },
        {
          "name": "A3",
          "midi": 57,
          "time": 142.74999999999963,
          "velocity": 0.8110236220472441,
          "duration": 0.18333333333333712
        },
        {
          "name": "A3",
          "midi": 57,
          "time": 142.99999999999963,
          "velocity": 0.8110236220472441,
          "duration": 0.18333333333333712
        },
        {
          "name": "A3",
          "midi": 57,
          "time": 143.24999999999963,
          "velocity": 0.8110236220472441,
          "duration": 0.18333333333333712
        },
        {
          "name": "A3",
          "midi": 57,
          "time": 143.49999999999963,
          "velocity": 0.8110236220472441,
          "duration": 0.18333333333333712
        },
        {
          "name": "A3",
          "midi": 57,
          "time": 143.74999999999963,
          "velocity": 0.8110236220472441,
          "duration": 0.18333333333333712
        },
        {
          "name": "G3",
          "midi": 55,
          "time": 143.99999999999963,
          "velocity": 0.8110236220472441,
          "duration": 0.18333333333333712
        },
        {
          "name": "G3",
          "midi": 55,
          "time": 144.24999999999963,
          "velocity": 0.8110236220472441,
          "duration": 0.18333333333333712
        },
        {
          "name": "G3",
          "midi": 55,
          "time": 144.49999999999963,
          "velocity": 0.8110236220472441,
          "duration": 0.18333333333333712
        },
        {
          "name": "G3",
          "midi": 55,
          "time": 144.74999999999963,
          "velocity": 0.8110236220472441,
          "duration": 0.18333333333333712
        },
        {
          "name": "A3",
          "midi": 57,
          "time": 144.99999999999963,
          "velocity": 0.8110236220472441,
          "duration": 0.18333333333333712
        },
        {
          "name": "A3",
          "midi": 57,
          "time": 145.24999999999963,
          "velocity": 0.8110236220472441,
          "duration": 0.18333333333333712
        },
        {
          "name": "A3",
          "midi": 57,
          "time": 145.49999999999963,
          "velocity": 0.8110236220472441,
          "duration": 0.18333333333333712
        },
        {
          "name": "A3",
          "midi": 57,
          "time": 145.74999999999963,
          "velocity": 0.8110236220472441,
          "duration": 0.18333333333333712
        },
        {
          "name": "A#3",
          "midi": 58,
          "time": 145.99999999999963,
          "velocity": 0.8110236220472441,
          "duration": 0.18333333333333712
        },
        {
          "name": "A#3",
          "midi": 58,
          "time": 146.24999999999963,
          "velocity": 0.8110236220472441,
          "duration": 0.18333333333333712
        },
        {
          "name": "A#3",
          "midi": 58,
          "time": 146.49999999999963,
          "velocity": 0.8110236220472441,
          "duration": 0.18333333333333712
        },
        {
          "name": "A#3",
          "midi": 58,
          "time": 146.74999999999963,
          "velocity": 0.8110236220472441,
          "duration": 0.18333333333333712
        },
        {
          "name": "A3",
          "midi": 57,
          "time": 146.99999999999963,
          "velocity": 0.8110236220472441,
          "duration": 0.18333333333333712
        },
        {
          "name": "A3",
          "midi": 57,
          "time": 147.24999999999963,
          "velocity": 0.8110236220472441,
          "duration": 0.18333333333333712
        },
        {
          "name": "A3",
          "midi": 57,
          "time": 147.49999999999963,
          "velocity": 0.8110236220472441,
          "duration": 0.18333333333333712
        },
        {
          "name": "A3",
          "midi": 57,
          "time": 147.74999999999963,
          "velocity": 0.8110236220472441,
          "duration": 0.18333333333333712
        },
        {
          "name": "A#3",
          "midi": 58,
          "time": 147.99999999999963,
          "velocity": 0.8188976377952756,
          "duration": 0.18333333333333712
        },
        {
          "name": "A#3",
          "midi": 58,
          "time": 148.24999999999963,
          "velocity": 0.8188976377952756,
          "duration": 0.18333333333333712
        },
        {
          "name": "A#3",
          "midi": 58,
          "time": 148.49999999999963,
          "velocity": 0.8110236220472441,
          "duration": 0.18333333333333712
        },
        {
          "name": "A#3",
          "midi": 58,
          "time": 148.74999999999963,
          "velocity": 0.8110236220472441,
          "duration": 0.18333333333333712
        },
        {
          "name": "A#3",
          "midi": 58,
          "time": 148.99999999999963,
          "velocity": 0.8110236220472441,
          "duration": 0.18333333333333712
        },
        {
          "name": "A#3",
          "midi": 58,
          "time": 149.24999999999963,
          "velocity": 0.8110236220472441,
          "duration": 0.18333333333333712
        },
        {
          "name": "A3",
          "midi": 57,
          "time": 149.49999999999963,
          "velocity": 0.8110236220472441,
          "duration": 0.18333333333333712
        },
        {
          "name": "A3",
          "midi": 57,
          "time": 149.74999999999963,
          "velocity": 0.8110236220472441,
          "duration": 0.18333333333333712
        },
        {
          "name": "A#3",
          "midi": 58,
          "time": 149.99999999999963,
          "velocity": 0.8110236220472441,
          "duration": 0.18333333333333712
        },
        {
          "name": "A#3",
          "midi": 58,
          "time": 150.24999999999963,
          "velocity": 0.8110236220472441,
          "duration": 0.18333333333333712
        },
        {
          "name": "A#3",
          "midi": 58,
          "time": 150.49999999999963,
          "velocity": 0.8110236220472441,
          "duration": 0.18333333333333712
        },
        {
          "name": "A#3",
          "midi": 58,
          "time": 150.74999999999963,
          "velocity": 0.8110236220472441,
          "duration": 0.18333333333333712
        },
        {
          "name": "A#3",
          "midi": 58,
          "time": 150.99999999999963,
          "velocity": 0.8110236220472441,
          "duration": 0.18333333333333712
        },
        {
          "name": "A#3",
          "midi": 58,
          "time": 151.24999999999963,
          "velocity": 0.8110236220472441,
          "duration": 0.18333333333333712
        },
        {
          "name": "C4",
          "midi": 60,
          "time": 151.49999999999963,
          "velocity": 0.8110236220472441,
          "duration": 0.18333333333333712
        },
        {
          "name": "C4",
          "midi": 60,
          "time": 151.74999999999963,
          "velocity": 0.8110236220472441,
          "duration": 0.18333333333333712
        },
        {
          "name": "A3",
          "midi": 57,
          "time": 151.99999999999963,
          "velocity": 0.8110236220472441,
          "duration": 0.18333333333333712
        },
        {
          "name": "A3",
          "midi": 57,
          "time": 152.24999999999963,
          "velocity": 0.8110236220472441,
          "duration": 0.18333333333333712
        },
        {
          "name": "A3",
          "midi": 57,
          "time": 152.49999999999963,
          "velocity": 0.8110236220472441,
          "duration": 0.18333333333333712
        },
        {
          "name": "A3",
          "midi": 57,
          "time": 152.74999999999963,
          "velocity": 0.8110236220472441,
          "duration": 0.18333333333333712
        },
        {
          "name": "A3",
          "midi": 57,
          "time": 152.99999999999963,
          "velocity": 0.8110236220472441,
          "duration": 0.18333333333333712
        },
        {
          "name": "A3",
          "midi": 57,
          "time": 153.24999999999963,
          "velocity": 0.8110236220472441,
          "duration": 0.18333333333333712
        },
        {
          "name": "A3",
          "midi": 57,
          "time": 153.49999999999963,
          "velocity": 0.8110236220472441,
          "duration": 0.18333333333333712
        },
        {
          "name": "A3",
          "midi": 57,
          "time": 153.74999999999963,
          "velocity": 0.8110236220472441,
          "duration": 0.18333333333333712
        },
        {
          "name": "G3",
          "midi": 55,
          "time": 153.99999999999963,
          "velocity": 0.8110236220472441,
          "duration": 0.18333333333333712
        },
        {
          "name": "G3",
          "midi": 55,
          "time": 154.24999999999963,
          "velocity": 0.8110236220472441,
          "duration": 0.18333333333333712
        },
        {
          "name": "G3",
          "midi": 55,
          "time": 154.49999999999963,
          "velocity": 0.8110236220472441,
          "duration": 0.18333333333333712
        },
        {
          "name": "G3",
          "midi": 55,
          "time": 154.74999999999963,
          "velocity": 0.8110236220472441,
          "duration": 0.18333333333333712
        },
        {
          "name": "A3",
          "midi": 57,
          "time": 154.99999999999963,
          "velocity": 0.8110236220472441,
          "duration": 0.18333333333333712
        },
        {
          "name": "A3",
          "midi": 57,
          "time": 155.24999999999963,
          "velocity": 0.8110236220472441,
          "duration": 0.18333333333333712
        },
        {
          "name": "A3",
          "midi": 57,
          "time": 155.49999999999963,
          "velocity": 0.8110236220472441,
          "duration": 0.18333333333333712
        },
        {
          "name": "A3",
          "midi": 57,
          "time": 155.74999999999963,
          "velocity": 0.8110236220472441,
          "duration": 0.18333333333333712
        },
        {
          "name": "A#3",
          "midi": 58,
          "time": 155.99999999999963,
          "velocity": 0.8188976377952756,
          "duration": 0.18333333333333712
        },
        {
          "name": "A#3",
          "midi": 58,
          "time": 156.24999999999963,
          "velocity": 0.8188976377952756,
          "duration": 0.18333333333333712
        },
        {
          "name": "A#3",
          "midi": 58,
          "time": 156.49999999999963,
          "velocity": 0.8110236220472441,
          "duration": 0.18333333333333712
        },
        {
          "name": "A#3",
          "midi": 58,
          "time": 156.74999999999963,
          "velocity": 0.8110236220472441,
          "duration": 0.18333333333333712
        },
        {
          "name": "A#3",
          "midi": 58,
          "time": 156.99999999999963,
          "velocity": 0.8110236220472441,
          "duration": 0.18333333333333712
        },
        {
          "name": "A#3",
          "midi": 58,
          "time": 157.24999999999963,
          "velocity": 0.8110236220472441,
          "duration": 0.18333333333333712
        },
        {
          "name": "A3",
          "midi": 57,
          "time": 157.49999999999963,
          "velocity": 0.8110236220472441,
          "duration": 0.18333333333333712
        },
        {
          "name": "A3",
          "midi": 57,
          "time": 157.74999999999963,
          "velocity": 0.8110236220472441,
          "duration": 0.18333333333333712
        },
        {
          "name": "A#3",
          "midi": 58,
          "time": 157.99999999999963,
          "velocity": 0.8110236220472441,
          "duration": 0.18333333333333712
        },
        {
          "name": "A#3",
          "midi": 58,
          "time": 158.24999999999963,
          "velocity": 0.8110236220472441,
          "duration": 0.18333333333333712
        },
        {
          "name": "A#3",
          "midi": 58,
          "time": 158.49999999999963,
          "velocity": 0.8110236220472441,
          "duration": 0.18333333333333712
        },
        {
          "name": "A#3",
          "midi": 58,
          "time": 158.74999999999963,
          "velocity": 0.8110236220472441,
          "duration": 0.18333333333333712
        },
        {
          "name": "A#3",
          "midi": 58,
          "time": 158.99999999999963,
          "velocity": 0.8110236220472441,
          "duration": 0.18333333333333712
        },
        {
          "name": "A#3",
          "midi": 58,
          "time": 159.24999999999963,
          "velocity": 0.8110236220472441,
          "duration": 0.18333333333333712
        },
        {
          "name": "C4",
          "midi": 60,
          "time": 159.49999999999963,
          "velocity": 0.8110236220472441,
          "duration": 0.18333333333333712
        },
        {
          "name": "C4",
          "midi": 60,
          "time": 159.74999999999963,
          "velocity": 0.8110236220472441,
          "duration": 0.18333333333333712
        },
        {
          "name": "A3",
          "midi": 57,
          "time": 159.99999999999963,
          "velocity": 0.8110236220472441,
          "duration": 0.18333333333333712
        },
        {
          "name": "A3",
          "midi": 57,
          "time": 160.24999999999963,
          "velocity": 0.8110236220472441,
          "duration": 0.18333333333333712
        },
        {
          "name": "A3",
          "midi": 57,
          "time": 160.49999999999963,
          "velocity": 0.8110236220472441,
          "duration": 0.18333333333333712
        },
        {
          "name": "A3",
          "midi": 57,
          "time": 160.74999999999963,
          "velocity": 0.8110236220472441,
          "duration": 0.18333333333333712
        },
        {
          "name": "A3",
          "midi": 57,
          "time": 160.99999999999963,
          "velocity": 0.8110236220472441,
          "duration": 0.18333333333333712
        },
        {
          "name": "A3",
          "midi": 57,
          "time": 161.24999999999963,
          "velocity": 0.8110236220472441,
          "duration": 0.18333333333333712
        },
        {
          "name": "A3",
          "midi": 57,
          "time": 161.49999999999963,
          "velocity": 0.8110236220472441,
          "duration": 0.18333333333333712
        },
        {
          "name": "A3",
          "midi": 57,
          "time": 161.74999999999963,
          "velocity": 0.8110236220472441,
          "duration": 0.18333333333333712
        },
        {
          "name": "G3",
          "midi": 55,
          "time": 161.99999999999963,
          "velocity": 0.8110236220472441,
          "duration": 0.18333333333333712
        },
        {
          "name": "G3",
          "midi": 55,
          "time": 162.24999999999963,
          "velocity": 0.8110236220472441,
          "duration": 0.18333333333333712
        },
        {
          "name": "G3",
          "midi": 55,
          "time": 162.49999999999963,
          "velocity": 0.8110236220472441,
          "duration": 0.18333333333333712
        },
        {
          "name": "G3",
          "midi": 55,
          "time": 162.74999999999963,
          "velocity": 0.8110236220472441,
          "duration": 0.18333333333333712
        },
        {
          "name": "G3",
          "midi": 55,
          "time": 162.99999999999963,
          "velocity": 0.8110236220472441,
          "duration": 0.18333333333333712
        },
        {
          "name": "G3",
          "midi": 55,
          "time": 163.24999999999963,
          "velocity": 0.8110236220472441,
          "duration": 0.18333333333333712
        },
        {
          "name": "G3",
          "midi": 55,
          "time": 163.49999999999963,
          "velocity": 0.8110236220472441,
          "duration": 0.18333333333333712
        },
        {
          "name": "G3",
          "midi": 55,
          "time": 163.74999999999963,
          "velocity": 0.8110236220472441,
          "duration": 0.18333333333333712
        },
        {
          "name": "A3",
          "midi": 57,
          "time": 163.99999999999963,
          "velocity": 0.8110236220472441,
          "duration": 0.18333333333333712
        },
        {
          "name": "A3",
          "midi": 57,
          "time": 164.24999999999963,
          "velocity": 0.8110236220472441,
          "duration": 0.18333333333333712
        },
        {
          "name": "A3",
          "midi": 57,
          "time": 164.49999999999963,
          "velocity": 0.8110236220472441,
          "duration": 0.18333333333333712
        },
        {
          "name": "A3",
          "midi": 57,
          "time": 164.74999999999963,
          "velocity": 0.8110236220472441,
          "duration": 0.18333333333333712
        },
        {
          "name": "A3",
          "midi": 57,
          "time": 164.99999999999963,
          "velocity": 0.8110236220472441,
          "duration": 0.18333333333333712
        },
        {
          "name": "A3",
          "midi": 57,
          "time": 165.24999999999963,
          "velocity": 0.8110236220472441,
          "duration": 0.18333333333333712
        },
        {
          "name": "A#3",
          "midi": 58,
          "time": 165.99999999999963,
          "velocity": 0.8188976377952756,
          "duration": 0.18333333333333712
        },
        {
          "name": "A#3",
          "midi": 58,
          "time": 166.24999999999963,
          "velocity": 0.8188976377952756,
          "duration": 0.18333333333333712
        },
        {
          "name": "A#3",
          "midi": 58,
          "time": 166.49999999999963,
          "velocity": 0.8110236220472441,
          "duration": 0.18333333333333712
        },
        {
          "name": "A#3",
          "midi": 58,
          "time": 166.74999999999963,
          "velocity": 0.8110236220472441,
          "duration": 0.18333333333333712
        },
        {
          "name": "A#3",
          "midi": 58,
          "time": 166.99999999999963,
          "velocity": 0.8110236220472441,
          "duration": 0.18333333333333712
        },
        {
          "name": "A#3",
          "midi": 58,
          "time": 167.24999999999963,
          "velocity": 0.8110236220472441,
          "duration": 0.18333333333333712
        },
        {
          "name": "A3",
          "midi": 57,
          "time": 167.49999999999963,
          "velocity": 0.8110236220472441,
          "duration": 0.18333333333333712
        },
        {
          "name": "A3",
          "midi": 57,
          "time": 167.74999999999963,
          "velocity": 0.8110236220472441,
          "duration": 0.18333333333333712
        },
        {
          "name": "A#3",
          "midi": 58,
          "time": 167.99999999999963,
          "velocity": 0.8110236220472441,
          "duration": 0.18333333333333712
        },
        {
          "name": "A#3",
          "midi": 58,
          "time": 168.24999999999963,
          "velocity": 0.8110236220472441,
          "duration": 0.18333333333333712
        },
        {
          "name": "A#3",
          "midi": 58,
          "time": 168.49999999999963,
          "velocity": 0.8110236220472441,
          "duration": 0.18333333333333712
        },
        {
          "name": "A#3",
          "midi": 58,
          "time": 168.74999999999963,
          "velocity": 0.8110236220472441,
          "duration": 0.18333333333333712
        },
        {
          "name": "A#3",
          "midi": 58,
          "time": 168.99999999999963,
          "velocity": 0.8110236220472441,
          "duration": 0.18333333333333712
        },
        {
          "name": "A#3",
          "midi": 58,
          "time": 169.24999999999963,
          "velocity": 0.8110236220472441,
          "duration": 0.18333333333333712
        },
        {
          "name": "C4",
          "midi": 60,
          "time": 169.49999999999963,
          "velocity": 0.8110236220472441,
          "duration": 0.18333333333333712
        },
        {
          "name": "C4",
          "midi": 60,
          "time": 169.74999999999963,
          "velocity": 0.8110236220472441,
          "duration": 0.18333333333333712
        },
        {
          "name": "A3",
          "midi": 57,
          "time": 169.99999999999963,
          "velocity": 0.8110236220472441,
          "duration": 0.18333333333333712
        },
        {
          "name": "A3",
          "midi": 57,
          "time": 170.24999999999963,
          "velocity": 0.8110236220472441,
          "duration": 0.18333333333333712
        },
        {
          "name": "A3",
          "midi": 57,
          "time": 170.49999999999963,
          "velocity": 0.8110236220472441,
          "duration": 0.18333333333333712
        },
        {
          "name": "A3",
          "midi": 57,
          "time": 170.74999999999963,
          "velocity": 0.8110236220472441,
          "duration": 0.18333333333333712
        },
        {
          "name": "A3",
          "midi": 57,
          "time": 170.99999999999963,
          "velocity": 0.8110236220472441,
          "duration": 0.18333333333333712
        },
        {
          "name": "A3",
          "midi": 57,
          "time": 171.24999999999963,
          "velocity": 0.8110236220472441,
          "duration": 0.18333333333333712
        },
        {
          "name": "A3",
          "midi": 57,
          "time": 171.49999999999963,
          "velocity": 0.8110236220472441,
          "duration": 0.18333333333333712
        },
        {
          "name": "A3",
          "midi": 57,
          "time": 171.74999999999963,
          "velocity": 0.8110236220472441,
          "duration": 0.18333333333333712
        },
        {
          "name": "G3",
          "midi": 55,
          "time": 171.99999999999963,
          "velocity": 0.8110236220472441,
          "duration": 0.18333333333333712
        },
        {
          "name": "G3",
          "midi": 55,
          "time": 172.24999999999963,
          "velocity": 0.8110236220472441,
          "duration": 0.18333333333333712
        },
        {
          "name": "G3",
          "midi": 55,
          "time": 172.49999999999963,
          "velocity": 0.8110236220472441,
          "duration": 0.18333333333333712
        },
        {
          "name": "G3",
          "midi": 55,
          "time": 172.74999999999963,
          "velocity": 0.8110236220472441,
          "duration": 0.18333333333333712
        },
        {
          "name": "G3",
          "midi": 55,
          "time": 172.99999999999963,
          "velocity": 0.8110236220472441,
          "duration": 0.18333333333333712
        },
        {
          "name": "G3",
          "midi": 55,
          "time": 173.24999999999963,
          "velocity": 0.8110236220472441,
          "duration": 0.18333333333333712
        },
        {
          "name": "A3",
          "midi": 57,
          "time": 173.49999999999963,
          "velocity": 0.8110236220472441,
          "duration": 0.18333333333333712
        },
        {
          "name": "A3",
          "midi": 57,
          "time": 173.74999999999963,
          "velocity": 0.8110236220472441,
          "duration": 0.18333333333333712
        },
        {
          "name": "A#3",
          "midi": 58,
          "time": 173.99999999999963,
          "velocity": 0.8188976377952756,
          "duration": 0.18333333333333712
        },
        {
          "name": "A#3",
          "midi": 58,
          "time": 174.24999999999963,
          "velocity": 0.8188976377952756,
          "duration": 0.18333333333333712
        },
        {
          "name": "A#3",
          "midi": 58,
          "time": 174.49999999999963,
          "velocity": 0.8110236220472441,
          "duration": 0.18333333333333712
        },
        {
          "name": "A#3",
          "midi": 58,
          "time": 174.74999999999963,
          "velocity": 0.8110236220472441,
          "duration": 0.18333333333333712
        },
        {
          "name": "A#3",
          "midi": 58,
          "time": 174.99999999999963,
          "velocity": 0.8110236220472441,
          "duration": 0.18333333333333712
        },
        {
          "name": "A#3",
          "midi": 58,
          "time": 175.24999999999963,
          "velocity": 0.8110236220472441,
          "duration": 0.18333333333333712
        },
        {
          "name": "A3",
          "midi": 57,
          "time": 175.49999999999963,
          "velocity": 0.8110236220472441,
          "duration": 0.18333333333333712
        },
        {
          "name": "A3",
          "midi": 57,
          "time": 175.74999999999963,
          "velocity": 0.8110236220472441,
          "duration": 0.18333333333333712
        },
        {
          "name": "A#3",
          "midi": 58,
          "time": 175.99999999999963,
          "velocity": 0.8110236220472441,
          "duration": 0.18333333333333712
        },
        {
          "name": "A#3",
          "midi": 58,
          "time": 176.24999999999963,
          "velocity": 0.8110236220472441,
          "duration": 0.18333333333333712
        },
        {
          "name": "A#3",
          "midi": 58,
          "time": 176.49999999999963,
          "velocity": 0.8110236220472441,
          "duration": 0.18333333333333712
        },
        {
          "name": "A#3",
          "midi": 58,
          "time": 176.74999999999963,
          "velocity": 0.8110236220472441,
          "duration": 0.18333333333333712
        },
        {
          "name": "A#3",
          "midi": 58,
          "time": 176.99999999999963,
          "velocity": 0.8110236220472441,
          "duration": 0.18333333333333712
        },
        {
          "name": "A#3",
          "midi": 58,
          "time": 177.24999999999963,
          "velocity": 0.8110236220472441,
          "duration": 0.18333333333333712
        },
        {
          "name": "C4",
          "midi": 60,
          "time": 177.49999999999963,
          "velocity": 0.8110236220472441,
          "duration": 0.18333333333333712
        },
        {
          "name": "C4",
          "midi": 60,
          "time": 177.74999999999963,
          "velocity": 0.8110236220472441,
          "duration": 0.18333333333333712
        },
        {
          "name": "A3",
          "midi": 57,
          "time": 177.99999999999963,
          "velocity": 0.8110236220472441,
          "duration": 0.18333333333333712
        },
        {
          "name": "A3",
          "midi": 57,
          "time": 178.24999999999963,
          "velocity": 0.8110236220472441,
          "duration": 0.18333333333333712
        },
        {
          "name": "A3",
          "midi": 57,
          "time": 178.49999999999963,
          "velocity": 0.8110236220472441,
          "duration": 0.18333333333333712
        },
        {
          "name": "A3",
          "midi": 57,
          "time": 178.74999999999963,
          "velocity": 0.8110236220472441,
          "duration": 0.18333333333333712
        },
        {
          "name": "A3",
          "midi": 57,
          "time": 178.99999999999963,
          "velocity": 0.8110236220472441,
          "duration": 0.18333333333333712
        },
        {
          "name": "A3",
          "midi": 57,
          "time": 179.24999999999963,
          "velocity": 0.8110236220472441,
          "duration": 0.18333333333333712
        },
        {
          "name": "A3",
          "midi": 57,
          "time": 179.49999999999963,
          "velocity": 0.8110236220472441,
          "duration": 0.18333333333333712
        },
        {
          "name": "A3",
          "midi": 57,
          "time": 179.74999999999963,
          "velocity": 0.8110236220472441,
          "duration": 0.18333333333333712
        },
        {
          "name": "G3",
          "midi": 55,
          "time": 179.99999999999963,
          "velocity": 0.8110236220472441,
          "duration": 0.18333333333333712
        },
        {
          "name": "G3",
          "midi": 55,
          "time": 180.24999999999963,
          "velocity": 0.8110236220472441,
          "duration": 0.18333333333333712
        },
        {
          "name": "G3",
          "midi": 55,
          "time": 180.49999999999963,
          "velocity": 0.8110236220472441,
          "duration": 0.18333333333333712
        },
        {
          "name": "G3",
          "midi": 55,
          "time": 180.74999999999963,
          "velocity": 0.8110236220472441,
          "duration": 0.18333333333333712
        },
        {
          "name": "G3",
          "midi": 55,
          "time": 180.99999999999963,
          "velocity": 0.8110236220472441,
          "duration": 0.18333333333333712
        },
        {
          "name": "G3",
          "midi": 55,
          "time": 181.24999999999963,
          "velocity": 0.8110236220472441,
          "duration": 0.18333333333333712
        },
        {
          "name": "A3",
          "midi": 57,
          "time": 181.49999999999963,
          "velocity": 0.8110236220472441,
          "duration": 0.18333333333333712
        },
        {
          "name": "A3",
          "midi": 57,
          "time": 181.74999999999963,
          "velocity": 0.8110236220472441,
          "duration": 0.18333333333333712
        },
        {
          "name": "A#3",
          "midi": 58,
          "time": 181.99999999999963,
          "velocity": 0.8188976377952756,
          "duration": 0.18333333333333712
        },
        {
          "name": "A#3",
          "midi": 58,
          "time": 182.24999999999963,
          "velocity": 0.8188976377952756,
          "duration": 0.18333333333333712
        },
        {
          "name": "A#3",
          "midi": 58,
          "time": 182.49999999999963,
          "velocity": 0.8110236220472441,
          "duration": 0.18333333333333712
        },
        {
          "name": "A#3",
          "midi": 58,
          "time": 182.74999999999963,
          "velocity": 0.8110236220472441,
          "duration": 0.18333333333333712
        },
        {
          "name": "A#3",
          "midi": 58,
          "time": 182.99999999999963,
          "velocity": 0.8110236220472441,
          "duration": 0.18333333333333712
        },
        {
          "name": "A#3",
          "midi": 58,
          "time": 183.24999999999963,
          "velocity": 0.8110236220472441,
          "duration": 0.18333333333333712
        },
        {
          "name": "A3",
          "midi": 57,
          "time": 183.49999999999963,
          "velocity": 0.8110236220472441,
          "duration": 0.18333333333333712
        },
        {
          "name": "A3",
          "midi": 57,
          "time": 183.74999999999963,
          "velocity": 0.8110236220472441,
          "duration": 0.18333333333333712
        },
        {
          "name": "A#3",
          "midi": 58,
          "time": 183.99999999999963,
          "velocity": 0.8110236220472441,
          "duration": 0.18333333333333712
        },
        {
          "name": "A#3",
          "midi": 58,
          "time": 184.24999999999963,
          "velocity": 0.8110236220472441,
          "duration": 0.18333333333333712
        },
        {
          "name": "A#3",
          "midi": 58,
          "time": 184.49999999999963,
          "velocity": 0.8110236220472441,
          "duration": 0.18333333333333712
        },
        {
          "name": "A#3",
          "midi": 58,
          "time": 184.74999999999963,
          "velocity": 0.8110236220472441,
          "duration": 0.18333333333333712
        },
        {
          "name": "A#3",
          "midi": 58,
          "time": 184.99999999999963,
          "velocity": 0.8110236220472441,
          "duration": 0.18333333333333712
        },
        {
          "name": "A#3",
          "midi": 58,
          "time": 185.24999999999963,
          "velocity": 0.8110236220472441,
          "duration": 0.18333333333333712
        },
        {
          "name": "C4",
          "midi": 60,
          "time": 185.49999999999963,
          "velocity": 0.8110236220472441,
          "duration": 0.18333333333333712
        },
        {
          "name": "C4",
          "midi": 60,
          "time": 185.74999999999963,
          "velocity": 0.8110236220472441,
          "duration": 0.18333333333333712
        },
        {
          "name": "A3",
          "midi": 57,
          "time": 185.99999999999963,
          "velocity": 0.8110236220472441,
          "duration": 0.18333333333333712
        },
        {
          "name": "A3",
          "midi": 57,
          "time": 186.24999999999963,
          "velocity": 0.8110236220472441,
          "duration": 0.18333333333333712
        },
        {
          "name": "A3",
          "midi": 57,
          "time": 186.49999999999963,
          "velocity": 0.8110236220472441,
          "duration": 0.18333333333333712
        },
        {
          "name": "A3",
          "midi": 57,
          "time": 186.74999999999963,
          "velocity": 0.8110236220472441,
          "duration": 0.18333333333333712
        },
        {
          "name": "A3",
          "midi": 57,
          "time": 186.99999999999963,
          "velocity": 0.8110236220472441,
          "duration": 0.18333333333333712
        },
        {
          "name": "A3",
          "midi": 57,
          "time": 187.24999999999963,
          "velocity": 0.8110236220472441,
          "duration": 0.18333333333333712
        },
        {
          "name": "A3",
          "midi": 57,
          "time": 187.49999999999963,
          "velocity": 0.8110236220472441,
          "duration": 0.18333333333333712
        },
        {
          "name": "A3",
          "midi": 57,
          "time": 187.74999999999963,
          "velocity": 0.8110236220472441,
          "duration": 0.18333333333333712
        },
        {
          "name": "G3",
          "midi": 55,
          "time": 187.99999999999963,
          "velocity": 0.8110236220472441,
          "duration": 0.18333333333333712
        },
        {
          "name": "G3",
          "midi": 55,
          "time": 188.24999999999963,
          "velocity": 0.8110236220472441,
          "duration": 0.18333333333333712
        },
        {
          "name": "G3",
          "midi": 55,
          "time": 188.49999999999963,
          "velocity": 0.8110236220472441,
          "duration": 0.18333333333333712
        },
        {
          "name": "G3",
          "midi": 55,
          "time": 188.74999999999963,
          "velocity": 0.8110236220472441,
          "duration": 0.18333333333333712
        },
        {
          "name": "G3",
          "midi": 55,
          "time": 188.99999999999963,
          "velocity": 0.8110236220472441,
          "duration": 0.18333333333333712
        },
        {
          "name": "G3",
          "midi": 55,
          "time": 189.24999999999963,
          "velocity": 0.8110236220472441,
          "duration": 0.18333333333333712
        },
        {
          "name": "A3",
          "midi": 57,
          "time": 189.49999999999963,
          "velocity": 0.8110236220472441,
          "duration": 0.18333333333333712
        },
        {
          "name": "A3",
          "midi": 57,
          "time": 189.74999999999963,
          "velocity": 0.8110236220472441,
          "duration": 0.18333333333333712
        },
        {
          "name": "A#3",
          "midi": 58,
          "time": 189.99999999999963,
          "velocity": 0.8188976377952756,
          "duration": 0.18333333333333712
        },
        {
          "name": "A#3",
          "midi": 58,
          "time": 190.24999999999963,
          "velocity": 0.8188976377952756,
          "duration": 0.18333333333333712
        },
        {
          "name": "A#3",
          "midi": 58,
          "time": 190.49999999999963,
          "velocity": 0.8110236220472441,
          "duration": 0.18333333333333712
        },
        {
          "name": "A#3",
          "midi": 58,
          "time": 190.74999999999963,
          "velocity": 0.8110236220472441,
          "duration": 0.18333333333333712
        },
        {
          "name": "A#3",
          "midi": 58,
          "time": 190.99999999999963,
          "velocity": 0.8110236220472441,
          "duration": 0.18333333333333712
        },
        {
          "name": "A#3",
          "midi": 58,
          "time": 191.24999999999963,
          "velocity": 0.8110236220472441,
          "duration": 0.18333333333333712
        },
        {
          "name": "A3",
          "midi": 57,
          "time": 191.49999999999963,
          "velocity": 0.8110236220472441,
          "duration": 0.18333333333333712
        },
        {
          "name": "A3",
          "midi": 57,
          "time": 191.74999999999963,
          "velocity": 0.8110236220472441,
          "duration": 0.18333333333333712
        },
        {
          "name": "A#3",
          "midi": 58,
          "time": 191.99999999999963,
          "velocity": 0.8110236220472441,
          "duration": 0.18333333333333712
        },
        {
          "name": "A#3",
          "midi": 58,
          "time": 192.24999999999963,
          "velocity": 0.8110236220472441,
          "duration": 0.18333333333333712
        },
        {
          "name": "A#3",
          "midi": 58,
          "time": 192.49999999999963,
          "velocity": 0.8110236220472441,
          "duration": 0.18333333333333712
        },
        {
          "name": "A#3",
          "midi": 58,
          "time": 192.74999999999963,
          "velocity": 0.8110236220472441,
          "duration": 0.18333333333333712
        },
        {
          "name": "A#3",
          "midi": 58,
          "time": 192.99999999999963,
          "velocity": 0.8110236220472441,
          "duration": 0.18333333333333712
        },
        {
          "name": "A#3",
          "midi": 58,
          "time": 193.24999999999963,
          "velocity": 0.8110236220472441,
          "duration": 0.18333333333333712
        },
        {
          "name": "C4",
          "midi": 60,
          "time": 193.49999999999963,
          "velocity": 0.8110236220472441,
          "duration": 0.18333333333333712
        },
        {
          "name": "C4",
          "midi": 60,
          "time": 193.74999999999963,
          "velocity": 0.8110236220472441,
          "duration": 0.18333333333333712
        },
        {
          "name": "A3",
          "midi": 57,
          "time": 193.99999999999963,
          "velocity": 0.8110236220472441,
          "duration": 0.18333333333333712
        },
        {
          "name": "A3",
          "midi": 57,
          "time": 194.24999999999963,
          "velocity": 0.8110236220472441,
          "duration": 0.18333333333333712
        },
        {
          "name": "A3",
          "midi": 57,
          "time": 194.49999999999963,
          "velocity": 0.8110236220472441,
          "duration": 0.18333333333333712
        },
        {
          "name": "A3",
          "midi": 57,
          "time": 194.74999999999963,
          "velocity": 0.8110236220472441,
          "duration": 0.18333333333333712
        },
        {
          "name": "A3",
          "midi": 57,
          "time": 194.99999999999963,
          "velocity": 0.8110236220472441,
          "duration": 0.18333333333333712
        },
        {
          "name": "A3",
          "midi": 57,
          "time": 195.24999999999963,
          "velocity": 0.8110236220472441,
          "duration": 0.18333333333333712
        },
        {
          "name": "A3",
          "midi": 57,
          "time": 195.49999999999963,
          "velocity": 0.8110236220472441,
          "duration": 0.18333333333333712
        },
        {
          "name": "A3",
          "midi": 57,
          "time": 195.74999999999963,
          "velocity": 0.8110236220472441,
          "duration": 0.18333333333333712
        },
        {
          "name": "G3",
          "midi": 55,
          "time": 195.99999999999963,
          "velocity": 0.8110236220472441,
          "duration": 0.18333333333333712
        },
        {
          "name": "G3",
          "midi": 55,
          "time": 196.24999999999963,
          "velocity": 0.8110236220472441,
          "duration": 0.18333333333333712
        },
        {
          "name": "G3",
          "midi": 55,
          "time": 196.49999999999963,
          "velocity": 0.8110236220472441,
          "duration": 0.18333333333333712
        },
        {
          "name": "G3",
          "midi": 55,
          "time": 196.74999999999963,
          "velocity": 0.8110236220472441,
          "duration": 0.18333333333333712
        },
        {
          "name": "G3",
          "midi": 55,
          "time": 196.99999999999963,
          "velocity": 0.8110236220472441,
          "duration": 0.18333333333333712
        },
        {
          "name": "G3",
          "midi": 55,
          "time": 197.24999999999963,
          "velocity": 0.8110236220472441,
          "duration": 0.18333333333333712
        },
        {
          "name": "A3",
          "midi": 57,
          "time": 197.49999999999963,
          "velocity": 0.8110236220472441,
          "duration": 0.18333333333333712
        },
        {
          "name": "A3",
          "midi": 57,
          "time": 197.74999999999963,
          "velocity": 0.8110236220472441,
          "duration": 0.18333333333333712
        },
        {
          "name": "G2",
          "midi": 43,
          "time": 197.99999999999963,
          "velocity": 0.6850393700787402,
          "duration": 7.9499999999998465
        }
      ],
      "controlChanges": {
        "7": [
          {
            "number": 7,
            "time": 0,
            "value": 0.7795275590551181
          },
          {
            "number": 7,
            "time": 3.2666666666666666,
            "value": 0
          },
          {
            "number": 7,
            "time": 3.466666666666667,
            "value": 0.007874015748031496
          },
          {
            "number": 7,
            "time": 3.5333333333333337,
            "value": 0.023622047244094488
          },
          {
            "number": 7,
            "time": 3.666666666666667,
            "value": 0.047244094488188976
          },
          {
            "number": 7,
            "time": 3.766666666666667,
            "value": 0.05511811023622047
          },
          {
            "number": 7,
            "time": 3.9000000000000004,
            "value": 0.07086614173228346
          },
          {
            "number": 7,
            "time": 3.9333333333333336,
            "value": 0.07874015748031496
          },
          {
            "number": 7,
            "time": 4,
            "value": 0.09448818897637795
          },
          {
            "number": 7,
            "time": 4.1,
            "value": 0.10236220472440945
          },
          {
            "number": 7,
            "time": 4.133333333333333,
            "value": 0.11023622047244094
          },
          {
            "number": 7,
            "time": 4.2333333333333325,
            "value": 0.12598425196850394
          },
          {
            "number": 7,
            "time": 4.266666666666666,
            "value": 0.13385826771653545
          },
          {
            "number": 7,
            "time": 4.299999999999999,
            "value": 0.14960629921259844
          },
          {
            "number": 7,
            "time": 4.333333333333332,
            "value": 0.15748031496062992
          },
          {
            "number": 7,
            "time": 4.499999999999999,
            "value": 0.1732283464566929
          },
          {
            "number": 7,
            "time": 4.599999999999999,
            "value": 0.18110236220472442
          },
          {
            "number": 7,
            "time": 4.633333333333332,
            "value": 0.2047244094488189
          },
          {
            "number": 7,
            "time": 4.766666666666666,
            "value": 0.2125984251968504
          },
          {
            "number": 7,
            "time": 4.799999999999999,
            "value": 0.2283464566929134
          },
          {
            "number": 7,
            "time": 4.833333333333332,
            "value": 0.23622047244094488
          },
          {
            "number": 7,
            "time": 4.899999999999999,
            "value": 0.25196850393700787
          },
          {
            "number": 7,
            "time": 4.933333333333332,
            "value": 0.25984251968503935
          },
          {
            "number": 7,
            "time": 4.966666666666665,
            "value": 0.2755905511811024
          },
          {
            "number": 7,
            "time": 4.999999999999998,
            "value": 0.28346456692913385
          },
          {
            "number": 7,
            "time": 5.066666666666665,
            "value": 0.2992125984251969
          },
          {
            "number": 7,
            "time": 5.133333333333331,
            "value": 0.30708661417322836
          },
          {
            "number": 7,
            "time": 5.1999999999999975,
            "value": 0.31496062992125984
          },
          {
            "number": 7,
            "time": 5.233333333333331,
            "value": 0.33070866141732286
          },
          {
            "number": 7,
            "time": 5.266666666666664,
            "value": 0.33858267716535434
          },
          {
            "number": 7,
            "time": 5.33333333333333,
            "value": 0.3543307086614173
          },
          {
            "number": 7,
            "time": 5.399999999999997,
            "value": 0.36220472440944884
          },
          {
            "number": 7,
            "time": 5.43333333333333,
            "value": 0.3779527559055118
          },
          {
            "number": 7,
            "time": 5.53333333333333,
            "value": 0.3858267716535433
          },
          {
            "number": 7,
            "time": 5.566666666666663,
            "value": 0.4015748031496063
          },
          {
            "number": 7,
            "time": 5.633333333333329,
            "value": 0.4094488188976378
          },
          {
            "number": 7,
            "time": 5.6666666666666625,
            "value": 0.41732283464566927
          },
          {
            "number": 7,
            "time": 5.699999999999996,
            "value": 0.4330708661417323
          },
          {
            "number": 7,
            "time": 5.733333333333329,
            "value": 0.4566929133858268
          },
          {
            "number": 7,
            "time": 5.799999999999995,
            "value": 0.4645669291338583
          },
          {
            "number": 7,
            "time": 5.866666666666662,
            "value": 0.4881889763779528
          },
          {
            "number": 7,
            "time": 5.933333333333328,
            "value": 0.5039370078740157
          },
          {
            "number": 7,
            "time": 5.9666666666666615,
            "value": 0.5118110236220472
          },
          {
            "number": 7,
            "time": 5.999999999999995,
            "value": 0.5196850393700787
          },
          {
            "number": 7,
            "time": 6.033333333333328,
            "value": 0.5354330708661418
          },
          {
            "number": 7,
            "time": 6.099999999999994,
            "value": 0.5433070866141733
          },
          {
            "number": 7,
            "time": 6.1333333333333275,
            "value": 0.5590551181102362
          },
          {
            "number": 7,
            "time": 6.166666666666661,
            "value": 0.5669291338582677
          },
          {
            "number": 7,
            "time": 6.199999999999994,
            "value": 0.5826771653543307
          },
          {
            "number": 7,
            "time": 6.233333333333327,
            "value": 0.5905511811023622
          },
          {
            "number": 7,
            "time": 6.26666666666666,
            "value": 0.5984251968503937
          },
          {
            "number": 7,
            "time": 6.299999999999994,
            "value": 0.6220472440944882
          },
          {
            "number": 7,
            "time": 6.333333333333327,
            "value": 0.6377952755905512
          },
          {
            "number": 7,
            "time": 6.399999999999993,
            "value": 0.6456692913385826
          },
          {
            "number": 7,
            "time": 6.4333333333333265,
            "value": 0.6614173228346457
          },
          {
            "number": 7,
            "time": 6.46666666666666,
            "value": 0.6692913385826772
          },
          {
            "number": 7,
            "time": 6.499999999999993,
            "value": 0.6850393700787402
          },
          {
            "number": 7,
            "time": 6.566666666666659,
            "value": 0.6929133858267716
          },
          {
            "number": 7,
            "time": 6.5999999999999925,
            "value": 0.7007874015748031
          },
          {
            "number": 7,
            "time": 6.633333333333326,
            "value": 0.7165354330708661
          },
          {
            "number": 7,
            "time": 6.666666666666659,
            "value": 0.7244094488188977
          },
          {
            "number": 7,
            "time": 6.733333333333325,
            "value": 0.7401574803149606
          },
          {
            "number": 7,
            "time": 6.766666666666659,
            "value": 0.7480314960629921
          },
          {
            "number": 7,
            "time": 6.833333333333325,
            "value": 0.7637795275590551
          },
          {
            "number": 7,
            "time": 6.866666666666658,
            "value": 0.7716535433070866
          },
          {
            "number": 7,
            "time": 6.966666666666658,
            "value": 0.7874015748031497
          },
          {
            "number": 7,
            "time": 7.0666666666666575,
            "value": 0.8031496062992126
          },
          {
            "number": 7,
            "time": 7.133333333333324,
            "value": 0.8267716535433071
          },
          {
            "number": 7,
            "time": 7.19999999999999,
            "value": 0.84251968503937
          },
          {
            "number": 7,
            "time": 7.233333333333324,
            "value": 0.8503937007874016
          },
          {
            "number": 7,
            "time": 7.266666666666657,
            "value": 0.8661417322834646
          },
          {
            "number": 7,
            "time": 7.966666666666657,
            "value": 0.8740157480314961
          },
          {
            "number": 7,
            "time": 7.99999999999999,
            "value": 0.7637795275590551
          },
          {
            "number": 7,
            "time": 44.36666666666666,
            "value": 0.7480314960629921
          },
          {
            "number": 7,
            "time": 44.46666666666666,
            "value": 0.7401574803149606
          },
          {
            "number": 7,
            "time": 44.53333333333333,
            "value": 0.7244094488188977
          },
          {
            "number": 7,
            "time": 44.63333333333333,
            "value": 0.7165354330708661
          },
          {
            "number": 7,
            "time": 44.733333333333334,
            "value": 0.7007874015748031
          },
          {
            "number": 7,
            "time": 44.766666666666666,
            "value": 0.6929133858267716
          },
          {
            "number": 7,
            "time": 44.833333333333336,
            "value": 0.6850393700787402
          },
          {
            "number": 7,
            "time": 44.93333333333334,
            "value": 0.6692913385826772
          },
          {
            "number": 7,
            "time": 45.00000000000001,
            "value": 0.6614173228346457
          },
          {
            "number": 7,
            "time": 45.06666666666668,
            "value": 0.6456692913385826
          },
          {
            "number": 7,
            "time": 45.10000000000001,
            "value": 0.6377952755905512
          },
          {
            "number": 7,
            "time": 45.16666666666668,
            "value": 0.6220472440944882
          },
          {
            "number": 7,
            "time": 45.26666666666668,
            "value": 0.6141732283464567
          },
          {
            "number": 7,
            "time": 45.36666666666668,
            "value": 0.5984251968503937
          },
          {
            "number": 7,
            "time": 45.43333333333335,
            "value": 0.5905511811023622
          },
          {
            "number": 7,
            "time": 45.53333333333335,
            "value": 0.5826771653543307
          },
          {
            "number": 7,
            "time": 45.60000000000002,
            "value": 0.5669291338582677
          },
          {
            "number": 7,
            "time": 45.733333333333356,
            "value": 0.5590551181102362
          },
          {
            "number": 7,
            "time": 45.800000000000026,
            "value": 0.5433070866141733
          },
          {
            "number": 7,
            "time": 45.866666666666696,
            "value": 0.5354330708661418
          },
          {
            "number": 7,
            "time": 46.00000000000003,
            "value": 0.5196850393700787
          },
          {
            "number": 7,
            "time": 46.03333333333336,
            "value": 0.5118110236220472
          },
          {
            "number": 7,
            "time": 46.10000000000003,
            "value": 0.5039370078740157
          },
          {
            "number": 7,
            "time": 46.1666666666667,
            "value": 0.4881889763779528
          },
          {
            "number": 7,
            "time": 46.20000000000003,
            "value": 0.48031496062992124
          },
          {
            "number": 7,
            "time": 46.2666666666667,
            "value": 0.4645669291338583
          },
          {
            "number": 7,
            "time": 46.33333333333337,
            "value": 0.4566929133858268
          },
          {
            "number": 7,
            "time": 46.3666666666667,
            "value": 0.4409448818897638
          },
          {
            "number": 7,
            "time": 46.43333333333337,
            "value": 0.4330708661417323
          },
          {
            "number": 7,
            "time": 46.466666666666704,
            "value": 0.41732283464566927
          },
          {
            "number": 7,
            "time": 46.566666666666706,
            "value": 0.4094488188976378
          },
          {
            "number": 7,
            "time": 46.633333333333375,
            "value": 0.3858267716535433
          },
          {
            "number": 7,
            "time": 46.700000000000045,
            "value": 0.3779527559055118
          },
          {
            "number": 7,
            "time": 46.766666666666715,
            "value": 0.36220472440944884
          },
          {
            "number": 7,
            "time": 46.80000000000005,
            "value": 0.3543307086614173
          },
          {
            "number": 7,
            "time": 46.90000000000005,
            "value": 0.33858267716535434
          },
          {
            "number": 7,
            "time": 47.00000000000005,
            "value": 0.31496062992125984
          },
          {
            "number": 7,
            "time": 47.03333333333338,
            "value": 0.30708661417322836
          },
          {
            "number": 7,
            "time": 47.10000000000005,
            "value": 0.2992125984251969
          },
          {
            "number": 7,
            "time": 47.16666666666672,
            "value": 0.28346456692913385
          },
          {
            "number": 7,
            "time": 47.23333333333339,
            "value": 0.2755905511811024
          },
          {
            "number": 7,
            "time": 47.26666666666672,
            "value": 0.25984251968503935
          },
          {
            "number": 7,
            "time": 47.33333333333339,
            "value": 0.25196850393700787
          },
          {
            "number": 7,
            "time": 47.40000000000006,
            "value": 0.23622047244094488
          },
          {
            "number": 7,
            "time": 47.46666666666673,
            "value": 0.2283464566929134
          },
          {
            "number": 7,
            "time": 47.500000000000064,
            "value": 0.2125984251968504
          },
          {
            "number": 7,
            "time": 47.566666666666734,
            "value": 0.1968503937007874
          },
          {
            "number": 7,
            "time": 47.633333333333404,
            "value": 0.18110236220472442
          },
          {
            "number": 7,
            "time": 47.666666666666735,
            "value": 0.1732283464566929
          },
          {
            "number": 7,
            "time": 47.76666666666674,
            "value": 0.15748031496062992
          },
          {
            "number": 7,
            "time": 47.83333333333341,
            "value": 0.14960629921259844
          },
          {
            "number": 7,
            "time": 47.86666666666674,
            "value": 0.13385826771653545
          },
          {
            "number": 7,
            "time": 47.90000000000007,
            "value": 0.12598425196850394
          },
          {
            "number": 7,
            "time": 47.96666666666673,
            "value": 0.11023622047244094
          },
          {
            "number": 7,
            "time": 48.000000000000064,
            "value": 0.7637795275590551
          },
          {
            "number": 7,
            "time": 68.9333333333334,
            "value": 0.15748031496062992
          },
          {
            "number": 7,
            "time": 69.10000000000005,
            "value": 0.1732283464566929
          },
          {
            "number": 7,
            "time": 69.16666666666671,
            "value": 0.18110236220472442
          },
          {
            "number": 7,
            "time": 69.20000000000005,
            "value": 0.1968503937007874
          },
          {
            "number": 7,
            "time": 69.26666666666671,
            "value": 0.2047244094488189
          },
          {
            "number": 7,
            "time": 69.30000000000004,
            "value": 0.2125984251968504
          },
          {
            "number": 7,
            "time": 69.3666666666667,
            "value": 0.2283464566929134
          },
          {
            "number": 7,
            "time": 69.43333333333337,
            "value": 0.23622047244094488
          },
          {
            "number": 7,
            "time": 69.4666666666667,
            "value": 0.25196850393700787
          },
          {
            "number": 7,
            "time": 69.53333333333336,
            "value": 0.25984251968503935
          },
          {
            "number": 7,
            "time": 69.60000000000002,
            "value": 0.2755905511811024
          },
          {
            "number": 7,
            "time": 69.63333333333335,
            "value": 0.2992125984251969
          },
          {
            "number": 7,
            "time": 69.66666666666669,
            "value": 0.30708661417322836
          },
          {
            "number": 7,
            "time": 69.73333333333335,
            "value": 0.31496062992125984
          },
          {
            "number": 7,
            "time": 69.76666666666668,
            "value": 0.33070866141732286
          },
          {
            "number": 7,
            "time": 69.83333333333334,
            "value": 0.33858267716535434
          },
          {
            "number": 7,
            "time": 69.9,
            "value": 0.3543307086614173
          },
          {
            "number": 7,
            "time": 69.93333333333334,
            "value": 0.36220472440944884
          },
          {
            "number": 7,
            "time": 70,
            "value": 0.3779527559055118
          },
          {
            "number": 7,
            "time": 70.06666666666666,
            "value": 0.3858267716535433
          },
          {
            "number": 7,
            "time": 70.1,
            "value": 0.4094488188976378
          },
          {
            "number": 7,
            "time": 70.19999999999999,
            "value": 0.41732283464566927
          },
          {
            "number": 7,
            "time": 70.23333333333332,
            "value": 0.4330708661417323
          },
          {
            "number": 7,
            "time": 70.26666666666665,
            "value": 0.4409448818897638
          },
          {
            "number": 7,
            "time": 70.29999999999998,
            "value": 0.4566929133858268
          },
          {
            "number": 7,
            "time": 70.39999999999998,
            "value": 0.4645669291338583
          },
          {
            "number": 7,
            "time": 70.43333333333331,
            "value": 0.48031496062992124
          },
          {
            "number": 7,
            "time": 70.49999999999997,
            "value": 0.4881889763779528
          },
          {
            "number": 7,
            "time": 70.56666666666663,
            "value": 0.5039370078740157
          },
          {
            "number": 7,
            "time": 70.6333333333333,
            "value": 0.5118110236220472
          },
          {
            "number": 7,
            "time": 70.66666666666663,
            "value": 0.5196850393700787
          },
          {
            "number": 7,
            "time": 70.73333333333329,
            "value": 0.5354330708661418
          },
          {
            "number": 7,
            "time": 70.86666666666663,
            "value": 0.5590551181102362
          },
          {
            "number": 7,
            "time": 70.9333333333333,
            "value": 0.5669291338582677
          },
          {
            "number": 7,
            "time": 70.96666666666663,
            "value": 0.5984251968503937
          },
          {
            "number": 7,
            "time": 71.06666666666662,
            "value": 0.6141732283464567
          },
          {
            "number": 7,
            "time": 71.13333333333328,
            "value": 0.6377952755905512
          },
          {
            "number": 7,
            "time": 71.19999999999995,
            "value": 0.6614173228346457
          },
          {
            "number": 7,
            "time": 71.26666666666661,
            "value": 0.6692913385826772
          },
          {
            "number": 7,
            "time": 71.29999999999994,
            "value": 0.6850393700787402
          },
          {
            "number": 7,
            "time": 71.39999999999993,
            "value": 0.6929133858267716
          },
          {
            "number": 7,
            "time": 71.43333333333327,
            "value": 0.7007874015748031
          },
          {
            "number": 7,
            "time": 71.4666666666666,
            "value": 0.7165354330708661
          },
          {
            "number": 7,
            "time": 71.49999999999993,
            "value": 0.7244094488188977
          },
          {
            "number": 7,
            "time": 71.56666666666659,
            "value": 0.7401574803149606
          },
          {
            "number": 7,
            "time": 71.63333333333325,
            "value": 0.7480314960629921
          },
          {
            "number": 7,
            "time": 71.73333333333325,
            "value": 0.7637795275590551
          },
          {
            "number": 7,
            "time": 88.23333333333325,
            "value": 0.7322834645669292
          },
          {
            "number": 7,
            "time": 88.29999999999991,
            "value": 0.7244094488188977
          },
          {
            "number": 7,
            "time": 88.33333333333324,
            "value": 0.7007874015748031
          },
          {
            "number": 7,
            "time": 88.3999999999999,
            "value": 0.6929133858267716
          },
          {
            "number": 7,
            "time": 88.43333333333324,
            "value": 0.6771653543307087
          },
          {
            "number": 7,
            "time": 88.46666666666657,
            "value": 0.6692913385826772
          },
          {
            "number": 7,
            "time": 88.53333333333323,
            "value": 0.6535433070866141
          },
          {
            "number": 7,
            "time": 88.5999999999999,
            "value": 0.6456692913385826
          },
          {
            "number": 7,
            "time": 88.63333333333323,
            "value": 0.6299212598425197
          },
          {
            "number": 7,
            "time": 88.73333333333322,
            "value": 0.6220472440944882
          },
          {
            "number": 7,
            "time": 88.79999999999988,
            "value": 0.6062992125984252
          },
          {
            "number": 7,
            "time": 88.83333333333321,
            "value": 0.5984251968503937
          },
          {
            "number": 7,
            "time": 88.89999999999988,
            "value": 0.5826771653543307
          },
          {
            "number": 7,
            "time": 88.93333333333321,
            "value": 0.5669291338582677
          },
          {
            "number": 7,
            "time": 88.96666666666654,
            "value": 0.5511811023622047
          },
          {
            "number": 7,
            "time": 89.0333333333332,
            "value": 0.5433070866141733
          },
          {
            "number": 7,
            "time": 89.06666666666653,
            "value": 0.5196850393700787
          },
          {
            "number": 7,
            "time": 89.16666666666653,
            "value": 0.5039370078740157
          },
          {
            "number": 7,
            "time": 89.19999999999986,
            "value": 0.49606299212598426
          },
          {
            "number": 7,
            "time": 89.23333333333319,
            "value": 0.48031496062992124
          },
          {
            "number": 7,
            "time": 89.26666666666652,
            "value": 0.47244094488188976
          },
          {
            "number": 7,
            "time": 89.29999999999986,
            "value": 0.4566929133858268
          },
          {
            "number": 7,
            "time": 89.33333333333319,
            "value": 0.44881889763779526
          },
          {
            "number": 7,
            "time": 89.36666666666652,
            "value": 0.4330708661417323
          },
          {
            "number": 7,
            "time": 89.43333333333318,
            "value": 0.41732283464566927
          },
          {
            "number": 7,
            "time": 89.46666666666651,
            "value": 0.4015748031496063
          },
          {
            "number": 7,
            "time": 89.49999999999984,
            "value": 0.3937007874015748
          },
          {
            "number": 7,
            "time": 89.53333333333318,
            "value": 0.3779527559055118
          },
          {
            "number": 7,
            "time": 89.59999999999984,
            "value": 0.3700787401574803
          },
          {
            "number": 7,
            "time": 89.63333333333317,
            "value": 0.3543307086614173
          },
          {
            "number": 7,
            "time": 89.6666666666665,
            "value": 0.33070866141732286
          },
          {
            "number": 7,
            "time": 89.73333333333316,
            "value": 0.30708661417322836
          },
          {
            "number": 7,
            "time": 89.7666666666665,
            "value": 0.2992125984251969
          },
          {
            "number": 7,
            "time": 89.79999999999983,
            "value": 0.28346456692913385
          },
          {
            "number": 7,
            "time": 89.83333333333316,
            "value": 0.2755905511811024
          },
          {
            "number": 7,
            "time": 89.86666666666649,
            "value": 0.2677165354330709
          },
          {
            "number": 7,
            "time": 89.93333333333315,
            "value": 0.25196850393700787
          },
          {
            "number": 7,
            "time": 89.96666666666648,
            "value": 0.2440944881889764
          },
          {
            "number": 7,
            "time": 89.99999999999982,
            "value": 0.2283464566929134
          },
          {
            "number": 7,
            "time": 90.03333333333315,
            "value": 0.2204724409448819
          },
          {
            "number": 7,
            "time": 90.09999999999981,
            "value": 0.1968503937007874
          },
          {
            "number": 7,
            "time": 90.16666666666647,
            "value": 0.18110236220472442
          },
          {
            "number": 7,
            "time": 90.1999999999998,
            "value": 0.15748031496062992
          },
          {
            "number": 7,
            "time": 90.23333333333314,
            "value": 0.14960629921259844
          },
          {
            "number": 7,
            "time": 90.26666666666647,
            "value": 0.14173228346456693
          },
          {
            "number": 7,
            "time": 90.2999999999998,
            "value": 0.12598425196850394
          },
          {
            "number": 7,
            "time": 90.36666666666646,
            "value": 0.7637795275590551
          },
          {
            "number": 7,
            "time": 108.93333333333312,
            "value": 0.15748031496062992
          },
          {
            "number": 7,
            "time": 109.09999999999978,
            "value": 0.1732283464566929
          },
          {
            "number": 7,
            "time": 109.16666666666644,
            "value": 0.18110236220472442
          },
          {
            "number": 7,
            "time": 109.19999999999978,
            "value": 0.1968503937007874
          },
          {
            "number": 7,
            "time": 109.26666666666644,
            "value": 0.2047244094488189
          },
          {
            "number": 7,
            "time": 109.29999999999977,
            "value": 0.2125984251968504
          },
          {
            "number": 7,
            "time": 109.36666666666643,
            "value": 0.2283464566929134
          },
          {
            "number": 7,
            "time": 109.4333333333331,
            "value": 0.23622047244094488
          },
          {
            "number": 7,
            "time": 109.46666666666643,
            "value": 0.25196850393700787
          },
          {
            "number": 7,
            "time": 109.53333333333309,
            "value": 0.25984251968503935
          },
          {
            "number": 7,
            "time": 109.59999999999975,
            "value": 0.2755905511811024
          },
          {
            "number": 7,
            "time": 109.63333333333308,
            "value": 0.2992125984251969
          },
          {
            "number": 7,
            "time": 109.66666666666642,
            "value": 0.30708661417322836
          },
          {
            "number": 7,
            "time": 109.73333333333308,
            "value": 0.31496062992125984
          },
          {
            "number": 7,
            "time": 109.76666666666641,
            "value": 0.33070866141732286
          },
          {
            "number": 7,
            "time": 109.83333333333307,
            "value": 0.33858267716535434
          },
          {
            "number": 7,
            "time": 109.89999999999974,
            "value": 0.3543307086614173
          },
          {
            "number": 7,
            "time": 109.93333333333307,
            "value": 0.36220472440944884
          },
          {
            "number": 7,
            "time": 109.99999999999973,
            "value": 0.3779527559055118
          },
          {
            "number": 7,
            "time": 110.06666666666639,
            "value": 0.3858267716535433
          },
          {
            "number": 7,
            "time": 110.09999999999972,
            "value": 0.4094488188976378
          },
          {
            "number": 7,
            "time": 110.19999999999972,
            "value": 0.41732283464566927
          },
          {
            "number": 7,
            "time": 110.23333333333305,
            "value": 0.4330708661417323
          },
          {
            "number": 7,
            "time": 110.26666666666638,
            "value": 0.4409448818897638
          },
          {
            "number": 7,
            "time": 110.29999999999971,
            "value": 0.4566929133858268
          },
          {
            "number": 7,
            "time": 110.39999999999971,
            "value": 0.4645669291338583
          },
          {
            "number": 7,
            "time": 110.43333333333304,
            "value": 0.48031496062992124
          },
          {
            "number": 7,
            "time": 110.4999999999997,
            "value": 0.4881889763779528
          },
          {
            "number": 7,
            "time": 110.56666666666636,
            "value": 0.5039370078740157
          },
          {
            "number": 7,
            "time": 110.63333333333303,
            "value": 0.5118110236220472
          },
          {
            "number": 7,
            "time": 110.66666666666636,
            "value": 0.5196850393700787
          },
          {
            "number": 7,
            "time": 110.73333333333302,
            "value": 0.5354330708661418
          },
          {
            "number": 7,
            "time": 110.86666666666636,
            "value": 0.5590551181102362
          },
          {
            "number": 7,
            "time": 110.93333333333302,
            "value": 0.5669291338582677
          },
          {
            "number": 7,
            "time": 110.96666666666636,
            "value": 0.5984251968503937
          },
          {
            "number": 7,
            "time": 111.06666666666635,
            "value": 0.6141732283464567
          },
          {
            "number": 7,
            "time": 111.13333333333301,
            "value": 0.6377952755905512
          },
          {
            "number": 7,
            "time": 111.19999999999968,
            "value": 0.6614173228346457
          },
          {
            "number": 7,
            "time": 111.26666666666634,
            "value": 0.6692913385826772
          },
          {
            "number": 7,
            "time": 111.29999999999967,
            "value": 0.6850393700787402
          },
          {
            "number": 7,
            "time": 111.39999999999966,
            "value": 0.6929133858267716
          },
          {
            "number": 7,
            "time": 111.433333333333,
            "value": 0.7007874015748031
          },
          {
            "number": 7,
            "time": 111.46666666666633,
            "value": 0.7165354330708661
          },
          {
            "number": 7,
            "time": 111.49999999999966,
            "value": 0.7244094488188977
          },
          {
            "number": 7,
            "time": 111.56666666666632,
            "value": 0.7401574803149606
          },
          {
            "number": 7,
            "time": 111.63333333333298,
            "value": 0.7480314960629921
          },
          {
            "number": 7,
            "time": 111.73333333333298,
            "value": 0.7637795275590551
          },
          {
            "number": 7,
            "time": 202.99999999999963,
            "value": 0.7716535433070866
          },
          {
            "number": 7,
            "time": 203.0666666666663,
            "value": 0.7637795275590551
          },
          {
            "number": 7,
            "time": 203.09999999999962,
            "value": 0.7480314960629921
          },
          {
            "number": 7,
            "time": 203.13333333333296,
            "value": 0.7401574803149606
          },
          {
            "number": 7,
            "time": 203.1666666666663,
            "value": 0.7244094488188977
          },
          {
            "number": 7,
            "time": 203.23333333333295,
            "value": 0.7165354330708661
          },
          {
            "number": 7,
            "time": 203.26666666666628,
            "value": 0.7007874015748031
          },
          {
            "number": 7,
            "time": 203.33333333333294,
            "value": 0.6929133858267716
          },
          {
            "number": 7,
            "time": 203.36666666666628,
            "value": 0.6850393700787402
          },
          {
            "number": 7,
            "time": 203.43333333333294,
            "value": 0.6692913385826772
          },
          {
            "number": 7,
            "time": 203.46666666666627,
            "value": 0.6614173228346457
          },
          {
            "number": 7,
            "time": 203.4999999999996,
            "value": 0.6456692913385826
          },
          {
            "number": 7,
            "time": 203.56666666666626,
            "value": 0.6377952755905512
          },
          {
            "number": 7,
            "time": 203.5999999999996,
            "value": 0.6220472440944882
          },
          {
            "number": 7,
            "time": 203.63333333333293,
            "value": 0.6141732283464567
          },
          {
            "number": 7,
            "time": 203.6999999999996,
            "value": 0.5984251968503937
          },
          {
            "number": 7,
            "time": 203.73333333333292,
            "value": 0.5905511811023622
          },
          {
            "number": 7,
            "time": 203.76666666666625,
            "value": 0.5826771653543307
          },
          {
            "number": 7,
            "time": 203.83333333333292,
            "value": 0.5669291338582677
          },
          {
            "number": 7,
            "time": 203.86666666666625,
            "value": 0.5590551181102362
          },
          {
            "number": 7,
            "time": 203.89999999999958,
            "value": 0.5433070866141733
          },
          {
            "number": 7,
            "time": 203.9333333333329,
            "value": 0.5354330708661418
          },
          {
            "number": 7,
            "time": 203.96666666666624,
            "value": 0.5118110236220472
          },
          {
            "number": 7,
            "time": 204.0333333333329,
            "value": 0.5039370078740157
          },
          {
            "number": 7,
            "time": 204.06666666666624,
            "value": 0.4881889763779528
          },
          {
            "number": 7,
            "time": 204.09999999999957,
            "value": 0.48031496062992124
          },
          {
            "number": 7,
            "time": 204.1333333333329,
            "value": 0.4645669291338583
          },
          {
            "number": 7,
            "time": 204.19999999999956,
            "value": 0.4330708661417323
          },
          {
            "number": 7,
            "time": 204.2333333333329,
            "value": 0.4409448818897638
          },
          {
            "number": 7,
            "time": 204.26666666666623,
            "value": 0.4094488188976378
          },
          {
            "number": 7,
            "time": 204.36666666666622,
            "value": 0.4015748031496063
          },
          {
            "number": 7,
            "time": 204.43333333333288,
            "value": 0.3858267716535433
          },
          {
            "number": 7,
            "time": 204.49999999999955,
            "value": 0.3779527559055118
          },
          {
            "number": 7,
            "time": 204.53333333333288,
            "value": 0.36220472440944884
          },
          {
            "number": 7,
            "time": 204.5666666666662,
            "value": 0.3543307086614173
          },
          {
            "number": 7,
            "time": 204.63333333333287,
            "value": 0.33070866141732286
          },
          {
            "number": 7,
            "time": 204.6666666666662,
            "value": 0.30708661417322836
          },
          {
            "number": 7,
            "time": 204.79999999999953,
            "value": 0.2992125984251969
          },
          {
            "number": 7,
            "time": 204.8666666666662,
            "value": 0.2755905511811024
          },
          {
            "number": 7,
            "time": 204.93333333333285,
            "value": 0.25196850393700787
          },
          {
            "number": 7,
            "time": 205.06666666666618,
            "value": 0.2283464566929134
          },
          {
            "number": 7,
            "time": 205.0999999999995,
            "value": 0.2125984251968504
          },
          {
            "number": 7,
            "time": 205.13333333333284,
            "value": 0.1968503937007874
          },
          {
            "number": 7,
            "time": 205.1999999999995,
            "value": 0.1732283464566929
          },
          {
            "number": 7,
            "time": 205.2999999999995,
            "value": 0.15748031496062992
          },
          {
            "number": 7,
            "time": 205.33333333333283,
            "value": 0.14960629921259844
          },
          {
            "number": 7,
            "time": 205.3999999999995,
            "value": 0.13385826771653545
          },
          {
            "number": 7,
            "time": 205.43333333333283,
            "value": 0.12598425196850394
          },
          {
            "number": 7,
            "time": 205.46666666666616,
            "value": 0.10236220472440945
          },
          {
            "number": 7,
            "time": 205.53333333333282,
            "value": 0.09448818897637795
          },
          {
            "number": 7,
            "time": 205.56666666666615,
            "value": 0.07874015748031496
          },
          {
            "number": 7,
            "time": 205.6333333333328,
            "value": 0.07086614173228346
          },
          {
            "number": 7,
            "time": 205.66666666666615,
            "value": 0.031496062992125984
          },
          {
            "number": 7,
            "time": 205.69999999999948,
            "value": 0.023622047244094488
          },
          {
            "number": 7,
            "time": 205.7333333333328,
            "value": 0.007874015748031496
          },
          {
            "number": 7,
            "time": 205.79999999999947,
            "value": 0
          },
          {
            "number": 7,
            "time": 207.96666666666616,
            "value": 0.7637795275590551
          }
        ],
        "10": [
          {
            "number": 10,
            "time": 0,
            "value": 0.5039370078740157
          }
        ],
        "91": [
          {
            "number": 91,
            "time": 0,
            "value": 0.31496062992125984
          }
        ],
        "93": [
          {
            "number": 93,
            "time": 0,
            "value": 0
          }
        ]
      },
      "id": 5,
      "name": "6",
      "instrumentNumber": 30,
      "instrument": "distortion guitar",
      "instrumentFamily": "guitar",
      "channelNumber": 5,
      "isPercussion": false
    },
    {
      "startTime": 48,
      "duration": 103.95,
      "length": 16,
      "notes": [
        {
          "name": "G2",
          "midi": 43,
          "time": 48,
          "velocity": 0.8346456692913385,
          "duration": 1.9500000000000028
        },
        {
          "name": "A#2",
          "midi": 46,
          "time": 50,
          "velocity": 0.8346456692913385,
          "duration": 1.9500000000000028
        },
        {
          "name": "F2",
          "midi": 41,
          "time": 52,
          "velocity": 0.8346456692913385,
          "duration": 1.9500000000000028
        },
        {
          "name": "C3",
          "midi": 48,
          "time": 54,
          "velocity": 0.8346456692913385,
          "duration": 1.9500000000000028
        },
        {
          "name": "G2",
          "midi": 43,
          "time": 56,
          "velocity": 0.8346456692913385,
          "duration": 1.9500000000000028
        },
        {
          "name": "A#2",
          "midi": 46,
          "time": 58,
          "velocity": 0.8346456692913385,
          "duration": 1.9500000000000028
        },
        {
          "name": "F2",
          "midi": 41,
          "time": 60,
          "velocity": 0.8346456692913385,
          "duration": 1.9500000000000028
        },
        {
          "name": "C3",
          "midi": 48,
          "time": 62,
          "velocity": 0.8346456692913385,
          "duration": 1.9500000000000028
        },
        {
          "name": "G2",
          "midi": 43,
          "time": 88,
          "velocity": 0.8346456692913385,
          "duration": 1.9500000000000028
        },
        {
          "name": "A#2",
          "midi": 46,
          "time": 90,
          "velocity": 0.8346456692913385,
          "duration": 1.9500000000000028
        },
        {
          "name": "F2",
          "midi": 41,
          "time": 92,
          "velocity": 0.8346456692913385,
          "duration": 1.9500000000000028
        },
        {
          "name": "C3",
          "midi": 48,
          "time": 94,
          "velocity": 0.8346456692913385,
          "duration": 1.9500000000000028
        },
        {
          "name": "G2",
          "midi": 43,
          "time": 96,
          "velocity": 0.8346456692913385,
          "duration": 1.9500000000000028
        },
        {
          "name": "A#2",
          "midi": 46,
          "time": 98,
          "velocity": 0.8346456692913385,
          "duration": 1.9500000000000028
        },
        {
          "name": "F2",
          "midi": 41,
          "time": 100,
          "velocity": 0.8346456692913385,
          "duration": 1.9500000000000028
        },
        {
          "name": "C3",
          "midi": 48,
          "time": 102,
          "velocity": 0.8346456692913385,
          "duration": 1.9500000000000028
        }
      ],
      "controlChanges": {
        "7": [
          {
            "number": 7,
            "time": 0,
            "value": 0.6220472440944882
          }
        ],
        "10": [
          {
            "number": 10,
            "time": 0,
            "value": 0.5039370078740157
          }
        ],
        "91": [
          {
            "number": 91,
            "time": 0,
            "value": 0.31496062992125984
          }
        ],
        "93": [
          {
            "number": 93,
            "time": 0,
            "value": 0
          }
        ]
      },
      "id": 6,
      "name": "7",
      "instrumentNumber": 51,
      "instrument": "synthstrings 2",
      "instrumentFamily": "ensemble",
      "channelNumber": 6,
      "isPercussion": false
    },
    {
      "startTime": 46.5,
      "duration": 197.93333333333334,
      "length": 169,
      "notes": [
        {
          "name": "A#3",
          "midi": 58,
          "time": 46.5,
          "velocity": 0.8346456692913385,
          "duration": 0.3333333333333357
        },
        {
          "name": "A#3",
          "midi": 58,
          "time": 47,
          "velocity": 0.8346456692913385,
          "duration": 0.3333333333333357
        },
        {
          "name": "A3",
          "midi": 57,
          "time": 47.5,
          "velocity": 0.8346456692913385,
          "duration": 0.3999999999999986
        },
        {
          "name": "A#3",
          "midi": 58,
          "time": 48,
          "velocity": 0.8346456692913385,
          "duration": 0.9500000000000028
        },
        {
          "name": "A#3",
          "midi": 58,
          "time": 49.25,
          "velocity": 0.8346456692913385,
          "duration": 0.23333333333333428
        },
        {
          "name": "A3",
          "midi": 57,
          "time": 49.5,
          "velocity": 0.8346456692913385,
          "duration": 0.23333333333333428
        },
        {
          "name": "A#3",
          "midi": 58,
          "time": 49.75,
          "velocity": 0.8346456692913385,
          "duration": 1.0499999999999972
        },
        {
          "name": "A#3",
          "midi": 58,
          "time": 51.25,
          "velocity": 0.8346456692913385,
          "duration": 0.23333333333333428
        },
        {
          "name": "A3",
          "midi": 57,
          "time": 51.5,
          "velocity": 0.8346456692913385,
          "duration": 0.23333333333333428
        },
        {
          "name": "A#3",
          "midi": 58,
          "time": 51.75,
          "velocity": 0.8346456692913385,
          "duration": 0.46666666666666856
        },
        {
          "name": "G3",
          "midi": 55,
          "time": 52.25,
          "velocity": 0.8346456692913385,
          "duration": 0.4166666666666643
        },
        {
          "name": "G3",
          "midi": 55,
          "time": 52.75,
          "velocity": 0.8346456692913385,
          "duration": 1.1333333333333329
        },
        {
          "name": "G3",
          "midi": 55,
          "time": 54.25,
          "velocity": 0.8346456692913385,
          "duration": 0.1666666666666643
        },
        {
          "name": "A#3",
          "midi": 58,
          "time": 54.5,
          "velocity": 0.8346456692913385,
          "duration": 0.28333333333333144
        },
        {
          "name": "A#3",
          "midi": 58,
          "time": 55,
          "velocity": 0.8346456692913385,
          "duration": 0.31666666666667
        },
        {
          "name": "A3",
          "midi": 57,
          "time": 55.5,
          "velocity": 0.8346456692913385,
          "duration": 0.3500000000000014
        },
        {
          "name": "A#3",
          "midi": 58,
          "time": 56,
          "velocity": 0.8346456692913385,
          "duration": 1.06666666666667
        },
        {
          "name": "G3",
          "midi": 55,
          "time": 57.25,
          "velocity": 0.8346456692913385,
          "duration": 0.23333333333333428
        },
        {
          "name": "A3",
          "midi": 57,
          "time": 57.5,
          "velocity": 0.8346456692913385,
          "duration": 0.23333333333333428
        },
        {
          "name": "A#3",
          "midi": 58,
          "time": 57.75,
          "velocity": 0.8346456692913385,
          "duration": 1.3500000000000014
        },
        {
          "name": "G3",
          "midi": 55,
          "time": 59.25,
          "velocity": 0.8346456692913385,
          "duration": 0.23333333333333428
        },
        {
          "name": "A3",
          "midi": 57,
          "time": 59.5,
          "velocity": 0.8346456692913385,
          "duration": 0.23333333333333428
        },
        {
          "name": "A#3",
          "midi": 58,
          "time": 59.75,
          "velocity": 0.8346456692913385,
          "duration": 0.3999999999999986
        },
        {
          "name": "G3",
          "midi": 55,
          "time": 60.25,
          "velocity": 0.8346456692913385,
          "duration": 0.3333333333333357
        },
        {
          "name": "G3",
          "midi": 55,
          "time": 60.75,
          "velocity": 0.8346456692913385,
          "duration": 1.18333333333333
        },
        {
          "name": "G3",
          "midi": 55,
          "time": 62.25,
          "velocity": 0.8346456692913385,
          "duration": 0.23333333333333428
        },
        {
          "name": "D4",
          "midi": 62,
          "time": 62.5,
          "velocity": 0.8346456692913385,
          "duration": 0.3500000000000014
        },
        {
          "name": "D4",
          "midi": 62,
          "time": 63,
          "velocity": 0.8346456692913385,
          "duration": 0.3500000000000014
        },
        {
          "name": "C4",
          "midi": 60,
          "time": 63.5,
          "velocity": 0.8346456692913385,
          "duration": 0.45000000000000284
        },
        {
          "name": "A#3",
          "midi": 58,
          "time": 64,
          "velocity": 0.8346456692913385,
          "duration": 1.6500000000000057
        },
        {
          "name": "A#3",
          "midi": 58,
          "time": 65.75,
          "velocity": 0.8346456692913385,
          "duration": 0.21666666666666856
        },
        {
          "name": "C4",
          "midi": 60,
          "time": 66,
          "velocity": 0.8346456692913385,
          "duration": 0.9666666666666686
        },
        {
          "name": "D4",
          "midi": 62,
          "time": 67,
          "velocity": 0.8346456692913385,
          "duration": 0.9500000000000028
        },
        {
          "name": "C4",
          "midi": 60,
          "time": 68,
          "velocity": 0.8346456692913385,
          "duration": 1.9666666666666686
        },
        {
          "name": "G4",
          "midi": 67,
          "time": 70,
          "velocity": 0.8346456692913385,
          "duration": 0.9666666666666686
        },
        {
          "name": "F4",
          "midi": 65,
          "time": 71,
          "velocity": 0.8346456692913385,
          "duration": 0.9500000000000028
        },
        {
          "name": "G4",
          "midi": 67,
          "time": 72,
          "velocity": 0.8346456692913385,
          "duration": 1.4666666666666686
        },
        {
          "name": "D4",
          "midi": 62,
          "time": 73.75,
          "velocity": 0.8346456692913385,
          "duration": 0.20000000000000284
        },
        {
          "name": "F4",
          "midi": 65,
          "time": 74,
          "velocity": 0.8346456692913385,
          "duration": 0.28333333333333144
        },
        {
          "name": "D#4",
          "midi": 63,
          "time": 74.5,
          "velocity": 0.8346456692913385,
          "duration": 0.3333333333333286
        },
        {
          "name": "D4",
          "midi": 62,
          "time": 75,
          "velocity": 0.8346456692913385,
          "duration": 0.9500000000000028
        },
        {
          "name": "D4",
          "midi": 62,
          "time": 76.25,
          "velocity": 0.8346456692913385,
          "duration": 0.20000000000000284
        },
        {
          "name": "F4",
          "midi": 65,
          "time": 76.5,
          "velocity": 0.8346456692913385,
          "duration": 0.3166666666666629
        },
        {
          "name": "F4",
          "midi": 65,
          "time": 77,
          "velocity": 0.8346456692913385,
          "duration": 0.36666666666666003
        },
        {
          "name": "D4",
          "midi": 62,
          "time": 77.5,
          "velocity": 0.8346456692913385,
          "duration": 0.29999999999999716
        },
        {
          "name": "G4",
          "midi": 67,
          "time": 78,
          "velocity": 0.8346456692913385,
          "duration": 0.9166666666666714
        },
        {
          "name": "F4",
          "midi": 65,
          "time": 79,
          "velocity": 0.8346456692913385,
          "duration": 0.9500000000000028
        },
        {
          "name": "G4",
          "midi": 67,
          "time": 80,
          "velocity": 0.8346456692913385,
          "duration": 1.4333333333333371
        },
        {
          "name": "D4",
          "midi": 62,
          "time": 81.75,
          "velocity": 0.8346456692913385,
          "duration": 0.23333333333333428
        },
        {
          "name": "F4",
          "midi": 65,
          "time": 82,
          "velocity": 0.8346456692913385,
          "duration": 0.29999999999999716
        },
        {
          "name": "D#4",
          "midi": 63,
          "time": 82.5,
          "velocity": 0.8346456692913385,
          "duration": 0.28333333333333144
        },
        {
          "name": "D4",
          "midi": 62,
          "time": 83,
          "velocity": 0.8346456692913385,
          "duration": 0.9333333333333371
        },
        {
          "name": "D4",
          "midi": 62,
          "time": 84.25,
          "velocity": 0.8346456692913385,
          "duration": 0.23333333333333428
        },
        {
          "name": "F4",
          "midi": 65,
          "time": 84.5,
          "velocity": 0.8346456692913385,
          "duration": 0.28333333333333144
        },
        {
          "name": "F4",
          "midi": 65,
          "time": 85,
          "velocity": 0.8346456692913385,
          "duration": 0.2666666666666657
        },
        {
          "name": "D4",
          "midi": 62,
          "time": 85.5,
          "velocity": 0.8346456692913385,
          "duration": 0.2666666666666657
        },
        {
          "name": "G4",
          "midi": 67,
          "time": 86,
          "velocity": 0.8346456692913385,
          "duration": 0.9166666666666714
        },
        {
          "name": "F4",
          "midi": 65,
          "time": 87,
          "velocity": 0.8346456692913385,
          "duration": 0.9666666666666686
        },
        {
          "name": "G4",
          "midi": 67,
          "time": 88,
          "velocity": 0.8346456692913385,
          "duration": 1.0166666666666657
        },
        {
          "name": "D4",
          "midi": 62,
          "time": 89.25,
          "velocity": 0.8346456692913385,
          "duration": 0.25
        },
        {
          "name": "C4",
          "midi": 60,
          "time": 89.5,
          "velocity": 0.8346456692913385,
          "duration": 0.25
        },
        {
          "name": "A#3",
          "midi": 58,
          "time": 89.75,
          "velocity": 0.8346456692913385,
          "duration": 1.1833333333333371
        },
        {
          "name": "G3",
          "midi": 55,
          "time": 91.25,
          "velocity": 0.8346456692913385,
          "duration": 0.1666666666666714
        },
        {
          "name": "G3",
          "midi": 55,
          "time": 91.5,
          "velocity": 0.8346456692913385,
          "duration": 0.20000000000000284
        },
        {
          "name": "A#3",
          "midi": 58,
          "time": 91.75,
          "velocity": 0.8346456692913385,
          "duration": 0.4000000000000057
        },
        {
          "name": "G3",
          "midi": 55,
          "time": 92.25,
          "velocity": 0.8346456692913385,
          "duration": 0.29999999999999716
        },
        {
          "name": "G3",
          "midi": 55,
          "time": 92.75,
          "velocity": 0.8346456692913385,
          "duration": 1.0833333333333286
        },
        {
          "name": "G3",
          "midi": 55,
          "time": 94.25,
          "velocity": 0.8346456692913385,
          "duration": 0.23333333333333428
        },
        {
          "name": "A#3",
          "midi": 58,
          "time": 94.5,
          "velocity": 0.8346456692913385,
          "duration": 0.29999999999999716
        },
        {
          "name": "A#3",
          "midi": 58,
          "time": 95,
          "velocity": 0.8346456692913385,
          "duration": 0.28333333333333144
        },
        {
          "name": "A3",
          "midi": 57,
          "time": 95.5,
          "velocity": 0.8346456692913385,
          "duration": 0.29999999999999716
        },
        {
          "name": "A#3",
          "midi": 58,
          "time": 96,
          "velocity": 0.8346456692913385,
          "duration": 0.9666666666666686
        },
        {
          "name": "G3",
          "midi": 55,
          "time": 97.25,
          "velocity": 0.8346456692913385,
          "duration": 0.21666666666666856
        },
        {
          "name": "A3",
          "midi": 57,
          "time": 97.5,
          "velocity": 0.8346456692913385,
          "duration": 0.21666666666666856
        },
        {
          "name": "A#3",
          "midi": 58,
          "time": 97.75,
          "velocity": 0.8346456692913385,
          "duration": 1.1833333333333371
        },
        {
          "name": "G3",
          "midi": 55,
          "time": 99.25,
          "velocity": 0.8346456692913385,
          "duration": 0.21666666666666856
        },
        {
          "name": "A3",
          "midi": 57,
          "time": 99.5,
          "velocity": 0.8346456692913385,
          "duration": 0.21666666666666856
        },
        {
          "name": "A#3",
          "midi": 58,
          "time": 99.75,
          "velocity": 0.8346456692913385,
          "duration": 0.38333333333333997
        },
        {
          "name": "C4",
          "midi": 60,
          "time": 100.25,
          "velocity": 0.8346456692913385,
          "duration": 0.3499999999999943
        },
        {
          "name": "C4",
          "midi": 60,
          "time": 100.75,
          "velocity": 0.8346456692913385,
          "duration": 1.1500000000000057
        },
        {
          "name": "C4",
          "midi": 60,
          "time": 102.25,
          "velocity": 0.8346456692913385,
          "duration": 0.21666666666666856
        },
        {
          "name": "D4",
          "midi": 62,
          "time": 102.5,
          "velocity": 0.8346456692913385,
          "duration": 0.28333333333333144
        },
        {
          "name": "D4",
          "midi": 62,
          "time": 103,
          "velocity": 0.8346456692913385,
          "duration": 0.28333333333333144
        },
        {
          "name": "C4",
          "midi": 60,
          "time": 103.5,
          "velocity": 0.8346456692913385,
          "duration": 0.3333333333333286
        },
        {
          "name": "A#3",
          "midi": 58,
          "time": 104,
          "velocity": 0.8346456692913385,
          "duration": 1.6500000000000057
        },
        {
          "name": "A#3",
          "midi": 58,
          "time": 105.75,
          "velocity": 0.8346456692913385,
          "duration": 0.21666666666666856
        },
        {
          "name": "C4",
          "midi": 60,
          "time": 106,
          "velocity": 0.8346456692913385,
          "duration": 0.9666666666666686
        },
        {
          "name": "D4",
          "midi": 62,
          "time": 107,
          "velocity": 0.8346456692913385,
          "duration": 0.9500000000000028
        },
        {
          "name": "C4",
          "midi": 60,
          "time": 108,
          "velocity": 0.8346456692913385,
          "duration": 1.9666666666666686
        },
        {
          "name": "G4",
          "midi": 67,
          "time": 110,
          "velocity": 0.8346456692913385,
          "duration": 0.9666666666666686
        },
        {
          "name": "F4",
          "midi": 65,
          "time": 111,
          "velocity": 0.8346456692913385,
          "duration": 0.9500000000000028
        },
        {
          "name": "G4",
          "midi": 67,
          "time": 112,
          "velocity": 0.8346456692913385,
          "duration": 1.4500000000000028
        },
        {
          "name": "D4",
          "midi": 62,
          "time": 113.75,
          "velocity": 0.8346456692913385,
          "duration": 0.20000000000000284
        },
        {
          "name": "F4",
          "midi": 65,
          "time": 114,
          "velocity": 0.8346456692913385,
          "duration": 0.28333333333333144
        },
        {
          "name": "D#4",
          "midi": 63,
          "time": 114.5,
          "velocity": 0.8346456692913385,
          "duration": 0.3333333333333286
        },
        {
          "name": "D4",
          "midi": 62,
          "time": 115,
          "velocity": 0.8346456692913385,
          "duration": 0.9500000000000028
        },
        {
          "name": "D4",
          "midi": 62,
          "time": 116.25,
          "velocity": 0.8346456692913385,
          "duration": 0.20000000000000284
        },
        {
          "name": "F4",
          "midi": 65,
          "time": 116.5,
          "velocity": 0.8346456692913385,
          "duration": 0.3166666666666629
        },
        {
          "name": "F4",
          "midi": 65,
          "time": 117,
          "velocity": 0.8346456692913385,
          "duration": 0.36666666666666003
        },
        {
          "name": "D4",
          "midi": 62,
          "time": 117.5,
          "velocity": 0.8346456692913385,
          "duration": 0.36666666666666003
        },
        {
          "name": "G4",
          "midi": 67,
          "time": 118,
          "velocity": 0.8346456692913385,
          "duration": 0.9166666666666714
        },
        {
          "name": "F4",
          "midi": 65,
          "time": 119,
          "velocity": 0.8346456692913385,
          "duration": 0.9500000000000028
        },
        {
          "name": "G4",
          "midi": 67,
          "time": 120,
          "velocity": 0.8346456692913385,
          "duration": 1.4500000000000028
        },
        {
          "name": "D4",
          "midi": 62,
          "time": 121.75,
          "velocity": 0.8346456692913385,
          "duration": 0.23333333333333428
        },
        {
          "name": "F4",
          "midi": 65,
          "time": 122,
          "velocity": 0.8346456692913385,
          "duration": 0.29999999999999716
        },
        {
          "name": "D#4",
          "midi": 63,
          "time": 122.5,
          "velocity": 0.8346456692913385,
          "duration": 0.28333333333333144
        },
        {
          "name": "D4",
          "midi": 62,
          "time": 123,
          "velocity": 0.8346456692913385,
          "duration": 0.9000000000000057
        },
        {
          "name": "D4",
          "midi": 62,
          "time": 124.25,
          "velocity": 0.8346456692913385,
          "duration": 0.23333333333333428
        },
        {
          "name": "F4",
          "midi": 65,
          "time": 124.5,
          "velocity": 0.8346456692913385,
          "duration": 0.28333333333333144
        },
        {
          "name": "F4",
          "midi": 65,
          "time": 125,
          "velocity": 0.8346456692913385,
          "duration": 0.2666666666666657
        },
        {
          "name": "D4",
          "midi": 62,
          "time": 125.5,
          "velocity": 0.8346456692913385,
          "duration": 0.2666666666666657
        },
        {
          "name": "G4",
          "midi": 67,
          "time": 126,
          "velocity": 0.8346456692913385,
          "duration": 1.9166666666666714
        },
        {
          "name": "F4",
          "midi": 65,
          "time": 128,
          "velocity": 0.8346456692913385,
          "duration": 1.4499999999999886
        },
        {
          "name": "F4",
          "midi": 65,
          "time": 145.5,
          "velocity": 0.8346456692913385,
          "duration": 0.4333333333333371
        },
        {
          "name": "G4",
          "midi": 67,
          "time": 146,
          "velocity": 0.8346456692913385,
          "duration": 0.8666666666666742
        },
        {
          "name": "F4",
          "midi": 65,
          "time": 147,
          "velocity": 0.8346456692913385,
          "duration": 0.9166666666666572
        },
        {
          "name": "G4",
          "midi": 67,
          "time": 148,
          "velocity": 0.8346456692913385,
          "duration": 1.4499999999999886
        },
        {
          "name": "D4",
          "midi": 62,
          "time": 149.75,
          "velocity": 0.8346456692913385,
          "duration": 0.18333333333333712
        },
        {
          "name": "F4",
          "midi": 65,
          "time": 150,
          "velocity": 0.8346456692913385,
          "duration": 0.30000000000001137
        },
        {
          "name": "D#4",
          "midi": 63,
          "time": 150.5,
          "velocity": 0.8346456692913385,
          "duration": 0.26666666666667993
        },
        {
          "name": "D4",
          "midi": 62,
          "time": 151,
          "velocity": 0.8346456692913385,
          "duration": 0.9166666666666572
        },
        {
          "name": "D4",
          "midi": 62,
          "time": 152.25,
          "velocity": 0.8346456692913385,
          "duration": 0.19999999999998863
        },
        {
          "name": "F4",
          "midi": 65,
          "time": 152.5,
          "velocity": 0.8346456692913385,
          "duration": 0.26666666666667993
        },
        {
          "name": "F4",
          "midi": 65,
          "time": 153,
          "velocity": 0.8346456692913385,
          "duration": 0.26666666666667993
        },
        {
          "name": "D4",
          "midi": 62,
          "time": 153.5,
          "velocity": 0.8346456692913385,
          "duration": 0.36666666666667425
        },
        {
          "name": "G4",
          "midi": 67,
          "time": 154,
          "velocity": 0.8346456692913385,
          "duration": 0.9333333333333371
        },
        {
          "name": "F4",
          "midi": 65,
          "time": 155,
          "velocity": 0.8346456692913385,
          "duration": 0.9666666666666686
        },
        {
          "name": "G4",
          "midi": 67,
          "time": 156,
          "velocity": 0.8346456692913385,
          "duration": 1.4666666666666686
        },
        {
          "name": "D4",
          "midi": 62,
          "time": 157.75,
          "velocity": 0.8346456692913385,
          "duration": 0.23333333333332007
        },
        {
          "name": "F4",
          "midi": 65,
          "time": 158,
          "velocity": 0.8346456692913385,
          "duration": 0.30000000000001137
        },
        {
          "name": "D#4",
          "midi": 63,
          "time": 158.5,
          "velocity": 0.8346456692913385,
          "duration": 0.3166666666666629
        },
        {
          "name": "D4",
          "midi": 62,
          "time": 159,
          "velocity": 0.8346456692913385,
          "duration": 0.9333333333333371
        },
        {
          "name": "D4",
          "midi": 62,
          "time": 160.25,
          "velocity": 0.8346456692913385,
          "duration": 0.23333333333332007
        },
        {
          "name": "F4",
          "midi": 65,
          "time": 160.5,
          "velocity": 0.8346456692913385,
          "duration": 0.23333333333332007
        },
        {
          "name": "F4",
          "midi": 65,
          "time": 161,
          "velocity": 0.8346456692913385,
          "duration": 0.30000000000001137
        },
        {
          "name": "D4",
          "midi": 62,
          "time": 161.5,
          "velocity": 0.8346456692913385,
          "duration": 0.3499999999999943
        },
        {
          "name": "G4",
          "midi": 67,
          "time": 162,
          "velocity": 0.8346456692913385,
          "duration": 1.9499999999999886
        },
        {
          "name": "F4",
          "midi": 65,
          "time": 164,
          "velocity": 0.8346456692913385,
          "duration": 1.4666666666666686
        },
        {
          "name": "G4",
          "midi": 67,
          "time": 166,
          "velocity": 0.8346456692913385,
          "duration": 1.4666666666666686
        },
        {
          "name": "D4",
          "midi": 62,
          "time": 167.75,
          "velocity": 0.8346456692913385,
          "duration": 0.19999999999998863
        },
        {
          "name": "F4",
          "midi": 65,
          "time": 168,
          "velocity": 0.8346456692913385,
          "duration": 0.28333333333333144
        },
        {
          "name": "D#4",
          "midi": 63,
          "time": 168.5,
          "velocity": 0.8346456692913385,
          "duration": 0.3333333333333428
        },
        {
          "name": "D4",
          "midi": 62,
          "time": 169,
          "velocity": 0.8346456692913385,
          "duration": 0.9000000000000057
        },
        {
          "name": "D4",
          "midi": 62,
          "time": 170.25,
          "velocity": 0.8346456692913385,
          "duration": 0.19999999999998863
        },
        {
          "name": "F4",
          "midi": 65,
          "time": 170.5,
          "velocity": 0.8346456692913385,
          "duration": 0.3166666666666629
        },
        {
          "name": "F4",
          "midi": 65,
          "time": 171,
          "velocity": 0.8346456692913385,
          "duration": 0.36666666666667425
        },
        {
          "name": "D4",
          "midi": 62,
          "time": 171.5,
          "velocity": 0.8346456692913385,
          "duration": 0.44999999999998863
        },
        {
          "name": "G4",
          "midi": 67,
          "time": 172,
          "velocity": 0.8346456692913385,
          "duration": 0.9166666666666572
        },
        {
          "name": "F4",
          "midi": 65,
          "time": 173,
          "velocity": 0.8346456692913385,
          "duration": 0.9000000000000057
        },
        {
          "name": "G4",
          "midi": 67,
          "time": 174,
          "velocity": 0.8346456692913385,
          "duration": 1.5833333333333428
        },
        {
          "name": "D4",
          "midi": 62,
          "time": 175.75,
          "velocity": 0.8346456692913385,
          "duration": 0.23333333333332007
        },
        {
          "name": "F4",
          "midi": 65,
          "time": 176,
          "velocity": 0.8346456692913385,
          "duration": 0.30000000000001137
        },
        {
          "name": "D#4",
          "midi": 63,
          "time": 176.5,
          "velocity": 0.8346456692913385,
          "duration": 0.28333333333333144
        },
        {
          "name": "D4",
          "midi": 62,
          "time": 177,
          "velocity": 0.8346456692913385,
          "duration": 0.8833333333333258
        },
        {
          "name": "D4",
          "midi": 62,
          "time": 178.25,
          "velocity": 0.8346456692913385,
          "duration": 0.23333333333332007
        },
        {
          "name": "F4",
          "midi": 65,
          "time": 178.5,
          "velocity": 0.8346456692913385,
          "duration": 0.28333333333333144
        },
        {
          "name": "F4",
          "midi": 65,
          "time": 179,
          "velocity": 0.8346456692913385,
          "duration": 0.26666666666667993
        },
        {
          "name": "D4",
          "midi": 62,
          "time": 179.5,
          "velocity": 0.8346456692913385,
          "duration": 0.3166666666666629
        },
        {
          "name": "G4",
          "midi": 67,
          "time": 180,
          "velocity": 0.8346456692913385,
          "duration": 0.9166666666666572
        },
        {
          "name": "F4",
          "midi": 65,
          "time": 181,
          "velocity": 0.8346456692913385,
          "duration": 0.9666666666666686
        },
        {
          "name": "G4",
          "midi": 67,
          "time": 182,
          "velocity": 0.8346456692913385,
          "duration": 5.800000000000011
        },
        {
          "name": "G4",
          "midi": 67,
          "time": 188,
          "velocity": 0.8346456692913385,
          "duration": 0.9499999999999886
        },
        {
          "name": "F4",
          "midi": 65,
          "time": 189,
          "velocity": 0.8346456692913385,
          "duration": 0.9666666666666686
        },
        {
          "name": "G4",
          "midi": 67,
          "time": 190,
          "velocity": 0.8346456692913385,
          "duration": 4.25
        },
        {
          "name": "F4",
          "midi": 65,
          "time": 194.5,
          "velocity": 0.8346456692913385,
          "duration": 0.3499999999999943
        },
        {
          "name": "F4",
          "midi": 65,
          "time": 195,
          "velocity": 0.8346456692913385,
          "duration": 0.3499999999999943
        },
        {
          "name": "D4",
          "midi": 62,
          "time": 195.5,
          "velocity": 0.8346456692913385,
          "duration": 0.3499999999999943
        },
        {
          "name": "G4",
          "midi": 67,
          "time": 196,
          "velocity": 0.8346456692913385,
          "duration": 0.9166666666666572
        },
        {
          "name": "F4",
          "midi": 65,
          "time": 197,
          "velocity": 0.8346456692913385,
          "duration": 0.9333333333333371
        }
      ],
      "controlChanges": {
        "7": [
          {
            "number": 7,
            "time": 0,
            "value": 0.7007874015748031
          }
        ],
        "10": [
          {
            "number": 10,
            "time": 0,
            "value": 0.5039370078740157
          }
        ],
        "91": [
          {
            "number": 91,
            "time": 0,
            "value": 0.31496062992125984
          }
        ],
        "93": [
          {
            "number": 93,
            "time": 0,
            "value": 0
          }
        ]
      },
      "id": 7,
      "name": "8",
      "instrumentNumber": 69,
      "instrument": "english horn",
      "instrumentFamily": "reed",
      "channelNumber": 7,
      "isPercussion": false
    },
    {
      "startTime": 4.999999999999999,
      "duration": 7.983333333333325,
      "length": 1,
      "notes": [
        {
          "name": "D4",
          "midi": 62,
          "time": 4.999999999999999,
          "velocity": 0.6692913385826772,
          "duration": 2.9833333333333263
        }
      ],
      "controlChanges": {
        "7": [
          {
            "number": 7,
            "time": 0,
            "value": 0.7795275590551181
          },
          {
            "number": 7,
            "time": 4.833333333333333,
            "value": 0
          },
          {
            "number": 7,
            "time": 4.8999999999999995,
            "value": 0.031496062992125984
          },
          {
            "number": 7,
            "time": 4.966666666666666,
            "value": 0.047244094488188976
          },
          {
            "number": 7,
            "time": 4.999999999999999,
            "value": 0.05511811023622047
          },
          {
            "number": 7,
            "time": 5.099999999999999,
            "value": 0.07086614173228346
          },
          {
            "number": 7,
            "time": 5.2333333333333325,
            "value": 0.07874015748031496
          },
          {
            "number": 7,
            "time": 5.266666666666666,
            "value": 0.10236220472440945
          },
          {
            "number": 7,
            "time": 5.333333333333332,
            "value": 0.11023622047244094
          },
          {
            "number": 7,
            "time": 5.366666666666665,
            "value": 0.12598425196850394
          },
          {
            "number": 7,
            "time": 5.433333333333332,
            "value": 0.13385826771653545
          },
          {
            "number": 7,
            "time": 5.533333333333331,
            "value": 0.14960629921259844
          },
          {
            "number": 7,
            "time": 5.566666666666665,
            "value": 0.15748031496062992
          },
          {
            "number": 7,
            "time": 5.733333333333332,
            "value": 0.1732283464566929
          },
          {
            "number": 7,
            "time": 5.799999999999998,
            "value": 0.18110236220472442
          },
          {
            "number": 7,
            "time": 5.8666666666666645,
            "value": 0.1968503937007874
          },
          {
            "number": 7,
            "time": 5.899999999999998,
            "value": 0.2047244094488189
          },
          {
            "number": 7,
            "time": 5.966666666666664,
            "value": 0.2125984251968504
          },
          {
            "number": 7,
            "time": 5.999999999999997,
            "value": 0.2283464566929134
          },
          {
            "number": 7,
            "time": 6.066666666666664,
            "value": 0.23622047244094488
          },
          {
            "number": 7,
            "time": 6.13333333333333,
            "value": 0.25196850393700787
          },
          {
            "number": 7,
            "time": 6.166666666666663,
            "value": 0.25984251968503935
          },
          {
            "number": 7,
            "time": 6.23333333333333,
            "value": 0.2755905511811024
          },
          {
            "number": 7,
            "time": 6.266666666666663,
            "value": 0.28346456692913385
          },
          {
            "number": 7,
            "time": 6.3333333333333295,
            "value": 0.30708661417322836
          },
          {
            "number": 7,
            "time": 6.399999999999996,
            "value": 0.33070866141732286
          },
          {
            "number": 7,
            "time": 6.499999999999996,
            "value": 0.33858267716535434
          },
          {
            "number": 7,
            "time": 6.566666666666662,
            "value": 0.3543307086614173
          },
          {
            "number": 7,
            "time": 6.599999999999995,
            "value": 0.3779527559055118
          },
          {
            "number": 7,
            "time": 6.666666666666662,
            "value": 0.3858267716535433
          },
          {
            "number": 7,
            "time": 6.733333333333328,
            "value": 0.4015748031496063
          },
          {
            "number": 7,
            "time": 6.7999999999999945,
            "value": 0.4094488188976378
          },
          {
            "number": 7,
            "time": 6.833333333333328,
            "value": 0.4330708661417323
          },
          {
            "number": 7,
            "time": 6.899999999999994,
            "value": 0.4409448818897638
          },
          {
            "number": 7,
            "time": 6.933333333333327,
            "value": 0.4566929133858268
          },
          {
            "number": 7,
            "time": 7.033333333333327,
            "value": 0.4645669291338583
          },
          {
            "number": 7,
            "time": 7.06666666666666,
            "value": 0.48031496062992124
          },
          {
            "number": 7,
            "time": 7.133333333333327,
            "value": 0.4881889763779528
          },
          {
            "number": 7,
            "time": 7.16666666666666,
            "value": 0.5039370078740157
          },
          {
            "number": 7,
            "time": 7.233333333333326,
            "value": 0.5118110236220472
          },
          {
            "number": 7,
            "time": 7.299999999999993,
            "value": 0.5196850393700787
          },
          {
            "number": 7,
            "time": 7.333333333333326,
            "value": 0.5354330708661418
          },
          {
            "number": 7,
            "time": 7.366666666666659,
            "value": 0.5433070866141733
          },
          {
            "number": 7,
            "time": 7.399999999999992,
            "value": 0.5590551181102362
          },
          {
            "number": 7,
            "time": 7.466666666666659,
            "value": 0.5669291338582677
          },
          {
            "number": 7,
            "time": 7.499999999999992,
            "value": 0.5590551181102362
          },
          {
            "number": 7,
            "time": 7.966666666666659,
            "value": 0.5196850393700787
          },
          {
            "number": 7,
            "time": 7.999999999999992,
            "value": 0.5118110236220472
          },
          {
            "number": 7,
            "time": 8.033333333333326,
            "value": 0.4881889763779528
          },
          {
            "number": 7,
            "time": 8.099999999999993,
            "value": 0.48031496062992124
          },
          {
            "number": 7,
            "time": 8.133333333333326,
            "value": 0.4566929133858268
          },
          {
            "number": 7,
            "time": 8.199999999999992,
            "value": 0.4409448818897638
          },
          {
            "number": 7,
            "time": 8.233333333333325,
            "value": 0.4330708661417323
          },
          {
            "number": 7,
            "time": 8.266666666666659,
            "value": 0.41732283464566927
          },
          {
            "number": 7,
            "time": 8.299999999999992,
            "value": 0.3858267716535433
          },
          {
            "number": 7,
            "time": 8.333333333333325,
            "value": 0.3779527559055118
          },
          {
            "number": 7,
            "time": 8.366666666666658,
            "value": 0.3543307086614173
          },
          {
            "number": 7,
            "time": 8.433333333333325,
            "value": 0.33070866141732286
          },
          {
            "number": 7,
            "time": 8.466666666666658,
            "value": 0.30708661417322836
          },
          {
            "number": 7,
            "time": 8.533333333333324,
            "value": 0.28346456692913385
          },
          {
            "number": 7,
            "time": 8.59999999999999,
            "value": 0.25196850393700787
          },
          {
            "number": 7,
            "time": 8.666666666666657,
            "value": 0.2283464566929134
          },
          {
            "number": 7,
            "time": 8.733333333333324,
            "value": 0.2047244094488189
          },
          {
            "number": 7,
            "time": 8.766666666666657,
            "value": 0.1968503937007874
          },
          {
            "number": 7,
            "time": 8.79999999999999,
            "value": 0.18110236220472442
          },
          {
            "number": 7,
            "time": 8.866666666666656,
            "value": 0.15748031496062992
          },
          {
            "number": 7,
            "time": 8.933333333333323,
            "value": 0.12598425196850394
          },
          {
            "number": 7,
            "time": 8.966666666666656,
            "value": 0.11023622047244094
          },
          {
            "number": 7,
            "time": 8.99999999999999,
            "value": 0.10236220472440945
          },
          {
            "number": 7,
            "time": 9.033333333333323,
            "value": 0.07874015748031496
          },
          {
            "number": 7,
            "time": 9.099999999999989,
            "value": 0.05511811023622047
          },
          {
            "number": 7,
            "time": 9.133333333333322,
            "value": 0.047244094488188976
          },
          {
            "number": 7,
            "time": 9.166666666666655,
            "value": 0.031496062992125984
          },
          {
            "number": 7,
            "time": 9.199999999999989,
            "value": 0.023622047244094488
          },
          {
            "number": 7,
            "time": 9.233333333333322,
            "value": 0
          },
          {
            "number": 7,
            "time": 9.599999999999989,
            "value": 0.7795275590551181
          }
        ],
        "10": [
          {
            "number": 10,
            "time": 0,
            "value": 0.5039370078740157
          }
        ],
        "91": [
          {
            "number": 91,
            "time": 0,
            "value": 0.31496062992125984
          }
        ],
        "93": [
          {
            "number": 93,
            "time": 0,
            "value": 0
          }
        ]
      },
      "id": 8,
      "name": "9",
      "instrumentNumber": 122,
      "instrument": "seashore",
      "instrumentFamily": "sound effects",
      "channelNumber": 8,
      "isPercussion": false
    },
    {
      "startTime": 129.25,
      "duration": 149.7833333333333,
      "length": 50,
      "notes": [
        {
          "name": "D4",
          "midi": 62,
          "time": 129.25,
          "velocity": 0.889763779527559,
          "duration": 0.30000000000001137
        },
        {
          "name": "F4",
          "midi": 65,
          "time": 129.5,
          "velocity": 0.889763779527559,
          "duration": 0.30000000000001137
        },
        {
          "name": "D4",
          "midi": 62,
          "time": 129.75,
          "velocity": 0.889763779527559,
          "duration": 0.30000000000001137
        },
        {
          "name": "F4",
          "midi": 65,
          "time": 130,
          "velocity": 0.8976377952755905,
          "duration": 0.30000000000001137
        },
        {
          "name": "D4",
          "midi": 62,
          "time": 130.25,
          "velocity": 0.8976377952755905,
          "duration": 0.30000000000001137
        },
        {
          "name": "F4",
          "midi": 65,
          "time": 130.5,
          "velocity": 0.8976377952755905,
          "duration": 0.30000000000001137
        },
        {
          "name": "D4",
          "midi": 62,
          "time": 130.75,
          "velocity": 0.889763779527559,
          "duration": 0.30000000000001137
        },
        {
          "name": "F4",
          "midi": 65,
          "time": 131,
          "velocity": 0.889763779527559,
          "duration": 0.4333333333333371
        },
        {
          "name": "G4",
          "midi": 67,
          "time": 131.5,
          "velocity": 0.889763779527559,
          "duration": 0.30000000000001137
        },
        {
          "name": "A#4",
          "midi": 70,
          "time": 132,
          "velocity": 0.8976377952755905,
          "duration": 1.26666666666668
        },
        {
          "name": "D4",
          "midi": 62,
          "time": 133.25,
          "velocity": 0.889763779527559,
          "duration": 0.30000000000001137
        },
        {
          "name": "F4",
          "midi": 65,
          "time": 133.5,
          "velocity": 0.889763779527559,
          "duration": 0.30000000000001137
        },
        {
          "name": "D4",
          "midi": 62,
          "time": 133.75,
          "velocity": 0.889763779527559,
          "duration": 0.30000000000001137
        },
        {
          "name": "F4",
          "midi": 65,
          "time": 134,
          "velocity": 0.889763779527559,
          "duration": 0.30000000000001137
        },
        {
          "name": "D4",
          "midi": 62,
          "time": 134.25,
          "velocity": 0.8976377952755905,
          "duration": 0.30000000000001137
        },
        {
          "name": "F4",
          "midi": 65,
          "time": 134.5,
          "velocity": 0.8976377952755905,
          "duration": 0.30000000000001137
        },
        {
          "name": "D4",
          "midi": 62,
          "time": 134.75,
          "velocity": 0.8976377952755905,
          "duration": 0.30000000000001137
        },
        {
          "name": "F4",
          "midi": 65,
          "time": 135,
          "velocity": 0.8976377952755905,
          "duration": 0.45000000000001705
        },
        {
          "name": "G4",
          "midi": 67,
          "time": 135.50000000000003,
          "velocity": 0.889763779527559,
          "duration": 0.44999999999998863
        },
        {
          "name": "A4",
          "midi": 69,
          "time": 136.00000000000003,
          "velocity": 0.889763779527559,
          "duration": 0.4333333333333371
        },
        {
          "name": "G4",
          "midi": 67,
          "time": 136.50000000000003,
          "velocity": 0.889763779527559,
          "duration": 0.4333333333333371
        },
        {
          "name": "F4",
          "midi": 65,
          "time": 137.00000000000003,
          "velocity": 0.889763779527559,
          "duration": 0.30000000000001137
        },
        {
          "name": "D4",
          "midi": 62,
          "time": 137.25000000000003,
          "velocity": 0.8976377952755905,
          "duration": 0.30000000000001137
        },
        {
          "name": "F4",
          "midi": 65,
          "time": 137.50000000000003,
          "velocity": 0.8976377952755905,
          "duration": 0.30000000000001137
        },
        {
          "name": "D4",
          "midi": 62,
          "time": 137.75000000000003,
          "velocity": 0.8976377952755905,
          "duration": 0.30000000000001137
        },
        {
          "name": "F4",
          "midi": 65,
          "time": 138.00000000000003,
          "velocity": 0.8976377952755905,
          "duration": 0.30000000000001137
        },
        {
          "name": "D4",
          "midi": 62,
          "time": 138.25000000000003,
          "velocity": 0.889763779527559,
          "duration": 0.30000000000001137
        },
        {
          "name": "F4",
          "midi": 65,
          "time": 138.50000000000003,
          "velocity": 0.889763779527559,
          "duration": 0.30000000000001137
        },
        {
          "name": "D4",
          "midi": 62,
          "time": 138.75000000000003,
          "velocity": 0.8976377952755905,
          "duration": 0.30000000000001137
        },
        {
          "name": "F4",
          "midi": 65,
          "time": 139.00000000000003,
          "velocity": 0.8976377952755905,
          "duration": 0.4000000000000057
        },
        {
          "name": "G4",
          "midi": 67,
          "time": 139.50000000000003,
          "velocity": 0.889763779527559,
          "duration": 0.46666666666666856
        },
        {
          "name": "A#4",
          "midi": 70,
          "time": 140.00000000000003,
          "velocity": 0.889763779527559,
          "duration": 1.3833333333333258
        },
        {
          "name": "D4",
          "midi": 62,
          "time": 141.25000000000003,
          "velocity": 0.889763779527559,
          "duration": 0.30000000000001137
        },
        {
          "name": "F4",
          "midi": 65,
          "time": 141.50000000000003,
          "velocity": 0.889763779527559,
          "duration": 0.30000000000001137
        },
        {
          "name": "D4",
          "midi": 62,
          "time": 141.75000000000003,
          "velocity": 0.8976377952755905,
          "duration": 0.30000000000001137
        },
        {
          "name": "F4",
          "midi": 65,
          "time": 142.00000000000003,
          "velocity": 0.8976377952755905,
          "duration": 0.30000000000001137
        },
        {
          "name": "D4",
          "midi": 62,
          "time": 142.25000000000003,
          "velocity": 0.889763779527559,
          "duration": 0.30000000000001137
        },
        {
          "name": "F4",
          "midi": 65,
          "time": 142.50000000000003,
          "velocity": 0.8976377952755905,
          "duration": 0.30000000000001137
        },
        {
          "name": "D4",
          "midi": 62,
          "time": 142.75000000000003,
          "velocity": 0.8976377952755905,
          "duration": 0.30000000000001137
        },
        {
          "name": "F4",
          "midi": 65,
          "time": 143.00000000000003,
          "velocity": 0.8976377952755905,
          "duration": 0.30000000000001137
        },
        {
          "name": "G4",
          "midi": 67,
          "time": 143.50000000000003,
          "velocity": 0.8976377952755905,
          "duration": 0.4333333333333371
        },
        {
          "name": "A4",
          "midi": 69,
          "time": 144.00000000000003,
          "velocity": 0.889763779527559,
          "duration": 0.4333333333333371
        },
        {
          "name": "G4",
          "midi": 67,
          "time": 144.50000000000003,
          "velocity": 0.889763779527559,
          "duration": 0.4333333333333371
        },
        {
          "name": "F4",
          "midi": 65,
          "time": 145.00000000000003,
          "velocity": 0.8976377952755905,
          "duration": 0.4333333333333371
        },
        {
          "name": "G4",
          "midi": 67,
          "time": 145.50000000000003,
          "velocity": 0.889763779527559,
          "duration": 0.4333333333333371
        },
        {
          "name": "A#4",
          "midi": 70,
          "time": 146.00000000000003,
          "velocity": 0.889763779527559,
          "duration": 0.44999999999998863
        },
        {
          "name": "G4",
          "midi": 67,
          "time": 146.50000000000003,
          "velocity": 0.889763779527559,
          "duration": 0.4333333333333371
        },
        {
          "name": "F4",
          "midi": 65,
          "time": 147.00000000000003,
          "velocity": 0.889763779527559,
          "duration": 0.4333333333333371
        },
        {
          "name": "G4",
          "midi": 67,
          "time": 147.50000000000003,
          "velocity": 0.8976377952755905,
          "duration": 0.4333333333333371
        },
        {
          "name": "G4",
          "midi": 67,
          "time": 148.00000000000003,
          "velocity": 0.889763779527559,
          "duration": 1.7833333333332746
        }
      ],
      "controlChanges": {
        "7": [
          {
            "number": 7,
            "time": 0,
            "value": 0.5826771653543307
          },
          {
            "number": 7,
            "time": 148.53333333333336,
            "value": 0.5590551181102362
          },
          {
            "number": 7,
            "time": 148.60000000000002,
            "value": 0.5433070866141733
          },
          {
            "number": 7,
            "time": 148.63333333333335,
            "value": 0.5354330708661418
          },
          {
            "number": 7,
            "time": 148.66666666666669,
            "value": 0.5196850393700787
          },
          {
            "number": 7,
            "time": 148.73333333333335,
            "value": 0.5118110236220472
          },
          {
            "number": 7,
            "time": 148.76666666666668,
            "value": 0.4881889763779528
          },
          {
            "number": 7,
            "time": 148.8,
            "value": 0.48031496062992124
          },
          {
            "number": 7,
            "time": 148.86666666666667,
            "value": 0.4645669291338583
          },
          {
            "number": 7,
            "time": 148.93333333333334,
            "value": 0.4409448818897638
          },
          {
            "number": 7,
            "time": 149,
            "value": 0.4330708661417323
          },
          {
            "number": 7,
            "time": 149.03333333333333,
            "value": 0.4094488188976378
          },
          {
            "number": 7,
            "time": 149.1,
            "value": 0.3858267716535433
          },
          {
            "number": 7,
            "time": 149.16666666666666,
            "value": 0.36220472440944884
          },
          {
            "number": 7,
            "time": 149.23333333333332,
            "value": 0.3543307086614173
          },
          {
            "number": 7,
            "time": 149.26666666666665,
            "value": 0.33858267716535434
          },
          {
            "number": 7,
            "time": 149.33333333333331,
            "value": 0.33070866141732286
          },
          {
            "number": 7,
            "time": 149.39999999999998,
            "value": 0.31496062992125984
          },
          {
            "number": 7,
            "time": 149.4333333333333,
            "value": 0.30708661417322836
          },
          {
            "number": 7,
            "time": 149.46666666666664,
            "value": 0.2992125984251969
          },
          {
            "number": 7,
            "time": 149.49999999999997,
            "value": 0.28346456692913385
          },
          {
            "number": 7,
            "time": 149.56666666666663,
            "value": 0.2755905511811024
          },
          {
            "number": 7,
            "time": 149.59999999999997,
            "value": 0.25196850393700787
          },
          {
            "number": 7,
            "time": 149.6333333333333,
            "value": 0.2283464566929134
          },
          {
            "number": 7,
            "time": 149.69999999999996,
            "value": 0.2047244094488189
          },
          {
            "number": 7,
            "time": 149.7333333333333,
            "value": 0.2125984251968504
          },
          {
            "number": 7,
            "time": 149.76666666666662,
            "value": 0.2047244094488189
          },
          {
            "number": 7,
            "time": 149.79999999999998,
            "value": 0.18110236220472442
          },
          {
            "number": 7,
            "time": 149.86666666666665,
            "value": 0.1732283464566929
          },
          {
            "number": 7,
            "time": 149.89999999999998,
            "value": 0.15748031496062992
          },
          {
            "number": 7,
            "time": 149.9333333333333,
            "value": 0.14960629921259844
          },
          {
            "number": 7,
            "time": 149.96666666666664,
            "value": 0.13385826771653545
          },
          {
            "number": 7,
            "time": 149.99999999999997,
            "value": 0.12598425196850394
          },
          {
            "number": 7,
            "time": 150.0333333333333,
            "value": 0.11023622047244094
          },
          {
            "number": 7,
            "time": 150.09999999999997,
            "value": 0.5826771653543307
          }
        ],
        "10": [
          {
            "number": 10,
            "time": 0,
            "value": 0.5039370078740157
          }
        ],
        "91": [
          {
            "number": 91,
            "time": 0,
            "value": 0.31496062992125984
          }
        ],
        "93": [
          {
            "number": 93,
            "time": 0,
            "value": 0
          }
        ]
      },
      "id": 9,
      "name": "10",
      "instrumentNumber": 27,
      "instrumentFamily": "drums",
      "channelNumber": 10,
      "isPercussion": true
    },
    {
      "startTime": 182,
      "duration": 205.71666666666667,
      "length": 48,
      "notes": [
        {
          "name": "D4",
          "midi": 62,
          "time": 182,
          "velocity": 0.8346456692913385,
          "duration": 0.3333333333333428
        },
        {
          "name": "D4",
          "midi": 62,
          "time": 182.75,
          "velocity": 0.8346456692913385,
          "duration": 0.11666666666667425
        },
        {
          "name": "D4",
          "midi": 62,
          "time": 183,
          "velocity": 0.8346456692913385,
          "duration": 0.3333333333333428
        },
        {
          "name": "C4",
          "midi": 60,
          "time": 183.5,
          "velocity": 0.8346456692913385,
          "duration": 0.26666666666667993
        },
        {
          "name": "D4",
          "midi": 62,
          "time": 184,
          "velocity": 0.8346456692913385,
          "duration": 0.30000000000001137
        },
        {
          "name": "D4",
          "midi": 62,
          "time": 184.75,
          "velocity": 0.8346456692913385,
          "duration": 0.11666666666667425
        },
        {
          "name": "D4",
          "midi": 62,
          "time": 185,
          "velocity": 0.8346456692913385,
          "duration": 0.30000000000001137
        },
        {
          "name": "D#4",
          "midi": 63,
          "time": 185.5,
          "velocity": 0.8346456692913385,
          "duration": 0.30000000000001137
        },
        {
          "name": "C4",
          "midi": 60,
          "time": 186,
          "velocity": 0.8346456692913385,
          "duration": 0.30000000000001137
        },
        {
          "name": "C4",
          "midi": 60,
          "time": 186.75,
          "velocity": 0.8346456692913385,
          "duration": 0.11666666666667425
        },
        {
          "name": "C4",
          "midi": 60,
          "time": 187,
          "velocity": 0.8346456692913385,
          "duration": 0.30000000000001137
        },
        {
          "name": "A#3",
          "midi": 58,
          "time": 187.5,
          "velocity": 0.8346456692913385,
          "duration": 0.30000000000001137
        },
        {
          "name": "C4",
          "midi": 60,
          "time": 188,
          "velocity": 0.8346456692913385,
          "duration": 0.30000000000001137
        },
        {
          "name": "C4",
          "midi": 60,
          "time": 188.75,
          "velocity": 0.8346456692913385,
          "duration": 0.13333333333332575
        },
        {
          "name": "C4",
          "midi": 60,
          "time": 189,
          "velocity": 0.8346456692913385,
          "duration": 0.30000000000001137
        },
        {
          "name": "D4",
          "midi": 62,
          "time": 189.5,
          "velocity": 0.8346456692913385,
          "duration": 0.30000000000001137
        },
        {
          "name": "A#3",
          "midi": 58,
          "time": 190,
          "velocity": 0.8346456692913385,
          "duration": 0.3333333333333428
        },
        {
          "name": "D4",
          "midi": 62,
          "time": 191,
          "velocity": 0.8346456692913385,
          "duration": 0.3333333333333428
        },
        {
          "name": "C4",
          "midi": 60,
          "time": 191.5,
          "velocity": 0.8346456692913385,
          "duration": 0.3166666666666629
        },
        {
          "name": "D4",
          "midi": 62,
          "time": 192,
          "velocity": 0.8346456692913385,
          "duration": 0.30000000000001137
        },
        {
          "name": "D4",
          "midi": 62,
          "time": 192.75,
          "velocity": 0.8346456692913385,
          "duration": 0.11666666666667425
        },
        {
          "name": "D4",
          "midi": 62,
          "time": 193,
          "velocity": 0.8346456692913385,
          "duration": 0.30000000000001137
        },
        {
          "name": "D#4",
          "midi": 63,
          "time": 193.5,
          "velocity": 0.8346456692913385,
          "duration": 0.30000000000001137
        },
        {
          "name": "C4",
          "midi": 60,
          "time": 194,
          "velocity": 0.8346456692913385,
          "duration": 0.30000000000001137
        },
        {
          "name": "C4",
          "midi": 60,
          "time": 194.75,
          "velocity": 0.8346456692913385,
          "duration": 0.11666666666667425
        },
        {
          "name": "C4",
          "midi": 60,
          "time": 195,
          "velocity": 0.8346456692913385,
          "duration": 0.30000000000001137
        },
        {
          "name": "A#3",
          "midi": 58,
          "time": 195.5,
          "velocity": 0.8346456692913385,
          "duration": 0.30000000000001137
        },
        {
          "name": "C4",
          "midi": 60,
          "time": 196,
          "velocity": 0.8346456692913385,
          "duration": 0.30000000000001137
        },
        {
          "name": "C4",
          "midi": 60,
          "time": 196.75,
          "velocity": 0.8346456692913385,
          "duration": 0.13333333333332575
        },
        {
          "name": "C4",
          "midi": 60,
          "time": 197,
          "velocity": 0.8346456692913385,
          "duration": 0.30000000000001137
        },
        {
          "name": "D4",
          "midi": 62,
          "time": 197.5,
          "velocity": 0.8346456692913385,
          "duration": 0.30000000000001137
        },
        {
          "name": "G3",
          "midi": 55,
          "time": 198,
          "velocity": 0.8346456692913385,
          "duration": 0.3333333333333428
        },
        {
          "name": "D4",
          "midi": 62,
          "time": 199,
          "velocity": 0.8346456692913385,
          "duration": 0.3333333333333428
        },
        {
          "name": "C4",
          "midi": 60,
          "time": 199.5,
          "velocity": 0.8346456692913385,
          "duration": 0.26666666666667993
        },
        {
          "name": "D4",
          "midi": 62,
          "time": 200,
          "velocity": 0.8346456692913385,
          "duration": 0.30000000000001137
        },
        {
          "name": "D4",
          "midi": 62,
          "time": 200.75,
          "velocity": 0.8346456692913385,
          "duration": 0.11666666666667425
        },
        {
          "name": "D4",
          "midi": 62,
          "time": 201,
          "velocity": 0.8346456692913385,
          "duration": 0.30000000000001137
        },
        {
          "name": "D#4",
          "midi": 63,
          "time": 201.5,
          "velocity": 0.8346456692913385,
          "duration": 0.30000000000001137
        },
        {
          "name": "C4",
          "midi": 60,
          "time": 202,
          "velocity": 0.8346456692913385,
          "duration": 0.30000000000001137
        },
        {
          "name": "C4",
          "midi": 60,
          "time": 202.5,
          "velocity": 0.8346456692913385,
          "duration": 0.13333333333332575
        },
        {
          "name": "A#3",
          "midi": 58,
          "time": 202.75,
          "velocity": 0.8346456692913385,
          "duration": 0.1666666666666572
        },
        {
          "name": "C4",
          "midi": 60,
          "time": 203,
          "velocity": 0.8346456692913385,
          "duration": 0.30000000000001137
        },
        {
          "name": "A#3",
          "midi": 58,
          "time": 203.5,
          "velocity": 0.8346456692913385,
          "duration": 0.30000000000001137
        },
        {
          "name": "C4",
          "midi": 60,
          "time": 204,
          "velocity": 0.8346456692913385,
          "duration": 0.30000000000001137
        },
        {
          "name": "C4",
          "midi": 60,
          "time": 204.5,
          "velocity": 0.8346456692913385,
          "duration": 0.13333333333332575
        },
        {
          "name": "A#3",
          "midi": 58,
          "time": 204.75,
          "velocity": 0.8346456692913385,
          "duration": 0.13333333333332575
        },
        {
          "name": "C4",
          "midi": 60,
          "time": 205,
          "velocity": 0.8346456692913385,
          "duration": 0.25
        },
        {
          "name": "D4",
          "midi": 62,
          "time": 205.5,
          "velocity": 0.8346456692913385,
          "duration": 0.21666666666666856
        }
      ],
      "controlChanges": {
        "7": [
          {
            "number": 7,
            "time": 0,
            "value": 0.7007874015748031
          }
        ],
        "10": [
          {
            "number": 10,
            "time": 0,
            "value": 0.5039370078740157
          }
        ],
        "91": [
          {
            "number": 91,
            "time": 0,
            "value": 0.31496062992125984
          }
        ],
        "93": [
          {
            "number": 93,
            "time": 0,
            "value": 0
          }
        ]
      },
      "id": 10,
      "name": "11",
      "instrumentNumber": 52,
      "instrument": "choir aahs",
      "instrumentFamily": "ensemble",
      "channelNumber": 11,
      "isPercussion": false
    },
    {
      "startTime": 129.25,
      "duration": 149.84999999999997,
      "length": 50,
      "notes": [
        {
          "name": "D4",
          "midi": 62,
          "time": 129.25,
          "velocity": 0.7716535433070866,
          "duration": 0.30000000000001137
        },
        {
          "name": "F4",
          "midi": 65,
          "time": 129.5,
          "velocity": 0.7637795275590551,
          "duration": 0.30000000000001137
        },
        {
          "name": "D4",
          "midi": 62,
          "time": 129.75,
          "velocity": 0.7716535433070866,
          "duration": 0.30000000000001137
        },
        {
          "name": "F4",
          "midi": 65,
          "time": 130,
          "velocity": 0.7637795275590551,
          "duration": 0.30000000000001137
        },
        {
          "name": "D4",
          "midi": 62,
          "time": 130.25,
          "velocity": 0.7637795275590551,
          "duration": 0.30000000000001137
        },
        {
          "name": "F4",
          "midi": 65,
          "time": 130.5,
          "velocity": 0.7637795275590551,
          "duration": 0.30000000000001137
        },
        {
          "name": "D4",
          "midi": 62,
          "time": 130.75,
          "velocity": 0.7637795275590551,
          "duration": 0.30000000000001137
        },
        {
          "name": "F4",
          "midi": 65,
          "time": 131,
          "velocity": 0.7637795275590551,
          "duration": 0.4333333333333371
        },
        {
          "name": "G4",
          "midi": 67,
          "time": 131.5,
          "velocity": 0.7716535433070866,
          "duration": 0.30000000000001137
        },
        {
          "name": "A#4",
          "midi": 70,
          "time": 132,
          "velocity": 0.7716535433070866,
          "duration": 1.26666666666668
        },
        {
          "name": "D4",
          "midi": 62,
          "time": 133.25,
          "velocity": 0.7716535433070866,
          "duration": 0.30000000000001137
        },
        {
          "name": "F4",
          "midi": 65,
          "time": 133.5,
          "velocity": 0.7716535433070866,
          "duration": 0.30000000000001137
        },
        {
          "name": "D4",
          "midi": 62,
          "time": 133.75,
          "velocity": 0.7716535433070866,
          "duration": 0.30000000000001137
        },
        {
          "name": "F4",
          "midi": 65,
          "time": 134,
          "velocity": 0.7637795275590551,
          "duration": 0.30000000000001137
        },
        {
          "name": "D4",
          "midi": 62,
          "time": 134.25,
          "velocity": 0.7637795275590551,
          "duration": 0.30000000000001137
        },
        {
          "name": "F4",
          "midi": 65,
          "time": 134.5,
          "velocity": 0.7716535433070866,
          "duration": 0.30000000000001137
        },
        {
          "name": "D4",
          "midi": 62,
          "time": 134.75,
          "velocity": 0.7716535433070866,
          "duration": 0.30000000000001137
        },
        {
          "name": "F4",
          "midi": 65,
          "time": 135,
          "velocity": 0.7716535433070866,
          "duration": 0.45000000000001705
        },
        {
          "name": "G4",
          "midi": 67,
          "time": 135.50000000000003,
          "velocity": 0.7716535433070866,
          "duration": 0.44999999999998863
        },
        {
          "name": "A4",
          "midi": 69,
          "time": 136.00000000000003,
          "velocity": 0.7716535433070866,
          "duration": 0.4333333333333371
        },
        {
          "name": "G4",
          "midi": 67,
          "time": 136.50000000000003,
          "velocity": 0.7716535433070866,
          "duration": 0.4333333333333371
        },
        {
          "name": "F4",
          "midi": 65,
          "time": 137.00000000000003,
          "velocity": 0.7716535433070866,
          "duration": 0.30000000000001137
        },
        {
          "name": "D4",
          "midi": 62,
          "time": 137.25000000000003,
          "velocity": 0.7716535433070866,
          "duration": 0.30000000000001137
        },
        {
          "name": "F4",
          "midi": 65,
          "time": 137.50000000000003,
          "velocity": 0.7637795275590551,
          "duration": 0.30000000000001137
        },
        {
          "name": "D4",
          "midi": 62,
          "time": 137.75000000000003,
          "velocity": 0.7559055118110236,
          "duration": 0.30000000000001137
        },
        {
          "name": "F4",
          "midi": 65,
          "time": 138.00000000000003,
          "velocity": 0.7559055118110236,
          "duration": 0.30000000000001137
        },
        {
          "name": "D4",
          "midi": 62,
          "time": 138.25000000000003,
          "velocity": 0.7559055118110236,
          "duration": 0.30000000000001137
        },
        {
          "name": "F4",
          "midi": 65,
          "time": 138.50000000000003,
          "velocity": 0.7559055118110236,
          "duration": 0.30000000000001137
        },
        {
          "name": "D4",
          "midi": 62,
          "time": 138.75000000000003,
          "velocity": 0.7559055118110236,
          "duration": 0.30000000000001137
        },
        {
          "name": "F4",
          "midi": 65,
          "time": 139.00000000000003,
          "velocity": 0.7559055118110236,
          "duration": 0.4000000000000057
        },
        {
          "name": "G4",
          "midi": 67,
          "time": 139.50000000000003,
          "velocity": 0.7559055118110236,
          "duration": 0.46666666666666856
        },
        {
          "name": "A#4",
          "midi": 70,
          "time": 140.00000000000003,
          "velocity": 0.7559055118110236,
          "duration": 1.3833333333333258
        },
        {
          "name": "D4",
          "midi": 62,
          "time": 141.25000000000003,
          "velocity": 0.7559055118110236,
          "duration": 0.30000000000001137
        },
        {
          "name": "F4",
          "midi": 65,
          "time": 141.50000000000003,
          "velocity": 0.7559055118110236,
          "duration": 0.30000000000001137
        },
        {
          "name": "D4",
          "midi": 62,
          "time": 141.75000000000003,
          "velocity": 0.7559055118110236,
          "duration": 0.30000000000001137
        },
        {
          "name": "F4",
          "midi": 65,
          "time": 142.00000000000003,
          "velocity": 0.7559055118110236,
          "duration": 0.30000000000001137
        },
        {
          "name": "D4",
          "midi": 62,
          "time": 142.25000000000003,
          "velocity": 0.7559055118110236,
          "duration": 0.30000000000001137
        },
        {
          "name": "F4",
          "midi": 65,
          "time": 142.50000000000003,
          "velocity": 0.7559055118110236,
          "duration": 0.30000000000001137
        },
        {
          "name": "D4",
          "midi": 62,
          "time": 142.75000000000003,
          "velocity": 0.7559055118110236,
          "duration": 0.30000000000001137
        },
        {
          "name": "F4",
          "midi": 65,
          "time": 143.00000000000003,
          "velocity": 0.7559055118110236,
          "duration": 0.30000000000001137
        },
        {
          "name": "G4",
          "midi": 67,
          "time": 143.50000000000003,
          "velocity": 0.7559055118110236,
          "duration": 0.4333333333333371
        },
        {
          "name": "A4",
          "midi": 69,
          "time": 144.00000000000003,
          "velocity": 0.7559055118110236,
          "duration": 0.4333333333333371
        },
        {
          "name": "G4",
          "midi": 67,
          "time": 144.50000000000003,
          "velocity": 0.7559055118110236,
          "duration": 0.4333333333333371
        },
        {
          "name": "F4",
          "midi": 65,
          "time": 145.00000000000003,
          "velocity": 0.7559055118110236,
          "duration": 0.4333333333333371
        },
        {
          "name": "G4",
          "midi": 67,
          "time": 145.50000000000003,
          "velocity": 0.7559055118110236,
          "duration": 0.4333333333333371
        },
        {
          "name": "A#4",
          "midi": 70,
          "time": 146.00000000000003,
          "velocity": 0.7559055118110236,
          "duration": 0.44999999999998863
        },
        {
          "name": "G4",
          "midi": 67,
          "time": 146.50000000000003,
          "velocity": 0.7559055118110236,
          "duration": 0.4333333333333371
        },
        {
          "name": "F4",
          "midi": 65,
          "time": 147.00000000000003,
          "velocity": 0.7559055118110236,
          "duration": 0.4333333333333371
        },
        {
          "name": "G4",
          "midi": 67,
          "time": 147.50000000000003,
          "velocity": 0.7637795275590551,
          "duration": 0.4333333333333371
        },
        {
          "name": "G4",
          "midi": 67,
          "time": 148.00000000000003,
          "velocity": 0.7637795275590551,
          "duration": 1.8499999999999375
        }
      ],
      "controlChanges": {
        "7": [
          {
            "number": 7,
            "time": 0,
            "value": 0.6850393700787402
          },
          {
            "number": 7,
            "time": 148.50000000000003,
            "value": 0.6614173228346457
          },
          {
            "number": 7,
            "time": 148.53333333333336,
            "value": 0.6456692913385826
          },
          {
            "number": 7,
            "time": 148.5666666666667,
            "value": 0.6377952755905512
          },
          {
            "number": 7,
            "time": 148.60000000000002,
            "value": 0.6220472440944882
          },
          {
            "number": 7,
            "time": 148.63333333333335,
            "value": 0.6141732283464567
          },
          {
            "number": 7,
            "time": 148.70000000000002,
            "value": 0.5984251968503937
          },
          {
            "number": 7,
            "time": 148.73333333333335,
            "value": 0.5905511811023622
          },
          {
            "number": 7,
            "time": 148.76666666666668,
            "value": 0.5826771653543307
          },
          {
            "number": 7,
            "time": 148.8,
            "value": 0.5590551181102362
          },
          {
            "number": 7,
            "time": 148.86666666666667,
            "value": 0.5433070866141733
          },
          {
            "number": 7,
            "time": 148.9,
            "value": 0.5354330708661418
          },
          {
            "number": 7,
            "time": 148.93333333333334,
            "value": 0.5196850393700787
          },
          {
            "number": 7,
            "time": 149,
            "value": 0.5118110236220472
          },
          {
            "number": 7,
            "time": 149.03333333333333,
            "value": 0.5039370078740157
          },
          {
            "number": 7,
            "time": 149.06666666666666,
            "value": 0.4881889763779528
          },
          {
            "number": 7,
            "time": 149.1,
            "value": 0.48031496062992124
          },
          {
            "number": 7,
            "time": 149.13333333333333,
            "value": 0.4645669291338583
          },
          {
            "number": 7,
            "time": 149.16666666666666,
            "value": 0.4566929133858268
          },
          {
            "number": 7,
            "time": 149.2,
            "value": 0.4409448818897638
          },
          {
            "number": 7,
            "time": 149.26666666666665,
            "value": 0.41732283464566927
          },
          {
            "number": 7,
            "time": 149.33333333333331,
            "value": 0.4094488188976378
          },
          {
            "number": 7,
            "time": 149.36666666666665,
            "value": 0.3858267716535433
          },
          {
            "number": 7,
            "time": 149.4333333333333,
            "value": 0.3779527559055118
          },
          {
            "number": 7,
            "time": 149.46666666666664,
            "value": 0.3543307086614173
          },
          {
            "number": 7,
            "time": 149.5333333333333,
            "value": 0.33858267716535434
          },
          {
            "number": 7,
            "time": 149.56666666666663,
            "value": 0.33070866141732286
          },
          {
            "number": 7,
            "time": 149.59999999999997,
            "value": 0.31496062992125984
          },
          {
            "number": 7,
            "time": 149.66666666666663,
            "value": 0.28346456692913385
          },
          {
            "number": 7,
            "time": 149.7333333333333,
            "value": 0.2755905511811024
          },
          {
            "number": 7,
            "time": 149.76666666666662,
            "value": 0.25196850393700787
          },
          {
            "number": 7,
            "time": 149.79999999999995,
            "value": 0.2283464566929134
          },
          {
            "number": 7,
            "time": 149.89999999999998,
            "value": 0.2125984251968504
          },
          {
            "number": 7,
            "time": 149.9333333333333,
            "value": 0.2047244094488189
          },
          {
            "number": 7,
            "time": 149.96666666666664,
            "value": 0.18110236220472442
          },
          {
            "number": 7,
            "time": 150.0333333333333,
            "value": 0.6850393700787402
          }
        ],
        "10": [
          {
            "number": 10,
            "time": 0,
            "value": 0.5039370078740157
          }
        ],
        "91": [
          {
            "number": 91,
            "time": 0,
            "value": 0.31496062992125984
          }
        ],
        "93": [
          {
            "number": 93,
            "time": 0,
            "value": 0
          }
        ]
      },
      "id": 11,
      "name": "12",
      "instrumentNumber": 30,
      "instrument": "distortion guitar",
      "instrumentFamily": "guitar",
      "channelNumber": 13,
      "isPercussion": false
    }
  ]
}
