{ "notes": [
		{
			"name": "G4",
			"midi": 67,
			"time": 8,
			"velocity": 0.8346456692913385,
			"duration": 0.2833333333333332
		},
		{
			"name": "D5",
			"midi": 74,
			"time": 8.25,
			"velocity": 0.8346456692913385,
			"duration": 0.31666666666666643
		},
		{
			"name": "G4",
			"midi": 67,
			"time": 8.5,
			"velocity": 0.8346456692913385,
			"duration": 0.2833333333333332
		},
		{
			"name": "D5",
			"midi": 74,
			"time": 8.75,
			"velocity": 0.8346456692913385,
			"duration": 0.3000000000000007
		},
		{
			"name": "D#5",
			"midi": 75,
			"time": 9,
			"velocity": 0.8346456692913385,
			"duration": 0.31666666666666643
		},
		{
			"name": "D5",
			"midi": 74,
			"time": 9.25,
			"velocity": 0.8346456692913385,
			"duration": 0.3333333333333339
		},
		{
			"name": "G4",
			"midi": 67,
			"time": 9.5,
			"velocity": 0.8346456692913385,
			"duration": 0.3000000000000007
		},
		{
			"name": "D5",
			"midi": 74,
			"time": 9.75,
			"velocity": 0.8346456692913385,
			"duration": 0.36666666666666714
		},
		{
			"name": "G4",
			"midi": 67,
			"time": 10,
			"velocity": 0.8346456692913385,
			"duration": 0.2833333333333332
		},
		{
			"name": "D5",
			"midi": 74,
			"time": 10.25,
			"velocity": 0.8346456692913385,
			"duration": 0.31666666666666643
		},
		{
			"name": "G4",
			"midi": 67,
			"time": 10.5,
			"velocity": 0.8346456692913385,
			"duration": 0.2833333333333332
		},
		{
			"name": "D5",
			"midi": 74,
			"time": 10.75,
			"velocity": 0.8346456692913385,
			"duration": 0.3000000000000007
		},
		{
			"name": "D#5",
			"midi": 75,
			"time": 11,
			"velocity": 0.8346456692913385,
			"duration": 0.31666666666666643
		},
		{
			"name": "D5",
			"midi": 74,
			"time": 11.25,
			"velocity": 0.8346456692913385,
			"duration": 0.3333333333333339
		},
		{
			"name": "G4",
			"midi": 67,
			"time": 11.5,
			"velocity": 0.8346456692913385,
			"duration": 0.3000000000000007
		},
		{
			"name": "D5",
			"midi": 74,
			"time": 11.75,
			"velocity": 0.8346456692913385,
			"duration": 0.34999999999999964
		},
		{
			"name": "G4",
			"midi": 67,
			"time": 12,
			"velocity": 0.8346456692913385,
			"duration": 0.2833333333333332
		},
		{
			"name": "D5",
			"midi": 74,
			"time": 12.25,
			"velocity": 0.8346456692913385,
			"duration": 0.31666666666666643
		},
		{
			"name": "G4",
			"midi": 67,
			"time": 12.5,
			"velocity": 0.8346456692913385,
			"duration": 0.2833333333333332
		},
		{
			"name": "D5",
			"midi": 74,
			"time": 12.75,
			"velocity": 0.8346456692913385,
			"duration": 0.3000000000000007
		},
		{
			"name": "D#5",
			"midi": 75,
			"time": 13,
			"velocity": 0.8346456692913385,
			"duration": 0.31666666666666643
		},
		{
			"name": "D5",
			"midi": 74,
			"time": 13.25,
			"velocity": 0.8346456692913385,
			"duration": 0.3333333333333339
		},
		{
			"name": "G4",
			"midi": 67,
			"time": 13.5,
			"velocity": 0.8346456692913385,
			"duration": 0.3000000000000007
		},
		{
			"name": "D5",
			"midi": 74,
			"time": 13.75,
			"velocity": 0.8346456692913385,
			"duration": 0.31666666666666643
		},
		{
			"name": "G4",
			"midi": 67,
			"time": 14,
			"velocity": 0.8346456692913385,
			"duration": 0.2833333333333332
		},
		{
			"name": "D5",
			"midi": 74,
			"time": 14.25,
			"velocity": 0.8346456692913385,
			"duration": 0.31666666666666643
		},
		{
			"name": "G4",
			"midi": 67,
			"time": 14.5,
			"velocity": 0.8346456692913385,
			"duration": 0.2833333333333332
		},
		{
			"name": "D5",
			"midi": 74,
			"time": 14.75,
			"velocity": 0.8346456692913385,
			"duration": 0.3000000000000007
		},
		{
			"name": "D#5",
			"midi": 75,
			"time": 15,
			"velocity": 0.8346456692913385,
			"duration": 0.31666666666666643
		},
		{
			"name": "D5",
			"midi": 74,
			"time": 15.25,
			"velocity": 0.8346456692913385,
			"duration": 0.3333333333333339
		},
		{
			"name": "G4",
			"midi": 67,
			"time": 15.5,
			"velocity": 0.8346456692913385,
			"duration": 0.3000000000000007
		},
		{
			"name": "D5",
			"midi": 74,
			"time": 15.75,
			"velocity": 0.8346456692913385,
			"duration": 0.31666666666666643
		},
		{
			"name": "G4",
			"midi": 67,
			"time": 16,
			"velocity": 0.8346456692913385,
			"duration": 0.283333333333335
		},
		{
			"name": "D5",
			"midi": 74,
			"time": 16.25,
			"velocity": 0.8346456692913385,
			"duration": 0.31666666666666643
		},
		{
			"name": "G4",
			"midi": 67,
			"time": 16.5,
			"velocity": 0.8346456692913385,
			"duration": 0.283333333333335
		},
		{
			"name": "D5",
			"midi": 74,
			"time": 16.75,
			"velocity": 0.8346456692913385,
			"duration": 0.3000000000000007
		},
		{
			"name": "D#5",
			"midi": 75,
			"time": 17,
			"velocity": 0.8346456692913385,
			"duration": 0.31666666666666643
		},
		{
			"name": "D5",
			"midi": 74,
			"time": 17.25,
			"velocity": 0.8346456692913385,
			"duration": 0.33333333333333215
		},
		{
			"name": "G4",
			"midi": 67,
			"time": 17.5,
			"velocity": 0.8346456692913385,
			"duration": 0.3000000000000007
		},
		{
			"name": "D5",
			"midi": 74,
			"time": 17.75,
			"velocity": 0.8346456692913385,
			"duration": 0.31666666666666643
		},
		{
			"name": "G4",
			"midi": 67,
			"time": 18,
			"velocity": 0.8346456692913385,
			"duration": 0.283333333333335
		},
		{
			"name": "D5",
			"midi": 74,
			"time": 18.25,
			"velocity": 0.8346456692913385,
			"duration": 0.31666666666666643
		},
		{
			"name": "G4",
			"midi": 67,
			"time": 18.5,
			"velocity": 0.8346456692913385,
			"duration": 0.283333333333335
		},
		{
			"name": "D5",
			"midi": 74,
			"time": 18.75,
			"velocity": 0.8346456692913385,
			"duration": 0.3000000000000007
		},
		{
			"name": "D#5",
			"midi": 75,
			"time": 19,
			"velocity": 0.8346456692913385,
			"duration": 0.31666666666666643
		},
		{
			"name": "D5",
			"midi": 74,
			"time": 19.25,
			"velocity": 0.8346456692913385,
			"duration": 0.33333333333333215
		},
		{
			"name": "G4",
			"midi": 67,
			"time": 19.5,
			"velocity": 0.8346456692913385,
			"duration": 0.3000000000000007
		},
		{
			"name": "D5",
			"midi": 74,
			"time": 19.75,
			"velocity": 0.8346456692913385,
			"duration": 0.31666666666666643
		},
		{
			"name": "G4",
			"midi": 67,
			"time": 20,
			"velocity": 0.8346456692913385,
			"duration": 0.283333333333335
		},
		{
			"name": "D5",
			"midi": 74,
			"time": 20.25,
			"velocity": 0.8346456692913385,
			"duration": 0.31666666666666643
		},
		{
			"name": "G4",
			"midi": 67,
			"time": 20.5,
			"velocity": 0.8346456692913385,
			"duration": 0.283333333333335
		},
		{
			"name": "D5",
			"midi": 74,
			"time": 20.75,
			"velocity": 0.8346456692913385,
			"duration": 0.3000000000000007
		},
		{
			"name": "D#5",
			"midi": 75,
			"time": 21,
			"velocity": 0.8346456692913385,
			"duration": 0.31666666666666643
		},
		{
			"name": "D5",
			"midi": 74,
			"time": 21.25,
			"velocity": 0.8346456692913385,
			"duration": 0.33333333333333215
		},
		{
			"name": "G4",
			"midi": 67,
			"time": 21.5,
			"velocity": 0.8346456692913385,
			"duration": 0.3000000000000007
		},
		{
			"name": "D5",
			"midi": 74,
			"time": 21.75,
			"velocity": 0.8346456692913385,
			"duration": 0.31666666666666643
		},
		{
			"name": "G4",
			"midi": 67,
			"time": 22,
			"velocity": 0.8346456692913385,
			"duration": 0.283333333333335
		},
		{
			"name": "D5",
			"midi": 74,
			"time": 22.25,
			"velocity": 0.8346456692913385,
			"duration": 0.31666666666666643
		},
		{
			"name": "G4",
			"midi": 67,
			"time": 22.5,
			"velocity": 0.8346456692913385,
			"duration": 0.283333333333335
		},
		{
			"name": "D5",
			"midi": 74,
			"time": 22.75,
			"velocity": 0.8346456692913385,
			"duration": 0.3000000000000007
		},
		{
			"name": "D#5",
			"midi": 75,
			"time": 23,
			"velocity": 0.8346456692913385,
			"duration": 0.31666666666666643
		},
		{
			"name": "D5",
			"midi": 74,
			"time": 23.25,
			"velocity": 0.8346456692913385,
			"duration": 0.33333333333333215
		},
		{
			"name": "G4",
			"midi": 67,
			"time": 23.5,
			"velocity": 0.8346456692913385,
			"duration": 0.3000000000000007
		},
		{
			"name": "D5",
			"midi": 74,
			"time": 23.75,
			"velocity": 0.8346456692913385,
			"duration": 0.31666666666666643
		},
		{
			"name": "G4",
			"midi": 67,
			"time": 24,
			"velocity": 0.8346456692913385,
			"duration": 0.283333333333335
		},
		{
			"name": "D5",
			"midi": 74,
			"time": 24.25,
			"velocity": 0.8346456692913385,
			"duration": 0.31666666666666643
		},
		{
			"name": "G4",
			"midi": 67,
			"time": 24.5,
			"velocity": 0.8346456692913385,
			"duration": 0.283333333333335
		},
		{
			"name": "D5",
			"midi": 74,
			"time": 24.75,
			"velocity": 0.8346456692913385,
			"duration": 0.3000000000000007
		},
		{
			"name": "D#5",
			"midi": 75,
			"time": 25,
			"velocity": 0.8346456692913385,
			"duration": 0.31666666666666643
		},
		{
			"name": "D5",
			"midi": 74,
			"time": 25.25,
			"velocity": 0.8346456692913385,
			"duration": 0.33333333333333215
		},
		{
			"name": "G4",
			"midi": 67,
			"time": 25.5,
			"velocity": 0.8346456692913385,
			"duration": 0.3000000000000007
		},
		{
			"name": "D5",
			"midi": 74,
			"time": 25.75,
			"velocity": 0.8346456692913385,
			"duration": 0.31666666666666643
		},
		{
			"name": "G4",
			"midi": 67,
			"time": 26,
			"velocity": 0.8346456692913385,
			"duration": 0.283333333333335
		},
		{
			"name": "D5",
			"midi": 74,
			"time": 26.25,
			"velocity": 0.8346456692913385,
			"duration": 0.31666666666666643
		},
		{
			"name": "G4",
			"midi": 67,
			"time": 26.5,
			"velocity": 0.8346456692913385,
			"duration": 0.283333333333335
		},
		{
			"name": "D5",
			"midi": 74,
			"time": 26.75,
			"velocity": 0.8346456692913385,
			"duration": 0.3000000000000007
		},
		{
			"name": "D#5",
			"midi": 75,
			"time": 27,
			"velocity": 0.8346456692913385,
			"duration": 0.31666666666666643
		},
		{
			"name": "D5",
			"midi": 74,
			"time": 27.25,
			"velocity": 0.8346456692913385,
			"duration": 0.33333333333333215
		},
		{
			"name": "G4",
			"midi": 67,
			"time": 27.5,
			"velocity": 0.8346456692913385,
			"duration": 0.3000000000000007
		},
		{
			"name": "D5",
			"midi": 74,
			"time": 27.75,
			"velocity": 0.8346456692913385,
			"duration": 0.21666666666666856
		},
		{
			"name": "G4",
			"midi": 67,
			"time": 28.000000000000004,
			"velocity": 0.6929133858267716,
			"duration": 0.283333333333335
		},
		{
			"name": "D5",
			"midi": 74,
			"time": 28.250000000000004,
			"velocity": 0.6929133858267716,
			"duration": 0.31666666666666643
		},
		{
			"name": "G4",
			"midi": 67,
			"time": 28.500000000000004,
			"velocity": 0.6929133858267716,
			"duration": 0.283333333333335
		},
		{
			"name": "D5",
			"midi": 74,
			"time": 28.750000000000004,
			"velocity": 0.6929133858267716,
			"duration": 0.3000000000000007
		},
		{
			"name": "D#5",
			"midi": 75,
			"time": 29.000000000000004,
			"velocity": 0.6929133858267716,
			"duration": 0.31666666666666643
		},
		{
			"name": "D5",
			"midi": 74,
			"time": 29.250000000000004,
			"velocity": 0.6929133858267716,
			"duration": 0.33333333333333215
		},
		{
			"name": "G4",
			"midi": 67,
			"time": 29.500000000000004,
			"velocity": 0.6929133858267716,
			"duration": 0.3000000000000007
		},
		{
			"name": "D5",
			"midi": 74,
			"time": 29.750000000000004,
			"velocity": 0.6929133858267716,
			"duration": 0.31666666666666643
		},
		{
			"name": "G4",
			"midi": 67,
			"time": 30.000000000000004,
			"velocity": 0.6929133858267716,
			"duration": 0.283333333333335
		},
		{
			"name": "D5",
			"midi": 74,
			"time": 30.250000000000004,
			"velocity": 0.7007874015748031,
			"duration": 0.31666666666666643
		},
		{
			"name": "G4",
			"midi": 67,
			"time": 30.500000000000004,
			"velocity": 0.7007874015748031,
			"duration": 0.283333333333335
		},
		{
			"name": "D5",
			"midi": 74,
			"time": 30.750000000000004,
			"velocity": 0.7007874015748031,
			"duration": 0.3000000000000007
		},
		{
			"name": "D#5",
			"midi": 75,
			"time": 31.000000000000004,
			"velocity": 0.6929133858267716,
			"duration": 0.31666666666666643
		},
		{
			"name": "D5",
			"midi": 74,
			"time": 31.250000000000004,
			"velocity": 0.6929133858267716,
			"duration": 0.33333333333333215
		},
		{
			"name": "G4",
			"midi": 67,
			"time": 31.500000000000004,
			"velocity": 0.6929133858267716,
			"duration": 0.3000000000000007
		},
		{
			"name": "D5",
			"midi": 74,
			"time": 31.750000000000004,
			"velocity": 0.6929133858267716,
			"duration": 0.31666666666667354
		},
		{
			"name": "G4",
			"midi": 67,
			"time": 32.00000000000001,
			"velocity": 0.6929133858267716,
			"duration": 0.28333333333333144
		},
		{
			"name": "D5",
			"midi": 74,
			"time": 32.25000000000001,
			"velocity": 0.6929133858267716,
			"duration": 0.31666666666667
		},
		{
			"name": "G4",
			"midi": 67,
			"time": 32.50000000000001,
			"velocity": 0.6929133858267716,
			"duration": 0.28333333333333144
		},
		{
			"name": "D5",
			"midi": 74,
			"time": 32.75000000000001,
			"velocity": 0.6929133858267716,
			"duration": 0.29999999999999716
		},
		{
			"name": "D#5",
			"midi": 75,
			"time": 33.00000000000001,
			"velocity": 0.6929133858267716,
			"duration": 0.31666666666667
		},
		{
			"name": "D5",
			"midi": 74,
			"time": 33.25000000000001,
			"velocity": 0.6929133858267716,
			"duration": 0.3333333333333357
		},
		{
			"name": "G4",
			"midi": 67,
			"time": 33.50000000000001,
			"velocity": 0.6929133858267716,
			"duration": 0.29999999999999716
		},
		{
			"name": "D5",
			"midi": 74,
			"time": 33.75000000000001,
			"velocity": 0.7007874015748031,
			"duration": 0.31666666666667
		},
		{
			"name": "G4",
			"midi": 67,
			"time": 34.00000000000001,
			"velocity": 0.6929133858267716,
			"duration": 0.28333333333333144
		},
		{
			"name": "D5",
			"midi": 74,
			"time": 34.25000000000001,
			"velocity": 0.6929133858267716,
			"duration": 0.31666666666667
		},
		{
			"name": "G4",
			"midi": 67,
			"time": 34.50000000000001,
			"velocity": 0.6929133858267716,
			"duration": 0.28333333333333144
		},
		{
			"name": "D5",
			"midi": 74,
			"time": 34.75000000000001,
			"velocity": 0.6929133858267716,
			"duration": 0.29999999999999716
		},
		{
			"name": "D#5",
			"midi": 75,
			"time": 35.00000000000001,
			"velocity": 0.6929133858267716,
			"duration": 0.31666666666667
		},
		{
			"name": "D5",
			"midi": 74,
			"time": 35.25000000000001,
			"velocity": 0.7007874015748031,
			"duration": 0.3333333333333357
		},
		{
			"name": "G4",
			"midi": 67,
			"time": 35.50000000000001,
			"velocity": 0.7007874015748031,
			"duration": 0.29999999999999716
		},
		{
			"name": "D5",
			"midi": 74,
			"time": 35.75000000000001,
			"velocity": 0.7007874015748031,
			"duration": 0.31666666666667
		},
		{
			"name": "G4",
			"midi": 67,
			"time": 36.00000000000001,
			"velocity": 0.7007874015748031,
			"duration": 0.28333333333333144
		},
		{
			"name": "D5",
			"midi": 74,
			"time": 36.25000000000001,
			"velocity": 0.6929133858267716,
			"duration": 0.31666666666667
		},
		{
			"name": "G4",
			"midi": 67,
			"time": 36.50000000000001,
			"velocity": 0.6929133858267716,
			"duration": 0.28333333333333144
		},
		{
			"name": "D5",
			"midi": 74,
			"time": 36.75000000000001,
			"velocity": 0.6929133858267716,
			"duration": 0.29999999999999716
		},
		{
			"name": "D#5",
			"midi": 75,
			"time": 37.00000000000001,
			"velocity": 0.6929133858267716,
			"duration": 0.31666666666667
		},
		{
			"name": "D5",
			"midi": 74,
			"time": 37.25000000000001,
			"velocity": 0.6929133858267716,
			"duration": 0.3333333333333357
		},
		{
			"name": "G4",
			"midi": 67,
			"time": 37.50000000000001,
			"velocity": 0.7007874015748031,
			"duration": 0.29999999999999716
		},
		{
			"name": "D5",
			"midi": 74,
			"time": 37.75000000000001,
			"velocity": 0.7007874015748031,
			"duration": 0.31666666666667
		},
		{
			"name": "G4",
			"midi": 67,
			"time": 38.00000000000001,
			"velocity": 0.7007874015748031,
			"duration": 0.28333333333333144
		},
		{
			"name": "D5",
			"midi": 74,
			"time": 38.25000000000001,
			"velocity": 0.6929133858267716,
			"duration": 0.31666666666667
		},
		{
			"name": "G4",
			"midi": 67,
			"time": 38.50000000000001,
			"velocity": 0.6929133858267716,
			"duration": 0.28333333333333144
		},
		{
			"name": "D5",
			"midi": 74,
			"time": 38.75000000000001,
			"velocity": 0.6929133858267716,
			"duration": 0.29999999999999716
		},
		{
			"name": "D#5",
			"midi": 75,
			"time": 39.00000000000001,
			"velocity": 0.6929133858267716,
			"duration": 0.31666666666667
		},
		{
			"name": "D5",
			"midi": 74,
			"time": 39.25000000000001,
			"velocity": 0.7007874015748031,
			"duration": 0.3333333333333357
		},
		{
			"name": "G4",
			"midi": 67,
			"time": 39.50000000000001,
			"velocity": 0.7007874015748031,
			"duration": 0.29999999999999716
		},
		{
			"name": "D5",
			"midi": 74,
			"time": 39.75000000000001,
			"velocity": 0.6929133858267716,
			"duration": 0.31666666666667
		},
		{
			"name": "G4",
			"midi": 67,
			"time": 40.00000000000001,
			"velocity": 0.6929133858267716,
			"duration": 0.28333333333333144
		},
		{
			"name": "D5",
			"midi": 74,
			"time": 40.25000000000001,
			"velocity": 0.6929133858267716,
			"duration": 0.31666666666667
		},
		{
			"name": "G4",
			"midi": 67,
			"time": 40.50000000000001,
			"velocity": 0.6929133858267716,
			"duration": 0.28333333333333144
		},
		{
			"name": "D5",
			"midi": 74,
			"time": 40.75000000000001,
			"velocity": 0.6929133858267716,
			"duration": 0.29999999999999716
		},
		{
			"name": "D#5",
			"midi": 75,
			"time": 41.00000000000001,
			"velocity": 0.6929133858267716,
			"duration": 0.31666666666667
		},
		{
			"name": "D5",
			"midi": 74,
			"time": 41.25000000000001,
			"velocity": 0.6929133858267716,
			"duration": 0.3333333333333357
		},
		{
			"name": "G4",
			"midi": 67,
			"time": 41.50000000000001,
			"velocity": 0.6929133858267716,
			"duration": 0.29999999999999716
		},
		{
			"name": "D5",
			"midi": 74,
			"time": 41.75000000000001,
			"velocity": 0.6929133858267716,
			"duration": 0.31666666666667
		},
		{
			"name": "G4",
			"midi": 67,
			"time": 42.00000000000001,
			"velocity": 0.6929133858267716,
			"duration": 0.28333333333333144
		},
		{
			"name": "D5",
			"midi": 74,
			"time": 42.25000000000001,
			"velocity": 0.6929133858267716,
			"duration": 0.31666666666667
		},
		{
			"name": "G4",
			"midi": 67,
			"time": 42.50000000000001,
			"velocity": 0.6929133858267716,
			"duration": 0.28333333333333144
		},
		{
			"name": "D5",
			"midi": 74,
			"time": 42.75000000000001,
			"velocity": 0.6929133858267716,
			"duration": 0.29999999999999716
		},
		{
			"name": "D#5",
			"midi": 75,
			"time": 43.00000000000001,
			"velocity": 0.6929133858267716,
			"duration": 0.31666666666667
		},
		{
			"name": "D5",
			"midi": 74,
			"time": 43.25000000000001,
			"velocity": 0.6929133858267716,
			"duration": 0.3333333333333357
		},
		{
			"name": "G4",
			"midi": 67,
			"time": 43.50000000000001,
			"velocity": 0.6929133858267716,
			"duration": 0.29999999999999716
		},
		{
			"name": "D5",
			"midi": 74,
			"time": 43.75000000000001,
			"velocity": 0.7007874015748031,
			"duration": 0.31666666666667
		},
		{
			"name": "G4",
			"midi": 67,
			"time": 44.00000000000001,
			"velocity": 0.6929133858267716,
			"duration": 0.28333333333333144
		},
		{
			"name": "D5",
			"midi": 74,
			"time": 44.25000000000001,
			"velocity": 0.6929133858267716,
			"duration": 0.31666666666667
		},
		{
			"name": "G4",
			"midi": 67,
			"time": 44.50000000000001,
			"velocity": 0.6929133858267716,
			"duration": 0.28333333333333144
		},
		{
			"name": "D5",
			"midi": 74,
			"time": 44.75000000000001,
			"velocity": 0.6929133858267716,
			"duration": 0.29999999999999716
		},
		{
			"name": "D#5",
			"midi": 75,
			"time": 45.00000000000001,
			"velocity": 0.7007874015748031,
			"duration": 0.31666666666667
		},
		{
			"name": "D5",
			"midi": 74,
			"time": 45.25000000000001,
			"velocity": 0.6929133858267716,
			"duration": 0.3333333333333357
		},
		{
			"name": "G4",
			"midi": 67,
			"time": 45.50000000000001,
			"velocity": 0.7007874015748031,
			"duration": 0.29999999999999716
		},
		{
			"name": "D5",
			"midi": 74,
			"time": 45.75000000000001,
			"velocity": 0.6929133858267716,
			"duration": 0.31666666666667
		},
		{
			"name": "G4",
			"midi": 67,
			"time": 46.00000000000001,
			"velocity": 0.6929133858267716,
			"duration": 0.28333333333333144
		},
		{
			"name": "D5",
			"midi": 74,
			"time": 46.25000000000001,
			"velocity": 0.6929133858267716,
			"duration": 0.31666666666667
		},
		{
			"name": "G4",
			"midi": 67,
			"time": 46.50000000000001,
			"velocity": 0.6929133858267716,
			"duration": 0.28333333333333144
		},
		{
			"name": "D5",
			"midi": 74,
			"time": 46.75000000000001,
			"velocity": 0.6929133858267716,
			"duration": 0.29999999999999716
		},
		{
			"name": "D#5",
			"midi": 75,
			"time": 47.00000000000001,
			"velocity": 0.6929133858267716,
			"duration": 0.31666666666667
		},
		{
			"name": "D5",
			"midi": 74,
			"time": 47.25000000000001,
			"velocity": 0.6929133858267716,
			"duration": 0.3333333333333357
		},
		{
			"name": "G4",
			"midi": 67,
			"time": 47.50000000000001,
			"velocity": 0.7007874015748031,
			"duration": 0.29999999999999716
		},
		{
			"name": "D5",
			"midi": 74,
			"time": 47.75000000000001,
			"velocity": 0.7007874015748031,
			"duration": 0.31666666666667
		},
		{
			"name": "G4",
			"midi": 67,
			"time": 48.00000000000001,
			"velocity": 0.7007874015748031,
			"duration": 0.28333333333333144
		},
		{
			"name": "D5",
			"midi": 74,
			"time": 48.25000000000001,
			"velocity": 0.7007874015748031,
			"duration": 0.31666666666667
		},
		{
			"name": "G4",
			"midi": 67,
			"time": 48.50000000000001,
			"velocity": 0.7007874015748031,
			"duration": 0.28333333333333144
		},
		{
			"name": "D5",
			"midi": 74,
			"time": 48.75000000000001,
			"velocity": 0.7007874015748031,
			"duration": 0.29999999999999716
		},
		{
			"name": "D#5",
			"midi": 75,
			"time": 49.00000000000001,
			"velocity": 0.7007874015748031,
			"duration": 0.31666666666667
		},
		{
			"name": "D5",
			"midi": 74,
			"time": 49.25000000000001,
			"velocity": 0.7007874015748031,
			"duration": 0.3333333333333357
		},
		{
			"name": "G4",
			"midi": 67,
			"time": 49.50000000000001,
			"velocity": 0.7007874015748031,
			"duration": 0.29999999999999716
		},
		{
			"name": "D5",
			"midi": 74,
			"time": 49.75000000000001,
			"velocity": 0.7007874015748031,
			"duration": 0.31666666666667
		},
		{
			"name": "G4",
			"midi": 67,
			"time": 50.00000000000001,
			"velocity": 0.7007874015748031,
			"duration": 0.28333333333333144
		},
		{
			"name": "D5",
			"midi": 74,
			"time": 50.25000000000001,
			"velocity": 0.7007874015748031,
			"duration": 0.31666666666667
		},
		{
			"name": "G4",
			"midi": 67,
			"time": 50.50000000000001,
			"velocity": 0.7007874015748031,
			"duration": 0.28333333333333144
		},
		{
			"name": "D5",
			"midi": 74,
			"time": 50.75000000000001,
			"velocity": 0.7007874015748031,
			"duration": 0.29999999999999716
		},
		{
			"name": "D#5",
			"midi": 75,
			"time": 51.00000000000001,
			"velocity": 0.7007874015748031,
			"duration": 0.31666666666667
		},
		{
			"name": "D5",
			"midi": 74,
			"time": 51.25000000000001,
			"velocity": 0.7007874015748031,
			"duration": 0.3333333333333357
		},
		{
			"name": "G4",
			"midi": 67,
			"time": 51.50000000000001,
			"velocity": 0.7007874015748031,
			"duration": 0.29999999999999716
		},
		{
			"name": "D5",
			"midi": 74,
			"time": 51.75000000000001,
			"velocity": 0.7007874015748031,
			"duration": 0.31666666666667
		},
		{
			"name": "G4",
			"midi": 67,
			"time": 52.00000000000001,
			"velocity": 0.7007874015748031,
			"duration": 0.28333333333333144
		},
		{
			"name": "D5",
			"midi": 74,
			"time": 52.25000000000001,
			"velocity": 0.7007874015748031,
			"duration": 0.31666666666667
		},
		{
			"name": "G4",
			"midi": 67,
			"time": 52.50000000000001,
			"velocity": 0.7007874015748031,
			"duration": 0.28333333333333144
		},
		{
			"name": "D5",
			"midi": 74,
			"time": 52.75000000000001,
			"velocity": 0.7007874015748031,
			"duration": 0.29999999999999716
		},
		{
			"name": "D#5",
			"midi": 75,
			"time": 53.00000000000001,
			"velocity": 0.7007874015748031,
			"duration": 0.31666666666667
		},
		{
			"name": "D5",
			"midi": 74,
			"time": 53.25000000000001,
			"velocity": 0.7007874015748031,
			"duration": 0.3333333333333357
		},
		{
			"name": "G4",
			"midi": 67,
			"time": 53.50000000000001,
			"velocity": 0.7007874015748031,
			"duration": 0.29999999999999716
		},
		{
			"name": "D5",
			"midi": 74,
			"time": 53.75000000000001,
			"velocity": 0.6929133858267716,
			"duration": 0.31666666666667
		},
		{
			"name": "G4",
			"midi": 67,
			"time": 54.00000000000001,
			"velocity": 0.6929133858267716,
			"duration": 0.28333333333333144
		},
		{
			"name": "D5",
			"midi": 74,
			"time": 54.25000000000001,
			"velocity": 0.6929133858267716,
			"duration": 0.31666666666667
		},
		{
			"name": "G4",
			"midi": 67,
			"time": 54.50000000000001,
			"velocity": 0.6929133858267716,
			"duration": 0.28333333333333144
		},
		{
			"name": "D5",
			"midi": 74,
			"time": 54.75000000000001,
			"velocity": 0.6929133858267716,
			"duration": 0.29999999999999716
		},
		{
			"name": "D#5",
			"midi": 75,
			"time": 55.00000000000001,
			"velocity": 0.6929133858267716,
			"duration": 0.31666666666667
		},
		{
			"name": "D5",
			"midi": 74,
			"time": 55.25000000000001,
			"velocity": 0.6929133858267716,
			"duration": 0.3333333333333357
		},
		{
			"name": "G4",
			"midi": 67,
			"time": 55.50000000000001,
			"velocity": 0.7007874015748031,
			"duration": 0.29999999999999716
		},
		{
			"name": "D5",
			"midi": 74,
			"time": 55.75000000000001,
			"velocity": 0.7007874015748031,
			"duration": 0.31666666666667
		},
		{
			"name": "G4",
			"midi": 67,
			"time": 56.00000000000001,
			"velocity": 0.7007874015748031,
			"duration": 0.28333333333333144
		},
		{
			"name": "D5",
			"midi": 74,
			"time": 56.25000000000001,
			"velocity": 0.7007874015748031,
			"duration": 0.31666666666667
		},
		{
			"name": "G4",
			"midi": 67,
			"time": 56.50000000000001,
			"velocity": 0.7007874015748031,
			"duration": 0.28333333333333144
		},
		{
			"name": "D5",
			"midi": 74,
			"time": 56.75000000000001,
			"velocity": 0.7007874015748031,
			"duration": 0.29999999999999716
		},
		{
			"name": "D#5",
			"midi": 75,
			"time": 57.00000000000001,
			"velocity": 0.7007874015748031,
			"duration": 0.31666666666667
		},
		{
			"name": "D5",
			"midi": 74,
			"time": 57.25000000000001,
			"velocity": 0.7007874015748031,
			"duration": 0.3333333333333357
		},
		{
			"name": "G4",
			"midi": 67,
			"time": 57.50000000000001,
			"velocity": 0.7007874015748031,
			"duration": 0.29999999999999716
		},
		{
			"name": "D5",
			"midi": 74,
			"time": 57.75000000000001,
			"velocity": 0.7007874015748031,
			"duration": 0.31666666666667
		},
		{
			"name": "G4",
			"midi": 67,
			"time": 58.00000000000001,
			"velocity": 0.7007874015748031,
			"duration": 0.28333333333333144
		},
		{
			"name": "D5",
			"midi": 74,
			"time": 58.25000000000001,
			"velocity": 0.7007874015748031,
			"duration": 0.31666666666667
		},
		{
			"name": "G4",
			"midi": 67,
			"time": 58.50000000000001,
			"velocity": 0.7007874015748031,
			"duration": 0.28333333333333144
		},
		{
			"name": "D5",
			"midi": 74,
			"time": 58.75000000000001,
			"velocity": 0.7007874015748031,
			"duration": 0.29999999999999716
		},
		{
			"name": "D#5",
			"midi": 75,
			"time": 59.00000000000001,
			"velocity": 0.7007874015748031,
			"duration": 0.31666666666667
		},
		{
			"name": "D5",
			"midi": 74,
			"time": 59.25000000000001,
			"velocity": 0.7007874015748031,
			"duration": 0.3333333333333357
		},
		{
			"name": "G4",
			"midi": 67,
			"time": 59.50000000000001,
			"velocity": 0.7007874015748031,
			"duration": 0.29999999999999716
		},
		{
			"name": "D5",
			"midi": 74,
			"time": 59.75000000000001,
			"velocity": 0.7007874015748031,
			"duration": 0.31666666666667
		},
		{
			"name": "G4",
			"midi": 67,
			"time": 60.00000000000001,
			"velocity": 0.7007874015748031,
			"duration": 0.28333333333333144
		},
		{
			"name": "D5",
			"midi": 74,
			"time": 60.25000000000001,
			"velocity": 0.7007874015748031,
			"duration": 0.31666666666667
		},
		{
			"name": "G4",
			"midi": 67,
			"time": 60.50000000000001,
			"velocity": 0.7007874015748031,
			"duration": 0.28333333333333144
		},
		{
			"name": "D5",
			"midi": 74,
			"time": 60.75000000000001,
			"velocity": 0.7007874015748031,
			"duration": 0.29999999999999716
		},
		{
			"name": "D#5",
			"midi": 75,
			"time": 61.00000000000001,
			"velocity": 0.7007874015748031,
			"duration": 0.31666666666667
		},
		{
			"name": "D5",
			"midi": 74,
			"time": 61.25000000000001,
			"velocity": 0.7007874015748031,
			"duration": 0.3333333333333357
		},
		{
			"name": "G4",
			"midi": 67,
			"time": 61.50000000000001,
			"velocity": 0.7007874015748031,
			"duration": 0.29999999999999716
		},
		{
			"name": "D5",
			"midi": 74,
			"time": 61.75000000000001,
			"velocity": 0.7007874015748031,
			"duration": 0.31666666666667
		},
		{
			"name": "G4",
			"midi": 67,
			"time": 62.00000000000001,
			"velocity": 0.7007874015748031,
			"duration": 0.28333333333333144
		},
		{
			"name": "D5",
			"midi": 74,
			"time": 62.25000000000001,
			"velocity": 0.7007874015748031,
			"duration": 0.31666666666667
		},
		{
			"name": "G4",
			"midi": 67,
			"time": 62.50000000000001,
			"velocity": 0.7007874015748031,
			"duration": 0.28333333333333144
		},
		{
			"name": "D5",
			"midi": 74,
			"time": 62.75000000000001,
			"velocity": 0.7007874015748031,
			"duration": 0.29999999999999716
		},
		{
			"name": "D#5",
			"midi": 75,
			"time": 63.00000000000001,
			"velocity": 0.7007874015748031,
			"duration": 0.31666666666667
		},
		{
			"name": "D5",
			"midi": 74,
			"time": 63.25000000000001,
			"velocity": 0.6929133858267716,
			"duration": 0.3333333333333357
		},
		{
			"name": "G4",
			"midi": 67,
			"time": 63.50000000000001,
			"velocity": 0.6929133858267716,
			"duration": 0.29999999999999716
		},
		{
			"name": "D5",
			"midi": 74,
			"time": 63.75000000000001,
			"velocity": 0.6929133858267716,
			"duration": 0.19999999999999574
		},
		{
			"name": "G4",
			"midi": 67,
			"time": 72,
			"velocity": 0.6929133858267716,
			"duration": 0.28333333333333144
		},
		{
			"name": "D5",
			"midi": 74,
			"time": 72.25,
			"velocity": 0.6929133858267716,
			"duration": 0.3166666666666629
		},
		{
			"name": "G4",
			"midi": 67,
			"time": 72.5,
			"velocity": 0.6929133858267716,
			"duration": 0.28333333333333144
		},
		{
			"name": "D5",
			"midi": 74,
			"time": 72.75,
			"velocity": 0.6929133858267716,
			"duration": 0.29999999999999716
		},
		{
			"name": "D#5",
			"midi": 75,
			"time": 73,
			"velocity": 0.6929133858267716,
			"duration": 0.3166666666666629
		},
		{
			"name": "D5",
			"midi": 74,
			"time": 73.25,
			"velocity": 0.6929133858267716,
			"duration": 0.3333333333333286
		},
		{
			"name": "G4",
			"midi": 67,
			"time": 73.5,
			"velocity": 0.6929133858267716,
			"duration": 0.29999999999999716
		},
		{
			"name": "D5",
			"midi": 74,
			"time": 73.75,
			"velocity": 0.6929133858267716,
			"duration": 0.3166666666666629
		},
		{
			"name": "G4",
			"midi": 67,
			"time": 74,
			"velocity": 0.6929133858267716,
			"duration": 0.28333333333333144
		},
		{
			"name": "D5",
			"midi": 74,
			"time": 74.25,
			"velocity": 0.7007874015748031,
			"duration": 0.3166666666666629
		},
		{
			"name": "G4",
			"midi": 67,
			"time": 74.5,
			"velocity": 0.7007874015748031,
			"duration": 0.28333333333333144
		},
		{
			"name": "D5",
			"midi": 74,
			"time": 74.75,
			"velocity": 0.7007874015748031,
			"duration": 0.29999999999999716
		},
		{
			"name": "D#5",
			"midi": 75,
			"time": 75,
			"velocity": 0.6929133858267716,
			"duration": 0.3166666666666629
		},
		{
			"name": "D5",
			"midi": 74,
			"time": 75.25,
			"velocity": 0.6929133858267716,
			"duration": 0.3333333333333286
		},
		{
			"name": "G4",
			"midi": 67,
			"time": 75.5,
			"velocity": 0.6929133858267716,
			"duration": 0.29999999999999716
		},
		{
			"name": "D5",
			"midi": 74,
			"time": 75.75,
			"velocity": 0.6929133858267716,
			"duration": 0.3166666666666629
		},
		{
			"name": "G4",
			"midi": 67,
			"time": 76,
			"velocity": 0.6929133858267716,
			"duration": 0.28333333333333144
		},
		{
			"name": "D5",
			"midi": 74,
			"time": 76.25,
			"velocity": 0.6929133858267716,
			"duration": 0.3166666666666629
		},
		{
			"name": "G4",
			"midi": 67,
			"time": 76.5,
			"velocity": 0.6929133858267716,
			"duration": 0.28333333333333144
		},
		{
			"name": "D5",
			"midi": 74,
			"time": 76.75,
			"velocity": 0.6929133858267716,
			"duration": 0.29999999999999716
		},
		{
			"name": "D#5",
			"midi": 75,
			"time": 77,
			"velocity": 0.6929133858267716,
			"duration": 0.3166666666666629
		},
		{
			"name": "D5",
			"midi": 74,
			"time": 77.25,
			"velocity": 0.6929133858267716,
			"duration": 0.3333333333333286
		},
		{
			"name": "G4",
			"midi": 67,
			"time": 77.5,
			"velocity": 0.6929133858267716,
			"duration": 0.29999999999999716
		},
		{
			"name": "D5",
			"midi": 74,
			"time": 77.75,
			"velocity": 0.7007874015748031,
			"duration": 0.3166666666666629
		},
		{
			"name": "G4",
			"midi": 67,
			"time": 78,
			"velocity": 0.6929133858267716,
			"duration": 0.28333333333333144
		},
		{
			"name": "D5",
			"midi": 74,
			"time": 78.25,
			"velocity": 0.6929133858267716,
			"duration": 0.3166666666666629
		},
		{
			"name": "G4",
			"midi": 67,
			"time": 78.5,
			"velocity": 0.6929133858267716,
			"duration": 0.28333333333333144
		},
		{
			"name": "D5",
			"midi": 74,
			"time": 78.75,
			"velocity": 0.6929133858267716,
			"duration": 0.29999999999999716
		},
		{
			"name": "D#5",
			"midi": 75,
			"time": 79,
			"velocity": 0.6929133858267716,
			"duration": 0.3166666666666629
		},
		{
			"name": "D5",
			"midi": 74,
			"time": 79.25,
			"velocity": 0.7007874015748031,
			"duration": 0.3333333333333286
		},
		{
			"name": "G4",
			"midi": 67,
			"time": 79.5,
			"velocity": 0.7007874015748031,
			"duration": 0.29999999999999716
		},
		{
			"name": "D5",
			"midi": 74,
			"time": 79.75,
			"velocity": 0.7007874015748031,
			"duration": 0.3166666666666629
		},
		{
			"name": "G4",
			"midi": 67,
			"time": 80,
			"velocity": 0.7007874015748031,
			"duration": 0.28333333333333144
		},
		{
			"name": "D5",
			"midi": 74,
			"time": 80.25,
			"velocity": 0.6929133858267716,
			"duration": 0.3166666666666629
		},
		{
			"name": "G4",
			"midi": 67,
			"time": 80.5,
			"velocity": 0.6929133858267716,
			"duration": 0.28333333333333144
		},
		{
			"name": "D5",
			"midi": 74,
			"time": 80.75,
			"velocity": 0.6929133858267716,
			"duration": 0.29999999999999716
		},
		{
			"name": "D#5",
			"midi": 75,
			"time": 81,
			"velocity": 0.6929133858267716,
			"duration": 0.3166666666666629
		},
		{
			"name": "D5",
			"midi": 74,
			"time": 81.25,
			"velocity": 0.6929133858267716,
			"duration": 0.3333333333333286
		},
		{
			"name": "G4",
			"midi": 67,
			"time": 81.5,
			"velocity": 0.7007874015748031,
			"duration": 0.29999999999999716
		},
		{
			"name": "D5",
			"midi": 74,
			"time": 81.75,
			"velocity": 0.7007874015748031,
			"duration": 0.3166666666666629
		},
		{
			"name": "G4",
			"midi": 67,
			"time": 82,
			"velocity": 0.7007874015748031,
			"duration": 0.28333333333333144
		},
		{
			"name": "D5",
			"midi": 74,
			"time": 82.25,
			"velocity": 0.6929133858267716,
			"duration": 0.3166666666666629
		},
		{
			"name": "G4",
			"midi": 67,
			"time": 82.5,
			"velocity": 0.6929133858267716,
			"duration": 0.28333333333333144
		},
		{
			"name": "D5",
			"midi": 74,
			"time": 82.75,
			"velocity": 0.6929133858267716,
			"duration": 0.29999999999999716
		},
		{
			"name": "D#5",
			"midi": 75,
			"time": 83,
			"velocity": 0.6929133858267716,
			"duration": 0.3166666666666629
		},
		{
			"name": "D5",
			"midi": 74,
			"time": 83.25,
			"velocity": 0.7007874015748031,
			"duration": 0.3333333333333286
		},
		{
			"name": "G4",
			"midi": 67,
			"time": 83.5,
			"velocity": 0.7007874015748031,
			"duration": 0.29999999999999716
		},
		{
			"name": "D5",
			"midi": 74,
			"time": 83.75,
			"velocity": 0.6929133858267716,
			"duration": 0.3166666666666629
		},
		{
			"name": "G4",
			"midi": 67,
			"time": 84,
			"velocity": 0.6929133858267716,
			"duration": 0.28333333333333144
		},
		{
			"name": "D5",
			"midi": 74,
			"time": 84.25,
			"velocity": 0.6929133858267716,
			"duration": 0.3166666666666629
		},
		{
			"name": "G4",
			"midi": 67,
			"time": 84.5,
			"velocity": 0.6929133858267716,
			"duration": 0.28333333333333144
		},
		{
			"name": "D5",
			"midi": 74,
			"time": 84.75,
			"velocity": 0.6929133858267716,
			"duration": 0.29999999999999716
		},
		{
			"name": "D#5",
			"midi": 75,
			"time": 85,
			"velocity": 0.6929133858267716,
			"duration": 0.3166666666666629
		},
		{
			"name": "D5",
			"midi": 74,
			"time": 85.25,
			"velocity": 0.6929133858267716,
			"duration": 0.3333333333333286
		},
		{
			"name": "G4",
			"midi": 67,
			"time": 85.5,
			"velocity": 0.6929133858267716,
			"duration": 0.29999999999999716
		},
		{
			"name": "D5",
			"midi": 74,
			"time": 85.75,
			"velocity": 0.6929133858267716,
			"duration": 0.3166666666666629
		},
		{
			"name": "G4",
			"midi": 67,
			"time": 86,
			"velocity": 0.6929133858267716,
			"duration": 0.28333333333333144
		},
		{
			"name": "D5",
			"midi": 74,
			"time": 86.25,
			"velocity": 0.6929133858267716,
			"duration": 0.3166666666666629
		},
		{
			"name": "G4",
			"midi": 67,
			"time": 86.5,
			"velocity": 0.6929133858267716,
			"duration": 0.28333333333333144
		},
		{
			"name": "D5",
			"midi": 74,
			"time": 86.75,
			"velocity": 0.6929133858267716,
			"duration": 0.29999999999999716
		},
		{
			"name": "D#5",
			"midi": 75,
			"time": 87,
			"velocity": 0.6929133858267716,
			"duration": 0.3166666666666629
		},
		{
			"name": "D5",
			"midi": 74,
			"time": 87.25,
			"velocity": 0.6929133858267716,
			"duration": 0.3333333333333286
		},
		{
			"name": "G4",
			"midi": 67,
			"time": 87.5,
			"velocity": 0.6929133858267716,
			"duration": 0.29999999999999716
		},
		{
			"name": "D5",
			"midi": 74,
			"time": 87.75,
			"velocity": 0.7007874015748031,
			"duration": 0.3166666666666629
		},
		{
			"name": "G4",
			"midi": 67,
			"time": 88,
			"velocity": 0.7007874015748031,
			"duration": 0.28333333333333144
		},
		{
			"name": "D5",
			"midi": 74,
			"time": 88.25,
			"velocity": 0.7007874015748031,
			"duration": 0.3166666666666629
		},
		{
			"name": "G4",
			"midi": 67,
			"time": 88.5,
			"velocity": 0.7007874015748031,
			"duration": 0.28333333333333144
		},
		{
			"name": "D5",
			"midi": 74,
			"time": 88.75,
			"velocity": 0.7007874015748031,
			"duration": 0.29999999999999716
		},
		{
			"name": "D#5",
			"midi": 75,
			"time": 89,
			"velocity": 0.7007874015748031,
			"duration": 0.3166666666666629
		},
		{
			"name": "D5",
			"midi": 74,
			"time": 89.25,
			"velocity": 0.7007874015748031,
			"duration": 0.3333333333333286
		},
		{
			"name": "G4",
			"midi": 67,
			"time": 89.5,
			"velocity": 0.7007874015748031,
			"duration": 0.29999999999999716
		},
		{
			"name": "D5",
			"midi": 74,
			"time": 89.75,
			"velocity": 0.7007874015748031,
			"duration": 0.3166666666666629
		},
		{
			"name": "G4",
			"midi": 67,
			"time": 90,
			"velocity": 0.7007874015748031,
			"duration": 0.28333333333333144
		},
		{
			"name": "D5",
			"midi": 74,
			"time": 90.25,
			"velocity": 0.7007874015748031,
			"duration": 0.3166666666666629
		},
		{
			"name": "G4",
			"midi": 67,
			"time": 90.5,
			"velocity": 0.7007874015748031,
			"duration": 0.28333333333333144
		},
		{
			"name": "D5",
			"midi": 74,
			"time": 90.75,
			"velocity": 0.7007874015748031,
			"duration": 0.29999999999999716
		},
		{
			"name": "D#5",
			"midi": 75,
			"time": 91,
			"velocity": 0.7007874015748031,
			"duration": 0.3166666666666629
		},
		{
			"name": "D5",
			"midi": 74,
			"time": 91.25,
			"velocity": 0.7007874015748031,
			"duration": 0.3333333333333286
		},
		{
			"name": "G4",
			"midi": 67,
			"time": 91.5,
			"velocity": 0.7007874015748031,
			"duration": 0.29999999999999716
		},
		{
			"name": "D5",
			"midi": 74,
			"time": 91.75,
			"velocity": 0.7007874015748031,
			"duration": 0.3166666666666629
		},
		{
			"name": "G4",
			"midi": 67,
			"time": 92,
			"velocity": 0.7007874015748031,
			"duration": 0.28333333333333144
		},
		{
			"name": "D5",
			"midi": 74,
			"time": 92.25,
			"velocity": 0.7007874015748031,
			"duration": 0.3166666666666629
		},
		{
			"name": "G4",
			"midi": 67,
			"time": 92.5,
			"velocity": 0.7007874015748031,
			"duration": 0.28333333333333144
		},
		{
			"name": "D5",
			"midi": 74,
			"time": 92.75,
			"velocity": 0.7007874015748031,
			"duration": 0.29999999999999716
		},
		{
			"name": "D#5",
			"midi": 75,
			"time": 93,
			"velocity": 0.7007874015748031,
			"duration": 0.3166666666666629
		},
		{
			"name": "D5",
			"midi": 74,
			"time": 93.25,
			"velocity": 0.7007874015748031,
			"duration": 0.3333333333333286
		},
		{
			"name": "G4",
			"midi": 67,
			"time": 93.5,
			"velocity": 0.7007874015748031,
			"duration": 0.29999999999999716
		},
		{
			"name": "D5",
			"midi": 74,
			"time": 93.75,
			"velocity": 0.7007874015748031,
			"duration": 0.3166666666666629
		},
		{
			"name": "G4",
			"midi": 67,
			"time": 94,
			"velocity": 0.7007874015748031,
			"duration": 0.28333333333333144
		},
		{
			"name": "D5",
			"midi": 74,
			"time": 94.25,
			"velocity": 0.7007874015748031,
			"duration": 0.3166666666666629
		},
		{
			"name": "G4",
			"midi": 67,
			"time": 94.5,
			"velocity": 0.7007874015748031,
			"duration": 0.28333333333333144
		},
		{
			"name": "D5",
			"midi": 74,
			"time": 94.75,
			"velocity": 0.7007874015748031,
			"duration": 0.29999999999999716
		},
		{
			"name": "D#5",
			"midi": 75,
			"time": 95,
			"velocity": 0.7007874015748031,
			"duration": 0.3166666666666629
		},
		{
			"name": "D5",
			"midi": 74,
			"time": 95.25,
			"velocity": 0.7007874015748031,
			"duration": 0.3333333333333286
		},
		{
			"name": "G4",
			"midi": 67,
			"time": 95.5,
			"velocity": 0.7007874015748031,
			"duration": 0.29999999999999716
		},
		{
			"name": "D5",
			"midi": 74,
			"time": 95.75,
			"velocity": 0.7007874015748031,
			"duration": 0.3166666666666629
		},
		{
			"name": "G4",
			"midi": 67,
			"time": 96,
			"velocity": 0.7007874015748031,
			"duration": 0.28333333333333144
		},
		{
			"name": "D5",
			"midi": 74,
			"time": 96.25,
			"velocity": 0.7007874015748031,
			"duration": 0.3166666666666629
		},
		{
			"name": "G4",
			"midi": 67,
			"time": 96.5,
			"velocity": 0.7007874015748031,
			"duration": 0.28333333333333144
		},
		{
			"name": "D5",
			"midi": 74,
			"time": 96.75,
			"velocity": 0.7007874015748031,
			"duration": 0.29999999999999716
		},
		{
			"name": "D#5",
			"midi": 75,
			"time": 97,
			"velocity": 0.7007874015748031,
			"duration": 0.3166666666666629
		},
		{
			"name": "D5",
			"midi": 74,
			"time": 97.25,
			"velocity": 0.7007874015748031,
			"duration": 0.3333333333333286
		},
		{
			"name": "G4",
			"midi": 67,
			"time": 97.5,
			"velocity": 0.7007874015748031,
			"duration": 0.29999999999999716
		},
		{
			"name": "D5",
			"midi": 74,
			"time": 97.75,
			"velocity": 0.7007874015748031,
			"duration": 0.3166666666666629
		},
		{
			"name": "G4",
			"midi": 67,
			"time": 98,
			"velocity": 0.7007874015748031,
			"duration": 0.28333333333333144
		},
		{
			"name": "D5",
			"midi": 74,
			"time": 98.25,
			"velocity": 0.7007874015748031,
			"duration": 0.3166666666666629
		},
		{
			"name": "G4",
			"midi": 67,
			"time": 98.5,
			"velocity": 0.7007874015748031,
			"duration": 0.28333333333333144
		},
		{
			"name": "D5",
			"midi": 74,
			"time": 98.75,
			"velocity": 0.7007874015748031,
			"duration": 0.29999999999999716
		},
		{
			"name": "D#5",
			"midi": 75,
			"time": 99,
			"velocity": 0.7007874015748031,
			"duration": 0.3166666666666629
		},
		{
			"name": "D5",
			"midi": 74,
			"time": 99.25,
			"velocity": 0.7007874015748031,
			"duration": 0.3333333333333286
		},
		{
			"name": "G4",
			"midi": 67,
			"time": 99.5,
			"velocity": 0.7007874015748031,
			"duration": 0.29999999999999716
		},
		{
			"name": "D5",
			"midi": 74,
			"time": 99.75,
			"velocity": 0.7007874015748031,
			"duration": 0.3166666666666629
		},
		{
			"name": "G4",
			"midi": 67,
			"time": 100,
			"velocity": 0.7007874015748031,
			"duration": 0.28333333333333144
		},
		{
			"name": "D5",
			"midi": 74,
			"time": 100.25,
			"velocity": 0.7007874015748031,
			"duration": 0.3166666666666629
		},
		{
			"name": "G4",
			"midi": 67,
			"time": 100.5,
			"velocity": 0.7007874015748031,
			"duration": 0.28333333333333144
		},
		{
			"name": "D5",
			"midi": 74,
			"time": 100.75,
			"velocity": 0.7007874015748031,
			"duration": 0.29999999999999716
		},
		{
			"name": "D#5",
			"midi": 75,
			"time": 101,
			"velocity": 0.7007874015748031,
			"duration": 0.3166666666666629
		},
		{
			"name": "D5",
			"midi": 74,
			"time": 101.25,
			"velocity": 0.7007874015748031,
			"duration": 0.3333333333333286
		},
		{
			"name": "G4",
			"midi": 67,
			"time": 101.5,
			"velocity": 0.7007874015748031,
			"duration": 0.29999999999999716
		},
		{
			"name": "D5",
			"midi": 74,
			"time": 101.75,
			"velocity": 0.7007874015748031,
			"duration": 0.3166666666666629
		},
		{
			"name": "G4",
			"midi": 67,
			"time": 102,
			"velocity": 0.7007874015748031,
			"duration": 0.28333333333333144
		},
		{
			"name": "D5",
			"midi": 74,
			"time": 102.25,
			"velocity": 0.7007874015748031,
			"duration": 0.3166666666666629
		},
		{
			"name": "G4",
			"midi": 67,
			"time": 102.5,
			"velocity": 0.7007874015748031,
			"duration": 0.28333333333333144
		},
		{
			"name": "D5",
			"midi": 74,
			"time": 102.75,
			"velocity": 0.7007874015748031,
			"duration": 0.29999999999999716
		},
		{
			"name": "D#5",
			"midi": 75,
			"time": 103,
			"velocity": 0.7007874015748031,
			"duration": 0.3166666666666629
		},
		{
			"name": "D5",
			"midi": 74,
			"time": 103.25,
			"velocity": 0.7007874015748031,
			"duration": 0.3333333333333286
		},
		{
			"name": "G4",
			"midi": 67,
			"time": 103.5,
			"velocity": 0.7007874015748031,
			"duration": 0.29999999999999716
		},
		{
			"name": "D5",
			"midi": 74,
			"time": 103.75,
			"velocity": 0.7007874015748031,
			"duration": 0.3166666666666629
		},
		{
			"name": "G4",
			"midi": 67,
			"time": 112,
			"velocity": 0.6929133858267716,
			"duration": 0.28333333333333144
		},
		{
			"name": "D5",
			"midi": 74,
			"time": 112.25,
			"velocity": 0.6929133858267716,
			"duration": 0.3166666666666629
		},
		{
			"name": "G4",
			"midi": 67,
			"time": 112.5,
			"velocity": 0.6929133858267716,
			"duration": 0.28333333333333144
		},
		{
			"name": "D5",
			"midi": 74,
			"time": 112.75,
			"velocity": 0.6929133858267716,
			"duration": 0.29999999999999716
		},
		{
			"name": "D#5",
			"midi": 75,
			"time": 113,
			"velocity": 0.6929133858267716,
			"duration": 0.3166666666666629
		},
		{
			"name": "D5",
			"midi": 74,
			"time": 113.25,
			"velocity": 0.6929133858267716,
			"duration": 0.3333333333333286
		},
		{
			"name": "G4",
			"midi": 67,
			"time": 113.5,
			"velocity": 0.6929133858267716,
			"duration": 0.29999999999999716
		},
		{
			"name": "D5",
			"midi": 74,
			"time": 113.75,
			"velocity": 0.6929133858267716,
			"duration": 0.3166666666666629
		},
		{
			"name": "G4",
			"midi": 67,
			"time": 114,
			"velocity": 0.6929133858267716,
			"duration": 0.28333333333333144
		},
		{
			"name": "D5",
			"midi": 74,
			"time": 114.25,
			"velocity": 0.7007874015748031,
			"duration": 0.3166666666666629
		},
		{
			"name": "G4",
			"midi": 67,
			"time": 114.5,
			"velocity": 0.7007874015748031,
			"duration": 0.28333333333333144
		},
		{
			"name": "D5",
			"midi": 74,
			"time": 114.75,
			"velocity": 0.7007874015748031,
			"duration": 0.29999999999999716
		},
		{
			"name": "D#5",
			"midi": 75,
			"time": 115,
			"velocity": 0.6929133858267716,
			"duration": 0.3166666666666629
		},
		{
			"name": "D5",
			"midi": 74,
			"time": 115.25,
			"velocity": 0.6929133858267716,
			"duration": 0.3333333333333286
		},
		{
			"name": "G4",
			"midi": 67,
			"time": 115.5,
			"velocity": 0.6929133858267716,
			"duration": 0.29999999999999716
		},
		{
			"name": "D5",
			"midi": 74,
			"time": 115.75,
			"velocity": 0.6929133858267716,
			"duration": 0.3166666666666629
		},
		{
			"name": "G4",
			"midi": 67,
			"time": 116,
			"velocity": 0.6929133858267716,
			"duration": 0.28333333333333144
		},
		{
			"name": "D5",
			"midi": 74,
			"time": 116.25,
			"velocity": 0.6929133858267716,
			"duration": 0.3166666666666629
		},
		{
			"name": "G4",
			"midi": 67,
			"time": 116.5,
			"velocity": 0.6929133858267716,
			"duration": 0.28333333333333144
		},
		{
			"name": "D5",
			"midi": 74,
			"time": 116.75,
			"velocity": 0.6929133858267716,
			"duration": 0.29999999999999716
		},
		{
			"name": "D#5",
			"midi": 75,
			"time": 117,
			"velocity": 0.6929133858267716,
			"duration": 0.3166666666666629
		},
		{
			"name": "D5",
			"midi": 74,
			"time": 117.25,
			"velocity": 0.6929133858267716,
			"duration": 0.3333333333333286
		},
		{
			"name": "G4",
			"midi": 67,
			"time": 117.5,
			"velocity": 0.6929133858267716,
			"duration": 0.29999999999999716
		},
		{
			"name": "D5",
			"midi": 74,
			"time": 117.75,
			"velocity": 0.7007874015748031,
			"duration": 0.3166666666666629
		},
		{
			"name": "G4",
			"midi": 67,
			"time": 118,
			"velocity": 0.6929133858267716,
			"duration": 0.28333333333333144
		},
		{
			"name": "D5",
			"midi": 74,
			"time": 118.25,
			"velocity": 0.6929133858267716,
			"duration": 0.3166666666666629
		},
		{
			"name": "G4",
			"midi": 67,
			"time": 118.5,
			"velocity": 0.6929133858267716,
			"duration": 0.28333333333333144
		},
		{
			"name": "D5",
			"midi": 74,
			"time": 118.75,
			"velocity": 0.6929133858267716,
			"duration": 0.29999999999999716
		},
		{
			"name": "D#5",
			"midi": 75,
			"time": 119,
			"velocity": 0.6929133858267716,
			"duration": 0.3166666666666629
		},
		{
			"name": "D5",
			"midi": 74,
			"time": 119.25,
			"velocity": 0.7007874015748031,
			"duration": 0.3333333333333286
		},
		{
			"name": "G4",
			"midi": 67,
			"time": 119.5,
			"velocity": 0.7007874015748031,
			"duration": 0.29999999999999716
		},
		{
			"name": "D5",
			"midi": 74,
			"time": 119.75,
			"velocity": 0.7007874015748031,
			"duration": 0.3166666666666629
		},
		{
			"name": "G4",
			"midi": 67,
			"time": 120,
			"velocity": 0.7007874015748031,
			"duration": 0.28333333333333144
		},
		{
			"name": "D5",
			"midi": 74,
			"time": 120.25,
			"velocity": 0.6929133858267716,
			"duration": 0.3166666666666629
		},
		{
			"name": "G4",
			"midi": 67,
			"time": 120.5,
			"velocity": 0.6929133858267716,
			"duration": 0.28333333333333144
		},
		{
			"name": "D5",
			"midi": 74,
			"time": 120.75,
			"velocity": 0.6929133858267716,
			"duration": 0.29999999999999716
		},
		{
			"name": "D#5",
			"midi": 75,
			"time": 121,
			"velocity": 0.6929133858267716,
			"duration": 0.3166666666666629
		},
		{
			"name": "D5",
			"midi": 74,
			"time": 121.25,
			"velocity": 0.6929133858267716,
			"duration": 0.3333333333333286
		},
		{
			"name": "G4",
			"midi": 67,
			"time": 121.5,
			"velocity": 0.7007874015748031,
			"duration": 0.29999999999999716
		},
		{
			"name": "D5",
			"midi": 74,
			"time": 121.75,
			"velocity": 0.7007874015748031,
			"duration": 0.3166666666666629
		},
		{
			"name": "G4",
			"midi": 67,
			"time": 122,
			"velocity": 0.7007874015748031,
			"duration": 0.28333333333333144
		},
		{
			"name": "D5",
			"midi": 74,
			"time": 122.25,
			"velocity": 0.6929133858267716,
			"duration": 0.3166666666666629
		},
		{
			"name": "G4",
			"midi": 67,
			"time": 122.5,
			"velocity": 0.6929133858267716,
			"duration": 0.28333333333333144
		},
		{
			"name": "D5",
			"midi": 74,
			"time": 122.75,
			"velocity": 0.6929133858267716,
			"duration": 0.29999999999999716
		},
		{
			"name": "D#5",
			"midi": 75,
			"time": 123,
			"velocity": 0.6929133858267716,
			"duration": 0.3166666666666629
		},
		{
			"name": "D5",
			"midi": 74,
			"time": 123.25,
			"velocity": 0.7007874015748031,
			"duration": 0.3333333333333286
		},
		{
			"name": "G4",
			"midi": 67,
			"time": 123.5,
			"velocity": 0.7007874015748031,
			"duration": 0.29999999999999716
		},
		{
			"name": "D5",
			"midi": 74,
			"time": 123.75,
			"velocity": 0.6929133858267716,
			"duration": 0.3166666666666629
		},
		{
			"name": "G4",
			"midi": 67,
			"time": 124,
			"velocity": 0.6929133858267716,
			"duration": 0.28333333333333144
		},
		{
			"name": "D5",
			"midi": 74,
			"time": 124.25,
			"velocity": 0.6929133858267716,
			"duration": 0.3166666666666629
		},
		{
			"name": "G4",
			"midi": 67,
			"time": 124.5,
			"velocity": 0.6929133858267716,
			"duration": 0.28333333333333144
		},
		{
			"name": "D5",
			"midi": 74,
			"time": 124.75,
			"velocity": 0.6929133858267716,
			"duration": 0.29999999999999716
		},
		{
			"name": "D#5",
			"midi": 75,
			"time": 125,
			"velocity": 0.6929133858267716,
			"duration": 0.3166666666666629
		},
		{
			"name": "D5",
			"midi": 74,
			"time": 125.25,
			"velocity": 0.6929133858267716,
			"duration": 0.3333333333333286
		},
		{
			"name": "G4",
			"midi": 67,
			"time": 125.5,
			"velocity": 0.6929133858267716,
			"duration": 0.29999999999999716
		},
		{
			"name": "D5",
			"midi": 74,
			"time": 125.75,
			"velocity": 0.6929133858267716,
			"duration": 0.3166666666666629
		},
		{
			"name": "G4",
			"midi": 67,
			"time": 126,
			"velocity": 0.6929133858267716,
			"duration": 0.28333333333333144
		},
		{
			"name": "G4",
			"midi": 67,
			"time": 126,
			"velocity": 0.7007874015748031,
			"duration": 0.28333333333333144
		},
		{
			"name": "D5",
			"midi": 74,
			"time": 126.25,
			"velocity": 0.6929133858267716,
			"duration": 0.3166666666666629
		},
		{
			"name": "G4",
			"midi": 67,
			"time": 126.5,
			"velocity": 0.6929133858267716,
			"duration": 0.28333333333333144
		},
		{
			"name": "D5",
			"midi": 74,
			"time": 126.75,
			"velocity": 0.6929133858267716,
			"duration": 0.29999999999999716
		},
		{
			"name": "D#5",
			"midi": 75,
			"time": 127,
			"velocity": 0.6929133858267716,
			"duration": 0.3166666666666629
		},
		{
			"name": "D5",
			"midi": 74,
			"time": 127.25,
			"velocity": 0.7007874015748031,
			"duration": 0.3333333333333286
		},
		{
			"name": "G4",
			"midi": 67,
			"time": 127.5,
			"velocity": 0.7007874015748031,
			"duration": 0.29999999999999716
		},
		{
			"name": "D5",
			"midi": 74,
			"time": 127.75,
			"velocity": 0.6929133858267716,
			"duration": 0.3166666666666629
		},
		{
			"name": "G4",
			"midi": 67,
			"time": 128,
			"velocity": 0.6929133858267716,
			"duration": 0.28333333333333144
		},
		{
			"name": "D5",
			"midi": 74,
			"time": 128.25,
			"velocity": 0.6929133858267716,
			"duration": 0.3166666666666629
		},
		{
			"name": "G4",
			"midi": 67,
			"time": 128.5,
			"velocity": 0.6929133858267716,
			"duration": 0.28333333333333144
		},
		{
			"name": "D5",
			"midi": 74,
			"time": 128.75,
			"velocity": 0.6929133858267716,
			"duration": 0.30000000000001137
		},
		{
			"name": "D#5",
			"midi": 75,
			"time": 129,
			"velocity": 0.6929133858267716,
			"duration": 0.3166666666666629
		},
		{
			"name": "D5",
			"midi": 74,
			"time": 129.25,
			"velocity": 0.6929133858267716,
			"duration": 0.3333333333333428
		},
		{
			"name": "G4",
			"midi": 67,
			"time": 129.5,
			"velocity": 0.6929133858267716,
			"duration": 0.30000000000001137
		},
		{
			"name": "D5",
			"midi": 74,
			"time": 129.75,
			"velocity": 0.6929133858267716,
			"duration": 0.3166666666666629
		},
		{
			"name": "G4",
			"midi": 67,
			"time": 130,
			"velocity": 0.6929133858267716,
			"duration": 0.28333333333333144
		},
		{
			"name": "D5",
			"midi": 74,
			"time": 130.25,
			"velocity": 0.6929133858267716,
			"duration": 0.3166666666666629
		},
		{
			"name": "G4",
			"midi": 67,
			"time": 130.5,
			"velocity": 0.6929133858267716,
			"duration": 0.28333333333333144
		},
		{
			"name": "D5",
			"midi": 74,
			"time": 130.75,
			"velocity": 0.6929133858267716,
			"duration": 0.30000000000001137
		},
		{
			"name": "D#5",
			"midi": 75,
			"time": 131,
			"velocity": 0.6929133858267716,
			"duration": 0.3166666666666629
		},
		{
			"name": "D5",
			"midi": 74,
			"time": 131.25,
			"velocity": 0.6929133858267716,
			"duration": 0.3333333333333428
		},
		{
			"name": "G4",
			"midi": 67,
			"time": 131.5,
			"velocity": 0.6929133858267716,
			"duration": 0.30000000000001137
		},
		{
			"name": "D5",
			"midi": 74,
			"time": 131.75,
			"velocity": 0.6929133858267716,
			"duration": 0.3166666666666629
		},
		{
			"name": "G4",
			"midi": 67,
			"time": 132,
			"velocity": 0.6929133858267716,
			"duration": 0.28333333333333144
		},
		{
			"name": "D5",
			"midi": 74,
			"time": 132.25,
			"velocity": 0.7007874015748031,
			"duration": 0.3166666666666629
		},
		{
			"name": "G4",
			"midi": 67,
			"time": 132.5,
			"velocity": 0.7007874015748031,
			"duration": 0.28333333333333144
		},
		{
			"name": "D5",
			"midi": 74,
			"time": 132.75,
			"velocity": 0.7007874015748031,
			"duration": 0.30000000000001137
		},
		{
			"name": "D#5",
			"midi": 75,
			"time": 133,
			"velocity": 0.6929133858267716,
			"duration": 0.3166666666666629
		},
		{
			"name": "D5",
			"midi": 74,
			"time": 133.25,
			"velocity": 0.6929133858267716,
			"duration": 0.3333333333333428
		},
		{
			"name": "G4",
			"midi": 67,
			"time": 133.5,
			"velocity": 0.6929133858267716,
			"duration": 0.30000000000001137
		},
		{
			"name": "D5",
			"midi": 74,
			"time": 133.75,
			"velocity": 0.6929133858267716,
			"duration": 0.3166666666666629
		},
		{
			"name": "G4",
			"midi": 67,
			"time": 134,
			"velocity": 0.6929133858267716,
			"duration": 0.28333333333333144
		},
		{
			"name": "D5",
			"midi": 74,
			"time": 134.25,
			"velocity": 0.6929133858267716,
			"duration": 0.3166666666666629
		},
		{
			"name": "G4",
			"midi": 67,
			"time": 134.5,
			"velocity": 0.6929133858267716,
			"duration": 0.28333333333333144
		},
		{
			"name": "D5",
			"midi": 74,
			"time": 134.75,
			"velocity": 0.6929133858267716,
			"duration": 0.30000000000001137
		},
		{
			"name": "D#5",
			"midi": 75,
			"time": 135,
			"velocity": 0.6929133858267716,
			"duration": 0.3166666666666629
		},
		{
			"name": "D5",
			"midi": 74,
			"time": 135.25,
			"velocity": 0.6929133858267716,
			"duration": 0.3333333333333428
		},
		{
			"name": "G4",
			"midi": 67,
			"time": 135.5,
			"velocity": 0.6929133858267716,
			"duration": 0.30000000000001137
		},
		{
			"name": "D5",
			"midi": 74,
			"time": 135.75,
			"velocity": 0.7007874015748031,
			"duration": 0.3166666666666629
		},
		{
			"name": "G4",
			"midi": 67,
			"time": 136,
			"velocity": 0.6929133858267716,
			"duration": 0.28333333333333144
		},
		{
			"name": "D5",
			"midi": 74,
			"time": 136.25,
			"velocity": 0.6929133858267716,
			"duration": 0.3166666666666629
		},
		{
			"name": "G4",
			"midi": 67,
			"time": 136.5,
			"velocity": 0.6929133858267716,
			"duration": 0.28333333333333144
		},
		{
			"name": "D5",
			"midi": 74,
			"time": 136.75,
			"velocity": 0.6929133858267716,
			"duration": 0.30000000000001137
		},
		{
			"name": "D#5",
			"midi": 75,
			"time": 137,
			"velocity": 0.6929133858267716,
			"duration": 0.3166666666666629
		},
		{
			"name": "D5",
			"midi": 74,
			"time": 137.25,
			"velocity": 0.7007874015748031,
			"duration": 0.3333333333333428
		},
		{
			"name": "G4",
			"midi": 67,
			"time": 137.5,
			"velocity": 0.7007874015748031,
			"duration": 0.30000000000001137
		},
		{
			"name": "D5",
			"midi": 74,
			"time": 137.75,
			"velocity": 0.7007874015748031,
			"duration": 0.3166666666666629
		},
		{
			"name": "G4",
			"midi": 67,
			"time": 138,
			"velocity": 0.6929133858267716,
			"duration": 0.28333333333333144
		},
		{
			"name": "D5",
			"midi": 74,
			"time": 138.25,
			"velocity": 0.6929133858267716,
			"duration": 0.3166666666666629
		},
		{
			"name": "G4",
			"midi": 67,
			"time": 138.5,
			"velocity": 0.6929133858267716,
			"duration": 0.28333333333333144
		},
		{
			"name": "D5",
			"midi": 74,
			"time": 138.75,
			"velocity": 0.6929133858267716,
			"duration": 0.30000000000001137
		},
		{
			"name": "D#5",
			"midi": 75,
			"time": 139,
			"velocity": 0.6929133858267716,
			"duration": 0.3166666666666629
		},
		{
			"name": "D5",
			"midi": 74,
			"time": 139.25,
			"velocity": 0.6929133858267716,
			"duration": 0.3333333333333428
		},
		{
			"name": "G4",
			"midi": 67,
			"time": 139.5,
			"velocity": 0.6929133858267716,
			"duration": 0.30000000000001137
		},
		{
			"name": "D5",
			"midi": 74,
			"time": 139.75,
			"velocity": 0.6929133858267716,
			"duration": 0.3166666666666629
		},
		{
			"name": "G4",
			"midi": 67,
			"time": 140,
			"velocity": 0.6929133858267716,
			"duration": 0.28333333333333144
		},
		{
			"name": "D5",
			"midi": 74,
			"time": 140.25,
			"velocity": 0.7007874015748031,
			"duration": 0.3166666666666629
		},
		{
			"name": "G4",
			"midi": 67,
			"time": 140.5,
			"velocity": 0.7007874015748031,
			"duration": 0.28333333333333144
		},
		{
			"name": "D5",
			"midi": 74,
			"time": 140.75,
			"velocity": 0.7007874015748031,
			"duration": 0.30000000000001137
		},
		{
			"name": "D#5",
			"midi": 75,
			"time": 141,
			"velocity": 0.6929133858267716,
			"duration": 0.3166666666666629
		},
		{
			"name": "D5",
			"midi": 74,
			"time": 141.25,
			"velocity": 0.6929133858267716,
			"duration": 0.3333333333333428
		},
		{
			"name": "G4",
			"midi": 67,
			"time": 141.5,
			"velocity": 0.6929133858267716,
			"duration": 0.30000000000001137
		},
		{
			"name": "D5",
			"midi": 74,
			"time": 141.75,
			"velocity": 0.6929133858267716,
			"duration": 0.3166666666666629
		},
		{
			"name": "G4",
			"midi": 67,
			"time": 142,
			"velocity": 0.6929133858267716,
			"duration": 0.28333333333333144
		},
		{
			"name": "D5",
			"midi": 74,
			"time": 142.25,
			"velocity": 0.6929133858267716,
			"duration": 0.3166666666666629
		},
		{
			"name": "G4",
			"midi": 67,
			"time": 142.5,
			"velocity": 0.6929133858267716,
			"duration": 0.28333333333333144
		},
		{
			"name": "D5",
			"midi": 74,
			"time": 142.75,
			"velocity": 0.6929133858267716,
			"duration": 0.30000000000001137
		},
		{
			"name": "D#5",
			"midi": 75,
			"time": 143,
			"velocity": 0.6929133858267716,
			"duration": 0.3166666666666629
		},
		{
			"name": "D5",
			"midi": 74,
			"time": 143.25,
			"velocity": 0.6929133858267716,
			"duration": 0.3333333333333428
		},
		{
			"name": "G4",
			"midi": 67,
			"time": 143.5,
			"velocity": 0.6929133858267716,
			"duration": 0.30000000000001137
		},
		{
			"name": "D5",
			"midi": 74,
			"time": 143.75,
			"velocity": 0.7007874015748031,
			"duration": 0.3166666666666629
		},
		{
			"name": "G4",
			"midi": 67,
			"time": 144,
			"velocity": 0.6929133858267716,
			"duration": 0.28333333333333144
		},
		{
			"name": "D5",
			"midi": 74,
			"time": 144.25,
			"velocity": 0.6929133858267716,
			"duration": 0.3166666666666629
		},
		{
			"name": "G4",
			"midi": 67,
			"time": 144.5,
			"velocity": 0.6929133858267716,
			"duration": 0.28333333333333144
		},
		{
			"name": "D5",
			"midi": 74,
			"time": 144.75,
			"velocity": 0.6929133858267716,
			"duration": 0.30000000000001137
		},
		{
			"name": "D#5",
			"midi": 75,
			"time": 145,
			"velocity": 0.6929133858267716,
			"duration": 0.3166666666666629
		},
		{
			"name": "D5",
			"midi": 74,
			"time": 145.25,
			"velocity": 0.7007874015748031,
			"duration": 0.3333333333333428
		},
		{
			"name": "G4",
			"midi": 67,
			"time": 145.5,
			"velocity": 0.7007874015748031,
			"duration": 0.30000000000001137
		},
		{
			"name": "D5",
			"midi": 74,
			"time": 145.75,
			"velocity": 0.7007874015748031,
			"duration": 0.3166666666666629
		},
		{
			"name": "G4",
			"midi": 67,
			"time": 146,
			"velocity": 0.6929133858267716,
			"duration": 0.28333333333333144
		},
		{
			"name": "D5",
			"midi": 74,
			"time": 146.25,
			"velocity": 0.6929133858267716,
			"duration": 0.3166666666666629
		},
		{
			"name": "G4",
			"midi": 67,
			"time": 146.5,
			"velocity": 0.6929133858267716,
			"duration": 0.28333333333333144
		},
		{
			"name": "D5",
			"midi": 74,
			"time": 146.75,
			"velocity": 0.6929133858267716,
			"duration": 0.30000000000001137
		},
		{
			"name": "D#5",
			"midi": 75,
			"time": 147,
			"velocity": 0.6929133858267716,
			"duration": 0.3166666666666629
		},
		{
			"name": "D5",
			"midi": 74,
			"time": 147.25,
			"velocity": 0.6929133858267716,
			"duration": 0.3333333333333428
		},
		{
			"name": "G4",
			"midi": 67,
			"time": 147.5,
			"velocity": 0.6929133858267716,
			"duration": 0.30000000000001137
		},
		{
			"name": "D5",
			"midi": 74,
			"time": 147.75,
			"velocity": 0.6929133858267716,
			"duration": 0.3166666666666913
		},
		{
			"name": "G4",
			"midi": 67,
			"time": 166.00000000000003,
			"velocity": 0.6929133858267716,
			"duration": 0.28333333333333144
		},
		{
			"name": "D5",
			"midi": 74,
			"time": 166.25000000000003,
			"velocity": 0.6929133858267716,
			"duration": 0.3166666666666629
		},
		{
			"name": "G4",
			"midi": 67,
			"time": 166.50000000000003,
			"velocity": 0.6929133858267716,
			"duration": 0.28333333333333144
		},
		{
			"name": "D5",
			"midi": 74,
			"time": 166.75000000000003,
			"velocity": 0.6929133858267716,
			"duration": 0.30000000000001137
		},
		{
			"name": "D#5",
			"midi": 75,
			"time": 167.00000000000003,
			"velocity": 0.6929133858267716,
			"duration": 0.3166666666666629
		},
		{
			"name": "D5",
			"midi": 74,
			"time": 167.25000000000003,
			"velocity": 0.6929133858267716,
			"duration": 0.3333333333333428
		},
		{
			"name": "G4",
			"midi": 67,
			"time": 167.50000000000003,
			"velocity": 0.6929133858267716,
			"duration": 0.30000000000001137
		},
		{
			"name": "D5",
			"midi": 74,
			"time": 167.75000000000003,
			"velocity": 0.6929133858267716,
			"duration": 0.3166666666666629
		},
		{
			"name": "G4",
			"midi": 67,
			"time": 168.00000000000003,
			"velocity": 0.6929133858267716,
			"duration": 0.28333333333333144
		},
		{
			"name": "D5",
			"midi": 74,
			"time": 168.25000000000003,
			"velocity": 0.7007874015748031,
			"duration": 0.3166666666666629
		},
		{
			"name": "G4",
			"midi": 67,
			"time": 168.50000000000003,
			"velocity": 0.7007874015748031,
			"duration": 0.28333333333333144
		},
		{
			"name": "D5",
			"midi": 74,
			"time": 168.75000000000003,
			"velocity": 0.7007874015748031,
			"duration": 0.30000000000001137
		},
		{
			"name": "D#5",
			"midi": 75,
			"time": 169.00000000000003,
			"velocity": 0.6929133858267716,
			"duration": 0.3166666666666629
		},
		{
			"name": "D5",
			"midi": 74,
			"time": 169.25000000000003,
			"velocity": 0.6929133858267716,
			"duration": 0.3333333333333428
		},
		{
			"name": "G4",
			"midi": 67,
			"time": 169.50000000000003,
			"velocity": 0.6929133858267716,
			"duration": 0.30000000000001137
		},
		{
			"name": "D5",
			"midi": 74,
			"time": 169.75000000000003,
			"velocity": 0.6929133858267716,
			"duration": 0.3166666666666629
		},
		{
			"name": "G4",
			"midi": 67,
			"time": 170.00000000000003,
			"velocity": 0.6929133858267716,
			"duration": 0.28333333333333144
		},
		{
			"name": "D5",
			"midi": 74,
			"time": 170.25000000000003,
			"velocity": 0.6929133858267716,
			"duration": 0.3166666666666629
		},
		{
			"name": "G4",
			"midi": 67,
			"time": 170.50000000000003,
			"velocity": 0.6929133858267716,
			"duration": 0.28333333333333144
		},
		{
			"name": "D5",
			"midi": 74,
			"time": 170.75000000000003,
			"velocity": 0.6929133858267716,
			"duration": 0.30000000000001137
		},
		{
			"name": "D#5",
			"midi": 75,
			"time": 171.00000000000003,
			"velocity": 0.6929133858267716,
			"duration": 0.3166666666666629
		},
		{
			"name": "D5",
			"midi": 74,
			"time": 171.25000000000003,
			"velocity": 0.6929133858267716,
			"duration": 0.3333333333333428
		},
		{
			"name": "G4",
			"midi": 67,
			"time": 171.50000000000003,
			"velocity": 0.6929133858267716,
			"duration": 0.30000000000001137
		},
		{
			"name": "D5",
			"midi": 74,
			"time": 171.75000000000003,
			"velocity": 0.7007874015748031,
			"duration": 0.3166666666666629
		},
		{
			"name": "G4",
			"midi": 67,
			"time": 172.00000000000003,
			"velocity": 0.6929133858267716,
			"duration": 0.28333333333333144
		},
		{
			"name": "D5",
			"midi": 74,
			"time": 172.25000000000003,
			"velocity": 0.6929133858267716,
			"duration": 0.3166666666666629
		},
		{
			"name": "G4",
			"midi": 67,
			"time": 172.50000000000003,
			"velocity": 0.6929133858267716,
			"duration": 0.28333333333333144
		},
		{
			"name": "D5",
			"midi": 74,
			"time": 172.75000000000003,
			"velocity": 0.6929133858267716,
			"duration": 0.30000000000001137
		},
		{
			"name": "D#5",
			"midi": 75,
			"time": 173.00000000000003,
			"velocity": 0.6929133858267716,
			"duration": 0.3166666666666629
		},
		{
			"name": "D5",
			"midi": 74,
			"time": 173.25000000000003,
			"velocity": 0.7007874015748031,
			"duration": 0.3333333333333428
		},
		{
			"name": "G4",
			"midi": 67,
			"time": 173.50000000000003,
			"velocity": 0.7007874015748031,
			"duration": 0.30000000000001137
		},
		{
			"name": "D5",
			"midi": 74,
			"time": 173.75000000000003,
			"velocity": 0.7007874015748031,
			"duration": 0.3166666666666629
		},
		{
			"name": "G4",
			"midi": 67,
			"time": 174.00000000000003,
			"velocity": 0.7007874015748031,
			"duration": 0.28333333333333144
		},
		{
			"name": "D5",
			"midi": 74,
			"time": 174.25000000000003,
			"velocity": 0.6929133858267716,
			"duration": 0.3166666666666629
		},
		{
			"name": "G4",
			"midi": 67,
			"time": 174.50000000000003,
			"velocity": 0.6929133858267716,
			"duration": 0.28333333333333144
		},
		{
			"name": "D5",
			"midi": 74,
			"time": 174.75000000000003,
			"velocity": 0.6929133858267716,
			"duration": 0.30000000000001137
		},
		{
			"name": "D#5",
			"midi": 75,
			"time": 175.00000000000003,
			"velocity": 0.6929133858267716,
			"duration": 0.3166666666666629
		},
		{
			"name": "D5",
			"midi": 74,
			"time": 175.25000000000003,
			"velocity": 0.6929133858267716,
			"duration": 0.3333333333333428
		},
		{
			"name": "G4",
			"midi": 67,
			"time": 175.50000000000003,
			"velocity": 0.7007874015748031,
			"duration": 0.30000000000001137
		},
		{
			"name": "D5",
			"midi": 74,
			"time": 175.75000000000003,
			"velocity": 0.7007874015748031,
			"duration": 0.3166666666666629
		},
		{
			"name": "G4",
			"midi": 67,
			"time": 176.00000000000003,
			"velocity": 0.7007874015748031,
			"duration": 0.28333333333333144
		},
		{
			"name": "D5",
			"midi": 74,
			"time": 176.25000000000003,
			"velocity": 0.6929133858267716,
			"duration": 0.3166666666666629
		},
		{
			"name": "G4",
			"midi": 67,
			"time": 176.50000000000003,
			"velocity": 0.6929133858267716,
			"duration": 0.28333333333333144
		},
		{
			"name": "D5",
			"midi": 74,
			"time": 176.75000000000003,
			"velocity": 0.6929133858267716,
			"duration": 0.30000000000001137
		},
		{
			"name": "D#5",
			"midi": 75,
			"time": 177.00000000000003,
			"velocity": 0.6929133858267716,
			"duration": 0.3166666666666629
		},
		{
			"name": "D5",
			"midi": 74,
			"time": 177.25000000000003,
			"velocity": 0.7007874015748031,
			"duration": 0.3333333333333428
		},
		{
			"name": "G4",
			"midi": 67,
			"time": 177.50000000000003,
			"velocity": 0.7007874015748031,
			"duration": 0.30000000000001137
		},
		{
			"name": "D5",
			"midi": 74,
			"time": 177.75000000000003,
			"velocity": 0.6929133858267716,
			"duration": 0.3166666666666629
		},
		{
			"name": "G4",
			"midi": 67,
			"time": 178.00000000000003,
			"velocity": 0.6929133858267716,
			"duration": 0.28333333333333144
		},
		{
			"name": "D5",
			"midi": 74,
			"time": 178.25000000000003,
			"velocity": 0.6929133858267716,
			"duration": 0.3166666666666629
		},
		{
			"name": "G4",
			"midi": 67,
			"time": 178.50000000000003,
			"velocity": 0.6929133858267716,
			"duration": 0.28333333333333144
		},
		{
			"name": "D5",
			"midi": 74,
			"time": 178.75000000000003,
			"velocity": 0.6929133858267716,
			"duration": 0.30000000000001137
		},
		{
			"name": "D#5",
			"midi": 75,
			"time": 179.00000000000003,
			"velocity": 0.6929133858267716,
			"duration": 0.3166666666666629
		},
		{
			"name": "D5",
			"midi": 74,
			"time": 179.25000000000003,
			"velocity": 0.6929133858267716,
			"duration": 0.3333333333333428
		},
		{
			"name": "G4",
			"midi": 67,
			"time": 179.50000000000003,
			"velocity": 0.6929133858267716,
			"duration": 0.30000000000001137
		},
		{
			"name": "D5",
			"midi": 74,
			"time": 179.75000000000003,
			"velocity": 0.6929133858267716,
			"duration": 0.3166666666666629
		},
		{
			"name": "G4",
			"midi": 67,
			"time": 180.00000000000003,
			"velocity": 0.6929133858267716,
			"duration": 0.28333333333333144
		},
		{
			"name": "D5",
			"midi": 74,
			"time": 180.25000000000003,
			"velocity": 0.6929133858267716,
			"duration": 0.3166666666666629
		},
		{
			"name": "G4",
			"midi": 67,
			"time": 180.50000000000003,
			"velocity": 0.6929133858267716,
			"duration": 0.28333333333333144
		},
		{
			"name": "D5",
			"midi": 74,
			"time": 180.75000000000003,
			"velocity": 0.6929133858267716,
			"duration": 0.30000000000001137
		},
		{
			"name": "D#5",
			"midi": 75,
			"time": 181.00000000000003,
			"velocity": 0.6929133858267716,
			"duration": 0.3166666666666629
		},
		{
			"name": "D5",
			"midi": 74,
			"time": 181.25000000000003,
			"velocity": 0.6929133858267716,
			"duration": 0.3333333333333428
		},
		{
			"name": "G4",
			"midi": 67,
			"time": 181.50000000000003,
			"velocity": 0.6929133858267716,
			"duration": 0.30000000000001137
		},
		{
			"name": "D5",
			"midi": 74,
			"time": 181.75000000000003,
			"velocity": 0.7007874015748031,
			"duration": 0.3166666666666629
		},
		{
			"name": "G4",
			"midi": 67,
			"time": 182.00000000000003,
			"velocity": 0.6929133858267716,
			"duration": 0.28333333333333144
		},
		{
			"name": "D5",
			"midi": 74,
			"time": 182.25000000000003,
			"velocity": 0.6929133858267716,
			"duration": 0.3166666666666629
		},
		{
			"name": "G4",
			"midi": 67,
			"time": 182.50000000000003,
			"velocity": 0.6929133858267716,
			"duration": 0.28333333333333144
		},
		{
			"name": "D5",
			"midi": 74,
			"time": 182.75000000000003,
			"velocity": 0.6929133858267716,
			"duration": 0.30000000000001137
		},
		{
			"name": "D#5",
			"midi": 75,
			"time": 183.00000000000003,
			"velocity": 0.6929133858267716,
			"duration": 0.3166666666666629
		},
		{
			"name": "D5",
			"midi": 74,
			"time": 183.25000000000003,
			"velocity": 0.6929133858267716,
			"duration": 0.3333333333333428
		},
		{
			"name": "G4",
			"midi": 67,
			"time": 183.50000000000003,
			"velocity": 0.6929133858267716,
			"duration": 0.30000000000001137
		},
		{
			"name": "D5",
			"midi": 74,
			"time": 183.75000000000003,
			"velocity": 0.6929133858267716,
			"duration": 0.3166666666666629
		},
		{
			"name": "G4",
			"midi": 67,
			"time": 184.00000000000003,
			"velocity": 0.6929133858267716,
			"duration": 0.28333333333333144
		},
		{
			"name": "D5",
			"midi": 74,
			"time": 184.25000000000003,
			"velocity": 0.7007874015748031,
			"duration": 0.3166666666666629
		},
		{
			"name": "G4",
			"midi": 67,
			"time": 184.50000000000003,
			"velocity": 0.7007874015748031,
			"duration": 0.28333333333333144
		},
		{
			"name": "D5",
			"midi": 74,
			"time": 184.75000000000003,
			"velocity": 0.7007874015748031,
			"duration": 0.30000000000001137
		},
		{
			"name": "D#5",
			"midi": 75,
			"time": 185.00000000000003,
			"velocity": 0.6929133858267716,
			"duration": 0.3166666666666629
		},
		{
			"name": "D5",
			"midi": 74,
			"time": 185.25000000000003,
			"velocity": 0.6929133858267716,
			"duration": 0.3333333333333428
		},
		{
			"name": "G4",
			"midi": 67,
			"time": 185.50000000000003,
			"velocity": 0.6929133858267716,
			"duration": 0.30000000000001137
		},
		{
			"name": "D5",
			"midi": 74,
			"time": 185.75000000000003,
			"velocity": 0.6929133858267716,
			"duration": 0.3166666666666629
		},
		{
			"name": "G4",
			"midi": 67,
			"time": 186.00000000000003,
			"velocity": 0.6929133858267716,
			"duration": 0.28333333333333144
		},
		{
			"name": "D5",
			"midi": 74,
			"time": 186.25000000000003,
			"velocity": 0.6929133858267716,
			"duration": 0.3166666666666629
		},
		{
			"name": "G4",
			"midi": 67,
			"time": 186.50000000000003,
			"velocity": 0.6929133858267716,
			"duration": 0.28333333333333144
		},
		{
			"name": "D5",
			"midi": 74,
			"time": 186.75000000000003,
			"velocity": 0.6929133858267716,
			"duration": 0.30000000000001137
		},
		{
			"name": "D#5",
			"midi": 75,
			"time": 187.00000000000003,
			"velocity": 0.6929133858267716,
			"duration": 0.3166666666666629
		},
		{
			"name": "D5",
			"midi": 74,
			"time": 187.25000000000003,
			"velocity": 0.6929133858267716,
			"duration": 0.3333333333333428
		},
		{
			"name": "G4",
			"midi": 67,
			"time": 187.50000000000003,
			"velocity": 0.6929133858267716,
			"duration": 0.30000000000001137
		},
		{
			"name": "D5",
			"midi": 74,
			"time": 187.75000000000003,
			"velocity": 0.7007874015748031,
			"duration": 0.3166666666666629
		},
		{
			"name": "G4",
			"midi": 67,
			"time": 188.00000000000003,
			"velocity": 0.6929133858267716,
			"duration": 0.28333333333333144
		},
		{
			"name": "D5",
			"midi": 74,
			"time": 188.25000000000003,
			"velocity": 0.6929133858267716,
			"duration": 0.3166666666666629
		},
		{
			"name": "G4",
			"midi": 67,
			"time": 188.50000000000003,
			"velocity": 0.6929133858267716,
			"duration": 0.28333333333333144
		},
		{
			"name": "D5",
			"midi": 74,
			"time": 188.75000000000003,
			"velocity": 0.6929133858267716,
			"duration": 0.30000000000001137
		},
		{
			"name": "D#5",
			"midi": 75,
			"time": 189.00000000000003,
			"velocity": 0.6929133858267716,
			"duration": 0.3166666666666629
		},
		{
			"name": "D5",
			"midi": 74,
			"time": 189.25000000000003,
			"velocity": 0.7007874015748031,
			"duration": 0.3333333333333428
		},
		{
			"name": "G4",
			"midi": 67,
			"time": 189.50000000000003,
			"velocity": 0.7007874015748031,
			"duration": 0.30000000000001137
		},
		{
			"name": "D5",
			"midi": 74,
			"time": 189.75000000000003,
			"velocity": 0.7007874015748031,
			"duration": 0.3166666666666629
		},
		{
			"name": "G4",
			"midi": 67,
			"time": 190.00000000000003,
			"velocity": 0.6929133858267716,
			"duration": 0.28333333333333144
		},
		{
			"name": "D5",
			"midi": 74,
			"time": 190.25000000000003,
			"velocity": 0.6929133858267716,
			"duration": 0.3166666666666629
		},
		{
			"name": "G4",
			"midi": 67,
			"time": 190.50000000000003,
			"velocity": 0.6929133858267716,
			"duration": 0.28333333333333144
		},
		{
			"name": "D5",
			"midi": 74,
			"time": 190.75000000000003,
			"velocity": 0.6929133858267716,
			"duration": 0.30000000000001137
		},
		{
			"name": "D#5",
			"midi": 75,
			"time": 191.00000000000003,
			"velocity": 0.6929133858267716,
			"duration": 0.3166666666666629
		},
		{
			"name": "D5",
			"midi": 74,
			"time": 191.25000000000003,
			"velocity": 0.6929133858267716,
			"duration": 0.3333333333333428
		},
		{
			"name": "G4",
			"midi": 67,
			"time": 191.50000000000003,
			"velocity": 0.6929133858267716,
			"duration": 0.30000000000001137
		},
		{
			"name": "D5",
			"midi": 74,
			"time": 191.75000000000003,
			"velocity": 0.6929133858267716,
			"duration": 0.3166666666666629
		},
		{
			"name": "G4",
			"midi": 67,
			"time": 192.00000000000003,
			"velocity": 0.6929133858267716,
			"duration": 0.28333333333333144
		},
		{
			"name": "D5",
			"midi": 74,
			"time": 192.25000000000003,
			"velocity": 0.7007874015748031,
			"duration": 0.3166666666666629
		},
		{
			"name": "G4",
			"midi": 67,
			"time": 192.50000000000003,
			"velocity": 0.7007874015748031,
			"duration": 0.28333333333333144
		},
		{
			"name": "D5",
			"midi": 74,
			"time": 192.75000000000003,
			"velocity": 0.7007874015748031,
			"duration": 0.30000000000001137
		},
		{
			"name": "D#5",
			"midi": 75,
			"time": 193.00000000000003,
			"velocity": 0.6929133858267716,
			"duration": 0.3166666666666629
		},
		{
			"name": "D5",
			"midi": 74,
			"time": 193.25000000000003,
			"velocity": 0.6929133858267716,
			"duration": 0.3333333333333428
		},
		{
			"name": "G4",
			"midi": 67,
			"time": 193.50000000000003,
			"velocity": 0.6929133858267716,
			"duration": 0.30000000000001137
		},
		{
			"name": "D5",
			"midi": 74,
			"time": 193.75000000000003,
			"velocity": 0.6929133858267716,
			"duration": 0.3166666666666629
		},
		{
			"name": "G4",
			"midi": 67,
			"time": 194.00000000000003,
			"velocity": 0.6929133858267716,
			"duration": 0.28333333333333144
		},
		{
			"name": "D5",
			"midi": 74,
			"time": 194.25000000000003,
			"velocity": 0.6929133858267716,
			"duration": 0.3166666666666629
		},
		{
			"name": "G4",
			"midi": 67,
			"time": 194.50000000000003,
			"velocity": 0.6929133858267716,
			"duration": 0.28333333333333144
		},
		{
			"name": "D5",
			"midi": 74,
			"time": 194.75000000000003,
			"velocity": 0.6929133858267716,
			"duration": 0.30000000000001137
		},
		{
			"name": "D#5",
			"midi": 75,
			"time": 195.00000000000003,
			"velocity": 0.6929133858267716,
			"duration": 0.3166666666666629
		},
		{
			"name": "D5",
			"midi": 74,
			"time": 195.25000000000003,
			"velocity": 0.6929133858267716,
			"duration": 0.3333333333333428
		},
		{
			"name": "G4",
			"midi": 67,
			"time": 195.50000000000003,
			"velocity": 0.6929133858267716,
			"duration": 0.30000000000001137
		},
		{
			"name": "D5",
			"midi": 74,
			"time": 195.75000000000003,
			"velocity": 0.7007874015748031,
			"duration": 0.3166666666666629
		},
		{
			"name": "G4",
			"midi": 67,
			"time": 196.00000000000003,
			"velocity": 0.6929133858267716,
			"duration": 0.28333333333333144
		},
		{
			"name": "D5",
			"midi": 74,
			"time": 196.25000000000003,
			"velocity": 0.6929133858267716,
			"duration": 0.3166666666666629
		},
		{
			"name": "G4",
			"midi": 67,
			"time": 196.50000000000003,
			"velocity": 0.6929133858267716,
			"duration": 0.28333333333333144
		},
		{
			"name": "D5",
			"midi": 74,
			"time": 196.75000000000003,
			"velocity": 0.6929133858267716,
			"duration": 0.30000000000001137
		},
		{
			"name": "D#5",
			"midi": 75,
			"time": 197.00000000000003,
			"velocity": 0.6929133858267716,
			"duration": 0.3166666666666629
		},
		{
			"name": "D5",
			"midi": 74,
			"time": 197.25000000000003,
			"velocity": 0.7007874015748031,
			"duration": 0.3333333333333428
		},
		{
			"name": "G4",
			"midi": 67,
			"time": 197.50000000000003,
			"velocity": 0.7007874015748031,
			"duration": 0.30000000000001137
		},
		{
			"name": "D5",
			"midi": 74,
			"time": 197.75000000000003,
			"velocity": 0.7007874015748031,
			"duration": 0.3166666666666629
		},
		{
			"name": "G4",
			"midi": 67,
			"time": 198.00000000000003,
			"velocity": 0.6929133858267716,
			"duration": 0.28333333333333144
		},
		{
			"name": "D5",
			"midi": 74,
			"time": 198.25000000000003,
			"velocity": 0.6929133858267716,
			"duration": 0.3166666666666629
		},
		{
			"name": "G4",
			"midi": 67,
			"time": 198.50000000000003,
			"velocity": 0.6929133858267716,
			"duration": 0.28333333333333144
		},
		{
			"name": "D5",
			"midi": 74,
			"time": 198.75000000000003,
			"velocity": 0.6929133858267716,
			"duration": 0.30000000000001137
		},
		{
			"name": "D#5",
			"midi": 75,
			"time": 199.00000000000003,
			"velocity": 0.6929133858267716,
			"duration": 0.3166666666666629
		},
		{
			"name": "D5",
			"midi": 74,
			"time": 199.25000000000003,
			"velocity": 0.6929133858267716,
			"duration": 0.3333333333333428
		},
		{
			"name": "G4",
			"midi": 67,
			"time": 199.50000000000003,
			"velocity": 0.6929133858267716,
			"duration": 0.30000000000001137
		},
		{
			"name": "D5",
			"midi": 74,
			"time": 199.75000000000003,
			"velocity": 0.6929133858267716,
			"duration": 0.3166666666666629
		},
		{
			"name": "G4",
			"midi": 67,
			"time": 200.00000000000003,
			"velocity": 0.6929133858267716,
			"duration": 0.28333333333333144
		},
		{
			"name": "D5",
			"midi": 74,
			"time": 200.25000000000003,
			"velocity": 0.7007874015748031,
			"duration": 0.3166666666666629
		},
		{
			"name": "G4",
			"midi": 67,
			"time": 200.50000000000003,
			"velocity": 0.7007874015748031,
			"duration": 0.28333333333333144
		},
		{
			"name": "D5",
			"midi": 74,
			"time": 200.75000000000003,
			"velocity": 0.7007874015748031,
			"duration": 0.30000000000001137
		},
		{
			"name": "D#5",
			"midi": 75,
			"time": 201.00000000000003,
			"velocity": 0.6929133858267716,
			"duration": 0.3166666666666629
		},
		{
			"name": "D5",
			"midi": 74,
			"time": 201.25000000000003,
			"velocity": 0.6929133858267716,
			"duration": 0.3333333333333428
		},
		{
			"name": "G4",
			"midi": 67,
			"time": 201.50000000000003,
			"velocity": 0.6929133858267716,
			"duration": 0.30000000000001137
		},
		{
			"name": "D5",
			"midi": 74,
			"time": 201.75000000000003,
			"velocity": 0.6929133858267716,
			"duration": 0.3166666666666629
		},
		{
			"name": "G4",
			"midi": 67,
			"time": 202.00000000000003,
			"velocity": 0.6929133858267716,
			"duration": 0.28333333333333144
		},
		{
			"name": "D5",
			"midi": 74,
			"time": 202.25000000000003,
			"velocity": 0.6929133858267716,
			"duration": 0.3166666666666629
		},
		{
			"name": "G4",
			"midi": 67,
			"time": 202.50000000000003,
			"velocity": 0.6929133858267716,
			"duration": 0.28333333333333144
		},
		{
			"name": "D5",
			"midi": 74,
			"time": 202.75000000000003,
			"velocity": 0.6929133858267716,
			"duration": 0.30000000000001137
		},
		{
			"name": "D#5",
			"midi": 75,
			"time": 203.00000000000003,
			"velocity": 0.6929133858267716,
			"duration": 0.3166666666666629
		},
		{
			"name": "D5",
			"midi": 74,
			"time": 203.25000000000003,
			"velocity": 0.6929133858267716,
			"duration": 0.3333333333333428
		},
		{
			"name": "G4",
			"midi": 67,
			"time": 203.50000000000003,
			"velocity": 0.6929133858267716,
			"duration": 0.30000000000001137
		},
		{
			"name": "D5",
			"midi": 74,
			"time": 203.75000000000003,
			"velocity": 0.7007874015748031,
			"duration": 0.3166666666666629
		},
		{
			"name": "G4",
			"midi": 67,
			"time": 204.00000000000003,
			"velocity": 0.6929133858267716,
			"duration": 0.28333333333333144
		},
		{
			"name": "D5",
			"midi": 74,
			"time": 204.25000000000003,
			"velocity": 0.6929133858267716,
			"duration": 0.3166666666666629
		},
		{
			"name": "G4",
			"midi": 67,
			"time": 204.50000000000003,
			"velocity": 0.6929133858267716,
			"duration": 0.28333333333333144
		},
		{
			"name": "D5",
			"midi": 74,
			"time": 204.75000000000003,
			"velocity": 0.6929133858267716,
			"duration": 0.30000000000001137
		},
		{
			"name": "D#5",
			"midi": 75,
			"time": 205.00000000000003,
			"velocity": 0.6929133858267716,
			"duration": 0.3166666666666629
		},
		{
			"name": "D5",
			"midi": 74,
			"time": 205.25000000000003,
			"velocity": 0.7007874015748031,
			"duration": 0.3333333333333428
		},
		{
			"name": "G4",
			"midi": 67,
			"time": 205.50000000000003,
			"velocity": 0.7007874015748031,
			"duration": 0.30000000000001137
		},
		{
			"name": "D5",
			"midi": 74,
			"time": 205.75000000000003,
			"velocity": 0.7007874015748031,
			"duration": 2.2166666666666686
		}
	]
}
