{
  "header": {
    "PPQ": 120,
    "timeSignature": [
      4,
      4
    ],
    "bpm": 116.00008506672904,
    "name": ""
  },
  "startTime": 0,
  "duration": 157.24126400000256,
  "tracks": [
    {
      "startTime": 0,
      "duration": 157.24126400000256,
      "length": 5540,
      "notes": [
        {
          "name": "B4",
          "midi": 71,
          "time": 0,
          "velocity": 0.7874015748031497,
          "duration": 0.7758615
        },
        {
          "name": "F#5",
          "midi": 78,
          "time": 0,
          "velocity": 0.7874015748031497,
          "duration": 0.7758615
        },
        {
          "name": "D5",
          "midi": 74,
          "time": 0,
          "velocity": 0.7874015748031497,
          "duration": 0.7758615
        },
        {
          "name": "E3",
          "midi": 52,
          "time": 0,
          "velocity": 0.7874015748031497,
          "duration": 0.4999996333333334
        },
        {
          "name": "E2",
          "midi": 40,
          "time": 0,
          "velocity": 0.8740157480314961,
          "duration": 0.24568947500000002
        },
        {
          "name": "B3",
          "midi": 59,
          "time": 0,
          "velocity": 0.6299212598425197,
          "duration": 0.04310341666666667
        },
        {
          "name": "D4",
          "midi": 62,
          "time": 0,
          "velocity": 0.6299212598425197,
          "duration": 0.7586201333333333
        },
        {
          "name": "F#4",
          "midi": 66,
          "time": 0,
          "velocity": 0.6299212598425197,
          "duration": 0.7586201333333333
        },
        {
          "name": "G4",
          "midi": 67,
          "time": 0,
          "velocity": 0.6299212598425197,
          "duration": 0.7672408166666667
        },
        {
          "name": "E2",
          "midi": 40,
          "time": 0,
          "velocity": 0.6692913385826772,
          "duration": 0.5043099750000001
        },
        {
          "name": "B2",
          "midi": 47,
          "time": 0,
          "velocity": 0.6692913385826772,
          "duration": 0.5086203166666667
        },
        {
          "name": "E3",
          "midi": 52,
          "time": 0,
          "velocity": 0.6692913385826772,
          "duration": 0.5172410000000001
        },
        {
          "name": "F#3",
          "midi": 54,
          "time": 0,
          "velocity": 0.5511811023622047,
          "duration": 0.7672408166666667
        },
        {
          "name": "G3",
          "midi": 55,
          "time": 0,
          "velocity": 0.5511811023622047,
          "duration": 0.7672408166666667
        },
        {
          "name": "B3",
          "midi": 59,
          "time": 0,
          "velocity": 0.5511811023622047,
          "duration": 0.3017239166666667
        },
        {
          "name": "D4",
          "midi": 62,
          "time": 0,
          "velocity": 0.5511811023622047,
          "duration": 0.762930475
        },
        {
          "name": "B1",
          "midi": 35,
          "time": 0,
          "velocity": 0.8740157480314961,
          "duration": 0.04310341666666667
        },
        {
          "name": "B3",
          "midi": 59,
          "time": 0,
          "velocity": 0.8582677165354331,
          "duration": 0.5603444166666667
        },
        {
          "name": "B2",
          "midi": 47,
          "time": 0.25862050000000003,
          "velocity": 0.7007874015748031,
          "duration": 0.25862050000000003
        },
        {
          "name": "B3",
          "midi": 59,
          "time": 0.25862050000000003,
          "velocity": 0.7007874015748031,
          "duration": 0.5086203166666666
        },
        {
          "name": "E3",
          "midi": 52,
          "time": 0.5172410000000001,
          "velocity": 0.7874015748031497,
          "duration": 0.24137913333333327
        },
        {
          "name": "G2",
          "midi": 43,
          "time": 0.5172410000000001,
          "velocity": 0.7007874015748031,
          "duration": 0.2586204999999999
        },
        {
          "name": "E2",
          "midi": 40,
          "time": 0.5172410000000001,
          "velocity": 0.5905511811023622,
          "duration": 0.043103416666666616
        },
        {
          "name": "B2",
          "midi": 47,
          "time": 0.5172410000000001,
          "velocity": 0.5905511811023622,
          "duration": 0.2499998166666666
        },
        {
          "name": "E3",
          "midi": 52,
          "time": 0.5172410000000001,
          "velocity": 0.5905511811023622,
          "duration": 0.5172409999999998
        },
        {
          "name": "E2",
          "midi": 40,
          "time": 0.5172410000000001,
          "velocity": 0.8503937007874016,
          "duration": 0.24568947499999994
        },
        {
          "name": "F#2",
          "midi": 42,
          "time": 0.5172410000000001,
          "velocity": 0.8503937007874016,
          "duration": 0.043103416666666616
        },
        {
          "name": "B3",
          "midi": 59,
          "time": 0.5172410000000001,
          "velocity": 0.6929133858267716,
          "duration": 0.2499998166666666
        },
        {
          "name": "A4",
          "midi": 69,
          "time": 0.7758615,
          "velocity": 0.7874015748031497,
          "duration": 0.7758615000000002
        },
        {
          "name": "C#5",
          "midi": 73,
          "time": 0.7758615,
          "velocity": 0.7874015748031497,
          "duration": 0.7758615000000002
        },
        {
          "name": "E5",
          "midi": 76,
          "time": 0.7758615,
          "velocity": 0.7874015748031497,
          "duration": 0.7758615000000002
        },
        {
          "name": "A2",
          "midi": 45,
          "time": 0.7758615,
          "velocity": 0.8503937007874016,
          "duration": 0.5172410000000001
        },
        {
          "name": "C#4",
          "midi": 61,
          "time": 0.7758615,
          "velocity": 0.5511811023622047,
          "duration": 0.5086203166666667
        },
        {
          "name": "E4",
          "midi": 64,
          "time": 0.7758615,
          "velocity": 0.5511811023622047,
          "duration": 1.2758611333333336
        },
        {
          "name": "A4",
          "midi": 69,
          "time": 0.7758615,
          "velocity": 0.5511811023622047,
          "duration": 1.2801714750000004
        },
        {
          "name": "A2",
          "midi": 45,
          "time": 0.7758615,
          "velocity": 0.5905511811023622,
          "duration": 0.7586201333333333
        },
        {
          "name": "E3",
          "midi": 52,
          "time": 0.7758615,
          "velocity": 0.5905511811023622,
          "duration": 0.504309975
        },
        {
          "name": "A3",
          "midi": 57,
          "time": 0.7758615,
          "velocity": 0.5905511811023622,
          "duration": 0.5086203166666667
        },
        {
          "name": "E3",
          "midi": 52,
          "time": 0.7758615,
          "velocity": 0.6692913385826772,
          "duration": 0.7672408166666669
        },
        {
          "name": "A3",
          "midi": 57,
          "time": 0.7758615,
          "velocity": 0.6692913385826772,
          "duration": 0.7629304750000001
        },
        {
          "name": "C#4",
          "midi": 61,
          "time": 0.7758615,
          "velocity": 0.6692913385826772,
          "duration": 1.0215509750000002
        },
        {
          "name": "B3",
          "midi": 59,
          "time": 0.7758615,
          "velocity": 0.5354330708661418,
          "duration": 0.043103416666666616
        },
        {
          "name": "A3",
          "midi": 57,
          "time": 1.034482,
          "velocity": 0.7874015748031497,
          "duration": 0.5172410000000003
        },
        {
          "name": "B1",
          "midi": 35,
          "time": 1.034482,
          "velocity": 0.8582677165354331,
          "duration": 0.043103416666666616
        },
        {
          "name": "B3",
          "midi": 59,
          "time": 1.034482,
          "velocity": 0.8582677165354331,
          "duration": 0.043103416666666616
        },
        {
          "name": "E3",
          "midi": 52,
          "time": 1.2931025,
          "velocity": 0.7007874015748031,
          "duration": 0.25862050000000014
        },
        {
          "name": "E3",
          "midi": 52,
          "time": 1.2931025,
          "velocity": 0.5511811023622047,
          "duration": 0.5043099750000002
        },
        {
          "name": "A3",
          "midi": 57,
          "time": 1.2931025,
          "velocity": 0.5511811023622047,
          "duration": 0.4999996333333334
        },
        {
          "name": "C#4",
          "midi": 61,
          "time": 1.2931025,
          "velocity": 0.5511811023622047,
          "duration": 0.7586201333333336
        },
        {
          "name": "B3",
          "midi": 59,
          "time": 1.2931025,
          "velocity": 0.7007874015748031,
          "duration": 0.043103416666666616
        },
        {
          "name": "A4",
          "midi": 69,
          "time": 1.5517230000000002,
          "velocity": 0.7874015748031497,
          "duration": 0.5172410000000005
        },
        {
          "name": "A3",
          "midi": 57,
          "time": 1.5517230000000002,
          "velocity": 0.7874015748031497,
          "duration": 0.5043099750000002
        },
        {
          "name": "F#3",
          "midi": 54,
          "time": 1.5517230000000002,
          "velocity": 0.8582677165354331,
          "duration": 0.25862050000000014
        },
        {
          "name": "A2",
          "midi": 45,
          "time": 1.5517230000000002,
          "velocity": 0.5905511811023622,
          "duration": 0.508620316666667
        },
        {
          "name": "E3",
          "midi": 52,
          "time": 1.5517230000000002,
          "velocity": 0.5905511811023622,
          "duration": 0.4999996333333334
        },
        {
          "name": "A3",
          "midi": 57,
          "time": 1.5517230000000002,
          "velocity": 0.5905511811023622,
          "duration": 0.5043099750000002
        },
        {
          "name": "E2",
          "midi": 40,
          "time": 1.5517230000000002,
          "velocity": 0.8661417322834646,
          "duration": 0.043103416666666616
        },
        {
          "name": "F#2",
          "midi": 42,
          "time": 1.5517230000000002,
          "velocity": 0.8503937007874016,
          "duration": 0.043103416666666616
        },
        {
          "name": "B3",
          "midi": 59,
          "time": 1.5517230000000002,
          "velocity": 0.7007874015748031,
          "duration": 0.043103416666666616
        },
        {
          "name": "E3",
          "midi": 52,
          "time": 1.8103435000000003,
          "velocity": 0.7086614173228346,
          "duration": 0.24999981666666682
        },
        {
          "name": "E3",
          "midi": 52,
          "time": 1.8103435000000003,
          "velocity": 0.5511811023622047,
          "duration": 0.25862050000000036
        },
        {
          "name": "A3",
          "midi": 57,
          "time": 1.8103435000000003,
          "velocity": 0.5511811023622047,
          "duration": 0.25862050000000036
        },
        {
          "name": "C#4",
          "midi": 61,
          "time": 1.8103435000000003,
          "velocity": 0.5511811023622047,
          "duration": 0.24568947500000005
        },
        {
          "name": "B1",
          "midi": 35,
          "time": 1.8103435000000003,
          "velocity": 0.5748031496062992,
          "duration": 0.043103416666666616
        },
        {
          "name": "B3",
          "midi": 59,
          "time": 1.8103435000000003,
          "velocity": 0.5748031496062992,
          "duration": 0.043103416666666616
        },
        {
          "name": "A4",
          "midi": 69,
          "time": 2.0689640000000007,
          "velocity": 0.7874015748031497,
          "duration": 0.7672408166666673
        },
        {
          "name": "C#5",
          "midi": 73,
          "time": 2.0689640000000007,
          "velocity": 0.7874015748031497,
          "duration": 0.7758615000000009
        },
        {
          "name": "E5",
          "midi": 76,
          "time": 2.0689640000000007,
          "velocity": 0.7874015748031497,
          "duration": 0.7758615000000009
        },
        {
          "name": "F#3",
          "midi": 54,
          "time": 2.0689640000000007,
          "velocity": 0.7874015748031497,
          "duration": 0.49999963333333364
        },
        {
          "name": "F#2",
          "midi": 42,
          "time": 2.0689640000000007,
          "velocity": 0.8661417322834646,
          "duration": 0.49999963333333364
        },
        {
          "name": "C#4",
          "midi": 61,
          "time": 2.0689640000000007,
          "velocity": 0.6299212598425197,
          "duration": 0.7629304750000006
        },
        {
          "name": "E4",
          "midi": 64,
          "time": 2.0689640000000007,
          "velocity": 0.6299212598425197,
          "duration": 0.7586201333333338
        },
        {
          "name": "A4",
          "midi": 69,
          "time": 2.0689640000000007,
          "velocity": 0.6299212598425197,
          "duration": 0.7758615000000009
        },
        {
          "name": "F#2",
          "midi": 42,
          "time": 2.0689640000000007,
          "velocity": 0.6692913385826772,
          "duration": 0.5603444166666671
        },
        {
          "name": "C#3",
          "midi": 49,
          "time": 2.0689640000000007,
          "velocity": 0.6692913385826772,
          "duration": 0.5043099750000004
        },
        {
          "name": "F#3",
          "midi": 54,
          "time": 2.0689640000000007,
          "velocity": 0.6692913385826772,
          "duration": 0.5172410000000003
        },
        {
          "name": "E3",
          "midi": 52,
          "time": 2.0689640000000007,
          "velocity": 0.5511811023622047,
          "duration": 0.7586201333333338
        },
        {
          "name": "A3",
          "midi": 57,
          "time": 2.0689640000000007,
          "velocity": 0.5511811023622047,
          "duration": 0.7629304750000006
        },
        {
          "name": "C#4",
          "midi": 61,
          "time": 2.0689640000000007,
          "velocity": 0.5511811023622047,
          "duration": 0.7672408166666673
        },
        {
          "name": "B1",
          "midi": 35,
          "time": 2.0689640000000007,
          "velocity": 0.8582677165354331,
          "duration": 0.04310341666666684
        },
        {
          "name": "B3",
          "midi": 59,
          "time": 2.0689640000000007,
          "velocity": 0.8582677165354331,
          "duration": 0.04310341666666684
        },
        {
          "name": "B3",
          "midi": 59,
          "time": 2.327584500000001,
          "velocity": 0.6929133858267716,
          "duration": 0.04310341666666684
        },
        {
          "name": "F#3",
          "midi": 54,
          "time": 2.586205000000001,
          "velocity": 0.7874015748031497,
          "duration": 0.2413791333333335
        },
        {
          "name": "F#2",
          "midi": 42,
          "time": 2.586205000000001,
          "velocity": 0.5905511811023622,
          "duration": 0.24999981666666704
        },
        {
          "name": "C#3",
          "midi": 49,
          "time": 2.586205000000001,
          "velocity": 0.5905511811023622,
          "duration": 0.2413791333333335
        },
        {
          "name": "F#3",
          "midi": 54,
          "time": 2.586205000000001,
          "velocity": 0.5905511811023622,
          "duration": 0.5172410000000007
        },
        {
          "name": "E2",
          "midi": 40,
          "time": 2.586205000000001,
          "velocity": 0.8740157480314961,
          "duration": 0.04310341666666684
        },
        {
          "name": "F#2",
          "midi": 42,
          "time": 2.586205000000001,
          "velocity": 0.8582677165354331,
          "duration": 0.2586205000000006
        },
        {
          "name": "B3",
          "midi": 59,
          "time": 2.586205000000001,
          "velocity": 0.5748031496062992,
          "duration": 0.04310341666666684
        },
        {
          "name": "B4",
          "midi": 71,
          "time": 2.8448255000000016,
          "velocity": 0.7874015748031497,
          "duration": 0.7758615000000004
        },
        {
          "name": "D5",
          "midi": 74,
          "time": 2.8448255000000016,
          "velocity": 0.7874015748031497,
          "duration": 0.7758615000000004
        },
        {
          "name": "F#5",
          "midi": 78,
          "time": 2.8448255000000016,
          "velocity": 0.7874015748031497,
          "duration": 0.7758615000000004
        },
        {
          "name": "B2",
          "midi": 47,
          "time": 2.8448255000000016,
          "velocity": 0.8503937007874016,
          "duration": 0.24568947500000027
        },
        {
          "name": "A3",
          "midi": 57,
          "time": 2.8448255000000016,
          "velocity": 0.6299212598425197,
          "duration": 0.5043099750000004
        },
        {
          "name": "D4",
          "midi": 62,
          "time": 2.8448255000000016,
          "velocity": 0.6299212598425197,
          "duration": 1.2801714750000013
        },
        {
          "name": "F#4",
          "midi": 66,
          "time": 2.8448255000000016,
          "velocity": 0.6299212598425197,
          "duration": 1.2758611333333345
        },
        {
          "name": "B2",
          "midi": 47,
          "time": 2.8448255000000016,
          "velocity": 0.6692913385826772,
          "duration": 0.7758615000000004
        },
        {
          "name": "F#3",
          "midi": 54,
          "time": 2.8448255000000016,
          "velocity": 0.6692913385826772,
          "duration": 0.49999963333333364
        },
        {
          "name": "B3",
          "midi": 59,
          "time": 2.8448255000000016,
          "velocity": 0.6692913385826772,
          "duration": 0.04310341666666684
        },
        {
          "name": "D3",
          "midi": 50,
          "time": 2.8448255000000016,
          "velocity": 0.6692913385826772,
          "duration": 0.5043099750000004
        },
        {
          "name": "F#3",
          "midi": 54,
          "time": 2.8448255000000016,
          "velocity": 0.6692913385826772,
          "duration": 1.0258613166666675
        },
        {
          "name": "A3",
          "midi": 57,
          "time": 2.8448255000000016,
          "velocity": 0.6692913385826772,
          "duration": 1.0215509750000007
        },
        {
          "name": "B1",
          "midi": 35,
          "time": 2.8448255000000016,
          "velocity": 0.5354330708661418,
          "duration": 0.04310341666666684
        },
        {
          "name": "B3",
          "midi": 59,
          "time": 2.8448255000000016,
          "velocity": 0.8740157480314961,
          "duration": 0.301723916666667
        },
        {
          "name": "B3",
          "midi": 59,
          "time": 3.1034460000000017,
          "velocity": 0.7874015748031497,
          "duration": 0.301723916666667
        },
        {
          "name": "D3",
          "midi": 50,
          "time": 3.1034460000000017,
          "velocity": 0.7165354330708661,
          "duration": 0.25862050000000014
        },
        {
          "name": "B1",
          "midi": 35,
          "time": 3.1034460000000017,
          "velocity": 0.8740157480314961,
          "duration": 0.04310341666666684
        },
        {
          "name": "B3",
          "midi": 59,
          "time": 3.1034460000000017,
          "velocity": 0.7007874015748031,
          "duration": 0.5172410000000003
        },
        {
          "name": "B2",
          "midi": 47,
          "time": 3.362066500000002,
          "velocity": 0.6929133858267716,
          "duration": 0.7586201333333342
        },
        {
          "name": "D3",
          "midi": 50,
          "time": 3.362066500000002,
          "velocity": 0.5511811023622047,
          "duration": 0.5043099750000004
        },
        {
          "name": "F#3",
          "midi": 54,
          "time": 3.362066500000002,
          "velocity": 0.5511811023622047,
          "duration": 0.7586201333333342
        },
        {
          "name": "A3",
          "midi": 57,
          "time": 3.362066500000002,
          "velocity": 0.5511811023622047,
          "duration": 0.7672408166666678
        },
        {
          "name": "B3",
          "midi": 59,
          "time": 3.362066500000002,
          "velocity": 0.7007874015748031,
          "duration": 0.301723916666667
        },
        {
          "name": "A5",
          "midi": 81,
          "time": 3.620687000000002,
          "velocity": 0.7874015748031497,
          "duration": 0.12931025000000007
        },
        {
          "name": "B3",
          "midi": 59,
          "time": 3.620687000000002,
          "velocity": 0.7874015748031497,
          "duration": 0.3017239166666674
        },
        {
          "name": "A2",
          "midi": 45,
          "time": 3.620687000000002,
          "velocity": 0.7007874015748031,
          "duration": 0.2586205000000006
        },
        {
          "name": "E2",
          "midi": 40,
          "time": 3.620687000000002,
          "velocity": 0.8661417322834646,
          "duration": 0.04310341666666684
        },
        {
          "name": "F#2",
          "midi": 42,
          "time": 3.620687000000002,
          "velocity": 0.8740157480314961,
          "duration": 0.04310341666666684
        },
        {
          "name": "B3",
          "midi": 59,
          "time": 3.620687000000002,
          "velocity": 0.7086614173228346,
          "duration": 0.4999996333333341
        },
        {
          "name": "G5",
          "midi": 79,
          "time": 3.749997250000002,
          "velocity": 0.7874015748031497,
          "duration": 0.12931025000000052
        },
        {
          "name": "F#5",
          "midi": 78,
          "time": 3.8793075000000026,
          "velocity": 0.7874015748031497,
          "duration": 0.12931025000000007
        },
        {
          "name": "F#2",
          "midi": 42,
          "time": 3.8793075000000026,
          "velocity": 0.6929133858267716,
          "duration": 0.2586205000000006
        },
        {
          "name": "D3",
          "midi": 50,
          "time": 3.8793075000000026,
          "velocity": 0.5511811023622047,
          "duration": 0.24568947500000027
        },
        {
          "name": "F#3",
          "midi": 54,
          "time": 3.8793075000000026,
          "velocity": 0.5511811023622047,
          "duration": 0.24568947500000027
        },
        {
          "name": "A3",
          "midi": 57,
          "time": 3.8793075000000026,
          "velocity": 0.5511811023622047,
          "duration": 0.24999981666666704
        },
        {
          "name": "B3",
          "midi": 59,
          "time": 3.8793075000000026,
          "velocity": 0.5275590551181102,
          "duration": 0.2586205000000006
        },
        {
          "name": "E5",
          "midi": 76,
          "time": 4.008617750000003,
          "velocity": 0.7874015748031497,
          "duration": 0.12931025000000052
        },
        {
          "name": "G4",
          "midi": 67,
          "time": 4.137928000000003,
          "velocity": 0.7874015748031497,
          "duration": 0.7758615000000013
        },
        {
          "name": "B4",
          "midi": 71,
          "time": 4.137928000000003,
          "velocity": 0.7874015748031497,
          "duration": 0.7758615000000013
        },
        {
          "name": "D5",
          "midi": 74,
          "time": 4.137928000000003,
          "velocity": 0.7874015748031497,
          "duration": 0.7758615000000013
        },
        {
          "name": "F#5",
          "midi": 78,
          "time": 4.137928000000003,
          "velocity": 0.7874015748031497,
          "duration": 0.7758615000000013
        },
        {
          "name": "E3",
          "midi": 52,
          "time": 4.137928000000003,
          "velocity": 0.7874015748031497,
          "duration": 0.5086203166666667
        },
        {
          "name": "E2",
          "midi": 40,
          "time": 4.137928000000003,
          "velocity": 0.8740157480314961,
          "duration": 0.5086203166666667
        },
        {
          "name": "G3",
          "midi": 55,
          "time": 4.137928000000003,
          "velocity": 0.6299212598425197,
          "duration": 0.762930475000001
        },
        {
          "name": "B3",
          "midi": 59,
          "time": 4.137928000000003,
          "velocity": 0.6299212598425197,
          "duration": 0.04310341666666684
        },
        {
          "name": "D4",
          "midi": 62,
          "time": 4.137928000000003,
          "velocity": 0.6299212598425197,
          "duration": 0.7672408166666678
        },
        {
          "name": "F#4",
          "midi": 66,
          "time": 4.137928000000003,
          "velocity": 0.6299212598425197,
          "duration": 0.7672408166666678
        },
        {
          "name": "E2",
          "midi": 40,
          "time": 4.137928000000003,
          "velocity": 0.6692913385826772,
          "duration": 0.5603444166666671
        },
        {
          "name": "B2",
          "midi": 47,
          "time": 4.137928000000003,
          "velocity": 0.6692913385826772,
          "duration": 0.504309975
        },
        {
          "name": "E3",
          "midi": 52,
          "time": 4.137928000000003,
          "velocity": 0.6692913385826772,
          "duration": 0.5172410000000003
        },
        {
          "name": "D3",
          "midi": 50,
          "time": 4.137928000000003,
          "velocity": 0.5511811023622047,
          "duration": 0.7586201333333342
        },
        {
          "name": "F#3",
          "midi": 54,
          "time": 4.137928000000003,
          "velocity": 0.5511811023622047,
          "duration": 0.762930475000001
        },
        {
          "name": "G3",
          "midi": 55,
          "time": 4.137928000000003,
          "velocity": 0.5511811023622047,
          "duration": 0.762930475000001
        },
        {
          "name": "B3",
          "midi": 59,
          "time": 4.137928000000003,
          "velocity": 0.5511811023622047,
          "duration": 0.301723916666667
        },
        {
          "name": "B1",
          "midi": 35,
          "time": 4.137928000000003,
          "velocity": 0.8503937007874016,
          "duration": 0.04310341666666684
        },
        {
          "name": "B3",
          "midi": 59,
          "time": 4.137928000000003,
          "velocity": 0.8582677165354331,
          "duration": 0.5603444166666671
        },
        {
          "name": "B3",
          "midi": 59,
          "time": 4.396548500000003,
          "velocity": 0.7007874015748031,
          "duration": 0.4999996333333341
        },
        {
          "name": "E3",
          "midi": 52,
          "time": 4.655169000000003,
          "velocity": 0.7874015748031497,
          "duration": 0.24999981666666748
        },
        {
          "name": "E2",
          "midi": 40,
          "time": 4.655169000000003,
          "velocity": 0.5905511811023622,
          "duration": 0.24999981666666748
        },
        {
          "name": "B2",
          "midi": 47,
          "time": 4.655169000000003,
          "velocity": 0.5905511811023622,
          "duration": 0.24137913333333394
        },
        {
          "name": "E3",
          "midi": 52,
          "time": 4.655169000000003,
          "velocity": 0.5905511811023622,
          "duration": 0.5172410000000012
        },
        {
          "name": "E2",
          "midi": 40,
          "time": 4.655169000000003,
          "velocity": 0.8740157480314961,
          "duration": 0.25862050000000103
        },
        {
          "name": "F#2",
          "midi": 42,
          "time": 4.655169000000003,
          "velocity": 0.8503937007874016,
          "duration": 0.04310341666666684
        },
        {
          "name": "B3",
          "midi": 59,
          "time": 4.655169000000003,
          "velocity": 0.6929133858267716,
          "duration": 0.2456894750000007
        },
        {
          "name": "A4",
          "midi": 69,
          "time": 4.9137895000000045,
          "velocity": 0.7874015748031497,
          "duration": 0.7758615000000022
        },
        {
          "name": "C#5",
          "midi": 73,
          "time": 4.9137895000000045,
          "velocity": 0.7874015748031497,
          "duration": 0.7758615000000022
        },
        {
          "name": "E5",
          "midi": 76,
          "time": 4.9137895000000045,
          "velocity": 0.7874015748031497,
          "duration": 0.7758615000000022
        },
        {
          "name": "A2",
          "midi": 45,
          "time": 4.9137895000000045,
          "velocity": 0.8503937007874016,
          "duration": 0.5172410000000012
        },
        {
          "name": "A3",
          "midi": 57,
          "time": 4.9137895000000045,
          "velocity": 0.6299212598425197,
          "duration": 0.4999996333333341
        },
        {
          "name": "C#4",
          "midi": 61,
          "time": 4.9137895000000045,
          "velocity": 0.6299212598425197,
          "duration": 0.5086203166666676
        },
        {
          "name": "E4",
          "midi": 64,
          "time": 4.9137895000000045,
          "velocity": 0.6299212598425197,
          "duration": 1.2758611333333372
        },
        {
          "name": "A2",
          "midi": 45,
          "time": 4.9137895000000045,
          "velocity": 0.5905511811023622,
          "duration": 0.7586201333333351
        },
        {
          "name": "E3",
          "midi": 52,
          "time": 4.9137895000000045,
          "velocity": 0.5905511811023622,
          "duration": 0.5086203166666676
        },
        {
          "name": "A3",
          "midi": 57,
          "time": 4.9137895000000045,
          "velocity": 0.5905511811023622,
          "duration": 0.7672408166666687
        },
        {
          "name": "E3",
          "midi": 52,
          "time": 4.9137895000000045,
          "velocity": 0.6692913385826772,
          "duration": 0.7672408166666687
        },
        {
          "name": "A3",
          "midi": 57,
          "time": 4.9137895000000045,
          "velocity": 0.6692913385826772,
          "duration": 0.7758615000000022
        },
        {
          "name": "C#4",
          "midi": 61,
          "time": 4.9137895000000045,
          "velocity": 0.6692913385826772,
          "duration": 1.0172406333333361
        },
        {
          "name": "B1",
          "midi": 35,
          "time": 4.9137895000000045,
          "velocity": 0.5433070866141733,
          "duration": 0.04310341666666684
        },
        {
          "name": "B3",
          "midi": 59,
          "time": 4.9137895000000045,
          "velocity": 0.5354330708661418,
          "duration": 0.04310341666666684
        },
        {
          "name": "A3",
          "midi": 57,
          "time": 5.172410000000005,
          "velocity": 0.7874015748031497,
          "duration": 0.7629304750000028
        },
        {
          "name": "B1",
          "midi": 35,
          "time": 5.172410000000005,
          "velocity": 0.8582677165354331,
          "duration": 0.04310341666666684
        },
        {
          "name": "B3",
          "midi": 59,
          "time": 5.172410000000005,
          "velocity": 0.8582677165354331,
          "duration": 0.04310341666666684
        },
        {
          "name": "E3",
          "midi": 52,
          "time": 5.431030500000006,
          "velocity": 0.7007874015748031,
          "duration": 0.25862050000000103
        },
        {
          "name": "E3",
          "midi": 52,
          "time": 5.431030500000006,
          "velocity": 0.5511811023622047,
          "duration": 0.49999963333333497
        },
        {
          "name": "A3",
          "midi": 57,
          "time": 5.431030500000006,
          "velocity": 0.5511811023622047,
          "duration": 0.758620133333336
        },
        {
          "name": "C#4",
          "midi": 61,
          "time": 5.431030500000006,
          "velocity": 0.5511811023622047,
          "duration": 0.758620133333336
        },
        {
          "name": "B3",
          "midi": 59,
          "time": 5.431030500000006,
          "velocity": 0.7007874015748031,
          "duration": 0.04310341666666684
        },
        {
          "name": "A4",
          "midi": 69,
          "time": 5.689651000000007,
          "velocity": 0.7874015748031497,
          "duration": 0.5172410000000021
        },
        {
          "name": "A3",
          "midi": 57,
          "time": 5.689651000000007,
          "velocity": 0.7874015748031497,
          "duration": 0.5043099750000017
        },
        {
          "name": "F#3",
          "midi": 54,
          "time": 5.689651000000007,
          "velocity": 0.8503937007874016,
          "duration": 0.25862050000000103
        },
        {
          "name": "A2",
          "midi": 45,
          "time": 5.689651000000007,
          "velocity": 0.5905511811023622,
          "duration": 0.5086203166666685
        },
        {
          "name": "E3",
          "midi": 52,
          "time": 5.689651000000007,
          "velocity": 0.5905511811023622,
          "duration": 0.5086203166666685
        },
        {
          "name": "A3",
          "midi": 57,
          "time": 5.689651000000007,
          "velocity": 0.5905511811023622,
          "duration": 0.5043099750000017
        },
        {
          "name": "E2",
          "midi": 40,
          "time": 5.689651000000007,
          "velocity": 0.8503937007874016,
          "duration": 0.04310341666666684
        },
        {
          "name": "F#2",
          "midi": 42,
          "time": 5.689651000000007,
          "velocity": 0.8503937007874016,
          "duration": 0.04310341666666684
        },
        {
          "name": "B3",
          "midi": 59,
          "time": 5.689651000000007,
          "velocity": 0.7007874015748031,
          "duration": 0.04310341666666684
        },
        {
          "name": "E3",
          "midi": 52,
          "time": 5.948271500000008,
          "velocity": 0.7007874015748031,
          "duration": 0.24999981666666748
        },
        {
          "name": "E3",
          "midi": 52,
          "time": 5.948271500000008,
          "velocity": 0.5511811023622047,
          "duration": 0.25862050000000103
        },
        {
          "name": "A3",
          "midi": 57,
          "time": 5.948271500000008,
          "velocity": 0.5511811023622047,
          "duration": 0.25862050000000103
        },
        {
          "name": "C#4",
          "midi": 61,
          "time": 5.948271500000008,
          "velocity": 0.5511811023622047,
          "duration": 0.24999981666666748
        },
        {
          "name": "B1",
          "midi": 35,
          "time": 5.948271500000008,
          "velocity": 0.5511811023622047,
          "duration": 0.04310341666666684
        },
        {
          "name": "B3",
          "midi": 59,
          "time": 5.948271500000008,
          "velocity": 0.5748031496062992,
          "duration": 0.04310341666666684
        },
        {
          "name": "A4",
          "midi": 69,
          "time": 6.206892000000009,
          "velocity": 0.7874015748031497,
          "duration": 0.7672408166666687
        },
        {
          "name": "C#5",
          "midi": 73,
          "time": 6.206892000000009,
          "velocity": 0.7874015748031497,
          "duration": 0.7758615000000022
        },
        {
          "name": "E5",
          "midi": 76,
          "time": 6.206892000000009,
          "velocity": 0.7874015748031497,
          "duration": 0.7758615000000022
        },
        {
          "name": "F#3",
          "midi": 54,
          "time": 6.206892000000009,
          "velocity": 0.7874015748031497,
          "duration": 0.5086203166666676
        },
        {
          "name": "F#2",
          "midi": 42,
          "time": 6.206892000000009,
          "velocity": 0.8582677165354331,
          "duration": 0.5086203166666676
        },
        {
          "name": "C#4",
          "midi": 61,
          "time": 6.206892000000009,
          "velocity": 0.6299212598425197,
          "duration": 0.7629304750000019
        },
        {
          "name": "E4",
          "midi": 64,
          "time": 6.206892000000009,
          "velocity": 0.6299212598425197,
          "duration": 0.7672408166666687
        },
        {
          "name": "A4",
          "midi": 69,
          "time": 6.206892000000009,
          "velocity": 0.6299212598425197,
          "duration": 0.7758615000000022
        },
        {
          "name": "F#2",
          "midi": 42,
          "time": 6.206892000000009,
          "velocity": 0.6692913385826772,
          "duration": 0.560344416666668
        },
        {
          "name": "C#3",
          "midi": 49,
          "time": 6.206892000000009,
          "velocity": 0.6692913385826772,
          "duration": 0.4999996333333341
        },
        {
          "name": "F#3",
          "midi": 54,
          "time": 6.206892000000009,
          "velocity": 0.6692913385826772,
          "duration": 0.5172410000000012
        },
        {
          "name": "E3",
          "midi": 52,
          "time": 6.206892000000009,
          "velocity": 0.5511811023622047,
          "duration": 0.7629304750000019
        },
        {
          "name": "A3",
          "midi": 57,
          "time": 6.206892000000009,
          "velocity": 0.5511811023622047,
          "duration": 0.7586201333333351
        },
        {
          "name": "C#4",
          "midi": 61,
          "time": 6.206892000000009,
          "velocity": 0.5511811023622047,
          "duration": 0.7629304750000019
        },
        {
          "name": "B1",
          "midi": 35,
          "time": 6.206892000000009,
          "velocity": 0.8503937007874016,
          "duration": 0.04310341666666684
        },
        {
          "name": "B3",
          "midi": 59,
          "time": 6.206892000000009,
          "velocity": 0.8582677165354331,
          "duration": 0.04310341666666684
        },
        {
          "name": "B3",
          "midi": 59,
          "time": 6.465512500000009,
          "velocity": 0.6929133858267716,
          "duration": 0.04310341666666684
        },
        {
          "name": "B3",
          "midi": 59,
          "time": 6.72413300000001,
          "velocity": 0.7874015748031497,
          "duration": 0.04310341666666684
        },
        {
          "name": "F#2",
          "midi": 42,
          "time": 6.72413300000001,
          "velocity": 0.5905511811023622,
          "duration": 0.24137913333333394
        },
        {
          "name": "C#3",
          "midi": 49,
          "time": 6.72413300000001,
          "velocity": 0.5905511811023622,
          "duration": 0.24137913333333394
        },
        {
          "name": "F#3",
          "midi": 54,
          "time": 6.72413300000001,
          "velocity": 0.5905511811023622,
          "duration": 0.2456894750000007
        },
        {
          "name": "E2",
          "midi": 40,
          "time": 6.72413300000001,
          "velocity": 0.8661417322834646,
          "duration": 0.04310341666666684
        },
        {
          "name": "F#2",
          "midi": 42,
          "time": 6.72413300000001,
          "velocity": 0.8582677165354331,
          "duration": 0.25862050000000103
        },
        {
          "name": "B3",
          "midi": 59,
          "time": 6.72413300000001,
          "velocity": 0.5748031496062992,
          "duration": 0.30172391666666787
        },
        {
          "name": "F#4",
          "midi": 66,
          "time": 6.982753500000011,
          "velocity": 0.7874015748031497,
          "duration": 0.5172410000000012
        },
        {
          "name": "A4",
          "midi": 69,
          "time": 6.982753500000011,
          "velocity": 0.7874015748031497,
          "duration": 0.5172410000000012
        },
        {
          "name": "D5",
          "midi": 74,
          "time": 6.982753500000011,
          "velocity": 0.7874015748031497,
          "duration": 0.5172410000000012
        },
        {
          "name": "A2",
          "midi": 45,
          "time": 6.982753500000011,
          "velocity": 0.8740157480314961,
          "duration": 0.5172410000000012
        },
        {
          "name": "F#3",
          "midi": 54,
          "time": 6.982753500000011,
          "velocity": 0.6299212598425197,
          "duration": 0.5043099750000009
        },
        {
          "name": "A3",
          "midi": 57,
          "time": 6.982753500000011,
          "velocity": 0.6299212598425197,
          "duration": 0.4999996333333341
        },
        {
          "name": "D4",
          "midi": 62,
          "time": 6.982753500000011,
          "velocity": 0.6299212598425197,
          "duration": 0.7629304750000019
        },
        {
          "name": "D3",
          "midi": 50,
          "time": 6.982753500000011,
          "velocity": 0.5905511811023622,
          "duration": 0.4999996333333341
        },
        {
          "name": "A3",
          "midi": 57,
          "time": 6.982753500000011,
          "velocity": 0.5905511811023622,
          "duration": 0.7672408166666687
        },
        {
          "name": "D4",
          "midi": 62,
          "time": 6.982753500000011,
          "velocity": 0.5905511811023622,
          "duration": 1.2758611333333354
        },
        {
          "name": "D3",
          "midi": 50,
          "time": 6.982753500000011,
          "velocity": 0.6692913385826772,
          "duration": 0.7586201333333351
        },
        {
          "name": "F#3",
          "midi": 54,
          "time": 6.982753500000011,
          "velocity": 0.6692913385826772,
          "duration": 1.021550975000003
        },
        {
          "name": "A3",
          "midi": 57,
          "time": 6.982753500000011,
          "velocity": 0.6692913385826772,
          "duration": 0.7758615000000022
        },
        {
          "name": "B1",
          "midi": 35,
          "time": 6.982753500000011,
          "velocity": 0.5354330708661418,
          "duration": 0.04310341666666684
        },
        {
          "name": "B3",
          "midi": 59,
          "time": 6.982753500000011,
          "velocity": 0.8740157480314961,
          "duration": 0.25862050000000014
        },
        {
          "name": "A3",
          "midi": 57,
          "time": 7.241374000000011,
          "velocity": 0.7874015748031497,
          "duration": 0.7629304750000028
        },
        {
          "name": "B1",
          "midi": 35,
          "time": 7.241374000000011,
          "velocity": 0.8582677165354331,
          "duration": 0.04310341666666684
        },
        {
          "name": "B3",
          "midi": 59,
          "time": 7.241374000000011,
          "velocity": 0.7007874015748031,
          "duration": 0.04310341666666684
        },
        {
          "name": "A4",
          "midi": 69,
          "time": 7.499994500000012,
          "velocity": 0.7874015748031497,
          "duration": 0.12931025000000052
        },
        {
          "name": "E3",
          "midi": 52,
          "time": 7.499994500000012,
          "velocity": 0.7086614173228346,
          "duration": 0.2456894750000007
        },
        {
          "name": "D3",
          "midi": 50,
          "time": 7.499994500000012,
          "velocity": 0.5511811023622047,
          "duration": 0.5043099750000017
        },
        {
          "name": "F#3",
          "midi": 54,
          "time": 7.499994500000012,
          "velocity": 0.5511811023622047,
          "duration": 0.7586201333333342
        },
        {
          "name": "A3",
          "midi": 57,
          "time": 7.499994500000012,
          "velocity": 0.5511811023622047,
          "duration": 0.7586201333333342
        },
        {
          "name": "E2",
          "midi": 40,
          "time": 7.499994500000012,
          "velocity": 0.3464566929133858,
          "duration": 0.04310341666666684
        },
        {
          "name": "A4",
          "midi": 69,
          "time": 7.629304750000013,
          "velocity": 0.7874015748031497,
          "duration": 0.12931025000000052
        },
        {
          "name": "E2",
          "midi": 40,
          "time": 7.629304750000013,
          "velocity": 0.3543307086614173,
          "duration": 0.04310341666666684
        },
        {
          "name": "B4",
          "midi": 71,
          "time": 7.758615000000013,
          "velocity": 0.7874015748031497,
          "duration": 0.12931025000000052
        },
        {
          "name": "A3",
          "midi": 57,
          "time": 7.758615000000013,
          "velocity": 0.7874015748031497,
          "duration": 0.504309975
        },
        {
          "name": "E2",
          "midi": 40,
          "time": 7.758615000000013,
          "velocity": 0.7086614173228346,
          "duration": 0.04310341666666684
        },
        {
          "name": "D3",
          "midi": 50,
          "time": 7.758615000000013,
          "velocity": 0.5905511811023622,
          "duration": 0.4999996333333332
        },
        {
          "name": "A3",
          "midi": 57,
          "time": 7.758615000000013,
          "velocity": 0.5905511811023622,
          "duration": 0.5086203166666667
        },
        {
          "name": "D4",
          "midi": 62,
          "time": 7.758615000000013,
          "velocity": 0.5905511811023622,
          "duration": 0.5086203166666667
        },
        {
          "name": "E2",
          "midi": 40,
          "time": 7.758615000000013,
          "velocity": 0.8503937007874016,
          "duration": 0.17241366666666735
        },
        {
          "name": "D5",
          "midi": 74,
          "time": 7.887925250000014,
          "velocity": 0.7874015748031497,
          "duration": 0.12931025000000052
        },
        {
          "name": "E2",
          "midi": 40,
          "time": 7.887925250000014,
          "velocity": 0.33858267716535434,
          "duration": 0.12931025000000052
        },
        {
          "name": "B4",
          "midi": 71,
          "time": 8.017235500000014,
          "velocity": 0.7874015748031497,
          "duration": 0.12931024999999963
        },
        {
          "name": "F#2",
          "midi": 42,
          "time": 8.017235500000014,
          "velocity": 0.6929133858267716,
          "duration": 0.25862049999999925
        },
        {
          "name": "D3",
          "midi": 50,
          "time": 8.017235500000014,
          "velocity": 0.5511811023622047,
          "duration": 0.24568947499999894
        },
        {
          "name": "F#3",
          "midi": 54,
          "time": 8.017235500000014,
          "velocity": 0.5511811023622047,
          "duration": 0.2499998166666657
        },
        {
          "name": "A3",
          "midi": 57,
          "time": 8.017235500000014,
          "velocity": 0.5511811023622047,
          "duration": 0.25862049999999925
        },
        {
          "name": "E2",
          "midi": 40,
          "time": 8.017235500000014,
          "velocity": 0.8503937007874016,
          "duration": 0.04310341666666595
        },
        {
          "name": "D5",
          "midi": 74,
          "time": 8.146545750000014,
          "velocity": 0.7874015748031497,
          "duration": 0.12931024999999963
        },
        {
          "name": "E2",
          "midi": 40,
          "time": 8.146545750000014,
          "velocity": 0.7007874015748031,
          "duration": 0.04310341666666595
        },
        {
          "name": "A3",
          "midi": 57,
          "time": 8.271545658333347,
          "velocity": 0.8740157480314961,
          "duration": 0.004310341666666773
        },
        {
          "name": "B4",
          "midi": 71,
          "time": 8.275856000000013,
          "velocity": 0.7874015748031497,
          "duration": 0.7758614999999978
        },
        {
          "name": "F#5",
          "midi": 78,
          "time": 8.275856000000013,
          "velocity": 0.7874015748031497,
          "duration": 0.7758614999999978
        },
        {
          "name": "D5",
          "midi": 74,
          "time": 8.275856000000013,
          "velocity": 0.7874015748031497,
          "duration": 0.7758614999999978
        },
        {
          "name": "E3",
          "midi": 52,
          "time": 8.275856000000013,
          "velocity": 0.7874015748031497,
          "duration": 0.508620316666665
        },
        {
          "name": "E2",
          "midi": 40,
          "time": 8.275856000000013,
          "velocity": 0.8503937007874016,
          "duration": 0.5043099749999982
        },
        {
          "name": "B3",
          "midi": 59,
          "time": 8.275856000000013,
          "velocity": 0.6299212598425197,
          "duration": 0.04310341666666595
        },
        {
          "name": "D4",
          "midi": 62,
          "time": 8.275856000000013,
          "velocity": 0.6299212598425197,
          "duration": 0.7672408166666642
        },
        {
          "name": "F#4",
          "midi": 66,
          "time": 8.275856000000013,
          "velocity": 0.6299212598425197,
          "duration": 0.7672408166666642
        },
        {
          "name": "G4",
          "midi": 67,
          "time": 8.275856000000013,
          "velocity": 0.6299212598425197,
          "duration": 0.7629304749999974
        },
        {
          "name": "E2",
          "midi": 40,
          "time": 8.275856000000013,
          "velocity": 0.6692913385826772,
          "duration": 0.5603444166666645
        },
        {
          "name": "B2",
          "midi": 47,
          "time": 8.275856000000013,
          "velocity": 0.6692913385826772,
          "duration": 0.4999996333333314
        },
        {
          "name": "E3",
          "midi": 52,
          "time": 8.275856000000013,
          "velocity": 0.6692913385826772,
          "duration": 0.5172409999999985
        },
        {
          "name": "F#3",
          "midi": 54,
          "time": 8.275856000000013,
          "velocity": 0.5511811023622047,
          "duration": 0.7629304749999974
        },
        {
          "name": "G3",
          "midi": 55,
          "time": 8.275856000000013,
          "velocity": 0.5511811023622047,
          "duration": 0.7629304749999974
        },
        {
          "name": "B3",
          "midi": 59,
          "time": 8.275856000000013,
          "velocity": 0.5511811023622047,
          "duration": 0.3017239166666652
        },
        {
          "name": "D4",
          "midi": 62,
          "time": 8.275856000000013,
          "velocity": 0.5511811023622047,
          "duration": 0.7672408166666642
        },
        {
          "name": "B1",
          "midi": 35,
          "time": 8.275856000000013,
          "velocity": 0.8740157480314961,
          "duration": 0.04310341666666595
        },
        {
          "name": "B3",
          "midi": 59,
          "time": 8.275856000000013,
          "velocity": 0.8740157480314961,
          "duration": 0.5603444166666645
        },
        {
          "name": "B3",
          "midi": 59,
          "time": 8.534476500000013,
          "velocity": 0.6929133858267716,
          "duration": 0.4999996333333314
        },
        {
          "name": "E3",
          "midi": 52,
          "time": 8.793097000000012,
          "velocity": 0.7874015748031497,
          "duration": 0.24137913333333216
        },
        {
          "name": "E2",
          "midi": 40,
          "time": 8.793097000000012,
          "velocity": 0.5905511811023622,
          "duration": 0.24137913333333216
        },
        {
          "name": "B2",
          "midi": 47,
          "time": 8.793097000000012,
          "velocity": 0.5905511811023622,
          "duration": 0.24137913333333216
        },
        {
          "name": "E3",
          "midi": 52,
          "time": 8.793097000000012,
          "velocity": 0.5905511811023622,
          "duration": 0.5172409999999985
        },
        {
          "name": "E2",
          "midi": 40,
          "time": 8.793097000000012,
          "velocity": 0.8661417322834646,
          "duration": 0.25862049999999925
        },
        {
          "name": "F#2",
          "midi": 42,
          "time": 8.793097000000012,
          "velocity": 0.8582677165354331,
          "duration": 0.04310341666666595
        },
        {
          "name": "B3",
          "midi": 59,
          "time": 8.793097000000012,
          "velocity": 0.7086614173228346,
          "duration": 0.24137913333333216
        },
        {
          "name": "A4",
          "midi": 69,
          "time": 9.051717500000011,
          "velocity": 0.7874015748031497,
          "duration": 0.7758614999999978
        },
        {
          "name": "C#5",
          "midi": 73,
          "time": 9.051717500000011,
          "velocity": 0.7874015748031497,
          "duration": 0.7758614999999978
        },
        {
          "name": "E5",
          "midi": 76,
          "time": 9.051717500000011,
          "velocity": 0.7874015748031497,
          "duration": 0.7758614999999978
        },
        {
          "name": "A2",
          "midi": 45,
          "time": 9.051717500000011,
          "velocity": 0.8740157480314961,
          "duration": 0.5172409999999985
        },
        {
          "name": "A3",
          "midi": 57,
          "time": 9.051717500000011,
          "velocity": 0.6299212598425197,
          "duration": 0.5043099749999982
        },
        {
          "name": "C#4",
          "midi": 61,
          "time": 9.051717500000011,
          "velocity": 0.6299212598425197,
          "duration": 0.4999996333333314
        },
        {
          "name": "E4",
          "midi": 64,
          "time": 9.051717500000011,
          "velocity": 0.6299212598425197,
          "duration": 1.2844818166666627
        },
        {
          "name": "A2",
          "midi": 45,
          "time": 9.051717500000011,
          "velocity": 0.5905511811023622,
          "duration": 0.7629304749999974
        },
        {
          "name": "E3",
          "midi": 52,
          "time": 9.051717500000011,
          "velocity": 0.5905511811023622,
          "duration": 0.508620316666665
        },
        {
          "name": "A3",
          "midi": 57,
          "time": 9.051717500000011,
          "velocity": 0.5905511811023622,
          "duration": 0.7672408166666642
        },
        {
          "name": "E3",
          "midi": 52,
          "time": 9.051717500000011,
          "velocity": 0.6692913385826772,
          "duration": 0.7629304749999974
        },
        {
          "name": "A3",
          "midi": 57,
          "time": 9.051717500000011,
          "velocity": 0.6692913385826772,
          "duration": 0.7758614999999978
        },
        {
          "name": "C#4",
          "midi": 61,
          "time": 9.051717500000011,
          "velocity": 0.6692913385826772,
          "duration": 1.0215509749999967
        },
        {
          "name": "B1",
          "midi": 35,
          "time": 9.051717500000011,
          "velocity": 0.5275590551181102,
          "duration": 0.04310341666666595
        },
        {
          "name": "B3",
          "midi": 59,
          "time": 9.051717500000011,
          "velocity": 0.7007874015748031,
          "duration": 0.04310341666666595
        },
        {
          "name": "A3",
          "midi": 57,
          "time": 9.31033800000001,
          "velocity": 0.7874015748031497,
          "duration": 0.7629304749999974
        },
        {
          "name": "B1",
          "midi": 35,
          "time": 9.31033800000001,
          "velocity": 0.8582677165354331,
          "duration": 0.04310341666666595
        },
        {
          "name": "B3",
          "midi": 59,
          "time": 9.31033800000001,
          "velocity": 0.7086614173228346,
          "duration": 0.04310341666666595
        },
        {
          "name": "E3",
          "midi": 52,
          "time": 9.56895850000001,
          "velocity": 0.7086614173228346,
          "duration": 0.25862049999999925
        },
        {
          "name": "E3",
          "midi": 52,
          "time": 9.56895850000001,
          "velocity": 0.5511811023622047,
          "duration": 0.5043099749999982
        },
        {
          "name": "A3",
          "midi": 57,
          "time": 9.56895850000001,
          "velocity": 0.5511811023622047,
          "duration": 0.7586201333333307
        },
        {
          "name": "C#4",
          "midi": 61,
          "time": 9.56895850000001,
          "velocity": 0.5511811023622047,
          "duration": 0.7629304749999974
        },
        {
          "name": "B3",
          "midi": 59,
          "time": 9.56895850000001,
          "velocity": 0.7007874015748031,
          "duration": 0.04310341666666595
        },
        {
          "name": "A4",
          "midi": 69,
          "time": 9.827579000000009,
          "velocity": 0.7874015748031497,
          "duration": 0.5172409999999985
        },
        {
          "name": "A3",
          "midi": 57,
          "time": 9.827579000000009,
          "velocity": 0.7874015748031497,
          "duration": 0.4999996333333314
        },
        {
          "name": "F#3",
          "midi": 54,
          "time": 9.827579000000009,
          "velocity": 0.8582677165354331,
          "duration": 0.25862049999999925
        },
        {
          "name": "A2",
          "midi": 45,
          "time": 9.827579000000009,
          "velocity": 0.5905511811023622,
          "duration": 0.4999996333333314
        },
        {
          "name": "E3",
          "midi": 52,
          "time": 9.827579000000009,
          "velocity": 0.5905511811023622,
          "duration": 0.5043099749999982
        },
        {
          "name": "A3",
          "midi": 57,
          "time": 9.827579000000009,
          "velocity": 0.5905511811023622,
          "duration": 0.4999996333333314
        },
        {
          "name": "E2",
          "midi": 40,
          "time": 9.827579000000009,
          "velocity": 0.8740157480314961,
          "duration": 0.04310341666666595
        },
        {
          "name": "F#2",
          "midi": 42,
          "time": 9.827579000000009,
          "velocity": 0.8740157480314961,
          "duration": 0.04310341666666595
        },
        {
          "name": "B3",
          "midi": 59,
          "time": 9.827579000000009,
          "velocity": 0.7007874015748031,
          "duration": 0.04310341666666595
        },
        {
          "name": "E3",
          "midi": 52,
          "time": 10.086199500000008,
          "velocity": 0.7165354330708661,
          "duration": 0.24568947499999894
        },
        {
          "name": "E3",
          "midi": 52,
          "time": 10.086199500000008,
          "velocity": 0.5511811023622047,
          "duration": 0.25862049999999925
        },
        {
          "name": "A3",
          "midi": 57,
          "time": 10.086199500000008,
          "velocity": 0.5511811023622047,
          "duration": 0.25862049999999925
        },
        {
          "name": "C#4",
          "midi": 61,
          "time": 10.086199500000008,
          "velocity": 0.5511811023622047,
          "duration": 0.24568947499999894
        },
        {
          "name": "B1",
          "midi": 35,
          "time": 10.086199500000008,
          "velocity": 0.5511811023622047,
          "duration": 0.04310341666666595
        },
        {
          "name": "B3",
          "midi": 59,
          "time": 10.086199500000008,
          "velocity": 0.5511811023622047,
          "duration": 0.04310341666666595
        },
        {
          "name": "A4",
          "midi": 69,
          "time": 10.344820000000007,
          "velocity": 0.7874015748031497,
          "duration": 0.7758614999999978
        },
        {
          "name": "C#5",
          "midi": 73,
          "time": 10.344820000000007,
          "velocity": 0.7874015748031497,
          "duration": 0.7758614999999978
        },
        {
          "name": "E5",
          "midi": 76,
          "time": 10.344820000000007,
          "velocity": 0.7874015748031497,
          "duration": 0.7758614999999978
        },
        {
          "name": "F#3",
          "midi": 54,
          "time": 10.344820000000007,
          "velocity": 0.7874015748031497,
          "duration": 0.4999996333333314
        },
        {
          "name": "F#2",
          "midi": 42,
          "time": 10.344820000000007,
          "velocity": 0.8503937007874016,
          "duration": 0.4999996333333314
        },
        {
          "name": "A3",
          "midi": 57,
          "time": 10.344820000000007,
          "velocity": 0.6299212598425197,
          "duration": 0.7586201333333307
        },
        {
          "name": "C#4",
          "midi": 61,
          "time": 10.344820000000007,
          "velocity": 0.6299212598425197,
          "duration": 0.7672408166666642
        },
        {
          "name": "E4",
          "midi": 64,
          "time": 10.344820000000007,
          "velocity": 0.6299212598425197,
          "duration": 0.7586201333333307
        },
        {
          "name": "F#2",
          "midi": 42,
          "time": 10.344820000000007,
          "velocity": 0.6692913385826772,
          "duration": 0.5603444166666645
        },
        {
          "name": "C#3",
          "midi": 49,
          "time": 10.344820000000007,
          "velocity": 0.6692913385826772,
          "duration": 0.4999996333333314
        },
        {
          "name": "F#3",
          "midi": 54,
          "time": 10.344820000000007,
          "velocity": 0.6692913385826772,
          "duration": 0.5172409999999985
        },
        {
          "name": "E3",
          "midi": 52,
          "time": 10.344820000000007,
          "velocity": 0.5511811023622047,
          "duration": 0.7629304749999974
        },
        {
          "name": "A3",
          "midi": 57,
          "time": 10.344820000000007,
          "velocity": 0.5511811023622047,
          "duration": 0.7629304749999974
        },
        {
          "name": "C#4",
          "midi": 61,
          "time": 10.344820000000007,
          "velocity": 0.5511811023622047,
          "duration": 0.7672408166666642
        },
        {
          "name": "B1",
          "midi": 35,
          "time": 10.344820000000007,
          "velocity": 0.8740157480314961,
          "duration": 0.04310341666666595
        },
        {
          "name": "B3",
          "midi": 59,
          "time": 10.344820000000007,
          "velocity": 0.8661417322834646,
          "duration": 0.04310341666666595
        },
        {
          "name": "B3",
          "midi": 59,
          "time": 10.603440500000007,
          "velocity": 0.6929133858267716,
          "duration": 0.04310341666666595
        },
        {
          "name": "F#3",
          "midi": 54,
          "time": 10.862061000000006,
          "velocity": 0.7874015748031497,
          "duration": 0.24137913333333216
        },
        {
          "name": "F#2",
          "midi": 42,
          "time": 10.862061000000006,
          "velocity": 0.5905511811023622,
          "duration": 0.24137913333333216
        },
        {
          "name": "C#3",
          "midi": 49,
          "time": 10.862061000000006,
          "velocity": 0.5905511811023622,
          "duration": 0.2499998166666657
        },
        {
          "name": "F#3",
          "midi": 54,
          "time": 10.862061000000006,
          "velocity": 0.5905511811023622,
          "duration": 0.5172409999999985
        },
        {
          "name": "E2",
          "midi": 40,
          "time": 10.862061000000006,
          "velocity": 0.8582677165354331,
          "duration": 0.04310341666666595
        },
        {
          "name": "F#2",
          "midi": 42,
          "time": 10.862061000000006,
          "velocity": 0.8740157480314961,
          "duration": 0.25862049999999925
        },
        {
          "name": "B3",
          "midi": 59,
          "time": 10.862061000000006,
          "velocity": 0.7165354330708661,
          "duration": 0.04310341666666595
        },
        {
          "name": "B4",
          "midi": 71,
          "time": 11.120681500000005,
          "velocity": 0.7874015748031497,
          "duration": 0.7758614999999978
        },
        {
          "name": "D5",
          "midi": 74,
          "time": 11.120681500000005,
          "velocity": 0.7874015748031497,
          "duration": 0.7758614999999978
        },
        {
          "name": "F#5",
          "midi": 78,
          "time": 11.120681500000005,
          "velocity": 0.7874015748031497,
          "duration": 0.7758614999999978
        },
        {
          "name": "B2",
          "midi": 47,
          "time": 11.120681500000005,
          "velocity": 0.8661417322834646,
          "duration": 0.5172409999999985
        },
        {
          "name": "A3",
          "midi": 57,
          "time": 11.120681500000005,
          "velocity": 0.5511811023622047,
          "duration": 0.508620316666665
        },
        {
          "name": "D4",
          "midi": 62,
          "time": 11.120681500000005,
          "velocity": 0.5511811023622047,
          "duration": 1.2758611333333292
        },
        {
          "name": "F#4",
          "midi": 66,
          "time": 11.120681500000005,
          "velocity": 0.5511811023622047,
          "duration": 1.2844818166666627
        },
        {
          "name": "B2",
          "midi": 47,
          "time": 11.120681500000005,
          "velocity": 0.5905511811023622,
          "duration": 0.7672408166666642
        },
        {
          "name": "F#3",
          "midi": 54,
          "time": 11.120681500000005,
          "velocity": 0.5905511811023622,
          "duration": 0.4999996333333314
        },
        {
          "name": "B3",
          "midi": 59,
          "time": 11.120681500000005,
          "velocity": 0.5905511811023622,
          "duration": 0.04310341666666595
        },
        {
          "name": "D3",
          "midi": 50,
          "time": 11.120681500000005,
          "velocity": 0.6692913385826772,
          "duration": 0.5043099749999982
        },
        {
          "name": "F#3",
          "midi": 54,
          "time": 11.120681500000005,
          "velocity": 0.6692913385826772,
          "duration": 0.7629304749999974
        },
        {
          "name": "A3",
          "midi": 57,
          "time": 11.120681500000005,
          "velocity": 0.6692913385826772,
          "duration": 1.0258613166666635
        },
        {
          "name": "B1",
          "midi": 35,
          "time": 11.120681500000005,
          "velocity": 0.5590551181102362,
          "duration": 0.04310341666666595
        },
        {
          "name": "B3",
          "midi": 59,
          "time": 11.120681500000005,
          "velocity": 0.5669291338582677,
          "duration": 0.3017239166666652
        },
        {
          "name": "B3",
          "midi": 59,
          "time": 11.379302000000004,
          "velocity": 0.7874015748031497,
          "duration": 0.3017239166666652
        },
        {
          "name": "B1",
          "midi": 35,
          "time": 11.379302000000004,
          "velocity": 0.8661417322834646,
          "duration": 0.04310341666666595
        },
        {
          "name": "B3",
          "midi": 59,
          "time": 11.379302000000004,
          "velocity": 0.8661417322834646,
          "duration": 0.5043099749999982
        },
        {
          "name": "F#3",
          "midi": 54,
          "time": 11.637922500000004,
          "velocity": 0.7086614173228346,
          "duration": 0.25862049999999925
        },
        {
          "name": "D3",
          "midi": 50,
          "time": 11.637922500000004,
          "velocity": 0.5511811023622047,
          "duration": 0.508620316666665
        },
        {
          "name": "F#3",
          "midi": 54,
          "time": 11.637922500000004,
          "velocity": 0.5511811023622047,
          "duration": 0.508620316666665
        },
        {
          "name": "A3",
          "midi": 57,
          "time": 11.637922500000004,
          "velocity": 0.5511811023622047,
          "duration": 0.5172409999999985
        },
        {
          "name": "B3",
          "midi": 59,
          "time": 11.637922500000004,
          "velocity": 0.6929133858267716,
          "duration": 0.25862049999999925
        },
        {
          "name": "A5",
          "midi": 81,
          "time": 11.896543000000003,
          "velocity": 0.7874015748031497,
          "duration": 0.12931024999999963
        },
        {
          "name": "B3",
          "midi": 59,
          "time": 11.896543000000003,
          "velocity": 0.7874015748031497,
          "duration": 0.04310341666666595
        },
        {
          "name": "A3",
          "midi": 57,
          "time": 11.896543000000003,
          "velocity": 0.8503937007874016,
          "duration": 0.5043099749999982
        },
        {
          "name": "B2",
          "midi": 47,
          "time": 11.896543000000003,
          "velocity": 0.5905511811023622,
          "duration": 0.5043099749999982
        },
        {
          "name": "F#3",
          "midi": 54,
          "time": 11.896543000000003,
          "velocity": 0.5905511811023622,
          "duration": 0.508620316666665
        },
        {
          "name": "B3",
          "midi": 59,
          "time": 11.896543000000003,
          "velocity": 0.5905511811023622,
          "duration": 0.3017239166666652
        },
        {
          "name": "E2",
          "midi": 40,
          "time": 11.896543000000003,
          "velocity": 0.8503937007874016,
          "duration": 0.04310341666666595
        },
        {
          "name": "F#2",
          "midi": 42,
          "time": 11.896543000000003,
          "velocity": 0.8582677165354331,
          "duration": 0.04310341666666595
        },
        {
          "name": "B3",
          "midi": 59,
          "time": 11.896543000000003,
          "velocity": 0.7165354330708661,
          "duration": 0.508620316666665
        },
        {
          "name": "G5",
          "midi": 79,
          "time": 12.025853250000003,
          "velocity": 0.7874015748031497,
          "duration": 0.12931024999999963
        },
        {
          "name": "F#5",
          "midi": 78,
          "time": 12.155163500000002,
          "velocity": 0.7874015748031497,
          "duration": 0.12931024999999963
        },
        {
          "name": "F#3",
          "midi": 54,
          "time": 12.155163500000002,
          "velocity": 0.6929133858267716,
          "duration": 0.2499998166666657
        },
        {
          "name": "D3",
          "midi": 50,
          "time": 12.155163500000002,
          "velocity": 0.5511811023622047,
          "duration": 0.2499998166666657
        },
        {
          "name": "F#3",
          "midi": 54,
          "time": 12.155163500000002,
          "velocity": 0.5511811023622047,
          "duration": 0.25862049999999925
        },
        {
          "name": "A3",
          "midi": 57,
          "time": 12.155163500000002,
          "velocity": 0.5511811023622047,
          "duration": 0.2499998166666657
        },
        {
          "name": "B1",
          "midi": 35,
          "time": 12.155163500000002,
          "velocity": 0.5275590551181102,
          "duration": 0.04310341666666595
        },
        {
          "name": "B3",
          "midi": 59,
          "time": 12.155163500000002,
          "velocity": 0.5748031496062992,
          "duration": 0.25862049999999925
        },
        {
          "name": "E5",
          "midi": 76,
          "time": 12.284473750000002,
          "velocity": 0.7874015748031497,
          "duration": 0.12931024999999963
        },
        {
          "name": "G4",
          "midi": 67,
          "time": 12.413784000000001,
          "velocity": 0.7874015748031497,
          "duration": 0.7758614999999978
        },
        {
          "name": "B4",
          "midi": 71,
          "time": 12.413784000000001,
          "velocity": 0.7874015748031497,
          "duration": 0.7758614999999978
        },
        {
          "name": "D5",
          "midi": 74,
          "time": 12.413784000000001,
          "velocity": 0.7874015748031497,
          "duration": 0.7758614999999978
        },
        {
          "name": "F#5",
          "midi": 78,
          "time": 12.413784000000001,
          "velocity": 0.7874015748031497,
          "duration": 0.7758614999999978
        },
        {
          "name": "E3",
          "midi": 52,
          "time": 12.413784000000001,
          "velocity": 0.7874015748031497,
          "duration": 0.508620316666665
        },
        {
          "name": "E2",
          "midi": 40,
          "time": 12.413784000000001,
          "velocity": 0.8582677165354331,
          "duration": 0.5043099749999982
        },
        {
          "name": "F#3",
          "midi": 54,
          "time": 12.413784000000001,
          "velocity": 0.6299212598425197,
          "duration": 0.7586201333333307
        },
        {
          "name": "G3",
          "midi": 55,
          "time": 12.413784000000001,
          "velocity": 0.6299212598425197,
          "duration": 0.7629304749999974
        },
        {
          "name": "B3",
          "midi": 59,
          "time": 12.413784000000001,
          "velocity": 0.6299212598425197,
          "duration": 0.04310341666666595
        },
        {
          "name": "D4",
          "midi": 62,
          "time": 12.413784000000001,
          "velocity": 0.6299212598425197,
          "duration": 0.7672408166666642
        },
        {
          "name": "E2",
          "midi": 40,
          "time": 12.413784000000001,
          "velocity": 0.6692913385826772,
          "duration": 0.5603444166666645
        },
        {
          "name": "B2",
          "midi": 47,
          "time": 12.413784000000001,
          "velocity": 0.6692913385826772,
          "duration": 0.508620316666665
        },
        {
          "name": "E3",
          "midi": 52,
          "time": 12.413784000000001,
          "velocity": 0.6692913385826772,
          "duration": 0.5172409999999985
        },
        {
          "name": "D3",
          "midi": 50,
          "time": 12.413784000000001,
          "velocity": 0.5511811023622047,
          "duration": 0.7629304749999974
        },
        {
          "name": "F#3",
          "midi": 54,
          "time": 12.413784000000001,
          "velocity": 0.5511811023622047,
          "duration": 0.7629304749999974
        },
        {
          "name": "G3",
          "midi": 55,
          "time": 12.413784000000001,
          "velocity": 0.5511811023622047,
          "duration": 0.7672408166666642
        },
        {
          "name": "B3",
          "midi": 59,
          "time": 12.413784000000001,
          "velocity": 0.5511811023622047,
          "duration": 0.3017239166666652
        },
        {
          "name": "B1",
          "midi": 35,
          "time": 12.413784000000001,
          "velocity": 0.8503937007874016,
          "duration": 0.04310341666666595
        },
        {
          "name": "B3",
          "midi": 59,
          "time": 12.413784000000001,
          "velocity": 0.8740157480314961,
          "duration": 0.5603444166666645
        },
        {
          "name": "B3",
          "midi": 59,
          "time": 12.6724045,
          "velocity": 0.6929133858267716,
          "duration": 0.5043099749999982
        },
        {
          "name": "E3",
          "midi": 52,
          "time": 12.931025,
          "velocity": 0.7874015748031497,
          "duration": 0.2499998166666657
        },
        {
          "name": "E2",
          "midi": 40,
          "time": 12.931025,
          "velocity": 0.5905511811023622,
          "duration": 0.24137913333333216
        },
        {
          "name": "B2",
          "midi": 47,
          "time": 12.931025,
          "velocity": 0.5905511811023622,
          "duration": 0.24568947499999894
        },
        {
          "name": "E3",
          "midi": 52,
          "time": 12.931025,
          "velocity": 0.5905511811023622,
          "duration": 0.5172409999999985
        },
        {
          "name": "E2",
          "midi": 40,
          "time": 12.931025,
          "velocity": 0.8582677165354331,
          "duration": 0.25862049999999925
        },
        {
          "name": "F#2",
          "midi": 42,
          "time": 12.931025,
          "velocity": 0.8503937007874016,
          "duration": 0.04310341666666595
        },
        {
          "name": "B3",
          "midi": 59,
          "time": 12.931025,
          "velocity": 0.7086614173228346,
          "duration": 0.2499998166666657
        },
        {
          "name": "A4",
          "midi": 69,
          "time": 13.1896455,
          "velocity": 0.7874015748031497,
          "duration": 0.7758614999999978
        },
        {
          "name": "C#5",
          "midi": 73,
          "time": 13.1896455,
          "velocity": 0.7874015748031497,
          "duration": 0.7758614999999978
        },
        {
          "name": "E5",
          "midi": 76,
          "time": 13.1896455,
          "velocity": 0.7874015748031497,
          "duration": 0.7758614999999978
        },
        {
          "name": "A2",
          "midi": 45,
          "time": 13.1896455,
          "velocity": 0.8582677165354331,
          "duration": 0.5172409999999985
        },
        {
          "name": "A3",
          "midi": 57,
          "time": 13.1896455,
          "velocity": 0.5511811023622047,
          "duration": 0.5043099749999982
        },
        {
          "name": "C#4",
          "midi": 61,
          "time": 13.1896455,
          "velocity": 0.5511811023622047,
          "duration": 0.4999996333333314
        },
        {
          "name": "E4",
          "midi": 64,
          "time": 13.1896455,
          "velocity": 0.5511811023622047,
          "duration": 1.2758611333333292
        },
        {
          "name": "A2",
          "midi": 45,
          "time": 13.1896455,
          "velocity": 0.5905511811023622,
          "duration": 0.7629304749999974
        },
        {
          "name": "E3",
          "midi": 52,
          "time": 13.1896455,
          "velocity": 0.5905511811023622,
          "duration": 0.4999996333333314
        },
        {
          "name": "A3",
          "midi": 57,
          "time": 13.1896455,
          "velocity": 0.5905511811023622,
          "duration": 0.7672408166666642
        },
        {
          "name": "E3",
          "midi": 52,
          "time": 13.1896455,
          "velocity": 0.6692913385826772,
          "duration": 0.7672408166666642
        },
        {
          "name": "A3",
          "midi": 57,
          "time": 13.1896455,
          "velocity": 0.6692913385826772,
          "duration": 0.7758614999999978
        },
        {
          "name": "C#4",
          "midi": 61,
          "time": 13.1896455,
          "velocity": 0.6692913385826772,
          "duration": 1.0258613166666635
        },
        {
          "name": "B1",
          "midi": 35,
          "time": 13.1896455,
          "velocity": 0.5354330708661418,
          "duration": 0.04310341666666595
        },
        {
          "name": "B3",
          "midi": 59,
          "time": 13.1896455,
          "velocity": 0.7007874015748031,
          "duration": 0.04310341666666595
        },
        {
          "name": "A3",
          "midi": 57,
          "time": 13.448265999999998,
          "velocity": 0.7874015748031497,
          "duration": 0.7629304749999974
        },
        {
          "name": "B1",
          "midi": 35,
          "time": 13.448265999999998,
          "velocity": 0.8740157480314961,
          "duration": 0.04310341666666595
        },
        {
          "name": "B3",
          "midi": 59,
          "time": 13.448265999999998,
          "velocity": 0.7086614173228346,
          "duration": 0.04310341666666595
        },
        {
          "name": "E3",
          "midi": 52,
          "time": 13.706886499999998,
          "velocity": 0.7086614173228346,
          "duration": 0.25862049999999925
        },
        {
          "name": "E3",
          "midi": 52,
          "time": 13.706886499999998,
          "velocity": 0.5511811023622047,
          "duration": 0.4999996333333314
        },
        {
          "name": "A3",
          "midi": 57,
          "time": 13.706886499999998,
          "velocity": 0.5511811023622047,
          "duration": 0.7586201333333307
        },
        {
          "name": "C#4",
          "midi": 61,
          "time": 13.706886499999998,
          "velocity": 0.5511811023622047,
          "duration": 0.7672408166666642
        },
        {
          "name": "B3",
          "midi": 59,
          "time": 13.706886499999998,
          "velocity": 0.7007874015748031,
          "duration": 0.04310341666666595
        },
        {
          "name": "A4",
          "midi": 69,
          "time": 13.965506999999997,
          "velocity": 0.7874015748031497,
          "duration": 0.5172409999999985
        },
        {
          "name": "A3",
          "midi": 57,
          "time": 13.965506999999997,
          "velocity": 0.7874015748031497,
          "duration": 0.5043099749999982
        },
        {
          "name": "F#3",
          "midi": 54,
          "time": 13.965506999999997,
          "velocity": 0.8740157480314961,
          "duration": 0.25862049999999925
        },
        {
          "name": "A2",
          "midi": 45,
          "time": 13.965506999999997,
          "velocity": 0.5905511811023622,
          "duration": 0.508620316666665
        },
        {
          "name": "E3",
          "midi": 52,
          "time": 13.965506999999997,
          "velocity": 0.5905511811023622,
          "duration": 0.4999996333333314
        },
        {
          "name": "A3",
          "midi": 57,
          "time": 13.965506999999997,
          "velocity": 0.5905511811023622,
          "duration": 0.508620316666665
        },
        {
          "name": "E2",
          "midi": 40,
          "time": 13.965506999999997,
          "velocity": 0.8661417322834646,
          "duration": 0.04310341666666595
        },
        {
          "name": "A#2",
          "midi": 46,
          "time": 13.965506999999997,
          "velocity": 0.8582677165354331,
          "duration": 0.04310341666666595
        },
        {
          "name": "B3",
          "midi": 59,
          "time": 13.965506999999997,
          "velocity": 0.7007874015748031,
          "duration": 0.04310341666666595
        },
        {
          "name": "E3",
          "midi": 52,
          "time": 14.224127499999996,
          "velocity": 0.7086614173228346,
          "duration": 0.2499998166666657
        },
        {
          "name": "E3",
          "midi": 52,
          "time": 14.224127499999996,
          "velocity": 0.5511811023622047,
          "duration": 0.25862049999999925
        },
        {
          "name": "A3",
          "midi": 57,
          "time": 14.224127499999996,
          "velocity": 0.5511811023622047,
          "duration": 0.25862049999999925
        },
        {
          "name": "C#4",
          "midi": 61,
          "time": 14.224127499999996,
          "velocity": 0.5511811023622047,
          "duration": 0.2499998166666657
        },
        {
          "name": "B3",
          "midi": 59,
          "time": 14.224127499999996,
          "velocity": 0.5511811023622047,
          "duration": 0.04310341666666595
        },
        {
          "name": "E5",
          "midi": 76,
          "time": 14.482747999999996,
          "velocity": 0.7874015748031497,
          "duration": 0.25862049999999925
        },
        {
          "name": "A4",
          "midi": 69,
          "time": 14.482747999999996,
          "velocity": 0.7874015748031497,
          "duration": 0.7672408166666642
        },
        {
          "name": "C#5",
          "midi": 73,
          "time": 14.482747999999996,
          "velocity": 0.7874015748031497,
          "duration": 0.7758614999999978
        },
        {
          "name": "F#3",
          "midi": 54,
          "time": 14.482747999999996,
          "velocity": 0.7874015748031497,
          "duration": 0.5043099749999982
        },
        {
          "name": "F#2",
          "midi": 42,
          "time": 14.482747999999996,
          "velocity": 0.8503937007874016,
          "duration": 0.508620316666665
        },
        {
          "name": "C#4",
          "midi": 61,
          "time": 14.482747999999996,
          "velocity": 0.6299212598425197,
          "duration": 0.7586201333333307
        },
        {
          "name": "E4",
          "midi": 64,
          "time": 14.482747999999996,
          "velocity": 0.6299212598425197,
          "duration": 0.7629304749999974
        },
        {
          "name": "A4",
          "midi": 69,
          "time": 14.482747999999996,
          "velocity": 0.6299212598425197,
          "duration": 0.7758614999999978
        },
        {
          "name": "F#2",
          "midi": 42,
          "time": 14.482747999999996,
          "velocity": 0.6692913385826772,
          "duration": 0.5603444166666645
        },
        {
          "name": "C#3",
          "midi": 49,
          "time": 14.482747999999996,
          "velocity": 0.6692913385826772,
          "duration": 0.5043099749999982
        },
        {
          "name": "F#3",
          "midi": 54,
          "time": 14.482747999999996,
          "velocity": 0.6692913385826772,
          "duration": 0.5172409999999985
        },
        {
          "name": "E3",
          "midi": 52,
          "time": 14.482747999999996,
          "velocity": 0.5511811023622047,
          "duration": 0.7586201333333307
        },
        {
          "name": "A3",
          "midi": 57,
          "time": 14.482747999999996,
          "velocity": 0.5511811023622047,
          "duration": 0.7586201333333307
        },
        {
          "name": "C#4",
          "midi": 61,
          "time": 14.482747999999996,
          "velocity": 0.5511811023622047,
          "duration": 0.7672408166666642
        },
        {
          "name": "B1",
          "midi": 35,
          "time": 14.482747999999996,
          "velocity": 0.8661417322834646,
          "duration": 0.04310341666666595
        },
        {
          "name": "B3",
          "midi": 59,
          "time": 14.482747999999996,
          "velocity": 0.8661417322834646,
          "duration": 0.04310341666666595
        },
        {
          "name": "F#5",
          "midi": 78,
          "time": 14.741368499999995,
          "velocity": 0.7874015748031497,
          "duration": 0.25862049999999925
        },
        {
          "name": "B3",
          "midi": 59,
          "time": 14.741368499999995,
          "velocity": 0.6929133858267716,
          "duration": 0.04310341666666595
        },
        {
          "name": "F#5",
          "midi": 78,
          "time": 14.999988999999994,
          "velocity": 0.7874015748031497,
          "duration": 0.25862049999999925
        },
        {
          "name": "B3",
          "midi": 59,
          "time": 14.999988999999994,
          "velocity": 0.7874015748031497,
          "duration": 0.04310341666666595
        },
        {
          "name": "F#2",
          "midi": 42,
          "time": 14.999988999999994,
          "velocity": 0.5905511811023622,
          "duration": 0.24568947499999894
        },
        {
          "name": "C#3",
          "midi": 49,
          "time": 14.999988999999994,
          "velocity": 0.5905511811023622,
          "duration": 0.24568947499999894
        },
        {
          "name": "F#3",
          "midi": 54,
          "time": 14.999988999999994,
          "velocity": 0.5905511811023622,
          "duration": 0.24568947499999894
        },
        {
          "name": "E2",
          "midi": 40,
          "time": 14.999988999999994,
          "velocity": 0.8740157480314961,
          "duration": 0.04310341666666595
        },
        {
          "name": "F#2",
          "midi": 42,
          "time": 14.999988999999994,
          "velocity": 0.8582677165354331,
          "duration": 0.25862049999999925
        },
        {
          "name": "B3",
          "midi": 59,
          "time": 14.999988999999994,
          "velocity": 0.7165354330708661,
          "duration": 0.3017239166666652
        },
        {
          "name": "F#4",
          "midi": 66,
          "time": 15.258609499999993,
          "velocity": 0.7874015748031497,
          "duration": 1.2758611333333345
        },
        {
          "name": "A4",
          "midi": 69,
          "time": 15.258609499999993,
          "velocity": 0.7874015748031497,
          "duration": 1.2931025000000016
        },
        {
          "name": "D5",
          "midi": 74,
          "time": 15.258609499999993,
          "velocity": 0.7874015748031497,
          "duration": 1.2931025000000016
        },
        {
          "name": "A2",
          "midi": 45,
          "time": 15.258609499999993,
          "velocity": 0.8503937007874016,
          "duration": 0.5172409999999985
        },
        {
          "name": "A3",
          "midi": 57,
          "time": 15.258609499999993,
          "velocity": 0.5511811023622047,
          "duration": 0.5043099749999982
        },
        {
          "name": "D4",
          "midi": 62,
          "time": 15.258609499999993,
          "velocity": 0.5511811023622047,
          "duration": 0.4999996333333314
        },
        {
          "name": "F#4",
          "midi": 66,
          "time": 15.258609499999993,
          "velocity": 0.5511811023622047,
          "duration": 1.2931025000000016
        },
        {
          "name": "D3",
          "midi": 50,
          "time": 15.258609499999993,
          "velocity": 0.5905511811023622,
          "duration": 0.7629304749999992
        },
        {
          "name": "A3",
          "midi": 57,
          "time": 15.258609499999993,
          "velocity": 0.5905511811023622,
          "duration": 0.5172409999999985
        },
        {
          "name": "D4",
          "midi": 62,
          "time": 15.258609499999993,
          "velocity": 0.5905511811023622,
          "duration": 0.7586201333333324
        },
        {
          "name": "F#3",
          "midi": 54,
          "time": 15.258609499999993,
          "velocity": 0.6692913385826772,
          "duration": 0.5043099749999982
        },
        {
          "name": "A3",
          "midi": 57,
          "time": 15.258609499999993,
          "velocity": 0.6692913385826772,
          "duration": 0.7629304749999992
        },
        {
          "name": "D4",
          "midi": 62,
          "time": 15.258609499999993,
          "velocity": 0.6692913385826772,
          "duration": 1.0258613166666688
        },
        {
          "name": "B1",
          "midi": 35,
          "time": 15.258609499999993,
          "velocity": 0.5433070866141733,
          "duration": 0.04310341666666595
        },
        {
          "name": "B3",
          "midi": 59,
          "time": 15.258609499999993,
          "velocity": 0.5669291338582677,
          "duration": 0.25862049999999925
        },
        {
          "name": "A3",
          "midi": 57,
          "time": 15.517229999999993,
          "velocity": 0.7874015748031497,
          "duration": 0.5172410000000003
        },
        {
          "name": "E2",
          "midi": 40,
          "time": 15.517229999999993,
          "velocity": 0.3543307086614173,
          "duration": 0.04310341666666595
        },
        {
          "name": "E2",
          "midi": 40,
          "time": 15.646540249999992,
          "velocity": 0.5433070866141733,
          "duration": 0.04310341666666595
        },
        {
          "name": "A3",
          "midi": 57,
          "time": 15.775850499999992,
          "velocity": 0.7874015748031497,
          "duration": 0.49999963333333675
        },
        {
          "name": "E3",
          "midi": 52,
          "time": 15.775850499999992,
          "velocity": 0.7165354330708661,
          "duration": 0.25862050000000103
        },
        {
          "name": "F#3",
          "midi": 54,
          "time": 15.775850499999992,
          "velocity": 0.5511811023622047,
          "duration": 0.5086203166666703
        },
        {
          "name": "A3",
          "midi": 57,
          "time": 15.775850499999992,
          "velocity": 0.5511811023622047,
          "duration": 0.5172410000000038
        },
        {
          "name": "D4",
          "midi": 62,
          "time": 15.775850499999992,
          "velocity": 0.5511811023622047,
          "duration": 0.758620133333336
        },
        {
          "name": "B1",
          "midi": 35,
          "time": 15.775850499999992,
          "velocity": 0.8503937007874016,
          "duration": 0.04310341666666595
        },
        {
          "name": "A3",
          "midi": 57,
          "time": 16.034470999999993,
          "velocity": 0.7874015748031497,
          "duration": 0.49999963333333497
        },
        {
          "name": "F#3",
          "midi": 54,
          "time": 16.034470999999993,
          "velocity": 0.8582677165354331,
          "duration": 0.2586205000000028
        },
        {
          "name": "D3",
          "midi": 50,
          "time": 16.034470999999993,
          "velocity": 0.5905511811023622,
          "duration": 0.49999963333333497
        },
        {
          "name": "A3",
          "midi": 57,
          "time": 16.034470999999993,
          "velocity": 0.5905511811023622,
          "duration": 0.49999963333333497
        },
        {
          "name": "D4",
          "midi": 62,
          "time": 16.034470999999993,
          "velocity": 0.5905511811023622,
          "duration": 0.5043099750000017
        },
        {
          "name": "E2",
          "midi": 40,
          "time": 16.034470999999993,
          "velocity": 0.8503937007874016,
          "duration": 0.04310341666666773
        },
        {
          "name": "E2",
          "midi": 40,
          "time": 16.07757441666666,
          "velocity": 0.7165354330708661,
          "duration": 0.04310341666666773
        },
        {
          "name": "A3",
          "midi": 57,
          "time": 16.293091499999996,
          "velocity": 0.7874015748031497,
          "duration": 0.24568947499999894
        },
        {
          "name": "E3",
          "midi": 52,
          "time": 16.293091499999996,
          "velocity": 0.7007874015748031,
          "duration": 0.25862049999999925
        },
        {
          "name": "F#3",
          "midi": 54,
          "time": 16.293091499999996,
          "velocity": 0.5511811023622047,
          "duration": 0.24137913333333216
        },
        {
          "name": "A3",
          "midi": 57,
          "time": 16.293091499999996,
          "velocity": 0.5511811023622047,
          "duration": 0.25862049999999925
        },
        {
          "name": "D4",
          "midi": 62,
          "time": 16.293091499999996,
          "velocity": 0.5511811023622047,
          "duration": 0.2499998166666657
        },
        {
          "name": "A3",
          "midi": 57,
          "time": 16.547401658333328,
          "velocity": 0.8503937007874016,
          "duration": 0.004310341666666773
        },
        {
          "name": "G4",
          "midi": 67,
          "time": 16.551711999999995,
          "velocity": 0.7874015748031497,
          "duration": 2.0689640000000225
        },
        {
          "name": "B4",
          "midi": 71,
          "time": 16.551711999999995,
          "velocity": 0.7874015748031497,
          "duration": 0.7758615000000084
        },
        {
          "name": "D5",
          "midi": 74,
          "time": 16.551711999999995,
          "velocity": 0.7874015748031497,
          "duration": 1.293102500000014
        },
        {
          "name": "F#5",
          "midi": 78,
          "time": 16.551711999999995,
          "velocity": 0.7874015748031497,
          "duration": 2.0689640000000225
        },
        {
          "name": "B3",
          "midi": 59,
          "time": 16.551711999999995,
          "velocity": 0.7874015748031497,
          "duration": 0.04310341666666773
        },
        {
          "name": "G2",
          "midi": 43,
          "time": 16.551711999999995,
          "velocity": 0.8740157480314961,
          "duration": 0.4999996333333385
        },
        {
          "name": "F#3",
          "midi": 54,
          "time": 16.551711999999995,
          "velocity": 0.6299212598425197,
          "duration": 0.7629304750000081
        },
        {
          "name": "B3",
          "midi": 59,
          "time": 16.551711999999995,
          "velocity": 0.6299212598425197,
          "duration": 0.30172391666667053
        },
        {
          "name": "D4",
          "midi": 62,
          "time": 16.551711999999995,
          "velocity": 0.6299212598425197,
          "duration": 1.0344820000000112
        },
        {
          "name": "G2",
          "midi": 43,
          "time": 16.551711999999995,
          "velocity": 0.6692913385826772,
          "duration": 0.7672408166666749
        },
        {
          "name": "D3",
          "midi": 50,
          "time": 16.551711999999995,
          "velocity": 0.6692913385826772,
          "duration": 0.5043099750000053
        },
        {
          "name": "G3",
          "midi": 55,
          "time": 16.551711999999995,
          "velocity": 0.6692913385826772,
          "duration": 0.5043099750000053
        },
        {
          "name": "D3",
          "midi": 50,
          "time": 16.551711999999995,
          "velocity": 0.5511811023622047,
          "duration": 0.7629304750000081
        },
        {
          "name": "F#3",
          "midi": 54,
          "time": 16.551711999999995,
          "velocity": 0.5511811023622047,
          "duration": 1.2801714750000137
        },
        {
          "name": "B3",
          "midi": 59,
          "time": 16.551711999999995,
          "velocity": 0.5511811023622047,
          "duration": 0.5172410000000056
        },
        {
          "name": "B1",
          "midi": 35,
          "time": 16.551711999999995,
          "velocity": 0.8661417322834646,
          "duration": 0.04310341666666773
        },
        {
          "name": "B3",
          "midi": 59,
          "time": 16.551711999999995,
          "velocity": 0.8740157480314961,
          "duration": 0.5603444166666733
        },
        {
          "name": "B3",
          "midi": 59,
          "time": 16.810332499999998,
          "velocity": 0.6929133858267716,
          "duration": 0.4999996333333385
        },
        {
          "name": "B4",
          "midi": 71,
          "time": 17.068953,
          "velocity": 0.7874015748031497,
          "duration": 0.2586205000000028
        },
        {
          "name": "B4",
          "midi": 71,
          "time": 17.068953,
          "velocity": 0.7874015748031497,
          "duration": 1.5517230000000168
        },
        {
          "name": "D4",
          "midi": 62,
          "time": 17.068953,
          "velocity": 0.7874015748031497,
          "duration": 1.5344816333333497
        },
        {
          "name": "G2",
          "midi": 43,
          "time": 17.068953,
          "velocity": 0.5905511811023622,
          "duration": 0.2586205000000028
        },
        {
          "name": "D3",
          "midi": 50,
          "time": 17.068953,
          "velocity": 0.5905511811023622,
          "duration": 0.2456894750000025
        },
        {
          "name": "G3",
          "midi": 55,
          "time": 17.068953,
          "velocity": 0.5905511811023622,
          "duration": 0.24137913333333572
        },
        {
          "name": "E2",
          "midi": 40,
          "time": 17.068953,
          "velocity": 0.8661417322834646,
          "duration": 0.04310341666666773
        },
        {
          "name": "F#2",
          "midi": 42,
          "time": 17.068953,
          "velocity": 0.8582677165354331,
          "duration": 0.04310341666666773
        },
        {
          "name": "B3",
          "midi": 59,
          "time": 17.068953,
          "velocity": 0.7086614173228346,
          "duration": 0.30172391666667053
        },
        {
          "name": "C#5",
          "midi": 73,
          "time": 17.327573500000003,
          "velocity": 0.7874015748031497,
          "duration": 0.2586205000000028
        },
        {
          "name": "C#5",
          "midi": 73,
          "time": 17.327573500000003,
          "velocity": 0.7874015748031497,
          "duration": 0.2586205000000028
        },
        {
          "name": "B2",
          "midi": 47,
          "time": 17.327573500000003,
          "velocity": 0.8740157480314961,
          "duration": 0.5172410000000056
        },
        {
          "name": "G2",
          "midi": 43,
          "time": 17.327573500000003,
          "velocity": 0.5905511811023622,
          "duration": 0.7586201333333413
        },
        {
          "name": "D3",
          "midi": 50,
          "time": 17.327573500000003,
          "velocity": 0.5905511811023622,
          "duration": 0.5086203166666721
        },
        {
          "name": "G3",
          "midi": 55,
          "time": 17.327573500000003,
          "velocity": 0.5905511811023622,
          "duration": 0.7629304750000081
        },
        {
          "name": "D3",
          "midi": 50,
          "time": 17.327573500000003,
          "velocity": 0.6692913385826772,
          "duration": 0.7629304750000081
        },
        {
          "name": "F#3",
          "midi": 54,
          "time": 17.327573500000003,
          "velocity": 0.6692913385826772,
          "duration": 1.275861133333347
        },
        {
          "name": "B3",
          "midi": 59,
          "time": 17.327573500000003,
          "velocity": 0.6692913385826772,
          "duration": 0.30172391666667053
        },
        {
          "name": "B1",
          "midi": 35,
          "time": 17.327573500000003,
          "velocity": 0.5354330708661418,
          "duration": 0.04310341666666773
        },
        {
          "name": "B3",
          "midi": 59,
          "time": 17.327573500000003,
          "velocity": 0.7007874015748031,
          "duration": 0.5043099750000053
        },
        {
          "name": "D5",
          "midi": 74,
          "time": 17.586194000000006,
          "velocity": 0.7874015748031497,
          "duration": 0.2586205000000028
        },
        {
          "name": "D5",
          "midi": 74,
          "time": 17.586194000000006,
          "velocity": 0.7874015748031497,
          "duration": 0.5172410000000056
        },
        {
          "name": "B3",
          "midi": 59,
          "time": 17.586194000000006,
          "velocity": 0.7874015748031497,
          "duration": 0.2586205000000028
        },
        {
          "name": "B1",
          "midi": 35,
          "time": 17.586194000000006,
          "velocity": 0.8740157480314961,
          "duration": 0.04310341666666773
        },
        {
          "name": "B3",
          "midi": 59,
          "time": 17.586194000000006,
          "velocity": 0.7086614173228346,
          "duration": 0.30172391666667053
        },
        {
          "name": "D5",
          "midi": 74,
          "time": 17.84481450000001,
          "velocity": 0.7874015748031497,
          "duration": 0.2586205000000028
        },
        {
          "name": "D5",
          "midi": 74,
          "time": 17.84481450000001,
          "velocity": 0.7874015748031497,
          "duration": 0.7758615000000084
        },
        {
          "name": "B3",
          "midi": 59,
          "time": 17.84481450000001,
          "velocity": 0.7874015748031497,
          "duration": 0.2586205000000028
        },
        {
          "name": "D3",
          "midi": 50,
          "time": 17.84481450000001,
          "velocity": 0.7086614173228346,
          "duration": 0.2586205000000028
        },
        {
          "name": "D3",
          "midi": 50,
          "time": 17.84481450000001,
          "velocity": 0.5511811023622047,
          "duration": 0.7586201333333413
        },
        {
          "name": "F#3",
          "midi": 54,
          "time": 17.84481450000001,
          "velocity": 0.5511811023622047,
          "duration": 0.7672408166666749
        },
        {
          "name": "B3",
          "midi": 59,
          "time": 17.84481450000001,
          "velocity": 0.5511811023622047,
          "duration": 0.30172391666667053
        },
        {
          "name": "B3",
          "midi": 59,
          "time": 17.84481450000001,
          "velocity": 0.7007874015748031,
          "duration": 0.5603444166666733
        },
        {
          "name": "E5",
          "midi": 76,
          "time": 18.10343500000001,
          "velocity": 0.7874015748031497,
          "duration": 0.2586205000000028
        },
        {
          "name": "E5",
          "midi": 76,
          "time": 18.10343500000001,
          "velocity": 0.7874015748031497,
          "duration": 0.2586205000000028
        },
        {
          "name": "E3",
          "midi": 52,
          "time": 18.10343500000001,
          "velocity": 0.8740157480314961,
          "duration": 0.2586205000000028
        },
        {
          "name": "G2",
          "midi": 43,
          "time": 18.10343500000001,
          "velocity": 0.5905511811023622,
          "duration": 0.5043099750000053
        },
        {
          "name": "D3",
          "midi": 50,
          "time": 18.10343500000001,
          "velocity": 0.5905511811023622,
          "duration": 0.5043099750000053
        },
        {
          "name": "G3",
          "midi": 55,
          "time": 18.10343500000001,
          "velocity": 0.5905511811023622,
          "duration": 0.4999996333333385
        },
        {
          "name": "E2",
          "midi": 40,
          "time": 18.10343500000001,
          "velocity": 0.8661417322834646,
          "duration": 0.04310341666666773
        },
        {
          "name": "F#2",
          "midi": 42,
          "time": 18.10343500000001,
          "velocity": 0.8661417322834646,
          "duration": 0.04310341666666773
        },
        {
          "name": "B3",
          "midi": 59,
          "time": 18.10343500000001,
          "velocity": 0.7007874015748031,
          "duration": 0.5043099750000053
        },
        {
          "name": "C#5",
          "midi": 73,
          "time": 18.362055500000015,
          "velocity": 0.7874015748031497,
          "duration": 0.38793075000000243
        },
        {
          "name": "C#5",
          "midi": 73,
          "time": 18.362055500000015,
          "velocity": 0.7874015748031497,
          "duration": 0.38793075000000243
        },
        {
          "name": "F#3",
          "midi": 54,
          "time": 18.362055500000015,
          "velocity": 0.7874015748031497,
          "duration": 0.2586205000000028
        },
        {
          "name": "G3",
          "midi": 55,
          "time": 18.362055500000015,
          "velocity": 0.7165354330708661,
          "duration": 0.2586205000000028
        },
        {
          "name": "B3",
          "midi": 59,
          "time": 18.362055500000015,
          "velocity": 0.5511811023622047,
          "duration": 0.24999981666666926
        },
        {
          "name": "A4",
          "midi": 69,
          "time": 18.620676000000017,
          "velocity": 0.7874015748031497,
          "duration": 1.5517230000000133
        },
        {
          "name": "C#5",
          "midi": 73,
          "time": 18.620676000000017,
          "velocity": 0.7874015748031497,
          "duration": 2.068964000000019
        },
        {
          "name": "E5",
          "midi": 76,
          "time": 18.620676000000017,
          "velocity": 0.7874015748031497,
          "duration": 2.068964000000019
        },
        {
          "name": "B3",
          "midi": 59,
          "time": 18.620676000000017,
          "velocity": 0.7874015748031497,
          "duration": 0.04310341666666773
        },
        {
          "name": "B2",
          "midi": 47,
          "time": 18.620676000000017,
          "velocity": 0.8661417322834646,
          "duration": 0.7758615000000049
        },
        {
          "name": "A3",
          "midi": 57,
          "time": 18.620676000000017,
          "velocity": 0.6299212598425197,
          "duration": 0.5086203166666685
        },
        {
          "name": "C#4",
          "midi": 61,
          "time": 18.620676000000017,
          "velocity": 0.6299212598425197,
          "duration": 0.7672408166666713
        },
        {
          "name": "E4",
          "midi": 64,
          "time": 18.620676000000017,
          "velocity": 0.6299212598425197,
          "duration": 1.0172406333333406
        },
        {
          "name": "A2",
          "midi": 45,
          "time": 18.620676000000017,
          "velocity": 0.6692913385826772,
          "duration": 0.49999963333333497
        },
        {
          "name": "E3",
          "midi": 52,
          "time": 18.620676000000017,
          "velocity": 0.6692913385826772,
          "duration": 0.5043099750000017
        },
        {
          "name": "A3",
          "midi": 57,
          "time": 18.620676000000017,
          "velocity": 0.6692913385826772,
          "duration": 0.7672408166666713
        },
        {
          "name": "E3",
          "midi": 52,
          "time": 18.620676000000017,
          "velocity": 0.5511811023622047,
          "duration": 0.7629304750000045
        },
        {
          "name": "A3",
          "midi": 57,
          "time": 18.620676000000017,
          "velocity": 0.5511811023622047,
          "duration": 1.0172406333333406
        },
        {
          "name": "C#4",
          "midi": 61,
          "time": 18.620676000000017,
          "velocity": 0.5511811023622047,
          "duration": 1.0215509750000074
        },
        {
          "name": "B1",
          "midi": 35,
          "time": 18.620676000000017,
          "velocity": 0.8740157480314961,
          "duration": 0.04310341666666773
        },
        {
          "name": "B3",
          "midi": 59,
          "time": 18.620676000000017,
          "velocity": 0.8661417322834646,
          "duration": 0.301723916666667
        },
        {
          "name": "B4",
          "midi": 71,
          "time": 18.749986250000017,
          "velocity": 0.7874015748031497,
          "duration": 0.12931024999999963
        },
        {
          "name": "B4",
          "midi": 71,
          "time": 18.749986250000017,
          "velocity": 0.7874015748031497,
          "duration": 0.12931024999999963
        },
        {
          "name": "A4",
          "midi": 69,
          "time": 18.879296500000017,
          "velocity": 0.7874015748031497,
          "duration": 1.293102500000014
        },
        {
          "name": "A4",
          "midi": 69,
          "time": 18.879296500000017,
          "velocity": 0.7874015748031497,
          "duration": 1.801722816666686
        },
        {
          "name": "B3",
          "midi": 59,
          "time": 18.879296500000017,
          "velocity": 0.6929133858267716,
          "duration": 0.2586205000000028
        },
        {
          "name": "D4",
          "midi": 62,
          "time": 19.13791700000002,
          "velocity": 0.7874015748031497,
          "duration": 0.2586205000000028
        },
        {
          "name": "A2",
          "midi": 45,
          "time": 19.13791700000002,
          "velocity": 0.5905511811023622,
          "duration": 0.4999996333333385
        },
        {
          "name": "E3",
          "midi": 52,
          "time": 19.13791700000002,
          "velocity": 0.5905511811023622,
          "duration": 0.5043099750000053
        },
        {
          "name": "A3",
          "midi": 57,
          "time": 19.13791700000002,
          "velocity": 0.5905511811023622,
          "duration": 0.4999996333333385
        },
        {
          "name": "E2",
          "midi": 40,
          "time": 19.13791700000002,
          "velocity": 0.8740157480314961,
          "duration": 0.04310341666666773
        },
        {
          "name": "A#2",
          "midi": 46,
          "time": 19.13791700000002,
          "velocity": 0.8740157480314961,
          "duration": 0.04310341666666773
        },
        {
          "name": "B3",
          "midi": 59,
          "time": 19.13791700000002,
          "velocity": 0.7165354330708661,
          "duration": 0.04310341666666773
        },
        {
          "name": "C#4",
          "midi": 61,
          "time": 19.396537500000022,
          "velocity": 0.7874015748031497,
          "duration": 0.24999981666666926
        },
        {
          "name": "B2",
          "midi": 47,
          "time": 19.396537500000022,
          "velocity": 0.8503937007874016,
          "duration": 0.2586205000000028
        },
        {
          "name": "E3",
          "midi": 52,
          "time": 19.396537500000022,
          "velocity": 0.6692913385826772,
          "duration": 0.24999981666666926
        },
        {
          "name": "A3",
          "midi": 57,
          "time": 19.396537500000022,
          "velocity": 0.6692913385826772,
          "duration": 0.24137913333333572
        },
        {
          "name": "C#4",
          "midi": 61,
          "time": 19.396537500000022,
          "velocity": 0.6692913385826772,
          "duration": 0.2586205000000028
        },
        {
          "name": "B1",
          "midi": 35,
          "time": 19.396537500000022,
          "velocity": 0.5275590551181102,
          "duration": 0.04310341666666773
        },
        {
          "name": "B3",
          "midi": 59,
          "time": 19.396537500000022,
          "velocity": 0.5669291338582677,
          "duration": 0.04310341666666773
        },
        {
          "name": "A3",
          "midi": 57,
          "time": 19.655158000000025,
          "velocity": 0.7874015748031497,
          "duration": 0.5172410000000056
        },
        {
          "name": "A2",
          "midi": 45,
          "time": 19.655158000000025,
          "velocity": 0.8582677165354331,
          "duration": 0.5172410000000056
        },
        {
          "name": "C#4",
          "midi": 61,
          "time": 19.655158000000025,
          "velocity": 0.6299212598425197,
          "duration": 0.7586201333333413
        },
        {
          "name": "E4",
          "midi": 64,
          "time": 19.655158000000025,
          "velocity": 0.6299212598425197,
          "duration": 1.0172406333333441
        },
        {
          "name": "A4",
          "midi": 69,
          "time": 19.655158000000025,
          "velocity": 0.6299212598425197,
          "duration": 1.0344820000000112
        },
        {
          "name": "A2",
          "midi": 45,
          "time": 19.655158000000025,
          "velocity": 0.6692913385826772,
          "duration": 1.0258613166666777
        },
        {
          "name": "E3",
          "midi": 52,
          "time": 19.655158000000025,
          "velocity": 0.6692913385826772,
          "duration": 0.7629304750000081
        },
        {
          "name": "A3",
          "midi": 57,
          "time": 19.655158000000025,
          "velocity": 0.6692913385826772,
          "duration": 0.7629304750000081
        },
        {
          "name": "E3",
          "midi": 52,
          "time": 19.655158000000025,
          "velocity": 0.6692913385826772,
          "duration": 1.0172406333333441
        },
        {
          "name": "A3",
          "midi": 57,
          "time": 19.655158000000025,
          "velocity": 0.6692913385826772,
          "duration": 1.021550975000011
        },
        {
          "name": "C#4",
          "midi": 61,
          "time": 19.655158000000025,
          "velocity": 0.6692913385826772,
          "duration": 1.021550975000011
        },
        {
          "name": "B1",
          "midi": 35,
          "time": 19.655158000000025,
          "velocity": 0.8661417322834646,
          "duration": 0.04310341666666773
        },
        {
          "name": "B3",
          "midi": 59,
          "time": 19.655158000000025,
          "velocity": 0.8661417322834646,
          "duration": 0.04310341666666773
        },
        {
          "name": "B3",
          "midi": 59,
          "time": 19.913778500000028,
          "velocity": 0.6929133858267716,
          "duration": 0.04310341666666773
        },
        {
          "name": "F#3",
          "midi": 54,
          "time": 20.17239900000003,
          "velocity": 0.8582677165354331,
          "duration": 0.2586205000000028
        },
        {
          "name": "E2",
          "midi": 40,
          "time": 20.17239900000003,
          "velocity": 0.8740157480314961,
          "duration": 0.04310341666666773
        },
        {
          "name": "F#2",
          "midi": 42,
          "time": 20.17239900000003,
          "velocity": 0.8582677165354331,
          "duration": 0.04310341666666773
        },
        {
          "name": "B3",
          "midi": 59,
          "time": 20.17239900000003,
          "velocity": 0.7165354330708661,
          "duration": 0.04310341666666773
        },
        {
          "name": "F#3",
          "midi": 54,
          "time": 20.431019500000033,
          "velocity": 0.7874015748031497,
          "duration": 0.2586205000000028
        },
        {
          "name": "A3",
          "midi": 57,
          "time": 20.431019500000033,
          "velocity": 0.7086614173228346,
          "duration": 0.24999981666666926
        },
        {
          "name": "E3",
          "midi": 52,
          "time": 20.431019500000033,
          "velocity": 0.5511811023622047,
          "duration": 0.2456894750000025
        },
        {
          "name": "A3",
          "midi": 57,
          "time": 20.431019500000033,
          "velocity": 0.5511811023622047,
          "duration": 0.2586205000000028
        },
        {
          "name": "C#4",
          "midi": 61,
          "time": 20.431019500000033,
          "velocity": 0.5511811023622047,
          "duration": 0.2456894750000025
        },
        {
          "name": "B3",
          "midi": 59,
          "time": 20.431019500000033,
          "velocity": 0.5748031496062992,
          "duration": 0.04310341666666773
        },
        {
          "name": "G4",
          "midi": 67,
          "time": 20.689640000000036,
          "velocity": 0.7874015748031497,
          "duration": 2.0689640000000225
        },
        {
          "name": "B4",
          "midi": 71,
          "time": 20.689640000000036,
          "velocity": 0.7874015748031497,
          "duration": 0.5172410000000056
        },
        {
          "name": "D5",
          "midi": 74,
          "time": 20.689640000000036,
          "velocity": 0.7874015748031497,
          "duration": 1.293102500000014
        },
        {
          "name": "F#5",
          "midi": 78,
          "time": 20.689640000000036,
          "velocity": 0.7874015748031497,
          "duration": 2.0689640000000225
        },
        {
          "name": "B3",
          "midi": 59,
          "time": 20.689640000000036,
          "velocity": 0.7874015748031497,
          "duration": 0.04310341666666773
        },
        {
          "name": "G2",
          "midi": 43,
          "time": 20.689640000000036,
          "velocity": 0.8740157480314961,
          "duration": 0.5043099750000053
        },
        {
          "name": "B3",
          "midi": 59,
          "time": 20.689640000000036,
          "velocity": 0.6299212598425197,
          "duration": 0.30172391666667053
        },
        {
          "name": "D4",
          "midi": 62,
          "time": 20.689640000000036,
          "velocity": 0.6299212598425197,
          "duration": 0.7586201333333413
        },
        {
          "name": "F#4",
          "midi": 66,
          "time": 20.689640000000036,
          "velocity": 0.6299212598425197,
          "duration": 0.7629304750000081
        },
        {
          "name": "G2",
          "midi": 43,
          "time": 20.689640000000036,
          "velocity": 0.6692913385826772,
          "duration": 0.7629304750000081
        },
        {
          "name": "D3",
          "midi": 50,
          "time": 20.689640000000036,
          "velocity": 0.6692913385826772,
          "duration": 0.5086203166666721
        },
        {
          "name": "G3",
          "midi": 55,
          "time": 20.689640000000036,
          "velocity": 0.6692913385826772,
          "duration": 0.4999996333333385
        },
        {
          "name": "F#3",
          "midi": 54,
          "time": 20.689640000000036,
          "velocity": 0.5511811023622047,
          "duration": 0.7586201333333413
        },
        {
          "name": "B3",
          "midi": 59,
          "time": 20.689640000000036,
          "velocity": 0.5511811023622047,
          "duration": 0.5172410000000056
        },
        {
          "name": "D4",
          "midi": 62,
          "time": 20.689640000000036,
          "velocity": 0.5511811023622047,
          "duration": 0.7586201333333413
        },
        {
          "name": "B1",
          "midi": 35,
          "time": 20.689640000000036,
          "velocity": 0.8740157480314961,
          "duration": 0.04310341666666773
        },
        {
          "name": "B3",
          "midi": 59,
          "time": 20.689640000000036,
          "velocity": 0.8740157480314961,
          "duration": 0.5603444166666733
        },
        {
          "name": "B4",
          "midi": 71,
          "time": 20.94826050000004,
          "velocity": 0.7874015748031497,
          "duration": 0.2586205000000028
        },
        {
          "name": "B4",
          "midi": 71,
          "time": 20.94826050000004,
          "velocity": 0.7874015748031497,
          "duration": 0.5172410000000056
        },
        {
          "name": "B3",
          "midi": 59,
          "time": 20.94826050000004,
          "velocity": 0.6929133858267716,
          "duration": 0.5043099750000053
        },
        {
          "name": "B4",
          "midi": 71,
          "time": 21.206881000000042,
          "velocity": 0.7874015748031497,
          "duration": 0.2586205000000028
        },
        {
          "name": "B4",
          "midi": 71,
          "time": 21.206881000000042,
          "velocity": 0.7874015748031497,
          "duration": 1.0344820000000112
        },
        {
          "name": "D4",
          "midi": 62,
          "time": 21.206881000000042,
          "velocity": 0.7874015748031497,
          "duration": 0.2586205000000028
        },
        {
          "name": "G2",
          "midi": 43,
          "time": 21.206881000000042,
          "velocity": 0.5905511811023622,
          "duration": 0.2586205000000028
        },
        {
          "name": "D3",
          "midi": 50,
          "time": 21.206881000000042,
          "velocity": 0.5905511811023622,
          "duration": 0.2456894750000025
        },
        {
          "name": "G3",
          "midi": 55,
          "time": 21.206881000000042,
          "velocity": 0.5905511811023622,
          "duration": 0.24999981666666926
        },
        {
          "name": "E2",
          "midi": 40,
          "time": 21.206881000000042,
          "velocity": 0.8661417322834646,
          "duration": 0.04310341666666773
        },
        {
          "name": "F#2",
          "midi": 42,
          "time": 21.206881000000042,
          "velocity": 0.8582677165354331,
          "duration": 0.04310341666666773
        },
        {
          "name": "B3",
          "midi": 59,
          "time": 21.206881000000042,
          "velocity": 0.7086614173228346,
          "duration": 0.24999981666666926
        },
        {
          "name": "C#5",
          "midi": 73,
          "time": 21.465501500000045,
          "velocity": 0.7874015748031497,
          "duration": 0.2586205000000028
        },
        {
          "name": "C#5",
          "midi": 73,
          "time": 21.465501500000045,
          "velocity": 0.7874015748031497,
          "duration": 0.2586205000000028
        },
        {
          "name": "C#4",
          "midi": 61,
          "time": 21.465501500000045,
          "velocity": 0.7874015748031497,
          "duration": 0.2586205000000028
        },
        {
          "name": "B2",
          "midi": 47,
          "time": 21.465501500000045,
          "velocity": 0.8661417322834646,
          "duration": 0.5172410000000056
        },
        {
          "name": "B3",
          "midi": 59,
          "time": 21.465501500000045,
          "velocity": 0.5511811023622047,
          "duration": 0.04310341666666773
        },
        {
          "name": "D4",
          "midi": 62,
          "time": 21.465501500000045,
          "velocity": 0.5511811023622047,
          "duration": 0.5043099750000053
        },
        {
          "name": "F#4",
          "midi": 66,
          "time": 21.465501500000045,
          "velocity": 0.5511811023622047,
          "duration": 1.2801714750000137
        },
        {
          "name": "G2",
          "midi": 43,
          "time": 21.465501500000045,
          "velocity": 0.5905511811023622,
          "duration": 0.7672408166666749
        },
        {
          "name": "D3",
          "midi": 50,
          "time": 21.465501500000045,
          "velocity": 0.5905511811023622,
          "duration": 0.7629304750000081
        },
        {
          "name": "G3",
          "midi": 55,
          "time": 21.465501500000045,
          "velocity": 0.5905511811023622,
          "duration": 0.7672408166666749
        },
        {
          "name": "F#3",
          "midi": 54,
          "time": 21.465501500000045,
          "velocity": 0.6692913385826772,
          "duration": 0.5043099750000053
        },
        {
          "name": "B3",
          "midi": 59,
          "time": 21.465501500000045,
          "velocity": 0.6692913385826772,
          "duration": 0.30172391666667053
        },
        {
          "name": "D4",
          "midi": 62,
          "time": 21.465501500000045,
          "velocity": 0.6692913385826772,
          "duration": 1.021550975000011
        },
        {
          "name": "B3",
          "midi": 59,
          "time": 21.465501500000045,
          "velocity": 0.7007874015748031,
          "duration": 0.5043099750000053
        },
        {
          "name": "D5",
          "midi": 74,
          "time": 21.724122000000047,
          "velocity": 0.7874015748031497,
          "duration": 0.2586205000000028
        },
        {
          "name": "D5",
          "midi": 74,
          "time": 21.724122000000047,
          "velocity": 0.7874015748031497,
          "duration": 1.0344820000000112
        },
        {
          "name": "B3",
          "midi": 59,
          "time": 21.724122000000047,
          "velocity": 0.7874015748031497,
          "duration": 0.2586205000000028
        },
        {
          "name": "B1",
          "midi": 35,
          "time": 21.724122000000047,
          "velocity": 0.8503937007874016,
          "duration": 0.04310341666666773
        },
        {
          "name": "B3",
          "midi": 59,
          "time": 21.724122000000047,
          "velocity": 0.7086614173228346,
          "duration": 0.30172391666667053
        },
        {
          "name": "B4",
          "midi": 71,
          "time": 21.98274250000005,
          "velocity": 0.7874015748031497,
          "duration": 0.2586205000000028
        },
        {
          "name": "B4",
          "midi": 71,
          "time": 21.98274250000005,
          "velocity": 0.7874015748031497,
          "duration": 0.7758615000000084
        },
        {
          "name": "B3",
          "midi": 59,
          "time": 21.98274250000005,
          "velocity": 0.7874015748031497,
          "duration": 0.2586205000000028
        },
        {
          "name": "D3",
          "midi": 50,
          "time": 21.98274250000005,
          "velocity": 0.6929133858267716,
          "duration": 0.2586205000000028
        },
        {
          "name": "F#3",
          "midi": 54,
          "time": 21.98274250000005,
          "velocity": 0.5511811023622047,
          "duration": 0.5086203166666721
        },
        {
          "name": "B3",
          "midi": 59,
          "time": 21.98274250000005,
          "velocity": 0.5511811023622047,
          "duration": 0.30172391666667053
        },
        {
          "name": "D4",
          "midi": 62,
          "time": 21.98274250000005,
          "velocity": 0.5511811023622047,
          "duration": 0.7586201333333413
        },
        {
          "name": "B3",
          "midi": 59,
          "time": 21.98274250000005,
          "velocity": 0.7007874015748031,
          "duration": 0.4999996333333385
        },
        {
          "name": "E3",
          "midi": 52,
          "time": 22.241363000000053,
          "velocity": 0.8503937007874016,
          "duration": 0.2586205000000028
        },
        {
          "name": "G2",
          "midi": 43,
          "time": 22.241363000000053,
          "velocity": 0.5905511811023622,
          "duration": 0.5043099750000053
        },
        {
          "name": "D3",
          "midi": 50,
          "time": 22.241363000000053,
          "velocity": 0.5905511811023622,
          "duration": 0.5043099750000053
        },
        {
          "name": "G3",
          "midi": 55,
          "time": 22.241363000000053,
          "velocity": 0.5905511811023622,
          "duration": 0.4999996333333385
        },
        {
          "name": "E2",
          "midi": 40,
          "time": 22.241363000000053,
          "velocity": 0.8582677165354331,
          "duration": 0.04310341666666773
        },
        {
          "name": "F#2",
          "midi": 42,
          "time": 22.241363000000053,
          "velocity": 0.8661417322834646,
          "duration": 0.04310341666666773
        },
        {
          "name": "B3",
          "midi": 59,
          "time": 22.241363000000053,
          "velocity": 0.7007874015748031,
          "duration": 0.30172391666667053
        },
        {
          "name": "A4",
          "midi": 69,
          "time": 22.499983500000056,
          "velocity": 0.7874015748031497,
          "duration": 0.2586205000000028
        },
        {
          "name": "A4",
          "midi": 69,
          "time": 22.499983500000056,
          "velocity": 0.7874015748031497,
          "duration": 0.2586205000000028
        },
        {
          "name": "B3",
          "midi": 59,
          "time": 22.499983500000056,
          "velocity": 0.7874015748031497,
          "duration": 0.2456894750000025
        },
        {
          "name": "D3",
          "midi": 50,
          "time": 22.499983500000056,
          "velocity": 0.7007874015748031,
          "duration": 0.2586205000000028
        },
        {
          "name": "F#3",
          "midi": 54,
          "time": 22.499983500000056,
          "velocity": 0.5511811023622047,
          "duration": 0.24999981666666926
        },
        {
          "name": "B3",
          "midi": 59,
          "time": 22.499983500000056,
          "velocity": 0.5511811023622047,
          "duration": 0.24999981666666926
        },
        {
          "name": "D4",
          "midi": 62,
          "time": 22.499983500000056,
          "velocity": 0.5511811023622047,
          "duration": 0.24999981666666926
        },
        {
          "name": "B1",
          "midi": 35,
          "time": 22.499983500000056,
          "velocity": 0.5275590551181102,
          "duration": 0.04310341666666773
        },
        {
          "name": "B3",
          "midi": 59,
          "time": 22.499983500000056,
          "velocity": 0.5511811023622047,
          "duration": 0.2586205000000028
        },
        {
          "name": "A5",
          "midi": 81,
          "time": 22.75860400000006,
          "velocity": 0.7874015748031497,
          "duration": 0.5172410000000056
        },
        {
          "name": "A5",
          "midi": 81,
          "time": 22.75860400000006,
          "velocity": 0.7874015748031497,
          "duration": 0.5172410000000056
        },
        {
          "name": "G4",
          "midi": 67,
          "time": 22.75860400000006,
          "velocity": 0.7874015748031497,
          "duration": 0.7629304750000081
        },
        {
          "name": "B4",
          "midi": 71,
          "time": 22.75860400000006,
          "velocity": 0.7874015748031497,
          "duration": 1.0344820000000112
        },
        {
          "name": "E5",
          "midi": 76,
          "time": 22.75860400000006,
          "velocity": 0.7874015748031497,
          "duration": 1.0344820000000112
        },
        {
          "name": "E3",
          "midi": 52,
          "time": 22.75860400000006,
          "velocity": 0.7874015748031497,
          "duration": 0.5043099750000053
        },
        {
          "name": "E2",
          "midi": 40,
          "time": 22.75860400000006,
          "velocity": 0.8661417322834646,
          "duration": 0.04310341666666773
        },
        {
          "name": "B3",
          "midi": 59,
          "time": 22.75860400000006,
          "velocity": 0.6299212598425197,
          "duration": 0.7629304750000081
        },
        {
          "name": "D4",
          "midi": 62,
          "time": 22.75860400000006,
          "velocity": 0.6299212598425197,
          "duration": 0.7586201333333413
        },
        {
          "name": "G4",
          "midi": 67,
          "time": 22.75860400000006,
          "velocity": 0.6299212598425197,
          "duration": 1.0344820000000112
        },
        {
          "name": "E2",
          "midi": 40,
          "time": 22.75860400000006,
          "velocity": 0.6692913385826772,
          "duration": 0.4999996333333385
        },
        {
          "name": "B2",
          "midi": 47,
          "time": 22.75860400000006,
          "velocity": 0.6692913385826772,
          "duration": 0.5043099750000053
        },
        {
          "name": "E3",
          "midi": 52,
          "time": 22.75860400000006,
          "velocity": 0.6692913385826772,
          "duration": 0.5172410000000056
        },
        {
          "name": "D3",
          "midi": 50,
          "time": 22.75860400000006,
          "velocity": 0.5511811023622047,
          "duration": 0.43103416666667016
        },
        {
          "name": "G3",
          "midi": 55,
          "time": 22.75860400000006,
          "velocity": 0.5511811023622047,
          "duration": 0.7672408166666749
        },
        {
          "name": "B3",
          "midi": 59,
          "time": 22.75860400000006,
          "velocity": 0.5511811023622047,
          "duration": 0.7629304750000081
        },
        {
          "name": "E2",
          "midi": 40,
          "time": 22.75860400000006,
          "velocity": 0.8661417322834646,
          "duration": 0.689654666666673
        },
        {
          "name": "B1",
          "midi": 35,
          "time": 23.01722450000006,
          "velocity": 0.7007874015748031,
          "duration": 0.04310341666666773
        },
        {
          "name": "D3",
          "midi": 50,
          "time": 23.14653475000006,
          "velocity": 0.5590551181102362,
          "duration": 0.1724136666666709
        },
        {
          "name": "A5",
          "midi": 81,
          "time": 23.275845000000064,
          "velocity": 0.7874015748031497,
          "duration": 0.2586205000000028
        },
        {
          "name": "A5",
          "midi": 81,
          "time": 23.275845000000064,
          "velocity": 0.7874015748031497,
          "duration": 0.2586205000000028
        },
        {
          "name": "E3",
          "midi": 52,
          "time": 23.275845000000064,
          "velocity": 0.7874015748031497,
          "duration": 0.24137913333333572
        },
        {
          "name": "E2",
          "midi": 40,
          "time": 23.275845000000064,
          "velocity": 0.5905511811023622,
          "duration": 0.2456894750000025
        },
        {
          "name": "B2",
          "midi": 47,
          "time": 23.275845000000064,
          "velocity": 0.5905511811023622,
          "duration": 0.24999981666666926
        },
        {
          "name": "E3",
          "midi": 52,
          "time": 23.275845000000064,
          "velocity": 0.5905511811023622,
          "duration": 0.4999996333333385
        },
        {
          "name": "D3",
          "midi": 50,
          "time": 23.275845000000064,
          "velocity": 0.8582677165354331,
          "duration": 0.2456894750000025
        },
        {
          "name": "E2",
          "midi": 40,
          "time": 23.405155250000064,
          "velocity": 0.3700787401574803,
          "duration": 0.12931025000000318
        },
        {
          "name": "E5",
          "midi": 76,
          "time": 23.534465500000067,
          "velocity": 0.7874015748031497,
          "duration": 1.293102500000014
        },
        {
          "name": "E5",
          "midi": 76,
          "time": 23.534465500000067,
          "velocity": 0.7874015748031497,
          "duration": 1.293102500000014
        },
        {
          "name": "G2",
          "midi": 43,
          "time": 23.534465500000067,
          "velocity": 0.8503937007874016,
          "duration": 0.2586205000000028
        },
        {
          "name": "G3",
          "midi": 55,
          "time": 23.534465500000067,
          "velocity": 0.5511811023622047,
          "duration": 0.24999981666666926
        },
        {
          "name": "B3",
          "midi": 59,
          "time": 23.534465500000067,
          "velocity": 0.5511811023622047,
          "duration": 0.24137913333333572
        },
        {
          "name": "D4",
          "midi": 62,
          "time": 23.534465500000067,
          "velocity": 0.5511811023622047,
          "duration": 0.2456894750000025
        },
        {
          "name": "E2",
          "midi": 40,
          "time": 23.534465500000067,
          "velocity": 0.5905511811023622,
          "duration": 0.17241366666666735
        },
        {
          "name": "B2",
          "midi": 47,
          "time": 23.534465500000067,
          "velocity": 0.5905511811023622,
          "duration": 0.24137913333333572
        },
        {
          "name": "E3",
          "midi": 52,
          "time": 23.534465500000067,
          "velocity": 0.5905511811023622,
          "duration": 0.2586205000000028
        },
        {
          "name": "D3",
          "midi": 50,
          "time": 23.534465500000067,
          "velocity": 0.6692913385826772,
          "duration": 0.24999981666666926
        },
        {
          "name": "G3",
          "midi": 55,
          "time": 23.534465500000067,
          "velocity": 0.6692913385826772,
          "duration": 0.24999981666666926
        },
        {
          "name": "B3",
          "midi": 59,
          "time": 23.534465500000067,
          "velocity": 0.6692913385826772,
          "duration": 0.24137913333333572
        },
        {
          "name": "B1",
          "midi": 35,
          "time": 23.534465500000067,
          "velocity": 0.7165354330708661,
          "duration": 0.04310341666666773
        },
        {
          "name": "E2",
          "midi": 40,
          "time": 23.663775750000067,
          "velocity": 0.3543307086614173,
          "duration": 0.12068956666666963
        },
        {
          "name": "A4",
          "midi": 69,
          "time": 23.79308600000007,
          "velocity": 0.7874015748031497,
          "duration": 1.0258613166666777
        },
        {
          "name": "C#5",
          "midi": 73,
          "time": 23.79308600000007,
          "velocity": 0.7874015748031497,
          "duration": 1.0344820000000112
        },
        {
          "name": "A3",
          "midi": 57,
          "time": 23.79308600000007,
          "velocity": 0.7874015748031497,
          "duration": 0.5086203166666721
        },
        {
          "name": "A2",
          "midi": 45,
          "time": 23.79308600000007,
          "velocity": 0.8661417322834646,
          "duration": 0.5086203166666721
        },
        {
          "name": "C#4",
          "midi": 61,
          "time": 23.79308600000007,
          "velocity": 0.6299212598425197,
          "duration": 0.7586201333333413
        },
        {
          "name": "E4",
          "midi": 64,
          "time": 23.79308600000007,
          "velocity": 0.6299212598425197,
          "duration": 1.0172406333333441
        },
        {
          "name": "A4",
          "midi": 69,
          "time": 23.79308600000007,
          "velocity": 0.6299212598425197,
          "duration": 1.0344820000000112
        },
        {
          "name": "A2",
          "midi": 45,
          "time": 23.79308600000007,
          "velocity": 0.6692913385826772,
          "duration": 0.5172410000000056
        },
        {
          "name": "E3",
          "midi": 52,
          "time": 23.79308600000007,
          "velocity": 0.6692913385826772,
          "duration": 0.4999996333333385
        },
        {
          "name": "A3",
          "midi": 57,
          "time": 23.79308600000007,
          "velocity": 0.6692913385826772,
          "duration": 0.5172410000000056
        },
        {
          "name": "E3",
          "midi": 52,
          "time": 23.79308600000007,
          "velocity": 0.6692913385826772,
          "duration": 0.7629304750000081
        },
        {
          "name": "A3",
          "midi": 57,
          "time": 23.79308600000007,
          "velocity": 0.6692913385826772,
          "duration": 0.7586201333333413
        },
        {
          "name": "C#4",
          "midi": 61,
          "time": 23.79308600000007,
          "velocity": 0.6692913385826772,
          "duration": 1.0172406333333441
        },
        {
          "name": "E2",
          "midi": 40,
          "time": 23.79308600000007,
          "velocity": 0.3543307086614173,
          "duration": 0.04310341666666773
        },
        {
          "name": "D3",
          "midi": 50,
          "time": 24.051706500000073,
          "velocity": 0.8661417322834646,
          "duration": 0.04310341666666773
        },
        {
          "name": "A3",
          "midi": 57,
          "time": 24.310327000000076,
          "velocity": 0.7874015748031497,
          "duration": 0.5043099750000053
        },
        {
          "name": "F#3",
          "midi": 54,
          "time": 24.310327000000076,
          "velocity": 0.8582677165354331,
          "duration": 0.2586205000000028
        },
        {
          "name": "A2",
          "midi": 45,
          "time": 24.310327000000076,
          "velocity": 0.5905511811023622,
          "duration": 0.5043099750000053
        },
        {
          "name": "E3",
          "midi": 52,
          "time": 24.310327000000076,
          "velocity": 0.5905511811023622,
          "duration": 0.4999996333333385
        },
        {
          "name": "A3",
          "midi": 57,
          "time": 24.310327000000076,
          "velocity": 0.5905511811023622,
          "duration": 0.5043099750000053
        },
        {
          "name": "E2",
          "midi": 40,
          "time": 24.310327000000076,
          "velocity": 0.3700787401574803,
          "duration": 0.04310341666666773
        },
        {
          "name": "E2",
          "midi": 40,
          "time": 24.439637250000075,
          "velocity": 0.3464566929133858,
          "duration": 0.04310341666666773
        },
        {
          "name": "A3",
          "midi": 57,
          "time": 24.56894750000008,
          "velocity": 0.7165354330708661,
          "duration": 0.2586205000000028
        },
        {
          "name": "E3",
          "midi": 52,
          "time": 24.56894750000008,
          "velocity": 0.5511811023622047,
          "duration": 0.24999981666666926
        },
        {
          "name": "A3",
          "midi": 57,
          "time": 24.56894750000008,
          "velocity": 0.5511811023622047,
          "duration": 0.2586205000000028
        },
        {
          "name": "C#4",
          "midi": 61,
          "time": 24.56894750000008,
          "velocity": 0.5511811023622047,
          "duration": 0.24999981666666926
        },
        {
          "name": "C3",
          "midi": 48,
          "time": 24.56894750000008,
          "velocity": 0.8661417322834646,
          "duration": 0.04310341666666773
        },
        {
          "name": "A3",
          "midi": 57,
          "time": 24.823257658333414,
          "velocity": 0.8740157480314961,
          "duration": 0.004310341666666773
        },
        {
          "name": "G4",
          "midi": 67,
          "time": 24.82756800000008,
          "velocity": 0.7874015748031497,
          "duration": 2.0689640000000225
        },
        {
          "name": "B4",
          "midi": 71,
          "time": 24.82756800000008,
          "velocity": 0.7874015748031497,
          "duration": 0.5172410000000056
        },
        {
          "name": "D5",
          "midi": 74,
          "time": 24.82756800000008,
          "velocity": 0.7874015748031497,
          "duration": 1.293102500000014
        },
        {
          "name": "F#5",
          "midi": 78,
          "time": 24.82756800000008,
          "velocity": 0.7874015748031497,
          "duration": 2.0689640000000225
        },
        {
          "name": "B3",
          "midi": 59,
          "time": 24.82756800000008,
          "velocity": 0.7874015748031497,
          "duration": 0.04310341666666773
        },
        {
          "name": "G2",
          "midi": 43,
          "time": 24.82756800000008,
          "velocity": 0.8582677165354331,
          "duration": 0.5086203166666721
        },
        {
          "name": "B3",
          "midi": 59,
          "time": 24.82756800000008,
          "velocity": 0.6299212598425197,
          "duration": 0.30172391666667053
        },
        {
          "name": "D4",
          "midi": 62,
          "time": 24.82756800000008,
          "velocity": 0.6299212598425197,
          "duration": 0.7758615000000084
        },
        {
          "name": "F#4",
          "midi": 66,
          "time": 24.82756800000008,
          "velocity": 0.6299212598425197,
          "duration": 2.056032975000022
        },
        {
          "name": "G2",
          "midi": 43,
          "time": 24.82756800000008,
          "velocity": 0.6692913385826772,
          "duration": 0.7629304750000081
        },
        {
          "name": "D3",
          "midi": 50,
          "time": 24.82756800000008,
          "velocity": 0.6692913385826772,
          "duration": 0.5086203166666721
        },
        {
          "name": "G3",
          "midi": 55,
          "time": 24.82756800000008,
          "velocity": 0.6692913385826772,
          "duration": 0.4999996333333385
        },
        {
          "name": "D3",
          "midi": 50,
          "time": 24.82756800000008,
          "velocity": 0.5511811023622047,
          "duration": 0.7586201333333413
        },
        {
          "name": "F#3",
          "midi": 54,
          "time": 24.82756800000008,
          "velocity": 0.5511811023622047,
          "duration": 0.7629304750000081
        },
        {
          "name": "B3",
          "midi": 59,
          "time": 24.82756800000008,
          "velocity": 0.5511811023622047,
          "duration": 0.5172410000000056
        },
        {
          "name": "B1",
          "midi": 35,
          "time": 24.82756800000008,
          "velocity": 0.8740157480314961,
          "duration": 0.04310341666666773
        },
        {
          "name": "B3",
          "midi": 59,
          "time": 24.82756800000008,
          "velocity": 0.8740157480314961,
          "duration": 0.5603444166666733
        },
        {
          "name": "B4",
          "midi": 71,
          "time": 25.086188500000084,
          "velocity": 0.7874015748031497,
          "duration": 0.2586205000000028
        },
        {
          "name": "B4",
          "midi": 71,
          "time": 25.086188500000084,
          "velocity": 0.7874015748031497,
          "duration": 0.5172410000000056
        },
        {
          "name": "B3",
          "midi": 59,
          "time": 25.086188500000084,
          "velocity": 0.6929133858267716,
          "duration": 0.5086203166666721
        },
        {
          "name": "B4",
          "midi": 71,
          "time": 25.344809000000087,
          "velocity": 0.7874015748031497,
          "duration": 0.2586205000000028
        },
        {
          "name": "B4",
          "midi": 71,
          "time": 25.344809000000087,
          "velocity": 0.7874015748031497,
          "duration": 1.0344820000000112
        },
        {
          "name": "D4",
          "midi": 62,
          "time": 25.344809000000087,
          "velocity": 0.7874015748031497,
          "duration": 1.5387919750000165
        },
        {
          "name": "G2",
          "midi": 43,
          "time": 25.344809000000087,
          "velocity": 0.5905511811023622,
          "duration": 0.2586205000000028
        },
        {
          "name": "D3",
          "midi": 50,
          "time": 25.344809000000087,
          "velocity": 0.5905511811023622,
          "duration": 0.2456894750000025
        },
        {
          "name": "G3",
          "midi": 55,
          "time": 25.344809000000087,
          "velocity": 0.5905511811023622,
          "duration": 0.2456894750000025
        },
        {
          "name": "E2",
          "midi": 40,
          "time": 25.344809000000087,
          "velocity": 0.8661417322834646,
          "duration": 0.04310341666666773
        },
        {
          "name": "F#2",
          "midi": 42,
          "time": 25.344809000000087,
          "velocity": 0.8503937007874016,
          "duration": 0.04310341666666773
        },
        {
          "name": "B3",
          "midi": 59,
          "time": 25.344809000000087,
          "velocity": 0.7086614173228346,
          "duration": 0.30172391666667053
        },
        {
          "name": "C#5",
          "midi": 73,
          "time": 25.60342950000009,
          "velocity": 0.7874015748031497,
          "duration": 0.2586205000000028
        },
        {
          "name": "C#5",
          "midi": 73,
          "time": 25.60342950000009,
          "velocity": 0.7874015748031497,
          "duration": 0.2586205000000028
        },
        {
          "name": "C#4",
          "midi": 61,
          "time": 25.60342950000009,
          "velocity": 0.7874015748031497,
          "duration": 0.2586205000000028
        },
        {
          "name": "B2",
          "midi": 47,
          "time": 25.60342950000009,
          "velocity": 0.8582677165354331,
          "duration": 0.5172410000000056
        },
        {
          "name": "G2",
          "midi": 43,
          "time": 25.60342950000009,
          "velocity": 0.5905511811023622,
          "duration": 0.7629304750000081
        },
        {
          "name": "D3",
          "midi": 50,
          "time": 25.60342950000009,
          "velocity": 0.5905511811023622,
          "duration": 0.5043099750000053
        },
        {
          "name": "G3",
          "midi": 55,
          "time": 25.60342950000009,
          "velocity": 0.5905511811023622,
          "duration": 0.7629304750000081
        },
        {
          "name": "D3",
          "midi": 50,
          "time": 25.60342950000009,
          "velocity": 0.6692913385826772,
          "duration": 0.7586201333333413
        },
        {
          "name": "F#3",
          "midi": 54,
          "time": 25.60342950000009,
          "velocity": 0.6692913385826772,
          "duration": 0.4999996333333385
        },
        {
          "name": "B3",
          "midi": 59,
          "time": 25.60342950000009,
          "velocity": 0.6692913385826772,
          "duration": 0.30172391666667053
        },
        {
          "name": "B1",
          "midi": 35,
          "time": 25.60342950000009,
          "velocity": 0.5433070866141733,
          "duration": 0.04310341666666773
        },
        {
          "name": "B3",
          "midi": 59,
          "time": 25.60342950000009,
          "velocity": 0.7007874015748031,
          "duration": 0.5043099750000053
        },
        {
          "name": "D5",
          "midi": 74,
          "time": 25.862050000000092,
          "velocity": 0.7874015748031497,
          "duration": 0.2586205000000028
        },
        {
          "name": "D5",
          "midi": 74,
          "time": 25.862050000000092,
          "velocity": 0.7874015748031497,
          "duration": 0.7758615000000084
        },
        {
          "name": "B3",
          "midi": 59,
          "time": 25.862050000000092,
          "velocity": 0.7874015748031497,
          "duration": 0.2586205000000028
        },
        {
          "name": "B1",
          "midi": 35,
          "time": 25.862050000000092,
          "velocity": 0.8740157480314961,
          "duration": 0.04310341666666773
        },
        {
          "name": "B3",
          "midi": 59,
          "time": 25.862050000000092,
          "velocity": 0.7086614173228346,
          "duration": 0.30172391666667053
        },
        {
          "name": "B4",
          "midi": 71,
          "time": 26.120670500000095,
          "velocity": 0.7874015748031497,
          "duration": 0.2586205000000028
        },
        {
          "name": "B4",
          "midi": 71,
          "time": 26.120670500000095,
          "velocity": 0.7874015748031497,
          "duration": 0.7758615000000084
        },
        {
          "name": "B3",
          "midi": 59,
          "time": 26.120670500000095,
          "velocity": 0.7874015748031497,
          "duration": 0.2586205000000028
        },
        {
          "name": "D3",
          "midi": 50,
          "time": 26.120670500000095,
          "velocity": 0.6929133858267716,
          "duration": 0.2456894750000025
        },
        {
          "name": "D3",
          "midi": 50,
          "time": 26.120670500000095,
          "velocity": 0.5511811023622047,
          "duration": 0.5086203166666721
        },
        {
          "name": "F#3",
          "midi": 54,
          "time": 26.120670500000095,
          "velocity": 0.5511811023622047,
          "duration": 0.5043099750000053
        },
        {
          "name": "B3",
          "midi": 59,
          "time": 26.120670500000095,
          "velocity": 0.5511811023622047,
          "duration": 0.30172391666667053
        },
        {
          "name": "B3",
          "midi": 59,
          "time": 26.120670500000095,
          "velocity": 0.7007874015748031,
          "duration": 0.5086203166666721
        },
        {
          "name": "D5",
          "midi": 74,
          "time": 26.379291000000098,
          "velocity": 0.7874015748031497,
          "duration": 0.2586205000000028
        },
        {
          "name": "D5",
          "midi": 74,
          "time": 26.379291000000098,
          "velocity": 0.7874015748031497,
          "duration": 0.5172410000000056
        },
        {
          "name": "D3",
          "midi": 50,
          "time": 26.379291000000098,
          "velocity": 0.7007874015748031,
          "duration": 0.2586205000000028
        },
        {
          "name": "G2",
          "midi": 43,
          "time": 26.379291000000098,
          "velocity": 0.5905511811023622,
          "duration": 0.4999996333333385
        },
        {
          "name": "D3",
          "midi": 50,
          "time": 26.379291000000098,
          "velocity": 0.5905511811023622,
          "duration": 0.4999996333333385
        },
        {
          "name": "G3",
          "midi": 55,
          "time": 26.379291000000098,
          "velocity": 0.5905511811023622,
          "duration": 0.4999996333333385
        },
        {
          "name": "E2",
          "midi": 40,
          "time": 26.379291000000098,
          "velocity": 0.8503937007874016,
          "duration": 0.04310341666666773
        },
        {
          "name": "F#2",
          "midi": 42,
          "time": 26.379291000000098,
          "velocity": 0.8740157480314961,
          "duration": 0.04310341666666773
        },
        {
          "name": "B3",
          "midi": 59,
          "time": 26.379291000000098,
          "velocity": 0.7007874015748031,
          "duration": 0.30172391666667053
        },
        {
          "name": "E5",
          "midi": 76,
          "time": 26.6379115000001,
          "velocity": 0.7874015748031497,
          "duration": 0.2586205000000028
        },
        {
          "name": "E5",
          "midi": 76,
          "time": 26.6379115000001,
          "velocity": 0.7874015748031497,
          "duration": 0.2586205000000028
        },
        {
          "name": "F#3",
          "midi": 54,
          "time": 26.6379115000001,
          "velocity": 0.7874015748031497,
          "duration": 0.2456894750000025
        },
        {
          "name": "B2",
          "midi": 47,
          "time": 26.6379115000001,
          "velocity": 0.7007874015748031,
          "duration": 0.2586205000000028
        },
        {
          "name": "D3",
          "midi": 50,
          "time": 26.6379115000001,
          "velocity": 0.5511811023622047,
          "duration": 0.24137913333333572
        },
        {
          "name": "F#3",
          "midi": 54,
          "time": 26.6379115000001,
          "velocity": 0.5511811023622047,
          "duration": 0.2586205000000028
        },
        {
          "name": "B3",
          "midi": 59,
          "time": 26.6379115000001,
          "velocity": 0.5511811023622047,
          "duration": 0.24137913333333572
        },
        {
          "name": "B3",
          "midi": 59,
          "time": 26.6379115000001,
          "velocity": 0.5511811023622047,
          "duration": 0.2456894750000025
        },
        {
          "name": "A4",
          "midi": 69,
          "time": 26.896532000000104,
          "velocity": 0.7874015748031497,
          "duration": 0.7672408166666749
        },
        {
          "name": "C#5",
          "midi": 73,
          "time": 26.896532000000104,
          "velocity": 0.7874015748031497,
          "duration": 0.5172410000000056
        },
        {
          "name": "E5",
          "midi": 76,
          "time": 26.896532000000104,
          "velocity": 0.7874015748031497,
          "duration": 2.068964000000019
        },
        {
          "name": "B3",
          "midi": 59,
          "time": 26.896532000000104,
          "velocity": 0.7874015748031497,
          "duration": 0.04310341666666773
        },
        {
          "name": "A2",
          "midi": 45,
          "time": 26.896532000000104,
          "velocity": 0.8661417322834646,
          "duration": 0.5043099750000053
        },
        {
          "name": "C#4",
          "midi": 61,
          "time": 26.896532000000104,
          "velocity": 0.6299212598425197,
          "duration": 0.7586201333333413
        },
        {
          "name": "E4",
          "midi": 64,
          "time": 26.896532000000104,
          "velocity": 0.6299212598425197,
          "duration": 0.7672408166666749
        },
        {
          "name": "A4",
          "midi": 69,
          "time": 26.896532000000104,
          "velocity": 0.6299212598425197,
          "duration": 2.068964000000019
        },
        {
          "name": "A2",
          "midi": 45,
          "time": 26.896532000000104,
          "velocity": 0.6692913385826772,
          "duration": 0.7629304750000081
        },
        {
          "name": "E3",
          "midi": 52,
          "time": 26.896532000000104,
          "velocity": 0.6692913385826772,
          "duration": 0.5086203166666721
        },
        {
          "name": "A3",
          "midi": 57,
          "time": 26.896532000000104,
          "velocity": 0.6692913385826772,
          "duration": 0.4999996333333385
        },
        {
          "name": "E3",
          "midi": 52,
          "time": 26.896532000000104,
          "velocity": 0.5511811023622047,
          "duration": 0.7672408166666749
        },
        {
          "name": "A3",
          "midi": 57,
          "time": 26.896532000000104,
          "velocity": 0.5511811023622047,
          "duration": 0.7672408166666749
        },
        {
          "name": "C#4",
          "midi": 61,
          "time": 26.896532000000104,
          "velocity": 0.5511811023622047,
          "duration": 0.7672408166666749
        },
        {
          "name": "B1",
          "midi": 35,
          "time": 26.896532000000104,
          "velocity": 0.8740157480314961,
          "duration": 0.04310341666666773
        },
        {
          "name": "B3",
          "midi": 59,
          "time": 26.896532000000104,
          "velocity": 0.8661417322834646,
          "duration": 0.30172391666667053
        },
        {
          "name": "C#5",
          "midi": 73,
          "time": 27.155152500000106,
          "velocity": 0.7874015748031497,
          "duration": 0.2586205000000028
        },
        {
          "name": "C#5",
          "midi": 73,
          "time": 27.155152500000106,
          "velocity": 0.7874015748031497,
          "duration": 0.6465512500000052
        },
        {
          "name": "B3",
          "midi": 59,
          "time": 27.155152500000106,
          "velocity": 0.6929133858267716,
          "duration": 0.2586205000000028
        },
        {
          "name": "B4",
          "midi": 71,
          "time": 27.41377300000011,
          "velocity": 0.7874015748031497,
          "duration": 0.2586205000000028
        },
        {
          "name": "B4",
          "midi": 71,
          "time": 27.41377300000011,
          "velocity": 0.7874015748031497,
          "duration": 0.2586205000000028
        },
        {
          "name": "D4",
          "midi": 62,
          "time": 27.41377300000011,
          "velocity": 0.7874015748031497,
          "duration": 0.2586205000000028
        },
        {
          "name": "A2",
          "midi": 45,
          "time": 27.41377300000011,
          "velocity": 0.5905511811023622,
          "duration": 0.2586205000000028
        },
        {
          "name": "E3",
          "midi": 52,
          "time": 27.41377300000011,
          "velocity": 0.5905511811023622,
          "duration": 0.24999981666666926
        },
        {
          "name": "A3",
          "midi": 57,
          "time": 27.41377300000011,
          "velocity": 0.5905511811023622,
          "duration": 0.24999981666666926
        },
        {
          "name": "E2",
          "midi": 40,
          "time": 27.41377300000011,
          "velocity": 0.8582677165354331,
          "duration": 0.04310341666666773
        },
        {
          "name": "F#2",
          "midi": 42,
          "time": 27.41377300000011,
          "velocity": 0.8503937007874016,
          "duration": 0.04310341666666773
        },
        {
          "name": "B3",
          "midi": 59,
          "time": 27.41377300000011,
          "velocity": 0.7165354330708661,
          "duration": 0.04310341666666773
        },
        {
          "name": "C#5",
          "midi": 73,
          "time": 27.672393500000112,
          "velocity": 0.7874015748031497,
          "duration": 0.12931024999999963
        },
        {
          "name": "C#5",
          "midi": 73,
          "time": 27.672393500000112,
          "velocity": 0.7874015748031497,
          "duration": 1.2931025000000105
        },
        {
          "name": "C#4",
          "midi": 61,
          "time": 27.672393500000112,
          "velocity": 0.7874015748031497,
          "duration": 0.25862049999999925
        },
        {
          "name": "C#3",
          "midi": 49,
          "time": 27.672393500000112,
          "velocity": 0.8740157480314961,
          "duration": 0.5172410000000021
        },
        {
          "name": "A3",
          "midi": 57,
          "time": 27.672393500000112,
          "velocity": 0.5511811023622047,
          "duration": 0.5043099750000017
        },
        {
          "name": "C#4",
          "midi": 61,
          "time": 27.672393500000112,
          "velocity": 0.5511811023622047,
          "duration": 0.5086203166666685
        },
        {
          "name": "E4",
          "midi": 64,
          "time": 27.672393500000112,
          "velocity": 0.5511811023622047,
          "duration": 1.2801714750000102
        },
        {
          "name": "A2",
          "midi": 45,
          "time": 27.672393500000112,
          "velocity": 0.5905511811023622,
          "duration": 0.7629304750000045
        },
        {
          "name": "E3",
          "midi": 52,
          "time": 27.672393500000112,
          "velocity": 0.5905511811023622,
          "duration": 0.5043099750000017
        },
        {
          "name": "A3",
          "midi": 57,
          "time": 27.672393500000112,
          "velocity": 0.5905511811023622,
          "duration": 0.7586201333333378
        },
        {
          "name": "E3",
          "midi": 52,
          "time": 27.672393500000112,
          "velocity": 0.6692913385826772,
          "duration": 0.7629304750000045
        },
        {
          "name": "A3",
          "midi": 57,
          "time": 27.672393500000112,
          "velocity": 0.6692913385826772,
          "duration": 0.7758615000000049
        },
        {
          "name": "C#4",
          "midi": 61,
          "time": 27.672393500000112,
          "velocity": 0.6692913385826772,
          "duration": 1.0172406333333406
        },
        {
          "name": "B1",
          "midi": 35,
          "time": 27.672393500000112,
          "velocity": 0.5511811023622047,
          "duration": 0.04310341666666773
        },
        {
          "name": "B3",
          "midi": 59,
          "time": 27.672393500000112,
          "velocity": 0.5669291338582677,
          "duration": 0.04310341666666773
        },
        {
          "name": "B4",
          "midi": 71,
          "time": 27.80170375000011,
          "velocity": 0.7874015748031497,
          "duration": 0.12931024999999963
        },
        {
          "name": "B4",
          "midi": 71,
          "time": 27.80170375000011,
          "velocity": 0.7874015748031497,
          "duration": 0.12931024999999963
        },
        {
          "name": "A4",
          "midi": 69,
          "time": 27.93101400000011,
          "velocity": 0.7874015748031497,
          "duration": 1.0344820000000112
        },
        {
          "name": "A4",
          "midi": 69,
          "time": 27.93101400000011,
          "velocity": 0.7874015748031497,
          "duration": 1.0344820000000112
        },
        {
          "name": "A3",
          "midi": 57,
          "time": 27.93101400000011,
          "velocity": 0.7874015748031497,
          "duration": 0.7586201333333413
        },
        {
          "name": "B1",
          "midi": 35,
          "time": 27.93101400000011,
          "velocity": 0.8740157480314961,
          "duration": 0.04310341666666773
        },
        {
          "name": "B3",
          "midi": 59,
          "time": 27.93101400000011,
          "velocity": 0.8661417322834646,
          "duration": 0.04310341666666773
        },
        {
          "name": "E3",
          "midi": 52,
          "time": 28.189634500000114,
          "velocity": 0.7086614173228346,
          "duration": 0.24999981666666926
        },
        {
          "name": "E3",
          "midi": 52,
          "time": 28.189634500000114,
          "velocity": 0.5511811023622047,
          "duration": 0.5043099750000053
        },
        {
          "name": "A3",
          "midi": 57,
          "time": 28.189634500000114,
          "velocity": 0.5511811023622047,
          "duration": 0.7586201333333413
        },
        {
          "name": "C#4",
          "midi": 61,
          "time": 28.189634500000114,
          "velocity": 0.5511811023622047,
          "duration": 0.7586201333333413
        },
        {
          "name": "B3",
          "midi": 59,
          "time": 28.189634500000114,
          "velocity": 0.6929133858267716,
          "duration": 0.04310341666666773
        },
        {
          "name": "E2",
          "midi": 40,
          "time": 28.448255000000117,
          "velocity": 0.7007874015748031,
          "duration": 0.04310341666666773
        },
        {
          "name": "A2",
          "midi": 45,
          "time": 28.448255000000117,
          "velocity": 0.5905511811023622,
          "duration": 0.5086203166666721
        },
        {
          "name": "E3",
          "midi": 52,
          "time": 28.448255000000117,
          "velocity": 0.5905511811023622,
          "duration": 0.5043099750000053
        },
        {
          "name": "A3",
          "midi": 57,
          "time": 28.448255000000117,
          "velocity": 0.5905511811023622,
          "duration": 0.5043099750000053
        },
        {
          "name": "E2",
          "midi": 40,
          "time": 28.448255000000117,
          "velocity": 0.8503937007874016,
          "duration": 0.2586205000000028
        },
        {
          "name": "A#2",
          "midi": 46,
          "time": 28.448255000000117,
          "velocity": 0.8661417322834646,
          "duration": 0.04310341666666773
        },
        {
          "name": "B3",
          "midi": 59,
          "time": 28.448255000000117,
          "velocity": 0.7165354330708661,
          "duration": 0.04310341666666773
        },
        {
          "name": "F#3",
          "midi": 54,
          "time": 28.70687550000012,
          "velocity": 0.7874015748031497,
          "duration": 0.2586205000000028
        },
        {
          "name": "F#2",
          "midi": 42,
          "time": 28.70687550000012,
          "velocity": 0.7086614173228346,
          "duration": 0.2586205000000028
        },
        {
          "name": "E3",
          "midi": 52,
          "time": 28.70687550000012,
          "velocity": 0.5511811023622047,
          "duration": 0.24999981666666926
        },
        {
          "name": "A3",
          "midi": 57,
          "time": 28.70687550000012,
          "velocity": 0.5511811023622047,
          "duration": 0.24999981666666926
        },
        {
          "name": "C#4",
          "midi": 61,
          "time": 28.70687550000012,
          "velocity": 0.5511811023622047,
          "duration": 0.24999981666666926
        },
        {
          "name": "B1",
          "midi": 35,
          "time": 28.70687550000012,
          "velocity": 0.5433070866141733,
          "duration": 0.04310341666666773
        },
        {
          "name": "B3",
          "midi": 59,
          "time": 28.70687550000012,
          "velocity": 0.5748031496062992,
          "duration": 0.04310341666666773
        },
        {
          "name": "A5",
          "midi": 81,
          "time": 28.965496000000122,
          "velocity": 0.7874015748031497,
          "duration": 2.0689640000000225
        },
        {
          "name": "B4",
          "midi": 71,
          "time": 28.965496000000122,
          "velocity": 0.7874015748031497,
          "duration": 0.5172410000000056
        },
        {
          "name": "D5",
          "midi": 74,
          "time": 28.965496000000122,
          "velocity": 0.7874015748031497,
          "duration": 1.293102500000014
        },
        {
          "name": "G5",
          "midi": 79,
          "time": 28.965496000000122,
          "velocity": 0.7874015748031497,
          "duration": 2.0689640000000225
        },
        {
          "name": "B3",
          "midi": 59,
          "time": 28.965496000000122,
          "velocity": 0.7874015748031497,
          "duration": 0.04310341666666773
        },
        {
          "name": "G2",
          "midi": 43,
          "time": 28.965496000000122,
          "velocity": 0.8503937007874016,
          "duration": 0.5086203166666721
        },
        {
          "name": "F#3",
          "midi": 54,
          "time": 28.965496000000122,
          "velocity": 0.6299212598425197,
          "duration": 0.7586201333333413
        },
        {
          "name": "B3",
          "midi": 59,
          "time": 28.965496000000122,
          "velocity": 0.6299212598425197,
          "duration": 0.30172391666667053
        },
        {
          "name": "D4",
          "midi": 62,
          "time": 28.965496000000122,
          "velocity": 0.6299212598425197,
          "duration": 0.7586201333333413
        },
        {
          "name": "G2",
          "midi": 43,
          "time": 28.965496000000122,
          "velocity": 0.6692913385826772,
          "duration": 0.7758615000000084
        },
        {
          "name": "D3",
          "midi": 50,
          "time": 28.965496000000122,
          "velocity": 0.6692913385826772,
          "duration": 0.5086203166666721
        },
        {
          "name": "G3",
          "midi": 55,
          "time": 28.965496000000122,
          "velocity": 0.6692913385826772,
          "duration": 0.4999996333333385
        },
        {
          "name": "F#3",
          "midi": 54,
          "time": 28.965496000000122,
          "velocity": 0.5511811023622047,
          "duration": 0.7629304750000081
        },
        {
          "name": "B3",
          "midi": 59,
          "time": 28.965496000000122,
          "velocity": 0.5511811023622047,
          "duration": 0.5172410000000056
        },
        {
          "name": "D4",
          "midi": 62,
          "time": 28.965496000000122,
          "velocity": 0.5511811023622047,
          "duration": 0.7629304750000081
        },
        {
          "name": "B1",
          "midi": 35,
          "time": 28.965496000000122,
          "velocity": 0.8740157480314961,
          "duration": 0.04310341666666773
        },
        {
          "name": "B3",
          "midi": 59,
          "time": 28.965496000000122,
          "velocity": 0.8740157480314961,
          "duration": 0.5603444166666733
        },
        {
          "name": "B4",
          "midi": 71,
          "time": 29.224116500000125,
          "velocity": 0.7874015748031497,
          "duration": 0.2586205000000028
        },
        {
          "name": "B4",
          "midi": 71,
          "time": 29.224116500000125,
          "velocity": 0.7874015748031497,
          "duration": 0.5172410000000056
        },
        {
          "name": "B3",
          "midi": 59,
          "time": 29.224116500000125,
          "velocity": 0.6929133858267716,
          "duration": 0.4999996333333385
        },
        {
          "name": "B4",
          "midi": 71,
          "time": 29.482737000000128,
          "velocity": 0.7874015748031497,
          "duration": 0.2586205000000028
        },
        {
          "name": "B4",
          "midi": 71,
          "time": 29.482737000000128,
          "velocity": 0.7874015748031497,
          "duration": 1.0344820000000112
        },
        {
          "name": "D4",
          "midi": 62,
          "time": 29.482737000000128,
          "velocity": 0.7874015748031497,
          "duration": 0.2586205000000028
        },
        {
          "name": "G2",
          "midi": 43,
          "time": 29.482737000000128,
          "velocity": 0.5905511811023622,
          "duration": 1.5431023166666833
        },
        {
          "name": "D3",
          "midi": 50,
          "time": 29.482737000000128,
          "velocity": 0.5905511811023622,
          "duration": 1.0344820000000112
        },
        {
          "name": "G3",
          "midi": 55,
          "time": 29.482737000000128,
          "velocity": 0.5905511811023622,
          "duration": 1.5344816333333497
        },
        {
          "name": "E2",
          "midi": 40,
          "time": 29.482737000000128,
          "velocity": 0.8503937007874016,
          "duration": 0.04310341666666773
        },
        {
          "name": "F#2",
          "midi": 42,
          "time": 29.482737000000128,
          "velocity": 0.8740157480314961,
          "duration": 0.04310341666666773
        },
        {
          "name": "B3",
          "midi": 59,
          "time": 29.482737000000128,
          "velocity": 0.7086614173228346,
          "duration": 0.24999981666666926
        },
        {
          "name": "C#5",
          "midi": 73,
          "time": 29.74135750000013,
          "velocity": 0.7874015748031497,
          "duration": 0.2586205000000028
        },
        {
          "name": "C#5",
          "midi": 73,
          "time": 29.74135750000013,
          "velocity": 0.7874015748031497,
          "duration": 0.2586205000000028
        },
        {
          "name": "C#4",
          "midi": 61,
          "time": 29.74135750000013,
          "velocity": 0.7874015748031497,
          "duration": 0.2586205000000028
        },
        {
          "name": "B2",
          "midi": 47,
          "time": 29.74135750000013,
          "velocity": 0.8740157480314961,
          "duration": 0.5172410000000056
        },
        {
          "name": "B3",
          "midi": 59,
          "time": 29.74135750000013,
          "velocity": 0.5511811023622047,
          "duration": 0.04310341666666773
        },
        {
          "name": "D4",
          "midi": 62,
          "time": 29.74135750000013,
          "velocity": 0.5511811023622047,
          "duration": 0.4999996333333385
        },
        {
          "name": "F#4",
          "midi": 66,
          "time": 29.74135750000013,
          "velocity": 0.5511811023622047,
          "duration": 1.275861133333347
        },
        {
          "name": "F#3",
          "midi": 54,
          "time": 29.74135750000013,
          "velocity": 0.6692913385826772,
          "duration": 0.5086203166666721
        },
        {
          "name": "B3",
          "midi": 59,
          "time": 29.74135750000013,
          "velocity": 0.6692913385826772,
          "duration": 0.30172391666667053
        },
        {
          "name": "D4",
          "midi": 62,
          "time": 29.74135750000013,
          "velocity": 0.6692913385826772,
          "duration": 1.0172406333333441
        },
        {
          "name": "B1",
          "midi": 35,
          "time": 29.74135750000013,
          "velocity": 0.5275590551181102,
          "duration": 0.04310341666666773
        },
        {
          "name": "B3",
          "midi": 59,
          "time": 29.74135750000013,
          "velocity": 0.7007874015748031,
          "duration": 0.5043099750000053
        },
        {
          "name": "D5",
          "midi": 74,
          "time": 29.999978000000134,
          "velocity": 0.7874015748031497,
          "duration": 0.2586205000000028
        },
        {
          "name": "D5",
          "midi": 74,
          "time": 29.999978000000134,
          "velocity": 0.7874015748031497,
          "duration": 1.0344820000000112
        },
        {
          "name": "B3",
          "midi": 59,
          "time": 29.999978000000134,
          "velocity": 0.7874015748031497,
          "duration": 0.2586205000000028
        },
        {
          "name": "B1",
          "midi": 35,
          "time": 29.999978000000134,
          "velocity": 0.8582677165354331,
          "duration": 0.04310341666666773
        },
        {
          "name": "B3",
          "midi": 59,
          "time": 29.999978000000134,
          "velocity": 0.7086614173228346,
          "duration": 0.30172391666667053
        },
        {
          "name": "B4",
          "midi": 71,
          "time": 30.258598500000137,
          "velocity": 0.7874015748031497,
          "duration": 0.2586205000000028
        },
        {
          "name": "B4",
          "midi": 71,
          "time": 30.258598500000137,
          "velocity": 0.7874015748031497,
          "duration": 0.7758615000000084
        },
        {
          "name": "B3",
          "midi": 59,
          "time": 30.258598500000137,
          "velocity": 0.7874015748031497,
          "duration": 0.2586205000000028
        },
        {
          "name": "D3",
          "midi": 50,
          "time": 30.258598500000137,
          "velocity": 0.6929133858267716,
          "duration": 0.7629304750000081
        },
        {
          "name": "F#3",
          "midi": 54,
          "time": 30.258598500000137,
          "velocity": 0.5511811023622047,
          "duration": 0.5086203166666721
        },
        {
          "name": "B3",
          "midi": 59,
          "time": 30.258598500000137,
          "velocity": 0.5511811023622047,
          "duration": 0.30172391666667053
        },
        {
          "name": "D4",
          "midi": 62,
          "time": 30.258598500000137,
          "velocity": 0.5511811023622047,
          "duration": 0.7629304750000081
        },
        {
          "name": "B3",
          "midi": 59,
          "time": 30.258598500000137,
          "velocity": 0.7007874015748031,
          "duration": 0.5043099750000053
        },
        {
          "name": "A4",
          "midi": 69,
          "time": 30.51721900000014,
          "velocity": 0.7874015748031497,
          "duration": 0.5172410000000056
        },
        {
          "name": "A4",
          "midi": 69,
          "time": 30.51721900000014,
          "velocity": 0.7874015748031497,
          "duration": 0.5172410000000056
        },
        {
          "name": "E3",
          "midi": 52,
          "time": 30.51721900000014,
          "velocity": 0.8661417322834646,
          "duration": 0.2586205000000028
        },
        {
          "name": "E2",
          "midi": 40,
          "time": 30.51721900000014,
          "velocity": 0.8582677165354331,
          "duration": 0.04310341666666773
        },
        {
          "name": "F#2",
          "midi": 42,
          "time": 30.51721900000014,
          "velocity": 0.8740157480314961,
          "duration": 0.04310341666666773
        },
        {
          "name": "B3",
          "midi": 59,
          "time": 30.51721900000014,
          "velocity": 0.7007874015748031,
          "duration": 0.30172391666667053
        },
        {
          "name": "B3",
          "midi": 59,
          "time": 30.775839500000142,
          "velocity": 0.7874015748031497,
          "duration": 0.2456894750000025
        },
        {
          "name": "D3",
          "midi": 50,
          "time": 30.775839500000142,
          "velocity": 0.7086614173228346,
          "duration": 0.2586205000000028
        },
        {
          "name": "F#3",
          "midi": 54,
          "time": 30.775839500000142,
          "velocity": 0.5511811023622047,
          "duration": 0.24999981666666926
        },
        {
          "name": "B3",
          "midi": 59,
          "time": 30.775839500000142,
          "velocity": 0.5511811023622047,
          "duration": 0.24999981666666926
        },
        {
          "name": "D4",
          "midi": 62,
          "time": 30.775839500000142,
          "velocity": 0.5511811023622047,
          "duration": 0.24999981666666926
        },
        {
          "name": "B3",
          "midi": 59,
          "time": 30.775839500000142,
          "velocity": 0.5511811023622047,
          "duration": 0.2586205000000028
        },
        {
          "name": "E5",
          "midi": 76,
          "time": 31.034460000000145,
          "velocity": 0.7874015748031497,
          "duration": 0.2586205000000028
        },
        {
          "name": "E5",
          "midi": 76,
          "time": 31.034460000000145,
          "velocity": 0.7874015748031497,
          "duration": 0.2586205000000028
        },
        {
          "name": "A5",
          "midi": 81,
          "time": 31.034460000000145,
          "velocity": 0.7874015748031497,
          "duration": 0.2586205000000028
        },
        {
          "name": "E3",
          "midi": 52,
          "time": 31.034460000000145,
          "velocity": 0.7874015748031497,
          "duration": 0.5043099750000053
        },
        {
          "name": "E2",
          "midi": 40,
          "time": 31.034460000000145,
          "velocity": 0.8582677165354331,
          "duration": 0.5086203166666721
        },
        {
          "name": "G3",
          "midi": 55,
          "time": 31.034460000000145,
          "velocity": 0.6299212598425197,
          "duration": 0.7586201333333413
        },
        {
          "name": "B3",
          "midi": 59,
          "time": 31.034460000000145,
          "velocity": 0.6299212598425197,
          "duration": 0.04310341666666773
        },
        {
          "name": "D4",
          "midi": 62,
          "time": 31.034460000000145,
          "velocity": 0.6299212598425197,
          "duration": 1.0172406333333441
        },
        {
          "name": "E2",
          "midi": 40,
          "time": 31.034460000000145,
          "velocity": 0.6692913385826772,
          "duration": 0.5603444166666733
        },
        {
          "name": "B2",
          "midi": 47,
          "time": 31.034460000000145,
          "velocity": 0.6692913385826772,
          "duration": 0.5086203166666721
        },
        {
          "name": "E3",
          "midi": 52,
          "time": 31.034460000000145,
          "velocity": 0.6692913385826772,
          "duration": 0.5172410000000056
        },
        {
          "name": "D3",
          "midi": 50,
          "time": 31.034460000000145,
          "velocity": 0.5511811023622047,
          "duration": 0.7672408166666749
        },
        {
          "name": "G3",
          "midi": 55,
          "time": 31.034460000000145,
          "velocity": 0.5511811023622047,
          "duration": 1.0172406333333441
        },
        {
          "name": "B3",
          "midi": 59,
          "time": 31.034460000000145,
          "velocity": 0.5511811023622047,
          "duration": 0.30172391666667053
        },
        {
          "name": "B1",
          "midi": 35,
          "time": 31.034460000000145,
          "velocity": 0.8661417322834646,
          "duration": 0.04310341666666773
        },
        {
          "name": "B3",
          "midi": 59,
          "time": 31.034460000000145,
          "velocity": 0.8661417322834646,
          "duration": 0.5603444166666733
        },
        {
          "name": "F#5",
          "midi": 78,
          "time": 31.27583913333348,
          "velocity": 0.7874015748031497,
          "duration": 0.5172410000000056
        },
        {
          "name": "E5",
          "midi": 76,
          "time": 31.293080500000148,
          "velocity": 0.7874015748031497,
          "duration": 0.2586205000000028
        },
        {
          "name": "E5",
          "midi": 76,
          "time": 31.293080500000148,
          "velocity": 0.7874015748031497,
          "duration": 0.2586205000000028
        },
        {
          "name": "B3",
          "midi": 59,
          "time": 31.293080500000148,
          "velocity": 0.6929133858267716,
          "duration": 0.4999996333333385
        },
        {
          "name": "E5",
          "midi": 76,
          "time": 31.55170100000015,
          "velocity": 0.7874015748031497,
          "duration": 0.2586205000000028
        },
        {
          "name": "E5",
          "midi": 76,
          "time": 31.55170100000015,
          "velocity": 0.7874015748031497,
          "duration": 0.2586205000000028
        },
        {
          "name": "E3",
          "midi": 52,
          "time": 31.55170100000015,
          "velocity": 0.7874015748031497,
          "duration": 0.24137913333333572
        },
        {
          "name": "E2",
          "midi": 40,
          "time": 31.55170100000015,
          "velocity": 0.5905511811023622,
          "duration": 0.24999981666666926
        },
        {
          "name": "B2",
          "midi": 47,
          "time": 31.55170100000015,
          "velocity": 0.5905511811023622,
          "duration": 0.24999981666666926
        },
        {
          "name": "E3",
          "midi": 52,
          "time": 31.55170100000015,
          "velocity": 0.5905511811023622,
          "duration": 0.5043099750000053
        },
        {
          "name": "E2",
          "midi": 40,
          "time": 31.55170100000015,
          "velocity": 0.8503937007874016,
          "duration": 0.2586205000000028
        },
        {
          "name": "F#2",
          "midi": 42,
          "time": 31.55170100000015,
          "velocity": 0.8503937007874016,
          "duration": 0.04310341666666773
        },
        {
          "name": "B3",
          "midi": 59,
          "time": 31.55170100000015,
          "velocity": 0.7165354330708661,
          "duration": 0.30172391666667053
        },
        {
          "name": "F#5",
          "midi": 78,
          "time": 31.810321500000153,
          "velocity": 0.7874015748031497,
          "duration": 0.2586205000000028
        },
        {
          "name": "F#5",
          "midi": 78,
          "time": 31.810321500000153,
          "velocity": 0.7874015748031497,
          "duration": 0.2586205000000028
        },
        {
          "name": "E5",
          "midi": 76,
          "time": 31.810321500000153,
          "velocity": 0.7874015748031497,
          "duration": 0.5172410000000021
        },
        {
          "name": "G2",
          "midi": 43,
          "time": 31.810321500000153,
          "velocity": 0.8740157480314961,
          "duration": 0.2586205000000028
        },
        {
          "name": "E2",
          "midi": 40,
          "time": 31.810321500000153,
          "velocity": 0.5905511811023622,
          "duration": 0.24999981666666926
        },
        {
          "name": "B2",
          "midi": 47,
          "time": 31.810321500000153,
          "velocity": 0.5905511811023622,
          "duration": 0.24137913333333572
        },
        {
          "name": "E3",
          "midi": 52,
          "time": 31.810321500000153,
          "velocity": 0.5905511811023622,
          "duration": 0.2586205000000028
        },
        {
          "name": "D3",
          "midi": 50,
          "time": 31.810321500000153,
          "velocity": 0.6692913385826772,
          "duration": 0.24137913333333572
        },
        {
          "name": "G3",
          "midi": 55,
          "time": 31.810321500000153,
          "velocity": 0.6692913385826772,
          "duration": 0.2456894750000025
        },
        {
          "name": "B3",
          "midi": 59,
          "time": 31.810321500000153,
          "velocity": 0.6692913385826772,
          "duration": 0.2456894750000025
        },
        {
          "name": "B3",
          "midi": 59,
          "time": 31.810321500000153,
          "velocity": 0.5669291338582677,
          "duration": 0.2456894750000025
        },
        {
          "name": "E5",
          "midi": 76,
          "time": 32.068942000000156,
          "velocity": 0.7874015748031497,
          "duration": 0.5172410000000056
        },
        {
          "name": "E5",
          "midi": 76,
          "time": 32.068942000000156,
          "velocity": 0.7874015748031497,
          "duration": 0.5172410000000056
        },
        {
          "name": "A3",
          "midi": 57,
          "time": 32.068942000000156,
          "velocity": 0.7874015748031497,
          "duration": 0.4999996333333385
        },
        {
          "name": "A2",
          "midi": 45,
          "time": 32.068942000000156,
          "velocity": 0.8661417322834646,
          "duration": 0.5043099750000053
        },
        {
          "name": "C#4",
          "midi": 61,
          "time": 32.068942000000156,
          "velocity": 0.6299212598425197,
          "duration": 0.7586201333333378
        },
        {
          "name": "E4",
          "midi": 64,
          "time": 32.068942000000156,
          "velocity": 0.6299212598425197,
          "duration": 1.0172406333333441
        },
        {
          "name": "A4",
          "midi": 69,
          "time": 32.068942000000156,
          "velocity": 0.6299212598425197,
          "duration": 1.021550975000011
        },
        {
          "name": "A2",
          "midi": 45,
          "time": 32.068942000000156,
          "velocity": 0.6692913385826772,
          "duration": 0.5172410000000056
        },
        {
          "name": "E3",
          "midi": 52,
          "time": 32.068942000000156,
          "velocity": 0.6692913385826772,
          "duration": 0.5043099750000053
        },
        {
          "name": "A3",
          "midi": 57,
          "time": 32.068942000000156,
          "velocity": 0.6692913385826772,
          "duration": 0.5172410000000056
        },
        {
          "name": "E3",
          "midi": 52,
          "time": 32.068942000000156,
          "velocity": 0.6692913385826772,
          "duration": 0.7586201333333378
        },
        {
          "name": "A3",
          "midi": 57,
          "time": 32.068942000000156,
          "velocity": 0.6692913385826772,
          "duration": 0.7586201333333378
        },
        {
          "name": "C#4",
          "midi": 61,
          "time": 32.068942000000156,
          "velocity": 0.6692913385826772,
          "duration": 1.0172406333333441
        },
        {
          "name": "B1",
          "midi": 35,
          "time": 32.068942000000156,
          "velocity": 0.8503937007874016,
          "duration": 0.04310341666666773
        },
        {
          "name": "B3",
          "midi": 59,
          "time": 32.068942000000156,
          "velocity": 0.8661417322834646,
          "duration": 0.04310341666666773
        },
        {
          "name": "D5",
          "midi": 74,
          "time": 32.327562500000155,
          "velocity": 0.7874015748031497,
          "duration": 0.5172410000000056
        },
        {
          "name": "B3",
          "midi": 59,
          "time": 32.327562500000155,
          "velocity": 0.6929133858267716,
          "duration": 0.04310341666666773
        },
        {
          "name": "E2",
          "midi": 40,
          "time": 32.45687275000016,
          "velocity": 0.5433070866141733,
          "duration": 0.04310341666666773
        },
        {
          "name": "A3",
          "midi": 57,
          "time": 32.58618300000016,
          "velocity": 0.7874015748031497,
          "duration": 0.5043099750000053
        },
        {
          "name": "F#3",
          "midi": 54,
          "time": 32.58618300000016,
          "velocity": 0.8740157480314961,
          "duration": 0.25862049999999925
        },
        {
          "name": "A2",
          "midi": 45,
          "time": 32.58618300000016,
          "velocity": 0.5905511811023622,
          "duration": 0.5086203166666721
        },
        {
          "name": "E3",
          "midi": 52,
          "time": 32.58618300000016,
          "velocity": 0.5905511811023622,
          "duration": 0.4999996333333385
        },
        {
          "name": "A3",
          "midi": 57,
          "time": 32.58618300000016,
          "velocity": 0.5905511811023622,
          "duration": 0.5086203166666721
        },
        {
          "name": "D3",
          "midi": 50,
          "time": 32.58618300000016,
          "velocity": 0.8582677165354331,
          "duration": 0.04310341666666773
        },
        {
          "name": "B4",
          "midi": 71,
          "time": 32.84480350000016,
          "velocity": 0.7874015748031497,
          "duration": 2.3275845000000004
        },
        {
          "name": "E3",
          "midi": 52,
          "time": 32.84480350000016,
          "velocity": 0.7165354330708661,
          "duration": 0.24568947500000604
        },
        {
          "name": "E3",
          "midi": 52,
          "time": 32.84480350000016,
          "velocity": 0.5511811023622047,
          "duration": 0.25862050000000636
        },
        {
          "name": "A3",
          "midi": 57,
          "time": 32.84480350000016,
          "velocity": 0.5511811023622047,
          "duration": 0.25862050000000636
        },
        {
          "name": "C#4",
          "midi": 61,
          "time": 32.84480350000016,
          "velocity": 0.5511811023622047,
          "duration": 0.24999981666667281
        },
        {
          "name": "B1",
          "midi": 35,
          "time": 32.84480350000016,
          "velocity": 0.7165354330708661,
          "duration": 0.04310341666666773
        },
        {
          "name": "C3",
          "midi": 48,
          "time": 32.974113750000164,
          "velocity": 0.5354330708661418,
          "duration": 0.04310341666666773
        },
        {
          "name": "A3",
          "midi": 57,
          "time": 33.0991136583335,
          "velocity": 0.8582677165354331,
          "duration": 0.004310341666666773
        },
        {
          "name": "D5",
          "midi": 74,
          "time": 33.10342400000017,
          "velocity": 0.7874015748031497,
          "duration": 1.2931024999999963
        },
        {
          "name": "D5",
          "midi": 74,
          "time": 33.10342400000017,
          "velocity": 0.7874015748031497,
          "duration": 1.2931024999999963
        },
        {
          "name": "G5",
          "midi": 79,
          "time": 33.10342400000017,
          "velocity": 0.7874015748031497,
          "duration": 2.068963999999994
        },
        {
          "name": "E5",
          "midi": 76,
          "time": 33.10342400000017,
          "velocity": 0.7874015748031497,
          "duration": 1.5517229999999955
        },
        {
          "name": "D5",
          "midi": 74,
          "time": 33.10342400000017,
          "velocity": 0.7874015748031497,
          "duration": 2.068963999999994
        },
        {
          "name": "B3",
          "midi": 59,
          "time": 33.10342400000017,
          "velocity": 0.7874015748031497,
          "duration": 0.04310341666666773
        },
        {
          "name": "G2",
          "midi": 43,
          "time": 33.10342400000017,
          "velocity": 0.8661417322834646,
          "duration": 0.508620316666665
        },
        {
          "name": "B3",
          "midi": 59,
          "time": 33.10342400000017,
          "velocity": 0.6299212598425197,
          "duration": 0.301723916666667
        },
        {
          "name": "D4",
          "midi": 62,
          "time": 33.10342400000017,
          "velocity": 0.6299212598425197,
          "duration": 0.7672408166666642
        },
        {
          "name": "E4",
          "midi": 64,
          "time": 33.10342400000017,
          "velocity": 0.6299212598425197,
          "duration": 0.7672408166666642
        },
        {
          "name": "G4",
          "midi": 67,
          "time": 33.10342400000017,
          "velocity": 0.6299212598425197,
          "duration": 0.7586201333333307
        },
        {
          "name": "G2",
          "midi": 43,
          "time": 33.10342400000017,
          "velocity": 0.6692913385826772,
          "duration": 0.7586201333333307
        },
        {
          "name": "D3",
          "midi": 50,
          "time": 33.10342400000017,
          "velocity": 0.6692913385826772,
          "duration": 0.4999996333333314
        },
        {
          "name": "G3",
          "midi": 55,
          "time": 33.10342400000017,
          "velocity": 0.6692913385826772,
          "duration": 0.5043099749999982
        },
        {
          "name": "E3",
          "midi": 52,
          "time": 33.10342400000017,
          "velocity": 0.5511811023622047,
          "duration": 0.7672408166666642
        },
        {
          "name": "G3",
          "midi": 55,
          "time": 33.10342400000017,
          "velocity": 0.5511811023622047,
          "duration": 0.7629304749999974
        },
        {
          "name": "B3",
          "midi": 59,
          "time": 33.10342400000017,
          "velocity": 0.5511811023622047,
          "duration": 0.5172409999999985
        },
        {
          "name": "D4",
          "midi": 62,
          "time": 33.10342400000017,
          "velocity": 0.5511811023622047,
          "duration": 0.7672408166666642
        },
        {
          "name": "B1",
          "midi": 35,
          "time": 33.10342400000017,
          "velocity": 0.8661417322834646,
          "duration": 0.04310341666666773
        },
        {
          "name": "B3",
          "midi": 59,
          "time": 33.10342400000017,
          "velocity": 0.8740157480314961,
          "duration": 0.5603444166666662
        },
        {
          "name": "B3",
          "midi": 59,
          "time": 33.36204450000017,
          "velocity": 0.6929133858267716,
          "duration": 0.4999996333333314
        },
        {
          "name": "D4",
          "midi": 62,
          "time": 33.620665000000166,
          "velocity": 0.7874015748031497,
          "duration": 0.25862049999999925
        },
        {
          "name": "G2",
          "midi": 43,
          "time": 33.620665000000166,
          "velocity": 0.5905511811023622,
          "duration": 0.25862049999999925
        },
        {
          "name": "D3",
          "midi": 50,
          "time": 33.620665000000166,
          "velocity": 0.5905511811023622,
          "duration": 0.2499998166666657
        },
        {
          "name": "G3",
          "midi": 55,
          "time": 33.620665000000166,
          "velocity": 0.5905511811023622,
          "duration": 0.24568947499999894
        },
        {
          "name": "E2",
          "midi": 40,
          "time": 33.620665000000166,
          "velocity": 0.8661417322834646,
          "duration": 0.04310341666666773
        },
        {
          "name": "F#2",
          "midi": 42,
          "time": 33.620665000000166,
          "velocity": 0.8740157480314961,
          "duration": 0.04310341666666773
        },
        {
          "name": "B3",
          "midi": 59,
          "time": 33.620665000000166,
          "velocity": 0.7086614173228346,
          "duration": 0.24568947499999894
        },
        {
          "name": "C#4",
          "midi": 61,
          "time": 33.879285500000165,
          "velocity": 0.7874015748031497,
          "duration": 0.25862049999999925
        },
        {
          "name": "B2",
          "midi": 47,
          "time": 33.879285500000165,
          "velocity": 0.8503937007874016,
          "duration": 0.5172409999999985
        },
        {
          "name": "B3",
          "midi": 59,
          "time": 33.879285500000165,
          "velocity": 0.5511811023622047,
          "duration": 0.04310341666666773
        },
        {
          "name": "D4",
          "midi": 62,
          "time": 33.879285500000165,
          "velocity": 0.5511811023622047,
          "duration": 0.4999996333333314
        },
        {
          "name": "E4",
          "midi": 64,
          "time": 33.879285500000165,
          "velocity": 0.5511811023622047,
          "duration": 1.2758611333333292
        },
        {
          "name": "G4",
          "midi": 67,
          "time": 33.879285500000165,
          "velocity": 0.5511811023622047,
          "duration": 1.2844818166666627
        },
        {
          "name": "G2",
          "midi": 43,
          "time": 33.879285500000165,
          "velocity": 0.5905511811023622,
          "duration": 0.7586201333333307
        },
        {
          "name": "D3",
          "midi": 50,
          "time": 33.879285500000165,
          "velocity": 0.5905511811023622,
          "duration": 0.7629304749999974
        },
        {
          "name": "G3",
          "midi": 55,
          "time": 33.879285500000165,
          "velocity": 0.5905511811023622,
          "duration": 0.4999996333333314
        },
        {
          "name": "E3",
          "midi": 52,
          "time": 33.879285500000165,
          "velocity": 0.6692913385826772,
          "duration": 0.508620316666665
        },
        {
          "name": "G3",
          "midi": 55,
          "time": 33.879285500000165,
          "velocity": 0.6692913385826772,
          "duration": 0.7586201333333307
        },
        {
          "name": "B3",
          "midi": 59,
          "time": 33.879285500000165,
          "velocity": 0.6692913385826772,
          "duration": 0.301723916666667
        },
        {
          "name": "D4",
          "midi": 62,
          "time": 33.879285500000165,
          "velocity": 0.6692913385826772,
          "duration": 1.01724063333333
        },
        {
          "name": "B1",
          "midi": 35,
          "time": 33.879285500000165,
          "velocity": 0.5748031496062992,
          "duration": 0.04310341666666773
        },
        {
          "name": "B3",
          "midi": 59,
          "time": 33.879285500000165,
          "velocity": 0.7007874015748031,
          "duration": 0.4999996333333314
        },
        {
          "name": "B3",
          "midi": 59,
          "time": 34.137906000000164,
          "velocity": 0.7874015748031497,
          "duration": 0.25862049999999925
        },
        {
          "name": "B1",
          "midi": 35,
          "time": 34.137906000000164,
          "velocity": 0.8740157480314961,
          "duration": 0.04310341666666773
        },
        {
          "name": "B3",
          "midi": 59,
          "time": 34.137906000000164,
          "velocity": 0.7086614173228346,
          "duration": 0.301723916666667
        },
        {
          "name": "E5",
          "midi": 76,
          "time": 34.396526500000164,
          "velocity": 0.7874015748031497,
          "duration": 0.25862049999999925
        },
        {
          "name": "E5",
          "midi": 76,
          "time": 34.396526500000164,
          "velocity": 0.7874015748031497,
          "duration": 0.7758614999999978
        },
        {
          "name": "B3",
          "midi": 59,
          "time": 34.396526500000164,
          "velocity": 0.7874015748031497,
          "duration": 0.25862049999999925
        },
        {
          "name": "D3",
          "midi": 50,
          "time": 34.396526500000164,
          "velocity": 0.7165354330708661,
          "duration": 0.24568947499999894
        },
        {
          "name": "E3",
          "midi": 52,
          "time": 34.396526500000164,
          "velocity": 0.5511811023622047,
          "duration": 0.508620316666665
        },
        {
          "name": "G3",
          "midi": 55,
          "time": 34.396526500000164,
          "velocity": 0.5511811023622047,
          "duration": 0.5043099749999982
        },
        {
          "name": "B3",
          "midi": 59,
          "time": 34.396526500000164,
          "velocity": 0.5511811023622047,
          "duration": 0.301723916666667
        },
        {
          "name": "D4",
          "midi": 62,
          "time": 34.396526500000164,
          "velocity": 0.5511811023622047,
          "duration": 0.7629304749999974
        },
        {
          "name": "B3",
          "midi": 59,
          "time": 34.396526500000164,
          "velocity": 0.7007874015748031,
          "duration": 0.5043099749999982
        },
        {
          "name": "F#5",
          "midi": 78,
          "time": 34.65514700000016,
          "velocity": 0.7874015748031497,
          "duration": 0.25862049999999925
        },
        {
          "name": "F#5",
          "midi": 78,
          "time": 34.65514700000016,
          "velocity": 0.7874015748031497,
          "duration": 0.25862049999999925
        },
        {
          "name": "E2",
          "midi": 40,
          "time": 34.65514700000016,
          "velocity": 0.7086614173228346,
          "duration": 0.04310341666666773
        },
        {
          "name": "G2",
          "midi": 43,
          "time": 34.65514700000016,
          "velocity": 0.5905511811023622,
          "duration": 0.5043099749999982
        },
        {
          "name": "D3",
          "midi": 50,
          "time": 34.65514700000016,
          "velocity": 0.5905511811023622,
          "duration": 0.4999996333333314
        },
        {
          "name": "G3",
          "midi": 55,
          "time": 34.65514700000016,
          "velocity": 0.5905511811023622,
          "duration": 0.4999996333333314
        },
        {
          "name": "E2",
          "midi": 40,
          "time": 34.65514700000016,
          "velocity": 0.8740157480314961,
          "duration": 0.25862049999999925
        },
        {
          "name": "F#2",
          "midi": 42,
          "time": 34.65514700000016,
          "velocity": 0.8740157480314961,
          "duration": 0.04310341666666773
        },
        {
          "name": "B3",
          "midi": 59,
          "time": 34.65514700000016,
          "velocity": 0.7007874015748031,
          "duration": 0.301723916666667
        },
        {
          "name": "D5",
          "midi": 74,
          "time": 34.91376750000016,
          "velocity": 0.7874015748031497,
          "duration": 0.25862049999999925
        },
        {
          "name": "D5",
          "midi": 74,
          "time": 34.91376750000016,
          "velocity": 0.7874015748031497,
          "duration": 0.25862049999999925
        },
        {
          "name": "F#3",
          "midi": 54,
          "time": 34.91376750000016,
          "velocity": 0.7874015748031497,
          "duration": 0.25862049999999925
        },
        {
          "name": "G2",
          "midi": 43,
          "time": 34.91376750000016,
          "velocity": 0.7165354330708661,
          "duration": 0.25862049999999925
        },
        {
          "name": "E3",
          "midi": 52,
          "time": 34.91376750000016,
          "velocity": 0.5511811023622047,
          "duration": 0.24137913333333216
        },
        {
          "name": "G3",
          "midi": 55,
          "time": 34.91376750000016,
          "velocity": 0.5511811023622047,
          "duration": 0.24137913333333216
        },
        {
          "name": "B3",
          "midi": 59,
          "time": 34.91376750000016,
          "velocity": 0.5511811023622047,
          "duration": 0.2499998166666657
        },
        {
          "name": "D4",
          "midi": 62,
          "time": 34.91376750000016,
          "velocity": 0.5511811023622047,
          "duration": 0.2499998166666657
        },
        {
          "name": "B1",
          "midi": 35,
          "time": 34.91376750000016,
          "velocity": 0.5433070866141733,
          "duration": 0.04310341666666773
        },
        {
          "name": "B3",
          "midi": 59,
          "time": 34.91376750000016,
          "velocity": 0.5511811023622047,
          "duration": 0.2499998166666657
        },
        {
          "name": "E5",
          "midi": 76,
          "time": 35.17238800000016,
          "velocity": 0.7874015748031497,
          "duration": 0.25862049999999925
        },
        {
          "name": "E5",
          "midi": 76,
          "time": 35.17238800000016,
          "velocity": 0.7874015748031497,
          "duration": 0.25862049999999925
        },
        {
          "name": "A5",
          "midi": 81,
          "time": 35.17238800000016,
          "velocity": 0.7874015748031497,
          "duration": 2.068963999999994
        },
        {
          "name": "F#5",
          "midi": 78,
          "time": 35.17238800000016,
          "velocity": 0.7874015748031497,
          "duration": 1.034481999999997
        },
        {
          "name": "E5",
          "midi": 76,
          "time": 35.17238800000016,
          "velocity": 0.7874015748031497,
          "duration": 0.5172409999999985
        },
        {
          "name": "C#5",
          "midi": 73,
          "time": 35.17238800000016,
          "velocity": 0.7874015748031497,
          "duration": 2.068963999999994
        },
        {
          "name": "B3",
          "midi": 59,
          "time": 35.17238800000016,
          "velocity": 0.7874015748031497,
          "duration": 0.04310341666666773
        },
        {
          "name": "A2",
          "midi": 45,
          "time": 35.17238800000016,
          "velocity": 0.8582677165354331,
          "duration": 0.4999996333333314
        },
        {
          "name": "F#3",
          "midi": 54,
          "time": 35.17238800000016,
          "velocity": 0.6299212598425197,
          "duration": 0.7629304749999974
        },
        {
          "name": "A3",
          "midi": 57,
          "time": 35.17238800000016,
          "velocity": 0.6299212598425197,
          "duration": 0.5043099749999982
        },
        {
          "name": "C#4",
          "midi": 61,
          "time": 35.17238800000016,
          "velocity": 0.6299212598425197,
          "duration": 0.7586201333333307
        },
        {
          "name": "E4",
          "midi": 64,
          "time": 35.17238800000016,
          "velocity": 0.6299212598425197,
          "duration": 2.0560329749999937
        },
        {
          "name": "A2",
          "midi": 45,
          "time": 35.17238800000016,
          "velocity": 0.6692913385826772,
          "duration": 0.7586201333333307
        },
        {
          "name": "E3",
          "midi": 52,
          "time": 35.17238800000016,
          "velocity": 0.6692913385826772,
          "duration": 0.508620316666665
        },
        {
          "name": "A3",
          "midi": 57,
          "time": 35.17238800000016,
          "velocity": 0.6692913385826772,
          "duration": 0.7586201333333307
        },
        {
          "name": "E3",
          "midi": 52,
          "time": 35.17238800000016,
          "velocity": 0.5511811023622047,
          "duration": 0.7629304749999974
        },
        {
          "name": "F#3",
          "midi": 54,
          "time": 35.17238800000016,
          "velocity": 0.5511811023622047,
          "duration": 1.2844818166666627
        },
        {
          "name": "A3",
          "midi": 57,
          "time": 35.17238800000016,
          "velocity": 0.5511811023622047,
          "duration": 0.7672408166666642
        },
        {
          "name": "C#4",
          "midi": 61,
          "time": 35.17238800000016,
          "velocity": 0.5511811023622047,
          "duration": 1.034481999999997
        },
        {
          "name": "B1",
          "midi": 35,
          "time": 35.17238800000016,
          "velocity": 0.8503937007874016,
          "duration": 0.04310341666666773
        },
        {
          "name": "B3",
          "midi": 59,
          "time": 35.17238800000016,
          "velocity": 0.8661417322834646,
          "duration": 0.301723916666667
        },
        {
          "name": "E5",
          "midi": 76,
          "time": 35.43100850000016,
          "velocity": 0.7874015748031497,
          "duration": 0.25862049999999925
        },
        {
          "name": "E5",
          "midi": 76,
          "time": 35.43100850000016,
          "velocity": 0.7874015748031497,
          "duration": 0.5172409999999985
        },
        {
          "name": "B3",
          "midi": 59,
          "time": 35.43100850000016,
          "velocity": 0.6929133858267716,
          "duration": 0.25862049999999925
        },
        {
          "name": "E5",
          "midi": 76,
          "time": 35.68962900000016,
          "velocity": 0.7874015748031497,
          "duration": 0.25862049999999925
        },
        {
          "name": "E5",
          "midi": 76,
          "time": 35.68962900000016,
          "velocity": 0.7874015748031497,
          "duration": 1.034481999999997
        },
        {
          "name": "D4",
          "midi": 62,
          "time": 35.68962900000016,
          "velocity": 0.7874015748031497,
          "duration": 0.25862049999999925
        },
        {
          "name": "A2",
          "midi": 45,
          "time": 35.68962900000016,
          "velocity": 0.5905511811023622,
          "duration": 0.25862049999999925
        },
        {
          "name": "E3",
          "midi": 52,
          "time": 35.68962900000016,
          "velocity": 0.5905511811023622,
          "duration": 0.2499998166666657
        },
        {
          "name": "A3",
          "midi": 57,
          "time": 35.68962900000016,
          "velocity": 0.5905511811023622,
          "duration": 0.7672408166666642
        },
        {
          "name": "E2",
          "midi": 40,
          "time": 35.68962900000016,
          "velocity": 0.8740157480314961,
          "duration": 0.04310341666666773
        },
        {
          "name": "F#2",
          "midi": 42,
          "time": 35.68962900000016,
          "velocity": 0.8503937007874016,
          "duration": 0.04310341666666773
        },
        {
          "name": "B3",
          "midi": 59,
          "time": 35.68962900000016,
          "velocity": 0.7165354330708661,
          "duration": 0.04310341666666773
        },
        {
          "name": "F#5",
          "midi": 78,
          "time": 35.94824950000016,
          "velocity": 0.7874015748031497,
          "duration": 0.25862049999999925
        },
        {
          "name": "F#5",
          "midi": 78,
          "time": 35.94824950000016,
          "velocity": 0.7874015748031497,
          "duration": 1.2931024999999963
        },
        {
          "name": "C#4",
          "midi": 61,
          "time": 35.94824950000016,
          "velocity": 0.7874015748031497,
          "duration": 0.4999996333333314
        },
        {
          "name": "C#3",
          "midi": 49,
          "time": 35.94824950000016,
          "velocity": 0.8661417322834646,
          "duration": 0.5172409999999985
        },
        {
          "name": "A2",
          "midi": 45,
          "time": 35.94824950000016,
          "velocity": 0.5905511811023622,
          "duration": 0.7629304749999974
        },
        {
          "name": "E3",
          "midi": 52,
          "time": 35.94824950000016,
          "velocity": 0.5905511811023622,
          "duration": 0.5043099749999982
        },
        {
          "name": "A3",
          "midi": 57,
          "time": 35.94824950000016,
          "velocity": 0.5905511811023622,
          "duration": 0.7629304749999974
        },
        {
          "name": "E3",
          "midi": 52,
          "time": 35.94824950000016,
          "velocity": 0.6692913385826772,
          "duration": 0.7672408166666642
        },
        {
          "name": "F#3",
          "midi": 54,
          "time": 35.94824950000016,
          "velocity": 0.6692913385826772,
          "duration": 1.0215509749999967
        },
        {
          "name": "A3",
          "midi": 57,
          "time": 35.94824950000016,
          "velocity": 0.6692913385826772,
          "duration": 0.7758614999999978
        },
        {
          "name": "C#4",
          "midi": 61,
          "time": 35.94824950000016,
          "velocity": 0.6692913385826772,
          "duration": 1.0258613166666635
        },
        {
          "name": "B1",
          "midi": 35,
          "time": 35.94824950000016,
          "velocity": 0.5354330708661418,
          "duration": 0.04310341666666773
        },
        {
          "name": "B3",
          "midi": 59,
          "time": 35.94824950000016,
          "velocity": 0.5669291338582677,
          "duration": 0.04310341666666773
        },
        {
          "name": "E5",
          "midi": 76,
          "time": 36.20687000000016,
          "velocity": 0.7874015748031497,
          "duration": 0.5172409999999985
        },
        {
          "name": "E5",
          "midi": 76,
          "time": 36.20687000000016,
          "velocity": 0.7874015748031497,
          "duration": 1.034481999999997
        },
        {
          "name": "A3",
          "midi": 57,
          "time": 36.20687000000016,
          "velocity": 0.7874015748031497,
          "duration": 0.7672408166666642
        },
        {
          "name": "B1",
          "midi": 35,
          "time": 36.20687000000016,
          "velocity": 0.8740157480314961,
          "duration": 0.04310341666666773
        },
        {
          "name": "B3",
          "midi": 59,
          "time": 36.20687000000016,
          "velocity": 0.8661417322834646,
          "duration": 0.04310341666666773
        },
        {
          "name": "E3",
          "midi": 52,
          "time": 36.46549050000016,
          "velocity": 0.7007874015748031,
          "duration": 0.25862049999999925
        },
        {
          "name": "E3",
          "midi": 52,
          "time": 36.46549050000016,
          "velocity": 0.5511811023622047,
          "duration": 0.5043099749999982
        },
        {
          "name": "F#3",
          "midi": 54,
          "time": 36.46549050000016,
          "velocity": 0.5511811023622047,
          "duration": 0.5172409999999985
        },
        {
          "name": "A3",
          "midi": 57,
          "time": 36.46549050000016,
          "velocity": 0.5511811023622047,
          "duration": 0.7586201333333307
        },
        {
          "name": "C#4",
          "midi": 61,
          "time": 36.46549050000016,
          "velocity": 0.5511811023622047,
          "duration": 0.7586201333333307
        },
        {
          "name": "B3",
          "midi": 59,
          "time": 36.46549050000016,
          "velocity": 0.6929133858267716,
          "duration": 0.04310341666666773
        },
        {
          "name": "A4",
          "midi": 69,
          "time": 36.72411100000016,
          "velocity": 0.7874015748031497,
          "duration": 0.5172409999999985
        },
        {
          "name": "A4",
          "midi": 69,
          "time": 36.72411100000016,
          "velocity": 0.7874015748031497,
          "duration": 0.5172409999999985
        },
        {
          "name": "F#3",
          "midi": 54,
          "time": 36.72411100000016,
          "velocity": 0.8582677165354331,
          "duration": 0.5043099749999982
        },
        {
          "name": "A2",
          "midi": 45,
          "time": 36.72411100000016,
          "velocity": 0.5905511811023622,
          "duration": 0.4999996333333314
        },
        {
          "name": "E3",
          "midi": 52,
          "time": 36.72411100000016,
          "velocity": 0.5905511811023622,
          "duration": 0.4999996333333314
        },
        {
          "name": "A3",
          "midi": 57,
          "time": 36.72411100000016,
          "velocity": 0.5905511811023622,
          "duration": 0.4999996333333314
        },
        {
          "name": "E2",
          "midi": 40,
          "time": 36.72411100000016,
          "velocity": 0.8740157480314961,
          "duration": 0.04310341666666773
        },
        {
          "name": "F#2",
          "midi": 42,
          "time": 36.72411100000016,
          "velocity": 0.8582677165354331,
          "duration": 0.04310341666666773
        },
        {
          "name": "B3",
          "midi": 59,
          "time": 36.72411100000016,
          "velocity": 0.7165354330708661,
          "duration": 0.04310341666666773
        },
        {
          "name": "F#3",
          "midi": 54,
          "time": 36.982731500000156,
          "velocity": 0.7874015748031497,
          "duration": 0.2499998166666657
        },
        {
          "name": "E3",
          "midi": 52,
          "time": 36.982731500000156,
          "velocity": 0.6929133858267716,
          "duration": 0.24137913333333216
        },
        {
          "name": "E3",
          "midi": 52,
          "time": 36.982731500000156,
          "velocity": 0.5511811023622047,
          "duration": 0.25862049999999925
        },
        {
          "name": "F#3",
          "midi": 54,
          "time": 36.982731500000156,
          "velocity": 0.5511811023622047,
          "duration": 0.25862049999999925
        },
        {
          "name": "A3",
          "midi": 57,
          "time": 36.982731500000156,
          "velocity": 0.5511811023622047,
          "duration": 0.24568947499999894
        },
        {
          "name": "C#4",
          "midi": 61,
          "time": 36.982731500000156,
          "velocity": 0.5511811023622047,
          "duration": 0.24568947499999894
        },
        {
          "name": "B1",
          "midi": 35,
          "time": 36.982731500000156,
          "velocity": 0.5275590551181102,
          "duration": 0.04310341666666773
        },
        {
          "name": "B3",
          "midi": 59,
          "time": 36.982731500000156,
          "velocity": 0.5748031496062992,
          "duration": 0.04310341666666773
        },
        {
          "name": "D5",
          "midi": 74,
          "time": 37.241352000000155,
          "velocity": 0.7874015748031497,
          "duration": 1.8103434999999948
        },
        {
          "name": "G5",
          "midi": 79,
          "time": 37.241352000000155,
          "velocity": 0.7874015748031497,
          "duration": 2.068963999999994
        },
        {
          "name": "B5",
          "midi": 83,
          "time": 37.241352000000155,
          "velocity": 0.7874015748031497,
          "duration": 2.068963999999994
        },
        {
          "name": "B3",
          "midi": 59,
          "time": 37.241352000000155,
          "velocity": 0.7874015748031497,
          "duration": 0.04310341666666773
        },
        {
          "name": "G2",
          "midi": 43,
          "time": 37.241352000000155,
          "velocity": 0.8661417322834646,
          "duration": 0.508620316666665
        },
        {
          "name": "B3",
          "midi": 59,
          "time": 37.241352000000155,
          "velocity": 0.6299212598425197,
          "duration": 0.301723916666667
        },
        {
          "name": "D4",
          "midi": 62,
          "time": 37.241352000000155,
          "velocity": 0.6299212598425197,
          "duration": 0.7586201333333307
        },
        {
          "name": "G4",
          "midi": 67,
          "time": 37.241352000000155,
          "velocity": 0.6299212598425197,
          "duration": 0.7672408166666642
        },
        {
          "name": "G2",
          "midi": 43,
          "time": 37.241352000000155,
          "velocity": 0.6692913385826772,
          "duration": 0.7672408166666642
        },
        {
          "name": "D3",
          "midi": 50,
          "time": 37.241352000000155,
          "velocity": 0.6692913385826772,
          "duration": 0.508620316666665
        },
        {
          "name": "G3",
          "midi": 55,
          "time": 37.241352000000155,
          "velocity": 0.6692913385826772,
          "duration": 0.508620316666665
        },
        {
          "name": "G3",
          "midi": 55,
          "time": 37.241352000000155,
          "velocity": 0.5511811023622047,
          "duration": 0.7586201333333307
        },
        {
          "name": "B3",
          "midi": 59,
          "time": 37.241352000000155,
          "velocity": 0.5511811023622047,
          "duration": 0.5172409999999985
        },
        {
          "name": "D4",
          "midi": 62,
          "time": 37.241352000000155,
          "velocity": 0.5511811023622047,
          "duration": 0.7586201333333307
        },
        {
          "name": "B1",
          "midi": 35,
          "time": 37.241352000000155,
          "velocity": 0.8740157480314961,
          "duration": 0.04310341666666773
        },
        {
          "name": "B3",
          "midi": 59,
          "time": 37.241352000000155,
          "velocity": 0.8740157480314961,
          "duration": 0.5603444166666662
        },
        {
          "name": "B3",
          "midi": 59,
          "time": 37.499972500000155,
          "velocity": 0.6929133858267716,
          "duration": 0.4999996333333314
        },
        {
          "name": "D4",
          "midi": 62,
          "time": 37.758593000000154,
          "velocity": 0.7874015748031497,
          "duration": 0.25862049999999925
        },
        {
          "name": "G2",
          "midi": 43,
          "time": 37.758593000000154,
          "velocity": 0.5905511811023622,
          "duration": 0.25862049999999925
        },
        {
          "name": "D3",
          "midi": 50,
          "time": 37.758593000000154,
          "velocity": 0.5905511811023622,
          "duration": 0.24137913333333216
        },
        {
          "name": "G3",
          "midi": 55,
          "time": 37.758593000000154,
          "velocity": 0.5905511811023622,
          "duration": 0.2499998166666657
        },
        {
          "name": "E2",
          "midi": 40,
          "time": 37.758593000000154,
          "velocity": 0.8740157480314961,
          "duration": 0.04310341666666773
        },
        {
          "name": "F#2",
          "midi": 42,
          "time": 37.758593000000154,
          "velocity": 0.8740157480314961,
          "duration": 0.04310341666666773
        },
        {
          "name": "B3",
          "midi": 59,
          "time": 37.758593000000154,
          "velocity": 0.7086614173228346,
          "duration": 0.2499998166666657
        },
        {
          "name": "A4",
          "midi": 69,
          "time": 38.01721350000015,
          "velocity": 0.7874015748031497,
          "duration": 0.25862049999999925
        },
        {
          "name": "A4",
          "midi": 69,
          "time": 38.01721350000015,
          "velocity": 0.7874015748031497,
          "duration": 0.25862049999999925
        },
        {
          "name": "C#4",
          "midi": 61,
          "time": 38.01721350000015,
          "velocity": 0.7874015748031497,
          "duration": 0.25862049999999925
        },
        {
          "name": "B2",
          "midi": 47,
          "time": 38.01721350000015,
          "velocity": 0.8503937007874016,
          "duration": 0.5172409999999985
        },
        {
          "name": "B3",
          "midi": 59,
          "time": 38.01721350000015,
          "velocity": 0.5511811023622047,
          "duration": 0.04310341666666773
        },
        {
          "name": "D4",
          "midi": 62,
          "time": 38.01721350000015,
          "velocity": 0.5511811023622047,
          "duration": 0.508620316666665
        },
        {
          "name": "G4",
          "midi": 67,
          "time": 38.01721350000015,
          "velocity": 0.5511811023622047,
          "duration": 1.2844818166666627
        },
        {
          "name": "G2",
          "midi": 43,
          "time": 38.01721350000015,
          "velocity": 0.5905511811023622,
          "duration": 0.7586201333333307
        },
        {
          "name": "D3",
          "midi": 50,
          "time": 38.01721350000015,
          "velocity": 0.5905511811023622,
          "duration": 0.7586201333333307
        },
        {
          "name": "G3",
          "midi": 55,
          "time": 38.01721350000015,
          "velocity": 0.5905511811023622,
          "duration": 0.5043099749999982
        },
        {
          "name": "G3",
          "midi": 55,
          "time": 38.01721350000015,
          "velocity": 0.6692913385826772,
          "duration": 0.7672408166666642
        },
        {
          "name": "B3",
          "midi": 59,
          "time": 38.01721350000015,
          "velocity": 0.6692913385826772,
          "duration": 0.301723916666667
        },
        {
          "name": "D4",
          "midi": 62,
          "time": 38.01721350000015,
          "velocity": 0.6692913385826772,
          "duration": 1.0215509749999967
        },
        {
          "name": "B3",
          "midi": 59,
          "time": 38.01721350000015,
          "velocity": 0.7007874015748031,
          "duration": 0.4999996333333314
        },
        {
          "name": "B4",
          "midi": 71,
          "time": 38.27583400000015,
          "velocity": 0.7874015748031497,
          "duration": 0.25862049999999925
        },
        {
          "name": "B4",
          "midi": 71,
          "time": 38.27583400000015,
          "velocity": 0.7874015748031497,
          "duration": 0.25862049999999925
        },
        {
          "name": "B3",
          "midi": 59,
          "time": 38.27583400000015,
          "velocity": 0.7874015748031497,
          "duration": 0.25862049999999925
        },
        {
          "name": "B1",
          "midi": 35,
          "time": 38.27583400000015,
          "velocity": 0.8740157480314961,
          "duration": 0.04310341666666773
        },
        {
          "name": "B3",
          "midi": 59,
          "time": 38.27583400000015,
          "velocity": 0.7086614173228346,
          "duration": 0.301723916666667
        },
        {
          "name": "C#5",
          "midi": 73,
          "time": 38.53445450000015,
          "velocity": 0.7874015748031497,
          "duration": 0.25862049999999925
        },
        {
          "name": "C#5",
          "midi": 73,
          "time": 38.53445450000015,
          "velocity": 0.7874015748031497,
          "duration": 0.25862049999999925
        },
        {
          "name": "B3",
          "midi": 59,
          "time": 38.53445450000015,
          "velocity": 0.7874015748031497,
          "duration": 0.25862049999999925
        },
        {
          "name": "D3",
          "midi": 50,
          "time": 38.53445450000015,
          "velocity": 0.6929133858267716,
          "duration": 0.25862049999999925
        },
        {
          "name": "G3",
          "midi": 55,
          "time": 38.53445450000015,
          "velocity": 0.5511811023622047,
          "duration": 0.508620316666665
        },
        {
          "name": "B3",
          "midi": 59,
          "time": 38.53445450000015,
          "velocity": 0.5511811023622047,
          "duration": 0.301723916666667
        },
        {
          "name": "D4",
          "midi": 62,
          "time": 38.53445450000015,
          "velocity": 0.5511811023622047,
          "duration": 0.7586201333333307
        },
        {
          "name": "B3",
          "midi": 59,
          "time": 38.53445450000015,
          "velocity": 0.7007874015748031,
          "duration": 0.4999996333333314
        },
        {
          "name": "D5",
          "midi": 74,
          "time": 38.79307500000015,
          "velocity": 0.7874015748031497,
          "duration": 0.25862049999999925
        },
        {
          "name": "D5",
          "midi": 74,
          "time": 38.79307500000015,
          "velocity": 0.7874015748031497,
          "duration": 0.5172409999999985
        },
        {
          "name": "E3",
          "midi": 52,
          "time": 38.79307500000015,
          "velocity": 0.8582677165354331,
          "duration": 0.25862049999999925
        },
        {
          "name": "G2",
          "midi": 43,
          "time": 38.79307500000015,
          "velocity": 0.5905511811023622,
          "duration": 0.5043099749999982
        },
        {
          "name": "D3",
          "midi": 50,
          "time": 38.79307500000015,
          "velocity": 0.5905511811023622,
          "duration": 0.4999996333333314
        },
        {
          "name": "G3",
          "midi": 55,
          "time": 38.79307500000015,
          "velocity": 0.5905511811023622,
          "duration": 0.4999996333333314
        },
        {
          "name": "E2",
          "midi": 40,
          "time": 38.79307500000015,
          "velocity": 0.8582677165354331,
          "duration": 0.04310341666666773
        },
        {
          "name": "F#2",
          "midi": 42,
          "time": 38.79307500000015,
          "velocity": 0.8740157480314961,
          "duration": 0.04310341666666773
        },
        {
          "name": "B3",
          "midi": 59,
          "time": 38.79307500000015,
          "velocity": 0.7007874015748031,
          "duration": 0.301723916666667
        },
        {
          "name": "B4",
          "midi": 71,
          "time": 39.05169550000015,
          "velocity": 0.7874015748031497,
          "duration": 0.25862049999999925
        },
        {
          "name": "B4",
          "midi": 71,
          "time": 39.05169550000015,
          "velocity": 0.7874015748031497,
          "duration": 0.25862049999999925
        },
        {
          "name": "B3",
          "midi": 59,
          "time": 39.05169550000015,
          "velocity": 0.7874015748031497,
          "duration": 0.24137913333333216
        },
        {
          "name": "D3",
          "midi": 50,
          "time": 39.05169550000015,
          "velocity": 0.7165354330708661,
          "duration": 0.25862049999999925
        },
        {
          "name": "G3",
          "midi": 55,
          "time": 39.05169550000015,
          "velocity": 0.5511811023622047,
          "duration": 0.24137913333333216
        },
        {
          "name": "B3",
          "midi": 59,
          "time": 39.05169550000015,
          "velocity": 0.5511811023622047,
          "duration": 0.24137913333333216
        },
        {
          "name": "D4",
          "midi": 62,
          "time": 39.05169550000015,
          "velocity": 0.5511811023622047,
          "duration": 0.2499998166666657
        },
        {
          "name": "B1",
          "midi": 35,
          "time": 39.05169550000015,
          "velocity": 0.5275590551181102,
          "duration": 0.04310341666666773
        },
        {
          "name": "B3",
          "midi": 59,
          "time": 39.05169550000015,
          "velocity": 0.5511811023622047,
          "duration": 0.25862049999999925
        },
        {
          "name": "D5",
          "midi": 74,
          "time": 39.31031600000015,
          "velocity": 0.7874015748031497,
          "duration": 0.5172409999999985
        },
        {
          "name": "B5",
          "midi": 83,
          "time": 39.31031600000015,
          "velocity": 0.7874015748031497,
          "duration": 0.5172409999999985
        },
        {
          "name": "G5",
          "midi": 79,
          "time": 39.31031600000015,
          "velocity": 0.7874015748031497,
          "duration": 0.5172409999999985
        },
        {
          "name": "B3",
          "midi": 59,
          "time": 39.31031600000015,
          "velocity": 0.7874015748031497,
          "duration": 0.5172409999999985
        },
        {
          "name": "G2",
          "midi": 43,
          "time": 39.31031600000015,
          "velocity": 0.8661417322834646,
          "duration": 0.5043099749999982
        },
        {
          "name": "B3",
          "midi": 59,
          "time": 39.31031600000015,
          "velocity": 0.6299212598425197,
          "duration": 0.7672408166666642
        },
        {
          "name": "D4",
          "midi": 62,
          "time": 39.31031600000015,
          "velocity": 0.6299212598425197,
          "duration": 0.7629304749999974
        },
        {
          "name": "G4",
          "midi": 67,
          "time": 39.31031600000015,
          "velocity": 0.6299212598425197,
          "duration": 1.0215509749999967
        },
        {
          "name": "G2",
          "midi": 43,
          "time": 39.31031600000015,
          "velocity": 0.6692913385826772,
          "duration": 0.7629304749999974
        },
        {
          "name": "D3",
          "midi": 50,
          "time": 39.31031600000015,
          "velocity": 0.6692913385826772,
          "duration": 0.08620683333333545
        },
        {
          "name": "G3",
          "midi": 55,
          "time": 39.31031600000015,
          "velocity": 0.6692913385826772,
          "duration": 0.508620316666665
        },
        {
          "name": "G3",
          "midi": 55,
          "time": 39.31031600000015,
          "velocity": 0.5511811023622047,
          "duration": 0.7629304749999974
        },
        {
          "name": "B3",
          "midi": 59,
          "time": 39.31031600000015,
          "velocity": 0.5511811023622047,
          "duration": 1.0215509749999967
        },
        {
          "name": "D4",
          "midi": 62,
          "time": 39.31031600000015,
          "velocity": 0.5511811023622047,
          "duration": 0.7758614999999978
        },
        {
          "name": "E2",
          "midi": 40,
          "time": 39.31031600000015,
          "velocity": 0.8503937007874016,
          "duration": 0.04310341666666773
        },
        {
          "name": "D3",
          "midi": 50,
          "time": 39.35341941666682,
          "velocity": 0.7007874015748031,
          "duration": 0.46551689999999724
        },
        {
          "name": "E5",
          "midi": 76,
          "time": 39.56893650000015,
          "velocity": 0.7874015748031497,
          "duration": 0.25862049999999925
        },
        {
          "name": "E5",
          "midi": 76,
          "time": 39.56893650000015,
          "velocity": 0.7874015748031497,
          "duration": 0.25862049999999925
        },
        {
          "name": "B1",
          "midi": 35,
          "time": 39.56893650000015,
          "velocity": 0.7007874015748031,
          "duration": 0.04310341666666773
        },
        {
          "name": "F#5",
          "midi": 78,
          "time": 39.82755700000015,
          "velocity": 0.7874015748031497,
          "duration": 0.25862049999999925
        },
        {
          "name": "F#5",
          "midi": 78,
          "time": 39.82755700000015,
          "velocity": 0.7874015748031497,
          "duration": 0.25862049999999925
        },
        {
          "name": "D5",
          "midi": 74,
          "time": 39.82755700000015,
          "velocity": 0.7874015748031497,
          "duration": 0.5172409999999985
        },
        {
          "name": "G5",
          "midi": 79,
          "time": 39.82755700000015,
          "velocity": 0.7874015748031497,
          "duration": 0.5172409999999985
        },
        {
          "name": "B5",
          "midi": 83,
          "time": 39.82755700000015,
          "velocity": 0.7874015748031497,
          "duration": 0.5172409999999985
        },
        {
          "name": "D4",
          "midi": 62,
          "time": 39.82755700000015,
          "velocity": 0.7874015748031497,
          "duration": 0.4999996333333314
        },
        {
          "name": "G2",
          "midi": 43,
          "time": 39.82755700000015,
          "velocity": 0.5905511811023622,
          "duration": 0.25862049999999925
        },
        {
          "name": "D3",
          "midi": 50,
          "time": 39.82755700000015,
          "velocity": 0.5905511811023622,
          "duration": 0.24568947499999894
        },
        {
          "name": "G3",
          "midi": 55,
          "time": 39.82755700000015,
          "velocity": 0.5905511811023622,
          "duration": 0.2499998166666657
        },
        {
          "name": "B1",
          "midi": 35,
          "time": 39.82755700000015,
          "velocity": 0.7007874015748031,
          "duration": 0.04310341666666773
        },
        {
          "name": "E5",
          "midi": 76,
          "time": 40.08617750000015,
          "velocity": 0.7874015748031497,
          "duration": 0.5172409999999985
        },
        {
          "name": "E5",
          "midi": 76,
          "time": 40.08617750000015,
          "velocity": 0.7874015748031497,
          "duration": 0.7758615000000049
        },
        {
          "name": "C#4",
          "midi": 61,
          "time": 40.08617750000015,
          "velocity": 0.7874015748031497,
          "duration": 0.25862049999999925
        },
        {
          "name": "B2",
          "midi": 47,
          "time": 40.08617750000015,
          "velocity": 0.8661417322834646,
          "duration": 0.25862049999999925
        },
        {
          "name": "G2",
          "midi": 43,
          "time": 40.08617750000015,
          "velocity": 0.5905511811023622,
          "duration": 0.2499998166666657
        },
        {
          "name": "D3",
          "midi": 50,
          "time": 40.08617750000015,
          "velocity": 0.5905511811023622,
          "duration": 0.04310341666666773
        },
        {
          "name": "G3",
          "midi": 55,
          "time": 40.08617750000015,
          "velocity": 0.5905511811023622,
          "duration": 0.24137913333333216
        },
        {
          "name": "G3",
          "midi": 55,
          "time": 40.08617750000015,
          "velocity": 0.6692913385826772,
          "duration": 0.2499998166666657
        },
        {
          "name": "B3",
          "midi": 59,
          "time": 40.08617750000015,
          "velocity": 0.6692913385826772,
          "duration": 0.24568947499999894
        },
        {
          "name": "D4",
          "midi": 62,
          "time": 40.08617750000015,
          "velocity": 0.6692913385826772,
          "duration": 0.2499998166666657
        },
        {
          "name": "D3",
          "midi": 50,
          "time": 40.08617750000015,
          "velocity": 0.8661417322834646,
          "duration": 0.24568947499999894
        },
        {
          "name": "C3",
          "midi": 48,
          "time": 40.129280916666815,
          "velocity": 0.7007874015748031,
          "duration": 0.04310341666666773
        },
        {
          "name": "C#5",
          "midi": 73,
          "time": 40.34479800000015,
          "velocity": 0.7874015748031497,
          "duration": 0.25862049999999925
        },
        {
          "name": "E5",
          "midi": 76,
          "time": 40.34479800000015,
          "velocity": 0.7874015748031497,
          "duration": 0.5172410000000056
        },
        {
          "name": "A5",
          "midi": 81,
          "time": 40.34479800000015,
          "velocity": 0.7874015748031497,
          "duration": 0.25862049999999925
        },
        {
          "name": "A3",
          "midi": 57,
          "time": 40.34479800000015,
          "velocity": 0.7874015748031497,
          "duration": 0.5043099750000053
        },
        {
          "name": "A2",
          "midi": 45,
          "time": 40.34479800000015,
          "velocity": 0.8661417322834646,
          "duration": 0.24568947499999894
        },
        {
          "name": "A3",
          "midi": 57,
          "time": 40.34479800000015,
          "velocity": 0.6299212598425197,
          "duration": 0.5172410000000056
        },
        {
          "name": "C#4",
          "midi": 61,
          "time": 40.34479800000015,
          "velocity": 0.6299212598425197,
          "duration": 0.7586201333333449
        },
        {
          "name": "E4",
          "midi": 64,
          "time": 40.34479800000015,
          "velocity": 0.6299212598425197,
          "duration": 1.021550975000018
        },
        {
          "name": "A2",
          "midi": 45,
          "time": 40.34479800000015,
          "velocity": 0.6692913385826772,
          "duration": 0.4999996333333385
        },
        {
          "name": "E3",
          "midi": 52,
          "time": 40.34479800000015,
          "velocity": 0.6692913385826772,
          "duration": 0.5086203166666721
        },
        {
          "name": "A3",
          "midi": 57,
          "time": 40.34479800000015,
          "velocity": 0.6692913385826772,
          "duration": 0.7586201333333449
        },
        {
          "name": "E3",
          "midi": 52,
          "time": 40.34479800000015,
          "velocity": 0.6692913385826772,
          "duration": 0.7629304750000117
        },
        {
          "name": "A3",
          "midi": 57,
          "time": 40.34479800000015,
          "velocity": 0.6692913385826772,
          "duration": 1.0172406333333512
        },
        {
          "name": "C#4",
          "midi": 61,
          "time": 40.34479800000015,
          "velocity": 0.6692913385826772,
          "duration": 1.0258613166666848
        },
        {
          "name": "B1",
          "midi": 35,
          "time": 40.34479800000015,
          "velocity": 0.7165354330708661,
          "duration": 0.04310341666666773
        },
        {
          "name": "A4",
          "midi": 69,
          "time": 40.603418500000146,
          "velocity": 0.7874015748031497,
          "duration": 0.12931025000000318
        },
        {
          "name": "B2",
          "midi": 47,
          "time": 40.603418500000146,
          "velocity": 0.6929133858267716,
          "duration": 0.25862050000000636
        },
        {
          "name": "B1",
          "midi": 35,
          "time": 40.603418500000146,
          "velocity": 0.7165354330708661,
          "duration": 0.04310341666666773
        },
        {
          "name": "A4",
          "midi": 69,
          "time": 40.73272875000015,
          "velocity": 0.7874015748031497,
          "duration": 0.12931025000000318
        },
        {
          "name": "A4",
          "midi": 69,
          "time": 40.86203900000015,
          "velocity": 0.7874015748031497,
          "duration": 0.12931025000000318
        },
        {
          "name": "A4",
          "midi": 69,
          "time": 40.86203900000015,
          "velocity": 0.7874015748031497,
          "duration": 0.12931025000000318
        },
        {
          "name": "B4",
          "midi": 71,
          "time": 40.86203900000015,
          "velocity": 0.7874015748031497,
          "duration": 0.12931025000000318
        },
        {
          "name": "A3",
          "midi": 57,
          "time": 40.86203900000015,
          "velocity": 0.7874015748031497,
          "duration": 0.49999963333334563
        },
        {
          "name": "A2",
          "midi": 45,
          "time": 40.86203900000015,
          "velocity": 0.6929133858267716,
          "duration": 0.25862050000000636
        },
        {
          "name": "A2",
          "midi": 45,
          "time": 40.86203900000015,
          "velocity": 0.5905511811023622,
          "duration": 0.49999963333334563
        },
        {
          "name": "E3",
          "midi": 52,
          "time": 40.86203900000015,
          "velocity": 0.5905511811023622,
          "duration": 0.5086203166666792
        },
        {
          "name": "A3",
          "midi": 57,
          "time": 40.86203900000015,
          "velocity": 0.5905511811023622,
          "duration": 0.49999963333334563
        },
        {
          "name": "C3",
          "midi": 48,
          "time": 40.86203900000015,
          "velocity": 0.8740157480314961,
          "duration": 0.04310341666666773
        },
        {
          "name": "B2",
          "midi": 47,
          "time": 40.90514241666682,
          "velocity": 0.7007874015748031,
          "duration": 0.04310341666666773
        },
        {
          "name": "B4",
          "midi": 71,
          "time": 40.991349250000155,
          "velocity": 0.7874015748031497,
          "duration": 0.12931025000000318
        },
        {
          "name": "B4",
          "midi": 71,
          "time": 40.991349250000155,
          "velocity": 0.7874015748031497,
          "duration": 0.12931025000000318
        },
        {
          "name": "D5",
          "midi": 74,
          "time": 40.991349250000155,
          "velocity": 0.7874015748031497,
          "duration": 0.12931025000000318
        },
        {
          "name": "D5",
          "midi": 74,
          "time": 41.12065950000016,
          "velocity": 0.7874015748031497,
          "duration": 0.12931025000000318
        },
        {
          "name": "D5",
          "midi": 74,
          "time": 41.12065950000016,
          "velocity": 0.7874015748031497,
          "duration": 0.12931025000000318
        },
        {
          "name": "D5",
          "midi": 74,
          "time": 41.12065950000016,
          "velocity": 0.7874015748031497,
          "duration": 0.12931025000000318
        },
        {
          "name": "F#2",
          "midi": 42,
          "time": 41.12065950000016,
          "velocity": 0.7086614173228346,
          "duration": 0.25862050000000636
        },
        {
          "name": "E3",
          "midi": 52,
          "time": 41.12065950000016,
          "velocity": 0.5511811023622047,
          "duration": 0.24999981666667281
        },
        {
          "name": "A3",
          "midi": 57,
          "time": 41.12065950000016,
          "velocity": 0.5511811023622047,
          "duration": 0.25862050000000636
        },
        {
          "name": "C#4",
          "midi": 61,
          "time": 41.12065950000016,
          "velocity": 0.5511811023622047,
          "duration": 0.24999981666667281
        },
        {
          "name": "B1",
          "midi": 35,
          "time": 41.12065950000016,
          "velocity": 0.6929133858267716,
          "duration": 0.04310341666666773
        },
        {
          "name": "B4",
          "midi": 71,
          "time": 41.24996975000016,
          "velocity": 0.7874015748031497,
          "duration": 0.12931025000000318
        },
        {
          "name": "B4",
          "midi": 71,
          "time": 41.24996975000016,
          "velocity": 0.7874015748031497,
          "duration": 0.12931025000000318
        },
        {
          "name": "B4",
          "midi": 71,
          "time": 41.24996975000016,
          "velocity": 0.7874015748031497,
          "duration": 0.12931025000000318
        },
        {
          "name": "A3",
          "midi": 57,
          "time": 41.3749696583335,
          "velocity": 0.8661417322834646,
          "duration": 0.004310341666666773
        },
        {
          "name": "F#5",
          "midi": 78,
          "time": 41.379280000000165,
          "velocity": 0.7874015748031497,
          "duration": 0.38793075000000243
        },
        {
          "name": "F#5",
          "midi": 78,
          "time": 41.379280000000165,
          "velocity": 0.7874015748031497,
          "duration": 0.38793075000000243
        },
        {
          "name": "G4",
          "midi": 67,
          "time": 41.379280000000165,
          "velocity": 0.7874015748031497,
          "duration": 0.7629304750000045
        },
        {
          "name": "B4",
          "midi": 71,
          "time": 41.379280000000165,
          "velocity": 0.7874015748031497,
          "duration": 0.7758615000000049
        },
        {
          "name": "D5",
          "midi": 74,
          "time": 41.379280000000165,
          "velocity": 0.7874015748031497,
          "duration": 0.7758615000000049
        },
        {
          "name": "F#5",
          "midi": 78,
          "time": 41.379280000000165,
          "velocity": 0.7874015748031497,
          "duration": 0.7758615000000049
        },
        {
          "name": "E3",
          "midi": 52,
          "time": 41.379280000000165,
          "velocity": 0.7874015748031497,
          "duration": 0.5086203166666721
        },
        {
          "name": "E2",
          "midi": 40,
          "time": 41.379280000000165,
          "velocity": 0.8582677165354331,
          "duration": 0.5043099750000053
        },
        {
          "name": "B3",
          "midi": 59,
          "time": 41.379280000000165,
          "velocity": 0.6299212598425197,
          "duration": 0.04310341666666773
        },
        {
          "name": "D4",
          "midi": 62,
          "time": 41.379280000000165,
          "velocity": 0.6299212598425197,
          "duration": 0.7586201333333378
        },
        {
          "name": "F#4",
          "midi": 66,
          "time": 41.379280000000165,
          "velocity": 0.6299212598425197,
          "duration": 0.7629304750000045
        },
        {
          "name": "G4",
          "midi": 67,
          "time": 41.379280000000165,
          "velocity": 0.6299212598425197,
          "duration": 0.7758615000000049
        },
        {
          "name": "E2",
          "midi": 40,
          "time": 41.379280000000165,
          "velocity": 0.6692913385826772,
          "duration": 0.5603444166666733
        },
        {
          "name": "B2",
          "midi": 47,
          "time": 41.379280000000165,
          "velocity": 0.6692913385826772,
          "duration": 0.5043099750000053
        },
        {
          "name": "E3",
          "midi": 52,
          "time": 41.379280000000165,
          "velocity": 0.6692913385826772,
          "duration": 0.5172410000000056
        },
        {
          "name": "F#3",
          "midi": 54,
          "time": 41.379280000000165,
          "velocity": 0.5511811023622047,
          "duration": 0.7586201333333378
        },
        {
          "name": "G3",
          "midi": 55,
          "time": 41.379280000000165,
          "velocity": 0.5511811023622047,
          "duration": 0.7586201333333378
        },
        {
          "name": "B3",
          "midi": 59,
          "time": 41.379280000000165,
          "velocity": 0.5511811023622047,
          "duration": 0.301723916666667
        },
        {
          "name": "D4",
          "midi": 62,
          "time": 41.379280000000165,
          "velocity": 0.5511811023622047,
          "duration": 0.7629304750000045
        },
        {
          "name": "B1",
          "midi": 35,
          "time": 41.379280000000165,
          "velocity": 0.8582677165354331,
          "duration": 0.04310341666666773
        },
        {
          "name": "B3",
          "midi": 59,
          "time": 41.379280000000165,
          "velocity": 0.8503937007874016,
          "duration": 0.5603444166666733
        },
        {
          "name": "B3",
          "midi": 59,
          "time": 41.637900500000164,
          "velocity": 0.6929133858267716,
          "duration": 0.5043099750000053
        },
        {
          "name": "F#5",
          "midi": 78,
          "time": 41.76721075000017,
          "velocity": 0.7874015748031497,
          "duration": 0.38793075000000243
        },
        {
          "name": "F#5",
          "midi": 78,
          "time": 41.76721075000017,
          "velocity": 0.7874015748031497,
          "duration": 0.38793075000000243
        },
        {
          "name": "E3",
          "midi": 52,
          "time": 41.89652100000017,
          "velocity": 0.7874015748031497,
          "duration": 0.24568947499999894
        },
        {
          "name": "E2",
          "midi": 40,
          "time": 41.89652100000017,
          "velocity": 0.5905511811023622,
          "duration": 0.24568947499999894
        },
        {
          "name": "B2",
          "midi": 47,
          "time": 41.89652100000017,
          "velocity": 0.5905511811023622,
          "duration": 0.24568947499999894
        },
        {
          "name": "E3",
          "midi": 52,
          "time": 41.89652100000017,
          "velocity": 0.5905511811023622,
          "duration": 0.5172409999999985
        },
        {
          "name": "E2",
          "midi": 40,
          "time": 41.89652100000017,
          "velocity": 0.8503937007874016,
          "duration": 0.25862049999999925
        },
        {
          "name": "F#2",
          "midi": 42,
          "time": 41.89652100000017,
          "velocity": 0.8503937007874016,
          "duration": 0.04310341666666773
        },
        {
          "name": "B3",
          "midi": 59,
          "time": 41.89652100000017,
          "velocity": 0.7007874015748031,
          "duration": 0.2499998166666657
        },
        {
          "name": "E5",
          "midi": 76,
          "time": 42.15514150000017,
          "velocity": 0.7874015748031497,
          "duration": 0.7758614999999978
        },
        {
          "name": "E5",
          "midi": 76,
          "time": 42.15514150000017,
          "velocity": 0.7874015748031497,
          "duration": 0.7758614999999978
        },
        {
          "name": "A4",
          "midi": 69,
          "time": 42.15514150000017,
          "velocity": 0.7874015748031497,
          "duration": 0.7758614999999978
        },
        {
          "name": "C#5",
          "midi": 73,
          "time": 42.15514150000017,
          "velocity": 0.7874015748031497,
          "duration": 0.7758614999999978
        },
        {
          "name": "E5",
          "midi": 76,
          "time": 42.15514150000017,
          "velocity": 0.7874015748031497,
          "duration": 0.7758614999999978
        },
        {
          "name": "A2",
          "midi": 45,
          "time": 42.15514150000017,
          "velocity": 0.8740157480314961,
          "duration": 0.5172409999999985
        },
        {
          "name": "C#4",
          "midi": 61,
          "time": 42.15514150000017,
          "velocity": 0.6299212598425197,
          "duration": 0.4999996333333314
        },
        {
          "name": "E4",
          "midi": 64,
          "time": 42.15514150000017,
          "velocity": 0.6299212598425197,
          "duration": 1.284481816666677
        },
        {
          "name": "A4",
          "midi": 69,
          "time": 42.15514150000017,
          "velocity": 0.6299212598425197,
          "duration": 0.9051717500000009
        },
        {
          "name": "A2",
          "midi": 45,
          "time": 42.15514150000017,
          "velocity": 0.5905511811023622,
          "duration": 0.7672408166666642
        },
        {
          "name": "E3",
          "midi": 52,
          "time": 42.15514150000017,
          "velocity": 0.5905511811023622,
          "duration": 0.4999996333333314
        },
        {
          "name": "A3",
          "midi": 57,
          "time": 42.15514150000017,
          "velocity": 0.5905511811023622,
          "duration": 0.508620316666665
        },
        {
          "name": "E3",
          "midi": 52,
          "time": 42.15514150000017,
          "velocity": 0.6692913385826772,
          "duration": 0.7629304749999974
        },
        {
          "name": "A3",
          "midi": 57,
          "time": 42.15514150000017,
          "velocity": 0.6692913385826772,
          "duration": 0.7629304749999974
        },
        {
          "name": "C#4",
          "midi": 61,
          "time": 42.15514150000017,
          "velocity": 0.6692913385826772,
          "duration": 1.0258613166666706
        },
        {
          "name": "B1",
          "midi": 35,
          "time": 42.15514150000017,
          "velocity": 0.5748031496062992,
          "duration": 0.04310341666666773
        },
        {
          "name": "B3",
          "midi": 59,
          "time": 42.15514150000017,
          "velocity": 0.7165354330708661,
          "duration": 0.04310341666666773
        },
        {
          "name": "A3",
          "midi": 57,
          "time": 42.41376200000017,
          "velocity": 0.7874015748031497,
          "duration": 0.5172409999999985
        },
        {
          "name": "B1",
          "midi": 35,
          "time": 42.41376200000017,
          "velocity": 0.8582677165354331,
          "duration": 0.04310341666666773
        },
        {
          "name": "B3",
          "midi": 59,
          "time": 42.41376200000017,
          "velocity": 0.6929133858267716,
          "duration": 0.04310341666666773
        },
        {
          "name": "E3",
          "midi": 52,
          "time": 42.67238250000017,
          "velocity": 0.7007874015748031,
          "duration": 0.25862049999999925
        },
        {
          "name": "E3",
          "midi": 52,
          "time": 42.67238250000017,
          "velocity": 0.5511811023622047,
          "duration": 0.4999996333333385
        },
        {
          "name": "A3",
          "midi": 57,
          "time": 42.67238250000017,
          "velocity": 0.5511811023622047,
          "duration": 0.5086203166666721
        },
        {
          "name": "C#4",
          "midi": 61,
          "time": 42.67238250000017,
          "velocity": 0.5511811023622047,
          "duration": 0.7629304750000117
        },
        {
          "name": "B3",
          "midi": 59,
          "time": 42.67238250000017,
          "velocity": 0.7086614173228346,
          "duration": 0.04310341666666773
        },
        {
          "name": "A4",
          "midi": 69,
          "time": 42.93100300000017,
          "velocity": 0.7874015748031497,
          "duration": 0.12931025000000318
        },
        {
          "name": "A4",
          "midi": 69,
          "time": 42.93100300000017,
          "velocity": 0.7874015748031497,
          "duration": 0.49999963333334563
        },
        {
          "name": "A4",
          "midi": 69,
          "time": 42.93100300000017,
          "velocity": 0.7874015748031497,
          "duration": 0.5172410000000127
        },
        {
          "name": "A3",
          "midi": 57,
          "time": 42.93100300000017,
          "velocity": 0.7874015748031497,
          "duration": 0.49999963333334563
        },
        {
          "name": "F#3",
          "midi": 54,
          "time": 42.93100300000017,
          "velocity": 0.8582677165354331,
          "duration": 0.25862050000000636
        },
        {
          "name": "A2",
          "midi": 45,
          "time": 42.93100300000017,
          "velocity": 0.5905511811023622,
          "duration": 0.5043099750000124
        },
        {
          "name": "E3",
          "midi": 52,
          "time": 42.93100300000017,
          "velocity": 0.5905511811023622,
          "duration": 0.5043099750000124
        },
        {
          "name": "A3",
          "midi": 57,
          "time": 42.93100300000017,
          "velocity": 0.5905511811023622,
          "duration": 0.5043099750000124
        },
        {
          "name": "E2",
          "midi": 40,
          "time": 42.93100300000017,
          "velocity": 0.8582677165354331,
          "duration": 0.04310341666666773
        },
        {
          "name": "A#2",
          "midi": 46,
          "time": 42.93100300000017,
          "velocity": 0.8661417322834646,
          "duration": 0.04310341666666773
        },
        {
          "name": "B3",
          "midi": 59,
          "time": 42.93100300000017,
          "velocity": 0.6929133858267716,
          "duration": 0.04310341666666773
        },
        {
          "name": "B4",
          "midi": 71,
          "time": 43.06031325000017,
          "velocity": 0.7874015748031497,
          "duration": 0.12931025000000318
        },
        {
          "name": "B4",
          "midi": 71,
          "time": 43.06031325000017,
          "velocity": 0.7874015748031497,
          "duration": 0.12931025000000318
        },
        {
          "name": "C#5",
          "midi": 73,
          "time": 43.189623500000174,
          "velocity": 0.7874015748031497,
          "duration": 0.12931025000000318
        },
        {
          "name": "C#5",
          "midi": 73,
          "time": 43.189623500000174,
          "velocity": 0.7874015748031497,
          "duration": 0.12931025000000318
        },
        {
          "name": "E3",
          "midi": 52,
          "time": 43.189623500000174,
          "velocity": 0.6929133858267716,
          "duration": 0.24999981666667281
        },
        {
          "name": "E3",
          "midi": 52,
          "time": 43.189623500000174,
          "velocity": 0.5511811023622047,
          "duration": 0.25862050000000636
        },
        {
          "name": "A3",
          "midi": 57,
          "time": 43.189623500000174,
          "velocity": 0.5511811023622047,
          "duration": 0.25862050000000636
        },
        {
          "name": "C#4",
          "midi": 61,
          "time": 43.189623500000174,
          "velocity": 0.5511811023622047,
          "duration": 0.24999981666667281
        },
        {
          "name": "B3",
          "midi": 59,
          "time": 43.189623500000174,
          "velocity": 0.5748031496062992,
          "duration": 0.04310341666666773
        },
        {
          "name": "A4",
          "midi": 69,
          "time": 43.31893375000018,
          "velocity": 0.7874015748031497,
          "duration": 0.12931025000000318
        },
        {
          "name": "A4",
          "midi": 69,
          "time": 43.31893375000018,
          "velocity": 0.7874015748031497,
          "duration": 0.12931025000000318
        },
        {
          "name": "E5",
          "midi": 76,
          "time": 43.44824400000018,
          "velocity": 0.7874015748031497,
          "duration": 0.38793075000000243
        },
        {
          "name": "E5",
          "midi": 76,
          "time": 43.44824400000018,
          "velocity": 0.7874015748031497,
          "duration": 0.38793075000000243
        },
        {
          "name": "A4",
          "midi": 69,
          "time": 43.44824400000018,
          "velocity": 0.7874015748031497,
          "duration": 0.7758615000000049
        },
        {
          "name": "C#5",
          "midi": 73,
          "time": 43.44824400000018,
          "velocity": 0.7874015748031497,
          "duration": 0.7758615000000049
        },
        {
          "name": "E5",
          "midi": 76,
          "time": 43.44824400000018,
          "velocity": 0.7874015748031497,
          "duration": 0.7758615000000049
        },
        {
          "name": "F#3",
          "midi": 54,
          "time": 43.44824400000018,
          "velocity": 0.7874015748031497,
          "duration": 0.5043099750000053
        },
        {
          "name": "F#2",
          "midi": 42,
          "time": 43.44824400000018,
          "velocity": 0.8503937007874016,
          "duration": 0.5043099750000053
        },
        {
          "name": "A3",
          "midi": 57,
          "time": 43.44824400000018,
          "velocity": 0.6299212598425197,
          "duration": 0.7586201333333378
        },
        {
          "name": "C#4",
          "midi": 61,
          "time": 43.44824400000018,
          "velocity": 0.6299212598425197,
          "duration": 0.7586201333333378
        },
        {
          "name": "E4",
          "midi": 64,
          "time": 43.44824400000018,
          "velocity": 0.6299212598425197,
          "duration": 0.7586201333333378
        },
        {
          "name": "F#2",
          "midi": 42,
          "time": 43.44824400000018,
          "velocity": 0.6692913385826772,
          "duration": 0.5603444166666733
        },
        {
          "name": "C#3",
          "midi": 49,
          "time": 43.44824400000018,
          "velocity": 0.6692913385826772,
          "duration": 0.5043099750000053
        },
        {
          "name": "F#3",
          "midi": 54,
          "time": 43.44824400000018,
          "velocity": 0.6692913385826772,
          "duration": 0.5172410000000056
        },
        {
          "name": "E3",
          "midi": 52,
          "time": 43.44824400000018,
          "velocity": 0.5511811023622047,
          "duration": 0.7672408166666713
        },
        {
          "name": "A3",
          "midi": 57,
          "time": 43.44824400000018,
          "velocity": 0.5511811023622047,
          "duration": 0.7629304750000045
        },
        {
          "name": "C#4",
          "midi": 61,
          "time": 43.44824400000018,
          "velocity": 0.5511811023622047,
          "duration": 0.7672408166666713
        },
        {
          "name": "B1",
          "midi": 35,
          "time": 43.44824400000018,
          "velocity": 0.8740157480314961,
          "duration": 0.04310341666666773
        },
        {
          "name": "B3",
          "midi": 59,
          "time": 43.44824400000018,
          "velocity": 0.8503937007874016,
          "duration": 0.04310341666666773
        },
        {
          "name": "B3",
          "midi": 59,
          "time": 43.70686450000018,
          "velocity": 0.7007874015748031,
          "duration": 0.04310341666666773
        },
        {
          "name": "E5",
          "midi": 76,
          "time": 43.83617475000018,
          "velocity": 0.7874015748031497,
          "duration": 0.38793075000000243
        },
        {
          "name": "E5",
          "midi": 76,
          "time": 43.83617475000018,
          "velocity": 0.7874015748031497,
          "duration": 0.38793075000000243
        },
        {
          "name": "F#3",
          "midi": 54,
          "time": 43.965485000000186,
          "velocity": 0.7874015748031497,
          "duration": 0.24137913333333216
        },
        {
          "name": "F#2",
          "midi": 42,
          "time": 43.965485000000186,
          "velocity": 0.5905511811023622,
          "duration": 0.24568947499999894
        },
        {
          "name": "C#3",
          "midi": 49,
          "time": 43.965485000000186,
          "velocity": 0.5905511811023622,
          "duration": 0.24137913333333216
        },
        {
          "name": "F#3",
          "midi": 54,
          "time": 43.965485000000186,
          "velocity": 0.5905511811023622,
          "duration": 0.5172410000000056
        },
        {
          "name": "E2",
          "midi": 40,
          "time": 43.965485000000186,
          "velocity": 0.8740157480314961,
          "duration": 0.04310341666666773
        },
        {
          "name": "F#2",
          "midi": 42,
          "time": 43.965485000000186,
          "velocity": 0.8582677165354331,
          "duration": 0.25862049999999925
        },
        {
          "name": "B3",
          "midi": 59,
          "time": 43.965485000000186,
          "velocity": 0.5433070866141733,
          "duration": 0.04310341666666773
        },
        {
          "name": "D5",
          "midi": 74,
          "time": 44.224105500000185,
          "velocity": 0.7874015748031497,
          "duration": 0.12931025000000318
        },
        {
          "name": "D5",
          "midi": 74,
          "time": 44.224105500000185,
          "velocity": 0.7874015748031497,
          "duration": 0.12931025000000318
        },
        {
          "name": "B4",
          "midi": 71,
          "time": 44.224105500000185,
          "velocity": 0.7874015748031497,
          "duration": 0.7758615000000049
        },
        {
          "name": "D5",
          "midi": 74,
          "time": 44.224105500000185,
          "velocity": 0.7874015748031497,
          "duration": 0.7758615000000049
        },
        {
          "name": "F#5",
          "midi": 78,
          "time": 44.224105500000185,
          "velocity": 0.7874015748031497,
          "duration": 0.7758615000000049
        },
        {
          "name": "B2",
          "midi": 47,
          "time": 44.224105500000185,
          "velocity": 0.8503937007874016,
          "duration": 0.24568947500000604
        },
        {
          "name": "D4",
          "midi": 62,
          "time": 44.224105500000185,
          "velocity": 0.6299212598425197,
          "duration": 1.284481816666684
        },
        {
          "name": "F#4",
          "midi": 66,
          "time": 44.224105500000185,
          "velocity": 0.6299212598425197,
          "duration": 1.2758611333333505
        },
        {
          "name": "A4",
          "midi": 69,
          "time": 44.224105500000185,
          "velocity": 0.6299212598425197,
          "duration": 0.905171750000008
        },
        {
          "name": "B2",
          "midi": 47,
          "time": 44.224105500000185,
          "velocity": 0.5905511811023622,
          "duration": 0.7586201333333378
        },
        {
          "name": "F#3",
          "midi": 54,
          "time": 44.224105500000185,
          "velocity": 0.5905511811023622,
          "duration": 0.4999996333333385
        },
        {
          "name": "B3",
          "midi": 59,
          "time": 44.224105500000185,
          "velocity": 0.5905511811023622,
          "duration": 0.04310341666666773
        },
        {
          "name": "D3",
          "midi": 50,
          "time": 44.224105500000185,
          "velocity": 0.6692913385826772,
          "duration": 0.5086203166666721
        },
        {
          "name": "F#3",
          "midi": 54,
          "time": 44.224105500000185,
          "velocity": 0.6692913385826772,
          "duration": 0.7672408166666713
        },
        {
          "name": "A3",
          "midi": 57,
          "time": 44.224105500000185,
          "velocity": 0.6692913385826772,
          "duration": 0.5086203166666721
        },
        {
          "name": "B1",
          "midi": 35,
          "time": 44.224105500000185,
          "velocity": 0.5354330708661418,
          "duration": 0.04310341666666773
        },
        {
          "name": "B3",
          "midi": 59,
          "time": 44.224105500000185,
          "velocity": 0.8661417322834646,
          "duration": 0.3017239166666741
        },
        {
          "name": "C#5",
          "midi": 73,
          "time": 44.35341575000019,
          "velocity": 0.7874015748031497,
          "duration": 0.12931025000000318
        },
        {
          "name": "C#5",
          "midi": 73,
          "time": 44.35341575000019,
          "velocity": 0.7874015748031497,
          "duration": 0.12931025000000318
        },
        {
          "name": "B4",
          "midi": 71,
          "time": 44.48272600000019,
          "velocity": 0.7874015748031497,
          "duration": 0.5172409999999985
        },
        {
          "name": "B4",
          "midi": 71,
          "time": 44.48272600000019,
          "velocity": 0.7874015748031497,
          "duration": 0.5172409999999985
        },
        {
          "name": "B3",
          "midi": 59,
          "time": 44.48272600000019,
          "velocity": 0.7874015748031497,
          "duration": 0.301723916666667
        },
        {
          "name": "A2",
          "midi": 45,
          "time": 44.48272600000019,
          "velocity": 0.6929133858267716,
          "duration": 0.25862049999999925
        },
        {
          "name": "B1",
          "midi": 35,
          "time": 44.48272600000019,
          "velocity": 0.8582677165354331,
          "duration": 0.04310341666666773
        },
        {
          "name": "B3",
          "midi": 59,
          "time": 44.48272600000019,
          "velocity": 0.7165354330708661,
          "duration": 0.5043099749999982
        },
        {
          "name": "B2",
          "midi": 47,
          "time": 44.74134650000019,
          "velocity": 0.7086614173228346,
          "duration": 0.25862049999999925
        },
        {
          "name": "D3",
          "midi": 50,
          "time": 44.74134650000019,
          "velocity": 0.5511811023622047,
          "duration": 0.5043099750000053
        },
        {
          "name": "F#3",
          "midi": 54,
          "time": 44.74134650000019,
          "velocity": 0.5511811023622047,
          "duration": 0.5043099750000053
        },
        {
          "name": "A3",
          "midi": 57,
          "time": 44.74134650000019,
          "velocity": 0.5511811023622047,
          "duration": 0.5043099750000053
        },
        {
          "name": "B3",
          "midi": 59,
          "time": 44.74134650000019,
          "velocity": 0.7086614173228346,
          "duration": 0.25862049999999925
        },
        {
          "name": "A4",
          "midi": 69,
          "time": 44.99996700000019,
          "velocity": 0.7874015748031497,
          "duration": 0.12931025000000318
        },
        {
          "name": "A4",
          "midi": 69,
          "time": 44.99996700000019,
          "velocity": 0.7874015748031497,
          "duration": 0.5086203166666792
        },
        {
          "name": "A5",
          "midi": 81,
          "time": 44.99996700000019,
          "velocity": 0.7874015748031497,
          "duration": 0.12931025000000318
        },
        {
          "name": "B3",
          "midi": 59,
          "time": 44.99996700000019,
          "velocity": 0.7874015748031497,
          "duration": 0.04310341666666773
        },
        {
          "name": "A2",
          "midi": 45,
          "time": 44.99996700000019,
          "velocity": 0.7165354330708661,
          "duration": 0.25862050000000636
        },
        {
          "name": "B2",
          "midi": 47,
          "time": 44.99996700000019,
          "velocity": 0.5905511811023622,
          "duration": 0.5086203166666792
        },
        {
          "name": "F#3",
          "midi": 54,
          "time": 44.99996700000019,
          "velocity": 0.5905511811023622,
          "duration": 0.49999963333334563
        },
        {
          "name": "B3",
          "midi": 59,
          "time": 44.99996700000019,
          "velocity": 0.5905511811023622,
          "duration": 0.3017239166666741
        },
        {
          "name": "E2",
          "midi": 40,
          "time": 44.99996700000019,
          "velocity": 0.8582677165354331,
          "duration": 0.04310341666666773
        },
        {
          "name": "F#2",
          "midi": 42,
          "time": 44.99996700000019,
          "velocity": 0.8503937007874016,
          "duration": 0.04310341666666773
        },
        {
          "name": "B3",
          "midi": 59,
          "time": 44.99996700000019,
          "velocity": 0.7007874015748031,
          "duration": 0.5043099750000124
        },
        {
          "name": "B4",
          "midi": 71,
          "time": 45.12927725000019,
          "velocity": 0.7874015748031497,
          "duration": 0.12931025000000318
        },
        {
          "name": "B4",
          "midi": 71,
          "time": 45.12927725000019,
          "velocity": 0.7874015748031497,
          "duration": 0.12931025000000318
        },
        {
          "name": "G5",
          "midi": 79,
          "time": 45.12927725000019,
          "velocity": 0.7874015748031497,
          "duration": 0.12931025000000318
        },
        {
          "name": "C#5",
          "midi": 73,
          "time": 45.258587500000196,
          "velocity": 0.7874015748031497,
          "duration": 0.12931025000000318
        },
        {
          "name": "C#5",
          "midi": 73,
          "time": 45.258587500000196,
          "velocity": 0.7874015748031497,
          "duration": 0.12931025000000318
        },
        {
          "name": "F#5",
          "midi": 78,
          "time": 45.258587500000196,
          "velocity": 0.7874015748031497,
          "duration": 0.12931025000000318
        },
        {
          "name": "F#2",
          "midi": 42,
          "time": 45.258587500000196,
          "velocity": 0.6929133858267716,
          "duration": 0.25862050000000636
        },
        {
          "name": "D3",
          "midi": 50,
          "time": 45.258587500000196,
          "velocity": 0.5511811023622047,
          "duration": 0.24137913333333927
        },
        {
          "name": "F#3",
          "midi": 54,
          "time": 45.258587500000196,
          "velocity": 0.5511811023622047,
          "duration": 0.24999981666667281
        },
        {
          "name": "A3",
          "midi": 57,
          "time": 45.258587500000196,
          "velocity": 0.5511811023622047,
          "duration": 0.24568947500000604
        },
        {
          "name": "B3",
          "midi": 59,
          "time": 45.258587500000196,
          "velocity": 0.5669291338582677,
          "duration": 0.25862050000000636
        },
        {
          "name": "A4",
          "midi": 69,
          "time": 45.3878977500002,
          "velocity": 0.7874015748031497,
          "duration": 0.12931025000000318
        },
        {
          "name": "A4",
          "midi": 69,
          "time": 45.3878977500002,
          "velocity": 0.7874015748031497,
          "duration": 0.12931025000000318
        },
        {
          "name": "E5",
          "midi": 76,
          "time": 45.3878977500002,
          "velocity": 0.7874015748031497,
          "duration": 0.12931025000000318
        },
        {
          "name": "D5",
          "midi": 74,
          "time": 45.5172080000002,
          "velocity": 0.7874015748031497,
          "duration": 0.5172409999999985
        },
        {
          "name": "D5",
          "midi": 74,
          "time": 45.5172080000002,
          "velocity": 0.7874015748031497,
          "duration": 0.5172409999999985
        },
        {
          "name": "G4",
          "midi": 67,
          "time": 45.5172080000002,
          "velocity": 0.7874015748031497,
          "duration": 0.7758614999999978
        },
        {
          "name": "B4",
          "midi": 71,
          "time": 45.5172080000002,
          "velocity": 0.7874015748031497,
          "duration": 0.7758614999999978
        },
        {
          "name": "D5",
          "midi": 74,
          "time": 45.5172080000002,
          "velocity": 0.7874015748031497,
          "duration": 0.7758614999999978
        },
        {
          "name": "F#5",
          "midi": 78,
          "time": 45.5172080000002,
          "velocity": 0.7874015748031497,
          "duration": 0.7758614999999978
        },
        {
          "name": "E3",
          "midi": 52,
          "time": 45.5172080000002,
          "velocity": 0.7874015748031497,
          "duration": 0.5043099749999982
        },
        {
          "name": "E2",
          "midi": 40,
          "time": 45.5172080000002,
          "velocity": 0.8661417322834646,
          "duration": 0.24568947499999894
        },
        {
          "name": "G3",
          "midi": 55,
          "time": 45.5172080000002,
          "velocity": 0.6299212598425197,
          "duration": 0.7672408166666642
        },
        {
          "name": "B3",
          "midi": 59,
          "time": 45.5172080000002,
          "velocity": 0.6299212598425197,
          "duration": 0.04310341666666773
        },
        {
          "name": "D4",
          "midi": 62,
          "time": 45.5172080000002,
          "velocity": 0.6299212598425197,
          "duration": 0.7672408166666642
        },
        {
          "name": "F#4",
          "midi": 66,
          "time": 45.5172080000002,
          "velocity": 0.6299212598425197,
          "duration": 0.7672408166666642
        },
        {
          "name": "E2",
          "midi": 40,
          "time": 45.5172080000002,
          "velocity": 0.6692913385826772,
          "duration": 0.508620316666665
        },
        {
          "name": "B2",
          "midi": 47,
          "time": 45.5172080000002,
          "velocity": 0.6692913385826772,
          "duration": 0.5043099749999982
        },
        {
          "name": "E3",
          "midi": 52,
          "time": 45.5172080000002,
          "velocity": 0.6692913385826772,
          "duration": 0.5172409999999985
        },
        {
          "name": "D3",
          "midi": 50,
          "time": 45.5172080000002,
          "velocity": 0.5511811023622047,
          "duration": 0.7629304749999974
        },
        {
          "name": "F#3",
          "midi": 54,
          "time": 45.5172080000002,
          "velocity": 0.5511811023622047,
          "duration": 0.7586201333333307
        },
        {
          "name": "G3",
          "midi": 55,
          "time": 45.5172080000002,
          "velocity": 0.5511811023622047,
          "duration": 0.7672408166666642
        },
        {
          "name": "B3",
          "midi": 59,
          "time": 45.5172080000002,
          "velocity": 0.5511811023622047,
          "duration": 0.301723916666667
        },
        {
          "name": "B1",
          "midi": 35,
          "time": 45.5172080000002,
          "velocity": 0.8503937007874016,
          "duration": 0.04310341666666773
        },
        {
          "name": "B3",
          "midi": 59,
          "time": 45.5172080000002,
          "velocity": 0.8503937007874016,
          "duration": 0.5603444166666662
        },
        {
          "name": "F#2",
          "midi": 42,
          "time": 45.7758285000002,
          "velocity": 0.7007874015748031,
          "duration": 0.25862049999999925
        },
        {
          "name": "B3",
          "midi": 59,
          "time": 45.7758285000002,
          "velocity": 0.6929133858267716,
          "duration": 0.5043099749999982
        },
        {
          "name": "E5",
          "midi": 76,
          "time": 46.0344490000002,
          "velocity": 0.7874015748031497,
          "duration": 0.25862049999999925
        },
        {
          "name": "E5",
          "midi": 76,
          "time": 46.0344490000002,
          "velocity": 0.7874015748031497,
          "duration": 0.25862049999999925
        },
        {
          "name": "E3",
          "midi": 52,
          "time": 46.0344490000002,
          "velocity": 0.7874015748031497,
          "duration": 0.24568947499999894
        },
        {
          "name": "G2",
          "midi": 43,
          "time": 46.0344490000002,
          "velocity": 0.7086614173228346,
          "duration": 0.25862049999999925
        },
        {
          "name": "E2",
          "midi": 40,
          "time": 46.0344490000002,
          "velocity": 0.5905511811023622,
          "duration": 0.04310341666666773
        },
        {
          "name": "B2",
          "midi": 47,
          "time": 46.0344490000002,
          "velocity": 0.5905511811023622,
          "duration": 0.24137913333333216
        },
        {
          "name": "E3",
          "midi": 52,
          "time": 46.0344490000002,
          "velocity": 0.5905511811023622,
          "duration": 0.5172409999999985
        },
        {
          "name": "E2",
          "midi": 40,
          "time": 46.0344490000002,
          "velocity": 0.8503937007874016,
          "duration": 0.24137913333333216
        },
        {
          "name": "F#2",
          "midi": 42,
          "time": 46.0344490000002,
          "velocity": 0.8503937007874016,
          "duration": 0.04310341666666773
        },
        {
          "name": "B3",
          "midi": 59,
          "time": 46.0344490000002,
          "velocity": 0.7007874015748031,
          "duration": 0.2499998166666657
        },
        {
          "name": "C#5",
          "midi": 73,
          "time": 46.2930695000002,
          "velocity": 0.7874015748031497,
          "duration": 0.25862049999999925
        },
        {
          "name": "C#5",
          "midi": 73,
          "time": 46.2930695000002,
          "velocity": 0.7874015748031497,
          "duration": 0.25862049999999925
        },
        {
          "name": "A4",
          "midi": 69,
          "time": 46.2930695000002,
          "velocity": 0.7874015748031497,
          "duration": 0.7758614999999978
        },
        {
          "name": "C#5",
          "midi": 73,
          "time": 46.2930695000002,
          "velocity": 0.7874015748031497,
          "duration": 0.7758614999999978
        },
        {
          "name": "E5",
          "midi": 76,
          "time": 46.2930695000002,
          "velocity": 0.7874015748031497,
          "duration": 0.7758614999999978
        },
        {
          "name": "A2",
          "midi": 45,
          "time": 46.2930695000002,
          "velocity": 0.8661417322834646,
          "duration": 0.5172409999999985
        },
        {
          "name": "A3",
          "midi": 57,
          "time": 46.2930695000002,
          "velocity": 0.6299212598425197,
          "duration": 0.4999996333333314
        },
        {
          "name": "C#4",
          "midi": 61,
          "time": 46.2930695000002,
          "velocity": 0.6299212598425197,
          "duration": 0.4999996333333314
        },
        {
          "name": "E4",
          "midi": 64,
          "time": 46.2930695000002,
          "velocity": 0.6299212598425197,
          "duration": 1.280171474999996
        },
        {
          "name": "A2",
          "midi": 45,
          "time": 46.2930695000002,
          "velocity": 0.6692913385826772,
          "duration": 1.280171474999996
        },
        {
          "name": "E3",
          "midi": 52,
          "time": 46.2930695000002,
          "velocity": 0.6692913385826772,
          "duration": 0.508620316666665
        },
        {
          "name": "A3",
          "midi": 57,
          "time": 46.2930695000002,
          "velocity": 0.6692913385826772,
          "duration": 0.7758614999999978
        },
        {
          "name": "E3",
          "midi": 52,
          "time": 46.2930695000002,
          "velocity": 0.6692913385826772,
          "duration": 0.7758614999999978
        },
        {
          "name": "A3",
          "midi": 57,
          "time": 46.2930695000002,
          "velocity": 0.6692913385826772,
          "duration": 1.01724063333333
        },
        {
          "name": "C#4",
          "midi": 61,
          "time": 46.2930695000002,
          "velocity": 0.6692913385826772,
          "duration": 1.0258613166666635
        },
        {
          "name": "B1",
          "midi": 35,
          "time": 46.2930695000002,
          "velocity": 0.5354330708661418,
          "duration": 0.04310341666666773
        },
        {
          "name": "B3",
          "midi": 59,
          "time": 46.2930695000002,
          "velocity": 0.7165354330708661,
          "duration": 0.04310341666666773
        },
        {
          "name": "B4",
          "midi": 71,
          "time": 46.5516900000002,
          "velocity": 0.7874015748031497,
          "duration": 0.25862049999999925
        },
        {
          "name": "B4",
          "midi": 71,
          "time": 46.5516900000002,
          "velocity": 0.7874015748031497,
          "duration": 0.25862049999999925
        },
        {
          "name": "A3",
          "midi": 57,
          "time": 46.5516900000002,
          "velocity": 0.7874015748031497,
          "duration": 1.01724063333333
        },
        {
          "name": "B1",
          "midi": 35,
          "time": 46.5516900000002,
          "velocity": 0.8740157480314961,
          "duration": 0.04310341666666773
        },
        {
          "name": "B3",
          "midi": 59,
          "time": 46.5516900000002,
          "velocity": 0.6929133858267716,
          "duration": 0.04310341666666773
        },
        {
          "name": "A4",
          "midi": 69,
          "time": 46.8103105000002,
          "velocity": 0.7874015748031497,
          "duration": 0.25862049999999925
        },
        {
          "name": "A4",
          "midi": 69,
          "time": 46.8103105000002,
          "velocity": 0.7874015748031497,
          "duration": 0.25862049999999925
        },
        {
          "name": "E3",
          "midi": 52,
          "time": 46.8103105000002,
          "velocity": 0.6929133858267716,
          "duration": 0.508620316666665
        },
        {
          "name": "E3",
          "midi": 52,
          "time": 46.8103105000002,
          "velocity": 0.5511811023622047,
          "duration": 0.7586201333333307
        },
        {
          "name": "A3",
          "midi": 57,
          "time": 46.8103105000002,
          "velocity": 0.5511811023622047,
          "duration": 0.7586201333333307
        },
        {
          "name": "C#4",
          "midi": 61,
          "time": 46.8103105000002,
          "velocity": 0.5511811023622047,
          "duration": 0.7629304749999974
        },
        {
          "name": "B3",
          "midi": 59,
          "time": 46.8103105000002,
          "velocity": 0.7086614173228346,
          "duration": 0.04310341666666773
        },
        {
          "name": "A4",
          "midi": 69,
          "time": 47.0689310000002,
          "velocity": 0.7874015748031497,
          "duration": 0.5172409999999985
        },
        {
          "name": "A3",
          "midi": 57,
          "time": 47.0689310000002,
          "velocity": 0.7874015748031497,
          "duration": 0.508620316666665
        },
        {
          "name": "F#3",
          "midi": 54,
          "time": 47.0689310000002,
          "velocity": 0.8582677165354331,
          "duration": 0.25862049999999925
        },
        {
          "name": "E2",
          "midi": 40,
          "time": 47.0689310000002,
          "velocity": 0.8503937007874016,
          "duration": 0.04310341666666773
        },
        {
          "name": "A#2",
          "midi": 46,
          "time": 47.0689310000002,
          "velocity": 0.8661417322834646,
          "duration": 0.04310341666666773
        },
        {
          "name": "B3",
          "midi": 59,
          "time": 47.0689310000002,
          "velocity": 0.6929133858267716,
          "duration": 0.04310341666666773
        },
        {
          "name": "A4",
          "midi": 69,
          "time": 47.3275515000002,
          "velocity": 0.7874015748031497,
          "duration": 0.25862049999999925
        },
        {
          "name": "A4",
          "midi": 69,
          "time": 47.3275515000002,
          "velocity": 0.7874015748031497,
          "duration": 0.25862049999999925
        },
        {
          "name": "A3",
          "midi": 57,
          "time": 47.3275515000002,
          "velocity": 0.6929133858267716,
          "duration": 0.25862049999999925
        },
        {
          "name": "E3",
          "midi": 52,
          "time": 47.3275515000002,
          "velocity": 0.5511811023622047,
          "duration": 0.2499998166666657
        },
        {
          "name": "A3",
          "midi": 57,
          "time": 47.3275515000002,
          "velocity": 0.5511811023622047,
          "duration": 0.25862049999999925
        },
        {
          "name": "C#4",
          "midi": 61,
          "time": 47.3275515000002,
          "velocity": 0.5511811023622047,
          "duration": 0.2499998166666657
        },
        {
          "name": "B3",
          "midi": 59,
          "time": 47.3275515000002,
          "velocity": 0.5748031496062992,
          "duration": 0.04310341666666773
        },
        {
          "name": "E5",
          "midi": 76,
          "time": 47.5861720000002,
          "velocity": 0.7874015748031497,
          "duration": 0.5172409999999985
        },
        {
          "name": "E5",
          "midi": 76,
          "time": 47.5861720000002,
          "velocity": 0.7874015748031497,
          "duration": 0.5172409999999985
        },
        {
          "name": "A4",
          "midi": 69,
          "time": 47.5861720000002,
          "velocity": 0.7874015748031497,
          "duration": 0.7758614999999978
        },
        {
          "name": "C#5",
          "midi": 73,
          "time": 47.5861720000002,
          "velocity": 0.7874015748031497,
          "duration": 0.7758614999999978
        },
        {
          "name": "E5",
          "midi": 76,
          "time": 47.5861720000002,
          "velocity": 0.7874015748031497,
          "duration": 0.7758614999999978
        },
        {
          "name": "F#3",
          "midi": 54,
          "time": 47.5861720000002,
          "velocity": 0.7874015748031497,
          "duration": 0.4999996333333314
        },
        {
          "name": "F#2",
          "midi": 42,
          "time": 47.5861720000002,
          "velocity": 0.8582677165354331,
          "duration": 0.508620316666665
        },
        {
          "name": "A3",
          "midi": 57,
          "time": 47.5861720000002,
          "velocity": 0.6299212598425197,
          "duration": 0.7586201333333307
        },
        {
          "name": "C#4",
          "midi": 61,
          "time": 47.5861720000002,
          "velocity": 0.6299212598425197,
          "duration": 0.7586201333333307
        },
        {
          "name": "E4",
          "midi": 64,
          "time": 47.5861720000002,
          "velocity": 0.6299212598425197,
          "duration": 0.7586201333333307
        },
        {
          "name": "F#2",
          "midi": 42,
          "time": 47.5861720000002,
          "velocity": 0.6692913385826772,
          "duration": 0.5603444166666662
        },
        {
          "name": "C#3",
          "midi": 49,
          "time": 47.5861720000002,
          "velocity": 0.6692913385826772,
          "duration": 0.508620316666665
        },
        {
          "name": "F#3",
          "midi": 54,
          "time": 47.5861720000002,
          "velocity": 0.6692913385826772,
          "duration": 0.5172409999999985
        },
        {
          "name": "E3",
          "midi": 52,
          "time": 47.5861720000002,
          "velocity": 0.5511811023622047,
          "duration": 0.7586201333333307
        },
        {
          "name": "A3",
          "midi": 57,
          "time": 47.5861720000002,
          "velocity": 0.5511811023622047,
          "duration": 0.7629304749999974
        },
        {
          "name": "C#4",
          "midi": 61,
          "time": 47.5861720000002,
          "velocity": 0.5511811023622047,
          "duration": 0.7586201333333307
        },
        {
          "name": "B1",
          "midi": 35,
          "time": 47.5861720000002,
          "velocity": 0.8661417322834646,
          "duration": 0.04310341666666773
        },
        {
          "name": "B3",
          "midi": 59,
          "time": 47.5861720000002,
          "velocity": 0.8503937007874016,
          "duration": 0.04310341666666773
        },
        {
          "name": "B3",
          "midi": 59,
          "time": 47.844792500000196,
          "velocity": 0.7007874015748031,
          "duration": 0.04310341666666773
        },
        {
          "name": "D5",
          "midi": 74,
          "time": 48.103413000000195,
          "velocity": 0.7874015748031497,
          "duration": 0.5172409999999985
        },
        {
          "name": "D5",
          "midi": 74,
          "time": 48.103413000000195,
          "velocity": 0.7874015748031497,
          "duration": 0.5172409999999985
        },
        {
          "name": "B3",
          "midi": 59,
          "time": 48.103413000000195,
          "velocity": 0.7874015748031497,
          "duration": 0.04310341666666773
        },
        {
          "name": "F#2",
          "midi": 42,
          "time": 48.103413000000195,
          "velocity": 0.5905511811023622,
          "duration": 0.24137913333333216
        },
        {
          "name": "C#3",
          "midi": 49,
          "time": 48.103413000000195,
          "velocity": 0.5905511811023622,
          "duration": 0.24568947499999894
        },
        {
          "name": "F#3",
          "midi": 54,
          "time": 48.103413000000195,
          "velocity": 0.5905511811023622,
          "duration": 0.2499998166666657
        },
        {
          "name": "E2",
          "midi": 40,
          "time": 48.103413000000195,
          "velocity": 0.8740157480314961,
          "duration": 0.04310341666666773
        },
        {
          "name": "F#2",
          "midi": 42,
          "time": 48.103413000000195,
          "velocity": 0.8582677165354331,
          "duration": 0.25862049999999925
        },
        {
          "name": "B3",
          "midi": 59,
          "time": 48.103413000000195,
          "velocity": 0.5433070866141733,
          "duration": 0.301723916666667
        },
        {
          "name": "F#4",
          "midi": 66,
          "time": 48.362033500000194,
          "velocity": 0.7874015748031497,
          "duration": 0.5172410000000056
        },
        {
          "name": "A4",
          "midi": 69,
          "time": 48.362033500000194,
          "velocity": 0.7874015748031497,
          "duration": 0.5172410000000056
        },
        {
          "name": "D5",
          "midi": 74,
          "time": 48.362033500000194,
          "velocity": 0.7874015748031497,
          "duration": 0.5172410000000056
        },
        {
          "name": "A2",
          "midi": 45,
          "time": 48.362033500000194,
          "velocity": 0.8582677165354331,
          "duration": 0.5172410000000056
        },
        {
          "name": "D4",
          "midi": 62,
          "time": 48.362033500000194,
          "velocity": 0.6299212598425197,
          "duration": 0.4999996333333385
        },
        {
          "name": "F#4",
          "midi": 66,
          "time": 48.362033500000194,
          "velocity": 0.6299212598425197,
          "duration": 1.2844818166666911
        },
        {
          "name": "A4",
          "midi": 69,
          "time": 48.362033500000194,
          "velocity": 0.6299212598425197,
          "duration": 0.6465512500000088
        },
        {
          "name": "D3",
          "midi": 50,
          "time": 48.362033500000194,
          "velocity": 0.5905511811023622,
          "duration": 0.7586201333333449
        },
        {
          "name": "A3",
          "midi": 57,
          "time": 48.362033500000194,
          "velocity": 0.5905511811023622,
          "duration": 0.4999996333333385
        },
        {
          "name": "D4",
          "midi": 62,
          "time": 48.362033500000194,
          "velocity": 0.5905511811023622,
          "duration": 0.7586201333333449
        },
        {
          "name": "F#3",
          "midi": 54,
          "time": 48.362033500000194,
          "velocity": 0.6692913385826772,
          "duration": 0.5043099750000053
        },
        {
          "name": "A3",
          "midi": 57,
          "time": 48.362033500000194,
          "velocity": 0.6692913385826772,
          "duration": 0.7629304750000117
        },
        {
          "name": "D4",
          "midi": 62,
          "time": 48.362033500000194,
          "velocity": 0.6692913385826772,
          "duration": 1.0172406333333512
        },
        {
          "name": "B1",
          "midi": 35,
          "time": 48.362033500000194,
          "velocity": 0.5433070866141733,
          "duration": 0.04310341666666773
        },
        {
          "name": "B3",
          "midi": 59,
          "time": 48.362033500000194,
          "velocity": 0.8661417322834646,
          "duration": 0.25862049999999925
        },
        {
          "name": "A3",
          "midi": 57,
          "time": 48.620654000000194,
          "velocity": 0.7874015748031497,
          "duration": 0.5172410000000127
        },
        {
          "name": "B1",
          "midi": 35,
          "time": 48.620654000000194,
          "velocity": 0.8661417322834646,
          "duration": 0.04310341666666773
        },
        {
          "name": "E2",
          "midi": 40,
          "time": 48.620654000000194,
          "velocity": 0.3779527559055118,
          "duration": 0.04310341666666773
        },
        {
          "name": "E2",
          "midi": 40,
          "time": 48.7499642500002,
          "velocity": 0.33070866141732286,
          "duration": 0.04310341666666773
        },
        {
          "name": "A4",
          "midi": 69,
          "time": 48.8792745000002,
          "velocity": 0.7874015748031497,
          "duration": 0.25862050000000636
        },
        {
          "name": "E3",
          "midi": 52,
          "time": 48.8792745000002,
          "velocity": 0.6929133858267716,
          "duration": 0.25862050000000636
        },
        {
          "name": "F#3",
          "midi": 54,
          "time": 48.8792745000002,
          "velocity": 0.5511811023622047,
          "duration": 0.5043099750000124
        },
        {
          "name": "A3",
          "midi": 57,
          "time": 48.8792745000002,
          "velocity": 0.5511811023622047,
          "duration": 0.5043099750000124
        },
        {
          "name": "D4",
          "midi": 62,
          "time": 48.8792745000002,
          "velocity": 0.5511811023622047,
          "duration": 0.7629304750000188
        },
        {
          "name": "E2",
          "midi": 40,
          "time": 48.8792745000002,
          "velocity": 0.8582677165354331,
          "duration": 0.04310341666666773
        },
        {
          "name": "A4",
          "midi": 69,
          "time": 49.0085847500002,
          "velocity": 0.7874015748031497,
          "duration": 0.25862050000000636
        },
        {
          "name": "E2",
          "midi": 40,
          "time": 49.0085847500002,
          "velocity": 0.6929133858267716,
          "duration": 0.04310341666666773
        },
        {
          "name": "A4",
          "midi": 69,
          "time": 49.137895000000206,
          "velocity": 0.7874015748031497,
          "duration": 0.12931025000000318
        },
        {
          "name": "A4",
          "midi": 69,
          "time": 49.137895000000206,
          "velocity": 0.7874015748031497,
          "duration": 0.5086203166666792
        },
        {
          "name": "B4",
          "midi": 71,
          "time": 49.137895000000206,
          "velocity": 0.7874015748031497,
          "duration": 0.12931025000000318
        },
        {
          "name": "A3",
          "midi": 57,
          "time": 49.137895000000206,
          "velocity": 0.7874015748031497,
          "duration": 0.49999963333334563
        },
        {
          "name": "F#3",
          "midi": 54,
          "time": 49.137895000000206,
          "velocity": 0.8740157480314961,
          "duration": 0.25862050000000636
        },
        {
          "name": "D3",
          "midi": 50,
          "time": 49.137895000000206,
          "velocity": 0.5905511811023622,
          "duration": 0.5043099750000124
        },
        {
          "name": "A3",
          "midi": 57,
          "time": 49.137895000000206,
          "velocity": 0.5905511811023622,
          "duration": 0.5043099750000124
        },
        {
          "name": "D4",
          "midi": 62,
          "time": 49.137895000000206,
          "velocity": 0.5905511811023622,
          "duration": 0.5043099750000124
        },
        {
          "name": "E2",
          "midi": 40,
          "time": 49.137895000000206,
          "velocity": 0.8582677165354331,
          "duration": 0.04310341666666773
        },
        {
          "name": "B4",
          "midi": 71,
          "time": 49.26720525000021,
          "velocity": 0.7874015748031497,
          "duration": 0.12931025000000318
        },
        {
          "name": "B4",
          "midi": 71,
          "time": 49.26720525000021,
          "velocity": 0.7874015748031497,
          "duration": 0.12931025000000318
        },
        {
          "name": "D5",
          "midi": 74,
          "time": 49.26720525000021,
          "velocity": 0.7874015748031497,
          "duration": 0.12931025000000318
        },
        {
          "name": "D5",
          "midi": 74,
          "time": 49.39651550000021,
          "velocity": 0.7874015748031497,
          "duration": 0.12931025000000318
        },
        {
          "name": "D5",
          "midi": 74,
          "time": 49.39651550000021,
          "velocity": 0.7874015748031497,
          "duration": 0.12931025000000318
        },
        {
          "name": "B4",
          "midi": 71,
          "time": 49.39651550000021,
          "velocity": 0.7874015748031497,
          "duration": 0.12931025000000318
        },
        {
          "name": "A3",
          "midi": 57,
          "time": 49.39651550000021,
          "velocity": 0.6929133858267716,
          "duration": 0.25862050000000636
        },
        {
          "name": "F#3",
          "midi": 54,
          "time": 49.39651550000021,
          "velocity": 0.5511811023622047,
          "duration": 0.24999981666667281
        },
        {
          "name": "A3",
          "midi": 57,
          "time": 49.39651550000021,
          "velocity": 0.5511811023622047,
          "duration": 0.25862050000000636
        },
        {
          "name": "D4",
          "midi": 62,
          "time": 49.39651550000021,
          "velocity": 0.5511811023622047,
          "duration": 0.24999981666667281
        },
        {
          "name": "E2",
          "midi": 40,
          "time": 49.39651550000021,
          "velocity": 0.6929133858267716,
          "duration": 0.04310341666666773
        },
        {
          "name": "B4",
          "midi": 71,
          "time": 49.525825750000216,
          "velocity": 0.7874015748031497,
          "duration": 0.12931025000000318
        },
        {
          "name": "B4",
          "midi": 71,
          "time": 49.525825750000216,
          "velocity": 0.7874015748031497,
          "duration": 0.12931025000000318
        },
        {
          "name": "D5",
          "midi": 74,
          "time": 49.525825750000216,
          "velocity": 0.7874015748031497,
          "duration": 0.12931025000000318
        },
        {
          "name": "A3",
          "midi": 57,
          "time": 49.65082565833355,
          "velocity": 0.8582677165354331,
          "duration": 0.004310341666666773
        },
        {
          "name": "F#5",
          "midi": 78,
          "time": 49.65513600000022,
          "velocity": 0.7874015748031497,
          "duration": 0.38793075000000243
        },
        {
          "name": "F#5",
          "midi": 78,
          "time": 49.65513600000022,
          "velocity": 0.7874015748031497,
          "duration": 0.38793075000000243
        },
        {
          "name": "G4",
          "midi": 67,
          "time": 49.65513600000022,
          "velocity": 0.7874015748031497,
          "duration": 0.7758615000000049
        },
        {
          "name": "B4",
          "midi": 71,
          "time": 49.65513600000022,
          "velocity": 0.7874015748031497,
          "duration": 0.7758615000000049
        },
        {
          "name": "D5",
          "midi": 74,
          "time": 49.65513600000022,
          "velocity": 0.7874015748031497,
          "duration": 0.7758615000000049
        },
        {
          "name": "F#5",
          "midi": 78,
          "time": 49.65513600000022,
          "velocity": 0.7874015748031497,
          "duration": 0.7758615000000049
        },
        {
          "name": "E3",
          "midi": 52,
          "time": 49.65513600000022,
          "velocity": 0.7874015748031497,
          "duration": 0.4999996333333385
        },
        {
          "name": "E2",
          "midi": 40,
          "time": 49.65513600000022,
          "velocity": 0.8661417322834646,
          "duration": 0.24568947499999894
        },
        {
          "name": "F#3",
          "midi": 54,
          "time": 49.65513600000022,
          "velocity": 0.6299212598425197,
          "duration": 0.7586201333333378
        },
        {
          "name": "G3",
          "midi": 55,
          "time": 49.65513600000022,
          "velocity": 0.6299212598425197,
          "duration": 0.7586201333333378
        },
        {
          "name": "B3",
          "midi": 59,
          "time": 49.65513600000022,
          "velocity": 0.6299212598425197,
          "duration": 0.04310341666666773
        },
        {
          "name": "D4",
          "midi": 62,
          "time": 49.65513600000022,
          "velocity": 0.6299212598425197,
          "duration": 0.7586201333333378
        },
        {
          "name": "E2",
          "midi": 40,
          "time": 49.65513600000022,
          "velocity": 0.6692913385826772,
          "duration": 0.5086203166666721
        },
        {
          "name": "B2",
          "midi": 47,
          "time": 49.65513600000022,
          "velocity": 0.6692913385826772,
          "duration": 0.4999996333333385
        },
        {
          "name": "E3",
          "midi": 52,
          "time": 49.65513600000022,
          "velocity": 0.6692913385826772,
          "duration": 0.5172410000000056
        },
        {
          "name": "D3",
          "midi": 50,
          "time": 49.65513600000022,
          "velocity": 0.5511811023622047,
          "duration": 0.7672408166666713
        },
        {
          "name": "F#3",
          "midi": 54,
          "time": 49.65513600000022,
          "velocity": 0.5511811023622047,
          "duration": 0.7629304750000045
        },
        {
          "name": "G3",
          "midi": 55,
          "time": 49.65513600000022,
          "velocity": 0.5511811023622047,
          "duration": 0.7672408166666713
        },
        {
          "name": "B3",
          "midi": 59,
          "time": 49.65513600000022,
          "velocity": 0.5511811023622047,
          "duration": 0.301723916666667
        },
        {
          "name": "B1",
          "midi": 35,
          "time": 49.65513600000022,
          "velocity": 0.8582677165354331,
          "duration": 0.04310341666666773
        },
        {
          "name": "B3",
          "midi": 59,
          "time": 49.65513600000022,
          "velocity": 0.8740157480314961,
          "duration": 0.5603444166666733
        },
        {
          "name": "E2",
          "midi": 40,
          "time": 49.91375650000022,
          "velocity": 0.7086614173228346,
          "duration": 0.25862050000000636
        },
        {
          "name": "B3",
          "midi": 59,
          "time": 49.91375650000022,
          "velocity": 0.7165354330708661,
          "duration": 0.4999996333333385
        },
        {
          "name": "F#5",
          "midi": 78,
          "time": 50.04306675000022,
          "velocity": 0.7874015748031497,
          "duration": 0.38793075000000243
        },
        {
          "name": "F#5",
          "midi": 78,
          "time": 50.04306675000022,
          "velocity": 0.7874015748031497,
          "duration": 0.38793075000000243
        },
        {
          "name": "E3",
          "midi": 52,
          "time": 50.172377000000225,
          "velocity": 0.7874015748031497,
          "duration": 0.2499998166666657
        },
        {
          "name": "F#2",
          "midi": 42,
          "time": 50.172377000000225,
          "velocity": 0.7086614173228346,
          "duration": 0.04310341666666773
        },
        {
          "name": "E2",
          "midi": 40,
          "time": 50.172377000000225,
          "velocity": 0.5905511811023622,
          "duration": 0.04310341666666773
        },
        {
          "name": "B2",
          "midi": 47,
          "time": 50.172377000000225,
          "velocity": 0.5905511811023622,
          "duration": 0.24568947499999894
        },
        {
          "name": "E3",
          "midi": 52,
          "time": 50.172377000000225,
          "velocity": 0.5905511811023622,
          "duration": 0.5172409999999985
        },
        {
          "name": "E2",
          "midi": 40,
          "time": 50.172377000000225,
          "velocity": 0.8740157480314961,
          "duration": 0.24568947499999894
        },
        {
          "name": "F#2",
          "midi": 42,
          "time": 50.172377000000225,
          "velocity": 0.8661417322834646,
          "duration": 0.25862049999999925
        },
        {
          "name": "B3",
          "midi": 59,
          "time": 50.172377000000225,
          "velocity": 0.7165354330708661,
          "duration": 0.2499998166666657
        },
        {
          "name": "E5",
          "midi": 76,
          "time": 50.430997500000224,
          "velocity": 0.7874015748031497,
          "duration": 0.7758614999999978
        },
        {
          "name": "E5",
          "midi": 76,
          "time": 50.430997500000224,
          "velocity": 0.7874015748031497,
          "duration": 0.7758614999999978
        },
        {
          "name": "A4",
          "midi": 69,
          "time": 50.430997500000224,
          "velocity": 0.7874015748031497,
          "duration": 0.7758614999999978
        },
        {
          "name": "C#5",
          "midi": 73,
          "time": 50.430997500000224,
          "velocity": 0.7874015748031497,
          "duration": 0.7758614999999978
        },
        {
          "name": "E5",
          "midi": 76,
          "time": 50.430997500000224,
          "velocity": 0.7874015748031497,
          "duration": 0.7758614999999978
        },
        {
          "name": "A2",
          "midi": 45,
          "time": 50.430997500000224,
          "velocity": 0.8661417322834646,
          "duration": 0.5172409999999985
        },
        {
          "name": "C#4",
          "midi": 61,
          "time": 50.430997500000224,
          "velocity": 0.6299212598425197,
          "duration": 0.5043099749999982
        },
        {
          "name": "E4",
          "midi": 64,
          "time": 50.430997500000224,
          "velocity": 0.6299212598425197,
          "duration": 1.2801714750000102
        },
        {
          "name": "A4",
          "midi": 69,
          "time": 50.430997500000224,
          "velocity": 0.6299212598425197,
          "duration": 0.9051717500000009
        },
        {
          "name": "A2",
          "midi": 45,
          "time": 50.430997500000224,
          "velocity": 0.5905511811023622,
          "duration": 0.7672408166666642
        },
        {
          "name": "E3",
          "midi": 52,
          "time": 50.430997500000224,
          "velocity": 0.5905511811023622,
          "duration": 0.5043099749999982
        },
        {
          "name": "A3",
          "midi": 57,
          "time": 50.430997500000224,
          "velocity": 0.5905511811023622,
          "duration": 0.4999996333333314
        },
        {
          "name": "E3",
          "midi": 52,
          "time": 50.430997500000224,
          "velocity": 0.6692913385826772,
          "duration": 0.7672408166666642
        },
        {
          "name": "A3",
          "midi": 57,
          "time": 50.430997500000224,
          "velocity": 0.6692913385826772,
          "duration": 0.7629304749999974
        },
        {
          "name": "C#4",
          "midi": 61,
          "time": 50.430997500000224,
          "velocity": 0.6692913385826772,
          "duration": 1.017240633333337
        },
        {
          "name": "B1",
          "midi": 35,
          "time": 50.430997500000224,
          "velocity": 0.5669291338582677,
          "duration": 0.04310341666666773
        },
        {
          "name": "B3",
          "midi": 59,
          "time": 50.430997500000224,
          "velocity": 0.5354330708661418,
          "duration": 0.04310341666666773
        },
        {
          "name": "A3",
          "midi": 57,
          "time": 50.68961800000022,
          "velocity": 0.7874015748031497,
          "duration": 0.5172409999999985
        },
        {
          "name": "B1",
          "midi": 35,
          "time": 50.68961800000022,
          "velocity": 0.8582677165354331,
          "duration": 0.04310341666666773
        },
        {
          "name": "B3",
          "midi": 59,
          "time": 50.68961800000022,
          "velocity": 0.8503937007874016,
          "duration": 0.04310341666666773
        },
        {
          "name": "E3",
          "midi": 52,
          "time": 50.94823850000022,
          "velocity": 0.6929133858267716,
          "duration": 0.25862049999999925
        },
        {
          "name": "E3",
          "midi": 52,
          "time": 50.94823850000022,
          "velocity": 0.5511811023622047,
          "duration": 0.5086203166666721
        },
        {
          "name": "A3",
          "midi": 57,
          "time": 50.94823850000022,
          "velocity": 0.5511811023622047,
          "duration": 0.5086203166666721
        },
        {
          "name": "C#4",
          "midi": 61,
          "time": 50.94823850000022,
          "velocity": 0.5511811023622047,
          "duration": 0.7629304750000117
        },
        {
          "name": "B3",
          "midi": 59,
          "time": 50.94823850000022,
          "velocity": 0.7165354330708661,
          "duration": 0.04310341666666773
        },
        {
          "name": "A4",
          "midi": 69,
          "time": 51.20685900000022,
          "velocity": 0.7874015748031497,
          "duration": 0.12931025000000318
        },
        {
          "name": "A4",
          "midi": 69,
          "time": 51.20685900000022,
          "velocity": 0.7874015748031497,
          "duration": 0.5086203166666792
        },
        {
          "name": "A4",
          "midi": 69,
          "time": 51.20685900000022,
          "velocity": 0.7874015748031497,
          "duration": 0.5172410000000127
        },
        {
          "name": "A3",
          "midi": 57,
          "time": 51.20685900000022,
          "velocity": 0.7874015748031497,
          "duration": 0.49999963333334563
        },
        {
          "name": "F#3",
          "midi": 54,
          "time": 51.20685900000022,
          "velocity": 0.8582677165354331,
          "duration": 0.25862050000000636
        },
        {
          "name": "A2",
          "midi": 45,
          "time": 51.20685900000022,
          "velocity": 0.5905511811023622,
          "duration": 0.5043099750000124
        },
        {
          "name": "E3",
          "midi": 52,
          "time": 51.20685900000022,
          "velocity": 0.5905511811023622,
          "duration": 0.49999963333334563
        },
        {
          "name": "A3",
          "midi": 57,
          "time": 51.20685900000022,
          "velocity": 0.5905511811023622,
          "duration": 0.5086203166666792
        },
        {
          "name": "E2",
          "midi": 40,
          "time": 51.20685900000022,
          "velocity": 0.8661417322834646,
          "duration": 0.04310341666666773
        },
        {
          "name": "F#2",
          "midi": 42,
          "time": 51.20685900000022,
          "velocity": 0.8661417322834646,
          "duration": 0.04310341666666773
        },
        {
          "name": "B3",
          "midi": 59,
          "time": 51.20685900000022,
          "velocity": 0.7007874015748031,
          "duration": 0.04310341666666773
        },
        {
          "name": "B4",
          "midi": 71,
          "time": 51.336169250000225,
          "velocity": 0.7874015748031497,
          "duration": 0.12931025000000318
        },
        {
          "name": "B4",
          "midi": 71,
          "time": 51.336169250000225,
          "velocity": 0.7874015748031497,
          "duration": 0.12931025000000318
        },
        {
          "name": "C#5",
          "midi": 73,
          "time": 51.46547950000023,
          "velocity": 0.7874015748031497,
          "duration": 0.12931025000000318
        },
        {
          "name": "C#5",
          "midi": 73,
          "time": 51.46547950000023,
          "velocity": 0.7874015748031497,
          "duration": 0.12931025000000318
        },
        {
          "name": "E3",
          "midi": 52,
          "time": 51.46547950000023,
          "velocity": 0.7165354330708661,
          "duration": 0.24568947500000604
        },
        {
          "name": "E3",
          "midi": 52,
          "time": 51.46547950000023,
          "velocity": 0.5511811023622047,
          "duration": 0.25862050000000636
        },
        {
          "name": "A3",
          "midi": 57,
          "time": 51.46547950000023,
          "velocity": 0.5511811023622047,
          "duration": 0.25862050000000636
        },
        {
          "name": "C#4",
          "midi": 61,
          "time": 51.46547950000023,
          "velocity": 0.5511811023622047,
          "duration": 0.24568947500000604
        },
        {
          "name": "B3",
          "midi": 59,
          "time": 51.46547950000023,
          "velocity": 0.5669291338582677,
          "duration": 0.04310341666666773
        },
        {
          "name": "A4",
          "midi": 69,
          "time": 51.59478975000023,
          "velocity": 0.7874015748031497,
          "duration": 0.12931025000000318
        },
        {
          "name": "A4",
          "midi": 69,
          "time": 51.59478975000023,
          "velocity": 0.7874015748031497,
          "duration": 0.12931025000000318
        },
        {
          "name": "A5",
          "midi": 81,
          "time": 51.724100000000234,
          "velocity": 0.7874015748031497,
          "duration": 0.5172409999999985
        },
        {
          "name": "A5",
          "midi": 81,
          "time": 51.724100000000234,
          "velocity": 0.7874015748031497,
          "duration": 0.5172409999999985
        },
        {
          "name": "A4",
          "midi": 69,
          "time": 51.724100000000234,
          "velocity": 0.7874015748031497,
          "duration": 0.7629304749999974
        },
        {
          "name": "C#5",
          "midi": 73,
          "time": 51.724100000000234,
          "velocity": 0.7874015748031497,
          "duration": 0.7758614999999978
        },
        {
          "name": "E5",
          "midi": 76,
          "time": 51.724100000000234,
          "velocity": 0.7874015748031497,
          "duration": 0.7758614999999978
        },
        {
          "name": "F#3",
          "midi": 54,
          "time": 51.724100000000234,
          "velocity": 0.7874015748031497,
          "duration": 0.508620316666665
        },
        {
          "name": "F#2",
          "midi": 42,
          "time": 51.724100000000234,
          "velocity": 0.8661417322834646,
          "duration": 0.5043099749999982
        },
        {
          "name": "C#4",
          "midi": 61,
          "time": 51.724100000000234,
          "velocity": 0.6299212598425197,
          "duration": 0.7586201333333307
        },
        {
          "name": "E4",
          "midi": 64,
          "time": 51.724100000000234,
          "velocity": 0.6299212598425197,
          "duration": 0.7672408166666642
        },
        {
          "name": "A4",
          "midi": 69,
          "time": 51.724100000000234,
          "velocity": 0.6299212598425197,
          "duration": 0.7758614999999978
        },
        {
          "name": "F#2",
          "midi": 42,
          "time": 51.724100000000234,
          "velocity": 0.6692913385826772,
          "duration": 0.7629304749999974
        },
        {
          "name": "C#3",
          "midi": 49,
          "time": 51.724100000000234,
          "velocity": 0.6692913385826772,
          "duration": 0.4999996333333314
        },
        {
          "name": "F#3",
          "midi": 54,
          "time": 51.724100000000234,
          "velocity": 0.6692913385826772,
          "duration": 0.5172409999999985
        },
        {
          "name": "E3",
          "midi": 52,
          "time": 51.724100000000234,
          "velocity": 0.5511811023622047,
          "duration": 0.7672408166666642
        },
        {
          "name": "A3",
          "midi": 57,
          "time": 51.724100000000234,
          "velocity": 0.5511811023622047,
          "duration": 0.7629304749999974
        },
        {
          "name": "C#4",
          "midi": 61,
          "time": 51.724100000000234,
          "velocity": 0.5511811023622047,
          "duration": 0.7586201333333307
        },
        {
          "name": "B1",
          "midi": 35,
          "time": 51.724100000000234,
          "velocity": 0.8503937007874016,
          "duration": 0.04310341666666773
        },
        {
          "name": "B3",
          "midi": 59,
          "time": 51.724100000000234,
          "velocity": 0.8503937007874016,
          "duration": 0.04310341666666773
        },
        {
          "name": "B3",
          "midi": 59,
          "time": 51.982720500000234,
          "velocity": 0.6929133858267716,
          "duration": 0.04310341666666773
        },
        {
          "name": "C#5",
          "midi": 73,
          "time": 52.24134100000023,
          "velocity": 0.7874015748031497,
          "duration": 0.25862049999999925
        },
        {
          "name": "C#5",
          "midi": 73,
          "time": 52.24134100000023,
          "velocity": 0.7874015748031497,
          "duration": 0.25862049999999925
        },
        {
          "name": "F#3",
          "midi": 54,
          "time": 52.24134100000023,
          "velocity": 0.7874015748031497,
          "duration": 0.24568947499999894
        },
        {
          "name": "F#2",
          "midi": 42,
          "time": 52.24134100000023,
          "velocity": 0.5905511811023622,
          "duration": 0.25862049999999925
        },
        {
          "name": "C#3",
          "midi": 49,
          "time": 52.24134100000023,
          "velocity": 0.5905511811023622,
          "duration": 0.2499998166666657
        },
        {
          "name": "F#3",
          "midi": 54,
          "time": 52.24134100000023,
          "velocity": 0.5905511811023622,
          "duration": 0.5172409999999985
        },
        {
          "name": "E2",
          "midi": 40,
          "time": 52.24134100000023,
          "velocity": 0.8582677165354331,
          "duration": 0.04310341666666773
        },
        {
          "name": "A#2",
          "midi": 46,
          "time": 52.24134100000023,
          "velocity": 0.8503937007874016,
          "duration": 0.04310341666666773
        },
        {
          "name": "B3",
          "midi": 59,
          "time": 52.24134100000023,
          "velocity": 0.7086614173228346,
          "duration": 0.04310341666666773
        },
        {
          "name": "D5",
          "midi": 74,
          "time": 52.49996150000023,
          "velocity": 0.7874015748031497,
          "duration": 0.25862049999999925
        },
        {
          "name": "D5",
          "midi": 74,
          "time": 52.49996150000023,
          "velocity": 0.7874015748031497,
          "duration": 0.25862049999999925
        },
        {
          "name": "B4",
          "midi": 71,
          "time": 52.49996150000023,
          "velocity": 0.7874015748031497,
          "duration": 0.7758615000000049
        },
        {
          "name": "D5",
          "midi": 74,
          "time": 52.49996150000023,
          "velocity": 0.7874015748031497,
          "duration": 0.7758615000000049
        },
        {
          "name": "F#5",
          "midi": 78,
          "time": 52.49996150000023,
          "velocity": 0.7874015748031497,
          "duration": 0.7758615000000049
        },
        {
          "name": "B2",
          "midi": 47,
          "time": 52.49996150000023,
          "velocity": 0.8740157480314961,
          "duration": 0.5172410000000056
        },
        {
          "name": "F#3",
          "midi": 54,
          "time": 52.49996150000023,
          "velocity": 0.6299212598425197,
          "duration": 0.5086203166666721
        },
        {
          "name": "A3",
          "midi": 57,
          "time": 52.49996150000023,
          "velocity": 0.6299212598425197,
          "duration": 0.5086203166666721
        },
        {
          "name": "D4",
          "midi": 62,
          "time": 52.49996150000023,
          "velocity": 0.6299212598425197,
          "duration": 0.4999996333333385
        },
        {
          "name": "B2",
          "midi": 47,
          "time": 52.49996150000023,
          "velocity": 0.5905511811023622,
          "duration": 0.7672408166666713
        },
        {
          "name": "F#3",
          "midi": 54,
          "time": 52.49996150000023,
          "velocity": 0.5905511811023622,
          "duration": 0.7629304750000045
        },
        {
          "name": "B3",
          "midi": 59,
          "time": 52.49996150000023,
          "velocity": 0.5905511811023622,
          "duration": 0.04310341666666773
        },
        {
          "name": "F#3",
          "midi": 54,
          "time": 52.49996150000023,
          "velocity": 0.6692913385826772,
          "duration": 0.7758615000000049
        },
        {
          "name": "A3",
          "midi": 57,
          "time": 52.49996150000023,
          "velocity": 0.6692913385826772,
          "duration": 1.0344820000000112
        },
        {
          "name": "D4",
          "midi": 62,
          "time": 52.49996150000023,
          "velocity": 0.6692913385826772,
          "duration": 1.2801714750000173
        },
        {
          "name": "B3",
          "midi": 59,
          "time": 52.49996150000023,
          "velocity": 0.7007874015748031,
          "duration": 0.301723916666667
        },
        {
          "name": "C#5",
          "midi": 73,
          "time": 52.75858200000023,
          "velocity": 0.7874015748031497,
          "duration": 0.12931025000000318
        },
        {
          "name": "C#5",
          "midi": 73,
          "time": 52.75858200000023,
          "velocity": 0.7874015748031497,
          "duration": 0.12931025000000318
        },
        {
          "name": "B3",
          "midi": 59,
          "time": 52.75858200000023,
          "velocity": 0.7874015748031497,
          "duration": 0.3017239166666741
        },
        {
          "name": "B1",
          "midi": 35,
          "time": 52.75858200000023,
          "velocity": 0.8503937007874016,
          "duration": 0.04310341666666773
        },
        {
          "name": "B3",
          "midi": 59,
          "time": 52.75858200000023,
          "velocity": 0.7086614173228346,
          "duration": 0.5086203166666721
        },
        {
          "name": "B4",
          "midi": 71,
          "time": 52.887892250000235,
          "velocity": 0.7874015748031497,
          "duration": 0.38793075000000243
        },
        {
          "name": "B4",
          "midi": 71,
          "time": 52.887892250000235,
          "velocity": 0.7874015748031497,
          "duration": 0.38793075000000243
        },
        {
          "name": "F#3",
          "midi": 54,
          "time": 53.01720250000024,
          "velocity": 0.7007874015748031,
          "duration": 0.7629304750000117
        },
        {
          "name": "F#3",
          "midi": 54,
          "time": 53.01720250000024,
          "velocity": 0.5511811023622047,
          "duration": 0.7629304750000117
        },
        {
          "name": "A3",
          "midi": 57,
          "time": 53.01720250000024,
          "velocity": 0.5511811023622047,
          "duration": 0.7672408166666784
        },
        {
          "name": "D4",
          "midi": 62,
          "time": 53.01720250000024,
          "velocity": 0.5511811023622047,
          "duration": 0.7672408166666784
        },
        {
          "name": "B3",
          "midi": 59,
          "time": 53.01720250000024,
          "velocity": 0.7007874015748031,
          "duration": 0.25862049999999925
        },
        {
          "name": "A4",
          "midi": 69,
          "time": 53.27582300000024,
          "velocity": 0.7874015748031497,
          "duration": 0.12931025000000318
        },
        {
          "name": "A4",
          "midi": 69,
          "time": 53.27582300000024,
          "velocity": 0.7874015748031497,
          "duration": 0.12931025000000318
        },
        {
          "name": "A5",
          "midi": 81,
          "time": 53.27582300000024,
          "velocity": 0.7874015748031497,
          "duration": 0.12931025000000318
        },
        {
          "name": "B3",
          "midi": 59,
          "time": 53.27582300000024,
          "velocity": 0.7874015748031497,
          "duration": 0.04310341666666773
        },
        {
          "name": "A3",
          "midi": 57,
          "time": 53.27582300000024,
          "velocity": 0.8740157480314961,
          "duration": 0.5086203166666792
        },
        {
          "name": "B2",
          "midi": 47,
          "time": 53.27582300000024,
          "velocity": 0.5905511811023622,
          "duration": 0.5086203166666792
        },
        {
          "name": "F#3",
          "midi": 54,
          "time": 53.27582300000024,
          "velocity": 0.5905511811023622,
          "duration": 0.5043099750000124
        },
        {
          "name": "B3",
          "midi": 59,
          "time": 53.27582300000024,
          "velocity": 0.5905511811023622,
          "duration": 0.3017239166666741
        },
        {
          "name": "E2",
          "midi": 40,
          "time": 53.27582300000024,
          "velocity": 0.8661417322834646,
          "duration": 0.04310341666666773
        },
        {
          "name": "F#2",
          "midi": 42,
          "time": 53.27582300000024,
          "velocity": 0.8582677165354331,
          "duration": 0.04310341666666773
        },
        {
          "name": "B3",
          "midi": 59,
          "time": 53.27582300000024,
          "velocity": 0.7165354330708661,
          "duration": 0.5043099750000124
        },
        {
          "name": "B4",
          "midi": 71,
          "time": 53.40513325000024,
          "velocity": 0.7874015748031497,
          "duration": 0.12931025000000318
        },
        {
          "name": "B4",
          "midi": 71,
          "time": 53.40513325000024,
          "velocity": 0.7874015748031497,
          "duration": 0.12931025000000318
        },
        {
          "name": "G5",
          "midi": 79,
          "time": 53.40513325000024,
          "velocity": 0.7874015748031497,
          "duration": 0.12931025000000318
        },
        {
          "name": "C#5",
          "midi": 73,
          "time": 53.53444350000024,
          "velocity": 0.7874015748031497,
          "duration": 0.12931025000000318
        },
        {
          "name": "C#5",
          "midi": 73,
          "time": 53.53444350000024,
          "velocity": 0.7874015748031497,
          "duration": 0.12931025000000318
        },
        {
          "name": "F#5",
          "midi": 78,
          "time": 53.53444350000024,
          "velocity": 0.7874015748031497,
          "duration": 0.12931025000000318
        },
        {
          "name": "F#3",
          "midi": 54,
          "time": 53.53444350000024,
          "velocity": 0.7086614173228346,
          "duration": 0.25862050000000636
        },
        {
          "name": "B1",
          "midi": 35,
          "time": 53.53444350000024,
          "velocity": 0.5354330708661418,
          "duration": 0.04310341666666773
        },
        {
          "name": "B3",
          "midi": 59,
          "time": 53.53444350000024,
          "velocity": 0.5275590551181102,
          "duration": 0.25862050000000636
        },
        {
          "name": "A4",
          "midi": 69,
          "time": 53.66375375000025,
          "velocity": 0.7874015748031497,
          "duration": 0.12931025000000318
        },
        {
          "name": "A4",
          "midi": 69,
          "time": 53.66375375000025,
          "velocity": 0.7874015748031497,
          "duration": 0.12931025000000318
        },
        {
          "name": "E5",
          "midi": 76,
          "time": 53.66375375000025,
          "velocity": 0.7874015748031497,
          "duration": 0.12931025000000318
        },
        {
          "name": "D5",
          "midi": 74,
          "time": 53.79306400000025,
          "velocity": 0.7874015748031497,
          "duration": 0.5172409999999985
        },
        {
          "name": "D5",
          "midi": 74,
          "time": 53.79306400000025,
          "velocity": 0.7874015748031497,
          "duration": 0.5172409999999985
        },
        {
          "name": "G4",
          "midi": 67,
          "time": 53.79306400000025,
          "velocity": 0.7874015748031497,
          "duration": 0.7758614999999978
        },
        {
          "name": "B4",
          "midi": 71,
          "time": 53.79306400000025,
          "velocity": 0.7874015748031497,
          "duration": 0.7758614999999978
        },
        {
          "name": "D5",
          "midi": 74,
          "time": 53.79306400000025,
          "velocity": 0.7874015748031497,
          "duration": 0.7758614999999978
        },
        {
          "name": "F#5",
          "midi": 78,
          "time": 53.79306400000025,
          "velocity": 0.7874015748031497,
          "duration": 0.7758614999999978
        },
        {
          "name": "E3",
          "midi": 52,
          "time": 53.79306400000025,
          "velocity": 0.7874015748031497,
          "duration": 0.4999996333333314
        },
        {
          "name": "E2",
          "midi": 40,
          "time": 53.79306400000025,
          "velocity": 0.8582677165354331,
          "duration": 0.24568947499999894
        },
        {
          "name": "G3",
          "midi": 55,
          "time": 53.79306400000025,
          "velocity": 0.6299212598425197,
          "duration": 0.7586201333333307
        },
        {
          "name": "B3",
          "midi": 59,
          "time": 53.79306400000025,
          "velocity": 0.6299212598425197,
          "duration": 0.04310341666666773
        },
        {
          "name": "D4",
          "midi": 62,
          "time": 53.79306400000025,
          "velocity": 0.6299212598425197,
          "duration": 0.7586201333333307
        },
        {
          "name": "F#4",
          "midi": 66,
          "time": 53.79306400000025,
          "velocity": 0.6299212598425197,
          "duration": 0.7629304749999974
        },
        {
          "name": "E2",
          "midi": 40,
          "time": 53.79306400000025,
          "velocity": 0.6692913385826772,
          "duration": 0.4999996333333314
        },
        {
          "name": "B2",
          "midi": 47,
          "time": 53.79306400000025,
          "velocity": 0.6692913385826772,
          "duration": 0.5043099749999982
        },
        {
          "name": "E3",
          "midi": 52,
          "time": 53.79306400000025,
          "velocity": 0.6692913385826772,
          "duration": 0.5172409999999985
        },
        {
          "name": "D3",
          "midi": 50,
          "time": 53.79306400000025,
          "velocity": 0.5511811023622047,
          "duration": 0.7672408166666642
        },
        {
          "name": "F#3",
          "midi": 54,
          "time": 53.79306400000025,
          "velocity": 0.5511811023622047,
          "duration": 0.7672408166666642
        },
        {
          "name": "G3",
          "midi": 55,
          "time": 53.79306400000025,
          "velocity": 0.5511811023622047,
          "duration": 0.7672408166666642
        },
        {
          "name": "B3",
          "midi": 59,
          "time": 53.79306400000025,
          "velocity": 0.5511811023622047,
          "duration": 0.301723916666667
        },
        {
          "name": "B1",
          "midi": 35,
          "time": 53.79306400000025,
          "velocity": 0.8503937007874016,
          "duration": 0.04310341666666773
        },
        {
          "name": "B3",
          "midi": 59,
          "time": 53.79306400000025,
          "velocity": 0.8661417322834646,
          "duration": 0.5603444166666662
        },
        {
          "name": "F#2",
          "midi": 42,
          "time": 54.05168450000025,
          "velocity": 0.6929133858267716,
          "duration": 0.25862049999999925
        },
        {
          "name": "B3",
          "midi": 59,
          "time": 54.05168450000025,
          "velocity": 0.7086614173228346,
          "duration": 0.4999996333333314
        },
        {
          "name": "E5",
          "midi": 76,
          "time": 54.31030500000025,
          "velocity": 0.7874015748031497,
          "duration": 0.25862049999999925
        },
        {
          "name": "E5",
          "midi": 76,
          "time": 54.31030500000025,
          "velocity": 0.7874015748031497,
          "duration": 0.25862049999999925
        },
        {
          "name": "E3",
          "midi": 52,
          "time": 54.31030500000025,
          "velocity": 0.7874015748031497,
          "duration": 0.2499998166666657
        },
        {
          "name": "G2",
          "midi": 43,
          "time": 54.31030500000025,
          "velocity": 0.7165354330708661,
          "duration": 0.25862049999999925
        },
        {
          "name": "E2",
          "midi": 40,
          "time": 54.31030500000025,
          "velocity": 0.5905511811023622,
          "duration": 0.04310341666666773
        },
        {
          "name": "B2",
          "midi": 47,
          "time": 54.31030500000025,
          "velocity": 0.5905511811023622,
          "duration": 0.24137913333333216
        },
        {
          "name": "E3",
          "midi": 52,
          "time": 54.31030500000025,
          "velocity": 0.5905511811023622,
          "duration": 0.5172409999999985
        },
        {
          "name": "E2",
          "midi": 40,
          "time": 54.31030500000025,
          "velocity": 0.8503937007874016,
          "duration": 0.2499998166666657
        },
        {
          "name": "F#2",
          "midi": 42,
          "time": 54.31030500000025,
          "velocity": 0.8661417322834646,
          "duration": 0.04310341666666773
        },
        {
          "name": "B3",
          "midi": 59,
          "time": 54.31030500000025,
          "velocity": 0.7165354330708661,
          "duration": 0.2499998166666657
        },
        {
          "name": "C#5",
          "midi": 73,
          "time": 54.56892550000025,
          "velocity": 0.7874015748031497,
          "duration": 0.38793075000000243
        },
        {
          "name": "C#5",
          "midi": 73,
          "time": 54.56892550000025,
          "velocity": 0.7874015748031497,
          "duration": 0.38793075000000243
        },
        {
          "name": "A4",
          "midi": 69,
          "time": 54.56892550000025,
          "velocity": 0.7874015748031497,
          "duration": 0.7758615000000049
        },
        {
          "name": "C#5",
          "midi": 73,
          "time": 54.56892550000025,
          "velocity": 0.7874015748031497,
          "duration": 0.7758615000000049
        },
        {
          "name": "E5",
          "midi": 76,
          "time": 54.56892550000025,
          "velocity": 0.7874015748031497,
          "duration": 0.7758615000000049
        },
        {
          "name": "A2",
          "midi": 45,
          "time": 54.56892550000025,
          "velocity": 0.8740157480314961,
          "duration": 0.5172410000000056
        },
        {
          "name": "A3",
          "midi": 57,
          "time": 54.56892550000025,
          "velocity": 0.5511811023622047,
          "duration": 0.5043099750000053
        },
        {
          "name": "C#4",
          "midi": 61,
          "time": 54.56892550000025,
          "velocity": 0.5511811023622047,
          "duration": 0.4999996333333385
        },
        {
          "name": "E4",
          "midi": 64,
          "time": 54.56892550000025,
          "velocity": 0.5511811023622047,
          "duration": 1.280171475000003
        },
        {
          "name": "A2",
          "midi": 45,
          "time": 54.56892550000025,
          "velocity": 0.6692913385826772,
          "duration": 1.2844818166666698
        },
        {
          "name": "E3",
          "midi": 52,
          "time": 54.56892550000025,
          "velocity": 0.6692913385826772,
          "duration": 0.4999996333333385
        },
        {
          "name": "A3",
          "midi": 57,
          "time": 54.56892550000025,
          "velocity": 0.6692913385826772,
          "duration": 0.7758615000000049
        },
        {
          "name": "E3",
          "midi": 52,
          "time": 54.56892550000025,
          "velocity": 0.6692913385826772,
          "duration": 0.7758615000000049
        },
        {
          "name": "A3",
          "midi": 57,
          "time": 54.56892550000025,
          "velocity": 0.6692913385826772,
          "duration": 1.0258613166666706
        },
        {
          "name": "C#4",
          "midi": 61,
          "time": 54.56892550000025,
          "velocity": 0.6692913385826772,
          "duration": 1.0258613166666706
        },
        {
          "name": "B1",
          "midi": 35,
          "time": 54.56892550000025,
          "velocity": 0.5433070866141733,
          "duration": 0.04310341666666773
        },
        {
          "name": "B3",
          "midi": 59,
          "time": 54.56892550000025,
          "velocity": 0.5433070866141733,
          "duration": 0.04310341666666773
        },
        {
          "name": "A3",
          "midi": 57,
          "time": 54.82754600000025,
          "velocity": 0.7874015748031497,
          "duration": 1.017240633333337
        },
        {
          "name": "B1",
          "midi": 35,
          "time": 54.82754600000025,
          "velocity": 0.8503937007874016,
          "duration": 0.04310341666666773
        },
        {
          "name": "B3",
          "midi": 59,
          "time": 54.82754600000025,
          "velocity": 0.8582677165354331,
          "duration": 0.04310341666666773
        },
        {
          "name": "B4",
          "midi": 71,
          "time": 54.95685625000025,
          "velocity": 0.7874015748031497,
          "duration": 0.12931025000000318
        },
        {
          "name": "B4",
          "midi": 71,
          "time": 54.95685625000025,
          "velocity": 0.7874015748031497,
          "duration": 0.12931025000000318
        },
        {
          "name": "A4",
          "midi": 69,
          "time": 55.08616650000025,
          "velocity": 0.7874015748031497,
          "duration": 0.25862049999999925
        },
        {
          "name": "A4",
          "midi": 69,
          "time": 55.08616650000025,
          "velocity": 0.7874015748031497,
          "duration": 0.25862049999999925
        },
        {
          "name": "E3",
          "midi": 52,
          "time": 55.08616650000025,
          "velocity": 0.7086614173228346,
          "duration": 0.5043099749999982
        },
        {
          "name": "E3",
          "midi": 52,
          "time": 55.08616650000025,
          "velocity": 0.5511811023622047,
          "duration": 0.7586201333333307
        },
        {
          "name": "A3",
          "midi": 57,
          "time": 55.08616650000025,
          "velocity": 0.5511811023622047,
          "duration": 0.7629304749999974
        },
        {
          "name": "C#4",
          "midi": 61,
          "time": 55.08616650000025,
          "velocity": 0.5511811023622047,
          "duration": 0.7586201333333307
        },
        {
          "name": "B3",
          "midi": 59,
          "time": 55.08616650000025,
          "velocity": 0.7165354330708661,
          "duration": 0.04310341666666773
        },
        {
          "name": "A4",
          "midi": 69,
          "time": 55.34478700000025,
          "velocity": 0.7874015748031497,
          "duration": 0.5172409999999985
        },
        {
          "name": "A3",
          "midi": 57,
          "time": 55.34478700000025,
          "velocity": 0.7874015748031497,
          "duration": 0.508620316666665
        },
        {
          "name": "F#3",
          "midi": 54,
          "time": 55.34478700000025,
          "velocity": 0.8503937007874016,
          "duration": 0.25862049999999925
        },
        {
          "name": "E2",
          "midi": 40,
          "time": 55.34478700000025,
          "velocity": 0.8503937007874016,
          "duration": 0.04310341666666773
        },
        {
          "name": "F#2",
          "midi": 42,
          "time": 55.34478700000025,
          "velocity": 0.8661417322834646,
          "duration": 0.04310341666666773
        },
        {
          "name": "B3",
          "midi": 59,
          "time": 55.34478700000025,
          "velocity": 0.7165354330708661,
          "duration": 0.04310341666666773
        },
        {
          "name": "A4",
          "midi": 69,
          "time": 55.60340750000025,
          "velocity": 0.7874015748031497,
          "duration": 0.25862049999999925
        },
        {
          "name": "A4",
          "midi": 69,
          "time": 55.60340750000025,
          "velocity": 0.7874015748031497,
          "duration": 0.25862049999999925
        },
        {
          "name": "E3",
          "midi": 52,
          "time": 55.60340750000025,
          "velocity": 0.6929133858267716,
          "duration": 0.2499998166666657
        },
        {
          "name": "E3",
          "midi": 52,
          "time": 55.60340750000025,
          "velocity": 0.5511811023622047,
          "duration": 0.25862049999999925
        },
        {
          "name": "A3",
          "midi": 57,
          "time": 55.60340750000025,
          "velocity": 0.5511811023622047,
          "duration": 0.25862049999999925
        },
        {
          "name": "C#4",
          "midi": 61,
          "time": 55.60340750000025,
          "velocity": 0.5511811023622047,
          "duration": 0.2499998166666657
        },
        {
          "name": "B1",
          "midi": 35,
          "time": 55.60340750000025,
          "velocity": 0.5433070866141733,
          "duration": 0.04310341666666773
        },
        {
          "name": "B3",
          "midi": 59,
          "time": 55.60340750000025,
          "velocity": 0.5669291338582677,
          "duration": 0.04310341666666773
        },
        {
          "name": "E5",
          "midi": 76,
          "time": 55.86202800000025,
          "velocity": 0.7874015748031497,
          "duration": 0.25862050000000636
        },
        {
          "name": "E5",
          "midi": 76,
          "time": 55.86202800000025,
          "velocity": 0.7874015748031497,
          "duration": 0.25862050000000636
        },
        {
          "name": "E5",
          "midi": 76,
          "time": 55.86202800000025,
          "velocity": 0.7874015748031497,
          "duration": 0.25862050000000636
        },
        {
          "name": "A4",
          "midi": 69,
          "time": 55.86202800000025,
          "velocity": 0.7874015748031497,
          "duration": 0.7586201333333449
        },
        {
          "name": "C#5",
          "midi": 73,
          "time": 55.86202800000025,
          "velocity": 0.7874015748031497,
          "duration": 0.775861500000012
        },
        {
          "name": "F#3",
          "midi": 54,
          "time": 55.86202800000025,
          "velocity": 0.7874015748031497,
          "duration": 0.5086203166666792
        },
        {
          "name": "F#2",
          "midi": 42,
          "time": 55.86202800000025,
          "velocity": 0.8740157480314961,
          "duration": 0.5043099750000124
        },
        {
          "name": "C#4",
          "midi": 61,
          "time": 55.86202800000025,
          "velocity": 0.6299212598425197,
          "duration": 0.7586201333333449
        },
        {
          "name": "E4",
          "midi": 64,
          "time": 55.86202800000025,
          "velocity": 0.6299212598425197,
          "duration": 0.7629304750000117
        },
        {
          "name": "A4",
          "midi": 69,
          "time": 55.86202800000025,
          "velocity": 0.6299212598425197,
          "duration": 0.775861500000012
        },
        {
          "name": "F#2",
          "midi": 42,
          "time": 55.86202800000025,
          "velocity": 0.6692913385826772,
          "duration": 0.7586201333333449
        },
        {
          "name": "C#3",
          "midi": 49,
          "time": 55.86202800000025,
          "velocity": 0.6692913385826772,
          "duration": 0.49999963333334563
        },
        {
          "name": "F#3",
          "midi": 54,
          "time": 55.86202800000025,
          "velocity": 0.6692913385826772,
          "duration": 0.5172410000000127
        },
        {
          "name": "E3",
          "midi": 52,
          "time": 55.86202800000025,
          "velocity": 0.5511811023622047,
          "duration": 0.7586201333333449
        },
        {
          "name": "A3",
          "midi": 57,
          "time": 55.86202800000025,
          "velocity": 0.5511811023622047,
          "duration": 0.7586201333333449
        },
        {
          "name": "C#4",
          "midi": 61,
          "time": 55.86202800000025,
          "velocity": 0.5511811023622047,
          "duration": 0.7672408166666784
        },
        {
          "name": "E2",
          "midi": 40,
          "time": 55.86202800000025,
          "velocity": 0.8740157480314961,
          "duration": 0.04310341666666773
        },
        {
          "name": "E2",
          "midi": 40,
          "time": 55.991338250000254,
          "velocity": 0.6929133858267716,
          "duration": 0.04310341666666773
        },
        {
          "name": "D5",
          "midi": 74,
          "time": 56.12064850000026,
          "velocity": 0.7874015748031497,
          "duration": 0.25862050000000636
        },
        {
          "name": "D5",
          "midi": 74,
          "time": 56.12064850000026,
          "velocity": 0.7874015748031497,
          "duration": 0.25862050000000636
        },
        {
          "name": "F#5",
          "midi": 78,
          "time": 56.12064850000026,
          "velocity": 0.7874015748031497,
          "duration": 0.25862050000000636
        },
        {
          "name": "E2",
          "midi": 40,
          "time": 56.12064850000026,
          "velocity": 0.33858267716535434,
          "duration": 0.04310341666666773
        },
        {
          "name": "E2",
          "midi": 40,
          "time": 56.24995875000026,
          "velocity": 0.5511811023622047,
          "duration": 0.04310341666666773
        },
        {
          "name": "D5",
          "midi": 74,
          "time": 56.379269000000264,
          "velocity": 0.7874015748031497,
          "duration": 0.5172410000000056
        },
        {
          "name": "D5",
          "midi": 74,
          "time": 56.379269000000264,
          "velocity": 0.7874015748031497,
          "duration": 0.5172410000000056
        },
        {
          "name": "F#5",
          "midi": 78,
          "time": 56.379269000000264,
          "velocity": 0.7874015748031497,
          "duration": 0.25862049999999925
        },
        {
          "name": "B3",
          "midi": 59,
          "time": 56.379269000000264,
          "velocity": 0.7874015748031497,
          "duration": 0.5172410000000056
        },
        {
          "name": "F#2",
          "midi": 42,
          "time": 56.379269000000264,
          "velocity": 0.5905511811023622,
          "duration": 0.25862049999999925
        },
        {
          "name": "C#3",
          "midi": 49,
          "time": 56.379269000000264,
          "velocity": 0.5905511811023622,
          "duration": 0.2499998166666657
        },
        {
          "name": "F#3",
          "midi": 54,
          "time": 56.379269000000264,
          "velocity": 0.5905511811023622,
          "duration": 0.24568947499999894
        },
        {
          "name": "E2",
          "midi": 40,
          "time": 56.379269000000264,
          "velocity": 0.8740157480314961,
          "duration": 0.04310341666666773
        },
        {
          "name": "E2",
          "midi": 40,
          "time": 56.42237241666693,
          "velocity": 0.7165354330708661,
          "duration": 0.04310341666666773
        },
        {
          "name": "F#4",
          "midi": 66,
          "time": 56.63788950000026,
          "velocity": 0.7874015748031497,
          "duration": 1.2844818166666983
        },
        {
          "name": "A4",
          "midi": 69,
          "time": 56.63788950000026,
          "velocity": 0.7874015748031497,
          "duration": 1.2931025000000318
        },
        {
          "name": "D5",
          "midi": 74,
          "time": 56.63788950000026,
          "velocity": 0.7874015748031497,
          "duration": 1.2931025000000318
        },
        {
          "name": "A2",
          "midi": 45,
          "time": 56.63788950000026,
          "velocity": 0.8661417322834646,
          "duration": 0.5172410000000127
        },
        {
          "name": "A3",
          "midi": 57,
          "time": 56.63788950000026,
          "velocity": 0.6299212598425197,
          "duration": 0.5043099750000124
        },
        {
          "name": "D4",
          "midi": 62,
          "time": 56.63788950000026,
          "velocity": 0.6299212598425197,
          "duration": 0.5043099750000124
        },
        {
          "name": "F#4",
          "midi": 66,
          "time": 56.63788950000026,
          "velocity": 0.6299212598425197,
          "duration": 1.2931025000000318
        },
        {
          "name": "D3",
          "midi": 50,
          "time": 56.63788950000026,
          "velocity": 0.5905511811023622,
          "duration": 0.7672408166666855
        },
        {
          "name": "A3",
          "midi": 57,
          "time": 56.63788950000026,
          "velocity": 0.5905511811023622,
          "duration": 0.5172410000000127
        },
        {
          "name": "D4",
          "midi": 62,
          "time": 56.63788950000026,
          "velocity": 0.5905511811023622,
          "duration": 0.7629304750000188
        },
        {
          "name": "F#3",
          "midi": 54,
          "time": 56.63788950000026,
          "velocity": 0.6692913385826772,
          "duration": 0.5043099750000124
        },
        {
          "name": "A3",
          "midi": 57,
          "time": 56.63788950000026,
          "velocity": 0.6692913385826772,
          "duration": 0.7672408166666855
        },
        {
          "name": "D4",
          "midi": 62,
          "time": 56.63788950000026,
          "velocity": 0.6692913385826772,
          "duration": 1.2758611333333647
        },
        {
          "name": "B1",
          "midi": 35,
          "time": 56.63788950000026,
          "velocity": 0.7165354330708661,
          "duration": 0.04310341666666773
        },
        {
          "name": "E2",
          "midi": 40,
          "time": 56.767199750000266,
          "velocity": 0.36220472440944884,
          "duration": 0.04310341666666773
        },
        {
          "name": "A3",
          "midi": 57,
          "time": 56.89651000000027,
          "velocity": 0.7874015748031497,
          "duration": 0.5172410000000127
        },
        {
          "name": "E2",
          "midi": 40,
          "time": 56.89651000000027,
          "velocity": 0.8503937007874016,
          "duration": 0.04310341666666773
        },
        {
          "name": "E2",
          "midi": 40,
          "time": 57.02582025000027,
          "velocity": 0.7165354330708661,
          "duration": 0.04310341666666773
        },
        {
          "name": "A3",
          "midi": 57,
          "time": 57.155130500000276,
          "velocity": 0.7874015748031497,
          "duration": 0.5172410000000127
        },
        {
          "name": "E3",
          "midi": 52,
          "time": 57.155130500000276,
          "velocity": 0.7165354330708661,
          "duration": 0.25862050000000636
        },
        {
          "name": "F#3",
          "midi": 54,
          "time": 57.155130500000276,
          "velocity": 0.5511811023622047,
          "duration": 0.5172410000000127
        },
        {
          "name": "A3",
          "midi": 57,
          "time": 57.155130500000276,
          "velocity": 0.5511811023622047,
          "duration": 0.758620133333352
        },
        {
          "name": "D4",
          "midi": 62,
          "time": 57.155130500000276,
          "velocity": 0.5511811023622047,
          "duration": 0.7629304750000188
        },
        {
          "name": "E2",
          "midi": 40,
          "time": 57.155130500000276,
          "velocity": 0.3464566929133858,
          "duration": 0.04310341666666773
        },
        {
          "name": "E2",
          "midi": 40,
          "time": 57.28444075000028,
          "velocity": 0.8740157480314961,
          "duration": 0.04310341666666773
        },
        {
          "name": "A3",
          "midi": 57,
          "time": 57.41375100000028,
          "velocity": 0.7874015748031497,
          "duration": 0.5043099750000124
        },
        {
          "name": "F#3",
          "midi": 54,
          "time": 57.41375100000028,
          "velocity": 0.8582677165354331,
          "duration": 0.5086203166666792
        },
        {
          "name": "D3",
          "midi": 50,
          "time": 57.41375100000028,
          "velocity": 0.5905511811023622,
          "duration": 0.5086203166666792
        },
        {
          "name": "A3",
          "midi": 57,
          "time": 57.41375100000028,
          "velocity": 0.5905511811023622,
          "duration": 0.5043099750000124
        },
        {
          "name": "D4",
          "midi": 62,
          "time": 57.41375100000028,
          "velocity": 0.5905511811023622,
          "duration": 0.5043099750000124
        },
        {
          "name": "E2",
          "midi": 40,
          "time": 57.41375100000028,
          "velocity": 0.5354330708661418,
          "duration": 0.04310341666666773
        },
        {
          "name": "E2",
          "midi": 40,
          "time": 57.543061250000285,
          "velocity": 0.3543307086614173,
          "duration": 0.04310341666666773
        },
        {
          "name": "A3",
          "midi": 57,
          "time": 57.67237150000029,
          "velocity": 0.7874015748031497,
          "duration": 0.25862050000000636
        },
        {
          "name": "A3",
          "midi": 57,
          "time": 57.67237150000029,
          "velocity": 0.7086614173228346,
          "duration": 0.25862050000000636
        },
        {
          "name": "B1",
          "midi": 35,
          "time": 57.67237150000029,
          "velocity": 0.7086614173228346,
          "duration": 0.04310341666666773
        },
        {
          "name": "E2",
          "midi": 40,
          "time": 57.80168175000029,
          "velocity": 0.5433070866141733,
          "duration": 0.04310341666666773
        },
        {
          "name": "A3",
          "midi": 57,
          "time": 57.92668165833363,
          "velocity": 0.8740157480314961,
          "duration": 0.004310341666666773
        },
        {
          "name": "G4",
          "midi": 67,
          "time": 57.930992000000295,
          "velocity": 0.7874015748031497,
          "duration": 2.068963999999994
        },
        {
          "name": "B4",
          "midi": 71,
          "time": 57.930992000000295,
          "velocity": 0.7874015748031497,
          "duration": 2.068963999999994
        },
        {
          "name": "D5",
          "midi": 74,
          "time": 57.930992000000295,
          "velocity": 0.7874015748031497,
          "duration": 0.5172409999999985
        },
        {
          "name": "F#5",
          "midi": 78,
          "time": 57.930992000000295,
          "velocity": 0.7874015748031497,
          "duration": 2.068963999999994
        },
        {
          "name": "B3",
          "midi": 59,
          "time": 57.930992000000295,
          "velocity": 0.7874015748031497,
          "duration": 0.04310341666666773
        },
        {
          "name": "G2",
          "midi": 43,
          "time": 57.930992000000295,
          "velocity": 0.8740157480314961,
          "duration": 0.4999996333333314
        },
        {
          "name": "F#3",
          "midi": 54,
          "time": 57.930992000000295,
          "velocity": 0.6299212598425197,
          "duration": 0.7629304749999974
        },
        {
          "name": "B3",
          "midi": 59,
          "time": 57.930992000000295,
          "velocity": 0.6299212598425197,
          "duration": 0.301723916666667
        },
        {
          "name": "D4",
          "midi": 62,
          "time": 57.930992000000295,
          "velocity": 0.6299212598425197,
          "duration": 1.034481999999997
        },
        {
          "name": "G2",
          "midi": 43,
          "time": 57.930992000000295,
          "velocity": 0.6692913385826772,
          "duration": 0.7672408166666642
        },
        {
          "name": "D3",
          "midi": 50,
          "time": 57.930992000000295,
          "velocity": 0.6692913385826772,
          "duration": 0.5043099749999982
        },
        {
          "name": "G3",
          "midi": 55,
          "time": 57.930992000000295,
          "velocity": 0.6692913385826772,
          "duration": 0.5043099749999982
        },
        {
          "name": "D3",
          "midi": 50,
          "time": 57.930992000000295,
          "velocity": 0.5511811023622047,
          "duration": 0.7629304749999974
        },
        {
          "name": "F#3",
          "midi": 54,
          "time": 57.930992000000295,
          "velocity": 0.5511811023622047,
          "duration": 1.280171474999996
        },
        {
          "name": "B3",
          "midi": 59,
          "time": 57.930992000000295,
          "velocity": 0.5511811023622047,
          "duration": 0.5172409999999985
        },
        {
          "name": "B1",
          "midi": 35,
          "time": 57.930992000000295,
          "velocity": 0.8661417322834646,
          "duration": 0.04310341666666773
        },
        {
          "name": "B3",
          "midi": 59,
          "time": 57.930992000000295,
          "velocity": 0.8740157480314961,
          "duration": 0.5603444166666662
        },
        {
          "name": "D5",
          "midi": 74,
          "time": 58.189612500000294,
          "velocity": 0.7874015748031497,
          "duration": 0.25862049999999925
        },
        {
          "name": "D5",
          "midi": 74,
          "time": 58.189612500000294,
          "velocity": 0.7874015748031497,
          "duration": 0.5172409999999985
        },
        {
          "name": "B3",
          "midi": 59,
          "time": 58.189612500000294,
          "velocity": 0.6929133858267716,
          "duration": 0.4999996333333314
        },
        {
          "name": "D5",
          "midi": 74,
          "time": 58.44823300000029,
          "velocity": 0.7874015748031497,
          "duration": 0.25862049999999925
        },
        {
          "name": "D5",
          "midi": 74,
          "time": 58.44823300000029,
          "velocity": 0.7874015748031497,
          "duration": 0.7758614999999978
        },
        {
          "name": "D4",
          "midi": 62,
          "time": 58.44823300000029,
          "velocity": 0.7874015748031497,
          "duration": 1.5344816333333284
        },
        {
          "name": "G2",
          "midi": 43,
          "time": 58.44823300000029,
          "velocity": 0.5905511811023622,
          "duration": 0.25862049999999925
        },
        {
          "name": "D3",
          "midi": 50,
          "time": 58.44823300000029,
          "velocity": 0.5905511811023622,
          "duration": 0.24568947499999894
        },
        {
          "name": "G3",
          "midi": 55,
          "time": 58.44823300000029,
          "velocity": 0.5905511811023622,
          "duration": 0.24137913333333216
        },
        {
          "name": "E2",
          "midi": 40,
          "time": 58.44823300000029,
          "velocity": 0.8661417322834646,
          "duration": 0.04310341666666773
        },
        {
          "name": "F#2",
          "midi": 42,
          "time": 58.44823300000029,
          "velocity": 0.8582677165354331,
          "duration": 0.04310341666666773
        },
        {
          "name": "B3",
          "midi": 59,
          "time": 58.44823300000029,
          "velocity": 0.7086614173228346,
          "duration": 0.301723916666667
        },
        {
          "name": "C#5",
          "midi": 73,
          "time": 58.70685350000029,
          "velocity": 0.7874015748031497,
          "duration": 0.25862049999999925
        },
        {
          "name": "C#5",
          "midi": 73,
          "time": 58.70685350000029,
          "velocity": 0.7874015748031497,
          "duration": 0.25862049999999925
        },
        {
          "name": "B2",
          "midi": 47,
          "time": 58.70685350000029,
          "velocity": 0.8740157480314961,
          "duration": 0.5172409999999985
        },
        {
          "name": "G2",
          "midi": 43,
          "time": 58.70685350000029,
          "velocity": 0.5905511811023622,
          "duration": 0.7586201333333307
        },
        {
          "name": "D3",
          "midi": 50,
          "time": 58.70685350000029,
          "velocity": 0.5905511811023622,
          "duration": 0.508620316666665
        },
        {
          "name": "G3",
          "midi": 55,
          "time": 58.70685350000029,
          "velocity": 0.5905511811023622,
          "duration": 0.7629304749999974
        },
        {
          "name": "D3",
          "midi": 50,
          "time": 58.70685350000029,
          "velocity": 0.6692913385826772,
          "duration": 0.7629304749999974
        },
        {
          "name": "F#3",
          "midi": 54,
          "time": 58.70685350000029,
          "velocity": 0.6692913385826772,
          "duration": 1.2758611333333292
        },
        {
          "name": "B3",
          "midi": 59,
          "time": 58.70685350000029,
          "velocity": 0.6692913385826772,
          "duration": 0.301723916666667
        },
        {
          "name": "B1",
          "midi": 35,
          "time": 58.70685350000029,
          "velocity": 0.5354330708661418,
          "duration": 0.04310341666666773
        },
        {
          "name": "B3",
          "midi": 59,
          "time": 58.70685350000029,
          "velocity": 0.7007874015748031,
          "duration": 0.5043099749999982
        },
        {
          "name": "D5",
          "midi": 74,
          "time": 58.96547400000029,
          "velocity": 0.7874015748031497,
          "duration": 0.25862049999999925
        },
        {
          "name": "D5",
          "midi": 74,
          "time": 58.96547400000029,
          "velocity": 0.7874015748031497,
          "duration": 1.034481999999997
        },
        {
          "name": "B3",
          "midi": 59,
          "time": 58.96547400000029,
          "velocity": 0.7874015748031497,
          "duration": 0.25862049999999925
        },
        {
          "name": "B1",
          "midi": 35,
          "time": 58.96547400000029,
          "velocity": 0.8740157480314961,
          "duration": 0.04310341666666773
        },
        {
          "name": "B3",
          "midi": 59,
          "time": 58.96547400000029,
          "velocity": 0.7086614173228346,
          "duration": 0.301723916666667
        },
        {
          "name": "E5",
          "midi": 76,
          "time": 59.22409450000029,
          "velocity": 0.7874015748031497,
          "duration": 0.25862049999999925
        },
        {
          "name": "E5",
          "midi": 76,
          "time": 59.22409450000029,
          "velocity": 0.7874015748031497,
          "duration": 0.25862049999999925
        },
        {
          "name": "B3",
          "midi": 59,
          "time": 59.22409450000029,
          "velocity": 0.7874015748031497,
          "duration": 0.25862049999999925
        },
        {
          "name": "D3",
          "midi": 50,
          "time": 59.22409450000029,
          "velocity": 0.7086614173228346,
          "duration": 0.25862049999999925
        },
        {
          "name": "D3",
          "midi": 50,
          "time": 59.22409450000029,
          "velocity": 0.5511811023622047,
          "duration": 0.7586201333333307
        },
        {
          "name": "F#3",
          "midi": 54,
          "time": 59.22409450000029,
          "velocity": 0.5511811023622047,
          "duration": 0.7672408166666642
        },
        {
          "name": "B3",
          "midi": 59,
          "time": 59.22409450000029,
          "velocity": 0.5511811023622047,
          "duration": 0.301723916666667
        },
        {
          "name": "B3",
          "midi": 59,
          "time": 59.22409450000029,
          "velocity": 0.7007874015748031,
          "duration": 0.5603444166666662
        },
        {
          "name": "E3",
          "midi": 52,
          "time": 59.48271500000029,
          "velocity": 0.8740157480314961,
          "duration": 0.25862049999999925
        },
        {
          "name": "G2",
          "midi": 43,
          "time": 59.48271500000029,
          "velocity": 0.5905511811023622,
          "duration": 0.5043099749999982
        },
        {
          "name": "D3",
          "midi": 50,
          "time": 59.48271500000029,
          "velocity": 0.5905511811023622,
          "duration": 0.5043099749999982
        },
        {
          "name": "G3",
          "midi": 55,
          "time": 59.48271500000029,
          "velocity": 0.5905511811023622,
          "duration": 0.4999996333333314
        },
        {
          "name": "E2",
          "midi": 40,
          "time": 59.48271500000029,
          "velocity": 0.8661417322834646,
          "duration": 0.04310341666666773
        },
        {
          "name": "F#2",
          "midi": 42,
          "time": 59.48271500000029,
          "velocity": 0.8661417322834646,
          "duration": 0.04310341666666773
        },
        {
          "name": "B3",
          "midi": 59,
          "time": 59.48271500000029,
          "velocity": 0.7007874015748031,
          "duration": 0.5043099749999982
        },
        {
          "name": "F#3",
          "midi": 54,
          "time": 59.74133550000029,
          "velocity": 0.7874015748031497,
          "duration": 0.25862049999999925
        },
        {
          "name": "G3",
          "midi": 55,
          "time": 59.74133550000029,
          "velocity": 0.7165354330708661,
          "duration": 0.25862049999999925
        },
        {
          "name": "B3",
          "midi": 59,
          "time": 59.74133550000029,
          "velocity": 0.5511811023622047,
          "duration": 0.2499998166666657
        },
        {
          "name": "A4",
          "midi": 69,
          "time": 59.99995600000029,
          "velocity": 0.7874015748031497,
          "duration": 1.5517230000000026
        },
        {
          "name": "C#5",
          "midi": 73,
          "time": 59.99995600000029,
          "velocity": 0.7874015748031497,
          "duration": 0.5172409999999985
        },
        {
          "name": "E5",
          "midi": 76,
          "time": 59.99995600000029,
          "velocity": 0.7874015748031497,
          "duration": 2.068964000000001
        },
        {
          "name": "B3",
          "midi": 59,
          "time": 59.99995600000029,
          "velocity": 0.7874015748031497,
          "duration": 0.04310341666666773
        },
        {
          "name": "B2",
          "midi": 47,
          "time": 59.99995600000029,
          "velocity": 0.8661417322834646,
          "duration": 0.7758614999999978
        },
        {
          "name": "A3",
          "midi": 57,
          "time": 59.99995600000029,
          "velocity": 0.6299212598425197,
          "duration": 0.508620316666665
        },
        {
          "name": "C#4",
          "midi": 61,
          "time": 59.99995600000029,
          "velocity": 0.6299212598425197,
          "duration": 0.7672408166666642
        },
        {
          "name": "E4",
          "midi": 64,
          "time": 59.99995600000029,
          "velocity": 0.6299212598425197,
          "duration": 1.017240633333337
        },
        {
          "name": "A2",
          "midi": 45,
          "time": 59.99995600000029,
          "velocity": 0.6692913385826772,
          "duration": 0.4999996333333314
        },
        {
          "name": "E3",
          "midi": 52,
          "time": 59.99995600000029,
          "velocity": 0.6692913385826772,
          "duration": 0.5043099749999982
        },
        {
          "name": "A3",
          "midi": 57,
          "time": 59.99995600000029,
          "velocity": 0.6692913385826772,
          "duration": 0.7672408166666642
        },
        {
          "name": "E3",
          "midi": 52,
          "time": 59.99995600000029,
          "velocity": 0.5511811023622047,
          "duration": 0.7629304749999974
        },
        {
          "name": "A3",
          "midi": 57,
          "time": 59.99995600000029,
          "velocity": 0.5511811023622047,
          "duration": 1.017240633333337
        },
        {
          "name": "C#4",
          "midi": 61,
          "time": 59.99995600000029,
          "velocity": 0.5511811023622047,
          "duration": 1.0215509750000038
        },
        {
          "name": "B1",
          "midi": 35,
          "time": 59.99995600000029,
          "velocity": 0.8740157480314961,
          "duration": 0.04310341666666773
        },
        {
          "name": "B3",
          "midi": 59,
          "time": 59.99995600000029,
          "velocity": 0.8661417322834646,
          "duration": 0.301723916666667
        },
        {
          "name": "C#5",
          "midi": 73,
          "time": 60.25857650000029,
          "velocity": 0.7874015748031497,
          "duration": 0.25862049999999925
        },
        {
          "name": "C#5",
          "midi": 73,
          "time": 60.25857650000029,
          "velocity": 0.7874015748031497,
          "duration": 0.6465512500000017
        },
        {
          "name": "B3",
          "midi": 59,
          "time": 60.25857650000029,
          "velocity": 0.6929133858267716,
          "duration": 0.25862049999999925
        },
        {
          "name": "B4",
          "midi": 71,
          "time": 60.51719700000029,
          "velocity": 0.7874015748031497,
          "duration": 0.25862049999999925
        },
        {
          "name": "B4",
          "midi": 71,
          "time": 60.51719700000029,
          "velocity": 0.7874015748031497,
          "duration": 0.25862049999999925
        },
        {
          "name": "D4",
          "midi": 62,
          "time": 60.51719700000029,
          "velocity": 0.7874015748031497,
          "duration": 0.25862049999999925
        },
        {
          "name": "A2",
          "midi": 45,
          "time": 60.51719700000029,
          "velocity": 0.5905511811023622,
          "duration": 0.4999996333333385
        },
        {
          "name": "E3",
          "midi": 52,
          "time": 60.51719700000029,
          "velocity": 0.5905511811023622,
          "duration": 0.5043099750000053
        },
        {
          "name": "A3",
          "midi": 57,
          "time": 60.51719700000029,
          "velocity": 0.5905511811023622,
          "duration": 0.4999996333333385
        },
        {
          "name": "E2",
          "midi": 40,
          "time": 60.51719700000029,
          "velocity": 0.8740157480314961,
          "duration": 0.04310341666666773
        },
        {
          "name": "A#2",
          "midi": 46,
          "time": 60.51719700000029,
          "velocity": 0.8740157480314961,
          "duration": 0.04310341666666773
        },
        {
          "name": "B3",
          "midi": 59,
          "time": 60.51719700000029,
          "velocity": 0.7165354330708661,
          "duration": 0.04310341666666773
        },
        {
          "name": "C#5",
          "midi": 73,
          "time": 60.77581750000029,
          "velocity": 0.7874015748031497,
          "duration": 0.12931025000000318
        },
        {
          "name": "C#5",
          "midi": 73,
          "time": 60.77581750000029,
          "velocity": 0.7874015748031497,
          "duration": 1.2931025000000034
        },
        {
          "name": "C#4",
          "midi": 61,
          "time": 60.77581750000029,
          "velocity": 0.7874015748031497,
          "duration": 0.24999981666667281
        },
        {
          "name": "B2",
          "midi": 47,
          "time": 60.77581750000029,
          "velocity": 0.8503937007874016,
          "duration": 0.25862050000000636
        },
        {
          "name": "E3",
          "midi": 52,
          "time": 60.77581750000029,
          "velocity": 0.6692913385826772,
          "duration": 0.24999981666667281
        },
        {
          "name": "A3",
          "midi": 57,
          "time": 60.77581750000029,
          "velocity": 0.6692913385826772,
          "duration": 0.24137913333333927
        },
        {
          "name": "C#4",
          "midi": 61,
          "time": 60.77581750000029,
          "velocity": 0.6692913385826772,
          "duration": 0.25862050000000636
        },
        {
          "name": "B1",
          "midi": 35,
          "time": 60.77581750000029,
          "velocity": 0.5275590551181102,
          "duration": 0.04310341666666773
        },
        {
          "name": "B3",
          "midi": 59,
          "time": 60.77581750000029,
          "velocity": 0.5669291338582677,
          "duration": 0.04310341666666773
        },
        {
          "name": "B4",
          "midi": 71,
          "time": 60.90512775000029,
          "velocity": 0.7874015748031497,
          "duration": 0.12931025000000318
        },
        {
          "name": "B4",
          "midi": 71,
          "time": 60.90512775000029,
          "velocity": 0.7874015748031497,
          "duration": 0.12931025000000318
        },
        {
          "name": "A4",
          "midi": 69,
          "time": 61.03443800000029,
          "velocity": 0.7874015748031497,
          "duration": 0.5172409999999985
        },
        {
          "name": "A4",
          "midi": 69,
          "time": 61.03443800000029,
          "velocity": 0.7874015748031497,
          "duration": 1.0258613166666635
        },
        {
          "name": "A3",
          "midi": 57,
          "time": 61.03443800000029,
          "velocity": 0.7874015748031497,
          "duration": 0.5172409999999985
        },
        {
          "name": "A2",
          "midi": 45,
          "time": 61.03443800000029,
          "velocity": 0.8582677165354331,
          "duration": 0.5172409999999985
        },
        {
          "name": "C#4",
          "midi": 61,
          "time": 61.03443800000029,
          "velocity": 0.6299212598425197,
          "duration": 0.7586201333333307
        },
        {
          "name": "E4",
          "midi": 64,
          "time": 61.03443800000029,
          "velocity": 0.6299212598425197,
          "duration": 1.01724063333333
        },
        {
          "name": "A4",
          "midi": 69,
          "time": 61.03443800000029,
          "velocity": 0.6299212598425197,
          "duration": 1.034481999999997
        },
        {
          "name": "A2",
          "midi": 45,
          "time": 61.03443800000029,
          "velocity": 0.6692913385826772,
          "duration": 1.0258613166666635
        },
        {
          "name": "E3",
          "midi": 52,
          "time": 61.03443800000029,
          "velocity": 0.6692913385826772,
          "duration": 0.7629304749999974
        },
        {
          "name": "A3",
          "midi": 57,
          "time": 61.03443800000029,
          "velocity": 0.6692913385826772,
          "duration": 0.7629304749999974
        },
        {
          "name": "E3",
          "midi": 52,
          "time": 61.03443800000029,
          "velocity": 0.6692913385826772,
          "duration": 1.01724063333333
        },
        {
          "name": "A3",
          "midi": 57,
          "time": 61.03443800000029,
          "velocity": 0.6692913385826772,
          "duration": 1.0215509749999967
        },
        {
          "name": "C#4",
          "midi": 61,
          "time": 61.03443800000029,
          "velocity": 0.6692913385826772,
          "duration": 1.0215509749999967
        },
        {
          "name": "B1",
          "midi": 35,
          "time": 61.03443800000029,
          "velocity": 0.8661417322834646,
          "duration": 0.04310341666666773
        },
        {
          "name": "B3",
          "midi": 59,
          "time": 61.03443800000029,
          "velocity": 0.8661417322834646,
          "duration": 0.04310341666666773
        },
        {
          "name": "B3",
          "midi": 59,
          "time": 61.29305850000029,
          "velocity": 0.6929133858267716,
          "duration": 0.04310341666666773
        },
        {
          "name": "F#3",
          "midi": 54,
          "time": 61.55167900000029,
          "velocity": 0.8582677165354331,
          "duration": 0.25862049999999925
        },
        {
          "name": "E2",
          "midi": 40,
          "time": 61.55167900000029,
          "velocity": 0.8740157480314961,
          "duration": 0.04310341666666773
        },
        {
          "name": "F#2",
          "midi": 42,
          "time": 61.55167900000029,
          "velocity": 0.8582677165354331,
          "duration": 0.04310341666666773
        },
        {
          "name": "B3",
          "midi": 59,
          "time": 61.55167900000029,
          "velocity": 0.7165354330708661,
          "duration": 0.04310341666666773
        },
        {
          "name": "F#3",
          "midi": 54,
          "time": 61.81029950000029,
          "velocity": 0.7874015748031497,
          "duration": 0.25862049999999925
        },
        {
          "name": "A3",
          "midi": 57,
          "time": 61.81029950000029,
          "velocity": 0.7086614173228346,
          "duration": 0.2499998166666657
        },
        {
          "name": "E3",
          "midi": 52,
          "time": 61.81029950000029,
          "velocity": 0.5511811023622047,
          "duration": 0.24568947499999894
        },
        {
          "name": "A3",
          "midi": 57,
          "time": 61.81029950000029,
          "velocity": 0.5511811023622047,
          "duration": 0.25862049999999925
        },
        {
          "name": "C#4",
          "midi": 61,
          "time": 61.81029950000029,
          "velocity": 0.5511811023622047,
          "duration": 0.24568947499999894
        },
        {
          "name": "B3",
          "midi": 59,
          "time": 61.81029950000029,
          "velocity": 0.5748031496062992,
          "duration": 0.04310341666666773
        },
        {
          "name": "G4",
          "midi": 67,
          "time": 62.06892000000029,
          "velocity": 0.7874015748031497,
          "duration": 2.068963999999994
        },
        {
          "name": "B4",
          "midi": 71,
          "time": 62.06892000000029,
          "velocity": 0.7874015748031497,
          "duration": 0.5172409999999985
        },
        {
          "name": "D5",
          "midi": 74,
          "time": 62.06892000000029,
          "velocity": 0.7874015748031497,
          "duration": 1.2931024999999963
        },
        {
          "name": "F#5",
          "midi": 78,
          "time": 62.06892000000029,
          "velocity": 0.7874015748031497,
          "duration": 2.068963999999994
        },
        {
          "name": "B3",
          "midi": 59,
          "time": 62.06892000000029,
          "velocity": 0.7874015748031497,
          "duration": 0.04310341666666773
        },
        {
          "name": "G2",
          "midi": 43,
          "time": 62.06892000000029,
          "velocity": 0.8740157480314961,
          "duration": 0.5043099749999982
        },
        {
          "name": "B3",
          "midi": 59,
          "time": 62.06892000000029,
          "velocity": 0.6299212598425197,
          "duration": 0.301723916666667
        },
        {
          "name": "D4",
          "midi": 62,
          "time": 62.06892000000029,
          "velocity": 0.6299212598425197,
          "duration": 0.7586201333333307
        },
        {
          "name": "F#4",
          "midi": 66,
          "time": 62.06892000000029,
          "velocity": 0.6299212598425197,
          "duration": 0.7629304749999974
        },
        {
          "name": "G2",
          "midi": 43,
          "time": 62.06892000000029,
          "velocity": 0.6692913385826772,
          "duration": 0.7629304749999974
        },
        {
          "name": "D3",
          "midi": 50,
          "time": 62.06892000000029,
          "velocity": 0.6692913385826772,
          "duration": 0.508620316666665
        },
        {
          "name": "G3",
          "midi": 55,
          "time": 62.06892000000029,
          "velocity": 0.6692913385826772,
          "duration": 0.4999996333333314
        },
        {
          "name": "F#3",
          "midi": 54,
          "time": 62.06892000000029,
          "velocity": 0.5511811023622047,
          "duration": 0.7586201333333307
        },
        {
          "name": "B3",
          "midi": 59,
          "time": 62.06892000000029,
          "velocity": 0.5511811023622047,
          "duration": 0.5172409999999985
        },
        {
          "name": "D4",
          "midi": 62,
          "time": 62.06892000000029,
          "velocity": 0.5511811023622047,
          "duration": 0.7586201333333307
        },
        {
          "name": "B1",
          "midi": 35,
          "time": 62.06892000000029,
          "velocity": 0.8740157480314961,
          "duration": 0.04310341666666773
        },
        {
          "name": "B3",
          "midi": 59,
          "time": 62.06892000000029,
          "velocity": 0.8740157480314961,
          "duration": 0.5603444166666662
        },
        {
          "name": "B4",
          "midi": 71,
          "time": 62.32754050000029,
          "velocity": 0.7874015748031497,
          "duration": 0.25862049999999925
        },
        {
          "name": "B4",
          "midi": 71,
          "time": 62.32754050000029,
          "velocity": 0.7874015748031497,
          "duration": 0.5172409999999985
        },
        {
          "name": "B3",
          "midi": 59,
          "time": 62.32754050000029,
          "velocity": 0.6929133858267716,
          "duration": 0.5043099749999982
        },
        {
          "name": "B4",
          "midi": 71,
          "time": 62.58616100000029,
          "velocity": 0.7874015748031497,
          "duration": 0.25862049999999925
        },
        {
          "name": "B4",
          "midi": 71,
          "time": 62.58616100000029,
          "velocity": 0.7874015748031497,
          "duration": 1.034481999999997
        },
        {
          "name": "D4",
          "midi": 62,
          "time": 62.58616100000029,
          "velocity": 0.7874015748031497,
          "duration": 0.25862049999999925
        },
        {
          "name": "G2",
          "midi": 43,
          "time": 62.58616100000029,
          "velocity": 0.5905511811023622,
          "duration": 0.25862049999999925
        },
        {
          "name": "D3",
          "midi": 50,
          "time": 62.58616100000029,
          "velocity": 0.5905511811023622,
          "duration": 0.24568947499999894
        },
        {
          "name": "G3",
          "midi": 55,
          "time": 62.58616100000029,
          "velocity": 0.5905511811023622,
          "duration": 0.2499998166666657
        },
        {
          "name": "E2",
          "midi": 40,
          "time": 62.58616100000029,
          "velocity": 0.8661417322834646,
          "duration": 0.04310341666666773
        },
        {
          "name": "F#2",
          "midi": 42,
          "time": 62.58616100000029,
          "velocity": 0.8582677165354331,
          "duration": 0.04310341666666773
        },
        {
          "name": "B3",
          "midi": 59,
          "time": 62.58616100000029,
          "velocity": 0.7086614173228346,
          "duration": 0.2499998166666657
        },
        {
          "name": "C#5",
          "midi": 73,
          "time": 62.84478150000029,
          "velocity": 0.7874015748031497,
          "duration": 0.25862049999999925
        },
        {
          "name": "C#5",
          "midi": 73,
          "time": 62.84478150000029,
          "velocity": 0.7874015748031497,
          "duration": 0.25862049999999925
        },
        {
          "name": "C#4",
          "midi": 61,
          "time": 62.84478150000029,
          "velocity": 0.7874015748031497,
          "duration": 0.25862049999999925
        },
        {
          "name": "B2",
          "midi": 47,
          "time": 62.84478150000029,
          "velocity": 0.8661417322834646,
          "duration": 0.5172409999999985
        },
        {
          "name": "B3",
          "midi": 59,
          "time": 62.84478150000029,
          "velocity": 0.5511811023622047,
          "duration": 0.04310341666666773
        },
        {
          "name": "D4",
          "midi": 62,
          "time": 62.84478150000029,
          "velocity": 0.5511811023622047,
          "duration": 0.5043099749999982
        },
        {
          "name": "F#4",
          "midi": 66,
          "time": 62.84478150000029,
          "velocity": 0.5511811023622047,
          "duration": 1.280171474999996
        },
        {
          "name": "G2",
          "midi": 43,
          "time": 62.84478150000029,
          "velocity": 0.5905511811023622,
          "duration": 0.7672408166666642
        },
        {
          "name": "D3",
          "midi": 50,
          "time": 62.84478150000029,
          "velocity": 0.5905511811023622,
          "duration": 0.7629304749999974
        },
        {
          "name": "G3",
          "midi": 55,
          "time": 62.84478150000029,
          "velocity": 0.5905511811023622,
          "duration": 0.7672408166666642
        },
        {
          "name": "F#3",
          "midi": 54,
          "time": 62.84478150000029,
          "velocity": 0.6692913385826772,
          "duration": 0.5043099749999982
        },
        {
          "name": "B3",
          "midi": 59,
          "time": 62.84478150000029,
          "velocity": 0.6692913385826772,
          "duration": 0.301723916666667
        },
        {
          "name": "D4",
          "midi": 62,
          "time": 62.84478150000029,
          "velocity": 0.6692913385826772,
          "duration": 1.0215509749999967
        },
        {
          "name": "B3",
          "midi": 59,
          "time": 62.84478150000029,
          "velocity": 0.7007874015748031,
          "duration": 0.5043099749999982
        },
        {
          "name": "D5",
          "midi": 74,
          "time": 63.10340200000029,
          "velocity": 0.7874015748031497,
          "duration": 0.25862049999999925
        },
        {
          "name": "D5",
          "midi": 74,
          "time": 63.10340200000029,
          "velocity": 0.7874015748031497,
          "duration": 1.034481999999997
        },
        {
          "name": "B3",
          "midi": 59,
          "time": 63.10340200000029,
          "velocity": 0.7874015748031497,
          "duration": 0.25862049999999925
        },
        {
          "name": "B1",
          "midi": 35,
          "time": 63.10340200000029,
          "velocity": 0.8503937007874016,
          "duration": 0.04310341666666773
        },
        {
          "name": "B3",
          "midi": 59,
          "time": 63.10340200000029,
          "velocity": 0.7086614173228346,
          "duration": 0.301723916666667
        },
        {
          "name": "B4",
          "midi": 71,
          "time": 63.362022500000286,
          "velocity": 0.7874015748031497,
          "duration": 0.25862049999999925
        },
        {
          "name": "B4",
          "midi": 71,
          "time": 63.362022500000286,
          "velocity": 0.7874015748031497,
          "duration": 0.7758614999999978
        },
        {
          "name": "B3",
          "midi": 59,
          "time": 63.362022500000286,
          "velocity": 0.7874015748031497,
          "duration": 0.25862049999999925
        },
        {
          "name": "D3",
          "midi": 50,
          "time": 63.362022500000286,
          "velocity": 0.6929133858267716,
          "duration": 0.25862049999999925
        },
        {
          "name": "F#3",
          "midi": 54,
          "time": 63.362022500000286,
          "velocity": 0.5511811023622047,
          "duration": 0.508620316666665
        },
        {
          "name": "B3",
          "midi": 59,
          "time": 63.362022500000286,
          "velocity": 0.5511811023622047,
          "duration": 0.301723916666667
        },
        {
          "name": "D4",
          "midi": 62,
          "time": 63.362022500000286,
          "velocity": 0.5511811023622047,
          "duration": 0.7586201333333307
        },
        {
          "name": "B3",
          "midi": 59,
          "time": 63.362022500000286,
          "velocity": 0.7007874015748031,
          "duration": 0.4999996333333314
        },
        {
          "name": "E3",
          "midi": 52,
          "time": 63.620643000000285,
          "velocity": 0.8503937007874016,
          "duration": 0.25862049999999925
        },
        {
          "name": "G2",
          "midi": 43,
          "time": 63.620643000000285,
          "velocity": 0.5905511811023622,
          "duration": 0.5043099749999982
        },
        {
          "name": "D3",
          "midi": 50,
          "time": 63.620643000000285,
          "velocity": 0.5905511811023622,
          "duration": 0.5043099749999982
        },
        {
          "name": "G3",
          "midi": 55,
          "time": 63.620643000000285,
          "velocity": 0.5905511811023622,
          "duration": 0.4999996333333314
        },
        {
          "name": "E2",
          "midi": 40,
          "time": 63.620643000000285,
          "velocity": 0.8582677165354331,
          "duration": 0.04310341666666773
        },
        {
          "name": "F#2",
          "midi": 42,
          "time": 63.620643000000285,
          "velocity": 0.8661417322834646,
          "duration": 0.04310341666666773
        },
        {
          "name": "B3",
          "midi": 59,
          "time": 63.620643000000285,
          "velocity": 0.7007874015748031,
          "duration": 0.301723916666667
        },
        {
          "name": "A4",
          "midi": 69,
          "time": 63.879263500000285,
          "velocity": 0.7874015748031497,
          "duration": 0.25862049999999925
        },
        {
          "name": "A4",
          "midi": 69,
          "time": 63.879263500000285,
          "velocity": 0.7874015748031497,
          "duration": 0.25862049999999925
        },
        {
          "name": "B3",
          "midi": 59,
          "time": 63.879263500000285,
          "velocity": 0.7874015748031497,
          "duration": 0.24568947499999894
        },
        {
          "name": "D3",
          "midi": 50,
          "time": 63.879263500000285,
          "velocity": 0.7007874015748031,
          "duration": 0.25862049999999925
        },
        {
          "name": "F#3",
          "midi": 54,
          "time": 63.879263500000285,
          "velocity": 0.5511811023622047,
          "duration": 0.2499998166666657
        },
        {
          "name": "B3",
          "midi": 59,
          "time": 63.879263500000285,
          "velocity": 0.5511811023622047,
          "duration": 0.2499998166666657
        },
        {
          "name": "D4",
          "midi": 62,
          "time": 63.879263500000285,
          "velocity": 0.5511811023622047,
          "duration": 0.2499998166666657
        },
        {
          "name": "B1",
          "midi": 35,
          "time": 63.879263500000285,
          "velocity": 0.5275590551181102,
          "duration": 0.04310341666666773
        },
        {
          "name": "B3",
          "midi": 59,
          "time": 63.879263500000285,
          "velocity": 0.5511811023622047,
          "duration": 0.25862049999999925
        },
        {
          "name": "A5",
          "midi": 81,
          "time": 64.13788400000028,
          "velocity": 0.7874015748031497,
          "duration": 0.5172410000000127
        },
        {
          "name": "A5",
          "midi": 81,
          "time": 64.13788400000028,
          "velocity": 0.7874015748031497,
          "duration": 0.5172410000000127
        },
        {
          "name": "G4",
          "midi": 67,
          "time": 64.13788400000028,
          "velocity": 0.7874015748031497,
          "duration": 0.7629304750000188
        },
        {
          "name": "B4",
          "midi": 71,
          "time": 64.13788400000028,
          "velocity": 0.7874015748031497,
          "duration": 1.0344820000000254
        },
        {
          "name": "E5",
          "midi": 76,
          "time": 64.13788400000028,
          "velocity": 0.7874015748031497,
          "duration": 1.0344820000000254
        },
        {
          "name": "E3",
          "midi": 52,
          "time": 64.13788400000028,
          "velocity": 0.7874015748031497,
          "duration": 0.5043099750000124
        },
        {
          "name": "E2",
          "midi": 40,
          "time": 64.13788400000028,
          "velocity": 0.8661417322834646,
          "duration": 0.04310341666666773
        },
        {
          "name": "B3",
          "midi": 59,
          "time": 64.13788400000028,
          "velocity": 0.6299212598425197,
          "duration": 0.7629304750000188
        },
        {
          "name": "D4",
          "midi": 62,
          "time": 64.13788400000028,
          "velocity": 0.6299212598425197,
          "duration": 0.758620133333352
        },
        {
          "name": "G4",
          "midi": 67,
          "time": 64.13788400000028,
          "velocity": 0.6299212598425197,
          "duration": 1.0344820000000254
        },
        {
          "name": "E2",
          "midi": 40,
          "time": 64.13788400000028,
          "velocity": 0.6692913385826772,
          "duration": 0.49999963333334563
        },
        {
          "name": "B2",
          "midi": 47,
          "time": 64.13788400000028,
          "velocity": 0.6692913385826772,
          "duration": 0.5043099750000124
        },
        {
          "name": "E3",
          "midi": 52,
          "time": 64.13788400000028,
          "velocity": 0.6692913385826772,
          "duration": 0.5172410000000127
        },
        {
          "name": "D3",
          "midi": 50,
          "time": 64.13788400000028,
          "velocity": 0.5511811023622047,
          "duration": 0.43103416666667727
        },
        {
          "name": "G3",
          "midi": 55,
          "time": 64.13788400000028,
          "velocity": 0.5511811023622047,
          "duration": 0.7672408166666855
        },
        {
          "name": "B3",
          "midi": 59,
          "time": 64.13788400000028,
          "velocity": 0.5511811023622047,
          "duration": 0.7629304750000188
        },
        {
          "name": "E2",
          "midi": 40,
          "time": 64.13788400000028,
          "velocity": 0.8661417322834646,
          "duration": 0.6896546666666836
        },
        {
          "name": "B1",
          "midi": 35,
          "time": 64.39650450000029,
          "velocity": 0.7007874015748031,
          "duration": 0.04310341666666773
        },
        {
          "name": "D3",
          "midi": 50,
          "time": 64.5258147500003,
          "velocity": 0.5590551181102362,
          "duration": 0.1724136666666709
        },
        {
          "name": "A5",
          "midi": 81,
          "time": 64.6551250000003,
          "velocity": 0.7874015748031497,
          "duration": 0.25862050000000636
        },
        {
          "name": "A5",
          "midi": 81,
          "time": 64.6551250000003,
          "velocity": 0.7874015748031497,
          "duration": 0.25862050000000636
        },
        {
          "name": "E3",
          "midi": 52,
          "time": 64.6551250000003,
          "velocity": 0.7874015748031497,
          "duration": 0.24137913333333927
        },
        {
          "name": "E2",
          "midi": 40,
          "time": 64.6551250000003,
          "velocity": 0.5905511811023622,
          "duration": 0.24568947500000604
        },
        {
          "name": "B2",
          "midi": 47,
          "time": 64.6551250000003,
          "velocity": 0.5905511811023622,
          "duration": 0.24999981666667281
        },
        {
          "name": "E3",
          "midi": 52,
          "time": 64.6551250000003,
          "velocity": 0.5905511811023622,
          "duration": 0.49999963333334563
        },
        {
          "name": "D3",
          "midi": 50,
          "time": 64.6551250000003,
          "velocity": 0.8582677165354331,
          "duration": 0.24568947500000604
        },
        {
          "name": "E2",
          "midi": 40,
          "time": 64.7844352500003,
          "velocity": 0.3700787401574803,
          "duration": 0.12931025000000318
        },
        {
          "name": "E5",
          "midi": 76,
          "time": 64.9137455000003,
          "velocity": 0.7874015748031497,
          "duration": 0.5172410000000127
        },
        {
          "name": "E5",
          "midi": 76,
          "time": 64.9137455000003,
          "velocity": 0.7874015748031497,
          "duration": 0.5172410000000127
        },
        {
          "name": "G2",
          "midi": 43,
          "time": 64.9137455000003,
          "velocity": 0.8503937007874016,
          "duration": 0.25862050000000636
        },
        {
          "name": "G3",
          "midi": 55,
          "time": 64.9137455000003,
          "velocity": 0.5511811023622047,
          "duration": 0.24999981666667281
        },
        {
          "name": "B3",
          "midi": 59,
          "time": 64.9137455000003,
          "velocity": 0.5511811023622047,
          "duration": 0.24137913333333927
        },
        {
          "name": "D4",
          "midi": 62,
          "time": 64.9137455000003,
          "velocity": 0.5511811023622047,
          "duration": 0.24568947500000604
        },
        {
          "name": "E2",
          "midi": 40,
          "time": 64.9137455000003,
          "velocity": 0.5905511811023622,
          "duration": 0.1724136666666709
        },
        {
          "name": "B2",
          "midi": 47,
          "time": 64.9137455000003,
          "velocity": 0.5905511811023622,
          "duration": 0.24137913333333927
        },
        {
          "name": "E3",
          "midi": 52,
          "time": 64.9137455000003,
          "velocity": 0.5905511811023622,
          "duration": 0.25862050000000636
        },
        {
          "name": "D3",
          "midi": 50,
          "time": 64.9137455000003,
          "velocity": 0.6692913385826772,
          "duration": 0.24999981666667281
        },
        {
          "name": "G3",
          "midi": 55,
          "time": 64.9137455000003,
          "velocity": 0.6692913385826772,
          "duration": 0.24999981666667281
        },
        {
          "name": "B3",
          "midi": 59,
          "time": 64.9137455000003,
          "velocity": 0.6692913385826772,
          "duration": 0.24137913333333927
        },
        {
          "name": "B1",
          "midi": 35,
          "time": 64.9137455000003,
          "velocity": 0.7165354330708661,
          "duration": 0.04310341666666773
        },
        {
          "name": "E2",
          "midi": 40,
          "time": 65.0430557500003,
          "velocity": 0.3543307086614173,
          "duration": 0.12068956666666963
        },
        {
          "name": "A4",
          "midi": 69,
          "time": 65.17236600000031,
          "velocity": 0.7874015748031497,
          "duration": 1.025861316666692
        },
        {
          "name": "C#5",
          "midi": 73,
          "time": 65.17236600000031,
          "velocity": 0.7874015748031497,
          "duration": 1.0344820000000254
        },
        {
          "name": "A3",
          "midi": 57,
          "time": 65.17236600000031,
          "velocity": 0.7874015748031497,
          "duration": 0.5086203166666792
        },
        {
          "name": "A2",
          "midi": 45,
          "time": 65.17236600000031,
          "velocity": 0.8661417322834646,
          "duration": 0.5086203166666792
        },
        {
          "name": "C#4",
          "midi": 61,
          "time": 65.17236600000031,
          "velocity": 0.6299212598425197,
          "duration": 0.758620133333352
        },
        {
          "name": "E4",
          "midi": 64,
          "time": 65.17236600000031,
          "velocity": 0.6299212598425197,
          "duration": 1.0172406333333583
        },
        {
          "name": "A4",
          "midi": 69,
          "time": 65.17236600000031,
          "velocity": 0.6299212598425197,
          "duration": 1.0344820000000254
        },
        {
          "name": "A2",
          "midi": 45,
          "time": 65.17236600000031,
          "velocity": 0.6692913385826772,
          "duration": 0.5172410000000127
        },
        {
          "name": "E3",
          "midi": 52,
          "time": 65.17236600000031,
          "velocity": 0.6692913385826772,
          "duration": 0.49999963333334563
        },
        {
          "name": "A3",
          "midi": 57,
          "time": 65.17236600000031,
          "velocity": 0.6692913385826772,
          "duration": 0.5172410000000127
        },
        {
          "name": "E3",
          "midi": 52,
          "time": 65.17236600000031,
          "velocity": 0.6692913385826772,
          "duration": 0.7629304750000188
        },
        {
          "name": "A3",
          "midi": 57,
          "time": 65.17236600000031,
          "velocity": 0.6692913385826772,
          "duration": 0.758620133333352
        },
        {
          "name": "C#4",
          "midi": 61,
          "time": 65.17236600000031,
          "velocity": 0.6692913385826772,
          "duration": 1.0172406333333583
        },
        {
          "name": "E2",
          "midi": 40,
          "time": 65.17236600000031,
          "velocity": 0.3543307086614173,
          "duration": 0.04310341666666773
        },
        {
          "name": "F#5",
          "midi": 78,
          "time": 65.43098650000032,
          "velocity": 0.7874015748031497,
          "duration": 0.25862050000000636
        },
        {
          "name": "F#5",
          "midi": 78,
          "time": 65.43098650000032,
          "velocity": 0.7874015748031497,
          "duration": 0.25862050000000636
        },
        {
          "name": "D3",
          "midi": 50,
          "time": 65.43098650000032,
          "velocity": 0.8661417322834646,
          "duration": 0.04310341666666773
        },
        {
          "name": "E5",
          "midi": 76,
          "time": 65.68960700000032,
          "velocity": 0.7874015748031497,
          "duration": 0.25862050000000636
        },
        {
          "name": "E5",
          "midi": 76,
          "time": 65.68960700000032,
          "velocity": 0.7874015748031497,
          "duration": 0.25862050000000636
        },
        {
          "name": "A3",
          "midi": 57,
          "time": 65.68960700000032,
          "velocity": 0.7874015748031497,
          "duration": 0.5043099750000124
        },
        {
          "name": "F#3",
          "midi": 54,
          "time": 65.68960700000032,
          "velocity": 0.8582677165354331,
          "duration": 0.25862050000000636
        },
        {
          "name": "A2",
          "midi": 45,
          "time": 65.68960700000032,
          "velocity": 0.5905511811023622,
          "duration": 0.5043099750000124
        },
        {
          "name": "E3",
          "midi": 52,
          "time": 65.68960700000032,
          "velocity": 0.5905511811023622,
          "duration": 0.49999963333334563
        },
        {
          "name": "A3",
          "midi": 57,
          "time": 65.68960700000032,
          "velocity": 0.5905511811023622,
          "duration": 0.5043099750000124
        },
        {
          "name": "E2",
          "midi": 40,
          "time": 65.68960700000032,
          "velocity": 0.3700787401574803,
          "duration": 0.04310341666666773
        },
        {
          "name": "E2",
          "midi": 40,
          "time": 65.81891725000033,
          "velocity": 0.3464566929133858,
          "duration": 0.04310341666666773
        },
        {
          "name": "D5",
          "midi": 74,
          "time": 65.94822750000033,
          "velocity": 0.7874015748031497,
          "duration": 0.25862050000000636
        },
        {
          "name": "D5",
          "midi": 74,
          "time": 65.94822750000033,
          "velocity": 0.7874015748031497,
          "duration": 0.25862050000000636
        },
        {
          "name": "A3",
          "midi": 57,
          "time": 65.94822750000033,
          "velocity": 0.7165354330708661,
          "duration": 0.25862050000000636
        },
        {
          "name": "E3",
          "midi": 52,
          "time": 65.94822750000033,
          "velocity": 0.5511811023622047,
          "duration": 0.24999981666667281
        },
        {
          "name": "A3",
          "midi": 57,
          "time": 65.94822750000033,
          "velocity": 0.5511811023622047,
          "duration": 0.25862050000000636
        },
        {
          "name": "C#4",
          "midi": 61,
          "time": 65.94822750000033,
          "velocity": 0.5511811023622047,
          "duration": 0.24999981666667281
        },
        {
          "name": "C3",
          "midi": 48,
          "time": 65.94822750000033,
          "velocity": 0.8661417322834646,
          "duration": 0.04310341666666773
        },
        {
          "name": "A3",
          "midi": 57,
          "time": 66.20253765833367,
          "velocity": 0.8740157480314961,
          "duration": 0.004310341666666773
        },
        {
          "name": "G4",
          "midi": 67,
          "time": 66.20684800000033,
          "velocity": 0.7874015748031497,
          "duration": 2.068964000000051
        },
        {
          "name": "B4",
          "midi": 71,
          "time": 66.20684800000033,
          "velocity": 0.7874015748031497,
          "duration": 1.0344820000000254
        },
        {
          "name": "D5",
          "midi": 74,
          "time": 66.20684800000033,
          "velocity": 0.7874015748031497,
          "duration": 0.5172410000000127
        },
        {
          "name": "F#5",
          "midi": 78,
          "time": 66.20684800000033,
          "velocity": 0.7874015748031497,
          "duration": 2.068964000000051
        },
        {
          "name": "B3",
          "midi": 59,
          "time": 66.20684800000033,
          "velocity": 0.7874015748031497,
          "duration": 0.04310341666666773
        },
        {
          "name": "G2",
          "midi": 43,
          "time": 66.20684800000033,
          "velocity": 0.8582677165354331,
          "duration": 0.5086203166666792
        },
        {
          "name": "B3",
          "midi": 59,
          "time": 66.20684800000033,
          "velocity": 0.6299212598425197,
          "duration": 0.3017239166666741
        },
        {
          "name": "D4",
          "midi": 62,
          "time": 66.20684800000033,
          "velocity": 0.6299212598425197,
          "duration": 0.7758615000000191
        },
        {
          "name": "F#4",
          "midi": 66,
          "time": 66.20684800000033,
          "velocity": 0.6299212598425197,
          "duration": 2.0560329750000506
        },
        {
          "name": "G2",
          "midi": 43,
          "time": 66.20684800000033,
          "velocity": 0.6692913385826772,
          "duration": 0.7629304750000188
        },
        {
          "name": "D3",
          "midi": 50,
          "time": 66.20684800000033,
          "velocity": 0.6692913385826772,
          "duration": 0.5086203166666792
        },
        {
          "name": "G3",
          "midi": 55,
          "time": 66.20684800000033,
          "velocity": 0.6692913385826772,
          "duration": 0.49999963333334563
        },
        {
          "name": "D3",
          "midi": 50,
          "time": 66.20684800000033,
          "velocity": 0.5511811023622047,
          "duration": 0.758620133333352
        },
        {
          "name": "F#3",
          "midi": 54,
          "time": 66.20684800000033,
          "velocity": 0.5511811023622047,
          "duration": 0.7629304750000188
        },
        {
          "name": "B3",
          "midi": 59,
          "time": 66.20684800000033,
          "velocity": 0.5511811023622047,
          "duration": 0.5172410000000127
        },
        {
          "name": "B1",
          "midi": 35,
          "time": 66.20684800000033,
          "velocity": 0.8740157480314961,
          "duration": 0.04310341666666773
        },
        {
          "name": "B3",
          "midi": 59,
          "time": 66.20684800000033,
          "velocity": 0.8740157480314961,
          "duration": 0.5603444166666804
        },
        {
          "name": "D5",
          "midi": 74,
          "time": 66.46546850000034,
          "velocity": 0.7874015748031497,
          "duration": 0.25862050000000636
        },
        {
          "name": "D5",
          "midi": 74,
          "time": 66.46546850000034,
          "velocity": 0.7874015748031497,
          "duration": 0.5172410000000127
        },
        {
          "name": "B3",
          "midi": 59,
          "time": 66.46546850000034,
          "velocity": 0.6929133858267716,
          "duration": 0.5086203166666792
        },
        {
          "name": "D5",
          "midi": 74,
          "time": 66.72408900000035,
          "velocity": 0.7874015748031497,
          "duration": 0.25862050000000636
        },
        {
          "name": "D5",
          "midi": 74,
          "time": 66.72408900000035,
          "velocity": 0.7874015748031497,
          "duration": 0.7758615000000191
        },
        {
          "name": "D4",
          "midi": 62,
          "time": 66.72408900000035,
          "velocity": 0.7874015748031497,
          "duration": 1.5387919750000378
        },
        {
          "name": "G2",
          "midi": 43,
          "time": 66.72408900000035,
          "velocity": 0.5905511811023622,
          "duration": 0.25862050000000636
        },
        {
          "name": "D3",
          "midi": 50,
          "time": 66.72408900000035,
          "velocity": 0.5905511811023622,
          "duration": 0.24568947500000604
        },
        {
          "name": "G3",
          "midi": 55,
          "time": 66.72408900000035,
          "velocity": 0.5905511811023622,
          "duration": 0.24568947500000604
        },
        {
          "name": "E2",
          "midi": 40,
          "time": 66.72408900000035,
          "velocity": 0.8661417322834646,
          "duration": 0.04310341666666773
        },
        {
          "name": "F#2",
          "midi": 42,
          "time": 66.72408900000035,
          "velocity": 0.8503937007874016,
          "duration": 0.04310341666666773
        },
        {
          "name": "B3",
          "midi": 59,
          "time": 66.72408900000035,
          "velocity": 0.7086614173228346,
          "duration": 0.3017239166666741
        },
        {
          "name": "B4",
          "midi": 71,
          "time": 66.98270950000035,
          "velocity": 0.7874015748031497,
          "duration": 0.25862050000000636
        },
        {
          "name": "B4",
          "midi": 71,
          "time": 66.98270950000035,
          "velocity": 0.7874015748031497,
          "duration": 0.7758615000000191
        },
        {
          "name": "C#4",
          "midi": 61,
          "time": 66.98270950000035,
          "velocity": 0.7874015748031497,
          "duration": 0.25862050000000636
        },
        {
          "name": "B2",
          "midi": 47,
          "time": 66.98270950000035,
          "velocity": 0.8582677165354331,
          "duration": 0.5172410000000127
        },
        {
          "name": "G2",
          "midi": 43,
          "time": 66.98270950000035,
          "velocity": 0.5905511811023622,
          "duration": 0.7629304750000188
        },
        {
          "name": "D3",
          "midi": 50,
          "time": 66.98270950000035,
          "velocity": 0.5905511811023622,
          "duration": 0.5043099750000124
        },
        {
          "name": "G3",
          "midi": 55,
          "time": 66.98270950000035,
          "velocity": 0.5905511811023622,
          "duration": 0.7629304750000188
        },
        {
          "name": "D3",
          "midi": 50,
          "time": 66.98270950000035,
          "velocity": 0.6692913385826772,
          "duration": 0.758620133333352
        },
        {
          "name": "F#3",
          "midi": 54,
          "time": 66.98270950000035,
          "velocity": 0.6692913385826772,
          "duration": 0.49999963333334563
        },
        {
          "name": "B3",
          "midi": 59,
          "time": 66.98270950000035,
          "velocity": 0.6692913385826772,
          "duration": 0.3017239166666741
        },
        {
          "name": "B1",
          "midi": 35,
          "time": 66.98270950000035,
          "velocity": 0.5433070866141733,
          "duration": 0.04310341666666773
        },
        {
          "name": "B3",
          "midi": 59,
          "time": 66.98270950000035,
          "velocity": 0.7007874015748031,
          "duration": 0.5043099750000124
        },
        {
          "name": "D5",
          "midi": 74,
          "time": 67.24133000000036,
          "velocity": 0.7874015748031497,
          "duration": 0.25862050000000636
        },
        {
          "name": "D5",
          "midi": 74,
          "time": 67.24133000000036,
          "velocity": 0.7874015748031497,
          "duration": 0.7758615000000191
        },
        {
          "name": "B3",
          "midi": 59,
          "time": 67.24133000000036,
          "velocity": 0.7874015748031497,
          "duration": 0.25862050000000636
        },
        {
          "name": "B1",
          "midi": 35,
          "time": 67.24133000000036,
          "velocity": 0.8740157480314961,
          "duration": 0.04310341666666773
        },
        {
          "name": "B3",
          "midi": 59,
          "time": 67.24133000000036,
          "velocity": 0.7086614173228346,
          "duration": 0.3017239166666741
        },
        {
          "name": "B4",
          "midi": 71,
          "time": 67.49995050000037,
          "velocity": 0.7874015748031497,
          "duration": 0.25862050000000636
        },
        {
          "name": "B4",
          "midi": 71,
          "time": 67.49995050000037,
          "velocity": 0.7874015748031497,
          "duration": 0.7758615000000191
        },
        {
          "name": "B3",
          "midi": 59,
          "time": 67.49995050000037,
          "velocity": 0.7874015748031497,
          "duration": 0.25862050000000636
        },
        {
          "name": "D3",
          "midi": 50,
          "time": 67.49995050000037,
          "velocity": 0.6929133858267716,
          "duration": 0.24568947500000604
        },
        {
          "name": "D3",
          "midi": 50,
          "time": 67.49995050000037,
          "velocity": 0.5511811023622047,
          "duration": 0.5086203166666792
        },
        {
          "name": "F#3",
          "midi": 54,
          "time": 67.49995050000037,
          "velocity": 0.5511811023622047,
          "duration": 0.5043099750000124
        },
        {
          "name": "B3",
          "midi": 59,
          "time": 67.49995050000037,
          "velocity": 0.5511811023622047,
          "duration": 0.3017239166666741
        },
        {
          "name": "B3",
          "midi": 59,
          "time": 67.49995050000037,
          "velocity": 0.7007874015748031,
          "duration": 0.5086203166666792
        },
        {
          "name": "D5",
          "midi": 74,
          "time": 67.75857100000037,
          "velocity": 0.7874015748031497,
          "duration": 0.25862050000000636
        },
        {
          "name": "D5",
          "midi": 74,
          "time": 67.75857100000037,
          "velocity": 0.7874015748031497,
          "duration": 0.5172410000000127
        },
        {
          "name": "D3",
          "midi": 50,
          "time": 67.75857100000037,
          "velocity": 0.7007874015748031,
          "duration": 0.25862050000000636
        },
        {
          "name": "G2",
          "midi": 43,
          "time": 67.75857100000037,
          "velocity": 0.5905511811023622,
          "duration": 0.49999963333334563
        },
        {
          "name": "D3",
          "midi": 50,
          "time": 67.75857100000037,
          "velocity": 0.5905511811023622,
          "duration": 0.49999963333334563
        },
        {
          "name": "G3",
          "midi": 55,
          "time": 67.75857100000037,
          "velocity": 0.5905511811023622,
          "duration": 0.49999963333334563
        },
        {
          "name": "E2",
          "midi": 40,
          "time": 67.75857100000037,
          "velocity": 0.8503937007874016,
          "duration": 0.04310341666666773
        },
        {
          "name": "F#2",
          "midi": 42,
          "time": 67.75857100000037,
          "velocity": 0.8740157480314961,
          "duration": 0.04310341666666773
        },
        {
          "name": "B3",
          "midi": 59,
          "time": 67.75857100000037,
          "velocity": 0.7007874015748031,
          "duration": 0.3017239166666741
        },
        {
          "name": "E5",
          "midi": 76,
          "time": 68.01719150000038,
          "velocity": 0.7874015748031497,
          "duration": 0.25862050000000636
        },
        {
          "name": "E5",
          "midi": 76,
          "time": 68.01719150000038,
          "velocity": 0.7874015748031497,
          "duration": 0.25862050000000636
        },
        {
          "name": "F#3",
          "midi": 54,
          "time": 68.01719150000038,
          "velocity": 0.7874015748031497,
          "duration": 0.24568947500000604
        },
        {
          "name": "B2",
          "midi": 47,
          "time": 68.01719150000038,
          "velocity": 0.7007874015748031,
          "duration": 0.25862050000000636
        },
        {
          "name": "D3",
          "midi": 50,
          "time": 68.01719150000038,
          "velocity": 0.5511811023622047,
          "duration": 0.24137913333333927
        },
        {
          "name": "F#3",
          "midi": 54,
          "time": 68.01719150000038,
          "velocity": 0.5511811023622047,
          "duration": 0.25862050000000636
        },
        {
          "name": "B3",
          "midi": 59,
          "time": 68.01719150000038,
          "velocity": 0.5511811023622047,
          "duration": 0.24137913333333927
        },
        {
          "name": "B3",
          "midi": 59,
          "time": 68.01719150000038,
          "velocity": 0.5511811023622047,
          "duration": 0.24568947500000604
        },
        {
          "name": "A4",
          "midi": 69,
          "time": 68.27581200000039,
          "velocity": 0.7874015748031497,
          "duration": 0.7672408166666855
        },
        {
          "name": "C#5",
          "midi": 73,
          "time": 68.27581200000039,
          "velocity": 0.7874015748031497,
          "duration": 0.5172410000000127
        },
        {
          "name": "E5",
          "midi": 76,
          "time": 68.27581200000039,
          "velocity": 0.7874015748031497,
          "duration": 2.068964000000051
        },
        {
          "name": "B3",
          "midi": 59,
          "time": 68.27581200000039,
          "velocity": 0.7874015748031497,
          "duration": 0.04310341666666773
        },
        {
          "name": "A2",
          "midi": 45,
          "time": 68.27581200000039,
          "velocity": 0.8661417322834646,
          "duration": 0.5043099750000124
        },
        {
          "name": "C#4",
          "midi": 61,
          "time": 68.27581200000039,
          "velocity": 0.6299212598425197,
          "duration": 0.758620133333352
        },
        {
          "name": "E4",
          "midi": 64,
          "time": 68.27581200000039,
          "velocity": 0.6299212598425197,
          "duration": 0.7672408166666855
        },
        {
          "name": "A4",
          "midi": 69,
          "time": 68.27581200000039,
          "velocity": 0.6299212598425197,
          "duration": 2.068964000000051
        },
        {
          "name": "A2",
          "midi": 45,
          "time": 68.27581200000039,
          "velocity": 0.6692913385826772,
          "duration": 0.7629304750000188
        },
        {
          "name": "E3",
          "midi": 52,
          "time": 68.27581200000039,
          "velocity": 0.6692913385826772,
          "duration": 0.5086203166666792
        },
        {
          "name": "A3",
          "midi": 57,
          "time": 68.27581200000039,
          "velocity": 0.6692913385826772,
          "duration": 0.49999963333334563
        },
        {
          "name": "E3",
          "midi": 52,
          "time": 68.27581200000039,
          "velocity": 0.5511811023622047,
          "duration": 0.7672408166666855
        },
        {
          "name": "A3",
          "midi": 57,
          "time": 68.27581200000039,
          "velocity": 0.5511811023622047,
          "duration": 0.7672408166666855
        },
        {
          "name": "C#4",
          "midi": 61,
          "time": 68.27581200000039,
          "velocity": 0.5511811023622047,
          "duration": 0.7672408166666855
        },
        {
          "name": "B1",
          "midi": 35,
          "time": 68.27581200000039,
          "velocity": 0.8740157480314961,
          "duration": 0.04310341666666773
        },
        {
          "name": "B3",
          "midi": 59,
          "time": 68.27581200000039,
          "velocity": 0.8661417322834646,
          "duration": 0.3017239166666741
        },
        {
          "name": "C#5",
          "midi": 73,
          "time": 68.53443250000039,
          "velocity": 0.7874015748031497,
          "duration": 0.25862050000000636
        },
        {
          "name": "C#5",
          "midi": 73,
          "time": 68.53443250000039,
          "velocity": 0.7874015748031497,
          "duration": 0.6465512500000159
        },
        {
          "name": "B3",
          "midi": 59,
          "time": 68.53443250000039,
          "velocity": 0.6929133858267716,
          "duration": 0.25862050000000636
        },
        {
          "name": "B4",
          "midi": 71,
          "time": 68.7930530000004,
          "velocity": 0.7874015748031497,
          "duration": 0.25862050000000636
        },
        {
          "name": "B4",
          "midi": 71,
          "time": 68.7930530000004,
          "velocity": 0.7874015748031497,
          "duration": 0.25862050000000636
        },
        {
          "name": "D4",
          "midi": 62,
          "time": 68.7930530000004,
          "velocity": 0.7874015748031497,
          "duration": 0.25862050000000636
        },
        {
          "name": "A2",
          "midi": 45,
          "time": 68.7930530000004,
          "velocity": 0.5905511811023622,
          "duration": 0.25862050000000636
        },
        {
          "name": "E3",
          "midi": 52,
          "time": 68.7930530000004,
          "velocity": 0.5905511811023622,
          "duration": 0.24999981666667281
        },
        {
          "name": "A3",
          "midi": 57,
          "time": 68.7930530000004,
          "velocity": 0.5905511811023622,
          "duration": 0.24999981666667281
        },
        {
          "name": "E2",
          "midi": 40,
          "time": 68.7930530000004,
          "velocity": 0.8582677165354331,
          "duration": 0.04310341666666773
        },
        {
          "name": "F#2",
          "midi": 42,
          "time": 68.7930530000004,
          "velocity": 0.8503937007874016,
          "duration": 0.04310341666666773
        },
        {
          "name": "B3",
          "midi": 59,
          "time": 68.7930530000004,
          "velocity": 0.7165354330708661,
          "duration": 0.04310341666666773
        },
        {
          "name": "C#5",
          "midi": 73,
          "time": 69.0516735000004,
          "velocity": 0.7874015748031497,
          "duration": 0.12931025000000318
        },
        {
          "name": "C#5",
          "midi": 73,
          "time": 69.0516735000004,
          "velocity": 0.7874015748031497,
          "duration": 1.2931025000000318
        },
        {
          "name": "C#4",
          "midi": 61,
          "time": 69.0516735000004,
          "velocity": 0.7874015748031497,
          "duration": 0.25862050000000636
        },
        {
          "name": "C#3",
          "midi": 49,
          "time": 69.0516735000004,
          "velocity": 0.8740157480314961,
          "duration": 0.5172410000000127
        },
        {
          "name": "A3",
          "midi": 57,
          "time": 69.0516735000004,
          "velocity": 0.5511811023622047,
          "duration": 0.5043099750000124
        },
        {
          "name": "C#4",
          "midi": 61,
          "time": 69.0516735000004,
          "velocity": 0.5511811023622047,
          "duration": 0.5086203166666792
        },
        {
          "name": "E4",
          "midi": 64,
          "time": 69.0516735000004,
          "velocity": 0.5511811023622047,
          "duration": 1.2801714750000315
        },
        {
          "name": "A2",
          "midi": 45,
          "time": 69.0516735000004,
          "velocity": 0.5905511811023622,
          "duration": 0.7629304750000188
        },
        {
          "name": "E3",
          "midi": 52,
          "time": 69.0516735000004,
          "velocity": 0.5905511811023622,
          "duration": 0.5043099750000124
        },
        {
          "name": "A3",
          "midi": 57,
          "time": 69.0516735000004,
          "velocity": 0.5905511811023622,
          "duration": 0.758620133333352
        },
        {
          "name": "E3",
          "midi": 52,
          "time": 69.0516735000004,
          "velocity": 0.6692913385826772,
          "duration": 0.7629304750000188
        },
        {
          "name": "A3",
          "midi": 57,
          "time": 69.0516735000004,
          "velocity": 0.6692913385826772,
          "duration": 0.7758615000000191
        },
        {
          "name": "C#4",
          "midi": 61,
          "time": 69.0516735000004,
          "velocity": 0.6692913385826772,
          "duration": 1.0172406333333583
        },
        {
          "name": "B1",
          "midi": 35,
          "time": 69.0516735000004,
          "velocity": 0.5511811023622047,
          "duration": 0.04310341666666773
        },
        {
          "name": "B3",
          "midi": 59,
          "time": 69.0516735000004,
          "velocity": 0.5669291338582677,
          "duration": 0.04310341666666773
        },
        {
          "name": "B4",
          "midi": 71,
          "time": 69.18098375000041,
          "velocity": 0.7874015748031497,
          "duration": 0.12931025000000318
        },
        {
          "name": "B4",
          "midi": 71,
          "time": 69.18098375000041,
          "velocity": 0.7874015748031497,
          "duration": 0.12931025000000318
        },
        {
          "name": "A4",
          "midi": 69,
          "time": 69.31029400000041,
          "velocity": 0.7874015748031497,
          "duration": 1.0344820000000254
        },
        {
          "name": "A4",
          "midi": 69,
          "time": 69.31029400000041,
          "velocity": 0.7874015748031497,
          "duration": 1.0344820000000254
        },
        {
          "name": "A3",
          "midi": 57,
          "time": 69.31029400000041,
          "velocity": 0.7874015748031497,
          "duration": 0.758620133333352
        },
        {
          "name": "B1",
          "midi": 35,
          "time": 69.31029400000041,
          "velocity": 0.8740157480314961,
          "duration": 0.04310341666666773
        },
        {
          "name": "B3",
          "midi": 59,
          "time": 69.31029400000041,
          "velocity": 0.8661417322834646,
          "duration": 0.04310341666666773
        },
        {
          "name": "E3",
          "midi": 52,
          "time": 69.56891450000042,
          "velocity": 0.7086614173228346,
          "duration": 0.24999981666667281
        },
        {
          "name": "E3",
          "midi": 52,
          "time": 69.56891450000042,
          "velocity": 0.5511811023622047,
          "duration": 0.5043099750000124
        },
        {
          "name": "A3",
          "midi": 57,
          "time": 69.56891450000042,
          "velocity": 0.5511811023622047,
          "duration": 0.758620133333352
        },
        {
          "name": "C#4",
          "midi": 61,
          "time": 69.56891450000042,
          "velocity": 0.5511811023622047,
          "duration": 0.758620133333352
        },
        {
          "name": "B3",
          "midi": 59,
          "time": 69.56891450000042,
          "velocity": 0.6929133858267716,
          "duration": 0.04310341666666773
        },
        {
          "name": "E2",
          "midi": 40,
          "time": 69.82753500000042,
          "velocity": 0.7007874015748031,
          "duration": 0.04310341666666773
        },
        {
          "name": "A2",
          "midi": 45,
          "time": 69.82753500000042,
          "velocity": 0.5905511811023622,
          "duration": 0.5086203166666792
        },
        {
          "name": "E3",
          "midi": 52,
          "time": 69.82753500000042,
          "velocity": 0.5905511811023622,
          "duration": 0.5043099750000124
        },
        {
          "name": "A3",
          "midi": 57,
          "time": 69.82753500000042,
          "velocity": 0.5905511811023622,
          "duration": 0.5043099750000124
        },
        {
          "name": "E2",
          "midi": 40,
          "time": 69.82753500000042,
          "velocity": 0.8503937007874016,
          "duration": 0.25862050000000636
        },
        {
          "name": "A#2",
          "midi": 46,
          "time": 69.82753500000042,
          "velocity": 0.8661417322834646,
          "duration": 0.04310341666666773
        },
        {
          "name": "B3",
          "midi": 59,
          "time": 69.82753500000042,
          "velocity": 0.7165354330708661,
          "duration": 0.04310341666666773
        },
        {
          "name": "F#3",
          "midi": 54,
          "time": 70.08615550000043,
          "velocity": 0.7874015748031497,
          "duration": 0.25862050000000636
        },
        {
          "name": "F#2",
          "midi": 42,
          "time": 70.08615550000043,
          "velocity": 0.7086614173228346,
          "duration": 0.25862050000000636
        },
        {
          "name": "E3",
          "midi": 52,
          "time": 70.08615550000043,
          "velocity": 0.5511811023622047,
          "duration": 0.24999981666667281
        },
        {
          "name": "A3",
          "midi": 57,
          "time": 70.08615550000043,
          "velocity": 0.5511811023622047,
          "duration": 0.24999981666667281
        },
        {
          "name": "C#4",
          "midi": 61,
          "time": 70.08615550000043,
          "velocity": 0.5511811023622047,
          "duration": 0.24999981666667281
        },
        {
          "name": "B1",
          "midi": 35,
          "time": 70.08615550000043,
          "velocity": 0.5433070866141733,
          "duration": 0.04310341666666773
        },
        {
          "name": "B3",
          "midi": 59,
          "time": 70.08615550000043,
          "velocity": 0.5748031496062992,
          "duration": 0.04310341666666773
        },
        {
          "name": "A5",
          "midi": 81,
          "time": 70.34477600000044,
          "velocity": 0.7874015748031497,
          "duration": 2.068964000000051
        },
        {
          "name": "B4",
          "midi": 71,
          "time": 70.34477600000044,
          "velocity": 0.7874015748031497,
          "duration": 0.5172410000000127
        },
        {
          "name": "D5",
          "midi": 74,
          "time": 70.34477600000044,
          "velocity": 0.7874015748031497,
          "duration": 1.2931025000000318
        },
        {
          "name": "G5",
          "midi": 79,
          "time": 70.34477600000044,
          "velocity": 0.7874015748031497,
          "duration": 2.068964000000051
        },
        {
          "name": "B3",
          "midi": 59,
          "time": 70.34477600000044,
          "velocity": 0.7874015748031497,
          "duration": 0.04310341666666773
        },
        {
          "name": "G2",
          "midi": 43,
          "time": 70.34477600000044,
          "velocity": 0.8503937007874016,
          "duration": 0.5086203166666792
        },
        {
          "name": "F#3",
          "midi": 54,
          "time": 70.34477600000044,
          "velocity": 0.6299212598425197,
          "duration": 0.758620133333352
        },
        {
          "name": "B3",
          "midi": 59,
          "time": 70.34477600000044,
          "velocity": 0.6299212598425197,
          "duration": 0.3017239166666741
        },
        {
          "name": "D4",
          "midi": 62,
          "time": 70.34477600000044,
          "velocity": 0.6299212598425197,
          "duration": 0.758620133333352
        },
        {
          "name": "G2",
          "midi": 43,
          "time": 70.34477600000044,
          "velocity": 0.6692913385826772,
          "duration": 0.7758615000000191
        },
        {
          "name": "D3",
          "midi": 50,
          "time": 70.34477600000044,
          "velocity": 0.6692913385826772,
          "duration": 0.5086203166666792
        },
        {
          "name": "G3",
          "midi": 55,
          "time": 70.34477600000044,
          "velocity": 0.6692913385826772,
          "duration": 0.49999963333334563
        },
        {
          "name": "F#3",
          "midi": 54,
          "time": 70.34477600000044,
          "velocity": 0.5511811023622047,
          "duration": 0.7629304750000188
        },
        {
          "name": "B3",
          "midi": 59,
          "time": 70.34477600000044,
          "velocity": 0.5511811023622047,
          "duration": 0.5172410000000127
        },
        {
          "name": "D4",
          "midi": 62,
          "time": 70.34477600000044,
          "velocity": 0.5511811023622047,
          "duration": 0.7629304750000188
        },
        {
          "name": "B1",
          "midi": 35,
          "time": 70.34477600000044,
          "velocity": 0.8740157480314961,
          "duration": 0.04310341666666773
        },
        {
          "name": "B3",
          "midi": 59,
          "time": 70.34477600000044,
          "velocity": 0.8740157480314961,
          "duration": 0.5603444166666804
        },
        {
          "name": "B4",
          "midi": 71,
          "time": 70.60339650000044,
          "velocity": 0.7874015748031497,
          "duration": 0.25862050000000636
        },
        {
          "name": "B4",
          "midi": 71,
          "time": 70.60339650000044,
          "velocity": 0.7874015748031497,
          "duration": 0.5172410000000127
        },
        {
          "name": "B3",
          "midi": 59,
          "time": 70.60339650000044,
          "velocity": 0.6929133858267716,
          "duration": 0.49999963333334563
        },
        {
          "name": "B4",
          "midi": 71,
          "time": 70.86201700000045,
          "velocity": 0.7874015748031497,
          "duration": 0.25862050000000636
        },
        {
          "name": "B4",
          "midi": 71,
          "time": 70.86201700000045,
          "velocity": 0.7874015748031497,
          "duration": 1.0344820000000254
        },
        {
          "name": "D4",
          "midi": 62,
          "time": 70.86201700000045,
          "velocity": 0.7874015748031497,
          "duration": 0.25862050000000636
        },
        {
          "name": "G2",
          "midi": 43,
          "time": 70.86201700000045,
          "velocity": 0.5905511811023622,
          "duration": 1.5431023166667046
        },
        {
          "name": "D3",
          "midi": 50,
          "time": 70.86201700000045,
          "velocity": 0.5905511811023622,
          "duration": 1.0344820000000254
        },
        {
          "name": "G3",
          "midi": 55,
          "time": 70.86201700000045,
          "velocity": 0.5905511811023622,
          "duration": 1.534481633333371
        },
        {
          "name": "E2",
          "midi": 40,
          "time": 70.86201700000045,
          "velocity": 0.8503937007874016,
          "duration": 0.04310341666666773
        },
        {
          "name": "F#2",
          "midi": 42,
          "time": 70.86201700000045,
          "velocity": 0.8740157480314961,
          "duration": 0.04310341666666773
        },
        {
          "name": "B3",
          "midi": 59,
          "time": 70.86201700000045,
          "velocity": 0.7086614173228346,
          "duration": 0.24999981666667281
        },
        {
          "name": "C#5",
          "midi": 73,
          "time": 71.12063750000046,
          "velocity": 0.7874015748031497,
          "duration": 0.25862050000000636
        },
        {
          "name": "C#5",
          "midi": 73,
          "time": 71.12063750000046,
          "velocity": 0.7874015748031497,
          "duration": 0.25862050000000636
        },
        {
          "name": "C#4",
          "midi": 61,
          "time": 71.12063750000046,
          "velocity": 0.7874015748031497,
          "duration": 0.25862050000000636
        },
        {
          "name": "B2",
          "midi": 47,
          "time": 71.12063750000046,
          "velocity": 0.8740157480314961,
          "duration": 0.5172410000000127
        },
        {
          "name": "B3",
          "midi": 59,
          "time": 71.12063750000046,
          "velocity": 0.5511811023622047,
          "duration": 0.04310341666666773
        },
        {
          "name": "D4",
          "midi": 62,
          "time": 71.12063750000046,
          "velocity": 0.5511811023622047,
          "duration": 0.49999963333334563
        },
        {
          "name": "F#4",
          "midi": 66,
          "time": 71.12063750000046,
          "velocity": 0.5511811023622047,
          "duration": 1.2758611333333647
        },
        {
          "name": "F#3",
          "midi": 54,
          "time": 71.12063750000046,
          "velocity": 0.6692913385826772,
          "duration": 0.5086203166666792
        },
        {
          "name": "B3",
          "midi": 59,
          "time": 71.12063750000046,
          "velocity": 0.6692913385826772,
          "duration": 0.3017239166666741
        },
        {
          "name": "D4",
          "midi": 62,
          "time": 71.12063750000046,
          "velocity": 0.6692913385826772,
          "duration": 1.0172406333333583
        },
        {
          "name": "B1",
          "midi": 35,
          "time": 71.12063750000046,
          "velocity": 0.5275590551181102,
          "duration": 0.04310341666666773
        },
        {
          "name": "B3",
          "midi": 59,
          "time": 71.12063750000046,
          "velocity": 0.7007874015748031,
          "duration": 0.5043099750000124
        },
        {
          "name": "D5",
          "midi": 74,
          "time": 71.37925800000046,
          "velocity": 0.7874015748031497,
          "duration": 0.25862050000000636
        },
        {
          "name": "D5",
          "midi": 74,
          "time": 71.37925800000046,
          "velocity": 0.7874015748031497,
          "duration": 1.0344820000000254
        },
        {
          "name": "B3",
          "midi": 59,
          "time": 71.37925800000046,
          "velocity": 0.7874015748031497,
          "duration": 0.25862050000000636
        },
        {
          "name": "B1",
          "midi": 35,
          "time": 71.37925800000046,
          "velocity": 0.8582677165354331,
          "duration": 0.04310341666666773
        },
        {
          "name": "B3",
          "midi": 59,
          "time": 71.37925800000046,
          "velocity": 0.7086614173228346,
          "duration": 0.3017239166666741
        },
        {
          "name": "B4",
          "midi": 71,
          "time": 71.63787850000047,
          "velocity": 0.7874015748031497,
          "duration": 0.25862050000000636
        },
        {
          "name": "B4",
          "midi": 71,
          "time": 71.63787850000047,
          "velocity": 0.7874015748031497,
          "duration": 0.7758615000000191
        },
        {
          "name": "B3",
          "midi": 59,
          "time": 71.63787850000047,
          "velocity": 0.7874015748031497,
          "duration": 0.25862050000000636
        },
        {
          "name": "D3",
          "midi": 50,
          "time": 71.63787850000047,
          "velocity": 0.6929133858267716,
          "duration": 0.7629304750000188
        },
        {
          "name": "F#3",
          "midi": 54,
          "time": 71.63787850000047,
          "velocity": 0.5511811023622047,
          "duration": 0.5086203166666792
        },
        {
          "name": "B3",
          "midi": 59,
          "time": 71.63787850000047,
          "velocity": 0.5511811023622047,
          "duration": 0.3017239166666741
        },
        {
          "name": "D4",
          "midi": 62,
          "time": 71.63787850000047,
          "velocity": 0.5511811023622047,
          "duration": 0.7629304750000188
        },
        {
          "name": "B3",
          "midi": 59,
          "time": 71.63787850000047,
          "velocity": 0.7007874015748031,
          "duration": 0.5043099750000124
        },
        {
          "name": "A4",
          "midi": 69,
          "time": 71.89649900000047,
          "velocity": 0.7874015748031497,
          "duration": 0.5172410000000127
        },
        {
          "name": "A4",
          "midi": 69,
          "time": 71.89649900000047,
          "velocity": 0.7874015748031497,
          "duration": 0.5172410000000127
        },
        {
          "name": "E3",
          "midi": 52,
          "time": 71.89649900000047,
          "velocity": 0.8661417322834646,
          "duration": 0.25862050000000636
        },
        {
          "name": "E2",
          "midi": 40,
          "time": 71.89649900000047,
          "velocity": 0.8582677165354331,
          "duration": 0.04310341666666773
        },
        {
          "name": "F#2",
          "midi": 42,
          "time": 71.89649900000047,
          "velocity": 0.8740157480314961,
          "duration": 0.04310341666666773
        },
        {
          "name": "B3",
          "midi": 59,
          "time": 71.89649900000047,
          "velocity": 0.7007874015748031,
          "duration": 0.3017239166666741
        },
        {
          "name": "B3",
          "midi": 59,
          "time": 72.15511950000048,
          "velocity": 0.7874015748031497,
          "duration": 0.24568947500000604
        },
        {
          "name": "D3",
          "midi": 50,
          "time": 72.15511950000048,
          "velocity": 0.7086614173228346,
          "duration": 0.25862050000000636
        },
        {
          "name": "F#3",
          "midi": 54,
          "time": 72.15511950000048,
          "velocity": 0.5511811023622047,
          "duration": 0.24999981666667281
        },
        {
          "name": "B3",
          "midi": 59,
          "time": 72.15511950000048,
          "velocity": 0.5511811023622047,
          "duration": 0.24999981666667281
        },
        {
          "name": "D4",
          "midi": 62,
          "time": 72.15511950000048,
          "velocity": 0.5511811023622047,
          "duration": 0.24999981666667281
        },
        {
          "name": "B3",
          "midi": 59,
          "time": 72.15511950000048,
          "velocity": 0.5511811023622047,
          "duration": 0.25862050000000636
        },
        {
          "name": "E5",
          "midi": 76,
          "time": 72.41374000000049,
          "velocity": 0.7874015748031497,
          "duration": 0.25862050000000636
        },
        {
          "name": "E5",
          "midi": 76,
          "time": 72.41374000000049,
          "velocity": 0.7874015748031497,
          "duration": 0.25862050000000636
        },
        {
          "name": "A5",
          "midi": 81,
          "time": 72.41374000000049,
          "velocity": 0.7874015748031497,
          "duration": 0.25862050000000636
        },
        {
          "name": "E3",
          "midi": 52,
          "time": 72.41374000000049,
          "velocity": 0.7874015748031497,
          "duration": 0.5043099750000124
        },
        {
          "name": "E2",
          "midi": 40,
          "time": 72.41374000000049,
          "velocity": 0.8582677165354331,
          "duration": 0.5086203166666792
        },
        {
          "name": "G3",
          "midi": 55,
          "time": 72.41374000000049,
          "velocity": 0.6299212598425197,
          "duration": 0.758620133333352
        },
        {
          "name": "B3",
          "midi": 59,
          "time": 72.41374000000049,
          "velocity": 0.6299212598425197,
          "duration": 0.04310341666666773
        },
        {
          "name": "D4",
          "midi": 62,
          "time": 72.41374000000049,
          "velocity": 0.6299212598425197,
          "duration": 1.0172406333333583
        },
        {
          "name": "E2",
          "midi": 40,
          "time": 72.41374000000049,
          "velocity": 0.6692913385826772,
          "duration": 0.5603444166666804
        },
        {
          "name": "B2",
          "midi": 47,
          "time": 72.41374000000049,
          "velocity": 0.6692913385826772,
          "duration": 0.5086203166666792
        },
        {
          "name": "E3",
          "midi": 52,
          "time": 72.41374000000049,
          "velocity": 0.6692913385826772,
          "duration": 0.5172410000000127
        },
        {
          "name": "D3",
          "midi": 50,
          "time": 72.41374000000049,
          "velocity": 0.5511811023622047,
          "duration": 0.7672408166666855
        },
        {
          "name": "G3",
          "midi": 55,
          "time": 72.41374000000049,
          "velocity": 0.5511811023622047,
          "duration": 1.0172406333333583
        },
        {
          "name": "B3",
          "midi": 59,
          "time": 72.41374000000049,
          "velocity": 0.5511811023622047,
          "duration": 0.3017239166666741
        },
        {
          "name": "B1",
          "midi": 35,
          "time": 72.41374000000049,
          "velocity": 0.8661417322834646,
          "duration": 0.04310341666666773
        },
        {
          "name": "B3",
          "midi": 59,
          "time": 72.41374000000049,
          "velocity": 0.8661417322834646,
          "duration": 0.5603444166666804
        },
        {
          "name": "F#5",
          "midi": 78,
          "time": 72.65511913333383,
          "velocity": 0.7874015748031497,
          "duration": 0.5172410000000127
        },
        {
          "name": "E5",
          "midi": 76,
          "time": 72.6723605000005,
          "velocity": 0.7874015748031497,
          "duration": 0.25862050000000636
        },
        {
          "name": "E5",
          "midi": 76,
          "time": 72.6723605000005,
          "velocity": 0.7874015748031497,
          "duration": 0.25862050000000636
        },
        {
          "name": "B3",
          "midi": 59,
          "time": 72.6723605000005,
          "velocity": 0.6929133858267716,
          "duration": 0.49999963333334563
        },
        {
          "name": "E5",
          "midi": 76,
          "time": 72.9309810000005,
          "velocity": 0.7874015748031497,
          "duration": 0.25862050000000636
        },
        {
          "name": "E5",
          "midi": 76,
          "time": 72.9309810000005,
          "velocity": 0.7874015748031497,
          "duration": 0.25862050000000636
        },
        {
          "name": "E3",
          "midi": 52,
          "time": 72.9309810000005,
          "velocity": 0.7874015748031497,
          "duration": 0.24137913333333927
        },
        {
          "name": "E2",
          "midi": 40,
          "time": 72.9309810000005,
          "velocity": 0.5905511811023622,
          "duration": 0.24999981666667281
        },
        {
          "name": "B2",
          "midi": 47,
          "time": 72.9309810000005,
          "velocity": 0.5905511811023622,
          "duration": 0.24999981666667281
        },
        {
          "name": "E3",
          "midi": 52,
          "time": 72.9309810000005,
          "velocity": 0.5905511811023622,
          "duration": 0.5043099750000124
        },
        {
          "name": "E2",
          "midi": 40,
          "time": 72.9309810000005,
          "velocity": 0.8503937007874016,
          "duration": 0.25862050000000636
        },
        {
          "name": "F#2",
          "midi": 42,
          "time": 72.9309810000005,
          "velocity": 0.8503937007874016,
          "duration": 0.04310341666666773
        },
        {
          "name": "B3",
          "midi": 59,
          "time": 72.9309810000005,
          "velocity": 0.7165354330708661,
          "duration": 0.3017239166666741
        },
        {
          "name": "F#5",
          "midi": 78,
          "time": 73.1896015000005,
          "velocity": 0.7874015748031497,
          "duration": 0.25862050000000636
        },
        {
          "name": "F#5",
          "midi": 78,
          "time": 73.1896015000005,
          "velocity": 0.7874015748031497,
          "duration": 0.25862050000000636
        },
        {
          "name": "E5",
          "midi": 76,
          "time": 73.1896015000005,
          "velocity": 0.7874015748031497,
          "duration": 0.5172410000000127
        },
        {
          "name": "G2",
          "midi": 43,
          "time": 73.1896015000005,
          "velocity": 0.8740157480314961,
          "duration": 0.25862050000000636
        },
        {
          "name": "E2",
          "midi": 40,
          "time": 73.1896015000005,
          "velocity": 0.5905511811023622,
          "duration": 0.24999981666667281
        },
        {
          "name": "B2",
          "midi": 47,
          "time": 73.1896015000005,
          "velocity": 0.5905511811023622,
          "duration": 0.24137913333333927
        },
        {
          "name": "E3",
          "midi": 52,
          "time": 73.1896015000005,
          "velocity": 0.5905511811023622,
          "duration": 0.25862050000000636
        },
        {
          "name": "D3",
          "midi": 50,
          "time": 73.1896015000005,
          "velocity": 0.6692913385826772,
          "duration": 0.24137913333333927
        },
        {
          "name": "G3",
          "midi": 55,
          "time": 73.1896015000005,
          "velocity": 0.6692913385826772,
          "duration": 0.24568947500000604
        },
        {
          "name": "B3",
          "midi": 59,
          "time": 73.1896015000005,
          "velocity": 0.6692913385826772,
          "duration": 0.24568947500000604
        },
        {
          "name": "B3",
          "midi": 59,
          "time": 73.1896015000005,
          "velocity": 0.5669291338582677,
          "duration": 0.24568947500000604
        },
        {
          "name": "E5",
          "midi": 76,
          "time": 73.44822200000051,
          "velocity": 0.7874015748031497,
          "duration": 0.5172410000000127
        },
        {
          "name": "E5",
          "midi": 76,
          "time": 73.44822200000051,
          "velocity": 0.7874015748031497,
          "duration": 0.5172410000000127
        },
        {
          "name": "A3",
          "midi": 57,
          "time": 73.44822200000051,
          "velocity": 0.7874015748031497,
          "duration": 0.49999963333334563
        },
        {
          "name": "A2",
          "midi": 45,
          "time": 73.44822200000051,
          "velocity": 0.8661417322834646,
          "duration": 0.5043099750000124
        },
        {
          "name": "C#4",
          "midi": 61,
          "time": 73.44822200000051,
          "velocity": 0.6299212598425197,
          "duration": 0.758620133333352
        },
        {
          "name": "E4",
          "midi": 64,
          "time": 73.44822200000051,
          "velocity": 0.6299212598425197,
          "duration": 1.0172406333333583
        },
        {
          "name": "A4",
          "midi": 69,
          "time": 73.44822200000051,
          "velocity": 0.6299212598425197,
          "duration": 1.0215509750000251
        },
        {
          "name": "A2",
          "midi": 45,
          "time": 73.44822200000051,
          "velocity": 0.6692913385826772,
          "duration": 0.5172410000000127
        },
        {
          "name": "E3",
          "midi": 52,
          "time": 73.44822200000051,
          "velocity": 0.6692913385826772,
          "duration": 0.5043099750000124
        },
        {
          "name": "A3",
          "midi": 57,
          "time": 73.44822200000051,
          "velocity": 0.6692913385826772,
          "duration": 0.5172410000000127
        },
        {
          "name": "E3",
          "midi": 52,
          "time": 73.44822200000051,
          "velocity": 0.6692913385826772,
          "duration": 0.758620133333352
        },
        {
          "name": "A3",
          "midi": 57,
          "time": 73.44822200000051,
          "velocity": 0.6692913385826772,
          "duration": 0.758620133333352
        },
        {
          "name": "C#4",
          "midi": 61,
          "time": 73.44822200000051,
          "velocity": 0.6692913385826772,
          "duration": 1.0172406333333583
        },
        {
          "name": "B1",
          "midi": 35,
          "time": 73.44822200000051,
          "velocity": 0.8503937007874016,
          "duration": 0.04310341666666773
        },
        {
          "name": "B3",
          "midi": 59,
          "time": 73.44822200000051,
          "velocity": 0.8661417322834646,
          "duration": 0.04310341666666773
        },
        {
          "name": "D5",
          "midi": 74,
          "time": 73.70684250000052,
          "velocity": 0.7874015748031497,
          "duration": 0.5172410000000127
        },
        {
          "name": "B3",
          "midi": 59,
          "time": 73.70684250000052,
          "velocity": 0.6929133858267716,
          "duration": 0.04310341666666773
        },
        {
          "name": "E2",
          "midi": 40,
          "time": 73.83615275000052,
          "velocity": 0.5433070866141733,
          "duration": 0.04310341666666773
        },
        {
          "name": "A3",
          "midi": 57,
          "time": 73.96546300000053,
          "velocity": 0.7874015748031497,
          "duration": 0.5043099750000124
        },
        {
          "name": "F#3",
          "midi": 54,
          "time": 73.96546300000053,
          "velocity": 0.8740157480314961,
          "duration": 0.25862050000000636
        },
        {
          "name": "A2",
          "midi": 45,
          "time": 73.96546300000053,
          "velocity": 0.5905511811023622,
          "duration": 0.5086203166666792
        },
        {
          "name": "E3",
          "midi": 52,
          "time": 73.96546300000053,
          "velocity": 0.5905511811023622,
          "duration": 0.49999963333334563
        },
        {
          "name": "A3",
          "midi": 57,
          "time": 73.96546300000053,
          "velocity": 0.5905511811023622,
          "duration": 0.5086203166666792
        },
        {
          "name": "D3",
          "midi": 50,
          "time": 73.96546300000053,
          "velocity": 0.8582677165354331,
          "duration": 0.04310341666666773
        },
        {
          "name": "B4",
          "midi": 71,
          "time": 74.22408350000053,
          "velocity": 0.7874015748031497,
          "duration": 2.3275845000000572
        },
        {
          "name": "E3",
          "midi": 52,
          "time": 74.22408350000053,
          "velocity": 0.7165354330708661,
          "duration": 0.24568947500000604
        },
        {
          "name": "E3",
          "midi": 52,
          "time": 74.22408350000053,
          "velocity": 0.5511811023622047,
          "duration": 0.25862050000000636
        },
        {
          "name": "A3",
          "midi": 57,
          "time": 74.22408350000053,
          "velocity": 0.5511811023622047,
          "duration": 0.25862050000000636
        },
        {
          "name": "C#4",
          "midi": 61,
          "time": 74.22408350000053,
          "velocity": 0.5511811023622047,
          "duration": 0.24999981666667281
        },
        {
          "name": "B1",
          "midi": 35,
          "time": 74.22408350000053,
          "velocity": 0.7165354330708661,
          "duration": 0.04310341666666773
        },
        {
          "name": "C3",
          "midi": 48,
          "time": 74.35339375000054,
          "velocity": 0.5354330708661418,
          "duration": 0.04310341666666773
        },
        {
          "name": "A3",
          "midi": 57,
          "time": 74.47839365833387,
          "velocity": 0.8582677165354331,
          "duration": 0.004310341666666773
        },
        {
          "name": "D5",
          "midi": 74,
          "time": 74.48270400000054,
          "velocity": 0.7874015748031497,
          "duration": 1.2931025000000318
        },
        {
          "name": "D5",
          "midi": 74,
          "time": 74.48270400000054,
          "velocity": 0.7874015748031497,
          "duration": 1.2931025000000318
        },
        {
          "name": "G5",
          "midi": 79,
          "time": 74.48270400000054,
          "velocity": 0.7874015748031497,
          "duration": 2.068964000000051
        },
        {
          "name": "E5",
          "midi": 76,
          "time": 74.48270400000054,
          "velocity": 0.7874015748031497,
          "duration": 1.5517230000000382
        },
        {
          "name": "D5",
          "midi": 74,
          "time": 74.48270400000054,
          "velocity": 0.7874015748031497,
          "duration": 2.068964000000051
        },
        {
          "name": "B3",
          "midi": 59,
          "time": 74.48270400000054,
          "velocity": 0.7874015748031497,
          "duration": 0.04310341666666773
        },
        {
          "name": "G2",
          "midi": 43,
          "time": 74.48270400000054,
          "velocity": 0.8661417322834646,
          "duration": 0.5086203166666792
        },
        {
          "name": "B3",
          "midi": 59,
          "time": 74.48270400000054,
          "velocity": 0.6299212598425197,
          "duration": 0.3017239166666741
        },
        {
          "name": "D4",
          "midi": 62,
          "time": 74.48270400000054,
          "velocity": 0.6299212598425197,
          "duration": 0.7672408166666855
        },
        {
          "name": "E4",
          "midi": 64,
          "time": 74.48270400000054,
          "velocity": 0.6299212598425197,
          "duration": 0.7672408166666855
        },
        {
          "name": "G4",
          "midi": 67,
          "time": 74.48270400000054,
          "velocity": 0.6299212598425197,
          "duration": 0.758620133333352
        },
        {
          "name": "G2",
          "midi": 43,
          "time": 74.48270400000054,
          "velocity": 0.6692913385826772,
          "duration": 0.758620133333352
        },
        {
          "name": "D3",
          "midi": 50,
          "time": 74.48270400000054,
          "velocity": 0.6692913385826772,
          "duration": 0.49999963333334563
        },
        {
          "name": "G3",
          "midi": 55,
          "time": 74.48270400000054,
          "velocity": 0.6692913385826772,
          "duration": 0.5043099750000124
        },
        {
          "name": "E3",
          "midi": 52,
          "time": 74.48270400000054,
          "velocity": 0.5511811023622047,
          "duration": 0.7672408166666855
        },
        {
          "name": "G3",
          "midi": 55,
          "time": 74.48270400000054,
          "velocity": 0.5511811023622047,
          "duration": 0.7629304750000188
        },
        {
          "name": "B3",
          "midi": 59,
          "time": 74.48270400000054,
          "velocity": 0.5511811023622047,
          "duration": 0.5172410000000127
        },
        {
          "name": "D4",
          "midi": 62,
          "time": 74.48270400000054,
          "velocity": 0.5511811023622047,
          "duration": 0.7672408166666855
        },
        {
          "name": "B1",
          "midi": 35,
          "time": 74.48270400000054,
          "velocity": 0.8661417322834646,
          "duration": 0.04310341666666773
        },
        {
          "name": "B3",
          "midi": 59,
          "time": 74.48270400000054,
          "velocity": 0.8740157480314961,
          "duration": 0.5603444166666804
        },
        {
          "name": "B3",
          "midi": 59,
          "time": 74.74132450000054,
          "velocity": 0.6929133858267716,
          "duration": 0.49999963333334563
        },
        {
          "name": "D4",
          "midi": 62,
          "time": 74.99994500000055,
          "velocity": 0.7874015748031497,
          "duration": 0.25862050000000636
        },
        {
          "name": "G2",
          "midi": 43,
          "time": 74.99994500000055,
          "velocity": 0.5905511811023622,
          "duration": 0.25862050000000636
        },
        {
          "name": "D3",
          "midi": 50,
          "time": 74.99994500000055,
          "velocity": 0.5905511811023622,
          "duration": 0.24999981666667281
        },
        {
          "name": "G3",
          "midi": 55,
          "time": 74.99994500000055,
          "velocity": 0.5905511811023622,
          "duration": 0.24568947500000604
        },
        {
          "name": "E2",
          "midi": 40,
          "time": 74.99994500000055,
          "velocity": 0.8661417322834646,
          "duration": 0.04310341666666773
        },
        {
          "name": "F#2",
          "midi": 42,
          "time": 74.99994500000055,
          "velocity": 0.8740157480314961,
          "duration": 0.04310341666666773
        },
        {
          "name": "B3",
          "midi": 59,
          "time": 74.99994500000055,
          "velocity": 0.7086614173228346,
          "duration": 0.24568947500000604
        },
        {
          "name": "C#4",
          "midi": 61,
          "time": 75.25856550000056,
          "velocity": 0.7874015748031497,
          "duration": 0.25862050000000636
        },
        {
          "name": "B2",
          "midi": 47,
          "time": 75.25856550000056,
          "velocity": 0.8503937007874016,
          "duration": 0.5172410000000127
        },
        {
          "name": "B3",
          "midi": 59,
          "time": 75.25856550000056,
          "velocity": 0.5511811023622047,
          "duration": 0.04310341666666773
        },
        {
          "name": "D4",
          "midi": 62,
          "time": 75.25856550000056,
          "velocity": 0.5511811023622047,
          "duration": 0.49999963333334563
        },
        {
          "name": "E4",
          "midi": 64,
          "time": 75.25856550000056,
          "velocity": 0.5511811023622047,
          "duration": 1.2758611333333647
        },
        {
          "name": "G4",
          "midi": 67,
          "time": 75.25856550000056,
          "velocity": 0.5511811023622047,
          "duration": 1.2844818166666983
        },
        {
          "name": "G2",
          "midi": 43,
          "time": 75.25856550000056,
          "velocity": 0.5905511811023622,
          "duration": 0.758620133333352
        },
        {
          "name": "D3",
          "midi": 50,
          "time": 75.25856550000056,
          "velocity": 0.5905511811023622,
          "duration": 0.7629304750000188
        },
        {
          "name": "G3",
          "midi": 55,
          "time": 75.25856550000056,
          "velocity": 0.5905511811023622,
          "duration": 0.49999963333334563
        },
        {
          "name": "E3",
          "midi": 52,
          "time": 75.25856550000056,
          "velocity": 0.6692913385826772,
          "duration": 0.5086203166666792
        },
        {
          "name": "G3",
          "midi": 55,
          "time": 75.25856550000056,
          "velocity": 0.6692913385826772,
          "duration": 0.758620133333352
        },
        {
          "name": "B3",
          "midi": 59,
          "time": 75.25856550000056,
          "velocity": 0.6692913385826772,
          "duration": 0.3017239166666741
        },
        {
          "name": "D4",
          "midi": 62,
          "time": 75.25856550000056,
          "velocity": 0.6692913385826772,
          "duration": 1.0172406333333583
        },
        {
          "name": "B1",
          "midi": 35,
          "time": 75.25856550000056,
          "velocity": 0.5748031496062992,
          "duration": 0.04310341666666773
        },
        {
          "name": "B3",
          "midi": 59,
          "time": 75.25856550000056,
          "velocity": 0.7007874015748031,
          "duration": 0.49999963333334563
        },
        {
          "name": "B3",
          "midi": 59,
          "time": 75.51718600000056,
          "velocity": 0.7874015748031497,
          "duration": 0.25862050000000636
        },
        {
          "name": "B1",
          "midi": 35,
          "time": 75.51718600000056,
          "velocity": 0.8740157480314961,
          "duration": 0.04310341666666773
        },
        {
          "name": "B3",
          "midi": 59,
          "time": 75.51718600000056,
          "velocity": 0.7086614173228346,
          "duration": 0.3017239166666741
        },
        {
          "name": "E5",
          "midi": 76,
          "time": 75.77580650000057,
          "velocity": 0.7874015748031497,
          "duration": 0.25862050000000636
        },
        {
          "name": "E5",
          "midi": 76,
          "time": 75.77580650000057,
          "velocity": 0.7874015748031497,
          "duration": 0.7758615000000191
        },
        {
          "name": "B3",
          "midi": 59,
          "time": 75.77580650000057,
          "velocity": 0.7874015748031497,
          "duration": 0.25862050000000636
        },
        {
          "name": "D3",
          "midi": 50,
          "time": 75.77580650000057,
          "velocity": 0.7165354330708661,
          "duration": 0.24568947500000604
        },
        {
          "name": "E3",
          "midi": 52,
          "time": 75.77580650000057,
          "velocity": 0.5511811023622047,
          "duration": 0.5086203166666792
        },
        {
          "name": "G3",
          "midi": 55,
          "time": 75.77580650000057,
          "velocity": 0.5511811023622047,
          "duration": 0.5043099750000124
        },
        {
          "name": "B3",
          "midi": 59,
          "time": 75.77580650000057,
          "velocity": 0.5511811023622047,
          "duration": 0.3017239166666741
        },
        {
          "name": "D4",
          "midi": 62,
          "time": 75.77580650000057,
          "velocity": 0.5511811023622047,
          "duration": 0.7629304750000188
        },
        {
          "name": "B3",
          "midi": 59,
          "time": 75.77580650000057,
          "velocity": 0.7007874015748031,
          "duration": 0.5043099750000124
        },
        {
          "name": "F#5",
          "midi": 78,
          "time": 76.03442700000058,
          "velocity": 0.7874015748031497,
          "duration": 0.25862050000000636
        },
        {
          "name": "F#5",
          "midi": 78,
          "time": 76.03442700000058,
          "velocity": 0.7874015748031497,
          "duration": 0.25862050000000636
        },
        {
          "name": "E2",
          "midi": 40,
          "time": 76.03442700000058,
          "velocity": 0.7086614173228346,
          "duration": 0.04310341666666773
        },
        {
          "name": "G2",
          "midi": 43,
          "time": 76.03442700000058,
          "velocity": 0.5905511811023622,
          "duration": 0.5043099750000124
        },
        {
          "name": "D3",
          "midi": 50,
          "time": 76.03442700000058,
          "velocity": 0.5905511811023622,
          "duration": 0.49999963333334563
        },
        {
          "name": "G3",
          "midi": 55,
          "time": 76.03442700000058,
          "velocity": 0.5905511811023622,
          "duration": 0.49999963333334563
        },
        {
          "name": "E2",
          "midi": 40,
          "time": 76.03442700000058,
          "velocity": 0.8740157480314961,
          "duration": 0.25862050000000636
        },
        {
          "name": "F#2",
          "midi": 42,
          "time": 76.03442700000058,
          "velocity": 0.8740157480314961,
          "duration": 0.04310341666666773
        },
        {
          "name": "B3",
          "midi": 59,
          "time": 76.03442700000058,
          "velocity": 0.7007874015748031,
          "duration": 0.3017239166666741
        },
        {
          "name": "F#3",
          "midi": 54,
          "time": 76.29304750000058,
          "velocity": 0.7874015748031497,
          "duration": 0.25862050000000636
        },
        {
          "name": "G2",
          "midi": 43,
          "time": 76.29304750000058,
          "velocity": 0.7165354330708661,
          "duration": 0.25862050000000636
        },
        {
          "name": "E3",
          "midi": 52,
          "time": 76.29304750000058,
          "velocity": 0.5511811023622047,
          "duration": 0.24137913333333927
        },
        {
          "name": "G3",
          "midi": 55,
          "time": 76.29304750000058,
          "velocity": 0.5511811023622047,
          "duration": 0.24137913333333927
        },
        {
          "name": "B3",
          "midi": 59,
          "time": 76.29304750000058,
          "velocity": 0.5511811023622047,
          "duration": 0.24999981666667281
        },
        {
          "name": "D4",
          "midi": 62,
          "time": 76.29304750000058,
          "velocity": 0.5511811023622047,
          "duration": 0.24999981666667281
        },
        {
          "name": "B1",
          "midi": 35,
          "time": 76.29304750000058,
          "velocity": 0.5433070866141733,
          "duration": 0.04310341666666773
        },
        {
          "name": "B3",
          "midi": 59,
          "time": 76.29304750000058,
          "velocity": 0.5511811023622047,
          "duration": 0.24999981666667281
        },
        {
          "name": "E5",
          "midi": 76,
          "time": 76.31028886666725,
          "velocity": 0.7874015748031497,
          "duration": 0.5172410000000127
        },
        {
          "name": "E5",
          "midi": 76,
          "time": 76.31028886666725,
          "velocity": 0.7874015748031497,
          "duration": 0.5172410000000127
        },
        {
          "name": "A5",
          "midi": 81,
          "time": 76.55166800000059,
          "velocity": 0.7874015748031497,
          "duration": 2.068964000000051
        },
        {
          "name": "F#5",
          "midi": 78,
          "time": 76.55166800000059,
          "velocity": 0.7874015748031497,
          "duration": 1.0344820000000254
        },
        {
          "name": "E5",
          "midi": 76,
          "time": 76.55166800000059,
          "velocity": 0.7874015748031497,
          "duration": 0.5172410000000127
        },
        {
          "name": "C#5",
          "midi": 73,
          "time": 76.55166800000059,
          "velocity": 0.7874015748031497,
          "duration": 2.068964000000051
        },
        {
          "name": "B3",
          "midi": 59,
          "time": 76.55166800000059,
          "velocity": 0.7874015748031497,
          "duration": 0.04310341666666773
        },
        {
          "name": "A2",
          "midi": 45,
          "time": 76.55166800000059,
          "velocity": 0.8582677165354331,
          "duration": 0.49999963333334563
        },
        {
          "name": "F#3",
          "midi": 54,
          "time": 76.55166800000059,
          "velocity": 0.6299212598425197,
          "duration": 0.7629304750000188
        },
        {
          "name": "A3",
          "midi": 57,
          "time": 76.55166800000059,
          "velocity": 0.6299212598425197,
          "duration": 0.5043099750000124
        },
        {
          "name": "C#4",
          "midi": 61,
          "time": 76.55166800000059,
          "velocity": 0.6299212598425197,
          "duration": 0.758620133333352
        },
        {
          "name": "E4",
          "midi": 64,
          "time": 76.55166800000059,
          "velocity": 0.6299212598425197,
          "duration": 2.0560329750000506
        },
        {
          "name": "A2",
          "midi": 45,
          "time": 76.55166800000059,
          "velocity": 0.6692913385826772,
          "duration": 0.758620133333352
        },
        {
          "name": "E3",
          "midi": 52,
          "time": 76.55166800000059,
          "velocity": 0.6692913385826772,
          "duration": 0.5086203166666792
        },
        {
          "name": "A3",
          "midi": 57,
          "time": 76.55166800000059,
          "velocity": 0.6692913385826772,
          "duration": 0.758620133333352
        },
        {
          "name": "E3",
          "midi": 52,
          "time": 76.55166800000059,
          "velocity": 0.5511811023622047,
          "duration": 0.7629304750000188
        },
        {
          "name": "F#3",
          "midi": 54,
          "time": 76.55166800000059,
          "velocity": 0.5511811023622047,
          "duration": 1.2844818166666983
        },
        {
          "name": "A3",
          "midi": 57,
          "time": 76.55166800000059,
          "velocity": 0.5511811023622047,
          "duration": 0.7672408166666855
        },
        {
          "name": "C#4",
          "midi": 61,
          "time": 76.55166800000059,
          "velocity": 0.5511811023622047,
          "duration": 1.0344820000000254
        },
        {
          "name": "B1",
          "midi": 35,
          "time": 76.55166800000059,
          "velocity": 0.8503937007874016,
          "duration": 0.04310341666666773
        },
        {
          "name": "B3",
          "midi": 59,
          "time": 76.55166800000059,
          "velocity": 0.8661417322834646,
          "duration": 0.3017239166666741
        },
        {
          "name": "E5",
          "midi": 76,
          "time": 76.8102885000006,
          "velocity": 0.7874015748031497,
          "duration": 0.25862050000000636
        },
        {
          "name": "E5",
          "midi": 76,
          "time": 76.8102885000006,
          "velocity": 0.7874015748031497,
          "duration": 0.5172410000000127
        },
        {
          "name": "B3",
          "midi": 59,
          "time": 76.8102885000006,
          "velocity": 0.6929133858267716,
          "duration": 0.25862050000000636
        },
        {
          "name": "E5",
          "midi": 76,
          "time": 77.0689090000006,
          "velocity": 0.7874015748031497,
          "duration": 0.25862050000000636
        },
        {
          "name": "E5",
          "midi": 76,
          "time": 77.0689090000006,
          "velocity": 0.7874015748031497,
          "duration": 1.0344820000000254
        },
        {
          "name": "D4",
          "midi": 62,
          "time": 77.0689090000006,
          "velocity": 0.7874015748031497,
          "duration": 0.25862050000000636
        },
        {
          "name": "A2",
          "midi": 45,
          "time": 77.0689090000006,
          "velocity": 0.5905511811023622,
          "duration": 0.25862050000000636
        },
        {
          "name": "E3",
          "midi": 52,
          "time": 77.0689090000006,
          "velocity": 0.5905511811023622,
          "duration": 0.24999981666667281
        },
        {
          "name": "A3",
          "midi": 57,
          "time": 77.0689090000006,
          "velocity": 0.5905511811023622,
          "duration": 0.7672408166666855
        },
        {
          "name": "E2",
          "midi": 40,
          "time": 77.0689090000006,
          "velocity": 0.8740157480314961,
          "duration": 0.04310341666666773
        },
        {
          "name": "F#2",
          "midi": 42,
          "time": 77.0689090000006,
          "velocity": 0.8503937007874016,
          "duration": 0.04310341666666773
        },
        {
          "name": "B3",
          "midi": 59,
          "time": 77.0689090000006,
          "velocity": 0.7165354330708661,
          "duration": 0.04310341666666773
        },
        {
          "name": "F#5",
          "midi": 78,
          "time": 77.32752950000061,
          "velocity": 0.7874015748031497,
          "duration": 0.25862050000000636
        },
        {
          "name": "F#5",
          "midi": 78,
          "time": 77.32752950000061,
          "velocity": 0.7874015748031497,
          "duration": 1.2931025000000318
        },
        {
          "name": "C#4",
          "midi": 61,
          "time": 77.32752950000061,
          "velocity": 0.7874015748031497,
          "duration": 0.49999963333334563
        },
        {
          "name": "C#3",
          "midi": 49,
          "time": 77.32752950000061,
          "velocity": 0.8661417322834646,
          "duration": 0.5172410000000127
        },
        {
          "name": "A2",
          "midi": 45,
          "time": 77.32752950000061,
          "velocity": 0.5905511811023622,
          "duration": 0.7629304750000188
        },
        {
          "name": "E3",
          "midi": 52,
          "time": 77.32752950000061,
          "velocity": 0.5905511811023622,
          "duration": 0.5043099750000124
        },
        {
          "name": "A3",
          "midi": 57,
          "time": 77.32752950000061,
          "velocity": 0.5905511811023622,
          "duration": 0.7629304750000188
        },
        {
          "name": "E3",
          "midi": 52,
          "time": 77.32752950000061,
          "velocity": 0.6692913385826772,
          "duration": 0.7672408166666855
        },
        {
          "name": "F#3",
          "midi": 54,
          "time": 77.32752950000061,
          "velocity": 0.6692913385826772,
          "duration": 1.0215509750000251
        },
        {
          "name": "A3",
          "midi": 57,
          "time": 77.32752950000061,
          "velocity": 0.6692913385826772,
          "duration": 0.7758615000000191
        },
        {
          "name": "C#4",
          "midi": 61,
          "time": 77.32752950000061,
          "velocity": 0.6692913385826772,
          "duration": 1.025861316666692
        },
        {
          "name": "B1",
          "midi": 35,
          "time": 77.32752950000061,
          "velocity": 0.5354330708661418,
          "duration": 0.04310341666666773
        },
        {
          "name": "B3",
          "midi": 59,
          "time": 77.32752950000061,
          "velocity": 0.5669291338582677,
          "duration": 0.04310341666666773
        },
        {
          "name": "E5",
          "midi": 76,
          "time": 77.58615000000061,
          "velocity": 0.7874015748031497,
          "duration": 0.5172410000000127
        },
        {
          "name": "E5",
          "midi": 76,
          "time": 77.58615000000061,
          "velocity": 0.7874015748031497,
          "duration": 1.0344820000000254
        },
        {
          "name": "A3",
          "midi": 57,
          "time": 77.58615000000061,
          "velocity": 0.7874015748031497,
          "duration": 0.7672408166666855
        },
        {
          "name": "B1",
          "midi": 35,
          "time": 77.58615000000061,
          "velocity": 0.8740157480314961,
          "duration": 0.04310341666666773
        },
        {
          "name": "B3",
          "midi": 59,
          "time": 77.58615000000061,
          "velocity": 0.8661417322834646,
          "duration": 0.04310341666666773
        },
        {
          "name": "E3",
          "midi": 52,
          "time": 77.84477050000062,
          "velocity": 0.7007874015748031,
          "duration": 0.25862050000000636
        },
        {
          "name": "E3",
          "midi": 52,
          "time": 77.84477050000062,
          "velocity": 0.5511811023622047,
          "duration": 0.5043099750000124
        },
        {
          "name": "F#3",
          "midi": 54,
          "time": 77.84477050000062,
          "velocity": 0.5511811023622047,
          "duration": 0.5172410000000127
        },
        {
          "name": "A3",
          "midi": 57,
          "time": 77.84477050000062,
          "velocity": 0.5511811023622047,
          "duration": 0.758620133333352
        },
        {
          "name": "C#4",
          "midi": 61,
          "time": 77.84477050000062,
          "velocity": 0.5511811023622047,
          "duration": 0.758620133333352
        },
        {
          "name": "B3",
          "midi": 59,
          "time": 77.84477050000062,
          "velocity": 0.6929133858267716,
          "duration": 0.04310341666666773
        },
        {
          "name": "A4",
          "midi": 69,
          "time": 78.10339100000063,
          "velocity": 0.7874015748031497,
          "duration": 0.5172410000000127
        },
        {
          "name": "A4",
          "midi": 69,
          "time": 78.10339100000063,
          "velocity": 0.7874015748031497,
          "duration": 0.5172410000000127
        },
        {
          "name": "F#3",
          "midi": 54,
          "time": 78.10339100000063,
          "velocity": 0.8582677165354331,
          "duration": 0.5043099750000124
        },
        {
          "name": "A2",
          "midi": 45,
          "time": 78.10339100000063,
          "velocity": 0.5905511811023622,
          "duration": 0.49999963333334563
        },
        {
          "name": "E3",
          "midi": 52,
          "time": 78.10339100000063,
          "velocity": 0.5905511811023622,
          "duration": 0.49999963333334563
        },
        {
          "name": "A3",
          "midi": 57,
          "time": 78.10339100000063,
          "velocity": 0.5905511811023622,
          "duration": 0.49999963333334563
        },
        {
          "name": "E2",
          "midi": 40,
          "time": 78.10339100000063,
          "velocity": 0.8740157480314961,
          "duration": 0.04310341666666773
        },
        {
          "name": "F#2",
          "midi": 42,
          "time": 78.10339100000063,
          "velocity": 0.8582677165354331,
          "duration": 0.04310341666666773
        },
        {
          "name": "B3",
          "midi": 59,
          "time": 78.10339100000063,
          "velocity": 0.7165354330708661,
          "duration": 0.04310341666666773
        },
        {
          "name": "F#3",
          "midi": 54,
          "time": 78.36201150000063,
          "velocity": 0.7874015748031497,
          "duration": 0.24999981666667281
        },
        {
          "name": "E3",
          "midi": 52,
          "time": 78.36201150000063,
          "velocity": 0.6929133858267716,
          "duration": 0.24137913333333927
        },
        {
          "name": "E3",
          "midi": 52,
          "time": 78.36201150000063,
          "velocity": 0.5511811023622047,
          "duration": 0.25862050000000636
        },
        {
          "name": "F#3",
          "midi": 54,
          "time": 78.36201150000063,
          "velocity": 0.5511811023622047,
          "duration": 0.25862050000000636
        },
        {
          "name": "A3",
          "midi": 57,
          "time": 78.36201150000063,
          "velocity": 0.5511811023622047,
          "duration": 0.24568947500000604
        },
        {
          "name": "C#4",
          "midi": 61,
          "time": 78.36201150000063,
          "velocity": 0.5511811023622047,
          "duration": 0.24568947500000604
        },
        {
          "name": "B1",
          "midi": 35,
          "time": 78.36201150000063,
          "velocity": 0.5275590551181102,
          "duration": 0.04310341666666773
        },
        {
          "name": "B3",
          "midi": 59,
          "time": 78.36201150000063,
          "velocity": 0.5748031496062992,
          "duration": 0.04310341666666773
        },
        {
          "name": "D5",
          "midi": 74,
          "time": 78.62063200000064,
          "velocity": 0.7874015748031497,
          "duration": 1.8103435000000445
        },
        {
          "name": "G5",
          "midi": 79,
          "time": 78.62063200000064,
          "velocity": 0.7874015748031497,
          "duration": 2.068964000000051
        },
        {
          "name": "B5",
          "midi": 83,
          "time": 78.62063200000064,
          "velocity": 0.7874015748031497,
          "duration": 2.068964000000051
        },
        {
          "name": "B3",
          "midi": 59,
          "time": 78.62063200000064,
          "velocity": 0.7874015748031497,
          "duration": 0.04310341666666773
        },
        {
          "name": "G2",
          "midi": 43,
          "time": 78.62063200000064,
          "velocity": 0.8661417322834646,
          "duration": 0.5086203166666792
        },
        {
          "name": "B3",
          "midi": 59,
          "time": 78.62063200000064,
          "velocity": 0.6299212598425197,
          "duration": 0.3017239166666741
        },
        {
          "name": "D4",
          "midi": 62,
          "time": 78.62063200000064,
          "velocity": 0.6299212598425197,
          "duration": 0.758620133333352
        },
        {
          "name": "G4",
          "midi": 67,
          "time": 78.62063200000064,
          "velocity": 0.6299212598425197,
          "duration": 0.7672408166666855
        },
        {
          "name": "G2",
          "midi": 43,
          "time": 78.62063200000064,
          "velocity": 0.6692913385826772,
          "duration": 0.7672408166666855
        },
        {
          "name": "D3",
          "midi": 50,
          "time": 78.62063200000064,
          "velocity": 0.6692913385826772,
          "duration": 0.5086203166666792
        },
        {
          "name": "G3",
          "midi": 55,
          "time": 78.62063200000064,
          "velocity": 0.6692913385826772,
          "duration": 0.5086203166666792
        },
        {
          "name": "G3",
          "midi": 55,
          "time": 78.62063200000064,
          "velocity": 0.5511811023622047,
          "duration": 0.758620133333352
        },
        {
          "name": "B3",
          "midi": 59,
          "time": 78.62063200000064,
          "velocity": 0.5511811023622047,
          "duration": 0.5172410000000127
        },
        {
          "name": "D4",
          "midi": 62,
          "time": 78.62063200000064,
          "velocity": 0.5511811023622047,
          "duration": 0.758620133333352
        },
        {
          "name": "B1",
          "midi": 35,
          "time": 78.62063200000064,
          "velocity": 0.8740157480314961,
          "duration": 0.04310341666666773
        },
        {
          "name": "B3",
          "midi": 59,
          "time": 78.62063200000064,
          "velocity": 0.8740157480314961,
          "duration": 0.5603444166666804
        },
        {
          "name": "B3",
          "midi": 59,
          "time": 78.87925250000065,
          "velocity": 0.6929133858267716,
          "duration": 0.49999963333334563
        },
        {
          "name": "D4",
          "midi": 62,
          "time": 79.13787300000065,
          "velocity": 0.7874015748031497,
          "duration": 0.25862050000000636
        },
        {
          "name": "G2",
          "midi": 43,
          "time": 79.13787300000065,
          "velocity": 0.5905511811023622,
          "duration": 0.25862050000000636
        },
        {
          "name": "D3",
          "midi": 50,
          "time": 79.13787300000065,
          "velocity": 0.5905511811023622,
          "duration": 0.24137913333333927
        },
        {
          "name": "G3",
          "midi": 55,
          "time": 79.13787300000065,
          "velocity": 0.5905511811023622,
          "duration": 0.24999981666667281
        },
        {
          "name": "E2",
          "midi": 40,
          "time": 79.13787300000065,
          "velocity": 0.8740157480314961,
          "duration": 0.04310341666666773
        },
        {
          "name": "F#2",
          "midi": 42,
          "time": 79.13787300000065,
          "velocity": 0.8740157480314961,
          "duration": 0.04310341666666773
        },
        {
          "name": "B3",
          "midi": 59,
          "time": 79.13787300000065,
          "velocity": 0.7086614173228346,
          "duration": 0.24999981666667281
        },
        {
          "name": "A4",
          "midi": 69,
          "time": 79.39649350000066,
          "velocity": 0.7874015748031497,
          "duration": 0.25862050000000636
        },
        {
          "name": "A4",
          "midi": 69,
          "time": 79.39649350000066,
          "velocity": 0.7874015748031497,
          "duration": 0.25862050000000636
        },
        {
          "name": "C#4",
          "midi": 61,
          "time": 79.39649350000066,
          "velocity": 0.7874015748031497,
          "duration": 0.25862050000000636
        },
        {
          "name": "B2",
          "midi": 47,
          "time": 79.39649350000066,
          "velocity": 0.8503937007874016,
          "duration": 0.5172410000000127
        },
        {
          "name": "B3",
          "midi": 59,
          "time": 79.39649350000066,
          "velocity": 0.5511811023622047,
          "duration": 0.04310341666666773
        },
        {
          "name": "D4",
          "midi": 62,
          "time": 79.39649350000066,
          "velocity": 0.5511811023622047,
          "duration": 0.5086203166666792
        },
        {
          "name": "G4",
          "midi": 67,
          "time": 79.39649350000066,
          "velocity": 0.5511811023622047,
          "duration": 1.2844818166666983
        },
        {
          "name": "G2",
          "midi": 43,
          "time": 79.39649350000066,
          "velocity": 0.5905511811023622,
          "duration": 0.758620133333352
        },
        {
          "name": "D3",
          "midi": 50,
          "time": 79.39649350000066,
          "velocity": 0.5905511811023622,
          "duration": 0.758620133333352
        },
        {
          "name": "G3",
          "midi": 55,
          "time": 79.39649350000066,
          "velocity": 0.5905511811023622,
          "duration": 0.5043099750000124
        },
        {
          "name": "G3",
          "midi": 55,
          "time": 79.39649350000066,
          "velocity": 0.6692913385826772,
          "duration": 0.7672408166666855
        },
        {
          "name": "B3",
          "midi": 59,
          "time": 79.39649350000066,
          "velocity": 0.6692913385826772,
          "duration": 0.3017239166666741
        },
        {
          "name": "D4",
          "midi": 62,
          "time": 79.39649350000066,
          "velocity": 0.6692913385826772,
          "duration": 1.0215509750000251
        },
        {
          "name": "B3",
          "midi": 59,
          "time": 79.39649350000066,
          "velocity": 0.7007874015748031,
          "duration": 0.49999963333334563
        },
        {
          "name": "B4",
          "midi": 71,
          "time": 79.65511400000067,
          "velocity": 0.7874015748031497,
          "duration": 0.25862050000000636
        },
        {
          "name": "B4",
          "midi": 71,
          "time": 79.65511400000067,
          "velocity": 0.7874015748031497,
          "duration": 0.25862050000000636
        },
        {
          "name": "B3",
          "midi": 59,
          "time": 79.65511400000067,
          "velocity": 0.7874015748031497,
          "duration": 0.25862050000000636
        },
        {
          "name": "B1",
          "midi": 35,
          "time": 79.65511400000067,
          "velocity": 0.8740157480314961,
          "duration": 0.04310341666666773
        },
        {
          "name": "B3",
          "midi": 59,
          "time": 79.65511400000067,
          "velocity": 0.7086614173228346,
          "duration": 0.3017239166666741
        },
        {
          "name": "C#5",
          "midi": 73,
          "time": 79.91373450000067,
          "velocity": 0.7874015748031497,
          "duration": 0.25862050000000636
        },
        {
          "name": "C#5",
          "midi": 73,
          "time": 79.91373450000067,
          "velocity": 0.7874015748031497,
          "duration": 0.25862050000000636
        },
        {
          "name": "B3",
          "midi": 59,
          "time": 79.91373450000067,
          "velocity": 0.7874015748031497,
          "duration": 0.25862050000000636
        },
        {
          "name": "D3",
          "midi": 50,
          "time": 79.91373450000067,
          "velocity": 0.6929133858267716,
          "duration": 0.25862050000000636
        },
        {
          "name": "G3",
          "midi": 55,
          "time": 79.91373450000067,
          "velocity": 0.5511811023622047,
          "duration": 0.5086203166666792
        },
        {
          "name": "B3",
          "midi": 59,
          "time": 79.91373450000067,
          "velocity": 0.5511811023622047,
          "duration": 0.3017239166666741
        },
        {
          "name": "D4",
          "midi": 62,
          "time": 79.91373450000067,
          "velocity": 0.5511811023622047,
          "duration": 0.758620133333352
        },
        {
          "name": "B3",
          "midi": 59,
          "time": 79.91373450000067,
          "velocity": 0.7007874015748031,
          "duration": 0.49999963333334563
        },
        {
          "name": "D5",
          "midi": 74,
          "time": 80.17235500000068,
          "velocity": 0.7874015748031497,
          "duration": 0.25862050000000636
        },
        {
          "name": "D5",
          "midi": 74,
          "time": 80.17235500000068,
          "velocity": 0.7874015748031497,
          "duration": 0.5172410000000127
        },
        {
          "name": "E3",
          "midi": 52,
          "time": 80.17235500000068,
          "velocity": 0.8582677165354331,
          "duration": 0.25862050000000636
        },
        {
          "name": "G2",
          "midi": 43,
          "time": 80.17235500000068,
          "velocity": 0.5905511811023622,
          "duration": 0.5043099750000124
        },
        {
          "name": "D3",
          "midi": 50,
          "time": 80.17235500000068,
          "velocity": 0.5905511811023622,
          "duration": 0.49999963333334563
        },
        {
          "name": "G3",
          "midi": 55,
          "time": 80.17235500000068,
          "velocity": 0.5905511811023622,
          "duration": 0.49999963333334563
        },
        {
          "name": "E2",
          "midi": 40,
          "time": 80.17235500000068,
          "velocity": 0.8582677165354331,
          "duration": 0.04310341666666773
        },
        {
          "name": "F#2",
          "midi": 42,
          "time": 80.17235500000068,
          "velocity": 0.8740157480314961,
          "duration": 0.04310341666666773
        },
        {
          "name": "B3",
          "midi": 59,
          "time": 80.17235500000068,
          "velocity": 0.7007874015748031,
          "duration": 0.3017239166666741
        },
        {
          "name": "B4",
          "midi": 71,
          "time": 80.43097550000068,
          "velocity": 0.7874015748031497,
          "duration": 0.25862050000000636
        },
        {
          "name": "B4",
          "midi": 71,
          "time": 80.43097550000068,
          "velocity": 0.7874015748031497,
          "duration": 0.25862050000000636
        },
        {
          "name": "B3",
          "midi": 59,
          "time": 80.43097550000068,
          "velocity": 0.7874015748031497,
          "duration": 0.24137913333333927
        },
        {
          "name": "D3",
          "midi": 50,
          "time": 80.43097550000068,
          "velocity": 0.7165354330708661,
          "duration": 0.25862050000000636
        },
        {
          "name": "G3",
          "midi": 55,
          "time": 80.43097550000068,
          "velocity": 0.5511811023622047,
          "duration": 0.24137913333333927
        },
        {
          "name": "B3",
          "midi": 59,
          "time": 80.43097550000068,
          "velocity": 0.5511811023622047,
          "duration": 0.24137913333333927
        },
        {
          "name": "D4",
          "midi": 62,
          "time": 80.43097550000068,
          "velocity": 0.5511811023622047,
          "duration": 0.24999981666667281
        },
        {
          "name": "B1",
          "midi": 35,
          "time": 80.43097550000068,
          "velocity": 0.5275590551181102,
          "duration": 0.04310341666666773
        },
        {
          "name": "B3",
          "midi": 59,
          "time": 80.43097550000068,
          "velocity": 0.5511811023622047,
          "duration": 0.25862050000000636
        },
        {
          "name": "D5",
          "midi": 74,
          "time": 80.68959600000069,
          "velocity": 0.7874015748031497,
          "duration": 0.5172410000000127
        },
        {
          "name": "B5",
          "midi": 83,
          "time": 80.68959600000069,
          "velocity": 0.7874015748031497,
          "duration": 0.5172410000000127
        },
        {
          "name": "G5",
          "midi": 79,
          "time": 80.68959600000069,
          "velocity": 0.7874015748031497,
          "duration": 0.5172410000000127
        },
        {
          "name": "B3",
          "midi": 59,
          "time": 80.68959600000069,
          "velocity": 0.7874015748031497,
          "duration": 0.5172410000000127
        },
        {
          "name": "G2",
          "midi": 43,
          "time": 80.68959600000069,
          "velocity": 0.8661417322834646,
          "duration": 0.5043099750000124
        },
        {
          "name": "B3",
          "midi": 59,
          "time": 80.68959600000069,
          "velocity": 0.6299212598425197,
          "duration": 0.7672408166666855
        },
        {
          "name": "D4",
          "midi": 62,
          "time": 80.68959600000069,
          "velocity": 0.6299212598425197,
          "duration": 0.7629304750000188
        },
        {
          "name": "G4",
          "midi": 67,
          "time": 80.68959600000069,
          "velocity": 0.6299212598425197,
          "duration": 1.0215509750000251
        },
        {
          "name": "G2",
          "midi": 43,
          "time": 80.68959600000069,
          "velocity": 0.6692913385826772,
          "duration": 0.7629304750000188
        },
        {
          "name": "D3",
          "midi": 50,
          "time": 80.68959600000069,
          "velocity": 0.6692913385826772,
          "duration": 0.08620683333333545
        },
        {
          "name": "G3",
          "midi": 55,
          "time": 80.68959600000069,
          "velocity": 0.6692913385826772,
          "duration": 0.5086203166666792
        },
        {
          "name": "G3",
          "midi": 55,
          "time": 80.68959600000069,
          "velocity": 0.5511811023622047,
          "duration": 0.7629304750000188
        },
        {
          "name": "B3",
          "midi": 59,
          "time": 80.68959600000069,
          "velocity": 0.5511811023622047,
          "duration": 1.0215509750000251
        },
        {
          "name": "D4",
          "midi": 62,
          "time": 80.68959600000069,
          "velocity": 0.5511811023622047,
          "duration": 0.7758615000000191
        },
        {
          "name": "E2",
          "midi": 40,
          "time": 80.68959600000069,
          "velocity": 0.8503937007874016,
          "duration": 0.04310341666666773
        },
        {
          "name": "D3",
          "midi": 50,
          "time": 80.73269941666736,
          "velocity": 0.7007874015748031,
          "duration": 0.46551690000001145
        },
        {
          "name": "E5",
          "midi": 76,
          "time": 80.9482165000007,
          "velocity": 0.7874015748031497,
          "duration": 0.25862050000000636
        },
        {
          "name": "E5",
          "midi": 76,
          "time": 80.9482165000007,
          "velocity": 0.7874015748031497,
          "duration": 0.25862050000000636
        },
        {
          "name": "B1",
          "midi": 35,
          "time": 80.9482165000007,
          "velocity": 0.7007874015748031,
          "duration": 0.04310341666666773
        },
        {
          "name": "F#5",
          "midi": 78,
          "time": 81.2068370000007,
          "velocity": 0.7874015748031497,
          "duration": 0.25862050000000636
        },
        {
          "name": "F#5",
          "midi": 78,
          "time": 81.2068370000007,
          "velocity": 0.7874015748031497,
          "duration": 0.25862050000000636
        },
        {
          "name": "D5",
          "midi": 74,
          "time": 81.2068370000007,
          "velocity": 0.7874015748031497,
          "duration": 0.5172410000000127
        },
        {
          "name": "G5",
          "midi": 79,
          "time": 81.2068370000007,
          "velocity": 0.7874015748031497,
          "duration": 0.5172410000000127
        },
        {
          "name": "B5",
          "midi": 83,
          "time": 81.2068370000007,
          "velocity": 0.7874015748031497,
          "duration": 0.5172410000000127
        },
        {
          "name": "D4",
          "midi": 62,
          "time": 81.2068370000007,
          "velocity": 0.7874015748031497,
          "duration": 0.49999963333334563
        },
        {
          "name": "G2",
          "midi": 43,
          "time": 81.2068370000007,
          "velocity": 0.5905511811023622,
          "duration": 0.25862050000000636
        },
        {
          "name": "D3",
          "midi": 50,
          "time": 81.2068370000007,
          "velocity": 0.5905511811023622,
          "duration": 0.24568947500000604
        },
        {
          "name": "G3",
          "midi": 55,
          "time": 81.2068370000007,
          "velocity": 0.5905511811023622,
          "duration": 0.24999981666667281
        },
        {
          "name": "B1",
          "midi": 35,
          "time": 81.2068370000007,
          "velocity": 0.7007874015748031,
          "duration": 0.04310341666666773
        },
        {
          "name": "E5",
          "midi": 76,
          "time": 81.46545750000071,
          "velocity": 0.7874015748031497,
          "duration": 0.5172410000000127
        },
        {
          "name": "E5",
          "midi": 76,
          "time": 81.46545750000071,
          "velocity": 0.7874015748031497,
          "duration": 0.7758615000000191
        },
        {
          "name": "C#4",
          "midi": 61,
          "time": 81.46545750000071,
          "velocity": 0.7874015748031497,
          "duration": 0.25862050000000636
        },
        {
          "name": "B2",
          "midi": 47,
          "time": 81.46545750000071,
          "velocity": 0.8661417322834646,
          "duration": 0.25862050000000636
        },
        {
          "name": "G2",
          "midi": 43,
          "time": 81.46545750000071,
          "velocity": 0.5905511811023622,
          "duration": 0.24999981666667281
        },
        {
          "name": "D3",
          "midi": 50,
          "time": 81.46545750000071,
          "velocity": 0.5905511811023622,
          "duration": 0.04310341666666773
        },
        {
          "name": "G3",
          "midi": 55,
          "time": 81.46545750000071,
          "velocity": 0.5905511811023622,
          "duration": 0.24137913333333927
        },
        {
          "name": "G3",
          "midi": 55,
          "time": 81.46545750000071,
          "velocity": 0.6692913385826772,
          "duration": 0.24999981666667281
        },
        {
          "name": "B3",
          "midi": 59,
          "time": 81.46545750000071,
          "velocity": 0.6692913385826772,
          "duration": 0.24568947500000604
        },
        {
          "name": "D4",
          "midi": 62,
          "time": 81.46545750000071,
          "velocity": 0.6692913385826772,
          "duration": 0.24999981666667281
        },
        {
          "name": "D3",
          "midi": 50,
          "time": 81.46545750000071,
          "velocity": 0.8661417322834646,
          "duration": 0.24568947500000604
        },
        {
          "name": "C3",
          "midi": 48,
          "time": 81.50856091666738,
          "velocity": 0.7007874015748031,
          "duration": 0.04310341666666773
        },
        {
          "name": "C#5",
          "midi": 73,
          "time": 81.72407800000072,
          "velocity": 0.7874015748031497,
          "duration": 0.25862050000000636
        },
        {
          "name": "E5",
          "midi": 76,
          "time": 81.72407800000072,
          "velocity": 0.7874015748031497,
          "duration": 0.5172410000000127
        },
        {
          "name": "A5",
          "midi": 81,
          "time": 81.72407800000072,
          "velocity": 0.7874015748031497,
          "duration": 0.25862050000000636
        },
        {
          "name": "A3",
          "midi": 57,
          "time": 81.72407800000072,
          "velocity": 0.7874015748031497,
          "duration": 0.5043099750000124
        },
        {
          "name": "A2",
          "midi": 45,
          "time": 81.72407800000072,
          "velocity": 0.8661417322834646,
          "duration": 0.24568947500000604
        },
        {
          "name": "A3",
          "midi": 57,
          "time": 81.72407800000072,
          "velocity": 0.6299212598425197,
          "duration": 0.5172410000000127
        },
        {
          "name": "C#4",
          "midi": 61,
          "time": 81.72407800000072,
          "velocity": 0.6299212598425197,
          "duration": 0.758620133333352
        },
        {
          "name": "E4",
          "midi": 64,
          "time": 81.72407800000072,
          "velocity": 0.6299212598425197,
          "duration": 1.0215509750000251
        },
        {
          "name": "A2",
          "midi": 45,
          "time": 81.72407800000072,
          "velocity": 0.6692913385826772,
          "duration": 0.49999963333334563
        },
        {
          "name": "E3",
          "midi": 52,
          "time": 81.72407800000072,
          "velocity": 0.6692913385826772,
          "duration": 0.5086203166666792
        },
        {
          "name": "A3",
          "midi": 57,
          "time": 81.72407800000072,
          "velocity": 0.6692913385826772,
          "duration": 0.758620133333352
        },
        {
          "name": "E3",
          "midi": 52,
          "time": 81.72407800000072,
          "velocity": 0.6692913385826772,
          "duration": 0.7629304750000188
        },
        {
          "name": "A3",
          "midi": 57,
          "time": 81.72407800000072,
          "velocity": 0.6692913385826772,
          "duration": 1.0172406333333583
        },
        {
          "name": "C#4",
          "midi": 61,
          "time": 81.72407800000072,
          "velocity": 0.6692913385826772,
          "duration": 1.025861316666692
        },
        {
          "name": "B1",
          "midi": 35,
          "time": 81.72407800000072,
          "velocity": 0.7165354330708661,
          "duration": 0.04310341666666773
        },
        {
          "name": "A4",
          "midi": 69,
          "time": 81.98269850000072,
          "velocity": 0.7874015748031497,
          "duration": 0.12931025000000318
        },
        {
          "name": "B2",
          "midi": 47,
          "time": 81.98269850000072,
          "velocity": 0.6929133858267716,
          "duration": 0.25862050000000636
        },
        {
          "name": "B1",
          "midi": 35,
          "time": 81.98269850000072,
          "velocity": 0.7165354330708661,
          "duration": 0.04310341666666773
        },
        {
          "name": "A4",
          "midi": 69,
          "time": 82.11200875000073,
          "velocity": 0.7874015748031497,
          "duration": 0.12931025000000318
        },
        {
          "name": "A4",
          "midi": 69,
          "time": 82.24131900000073,
          "velocity": 0.7874015748031497,
          "duration": 0.12931025000000318
        },
        {
          "name": "A4",
          "midi": 69,
          "time": 82.24131900000073,
          "velocity": 0.7874015748031497,
          "duration": 0.12931025000000318
        },
        {
          "name": "B4",
          "midi": 71,
          "time": 82.24131900000073,
          "velocity": 0.7874015748031497,
          "duration": 0.12931025000000318
        },
        {
          "name": "A3",
          "midi": 57,
          "time": 82.24131900000073,
          "velocity": 0.7874015748031497,
          "duration": 0.49999963333334563
        },
        {
          "name": "A2",
          "midi": 45,
          "time": 82.24131900000073,
          "velocity": 0.6929133858267716,
          "duration": 0.25862050000000636
        },
        {
          "name": "A2",
          "midi": 45,
          "time": 82.24131900000073,
          "velocity": 0.5905511811023622,
          "duration": 0.49999963333334563
        },
        {
          "name": "E3",
          "midi": 52,
          "time": 82.24131900000073,
          "velocity": 0.5905511811023622,
          "duration": 0.5086203166666792
        },
        {
          "name": "A3",
          "midi": 57,
          "time": 82.24131900000073,
          "velocity": 0.5905511811023622,
          "duration": 0.49999963333334563
        },
        {
          "name": "C3",
          "midi": 48,
          "time": 82.24131900000073,
          "velocity": 0.8740157480314961,
          "duration": 0.04310341666666773
        },
        {
          "name": "B2",
          "midi": 47,
          "time": 82.2844224166674,
          "velocity": 0.7007874015748031,
          "duration": 0.04310341666666773
        },
        {
          "name": "B4",
          "midi": 71,
          "time": 82.37062925000073,
          "velocity": 0.7874015748031497,
          "duration": 0.12931025000000318
        },
        {
          "name": "B4",
          "midi": 71,
          "time": 82.37062925000073,
          "velocity": 0.7874015748031497,
          "duration": 0.12931025000000318
        },
        {
          "name": "D5",
          "midi": 74,
          "time": 82.37062925000073,
          "velocity": 0.7874015748031497,
          "duration": 0.12931025000000318
        },
        {
          "name": "D5",
          "midi": 74,
          "time": 82.49993950000074,
          "velocity": 0.7874015748031497,
          "duration": 0.12931025000000318
        },
        {
          "name": "D5",
          "midi": 74,
          "time": 82.49993950000074,
          "velocity": 0.7874015748031497,
          "duration": 0.12931025000000318
        },
        {
          "name": "D5",
          "midi": 74,
          "time": 82.49993950000074,
          "velocity": 0.7874015748031497,
          "duration": 0.12931025000000318
        },
        {
          "name": "F#2",
          "midi": 42,
          "time": 82.49993950000074,
          "velocity": 0.7086614173228346,
          "duration": 0.25862050000000636
        },
        {
          "name": "E3",
          "midi": 52,
          "time": 82.49993950000074,
          "velocity": 0.5511811023622047,
          "duration": 0.24999981666667281
        },
        {
          "name": "A3",
          "midi": 57,
          "time": 82.49993950000074,
          "velocity": 0.5511811023622047,
          "duration": 0.25862050000000636
        },
        {
          "name": "C#4",
          "midi": 61,
          "time": 82.49993950000074,
          "velocity": 0.5511811023622047,
          "duration": 0.24999981666667281
        },
        {
          "name": "B1",
          "midi": 35,
          "time": 82.49993950000074,
          "velocity": 0.6929133858267716,
          "duration": 0.04310341666666773
        },
        {
          "name": "B4",
          "midi": 71,
          "time": 82.62924975000074,
          "velocity": 0.7874015748031497,
          "duration": 0.12931025000000318
        },
        {
          "name": "B4",
          "midi": 71,
          "time": 82.62924975000074,
          "velocity": 0.7874015748031497,
          "duration": 0.12931025000000318
        },
        {
          "name": "B4",
          "midi": 71,
          "time": 82.62924975000074,
          "velocity": 0.7874015748031497,
          "duration": 0.12931025000000318
        },
        {
          "name": "A3",
          "midi": 57,
          "time": 82.75424965833407,
          "velocity": 0.8661417322834646,
          "duration": 0.004310341666666773
        },
        {
          "name": "F#5",
          "midi": 78,
          "time": 82.75856000000074,
          "velocity": 0.7874015748031497,
          "duration": 0.38793075000000954
        },
        {
          "name": "F#5",
          "midi": 78,
          "time": 82.75856000000074,
          "velocity": 0.7874015748031497,
          "duration": 0.38793075000000954
        },
        {
          "name": "G4",
          "midi": 67,
          "time": 82.75856000000074,
          "velocity": 0.7874015748031497,
          "duration": 0.7629304750000188
        },
        {
          "name": "B4",
          "midi": 71,
          "time": 82.75856000000074,
          "velocity": 0.7874015748031497,
          "duration": 0.7758615000000191
        },
        {
          "name": "D5",
          "midi": 74,
          "time": 82.75856000000074,
          "velocity": 0.7874015748031497,
          "duration": 0.7758615000000191
        },
        {
          "name": "F#5",
          "midi": 78,
          "time": 82.75856000000074,
          "velocity": 0.7874015748031497,
          "duration": 0.7758615000000191
        },
        {
          "name": "E3",
          "midi": 52,
          "time": 82.75856000000074,
          "velocity": 0.7874015748031497,
          "duration": 0.5086203166666792
        },
        {
          "name": "E2",
          "midi": 40,
          "time": 82.75856000000074,
          "velocity": 0.8582677165354331,
          "duration": 0.5043099750000124
        },
        {
          "name": "B3",
          "midi": 59,
          "time": 82.75856000000074,
          "velocity": 0.6299212598425197,
          "duration": 0.04310341666666773
        },
        {
          "name": "D4",
          "midi": 62,
          "time": 82.75856000000074,
          "velocity": 0.6299212598425197,
          "duration": 0.758620133333352
        },
        {
          "name": "F#4",
          "midi": 66,
          "time": 82.75856000000074,
          "velocity": 0.6299212598425197,
          "duration": 0.7629304750000188
        },
        {
          "name": "G4",
          "midi": 67,
          "time": 82.75856000000074,
          "velocity": 0.6299212598425197,
          "duration": 0.7758615000000191
        },
        {
          "name": "E2",
          "midi": 40,
          "time": 82.75856000000074,
          "velocity": 0.6692913385826772,
          "duration": 0.5603444166666804
        },
        {
          "name": "B2",
          "midi": 47,
          "time": 82.75856000000074,
          "velocity": 0.6692913385826772,
          "duration": 0.5043099750000124
        },
        {
          "name": "E3",
          "midi": 52,
          "time": 82.75856000000074,
          "velocity": 0.6692913385826772,
          "duration": 0.5172410000000127
        },
        {
          "name": "F#3",
          "midi": 54,
          "time": 82.75856000000074,
          "velocity": 0.5511811023622047,
          "duration": 0.758620133333352
        },
        {
          "name": "G3",
          "midi": 55,
          "time": 82.75856000000074,
          "velocity": 0.5511811023622047,
          "duration": 0.758620133333352
        },
        {
          "name": "B3",
          "midi": 59,
          "time": 82.75856000000074,
          "velocity": 0.5511811023622047,
          "duration": 0.3017239166666741
        },
        {
          "name": "D4",
          "midi": 62,
          "time": 82.75856000000074,
          "velocity": 0.5511811023622047,
          "duration": 0.7629304750000188
        },
        {
          "name": "B1",
          "midi": 35,
          "time": 82.75856000000074,
          "velocity": 0.8582677165354331,
          "duration": 0.04310341666666773
        },
        {
          "name": "B3",
          "midi": 59,
          "time": 82.75856000000074,
          "velocity": 0.8503937007874016,
          "duration": 0.5603444166666804
        },
        {
          "name": "B3",
          "midi": 59,
          "time": 83.01718050000075,
          "velocity": 0.6929133858267716,
          "duration": 0.5043099750000124
        },
        {
          "name": "F#5",
          "midi": 78,
          "time": 83.14649075000075,
          "velocity": 0.7874015748031497,
          "duration": 0.38793075000000954
        },
        {
          "name": "F#5",
          "midi": 78,
          "time": 83.14649075000075,
          "velocity": 0.7874015748031497,
          "duration": 0.38793075000000954
        },
        {
          "name": "E3",
          "midi": 52,
          "time": 83.27580100000075,
          "velocity": 0.7874015748031497,
          "duration": 0.24568947500000604
        },
        {
          "name": "E2",
          "midi": 40,
          "time": 83.27580100000075,
          "velocity": 0.5905511811023622,
          "duration": 0.24568947500000604
        },
        {
          "name": "B2",
          "midi": 47,
          "time": 83.27580100000075,
          "velocity": 0.5905511811023622,
          "duration": 0.24568947500000604
        },
        {
          "name": "E3",
          "midi": 52,
          "time": 83.27580100000075,
          "velocity": 0.5905511811023622,
          "duration": 0.5172410000000127
        },
        {
          "name": "E2",
          "midi": 40,
          "time": 83.27580100000075,
          "velocity": 0.8503937007874016,
          "duration": 0.25862050000000636
        },
        {
          "name": "F#2",
          "midi": 42,
          "time": 83.27580100000075,
          "velocity": 0.8503937007874016,
          "duration": 0.04310341666666773
        },
        {
          "name": "B3",
          "midi": 59,
          "time": 83.27580100000075,
          "velocity": 0.7007874015748031,
          "duration": 0.24999981666667281
        },
        {
          "name": "E5",
          "midi": 76,
          "time": 83.53442150000076,
          "velocity": 0.7874015748031497,
          "duration": 0.7758615000000191
        },
        {
          "name": "E5",
          "midi": 76,
          "time": 83.53442150000076,
          "velocity": 0.7874015748031497,
          "duration": 0.7758615000000191
        },
        {
          "name": "A4",
          "midi": 69,
          "time": 83.53442150000076,
          "velocity": 0.7874015748031497,
          "duration": 0.7758615000000191
        },
        {
          "name": "C#5",
          "midi": 73,
          "time": 83.53442150000076,
          "velocity": 0.7874015748031497,
          "duration": 0.7758615000000191
        },
        {
          "name": "E5",
          "midi": 76,
          "time": 83.53442150000076,
          "velocity": 0.7874015748031497,
          "duration": 0.7758615000000191
        },
        {
          "name": "A2",
          "midi": 45,
          "time": 83.53442150000076,
          "velocity": 0.8740157480314961,
          "duration": 0.5172410000000127
        },
        {
          "name": "C#4",
          "midi": 61,
          "time": 83.53442150000076,
          "velocity": 0.6299212598425197,
          "duration": 0.49999963333334563
        },
        {
          "name": "E4",
          "midi": 64,
          "time": 83.53442150000076,
          "velocity": 0.6299212598425197,
          "duration": 1.2844818166666983
        },
        {
          "name": "A4",
          "midi": 69,
          "time": 83.53442150000076,
          "velocity": 0.6299212598425197,
          "duration": 0.9051717500000223
        },
        {
          "name": "A2",
          "midi": 45,
          "time": 83.53442150000076,
          "velocity": 0.5905511811023622,
          "duration": 0.7672408166666855
        },
        {
          "name": "E3",
          "midi": 52,
          "time": 83.53442150000076,
          "velocity": 0.5905511811023622,
          "duration": 0.49999963333334563
        },
        {
          "name": "A3",
          "midi": 57,
          "time": 83.53442150000076,
          "velocity": 0.5905511811023622,
          "duration": 0.5086203166666792
        },
        {
          "name": "E3",
          "midi": 52,
          "time": 83.53442150000076,
          "velocity": 0.6692913385826772,
          "duration": 0.7629304750000188
        },
        {
          "name": "A3",
          "midi": 57,
          "time": 83.53442150000076,
          "velocity": 0.6692913385826772,
          "duration": 0.7629304750000188
        },
        {
          "name": "C#4",
          "midi": 61,
          "time": 83.53442150000076,
          "velocity": 0.6692913385826772,
          "duration": 1.025861316666692
        },
        {
          "name": "B1",
          "midi": 35,
          "time": 83.53442150000076,
          "velocity": 0.5748031496062992,
          "duration": 0.04310341666666773
        },
        {
          "name": "B3",
          "midi": 59,
          "time": 83.53442150000076,
          "velocity": 0.7165354330708661,
          "duration": 0.04310341666666773
        },
        {
          "name": "A3",
          "midi": 57,
          "time": 83.79304200000077,
          "velocity": 0.7874015748031497,
          "duration": 0.5172410000000127
        },
        {
          "name": "B1",
          "midi": 35,
          "time": 83.79304200000077,
          "velocity": 0.8582677165354331,
          "duration": 0.04310341666666773
        },
        {
          "name": "B3",
          "midi": 59,
          "time": 83.79304200000077,
          "velocity": 0.6929133858267716,
          "duration": 0.04310341666666773
        },
        {
          "name": "E3",
          "midi": 52,
          "time": 84.05166250000077,
          "velocity": 0.7007874015748031,
          "duration": 0.25862050000000636
        },
        {
          "name": "E3",
          "midi": 52,
          "time": 84.05166250000077,
          "velocity": 0.5511811023622047,
          "duration": 0.49999963333334563
        },
        {
          "name": "A3",
          "midi": 57,
          "time": 84.05166250000077,
          "velocity": 0.5511811023622047,
          "duration": 0.5086203166666792
        },
        {
          "name": "C#4",
          "midi": 61,
          "time": 84.05166250000077,
          "velocity": 0.5511811023622047,
          "duration": 0.7629304750000188
        },
        {
          "name": "B3",
          "midi": 59,
          "time": 84.05166250000077,
          "velocity": 0.7086614173228346,
          "duration": 0.04310341666666773
        },
        {
          "name": "A4",
          "midi": 69,
          "time": 84.31028300000078,
          "velocity": 0.7874015748031497,
          "duration": 0.12931025000000318
        },
        {
          "name": "A4",
          "midi": 69,
          "time": 84.31028300000078,
          "velocity": 0.7874015748031497,
          "duration": 0.49999963333334563
        },
        {
          "name": "A4",
          "midi": 69,
          "time": 84.31028300000078,
          "velocity": 0.7874015748031497,
          "duration": 0.5172410000000127
        },
        {
          "name": "A3",
          "midi": 57,
          "time": 84.31028300000078,
          "velocity": 0.7874015748031497,
          "duration": 0.49999963333334563
        },
        {
          "name": "F#3",
          "midi": 54,
          "time": 84.31028300000078,
          "velocity": 0.8582677165354331,
          "duration": 0.25862050000000636
        },
        {
          "name": "A2",
          "midi": 45,
          "time": 84.31028300000078,
          "velocity": 0.5905511811023622,
          "duration": 0.5043099750000124
        },
        {
          "name": "E3",
          "midi": 52,
          "time": 84.31028300000078,
          "velocity": 0.5905511811023622,
          "duration": 0.5043099750000124
        },
        {
          "name": "A3",
          "midi": 57,
          "time": 84.31028300000078,
          "velocity": 0.5905511811023622,
          "duration": 0.5043099750000124
        },
        {
          "name": "E2",
          "midi": 40,
          "time": 84.31028300000078,
          "velocity": 0.8582677165354331,
          "duration": 0.04310341666666773
        },
        {
          "name": "A#2",
          "midi": 46,
          "time": 84.31028300000078,
          "velocity": 0.8661417322834646,
          "duration": 0.04310341666666773
        },
        {
          "name": "B3",
          "midi": 59,
          "time": 84.31028300000078,
          "velocity": 0.6929133858267716,
          "duration": 0.04310341666666773
        },
        {
          "name": "B4",
          "midi": 71,
          "time": 84.43959325000078,
          "velocity": 0.7874015748031497,
          "duration": 0.12931025000000318
        },
        {
          "name": "B4",
          "midi": 71,
          "time": 84.43959325000078,
          "velocity": 0.7874015748031497,
          "duration": 0.12931025000000318
        },
        {
          "name": "C#5",
          "midi": 73,
          "time": 84.56890350000079,
          "velocity": 0.7874015748031497,
          "duration": 0.12931025000000318
        },
        {
          "name": "C#5",
          "midi": 73,
          "time": 84.56890350000079,
          "velocity": 0.7874015748031497,
          "duration": 0.12931025000000318
        },
        {
          "name": "E3",
          "midi": 52,
          "time": 84.56890350000079,
          "velocity": 0.6929133858267716,
          "duration": 0.24999981666667281
        },
        {
          "name": "E3",
          "midi": 52,
          "time": 84.56890350000079,
          "velocity": 0.5511811023622047,
          "duration": 0.25862050000000636
        },
        {
          "name": "A3",
          "midi": 57,
          "time": 84.56890350000079,
          "velocity": 0.5511811023622047,
          "duration": 0.25862050000000636
        },
        {
          "name": "C#4",
          "midi": 61,
          "time": 84.56890350000079,
          "velocity": 0.5511811023622047,
          "duration": 0.24999981666667281
        },
        {
          "name": "B3",
          "midi": 59,
          "time": 84.56890350000079,
          "velocity": 0.5748031496062992,
          "duration": 0.04310341666666773
        },
        {
          "name": "A4",
          "midi": 69,
          "time": 84.69821375000079,
          "velocity": 0.7874015748031497,
          "duration": 0.12931025000000318
        },
        {
          "name": "A4",
          "midi": 69,
          "time": 84.69821375000079,
          "velocity": 0.7874015748031497,
          "duration": 0.12931025000000318
        },
        {
          "name": "E5",
          "midi": 76,
          "time": 84.82752400000079,
          "velocity": 0.7874015748031497,
          "duration": 0.38793075000000954
        },
        {
          "name": "E5",
          "midi": 76,
          "time": 84.82752400000079,
          "velocity": 0.7874015748031497,
          "duration": 0.38793075000000954
        },
        {
          "name": "A4",
          "midi": 69,
          "time": 84.82752400000079,
          "velocity": 0.7874015748031497,
          "duration": 0.7758615000000191
        },
        {
          "name": "C#5",
          "midi": 73,
          "time": 84.82752400000079,
          "velocity": 0.7874015748031497,
          "duration": 0.7758615000000191
        },
        {
          "name": "E5",
          "midi": 76,
          "time": 84.82752400000079,
          "velocity": 0.7874015748031497,
          "duration": 0.7758615000000191
        },
        {
          "name": "F#3",
          "midi": 54,
          "time": 84.82752400000079,
          "velocity": 0.7874015748031497,
          "duration": 0.5043099750000124
        },
        {
          "name": "F#2",
          "midi": 42,
          "time": 84.82752400000079,
          "velocity": 0.8503937007874016,
          "duration": 0.5043099750000124
        },
        {
          "name": "A3",
          "midi": 57,
          "time": 84.82752400000079,
          "velocity": 0.6299212598425197,
          "duration": 0.758620133333352
        },
        {
          "name": "C#4",
          "midi": 61,
          "time": 84.82752400000079,
          "velocity": 0.6299212598425197,
          "duration": 0.758620133333352
        },
        {
          "name": "E4",
          "midi": 64,
          "time": 84.82752400000079,
          "velocity": 0.6299212598425197,
          "duration": 0.758620133333352
        },
        {
          "name": "F#2",
          "midi": 42,
          "time": 84.82752400000079,
          "velocity": 0.6692913385826772,
          "duration": 0.5603444166666804
        },
        {
          "name": "C#3",
          "midi": 49,
          "time": 84.82752400000079,
          "velocity": 0.6692913385826772,
          "duration": 0.5043099750000124
        },
        {
          "name": "F#3",
          "midi": 54,
          "time": 84.82752400000079,
          "velocity": 0.6692913385826772,
          "duration": 0.5172410000000127
        },
        {
          "name": "E3",
          "midi": 52,
          "time": 84.82752400000079,
          "velocity": 0.5511811023622047,
          "duration": 0.7672408166666855
        },
        {
          "name": "A3",
          "midi": 57,
          "time": 84.82752400000079,
          "velocity": 0.5511811023622047,
          "duration": 0.7629304750000188
        },
        {
          "name": "C#4",
          "midi": 61,
          "time": 84.82752400000079,
          "velocity": 0.5511811023622047,
          "duration": 0.7672408166666855
        },
        {
          "name": "B1",
          "midi": 35,
          "time": 84.82752400000079,
          "velocity": 0.8740157480314961,
          "duration": 0.04310341666666773
        },
        {
          "name": "B3",
          "midi": 59,
          "time": 84.82752400000079,
          "velocity": 0.8503937007874016,
          "duration": 0.04310341666666773
        },
        {
          "name": "B3",
          "midi": 59,
          "time": 85.0861445000008,
          "velocity": 0.7007874015748031,
          "duration": 0.04310341666666773
        },
        {
          "name": "E5",
          "midi": 76,
          "time": 85.2154547500008,
          "velocity": 0.7874015748031497,
          "duration": 0.38793075000000954
        },
        {
          "name": "E5",
          "midi": 76,
          "time": 85.2154547500008,
          "velocity": 0.7874015748031497,
          "duration": 0.38793075000000954
        },
        {
          "name": "F#3",
          "midi": 54,
          "time": 85.3447650000008,
          "velocity": 0.7874015748031497,
          "duration": 0.24137913333333927
        },
        {
          "name": "F#2",
          "midi": 42,
          "time": 85.3447650000008,
          "velocity": 0.5905511811023622,
          "duration": 0.24568947500000604
        },
        {
          "name": "C#3",
          "midi": 49,
          "time": 85.3447650000008,
          "velocity": 0.5905511811023622,
          "duration": 0.24137913333333927
        },
        {
          "name": "F#3",
          "midi": 54,
          "time": 85.3447650000008,
          "velocity": 0.5905511811023622,
          "duration": 0.5172410000000127
        },
        {
          "name": "E2",
          "midi": 40,
          "time": 85.3447650000008,
          "velocity": 0.8740157480314961,
          "duration": 0.04310341666666773
        },
        {
          "name": "F#2",
          "midi": 42,
          "time": 85.3447650000008,
          "velocity": 0.8582677165354331,
          "duration": 0.25862050000000636
        },
        {
          "name": "B3",
          "midi": 59,
          "time": 85.3447650000008,
          "velocity": 0.5433070866141733,
          "duration": 0.04310341666666773
        },
        {
          "name": "D5",
          "midi": 74,
          "time": 85.60338550000081,
          "velocity": 0.7874015748031497,
          "duration": 0.12931025000000318
        },
        {
          "name": "D5",
          "midi": 74,
          "time": 85.60338550000081,
          "velocity": 0.7874015748031497,
          "duration": 0.12931025000000318
        },
        {
          "name": "B4",
          "midi": 71,
          "time": 85.60338550000081,
          "velocity": 0.7874015748031497,
          "duration": 0.7758615000000191
        },
        {
          "name": "D5",
          "midi": 74,
          "time": 85.60338550000081,
          "velocity": 0.7874015748031497,
          "duration": 0.7758615000000191
        },
        {
          "name": "F#5",
          "midi": 78,
          "time": 85.60338550000081,
          "velocity": 0.7874015748031497,
          "duration": 0.7758615000000191
        },
        {
          "name": "B2",
          "midi": 47,
          "time": 85.60338550000081,
          "velocity": 0.8503937007874016,
          "duration": 0.24568947500000604
        },
        {
          "name": "D4",
          "midi": 62,
          "time": 85.60338550000081,
          "velocity": 0.6299212598425197,
          "duration": 1.2844818166666983
        },
        {
          "name": "F#4",
          "midi": 66,
          "time": 85.60338550000081,
          "velocity": 0.6299212598425197,
          "duration": 1.2758611333333647
        },
        {
          "name": "A4",
          "midi": 69,
          "time": 85.60338550000081,
          "velocity": 0.6299212598425197,
          "duration": 0.9051717500000223
        },
        {
          "name": "B2",
          "midi": 47,
          "time": 85.60338550000081,
          "velocity": 0.5905511811023622,
          "duration": 0.758620133333352
        },
        {
          "name": "F#3",
          "midi": 54,
          "time": 85.60338550000081,
          "velocity": 0.5905511811023622,
          "duration": 0.49999963333334563
        },
        {
          "name": "B3",
          "midi": 59,
          "time": 85.60338550000081,
          "velocity": 0.5905511811023622,
          "duration": 0.04310341666666773
        },
        {
          "name": "D3",
          "midi": 50,
          "time": 85.60338550000081,
          "velocity": 0.6692913385826772,
          "duration": 0.5086203166666792
        },
        {
          "name": "F#3",
          "midi": 54,
          "time": 85.60338550000081,
          "velocity": 0.6692913385826772,
          "duration": 0.7672408166666855
        },
        {
          "name": "A3",
          "midi": 57,
          "time": 85.60338550000081,
          "velocity": 0.6692913385826772,
          "duration": 0.5086203166666792
        },
        {
          "name": "B1",
          "midi": 35,
          "time": 85.60338550000081,
          "velocity": 0.5354330708661418,
          "duration": 0.04310341666666773
        },
        {
          "name": "B3",
          "midi": 59,
          "time": 85.60338550000081,
          "velocity": 0.8661417322834646,
          "duration": 0.3017239166666741
        },
        {
          "name": "C#5",
          "midi": 73,
          "time": 85.73269575000081,
          "velocity": 0.7874015748031497,
          "duration": 0.12931025000000318
        },
        {
          "name": "C#5",
          "midi": 73,
          "time": 85.73269575000081,
          "velocity": 0.7874015748031497,
          "duration": 0.12931025000000318
        },
        {
          "name": "B4",
          "midi": 71,
          "time": 85.86200600000082,
          "velocity": 0.7874015748031497,
          "duration": 0.5172410000000127
        },
        {
          "name": "B4",
          "midi": 71,
          "time": 85.86200600000082,
          "velocity": 0.7874015748031497,
          "duration": 0.5172410000000127
        },
        {
          "name": "B3",
          "midi": 59,
          "time": 85.86200600000082,
          "velocity": 0.7874015748031497,
          "duration": 0.3017239166666741
        },
        {
          "name": "A2",
          "midi": 45,
          "time": 85.86200600000082,
          "velocity": 0.6929133858267716,
          "duration": 0.25862050000000636
        },
        {
          "name": "B1",
          "midi": 35,
          "time": 85.86200600000082,
          "velocity": 0.8582677165354331,
          "duration": 0.04310341666666773
        },
        {
          "name": "B3",
          "midi": 59,
          "time": 85.86200600000082,
          "velocity": 0.7165354330708661,
          "duration": 0.5043099750000124
        },
        {
          "name": "B2",
          "midi": 47,
          "time": 86.12062650000082,
          "velocity": 0.7086614173228346,
          "duration": 0.25862050000000636
        },
        {
          "name": "D3",
          "midi": 50,
          "time": 86.12062650000082,
          "velocity": 0.5511811023622047,
          "duration": 0.5043099750000124
        },
        {
          "name": "F#3",
          "midi": 54,
          "time": 86.12062650000082,
          "velocity": 0.5511811023622047,
          "duration": 0.5043099750000124
        },
        {
          "name": "A3",
          "midi": 57,
          "time": 86.12062650000082,
          "velocity": 0.5511811023622047,
          "duration": 0.5043099750000124
        },
        {
          "name": "B3",
          "midi": 59,
          "time": 86.12062650000082,
          "velocity": 0.7086614173228346,
          "duration": 0.25862050000000636
        },
        {
          "name": "A4",
          "midi": 69,
          "time": 86.37924700000083,
          "velocity": 0.7874015748031497,
          "duration": 0.12931025000000318
        },
        {
          "name": "A4",
          "midi": 69,
          "time": 86.37924700000083,
          "velocity": 0.7874015748031497,
          "duration": 0.5086203166666792
        },
        {
          "name": "A5",
          "midi": 81,
          "time": 86.37924700000083,
          "velocity": 0.7874015748031497,
          "duration": 0.12931025000000318
        },
        {
          "name": "B3",
          "midi": 59,
          "time": 86.37924700000083,
          "velocity": 0.7874015748031497,
          "duration": 0.04310341666666773
        },
        {
          "name": "A2",
          "midi": 45,
          "time": 86.37924700000083,
          "velocity": 0.7165354330708661,
          "duration": 0.25862050000000636
        },
        {
          "name": "B2",
          "midi": 47,
          "time": 86.37924700000083,
          "velocity": 0.5905511811023622,
          "duration": 0.5086203166666792
        },
        {
          "name": "F#3",
          "midi": 54,
          "time": 86.37924700000083,
          "velocity": 0.5905511811023622,
          "duration": 0.49999963333334563
        },
        {
          "name": "B3",
          "midi": 59,
          "time": 86.37924700000083,
          "velocity": 0.5905511811023622,
          "duration": 0.3017239166666741
        },
        {
          "name": "E2",
          "midi": 40,
          "time": 86.37924700000083,
          "velocity": 0.8582677165354331,
          "duration": 0.04310341666666773
        },
        {
          "name": "F#2",
          "midi": 42,
          "time": 86.37924700000083,
          "velocity": 0.8503937007874016,
          "duration": 0.04310341666666773
        },
        {
          "name": "B3",
          "midi": 59,
          "time": 86.37924700000083,
          "velocity": 0.7007874015748031,
          "duration": 0.5043099750000124
        },
        {
          "name": "B4",
          "midi": 71,
          "time": 86.50855725000083,
          "velocity": 0.7874015748031497,
          "duration": 0.12931025000000318
        },
        {
          "name": "B4",
          "midi": 71,
          "time": 86.50855725000083,
          "velocity": 0.7874015748031497,
          "duration": 0.12931025000000318
        },
        {
          "name": "G5",
          "midi": 79,
          "time": 86.50855725000083,
          "velocity": 0.7874015748031497,
          "duration": 0.12931025000000318
        },
        {
          "name": "C#5",
          "midi": 73,
          "time": 86.63786750000084,
          "velocity": 0.7874015748031497,
          "duration": 0.12931025000000318
        },
        {
          "name": "C#5",
          "midi": 73,
          "time": 86.63786750000084,
          "velocity": 0.7874015748031497,
          "duration": 0.12931025000000318
        },
        {
          "name": "F#5",
          "midi": 78,
          "time": 86.63786750000084,
          "velocity": 0.7874015748031497,
          "duration": 0.12931025000000318
        },
        {
          "name": "F#2",
          "midi": 42,
          "time": 86.63786750000084,
          "velocity": 0.6929133858267716,
          "duration": 0.25862050000000636
        },
        {
          "name": "D3",
          "midi": 50,
          "time": 86.63786750000084,
          "velocity": 0.5511811023622047,
          "duration": 0.24137913333333927
        },
        {
          "name": "F#3",
          "midi": 54,
          "time": 86.63786750000084,
          "velocity": 0.5511811023622047,
          "duration": 0.24999981666667281
        },
        {
          "name": "A3",
          "midi": 57,
          "time": 86.63786750000084,
          "velocity": 0.5511811023622047,
          "duration": 0.24568947500000604
        },
        {
          "name": "B3",
          "midi": 59,
          "time": 86.63786750000084,
          "velocity": 0.5669291338582677,
          "duration": 0.25862050000000636
        },
        {
          "name": "A4",
          "midi": 69,
          "time": 86.76717775000084,
          "velocity": 0.7874015748031497,
          "duration": 0.12931025000000318
        },
        {
          "name": "A4",
          "midi": 69,
          "time": 86.76717775000084,
          "velocity": 0.7874015748031497,
          "duration": 0.12931025000000318
        },
        {
          "name": "E5",
          "midi": 76,
          "time": 86.76717775000084,
          "velocity": 0.7874015748031497,
          "duration": 0.12931025000000318
        },
        {
          "name": "D5",
          "midi": 74,
          "time": 86.89648800000084,
          "velocity": 0.7874015748031497,
          "duration": 0.5172410000000127
        },
        {
          "name": "D5",
          "midi": 74,
          "time": 86.89648800000084,
          "velocity": 0.7874015748031497,
          "duration": 0.5172410000000127
        },
        {
          "name": "G4",
          "midi": 67,
          "time": 86.89648800000084,
          "velocity": 0.7874015748031497,
          "duration": 0.7758615000000191
        },
        {
          "name": "B4",
          "midi": 71,
          "time": 86.89648800000084,
          "velocity": 0.7874015748031497,
          "duration": 0.7758615000000191
        },
        {
          "name": "D5",
          "midi": 74,
          "time": 86.89648800000084,
          "velocity": 0.7874015748031497,
          "duration": 0.7758615000000191
        },
        {
          "name": "F#5",
          "midi": 78,
          "time": 86.89648800000084,
          "velocity": 0.7874015748031497,
          "duration": 0.7758615000000191
        },
        {
          "name": "E3",
          "midi": 52,
          "time": 86.89648800000084,
          "velocity": 0.7874015748031497,
          "duration": 0.5043099750000124
        },
        {
          "name": "E2",
          "midi": 40,
          "time": 86.89648800000084,
          "velocity": 0.8661417322834646,
          "duration": 0.24568947500000604
        },
        {
          "name": "G3",
          "midi": 55,
          "time": 86.89648800000084,
          "velocity": 0.6299212598425197,
          "duration": 0.7672408166666855
        },
        {
          "name": "B3",
          "midi": 59,
          "time": 86.89648800000084,
          "velocity": 0.6299212598425197,
          "duration": 0.04310341666666773
        },
        {
          "name": "D4",
          "midi": 62,
          "time": 86.89648800000084,
          "velocity": 0.6299212598425197,
          "duration": 0.7672408166666855
        },
        {
          "name": "F#4",
          "midi": 66,
          "time": 86.89648800000084,
          "velocity": 0.6299212598425197,
          "duration": 0.7672408166666855
        },
        {
          "name": "E2",
          "midi": 40,
          "time": 86.89648800000084,
          "velocity": 0.6692913385826772,
          "duration": 0.5086203166666792
        },
        {
          "name": "B2",
          "midi": 47,
          "time": 86.89648800000084,
          "velocity": 0.6692913385826772,
          "duration": 0.5043099750000124
        },
        {
          "name": "E3",
          "midi": 52,
          "time": 86.89648800000084,
          "velocity": 0.6692913385826772,
          "duration": 0.5172410000000127
        },
        {
          "name": "D3",
          "midi": 50,
          "time": 86.89648800000084,
          "velocity": 0.5511811023622047,
          "duration": 0.7629304750000188
        },
        {
          "name": "F#3",
          "midi": 54,
          "time": 86.89648800000084,
          "velocity": 0.5511811023622047,
          "duration": 0.758620133333352
        },
        {
          "name": "G3",
          "midi": 55,
          "time": 86.89648800000084,
          "velocity": 0.5511811023622047,
          "duration": 0.7672408166666855
        },
        {
          "name": "B3",
          "midi": 59,
          "time": 86.89648800000084,
          "velocity": 0.5511811023622047,
          "duration": 0.3017239166666741
        },
        {
          "name": "B1",
          "midi": 35,
          "time": 86.89648800000084,
          "velocity": 0.8503937007874016,
          "duration": 0.04310341666666773
        },
        {
          "name": "B3",
          "midi": 59,
          "time": 86.89648800000084,
          "velocity": 0.8503937007874016,
          "duration": 0.5603444166666804
        },
        {
          "name": "F#2",
          "midi": 42,
          "time": 87.15510850000085,
          "velocity": 0.7007874015748031,
          "duration": 0.25862050000000636
        },
        {
          "name": "B3",
          "midi": 59,
          "time": 87.15510850000085,
          "velocity": 0.6929133858267716,
          "duration": 0.5043099750000124
        },
        {
          "name": "E5",
          "midi": 76,
          "time": 87.41372900000086,
          "velocity": 0.7874015748031497,
          "duration": 0.25862050000000636
        },
        {
          "name": "E5",
          "midi": 76,
          "time": 87.41372900000086,
          "velocity": 0.7874015748031497,
          "duration": 0.25862050000000636
        },
        {
          "name": "E3",
          "midi": 52,
          "time": 87.41372900000086,
          "velocity": 0.7874015748031497,
          "duration": 0.24568947500000604
        },
        {
          "name": "G2",
          "midi": 43,
          "time": 87.41372900000086,
          "velocity": 0.7086614173228346,
          "duration": 0.25862050000000636
        },
        {
          "name": "E2",
          "midi": 40,
          "time": 87.41372900000086,
          "velocity": 0.5905511811023622,
          "duration": 0.04310341666666773
        },
        {
          "name": "B2",
          "midi": 47,
          "time": 87.41372900000086,
          "velocity": 0.5905511811023622,
          "duration": 0.24137913333333927
        },
        {
          "name": "E3",
          "midi": 52,
          "time": 87.41372900000086,
          "velocity": 0.5905511811023622,
          "duration": 0.5172410000000127
        },
        {
          "name": "E2",
          "midi": 40,
          "time": 87.41372900000086,
          "velocity": 0.8503937007874016,
          "duration": 0.24137913333333927
        },
        {
          "name": "F#2",
          "midi": 42,
          "time": 87.41372900000086,
          "velocity": 0.8503937007874016,
          "duration": 0.04310341666666773
        },
        {
          "name": "B3",
          "midi": 59,
          "time": 87.41372900000086,
          "velocity": 0.7007874015748031,
          "duration": 0.24999981666667281
        },
        {
          "name": "C#5",
          "midi": 73,
          "time": 87.67234950000086,
          "velocity": 0.7874015748031497,
          "duration": 0.25862050000000636
        },
        {
          "name": "C#5",
          "midi": 73,
          "time": 87.67234950000086,
          "velocity": 0.7874015748031497,
          "duration": 0.25862050000000636
        },
        {
          "name": "A4",
          "midi": 69,
          "time": 87.67234950000086,
          "velocity": 0.7874015748031497,
          "duration": 0.7758615000000191
        },
        {
          "name": "C#5",
          "midi": 73,
          "time": 87.67234950000086,
          "velocity": 0.7874015748031497,
          "duration": 0.7758615000000191
        },
        {
          "name": "E5",
          "midi": 76,
          "time": 87.67234950000086,
          "velocity": 0.7874015748031497,
          "duration": 0.7758615000000191
        },
        {
          "name": "A2",
          "midi": 45,
          "time": 87.67234950000086,
          "velocity": 0.8661417322834646,
          "duration": 0.5172410000000127
        },
        {
          "name": "A3",
          "midi": 57,
          "time": 87.67234950000086,
          "velocity": 0.6299212598425197,
          "duration": 0.49999963333334563
        },
        {
          "name": "C#4",
          "midi": 61,
          "time": 87.67234950000086,
          "velocity": 0.6299212598425197,
          "duration": 0.49999963333334563
        },
        {
          "name": "E4",
          "midi": 64,
          "time": 87.67234950000086,
          "velocity": 0.6299212598425197,
          "duration": 1.2801714750000315
        },
        {
          "name": "A2",
          "midi": 45,
          "time": 87.67234950000086,
          "velocity": 0.6692913385826772,
          "duration": 1.2801714750000315
        },
        {
          "name": "E3",
          "midi": 52,
          "time": 87.67234950000086,
          "velocity": 0.6692913385826772,
          "duration": 0.5086203166666792
        },
        {
          "name": "A3",
          "midi": 57,
          "time": 87.67234950000086,
          "velocity": 0.6692913385826772,
          "duration": 0.7758615000000191
        },
        {
          "name": "E3",
          "midi": 52,
          "time": 87.67234950000086,
          "velocity": 0.6692913385826772,
          "duration": 0.7758615000000191
        },
        {
          "name": "A3",
          "midi": 57,
          "time": 87.67234950000086,
          "velocity": 0.6692913385826772,
          "duration": 1.0172406333333583
        },
        {
          "name": "C#4",
          "midi": 61,
          "time": 87.67234950000086,
          "velocity": 0.6692913385826772,
          "duration": 1.025861316666692
        },
        {
          "name": "B1",
          "midi": 35,
          "time": 87.67234950000086,
          "velocity": 0.5354330708661418,
          "duration": 0.04310341666666773
        },
        {
          "name": "B3",
          "midi": 59,
          "time": 87.67234950000086,
          "velocity": 0.7165354330708661,
          "duration": 0.04310341666666773
        },
        {
          "name": "B4",
          "midi": 71,
          "time": 87.93097000000087,
          "velocity": 0.7874015748031497,
          "duration": 0.25862050000000636
        },
        {
          "name": "B4",
          "midi": 71,
          "time": 87.93097000000087,
          "velocity": 0.7874015748031497,
          "duration": 0.25862050000000636
        },
        {
          "name": "A3",
          "midi": 57,
          "time": 87.93097000000087,
          "velocity": 0.7874015748031497,
          "duration": 1.0172406333333583
        },
        {
          "name": "B1",
          "midi": 35,
          "time": 87.93097000000087,
          "velocity": 0.8740157480314961,
          "duration": 0.04310341666666773
        },
        {
          "name": "B3",
          "midi": 59,
          "time": 87.93097000000087,
          "velocity": 0.6929133858267716,
          "duration": 0.04310341666666773
        },
        {
          "name": "A4",
          "midi": 69,
          "time": 88.18959050000088,
          "velocity": 0.7874015748031497,
          "duration": 0.25862050000000636
        },
        {
          "name": "A4",
          "midi": 69,
          "time": 88.18959050000088,
          "velocity": 0.7874015748031497,
          "duration": 0.25862050000000636
        },
        {
          "name": "E3",
          "midi": 52,
          "time": 88.18959050000088,
          "velocity": 0.6929133858267716,
          "duration": 0.5086203166666792
        },
        {
          "name": "E3",
          "midi": 52,
          "time": 88.18959050000088,
          "velocity": 0.5511811023622047,
          "duration": 0.758620133333352
        },
        {
          "name": "A3",
          "midi": 57,
          "time": 88.18959050000088,
          "velocity": 0.5511811023622047,
          "duration": 0.758620133333352
        },
        {
          "name": "C#4",
          "midi": 61,
          "time": 88.18959050000088,
          "velocity": 0.5511811023622047,
          "duration": 0.7629304750000188
        },
        {
          "name": "B3",
          "midi": 59,
          "time": 88.18959050000088,
          "velocity": 0.7086614173228346,
          "duration": 0.04310341666666773
        },
        {
          "name": "A4",
          "midi": 69,
          "time": 88.44821100000088,
          "velocity": 0.7874015748031497,
          "duration": 0.5172410000000127
        },
        {
          "name": "A3",
          "midi": 57,
          "time": 88.44821100000088,
          "velocity": 0.7874015748031497,
          "duration": 0.5086203166666792
        },
        {
          "name": "F#3",
          "midi": 54,
          "time": 88.44821100000088,
          "velocity": 0.8582677165354331,
          "duration": 0.25862050000000636
        },
        {
          "name": "E2",
          "midi": 40,
          "time": 88.44821100000088,
          "velocity": 0.8503937007874016,
          "duration": 0.04310341666666773
        },
        {
          "name": "A#2",
          "midi": 46,
          "time": 88.44821100000088,
          "velocity": 0.8661417322834646,
          "duration": 0.04310341666666773
        },
        {
          "name": "B3",
          "midi": 59,
          "time": 88.44821100000088,
          "velocity": 0.6929133858267716,
          "duration": 0.04310341666666773
        },
        {
          "name": "A4",
          "midi": 69,
          "time": 88.70683150000089,
          "velocity": 0.7874015748031497,
          "duration": 0.25862050000000636
        },
        {
          "name": "A4",
          "midi": 69,
          "time": 88.70683150000089,
          "velocity": 0.7874015748031497,
          "duration": 0.25862050000000636
        },
        {
          "name": "A3",
          "midi": 57,
          "time": 88.70683150000089,
          "velocity": 0.6929133858267716,
          "duration": 0.25862050000000636
        },
        {
          "name": "E3",
          "midi": 52,
          "time": 88.70683150000089,
          "velocity": 0.5511811023622047,
          "duration": 0.24999981666667281
        },
        {
          "name": "A3",
          "midi": 57,
          "time": 88.70683150000089,
          "velocity": 0.5511811023622047,
          "duration": 0.25862050000000636
        },
        {
          "name": "C#4",
          "midi": 61,
          "time": 88.70683150000089,
          "velocity": 0.5511811023622047,
          "duration": 0.24999981666667281
        },
        {
          "name": "B3",
          "midi": 59,
          "time": 88.70683150000089,
          "velocity": 0.5748031496062992,
          "duration": 0.04310341666666773
        },
        {
          "name": "E5",
          "midi": 76,
          "time": 88.9654520000009,
          "velocity": 0.7874015748031497,
          "duration": 0.5172410000000127
        },
        {
          "name": "E5",
          "midi": 76,
          "time": 88.9654520000009,
          "velocity": 0.7874015748031497,
          "duration": 0.5172410000000127
        },
        {
          "name": "A4",
          "midi": 69,
          "time": 88.9654520000009,
          "velocity": 0.7874015748031497,
          "duration": 0.7758615000000191
        },
        {
          "name": "C#5",
          "midi": 73,
          "time": 88.9654520000009,
          "velocity": 0.7874015748031497,
          "duration": 0.7758615000000191
        },
        {
          "name": "E5",
          "midi": 76,
          "time": 88.9654520000009,
          "velocity": 0.7874015748031497,
          "duration": 0.7758615000000191
        },
        {
          "name": "F#3",
          "midi": 54,
          "time": 88.9654520000009,
          "velocity": 0.7874015748031497,
          "duration": 0.49999963333334563
        },
        {
          "name": "F#2",
          "midi": 42,
          "time": 88.9654520000009,
          "velocity": 0.8582677165354331,
          "duration": 0.5086203166666792
        },
        {
          "name": "A3",
          "midi": 57,
          "time": 88.9654520000009,
          "velocity": 0.6299212598425197,
          "duration": 0.758620133333352
        },
        {
          "name": "C#4",
          "midi": 61,
          "time": 88.9654520000009,
          "velocity": 0.6299212598425197,
          "duration": 0.758620133333352
        },
        {
          "name": "E4",
          "midi": 64,
          "time": 88.9654520000009,
          "velocity": 0.6299212598425197,
          "duration": 0.758620133333352
        },
        {
          "name": "F#2",
          "midi": 42,
          "time": 88.9654520000009,
          "velocity": 0.6692913385826772,
          "duration": 0.5603444166666804
        },
        {
          "name": "C#3",
          "midi": 49,
          "time": 88.9654520000009,
          "velocity": 0.6692913385826772,
          "duration": 0.5086203166666792
        },
        {
          "name": "F#3",
          "midi": 54,
          "time": 88.9654520000009,
          "velocity": 0.6692913385826772,
          "duration": 0.5172410000000127
        },
        {
          "name": "E3",
          "midi": 52,
          "time": 88.9654520000009,
          "velocity": 0.5511811023622047,
          "duration": 0.758620133333352
        },
        {
          "name": "A3",
          "midi": 57,
          "time": 88.9654520000009,
          "velocity": 0.5511811023622047,
          "duration": 0.7629304750000188
        },
        {
          "name": "C#4",
          "midi": 61,
          "time": 88.9654520000009,
          "velocity": 0.5511811023622047,
          "duration": 0.758620133333352
        },
        {
          "name": "B1",
          "midi": 35,
          "time": 88.9654520000009,
          "velocity": 0.8661417322834646,
          "duration": 0.04310341666666773
        },
        {
          "name": "B3",
          "midi": 59,
          "time": 88.9654520000009,
          "velocity": 0.8503937007874016,
          "duration": 0.04310341666666773
        },
        {
          "name": "B3",
          "midi": 59,
          "time": 89.2240725000009,
          "velocity": 0.7007874015748031,
          "duration": 0.04310341666666773
        },
        {
          "name": "D5",
          "midi": 74,
          "time": 89.4826930000009,
          "velocity": 0.7874015748031497,
          "duration": 0.5172410000000127
        },
        {
          "name": "D5",
          "midi": 74,
          "time": 89.4826930000009,
          "velocity": 0.7874015748031497,
          "duration": 0.5172410000000127
        },
        {
          "name": "B3",
          "midi": 59,
          "time": 89.4826930000009,
          "velocity": 0.7874015748031497,
          "duration": 0.04310341666666773
        },
        {
          "name": "F#2",
          "midi": 42,
          "time": 89.4826930000009,
          "velocity": 0.5905511811023622,
          "duration": 0.24137913333333927
        },
        {
          "name": "C#3",
          "midi": 49,
          "time": 89.4826930000009,
          "velocity": 0.5905511811023622,
          "duration": 0.24568947500000604
        },
        {
          "name": "F#3",
          "midi": 54,
          "time": 89.4826930000009,
          "velocity": 0.5905511811023622,
          "duration": 0.24999981666667281
        },
        {
          "name": "E2",
          "midi": 40,
          "time": 89.4826930000009,
          "velocity": 0.8740157480314961,
          "duration": 0.04310341666666773
        },
        {
          "name": "F#2",
          "midi": 42,
          "time": 89.4826930000009,
          "velocity": 0.8582677165354331,
          "duration": 0.25862050000000636
        },
        {
          "name": "B3",
          "midi": 59,
          "time": 89.4826930000009,
          "velocity": 0.5433070866141733,
          "duration": 0.3017239166666741
        },
        {
          "name": "F#4",
          "midi": 66,
          "time": 89.74131350000091,
          "velocity": 0.7874015748031497,
          "duration": 0.5172410000000127
        },
        {
          "name": "A4",
          "midi": 69,
          "time": 89.74131350000091,
          "velocity": 0.7874015748031497,
          "duration": 0.5172410000000127
        },
        {
          "name": "D5",
          "midi": 74,
          "time": 89.74131350000091,
          "velocity": 0.7874015748031497,
          "duration": 0.5172410000000127
        },
        {
          "name": "A2",
          "midi": 45,
          "time": 89.74131350000091,
          "velocity": 0.8582677165354331,
          "duration": 0.5172410000000127
        },
        {
          "name": "D4",
          "midi": 62,
          "time": 89.74131350000091,
          "velocity": 0.6299212598425197,
          "duration": 0.49999963333334563
        },
        {
          "name": "F#4",
          "midi": 66,
          "time": 89.74131350000091,
          "velocity": 0.6299212598425197,
          "duration": 1.2844818166666983
        },
        {
          "name": "A4",
          "midi": 69,
          "time": 89.74131350000091,
          "velocity": 0.6299212598425197,
          "duration": 0.6465512500000159
        },
        {
          "name": "D3",
          "midi": 50,
          "time": 89.74131350000091,
          "velocity": 0.5905511811023622,
          "duration": 0.758620133333352
        },
        {
          "name": "A3",
          "midi": 57,
          "time": 89.74131350000091,
          "velocity": 0.5905511811023622,
          "duration": 0.49999963333334563
        },
        {
          "name": "D4",
          "midi": 62,
          "time": 89.74131350000091,
          "velocity": 0.5905511811023622,
          "duration": 0.758620133333352
        },
        {
          "name": "F#3",
          "midi": 54,
          "time": 89.74131350000091,
          "velocity": 0.6692913385826772,
          "duration": 0.5043099750000124
        },
        {
          "name": "A3",
          "midi": 57,
          "time": 89.74131350000091,
          "velocity": 0.6692913385826772,
          "duration": 0.7629304750000188
        },
        {
          "name": "D4",
          "midi": 62,
          "time": 89.74131350000091,
          "velocity": 0.6692913385826772,
          "duration": 1.0172406333333583
        },
        {
          "name": "B1",
          "midi": 35,
          "time": 89.74131350000091,
          "velocity": 0.5433070866141733,
          "duration": 0.04310341666666773
        },
        {
          "name": "B3",
          "midi": 59,
          "time": 89.74131350000091,
          "velocity": 0.8661417322834646,
          "duration": 0.25862050000000636
        },
        {
          "name": "A3",
          "midi": 57,
          "time": 89.99993400000092,
          "velocity": 0.7874015748031497,
          "duration": 0.5172410000000127
        },
        {
          "name": "B1",
          "midi": 35,
          "time": 89.99993400000092,
          "velocity": 0.8661417322834646,
          "duration": 0.04310341666666773
        },
        {
          "name": "E2",
          "midi": 40,
          "time": 89.99993400000092,
          "velocity": 0.3779527559055118,
          "duration": 0.04310341666666773
        },
        {
          "name": "E2",
          "midi": 40,
          "time": 90.12924425000092,
          "velocity": 0.33070866141732286,
          "duration": 0.04310341666666773
        },
        {
          "name": "A4",
          "midi": 69,
          "time": 90.25855450000093,
          "velocity": 0.7874015748031497,
          "duration": 0.25862050000000636
        },
        {
          "name": "E3",
          "midi": 52,
          "time": 90.25855450000093,
          "velocity": 0.6929133858267716,
          "duration": 0.25862050000000636
        },
        {
          "name": "F#3",
          "midi": 54,
          "time": 90.25855450000093,
          "velocity": 0.5511811023622047,
          "duration": 0.5043099750000124
        },
        {
          "name": "A3",
          "midi": 57,
          "time": 90.25855450000093,
          "velocity": 0.5511811023622047,
          "duration": 0.5043099750000124
        },
        {
          "name": "D4",
          "midi": 62,
          "time": 90.25855450000093,
          "velocity": 0.5511811023622047,
          "duration": 0.7629304750000188
        },
        {
          "name": "E2",
          "midi": 40,
          "time": 90.25855450000093,
          "velocity": 0.8582677165354331,
          "duration": 0.04310341666666773
        },
        {
          "name": "A4",
          "midi": 69,
          "time": 90.38786475000093,
          "velocity": 0.7874015748031497,
          "duration": 0.25862050000000636
        },
        {
          "name": "E2",
          "midi": 40,
          "time": 90.38786475000093,
          "velocity": 0.6929133858267716,
          "duration": 0.04310341666666773
        },
        {
          "name": "A4",
          "midi": 69,
          "time": 90.51717500000093,
          "velocity": 0.7874015748031497,
          "duration": 0.12931025000000318
        },
        {
          "name": "A4",
          "midi": 69,
          "time": 90.51717500000093,
          "velocity": 0.7874015748031497,
          "duration": 0.5086203166666792
        },
        {
          "name": "B4",
          "midi": 71,
          "time": 90.51717500000093,
          "velocity": 0.7874015748031497,
          "duration": 0.12931025000000318
        },
        {
          "name": "A3",
          "midi": 57,
          "time": 90.51717500000093,
          "velocity": 0.7874015748031497,
          "duration": 0.49999963333334563
        },
        {
          "name": "F#3",
          "midi": 54,
          "time": 90.51717500000093,
          "velocity": 0.8740157480314961,
          "duration": 0.25862050000000636
        },
        {
          "name": "D3",
          "midi": 50,
          "time": 90.51717500000093,
          "velocity": 0.5905511811023622,
          "duration": 0.5043099750000124
        },
        {
          "name": "A3",
          "midi": 57,
          "time": 90.51717500000093,
          "velocity": 0.5905511811023622,
          "duration": 0.5043099750000124
        },
        {
          "name": "D4",
          "midi": 62,
          "time": 90.51717500000093,
          "velocity": 0.5905511811023622,
          "duration": 0.5043099750000124
        },
        {
          "name": "E2",
          "midi": 40,
          "time": 90.51717500000093,
          "velocity": 0.8582677165354331,
          "duration": 0.04310341666666773
        },
        {
          "name": "B4",
          "midi": 71,
          "time": 90.64648525000094,
          "velocity": 0.7874015748031497,
          "duration": 0.12931025000000318
        },
        {
          "name": "B4",
          "midi": 71,
          "time": 90.64648525000094,
          "velocity": 0.7874015748031497,
          "duration": 0.12931025000000318
        },
        {
          "name": "D5",
          "midi": 74,
          "time": 90.64648525000094,
          "velocity": 0.7874015748031497,
          "duration": 0.12931025000000318
        },
        {
          "name": "D5",
          "midi": 74,
          "time": 90.77579550000094,
          "velocity": 0.7874015748031497,
          "duration": 0.12931025000000318
        },
        {
          "name": "D5",
          "midi": 74,
          "time": 90.77579550000094,
          "velocity": 0.7874015748031497,
          "duration": 0.12931025000000318
        },
        {
          "name": "B4",
          "midi": 71,
          "time": 90.77579550000094,
          "velocity": 0.7874015748031497,
          "duration": 0.12931025000000318
        },
        {
          "name": "A3",
          "midi": 57,
          "time": 90.77579550000094,
          "velocity": 0.6929133858267716,
          "duration": 0.25862050000000636
        },
        {
          "name": "F#3",
          "midi": 54,
          "time": 90.77579550000094,
          "velocity": 0.5511811023622047,
          "duration": 0.24999981666667281
        },
        {
          "name": "A3",
          "midi": 57,
          "time": 90.77579550000094,
          "velocity": 0.5511811023622047,
          "duration": 0.25862050000000636
        },
        {
          "name": "D4",
          "midi": 62,
          "time": 90.77579550000094,
          "velocity": 0.5511811023622047,
          "duration": 0.24999981666667281
        },
        {
          "name": "E2",
          "midi": 40,
          "time": 90.77579550000094,
          "velocity": 0.6929133858267716,
          "duration": 0.04310341666666773
        },
        {
          "name": "B4",
          "midi": 71,
          "time": 90.90510575000094,
          "velocity": 0.7874015748031497,
          "duration": 0.12931025000000318
        },
        {
          "name": "B4",
          "midi": 71,
          "time": 90.90510575000094,
          "velocity": 0.7874015748031497,
          "duration": 0.12931025000000318
        },
        {
          "name": "D5",
          "midi": 74,
          "time": 90.90510575000094,
          "velocity": 0.7874015748031497,
          "duration": 0.12931025000000318
        },
        {
          "name": "A3",
          "midi": 57,
          "time": 91.03010565833428,
          "velocity": 0.8582677165354331,
          "duration": 0.004310341666666773
        },
        {
          "name": "F#5",
          "midi": 78,
          "time": 91.03441600000095,
          "velocity": 0.7874015748031497,
          "duration": 0.38793075000000954
        },
        {
          "name": "F#5",
          "midi": 78,
          "time": 91.03441600000095,
          "velocity": 0.7874015748031497,
          "duration": 0.38793075000000954
        },
        {
          "name": "G4",
          "midi": 67,
          "time": 91.03441600000095,
          "velocity": 0.7874015748031497,
          "duration": 0.7758615000000191
        },
        {
          "name": "B4",
          "midi": 71,
          "time": 91.03441600000095,
          "velocity": 0.7874015748031497,
          "duration": 0.7758615000000191
        },
        {
          "name": "D5",
          "midi": 74,
          "time": 91.03441600000095,
          "velocity": 0.7874015748031497,
          "duration": 0.7758615000000191
        },
        {
          "name": "F#5",
          "midi": 78,
          "time": 91.03441600000095,
          "velocity": 0.7874015748031497,
          "duration": 0.7758615000000191
        },
        {
          "name": "E3",
          "midi": 52,
          "time": 91.03441600000095,
          "velocity": 0.7874015748031497,
          "duration": 0.49999963333334563
        },
        {
          "name": "E2",
          "midi": 40,
          "time": 91.03441600000095,
          "velocity": 0.8661417322834646,
          "duration": 0.24568947500000604
        },
        {
          "name": "F#3",
          "midi": 54,
          "time": 91.03441600000095,
          "velocity": 0.6299212598425197,
          "duration": 0.758620133333352
        },
        {
          "name": "G3",
          "midi": 55,
          "time": 91.03441600000095,
          "velocity": 0.6299212598425197,
          "duration": 0.758620133333352
        },
        {
          "name": "B3",
          "midi": 59,
          "time": 91.03441600000095,
          "velocity": 0.6299212598425197,
          "duration": 0.04310341666666773
        },
        {
          "name": "D4",
          "midi": 62,
          "time": 91.03441600000095,
          "velocity": 0.6299212598425197,
          "duration": 0.758620133333352
        },
        {
          "name": "E2",
          "midi": 40,
          "time": 91.03441600000095,
          "velocity": 0.6692913385826772,
          "duration": 0.5086203166666792
        },
        {
          "name": "B2",
          "midi": 47,
          "time": 91.03441600000095,
          "velocity": 0.6692913385826772,
          "duration": 0.49999963333334563
        },
        {
          "name": "E3",
          "midi": 52,
          "time": 91.03441600000095,
          "velocity": 0.6692913385826772,
          "duration": 0.5172410000000127
        },
        {
          "name": "D3",
          "midi": 50,
          "time": 91.03441600000095,
          "velocity": 0.5511811023622047,
          "duration": 0.7672408166666855
        },
        {
          "name": "F#3",
          "midi": 54,
          "time": 91.03441600000095,
          "velocity": 0.5511811023622047,
          "duration": 0.7629304750000188
        },
        {
          "name": "G3",
          "midi": 55,
          "time": 91.03441600000095,
          "velocity": 0.5511811023622047,
          "duration": 0.7672408166666855
        },
        {
          "name": "B3",
          "midi": 59,
          "time": 91.03441600000095,
          "velocity": 0.5511811023622047,
          "duration": 0.3017239166666741
        },
        {
          "name": "B1",
          "midi": 35,
          "time": 91.03441600000095,
          "velocity": 0.8582677165354331,
          "duration": 0.04310341666666773
        },
        {
          "name": "B3",
          "midi": 59,
          "time": 91.03441600000095,
          "velocity": 0.8740157480314961,
          "duration": 0.5603444166666804
        },
        {
          "name": "E2",
          "midi": 40,
          "time": 91.29303650000095,
          "velocity": 0.7086614173228346,
          "duration": 0.25862050000000636
        },
        {
          "name": "B3",
          "midi": 59,
          "time": 91.29303650000095,
          "velocity": 0.7165354330708661,
          "duration": 0.49999963333334563
        },
        {
          "name": "F#5",
          "midi": 78,
          "time": 91.42234675000095,
          "velocity": 0.7874015748031497,
          "duration": 0.38793075000000954
        },
        {
          "name": "F#5",
          "midi": 78,
          "time": 91.42234675000095,
          "velocity": 0.7874015748031497,
          "duration": 0.38793075000000954
        },
        {
          "name": "E3",
          "midi": 52,
          "time": 91.55165700000096,
          "velocity": 0.7874015748031497,
          "duration": 0.24999981666667281
        },
        {
          "name": "F#2",
          "midi": 42,
          "time": 91.55165700000096,
          "velocity": 0.7086614173228346,
          "duration": 0.04310341666666773
        },
        {
          "name": "E2",
          "midi": 40,
          "time": 91.55165700000096,
          "velocity": 0.5905511811023622,
          "duration": 0.04310341666666773
        },
        {
          "name": "B2",
          "midi": 47,
          "time": 91.55165700000096,
          "velocity": 0.5905511811023622,
          "duration": 0.24568947500000604
        },
        {
          "name": "E3",
          "midi": 52,
          "time": 91.55165700000096,
          "velocity": 0.5905511811023622,
          "duration": 0.5172410000000127
        },
        {
          "name": "E2",
          "midi": 40,
          "time": 91.55165700000096,
          "velocity": 0.8740157480314961,
          "duration": 0.24568947500000604
        },
        {
          "name": "F#2",
          "midi": 42,
          "time": 91.55165700000096,
          "velocity": 0.8661417322834646,
          "duration": 0.25862050000000636
        },
        {
          "name": "B3",
          "midi": 59,
          "time": 91.55165700000096,
          "velocity": 0.7165354330708661,
          "duration": 0.24999981666667281
        },
        {
          "name": "E5",
          "midi": 76,
          "time": 91.81027750000096,
          "velocity": 0.7874015748031497,
          "duration": 0.7758615000000191
        },
        {
          "name": "E5",
          "midi": 76,
          "time": 91.81027750000096,
          "velocity": 0.7874015748031497,
          "duration": 0.7758615000000191
        },
        {
          "name": "A4",
          "midi": 69,
          "time": 91.81027750000096,
          "velocity": 0.7874015748031497,
          "duration": 0.7758615000000191
        },
        {
          "name": "C#5",
          "midi": 73,
          "time": 91.81027750000096,
          "velocity": 0.7874015748031497,
          "duration": 0.7758615000000191
        },
        {
          "name": "E5",
          "midi": 76,
          "time": 91.81027750000096,
          "velocity": 0.7874015748031497,
          "duration": 0.7758615000000191
        },
        {
          "name": "A2",
          "midi": 45,
          "time": 91.81027750000096,
          "velocity": 0.8661417322834646,
          "duration": 0.5172410000000127
        },
        {
          "name": "C#4",
          "midi": 61,
          "time": 91.81027750000096,
          "velocity": 0.6299212598425197,
          "duration": 0.5043099750000124
        },
        {
          "name": "E4",
          "midi": 64,
          "time": 91.81027750000096,
          "velocity": 0.6299212598425197,
          "duration": 1.2801714750000315
        },
        {
          "name": "A4",
          "midi": 69,
          "time": 91.81027750000096,
          "velocity": 0.6299212598425197,
          "duration": 0.9051717500000223
        },
        {
          "name": "A2",
          "midi": 45,
          "time": 91.81027750000096,
          "velocity": 0.5905511811023622,
          "duration": 0.7672408166666855
        },
        {
          "name": "E3",
          "midi": 52,
          "time": 91.81027750000096,
          "velocity": 0.5905511811023622,
          "duration": 0.5043099750000124
        },
        {
          "name": "A3",
          "midi": 57,
          "time": 91.81027750000096,
          "velocity": 0.5905511811023622,
          "duration": 0.49999963333334563
        },
        {
          "name": "E3",
          "midi": 52,
          "time": 91.81027750000096,
          "velocity": 0.6692913385826772,
          "duration": 0.7672408166666855
        },
        {
          "name": "A3",
          "midi": 57,
          "time": 91.81027750000096,
          "velocity": 0.6692913385826772,
          "duration": 0.7629304750000188
        },
        {
          "name": "C#4",
          "midi": 61,
          "time": 91.81027750000096,
          "velocity": 0.6692913385826772,
          "duration": 1.0172406333333583
        },
        {
          "name": "B1",
          "midi": 35,
          "time": 91.81027750000096,
          "velocity": 0.5669291338582677,
          "duration": 0.04310341666666773
        },
        {
          "name": "B3",
          "midi": 59,
          "time": 91.81027750000096,
          "velocity": 0.5354330708661418,
          "duration": 0.04310341666666773
        },
        {
          "name": "A3",
          "midi": 57,
          "time": 92.06889800000097,
          "velocity": 0.7874015748031497,
          "duration": 0.5172410000000127
        },
        {
          "name": "B1",
          "midi": 35,
          "time": 92.06889800000097,
          "velocity": 0.8582677165354331,
          "duration": 0.04310341666666773
        },
        {
          "name": "B3",
          "midi": 59,
          "time": 92.06889800000097,
          "velocity": 0.8503937007874016,
          "duration": 0.04310341666666773
        },
        {
          "name": "E3",
          "midi": 52,
          "time": 92.32751850000098,
          "velocity": 0.6929133858267716,
          "duration": 0.25862050000000636
        },
        {
          "name": "E3",
          "midi": 52,
          "time": 92.32751850000098,
          "velocity": 0.5511811023622047,
          "duration": 0.5086203166666792
        },
        {
          "name": "A3",
          "midi": 57,
          "time": 92.32751850000098,
          "velocity": 0.5511811023622047,
          "duration": 0.5086203166666792
        },
        {
          "name": "C#4",
          "midi": 61,
          "time": 92.32751850000098,
          "velocity": 0.5511811023622047,
          "duration": 0.7629304750000188
        },
        {
          "name": "B3",
          "midi": 59,
          "time": 92.32751850000098,
          "velocity": 0.7165354330708661,
          "duration": 0.04310341666666773
        },
        {
          "name": "A4",
          "midi": 69,
          "time": 92.58613900000098,
          "velocity": 0.7874015748031497,
          "duration": 0.12931025000000318
        },
        {
          "name": "A4",
          "midi": 69,
          "time": 92.58613900000098,
          "velocity": 0.7874015748031497,
          "duration": 0.5086203166666792
        },
        {
          "name": "A4",
          "midi": 69,
          "time": 92.58613900000098,
          "velocity": 0.7874015748031497,
          "duration": 0.5172410000000127
        },
        {
          "name": "A3",
          "midi": 57,
          "time": 92.58613900000098,
          "velocity": 0.7874015748031497,
          "duration": 0.49999963333334563
        },
        {
          "name": "F#3",
          "midi": 54,
          "time": 92.58613900000098,
          "velocity": 0.8582677165354331,
          "duration": 0.25862050000000636
        },
        {
          "name": "A2",
          "midi": 45,
          "time": 92.58613900000098,
          "velocity": 0.5905511811023622,
          "duration": 0.5043099750000124
        },
        {
          "name": "E3",
          "midi": 52,
          "time": 92.58613900000098,
          "velocity": 0.5905511811023622,
          "duration": 0.49999963333334563
        },
        {
          "name": "A3",
          "midi": 57,
          "time": 92.58613900000098,
          "velocity": 0.5905511811023622,
          "duration": 0.5086203166666792
        },
        {
          "name": "E2",
          "midi": 40,
          "time": 92.58613900000098,
          "velocity": 0.8661417322834646,
          "duration": 0.04310341666666773
        },
        {
          "name": "F#2",
          "midi": 42,
          "time": 92.58613900000098,
          "velocity": 0.8661417322834646,
          "duration": 0.04310341666666773
        },
        {
          "name": "B3",
          "midi": 59,
          "time": 92.58613900000098,
          "velocity": 0.7007874015748031,
          "duration": 0.04310341666666773
        },
        {
          "name": "B4",
          "midi": 71,
          "time": 92.71544925000099,
          "velocity": 0.7874015748031497,
          "duration": 0.12931025000000318
        },
        {
          "name": "B4",
          "midi": 71,
          "time": 92.71544925000099,
          "velocity": 0.7874015748031497,
          "duration": 0.12931025000000318
        },
        {
          "name": "C#5",
          "midi": 73,
          "time": 92.84475950000099,
          "velocity": 0.7874015748031497,
          "duration": 0.12931025000000318
        },
        {
          "name": "C#5",
          "midi": 73,
          "time": 92.84475950000099,
          "velocity": 0.7874015748031497,
          "duration": 0.12931025000000318
        },
        {
          "name": "E3",
          "midi": 52,
          "time": 92.84475950000099,
          "velocity": 0.7165354330708661,
          "duration": 0.24568947500000604
        },
        {
          "name": "E3",
          "midi": 52,
          "time": 92.84475950000099,
          "velocity": 0.5511811023622047,
          "duration": 0.25862050000000636
        },
        {
          "name": "A3",
          "midi": 57,
          "time": 92.84475950000099,
          "velocity": 0.5511811023622047,
          "duration": 0.25862050000000636
        },
        {
          "name": "C#4",
          "midi": 61,
          "time": 92.84475950000099,
          "velocity": 0.5511811023622047,
          "duration": 0.24568947500000604
        },
        {
          "name": "B3",
          "midi": 59,
          "time": 92.84475950000099,
          "velocity": 0.5669291338582677,
          "duration": 0.04310341666666773
        },
        {
          "name": "A4",
          "midi": 69,
          "time": 92.974069750001,
          "velocity": 0.7874015748031497,
          "duration": 0.12931025000000318
        },
        {
          "name": "A4",
          "midi": 69,
          "time": 92.974069750001,
          "velocity": 0.7874015748031497,
          "duration": 0.12931025000000318
        },
        {
          "name": "A5",
          "midi": 81,
          "time": 93.103380000001,
          "velocity": 0.7874015748031497,
          "duration": 0.5172410000000127
        },
        {
          "name": "A5",
          "midi": 81,
          "time": 93.103380000001,
          "velocity": 0.7874015748031497,
          "duration": 0.5172410000000127
        },
        {
          "name": "A4",
          "midi": 69,
          "time": 93.103380000001,
          "velocity": 0.7874015748031497,
          "duration": 0.7629304750000188
        },
        {
          "name": "C#5",
          "midi": 73,
          "time": 93.103380000001,
          "velocity": 0.7874015748031497,
          "duration": 0.7758615000000191
        },
        {
          "name": "E5",
          "midi": 76,
          "time": 93.103380000001,
          "velocity": 0.7874015748031497,
          "duration": 0.7758615000000191
        },
        {
          "name": "F#3",
          "midi": 54,
          "time": 93.103380000001,
          "velocity": 0.7874015748031497,
          "duration": 0.5086203166666792
        },
        {
          "name": "F#2",
          "midi": 42,
          "time": 93.103380000001,
          "velocity": 0.8661417322834646,
          "duration": 0.5043099750000124
        },
        {
          "name": "C#4",
          "midi": 61,
          "time": 93.103380000001,
          "velocity": 0.6299212598425197,
          "duration": 0.758620133333352
        },
        {
          "name": "E4",
          "midi": 64,
          "time": 93.103380000001,
          "velocity": 0.6299212598425197,
          "duration": 0.7672408166666855
        },
        {
          "name": "A4",
          "midi": 69,
          "time": 93.103380000001,
          "velocity": 0.6299212598425197,
          "duration": 0.7758615000000191
        },
        {
          "name": "F#2",
          "midi": 42,
          "time": 93.103380000001,
          "velocity": 0.6692913385826772,
          "duration": 0.7629304750000188
        },
        {
          "name": "C#3",
          "midi": 49,
          "time": 93.103380000001,
          "velocity": 0.6692913385826772,
          "duration": 0.49999963333334563
        },
        {
          "name": "F#3",
          "midi": 54,
          "time": 93.103380000001,
          "velocity": 0.6692913385826772,
          "duration": 0.5172410000000127
        },
        {
          "name": "E3",
          "midi": 52,
          "time": 93.103380000001,
          "velocity": 0.5511811023622047,
          "duration": 0.7672408166666855
        },
        {
          "name": "A3",
          "midi": 57,
          "time": 93.103380000001,
          "velocity": 0.5511811023622047,
          "duration": 0.7629304750000188
        },
        {
          "name": "C#4",
          "midi": 61,
          "time": 93.103380000001,
          "velocity": 0.5511811023622047,
          "duration": 0.758620133333352
        },
        {
          "name": "B1",
          "midi": 35,
          "time": 93.103380000001,
          "velocity": 0.8503937007874016,
          "duration": 0.04310341666666773
        },
        {
          "name": "B3",
          "midi": 59,
          "time": 93.103380000001,
          "velocity": 0.8503937007874016,
          "duration": 0.04310341666666773
        },
        {
          "name": "B3",
          "midi": 59,
          "time": 93.362000500001,
          "velocity": 0.6929133858267716,
          "duration": 0.04310341666666773
        },
        {
          "name": "C#5",
          "midi": 73,
          "time": 93.62062100000101,
          "velocity": 0.7874015748031497,
          "duration": 0.25862050000000636
        },
        {
          "name": "C#5",
          "midi": 73,
          "time": 93.62062100000101,
          "velocity": 0.7874015748031497,
          "duration": 0.25862050000000636
        },
        {
          "name": "F#3",
          "midi": 54,
          "time": 93.62062100000101,
          "velocity": 0.7874015748031497,
          "duration": 0.24568947500000604
        },
        {
          "name": "F#2",
          "midi": 42,
          "time": 93.62062100000101,
          "velocity": 0.5905511811023622,
          "duration": 0.25862050000000636
        },
        {
          "name": "C#3",
          "midi": 49,
          "time": 93.62062100000101,
          "velocity": 0.5905511811023622,
          "duration": 0.24999981666667281
        },
        {
          "name": "F#3",
          "midi": 54,
          "time": 93.62062100000101,
          "velocity": 0.5905511811023622,
          "duration": 0.5172410000000127
        },
        {
          "name": "E2",
          "midi": 40,
          "time": 93.62062100000101,
          "velocity": 0.8582677165354331,
          "duration": 0.04310341666666773
        },
        {
          "name": "A#2",
          "midi": 46,
          "time": 93.62062100000101,
          "velocity": 0.8503937007874016,
          "duration": 0.04310341666666773
        },
        {
          "name": "B3",
          "midi": 59,
          "time": 93.62062100000101,
          "velocity": 0.7086614173228346,
          "duration": 0.04310341666666773
        },
        {
          "name": "D5",
          "midi": 74,
          "time": 93.87924150000102,
          "velocity": 0.7874015748031497,
          "duration": 0.25862050000000636
        },
        {
          "name": "D5",
          "midi": 74,
          "time": 93.87924150000102,
          "velocity": 0.7874015748031497,
          "duration": 0.25862050000000636
        },
        {
          "name": "B4",
          "midi": 71,
          "time": 93.87924150000102,
          "velocity": 0.7874015748031497,
          "duration": 0.7758615000000191
        },
        {
          "name": "D5",
          "midi": 74,
          "time": 93.87924150000102,
          "velocity": 0.7874015748031497,
          "duration": 0.7758615000000191
        },
        {
          "name": "F#5",
          "midi": 78,
          "time": 93.87924150000102,
          "velocity": 0.7874015748031497,
          "duration": 0.7758615000000191
        },
        {
          "name": "B2",
          "midi": 47,
          "time": 93.87924150000102,
          "velocity": 0.8740157480314961,
          "duration": 0.5172410000000127
        },
        {
          "name": "F#3",
          "midi": 54,
          "time": 93.87924150000102,
          "velocity": 0.6299212598425197,
          "duration": 0.5086203166666792
        },
        {
          "name": "A3",
          "midi": 57,
          "time": 93.87924150000102,
          "velocity": 0.6299212598425197,
          "duration": 0.5086203166666792
        },
        {
          "name": "D4",
          "midi": 62,
          "time": 93.87924150000102,
          "velocity": 0.6299212598425197,
          "duration": 0.49999963333334563
        },
        {
          "name": "B2",
          "midi": 47,
          "time": 93.87924150000102,
          "velocity": 0.5905511811023622,
          "duration": 0.7672408166666855
        },
        {
          "name": "F#3",
          "midi": 54,
          "time": 93.87924150000102,
          "velocity": 0.5905511811023622,
          "duration": 0.7629304750000188
        },
        {
          "name": "B3",
          "midi": 59,
          "time": 93.87924150000102,
          "velocity": 0.5905511811023622,
          "duration": 0.04310341666666773
        },
        {
          "name": "F#3",
          "midi": 54,
          "time": 93.87924150000102,
          "velocity": 0.6692913385826772,
          "duration": 0.7758615000000191
        },
        {
          "name": "A3",
          "midi": 57,
          "time": 93.87924150000102,
          "velocity": 0.6692913385826772,
          "duration": 1.0344820000000254
        },
        {
          "name": "D4",
          "midi": 62,
          "time": 93.87924150000102,
          "velocity": 0.6692913385826772,
          "duration": 1.2801714750000315
        },
        {
          "name": "B3",
          "midi": 59,
          "time": 93.87924150000102,
          "velocity": 0.7007874015748031,
          "duration": 0.3017239166666741
        },
        {
          "name": "C#5",
          "midi": 73,
          "time": 94.13786200000102,
          "velocity": 0.7874015748031497,
          "duration": 0.12931025000000318
        },
        {
          "name": "C#5",
          "midi": 73,
          "time": 94.13786200000102,
          "velocity": 0.7874015748031497,
          "duration": 0.12931025000000318
        },
        {
          "name": "B3",
          "midi": 59,
          "time": 94.13786200000102,
          "velocity": 0.7874015748031497,
          "duration": 0.3017239166666741
        },
        {
          "name": "B1",
          "midi": 35,
          "time": 94.13786200000102,
          "velocity": 0.8503937007874016,
          "duration": 0.04310341666666773
        },
        {
          "name": "B3",
          "midi": 59,
          "time": 94.13786200000102,
          "velocity": 0.7086614173228346,
          "duration": 0.5086203166666792
        },
        {
          "name": "B4",
          "midi": 71,
          "time": 94.26717225000102,
          "velocity": 0.7874015748031497,
          "duration": 0.38793075000000954
        },
        {
          "name": "B4",
          "midi": 71,
          "time": 94.26717225000102,
          "velocity": 0.7874015748031497,
          "duration": 0.38793075000000954
        },
        {
          "name": "F#3",
          "midi": 54,
          "time": 94.39648250000103,
          "velocity": 0.7007874015748031,
          "duration": 0.7629304750000188
        },
        {
          "name": "F#3",
          "midi": 54,
          "time": 94.39648250000103,
          "velocity": 0.5511811023622047,
          "duration": 0.7629304750000188
        },
        {
          "name": "A3",
          "midi": 57,
          "time": 94.39648250000103,
          "velocity": 0.5511811023622047,
          "duration": 0.7672408166666855
        },
        {
          "name": "D4",
          "midi": 62,
          "time": 94.39648250000103,
          "velocity": 0.5511811023622047,
          "duration": 0.7672408166666855
        },
        {
          "name": "B3",
          "midi": 59,
          "time": 94.39648250000103,
          "velocity": 0.7007874015748031,
          "duration": 0.25862050000000636
        },
        {
          "name": "A4",
          "midi": 69,
          "time": 94.65510300000103,
          "velocity": 0.7874015748031497,
          "duration": 0.12931025000000318
        },
        {
          "name": "A4",
          "midi": 69,
          "time": 94.65510300000103,
          "velocity": 0.7874015748031497,
          "duration": 0.12931025000000318
        },
        {
          "name": "A5",
          "midi": 81,
          "time": 94.65510300000103,
          "velocity": 0.7874015748031497,
          "duration": 0.12931025000000318
        },
        {
          "name": "B3",
          "midi": 59,
          "time": 94.65510300000103,
          "velocity": 0.7874015748031497,
          "duration": 0.04310341666666773
        },
        {
          "name": "A3",
          "midi": 57,
          "time": 94.65510300000103,
          "velocity": 0.8740157480314961,
          "duration": 0.5086203166666792
        },
        {
          "name": "B2",
          "midi": 47,
          "time": 94.65510300000103,
          "velocity": 0.5905511811023622,
          "duration": 0.5086203166666792
        },
        {
          "name": "F#3",
          "midi": 54,
          "time": 94.65510300000103,
          "velocity": 0.5905511811023622,
          "duration": 0.5043099750000124
        },
        {
          "name": "B3",
          "midi": 59,
          "time": 94.65510300000103,
          "velocity": 0.5905511811023622,
          "duration": 0.3017239166666741
        },
        {
          "name": "E2",
          "midi": 40,
          "time": 94.65510300000103,
          "velocity": 0.8661417322834646,
          "duration": 0.04310341666666773
        },
        {
          "name": "F#2",
          "midi": 42,
          "time": 94.65510300000103,
          "velocity": 0.8582677165354331,
          "duration": 0.04310341666666773
        },
        {
          "name": "B3",
          "midi": 59,
          "time": 94.65510300000103,
          "velocity": 0.7165354330708661,
          "duration": 0.5043099750000124
        },
        {
          "name": "B4",
          "midi": 71,
          "time": 94.78441325000104,
          "velocity": 0.7874015748031497,
          "duration": 0.12931025000000318
        },
        {
          "name": "B4",
          "midi": 71,
          "time": 94.78441325000104,
          "velocity": 0.7874015748031497,
          "duration": 0.12931025000000318
        },
        {
          "name": "G5",
          "midi": 79,
          "time": 94.78441325000104,
          "velocity": 0.7874015748031497,
          "duration": 0.12931025000000318
        },
        {
          "name": "C#5",
          "midi": 73,
          "time": 94.91372350000104,
          "velocity": 0.7874015748031497,
          "duration": 0.12931025000000318
        },
        {
          "name": "C#5",
          "midi": 73,
          "time": 94.91372350000104,
          "velocity": 0.7874015748031497,
          "duration": 0.12931025000000318
        },
        {
          "name": "F#5",
          "midi": 78,
          "time": 94.91372350000104,
          "velocity": 0.7874015748031497,
          "duration": 0.12931025000000318
        },
        {
          "name": "F#3",
          "midi": 54,
          "time": 94.91372350000104,
          "velocity": 0.7086614173228346,
          "duration": 0.25862050000000636
        },
        {
          "name": "B1",
          "midi": 35,
          "time": 94.91372350000104,
          "velocity": 0.5354330708661418,
          "duration": 0.04310341666666773
        },
        {
          "name": "B3",
          "midi": 59,
          "time": 94.91372350000104,
          "velocity": 0.5275590551181102,
          "duration": 0.25862050000000636
        },
        {
          "name": "A4",
          "midi": 69,
          "time": 95.04303375000104,
          "velocity": 0.7874015748031497,
          "duration": 0.12931025000000318
        },
        {
          "name": "A4",
          "midi": 69,
          "time": 95.04303375000104,
          "velocity": 0.7874015748031497,
          "duration": 0.12931025000000318
        },
        {
          "name": "E5",
          "midi": 76,
          "time": 95.04303375000104,
          "velocity": 0.7874015748031497,
          "duration": 0.12931025000000318
        },
        {
          "name": "D5",
          "midi": 74,
          "time": 95.17234400000105,
          "velocity": 0.7874015748031497,
          "duration": 0.5172410000000127
        },
        {
          "name": "D5",
          "midi": 74,
          "time": 95.17234400000105,
          "velocity": 0.7874015748031497,
          "duration": 0.5172410000000127
        },
        {
          "name": "G4",
          "midi": 67,
          "time": 95.17234400000105,
          "velocity": 0.7874015748031497,
          "duration": 0.7758615000000191
        },
        {
          "name": "B4",
          "midi": 71,
          "time": 95.17234400000105,
          "velocity": 0.7874015748031497,
          "duration": 0.7758615000000191
        },
        {
          "name": "D5",
          "midi": 74,
          "time": 95.17234400000105,
          "velocity": 0.7874015748031497,
          "duration": 0.7758615000000191
        },
        {
          "name": "F#5",
          "midi": 78,
          "time": 95.17234400000105,
          "velocity": 0.7874015748031497,
          "duration": 0.7758615000000191
        },
        {
          "name": "E3",
          "midi": 52,
          "time": 95.17234400000105,
          "velocity": 0.7874015748031497,
          "duration": 0.49999963333334563
        },
        {
          "name": "E2",
          "midi": 40,
          "time": 95.17234400000105,
          "velocity": 0.8582677165354331,
          "duration": 0.24568947500000604
        },
        {
          "name": "G3",
          "midi": 55,
          "time": 95.17234400000105,
          "velocity": 0.6299212598425197,
          "duration": 0.758620133333352
        },
        {
          "name": "B3",
          "midi": 59,
          "time": 95.17234400000105,
          "velocity": 0.6299212598425197,
          "duration": 0.04310341666666773
        },
        {
          "name": "D4",
          "midi": 62,
          "time": 95.17234400000105,
          "velocity": 0.6299212598425197,
          "duration": 0.758620133333352
        },
        {
          "name": "F#4",
          "midi": 66,
          "time": 95.17234400000105,
          "velocity": 0.6299212598425197,
          "duration": 0.7629304750000188
        },
        {
          "name": "E2",
          "midi": 40,
          "time": 95.17234400000105,
          "velocity": 0.6692913385826772,
          "duration": 0.49999963333334563
        },
        {
          "name": "B2",
          "midi": 47,
          "time": 95.17234400000105,
          "velocity": 0.6692913385826772,
          "duration": 0.5043099750000124
        },
        {
          "name": "E3",
          "midi": 52,
          "time": 95.17234400000105,
          "velocity": 0.6692913385826772,
          "duration": 0.5172410000000127
        },
        {
          "name": "D3",
          "midi": 50,
          "time": 95.17234400000105,
          "velocity": 0.5511811023622047,
          "duration": 0.7672408166666855
        },
        {
          "name": "F#3",
          "midi": 54,
          "time": 95.17234400000105,
          "velocity": 0.5511811023622047,
          "duration": 0.7672408166666855
        },
        {
          "name": "G3",
          "midi": 55,
          "time": 95.17234400000105,
          "velocity": 0.5511811023622047,
          "duration": 0.7672408166666855
        },
        {
          "name": "B3",
          "midi": 59,
          "time": 95.17234400000105,
          "velocity": 0.5511811023622047,
          "duration": 0.3017239166666741
        },
        {
          "name": "B1",
          "midi": 35,
          "time": 95.17234400000105,
          "velocity": 0.8503937007874016,
          "duration": 0.04310341666666773
        },
        {
          "name": "B3",
          "midi": 59,
          "time": 95.17234400000105,
          "velocity": 0.8661417322834646,
          "duration": 0.5603444166666804
        },
        {
          "name": "F#2",
          "midi": 42,
          "time": 95.43096450000105,
          "velocity": 0.6929133858267716,
          "duration": 0.25862050000000636
        },
        {
          "name": "B3",
          "midi": 59,
          "time": 95.43096450000105,
          "velocity": 0.7086614173228346,
          "duration": 0.49999963333334563
        },
        {
          "name": "E5",
          "midi": 76,
          "time": 95.68958500000106,
          "velocity": 0.7874015748031497,
          "duration": 0.25862050000000636
        },
        {
          "name": "E5",
          "midi": 76,
          "time": 95.68958500000106,
          "velocity": 0.7874015748031497,
          "duration": 0.25862050000000636
        },
        {
          "name": "E3",
          "midi": 52,
          "time": 95.68958500000106,
          "velocity": 0.7874015748031497,
          "duration": 0.24999981666667281
        },
        {
          "name": "G2",
          "midi": 43,
          "time": 95.68958500000106,
          "velocity": 0.7165354330708661,
          "duration": 0.25862050000000636
        },
        {
          "name": "E2",
          "midi": 40,
          "time": 95.68958500000106,
          "velocity": 0.5905511811023622,
          "duration": 0.04310341666666773
        },
        {
          "name": "B2",
          "midi": 47,
          "time": 95.68958500000106,
          "velocity": 0.5905511811023622,
          "duration": 0.24137913333333927
        },
        {
          "name": "E3",
          "midi": 52,
          "time": 95.68958500000106,
          "velocity": 0.5905511811023622,
          "duration": 0.5172410000000127
        },
        {
          "name": "E2",
          "midi": 40,
          "time": 95.68958500000106,
          "velocity": 0.8503937007874016,
          "duration": 0.24999981666667281
        },
        {
          "name": "F#2",
          "midi": 42,
          "time": 95.68958500000106,
          "velocity": 0.8661417322834646,
          "duration": 0.04310341666666773
        },
        {
          "name": "B3",
          "midi": 59,
          "time": 95.68958500000106,
          "velocity": 0.7165354330708661,
          "duration": 0.24999981666667281
        },
        {
          "name": "C#5",
          "midi": 73,
          "time": 95.94820550000107,
          "velocity": 0.7874015748031497,
          "duration": 0.38793075000000954
        },
        {
          "name": "C#5",
          "midi": 73,
          "time": 95.94820550000107,
          "velocity": 0.7874015748031497,
          "duration": 0.38793075000000954
        },
        {
          "name": "A4",
          "midi": 69,
          "time": 95.94820550000107,
          "velocity": 0.7874015748031497,
          "duration": 0.7758615000000191
        },
        {
          "name": "C#5",
          "midi": 73,
          "time": 95.94820550000107,
          "velocity": 0.7874015748031497,
          "duration": 0.7758615000000191
        },
        {
          "name": "E5",
          "midi": 76,
          "time": 95.94820550000107,
          "velocity": 0.7874015748031497,
          "duration": 0.7758615000000191
        },
        {
          "name": "A2",
          "midi": 45,
          "time": 95.94820550000107,
          "velocity": 0.8740157480314961,
          "duration": 0.5172410000000127
        },
        {
          "name": "A3",
          "midi": 57,
          "time": 95.94820550000107,
          "velocity": 0.5511811023622047,
          "duration": 0.5043099750000124
        },
        {
          "name": "C#4",
          "midi": 61,
          "time": 95.94820550000107,
          "velocity": 0.5511811023622047,
          "duration": 0.49999963333334563
        },
        {
          "name": "E4",
          "midi": 64,
          "time": 95.94820550000107,
          "velocity": 0.5511811023622047,
          "duration": 1.2801714750000315
        },
        {
          "name": "A2",
          "midi": 45,
          "time": 95.94820550000107,
          "velocity": 0.6692913385826772,
          "duration": 1.2844818166666983
        },
        {
          "name": "E3",
          "midi": 52,
          "time": 95.94820550000107,
          "velocity": 0.6692913385826772,
          "duration": 0.49999963333334563
        },
        {
          "name": "A3",
          "midi": 57,
          "time": 95.94820550000107,
          "velocity": 0.6692913385826772,
          "duration": 0.7758615000000191
        },
        {
          "name": "E3",
          "midi": 52,
          "time": 95.94820550000107,
          "velocity": 0.6692913385826772,
          "duration": 0.7758615000000191
        },
        {
          "name": "A3",
          "midi": 57,
          "time": 95.94820550000107,
          "velocity": 0.6692913385826772,
          "duration": 1.025861316666692
        },
        {
          "name": "C#4",
          "midi": 61,
          "time": 95.94820550000107,
          "velocity": 0.6692913385826772,
          "duration": 1.025861316666692
        },
        {
          "name": "B1",
          "midi": 35,
          "time": 95.94820550000107,
          "velocity": 0.5433070866141733,
          "duration": 0.04310341666666773
        },
        {
          "name": "B3",
          "midi": 59,
          "time": 95.94820550000107,
          "velocity": 0.5433070866141733,
          "duration": 0.04310341666666773
        },
        {
          "name": "A3",
          "midi": 57,
          "time": 96.20682600000107,
          "velocity": 0.7874015748031497,
          "duration": 1.0172406333333583
        },
        {
          "name": "B1",
          "midi": 35,
          "time": 96.20682600000107,
          "velocity": 0.8503937007874016,
          "duration": 0.04310341666666773
        },
        {
          "name": "B3",
          "midi": 59,
          "time": 96.20682600000107,
          "velocity": 0.8582677165354331,
          "duration": 0.04310341666666773
        },
        {
          "name": "B4",
          "midi": 71,
          "time": 96.33613625000108,
          "velocity": 0.7874015748031497,
          "duration": 0.12931025000000318
        },
        {
          "name": "B4",
          "midi": 71,
          "time": 96.33613625000108,
          "velocity": 0.7874015748031497,
          "duration": 0.12931025000000318
        },
        {
          "name": "A4",
          "midi": 69,
          "time": 96.46544650000108,
          "velocity": 0.7874015748031497,
          "duration": 0.25862050000000636
        },
        {
          "name": "A4",
          "midi": 69,
          "time": 96.46544650000108,
          "velocity": 0.7874015748031497,
          "duration": 0.25862050000000636
        },
        {
          "name": "E3",
          "midi": 52,
          "time": 96.46544650000108,
          "velocity": 0.7086614173228346,
          "duration": 0.5043099750000124
        },
        {
          "name": "E3",
          "midi": 52,
          "time": 96.46544650000108,
          "velocity": 0.5511811023622047,
          "duration": 0.758620133333352
        },
        {
          "name": "A3",
          "midi": 57,
          "time": 96.46544650000108,
          "velocity": 0.5511811023622047,
          "duration": 0.7629304750000188
        },
        {
          "name": "C#4",
          "midi": 61,
          "time": 96.46544650000108,
          "velocity": 0.5511811023622047,
          "duration": 0.758620133333352
        },
        {
          "name": "B3",
          "midi": 59,
          "time": 96.46544650000108,
          "velocity": 0.7165354330708661,
          "duration": 0.04310341666666773
        },
        {
          "name": "A4",
          "midi": 69,
          "time": 96.72406700000109,
          "velocity": 0.7874015748031497,
          "duration": 0.5172410000000127
        },
        {
          "name": "A3",
          "midi": 57,
          "time": 96.72406700000109,
          "velocity": 0.7874015748031497,
          "duration": 0.5086203166666792
        },
        {
          "name": "F#3",
          "midi": 54,
          "time": 96.72406700000109,
          "velocity": 0.8503937007874016,
          "duration": 0.25862050000000636
        },
        {
          "name": "E2",
          "midi": 40,
          "time": 96.72406700000109,
          "velocity": 0.8503937007874016,
          "duration": 0.04310341666666773
        },
        {
          "name": "F#2",
          "midi": 42,
          "time": 96.72406700000109,
          "velocity": 0.8661417322834646,
          "duration": 0.04310341666666773
        },
        {
          "name": "B3",
          "midi": 59,
          "time": 96.72406700000109,
          "velocity": 0.7165354330708661,
          "duration": 0.04310341666666773
        },
        {
          "name": "A4",
          "midi": 69,
          "time": 96.98268750000109,
          "velocity": 0.7874015748031497,
          "duration": 0.25862050000000636
        },
        {
          "name": "A4",
          "midi": 69,
          "time": 96.98268750000109,
          "velocity": 0.7874015748031497,
          "duration": 0.25862050000000636
        },
        {
          "name": "E3",
          "midi": 52,
          "time": 96.98268750000109,
          "velocity": 0.6929133858267716,
          "duration": 0.24999981666667281
        },
        {
          "name": "E3",
          "midi": 52,
          "time": 96.98268750000109,
          "velocity": 0.5511811023622047,
          "duration": 0.25862050000000636
        },
        {
          "name": "A3",
          "midi": 57,
          "time": 96.98268750000109,
          "velocity": 0.5511811023622047,
          "duration": 0.25862050000000636
        },
        {
          "name": "C#4",
          "midi": 61,
          "time": 96.98268750000109,
          "velocity": 0.5511811023622047,
          "duration": 0.24999981666667281
        },
        {
          "name": "B1",
          "midi": 35,
          "time": 96.98268750000109,
          "velocity": 0.5433070866141733,
          "duration": 0.04310341666666773
        },
        {
          "name": "B3",
          "midi": 59,
          "time": 96.98268750000109,
          "velocity": 0.5669291338582677,
          "duration": 0.04310341666666773
        },
        {
          "name": "E5",
          "midi": 76,
          "time": 97.2413080000011,
          "velocity": 0.7874015748031497,
          "duration": 0.25862050000000636
        },
        {
          "name": "E5",
          "midi": 76,
          "time": 97.2413080000011,
          "velocity": 0.7874015748031497,
          "duration": 0.25862050000000636
        },
        {
          "name": "E5",
          "midi": 76,
          "time": 97.2413080000011,
          "velocity": 0.7874015748031497,
          "duration": 0.25862050000000636
        },
        {
          "name": "A4",
          "midi": 69,
          "time": 97.2413080000011,
          "velocity": 0.7874015748031497,
          "duration": 0.758620133333352
        },
        {
          "name": "C#5",
          "midi": 73,
          "time": 97.2413080000011,
          "velocity": 0.7874015748031497,
          "duration": 0.7758615000000191
        },
        {
          "name": "F#3",
          "midi": 54,
          "time": 97.2413080000011,
          "velocity": 0.7874015748031497,
          "duration": 0.5086203166666792
        },
        {
          "name": "F#2",
          "midi": 42,
          "time": 97.2413080000011,
          "velocity": 0.8740157480314961,
          "duration": 0.5043099750000124
        },
        {
          "name": "C#4",
          "midi": 61,
          "time": 97.2413080000011,
          "velocity": 0.6299212598425197,
          "duration": 0.758620133333352
        },
        {
          "name": "E4",
          "midi": 64,
          "time": 97.2413080000011,
          "velocity": 0.6299212598425197,
          "duration": 0.7629304750000188
        },
        {
          "name": "A4",
          "midi": 69,
          "time": 97.2413080000011,
          "velocity": 0.6299212598425197,
          "duration": 0.7758615000000191
        },
        {
          "name": "F#2",
          "midi": 42,
          "time": 97.2413080000011,
          "velocity": 0.6692913385826772,
          "duration": 0.758620133333352
        },
        {
          "name": "C#3",
          "midi": 49,
          "time": 97.2413080000011,
          "velocity": 0.6692913385826772,
          "duration": 0.49999963333334563
        },
        {
          "name": "F#3",
          "midi": 54,
          "time": 97.2413080000011,
          "velocity": 0.6692913385826772,
          "duration": 0.5172410000000127
        },
        {
          "name": "E3",
          "midi": 52,
          "time": 97.2413080000011,
          "velocity": 0.5511811023622047,
          "duration": 0.758620133333352
        },
        {
          "name": "A3",
          "midi": 57,
          "time": 97.2413080000011,
          "velocity": 0.5511811023622047,
          "duration": 0.758620133333352
        },
        {
          "name": "C#4",
          "midi": 61,
          "time": 97.2413080000011,
          "velocity": 0.5511811023622047,
          "duration": 0.7672408166666855
        },
        {
          "name": "E2",
          "midi": 40,
          "time": 97.2413080000011,
          "velocity": 0.8740157480314961,
          "duration": 0.04310341666666773
        },
        {
          "name": "E2",
          "midi": 40,
          "time": 97.3706182500011,
          "velocity": 0.6929133858267716,
          "duration": 0.04310341666666773
        },
        {
          "name": "D5",
          "midi": 74,
          "time": 97.4999285000011,
          "velocity": 0.7874015748031497,
          "duration": 0.25862050000000636
        },
        {
          "name": "D5",
          "midi": 74,
          "time": 97.4999285000011,
          "velocity": 0.7874015748031497,
          "duration": 0.25862050000000636
        },
        {
          "name": "F#5",
          "midi": 78,
          "time": 97.4999285000011,
          "velocity": 0.7874015748031497,
          "duration": 0.25862050000000636
        },
        {
          "name": "E2",
          "midi": 40,
          "time": 97.4999285000011,
          "velocity": 0.33858267716535434,
          "duration": 0.04310341666666773
        },
        {
          "name": "E2",
          "midi": 40,
          "time": 97.62923875000111,
          "velocity": 0.5511811023622047,
          "duration": 0.04310341666666773
        },
        {
          "name": "D5",
          "midi": 74,
          "time": 97.75854900000111,
          "velocity": 0.7874015748031497,
          "duration": 0.5172410000000127
        },
        {
          "name": "D5",
          "midi": 74,
          "time": 97.75854900000111,
          "velocity": 0.7874015748031497,
          "duration": 0.5172410000000127
        },
        {
          "name": "F#5",
          "midi": 78,
          "time": 97.75854900000111,
          "velocity": 0.7874015748031497,
          "duration": 0.25862050000000636
        },
        {
          "name": "B3",
          "midi": 59,
          "time": 97.75854900000111,
          "velocity": 0.7874015748031497,
          "duration": 0.5172410000000127
        },
        {
          "name": "F#2",
          "midi": 42,
          "time": 97.75854900000111,
          "velocity": 0.5905511811023622,
          "duration": 0.25862050000000636
        },
        {
          "name": "C#3",
          "midi": 49,
          "time": 97.75854900000111,
          "velocity": 0.5905511811023622,
          "duration": 0.24999981666667281
        },
        {
          "name": "F#3",
          "midi": 54,
          "time": 97.75854900000111,
          "velocity": 0.5905511811023622,
          "duration": 0.24568947500000604
        },
        {
          "name": "E2",
          "midi": 40,
          "time": 97.75854900000111,
          "velocity": 0.8740157480314961,
          "duration": 0.04310341666666773
        },
        {
          "name": "E2",
          "midi": 40,
          "time": 97.80165241666778,
          "velocity": 0.7165354330708661,
          "duration": 0.04310341666666773
        },
        {
          "name": "F#4",
          "midi": 66,
          "time": 98.01716950000112,
          "velocity": 0.7874015748031497,
          "duration": 1.2844818166666983
        },
        {
          "name": "A4",
          "midi": 69,
          "time": 98.01716950000112,
          "velocity": 0.7874015748031497,
          "duration": 0.9051717500000223
        },
        {
          "name": "D5",
          "midi": 74,
          "time": 98.01716950000112,
          "velocity": 0.7874015748031497,
          "duration": 1.1637922500000286
        },
        {
          "name": "A2",
          "midi": 45,
          "time": 98.01716950000112,
          "velocity": 0.8661417322834646,
          "duration": 0.5172410000000127
        },
        {
          "name": "A3",
          "midi": 57,
          "time": 98.01716950000112,
          "velocity": 0.6299212598425197,
          "duration": 0.5043099750000124
        },
        {
          "name": "D4",
          "midi": 62,
          "time": 98.01716950000112,
          "velocity": 0.6299212598425197,
          "duration": 0.5043099750000124
        },
        {
          "name": "F#4",
          "midi": 66,
          "time": 98.01716950000112,
          "velocity": 0.6299212598425197,
          "duration": 1.2931025000000318
        },
        {
          "name": "D3",
          "midi": 50,
          "time": 98.01716950000112,
          "velocity": 0.5905511811023622,
          "duration": 0.7672408166666855
        },
        {
          "name": "A3",
          "midi": 57,
          "time": 98.01716950000112,
          "velocity": 0.5905511811023622,
          "duration": 0.5172410000000127
        },
        {
          "name": "D4",
          "midi": 62,
          "time": 98.01716950000112,
          "velocity": 0.5905511811023622,
          "duration": 0.7629304750000188
        },
        {
          "name": "F#3",
          "midi": 54,
          "time": 98.01716950000112,
          "velocity": 0.6692913385826772,
          "duration": 0.5043099750000124
        },
        {
          "name": "A3",
          "midi": 57,
          "time": 98.01716950000112,
          "velocity": 0.6692913385826772,
          "duration": 0.7672408166666855
        },
        {
          "name": "D4",
          "midi": 62,
          "time": 98.01716950000112,
          "velocity": 0.6692913385826772,
          "duration": 1.2758611333333647
        },
        {
          "name": "B1",
          "midi": 35,
          "time": 98.01716950000112,
          "velocity": 0.7165354330708661,
          "duration": 0.04310341666666773
        },
        {
          "name": "E2",
          "midi": 40,
          "time": 98.14647975000112,
          "velocity": 0.36220472440944884,
          "duration": 0.04310341666666773
        },
        {
          "name": "A3",
          "midi": 57,
          "time": 98.27579000000112,
          "velocity": 0.7874015748031497,
          "duration": 0.5172410000000127
        },
        {
          "name": "E2",
          "midi": 40,
          "time": 98.27579000000112,
          "velocity": 0.8503937007874016,
          "duration": 0.04310341666666773
        },
        {
          "name": "E2",
          "midi": 40,
          "time": 98.40510025000113,
          "velocity": 0.7165354330708661,
          "duration": 0.04310341666666773
        },
        {
          "name": "A3",
          "midi": 57,
          "time": 98.53441050000113,
          "velocity": 0.7874015748031497,
          "duration": 0.5172410000000127
        },
        {
          "name": "E3",
          "midi": 52,
          "time": 98.53441050000113,
          "velocity": 0.7165354330708661,
          "duration": 0.25862050000000636
        },
        {
          "name": "F#3",
          "midi": 54,
          "time": 98.53441050000113,
          "velocity": 0.5511811023622047,
          "duration": 0.5172410000000127
        },
        {
          "name": "A3",
          "midi": 57,
          "time": 98.53441050000113,
          "velocity": 0.5511811023622047,
          "duration": 0.758620133333352
        },
        {
          "name": "D4",
          "midi": 62,
          "time": 98.53441050000113,
          "velocity": 0.5511811023622047,
          "duration": 0.7629304750000188
        },
        {
          "name": "E2",
          "midi": 40,
          "time": 98.53441050000113,
          "velocity": 0.3464566929133858,
          "duration": 0.04310341666666773
        },
        {
          "name": "E2",
          "midi": 40,
          "time": 98.66372075000113,
          "velocity": 0.8740157480314961,
          "duration": 0.04310341666666773
        },
        {
          "name": "A4",
          "midi": 69,
          "time": 98.79303100000114,
          "velocity": 0.7874015748031497,
          "duration": 0.12931025000000318
        },
        {
          "name": "A4",
          "midi": 69,
          "time": 98.79303100000114,
          "velocity": 0.7874015748031497,
          "duration": 0.5172410000000127
        },
        {
          "name": "A3",
          "midi": 57,
          "time": 98.79303100000114,
          "velocity": 0.7874015748031497,
          "duration": 0.5043099750000124
        },
        {
          "name": "F#3",
          "midi": 54,
          "time": 98.79303100000114,
          "velocity": 0.8582677165354331,
          "duration": 0.5086203166666792
        },
        {
          "name": "D3",
          "midi": 50,
          "time": 98.79303100000114,
          "velocity": 0.5905511811023622,
          "duration": 0.5086203166666792
        },
        {
          "name": "A3",
          "midi": 57,
          "time": 98.79303100000114,
          "velocity": 0.5905511811023622,
          "duration": 0.5043099750000124
        },
        {
          "name": "D4",
          "midi": 62,
          "time": 98.79303100000114,
          "velocity": 0.5905511811023622,
          "duration": 0.5043099750000124
        },
        {
          "name": "E2",
          "midi": 40,
          "time": 98.79303100000114,
          "velocity": 0.5354330708661418,
          "duration": 0.04310341666666773
        },
        {
          "name": "B4",
          "midi": 71,
          "time": 98.92234125000114,
          "velocity": 0.7874015748031497,
          "duration": 0.12931025000000318
        },
        {
          "name": "B4",
          "midi": 71,
          "time": 98.92234125000114,
          "velocity": 0.7874015748031497,
          "duration": 0.12931025000000318
        },
        {
          "name": "E2",
          "midi": 40,
          "time": 98.92234125000114,
          "velocity": 0.3543307086614173,
          "duration": 0.04310341666666773
        },
        {
          "name": "D5",
          "midi": 74,
          "time": 99.05165150000114,
          "velocity": 0.7874015748031497,
          "duration": 0.12931025000000318
        },
        {
          "name": "D5",
          "midi": 74,
          "time": 99.05165150000114,
          "velocity": 0.7874015748031497,
          "duration": 0.25862050000000636
        },
        {
          "name": "A3",
          "midi": 57,
          "time": 99.05165150000114,
          "velocity": 0.7874015748031497,
          "duration": 0.25862050000000636
        },
        {
          "name": "A3",
          "midi": 57,
          "time": 99.05165150000114,
          "velocity": 0.7086614173228346,
          "duration": 0.25862050000000636
        },
        {
          "name": "B1",
          "midi": 35,
          "time": 99.05165150000114,
          "velocity": 0.7086614173228346,
          "duration": 0.04310341666666773
        },
        {
          "name": "B4",
          "midi": 71,
          "time": 99.18096175000115,
          "velocity": 0.7874015748031497,
          "duration": 0.12931025000000318
        },
        {
          "name": "B4",
          "midi": 71,
          "time": 99.18096175000115,
          "velocity": 0.7874015748031497,
          "duration": 0.12931025000000318
        },
        {
          "name": "E2",
          "midi": 40,
          "time": 99.18096175000115,
          "velocity": 0.5433070866141733,
          "duration": 0.04310341666666773
        },
        {
          "name": "A3",
          "midi": 57,
          "time": 99.30596165833448,
          "velocity": 0.8740157480314961,
          "duration": 0.004310341666666773
        },
        {
          "name": "F#5",
          "midi": 78,
          "time": 99.31027200000115,
          "velocity": 0.7874015748031497,
          "duration": 0.38793075000000954
        },
        {
          "name": "F#5",
          "midi": 78,
          "time": 99.31027200000115,
          "velocity": 0.7874015748031497,
          "duration": 0.38793075000000954
        },
        {
          "name": "G4",
          "midi": 67,
          "time": 99.31027200000115,
          "velocity": 0.7874015748031497,
          "duration": 0.7758615000000191
        },
        {
          "name": "B4",
          "midi": 71,
          "time": 99.31027200000115,
          "velocity": 0.7874015748031497,
          "duration": 0.7758615000000191
        },
        {
          "name": "D5",
          "midi": 74,
          "time": 99.31027200000115,
          "velocity": 0.7874015748031497,
          "duration": 0.7758615000000191
        },
        {
          "name": "F#5",
          "midi": 78,
          "time": 99.31027200000115,
          "velocity": 0.7874015748031497,
          "duration": 0.7758615000000191
        },
        {
          "name": "E3",
          "midi": 52,
          "time": 99.31027200000115,
          "velocity": 0.7874015748031497,
          "duration": 0.49999963333334563
        },
        {
          "name": "E2",
          "midi": 40,
          "time": 99.31027200000115,
          "velocity": 0.8661417322834646,
          "duration": 0.24568947500000604
        },
        {
          "name": "F#3",
          "midi": 54,
          "time": 99.31027200000115,
          "velocity": 0.6299212598425197,
          "duration": 0.758620133333352
        },
        {
          "name": "G3",
          "midi": 55,
          "time": 99.31027200000115,
          "velocity": 0.6299212598425197,
          "duration": 0.758620133333352
        },
        {
          "name": "B3",
          "midi": 59,
          "time": 99.31027200000115,
          "velocity": 0.6299212598425197,
          "duration": 0.04310341666666773
        },
        {
          "name": "D4",
          "midi": 62,
          "time": 99.31027200000115,
          "velocity": 0.6299212598425197,
          "duration": 0.758620133333352
        },
        {
          "name": "E2",
          "midi": 40,
          "time": 99.31027200000115,
          "velocity": 0.6692913385826772,
          "duration": 0.5086203166666792
        },
        {
          "name": "B2",
          "midi": 47,
          "time": 99.31027200000115,
          "velocity": 0.6692913385826772,
          "duration": 0.49999963333334563
        },
        {
          "name": "E3",
          "midi": 52,
          "time": 99.31027200000115,
          "velocity": 0.6692913385826772,
          "duration": 0.5172410000000127
        },
        {
          "name": "D3",
          "midi": 50,
          "time": 99.31027200000115,
          "velocity": 0.5511811023622047,
          "duration": 0.7672408166666855
        },
        {
          "name": "F#3",
          "midi": 54,
          "time": 99.31027200000115,
          "velocity": 0.5511811023622047,
          "duration": 0.7629304750000188
        },
        {
          "name": "G3",
          "midi": 55,
          "time": 99.31027200000115,
          "velocity": 0.5511811023622047,
          "duration": 0.7672408166666855
        },
        {
          "name": "B3",
          "midi": 59,
          "time": 99.31027200000115,
          "velocity": 0.5511811023622047,
          "duration": 0.3017239166666741
        },
        {
          "name": "B1",
          "midi": 35,
          "time": 99.31027200000115,
          "velocity": 0.8582677165354331,
          "duration": 0.04310341666666773
        },
        {
          "name": "B3",
          "midi": 59,
          "time": 99.31027200000115,
          "velocity": 0.8740157480314961,
          "duration": 0.5603444166666804
        },
        {
          "name": "E2",
          "midi": 40,
          "time": 99.56889250000116,
          "velocity": 0.7086614173228346,
          "duration": 0.25862050000000636
        },
        {
          "name": "B3",
          "midi": 59,
          "time": 99.56889250000116,
          "velocity": 0.7165354330708661,
          "duration": 0.49999963333334563
        },
        {
          "name": "F#5",
          "midi": 78,
          "time": 99.69820275000116,
          "velocity": 0.7874015748031497,
          "duration": 0.38793075000000954
        },
        {
          "name": "F#5",
          "midi": 78,
          "time": 99.69820275000116,
          "velocity": 0.7874015748031497,
          "duration": 0.38793075000000954
        },
        {
          "name": "E3",
          "midi": 52,
          "time": 99.82751300000116,
          "velocity": 0.7874015748031497,
          "duration": 0.24999981666667281
        },
        {
          "name": "F#2",
          "midi": 42,
          "time": 99.82751300000116,
          "velocity": 0.7086614173228346,
          "duration": 0.04310341666666773
        },
        {
          "name": "E2",
          "midi": 40,
          "time": 99.82751300000116,
          "velocity": 0.5905511811023622,
          "duration": 0.04310341666666773
        },
        {
          "name": "B2",
          "midi": 47,
          "time": 99.82751300000116,
          "velocity": 0.5905511811023622,
          "duration": 0.24568947500000604
        },
        {
          "name": "E3",
          "midi": 52,
          "time": 99.82751300000116,
          "velocity": 0.5905511811023622,
          "duration": 0.5172410000000127
        },
        {
          "name": "E2",
          "midi": 40,
          "time": 99.82751300000116,
          "velocity": 0.8740157480314961,
          "duration": 0.24568947500000604
        },
        {
          "name": "F#2",
          "midi": 42,
          "time": 99.82751300000116,
          "velocity": 0.8661417322834646,
          "duration": 0.25862050000000636
        },
        {
          "name": "B3",
          "midi": 59,
          "time": 99.82751300000116,
          "velocity": 0.7165354330708661,
          "duration": 0.24999981666667281
        },
        {
          "name": "E5",
          "midi": 76,
          "time": 100.08613350000117,
          "velocity": 0.7874015748031497,
          "duration": 0.7758615000000191
        },
        {
          "name": "E5",
          "midi": 76,
          "time": 100.08613350000117,
          "velocity": 0.7874015748031497,
          "duration": 0.7758615000000191
        },
        {
          "name": "A4",
          "midi": 69,
          "time": 100.08613350000117,
          "velocity": 0.7874015748031497,
          "duration": 0.7758615000000191
        },
        {
          "name": "C#5",
          "midi": 73,
          "time": 100.08613350000117,
          "velocity": 0.7874015748031497,
          "duration": 0.7758615000000191
        },
        {
          "name": "E5",
          "midi": 76,
          "time": 100.08613350000117,
          "velocity": 0.7874015748031497,
          "duration": 0.7758615000000191
        },
        {
          "name": "A2",
          "midi": 45,
          "time": 100.08613350000117,
          "velocity": 0.8661417322834646,
          "duration": 0.5172410000000127
        },
        {
          "name": "C#4",
          "midi": 61,
          "time": 100.08613350000117,
          "velocity": 0.6299212598425197,
          "duration": 0.5043099750000124
        },
        {
          "name": "E4",
          "midi": 64,
          "time": 100.08613350000117,
          "velocity": 0.6299212598425197,
          "duration": 1.2801714750000315
        },
        {
          "name": "A4",
          "midi": 69,
          "time": 100.08613350000117,
          "velocity": 0.6299212598425197,
          "duration": 0.9051717500000223
        },
        {
          "name": "A2",
          "midi": 45,
          "time": 100.08613350000117,
          "velocity": 0.5905511811023622,
          "duration": 0.7672408166666855
        },
        {
          "name": "E3",
          "midi": 52,
          "time": 100.08613350000117,
          "velocity": 0.5905511811023622,
          "duration": 0.5043099750000124
        },
        {
          "name": "A3",
          "midi": 57,
          "time": 100.08613350000117,
          "velocity": 0.5905511811023622,
          "duration": 0.49999963333334563
        },
        {
          "name": "E3",
          "midi": 52,
          "time": 100.08613350000117,
          "velocity": 0.6692913385826772,
          "duration": 0.7672408166666855
        },
        {
          "name": "A3",
          "midi": 57,
          "time": 100.08613350000117,
          "velocity": 0.6692913385826772,
          "duration": 0.7629304750000188
        },
        {
          "name": "C#4",
          "midi": 61,
          "time": 100.08613350000117,
          "velocity": 0.6692913385826772,
          "duration": 1.0172406333333583
        },
        {
          "name": "B1",
          "midi": 35,
          "time": 100.08613350000117,
          "velocity": 0.5669291338582677,
          "duration": 0.04310341666666773
        },
        {
          "name": "B3",
          "midi": 59,
          "time": 100.08613350000117,
          "velocity": 0.5354330708661418,
          "duration": 0.04310341666666773
        },
        {
          "name": "A3",
          "midi": 57,
          "time": 100.34475400000117,
          "velocity": 0.7874015748031497,
          "duration": 0.5172410000000127
        },
        {
          "name": "B1",
          "midi": 35,
          "time": 100.34475400000117,
          "velocity": 0.8582677165354331,
          "duration": 0.04310341666666773
        },
        {
          "name": "B3",
          "midi": 59,
          "time": 100.34475400000117,
          "velocity": 0.8503937007874016,
          "duration": 0.04310341666666773
        },
        {
          "name": "E3",
          "midi": 52,
          "time": 100.60337450000118,
          "velocity": 0.6929133858267716,
          "duration": 0.25862050000000636
        },
        {
          "name": "E3",
          "midi": 52,
          "time": 100.60337450000118,
          "velocity": 0.5511811023622047,
          "duration": 0.5086203166666792
        },
        {
          "name": "A3",
          "midi": 57,
          "time": 100.60337450000118,
          "velocity": 0.5511811023622047,
          "duration": 0.5086203166666792
        },
        {
          "name": "C#4",
          "midi": 61,
          "time": 100.60337450000118,
          "velocity": 0.5511811023622047,
          "duration": 0.7629304750000188
        },
        {
          "name": "B3",
          "midi": 59,
          "time": 100.60337450000118,
          "velocity": 0.7165354330708661,
          "duration": 0.04310341666666773
        },
        {
          "name": "A4",
          "midi": 69,
          "time": 100.86199500000119,
          "velocity": 0.7874015748031497,
          "duration": 0.12931025000000318
        },
        {
          "name": "A4",
          "midi": 69,
          "time": 100.86199500000119,
          "velocity": 0.7874015748031497,
          "duration": 0.5086203166666792
        },
        {
          "name": "A4",
          "midi": 69,
          "time": 100.86199500000119,
          "velocity": 0.7874015748031497,
          "duration": 0.5172410000000127
        },
        {
          "name": "A3",
          "midi": 57,
          "time": 100.86199500000119,
          "velocity": 0.7874015748031497,
          "duration": 0.49999963333334563
        },
        {
          "name": "F#3",
          "midi": 54,
          "time": 100.86199500000119,
          "velocity": 0.8582677165354331,
          "duration": 0.25862050000000636
        },
        {
          "name": "A2",
          "midi": 45,
          "time": 100.86199500000119,
          "velocity": 0.5905511811023622,
          "duration": 0.5043099750000124
        },
        {
          "name": "E3",
          "midi": 52,
          "time": 100.86199500000119,
          "velocity": 0.5905511811023622,
          "duration": 0.49999963333334563
        },
        {
          "name": "A3",
          "midi": 57,
          "time": 100.86199500000119,
          "velocity": 0.5905511811023622,
          "duration": 0.5086203166666792
        },
        {
          "name": "E2",
          "midi": 40,
          "time": 100.86199500000119,
          "velocity": 0.8661417322834646,
          "duration": 0.04310341666666773
        },
        {
          "name": "F#2",
          "midi": 42,
          "time": 100.86199500000119,
          "velocity": 0.8661417322834646,
          "duration": 0.04310341666666773
        },
        {
          "name": "B3",
          "midi": 59,
          "time": 100.86199500000119,
          "velocity": 0.7007874015748031,
          "duration": 0.04310341666666773
        },
        {
          "name": "B4",
          "midi": 71,
          "time": 100.99130525000119,
          "velocity": 0.7874015748031497,
          "duration": 0.12931025000000318
        },
        {
          "name": "B4",
          "midi": 71,
          "time": 100.99130525000119,
          "velocity": 0.7874015748031497,
          "duration": 0.12931025000000318
        },
        {
          "name": "C#5",
          "midi": 73,
          "time": 101.1206155000012,
          "velocity": 0.7874015748031497,
          "duration": 0.12931025000000318
        },
        {
          "name": "C#5",
          "midi": 73,
          "time": 101.1206155000012,
          "velocity": 0.7874015748031497,
          "duration": 0.12931025000000318
        },
        {
          "name": "E3",
          "midi": 52,
          "time": 101.1206155000012,
          "velocity": 0.7165354330708661,
          "duration": 0.24568947500000604
        },
        {
          "name": "E3",
          "midi": 52,
          "time": 101.1206155000012,
          "velocity": 0.5511811023622047,
          "duration": 0.25862050000000636
        },
        {
          "name": "A3",
          "midi": 57,
          "time": 101.1206155000012,
          "velocity": 0.5511811023622047,
          "duration": 0.25862050000000636
        },
        {
          "name": "C#4",
          "midi": 61,
          "time": 101.1206155000012,
          "velocity": 0.5511811023622047,
          "duration": 0.24568947500000604
        },
        {
          "name": "B3",
          "midi": 59,
          "time": 101.1206155000012,
          "velocity": 0.5669291338582677,
          "duration": 0.04310341666666773
        },
        {
          "name": "A4",
          "midi": 69,
          "time": 101.2499257500012,
          "velocity": 0.7874015748031497,
          "duration": 0.12931025000000318
        },
        {
          "name": "A4",
          "midi": 69,
          "time": 101.2499257500012,
          "velocity": 0.7874015748031497,
          "duration": 0.12931025000000318
        },
        {
          "name": "E5",
          "midi": 76,
          "time": 101.3792360000012,
          "velocity": 0.7874015748031497,
          "duration": 0.38793075000000954
        },
        {
          "name": "E5",
          "midi": 76,
          "time": 101.3792360000012,
          "velocity": 0.7874015748031497,
          "duration": 0.38793075000000954
        },
        {
          "name": "A4",
          "midi": 69,
          "time": 101.3792360000012,
          "velocity": 0.7874015748031497,
          "duration": 0.7629304750000188
        },
        {
          "name": "C#5",
          "midi": 73,
          "time": 101.3792360000012,
          "velocity": 0.7874015748031497,
          "duration": 0.7758615000000191
        },
        {
          "name": "E5",
          "midi": 76,
          "time": 101.3792360000012,
          "velocity": 0.7874015748031497,
          "duration": 0.7758615000000191
        },
        {
          "name": "F#3",
          "midi": 54,
          "time": 101.3792360000012,
          "velocity": 0.7874015748031497,
          "duration": 0.5086203166666792
        },
        {
          "name": "F#2",
          "midi": 42,
          "time": 101.3792360000012,
          "velocity": 0.8661417322834646,
          "duration": 0.5043099750000124
        },
        {
          "name": "C#4",
          "midi": 61,
          "time": 101.3792360000012,
          "velocity": 0.6299212598425197,
          "duration": 0.758620133333352
        },
        {
          "name": "E4",
          "midi": 64,
          "time": 101.3792360000012,
          "velocity": 0.6299212598425197,
          "duration": 0.7672408166666855
        },
        {
          "name": "A4",
          "midi": 69,
          "time": 101.3792360000012,
          "velocity": 0.6299212598425197,
          "duration": 0.7758615000000191
        },
        {
          "name": "F#2",
          "midi": 42,
          "time": 101.3792360000012,
          "velocity": 0.6692913385826772,
          "duration": 0.7629304750000188
        },
        {
          "name": "C#3",
          "midi": 49,
          "time": 101.3792360000012,
          "velocity": 0.6692913385826772,
          "duration": 0.49999963333334563
        },
        {
          "name": "F#3",
          "midi": 54,
          "time": 101.3792360000012,
          "velocity": 0.6692913385826772,
          "duration": 0.5172410000000127
        },
        {
          "name": "E3",
          "midi": 52,
          "time": 101.3792360000012,
          "velocity": 0.5511811023622047,
          "duration": 0.7672408166666855
        },
        {
          "name": "A3",
          "midi": 57,
          "time": 101.3792360000012,
          "velocity": 0.5511811023622047,
          "duration": 0.7629304750000188
        },
        {
          "name": "C#4",
          "midi": 61,
          "time": 101.3792360000012,
          "velocity": 0.5511811023622047,
          "duration": 0.758620133333352
        },
        {
          "name": "B1",
          "midi": 35,
          "time": 101.3792360000012,
          "velocity": 0.8503937007874016,
          "duration": 0.04310341666666773
        },
        {
          "name": "B3",
          "midi": 59,
          "time": 101.3792360000012,
          "velocity": 0.8503937007874016,
          "duration": 0.04310341666666773
        },
        {
          "name": "B3",
          "midi": 59,
          "time": 101.6378565000012,
          "velocity": 0.6929133858267716,
          "duration": 0.04310341666666773
        },
        {
          "name": "E5",
          "midi": 76,
          "time": 101.76716675000121,
          "velocity": 0.7874015748031497,
          "duration": 0.38793075000000954
        },
        {
          "name": "E5",
          "midi": 76,
          "time": 101.76716675000121,
          "velocity": 0.7874015748031497,
          "duration": 0.38793075000000954
        },
        {
          "name": "F#3",
          "midi": 54,
          "time": 101.89647700000121,
          "velocity": 0.7874015748031497,
          "duration": 0.24568947500000604
        },
        {
          "name": "F#2",
          "midi": 42,
          "time": 101.89647700000121,
          "velocity": 0.5905511811023622,
          "duration": 0.25862050000000636
        },
        {
          "name": "C#3",
          "midi": 49,
          "time": 101.89647700000121,
          "velocity": 0.5905511811023622,
          "duration": 0.24999981666667281
        },
        {
          "name": "F#3",
          "midi": 54,
          "time": 101.89647700000121,
          "velocity": 0.5905511811023622,
          "duration": 0.5172410000000127
        },
        {
          "name": "E2",
          "midi": 40,
          "time": 101.89647700000121,
          "velocity": 0.8582677165354331,
          "duration": 0.04310341666666773
        },
        {
          "name": "A#2",
          "midi": 46,
          "time": 101.89647700000121,
          "velocity": 0.8503937007874016,
          "duration": 0.04310341666666773
        },
        {
          "name": "B3",
          "midi": 59,
          "time": 101.89647700000121,
          "velocity": 0.7086614173228346,
          "duration": 0.04310341666666773
        },
        {
          "name": "D5",
          "midi": 74,
          "time": 102.15509750000122,
          "velocity": 0.7874015748031497,
          "duration": 0.12931025000000318
        },
        {
          "name": "D5",
          "midi": 74,
          "time": 102.15509750000122,
          "velocity": 0.7874015748031497,
          "duration": 0.12931025000000318
        },
        {
          "name": "B4",
          "midi": 71,
          "time": 102.15509750000122,
          "velocity": 0.7874015748031497,
          "duration": 0.7758615000000191
        },
        {
          "name": "D5",
          "midi": 74,
          "time": 102.15509750000122,
          "velocity": 0.7874015748031497,
          "duration": 0.7758615000000191
        },
        {
          "name": "F#5",
          "midi": 78,
          "time": 102.15509750000122,
          "velocity": 0.7874015748031497,
          "duration": 0.7758615000000191
        },
        {
          "name": "B2",
          "midi": 47,
          "time": 102.15509750000122,
          "velocity": 0.8740157480314961,
          "duration": 0.5172410000000127
        },
        {
          "name": "F#3",
          "midi": 54,
          "time": 102.15509750000122,
          "velocity": 0.6299212598425197,
          "duration": 0.5086203166666792
        },
        {
          "name": "A3",
          "midi": 57,
          "time": 102.15509750000122,
          "velocity": 0.6299212598425197,
          "duration": 0.5086203166666792
        },
        {
          "name": "D4",
          "midi": 62,
          "time": 102.15509750000122,
          "velocity": 0.6299212598425197,
          "duration": 0.49999963333334563
        },
        {
          "name": "B2",
          "midi": 47,
          "time": 102.15509750000122,
          "velocity": 0.5905511811023622,
          "duration": 0.7672408166666855
        },
        {
          "name": "F#3",
          "midi": 54,
          "time": 102.15509750000122,
          "velocity": 0.5905511811023622,
          "duration": 0.7629304750000188
        },
        {
          "name": "B3",
          "midi": 59,
          "time": 102.15509750000122,
          "velocity": 0.5905511811023622,
          "duration": 0.04310341666666773
        },
        {
          "name": "F#3",
          "midi": 54,
          "time": 102.15509750000122,
          "velocity": 0.6692913385826772,
          "duration": 0.7758615000000191
        },
        {
          "name": "A3",
          "midi": 57,
          "time": 102.15509750000122,
          "velocity": 0.6692913385826772,
          "duration": 1.0344820000000254
        },
        {
          "name": "D4",
          "midi": 62,
          "time": 102.15509750000122,
          "velocity": 0.6692913385826772,
          "duration": 1.2801714750000315
        },
        {
          "name": "B3",
          "midi": 59,
          "time": 102.15509750000122,
          "velocity": 0.7007874015748031,
          "duration": 0.3017239166666741
        },
        {
          "name": "C#5",
          "midi": 73,
          "time": 102.28440775000122,
          "velocity": 0.7874015748031497,
          "duration": 0.12931025000000318
        },
        {
          "name": "C#5",
          "midi": 73,
          "time": 102.28440775000122,
          "velocity": 0.7874015748031497,
          "duration": 0.12931025000000318
        },
        {
          "name": "B4",
          "midi": 71,
          "time": 102.41371800000123,
          "velocity": 0.7874015748031497,
          "duration": 0.5172410000000127
        },
        {
          "name": "B4",
          "midi": 71,
          "time": 102.41371800000123,
          "velocity": 0.7874015748031497,
          "duration": 0.5172410000000127
        },
        {
          "name": "B3",
          "midi": 59,
          "time": 102.41371800000123,
          "velocity": 0.7874015748031497,
          "duration": 0.3017239166666741
        },
        {
          "name": "B1",
          "midi": 35,
          "time": 102.41371800000123,
          "velocity": 0.8503937007874016,
          "duration": 0.04310341666666773
        },
        {
          "name": "B3",
          "midi": 59,
          "time": 102.41371800000123,
          "velocity": 0.7086614173228346,
          "duration": 0.5086203166666792
        },
        {
          "name": "F#3",
          "midi": 54,
          "time": 102.67233850000123,
          "velocity": 0.7007874015748031,
          "duration": 0.7629304750000188
        },
        {
          "name": "F#3",
          "midi": 54,
          "time": 102.67233850000123,
          "velocity": 0.5511811023622047,
          "duration": 0.7629304750000188
        },
        {
          "name": "A3",
          "midi": 57,
          "time": 102.67233850000123,
          "velocity": 0.5511811023622047,
          "duration": 0.7672408166666855
        },
        {
          "name": "D4",
          "midi": 62,
          "time": 102.67233850000123,
          "velocity": 0.5511811023622047,
          "duration": 0.7672408166666855
        },
        {
          "name": "B3",
          "midi": 59,
          "time": 102.67233850000123,
          "velocity": 0.7007874015748031,
          "duration": 0.25862050000000636
        },
        {
          "name": "A4",
          "midi": 69,
          "time": 102.93095900000124,
          "velocity": 0.7874015748031497,
          "duration": 0.12931025000000318
        },
        {
          "name": "A4",
          "midi": 69,
          "time": 102.93095900000124,
          "velocity": 0.7874015748031497,
          "duration": 0.12931025000000318
        },
        {
          "name": "A5",
          "midi": 81,
          "time": 102.93095900000124,
          "velocity": 0.7874015748031497,
          "duration": 0.12931025000000318
        },
        {
          "name": "B3",
          "midi": 59,
          "time": 102.93095900000124,
          "velocity": 0.7874015748031497,
          "duration": 0.04310341666666773
        },
        {
          "name": "A3",
          "midi": 57,
          "time": 102.93095900000124,
          "velocity": 0.8740157480314961,
          "duration": 0.5086203166666792
        },
        {
          "name": "B2",
          "midi": 47,
          "time": 102.93095900000124,
          "velocity": 0.5905511811023622,
          "duration": 0.5086203166666792
        },
        {
          "name": "F#3",
          "midi": 54,
          "time": 102.93095900000124,
          "velocity": 0.5905511811023622,
          "duration": 0.5043099750000124
        },
        {
          "name": "B3",
          "midi": 59,
          "time": 102.93095900000124,
          "velocity": 0.5905511811023622,
          "duration": 0.3017239166666741
        },
        {
          "name": "E2",
          "midi": 40,
          "time": 102.93095900000124,
          "velocity": 0.8661417322834646,
          "duration": 0.04310341666666773
        },
        {
          "name": "F#2",
          "midi": 42,
          "time": 102.93095900000124,
          "velocity": 0.8582677165354331,
          "duration": 0.04310341666666773
        },
        {
          "name": "B3",
          "midi": 59,
          "time": 102.93095900000124,
          "velocity": 0.7165354330708661,
          "duration": 0.5043099750000124
        },
        {
          "name": "B4",
          "midi": 71,
          "time": 103.06026925000124,
          "velocity": 0.7874015748031497,
          "duration": 0.12931025000000318
        },
        {
          "name": "B4",
          "midi": 71,
          "time": 103.06026925000124,
          "velocity": 0.7874015748031497,
          "duration": 0.12931025000000318
        },
        {
          "name": "G5",
          "midi": 79,
          "time": 103.06026925000124,
          "velocity": 0.7874015748031497,
          "duration": 0.12931025000000318
        },
        {
          "name": "C#5",
          "midi": 73,
          "time": 103.18957950000124,
          "velocity": 0.7874015748031497,
          "duration": 0.12931025000000318
        },
        {
          "name": "C#5",
          "midi": 73,
          "time": 103.18957950000124,
          "velocity": 0.7874015748031497,
          "duration": 0.12931025000000318
        },
        {
          "name": "F#5",
          "midi": 78,
          "time": 103.18957950000124,
          "velocity": 0.7874015748031497,
          "duration": 0.12931025000000318
        },
        {
          "name": "F#3",
          "midi": 54,
          "time": 103.18957950000124,
          "velocity": 0.7086614173228346,
          "duration": 0.25862050000000636
        },
        {
          "name": "B1",
          "midi": 35,
          "time": 103.18957950000124,
          "velocity": 0.5354330708661418,
          "duration": 0.04310341666666773
        },
        {
          "name": "B3",
          "midi": 59,
          "time": 103.18957950000124,
          "velocity": 0.5275590551181102,
          "duration": 0.25862050000000636
        },
        {
          "name": "A4",
          "midi": 69,
          "time": 103.31888975000125,
          "velocity": 0.7874015748031497,
          "duration": 0.12931025000000318
        },
        {
          "name": "A4",
          "midi": 69,
          "time": 103.31888975000125,
          "velocity": 0.7874015748031497,
          "duration": 0.12931025000000318
        },
        {
          "name": "E5",
          "midi": 76,
          "time": 103.31888975000125,
          "velocity": 0.7874015748031497,
          "duration": 0.12931025000000318
        },
        {
          "name": "D5",
          "midi": 74,
          "time": 103.44820000000125,
          "velocity": 0.7874015748031497,
          "duration": 0.5172410000000127
        },
        {
          "name": "D5",
          "midi": 74,
          "time": 103.44820000000125,
          "velocity": 0.7874015748031497,
          "duration": 0.5172410000000127
        },
        {
          "name": "G4",
          "midi": 67,
          "time": 103.44820000000125,
          "velocity": 0.7874015748031497,
          "duration": 0.7758615000000191
        },
        {
          "name": "B4",
          "midi": 71,
          "time": 103.44820000000125,
          "velocity": 0.7874015748031497,
          "duration": 0.7758615000000191
        },
        {
          "name": "D5",
          "midi": 74,
          "time": 103.44820000000125,
          "velocity": 0.7874015748031497,
          "duration": 0.7758615000000191
        },
        {
          "name": "F#5",
          "midi": 78,
          "time": 103.44820000000125,
          "velocity": 0.7874015748031497,
          "duration": 0.7758615000000191
        },
        {
          "name": "E3",
          "midi": 52,
          "time": 103.44820000000125,
          "velocity": 0.7874015748031497,
          "duration": 0.49999963333334563
        },
        {
          "name": "E2",
          "midi": 40,
          "time": 103.44820000000125,
          "velocity": 0.8582677165354331,
          "duration": 0.24568947500000604
        },
        {
          "name": "G3",
          "midi": 55,
          "time": 103.44820000000125,
          "velocity": 0.6299212598425197,
          "duration": 0.758620133333352
        },
        {
          "name": "B3",
          "midi": 59,
          "time": 103.44820000000125,
          "velocity": 0.6299212598425197,
          "duration": 0.04310341666666773
        },
        {
          "name": "D4",
          "midi": 62,
          "time": 103.44820000000125,
          "velocity": 0.6299212598425197,
          "duration": 0.758620133333352
        },
        {
          "name": "F#4",
          "midi": 66,
          "time": 103.44820000000125,
          "velocity": 0.6299212598425197,
          "duration": 0.7629304750000188
        },
        {
          "name": "E2",
          "midi": 40,
          "time": 103.44820000000125,
          "velocity": 0.6692913385826772,
          "duration": 0.49999963333334563
        },
        {
          "name": "B2",
          "midi": 47,
          "time": 103.44820000000125,
          "velocity": 0.6692913385826772,
          "duration": 0.5043099750000124
        },
        {
          "name": "E3",
          "midi": 52,
          "time": 103.44820000000125,
          "velocity": 0.6692913385826772,
          "duration": 0.5172410000000127
        },
        {
          "name": "D3",
          "midi": 50,
          "time": 103.44820000000125,
          "velocity": 0.5511811023622047,
          "duration": 0.7672408166666855
        },
        {
          "name": "F#3",
          "midi": 54,
          "time": 103.44820000000125,
          "velocity": 0.5511811023622047,
          "duration": 0.7672408166666855
        },
        {
          "name": "G3",
          "midi": 55,
          "time": 103.44820000000125,
          "velocity": 0.5511811023622047,
          "duration": 0.7672408166666855
        },
        {
          "name": "B3",
          "midi": 59,
          "time": 103.44820000000125,
          "velocity": 0.5511811023622047,
          "duration": 0.3017239166666741
        },
        {
          "name": "B1",
          "midi": 35,
          "time": 103.44820000000125,
          "velocity": 0.8503937007874016,
          "duration": 0.04310341666666773
        },
        {
          "name": "B3",
          "midi": 59,
          "time": 103.44820000000125,
          "velocity": 0.8661417322834646,
          "duration": 0.5603444166666804
        },
        {
          "name": "F#2",
          "midi": 42,
          "time": 103.70682050000126,
          "velocity": 0.6929133858267716,
          "duration": 0.25862050000000636
        },
        {
          "name": "B3",
          "midi": 59,
          "time": 103.70682050000126,
          "velocity": 0.7086614173228346,
          "duration": 0.49999963333334563
        },
        {
          "name": "E5",
          "midi": 76,
          "time": 103.96544100000126,
          "velocity": 0.7874015748031497,
          "duration": 0.25862050000000636
        },
        {
          "name": "E5",
          "midi": 76,
          "time": 103.96544100000126,
          "velocity": 0.7874015748031497,
          "duration": 0.25862050000000636
        },
        {
          "name": "E3",
          "midi": 52,
          "time": 103.96544100000126,
          "velocity": 0.7874015748031497,
          "duration": 0.24999981666667281
        },
        {
          "name": "G2",
          "midi": 43,
          "time": 103.96544100000126,
          "velocity": 0.7165354330708661,
          "duration": 0.25862050000000636
        },
        {
          "name": "E2",
          "midi": 40,
          "time": 103.96544100000126,
          "velocity": 0.5905511811023622,
          "duration": 0.04310341666666773
        },
        {
          "name": "B2",
          "midi": 47,
          "time": 103.96544100000126,
          "velocity": 0.5905511811023622,
          "duration": 0.24137913333333927
        },
        {
          "name": "E3",
          "midi": 52,
          "time": 103.96544100000126,
          "velocity": 0.5905511811023622,
          "duration": 0.5172410000000127
        },
        {
          "name": "E2",
          "midi": 40,
          "time": 103.96544100000126,
          "velocity": 0.8503937007874016,
          "duration": 0.24999981666667281
        },
        {
          "name": "F#2",
          "midi": 42,
          "time": 103.96544100000126,
          "velocity": 0.8661417322834646,
          "duration": 0.04310341666666773
        },
        {
          "name": "B3",
          "midi": 59,
          "time": 103.96544100000126,
          "velocity": 0.7165354330708661,
          "duration": 0.24999981666667281
        },
        {
          "name": "C#5",
          "midi": 73,
          "time": 104.22406150000127,
          "velocity": 0.7874015748031497,
          "duration": 0.25862050000000636
        },
        {
          "name": "C#5",
          "midi": 73,
          "time": 104.22406150000127,
          "velocity": 0.7874015748031497,
          "duration": 0.25862050000000636
        },
        {
          "name": "A4",
          "midi": 69,
          "time": 104.22406150000127,
          "velocity": 0.7874015748031497,
          "duration": 0.7758615000000191
        },
        {
          "name": "C#5",
          "midi": 73,
          "time": 104.22406150000127,
          "velocity": 0.7874015748031497,
          "duration": 0.7758615000000191
        },
        {
          "name": "E5",
          "midi": 76,
          "time": 104.22406150000127,
          "velocity": 0.7874015748031497,
          "duration": 0.7758615000000191
        },
        {
          "name": "A2",
          "midi": 45,
          "time": 104.22406150000127,
          "velocity": 0.8740157480314961,
          "duration": 0.5172410000000127
        },
        {
          "name": "A3",
          "midi": 57,
          "time": 104.22406150000127,
          "velocity": 0.5511811023622047,
          "duration": 0.5043099750000124
        },
        {
          "name": "C#4",
          "midi": 61,
          "time": 104.22406150000127,
          "velocity": 0.5511811023622047,
          "duration": 0.49999963333334563
        },
        {
          "name": "E4",
          "midi": 64,
          "time": 104.22406150000127,
          "velocity": 0.5511811023622047,
          "duration": 1.2801714750000315
        },
        {
          "name": "A2",
          "midi": 45,
          "time": 104.22406150000127,
          "velocity": 0.6692913385826772,
          "duration": 1.2844818166666983
        },
        {
          "name": "E3",
          "midi": 52,
          "time": 104.22406150000127,
          "velocity": 0.6692913385826772,
          "duration": 0.49999963333334563
        },
        {
          "name": "A3",
          "midi": 57,
          "time": 104.22406150000127,
          "velocity": 0.6692913385826772,
          "duration": 0.7758615000000191
        },
        {
          "name": "E3",
          "midi": 52,
          "time": 104.22406150000127,
          "velocity": 0.6692913385826772,
          "duration": 0.7758615000000191
        },
        {
          "name": "A3",
          "midi": 57,
          "time": 104.22406150000127,
          "velocity": 0.6692913385826772,
          "duration": 1.025861316666692
        },
        {
          "name": "C#4",
          "midi": 61,
          "time": 104.22406150000127,
          "velocity": 0.6692913385826772,
          "duration": 1.025861316666692
        },
        {
          "name": "B1",
          "midi": 35,
          "time": 104.22406150000127,
          "velocity": 0.5433070866141733,
          "duration": 0.04310341666666773
        },
        {
          "name": "B3",
          "midi": 59,
          "time": 104.22406150000127,
          "velocity": 0.5433070866141733,
          "duration": 0.04310341666666773
        },
        {
          "name": "B4",
          "midi": 71,
          "time": 104.48268200000128,
          "velocity": 0.7874015748031497,
          "duration": 0.25862050000000636
        },
        {
          "name": "B4",
          "midi": 71,
          "time": 104.48268200000128,
          "velocity": 0.7874015748031497,
          "duration": 0.25862050000000636
        },
        {
          "name": "A3",
          "midi": 57,
          "time": 104.48268200000128,
          "velocity": 0.7874015748031497,
          "duration": 1.0172406333333583
        },
        {
          "name": "B1",
          "midi": 35,
          "time": 104.48268200000128,
          "velocity": 0.8503937007874016,
          "duration": 0.04310341666666773
        },
        {
          "name": "B3",
          "midi": 59,
          "time": 104.48268200000128,
          "velocity": 0.8582677165354331,
          "duration": 0.04310341666666773
        },
        {
          "name": "A4",
          "midi": 69,
          "time": 104.74130250000128,
          "velocity": 0.7874015748031497,
          "duration": 0.25862050000000636
        },
        {
          "name": "A4",
          "midi": 69,
          "time": 104.74130250000128,
          "velocity": 0.7874015748031497,
          "duration": 0.25862050000000636
        },
        {
          "name": "E3",
          "midi": 52,
          "time": 104.74130250000128,
          "velocity": 0.7086614173228346,
          "duration": 0.5043099750000124
        },
        {
          "name": "E3",
          "midi": 52,
          "time": 104.74130250000128,
          "velocity": 0.5511811023622047,
          "duration": 0.758620133333352
        },
        {
          "name": "A3",
          "midi": 57,
          "time": 104.74130250000128,
          "velocity": 0.5511811023622047,
          "duration": 0.7629304750000188
        },
        {
          "name": "C#4",
          "midi": 61,
          "time": 104.74130250000128,
          "velocity": 0.5511811023622047,
          "duration": 0.758620133333352
        },
        {
          "name": "B3",
          "midi": 59,
          "time": 104.74130250000128,
          "velocity": 0.7165354330708661,
          "duration": 0.04310341666666773
        },
        {
          "name": "A4",
          "midi": 69,
          "time": 104.99992300000129,
          "velocity": 0.7874015748031497,
          "duration": 0.5172410000000127
        },
        {
          "name": "A3",
          "midi": 57,
          "time": 104.99992300000129,
          "velocity": 0.7874015748031497,
          "duration": 0.5086203166666792
        },
        {
          "name": "F#3",
          "midi": 54,
          "time": 104.99992300000129,
          "velocity": 0.8503937007874016,
          "duration": 0.25862050000000636
        },
        {
          "name": "E2",
          "midi": 40,
          "time": 104.99992300000129,
          "velocity": 0.8503937007874016,
          "duration": 0.04310341666666773
        },
        {
          "name": "F#2",
          "midi": 42,
          "time": 104.99992300000129,
          "velocity": 0.8661417322834646,
          "duration": 0.04310341666666773
        },
        {
          "name": "B3",
          "midi": 59,
          "time": 104.99992300000129,
          "velocity": 0.7165354330708661,
          "duration": 0.04310341666666773
        },
        {
          "name": "A4",
          "midi": 69,
          "time": 105.2585435000013,
          "velocity": 0.7874015748031497,
          "duration": 0.25862050000000636
        },
        {
          "name": "A4",
          "midi": 69,
          "time": 105.2585435000013,
          "velocity": 0.7874015748031497,
          "duration": 0.25862050000000636
        },
        {
          "name": "E3",
          "midi": 52,
          "time": 105.2585435000013,
          "velocity": 0.6929133858267716,
          "duration": 0.24999981666667281
        },
        {
          "name": "E3",
          "midi": 52,
          "time": 105.2585435000013,
          "velocity": 0.5511811023622047,
          "duration": 0.25862050000000636
        },
        {
          "name": "A3",
          "midi": 57,
          "time": 105.2585435000013,
          "velocity": 0.5511811023622047,
          "duration": 0.25862050000000636
        },
        {
          "name": "C#4",
          "midi": 61,
          "time": 105.2585435000013,
          "velocity": 0.5511811023622047,
          "duration": 0.24999981666667281
        },
        {
          "name": "B1",
          "midi": 35,
          "time": 105.2585435000013,
          "velocity": 0.5433070866141733,
          "duration": 0.04310341666666773
        },
        {
          "name": "B3",
          "midi": 59,
          "time": 105.2585435000013,
          "velocity": 0.5669291338582677,
          "duration": 0.04310341666666773
        },
        {
          "name": "E5",
          "midi": 76,
          "time": 105.5171640000013,
          "velocity": 0.7874015748031497,
          "duration": 0.5172410000000127
        },
        {
          "name": "E5",
          "midi": 76,
          "time": 105.5171640000013,
          "velocity": 0.7874015748031497,
          "duration": 0.5172410000000127
        },
        {
          "name": "A4",
          "midi": 69,
          "time": 105.5171640000013,
          "velocity": 0.7874015748031497,
          "duration": 0.758620133333352
        },
        {
          "name": "C#5",
          "midi": 73,
          "time": 105.5171640000013,
          "velocity": 0.7874015748031497,
          "duration": 0.7758615000000191
        },
        {
          "name": "E5",
          "midi": 76,
          "time": 105.5171640000013,
          "velocity": 0.7874015748031497,
          "duration": 0.7758615000000191
        },
        {
          "name": "F#3",
          "midi": 54,
          "time": 105.5171640000013,
          "velocity": 0.7874015748031497,
          "duration": 0.5086203166666792
        },
        {
          "name": "F#2",
          "midi": 42,
          "time": 105.5171640000013,
          "velocity": 0.8740157480314961,
          "duration": 0.5043099750000124
        },
        {
          "name": "C#4",
          "midi": 61,
          "time": 105.5171640000013,
          "velocity": 0.6299212598425197,
          "duration": 0.758620133333352
        },
        {
          "name": "E4",
          "midi": 64,
          "time": 105.5171640000013,
          "velocity": 0.6299212598425197,
          "duration": 0.7629304750000188
        },
        {
          "name": "A4",
          "midi": 69,
          "time": 105.5171640000013,
          "velocity": 0.6299212598425197,
          "duration": 0.7758615000000191
        },
        {
          "name": "F#2",
          "midi": 42,
          "time": 105.5171640000013,
          "velocity": 0.6692913385826772,
          "duration": 0.758620133333352
        },
        {
          "name": "C#3",
          "midi": 49,
          "time": 105.5171640000013,
          "velocity": 0.6692913385826772,
          "duration": 0.49999963333334563
        },
        {
          "name": "F#3",
          "midi": 54,
          "time": 105.5171640000013,
          "velocity": 0.6692913385826772,
          "duration": 0.5172410000000127
        },
        {
          "name": "E3",
          "midi": 52,
          "time": 105.5171640000013,
          "velocity": 0.5511811023622047,
          "duration": 0.758620133333352
        },
        {
          "name": "A3",
          "midi": 57,
          "time": 105.5171640000013,
          "velocity": 0.5511811023622047,
          "duration": 0.758620133333352
        },
        {
          "name": "C#4",
          "midi": 61,
          "time": 105.5171640000013,
          "velocity": 0.5511811023622047,
          "duration": 0.7672408166666855
        },
        {
          "name": "E2",
          "midi": 40,
          "time": 105.5171640000013,
          "velocity": 0.8740157480314961,
          "duration": 0.04310341666666773
        },
        {
          "name": "E2",
          "midi": 40,
          "time": 105.6464742500013,
          "velocity": 0.6929133858267716,
          "duration": 0.04310341666666773
        },
        {
          "name": "E2",
          "midi": 40,
          "time": 105.77578450000131,
          "velocity": 0.33858267716535434,
          "duration": 0.04310341666666773
        },
        {
          "name": "E2",
          "midi": 40,
          "time": 105.90509475000131,
          "velocity": 0.5511811023622047,
          "duration": 0.04310341666666773
        },
        {
          "name": "D5",
          "midi": 74,
          "time": 106.03440500000131,
          "velocity": 0.7874015748031497,
          "duration": 0.5172410000000127
        },
        {
          "name": "D5",
          "midi": 74,
          "time": 106.03440500000131,
          "velocity": 0.7874015748031497,
          "duration": 0.5172410000000127
        },
        {
          "name": "B3",
          "midi": 59,
          "time": 106.03440500000131,
          "velocity": 0.7874015748031497,
          "duration": 0.5172410000000127
        },
        {
          "name": "F#2",
          "midi": 42,
          "time": 106.03440500000131,
          "velocity": 0.5905511811023622,
          "duration": 0.25862050000000636
        },
        {
          "name": "C#3",
          "midi": 49,
          "time": 106.03440500000131,
          "velocity": 0.5905511811023622,
          "duration": 0.24999981666667281
        },
        {
          "name": "F#3",
          "midi": 54,
          "time": 106.03440500000131,
          "velocity": 0.5905511811023622,
          "duration": 0.24568947500000604
        },
        {
          "name": "E2",
          "midi": 40,
          "time": 106.03440500000131,
          "velocity": 0.8740157480314961,
          "duration": 0.04310341666666773
        },
        {
          "name": "E2",
          "midi": 40,
          "time": 106.07750841666798,
          "velocity": 0.7165354330708661,
          "duration": 0.04310341666666773
        },
        {
          "name": "F#4",
          "midi": 66,
          "time": 106.29302550000132,
          "velocity": 0.7874015748031497,
          "duration": 0.5172410000000127
        },
        {
          "name": "A4",
          "midi": 69,
          "time": 106.29302550000132,
          "velocity": 0.7874015748031497,
          "duration": 0.5172410000000127
        },
        {
          "name": "D5",
          "midi": 74,
          "time": 106.29302550000132,
          "velocity": 0.7874015748031497,
          "duration": 0.5172410000000127
        },
        {
          "name": "A2",
          "midi": 45,
          "time": 106.29302550000132,
          "velocity": 0.8661417322834646,
          "duration": 0.5172410000000127
        },
        {
          "name": "A3",
          "midi": 57,
          "time": 106.29302550000132,
          "velocity": 0.6299212598425197,
          "duration": 0.5043099750000124
        },
        {
          "name": "D4",
          "midi": 62,
          "time": 106.29302550000132,
          "velocity": 0.6299212598425197,
          "duration": 0.5043099750000124
        },
        {
          "name": "F#4",
          "midi": 66,
          "time": 106.29302550000132,
          "velocity": 0.6299212598425197,
          "duration": 1.2844818166666983
        },
        {
          "name": "D3",
          "midi": 50,
          "time": 106.29302550000132,
          "velocity": 0.5905511811023622,
          "duration": 0.7672408166666855
        },
        {
          "name": "A3",
          "midi": 57,
          "time": 106.29302550000132,
          "velocity": 0.5905511811023622,
          "duration": 0.7672408166666855
        },
        {
          "name": "D4",
          "midi": 62,
          "time": 106.29302550000132,
          "velocity": 0.5905511811023622,
          "duration": 0.7629304750000188
        },
        {
          "name": "F#3",
          "midi": 54,
          "time": 106.29302550000132,
          "velocity": 0.6692913385826772,
          "duration": 0.5043099750000124
        },
        {
          "name": "A3",
          "midi": 57,
          "time": 106.29302550000132,
          "velocity": 0.6692913385826772,
          "duration": 0.7758615000000191
        },
        {
          "name": "D4",
          "midi": 62,
          "time": 106.29302550000132,
          "velocity": 0.6692913385826772,
          "duration": 1.2758611333333647
        },
        {
          "name": "B1",
          "midi": 35,
          "time": 106.29302550000132,
          "velocity": 0.7165354330708661,
          "duration": 0.04310341666666773
        },
        {
          "name": "E2",
          "midi": 40,
          "time": 106.42233575000132,
          "velocity": 0.36220472440944884,
          "duration": 0.04310341666666773
        },
        {
          "name": "A3",
          "midi": 57,
          "time": 106.55164600000133,
          "velocity": 0.7874015748031497,
          "duration": 1.0172406333333583
        },
        {
          "name": "E2",
          "midi": 40,
          "time": 106.55164600000133,
          "velocity": 0.8503937007874016,
          "duration": 0.04310341666666773
        },
        {
          "name": "E2",
          "midi": 40,
          "time": 106.68095625000133,
          "velocity": 0.7165354330708661,
          "duration": 0.04310341666666773
        },
        {
          "name": "A4",
          "midi": 69,
          "time": 106.81026650000133,
          "velocity": 0.7874015748031497,
          "duration": 0.12931025000000318
        },
        {
          "name": "E3",
          "midi": 52,
          "time": 106.81026650000133,
          "velocity": 0.7165354330708661,
          "duration": 0.25862050000000636
        },
        {
          "name": "F#3",
          "midi": 54,
          "time": 106.81026650000133,
          "velocity": 0.5511811023622047,
          "duration": 0.5172410000000127
        },
        {
          "name": "A3",
          "midi": 57,
          "time": 106.81026650000133,
          "velocity": 0.5511811023622047,
          "duration": 0.7629304750000188
        },
        {
          "name": "D4",
          "midi": 62,
          "time": 106.81026650000133,
          "velocity": 0.5511811023622047,
          "duration": 0.7629304750000188
        },
        {
          "name": "E2",
          "midi": 40,
          "time": 106.81026650000133,
          "velocity": 0.3464566929133858,
          "duration": 0.04310341666666773
        },
        {
          "name": "A4",
          "midi": 69,
          "time": 106.93957675000134,
          "velocity": 0.7874015748031497,
          "duration": 0.12931025000000318
        },
        {
          "name": "E2",
          "midi": 40,
          "time": 106.93957675000134,
          "velocity": 0.8740157480314961,
          "duration": 0.04310341666666773
        },
        {
          "name": "A4",
          "midi": 69,
          "time": 107.06888700000134,
          "velocity": 0.7874015748031497,
          "duration": 0.12931025000000318
        },
        {
          "name": "A4",
          "midi": 69,
          "time": 107.06888700000134,
          "velocity": 0.7874015748031497,
          "duration": 0.12931025000000318
        },
        {
          "name": "B4",
          "midi": 71,
          "time": 107.06888700000134,
          "velocity": 0.7874015748031497,
          "duration": 0.12931025000000318
        },
        {
          "name": "A3",
          "midi": 57,
          "time": 107.06888700000134,
          "velocity": 0.7874015748031497,
          "duration": 0.5043099750000124
        },
        {
          "name": "F#3",
          "midi": 54,
          "time": 107.06888700000134,
          "velocity": 0.8582677165354331,
          "duration": 0.5086203166666792
        },
        {
          "name": "D3",
          "midi": 50,
          "time": 107.06888700000134,
          "velocity": 0.5905511811023622,
          "duration": 0.5086203166666792
        },
        {
          "name": "A3",
          "midi": 57,
          "time": 107.06888700000134,
          "velocity": 0.5905511811023622,
          "duration": 0.5172410000000127
        },
        {
          "name": "D4",
          "midi": 62,
          "time": 107.06888700000134,
          "velocity": 0.5905511811023622,
          "duration": 0.5043099750000124
        },
        {
          "name": "E2",
          "midi": 40,
          "time": 107.06888700000134,
          "velocity": 0.5354330708661418,
          "duration": 0.04310341666666773
        },
        {
          "name": "B4",
          "midi": 71,
          "time": 107.19819725000134,
          "velocity": 0.7874015748031497,
          "duration": 0.12931025000000318
        },
        {
          "name": "B4",
          "midi": 71,
          "time": 107.19819725000134,
          "velocity": 0.7874015748031497,
          "duration": 0.12931025000000318
        },
        {
          "name": "D5",
          "midi": 74,
          "time": 107.19819725000134,
          "velocity": 0.7874015748031497,
          "duration": 0.12931025000000318
        },
        {
          "name": "E2",
          "midi": 40,
          "time": 107.19819725000134,
          "velocity": 0.3543307086614173,
          "duration": 0.04310341666666773
        },
        {
          "name": "D5",
          "midi": 74,
          "time": 107.32750750000135,
          "velocity": 0.7874015748031497,
          "duration": 0.12931025000000318
        },
        {
          "name": "D5",
          "midi": 74,
          "time": 107.32750750000135,
          "velocity": 0.7874015748031497,
          "duration": 0.12931025000000318
        },
        {
          "name": "B4",
          "midi": 71,
          "time": 107.32750750000135,
          "velocity": 0.7874015748031497,
          "duration": 0.12931025000000318
        },
        {
          "name": "A3",
          "midi": 57,
          "time": 107.32750750000135,
          "velocity": 0.7086614173228346,
          "duration": 0.25862050000000636
        },
        {
          "name": "B1",
          "midi": 35,
          "time": 107.32750750000135,
          "velocity": 0.7086614173228346,
          "duration": 0.04310341666666773
        },
        {
          "name": "B4",
          "midi": 71,
          "time": 107.45681775000135,
          "velocity": 0.7874015748031497,
          "duration": 0.12931025000000318
        },
        {
          "name": "B4",
          "midi": 71,
          "time": 107.45681775000135,
          "velocity": 0.7874015748031497,
          "duration": 0.12931025000000318
        },
        {
          "name": "D5",
          "midi": 74,
          "time": 107.45681775000135,
          "velocity": 0.7874015748031497,
          "duration": 0.12931025000000318
        },
        {
          "name": "E2",
          "midi": 40,
          "time": 107.45681775000135,
          "velocity": 0.5433070866141733,
          "duration": 0.04310341666666773
        },
        {
          "name": "A3",
          "midi": 57,
          "time": 107.58181765833469,
          "velocity": 0.8740157480314961,
          "duration": 0.004310341666666773
        },
        {
          "name": "F#5",
          "midi": 78,
          "time": 107.58612800000135,
          "velocity": 0.7874015748031497,
          "duration": 0.38793075000000954
        },
        {
          "name": "F#5",
          "midi": 78,
          "time": 107.58612800000135,
          "velocity": 0.7874015748031497,
          "duration": 0.38793075000000954
        },
        {
          "name": "G4",
          "midi": 67,
          "time": 107.58612800000135,
          "velocity": 0.7874015748031497,
          "duration": 0.7758615000000191
        },
        {
          "name": "B4",
          "midi": 71,
          "time": 107.58612800000135,
          "velocity": 0.7874015748031497,
          "duration": 0.7758615000000191
        },
        {
          "name": "D5",
          "midi": 74,
          "time": 107.58612800000135,
          "velocity": 0.7874015748031497,
          "duration": 0.7758615000000191
        },
        {
          "name": "F#5",
          "midi": 78,
          "time": 107.58612800000135,
          "velocity": 0.7874015748031497,
          "duration": 0.7758615000000191
        },
        {
          "name": "E3",
          "midi": 52,
          "time": 107.58612800000135,
          "velocity": 0.7874015748031497,
          "duration": 0.49999963333334563
        },
        {
          "name": "E2",
          "midi": 40,
          "time": 107.58612800000135,
          "velocity": 0.8661417322834646,
          "duration": 0.24568947500000604
        },
        {
          "name": "F#3",
          "midi": 54,
          "time": 107.58612800000135,
          "velocity": 0.6299212598425197,
          "duration": 0.758620133333352
        },
        {
          "name": "G3",
          "midi": 55,
          "time": 107.58612800000135,
          "velocity": 0.6299212598425197,
          "duration": 0.758620133333352
        },
        {
          "name": "B3",
          "midi": 59,
          "time": 107.58612800000135,
          "velocity": 0.6299212598425197,
          "duration": 0.04310341666666773
        },
        {
          "name": "D4",
          "midi": 62,
          "time": 107.58612800000135,
          "velocity": 0.6299212598425197,
          "duration": 0.758620133333352
        },
        {
          "name": "E2",
          "midi": 40,
          "time": 107.58612800000135,
          "velocity": 0.6692913385826772,
          "duration": 0.5086203166666792
        },
        {
          "name": "B2",
          "midi": 47,
          "time": 107.58612800000135,
          "velocity": 0.6692913385826772,
          "duration": 0.49999963333334563
        },
        {
          "name": "E3",
          "midi": 52,
          "time": 107.58612800000135,
          "velocity": 0.6692913385826772,
          "duration": 0.5172410000000127
        },
        {
          "name": "D3",
          "midi": 50,
          "time": 107.58612800000135,
          "velocity": 0.5511811023622047,
          "duration": 0.7672408166666855
        },
        {
          "name": "F#3",
          "midi": 54,
          "time": 107.58612800000135,
          "velocity": 0.5511811023622047,
          "duration": 0.7629304750000188
        },
        {
          "name": "G3",
          "midi": 55,
          "time": 107.58612800000135,
          "velocity": 0.5511811023622047,
          "duration": 0.7672408166666855
        },
        {
          "name": "B3",
          "midi": 59,
          "time": 107.58612800000135,
          "velocity": 0.5511811023622047,
          "duration": 0.3017239166666741
        },
        {
          "name": "B1",
          "midi": 35,
          "time": 107.58612800000135,
          "velocity": 0.8582677165354331,
          "duration": 0.04310341666666773
        },
        {
          "name": "B3",
          "midi": 59,
          "time": 107.58612800000135,
          "velocity": 0.8740157480314961,
          "duration": 0.5603444166666804
        },
        {
          "name": "E2",
          "midi": 40,
          "time": 107.84474850000136,
          "velocity": 0.7086614173228346,
          "duration": 0.25862050000000636
        },
        {
          "name": "B3",
          "midi": 59,
          "time": 107.84474850000136,
          "velocity": 0.7165354330708661,
          "duration": 0.49999963333334563
        },
        {
          "name": "F#5",
          "midi": 78,
          "time": 107.97405875000136,
          "velocity": 0.7874015748031497,
          "duration": 0.38793075000000954
        },
        {
          "name": "F#5",
          "midi": 78,
          "time": 107.97405875000136,
          "velocity": 0.7874015748031497,
          "duration": 0.38793075000000954
        },
        {
          "name": "E3",
          "midi": 52,
          "time": 108.10336900000136,
          "velocity": 0.7874015748031497,
          "duration": 0.24999981666667281
        },
        {
          "name": "F#2",
          "midi": 42,
          "time": 108.10336900000136,
          "velocity": 0.7086614173228346,
          "duration": 0.04310341666666773
        },
        {
          "name": "E2",
          "midi": 40,
          "time": 108.10336900000136,
          "velocity": 0.5905511811023622,
          "duration": 0.04310341666666773
        },
        {
          "name": "B2",
          "midi": 47,
          "time": 108.10336900000136,
          "velocity": 0.5905511811023622,
          "duration": 0.24568947500000604
        },
        {
          "name": "E3",
          "midi": 52,
          "time": 108.10336900000136,
          "velocity": 0.5905511811023622,
          "duration": 0.5172410000000127
        },
        {
          "name": "E2",
          "midi": 40,
          "time": 108.10336900000136,
          "velocity": 0.8740157480314961,
          "duration": 0.24568947500000604
        },
        {
          "name": "F#2",
          "midi": 42,
          "time": 108.10336900000136,
          "velocity": 0.8661417322834646,
          "duration": 0.25862050000000636
        },
        {
          "name": "B3",
          "midi": 59,
          "time": 108.10336900000136,
          "velocity": 0.7165354330708661,
          "duration": 0.24999981666667281
        },
        {
          "name": "E5",
          "midi": 76,
          "time": 108.36198950000137,
          "velocity": 0.7874015748031497,
          "duration": 0.7758615000000191
        },
        {
          "name": "E5",
          "midi": 76,
          "time": 108.36198950000137,
          "velocity": 0.7874015748031497,
          "duration": 0.7758615000000191
        },
        {
          "name": "A4",
          "midi": 69,
          "time": 108.36198950000137,
          "velocity": 0.7874015748031497,
          "duration": 0.7758615000000191
        },
        {
          "name": "C#5",
          "midi": 73,
          "time": 108.36198950000137,
          "velocity": 0.7874015748031497,
          "duration": 0.7758615000000191
        },
        {
          "name": "E5",
          "midi": 76,
          "time": 108.36198950000137,
          "velocity": 0.7874015748031497,
          "duration": 0.7758615000000191
        },
        {
          "name": "A2",
          "midi": 45,
          "time": 108.36198950000137,
          "velocity": 0.8661417322834646,
          "duration": 0.5172410000000127
        },
        {
          "name": "C#4",
          "midi": 61,
          "time": 108.36198950000137,
          "velocity": 0.6299212598425197,
          "duration": 0.5043099750000124
        },
        {
          "name": "E4",
          "midi": 64,
          "time": 108.36198950000137,
          "velocity": 0.6299212598425197,
          "duration": 1.2801714750000315
        },
        {
          "name": "A4",
          "midi": 69,
          "time": 108.36198950000137,
          "velocity": 0.6299212598425197,
          "duration": 0.9051717500000223
        },
        {
          "name": "A2",
          "midi": 45,
          "time": 108.36198950000137,
          "velocity": 0.5905511811023622,
          "duration": 0.7672408166666855
        },
        {
          "name": "E3",
          "midi": 52,
          "time": 108.36198950000137,
          "velocity": 0.5905511811023622,
          "duration": 0.5043099750000124
        },
        {
          "name": "A3",
          "midi": 57,
          "time": 108.36198950000137,
          "velocity": 0.5905511811023622,
          "duration": 0.49999963333334563
        },
        {
          "name": "E3",
          "midi": 52,
          "time": 108.36198950000137,
          "velocity": 0.6692913385826772,
          "duration": 0.7672408166666855
        },
        {
          "name": "A3",
          "midi": 57,
          "time": 108.36198950000137,
          "velocity": 0.6692913385826772,
          "duration": 0.7629304750000188
        },
        {
          "name": "C#4",
          "midi": 61,
          "time": 108.36198950000137,
          "velocity": 0.6692913385826772,
          "duration": 1.0172406333333583
        },
        {
          "name": "B1",
          "midi": 35,
          "time": 108.36198950000137,
          "velocity": 0.5669291338582677,
          "duration": 0.04310341666666773
        },
        {
          "name": "B3",
          "midi": 59,
          "time": 108.36198950000137,
          "velocity": 0.5354330708661418,
          "duration": 0.04310341666666773
        },
        {
          "name": "A3",
          "midi": 57,
          "time": 108.62061000000138,
          "velocity": 0.7874015748031497,
          "duration": 0.5172410000000127
        },
        {
          "name": "B1",
          "midi": 35,
          "time": 108.62061000000138,
          "velocity": 0.8582677165354331,
          "duration": 0.04310341666666773
        },
        {
          "name": "B3",
          "midi": 59,
          "time": 108.62061000000138,
          "velocity": 0.8503937007874016,
          "duration": 0.04310341666666773
        },
        {
          "name": "E3",
          "midi": 52,
          "time": 108.87923050000138,
          "velocity": 0.6929133858267716,
          "duration": 0.25862050000000636
        },
        {
          "name": "E3",
          "midi": 52,
          "time": 108.87923050000138,
          "velocity": 0.5511811023622047,
          "duration": 0.5086203166666792
        },
        {
          "name": "A3",
          "midi": 57,
          "time": 108.87923050000138,
          "velocity": 0.5511811023622047,
          "duration": 0.5086203166666792
        },
        {
          "name": "C#4",
          "midi": 61,
          "time": 108.87923050000138,
          "velocity": 0.5511811023622047,
          "duration": 0.7629304750000188
        },
        {
          "name": "B3",
          "midi": 59,
          "time": 108.87923050000138,
          "velocity": 0.7165354330708661,
          "duration": 0.04310341666666773
        },
        {
          "name": "A4",
          "midi": 69,
          "time": 109.13785100000139,
          "velocity": 0.7874015748031497,
          "duration": 0.12931025000000318
        },
        {
          "name": "A4",
          "midi": 69,
          "time": 109.13785100000139,
          "velocity": 0.7874015748031497,
          "duration": 0.5086203166666792
        },
        {
          "name": "A4",
          "midi": 69,
          "time": 109.13785100000139,
          "velocity": 0.7874015748031497,
          "duration": 0.5172410000000127
        },
        {
          "name": "A3",
          "midi": 57,
          "time": 109.13785100000139,
          "velocity": 0.7874015748031497,
          "duration": 0.49999963333334563
        },
        {
          "name": "F#3",
          "midi": 54,
          "time": 109.13785100000139,
          "velocity": 0.8582677165354331,
          "duration": 0.25862050000000636
        },
        {
          "name": "A2",
          "midi": 45,
          "time": 109.13785100000139,
          "velocity": 0.5905511811023622,
          "duration": 0.5043099750000124
        },
        {
          "name": "E3",
          "midi": 52,
          "time": 109.13785100000139,
          "velocity": 0.5905511811023622,
          "duration": 0.49999963333334563
        },
        {
          "name": "A3",
          "midi": 57,
          "time": 109.13785100000139,
          "velocity": 0.5905511811023622,
          "duration": 0.5086203166666792
        },
        {
          "name": "E2",
          "midi": 40,
          "time": 109.13785100000139,
          "velocity": 0.8661417322834646,
          "duration": 0.04310341666666773
        },
        {
          "name": "F#2",
          "midi": 42,
          "time": 109.13785100000139,
          "velocity": 0.8661417322834646,
          "duration": 0.04310341666666773
        },
        {
          "name": "B3",
          "midi": 59,
          "time": 109.13785100000139,
          "velocity": 0.7007874015748031,
          "duration": 0.04310341666666773
        },
        {
          "name": "B4",
          "midi": 71,
          "time": 109.2671612500014,
          "velocity": 0.7874015748031497,
          "duration": 0.12931025000000318
        },
        {
          "name": "B4",
          "midi": 71,
          "time": 109.2671612500014,
          "velocity": 0.7874015748031497,
          "duration": 0.12931025000000318
        },
        {
          "name": "C#5",
          "midi": 73,
          "time": 109.3964715000014,
          "velocity": 0.7874015748031497,
          "duration": 0.12931025000000318
        },
        {
          "name": "C#5",
          "midi": 73,
          "time": 109.3964715000014,
          "velocity": 0.7874015748031497,
          "duration": 0.12931025000000318
        },
        {
          "name": "E3",
          "midi": 52,
          "time": 109.3964715000014,
          "velocity": 0.7165354330708661,
          "duration": 0.24568947500000604
        },
        {
          "name": "E3",
          "midi": 52,
          "time": 109.3964715000014,
          "velocity": 0.5511811023622047,
          "duration": 0.25862050000000636
        },
        {
          "name": "A3",
          "midi": 57,
          "time": 109.3964715000014,
          "velocity": 0.5511811023622047,
          "duration": 0.25862050000000636
        },
        {
          "name": "C#4",
          "midi": 61,
          "time": 109.3964715000014,
          "velocity": 0.5511811023622047,
          "duration": 0.24568947500000604
        },
        {
          "name": "B3",
          "midi": 59,
          "time": 109.3964715000014,
          "velocity": 0.5669291338582677,
          "duration": 0.04310341666666773
        },
        {
          "name": "A4",
          "midi": 69,
          "time": 109.5257817500014,
          "velocity": 0.7874015748031497,
          "duration": 0.12931025000000318
        },
        {
          "name": "A4",
          "midi": 69,
          "time": 109.5257817500014,
          "velocity": 0.7874015748031497,
          "duration": 0.12931025000000318
        },
        {
          "name": "A5",
          "midi": 81,
          "time": 109.6550920000014,
          "velocity": 0.7874015748031497,
          "duration": 0.5172410000000127
        },
        {
          "name": "A5",
          "midi": 81,
          "time": 109.6550920000014,
          "velocity": 0.7874015748031497,
          "duration": 0.5172410000000127
        },
        {
          "name": "A4",
          "midi": 69,
          "time": 109.6550920000014,
          "velocity": 0.7874015748031497,
          "duration": 0.7629304750000188
        },
        {
          "name": "C#5",
          "midi": 73,
          "time": 109.6550920000014,
          "velocity": 0.7874015748031497,
          "duration": 0.7758615000000191
        },
        {
          "name": "E5",
          "midi": 76,
          "time": 109.6550920000014,
          "velocity": 0.7874015748031497,
          "duration": 0.7758615000000191
        },
        {
          "name": "F#3",
          "midi": 54,
          "time": 109.6550920000014,
          "velocity": 0.7874015748031497,
          "duration": 0.5086203166666792
        },
        {
          "name": "F#2",
          "midi": 42,
          "time": 109.6550920000014,
          "velocity": 0.8661417322834646,
          "duration": 0.5043099750000124
        },
        {
          "name": "C#4",
          "midi": 61,
          "time": 109.6550920000014,
          "velocity": 0.6299212598425197,
          "duration": 0.758620133333352
        },
        {
          "name": "E4",
          "midi": 64,
          "time": 109.6550920000014,
          "velocity": 0.6299212598425197,
          "duration": 0.7672408166666855
        },
        {
          "name": "A4",
          "midi": 69,
          "time": 109.6550920000014,
          "velocity": 0.6299212598425197,
          "duration": 0.7758615000000191
        },
        {
          "name": "F#2",
          "midi": 42,
          "time": 109.6550920000014,
          "velocity": 0.6692913385826772,
          "duration": 0.7629304750000188
        },
        {
          "name": "C#3",
          "midi": 49,
          "time": 109.6550920000014,
          "velocity": 0.6692913385826772,
          "duration": 0.49999963333334563
        },
        {
          "name": "F#3",
          "midi": 54,
          "time": 109.6550920000014,
          "velocity": 0.6692913385826772,
          "duration": 0.5172410000000127
        },
        {
          "name": "E3",
          "midi": 52,
          "time": 109.6550920000014,
          "velocity": 0.5511811023622047,
          "duration": 0.7672408166666855
        },
        {
          "name": "A3",
          "midi": 57,
          "time": 109.6550920000014,
          "velocity": 0.5511811023622047,
          "duration": 0.7629304750000188
        },
        {
          "name": "C#4",
          "midi": 61,
          "time": 109.6550920000014,
          "velocity": 0.5511811023622047,
          "duration": 0.758620133333352
        },
        {
          "name": "B1",
          "midi": 35,
          "time": 109.6550920000014,
          "velocity": 0.8503937007874016,
          "duration": 0.04310341666666773
        },
        {
          "name": "B3",
          "midi": 59,
          "time": 109.6550920000014,
          "velocity": 0.8503937007874016,
          "duration": 0.04310341666666773
        },
        {
          "name": "B3",
          "midi": 59,
          "time": 109.91371250000141,
          "velocity": 0.6929133858267716,
          "duration": 0.04310341666666773
        },
        {
          "name": "C#5",
          "midi": 73,
          "time": 110.17233300000142,
          "velocity": 0.7874015748031497,
          "duration": 0.25862050000000636
        },
        {
          "name": "C#5",
          "midi": 73,
          "time": 110.17233300000142,
          "velocity": 0.7874015748031497,
          "duration": 0.25862050000000636
        },
        {
          "name": "F#3",
          "midi": 54,
          "time": 110.17233300000142,
          "velocity": 0.7874015748031497,
          "duration": 0.24568947500000604
        },
        {
          "name": "F#2",
          "midi": 42,
          "time": 110.17233300000142,
          "velocity": 0.5905511811023622,
          "duration": 0.25862050000000636
        },
        {
          "name": "C#3",
          "midi": 49,
          "time": 110.17233300000142,
          "velocity": 0.5905511811023622,
          "duration": 0.24999981666667281
        },
        {
          "name": "F#3",
          "midi": 54,
          "time": 110.17233300000142,
          "velocity": 0.5905511811023622,
          "duration": 0.5172410000000127
        },
        {
          "name": "E2",
          "midi": 40,
          "time": 110.17233300000142,
          "velocity": 0.8582677165354331,
          "duration": 0.04310341666666773
        },
        {
          "name": "A#2",
          "midi": 46,
          "time": 110.17233300000142,
          "velocity": 0.8503937007874016,
          "duration": 0.04310341666666773
        },
        {
          "name": "B3",
          "midi": 59,
          "time": 110.17233300000142,
          "velocity": 0.7086614173228346,
          "duration": 0.04310341666666773
        },
        {
          "name": "D5",
          "midi": 74,
          "time": 110.43095350000142,
          "velocity": 0.7874015748031497,
          "duration": 0.25862050000000636
        },
        {
          "name": "D5",
          "midi": 74,
          "time": 110.43095350000142,
          "velocity": 0.7874015748031497,
          "duration": 0.25862050000000636
        },
        {
          "name": "B4",
          "midi": 71,
          "time": 110.43095350000142,
          "velocity": 0.7874015748031497,
          "duration": 0.7758615000000191
        },
        {
          "name": "D5",
          "midi": 74,
          "time": 110.43095350000142,
          "velocity": 0.7874015748031497,
          "duration": 0.7758615000000191
        },
        {
          "name": "F#5",
          "midi": 78,
          "time": 110.43095350000142,
          "velocity": 0.7874015748031497,
          "duration": 0.7758615000000191
        },
        {
          "name": "B2",
          "midi": 47,
          "time": 110.43095350000142,
          "velocity": 0.8740157480314961,
          "duration": 0.5172410000000127
        },
        {
          "name": "F#3",
          "midi": 54,
          "time": 110.43095350000142,
          "velocity": 0.6299212598425197,
          "duration": 0.5086203166666792
        },
        {
          "name": "A3",
          "midi": 57,
          "time": 110.43095350000142,
          "velocity": 0.6299212598425197,
          "duration": 0.5086203166666792
        },
        {
          "name": "D4",
          "midi": 62,
          "time": 110.43095350000142,
          "velocity": 0.6299212598425197,
          "duration": 0.49999963333334563
        },
        {
          "name": "B2",
          "midi": 47,
          "time": 110.43095350000142,
          "velocity": 0.5905511811023622,
          "duration": 0.7672408166666855
        },
        {
          "name": "F#3",
          "midi": 54,
          "time": 110.43095350000142,
          "velocity": 0.5905511811023622,
          "duration": 0.7629304750000188
        },
        {
          "name": "B3",
          "midi": 59,
          "time": 110.43095350000142,
          "velocity": 0.5905511811023622,
          "duration": 0.04310341666666773
        },
        {
          "name": "F#3",
          "midi": 54,
          "time": 110.43095350000142,
          "velocity": 0.6692913385826772,
          "duration": 0.7758615000000191
        },
        {
          "name": "A3",
          "midi": 57,
          "time": 110.43095350000142,
          "velocity": 0.6692913385826772,
          "duration": 1.0344820000000254
        },
        {
          "name": "D4",
          "midi": 62,
          "time": 110.43095350000142,
          "velocity": 0.6692913385826772,
          "duration": 1.2801714750000315
        },
        {
          "name": "B3",
          "midi": 59,
          "time": 110.43095350000142,
          "velocity": 0.7007874015748031,
          "duration": 0.3017239166666741
        },
        {
          "name": "C#5",
          "midi": 73,
          "time": 110.68957400000143,
          "velocity": 0.7874015748031497,
          "duration": 0.12931025000000318
        },
        {
          "name": "C#5",
          "midi": 73,
          "time": 110.68957400000143,
          "velocity": 0.7874015748031497,
          "duration": 0.12931025000000318
        },
        {
          "name": "B3",
          "midi": 59,
          "time": 110.68957400000143,
          "velocity": 0.7874015748031497,
          "duration": 0.3017239166666741
        },
        {
          "name": "B1",
          "midi": 35,
          "time": 110.68957400000143,
          "velocity": 0.8503937007874016,
          "duration": 0.04310341666666773
        },
        {
          "name": "B3",
          "midi": 59,
          "time": 110.68957400000143,
          "velocity": 0.7086614173228346,
          "duration": 0.5086203166666792
        },
        {
          "name": "B4",
          "midi": 71,
          "time": 110.81888425000143,
          "velocity": 0.7874015748031497,
          "duration": 0.38793075000000954
        },
        {
          "name": "B4",
          "midi": 71,
          "time": 110.81888425000143,
          "velocity": 0.7874015748031497,
          "duration": 0.38793075000000954
        },
        {
          "name": "F#3",
          "midi": 54,
          "time": 110.94819450000143,
          "velocity": 0.7007874015748031,
          "duration": 0.7629304750000188
        },
        {
          "name": "F#3",
          "midi": 54,
          "time": 110.94819450000143,
          "velocity": 0.5511811023622047,
          "duration": 0.7629304750000188
        },
        {
          "name": "A3",
          "midi": 57,
          "time": 110.94819450000143,
          "velocity": 0.5511811023622047,
          "duration": 0.7672408166666855
        },
        {
          "name": "D4",
          "midi": 62,
          "time": 110.94819450000143,
          "velocity": 0.5511811023622047,
          "duration": 0.7672408166666855
        },
        {
          "name": "B3",
          "midi": 59,
          "time": 110.94819450000143,
          "velocity": 0.7007874015748031,
          "duration": 0.25862050000000636
        },
        {
          "name": "A4",
          "midi": 69,
          "time": 111.20681500000144,
          "velocity": 0.7874015748031497,
          "duration": 0.12931025000000318
        },
        {
          "name": "A4",
          "midi": 69,
          "time": 111.20681500000144,
          "velocity": 0.7874015748031497,
          "duration": 0.12931025000000318
        },
        {
          "name": "A5",
          "midi": 81,
          "time": 111.20681500000144,
          "velocity": 0.7874015748031497,
          "duration": 0.12931025000000318
        },
        {
          "name": "B3",
          "midi": 59,
          "time": 111.20681500000144,
          "velocity": 0.7874015748031497,
          "duration": 0.04310341666666773
        },
        {
          "name": "A3",
          "midi": 57,
          "time": 111.20681500000144,
          "velocity": 0.8740157480314961,
          "duration": 0.5086203166666792
        },
        {
          "name": "B2",
          "midi": 47,
          "time": 111.20681500000144,
          "velocity": 0.5905511811023622,
          "duration": 0.5086203166666792
        },
        {
          "name": "F#3",
          "midi": 54,
          "time": 111.20681500000144,
          "velocity": 0.5905511811023622,
          "duration": 0.5043099750000124
        },
        {
          "name": "B3",
          "midi": 59,
          "time": 111.20681500000144,
          "velocity": 0.5905511811023622,
          "duration": 0.3017239166666741
        },
        {
          "name": "E2",
          "midi": 40,
          "time": 111.20681500000144,
          "velocity": 0.8661417322834646,
          "duration": 0.04310341666666773
        },
        {
          "name": "F#2",
          "midi": 42,
          "time": 111.20681500000144,
          "velocity": 0.8582677165354331,
          "duration": 0.04310341666666773
        },
        {
          "name": "B3",
          "midi": 59,
          "time": 111.20681500000144,
          "velocity": 0.7165354330708661,
          "duration": 0.5043099750000124
        },
        {
          "name": "B4",
          "midi": 71,
          "time": 111.33612525000144,
          "velocity": 0.7874015748031497,
          "duration": 0.12931025000000318
        },
        {
          "name": "B4",
          "midi": 71,
          "time": 111.33612525000144,
          "velocity": 0.7874015748031497,
          "duration": 0.12931025000000318
        },
        {
          "name": "G5",
          "midi": 79,
          "time": 111.33612525000144,
          "velocity": 0.7874015748031497,
          "duration": 0.12931025000000318
        },
        {
          "name": "C#5",
          "midi": 73,
          "time": 111.46543550000145,
          "velocity": 0.7874015748031497,
          "duration": 0.12931025000000318
        },
        {
          "name": "C#5",
          "midi": 73,
          "time": 111.46543550000145,
          "velocity": 0.7874015748031497,
          "duration": 0.12931025000000318
        },
        {
          "name": "F#5",
          "midi": 78,
          "time": 111.46543550000145,
          "velocity": 0.7874015748031497,
          "duration": 0.12931025000000318
        },
        {
          "name": "F#3",
          "midi": 54,
          "time": 111.46543550000145,
          "velocity": 0.7086614173228346,
          "duration": 0.25862050000000636
        },
        {
          "name": "B1",
          "midi": 35,
          "time": 111.46543550000145,
          "velocity": 0.5354330708661418,
          "duration": 0.04310341666666773
        },
        {
          "name": "B3",
          "midi": 59,
          "time": 111.46543550000145,
          "velocity": 0.5275590551181102,
          "duration": 0.25862050000000636
        },
        {
          "name": "A4",
          "midi": 69,
          "time": 111.59474575000145,
          "velocity": 0.7874015748031497,
          "duration": 0.12931025000000318
        },
        {
          "name": "A4",
          "midi": 69,
          "time": 111.59474575000145,
          "velocity": 0.7874015748031497,
          "duration": 0.12931025000000318
        },
        {
          "name": "E5",
          "midi": 76,
          "time": 111.59474575000145,
          "velocity": 0.7874015748031497,
          "duration": 0.12931025000000318
        },
        {
          "name": "D5",
          "midi": 74,
          "time": 111.72405600000145,
          "velocity": 0.7874015748031497,
          "duration": 0.5172410000000127
        },
        {
          "name": "D5",
          "midi": 74,
          "time": 111.72405600000145,
          "velocity": 0.7874015748031497,
          "duration": 0.5172410000000127
        },
        {
          "name": "G4",
          "midi": 67,
          "time": 111.72405600000145,
          "velocity": 0.7874015748031497,
          "duration": 0.7758615000000191
        },
        {
          "name": "B4",
          "midi": 71,
          "time": 111.72405600000145,
          "velocity": 0.7874015748031497,
          "duration": 0.7758615000000191
        },
        {
          "name": "D5",
          "midi": 74,
          "time": 111.72405600000145,
          "velocity": 0.7874015748031497,
          "duration": 0.7758615000000191
        },
        {
          "name": "F#5",
          "midi": 78,
          "time": 111.72405600000145,
          "velocity": 0.7874015748031497,
          "duration": 0.7758615000000191
        },
        {
          "name": "E3",
          "midi": 52,
          "time": 111.72405600000145,
          "velocity": 0.7874015748031497,
          "duration": 0.49999963333334563
        },
        {
          "name": "E2",
          "midi": 40,
          "time": 111.72405600000145,
          "velocity": 0.8582677165354331,
          "duration": 0.24568947500000604
        },
        {
          "name": "G3",
          "midi": 55,
          "time": 111.72405600000145,
          "velocity": 0.6299212598425197,
          "duration": 0.758620133333352
        },
        {
          "name": "B3",
          "midi": 59,
          "time": 111.72405600000145,
          "velocity": 0.6299212598425197,
          "duration": 0.04310341666666773
        },
        {
          "name": "D4",
          "midi": 62,
          "time": 111.72405600000145,
          "velocity": 0.6299212598425197,
          "duration": 0.758620133333352
        },
        {
          "name": "F#4",
          "midi": 66,
          "time": 111.72405600000145,
          "velocity": 0.6299212598425197,
          "duration": 0.7629304750000188
        },
        {
          "name": "E2",
          "midi": 40,
          "time": 111.72405600000145,
          "velocity": 0.6692913385826772,
          "duration": 0.49999963333334563
        },
        {
          "name": "B2",
          "midi": 47,
          "time": 111.72405600000145,
          "velocity": 0.6692913385826772,
          "duration": 0.5043099750000124
        },
        {
          "name": "E3",
          "midi": 52,
          "time": 111.72405600000145,
          "velocity": 0.6692913385826772,
          "duration": 0.5172410000000127
        },
        {
          "name": "D3",
          "midi": 50,
          "time": 111.72405600000145,
          "velocity": 0.5511811023622047,
          "duration": 0.7672408166666855
        },
        {
          "name": "F#3",
          "midi": 54,
          "time": 111.72405600000145,
          "velocity": 0.5511811023622047,
          "duration": 0.7672408166666855
        },
        {
          "name": "G3",
          "midi": 55,
          "time": 111.72405600000145,
          "velocity": 0.5511811023622047,
          "duration": 0.7672408166666855
        },
        {
          "name": "B3",
          "midi": 59,
          "time": 111.72405600000145,
          "velocity": 0.5511811023622047,
          "duration": 0.3017239166666741
        },
        {
          "name": "B1",
          "midi": 35,
          "time": 111.72405600000145,
          "velocity": 0.8503937007874016,
          "duration": 0.04310341666666773
        },
        {
          "name": "B3",
          "midi": 59,
          "time": 111.72405600000145,
          "velocity": 0.8661417322834646,
          "duration": 0.5603444166666804
        },
        {
          "name": "F#2",
          "midi": 42,
          "time": 111.98267650000146,
          "velocity": 0.6929133858267716,
          "duration": 0.25862050000000636
        },
        {
          "name": "B3",
          "midi": 59,
          "time": 111.98267650000146,
          "velocity": 0.7086614173228346,
          "duration": 0.49999963333334563
        },
        {
          "name": "E5",
          "midi": 76,
          "time": 112.24129700000147,
          "velocity": 0.7874015748031497,
          "duration": 0.25862050000000636
        },
        {
          "name": "E5",
          "midi": 76,
          "time": 112.24129700000147,
          "velocity": 0.7874015748031497,
          "duration": 0.25862050000000636
        },
        {
          "name": "E3",
          "midi": 52,
          "time": 112.24129700000147,
          "velocity": 0.7874015748031497,
          "duration": 0.24999981666667281
        },
        {
          "name": "G2",
          "midi": 43,
          "time": 112.24129700000147,
          "velocity": 0.7165354330708661,
          "duration": 0.25862050000000636
        },
        {
          "name": "E2",
          "midi": 40,
          "time": 112.24129700000147,
          "velocity": 0.5905511811023622,
          "duration": 0.04310341666666773
        },
        {
          "name": "B2",
          "midi": 47,
          "time": 112.24129700000147,
          "velocity": 0.5905511811023622,
          "duration": 0.24137913333333927
        },
        {
          "name": "E3",
          "midi": 52,
          "time": 112.24129700000147,
          "velocity": 0.5905511811023622,
          "duration": 0.5172410000000127
        },
        {
          "name": "E2",
          "midi": 40,
          "time": 112.24129700000147,
          "velocity": 0.8503937007874016,
          "duration": 0.24999981666667281
        },
        {
          "name": "F#2",
          "midi": 42,
          "time": 112.24129700000147,
          "velocity": 0.8661417322834646,
          "duration": 0.04310341666666773
        },
        {
          "name": "B3",
          "midi": 59,
          "time": 112.24129700000147,
          "velocity": 0.7165354330708661,
          "duration": 0.24999981666667281
        },
        {
          "name": "C#5",
          "midi": 73,
          "time": 112.49991750000147,
          "velocity": 0.7874015748031497,
          "duration": 0.38793075000000954
        },
        {
          "name": "C#5",
          "midi": 73,
          "time": 112.49991750000147,
          "velocity": 0.7874015748031497,
          "duration": 0.38793075000000954
        },
        {
          "name": "A4",
          "midi": 69,
          "time": 112.49991750000147,
          "velocity": 0.7874015748031497,
          "duration": 0.7758615000000191
        },
        {
          "name": "C#5",
          "midi": 73,
          "time": 112.49991750000147,
          "velocity": 0.7874015748031497,
          "duration": 0.7758615000000191
        },
        {
          "name": "E5",
          "midi": 76,
          "time": 112.49991750000147,
          "velocity": 0.7874015748031497,
          "duration": 0.7758615000000191
        },
        {
          "name": "A2",
          "midi": 45,
          "time": 112.49991750000147,
          "velocity": 0.8740157480314961,
          "duration": 0.5172410000000127
        },
        {
          "name": "A3",
          "midi": 57,
          "time": 112.49991750000147,
          "velocity": 0.5511811023622047,
          "duration": 0.5043099750000124
        },
        {
          "name": "C#4",
          "midi": 61,
          "time": 112.49991750000147,
          "velocity": 0.5511811023622047,
          "duration": 0.49999963333334563
        },
        {
          "name": "E4",
          "midi": 64,
          "time": 112.49991750000147,
          "velocity": 0.5511811023622047,
          "duration": 1.2801714750000315
        },
        {
          "name": "A2",
          "midi": 45,
          "time": 112.49991750000147,
          "velocity": 0.6692913385826772,
          "duration": 1.2844818166666983
        },
        {
          "name": "E3",
          "midi": 52,
          "time": 112.49991750000147,
          "velocity": 0.6692913385826772,
          "duration": 0.49999963333334563
        },
        {
          "name": "A3",
          "midi": 57,
          "time": 112.49991750000147,
          "velocity": 0.6692913385826772,
          "duration": 0.7758615000000191
        },
        {
          "name": "E3",
          "midi": 52,
          "time": 112.49991750000147,
          "velocity": 0.6692913385826772,
          "duration": 0.7758615000000191
        },
        {
          "name": "A3",
          "midi": 57,
          "time": 112.49991750000147,
          "velocity": 0.6692913385826772,
          "duration": 1.025861316666692
        },
        {
          "name": "C#4",
          "midi": 61,
          "time": 112.49991750000147,
          "velocity": 0.6692913385826772,
          "duration": 1.025861316666692
        },
        {
          "name": "B1",
          "midi": 35,
          "time": 112.49991750000147,
          "velocity": 0.5433070866141733,
          "duration": 0.04310341666666773
        },
        {
          "name": "B3",
          "midi": 59,
          "time": 112.49991750000147,
          "velocity": 0.5433070866141733,
          "duration": 0.04310341666666773
        },
        {
          "name": "A3",
          "midi": 57,
          "time": 112.75853800000148,
          "velocity": 0.7874015748031497,
          "duration": 1.0172406333333583
        },
        {
          "name": "B1",
          "midi": 35,
          "time": 112.75853800000148,
          "velocity": 0.8503937007874016,
          "duration": 0.04310341666666773
        },
        {
          "name": "B3",
          "midi": 59,
          "time": 112.75853800000148,
          "velocity": 0.8582677165354331,
          "duration": 0.04310341666666773
        },
        {
          "name": "B4",
          "midi": 71,
          "time": 112.88784825000148,
          "velocity": 0.7874015748031497,
          "duration": 0.12931025000000318
        },
        {
          "name": "B4",
          "midi": 71,
          "time": 112.88784825000148,
          "velocity": 0.7874015748031497,
          "duration": 0.12931025000000318
        },
        {
          "name": "A4",
          "midi": 69,
          "time": 113.01715850000149,
          "velocity": 0.7874015748031497,
          "duration": 0.25862050000000636
        },
        {
          "name": "A4",
          "midi": 69,
          "time": 113.01715850000149,
          "velocity": 0.7874015748031497,
          "duration": 0.25862050000000636
        },
        {
          "name": "E3",
          "midi": 52,
          "time": 113.01715850000149,
          "velocity": 0.7086614173228346,
          "duration": 0.5043099750000124
        },
        {
          "name": "E3",
          "midi": 52,
          "time": 113.01715850000149,
          "velocity": 0.5511811023622047,
          "duration": 0.758620133333352
        },
        {
          "name": "A3",
          "midi": 57,
          "time": 113.01715850000149,
          "velocity": 0.5511811023622047,
          "duration": 0.7629304750000188
        },
        {
          "name": "C#4",
          "midi": 61,
          "time": 113.01715850000149,
          "velocity": 0.5511811023622047,
          "duration": 0.758620133333352
        },
        {
          "name": "B3",
          "midi": 59,
          "time": 113.01715850000149,
          "velocity": 0.7165354330708661,
          "duration": 0.04310341666666773
        },
        {
          "name": "A4",
          "midi": 69,
          "time": 113.27577900000149,
          "velocity": 0.7874015748031497,
          "duration": 0.5172410000000127
        },
        {
          "name": "A3",
          "midi": 57,
          "time": 113.27577900000149,
          "velocity": 0.7874015748031497,
          "duration": 0.5086203166666792
        },
        {
          "name": "F#3",
          "midi": 54,
          "time": 113.27577900000149,
          "velocity": 0.8503937007874016,
          "duration": 0.25862050000000636
        },
        {
          "name": "E2",
          "midi": 40,
          "time": 113.27577900000149,
          "velocity": 0.8503937007874016,
          "duration": 0.04310341666666773
        },
        {
          "name": "F#2",
          "midi": 42,
          "time": 113.27577900000149,
          "velocity": 0.8661417322834646,
          "duration": 0.04310341666666773
        },
        {
          "name": "B3",
          "midi": 59,
          "time": 113.27577900000149,
          "velocity": 0.7165354330708661,
          "duration": 0.04310341666666773
        },
        {
          "name": "A4",
          "midi": 69,
          "time": 113.5343995000015,
          "velocity": 0.7874015748031497,
          "duration": 0.25862050000000636
        },
        {
          "name": "A4",
          "midi": 69,
          "time": 113.5343995000015,
          "velocity": 0.7874015748031497,
          "duration": 0.25862050000000636
        },
        {
          "name": "E3",
          "midi": 52,
          "time": 113.5343995000015,
          "velocity": 0.6929133858267716,
          "duration": 0.24999981666667281
        },
        {
          "name": "E3",
          "midi": 52,
          "time": 113.5343995000015,
          "velocity": 0.5511811023622047,
          "duration": 0.25862050000000636
        },
        {
          "name": "A3",
          "midi": 57,
          "time": 113.5343995000015,
          "velocity": 0.5511811023622047,
          "duration": 0.25862050000000636
        },
        {
          "name": "C#4",
          "midi": 61,
          "time": 113.5343995000015,
          "velocity": 0.5511811023622047,
          "duration": 0.24999981666667281
        },
        {
          "name": "B1",
          "midi": 35,
          "time": 113.5343995000015,
          "velocity": 0.5433070866141733,
          "duration": 0.04310341666666773
        },
        {
          "name": "B3",
          "midi": 59,
          "time": 113.5343995000015,
          "velocity": 0.5669291338582677,
          "duration": 0.04310341666666773
        },
        {
          "name": "E5",
          "midi": 76,
          "time": 113.7930200000015,
          "velocity": 0.7874015748031497,
          "duration": 0.25862050000000636
        },
        {
          "name": "E5",
          "midi": 76,
          "time": 113.7930200000015,
          "velocity": 0.7874015748031497,
          "duration": 0.25862050000000636
        },
        {
          "name": "E5",
          "midi": 76,
          "time": 113.7930200000015,
          "velocity": 0.7874015748031497,
          "duration": 0.25862050000000636
        },
        {
          "name": "A4",
          "midi": 69,
          "time": 113.7930200000015,
          "velocity": 0.7874015748031497,
          "duration": 0.758620133333352
        },
        {
          "name": "C#5",
          "midi": 73,
          "time": 113.7930200000015,
          "velocity": 0.7874015748031497,
          "duration": 0.7758615000000191
        },
        {
          "name": "F#3",
          "midi": 54,
          "time": 113.7930200000015,
          "velocity": 0.7874015748031497,
          "duration": 0.5086203166666792
        },
        {
          "name": "F#2",
          "midi": 42,
          "time": 113.7930200000015,
          "velocity": 0.8740157480314961,
          "duration": 0.5043099750000124
        },
        {
          "name": "C#4",
          "midi": 61,
          "time": 113.7930200000015,
          "velocity": 0.6299212598425197,
          "duration": 0.758620133333352
        },
        {
          "name": "E4",
          "midi": 64,
          "time": 113.7930200000015,
          "velocity": 0.6299212598425197,
          "duration": 0.7629304750000188
        },
        {
          "name": "A4",
          "midi": 69,
          "time": 113.7930200000015,
          "velocity": 0.6299212598425197,
          "duration": 0.7758615000000191
        },
        {
          "name": "F#2",
          "midi": 42,
          "time": 113.7930200000015,
          "velocity": 0.6692913385826772,
          "duration": 0.758620133333352
        },
        {
          "name": "C#3",
          "midi": 49,
          "time": 113.7930200000015,
          "velocity": 0.6692913385826772,
          "duration": 0.49999963333334563
        },
        {
          "name": "F#3",
          "midi": 54,
          "time": 113.7930200000015,
          "velocity": 0.6692913385826772,
          "duration": 0.5172410000000127
        },
        {
          "name": "E3",
          "midi": 52,
          "time": 113.7930200000015,
          "velocity": 0.5511811023622047,
          "duration": 0.758620133333352
        },
        {
          "name": "A3",
          "midi": 57,
          "time": 113.7930200000015,
          "velocity": 0.5511811023622047,
          "duration": 0.758620133333352
        },
        {
          "name": "C#4",
          "midi": 61,
          "time": 113.7930200000015,
          "velocity": 0.5511811023622047,
          "duration": 0.7672408166666855
        },
        {
          "name": "E2",
          "midi": 40,
          "time": 113.7930200000015,
          "velocity": 0.8740157480314961,
          "duration": 0.04310341666666773
        },
        {
          "name": "E2",
          "midi": 40,
          "time": 113.92233025000151,
          "velocity": 0.6929133858267716,
          "duration": 0.04310341666666773
        },
        {
          "name": "D5",
          "midi": 74,
          "time": 114.05164050000151,
          "velocity": 0.7874015748031497,
          "duration": 0.25862050000000636
        },
        {
          "name": "D5",
          "midi": 74,
          "time": 114.05164050000151,
          "velocity": 0.7874015748031497,
          "duration": 0.25862050000000636
        },
        {
          "name": "F#5",
          "midi": 78,
          "time": 114.05164050000151,
          "velocity": 0.7874015748031497,
          "duration": 0.25862050000000636
        },
        {
          "name": "E2",
          "midi": 40,
          "time": 114.05164050000151,
          "velocity": 0.33858267716535434,
          "duration": 0.04310341666666773
        },
        {
          "name": "E2",
          "midi": 40,
          "time": 114.18095075000151,
          "velocity": 0.5511811023622047,
          "duration": 0.04310341666666773
        },
        {
          "name": "D5",
          "midi": 74,
          "time": 114.31026100000152,
          "velocity": 0.7874015748031497,
          "duration": 0.5172410000000127
        },
        {
          "name": "D5",
          "midi": 74,
          "time": 114.31026100000152,
          "velocity": 0.7874015748031497,
          "duration": 0.5172410000000127
        },
        {
          "name": "F#5",
          "midi": 78,
          "time": 114.31026100000152,
          "velocity": 0.7874015748031497,
          "duration": 0.25862050000000636
        },
        {
          "name": "B3",
          "midi": 59,
          "time": 114.31026100000152,
          "velocity": 0.7874015748031497,
          "duration": 0.5172410000000127
        },
        {
          "name": "F#2",
          "midi": 42,
          "time": 114.31026100000152,
          "velocity": 0.5905511811023622,
          "duration": 0.25862050000000636
        },
        {
          "name": "C#3",
          "midi": 49,
          "time": 114.31026100000152,
          "velocity": 0.5905511811023622,
          "duration": 0.24999981666667281
        },
        {
          "name": "F#3",
          "midi": 54,
          "time": 114.31026100000152,
          "velocity": 0.5905511811023622,
          "duration": 0.24568947500000604
        },
        {
          "name": "E2",
          "midi": 40,
          "time": 114.31026100000152,
          "velocity": 0.8740157480314961,
          "duration": 0.04310341666666773
        },
        {
          "name": "E2",
          "midi": 40,
          "time": 114.35336441666819,
          "velocity": 0.7165354330708661,
          "duration": 0.04310341666666773
        },
        {
          "name": "F#4",
          "midi": 66,
          "time": 114.56888150000152,
          "velocity": 0.7874015748031497,
          "duration": 1.2844818166666983
        },
        {
          "name": "A4",
          "midi": 69,
          "time": 114.56888150000152,
          "velocity": 0.7874015748031497,
          "duration": 1.2931025000000318
        },
        {
          "name": "D5",
          "midi": 74,
          "time": 114.56888150000152,
          "velocity": 0.7874015748031497,
          "duration": 1.2931025000000318
        },
        {
          "name": "A2",
          "midi": 45,
          "time": 114.56888150000152,
          "velocity": 0.8661417322834646,
          "duration": 0.5172410000000127
        },
        {
          "name": "A3",
          "midi": 57,
          "time": 114.56888150000152,
          "velocity": 0.6299212598425197,
          "duration": 0.5043099750000124
        },
        {
          "name": "D4",
          "midi": 62,
          "time": 114.56888150000152,
          "velocity": 0.6299212598425197,
          "duration": 0.5043099750000124
        },
        {
          "name": "F#4",
          "midi": 66,
          "time": 114.56888150000152,
          "velocity": 0.6299212598425197,
          "duration": 1.2931025000000318
        },
        {
          "name": "D3",
          "midi": 50,
          "time": 114.56888150000152,
          "velocity": 0.5905511811023622,
          "duration": 0.7672408166666855
        },
        {
          "name": "A3",
          "midi": 57,
          "time": 114.56888150000152,
          "velocity": 0.5905511811023622,
          "duration": 0.5172410000000127
        },
        {
          "name": "D4",
          "midi": 62,
          "time": 114.56888150000152,
          "velocity": 0.5905511811023622,
          "duration": 0.7629304750000188
        },
        {
          "name": "F#3",
          "midi": 54,
          "time": 114.56888150000152,
          "velocity": 0.6692913385826772,
          "duration": 0.5043099750000124
        },
        {
          "name": "A3",
          "midi": 57,
          "time": 114.56888150000152,
          "velocity": 0.6692913385826772,
          "duration": 0.7672408166666855
        },
        {
          "name": "D4",
          "midi": 62,
          "time": 114.56888150000152,
          "velocity": 0.6692913385826772,
          "duration": 1.2758611333333647
        },
        {
          "name": "B1",
          "midi": 35,
          "time": 114.56888150000152,
          "velocity": 0.7165354330708661,
          "duration": 0.04310341666666773
        },
        {
          "name": "E2",
          "midi": 40,
          "time": 114.69819175000153,
          "velocity": 0.36220472440944884,
          "duration": 0.04310341666666773
        },
        {
          "name": "A3",
          "midi": 57,
          "time": 114.82750200000153,
          "velocity": 0.7874015748031497,
          "duration": 0.5172410000000127
        },
        {
          "name": "E2",
          "midi": 40,
          "time": 114.82750200000153,
          "velocity": 0.8503937007874016,
          "duration": 0.04310341666666773
        },
        {
          "name": "E2",
          "midi": 40,
          "time": 114.95681225000153,
          "velocity": 0.7165354330708661,
          "duration": 0.04310341666666773
        },
        {
          "name": "A3",
          "midi": 57,
          "time": 115.08612250000154,
          "velocity": 0.7874015748031497,
          "duration": 0.5172410000000127
        },
        {
          "name": "E3",
          "midi": 52,
          "time": 115.08612250000154,
          "velocity": 0.7165354330708661,
          "duration": 0.25862050000000636
        },
        {
          "name": "F#3",
          "midi": 54,
          "time": 115.08612250000154,
          "velocity": 0.5511811023622047,
          "duration": 0.5172410000000127
        },
        {
          "name": "A3",
          "midi": 57,
          "time": 115.08612250000154,
          "velocity": 0.5511811023622047,
          "duration": 0.758620133333352
        },
        {
          "name": "D4",
          "midi": 62,
          "time": 115.08612250000154,
          "velocity": 0.5511811023622047,
          "duration": 0.7629304750000188
        },
        {
          "name": "E2",
          "midi": 40,
          "time": 115.08612250000154,
          "velocity": 0.3464566929133858,
          "duration": 0.04310341666666773
        },
        {
          "name": "E2",
          "midi": 40,
          "time": 115.21543275000154,
          "velocity": 0.8740157480314961,
          "duration": 0.04310341666666773
        },
        {
          "name": "A3",
          "midi": 57,
          "time": 115.34474300000154,
          "velocity": 0.7874015748031497,
          "duration": 0.5043099750000124
        },
        {
          "name": "F#3",
          "midi": 54,
          "time": 115.34474300000154,
          "velocity": 0.8582677165354331,
          "duration": 0.5086203166666792
        },
        {
          "name": "D3",
          "midi": 50,
          "time": 115.34474300000154,
          "velocity": 0.5905511811023622,
          "duration": 0.5086203166666792
        },
        {
          "name": "A3",
          "midi": 57,
          "time": 115.34474300000154,
          "velocity": 0.5905511811023622,
          "duration": 0.5043099750000124
        },
        {
          "name": "D4",
          "midi": 62,
          "time": 115.34474300000154,
          "velocity": 0.5905511811023622,
          "duration": 0.5043099750000124
        },
        {
          "name": "E2",
          "midi": 40,
          "time": 115.34474300000154,
          "velocity": 0.5354330708661418,
          "duration": 0.04310341666666773
        },
        {
          "name": "E2",
          "midi": 40,
          "time": 115.47405325000155,
          "velocity": 0.3543307086614173,
          "duration": 0.04310341666666773
        },
        {
          "name": "A3",
          "midi": 57,
          "time": 115.60336350000155,
          "velocity": 0.7874015748031497,
          "duration": 0.2543101583333396
        },
        {
          "name": "A3",
          "midi": 57,
          "time": 115.60336350000155,
          "velocity": 0.7086614173228346,
          "duration": 0.25862050000000636
        },
        {
          "name": "B1",
          "midi": 35,
          "time": 115.60336350000155,
          "velocity": 0.7086614173228346,
          "duration": 0.04310341666666773
        },
        {
          "name": "E2",
          "midi": 40,
          "time": 115.73267375000155,
          "velocity": 0.5433070866141733,
          "duration": 0.04310341666666773
        },
        {
          "name": "A3",
          "midi": 57,
          "time": 115.85767365833489,
          "velocity": 0.8740157480314961,
          "duration": 0.004310341666666773
        },
        {
          "name": "G4",
          "midi": 67,
          "time": 115.86198400000156,
          "velocity": 0.7874015748031497,
          "duration": 2.068964000000051
        },
        {
          "name": "B4",
          "midi": 71,
          "time": 115.86198400000156,
          "velocity": 0.7874015748031497,
          "duration": 0.7758615000000191
        },
        {
          "name": "D5",
          "midi": 74,
          "time": 115.86198400000156,
          "velocity": 0.7874015748031497,
          "duration": 1.2931025000000318
        },
        {
          "name": "F#5",
          "midi": 78,
          "time": 115.86198400000156,
          "velocity": 0.7874015748031497,
          "duration": 2.068964000000051
        },
        {
          "name": "B3",
          "midi": 59,
          "time": 115.86198400000156,
          "velocity": 0.7874015748031497,
          "duration": 0.04310341666666773
        },
        {
          "name": "G2",
          "midi": 43,
          "time": 115.86198400000156,
          "velocity": 0.8740157480314961,
          "duration": 0.49999963333334563
        },
        {
          "name": "F#3",
          "midi": 54,
          "time": 115.86198400000156,
          "velocity": 0.6299212598425197,
          "duration": 0.7629304750000188
        },
        {
          "name": "B3",
          "midi": 59,
          "time": 115.86198400000156,
          "velocity": 0.6299212598425197,
          "duration": 0.3017239166666741
        },
        {
          "name": "D4",
          "midi": 62,
          "time": 115.86198400000156,
          "velocity": 0.6299212598425197,
          "duration": 1.0344820000000254
        },
        {
          "name": "G2",
          "midi": 43,
          "time": 115.86198400000156,
          "velocity": 0.6692913385826772,
          "duration": 0.7672408166666855
        },
        {
          "name": "D3",
          "midi": 50,
          "time": 115.86198400000156,
          "velocity": 0.6692913385826772,
          "duration": 0.5043099750000124
        },
        {
          "name": "G3",
          "midi": 55,
          "time": 115.86198400000156,
          "velocity": 0.6692913385826772,
          "duration": 0.5043099750000124
        },
        {
          "name": "D3",
          "midi": 50,
          "time": 115.86198400000156,
          "velocity": 0.5511811023622047,
          "duration": 0.7629304750000188
        },
        {
          "name": "F#3",
          "midi": 54,
          "time": 115.86198400000156,
          "velocity": 0.5511811023622047,
          "duration": 1.2801714750000315
        },
        {
          "name": "B3",
          "midi": 59,
          "time": 115.86198400000156,
          "velocity": 0.5511811023622047,
          "duration": 0.5172410000000127
        },
        {
          "name": "B1",
          "midi": 35,
          "time": 115.86198400000156,
          "velocity": 0.8661417322834646,
          "duration": 0.04310341666666773
        },
        {
          "name": "B3",
          "midi": 59,
          "time": 115.86198400000156,
          "velocity": 0.8740157480314961,
          "duration": 0.5603444166666804
        },
        {
          "name": "B3",
          "midi": 59,
          "time": 116.12060450000156,
          "velocity": 0.6929133858267716,
          "duration": 0.49999963333334563
        },
        {
          "name": "B4",
          "midi": 71,
          "time": 116.37922500000157,
          "velocity": 0.7874015748031497,
          "duration": 0.25862050000000636
        },
        {
          "name": "B4",
          "midi": 71,
          "time": 116.37922500000157,
          "velocity": 0.7874015748031497,
          "duration": 1.5517230000000382
        },
        {
          "name": "D4",
          "midi": 62,
          "time": 116.37922500000157,
          "velocity": 0.7874015748031497,
          "duration": 1.534481633333371
        },
        {
          "name": "G2",
          "midi": 43,
          "time": 116.37922500000157,
          "velocity": 0.5905511811023622,
          "duration": 0.25862050000000636
        },
        {
          "name": "D3",
          "midi": 50,
          "time": 116.37922500000157,
          "velocity": 0.5905511811023622,
          "duration": 0.24568947500000604
        },
        {
          "name": "G3",
          "midi": 55,
          "time": 116.37922500000157,
          "velocity": 0.5905511811023622,
          "duration": 0.24137913333333927
        },
        {
          "name": "E2",
          "midi": 40,
          "time": 116.37922500000157,
          "velocity": 0.8661417322834646,
          "duration": 0.04310341666666773
        },
        {
          "name": "F#2",
          "midi": 42,
          "time": 116.37922500000157,
          "velocity": 0.8582677165354331,
          "duration": 0.04310341666666773
        },
        {
          "name": "B3",
          "midi": 59,
          "time": 116.37922500000157,
          "velocity": 0.7086614173228346,
          "duration": 0.3017239166666741
        },
        {
          "name": "C#5",
          "midi": 73,
          "time": 116.63784550000157,
          "velocity": 0.7874015748031497,
          "duration": 0.25862050000000636
        },
        {
          "name": "C#5",
          "midi": 73,
          "time": 116.63784550000157,
          "velocity": 0.7874015748031497,
          "duration": 0.25862050000000636
        },
        {
          "name": "B2",
          "midi": 47,
          "time": 116.63784550000157,
          "velocity": 0.8740157480314961,
          "duration": 0.5172410000000127
        },
        {
          "name": "G2",
          "midi": 43,
          "time": 116.63784550000157,
          "velocity": 0.5905511811023622,
          "duration": 0.758620133333352
        },
        {
          "name": "D3",
          "midi": 50,
          "time": 116.63784550000157,
          "velocity": 0.5905511811023622,
          "duration": 0.5086203166666792
        },
        {
          "name": "G3",
          "midi": 55,
          "time": 116.63784550000157,
          "velocity": 0.5905511811023622,
          "duration": 0.7629304750000188
        },
        {
          "name": "D3",
          "midi": 50,
          "time": 116.63784550000157,
          "velocity": 0.6692913385826772,
          "duration": 0.7629304750000188
        },
        {
          "name": "F#3",
          "midi": 54,
          "time": 116.63784550000157,
          "velocity": 0.6692913385826772,
          "duration": 1.2758611333333647
        },
        {
          "name": "B3",
          "midi": 59,
          "time": 116.63784550000157,
          "velocity": 0.6692913385826772,
          "duration": 0.3017239166666741
        },
        {
          "name": "B1",
          "midi": 35,
          "time": 116.63784550000157,
          "velocity": 0.5354330708661418,
          "duration": 0.04310341666666773
        },
        {
          "name": "B3",
          "midi": 59,
          "time": 116.63784550000157,
          "velocity": 0.7007874015748031,
          "duration": 0.5043099750000124
        },
        {
          "name": "D5",
          "midi": 74,
          "time": 116.89646600000158,
          "velocity": 0.7874015748031497,
          "duration": 0.25862050000000636
        },
        {
          "name": "D5",
          "midi": 74,
          "time": 116.89646600000158,
          "velocity": 0.7874015748031497,
          "duration": 0.5172410000000127
        },
        {
          "name": "B3",
          "midi": 59,
          "time": 116.89646600000158,
          "velocity": 0.7874015748031497,
          "duration": 0.25862050000000636
        },
        {
          "name": "B1",
          "midi": 35,
          "time": 116.89646600000158,
          "velocity": 0.8740157480314961,
          "duration": 0.04310341666666773
        },
        {
          "name": "B3",
          "midi": 59,
          "time": 116.89646600000158,
          "velocity": 0.7086614173228346,
          "duration": 0.3017239166666741
        },
        {
          "name": "D5",
          "midi": 74,
          "time": 117.15508650000159,
          "velocity": 0.7874015748031497,
          "duration": 0.25862050000000636
        },
        {
          "name": "D5",
          "midi": 74,
          "time": 117.15508650000159,
          "velocity": 0.7874015748031497,
          "duration": 0.7758615000000191
        },
        {
          "name": "B3",
          "midi": 59,
          "time": 117.15508650000159,
          "velocity": 0.7874015748031497,
          "duration": 0.25862050000000636
        },
        {
          "name": "D3",
          "midi": 50,
          "time": 117.15508650000159,
          "velocity": 0.7086614173228346,
          "duration": 0.25862050000000636
        },
        {
          "name": "D3",
          "midi": 50,
          "time": 117.15508650000159,
          "velocity": 0.5511811023622047,
          "duration": 0.758620133333352
        },
        {
          "name": "F#3",
          "midi": 54,
          "time": 117.15508650000159,
          "velocity": 0.5511811023622047,
          "duration": 0.7672408166666855
        },
        {
          "name": "B3",
          "midi": 59,
          "time": 117.15508650000159,
          "velocity": 0.5511811023622047,
          "duration": 0.3017239166666741
        },
        {
          "name": "B3",
          "midi": 59,
          "time": 117.15508650000159,
          "velocity": 0.7007874015748031,
          "duration": 0.5603444166666804
        },
        {
          "name": "E5",
          "midi": 76,
          "time": 117.4137070000016,
          "velocity": 0.7874015748031497,
          "duration": 0.25862050000000636
        },
        {
          "name": "E5",
          "midi": 76,
          "time": 117.4137070000016,
          "velocity": 0.7874015748031497,
          "duration": 0.25862050000000636
        },
        {
          "name": "E3",
          "midi": 52,
          "time": 117.4137070000016,
          "velocity": 0.8740157480314961,
          "duration": 0.25862050000000636
        },
        {
          "name": "G2",
          "midi": 43,
          "time": 117.4137070000016,
          "velocity": 0.5905511811023622,
          "duration": 0.5043099750000124
        },
        {
          "name": "D3",
          "midi": 50,
          "time": 117.4137070000016,
          "velocity": 0.5905511811023622,
          "duration": 0.5043099750000124
        },
        {
          "name": "G3",
          "midi": 55,
          "time": 117.4137070000016,
          "velocity": 0.5905511811023622,
          "duration": 0.49999963333334563
        },
        {
          "name": "E2",
          "midi": 40,
          "time": 117.4137070000016,
          "velocity": 0.8661417322834646,
          "duration": 0.04310341666666773
        },
        {
          "name": "F#2",
          "midi": 42,
          "time": 117.4137070000016,
          "velocity": 0.8661417322834646,
          "duration": 0.04310341666666773
        },
        {
          "name": "B3",
          "midi": 59,
          "time": 117.4137070000016,
          "velocity": 0.7007874015748031,
          "duration": 0.5043099750000124
        },
        {
          "name": "C#5",
          "midi": 73,
          "time": 117.6723275000016,
          "velocity": 0.7874015748031497,
          "duration": 0.38793075000000954
        },
        {
          "name": "C#5",
          "midi": 73,
          "time": 117.6723275000016,
          "velocity": 0.7874015748031497,
          "duration": 0.38793075000000954
        },
        {
          "name": "F#3",
          "midi": 54,
          "time": 117.6723275000016,
          "velocity": 0.7874015748031497,
          "duration": 0.25862050000000636
        },
        {
          "name": "G3",
          "midi": 55,
          "time": 117.6723275000016,
          "velocity": 0.7165354330708661,
          "duration": 0.25862050000000636
        },
        {
          "name": "B3",
          "midi": 59,
          "time": 117.6723275000016,
          "velocity": 0.5511811023622047,
          "duration": 0.24999981666667281
        },
        {
          "name": "A4",
          "midi": 69,
          "time": 117.9309480000016,
          "velocity": 0.7874015748031497,
          "duration": 1.5517230000000382
        },
        {
          "name": "C#5",
          "midi": 73,
          "time": 117.9309480000016,
          "velocity": 0.7874015748031497,
          "duration": 2.068964000000051
        },
        {
          "name": "E5",
          "midi": 76,
          "time": 117.9309480000016,
          "velocity": 0.7874015748031497,
          "duration": 2.068964000000051
        },
        {
          "name": "B3",
          "midi": 59,
          "time": 117.9309480000016,
          "velocity": 0.7874015748031497,
          "duration": 0.04310341666666773
        },
        {
          "name": "B2",
          "midi": 47,
          "time": 117.9309480000016,
          "velocity": 0.8661417322834646,
          "duration": 0.7758615000000191
        },
        {
          "name": "A3",
          "midi": 57,
          "time": 117.9309480000016,
          "velocity": 0.6299212598425197,
          "duration": 0.5086203166666792
        },
        {
          "name": "C#4",
          "midi": 61,
          "time": 117.9309480000016,
          "velocity": 0.6299212598425197,
          "duration": 0.7672408166666855
        },
        {
          "name": "E4",
          "midi": 64,
          "time": 117.9309480000016,
          "velocity": 0.6299212598425197,
          "duration": 1.0172406333333583
        },
        {
          "name": "A2",
          "midi": 45,
          "time": 117.9309480000016,
          "velocity": 0.6692913385826772,
          "duration": 0.49999963333334563
        },
        {
          "name": "E3",
          "midi": 52,
          "time": 117.9309480000016,
          "velocity": 0.6692913385826772,
          "duration": 0.5043099750000124
        },
        {
          "name": "A3",
          "midi": 57,
          "time": 117.9309480000016,
          "velocity": 0.6692913385826772,
          "duration": 0.7672408166666855
        },
        {
          "name": "E3",
          "midi": 52,
          "time": 117.9309480000016,
          "velocity": 0.5511811023622047,
          "duration": 0.7629304750000188
        },
        {
          "name": "A3",
          "midi": 57,
          "time": 117.9309480000016,
          "velocity": 0.5511811023622047,
          "duration": 1.0172406333333583
        },
        {
          "name": "C#4",
          "midi": 61,
          "time": 117.9309480000016,
          "velocity": 0.5511811023622047,
          "duration": 1.0215509750000251
        },
        {
          "name": "B1",
          "midi": 35,
          "time": 117.9309480000016,
          "velocity": 0.8740157480314961,
          "duration": 0.04310341666666773
        },
        {
          "name": "B3",
          "midi": 59,
          "time": 117.9309480000016,
          "velocity": 0.8661417322834646,
          "duration": 0.3017239166666741
        },
        {
          "name": "B4",
          "midi": 71,
          "time": 118.06025825000161,
          "velocity": 0.7874015748031497,
          "duration": 0.12931025000000318
        },
        {
          "name": "B4",
          "midi": 71,
          "time": 118.06025825000161,
          "velocity": 0.7874015748031497,
          "duration": 0.12931025000000318
        },
        {
          "name": "A4",
          "midi": 69,
          "time": 118.18956850000161,
          "velocity": 0.7874015748031497,
          "duration": 1.2931025000000318
        },
        {
          "name": "A4",
          "midi": 69,
          "time": 118.18956850000161,
          "velocity": 0.7874015748031497,
          "duration": 1.801722816666711
        },
        {
          "name": "B3",
          "midi": 59,
          "time": 118.18956850000161,
          "velocity": 0.6929133858267716,
          "duration": 0.25862050000000636
        },
        {
          "name": "D4",
          "midi": 62,
          "time": 118.44818900000162,
          "velocity": 0.7874015748031497,
          "duration": 0.25862050000000636
        },
        {
          "name": "A2",
          "midi": 45,
          "time": 118.44818900000162,
          "velocity": 0.5905511811023622,
          "duration": 0.49999963333334563
        },
        {
          "name": "E3",
          "midi": 52,
          "time": 118.44818900000162,
          "velocity": 0.5905511811023622,
          "duration": 0.5043099750000124
        },
        {
          "name": "A3",
          "midi": 57,
          "time": 118.44818900000162,
          "velocity": 0.5905511811023622,
          "duration": 0.49999963333334563
        },
        {
          "name": "E2",
          "midi": 40,
          "time": 118.44818900000162,
          "velocity": 0.8740157480314961,
          "duration": 0.04310341666666773
        },
        {
          "name": "A#2",
          "midi": 46,
          "time": 118.44818900000162,
          "velocity": 0.8740157480314961,
          "duration": 0.04310341666666773
        },
        {
          "name": "B3",
          "midi": 59,
          "time": 118.44818900000162,
          "velocity": 0.7165354330708661,
          "duration": 0.04310341666666773
        },
        {
          "name": "C#4",
          "midi": 61,
          "time": 118.70680950000163,
          "velocity": 0.7874015748031497,
          "duration": 0.24999981666667281
        },
        {
          "name": "B2",
          "midi": 47,
          "time": 118.70680950000163,
          "velocity": 0.8503937007874016,
          "duration": 0.25862050000000636
        },
        {
          "name": "E3",
          "midi": 52,
          "time": 118.70680950000163,
          "velocity": 0.6692913385826772,
          "duration": 0.24999981666667281
        },
        {
          "name": "A3",
          "midi": 57,
          "time": 118.70680950000163,
          "velocity": 0.6692913385826772,
          "duration": 0.24137913333333927
        },
        {
          "name": "C#4",
          "midi": 61,
          "time": 118.70680950000163,
          "velocity": 0.6692913385826772,
          "duration": 0.25862050000000636
        },
        {
          "name": "B1",
          "midi": 35,
          "time": 118.70680950000163,
          "velocity": 0.5275590551181102,
          "duration": 0.04310341666666773
        },
        {
          "name": "B3",
          "midi": 59,
          "time": 118.70680950000163,
          "velocity": 0.5669291338582677,
          "duration": 0.04310341666666773
        },
        {
          "name": "A3",
          "midi": 57,
          "time": 118.96543000000163,
          "velocity": 0.7874015748031497,
          "duration": 0.5172410000000127
        },
        {
          "name": "A2",
          "midi": 45,
          "time": 118.96543000000163,
          "velocity": 0.8582677165354331,
          "duration": 0.5172410000000127
        },
        {
          "name": "C#4",
          "midi": 61,
          "time": 118.96543000000163,
          "velocity": 0.6299212598425197,
          "duration": 0.758620133333352
        },
        {
          "name": "E4",
          "midi": 64,
          "time": 118.96543000000163,
          "velocity": 0.6299212598425197,
          "duration": 1.0172406333333583
        },
        {
          "name": "A4",
          "midi": 69,
          "time": 118.96543000000163,
          "velocity": 0.6299212598425197,
          "duration": 1.0344820000000254
        },
        {
          "name": "A2",
          "midi": 45,
          "time": 118.96543000000163,
          "velocity": 0.6692913385826772,
          "duration": 1.025861316666692
        },
        {
          "name": "E3",
          "midi": 52,
          "time": 118.96543000000163,
          "velocity": 0.6692913385826772,
          "duration": 0.7629304750000188
        },
        {
          "name": "A3",
          "midi": 57,
          "time": 118.96543000000163,
          "velocity": 0.6692913385826772,
          "duration": 0.7629304750000188
        },
        {
          "name": "E3",
          "midi": 52,
          "time": 118.96543000000163,
          "velocity": 0.6692913385826772,
          "duration": 1.0172406333333583
        },
        {
          "name": "A3",
          "midi": 57,
          "time": 118.96543000000163,
          "velocity": 0.6692913385826772,
          "duration": 1.0215509750000251
        },
        {
          "name": "C#4",
          "midi": 61,
          "time": 118.96543000000163,
          "velocity": 0.6692913385826772,
          "duration": 1.0215509750000251
        },
        {
          "name": "B1",
          "midi": 35,
          "time": 118.96543000000163,
          "velocity": 0.8661417322834646,
          "duration": 0.04310341666666773
        },
        {
          "name": "B3",
          "midi": 59,
          "time": 118.96543000000163,
          "velocity": 0.8661417322834646,
          "duration": 0.04310341666666773
        },
        {
          "name": "B3",
          "midi": 59,
          "time": 119.22405050000164,
          "velocity": 0.6929133858267716,
          "duration": 0.04310341666666773
        },
        {
          "name": "F#3",
          "midi": 54,
          "time": 119.48267100000164,
          "velocity": 0.8582677165354331,
          "duration": 0.25862050000000636
        },
        {
          "name": "E2",
          "midi": 40,
          "time": 119.48267100000164,
          "velocity": 0.8740157480314961,
          "duration": 0.04310341666666773
        },
        {
          "name": "F#2",
          "midi": 42,
          "time": 119.48267100000164,
          "velocity": 0.8582677165354331,
          "duration": 0.04310341666666773
        },
        {
          "name": "B3",
          "midi": 59,
          "time": 119.48267100000164,
          "velocity": 0.7165354330708661,
          "duration": 0.04310341666666773
        },
        {
          "name": "F#3",
          "midi": 54,
          "time": 119.74129150000165,
          "velocity": 0.7874015748031497,
          "duration": 0.25862050000000636
        },
        {
          "name": "A3",
          "midi": 57,
          "time": 119.74129150000165,
          "velocity": 0.7086614173228346,
          "duration": 0.24999981666667281
        },
        {
          "name": "E3",
          "midi": 52,
          "time": 119.74129150000165,
          "velocity": 0.5511811023622047,
          "duration": 0.24568947500000604
        },
        {
          "name": "A3",
          "midi": 57,
          "time": 119.74129150000165,
          "velocity": 0.5511811023622047,
          "duration": 0.25862050000000636
        },
        {
          "name": "C#4",
          "midi": 61,
          "time": 119.74129150000165,
          "velocity": 0.5511811023622047,
          "duration": 0.24568947500000604
        },
        {
          "name": "B3",
          "midi": 59,
          "time": 119.74129150000165,
          "velocity": 0.5748031496062992,
          "duration": 0.04310341666666773
        },
        {
          "name": "G4",
          "midi": 67,
          "time": 119.99991200000166,
          "velocity": 0.7874015748031497,
          "duration": 2.068964000000051
        },
        {
          "name": "B4",
          "midi": 71,
          "time": 119.99991200000166,
          "velocity": 0.7874015748031497,
          "duration": 0.5172410000000127
        },
        {
          "name": "D5",
          "midi": 74,
          "time": 119.99991200000166,
          "velocity": 0.7874015748031497,
          "duration": 1.2931025000000318
        },
        {
          "name": "F#5",
          "midi": 78,
          "time": 119.99991200000166,
          "velocity": 0.7874015748031497,
          "duration": 2.068964000000051
        },
        {
          "name": "B3",
          "midi": 59,
          "time": 119.99991200000166,
          "velocity": 0.7874015748031497,
          "duration": 0.04310341666666773
        },
        {
          "name": "G2",
          "midi": 43,
          "time": 119.99991200000166,
          "velocity": 0.8740157480314961,
          "duration": 0.5043099750000124
        },
        {
          "name": "B3",
          "midi": 59,
          "time": 119.99991200000166,
          "velocity": 0.6299212598425197,
          "duration": 0.3017239166666741
        },
        {
          "name": "D4",
          "midi": 62,
          "time": 119.99991200000166,
          "velocity": 0.6299212598425197,
          "duration": 0.758620133333352
        },
        {
          "name": "F#4",
          "midi": 66,
          "time": 119.99991200000166,
          "velocity": 0.6299212598425197,
          "duration": 0.7629304750000188
        },
        {
          "name": "G2",
          "midi": 43,
          "time": 119.99991200000166,
          "velocity": 0.6692913385826772,
          "duration": 0.7629304750000188
        },
        {
          "name": "D3",
          "midi": 50,
          "time": 119.99991200000166,
          "velocity": 0.6692913385826772,
          "duration": 0.5086203166666792
        },
        {
          "name": "G3",
          "midi": 55,
          "time": 119.99991200000166,
          "velocity": 0.6692913385826772,
          "duration": 0.49999963333334563
        },
        {
          "name": "F#3",
          "midi": 54,
          "time": 119.99991200000166,
          "velocity": 0.5511811023622047,
          "duration": 0.758620133333352
        },
        {
          "name": "B3",
          "midi": 59,
          "time": 119.99991200000166,
          "velocity": 0.5511811023622047,
          "duration": 0.5172410000000127
        },
        {
          "name": "D4",
          "midi": 62,
          "time": 119.99991200000166,
          "velocity": 0.5511811023622047,
          "duration": 0.758620133333352
        },
        {
          "name": "B1",
          "midi": 35,
          "time": 119.99991200000166,
          "velocity": 0.8740157480314961,
          "duration": 0.04310341666666773
        },
        {
          "name": "B3",
          "midi": 59,
          "time": 119.99991200000166,
          "velocity": 0.8740157480314961,
          "duration": 0.5603444166666804
        },
        {
          "name": "B4",
          "midi": 71,
          "time": 120.25853250000166,
          "velocity": 0.7874015748031497,
          "duration": 0.25862050000000636
        },
        {
          "name": "B4",
          "midi": 71,
          "time": 120.25853250000166,
          "velocity": 0.7874015748031497,
          "duration": 0.5172410000000127
        },
        {
          "name": "B3",
          "midi": 59,
          "time": 120.25853250000166,
          "velocity": 0.6929133858267716,
          "duration": 0.5043099750000124
        },
        {
          "name": "B4",
          "midi": 71,
          "time": 120.51715300000167,
          "velocity": 0.7874015748031497,
          "duration": 0.25862050000000636
        },
        {
          "name": "B4",
          "midi": 71,
          "time": 120.51715300000167,
          "velocity": 0.7874015748031497,
          "duration": 1.0344820000000254
        },
        {
          "name": "D4",
          "midi": 62,
          "time": 120.51715300000167,
          "velocity": 0.7874015748031497,
          "duration": 0.25862050000000636
        },
        {
          "name": "G2",
          "midi": 43,
          "time": 120.51715300000167,
          "velocity": 0.5905511811023622,
          "duration": 0.25862050000000636
        },
        {
          "name": "D3",
          "midi": 50,
          "time": 120.51715300000167,
          "velocity": 0.5905511811023622,
          "duration": 0.24568947500000604
        },
        {
          "name": "G3",
          "midi": 55,
          "time": 120.51715300000167,
          "velocity": 0.5905511811023622,
          "duration": 0.24999981666667281
        },
        {
          "name": "E2",
          "midi": 40,
          "time": 120.51715300000167,
          "velocity": 0.8661417322834646,
          "duration": 0.04310341666666773
        },
        {
          "name": "F#2",
          "midi": 42,
          "time": 120.51715300000167,
          "velocity": 0.8582677165354331,
          "duration": 0.04310341666666773
        },
        {
          "name": "B3",
          "midi": 59,
          "time": 120.51715300000167,
          "velocity": 0.7086614173228346,
          "duration": 0.24999981666667281
        },
        {
          "name": "C#5",
          "midi": 73,
          "time": 120.77577350000168,
          "velocity": 0.7874015748031497,
          "duration": 0.25862050000000636
        },
        {
          "name": "C#5",
          "midi": 73,
          "time": 120.77577350000168,
          "velocity": 0.7874015748031497,
          "duration": 0.25862050000000636
        },
        {
          "name": "C#4",
          "midi": 61,
          "time": 120.77577350000168,
          "velocity": 0.7874015748031497,
          "duration": 0.25862050000000636
        },
        {
          "name": "B2",
          "midi": 47,
          "time": 120.77577350000168,
          "velocity": 0.8661417322834646,
          "duration": 0.5172410000000127
        },
        {
          "name": "B3",
          "midi": 59,
          "time": 120.77577350000168,
          "velocity": 0.5511811023622047,
          "duration": 0.04310341666666773
        },
        {
          "name": "D4",
          "midi": 62,
          "time": 120.77577350000168,
          "velocity": 0.5511811023622047,
          "duration": 0.5043099750000124
        },
        {
          "name": "F#4",
          "midi": 66,
          "time": 120.77577350000168,
          "velocity": 0.5511811023622047,
          "duration": 1.2801714750000315
        },
        {
          "name": "G2",
          "midi": 43,
          "time": 120.77577350000168,
          "velocity": 0.5905511811023622,
          "duration": 0.7672408166666855
        },
        {
          "name": "D3",
          "midi": 50,
          "time": 120.77577350000168,
          "velocity": 0.5905511811023622,
          "duration": 0.7629304750000188
        },
        {
          "name": "G3",
          "midi": 55,
          "time": 120.77577350000168,
          "velocity": 0.5905511811023622,
          "duration": 0.7672408166666855
        },
        {
          "name": "F#3",
          "midi": 54,
          "time": 120.77577350000168,
          "velocity": 0.6692913385826772,
          "duration": 0.5043099750000124
        },
        {
          "name": "B3",
          "midi": 59,
          "time": 120.77577350000168,
          "velocity": 0.6692913385826772,
          "duration": 0.3017239166666741
        },
        {
          "name": "D4",
          "midi": 62,
          "time": 120.77577350000168,
          "velocity": 0.6692913385826772,
          "duration": 1.0215509750000251
        },
        {
          "name": "B3",
          "midi": 59,
          "time": 120.77577350000168,
          "velocity": 0.7007874015748031,
          "duration": 0.5043099750000124
        },
        {
          "name": "D5",
          "midi": 74,
          "time": 121.03439400000168,
          "velocity": 0.7874015748031497,
          "duration": 0.25862050000000636
        },
        {
          "name": "D5",
          "midi": 74,
          "time": 121.03439400000168,
          "velocity": 0.7874015748031497,
          "duration": 1.0344820000000254
        },
        {
          "name": "B3",
          "midi": 59,
          "time": 121.03439400000168,
          "velocity": 0.7874015748031497,
          "duration": 0.25862050000000636
        },
        {
          "name": "B1",
          "midi": 35,
          "time": 121.03439400000168,
          "velocity": 0.8503937007874016,
          "duration": 0.04310341666666773
        },
        {
          "name": "B3",
          "midi": 59,
          "time": 121.03439400000168,
          "velocity": 0.7086614173228346,
          "duration": 0.3017239166666741
        },
        {
          "name": "B4",
          "midi": 71,
          "time": 121.29301450000169,
          "velocity": 0.7874015748031497,
          "duration": 0.25862050000000636
        },
        {
          "name": "B4",
          "midi": 71,
          "time": 121.29301450000169,
          "velocity": 0.7874015748031497,
          "duration": 0.7758615000000191
        },
        {
          "name": "B3",
          "midi": 59,
          "time": 121.29301450000169,
          "velocity": 0.7874015748031497,
          "duration": 0.25862050000000636
        },
        {
          "name": "D3",
          "midi": 50,
          "time": 121.29301450000169,
          "velocity": 0.6929133858267716,
          "duration": 0.25862050000000636
        },
        {
          "name": "F#3",
          "midi": 54,
          "time": 121.29301450000169,
          "velocity": 0.5511811023622047,
          "duration": 0.5086203166666792
        },
        {
          "name": "B3",
          "midi": 59,
          "time": 121.29301450000169,
          "velocity": 0.5511811023622047,
          "duration": 0.3017239166666741
        },
        {
          "name": "D4",
          "midi": 62,
          "time": 121.29301450000169,
          "velocity": 0.5511811023622047,
          "duration": 0.758620133333352
        },
        {
          "name": "B3",
          "midi": 59,
          "time": 121.29301450000169,
          "velocity": 0.7007874015748031,
          "duration": 0.49999963333334563
        },
        {
          "name": "E3",
          "midi": 52,
          "time": 121.5516350000017,
          "velocity": 0.8503937007874016,
          "duration": 0.25862050000000636
        },
        {
          "name": "G2",
          "midi": 43,
          "time": 121.5516350000017,
          "velocity": 0.5905511811023622,
          "duration": 0.5043099750000124
        },
        {
          "name": "D3",
          "midi": 50,
          "time": 121.5516350000017,
          "velocity": 0.5905511811023622,
          "duration": 0.5043099750000124
        },
        {
          "name": "G3",
          "midi": 55,
          "time": 121.5516350000017,
          "velocity": 0.5905511811023622,
          "duration": 0.49999963333334563
        },
        {
          "name": "E2",
          "midi": 40,
          "time": 121.5516350000017,
          "velocity": 0.8582677165354331,
          "duration": 0.04310341666666773
        },
        {
          "name": "F#2",
          "midi": 42,
          "time": 121.5516350000017,
          "velocity": 0.8661417322834646,
          "duration": 0.04310341666666773
        },
        {
          "name": "B3",
          "midi": 59,
          "time": 121.5516350000017,
          "velocity": 0.7007874015748031,
          "duration": 0.3017239166666741
        },
        {
          "name": "A4",
          "midi": 69,
          "time": 121.8102555000017,
          "velocity": 0.7874015748031497,
          "duration": 0.25862050000000636
        },
        {
          "name": "A4",
          "midi": 69,
          "time": 121.8102555000017,
          "velocity": 0.7874015748031497,
          "duration": 0.25862050000000636
        },
        {
          "name": "B3",
          "midi": 59,
          "time": 121.8102555000017,
          "velocity": 0.7874015748031497,
          "duration": 0.24568947500000604
        },
        {
          "name": "D3",
          "midi": 50,
          "time": 121.8102555000017,
          "velocity": 0.7007874015748031,
          "duration": 0.25862050000000636
        },
        {
          "name": "F#3",
          "midi": 54,
          "time": 121.8102555000017,
          "velocity": 0.5511811023622047,
          "duration": 0.24999981666667281
        },
        {
          "name": "B3",
          "midi": 59,
          "time": 121.8102555000017,
          "velocity": 0.5511811023622047,
          "duration": 0.24999981666667281
        },
        {
          "name": "D4",
          "midi": 62,
          "time": 121.8102555000017,
          "velocity": 0.5511811023622047,
          "duration": 0.24999981666667281
        },
        {
          "name": "B1",
          "midi": 35,
          "time": 121.8102555000017,
          "velocity": 0.5275590551181102,
          "duration": 0.04310341666666773
        },
        {
          "name": "B3",
          "midi": 59,
          "time": 121.8102555000017,
          "velocity": 0.5511811023622047,
          "duration": 0.25862050000000636
        },
        {
          "name": "A5",
          "midi": 81,
          "time": 122.06887600000171,
          "velocity": 0.7874015748031497,
          "duration": 0.5172410000000127
        },
        {
          "name": "A5",
          "midi": 81,
          "time": 122.06887600000171,
          "velocity": 0.7874015748031497,
          "duration": 0.5172410000000127
        },
        {
          "name": "G4",
          "midi": 67,
          "time": 122.06887600000171,
          "velocity": 0.7874015748031497,
          "duration": 0.7629304750000188
        },
        {
          "name": "B4",
          "midi": 71,
          "time": 122.06887600000171,
          "velocity": 0.7874015748031497,
          "duration": 1.0344820000000254
        },
        {
          "name": "E5",
          "midi": 76,
          "time": 122.06887600000171,
          "velocity": 0.7874015748031497,
          "duration": 1.0344820000000254
        },
        {
          "name": "E3",
          "midi": 52,
          "time": 122.06887600000171,
          "velocity": 0.7874015748031497,
          "duration": 0.5043099750000124
        },
        {
          "name": "E2",
          "midi": 40,
          "time": 122.06887600000171,
          "velocity": 0.8661417322834646,
          "duration": 0.04310341666666773
        },
        {
          "name": "B3",
          "midi": 59,
          "time": 122.06887600000171,
          "velocity": 0.6299212598425197,
          "duration": 0.7629304750000188
        },
        {
          "name": "D4",
          "midi": 62,
          "time": 122.06887600000171,
          "velocity": 0.6299212598425197,
          "duration": 0.758620133333352
        },
        {
          "name": "G4",
          "midi": 67,
          "time": 122.06887600000171,
          "velocity": 0.6299212598425197,
          "duration": 1.0344820000000254
        },
        {
          "name": "E2",
          "midi": 40,
          "time": 122.06887600000171,
          "velocity": 0.6692913385826772,
          "duration": 0.49999963333334563
        },
        {
          "name": "B2",
          "midi": 47,
          "time": 122.06887600000171,
          "velocity": 0.6692913385826772,
          "duration": 0.5043099750000124
        },
        {
          "name": "E3",
          "midi": 52,
          "time": 122.06887600000171,
          "velocity": 0.6692913385826772,
          "duration": 0.5172410000000127
        },
        {
          "name": "D3",
          "midi": 50,
          "time": 122.06887600000171,
          "velocity": 0.5511811023622047,
          "duration": 0.43103416666667727
        },
        {
          "name": "G3",
          "midi": 55,
          "time": 122.06887600000171,
          "velocity": 0.5511811023622047,
          "duration": 0.7672408166666855
        },
        {
          "name": "B3",
          "midi": 59,
          "time": 122.06887600000171,
          "velocity": 0.5511811023622047,
          "duration": 0.7629304750000188
        },
        {
          "name": "E2",
          "midi": 40,
          "time": 122.06887600000171,
          "velocity": 0.8661417322834646,
          "duration": 0.6896546666666836
        },
        {
          "name": "B1",
          "midi": 35,
          "time": 122.32749650000171,
          "velocity": 0.7007874015748031,
          "duration": 0.04310341666666773
        },
        {
          "name": "D3",
          "midi": 50,
          "time": 122.45680675000172,
          "velocity": 0.5590551181102362,
          "duration": 0.1724136666666709
        },
        {
          "name": "A5",
          "midi": 81,
          "time": 122.58611700000172,
          "velocity": 0.7874015748031497,
          "duration": 0.25862050000000636
        },
        {
          "name": "A5",
          "midi": 81,
          "time": 122.58611700000172,
          "velocity": 0.7874015748031497,
          "duration": 0.25862050000000636
        },
        {
          "name": "E3",
          "midi": 52,
          "time": 122.58611700000172,
          "velocity": 0.7874015748031497,
          "duration": 0.24137913333333927
        },
        {
          "name": "E2",
          "midi": 40,
          "time": 122.58611700000172,
          "velocity": 0.5905511811023622,
          "duration": 0.24568947500000604
        },
        {
          "name": "B2",
          "midi": 47,
          "time": 122.58611700000172,
          "velocity": 0.5905511811023622,
          "duration": 0.24999981666667281
        },
        {
          "name": "E3",
          "midi": 52,
          "time": 122.58611700000172,
          "velocity": 0.5905511811023622,
          "duration": 0.49999963333334563
        },
        {
          "name": "D3",
          "midi": 50,
          "time": 122.58611700000172,
          "velocity": 0.8582677165354331,
          "duration": 0.24568947500000604
        },
        {
          "name": "E2",
          "midi": 40,
          "time": 122.71542725000172,
          "velocity": 0.3700787401574803,
          "duration": 0.12931025000000318
        },
        {
          "name": "E5",
          "midi": 76,
          "time": 122.84473750000173,
          "velocity": 0.7874015748031497,
          "duration": 1.2931025000000318
        },
        {
          "name": "E5",
          "midi": 76,
          "time": 122.84473750000173,
          "velocity": 0.7874015748031497,
          "duration": 1.2931025000000318
        },
        {
          "name": "G2",
          "midi": 43,
          "time": 122.84473750000173,
          "velocity": 0.8503937007874016,
          "duration": 0.25862050000000636
        },
        {
          "name": "G3",
          "midi": 55,
          "time": 122.84473750000173,
          "velocity": 0.5511811023622047,
          "duration": 0.24999981666667281
        },
        {
          "name": "B3",
          "midi": 59,
          "time": 122.84473750000173,
          "velocity": 0.5511811023622047,
          "duration": 0.24137913333333927
        },
        {
          "name": "D4",
          "midi": 62,
          "time": 122.84473750000173,
          "velocity": 0.5511811023622047,
          "duration": 0.24568947500000604
        },
        {
          "name": "E2",
          "midi": 40,
          "time": 122.84473750000173,
          "velocity": 0.5905511811023622,
          "duration": 0.1724136666666709
        },
        {
          "name": "B2",
          "midi": 47,
          "time": 122.84473750000173,
          "velocity": 0.5905511811023622,
          "duration": 0.24137913333333927
        },
        {
          "name": "E3",
          "midi": 52,
          "time": 122.84473750000173,
          "velocity": 0.5905511811023622,
          "duration": 0.25862050000000636
        },
        {
          "name": "D3",
          "midi": 50,
          "time": 122.84473750000173,
          "velocity": 0.6692913385826772,
          "duration": 0.24999981666667281
        },
        {
          "name": "G3",
          "midi": 55,
          "time": 122.84473750000173,
          "velocity": 0.6692913385826772,
          "duration": 0.24999981666667281
        },
        {
          "name": "B3",
          "midi": 59,
          "time": 122.84473750000173,
          "velocity": 0.6692913385826772,
          "duration": 0.24137913333333927
        },
        {
          "name": "B1",
          "midi": 35,
          "time": 122.84473750000173,
          "velocity": 0.7165354330708661,
          "duration": 0.04310341666666773
        },
        {
          "name": "E2",
          "midi": 40,
          "time": 122.97404775000173,
          "velocity": 0.3543307086614173,
          "duration": 0.12068956666666963
        },
        {
          "name": "A4",
          "midi": 69,
          "time": 123.10335800000173,
          "velocity": 0.7874015748031497,
          "duration": 1.025861316666692
        },
        {
          "name": "C#5",
          "midi": 73,
          "time": 123.10335800000173,
          "velocity": 0.7874015748031497,
          "duration": 1.0344820000000254
        },
        {
          "name": "A3",
          "midi": 57,
          "time": 123.10335800000173,
          "velocity": 0.7874015748031497,
          "duration": 0.5086203166666792
        },
        {
          "name": "A2",
          "midi": 45,
          "time": 123.10335800000173,
          "velocity": 0.8661417322834646,
          "duration": 0.5086203166666792
        },
        {
          "name": "C#4",
          "midi": 61,
          "time": 123.10335800000173,
          "velocity": 0.6299212598425197,
          "duration": 0.758620133333352
        },
        {
          "name": "E4",
          "midi": 64,
          "time": 123.10335800000173,
          "velocity": 0.6299212598425197,
          "duration": 1.0172406333333583
        },
        {
          "name": "A4",
          "midi": 69,
          "time": 123.10335800000173,
          "velocity": 0.6299212598425197,
          "duration": 1.0344820000000254
        },
        {
          "name": "A2",
          "midi": 45,
          "time": 123.10335800000173,
          "velocity": 0.6692913385826772,
          "duration": 0.5172410000000127
        },
        {
          "name": "E3",
          "midi": 52,
          "time": 123.10335800000173,
          "velocity": 0.6692913385826772,
          "duration": 0.49999963333334563
        },
        {
          "name": "A3",
          "midi": 57,
          "time": 123.10335800000173,
          "velocity": 0.6692913385826772,
          "duration": 0.5172410000000127
        },
        {
          "name": "E3",
          "midi": 52,
          "time": 123.10335800000173,
          "velocity": 0.6692913385826772,
          "duration": 0.7629304750000188
        },
        {
          "name": "A3",
          "midi": 57,
          "time": 123.10335800000173,
          "velocity": 0.6692913385826772,
          "duration": 0.758620133333352
        },
        {
          "name": "C#4",
          "midi": 61,
          "time": 123.10335800000173,
          "velocity": 0.6692913385826772,
          "duration": 1.0172406333333583
        },
        {
          "name": "E2",
          "midi": 40,
          "time": 123.10335800000173,
          "velocity": 0.3543307086614173,
          "duration": 0.04310341666666773
        },
        {
          "name": "D3",
          "midi": 50,
          "time": 123.36197850000174,
          "velocity": 0.8661417322834646,
          "duration": 0.04310341666666773
        },
        {
          "name": "A3",
          "midi": 57,
          "time": 123.62059900000175,
          "velocity": 0.7874015748031497,
          "duration": 0.5043099750000124
        },
        {
          "name": "F#3",
          "midi": 54,
          "time": 123.62059900000175,
          "velocity": 0.8582677165354331,
          "duration": 0.25862050000000636
        },
        {
          "name": "A2",
          "midi": 45,
          "time": 123.62059900000175,
          "velocity": 0.5905511811023622,
          "duration": 0.5043099750000124
        },
        {
          "name": "E3",
          "midi": 52,
          "time": 123.62059900000175,
          "velocity": 0.5905511811023622,
          "duration": 0.49999963333334563
        },
        {
          "name": "A3",
          "midi": 57,
          "time": 123.62059900000175,
          "velocity": 0.5905511811023622,
          "duration": 0.5043099750000124
        },
        {
          "name": "E2",
          "midi": 40,
          "time": 123.62059900000175,
          "velocity": 0.3700787401574803,
          "duration": 0.04310341666666773
        },
        {
          "name": "E2",
          "midi": 40,
          "time": 123.74990925000175,
          "velocity": 0.3464566929133858,
          "duration": 0.04310341666666773
        },
        {
          "name": "A3",
          "midi": 57,
          "time": 123.87921950000175,
          "velocity": 0.7165354330708661,
          "duration": 0.25862050000000636
        },
        {
          "name": "E3",
          "midi": 52,
          "time": 123.87921950000175,
          "velocity": 0.5511811023622047,
          "duration": 0.24999981666667281
        },
        {
          "name": "A3",
          "midi": 57,
          "time": 123.87921950000175,
          "velocity": 0.5511811023622047,
          "duration": 0.25862050000000636
        },
        {
          "name": "C#4",
          "midi": 61,
          "time": 123.87921950000175,
          "velocity": 0.5511811023622047,
          "duration": 0.24999981666667281
        },
        {
          "name": "C3",
          "midi": 48,
          "time": 123.87921950000175,
          "velocity": 0.8661417322834646,
          "duration": 0.04310341666666773
        },
        {
          "name": "A3",
          "midi": 57,
          "time": 124.13352965833509,
          "velocity": 0.8740157480314961,
          "duration": 0.004310341666666773
        },
        {
          "name": "G4",
          "midi": 67,
          "time": 124.13784000000176,
          "velocity": 0.7874015748031497,
          "duration": 2.068964000000051
        },
        {
          "name": "B4",
          "midi": 71,
          "time": 124.13784000000176,
          "velocity": 0.7874015748031497,
          "duration": 0.5172410000000127
        },
        {
          "name": "D5",
          "midi": 74,
          "time": 124.13784000000176,
          "velocity": 0.7874015748031497,
          "duration": 1.2931025000000318
        },
        {
          "name": "F#5",
          "midi": 78,
          "time": 124.13784000000176,
          "velocity": 0.7874015748031497,
          "duration": 2.068964000000051
        },
        {
          "name": "B3",
          "midi": 59,
          "time": 124.13784000000176,
          "velocity": 0.7874015748031497,
          "duration": 0.04310341666666773
        },
        {
          "name": "G2",
          "midi": 43,
          "time": 124.13784000000176,
          "velocity": 0.8582677165354331,
          "duration": 0.5086203166666792
        },
        {
          "name": "B3",
          "midi": 59,
          "time": 124.13784000000176,
          "velocity": 0.6299212598425197,
          "duration": 0.3017239166666741
        },
        {
          "name": "D4",
          "midi": 62,
          "time": 124.13784000000176,
          "velocity": 0.6299212598425197,
          "duration": 0.7758615000000191
        },
        {
          "name": "F#4",
          "midi": 66,
          "time": 124.13784000000176,
          "velocity": 0.6299212598425197,
          "duration": 2.0560329750000506
        },
        {
          "name": "G2",
          "midi": 43,
          "time": 124.13784000000176,
          "velocity": 0.6692913385826772,
          "duration": 0.7629304750000188
        },
        {
          "name": "D3",
          "midi": 50,
          "time": 124.13784000000176,
          "velocity": 0.6692913385826772,
          "duration": 0.5086203166666792
        },
        {
          "name": "G3",
          "midi": 55,
          "time": 124.13784000000176,
          "velocity": 0.6692913385826772,
          "duration": 0.49999963333334563
        },
        {
          "name": "D3",
          "midi": 50,
          "time": 124.13784000000176,
          "velocity": 0.5511811023622047,
          "duration": 0.758620133333352
        },
        {
          "name": "F#3",
          "midi": 54,
          "time": 124.13784000000176,
          "velocity": 0.5511811023622047,
          "duration": 0.7629304750000188
        },
        {
          "name": "B3",
          "midi": 59,
          "time": 124.13784000000176,
          "velocity": 0.5511811023622047,
          "duration": 0.5172410000000127
        },
        {
          "name": "B1",
          "midi": 35,
          "time": 124.13784000000176,
          "velocity": 0.8740157480314961,
          "duration": 0.04310341666666773
        },
        {
          "name": "B3",
          "midi": 59,
          "time": 124.13784000000176,
          "velocity": 0.8740157480314961,
          "duration": 0.5603444166666804
        },
        {
          "name": "B4",
          "midi": 71,
          "time": 124.39646050000177,
          "velocity": 0.7874015748031497,
          "duration": 0.25862050000000636
        },
        {
          "name": "B4",
          "midi": 71,
          "time": 124.39646050000177,
          "velocity": 0.7874015748031497,
          "duration": 0.5172410000000127
        },
        {
          "name": "B3",
          "midi": 59,
          "time": 124.39646050000177,
          "velocity": 0.6929133858267716,
          "duration": 0.5086203166666792
        },
        {
          "name": "B4",
          "midi": 71,
          "time": 124.65508100000177,
          "velocity": 0.7874015748031497,
          "duration": 0.25862050000000636
        },
        {
          "name": "B4",
          "midi": 71,
          "time": 124.65508100000177,
          "velocity": 0.7874015748031497,
          "duration": 1.0344820000000254
        },
        {
          "name": "D4",
          "midi": 62,
          "time": 124.65508100000177,
          "velocity": 0.7874015748031497,
          "duration": 1.5387919750000378
        },
        {
          "name": "G2",
          "midi": 43,
          "time": 124.65508100000177,
          "velocity": 0.5905511811023622,
          "duration": 0.25862050000000636
        },
        {
          "name": "D3",
          "midi": 50,
          "time": 124.65508100000177,
          "velocity": 0.5905511811023622,
          "duration": 0.24568947500000604
        },
        {
          "name": "G3",
          "midi": 55,
          "time": 124.65508100000177,
          "velocity": 0.5905511811023622,
          "duration": 0.24568947500000604
        },
        {
          "name": "E2",
          "midi": 40,
          "time": 124.65508100000177,
          "velocity": 0.8661417322834646,
          "duration": 0.04310341666666773
        },
        {
          "name": "F#2",
          "midi": 42,
          "time": 124.65508100000177,
          "velocity": 0.8503937007874016,
          "duration": 0.04310341666666773
        },
        {
          "name": "B3",
          "midi": 59,
          "time": 124.65508100000177,
          "velocity": 0.7086614173228346,
          "duration": 0.3017239166666741
        },
        {
          "name": "C#5",
          "midi": 73,
          "time": 124.91370150000178,
          "velocity": 0.7874015748031497,
          "duration": 0.25862050000000636
        },
        {
          "name": "C#5",
          "midi": 73,
          "time": 124.91370150000178,
          "velocity": 0.7874015748031497,
          "duration": 0.25862050000000636
        },
        {
          "name": "C#4",
          "midi": 61,
          "time": 124.91370150000178,
          "velocity": 0.7874015748031497,
          "duration": 0.25862050000000636
        },
        {
          "name": "B2",
          "midi": 47,
          "time": 124.91370150000178,
          "velocity": 0.8582677165354331,
          "duration": 0.5172410000000127
        },
        {
          "name": "G2",
          "midi": 43,
          "time": 124.91370150000178,
          "velocity": 0.5905511811023622,
          "duration": 0.7629304750000188
        },
        {
          "name": "D3",
          "midi": 50,
          "time": 124.91370150000178,
          "velocity": 0.5905511811023622,
          "duration": 0.5043099750000124
        },
        {
          "name": "G3",
          "midi": 55,
          "time": 124.91370150000178,
          "velocity": 0.5905511811023622,
          "duration": 0.7629304750000188
        },
        {
          "name": "D3",
          "midi": 50,
          "time": 124.91370150000178,
          "velocity": 0.6692913385826772,
          "duration": 0.758620133333352
        },
        {
          "name": "F#3",
          "midi": 54,
          "time": 124.91370150000178,
          "velocity": 0.6692913385826772,
          "duration": 0.49999963333334563
        },
        {
          "name": "B3",
          "midi": 59,
          "time": 124.91370150000178,
          "velocity": 0.6692913385826772,
          "duration": 0.3017239166666741
        },
        {
          "name": "B1",
          "midi": 35,
          "time": 124.91370150000178,
          "velocity": 0.5433070866141733,
          "duration": 0.04310341666666773
        },
        {
          "name": "B3",
          "midi": 59,
          "time": 124.91370150000178,
          "velocity": 0.7007874015748031,
          "duration": 0.5043099750000124
        },
        {
          "name": "D5",
          "midi": 74,
          "time": 125.17232200000178,
          "velocity": 0.7874015748031497,
          "duration": 0.25862050000000636
        },
        {
          "name": "D5",
          "midi": 74,
          "time": 125.17232200000178,
          "velocity": 0.7874015748031497,
          "duration": 0.7758615000000191
        },
        {
          "name": "B3",
          "midi": 59,
          "time": 125.17232200000178,
          "velocity": 0.7874015748031497,
          "duration": 0.25862050000000636
        },
        {
          "name": "B1",
          "midi": 35,
          "time": 125.17232200000178,
          "velocity": 0.8740157480314961,
          "duration": 0.04310341666666773
        },
        {
          "name": "B3",
          "midi": 59,
          "time": 125.17232200000178,
          "velocity": 0.7086614173228346,
          "duration": 0.3017239166666741
        },
        {
          "name": "B4",
          "midi": 71,
          "time": 125.43094250000179,
          "velocity": 0.7874015748031497,
          "duration": 0.25862050000000636
        },
        {
          "name": "B4",
          "midi": 71,
          "time": 125.43094250000179,
          "velocity": 0.7874015748031497,
          "duration": 0.7758615000000191
        },
        {
          "name": "B3",
          "midi": 59,
          "time": 125.43094250000179,
          "velocity": 0.7874015748031497,
          "duration": 0.25862050000000636
        },
        {
          "name": "D3",
          "midi": 50,
          "time": 125.43094250000179,
          "velocity": 0.6929133858267716,
          "duration": 0.24568947500000604
        },
        {
          "name": "D3",
          "midi": 50,
          "time": 125.43094250000179,
          "velocity": 0.5511811023622047,
          "duration": 0.5086203166666792
        },
        {
          "name": "F#3",
          "midi": 54,
          "time": 125.43094250000179,
          "velocity": 0.5511811023622047,
          "duration": 0.5043099750000124
        },
        {
          "name": "B3",
          "midi": 59,
          "time": 125.43094250000179,
          "velocity": 0.5511811023622047,
          "duration": 0.3017239166666741
        },
        {
          "name": "B3",
          "midi": 59,
          "time": 125.43094250000179,
          "velocity": 0.7007874015748031,
          "duration": 0.5086203166666792
        },
        {
          "name": "D5",
          "midi": 74,
          "time": 125.6895630000018,
          "velocity": 0.7874015748031497,
          "duration": 0.25862050000000636
        },
        {
          "name": "D5",
          "midi": 74,
          "time": 125.6895630000018,
          "velocity": 0.7874015748031497,
          "duration": 0.5172410000000127
        },
        {
          "name": "D3",
          "midi": 50,
          "time": 125.6895630000018,
          "velocity": 0.7007874015748031,
          "duration": 0.25862050000000636
        },
        {
          "name": "G2",
          "midi": 43,
          "time": 125.6895630000018,
          "velocity": 0.5905511811023622,
          "duration": 0.49999963333334563
        },
        {
          "name": "D3",
          "midi": 50,
          "time": 125.6895630000018,
          "velocity": 0.5905511811023622,
          "duration": 0.49999963333334563
        },
        {
          "name": "G3",
          "midi": 55,
          "time": 125.6895630000018,
          "velocity": 0.5905511811023622,
          "duration": 0.49999963333334563
        },
        {
          "name": "E2",
          "midi": 40,
          "time": 125.6895630000018,
          "velocity": 0.8503937007874016,
          "duration": 0.04310341666666773
        },
        {
          "name": "F#2",
          "midi": 42,
          "time": 125.6895630000018,
          "velocity": 0.8740157480314961,
          "duration": 0.04310341666666773
        },
        {
          "name": "B3",
          "midi": 59,
          "time": 125.6895630000018,
          "velocity": 0.7007874015748031,
          "duration": 0.3017239166666741
        },
        {
          "name": "E5",
          "midi": 76,
          "time": 125.9481835000018,
          "velocity": 0.7874015748031497,
          "duration": 0.25862050000000636
        },
        {
          "name": "E5",
          "midi": 76,
          "time": 125.9481835000018,
          "velocity": 0.7874015748031497,
          "duration": 0.25862050000000636
        },
        {
          "name": "F#3",
          "midi": 54,
          "time": 125.9481835000018,
          "velocity": 0.7874015748031497,
          "duration": 0.24568947500000604
        },
        {
          "name": "B2",
          "midi": 47,
          "time": 125.9481835000018,
          "velocity": 0.7007874015748031,
          "duration": 0.25862050000000636
        },
        {
          "name": "D3",
          "midi": 50,
          "time": 125.9481835000018,
          "velocity": 0.5511811023622047,
          "duration": 0.24137913333333927
        },
        {
          "name": "F#3",
          "midi": 54,
          "time": 125.9481835000018,
          "velocity": 0.5511811023622047,
          "duration": 0.25862050000000636
        },
        {
          "name": "B3",
          "midi": 59,
          "time": 125.9481835000018,
          "velocity": 0.5511811023622047,
          "duration": 0.24137913333333927
        },
        {
          "name": "B3",
          "midi": 59,
          "time": 125.9481835000018,
          "velocity": 0.5511811023622047,
          "duration": 0.24568947500000604
        },
        {
          "name": "A4",
          "midi": 69,
          "time": 126.20680400000181,
          "velocity": 0.7874015748031497,
          "duration": 0.7672408166666855
        },
        {
          "name": "C#5",
          "midi": 73,
          "time": 126.20680400000181,
          "velocity": 0.7874015748031497,
          "duration": 0.5172410000000127
        },
        {
          "name": "E5",
          "midi": 76,
          "time": 126.20680400000181,
          "velocity": 0.7874015748031497,
          "duration": 2.0689640000000367
        },
        {
          "name": "B3",
          "midi": 59,
          "time": 126.20680400000181,
          "velocity": 0.7874015748031497,
          "duration": 0.04310341666666773
        },
        {
          "name": "A2",
          "midi": 45,
          "time": 126.20680400000181,
          "velocity": 0.8661417322834646,
          "duration": 0.5043099750000124
        },
        {
          "name": "C#4",
          "midi": 61,
          "time": 126.20680400000181,
          "velocity": 0.6299212598425197,
          "duration": 0.758620133333352
        },
        {
          "name": "E4",
          "midi": 64,
          "time": 126.20680400000181,
          "velocity": 0.6299212598425197,
          "duration": 0.7672408166666855
        },
        {
          "name": "A4",
          "midi": 69,
          "time": 126.20680400000181,
          "velocity": 0.6299212598425197,
          "duration": 2.0689640000000367
        },
        {
          "name": "A2",
          "midi": 45,
          "time": 126.20680400000181,
          "velocity": 0.6692913385826772,
          "duration": 0.7629304750000188
        },
        {
          "name": "E3",
          "midi": 52,
          "time": 126.20680400000181,
          "velocity": 0.6692913385826772,
          "duration": 0.5086203166666792
        },
        {
          "name": "A3",
          "midi": 57,
          "time": 126.20680400000181,
          "velocity": 0.6692913385826772,
          "duration": 0.49999963333334563
        },
        {
          "name": "E3",
          "midi": 52,
          "time": 126.20680400000181,
          "velocity": 0.5511811023622047,
          "duration": 0.7672408166666855
        },
        {
          "name": "A3",
          "midi": 57,
          "time": 126.20680400000181,
          "velocity": 0.5511811023622047,
          "duration": 0.7672408166666855
        },
        {
          "name": "C#4",
          "midi": 61,
          "time": 126.20680400000181,
          "velocity": 0.5511811023622047,
          "duration": 0.7672408166666855
        },
        {
          "name": "B1",
          "midi": 35,
          "time": 126.20680400000181,
          "velocity": 0.8740157480314961,
          "duration": 0.04310341666666773
        },
        {
          "name": "B3",
          "midi": 59,
          "time": 126.20680400000181,
          "velocity": 0.8661417322834646,
          "duration": 0.3017239166666741
        },
        {
          "name": "C#5",
          "midi": 73,
          "time": 126.46542450000182,
          "velocity": 0.7874015748031497,
          "duration": 0.25862050000000636
        },
        {
          "name": "C#5",
          "midi": 73,
          "time": 126.46542450000182,
          "velocity": 0.7874015748031497,
          "duration": 0.6465512500000159
        },
        {
          "name": "B3",
          "midi": 59,
          "time": 126.46542450000182,
          "velocity": 0.6929133858267716,
          "duration": 0.25862050000000636
        },
        {
          "name": "B4",
          "midi": 71,
          "time": 126.72404500000182,
          "velocity": 0.7874015748031497,
          "duration": 0.25862050000000636
        },
        {
          "name": "B4",
          "midi": 71,
          "time": 126.72404500000182,
          "velocity": 0.7874015748031497,
          "duration": 0.25862050000000636
        },
        {
          "name": "D4",
          "midi": 62,
          "time": 126.72404500000182,
          "velocity": 0.7874015748031497,
          "duration": 0.25862050000000636
        },
        {
          "name": "A2",
          "midi": 45,
          "time": 126.72404500000182,
          "velocity": 0.5905511811023622,
          "duration": 0.25862050000000636
        },
        {
          "name": "E3",
          "midi": 52,
          "time": 126.72404500000182,
          "velocity": 0.5905511811023622,
          "duration": 0.24999981666667281
        },
        {
          "name": "A3",
          "midi": 57,
          "time": 126.72404500000182,
          "velocity": 0.5905511811023622,
          "duration": 0.24999981666667281
        },
        {
          "name": "E2",
          "midi": 40,
          "time": 126.72404500000182,
          "velocity": 0.8582677165354331,
          "duration": 0.04310341666666773
        },
        {
          "name": "F#2",
          "midi": 42,
          "time": 126.72404500000182,
          "velocity": 0.8503937007874016,
          "duration": 0.04310341666666773
        },
        {
          "name": "B3",
          "midi": 59,
          "time": 126.72404500000182,
          "velocity": 0.7165354330708661,
          "duration": 0.04310341666666773
        },
        {
          "name": "C#5",
          "midi": 73,
          "time": 126.98266550000183,
          "velocity": 0.7874015748031497,
          "duration": 0.12931025000000318
        },
        {
          "name": "C#5",
          "midi": 73,
          "time": 126.98266550000183,
          "velocity": 0.7874015748031497,
          "duration": 1.2931025000000176
        },
        {
          "name": "C#4",
          "midi": 61,
          "time": 126.98266550000183,
          "velocity": 0.7874015748031497,
          "duration": 0.25862050000000636
        },
        {
          "name": "C#3",
          "midi": 49,
          "time": 126.98266550000183,
          "velocity": 0.8740157480314961,
          "duration": 0.5172410000000127
        },
        {
          "name": "A3",
          "midi": 57,
          "time": 126.98266550000183,
          "velocity": 0.5511811023622047,
          "duration": 0.5043099750000124
        },
        {
          "name": "C#4",
          "midi": 61,
          "time": 126.98266550000183,
          "velocity": 0.5511811023622047,
          "duration": 0.5086203166666792
        },
        {
          "name": "E4",
          "midi": 64,
          "time": 126.98266550000183,
          "velocity": 0.5511811023622047,
          "duration": 1.2801714750000173
        },
        {
          "name": "A2",
          "midi": 45,
          "time": 126.98266550000183,
          "velocity": 0.5905511811023622,
          "duration": 0.7629304750000188
        },
        {
          "name": "E3",
          "midi": 52,
          "time": 126.98266550000183,
          "velocity": 0.5905511811023622,
          "duration": 0.5043099750000124
        },
        {
          "name": "A3",
          "midi": 57,
          "time": 126.98266550000183,
          "velocity": 0.5905511811023622,
          "duration": 0.758620133333352
        },
        {
          "name": "E3",
          "midi": 52,
          "time": 126.98266550000183,
          "velocity": 0.6692913385826772,
          "duration": 0.7629304750000188
        },
        {
          "name": "A3",
          "midi": 57,
          "time": 126.98266550000183,
          "velocity": 0.6692913385826772,
          "duration": 0.7758615000000191
        },
        {
          "name": "C#4",
          "midi": 61,
          "time": 126.98266550000183,
          "velocity": 0.6692913385826772,
          "duration": 1.0172406333333583
        },
        {
          "name": "B1",
          "midi": 35,
          "time": 126.98266550000183,
          "velocity": 0.5511811023622047,
          "duration": 0.04310341666666773
        },
        {
          "name": "B3",
          "midi": 59,
          "time": 126.98266550000183,
          "velocity": 0.5669291338582677,
          "duration": 0.04310341666666773
        },
        {
          "name": "B4",
          "midi": 71,
          "time": 127.11197575000183,
          "velocity": 0.7874015748031497,
          "duration": 0.12931025000000318
        },
        {
          "name": "B4",
          "midi": 71,
          "time": 127.11197575000183,
          "velocity": 0.7874015748031497,
          "duration": 0.12931025000000318
        },
        {
          "name": "A4",
          "midi": 69,
          "time": 127.24128600000184,
          "velocity": 0.7874015748031497,
          "duration": 1.0344820000000112
        },
        {
          "name": "A4",
          "midi": 69,
          "time": 127.24128600000184,
          "velocity": 0.7874015748031497,
          "duration": 1.0344820000000112
        },
        {
          "name": "A3",
          "midi": 57,
          "time": 127.24128600000184,
          "velocity": 0.7874015748031497,
          "duration": 0.758620133333352
        },
        {
          "name": "B1",
          "midi": 35,
          "time": 127.24128600000184,
          "velocity": 0.8740157480314961,
          "duration": 0.04310341666666773
        },
        {
          "name": "B3",
          "midi": 59,
          "time": 127.24128600000184,
          "velocity": 0.8661417322834646,
          "duration": 0.04310341666666773
        },
        {
          "name": "E3",
          "midi": 52,
          "time": 127.49990650000184,
          "velocity": 0.7086614173228346,
          "duration": 0.24999981666667281
        },
        {
          "name": "E3",
          "midi": 52,
          "time": 127.49990650000184,
          "velocity": 0.5511811023622047,
          "duration": 0.5043099749999982
        },
        {
          "name": "A3",
          "midi": 57,
          "time": 127.49990650000184,
          "velocity": 0.5511811023622047,
          "duration": 0.7586201333333378
        },
        {
          "name": "C#4",
          "midi": 61,
          "time": 127.49990650000184,
          "velocity": 0.5511811023622047,
          "duration": 0.7586201333333378
        },
        {
          "name": "B3",
          "midi": 59,
          "time": 127.49990650000184,
          "velocity": 0.6929133858267716,
          "duration": 0.04310341666666773
        },
        {
          "name": "E2",
          "midi": 40,
          "time": 127.75852700000185,
          "velocity": 0.7007874015748031,
          "duration": 0.04310341666666773
        },
        {
          "name": "A2",
          "midi": 45,
          "time": 127.75852700000185,
          "velocity": 0.5905511811023622,
          "duration": 0.508620316666665
        },
        {
          "name": "E3",
          "midi": 52,
          "time": 127.75852700000185,
          "velocity": 0.5905511811023622,
          "duration": 0.5043099749999982
        },
        {
          "name": "A3",
          "midi": 57,
          "time": 127.75852700000185,
          "velocity": 0.5905511811023622,
          "duration": 0.5043099749999982
        },
        {
          "name": "E2",
          "midi": 40,
          "time": 127.75852700000185,
          "velocity": 0.8503937007874016,
          "duration": 0.25862049999999215
        },
        {
          "name": "A#2",
          "midi": 46,
          "time": 127.75852700000185,
          "velocity": 0.8661417322834646,
          "duration": 0.04310341666666773
        },
        {
          "name": "B3",
          "midi": 59,
          "time": 127.75852700000185,
          "velocity": 0.7165354330708661,
          "duration": 0.04310341666666773
        },
        {
          "name": "F#3",
          "midi": 54,
          "time": 128.01714750000184,
          "velocity": 0.7874015748031497,
          "duration": 0.25862050000000636
        },
        {
          "name": "F#2",
          "midi": 42,
          "time": 128.01714750000184,
          "velocity": 0.7086614173228346,
          "duration": 0.25862050000000636
        },
        {
          "name": "E3",
          "midi": 52,
          "time": 128.01714750000184,
          "velocity": 0.5511811023622047,
          "duration": 0.24999981666667281
        },
        {
          "name": "A3",
          "midi": 57,
          "time": 128.01714750000184,
          "velocity": 0.5511811023622047,
          "duration": 0.24999981666667281
        },
        {
          "name": "C#4",
          "midi": 61,
          "time": 128.01714750000184,
          "velocity": 0.5511811023622047,
          "duration": 0.24999981666667281
        },
        {
          "name": "B1",
          "midi": 35,
          "time": 128.01714750000184,
          "velocity": 0.5433070866141733,
          "duration": 0.04310341666666773
        },
        {
          "name": "B3",
          "midi": 59,
          "time": 128.01714750000184,
          "velocity": 0.5748031496062992,
          "duration": 0.04310341666666773
        },
        {
          "name": "A5",
          "midi": 81,
          "time": 128.27576800000185,
          "velocity": 0.7874015748031497,
          "duration": 2.068964000000051
        },
        {
          "name": "B4",
          "midi": 71,
          "time": 128.27576800000185,
          "velocity": 0.7874015748031497,
          "duration": 0.5172410000000127
        },
        {
          "name": "D5",
          "midi": 74,
          "time": 128.27576800000185,
          "velocity": 0.7874015748031497,
          "duration": 1.2931025000000318
        },
        {
          "name": "G5",
          "midi": 79,
          "time": 128.27576800000185,
          "velocity": 0.7874015748031497,
          "duration": 2.068964000000051
        },
        {
          "name": "B3",
          "midi": 59,
          "time": 128.27576800000185,
          "velocity": 0.7874015748031497,
          "duration": 0.04310341666666773
        },
        {
          "name": "G2",
          "midi": 43,
          "time": 128.27576800000185,
          "velocity": 0.8503937007874016,
          "duration": 0.5086203166666792
        },
        {
          "name": "F#3",
          "midi": 54,
          "time": 128.27576800000185,
          "velocity": 0.6299212598425197,
          "duration": 0.758620133333352
        },
        {
          "name": "B3",
          "midi": 59,
          "time": 128.27576800000185,
          "velocity": 0.6299212598425197,
          "duration": 0.3017239166666741
        },
        {
          "name": "D4",
          "midi": 62,
          "time": 128.27576800000185,
          "velocity": 0.6299212598425197,
          "duration": 0.758620133333352
        },
        {
          "name": "G2",
          "midi": 43,
          "time": 128.27576800000185,
          "velocity": 0.6692913385826772,
          "duration": 0.7758615000000191
        },
        {
          "name": "D3",
          "midi": 50,
          "time": 128.27576800000185,
          "velocity": 0.6692913385826772,
          "duration": 0.5086203166666792
        },
        {
          "name": "G3",
          "midi": 55,
          "time": 128.27576800000185,
          "velocity": 0.6692913385826772,
          "duration": 0.49999963333334563
        },
        {
          "name": "F#3",
          "midi": 54,
          "time": 128.27576800000185,
          "velocity": 0.5511811023622047,
          "duration": 0.7629304750000188
        },
        {
          "name": "B3",
          "midi": 59,
          "time": 128.27576800000185,
          "velocity": 0.5511811023622047,
          "duration": 0.5172410000000127
        },
        {
          "name": "D4",
          "midi": 62,
          "time": 128.27576800000185,
          "velocity": 0.5511811023622047,
          "duration": 0.7629304750000188
        },
        {
          "name": "B1",
          "midi": 35,
          "time": 128.27576800000185,
          "velocity": 0.8740157480314961,
          "duration": 0.04310341666666773
        },
        {
          "name": "B3",
          "midi": 59,
          "time": 128.27576800000185,
          "velocity": 0.8740157480314961,
          "duration": 0.5603444166666804
        },
        {
          "name": "B4",
          "midi": 71,
          "time": 128.53438850000185,
          "velocity": 0.7874015748031497,
          "duration": 0.25862050000000636
        },
        {
          "name": "B4",
          "midi": 71,
          "time": 128.53438850000185,
          "velocity": 0.7874015748031497,
          "duration": 0.5172410000000127
        },
        {
          "name": "B3",
          "midi": 59,
          "time": 128.53438850000185,
          "velocity": 0.6929133858267716,
          "duration": 0.49999963333334563
        },
        {
          "name": "B4",
          "midi": 71,
          "time": 128.79300900000186,
          "velocity": 0.7874015748031497,
          "duration": 0.25862050000000636
        },
        {
          "name": "B4",
          "midi": 71,
          "time": 128.79300900000186,
          "velocity": 0.7874015748031497,
          "duration": 1.0344820000000254
        },
        {
          "name": "D4",
          "midi": 62,
          "time": 128.79300900000186,
          "velocity": 0.7874015748031497,
          "duration": 0.25862050000000636
        },
        {
          "name": "G2",
          "midi": 43,
          "time": 128.79300900000186,
          "velocity": 0.5905511811023622,
          "duration": 1.5431023166667046
        },
        {
          "name": "D3",
          "midi": 50,
          "time": 128.79300900000186,
          "velocity": 0.5905511811023622,
          "duration": 1.0344820000000254
        },
        {
          "name": "G3",
          "midi": 55,
          "time": 128.79300900000186,
          "velocity": 0.5905511811023622,
          "duration": 1.534481633333371
        },
        {
          "name": "E2",
          "midi": 40,
          "time": 128.79300900000186,
          "velocity": 0.8503937007874016,
          "duration": 0.04310341666666773
        },
        {
          "name": "F#2",
          "midi": 42,
          "time": 128.79300900000186,
          "velocity": 0.8740157480314961,
          "duration": 0.04310341666666773
        },
        {
          "name": "B3",
          "midi": 59,
          "time": 128.79300900000186,
          "velocity": 0.7086614173228346,
          "duration": 0.24999981666667281
        },
        {
          "name": "C#5",
          "midi": 73,
          "time": 129.05162950000187,
          "velocity": 0.7874015748031497,
          "duration": 0.25862050000000636
        },
        {
          "name": "C#5",
          "midi": 73,
          "time": 129.05162950000187,
          "velocity": 0.7874015748031497,
          "duration": 0.25862050000000636
        },
        {
          "name": "C#4",
          "midi": 61,
          "time": 129.05162950000187,
          "velocity": 0.7874015748031497,
          "duration": 0.25862050000000636
        },
        {
          "name": "B2",
          "midi": 47,
          "time": 129.05162950000187,
          "velocity": 0.8740157480314961,
          "duration": 0.5172410000000127
        },
        {
          "name": "B3",
          "midi": 59,
          "time": 129.05162950000187,
          "velocity": 0.5511811023622047,
          "duration": 0.04310341666666773
        },
        {
          "name": "D4",
          "midi": 62,
          "time": 129.05162950000187,
          "velocity": 0.5511811023622047,
          "duration": 0.49999963333334563
        },
        {
          "name": "F#4",
          "midi": 66,
          "time": 129.05162950000187,
          "velocity": 0.5511811023622047,
          "duration": 1.2758611333333647
        },
        {
          "name": "F#3",
          "midi": 54,
          "time": 129.05162950000187,
          "velocity": 0.6692913385826772,
          "duration": 0.5086203166666792
        },
        {
          "name": "B3",
          "midi": 59,
          "time": 129.05162950000187,
          "velocity": 0.6692913385826772,
          "duration": 0.3017239166666741
        },
        {
          "name": "D4",
          "midi": 62,
          "time": 129.05162950000187,
          "velocity": 0.6692913385826772,
          "duration": 1.0172406333333583
        },
        {
          "name": "B1",
          "midi": 35,
          "time": 129.05162950000187,
          "velocity": 0.5275590551181102,
          "duration": 0.04310341666666773
        },
        {
          "name": "B3",
          "midi": 59,
          "time": 129.05162950000187,
          "velocity": 0.7007874015748031,
          "duration": 0.5043099750000124
        },
        {
          "name": "D5",
          "midi": 74,
          "time": 129.31025000000187,
          "velocity": 0.7874015748031497,
          "duration": 0.25862050000000636
        },
        {
          "name": "D5",
          "midi": 74,
          "time": 129.31025000000187,
          "velocity": 0.7874015748031497,
          "duration": 1.0344820000000254
        },
        {
          "name": "B3",
          "midi": 59,
          "time": 129.31025000000187,
          "velocity": 0.7874015748031497,
          "duration": 0.25862050000000636
        },
        {
          "name": "B1",
          "midi": 35,
          "time": 129.31025000000187,
          "velocity": 0.8582677165354331,
          "duration": 0.04310341666666773
        },
        {
          "name": "B3",
          "midi": 59,
          "time": 129.31025000000187,
          "velocity": 0.7086614173228346,
          "duration": 0.3017239166666741
        },
        {
          "name": "B4",
          "midi": 71,
          "time": 129.56887050000188,
          "velocity": 0.7874015748031497,
          "duration": 0.25862050000000636
        },
        {
          "name": "B4",
          "midi": 71,
          "time": 129.56887050000188,
          "velocity": 0.7874015748031497,
          "duration": 0.7758615000000191
        },
        {
          "name": "B3",
          "midi": 59,
          "time": 129.56887050000188,
          "velocity": 0.7874015748031497,
          "duration": 0.25862050000000636
        },
        {
          "name": "D3",
          "midi": 50,
          "time": 129.56887050000188,
          "velocity": 0.6929133858267716,
          "duration": 0.7629304750000188
        },
        {
          "name": "F#3",
          "midi": 54,
          "time": 129.56887050000188,
          "velocity": 0.5511811023622047,
          "duration": 0.5086203166666792
        },
        {
          "name": "B3",
          "midi": 59,
          "time": 129.56887050000188,
          "velocity": 0.5511811023622047,
          "duration": 0.3017239166666741
        },
        {
          "name": "D4",
          "midi": 62,
          "time": 129.56887050000188,
          "velocity": 0.5511811023622047,
          "duration": 0.7629304750000188
        },
        {
          "name": "B3",
          "midi": 59,
          "time": 129.56887050000188,
          "velocity": 0.7007874015748031,
          "duration": 0.5043099750000124
        },
        {
          "name": "A4",
          "midi": 69,
          "time": 129.82749100000188,
          "velocity": 0.7874015748031497,
          "duration": 0.5172410000000127
        },
        {
          "name": "A4",
          "midi": 69,
          "time": 129.82749100000188,
          "velocity": 0.7874015748031497,
          "duration": 0.5172410000000127
        },
        {
          "name": "E3",
          "midi": 52,
          "time": 129.82749100000188,
          "velocity": 0.8661417322834646,
          "duration": 0.25862050000000636
        },
        {
          "name": "E2",
          "midi": 40,
          "time": 129.82749100000188,
          "velocity": 0.8582677165354331,
          "duration": 0.04310341666666773
        },
        {
          "name": "F#2",
          "midi": 42,
          "time": 129.82749100000188,
          "velocity": 0.8740157480314961,
          "duration": 0.04310341666666773
        },
        {
          "name": "B3",
          "midi": 59,
          "time": 129.82749100000188,
          "velocity": 0.7007874015748031,
          "duration": 0.3017239166666741
        },
        {
          "name": "B3",
          "midi": 59,
          "time": 130.0861115000019,
          "velocity": 0.7874015748031497,
          "duration": 0.24568947500000604
        },
        {
          "name": "D3",
          "midi": 50,
          "time": 130.0861115000019,
          "velocity": 0.7086614173228346,
          "duration": 0.25862050000000636
        },
        {
          "name": "F#3",
          "midi": 54,
          "time": 130.0861115000019,
          "velocity": 0.5511811023622047,
          "duration": 0.24999981666667281
        },
        {
          "name": "B3",
          "midi": 59,
          "time": 130.0861115000019,
          "velocity": 0.5511811023622047,
          "duration": 0.24999981666667281
        },
        {
          "name": "D4",
          "midi": 62,
          "time": 130.0861115000019,
          "velocity": 0.5511811023622047,
          "duration": 0.24999981666667281
        },
        {
          "name": "B3",
          "midi": 59,
          "time": 130.0861115000019,
          "velocity": 0.5511811023622047,
          "duration": 0.25862050000000636
        },
        {
          "name": "E5",
          "midi": 76,
          "time": 130.3447320000019,
          "velocity": 0.7874015748031497,
          "duration": 0.25862050000000636
        },
        {
          "name": "E5",
          "midi": 76,
          "time": 130.3447320000019,
          "velocity": 0.7874015748031497,
          "duration": 0.25862050000000636
        },
        {
          "name": "A5",
          "midi": 81,
          "time": 130.3447320000019,
          "velocity": 0.7874015748031497,
          "duration": 0.25862050000000636
        },
        {
          "name": "E3",
          "midi": 52,
          "time": 130.3447320000019,
          "velocity": 0.7874015748031497,
          "duration": 0.5043099750000124
        },
        {
          "name": "E2",
          "midi": 40,
          "time": 130.3447320000019,
          "velocity": 0.8582677165354331,
          "duration": 0.5086203166666792
        },
        {
          "name": "G3",
          "midi": 55,
          "time": 130.3447320000019,
          "velocity": 0.6299212598425197,
          "duration": 0.758620133333352
        },
        {
          "name": "B3",
          "midi": 59,
          "time": 130.3447320000019,
          "velocity": 0.6299212598425197,
          "duration": 0.04310341666666773
        },
        {
          "name": "D4",
          "midi": 62,
          "time": 130.3447320000019,
          "velocity": 0.6299212598425197,
          "duration": 1.0172406333333583
        },
        {
          "name": "E2",
          "midi": 40,
          "time": 130.3447320000019,
          "velocity": 0.6692913385826772,
          "duration": 0.5603444166666804
        },
        {
          "name": "B2",
          "midi": 47,
          "time": 130.3447320000019,
          "velocity": 0.6692913385826772,
          "duration": 0.5086203166666792
        },
        {
          "name": "E3",
          "midi": 52,
          "time": 130.3447320000019,
          "velocity": 0.6692913385826772,
          "duration": 0.5172410000000127
        },
        {
          "name": "D3",
          "midi": 50,
          "time": 130.3447320000019,
          "velocity": 0.5511811023622047,
          "duration": 0.7672408166666855
        },
        {
          "name": "G3",
          "midi": 55,
          "time": 130.3447320000019,
          "velocity": 0.5511811023622047,
          "duration": 1.0172406333333583
        },
        {
          "name": "B3",
          "midi": 59,
          "time": 130.3447320000019,
          "velocity": 0.5511811023622047,
          "duration": 0.3017239166666741
        },
        {
          "name": "B1",
          "midi": 35,
          "time": 130.3447320000019,
          "velocity": 0.8661417322834646,
          "duration": 0.04310341666666773
        },
        {
          "name": "B3",
          "midi": 59,
          "time": 130.3447320000019,
          "velocity": 0.8661417322834646,
          "duration": 0.5603444166666804
        },
        {
          "name": "F#5",
          "midi": 78,
          "time": 130.58611113333524,
          "velocity": 0.7874015748031497,
          "duration": 0.5172410000000127
        },
        {
          "name": "E5",
          "midi": 76,
          "time": 130.6033525000019,
          "velocity": 0.7874015748031497,
          "duration": 0.25862050000000636
        },
        {
          "name": "E5",
          "midi": 76,
          "time": 130.6033525000019,
          "velocity": 0.7874015748031497,
          "duration": 0.25862050000000636
        },
        {
          "name": "B3",
          "midi": 59,
          "time": 130.6033525000019,
          "velocity": 0.6929133858267716,
          "duration": 0.49999963333334563
        },
        {
          "name": "E5",
          "midi": 76,
          "time": 130.8619730000019,
          "velocity": 0.7874015748031497,
          "duration": 0.25862050000000636
        },
        {
          "name": "E5",
          "midi": 76,
          "time": 130.8619730000019,
          "velocity": 0.7874015748031497,
          "duration": 0.25862050000000636
        },
        {
          "name": "E3",
          "midi": 52,
          "time": 130.8619730000019,
          "velocity": 0.7874015748031497,
          "duration": 0.24137913333333927
        },
        {
          "name": "E2",
          "midi": 40,
          "time": 130.8619730000019,
          "velocity": 0.5905511811023622,
          "duration": 0.24999981666667281
        },
        {
          "name": "B2",
          "midi": 47,
          "time": 130.8619730000019,
          "velocity": 0.5905511811023622,
          "duration": 0.24999981666667281
        },
        {
          "name": "E3",
          "midi": 52,
          "time": 130.8619730000019,
          "velocity": 0.5905511811023622,
          "duration": 0.5043099750000124
        },
        {
          "name": "E2",
          "midi": 40,
          "time": 130.8619730000019,
          "velocity": 0.8503937007874016,
          "duration": 0.25862050000000636
        },
        {
          "name": "F#2",
          "midi": 42,
          "time": 130.8619730000019,
          "velocity": 0.8503937007874016,
          "duration": 0.04310341666666773
        },
        {
          "name": "B3",
          "midi": 59,
          "time": 130.8619730000019,
          "velocity": 0.7165354330708661,
          "duration": 0.3017239166666741
        },
        {
          "name": "F#5",
          "midi": 78,
          "time": 131.12059350000192,
          "velocity": 0.7874015748031497,
          "duration": 0.25862050000000636
        },
        {
          "name": "F#5",
          "midi": 78,
          "time": 131.12059350000192,
          "velocity": 0.7874015748031497,
          "duration": 0.25862050000000636
        },
        {
          "name": "E5",
          "midi": 76,
          "time": 131.12059350000192,
          "velocity": 0.7874015748031497,
          "duration": 0.5172410000000127
        },
        {
          "name": "G2",
          "midi": 43,
          "time": 131.12059350000192,
          "velocity": 0.8740157480314961,
          "duration": 0.25862050000000636
        },
        {
          "name": "E2",
          "midi": 40,
          "time": 131.12059350000192,
          "velocity": 0.5905511811023622,
          "duration": 0.24999981666667281
        },
        {
          "name": "B2",
          "midi": 47,
          "time": 131.12059350000192,
          "velocity": 0.5905511811023622,
          "duration": 0.24137913333333927
        },
        {
          "name": "E3",
          "midi": 52,
          "time": 131.12059350000192,
          "velocity": 0.5905511811023622,
          "duration": 0.25862050000000636
        },
        {
          "name": "D3",
          "midi": 50,
          "time": 131.12059350000192,
          "velocity": 0.6692913385826772,
          "duration": 0.24137913333333927
        },
        {
          "name": "G3",
          "midi": 55,
          "time": 131.12059350000192,
          "velocity": 0.6692913385826772,
          "duration": 0.24568947500000604
        },
        {
          "name": "B3",
          "midi": 59,
          "time": 131.12059350000192,
          "velocity": 0.6692913385826772,
          "duration": 0.24568947500000604
        },
        {
          "name": "B3",
          "midi": 59,
          "time": 131.12059350000192,
          "velocity": 0.5669291338582677,
          "duration": 0.24568947500000604
        },
        {
          "name": "E5",
          "midi": 76,
          "time": 131.37921400000192,
          "velocity": 0.7874015748031497,
          "duration": 0.5172410000000127
        },
        {
          "name": "E5",
          "midi": 76,
          "time": 131.37921400000192,
          "velocity": 0.7874015748031497,
          "duration": 0.5172410000000127
        },
        {
          "name": "A3",
          "midi": 57,
          "time": 131.37921400000192,
          "velocity": 0.7874015748031497,
          "duration": 0.49999963333334563
        },
        {
          "name": "A2",
          "midi": 45,
          "time": 131.37921400000192,
          "velocity": 0.8661417322834646,
          "duration": 0.5043099750000124
        },
        {
          "name": "C#4",
          "midi": 61,
          "time": 131.37921400000192,
          "velocity": 0.6299212598425197,
          "duration": 0.758620133333352
        },
        {
          "name": "E4",
          "midi": 64,
          "time": 131.37921400000192,
          "velocity": 0.6299212598425197,
          "duration": 1.0172406333333583
        },
        {
          "name": "A4",
          "midi": 69,
          "time": 131.37921400000192,
          "velocity": 0.6299212598425197,
          "duration": 1.0215509750000251
        },
        {
          "name": "A2",
          "midi": 45,
          "time": 131.37921400000192,
          "velocity": 0.6692913385826772,
          "duration": 0.5172410000000127
        },
        {
          "name": "E3",
          "midi": 52,
          "time": 131.37921400000192,
          "velocity": 0.6692913385826772,
          "duration": 0.5043099750000124
        },
        {
          "name": "A3",
          "midi": 57,
          "time": 131.37921400000192,
          "velocity": 0.6692913385826772,
          "duration": 0.5172410000000127
        },
        {
          "name": "E3",
          "midi": 52,
          "time": 131.37921400000192,
          "velocity": 0.6692913385826772,
          "duration": 0.758620133333352
        },
        {
          "name": "A3",
          "midi": 57,
          "time": 131.37921400000192,
          "velocity": 0.6692913385826772,
          "duration": 0.758620133333352
        },
        {
          "name": "C#4",
          "midi": 61,
          "time": 131.37921400000192,
          "velocity": 0.6692913385826772,
          "duration": 1.0172406333333583
        },
        {
          "name": "B1",
          "midi": 35,
          "time": 131.37921400000192,
          "velocity": 0.8503937007874016,
          "duration": 0.04310341666666773
        },
        {
          "name": "B3",
          "midi": 59,
          "time": 131.37921400000192,
          "velocity": 0.8661417322834646,
          "duration": 0.04310341666666773
        },
        {
          "name": "D5",
          "midi": 74,
          "time": 131.63783450000193,
          "velocity": 0.7874015748031497,
          "duration": 0.5172410000000127
        },
        {
          "name": "B3",
          "midi": 59,
          "time": 131.63783450000193,
          "velocity": 0.6929133858267716,
          "duration": 0.04310341666666773
        },
        {
          "name": "E2",
          "midi": 40,
          "time": 131.76714475000193,
          "velocity": 0.5433070866141733,
          "duration": 0.04310341666666773
        },
        {
          "name": "A3",
          "midi": 57,
          "time": 131.89645500000194,
          "velocity": 0.7874015748031497,
          "duration": 0.5043099750000124
        },
        {
          "name": "F#3",
          "midi": 54,
          "time": 131.89645500000194,
          "velocity": 0.8740157480314961,
          "duration": 0.25862050000000636
        },
        {
          "name": "A2",
          "midi": 45,
          "time": 131.89645500000194,
          "velocity": 0.5905511811023622,
          "duration": 0.5086203166666792
        },
        {
          "name": "E3",
          "midi": 52,
          "time": 131.89645500000194,
          "velocity": 0.5905511811023622,
          "duration": 0.49999963333334563
        },
        {
          "name": "A3",
          "midi": 57,
          "time": 131.89645500000194,
          "velocity": 0.5905511811023622,
          "duration": 0.5086203166666792
        },
        {
          "name": "D3",
          "midi": 50,
          "time": 131.89645500000194,
          "velocity": 0.8582677165354331,
          "duration": 0.04310341666666773
        },
        {
          "name": "B4",
          "midi": 71,
          "time": 132.15507550000194,
          "velocity": 0.7874015748031497,
          "duration": 2.3275845000000572
        },
        {
          "name": "E3",
          "midi": 52,
          "time": 132.15507550000194,
          "velocity": 0.7165354330708661,
          "duration": 0.24568947500000604
        },
        {
          "name": "E3",
          "midi": 52,
          "time": 132.15507550000194,
          "velocity": 0.5511811023622047,
          "duration": 0.25862050000000636
        },
        {
          "name": "A3",
          "midi": 57,
          "time": 132.15507550000194,
          "velocity": 0.5511811023622047,
          "duration": 0.25862050000000636
        },
        {
          "name": "C#4",
          "midi": 61,
          "time": 132.15507550000194,
          "velocity": 0.5511811023622047,
          "duration": 0.24999981666667281
        },
        {
          "name": "B1",
          "midi": 35,
          "time": 132.15507550000194,
          "velocity": 0.7165354330708661,
          "duration": 0.04310341666666773
        },
        {
          "name": "C3",
          "midi": 48,
          "time": 132.28438575000195,
          "velocity": 0.5354330708661418,
          "duration": 0.04310341666666773
        },
        {
          "name": "A3",
          "midi": 57,
          "time": 132.40938565833528,
          "velocity": 0.8582677165354331,
          "duration": 0.004310341666666773
        },
        {
          "name": "D5",
          "midi": 74,
          "time": 132.41369600000195,
          "velocity": 0.7874015748031497,
          "duration": 1.2931025000000318
        },
        {
          "name": "D5",
          "midi": 74,
          "time": 132.41369600000195,
          "velocity": 0.7874015748031497,
          "duration": 1.2931025000000318
        },
        {
          "name": "G5",
          "midi": 79,
          "time": 132.41369600000195,
          "velocity": 0.7874015748031497,
          "duration": 2.068964000000051
        },
        {
          "name": "E5",
          "midi": 76,
          "time": 132.41369600000195,
          "velocity": 0.7874015748031497,
          "duration": 1.5517230000000382
        },
        {
          "name": "D5",
          "midi": 74,
          "time": 132.41369600000195,
          "velocity": 0.7874015748031497,
          "duration": 2.068964000000051
        },
        {
          "name": "B3",
          "midi": 59,
          "time": 132.41369600000195,
          "velocity": 0.7874015748031497,
          "duration": 0.04310341666666773
        },
        {
          "name": "G2",
          "midi": 43,
          "time": 132.41369600000195,
          "velocity": 0.8661417322834646,
          "duration": 0.5086203166666792
        },
        {
          "name": "B3",
          "midi": 59,
          "time": 132.41369600000195,
          "velocity": 0.6299212598425197,
          "duration": 0.3017239166666741
        },
        {
          "name": "D4",
          "midi": 62,
          "time": 132.41369600000195,
          "velocity": 0.6299212598425197,
          "duration": 0.7672408166666855
        },
        {
          "name": "E4",
          "midi": 64,
          "time": 132.41369600000195,
          "velocity": 0.6299212598425197,
          "duration": 0.7672408166666855
        },
        {
          "name": "G4",
          "midi": 67,
          "time": 132.41369600000195,
          "velocity": 0.6299212598425197,
          "duration": 0.758620133333352
        },
        {
          "name": "G2",
          "midi": 43,
          "time": 132.41369600000195,
          "velocity": 0.6692913385826772,
          "duration": 0.758620133333352
        },
        {
          "name": "D3",
          "midi": 50,
          "time": 132.41369600000195,
          "velocity": 0.6692913385826772,
          "duration": 0.49999963333334563
        },
        {
          "name": "G3",
          "midi": 55,
          "time": 132.41369600000195,
          "velocity": 0.6692913385826772,
          "duration": 0.5043099750000124
        },
        {
          "name": "E3",
          "midi": 52,
          "time": 132.41369600000195,
          "velocity": 0.5511811023622047,
          "duration": 0.7672408166666855
        },
        {
          "name": "G3",
          "midi": 55,
          "time": 132.41369600000195,
          "velocity": 0.5511811023622047,
          "duration": 0.7629304750000188
        },
        {
          "name": "B3",
          "midi": 59,
          "time": 132.41369600000195,
          "velocity": 0.5511811023622047,
          "duration": 0.5172410000000127
        },
        {
          "name": "D4",
          "midi": 62,
          "time": 132.41369600000195,
          "velocity": 0.5511811023622047,
          "duration": 0.7672408166666855
        },
        {
          "name": "B1",
          "midi": 35,
          "time": 132.41369600000195,
          "velocity": 0.8661417322834646,
          "duration": 0.04310341666666773
        },
        {
          "name": "B3",
          "midi": 59,
          "time": 132.41369600000195,
          "velocity": 0.8740157480314961,
          "duration": 0.5603444166666804
        },
        {
          "name": "B3",
          "midi": 59,
          "time": 132.67231650000195,
          "velocity": 0.6929133858267716,
          "duration": 0.49999963333334563
        },
        {
          "name": "D4",
          "midi": 62,
          "time": 132.93093700000196,
          "velocity": 0.7874015748031497,
          "duration": 0.25862050000000636
        },
        {
          "name": "G2",
          "midi": 43,
          "time": 132.93093700000196,
          "velocity": 0.5905511811023622,
          "duration": 0.25862050000000636
        },
        {
          "name": "D3",
          "midi": 50,
          "time": 132.93093700000196,
          "velocity": 0.5905511811023622,
          "duration": 0.24999981666667281
        },
        {
          "name": "G3",
          "midi": 55,
          "time": 132.93093700000196,
          "velocity": 0.5905511811023622,
          "duration": 0.24568947500000604
        },
        {
          "name": "E2",
          "midi": 40,
          "time": 132.93093700000196,
          "velocity": 0.8661417322834646,
          "duration": 0.04310341666666773
        },
        {
          "name": "F#2",
          "midi": 42,
          "time": 132.93093700000196,
          "velocity": 0.8740157480314961,
          "duration": 0.04310341666666773
        },
        {
          "name": "B3",
          "midi": 59,
          "time": 132.93093700000196,
          "velocity": 0.7086614173228346,
          "duration": 0.24568947500000604
        },
        {
          "name": "C#4",
          "midi": 61,
          "time": 133.18955750000197,
          "velocity": 0.7874015748031497,
          "duration": 0.25862050000000636
        },
        {
          "name": "B2",
          "midi": 47,
          "time": 133.18955750000197,
          "velocity": 0.8503937007874016,
          "duration": 0.5172410000000127
        },
        {
          "name": "B3",
          "midi": 59,
          "time": 133.18955750000197,
          "velocity": 0.5511811023622047,
          "duration": 0.04310341666666773
        },
        {
          "name": "D4",
          "midi": 62,
          "time": 133.18955750000197,
          "velocity": 0.5511811023622047,
          "duration": 0.49999963333334563
        },
        {
          "name": "E4",
          "midi": 64,
          "time": 133.18955750000197,
          "velocity": 0.5511811023622047,
          "duration": 1.2758611333333647
        },
        {
          "name": "G4",
          "midi": 67,
          "time": 133.18955750000197,
          "velocity": 0.5511811023622047,
          "duration": 1.2844818166666983
        },
        {
          "name": "G2",
          "midi": 43,
          "time": 133.18955750000197,
          "velocity": 0.5905511811023622,
          "duration": 0.758620133333352
        },
        {
          "name": "D3",
          "midi": 50,
          "time": 133.18955750000197,
          "velocity": 0.5905511811023622,
          "duration": 0.7629304750000188
        },
        {
          "name": "G3",
          "midi": 55,
          "time": 133.18955750000197,
          "velocity": 0.5905511811023622,
          "duration": 0.49999963333334563
        },
        {
          "name": "E3",
          "midi": 52,
          "time": 133.18955750000197,
          "velocity": 0.6692913385826772,
          "duration": 0.5086203166666792
        },
        {
          "name": "G3",
          "midi": 55,
          "time": 133.18955750000197,
          "velocity": 0.6692913385826772,
          "duration": 0.758620133333352
        },
        {
          "name": "B3",
          "midi": 59,
          "time": 133.18955750000197,
          "velocity": 0.6692913385826772,
          "duration": 0.3017239166666741
        },
        {
          "name": "D4",
          "midi": 62,
          "time": 133.18955750000197,
          "velocity": 0.6692913385826772,
          "duration": 1.0172406333333583
        },
        {
          "name": "B1",
          "midi": 35,
          "time": 133.18955750000197,
          "velocity": 0.5748031496062992,
          "duration": 0.04310341666666773
        },
        {
          "name": "B3",
          "midi": 59,
          "time": 133.18955750000197,
          "velocity": 0.7007874015748031,
          "duration": 0.49999963333334563
        },
        {
          "name": "B3",
          "midi": 59,
          "time": 133.44817800000197,
          "velocity": 0.7874015748031497,
          "duration": 0.25862050000000636
        },
        {
          "name": "B1",
          "midi": 35,
          "time": 133.44817800000197,
          "velocity": 0.8740157480314961,
          "duration": 0.04310341666666773
        },
        {
          "name": "B3",
          "midi": 59,
          "time": 133.44817800000197,
          "velocity": 0.7086614173228346,
          "duration": 0.3017239166666741
        },
        {
          "name": "E5",
          "midi": 76,
          "time": 133.70679850000198,
          "velocity": 0.7874015748031497,
          "duration": 0.25862050000000636
        },
        {
          "name": "E5",
          "midi": 76,
          "time": 133.70679850000198,
          "velocity": 0.7874015748031497,
          "duration": 0.7758615000000191
        },
        {
          "name": "B3",
          "midi": 59,
          "time": 133.70679850000198,
          "velocity": 0.7874015748031497,
          "duration": 0.25862050000000636
        },
        {
          "name": "D3",
          "midi": 50,
          "time": 133.70679850000198,
          "velocity": 0.7165354330708661,
          "duration": 0.24568947500000604
        },
        {
          "name": "E3",
          "midi": 52,
          "time": 133.70679850000198,
          "velocity": 0.5511811023622047,
          "duration": 0.5086203166666792
        },
        {
          "name": "G3",
          "midi": 55,
          "time": 133.70679850000198,
          "velocity": 0.5511811023622047,
          "duration": 0.5043099750000124
        },
        {
          "name": "B3",
          "midi": 59,
          "time": 133.70679850000198,
          "velocity": 0.5511811023622047,
          "duration": 0.3017239166666741
        },
        {
          "name": "D4",
          "midi": 62,
          "time": 133.70679850000198,
          "velocity": 0.5511811023622047,
          "duration": 0.7629304750000188
        },
        {
          "name": "B3",
          "midi": 59,
          "time": 133.70679850000198,
          "velocity": 0.7007874015748031,
          "duration": 0.5043099750000124
        },
        {
          "name": "F#5",
          "midi": 78,
          "time": 133.965419000002,
          "velocity": 0.7874015748031497,
          "duration": 0.25862050000000636
        },
        {
          "name": "F#5",
          "midi": 78,
          "time": 133.965419000002,
          "velocity": 0.7874015748031497,
          "duration": 0.25862050000000636
        },
        {
          "name": "E2",
          "midi": 40,
          "time": 133.965419000002,
          "velocity": 0.7086614173228346,
          "duration": 0.04310341666666773
        },
        {
          "name": "G2",
          "midi": 43,
          "time": 133.965419000002,
          "velocity": 0.5905511811023622,
          "duration": 0.5043099750000124
        },
        {
          "name": "D3",
          "midi": 50,
          "time": 133.965419000002,
          "velocity": 0.5905511811023622,
          "duration": 0.49999963333334563
        },
        {
          "name": "G3",
          "midi": 55,
          "time": 133.965419000002,
          "velocity": 0.5905511811023622,
          "duration": 0.49999963333334563
        },
        {
          "name": "E2",
          "midi": 40,
          "time": 133.965419000002,
          "velocity": 0.8740157480314961,
          "duration": 0.25862050000000636
        },
        {
          "name": "F#2",
          "midi": 42,
          "time": 133.965419000002,
          "velocity": 0.8740157480314961,
          "duration": 0.04310341666666773
        },
        {
          "name": "B3",
          "midi": 59,
          "time": 133.965419000002,
          "velocity": 0.7007874015748031,
          "duration": 0.3017239166666741
        },
        {
          "name": "D5",
          "midi": 74,
          "time": 134.224039500002,
          "velocity": 0.7874015748031497,
          "duration": 0.25862050000000636
        },
        {
          "name": "D5",
          "midi": 74,
          "time": 134.224039500002,
          "velocity": 0.7874015748031497,
          "duration": 0.25862050000000636
        },
        {
          "name": "F#3",
          "midi": 54,
          "time": 134.224039500002,
          "velocity": 0.7874015748031497,
          "duration": 0.25862050000000636
        },
        {
          "name": "G2",
          "midi": 43,
          "time": 134.224039500002,
          "velocity": 0.7165354330708661,
          "duration": 0.25862050000000636
        },
        {
          "name": "E3",
          "midi": 52,
          "time": 134.224039500002,
          "velocity": 0.5511811023622047,
          "duration": 0.24137913333333927
        },
        {
          "name": "G3",
          "midi": 55,
          "time": 134.224039500002,
          "velocity": 0.5511811023622047,
          "duration": 0.24137913333333927
        },
        {
          "name": "B3",
          "midi": 59,
          "time": 134.224039500002,
          "velocity": 0.5511811023622047,
          "duration": 0.24999981666667281
        },
        {
          "name": "D4",
          "midi": 62,
          "time": 134.224039500002,
          "velocity": 0.5511811023622047,
          "duration": 0.24999981666667281
        },
        {
          "name": "B1",
          "midi": 35,
          "time": 134.224039500002,
          "velocity": 0.5433070866141733,
          "duration": 0.04310341666666773
        },
        {
          "name": "B3",
          "midi": 59,
          "time": 134.224039500002,
          "velocity": 0.5511811023622047,
          "duration": 0.24999981666667281
        },
        {
          "name": "E5",
          "midi": 76,
          "time": 134.482660000002,
          "velocity": 0.7874015748031497,
          "duration": 0.25862050000000636
        },
        {
          "name": "E5",
          "midi": 76,
          "time": 134.482660000002,
          "velocity": 0.7874015748031497,
          "duration": 0.25862050000000636
        },
        {
          "name": "A5",
          "midi": 81,
          "time": 134.482660000002,
          "velocity": 0.7874015748031497,
          "duration": 2.068964000000051
        },
        {
          "name": "F#5",
          "midi": 78,
          "time": 134.482660000002,
          "velocity": 0.7874015748031497,
          "duration": 1.0344820000000254
        },
        {
          "name": "E5",
          "midi": 76,
          "time": 134.482660000002,
          "velocity": 0.7874015748031497,
          "duration": 0.5172410000000127
        },
        {
          "name": "C#5",
          "midi": 73,
          "time": 134.482660000002,
          "velocity": 0.7874015748031497,
          "duration": 2.068964000000051
        },
        {
          "name": "B3",
          "midi": 59,
          "time": 134.482660000002,
          "velocity": 0.7874015748031497,
          "duration": 0.04310341666666773
        },
        {
          "name": "A2",
          "midi": 45,
          "time": 134.482660000002,
          "velocity": 0.8582677165354331,
          "duration": 0.49999963333334563
        },
        {
          "name": "F#3",
          "midi": 54,
          "time": 134.482660000002,
          "velocity": 0.6299212598425197,
          "duration": 0.7629304750000188
        },
        {
          "name": "A3",
          "midi": 57,
          "time": 134.482660000002,
          "velocity": 0.6299212598425197,
          "duration": 0.5043099750000124
        },
        {
          "name": "C#4",
          "midi": 61,
          "time": 134.482660000002,
          "velocity": 0.6299212598425197,
          "duration": 0.758620133333352
        },
        {
          "name": "E4",
          "midi": 64,
          "time": 134.482660000002,
          "velocity": 0.6299212598425197,
          "duration": 2.0560329750000506
        },
        {
          "name": "A2",
          "midi": 45,
          "time": 134.482660000002,
          "velocity": 0.6692913385826772,
          "duration": 0.758620133333352
        },
        {
          "name": "E3",
          "midi": 52,
          "time": 134.482660000002,
          "velocity": 0.6692913385826772,
          "duration": 0.5086203166666792
        },
        {
          "name": "A3",
          "midi": 57,
          "time": 134.482660000002,
          "velocity": 0.6692913385826772,
          "duration": 0.758620133333352
        },
        {
          "name": "E3",
          "midi": 52,
          "time": 134.482660000002,
          "velocity": 0.5511811023622047,
          "duration": 0.7629304750000188
        },
        {
          "name": "F#3",
          "midi": 54,
          "time": 134.482660000002,
          "velocity": 0.5511811023622047,
          "duration": 1.2844818166666983
        },
        {
          "name": "A3",
          "midi": 57,
          "time": 134.482660000002,
          "velocity": 0.5511811023622047,
          "duration": 0.7672408166666855
        },
        {
          "name": "C#4",
          "midi": 61,
          "time": 134.482660000002,
          "velocity": 0.5511811023622047,
          "duration": 1.0344820000000254
        },
        {
          "name": "B1",
          "midi": 35,
          "time": 134.482660000002,
          "velocity": 0.8503937007874016,
          "duration": 0.04310341666666773
        },
        {
          "name": "B3",
          "midi": 59,
          "time": 134.482660000002,
          "velocity": 0.8661417322834646,
          "duration": 0.3017239166666741
        },
        {
          "name": "E5",
          "midi": 76,
          "time": 134.741280500002,
          "velocity": 0.7874015748031497,
          "duration": 0.25862050000000636
        },
        {
          "name": "E5",
          "midi": 76,
          "time": 134.741280500002,
          "velocity": 0.7874015748031497,
          "duration": 0.5172410000000127
        },
        {
          "name": "B3",
          "midi": 59,
          "time": 134.741280500002,
          "velocity": 0.6929133858267716,
          "duration": 0.25862050000000636
        },
        {
          "name": "E5",
          "midi": 76,
          "time": 134.999901000002,
          "velocity": 0.7874015748031497,
          "duration": 0.25862050000000636
        },
        {
          "name": "E5",
          "midi": 76,
          "time": 134.999901000002,
          "velocity": 0.7874015748031497,
          "duration": 1.0344820000000254
        },
        {
          "name": "D4",
          "midi": 62,
          "time": 134.999901000002,
          "velocity": 0.7874015748031497,
          "duration": 0.25862050000000636
        },
        {
          "name": "A2",
          "midi": 45,
          "time": 134.999901000002,
          "velocity": 0.5905511811023622,
          "duration": 0.25862050000000636
        },
        {
          "name": "E3",
          "midi": 52,
          "time": 134.999901000002,
          "velocity": 0.5905511811023622,
          "duration": 0.24999981666667281
        },
        {
          "name": "A3",
          "midi": 57,
          "time": 134.999901000002,
          "velocity": 0.5905511811023622,
          "duration": 0.7672408166666855
        },
        {
          "name": "E2",
          "midi": 40,
          "time": 134.999901000002,
          "velocity": 0.8740157480314961,
          "duration": 0.04310341666666773
        },
        {
          "name": "F#2",
          "midi": 42,
          "time": 134.999901000002,
          "velocity": 0.8503937007874016,
          "duration": 0.04310341666666773
        },
        {
          "name": "B3",
          "midi": 59,
          "time": 134.999901000002,
          "velocity": 0.7165354330708661,
          "duration": 0.04310341666666773
        },
        {
          "name": "F#5",
          "midi": 78,
          "time": 135.25852150000202,
          "velocity": 0.7874015748031497,
          "duration": 0.25862050000000636
        },
        {
          "name": "F#5",
          "midi": 78,
          "time": 135.25852150000202,
          "velocity": 0.7874015748031497,
          "duration": 1.2931025000000318
        },
        {
          "name": "C#4",
          "midi": 61,
          "time": 135.25852150000202,
          "velocity": 0.7874015748031497,
          "duration": 0.49999963333334563
        },
        {
          "name": "C#3",
          "midi": 49,
          "time": 135.25852150000202,
          "velocity": 0.8661417322834646,
          "duration": 0.5172410000000127
        },
        {
          "name": "A2",
          "midi": 45,
          "time": 135.25852150000202,
          "velocity": 0.5905511811023622,
          "duration": 0.7629304750000188
        },
        {
          "name": "E3",
          "midi": 52,
          "time": 135.25852150000202,
          "velocity": 0.5905511811023622,
          "duration": 0.5043099750000124
        },
        {
          "name": "A3",
          "midi": 57,
          "time": 135.25852150000202,
          "velocity": 0.5905511811023622,
          "duration": 0.7629304750000188
        },
        {
          "name": "E3",
          "midi": 52,
          "time": 135.25852150000202,
          "velocity": 0.6692913385826772,
          "duration": 0.7672408166666855
        },
        {
          "name": "F#3",
          "midi": 54,
          "time": 135.25852150000202,
          "velocity": 0.6692913385826772,
          "duration": 1.0215509750000251
        },
        {
          "name": "A3",
          "midi": 57,
          "time": 135.25852150000202,
          "velocity": 0.6692913385826772,
          "duration": 0.7758615000000191
        },
        {
          "name": "C#4",
          "midi": 61,
          "time": 135.25852150000202,
          "velocity": 0.6692913385826772,
          "duration": 1.025861316666692
        },
        {
          "name": "B1",
          "midi": 35,
          "time": 135.25852150000202,
          "velocity": 0.5354330708661418,
          "duration": 0.04310341666666773
        },
        {
          "name": "B3",
          "midi": 59,
          "time": 135.25852150000202,
          "velocity": 0.5669291338582677,
          "duration": 0.04310341666666773
        },
        {
          "name": "E5",
          "midi": 76,
          "time": 135.51714200000202,
          "velocity": 0.7874015748031497,
          "duration": 0.5172410000000127
        },
        {
          "name": "E5",
          "midi": 76,
          "time": 135.51714200000202,
          "velocity": 0.7874015748031497,
          "duration": 1.0344820000000254
        },
        {
          "name": "A3",
          "midi": 57,
          "time": 135.51714200000202,
          "velocity": 0.7874015748031497,
          "duration": 0.7672408166666855
        },
        {
          "name": "B1",
          "midi": 35,
          "time": 135.51714200000202,
          "velocity": 0.8740157480314961,
          "duration": 0.04310341666666773
        },
        {
          "name": "B3",
          "midi": 59,
          "time": 135.51714200000202,
          "velocity": 0.8661417322834646,
          "duration": 0.04310341666666773
        },
        {
          "name": "E3",
          "midi": 52,
          "time": 135.77576250000203,
          "velocity": 0.7007874015748031,
          "duration": 0.25862050000000636
        },
        {
          "name": "E3",
          "midi": 52,
          "time": 135.77576250000203,
          "velocity": 0.5511811023622047,
          "duration": 0.5043099750000124
        },
        {
          "name": "F#3",
          "midi": 54,
          "time": 135.77576250000203,
          "velocity": 0.5511811023622047,
          "duration": 0.5172410000000127
        },
        {
          "name": "A3",
          "midi": 57,
          "time": 135.77576250000203,
          "velocity": 0.5511811023622047,
          "duration": 0.758620133333352
        },
        {
          "name": "C#4",
          "midi": 61,
          "time": 135.77576250000203,
          "velocity": 0.5511811023622047,
          "duration": 0.758620133333352
        },
        {
          "name": "B3",
          "midi": 59,
          "time": 135.77576250000203,
          "velocity": 0.6929133858267716,
          "duration": 0.04310341666666773
        },
        {
          "name": "A4",
          "midi": 69,
          "time": 136.03438300000204,
          "velocity": 0.7874015748031497,
          "duration": 0.5172410000000127
        },
        {
          "name": "A4",
          "midi": 69,
          "time": 136.03438300000204,
          "velocity": 0.7874015748031497,
          "duration": 0.5172410000000127
        },
        {
          "name": "F#3",
          "midi": 54,
          "time": 136.03438300000204,
          "velocity": 0.8582677165354331,
          "duration": 0.5043099750000124
        },
        {
          "name": "A2",
          "midi": 45,
          "time": 136.03438300000204,
          "velocity": 0.5905511811023622,
          "duration": 0.49999963333334563
        },
        {
          "name": "E3",
          "midi": 52,
          "time": 136.03438300000204,
          "velocity": 0.5905511811023622,
          "duration": 0.49999963333334563
        },
        {
          "name": "A3",
          "midi": 57,
          "time": 136.03438300000204,
          "velocity": 0.5905511811023622,
          "duration": 0.49999963333334563
        },
        {
          "name": "E2",
          "midi": 40,
          "time": 136.03438300000204,
          "velocity": 0.8740157480314961,
          "duration": 0.04310341666666773
        },
        {
          "name": "F#2",
          "midi": 42,
          "time": 136.03438300000204,
          "velocity": 0.8582677165354331,
          "duration": 0.04310341666666773
        },
        {
          "name": "B3",
          "midi": 59,
          "time": 136.03438300000204,
          "velocity": 0.7165354330708661,
          "duration": 0.04310341666666773
        },
        {
          "name": "F#3",
          "midi": 54,
          "time": 136.29300350000204,
          "velocity": 0.7874015748031497,
          "duration": 0.24999981666667281
        },
        {
          "name": "E3",
          "midi": 52,
          "time": 136.29300350000204,
          "velocity": 0.6929133858267716,
          "duration": 0.24137913333333927
        },
        {
          "name": "E3",
          "midi": 52,
          "time": 136.29300350000204,
          "velocity": 0.5511811023622047,
          "duration": 0.25862050000000636
        },
        {
          "name": "F#3",
          "midi": 54,
          "time": 136.29300350000204,
          "velocity": 0.5511811023622047,
          "duration": 0.25862050000000636
        },
        {
          "name": "A3",
          "midi": 57,
          "time": 136.29300350000204,
          "velocity": 0.5511811023622047,
          "duration": 0.24568947500000604
        },
        {
          "name": "C#4",
          "midi": 61,
          "time": 136.29300350000204,
          "velocity": 0.5511811023622047,
          "duration": 0.24568947500000604
        },
        {
          "name": "B1",
          "midi": 35,
          "time": 136.29300350000204,
          "velocity": 0.5275590551181102,
          "duration": 0.04310341666666773
        },
        {
          "name": "B3",
          "midi": 59,
          "time": 136.29300350000204,
          "velocity": 0.5748031496062992,
          "duration": 0.04310341666666773
        },
        {
          "name": "D5",
          "midi": 74,
          "time": 136.55162400000205,
          "velocity": 0.7874015748031497,
          "duration": 1.8103435000000445
        },
        {
          "name": "G5",
          "midi": 79,
          "time": 136.55162400000205,
          "velocity": 0.7874015748031497,
          "duration": 2.068964000000051
        },
        {
          "name": "B5",
          "midi": 83,
          "time": 136.55162400000205,
          "velocity": 0.7874015748031497,
          "duration": 2.068964000000051
        },
        {
          "name": "B3",
          "midi": 59,
          "time": 136.55162400000205,
          "velocity": 0.7874015748031497,
          "duration": 0.04310341666666773
        },
        {
          "name": "G2",
          "midi": 43,
          "time": 136.55162400000205,
          "velocity": 0.8661417322834646,
          "duration": 0.5086203166666792
        },
        {
          "name": "B3",
          "midi": 59,
          "time": 136.55162400000205,
          "velocity": 0.6299212598425197,
          "duration": 0.3017239166666741
        },
        {
          "name": "D4",
          "midi": 62,
          "time": 136.55162400000205,
          "velocity": 0.6299212598425197,
          "duration": 0.758620133333352
        },
        {
          "name": "G4",
          "midi": 67,
          "time": 136.55162400000205,
          "velocity": 0.6299212598425197,
          "duration": 0.7672408166666855
        },
        {
          "name": "G2",
          "midi": 43,
          "time": 136.55162400000205,
          "velocity": 0.6692913385826772,
          "duration": 0.7672408166666855
        },
        {
          "name": "D3",
          "midi": 50,
          "time": 136.55162400000205,
          "velocity": 0.6692913385826772,
          "duration": 0.5086203166666792
        },
        {
          "name": "G3",
          "midi": 55,
          "time": 136.55162400000205,
          "velocity": 0.6692913385826772,
          "duration": 0.5086203166666792
        },
        {
          "name": "G3",
          "midi": 55,
          "time": 136.55162400000205,
          "velocity": 0.5511811023622047,
          "duration": 0.758620133333352
        },
        {
          "name": "B3",
          "midi": 59,
          "time": 136.55162400000205,
          "velocity": 0.5511811023622047,
          "duration": 0.5172410000000127
        },
        {
          "name": "D4",
          "midi": 62,
          "time": 136.55162400000205,
          "velocity": 0.5511811023622047,
          "duration": 0.758620133333352
        },
        {
          "name": "B1",
          "midi": 35,
          "time": 136.55162400000205,
          "velocity": 0.8740157480314961,
          "duration": 0.04310341666666773
        },
        {
          "name": "B3",
          "midi": 59,
          "time": 136.55162400000205,
          "velocity": 0.8740157480314961,
          "duration": 0.5603444166666804
        },
        {
          "name": "B3",
          "midi": 59,
          "time": 136.81024450000206,
          "velocity": 0.6929133858267716,
          "duration": 0.49999963333334563
        },
        {
          "name": "D4",
          "midi": 62,
          "time": 137.06886500000206,
          "velocity": 0.7874015748031497,
          "duration": 0.25862050000000636
        },
        {
          "name": "G2",
          "midi": 43,
          "time": 137.06886500000206,
          "velocity": 0.5905511811023622,
          "duration": 0.25862050000000636
        },
        {
          "name": "D3",
          "midi": 50,
          "time": 137.06886500000206,
          "velocity": 0.5905511811023622,
          "duration": 0.24137913333333927
        },
        {
          "name": "G3",
          "midi": 55,
          "time": 137.06886500000206,
          "velocity": 0.5905511811023622,
          "duration": 0.24999981666667281
        },
        {
          "name": "E2",
          "midi": 40,
          "time": 137.06886500000206,
          "velocity": 0.8740157480314961,
          "duration": 0.04310341666666773
        },
        {
          "name": "F#2",
          "midi": 42,
          "time": 137.06886500000206,
          "velocity": 0.8740157480314961,
          "duration": 0.04310341666666773
        },
        {
          "name": "B3",
          "midi": 59,
          "time": 137.06886500000206,
          "velocity": 0.7086614173228346,
          "duration": 0.24999981666667281
        },
        {
          "name": "A4",
          "midi": 69,
          "time": 137.32748550000207,
          "velocity": 0.7874015748031497,
          "duration": 0.25862050000000636
        },
        {
          "name": "A4",
          "midi": 69,
          "time": 137.32748550000207,
          "velocity": 0.7874015748031497,
          "duration": 0.25862050000000636
        },
        {
          "name": "C#4",
          "midi": 61,
          "time": 137.32748550000207,
          "velocity": 0.7874015748031497,
          "duration": 0.25862050000000636
        },
        {
          "name": "B2",
          "midi": 47,
          "time": 137.32748550000207,
          "velocity": 0.8503937007874016,
          "duration": 0.5172410000000127
        },
        {
          "name": "B3",
          "midi": 59,
          "time": 137.32748550000207,
          "velocity": 0.5511811023622047,
          "duration": 0.04310341666666773
        },
        {
          "name": "D4",
          "midi": 62,
          "time": 137.32748550000207,
          "velocity": 0.5511811023622047,
          "duration": 0.5086203166666792
        },
        {
          "name": "G4",
          "midi": 67,
          "time": 137.32748550000207,
          "velocity": 0.5511811023622047,
          "duration": 1.2844818166666983
        },
        {
          "name": "G2",
          "midi": 43,
          "time": 137.32748550000207,
          "velocity": 0.5905511811023622,
          "duration": 0.758620133333352
        },
        {
          "name": "D3",
          "midi": 50,
          "time": 137.32748550000207,
          "velocity": 0.5905511811023622,
          "duration": 0.758620133333352
        },
        {
          "name": "G3",
          "midi": 55,
          "time": 137.32748550000207,
          "velocity": 0.5905511811023622,
          "duration": 0.5043099750000124
        },
        {
          "name": "G3",
          "midi": 55,
          "time": 137.32748550000207,
          "velocity": 0.6692913385826772,
          "duration": 0.7672408166666855
        },
        {
          "name": "B3",
          "midi": 59,
          "time": 137.32748550000207,
          "velocity": 0.6692913385826772,
          "duration": 0.3017239166666741
        },
        {
          "name": "D4",
          "midi": 62,
          "time": 137.32748550000207,
          "velocity": 0.6692913385826772,
          "duration": 1.0215509750000251
        },
        {
          "name": "B3",
          "midi": 59,
          "time": 137.32748550000207,
          "velocity": 0.7007874015748031,
          "duration": 0.49999963333334563
        },
        {
          "name": "B4",
          "midi": 71,
          "time": 137.58610600000208,
          "velocity": 0.7874015748031497,
          "duration": 0.25862050000000636
        },
        {
          "name": "B4",
          "midi": 71,
          "time": 137.58610600000208,
          "velocity": 0.7874015748031497,
          "duration": 0.25862050000000636
        },
        {
          "name": "B3",
          "midi": 59,
          "time": 137.58610600000208,
          "velocity": 0.7874015748031497,
          "duration": 0.25862050000000636
        },
        {
          "name": "B1",
          "midi": 35,
          "time": 137.58610600000208,
          "velocity": 0.8740157480314961,
          "duration": 0.04310341666666773
        },
        {
          "name": "B3",
          "midi": 59,
          "time": 137.58610600000208,
          "velocity": 0.7086614173228346,
          "duration": 0.3017239166666741
        },
        {
          "name": "C#5",
          "midi": 73,
          "time": 137.84472650000208,
          "velocity": 0.7874015748031497,
          "duration": 0.25862050000000636
        },
        {
          "name": "C#5",
          "midi": 73,
          "time": 137.84472650000208,
          "velocity": 0.7874015748031497,
          "duration": 0.25862050000000636
        },
        {
          "name": "B3",
          "midi": 59,
          "time": 137.84472650000208,
          "velocity": 0.7874015748031497,
          "duration": 0.25862050000000636
        },
        {
          "name": "D3",
          "midi": 50,
          "time": 137.84472650000208,
          "velocity": 0.6929133858267716,
          "duration": 0.25862050000000636
        },
        {
          "name": "G3",
          "midi": 55,
          "time": 137.84472650000208,
          "velocity": 0.5511811023622047,
          "duration": 0.5086203166666792
        },
        {
          "name": "B3",
          "midi": 59,
          "time": 137.84472650000208,
          "velocity": 0.5511811023622047,
          "duration": 0.3017239166666741
        },
        {
          "name": "D4",
          "midi": 62,
          "time": 137.84472650000208,
          "velocity": 0.5511811023622047,
          "duration": 0.758620133333352
        },
        {
          "name": "B3",
          "midi": 59,
          "time": 137.84472650000208,
          "velocity": 0.7007874015748031,
          "duration": 0.49999963333334563
        },
        {
          "name": "D5",
          "midi": 74,
          "time": 138.1033470000021,
          "velocity": 0.7874015748031497,
          "duration": 0.25862050000000636
        },
        {
          "name": "D5",
          "midi": 74,
          "time": 138.1033470000021,
          "velocity": 0.7874015748031497,
          "duration": 0.5172410000000127
        },
        {
          "name": "E3",
          "midi": 52,
          "time": 138.1033470000021,
          "velocity": 0.8582677165354331,
          "duration": 0.25862050000000636
        },
        {
          "name": "G2",
          "midi": 43,
          "time": 138.1033470000021,
          "velocity": 0.5905511811023622,
          "duration": 0.5043099750000124
        },
        {
          "name": "D3",
          "midi": 50,
          "time": 138.1033470000021,
          "velocity": 0.5905511811023622,
          "duration": 0.49999963333334563
        },
        {
          "name": "G3",
          "midi": 55,
          "time": 138.1033470000021,
          "velocity": 0.5905511811023622,
          "duration": 0.49999963333334563
        },
        {
          "name": "E2",
          "midi": 40,
          "time": 138.1033470000021,
          "velocity": 0.8582677165354331,
          "duration": 0.04310341666666773
        },
        {
          "name": "F#2",
          "midi": 42,
          "time": 138.1033470000021,
          "velocity": 0.8740157480314961,
          "duration": 0.04310341666666773
        },
        {
          "name": "B3",
          "midi": 59,
          "time": 138.1033470000021,
          "velocity": 0.7007874015748031,
          "duration": 0.3017239166666741
        },
        {
          "name": "B4",
          "midi": 71,
          "time": 138.3619675000021,
          "velocity": 0.7874015748031497,
          "duration": 0.25862050000000636
        },
        {
          "name": "B4",
          "midi": 71,
          "time": 138.3619675000021,
          "velocity": 0.7874015748031497,
          "duration": 0.25862050000000636
        },
        {
          "name": "B3",
          "midi": 59,
          "time": 138.3619675000021,
          "velocity": 0.7874015748031497,
          "duration": 0.24137913333333927
        },
        {
          "name": "D3",
          "midi": 50,
          "time": 138.3619675000021,
          "velocity": 0.7165354330708661,
          "duration": 0.25862050000000636
        },
        {
          "name": "G3",
          "midi": 55,
          "time": 138.3619675000021,
          "velocity": 0.5511811023622047,
          "duration": 0.24137913333333927
        },
        {
          "name": "B3",
          "midi": 59,
          "time": 138.3619675000021,
          "velocity": 0.5511811023622047,
          "duration": 0.24137913333333927
        },
        {
          "name": "D4",
          "midi": 62,
          "time": 138.3619675000021,
          "velocity": 0.5511811023622047,
          "duration": 0.24999981666667281
        },
        {
          "name": "B1",
          "midi": 35,
          "time": 138.3619675000021,
          "velocity": 0.5275590551181102,
          "duration": 0.04310341666666773
        },
        {
          "name": "B3",
          "midi": 59,
          "time": 138.3619675000021,
          "velocity": 0.5511811023622047,
          "duration": 0.25862050000000636
        },
        {
          "name": "D5",
          "midi": 74,
          "time": 138.6205880000021,
          "velocity": 0.7874015748031497,
          "duration": 0.5172410000000127
        },
        {
          "name": "B5",
          "midi": 83,
          "time": 138.6205880000021,
          "velocity": 0.7874015748031497,
          "duration": 0.5172410000000127
        },
        {
          "name": "G5",
          "midi": 79,
          "time": 138.6205880000021,
          "velocity": 0.7874015748031497,
          "duration": 0.5172410000000127
        },
        {
          "name": "B3",
          "midi": 59,
          "time": 138.6205880000021,
          "velocity": 0.7874015748031497,
          "duration": 0.5172410000000127
        },
        {
          "name": "G2",
          "midi": 43,
          "time": 138.6205880000021,
          "velocity": 0.8661417322834646,
          "duration": 0.5043099750000124
        },
        {
          "name": "B3",
          "midi": 59,
          "time": 138.6205880000021,
          "velocity": 0.6299212598425197,
          "duration": 0.7672408166666855
        },
        {
          "name": "D4",
          "midi": 62,
          "time": 138.6205880000021,
          "velocity": 0.6299212598425197,
          "duration": 0.7629304750000188
        },
        {
          "name": "G4",
          "midi": 67,
          "time": 138.6205880000021,
          "velocity": 0.6299212598425197,
          "duration": 1.0215509750000251
        },
        {
          "name": "G2",
          "midi": 43,
          "time": 138.6205880000021,
          "velocity": 0.6692913385826772,
          "duration": 0.7629304750000188
        },
        {
          "name": "D3",
          "midi": 50,
          "time": 138.6205880000021,
          "velocity": 0.6692913385826772,
          "duration": 0.08620683333333545
        },
        {
          "name": "G3",
          "midi": 55,
          "time": 138.6205880000021,
          "velocity": 0.6692913385826772,
          "duration": 0.5086203166666792
        },
        {
          "name": "G3",
          "midi": 55,
          "time": 138.6205880000021,
          "velocity": 0.5511811023622047,
          "duration": 0.7629304750000188
        },
        {
          "name": "B3",
          "midi": 59,
          "time": 138.6205880000021,
          "velocity": 0.5511811023622047,
          "duration": 1.0215509750000251
        },
        {
          "name": "D4",
          "midi": 62,
          "time": 138.6205880000021,
          "velocity": 0.5511811023622047,
          "duration": 0.7758615000000191
        },
        {
          "name": "E2",
          "midi": 40,
          "time": 138.6205880000021,
          "velocity": 0.8503937007874016,
          "duration": 0.04310341666666773
        },
        {
          "name": "D3",
          "midi": 50,
          "time": 138.66369141666877,
          "velocity": 0.7007874015748031,
          "duration": 0.46551690000001145
        },
        {
          "name": "E5",
          "midi": 76,
          "time": 138.8792085000021,
          "velocity": 0.7874015748031497,
          "duration": 0.25862050000000636
        },
        {
          "name": "E5",
          "midi": 76,
          "time": 138.8792085000021,
          "velocity": 0.7874015748031497,
          "duration": 0.25862050000000636
        },
        {
          "name": "B1",
          "midi": 35,
          "time": 138.8792085000021,
          "velocity": 0.7007874015748031,
          "duration": 0.04310341666666773
        },
        {
          "name": "F#5",
          "midi": 78,
          "time": 139.1378290000021,
          "velocity": 0.7874015748031497,
          "duration": 0.25862050000000636
        },
        {
          "name": "F#5",
          "midi": 78,
          "time": 139.1378290000021,
          "velocity": 0.7874015748031497,
          "duration": 0.25862050000000636
        },
        {
          "name": "D5",
          "midi": 74,
          "time": 139.1378290000021,
          "velocity": 0.7874015748031497,
          "duration": 0.5172410000000127
        },
        {
          "name": "G5",
          "midi": 79,
          "time": 139.1378290000021,
          "velocity": 0.7874015748031497,
          "duration": 0.5172410000000127
        },
        {
          "name": "B5",
          "midi": 83,
          "time": 139.1378290000021,
          "velocity": 0.7874015748031497,
          "duration": 0.5172410000000127
        },
        {
          "name": "D4",
          "midi": 62,
          "time": 139.1378290000021,
          "velocity": 0.7874015748031497,
          "duration": 0.49999963333334563
        },
        {
          "name": "G2",
          "midi": 43,
          "time": 139.1378290000021,
          "velocity": 0.5905511811023622,
          "duration": 0.25862050000000636
        },
        {
          "name": "D3",
          "midi": 50,
          "time": 139.1378290000021,
          "velocity": 0.5905511811023622,
          "duration": 0.24568947500000604
        },
        {
          "name": "G3",
          "midi": 55,
          "time": 139.1378290000021,
          "velocity": 0.5905511811023622,
          "duration": 0.24999981666667281
        },
        {
          "name": "B1",
          "midi": 35,
          "time": 139.1378290000021,
          "velocity": 0.7007874015748031,
          "duration": 0.04310341666666773
        },
        {
          "name": "E5",
          "midi": 76,
          "time": 139.39644950000212,
          "velocity": 0.7874015748031497,
          "duration": 0.5172410000000127
        },
        {
          "name": "E5",
          "midi": 76,
          "time": 139.39644950000212,
          "velocity": 0.7874015748031497,
          "duration": 0.7758615000000191
        },
        {
          "name": "C#4",
          "midi": 61,
          "time": 139.39644950000212,
          "velocity": 0.7874015748031497,
          "duration": 0.25862050000000636
        },
        {
          "name": "B2",
          "midi": 47,
          "time": 139.39644950000212,
          "velocity": 0.8661417322834646,
          "duration": 0.25862050000000636
        },
        {
          "name": "G2",
          "midi": 43,
          "time": 139.39644950000212,
          "velocity": 0.5905511811023622,
          "duration": 0.24999981666667281
        },
        {
          "name": "D3",
          "midi": 50,
          "time": 139.39644950000212,
          "velocity": 0.5905511811023622,
          "duration": 0.04310341666666773
        },
        {
          "name": "G3",
          "midi": 55,
          "time": 139.39644950000212,
          "velocity": 0.5905511811023622,
          "duration": 0.24137913333333927
        },
        {
          "name": "G3",
          "midi": 55,
          "time": 139.39644950000212,
          "velocity": 0.6692913385826772,
          "duration": 0.24999981666667281
        },
        {
          "name": "B3",
          "midi": 59,
          "time": 139.39644950000212,
          "velocity": 0.6692913385826772,
          "duration": 0.24568947500000604
        },
        {
          "name": "D4",
          "midi": 62,
          "time": 139.39644950000212,
          "velocity": 0.6692913385826772,
          "duration": 0.24999981666667281
        },
        {
          "name": "D3",
          "midi": 50,
          "time": 139.39644950000212,
          "velocity": 0.8661417322834646,
          "duration": 0.24568947500000604
        },
        {
          "name": "C3",
          "midi": 48,
          "time": 139.4395529166688,
          "velocity": 0.7007874015748031,
          "duration": 0.04310341666666773
        },
        {
          "name": "C#5",
          "midi": 73,
          "time": 139.65507000000213,
          "velocity": 0.7874015748031497,
          "duration": 0.25862050000000636
        },
        {
          "name": "E5",
          "midi": 76,
          "time": 139.65507000000213,
          "velocity": 0.7874015748031497,
          "duration": 0.5172410000000127
        },
        {
          "name": "A5",
          "midi": 81,
          "time": 139.65507000000213,
          "velocity": 0.7874015748031497,
          "duration": 0.25862050000000636
        },
        {
          "name": "A3",
          "midi": 57,
          "time": 139.65507000000213,
          "velocity": 0.7874015748031497,
          "duration": 0.5043099750000124
        },
        {
          "name": "A2",
          "midi": 45,
          "time": 139.65507000000213,
          "velocity": 0.8661417322834646,
          "duration": 0.24568947500000604
        },
        {
          "name": "A3",
          "midi": 57,
          "time": 139.65507000000213,
          "velocity": 0.6299212598425197,
          "duration": 0.5172410000000127
        },
        {
          "name": "C#4",
          "midi": 61,
          "time": 139.65507000000213,
          "velocity": 0.6299212598425197,
          "duration": 0.758620133333352
        },
        {
          "name": "E4",
          "midi": 64,
          "time": 139.65507000000213,
          "velocity": 0.6299212598425197,
          "duration": 1.0215509750000251
        },
        {
          "name": "A2",
          "midi": 45,
          "time": 139.65507000000213,
          "velocity": 0.6692913385826772,
          "duration": 0.49999963333334563
        },
        {
          "name": "E3",
          "midi": 52,
          "time": 139.65507000000213,
          "velocity": 0.6692913385826772,
          "duration": 0.5086203166666792
        },
        {
          "name": "A3",
          "midi": 57,
          "time": 139.65507000000213,
          "velocity": 0.6692913385826772,
          "duration": 0.758620133333352
        },
        {
          "name": "E3",
          "midi": 52,
          "time": 139.65507000000213,
          "velocity": 0.6692913385826772,
          "duration": 0.7629304750000188
        },
        {
          "name": "A3",
          "midi": 57,
          "time": 139.65507000000213,
          "velocity": 0.6692913385826772,
          "duration": 1.0172406333333583
        },
        {
          "name": "C#4",
          "midi": 61,
          "time": 139.65507000000213,
          "velocity": 0.6692913385826772,
          "duration": 1.025861316666692
        },
        {
          "name": "B1",
          "midi": 35,
          "time": 139.65507000000213,
          "velocity": 0.7165354330708661,
          "duration": 0.04310341666666773
        },
        {
          "name": "A4",
          "midi": 69,
          "time": 139.91369050000213,
          "velocity": 0.7874015748031497,
          "duration": 0.12931025000000318
        },
        {
          "name": "B2",
          "midi": 47,
          "time": 139.91369050000213,
          "velocity": 0.6929133858267716,
          "duration": 0.25862050000000636
        },
        {
          "name": "B1",
          "midi": 35,
          "time": 139.91369050000213,
          "velocity": 0.7165354330708661,
          "duration": 0.04310341666666773
        },
        {
          "name": "A4",
          "midi": 69,
          "time": 140.04300075000214,
          "velocity": 0.7874015748031497,
          "duration": 0.12931025000000318
        },
        {
          "name": "A4",
          "midi": 69,
          "time": 140.17231100000214,
          "velocity": 0.7874015748031497,
          "duration": 0.12931025000000318
        },
        {
          "name": "A4",
          "midi": 69,
          "time": 140.17231100000214,
          "velocity": 0.7874015748031497,
          "duration": 0.12931025000000318
        },
        {
          "name": "B4",
          "midi": 71,
          "time": 140.17231100000214,
          "velocity": 0.7874015748031497,
          "duration": 0.12931025000000318
        },
        {
          "name": "A3",
          "midi": 57,
          "time": 140.17231100000214,
          "velocity": 0.7874015748031497,
          "duration": 0.49999963333334563
        },
        {
          "name": "A2",
          "midi": 45,
          "time": 140.17231100000214,
          "velocity": 0.6929133858267716,
          "duration": 0.25862050000000636
        },
        {
          "name": "A2",
          "midi": 45,
          "time": 140.17231100000214,
          "velocity": 0.5905511811023622,
          "duration": 0.49999963333334563
        },
        {
          "name": "E3",
          "midi": 52,
          "time": 140.17231100000214,
          "velocity": 0.5905511811023622,
          "duration": 0.5086203166666792
        },
        {
          "name": "A3",
          "midi": 57,
          "time": 140.17231100000214,
          "velocity": 0.5905511811023622,
          "duration": 0.49999963333334563
        },
        {
          "name": "C3",
          "midi": 48,
          "time": 140.17231100000214,
          "velocity": 0.8740157480314961,
          "duration": 0.04310341666666773
        },
        {
          "name": "B2",
          "midi": 47,
          "time": 140.2154144166688,
          "velocity": 0.7007874015748031,
          "duration": 0.04310341666666773
        },
        {
          "name": "B4",
          "midi": 71,
          "time": 140.30162125000214,
          "velocity": 0.7874015748031497,
          "duration": 0.12931025000000318
        },
        {
          "name": "B4",
          "midi": 71,
          "time": 140.30162125000214,
          "velocity": 0.7874015748031497,
          "duration": 0.12931025000000318
        },
        {
          "name": "D5",
          "midi": 74,
          "time": 140.30162125000214,
          "velocity": 0.7874015748031497,
          "duration": 0.12931025000000318
        },
        {
          "name": "D5",
          "midi": 74,
          "time": 140.43093150000215,
          "velocity": 0.7874015748031497,
          "duration": 0.12931025000000318
        },
        {
          "name": "D5",
          "midi": 74,
          "time": 140.43093150000215,
          "velocity": 0.7874015748031497,
          "duration": 0.12931025000000318
        },
        {
          "name": "D5",
          "midi": 74,
          "time": 140.43093150000215,
          "velocity": 0.7874015748031497,
          "duration": 0.12931025000000318
        },
        {
          "name": "F#2",
          "midi": 42,
          "time": 140.43093150000215,
          "velocity": 0.7086614173228346,
          "duration": 0.25862050000000636
        },
        {
          "name": "E3",
          "midi": 52,
          "time": 140.43093150000215,
          "velocity": 0.5511811023622047,
          "duration": 0.24999981666667281
        },
        {
          "name": "A3",
          "midi": 57,
          "time": 140.43093150000215,
          "velocity": 0.5511811023622047,
          "duration": 0.25862050000000636
        },
        {
          "name": "C#4",
          "midi": 61,
          "time": 140.43093150000215,
          "velocity": 0.5511811023622047,
          "duration": 0.24999981666667281
        },
        {
          "name": "B1",
          "midi": 35,
          "time": 140.43093150000215,
          "velocity": 0.6929133858267716,
          "duration": 0.04310341666666773
        },
        {
          "name": "B4",
          "midi": 71,
          "time": 140.56024175000215,
          "velocity": 0.7874015748031497,
          "duration": 0.12931025000000318
        },
        {
          "name": "B4",
          "midi": 71,
          "time": 140.56024175000215,
          "velocity": 0.7874015748031497,
          "duration": 0.12931025000000318
        },
        {
          "name": "B4",
          "midi": 71,
          "time": 140.56024175000215,
          "velocity": 0.7874015748031497,
          "duration": 0.12931025000000318
        },
        {
          "name": "A3",
          "midi": 57,
          "time": 140.68524165833549,
          "velocity": 0.8661417322834646,
          "duration": 0.004310341666666773
        },
        {
          "name": "F#5",
          "midi": 78,
          "time": 140.68955200000215,
          "velocity": 0.7874015748031497,
          "duration": 0.38793075000000954
        },
        {
          "name": "F#5",
          "midi": 78,
          "time": 140.68955200000215,
          "velocity": 0.7874015748031497,
          "duration": 0.38793075000000954
        },
        {
          "name": "G4",
          "midi": 67,
          "time": 140.68955200000215,
          "velocity": 0.7874015748031497,
          "duration": 0.7629304750000188
        },
        {
          "name": "B4",
          "midi": 71,
          "time": 140.68955200000215,
          "velocity": 0.7874015748031497,
          "duration": 0.7758615000000191
        },
        {
          "name": "D5",
          "midi": 74,
          "time": 140.68955200000215,
          "velocity": 0.7874015748031497,
          "duration": 0.7758615000000191
        },
        {
          "name": "F#5",
          "midi": 78,
          "time": 140.68955200000215,
          "velocity": 0.7874015748031497,
          "duration": 0.7758615000000191
        },
        {
          "name": "E3",
          "midi": 52,
          "time": 140.68955200000215,
          "velocity": 0.7874015748031497,
          "duration": 0.5086203166666792
        },
        {
          "name": "E2",
          "midi": 40,
          "time": 140.68955200000215,
          "velocity": 0.8582677165354331,
          "duration": 0.5043099750000124
        },
        {
          "name": "B3",
          "midi": 59,
          "time": 140.68955200000215,
          "velocity": 0.6299212598425197,
          "duration": 0.04310341666666773
        },
        {
          "name": "D4",
          "midi": 62,
          "time": 140.68955200000215,
          "velocity": 0.6299212598425197,
          "duration": 0.758620133333352
        },
        {
          "name": "F#4",
          "midi": 66,
          "time": 140.68955200000215,
          "velocity": 0.6299212598425197,
          "duration": 0.7629304750000188
        },
        {
          "name": "G4",
          "midi": 67,
          "time": 140.68955200000215,
          "velocity": 0.6299212598425197,
          "duration": 0.7758615000000191
        },
        {
          "name": "E2",
          "midi": 40,
          "time": 140.68955200000215,
          "velocity": 0.6692913385826772,
          "duration": 0.5603444166666804
        },
        {
          "name": "B2",
          "midi": 47,
          "time": 140.68955200000215,
          "velocity": 0.6692913385826772,
          "duration": 0.5043099750000124
        },
        {
          "name": "E3",
          "midi": 52,
          "time": 140.68955200000215,
          "velocity": 0.6692913385826772,
          "duration": 0.5172410000000127
        },
        {
          "name": "F#3",
          "midi": 54,
          "time": 140.68955200000215,
          "velocity": 0.5511811023622047,
          "duration": 0.758620133333352
        },
        {
          "name": "G3",
          "midi": 55,
          "time": 140.68955200000215,
          "velocity": 0.5511811023622047,
          "duration": 0.758620133333352
        },
        {
          "name": "B3",
          "midi": 59,
          "time": 140.68955200000215,
          "velocity": 0.5511811023622047,
          "duration": 0.3017239166666741
        },
        {
          "name": "D4",
          "midi": 62,
          "time": 140.68955200000215,
          "velocity": 0.5511811023622047,
          "duration": 0.7629304750000188
        },
        {
          "name": "B1",
          "midi": 35,
          "time": 140.68955200000215,
          "velocity": 0.8582677165354331,
          "duration": 0.04310341666666773
        },
        {
          "name": "B3",
          "midi": 59,
          "time": 140.68955200000215,
          "velocity": 0.8503937007874016,
          "duration": 0.5603444166666804
        },
        {
          "name": "B3",
          "midi": 59,
          "time": 140.94817250000216,
          "velocity": 0.6929133858267716,
          "duration": 0.5043099750000124
        },
        {
          "name": "F#5",
          "midi": 78,
          "time": 141.07748275000216,
          "velocity": 0.7874015748031497,
          "duration": 0.38793075000000954
        },
        {
          "name": "F#5",
          "midi": 78,
          "time": 141.07748275000216,
          "velocity": 0.7874015748031497,
          "duration": 0.38793075000000954
        },
        {
          "name": "E3",
          "midi": 52,
          "time": 141.20679300000216,
          "velocity": 0.7874015748031497,
          "duration": 0.24568947500000604
        },
        {
          "name": "E2",
          "midi": 40,
          "time": 141.20679300000216,
          "velocity": 0.5905511811023622,
          "duration": 0.24568947500000604
        },
        {
          "name": "B2",
          "midi": 47,
          "time": 141.20679300000216,
          "velocity": 0.5905511811023622,
          "duration": 0.24568947500000604
        },
        {
          "name": "E3",
          "midi": 52,
          "time": 141.20679300000216,
          "velocity": 0.5905511811023622,
          "duration": 0.5172410000000127
        },
        {
          "name": "E2",
          "midi": 40,
          "time": 141.20679300000216,
          "velocity": 0.8503937007874016,
          "duration": 0.25862050000000636
        },
        {
          "name": "F#2",
          "midi": 42,
          "time": 141.20679300000216,
          "velocity": 0.8503937007874016,
          "duration": 0.04310341666666773
        },
        {
          "name": "B3",
          "midi": 59,
          "time": 141.20679300000216,
          "velocity": 0.7007874015748031,
          "duration": 0.24999981666667281
        },
        {
          "name": "E5",
          "midi": 76,
          "time": 141.46541350000217,
          "velocity": 0.7874015748031497,
          "duration": 0.7758615000000191
        },
        {
          "name": "E5",
          "midi": 76,
          "time": 141.46541350000217,
          "velocity": 0.7874015748031497,
          "duration": 0.7758615000000191
        },
        {
          "name": "A4",
          "midi": 69,
          "time": 141.46541350000217,
          "velocity": 0.7874015748031497,
          "duration": 0.7758615000000191
        },
        {
          "name": "C#5",
          "midi": 73,
          "time": 141.46541350000217,
          "velocity": 0.7874015748031497,
          "duration": 0.7758615000000191
        },
        {
          "name": "E5",
          "midi": 76,
          "time": 141.46541350000217,
          "velocity": 0.7874015748031497,
          "duration": 0.7758615000000191
        },
        {
          "name": "A2",
          "midi": 45,
          "time": 141.46541350000217,
          "velocity": 0.8740157480314961,
          "duration": 0.5172410000000127
        },
        {
          "name": "C#4",
          "midi": 61,
          "time": 141.46541350000217,
          "velocity": 0.6299212598425197,
          "duration": 0.49999963333334563
        },
        {
          "name": "E4",
          "midi": 64,
          "time": 141.46541350000217,
          "velocity": 0.6299212598425197,
          "duration": 1.2844818166666983
        },
        {
          "name": "A4",
          "midi": 69,
          "time": 141.46541350000217,
          "velocity": 0.6299212598425197,
          "duration": 0.9051717500000223
        },
        {
          "name": "A2",
          "midi": 45,
          "time": 141.46541350000217,
          "velocity": 0.5905511811023622,
          "duration": 0.7672408166666855
        },
        {
          "name": "E3",
          "midi": 52,
          "time": 141.46541350000217,
          "velocity": 0.5905511811023622,
          "duration": 0.49999963333334563
        },
        {
          "name": "A3",
          "midi": 57,
          "time": 141.46541350000217,
          "velocity": 0.5905511811023622,
          "duration": 0.5086203166666792
        },
        {
          "name": "E3",
          "midi": 52,
          "time": 141.46541350000217,
          "velocity": 0.6692913385826772,
          "duration": 0.7629304750000188
        },
        {
          "name": "A3",
          "midi": 57,
          "time": 141.46541350000217,
          "velocity": 0.6692913385826772,
          "duration": 0.7629304750000188
        },
        {
          "name": "C#4",
          "midi": 61,
          "time": 141.46541350000217,
          "velocity": 0.6692913385826772,
          "duration": 1.025861316666692
        },
        {
          "name": "B1",
          "midi": 35,
          "time": 141.46541350000217,
          "velocity": 0.5748031496062992,
          "duration": 0.04310341666666773
        },
        {
          "name": "B3",
          "midi": 59,
          "time": 141.46541350000217,
          "velocity": 0.7165354330708661,
          "duration": 0.04310341666666773
        },
        {
          "name": "A3",
          "midi": 57,
          "time": 141.72403400000218,
          "velocity": 0.7874015748031497,
          "duration": 0.5172410000000127
        },
        {
          "name": "B1",
          "midi": 35,
          "time": 141.72403400000218,
          "velocity": 0.8582677165354331,
          "duration": 0.04310341666666773
        },
        {
          "name": "B3",
          "midi": 59,
          "time": 141.72403400000218,
          "velocity": 0.6929133858267716,
          "duration": 0.04310341666666773
        },
        {
          "name": "E3",
          "midi": 52,
          "time": 141.98265450000218,
          "velocity": 0.7007874015748031,
          "duration": 0.25862050000000636
        },
        {
          "name": "E3",
          "midi": 52,
          "time": 141.98265450000218,
          "velocity": 0.5511811023622047,
          "duration": 0.49999963333334563
        },
        {
          "name": "A3",
          "midi": 57,
          "time": 141.98265450000218,
          "velocity": 0.5511811023622047,
          "duration": 0.5086203166666792
        },
        {
          "name": "C#4",
          "midi": 61,
          "time": 141.98265450000218,
          "velocity": 0.5511811023622047,
          "duration": 0.7629304750000188
        },
        {
          "name": "B3",
          "midi": 59,
          "time": 141.98265450000218,
          "velocity": 0.7086614173228346,
          "duration": 0.04310341666666773
        },
        {
          "name": "A4",
          "midi": 69,
          "time": 142.2412750000022,
          "velocity": 0.7874015748031497,
          "duration": 0.12931025000000318
        },
        {
          "name": "A4",
          "midi": 69,
          "time": 142.2412750000022,
          "velocity": 0.7874015748031497,
          "duration": 0.49999963333334563
        },
        {
          "name": "A4",
          "midi": 69,
          "time": 142.2412750000022,
          "velocity": 0.7874015748031497,
          "duration": 0.5172410000000127
        },
        {
          "name": "A3",
          "midi": 57,
          "time": 142.2412750000022,
          "velocity": 0.7874015748031497,
          "duration": 0.49999963333334563
        },
        {
          "name": "F#3",
          "midi": 54,
          "time": 142.2412750000022,
          "velocity": 0.8582677165354331,
          "duration": 0.25862050000000636
        },
        {
          "name": "A2",
          "midi": 45,
          "time": 142.2412750000022,
          "velocity": 0.5905511811023622,
          "duration": 0.5043099750000124
        },
        {
          "name": "E3",
          "midi": 52,
          "time": 142.2412750000022,
          "velocity": 0.5905511811023622,
          "duration": 0.5043099750000124
        },
        {
          "name": "A3",
          "midi": 57,
          "time": 142.2412750000022,
          "velocity": 0.5905511811023622,
          "duration": 0.5043099750000124
        },
        {
          "name": "E2",
          "midi": 40,
          "time": 142.2412750000022,
          "velocity": 0.8582677165354331,
          "duration": 0.04310341666666773
        },
        {
          "name": "A#2",
          "midi": 46,
          "time": 142.2412750000022,
          "velocity": 0.8661417322834646,
          "duration": 0.04310341666666773
        },
        {
          "name": "B3",
          "midi": 59,
          "time": 142.2412750000022,
          "velocity": 0.6929133858267716,
          "duration": 0.04310341666666773
        },
        {
          "name": "B4",
          "midi": 71,
          "time": 142.3705852500022,
          "velocity": 0.7874015748031497,
          "duration": 0.12931025000000318
        },
        {
          "name": "B4",
          "midi": 71,
          "time": 142.3705852500022,
          "velocity": 0.7874015748031497,
          "duration": 0.12931025000000318
        },
        {
          "name": "C#5",
          "midi": 73,
          "time": 142.4998955000022,
          "velocity": 0.7874015748031497,
          "duration": 0.12931025000000318
        },
        {
          "name": "C#5",
          "midi": 73,
          "time": 142.4998955000022,
          "velocity": 0.7874015748031497,
          "duration": 0.12931025000000318
        },
        {
          "name": "E3",
          "midi": 52,
          "time": 142.4998955000022,
          "velocity": 0.6929133858267716,
          "duration": 0.24999981666667281
        },
        {
          "name": "E3",
          "midi": 52,
          "time": 142.4998955000022,
          "velocity": 0.5511811023622047,
          "duration": 0.25862050000000636
        },
        {
          "name": "A3",
          "midi": 57,
          "time": 142.4998955000022,
          "velocity": 0.5511811023622047,
          "duration": 0.25862050000000636
        },
        {
          "name": "C#4",
          "midi": 61,
          "time": 142.4998955000022,
          "velocity": 0.5511811023622047,
          "duration": 0.24999981666667281
        },
        {
          "name": "B3",
          "midi": 59,
          "time": 142.4998955000022,
          "velocity": 0.5748031496062992,
          "duration": 0.04310341666666773
        },
        {
          "name": "A4",
          "midi": 69,
          "time": 142.6292057500022,
          "velocity": 0.7874015748031497,
          "duration": 0.12931025000000318
        },
        {
          "name": "A4",
          "midi": 69,
          "time": 142.6292057500022,
          "velocity": 0.7874015748031497,
          "duration": 0.12931025000000318
        },
        {
          "name": "E5",
          "midi": 76,
          "time": 142.7585160000022,
          "velocity": 0.7874015748031497,
          "duration": 0.38793075000000954
        },
        {
          "name": "E5",
          "midi": 76,
          "time": 142.7585160000022,
          "velocity": 0.7874015748031497,
          "duration": 0.38793075000000954
        },
        {
          "name": "A4",
          "midi": 69,
          "time": 142.7585160000022,
          "velocity": 0.7874015748031497,
          "duration": 0.7758615000000191
        },
        {
          "name": "C#5",
          "midi": 73,
          "time": 142.7585160000022,
          "velocity": 0.7874015748031497,
          "duration": 0.7758615000000191
        },
        {
          "name": "E5",
          "midi": 76,
          "time": 142.7585160000022,
          "velocity": 0.7874015748031497,
          "duration": 0.7758615000000191
        },
        {
          "name": "F#3",
          "midi": 54,
          "time": 142.7585160000022,
          "velocity": 0.7874015748031497,
          "duration": 0.5043099750000124
        },
        {
          "name": "F#2",
          "midi": 42,
          "time": 142.7585160000022,
          "velocity": 0.8503937007874016,
          "duration": 0.5043099750000124
        },
        {
          "name": "A3",
          "midi": 57,
          "time": 142.7585160000022,
          "velocity": 0.6299212598425197,
          "duration": 0.758620133333352
        },
        {
          "name": "C#4",
          "midi": 61,
          "time": 142.7585160000022,
          "velocity": 0.6299212598425197,
          "duration": 0.758620133333352
        },
        {
          "name": "E4",
          "midi": 64,
          "time": 142.7585160000022,
          "velocity": 0.6299212598425197,
          "duration": 0.758620133333352
        },
        {
          "name": "F#2",
          "midi": 42,
          "time": 142.7585160000022,
          "velocity": 0.6692913385826772,
          "duration": 0.5603444166666804
        },
        {
          "name": "C#3",
          "midi": 49,
          "time": 142.7585160000022,
          "velocity": 0.6692913385826772,
          "duration": 0.5043099750000124
        },
        {
          "name": "F#3",
          "midi": 54,
          "time": 142.7585160000022,
          "velocity": 0.6692913385826772,
          "duration": 0.5172410000000127
        },
        {
          "name": "E3",
          "midi": 52,
          "time": 142.7585160000022,
          "velocity": 0.5511811023622047,
          "duration": 0.7672408166666855
        },
        {
          "name": "A3",
          "midi": 57,
          "time": 142.7585160000022,
          "velocity": 0.5511811023622047,
          "duration": 0.7629304750000188
        },
        {
          "name": "C#4",
          "midi": 61,
          "time": 142.7585160000022,
          "velocity": 0.5511811023622047,
          "duration": 0.7672408166666855
        },
        {
          "name": "B1",
          "midi": 35,
          "time": 142.7585160000022,
          "velocity": 0.8740157480314961,
          "duration": 0.04310341666666773
        },
        {
          "name": "B3",
          "midi": 59,
          "time": 142.7585160000022,
          "velocity": 0.8503937007874016,
          "duration": 0.04310341666666773
        },
        {
          "name": "B3",
          "midi": 59,
          "time": 143.0171365000022,
          "velocity": 0.7007874015748031,
          "duration": 0.04310341666666773
        },
        {
          "name": "E5",
          "midi": 76,
          "time": 143.1464467500022,
          "velocity": 0.7874015748031497,
          "duration": 0.38793075000000954
        },
        {
          "name": "E5",
          "midi": 76,
          "time": 143.1464467500022,
          "velocity": 0.7874015748031497,
          "duration": 0.38793075000000954
        },
        {
          "name": "F#3",
          "midi": 54,
          "time": 143.27575700000222,
          "velocity": 0.7874015748031497,
          "duration": 0.24137913333333927
        },
        {
          "name": "F#2",
          "midi": 42,
          "time": 143.27575700000222,
          "velocity": 0.5905511811023622,
          "duration": 0.24568947500000604
        },
        {
          "name": "C#3",
          "midi": 49,
          "time": 143.27575700000222,
          "velocity": 0.5905511811023622,
          "duration": 0.24137913333333927
        },
        {
          "name": "F#3",
          "midi": 54,
          "time": 143.27575700000222,
          "velocity": 0.5905511811023622,
          "duration": 0.5172410000000127
        },
        {
          "name": "E2",
          "midi": 40,
          "time": 143.27575700000222,
          "velocity": 0.8740157480314961,
          "duration": 0.04310341666666773
        },
        {
          "name": "F#2",
          "midi": 42,
          "time": 143.27575700000222,
          "velocity": 0.8582677165354331,
          "duration": 0.25862050000000636
        },
        {
          "name": "B3",
          "midi": 59,
          "time": 143.27575700000222,
          "velocity": 0.5433070866141733,
          "duration": 0.04310341666666773
        },
        {
          "name": "D5",
          "midi": 74,
          "time": 143.53437750000222,
          "velocity": 0.7874015748031497,
          "duration": 0.12931025000000318
        },
        {
          "name": "D5",
          "midi": 74,
          "time": 143.53437750000222,
          "velocity": 0.7874015748031497,
          "duration": 0.12931025000000318
        },
        {
          "name": "B4",
          "midi": 71,
          "time": 143.53437750000222,
          "velocity": 0.7874015748031497,
          "duration": 0.7758615000000191
        },
        {
          "name": "D5",
          "midi": 74,
          "time": 143.53437750000222,
          "velocity": 0.7874015748031497,
          "duration": 0.7758615000000191
        },
        {
          "name": "F#5",
          "midi": 78,
          "time": 143.53437750000222,
          "velocity": 0.7874015748031497,
          "duration": 0.7758615000000191
        },
        {
          "name": "B2",
          "midi": 47,
          "time": 143.53437750000222,
          "velocity": 0.8503937007874016,
          "duration": 0.24568947500000604
        },
        {
          "name": "D4",
          "midi": 62,
          "time": 143.53437750000222,
          "velocity": 0.6299212598425197,
          "duration": 1.2844818166666983
        },
        {
          "name": "F#4",
          "midi": 66,
          "time": 143.53437750000222,
          "velocity": 0.6299212598425197,
          "duration": 1.2758611333333647
        },
        {
          "name": "A4",
          "midi": 69,
          "time": 143.53437750000222,
          "velocity": 0.6299212598425197,
          "duration": 0.9051717500000223
        },
        {
          "name": "B2",
          "midi": 47,
          "time": 143.53437750000222,
          "velocity": 0.5905511811023622,
          "duration": 0.758620133333352
        },
        {
          "name": "F#3",
          "midi": 54,
          "time": 143.53437750000222,
          "velocity": 0.5905511811023622,
          "duration": 0.49999963333334563
        },
        {
          "name": "B3",
          "midi": 59,
          "time": 143.53437750000222,
          "velocity": 0.5905511811023622,
          "duration": 0.04310341666666773
        },
        {
          "name": "D3",
          "midi": 50,
          "time": 143.53437750000222,
          "velocity": 0.6692913385826772,
          "duration": 0.5086203166666792
        },
        {
          "name": "F#3",
          "midi": 54,
          "time": 143.53437750000222,
          "velocity": 0.6692913385826772,
          "duration": 0.7672408166666855
        },
        {
          "name": "A3",
          "midi": 57,
          "time": 143.53437750000222,
          "velocity": 0.6692913385826772,
          "duration": 0.5086203166666792
        },
        {
          "name": "B1",
          "midi": 35,
          "time": 143.53437750000222,
          "velocity": 0.5354330708661418,
          "duration": 0.04310341666666773
        },
        {
          "name": "B3",
          "midi": 59,
          "time": 143.53437750000222,
          "velocity": 0.8661417322834646,
          "duration": 0.3017239166666741
        },
        {
          "name": "C#5",
          "midi": 73,
          "time": 143.66368775000223,
          "velocity": 0.7874015748031497,
          "duration": 0.12931025000000318
        },
        {
          "name": "C#5",
          "midi": 73,
          "time": 143.66368775000223,
          "velocity": 0.7874015748031497,
          "duration": 0.12931025000000318
        },
        {
          "name": "B4",
          "midi": 71,
          "time": 143.79299800000223,
          "velocity": 0.7874015748031497,
          "duration": 0.5172410000000127
        },
        {
          "name": "B4",
          "midi": 71,
          "time": 143.79299800000223,
          "velocity": 0.7874015748031497,
          "duration": 0.5172410000000127
        },
        {
          "name": "B3",
          "midi": 59,
          "time": 143.79299800000223,
          "velocity": 0.7874015748031497,
          "duration": 0.3017239166666741
        },
        {
          "name": "A2",
          "midi": 45,
          "time": 143.79299800000223,
          "velocity": 0.6929133858267716,
          "duration": 0.25862050000000636
        },
        {
          "name": "B1",
          "midi": 35,
          "time": 143.79299800000223,
          "velocity": 0.8582677165354331,
          "duration": 0.04310341666666773
        },
        {
          "name": "B3",
          "midi": 59,
          "time": 143.79299800000223,
          "velocity": 0.7165354330708661,
          "duration": 0.5043099750000124
        },
        {
          "name": "B2",
          "midi": 47,
          "time": 144.05161850000223,
          "velocity": 0.7086614173228346,
          "duration": 0.25862050000000636
        },
        {
          "name": "D3",
          "midi": 50,
          "time": 144.05161850000223,
          "velocity": 0.5511811023622047,
          "duration": 0.5043099750000124
        },
        {
          "name": "F#3",
          "midi": 54,
          "time": 144.05161850000223,
          "velocity": 0.5511811023622047,
          "duration": 0.5043099750000124
        },
        {
          "name": "A3",
          "midi": 57,
          "time": 144.05161850000223,
          "velocity": 0.5511811023622047,
          "duration": 0.5043099750000124
        },
        {
          "name": "B3",
          "midi": 59,
          "time": 144.05161850000223,
          "velocity": 0.7086614173228346,
          "duration": 0.25862050000000636
        },
        {
          "name": "A4",
          "midi": 69,
          "time": 144.31023900000224,
          "velocity": 0.7874015748031497,
          "duration": 0.12931025000000318
        },
        {
          "name": "A4",
          "midi": 69,
          "time": 144.31023900000224,
          "velocity": 0.7874015748031497,
          "duration": 0.5086203166666792
        },
        {
          "name": "A5",
          "midi": 81,
          "time": 144.31023900000224,
          "velocity": 0.7874015748031497,
          "duration": 0.12931025000000318
        },
        {
          "name": "B3",
          "midi": 59,
          "time": 144.31023900000224,
          "velocity": 0.7874015748031497,
          "duration": 0.04310341666666773
        },
        {
          "name": "A2",
          "midi": 45,
          "time": 144.31023900000224,
          "velocity": 0.7165354330708661,
          "duration": 0.25862050000000636
        },
        {
          "name": "B2",
          "midi": 47,
          "time": 144.31023900000224,
          "velocity": 0.5905511811023622,
          "duration": 0.5086203166666792
        },
        {
          "name": "F#3",
          "midi": 54,
          "time": 144.31023900000224,
          "velocity": 0.5905511811023622,
          "duration": 0.49999963333334563
        },
        {
          "name": "B3",
          "midi": 59,
          "time": 144.31023900000224,
          "velocity": 0.5905511811023622,
          "duration": 0.3017239166666741
        },
        {
          "name": "E2",
          "midi": 40,
          "time": 144.31023900000224,
          "velocity": 0.8582677165354331,
          "duration": 0.04310341666666773
        },
        {
          "name": "F#2",
          "midi": 42,
          "time": 144.31023900000224,
          "velocity": 0.8503937007874016,
          "duration": 0.04310341666666773
        },
        {
          "name": "B3",
          "midi": 59,
          "time": 144.31023900000224,
          "velocity": 0.7007874015748031,
          "duration": 0.5043099750000124
        },
        {
          "name": "B4",
          "midi": 71,
          "time": 144.43954925000224,
          "velocity": 0.7874015748031497,
          "duration": 0.12931025000000318
        },
        {
          "name": "B4",
          "midi": 71,
          "time": 144.43954925000224,
          "velocity": 0.7874015748031497,
          "duration": 0.12931025000000318
        },
        {
          "name": "G5",
          "midi": 79,
          "time": 144.43954925000224,
          "velocity": 0.7874015748031497,
          "duration": 0.12931025000000318
        },
        {
          "name": "C#5",
          "midi": 73,
          "time": 144.56885950000225,
          "velocity": 0.7874015748031497,
          "duration": 0.12931025000000318
        },
        {
          "name": "C#5",
          "midi": 73,
          "time": 144.56885950000225,
          "velocity": 0.7874015748031497,
          "duration": 0.12931025000000318
        },
        {
          "name": "F#5",
          "midi": 78,
          "time": 144.56885950000225,
          "velocity": 0.7874015748031497,
          "duration": 0.12931025000000318
        },
        {
          "name": "F#2",
          "midi": 42,
          "time": 144.56885950000225,
          "velocity": 0.6929133858267716,
          "duration": 0.25862050000000636
        },
        {
          "name": "D3",
          "midi": 50,
          "time": 144.56885950000225,
          "velocity": 0.5511811023622047,
          "duration": 0.24137913333333927
        },
        {
          "name": "F#3",
          "midi": 54,
          "time": 144.56885950000225,
          "velocity": 0.5511811023622047,
          "duration": 0.24999981666667281
        },
        {
          "name": "A3",
          "midi": 57,
          "time": 144.56885950000225,
          "velocity": 0.5511811023622047,
          "duration": 0.24568947500000604
        },
        {
          "name": "B3",
          "midi": 59,
          "time": 144.56885950000225,
          "velocity": 0.5669291338582677,
          "duration": 0.25862050000000636
        },
        {
          "name": "A4",
          "midi": 69,
          "time": 144.69816975000225,
          "velocity": 0.7874015748031497,
          "duration": 0.12931025000000318
        },
        {
          "name": "A4",
          "midi": 69,
          "time": 144.69816975000225,
          "velocity": 0.7874015748031497,
          "duration": 0.12931025000000318
        },
        {
          "name": "E5",
          "midi": 76,
          "time": 144.69816975000225,
          "velocity": 0.7874015748031497,
          "duration": 0.12931025000000318
        },
        {
          "name": "D5",
          "midi": 74,
          "time": 144.82748000000225,
          "velocity": 0.7874015748031497,
          "duration": 0.5172410000000127
        },
        {
          "name": "D5",
          "midi": 74,
          "time": 144.82748000000225,
          "velocity": 0.7874015748031497,
          "duration": 0.5172410000000127
        },
        {
          "name": "G4",
          "midi": 67,
          "time": 144.82748000000225,
          "velocity": 0.7874015748031497,
          "duration": 0.7758615000000191
        },
        {
          "name": "B4",
          "midi": 71,
          "time": 144.82748000000225,
          "velocity": 0.7874015748031497,
          "duration": 0.7758615000000191
        },
        {
          "name": "D5",
          "midi": 74,
          "time": 144.82748000000225,
          "velocity": 0.7874015748031497,
          "duration": 0.7758615000000191
        },
        {
          "name": "F#5",
          "midi": 78,
          "time": 144.82748000000225,
          "velocity": 0.7874015748031497,
          "duration": 0.7758615000000191
        },
        {
          "name": "E3",
          "midi": 52,
          "time": 144.82748000000225,
          "velocity": 0.7874015748031497,
          "duration": 0.5043099750000124
        },
        {
          "name": "E2",
          "midi": 40,
          "time": 144.82748000000225,
          "velocity": 0.8661417322834646,
          "duration": 0.24568947500000604
        },
        {
          "name": "G3",
          "midi": 55,
          "time": 144.82748000000225,
          "velocity": 0.6299212598425197,
          "duration": 0.7672408166666855
        },
        {
          "name": "B3",
          "midi": 59,
          "time": 144.82748000000225,
          "velocity": 0.6299212598425197,
          "duration": 0.04310341666666773
        },
        {
          "name": "D4",
          "midi": 62,
          "time": 144.82748000000225,
          "velocity": 0.6299212598425197,
          "duration": 0.7672408166666855
        },
        {
          "name": "F#4",
          "midi": 66,
          "time": 144.82748000000225,
          "velocity": 0.6299212598425197,
          "duration": 0.7672408166666855
        },
        {
          "name": "E2",
          "midi": 40,
          "time": 144.82748000000225,
          "velocity": 0.6692913385826772,
          "duration": 0.5086203166666792
        },
        {
          "name": "B2",
          "midi": 47,
          "time": 144.82748000000225,
          "velocity": 0.6692913385826772,
          "duration": 0.5043099750000124
        },
        {
          "name": "E3",
          "midi": 52,
          "time": 144.82748000000225,
          "velocity": 0.6692913385826772,
          "duration": 0.5172410000000127
        },
        {
          "name": "D3",
          "midi": 50,
          "time": 144.82748000000225,
          "velocity": 0.5511811023622047,
          "duration": 0.7629304750000188
        },
        {
          "name": "F#3",
          "midi": 54,
          "time": 144.82748000000225,
          "velocity": 0.5511811023622047,
          "duration": 0.758620133333352
        },
        {
          "name": "G3",
          "midi": 55,
          "time": 144.82748000000225,
          "velocity": 0.5511811023622047,
          "duration": 0.7672408166666855
        },
        {
          "name": "B3",
          "midi": 59,
          "time": 144.82748000000225,
          "velocity": 0.5511811023622047,
          "duration": 0.3017239166666741
        },
        {
          "name": "B1",
          "midi": 35,
          "time": 144.82748000000225,
          "velocity": 0.8503937007874016,
          "duration": 0.04310341666666773
        },
        {
          "name": "B3",
          "midi": 59,
          "time": 144.82748000000225,
          "velocity": 0.8503937007874016,
          "duration": 0.5603444166666804
        },
        {
          "name": "F#2",
          "midi": 42,
          "time": 145.08610050000226,
          "velocity": 0.7007874015748031,
          "duration": 0.25862050000000636
        },
        {
          "name": "B3",
          "midi": 59,
          "time": 145.08610050000226,
          "velocity": 0.6929133858267716,
          "duration": 0.5043099750000124
        },
        {
          "name": "E5",
          "midi": 76,
          "time": 145.34472100000227,
          "velocity": 0.7874015748031497,
          "duration": 0.25862050000000636
        },
        {
          "name": "E5",
          "midi": 76,
          "time": 145.34472100000227,
          "velocity": 0.7874015748031497,
          "duration": 0.25862050000000636
        },
        {
          "name": "E3",
          "midi": 52,
          "time": 145.34472100000227,
          "velocity": 0.7874015748031497,
          "duration": 0.24568947500000604
        },
        {
          "name": "G2",
          "midi": 43,
          "time": 145.34472100000227,
          "velocity": 0.7086614173228346,
          "duration": 0.25862050000000636
        },
        {
          "name": "E2",
          "midi": 40,
          "time": 145.34472100000227,
          "velocity": 0.5905511811023622,
          "duration": 0.04310341666666773
        },
        {
          "name": "B2",
          "midi": 47,
          "time": 145.34472100000227,
          "velocity": 0.5905511811023622,
          "duration": 0.24137913333333927
        },
        {
          "name": "E3",
          "midi": 52,
          "time": 145.34472100000227,
          "velocity": 0.5905511811023622,
          "duration": 0.5172410000000127
        },
        {
          "name": "E2",
          "midi": 40,
          "time": 145.34472100000227,
          "velocity": 0.8503937007874016,
          "duration": 0.24137913333333927
        },
        {
          "name": "F#2",
          "midi": 42,
          "time": 145.34472100000227,
          "velocity": 0.8503937007874016,
          "duration": 0.04310341666666773
        },
        {
          "name": "B3",
          "midi": 59,
          "time": 145.34472100000227,
          "velocity": 0.7007874015748031,
          "duration": 0.24999981666667281
        },
        {
          "name": "C#5",
          "midi": 73,
          "time": 145.60334150000227,
          "velocity": 0.7874015748031497,
          "duration": 0.25862050000000636
        },
        {
          "name": "C#5",
          "midi": 73,
          "time": 145.60334150000227,
          "velocity": 0.7874015748031497,
          "duration": 0.25862050000000636
        },
        {
          "name": "A4",
          "midi": 69,
          "time": 145.60334150000227,
          "velocity": 0.7874015748031497,
          "duration": 0.7758615000000191
        },
        {
          "name": "C#5",
          "midi": 73,
          "time": 145.60334150000227,
          "velocity": 0.7874015748031497,
          "duration": 0.7758615000000191
        },
        {
          "name": "E5",
          "midi": 76,
          "time": 145.60334150000227,
          "velocity": 0.7874015748031497,
          "duration": 0.7758615000000191
        },
        {
          "name": "A2",
          "midi": 45,
          "time": 145.60334150000227,
          "velocity": 0.8661417322834646,
          "duration": 0.5172410000000127
        },
        {
          "name": "A3",
          "midi": 57,
          "time": 145.60334150000227,
          "velocity": 0.6299212598425197,
          "duration": 0.49999963333334563
        },
        {
          "name": "C#4",
          "midi": 61,
          "time": 145.60334150000227,
          "velocity": 0.6299212598425197,
          "duration": 0.49999963333334563
        },
        {
          "name": "E4",
          "midi": 64,
          "time": 145.60334150000227,
          "velocity": 0.6299212598425197,
          "duration": 1.2801714750000315
        },
        {
          "name": "A2",
          "midi": 45,
          "time": 145.60334150000227,
          "velocity": 0.6692913385826772,
          "duration": 1.2801714750000315
        },
        {
          "name": "E3",
          "midi": 52,
          "time": 145.60334150000227,
          "velocity": 0.6692913385826772,
          "duration": 0.5086203166666792
        },
        {
          "name": "A3",
          "midi": 57,
          "time": 145.60334150000227,
          "velocity": 0.6692913385826772,
          "duration": 0.7758615000000191
        },
        {
          "name": "E3",
          "midi": 52,
          "time": 145.60334150000227,
          "velocity": 0.6692913385826772,
          "duration": 0.7758615000000191
        },
        {
          "name": "A3",
          "midi": 57,
          "time": 145.60334150000227,
          "velocity": 0.6692913385826772,
          "duration": 1.0172406333333583
        },
        {
          "name": "C#4",
          "midi": 61,
          "time": 145.60334150000227,
          "velocity": 0.6692913385826772,
          "duration": 1.025861316666692
        },
        {
          "name": "B1",
          "midi": 35,
          "time": 145.60334150000227,
          "velocity": 0.5354330708661418,
          "duration": 0.04310341666666773
        },
        {
          "name": "B3",
          "midi": 59,
          "time": 145.60334150000227,
          "velocity": 0.7165354330708661,
          "duration": 0.04310341666666773
        },
        {
          "name": "B4",
          "midi": 71,
          "time": 145.86196200000228,
          "velocity": 0.7874015748031497,
          "duration": 0.25862050000000636
        },
        {
          "name": "B4",
          "midi": 71,
          "time": 145.86196200000228,
          "velocity": 0.7874015748031497,
          "duration": 0.25862050000000636
        },
        {
          "name": "A3",
          "midi": 57,
          "time": 145.86196200000228,
          "velocity": 0.7874015748031497,
          "duration": 1.0172406333333583
        },
        {
          "name": "B1",
          "midi": 35,
          "time": 145.86196200000228,
          "velocity": 0.8740157480314961,
          "duration": 0.04310341666666773
        },
        {
          "name": "B3",
          "midi": 59,
          "time": 145.86196200000228,
          "velocity": 0.6929133858267716,
          "duration": 0.04310341666666773
        },
        {
          "name": "A4",
          "midi": 69,
          "time": 146.12058250000229,
          "velocity": 0.7874015748031497,
          "duration": 0.25862050000000636
        },
        {
          "name": "A4",
          "midi": 69,
          "time": 146.12058250000229,
          "velocity": 0.7874015748031497,
          "duration": 0.25862050000000636
        },
        {
          "name": "E3",
          "midi": 52,
          "time": 146.12058250000229,
          "velocity": 0.6929133858267716,
          "duration": 0.5086203166666792
        },
        {
          "name": "E3",
          "midi": 52,
          "time": 146.12058250000229,
          "velocity": 0.5511811023622047,
          "duration": 0.758620133333352
        },
        {
          "name": "A3",
          "midi": 57,
          "time": 146.12058250000229,
          "velocity": 0.5511811023622047,
          "duration": 0.758620133333352
        },
        {
          "name": "C#4",
          "midi": 61,
          "time": 146.12058250000229,
          "velocity": 0.5511811023622047,
          "duration": 0.7629304750000188
        },
        {
          "name": "B3",
          "midi": 59,
          "time": 146.12058250000229,
          "velocity": 0.7086614173228346,
          "duration": 0.04310341666666773
        },
        {
          "name": "A4",
          "midi": 69,
          "time": 146.3792030000023,
          "velocity": 0.7874015748031497,
          "duration": 0.5172410000000127
        },
        {
          "name": "A3",
          "midi": 57,
          "time": 146.3792030000023,
          "velocity": 0.7874015748031497,
          "duration": 0.5086203166666792
        },
        {
          "name": "F#3",
          "midi": 54,
          "time": 146.3792030000023,
          "velocity": 0.8582677165354331,
          "duration": 0.25862050000000636
        },
        {
          "name": "E2",
          "midi": 40,
          "time": 146.3792030000023,
          "velocity": 0.8503937007874016,
          "duration": 0.04310341666666773
        },
        {
          "name": "A#2",
          "midi": 46,
          "time": 146.3792030000023,
          "velocity": 0.8661417322834646,
          "duration": 0.04310341666666773
        },
        {
          "name": "B3",
          "midi": 59,
          "time": 146.3792030000023,
          "velocity": 0.6929133858267716,
          "duration": 0.04310341666666773
        },
        {
          "name": "A4",
          "midi": 69,
          "time": 146.6378235000023,
          "velocity": 0.7795275590551181,
          "duration": 0.25862050000000636
        },
        {
          "name": "A4",
          "midi": 69,
          "time": 146.6378235000023,
          "velocity": 0.7795275590551181,
          "duration": 0.25862050000000636
        },
        {
          "name": "A3",
          "midi": 57,
          "time": 146.6378235000023,
          "velocity": 0.6929133858267716,
          "duration": 0.25862050000000636
        },
        {
          "name": "E3",
          "midi": 52,
          "time": 146.6378235000023,
          "velocity": 0.5511811023622047,
          "duration": 0.24999981666667281
        },
        {
          "name": "A3",
          "midi": 57,
          "time": 146.6378235000023,
          "velocity": 0.5511811023622047,
          "duration": 0.25862050000000636
        },
        {
          "name": "C#4",
          "midi": 61,
          "time": 146.6378235000023,
          "velocity": 0.5511811023622047,
          "duration": 0.24999981666667281
        },
        {
          "name": "B3",
          "midi": 59,
          "time": 146.6378235000023,
          "velocity": 0.5748031496062992,
          "duration": 0.04310341666666773
        },
        {
          "name": "E5",
          "midi": 76,
          "time": 146.8964440000023,
          "velocity": 0.7637795275590551,
          "duration": 0.5172410000000127
        },
        {
          "name": "E5",
          "midi": 76,
          "time": 146.8964440000023,
          "velocity": 0.7637795275590551,
          "duration": 0.5172410000000127
        },
        {
          "name": "A4",
          "midi": 69,
          "time": 146.8964440000023,
          "velocity": 0.7874015748031497,
          "duration": 0.7758615000000191
        },
        {
          "name": "C#5",
          "midi": 73,
          "time": 146.8964440000023,
          "velocity": 0.7874015748031497,
          "duration": 0.7758615000000191
        },
        {
          "name": "E5",
          "midi": 76,
          "time": 146.8964440000023,
          "velocity": 0.7874015748031497,
          "duration": 0.7758615000000191
        },
        {
          "name": "F#3",
          "midi": 54,
          "time": 146.8964440000023,
          "velocity": 0.7874015748031497,
          "duration": 0.49999963333334563
        },
        {
          "name": "F#2",
          "midi": 42,
          "time": 146.8964440000023,
          "velocity": 0.8582677165354331,
          "duration": 0.5086203166666792
        },
        {
          "name": "A3",
          "midi": 57,
          "time": 146.8964440000023,
          "velocity": 0.6141732283464567,
          "duration": 0.758620133333352
        },
        {
          "name": "C#4",
          "midi": 61,
          "time": 146.8964440000023,
          "velocity": 0.6141732283464567,
          "duration": 0.758620133333352
        },
        {
          "name": "E4",
          "midi": 64,
          "time": 146.8964440000023,
          "velocity": 0.6141732283464567,
          "duration": 0.758620133333352
        },
        {
          "name": "F#2",
          "midi": 42,
          "time": 146.8964440000023,
          "velocity": 0.6692913385826772,
          "duration": 0.5603444166666804
        },
        {
          "name": "C#3",
          "midi": 49,
          "time": 146.8964440000023,
          "velocity": 0.6692913385826772,
          "duration": 0.5086203166666792
        },
        {
          "name": "F#3",
          "midi": 54,
          "time": 146.8964440000023,
          "velocity": 0.6692913385826772,
          "duration": 0.5172410000000127
        },
        {
          "name": "E3",
          "midi": 52,
          "time": 146.8964440000023,
          "velocity": 0.5511811023622047,
          "duration": 0.758620133333352
        },
        {
          "name": "A3",
          "midi": 57,
          "time": 146.8964440000023,
          "velocity": 0.5511811023622047,
          "duration": 0.7629304750000188
        },
        {
          "name": "C#4",
          "midi": 61,
          "time": 146.8964440000023,
          "velocity": 0.5511811023622047,
          "duration": 0.758620133333352
        },
        {
          "name": "B1",
          "midi": 35,
          "time": 146.8964440000023,
          "velocity": 0.8346456692913385,
          "duration": 0.04310341666666773
        },
        {
          "name": "B3",
          "midi": 59,
          "time": 146.8964440000023,
          "velocity": 0.8346456692913385,
          "duration": 0.04310341666666773
        },
        {
          "name": "B3",
          "midi": 59,
          "time": 147.1550645000023,
          "velocity": 0.8188976377952756,
          "duration": 0.04310341666666773
        },
        {
          "name": "D5",
          "midi": 74,
          "time": 147.41368500000232,
          "velocity": 0.7165354330708661,
          "duration": 0.5172410000000127
        },
        {
          "name": "D5",
          "midi": 74,
          "time": 147.41368500000232,
          "velocity": 0.7165354330708661,
          "duration": 0.5172410000000127
        },
        {
          "name": "B3",
          "midi": 59,
          "time": 147.41368500000232,
          "velocity": 0.7322834645669292,
          "duration": 0.04310341666666773
        },
        {
          "name": "F#2",
          "midi": 42,
          "time": 147.41368500000232,
          "velocity": 0.6062992125984252,
          "duration": 0.24137913333333927
        },
        {
          "name": "C#3",
          "midi": 49,
          "time": 147.41368500000232,
          "velocity": 0.6062992125984252,
          "duration": 0.24568947500000604
        },
        {
          "name": "F#3",
          "midi": 54,
          "time": 147.41368500000232,
          "velocity": 0.6062992125984252,
          "duration": 0.24999981666667281
        },
        {
          "name": "E2",
          "midi": 40,
          "time": 147.41368500000232,
          "velocity": 0.7952755905511811,
          "duration": 0.04310341666666773
        },
        {
          "name": "F#2",
          "midi": 42,
          "time": 147.41368500000232,
          "velocity": 0.7952755905511811,
          "duration": 0.25862050000000636
        },
        {
          "name": "B3",
          "midi": 59,
          "time": 147.41368500000232,
          "velocity": 0.7952755905511811,
          "duration": 0.3017239166666741
        },
        {
          "name": "F#4",
          "midi": 66,
          "time": 147.67230550000232,
          "velocity": 0.7165354330708661,
          "duration": 0.5172410000000127
        },
        {
          "name": "A4",
          "midi": 69,
          "time": 147.67230550000232,
          "velocity": 0.7165354330708661,
          "duration": 0.5172410000000127
        },
        {
          "name": "D5",
          "midi": 74,
          "time": 147.67230550000232,
          "velocity": 0.7165354330708661,
          "duration": 0.5172410000000127
        },
        {
          "name": "A2",
          "midi": 45,
          "time": 147.67230550000232,
          "velocity": 0.7795275590551181,
          "duration": 0.5172410000000127
        },
        {
          "name": "D4",
          "midi": 62,
          "time": 147.67230550000232,
          "velocity": 0.5669291338582677,
          "duration": 0.49999963333334563
        },
        {
          "name": "F#4",
          "midi": 66,
          "time": 147.67230550000232,
          "velocity": 0.5669291338582677,
          "duration": 1.2844818166666983
        },
        {
          "name": "A4",
          "midi": 69,
          "time": 147.67230550000232,
          "velocity": 0.5669291338582677,
          "duration": 0.6465512500000159
        },
        {
          "name": "D3",
          "midi": 50,
          "time": 147.67230550000232,
          "velocity": 0.5905511811023622,
          "duration": 0.758620133333352
        },
        {
          "name": "A3",
          "midi": 57,
          "time": 147.67230550000232,
          "velocity": 0.5905511811023622,
          "duration": 0.49999963333334563
        },
        {
          "name": "D4",
          "midi": 62,
          "time": 147.67230550000232,
          "velocity": 0.5905511811023622,
          "duration": 0.758620133333352
        },
        {
          "name": "F#3",
          "midi": 54,
          "time": 147.67230550000232,
          "velocity": 0.5905511811023622,
          "duration": 0.5043099750000124
        },
        {
          "name": "A3",
          "midi": 57,
          "time": 147.67230550000232,
          "velocity": 0.5905511811023622,
          "duration": 0.7629304750000188
        },
        {
          "name": "D4",
          "midi": 62,
          "time": 147.67230550000232,
          "velocity": 0.5905511811023622,
          "duration": 1.0172406333333583
        },
        {
          "name": "B1",
          "midi": 35,
          "time": 147.67230550000232,
          "velocity": 0.7795275590551181,
          "duration": 0.04310341666666773
        },
        {
          "name": "B3",
          "midi": 59,
          "time": 147.67230550000232,
          "velocity": 0.7795275590551181,
          "duration": 0.25862050000000636
        },
        {
          "name": "A3",
          "midi": 57,
          "time": 147.93092600000233,
          "velocity": 0.6929133858267716,
          "duration": 0.5172410000000127
        },
        {
          "name": "B1",
          "midi": 35,
          "time": 147.93092600000233,
          "velocity": 0.7559055118110236,
          "duration": 0.04310341666666773
        },
        {
          "name": "E2",
          "midi": 40,
          "time": 147.93092600000233,
          "velocity": 0.7559055118110236,
          "duration": 0.04310341666666773
        },
        {
          "name": "E2",
          "midi": 40,
          "time": 148.06023625000233,
          "velocity": 0.7480314960629921,
          "duration": 0.04310341666666773
        },
        {
          "name": "A4",
          "midi": 69,
          "time": 148.18954650000234,
          "velocity": 0.6692913385826772,
          "duration": 0.25862050000000636
        },
        {
          "name": "E3",
          "midi": 52,
          "time": 148.18954650000234,
          "velocity": 0.7322834645669292,
          "duration": 0.25862050000000636
        },
        {
          "name": "F#3",
          "midi": 54,
          "time": 148.18954650000234,
          "velocity": 0.5511811023622047,
          "duration": 0.5043099750000124
        },
        {
          "name": "A3",
          "midi": 57,
          "time": 148.18954650000234,
          "velocity": 0.5511811023622047,
          "duration": 0.5043099750000124
        },
        {
          "name": "D4",
          "midi": 62,
          "time": 148.18954650000234,
          "velocity": 0.5511811023622047,
          "duration": 0.7629304750000188
        },
        {
          "name": "E2",
          "midi": 40,
          "time": 148.18954650000234,
          "velocity": 0.7322834645669292,
          "duration": 0.04310341666666773
        },
        {
          "name": "A4",
          "midi": 69,
          "time": 148.31885675000234,
          "velocity": 0.6614173228346457,
          "duration": 0.25862050000000636
        },
        {
          "name": "E2",
          "midi": 40,
          "time": 148.31885675000234,
          "velocity": 0.7244094488188977,
          "duration": 0.04310341666666773
        },
        {
          "name": "A4",
          "midi": 69,
          "time": 148.44816700000234,
          "velocity": 0.6299212598425197,
          "duration": 0.12931025000000318
        },
        {
          "name": "A4",
          "midi": 69,
          "time": 148.44816700000234,
          "velocity": 0.6299212598425197,
          "duration": 0.5086203166666792
        },
        {
          "name": "B4",
          "midi": 71,
          "time": 148.44816700000234,
          "velocity": 0.6456692913385826,
          "duration": 0.12931025000000318
        },
        {
          "name": "A3",
          "midi": 57,
          "time": 148.44816700000234,
          "velocity": 0.6535433070866141,
          "duration": 0.49999963333334563
        },
        {
          "name": "F#3",
          "midi": 54,
          "time": 148.44816700000234,
          "velocity": 0.7165354330708661,
          "duration": 0.25862050000000636
        },
        {
          "name": "D3",
          "midi": 50,
          "time": 148.44816700000234,
          "velocity": 0.5354330708661418,
          "duration": 0.5043099750000124
        },
        {
          "name": "A3",
          "midi": 57,
          "time": 148.44816700000234,
          "velocity": 0.5354330708661418,
          "duration": 0.5043099750000124
        },
        {
          "name": "D4",
          "midi": 62,
          "time": 148.44816700000234,
          "velocity": 0.5354330708661418,
          "duration": 0.5043099750000124
        },
        {
          "name": "E2",
          "midi": 40,
          "time": 148.44816700000234,
          "velocity": 0.7165354330708661,
          "duration": 0.04310341666666773
        },
        {
          "name": "B4",
          "midi": 71,
          "time": 148.57747725000235,
          "velocity": 0.6220472440944882,
          "duration": 0.12931025000000318
        },
        {
          "name": "B4",
          "midi": 71,
          "time": 148.57747725000235,
          "velocity": 0.6220472440944882,
          "duration": 0.12931025000000318
        },
        {
          "name": "D5",
          "midi": 74,
          "time": 148.57747725000235,
          "velocity": 0.6377952755905512,
          "duration": 0.12931025000000318
        },
        {
          "name": "D5",
          "midi": 74,
          "time": 148.70678750000235,
          "velocity": 0.6062992125984252,
          "duration": 0.12931025000000318
        },
        {
          "name": "D5",
          "midi": 74,
          "time": 148.70678750000235,
          "velocity": 0.6062992125984252,
          "duration": 0.12931025000000318
        },
        {
          "name": "B4",
          "midi": 71,
          "time": 148.70678750000235,
          "velocity": 0.6299212598425197,
          "duration": 0.12931025000000318
        },
        {
          "name": "A3",
          "midi": 57,
          "time": 148.70678750000235,
          "velocity": 0.6929133858267716,
          "duration": 0.25862050000000636
        },
        {
          "name": "F#3",
          "midi": 54,
          "time": 148.70678750000235,
          "velocity": 0.5196850393700787,
          "duration": 0.24999981666667281
        },
        {
          "name": "A3",
          "midi": 57,
          "time": 148.70678750000235,
          "velocity": 0.5196850393700787,
          "duration": 0.25862050000000636
        },
        {
          "name": "D4",
          "midi": 62,
          "time": 148.70678750000235,
          "velocity": 0.5196850393700787,
          "duration": 0.24999981666667281
        },
        {
          "name": "E2",
          "midi": 40,
          "time": 148.70678750000235,
          "velocity": 0.6929133858267716,
          "duration": 0.04310341666666773
        },
        {
          "name": "B4",
          "midi": 71,
          "time": 148.83609775000235,
          "velocity": 0.5984251968503937,
          "duration": 0.12931025000000318
        },
        {
          "name": "B4",
          "midi": 71,
          "time": 148.83609775000235,
          "velocity": 0.5984251968503937,
          "duration": 0.12931025000000318
        },
        {
          "name": "D5",
          "midi": 74,
          "time": 148.83609775000235,
          "velocity": 0.6141732283464567,
          "duration": 0.12931025000000318
        },
        {
          "name": "A3",
          "midi": 57,
          "time": 148.9610976583357,
          "velocity": 0.6771653543307087,
          "duration": 0.004310341666666773
        },
        {
          "name": "F#5",
          "midi": 78,
          "time": 148.96540800000236,
          "velocity": 0.5905511811023622,
          "duration": 0.38793075000000954
        },
        {
          "name": "F#5",
          "midi": 78,
          "time": 148.96540800000236,
          "velocity": 0.5905511811023622,
          "duration": 0.38793075000000954
        },
        {
          "name": "G4",
          "midi": 67,
          "time": 148.96540800000236,
          "velocity": 0.6062992125984252,
          "duration": 0.7758615000000191
        },
        {
          "name": "B4",
          "midi": 71,
          "time": 148.96540800000236,
          "velocity": 0.6062992125984252,
          "duration": 0.7758615000000191
        },
        {
          "name": "D5",
          "midi": 74,
          "time": 148.96540800000236,
          "velocity": 0.6062992125984252,
          "duration": 0.7758615000000191
        },
        {
          "name": "F#5",
          "midi": 78,
          "time": 148.96540800000236,
          "velocity": 0.6062992125984252,
          "duration": 0.7758615000000191
        },
        {
          "name": "E3",
          "midi": 52,
          "time": 148.96540800000236,
          "velocity": 0.6141732283464567,
          "duration": 0.49999963333334563
        },
        {
          "name": "E2",
          "midi": 40,
          "time": 148.96540800000236,
          "velocity": 0.6692913385826772,
          "duration": 0.24568947500000604
        },
        {
          "name": "F#3",
          "midi": 54,
          "time": 148.96540800000236,
          "velocity": 0.48031496062992124,
          "duration": 0.758620133333352
        },
        {
          "name": "G3",
          "midi": 55,
          "time": 148.96540800000236,
          "velocity": 0.48031496062992124,
          "duration": 0.758620133333352
        },
        {
          "name": "B3",
          "midi": 59,
          "time": 148.96540800000236,
          "velocity": 0.48031496062992124,
          "duration": 0.04310341666666773
        },
        {
          "name": "D4",
          "midi": 62,
          "time": 148.96540800000236,
          "velocity": 0.48031496062992124,
          "duration": 0.758620133333352
        },
        {
          "name": "E2",
          "midi": 40,
          "time": 148.96540800000236,
          "velocity": 0.5039370078740157,
          "duration": 0.5086203166666792
        },
        {
          "name": "B2",
          "midi": 47,
          "time": 148.96540800000236,
          "velocity": 0.5039370078740157,
          "duration": 0.49999963333334563
        },
        {
          "name": "E3",
          "midi": 52,
          "time": 148.96540800000236,
          "velocity": 0.5039370078740157,
          "duration": 0.5172410000000127
        },
        {
          "name": "D3",
          "midi": 50,
          "time": 148.96540800000236,
          "velocity": 0.5039370078740157,
          "duration": 0.7672408166666855
        },
        {
          "name": "F#3",
          "midi": 54,
          "time": 148.96540800000236,
          "velocity": 0.5039370078740157,
          "duration": 0.7629304750000188
        },
        {
          "name": "G3",
          "midi": 55,
          "time": 148.96540800000236,
          "velocity": 0.5039370078740157,
          "duration": 0.7672408166666855
        },
        {
          "name": "B3",
          "midi": 59,
          "time": 148.96540800000236,
          "velocity": 0.5039370078740157,
          "duration": 0.3017239166666741
        },
        {
          "name": "B1",
          "midi": 35,
          "time": 148.96540800000236,
          "velocity": 0.6771653543307087,
          "duration": 0.04310341666666773
        },
        {
          "name": "B3",
          "midi": 59,
          "time": 148.96540800000236,
          "velocity": 0.6771653543307087,
          "duration": 0.5603444166666804
        },
        {
          "name": "E2",
          "midi": 40,
          "time": 149.22402850000236,
          "velocity": 0.6535433070866141,
          "duration": 0.25862050000000636
        },
        {
          "name": "B3",
          "midi": 59,
          "time": 149.22402850000236,
          "velocity": 0.6535433070866141,
          "duration": 0.49999963333334563
        },
        {
          "name": "F#5",
          "midi": 78,
          "time": 149.35333875000237,
          "velocity": 0.5511811023622047,
          "duration": 0.38793075000000954
        },
        {
          "name": "F#5",
          "midi": 78,
          "time": 149.35333875000237,
          "velocity": 0.5511811023622047,
          "duration": 0.38793075000000954
        },
        {
          "name": "E3",
          "midi": 52,
          "time": 149.48264900000237,
          "velocity": 0.5826771653543307,
          "duration": 0.24999981666667281
        },
        {
          "name": "F#2",
          "midi": 42,
          "time": 149.48264900000237,
          "velocity": 0.6299212598425197,
          "duration": 0.04310341666666773
        },
        {
          "name": "E2",
          "midi": 40,
          "time": 149.48264900000237,
          "velocity": 0.47244094488188976,
          "duration": 0.04310341666666773
        },
        {
          "name": "B2",
          "midi": 47,
          "time": 149.48264900000237,
          "velocity": 0.47244094488188976,
          "duration": 0.24568947500000604
        },
        {
          "name": "E3",
          "midi": 52,
          "time": 149.48264900000237,
          "velocity": 0.47244094488188976,
          "duration": 0.5172410000000127
        },
        {
          "name": "E2",
          "midi": 40,
          "time": 149.48264900000237,
          "velocity": 0.6299212598425197,
          "duration": 0.24568947500000604
        },
        {
          "name": "F#2",
          "midi": 42,
          "time": 149.48264900000237,
          "velocity": 0.6299212598425197,
          "duration": 0.25862050000000636
        },
        {
          "name": "B3",
          "midi": 59,
          "time": 149.48264900000237,
          "velocity": 0.6299212598425197,
          "duration": 0.24999981666667281
        },
        {
          "name": "E5",
          "midi": 76,
          "time": 149.74126950000237,
          "velocity": 0.5196850393700787,
          "duration": 0.7758615000000191
        },
        {
          "name": "E5",
          "midi": 76,
          "time": 149.74126950000237,
          "velocity": 0.5196850393700787,
          "duration": 0.7758615000000191
        },
        {
          "name": "A4",
          "midi": 69,
          "time": 149.74126950000237,
          "velocity": 0.5433070866141733,
          "duration": 0.7758615000000191
        },
        {
          "name": "C#5",
          "midi": 73,
          "time": 149.74126950000237,
          "velocity": 0.5433070866141733,
          "duration": 0.7758615000000191
        },
        {
          "name": "E5",
          "midi": 76,
          "time": 149.74126950000237,
          "velocity": 0.5433070866141733,
          "duration": 0.7758615000000191
        },
        {
          "name": "A2",
          "midi": 45,
          "time": 149.74126950000237,
          "velocity": 0.6062992125984252,
          "duration": 0.5172410000000127
        },
        {
          "name": "C#4",
          "midi": 61,
          "time": 149.74126950000237,
          "velocity": 0.4330708661417323,
          "duration": 0.5043099750000124
        },
        {
          "name": "E4",
          "midi": 64,
          "time": 149.74126950000237,
          "velocity": 0.4330708661417323,
          "duration": 1.2801714750000315
        },
        {
          "name": "A4",
          "midi": 69,
          "time": 149.74126950000237,
          "velocity": 0.4330708661417323,
          "duration": 0.9051717500000223
        },
        {
          "name": "A2",
          "midi": 45,
          "time": 149.74126950000237,
          "velocity": 0.4566929133858268,
          "duration": 0.7672408166666855
        },
        {
          "name": "E3",
          "midi": 52,
          "time": 149.74126950000237,
          "velocity": 0.4566929133858268,
          "duration": 0.5043099750000124
        },
        {
          "name": "A3",
          "midi": 57,
          "time": 149.74126950000237,
          "velocity": 0.4566929133858268,
          "duration": 0.49999963333334563
        },
        {
          "name": "E3",
          "midi": 52,
          "time": 149.74126950000237,
          "velocity": 0.4566929133858268,
          "duration": 0.7672408166666855
        },
        {
          "name": "A3",
          "midi": 57,
          "time": 149.74126950000237,
          "velocity": 0.4566929133858268,
          "duration": 0.7629304750000188
        },
        {
          "name": "C#4",
          "midi": 61,
          "time": 149.74126950000237,
          "velocity": 0.4566929133858268,
          "duration": 1.0172406333333583
        },
        {
          "name": "B1",
          "midi": 35,
          "time": 149.74126950000237,
          "velocity": 0.6141732283464567,
          "duration": 0.04310341666666773
        },
        {
          "name": "B3",
          "midi": 59,
          "time": 149.74126950000237,
          "velocity": 0.6141732283464567,
          "duration": 0.04310341666666773
        },
        {
          "name": "A3",
          "midi": 57,
          "time": 149.99989000000238,
          "velocity": 0.5433070866141733,
          "duration": 0.5172410000000127
        },
        {
          "name": "B1",
          "midi": 35,
          "time": 149.99989000000238,
          "velocity": 0.5905511811023622,
          "duration": 0.04310341666666773
        },
        {
          "name": "B3",
          "midi": 59,
          "time": 149.99989000000238,
          "velocity": 0.5905511811023622,
          "duration": 0.04310341666666773
        },
        {
          "name": "E3",
          "midi": 52,
          "time": 150.2585105000024,
          "velocity": 0.5669291338582677,
          "duration": 0.25862050000000636
        },
        {
          "name": "E3",
          "midi": 52,
          "time": 150.2585105000024,
          "velocity": 0.4251968503937008,
          "duration": 0.5086203166666792
        },
        {
          "name": "A3",
          "midi": 57,
          "time": 150.2585105000024,
          "velocity": 0.4251968503937008,
          "duration": 0.5086203166666792
        },
        {
          "name": "C#4",
          "midi": 61,
          "time": 150.2585105000024,
          "velocity": 0.4251968503937008,
          "duration": 0.7629304750000188
        },
        {
          "name": "B3",
          "midi": 59,
          "time": 150.2585105000024,
          "velocity": 0.5748031496062992,
          "duration": 0.04310341666666773
        },
        {
          "name": "A4",
          "midi": 69,
          "time": 150.5171310000024,
          "velocity": 0.4566929133858268,
          "duration": 0.12931025000000318
        },
        {
          "name": "A4",
          "midi": 69,
          "time": 150.5171310000024,
          "velocity": 0.4566929133858268,
          "duration": 0.5086203166666792
        },
        {
          "name": "A4",
          "midi": 69,
          "time": 150.5171310000024,
          "velocity": 0.47244094488188976,
          "duration": 0.5172410000000127
        },
        {
          "name": "A3",
          "midi": 57,
          "time": 150.5171310000024,
          "velocity": 0.5039370078740157,
          "duration": 0.49999963333334563
        },
        {
          "name": "F#3",
          "midi": 54,
          "time": 150.5171310000024,
          "velocity": 0.5433070866141733,
          "duration": 0.25862050000000636
        },
        {
          "name": "A2",
          "midi": 45,
          "time": 150.5171310000024,
          "velocity": 0.4094488188976378,
          "duration": 0.5043099750000124
        },
        {
          "name": "E3",
          "midi": 52,
          "time": 150.5171310000024,
          "velocity": 0.4094488188976378,
          "duration": 0.49999963333334563
        },
        {
          "name": "A3",
          "midi": 57,
          "time": 150.5171310000024,
          "velocity": 0.4094488188976378,
          "duration": 0.5086203166666792
        },
        {
          "name": "E2",
          "midi": 40,
          "time": 150.5171310000024,
          "velocity": 0.5511811023622047,
          "duration": 0.04310341666666773
        },
        {
          "name": "F#2",
          "midi": 42,
          "time": 150.5171310000024,
          "velocity": 0.5511811023622047,
          "duration": 0.04310341666666773
        },
        {
          "name": "B3",
          "midi": 59,
          "time": 150.5171310000024,
          "velocity": 0.5511811023622047,
          "duration": 0.04310341666666773
        },
        {
          "name": "B4",
          "midi": 71,
          "time": 150.6464412500024,
          "velocity": 0.44881889763779526,
          "duration": 0.12931025000000318
        },
        {
          "name": "B4",
          "midi": 71,
          "time": 150.6464412500024,
          "velocity": 0.44881889763779526,
          "duration": 0.12931025000000318
        },
        {
          "name": "C#5",
          "midi": 73,
          "time": 150.7757515000024,
          "velocity": 0.4330708661417323,
          "duration": 0.12931025000000318
        },
        {
          "name": "C#5",
          "midi": 73,
          "time": 150.7757515000024,
          "velocity": 0.4330708661417323,
          "duration": 0.12931025000000318
        },
        {
          "name": "E3",
          "midi": 52,
          "time": 150.7757515000024,
          "velocity": 0.5275590551181102,
          "duration": 0.24568947500000604
        },
        {
          "name": "E3",
          "midi": 52,
          "time": 150.7757515000024,
          "velocity": 0.3858267716535433,
          "duration": 0.25862050000000636
        },
        {
          "name": "A3",
          "midi": 57,
          "time": 150.7757515000024,
          "velocity": 0.3858267716535433,
          "duration": 0.25862050000000636
        },
        {
          "name": "C#4",
          "midi": 61,
          "time": 150.7757515000024,
          "velocity": 0.3858267716535433,
          "duration": 0.24568947500000604
        },
        {
          "name": "B3",
          "midi": 59,
          "time": 150.7757515000024,
          "velocity": 0.5275590551181102,
          "duration": 0.04310341666666773
        },
        {
          "name": "A4",
          "midi": 69,
          "time": 150.9050617500024,
          "velocity": 0.4251968503937008,
          "duration": 0.12931025000000318
        },
        {
          "name": "A4",
          "midi": 69,
          "time": 150.9050617500024,
          "velocity": 0.4251968503937008,
          "duration": 0.12931025000000318
        },
        {
          "name": "A5",
          "midi": 81,
          "time": 151.0343720000024,
          "velocity": 0.4094488188976378,
          "duration": 0.5172410000000127
        },
        {
          "name": "A5",
          "midi": 81,
          "time": 151.0343720000024,
          "velocity": 0.4094488188976378,
          "duration": 0.5172410000000127
        },
        {
          "name": "A4",
          "midi": 69,
          "time": 151.0343720000024,
          "velocity": 0.4330708661417323,
          "duration": 0.7629304750000188
        },
        {
          "name": "C#5",
          "midi": 73,
          "time": 151.0343720000024,
          "velocity": 0.4330708661417323,
          "duration": 0.7758615000000191
        },
        {
          "name": "E5",
          "midi": 76,
          "time": 151.0343720000024,
          "velocity": 0.4330708661417323,
          "duration": 0.7758615000000191
        },
        {
          "name": "F#3",
          "midi": 54,
          "time": 151.0343720000024,
          "velocity": 0.4645669291338583,
          "duration": 0.5086203166666792
        },
        {
          "name": "F#2",
          "midi": 42,
          "time": 151.0343720000024,
          "velocity": 0.5039370078740157,
          "duration": 0.5043099750000124
        },
        {
          "name": "C#4",
          "midi": 61,
          "time": 151.0343720000024,
          "velocity": 0.3464566929133858,
          "duration": 0.758620133333352
        },
        {
          "name": "E4",
          "midi": 64,
          "time": 151.0343720000024,
          "velocity": 0.3464566929133858,
          "duration": 0.7672408166666855
        },
        {
          "name": "A4",
          "midi": 69,
          "time": 151.0343720000024,
          "velocity": 0.3464566929133858,
          "duration": 0.7758615000000191
        },
        {
          "name": "F#2",
          "midi": 42,
          "time": 151.0343720000024,
          "velocity": 0.3779527559055118,
          "duration": 0.7629304750000188
        },
        {
          "name": "C#3",
          "midi": 49,
          "time": 151.0343720000024,
          "velocity": 0.3779527559055118,
          "duration": 0.49999963333334563
        },
        {
          "name": "F#3",
          "midi": 54,
          "time": 151.0343720000024,
          "velocity": 0.3779527559055118,
          "duration": 0.5172410000000127
        },
        {
          "name": "E3",
          "midi": 52,
          "time": 151.0343720000024,
          "velocity": 0.3700787401574803,
          "duration": 0.7672408166666855
        },
        {
          "name": "A3",
          "midi": 57,
          "time": 151.0343720000024,
          "velocity": 0.3700787401574803,
          "duration": 0.7629304750000188
        },
        {
          "name": "C#4",
          "midi": 61,
          "time": 151.0343720000024,
          "velocity": 0.3700787401574803,
          "duration": 0.758620133333352
        },
        {
          "name": "B1",
          "midi": 35,
          "time": 151.0343720000024,
          "velocity": 0.5118110236220472,
          "duration": 0.04310341666666773
        },
        {
          "name": "B3",
          "midi": 59,
          "time": 151.0343720000024,
          "velocity": 0.5118110236220472,
          "duration": 0.04310341666666773
        },
        {
          "name": "B3",
          "midi": 59,
          "time": 151.2929925000024,
          "velocity": 0.4881889763779528,
          "duration": 0.04310341666666773
        },
        {
          "name": "C#5",
          "midi": 73,
          "time": 151.55161300000242,
          "velocity": 0.3700787401574803,
          "duration": 0.25862050000000636
        },
        {
          "name": "C#5",
          "midi": 73,
          "time": 151.55161300000242,
          "velocity": 0.3700787401574803,
          "duration": 0.25862050000000636
        },
        {
          "name": "F#3",
          "midi": 54,
          "time": 151.55161300000242,
          "velocity": 0.4251968503937008,
          "duration": 0.24568947500000604
        },
        {
          "name": "F#2",
          "midi": 42,
          "time": 151.55161300000242,
          "velocity": 0.3464566929133858,
          "duration": 0.25862050000000636
        },
        {
          "name": "C#3",
          "midi": 49,
          "time": 151.55161300000242,
          "velocity": 0.3464566929133858,
          "duration": 0.24999981666667281
        },
        {
          "name": "F#3",
          "midi": 54,
          "time": 151.55161300000242,
          "velocity": 0.3464566929133858,
          "duration": 0.5172410000000127
        },
        {
          "name": "E2",
          "midi": 40,
          "time": 151.55161300000242,
          "velocity": 0.47244094488188976,
          "duration": 0.04310341666666773
        },
        {
          "name": "A#2",
          "midi": 46,
          "time": 151.55161300000242,
          "velocity": 0.47244094488188976,
          "duration": 0.04310341666666773
        },
        {
          "name": "B3",
          "midi": 59,
          "time": 151.55161300000242,
          "velocity": 0.47244094488188976,
          "duration": 0.04310341666666773
        },
        {
          "name": "D5",
          "midi": 74,
          "time": 151.81023350000243,
          "velocity": 0.3464566929133858,
          "duration": 0.25862050000000636
        },
        {
          "name": "D5",
          "midi": 74,
          "time": 151.81023350000243,
          "velocity": 0.3464566929133858,
          "duration": 0.25862050000000636
        },
        {
          "name": "B4",
          "midi": 71,
          "time": 151.81023350000243,
          "velocity": 0.3700787401574803,
          "duration": 0.7758615000000191
        },
        {
          "name": "D5",
          "midi": 74,
          "time": 151.81023350000243,
          "velocity": 0.3700787401574803,
          "duration": 0.7758615000000191
        },
        {
          "name": "F#5",
          "midi": 78,
          "time": 151.81023350000243,
          "velocity": 0.3700787401574803,
          "duration": 0.7758615000000191
        },
        {
          "name": "B2",
          "midi": 47,
          "time": 151.81023350000243,
          "velocity": 0.4409448818897638,
          "duration": 0.5172410000000127
        },
        {
          "name": "F#3",
          "midi": 54,
          "time": 151.81023350000243,
          "velocity": 0.29133858267716534,
          "duration": 0.5086203166666792
        },
        {
          "name": "A3",
          "midi": 57,
          "time": 151.81023350000243,
          "velocity": 0.29133858267716534,
          "duration": 0.5086203166666792
        },
        {
          "name": "D4",
          "midi": 62,
          "time": 151.81023350000243,
          "velocity": 0.29133858267716534,
          "duration": 0.49999963333334563
        },
        {
          "name": "B2",
          "midi": 47,
          "time": 151.81023350000243,
          "velocity": 0.3228346456692913,
          "duration": 0.7672408166666855
        },
        {
          "name": "F#3",
          "midi": 54,
          "time": 151.81023350000243,
          "velocity": 0.3228346456692913,
          "duration": 0.7629304750000188
        },
        {
          "name": "B3",
          "midi": 59,
          "time": 151.81023350000243,
          "velocity": 0.3228346456692913,
          "duration": 0.04310341666666773
        },
        {
          "name": "F#3",
          "midi": 54,
          "time": 151.81023350000243,
          "velocity": 0.3228346456692913,
          "duration": 0.7758615000000191
        },
        {
          "name": "A3",
          "midi": 57,
          "time": 151.81023350000243,
          "velocity": 0.3228346456692913,
          "duration": 1.0344820000000254
        },
        {
          "name": "D4",
          "midi": 62,
          "time": 151.81023350000243,
          "velocity": 0.3228346456692913,
          "duration": 1.2801714750000315
        },
        {
          "name": "B3",
          "midi": 59,
          "time": 151.81023350000243,
          "velocity": 0.44881889763779526,
          "duration": 0.3017239166666741
        },
        {
          "name": "C#5",
          "midi": 73,
          "time": 152.06885400000243,
          "velocity": 0.3228346456692913,
          "duration": 0.12931025000000318
        },
        {
          "name": "C#5",
          "midi": 73,
          "time": 152.06885400000243,
          "velocity": 0.3228346456692913,
          "duration": 0.12931025000000318
        },
        {
          "name": "B3",
          "midi": 59,
          "time": 152.06885400000243,
          "velocity": 0.3858267716535433,
          "duration": 0.3017239166666741
        },
        {
          "name": "B1",
          "midi": 35,
          "time": 152.06885400000243,
          "velocity": 0.4251968503937008,
          "duration": 0.04310341666666773
        },
        {
          "name": "B3",
          "midi": 59,
          "time": 152.06885400000243,
          "velocity": 0.4251968503937008,
          "duration": 0.5086203166666792
        },
        {
          "name": "B4",
          "midi": 71,
          "time": 152.19816425000243,
          "velocity": 0.31496062992125984,
          "duration": 0.38793075000000954
        },
        {
          "name": "B4",
          "midi": 71,
          "time": 152.19816425000243,
          "velocity": 0.31496062992125984,
          "duration": 0.38793075000000954
        },
        {
          "name": "F#3",
          "midi": 54,
          "time": 152.32747450000244,
          "velocity": 0.4015748031496063,
          "duration": 0.7629304750000188
        },
        {
          "name": "F#3",
          "midi": 54,
          "time": 152.32747450000244,
          "velocity": 0.29133858267716534,
          "duration": 0.7629304750000188
        },
        {
          "name": "A3",
          "midi": 57,
          "time": 152.32747450000244,
          "velocity": 0.29133858267716534,
          "duration": 0.7672408166666855
        },
        {
          "name": "D4",
          "midi": 62,
          "time": 152.32747450000244,
          "velocity": 0.29133858267716534,
          "duration": 0.7672408166666855
        },
        {
          "name": "B3",
          "midi": 59,
          "time": 152.32747450000244,
          "velocity": 0.4094488188976378,
          "duration": 0.25862050000000636
        },
        {
          "name": "A4",
          "midi": 69,
          "time": 152.58609500000244,
          "velocity": 0.28346456692913385,
          "duration": 0.12931025000000318
        },
        {
          "name": "A4",
          "midi": 69,
          "time": 152.58609500000244,
          "velocity": 0.28346456692913385,
          "duration": 0.12931025000000318
        },
        {
          "name": "A5",
          "midi": 81,
          "time": 152.58609500000244,
          "velocity": 0.2992125984251969,
          "duration": 0.12931025000000318
        },
        {
          "name": "B3",
          "midi": 59,
          "time": 152.58609500000244,
          "velocity": 0.3464566929133858,
          "duration": 0.04310341666666773
        },
        {
          "name": "A3",
          "midi": 57,
          "time": 152.58609500000244,
          "velocity": 0.3779527559055118,
          "duration": 0.5086203166666792
        },
        {
          "name": "B2",
          "midi": 47,
          "time": 152.58609500000244,
          "velocity": 0.2755905511811024,
          "duration": 0.5086203166666792
        },
        {
          "name": "F#3",
          "midi": 54,
          "time": 152.58609500000244,
          "velocity": 0.2755905511811024,
          "duration": 0.5043099750000124
        },
        {
          "name": "B3",
          "midi": 59,
          "time": 152.58609500000244,
          "velocity": 0.2755905511811024,
          "duration": 0.3017239166666741
        },
        {
          "name": "E2",
          "midi": 40,
          "time": 152.58609500000244,
          "velocity": 0.3858267716535433,
          "duration": 0.04310341666666773
        },
        {
          "name": "F#2",
          "midi": 42,
          "time": 152.58609500000244,
          "velocity": 0.3858267716535433,
          "duration": 0.04310341666666773
        },
        {
          "name": "B3",
          "midi": 59,
          "time": 152.58609500000244,
          "velocity": 0.3858267716535433,
          "duration": 0.5043099750000124
        },
        {
          "name": "B4",
          "midi": 71,
          "time": 152.71540525000245,
          "velocity": 0.2677165354330709,
          "duration": 0.12931025000000318
        },
        {
          "name": "B4",
          "midi": 71,
          "time": 152.71540525000245,
          "velocity": 0.2677165354330709,
          "duration": 0.12931025000000318
        },
        {
          "name": "G5",
          "midi": 79,
          "time": 152.71540525000245,
          "velocity": 0.29133858267716534,
          "duration": 0.12931025000000318
        },
        {
          "name": "C#5",
          "midi": 73,
          "time": 152.84471550000245,
          "velocity": 0.25984251968503935,
          "duration": 0.12931025000000318
        },
        {
          "name": "C#5",
          "midi": 73,
          "time": 152.84471550000245,
          "velocity": 0.25984251968503935,
          "duration": 0.12931025000000318
        },
        {
          "name": "F#5",
          "midi": 78,
          "time": 152.84471550000245,
          "velocity": 0.28346456692913385,
          "duration": 0.12931025000000318
        },
        {
          "name": "F#3",
          "midi": 54,
          "time": 152.84471550000245,
          "velocity": 0.3543307086614173,
          "duration": 0.25862050000000636
        },
        {
          "name": "B1",
          "midi": 35,
          "time": 152.84471550000245,
          "velocity": 0.3700787401574803,
          "duration": 0.04310341666666773
        },
        {
          "name": "B3",
          "midi": 59,
          "time": 152.84471550000245,
          "velocity": 0.3700787401574803,
          "duration": 0.25862050000000636
        },
        {
          "name": "A4",
          "midi": 69,
          "time": 152.97402575000245,
          "velocity": 0.25196850393700787,
          "duration": 0.12931025000000318
        },
        {
          "name": "A4",
          "midi": 69,
          "time": 152.97402575000245,
          "velocity": 0.25196850393700787,
          "duration": 0.12931025000000318
        },
        {
          "name": "E5",
          "midi": 76,
          "time": 152.97402575000245,
          "velocity": 0.2677165354330709,
          "duration": 0.12931025000000318
        },
        {
          "name": "D5",
          "midi": 74,
          "time": 153.10333600000246,
          "velocity": 0.23622047244094488,
          "duration": 0.5172410000000127
        },
        {
          "name": "D5",
          "midi": 74,
          "time": 153.10333600000246,
          "velocity": 0.23622047244094488,
          "duration": 0.5172410000000127
        },
        {
          "name": "G4",
          "midi": 67,
          "time": 153.10333600000246,
          "velocity": 0.25984251968503935,
          "duration": 0.7758615000000191
        },
        {
          "name": "B4",
          "midi": 71,
          "time": 153.10333600000246,
          "velocity": 0.25984251968503935,
          "duration": 0.7758615000000191
        },
        {
          "name": "D5",
          "midi": 74,
          "time": 153.10333600000246,
          "velocity": 0.25984251968503935,
          "duration": 0.7758615000000191
        },
        {
          "name": "F#5",
          "midi": 78,
          "time": 153.10333600000246,
          "velocity": 0.25984251968503935,
          "duration": 0.7758615000000191
        },
        {
          "name": "E3",
          "midi": 52,
          "time": 153.10333600000246,
          "velocity": 0.30708661417322836,
          "duration": 0.49999963333334563
        },
        {
          "name": "E2",
          "midi": 40,
          "time": 153.10333600000246,
          "velocity": 0.33858267716535434,
          "duration": 0.24568947500000604
        },
        {
          "name": "G3",
          "midi": 55,
          "time": 153.10333600000246,
          "velocity": 0.2047244094488189,
          "duration": 0.758620133333352
        },
        {
          "name": "B3",
          "midi": 59,
          "time": 153.10333600000246,
          "velocity": 0.2047244094488189,
          "duration": 0.04310341666666773
        },
        {
          "name": "D4",
          "midi": 62,
          "time": 153.10333600000246,
          "velocity": 0.2047244094488189,
          "duration": 0.758620133333352
        },
        {
          "name": "F#4",
          "midi": 66,
          "time": 153.10333600000246,
          "velocity": 0.2047244094488189,
          "duration": 0.7629304750000188
        },
        {
          "name": "E2",
          "midi": 40,
          "time": 153.10333600000246,
          "velocity": 0.2440944881889764,
          "duration": 0.49999963333334563
        },
        {
          "name": "B2",
          "midi": 47,
          "time": 153.10333600000246,
          "velocity": 0.2440944881889764,
          "duration": 0.5043099750000124
        },
        {
          "name": "E3",
          "midi": 52,
          "time": 153.10333600000246,
          "velocity": 0.2440944881889764,
          "duration": 0.5172410000000127
        },
        {
          "name": "D3",
          "midi": 50,
          "time": 153.10333600000246,
          "velocity": 0.23622047244094488,
          "duration": 0.7672408166666855
        },
        {
          "name": "F#3",
          "midi": 54,
          "time": 153.10333600000246,
          "velocity": 0.23622047244094488,
          "duration": 0.7672408166666855
        },
        {
          "name": "G3",
          "midi": 55,
          "time": 153.10333600000246,
          "velocity": 0.23622047244094488,
          "duration": 0.7672408166666855
        },
        {
          "name": "B3",
          "midi": 59,
          "time": 153.10333600000246,
          "velocity": 0.23622047244094488,
          "duration": 0.3017239166666741
        },
        {
          "name": "B1",
          "midi": 35,
          "time": 153.10333600000246,
          "velocity": 0.3464566929133858,
          "duration": 0.04310341666666773
        },
        {
          "name": "B3",
          "midi": 59,
          "time": 153.10333600000246,
          "velocity": 0.3464566929133858,
          "duration": 0.5603444166666804
        },
        {
          "name": "F#2",
          "midi": 42,
          "time": 153.36195650000246,
          "velocity": 0.31496062992125984,
          "duration": 0.25862050000000636
        },
        {
          "name": "B3",
          "midi": 59,
          "time": 153.36195650000246,
          "velocity": 0.3228346456692913,
          "duration": 0.49999963333334563
        },
        {
          "name": "E5",
          "midi": 76,
          "time": 153.62057700000247,
          "velocity": 0.1968503937007874,
          "duration": 0.25862050000000636
        },
        {
          "name": "E5",
          "midi": 76,
          "time": 153.62057700000247,
          "velocity": 0.1968503937007874,
          "duration": 0.25862050000000636
        },
        {
          "name": "E3",
          "midi": 52,
          "time": 153.62057700000247,
          "velocity": 0.2755905511811024,
          "duration": 0.24999981666667281
        },
        {
          "name": "G2",
          "midi": 43,
          "time": 153.62057700000247,
          "velocity": 0.29133858267716534,
          "duration": 0.25862050000000636
        },
        {
          "name": "E2",
          "midi": 40,
          "time": 153.62057700000247,
          "velocity": 0.2125984251968504,
          "duration": 0.04310341666666773
        },
        {
          "name": "B2",
          "midi": 47,
          "time": 153.62057700000247,
          "velocity": 0.2125984251968504,
          "duration": 0.24137913333333927
        },
        {
          "name": "E3",
          "midi": 52,
          "time": 153.62057700000247,
          "velocity": 0.2125984251968504,
          "duration": 0.5172410000000127
        },
        {
          "name": "E2",
          "midi": 40,
          "time": 153.62057700000247,
          "velocity": 0.30708661417322836,
          "duration": 0.24999981666667281
        },
        {
          "name": "F#2",
          "midi": 42,
          "time": 153.62057700000247,
          "velocity": 0.30708661417322836,
          "duration": 0.04310341666666773
        },
        {
          "name": "B3",
          "midi": 59,
          "time": 153.62057700000247,
          "velocity": 0.30708661417322836,
          "duration": 0.24999981666667281
        },
        {
          "name": "C#5",
          "midi": 73,
          "time": 153.87919750000248,
          "velocity": 0.1732283464566929,
          "duration": 0.38793075000000954
        },
        {
          "name": "C#5",
          "midi": 73,
          "time": 153.87919750000248,
          "velocity": 0.1732283464566929,
          "duration": 0.38793075000000954
        },
        {
          "name": "A4",
          "midi": 69,
          "time": 153.87919750000248,
          "velocity": 0.1968503937007874,
          "duration": 0.7758615000000191
        },
        {
          "name": "C#5",
          "midi": 73,
          "time": 153.87919750000248,
          "velocity": 0.1968503937007874,
          "duration": 0.7758615000000191
        },
        {
          "name": "E5",
          "midi": 76,
          "time": 153.87919750000248,
          "velocity": 0.1968503937007874,
          "duration": 0.7758615000000191
        },
        {
          "name": "A2",
          "midi": 45,
          "time": 153.87919750000248,
          "velocity": 0.2755905511811024,
          "duration": 0.5172410000000127
        },
        {
          "name": "A3",
          "midi": 57,
          "time": 153.87919750000248,
          "velocity": 0.15748031496062992,
          "duration": 0.5043099750000124
        },
        {
          "name": "C#4",
          "midi": 61,
          "time": 153.87919750000248,
          "velocity": 0.15748031496062992,
          "duration": 0.49999963333334563
        },
        {
          "name": "E4",
          "midi": 64,
          "time": 153.87919750000248,
          "velocity": 0.15748031496062992,
          "duration": 1.2801714750000315
        },
        {
          "name": "A2",
          "midi": 45,
          "time": 153.87919750000248,
          "velocity": 0.1968503937007874,
          "duration": 1.2844818166666983
        },
        {
          "name": "E3",
          "midi": 52,
          "time": 153.87919750000248,
          "velocity": 0.1968503937007874,
          "duration": 0.49999963333334563
        },
        {
          "name": "A3",
          "midi": 57,
          "time": 153.87919750000248,
          "velocity": 0.1968503937007874,
          "duration": 0.7758615000000191
        },
        {
          "name": "E3",
          "midi": 52,
          "time": 153.87919750000248,
          "velocity": 0.1889763779527559,
          "duration": 0.7758615000000191
        },
        {
          "name": "A3",
          "midi": 57,
          "time": 153.87919750000248,
          "velocity": 0.1889763779527559,
          "duration": 1.025861316666692
        },
        {
          "name": "C#4",
          "midi": 61,
          "time": 153.87919750000248,
          "velocity": 0.1889763779527559,
          "duration": 1.025861316666692
        },
        {
          "name": "B1",
          "midi": 35,
          "time": 153.87919750000248,
          "velocity": 0.28346456692913385,
          "duration": 0.04310341666666773
        },
        {
          "name": "B3",
          "midi": 59,
          "time": 153.87919750000248,
          "velocity": 0.28346456692913385,
          "duration": 0.04310341666666773
        },
        {
          "name": "A3",
          "midi": 57,
          "time": 154.13781800000248,
          "velocity": 0.23622047244094488,
          "duration": 1.0172406333333583
        },
        {
          "name": "B1",
          "midi": 35,
          "time": 154.13781800000248,
          "velocity": 0.2677165354330709,
          "duration": 0.04310341666666773
        },
        {
          "name": "B3",
          "midi": 59,
          "time": 154.13781800000248,
          "velocity": 0.2677165354330709,
          "duration": 0.04310341666666773
        },
        {
          "name": "B4",
          "midi": 71,
          "time": 154.2671282500025,
          "velocity": 0.14173228346456693,
          "duration": 0.12931025000000318
        },
        {
          "name": "B4",
          "midi": 71,
          "time": 154.2671282500025,
          "velocity": 0.14173228346456693,
          "duration": 0.12931025000000318
        },
        {
          "name": "A4",
          "midi": 69,
          "time": 154.3964385000025,
          "velocity": 0.12598425196850394,
          "duration": 0.25862050000000636
        },
        {
          "name": "A4",
          "midi": 69,
          "time": 154.3964385000025,
          "velocity": 0.12598425196850394,
          "duration": 0.25862050000000636
        },
        {
          "name": "E3",
          "midi": 52,
          "time": 154.3964385000025,
          "velocity": 0.2283464566929134,
          "duration": 0.5043099750000124
        },
        {
          "name": "E3",
          "midi": 52,
          "time": 154.3964385000025,
          "velocity": 0.15748031496062992,
          "duration": 0.758620133333352
        },
        {
          "name": "A3",
          "midi": 57,
          "time": 154.3964385000025,
          "velocity": 0.15748031496062992,
          "duration": 0.7629304750000188
        },
        {
          "name": "C#4",
          "midi": 61,
          "time": 154.3964385000025,
          "velocity": 0.15748031496062992,
          "duration": 0.758620133333352
        },
        {
          "name": "B3",
          "midi": 59,
          "time": 154.3964385000025,
          "velocity": 0.2440944881889764,
          "duration": 0.04310341666666773
        },
        {
          "name": "A4",
          "midi": 69,
          "time": 154.6550590000025,
          "velocity": 0.12598425196850394,
          "duration": 0.5172410000000127
        },
        {
          "name": "A3",
          "midi": 57,
          "time": 154.6550590000025,
          "velocity": 0.1968503937007874,
          "duration": 0.5086203166666792
        },
        {
          "name": "F#3",
          "midi": 54,
          "time": 154.6550590000025,
          "velocity": 0.2125984251968504,
          "duration": 0.25862050000000636
        },
        {
          "name": "E2",
          "midi": 40,
          "time": 154.6550590000025,
          "velocity": 0.2204724409448819,
          "duration": 0.04310341666666773
        },
        {
          "name": "F#2",
          "midi": 42,
          "time": 154.6550590000025,
          "velocity": 0.2204724409448819,
          "duration": 0.04310341666666773
        },
        {
          "name": "B3",
          "midi": 59,
          "time": 154.6550590000025,
          "velocity": 0.2204724409448819,
          "duration": 0.04310341666666773
        },
        {
          "name": "A4",
          "midi": 69,
          "time": 154.9136795000025,
          "velocity": 0.08661417322834646,
          "duration": 0.25862050000000636
        },
        {
          "name": "A4",
          "midi": 69,
          "time": 154.9136795000025,
          "velocity": 0.08661417322834646,
          "duration": 0.25862050000000636
        },
        {
          "name": "E3",
          "midi": 52,
          "time": 154.9136795000025,
          "velocity": 0.1889763779527559,
          "duration": 0.24999981666667281
        },
        {
          "name": "E3",
          "midi": 52,
          "time": 154.9136795000025,
          "velocity": 0.12598425196850394,
          "duration": 0.25862050000000636
        },
        {
          "name": "A3",
          "midi": 57,
          "time": 154.9136795000025,
          "velocity": 0.12598425196850394,
          "duration": 0.25862050000000636
        },
        {
          "name": "C#4",
          "midi": 61,
          "time": 154.9136795000025,
          "velocity": 0.12598425196850394,
          "duration": 0.24999981666667281
        },
        {
          "name": "B1",
          "midi": 35,
          "time": 154.9136795000025,
          "velocity": 0.2047244094488189,
          "duration": 0.04310341666666773
        },
        {
          "name": "B3",
          "midi": 59,
          "time": 154.9136795000025,
          "velocity": 0.2047244094488189,
          "duration": 0.04310341666666773
        },
        {
          "name": "E5",
          "midi": 76,
          "time": 155.1723000000025,
          "velocity": 0.06299212598425197,
          "duration": 0.25862050000000636
        },
        {
          "name": "E5",
          "midi": 76,
          "time": 155.1723000000025,
          "velocity": 0.06299212598425197,
          "duration": 0.25862050000000636
        },
        {
          "name": "E5",
          "midi": 76,
          "time": 155.1723000000025,
          "velocity": 0.08661417322834646,
          "duration": 0.25862050000000636
        },
        {
          "name": "A4",
          "midi": 69,
          "time": 155.1723000000025,
          "velocity": 0.08661417322834646,
          "duration": 0.758620133333352
        },
        {
          "name": "C#5",
          "midi": 73,
          "time": 155.1723000000025,
          "velocity": 0.08661417322834646,
          "duration": 0.7758615000000191
        },
        {
          "name": "F#3",
          "midi": 54,
          "time": 155.1723000000025,
          "velocity": 0.15748031496062992,
          "duration": 0.5086203166666792
        },
        {
          "name": "F#2",
          "midi": 42,
          "time": 155.1723000000025,
          "velocity": 0.16535433070866143,
          "duration": 0.5043099750000124
        },
        {
          "name": "C#4",
          "midi": 61,
          "time": 155.1723000000025,
          "velocity": 0.07086614173228346,
          "duration": 0.758620133333352
        },
        {
          "name": "E4",
          "midi": 64,
          "time": 155.1723000000025,
          "velocity": 0.07086614173228346,
          "duration": 0.7629304750000188
        },
        {
          "name": "A4",
          "midi": 69,
          "time": 155.1723000000025,
          "velocity": 0.07086614173228346,
          "duration": 0.7758615000000191
        },
        {
          "name": "F#2",
          "midi": 42,
          "time": 155.1723000000025,
          "velocity": 0.11811023622047244,
          "duration": 0.758620133333352
        },
        {
          "name": "C#3",
          "midi": 49,
          "time": 155.1723000000025,
          "velocity": 0.11811023622047244,
          "duration": 0.49999963333334563
        },
        {
          "name": "F#3",
          "midi": 54,
          "time": 155.1723000000025,
          "velocity": 0.11811023622047244,
          "duration": 0.5172410000000127
        },
        {
          "name": "E3",
          "midi": 52,
          "time": 155.1723000000025,
          "velocity": 0.11023622047244094,
          "duration": 0.758620133333352
        },
        {
          "name": "A3",
          "midi": 57,
          "time": 155.1723000000025,
          "velocity": 0.11023622047244094,
          "duration": 0.758620133333352
        },
        {
          "name": "C#4",
          "midi": 61,
          "time": 155.1723000000025,
          "velocity": 0.11023622047244094,
          "duration": 0.7672408166666855
        },
        {
          "name": "E2",
          "midi": 40,
          "time": 155.1723000000025,
          "velocity": 0.18110236220472442,
          "duration": 0.04310341666666773
        },
        {
          "name": "E2",
          "midi": 40,
          "time": 155.3016102500025,
          "velocity": 0.1732283464566929,
          "duration": 0.04310341666666773
        },
        {
          "name": "D5",
          "midi": 74,
          "time": 155.43092050000251,
          "velocity": 0.03937007874015748,
          "duration": 0.25862050000000636
        },
        {
          "name": "D5",
          "midi": 74,
          "time": 155.43092050000251,
          "velocity": 0.03937007874015748,
          "duration": 0.25862050000000636
        },
        {
          "name": "F#5",
          "midi": 78,
          "time": 155.43092050000251,
          "velocity": 0.06299212598425197,
          "duration": 0.25862050000000636
        },
        {
          "name": "E2",
          "midi": 40,
          "time": 155.43092050000251,
          "velocity": 0.16535433070866143,
          "duration": 0.04310341666666773
        },
        {
          "name": "E2",
          "midi": 40,
          "time": 155.56023075000252,
          "velocity": 0.14960629921259844,
          "duration": 0.04310341666666773
        },
        {
          "name": "D5",
          "midi": 74,
          "time": 155.68954100000252,
          "velocity": 0.015748031496062992,
          "duration": 0.5172410000000127
        },
        {
          "name": "D5",
          "midi": 74,
          "time": 155.68954100000252,
          "velocity": 0.015748031496062992,
          "duration": 0.5172410000000127
        },
        {
          "name": "F#5",
          "midi": 78,
          "time": 155.68954100000252,
          "velocity": 0.03937007874015748,
          "duration": 0.25862050000000636
        },
        {
          "name": "B3",
          "midi": 59,
          "time": 155.68954100000252,
          "velocity": 0.11811023622047244,
          "duration": 0.5172410000000127
        },
        {
          "name": "F#2",
          "midi": 42,
          "time": 155.68954100000252,
          "velocity": 0.07874015748031496,
          "duration": 0.25862050000000636
        },
        {
          "name": "C#3",
          "midi": 49,
          "time": 155.68954100000252,
          "velocity": 0.07874015748031496,
          "duration": 0.24999981666667281
        },
        {
          "name": "F#3",
          "midi": 54,
          "time": 155.68954100000252,
          "velocity": 0.07874015748031496,
          "duration": 0.24568947500000604
        },
        {
          "name": "E2",
          "midi": 40,
          "time": 155.68954100000252,
          "velocity": 0.14173228346456693,
          "duration": 0.04310341666666773
        },
        {
          "name": "E2",
          "midi": 40,
          "time": 155.7326444166692,
          "velocity": 0.14173228346456693,
          "duration": 0.04310341666666773
        },
        {
          "name": "F#4",
          "midi": 66,
          "time": 155.94816150000253,
          "velocity": 0.015748031496062992,
          "duration": 1.2844818166666983
        },
        {
          "name": "A4",
          "midi": 69,
          "time": 155.94816150000253,
          "velocity": 0.015748031496062992,
          "duration": 1.2931025000000318
        },
        {
          "name": "D5",
          "midi": 74,
          "time": 155.94816150000253,
          "velocity": 0.015748031496062992,
          "duration": 1.2931025000000318
        },
        {
          "name": "A2",
          "midi": 45,
          "time": 155.94816150000253,
          "velocity": 0.10236220472440945,
          "duration": 0.5172410000000127
        },
        {
          "name": "A3",
          "midi": 57,
          "time": 155.94816150000253,
          "velocity": 0.015748031496062992,
          "duration": 0.5043099750000124
        },
        {
          "name": "D4",
          "midi": 62,
          "time": 155.94816150000253,
          "velocity": 0.015748031496062992,
          "duration": 0.5043099750000124
        },
        {
          "name": "F#4",
          "midi": 66,
          "time": 155.94816150000253,
          "velocity": 0.015748031496062992,
          "duration": 1.2931025000000318
        },
        {
          "name": "D3",
          "midi": 50,
          "time": 155.94816150000253,
          "velocity": 0.06299212598425197,
          "duration": 0.7672408166666855
        },
        {
          "name": "A3",
          "midi": 57,
          "time": 155.94816150000253,
          "velocity": 0.06299212598425197,
          "duration": 0.5172410000000127
        },
        {
          "name": "D4",
          "midi": 62,
          "time": 155.94816150000253,
          "velocity": 0.06299212598425197,
          "duration": 0.7629304750000188
        },
        {
          "name": "F#3",
          "midi": 54,
          "time": 155.94816150000253,
          "velocity": 0.05511811023622047,
          "duration": 0.5043099750000124
        },
        {
          "name": "A3",
          "midi": 57,
          "time": 155.94816150000253,
          "velocity": 0.05511811023622047,
          "duration": 0.7672408166666855
        },
        {
          "name": "D4",
          "midi": 62,
          "time": 155.94816150000253,
          "velocity": 0.05511811023622047,
          "duration": 1.2758611333333647
        },
        {
          "name": "B1",
          "midi": 35,
          "time": 155.94816150000253,
          "velocity": 0.11811023622047244,
          "duration": 0.04310341666666773
        },
        {
          "name": "E2",
          "midi": 40,
          "time": 156.07747175000253,
          "velocity": 0.11023622047244094,
          "duration": 0.04310341666666773
        },
        {
          "name": "A3",
          "midi": 57,
          "time": 156.20678200000253,
          "velocity": 0.07874015748031496,
          "duration": 0.5172410000000127
        },
        {
          "name": "E2",
          "midi": 40,
          "time": 156.20678200000253,
          "velocity": 0.10236220472440945,
          "duration": 0.04310341666666773
        },
        {
          "name": "E2",
          "midi": 40,
          "time": 156.33609225000254,
          "velocity": 0.09448818897637795,
          "duration": 0.04310341666666773
        },
        {
          "name": "A3",
          "midi": 57,
          "time": 156.46540250000254,
          "velocity": 0.06299212598425197,
          "duration": 0.5172410000000127
        },
        {
          "name": "E3",
          "midi": 52,
          "time": 156.46540250000254,
          "velocity": 0.06299212598425197,
          "duration": 0.25862050000000636
        },
        {
          "name": "F#3",
          "midi": 54,
          "time": 156.46540250000254,
          "velocity": 0.023622047244094488,
          "duration": 0.5172410000000127
        },
        {
          "name": "A3",
          "midi": 57,
          "time": 156.46540250000254,
          "velocity": 0.023622047244094488,
          "duration": 0.758620133333352
        },
        {
          "name": "D4",
          "midi": 62,
          "time": 156.46540250000254,
          "velocity": 0.023622047244094488,
          "duration": 0.7629304750000188
        },
        {
          "name": "E2",
          "midi": 40,
          "time": 156.46540250000254,
          "velocity": 0.07874015748031496,
          "duration": 0.04310341666666773
        },
        {
          "name": "E2",
          "midi": 40,
          "time": 156.59471275000254,
          "velocity": 0.07086614173228346,
          "duration": 0.04310341666666773
        },
        {
          "name": "A3",
          "midi": 57,
          "time": 156.72402300000255,
          "velocity": 0.03937007874015748,
          "duration": 0.5043099750000124
        },
        {
          "name": "F#3",
          "midi": 54,
          "time": 156.72402300000255,
          "velocity": 0.03937007874015748,
          "duration": 0.5086203166666792
        },
        {
          "name": "D3",
          "midi": 50,
          "time": 156.72402300000255,
          "velocity": 0.047244094488188976,
          "duration": 0.5086203166666792
        },
        {
          "name": "A3",
          "midi": 57,
          "time": 156.72402300000255,
          "velocity": 0.047244094488188976,
          "duration": 0.5043099750000124
        },
        {
          "name": "D4",
          "midi": 62,
          "time": 156.72402300000255,
          "velocity": 0.047244094488188976,
          "duration": 0.5043099750000124
        },
        {
          "name": "E2",
          "midi": 40,
          "time": 156.72402300000255,
          "velocity": 0.06299212598425197,
          "duration": 0.04310341666666773
        },
        {
          "name": "E2",
          "midi": 40,
          "time": 156.85333325000255,
          "velocity": 0.047244094488188976,
          "duration": 0.04310341666666773
        },
        {
          "name": "A3",
          "midi": 57,
          "time": 156.98264350000255,
          "velocity": 0.023622047244094488,
          "duration": 0.25862050000000636
        },
        {
          "name": "A3",
          "midi": 57,
          "time": 156.98264350000255,
          "velocity": 0.015748031496062992,
          "duration": 0.25862050000000636
        },
        {
          "name": "B1",
          "midi": 35,
          "time": 156.98264350000255,
          "velocity": 0.03937007874015748,
          "duration": 0.04310341666666773
        },
        {
          "name": "E2",
          "midi": 40,
          "time": 157.11195375000256,
          "velocity": 0.031496062992125984,
          "duration": 0.04310341666666773
        },
        {
          "name": "A3",
          "midi": 57,
          "time": 157.2369536583359,
          "velocity": 0.023622047244094488,
          "duration": 0.004310341666666773
        }
      ],
      "controlChanges": {
        "7": [
          {
            "number": 7,
            "time": 0,
            "value": 0.8661417322834646
          },
          {
            "number": 7,
            "time": 0,
            "value": 0.8661417322834646
          },
          {
            "number": 7,
            "time": 0,
            "value": 0.8661417322834646
          },
          {
            "number": 7,
            "time": 0,
            "value": 0.7874015748031497
          },
          {
            "number": 7,
            "time": 0,
            "value": 0.7874015748031497
          },
          {
            "number": 7,
            "time": 0,
            "value": 0.7086614173228346
          },
          {
            "number": 7,
            "time": 0,
            "value": 0.7874015748031497
          },
          {
            "number": 7,
            "time": 0,
            "value": 0.7874015748031497
          },
          {
            "number": 7,
            "time": 0,
            "value": 0.8661417322834646
          }
        ],
        "10": [
          {
            "number": 10,
            "time": 0,
            "value": 0.5511811023622047
          },
          {
            "number": 10,
            "time": 0,
            "value": 0.3937007874015748
          },
          {
            "number": 10,
            "time": 0,
            "value": 0.3937007874015748
          },
          {
            "number": 10,
            "time": 0,
            "value": 0.7086614173228346
          },
          {
            "number": 10,
            "time": 0,
            "value": 0.23622047244094488
          },
          {
            "number": 10,
            "time": 0,
            "value": 0.5039370078740157
          },
          {
            "number": 10,
            "time": 0,
            "value": 0.7086614173228346
          },
          {
            "number": 10,
            "time": 0,
            "value": 0.7086614173228346
          },
          {
            "number": 10,
            "time": 0,
            "value": 0.5039370078740157
          }
        ],
        "32": [
          {
            "number": 32,
            "time": 0,
            "value": 0.889763779527559
          },
          {
            "number": 32,
            "time": 0,
            "value": 0.889763779527559
          },
          {
            "number": 32,
            "time": 0,
            "value": 0
          },
          {
            "number": 32,
            "time": 0,
            "value": 0.889763779527559
          },
          {
            "number": 32,
            "time": 0,
            "value": 0
          }
        ],
        "91": [
          {
            "number": 91,
            "time": 0,
            "value": 0.15748031496062992
          },
          {
            "number": 91,
            "time": 0,
            "value": 0.3937007874015748
          },
          {
            "number": 91,
            "time": 0,
            "value": 0.3937007874015748
          },
          {
            "number": 91,
            "time": 0,
            "value": 0.3937007874015748
          },
          {
            "number": 91,
            "time": 0,
            "value": 0.5039370078740157
          }
        ],
        "93": [
          {
            "number": 93,
            "time": 0,
            "value": 0
          },
          {
            "number": 93,
            "time": 0,
            "value": 0
          },
          {
            "number": 93,
            "time": 0,
            "value": 0.15748031496062992
          },
          {
            "number": 93,
            "time": 0,
            "value": 0.15748031496062992
          },
          {
            "number": 93,
            "time": 0,
            "value": 0
          }
        ]
      },
      "id": 0,
      "name": "untitled",
      "instrumentNumber": 0,
      "instrument": "standard kit",
      "instrumentFamily": "drums",
      "channelNumber": 9,
      "isPercussion": true
    }
  ]
}
