{
  "header": {
    "PPQ": 120,
    "bpm": 74.000074000074,
    "timeSignature": [
      4,
      4
    ],
    "name": "WinJammer Demo"
  },
  "startTime": 0,
  "duration": 389.1820432500267,
  "tracks": [
    {
      "startTime": 0,
      "duration": 0,
      "length": 0,
      "notes": [],
      "controlChanges": {},
      "id": 0,
      "name": "WinJammer Demo"
    },
    {
      "startTime": 0,
      "duration": 389.18204325001244,
      "length": 4954,
      "notes": [
        {
          "name": "F#2",
          "midi": 42,
          "time": 0,
          "velocity": 0.47244094488188976,
          "duration": 1.6148632500000002
        },
        {
          "name": "B2",
          "midi": 47,
          "time": 0,
          "velocity": 0.47244094488188976,
          "duration": 1.6148632500000002
        },
        {
          "name": "F#3",
          "midi": 54,
          "time": 0,
          "velocity": 0.47244094488188976,
          "duration": 1.6148632500000002
        },
        {
          "name": "B3",
          "midi": 59,
          "time": 0,
          "velocity": 0.47244094488188976,
          "duration": 1.6148632500000002
        },
        {
          "name": "D4",
          "midi": 62,
          "time": 0,
          "velocity": 0.47244094488188976,
          "duration": 1.6148632500000002
        },
        {
          "name": "F#4",
          "midi": 66,
          "time": 0,
          "velocity": 0.47244094488188976,
          "duration": 1.6148632500000002
        },
        {
          "name": "F#2",
          "midi": 42,
          "time": 3.24324,
          "velocity": 0.47244094488188976,
          "duration": 1.61486325
        },
        {
          "name": "C#3",
          "midi": 49,
          "time": 3.24324,
          "velocity": 0.47244094488188976,
          "duration": 1.61486325
        },
        {
          "name": "F#3",
          "midi": 54,
          "time": 3.24324,
          "velocity": 0.47244094488188976,
          "duration": 1.61486325
        },
        {
          "name": "A#3",
          "midi": 58,
          "time": 3.24324,
          "velocity": 0.47244094488188976,
          "duration": 1.61486325
        },
        {
          "name": "C#4",
          "midi": 61,
          "time": 3.24324,
          "velocity": 0.47244094488188976,
          "duration": 1.61486325
        },
        {
          "name": "F#4",
          "midi": 66,
          "time": 3.24324,
          "velocity": 0.47244094488188976,
          "duration": 1.61486325
        },
        {
          "name": "E2",
          "midi": 40,
          "time": 6.48648,
          "velocity": 0.47244094488188976,
          "duration": 1.6148632500000009
        },
        {
          "name": "A2",
          "midi": 45,
          "time": 6.48648,
          "velocity": 0.47244094488188976,
          "duration": 1.6148632500000009
        },
        {
          "name": "E3",
          "midi": 52,
          "time": 6.48648,
          "velocity": 0.47244094488188976,
          "duration": 1.6148632500000009
        },
        {
          "name": "A3",
          "midi": 57,
          "time": 6.48648,
          "velocity": 0.47244094488188976,
          "duration": 1.6148632500000009
        },
        {
          "name": "C#4",
          "midi": 61,
          "time": 6.48648,
          "velocity": 0.47244094488188976,
          "duration": 1.6148632500000009
        },
        {
          "name": "E4",
          "midi": 64,
          "time": 6.48648,
          "velocity": 0.47244094488188976,
          "duration": 1.6148632500000009
        },
        {
          "name": "A3",
          "midi": 57,
          "time": 8.1081,
          "velocity": 0.47244094488188976,
          "duration": 0.8040532500000008
        },
        {
          "name": "E3",
          "midi": 52,
          "time": 8.91891,
          "velocity": 0.47244094488188976,
          "duration": 0.8040532500000008
        },
        {
          "name": "E2",
          "midi": 40,
          "time": 9.72972,
          "velocity": 0.47244094488188976,
          "duration": 1.6148632500000009
        },
        {
          "name": "B2",
          "midi": 47,
          "time": 9.72972,
          "velocity": 0.47244094488188976,
          "duration": 1.6148632500000009
        },
        {
          "name": "E3",
          "midi": 52,
          "time": 9.72972,
          "velocity": 0.47244094488188976,
          "duration": 1.6148632500000009
        },
        {
          "name": "G#3",
          "midi": 56,
          "time": 9.72972,
          "velocity": 0.47244094488188976,
          "duration": 1.6148632500000009
        },
        {
          "name": "B3",
          "midi": 59,
          "time": 9.72972,
          "velocity": 0.47244094488188976,
          "duration": 1.6148632500000009
        },
        {
          "name": "E4",
          "midi": 64,
          "time": 9.72972,
          "velocity": 0.47244094488188976,
          "duration": 1.6148632500000009
        },
        {
          "name": "G2",
          "midi": 43,
          "time": 12.97296,
          "velocity": 0.47244094488188976,
          "duration": 1.6148632500000009
        },
        {
          "name": "D3",
          "midi": 50,
          "time": 12.97296,
          "velocity": 0.47244094488188976,
          "duration": 1.6148632500000009
        },
        {
          "name": "G3",
          "midi": 55,
          "time": 12.97296,
          "velocity": 0.47244094488188976,
          "duration": 1.6148632500000009
        },
        {
          "name": "B3",
          "midi": 59,
          "time": 12.97296,
          "velocity": 0.47244094488188976,
          "duration": 1.6148632500000009
        },
        {
          "name": "D4",
          "midi": 62,
          "time": 12.97296,
          "velocity": 0.47244094488188976,
          "duration": 1.6148632500000009
        },
        {
          "name": "G4",
          "midi": 67,
          "time": 12.97296,
          "velocity": 0.47244094488188976,
          "duration": 1.6148632500000009
        },
        {
          "name": "G3",
          "midi": 55,
          "time": 14.999985,
          "velocity": 0.47244094488188976,
          "duration": 0.3986482500000008
        },
        {
          "name": "A3",
          "midi": 57,
          "time": 15.40539,
          "velocity": 0.47244094488188976,
          "duration": 0.3986482500000008
        },
        {
          "name": "D4",
          "midi": 62,
          "time": 15.810795,
          "velocity": 0.47244094488188976,
          "duration": 0.39864824999999904
        },
        {
          "name": "A2",
          "midi": 45,
          "time": 16.2162,
          "velocity": 0.47244094488188976,
          "duration": 1.614863249999999
        },
        {
          "name": "D3",
          "midi": 50,
          "time": 16.2162,
          "velocity": 0.47244094488188976,
          "duration": 1.614863249999999
        },
        {
          "name": "A3",
          "midi": 57,
          "time": 16.2162,
          "velocity": 0.47244094488188976,
          "duration": 1.614863249999999
        },
        {
          "name": "D4",
          "midi": 62,
          "time": 16.2162,
          "velocity": 0.47244094488188976,
          "duration": 1.614863249999999
        },
        {
          "name": "F#4",
          "midi": 66,
          "time": 16.2162,
          "velocity": 0.47244094488188976,
          "duration": 1.614863249999999
        },
        {
          "name": "A4",
          "midi": 69,
          "time": 16.2162,
          "velocity": 0.47244094488188976,
          "duration": 1.614863249999999
        },
        {
          "name": "F#4",
          "midi": 66,
          "time": 17.83782,
          "velocity": 0.47244094488188976,
          "duration": 0.804053249999999
        },
        {
          "name": "D4",
          "midi": 62,
          "time": 18.64863,
          "velocity": 0.47244094488188976,
          "duration": 0.804053249999999
        },
        {
          "name": "E2",
          "midi": 40,
          "time": 19.45944,
          "velocity": 0.47244094488188976,
          "duration": 1.614863249999999
        },
        {
          "name": "B2",
          "midi": 47,
          "time": 19.45944,
          "velocity": 0.47244094488188976,
          "duration": 1.614863249999999
        },
        {
          "name": "E3",
          "midi": 52,
          "time": 19.45944,
          "velocity": 0.47244094488188976,
          "duration": 1.614863249999999
        },
        {
          "name": "G3",
          "midi": 55,
          "time": 19.45944,
          "velocity": 0.47244094488188976,
          "duration": 1.614863249999999
        },
        {
          "name": "B3",
          "midi": 59,
          "time": 19.45944,
          "velocity": 0.47244094488188976,
          "duration": 1.614863249999999
        },
        {
          "name": "E4",
          "midi": 64,
          "time": 19.45944,
          "velocity": 0.47244094488188976,
          "duration": 1.614863249999999
        },
        {
          "name": "F#3",
          "midi": 54,
          "time": 21.486465,
          "velocity": 0.47244094488188976,
          "duration": 0.19594574999999992
        },
        {
          "name": "G3",
          "midi": 55,
          "time": 21.6891675,
          "velocity": 0.47244094488188976,
          "duration": 0.19594574999999992
        },
        {
          "name": "F#3",
          "midi": 54,
          "time": 21.89187,
          "velocity": 0.47244094488188976,
          "duration": 0.804053249999999
        },
        {
          "name": "F#2",
          "midi": 42,
          "time": 22.70268,
          "velocity": 0.47244094488188976,
          "duration": 1.614863249999999
        },
        {
          "name": "C#3",
          "midi": 49,
          "time": 22.70268,
          "velocity": 0.47244094488188976,
          "duration": 1.614863249999999
        },
        {
          "name": "F#3",
          "midi": 54,
          "time": 22.70268,
          "velocity": 0.47244094488188976,
          "duration": 1.614863249999999
        },
        {
          "name": "A#3",
          "midi": 58,
          "time": 22.70268,
          "velocity": 0.47244094488188976,
          "duration": 1.614863249999999
        },
        {
          "name": "C#4",
          "midi": 61,
          "time": 22.70268,
          "velocity": 0.47244094488188976,
          "duration": 1.614863249999999
        },
        {
          "name": "F#4",
          "midi": 66,
          "time": 22.70268,
          "velocity": 0.47244094488188976,
          "duration": 1.614863249999999
        },
        {
          "name": "D3",
          "midi": 50,
          "time": 25.94592,
          "velocity": 0.47244094488188976,
          "duration": 0.804053249999999
        },
        {
          "name": "E3",
          "midi": 52,
          "time": 27.56754,
          "velocity": 0.47244094488188976,
          "duration": 0.804053249999999
        },
        {
          "name": "F#3",
          "midi": 54,
          "time": 28.37835,
          "velocity": 0.47244094488188976,
          "duration": 0.804053249999999
        },
        {
          "name": "F#2",
          "midi": 42,
          "time": 29.18916,
          "velocity": 0.47244094488188976,
          "duration": 1.2094582500000008
        },
        {
          "name": "D3",
          "midi": 50,
          "time": 30.405375000000003,
          "velocity": 0.47244094488188976,
          "duration": 0.3986482500000008
        },
        {
          "name": "C#3",
          "midi": 49,
          "time": 30.810780000000005,
          "velocity": 0.47244094488188976,
          "duration": 1.6148632500000026
        },
        {
          "name": "C#3",
          "midi": 49,
          "time": 32.43240000000001,
          "velocity": 0.47244094488188976,
          "duration": 1.614863249999999
        },
        {
          "name": "D3",
          "midi": 50,
          "time": 34.05402000000001,
          "velocity": 0.47244094488188976,
          "duration": 0.8040532500000026
        },
        {
          "name": "E3",
          "midi": 52,
          "time": 34.86483000000001,
          "velocity": 0.47244094488188976,
          "duration": 0.8040532500000026
        },
        {
          "name": "E2",
          "midi": 40,
          "time": 35.675640000000016,
          "velocity": 0.47244094488188976,
          "duration": 1.614863249999999
        },
        {
          "name": "E3",
          "midi": 52,
          "time": 37.297260000000016,
          "velocity": 0.47244094488188976,
          "duration": 1.614863249999999
        },
        {
          "name": "G3",
          "midi": 55,
          "time": 38.918880000000016,
          "velocity": 0.47244094488188976,
          "duration": 1.614863249999999
        },
        {
          "name": "B3",
          "midi": 59,
          "time": 38.918880000000016,
          "velocity": 0.47244094488188976,
          "duration": 1.614863249999999
        },
        {
          "name": "G2",
          "midi": 43,
          "time": 38.918880000000016,
          "velocity": 0.47244094488188976,
          "duration": 1.614863249999999
        },
        {
          "name": "D3",
          "midi": 50,
          "time": 38.918880000000016,
          "velocity": 0.47244094488188976,
          "duration": 1.614863249999999
        },
        {
          "name": "D4",
          "midi": 62,
          "time": 38.918880000000016,
          "velocity": 0.47244094488188976,
          "duration": 1.614863249999999
        },
        {
          "name": "G4",
          "midi": 67,
          "time": 38.918880000000016,
          "velocity": 0.47244094488188976,
          "duration": 1.614863249999999
        },
        {
          "name": "C#3",
          "midi": 49,
          "time": 40.540500000000016,
          "velocity": 0.47244094488188976,
          "duration": 0.8040532500000026
        },
        {
          "name": "D3",
          "midi": 50,
          "time": 41.35131000000002,
          "velocity": 0.47244094488188976,
          "duration": 0.8040532500000026
        },
        {
          "name": "A2",
          "midi": 45,
          "time": 42.16212000000002,
          "velocity": 0.47244094488188976,
          "duration": 1.614863249999999
        },
        {
          "name": "D3",
          "midi": 50,
          "time": 42.16212000000002,
          "velocity": 0.47244094488188976,
          "duration": 1.614863249999999
        },
        {
          "name": "A3",
          "midi": 57,
          "time": 42.16212000000002,
          "velocity": 0.47244094488188976,
          "duration": 1.614863249999999
        },
        {
          "name": "D4",
          "midi": 62,
          "time": 42.16212000000002,
          "velocity": 0.47244094488188976,
          "duration": 1.614863249999999
        },
        {
          "name": "F#4",
          "midi": 66,
          "time": 42.16212000000002,
          "velocity": 0.47244094488188976,
          "duration": 1.614863249999999
        },
        {
          "name": "A4",
          "midi": 69,
          "time": 42.16212000000002,
          "velocity": 0.47244094488188976,
          "duration": 1.614863249999999
        },
        {
          "name": "E2",
          "midi": 40,
          "time": 45.40536000000002,
          "velocity": 0.47244094488188976,
          "duration": 1.614863249999999
        },
        {
          "name": "B2",
          "midi": 47,
          "time": 45.40536000000002,
          "velocity": 0.47244094488188976,
          "duration": 1.614863249999999
        },
        {
          "name": "E3",
          "midi": 52,
          "time": 45.40536000000002,
          "velocity": 0.47244094488188976,
          "duration": 1.614863249999999
        },
        {
          "name": "G3",
          "midi": 55,
          "time": 45.40536000000002,
          "velocity": 0.47244094488188976,
          "duration": 1.614863249999999
        },
        {
          "name": "B3",
          "midi": 59,
          "time": 45.40536000000002,
          "velocity": 0.47244094488188976,
          "duration": 1.614863249999999
        },
        {
          "name": "E4",
          "midi": 64,
          "time": 45.40536000000002,
          "velocity": 0.47244094488188976,
          "duration": 1.614863249999999
        },
        {
          "name": "F#3",
          "midi": 54,
          "time": 47.83779000000002,
          "velocity": 0.47244094488188976,
          "duration": 0.8040532500000026
        },
        {
          "name": "F#2",
          "midi": 42,
          "time": 48.64860000000002,
          "velocity": 0.47244094488188976,
          "duration": 1.614863249999999
        },
        {
          "name": "C#3",
          "midi": 49,
          "time": 48.64860000000002,
          "velocity": 0.47244094488188976,
          "duration": 1.614863249999999
        },
        {
          "name": "F#3",
          "midi": 54,
          "time": 48.64860000000002,
          "velocity": 0.47244094488188976,
          "duration": 1.614863249999999
        },
        {
          "name": "A#3",
          "midi": 58,
          "time": 48.64860000000002,
          "velocity": 0.47244094488188976,
          "duration": 1.614863249999999
        },
        {
          "name": "C#4",
          "midi": 61,
          "time": 48.64860000000002,
          "velocity": 0.47244094488188976,
          "duration": 1.614863249999999
        },
        {
          "name": "F#4",
          "midi": 66,
          "time": 48.64860000000002,
          "velocity": 0.47244094488188976,
          "duration": 1.614863249999999
        },
        {
          "name": "F#3",
          "midi": 54,
          "time": 51.89184000000002,
          "velocity": 0.47244094488188976,
          "duration": 0.3986482500000008
        },
        {
          "name": "B2",
          "midi": 47,
          "time": 51.89184000000002,
          "velocity": 0.47244094488188976,
          "duration": 0.3986482500000008
        },
        {
          "name": "F#2",
          "midi": 42,
          "time": 51.89184000000002,
          "velocity": 0.47244094488188976,
          "duration": 0.3986482500000008
        },
        {
          "name": "B3",
          "midi": 59,
          "time": 51.89184000000002,
          "velocity": 0.47244094488188976,
          "duration": 0.3986482500000008
        },
        {
          "name": "D4",
          "midi": 62,
          "time": 51.89184000000002,
          "velocity": 0.47244094488188976,
          "duration": 0.3986482500000008
        },
        {
          "name": "F#4",
          "midi": 66,
          "time": 51.89184000000002,
          "velocity": 0.47244094488188976,
          "duration": 0.3986482500000008
        },
        {
          "name": "F#4",
          "midi": 66,
          "time": 52.297245000000025,
          "velocity": 0.47244094488188976,
          "duration": 0.19594574999999992
        },
        {
          "name": "B3",
          "midi": 59,
          "time": 52.297245000000025,
          "velocity": 0.47244094488188976,
          "duration": 0.19594574999999992
        },
        {
          "name": "D4",
          "midi": 62,
          "time": 52.297245000000025,
          "velocity": 0.47244094488188976,
          "duration": 0.19594574999999992
        },
        {
          "name": "F#3",
          "midi": 54,
          "time": 52.297245000000025,
          "velocity": 0.47244094488188976,
          "duration": 0.19594574999999992
        },
        {
          "name": "B2",
          "midi": 47,
          "time": 52.297245000000025,
          "velocity": 0.47244094488188976,
          "duration": 0.19594574999999992
        },
        {
          "name": "F#2",
          "midi": 42,
          "time": 52.297245000000025,
          "velocity": 0.47244094488188976,
          "duration": 0.19594574999999992
        },
        {
          "name": "F#4",
          "midi": 66,
          "time": 52.499947500000026,
          "velocity": 0.47244094488188976,
          "duration": 0.19594574999999992
        },
        {
          "name": "B3",
          "midi": 59,
          "time": 52.499947500000026,
          "velocity": 0.47244094488188976,
          "duration": 0.19594574999999992
        },
        {
          "name": "D4",
          "midi": 62,
          "time": 52.499947500000026,
          "velocity": 0.47244094488188976,
          "duration": 0.19594574999999992
        },
        {
          "name": "F#3",
          "midi": 54,
          "time": 52.499947500000026,
          "velocity": 0.47244094488188976,
          "duration": 0.19594574999999992
        },
        {
          "name": "B2",
          "midi": 47,
          "time": 52.499947500000026,
          "velocity": 0.47244094488188976,
          "duration": 0.19594574999999992
        },
        {
          "name": "F#2",
          "midi": 42,
          "time": 52.499947500000026,
          "velocity": 0.47244094488188976,
          "duration": 0.19594574999999992
        },
        {
          "name": "F#4",
          "midi": 66,
          "time": 52.70265000000003,
          "velocity": 0.47244094488188976,
          "duration": 0.3986482500000008
        },
        {
          "name": "D4",
          "midi": 62,
          "time": 52.70265000000003,
          "velocity": 0.47244094488188976,
          "duration": 0.3986482500000008
        },
        {
          "name": "B3",
          "midi": 59,
          "time": 52.70265000000003,
          "velocity": 0.47244094488188976,
          "duration": 0.3986482500000008
        },
        {
          "name": "F#3",
          "midi": 54,
          "time": 52.70265000000003,
          "velocity": 0.47244094488188976,
          "duration": 0.3986482500000008
        },
        {
          "name": "B2",
          "midi": 47,
          "time": 52.70265000000003,
          "velocity": 0.47244094488188976,
          "duration": 0.3986482500000008
        },
        {
          "name": "F#2",
          "midi": 42,
          "time": 52.70265000000003,
          "velocity": 0.47244094488188976,
          "duration": 0.3986482500000008
        },
        {
          "name": "F#4",
          "midi": 66,
          "time": 53.10805500000003,
          "velocity": 0.47244094488188976,
          "duration": 0.19594574999999992
        },
        {
          "name": "D4",
          "midi": 62,
          "time": 53.10805500000003,
          "velocity": 0.47244094488188976,
          "duration": 0.19594574999999992
        },
        {
          "name": "B3",
          "midi": 59,
          "time": 53.10805500000003,
          "velocity": 0.47244094488188976,
          "duration": 0.19594574999999992
        },
        {
          "name": "F#3",
          "midi": 54,
          "time": 53.10805500000003,
          "velocity": 0.47244094488188976,
          "duration": 0.19594574999999992
        },
        {
          "name": "B2",
          "midi": 47,
          "time": 53.10805500000003,
          "velocity": 0.47244094488188976,
          "duration": 0.19594574999999992
        },
        {
          "name": "F#2",
          "midi": 42,
          "time": 53.10805500000003,
          "velocity": 0.47244094488188976,
          "duration": 0.19594574999999992
        },
        {
          "name": "F#4",
          "midi": 66,
          "time": 53.31075750000003,
          "velocity": 0.47244094488188976,
          "duration": 0.19594574999999992
        },
        {
          "name": "D4",
          "midi": 62,
          "time": 53.31075750000003,
          "velocity": 0.47244094488188976,
          "duration": 0.19594574999999992
        },
        {
          "name": "B3",
          "midi": 59,
          "time": 53.31075750000003,
          "velocity": 0.47244094488188976,
          "duration": 0.19594574999999992
        },
        {
          "name": "F#3",
          "midi": 54,
          "time": 53.31075750000003,
          "velocity": 0.47244094488188976,
          "duration": 0.19594574999999992
        },
        {
          "name": "B2",
          "midi": 47,
          "time": 53.31075750000003,
          "velocity": 0.47244094488188976,
          "duration": 0.19594574999999992
        },
        {
          "name": "F#2",
          "midi": 42,
          "time": 53.31075750000003,
          "velocity": 0.47244094488188976,
          "duration": 0.19594574999999992
        },
        {
          "name": "F#4",
          "midi": 66,
          "time": 53.51346000000003,
          "velocity": 0.47244094488188976,
          "duration": 0.19594574999999992
        },
        {
          "name": "D4",
          "midi": 62,
          "time": 53.51346000000003,
          "velocity": 0.47244094488188976,
          "duration": 0.19594574999999992
        },
        {
          "name": "B3",
          "midi": 59,
          "time": 53.51346000000003,
          "velocity": 0.47244094488188976,
          "duration": 0.19594574999999992
        },
        {
          "name": "F#3",
          "midi": 54,
          "time": 53.51346000000003,
          "velocity": 0.47244094488188976,
          "duration": 0.19594574999999992
        },
        {
          "name": "B2",
          "midi": 47,
          "time": 53.51346000000003,
          "velocity": 0.47244094488188976,
          "duration": 0.19594574999999992
        },
        {
          "name": "F#2",
          "midi": 42,
          "time": 53.51346000000003,
          "velocity": 0.47244094488188976,
          "duration": 0.19594574999999992
        },
        {
          "name": "F#4",
          "midi": 66,
          "time": 53.71616250000003,
          "velocity": 0.47244094488188976,
          "duration": 0.19594574999999992
        },
        {
          "name": "D4",
          "midi": 62,
          "time": 53.71616250000003,
          "velocity": 0.47244094488188976,
          "duration": 0.19594574999999992
        },
        {
          "name": "B3",
          "midi": 59,
          "time": 53.71616250000003,
          "velocity": 0.47244094488188976,
          "duration": 0.19594574999999992
        },
        {
          "name": "F#3",
          "midi": 54,
          "time": 53.71616250000003,
          "velocity": 0.47244094488188976,
          "duration": 0.19594574999999992
        },
        {
          "name": "B2",
          "midi": 47,
          "time": 53.71616250000003,
          "velocity": 0.47244094488188976,
          "duration": 0.19594574999999992
        },
        {
          "name": "F#2",
          "midi": 42,
          "time": 53.71616250000003,
          "velocity": 0.47244094488188976,
          "duration": 0.19594574999999992
        },
        {
          "name": "F#4",
          "midi": 66,
          "time": 53.91886500000003,
          "velocity": 0.47244094488188976,
          "duration": 0.19594574999999992
        },
        {
          "name": "D4",
          "midi": 62,
          "time": 53.91886500000003,
          "velocity": 0.47244094488188976,
          "duration": 0.19594574999999992
        },
        {
          "name": "B3",
          "midi": 59,
          "time": 53.91886500000003,
          "velocity": 0.47244094488188976,
          "duration": 0.19594574999999992
        },
        {
          "name": "F#3",
          "midi": 54,
          "time": 53.91886500000003,
          "velocity": 0.47244094488188976,
          "duration": 0.19594574999999992
        },
        {
          "name": "B2",
          "midi": 47,
          "time": 53.91886500000003,
          "velocity": 0.47244094488188976,
          "duration": 0.19594574999999992
        },
        {
          "name": "F#2",
          "midi": 42,
          "time": 53.91886500000003,
          "velocity": 0.47244094488188976,
          "duration": 0.19594574999999992
        },
        {
          "name": "F#4",
          "midi": 66,
          "time": 54.12156750000003,
          "velocity": 0.47244094488188976,
          "duration": 0.3986482500000008
        },
        {
          "name": "D4",
          "midi": 62,
          "time": 54.12156750000003,
          "velocity": 0.47244094488188976,
          "duration": 0.3986482500000008
        },
        {
          "name": "B3",
          "midi": 59,
          "time": 54.12156750000003,
          "velocity": 0.47244094488188976,
          "duration": 0.3986482500000008
        },
        {
          "name": "F#3",
          "midi": 54,
          "time": 54.12156750000003,
          "velocity": 0.47244094488188976,
          "duration": 0.3986482500000008
        },
        {
          "name": "B2",
          "midi": 47,
          "time": 54.12156750000003,
          "velocity": 0.47244094488188976,
          "duration": 0.3986482500000008
        },
        {
          "name": "F#2",
          "midi": 42,
          "time": 54.12156750000003,
          "velocity": 0.47244094488188976,
          "duration": 0.3986482500000008
        },
        {
          "name": "F#4",
          "midi": 66,
          "time": 54.526972500000035,
          "velocity": 0.47244094488188976,
          "duration": 0.19594574999999992
        },
        {
          "name": "D4",
          "midi": 62,
          "time": 54.526972500000035,
          "velocity": 0.47244094488188976,
          "duration": 0.19594574999999992
        },
        {
          "name": "B3",
          "midi": 59,
          "time": 54.526972500000035,
          "velocity": 0.47244094488188976,
          "duration": 0.19594574999999992
        },
        {
          "name": "F#3",
          "midi": 54,
          "time": 54.526972500000035,
          "velocity": 0.47244094488188976,
          "duration": 0.19594574999999992
        },
        {
          "name": "B2",
          "midi": 47,
          "time": 54.526972500000035,
          "velocity": 0.47244094488188976,
          "duration": 0.19594574999999992
        },
        {
          "name": "F#2",
          "midi": 42,
          "time": 54.526972500000035,
          "velocity": 0.47244094488188976,
          "duration": 0.19594574999999992
        },
        {
          "name": "F#4",
          "midi": 66,
          "time": 54.729675000000036,
          "velocity": 0.47244094488188976,
          "duration": 0.3986482500000008
        },
        {
          "name": "D4",
          "midi": 62,
          "time": 54.729675000000036,
          "velocity": 0.47244094488188976,
          "duration": 0.3986482500000008
        },
        {
          "name": "B3",
          "midi": 59,
          "time": 54.729675000000036,
          "velocity": 0.47244094488188976,
          "duration": 0.3986482500000008
        },
        {
          "name": "F#3",
          "midi": 54,
          "time": 54.729675000000036,
          "velocity": 0.47244094488188976,
          "duration": 0.3986482500000008
        },
        {
          "name": "B2",
          "midi": 47,
          "time": 54.729675000000036,
          "velocity": 0.47244094488188976,
          "duration": 0.3986482500000008
        },
        {
          "name": "F#2",
          "midi": 42,
          "time": 54.729675000000036,
          "velocity": 0.47244094488188976,
          "duration": 0.3986482500000008
        },
        {
          "name": "F#2",
          "midi": 42,
          "time": 55.13508000000004,
          "velocity": 0.47244094488188976,
          "duration": 0.3986482500000008
        },
        {
          "name": "C#3",
          "midi": 49,
          "time": 55.13508000000004,
          "velocity": 0.47244094488188976,
          "duration": 0.3986482500000008
        },
        {
          "name": "F#3",
          "midi": 54,
          "time": 55.13508000000004,
          "velocity": 0.47244094488188976,
          "duration": 0.3986482500000008
        },
        {
          "name": "A#3",
          "midi": 58,
          "time": 55.13508000000004,
          "velocity": 0.47244094488188976,
          "duration": 0.3986482500000008
        },
        {
          "name": "C#4",
          "midi": 61,
          "time": 55.13508000000004,
          "velocity": 0.47244094488188976,
          "duration": 0.3986482500000008
        },
        {
          "name": "F#4",
          "midi": 66,
          "time": 55.13508000000004,
          "velocity": 0.47244094488188976,
          "duration": 0.3986482500000008
        },
        {
          "name": "F#4",
          "midi": 66,
          "time": 55.54048500000004,
          "velocity": 0.47244094488188976,
          "duration": 0.19594574999999992
        },
        {
          "name": "C#4",
          "midi": 61,
          "time": 55.54048500000004,
          "velocity": 0.47244094488188976,
          "duration": 0.19594574999999992
        },
        {
          "name": "A#3",
          "midi": 58,
          "time": 55.54048500000004,
          "velocity": 0.47244094488188976,
          "duration": 0.19594574999999992
        },
        {
          "name": "F#3",
          "midi": 54,
          "time": 55.54048500000004,
          "velocity": 0.47244094488188976,
          "duration": 0.19594574999999992
        },
        {
          "name": "C#3",
          "midi": 49,
          "time": 55.54048500000004,
          "velocity": 0.47244094488188976,
          "duration": 0.19594574999999992
        },
        {
          "name": "F#2",
          "midi": 42,
          "time": 55.54048500000004,
          "velocity": 0.47244094488188976,
          "duration": 0.19594574999999992
        },
        {
          "name": "F#4",
          "midi": 66,
          "time": 55.74318750000004,
          "velocity": 0.47244094488188976,
          "duration": 0.19594574999999992
        },
        {
          "name": "C#4",
          "midi": 61,
          "time": 55.74318750000004,
          "velocity": 0.47244094488188976,
          "duration": 0.19594574999999992
        },
        {
          "name": "A#3",
          "midi": 58,
          "time": 55.74318750000004,
          "velocity": 0.47244094488188976,
          "duration": 0.19594574999999992
        },
        {
          "name": "F#3",
          "midi": 54,
          "time": 55.74318750000004,
          "velocity": 0.47244094488188976,
          "duration": 0.19594574999999992
        },
        {
          "name": "C#3",
          "midi": 49,
          "time": 55.74318750000004,
          "velocity": 0.47244094488188976,
          "duration": 0.19594574999999992
        },
        {
          "name": "F#2",
          "midi": 42,
          "time": 55.74318750000004,
          "velocity": 0.47244094488188976,
          "duration": 0.19594574999999992
        },
        {
          "name": "F#4",
          "midi": 66,
          "time": 55.94589000000004,
          "velocity": 0.47244094488188976,
          "duration": 0.3986482500000008
        },
        {
          "name": "A#3",
          "midi": 58,
          "time": 55.94589000000004,
          "velocity": 0.47244094488188976,
          "duration": 0.3986482500000008
        },
        {
          "name": "C#4",
          "midi": 61,
          "time": 55.94589000000004,
          "velocity": 0.47244094488188976,
          "duration": 0.3986482500000008
        },
        {
          "name": "F#3",
          "midi": 54,
          "time": 55.94589000000004,
          "velocity": 0.47244094488188976,
          "duration": 0.3986482500000008
        },
        {
          "name": "C#3",
          "midi": 49,
          "time": 55.94589000000004,
          "velocity": 0.47244094488188976,
          "duration": 0.3986482500000008
        },
        {
          "name": "F#2",
          "midi": 42,
          "time": 55.94589000000004,
          "velocity": 0.47244094488188976,
          "duration": 0.3986482500000008
        },
        {
          "name": "F#4",
          "midi": 66,
          "time": 56.35129500000004,
          "velocity": 0.47244094488188976,
          "duration": 0.19594574999999992
        },
        {
          "name": "C#4",
          "midi": 61,
          "time": 56.35129500000004,
          "velocity": 0.47244094488188976,
          "duration": 0.19594574999999992
        },
        {
          "name": "A#3",
          "midi": 58,
          "time": 56.35129500000004,
          "velocity": 0.47244094488188976,
          "duration": 0.19594574999999992
        },
        {
          "name": "F#3",
          "midi": 54,
          "time": 56.35129500000004,
          "velocity": 0.47244094488188976,
          "duration": 0.19594574999999992
        },
        {
          "name": "C#3",
          "midi": 49,
          "time": 56.35129500000004,
          "velocity": 0.47244094488188976,
          "duration": 0.19594574999999992
        },
        {
          "name": "F#2",
          "midi": 42,
          "time": 56.35129500000004,
          "velocity": 0.47244094488188976,
          "duration": 0.19594574999999992
        },
        {
          "name": "F#4",
          "midi": 66,
          "time": 56.553997500000044,
          "velocity": 0.47244094488188976,
          "duration": 0.19594574999999992
        },
        {
          "name": "C#4",
          "midi": 61,
          "time": 56.553997500000044,
          "velocity": 0.47244094488188976,
          "duration": 0.19594574999999992
        },
        {
          "name": "A#3",
          "midi": 58,
          "time": 56.553997500000044,
          "velocity": 0.47244094488188976,
          "duration": 0.19594574999999992
        },
        {
          "name": "F#3",
          "midi": 54,
          "time": 56.553997500000044,
          "velocity": 0.47244094488188976,
          "duration": 0.19594574999999992
        },
        {
          "name": "C#3",
          "midi": 49,
          "time": 56.553997500000044,
          "velocity": 0.47244094488188976,
          "duration": 0.19594574999999992
        },
        {
          "name": "F#2",
          "midi": 42,
          "time": 56.553997500000044,
          "velocity": 0.47244094488188976,
          "duration": 0.19594574999999992
        },
        {
          "name": "F#4",
          "midi": 66,
          "time": 56.756700000000045,
          "velocity": 0.47244094488188976,
          "duration": 1.2094582499999973
        },
        {
          "name": "C#4",
          "midi": 61,
          "time": 56.756700000000045,
          "velocity": 0.47244094488188976,
          "duration": 1.2094582499999973
        },
        {
          "name": "A#3",
          "midi": 58,
          "time": 56.756700000000045,
          "velocity": 0.47244094488188976,
          "duration": 1.2094582499999973
        },
        {
          "name": "F#3",
          "midi": 54,
          "time": 56.756700000000045,
          "velocity": 0.47244094488188976,
          "duration": 1.2094582499999973
        },
        {
          "name": "C#3",
          "midi": 49,
          "time": 56.756700000000045,
          "velocity": 0.47244094488188976,
          "duration": 1.2094582499999973
        },
        {
          "name": "F#2",
          "midi": 42,
          "time": 56.756700000000045,
          "velocity": 0.47244094488188976,
          "duration": 1.2094582499999973
        },
        {
          "name": "F#4",
          "midi": 66,
          "time": 57.97291500000004,
          "velocity": 0.47244094488188976,
          "duration": 0.19594574999999992
        },
        {
          "name": "C#4",
          "midi": 61,
          "time": 57.97291500000004,
          "velocity": 0.47244094488188976,
          "duration": 0.19594574999999992
        },
        {
          "name": "A#3",
          "midi": 58,
          "time": 57.97291500000004,
          "velocity": 0.47244094488188976,
          "duration": 0.19594574999999992
        },
        {
          "name": "F#3",
          "midi": 54,
          "time": 57.97291500000004,
          "velocity": 0.47244094488188976,
          "duration": 0.19594574999999992
        },
        {
          "name": "C#3",
          "midi": 49,
          "time": 57.97291500000004,
          "velocity": 0.47244094488188976,
          "duration": 0.19594574999999992
        },
        {
          "name": "F#2",
          "midi": 42,
          "time": 57.97291500000004,
          "velocity": 0.47244094488188976,
          "duration": 0.19594574999999992
        },
        {
          "name": "F#4",
          "midi": 66,
          "time": 58.175617500000044,
          "velocity": 0.47244094488188976,
          "duration": 0.19594574999999992
        },
        {
          "name": "C#4",
          "midi": 61,
          "time": 58.175617500000044,
          "velocity": 0.47244094488188976,
          "duration": 0.19594574999999992
        },
        {
          "name": "A#3",
          "midi": 58,
          "time": 58.175617500000044,
          "velocity": 0.47244094488188976,
          "duration": 0.19594574999999992
        },
        {
          "name": "F#3",
          "midi": 54,
          "time": 58.175617500000044,
          "velocity": 0.47244094488188976,
          "duration": 0.19594574999999992
        },
        {
          "name": "C#3",
          "midi": 49,
          "time": 58.175617500000044,
          "velocity": 0.47244094488188976,
          "duration": 0.19594574999999992
        },
        {
          "name": "F#2",
          "midi": 42,
          "time": 58.175617500000044,
          "velocity": 0.47244094488188976,
          "duration": 0.19594574999999992
        },
        {
          "name": "E2",
          "midi": 40,
          "time": 58.378320000000045,
          "velocity": 0.47244094488188976,
          "duration": 0.3986482500000008
        },
        {
          "name": "A2",
          "midi": 45,
          "time": 58.378320000000045,
          "velocity": 0.47244094488188976,
          "duration": 0.3986482500000008
        },
        {
          "name": "E3",
          "midi": 52,
          "time": 58.378320000000045,
          "velocity": 0.47244094488188976,
          "duration": 0.3986482500000008
        },
        {
          "name": "A3",
          "midi": 57,
          "time": 58.378320000000045,
          "velocity": 0.47244094488188976,
          "duration": 0.3986482500000008
        },
        {
          "name": "C#4",
          "midi": 61,
          "time": 58.378320000000045,
          "velocity": 0.47244094488188976,
          "duration": 0.3986482500000008
        },
        {
          "name": "E4",
          "midi": 64,
          "time": 58.378320000000045,
          "velocity": 0.47244094488188976,
          "duration": 0.3986482500000008
        },
        {
          "name": "E4",
          "midi": 64,
          "time": 58.78372500000005,
          "velocity": 0.47244094488188976,
          "duration": 0.19594574999999992
        },
        {
          "name": "C#4",
          "midi": 61,
          "time": 58.78372500000005,
          "velocity": 0.47244094488188976,
          "duration": 0.19594574999999992
        },
        {
          "name": "A3",
          "midi": 57,
          "time": 58.78372500000005,
          "velocity": 0.47244094488188976,
          "duration": 0.19594574999999992
        },
        {
          "name": "E3",
          "midi": 52,
          "time": 58.78372500000005,
          "velocity": 0.47244094488188976,
          "duration": 0.19594574999999992
        },
        {
          "name": "A2",
          "midi": 45,
          "time": 58.78372500000005,
          "velocity": 0.47244094488188976,
          "duration": 0.19594574999999992
        },
        {
          "name": "E2",
          "midi": 40,
          "time": 58.78372500000005,
          "velocity": 0.47244094488188976,
          "duration": 0.19594574999999992
        },
        {
          "name": "E4",
          "midi": 64,
          "time": 58.98642750000005,
          "velocity": 0.47244094488188976,
          "duration": 0.19594574999999992
        },
        {
          "name": "C#4",
          "midi": 61,
          "time": 58.98642750000005,
          "velocity": 0.47244094488188976,
          "duration": 0.19594574999999992
        },
        {
          "name": "A3",
          "midi": 57,
          "time": 58.98642750000005,
          "velocity": 0.47244094488188976,
          "duration": 0.19594574999999992
        },
        {
          "name": "E3",
          "midi": 52,
          "time": 58.98642750000005,
          "velocity": 0.47244094488188976,
          "duration": 0.19594574999999992
        },
        {
          "name": "A2",
          "midi": 45,
          "time": 58.98642750000005,
          "velocity": 0.47244094488188976,
          "duration": 0.19594574999999992
        },
        {
          "name": "E2",
          "midi": 40,
          "time": 58.98642750000005,
          "velocity": 0.47244094488188976,
          "duration": 0.19594574999999992
        },
        {
          "name": "E4",
          "midi": 64,
          "time": 59.18913000000005,
          "velocity": 0.47244094488188976,
          "duration": 0.3986482500000008
        },
        {
          "name": "C#4",
          "midi": 61,
          "time": 59.18913000000005,
          "velocity": 0.47244094488188976,
          "duration": 0.3986482500000008
        },
        {
          "name": "A3",
          "midi": 57,
          "time": 59.18913000000005,
          "velocity": 0.47244094488188976,
          "duration": 0.3986482500000008
        },
        {
          "name": "E3",
          "midi": 52,
          "time": 59.18913000000005,
          "velocity": 0.47244094488188976,
          "duration": 0.3986482500000008
        },
        {
          "name": "A2",
          "midi": 45,
          "time": 59.18913000000005,
          "velocity": 0.47244094488188976,
          "duration": 0.3986482500000008
        },
        {
          "name": "E2",
          "midi": 40,
          "time": 59.18913000000005,
          "velocity": 0.47244094488188976,
          "duration": 0.3986482500000008
        },
        {
          "name": "E4",
          "midi": 64,
          "time": 59.59453500000005,
          "velocity": 0.47244094488188976,
          "duration": 0.19594574999999992
        },
        {
          "name": "C#4",
          "midi": 61,
          "time": 59.59453500000005,
          "velocity": 0.47244094488188976,
          "duration": 0.19594574999999992
        },
        {
          "name": "A3",
          "midi": 57,
          "time": 59.59453500000005,
          "velocity": 0.47244094488188976,
          "duration": 0.19594574999999992
        },
        {
          "name": "E3",
          "midi": 52,
          "time": 59.59453500000005,
          "velocity": 0.47244094488188976,
          "duration": 0.19594574999999992
        },
        {
          "name": "A2",
          "midi": 45,
          "time": 59.59453500000005,
          "velocity": 0.47244094488188976,
          "duration": 0.19594574999999992
        },
        {
          "name": "E2",
          "midi": 40,
          "time": 59.59453500000005,
          "velocity": 0.47244094488188976,
          "duration": 0.19594574999999992
        },
        {
          "name": "E4",
          "midi": 64,
          "time": 59.79723750000005,
          "velocity": 0.47244094488188976,
          "duration": 0.19594574999999992
        },
        {
          "name": "C#4",
          "midi": 61,
          "time": 59.79723750000005,
          "velocity": 0.47244094488188976,
          "duration": 0.19594574999999992
        },
        {
          "name": "A3",
          "midi": 57,
          "time": 59.79723750000005,
          "velocity": 0.47244094488188976,
          "duration": 0.19594574999999992
        },
        {
          "name": "E3",
          "midi": 52,
          "time": 59.79723750000005,
          "velocity": 0.47244094488188976,
          "duration": 0.19594574999999992
        },
        {
          "name": "A2",
          "midi": 45,
          "time": 59.79723750000005,
          "velocity": 0.47244094488188976,
          "duration": 0.19594574999999992
        },
        {
          "name": "E2",
          "midi": 40,
          "time": 59.79723750000005,
          "velocity": 0.47244094488188976,
          "duration": 0.19594574999999992
        },
        {
          "name": "E4",
          "midi": 64,
          "time": 59.99994000000005,
          "velocity": 0.47244094488188976,
          "duration": 0.19594574999999992
        },
        {
          "name": "C#4",
          "midi": 61,
          "time": 59.99994000000005,
          "velocity": 0.47244094488188976,
          "duration": 0.19594574999999992
        },
        {
          "name": "A3",
          "midi": 57,
          "time": 59.99994000000005,
          "velocity": 0.47244094488188976,
          "duration": 0.19594574999999992
        },
        {
          "name": "E3",
          "midi": 52,
          "time": 59.99994000000005,
          "velocity": 0.47244094488188976,
          "duration": 0.19594574999999992
        },
        {
          "name": "A2",
          "midi": 45,
          "time": 59.99994000000005,
          "velocity": 0.47244094488188976,
          "duration": 0.19594574999999992
        },
        {
          "name": "E2",
          "midi": 40,
          "time": 59.99994000000005,
          "velocity": 0.47244094488188976,
          "duration": 0.19594574999999992
        },
        {
          "name": "E4",
          "midi": 64,
          "time": 60.20264250000005,
          "velocity": 0.47244094488188976,
          "duration": 0.19594574999999992
        },
        {
          "name": "C#4",
          "midi": 61,
          "time": 60.20264250000005,
          "velocity": 0.47244094488188976,
          "duration": 0.19594574999999992
        },
        {
          "name": "A3",
          "midi": 57,
          "time": 60.20264250000005,
          "velocity": 0.47244094488188976,
          "duration": 0.19594574999999992
        },
        {
          "name": "E3",
          "midi": 52,
          "time": 60.20264250000005,
          "velocity": 0.47244094488188976,
          "duration": 0.19594574999999992
        },
        {
          "name": "A2",
          "midi": 45,
          "time": 60.20264250000005,
          "velocity": 0.47244094488188976,
          "duration": 0.19594574999999992
        },
        {
          "name": "E2",
          "midi": 40,
          "time": 60.20264250000005,
          "velocity": 0.47244094488188976,
          "duration": 0.19594574999999992
        },
        {
          "name": "E4",
          "midi": 64,
          "time": 60.405345000000054,
          "velocity": 0.47244094488188976,
          "duration": 0.19594574999999992
        },
        {
          "name": "C#4",
          "midi": 61,
          "time": 60.405345000000054,
          "velocity": 0.47244094488188976,
          "duration": 0.19594574999999992
        },
        {
          "name": "A3",
          "midi": 57,
          "time": 60.405345000000054,
          "velocity": 0.47244094488188976,
          "duration": 0.19594574999999992
        },
        {
          "name": "E3",
          "midi": 52,
          "time": 60.405345000000054,
          "velocity": 0.47244094488188976,
          "duration": 0.19594574999999992
        },
        {
          "name": "A2",
          "midi": 45,
          "time": 60.405345000000054,
          "velocity": 0.47244094488188976,
          "duration": 0.19594574999999992
        },
        {
          "name": "E2",
          "midi": 40,
          "time": 60.405345000000054,
          "velocity": 0.47244094488188976,
          "duration": 0.19594574999999992
        },
        {
          "name": "E4",
          "midi": 64,
          "time": 60.608047500000055,
          "velocity": 0.47244094488188976,
          "duration": 0.3986482500000008
        },
        {
          "name": "C#4",
          "midi": 61,
          "time": 60.608047500000055,
          "velocity": 0.47244094488188976,
          "duration": 0.3986482500000008
        },
        {
          "name": "A3",
          "midi": 57,
          "time": 60.608047500000055,
          "velocity": 0.47244094488188976,
          "duration": 0.3986482500000008
        },
        {
          "name": "E3",
          "midi": 52,
          "time": 60.608047500000055,
          "velocity": 0.47244094488188976,
          "duration": 0.3986482500000008
        },
        {
          "name": "A2",
          "midi": 45,
          "time": 60.608047500000055,
          "velocity": 0.47244094488188976,
          "duration": 0.3986482500000008
        },
        {
          "name": "E2",
          "midi": 40,
          "time": 60.608047500000055,
          "velocity": 0.47244094488188976,
          "duration": 0.3986482500000008
        },
        {
          "name": "E4",
          "midi": 64,
          "time": 61.01345250000006,
          "velocity": 0.47244094488188976,
          "duration": 0.19594574999999992
        },
        {
          "name": "C#4",
          "midi": 61,
          "time": 61.01345250000006,
          "velocity": 0.47244094488188976,
          "duration": 0.19594574999999992
        },
        {
          "name": "A3",
          "midi": 57,
          "time": 61.01345250000006,
          "velocity": 0.47244094488188976,
          "duration": 0.19594574999999992
        },
        {
          "name": "E3",
          "midi": 52,
          "time": 61.01345250000006,
          "velocity": 0.47244094488188976,
          "duration": 0.19594574999999992
        },
        {
          "name": "A2",
          "midi": 45,
          "time": 61.01345250000006,
          "velocity": 0.47244094488188976,
          "duration": 0.19594574999999992
        },
        {
          "name": "E2",
          "midi": 40,
          "time": 61.01345250000006,
          "velocity": 0.47244094488188976,
          "duration": 0.19594574999999992
        },
        {
          "name": "E4",
          "midi": 64,
          "time": 61.21615500000006,
          "velocity": 0.47244094488188976,
          "duration": 0.3986482500000008
        },
        {
          "name": "C#4",
          "midi": 61,
          "time": 61.21615500000006,
          "velocity": 0.47244094488188976,
          "duration": 0.3986482500000008
        },
        {
          "name": "A3",
          "midi": 57,
          "time": 61.21615500000006,
          "velocity": 0.47244094488188976,
          "duration": 0.3986482500000008
        },
        {
          "name": "E3",
          "midi": 52,
          "time": 61.21615500000006,
          "velocity": 0.47244094488188976,
          "duration": 0.3986482500000008
        },
        {
          "name": "A2",
          "midi": 45,
          "time": 61.21615500000006,
          "velocity": 0.47244094488188976,
          "duration": 0.3986482500000008
        },
        {
          "name": "E2",
          "midi": 40,
          "time": 61.21615500000006,
          "velocity": 0.47244094488188976,
          "duration": 0.3986482500000008
        },
        {
          "name": "E2",
          "midi": 40,
          "time": 61.62156000000006,
          "velocity": 0.47244094488188976,
          "duration": 0.3986482500000008
        },
        {
          "name": "B2",
          "midi": 47,
          "time": 61.62156000000006,
          "velocity": 0.47244094488188976,
          "duration": 0.3986482500000008
        },
        {
          "name": "E3",
          "midi": 52,
          "time": 61.62156000000006,
          "velocity": 0.47244094488188976,
          "duration": 0.3986482500000008
        },
        {
          "name": "G#3",
          "midi": 56,
          "time": 61.62156000000006,
          "velocity": 0.47244094488188976,
          "duration": 0.3986482500000008
        },
        {
          "name": "B3",
          "midi": 59,
          "time": 61.62156000000006,
          "velocity": 0.47244094488188976,
          "duration": 0.3986482500000008
        },
        {
          "name": "E4",
          "midi": 64,
          "time": 61.62156000000006,
          "velocity": 0.47244094488188976,
          "duration": 0.3986482500000008
        },
        {
          "name": "E4",
          "midi": 64,
          "time": 62.02696500000006,
          "velocity": 0.47244094488188976,
          "duration": 0.19594574999999992
        },
        {
          "name": "B3",
          "midi": 59,
          "time": 62.02696500000006,
          "velocity": 0.47244094488188976,
          "duration": 0.19594574999999992
        },
        {
          "name": "G#3",
          "midi": 56,
          "time": 62.02696500000006,
          "velocity": 0.47244094488188976,
          "duration": 0.19594574999999992
        },
        {
          "name": "E3",
          "midi": 52,
          "time": 62.02696500000006,
          "velocity": 0.47244094488188976,
          "duration": 0.19594574999999992
        },
        {
          "name": "B2",
          "midi": 47,
          "time": 62.02696500000006,
          "velocity": 0.47244094488188976,
          "duration": 0.19594574999999992
        },
        {
          "name": "E2",
          "midi": 40,
          "time": 62.02696500000006,
          "velocity": 0.47244094488188976,
          "duration": 0.19594574999999992
        },
        {
          "name": "E4",
          "midi": 64,
          "time": 62.22966750000006,
          "velocity": 0.47244094488188976,
          "duration": 0.19594574999999992
        },
        {
          "name": "B3",
          "midi": 59,
          "time": 62.22966750000006,
          "velocity": 0.47244094488188976,
          "duration": 0.19594574999999992
        },
        {
          "name": "G#3",
          "midi": 56,
          "time": 62.22966750000006,
          "velocity": 0.47244094488188976,
          "duration": 0.19594574999999992
        },
        {
          "name": "E3",
          "midi": 52,
          "time": 62.22966750000006,
          "velocity": 0.47244094488188976,
          "duration": 0.19594574999999992
        },
        {
          "name": "B2",
          "midi": 47,
          "time": 62.22966750000006,
          "velocity": 0.47244094488188976,
          "duration": 0.19594574999999992
        },
        {
          "name": "E2",
          "midi": 40,
          "time": 62.22966750000006,
          "velocity": 0.47244094488188976,
          "duration": 0.19594574999999992
        },
        {
          "name": "E4",
          "midi": 64,
          "time": 62.43237000000006,
          "velocity": 0.47244094488188976,
          "duration": 0.3986482500000008
        },
        {
          "name": "B3",
          "midi": 59,
          "time": 62.43237000000006,
          "velocity": 0.47244094488188976,
          "duration": 0.3986482500000008
        },
        {
          "name": "G#3",
          "midi": 56,
          "time": 62.43237000000006,
          "velocity": 0.47244094488188976,
          "duration": 0.3986482500000008
        },
        {
          "name": "E3",
          "midi": 52,
          "time": 62.43237000000006,
          "velocity": 0.47244094488188976,
          "duration": 0.3986482500000008
        },
        {
          "name": "B2",
          "midi": 47,
          "time": 62.43237000000006,
          "velocity": 0.47244094488188976,
          "duration": 0.3986482500000008
        },
        {
          "name": "E2",
          "midi": 40,
          "time": 62.43237000000006,
          "velocity": 0.47244094488188976,
          "duration": 0.3986482500000008
        },
        {
          "name": "E4",
          "midi": 64,
          "time": 62.837775000000065,
          "velocity": 0.47244094488188976,
          "duration": 0.19594574999999992
        },
        {
          "name": "B3",
          "midi": 59,
          "time": 62.837775000000065,
          "velocity": 0.47244094488188976,
          "duration": 0.19594574999999992
        },
        {
          "name": "G#3",
          "midi": 56,
          "time": 62.837775000000065,
          "velocity": 0.47244094488188976,
          "duration": 0.19594574999999992
        },
        {
          "name": "E3",
          "midi": 52,
          "time": 62.837775000000065,
          "velocity": 0.47244094488188976,
          "duration": 0.19594574999999992
        },
        {
          "name": "B2",
          "midi": 47,
          "time": 62.837775000000065,
          "velocity": 0.47244094488188976,
          "duration": 0.19594574999999992
        },
        {
          "name": "E2",
          "midi": 40,
          "time": 62.837775000000065,
          "velocity": 0.47244094488188976,
          "duration": 0.19594574999999992
        },
        {
          "name": "E4",
          "midi": 64,
          "time": 63.040477500000065,
          "velocity": 0.47244094488188976,
          "duration": 0.19594574999999992
        },
        {
          "name": "B3",
          "midi": 59,
          "time": 63.040477500000065,
          "velocity": 0.47244094488188976,
          "duration": 0.19594574999999992
        },
        {
          "name": "G#3",
          "midi": 56,
          "time": 63.040477500000065,
          "velocity": 0.47244094488188976,
          "duration": 0.19594574999999992
        },
        {
          "name": "E3",
          "midi": 52,
          "time": 63.040477500000065,
          "velocity": 0.47244094488188976,
          "duration": 0.19594574999999992
        },
        {
          "name": "B2",
          "midi": 47,
          "time": 63.040477500000065,
          "velocity": 0.47244094488188976,
          "duration": 0.19594574999999992
        },
        {
          "name": "E2",
          "midi": 40,
          "time": 63.040477500000065,
          "velocity": 0.47244094488188976,
          "duration": 0.19594574999999992
        },
        {
          "name": "E4",
          "midi": 64,
          "time": 63.243180000000066,
          "velocity": 0.47244094488188976,
          "duration": 1.614863249999999
        },
        {
          "name": "B3",
          "midi": 59,
          "time": 63.243180000000066,
          "velocity": 0.47244094488188976,
          "duration": 1.614863249999999
        },
        {
          "name": "G#3",
          "midi": 56,
          "time": 63.243180000000066,
          "velocity": 0.47244094488188976,
          "duration": 1.614863249999999
        },
        {
          "name": "E3",
          "midi": 52,
          "time": 63.243180000000066,
          "velocity": 0.47244094488188976,
          "duration": 1.614863249999999
        },
        {
          "name": "B2",
          "midi": 47,
          "time": 63.243180000000066,
          "velocity": 0.47244094488188976,
          "duration": 1.614863249999999
        },
        {
          "name": "E2",
          "midi": 40,
          "time": 63.243180000000066,
          "velocity": 0.47244094488188976,
          "duration": 1.614863249999999
        },
        {
          "name": "G2",
          "midi": 43,
          "time": 64.86480000000006,
          "velocity": 0.47244094488188976,
          "duration": 0.3986482499999937
        },
        {
          "name": "D3",
          "midi": 50,
          "time": 64.86480000000006,
          "velocity": 0.47244094488188976,
          "duration": 0.3986482499999937
        },
        {
          "name": "G3",
          "midi": 55,
          "time": 64.86480000000006,
          "velocity": 0.47244094488188976,
          "duration": 0.3986482499999937
        },
        {
          "name": "B3",
          "midi": 59,
          "time": 64.86480000000006,
          "velocity": 0.47244094488188976,
          "duration": 0.3986482499999937
        },
        {
          "name": "D4",
          "midi": 62,
          "time": 64.86480000000006,
          "velocity": 0.47244094488188976,
          "duration": 0.3986482499999937
        },
        {
          "name": "G4",
          "midi": 67,
          "time": 64.86480000000006,
          "velocity": 0.47244094488188976,
          "duration": 0.3986482499999937
        },
        {
          "name": "G4",
          "midi": 67,
          "time": 65.27020500000005,
          "velocity": 0.47244094488188976,
          "duration": 0.19594575000000702
        },
        {
          "name": "D4",
          "midi": 62,
          "time": 65.27020500000005,
          "velocity": 0.47244094488188976,
          "duration": 0.19594575000000702
        },
        {
          "name": "B3",
          "midi": 59,
          "time": 65.27020500000005,
          "velocity": 0.47244094488188976,
          "duration": 0.19594575000000702
        },
        {
          "name": "G3",
          "midi": 55,
          "time": 65.27020500000005,
          "velocity": 0.47244094488188976,
          "duration": 0.19594575000000702
        },
        {
          "name": "D3",
          "midi": 50,
          "time": 65.27020500000005,
          "velocity": 0.47244094488188976,
          "duration": 0.19594575000000702
        },
        {
          "name": "G2",
          "midi": 43,
          "time": 65.27020500000005,
          "velocity": 0.47244094488188976,
          "duration": 0.19594575000000702
        },
        {
          "name": "G4",
          "midi": 67,
          "time": 65.47290750000005,
          "velocity": 0.47244094488188976,
          "duration": 0.19594575000000702
        },
        {
          "name": "D4",
          "midi": 62,
          "time": 65.47290750000005,
          "velocity": 0.47244094488188976,
          "duration": 0.19594575000000702
        },
        {
          "name": "B3",
          "midi": 59,
          "time": 65.47290750000005,
          "velocity": 0.47244094488188976,
          "duration": 0.19594575000000702
        },
        {
          "name": "G3",
          "midi": 55,
          "time": 65.47290750000005,
          "velocity": 0.47244094488188976,
          "duration": 0.19594575000000702
        },
        {
          "name": "D3",
          "midi": 50,
          "time": 65.47290750000005,
          "velocity": 0.47244094488188976,
          "duration": 0.19594575000000702
        },
        {
          "name": "G2",
          "midi": 43,
          "time": 65.47290750000005,
          "velocity": 0.47244094488188976,
          "duration": 0.19594575000000702
        },
        {
          "name": "G4",
          "midi": 67,
          "time": 65.67561000000005,
          "velocity": 0.47244094488188976,
          "duration": 0.3986482499999937
        },
        {
          "name": "D4",
          "midi": 62,
          "time": 65.67561000000005,
          "velocity": 0.47244094488188976,
          "duration": 0.3986482499999937
        },
        {
          "name": "B3",
          "midi": 59,
          "time": 65.67561000000005,
          "velocity": 0.47244094488188976,
          "duration": 0.3986482499999937
        },
        {
          "name": "G3",
          "midi": 55,
          "time": 65.67561000000005,
          "velocity": 0.47244094488188976,
          "duration": 0.3986482499999937
        },
        {
          "name": "D3",
          "midi": 50,
          "time": 65.67561000000005,
          "velocity": 0.47244094488188976,
          "duration": 0.3986482499999937
        },
        {
          "name": "G2",
          "midi": 43,
          "time": 65.67561000000005,
          "velocity": 0.47244094488188976,
          "duration": 0.3986482499999937
        },
        {
          "name": "G4",
          "midi": 67,
          "time": 66.08101500000004,
          "velocity": 0.47244094488188976,
          "duration": 0.19594575000000702
        },
        {
          "name": "D4",
          "midi": 62,
          "time": 66.08101500000004,
          "velocity": 0.47244094488188976,
          "duration": 0.19594575000000702
        },
        {
          "name": "B3",
          "midi": 59,
          "time": 66.08101500000004,
          "velocity": 0.47244094488188976,
          "duration": 0.19594575000000702
        },
        {
          "name": "G3",
          "midi": 55,
          "time": 66.08101500000004,
          "velocity": 0.47244094488188976,
          "duration": 0.19594575000000702
        },
        {
          "name": "D3",
          "midi": 50,
          "time": 66.08101500000004,
          "velocity": 0.47244094488188976,
          "duration": 0.19594575000000702
        },
        {
          "name": "G2",
          "midi": 43,
          "time": 66.08101500000004,
          "velocity": 0.47244094488188976,
          "duration": 0.19594575000000702
        },
        {
          "name": "G4",
          "midi": 67,
          "time": 66.28371750000004,
          "velocity": 0.47244094488188976,
          "duration": 0.19594575000000702
        },
        {
          "name": "D4",
          "midi": 62,
          "time": 66.28371750000004,
          "velocity": 0.47244094488188976,
          "duration": 0.19594575000000702
        },
        {
          "name": "B3",
          "midi": 59,
          "time": 66.28371750000004,
          "velocity": 0.47244094488188976,
          "duration": 0.19594575000000702
        },
        {
          "name": "G3",
          "midi": 55,
          "time": 66.28371750000004,
          "velocity": 0.47244094488188976,
          "duration": 0.19594575000000702
        },
        {
          "name": "D3",
          "midi": 50,
          "time": 66.28371750000004,
          "velocity": 0.47244094488188976,
          "duration": 0.19594575000000702
        },
        {
          "name": "G2",
          "midi": 43,
          "time": 66.28371750000004,
          "velocity": 0.47244094488188976,
          "duration": 0.19594575000000702
        },
        {
          "name": "G4",
          "midi": 67,
          "time": 66.48642000000004,
          "velocity": 0.47244094488188976,
          "duration": 0.19594575000000702
        },
        {
          "name": "D4",
          "midi": 62,
          "time": 66.48642000000004,
          "velocity": 0.47244094488188976,
          "duration": 0.19594575000000702
        },
        {
          "name": "B3",
          "midi": 59,
          "time": 66.48642000000004,
          "velocity": 0.47244094488188976,
          "duration": 0.19594575000000702
        },
        {
          "name": "G3",
          "midi": 55,
          "time": 66.48642000000004,
          "velocity": 0.47244094488188976,
          "duration": 0.19594575000000702
        },
        {
          "name": "D3",
          "midi": 50,
          "time": 66.48642000000004,
          "velocity": 0.47244094488188976,
          "duration": 0.19594575000000702
        },
        {
          "name": "G2",
          "midi": 43,
          "time": 66.48642000000004,
          "velocity": 0.47244094488188976,
          "duration": 0.19594575000000702
        },
        {
          "name": "G4",
          "midi": 67,
          "time": 66.68912250000004,
          "velocity": 0.47244094488188976,
          "duration": 0.19594575000000702
        },
        {
          "name": "D4",
          "midi": 62,
          "time": 66.68912250000004,
          "velocity": 0.47244094488188976,
          "duration": 0.19594575000000702
        },
        {
          "name": "B3",
          "midi": 59,
          "time": 66.68912250000004,
          "velocity": 0.47244094488188976,
          "duration": 0.19594575000000702
        },
        {
          "name": "G3",
          "midi": 55,
          "time": 66.68912250000004,
          "velocity": 0.47244094488188976,
          "duration": 0.19594575000000702
        },
        {
          "name": "D3",
          "midi": 50,
          "time": 66.68912250000004,
          "velocity": 0.47244094488188976,
          "duration": 0.19594575000000702
        },
        {
          "name": "G2",
          "midi": 43,
          "time": 66.68912250000004,
          "velocity": 0.47244094488188976,
          "duration": 0.19594575000000702
        },
        {
          "name": "G4",
          "midi": 67,
          "time": 66.89182500000004,
          "velocity": 0.47244094488188976,
          "duration": 0.19594575000000702
        },
        {
          "name": "D4",
          "midi": 62,
          "time": 66.89182500000004,
          "velocity": 0.47244094488188976,
          "duration": 0.19594575000000702
        },
        {
          "name": "B3",
          "midi": 59,
          "time": 66.89182500000004,
          "velocity": 0.47244094488188976,
          "duration": 0.19594575000000702
        },
        {
          "name": "G3",
          "midi": 55,
          "time": 66.89182500000004,
          "velocity": 0.47244094488188976,
          "duration": 0.19594575000000702
        },
        {
          "name": "D3",
          "midi": 50,
          "time": 66.89182500000004,
          "velocity": 0.47244094488188976,
          "duration": 0.19594575000000702
        },
        {
          "name": "G2",
          "midi": 43,
          "time": 66.89182500000004,
          "velocity": 0.47244094488188976,
          "duration": 0.19594575000000702
        },
        {
          "name": "G4",
          "midi": 67,
          "time": 67.09452750000004,
          "velocity": 0.47244094488188976,
          "duration": 0.3986482499999937
        },
        {
          "name": "D4",
          "midi": 62,
          "time": 67.09452750000004,
          "velocity": 0.47244094488188976,
          "duration": 0.3986482499999937
        },
        {
          "name": "B3",
          "midi": 59,
          "time": 67.09452750000004,
          "velocity": 0.47244094488188976,
          "duration": 0.3986482499999937
        },
        {
          "name": "G3",
          "midi": 55,
          "time": 67.09452750000004,
          "velocity": 0.47244094488188976,
          "duration": 0.3986482499999937
        },
        {
          "name": "D3",
          "midi": 50,
          "time": 67.09452750000004,
          "velocity": 0.47244094488188976,
          "duration": 0.3986482499999937
        },
        {
          "name": "G2",
          "midi": 43,
          "time": 67.09452750000004,
          "velocity": 0.47244094488188976,
          "duration": 0.3986482499999937
        },
        {
          "name": "G4",
          "midi": 67,
          "time": 67.49993250000003,
          "velocity": 0.47244094488188976,
          "duration": 0.19594575000000702
        },
        {
          "name": "D4",
          "midi": 62,
          "time": 67.49993250000003,
          "velocity": 0.47244094488188976,
          "duration": 0.19594575000000702
        },
        {
          "name": "B3",
          "midi": 59,
          "time": 67.49993250000003,
          "velocity": 0.47244094488188976,
          "duration": 0.19594575000000702
        },
        {
          "name": "G3",
          "midi": 55,
          "time": 67.49993250000003,
          "velocity": 0.47244094488188976,
          "duration": 0.19594575000000702
        },
        {
          "name": "D3",
          "midi": 50,
          "time": 67.49993250000003,
          "velocity": 0.47244094488188976,
          "duration": 0.19594575000000702
        },
        {
          "name": "G2",
          "midi": 43,
          "time": 67.49993250000003,
          "velocity": 0.47244094488188976,
          "duration": 0.19594575000000702
        },
        {
          "name": "G4",
          "midi": 67,
          "time": 67.70263500000003,
          "velocity": 0.47244094488188976,
          "duration": 0.3986482499999937
        },
        {
          "name": "D4",
          "midi": 62,
          "time": 67.70263500000003,
          "velocity": 0.47244094488188976,
          "duration": 0.3986482499999937
        },
        {
          "name": "B3",
          "midi": 59,
          "time": 67.70263500000003,
          "velocity": 0.47244094488188976,
          "duration": 0.3986482499999937
        },
        {
          "name": "G3",
          "midi": 55,
          "time": 67.70263500000003,
          "velocity": 0.47244094488188976,
          "duration": 0.3986482499999937
        },
        {
          "name": "D3",
          "midi": 50,
          "time": 67.70263500000003,
          "velocity": 0.47244094488188976,
          "duration": 0.3986482499999937
        },
        {
          "name": "G2",
          "midi": 43,
          "time": 67.70263500000003,
          "velocity": 0.47244094488188976,
          "duration": 0.3986482499999937
        },
        {
          "name": "A2",
          "midi": 45,
          "time": 68.10804000000002,
          "velocity": 0.47244094488188976,
          "duration": 0.3986482499999937
        },
        {
          "name": "D3",
          "midi": 50,
          "time": 68.10804000000002,
          "velocity": 0.47244094488188976,
          "duration": 0.3986482499999937
        },
        {
          "name": "A3",
          "midi": 57,
          "time": 68.10804000000002,
          "velocity": 0.47244094488188976,
          "duration": 0.3986482499999937
        },
        {
          "name": "D4",
          "midi": 62,
          "time": 68.10804000000002,
          "velocity": 0.47244094488188976,
          "duration": 0.3986482499999937
        },
        {
          "name": "F#4",
          "midi": 66,
          "time": 68.10804000000002,
          "velocity": 0.47244094488188976,
          "duration": 0.3986482499999937
        },
        {
          "name": "A4",
          "midi": 69,
          "time": 68.10804000000002,
          "velocity": 0.47244094488188976,
          "duration": 0.3986482499999937
        },
        {
          "name": "A4",
          "midi": 69,
          "time": 68.513445,
          "velocity": 0.47244094488188976,
          "duration": 0.19594575000000702
        },
        {
          "name": "F#4",
          "midi": 66,
          "time": 68.513445,
          "velocity": 0.47244094488188976,
          "duration": 0.19594575000000702
        },
        {
          "name": "D4",
          "midi": 62,
          "time": 68.513445,
          "velocity": 0.47244094488188976,
          "duration": 0.19594575000000702
        },
        {
          "name": "A3",
          "midi": 57,
          "time": 68.513445,
          "velocity": 0.47244094488188976,
          "duration": 0.19594575000000702
        },
        {
          "name": "D3",
          "midi": 50,
          "time": 68.513445,
          "velocity": 0.47244094488188976,
          "duration": 0.19594575000000702
        },
        {
          "name": "A2",
          "midi": 45,
          "time": 68.513445,
          "velocity": 0.47244094488188976,
          "duration": 0.19594575000000702
        },
        {
          "name": "A4",
          "midi": 69,
          "time": 68.7161475,
          "velocity": 0.47244094488188976,
          "duration": 0.19594575000000702
        },
        {
          "name": "F#4",
          "midi": 66,
          "time": 68.7161475,
          "velocity": 0.47244094488188976,
          "duration": 0.19594575000000702
        },
        {
          "name": "D4",
          "midi": 62,
          "time": 68.7161475,
          "velocity": 0.47244094488188976,
          "duration": 0.19594575000000702
        },
        {
          "name": "A3",
          "midi": 57,
          "time": 68.7161475,
          "velocity": 0.47244094488188976,
          "duration": 0.19594575000000702
        },
        {
          "name": "D3",
          "midi": 50,
          "time": 68.7161475,
          "velocity": 0.47244094488188976,
          "duration": 0.19594575000000702
        },
        {
          "name": "A2",
          "midi": 45,
          "time": 68.7161475,
          "velocity": 0.47244094488188976,
          "duration": 0.19594575000000702
        },
        {
          "name": "A4",
          "midi": 69,
          "time": 68.91885,
          "velocity": 0.47244094488188976,
          "duration": 0.19594575000000702
        },
        {
          "name": "F#4",
          "midi": 66,
          "time": 68.91885,
          "velocity": 0.47244094488188976,
          "duration": 0.19594575000000702
        },
        {
          "name": "D4",
          "midi": 62,
          "time": 68.91885,
          "velocity": 0.47244094488188976,
          "duration": 0.19594575000000702
        },
        {
          "name": "A3",
          "midi": 57,
          "time": 68.91885,
          "velocity": 0.47244094488188976,
          "duration": 0.19594575000000702
        },
        {
          "name": "D3",
          "midi": 50,
          "time": 68.91885,
          "velocity": 0.47244094488188976,
          "duration": 0.19594575000000702
        },
        {
          "name": "A2",
          "midi": 45,
          "time": 68.91885,
          "velocity": 0.47244094488188976,
          "duration": 0.19594575000000702
        },
        {
          "name": "A4",
          "midi": 69,
          "time": 69.1215525,
          "velocity": 0.47244094488188976,
          "duration": 0.3986482499999937
        },
        {
          "name": "F#4",
          "midi": 66,
          "time": 69.1215525,
          "velocity": 0.47244094488188976,
          "duration": 0.3986482499999937
        },
        {
          "name": "D4",
          "midi": 62,
          "time": 69.1215525,
          "velocity": 0.47244094488188976,
          "duration": 0.3986482499999937
        },
        {
          "name": "A3",
          "midi": 57,
          "time": 69.1215525,
          "velocity": 0.47244094488188976,
          "duration": 0.3986482499999937
        },
        {
          "name": "D3",
          "midi": 50,
          "time": 69.1215525,
          "velocity": 0.47244094488188976,
          "duration": 0.3986482499999937
        },
        {
          "name": "A2",
          "midi": 45,
          "time": 69.1215525,
          "velocity": 0.47244094488188976,
          "duration": 0.3986482499999937
        },
        {
          "name": "A4",
          "midi": 69,
          "time": 69.5269575,
          "velocity": 0.47244094488188976,
          "duration": 0.19594575000000702
        },
        {
          "name": "F#4",
          "midi": 66,
          "time": 69.5269575,
          "velocity": 0.47244094488188976,
          "duration": 0.19594575000000702
        },
        {
          "name": "D4",
          "midi": 62,
          "time": 69.5269575,
          "velocity": 0.47244094488188976,
          "duration": 0.19594575000000702
        },
        {
          "name": "A3",
          "midi": 57,
          "time": 69.5269575,
          "velocity": 0.47244094488188976,
          "duration": 0.19594575000000702
        },
        {
          "name": "D3",
          "midi": 50,
          "time": 69.5269575,
          "velocity": 0.47244094488188976,
          "duration": 0.19594575000000702
        },
        {
          "name": "A2",
          "midi": 45,
          "time": 69.5269575,
          "velocity": 0.47244094488188976,
          "duration": 0.19594575000000702
        },
        {
          "name": "A4",
          "midi": 69,
          "time": 69.72966,
          "velocity": 0.47244094488188976,
          "duration": 1.614863249999999
        },
        {
          "name": "F#4",
          "midi": 66,
          "time": 69.72966,
          "velocity": 0.47244094488188976,
          "duration": 1.614863249999999
        },
        {
          "name": "D4",
          "midi": 62,
          "time": 69.72966,
          "velocity": 0.47244094488188976,
          "duration": 1.614863249999999
        },
        {
          "name": "A3",
          "midi": 57,
          "time": 69.72966,
          "velocity": 0.47244094488188976,
          "duration": 1.614863249999999
        },
        {
          "name": "D3",
          "midi": 50,
          "time": 69.72966,
          "velocity": 0.47244094488188976,
          "duration": 1.614863249999999
        },
        {
          "name": "A2",
          "midi": 45,
          "time": 69.72966,
          "velocity": 0.47244094488188976,
          "duration": 1.614863249999999
        },
        {
          "name": "E2",
          "midi": 40,
          "time": 71.35127999999999,
          "velocity": 0.47244094488188976,
          "duration": 0.3986482499999937
        },
        {
          "name": "B2",
          "midi": 47,
          "time": 71.35127999999999,
          "velocity": 0.47244094488188976,
          "duration": 0.3986482499999937
        },
        {
          "name": "E3",
          "midi": 52,
          "time": 71.35127999999999,
          "velocity": 0.47244094488188976,
          "duration": 0.3986482499999937
        },
        {
          "name": "G3",
          "midi": 55,
          "time": 71.35127999999999,
          "velocity": 0.47244094488188976,
          "duration": 0.3986482499999937
        },
        {
          "name": "B3",
          "midi": 59,
          "time": 71.35127999999999,
          "velocity": 0.47244094488188976,
          "duration": 0.3986482499999937
        },
        {
          "name": "E4",
          "midi": 64,
          "time": 71.35127999999999,
          "velocity": 0.47244094488188976,
          "duration": 0.3986482499999937
        },
        {
          "name": "E4",
          "midi": 64,
          "time": 71.75668499999998,
          "velocity": 0.47244094488188976,
          "duration": 0.19594575000000702
        },
        {
          "name": "B3",
          "midi": 59,
          "time": 71.75668499999998,
          "velocity": 0.47244094488188976,
          "duration": 0.19594575000000702
        },
        {
          "name": "G3",
          "midi": 55,
          "time": 71.75668499999998,
          "velocity": 0.47244094488188976,
          "duration": 0.19594575000000702
        },
        {
          "name": "E3",
          "midi": 52,
          "time": 71.75668499999998,
          "velocity": 0.47244094488188976,
          "duration": 0.19594575000000702
        },
        {
          "name": "B2",
          "midi": 47,
          "time": 71.75668499999998,
          "velocity": 0.47244094488188976,
          "duration": 0.19594575000000702
        },
        {
          "name": "E2",
          "midi": 40,
          "time": 71.75668499999998,
          "velocity": 0.47244094488188976,
          "duration": 0.19594575000000702
        },
        {
          "name": "E4",
          "midi": 64,
          "time": 71.95938749999998,
          "velocity": 0.47244094488188976,
          "duration": 0.19594575000000702
        },
        {
          "name": "B3",
          "midi": 59,
          "time": 71.95938749999998,
          "velocity": 0.47244094488188976,
          "duration": 0.19594575000000702
        },
        {
          "name": "G3",
          "midi": 55,
          "time": 71.95938749999998,
          "velocity": 0.47244094488188976,
          "duration": 0.19594575000000702
        },
        {
          "name": "E3",
          "midi": 52,
          "time": 71.95938749999998,
          "velocity": 0.47244094488188976,
          "duration": 0.19594575000000702
        },
        {
          "name": "B2",
          "midi": 47,
          "time": 71.95938749999998,
          "velocity": 0.47244094488188976,
          "duration": 0.19594575000000702
        },
        {
          "name": "E2",
          "midi": 40,
          "time": 71.95938749999998,
          "velocity": 0.47244094488188976,
          "duration": 0.19594575000000702
        },
        {
          "name": "E4",
          "midi": 64,
          "time": 72.16208999999998,
          "velocity": 0.47244094488188976,
          "duration": 0.19594575000000702
        },
        {
          "name": "B3",
          "midi": 59,
          "time": 72.16208999999998,
          "velocity": 0.47244094488188976,
          "duration": 0.19594575000000702
        },
        {
          "name": "G3",
          "midi": 55,
          "time": 72.16208999999998,
          "velocity": 0.47244094488188976,
          "duration": 0.19594575000000702
        },
        {
          "name": "E3",
          "midi": 52,
          "time": 72.16208999999998,
          "velocity": 0.47244094488188976,
          "duration": 0.19594575000000702
        },
        {
          "name": "B2",
          "midi": 47,
          "time": 72.16208999999998,
          "velocity": 0.47244094488188976,
          "duration": 0.19594575000000702
        },
        {
          "name": "E2",
          "midi": 40,
          "time": 72.16208999999998,
          "velocity": 0.47244094488188976,
          "duration": 0.19594575000000702
        },
        {
          "name": "E4",
          "midi": 64,
          "time": 72.36479249999998,
          "velocity": 0.47244094488188976,
          "duration": 0.19594575000000702
        },
        {
          "name": "B3",
          "midi": 59,
          "time": 72.36479249999998,
          "velocity": 0.47244094488188976,
          "duration": 0.19594575000000702
        },
        {
          "name": "G3",
          "midi": 55,
          "time": 72.36479249999998,
          "velocity": 0.47244094488188976,
          "duration": 0.19594575000000702
        },
        {
          "name": "E3",
          "midi": 52,
          "time": 72.36479249999998,
          "velocity": 0.47244094488188976,
          "duration": 0.19594575000000702
        },
        {
          "name": "B2",
          "midi": 47,
          "time": 72.36479249999998,
          "velocity": 0.47244094488188976,
          "duration": 0.19594575000000702
        },
        {
          "name": "E2",
          "midi": 40,
          "time": 72.36479249999998,
          "velocity": 0.47244094488188976,
          "duration": 0.19594575000000702
        },
        {
          "name": "E4",
          "midi": 64,
          "time": 72.56749499999998,
          "velocity": 0.47244094488188976,
          "duration": 0.3986482499999937
        },
        {
          "name": "B3",
          "midi": 59,
          "time": 72.56749499999998,
          "velocity": 0.47244094488188976,
          "duration": 0.3986482499999937
        },
        {
          "name": "G3",
          "midi": 55,
          "time": 72.56749499999998,
          "velocity": 0.47244094488188976,
          "duration": 0.3986482499999937
        },
        {
          "name": "E3",
          "midi": 52,
          "time": 72.56749499999998,
          "velocity": 0.47244094488188976,
          "duration": 0.3986482499999937
        },
        {
          "name": "B2",
          "midi": 47,
          "time": 72.56749499999998,
          "velocity": 0.47244094488188976,
          "duration": 0.3986482499999937
        },
        {
          "name": "E2",
          "midi": 40,
          "time": 72.56749499999998,
          "velocity": 0.47244094488188976,
          "duration": 0.3986482499999937
        },
        {
          "name": "E4",
          "midi": 64,
          "time": 72.97289999999997,
          "velocity": 0.47244094488188976,
          "duration": 0.3986482499999937
        },
        {
          "name": "B3",
          "midi": 59,
          "time": 72.97289999999997,
          "velocity": 0.47244094488188976,
          "duration": 0.3986482499999937
        },
        {
          "name": "G3",
          "midi": 55,
          "time": 72.97289999999997,
          "velocity": 0.47244094488188976,
          "duration": 0.3986482499999937
        },
        {
          "name": "E3",
          "midi": 52,
          "time": 72.97289999999997,
          "velocity": 0.47244094488188976,
          "duration": 0.3986482499999937
        },
        {
          "name": "B2",
          "midi": 47,
          "time": 72.97289999999997,
          "velocity": 0.47244094488188976,
          "duration": 0.3986482499999937
        },
        {
          "name": "E2",
          "midi": 40,
          "time": 72.97289999999997,
          "velocity": 0.47244094488188976,
          "duration": 0.3986482499999937
        },
        {
          "name": "E4",
          "midi": 64,
          "time": 73.37830499999995,
          "velocity": 0.47244094488188976,
          "duration": 0.3986482499999937
        },
        {
          "name": "B3",
          "midi": 59,
          "time": 73.37830499999995,
          "velocity": 0.47244094488188976,
          "duration": 0.3986482499999937
        },
        {
          "name": "G3",
          "midi": 55,
          "time": 73.37830499999995,
          "velocity": 0.47244094488188976,
          "duration": 0.3986482499999937
        },
        {
          "name": "E3",
          "midi": 52,
          "time": 73.37830499999995,
          "velocity": 0.47244094488188976,
          "duration": 0.3986482499999937
        },
        {
          "name": "B2",
          "midi": 47,
          "time": 73.37830499999995,
          "velocity": 0.47244094488188976,
          "duration": 0.3986482499999937
        },
        {
          "name": "E2",
          "midi": 40,
          "time": 73.37830499999995,
          "velocity": 0.47244094488188976,
          "duration": 0.3986482499999937
        },
        {
          "name": "E4",
          "midi": 64,
          "time": 73.78370999999994,
          "velocity": 0.47244094488188976,
          "duration": 0.19594575000000702
        },
        {
          "name": "B3",
          "midi": 59,
          "time": 73.78370999999994,
          "velocity": 0.47244094488188976,
          "duration": 0.19594575000000702
        },
        {
          "name": "G3",
          "midi": 55,
          "time": 73.78370999999994,
          "velocity": 0.47244094488188976,
          "duration": 0.19594575000000702
        },
        {
          "name": "E3",
          "midi": 52,
          "time": 73.78370999999994,
          "velocity": 0.47244094488188976,
          "duration": 0.19594575000000702
        },
        {
          "name": "B2",
          "midi": 47,
          "time": 73.78370999999994,
          "velocity": 0.47244094488188976,
          "duration": 0.19594575000000702
        },
        {
          "name": "E2",
          "midi": 40,
          "time": 73.78370999999994,
          "velocity": 0.47244094488188976,
          "duration": 0.19594575000000702
        },
        {
          "name": "E4",
          "midi": 64,
          "time": 73.98641249999994,
          "velocity": 0.47244094488188976,
          "duration": 0.19594575000000702
        },
        {
          "name": "B3",
          "midi": 59,
          "time": 73.98641249999994,
          "velocity": 0.47244094488188976,
          "duration": 0.19594575000000702
        },
        {
          "name": "G3",
          "midi": 55,
          "time": 73.98641249999994,
          "velocity": 0.47244094488188976,
          "duration": 0.19594575000000702
        },
        {
          "name": "E3",
          "midi": 52,
          "time": 73.98641249999994,
          "velocity": 0.47244094488188976,
          "duration": 0.19594575000000702
        },
        {
          "name": "B2",
          "midi": 47,
          "time": 73.98641249999994,
          "velocity": 0.47244094488188976,
          "duration": 0.19594575000000702
        },
        {
          "name": "E2",
          "midi": 40,
          "time": 73.98641249999994,
          "velocity": 0.47244094488188976,
          "duration": 0.19594575000000702
        },
        {
          "name": "E4",
          "midi": 64,
          "time": 74.18911499999994,
          "velocity": 0.47244094488188976,
          "duration": 0.3986482499999937
        },
        {
          "name": "B3",
          "midi": 59,
          "time": 74.18911499999994,
          "velocity": 0.47244094488188976,
          "duration": 0.3986482499999937
        },
        {
          "name": "G3",
          "midi": 55,
          "time": 74.18911499999994,
          "velocity": 0.47244094488188976,
          "duration": 0.3986482499999937
        },
        {
          "name": "E3",
          "midi": 52,
          "time": 74.18911499999994,
          "velocity": 0.47244094488188976,
          "duration": 0.3986482499999937
        },
        {
          "name": "B2",
          "midi": 47,
          "time": 74.18911499999994,
          "velocity": 0.47244094488188976,
          "duration": 0.3986482499999937
        },
        {
          "name": "E2",
          "midi": 40,
          "time": 74.18911499999994,
          "velocity": 0.47244094488188976,
          "duration": 0.3986482499999937
        },
        {
          "name": "F#2",
          "midi": 42,
          "time": 74.59451999999993,
          "velocity": 0.47244094488188976,
          "duration": 0.3986482499999937
        },
        {
          "name": "C#3",
          "midi": 49,
          "time": 74.59451999999993,
          "velocity": 0.47244094488188976,
          "duration": 0.3986482499999937
        },
        {
          "name": "F#3",
          "midi": 54,
          "time": 74.59451999999993,
          "velocity": 0.47244094488188976,
          "duration": 0.3986482499999937
        },
        {
          "name": "A#3",
          "midi": 58,
          "time": 74.59451999999993,
          "velocity": 0.47244094488188976,
          "duration": 0.3986482499999937
        },
        {
          "name": "C#4",
          "midi": 61,
          "time": 74.59451999999993,
          "velocity": 0.47244094488188976,
          "duration": 0.3986482499999937
        },
        {
          "name": "F#4",
          "midi": 66,
          "time": 74.59451999999993,
          "velocity": 0.47244094488188976,
          "duration": 0.3986482499999937
        },
        {
          "name": "F#4",
          "midi": 66,
          "time": 74.99992499999992,
          "velocity": 0.47244094488188976,
          "duration": 0.19594575000000702
        },
        {
          "name": "C#4",
          "midi": 61,
          "time": 74.99992499999992,
          "velocity": 0.47244094488188976,
          "duration": 0.19594575000000702
        },
        {
          "name": "A#3",
          "midi": 58,
          "time": 74.99992499999992,
          "velocity": 0.47244094488188976,
          "duration": 0.19594575000000702
        },
        {
          "name": "F#3",
          "midi": 54,
          "time": 74.99992499999992,
          "velocity": 0.47244094488188976,
          "duration": 0.19594575000000702
        },
        {
          "name": "C#3",
          "midi": 49,
          "time": 74.99992499999992,
          "velocity": 0.47244094488188976,
          "duration": 0.19594575000000702
        },
        {
          "name": "F#2",
          "midi": 42,
          "time": 74.99992499999992,
          "velocity": 0.47244094488188976,
          "duration": 0.19594575000000702
        },
        {
          "name": "F#4",
          "midi": 66,
          "time": 75.20262749999992,
          "velocity": 0.47244094488188976,
          "duration": 0.19594575000000702
        },
        {
          "name": "C#4",
          "midi": 61,
          "time": 75.20262749999992,
          "velocity": 0.47244094488188976,
          "duration": 0.19594575000000702
        },
        {
          "name": "A#3",
          "midi": 58,
          "time": 75.20262749999992,
          "velocity": 0.47244094488188976,
          "duration": 0.19594575000000702
        },
        {
          "name": "F#3",
          "midi": 54,
          "time": 75.20262749999992,
          "velocity": 0.47244094488188976,
          "duration": 0.19594575000000702
        },
        {
          "name": "C#3",
          "midi": 49,
          "time": 75.20262749999992,
          "velocity": 0.47244094488188976,
          "duration": 0.19594575000000702
        },
        {
          "name": "F#2",
          "midi": 42,
          "time": 75.20262749999992,
          "velocity": 0.47244094488188976,
          "duration": 0.19594575000000702
        },
        {
          "name": "F#4",
          "midi": 66,
          "time": 75.40532999999992,
          "velocity": 0.47244094488188976,
          "duration": 0.19594575000000702
        },
        {
          "name": "C#4",
          "midi": 61,
          "time": 75.40532999999992,
          "velocity": 0.47244094488188976,
          "duration": 0.19594575000000702
        },
        {
          "name": "A#3",
          "midi": 58,
          "time": 75.40532999999992,
          "velocity": 0.47244094488188976,
          "duration": 0.19594575000000702
        },
        {
          "name": "F#3",
          "midi": 54,
          "time": 75.40532999999992,
          "velocity": 0.47244094488188976,
          "duration": 0.19594575000000702
        },
        {
          "name": "C#3",
          "midi": 49,
          "time": 75.40532999999992,
          "velocity": 0.47244094488188976,
          "duration": 0.19594575000000702
        },
        {
          "name": "F#2",
          "midi": 42,
          "time": 75.40532999999992,
          "velocity": 0.47244094488188976,
          "duration": 0.19594575000000702
        },
        {
          "name": "F#4",
          "midi": 66,
          "time": 75.60803249999992,
          "velocity": 0.47244094488188976,
          "duration": 0.3986482499999937
        },
        {
          "name": "C#4",
          "midi": 61,
          "time": 75.60803249999992,
          "velocity": 0.47244094488188976,
          "duration": 0.3986482499999937
        },
        {
          "name": "A#3",
          "midi": 58,
          "time": 75.60803249999992,
          "velocity": 0.47244094488188976,
          "duration": 0.3986482499999937
        },
        {
          "name": "F#3",
          "midi": 54,
          "time": 75.60803249999992,
          "velocity": 0.47244094488188976,
          "duration": 0.3986482499999937
        },
        {
          "name": "C#3",
          "midi": 49,
          "time": 75.60803249999992,
          "velocity": 0.47244094488188976,
          "duration": 0.3986482499999937
        },
        {
          "name": "F#2",
          "midi": 42,
          "time": 75.60803249999992,
          "velocity": 0.47244094488188976,
          "duration": 0.3986482499999937
        },
        {
          "name": "F#4",
          "midi": 66,
          "time": 76.01343749999991,
          "velocity": 0.47244094488188976,
          "duration": 0.19594575000000702
        },
        {
          "name": "C#4",
          "midi": 61,
          "time": 76.01343749999991,
          "velocity": 0.47244094488188976,
          "duration": 0.19594575000000702
        },
        {
          "name": "A#3",
          "midi": 58,
          "time": 76.01343749999991,
          "velocity": 0.47244094488188976,
          "duration": 0.19594575000000702
        },
        {
          "name": "F#3",
          "midi": 54,
          "time": 76.01343749999991,
          "velocity": 0.47244094488188976,
          "duration": 0.19594575000000702
        },
        {
          "name": "C#3",
          "midi": 49,
          "time": 76.01343749999991,
          "velocity": 0.47244094488188976,
          "duration": 0.19594575000000702
        },
        {
          "name": "F#2",
          "midi": 42,
          "time": 76.01343749999991,
          "velocity": 0.47244094488188976,
          "duration": 0.19594575000000702
        },
        {
          "name": "F#4",
          "midi": 66,
          "time": 76.21613999999991,
          "velocity": 0.47244094488188976,
          "duration": 1.614863249999999
        },
        {
          "name": "C#4",
          "midi": 61,
          "time": 76.21613999999991,
          "velocity": 0.47244094488188976,
          "duration": 1.614863249999999
        },
        {
          "name": "A#3",
          "midi": 58,
          "time": 76.21613999999991,
          "velocity": 0.47244094488188976,
          "duration": 1.614863249999999
        },
        {
          "name": "F#3",
          "midi": 54,
          "time": 76.21613999999991,
          "velocity": 0.47244094488188976,
          "duration": 1.614863249999999
        },
        {
          "name": "C#3",
          "midi": 49,
          "time": 76.21613999999991,
          "velocity": 0.47244094488188976,
          "duration": 1.614863249999999
        },
        {
          "name": "F#2",
          "midi": 42,
          "time": 76.21613999999991,
          "velocity": 0.47244094488188976,
          "duration": 1.614863249999999
        },
        {
          "name": "F#3",
          "midi": 54,
          "time": 77.8377599999999,
          "velocity": 0.47244094488188976,
          "duration": 0.3986482499999937
        },
        {
          "name": "B2",
          "midi": 47,
          "time": 77.8377599999999,
          "velocity": 0.47244094488188976,
          "duration": 0.3986482499999937
        },
        {
          "name": "F#2",
          "midi": 42,
          "time": 77.8377599999999,
          "velocity": 0.47244094488188976,
          "duration": 0.3986482499999937
        },
        {
          "name": "B3",
          "midi": 59,
          "time": 77.8377599999999,
          "velocity": 0.47244094488188976,
          "duration": 0.3986482499999937
        },
        {
          "name": "D4",
          "midi": 62,
          "time": 77.8377599999999,
          "velocity": 0.47244094488188976,
          "duration": 0.3986482499999937
        },
        {
          "name": "F#4",
          "midi": 66,
          "time": 77.8377599999999,
          "velocity": 0.47244094488188976,
          "duration": 0.3986482499999937
        },
        {
          "name": "F#4",
          "midi": 66,
          "time": 78.24316499999989,
          "velocity": 0.47244094488188976,
          "duration": 0.19594575000000702
        },
        {
          "name": "B3",
          "midi": 59,
          "time": 78.24316499999989,
          "velocity": 0.47244094488188976,
          "duration": 0.19594575000000702
        },
        {
          "name": "D4",
          "midi": 62,
          "time": 78.24316499999989,
          "velocity": 0.47244094488188976,
          "duration": 0.19594575000000702
        },
        {
          "name": "F#3",
          "midi": 54,
          "time": 78.24316499999989,
          "velocity": 0.47244094488188976,
          "duration": 0.19594575000000702
        },
        {
          "name": "B2",
          "midi": 47,
          "time": 78.24316499999989,
          "velocity": 0.47244094488188976,
          "duration": 0.19594575000000702
        },
        {
          "name": "F#2",
          "midi": 42,
          "time": 78.24316499999989,
          "velocity": 0.47244094488188976,
          "duration": 0.19594575000000702
        },
        {
          "name": "F#4",
          "midi": 66,
          "time": 78.44586749999989,
          "velocity": 0.47244094488188976,
          "duration": 0.19594575000000702
        },
        {
          "name": "B3",
          "midi": 59,
          "time": 78.44586749999989,
          "velocity": 0.47244094488188976,
          "duration": 0.19594575000000702
        },
        {
          "name": "D4",
          "midi": 62,
          "time": 78.44586749999989,
          "velocity": 0.47244094488188976,
          "duration": 0.19594575000000702
        },
        {
          "name": "F#3",
          "midi": 54,
          "time": 78.44586749999989,
          "velocity": 0.47244094488188976,
          "duration": 0.19594575000000702
        },
        {
          "name": "B2",
          "midi": 47,
          "time": 78.44586749999989,
          "velocity": 0.47244094488188976,
          "duration": 0.19594575000000702
        },
        {
          "name": "F#2",
          "midi": 42,
          "time": 78.44586749999989,
          "velocity": 0.47244094488188976,
          "duration": 0.19594575000000702
        },
        {
          "name": "F#4",
          "midi": 66,
          "time": 78.64856999999989,
          "velocity": 0.47244094488188976,
          "duration": 0.3986482499999937
        },
        {
          "name": "D4",
          "midi": 62,
          "time": 78.64856999999989,
          "velocity": 0.47244094488188976,
          "duration": 0.3986482499999937
        },
        {
          "name": "B3",
          "midi": 59,
          "time": 78.64856999999989,
          "velocity": 0.47244094488188976,
          "duration": 0.3986482499999937
        },
        {
          "name": "F#3",
          "midi": 54,
          "time": 78.64856999999989,
          "velocity": 0.47244094488188976,
          "duration": 0.3986482499999937
        },
        {
          "name": "B2",
          "midi": 47,
          "time": 78.64856999999989,
          "velocity": 0.47244094488188976,
          "duration": 0.3986482499999937
        },
        {
          "name": "F#2",
          "midi": 42,
          "time": 78.64856999999989,
          "velocity": 0.47244094488188976,
          "duration": 0.3986482499999937
        },
        {
          "name": "F#4",
          "midi": 66,
          "time": 79.05397499999988,
          "velocity": 0.47244094488188976,
          "duration": 0.19594575000000702
        },
        {
          "name": "D4",
          "midi": 62,
          "time": 79.05397499999988,
          "velocity": 0.47244094488188976,
          "duration": 0.19594575000000702
        },
        {
          "name": "B3",
          "midi": 59,
          "time": 79.05397499999988,
          "velocity": 0.47244094488188976,
          "duration": 0.19594575000000702
        },
        {
          "name": "F#3",
          "midi": 54,
          "time": 79.05397499999988,
          "velocity": 0.47244094488188976,
          "duration": 0.19594575000000702
        },
        {
          "name": "B2",
          "midi": 47,
          "time": 79.05397499999988,
          "velocity": 0.47244094488188976,
          "duration": 0.19594575000000702
        },
        {
          "name": "F#2",
          "midi": 42,
          "time": 79.05397499999988,
          "velocity": 0.47244094488188976,
          "duration": 0.19594575000000702
        },
        {
          "name": "F#4",
          "midi": 66,
          "time": 79.25667749999988,
          "velocity": 0.47244094488188976,
          "duration": 0.19594575000000702
        },
        {
          "name": "D4",
          "midi": 62,
          "time": 79.25667749999988,
          "velocity": 0.47244094488188976,
          "duration": 0.19594575000000702
        },
        {
          "name": "B3",
          "midi": 59,
          "time": 79.25667749999988,
          "velocity": 0.47244094488188976,
          "duration": 0.19594575000000702
        },
        {
          "name": "F#3",
          "midi": 54,
          "time": 79.25667749999988,
          "velocity": 0.47244094488188976,
          "duration": 0.19594575000000702
        },
        {
          "name": "B2",
          "midi": 47,
          "time": 79.25667749999988,
          "velocity": 0.47244094488188976,
          "duration": 0.19594575000000702
        },
        {
          "name": "F#2",
          "midi": 42,
          "time": 79.25667749999988,
          "velocity": 0.47244094488188976,
          "duration": 0.19594575000000702
        },
        {
          "name": "F#4",
          "midi": 66,
          "time": 79.45937999999988,
          "velocity": 0.47244094488188976,
          "duration": 0.19594575000000702
        },
        {
          "name": "D4",
          "midi": 62,
          "time": 79.45937999999988,
          "velocity": 0.47244094488188976,
          "duration": 0.19594575000000702
        },
        {
          "name": "B3",
          "midi": 59,
          "time": 79.45937999999988,
          "velocity": 0.47244094488188976,
          "duration": 0.19594575000000702
        },
        {
          "name": "F#3",
          "midi": 54,
          "time": 79.45937999999988,
          "velocity": 0.47244094488188976,
          "duration": 0.19594575000000702
        },
        {
          "name": "B2",
          "midi": 47,
          "time": 79.45937999999988,
          "velocity": 0.47244094488188976,
          "duration": 0.19594575000000702
        },
        {
          "name": "F#2",
          "midi": 42,
          "time": 79.45937999999988,
          "velocity": 0.47244094488188976,
          "duration": 0.19594575000000702
        },
        {
          "name": "F#4",
          "midi": 66,
          "time": 79.66208249999988,
          "velocity": 0.47244094488188976,
          "duration": 0.19594575000000702
        },
        {
          "name": "D4",
          "midi": 62,
          "time": 79.66208249999988,
          "velocity": 0.47244094488188976,
          "duration": 0.19594575000000702
        },
        {
          "name": "B3",
          "midi": 59,
          "time": 79.66208249999988,
          "velocity": 0.47244094488188976,
          "duration": 0.19594575000000702
        },
        {
          "name": "F#3",
          "midi": 54,
          "time": 79.66208249999988,
          "velocity": 0.47244094488188976,
          "duration": 0.19594575000000702
        },
        {
          "name": "B2",
          "midi": 47,
          "time": 79.66208249999988,
          "velocity": 0.47244094488188976,
          "duration": 0.19594575000000702
        },
        {
          "name": "F#2",
          "midi": 42,
          "time": 79.66208249999988,
          "velocity": 0.47244094488188976,
          "duration": 0.19594575000000702
        },
        {
          "name": "F#4",
          "midi": 66,
          "time": 79.86478499999988,
          "velocity": 0.47244094488188976,
          "duration": 0.19594575000000702
        },
        {
          "name": "D4",
          "midi": 62,
          "time": 79.86478499999988,
          "velocity": 0.47244094488188976,
          "duration": 0.19594575000000702
        },
        {
          "name": "B3",
          "midi": 59,
          "time": 79.86478499999988,
          "velocity": 0.47244094488188976,
          "duration": 0.19594575000000702
        },
        {
          "name": "F#3",
          "midi": 54,
          "time": 79.86478499999988,
          "velocity": 0.47244094488188976,
          "duration": 0.19594575000000702
        },
        {
          "name": "B2",
          "midi": 47,
          "time": 79.86478499999988,
          "velocity": 0.47244094488188976,
          "duration": 0.19594575000000702
        },
        {
          "name": "F#2",
          "midi": 42,
          "time": 79.86478499999988,
          "velocity": 0.47244094488188976,
          "duration": 0.19594575000000702
        },
        {
          "name": "F#4",
          "midi": 66,
          "time": 80.06748749999988,
          "velocity": 0.47244094488188976,
          "duration": 0.3986482499999937
        },
        {
          "name": "D4",
          "midi": 62,
          "time": 80.06748749999988,
          "velocity": 0.47244094488188976,
          "duration": 0.3986482499999937
        },
        {
          "name": "B3",
          "midi": 59,
          "time": 80.06748749999988,
          "velocity": 0.47244094488188976,
          "duration": 0.3986482499999937
        },
        {
          "name": "F#3",
          "midi": 54,
          "time": 80.06748749999988,
          "velocity": 0.47244094488188976,
          "duration": 0.3986482499999937
        },
        {
          "name": "B2",
          "midi": 47,
          "time": 80.06748749999988,
          "velocity": 0.47244094488188976,
          "duration": 0.3986482499999937
        },
        {
          "name": "F#2",
          "midi": 42,
          "time": 80.06748749999988,
          "velocity": 0.47244094488188976,
          "duration": 0.3986482499999937
        },
        {
          "name": "F#4",
          "midi": 66,
          "time": 80.47289249999987,
          "velocity": 0.47244094488188976,
          "duration": 0.19594575000000702
        },
        {
          "name": "D4",
          "midi": 62,
          "time": 80.47289249999987,
          "velocity": 0.47244094488188976,
          "duration": 0.19594575000000702
        },
        {
          "name": "B3",
          "midi": 59,
          "time": 80.47289249999987,
          "velocity": 0.47244094488188976,
          "duration": 0.19594575000000702
        },
        {
          "name": "F#3",
          "midi": 54,
          "time": 80.47289249999987,
          "velocity": 0.47244094488188976,
          "duration": 0.19594575000000702
        },
        {
          "name": "B2",
          "midi": 47,
          "time": 80.47289249999987,
          "velocity": 0.47244094488188976,
          "duration": 0.19594575000000702
        },
        {
          "name": "F#2",
          "midi": 42,
          "time": 80.47289249999987,
          "velocity": 0.47244094488188976,
          "duration": 0.19594575000000702
        },
        {
          "name": "F#4",
          "midi": 66,
          "time": 80.67559499999987,
          "velocity": 0.47244094488188976,
          "duration": 0.3986482499999937
        },
        {
          "name": "D4",
          "midi": 62,
          "time": 80.67559499999987,
          "velocity": 0.47244094488188976,
          "duration": 0.3986482499999937
        },
        {
          "name": "B3",
          "midi": 59,
          "time": 80.67559499999987,
          "velocity": 0.47244094488188976,
          "duration": 0.3986482499999937
        },
        {
          "name": "F#3",
          "midi": 54,
          "time": 80.67559499999987,
          "velocity": 0.47244094488188976,
          "duration": 0.3986482499999937
        },
        {
          "name": "B2",
          "midi": 47,
          "time": 80.67559499999987,
          "velocity": 0.47244094488188976,
          "duration": 0.3986482499999937
        },
        {
          "name": "F#2",
          "midi": 42,
          "time": 80.67559499999987,
          "velocity": 0.47244094488188976,
          "duration": 0.3986482499999937
        },
        {
          "name": "F#2",
          "midi": 42,
          "time": 81.08099999999986,
          "velocity": 0.47244094488188976,
          "duration": 0.3986482499999937
        },
        {
          "name": "C#3",
          "midi": 49,
          "time": 81.08099999999986,
          "velocity": 0.47244094488188976,
          "duration": 0.3986482499999937
        },
        {
          "name": "F#3",
          "midi": 54,
          "time": 81.08099999999986,
          "velocity": 0.47244094488188976,
          "duration": 0.3986482499999937
        },
        {
          "name": "A#3",
          "midi": 58,
          "time": 81.08099999999986,
          "velocity": 0.47244094488188976,
          "duration": 0.3986482499999937
        },
        {
          "name": "C#4",
          "midi": 61,
          "time": 81.08099999999986,
          "velocity": 0.47244094488188976,
          "duration": 0.3986482499999937
        },
        {
          "name": "F#4",
          "midi": 66,
          "time": 81.08099999999986,
          "velocity": 0.47244094488188976,
          "duration": 0.3986482499999937
        },
        {
          "name": "F#4",
          "midi": 66,
          "time": 81.48640499999985,
          "velocity": 0.47244094488188976,
          "duration": 0.19594575000000702
        },
        {
          "name": "C#4",
          "midi": 61,
          "time": 81.48640499999985,
          "velocity": 0.47244094488188976,
          "duration": 0.19594575000000702
        },
        {
          "name": "A#3",
          "midi": 58,
          "time": 81.48640499999985,
          "velocity": 0.47244094488188976,
          "duration": 0.19594575000000702
        },
        {
          "name": "F#3",
          "midi": 54,
          "time": 81.48640499999985,
          "velocity": 0.47244094488188976,
          "duration": 0.19594575000000702
        },
        {
          "name": "C#3",
          "midi": 49,
          "time": 81.48640499999985,
          "velocity": 0.47244094488188976,
          "duration": 0.19594575000000702
        },
        {
          "name": "F#2",
          "midi": 42,
          "time": 81.48640499999985,
          "velocity": 0.47244094488188976,
          "duration": 0.19594575000000702
        },
        {
          "name": "F#4",
          "midi": 66,
          "time": 81.68910749999985,
          "velocity": 0.47244094488188976,
          "duration": 0.19594575000000702
        },
        {
          "name": "C#4",
          "midi": 61,
          "time": 81.68910749999985,
          "velocity": 0.47244094488188976,
          "duration": 0.19594575000000702
        },
        {
          "name": "A#3",
          "midi": 58,
          "time": 81.68910749999985,
          "velocity": 0.47244094488188976,
          "duration": 0.19594575000000702
        },
        {
          "name": "F#3",
          "midi": 54,
          "time": 81.68910749999985,
          "velocity": 0.47244094488188976,
          "duration": 0.19594575000000702
        },
        {
          "name": "C#3",
          "midi": 49,
          "time": 81.68910749999985,
          "velocity": 0.47244094488188976,
          "duration": 0.19594575000000702
        },
        {
          "name": "F#2",
          "midi": 42,
          "time": 81.68910749999985,
          "velocity": 0.47244094488188976,
          "duration": 0.19594575000000702
        },
        {
          "name": "F#4",
          "midi": 66,
          "time": 81.89180999999985,
          "velocity": 0.47244094488188976,
          "duration": 0.3986482499999937
        },
        {
          "name": "A#3",
          "midi": 58,
          "time": 81.89180999999985,
          "velocity": 0.47244094488188976,
          "duration": 0.3986482499999937
        },
        {
          "name": "C#4",
          "midi": 61,
          "time": 81.89180999999985,
          "velocity": 0.47244094488188976,
          "duration": 0.3986482499999937
        },
        {
          "name": "F#3",
          "midi": 54,
          "time": 81.89180999999985,
          "velocity": 0.47244094488188976,
          "duration": 0.3986482499999937
        },
        {
          "name": "C#3",
          "midi": 49,
          "time": 81.89180999999985,
          "velocity": 0.47244094488188976,
          "duration": 0.3986482499999937
        },
        {
          "name": "F#2",
          "midi": 42,
          "time": 81.89180999999985,
          "velocity": 0.47244094488188976,
          "duration": 0.3986482499999937
        },
        {
          "name": "F#4",
          "midi": 66,
          "time": 82.29721499999984,
          "velocity": 0.47244094488188976,
          "duration": 0.19594575000000702
        },
        {
          "name": "C#4",
          "midi": 61,
          "time": 82.29721499999984,
          "velocity": 0.47244094488188976,
          "duration": 0.19594575000000702
        },
        {
          "name": "A#3",
          "midi": 58,
          "time": 82.29721499999984,
          "velocity": 0.47244094488188976,
          "duration": 0.19594575000000702
        },
        {
          "name": "F#3",
          "midi": 54,
          "time": 82.29721499999984,
          "velocity": 0.47244094488188976,
          "duration": 0.19594575000000702
        },
        {
          "name": "C#3",
          "midi": 49,
          "time": 82.29721499999984,
          "velocity": 0.47244094488188976,
          "duration": 0.19594575000000702
        },
        {
          "name": "F#2",
          "midi": 42,
          "time": 82.29721499999984,
          "velocity": 0.47244094488188976,
          "duration": 0.19594575000000702
        },
        {
          "name": "F#4",
          "midi": 66,
          "time": 82.49991749999984,
          "velocity": 0.47244094488188976,
          "duration": 0.19594575000000702
        },
        {
          "name": "C#4",
          "midi": 61,
          "time": 82.49991749999984,
          "velocity": 0.47244094488188976,
          "duration": 0.19594575000000702
        },
        {
          "name": "A#3",
          "midi": 58,
          "time": 82.49991749999984,
          "velocity": 0.47244094488188976,
          "duration": 0.19594575000000702
        },
        {
          "name": "F#3",
          "midi": 54,
          "time": 82.49991749999984,
          "velocity": 0.47244094488188976,
          "duration": 0.19594575000000702
        },
        {
          "name": "C#3",
          "midi": 49,
          "time": 82.49991749999984,
          "velocity": 0.47244094488188976,
          "duration": 0.19594575000000702
        },
        {
          "name": "F#2",
          "midi": 42,
          "time": 82.49991749999984,
          "velocity": 0.47244094488188976,
          "duration": 0.19594575000000702
        },
        {
          "name": "F#4",
          "midi": 66,
          "time": 82.70261999999984,
          "velocity": 0.47244094488188976,
          "duration": 1.2094582499999973
        },
        {
          "name": "C#4",
          "midi": 61,
          "time": 82.70261999999984,
          "velocity": 0.47244094488188976,
          "duration": 1.2094582499999973
        },
        {
          "name": "A#3",
          "midi": 58,
          "time": 82.70261999999984,
          "velocity": 0.47244094488188976,
          "duration": 1.2094582499999973
        },
        {
          "name": "F#3",
          "midi": 54,
          "time": 82.70261999999984,
          "velocity": 0.47244094488188976,
          "duration": 1.2094582499999973
        },
        {
          "name": "C#3",
          "midi": 49,
          "time": 82.70261999999984,
          "velocity": 0.47244094488188976,
          "duration": 1.2094582499999973
        },
        {
          "name": "F#2",
          "midi": 42,
          "time": 82.70261999999984,
          "velocity": 0.47244094488188976,
          "duration": 1.2094582499999973
        },
        {
          "name": "F#4",
          "midi": 66,
          "time": 83.91883499999983,
          "velocity": 0.47244094488188976,
          "duration": 0.19594575000000702
        },
        {
          "name": "C#4",
          "midi": 61,
          "time": 83.91883499999983,
          "velocity": 0.47244094488188976,
          "duration": 0.19594575000000702
        },
        {
          "name": "A#3",
          "midi": 58,
          "time": 83.91883499999983,
          "velocity": 0.47244094488188976,
          "duration": 0.19594575000000702
        },
        {
          "name": "F#3",
          "midi": 54,
          "time": 83.91883499999983,
          "velocity": 0.47244094488188976,
          "duration": 0.19594575000000702
        },
        {
          "name": "C#3",
          "midi": 49,
          "time": 83.91883499999983,
          "velocity": 0.47244094488188976,
          "duration": 0.19594575000000702
        },
        {
          "name": "F#2",
          "midi": 42,
          "time": 83.91883499999983,
          "velocity": 0.47244094488188976,
          "duration": 0.19594575000000702
        },
        {
          "name": "F#4",
          "midi": 66,
          "time": 84.12153749999983,
          "velocity": 0.47244094488188976,
          "duration": 0.19594575000000702
        },
        {
          "name": "C#4",
          "midi": 61,
          "time": 84.12153749999983,
          "velocity": 0.47244094488188976,
          "duration": 0.19594575000000702
        },
        {
          "name": "A#3",
          "midi": 58,
          "time": 84.12153749999983,
          "velocity": 0.47244094488188976,
          "duration": 0.19594575000000702
        },
        {
          "name": "F#3",
          "midi": 54,
          "time": 84.12153749999983,
          "velocity": 0.47244094488188976,
          "duration": 0.19594575000000702
        },
        {
          "name": "C#3",
          "midi": 49,
          "time": 84.12153749999983,
          "velocity": 0.47244094488188976,
          "duration": 0.19594575000000702
        },
        {
          "name": "F#2",
          "midi": 42,
          "time": 84.12153749999983,
          "velocity": 0.47244094488188976,
          "duration": 0.19594575000000702
        },
        {
          "name": "E2",
          "midi": 40,
          "time": 84.32423999999983,
          "velocity": 0.47244094488188976,
          "duration": 0.3986482499999937
        },
        {
          "name": "A2",
          "midi": 45,
          "time": 84.32423999999983,
          "velocity": 0.47244094488188976,
          "duration": 0.3986482499999937
        },
        {
          "name": "E3",
          "midi": 52,
          "time": 84.32423999999983,
          "velocity": 0.47244094488188976,
          "duration": 0.3986482499999937
        },
        {
          "name": "A3",
          "midi": 57,
          "time": 84.32423999999983,
          "velocity": 0.47244094488188976,
          "duration": 0.3986482499999937
        },
        {
          "name": "C#4",
          "midi": 61,
          "time": 84.32423999999983,
          "velocity": 0.47244094488188976,
          "duration": 0.3986482499999937
        },
        {
          "name": "E4",
          "midi": 64,
          "time": 84.32423999999983,
          "velocity": 0.47244094488188976,
          "duration": 0.3986482499999937
        },
        {
          "name": "E4",
          "midi": 64,
          "time": 84.72964499999982,
          "velocity": 0.47244094488188976,
          "duration": 0.19594575000000702
        },
        {
          "name": "C#4",
          "midi": 61,
          "time": 84.72964499999982,
          "velocity": 0.47244094488188976,
          "duration": 0.19594575000000702
        },
        {
          "name": "A3",
          "midi": 57,
          "time": 84.72964499999982,
          "velocity": 0.47244094488188976,
          "duration": 0.19594575000000702
        },
        {
          "name": "E3",
          "midi": 52,
          "time": 84.72964499999982,
          "velocity": 0.47244094488188976,
          "duration": 0.19594575000000702
        },
        {
          "name": "A2",
          "midi": 45,
          "time": 84.72964499999982,
          "velocity": 0.47244094488188976,
          "duration": 0.19594575000000702
        },
        {
          "name": "E2",
          "midi": 40,
          "time": 84.72964499999982,
          "velocity": 0.47244094488188976,
          "duration": 0.19594575000000702
        },
        {
          "name": "E4",
          "midi": 64,
          "time": 84.93234749999982,
          "velocity": 0.47244094488188976,
          "duration": 0.19594575000000702
        },
        {
          "name": "C#4",
          "midi": 61,
          "time": 84.93234749999982,
          "velocity": 0.47244094488188976,
          "duration": 0.19594575000000702
        },
        {
          "name": "A3",
          "midi": 57,
          "time": 84.93234749999982,
          "velocity": 0.47244094488188976,
          "duration": 0.19594575000000702
        },
        {
          "name": "E3",
          "midi": 52,
          "time": 84.93234749999982,
          "velocity": 0.47244094488188976,
          "duration": 0.19594575000000702
        },
        {
          "name": "A2",
          "midi": 45,
          "time": 84.93234749999982,
          "velocity": 0.47244094488188976,
          "duration": 0.19594575000000702
        },
        {
          "name": "E2",
          "midi": 40,
          "time": 84.93234749999982,
          "velocity": 0.47244094488188976,
          "duration": 0.19594575000000702
        },
        {
          "name": "E4",
          "midi": 64,
          "time": 85.13504999999982,
          "velocity": 0.47244094488188976,
          "duration": 0.3986482499999937
        },
        {
          "name": "C#4",
          "midi": 61,
          "time": 85.13504999999982,
          "velocity": 0.47244094488188976,
          "duration": 0.3986482499999937
        },
        {
          "name": "A3",
          "midi": 57,
          "time": 85.13504999999982,
          "velocity": 0.47244094488188976,
          "duration": 0.3986482499999937
        },
        {
          "name": "E3",
          "midi": 52,
          "time": 85.13504999999982,
          "velocity": 0.47244094488188976,
          "duration": 0.3986482499999937
        },
        {
          "name": "A2",
          "midi": 45,
          "time": 85.13504999999982,
          "velocity": 0.47244094488188976,
          "duration": 0.3986482499999937
        },
        {
          "name": "E2",
          "midi": 40,
          "time": 85.13504999999982,
          "velocity": 0.47244094488188976,
          "duration": 0.3986482499999937
        },
        {
          "name": "E4",
          "midi": 64,
          "time": 85.54045499999981,
          "velocity": 0.47244094488188976,
          "duration": 0.19594575000000702
        },
        {
          "name": "C#4",
          "midi": 61,
          "time": 85.54045499999981,
          "velocity": 0.47244094488188976,
          "duration": 0.19594575000000702
        },
        {
          "name": "A3",
          "midi": 57,
          "time": 85.54045499999981,
          "velocity": 0.47244094488188976,
          "duration": 0.19594575000000702
        },
        {
          "name": "E3",
          "midi": 52,
          "time": 85.54045499999981,
          "velocity": 0.47244094488188976,
          "duration": 0.19594575000000702
        },
        {
          "name": "A2",
          "midi": 45,
          "time": 85.54045499999981,
          "velocity": 0.47244094488188976,
          "duration": 0.19594575000000702
        },
        {
          "name": "E2",
          "midi": 40,
          "time": 85.54045499999981,
          "velocity": 0.47244094488188976,
          "duration": 0.19594575000000702
        },
        {
          "name": "E4",
          "midi": 64,
          "time": 85.74315749999981,
          "velocity": 0.47244094488188976,
          "duration": 0.19594575000000702
        },
        {
          "name": "C#4",
          "midi": 61,
          "time": 85.74315749999981,
          "velocity": 0.47244094488188976,
          "duration": 0.19594575000000702
        },
        {
          "name": "A3",
          "midi": 57,
          "time": 85.74315749999981,
          "velocity": 0.47244094488188976,
          "duration": 0.19594575000000702
        },
        {
          "name": "E3",
          "midi": 52,
          "time": 85.74315749999981,
          "velocity": 0.47244094488188976,
          "duration": 0.19594575000000702
        },
        {
          "name": "A2",
          "midi": 45,
          "time": 85.74315749999981,
          "velocity": 0.47244094488188976,
          "duration": 0.19594575000000702
        },
        {
          "name": "E2",
          "midi": 40,
          "time": 85.74315749999981,
          "velocity": 0.47244094488188976,
          "duration": 0.19594575000000702
        },
        {
          "name": "E4",
          "midi": 64,
          "time": 85.94585999999981,
          "velocity": 0.47244094488188976,
          "duration": 0.19594575000000702
        },
        {
          "name": "C#4",
          "midi": 61,
          "time": 85.94585999999981,
          "velocity": 0.47244094488188976,
          "duration": 0.19594575000000702
        },
        {
          "name": "A3",
          "midi": 57,
          "time": 85.94585999999981,
          "velocity": 0.47244094488188976,
          "duration": 0.19594575000000702
        },
        {
          "name": "E3",
          "midi": 52,
          "time": 85.94585999999981,
          "velocity": 0.47244094488188976,
          "duration": 0.19594575000000702
        },
        {
          "name": "A2",
          "midi": 45,
          "time": 85.94585999999981,
          "velocity": 0.47244094488188976,
          "duration": 0.19594575000000702
        },
        {
          "name": "E2",
          "midi": 40,
          "time": 85.94585999999981,
          "velocity": 0.47244094488188976,
          "duration": 0.19594575000000702
        },
        {
          "name": "E4",
          "midi": 64,
          "time": 86.14856249999981,
          "velocity": 0.47244094488188976,
          "duration": 0.19594575000000702
        },
        {
          "name": "C#4",
          "midi": 61,
          "time": 86.14856249999981,
          "velocity": 0.47244094488188976,
          "duration": 0.19594575000000702
        },
        {
          "name": "A3",
          "midi": 57,
          "time": 86.14856249999981,
          "velocity": 0.47244094488188976,
          "duration": 0.19594575000000702
        },
        {
          "name": "E3",
          "midi": 52,
          "time": 86.14856249999981,
          "velocity": 0.47244094488188976,
          "duration": 0.19594575000000702
        },
        {
          "name": "A2",
          "midi": 45,
          "time": 86.14856249999981,
          "velocity": 0.47244094488188976,
          "duration": 0.19594575000000702
        },
        {
          "name": "E2",
          "midi": 40,
          "time": 86.14856249999981,
          "velocity": 0.47244094488188976,
          "duration": 0.19594575000000702
        },
        {
          "name": "E4",
          "midi": 64,
          "time": 86.35126499999981,
          "velocity": 0.47244094488188976,
          "duration": 0.19594575000000702
        },
        {
          "name": "C#4",
          "midi": 61,
          "time": 86.35126499999981,
          "velocity": 0.47244094488188976,
          "duration": 0.19594575000000702
        },
        {
          "name": "A3",
          "midi": 57,
          "time": 86.35126499999981,
          "velocity": 0.47244094488188976,
          "duration": 0.19594575000000702
        },
        {
          "name": "E3",
          "midi": 52,
          "time": 86.35126499999981,
          "velocity": 0.47244094488188976,
          "duration": 0.19594575000000702
        },
        {
          "name": "A2",
          "midi": 45,
          "time": 86.35126499999981,
          "velocity": 0.47244094488188976,
          "duration": 0.19594575000000702
        },
        {
          "name": "E2",
          "midi": 40,
          "time": 86.35126499999981,
          "velocity": 0.47244094488188976,
          "duration": 0.19594575000000702
        },
        {
          "name": "E4",
          "midi": 64,
          "time": 86.55396749999981,
          "velocity": 0.47244094488188976,
          "duration": 0.3986482499999937
        },
        {
          "name": "C#4",
          "midi": 61,
          "time": 86.55396749999981,
          "velocity": 0.47244094488188976,
          "duration": 0.3986482499999937
        },
        {
          "name": "A3",
          "midi": 57,
          "time": 86.55396749999981,
          "velocity": 0.47244094488188976,
          "duration": 0.3986482499999937
        },
        {
          "name": "E3",
          "midi": 52,
          "time": 86.55396749999981,
          "velocity": 0.47244094488188976,
          "duration": 0.3986482499999937
        },
        {
          "name": "A2",
          "midi": 45,
          "time": 86.55396749999981,
          "velocity": 0.47244094488188976,
          "duration": 0.3986482499999937
        },
        {
          "name": "E2",
          "midi": 40,
          "time": 86.55396749999981,
          "velocity": 0.47244094488188976,
          "duration": 0.3986482499999937
        },
        {
          "name": "E4",
          "midi": 64,
          "time": 86.9593724999998,
          "velocity": 0.47244094488188976,
          "duration": 0.19594575000000702
        },
        {
          "name": "C#4",
          "midi": 61,
          "time": 86.9593724999998,
          "velocity": 0.47244094488188976,
          "duration": 0.19594575000000702
        },
        {
          "name": "A3",
          "midi": 57,
          "time": 86.9593724999998,
          "velocity": 0.47244094488188976,
          "duration": 0.19594575000000702
        },
        {
          "name": "E3",
          "midi": 52,
          "time": 86.9593724999998,
          "velocity": 0.47244094488188976,
          "duration": 0.19594575000000702
        },
        {
          "name": "A2",
          "midi": 45,
          "time": 86.9593724999998,
          "velocity": 0.47244094488188976,
          "duration": 0.19594575000000702
        },
        {
          "name": "E2",
          "midi": 40,
          "time": 86.9593724999998,
          "velocity": 0.47244094488188976,
          "duration": 0.19594575000000702
        },
        {
          "name": "E4",
          "midi": 64,
          "time": 87.1620749999998,
          "velocity": 0.47244094488188976,
          "duration": 0.3986482499999937
        },
        {
          "name": "C#4",
          "midi": 61,
          "time": 87.1620749999998,
          "velocity": 0.47244094488188976,
          "duration": 0.3986482499999937
        },
        {
          "name": "A3",
          "midi": 57,
          "time": 87.1620749999998,
          "velocity": 0.47244094488188976,
          "duration": 0.3986482499999937
        },
        {
          "name": "E3",
          "midi": 52,
          "time": 87.1620749999998,
          "velocity": 0.47244094488188976,
          "duration": 0.3986482499999937
        },
        {
          "name": "A2",
          "midi": 45,
          "time": 87.1620749999998,
          "velocity": 0.47244094488188976,
          "duration": 0.3986482499999937
        },
        {
          "name": "E2",
          "midi": 40,
          "time": 87.1620749999998,
          "velocity": 0.47244094488188976,
          "duration": 0.3986482499999937
        },
        {
          "name": "E2",
          "midi": 40,
          "time": 87.56747999999979,
          "velocity": 0.47244094488188976,
          "duration": 0.3986482499999937
        },
        {
          "name": "B2",
          "midi": 47,
          "time": 87.56747999999979,
          "velocity": 0.47244094488188976,
          "duration": 0.3986482499999937
        },
        {
          "name": "E3",
          "midi": 52,
          "time": 87.56747999999979,
          "velocity": 0.47244094488188976,
          "duration": 0.3986482499999937
        },
        {
          "name": "G#3",
          "midi": 56,
          "time": 87.56747999999979,
          "velocity": 0.47244094488188976,
          "duration": 0.3986482499999937
        },
        {
          "name": "B3",
          "midi": 59,
          "time": 87.56747999999979,
          "velocity": 0.47244094488188976,
          "duration": 0.3986482499999937
        },
        {
          "name": "E4",
          "midi": 64,
          "time": 87.56747999999979,
          "velocity": 0.47244094488188976,
          "duration": 0.3986482499999937
        },
        {
          "name": "E4",
          "midi": 64,
          "time": 87.97288499999978,
          "velocity": 0.47244094488188976,
          "duration": 0.19594575000000702
        },
        {
          "name": "B3",
          "midi": 59,
          "time": 87.97288499999978,
          "velocity": 0.47244094488188976,
          "duration": 0.19594575000000702
        },
        {
          "name": "G#3",
          "midi": 56,
          "time": 87.97288499999978,
          "velocity": 0.47244094488188976,
          "duration": 0.19594575000000702
        },
        {
          "name": "E3",
          "midi": 52,
          "time": 87.97288499999978,
          "velocity": 0.47244094488188976,
          "duration": 0.19594575000000702
        },
        {
          "name": "B2",
          "midi": 47,
          "time": 87.97288499999978,
          "velocity": 0.47244094488188976,
          "duration": 0.19594575000000702
        },
        {
          "name": "E2",
          "midi": 40,
          "time": 87.97288499999978,
          "velocity": 0.47244094488188976,
          "duration": 0.19594575000000702
        },
        {
          "name": "E4",
          "midi": 64,
          "time": 88.17558749999978,
          "velocity": 0.47244094488188976,
          "duration": 0.19594575000000702
        },
        {
          "name": "B3",
          "midi": 59,
          "time": 88.17558749999978,
          "velocity": 0.47244094488188976,
          "duration": 0.19594575000000702
        },
        {
          "name": "G#3",
          "midi": 56,
          "time": 88.17558749999978,
          "velocity": 0.47244094488188976,
          "duration": 0.19594575000000702
        },
        {
          "name": "E3",
          "midi": 52,
          "time": 88.17558749999978,
          "velocity": 0.47244094488188976,
          "duration": 0.19594575000000702
        },
        {
          "name": "B2",
          "midi": 47,
          "time": 88.17558749999978,
          "velocity": 0.47244094488188976,
          "duration": 0.19594575000000702
        },
        {
          "name": "E2",
          "midi": 40,
          "time": 88.17558749999978,
          "velocity": 0.47244094488188976,
          "duration": 0.19594575000000702
        },
        {
          "name": "E4",
          "midi": 64,
          "time": 88.37828999999978,
          "velocity": 0.47244094488188976,
          "duration": 0.3986482499999937
        },
        {
          "name": "B3",
          "midi": 59,
          "time": 88.37828999999978,
          "velocity": 0.47244094488188976,
          "duration": 0.3986482499999937
        },
        {
          "name": "G#3",
          "midi": 56,
          "time": 88.37828999999978,
          "velocity": 0.47244094488188976,
          "duration": 0.3986482499999937
        },
        {
          "name": "E3",
          "midi": 52,
          "time": 88.37828999999978,
          "velocity": 0.47244094488188976,
          "duration": 0.3986482499999937
        },
        {
          "name": "B2",
          "midi": 47,
          "time": 88.37828999999978,
          "velocity": 0.47244094488188976,
          "duration": 0.3986482499999937
        },
        {
          "name": "E2",
          "midi": 40,
          "time": 88.37828999999978,
          "velocity": 0.47244094488188976,
          "duration": 0.3986482499999937
        },
        {
          "name": "E4",
          "midi": 64,
          "time": 88.78369499999977,
          "velocity": 0.47244094488188976,
          "duration": 0.19594575000000702
        },
        {
          "name": "B3",
          "midi": 59,
          "time": 88.78369499999977,
          "velocity": 0.47244094488188976,
          "duration": 0.19594575000000702
        },
        {
          "name": "G#3",
          "midi": 56,
          "time": 88.78369499999977,
          "velocity": 0.47244094488188976,
          "duration": 0.19594575000000702
        },
        {
          "name": "E3",
          "midi": 52,
          "time": 88.78369499999977,
          "velocity": 0.47244094488188976,
          "duration": 0.19594575000000702
        },
        {
          "name": "B2",
          "midi": 47,
          "time": 88.78369499999977,
          "velocity": 0.47244094488188976,
          "duration": 0.19594575000000702
        },
        {
          "name": "E2",
          "midi": 40,
          "time": 88.78369499999977,
          "velocity": 0.47244094488188976,
          "duration": 0.19594575000000702
        },
        {
          "name": "E4",
          "midi": 64,
          "time": 88.98639749999977,
          "velocity": 0.47244094488188976,
          "duration": 0.19594575000000702
        },
        {
          "name": "B3",
          "midi": 59,
          "time": 88.98639749999977,
          "velocity": 0.47244094488188976,
          "duration": 0.19594575000000702
        },
        {
          "name": "G#3",
          "midi": 56,
          "time": 88.98639749999977,
          "velocity": 0.47244094488188976,
          "duration": 0.19594575000000702
        },
        {
          "name": "E3",
          "midi": 52,
          "time": 88.98639749999977,
          "velocity": 0.47244094488188976,
          "duration": 0.19594575000000702
        },
        {
          "name": "B2",
          "midi": 47,
          "time": 88.98639749999977,
          "velocity": 0.47244094488188976,
          "duration": 0.19594575000000702
        },
        {
          "name": "E2",
          "midi": 40,
          "time": 88.98639749999977,
          "velocity": 0.47244094488188976,
          "duration": 0.19594575000000702
        },
        {
          "name": "E4",
          "midi": 64,
          "time": 89.18909999999977,
          "velocity": 0.47244094488188976,
          "duration": 1.614863249999999
        },
        {
          "name": "B3",
          "midi": 59,
          "time": 89.18909999999977,
          "velocity": 0.47244094488188976,
          "duration": 1.614863249999999
        },
        {
          "name": "G#3",
          "midi": 56,
          "time": 89.18909999999977,
          "velocity": 0.47244094488188976,
          "duration": 1.614863249999999
        },
        {
          "name": "E3",
          "midi": 52,
          "time": 89.18909999999977,
          "velocity": 0.47244094488188976,
          "duration": 1.614863249999999
        },
        {
          "name": "B2",
          "midi": 47,
          "time": 89.18909999999977,
          "velocity": 0.47244094488188976,
          "duration": 1.614863249999999
        },
        {
          "name": "E2",
          "midi": 40,
          "time": 89.18909999999977,
          "velocity": 0.47244094488188976,
          "duration": 1.614863249999999
        },
        {
          "name": "G2",
          "midi": 43,
          "time": 90.81071999999976,
          "velocity": 0.47244094488188976,
          "duration": 0.3986482499999937
        },
        {
          "name": "D3",
          "midi": 50,
          "time": 90.81071999999976,
          "velocity": 0.47244094488188976,
          "duration": 0.3986482499999937
        },
        {
          "name": "G3",
          "midi": 55,
          "time": 90.81071999999976,
          "velocity": 0.47244094488188976,
          "duration": 0.3986482499999937
        },
        {
          "name": "B3",
          "midi": 59,
          "time": 90.81071999999976,
          "velocity": 0.47244094488188976,
          "duration": 0.3986482499999937
        },
        {
          "name": "D4",
          "midi": 62,
          "time": 90.81071999999976,
          "velocity": 0.47244094488188976,
          "duration": 0.3986482499999937
        },
        {
          "name": "G4",
          "midi": 67,
          "time": 90.81071999999976,
          "velocity": 0.47244094488188976,
          "duration": 0.3986482499999937
        },
        {
          "name": "G4",
          "midi": 67,
          "time": 91.21612499999975,
          "velocity": 0.47244094488188976,
          "duration": 0.19594575000000702
        },
        {
          "name": "D4",
          "midi": 62,
          "time": 91.21612499999975,
          "velocity": 0.47244094488188976,
          "duration": 0.19594575000000702
        },
        {
          "name": "B3",
          "midi": 59,
          "time": 91.21612499999975,
          "velocity": 0.47244094488188976,
          "duration": 0.19594575000000702
        },
        {
          "name": "G3",
          "midi": 55,
          "time": 91.21612499999975,
          "velocity": 0.47244094488188976,
          "duration": 0.19594575000000702
        },
        {
          "name": "D3",
          "midi": 50,
          "time": 91.21612499999975,
          "velocity": 0.47244094488188976,
          "duration": 0.19594575000000702
        },
        {
          "name": "G2",
          "midi": 43,
          "time": 91.21612499999975,
          "velocity": 0.47244094488188976,
          "duration": 0.19594575000000702
        },
        {
          "name": "G4",
          "midi": 67,
          "time": 91.41882749999975,
          "velocity": 0.47244094488188976,
          "duration": 0.19594575000000702
        },
        {
          "name": "D4",
          "midi": 62,
          "time": 91.41882749999975,
          "velocity": 0.47244094488188976,
          "duration": 0.19594575000000702
        },
        {
          "name": "B3",
          "midi": 59,
          "time": 91.41882749999975,
          "velocity": 0.47244094488188976,
          "duration": 0.19594575000000702
        },
        {
          "name": "G3",
          "midi": 55,
          "time": 91.41882749999975,
          "velocity": 0.47244094488188976,
          "duration": 0.19594575000000702
        },
        {
          "name": "D3",
          "midi": 50,
          "time": 91.41882749999975,
          "velocity": 0.47244094488188976,
          "duration": 0.19594575000000702
        },
        {
          "name": "G2",
          "midi": 43,
          "time": 91.41882749999975,
          "velocity": 0.47244094488188976,
          "duration": 0.19594575000000702
        },
        {
          "name": "G4",
          "midi": 67,
          "time": 91.62152999999975,
          "velocity": 0.47244094488188976,
          "duration": 0.3986482499999937
        },
        {
          "name": "D4",
          "midi": 62,
          "time": 91.62152999999975,
          "velocity": 0.47244094488188976,
          "duration": 0.3986482499999937
        },
        {
          "name": "B3",
          "midi": 59,
          "time": 91.62152999999975,
          "velocity": 0.47244094488188976,
          "duration": 0.3986482499999937
        },
        {
          "name": "G3",
          "midi": 55,
          "time": 91.62152999999975,
          "velocity": 0.47244094488188976,
          "duration": 0.3986482499999937
        },
        {
          "name": "D3",
          "midi": 50,
          "time": 91.62152999999975,
          "velocity": 0.47244094488188976,
          "duration": 0.3986482499999937
        },
        {
          "name": "G2",
          "midi": 43,
          "time": 91.62152999999975,
          "velocity": 0.47244094488188976,
          "duration": 0.3986482499999937
        },
        {
          "name": "G4",
          "midi": 67,
          "time": 92.02693499999974,
          "velocity": 0.47244094488188976,
          "duration": 0.19594575000000702
        },
        {
          "name": "D4",
          "midi": 62,
          "time": 92.02693499999974,
          "velocity": 0.47244094488188976,
          "duration": 0.19594575000000702
        },
        {
          "name": "B3",
          "midi": 59,
          "time": 92.02693499999974,
          "velocity": 0.47244094488188976,
          "duration": 0.19594575000000702
        },
        {
          "name": "G3",
          "midi": 55,
          "time": 92.02693499999974,
          "velocity": 0.47244094488188976,
          "duration": 0.19594575000000702
        },
        {
          "name": "D3",
          "midi": 50,
          "time": 92.02693499999974,
          "velocity": 0.47244094488188976,
          "duration": 0.19594575000000702
        },
        {
          "name": "G2",
          "midi": 43,
          "time": 92.02693499999974,
          "velocity": 0.47244094488188976,
          "duration": 0.19594575000000702
        },
        {
          "name": "G4",
          "midi": 67,
          "time": 92.22963749999974,
          "velocity": 0.47244094488188976,
          "duration": 0.19594575000000702
        },
        {
          "name": "D4",
          "midi": 62,
          "time": 92.22963749999974,
          "velocity": 0.47244094488188976,
          "duration": 0.19594575000000702
        },
        {
          "name": "B3",
          "midi": 59,
          "time": 92.22963749999974,
          "velocity": 0.47244094488188976,
          "duration": 0.19594575000000702
        },
        {
          "name": "G3",
          "midi": 55,
          "time": 92.22963749999974,
          "velocity": 0.47244094488188976,
          "duration": 0.19594575000000702
        },
        {
          "name": "D3",
          "midi": 50,
          "time": 92.22963749999974,
          "velocity": 0.47244094488188976,
          "duration": 0.19594575000000702
        },
        {
          "name": "G2",
          "midi": 43,
          "time": 92.22963749999974,
          "velocity": 0.47244094488188976,
          "duration": 0.19594575000000702
        },
        {
          "name": "G4",
          "midi": 67,
          "time": 92.43233999999974,
          "velocity": 0.47244094488188976,
          "duration": 0.19594575000000702
        },
        {
          "name": "D4",
          "midi": 62,
          "time": 92.43233999999974,
          "velocity": 0.47244094488188976,
          "duration": 0.19594575000000702
        },
        {
          "name": "B3",
          "midi": 59,
          "time": 92.43233999999974,
          "velocity": 0.47244094488188976,
          "duration": 0.19594575000000702
        },
        {
          "name": "G3",
          "midi": 55,
          "time": 92.43233999999974,
          "velocity": 0.47244094488188976,
          "duration": 0.19594575000000702
        },
        {
          "name": "D3",
          "midi": 50,
          "time": 92.43233999999974,
          "velocity": 0.47244094488188976,
          "duration": 0.19594575000000702
        },
        {
          "name": "G2",
          "midi": 43,
          "time": 92.43233999999974,
          "velocity": 0.47244094488188976,
          "duration": 0.19594575000000702
        },
        {
          "name": "G4",
          "midi": 67,
          "time": 92.63504249999974,
          "velocity": 0.47244094488188976,
          "duration": 0.19594575000000702
        },
        {
          "name": "D4",
          "midi": 62,
          "time": 92.63504249999974,
          "velocity": 0.47244094488188976,
          "duration": 0.19594575000000702
        },
        {
          "name": "B3",
          "midi": 59,
          "time": 92.63504249999974,
          "velocity": 0.47244094488188976,
          "duration": 0.19594575000000702
        },
        {
          "name": "G3",
          "midi": 55,
          "time": 92.63504249999974,
          "velocity": 0.47244094488188976,
          "duration": 0.19594575000000702
        },
        {
          "name": "D3",
          "midi": 50,
          "time": 92.63504249999974,
          "velocity": 0.47244094488188976,
          "duration": 0.19594575000000702
        },
        {
          "name": "G2",
          "midi": 43,
          "time": 92.63504249999974,
          "velocity": 0.47244094488188976,
          "duration": 0.19594575000000702
        },
        {
          "name": "G4",
          "midi": 67,
          "time": 92.83774499999974,
          "velocity": 0.47244094488188976,
          "duration": 0.19594575000000702
        },
        {
          "name": "D4",
          "midi": 62,
          "time": 92.83774499999974,
          "velocity": 0.47244094488188976,
          "duration": 0.19594575000000702
        },
        {
          "name": "B3",
          "midi": 59,
          "time": 92.83774499999974,
          "velocity": 0.47244094488188976,
          "duration": 0.19594575000000702
        },
        {
          "name": "G3",
          "midi": 55,
          "time": 92.83774499999974,
          "velocity": 0.47244094488188976,
          "duration": 0.19594575000000702
        },
        {
          "name": "D3",
          "midi": 50,
          "time": 92.83774499999974,
          "velocity": 0.47244094488188976,
          "duration": 0.19594575000000702
        },
        {
          "name": "G2",
          "midi": 43,
          "time": 92.83774499999974,
          "velocity": 0.47244094488188976,
          "duration": 0.19594575000000702
        },
        {
          "name": "G4",
          "midi": 67,
          "time": 93.04044749999974,
          "velocity": 0.47244094488188976,
          "duration": 0.3986482499999937
        },
        {
          "name": "D4",
          "midi": 62,
          "time": 93.04044749999974,
          "velocity": 0.47244094488188976,
          "duration": 0.3986482499999937
        },
        {
          "name": "B3",
          "midi": 59,
          "time": 93.04044749999974,
          "velocity": 0.47244094488188976,
          "duration": 0.3986482499999937
        },
        {
          "name": "G3",
          "midi": 55,
          "time": 93.04044749999974,
          "velocity": 0.47244094488188976,
          "duration": 0.3986482499999937
        },
        {
          "name": "D3",
          "midi": 50,
          "time": 93.04044749999974,
          "velocity": 0.47244094488188976,
          "duration": 0.3986482499999937
        },
        {
          "name": "G2",
          "midi": 43,
          "time": 93.04044749999974,
          "velocity": 0.47244094488188976,
          "duration": 0.3986482499999937
        },
        {
          "name": "G4",
          "midi": 67,
          "time": 93.44585249999973,
          "velocity": 0.47244094488188976,
          "duration": 0.19594575000000702
        },
        {
          "name": "D4",
          "midi": 62,
          "time": 93.44585249999973,
          "velocity": 0.47244094488188976,
          "duration": 0.19594575000000702
        },
        {
          "name": "B3",
          "midi": 59,
          "time": 93.44585249999973,
          "velocity": 0.47244094488188976,
          "duration": 0.19594575000000702
        },
        {
          "name": "G3",
          "midi": 55,
          "time": 93.44585249999973,
          "velocity": 0.47244094488188976,
          "duration": 0.19594575000000702
        },
        {
          "name": "D3",
          "midi": 50,
          "time": 93.44585249999973,
          "velocity": 0.47244094488188976,
          "duration": 0.19594575000000702
        },
        {
          "name": "G2",
          "midi": 43,
          "time": 93.44585249999973,
          "velocity": 0.47244094488188976,
          "duration": 0.19594575000000702
        },
        {
          "name": "G4",
          "midi": 67,
          "time": 93.64855499999973,
          "velocity": 0.47244094488188976,
          "duration": 0.3986482499999937
        },
        {
          "name": "D4",
          "midi": 62,
          "time": 93.64855499999973,
          "velocity": 0.47244094488188976,
          "duration": 0.3986482499999937
        },
        {
          "name": "B3",
          "midi": 59,
          "time": 93.64855499999973,
          "velocity": 0.47244094488188976,
          "duration": 0.3986482499999937
        },
        {
          "name": "G3",
          "midi": 55,
          "time": 93.64855499999973,
          "velocity": 0.47244094488188976,
          "duration": 0.3986482499999937
        },
        {
          "name": "D3",
          "midi": 50,
          "time": 93.64855499999973,
          "velocity": 0.47244094488188976,
          "duration": 0.3986482499999937
        },
        {
          "name": "G2",
          "midi": 43,
          "time": 93.64855499999973,
          "velocity": 0.47244094488188976,
          "duration": 0.3986482499999937
        },
        {
          "name": "A2",
          "midi": 45,
          "time": 94.05395999999972,
          "velocity": 0.47244094488188976,
          "duration": 0.3986482499999937
        },
        {
          "name": "D3",
          "midi": 50,
          "time": 94.05395999999972,
          "velocity": 0.47244094488188976,
          "duration": 0.3986482499999937
        },
        {
          "name": "A3",
          "midi": 57,
          "time": 94.05395999999972,
          "velocity": 0.47244094488188976,
          "duration": 0.3986482499999937
        },
        {
          "name": "D4",
          "midi": 62,
          "time": 94.05395999999972,
          "velocity": 0.47244094488188976,
          "duration": 0.3986482499999937
        },
        {
          "name": "F#4",
          "midi": 66,
          "time": 94.05395999999972,
          "velocity": 0.47244094488188976,
          "duration": 0.3986482499999937
        },
        {
          "name": "A4",
          "midi": 69,
          "time": 94.05395999999972,
          "velocity": 0.47244094488188976,
          "duration": 0.3986482499999937
        },
        {
          "name": "A4",
          "midi": 69,
          "time": 94.4593649999997,
          "velocity": 0.47244094488188976,
          "duration": 0.19594575000000702
        },
        {
          "name": "F#4",
          "midi": 66,
          "time": 94.4593649999997,
          "velocity": 0.47244094488188976,
          "duration": 0.19594575000000702
        },
        {
          "name": "D4",
          "midi": 62,
          "time": 94.4593649999997,
          "velocity": 0.47244094488188976,
          "duration": 0.19594575000000702
        },
        {
          "name": "A3",
          "midi": 57,
          "time": 94.4593649999997,
          "velocity": 0.47244094488188976,
          "duration": 0.19594575000000702
        },
        {
          "name": "D3",
          "midi": 50,
          "time": 94.4593649999997,
          "velocity": 0.47244094488188976,
          "duration": 0.19594575000000702
        },
        {
          "name": "A2",
          "midi": 45,
          "time": 94.4593649999997,
          "velocity": 0.47244094488188976,
          "duration": 0.19594575000000702
        },
        {
          "name": "A4",
          "midi": 69,
          "time": 94.66206749999971,
          "velocity": 0.47244094488188976,
          "duration": 0.19594575000000702
        },
        {
          "name": "F#4",
          "midi": 66,
          "time": 94.66206749999971,
          "velocity": 0.47244094488188976,
          "duration": 0.19594575000000702
        },
        {
          "name": "D4",
          "midi": 62,
          "time": 94.66206749999971,
          "velocity": 0.47244094488188976,
          "duration": 0.19594575000000702
        },
        {
          "name": "A3",
          "midi": 57,
          "time": 94.66206749999971,
          "velocity": 0.47244094488188976,
          "duration": 0.19594575000000702
        },
        {
          "name": "D3",
          "midi": 50,
          "time": 94.66206749999971,
          "velocity": 0.47244094488188976,
          "duration": 0.19594575000000702
        },
        {
          "name": "A2",
          "midi": 45,
          "time": 94.66206749999971,
          "velocity": 0.47244094488188976,
          "duration": 0.19594575000000702
        },
        {
          "name": "A4",
          "midi": 69,
          "time": 94.86476999999971,
          "velocity": 0.47244094488188976,
          "duration": 0.19594575000000702
        },
        {
          "name": "F#4",
          "midi": 66,
          "time": 94.86476999999971,
          "velocity": 0.47244094488188976,
          "duration": 0.19594575000000702
        },
        {
          "name": "D4",
          "midi": 62,
          "time": 94.86476999999971,
          "velocity": 0.47244094488188976,
          "duration": 0.19594575000000702
        },
        {
          "name": "A3",
          "midi": 57,
          "time": 94.86476999999971,
          "velocity": 0.47244094488188976,
          "duration": 0.19594575000000702
        },
        {
          "name": "D3",
          "midi": 50,
          "time": 94.86476999999971,
          "velocity": 0.47244094488188976,
          "duration": 0.19594575000000702
        },
        {
          "name": "A2",
          "midi": 45,
          "time": 94.86476999999971,
          "velocity": 0.47244094488188976,
          "duration": 0.19594575000000702
        },
        {
          "name": "A4",
          "midi": 69,
          "time": 95.06747249999971,
          "velocity": 0.47244094488188976,
          "duration": 0.3986482499999937
        },
        {
          "name": "F#4",
          "midi": 66,
          "time": 95.06747249999971,
          "velocity": 0.47244094488188976,
          "duration": 0.3986482499999937
        },
        {
          "name": "D4",
          "midi": 62,
          "time": 95.06747249999971,
          "velocity": 0.47244094488188976,
          "duration": 0.3986482499999937
        },
        {
          "name": "A3",
          "midi": 57,
          "time": 95.06747249999971,
          "velocity": 0.47244094488188976,
          "duration": 0.3986482499999937
        },
        {
          "name": "D3",
          "midi": 50,
          "time": 95.06747249999971,
          "velocity": 0.47244094488188976,
          "duration": 0.3986482499999937
        },
        {
          "name": "A2",
          "midi": 45,
          "time": 95.06747249999971,
          "velocity": 0.47244094488188976,
          "duration": 0.3986482499999937
        },
        {
          "name": "A4",
          "midi": 69,
          "time": 95.4728774999997,
          "velocity": 0.47244094488188976,
          "duration": 0.19594575000000702
        },
        {
          "name": "F#4",
          "midi": 66,
          "time": 95.4728774999997,
          "velocity": 0.47244094488188976,
          "duration": 0.19594575000000702
        },
        {
          "name": "D4",
          "midi": 62,
          "time": 95.4728774999997,
          "velocity": 0.47244094488188976,
          "duration": 0.19594575000000702
        },
        {
          "name": "A3",
          "midi": 57,
          "time": 95.4728774999997,
          "velocity": 0.47244094488188976,
          "duration": 0.19594575000000702
        },
        {
          "name": "D3",
          "midi": 50,
          "time": 95.4728774999997,
          "velocity": 0.47244094488188976,
          "duration": 0.19594575000000702
        },
        {
          "name": "A2",
          "midi": 45,
          "time": 95.4728774999997,
          "velocity": 0.47244094488188976,
          "duration": 0.19594575000000702
        },
        {
          "name": "A4",
          "midi": 69,
          "time": 95.6755799999997,
          "velocity": 0.47244094488188976,
          "duration": 1.614863249999999
        },
        {
          "name": "F#4",
          "midi": 66,
          "time": 95.6755799999997,
          "velocity": 0.47244094488188976,
          "duration": 1.614863249999999
        },
        {
          "name": "D4",
          "midi": 62,
          "time": 95.6755799999997,
          "velocity": 0.47244094488188976,
          "duration": 1.614863249999999
        },
        {
          "name": "A3",
          "midi": 57,
          "time": 95.6755799999997,
          "velocity": 0.47244094488188976,
          "duration": 1.614863249999999
        },
        {
          "name": "D3",
          "midi": 50,
          "time": 95.6755799999997,
          "velocity": 0.47244094488188976,
          "duration": 1.614863249999999
        },
        {
          "name": "A2",
          "midi": 45,
          "time": 95.6755799999997,
          "velocity": 0.47244094488188976,
          "duration": 1.614863249999999
        },
        {
          "name": "E2",
          "midi": 40,
          "time": 97.29719999999969,
          "velocity": 0.47244094488188976,
          "duration": 0.3986482499999937
        },
        {
          "name": "B2",
          "midi": 47,
          "time": 97.29719999999969,
          "velocity": 0.47244094488188976,
          "duration": 0.3986482499999937
        },
        {
          "name": "E3",
          "midi": 52,
          "time": 97.29719999999969,
          "velocity": 0.47244094488188976,
          "duration": 0.3986482499999937
        },
        {
          "name": "G3",
          "midi": 55,
          "time": 97.29719999999969,
          "velocity": 0.47244094488188976,
          "duration": 0.3986482499999937
        },
        {
          "name": "B3",
          "midi": 59,
          "time": 97.29719999999969,
          "velocity": 0.47244094488188976,
          "duration": 0.3986482499999937
        },
        {
          "name": "E4",
          "midi": 64,
          "time": 97.29719999999969,
          "velocity": 0.47244094488188976,
          "duration": 0.3986482499999937
        },
        {
          "name": "E4",
          "midi": 64,
          "time": 97.70260499999968,
          "velocity": 0.47244094488188976,
          "duration": 0.19594575000000702
        },
        {
          "name": "B3",
          "midi": 59,
          "time": 97.70260499999968,
          "velocity": 0.47244094488188976,
          "duration": 0.19594575000000702
        },
        {
          "name": "G3",
          "midi": 55,
          "time": 97.70260499999968,
          "velocity": 0.47244094488188976,
          "duration": 0.19594575000000702
        },
        {
          "name": "E3",
          "midi": 52,
          "time": 97.70260499999968,
          "velocity": 0.47244094488188976,
          "duration": 0.19594575000000702
        },
        {
          "name": "B2",
          "midi": 47,
          "time": 97.70260499999968,
          "velocity": 0.47244094488188976,
          "duration": 0.19594575000000702
        },
        {
          "name": "E2",
          "midi": 40,
          "time": 97.70260499999968,
          "velocity": 0.47244094488188976,
          "duration": 0.19594575000000702
        },
        {
          "name": "E4",
          "midi": 64,
          "time": 97.90530749999968,
          "velocity": 0.47244094488188976,
          "duration": 0.19594575000000702
        },
        {
          "name": "B3",
          "midi": 59,
          "time": 97.90530749999968,
          "velocity": 0.47244094488188976,
          "duration": 0.19594575000000702
        },
        {
          "name": "G3",
          "midi": 55,
          "time": 97.90530749999968,
          "velocity": 0.47244094488188976,
          "duration": 0.19594575000000702
        },
        {
          "name": "E3",
          "midi": 52,
          "time": 97.90530749999968,
          "velocity": 0.47244094488188976,
          "duration": 0.19594575000000702
        },
        {
          "name": "B2",
          "midi": 47,
          "time": 97.90530749999968,
          "velocity": 0.47244094488188976,
          "duration": 0.19594575000000702
        },
        {
          "name": "E2",
          "midi": 40,
          "time": 97.90530749999968,
          "velocity": 0.47244094488188976,
          "duration": 0.19594575000000702
        },
        {
          "name": "E4",
          "midi": 64,
          "time": 98.10800999999968,
          "velocity": 0.47244094488188976,
          "duration": 0.19594575000000702
        },
        {
          "name": "B3",
          "midi": 59,
          "time": 98.10800999999968,
          "velocity": 0.47244094488188976,
          "duration": 0.19594575000000702
        },
        {
          "name": "G3",
          "midi": 55,
          "time": 98.10800999999968,
          "velocity": 0.47244094488188976,
          "duration": 0.19594575000000702
        },
        {
          "name": "E3",
          "midi": 52,
          "time": 98.10800999999968,
          "velocity": 0.47244094488188976,
          "duration": 0.19594575000000702
        },
        {
          "name": "B2",
          "midi": 47,
          "time": 98.10800999999968,
          "velocity": 0.47244094488188976,
          "duration": 0.19594575000000702
        },
        {
          "name": "E2",
          "midi": 40,
          "time": 98.10800999999968,
          "velocity": 0.47244094488188976,
          "duration": 0.19594575000000702
        },
        {
          "name": "E4",
          "midi": 64,
          "time": 98.31071249999968,
          "velocity": 0.47244094488188976,
          "duration": 0.19594575000000702
        },
        {
          "name": "B3",
          "midi": 59,
          "time": 98.31071249999968,
          "velocity": 0.47244094488188976,
          "duration": 0.19594575000000702
        },
        {
          "name": "G3",
          "midi": 55,
          "time": 98.31071249999968,
          "velocity": 0.47244094488188976,
          "duration": 0.19594575000000702
        },
        {
          "name": "E3",
          "midi": 52,
          "time": 98.31071249999968,
          "velocity": 0.47244094488188976,
          "duration": 0.19594575000000702
        },
        {
          "name": "B2",
          "midi": 47,
          "time": 98.31071249999968,
          "velocity": 0.47244094488188976,
          "duration": 0.19594575000000702
        },
        {
          "name": "E2",
          "midi": 40,
          "time": 98.31071249999968,
          "velocity": 0.47244094488188976,
          "duration": 0.19594575000000702
        },
        {
          "name": "E4",
          "midi": 64,
          "time": 98.51341499999968,
          "velocity": 0.47244094488188976,
          "duration": 0.3986482499999937
        },
        {
          "name": "B3",
          "midi": 59,
          "time": 98.51341499999968,
          "velocity": 0.47244094488188976,
          "duration": 0.3986482499999937
        },
        {
          "name": "G3",
          "midi": 55,
          "time": 98.51341499999968,
          "velocity": 0.47244094488188976,
          "duration": 0.3986482499999937
        },
        {
          "name": "E3",
          "midi": 52,
          "time": 98.51341499999968,
          "velocity": 0.47244094488188976,
          "duration": 0.3986482499999937
        },
        {
          "name": "B2",
          "midi": 47,
          "time": 98.51341499999968,
          "velocity": 0.47244094488188976,
          "duration": 0.3986482499999937
        },
        {
          "name": "E2",
          "midi": 40,
          "time": 98.51341499999968,
          "velocity": 0.47244094488188976,
          "duration": 0.3986482499999937
        },
        {
          "name": "E4",
          "midi": 64,
          "time": 98.91881999999967,
          "velocity": 0.47244094488188976,
          "duration": 0.3986482499999937
        },
        {
          "name": "B3",
          "midi": 59,
          "time": 98.91881999999967,
          "velocity": 0.47244094488188976,
          "duration": 0.3986482499999937
        },
        {
          "name": "G3",
          "midi": 55,
          "time": 98.91881999999967,
          "velocity": 0.47244094488188976,
          "duration": 0.3986482499999937
        },
        {
          "name": "E3",
          "midi": 52,
          "time": 98.91881999999967,
          "velocity": 0.47244094488188976,
          "duration": 0.3986482499999937
        },
        {
          "name": "B2",
          "midi": 47,
          "time": 98.91881999999967,
          "velocity": 0.47244094488188976,
          "duration": 0.3986482499999937
        },
        {
          "name": "E2",
          "midi": 40,
          "time": 98.91881999999967,
          "velocity": 0.47244094488188976,
          "duration": 0.3986482499999937
        },
        {
          "name": "E4",
          "midi": 64,
          "time": 99.32422499999966,
          "velocity": 0.47244094488188976,
          "duration": 0.3986482499999937
        },
        {
          "name": "B3",
          "midi": 59,
          "time": 99.32422499999966,
          "velocity": 0.47244094488188976,
          "duration": 0.3986482499999937
        },
        {
          "name": "G3",
          "midi": 55,
          "time": 99.32422499999966,
          "velocity": 0.47244094488188976,
          "duration": 0.3986482499999937
        },
        {
          "name": "E3",
          "midi": 52,
          "time": 99.32422499999966,
          "velocity": 0.47244094488188976,
          "duration": 0.3986482499999937
        },
        {
          "name": "B2",
          "midi": 47,
          "time": 99.32422499999966,
          "velocity": 0.47244094488188976,
          "duration": 0.3986482499999937
        },
        {
          "name": "E2",
          "midi": 40,
          "time": 99.32422499999966,
          "velocity": 0.47244094488188976,
          "duration": 0.3986482499999937
        },
        {
          "name": "E4",
          "midi": 64,
          "time": 99.72962999999964,
          "velocity": 0.47244094488188976,
          "duration": 0.19594575000000702
        },
        {
          "name": "B3",
          "midi": 59,
          "time": 99.72962999999964,
          "velocity": 0.47244094488188976,
          "duration": 0.19594575000000702
        },
        {
          "name": "G3",
          "midi": 55,
          "time": 99.72962999999964,
          "velocity": 0.47244094488188976,
          "duration": 0.19594575000000702
        },
        {
          "name": "E3",
          "midi": 52,
          "time": 99.72962999999964,
          "velocity": 0.47244094488188976,
          "duration": 0.19594575000000702
        },
        {
          "name": "B2",
          "midi": 47,
          "time": 99.72962999999964,
          "velocity": 0.47244094488188976,
          "duration": 0.19594575000000702
        },
        {
          "name": "E2",
          "midi": 40,
          "time": 99.72962999999964,
          "velocity": 0.47244094488188976,
          "duration": 0.19594575000000702
        },
        {
          "name": "E4",
          "midi": 64,
          "time": 99.93233249999965,
          "velocity": 0.47244094488188976,
          "duration": 0.19594575000000702
        },
        {
          "name": "B3",
          "midi": 59,
          "time": 99.93233249999965,
          "velocity": 0.47244094488188976,
          "duration": 0.19594575000000702
        },
        {
          "name": "G3",
          "midi": 55,
          "time": 99.93233249999965,
          "velocity": 0.47244094488188976,
          "duration": 0.19594575000000702
        },
        {
          "name": "E3",
          "midi": 52,
          "time": 99.93233249999965,
          "velocity": 0.47244094488188976,
          "duration": 0.19594575000000702
        },
        {
          "name": "B2",
          "midi": 47,
          "time": 99.93233249999965,
          "velocity": 0.47244094488188976,
          "duration": 0.19594575000000702
        },
        {
          "name": "E2",
          "midi": 40,
          "time": 99.93233249999965,
          "velocity": 0.47244094488188976,
          "duration": 0.19594575000000702
        },
        {
          "name": "E4",
          "midi": 64,
          "time": 100.13503499999965,
          "velocity": 0.47244094488188976,
          "duration": 0.3986482499999937
        },
        {
          "name": "B3",
          "midi": 59,
          "time": 100.13503499999965,
          "velocity": 0.47244094488188976,
          "duration": 0.3986482499999937
        },
        {
          "name": "G3",
          "midi": 55,
          "time": 100.13503499999965,
          "velocity": 0.47244094488188976,
          "duration": 0.3986482499999937
        },
        {
          "name": "E3",
          "midi": 52,
          "time": 100.13503499999965,
          "velocity": 0.47244094488188976,
          "duration": 0.3986482499999937
        },
        {
          "name": "B2",
          "midi": 47,
          "time": 100.13503499999965,
          "velocity": 0.47244094488188976,
          "duration": 0.3986482499999937
        },
        {
          "name": "E2",
          "midi": 40,
          "time": 100.13503499999965,
          "velocity": 0.47244094488188976,
          "duration": 0.3986482499999937
        },
        {
          "name": "F#2",
          "midi": 42,
          "time": 100.54043999999963,
          "velocity": 0.47244094488188976,
          "duration": 0.3986482499999937
        },
        {
          "name": "C#3",
          "midi": 49,
          "time": 100.54043999999963,
          "velocity": 0.47244094488188976,
          "duration": 0.3986482499999937
        },
        {
          "name": "F#3",
          "midi": 54,
          "time": 100.54043999999963,
          "velocity": 0.47244094488188976,
          "duration": 0.3986482499999937
        },
        {
          "name": "A#3",
          "midi": 58,
          "time": 100.54043999999963,
          "velocity": 0.47244094488188976,
          "duration": 0.3986482499999937
        },
        {
          "name": "C#4",
          "midi": 61,
          "time": 100.54043999999963,
          "velocity": 0.47244094488188976,
          "duration": 0.3986482499999937
        },
        {
          "name": "F#4",
          "midi": 66,
          "time": 100.54043999999963,
          "velocity": 0.47244094488188976,
          "duration": 0.3986482499999937
        },
        {
          "name": "F#4",
          "midi": 66,
          "time": 100.94584499999962,
          "velocity": 0.47244094488188976,
          "duration": 0.19594575000000702
        },
        {
          "name": "C#4",
          "midi": 61,
          "time": 100.94584499999962,
          "velocity": 0.47244094488188976,
          "duration": 0.19594575000000702
        },
        {
          "name": "A#3",
          "midi": 58,
          "time": 100.94584499999962,
          "velocity": 0.47244094488188976,
          "duration": 0.19594575000000702
        },
        {
          "name": "F#3",
          "midi": 54,
          "time": 100.94584499999962,
          "velocity": 0.47244094488188976,
          "duration": 0.19594575000000702
        },
        {
          "name": "C#3",
          "midi": 49,
          "time": 100.94584499999962,
          "velocity": 0.47244094488188976,
          "duration": 0.19594575000000702
        },
        {
          "name": "F#2",
          "midi": 42,
          "time": 100.94584499999962,
          "velocity": 0.47244094488188976,
          "duration": 0.19594575000000702
        },
        {
          "name": "F#4",
          "midi": 66,
          "time": 101.14854749999962,
          "velocity": 0.47244094488188976,
          "duration": 0.19594575000000702
        },
        {
          "name": "C#4",
          "midi": 61,
          "time": 101.14854749999962,
          "velocity": 0.47244094488188976,
          "duration": 0.19594575000000702
        },
        {
          "name": "A#3",
          "midi": 58,
          "time": 101.14854749999962,
          "velocity": 0.47244094488188976,
          "duration": 0.19594575000000702
        },
        {
          "name": "F#3",
          "midi": 54,
          "time": 101.14854749999962,
          "velocity": 0.47244094488188976,
          "duration": 0.19594575000000702
        },
        {
          "name": "C#3",
          "midi": 49,
          "time": 101.14854749999962,
          "velocity": 0.47244094488188976,
          "duration": 0.19594575000000702
        },
        {
          "name": "F#2",
          "midi": 42,
          "time": 101.14854749999962,
          "velocity": 0.47244094488188976,
          "duration": 0.19594575000000702
        },
        {
          "name": "F#4",
          "midi": 66,
          "time": 101.35124999999962,
          "velocity": 0.47244094488188976,
          "duration": 0.19594575000000702
        },
        {
          "name": "C#4",
          "midi": 61,
          "time": 101.35124999999962,
          "velocity": 0.47244094488188976,
          "duration": 0.19594575000000702
        },
        {
          "name": "A#3",
          "midi": 58,
          "time": 101.35124999999962,
          "velocity": 0.47244094488188976,
          "duration": 0.19594575000000702
        },
        {
          "name": "F#3",
          "midi": 54,
          "time": 101.35124999999962,
          "velocity": 0.47244094488188976,
          "duration": 0.19594575000000702
        },
        {
          "name": "C#3",
          "midi": 49,
          "time": 101.35124999999962,
          "velocity": 0.47244094488188976,
          "duration": 0.19594575000000702
        },
        {
          "name": "F#2",
          "midi": 42,
          "time": 101.35124999999962,
          "velocity": 0.47244094488188976,
          "duration": 0.19594575000000702
        },
        {
          "name": "F#4",
          "midi": 66,
          "time": 101.55395249999962,
          "velocity": 0.47244094488188976,
          "duration": 0.3986482499999937
        },
        {
          "name": "C#4",
          "midi": 61,
          "time": 101.55395249999962,
          "velocity": 0.47244094488188976,
          "duration": 0.3986482499999937
        },
        {
          "name": "A#3",
          "midi": 58,
          "time": 101.55395249999962,
          "velocity": 0.47244094488188976,
          "duration": 0.3986482499999937
        },
        {
          "name": "F#3",
          "midi": 54,
          "time": 101.55395249999962,
          "velocity": 0.47244094488188976,
          "duration": 0.3986482499999937
        },
        {
          "name": "C#3",
          "midi": 49,
          "time": 101.55395249999962,
          "velocity": 0.47244094488188976,
          "duration": 0.3986482499999937
        },
        {
          "name": "F#2",
          "midi": 42,
          "time": 101.55395249999962,
          "velocity": 0.47244094488188976,
          "duration": 0.3986482499999937
        },
        {
          "name": "F#4",
          "midi": 66,
          "time": 101.95935749999961,
          "velocity": 0.47244094488188976,
          "duration": 0.19594575000000702
        },
        {
          "name": "C#4",
          "midi": 61,
          "time": 101.95935749999961,
          "velocity": 0.47244094488188976,
          "duration": 0.19594575000000702
        },
        {
          "name": "A#3",
          "midi": 58,
          "time": 101.95935749999961,
          "velocity": 0.47244094488188976,
          "duration": 0.19594575000000702
        },
        {
          "name": "F#3",
          "midi": 54,
          "time": 101.95935749999961,
          "velocity": 0.47244094488188976,
          "duration": 0.19594575000000702
        },
        {
          "name": "C#3",
          "midi": 49,
          "time": 101.95935749999961,
          "velocity": 0.47244094488188976,
          "duration": 0.19594575000000702
        },
        {
          "name": "F#2",
          "midi": 42,
          "time": 101.95935749999961,
          "velocity": 0.47244094488188976,
          "duration": 0.19594575000000702
        },
        {
          "name": "F#4",
          "midi": 66,
          "time": 102.16205999999961,
          "velocity": 0.47244094488188976,
          "duration": 1.614863249999999
        },
        {
          "name": "C#4",
          "midi": 61,
          "time": 102.16205999999961,
          "velocity": 0.47244094488188976,
          "duration": 1.614863249999999
        },
        {
          "name": "A#3",
          "midi": 58,
          "time": 102.16205999999961,
          "velocity": 0.47244094488188976,
          "duration": 1.614863249999999
        },
        {
          "name": "F#3",
          "midi": 54,
          "time": 102.16205999999961,
          "velocity": 0.47244094488188976,
          "duration": 1.614863249999999
        },
        {
          "name": "C#3",
          "midi": 49,
          "time": 102.16205999999961,
          "velocity": 0.47244094488188976,
          "duration": 1.614863249999999
        },
        {
          "name": "F#2",
          "midi": 42,
          "time": 102.16205999999961,
          "velocity": 0.47244094488188976,
          "duration": 1.614863249999999
        },
        {
          "name": "B3",
          "midi": 59,
          "time": 103.7836799999996,
          "velocity": 0.47244094488188976,
          "duration": 1.614863249999999
        },
        {
          "name": "G3",
          "midi": 55,
          "time": 103.7836799999996,
          "velocity": 0.47244094488188976,
          "duration": 1.614863249999999
        },
        {
          "name": "D3",
          "midi": 50,
          "time": 103.7836799999996,
          "velocity": 0.47244094488188976,
          "duration": 1.614863249999999
        },
        {
          "name": "B3",
          "midi": 59,
          "time": 105.4052999999996,
          "velocity": 0.47244094488188976,
          "duration": 1.614863249999999
        },
        {
          "name": "G3",
          "midi": 55,
          "time": 105.4052999999996,
          "velocity": 0.47244094488188976,
          "duration": 1.614863249999999
        },
        {
          "name": "D3",
          "midi": 50,
          "time": 105.4052999999996,
          "velocity": 0.47244094488188976,
          "duration": 1.614863249999999
        },
        {
          "name": "D3",
          "midi": 50,
          "time": 107.02691999999959,
          "velocity": 0.47244094488188976,
          "duration": 1.614863249999999
        },
        {
          "name": "F#3",
          "midi": 54,
          "time": 107.02691999999959,
          "velocity": 0.47244094488188976,
          "duration": 1.614863249999999
        },
        {
          "name": "A3",
          "midi": 57,
          "time": 107.02691999999959,
          "velocity": 0.47244094488188976,
          "duration": 1.614863249999999
        },
        {
          "name": "A3",
          "midi": 57,
          "time": 108.64853999999958,
          "velocity": 0.47244094488188976,
          "duration": 1.614863249999999
        },
        {
          "name": "F#3",
          "midi": 54,
          "time": 108.64853999999958,
          "velocity": 0.47244094488188976,
          "duration": 1.614863249999999
        },
        {
          "name": "D3",
          "midi": 50,
          "time": 108.64853999999958,
          "velocity": 0.47244094488188976,
          "duration": 1.614863249999999
        },
        {
          "name": "C#3",
          "midi": 49,
          "time": 110.27015999999958,
          "velocity": 0.47244094488188976,
          "duration": 1.614863249999999
        },
        {
          "name": "F#3",
          "midi": 54,
          "time": 110.27015999999958,
          "velocity": 0.47244094488188976,
          "duration": 1.614863249999999
        },
        {
          "name": "A#3",
          "midi": 58,
          "time": 110.27015999999958,
          "velocity": 0.47244094488188976,
          "duration": 1.614863249999999
        },
        {
          "name": "A#3",
          "midi": 58,
          "time": 111.89177999999957,
          "velocity": 0.47244094488188976,
          "duration": 1.614863249999999
        },
        {
          "name": "F#3",
          "midi": 54,
          "time": 111.89177999999957,
          "velocity": 0.47244094488188976,
          "duration": 1.614863249999999
        },
        {
          "name": "C#3",
          "midi": 49,
          "time": 111.89177999999957,
          "velocity": 0.47244094488188976,
          "duration": 1.614863249999999
        },
        {
          "name": "D3",
          "midi": 50,
          "time": 113.51339999999956,
          "velocity": 0.47244094488188976,
          "duration": 1.614863249999999
        },
        {
          "name": "F#3",
          "midi": 54,
          "time": 113.51339999999956,
          "velocity": 0.47244094488188976,
          "duration": 1.614863249999999
        },
        {
          "name": "B3",
          "midi": 59,
          "time": 113.51339999999956,
          "velocity": 0.47244094488188976,
          "duration": 1.614863249999999
        },
        {
          "name": "B3",
          "midi": 59,
          "time": 115.13501999999956,
          "velocity": 0.47244094488188976,
          "duration": 1.614863249999999
        },
        {
          "name": "F#3",
          "midi": 54,
          "time": 115.13501999999956,
          "velocity": 0.47244094488188976,
          "duration": 1.614863249999999
        },
        {
          "name": "D3",
          "midi": 50,
          "time": 115.13501999999956,
          "velocity": 0.47244094488188976,
          "duration": 1.614863249999999
        },
        {
          "name": "B3",
          "midi": 59,
          "time": 116.75663999999955,
          "velocity": 0.47244094488188976,
          "duration": 1.614863249999999
        },
        {
          "name": "G3",
          "midi": 55,
          "time": 116.75663999999955,
          "velocity": 0.47244094488188976,
          "duration": 1.614863249999999
        },
        {
          "name": "D3",
          "midi": 50,
          "time": 116.75663999999955,
          "velocity": 0.47244094488188976,
          "duration": 1.614863249999999
        },
        {
          "name": "B3",
          "midi": 59,
          "time": 118.37825999999954,
          "velocity": 0.47244094488188976,
          "duration": 1.614863249999999
        },
        {
          "name": "G3",
          "midi": 55,
          "time": 118.37825999999954,
          "velocity": 0.47244094488188976,
          "duration": 1.614863249999999
        },
        {
          "name": "D3",
          "midi": 50,
          "time": 118.37825999999954,
          "velocity": 0.47244094488188976,
          "duration": 1.614863249999999
        },
        {
          "name": "D3",
          "midi": 50,
          "time": 119.99987999999954,
          "velocity": 0.47244094488188976,
          "duration": 1.614863249999999
        },
        {
          "name": "F#3",
          "midi": 54,
          "time": 119.99987999999954,
          "velocity": 0.47244094488188976,
          "duration": 1.614863249999999
        },
        {
          "name": "A3",
          "midi": 57,
          "time": 119.99987999999954,
          "velocity": 0.47244094488188976,
          "duration": 1.614863249999999
        },
        {
          "name": "A3",
          "midi": 57,
          "time": 121.62149999999953,
          "velocity": 0.47244094488188976,
          "duration": 1.614863249999999
        },
        {
          "name": "F#3",
          "midi": 54,
          "time": 121.62149999999953,
          "velocity": 0.47244094488188976,
          "duration": 1.614863249999999
        },
        {
          "name": "D3",
          "midi": 50,
          "time": 121.62149999999953,
          "velocity": 0.47244094488188976,
          "duration": 1.614863249999999
        },
        {
          "name": "E3",
          "midi": 52,
          "time": 123.24311999999952,
          "velocity": 0.47244094488188976,
          "duration": 1.614863249999999
        },
        {
          "name": "G3",
          "midi": 55,
          "time": 123.24311999999952,
          "velocity": 0.47244094488188976,
          "duration": 1.614863249999999
        },
        {
          "name": "B3",
          "midi": 59,
          "time": 123.24311999999952,
          "velocity": 0.47244094488188976,
          "duration": 1.614863249999999
        },
        {
          "name": "B3",
          "midi": 59,
          "time": 124.86473999999951,
          "velocity": 0.47244094488188976,
          "duration": 1.614863249999999
        },
        {
          "name": "G3",
          "midi": 55,
          "time": 124.86473999999951,
          "velocity": 0.47244094488188976,
          "duration": 1.614863249999999
        },
        {
          "name": "E3",
          "midi": 52,
          "time": 124.86473999999951,
          "velocity": 0.47244094488188976,
          "duration": 1.614863249999999
        },
        {
          "name": "C#3",
          "midi": 49,
          "time": 126.48635999999951,
          "velocity": 0.47244094488188976,
          "duration": 3.236483249999992
        },
        {
          "name": "F#3",
          "midi": 54,
          "time": 126.48635999999951,
          "velocity": 0.47244094488188976,
          "duration": 3.236483249999992
        },
        {
          "name": "A#3",
          "midi": 58,
          "time": 126.48635999999951,
          "velocity": 0.47244094488188976,
          "duration": 3.236483249999992
        },
        {
          "name": "F#3",
          "midi": 54,
          "time": 129.7295999999995,
          "velocity": 0.47244094488188976,
          "duration": 0.3986482500000079
        },
        {
          "name": "B2",
          "midi": 47,
          "time": 129.7295999999995,
          "velocity": 0.47244094488188976,
          "duration": 0.3986482500000079
        },
        {
          "name": "F#2",
          "midi": 42,
          "time": 129.7295999999995,
          "velocity": 0.47244094488188976,
          "duration": 0.3986482500000079
        },
        {
          "name": "B3",
          "midi": 59,
          "time": 129.7295999999995,
          "velocity": 0.47244094488188976,
          "duration": 0.3986482500000079
        },
        {
          "name": "D4",
          "midi": 62,
          "time": 129.7295999999995,
          "velocity": 0.47244094488188976,
          "duration": 0.3986482500000079
        },
        {
          "name": "F#4",
          "midi": 66,
          "time": 129.7295999999995,
          "velocity": 0.47244094488188976,
          "duration": 0.3986482500000079
        },
        {
          "name": "F#4",
          "midi": 66,
          "time": 130.1350049999995,
          "velocity": 0.47244094488188976,
          "duration": 0.1959457499999928
        },
        {
          "name": "B3",
          "midi": 59,
          "time": 130.1350049999995,
          "velocity": 0.47244094488188976,
          "duration": 0.1959457499999928
        },
        {
          "name": "D4",
          "midi": 62,
          "time": 130.1350049999995,
          "velocity": 0.47244094488188976,
          "duration": 0.1959457499999928
        },
        {
          "name": "F#3",
          "midi": 54,
          "time": 130.1350049999995,
          "velocity": 0.47244094488188976,
          "duration": 0.1959457499999928
        },
        {
          "name": "B2",
          "midi": 47,
          "time": 130.1350049999995,
          "velocity": 0.47244094488188976,
          "duration": 0.1959457499999928
        },
        {
          "name": "F#2",
          "midi": 42,
          "time": 130.1350049999995,
          "velocity": 0.47244094488188976,
          "duration": 0.1959457499999928
        },
        {
          "name": "F#4",
          "midi": 66,
          "time": 130.33770749999948,
          "velocity": 0.47244094488188976,
          "duration": 0.1959457499999928
        },
        {
          "name": "B3",
          "midi": 59,
          "time": 130.33770749999948,
          "velocity": 0.47244094488188976,
          "duration": 0.1959457499999928
        },
        {
          "name": "D4",
          "midi": 62,
          "time": 130.33770749999948,
          "velocity": 0.47244094488188976,
          "duration": 0.1959457499999928
        },
        {
          "name": "F#3",
          "midi": 54,
          "time": 130.33770749999948,
          "velocity": 0.47244094488188976,
          "duration": 0.1959457499999928
        },
        {
          "name": "B2",
          "midi": 47,
          "time": 130.33770749999948,
          "velocity": 0.47244094488188976,
          "duration": 0.1959457499999928
        },
        {
          "name": "F#2",
          "midi": 42,
          "time": 130.33770749999948,
          "velocity": 0.47244094488188976,
          "duration": 0.1959457499999928
        },
        {
          "name": "F#4",
          "midi": 66,
          "time": 130.54040999999947,
          "velocity": 0.47244094488188976,
          "duration": 0.3986482500000079
        },
        {
          "name": "D4",
          "midi": 62,
          "time": 130.54040999999947,
          "velocity": 0.47244094488188976,
          "duration": 0.3986482500000079
        },
        {
          "name": "B3",
          "midi": 59,
          "time": 130.54040999999947,
          "velocity": 0.47244094488188976,
          "duration": 0.3986482500000079
        },
        {
          "name": "F#3",
          "midi": 54,
          "time": 130.54040999999947,
          "velocity": 0.47244094488188976,
          "duration": 0.3986482500000079
        },
        {
          "name": "B2",
          "midi": 47,
          "time": 130.54040999999947,
          "velocity": 0.47244094488188976,
          "duration": 0.3986482500000079
        },
        {
          "name": "F#2",
          "midi": 42,
          "time": 130.54040999999947,
          "velocity": 0.47244094488188976,
          "duration": 0.3986482500000079
        },
        {
          "name": "F#4",
          "midi": 66,
          "time": 130.94581499999947,
          "velocity": 0.47244094488188976,
          "duration": 0.1959457499999928
        },
        {
          "name": "D4",
          "midi": 62,
          "time": 130.94581499999947,
          "velocity": 0.47244094488188976,
          "duration": 0.1959457499999928
        },
        {
          "name": "B3",
          "midi": 59,
          "time": 130.94581499999947,
          "velocity": 0.47244094488188976,
          "duration": 0.1959457499999928
        },
        {
          "name": "F#3",
          "midi": 54,
          "time": 130.94581499999947,
          "velocity": 0.47244094488188976,
          "duration": 0.1959457499999928
        },
        {
          "name": "B2",
          "midi": 47,
          "time": 130.94581499999947,
          "velocity": 0.47244094488188976,
          "duration": 0.1959457499999928
        },
        {
          "name": "F#2",
          "midi": 42,
          "time": 130.94581499999947,
          "velocity": 0.47244094488188976,
          "duration": 0.1959457499999928
        },
        {
          "name": "F#4",
          "midi": 66,
          "time": 131.14851749999946,
          "velocity": 0.47244094488188976,
          "duration": 0.1959457499999928
        },
        {
          "name": "D4",
          "midi": 62,
          "time": 131.14851749999946,
          "velocity": 0.47244094488188976,
          "duration": 0.1959457499999928
        },
        {
          "name": "B3",
          "midi": 59,
          "time": 131.14851749999946,
          "velocity": 0.47244094488188976,
          "duration": 0.1959457499999928
        },
        {
          "name": "F#3",
          "midi": 54,
          "time": 131.14851749999946,
          "velocity": 0.47244094488188976,
          "duration": 0.1959457499999928
        },
        {
          "name": "B2",
          "midi": 47,
          "time": 131.14851749999946,
          "velocity": 0.47244094488188976,
          "duration": 0.1959457499999928
        },
        {
          "name": "F#2",
          "midi": 42,
          "time": 131.14851749999946,
          "velocity": 0.47244094488188976,
          "duration": 0.1959457499999928
        },
        {
          "name": "F#4",
          "midi": 66,
          "time": 131.35121999999944,
          "velocity": 0.47244094488188976,
          "duration": 0.1959457499999928
        },
        {
          "name": "D4",
          "midi": 62,
          "time": 131.35121999999944,
          "velocity": 0.47244094488188976,
          "duration": 0.1959457499999928
        },
        {
          "name": "B3",
          "midi": 59,
          "time": 131.35121999999944,
          "velocity": 0.47244094488188976,
          "duration": 0.1959457499999928
        },
        {
          "name": "F#3",
          "midi": 54,
          "time": 131.35121999999944,
          "velocity": 0.47244094488188976,
          "duration": 0.1959457499999928
        },
        {
          "name": "B2",
          "midi": 47,
          "time": 131.35121999999944,
          "velocity": 0.47244094488188976,
          "duration": 0.1959457499999928
        },
        {
          "name": "F#2",
          "midi": 42,
          "time": 131.35121999999944,
          "velocity": 0.47244094488188976,
          "duration": 0.1959457499999928
        },
        {
          "name": "F#4",
          "midi": 66,
          "time": 131.55392249999943,
          "velocity": 0.47244094488188976,
          "duration": 0.1959457499999928
        },
        {
          "name": "D4",
          "midi": 62,
          "time": 131.55392249999943,
          "velocity": 0.47244094488188976,
          "duration": 0.1959457499999928
        },
        {
          "name": "B3",
          "midi": 59,
          "time": 131.55392249999943,
          "velocity": 0.47244094488188976,
          "duration": 0.1959457499999928
        },
        {
          "name": "F#3",
          "midi": 54,
          "time": 131.55392249999943,
          "velocity": 0.47244094488188976,
          "duration": 0.1959457499999928
        },
        {
          "name": "B2",
          "midi": 47,
          "time": 131.55392249999943,
          "velocity": 0.47244094488188976,
          "duration": 0.1959457499999928
        },
        {
          "name": "F#2",
          "midi": 42,
          "time": 131.55392249999943,
          "velocity": 0.47244094488188976,
          "duration": 0.1959457499999928
        },
        {
          "name": "F#4",
          "midi": 66,
          "time": 131.75662499999942,
          "velocity": 0.47244094488188976,
          "duration": 0.1959457499999928
        },
        {
          "name": "D4",
          "midi": 62,
          "time": 131.75662499999942,
          "velocity": 0.47244094488188976,
          "duration": 0.1959457499999928
        },
        {
          "name": "B3",
          "midi": 59,
          "time": 131.75662499999942,
          "velocity": 0.47244094488188976,
          "duration": 0.1959457499999928
        },
        {
          "name": "F#3",
          "midi": 54,
          "time": 131.75662499999942,
          "velocity": 0.47244094488188976,
          "duration": 0.1959457499999928
        },
        {
          "name": "B2",
          "midi": 47,
          "time": 131.75662499999942,
          "velocity": 0.47244094488188976,
          "duration": 0.1959457499999928
        },
        {
          "name": "F#2",
          "midi": 42,
          "time": 131.75662499999942,
          "velocity": 0.47244094488188976,
          "duration": 0.1959457499999928
        },
        {
          "name": "F#4",
          "midi": 66,
          "time": 131.9593274999994,
          "velocity": 0.47244094488188976,
          "duration": 0.3986482500000079
        },
        {
          "name": "D4",
          "midi": 62,
          "time": 131.9593274999994,
          "velocity": 0.47244094488188976,
          "duration": 0.3986482500000079
        },
        {
          "name": "B3",
          "midi": 59,
          "time": 131.9593274999994,
          "velocity": 0.47244094488188976,
          "duration": 0.3986482500000079
        },
        {
          "name": "F#3",
          "midi": 54,
          "time": 131.9593274999994,
          "velocity": 0.47244094488188976,
          "duration": 0.3986482500000079
        },
        {
          "name": "B2",
          "midi": 47,
          "time": 131.9593274999994,
          "velocity": 0.47244094488188976,
          "duration": 0.3986482500000079
        },
        {
          "name": "F#2",
          "midi": 42,
          "time": 131.9593274999994,
          "velocity": 0.47244094488188976,
          "duration": 0.3986482500000079
        },
        {
          "name": "F#4",
          "midi": 66,
          "time": 132.3647324999994,
          "velocity": 0.47244094488188976,
          "duration": 0.1959457499999928
        },
        {
          "name": "D4",
          "midi": 62,
          "time": 132.3647324999994,
          "velocity": 0.47244094488188976,
          "duration": 0.1959457499999928
        },
        {
          "name": "B3",
          "midi": 59,
          "time": 132.3647324999994,
          "velocity": 0.47244094488188976,
          "duration": 0.1959457499999928
        },
        {
          "name": "F#3",
          "midi": 54,
          "time": 132.3647324999994,
          "velocity": 0.47244094488188976,
          "duration": 0.1959457499999928
        },
        {
          "name": "B2",
          "midi": 47,
          "time": 132.3647324999994,
          "velocity": 0.47244094488188976,
          "duration": 0.1959457499999928
        },
        {
          "name": "F#2",
          "midi": 42,
          "time": 132.3647324999994,
          "velocity": 0.47244094488188976,
          "duration": 0.1959457499999928
        },
        {
          "name": "F#4",
          "midi": 66,
          "time": 132.5674349999994,
          "velocity": 0.47244094488188976,
          "duration": 0.3986482500000079
        },
        {
          "name": "D4",
          "midi": 62,
          "time": 132.5674349999994,
          "velocity": 0.47244094488188976,
          "duration": 0.3986482500000079
        },
        {
          "name": "B3",
          "midi": 59,
          "time": 132.5674349999994,
          "velocity": 0.47244094488188976,
          "duration": 0.3986482500000079
        },
        {
          "name": "F#3",
          "midi": 54,
          "time": 132.5674349999994,
          "velocity": 0.47244094488188976,
          "duration": 0.3986482500000079
        },
        {
          "name": "B2",
          "midi": 47,
          "time": 132.5674349999994,
          "velocity": 0.47244094488188976,
          "duration": 0.3986482500000079
        },
        {
          "name": "F#2",
          "midi": 42,
          "time": 132.5674349999994,
          "velocity": 0.47244094488188976,
          "duration": 0.3986482500000079
        },
        {
          "name": "F#2",
          "midi": 42,
          "time": 132.9728399999994,
          "velocity": 0.47244094488188976,
          "duration": 0.3986482500000079
        },
        {
          "name": "C#3",
          "midi": 49,
          "time": 132.9728399999994,
          "velocity": 0.47244094488188976,
          "duration": 0.3986482500000079
        },
        {
          "name": "F#3",
          "midi": 54,
          "time": 132.9728399999994,
          "velocity": 0.47244094488188976,
          "duration": 0.3986482500000079
        },
        {
          "name": "A#3",
          "midi": 58,
          "time": 132.9728399999994,
          "velocity": 0.47244094488188976,
          "duration": 0.3986482500000079
        },
        {
          "name": "C#4",
          "midi": 61,
          "time": 132.9728399999994,
          "velocity": 0.47244094488188976,
          "duration": 0.3986482500000079
        },
        {
          "name": "F#4",
          "midi": 66,
          "time": 132.9728399999994,
          "velocity": 0.47244094488188976,
          "duration": 0.3986482500000079
        },
        {
          "name": "F#4",
          "midi": 66,
          "time": 133.3782449999994,
          "velocity": 0.47244094488188976,
          "duration": 0.1959457499999928
        },
        {
          "name": "C#4",
          "midi": 61,
          "time": 133.3782449999994,
          "velocity": 0.47244094488188976,
          "duration": 0.1959457499999928
        },
        {
          "name": "A#3",
          "midi": 58,
          "time": 133.3782449999994,
          "velocity": 0.47244094488188976,
          "duration": 0.1959457499999928
        },
        {
          "name": "F#3",
          "midi": 54,
          "time": 133.3782449999994,
          "velocity": 0.47244094488188976,
          "duration": 0.1959457499999928
        },
        {
          "name": "C#3",
          "midi": 49,
          "time": 133.3782449999994,
          "velocity": 0.47244094488188976,
          "duration": 0.1959457499999928
        },
        {
          "name": "F#2",
          "midi": 42,
          "time": 133.3782449999994,
          "velocity": 0.47244094488188976,
          "duration": 0.1959457499999928
        },
        {
          "name": "F#4",
          "midi": 66,
          "time": 133.58094749999938,
          "velocity": 0.47244094488188976,
          "duration": 0.1959457499999928
        },
        {
          "name": "C#4",
          "midi": 61,
          "time": 133.58094749999938,
          "velocity": 0.47244094488188976,
          "duration": 0.1959457499999928
        },
        {
          "name": "A#3",
          "midi": 58,
          "time": 133.58094749999938,
          "velocity": 0.47244094488188976,
          "duration": 0.1959457499999928
        },
        {
          "name": "F#3",
          "midi": 54,
          "time": 133.58094749999938,
          "velocity": 0.47244094488188976,
          "duration": 0.1959457499999928
        },
        {
          "name": "C#3",
          "midi": 49,
          "time": 133.58094749999938,
          "velocity": 0.47244094488188976,
          "duration": 0.1959457499999928
        },
        {
          "name": "F#2",
          "midi": 42,
          "time": 133.58094749999938,
          "velocity": 0.47244094488188976,
          "duration": 0.1959457499999928
        },
        {
          "name": "F#4",
          "midi": 66,
          "time": 133.78364999999937,
          "velocity": 0.47244094488188976,
          "duration": 0.3986482500000079
        },
        {
          "name": "A#3",
          "midi": 58,
          "time": 133.78364999999937,
          "velocity": 0.47244094488188976,
          "duration": 0.3986482500000079
        },
        {
          "name": "C#4",
          "midi": 61,
          "time": 133.78364999999937,
          "velocity": 0.47244094488188976,
          "duration": 0.3986482500000079
        },
        {
          "name": "F#3",
          "midi": 54,
          "time": 133.78364999999937,
          "velocity": 0.47244094488188976,
          "duration": 0.3986482500000079
        },
        {
          "name": "C#3",
          "midi": 49,
          "time": 133.78364999999937,
          "velocity": 0.47244094488188976,
          "duration": 0.3986482500000079
        },
        {
          "name": "F#2",
          "midi": 42,
          "time": 133.78364999999937,
          "velocity": 0.47244094488188976,
          "duration": 0.3986482500000079
        },
        {
          "name": "F#4",
          "midi": 66,
          "time": 134.18905499999937,
          "velocity": 0.47244094488188976,
          "duration": 0.1959457499999928
        },
        {
          "name": "C#4",
          "midi": 61,
          "time": 134.18905499999937,
          "velocity": 0.47244094488188976,
          "duration": 0.1959457499999928
        },
        {
          "name": "A#3",
          "midi": 58,
          "time": 134.18905499999937,
          "velocity": 0.47244094488188976,
          "duration": 0.1959457499999928
        },
        {
          "name": "F#3",
          "midi": 54,
          "time": 134.18905499999937,
          "velocity": 0.47244094488188976,
          "duration": 0.1959457499999928
        },
        {
          "name": "C#3",
          "midi": 49,
          "time": 134.18905499999937,
          "velocity": 0.47244094488188976,
          "duration": 0.1959457499999928
        },
        {
          "name": "F#2",
          "midi": 42,
          "time": 134.18905499999937,
          "velocity": 0.47244094488188976,
          "duration": 0.1959457499999928
        },
        {
          "name": "F#4",
          "midi": 66,
          "time": 134.39175749999936,
          "velocity": 0.47244094488188976,
          "duration": 0.1959457499999928
        },
        {
          "name": "C#4",
          "midi": 61,
          "time": 134.39175749999936,
          "velocity": 0.47244094488188976,
          "duration": 0.1959457499999928
        },
        {
          "name": "A#3",
          "midi": 58,
          "time": 134.39175749999936,
          "velocity": 0.47244094488188976,
          "duration": 0.1959457499999928
        },
        {
          "name": "F#3",
          "midi": 54,
          "time": 134.39175749999936,
          "velocity": 0.47244094488188976,
          "duration": 0.1959457499999928
        },
        {
          "name": "C#3",
          "midi": 49,
          "time": 134.39175749999936,
          "velocity": 0.47244094488188976,
          "duration": 0.1959457499999928
        },
        {
          "name": "F#2",
          "midi": 42,
          "time": 134.39175749999936,
          "velocity": 0.47244094488188976,
          "duration": 0.1959457499999928
        },
        {
          "name": "F#4",
          "midi": 66,
          "time": 134.59445999999934,
          "velocity": 0.47244094488188976,
          "duration": 1.2094582500000115
        },
        {
          "name": "C#4",
          "midi": 61,
          "time": 134.59445999999934,
          "velocity": 0.47244094488188976,
          "duration": 1.2094582500000115
        },
        {
          "name": "A#3",
          "midi": 58,
          "time": 134.59445999999934,
          "velocity": 0.47244094488188976,
          "duration": 1.2094582500000115
        },
        {
          "name": "F#3",
          "midi": 54,
          "time": 134.59445999999934,
          "velocity": 0.47244094488188976,
          "duration": 1.2094582500000115
        },
        {
          "name": "C#3",
          "midi": 49,
          "time": 134.59445999999934,
          "velocity": 0.47244094488188976,
          "duration": 1.2094582500000115
        },
        {
          "name": "F#2",
          "midi": 42,
          "time": 134.59445999999934,
          "velocity": 0.47244094488188976,
          "duration": 1.2094582500000115
        },
        {
          "name": "F#4",
          "midi": 66,
          "time": 135.81067499999935,
          "velocity": 0.47244094488188976,
          "duration": 0.1959457499999928
        },
        {
          "name": "C#4",
          "midi": 61,
          "time": 135.81067499999935,
          "velocity": 0.47244094488188976,
          "duration": 0.1959457499999928
        },
        {
          "name": "A#3",
          "midi": 58,
          "time": 135.81067499999935,
          "velocity": 0.47244094488188976,
          "duration": 0.1959457499999928
        },
        {
          "name": "F#3",
          "midi": 54,
          "time": 135.81067499999935,
          "velocity": 0.47244094488188976,
          "duration": 0.1959457499999928
        },
        {
          "name": "C#3",
          "midi": 49,
          "time": 135.81067499999935,
          "velocity": 0.47244094488188976,
          "duration": 0.1959457499999928
        },
        {
          "name": "F#2",
          "midi": 42,
          "time": 135.81067499999935,
          "velocity": 0.47244094488188976,
          "duration": 0.1959457499999928
        },
        {
          "name": "F#4",
          "midi": 66,
          "time": 136.01337749999934,
          "velocity": 0.47244094488188976,
          "duration": 0.1959457499999928
        },
        {
          "name": "C#4",
          "midi": 61,
          "time": 136.01337749999934,
          "velocity": 0.47244094488188976,
          "duration": 0.1959457499999928
        },
        {
          "name": "A#3",
          "midi": 58,
          "time": 136.01337749999934,
          "velocity": 0.47244094488188976,
          "duration": 0.1959457499999928
        },
        {
          "name": "F#3",
          "midi": 54,
          "time": 136.01337749999934,
          "velocity": 0.47244094488188976,
          "duration": 0.1959457499999928
        },
        {
          "name": "C#3",
          "midi": 49,
          "time": 136.01337749999934,
          "velocity": 0.47244094488188976,
          "duration": 0.1959457499999928
        },
        {
          "name": "F#2",
          "midi": 42,
          "time": 136.01337749999934,
          "velocity": 0.47244094488188976,
          "duration": 0.1959457499999928
        },
        {
          "name": "E2",
          "midi": 40,
          "time": 136.21607999999932,
          "velocity": 0.47244094488188976,
          "duration": 0.3986482500000079
        },
        {
          "name": "A2",
          "midi": 45,
          "time": 136.21607999999932,
          "velocity": 0.47244094488188976,
          "duration": 0.3986482500000079
        },
        {
          "name": "E3",
          "midi": 52,
          "time": 136.21607999999932,
          "velocity": 0.47244094488188976,
          "duration": 0.3986482500000079
        },
        {
          "name": "A3",
          "midi": 57,
          "time": 136.21607999999932,
          "velocity": 0.47244094488188976,
          "duration": 0.3986482500000079
        },
        {
          "name": "C#4",
          "midi": 61,
          "time": 136.21607999999932,
          "velocity": 0.47244094488188976,
          "duration": 0.3986482500000079
        },
        {
          "name": "E4",
          "midi": 64,
          "time": 136.21607999999932,
          "velocity": 0.47244094488188976,
          "duration": 0.3986482500000079
        },
        {
          "name": "E4",
          "midi": 64,
          "time": 136.62148499999932,
          "velocity": 0.47244094488188976,
          "duration": 0.1959457499999928
        },
        {
          "name": "C#4",
          "midi": 61,
          "time": 136.62148499999932,
          "velocity": 0.47244094488188976,
          "duration": 0.1959457499999928
        },
        {
          "name": "A3",
          "midi": 57,
          "time": 136.62148499999932,
          "velocity": 0.47244094488188976,
          "duration": 0.1959457499999928
        },
        {
          "name": "E3",
          "midi": 52,
          "time": 136.62148499999932,
          "velocity": 0.47244094488188976,
          "duration": 0.1959457499999928
        },
        {
          "name": "A2",
          "midi": 45,
          "time": 136.62148499999932,
          "velocity": 0.47244094488188976,
          "duration": 0.1959457499999928
        },
        {
          "name": "E2",
          "midi": 40,
          "time": 136.62148499999932,
          "velocity": 0.47244094488188976,
          "duration": 0.1959457499999928
        },
        {
          "name": "E4",
          "midi": 64,
          "time": 136.8241874999993,
          "velocity": 0.47244094488188976,
          "duration": 0.1959457499999928
        },
        {
          "name": "C#4",
          "midi": 61,
          "time": 136.8241874999993,
          "velocity": 0.47244094488188976,
          "duration": 0.1959457499999928
        },
        {
          "name": "A3",
          "midi": 57,
          "time": 136.8241874999993,
          "velocity": 0.47244094488188976,
          "duration": 0.1959457499999928
        },
        {
          "name": "E3",
          "midi": 52,
          "time": 136.8241874999993,
          "velocity": 0.47244094488188976,
          "duration": 0.1959457499999928
        },
        {
          "name": "A2",
          "midi": 45,
          "time": 136.8241874999993,
          "velocity": 0.47244094488188976,
          "duration": 0.1959457499999928
        },
        {
          "name": "E2",
          "midi": 40,
          "time": 136.8241874999993,
          "velocity": 0.47244094488188976,
          "duration": 0.1959457499999928
        },
        {
          "name": "E4",
          "midi": 64,
          "time": 137.0268899999993,
          "velocity": 0.47244094488188976,
          "duration": 0.3986482500000079
        },
        {
          "name": "C#4",
          "midi": 61,
          "time": 137.0268899999993,
          "velocity": 0.47244094488188976,
          "duration": 0.3986482500000079
        },
        {
          "name": "A3",
          "midi": 57,
          "time": 137.0268899999993,
          "velocity": 0.47244094488188976,
          "duration": 0.3986482500000079
        },
        {
          "name": "E3",
          "midi": 52,
          "time": 137.0268899999993,
          "velocity": 0.47244094488188976,
          "duration": 0.3986482500000079
        },
        {
          "name": "A2",
          "midi": 45,
          "time": 137.0268899999993,
          "velocity": 0.47244094488188976,
          "duration": 0.3986482500000079
        },
        {
          "name": "E2",
          "midi": 40,
          "time": 137.0268899999993,
          "velocity": 0.47244094488188976,
          "duration": 0.3986482500000079
        },
        {
          "name": "E4",
          "midi": 64,
          "time": 137.4322949999993,
          "velocity": 0.47244094488188976,
          "duration": 0.1959457499999928
        },
        {
          "name": "C#4",
          "midi": 61,
          "time": 137.4322949999993,
          "velocity": 0.47244094488188976,
          "duration": 0.1959457499999928
        },
        {
          "name": "A3",
          "midi": 57,
          "time": 137.4322949999993,
          "velocity": 0.47244094488188976,
          "duration": 0.1959457499999928
        },
        {
          "name": "E3",
          "midi": 52,
          "time": 137.4322949999993,
          "velocity": 0.47244094488188976,
          "duration": 0.1959457499999928
        },
        {
          "name": "A2",
          "midi": 45,
          "time": 137.4322949999993,
          "velocity": 0.47244094488188976,
          "duration": 0.1959457499999928
        },
        {
          "name": "E2",
          "midi": 40,
          "time": 137.4322949999993,
          "velocity": 0.47244094488188976,
          "duration": 0.1959457499999928
        },
        {
          "name": "E4",
          "midi": 64,
          "time": 137.6349974999993,
          "velocity": 0.47244094488188976,
          "duration": 0.1959457499999928
        },
        {
          "name": "C#4",
          "midi": 61,
          "time": 137.6349974999993,
          "velocity": 0.47244094488188976,
          "duration": 0.1959457499999928
        },
        {
          "name": "A3",
          "midi": 57,
          "time": 137.6349974999993,
          "velocity": 0.47244094488188976,
          "duration": 0.1959457499999928
        },
        {
          "name": "E3",
          "midi": 52,
          "time": 137.6349974999993,
          "velocity": 0.47244094488188976,
          "duration": 0.1959457499999928
        },
        {
          "name": "A2",
          "midi": 45,
          "time": 137.6349974999993,
          "velocity": 0.47244094488188976,
          "duration": 0.1959457499999928
        },
        {
          "name": "E2",
          "midi": 40,
          "time": 137.6349974999993,
          "velocity": 0.47244094488188976,
          "duration": 0.1959457499999928
        },
        {
          "name": "E4",
          "midi": 64,
          "time": 137.83769999999927,
          "velocity": 0.47244094488188976,
          "duration": 0.1959457499999928
        },
        {
          "name": "C#4",
          "midi": 61,
          "time": 137.83769999999927,
          "velocity": 0.47244094488188976,
          "duration": 0.1959457499999928
        },
        {
          "name": "A3",
          "midi": 57,
          "time": 137.83769999999927,
          "velocity": 0.47244094488188976,
          "duration": 0.1959457499999928
        },
        {
          "name": "E3",
          "midi": 52,
          "time": 137.83769999999927,
          "velocity": 0.47244094488188976,
          "duration": 0.1959457499999928
        },
        {
          "name": "A2",
          "midi": 45,
          "time": 137.83769999999927,
          "velocity": 0.47244094488188976,
          "duration": 0.1959457499999928
        },
        {
          "name": "E2",
          "midi": 40,
          "time": 137.83769999999927,
          "velocity": 0.47244094488188976,
          "duration": 0.1959457499999928
        },
        {
          "name": "E4",
          "midi": 64,
          "time": 138.04040249999926,
          "velocity": 0.47244094488188976,
          "duration": 0.1959457499999928
        },
        {
          "name": "C#4",
          "midi": 61,
          "time": 138.04040249999926,
          "velocity": 0.47244094488188976,
          "duration": 0.1959457499999928
        },
        {
          "name": "A3",
          "midi": 57,
          "time": 138.04040249999926,
          "velocity": 0.47244094488188976,
          "duration": 0.1959457499999928
        },
        {
          "name": "E3",
          "midi": 52,
          "time": 138.04040249999926,
          "velocity": 0.47244094488188976,
          "duration": 0.1959457499999928
        },
        {
          "name": "A2",
          "midi": 45,
          "time": 138.04040249999926,
          "velocity": 0.47244094488188976,
          "duration": 0.1959457499999928
        },
        {
          "name": "E2",
          "midi": 40,
          "time": 138.04040249999926,
          "velocity": 0.47244094488188976,
          "duration": 0.1959457499999928
        },
        {
          "name": "E4",
          "midi": 64,
          "time": 138.24310499999925,
          "velocity": 0.47244094488188976,
          "duration": 0.1959457499999928
        },
        {
          "name": "C#4",
          "midi": 61,
          "time": 138.24310499999925,
          "velocity": 0.47244094488188976,
          "duration": 0.1959457499999928
        },
        {
          "name": "A3",
          "midi": 57,
          "time": 138.24310499999925,
          "velocity": 0.47244094488188976,
          "duration": 0.1959457499999928
        },
        {
          "name": "E3",
          "midi": 52,
          "time": 138.24310499999925,
          "velocity": 0.47244094488188976,
          "duration": 0.1959457499999928
        },
        {
          "name": "A2",
          "midi": 45,
          "time": 138.24310499999925,
          "velocity": 0.47244094488188976,
          "duration": 0.1959457499999928
        },
        {
          "name": "E2",
          "midi": 40,
          "time": 138.24310499999925,
          "velocity": 0.47244094488188976,
          "duration": 0.1959457499999928
        },
        {
          "name": "E4",
          "midi": 64,
          "time": 138.44580749999923,
          "velocity": 0.47244094488188976,
          "duration": 0.3986482500000079
        },
        {
          "name": "C#4",
          "midi": 61,
          "time": 138.44580749999923,
          "velocity": 0.47244094488188976,
          "duration": 0.3986482500000079
        },
        {
          "name": "A3",
          "midi": 57,
          "time": 138.44580749999923,
          "velocity": 0.47244094488188976,
          "duration": 0.3986482500000079
        },
        {
          "name": "E3",
          "midi": 52,
          "time": 138.44580749999923,
          "velocity": 0.47244094488188976,
          "duration": 0.3986482500000079
        },
        {
          "name": "A2",
          "midi": 45,
          "time": 138.44580749999923,
          "velocity": 0.47244094488188976,
          "duration": 0.3986482500000079
        },
        {
          "name": "E2",
          "midi": 40,
          "time": 138.44580749999923,
          "velocity": 0.47244094488188976,
          "duration": 0.3986482500000079
        },
        {
          "name": "E4",
          "midi": 64,
          "time": 138.85121249999924,
          "velocity": 0.47244094488188976,
          "duration": 0.1959457499999928
        },
        {
          "name": "C#4",
          "midi": 61,
          "time": 138.85121249999924,
          "velocity": 0.47244094488188976,
          "duration": 0.1959457499999928
        },
        {
          "name": "A3",
          "midi": 57,
          "time": 138.85121249999924,
          "velocity": 0.47244094488188976,
          "duration": 0.1959457499999928
        },
        {
          "name": "E3",
          "midi": 52,
          "time": 138.85121249999924,
          "velocity": 0.47244094488188976,
          "duration": 0.1959457499999928
        },
        {
          "name": "A2",
          "midi": 45,
          "time": 138.85121249999924,
          "velocity": 0.47244094488188976,
          "duration": 0.1959457499999928
        },
        {
          "name": "E2",
          "midi": 40,
          "time": 138.85121249999924,
          "velocity": 0.47244094488188976,
          "duration": 0.1959457499999928
        },
        {
          "name": "E4",
          "midi": 64,
          "time": 139.05391499999922,
          "velocity": 0.47244094488188976,
          "duration": 0.3986482500000079
        },
        {
          "name": "C#4",
          "midi": 61,
          "time": 139.05391499999922,
          "velocity": 0.47244094488188976,
          "duration": 0.3986482500000079
        },
        {
          "name": "A3",
          "midi": 57,
          "time": 139.05391499999922,
          "velocity": 0.47244094488188976,
          "duration": 0.3986482500000079
        },
        {
          "name": "E3",
          "midi": 52,
          "time": 139.05391499999922,
          "velocity": 0.47244094488188976,
          "duration": 0.3986482500000079
        },
        {
          "name": "A2",
          "midi": 45,
          "time": 139.05391499999922,
          "velocity": 0.47244094488188976,
          "duration": 0.3986482500000079
        },
        {
          "name": "E2",
          "midi": 40,
          "time": 139.05391499999922,
          "velocity": 0.47244094488188976,
          "duration": 0.3986482500000079
        },
        {
          "name": "E2",
          "midi": 40,
          "time": 139.45931999999922,
          "velocity": 0.47244094488188976,
          "duration": 0.3986482500000079
        },
        {
          "name": "B2",
          "midi": 47,
          "time": 139.45931999999922,
          "velocity": 0.47244094488188976,
          "duration": 0.3986482500000079
        },
        {
          "name": "E3",
          "midi": 52,
          "time": 139.45931999999922,
          "velocity": 0.47244094488188976,
          "duration": 0.3986482500000079
        },
        {
          "name": "G#3",
          "midi": 56,
          "time": 139.45931999999922,
          "velocity": 0.47244094488188976,
          "duration": 0.3986482500000079
        },
        {
          "name": "B3",
          "midi": 59,
          "time": 139.45931999999922,
          "velocity": 0.47244094488188976,
          "duration": 0.3986482500000079
        },
        {
          "name": "E4",
          "midi": 64,
          "time": 139.45931999999922,
          "velocity": 0.47244094488188976,
          "duration": 0.3986482500000079
        },
        {
          "name": "E4",
          "midi": 64,
          "time": 139.86472499999923,
          "velocity": 0.47244094488188976,
          "duration": 0.1959457499999928
        },
        {
          "name": "B3",
          "midi": 59,
          "time": 139.86472499999923,
          "velocity": 0.47244094488188976,
          "duration": 0.1959457499999928
        },
        {
          "name": "G#3",
          "midi": 56,
          "time": 139.86472499999923,
          "velocity": 0.47244094488188976,
          "duration": 0.1959457499999928
        },
        {
          "name": "E3",
          "midi": 52,
          "time": 139.86472499999923,
          "velocity": 0.47244094488188976,
          "duration": 0.1959457499999928
        },
        {
          "name": "B2",
          "midi": 47,
          "time": 139.86472499999923,
          "velocity": 0.47244094488188976,
          "duration": 0.1959457499999928
        },
        {
          "name": "E2",
          "midi": 40,
          "time": 139.86472499999923,
          "velocity": 0.47244094488188976,
          "duration": 0.1959457499999928
        },
        {
          "name": "E4",
          "midi": 64,
          "time": 140.0674274999992,
          "velocity": 0.47244094488188976,
          "duration": 0.1959457499999928
        },
        {
          "name": "B3",
          "midi": 59,
          "time": 140.0674274999992,
          "velocity": 0.47244094488188976,
          "duration": 0.1959457499999928
        },
        {
          "name": "G#3",
          "midi": 56,
          "time": 140.0674274999992,
          "velocity": 0.47244094488188976,
          "duration": 0.1959457499999928
        },
        {
          "name": "E3",
          "midi": 52,
          "time": 140.0674274999992,
          "velocity": 0.47244094488188976,
          "duration": 0.1959457499999928
        },
        {
          "name": "B2",
          "midi": 47,
          "time": 140.0674274999992,
          "velocity": 0.47244094488188976,
          "duration": 0.1959457499999928
        },
        {
          "name": "E2",
          "midi": 40,
          "time": 140.0674274999992,
          "velocity": 0.47244094488188976,
          "duration": 0.1959457499999928
        },
        {
          "name": "E4",
          "midi": 64,
          "time": 140.2701299999992,
          "velocity": 0.47244094488188976,
          "duration": 0.3986482500000079
        },
        {
          "name": "B3",
          "midi": 59,
          "time": 140.2701299999992,
          "velocity": 0.47244094488188976,
          "duration": 0.3986482500000079
        },
        {
          "name": "G#3",
          "midi": 56,
          "time": 140.2701299999992,
          "velocity": 0.47244094488188976,
          "duration": 0.3986482500000079
        },
        {
          "name": "E3",
          "midi": 52,
          "time": 140.2701299999992,
          "velocity": 0.47244094488188976,
          "duration": 0.3986482500000079
        },
        {
          "name": "B2",
          "midi": 47,
          "time": 140.2701299999992,
          "velocity": 0.47244094488188976,
          "duration": 0.3986482500000079
        },
        {
          "name": "E2",
          "midi": 40,
          "time": 140.2701299999992,
          "velocity": 0.47244094488188976,
          "duration": 0.3986482500000079
        },
        {
          "name": "E4",
          "midi": 64,
          "time": 140.6755349999992,
          "velocity": 0.47244094488188976,
          "duration": 0.1959457499999928
        },
        {
          "name": "B3",
          "midi": 59,
          "time": 140.6755349999992,
          "velocity": 0.47244094488188976,
          "duration": 0.1959457499999928
        },
        {
          "name": "G#3",
          "midi": 56,
          "time": 140.6755349999992,
          "velocity": 0.47244094488188976,
          "duration": 0.1959457499999928
        },
        {
          "name": "E3",
          "midi": 52,
          "time": 140.6755349999992,
          "velocity": 0.47244094488188976,
          "duration": 0.1959457499999928
        },
        {
          "name": "B2",
          "midi": 47,
          "time": 140.6755349999992,
          "velocity": 0.47244094488188976,
          "duration": 0.1959457499999928
        },
        {
          "name": "E2",
          "midi": 40,
          "time": 140.6755349999992,
          "velocity": 0.47244094488188976,
          "duration": 0.1959457499999928
        },
        {
          "name": "E4",
          "midi": 64,
          "time": 140.8782374999992,
          "velocity": 0.47244094488188976,
          "duration": 0.1959457499999928
        },
        {
          "name": "B3",
          "midi": 59,
          "time": 140.8782374999992,
          "velocity": 0.47244094488188976,
          "duration": 0.1959457499999928
        },
        {
          "name": "G#3",
          "midi": 56,
          "time": 140.8782374999992,
          "velocity": 0.47244094488188976,
          "duration": 0.1959457499999928
        },
        {
          "name": "E3",
          "midi": 52,
          "time": 140.8782374999992,
          "velocity": 0.47244094488188976,
          "duration": 0.1959457499999928
        },
        {
          "name": "B2",
          "midi": 47,
          "time": 140.8782374999992,
          "velocity": 0.47244094488188976,
          "duration": 0.1959457499999928
        },
        {
          "name": "E2",
          "midi": 40,
          "time": 140.8782374999992,
          "velocity": 0.47244094488188976,
          "duration": 0.1959457499999928
        },
        {
          "name": "E4",
          "midi": 64,
          "time": 141.08093999999917,
          "velocity": 0.47244094488188976,
          "duration": 1.6148632500000133
        },
        {
          "name": "B3",
          "midi": 59,
          "time": 141.08093999999917,
          "velocity": 0.47244094488188976,
          "duration": 1.6148632500000133
        },
        {
          "name": "G#3",
          "midi": 56,
          "time": 141.08093999999917,
          "velocity": 0.47244094488188976,
          "duration": 1.6148632500000133
        },
        {
          "name": "E3",
          "midi": 52,
          "time": 141.08093999999917,
          "velocity": 0.47244094488188976,
          "duration": 1.6148632500000133
        },
        {
          "name": "B2",
          "midi": 47,
          "time": 141.08093999999917,
          "velocity": 0.47244094488188976,
          "duration": 1.6148632500000133
        },
        {
          "name": "E2",
          "midi": 40,
          "time": 141.08093999999917,
          "velocity": 0.47244094488188976,
          "duration": 1.6148632500000133
        },
        {
          "name": "G2",
          "midi": 43,
          "time": 142.70255999999918,
          "velocity": 0.47244094488188976,
          "duration": 0.3986482500000079
        },
        {
          "name": "D3",
          "midi": 50,
          "time": 142.70255999999918,
          "velocity": 0.47244094488188976,
          "duration": 0.3986482500000079
        },
        {
          "name": "G3",
          "midi": 55,
          "time": 142.70255999999918,
          "velocity": 0.47244094488188976,
          "duration": 0.3986482500000079
        },
        {
          "name": "B3",
          "midi": 59,
          "time": 142.70255999999918,
          "velocity": 0.47244094488188976,
          "duration": 0.3986482500000079
        },
        {
          "name": "D4",
          "midi": 62,
          "time": 142.70255999999918,
          "velocity": 0.47244094488188976,
          "duration": 0.3986482500000079
        },
        {
          "name": "G4",
          "midi": 67,
          "time": 142.70255999999918,
          "velocity": 0.47244094488188976,
          "duration": 0.3986482500000079
        },
        {
          "name": "G4",
          "midi": 67,
          "time": 143.10796499999918,
          "velocity": 0.47244094488188976,
          "duration": 0.1959457499999928
        },
        {
          "name": "D4",
          "midi": 62,
          "time": 143.10796499999918,
          "velocity": 0.47244094488188976,
          "duration": 0.1959457499999928
        },
        {
          "name": "B3",
          "midi": 59,
          "time": 143.10796499999918,
          "velocity": 0.47244094488188976,
          "duration": 0.1959457499999928
        },
        {
          "name": "G3",
          "midi": 55,
          "time": 143.10796499999918,
          "velocity": 0.47244094488188976,
          "duration": 0.1959457499999928
        },
        {
          "name": "D3",
          "midi": 50,
          "time": 143.10796499999918,
          "velocity": 0.47244094488188976,
          "duration": 0.1959457499999928
        },
        {
          "name": "G2",
          "midi": 43,
          "time": 143.10796499999918,
          "velocity": 0.47244094488188976,
          "duration": 0.1959457499999928
        },
        {
          "name": "G4",
          "midi": 67,
          "time": 143.31066749999917,
          "velocity": 0.47244094488188976,
          "duration": 0.1959457499999928
        },
        {
          "name": "D4",
          "midi": 62,
          "time": 143.31066749999917,
          "velocity": 0.47244094488188976,
          "duration": 0.1959457499999928
        },
        {
          "name": "B3",
          "midi": 59,
          "time": 143.31066749999917,
          "velocity": 0.47244094488188976,
          "duration": 0.1959457499999928
        },
        {
          "name": "G3",
          "midi": 55,
          "time": 143.31066749999917,
          "velocity": 0.47244094488188976,
          "duration": 0.1959457499999928
        },
        {
          "name": "D3",
          "midi": 50,
          "time": 143.31066749999917,
          "velocity": 0.47244094488188976,
          "duration": 0.1959457499999928
        },
        {
          "name": "G2",
          "midi": 43,
          "time": 143.31066749999917,
          "velocity": 0.47244094488188976,
          "duration": 0.1959457499999928
        },
        {
          "name": "G4",
          "midi": 67,
          "time": 143.51336999999916,
          "velocity": 0.47244094488188976,
          "duration": 0.3986482500000079
        },
        {
          "name": "D4",
          "midi": 62,
          "time": 143.51336999999916,
          "velocity": 0.47244094488188976,
          "duration": 0.3986482500000079
        },
        {
          "name": "B3",
          "midi": 59,
          "time": 143.51336999999916,
          "velocity": 0.47244094488188976,
          "duration": 0.3986482500000079
        },
        {
          "name": "G3",
          "midi": 55,
          "time": 143.51336999999916,
          "velocity": 0.47244094488188976,
          "duration": 0.3986482500000079
        },
        {
          "name": "D3",
          "midi": 50,
          "time": 143.51336999999916,
          "velocity": 0.47244094488188976,
          "duration": 0.3986482500000079
        },
        {
          "name": "G2",
          "midi": 43,
          "time": 143.51336999999916,
          "velocity": 0.47244094488188976,
          "duration": 0.3986482500000079
        },
        {
          "name": "G4",
          "midi": 67,
          "time": 143.91877499999916,
          "velocity": 0.47244094488188976,
          "duration": 0.1959457499999928
        },
        {
          "name": "D4",
          "midi": 62,
          "time": 143.91877499999916,
          "velocity": 0.47244094488188976,
          "duration": 0.1959457499999928
        },
        {
          "name": "B3",
          "midi": 59,
          "time": 143.91877499999916,
          "velocity": 0.47244094488188976,
          "duration": 0.1959457499999928
        },
        {
          "name": "G3",
          "midi": 55,
          "time": 143.91877499999916,
          "velocity": 0.47244094488188976,
          "duration": 0.1959457499999928
        },
        {
          "name": "D3",
          "midi": 50,
          "time": 143.91877499999916,
          "velocity": 0.47244094488188976,
          "duration": 0.1959457499999928
        },
        {
          "name": "G2",
          "midi": 43,
          "time": 143.91877499999916,
          "velocity": 0.47244094488188976,
          "duration": 0.1959457499999928
        },
        {
          "name": "G4",
          "midi": 67,
          "time": 144.12147749999914,
          "velocity": 0.47244094488188976,
          "duration": 0.1959457499999928
        },
        {
          "name": "D4",
          "midi": 62,
          "time": 144.12147749999914,
          "velocity": 0.47244094488188976,
          "duration": 0.1959457499999928
        },
        {
          "name": "B3",
          "midi": 59,
          "time": 144.12147749999914,
          "velocity": 0.47244094488188976,
          "duration": 0.1959457499999928
        },
        {
          "name": "G3",
          "midi": 55,
          "time": 144.12147749999914,
          "velocity": 0.47244094488188976,
          "duration": 0.1959457499999928
        },
        {
          "name": "D3",
          "midi": 50,
          "time": 144.12147749999914,
          "velocity": 0.47244094488188976,
          "duration": 0.1959457499999928
        },
        {
          "name": "G2",
          "midi": 43,
          "time": 144.12147749999914,
          "velocity": 0.47244094488188976,
          "duration": 0.1959457499999928
        },
        {
          "name": "G4",
          "midi": 67,
          "time": 144.32417999999913,
          "velocity": 0.47244094488188976,
          "duration": 0.1959457499999928
        },
        {
          "name": "D4",
          "midi": 62,
          "time": 144.32417999999913,
          "velocity": 0.47244094488188976,
          "duration": 0.1959457499999928
        },
        {
          "name": "B3",
          "midi": 59,
          "time": 144.32417999999913,
          "velocity": 0.47244094488188976,
          "duration": 0.1959457499999928
        },
        {
          "name": "G3",
          "midi": 55,
          "time": 144.32417999999913,
          "velocity": 0.47244094488188976,
          "duration": 0.1959457499999928
        },
        {
          "name": "D3",
          "midi": 50,
          "time": 144.32417999999913,
          "velocity": 0.47244094488188976,
          "duration": 0.1959457499999928
        },
        {
          "name": "G2",
          "midi": 43,
          "time": 144.32417999999913,
          "velocity": 0.47244094488188976,
          "duration": 0.1959457499999928
        },
        {
          "name": "G4",
          "midi": 67,
          "time": 144.52688249999912,
          "velocity": 0.47244094488188976,
          "duration": 0.1959457499999928
        },
        {
          "name": "D4",
          "midi": 62,
          "time": 144.52688249999912,
          "velocity": 0.47244094488188976,
          "duration": 0.1959457499999928
        },
        {
          "name": "B3",
          "midi": 59,
          "time": 144.52688249999912,
          "velocity": 0.47244094488188976,
          "duration": 0.1959457499999928
        },
        {
          "name": "G3",
          "midi": 55,
          "time": 144.52688249999912,
          "velocity": 0.47244094488188976,
          "duration": 0.1959457499999928
        },
        {
          "name": "D3",
          "midi": 50,
          "time": 144.52688249999912,
          "velocity": 0.47244094488188976,
          "duration": 0.1959457499999928
        },
        {
          "name": "G2",
          "midi": 43,
          "time": 144.52688249999912,
          "velocity": 0.47244094488188976,
          "duration": 0.1959457499999928
        },
        {
          "name": "G4",
          "midi": 67,
          "time": 144.7295849999991,
          "velocity": 0.47244094488188976,
          "duration": 0.1959457499999928
        },
        {
          "name": "D4",
          "midi": 62,
          "time": 144.7295849999991,
          "velocity": 0.47244094488188976,
          "duration": 0.1959457499999928
        },
        {
          "name": "B3",
          "midi": 59,
          "time": 144.7295849999991,
          "velocity": 0.47244094488188976,
          "duration": 0.1959457499999928
        },
        {
          "name": "G3",
          "midi": 55,
          "time": 144.7295849999991,
          "velocity": 0.47244094488188976,
          "duration": 0.1959457499999928
        },
        {
          "name": "D3",
          "midi": 50,
          "time": 144.7295849999991,
          "velocity": 0.47244094488188976,
          "duration": 0.1959457499999928
        },
        {
          "name": "G2",
          "midi": 43,
          "time": 144.7295849999991,
          "velocity": 0.47244094488188976,
          "duration": 0.1959457499999928
        },
        {
          "name": "G4",
          "midi": 67,
          "time": 144.9322874999991,
          "velocity": 0.47244094488188976,
          "duration": 0.3986482500000079
        },
        {
          "name": "D4",
          "midi": 62,
          "time": 144.9322874999991,
          "velocity": 0.47244094488188976,
          "duration": 0.3986482500000079
        },
        {
          "name": "B3",
          "midi": 59,
          "time": 144.9322874999991,
          "velocity": 0.47244094488188976,
          "duration": 0.3986482500000079
        },
        {
          "name": "G3",
          "midi": 55,
          "time": 144.9322874999991,
          "velocity": 0.47244094488188976,
          "duration": 0.3986482500000079
        },
        {
          "name": "D3",
          "midi": 50,
          "time": 144.9322874999991,
          "velocity": 0.47244094488188976,
          "duration": 0.3986482500000079
        },
        {
          "name": "G2",
          "midi": 43,
          "time": 144.9322874999991,
          "velocity": 0.47244094488188976,
          "duration": 0.3986482500000079
        },
        {
          "name": "G4",
          "midi": 67,
          "time": 145.3376924999991,
          "velocity": 0.47244094488188976,
          "duration": 0.1959457499999928
        },
        {
          "name": "D4",
          "midi": 62,
          "time": 145.3376924999991,
          "velocity": 0.47244094488188976,
          "duration": 0.1959457499999928
        },
        {
          "name": "B3",
          "midi": 59,
          "time": 145.3376924999991,
          "velocity": 0.47244094488188976,
          "duration": 0.1959457499999928
        },
        {
          "name": "G3",
          "midi": 55,
          "time": 145.3376924999991,
          "velocity": 0.47244094488188976,
          "duration": 0.1959457499999928
        },
        {
          "name": "D3",
          "midi": 50,
          "time": 145.3376924999991,
          "velocity": 0.47244094488188976,
          "duration": 0.1959457499999928
        },
        {
          "name": "G2",
          "midi": 43,
          "time": 145.3376924999991,
          "velocity": 0.47244094488188976,
          "duration": 0.1959457499999928
        },
        {
          "name": "G4",
          "midi": 67,
          "time": 145.54039499999908,
          "velocity": 0.47244094488188976,
          "duration": 0.3986482500000079
        },
        {
          "name": "D4",
          "midi": 62,
          "time": 145.54039499999908,
          "velocity": 0.47244094488188976,
          "duration": 0.3986482500000079
        },
        {
          "name": "B3",
          "midi": 59,
          "time": 145.54039499999908,
          "velocity": 0.47244094488188976,
          "duration": 0.3986482500000079
        },
        {
          "name": "G3",
          "midi": 55,
          "time": 145.54039499999908,
          "velocity": 0.47244094488188976,
          "duration": 0.3986482500000079
        },
        {
          "name": "D3",
          "midi": 50,
          "time": 145.54039499999908,
          "velocity": 0.47244094488188976,
          "duration": 0.3986482500000079
        },
        {
          "name": "G2",
          "midi": 43,
          "time": 145.54039499999908,
          "velocity": 0.47244094488188976,
          "duration": 0.3986482500000079
        },
        {
          "name": "A2",
          "midi": 45,
          "time": 145.94579999999908,
          "velocity": 0.47244094488188976,
          "duration": 0.3986482500000079
        },
        {
          "name": "D3",
          "midi": 50,
          "time": 145.94579999999908,
          "velocity": 0.47244094488188976,
          "duration": 0.3986482500000079
        },
        {
          "name": "A3",
          "midi": 57,
          "time": 145.94579999999908,
          "velocity": 0.47244094488188976,
          "duration": 0.3986482500000079
        },
        {
          "name": "D4",
          "midi": 62,
          "time": 145.94579999999908,
          "velocity": 0.47244094488188976,
          "duration": 0.3986482500000079
        },
        {
          "name": "F#4",
          "midi": 66,
          "time": 145.94579999999908,
          "velocity": 0.47244094488188976,
          "duration": 0.3986482500000079
        },
        {
          "name": "A4",
          "midi": 69,
          "time": 145.94579999999908,
          "velocity": 0.47244094488188976,
          "duration": 0.3986482500000079
        },
        {
          "name": "A4",
          "midi": 69,
          "time": 146.35120499999908,
          "velocity": 0.47244094488188976,
          "duration": 0.1959457499999928
        },
        {
          "name": "F#4",
          "midi": 66,
          "time": 146.35120499999908,
          "velocity": 0.47244094488188976,
          "duration": 0.1959457499999928
        },
        {
          "name": "D4",
          "midi": 62,
          "time": 146.35120499999908,
          "velocity": 0.47244094488188976,
          "duration": 0.1959457499999928
        },
        {
          "name": "A3",
          "midi": 57,
          "time": 146.35120499999908,
          "velocity": 0.47244094488188976,
          "duration": 0.1959457499999928
        },
        {
          "name": "D3",
          "midi": 50,
          "time": 146.35120499999908,
          "velocity": 0.47244094488188976,
          "duration": 0.1959457499999928
        },
        {
          "name": "A2",
          "midi": 45,
          "time": 146.35120499999908,
          "velocity": 0.47244094488188976,
          "duration": 0.1959457499999928
        },
        {
          "name": "A4",
          "midi": 69,
          "time": 146.55390749999907,
          "velocity": 0.47244094488188976,
          "duration": 0.1959457499999928
        },
        {
          "name": "F#4",
          "midi": 66,
          "time": 146.55390749999907,
          "velocity": 0.47244094488188976,
          "duration": 0.1959457499999928
        },
        {
          "name": "D4",
          "midi": 62,
          "time": 146.55390749999907,
          "velocity": 0.47244094488188976,
          "duration": 0.1959457499999928
        },
        {
          "name": "A3",
          "midi": 57,
          "time": 146.55390749999907,
          "velocity": 0.47244094488188976,
          "duration": 0.1959457499999928
        },
        {
          "name": "D3",
          "midi": 50,
          "time": 146.55390749999907,
          "velocity": 0.47244094488188976,
          "duration": 0.1959457499999928
        },
        {
          "name": "A2",
          "midi": 45,
          "time": 146.55390749999907,
          "velocity": 0.47244094488188976,
          "duration": 0.1959457499999928
        },
        {
          "name": "A4",
          "midi": 69,
          "time": 146.75660999999906,
          "velocity": 0.47244094488188976,
          "duration": 0.1959457499999928
        },
        {
          "name": "F#4",
          "midi": 66,
          "time": 146.75660999999906,
          "velocity": 0.47244094488188976,
          "duration": 0.1959457499999928
        },
        {
          "name": "D4",
          "midi": 62,
          "time": 146.75660999999906,
          "velocity": 0.47244094488188976,
          "duration": 0.1959457499999928
        },
        {
          "name": "A3",
          "midi": 57,
          "time": 146.75660999999906,
          "velocity": 0.47244094488188976,
          "duration": 0.1959457499999928
        },
        {
          "name": "D3",
          "midi": 50,
          "time": 146.75660999999906,
          "velocity": 0.47244094488188976,
          "duration": 0.1959457499999928
        },
        {
          "name": "A2",
          "midi": 45,
          "time": 146.75660999999906,
          "velocity": 0.47244094488188976,
          "duration": 0.1959457499999928
        },
        {
          "name": "A4",
          "midi": 69,
          "time": 146.95931249999904,
          "velocity": 0.47244094488188976,
          "duration": 0.3986482500000079
        },
        {
          "name": "F#4",
          "midi": 66,
          "time": 146.95931249999904,
          "velocity": 0.47244094488188976,
          "duration": 0.3986482500000079
        },
        {
          "name": "D4",
          "midi": 62,
          "time": 146.95931249999904,
          "velocity": 0.47244094488188976,
          "duration": 0.3986482500000079
        },
        {
          "name": "A3",
          "midi": 57,
          "time": 146.95931249999904,
          "velocity": 0.47244094488188976,
          "duration": 0.3986482500000079
        },
        {
          "name": "D3",
          "midi": 50,
          "time": 146.95931249999904,
          "velocity": 0.47244094488188976,
          "duration": 0.3986482500000079
        },
        {
          "name": "A2",
          "midi": 45,
          "time": 146.95931249999904,
          "velocity": 0.47244094488188976,
          "duration": 0.3986482500000079
        },
        {
          "name": "A4",
          "midi": 69,
          "time": 147.36471749999905,
          "velocity": 0.47244094488188976,
          "duration": 0.1959457499999928
        },
        {
          "name": "F#4",
          "midi": 66,
          "time": 147.36471749999905,
          "velocity": 0.47244094488188976,
          "duration": 0.1959457499999928
        },
        {
          "name": "D4",
          "midi": 62,
          "time": 147.36471749999905,
          "velocity": 0.47244094488188976,
          "duration": 0.1959457499999928
        },
        {
          "name": "A3",
          "midi": 57,
          "time": 147.36471749999905,
          "velocity": 0.47244094488188976,
          "duration": 0.1959457499999928
        },
        {
          "name": "D3",
          "midi": 50,
          "time": 147.36471749999905,
          "velocity": 0.47244094488188976,
          "duration": 0.1959457499999928
        },
        {
          "name": "A2",
          "midi": 45,
          "time": 147.36471749999905,
          "velocity": 0.47244094488188976,
          "duration": 0.1959457499999928
        },
        {
          "name": "A4",
          "midi": 69,
          "time": 147.56741999999903,
          "velocity": 0.47244094488188976,
          "duration": 1.6148632500000133
        },
        {
          "name": "F#4",
          "midi": 66,
          "time": 147.56741999999903,
          "velocity": 0.47244094488188976,
          "duration": 1.6148632500000133
        },
        {
          "name": "D4",
          "midi": 62,
          "time": 147.56741999999903,
          "velocity": 0.47244094488188976,
          "duration": 1.6148632500000133
        },
        {
          "name": "A3",
          "midi": 57,
          "time": 147.56741999999903,
          "velocity": 0.47244094488188976,
          "duration": 1.6148632500000133
        },
        {
          "name": "D3",
          "midi": 50,
          "time": 147.56741999999903,
          "velocity": 0.47244094488188976,
          "duration": 1.6148632500000133
        },
        {
          "name": "A2",
          "midi": 45,
          "time": 147.56741999999903,
          "velocity": 0.47244094488188976,
          "duration": 1.6148632500000133
        },
        {
          "name": "E2",
          "midi": 40,
          "time": 149.18903999999904,
          "velocity": 0.47244094488188976,
          "duration": 0.3986482500000079
        },
        {
          "name": "B2",
          "midi": 47,
          "time": 149.18903999999904,
          "velocity": 0.47244094488188976,
          "duration": 0.3986482500000079
        },
        {
          "name": "E3",
          "midi": 52,
          "time": 149.18903999999904,
          "velocity": 0.47244094488188976,
          "duration": 0.3986482500000079
        },
        {
          "name": "G3",
          "midi": 55,
          "time": 149.18903999999904,
          "velocity": 0.47244094488188976,
          "duration": 0.3986482500000079
        },
        {
          "name": "B3",
          "midi": 59,
          "time": 149.18903999999904,
          "velocity": 0.47244094488188976,
          "duration": 0.3986482500000079
        },
        {
          "name": "E4",
          "midi": 64,
          "time": 149.18903999999904,
          "velocity": 0.47244094488188976,
          "duration": 0.3986482500000079
        },
        {
          "name": "E4",
          "midi": 64,
          "time": 149.59444499999904,
          "velocity": 0.47244094488188976,
          "duration": 0.1959457499999928
        },
        {
          "name": "B3",
          "midi": 59,
          "time": 149.59444499999904,
          "velocity": 0.47244094488188976,
          "duration": 0.1959457499999928
        },
        {
          "name": "G3",
          "midi": 55,
          "time": 149.59444499999904,
          "velocity": 0.47244094488188976,
          "duration": 0.1959457499999928
        },
        {
          "name": "E3",
          "midi": 52,
          "time": 149.59444499999904,
          "velocity": 0.47244094488188976,
          "duration": 0.1959457499999928
        },
        {
          "name": "B2",
          "midi": 47,
          "time": 149.59444499999904,
          "velocity": 0.47244094488188976,
          "duration": 0.1959457499999928
        },
        {
          "name": "E2",
          "midi": 40,
          "time": 149.59444499999904,
          "velocity": 0.47244094488188976,
          "duration": 0.1959457499999928
        },
        {
          "name": "E4",
          "midi": 64,
          "time": 149.79714749999903,
          "velocity": 0.47244094488188976,
          "duration": 0.1959457499999928
        },
        {
          "name": "B3",
          "midi": 59,
          "time": 149.79714749999903,
          "velocity": 0.47244094488188976,
          "duration": 0.1959457499999928
        },
        {
          "name": "G3",
          "midi": 55,
          "time": 149.79714749999903,
          "velocity": 0.47244094488188976,
          "duration": 0.1959457499999928
        },
        {
          "name": "E3",
          "midi": 52,
          "time": 149.79714749999903,
          "velocity": 0.47244094488188976,
          "duration": 0.1959457499999928
        },
        {
          "name": "B2",
          "midi": 47,
          "time": 149.79714749999903,
          "velocity": 0.47244094488188976,
          "duration": 0.1959457499999928
        },
        {
          "name": "E2",
          "midi": 40,
          "time": 149.79714749999903,
          "velocity": 0.47244094488188976,
          "duration": 0.1959457499999928
        },
        {
          "name": "E4",
          "midi": 64,
          "time": 149.99984999999901,
          "velocity": 0.47244094488188976,
          "duration": 0.1959457499999928
        },
        {
          "name": "B3",
          "midi": 59,
          "time": 149.99984999999901,
          "velocity": 0.47244094488188976,
          "duration": 0.1959457499999928
        },
        {
          "name": "G3",
          "midi": 55,
          "time": 149.99984999999901,
          "velocity": 0.47244094488188976,
          "duration": 0.1959457499999928
        },
        {
          "name": "E3",
          "midi": 52,
          "time": 149.99984999999901,
          "velocity": 0.47244094488188976,
          "duration": 0.1959457499999928
        },
        {
          "name": "B2",
          "midi": 47,
          "time": 149.99984999999901,
          "velocity": 0.47244094488188976,
          "duration": 0.1959457499999928
        },
        {
          "name": "E2",
          "midi": 40,
          "time": 149.99984999999901,
          "velocity": 0.47244094488188976,
          "duration": 0.1959457499999928
        },
        {
          "name": "E4",
          "midi": 64,
          "time": 150.202552499999,
          "velocity": 0.47244094488188976,
          "duration": 0.1959457499999928
        },
        {
          "name": "B3",
          "midi": 59,
          "time": 150.202552499999,
          "velocity": 0.47244094488188976,
          "duration": 0.1959457499999928
        },
        {
          "name": "G3",
          "midi": 55,
          "time": 150.202552499999,
          "velocity": 0.47244094488188976,
          "duration": 0.1959457499999928
        },
        {
          "name": "E3",
          "midi": 52,
          "time": 150.202552499999,
          "velocity": 0.47244094488188976,
          "duration": 0.1959457499999928
        },
        {
          "name": "B2",
          "midi": 47,
          "time": 150.202552499999,
          "velocity": 0.47244094488188976,
          "duration": 0.1959457499999928
        },
        {
          "name": "E2",
          "midi": 40,
          "time": 150.202552499999,
          "velocity": 0.47244094488188976,
          "duration": 0.1959457499999928
        },
        {
          "name": "E4",
          "midi": 64,
          "time": 150.405254999999,
          "velocity": 0.47244094488188976,
          "duration": 0.3986482500000079
        },
        {
          "name": "B3",
          "midi": 59,
          "time": 150.405254999999,
          "velocity": 0.47244094488188976,
          "duration": 0.3986482500000079
        },
        {
          "name": "G3",
          "midi": 55,
          "time": 150.405254999999,
          "velocity": 0.47244094488188976,
          "duration": 0.3986482500000079
        },
        {
          "name": "E3",
          "midi": 52,
          "time": 150.405254999999,
          "velocity": 0.47244094488188976,
          "duration": 0.3986482500000079
        },
        {
          "name": "B2",
          "midi": 47,
          "time": 150.405254999999,
          "velocity": 0.47244094488188976,
          "duration": 0.3986482500000079
        },
        {
          "name": "E2",
          "midi": 40,
          "time": 150.405254999999,
          "velocity": 0.47244094488188976,
          "duration": 0.3986482500000079
        },
        {
          "name": "E4",
          "midi": 64,
          "time": 150.810659999999,
          "velocity": 0.47244094488188976,
          "duration": 0.3986482500000079
        },
        {
          "name": "B3",
          "midi": 59,
          "time": 150.810659999999,
          "velocity": 0.47244094488188976,
          "duration": 0.3986482500000079
        },
        {
          "name": "G3",
          "midi": 55,
          "time": 150.810659999999,
          "velocity": 0.47244094488188976,
          "duration": 0.3986482500000079
        },
        {
          "name": "E3",
          "midi": 52,
          "time": 150.810659999999,
          "velocity": 0.47244094488188976,
          "duration": 0.3986482500000079
        },
        {
          "name": "B2",
          "midi": 47,
          "time": 150.810659999999,
          "velocity": 0.47244094488188976,
          "duration": 0.3986482500000079
        },
        {
          "name": "E2",
          "midi": 40,
          "time": 150.810659999999,
          "velocity": 0.47244094488188976,
          "duration": 0.3986482500000079
        },
        {
          "name": "E4",
          "midi": 64,
          "time": 151.216064999999,
          "velocity": 0.47244094488188976,
          "duration": 0.3986482500000079
        },
        {
          "name": "B3",
          "midi": 59,
          "time": 151.216064999999,
          "velocity": 0.47244094488188976,
          "duration": 0.3986482500000079
        },
        {
          "name": "G3",
          "midi": 55,
          "time": 151.216064999999,
          "velocity": 0.47244094488188976,
          "duration": 0.3986482500000079
        },
        {
          "name": "E3",
          "midi": 52,
          "time": 151.216064999999,
          "velocity": 0.47244094488188976,
          "duration": 0.3986482500000079
        },
        {
          "name": "B2",
          "midi": 47,
          "time": 151.216064999999,
          "velocity": 0.47244094488188976,
          "duration": 0.3986482500000079
        },
        {
          "name": "E2",
          "midi": 40,
          "time": 151.216064999999,
          "velocity": 0.47244094488188976,
          "duration": 0.3986482500000079
        },
        {
          "name": "E4",
          "midi": 64,
          "time": 151.621469999999,
          "velocity": 0.47244094488188976,
          "duration": 0.1959457499999928
        },
        {
          "name": "B3",
          "midi": 59,
          "time": 151.621469999999,
          "velocity": 0.47244094488188976,
          "duration": 0.1959457499999928
        },
        {
          "name": "G3",
          "midi": 55,
          "time": 151.621469999999,
          "velocity": 0.47244094488188976,
          "duration": 0.1959457499999928
        },
        {
          "name": "E3",
          "midi": 52,
          "time": 151.621469999999,
          "velocity": 0.47244094488188976,
          "duration": 0.1959457499999928
        },
        {
          "name": "B2",
          "midi": 47,
          "time": 151.621469999999,
          "velocity": 0.47244094488188976,
          "duration": 0.1959457499999928
        },
        {
          "name": "E2",
          "midi": 40,
          "time": 151.621469999999,
          "velocity": 0.47244094488188976,
          "duration": 0.1959457499999928
        },
        {
          "name": "E4",
          "midi": 64,
          "time": 151.82417249999898,
          "velocity": 0.47244094488188976,
          "duration": 0.1959457499999928
        },
        {
          "name": "B3",
          "midi": 59,
          "time": 151.82417249999898,
          "velocity": 0.47244094488188976,
          "duration": 0.1959457499999928
        },
        {
          "name": "G3",
          "midi": 55,
          "time": 151.82417249999898,
          "velocity": 0.47244094488188976,
          "duration": 0.1959457499999928
        },
        {
          "name": "E3",
          "midi": 52,
          "time": 151.82417249999898,
          "velocity": 0.47244094488188976,
          "duration": 0.1959457499999928
        },
        {
          "name": "B2",
          "midi": 47,
          "time": 151.82417249999898,
          "velocity": 0.47244094488188976,
          "duration": 0.1959457499999928
        },
        {
          "name": "E2",
          "midi": 40,
          "time": 151.82417249999898,
          "velocity": 0.47244094488188976,
          "duration": 0.1959457499999928
        },
        {
          "name": "E4",
          "midi": 64,
          "time": 152.02687499999897,
          "velocity": 0.47244094488188976,
          "duration": 0.3986482500000079
        },
        {
          "name": "B3",
          "midi": 59,
          "time": 152.02687499999897,
          "velocity": 0.47244094488188976,
          "duration": 0.3986482500000079
        },
        {
          "name": "G3",
          "midi": 55,
          "time": 152.02687499999897,
          "velocity": 0.47244094488188976,
          "duration": 0.3986482500000079
        },
        {
          "name": "E3",
          "midi": 52,
          "time": 152.02687499999897,
          "velocity": 0.47244094488188976,
          "duration": 0.3986482500000079
        },
        {
          "name": "B2",
          "midi": 47,
          "time": 152.02687499999897,
          "velocity": 0.47244094488188976,
          "duration": 0.3986482500000079
        },
        {
          "name": "E2",
          "midi": 40,
          "time": 152.02687499999897,
          "velocity": 0.47244094488188976,
          "duration": 0.3986482500000079
        },
        {
          "name": "F#2",
          "midi": 42,
          "time": 152.43227999999897,
          "velocity": 0.47244094488188976,
          "duration": 0.3986482500000079
        },
        {
          "name": "C#3",
          "midi": 49,
          "time": 152.43227999999897,
          "velocity": 0.47244094488188976,
          "duration": 0.3986482500000079
        },
        {
          "name": "F#3",
          "midi": 54,
          "time": 152.43227999999897,
          "velocity": 0.47244094488188976,
          "duration": 0.3986482500000079
        },
        {
          "name": "A#3",
          "midi": 58,
          "time": 152.43227999999897,
          "velocity": 0.47244094488188976,
          "duration": 0.3986482500000079
        },
        {
          "name": "C#4",
          "midi": 61,
          "time": 152.43227999999897,
          "velocity": 0.47244094488188976,
          "duration": 0.3986482500000079
        },
        {
          "name": "F#4",
          "midi": 66,
          "time": 152.43227999999897,
          "velocity": 0.47244094488188976,
          "duration": 0.3986482500000079
        },
        {
          "name": "F#4",
          "midi": 66,
          "time": 152.83768499999897,
          "velocity": 0.47244094488188976,
          "duration": 0.1959457499999928
        },
        {
          "name": "C#4",
          "midi": 61,
          "time": 152.83768499999897,
          "velocity": 0.47244094488188976,
          "duration": 0.1959457499999928
        },
        {
          "name": "A#3",
          "midi": 58,
          "time": 152.83768499999897,
          "velocity": 0.47244094488188976,
          "duration": 0.1959457499999928
        },
        {
          "name": "F#3",
          "midi": 54,
          "time": 152.83768499999897,
          "velocity": 0.47244094488188976,
          "duration": 0.1959457499999928
        },
        {
          "name": "C#3",
          "midi": 49,
          "time": 152.83768499999897,
          "velocity": 0.47244094488188976,
          "duration": 0.1959457499999928
        },
        {
          "name": "F#2",
          "midi": 42,
          "time": 152.83768499999897,
          "velocity": 0.47244094488188976,
          "duration": 0.1959457499999928
        },
        {
          "name": "F#4",
          "midi": 66,
          "time": 153.04038749999896,
          "velocity": 0.47244094488188976,
          "duration": 0.1959457499999928
        },
        {
          "name": "C#4",
          "midi": 61,
          "time": 153.04038749999896,
          "velocity": 0.47244094488188976,
          "duration": 0.1959457499999928
        },
        {
          "name": "A#3",
          "midi": 58,
          "time": 153.04038749999896,
          "velocity": 0.47244094488188976,
          "duration": 0.1959457499999928
        },
        {
          "name": "F#3",
          "midi": 54,
          "time": 153.04038749999896,
          "velocity": 0.47244094488188976,
          "duration": 0.1959457499999928
        },
        {
          "name": "C#3",
          "midi": 49,
          "time": 153.04038749999896,
          "velocity": 0.47244094488188976,
          "duration": 0.1959457499999928
        },
        {
          "name": "F#2",
          "midi": 42,
          "time": 153.04038749999896,
          "velocity": 0.47244094488188976,
          "duration": 0.1959457499999928
        },
        {
          "name": "F#4",
          "midi": 66,
          "time": 153.24308999999894,
          "velocity": 0.47244094488188976,
          "duration": 0.1959457499999928
        },
        {
          "name": "C#4",
          "midi": 61,
          "time": 153.24308999999894,
          "velocity": 0.47244094488188976,
          "duration": 0.1959457499999928
        },
        {
          "name": "A#3",
          "midi": 58,
          "time": 153.24308999999894,
          "velocity": 0.47244094488188976,
          "duration": 0.1959457499999928
        },
        {
          "name": "F#3",
          "midi": 54,
          "time": 153.24308999999894,
          "velocity": 0.47244094488188976,
          "duration": 0.1959457499999928
        },
        {
          "name": "C#3",
          "midi": 49,
          "time": 153.24308999999894,
          "velocity": 0.47244094488188976,
          "duration": 0.1959457499999928
        },
        {
          "name": "F#2",
          "midi": 42,
          "time": 153.24308999999894,
          "velocity": 0.47244094488188976,
          "duration": 0.1959457499999928
        },
        {
          "name": "F#4",
          "midi": 66,
          "time": 153.44579249999893,
          "velocity": 0.47244094488188976,
          "duration": 0.3986482500000079
        },
        {
          "name": "C#4",
          "midi": 61,
          "time": 153.44579249999893,
          "velocity": 0.47244094488188976,
          "duration": 0.3986482500000079
        },
        {
          "name": "A#3",
          "midi": 58,
          "time": 153.44579249999893,
          "velocity": 0.47244094488188976,
          "duration": 0.3986482500000079
        },
        {
          "name": "F#3",
          "midi": 54,
          "time": 153.44579249999893,
          "velocity": 0.47244094488188976,
          "duration": 0.3986482500000079
        },
        {
          "name": "C#3",
          "midi": 49,
          "time": 153.44579249999893,
          "velocity": 0.47244094488188976,
          "duration": 0.3986482500000079
        },
        {
          "name": "F#2",
          "midi": 42,
          "time": 153.44579249999893,
          "velocity": 0.47244094488188976,
          "duration": 0.3986482500000079
        },
        {
          "name": "F#4",
          "midi": 66,
          "time": 153.85119749999893,
          "velocity": 0.47244094488188976,
          "duration": 0.1959457499999928
        },
        {
          "name": "C#4",
          "midi": 61,
          "time": 153.85119749999893,
          "velocity": 0.47244094488188976,
          "duration": 0.1959457499999928
        },
        {
          "name": "A#3",
          "midi": 58,
          "time": 153.85119749999893,
          "velocity": 0.47244094488188976,
          "duration": 0.1959457499999928
        },
        {
          "name": "F#3",
          "midi": 54,
          "time": 153.85119749999893,
          "velocity": 0.47244094488188976,
          "duration": 0.1959457499999928
        },
        {
          "name": "C#3",
          "midi": 49,
          "time": 153.85119749999893,
          "velocity": 0.47244094488188976,
          "duration": 0.1959457499999928
        },
        {
          "name": "F#2",
          "midi": 42,
          "time": 153.85119749999893,
          "velocity": 0.47244094488188976,
          "duration": 0.1959457499999928
        },
        {
          "name": "F#4",
          "midi": 66,
          "time": 154.05389999999892,
          "velocity": 0.47244094488188976,
          "duration": 1.6148632500000133
        },
        {
          "name": "C#4",
          "midi": 61,
          "time": 154.05389999999892,
          "velocity": 0.47244094488188976,
          "duration": 1.6148632500000133
        },
        {
          "name": "A#3",
          "midi": 58,
          "time": 154.05389999999892,
          "velocity": 0.47244094488188976,
          "duration": 1.6148632500000133
        },
        {
          "name": "F#3",
          "midi": 54,
          "time": 154.05389999999892,
          "velocity": 0.47244094488188976,
          "duration": 1.6148632500000133
        },
        {
          "name": "C#3",
          "midi": 49,
          "time": 154.05389999999892,
          "velocity": 0.47244094488188976,
          "duration": 1.6148632500000133
        },
        {
          "name": "F#2",
          "midi": 42,
          "time": 154.05389999999892,
          "velocity": 0.47244094488188976,
          "duration": 1.6148632500000133
        },
        {
          "name": "F#3",
          "midi": 54,
          "time": 155.67551999999893,
          "velocity": 0.47244094488188976,
          "duration": 0.3986482500000079
        },
        {
          "name": "B2",
          "midi": 47,
          "time": 155.67551999999893,
          "velocity": 0.47244094488188976,
          "duration": 0.3986482500000079
        },
        {
          "name": "F#2",
          "midi": 42,
          "time": 155.67551999999893,
          "velocity": 0.47244094488188976,
          "duration": 0.3986482500000079
        },
        {
          "name": "B3",
          "midi": 59,
          "time": 155.67551999999893,
          "velocity": 0.47244094488188976,
          "duration": 0.3986482500000079
        },
        {
          "name": "D4",
          "midi": 62,
          "time": 155.67551999999893,
          "velocity": 0.47244094488188976,
          "duration": 0.3986482500000079
        },
        {
          "name": "F#4",
          "midi": 66,
          "time": 155.67551999999893,
          "velocity": 0.47244094488188976,
          "duration": 0.3986482500000079
        },
        {
          "name": "F#4",
          "midi": 66,
          "time": 156.08092499999893,
          "velocity": 0.47244094488188976,
          "duration": 0.1959457499999928
        },
        {
          "name": "B3",
          "midi": 59,
          "time": 156.08092499999893,
          "velocity": 0.47244094488188976,
          "duration": 0.1959457499999928
        },
        {
          "name": "D4",
          "midi": 62,
          "time": 156.08092499999893,
          "velocity": 0.47244094488188976,
          "duration": 0.1959457499999928
        },
        {
          "name": "F#3",
          "midi": 54,
          "time": 156.08092499999893,
          "velocity": 0.47244094488188976,
          "duration": 0.1959457499999928
        },
        {
          "name": "B2",
          "midi": 47,
          "time": 156.08092499999893,
          "velocity": 0.47244094488188976,
          "duration": 0.1959457499999928
        },
        {
          "name": "F#2",
          "midi": 42,
          "time": 156.08092499999893,
          "velocity": 0.47244094488188976,
          "duration": 0.1959457499999928
        },
        {
          "name": "F#4",
          "midi": 66,
          "time": 156.28362749999891,
          "velocity": 0.47244094488188976,
          "duration": 0.1959457499999928
        },
        {
          "name": "B3",
          "midi": 59,
          "time": 156.28362749999891,
          "velocity": 0.47244094488188976,
          "duration": 0.1959457499999928
        },
        {
          "name": "D4",
          "midi": 62,
          "time": 156.28362749999891,
          "velocity": 0.47244094488188976,
          "duration": 0.1959457499999928
        },
        {
          "name": "F#3",
          "midi": 54,
          "time": 156.28362749999891,
          "velocity": 0.47244094488188976,
          "duration": 0.1959457499999928
        },
        {
          "name": "B2",
          "midi": 47,
          "time": 156.28362749999891,
          "velocity": 0.47244094488188976,
          "duration": 0.1959457499999928
        },
        {
          "name": "F#2",
          "midi": 42,
          "time": 156.28362749999891,
          "velocity": 0.47244094488188976,
          "duration": 0.1959457499999928
        },
        {
          "name": "F#4",
          "midi": 66,
          "time": 156.4863299999989,
          "velocity": 0.47244094488188976,
          "duration": 0.3986482500000079
        },
        {
          "name": "D4",
          "midi": 62,
          "time": 156.4863299999989,
          "velocity": 0.47244094488188976,
          "duration": 0.3986482500000079
        },
        {
          "name": "B3",
          "midi": 59,
          "time": 156.4863299999989,
          "velocity": 0.47244094488188976,
          "duration": 0.3986482500000079
        },
        {
          "name": "F#3",
          "midi": 54,
          "time": 156.4863299999989,
          "velocity": 0.47244094488188976,
          "duration": 0.3986482500000079
        },
        {
          "name": "B2",
          "midi": 47,
          "time": 156.4863299999989,
          "velocity": 0.47244094488188976,
          "duration": 0.3986482500000079
        },
        {
          "name": "F#2",
          "midi": 42,
          "time": 156.4863299999989,
          "velocity": 0.47244094488188976,
          "duration": 0.3986482500000079
        },
        {
          "name": "F#4",
          "midi": 66,
          "time": 156.8917349999989,
          "velocity": 0.47244094488188976,
          "duration": 0.1959457499999928
        },
        {
          "name": "D4",
          "midi": 62,
          "time": 156.8917349999989,
          "velocity": 0.47244094488188976,
          "duration": 0.1959457499999928
        },
        {
          "name": "B3",
          "midi": 59,
          "time": 156.8917349999989,
          "velocity": 0.47244094488188976,
          "duration": 0.1959457499999928
        },
        {
          "name": "F#3",
          "midi": 54,
          "time": 156.8917349999989,
          "velocity": 0.47244094488188976,
          "duration": 0.1959457499999928
        },
        {
          "name": "B2",
          "midi": 47,
          "time": 156.8917349999989,
          "velocity": 0.47244094488188976,
          "duration": 0.1959457499999928
        },
        {
          "name": "F#2",
          "midi": 42,
          "time": 156.8917349999989,
          "velocity": 0.47244094488188976,
          "duration": 0.1959457499999928
        },
        {
          "name": "F#4",
          "midi": 66,
          "time": 157.0944374999989,
          "velocity": 0.47244094488188976,
          "duration": 0.1959457499999928
        },
        {
          "name": "D4",
          "midi": 62,
          "time": 157.0944374999989,
          "velocity": 0.47244094488188976,
          "duration": 0.1959457499999928
        },
        {
          "name": "B3",
          "midi": 59,
          "time": 157.0944374999989,
          "velocity": 0.47244094488188976,
          "duration": 0.1959457499999928
        },
        {
          "name": "F#3",
          "midi": 54,
          "time": 157.0944374999989,
          "velocity": 0.47244094488188976,
          "duration": 0.1959457499999928
        },
        {
          "name": "B2",
          "midi": 47,
          "time": 157.0944374999989,
          "velocity": 0.47244094488188976,
          "duration": 0.1959457499999928
        },
        {
          "name": "F#2",
          "midi": 42,
          "time": 157.0944374999989,
          "velocity": 0.47244094488188976,
          "duration": 0.1959457499999928
        },
        {
          "name": "F#4",
          "midi": 66,
          "time": 157.29713999999888,
          "velocity": 0.47244094488188976,
          "duration": 0.1959457499999928
        },
        {
          "name": "D4",
          "midi": 62,
          "time": 157.29713999999888,
          "velocity": 0.47244094488188976,
          "duration": 0.1959457499999928
        },
        {
          "name": "B3",
          "midi": 59,
          "time": 157.29713999999888,
          "velocity": 0.47244094488188976,
          "duration": 0.1959457499999928
        },
        {
          "name": "F#3",
          "midi": 54,
          "time": 157.29713999999888,
          "velocity": 0.47244094488188976,
          "duration": 0.1959457499999928
        },
        {
          "name": "B2",
          "midi": 47,
          "time": 157.29713999999888,
          "velocity": 0.47244094488188976,
          "duration": 0.1959457499999928
        },
        {
          "name": "F#2",
          "midi": 42,
          "time": 157.29713999999888,
          "velocity": 0.47244094488188976,
          "duration": 0.1959457499999928
        },
        {
          "name": "F#4",
          "midi": 66,
          "time": 157.49984249999886,
          "velocity": 0.47244094488188976,
          "duration": 0.1959457499999928
        },
        {
          "name": "D4",
          "midi": 62,
          "time": 157.49984249999886,
          "velocity": 0.47244094488188976,
          "duration": 0.1959457499999928
        },
        {
          "name": "B3",
          "midi": 59,
          "time": 157.49984249999886,
          "velocity": 0.47244094488188976,
          "duration": 0.1959457499999928
        },
        {
          "name": "F#3",
          "midi": 54,
          "time": 157.49984249999886,
          "velocity": 0.47244094488188976,
          "duration": 0.1959457499999928
        },
        {
          "name": "B2",
          "midi": 47,
          "time": 157.49984249999886,
          "velocity": 0.47244094488188976,
          "duration": 0.1959457499999928
        },
        {
          "name": "F#2",
          "midi": 42,
          "time": 157.49984249999886,
          "velocity": 0.47244094488188976,
          "duration": 0.1959457499999928
        },
        {
          "name": "F#4",
          "midi": 66,
          "time": 157.70254499999885,
          "velocity": 0.47244094488188976,
          "duration": 0.1959457499999928
        },
        {
          "name": "D4",
          "midi": 62,
          "time": 157.70254499999885,
          "velocity": 0.47244094488188976,
          "duration": 0.1959457499999928
        },
        {
          "name": "B3",
          "midi": 59,
          "time": 157.70254499999885,
          "velocity": 0.47244094488188976,
          "duration": 0.1959457499999928
        },
        {
          "name": "F#3",
          "midi": 54,
          "time": 157.70254499999885,
          "velocity": 0.47244094488188976,
          "duration": 0.1959457499999928
        },
        {
          "name": "B2",
          "midi": 47,
          "time": 157.70254499999885,
          "velocity": 0.47244094488188976,
          "duration": 0.1959457499999928
        },
        {
          "name": "F#2",
          "midi": 42,
          "time": 157.70254499999885,
          "velocity": 0.47244094488188976,
          "duration": 0.1959457499999928
        },
        {
          "name": "F#4",
          "midi": 66,
          "time": 157.90524749999884,
          "velocity": 0.47244094488188976,
          "duration": 0.3986482500000079
        },
        {
          "name": "D4",
          "midi": 62,
          "time": 157.90524749999884,
          "velocity": 0.47244094488188976,
          "duration": 0.3986482500000079
        },
        {
          "name": "B3",
          "midi": 59,
          "time": 157.90524749999884,
          "velocity": 0.47244094488188976,
          "duration": 0.3986482500000079
        },
        {
          "name": "F#3",
          "midi": 54,
          "time": 157.90524749999884,
          "velocity": 0.47244094488188976,
          "duration": 0.3986482500000079
        },
        {
          "name": "B2",
          "midi": 47,
          "time": 157.90524749999884,
          "velocity": 0.47244094488188976,
          "duration": 0.3986482500000079
        },
        {
          "name": "F#2",
          "midi": 42,
          "time": 157.90524749999884,
          "velocity": 0.47244094488188976,
          "duration": 0.3986482500000079
        },
        {
          "name": "F#4",
          "midi": 66,
          "time": 158.31065249999884,
          "velocity": 0.47244094488188976,
          "duration": 0.1959457499999928
        },
        {
          "name": "D4",
          "midi": 62,
          "time": 158.31065249999884,
          "velocity": 0.47244094488188976,
          "duration": 0.1959457499999928
        },
        {
          "name": "B3",
          "midi": 59,
          "time": 158.31065249999884,
          "velocity": 0.47244094488188976,
          "duration": 0.1959457499999928
        },
        {
          "name": "F#3",
          "midi": 54,
          "time": 158.31065249999884,
          "velocity": 0.47244094488188976,
          "duration": 0.1959457499999928
        },
        {
          "name": "B2",
          "midi": 47,
          "time": 158.31065249999884,
          "velocity": 0.47244094488188976,
          "duration": 0.1959457499999928
        },
        {
          "name": "F#2",
          "midi": 42,
          "time": 158.31065249999884,
          "velocity": 0.47244094488188976,
          "duration": 0.1959457499999928
        },
        {
          "name": "F#4",
          "midi": 66,
          "time": 158.51335499999882,
          "velocity": 0.47244094488188976,
          "duration": 0.3986482500000079
        },
        {
          "name": "D4",
          "midi": 62,
          "time": 158.51335499999882,
          "velocity": 0.47244094488188976,
          "duration": 0.3986482500000079
        },
        {
          "name": "B3",
          "midi": 59,
          "time": 158.51335499999882,
          "velocity": 0.47244094488188976,
          "duration": 0.3986482500000079
        },
        {
          "name": "F#3",
          "midi": 54,
          "time": 158.51335499999882,
          "velocity": 0.47244094488188976,
          "duration": 0.3986482500000079
        },
        {
          "name": "B2",
          "midi": 47,
          "time": 158.51335499999882,
          "velocity": 0.47244094488188976,
          "duration": 0.3986482500000079
        },
        {
          "name": "F#2",
          "midi": 42,
          "time": 158.51335499999882,
          "velocity": 0.47244094488188976,
          "duration": 0.3986482500000079
        },
        {
          "name": "F#2",
          "midi": 42,
          "time": 158.91875999999883,
          "velocity": 0.47244094488188976,
          "duration": 0.3986482500000079
        },
        {
          "name": "C#3",
          "midi": 49,
          "time": 158.91875999999883,
          "velocity": 0.47244094488188976,
          "duration": 0.3986482500000079
        },
        {
          "name": "F#3",
          "midi": 54,
          "time": 158.91875999999883,
          "velocity": 0.47244094488188976,
          "duration": 0.3986482500000079
        },
        {
          "name": "A#3",
          "midi": 58,
          "time": 158.91875999999883,
          "velocity": 0.47244094488188976,
          "duration": 0.3986482500000079
        },
        {
          "name": "C#4",
          "midi": 61,
          "time": 158.91875999999883,
          "velocity": 0.47244094488188976,
          "duration": 0.3986482500000079
        },
        {
          "name": "F#4",
          "midi": 66,
          "time": 158.91875999999883,
          "velocity": 0.47244094488188976,
          "duration": 0.3986482500000079
        },
        {
          "name": "F#4",
          "midi": 66,
          "time": 159.32416499999883,
          "velocity": 0.47244094488188976,
          "duration": 0.1959457499999928
        },
        {
          "name": "C#4",
          "midi": 61,
          "time": 159.32416499999883,
          "velocity": 0.47244094488188976,
          "duration": 0.1959457499999928
        },
        {
          "name": "A#3",
          "midi": 58,
          "time": 159.32416499999883,
          "velocity": 0.47244094488188976,
          "duration": 0.1959457499999928
        },
        {
          "name": "F#3",
          "midi": 54,
          "time": 159.32416499999883,
          "velocity": 0.47244094488188976,
          "duration": 0.1959457499999928
        },
        {
          "name": "C#3",
          "midi": 49,
          "time": 159.32416499999883,
          "velocity": 0.47244094488188976,
          "duration": 0.1959457499999928
        },
        {
          "name": "F#2",
          "midi": 42,
          "time": 159.32416499999883,
          "velocity": 0.47244094488188976,
          "duration": 0.1959457499999928
        },
        {
          "name": "F#4",
          "midi": 66,
          "time": 159.52686749999881,
          "velocity": 0.47244094488188976,
          "duration": 0.1959457499999928
        },
        {
          "name": "C#4",
          "midi": 61,
          "time": 159.52686749999881,
          "velocity": 0.47244094488188976,
          "duration": 0.1959457499999928
        },
        {
          "name": "A#3",
          "midi": 58,
          "time": 159.52686749999881,
          "velocity": 0.47244094488188976,
          "duration": 0.1959457499999928
        },
        {
          "name": "F#3",
          "midi": 54,
          "time": 159.52686749999881,
          "velocity": 0.47244094488188976,
          "duration": 0.1959457499999928
        },
        {
          "name": "C#3",
          "midi": 49,
          "time": 159.52686749999881,
          "velocity": 0.47244094488188976,
          "duration": 0.1959457499999928
        },
        {
          "name": "F#2",
          "midi": 42,
          "time": 159.52686749999881,
          "velocity": 0.47244094488188976,
          "duration": 0.1959457499999928
        },
        {
          "name": "F#4",
          "midi": 66,
          "time": 159.7295699999988,
          "velocity": 0.47244094488188976,
          "duration": 0.3986482500000079
        },
        {
          "name": "A#3",
          "midi": 58,
          "time": 159.7295699999988,
          "velocity": 0.47244094488188976,
          "duration": 0.3986482500000079
        },
        {
          "name": "C#4",
          "midi": 61,
          "time": 159.7295699999988,
          "velocity": 0.47244094488188976,
          "duration": 0.3986482500000079
        },
        {
          "name": "F#3",
          "midi": 54,
          "time": 159.7295699999988,
          "velocity": 0.47244094488188976,
          "duration": 0.3986482500000079
        },
        {
          "name": "C#3",
          "midi": 49,
          "time": 159.7295699999988,
          "velocity": 0.47244094488188976,
          "duration": 0.3986482500000079
        },
        {
          "name": "F#2",
          "midi": 42,
          "time": 159.7295699999988,
          "velocity": 0.47244094488188976,
          "duration": 0.3986482500000079
        },
        {
          "name": "F#4",
          "midi": 66,
          "time": 160.1349749999988,
          "velocity": 0.47244094488188976,
          "duration": 0.1959457499999928
        },
        {
          "name": "C#4",
          "midi": 61,
          "time": 160.1349749999988,
          "velocity": 0.47244094488188976,
          "duration": 0.1959457499999928
        },
        {
          "name": "A#3",
          "midi": 58,
          "time": 160.1349749999988,
          "velocity": 0.47244094488188976,
          "duration": 0.1959457499999928
        },
        {
          "name": "F#3",
          "midi": 54,
          "time": 160.1349749999988,
          "velocity": 0.47244094488188976,
          "duration": 0.1959457499999928
        },
        {
          "name": "C#3",
          "midi": 49,
          "time": 160.1349749999988,
          "velocity": 0.47244094488188976,
          "duration": 0.1959457499999928
        },
        {
          "name": "F#2",
          "midi": 42,
          "time": 160.1349749999988,
          "velocity": 0.47244094488188976,
          "duration": 0.1959457499999928
        },
        {
          "name": "F#4",
          "midi": 66,
          "time": 160.3376774999988,
          "velocity": 0.47244094488188976,
          "duration": 0.1959457499999928
        },
        {
          "name": "C#4",
          "midi": 61,
          "time": 160.3376774999988,
          "velocity": 0.47244094488188976,
          "duration": 0.1959457499999928
        },
        {
          "name": "A#3",
          "midi": 58,
          "time": 160.3376774999988,
          "velocity": 0.47244094488188976,
          "duration": 0.1959457499999928
        },
        {
          "name": "F#3",
          "midi": 54,
          "time": 160.3376774999988,
          "velocity": 0.47244094488188976,
          "duration": 0.1959457499999928
        },
        {
          "name": "C#3",
          "midi": 49,
          "time": 160.3376774999988,
          "velocity": 0.47244094488188976,
          "duration": 0.1959457499999928
        },
        {
          "name": "F#2",
          "midi": 42,
          "time": 160.3376774999988,
          "velocity": 0.47244094488188976,
          "duration": 0.1959457499999928
        },
        {
          "name": "F#4",
          "midi": 66,
          "time": 160.54037999999878,
          "velocity": 0.47244094488188976,
          "duration": 1.2094582500000115
        },
        {
          "name": "C#4",
          "midi": 61,
          "time": 160.54037999999878,
          "velocity": 0.47244094488188976,
          "duration": 1.2094582500000115
        },
        {
          "name": "A#3",
          "midi": 58,
          "time": 160.54037999999878,
          "velocity": 0.47244094488188976,
          "duration": 1.2094582500000115
        },
        {
          "name": "F#3",
          "midi": 54,
          "time": 160.54037999999878,
          "velocity": 0.47244094488188976,
          "duration": 1.2094582500000115
        },
        {
          "name": "C#3",
          "midi": 49,
          "time": 160.54037999999878,
          "velocity": 0.47244094488188976,
          "duration": 1.2094582500000115
        },
        {
          "name": "F#2",
          "midi": 42,
          "time": 160.54037999999878,
          "velocity": 0.47244094488188976,
          "duration": 1.2094582500000115
        },
        {
          "name": "F#4",
          "midi": 66,
          "time": 161.75659499999878,
          "velocity": 0.47244094488188976,
          "duration": 0.1959457499999928
        },
        {
          "name": "C#4",
          "midi": 61,
          "time": 161.75659499999878,
          "velocity": 0.47244094488188976,
          "duration": 0.1959457499999928
        },
        {
          "name": "A#3",
          "midi": 58,
          "time": 161.75659499999878,
          "velocity": 0.47244094488188976,
          "duration": 0.1959457499999928
        },
        {
          "name": "F#3",
          "midi": 54,
          "time": 161.75659499999878,
          "velocity": 0.47244094488188976,
          "duration": 0.1959457499999928
        },
        {
          "name": "C#3",
          "midi": 49,
          "time": 161.75659499999878,
          "velocity": 0.47244094488188976,
          "duration": 0.1959457499999928
        },
        {
          "name": "F#2",
          "midi": 42,
          "time": 161.75659499999878,
          "velocity": 0.47244094488188976,
          "duration": 0.1959457499999928
        },
        {
          "name": "F#4",
          "midi": 66,
          "time": 161.95929749999877,
          "velocity": 0.47244094488188976,
          "duration": 0.1959457499999928
        },
        {
          "name": "C#4",
          "midi": 61,
          "time": 161.95929749999877,
          "velocity": 0.47244094488188976,
          "duration": 0.1959457499999928
        },
        {
          "name": "A#3",
          "midi": 58,
          "time": 161.95929749999877,
          "velocity": 0.47244094488188976,
          "duration": 0.1959457499999928
        },
        {
          "name": "F#3",
          "midi": 54,
          "time": 161.95929749999877,
          "velocity": 0.47244094488188976,
          "duration": 0.1959457499999928
        },
        {
          "name": "C#3",
          "midi": 49,
          "time": 161.95929749999877,
          "velocity": 0.47244094488188976,
          "duration": 0.1959457499999928
        },
        {
          "name": "F#2",
          "midi": 42,
          "time": 161.95929749999877,
          "velocity": 0.47244094488188976,
          "duration": 0.1959457499999928
        },
        {
          "name": "E2",
          "midi": 40,
          "time": 162.16199999999876,
          "velocity": 0.47244094488188976,
          "duration": 0.3986482500000079
        },
        {
          "name": "A2",
          "midi": 45,
          "time": 162.16199999999876,
          "velocity": 0.47244094488188976,
          "duration": 0.3986482500000079
        },
        {
          "name": "E3",
          "midi": 52,
          "time": 162.16199999999876,
          "velocity": 0.47244094488188976,
          "duration": 0.3986482500000079
        },
        {
          "name": "A3",
          "midi": 57,
          "time": 162.16199999999876,
          "velocity": 0.47244094488188976,
          "duration": 0.3986482500000079
        },
        {
          "name": "C#4",
          "midi": 61,
          "time": 162.16199999999876,
          "velocity": 0.47244094488188976,
          "duration": 0.3986482500000079
        },
        {
          "name": "E4",
          "midi": 64,
          "time": 162.16199999999876,
          "velocity": 0.47244094488188976,
          "duration": 0.3986482500000079
        },
        {
          "name": "E4",
          "midi": 64,
          "time": 162.56740499999876,
          "velocity": 0.47244094488188976,
          "duration": 0.1959457499999928
        },
        {
          "name": "C#4",
          "midi": 61,
          "time": 162.56740499999876,
          "velocity": 0.47244094488188976,
          "duration": 0.1959457499999928
        },
        {
          "name": "A3",
          "midi": 57,
          "time": 162.56740499999876,
          "velocity": 0.47244094488188976,
          "duration": 0.1959457499999928
        },
        {
          "name": "E3",
          "midi": 52,
          "time": 162.56740499999876,
          "velocity": 0.47244094488188976,
          "duration": 0.1959457499999928
        },
        {
          "name": "A2",
          "midi": 45,
          "time": 162.56740499999876,
          "velocity": 0.47244094488188976,
          "duration": 0.1959457499999928
        },
        {
          "name": "E2",
          "midi": 40,
          "time": 162.56740499999876,
          "velocity": 0.47244094488188976,
          "duration": 0.1959457499999928
        },
        {
          "name": "E4",
          "midi": 64,
          "time": 162.77010749999874,
          "velocity": 0.47244094488188976,
          "duration": 0.1959457499999928
        },
        {
          "name": "C#4",
          "midi": 61,
          "time": 162.77010749999874,
          "velocity": 0.47244094488188976,
          "duration": 0.1959457499999928
        },
        {
          "name": "A3",
          "midi": 57,
          "time": 162.77010749999874,
          "velocity": 0.47244094488188976,
          "duration": 0.1959457499999928
        },
        {
          "name": "E3",
          "midi": 52,
          "time": 162.77010749999874,
          "velocity": 0.47244094488188976,
          "duration": 0.1959457499999928
        },
        {
          "name": "A2",
          "midi": 45,
          "time": 162.77010749999874,
          "velocity": 0.47244094488188976,
          "duration": 0.1959457499999928
        },
        {
          "name": "E2",
          "midi": 40,
          "time": 162.77010749999874,
          "velocity": 0.47244094488188976,
          "duration": 0.1959457499999928
        },
        {
          "name": "E4",
          "midi": 64,
          "time": 162.97280999999873,
          "velocity": 0.47244094488188976,
          "duration": 0.3986482500000079
        },
        {
          "name": "C#4",
          "midi": 61,
          "time": 162.97280999999873,
          "velocity": 0.47244094488188976,
          "duration": 0.3986482500000079
        },
        {
          "name": "A3",
          "midi": 57,
          "time": 162.97280999999873,
          "velocity": 0.47244094488188976,
          "duration": 0.3986482500000079
        },
        {
          "name": "E3",
          "midi": 52,
          "time": 162.97280999999873,
          "velocity": 0.47244094488188976,
          "duration": 0.3986482500000079
        },
        {
          "name": "A2",
          "midi": 45,
          "time": 162.97280999999873,
          "velocity": 0.47244094488188976,
          "duration": 0.3986482500000079
        },
        {
          "name": "E2",
          "midi": 40,
          "time": 162.97280999999873,
          "velocity": 0.47244094488188976,
          "duration": 0.3986482500000079
        },
        {
          "name": "E4",
          "midi": 64,
          "time": 163.37821499999873,
          "velocity": 0.47244094488188976,
          "duration": 0.1959457499999928
        },
        {
          "name": "C#4",
          "midi": 61,
          "time": 163.37821499999873,
          "velocity": 0.47244094488188976,
          "duration": 0.1959457499999928
        },
        {
          "name": "A3",
          "midi": 57,
          "time": 163.37821499999873,
          "velocity": 0.47244094488188976,
          "duration": 0.1959457499999928
        },
        {
          "name": "E3",
          "midi": 52,
          "time": 163.37821499999873,
          "velocity": 0.47244094488188976,
          "duration": 0.1959457499999928
        },
        {
          "name": "A2",
          "midi": 45,
          "time": 163.37821499999873,
          "velocity": 0.47244094488188976,
          "duration": 0.1959457499999928
        },
        {
          "name": "E2",
          "midi": 40,
          "time": 163.37821499999873,
          "velocity": 0.47244094488188976,
          "duration": 0.1959457499999928
        },
        {
          "name": "E4",
          "midi": 64,
          "time": 163.58091749999872,
          "velocity": 0.47244094488188976,
          "duration": 0.1959457499999928
        },
        {
          "name": "C#4",
          "midi": 61,
          "time": 163.58091749999872,
          "velocity": 0.47244094488188976,
          "duration": 0.1959457499999928
        },
        {
          "name": "A3",
          "midi": 57,
          "time": 163.58091749999872,
          "velocity": 0.47244094488188976,
          "duration": 0.1959457499999928
        },
        {
          "name": "E3",
          "midi": 52,
          "time": 163.58091749999872,
          "velocity": 0.47244094488188976,
          "duration": 0.1959457499999928
        },
        {
          "name": "A2",
          "midi": 45,
          "time": 163.58091749999872,
          "velocity": 0.47244094488188976,
          "duration": 0.1959457499999928
        },
        {
          "name": "E2",
          "midi": 40,
          "time": 163.58091749999872,
          "velocity": 0.47244094488188976,
          "duration": 0.1959457499999928
        },
        {
          "name": "E4",
          "midi": 64,
          "time": 163.7836199999987,
          "velocity": 0.47244094488188976,
          "duration": 0.1959457499999928
        },
        {
          "name": "C#4",
          "midi": 61,
          "time": 163.7836199999987,
          "velocity": 0.47244094488188976,
          "duration": 0.1959457499999928
        },
        {
          "name": "A3",
          "midi": 57,
          "time": 163.7836199999987,
          "velocity": 0.47244094488188976,
          "duration": 0.1959457499999928
        },
        {
          "name": "E3",
          "midi": 52,
          "time": 163.7836199999987,
          "velocity": 0.47244094488188976,
          "duration": 0.1959457499999928
        },
        {
          "name": "A2",
          "midi": 45,
          "time": 163.7836199999987,
          "velocity": 0.47244094488188976,
          "duration": 0.1959457499999928
        },
        {
          "name": "E2",
          "midi": 40,
          "time": 163.7836199999987,
          "velocity": 0.47244094488188976,
          "duration": 0.1959457499999928
        },
        {
          "name": "E4",
          "midi": 64,
          "time": 163.9863224999987,
          "velocity": 0.47244094488188976,
          "duration": 0.1959457499999928
        },
        {
          "name": "C#4",
          "midi": 61,
          "time": 163.9863224999987,
          "velocity": 0.47244094488188976,
          "duration": 0.1959457499999928
        },
        {
          "name": "A3",
          "midi": 57,
          "time": 163.9863224999987,
          "velocity": 0.47244094488188976,
          "duration": 0.1959457499999928
        },
        {
          "name": "E3",
          "midi": 52,
          "time": 163.9863224999987,
          "velocity": 0.47244094488188976,
          "duration": 0.1959457499999928
        },
        {
          "name": "A2",
          "midi": 45,
          "time": 163.9863224999987,
          "velocity": 0.47244094488188976,
          "duration": 0.1959457499999928
        },
        {
          "name": "E2",
          "midi": 40,
          "time": 163.9863224999987,
          "velocity": 0.47244094488188976,
          "duration": 0.1959457499999928
        },
        {
          "name": "E4",
          "midi": 64,
          "time": 164.18902499999868,
          "velocity": 0.47244094488188976,
          "duration": 0.1959457499999928
        },
        {
          "name": "C#4",
          "midi": 61,
          "time": 164.18902499999868,
          "velocity": 0.47244094488188976,
          "duration": 0.1959457499999928
        },
        {
          "name": "A3",
          "midi": 57,
          "time": 164.18902499999868,
          "velocity": 0.47244094488188976,
          "duration": 0.1959457499999928
        },
        {
          "name": "E3",
          "midi": 52,
          "time": 164.18902499999868,
          "velocity": 0.47244094488188976,
          "duration": 0.1959457499999928
        },
        {
          "name": "A2",
          "midi": 45,
          "time": 164.18902499999868,
          "velocity": 0.47244094488188976,
          "duration": 0.1959457499999928
        },
        {
          "name": "E2",
          "midi": 40,
          "time": 164.18902499999868,
          "velocity": 0.47244094488188976,
          "duration": 0.1959457499999928
        },
        {
          "name": "E4",
          "midi": 64,
          "time": 164.39172749999867,
          "velocity": 0.47244094488188976,
          "duration": 0.3986482500000079
        },
        {
          "name": "C#4",
          "midi": 61,
          "time": 164.39172749999867,
          "velocity": 0.47244094488188976,
          "duration": 0.3986482500000079
        },
        {
          "name": "A3",
          "midi": 57,
          "time": 164.39172749999867,
          "velocity": 0.47244094488188976,
          "duration": 0.3986482500000079
        },
        {
          "name": "E3",
          "midi": 52,
          "time": 164.39172749999867,
          "velocity": 0.47244094488188976,
          "duration": 0.3986482500000079
        },
        {
          "name": "A2",
          "midi": 45,
          "time": 164.39172749999867,
          "velocity": 0.47244094488188976,
          "duration": 0.3986482500000079
        },
        {
          "name": "E2",
          "midi": 40,
          "time": 164.39172749999867,
          "velocity": 0.47244094488188976,
          "duration": 0.3986482500000079
        },
        {
          "name": "E4",
          "midi": 64,
          "time": 164.79713249999867,
          "velocity": 0.47244094488188976,
          "duration": 0.1959457499999928
        },
        {
          "name": "C#4",
          "midi": 61,
          "time": 164.79713249999867,
          "velocity": 0.47244094488188976,
          "duration": 0.1959457499999928
        },
        {
          "name": "A3",
          "midi": 57,
          "time": 164.79713249999867,
          "velocity": 0.47244094488188976,
          "duration": 0.1959457499999928
        },
        {
          "name": "E3",
          "midi": 52,
          "time": 164.79713249999867,
          "velocity": 0.47244094488188976,
          "duration": 0.1959457499999928
        },
        {
          "name": "A2",
          "midi": 45,
          "time": 164.79713249999867,
          "velocity": 0.47244094488188976,
          "duration": 0.1959457499999928
        },
        {
          "name": "E2",
          "midi": 40,
          "time": 164.79713249999867,
          "velocity": 0.47244094488188976,
          "duration": 0.1959457499999928
        },
        {
          "name": "E4",
          "midi": 64,
          "time": 164.99983499999865,
          "velocity": 0.47244094488188976,
          "duration": 0.3986482500000079
        },
        {
          "name": "C#4",
          "midi": 61,
          "time": 164.99983499999865,
          "velocity": 0.47244094488188976,
          "duration": 0.3986482500000079
        },
        {
          "name": "A3",
          "midi": 57,
          "time": 164.99983499999865,
          "velocity": 0.47244094488188976,
          "duration": 0.3986482500000079
        },
        {
          "name": "E3",
          "midi": 52,
          "time": 164.99983499999865,
          "velocity": 0.47244094488188976,
          "duration": 0.3986482500000079
        },
        {
          "name": "A2",
          "midi": 45,
          "time": 164.99983499999865,
          "velocity": 0.47244094488188976,
          "duration": 0.3986482500000079
        },
        {
          "name": "E2",
          "midi": 40,
          "time": 164.99983499999865,
          "velocity": 0.47244094488188976,
          "duration": 0.3986482500000079
        },
        {
          "name": "E2",
          "midi": 40,
          "time": 165.40523999999866,
          "velocity": 0.47244094488188976,
          "duration": 0.3986482500000079
        },
        {
          "name": "B2",
          "midi": 47,
          "time": 165.40523999999866,
          "velocity": 0.47244094488188976,
          "duration": 0.3986482500000079
        },
        {
          "name": "E3",
          "midi": 52,
          "time": 165.40523999999866,
          "velocity": 0.47244094488188976,
          "duration": 0.3986482500000079
        },
        {
          "name": "G#3",
          "midi": 56,
          "time": 165.40523999999866,
          "velocity": 0.47244094488188976,
          "duration": 0.3986482500000079
        },
        {
          "name": "B3",
          "midi": 59,
          "time": 165.40523999999866,
          "velocity": 0.47244094488188976,
          "duration": 0.3986482500000079
        },
        {
          "name": "E4",
          "midi": 64,
          "time": 165.40523999999866,
          "velocity": 0.47244094488188976,
          "duration": 0.3986482500000079
        },
        {
          "name": "E4",
          "midi": 64,
          "time": 165.81064499999866,
          "velocity": 0.47244094488188976,
          "duration": 0.1959457499999928
        },
        {
          "name": "B3",
          "midi": 59,
          "time": 165.81064499999866,
          "velocity": 0.47244094488188976,
          "duration": 0.1959457499999928
        },
        {
          "name": "G#3",
          "midi": 56,
          "time": 165.81064499999866,
          "velocity": 0.47244094488188976,
          "duration": 0.1959457499999928
        },
        {
          "name": "E3",
          "midi": 52,
          "time": 165.81064499999866,
          "velocity": 0.47244094488188976,
          "duration": 0.1959457499999928
        },
        {
          "name": "B2",
          "midi": 47,
          "time": 165.81064499999866,
          "velocity": 0.47244094488188976,
          "duration": 0.1959457499999928
        },
        {
          "name": "E2",
          "midi": 40,
          "time": 165.81064499999866,
          "velocity": 0.47244094488188976,
          "duration": 0.1959457499999928
        },
        {
          "name": "E4",
          "midi": 64,
          "time": 166.01334749999864,
          "velocity": 0.47244094488188976,
          "duration": 0.1959457499999928
        },
        {
          "name": "B3",
          "midi": 59,
          "time": 166.01334749999864,
          "velocity": 0.47244094488188976,
          "duration": 0.1959457499999928
        },
        {
          "name": "G#3",
          "midi": 56,
          "time": 166.01334749999864,
          "velocity": 0.47244094488188976,
          "duration": 0.1959457499999928
        },
        {
          "name": "E3",
          "midi": 52,
          "time": 166.01334749999864,
          "velocity": 0.47244094488188976,
          "duration": 0.1959457499999928
        },
        {
          "name": "B2",
          "midi": 47,
          "time": 166.01334749999864,
          "velocity": 0.47244094488188976,
          "duration": 0.1959457499999928
        },
        {
          "name": "E2",
          "midi": 40,
          "time": 166.01334749999864,
          "velocity": 0.47244094488188976,
          "duration": 0.1959457499999928
        },
        {
          "name": "E4",
          "midi": 64,
          "time": 166.21604999999863,
          "velocity": 0.47244094488188976,
          "duration": 0.3986482500000079
        },
        {
          "name": "B3",
          "midi": 59,
          "time": 166.21604999999863,
          "velocity": 0.47244094488188976,
          "duration": 0.3986482500000079
        },
        {
          "name": "G#3",
          "midi": 56,
          "time": 166.21604999999863,
          "velocity": 0.47244094488188976,
          "duration": 0.3986482500000079
        },
        {
          "name": "E3",
          "midi": 52,
          "time": 166.21604999999863,
          "velocity": 0.47244094488188976,
          "duration": 0.3986482500000079
        },
        {
          "name": "B2",
          "midi": 47,
          "time": 166.21604999999863,
          "velocity": 0.47244094488188976,
          "duration": 0.3986482500000079
        },
        {
          "name": "E2",
          "midi": 40,
          "time": 166.21604999999863,
          "velocity": 0.47244094488188976,
          "duration": 0.3986482500000079
        },
        {
          "name": "E4",
          "midi": 64,
          "time": 166.62145499999863,
          "velocity": 0.47244094488188976,
          "duration": 0.1959457499999928
        },
        {
          "name": "B3",
          "midi": 59,
          "time": 166.62145499999863,
          "velocity": 0.47244094488188976,
          "duration": 0.1959457499999928
        },
        {
          "name": "G#3",
          "midi": 56,
          "time": 166.62145499999863,
          "velocity": 0.47244094488188976,
          "duration": 0.1959457499999928
        },
        {
          "name": "E3",
          "midi": 52,
          "time": 166.62145499999863,
          "velocity": 0.47244094488188976,
          "duration": 0.1959457499999928
        },
        {
          "name": "B2",
          "midi": 47,
          "time": 166.62145499999863,
          "velocity": 0.47244094488188976,
          "duration": 0.1959457499999928
        },
        {
          "name": "E2",
          "midi": 40,
          "time": 166.62145499999863,
          "velocity": 0.47244094488188976,
          "duration": 0.1959457499999928
        },
        {
          "name": "E4",
          "midi": 64,
          "time": 166.82415749999862,
          "velocity": 0.47244094488188976,
          "duration": 0.1959457499999928
        },
        {
          "name": "B3",
          "midi": 59,
          "time": 166.82415749999862,
          "velocity": 0.47244094488188976,
          "duration": 0.1959457499999928
        },
        {
          "name": "G#3",
          "midi": 56,
          "time": 166.82415749999862,
          "velocity": 0.47244094488188976,
          "duration": 0.1959457499999928
        },
        {
          "name": "E3",
          "midi": 52,
          "time": 166.82415749999862,
          "velocity": 0.47244094488188976,
          "duration": 0.1959457499999928
        },
        {
          "name": "B2",
          "midi": 47,
          "time": 166.82415749999862,
          "velocity": 0.47244094488188976,
          "duration": 0.1959457499999928
        },
        {
          "name": "E2",
          "midi": 40,
          "time": 166.82415749999862,
          "velocity": 0.47244094488188976,
          "duration": 0.1959457499999928
        },
        {
          "name": "E4",
          "midi": 64,
          "time": 167.0268599999986,
          "velocity": 0.47244094488188976,
          "duration": 1.6148632500000133
        },
        {
          "name": "B3",
          "midi": 59,
          "time": 167.0268599999986,
          "velocity": 0.47244094488188976,
          "duration": 1.6148632500000133
        },
        {
          "name": "G#3",
          "midi": 56,
          "time": 167.0268599999986,
          "velocity": 0.47244094488188976,
          "duration": 1.6148632500000133
        },
        {
          "name": "E3",
          "midi": 52,
          "time": 167.0268599999986,
          "velocity": 0.47244094488188976,
          "duration": 1.6148632500000133
        },
        {
          "name": "B2",
          "midi": 47,
          "time": 167.0268599999986,
          "velocity": 0.47244094488188976,
          "duration": 1.6148632500000133
        },
        {
          "name": "E2",
          "midi": 40,
          "time": 167.0268599999986,
          "velocity": 0.47244094488188976,
          "duration": 1.6148632500000133
        },
        {
          "name": "G2",
          "midi": 43,
          "time": 168.6484799999986,
          "velocity": 0.47244094488188976,
          "duration": 0.3986482500000079
        },
        {
          "name": "D3",
          "midi": 50,
          "time": 168.6484799999986,
          "velocity": 0.47244094488188976,
          "duration": 0.3986482500000079
        },
        {
          "name": "G3",
          "midi": 55,
          "time": 168.6484799999986,
          "velocity": 0.47244094488188976,
          "duration": 0.3986482500000079
        },
        {
          "name": "B3",
          "midi": 59,
          "time": 168.6484799999986,
          "velocity": 0.47244094488188976,
          "duration": 0.3986482500000079
        },
        {
          "name": "D4",
          "midi": 62,
          "time": 168.6484799999986,
          "velocity": 0.47244094488188976,
          "duration": 0.3986482500000079
        },
        {
          "name": "G4",
          "midi": 67,
          "time": 168.6484799999986,
          "velocity": 0.47244094488188976,
          "duration": 0.3986482500000079
        },
        {
          "name": "G4",
          "midi": 67,
          "time": 169.05388499999862,
          "velocity": 0.47244094488188976,
          "duration": 0.1959457499999928
        },
        {
          "name": "D4",
          "midi": 62,
          "time": 169.05388499999862,
          "velocity": 0.47244094488188976,
          "duration": 0.1959457499999928
        },
        {
          "name": "B3",
          "midi": 59,
          "time": 169.05388499999862,
          "velocity": 0.47244094488188976,
          "duration": 0.1959457499999928
        },
        {
          "name": "G3",
          "midi": 55,
          "time": 169.05388499999862,
          "velocity": 0.47244094488188976,
          "duration": 0.1959457499999928
        },
        {
          "name": "D3",
          "midi": 50,
          "time": 169.05388499999862,
          "velocity": 0.47244094488188976,
          "duration": 0.1959457499999928
        },
        {
          "name": "G2",
          "midi": 43,
          "time": 169.05388499999862,
          "velocity": 0.47244094488188976,
          "duration": 0.1959457499999928
        },
        {
          "name": "G4",
          "midi": 67,
          "time": 169.2565874999986,
          "velocity": 0.47244094488188976,
          "duration": 0.1959457499999928
        },
        {
          "name": "D4",
          "midi": 62,
          "time": 169.2565874999986,
          "velocity": 0.47244094488188976,
          "duration": 0.1959457499999928
        },
        {
          "name": "B3",
          "midi": 59,
          "time": 169.2565874999986,
          "velocity": 0.47244094488188976,
          "duration": 0.1959457499999928
        },
        {
          "name": "G3",
          "midi": 55,
          "time": 169.2565874999986,
          "velocity": 0.47244094488188976,
          "duration": 0.1959457499999928
        },
        {
          "name": "D3",
          "midi": 50,
          "time": 169.2565874999986,
          "velocity": 0.47244094488188976,
          "duration": 0.1959457499999928
        },
        {
          "name": "G2",
          "midi": 43,
          "time": 169.2565874999986,
          "velocity": 0.47244094488188976,
          "duration": 0.1959457499999928
        },
        {
          "name": "G4",
          "midi": 67,
          "time": 169.4592899999986,
          "velocity": 0.47244094488188976,
          "duration": 0.3986482500000079
        },
        {
          "name": "D4",
          "midi": 62,
          "time": 169.4592899999986,
          "velocity": 0.47244094488188976,
          "duration": 0.3986482500000079
        },
        {
          "name": "B3",
          "midi": 59,
          "time": 169.4592899999986,
          "velocity": 0.47244094488188976,
          "duration": 0.3986482500000079
        },
        {
          "name": "G3",
          "midi": 55,
          "time": 169.4592899999986,
          "velocity": 0.47244094488188976,
          "duration": 0.3986482500000079
        },
        {
          "name": "D3",
          "midi": 50,
          "time": 169.4592899999986,
          "velocity": 0.47244094488188976,
          "duration": 0.3986482500000079
        },
        {
          "name": "G2",
          "midi": 43,
          "time": 169.4592899999986,
          "velocity": 0.47244094488188976,
          "duration": 0.3986482500000079
        },
        {
          "name": "G4",
          "midi": 67,
          "time": 169.8646949999986,
          "velocity": 0.47244094488188976,
          "duration": 0.1959457499999928
        },
        {
          "name": "D4",
          "midi": 62,
          "time": 169.8646949999986,
          "velocity": 0.47244094488188976,
          "duration": 0.1959457499999928
        },
        {
          "name": "B3",
          "midi": 59,
          "time": 169.8646949999986,
          "velocity": 0.47244094488188976,
          "duration": 0.1959457499999928
        },
        {
          "name": "G3",
          "midi": 55,
          "time": 169.8646949999986,
          "velocity": 0.47244094488188976,
          "duration": 0.1959457499999928
        },
        {
          "name": "D3",
          "midi": 50,
          "time": 169.8646949999986,
          "velocity": 0.47244094488188976,
          "duration": 0.1959457499999928
        },
        {
          "name": "G2",
          "midi": 43,
          "time": 169.8646949999986,
          "velocity": 0.47244094488188976,
          "duration": 0.1959457499999928
        },
        {
          "name": "G4",
          "midi": 67,
          "time": 170.06739749999858,
          "velocity": 0.47244094488188976,
          "duration": 0.1959457499999928
        },
        {
          "name": "D4",
          "midi": 62,
          "time": 170.06739749999858,
          "velocity": 0.47244094488188976,
          "duration": 0.1959457499999928
        },
        {
          "name": "B3",
          "midi": 59,
          "time": 170.06739749999858,
          "velocity": 0.47244094488188976,
          "duration": 0.1959457499999928
        },
        {
          "name": "G3",
          "midi": 55,
          "time": 170.06739749999858,
          "velocity": 0.47244094488188976,
          "duration": 0.1959457499999928
        },
        {
          "name": "D3",
          "midi": 50,
          "time": 170.06739749999858,
          "velocity": 0.47244094488188976,
          "duration": 0.1959457499999928
        },
        {
          "name": "G2",
          "midi": 43,
          "time": 170.06739749999858,
          "velocity": 0.47244094488188976,
          "duration": 0.1959457499999928
        },
        {
          "name": "G4",
          "midi": 67,
          "time": 170.27009999999856,
          "velocity": 0.47244094488188976,
          "duration": 0.1959457499999928
        },
        {
          "name": "D4",
          "midi": 62,
          "time": 170.27009999999856,
          "velocity": 0.47244094488188976,
          "duration": 0.1959457499999928
        },
        {
          "name": "B3",
          "midi": 59,
          "time": 170.27009999999856,
          "velocity": 0.47244094488188976,
          "duration": 0.1959457499999928
        },
        {
          "name": "G3",
          "midi": 55,
          "time": 170.27009999999856,
          "velocity": 0.47244094488188976,
          "duration": 0.1959457499999928
        },
        {
          "name": "D3",
          "midi": 50,
          "time": 170.27009999999856,
          "velocity": 0.47244094488188976,
          "duration": 0.1959457499999928
        },
        {
          "name": "G2",
          "midi": 43,
          "time": 170.27009999999856,
          "velocity": 0.47244094488188976,
          "duration": 0.1959457499999928
        },
        {
          "name": "G4",
          "midi": 67,
          "time": 170.47280249999855,
          "velocity": 0.47244094488188976,
          "duration": 0.1959457499999928
        },
        {
          "name": "D4",
          "midi": 62,
          "time": 170.47280249999855,
          "velocity": 0.47244094488188976,
          "duration": 0.1959457499999928
        },
        {
          "name": "B3",
          "midi": 59,
          "time": 170.47280249999855,
          "velocity": 0.47244094488188976,
          "duration": 0.1959457499999928
        },
        {
          "name": "G3",
          "midi": 55,
          "time": 170.47280249999855,
          "velocity": 0.47244094488188976,
          "duration": 0.1959457499999928
        },
        {
          "name": "D3",
          "midi": 50,
          "time": 170.47280249999855,
          "velocity": 0.47244094488188976,
          "duration": 0.1959457499999928
        },
        {
          "name": "G2",
          "midi": 43,
          "time": 170.47280249999855,
          "velocity": 0.47244094488188976,
          "duration": 0.1959457499999928
        },
        {
          "name": "G4",
          "midi": 67,
          "time": 170.67550499999854,
          "velocity": 0.47244094488188976,
          "duration": 0.1959457499999928
        },
        {
          "name": "D4",
          "midi": 62,
          "time": 170.67550499999854,
          "velocity": 0.47244094488188976,
          "duration": 0.1959457499999928
        },
        {
          "name": "B3",
          "midi": 59,
          "time": 170.67550499999854,
          "velocity": 0.47244094488188976,
          "duration": 0.1959457499999928
        },
        {
          "name": "G3",
          "midi": 55,
          "time": 170.67550499999854,
          "velocity": 0.47244094488188976,
          "duration": 0.1959457499999928
        },
        {
          "name": "D3",
          "midi": 50,
          "time": 170.67550499999854,
          "velocity": 0.47244094488188976,
          "duration": 0.1959457499999928
        },
        {
          "name": "G2",
          "midi": 43,
          "time": 170.67550499999854,
          "velocity": 0.47244094488188976,
          "duration": 0.1959457499999928
        },
        {
          "name": "G4",
          "midi": 67,
          "time": 170.87820749999852,
          "velocity": 0.47244094488188976,
          "duration": 0.3986482500000079
        },
        {
          "name": "D4",
          "midi": 62,
          "time": 170.87820749999852,
          "velocity": 0.47244094488188976,
          "duration": 0.3986482500000079
        },
        {
          "name": "B3",
          "midi": 59,
          "time": 170.87820749999852,
          "velocity": 0.47244094488188976,
          "duration": 0.3986482500000079
        },
        {
          "name": "G3",
          "midi": 55,
          "time": 170.87820749999852,
          "velocity": 0.47244094488188976,
          "duration": 0.3986482500000079
        },
        {
          "name": "D3",
          "midi": 50,
          "time": 170.87820749999852,
          "velocity": 0.47244094488188976,
          "duration": 0.3986482500000079
        },
        {
          "name": "G2",
          "midi": 43,
          "time": 170.87820749999852,
          "velocity": 0.47244094488188976,
          "duration": 0.3986482500000079
        },
        {
          "name": "G4",
          "midi": 67,
          "time": 171.28361249999853,
          "velocity": 0.47244094488188976,
          "duration": 0.1959457499999928
        },
        {
          "name": "D4",
          "midi": 62,
          "time": 171.28361249999853,
          "velocity": 0.47244094488188976,
          "duration": 0.1959457499999928
        },
        {
          "name": "B3",
          "midi": 59,
          "time": 171.28361249999853,
          "velocity": 0.47244094488188976,
          "duration": 0.1959457499999928
        },
        {
          "name": "G3",
          "midi": 55,
          "time": 171.28361249999853,
          "velocity": 0.47244094488188976,
          "duration": 0.1959457499999928
        },
        {
          "name": "D3",
          "midi": 50,
          "time": 171.28361249999853,
          "velocity": 0.47244094488188976,
          "duration": 0.1959457499999928
        },
        {
          "name": "G2",
          "midi": 43,
          "time": 171.28361249999853,
          "velocity": 0.47244094488188976,
          "duration": 0.1959457499999928
        },
        {
          "name": "G4",
          "midi": 67,
          "time": 171.4863149999985,
          "velocity": 0.47244094488188976,
          "duration": 0.3986482500000079
        },
        {
          "name": "D4",
          "midi": 62,
          "time": 171.4863149999985,
          "velocity": 0.47244094488188976,
          "duration": 0.3986482500000079
        },
        {
          "name": "B3",
          "midi": 59,
          "time": 171.4863149999985,
          "velocity": 0.47244094488188976,
          "duration": 0.3986482500000079
        },
        {
          "name": "G3",
          "midi": 55,
          "time": 171.4863149999985,
          "velocity": 0.47244094488188976,
          "duration": 0.3986482500000079
        },
        {
          "name": "D3",
          "midi": 50,
          "time": 171.4863149999985,
          "velocity": 0.47244094488188976,
          "duration": 0.3986482500000079
        },
        {
          "name": "G2",
          "midi": 43,
          "time": 171.4863149999985,
          "velocity": 0.47244094488188976,
          "duration": 0.3986482500000079
        },
        {
          "name": "A2",
          "midi": 45,
          "time": 171.89171999999851,
          "velocity": 0.47244094488188976,
          "duration": 0.3986482500000079
        },
        {
          "name": "D3",
          "midi": 50,
          "time": 171.89171999999851,
          "velocity": 0.47244094488188976,
          "duration": 0.3986482500000079
        },
        {
          "name": "A3",
          "midi": 57,
          "time": 171.89171999999851,
          "velocity": 0.47244094488188976,
          "duration": 0.3986482500000079
        },
        {
          "name": "D4",
          "midi": 62,
          "time": 171.89171999999851,
          "velocity": 0.47244094488188976,
          "duration": 0.3986482500000079
        },
        {
          "name": "F#4",
          "midi": 66,
          "time": 171.89171999999851,
          "velocity": 0.47244094488188976,
          "duration": 0.3986482500000079
        },
        {
          "name": "A4",
          "midi": 69,
          "time": 171.89171999999851,
          "velocity": 0.47244094488188976,
          "duration": 0.3986482500000079
        },
        {
          "name": "A4",
          "midi": 69,
          "time": 172.29712499999852,
          "velocity": 0.47244094488188976,
          "duration": 0.1959457499999928
        },
        {
          "name": "F#4",
          "midi": 66,
          "time": 172.29712499999852,
          "velocity": 0.47244094488188976,
          "duration": 0.1959457499999928
        },
        {
          "name": "D4",
          "midi": 62,
          "time": 172.29712499999852,
          "velocity": 0.47244094488188976,
          "duration": 0.1959457499999928
        },
        {
          "name": "A3",
          "midi": 57,
          "time": 172.29712499999852,
          "velocity": 0.47244094488188976,
          "duration": 0.1959457499999928
        },
        {
          "name": "D3",
          "midi": 50,
          "time": 172.29712499999852,
          "velocity": 0.47244094488188976,
          "duration": 0.1959457499999928
        },
        {
          "name": "A2",
          "midi": 45,
          "time": 172.29712499999852,
          "velocity": 0.47244094488188976,
          "duration": 0.1959457499999928
        },
        {
          "name": "A4",
          "midi": 69,
          "time": 172.4998274999985,
          "velocity": 0.47244094488188976,
          "duration": 0.1959457499999928
        },
        {
          "name": "F#4",
          "midi": 66,
          "time": 172.4998274999985,
          "velocity": 0.47244094488188976,
          "duration": 0.1959457499999928
        },
        {
          "name": "D4",
          "midi": 62,
          "time": 172.4998274999985,
          "velocity": 0.47244094488188976,
          "duration": 0.1959457499999928
        },
        {
          "name": "A3",
          "midi": 57,
          "time": 172.4998274999985,
          "velocity": 0.47244094488188976,
          "duration": 0.1959457499999928
        },
        {
          "name": "D3",
          "midi": 50,
          "time": 172.4998274999985,
          "velocity": 0.47244094488188976,
          "duration": 0.1959457499999928
        },
        {
          "name": "A2",
          "midi": 45,
          "time": 172.4998274999985,
          "velocity": 0.47244094488188976,
          "duration": 0.1959457499999928
        },
        {
          "name": "A4",
          "midi": 69,
          "time": 172.7025299999985,
          "velocity": 0.47244094488188976,
          "duration": 0.1959457499999928
        },
        {
          "name": "F#4",
          "midi": 66,
          "time": 172.7025299999985,
          "velocity": 0.47244094488188976,
          "duration": 0.1959457499999928
        },
        {
          "name": "D4",
          "midi": 62,
          "time": 172.7025299999985,
          "velocity": 0.47244094488188976,
          "duration": 0.1959457499999928
        },
        {
          "name": "A3",
          "midi": 57,
          "time": 172.7025299999985,
          "velocity": 0.47244094488188976,
          "duration": 0.1959457499999928
        },
        {
          "name": "D3",
          "midi": 50,
          "time": 172.7025299999985,
          "velocity": 0.47244094488188976,
          "duration": 0.1959457499999928
        },
        {
          "name": "A2",
          "midi": 45,
          "time": 172.7025299999985,
          "velocity": 0.47244094488188976,
          "duration": 0.1959457499999928
        },
        {
          "name": "A4",
          "midi": 69,
          "time": 172.90523249999848,
          "velocity": 0.47244094488188976,
          "duration": 0.3986482500000079
        },
        {
          "name": "F#4",
          "midi": 66,
          "time": 172.90523249999848,
          "velocity": 0.47244094488188976,
          "duration": 0.3986482500000079
        },
        {
          "name": "D4",
          "midi": 62,
          "time": 172.90523249999848,
          "velocity": 0.47244094488188976,
          "duration": 0.3986482500000079
        },
        {
          "name": "A3",
          "midi": 57,
          "time": 172.90523249999848,
          "velocity": 0.47244094488188976,
          "duration": 0.3986482500000079
        },
        {
          "name": "D3",
          "midi": 50,
          "time": 172.90523249999848,
          "velocity": 0.47244094488188976,
          "duration": 0.3986482500000079
        },
        {
          "name": "A2",
          "midi": 45,
          "time": 172.90523249999848,
          "velocity": 0.47244094488188976,
          "duration": 0.3986482500000079
        },
        {
          "name": "A4",
          "midi": 69,
          "time": 173.31063749999848,
          "velocity": 0.47244094488188976,
          "duration": 0.1959457499999928
        },
        {
          "name": "F#4",
          "midi": 66,
          "time": 173.31063749999848,
          "velocity": 0.47244094488188976,
          "duration": 0.1959457499999928
        },
        {
          "name": "D4",
          "midi": 62,
          "time": 173.31063749999848,
          "velocity": 0.47244094488188976,
          "duration": 0.1959457499999928
        },
        {
          "name": "A3",
          "midi": 57,
          "time": 173.31063749999848,
          "velocity": 0.47244094488188976,
          "duration": 0.1959457499999928
        },
        {
          "name": "D3",
          "midi": 50,
          "time": 173.31063749999848,
          "velocity": 0.47244094488188976,
          "duration": 0.1959457499999928
        },
        {
          "name": "A2",
          "midi": 45,
          "time": 173.31063749999848,
          "velocity": 0.47244094488188976,
          "duration": 0.1959457499999928
        },
        {
          "name": "A4",
          "midi": 69,
          "time": 173.51333999999846,
          "velocity": 0.47244094488188976,
          "duration": 1.6148632500000133
        },
        {
          "name": "F#4",
          "midi": 66,
          "time": 173.51333999999846,
          "velocity": 0.47244094488188976,
          "duration": 1.6148632500000133
        },
        {
          "name": "D4",
          "midi": 62,
          "time": 173.51333999999846,
          "velocity": 0.47244094488188976,
          "duration": 1.6148632500000133
        },
        {
          "name": "A3",
          "midi": 57,
          "time": 173.51333999999846,
          "velocity": 0.47244094488188976,
          "duration": 1.6148632500000133
        },
        {
          "name": "D3",
          "midi": 50,
          "time": 173.51333999999846,
          "velocity": 0.47244094488188976,
          "duration": 1.6148632500000133
        },
        {
          "name": "A2",
          "midi": 45,
          "time": 173.51333999999846,
          "velocity": 0.47244094488188976,
          "duration": 1.6148632500000133
        },
        {
          "name": "E2",
          "midi": 40,
          "time": 175.13495999999847,
          "velocity": 0.47244094488188976,
          "duration": 0.3986482500000079
        },
        {
          "name": "B2",
          "midi": 47,
          "time": 175.13495999999847,
          "velocity": 0.47244094488188976,
          "duration": 0.3986482500000079
        },
        {
          "name": "E3",
          "midi": 52,
          "time": 175.13495999999847,
          "velocity": 0.47244094488188976,
          "duration": 0.3986482500000079
        },
        {
          "name": "G3",
          "midi": 55,
          "time": 175.13495999999847,
          "velocity": 0.47244094488188976,
          "duration": 0.3986482500000079
        },
        {
          "name": "B3",
          "midi": 59,
          "time": 175.13495999999847,
          "velocity": 0.47244094488188976,
          "duration": 0.3986482500000079
        },
        {
          "name": "E4",
          "midi": 64,
          "time": 175.13495999999847,
          "velocity": 0.47244094488188976,
          "duration": 0.3986482500000079
        },
        {
          "name": "E4",
          "midi": 64,
          "time": 175.54036499999847,
          "velocity": 0.47244094488188976,
          "duration": 0.1959457499999928
        },
        {
          "name": "B3",
          "midi": 59,
          "time": 175.54036499999847,
          "velocity": 0.47244094488188976,
          "duration": 0.1959457499999928
        },
        {
          "name": "G3",
          "midi": 55,
          "time": 175.54036499999847,
          "velocity": 0.47244094488188976,
          "duration": 0.1959457499999928
        },
        {
          "name": "E3",
          "midi": 52,
          "time": 175.54036499999847,
          "velocity": 0.47244094488188976,
          "duration": 0.1959457499999928
        },
        {
          "name": "B2",
          "midi": 47,
          "time": 175.54036499999847,
          "velocity": 0.47244094488188976,
          "duration": 0.1959457499999928
        },
        {
          "name": "E2",
          "midi": 40,
          "time": 175.54036499999847,
          "velocity": 0.47244094488188976,
          "duration": 0.1959457499999928
        },
        {
          "name": "E4",
          "midi": 64,
          "time": 175.74306749999846,
          "velocity": 0.47244094488188976,
          "duration": 0.1959457499999928
        },
        {
          "name": "B3",
          "midi": 59,
          "time": 175.74306749999846,
          "velocity": 0.47244094488188976,
          "duration": 0.1959457499999928
        },
        {
          "name": "G3",
          "midi": 55,
          "time": 175.74306749999846,
          "velocity": 0.47244094488188976,
          "duration": 0.1959457499999928
        },
        {
          "name": "E3",
          "midi": 52,
          "time": 175.74306749999846,
          "velocity": 0.47244094488188976,
          "duration": 0.1959457499999928
        },
        {
          "name": "B2",
          "midi": 47,
          "time": 175.74306749999846,
          "velocity": 0.47244094488188976,
          "duration": 0.1959457499999928
        },
        {
          "name": "E2",
          "midi": 40,
          "time": 175.74306749999846,
          "velocity": 0.47244094488188976,
          "duration": 0.1959457499999928
        },
        {
          "name": "E4",
          "midi": 64,
          "time": 175.94576999999845,
          "velocity": 0.47244094488188976,
          "duration": 0.1959457499999928
        },
        {
          "name": "B3",
          "midi": 59,
          "time": 175.94576999999845,
          "velocity": 0.47244094488188976,
          "duration": 0.1959457499999928
        },
        {
          "name": "G3",
          "midi": 55,
          "time": 175.94576999999845,
          "velocity": 0.47244094488188976,
          "duration": 0.1959457499999928
        },
        {
          "name": "E3",
          "midi": 52,
          "time": 175.94576999999845,
          "velocity": 0.47244094488188976,
          "duration": 0.1959457499999928
        },
        {
          "name": "B2",
          "midi": 47,
          "time": 175.94576999999845,
          "velocity": 0.47244094488188976,
          "duration": 0.1959457499999928
        },
        {
          "name": "E2",
          "midi": 40,
          "time": 175.94576999999845,
          "velocity": 0.47244094488188976,
          "duration": 0.1959457499999928
        },
        {
          "name": "E4",
          "midi": 64,
          "time": 176.14847249999843,
          "velocity": 0.47244094488188976,
          "duration": 0.1959457499999928
        },
        {
          "name": "B3",
          "midi": 59,
          "time": 176.14847249999843,
          "velocity": 0.47244094488188976,
          "duration": 0.1959457499999928
        },
        {
          "name": "G3",
          "midi": 55,
          "time": 176.14847249999843,
          "velocity": 0.47244094488188976,
          "duration": 0.1959457499999928
        },
        {
          "name": "E3",
          "midi": 52,
          "time": 176.14847249999843,
          "velocity": 0.47244094488188976,
          "duration": 0.1959457499999928
        },
        {
          "name": "B2",
          "midi": 47,
          "time": 176.14847249999843,
          "velocity": 0.47244094488188976,
          "duration": 0.1959457499999928
        },
        {
          "name": "E2",
          "midi": 40,
          "time": 176.14847249999843,
          "velocity": 0.47244094488188976,
          "duration": 0.1959457499999928
        },
        {
          "name": "E4",
          "midi": 64,
          "time": 176.35117499999842,
          "velocity": 0.47244094488188976,
          "duration": 0.3986482500000079
        },
        {
          "name": "B3",
          "midi": 59,
          "time": 176.35117499999842,
          "velocity": 0.47244094488188976,
          "duration": 0.3986482500000079
        },
        {
          "name": "G3",
          "midi": 55,
          "time": 176.35117499999842,
          "velocity": 0.47244094488188976,
          "duration": 0.3986482500000079
        },
        {
          "name": "E3",
          "midi": 52,
          "time": 176.35117499999842,
          "velocity": 0.47244094488188976,
          "duration": 0.3986482500000079
        },
        {
          "name": "B2",
          "midi": 47,
          "time": 176.35117499999842,
          "velocity": 0.47244094488188976,
          "duration": 0.3986482500000079
        },
        {
          "name": "E2",
          "midi": 40,
          "time": 176.35117499999842,
          "velocity": 0.47244094488188976,
          "duration": 0.3986482500000079
        },
        {
          "name": "E4",
          "midi": 64,
          "time": 176.75657999999842,
          "velocity": 0.47244094488188976,
          "duration": 0.3986482500000079
        },
        {
          "name": "B3",
          "midi": 59,
          "time": 176.75657999999842,
          "velocity": 0.47244094488188976,
          "duration": 0.3986482500000079
        },
        {
          "name": "G3",
          "midi": 55,
          "time": 176.75657999999842,
          "velocity": 0.47244094488188976,
          "duration": 0.3986482500000079
        },
        {
          "name": "E3",
          "midi": 52,
          "time": 176.75657999999842,
          "velocity": 0.47244094488188976,
          "duration": 0.3986482500000079
        },
        {
          "name": "B2",
          "midi": 47,
          "time": 176.75657999999842,
          "velocity": 0.47244094488188976,
          "duration": 0.3986482500000079
        },
        {
          "name": "E2",
          "midi": 40,
          "time": 176.75657999999842,
          "velocity": 0.47244094488188976,
          "duration": 0.3986482500000079
        },
        {
          "name": "E4",
          "midi": 64,
          "time": 177.16198499999842,
          "velocity": 0.47244094488188976,
          "duration": 0.3986482500000079
        },
        {
          "name": "B3",
          "midi": 59,
          "time": 177.16198499999842,
          "velocity": 0.47244094488188976,
          "duration": 0.3986482500000079
        },
        {
          "name": "G3",
          "midi": 55,
          "time": 177.16198499999842,
          "velocity": 0.47244094488188976,
          "duration": 0.3986482500000079
        },
        {
          "name": "E3",
          "midi": 52,
          "time": 177.16198499999842,
          "velocity": 0.47244094488188976,
          "duration": 0.3986482500000079
        },
        {
          "name": "B2",
          "midi": 47,
          "time": 177.16198499999842,
          "velocity": 0.47244094488188976,
          "duration": 0.3986482500000079
        },
        {
          "name": "E2",
          "midi": 40,
          "time": 177.16198499999842,
          "velocity": 0.47244094488188976,
          "duration": 0.3986482500000079
        },
        {
          "name": "E4",
          "midi": 64,
          "time": 177.56738999999843,
          "velocity": 0.47244094488188976,
          "duration": 0.1959457499999928
        },
        {
          "name": "B3",
          "midi": 59,
          "time": 177.56738999999843,
          "velocity": 0.47244094488188976,
          "duration": 0.1959457499999928
        },
        {
          "name": "G3",
          "midi": 55,
          "time": 177.56738999999843,
          "velocity": 0.47244094488188976,
          "duration": 0.1959457499999928
        },
        {
          "name": "E3",
          "midi": 52,
          "time": 177.56738999999843,
          "velocity": 0.47244094488188976,
          "duration": 0.1959457499999928
        },
        {
          "name": "B2",
          "midi": 47,
          "time": 177.56738999999843,
          "velocity": 0.47244094488188976,
          "duration": 0.1959457499999928
        },
        {
          "name": "E2",
          "midi": 40,
          "time": 177.56738999999843,
          "velocity": 0.47244094488188976,
          "duration": 0.1959457499999928
        },
        {
          "name": "E4",
          "midi": 64,
          "time": 177.7700924999984,
          "velocity": 0.47244094488188976,
          "duration": 0.1959457499999928
        },
        {
          "name": "B3",
          "midi": 59,
          "time": 177.7700924999984,
          "velocity": 0.47244094488188976,
          "duration": 0.1959457499999928
        },
        {
          "name": "G3",
          "midi": 55,
          "time": 177.7700924999984,
          "velocity": 0.47244094488188976,
          "duration": 0.1959457499999928
        },
        {
          "name": "E3",
          "midi": 52,
          "time": 177.7700924999984,
          "velocity": 0.47244094488188976,
          "duration": 0.1959457499999928
        },
        {
          "name": "B2",
          "midi": 47,
          "time": 177.7700924999984,
          "velocity": 0.47244094488188976,
          "duration": 0.1959457499999928
        },
        {
          "name": "E2",
          "midi": 40,
          "time": 177.7700924999984,
          "velocity": 0.47244094488188976,
          "duration": 0.1959457499999928
        },
        {
          "name": "E4",
          "midi": 64,
          "time": 177.9727949999984,
          "velocity": 0.47244094488188976,
          "duration": 0.3986482500000079
        },
        {
          "name": "B3",
          "midi": 59,
          "time": 177.9727949999984,
          "velocity": 0.47244094488188976,
          "duration": 0.3986482500000079
        },
        {
          "name": "G3",
          "midi": 55,
          "time": 177.9727949999984,
          "velocity": 0.47244094488188976,
          "duration": 0.3986482500000079
        },
        {
          "name": "E3",
          "midi": 52,
          "time": 177.9727949999984,
          "velocity": 0.47244094488188976,
          "duration": 0.3986482500000079
        },
        {
          "name": "B2",
          "midi": 47,
          "time": 177.9727949999984,
          "velocity": 0.47244094488188976,
          "duration": 0.3986482500000079
        },
        {
          "name": "E2",
          "midi": 40,
          "time": 177.9727949999984,
          "velocity": 0.47244094488188976,
          "duration": 0.3986482500000079
        },
        {
          "name": "F#2",
          "midi": 42,
          "time": 178.3781999999984,
          "velocity": 0.47244094488188976,
          "duration": 0.3986482500000079
        },
        {
          "name": "C#3",
          "midi": 49,
          "time": 178.3781999999984,
          "velocity": 0.47244094488188976,
          "duration": 0.3986482500000079
        },
        {
          "name": "F#3",
          "midi": 54,
          "time": 178.3781999999984,
          "velocity": 0.47244094488188976,
          "duration": 0.3986482500000079
        },
        {
          "name": "A#3",
          "midi": 58,
          "time": 178.3781999999984,
          "velocity": 0.47244094488188976,
          "duration": 0.3986482500000079
        },
        {
          "name": "C#4",
          "midi": 61,
          "time": 178.3781999999984,
          "velocity": 0.47244094488188976,
          "duration": 0.3986482500000079
        },
        {
          "name": "F#4",
          "midi": 66,
          "time": 178.3781999999984,
          "velocity": 0.47244094488188976,
          "duration": 0.3986482500000079
        },
        {
          "name": "F#4",
          "midi": 66,
          "time": 178.7836049999984,
          "velocity": 0.47244094488188976,
          "duration": 0.1959457499999928
        },
        {
          "name": "C#4",
          "midi": 61,
          "time": 178.7836049999984,
          "velocity": 0.47244094488188976,
          "duration": 0.1959457499999928
        },
        {
          "name": "A#3",
          "midi": 58,
          "time": 178.7836049999984,
          "velocity": 0.47244094488188976,
          "duration": 0.1959457499999928
        },
        {
          "name": "F#3",
          "midi": 54,
          "time": 178.7836049999984,
          "velocity": 0.47244094488188976,
          "duration": 0.1959457499999928
        },
        {
          "name": "C#3",
          "midi": 49,
          "time": 178.7836049999984,
          "velocity": 0.47244094488188976,
          "duration": 0.1959457499999928
        },
        {
          "name": "F#2",
          "midi": 42,
          "time": 178.7836049999984,
          "velocity": 0.47244094488188976,
          "duration": 0.1959457499999928
        },
        {
          "name": "F#4",
          "midi": 66,
          "time": 178.9863074999984,
          "velocity": 0.47244094488188976,
          "duration": 0.1959457499999928
        },
        {
          "name": "C#4",
          "midi": 61,
          "time": 178.9863074999984,
          "velocity": 0.47244094488188976,
          "duration": 0.1959457499999928
        },
        {
          "name": "A#3",
          "midi": 58,
          "time": 178.9863074999984,
          "velocity": 0.47244094488188976,
          "duration": 0.1959457499999928
        },
        {
          "name": "F#3",
          "midi": 54,
          "time": 178.9863074999984,
          "velocity": 0.47244094488188976,
          "duration": 0.1959457499999928
        },
        {
          "name": "C#3",
          "midi": 49,
          "time": 178.9863074999984,
          "velocity": 0.47244094488188976,
          "duration": 0.1959457499999928
        },
        {
          "name": "F#2",
          "midi": 42,
          "time": 178.9863074999984,
          "velocity": 0.47244094488188976,
          "duration": 0.1959457499999928
        },
        {
          "name": "F#4",
          "midi": 66,
          "time": 179.18900999999838,
          "velocity": 0.47244094488188976,
          "duration": 0.1959457499999928
        },
        {
          "name": "C#4",
          "midi": 61,
          "time": 179.18900999999838,
          "velocity": 0.47244094488188976,
          "duration": 0.1959457499999928
        },
        {
          "name": "A#3",
          "midi": 58,
          "time": 179.18900999999838,
          "velocity": 0.47244094488188976,
          "duration": 0.1959457499999928
        },
        {
          "name": "F#3",
          "midi": 54,
          "time": 179.18900999999838,
          "velocity": 0.47244094488188976,
          "duration": 0.1959457499999928
        },
        {
          "name": "C#3",
          "midi": 49,
          "time": 179.18900999999838,
          "velocity": 0.47244094488188976,
          "duration": 0.1959457499999928
        },
        {
          "name": "F#2",
          "midi": 42,
          "time": 179.18900999999838,
          "velocity": 0.47244094488188976,
          "duration": 0.1959457499999928
        },
        {
          "name": "F#4",
          "midi": 66,
          "time": 179.39171249999836,
          "velocity": 0.47244094488188976,
          "duration": 0.3986482500000079
        },
        {
          "name": "C#4",
          "midi": 61,
          "time": 179.39171249999836,
          "velocity": 0.47244094488188976,
          "duration": 0.3986482500000079
        },
        {
          "name": "A#3",
          "midi": 58,
          "time": 179.39171249999836,
          "velocity": 0.47244094488188976,
          "duration": 0.3986482500000079
        },
        {
          "name": "F#3",
          "midi": 54,
          "time": 179.39171249999836,
          "velocity": 0.47244094488188976,
          "duration": 0.3986482500000079
        },
        {
          "name": "C#3",
          "midi": 49,
          "time": 179.39171249999836,
          "velocity": 0.47244094488188976,
          "duration": 0.3986482500000079
        },
        {
          "name": "F#2",
          "midi": 42,
          "time": 179.39171249999836,
          "velocity": 0.47244094488188976,
          "duration": 0.3986482500000079
        },
        {
          "name": "F#4",
          "midi": 66,
          "time": 179.79711749999836,
          "velocity": 0.47244094488188976,
          "duration": 0.1959457499999928
        },
        {
          "name": "C#4",
          "midi": 61,
          "time": 179.79711749999836,
          "velocity": 0.47244094488188976,
          "duration": 0.1959457499999928
        },
        {
          "name": "A#3",
          "midi": 58,
          "time": 179.79711749999836,
          "velocity": 0.47244094488188976,
          "duration": 0.1959457499999928
        },
        {
          "name": "F#3",
          "midi": 54,
          "time": 179.79711749999836,
          "velocity": 0.47244094488188976,
          "duration": 0.1959457499999928
        },
        {
          "name": "C#3",
          "midi": 49,
          "time": 179.79711749999836,
          "velocity": 0.47244094488188976,
          "duration": 0.1959457499999928
        },
        {
          "name": "F#2",
          "midi": 42,
          "time": 179.79711749999836,
          "velocity": 0.47244094488188976,
          "duration": 0.1959457499999928
        },
        {
          "name": "F#4",
          "midi": 66,
          "time": 179.99981999999835,
          "velocity": 0.47244094488188976,
          "duration": 1.6148632500000133
        },
        {
          "name": "C#4",
          "midi": 61,
          "time": 179.99981999999835,
          "velocity": 0.47244094488188976,
          "duration": 1.6148632500000133
        },
        {
          "name": "A#3",
          "midi": 58,
          "time": 179.99981999999835,
          "velocity": 0.47244094488188976,
          "duration": 1.6148632500000133
        },
        {
          "name": "F#3",
          "midi": 54,
          "time": 179.99981999999835,
          "velocity": 0.47244094488188976,
          "duration": 1.6148632500000133
        },
        {
          "name": "C#3",
          "midi": 49,
          "time": 179.99981999999835,
          "velocity": 0.47244094488188976,
          "duration": 1.6148632500000133
        },
        {
          "name": "F#2",
          "midi": 42,
          "time": 179.99981999999835,
          "velocity": 0.47244094488188976,
          "duration": 1.6148632500000133
        },
        {
          "name": "B3",
          "midi": 59,
          "time": 181.62143999999836,
          "velocity": 0.47244094488188976,
          "duration": 1.6148632500000133
        },
        {
          "name": "G3",
          "midi": 55,
          "time": 181.62143999999836,
          "velocity": 0.47244094488188976,
          "duration": 1.6148632500000133
        },
        {
          "name": "D3",
          "midi": 50,
          "time": 181.62143999999836,
          "velocity": 0.47244094488188976,
          "duration": 1.6148632500000133
        },
        {
          "name": "B3",
          "midi": 59,
          "time": 183.24305999999837,
          "velocity": 0.47244094488188976,
          "duration": 1.6148632500000133
        },
        {
          "name": "G3",
          "midi": 55,
          "time": 183.24305999999837,
          "velocity": 0.47244094488188976,
          "duration": 1.6148632500000133
        },
        {
          "name": "D3",
          "midi": 50,
          "time": 183.24305999999837,
          "velocity": 0.47244094488188976,
          "duration": 1.6148632500000133
        },
        {
          "name": "D3",
          "midi": 50,
          "time": 184.86467999999837,
          "velocity": 0.47244094488188976,
          "duration": 1.6148632500000133
        },
        {
          "name": "F#3",
          "midi": 54,
          "time": 184.86467999999837,
          "velocity": 0.47244094488188976,
          "duration": 1.6148632500000133
        },
        {
          "name": "A3",
          "midi": 57,
          "time": 184.86467999999837,
          "velocity": 0.47244094488188976,
          "duration": 1.6148632500000133
        },
        {
          "name": "A3",
          "midi": 57,
          "time": 186.48629999999838,
          "velocity": 0.47244094488188976,
          "duration": 1.6148632500000133
        },
        {
          "name": "F#3",
          "midi": 54,
          "time": 186.48629999999838,
          "velocity": 0.47244094488188976,
          "duration": 1.6148632500000133
        },
        {
          "name": "D3",
          "midi": 50,
          "time": 186.48629999999838,
          "velocity": 0.47244094488188976,
          "duration": 1.6148632500000133
        },
        {
          "name": "C#3",
          "midi": 49,
          "time": 188.1079199999984,
          "velocity": 0.47244094488188976,
          "duration": 1.6148632500000133
        },
        {
          "name": "F#3",
          "midi": 54,
          "time": 188.1079199999984,
          "velocity": 0.47244094488188976,
          "duration": 1.6148632500000133
        },
        {
          "name": "A#3",
          "midi": 58,
          "time": 188.1079199999984,
          "velocity": 0.47244094488188976,
          "duration": 1.6148632500000133
        },
        {
          "name": "A#3",
          "midi": 58,
          "time": 189.7295399999984,
          "velocity": 0.47244094488188976,
          "duration": 1.6148632500000133
        },
        {
          "name": "F#3",
          "midi": 54,
          "time": 189.7295399999984,
          "velocity": 0.47244094488188976,
          "duration": 1.6148632500000133
        },
        {
          "name": "C#3",
          "midi": 49,
          "time": 189.7295399999984,
          "velocity": 0.47244094488188976,
          "duration": 1.6148632500000133
        },
        {
          "name": "D3",
          "midi": 50,
          "time": 191.3511599999984,
          "velocity": 0.47244094488188976,
          "duration": 1.6148632500000133
        },
        {
          "name": "F#3",
          "midi": 54,
          "time": 191.3511599999984,
          "velocity": 0.47244094488188976,
          "duration": 1.6148632500000133
        },
        {
          "name": "B3",
          "midi": 59,
          "time": 191.3511599999984,
          "velocity": 0.47244094488188976,
          "duration": 1.6148632500000133
        },
        {
          "name": "B3",
          "midi": 59,
          "time": 192.9727799999984,
          "velocity": 0.47244094488188976,
          "duration": 1.6148632500000133
        },
        {
          "name": "F#3",
          "midi": 54,
          "time": 192.9727799999984,
          "velocity": 0.47244094488188976,
          "duration": 1.6148632500000133
        },
        {
          "name": "D3",
          "midi": 50,
          "time": 192.9727799999984,
          "velocity": 0.47244094488188976,
          "duration": 1.6148632500000133
        },
        {
          "name": "B3",
          "midi": 59,
          "time": 194.59439999999842,
          "velocity": 0.47244094488188976,
          "duration": 1.6148632500000133
        },
        {
          "name": "G3",
          "midi": 55,
          "time": 194.59439999999842,
          "velocity": 0.47244094488188976,
          "duration": 1.6148632500000133
        },
        {
          "name": "D3",
          "midi": 50,
          "time": 194.59439999999842,
          "velocity": 0.47244094488188976,
          "duration": 1.6148632500000133
        },
        {
          "name": "B3",
          "midi": 59,
          "time": 196.21601999999842,
          "velocity": 0.47244094488188976,
          "duration": 1.6148632500000133
        },
        {
          "name": "G3",
          "midi": 55,
          "time": 196.21601999999842,
          "velocity": 0.47244094488188976,
          "duration": 1.6148632500000133
        },
        {
          "name": "D3",
          "midi": 50,
          "time": 196.21601999999842,
          "velocity": 0.47244094488188976,
          "duration": 1.6148632500000133
        },
        {
          "name": "D3",
          "midi": 50,
          "time": 197.83763999999843,
          "velocity": 0.47244094488188976,
          "duration": 1.6148632500000133
        },
        {
          "name": "F#3",
          "midi": 54,
          "time": 197.83763999999843,
          "velocity": 0.47244094488188976,
          "duration": 1.6148632500000133
        },
        {
          "name": "A3",
          "midi": 57,
          "time": 197.83763999999843,
          "velocity": 0.47244094488188976,
          "duration": 1.6148632500000133
        },
        {
          "name": "A3",
          "midi": 57,
          "time": 199.45925999999844,
          "velocity": 0.47244094488188976,
          "duration": 1.6148632500000133
        },
        {
          "name": "F#3",
          "midi": 54,
          "time": 199.45925999999844,
          "velocity": 0.47244094488188976,
          "duration": 1.6148632500000133
        },
        {
          "name": "D3",
          "midi": 50,
          "time": 199.45925999999844,
          "velocity": 0.47244094488188976,
          "duration": 1.6148632500000133
        },
        {
          "name": "E3",
          "midi": 52,
          "time": 201.08087999999844,
          "velocity": 0.47244094488188976,
          "duration": 1.6148632500000133
        },
        {
          "name": "G3",
          "midi": 55,
          "time": 201.08087999999844,
          "velocity": 0.47244094488188976,
          "duration": 1.6148632500000133
        },
        {
          "name": "B3",
          "midi": 59,
          "time": 201.08087999999844,
          "velocity": 0.47244094488188976,
          "duration": 1.6148632500000133
        },
        {
          "name": "B3",
          "midi": 59,
          "time": 202.70249999999845,
          "velocity": 0.47244094488188976,
          "duration": 1.6148632500000133
        },
        {
          "name": "G3",
          "midi": 55,
          "time": 202.70249999999845,
          "velocity": 0.47244094488188976,
          "duration": 1.6148632500000133
        },
        {
          "name": "E3",
          "midi": 52,
          "time": 202.70249999999845,
          "velocity": 0.47244094488188976,
          "duration": 1.6148632500000133
        },
        {
          "name": "C#3",
          "midi": 49,
          "time": 204.32411999999846,
          "velocity": 0.47244094488188976,
          "duration": 3.236483249999992
        },
        {
          "name": "F#3",
          "midi": 54,
          "time": 204.32411999999846,
          "velocity": 0.47244094488188976,
          "duration": 3.236483249999992
        },
        {
          "name": "A#3",
          "midi": 58,
          "time": 204.32411999999846,
          "velocity": 0.47244094488188976,
          "duration": 3.236483249999992
        },
        {
          "name": "F#2",
          "midi": 42,
          "time": 207.56735999999844,
          "velocity": 0.47244094488188976,
          "duration": 1.6148632500000133
        },
        {
          "name": "B2",
          "midi": 47,
          "time": 207.56735999999844,
          "velocity": 0.47244094488188976,
          "duration": 1.6148632500000133
        },
        {
          "name": "F#3",
          "midi": 54,
          "time": 207.56735999999844,
          "velocity": 0.47244094488188976,
          "duration": 1.6148632500000133
        },
        {
          "name": "B3",
          "midi": 59,
          "time": 207.56735999999844,
          "velocity": 0.47244094488188976,
          "duration": 1.6148632500000133
        },
        {
          "name": "D4",
          "midi": 62,
          "time": 207.56735999999844,
          "velocity": 0.47244094488188976,
          "duration": 1.6148632500000133
        },
        {
          "name": "F#4",
          "midi": 66,
          "time": 207.56735999999844,
          "velocity": 0.47244094488188976,
          "duration": 1.6148632500000133
        },
        {
          "name": "F#2",
          "midi": 42,
          "time": 210.81059999999846,
          "velocity": 0.47244094488188976,
          "duration": 1.6148632500000133
        },
        {
          "name": "C#3",
          "midi": 49,
          "time": 210.81059999999846,
          "velocity": 0.47244094488188976,
          "duration": 1.6148632500000133
        },
        {
          "name": "F#3",
          "midi": 54,
          "time": 210.81059999999846,
          "velocity": 0.47244094488188976,
          "duration": 1.6148632500000133
        },
        {
          "name": "A#3",
          "midi": 58,
          "time": 210.81059999999846,
          "velocity": 0.47244094488188976,
          "duration": 1.6148632500000133
        },
        {
          "name": "C#4",
          "midi": 61,
          "time": 210.81059999999846,
          "velocity": 0.47244094488188976,
          "duration": 1.6148632500000133
        },
        {
          "name": "F#4",
          "midi": 66,
          "time": 210.81059999999846,
          "velocity": 0.47244094488188976,
          "duration": 1.6148632500000133
        },
        {
          "name": "E2",
          "midi": 40,
          "time": 214.05383999999847,
          "velocity": 0.47244094488188976,
          "duration": 1.6148632500000133
        },
        {
          "name": "A2",
          "midi": 45,
          "time": 214.05383999999847,
          "velocity": 0.47244094488188976,
          "duration": 1.6148632500000133
        },
        {
          "name": "E3",
          "midi": 52,
          "time": 214.05383999999847,
          "velocity": 0.47244094488188976,
          "duration": 1.6148632500000133
        },
        {
          "name": "A3",
          "midi": 57,
          "time": 214.05383999999847,
          "velocity": 0.47244094488188976,
          "duration": 1.6148632500000133
        },
        {
          "name": "C#4",
          "midi": 61,
          "time": 214.05383999999847,
          "velocity": 0.47244094488188976,
          "duration": 1.6148632500000133
        },
        {
          "name": "E4",
          "midi": 64,
          "time": 214.05383999999847,
          "velocity": 0.47244094488188976,
          "duration": 1.6148632500000133
        },
        {
          "name": "A3",
          "midi": 57,
          "time": 215.67545999999848,
          "velocity": 0.47244094488188976,
          "duration": 0.8040532500000097
        },
        {
          "name": "E3",
          "midi": 52,
          "time": 216.48626999999848,
          "velocity": 0.47244094488188976,
          "duration": 0.8040532500000097
        },
        {
          "name": "E2",
          "midi": 40,
          "time": 217.2970799999985,
          "velocity": 0.47244094488188976,
          "duration": 1.6148632500000133
        },
        {
          "name": "B2",
          "midi": 47,
          "time": 217.2970799999985,
          "velocity": 0.47244094488188976,
          "duration": 1.6148632500000133
        },
        {
          "name": "E3",
          "midi": 52,
          "time": 217.2970799999985,
          "velocity": 0.47244094488188976,
          "duration": 1.6148632500000133
        },
        {
          "name": "G#3",
          "midi": 56,
          "time": 217.2970799999985,
          "velocity": 0.47244094488188976,
          "duration": 1.6148632500000133
        },
        {
          "name": "B3",
          "midi": 59,
          "time": 217.2970799999985,
          "velocity": 0.47244094488188976,
          "duration": 1.6148632500000133
        },
        {
          "name": "E4",
          "midi": 64,
          "time": 217.2970799999985,
          "velocity": 0.47244094488188976,
          "duration": 1.6148632500000133
        },
        {
          "name": "G2",
          "midi": 43,
          "time": 220.5403199999985,
          "velocity": 0.47244094488188976,
          "duration": 1.6148632500000133
        },
        {
          "name": "D3",
          "midi": 50,
          "time": 220.5403199999985,
          "velocity": 0.47244094488188976,
          "duration": 1.6148632500000133
        },
        {
          "name": "G3",
          "midi": 55,
          "time": 220.5403199999985,
          "velocity": 0.47244094488188976,
          "duration": 1.6148632500000133
        },
        {
          "name": "B3",
          "midi": 59,
          "time": 220.5403199999985,
          "velocity": 0.47244094488188976,
          "duration": 1.6148632500000133
        },
        {
          "name": "D4",
          "midi": 62,
          "time": 220.5403199999985,
          "velocity": 0.47244094488188976,
          "duration": 1.6148632500000133
        },
        {
          "name": "G4",
          "midi": 67,
          "time": 220.5403199999985,
          "velocity": 0.47244094488188976,
          "duration": 1.6148632500000133
        },
        {
          "name": "G3",
          "midi": 55,
          "time": 222.5673449999985,
          "velocity": 0.47244094488188976,
          "duration": 0.3986482500000079
        },
        {
          "name": "A3",
          "midi": 57,
          "time": 222.9727499999985,
          "velocity": 0.47244094488188976,
          "duration": 0.3986482500000079
        },
        {
          "name": "D4",
          "midi": 62,
          "time": 223.37815499999851,
          "velocity": 0.47244094488188976,
          "duration": 0.3986482500000079
        },
        {
          "name": "A2",
          "midi": 45,
          "time": 223.78355999999852,
          "velocity": 0.47244094488188976,
          "duration": 1.6148632500000133
        },
        {
          "name": "D3",
          "midi": 50,
          "time": 223.78355999999852,
          "velocity": 0.47244094488188976,
          "duration": 1.6148632500000133
        },
        {
          "name": "A3",
          "midi": 57,
          "time": 223.78355999999852,
          "velocity": 0.47244094488188976,
          "duration": 1.6148632500000133
        },
        {
          "name": "D4",
          "midi": 62,
          "time": 223.78355999999852,
          "velocity": 0.47244094488188976,
          "duration": 1.6148632500000133
        },
        {
          "name": "F#4",
          "midi": 66,
          "time": 223.78355999999852,
          "velocity": 0.47244094488188976,
          "duration": 1.6148632500000133
        },
        {
          "name": "A4",
          "midi": 69,
          "time": 223.78355999999852,
          "velocity": 0.47244094488188976,
          "duration": 1.6148632500000133
        },
        {
          "name": "F#4",
          "midi": 66,
          "time": 225.40517999999852,
          "velocity": 0.47244094488188976,
          "duration": 0.8040532500000097
        },
        {
          "name": "D4",
          "midi": 62,
          "time": 226.21598999999853,
          "velocity": 0.47244094488188976,
          "duration": 0.8040532500000097
        },
        {
          "name": "E2",
          "midi": 40,
          "time": 227.02679999999853,
          "velocity": 0.47244094488188976,
          "duration": 1.6148632500000133
        },
        {
          "name": "B2",
          "midi": 47,
          "time": 227.02679999999853,
          "velocity": 0.47244094488188976,
          "duration": 1.6148632500000133
        },
        {
          "name": "E3",
          "midi": 52,
          "time": 227.02679999999853,
          "velocity": 0.47244094488188976,
          "duration": 1.6148632500000133
        },
        {
          "name": "G3",
          "midi": 55,
          "time": 227.02679999999853,
          "velocity": 0.47244094488188976,
          "duration": 1.6148632500000133
        },
        {
          "name": "B3",
          "midi": 59,
          "time": 227.02679999999853,
          "velocity": 0.47244094488188976,
          "duration": 1.6148632500000133
        },
        {
          "name": "E4",
          "midi": 64,
          "time": 227.02679999999853,
          "velocity": 0.47244094488188976,
          "duration": 1.6148632500000133
        },
        {
          "name": "F#3",
          "midi": 54,
          "time": 229.05382499999854,
          "velocity": 0.47244094488188976,
          "duration": 0.1959457499999928
        },
        {
          "name": "G3",
          "midi": 55,
          "time": 229.25652749999853,
          "velocity": 0.47244094488188976,
          "duration": 0.1959457499999928
        },
        {
          "name": "F#3",
          "midi": 54,
          "time": 229.4592299999985,
          "velocity": 0.47244094488188976,
          "duration": 0.8040532500000097
        },
        {
          "name": "F#2",
          "midi": 42,
          "time": 230.27003999999852,
          "velocity": 0.47244094488188976,
          "duration": 1.6148632500000133
        },
        {
          "name": "C#3",
          "midi": 49,
          "time": 230.27003999999852,
          "velocity": 0.47244094488188976,
          "duration": 1.6148632500000133
        },
        {
          "name": "F#3",
          "midi": 54,
          "time": 230.27003999999852,
          "velocity": 0.47244094488188976,
          "duration": 1.6148632500000133
        },
        {
          "name": "A#3",
          "midi": 58,
          "time": 230.27003999999852,
          "velocity": 0.47244094488188976,
          "duration": 1.6148632500000133
        },
        {
          "name": "C#4",
          "midi": 61,
          "time": 230.27003999999852,
          "velocity": 0.47244094488188976,
          "duration": 1.6148632500000133
        },
        {
          "name": "F#4",
          "midi": 66,
          "time": 230.27003999999852,
          "velocity": 0.47244094488188976,
          "duration": 1.6148632500000133
        },
        {
          "name": "F#3",
          "midi": 54,
          "time": 233.51327999999853,
          "velocity": 0.47244094488188976,
          "duration": 0.3986482500000079
        },
        {
          "name": "B2",
          "midi": 47,
          "time": 233.51327999999853,
          "velocity": 0.47244094488188976,
          "duration": 0.3986482500000079
        },
        {
          "name": "F#2",
          "midi": 42,
          "time": 233.51327999999853,
          "velocity": 0.47244094488188976,
          "duration": 0.3986482500000079
        },
        {
          "name": "B3",
          "midi": 59,
          "time": 233.51327999999853,
          "velocity": 0.47244094488188976,
          "duration": 0.3986482500000079
        },
        {
          "name": "D4",
          "midi": 62,
          "time": 233.51327999999853,
          "velocity": 0.47244094488188976,
          "duration": 0.3986482500000079
        },
        {
          "name": "F#4",
          "midi": 66,
          "time": 233.51327999999853,
          "velocity": 0.47244094488188976,
          "duration": 0.3986482500000079
        },
        {
          "name": "F#4",
          "midi": 66,
          "time": 233.91868499999853,
          "velocity": 0.47244094488188976,
          "duration": 0.1959457499999928
        },
        {
          "name": "B3",
          "midi": 59,
          "time": 233.91868499999853,
          "velocity": 0.47244094488188976,
          "duration": 0.1959457499999928
        },
        {
          "name": "D4",
          "midi": 62,
          "time": 233.91868499999853,
          "velocity": 0.47244094488188976,
          "duration": 0.1959457499999928
        },
        {
          "name": "F#3",
          "midi": 54,
          "time": 233.91868499999853,
          "velocity": 0.47244094488188976,
          "duration": 0.1959457499999928
        },
        {
          "name": "B2",
          "midi": 47,
          "time": 233.91868499999853,
          "velocity": 0.47244094488188976,
          "duration": 0.1959457499999928
        },
        {
          "name": "F#2",
          "midi": 42,
          "time": 233.91868499999853,
          "velocity": 0.47244094488188976,
          "duration": 0.1959457499999928
        },
        {
          "name": "F#4",
          "midi": 66,
          "time": 234.12138749999852,
          "velocity": 0.47244094488188976,
          "duration": 0.1959457499999928
        },
        {
          "name": "B3",
          "midi": 59,
          "time": 234.12138749999852,
          "velocity": 0.47244094488188976,
          "duration": 0.1959457499999928
        },
        {
          "name": "D4",
          "midi": 62,
          "time": 234.12138749999852,
          "velocity": 0.47244094488188976,
          "duration": 0.1959457499999928
        },
        {
          "name": "F#3",
          "midi": 54,
          "time": 234.12138749999852,
          "velocity": 0.47244094488188976,
          "duration": 0.1959457499999928
        },
        {
          "name": "B2",
          "midi": 47,
          "time": 234.12138749999852,
          "velocity": 0.47244094488188976,
          "duration": 0.1959457499999928
        },
        {
          "name": "F#2",
          "midi": 42,
          "time": 234.12138749999852,
          "velocity": 0.47244094488188976,
          "duration": 0.1959457499999928
        },
        {
          "name": "F#4",
          "midi": 66,
          "time": 234.3240899999985,
          "velocity": 0.47244094488188976,
          "duration": 0.3986482500000079
        },
        {
          "name": "D4",
          "midi": 62,
          "time": 234.3240899999985,
          "velocity": 0.47244094488188976,
          "duration": 0.3986482500000079
        },
        {
          "name": "B3",
          "midi": 59,
          "time": 234.3240899999985,
          "velocity": 0.47244094488188976,
          "duration": 0.3986482500000079
        },
        {
          "name": "F#3",
          "midi": 54,
          "time": 234.3240899999985,
          "velocity": 0.47244094488188976,
          "duration": 0.3986482500000079
        },
        {
          "name": "B2",
          "midi": 47,
          "time": 234.3240899999985,
          "velocity": 0.47244094488188976,
          "duration": 0.3986482500000079
        },
        {
          "name": "F#2",
          "midi": 42,
          "time": 234.3240899999985,
          "velocity": 0.47244094488188976,
          "duration": 0.3986482500000079
        },
        {
          "name": "F#4",
          "midi": 66,
          "time": 234.7294949999985,
          "velocity": 0.47244094488188976,
          "duration": 0.1959457499999928
        },
        {
          "name": "D4",
          "midi": 62,
          "time": 234.7294949999985,
          "velocity": 0.47244094488188976,
          "duration": 0.1959457499999928
        },
        {
          "name": "B3",
          "midi": 59,
          "time": 234.7294949999985,
          "velocity": 0.47244094488188976,
          "duration": 0.1959457499999928
        },
        {
          "name": "F#3",
          "midi": 54,
          "time": 234.7294949999985,
          "velocity": 0.47244094488188976,
          "duration": 0.1959457499999928
        },
        {
          "name": "B2",
          "midi": 47,
          "time": 234.7294949999985,
          "velocity": 0.47244094488188976,
          "duration": 0.1959457499999928
        },
        {
          "name": "F#2",
          "midi": 42,
          "time": 234.7294949999985,
          "velocity": 0.47244094488188976,
          "duration": 0.1959457499999928
        },
        {
          "name": "F#4",
          "midi": 66,
          "time": 234.9321974999985,
          "velocity": 0.47244094488188976,
          "duration": 0.1959457499999928
        },
        {
          "name": "D4",
          "midi": 62,
          "time": 234.9321974999985,
          "velocity": 0.47244094488188976,
          "duration": 0.1959457499999928
        },
        {
          "name": "B3",
          "midi": 59,
          "time": 234.9321974999985,
          "velocity": 0.47244094488188976,
          "duration": 0.1959457499999928
        },
        {
          "name": "F#3",
          "midi": 54,
          "time": 234.9321974999985,
          "velocity": 0.47244094488188976,
          "duration": 0.1959457499999928
        },
        {
          "name": "B2",
          "midi": 47,
          "time": 234.9321974999985,
          "velocity": 0.47244094488188976,
          "duration": 0.1959457499999928
        },
        {
          "name": "F#2",
          "midi": 42,
          "time": 234.9321974999985,
          "velocity": 0.47244094488188976,
          "duration": 0.1959457499999928
        },
        {
          "name": "F#4",
          "midi": 66,
          "time": 235.13489999999848,
          "velocity": 0.47244094488188976,
          "duration": 0.1959457499999928
        },
        {
          "name": "D4",
          "midi": 62,
          "time": 235.13489999999848,
          "velocity": 0.47244094488188976,
          "duration": 0.1959457499999928
        },
        {
          "name": "B3",
          "midi": 59,
          "time": 235.13489999999848,
          "velocity": 0.47244094488188976,
          "duration": 0.1959457499999928
        },
        {
          "name": "F#3",
          "midi": 54,
          "time": 235.13489999999848,
          "velocity": 0.47244094488188976,
          "duration": 0.1959457499999928
        },
        {
          "name": "B2",
          "midi": 47,
          "time": 235.13489999999848,
          "velocity": 0.47244094488188976,
          "duration": 0.1959457499999928
        },
        {
          "name": "F#2",
          "midi": 42,
          "time": 235.13489999999848,
          "velocity": 0.47244094488188976,
          "duration": 0.1959457499999928
        },
        {
          "name": "F#4",
          "midi": 66,
          "time": 235.33760249999847,
          "velocity": 0.47244094488188976,
          "duration": 0.1959457499999928
        },
        {
          "name": "D4",
          "midi": 62,
          "time": 235.33760249999847,
          "velocity": 0.47244094488188976,
          "duration": 0.1959457499999928
        },
        {
          "name": "B3",
          "midi": 59,
          "time": 235.33760249999847,
          "velocity": 0.47244094488188976,
          "duration": 0.1959457499999928
        },
        {
          "name": "F#3",
          "midi": 54,
          "time": 235.33760249999847,
          "velocity": 0.47244094488188976,
          "duration": 0.1959457499999928
        },
        {
          "name": "B2",
          "midi": 47,
          "time": 235.33760249999847,
          "velocity": 0.47244094488188976,
          "duration": 0.1959457499999928
        },
        {
          "name": "F#2",
          "midi": 42,
          "time": 235.33760249999847,
          "velocity": 0.47244094488188976,
          "duration": 0.1959457499999928
        },
        {
          "name": "F#4",
          "midi": 66,
          "time": 235.54030499999845,
          "velocity": 0.47244094488188976,
          "duration": 0.1959457499999928
        },
        {
          "name": "D4",
          "midi": 62,
          "time": 235.54030499999845,
          "velocity": 0.47244094488188976,
          "duration": 0.1959457499999928
        },
        {
          "name": "B3",
          "midi": 59,
          "time": 235.54030499999845,
          "velocity": 0.47244094488188976,
          "duration": 0.1959457499999928
        },
        {
          "name": "F#3",
          "midi": 54,
          "time": 235.54030499999845,
          "velocity": 0.47244094488188976,
          "duration": 0.1959457499999928
        },
        {
          "name": "B2",
          "midi": 47,
          "time": 235.54030499999845,
          "velocity": 0.47244094488188976,
          "duration": 0.1959457499999928
        },
        {
          "name": "F#2",
          "midi": 42,
          "time": 235.54030499999845,
          "velocity": 0.47244094488188976,
          "duration": 0.1959457499999928
        },
        {
          "name": "F#4",
          "midi": 66,
          "time": 235.74300749999844,
          "velocity": 0.47244094488188976,
          "duration": 0.3986482500000079
        },
        {
          "name": "D4",
          "midi": 62,
          "time": 235.74300749999844,
          "velocity": 0.47244094488188976,
          "duration": 0.3986482500000079
        },
        {
          "name": "B3",
          "midi": 59,
          "time": 235.74300749999844,
          "velocity": 0.47244094488188976,
          "duration": 0.3986482500000079
        },
        {
          "name": "F#3",
          "midi": 54,
          "time": 235.74300749999844,
          "velocity": 0.47244094488188976,
          "duration": 0.3986482500000079
        },
        {
          "name": "B2",
          "midi": 47,
          "time": 235.74300749999844,
          "velocity": 0.47244094488188976,
          "duration": 0.3986482500000079
        },
        {
          "name": "F#2",
          "midi": 42,
          "time": 235.74300749999844,
          "velocity": 0.47244094488188976,
          "duration": 0.3986482500000079
        },
        {
          "name": "F#4",
          "midi": 66,
          "time": 236.14841249999844,
          "velocity": 0.47244094488188976,
          "duration": 0.1959457499999928
        },
        {
          "name": "D4",
          "midi": 62,
          "time": 236.14841249999844,
          "velocity": 0.47244094488188976,
          "duration": 0.1959457499999928
        },
        {
          "name": "B3",
          "midi": 59,
          "time": 236.14841249999844,
          "velocity": 0.47244094488188976,
          "duration": 0.1959457499999928
        },
        {
          "name": "F#3",
          "midi": 54,
          "time": 236.14841249999844,
          "velocity": 0.47244094488188976,
          "duration": 0.1959457499999928
        },
        {
          "name": "B2",
          "midi": 47,
          "time": 236.14841249999844,
          "velocity": 0.47244094488188976,
          "duration": 0.1959457499999928
        },
        {
          "name": "F#2",
          "midi": 42,
          "time": 236.14841249999844,
          "velocity": 0.47244094488188976,
          "duration": 0.1959457499999928
        },
        {
          "name": "F#4",
          "midi": 66,
          "time": 236.35111499999843,
          "velocity": 0.47244094488188976,
          "duration": 0.3986482500000079
        },
        {
          "name": "D4",
          "midi": 62,
          "time": 236.35111499999843,
          "velocity": 0.47244094488188976,
          "duration": 0.3986482500000079
        },
        {
          "name": "B3",
          "midi": 59,
          "time": 236.35111499999843,
          "velocity": 0.47244094488188976,
          "duration": 0.3986482500000079
        },
        {
          "name": "F#3",
          "midi": 54,
          "time": 236.35111499999843,
          "velocity": 0.47244094488188976,
          "duration": 0.3986482500000079
        },
        {
          "name": "B2",
          "midi": 47,
          "time": 236.35111499999843,
          "velocity": 0.47244094488188976,
          "duration": 0.3986482500000079
        },
        {
          "name": "F#2",
          "midi": 42,
          "time": 236.35111499999843,
          "velocity": 0.47244094488188976,
          "duration": 0.3986482500000079
        },
        {
          "name": "F#2",
          "midi": 42,
          "time": 236.75651999999843,
          "velocity": 0.47244094488188976,
          "duration": 0.3986482500000079
        },
        {
          "name": "C#3",
          "midi": 49,
          "time": 236.75651999999843,
          "velocity": 0.47244094488188976,
          "duration": 0.3986482500000079
        },
        {
          "name": "F#3",
          "midi": 54,
          "time": 236.75651999999843,
          "velocity": 0.47244094488188976,
          "duration": 0.3986482500000079
        },
        {
          "name": "A#3",
          "midi": 58,
          "time": 236.75651999999843,
          "velocity": 0.47244094488188976,
          "duration": 0.3986482500000079
        },
        {
          "name": "C#4",
          "midi": 61,
          "time": 236.75651999999843,
          "velocity": 0.47244094488188976,
          "duration": 0.3986482500000079
        },
        {
          "name": "F#4",
          "midi": 66,
          "time": 236.75651999999843,
          "velocity": 0.47244094488188976,
          "duration": 0.3986482500000079
        },
        {
          "name": "F#4",
          "midi": 66,
          "time": 237.16192499999843,
          "velocity": 0.47244094488188976,
          "duration": 0.1959457499999928
        },
        {
          "name": "C#4",
          "midi": 61,
          "time": 237.16192499999843,
          "velocity": 0.47244094488188976,
          "duration": 0.1959457499999928
        },
        {
          "name": "A#3",
          "midi": 58,
          "time": 237.16192499999843,
          "velocity": 0.47244094488188976,
          "duration": 0.1959457499999928
        },
        {
          "name": "F#3",
          "midi": 54,
          "time": 237.16192499999843,
          "velocity": 0.47244094488188976,
          "duration": 0.1959457499999928
        },
        {
          "name": "C#3",
          "midi": 49,
          "time": 237.16192499999843,
          "velocity": 0.47244094488188976,
          "duration": 0.1959457499999928
        },
        {
          "name": "F#2",
          "midi": 42,
          "time": 237.16192499999843,
          "velocity": 0.47244094488188976,
          "duration": 0.1959457499999928
        },
        {
          "name": "F#4",
          "midi": 66,
          "time": 237.36462749999842,
          "velocity": 0.47244094488188976,
          "duration": 0.1959457499999928
        },
        {
          "name": "C#4",
          "midi": 61,
          "time": 237.36462749999842,
          "velocity": 0.47244094488188976,
          "duration": 0.1959457499999928
        },
        {
          "name": "A#3",
          "midi": 58,
          "time": 237.36462749999842,
          "velocity": 0.47244094488188976,
          "duration": 0.1959457499999928
        },
        {
          "name": "F#3",
          "midi": 54,
          "time": 237.36462749999842,
          "velocity": 0.47244094488188976,
          "duration": 0.1959457499999928
        },
        {
          "name": "C#3",
          "midi": 49,
          "time": 237.36462749999842,
          "velocity": 0.47244094488188976,
          "duration": 0.1959457499999928
        },
        {
          "name": "F#2",
          "midi": 42,
          "time": 237.36462749999842,
          "velocity": 0.47244094488188976,
          "duration": 0.1959457499999928
        },
        {
          "name": "F#4",
          "midi": 66,
          "time": 237.5673299999984,
          "velocity": 0.47244094488188976,
          "duration": 0.3986482500000079
        },
        {
          "name": "A#3",
          "midi": 58,
          "time": 237.5673299999984,
          "velocity": 0.47244094488188976,
          "duration": 0.3986482500000079
        },
        {
          "name": "C#4",
          "midi": 61,
          "time": 237.5673299999984,
          "velocity": 0.47244094488188976,
          "duration": 0.3986482500000079
        },
        {
          "name": "F#3",
          "midi": 54,
          "time": 237.5673299999984,
          "velocity": 0.47244094488188976,
          "duration": 0.3986482500000079
        },
        {
          "name": "C#3",
          "midi": 49,
          "time": 237.5673299999984,
          "velocity": 0.47244094488188976,
          "duration": 0.3986482500000079
        },
        {
          "name": "F#2",
          "midi": 42,
          "time": 237.5673299999984,
          "velocity": 0.47244094488188976,
          "duration": 0.3986482500000079
        },
        {
          "name": "F#4",
          "midi": 66,
          "time": 237.9727349999984,
          "velocity": 0.47244094488188976,
          "duration": 0.1959457499999928
        },
        {
          "name": "C#4",
          "midi": 61,
          "time": 237.9727349999984,
          "velocity": 0.47244094488188976,
          "duration": 0.1959457499999928
        },
        {
          "name": "A#3",
          "midi": 58,
          "time": 237.9727349999984,
          "velocity": 0.47244094488188976,
          "duration": 0.1959457499999928
        },
        {
          "name": "F#3",
          "midi": 54,
          "time": 237.9727349999984,
          "velocity": 0.47244094488188976,
          "duration": 0.1959457499999928
        },
        {
          "name": "C#3",
          "midi": 49,
          "time": 237.9727349999984,
          "velocity": 0.47244094488188976,
          "duration": 0.1959457499999928
        },
        {
          "name": "F#2",
          "midi": 42,
          "time": 237.9727349999984,
          "velocity": 0.47244094488188976,
          "duration": 0.1959457499999928
        },
        {
          "name": "F#4",
          "midi": 66,
          "time": 238.1754374999984,
          "velocity": 0.47244094488188976,
          "duration": 0.1959457499999928
        },
        {
          "name": "C#4",
          "midi": 61,
          "time": 238.1754374999984,
          "velocity": 0.47244094488188976,
          "duration": 0.1959457499999928
        },
        {
          "name": "A#3",
          "midi": 58,
          "time": 238.1754374999984,
          "velocity": 0.47244094488188976,
          "duration": 0.1959457499999928
        },
        {
          "name": "F#3",
          "midi": 54,
          "time": 238.1754374999984,
          "velocity": 0.47244094488188976,
          "duration": 0.1959457499999928
        },
        {
          "name": "C#3",
          "midi": 49,
          "time": 238.1754374999984,
          "velocity": 0.47244094488188976,
          "duration": 0.1959457499999928
        },
        {
          "name": "F#2",
          "midi": 42,
          "time": 238.1754374999984,
          "velocity": 0.47244094488188976,
          "duration": 0.1959457499999928
        },
        {
          "name": "F#4",
          "midi": 66,
          "time": 238.37813999999838,
          "velocity": 0.47244094488188976,
          "duration": 1.2094582500000115
        },
        {
          "name": "C#4",
          "midi": 61,
          "time": 238.37813999999838,
          "velocity": 0.47244094488188976,
          "duration": 1.2094582500000115
        },
        {
          "name": "A#3",
          "midi": 58,
          "time": 238.37813999999838,
          "velocity": 0.47244094488188976,
          "duration": 1.2094582500000115
        },
        {
          "name": "F#3",
          "midi": 54,
          "time": 238.37813999999838,
          "velocity": 0.47244094488188976,
          "duration": 1.2094582500000115
        },
        {
          "name": "C#3",
          "midi": 49,
          "time": 238.37813999999838,
          "velocity": 0.47244094488188976,
          "duration": 1.2094582500000115
        },
        {
          "name": "F#2",
          "midi": 42,
          "time": 238.37813999999838,
          "velocity": 0.47244094488188976,
          "duration": 1.2094582500000115
        },
        {
          "name": "F#4",
          "midi": 66,
          "time": 239.5943549999984,
          "velocity": 0.47244094488188976,
          "duration": 0.1959457499999928
        },
        {
          "name": "C#4",
          "midi": 61,
          "time": 239.5943549999984,
          "velocity": 0.47244094488188976,
          "duration": 0.1959457499999928
        },
        {
          "name": "A#3",
          "midi": 58,
          "time": 239.5943549999984,
          "velocity": 0.47244094488188976,
          "duration": 0.1959457499999928
        },
        {
          "name": "F#3",
          "midi": 54,
          "time": 239.5943549999984,
          "velocity": 0.47244094488188976,
          "duration": 0.1959457499999928
        },
        {
          "name": "C#3",
          "midi": 49,
          "time": 239.5943549999984,
          "velocity": 0.47244094488188976,
          "duration": 0.1959457499999928
        },
        {
          "name": "F#2",
          "midi": 42,
          "time": 239.5943549999984,
          "velocity": 0.47244094488188976,
          "duration": 0.1959457499999928
        },
        {
          "name": "F#4",
          "midi": 66,
          "time": 239.79705749999837,
          "velocity": 0.47244094488188976,
          "duration": 0.1959457499999928
        },
        {
          "name": "C#4",
          "midi": 61,
          "time": 239.79705749999837,
          "velocity": 0.47244094488188976,
          "duration": 0.1959457499999928
        },
        {
          "name": "A#3",
          "midi": 58,
          "time": 239.79705749999837,
          "velocity": 0.47244094488188976,
          "duration": 0.1959457499999928
        },
        {
          "name": "F#3",
          "midi": 54,
          "time": 239.79705749999837,
          "velocity": 0.47244094488188976,
          "duration": 0.1959457499999928
        },
        {
          "name": "C#3",
          "midi": 49,
          "time": 239.79705749999837,
          "velocity": 0.47244094488188976,
          "duration": 0.1959457499999928
        },
        {
          "name": "F#2",
          "midi": 42,
          "time": 239.79705749999837,
          "velocity": 0.47244094488188976,
          "duration": 0.1959457499999928
        },
        {
          "name": "E2",
          "midi": 40,
          "time": 239.99975999999836,
          "velocity": 0.47244094488188976,
          "duration": 0.3986482500000079
        },
        {
          "name": "A2",
          "midi": 45,
          "time": 239.99975999999836,
          "velocity": 0.47244094488188976,
          "duration": 0.3986482500000079
        },
        {
          "name": "E3",
          "midi": 52,
          "time": 239.99975999999836,
          "velocity": 0.47244094488188976,
          "duration": 0.3986482500000079
        },
        {
          "name": "A3",
          "midi": 57,
          "time": 239.99975999999836,
          "velocity": 0.47244094488188976,
          "duration": 0.3986482500000079
        },
        {
          "name": "C#4",
          "midi": 61,
          "time": 239.99975999999836,
          "velocity": 0.47244094488188976,
          "duration": 0.3986482500000079
        },
        {
          "name": "E4",
          "midi": 64,
          "time": 239.99975999999836,
          "velocity": 0.47244094488188976,
          "duration": 0.3986482500000079
        },
        {
          "name": "E4",
          "midi": 64,
          "time": 240.40516499999836,
          "velocity": 0.47244094488188976,
          "duration": 0.1959457499999928
        },
        {
          "name": "C#4",
          "midi": 61,
          "time": 240.40516499999836,
          "velocity": 0.47244094488188976,
          "duration": 0.1959457499999928
        },
        {
          "name": "A3",
          "midi": 57,
          "time": 240.40516499999836,
          "velocity": 0.47244094488188976,
          "duration": 0.1959457499999928
        },
        {
          "name": "E3",
          "midi": 52,
          "time": 240.40516499999836,
          "velocity": 0.47244094488188976,
          "duration": 0.1959457499999928
        },
        {
          "name": "A2",
          "midi": 45,
          "time": 240.40516499999836,
          "velocity": 0.47244094488188976,
          "duration": 0.1959457499999928
        },
        {
          "name": "E2",
          "midi": 40,
          "time": 240.40516499999836,
          "velocity": 0.47244094488188976,
          "duration": 0.1959457499999928
        },
        {
          "name": "E4",
          "midi": 64,
          "time": 240.60786749999835,
          "velocity": 0.47244094488188976,
          "duration": 0.1959457499999928
        },
        {
          "name": "C#4",
          "midi": 61,
          "time": 240.60786749999835,
          "velocity": 0.47244094488188976,
          "duration": 0.1959457499999928
        },
        {
          "name": "A3",
          "midi": 57,
          "time": 240.60786749999835,
          "velocity": 0.47244094488188976,
          "duration": 0.1959457499999928
        },
        {
          "name": "E3",
          "midi": 52,
          "time": 240.60786749999835,
          "velocity": 0.47244094488188976,
          "duration": 0.1959457499999928
        },
        {
          "name": "A2",
          "midi": 45,
          "time": 240.60786749999835,
          "velocity": 0.47244094488188976,
          "duration": 0.1959457499999928
        },
        {
          "name": "E2",
          "midi": 40,
          "time": 240.60786749999835,
          "velocity": 0.47244094488188976,
          "duration": 0.1959457499999928
        },
        {
          "name": "E4",
          "midi": 64,
          "time": 240.81056999999834,
          "velocity": 0.47244094488188976,
          "duration": 0.3986482500000079
        },
        {
          "name": "C#4",
          "midi": 61,
          "time": 240.81056999999834,
          "velocity": 0.47244094488188976,
          "duration": 0.3986482500000079
        },
        {
          "name": "A3",
          "midi": 57,
          "time": 240.81056999999834,
          "velocity": 0.47244094488188976,
          "duration": 0.3986482500000079
        },
        {
          "name": "E3",
          "midi": 52,
          "time": 240.81056999999834,
          "velocity": 0.47244094488188976,
          "duration": 0.3986482500000079
        },
        {
          "name": "A2",
          "midi": 45,
          "time": 240.81056999999834,
          "velocity": 0.47244094488188976,
          "duration": 0.3986482500000079
        },
        {
          "name": "E2",
          "midi": 40,
          "time": 240.81056999999834,
          "velocity": 0.47244094488188976,
          "duration": 0.3986482500000079
        },
        {
          "name": "E4",
          "midi": 64,
          "time": 241.21597499999834,
          "velocity": 0.47244094488188976,
          "duration": 0.1959457499999928
        },
        {
          "name": "C#4",
          "midi": 61,
          "time": 241.21597499999834,
          "velocity": 0.47244094488188976,
          "duration": 0.1959457499999928
        },
        {
          "name": "A3",
          "midi": 57,
          "time": 241.21597499999834,
          "velocity": 0.47244094488188976,
          "duration": 0.1959457499999928
        },
        {
          "name": "E3",
          "midi": 52,
          "time": 241.21597499999834,
          "velocity": 0.47244094488188976,
          "duration": 0.1959457499999928
        },
        {
          "name": "A2",
          "midi": 45,
          "time": 241.21597499999834,
          "velocity": 0.47244094488188976,
          "duration": 0.1959457499999928
        },
        {
          "name": "E2",
          "midi": 40,
          "time": 241.21597499999834,
          "velocity": 0.47244094488188976,
          "duration": 0.1959457499999928
        },
        {
          "name": "E4",
          "midi": 64,
          "time": 241.41867749999832,
          "velocity": 0.47244094488188976,
          "duration": 0.1959457499999928
        },
        {
          "name": "C#4",
          "midi": 61,
          "time": 241.41867749999832,
          "velocity": 0.47244094488188976,
          "duration": 0.1959457499999928
        },
        {
          "name": "A3",
          "midi": 57,
          "time": 241.41867749999832,
          "velocity": 0.47244094488188976,
          "duration": 0.1959457499999928
        },
        {
          "name": "E3",
          "midi": 52,
          "time": 241.41867749999832,
          "velocity": 0.47244094488188976,
          "duration": 0.1959457499999928
        },
        {
          "name": "A2",
          "midi": 45,
          "time": 241.41867749999832,
          "velocity": 0.47244094488188976,
          "duration": 0.1959457499999928
        },
        {
          "name": "E2",
          "midi": 40,
          "time": 241.41867749999832,
          "velocity": 0.47244094488188976,
          "duration": 0.1959457499999928
        },
        {
          "name": "E4",
          "midi": 64,
          "time": 241.6213799999983,
          "velocity": 0.47244094488188976,
          "duration": 0.1959457499999928
        },
        {
          "name": "C#4",
          "midi": 61,
          "time": 241.6213799999983,
          "velocity": 0.47244094488188976,
          "duration": 0.1959457499999928
        },
        {
          "name": "A3",
          "midi": 57,
          "time": 241.6213799999983,
          "velocity": 0.47244094488188976,
          "duration": 0.1959457499999928
        },
        {
          "name": "E3",
          "midi": 52,
          "time": 241.6213799999983,
          "velocity": 0.47244094488188976,
          "duration": 0.1959457499999928
        },
        {
          "name": "A2",
          "midi": 45,
          "time": 241.6213799999983,
          "velocity": 0.47244094488188976,
          "duration": 0.1959457499999928
        },
        {
          "name": "E2",
          "midi": 40,
          "time": 241.6213799999983,
          "velocity": 0.47244094488188976,
          "duration": 0.1959457499999928
        },
        {
          "name": "E4",
          "midi": 64,
          "time": 241.8240824999983,
          "velocity": 0.47244094488188976,
          "duration": 0.1959457499999928
        },
        {
          "name": "C#4",
          "midi": 61,
          "time": 241.8240824999983,
          "velocity": 0.47244094488188976,
          "duration": 0.1959457499999928
        },
        {
          "name": "A3",
          "midi": 57,
          "time": 241.8240824999983,
          "velocity": 0.47244094488188976,
          "duration": 0.1959457499999928
        },
        {
          "name": "E3",
          "midi": 52,
          "time": 241.8240824999983,
          "velocity": 0.47244094488188976,
          "duration": 0.1959457499999928
        },
        {
          "name": "A2",
          "midi": 45,
          "time": 241.8240824999983,
          "velocity": 0.47244094488188976,
          "duration": 0.1959457499999928
        },
        {
          "name": "E2",
          "midi": 40,
          "time": 241.8240824999983,
          "velocity": 0.47244094488188976,
          "duration": 0.1959457499999928
        },
        {
          "name": "E4",
          "midi": 64,
          "time": 242.02678499999828,
          "velocity": 0.47244094488188976,
          "duration": 0.1959457499999928
        },
        {
          "name": "C#4",
          "midi": 61,
          "time": 242.02678499999828,
          "velocity": 0.47244094488188976,
          "duration": 0.1959457499999928
        },
        {
          "name": "A3",
          "midi": 57,
          "time": 242.02678499999828,
          "velocity": 0.47244094488188976,
          "duration": 0.1959457499999928
        },
        {
          "name": "E3",
          "midi": 52,
          "time": 242.02678499999828,
          "velocity": 0.47244094488188976,
          "duration": 0.1959457499999928
        },
        {
          "name": "A2",
          "midi": 45,
          "time": 242.02678499999828,
          "velocity": 0.47244094488188976,
          "duration": 0.1959457499999928
        },
        {
          "name": "E2",
          "midi": 40,
          "time": 242.02678499999828,
          "velocity": 0.47244094488188976,
          "duration": 0.1959457499999928
        },
        {
          "name": "E4",
          "midi": 64,
          "time": 242.22948749999827,
          "velocity": 0.47244094488188976,
          "duration": 0.3986482500000079
        },
        {
          "name": "C#4",
          "midi": 61,
          "time": 242.22948749999827,
          "velocity": 0.47244094488188976,
          "duration": 0.3986482500000079
        },
        {
          "name": "A3",
          "midi": 57,
          "time": 242.22948749999827,
          "velocity": 0.47244094488188976,
          "duration": 0.3986482500000079
        },
        {
          "name": "E3",
          "midi": 52,
          "time": 242.22948749999827,
          "velocity": 0.47244094488188976,
          "duration": 0.3986482500000079
        },
        {
          "name": "A2",
          "midi": 45,
          "time": 242.22948749999827,
          "velocity": 0.47244094488188976,
          "duration": 0.3986482500000079
        },
        {
          "name": "E2",
          "midi": 40,
          "time": 242.22948749999827,
          "velocity": 0.47244094488188976,
          "duration": 0.3986482500000079
        },
        {
          "name": "E4",
          "midi": 64,
          "time": 242.63489249999827,
          "velocity": 0.47244094488188976,
          "duration": 0.1959457499999928
        },
        {
          "name": "C#4",
          "midi": 61,
          "time": 242.63489249999827,
          "velocity": 0.47244094488188976,
          "duration": 0.1959457499999928
        },
        {
          "name": "A3",
          "midi": 57,
          "time": 242.63489249999827,
          "velocity": 0.47244094488188976,
          "duration": 0.1959457499999928
        },
        {
          "name": "E3",
          "midi": 52,
          "time": 242.63489249999827,
          "velocity": 0.47244094488188976,
          "duration": 0.1959457499999928
        },
        {
          "name": "A2",
          "midi": 45,
          "time": 242.63489249999827,
          "velocity": 0.47244094488188976,
          "duration": 0.1959457499999928
        },
        {
          "name": "E2",
          "midi": 40,
          "time": 242.63489249999827,
          "velocity": 0.47244094488188976,
          "duration": 0.1959457499999928
        },
        {
          "name": "E4",
          "midi": 64,
          "time": 242.83759499999826,
          "velocity": 0.47244094488188976,
          "duration": 0.3986482500000079
        },
        {
          "name": "C#4",
          "midi": 61,
          "time": 242.83759499999826,
          "velocity": 0.47244094488188976,
          "duration": 0.3986482500000079
        },
        {
          "name": "A3",
          "midi": 57,
          "time": 242.83759499999826,
          "velocity": 0.47244094488188976,
          "duration": 0.3986482500000079
        },
        {
          "name": "E3",
          "midi": 52,
          "time": 242.83759499999826,
          "velocity": 0.47244094488188976,
          "duration": 0.3986482500000079
        },
        {
          "name": "A2",
          "midi": 45,
          "time": 242.83759499999826,
          "velocity": 0.47244094488188976,
          "duration": 0.3986482500000079
        },
        {
          "name": "E2",
          "midi": 40,
          "time": 242.83759499999826,
          "velocity": 0.47244094488188976,
          "duration": 0.3986482500000079
        },
        {
          "name": "E2",
          "midi": 40,
          "time": 243.24299999999826,
          "velocity": 0.47244094488188976,
          "duration": 0.3986482500000079
        },
        {
          "name": "B2",
          "midi": 47,
          "time": 243.24299999999826,
          "velocity": 0.47244094488188976,
          "duration": 0.3986482500000079
        },
        {
          "name": "E3",
          "midi": 52,
          "time": 243.24299999999826,
          "velocity": 0.47244094488188976,
          "duration": 0.3986482500000079
        },
        {
          "name": "G#3",
          "midi": 56,
          "time": 243.24299999999826,
          "velocity": 0.47244094488188976,
          "duration": 0.3986482500000079
        },
        {
          "name": "B3",
          "midi": 59,
          "time": 243.24299999999826,
          "velocity": 0.47244094488188976,
          "duration": 0.3986482500000079
        },
        {
          "name": "E4",
          "midi": 64,
          "time": 243.24299999999826,
          "velocity": 0.47244094488188976,
          "duration": 0.3986482500000079
        },
        {
          "name": "E4",
          "midi": 64,
          "time": 243.64840499999826,
          "velocity": 0.47244094488188976,
          "duration": 0.1959457499999928
        },
        {
          "name": "B3",
          "midi": 59,
          "time": 243.64840499999826,
          "velocity": 0.47244094488188976,
          "duration": 0.1959457499999928
        },
        {
          "name": "G#3",
          "midi": 56,
          "time": 243.64840499999826,
          "velocity": 0.47244094488188976,
          "duration": 0.1959457499999928
        },
        {
          "name": "E3",
          "midi": 52,
          "time": 243.64840499999826,
          "velocity": 0.47244094488188976,
          "duration": 0.1959457499999928
        },
        {
          "name": "B2",
          "midi": 47,
          "time": 243.64840499999826,
          "velocity": 0.47244094488188976,
          "duration": 0.1959457499999928
        },
        {
          "name": "E2",
          "midi": 40,
          "time": 243.64840499999826,
          "velocity": 0.47244094488188976,
          "duration": 0.1959457499999928
        },
        {
          "name": "E4",
          "midi": 64,
          "time": 243.85110749999825,
          "velocity": 0.47244094488188976,
          "duration": 0.1959457499999928
        },
        {
          "name": "B3",
          "midi": 59,
          "time": 243.85110749999825,
          "velocity": 0.47244094488188976,
          "duration": 0.1959457499999928
        },
        {
          "name": "G#3",
          "midi": 56,
          "time": 243.85110749999825,
          "velocity": 0.47244094488188976,
          "duration": 0.1959457499999928
        },
        {
          "name": "E3",
          "midi": 52,
          "time": 243.85110749999825,
          "velocity": 0.47244094488188976,
          "duration": 0.1959457499999928
        },
        {
          "name": "B2",
          "midi": 47,
          "time": 243.85110749999825,
          "velocity": 0.47244094488188976,
          "duration": 0.1959457499999928
        },
        {
          "name": "E2",
          "midi": 40,
          "time": 243.85110749999825,
          "velocity": 0.47244094488188976,
          "duration": 0.1959457499999928
        },
        {
          "name": "E4",
          "midi": 64,
          "time": 244.05380999999824,
          "velocity": 0.47244094488188976,
          "duration": 0.3986482500000079
        },
        {
          "name": "B3",
          "midi": 59,
          "time": 244.05380999999824,
          "velocity": 0.47244094488188976,
          "duration": 0.3986482500000079
        },
        {
          "name": "G#3",
          "midi": 56,
          "time": 244.05380999999824,
          "velocity": 0.47244094488188976,
          "duration": 0.3986482500000079
        },
        {
          "name": "E3",
          "midi": 52,
          "time": 244.05380999999824,
          "velocity": 0.47244094488188976,
          "duration": 0.3986482500000079
        },
        {
          "name": "B2",
          "midi": 47,
          "time": 244.05380999999824,
          "velocity": 0.47244094488188976,
          "duration": 0.3986482500000079
        },
        {
          "name": "E2",
          "midi": 40,
          "time": 244.05380999999824,
          "velocity": 0.47244094488188976,
          "duration": 0.3986482500000079
        },
        {
          "name": "E4",
          "midi": 64,
          "time": 244.45921499999824,
          "velocity": 0.47244094488188976,
          "duration": 0.1959457499999928
        },
        {
          "name": "B3",
          "midi": 59,
          "time": 244.45921499999824,
          "velocity": 0.47244094488188976,
          "duration": 0.1959457499999928
        },
        {
          "name": "G#3",
          "midi": 56,
          "time": 244.45921499999824,
          "velocity": 0.47244094488188976,
          "duration": 0.1959457499999928
        },
        {
          "name": "E3",
          "midi": 52,
          "time": 244.45921499999824,
          "velocity": 0.47244094488188976,
          "duration": 0.1959457499999928
        },
        {
          "name": "B2",
          "midi": 47,
          "time": 244.45921499999824,
          "velocity": 0.47244094488188976,
          "duration": 0.1959457499999928
        },
        {
          "name": "E2",
          "midi": 40,
          "time": 244.45921499999824,
          "velocity": 0.47244094488188976,
          "duration": 0.1959457499999928
        },
        {
          "name": "E4",
          "midi": 64,
          "time": 244.66191749999822,
          "velocity": 0.47244094488188976,
          "duration": 0.1959457499999928
        },
        {
          "name": "B3",
          "midi": 59,
          "time": 244.66191749999822,
          "velocity": 0.47244094488188976,
          "duration": 0.1959457499999928
        },
        {
          "name": "G#3",
          "midi": 56,
          "time": 244.66191749999822,
          "velocity": 0.47244094488188976,
          "duration": 0.1959457499999928
        },
        {
          "name": "E3",
          "midi": 52,
          "time": 244.66191749999822,
          "velocity": 0.47244094488188976,
          "duration": 0.1959457499999928
        },
        {
          "name": "B2",
          "midi": 47,
          "time": 244.66191749999822,
          "velocity": 0.47244094488188976,
          "duration": 0.1959457499999928
        },
        {
          "name": "E2",
          "midi": 40,
          "time": 244.66191749999822,
          "velocity": 0.47244094488188976,
          "duration": 0.1959457499999928
        },
        {
          "name": "E4",
          "midi": 64,
          "time": 244.8646199999982,
          "velocity": 0.47244094488188976,
          "duration": 1.6148632500000133
        },
        {
          "name": "B3",
          "midi": 59,
          "time": 244.8646199999982,
          "velocity": 0.47244094488188976,
          "duration": 1.6148632500000133
        },
        {
          "name": "G#3",
          "midi": 56,
          "time": 244.8646199999982,
          "velocity": 0.47244094488188976,
          "duration": 1.6148632500000133
        },
        {
          "name": "E3",
          "midi": 52,
          "time": 244.8646199999982,
          "velocity": 0.47244094488188976,
          "duration": 1.6148632500000133
        },
        {
          "name": "B2",
          "midi": 47,
          "time": 244.8646199999982,
          "velocity": 0.47244094488188976,
          "duration": 1.6148632500000133
        },
        {
          "name": "E2",
          "midi": 40,
          "time": 244.8646199999982,
          "velocity": 0.47244094488188976,
          "duration": 1.6148632500000133
        },
        {
          "name": "G2",
          "midi": 43,
          "time": 246.48623999999822,
          "velocity": 0.47244094488188976,
          "duration": 0.3986482500000079
        },
        {
          "name": "D3",
          "midi": 50,
          "time": 246.48623999999822,
          "velocity": 0.47244094488188976,
          "duration": 0.3986482500000079
        },
        {
          "name": "G3",
          "midi": 55,
          "time": 246.48623999999822,
          "velocity": 0.47244094488188976,
          "duration": 0.3986482500000079
        },
        {
          "name": "B3",
          "midi": 59,
          "time": 246.48623999999822,
          "velocity": 0.47244094488188976,
          "duration": 0.3986482500000079
        },
        {
          "name": "D4",
          "midi": 62,
          "time": 246.48623999999822,
          "velocity": 0.47244094488188976,
          "duration": 0.3986482500000079
        },
        {
          "name": "G4",
          "midi": 67,
          "time": 246.48623999999822,
          "velocity": 0.47244094488188976,
          "duration": 0.3986482500000079
        },
        {
          "name": "G4",
          "midi": 67,
          "time": 246.89164499999822,
          "velocity": 0.47244094488188976,
          "duration": 0.1959457499999928
        },
        {
          "name": "D4",
          "midi": 62,
          "time": 246.89164499999822,
          "velocity": 0.47244094488188976,
          "duration": 0.1959457499999928
        },
        {
          "name": "B3",
          "midi": 59,
          "time": 246.89164499999822,
          "velocity": 0.47244094488188976,
          "duration": 0.1959457499999928
        },
        {
          "name": "G3",
          "midi": 55,
          "time": 246.89164499999822,
          "velocity": 0.47244094488188976,
          "duration": 0.1959457499999928
        },
        {
          "name": "D3",
          "midi": 50,
          "time": 246.89164499999822,
          "velocity": 0.47244094488188976,
          "duration": 0.1959457499999928
        },
        {
          "name": "G2",
          "midi": 43,
          "time": 246.89164499999822,
          "velocity": 0.47244094488188976,
          "duration": 0.1959457499999928
        },
        {
          "name": "G4",
          "midi": 67,
          "time": 247.0943474999982,
          "velocity": 0.47244094488188976,
          "duration": 0.1959457499999928
        },
        {
          "name": "D4",
          "midi": 62,
          "time": 247.0943474999982,
          "velocity": 0.47244094488188976,
          "duration": 0.1959457499999928
        },
        {
          "name": "B3",
          "midi": 59,
          "time": 247.0943474999982,
          "velocity": 0.47244094488188976,
          "duration": 0.1959457499999928
        },
        {
          "name": "G3",
          "midi": 55,
          "time": 247.0943474999982,
          "velocity": 0.47244094488188976,
          "duration": 0.1959457499999928
        },
        {
          "name": "D3",
          "midi": 50,
          "time": 247.0943474999982,
          "velocity": 0.47244094488188976,
          "duration": 0.1959457499999928
        },
        {
          "name": "G2",
          "midi": 43,
          "time": 247.0943474999982,
          "velocity": 0.47244094488188976,
          "duration": 0.1959457499999928
        },
        {
          "name": "G4",
          "midi": 67,
          "time": 247.2970499999982,
          "velocity": 0.47244094488188976,
          "duration": 0.3986482500000079
        },
        {
          "name": "D4",
          "midi": 62,
          "time": 247.2970499999982,
          "velocity": 0.47244094488188976,
          "duration": 0.3986482500000079
        },
        {
          "name": "B3",
          "midi": 59,
          "time": 247.2970499999982,
          "velocity": 0.47244094488188976,
          "duration": 0.3986482500000079
        },
        {
          "name": "G3",
          "midi": 55,
          "time": 247.2970499999982,
          "velocity": 0.47244094488188976,
          "duration": 0.3986482500000079
        },
        {
          "name": "D3",
          "midi": 50,
          "time": 247.2970499999982,
          "velocity": 0.47244094488188976,
          "duration": 0.3986482500000079
        },
        {
          "name": "G2",
          "midi": 43,
          "time": 247.2970499999982,
          "velocity": 0.47244094488188976,
          "duration": 0.3986482500000079
        },
        {
          "name": "G4",
          "midi": 67,
          "time": 247.7024549999982,
          "velocity": 0.47244094488188976,
          "duration": 0.1959457499999928
        },
        {
          "name": "D4",
          "midi": 62,
          "time": 247.7024549999982,
          "velocity": 0.47244094488188976,
          "duration": 0.1959457499999928
        },
        {
          "name": "B3",
          "midi": 59,
          "time": 247.7024549999982,
          "velocity": 0.47244094488188976,
          "duration": 0.1959457499999928
        },
        {
          "name": "G3",
          "midi": 55,
          "time": 247.7024549999982,
          "velocity": 0.47244094488188976,
          "duration": 0.1959457499999928
        },
        {
          "name": "D3",
          "midi": 50,
          "time": 247.7024549999982,
          "velocity": 0.47244094488188976,
          "duration": 0.1959457499999928
        },
        {
          "name": "G2",
          "midi": 43,
          "time": 247.7024549999982,
          "velocity": 0.47244094488188976,
          "duration": 0.1959457499999928
        },
        {
          "name": "G4",
          "midi": 67,
          "time": 247.90515749999818,
          "velocity": 0.47244094488188976,
          "duration": 0.1959457499999928
        },
        {
          "name": "D4",
          "midi": 62,
          "time": 247.90515749999818,
          "velocity": 0.47244094488188976,
          "duration": 0.1959457499999928
        },
        {
          "name": "B3",
          "midi": 59,
          "time": 247.90515749999818,
          "velocity": 0.47244094488188976,
          "duration": 0.1959457499999928
        },
        {
          "name": "G3",
          "midi": 55,
          "time": 247.90515749999818,
          "velocity": 0.47244094488188976,
          "duration": 0.1959457499999928
        },
        {
          "name": "D3",
          "midi": 50,
          "time": 247.90515749999818,
          "velocity": 0.47244094488188976,
          "duration": 0.1959457499999928
        },
        {
          "name": "G2",
          "midi": 43,
          "time": 247.90515749999818,
          "velocity": 0.47244094488188976,
          "duration": 0.1959457499999928
        },
        {
          "name": "G4",
          "midi": 67,
          "time": 248.10785999999817,
          "velocity": 0.47244094488188976,
          "duration": 0.1959457499999928
        },
        {
          "name": "D4",
          "midi": 62,
          "time": 248.10785999999817,
          "velocity": 0.47244094488188976,
          "duration": 0.1959457499999928
        },
        {
          "name": "B3",
          "midi": 59,
          "time": 248.10785999999817,
          "velocity": 0.47244094488188976,
          "duration": 0.1959457499999928
        },
        {
          "name": "G3",
          "midi": 55,
          "time": 248.10785999999817,
          "velocity": 0.47244094488188976,
          "duration": 0.1959457499999928
        },
        {
          "name": "D3",
          "midi": 50,
          "time": 248.10785999999817,
          "velocity": 0.47244094488188976,
          "duration": 0.1959457499999928
        },
        {
          "name": "G2",
          "midi": 43,
          "time": 248.10785999999817,
          "velocity": 0.47244094488188976,
          "duration": 0.1959457499999928
        },
        {
          "name": "G4",
          "midi": 67,
          "time": 248.31056249999816,
          "velocity": 0.47244094488188976,
          "duration": 0.1959457499999928
        },
        {
          "name": "D4",
          "midi": 62,
          "time": 248.31056249999816,
          "velocity": 0.47244094488188976,
          "duration": 0.1959457499999928
        },
        {
          "name": "B3",
          "midi": 59,
          "time": 248.31056249999816,
          "velocity": 0.47244094488188976,
          "duration": 0.1959457499999928
        },
        {
          "name": "G3",
          "midi": 55,
          "time": 248.31056249999816,
          "velocity": 0.47244094488188976,
          "duration": 0.1959457499999928
        },
        {
          "name": "D3",
          "midi": 50,
          "time": 248.31056249999816,
          "velocity": 0.47244094488188976,
          "duration": 0.1959457499999928
        },
        {
          "name": "G2",
          "midi": 43,
          "time": 248.31056249999816,
          "velocity": 0.47244094488188976,
          "duration": 0.1959457499999928
        },
        {
          "name": "G4",
          "midi": 67,
          "time": 248.51326499999814,
          "velocity": 0.47244094488188976,
          "duration": 0.1959457499999928
        },
        {
          "name": "D4",
          "midi": 62,
          "time": 248.51326499999814,
          "velocity": 0.47244094488188976,
          "duration": 0.1959457499999928
        },
        {
          "name": "B3",
          "midi": 59,
          "time": 248.51326499999814,
          "velocity": 0.47244094488188976,
          "duration": 0.1959457499999928
        },
        {
          "name": "G3",
          "midi": 55,
          "time": 248.51326499999814,
          "velocity": 0.47244094488188976,
          "duration": 0.1959457499999928
        },
        {
          "name": "D3",
          "midi": 50,
          "time": 248.51326499999814,
          "velocity": 0.47244094488188976,
          "duration": 0.1959457499999928
        },
        {
          "name": "G2",
          "midi": 43,
          "time": 248.51326499999814,
          "velocity": 0.47244094488188976,
          "duration": 0.1959457499999928
        },
        {
          "name": "G4",
          "midi": 67,
          "time": 248.71596749999813,
          "velocity": 0.47244094488188976,
          "duration": 0.3986482500000079
        },
        {
          "name": "D4",
          "midi": 62,
          "time": 248.71596749999813,
          "velocity": 0.47244094488188976,
          "duration": 0.3986482500000079
        },
        {
          "name": "B3",
          "midi": 59,
          "time": 248.71596749999813,
          "velocity": 0.47244094488188976,
          "duration": 0.3986482500000079
        },
        {
          "name": "G3",
          "midi": 55,
          "time": 248.71596749999813,
          "velocity": 0.47244094488188976,
          "duration": 0.3986482500000079
        },
        {
          "name": "D3",
          "midi": 50,
          "time": 248.71596749999813,
          "velocity": 0.47244094488188976,
          "duration": 0.3986482500000079
        },
        {
          "name": "G2",
          "midi": 43,
          "time": 248.71596749999813,
          "velocity": 0.47244094488188976,
          "duration": 0.3986482500000079
        },
        {
          "name": "G4",
          "midi": 67,
          "time": 249.12137249999813,
          "velocity": 0.47244094488188976,
          "duration": 0.1959457499999928
        },
        {
          "name": "D4",
          "midi": 62,
          "time": 249.12137249999813,
          "velocity": 0.47244094488188976,
          "duration": 0.1959457499999928
        },
        {
          "name": "B3",
          "midi": 59,
          "time": 249.12137249999813,
          "velocity": 0.47244094488188976,
          "duration": 0.1959457499999928
        },
        {
          "name": "G3",
          "midi": 55,
          "time": 249.12137249999813,
          "velocity": 0.47244094488188976,
          "duration": 0.1959457499999928
        },
        {
          "name": "D3",
          "midi": 50,
          "time": 249.12137249999813,
          "velocity": 0.47244094488188976,
          "duration": 0.1959457499999928
        },
        {
          "name": "G2",
          "midi": 43,
          "time": 249.12137249999813,
          "velocity": 0.47244094488188976,
          "duration": 0.1959457499999928
        },
        {
          "name": "G4",
          "midi": 67,
          "time": 249.32407499999812,
          "velocity": 0.47244094488188976,
          "duration": 0.3986482500000079
        },
        {
          "name": "D4",
          "midi": 62,
          "time": 249.32407499999812,
          "velocity": 0.47244094488188976,
          "duration": 0.3986482500000079
        },
        {
          "name": "B3",
          "midi": 59,
          "time": 249.32407499999812,
          "velocity": 0.47244094488188976,
          "duration": 0.3986482500000079
        },
        {
          "name": "G3",
          "midi": 55,
          "time": 249.32407499999812,
          "velocity": 0.47244094488188976,
          "duration": 0.3986482500000079
        },
        {
          "name": "D3",
          "midi": 50,
          "time": 249.32407499999812,
          "velocity": 0.47244094488188976,
          "duration": 0.3986482500000079
        },
        {
          "name": "G2",
          "midi": 43,
          "time": 249.32407499999812,
          "velocity": 0.47244094488188976,
          "duration": 0.3986482500000079
        },
        {
          "name": "A2",
          "midi": 45,
          "time": 249.72947999999812,
          "velocity": 0.47244094488188976,
          "duration": 0.3986482500000079
        },
        {
          "name": "D3",
          "midi": 50,
          "time": 249.72947999999812,
          "velocity": 0.47244094488188976,
          "duration": 0.3986482500000079
        },
        {
          "name": "A3",
          "midi": 57,
          "time": 249.72947999999812,
          "velocity": 0.47244094488188976,
          "duration": 0.3986482500000079
        },
        {
          "name": "D4",
          "midi": 62,
          "time": 249.72947999999812,
          "velocity": 0.47244094488188976,
          "duration": 0.3986482500000079
        },
        {
          "name": "F#4",
          "midi": 66,
          "time": 249.72947999999812,
          "velocity": 0.47244094488188976,
          "duration": 0.3986482500000079
        },
        {
          "name": "A4",
          "midi": 69,
          "time": 249.72947999999812,
          "velocity": 0.47244094488188976,
          "duration": 0.3986482500000079
        },
        {
          "name": "A4",
          "midi": 69,
          "time": 250.13488499999812,
          "velocity": 0.47244094488188976,
          "duration": 0.1959457499999928
        },
        {
          "name": "F#4",
          "midi": 66,
          "time": 250.13488499999812,
          "velocity": 0.47244094488188976,
          "duration": 0.1959457499999928
        },
        {
          "name": "D4",
          "midi": 62,
          "time": 250.13488499999812,
          "velocity": 0.47244094488188976,
          "duration": 0.1959457499999928
        },
        {
          "name": "A3",
          "midi": 57,
          "time": 250.13488499999812,
          "velocity": 0.47244094488188976,
          "duration": 0.1959457499999928
        },
        {
          "name": "D3",
          "midi": 50,
          "time": 250.13488499999812,
          "velocity": 0.47244094488188976,
          "duration": 0.1959457499999928
        },
        {
          "name": "A2",
          "midi": 45,
          "time": 250.13488499999812,
          "velocity": 0.47244094488188976,
          "duration": 0.1959457499999928
        },
        {
          "name": "A4",
          "midi": 69,
          "time": 250.3375874999981,
          "velocity": 0.47244094488188976,
          "duration": 0.1959457499999928
        },
        {
          "name": "F#4",
          "midi": 66,
          "time": 250.3375874999981,
          "velocity": 0.47244094488188976,
          "duration": 0.1959457499999928
        },
        {
          "name": "D4",
          "midi": 62,
          "time": 250.3375874999981,
          "velocity": 0.47244094488188976,
          "duration": 0.1959457499999928
        },
        {
          "name": "A3",
          "midi": 57,
          "time": 250.3375874999981,
          "velocity": 0.47244094488188976,
          "duration": 0.1959457499999928
        },
        {
          "name": "D3",
          "midi": 50,
          "time": 250.3375874999981,
          "velocity": 0.47244094488188976,
          "duration": 0.1959457499999928
        },
        {
          "name": "A2",
          "midi": 45,
          "time": 250.3375874999981,
          "velocity": 0.47244094488188976,
          "duration": 0.1959457499999928
        },
        {
          "name": "A4",
          "midi": 69,
          "time": 250.5402899999981,
          "velocity": 0.47244094488188976,
          "duration": 0.1959457499999928
        },
        {
          "name": "F#4",
          "midi": 66,
          "time": 250.5402899999981,
          "velocity": 0.47244094488188976,
          "duration": 0.1959457499999928
        },
        {
          "name": "D4",
          "midi": 62,
          "time": 250.5402899999981,
          "velocity": 0.47244094488188976,
          "duration": 0.1959457499999928
        },
        {
          "name": "A3",
          "midi": 57,
          "time": 250.5402899999981,
          "velocity": 0.47244094488188976,
          "duration": 0.1959457499999928
        },
        {
          "name": "D3",
          "midi": 50,
          "time": 250.5402899999981,
          "velocity": 0.47244094488188976,
          "duration": 0.1959457499999928
        },
        {
          "name": "A2",
          "midi": 45,
          "time": 250.5402899999981,
          "velocity": 0.47244094488188976,
          "duration": 0.1959457499999928
        },
        {
          "name": "A4",
          "midi": 69,
          "time": 250.74299249999808,
          "velocity": 0.47244094488188976,
          "duration": 0.3986482500000079
        },
        {
          "name": "F#4",
          "midi": 66,
          "time": 250.74299249999808,
          "velocity": 0.47244094488188976,
          "duration": 0.3986482500000079
        },
        {
          "name": "D4",
          "midi": 62,
          "time": 250.74299249999808,
          "velocity": 0.47244094488188976,
          "duration": 0.3986482500000079
        },
        {
          "name": "A3",
          "midi": 57,
          "time": 250.74299249999808,
          "velocity": 0.47244094488188976,
          "duration": 0.3986482500000079
        },
        {
          "name": "D3",
          "midi": 50,
          "time": 250.74299249999808,
          "velocity": 0.47244094488188976,
          "duration": 0.3986482500000079
        },
        {
          "name": "A2",
          "midi": 45,
          "time": 250.74299249999808,
          "velocity": 0.47244094488188976,
          "duration": 0.3986482500000079
        },
        {
          "name": "A4",
          "midi": 69,
          "time": 251.14839749999808,
          "velocity": 0.47244094488188976,
          "duration": 0.1959457499999928
        },
        {
          "name": "F#4",
          "midi": 66,
          "time": 251.14839749999808,
          "velocity": 0.47244094488188976,
          "duration": 0.1959457499999928
        },
        {
          "name": "D4",
          "midi": 62,
          "time": 251.14839749999808,
          "velocity": 0.47244094488188976,
          "duration": 0.1959457499999928
        },
        {
          "name": "A3",
          "midi": 57,
          "time": 251.14839749999808,
          "velocity": 0.47244094488188976,
          "duration": 0.1959457499999928
        },
        {
          "name": "D3",
          "midi": 50,
          "time": 251.14839749999808,
          "velocity": 0.47244094488188976,
          "duration": 0.1959457499999928
        },
        {
          "name": "A2",
          "midi": 45,
          "time": 251.14839749999808,
          "velocity": 0.47244094488188976,
          "duration": 0.1959457499999928
        },
        {
          "name": "A4",
          "midi": 69,
          "time": 251.35109999999807,
          "velocity": 0.47244094488188976,
          "duration": 1.6148632500000133
        },
        {
          "name": "F#4",
          "midi": 66,
          "time": 251.35109999999807,
          "velocity": 0.47244094488188976,
          "duration": 1.6148632500000133
        },
        {
          "name": "D4",
          "midi": 62,
          "time": 251.35109999999807,
          "velocity": 0.47244094488188976,
          "duration": 1.6148632500000133
        },
        {
          "name": "A3",
          "midi": 57,
          "time": 251.35109999999807,
          "velocity": 0.47244094488188976,
          "duration": 1.6148632500000133
        },
        {
          "name": "D3",
          "midi": 50,
          "time": 251.35109999999807,
          "velocity": 0.47244094488188976,
          "duration": 1.6148632500000133
        },
        {
          "name": "A2",
          "midi": 45,
          "time": 251.35109999999807,
          "velocity": 0.47244094488188976,
          "duration": 1.6148632500000133
        },
        {
          "name": "E2",
          "midi": 40,
          "time": 252.97271999999808,
          "velocity": 0.47244094488188976,
          "duration": 0.3986482500000079
        },
        {
          "name": "B2",
          "midi": 47,
          "time": 252.97271999999808,
          "velocity": 0.47244094488188976,
          "duration": 0.3986482500000079
        },
        {
          "name": "E3",
          "midi": 52,
          "time": 252.97271999999808,
          "velocity": 0.47244094488188976,
          "duration": 0.3986482500000079
        },
        {
          "name": "G3",
          "midi": 55,
          "time": 252.97271999999808,
          "velocity": 0.47244094488188976,
          "duration": 0.3986482500000079
        },
        {
          "name": "B3",
          "midi": 59,
          "time": 252.97271999999808,
          "velocity": 0.47244094488188976,
          "duration": 0.3986482500000079
        },
        {
          "name": "E4",
          "midi": 64,
          "time": 252.97271999999808,
          "velocity": 0.47244094488188976,
          "duration": 0.3986482500000079
        },
        {
          "name": "E4",
          "midi": 64,
          "time": 253.37812499999808,
          "velocity": 0.47244094488188976,
          "duration": 0.1959457499999928
        },
        {
          "name": "B3",
          "midi": 59,
          "time": 253.37812499999808,
          "velocity": 0.47244094488188976,
          "duration": 0.1959457499999928
        },
        {
          "name": "G3",
          "midi": 55,
          "time": 253.37812499999808,
          "velocity": 0.47244094488188976,
          "duration": 0.1959457499999928
        },
        {
          "name": "E3",
          "midi": 52,
          "time": 253.37812499999808,
          "velocity": 0.47244094488188976,
          "duration": 0.1959457499999928
        },
        {
          "name": "B2",
          "midi": 47,
          "time": 253.37812499999808,
          "velocity": 0.47244094488188976,
          "duration": 0.1959457499999928
        },
        {
          "name": "E2",
          "midi": 40,
          "time": 253.37812499999808,
          "velocity": 0.47244094488188976,
          "duration": 0.1959457499999928
        },
        {
          "name": "E4",
          "midi": 64,
          "time": 253.58082749999807,
          "velocity": 0.47244094488188976,
          "duration": 0.1959457499999928
        },
        {
          "name": "B3",
          "midi": 59,
          "time": 253.58082749999807,
          "velocity": 0.47244094488188976,
          "duration": 0.1959457499999928
        },
        {
          "name": "G3",
          "midi": 55,
          "time": 253.58082749999807,
          "velocity": 0.47244094488188976,
          "duration": 0.1959457499999928
        },
        {
          "name": "E3",
          "midi": 52,
          "time": 253.58082749999807,
          "velocity": 0.47244094488188976,
          "duration": 0.1959457499999928
        },
        {
          "name": "B2",
          "midi": 47,
          "time": 253.58082749999807,
          "velocity": 0.47244094488188976,
          "duration": 0.1959457499999928
        },
        {
          "name": "E2",
          "midi": 40,
          "time": 253.58082749999807,
          "velocity": 0.47244094488188976,
          "duration": 0.1959457499999928
        },
        {
          "name": "E4",
          "midi": 64,
          "time": 253.78352999999805,
          "velocity": 0.47244094488188976,
          "duration": 0.1959457499999928
        },
        {
          "name": "B3",
          "midi": 59,
          "time": 253.78352999999805,
          "velocity": 0.47244094488188976,
          "duration": 0.1959457499999928
        },
        {
          "name": "G3",
          "midi": 55,
          "time": 253.78352999999805,
          "velocity": 0.47244094488188976,
          "duration": 0.1959457499999928
        },
        {
          "name": "E3",
          "midi": 52,
          "time": 253.78352999999805,
          "velocity": 0.47244094488188976,
          "duration": 0.1959457499999928
        },
        {
          "name": "B2",
          "midi": 47,
          "time": 253.78352999999805,
          "velocity": 0.47244094488188976,
          "duration": 0.1959457499999928
        },
        {
          "name": "E2",
          "midi": 40,
          "time": 253.78352999999805,
          "velocity": 0.47244094488188976,
          "duration": 0.1959457499999928
        },
        {
          "name": "E4",
          "midi": 64,
          "time": 253.98623249999804,
          "velocity": 0.47244094488188976,
          "duration": 0.1959457499999928
        },
        {
          "name": "B3",
          "midi": 59,
          "time": 253.98623249999804,
          "velocity": 0.47244094488188976,
          "duration": 0.1959457499999928
        },
        {
          "name": "G3",
          "midi": 55,
          "time": 253.98623249999804,
          "velocity": 0.47244094488188976,
          "duration": 0.1959457499999928
        },
        {
          "name": "E3",
          "midi": 52,
          "time": 253.98623249999804,
          "velocity": 0.47244094488188976,
          "duration": 0.1959457499999928
        },
        {
          "name": "B2",
          "midi": 47,
          "time": 253.98623249999804,
          "velocity": 0.47244094488188976,
          "duration": 0.1959457499999928
        },
        {
          "name": "E2",
          "midi": 40,
          "time": 253.98623249999804,
          "velocity": 0.47244094488188976,
          "duration": 0.1959457499999928
        },
        {
          "name": "E4",
          "midi": 64,
          "time": 254.18893499999803,
          "velocity": 0.47244094488188976,
          "duration": 0.3986482500000079
        },
        {
          "name": "B3",
          "midi": 59,
          "time": 254.18893499999803,
          "velocity": 0.47244094488188976,
          "duration": 0.3986482500000079
        },
        {
          "name": "G3",
          "midi": 55,
          "time": 254.18893499999803,
          "velocity": 0.47244094488188976,
          "duration": 0.3986482500000079
        },
        {
          "name": "E3",
          "midi": 52,
          "time": 254.18893499999803,
          "velocity": 0.47244094488188976,
          "duration": 0.3986482500000079
        },
        {
          "name": "B2",
          "midi": 47,
          "time": 254.18893499999803,
          "velocity": 0.47244094488188976,
          "duration": 0.3986482500000079
        },
        {
          "name": "E2",
          "midi": 40,
          "time": 254.18893499999803,
          "velocity": 0.47244094488188976,
          "duration": 0.3986482500000079
        },
        {
          "name": "E4",
          "midi": 64,
          "time": 254.59433999999803,
          "velocity": 0.47244094488188976,
          "duration": 0.3986482500000079
        },
        {
          "name": "B3",
          "midi": 59,
          "time": 254.59433999999803,
          "velocity": 0.47244094488188976,
          "duration": 0.3986482500000079
        },
        {
          "name": "G3",
          "midi": 55,
          "time": 254.59433999999803,
          "velocity": 0.47244094488188976,
          "duration": 0.3986482500000079
        },
        {
          "name": "E3",
          "midi": 52,
          "time": 254.59433999999803,
          "velocity": 0.47244094488188976,
          "duration": 0.3986482500000079
        },
        {
          "name": "B2",
          "midi": 47,
          "time": 254.59433999999803,
          "velocity": 0.47244094488188976,
          "duration": 0.3986482500000079
        },
        {
          "name": "E2",
          "midi": 40,
          "time": 254.59433999999803,
          "velocity": 0.47244094488188976,
          "duration": 0.3986482500000079
        },
        {
          "name": "E4",
          "midi": 64,
          "time": 254.99974499999803,
          "velocity": 0.47244094488188976,
          "duration": 0.3986482500000079
        },
        {
          "name": "B3",
          "midi": 59,
          "time": 254.99974499999803,
          "velocity": 0.47244094488188976,
          "duration": 0.3986482500000079
        },
        {
          "name": "G3",
          "midi": 55,
          "time": 254.99974499999803,
          "velocity": 0.47244094488188976,
          "duration": 0.3986482500000079
        },
        {
          "name": "E3",
          "midi": 52,
          "time": 254.99974499999803,
          "velocity": 0.47244094488188976,
          "duration": 0.3986482500000079
        },
        {
          "name": "B2",
          "midi": 47,
          "time": 254.99974499999803,
          "velocity": 0.47244094488188976,
          "duration": 0.3986482500000079
        },
        {
          "name": "E2",
          "midi": 40,
          "time": 254.99974499999803,
          "velocity": 0.47244094488188976,
          "duration": 0.3986482500000079
        },
        {
          "name": "E4",
          "midi": 64,
          "time": 255.40514999999803,
          "velocity": 0.47244094488188976,
          "duration": 0.1959457499999928
        },
        {
          "name": "B3",
          "midi": 59,
          "time": 255.40514999999803,
          "velocity": 0.47244094488188976,
          "duration": 0.1959457499999928
        },
        {
          "name": "G3",
          "midi": 55,
          "time": 255.40514999999803,
          "velocity": 0.47244094488188976,
          "duration": 0.1959457499999928
        },
        {
          "name": "E3",
          "midi": 52,
          "time": 255.40514999999803,
          "velocity": 0.47244094488188976,
          "duration": 0.1959457499999928
        },
        {
          "name": "B2",
          "midi": 47,
          "time": 255.40514999999803,
          "velocity": 0.47244094488188976,
          "duration": 0.1959457499999928
        },
        {
          "name": "E2",
          "midi": 40,
          "time": 255.40514999999803,
          "velocity": 0.47244094488188976,
          "duration": 0.1959457499999928
        },
        {
          "name": "E4",
          "midi": 64,
          "time": 255.60785249999802,
          "velocity": 0.47244094488188976,
          "duration": 0.1959457499999928
        },
        {
          "name": "B3",
          "midi": 59,
          "time": 255.60785249999802,
          "velocity": 0.47244094488188976,
          "duration": 0.1959457499999928
        },
        {
          "name": "G3",
          "midi": 55,
          "time": 255.60785249999802,
          "velocity": 0.47244094488188976,
          "duration": 0.1959457499999928
        },
        {
          "name": "E3",
          "midi": 52,
          "time": 255.60785249999802,
          "velocity": 0.47244094488188976,
          "duration": 0.1959457499999928
        },
        {
          "name": "B2",
          "midi": 47,
          "time": 255.60785249999802,
          "velocity": 0.47244094488188976,
          "duration": 0.1959457499999928
        },
        {
          "name": "E2",
          "midi": 40,
          "time": 255.60785249999802,
          "velocity": 0.47244094488188976,
          "duration": 0.1959457499999928
        },
        {
          "name": "E4",
          "midi": 64,
          "time": 255.810554999998,
          "velocity": 0.47244094488188976,
          "duration": 0.3986482499999795
        },
        {
          "name": "B3",
          "midi": 59,
          "time": 255.810554999998,
          "velocity": 0.47244094488188976,
          "duration": 0.3986482499999795
        },
        {
          "name": "G3",
          "midi": 55,
          "time": 255.810554999998,
          "velocity": 0.47244094488188976,
          "duration": 0.3986482499999795
        },
        {
          "name": "E3",
          "midi": 52,
          "time": 255.810554999998,
          "velocity": 0.47244094488188976,
          "duration": 0.3986482499999795
        },
        {
          "name": "B2",
          "midi": 47,
          "time": 255.810554999998,
          "velocity": 0.47244094488188976,
          "duration": 0.3986482499999795
        },
        {
          "name": "E2",
          "midi": 40,
          "time": 255.810554999998,
          "velocity": 0.47244094488188976,
          "duration": 0.3986482499999795
        },
        {
          "name": "F#2",
          "midi": 42,
          "time": 256.215959999998,
          "velocity": 0.47244094488188976,
          "duration": 0.3986482500000079
        },
        {
          "name": "C#3",
          "midi": 49,
          "time": 256.215959999998,
          "velocity": 0.47244094488188976,
          "duration": 0.3986482500000079
        },
        {
          "name": "F#3",
          "midi": 54,
          "time": 256.215959999998,
          "velocity": 0.47244094488188976,
          "duration": 0.3986482500000079
        },
        {
          "name": "A#3",
          "midi": 58,
          "time": 256.215959999998,
          "velocity": 0.47244094488188976,
          "duration": 0.3986482500000079
        },
        {
          "name": "C#4",
          "midi": 61,
          "time": 256.215959999998,
          "velocity": 0.47244094488188976,
          "duration": 0.3986482500000079
        },
        {
          "name": "F#4",
          "midi": 66,
          "time": 256.215959999998,
          "velocity": 0.47244094488188976,
          "duration": 0.3986482500000079
        },
        {
          "name": "F#4",
          "midi": 66,
          "time": 256.62136499999804,
          "velocity": 0.47244094488188976,
          "duration": 0.19594575000002123
        },
        {
          "name": "C#4",
          "midi": 61,
          "time": 256.62136499999804,
          "velocity": 0.47244094488188976,
          "duration": 0.19594575000002123
        },
        {
          "name": "A#3",
          "midi": 58,
          "time": 256.62136499999804,
          "velocity": 0.47244094488188976,
          "duration": 0.19594575000002123
        },
        {
          "name": "F#3",
          "midi": 54,
          "time": 256.62136499999804,
          "velocity": 0.47244094488188976,
          "duration": 0.19594575000002123
        },
        {
          "name": "C#3",
          "midi": 49,
          "time": 256.62136499999804,
          "velocity": 0.47244094488188976,
          "duration": 0.19594575000002123
        },
        {
          "name": "F#2",
          "midi": 42,
          "time": 256.62136499999804,
          "velocity": 0.47244094488188976,
          "duration": 0.19594575000002123
        },
        {
          "name": "F#4",
          "midi": 66,
          "time": 256.8240674999981,
          "velocity": 0.47244094488188976,
          "duration": 0.19594575000002123
        },
        {
          "name": "C#4",
          "midi": 61,
          "time": 256.8240674999981,
          "velocity": 0.47244094488188976,
          "duration": 0.19594575000002123
        },
        {
          "name": "A#3",
          "midi": 58,
          "time": 256.8240674999981,
          "velocity": 0.47244094488188976,
          "duration": 0.19594575000002123
        },
        {
          "name": "F#3",
          "midi": 54,
          "time": 256.8240674999981,
          "velocity": 0.47244094488188976,
          "duration": 0.19594575000002123
        },
        {
          "name": "C#3",
          "midi": 49,
          "time": 256.8240674999981,
          "velocity": 0.47244094488188976,
          "duration": 0.19594575000002123
        },
        {
          "name": "F#2",
          "midi": 42,
          "time": 256.8240674999981,
          "velocity": 0.47244094488188976,
          "duration": 0.19594575000002123
        },
        {
          "name": "F#4",
          "midi": 66,
          "time": 257.0267699999981,
          "velocity": 0.47244094488188976,
          "duration": 0.19594575000002123
        },
        {
          "name": "C#4",
          "midi": 61,
          "time": 257.0267699999981,
          "velocity": 0.47244094488188976,
          "duration": 0.19594575000002123
        },
        {
          "name": "A#3",
          "midi": 58,
          "time": 257.0267699999981,
          "velocity": 0.47244094488188976,
          "duration": 0.19594575000002123
        },
        {
          "name": "F#3",
          "midi": 54,
          "time": 257.0267699999981,
          "velocity": 0.47244094488188976,
          "duration": 0.19594575000002123
        },
        {
          "name": "C#3",
          "midi": 49,
          "time": 257.0267699999981,
          "velocity": 0.47244094488188976,
          "duration": 0.19594575000002123
        },
        {
          "name": "F#2",
          "midi": 42,
          "time": 257.0267699999981,
          "velocity": 0.47244094488188976,
          "duration": 0.19594575000002123
        },
        {
          "name": "F#4",
          "midi": 66,
          "time": 257.22947249999817,
          "velocity": 0.47244094488188976,
          "duration": 0.3986482500000079
        },
        {
          "name": "C#4",
          "midi": 61,
          "time": 257.22947249999817,
          "velocity": 0.47244094488188976,
          "duration": 0.3986482500000079
        },
        {
          "name": "A#3",
          "midi": 58,
          "time": 257.22947249999817,
          "velocity": 0.47244094488188976,
          "duration": 0.3986482500000079
        },
        {
          "name": "F#3",
          "midi": 54,
          "time": 257.22947249999817,
          "velocity": 0.47244094488188976,
          "duration": 0.3986482500000079
        },
        {
          "name": "C#3",
          "midi": 49,
          "time": 257.22947249999817,
          "velocity": 0.47244094488188976,
          "duration": 0.3986482500000079
        },
        {
          "name": "F#2",
          "midi": 42,
          "time": 257.22947249999817,
          "velocity": 0.47244094488188976,
          "duration": 0.3986482500000079
        },
        {
          "name": "F#4",
          "midi": 66,
          "time": 257.6348774999982,
          "velocity": 0.47244094488188976,
          "duration": 0.19594575000002123
        },
        {
          "name": "C#4",
          "midi": 61,
          "time": 257.6348774999982,
          "velocity": 0.47244094488188976,
          "duration": 0.19594575000002123
        },
        {
          "name": "A#3",
          "midi": 58,
          "time": 257.6348774999982,
          "velocity": 0.47244094488188976,
          "duration": 0.19594575000002123
        },
        {
          "name": "F#3",
          "midi": 54,
          "time": 257.6348774999982,
          "velocity": 0.47244094488188976,
          "duration": 0.19594575000002123
        },
        {
          "name": "C#3",
          "midi": 49,
          "time": 257.6348774999982,
          "velocity": 0.47244094488188976,
          "duration": 0.19594575000002123
        },
        {
          "name": "F#2",
          "midi": 42,
          "time": 257.6348774999982,
          "velocity": 0.47244094488188976,
          "duration": 0.19594575000002123
        },
        {
          "name": "F#4",
          "midi": 66,
          "time": 257.83757999999824,
          "velocity": 0.47244094488188976,
          "duration": 1.6148632499999849
        },
        {
          "name": "C#4",
          "midi": 61,
          "time": 257.83757999999824,
          "velocity": 0.47244094488188976,
          "duration": 1.6148632499999849
        },
        {
          "name": "A#3",
          "midi": 58,
          "time": 257.83757999999824,
          "velocity": 0.47244094488188976,
          "duration": 1.6148632499999849
        },
        {
          "name": "F#3",
          "midi": 54,
          "time": 257.83757999999824,
          "velocity": 0.47244094488188976,
          "duration": 1.6148632499999849
        },
        {
          "name": "C#3",
          "midi": 49,
          "time": 257.83757999999824,
          "velocity": 0.47244094488188976,
          "duration": 1.6148632499999849
        },
        {
          "name": "F#2",
          "midi": 42,
          "time": 257.83757999999824,
          "velocity": 0.47244094488188976,
          "duration": 1.6148632499999849
        },
        {
          "name": "D4",
          "midi": 62,
          "time": 259.45919999999825,
          "velocity": 0.47244094488188976,
          "duration": 0.19594575000002123
        },
        {
          "name": "B3",
          "midi": 59,
          "time": 259.45919999999825,
          "velocity": 0.47244094488188976,
          "duration": 0.19594575000002123
        },
        {
          "name": "F#2",
          "midi": 42,
          "time": 259.45919999999825,
          "velocity": 0.47244094488188976,
          "duration": 0.19594575000002123
        },
        {
          "name": "B2",
          "midi": 47,
          "time": 259.45919999999825,
          "velocity": 0.47244094488188976,
          "duration": 0.19594575000002123
        },
        {
          "name": "F#4",
          "midi": 66,
          "time": 259.45919999999825,
          "velocity": 0.47244094488188976,
          "duration": 0.19594575000002123
        },
        {
          "name": "F#3",
          "midi": 54,
          "time": 259.45919999999825,
          "velocity": 0.47244094488188976,
          "duration": 0.19594575000002123
        },
        {
          "name": "B3",
          "midi": 59,
          "time": 259.6619024999983,
          "velocity": 0.47244094488188976,
          "duration": 0.3986482500000079
        },
        {
          "name": "F#2",
          "midi": 42,
          "time": 259.6619024999983,
          "velocity": 0.47244094488188976,
          "duration": 0.3986482500000079
        },
        {
          "name": "D4",
          "midi": 62,
          "time": 259.6619024999983,
          "velocity": 0.47244094488188976,
          "duration": 0.3986482500000079
        },
        {
          "name": "F#3",
          "midi": 54,
          "time": 259.6619024999983,
          "velocity": 0.47244094488188976,
          "duration": 0.3986482500000079
        },
        {
          "name": "B2",
          "midi": 47,
          "time": 259.6619024999983,
          "velocity": 0.47244094488188976,
          "duration": 0.3986482500000079
        },
        {
          "name": "F#4",
          "midi": 66,
          "time": 259.6619024999983,
          "velocity": 0.47244094488188976,
          "duration": 0.3986482500000079
        },
        {
          "name": "B2",
          "midi": 47,
          "time": 260.0673074999983,
          "velocity": 0.47244094488188976,
          "duration": 0.19594575000002123
        },
        {
          "name": "F#2",
          "midi": 42,
          "time": 260.0673074999983,
          "velocity": 0.47244094488188976,
          "duration": 0.19594575000002123
        },
        {
          "name": "F#3",
          "midi": 54,
          "time": 260.0673074999983,
          "velocity": 0.47244094488188976,
          "duration": 0.19594575000002123
        },
        {
          "name": "B3",
          "midi": 59,
          "time": 260.0673074999983,
          "velocity": 0.47244094488188976,
          "duration": 0.19594575000002123
        },
        {
          "name": "F#4",
          "midi": 66,
          "time": 260.0673074999983,
          "velocity": 0.47244094488188976,
          "duration": 0.19594575000002123
        },
        {
          "name": "D4",
          "midi": 62,
          "time": 260.0673074999983,
          "velocity": 0.47244094488188976,
          "duration": 0.19594575000002123
        },
        {
          "name": "B3",
          "midi": 59,
          "time": 260.27000999999836,
          "velocity": 0.47244094488188976,
          "duration": 0.3986482500000079
        },
        {
          "name": "B2",
          "midi": 47,
          "time": 260.27000999999836,
          "velocity": 0.47244094488188976,
          "duration": 0.3986482500000079
        },
        {
          "name": "F#4",
          "midi": 66,
          "time": 260.27000999999836,
          "velocity": 0.47244094488188976,
          "duration": 0.3986482500000079
        },
        {
          "name": "F#3",
          "midi": 54,
          "time": 260.27000999999836,
          "velocity": 0.47244094488188976,
          "duration": 0.3986482500000079
        },
        {
          "name": "F#2",
          "midi": 42,
          "time": 260.27000999999836,
          "velocity": 0.47244094488188976,
          "duration": 0.3986482500000079
        },
        {
          "name": "D4",
          "midi": 62,
          "time": 260.27000999999836,
          "velocity": 0.47244094488188976,
          "duration": 0.3986482500000079
        },
        {
          "name": "F#2",
          "midi": 42,
          "time": 260.6754149999984,
          "velocity": 0.47244094488188976,
          "duration": 0.19594575000002123
        },
        {
          "name": "B3",
          "midi": 59,
          "time": 260.6754149999984,
          "velocity": 0.47244094488188976,
          "duration": 0.19594575000002123
        },
        {
          "name": "F#4",
          "midi": 66,
          "time": 260.6754149999984,
          "velocity": 0.47244094488188976,
          "duration": 0.19594575000002123
        },
        {
          "name": "F#3",
          "midi": 54,
          "time": 260.6754149999984,
          "velocity": 0.47244094488188976,
          "duration": 0.19594575000002123
        },
        {
          "name": "D4",
          "midi": 62,
          "time": 260.6754149999984,
          "velocity": 0.47244094488188976,
          "duration": 0.19594575000002123
        },
        {
          "name": "B2",
          "midi": 47,
          "time": 260.6754149999984,
          "velocity": 0.47244094488188976,
          "duration": 0.19594575000002123
        },
        {
          "name": "D4",
          "midi": 62,
          "time": 260.87811749999844,
          "velocity": 0.47244094488188976,
          "duration": 0.3986482500000079
        },
        {
          "name": "B2",
          "midi": 47,
          "time": 260.87811749999844,
          "velocity": 0.47244094488188976,
          "duration": 0.3986482500000079
        },
        {
          "name": "F#4",
          "midi": 66,
          "time": 260.87811749999844,
          "velocity": 0.47244094488188976,
          "duration": 0.3986482500000079
        },
        {
          "name": "F#2",
          "midi": 42,
          "time": 260.87811749999844,
          "velocity": 0.47244094488188976,
          "duration": 0.3986482500000079
        },
        {
          "name": "B3",
          "midi": 59,
          "time": 260.87811749999844,
          "velocity": 0.47244094488188976,
          "duration": 0.3986482500000079
        },
        {
          "name": "F#3",
          "midi": 54,
          "time": 260.87811749999844,
          "velocity": 0.47244094488188976,
          "duration": 0.3986482500000079
        },
        {
          "name": "F#4",
          "midi": 66,
          "time": 261.28352249999847,
          "velocity": 0.47244094488188976,
          "duration": 0.19594575000002123
        },
        {
          "name": "B3",
          "midi": 59,
          "time": 261.28352249999847,
          "velocity": 0.47244094488188976,
          "duration": 0.19594575000002123
        },
        {
          "name": "F#2",
          "midi": 42,
          "time": 261.28352249999847,
          "velocity": 0.47244094488188976,
          "duration": 0.19594575000002123
        },
        {
          "name": "D4",
          "midi": 62,
          "time": 261.28352249999847,
          "velocity": 0.47244094488188976,
          "duration": 0.19594575000002123
        },
        {
          "name": "F#3",
          "midi": 54,
          "time": 261.28352249999847,
          "velocity": 0.47244094488188976,
          "duration": 0.19594575000002123
        },
        {
          "name": "B2",
          "midi": 47,
          "time": 261.28352249999847,
          "velocity": 0.47244094488188976,
          "duration": 0.19594575000002123
        },
        {
          "name": "B3",
          "midi": 59,
          "time": 261.4862249999985,
          "velocity": 0.47244094488188976,
          "duration": 0.3986482500000079
        },
        {
          "name": "F#2",
          "midi": 42,
          "time": 261.4862249999985,
          "velocity": 0.47244094488188976,
          "duration": 0.3986482500000079
        },
        {
          "name": "F#3",
          "midi": 54,
          "time": 261.4862249999985,
          "velocity": 0.47244094488188976,
          "duration": 0.3986482500000079
        },
        {
          "name": "F#4",
          "midi": 66,
          "time": 261.4862249999985,
          "velocity": 0.47244094488188976,
          "duration": 0.3986482500000079
        },
        {
          "name": "D4",
          "midi": 62,
          "time": 261.4862249999985,
          "velocity": 0.47244094488188976,
          "duration": 0.3986482500000079
        },
        {
          "name": "B2",
          "midi": 47,
          "time": 261.4862249999985,
          "velocity": 0.47244094488188976,
          "duration": 0.3986482500000079
        },
        {
          "name": "B3",
          "midi": 59,
          "time": 261.89162999999854,
          "velocity": 0.47244094488188976,
          "duration": 0.3986482500000079
        },
        {
          "name": "D4",
          "midi": 62,
          "time": 261.89162999999854,
          "velocity": 0.47244094488188976,
          "duration": 0.3986482500000079
        },
        {
          "name": "B2",
          "midi": 47,
          "time": 261.89162999999854,
          "velocity": 0.47244094488188976,
          "duration": 0.3986482500000079
        },
        {
          "name": "F#4",
          "midi": 66,
          "time": 261.89162999999854,
          "velocity": 0.47244094488188976,
          "duration": 0.3986482500000079
        },
        {
          "name": "F#2",
          "midi": 42,
          "time": 261.89162999999854,
          "velocity": 0.47244094488188976,
          "duration": 0.3986482500000079
        },
        {
          "name": "F#3",
          "midi": 54,
          "time": 261.89162999999854,
          "velocity": 0.47244094488188976,
          "duration": 0.3986482500000079
        },
        {
          "name": "B2",
          "midi": 47,
          "time": 262.2970349999986,
          "velocity": 0.47244094488188976,
          "duration": 0.3986482500000079
        },
        {
          "name": "F#2",
          "midi": 42,
          "time": 262.2970349999986,
          "velocity": 0.47244094488188976,
          "duration": 0.3986482500000079
        },
        {
          "name": "B3",
          "midi": 59,
          "time": 262.2970349999986,
          "velocity": 0.47244094488188976,
          "duration": 0.3986482500000079
        },
        {
          "name": "F#4",
          "midi": 66,
          "time": 262.2970349999986,
          "velocity": 0.47244094488188976,
          "duration": 0.3986482500000079
        },
        {
          "name": "F#3",
          "midi": 54,
          "time": 262.2970349999986,
          "velocity": 0.47244094488188976,
          "duration": 0.3986482500000079
        },
        {
          "name": "D4",
          "midi": 62,
          "time": 262.2970349999986,
          "velocity": 0.47244094488188976,
          "duration": 0.3986482500000079
        },
        {
          "name": "C#4",
          "midi": 61,
          "time": 262.7024399999986,
          "velocity": 0.47244094488188976,
          "duration": 0.19594575000002123
        },
        {
          "name": "A#3",
          "midi": 58,
          "time": 262.7024399999986,
          "velocity": 0.47244094488188976,
          "duration": 0.19594575000002123
        },
        {
          "name": "F#3",
          "midi": 54,
          "time": 262.7024399999986,
          "velocity": 0.47244094488188976,
          "duration": 0.19594575000002123
        },
        {
          "name": "F#2",
          "midi": 42,
          "time": 262.7024399999986,
          "velocity": 0.47244094488188976,
          "duration": 0.19594575000002123
        },
        {
          "name": "C#3",
          "midi": 49,
          "time": 262.7024399999986,
          "velocity": 0.47244094488188976,
          "duration": 0.19594575000002123
        },
        {
          "name": "F#4",
          "midi": 66,
          "time": 262.7024399999986,
          "velocity": 0.47244094488188976,
          "duration": 0.19594575000002123
        },
        {
          "name": "A#3",
          "midi": 58,
          "time": 262.90514249999865,
          "velocity": 0.47244094488188976,
          "duration": 0.3986482500000079
        },
        {
          "name": "F#2",
          "midi": 42,
          "time": 262.90514249999865,
          "velocity": 0.47244094488188976,
          "duration": 0.3986482500000079
        },
        {
          "name": "C#3",
          "midi": 49,
          "time": 262.90514249999865,
          "velocity": 0.47244094488188976,
          "duration": 0.3986482500000079
        },
        {
          "name": "C#4",
          "midi": 61,
          "time": 262.90514249999865,
          "velocity": 0.47244094488188976,
          "duration": 0.3986482500000079
        },
        {
          "name": "F#3",
          "midi": 54,
          "time": 262.90514249999865,
          "velocity": 0.47244094488188976,
          "duration": 0.3986482500000079
        },
        {
          "name": "F#4",
          "midi": 66,
          "time": 262.90514249999865,
          "velocity": 0.47244094488188976,
          "duration": 0.3986482500000079
        },
        {
          "name": "F#4",
          "midi": 66,
          "time": 263.3105474999987,
          "velocity": 0.47244094488188976,
          "duration": 0.19594575000002123
        },
        {
          "name": "A#3",
          "midi": 58,
          "time": 263.3105474999987,
          "velocity": 0.47244094488188976,
          "duration": 0.19594575000002123
        },
        {
          "name": "C#3",
          "midi": 49,
          "time": 263.3105474999987,
          "velocity": 0.47244094488188976,
          "duration": 0.19594575000002123
        },
        {
          "name": "F#3",
          "midi": 54,
          "time": 263.3105474999987,
          "velocity": 0.47244094488188976,
          "duration": 0.19594575000002123
        },
        {
          "name": "F#2",
          "midi": 42,
          "time": 263.3105474999987,
          "velocity": 0.47244094488188976,
          "duration": 0.19594575000002123
        },
        {
          "name": "C#4",
          "midi": 61,
          "time": 263.3105474999987,
          "velocity": 0.47244094488188976,
          "duration": 0.19594575000002123
        },
        {
          "name": "F#2",
          "midi": 42,
          "time": 263.5132499999987,
          "velocity": 0.47244094488188976,
          "duration": 0.3986482500000079
        },
        {
          "name": "C#4",
          "midi": 61,
          "time": 263.5132499999987,
          "velocity": 0.47244094488188976,
          "duration": 0.3986482500000079
        },
        {
          "name": "F#3",
          "midi": 54,
          "time": 263.5132499999987,
          "velocity": 0.47244094488188976,
          "duration": 0.3986482500000079
        },
        {
          "name": "C#3",
          "midi": 49,
          "time": 263.5132499999987,
          "velocity": 0.47244094488188976,
          "duration": 0.3986482500000079
        },
        {
          "name": "A#3",
          "midi": 58,
          "time": 263.5132499999987,
          "velocity": 0.47244094488188976,
          "duration": 0.3986482500000079
        },
        {
          "name": "F#4",
          "midi": 66,
          "time": 263.5132499999987,
          "velocity": 0.47244094488188976,
          "duration": 0.3986482500000079
        },
        {
          "name": "F#2",
          "midi": 42,
          "time": 263.91865499999875,
          "velocity": 0.47244094488188976,
          "duration": 0.19594575000002123
        },
        {
          "name": "F#3",
          "midi": 54,
          "time": 263.91865499999875,
          "velocity": 0.47244094488188976,
          "duration": 0.19594575000002123
        },
        {
          "name": "A#3",
          "midi": 58,
          "time": 263.91865499999875,
          "velocity": 0.47244094488188976,
          "duration": 0.19594575000002123
        },
        {
          "name": "C#3",
          "midi": 49,
          "time": 263.91865499999875,
          "velocity": 0.47244094488188976,
          "duration": 0.19594575000002123
        },
        {
          "name": "F#4",
          "midi": 66,
          "time": 263.91865499999875,
          "velocity": 0.47244094488188976,
          "duration": 0.19594575000002123
        },
        {
          "name": "C#4",
          "midi": 61,
          "time": 263.91865499999875,
          "velocity": 0.47244094488188976,
          "duration": 0.19594575000002123
        },
        {
          "name": "F#4",
          "midi": 66,
          "time": 264.1213574999988,
          "velocity": 0.47244094488188976,
          "duration": 0.3986482500000079
        },
        {
          "name": "C#4",
          "midi": 61,
          "time": 264.1213574999988,
          "velocity": 0.47244094488188976,
          "duration": 0.3986482500000079
        },
        {
          "name": "A#3",
          "midi": 58,
          "time": 264.1213574999988,
          "velocity": 0.47244094488188976,
          "duration": 0.3986482500000079
        },
        {
          "name": "C#3",
          "midi": 49,
          "time": 264.1213574999988,
          "velocity": 0.47244094488188976,
          "duration": 0.3986482500000079
        },
        {
          "name": "F#2",
          "midi": 42,
          "time": 264.1213574999988,
          "velocity": 0.47244094488188976,
          "duration": 0.3986482500000079
        },
        {
          "name": "F#3",
          "midi": 54,
          "time": 264.1213574999988,
          "velocity": 0.47244094488188976,
          "duration": 0.3986482500000079
        },
        {
          "name": "F#3",
          "midi": 54,
          "time": 264.5267624999988,
          "velocity": 0.47244094488188976,
          "duration": 0.19594575000002123
        },
        {
          "name": "C#3",
          "midi": 49,
          "time": 264.5267624999988,
          "velocity": 0.47244094488188976,
          "duration": 0.19594575000002123
        },
        {
          "name": "C#4",
          "midi": 61,
          "time": 264.5267624999988,
          "velocity": 0.47244094488188976,
          "duration": 0.19594575000002123
        },
        {
          "name": "F#4",
          "midi": 66,
          "time": 264.5267624999988,
          "velocity": 0.47244094488188976,
          "duration": 0.19594575000002123
        },
        {
          "name": "F#2",
          "midi": 42,
          "time": 264.5267624999988,
          "velocity": 0.47244094488188976,
          "duration": 0.19594575000002123
        },
        {
          "name": "A#3",
          "midi": 58,
          "time": 264.5267624999988,
          "velocity": 0.47244094488188976,
          "duration": 0.19594575000002123
        },
        {
          "name": "A#3",
          "midi": 58,
          "time": 264.72946499999887,
          "velocity": 0.47244094488188976,
          "duration": 0.3986482500000079
        },
        {
          "name": "C#3",
          "midi": 49,
          "time": 264.72946499999887,
          "velocity": 0.47244094488188976,
          "duration": 0.3986482500000079
        },
        {
          "name": "C#4",
          "midi": 61,
          "time": 264.72946499999887,
          "velocity": 0.47244094488188976,
          "duration": 0.3986482500000079
        },
        {
          "name": "F#3",
          "midi": 54,
          "time": 264.72946499999887,
          "velocity": 0.47244094488188976,
          "duration": 0.3986482500000079
        },
        {
          "name": "F#2",
          "midi": 42,
          "time": 264.72946499999887,
          "velocity": 0.47244094488188976,
          "duration": 0.3986482500000079
        },
        {
          "name": "F#4",
          "midi": 66,
          "time": 264.72946499999887,
          "velocity": 0.47244094488188976,
          "duration": 0.3986482500000079
        },
        {
          "name": "A#3",
          "midi": 58,
          "time": 265.1348699999989,
          "velocity": 0.47244094488188976,
          "duration": 0.3986482500000079
        },
        {
          "name": "F#4",
          "midi": 66,
          "time": 265.1348699999989,
          "velocity": 0.47244094488188976,
          "duration": 0.3986482500000079
        },
        {
          "name": "C#4",
          "midi": 61,
          "time": 265.1348699999989,
          "velocity": 0.47244094488188976,
          "duration": 0.3986482500000079
        },
        {
          "name": "C#3",
          "midi": 49,
          "time": 265.1348699999989,
          "velocity": 0.47244094488188976,
          "duration": 0.3986482500000079
        },
        {
          "name": "F#2",
          "midi": 42,
          "time": 265.1348699999989,
          "velocity": 0.47244094488188976,
          "duration": 0.3986482500000079
        },
        {
          "name": "F#3",
          "midi": 54,
          "time": 265.1348699999989,
          "velocity": 0.47244094488188976,
          "duration": 0.3986482500000079
        },
        {
          "name": "F#4",
          "midi": 66,
          "time": 265.5402749999989,
          "velocity": 0.47244094488188976,
          "duration": 0.3986482500000079
        },
        {
          "name": "C#3",
          "midi": 49,
          "time": 265.5402749999989,
          "velocity": 0.47244094488188976,
          "duration": 0.3986482500000079
        },
        {
          "name": "F#2",
          "midi": 42,
          "time": 265.5402749999989,
          "velocity": 0.47244094488188976,
          "duration": 0.3986482500000079
        },
        {
          "name": "A#3",
          "midi": 58,
          "time": 265.5402749999989,
          "velocity": 0.47244094488188976,
          "duration": 0.3986482500000079
        },
        {
          "name": "F#3",
          "midi": 54,
          "time": 265.5402749999989,
          "velocity": 0.47244094488188976,
          "duration": 0.3986482500000079
        },
        {
          "name": "C#4",
          "midi": 61,
          "time": 265.5402749999989,
          "velocity": 0.47244094488188976,
          "duration": 0.3986482500000079
        },
        {
          "name": "C#4",
          "midi": 61,
          "time": 265.94567999999896,
          "velocity": 0.47244094488188976,
          "duration": 0.19594575000002123
        },
        {
          "name": "A3",
          "midi": 57,
          "time": 265.94567999999896,
          "velocity": 0.47244094488188976,
          "duration": 0.19594575000002123
        },
        {
          "name": "E2",
          "midi": 40,
          "time": 265.94567999999896,
          "velocity": 0.47244094488188976,
          "duration": 0.19594575000002123
        },
        {
          "name": "A2",
          "midi": 45,
          "time": 265.94567999999896,
          "velocity": 0.47244094488188976,
          "duration": 0.19594575000002123
        },
        {
          "name": "E4",
          "midi": 64,
          "time": 265.94567999999896,
          "velocity": 0.47244094488188976,
          "duration": 0.19594575000002123
        },
        {
          "name": "E3",
          "midi": 52,
          "time": 265.94567999999896,
          "velocity": 0.47244094488188976,
          "duration": 0.19594575000002123
        },
        {
          "name": "A3",
          "midi": 57,
          "time": 266.148382499999,
          "velocity": 0.47244094488188976,
          "duration": 0.3986482500000079
        },
        {
          "name": "E2",
          "midi": 40,
          "time": 266.148382499999,
          "velocity": 0.47244094488188976,
          "duration": 0.3986482500000079
        },
        {
          "name": "C#4",
          "midi": 61,
          "time": 266.148382499999,
          "velocity": 0.47244094488188976,
          "duration": 0.3986482500000079
        },
        {
          "name": "E3",
          "midi": 52,
          "time": 266.148382499999,
          "velocity": 0.47244094488188976,
          "duration": 0.3986482500000079
        },
        {
          "name": "A2",
          "midi": 45,
          "time": 266.148382499999,
          "velocity": 0.47244094488188976,
          "duration": 0.3986482500000079
        },
        {
          "name": "E4",
          "midi": 64,
          "time": 266.148382499999,
          "velocity": 0.47244094488188976,
          "duration": 0.3986482500000079
        },
        {
          "name": "A2",
          "midi": 45,
          "time": 266.55378749999903,
          "velocity": 0.47244094488188976,
          "duration": 0.19594575000002123
        },
        {
          "name": "E2",
          "midi": 40,
          "time": 266.55378749999903,
          "velocity": 0.47244094488188976,
          "duration": 0.19594575000002123
        },
        {
          "name": "E3",
          "midi": 52,
          "time": 266.55378749999903,
          "velocity": 0.47244094488188976,
          "duration": 0.19594575000002123
        },
        {
          "name": "A3",
          "midi": 57,
          "time": 266.55378749999903,
          "velocity": 0.47244094488188976,
          "duration": 0.19594575000002123
        },
        {
          "name": "E4",
          "midi": 64,
          "time": 266.55378749999903,
          "velocity": 0.47244094488188976,
          "duration": 0.19594575000002123
        },
        {
          "name": "C#4",
          "midi": 61,
          "time": 266.55378749999903,
          "velocity": 0.47244094488188976,
          "duration": 0.19594575000002123
        },
        {
          "name": "A3",
          "midi": 57,
          "time": 266.7564899999991,
          "velocity": 0.47244094488188976,
          "duration": 0.3986482500000079
        },
        {
          "name": "A2",
          "midi": 45,
          "time": 266.7564899999991,
          "velocity": 0.47244094488188976,
          "duration": 0.3986482500000079
        },
        {
          "name": "E4",
          "midi": 64,
          "time": 266.7564899999991,
          "velocity": 0.47244094488188976,
          "duration": 0.3986482500000079
        },
        {
          "name": "E3",
          "midi": 52,
          "time": 266.7564899999991,
          "velocity": 0.47244094488188976,
          "duration": 0.3986482500000079
        },
        {
          "name": "E2",
          "midi": 40,
          "time": 266.7564899999991,
          "velocity": 0.47244094488188976,
          "duration": 0.3986482500000079
        },
        {
          "name": "C#4",
          "midi": 61,
          "time": 266.7564899999991,
          "velocity": 0.47244094488188976,
          "duration": 0.3986482500000079
        },
        {
          "name": "E2",
          "midi": 40,
          "time": 267.1618949999991,
          "velocity": 0.47244094488188976,
          "duration": 0.19594575000002123
        },
        {
          "name": "A3",
          "midi": 57,
          "time": 267.1618949999991,
          "velocity": 0.47244094488188976,
          "duration": 0.19594575000002123
        },
        {
          "name": "E4",
          "midi": 64,
          "time": 267.1618949999991,
          "velocity": 0.47244094488188976,
          "duration": 0.19594575000002123
        },
        {
          "name": "E3",
          "midi": 52,
          "time": 267.1618949999991,
          "velocity": 0.47244094488188976,
          "duration": 0.19594575000002123
        },
        {
          "name": "C#4",
          "midi": 61,
          "time": 267.1618949999991,
          "velocity": 0.47244094488188976,
          "duration": 0.19594575000002123
        },
        {
          "name": "A2",
          "midi": 45,
          "time": 267.1618949999991,
          "velocity": 0.47244094488188976,
          "duration": 0.19594575000002123
        },
        {
          "name": "C#4",
          "midi": 61,
          "time": 267.36459749999915,
          "velocity": 0.47244094488188976,
          "duration": 0.3986482500000079
        },
        {
          "name": "A2",
          "midi": 45,
          "time": 267.36459749999915,
          "velocity": 0.47244094488188976,
          "duration": 0.3986482500000079
        },
        {
          "name": "E4",
          "midi": 64,
          "time": 267.36459749999915,
          "velocity": 0.47244094488188976,
          "duration": 0.3986482500000079
        },
        {
          "name": "E2",
          "midi": 40,
          "time": 267.36459749999915,
          "velocity": 0.47244094488188976,
          "duration": 0.3986482500000079
        },
        {
          "name": "A3",
          "midi": 57,
          "time": 267.36459749999915,
          "velocity": 0.47244094488188976,
          "duration": 0.3986482500000079
        },
        {
          "name": "E3",
          "midi": 52,
          "time": 267.36459749999915,
          "velocity": 0.47244094488188976,
          "duration": 0.3986482500000079
        },
        {
          "name": "E4",
          "midi": 64,
          "time": 267.7700024999992,
          "velocity": 0.47244094488188976,
          "duration": 0.19594575000002123
        },
        {
          "name": "A3",
          "midi": 57,
          "time": 267.7700024999992,
          "velocity": 0.47244094488188976,
          "duration": 0.19594575000002123
        },
        {
          "name": "E2",
          "midi": 40,
          "time": 267.7700024999992,
          "velocity": 0.47244094488188976,
          "duration": 0.19594575000002123
        },
        {
          "name": "C#4",
          "midi": 61,
          "time": 267.7700024999992,
          "velocity": 0.47244094488188976,
          "duration": 0.19594575000002123
        },
        {
          "name": "E3",
          "midi": 52,
          "time": 267.7700024999992,
          "velocity": 0.47244094488188976,
          "duration": 0.19594575000002123
        },
        {
          "name": "A2",
          "midi": 45,
          "time": 267.7700024999992,
          "velocity": 0.47244094488188976,
          "duration": 0.19594575000002123
        },
        {
          "name": "A3",
          "midi": 57,
          "time": 267.9727049999992,
          "velocity": 0.47244094488188976,
          "duration": 0.3986482500000079
        },
        {
          "name": "E2",
          "midi": 40,
          "time": 267.9727049999992,
          "velocity": 0.47244094488188976,
          "duration": 0.3986482500000079
        },
        {
          "name": "E3",
          "midi": 52,
          "time": 267.9727049999992,
          "velocity": 0.47244094488188976,
          "duration": 0.3986482500000079
        },
        {
          "name": "E4",
          "midi": 64,
          "time": 267.9727049999992,
          "velocity": 0.47244094488188976,
          "duration": 0.3986482500000079
        },
        {
          "name": "C#4",
          "midi": 61,
          "time": 267.9727049999992,
          "velocity": 0.47244094488188976,
          "duration": 0.3986482500000079
        },
        {
          "name": "A2",
          "midi": 45,
          "time": 267.9727049999992,
          "velocity": 0.47244094488188976,
          "duration": 0.3986482500000079
        },
        {
          "name": "A3",
          "midi": 57,
          "time": 268.37810999999925,
          "velocity": 0.47244094488188976,
          "duration": 0.3986482500000079
        },
        {
          "name": "C#4",
          "midi": 61,
          "time": 268.37810999999925,
          "velocity": 0.47244094488188976,
          "duration": 0.3986482500000079
        },
        {
          "name": "A2",
          "midi": 45,
          "time": 268.37810999999925,
          "velocity": 0.47244094488188976,
          "duration": 0.3986482500000079
        },
        {
          "name": "E4",
          "midi": 64,
          "time": 268.37810999999925,
          "velocity": 0.47244094488188976,
          "duration": 0.3986482500000079
        },
        {
          "name": "E2",
          "midi": 40,
          "time": 268.37810999999925,
          "velocity": 0.47244094488188976,
          "duration": 0.3986482500000079
        },
        {
          "name": "E3",
          "midi": 52,
          "time": 268.37810999999925,
          "velocity": 0.47244094488188976,
          "duration": 0.3986482500000079
        },
        {
          "name": "A2",
          "midi": 45,
          "time": 268.7835149999993,
          "velocity": 0.47244094488188976,
          "duration": 0.3986482500000079
        },
        {
          "name": "E2",
          "midi": 40,
          "time": 268.7835149999993,
          "velocity": 0.47244094488188976,
          "duration": 0.3986482500000079
        },
        {
          "name": "A3",
          "midi": 57,
          "time": 268.7835149999993,
          "velocity": 0.47244094488188976,
          "duration": 0.3986482500000079
        },
        {
          "name": "E4",
          "midi": 64,
          "time": 268.7835149999993,
          "velocity": 0.47244094488188976,
          "duration": 0.3986482500000079
        },
        {
          "name": "E3",
          "midi": 52,
          "time": 268.7835149999993,
          "velocity": 0.47244094488188976,
          "duration": 0.3986482500000079
        },
        {
          "name": "C#4",
          "midi": 61,
          "time": 268.7835149999993,
          "velocity": 0.47244094488188976,
          "duration": 0.3986482500000079
        },
        {
          "name": "B3",
          "midi": 59,
          "time": 269.1889199999993,
          "velocity": 0.47244094488188976,
          "duration": 0.19594575000002123
        },
        {
          "name": "G#3",
          "midi": 56,
          "time": 269.1889199999993,
          "velocity": 0.47244094488188976,
          "duration": 0.19594575000002123
        },
        {
          "name": "E3",
          "midi": 52,
          "time": 269.1889199999993,
          "velocity": 0.47244094488188976,
          "duration": 0.19594575000002123
        },
        {
          "name": "E2",
          "midi": 40,
          "time": 269.1889199999993,
          "velocity": 0.47244094488188976,
          "duration": 0.19594575000002123
        },
        {
          "name": "B2",
          "midi": 47,
          "time": 269.1889199999993,
          "velocity": 0.47244094488188976,
          "duration": 0.19594575000002123
        },
        {
          "name": "E4",
          "midi": 64,
          "time": 269.1889199999993,
          "velocity": 0.47244094488188976,
          "duration": 0.19594575000002123
        },
        {
          "name": "G#3",
          "midi": 56,
          "time": 269.39162249999936,
          "velocity": 0.47244094488188976,
          "duration": 0.3986482500000079
        },
        {
          "name": "E2",
          "midi": 40,
          "time": 269.39162249999936,
          "velocity": 0.47244094488188976,
          "duration": 0.3986482500000079
        },
        {
          "name": "B2",
          "midi": 47,
          "time": 269.39162249999936,
          "velocity": 0.47244094488188976,
          "duration": 0.3986482500000079
        },
        {
          "name": "B3",
          "midi": 59,
          "time": 269.39162249999936,
          "velocity": 0.47244094488188976,
          "duration": 0.3986482500000079
        },
        {
          "name": "E3",
          "midi": 52,
          "time": 269.39162249999936,
          "velocity": 0.47244094488188976,
          "duration": 0.3986482500000079
        },
        {
          "name": "E4",
          "midi": 64,
          "time": 269.39162249999936,
          "velocity": 0.47244094488188976,
          "duration": 0.3986482500000079
        },
        {
          "name": "E4",
          "midi": 64,
          "time": 269.7970274999994,
          "velocity": 0.47244094488188976,
          "duration": 0.19594575000002123
        },
        {
          "name": "G#3",
          "midi": 56,
          "time": 269.7970274999994,
          "velocity": 0.47244094488188976,
          "duration": 0.19594575000002123
        },
        {
          "name": "B2",
          "midi": 47,
          "time": 269.7970274999994,
          "velocity": 0.47244094488188976,
          "duration": 0.19594575000002123
        },
        {
          "name": "E3",
          "midi": 52,
          "time": 269.7970274999994,
          "velocity": 0.47244094488188976,
          "duration": 0.19594575000002123
        },
        {
          "name": "E2",
          "midi": 40,
          "time": 269.7970274999994,
          "velocity": 0.47244094488188976,
          "duration": 0.19594575000002123
        },
        {
          "name": "B3",
          "midi": 59,
          "time": 269.7970274999994,
          "velocity": 0.47244094488188976,
          "duration": 0.19594575000002123
        },
        {
          "name": "E2",
          "midi": 40,
          "time": 269.99972999999943,
          "velocity": 0.47244094488188976,
          "duration": 0.3986482500000079
        },
        {
          "name": "B3",
          "midi": 59,
          "time": 269.99972999999943,
          "velocity": 0.47244094488188976,
          "duration": 0.3986482500000079
        },
        {
          "name": "E3",
          "midi": 52,
          "time": 269.99972999999943,
          "velocity": 0.47244094488188976,
          "duration": 0.3986482500000079
        },
        {
          "name": "B2",
          "midi": 47,
          "time": 269.99972999999943,
          "velocity": 0.47244094488188976,
          "duration": 0.3986482500000079
        },
        {
          "name": "G#3",
          "midi": 56,
          "time": 269.99972999999943,
          "velocity": 0.47244094488188976,
          "duration": 0.3986482500000079
        },
        {
          "name": "E4",
          "midi": 64,
          "time": 269.99972999999943,
          "velocity": 0.47244094488188976,
          "duration": 0.3986482500000079
        },
        {
          "name": "E2",
          "midi": 40,
          "time": 270.40513499999946,
          "velocity": 0.47244094488188976,
          "duration": 0.19594575000002123
        },
        {
          "name": "E3",
          "midi": 52,
          "time": 270.40513499999946,
          "velocity": 0.47244094488188976,
          "duration": 0.19594575000002123
        },
        {
          "name": "G#3",
          "midi": 56,
          "time": 270.40513499999946,
          "velocity": 0.47244094488188976,
          "duration": 0.19594575000002123
        },
        {
          "name": "B2",
          "midi": 47,
          "time": 270.40513499999946,
          "velocity": 0.47244094488188976,
          "duration": 0.19594575000002123
        },
        {
          "name": "E4",
          "midi": 64,
          "time": 270.40513499999946,
          "velocity": 0.47244094488188976,
          "duration": 0.19594575000002123
        },
        {
          "name": "B3",
          "midi": 59,
          "time": 270.40513499999946,
          "velocity": 0.47244094488188976,
          "duration": 0.19594575000002123
        },
        {
          "name": "E4",
          "midi": 64,
          "time": 270.6078374999995,
          "velocity": 0.47244094488188976,
          "duration": 0.3986482500000079
        },
        {
          "name": "B3",
          "midi": 59,
          "time": 270.6078374999995,
          "velocity": 0.47244094488188976,
          "duration": 0.3986482500000079
        },
        {
          "name": "G#3",
          "midi": 56,
          "time": 270.6078374999995,
          "velocity": 0.47244094488188976,
          "duration": 0.3986482500000079
        },
        {
          "name": "B2",
          "midi": 47,
          "time": 270.6078374999995,
          "velocity": 0.47244094488188976,
          "duration": 0.3986482500000079
        },
        {
          "name": "E2",
          "midi": 40,
          "time": 270.6078374999995,
          "velocity": 0.47244094488188976,
          "duration": 0.3986482500000079
        },
        {
          "name": "E3",
          "midi": 52,
          "time": 270.6078374999995,
          "velocity": 0.47244094488188976,
          "duration": 0.3986482500000079
        },
        {
          "name": "E3",
          "midi": 52,
          "time": 271.01324249999954,
          "velocity": 0.47244094488188976,
          "duration": 0.19594575000002123
        },
        {
          "name": "B2",
          "midi": 47,
          "time": 271.01324249999954,
          "velocity": 0.47244094488188976,
          "duration": 0.19594575000002123
        },
        {
          "name": "B3",
          "midi": 59,
          "time": 271.01324249999954,
          "velocity": 0.47244094488188976,
          "duration": 0.19594575000002123
        },
        {
          "name": "E4",
          "midi": 64,
          "time": 271.01324249999954,
          "velocity": 0.47244094488188976,
          "duration": 0.19594575000002123
        },
        {
          "name": "E2",
          "midi": 40,
          "time": 271.01324249999954,
          "velocity": 0.47244094488188976,
          "duration": 0.19594575000002123
        },
        {
          "name": "G#3",
          "midi": 56,
          "time": 271.01324249999954,
          "velocity": 0.47244094488188976,
          "duration": 0.19594575000002123
        },
        {
          "name": "G#3",
          "midi": 56,
          "time": 271.2159449999996,
          "velocity": 0.47244094488188976,
          "duration": 0.3986482500000079
        },
        {
          "name": "B2",
          "midi": 47,
          "time": 271.2159449999996,
          "velocity": 0.47244094488188976,
          "duration": 0.3986482500000079
        },
        {
          "name": "B3",
          "midi": 59,
          "time": 271.2159449999996,
          "velocity": 0.47244094488188976,
          "duration": 0.3986482500000079
        },
        {
          "name": "E3",
          "midi": 52,
          "time": 271.2159449999996,
          "velocity": 0.47244094488188976,
          "duration": 0.3986482500000079
        },
        {
          "name": "E2",
          "midi": 40,
          "time": 271.2159449999996,
          "velocity": 0.47244094488188976,
          "duration": 0.3986482500000079
        },
        {
          "name": "E4",
          "midi": 64,
          "time": 271.2159449999996,
          "velocity": 0.47244094488188976,
          "duration": 0.3986482500000079
        },
        {
          "name": "G#3",
          "midi": 56,
          "time": 271.6213499999996,
          "velocity": 0.47244094488188976,
          "duration": 0.3986482500000079
        },
        {
          "name": "E4",
          "midi": 64,
          "time": 271.6213499999996,
          "velocity": 0.47244094488188976,
          "duration": 0.3986482500000079
        },
        {
          "name": "B3",
          "midi": 59,
          "time": 271.6213499999996,
          "velocity": 0.47244094488188976,
          "duration": 0.3986482500000079
        },
        {
          "name": "B2",
          "midi": 47,
          "time": 271.6213499999996,
          "velocity": 0.47244094488188976,
          "duration": 0.3986482500000079
        },
        {
          "name": "E2",
          "midi": 40,
          "time": 271.6213499999996,
          "velocity": 0.47244094488188976,
          "duration": 0.3986482500000079
        },
        {
          "name": "E3",
          "midi": 52,
          "time": 271.6213499999996,
          "velocity": 0.47244094488188976,
          "duration": 0.3986482500000079
        },
        {
          "name": "E4",
          "midi": 64,
          "time": 272.02675499999964,
          "velocity": 0.47244094488188976,
          "duration": 0.3986482500000079
        },
        {
          "name": "B2",
          "midi": 47,
          "time": 272.02675499999964,
          "velocity": 0.47244094488188976,
          "duration": 0.3986482500000079
        },
        {
          "name": "E2",
          "midi": 40,
          "time": 272.02675499999964,
          "velocity": 0.47244094488188976,
          "duration": 0.3986482500000079
        },
        {
          "name": "G#3",
          "midi": 56,
          "time": 272.02675499999964,
          "velocity": 0.47244094488188976,
          "duration": 0.3986482500000079
        },
        {
          "name": "E3",
          "midi": 52,
          "time": 272.02675499999964,
          "velocity": 0.47244094488188976,
          "duration": 0.3986482500000079
        },
        {
          "name": "B3",
          "midi": 59,
          "time": 272.02675499999964,
          "velocity": 0.47244094488188976,
          "duration": 0.3986482500000079
        },
        {
          "name": "D4",
          "midi": 62,
          "time": 272.43215999999967,
          "velocity": 0.47244094488188976,
          "duration": 0.19594575000002123
        },
        {
          "name": "B3",
          "midi": 59,
          "time": 272.43215999999967,
          "velocity": 0.47244094488188976,
          "duration": 0.19594575000002123
        },
        {
          "name": "G2",
          "midi": 43,
          "time": 272.43215999999967,
          "velocity": 0.47244094488188976,
          "duration": 0.19594575000002123
        },
        {
          "name": "B2",
          "midi": 47,
          "time": 272.43215999999967,
          "velocity": 0.47244094488188976,
          "duration": 0.19594575000002123
        },
        {
          "name": "G4",
          "midi": 67,
          "time": 272.43215999999967,
          "velocity": 0.47244094488188976,
          "duration": 0.19594575000002123
        },
        {
          "name": "G3",
          "midi": 55,
          "time": 272.43215999999967,
          "velocity": 0.47244094488188976,
          "duration": 0.19594575000002123
        },
        {
          "name": "B3",
          "midi": 59,
          "time": 272.6348624999997,
          "velocity": 0.47244094488188976,
          "duration": 0.3986482500000079
        },
        {
          "name": "G2",
          "midi": 43,
          "time": 272.6348624999997,
          "velocity": 0.47244094488188976,
          "duration": 0.3986482500000079
        },
        {
          "name": "D4",
          "midi": 62,
          "time": 272.6348624999997,
          "velocity": 0.47244094488188976,
          "duration": 0.3986482500000079
        },
        {
          "name": "G3",
          "midi": 55,
          "time": 272.6348624999997,
          "velocity": 0.47244094488188976,
          "duration": 0.3986482500000079
        },
        {
          "name": "B2",
          "midi": 47,
          "time": 272.6348624999997,
          "velocity": 0.47244094488188976,
          "duration": 0.3986482500000079
        },
        {
          "name": "G4",
          "midi": 67,
          "time": 272.6348624999997,
          "velocity": 0.47244094488188976,
          "duration": 0.3986482500000079
        },
        {
          "name": "B2",
          "midi": 47,
          "time": 273.04026749999974,
          "velocity": 0.47244094488188976,
          "duration": 0.19594575000002123
        },
        {
          "name": "G2",
          "midi": 43,
          "time": 273.04026749999974,
          "velocity": 0.47244094488188976,
          "duration": 0.19594575000002123
        },
        {
          "name": "G3",
          "midi": 55,
          "time": 273.04026749999974,
          "velocity": 0.47244094488188976,
          "duration": 0.19594575000002123
        },
        {
          "name": "B3",
          "midi": 59,
          "time": 273.04026749999974,
          "velocity": 0.47244094488188976,
          "duration": 0.19594575000002123
        },
        {
          "name": "G4",
          "midi": 67,
          "time": 273.04026749999974,
          "velocity": 0.47244094488188976,
          "duration": 0.19594575000002123
        },
        {
          "name": "D4",
          "midi": 62,
          "time": 273.04026749999974,
          "velocity": 0.47244094488188976,
          "duration": 0.19594575000002123
        },
        {
          "name": "B3",
          "midi": 59,
          "time": 273.2429699999998,
          "velocity": 0.47244094488188976,
          "duration": 0.3986482500000079
        },
        {
          "name": "B2",
          "midi": 47,
          "time": 273.2429699999998,
          "velocity": 0.47244094488188976,
          "duration": 0.3986482500000079
        },
        {
          "name": "G4",
          "midi": 67,
          "time": 273.2429699999998,
          "velocity": 0.47244094488188976,
          "duration": 0.3986482500000079
        },
        {
          "name": "G3",
          "midi": 55,
          "time": 273.2429699999998,
          "velocity": 0.47244094488188976,
          "duration": 0.3986482500000079
        },
        {
          "name": "G2",
          "midi": 43,
          "time": 273.2429699999998,
          "velocity": 0.47244094488188976,
          "duration": 0.3986482500000079
        },
        {
          "name": "D4",
          "midi": 62,
          "time": 273.2429699999998,
          "velocity": 0.47244094488188976,
          "duration": 0.3986482500000079
        },
        {
          "name": "G2",
          "midi": 43,
          "time": 273.6483749999998,
          "velocity": 0.47244094488188976,
          "duration": 0.19594575000002123
        },
        {
          "name": "B3",
          "midi": 59,
          "time": 273.6483749999998,
          "velocity": 0.47244094488188976,
          "duration": 0.19594575000002123
        },
        {
          "name": "G4",
          "midi": 67,
          "time": 273.6483749999998,
          "velocity": 0.47244094488188976,
          "duration": 0.19594575000002123
        },
        {
          "name": "G3",
          "midi": 55,
          "time": 273.6483749999998,
          "velocity": 0.47244094488188976,
          "duration": 0.19594575000002123
        },
        {
          "name": "D4",
          "midi": 62,
          "time": 273.6483749999998,
          "velocity": 0.47244094488188976,
          "duration": 0.19594575000002123
        },
        {
          "name": "B2",
          "midi": 47,
          "time": 273.6483749999998,
          "velocity": 0.47244094488188976,
          "duration": 0.19594575000002123
        },
        {
          "name": "D4",
          "midi": 62,
          "time": 273.85107749999986,
          "velocity": 0.47244094488188976,
          "duration": 0.3986482500000079
        },
        {
          "name": "B2",
          "midi": 47,
          "time": 273.85107749999986,
          "velocity": 0.47244094488188976,
          "duration": 0.3986482500000079
        },
        {
          "name": "G4",
          "midi": 67,
          "time": 273.85107749999986,
          "velocity": 0.47244094488188976,
          "duration": 0.3986482500000079
        },
        {
          "name": "G2",
          "midi": 43,
          "time": 273.85107749999986,
          "velocity": 0.47244094488188976,
          "duration": 0.3986482500000079
        },
        {
          "name": "B3",
          "midi": 59,
          "time": 273.85107749999986,
          "velocity": 0.47244094488188976,
          "duration": 0.3986482500000079
        },
        {
          "name": "G3",
          "midi": 55,
          "time": 273.85107749999986,
          "velocity": 0.47244094488188976,
          "duration": 0.3986482500000079
        },
        {
          "name": "G4",
          "midi": 67,
          "time": 274.2564824999999,
          "velocity": 0.47244094488188976,
          "duration": 0.19594575000002123
        },
        {
          "name": "B3",
          "midi": 59,
          "time": 274.2564824999999,
          "velocity": 0.47244094488188976,
          "duration": 0.19594575000002123
        },
        {
          "name": "G2",
          "midi": 43,
          "time": 274.2564824999999,
          "velocity": 0.47244094488188976,
          "duration": 0.19594575000002123
        },
        {
          "name": "D4",
          "midi": 62,
          "time": 274.2564824999999,
          "velocity": 0.47244094488188976,
          "duration": 0.19594575000002123
        },
        {
          "name": "G3",
          "midi": 55,
          "time": 274.2564824999999,
          "velocity": 0.47244094488188976,
          "duration": 0.19594575000002123
        },
        {
          "name": "B2",
          "midi": 47,
          "time": 274.2564824999999,
          "velocity": 0.47244094488188976,
          "duration": 0.19594575000002123
        },
        {
          "name": "B3",
          "midi": 59,
          "time": 274.45918499999993,
          "velocity": 0.47244094488188976,
          "duration": 0.3986482500000079
        },
        {
          "name": "G2",
          "midi": 43,
          "time": 274.45918499999993,
          "velocity": 0.47244094488188976,
          "duration": 0.3986482500000079
        },
        {
          "name": "G3",
          "midi": 55,
          "time": 274.45918499999993,
          "velocity": 0.47244094488188976,
          "duration": 0.3986482500000079
        },
        {
          "name": "G4",
          "midi": 67,
          "time": 274.45918499999993,
          "velocity": 0.47244094488188976,
          "duration": 0.3986482500000079
        },
        {
          "name": "D4",
          "midi": 62,
          "time": 274.45918499999993,
          "velocity": 0.47244094488188976,
          "duration": 0.3986482500000079
        },
        {
          "name": "B2",
          "midi": 47,
          "time": 274.45918499999993,
          "velocity": 0.47244094488188976,
          "duration": 0.3986482500000079
        },
        {
          "name": "B3",
          "midi": 59,
          "time": 274.86458999999996,
          "velocity": 0.47244094488188976,
          "duration": 0.3986482500000079
        },
        {
          "name": "D4",
          "midi": 62,
          "time": 274.86458999999996,
          "velocity": 0.47244094488188976,
          "duration": 0.3986482500000079
        },
        {
          "name": "B2",
          "midi": 47,
          "time": 274.86458999999996,
          "velocity": 0.47244094488188976,
          "duration": 0.3986482500000079
        },
        {
          "name": "G4",
          "midi": 67,
          "time": 274.86458999999996,
          "velocity": 0.47244094488188976,
          "duration": 0.3986482500000079
        },
        {
          "name": "G2",
          "midi": 43,
          "time": 274.86458999999996,
          "velocity": 0.47244094488188976,
          "duration": 0.3986482500000079
        },
        {
          "name": "G3",
          "midi": 55,
          "time": 274.86458999999996,
          "velocity": 0.47244094488188976,
          "duration": 0.3986482500000079
        },
        {
          "name": "B2",
          "midi": 47,
          "time": 275.269995,
          "velocity": 0.47244094488188976,
          "duration": 0.3986482500000079
        },
        {
          "name": "G2",
          "midi": 43,
          "time": 275.269995,
          "velocity": 0.47244094488188976,
          "duration": 0.3986482500000079
        },
        {
          "name": "B3",
          "midi": 59,
          "time": 275.269995,
          "velocity": 0.47244094488188976,
          "duration": 0.3986482500000079
        },
        {
          "name": "G4",
          "midi": 67,
          "time": 275.269995,
          "velocity": 0.47244094488188976,
          "duration": 0.3986482500000079
        },
        {
          "name": "G3",
          "midi": 55,
          "time": 275.269995,
          "velocity": 0.47244094488188976,
          "duration": 0.3986482500000079
        },
        {
          "name": "D4",
          "midi": 62,
          "time": 275.269995,
          "velocity": 0.47244094488188976,
          "duration": 0.3986482500000079
        },
        {
          "name": "F#4",
          "midi": 66,
          "time": 275.6754,
          "velocity": 0.47244094488188976,
          "duration": 0.19594575000002123
        },
        {
          "name": "D4",
          "midi": 62,
          "time": 275.6754,
          "velocity": 0.47244094488188976,
          "duration": 0.19594575000002123
        },
        {
          "name": "A3",
          "midi": 57,
          "time": 275.6754,
          "velocity": 0.47244094488188976,
          "duration": 0.19594575000002123
        },
        {
          "name": "A2",
          "midi": 45,
          "time": 275.6754,
          "velocity": 0.47244094488188976,
          "duration": 0.19594575000002123
        },
        {
          "name": "D3",
          "midi": 50,
          "time": 275.6754,
          "velocity": 0.47244094488188976,
          "duration": 0.19594575000002123
        },
        {
          "name": "A4",
          "midi": 69,
          "time": 275.6754,
          "velocity": 0.47244094488188976,
          "duration": 0.19594575000002123
        },
        {
          "name": "D4",
          "midi": 62,
          "time": 275.87810250000007,
          "velocity": 0.47244094488188976,
          "duration": 0.3986482500000079
        },
        {
          "name": "A2",
          "midi": 45,
          "time": 275.87810250000007,
          "velocity": 0.47244094488188976,
          "duration": 0.3986482500000079
        },
        {
          "name": "D3",
          "midi": 50,
          "time": 275.87810250000007,
          "velocity": 0.47244094488188976,
          "duration": 0.3986482500000079
        },
        {
          "name": "F#4",
          "midi": 66,
          "time": 275.87810250000007,
          "velocity": 0.47244094488188976,
          "duration": 0.3986482500000079
        },
        {
          "name": "A3",
          "midi": 57,
          "time": 275.87810250000007,
          "velocity": 0.47244094488188976,
          "duration": 0.3986482500000079
        },
        {
          "name": "A4",
          "midi": 69,
          "time": 275.87810250000007,
          "velocity": 0.47244094488188976,
          "duration": 0.3986482500000079
        },
        {
          "name": "A4",
          "midi": 69,
          "time": 276.2835075000001,
          "velocity": 0.47244094488188976,
          "duration": 0.19594575000002123
        },
        {
          "name": "D4",
          "midi": 62,
          "time": 276.2835075000001,
          "velocity": 0.47244094488188976,
          "duration": 0.19594575000002123
        },
        {
          "name": "D3",
          "midi": 50,
          "time": 276.2835075000001,
          "velocity": 0.47244094488188976,
          "duration": 0.19594575000002123
        },
        {
          "name": "A3",
          "midi": 57,
          "time": 276.2835075000001,
          "velocity": 0.47244094488188976,
          "duration": 0.19594575000002123
        },
        {
          "name": "A2",
          "midi": 45,
          "time": 276.2835075000001,
          "velocity": 0.47244094488188976,
          "duration": 0.19594575000002123
        },
        {
          "name": "F#4",
          "midi": 66,
          "time": 276.2835075000001,
          "velocity": 0.47244094488188976,
          "duration": 0.19594575000002123
        },
        {
          "name": "A2",
          "midi": 45,
          "time": 276.48621000000014,
          "velocity": 0.47244094488188976,
          "duration": 0.3986482500000079
        },
        {
          "name": "F#4",
          "midi": 66,
          "time": 276.48621000000014,
          "velocity": 0.47244094488188976,
          "duration": 0.3986482500000079
        },
        {
          "name": "A3",
          "midi": 57,
          "time": 276.48621000000014,
          "velocity": 0.47244094488188976,
          "duration": 0.3986482500000079
        },
        {
          "name": "D3",
          "midi": 50,
          "time": 276.48621000000014,
          "velocity": 0.47244094488188976,
          "duration": 0.3986482500000079
        },
        {
          "name": "D4",
          "midi": 62,
          "time": 276.48621000000014,
          "velocity": 0.47244094488188976,
          "duration": 0.3986482500000079
        },
        {
          "name": "A4",
          "midi": 69,
          "time": 276.48621000000014,
          "velocity": 0.47244094488188976,
          "duration": 0.3986482500000079
        },
        {
          "name": "A2",
          "midi": 45,
          "time": 276.8916150000002,
          "velocity": 0.47244094488188976,
          "duration": 0.19594575000002123
        },
        {
          "name": "A3",
          "midi": 57,
          "time": 276.8916150000002,
          "velocity": 0.47244094488188976,
          "duration": 0.19594575000002123
        },
        {
          "name": "D4",
          "midi": 62,
          "time": 276.8916150000002,
          "velocity": 0.47244094488188976,
          "duration": 0.19594575000002123
        },
        {
          "name": "D3",
          "midi": 50,
          "time": 276.8916150000002,
          "velocity": 0.47244094488188976,
          "duration": 0.19594575000002123
        },
        {
          "name": "A4",
          "midi": 69,
          "time": 276.8916150000002,
          "velocity": 0.47244094488188976,
          "duration": 0.19594575000002123
        },
        {
          "name": "F#4",
          "midi": 66,
          "time": 276.8916150000002,
          "velocity": 0.47244094488188976,
          "duration": 0.19594575000002123
        },
        {
          "name": "A4",
          "midi": 69,
          "time": 277.0943175000002,
          "velocity": 0.47244094488188976,
          "duration": 0.3986482500000079
        },
        {
          "name": "F#4",
          "midi": 66,
          "time": 277.0943175000002,
          "velocity": 0.47244094488188976,
          "duration": 0.3986482500000079
        },
        {
          "name": "D4",
          "midi": 62,
          "time": 277.0943175000002,
          "velocity": 0.47244094488188976,
          "duration": 0.3986482500000079
        },
        {
          "name": "D3",
          "midi": 50,
          "time": 277.0943175000002,
          "velocity": 0.47244094488188976,
          "duration": 0.3986482500000079
        },
        {
          "name": "A2",
          "midi": 45,
          "time": 277.0943175000002,
          "velocity": 0.47244094488188976,
          "duration": 0.3986482500000079
        },
        {
          "name": "A3",
          "midi": 57,
          "time": 277.0943175000002,
          "velocity": 0.47244094488188976,
          "duration": 0.3986482500000079
        },
        {
          "name": "A3",
          "midi": 57,
          "time": 277.49972250000025,
          "velocity": 0.47244094488188976,
          "duration": 0.19594575000002123
        },
        {
          "name": "D3",
          "midi": 50,
          "time": 277.49972250000025,
          "velocity": 0.47244094488188976,
          "duration": 0.19594575000002123
        },
        {
          "name": "F#4",
          "midi": 66,
          "time": 277.49972250000025,
          "velocity": 0.47244094488188976,
          "duration": 0.19594575000002123
        },
        {
          "name": "A4",
          "midi": 69,
          "time": 277.49972250000025,
          "velocity": 0.47244094488188976,
          "duration": 0.19594575000002123
        },
        {
          "name": "A2",
          "midi": 45,
          "time": 277.49972250000025,
          "velocity": 0.47244094488188976,
          "duration": 0.19594575000002123
        },
        {
          "name": "D4",
          "midi": 62,
          "time": 277.49972250000025,
          "velocity": 0.47244094488188976,
          "duration": 0.19594575000002123
        },
        {
          "name": "D4",
          "midi": 62,
          "time": 277.7024250000003,
          "velocity": 0.47244094488188976,
          "duration": 0.3986482500000079
        },
        {
          "name": "D3",
          "midi": 50,
          "time": 277.7024250000003,
          "velocity": 0.47244094488188976,
          "duration": 0.3986482500000079
        },
        {
          "name": "F#4",
          "midi": 66,
          "time": 277.7024250000003,
          "velocity": 0.47244094488188976,
          "duration": 0.3986482500000079
        },
        {
          "name": "A3",
          "midi": 57,
          "time": 277.7024250000003,
          "velocity": 0.47244094488188976,
          "duration": 0.3986482500000079
        },
        {
          "name": "A2",
          "midi": 45,
          "time": 277.7024250000003,
          "velocity": 0.47244094488188976,
          "duration": 0.3986482500000079
        },
        {
          "name": "A4",
          "midi": 69,
          "time": 277.7024250000003,
          "velocity": 0.47244094488188976,
          "duration": 0.3986482500000079
        },
        {
          "name": "D4",
          "midi": 62,
          "time": 278.1078300000003,
          "velocity": 0.47244094488188976,
          "duration": 0.3986482500000079
        },
        {
          "name": "A4",
          "midi": 69,
          "time": 278.1078300000003,
          "velocity": 0.47244094488188976,
          "duration": 0.3986482500000079
        },
        {
          "name": "F#4",
          "midi": 66,
          "time": 278.1078300000003,
          "velocity": 0.47244094488188976,
          "duration": 0.3986482500000079
        },
        {
          "name": "D3",
          "midi": 50,
          "time": 278.1078300000003,
          "velocity": 0.47244094488188976,
          "duration": 0.3986482500000079
        },
        {
          "name": "A2",
          "midi": 45,
          "time": 278.1078300000003,
          "velocity": 0.47244094488188976,
          "duration": 0.3986482500000079
        },
        {
          "name": "A3",
          "midi": 57,
          "time": 278.1078300000003,
          "velocity": 0.47244094488188976,
          "duration": 0.3986482500000079
        },
        {
          "name": "A4",
          "midi": 69,
          "time": 278.51323500000035,
          "velocity": 0.47244094488188976,
          "duration": 0.3986482500000079
        },
        {
          "name": "D3",
          "midi": 50,
          "time": 278.51323500000035,
          "velocity": 0.47244094488188976,
          "duration": 0.3986482500000079
        },
        {
          "name": "A2",
          "midi": 45,
          "time": 278.51323500000035,
          "velocity": 0.47244094488188976,
          "duration": 0.3986482500000079
        },
        {
          "name": "D4",
          "midi": 62,
          "time": 278.51323500000035,
          "velocity": 0.47244094488188976,
          "duration": 0.3986482500000079
        },
        {
          "name": "A3",
          "midi": 57,
          "time": 278.51323500000035,
          "velocity": 0.47244094488188976,
          "duration": 0.3986482500000079
        },
        {
          "name": "F#4",
          "midi": 66,
          "time": 278.51323500000035,
          "velocity": 0.47244094488188976,
          "duration": 0.3986482500000079
        },
        {
          "name": "B3",
          "midi": 59,
          "time": 278.9186400000004,
          "velocity": 0.47244094488188976,
          "duration": 0.19594575000002123
        },
        {
          "name": "G3",
          "midi": 55,
          "time": 278.9186400000004,
          "velocity": 0.47244094488188976,
          "duration": 0.19594575000002123
        },
        {
          "name": "E2",
          "midi": 40,
          "time": 278.9186400000004,
          "velocity": 0.47244094488188976,
          "duration": 0.19594575000002123
        },
        {
          "name": "A2",
          "midi": 45,
          "time": 278.9186400000004,
          "velocity": 0.47244094488188976,
          "duration": 0.19594575000002123
        },
        {
          "name": "E4",
          "midi": 64,
          "time": 278.9186400000004,
          "velocity": 0.47244094488188976,
          "duration": 0.19594575000002123
        },
        {
          "name": "E3",
          "midi": 52,
          "time": 278.9186400000004,
          "velocity": 0.47244094488188976,
          "duration": 0.19594575000002123
        },
        {
          "name": "G3",
          "midi": 55,
          "time": 279.1213425000004,
          "velocity": 0.47244094488188976,
          "duration": 0.3986482500000079
        },
        {
          "name": "E2",
          "midi": 40,
          "time": 279.1213425000004,
          "velocity": 0.47244094488188976,
          "duration": 0.3986482500000079
        },
        {
          "name": "B3",
          "midi": 59,
          "time": 279.1213425000004,
          "velocity": 0.47244094488188976,
          "duration": 0.3986482500000079
        },
        {
          "name": "E3",
          "midi": 52,
          "time": 279.1213425000004,
          "velocity": 0.47244094488188976,
          "duration": 0.3986482500000079
        },
        {
          "name": "A2",
          "midi": 45,
          "time": 279.1213425000004,
          "velocity": 0.47244094488188976,
          "duration": 0.3986482500000079
        },
        {
          "name": "E4",
          "midi": 64,
          "time": 279.1213425000004,
          "velocity": 0.47244094488188976,
          "duration": 0.3986482500000079
        },
        {
          "name": "A2",
          "midi": 45,
          "time": 279.52674750000045,
          "velocity": 0.47244094488188976,
          "duration": 0.19594575000002123
        },
        {
          "name": "E2",
          "midi": 40,
          "time": 279.52674750000045,
          "velocity": 0.47244094488188976,
          "duration": 0.19594575000002123
        },
        {
          "name": "E3",
          "midi": 52,
          "time": 279.52674750000045,
          "velocity": 0.47244094488188976,
          "duration": 0.19594575000002123
        },
        {
          "name": "G3",
          "midi": 55,
          "time": 279.52674750000045,
          "velocity": 0.47244094488188976,
          "duration": 0.19594575000002123
        },
        {
          "name": "E4",
          "midi": 64,
          "time": 279.52674750000045,
          "velocity": 0.47244094488188976,
          "duration": 0.19594575000002123
        },
        {
          "name": "B3",
          "midi": 59,
          "time": 279.52674750000045,
          "velocity": 0.47244094488188976,
          "duration": 0.19594575000002123
        },
        {
          "name": "G3",
          "midi": 55,
          "time": 279.7294500000005,
          "velocity": 0.47244094488188976,
          "duration": 0.3986482500000079
        },
        {
          "name": "A2",
          "midi": 45,
          "time": 279.7294500000005,
          "velocity": 0.47244094488188976,
          "duration": 0.3986482500000079
        },
        {
          "name": "E4",
          "midi": 64,
          "time": 279.7294500000005,
          "velocity": 0.47244094488188976,
          "duration": 0.3986482500000079
        },
        {
          "name": "E3",
          "midi": 52,
          "time": 279.7294500000005,
          "velocity": 0.47244094488188976,
          "duration": 0.3986482500000079
        },
        {
          "name": "E2",
          "midi": 40,
          "time": 279.7294500000005,
          "velocity": 0.47244094488188976,
          "duration": 0.3986482500000079
        },
        {
          "name": "B3",
          "midi": 59,
          "time": 279.7294500000005,
          "velocity": 0.47244094488188976,
          "duration": 0.3986482500000079
        },
        {
          "name": "E2",
          "midi": 40,
          "time": 280.1348550000005,
          "velocity": 0.47244094488188976,
          "duration": 0.19594575000002123
        },
        {
          "name": "G3",
          "midi": 55,
          "time": 280.1348550000005,
          "velocity": 0.47244094488188976,
          "duration": 0.19594575000002123
        },
        {
          "name": "E4",
          "midi": 64,
          "time": 280.1348550000005,
          "velocity": 0.47244094488188976,
          "duration": 0.19594575000002123
        },
        {
          "name": "E3",
          "midi": 52,
          "time": 280.1348550000005,
          "velocity": 0.47244094488188976,
          "duration": 0.19594575000002123
        },
        {
          "name": "B3",
          "midi": 59,
          "time": 280.1348550000005,
          "velocity": 0.47244094488188976,
          "duration": 0.19594575000002123
        },
        {
          "name": "A2",
          "midi": 45,
          "time": 280.1348550000005,
          "velocity": 0.47244094488188976,
          "duration": 0.19594575000002123
        },
        {
          "name": "B3",
          "midi": 59,
          "time": 280.33755750000057,
          "velocity": 0.47244094488188976,
          "duration": 0.3986482500000079
        },
        {
          "name": "A2",
          "midi": 45,
          "time": 280.33755750000057,
          "velocity": 0.47244094488188976,
          "duration": 0.3986482500000079
        },
        {
          "name": "E4",
          "midi": 64,
          "time": 280.33755750000057,
          "velocity": 0.47244094488188976,
          "duration": 0.3986482500000079
        },
        {
          "name": "E2",
          "midi": 40,
          "time": 280.33755750000057,
          "velocity": 0.47244094488188976,
          "duration": 0.3986482500000079
        },
        {
          "name": "G3",
          "midi": 55,
          "time": 280.33755750000057,
          "velocity": 0.47244094488188976,
          "duration": 0.3986482500000079
        },
        {
          "name": "E3",
          "midi": 52,
          "time": 280.33755750000057,
          "velocity": 0.47244094488188976,
          "duration": 0.3986482500000079
        },
        {
          "name": "E4",
          "midi": 64,
          "time": 280.7429625000006,
          "velocity": 0.47244094488188976,
          "duration": 0.19594575000002123
        },
        {
          "name": "G3",
          "midi": 55,
          "time": 280.7429625000006,
          "velocity": 0.47244094488188976,
          "duration": 0.19594575000002123
        },
        {
          "name": "E2",
          "midi": 40,
          "time": 280.7429625000006,
          "velocity": 0.47244094488188976,
          "duration": 0.19594575000002123
        },
        {
          "name": "B3",
          "midi": 59,
          "time": 280.7429625000006,
          "velocity": 0.47244094488188976,
          "duration": 0.19594575000002123
        },
        {
          "name": "E3",
          "midi": 52,
          "time": 280.7429625000006,
          "velocity": 0.47244094488188976,
          "duration": 0.19594575000002123
        },
        {
          "name": "A2",
          "midi": 45,
          "time": 280.7429625000006,
          "velocity": 0.47244094488188976,
          "duration": 0.19594575000002123
        },
        {
          "name": "G3",
          "midi": 55,
          "time": 280.94566500000064,
          "velocity": 0.47244094488188976,
          "duration": 0.3986482500000079
        },
        {
          "name": "E2",
          "midi": 40,
          "time": 280.94566500000064,
          "velocity": 0.47244094488188976,
          "duration": 0.3986482500000079
        },
        {
          "name": "E3",
          "midi": 52,
          "time": 280.94566500000064,
          "velocity": 0.47244094488188976,
          "duration": 0.3986482500000079
        },
        {
          "name": "E4",
          "midi": 64,
          "time": 280.94566500000064,
          "velocity": 0.47244094488188976,
          "duration": 0.3986482500000079
        },
        {
          "name": "B3",
          "midi": 59,
          "time": 280.94566500000064,
          "velocity": 0.47244094488188976,
          "duration": 0.3986482500000079
        },
        {
          "name": "A2",
          "midi": 45,
          "time": 280.94566500000064,
          "velocity": 0.47244094488188976,
          "duration": 0.3986482500000079
        },
        {
          "name": "G3",
          "midi": 55,
          "time": 281.3510700000007,
          "velocity": 0.47244094488188976,
          "duration": 0.3986482500000079
        },
        {
          "name": "B3",
          "midi": 59,
          "time": 281.3510700000007,
          "velocity": 0.47244094488188976,
          "duration": 0.3986482500000079
        },
        {
          "name": "A2",
          "midi": 45,
          "time": 281.3510700000007,
          "velocity": 0.47244094488188976,
          "duration": 0.3986482500000079
        },
        {
          "name": "E4",
          "midi": 64,
          "time": 281.3510700000007,
          "velocity": 0.47244094488188976,
          "duration": 0.3986482500000079
        },
        {
          "name": "E2",
          "midi": 40,
          "time": 281.3510700000007,
          "velocity": 0.47244094488188976,
          "duration": 0.3986482500000079
        },
        {
          "name": "E3",
          "midi": 52,
          "time": 281.3510700000007,
          "velocity": 0.47244094488188976,
          "duration": 0.3986482500000079
        },
        {
          "name": "A2",
          "midi": 45,
          "time": 281.7564750000007,
          "velocity": 0.47244094488188976,
          "duration": 0.3986482500000079
        },
        {
          "name": "E2",
          "midi": 40,
          "time": 281.7564750000007,
          "velocity": 0.47244094488188976,
          "duration": 0.3986482500000079
        },
        {
          "name": "G3",
          "midi": 55,
          "time": 281.7564750000007,
          "velocity": 0.47244094488188976,
          "duration": 0.3986482500000079
        },
        {
          "name": "E4",
          "midi": 64,
          "time": 281.7564750000007,
          "velocity": 0.47244094488188976,
          "duration": 0.3986482500000079
        },
        {
          "name": "E3",
          "midi": 52,
          "time": 281.7564750000007,
          "velocity": 0.47244094488188976,
          "duration": 0.3986482500000079
        },
        {
          "name": "B3",
          "midi": 59,
          "time": 281.7564750000007,
          "velocity": 0.47244094488188976,
          "duration": 0.3986482500000079
        },
        {
          "name": "C#4",
          "midi": 61,
          "time": 282.16188000000074,
          "velocity": 0.47244094488188976,
          "duration": 0.19594575000002123
        },
        {
          "name": "A#3",
          "midi": 58,
          "time": 282.16188000000074,
          "velocity": 0.47244094488188976,
          "duration": 0.19594575000002123
        },
        {
          "name": "F#3",
          "midi": 54,
          "time": 282.16188000000074,
          "velocity": 0.47244094488188976,
          "duration": 0.19594575000002123
        },
        {
          "name": "F#2",
          "midi": 42,
          "time": 282.16188000000074,
          "velocity": 0.47244094488188976,
          "duration": 0.19594575000002123
        },
        {
          "name": "C#3",
          "midi": 49,
          "time": 282.16188000000074,
          "velocity": 0.47244094488188976,
          "duration": 0.19594575000002123
        },
        {
          "name": "F#4",
          "midi": 66,
          "time": 282.16188000000074,
          "velocity": 0.47244094488188976,
          "duration": 0.19594575000002123
        },
        {
          "name": "A#3",
          "midi": 58,
          "time": 282.3645825000008,
          "velocity": 0.47244094488188976,
          "duration": 0.3986482500000079
        },
        {
          "name": "F#2",
          "midi": 42,
          "time": 282.3645825000008,
          "velocity": 0.47244094488188976,
          "duration": 0.3986482500000079
        },
        {
          "name": "C#3",
          "midi": 49,
          "time": 282.3645825000008,
          "velocity": 0.47244094488188976,
          "duration": 0.3986482500000079
        },
        {
          "name": "C#4",
          "midi": 61,
          "time": 282.3645825000008,
          "velocity": 0.47244094488188976,
          "duration": 0.3986482500000079
        },
        {
          "name": "F#3",
          "midi": 54,
          "time": 282.3645825000008,
          "velocity": 0.47244094488188976,
          "duration": 0.3986482500000079
        },
        {
          "name": "F#4",
          "midi": 66,
          "time": 282.3645825000008,
          "velocity": 0.47244094488188976,
          "duration": 0.3986482500000079
        },
        {
          "name": "F#4",
          "midi": 66,
          "time": 282.7699875000008,
          "velocity": 0.47244094488188976,
          "duration": 0.19594575000002123
        },
        {
          "name": "A#3",
          "midi": 58,
          "time": 282.7699875000008,
          "velocity": 0.47244094488188976,
          "duration": 0.19594575000002123
        },
        {
          "name": "C#3",
          "midi": 49,
          "time": 282.7699875000008,
          "velocity": 0.47244094488188976,
          "duration": 0.19594575000002123
        },
        {
          "name": "F#3",
          "midi": 54,
          "time": 282.7699875000008,
          "velocity": 0.47244094488188976,
          "duration": 0.19594575000002123
        },
        {
          "name": "F#2",
          "midi": 42,
          "time": 282.7699875000008,
          "velocity": 0.47244094488188976,
          "duration": 0.19594575000002123
        },
        {
          "name": "C#4",
          "midi": 61,
          "time": 282.7699875000008,
          "velocity": 0.47244094488188976,
          "duration": 0.19594575000002123
        },
        {
          "name": "F#2",
          "midi": 42,
          "time": 282.97269000000085,
          "velocity": 0.47244094488188976,
          "duration": 0.3986482500000079
        },
        {
          "name": "C#4",
          "midi": 61,
          "time": 282.97269000000085,
          "velocity": 0.47244094488188976,
          "duration": 0.3986482500000079
        },
        {
          "name": "F#3",
          "midi": 54,
          "time": 282.97269000000085,
          "velocity": 0.47244094488188976,
          "duration": 0.3986482500000079
        },
        {
          "name": "C#3",
          "midi": 49,
          "time": 282.97269000000085,
          "velocity": 0.47244094488188976,
          "duration": 0.3986482500000079
        },
        {
          "name": "A#3",
          "midi": 58,
          "time": 282.97269000000085,
          "velocity": 0.47244094488188976,
          "duration": 0.3986482500000079
        },
        {
          "name": "F#4",
          "midi": 66,
          "time": 282.97269000000085,
          "velocity": 0.47244094488188976,
          "duration": 0.3986482500000079
        },
        {
          "name": "F#2",
          "midi": 42,
          "time": 283.3780950000009,
          "velocity": 0.47244094488188976,
          "duration": 0.19594575000002123
        },
        {
          "name": "F#3",
          "midi": 54,
          "time": 283.3780950000009,
          "velocity": 0.47244094488188976,
          "duration": 0.19594575000002123
        },
        {
          "name": "A#3",
          "midi": 58,
          "time": 283.3780950000009,
          "velocity": 0.47244094488188976,
          "duration": 0.19594575000002123
        },
        {
          "name": "C#3",
          "midi": 49,
          "time": 283.3780950000009,
          "velocity": 0.47244094488188976,
          "duration": 0.19594575000002123
        },
        {
          "name": "F#4",
          "midi": 66,
          "time": 283.3780950000009,
          "velocity": 0.47244094488188976,
          "duration": 0.19594575000002123
        },
        {
          "name": "C#4",
          "midi": 61,
          "time": 283.3780950000009,
          "velocity": 0.47244094488188976,
          "duration": 0.19594575000002123
        },
        {
          "name": "F#4",
          "midi": 66,
          "time": 283.5807975000009,
          "velocity": 0.47244094488188976,
          "duration": 0.3986482500000079
        },
        {
          "name": "C#4",
          "midi": 61,
          "time": 283.5807975000009,
          "velocity": 0.47244094488188976,
          "duration": 0.3986482500000079
        },
        {
          "name": "A#3",
          "midi": 58,
          "time": 283.5807975000009,
          "velocity": 0.47244094488188976,
          "duration": 0.3986482500000079
        },
        {
          "name": "C#3",
          "midi": 49,
          "time": 283.5807975000009,
          "velocity": 0.47244094488188976,
          "duration": 0.3986482500000079
        },
        {
          "name": "F#2",
          "midi": 42,
          "time": 283.5807975000009,
          "velocity": 0.47244094488188976,
          "duration": 0.3986482500000079
        },
        {
          "name": "F#3",
          "midi": 54,
          "time": 283.5807975000009,
          "velocity": 0.47244094488188976,
          "duration": 0.3986482500000079
        },
        {
          "name": "F#3",
          "midi": 54,
          "time": 283.98620250000096,
          "velocity": 0.47244094488188976,
          "duration": 0.19594575000002123
        },
        {
          "name": "C#3",
          "midi": 49,
          "time": 283.98620250000096,
          "velocity": 0.47244094488188976,
          "duration": 0.19594575000002123
        },
        {
          "name": "C#4",
          "midi": 61,
          "time": 283.98620250000096,
          "velocity": 0.47244094488188976,
          "duration": 0.19594575000002123
        },
        {
          "name": "F#4",
          "midi": 66,
          "time": 283.98620250000096,
          "velocity": 0.47244094488188976,
          "duration": 0.19594575000002123
        },
        {
          "name": "F#2",
          "midi": 42,
          "time": 283.98620250000096,
          "velocity": 0.47244094488188976,
          "duration": 0.19594575000002123
        },
        {
          "name": "A#3",
          "midi": 58,
          "time": 283.98620250000096,
          "velocity": 0.47244094488188976,
          "duration": 0.19594575000002123
        },
        {
          "name": "A#3",
          "midi": 58,
          "time": 284.188905000001,
          "velocity": 0.47244094488188976,
          "duration": 0.3986482500000079
        },
        {
          "name": "C#3",
          "midi": 49,
          "time": 284.188905000001,
          "velocity": 0.47244094488188976,
          "duration": 0.3986482500000079
        },
        {
          "name": "C#4",
          "midi": 61,
          "time": 284.188905000001,
          "velocity": 0.47244094488188976,
          "duration": 0.3986482500000079
        },
        {
          "name": "F#3",
          "midi": 54,
          "time": 284.188905000001,
          "velocity": 0.47244094488188976,
          "duration": 0.3986482500000079
        },
        {
          "name": "F#2",
          "midi": 42,
          "time": 284.188905000001,
          "velocity": 0.47244094488188976,
          "duration": 0.3986482500000079
        },
        {
          "name": "F#4",
          "midi": 66,
          "time": 284.188905000001,
          "velocity": 0.47244094488188976,
          "duration": 0.3986482500000079
        },
        {
          "name": "A#3",
          "midi": 58,
          "time": 284.59431000000103,
          "velocity": 0.47244094488188976,
          "duration": 0.3986482500000079
        },
        {
          "name": "F#4",
          "midi": 66,
          "time": 284.59431000000103,
          "velocity": 0.47244094488188976,
          "duration": 0.3986482500000079
        },
        {
          "name": "C#4",
          "midi": 61,
          "time": 284.59431000000103,
          "velocity": 0.47244094488188976,
          "duration": 0.3986482500000079
        },
        {
          "name": "C#3",
          "midi": 49,
          "time": 284.59431000000103,
          "velocity": 0.47244094488188976,
          "duration": 0.3986482500000079
        },
        {
          "name": "F#2",
          "midi": 42,
          "time": 284.59431000000103,
          "velocity": 0.47244094488188976,
          "duration": 0.3986482500000079
        },
        {
          "name": "F#3",
          "midi": 54,
          "time": 284.59431000000103,
          "velocity": 0.47244094488188976,
          "duration": 0.3986482500000079
        },
        {
          "name": "F#4",
          "midi": 66,
          "time": 284.99971500000106,
          "velocity": 0.47244094488188976,
          "duration": 0.3986482500000079
        },
        {
          "name": "C#3",
          "midi": 49,
          "time": 284.99971500000106,
          "velocity": 0.47244094488188976,
          "duration": 0.3986482500000079
        },
        {
          "name": "F#2",
          "midi": 42,
          "time": 284.99971500000106,
          "velocity": 0.47244094488188976,
          "duration": 0.3986482500000079
        },
        {
          "name": "A#3",
          "midi": 58,
          "time": 284.99971500000106,
          "velocity": 0.47244094488188976,
          "duration": 0.3986482500000079
        },
        {
          "name": "F#3",
          "midi": 54,
          "time": 284.99971500000106,
          "velocity": 0.47244094488188976,
          "duration": 0.3986482500000079
        },
        {
          "name": "C#4",
          "midi": 61,
          "time": 284.99971500000106,
          "velocity": 0.47244094488188976,
          "duration": 0.3986482500000079
        },
        {
          "name": "D4",
          "midi": 62,
          "time": 285.4051200000011,
          "velocity": 0.47244094488188976,
          "duration": 0.19594575000002123
        },
        {
          "name": "B3",
          "midi": 59,
          "time": 285.4051200000011,
          "velocity": 0.47244094488188976,
          "duration": 0.19594575000002123
        },
        {
          "name": "F#2",
          "midi": 42,
          "time": 285.4051200000011,
          "velocity": 0.47244094488188976,
          "duration": 0.19594575000002123
        },
        {
          "name": "B2",
          "midi": 47,
          "time": 285.4051200000011,
          "velocity": 0.47244094488188976,
          "duration": 0.19594575000002123
        },
        {
          "name": "F#4",
          "midi": 66,
          "time": 285.4051200000011,
          "velocity": 0.47244094488188976,
          "duration": 0.19594575000002123
        },
        {
          "name": "F#3",
          "midi": 54,
          "time": 285.4051200000011,
          "velocity": 0.47244094488188976,
          "duration": 0.19594575000002123
        },
        {
          "name": "B3",
          "midi": 59,
          "time": 285.60782250000113,
          "velocity": 0.47244094488188976,
          "duration": 0.3986482500000079
        },
        {
          "name": "F#2",
          "midi": 42,
          "time": 285.60782250000113,
          "velocity": 0.47244094488188976,
          "duration": 0.3986482500000079
        },
        {
          "name": "D4",
          "midi": 62,
          "time": 285.60782250000113,
          "velocity": 0.47244094488188976,
          "duration": 0.3986482500000079
        },
        {
          "name": "F#3",
          "midi": 54,
          "time": 285.60782250000113,
          "velocity": 0.47244094488188976,
          "duration": 0.3986482500000079
        },
        {
          "name": "B2",
          "midi": 47,
          "time": 285.60782250000113,
          "velocity": 0.47244094488188976,
          "duration": 0.3986482500000079
        },
        {
          "name": "F#4",
          "midi": 66,
          "time": 285.60782250000113,
          "velocity": 0.47244094488188976,
          "duration": 0.3986482500000079
        },
        {
          "name": "B2",
          "midi": 47,
          "time": 286.01322750000116,
          "velocity": 0.47244094488188976,
          "duration": 0.19594575000002123
        },
        {
          "name": "F#2",
          "midi": 42,
          "time": 286.01322750000116,
          "velocity": 0.47244094488188976,
          "duration": 0.19594575000002123
        },
        {
          "name": "F#3",
          "midi": 54,
          "time": 286.01322750000116,
          "velocity": 0.47244094488188976,
          "duration": 0.19594575000002123
        },
        {
          "name": "B3",
          "midi": 59,
          "time": 286.01322750000116,
          "velocity": 0.47244094488188976,
          "duration": 0.19594575000002123
        },
        {
          "name": "F#4",
          "midi": 66,
          "time": 286.01322750000116,
          "velocity": 0.47244094488188976,
          "duration": 0.19594575000002123
        },
        {
          "name": "D4",
          "midi": 62,
          "time": 286.01322750000116,
          "velocity": 0.47244094488188976,
          "duration": 0.19594575000002123
        },
        {
          "name": "B3",
          "midi": 59,
          "time": 286.2159300000012,
          "velocity": 0.47244094488188976,
          "duration": 0.3986482500000079
        },
        {
          "name": "B2",
          "midi": 47,
          "time": 286.2159300000012,
          "velocity": 0.47244094488188976,
          "duration": 0.3986482500000079
        },
        {
          "name": "F#4",
          "midi": 66,
          "time": 286.2159300000012,
          "velocity": 0.47244094488188976,
          "duration": 0.3986482500000079
        },
        {
          "name": "F#3",
          "midi": 54,
          "time": 286.2159300000012,
          "velocity": 0.47244094488188976,
          "duration": 0.3986482500000079
        },
        {
          "name": "F#2",
          "midi": 42,
          "time": 286.2159300000012,
          "velocity": 0.47244094488188976,
          "duration": 0.3986482500000079
        },
        {
          "name": "D4",
          "midi": 62,
          "time": 286.2159300000012,
          "velocity": 0.47244094488188976,
          "duration": 0.3986482500000079
        },
        {
          "name": "F#2",
          "midi": 42,
          "time": 286.62133500000124,
          "velocity": 0.47244094488188976,
          "duration": 0.19594575000002123
        },
        {
          "name": "B3",
          "midi": 59,
          "time": 286.62133500000124,
          "velocity": 0.47244094488188976,
          "duration": 0.19594575000002123
        },
        {
          "name": "F#4",
          "midi": 66,
          "time": 286.62133500000124,
          "velocity": 0.47244094488188976,
          "duration": 0.19594575000002123
        },
        {
          "name": "F#3",
          "midi": 54,
          "time": 286.62133500000124,
          "velocity": 0.47244094488188976,
          "duration": 0.19594575000002123
        },
        {
          "name": "D4",
          "midi": 62,
          "time": 286.62133500000124,
          "velocity": 0.47244094488188976,
          "duration": 0.19594575000002123
        },
        {
          "name": "B2",
          "midi": 47,
          "time": 286.62133500000124,
          "velocity": 0.47244094488188976,
          "duration": 0.19594575000002123
        },
        {
          "name": "D4",
          "midi": 62,
          "time": 286.8240375000013,
          "velocity": 0.47244094488188976,
          "duration": 0.3986482500000079
        },
        {
          "name": "B2",
          "midi": 47,
          "time": 286.8240375000013,
          "velocity": 0.47244094488188976,
          "duration": 0.3986482500000079
        },
        {
          "name": "F#4",
          "midi": 66,
          "time": 286.8240375000013,
          "velocity": 0.47244094488188976,
          "duration": 0.3986482500000079
        },
        {
          "name": "F#2",
          "midi": 42,
          "time": 286.8240375000013,
          "velocity": 0.47244094488188976,
          "duration": 0.3986482500000079
        },
        {
          "name": "B3",
          "midi": 59,
          "time": 286.8240375000013,
          "velocity": 0.47244094488188976,
          "duration": 0.3986482500000079
        },
        {
          "name": "F#3",
          "midi": 54,
          "time": 286.8240375000013,
          "velocity": 0.47244094488188976,
          "duration": 0.3986482500000079
        },
        {
          "name": "F#4",
          "midi": 66,
          "time": 287.2294425000013,
          "velocity": 0.47244094488188976,
          "duration": 0.19594575000002123
        },
        {
          "name": "B3",
          "midi": 59,
          "time": 287.2294425000013,
          "velocity": 0.47244094488188976,
          "duration": 0.19594575000002123
        },
        {
          "name": "F#2",
          "midi": 42,
          "time": 287.2294425000013,
          "velocity": 0.47244094488188976,
          "duration": 0.19594575000002123
        },
        {
          "name": "D4",
          "midi": 62,
          "time": 287.2294425000013,
          "velocity": 0.47244094488188976,
          "duration": 0.19594575000002123
        },
        {
          "name": "F#3",
          "midi": 54,
          "time": 287.2294425000013,
          "velocity": 0.47244094488188976,
          "duration": 0.19594575000002123
        },
        {
          "name": "B2",
          "midi": 47,
          "time": 287.2294425000013,
          "velocity": 0.47244094488188976,
          "duration": 0.19594575000002123
        },
        {
          "name": "B3",
          "midi": 59,
          "time": 287.43214500000136,
          "velocity": 0.47244094488188976,
          "duration": 0.3986482500000079
        },
        {
          "name": "F#2",
          "midi": 42,
          "time": 287.43214500000136,
          "velocity": 0.47244094488188976,
          "duration": 0.3986482500000079
        },
        {
          "name": "F#3",
          "midi": 54,
          "time": 287.43214500000136,
          "velocity": 0.47244094488188976,
          "duration": 0.3986482500000079
        },
        {
          "name": "F#4",
          "midi": 66,
          "time": 287.43214500000136,
          "velocity": 0.47244094488188976,
          "duration": 0.3986482500000079
        },
        {
          "name": "D4",
          "midi": 62,
          "time": 287.43214500000136,
          "velocity": 0.47244094488188976,
          "duration": 0.3986482500000079
        },
        {
          "name": "B2",
          "midi": 47,
          "time": 287.43214500000136,
          "velocity": 0.47244094488188976,
          "duration": 0.3986482500000079
        },
        {
          "name": "B3",
          "midi": 59,
          "time": 287.8375500000014,
          "velocity": 0.47244094488188976,
          "duration": 0.3986482500000079
        },
        {
          "name": "D4",
          "midi": 62,
          "time": 287.8375500000014,
          "velocity": 0.47244094488188976,
          "duration": 0.3986482500000079
        },
        {
          "name": "B2",
          "midi": 47,
          "time": 287.8375500000014,
          "velocity": 0.47244094488188976,
          "duration": 0.3986482500000079
        },
        {
          "name": "F#4",
          "midi": 66,
          "time": 287.8375500000014,
          "velocity": 0.47244094488188976,
          "duration": 0.3986482500000079
        },
        {
          "name": "F#2",
          "midi": 42,
          "time": 287.8375500000014,
          "velocity": 0.47244094488188976,
          "duration": 0.3986482500000079
        },
        {
          "name": "F#3",
          "midi": 54,
          "time": 287.8375500000014,
          "velocity": 0.47244094488188976,
          "duration": 0.3986482500000079
        },
        {
          "name": "B2",
          "midi": 47,
          "time": 288.2429550000014,
          "velocity": 0.47244094488188976,
          "duration": 0.3986482500000079
        },
        {
          "name": "F#2",
          "midi": 42,
          "time": 288.2429550000014,
          "velocity": 0.47244094488188976,
          "duration": 0.3986482500000079
        },
        {
          "name": "B3",
          "midi": 59,
          "time": 288.2429550000014,
          "velocity": 0.47244094488188976,
          "duration": 0.3986482500000079
        },
        {
          "name": "F#4",
          "midi": 66,
          "time": 288.2429550000014,
          "velocity": 0.47244094488188976,
          "duration": 0.3986482500000079
        },
        {
          "name": "F#3",
          "midi": 54,
          "time": 288.2429550000014,
          "velocity": 0.47244094488188976,
          "duration": 0.3986482500000079
        },
        {
          "name": "D4",
          "midi": 62,
          "time": 288.2429550000014,
          "velocity": 0.47244094488188976,
          "duration": 0.3986482500000079
        },
        {
          "name": "C#4",
          "midi": 61,
          "time": 288.64836000000145,
          "velocity": 0.47244094488188976,
          "duration": 0.19594575000002123
        },
        {
          "name": "A#3",
          "midi": 58,
          "time": 288.64836000000145,
          "velocity": 0.47244094488188976,
          "duration": 0.19594575000002123
        },
        {
          "name": "F#3",
          "midi": 54,
          "time": 288.64836000000145,
          "velocity": 0.47244094488188976,
          "duration": 0.19594575000002123
        },
        {
          "name": "F#2",
          "midi": 42,
          "time": 288.64836000000145,
          "velocity": 0.47244094488188976,
          "duration": 0.19594575000002123
        },
        {
          "name": "C#3",
          "midi": 49,
          "time": 288.64836000000145,
          "velocity": 0.47244094488188976,
          "duration": 0.19594575000002123
        },
        {
          "name": "F#4",
          "midi": 66,
          "time": 288.64836000000145,
          "velocity": 0.47244094488188976,
          "duration": 0.19594575000002123
        },
        {
          "name": "A#3",
          "midi": 58,
          "time": 288.8510625000015,
          "velocity": 0.47244094488188976,
          "duration": 0.3986482500000079
        },
        {
          "name": "F#2",
          "midi": 42,
          "time": 288.8510625000015,
          "velocity": 0.47244094488188976,
          "duration": 0.3986482500000079
        },
        {
          "name": "C#3",
          "midi": 49,
          "time": 288.8510625000015,
          "velocity": 0.47244094488188976,
          "duration": 0.3986482500000079
        },
        {
          "name": "C#4",
          "midi": 61,
          "time": 288.8510625000015,
          "velocity": 0.47244094488188976,
          "duration": 0.3986482500000079
        },
        {
          "name": "F#3",
          "midi": 54,
          "time": 288.8510625000015,
          "velocity": 0.47244094488188976,
          "duration": 0.3986482500000079
        },
        {
          "name": "F#4",
          "midi": 66,
          "time": 288.8510625000015,
          "velocity": 0.47244094488188976,
          "duration": 0.3986482500000079
        },
        {
          "name": "F#4",
          "midi": 66,
          "time": 289.2564675000015,
          "velocity": 0.47244094488188976,
          "duration": 0.19594575000002123
        },
        {
          "name": "A#3",
          "midi": 58,
          "time": 289.2564675000015,
          "velocity": 0.47244094488188976,
          "duration": 0.19594575000002123
        },
        {
          "name": "C#3",
          "midi": 49,
          "time": 289.2564675000015,
          "velocity": 0.47244094488188976,
          "duration": 0.19594575000002123
        },
        {
          "name": "F#3",
          "midi": 54,
          "time": 289.2564675000015,
          "velocity": 0.47244094488188976,
          "duration": 0.19594575000002123
        },
        {
          "name": "F#2",
          "midi": 42,
          "time": 289.2564675000015,
          "velocity": 0.47244094488188976,
          "duration": 0.19594575000002123
        },
        {
          "name": "C#4",
          "midi": 61,
          "time": 289.2564675000015,
          "velocity": 0.47244094488188976,
          "duration": 0.19594575000002123
        },
        {
          "name": "F#2",
          "midi": 42,
          "time": 289.45917000000156,
          "velocity": 0.47244094488188976,
          "duration": 0.3986482500000079
        },
        {
          "name": "C#4",
          "midi": 61,
          "time": 289.45917000000156,
          "velocity": 0.47244094488188976,
          "duration": 0.3986482500000079
        },
        {
          "name": "F#3",
          "midi": 54,
          "time": 289.45917000000156,
          "velocity": 0.47244094488188976,
          "duration": 0.3986482500000079
        },
        {
          "name": "C#3",
          "midi": 49,
          "time": 289.45917000000156,
          "velocity": 0.47244094488188976,
          "duration": 0.3986482500000079
        },
        {
          "name": "A#3",
          "midi": 58,
          "time": 289.45917000000156,
          "velocity": 0.47244094488188976,
          "duration": 0.3986482500000079
        },
        {
          "name": "F#4",
          "midi": 66,
          "time": 289.45917000000156,
          "velocity": 0.47244094488188976,
          "duration": 0.3986482500000079
        },
        {
          "name": "F#2",
          "midi": 42,
          "time": 289.8645750000016,
          "velocity": 0.47244094488188976,
          "duration": 0.19594575000002123
        },
        {
          "name": "F#3",
          "midi": 54,
          "time": 289.8645750000016,
          "velocity": 0.47244094488188976,
          "duration": 0.19594575000002123
        },
        {
          "name": "A#3",
          "midi": 58,
          "time": 289.8645750000016,
          "velocity": 0.47244094488188976,
          "duration": 0.19594575000002123
        },
        {
          "name": "C#3",
          "midi": 49,
          "time": 289.8645750000016,
          "velocity": 0.47244094488188976,
          "duration": 0.19594575000002123
        },
        {
          "name": "F#4",
          "midi": 66,
          "time": 289.8645750000016,
          "velocity": 0.47244094488188976,
          "duration": 0.19594575000002123
        },
        {
          "name": "C#4",
          "midi": 61,
          "time": 289.8645750000016,
          "velocity": 0.47244094488188976,
          "duration": 0.19594575000002123
        },
        {
          "name": "F#4",
          "midi": 66,
          "time": 290.06727750000164,
          "velocity": 0.47244094488188976,
          "duration": 0.3986482500000079
        },
        {
          "name": "C#4",
          "midi": 61,
          "time": 290.06727750000164,
          "velocity": 0.47244094488188976,
          "duration": 0.3986482500000079
        },
        {
          "name": "A#3",
          "midi": 58,
          "time": 290.06727750000164,
          "velocity": 0.47244094488188976,
          "duration": 0.3986482500000079
        },
        {
          "name": "C#3",
          "midi": 49,
          "time": 290.06727750000164,
          "velocity": 0.47244094488188976,
          "duration": 0.3986482500000079
        },
        {
          "name": "F#2",
          "midi": 42,
          "time": 290.06727750000164,
          "velocity": 0.47244094488188976,
          "duration": 0.3986482500000079
        },
        {
          "name": "F#3",
          "midi": 54,
          "time": 290.06727750000164,
          "velocity": 0.47244094488188976,
          "duration": 0.3986482500000079
        },
        {
          "name": "F#3",
          "midi": 54,
          "time": 290.47268250000167,
          "velocity": 0.47244094488188976,
          "duration": 0.19594575000002123
        },
        {
          "name": "C#3",
          "midi": 49,
          "time": 290.47268250000167,
          "velocity": 0.47244094488188976,
          "duration": 0.19594575000002123
        },
        {
          "name": "C#4",
          "midi": 61,
          "time": 290.47268250000167,
          "velocity": 0.47244094488188976,
          "duration": 0.19594575000002123
        },
        {
          "name": "F#4",
          "midi": 66,
          "time": 290.47268250000167,
          "velocity": 0.47244094488188976,
          "duration": 0.19594575000002123
        },
        {
          "name": "F#2",
          "midi": 42,
          "time": 290.47268250000167,
          "velocity": 0.47244094488188976,
          "duration": 0.19594575000002123
        },
        {
          "name": "A#3",
          "midi": 58,
          "time": 290.47268250000167,
          "velocity": 0.47244094488188976,
          "duration": 0.19594575000002123
        },
        {
          "name": "A#3",
          "midi": 58,
          "time": 290.6753850000017,
          "velocity": 0.47244094488188976,
          "duration": 0.3986482500000079
        },
        {
          "name": "C#3",
          "midi": 49,
          "time": 290.6753850000017,
          "velocity": 0.47244094488188976,
          "duration": 0.3986482500000079
        },
        {
          "name": "C#4",
          "midi": 61,
          "time": 290.6753850000017,
          "velocity": 0.47244094488188976,
          "duration": 0.3986482500000079
        },
        {
          "name": "F#3",
          "midi": 54,
          "time": 290.6753850000017,
          "velocity": 0.47244094488188976,
          "duration": 0.3986482500000079
        },
        {
          "name": "F#2",
          "midi": 42,
          "time": 290.6753850000017,
          "velocity": 0.47244094488188976,
          "duration": 0.3986482500000079
        },
        {
          "name": "F#4",
          "midi": 66,
          "time": 290.6753850000017,
          "velocity": 0.47244094488188976,
          "duration": 0.3986482500000079
        },
        {
          "name": "A#3",
          "midi": 58,
          "time": 291.08079000000174,
          "velocity": 0.47244094488188976,
          "duration": 0.3986482500000079
        },
        {
          "name": "F#4",
          "midi": 66,
          "time": 291.08079000000174,
          "velocity": 0.47244094488188976,
          "duration": 0.3986482500000079
        },
        {
          "name": "C#4",
          "midi": 61,
          "time": 291.08079000000174,
          "velocity": 0.47244094488188976,
          "duration": 0.3986482500000079
        },
        {
          "name": "C#3",
          "midi": 49,
          "time": 291.08079000000174,
          "velocity": 0.47244094488188976,
          "duration": 0.3986482500000079
        },
        {
          "name": "F#2",
          "midi": 42,
          "time": 291.08079000000174,
          "velocity": 0.47244094488188976,
          "duration": 0.3986482500000079
        },
        {
          "name": "F#3",
          "midi": 54,
          "time": 291.08079000000174,
          "velocity": 0.47244094488188976,
          "duration": 0.3986482500000079
        },
        {
          "name": "F#4",
          "midi": 66,
          "time": 291.48619500000177,
          "velocity": 0.47244094488188976,
          "duration": 0.3986482500000079
        },
        {
          "name": "C#3",
          "midi": 49,
          "time": 291.48619500000177,
          "velocity": 0.47244094488188976,
          "duration": 0.3986482500000079
        },
        {
          "name": "F#2",
          "midi": 42,
          "time": 291.48619500000177,
          "velocity": 0.47244094488188976,
          "duration": 0.3986482500000079
        },
        {
          "name": "A#3",
          "midi": 58,
          "time": 291.48619500000177,
          "velocity": 0.47244094488188976,
          "duration": 0.3986482500000079
        },
        {
          "name": "F#3",
          "midi": 54,
          "time": 291.48619500000177,
          "velocity": 0.47244094488188976,
          "duration": 0.3986482500000079
        },
        {
          "name": "C#4",
          "midi": 61,
          "time": 291.48619500000177,
          "velocity": 0.47244094488188976,
          "duration": 0.3986482500000079
        },
        {
          "name": "C#4",
          "midi": 61,
          "time": 291.8916000000018,
          "velocity": 0.47244094488188976,
          "duration": 0.19594575000002123
        },
        {
          "name": "A3",
          "midi": 57,
          "time": 291.8916000000018,
          "velocity": 0.47244094488188976,
          "duration": 0.19594575000002123
        },
        {
          "name": "E2",
          "midi": 40,
          "time": 291.8916000000018,
          "velocity": 0.47244094488188976,
          "duration": 0.19594575000002123
        },
        {
          "name": "A2",
          "midi": 45,
          "time": 291.8916000000018,
          "velocity": 0.47244094488188976,
          "duration": 0.19594575000002123
        },
        {
          "name": "E4",
          "midi": 64,
          "time": 291.8916000000018,
          "velocity": 0.47244094488188976,
          "duration": 0.19594575000002123
        },
        {
          "name": "E3",
          "midi": 52,
          "time": 291.8916000000018,
          "velocity": 0.47244094488188976,
          "duration": 0.19594575000002123
        },
        {
          "name": "A3",
          "midi": 57,
          "time": 292.09430250000185,
          "velocity": 0.47244094488188976,
          "duration": 0.3986482500000079
        },
        {
          "name": "E2",
          "midi": 40,
          "time": 292.09430250000185,
          "velocity": 0.47244094488188976,
          "duration": 0.3986482500000079
        },
        {
          "name": "C#4",
          "midi": 61,
          "time": 292.09430250000185,
          "velocity": 0.47244094488188976,
          "duration": 0.3986482500000079
        },
        {
          "name": "E3",
          "midi": 52,
          "time": 292.09430250000185,
          "velocity": 0.47244094488188976,
          "duration": 0.3986482500000079
        },
        {
          "name": "A2",
          "midi": 45,
          "time": 292.09430250000185,
          "velocity": 0.47244094488188976,
          "duration": 0.3986482500000079
        },
        {
          "name": "E4",
          "midi": 64,
          "time": 292.09430250000185,
          "velocity": 0.47244094488188976,
          "duration": 0.3986482500000079
        },
        {
          "name": "A2",
          "midi": 45,
          "time": 292.4997075000019,
          "velocity": 0.47244094488188976,
          "duration": 0.19594575000002123
        },
        {
          "name": "E2",
          "midi": 40,
          "time": 292.4997075000019,
          "velocity": 0.47244094488188976,
          "duration": 0.19594575000002123
        },
        {
          "name": "E3",
          "midi": 52,
          "time": 292.4997075000019,
          "velocity": 0.47244094488188976,
          "duration": 0.19594575000002123
        },
        {
          "name": "A3",
          "midi": 57,
          "time": 292.4997075000019,
          "velocity": 0.47244094488188976,
          "duration": 0.19594575000002123
        },
        {
          "name": "E4",
          "midi": 64,
          "time": 292.4997075000019,
          "velocity": 0.47244094488188976,
          "duration": 0.19594575000002123
        },
        {
          "name": "C#4",
          "midi": 61,
          "time": 292.4997075000019,
          "velocity": 0.47244094488188976,
          "duration": 0.19594575000002123
        },
        {
          "name": "A3",
          "midi": 57,
          "time": 292.7024100000019,
          "velocity": 0.47244094488188976,
          "duration": 0.3986482500000079
        },
        {
          "name": "A2",
          "midi": 45,
          "time": 292.7024100000019,
          "velocity": 0.47244094488188976,
          "duration": 0.3986482500000079
        },
        {
          "name": "E4",
          "midi": 64,
          "time": 292.7024100000019,
          "velocity": 0.47244094488188976,
          "duration": 0.3986482500000079
        },
        {
          "name": "E3",
          "midi": 52,
          "time": 292.7024100000019,
          "velocity": 0.47244094488188976,
          "duration": 0.3986482500000079
        },
        {
          "name": "E2",
          "midi": 40,
          "time": 292.7024100000019,
          "velocity": 0.47244094488188976,
          "duration": 0.3986482500000079
        },
        {
          "name": "C#4",
          "midi": 61,
          "time": 292.7024100000019,
          "velocity": 0.47244094488188976,
          "duration": 0.3986482500000079
        },
        {
          "name": "E2",
          "midi": 40,
          "time": 293.10781500000195,
          "velocity": 0.47244094488188976,
          "duration": 0.19594575000002123
        },
        {
          "name": "A3",
          "midi": 57,
          "time": 293.10781500000195,
          "velocity": 0.47244094488188976,
          "duration": 0.19594575000002123
        },
        {
          "name": "E4",
          "midi": 64,
          "time": 293.10781500000195,
          "velocity": 0.47244094488188976,
          "duration": 0.19594575000002123
        },
        {
          "name": "E3",
          "midi": 52,
          "time": 293.10781500000195,
          "velocity": 0.47244094488188976,
          "duration": 0.19594575000002123
        },
        {
          "name": "C#4",
          "midi": 61,
          "time": 293.10781500000195,
          "velocity": 0.47244094488188976,
          "duration": 0.19594575000002123
        },
        {
          "name": "A2",
          "midi": 45,
          "time": 293.10781500000195,
          "velocity": 0.47244094488188976,
          "duration": 0.19594575000002123
        },
        {
          "name": "C#4",
          "midi": 61,
          "time": 293.310517500002,
          "velocity": 0.47244094488188976,
          "duration": 0.3986482500000079
        },
        {
          "name": "A2",
          "midi": 45,
          "time": 293.310517500002,
          "velocity": 0.47244094488188976,
          "duration": 0.3986482500000079
        },
        {
          "name": "E4",
          "midi": 64,
          "time": 293.310517500002,
          "velocity": 0.47244094488188976,
          "duration": 0.3986482500000079
        },
        {
          "name": "E2",
          "midi": 40,
          "time": 293.310517500002,
          "velocity": 0.47244094488188976,
          "duration": 0.3986482500000079
        },
        {
          "name": "A3",
          "midi": 57,
          "time": 293.310517500002,
          "velocity": 0.47244094488188976,
          "duration": 0.3986482500000079
        },
        {
          "name": "E3",
          "midi": 52,
          "time": 293.310517500002,
          "velocity": 0.47244094488188976,
          "duration": 0.3986482500000079
        },
        {
          "name": "E4",
          "midi": 64,
          "time": 293.715922500002,
          "velocity": 0.47244094488188976,
          "duration": 0.19594575000002123
        },
        {
          "name": "A3",
          "midi": 57,
          "time": 293.715922500002,
          "velocity": 0.47244094488188976,
          "duration": 0.19594575000002123
        },
        {
          "name": "E2",
          "midi": 40,
          "time": 293.715922500002,
          "velocity": 0.47244094488188976,
          "duration": 0.19594575000002123
        },
        {
          "name": "C#4",
          "midi": 61,
          "time": 293.715922500002,
          "velocity": 0.47244094488188976,
          "duration": 0.19594575000002123
        },
        {
          "name": "E3",
          "midi": 52,
          "time": 293.715922500002,
          "velocity": 0.47244094488188976,
          "duration": 0.19594575000002123
        },
        {
          "name": "A2",
          "midi": 45,
          "time": 293.715922500002,
          "velocity": 0.47244094488188976,
          "duration": 0.19594575000002123
        },
        {
          "name": "A3",
          "midi": 57,
          "time": 293.91862500000207,
          "velocity": 0.47244094488188976,
          "duration": 0.3986482500000079
        },
        {
          "name": "E2",
          "midi": 40,
          "time": 293.91862500000207,
          "velocity": 0.47244094488188976,
          "duration": 0.3986482500000079
        },
        {
          "name": "E3",
          "midi": 52,
          "time": 293.91862500000207,
          "velocity": 0.47244094488188976,
          "duration": 0.3986482500000079
        },
        {
          "name": "E4",
          "midi": 64,
          "time": 293.91862500000207,
          "velocity": 0.47244094488188976,
          "duration": 0.3986482500000079
        },
        {
          "name": "C#4",
          "midi": 61,
          "time": 293.91862500000207,
          "velocity": 0.47244094488188976,
          "duration": 0.3986482500000079
        },
        {
          "name": "A2",
          "midi": 45,
          "time": 293.91862500000207,
          "velocity": 0.47244094488188976,
          "duration": 0.3986482500000079
        },
        {
          "name": "A3",
          "midi": 57,
          "time": 294.3240300000021,
          "velocity": 0.47244094488188976,
          "duration": 0.3986482500000079
        },
        {
          "name": "C#4",
          "midi": 61,
          "time": 294.3240300000021,
          "velocity": 0.47244094488188976,
          "duration": 0.3986482500000079
        },
        {
          "name": "A2",
          "midi": 45,
          "time": 294.3240300000021,
          "velocity": 0.47244094488188976,
          "duration": 0.3986482500000079
        },
        {
          "name": "E4",
          "midi": 64,
          "time": 294.3240300000021,
          "velocity": 0.47244094488188976,
          "duration": 0.3986482500000079
        },
        {
          "name": "E2",
          "midi": 40,
          "time": 294.3240300000021,
          "velocity": 0.47244094488188976,
          "duration": 0.3986482500000079
        },
        {
          "name": "E3",
          "midi": 52,
          "time": 294.3240300000021,
          "velocity": 0.47244094488188976,
          "duration": 0.3986482500000079
        },
        {
          "name": "A2",
          "midi": 45,
          "time": 294.7294350000021,
          "velocity": 0.47244094488188976,
          "duration": 0.3986482500000079
        },
        {
          "name": "E2",
          "midi": 40,
          "time": 294.7294350000021,
          "velocity": 0.47244094488188976,
          "duration": 0.3986482500000079
        },
        {
          "name": "A3",
          "midi": 57,
          "time": 294.7294350000021,
          "velocity": 0.47244094488188976,
          "duration": 0.3986482500000079
        },
        {
          "name": "E4",
          "midi": 64,
          "time": 294.7294350000021,
          "velocity": 0.47244094488188976,
          "duration": 0.3986482500000079
        },
        {
          "name": "E3",
          "midi": 52,
          "time": 294.7294350000021,
          "velocity": 0.47244094488188976,
          "duration": 0.3986482500000079
        },
        {
          "name": "C#4",
          "midi": 61,
          "time": 294.7294350000021,
          "velocity": 0.47244094488188976,
          "duration": 0.3986482500000079
        },
        {
          "name": "B3",
          "midi": 59,
          "time": 295.13484000000216,
          "velocity": 0.47244094488188976,
          "duration": 0.19594575000002123
        },
        {
          "name": "G#3",
          "midi": 56,
          "time": 295.13484000000216,
          "velocity": 0.47244094488188976,
          "duration": 0.19594575000002123
        },
        {
          "name": "E3",
          "midi": 52,
          "time": 295.13484000000216,
          "velocity": 0.47244094488188976,
          "duration": 0.19594575000002123
        },
        {
          "name": "E2",
          "midi": 40,
          "time": 295.13484000000216,
          "velocity": 0.47244094488188976,
          "duration": 0.19594575000002123
        },
        {
          "name": "B2",
          "midi": 47,
          "time": 295.13484000000216,
          "velocity": 0.47244094488188976,
          "duration": 0.19594575000002123
        },
        {
          "name": "E4",
          "midi": 64,
          "time": 295.13484000000216,
          "velocity": 0.47244094488188976,
          "duration": 0.19594575000002123
        },
        {
          "name": "G#3",
          "midi": 56,
          "time": 295.3375425000022,
          "velocity": 0.47244094488188976,
          "duration": 0.3986482500000079
        },
        {
          "name": "E2",
          "midi": 40,
          "time": 295.3375425000022,
          "velocity": 0.47244094488188976,
          "duration": 0.3986482500000079
        },
        {
          "name": "B2",
          "midi": 47,
          "time": 295.3375425000022,
          "velocity": 0.47244094488188976,
          "duration": 0.3986482500000079
        },
        {
          "name": "B3",
          "midi": 59,
          "time": 295.3375425000022,
          "velocity": 0.47244094488188976,
          "duration": 0.3986482500000079
        },
        {
          "name": "E3",
          "midi": 52,
          "time": 295.3375425000022,
          "velocity": 0.47244094488188976,
          "duration": 0.3986482500000079
        },
        {
          "name": "E4",
          "midi": 64,
          "time": 295.3375425000022,
          "velocity": 0.47244094488188976,
          "duration": 0.3986482500000079
        },
        {
          "name": "E4",
          "midi": 64,
          "time": 295.74294750000223,
          "velocity": 0.47244094488188976,
          "duration": 0.19594575000002123
        },
        {
          "name": "G#3",
          "midi": 56,
          "time": 295.74294750000223,
          "velocity": 0.47244094488188976,
          "duration": 0.19594575000002123
        },
        {
          "name": "B2",
          "midi": 47,
          "time": 295.74294750000223,
          "velocity": 0.47244094488188976,
          "duration": 0.19594575000002123
        },
        {
          "name": "E3",
          "midi": 52,
          "time": 295.74294750000223,
          "velocity": 0.47244094488188976,
          "duration": 0.19594575000002123
        },
        {
          "name": "E2",
          "midi": 40,
          "time": 295.74294750000223,
          "velocity": 0.47244094488188976,
          "duration": 0.19594575000002123
        },
        {
          "name": "B3",
          "midi": 59,
          "time": 295.74294750000223,
          "velocity": 0.47244094488188976,
          "duration": 0.19594575000002123
        },
        {
          "name": "E2",
          "midi": 40,
          "time": 295.9456500000023,
          "velocity": 0.47244094488188976,
          "duration": 0.3986482500000079
        },
        {
          "name": "B3",
          "midi": 59,
          "time": 295.9456500000023,
          "velocity": 0.47244094488188976,
          "duration": 0.3986482500000079
        },
        {
          "name": "E3",
          "midi": 52,
          "time": 295.9456500000023,
          "velocity": 0.47244094488188976,
          "duration": 0.3986482500000079
        },
        {
          "name": "B2",
          "midi": 47,
          "time": 295.9456500000023,
          "velocity": 0.47244094488188976,
          "duration": 0.3986482500000079
        },
        {
          "name": "G#3",
          "midi": 56,
          "time": 295.9456500000023,
          "velocity": 0.47244094488188976,
          "duration": 0.3986482500000079
        },
        {
          "name": "E4",
          "midi": 64,
          "time": 295.9456500000023,
          "velocity": 0.47244094488188976,
          "duration": 0.3986482500000079
        },
        {
          "name": "E2",
          "midi": 40,
          "time": 296.3510550000023,
          "velocity": 0.47244094488188976,
          "duration": 0.19594575000002123
        },
        {
          "name": "E3",
          "midi": 52,
          "time": 296.3510550000023,
          "velocity": 0.47244094488188976,
          "duration": 0.19594575000002123
        },
        {
          "name": "G#3",
          "midi": 56,
          "time": 296.3510550000023,
          "velocity": 0.47244094488188976,
          "duration": 0.19594575000002123
        },
        {
          "name": "B2",
          "midi": 47,
          "time": 296.3510550000023,
          "velocity": 0.47244094488188976,
          "duration": 0.19594575000002123
        },
        {
          "name": "E4",
          "midi": 64,
          "time": 296.3510550000023,
          "velocity": 0.47244094488188976,
          "duration": 0.19594575000002123
        },
        {
          "name": "B3",
          "midi": 59,
          "time": 296.3510550000023,
          "velocity": 0.47244094488188976,
          "duration": 0.19594575000002123
        },
        {
          "name": "E4",
          "midi": 64,
          "time": 296.55375750000235,
          "velocity": 0.47244094488188976,
          "duration": 0.3986482500000079
        },
        {
          "name": "B3",
          "midi": 59,
          "time": 296.55375750000235,
          "velocity": 0.47244094488188976,
          "duration": 0.3986482500000079
        },
        {
          "name": "G#3",
          "midi": 56,
          "time": 296.55375750000235,
          "velocity": 0.47244094488188976,
          "duration": 0.3986482500000079
        },
        {
          "name": "B2",
          "midi": 47,
          "time": 296.55375750000235,
          "velocity": 0.47244094488188976,
          "duration": 0.3986482500000079
        },
        {
          "name": "E2",
          "midi": 40,
          "time": 296.55375750000235,
          "velocity": 0.47244094488188976,
          "duration": 0.3986482500000079
        },
        {
          "name": "E3",
          "midi": 52,
          "time": 296.55375750000235,
          "velocity": 0.47244094488188976,
          "duration": 0.3986482500000079
        },
        {
          "name": "E3",
          "midi": 52,
          "time": 296.9591625000024,
          "velocity": 0.47244094488188976,
          "duration": 0.19594575000002123
        },
        {
          "name": "B2",
          "midi": 47,
          "time": 296.9591625000024,
          "velocity": 0.47244094488188976,
          "duration": 0.19594575000002123
        },
        {
          "name": "B3",
          "midi": 59,
          "time": 296.9591625000024,
          "velocity": 0.47244094488188976,
          "duration": 0.19594575000002123
        },
        {
          "name": "E4",
          "midi": 64,
          "time": 296.9591625000024,
          "velocity": 0.47244094488188976,
          "duration": 0.19594575000002123
        },
        {
          "name": "E2",
          "midi": 40,
          "time": 296.9591625000024,
          "velocity": 0.47244094488188976,
          "duration": 0.19594575000002123
        },
        {
          "name": "G#3",
          "midi": 56,
          "time": 296.9591625000024,
          "velocity": 0.47244094488188976,
          "duration": 0.19594575000002123
        },
        {
          "name": "G#3",
          "midi": 56,
          "time": 297.1618650000024,
          "velocity": 0.47244094488188976,
          "duration": 0.3986482500000079
        },
        {
          "name": "B2",
          "midi": 47,
          "time": 297.1618650000024,
          "velocity": 0.47244094488188976,
          "duration": 0.3986482500000079
        },
        {
          "name": "B3",
          "midi": 59,
          "time": 297.1618650000024,
          "velocity": 0.47244094488188976,
          "duration": 0.3986482500000079
        },
        {
          "name": "E3",
          "midi": 52,
          "time": 297.1618650000024,
          "velocity": 0.47244094488188976,
          "duration": 0.3986482500000079
        },
        {
          "name": "E2",
          "midi": 40,
          "time": 297.1618650000024,
          "velocity": 0.47244094488188976,
          "duration": 0.3986482500000079
        },
        {
          "name": "E4",
          "midi": 64,
          "time": 297.1618650000024,
          "velocity": 0.47244094488188976,
          "duration": 0.3986482500000079
        },
        {
          "name": "G#3",
          "midi": 56,
          "time": 297.56727000000245,
          "velocity": 0.47244094488188976,
          "duration": 0.3986482500000079
        },
        {
          "name": "E4",
          "midi": 64,
          "time": 297.56727000000245,
          "velocity": 0.47244094488188976,
          "duration": 0.3986482500000079
        },
        {
          "name": "B3",
          "midi": 59,
          "time": 297.56727000000245,
          "velocity": 0.47244094488188976,
          "duration": 0.3986482500000079
        },
        {
          "name": "B2",
          "midi": 47,
          "time": 297.56727000000245,
          "velocity": 0.47244094488188976,
          "duration": 0.3986482500000079
        },
        {
          "name": "E2",
          "midi": 40,
          "time": 297.56727000000245,
          "velocity": 0.47244094488188976,
          "duration": 0.3986482500000079
        },
        {
          "name": "E3",
          "midi": 52,
          "time": 297.56727000000245,
          "velocity": 0.47244094488188976,
          "duration": 0.3986482500000079
        },
        {
          "name": "E4",
          "midi": 64,
          "time": 297.9726750000025,
          "velocity": 0.47244094488188976,
          "duration": 0.3986482500000079
        },
        {
          "name": "B2",
          "midi": 47,
          "time": 297.9726750000025,
          "velocity": 0.47244094488188976,
          "duration": 0.3986482500000079
        },
        {
          "name": "E2",
          "midi": 40,
          "time": 297.9726750000025,
          "velocity": 0.47244094488188976,
          "duration": 0.3986482500000079
        },
        {
          "name": "G#3",
          "midi": 56,
          "time": 297.9726750000025,
          "velocity": 0.47244094488188976,
          "duration": 0.3986482500000079
        },
        {
          "name": "E3",
          "midi": 52,
          "time": 297.9726750000025,
          "velocity": 0.47244094488188976,
          "duration": 0.3986482500000079
        },
        {
          "name": "B3",
          "midi": 59,
          "time": 297.9726750000025,
          "velocity": 0.47244094488188976,
          "duration": 0.3986482500000079
        },
        {
          "name": "D4",
          "midi": 62,
          "time": 298.3780800000025,
          "velocity": 0.47244094488188976,
          "duration": 0.19594575000002123
        },
        {
          "name": "B3",
          "midi": 59,
          "time": 298.3780800000025,
          "velocity": 0.47244094488188976,
          "duration": 0.19594575000002123
        },
        {
          "name": "G2",
          "midi": 43,
          "time": 298.3780800000025,
          "velocity": 0.47244094488188976,
          "duration": 0.19594575000002123
        },
        {
          "name": "B2",
          "midi": 47,
          "time": 298.3780800000025,
          "velocity": 0.47244094488188976,
          "duration": 0.19594575000002123
        },
        {
          "name": "G4",
          "midi": 67,
          "time": 298.3780800000025,
          "velocity": 0.47244094488188976,
          "duration": 0.19594575000002123
        },
        {
          "name": "G3",
          "midi": 55,
          "time": 298.3780800000025,
          "velocity": 0.47244094488188976,
          "duration": 0.19594575000002123
        },
        {
          "name": "B3",
          "midi": 59,
          "time": 298.58078250000256,
          "velocity": 0.47244094488188976,
          "duration": 0.3986482500000079
        },
        {
          "name": "G2",
          "midi": 43,
          "time": 298.58078250000256,
          "velocity": 0.47244094488188976,
          "duration": 0.3986482500000079
        },
        {
          "name": "D4",
          "midi": 62,
          "time": 298.58078250000256,
          "velocity": 0.47244094488188976,
          "duration": 0.3986482500000079
        },
        {
          "name": "G3",
          "midi": 55,
          "time": 298.58078250000256,
          "velocity": 0.47244094488188976,
          "duration": 0.3986482500000079
        },
        {
          "name": "B2",
          "midi": 47,
          "time": 298.58078250000256,
          "velocity": 0.47244094488188976,
          "duration": 0.3986482500000079
        },
        {
          "name": "G4",
          "midi": 67,
          "time": 298.58078250000256,
          "velocity": 0.47244094488188976,
          "duration": 0.3986482500000079
        },
        {
          "name": "B2",
          "midi": 47,
          "time": 298.9861875000026,
          "velocity": 0.47244094488188976,
          "duration": 0.19594575000002123
        },
        {
          "name": "G2",
          "midi": 43,
          "time": 298.9861875000026,
          "velocity": 0.47244094488188976,
          "duration": 0.19594575000002123
        },
        {
          "name": "G3",
          "midi": 55,
          "time": 298.9861875000026,
          "velocity": 0.47244094488188976,
          "duration": 0.19594575000002123
        },
        {
          "name": "B3",
          "midi": 59,
          "time": 298.9861875000026,
          "velocity": 0.47244094488188976,
          "duration": 0.19594575000002123
        },
        {
          "name": "G4",
          "midi": 67,
          "time": 298.9861875000026,
          "velocity": 0.47244094488188976,
          "duration": 0.19594575000002123
        },
        {
          "name": "D4",
          "midi": 62,
          "time": 298.9861875000026,
          "velocity": 0.47244094488188976,
          "duration": 0.19594575000002123
        },
        {
          "name": "B3",
          "midi": 59,
          "time": 299.18889000000263,
          "velocity": 0.47244094488188976,
          "duration": 0.3986482500000079
        },
        {
          "name": "B2",
          "midi": 47,
          "time": 299.18889000000263,
          "velocity": 0.47244094488188976,
          "duration": 0.3986482500000079
        },
        {
          "name": "G4",
          "midi": 67,
          "time": 299.18889000000263,
          "velocity": 0.47244094488188976,
          "duration": 0.3986482500000079
        },
        {
          "name": "G3",
          "midi": 55,
          "time": 299.18889000000263,
          "velocity": 0.47244094488188976,
          "duration": 0.3986482500000079
        },
        {
          "name": "G2",
          "midi": 43,
          "time": 299.18889000000263,
          "velocity": 0.47244094488188976,
          "duration": 0.3986482500000079
        },
        {
          "name": "D4",
          "midi": 62,
          "time": 299.18889000000263,
          "velocity": 0.47244094488188976,
          "duration": 0.3986482500000079
        },
        {
          "name": "G2",
          "midi": 43,
          "time": 299.59429500000266,
          "velocity": 0.47244094488188976,
          "duration": 0.19594575000002123
        },
        {
          "name": "B3",
          "midi": 59,
          "time": 299.59429500000266,
          "velocity": 0.47244094488188976,
          "duration": 0.19594575000002123
        },
        {
          "name": "G4",
          "midi": 67,
          "time": 299.59429500000266,
          "velocity": 0.47244094488188976,
          "duration": 0.19594575000002123
        },
        {
          "name": "G3",
          "midi": 55,
          "time": 299.59429500000266,
          "velocity": 0.47244094488188976,
          "duration": 0.19594575000002123
        },
        {
          "name": "D4",
          "midi": 62,
          "time": 299.59429500000266,
          "velocity": 0.47244094488188976,
          "duration": 0.19594575000002123
        },
        {
          "name": "B2",
          "midi": 47,
          "time": 299.59429500000266,
          "velocity": 0.47244094488188976,
          "duration": 0.19594575000002123
        },
        {
          "name": "D4",
          "midi": 62,
          "time": 299.7969975000027,
          "velocity": 0.47244094488188976,
          "duration": 0.3986482500000079
        },
        {
          "name": "B2",
          "midi": 47,
          "time": 299.7969975000027,
          "velocity": 0.47244094488188976,
          "duration": 0.3986482500000079
        },
        {
          "name": "G4",
          "midi": 67,
          "time": 299.7969975000027,
          "velocity": 0.47244094488188976,
          "duration": 0.3986482500000079
        },
        {
          "name": "G2",
          "midi": 43,
          "time": 299.7969975000027,
          "velocity": 0.47244094488188976,
          "duration": 0.3986482500000079
        },
        {
          "name": "B3",
          "midi": 59,
          "time": 299.7969975000027,
          "velocity": 0.47244094488188976,
          "duration": 0.3986482500000079
        },
        {
          "name": "G3",
          "midi": 55,
          "time": 299.7969975000027,
          "velocity": 0.47244094488188976,
          "duration": 0.3986482500000079
        },
        {
          "name": "G4",
          "midi": 67,
          "time": 300.20240250000273,
          "velocity": 0.47244094488188976,
          "duration": 0.19594575000002123
        },
        {
          "name": "B3",
          "midi": 59,
          "time": 300.20240250000273,
          "velocity": 0.47244094488188976,
          "duration": 0.19594575000002123
        },
        {
          "name": "G2",
          "midi": 43,
          "time": 300.20240250000273,
          "velocity": 0.47244094488188976,
          "duration": 0.19594575000002123
        },
        {
          "name": "D4",
          "midi": 62,
          "time": 300.20240250000273,
          "velocity": 0.47244094488188976,
          "duration": 0.19594575000002123
        },
        {
          "name": "G3",
          "midi": 55,
          "time": 300.20240250000273,
          "velocity": 0.47244094488188976,
          "duration": 0.19594575000002123
        },
        {
          "name": "B2",
          "midi": 47,
          "time": 300.20240250000273,
          "velocity": 0.47244094488188976,
          "duration": 0.19594575000002123
        },
        {
          "name": "B3",
          "midi": 59,
          "time": 300.4051050000028,
          "velocity": 0.47244094488188976,
          "duration": 0.3986482500000079
        },
        {
          "name": "G2",
          "midi": 43,
          "time": 300.4051050000028,
          "velocity": 0.47244094488188976,
          "duration": 0.3986482500000079
        },
        {
          "name": "G3",
          "midi": 55,
          "time": 300.4051050000028,
          "velocity": 0.47244094488188976,
          "duration": 0.3986482500000079
        },
        {
          "name": "G4",
          "midi": 67,
          "time": 300.4051050000028,
          "velocity": 0.47244094488188976,
          "duration": 0.3986482500000079
        },
        {
          "name": "D4",
          "midi": 62,
          "time": 300.4051050000028,
          "velocity": 0.47244094488188976,
          "duration": 0.3986482500000079
        },
        {
          "name": "B2",
          "midi": 47,
          "time": 300.4051050000028,
          "velocity": 0.47244094488188976,
          "duration": 0.3986482500000079
        },
        {
          "name": "B3",
          "midi": 59,
          "time": 300.8105100000028,
          "velocity": 0.47244094488188976,
          "duration": 0.3986482500000079
        },
        {
          "name": "D4",
          "midi": 62,
          "time": 300.8105100000028,
          "velocity": 0.47244094488188976,
          "duration": 0.3986482500000079
        },
        {
          "name": "B2",
          "midi": 47,
          "time": 300.8105100000028,
          "velocity": 0.47244094488188976,
          "duration": 0.3986482500000079
        },
        {
          "name": "G4",
          "midi": 67,
          "time": 300.8105100000028,
          "velocity": 0.47244094488188976,
          "duration": 0.3986482500000079
        },
        {
          "name": "G2",
          "midi": 43,
          "time": 300.8105100000028,
          "velocity": 0.47244094488188976,
          "duration": 0.3986482500000079
        },
        {
          "name": "G3",
          "midi": 55,
          "time": 300.8105100000028,
          "velocity": 0.47244094488188976,
          "duration": 0.3986482500000079
        },
        {
          "name": "B2",
          "midi": 47,
          "time": 301.21591500000284,
          "velocity": 0.47244094488188976,
          "duration": 0.3986482500000079
        },
        {
          "name": "G2",
          "midi": 43,
          "time": 301.21591500000284,
          "velocity": 0.47244094488188976,
          "duration": 0.3986482500000079
        },
        {
          "name": "B3",
          "midi": 59,
          "time": 301.21591500000284,
          "velocity": 0.47244094488188976,
          "duration": 0.3986482500000079
        },
        {
          "name": "G4",
          "midi": 67,
          "time": 301.21591500000284,
          "velocity": 0.47244094488188976,
          "duration": 0.3986482500000079
        },
        {
          "name": "G3",
          "midi": 55,
          "time": 301.21591500000284,
          "velocity": 0.47244094488188976,
          "duration": 0.3986482500000079
        },
        {
          "name": "D4",
          "midi": 62,
          "time": 301.21591500000284,
          "velocity": 0.47244094488188976,
          "duration": 0.3986482500000079
        },
        {
          "name": "F#4",
          "midi": 66,
          "time": 301.62132000000287,
          "velocity": 0.47244094488188976,
          "duration": 0.19594575000002123
        },
        {
          "name": "D4",
          "midi": 62,
          "time": 301.62132000000287,
          "velocity": 0.47244094488188976,
          "duration": 0.19594575000002123
        },
        {
          "name": "A3",
          "midi": 57,
          "time": 301.62132000000287,
          "velocity": 0.47244094488188976,
          "duration": 0.19594575000002123
        },
        {
          "name": "A2",
          "midi": 45,
          "time": 301.62132000000287,
          "velocity": 0.47244094488188976,
          "duration": 0.19594575000002123
        },
        {
          "name": "D3",
          "midi": 50,
          "time": 301.62132000000287,
          "velocity": 0.47244094488188976,
          "duration": 0.19594575000002123
        },
        {
          "name": "A4",
          "midi": 69,
          "time": 301.62132000000287,
          "velocity": 0.47244094488188976,
          "duration": 0.19594575000002123
        },
        {
          "name": "D4",
          "midi": 62,
          "time": 301.8240225000029,
          "velocity": 0.47244094488188976,
          "duration": 0.3986482500000079
        },
        {
          "name": "A2",
          "midi": 45,
          "time": 301.8240225000029,
          "velocity": 0.47244094488188976,
          "duration": 0.3986482500000079
        },
        {
          "name": "D3",
          "midi": 50,
          "time": 301.8240225000029,
          "velocity": 0.47244094488188976,
          "duration": 0.3986482500000079
        },
        {
          "name": "F#4",
          "midi": 66,
          "time": 301.8240225000029,
          "velocity": 0.47244094488188976,
          "duration": 0.3986482500000079
        },
        {
          "name": "A3",
          "midi": 57,
          "time": 301.8240225000029,
          "velocity": 0.47244094488188976,
          "duration": 0.3986482500000079
        },
        {
          "name": "A4",
          "midi": 69,
          "time": 301.8240225000029,
          "velocity": 0.47244094488188976,
          "duration": 0.3986482500000079
        },
        {
          "name": "A4",
          "midi": 69,
          "time": 302.22942750000294,
          "velocity": 0.47244094488188976,
          "duration": 0.19594575000002123
        },
        {
          "name": "D4",
          "midi": 62,
          "time": 302.22942750000294,
          "velocity": 0.47244094488188976,
          "duration": 0.19594575000002123
        },
        {
          "name": "D3",
          "midi": 50,
          "time": 302.22942750000294,
          "velocity": 0.47244094488188976,
          "duration": 0.19594575000002123
        },
        {
          "name": "A3",
          "midi": 57,
          "time": 302.22942750000294,
          "velocity": 0.47244094488188976,
          "duration": 0.19594575000002123
        },
        {
          "name": "A2",
          "midi": 45,
          "time": 302.22942750000294,
          "velocity": 0.47244094488188976,
          "duration": 0.19594575000002123
        },
        {
          "name": "F#4",
          "midi": 66,
          "time": 302.22942750000294,
          "velocity": 0.47244094488188976,
          "duration": 0.19594575000002123
        },
        {
          "name": "A2",
          "midi": 45,
          "time": 302.432130000003,
          "velocity": 0.47244094488188976,
          "duration": 0.3986482500000079
        },
        {
          "name": "F#4",
          "midi": 66,
          "time": 302.432130000003,
          "velocity": 0.47244094488188976,
          "duration": 0.3986482500000079
        },
        {
          "name": "A3",
          "midi": 57,
          "time": 302.432130000003,
          "velocity": 0.47244094488188976,
          "duration": 0.3986482500000079
        },
        {
          "name": "D3",
          "midi": 50,
          "time": 302.432130000003,
          "velocity": 0.47244094488188976,
          "duration": 0.3986482500000079
        },
        {
          "name": "D4",
          "midi": 62,
          "time": 302.432130000003,
          "velocity": 0.47244094488188976,
          "duration": 0.3986482500000079
        },
        {
          "name": "A4",
          "midi": 69,
          "time": 302.432130000003,
          "velocity": 0.47244094488188976,
          "duration": 0.3986482500000079
        },
        {
          "name": "A2",
          "midi": 45,
          "time": 302.837535000003,
          "velocity": 0.47244094488188976,
          "duration": 0.19594575000002123
        },
        {
          "name": "A3",
          "midi": 57,
          "time": 302.837535000003,
          "velocity": 0.47244094488188976,
          "duration": 0.19594575000002123
        },
        {
          "name": "D4",
          "midi": 62,
          "time": 302.837535000003,
          "velocity": 0.47244094488188976,
          "duration": 0.19594575000002123
        },
        {
          "name": "D3",
          "midi": 50,
          "time": 302.837535000003,
          "velocity": 0.47244094488188976,
          "duration": 0.19594575000002123
        },
        {
          "name": "A4",
          "midi": 69,
          "time": 302.837535000003,
          "velocity": 0.47244094488188976,
          "duration": 0.19594575000002123
        },
        {
          "name": "F#4",
          "midi": 66,
          "time": 302.837535000003,
          "velocity": 0.47244094488188976,
          "duration": 0.19594575000002123
        },
        {
          "name": "A4",
          "midi": 69,
          "time": 303.04023750000306,
          "velocity": 0.47244094488188976,
          "duration": 0.3986482500000079
        },
        {
          "name": "F#4",
          "midi": 66,
          "time": 303.04023750000306,
          "velocity": 0.47244094488188976,
          "duration": 0.3986482500000079
        },
        {
          "name": "D4",
          "midi": 62,
          "time": 303.04023750000306,
          "velocity": 0.47244094488188976,
          "duration": 0.3986482500000079
        },
        {
          "name": "D3",
          "midi": 50,
          "time": 303.04023750000306,
          "velocity": 0.47244094488188976,
          "duration": 0.3986482500000079
        },
        {
          "name": "A2",
          "midi": 45,
          "time": 303.04023750000306,
          "velocity": 0.47244094488188976,
          "duration": 0.3986482500000079
        },
        {
          "name": "A3",
          "midi": 57,
          "time": 303.04023750000306,
          "velocity": 0.47244094488188976,
          "duration": 0.3986482500000079
        },
        {
          "name": "A3",
          "midi": 57,
          "time": 303.4456425000031,
          "velocity": 0.47244094488188976,
          "duration": 0.19594575000002123
        },
        {
          "name": "D3",
          "midi": 50,
          "time": 303.4456425000031,
          "velocity": 0.47244094488188976,
          "duration": 0.19594575000002123
        },
        {
          "name": "F#4",
          "midi": 66,
          "time": 303.4456425000031,
          "velocity": 0.47244094488188976,
          "duration": 0.19594575000002123
        },
        {
          "name": "A4",
          "midi": 69,
          "time": 303.4456425000031,
          "velocity": 0.47244094488188976,
          "duration": 0.19594575000002123
        },
        {
          "name": "A2",
          "midi": 45,
          "time": 303.4456425000031,
          "velocity": 0.47244094488188976,
          "duration": 0.19594575000002123
        },
        {
          "name": "D4",
          "midi": 62,
          "time": 303.4456425000031,
          "velocity": 0.47244094488188976,
          "duration": 0.19594575000002123
        },
        {
          "name": "D4",
          "midi": 62,
          "time": 303.64834500000313,
          "velocity": 0.47244094488188976,
          "duration": 0.3986482500000079
        },
        {
          "name": "D3",
          "midi": 50,
          "time": 303.64834500000313,
          "velocity": 0.47244094488188976,
          "duration": 0.3986482500000079
        },
        {
          "name": "F#4",
          "midi": 66,
          "time": 303.64834500000313,
          "velocity": 0.47244094488188976,
          "duration": 0.3986482500000079
        },
        {
          "name": "A3",
          "midi": 57,
          "time": 303.64834500000313,
          "velocity": 0.47244094488188976,
          "duration": 0.3986482500000079
        },
        {
          "name": "A2",
          "midi": 45,
          "time": 303.64834500000313,
          "velocity": 0.47244094488188976,
          "duration": 0.3986482500000079
        },
        {
          "name": "A4",
          "midi": 69,
          "time": 303.64834500000313,
          "velocity": 0.47244094488188976,
          "duration": 0.3986482500000079
        },
        {
          "name": "D4",
          "midi": 62,
          "time": 304.05375000000316,
          "velocity": 0.47244094488188976,
          "duration": 0.3986482500000079
        },
        {
          "name": "A4",
          "midi": 69,
          "time": 304.05375000000316,
          "velocity": 0.47244094488188976,
          "duration": 0.3986482500000079
        },
        {
          "name": "F#4",
          "midi": 66,
          "time": 304.05375000000316,
          "velocity": 0.47244094488188976,
          "duration": 0.3986482500000079
        },
        {
          "name": "D3",
          "midi": 50,
          "time": 304.05375000000316,
          "velocity": 0.47244094488188976,
          "duration": 0.3986482500000079
        },
        {
          "name": "A2",
          "midi": 45,
          "time": 304.05375000000316,
          "velocity": 0.47244094488188976,
          "duration": 0.3986482500000079
        },
        {
          "name": "A3",
          "midi": 57,
          "time": 304.05375000000316,
          "velocity": 0.47244094488188976,
          "duration": 0.3986482500000079
        },
        {
          "name": "A4",
          "midi": 69,
          "time": 304.4591550000032,
          "velocity": 0.47244094488188976,
          "duration": 0.3986482500000079
        },
        {
          "name": "D3",
          "midi": 50,
          "time": 304.4591550000032,
          "velocity": 0.47244094488188976,
          "duration": 0.3986482500000079
        },
        {
          "name": "A2",
          "midi": 45,
          "time": 304.4591550000032,
          "velocity": 0.47244094488188976,
          "duration": 0.3986482500000079
        },
        {
          "name": "D4",
          "midi": 62,
          "time": 304.4591550000032,
          "velocity": 0.47244094488188976,
          "duration": 0.3986482500000079
        },
        {
          "name": "A3",
          "midi": 57,
          "time": 304.4591550000032,
          "velocity": 0.47244094488188976,
          "duration": 0.3986482500000079
        },
        {
          "name": "F#4",
          "midi": 66,
          "time": 304.4591550000032,
          "velocity": 0.47244094488188976,
          "duration": 0.3986482500000079
        },
        {
          "name": "B3",
          "midi": 59,
          "time": 304.8645600000032,
          "velocity": 0.47244094488188976,
          "duration": 0.19594575000002123
        },
        {
          "name": "G3",
          "midi": 55,
          "time": 304.8645600000032,
          "velocity": 0.47244094488188976,
          "duration": 0.19594575000002123
        },
        {
          "name": "E2",
          "midi": 40,
          "time": 304.8645600000032,
          "velocity": 0.47244094488188976,
          "duration": 0.19594575000002123
        },
        {
          "name": "A2",
          "midi": 45,
          "time": 304.8645600000032,
          "velocity": 0.47244094488188976,
          "duration": 0.19594575000002123
        },
        {
          "name": "E4",
          "midi": 64,
          "time": 304.8645600000032,
          "velocity": 0.47244094488188976,
          "duration": 0.19594575000002123
        },
        {
          "name": "E3",
          "midi": 52,
          "time": 304.8645600000032,
          "velocity": 0.47244094488188976,
          "duration": 0.19594575000002123
        },
        {
          "name": "G3",
          "midi": 55,
          "time": 305.06726250000327,
          "velocity": 0.47244094488188976,
          "duration": 0.3986482500000079
        },
        {
          "name": "E2",
          "midi": 40,
          "time": 305.06726250000327,
          "velocity": 0.47244094488188976,
          "duration": 0.3986482500000079
        },
        {
          "name": "B3",
          "midi": 59,
          "time": 305.06726250000327,
          "velocity": 0.47244094488188976,
          "duration": 0.3986482500000079
        },
        {
          "name": "E3",
          "midi": 52,
          "time": 305.06726250000327,
          "velocity": 0.47244094488188976,
          "duration": 0.3986482500000079
        },
        {
          "name": "A2",
          "midi": 45,
          "time": 305.06726250000327,
          "velocity": 0.47244094488188976,
          "duration": 0.3986482500000079
        },
        {
          "name": "E4",
          "midi": 64,
          "time": 305.06726250000327,
          "velocity": 0.47244094488188976,
          "duration": 0.3986482500000079
        },
        {
          "name": "A2",
          "midi": 45,
          "time": 305.4726675000033,
          "velocity": 0.47244094488188976,
          "duration": 0.19594575000002123
        },
        {
          "name": "E2",
          "midi": 40,
          "time": 305.4726675000033,
          "velocity": 0.47244094488188976,
          "duration": 0.19594575000002123
        },
        {
          "name": "E3",
          "midi": 52,
          "time": 305.4726675000033,
          "velocity": 0.47244094488188976,
          "duration": 0.19594575000002123
        },
        {
          "name": "G3",
          "midi": 55,
          "time": 305.4726675000033,
          "velocity": 0.47244094488188976,
          "duration": 0.19594575000002123
        },
        {
          "name": "E4",
          "midi": 64,
          "time": 305.4726675000033,
          "velocity": 0.47244094488188976,
          "duration": 0.19594575000002123
        },
        {
          "name": "B3",
          "midi": 59,
          "time": 305.4726675000033,
          "velocity": 0.47244094488188976,
          "duration": 0.19594575000002123
        },
        {
          "name": "G3",
          "midi": 55,
          "time": 305.67537000000334,
          "velocity": 0.47244094488188976,
          "duration": 0.3986482500000079
        },
        {
          "name": "A2",
          "midi": 45,
          "time": 305.67537000000334,
          "velocity": 0.47244094488188976,
          "duration": 0.3986482500000079
        },
        {
          "name": "E4",
          "midi": 64,
          "time": 305.67537000000334,
          "velocity": 0.47244094488188976,
          "duration": 0.3986482500000079
        },
        {
          "name": "E3",
          "midi": 52,
          "time": 305.67537000000334,
          "velocity": 0.47244094488188976,
          "duration": 0.3986482500000079
        },
        {
          "name": "E2",
          "midi": 40,
          "time": 305.67537000000334,
          "velocity": 0.47244094488188976,
          "duration": 0.3986482500000079
        },
        {
          "name": "B3",
          "midi": 59,
          "time": 305.67537000000334,
          "velocity": 0.47244094488188976,
          "duration": 0.3986482500000079
        },
        {
          "name": "E2",
          "midi": 40,
          "time": 306.08077500000337,
          "velocity": 0.47244094488188976,
          "duration": 0.19594575000002123
        },
        {
          "name": "G3",
          "midi": 55,
          "time": 306.08077500000337,
          "velocity": 0.47244094488188976,
          "duration": 0.19594575000002123
        },
        {
          "name": "E4",
          "midi": 64,
          "time": 306.08077500000337,
          "velocity": 0.47244094488188976,
          "duration": 0.19594575000002123
        },
        {
          "name": "E3",
          "midi": 52,
          "time": 306.08077500000337,
          "velocity": 0.47244094488188976,
          "duration": 0.19594575000002123
        },
        {
          "name": "B3",
          "midi": 59,
          "time": 306.08077500000337,
          "velocity": 0.47244094488188976,
          "duration": 0.19594575000002123
        },
        {
          "name": "A2",
          "midi": 45,
          "time": 306.08077500000337,
          "velocity": 0.47244094488188976,
          "duration": 0.19594575000002123
        },
        {
          "name": "B3",
          "midi": 59,
          "time": 306.2834775000034,
          "velocity": 0.47244094488188976,
          "duration": 0.3986482500000079
        },
        {
          "name": "A2",
          "midi": 45,
          "time": 306.2834775000034,
          "velocity": 0.47244094488188976,
          "duration": 0.3986482500000079
        },
        {
          "name": "E4",
          "midi": 64,
          "time": 306.2834775000034,
          "velocity": 0.47244094488188976,
          "duration": 0.3986482500000079
        },
        {
          "name": "E2",
          "midi": 40,
          "time": 306.2834775000034,
          "velocity": 0.47244094488188976,
          "duration": 0.3986482500000079
        },
        {
          "name": "G3",
          "midi": 55,
          "time": 306.2834775000034,
          "velocity": 0.47244094488188976,
          "duration": 0.3986482500000079
        },
        {
          "name": "E3",
          "midi": 52,
          "time": 306.2834775000034,
          "velocity": 0.47244094488188976,
          "duration": 0.3986482500000079
        },
        {
          "name": "E4",
          "midi": 64,
          "time": 306.68888250000344,
          "velocity": 0.47244094488188976,
          "duration": 0.19594575000002123
        },
        {
          "name": "G3",
          "midi": 55,
          "time": 306.68888250000344,
          "velocity": 0.47244094488188976,
          "duration": 0.19594575000002123
        },
        {
          "name": "E2",
          "midi": 40,
          "time": 306.68888250000344,
          "velocity": 0.47244094488188976,
          "duration": 0.19594575000002123
        },
        {
          "name": "B3",
          "midi": 59,
          "time": 306.68888250000344,
          "velocity": 0.47244094488188976,
          "duration": 0.19594575000002123
        },
        {
          "name": "E3",
          "midi": 52,
          "time": 306.68888250000344,
          "velocity": 0.47244094488188976,
          "duration": 0.19594575000002123
        },
        {
          "name": "A2",
          "midi": 45,
          "time": 306.68888250000344,
          "velocity": 0.47244094488188976,
          "duration": 0.19594575000002123
        },
        {
          "name": "G3",
          "midi": 55,
          "time": 306.8915850000035,
          "velocity": 0.47244094488188976,
          "duration": 0.3986482500000079
        },
        {
          "name": "E2",
          "midi": 40,
          "time": 306.8915850000035,
          "velocity": 0.47244094488188976,
          "duration": 0.3986482500000079
        },
        {
          "name": "E3",
          "midi": 52,
          "time": 306.8915850000035,
          "velocity": 0.47244094488188976,
          "duration": 0.3986482500000079
        },
        {
          "name": "E4",
          "midi": 64,
          "time": 306.8915850000035,
          "velocity": 0.47244094488188976,
          "duration": 0.3986482500000079
        },
        {
          "name": "B3",
          "midi": 59,
          "time": 306.8915850000035,
          "velocity": 0.47244094488188976,
          "duration": 0.3986482500000079
        },
        {
          "name": "A2",
          "midi": 45,
          "time": 306.8915850000035,
          "velocity": 0.47244094488188976,
          "duration": 0.3986482500000079
        },
        {
          "name": "G3",
          "midi": 55,
          "time": 307.2969900000035,
          "velocity": 0.47244094488188976,
          "duration": 0.3986482500000079
        },
        {
          "name": "B3",
          "midi": 59,
          "time": 307.2969900000035,
          "velocity": 0.47244094488188976,
          "duration": 0.3986482500000079
        },
        {
          "name": "A2",
          "midi": 45,
          "time": 307.2969900000035,
          "velocity": 0.47244094488188976,
          "duration": 0.3986482500000079
        },
        {
          "name": "E4",
          "midi": 64,
          "time": 307.2969900000035,
          "velocity": 0.47244094488188976,
          "duration": 0.3986482500000079
        },
        {
          "name": "E2",
          "midi": 40,
          "time": 307.2969900000035,
          "velocity": 0.47244094488188976,
          "duration": 0.3986482500000079
        },
        {
          "name": "E3",
          "midi": 52,
          "time": 307.2969900000035,
          "velocity": 0.47244094488188976,
          "duration": 0.3986482500000079
        },
        {
          "name": "A2",
          "midi": 45,
          "time": 307.70239500000355,
          "velocity": 0.47244094488188976,
          "duration": 0.3986482500000079
        },
        {
          "name": "E2",
          "midi": 40,
          "time": 307.70239500000355,
          "velocity": 0.47244094488188976,
          "duration": 0.3986482500000079
        },
        {
          "name": "G3",
          "midi": 55,
          "time": 307.70239500000355,
          "velocity": 0.47244094488188976,
          "duration": 0.3986482500000079
        },
        {
          "name": "E4",
          "midi": 64,
          "time": 307.70239500000355,
          "velocity": 0.47244094488188976,
          "duration": 0.3986482500000079
        },
        {
          "name": "E3",
          "midi": 52,
          "time": 307.70239500000355,
          "velocity": 0.47244094488188976,
          "duration": 0.3986482500000079
        },
        {
          "name": "B3",
          "midi": 59,
          "time": 307.70239500000355,
          "velocity": 0.47244094488188976,
          "duration": 0.3986482500000079
        },
        {
          "name": "C#4",
          "midi": 61,
          "time": 308.1078000000036,
          "velocity": 0.47244094488188976,
          "duration": 0.19594575000002123
        },
        {
          "name": "A#3",
          "midi": 58,
          "time": 308.1078000000036,
          "velocity": 0.47244094488188976,
          "duration": 0.19594575000002123
        },
        {
          "name": "F#3",
          "midi": 54,
          "time": 308.1078000000036,
          "velocity": 0.47244094488188976,
          "duration": 0.19594575000002123
        },
        {
          "name": "F#2",
          "midi": 42,
          "time": 308.1078000000036,
          "velocity": 0.47244094488188976,
          "duration": 0.19594575000002123
        },
        {
          "name": "C#3",
          "midi": 49,
          "time": 308.1078000000036,
          "velocity": 0.47244094488188976,
          "duration": 0.19594575000002123
        },
        {
          "name": "F#4",
          "midi": 66,
          "time": 308.1078000000036,
          "velocity": 0.47244094488188976,
          "duration": 0.19594575000002123
        },
        {
          "name": "A#3",
          "midi": 58,
          "time": 308.3105025000036,
          "velocity": 0.47244094488188976,
          "duration": 0.3986482500000079
        },
        {
          "name": "F#2",
          "midi": 42,
          "time": 308.3105025000036,
          "velocity": 0.47244094488188976,
          "duration": 0.3986482500000079
        },
        {
          "name": "C#3",
          "midi": 49,
          "time": 308.3105025000036,
          "velocity": 0.47244094488188976,
          "duration": 0.3986482500000079
        },
        {
          "name": "C#4",
          "midi": 61,
          "time": 308.3105025000036,
          "velocity": 0.47244094488188976,
          "duration": 0.3986482500000079
        },
        {
          "name": "F#3",
          "midi": 54,
          "time": 308.3105025000036,
          "velocity": 0.47244094488188976,
          "duration": 0.3986482500000079
        },
        {
          "name": "F#4",
          "midi": 66,
          "time": 308.3105025000036,
          "velocity": 0.47244094488188976,
          "duration": 0.3986482500000079
        },
        {
          "name": "F#4",
          "midi": 66,
          "time": 308.71590750000365,
          "velocity": 0.47244094488188976,
          "duration": 0.19594575000002123
        },
        {
          "name": "A#3",
          "midi": 58,
          "time": 308.71590750000365,
          "velocity": 0.47244094488188976,
          "duration": 0.19594575000002123
        },
        {
          "name": "C#3",
          "midi": 49,
          "time": 308.71590750000365,
          "velocity": 0.47244094488188976,
          "duration": 0.19594575000002123
        },
        {
          "name": "F#3",
          "midi": 54,
          "time": 308.71590750000365,
          "velocity": 0.47244094488188976,
          "duration": 0.19594575000002123
        },
        {
          "name": "F#2",
          "midi": 42,
          "time": 308.71590750000365,
          "velocity": 0.47244094488188976,
          "duration": 0.19594575000002123
        },
        {
          "name": "C#4",
          "midi": 61,
          "time": 308.71590750000365,
          "velocity": 0.47244094488188976,
          "duration": 0.19594575000002123
        },
        {
          "name": "F#2",
          "midi": 42,
          "time": 308.9186100000037,
          "velocity": 0.47244094488188976,
          "duration": 0.3986482500000079
        },
        {
          "name": "C#4",
          "midi": 61,
          "time": 308.9186100000037,
          "velocity": 0.47244094488188976,
          "duration": 0.3986482500000079
        },
        {
          "name": "F#3",
          "midi": 54,
          "time": 308.9186100000037,
          "velocity": 0.47244094488188976,
          "duration": 0.3986482500000079
        },
        {
          "name": "C#3",
          "midi": 49,
          "time": 308.9186100000037,
          "velocity": 0.47244094488188976,
          "duration": 0.3986482500000079
        },
        {
          "name": "A#3",
          "midi": 58,
          "time": 308.9186100000037,
          "velocity": 0.47244094488188976,
          "duration": 0.3986482500000079
        },
        {
          "name": "F#4",
          "midi": 66,
          "time": 308.9186100000037,
          "velocity": 0.47244094488188976,
          "duration": 0.3986482500000079
        },
        {
          "name": "F#2",
          "midi": 42,
          "time": 309.3240150000037,
          "velocity": 0.47244094488188976,
          "duration": 0.19594575000002123
        },
        {
          "name": "F#3",
          "midi": 54,
          "time": 309.3240150000037,
          "velocity": 0.47244094488188976,
          "duration": 0.19594575000002123
        },
        {
          "name": "A#3",
          "midi": 58,
          "time": 309.3240150000037,
          "velocity": 0.47244094488188976,
          "duration": 0.19594575000002123
        },
        {
          "name": "C#3",
          "midi": 49,
          "time": 309.3240150000037,
          "velocity": 0.47244094488188976,
          "duration": 0.19594575000002123
        },
        {
          "name": "F#4",
          "midi": 66,
          "time": 309.3240150000037,
          "velocity": 0.47244094488188976,
          "duration": 0.19594575000002123
        },
        {
          "name": "C#4",
          "midi": 61,
          "time": 309.3240150000037,
          "velocity": 0.47244094488188976,
          "duration": 0.19594575000002123
        },
        {
          "name": "F#4",
          "midi": 66,
          "time": 309.52671750000377,
          "velocity": 0.47244094488188976,
          "duration": 0.3986482500000079
        },
        {
          "name": "C#4",
          "midi": 61,
          "time": 309.52671750000377,
          "velocity": 0.47244094488188976,
          "duration": 0.3986482500000079
        },
        {
          "name": "A#3",
          "midi": 58,
          "time": 309.52671750000377,
          "velocity": 0.47244094488188976,
          "duration": 0.3986482500000079
        },
        {
          "name": "C#3",
          "midi": 49,
          "time": 309.52671750000377,
          "velocity": 0.47244094488188976,
          "duration": 0.3986482500000079
        },
        {
          "name": "F#2",
          "midi": 42,
          "time": 309.52671750000377,
          "velocity": 0.47244094488188976,
          "duration": 0.3986482500000079
        },
        {
          "name": "F#3",
          "midi": 54,
          "time": 309.52671750000377,
          "velocity": 0.47244094488188976,
          "duration": 0.3986482500000079
        },
        {
          "name": "F#3",
          "midi": 54,
          "time": 309.9321225000038,
          "velocity": 0.47244094488188976,
          "duration": 0.19594575000002123
        },
        {
          "name": "C#3",
          "midi": 49,
          "time": 309.9321225000038,
          "velocity": 0.47244094488188976,
          "duration": 0.19594575000002123
        },
        {
          "name": "C#4",
          "midi": 61,
          "time": 309.9321225000038,
          "velocity": 0.47244094488188976,
          "duration": 0.19594575000002123
        },
        {
          "name": "F#4",
          "midi": 66,
          "time": 309.9321225000038,
          "velocity": 0.47244094488188976,
          "duration": 0.19594575000002123
        },
        {
          "name": "F#2",
          "midi": 42,
          "time": 309.9321225000038,
          "velocity": 0.47244094488188976,
          "duration": 0.19594575000002123
        },
        {
          "name": "A#3",
          "midi": 58,
          "time": 309.9321225000038,
          "velocity": 0.47244094488188976,
          "duration": 0.19594575000002123
        },
        {
          "name": "A#3",
          "midi": 58,
          "time": 310.13482500000384,
          "velocity": 0.47244094488188976,
          "duration": 0.3986482500000079
        },
        {
          "name": "C#3",
          "midi": 49,
          "time": 310.13482500000384,
          "velocity": 0.47244094488188976,
          "duration": 0.3986482500000079
        },
        {
          "name": "C#4",
          "midi": 61,
          "time": 310.13482500000384,
          "velocity": 0.47244094488188976,
          "duration": 0.3986482500000079
        },
        {
          "name": "F#3",
          "midi": 54,
          "time": 310.13482500000384,
          "velocity": 0.47244094488188976,
          "duration": 0.3986482500000079
        },
        {
          "name": "F#2",
          "midi": 42,
          "time": 310.13482500000384,
          "velocity": 0.47244094488188976,
          "duration": 0.3986482500000079
        },
        {
          "name": "F#4",
          "midi": 66,
          "time": 310.13482500000384,
          "velocity": 0.47244094488188976,
          "duration": 0.3986482500000079
        },
        {
          "name": "A#3",
          "midi": 58,
          "time": 310.5402300000039,
          "velocity": 0.47244094488188976,
          "duration": 0.3986482500000079
        },
        {
          "name": "F#4",
          "midi": 66,
          "time": 310.5402300000039,
          "velocity": 0.47244094488188976,
          "duration": 0.3986482500000079
        },
        {
          "name": "C#4",
          "midi": 61,
          "time": 310.5402300000039,
          "velocity": 0.47244094488188976,
          "duration": 0.3986482500000079
        },
        {
          "name": "C#3",
          "midi": 49,
          "time": 310.5402300000039,
          "velocity": 0.47244094488188976,
          "duration": 0.3986482500000079
        },
        {
          "name": "F#2",
          "midi": 42,
          "time": 310.5402300000039,
          "velocity": 0.47244094488188976,
          "duration": 0.3986482500000079
        },
        {
          "name": "F#3",
          "midi": 54,
          "time": 310.5402300000039,
          "velocity": 0.47244094488188976,
          "duration": 0.3986482500000079
        },
        {
          "name": "F#4",
          "midi": 66,
          "time": 310.9456350000039,
          "velocity": 0.47244094488188976,
          "duration": 0.3986482500000079
        },
        {
          "name": "C#3",
          "midi": 49,
          "time": 310.9456350000039,
          "velocity": 0.47244094488188976,
          "duration": 0.3986482500000079
        },
        {
          "name": "F#2",
          "midi": 42,
          "time": 310.9456350000039,
          "velocity": 0.47244094488188976,
          "duration": 0.3986482500000079
        },
        {
          "name": "A#3",
          "midi": 58,
          "time": 310.9456350000039,
          "velocity": 0.47244094488188976,
          "duration": 0.3986482500000079
        },
        {
          "name": "F#3",
          "midi": 54,
          "time": 310.9456350000039,
          "velocity": 0.47244094488188976,
          "duration": 0.3986482500000079
        },
        {
          "name": "C#4",
          "midi": 61,
          "time": 310.9456350000039,
          "velocity": 0.47244094488188976,
          "duration": 0.3986482500000079
        },
        {
          "name": "D4",
          "midi": 62,
          "time": 311.35104000000393,
          "velocity": 0.47244094488188976,
          "duration": 0.19594575000002123
        },
        {
          "name": "B3",
          "midi": 59,
          "time": 311.35104000000393,
          "velocity": 0.47244094488188976,
          "duration": 0.19594575000002123
        },
        {
          "name": "F#2",
          "midi": 42,
          "time": 311.35104000000393,
          "velocity": 0.47244094488188976,
          "duration": 0.19594575000002123
        },
        {
          "name": "B2",
          "midi": 47,
          "time": 311.35104000000393,
          "velocity": 0.47244094488188976,
          "duration": 0.19594575000002123
        },
        {
          "name": "F#4",
          "midi": 66,
          "time": 311.35104000000393,
          "velocity": 0.47244094488188976,
          "duration": 0.19594575000002123
        },
        {
          "name": "F#3",
          "midi": 54,
          "time": 311.35104000000393,
          "velocity": 0.47244094488188976,
          "duration": 0.19594575000002123
        },
        {
          "name": "B3",
          "midi": 59,
          "time": 311.553742500004,
          "velocity": 0.47244094488188976,
          "duration": 0.3986482500000079
        },
        {
          "name": "F#2",
          "midi": 42,
          "time": 311.553742500004,
          "velocity": 0.47244094488188976,
          "duration": 0.3986482500000079
        },
        {
          "name": "D4",
          "midi": 62,
          "time": 311.553742500004,
          "velocity": 0.47244094488188976,
          "duration": 0.3986482500000079
        },
        {
          "name": "F#3",
          "midi": 54,
          "time": 311.553742500004,
          "velocity": 0.47244094488188976,
          "duration": 0.3986482500000079
        },
        {
          "name": "B2",
          "midi": 47,
          "time": 311.553742500004,
          "velocity": 0.47244094488188976,
          "duration": 0.3986482500000079
        },
        {
          "name": "F#4",
          "midi": 66,
          "time": 311.553742500004,
          "velocity": 0.47244094488188976,
          "duration": 0.3986482500000079
        },
        {
          "name": "B2",
          "midi": 47,
          "time": 311.959147500004,
          "velocity": 0.47244094488188976,
          "duration": 0.19594575000002123
        },
        {
          "name": "F#2",
          "midi": 42,
          "time": 311.959147500004,
          "velocity": 0.47244094488188976,
          "duration": 0.19594575000002123
        },
        {
          "name": "F#3",
          "midi": 54,
          "time": 311.959147500004,
          "velocity": 0.47244094488188976,
          "duration": 0.19594575000002123
        },
        {
          "name": "B3",
          "midi": 59,
          "time": 311.959147500004,
          "velocity": 0.47244094488188976,
          "duration": 0.19594575000002123
        },
        {
          "name": "F#4",
          "midi": 66,
          "time": 311.959147500004,
          "velocity": 0.47244094488188976,
          "duration": 0.19594575000002123
        },
        {
          "name": "D4",
          "midi": 62,
          "time": 311.959147500004,
          "velocity": 0.47244094488188976,
          "duration": 0.19594575000002123
        },
        {
          "name": "B3",
          "midi": 59,
          "time": 312.16185000000405,
          "velocity": 0.47244094488188976,
          "duration": 0.3986482500000079
        },
        {
          "name": "B2",
          "midi": 47,
          "time": 312.16185000000405,
          "velocity": 0.47244094488188976,
          "duration": 0.3986482500000079
        },
        {
          "name": "F#4",
          "midi": 66,
          "time": 312.16185000000405,
          "velocity": 0.47244094488188976,
          "duration": 0.3986482500000079
        },
        {
          "name": "F#3",
          "midi": 54,
          "time": 312.16185000000405,
          "velocity": 0.47244094488188976,
          "duration": 0.3986482500000079
        },
        {
          "name": "F#2",
          "midi": 42,
          "time": 312.16185000000405,
          "velocity": 0.47244094488188976,
          "duration": 0.3986482500000079
        },
        {
          "name": "D4",
          "midi": 62,
          "time": 312.16185000000405,
          "velocity": 0.47244094488188976,
          "duration": 0.3986482500000079
        },
        {
          "name": "F#2",
          "midi": 42,
          "time": 312.5672550000041,
          "velocity": 0.47244094488188976,
          "duration": 0.19594575000002123
        },
        {
          "name": "B3",
          "midi": 59,
          "time": 312.5672550000041,
          "velocity": 0.47244094488188976,
          "duration": 0.19594575000002123
        },
        {
          "name": "F#4",
          "midi": 66,
          "time": 312.5672550000041,
          "velocity": 0.47244094488188976,
          "duration": 0.19594575000002123
        },
        {
          "name": "F#3",
          "midi": 54,
          "time": 312.5672550000041,
          "velocity": 0.47244094488188976,
          "duration": 0.19594575000002123
        },
        {
          "name": "D4",
          "midi": 62,
          "time": 312.5672550000041,
          "velocity": 0.47244094488188976,
          "duration": 0.19594575000002123
        },
        {
          "name": "B2",
          "midi": 47,
          "time": 312.5672550000041,
          "velocity": 0.47244094488188976,
          "duration": 0.19594575000002123
        },
        {
          "name": "D4",
          "midi": 62,
          "time": 312.7699575000041,
          "velocity": 0.47244094488188976,
          "duration": 0.3986482500000079
        },
        {
          "name": "B2",
          "midi": 47,
          "time": 312.7699575000041,
          "velocity": 0.47244094488188976,
          "duration": 0.3986482500000079
        },
        {
          "name": "F#4",
          "midi": 66,
          "time": 312.7699575000041,
          "velocity": 0.47244094488188976,
          "duration": 0.3986482500000079
        },
        {
          "name": "F#2",
          "midi": 42,
          "time": 312.7699575000041,
          "velocity": 0.47244094488188976,
          "duration": 0.3986482500000079
        },
        {
          "name": "B3",
          "midi": 59,
          "time": 312.7699575000041,
          "velocity": 0.47244094488188976,
          "duration": 0.3986482500000079
        },
        {
          "name": "F#3",
          "midi": 54,
          "time": 312.7699575000041,
          "velocity": 0.47244094488188976,
          "duration": 0.3986482500000079
        },
        {
          "name": "F#4",
          "midi": 66,
          "time": 313.17536250000416,
          "velocity": 0.47244094488188976,
          "duration": 0.19594575000002123
        },
        {
          "name": "B3",
          "midi": 59,
          "time": 313.17536250000416,
          "velocity": 0.47244094488188976,
          "duration": 0.19594575000002123
        },
        {
          "name": "F#2",
          "midi": 42,
          "time": 313.17536250000416,
          "velocity": 0.47244094488188976,
          "duration": 0.19594575000002123
        },
        {
          "name": "D4",
          "midi": 62,
          "time": 313.17536250000416,
          "velocity": 0.47244094488188976,
          "duration": 0.19594575000002123
        },
        {
          "name": "F#3",
          "midi": 54,
          "time": 313.17536250000416,
          "velocity": 0.47244094488188976,
          "duration": 0.19594575000002123
        },
        {
          "name": "B2",
          "midi": 47,
          "time": 313.17536250000416,
          "velocity": 0.47244094488188976,
          "duration": 0.19594575000002123
        },
        {
          "name": "B3",
          "midi": 59,
          "time": 313.3780650000042,
          "velocity": 0.47244094488188976,
          "duration": 0.3986482500000079
        },
        {
          "name": "F#2",
          "midi": 42,
          "time": 313.3780650000042,
          "velocity": 0.47244094488188976,
          "duration": 0.3986482500000079
        },
        {
          "name": "F#3",
          "midi": 54,
          "time": 313.3780650000042,
          "velocity": 0.47244094488188976,
          "duration": 0.3986482500000079
        },
        {
          "name": "F#4",
          "midi": 66,
          "time": 313.3780650000042,
          "velocity": 0.47244094488188976,
          "duration": 0.3986482500000079
        },
        {
          "name": "D4",
          "midi": 62,
          "time": 313.3780650000042,
          "velocity": 0.47244094488188976,
          "duration": 0.3986482500000079
        },
        {
          "name": "B2",
          "midi": 47,
          "time": 313.3780650000042,
          "velocity": 0.47244094488188976,
          "duration": 0.3986482500000079
        },
        {
          "name": "B3",
          "midi": 59,
          "time": 313.78347000000423,
          "velocity": 0.47244094488188976,
          "duration": 0.3986482500000079
        },
        {
          "name": "D4",
          "midi": 62,
          "time": 313.78347000000423,
          "velocity": 0.47244094488188976,
          "duration": 0.3986482500000079
        },
        {
          "name": "B2",
          "midi": 47,
          "time": 313.78347000000423,
          "velocity": 0.47244094488188976,
          "duration": 0.3986482500000079
        },
        {
          "name": "F#4",
          "midi": 66,
          "time": 313.78347000000423,
          "velocity": 0.47244094488188976,
          "duration": 0.3986482500000079
        },
        {
          "name": "F#2",
          "midi": 42,
          "time": 313.78347000000423,
          "velocity": 0.47244094488188976,
          "duration": 0.3986482500000079
        },
        {
          "name": "F#3",
          "midi": 54,
          "time": 313.78347000000423,
          "velocity": 0.47244094488188976,
          "duration": 0.3986482500000079
        },
        {
          "name": "B2",
          "midi": 47,
          "time": 314.18887500000426,
          "velocity": 0.47244094488188976,
          "duration": 0.3986482500000079
        },
        {
          "name": "F#2",
          "midi": 42,
          "time": 314.18887500000426,
          "velocity": 0.47244094488188976,
          "duration": 0.3986482500000079
        },
        {
          "name": "B3",
          "midi": 59,
          "time": 314.18887500000426,
          "velocity": 0.47244094488188976,
          "duration": 0.3986482500000079
        },
        {
          "name": "F#4",
          "midi": 66,
          "time": 314.18887500000426,
          "velocity": 0.47244094488188976,
          "duration": 0.3986482500000079
        },
        {
          "name": "F#3",
          "midi": 54,
          "time": 314.18887500000426,
          "velocity": 0.47244094488188976,
          "duration": 0.3986482500000079
        },
        {
          "name": "D4",
          "midi": 62,
          "time": 314.18887500000426,
          "velocity": 0.47244094488188976,
          "duration": 0.3986482500000079
        },
        {
          "name": "C#4",
          "midi": 61,
          "time": 314.5942800000043,
          "velocity": 0.47244094488188976,
          "duration": 0.19594575000002123
        },
        {
          "name": "A#3",
          "midi": 58,
          "time": 314.5942800000043,
          "velocity": 0.47244094488188976,
          "duration": 0.19594575000002123
        },
        {
          "name": "F#3",
          "midi": 54,
          "time": 314.5942800000043,
          "velocity": 0.47244094488188976,
          "duration": 0.19594575000002123
        },
        {
          "name": "F#2",
          "midi": 42,
          "time": 314.5942800000043,
          "velocity": 0.47244094488188976,
          "duration": 0.19594575000002123
        },
        {
          "name": "C#3",
          "midi": 49,
          "time": 314.5942800000043,
          "velocity": 0.47244094488188976,
          "duration": 0.19594575000002123
        },
        {
          "name": "F#4",
          "midi": 66,
          "time": 314.5942800000043,
          "velocity": 0.47244094488188976,
          "duration": 0.19594575000002123
        },
        {
          "name": "A#3",
          "midi": 58,
          "time": 314.79698250000433,
          "velocity": 0.47244094488188976,
          "duration": 0.3986482500000079
        },
        {
          "name": "F#2",
          "midi": 42,
          "time": 314.79698250000433,
          "velocity": 0.47244094488188976,
          "duration": 0.3986482500000079
        },
        {
          "name": "C#3",
          "midi": 49,
          "time": 314.79698250000433,
          "velocity": 0.47244094488188976,
          "duration": 0.3986482500000079
        },
        {
          "name": "C#4",
          "midi": 61,
          "time": 314.79698250000433,
          "velocity": 0.47244094488188976,
          "duration": 0.3986482500000079
        },
        {
          "name": "F#3",
          "midi": 54,
          "time": 314.79698250000433,
          "velocity": 0.47244094488188976,
          "duration": 0.3986482500000079
        },
        {
          "name": "F#4",
          "midi": 66,
          "time": 314.79698250000433,
          "velocity": 0.47244094488188976,
          "duration": 0.3986482500000079
        },
        {
          "name": "F#4",
          "midi": 66,
          "time": 315.20238750000436,
          "velocity": 0.47244094488188976,
          "duration": 0.19594575000002123
        },
        {
          "name": "A#3",
          "midi": 58,
          "time": 315.20238750000436,
          "velocity": 0.47244094488188976,
          "duration": 0.19594575000002123
        },
        {
          "name": "C#3",
          "midi": 49,
          "time": 315.20238750000436,
          "velocity": 0.47244094488188976,
          "duration": 0.19594575000002123
        },
        {
          "name": "F#3",
          "midi": 54,
          "time": 315.20238750000436,
          "velocity": 0.47244094488188976,
          "duration": 0.19594575000002123
        },
        {
          "name": "F#2",
          "midi": 42,
          "time": 315.20238750000436,
          "velocity": 0.47244094488188976,
          "duration": 0.19594575000002123
        },
        {
          "name": "C#4",
          "midi": 61,
          "time": 315.20238750000436,
          "velocity": 0.47244094488188976,
          "duration": 0.19594575000002123
        },
        {
          "name": "F#2",
          "midi": 42,
          "time": 315.4050900000044,
          "velocity": 0.47244094488188976,
          "duration": 0.3986482500000079
        },
        {
          "name": "C#4",
          "midi": 61,
          "time": 315.4050900000044,
          "velocity": 0.47244094488188976,
          "duration": 0.3986482500000079
        },
        {
          "name": "F#3",
          "midi": 54,
          "time": 315.4050900000044,
          "velocity": 0.47244094488188976,
          "duration": 0.3986482500000079
        },
        {
          "name": "C#3",
          "midi": 49,
          "time": 315.4050900000044,
          "velocity": 0.47244094488188976,
          "duration": 0.3986482500000079
        },
        {
          "name": "A#3",
          "midi": 58,
          "time": 315.4050900000044,
          "velocity": 0.47244094488188976,
          "duration": 0.3986482500000079
        },
        {
          "name": "F#4",
          "midi": 66,
          "time": 315.4050900000044,
          "velocity": 0.47244094488188976,
          "duration": 0.3986482500000079
        },
        {
          "name": "F#2",
          "midi": 42,
          "time": 315.81049500000444,
          "velocity": 0.47244094488188976,
          "duration": 0.19594575000002123
        },
        {
          "name": "F#3",
          "midi": 54,
          "time": 315.81049500000444,
          "velocity": 0.47244094488188976,
          "duration": 0.19594575000002123
        },
        {
          "name": "A#3",
          "midi": 58,
          "time": 315.81049500000444,
          "velocity": 0.47244094488188976,
          "duration": 0.19594575000002123
        },
        {
          "name": "C#3",
          "midi": 49,
          "time": 315.81049500000444,
          "velocity": 0.47244094488188976,
          "duration": 0.19594575000002123
        },
        {
          "name": "F#4",
          "midi": 66,
          "time": 315.81049500000444,
          "velocity": 0.47244094488188976,
          "duration": 0.19594575000002123
        },
        {
          "name": "C#4",
          "midi": 61,
          "time": 315.81049500000444,
          "velocity": 0.47244094488188976,
          "duration": 0.19594575000002123
        },
        {
          "name": "F#4",
          "midi": 66,
          "time": 316.0131975000045,
          "velocity": 0.47244094488188976,
          "duration": 0.3986482500000079
        },
        {
          "name": "C#4",
          "midi": 61,
          "time": 316.0131975000045,
          "velocity": 0.47244094488188976,
          "duration": 0.3986482500000079
        },
        {
          "name": "A#3",
          "midi": 58,
          "time": 316.0131975000045,
          "velocity": 0.47244094488188976,
          "duration": 0.3986482500000079
        },
        {
          "name": "C#3",
          "midi": 49,
          "time": 316.0131975000045,
          "velocity": 0.47244094488188976,
          "duration": 0.3986482500000079
        },
        {
          "name": "F#2",
          "midi": 42,
          "time": 316.0131975000045,
          "velocity": 0.47244094488188976,
          "duration": 0.3986482500000079
        },
        {
          "name": "F#3",
          "midi": 54,
          "time": 316.0131975000045,
          "velocity": 0.47244094488188976,
          "duration": 0.3986482500000079
        },
        {
          "name": "F#3",
          "midi": 54,
          "time": 316.4186025000045,
          "velocity": 0.47244094488188976,
          "duration": 0.19594575000002123
        },
        {
          "name": "C#3",
          "midi": 49,
          "time": 316.4186025000045,
          "velocity": 0.47244094488188976,
          "duration": 0.19594575000002123
        },
        {
          "name": "C#4",
          "midi": 61,
          "time": 316.4186025000045,
          "velocity": 0.47244094488188976,
          "duration": 0.19594575000002123
        },
        {
          "name": "F#4",
          "midi": 66,
          "time": 316.4186025000045,
          "velocity": 0.47244094488188976,
          "duration": 0.19594575000002123
        },
        {
          "name": "F#2",
          "midi": 42,
          "time": 316.4186025000045,
          "velocity": 0.47244094488188976,
          "duration": 0.19594575000002123
        },
        {
          "name": "A#3",
          "midi": 58,
          "time": 316.4186025000045,
          "velocity": 0.47244094488188976,
          "duration": 0.19594575000002123
        },
        {
          "name": "A#3",
          "midi": 58,
          "time": 316.62130500000455,
          "velocity": 0.47244094488188976,
          "duration": 0.3986482500000079
        },
        {
          "name": "C#3",
          "midi": 49,
          "time": 316.62130500000455,
          "velocity": 0.47244094488188976,
          "duration": 0.3986482500000079
        },
        {
          "name": "C#4",
          "midi": 61,
          "time": 316.62130500000455,
          "velocity": 0.47244094488188976,
          "duration": 0.3986482500000079
        },
        {
          "name": "F#3",
          "midi": 54,
          "time": 316.62130500000455,
          "velocity": 0.47244094488188976,
          "duration": 0.3986482500000079
        },
        {
          "name": "F#2",
          "midi": 42,
          "time": 316.62130500000455,
          "velocity": 0.47244094488188976,
          "duration": 0.3986482500000079
        },
        {
          "name": "F#4",
          "midi": 66,
          "time": 316.62130500000455,
          "velocity": 0.47244094488188976,
          "duration": 0.3986482500000079
        },
        {
          "name": "A#3",
          "midi": 58,
          "time": 317.0267100000046,
          "velocity": 0.47244094488188976,
          "duration": 0.3986482500000079
        },
        {
          "name": "F#4",
          "midi": 66,
          "time": 317.0267100000046,
          "velocity": 0.47244094488188976,
          "duration": 0.3986482500000079
        },
        {
          "name": "C#4",
          "midi": 61,
          "time": 317.0267100000046,
          "velocity": 0.47244094488188976,
          "duration": 0.3986482500000079
        },
        {
          "name": "C#3",
          "midi": 49,
          "time": 317.0267100000046,
          "velocity": 0.47244094488188976,
          "duration": 0.3986482500000079
        },
        {
          "name": "F#2",
          "midi": 42,
          "time": 317.0267100000046,
          "velocity": 0.47244094488188976,
          "duration": 0.3986482500000079
        },
        {
          "name": "F#3",
          "midi": 54,
          "time": 317.0267100000046,
          "velocity": 0.47244094488188976,
          "duration": 0.3986482500000079
        },
        {
          "name": "F#4",
          "midi": 66,
          "time": 317.4321150000046,
          "velocity": 0.47244094488188976,
          "duration": 0.3986482500000079
        },
        {
          "name": "C#3",
          "midi": 49,
          "time": 317.4321150000046,
          "velocity": 0.47244094488188976,
          "duration": 0.3986482500000079
        },
        {
          "name": "F#2",
          "midi": 42,
          "time": 317.4321150000046,
          "velocity": 0.47244094488188976,
          "duration": 0.3986482500000079
        },
        {
          "name": "A#3",
          "midi": 58,
          "time": 317.4321150000046,
          "velocity": 0.47244094488188976,
          "duration": 0.3986482500000079
        },
        {
          "name": "F#3",
          "midi": 54,
          "time": 317.4321150000046,
          "velocity": 0.47244094488188976,
          "duration": 0.3986482500000079
        },
        {
          "name": "C#4",
          "midi": 61,
          "time": 317.4321150000046,
          "velocity": 0.47244094488188976,
          "duration": 0.3986482500000079
        },
        {
          "name": "C#4",
          "midi": 61,
          "time": 317.83752000000464,
          "velocity": 0.47244094488188976,
          "duration": 0.19594575000002123
        },
        {
          "name": "A3",
          "midi": 57,
          "time": 317.83752000000464,
          "velocity": 0.47244094488188976,
          "duration": 0.19594575000002123
        },
        {
          "name": "E2",
          "midi": 40,
          "time": 317.83752000000464,
          "velocity": 0.47244094488188976,
          "duration": 0.19594575000002123
        },
        {
          "name": "A2",
          "midi": 45,
          "time": 317.83752000000464,
          "velocity": 0.47244094488188976,
          "duration": 0.19594575000002123
        },
        {
          "name": "E4",
          "midi": 64,
          "time": 317.83752000000464,
          "velocity": 0.47244094488188976,
          "duration": 0.19594575000002123
        },
        {
          "name": "E3",
          "midi": 52,
          "time": 317.83752000000464,
          "velocity": 0.47244094488188976,
          "duration": 0.19594575000002123
        },
        {
          "name": "A3",
          "midi": 57,
          "time": 318.0402225000047,
          "velocity": 0.47244094488188976,
          "duration": 0.3986482500000079
        },
        {
          "name": "E2",
          "midi": 40,
          "time": 318.0402225000047,
          "velocity": 0.47244094488188976,
          "duration": 0.3986482500000079
        },
        {
          "name": "C#4",
          "midi": 61,
          "time": 318.0402225000047,
          "velocity": 0.47244094488188976,
          "duration": 0.3986482500000079
        },
        {
          "name": "E3",
          "midi": 52,
          "time": 318.0402225000047,
          "velocity": 0.47244094488188976,
          "duration": 0.3986482500000079
        },
        {
          "name": "A2",
          "midi": 45,
          "time": 318.0402225000047,
          "velocity": 0.47244094488188976,
          "duration": 0.3986482500000079
        },
        {
          "name": "E4",
          "midi": 64,
          "time": 318.0402225000047,
          "velocity": 0.47244094488188976,
          "duration": 0.3986482500000079
        },
        {
          "name": "A2",
          "midi": 45,
          "time": 318.4456275000047,
          "velocity": 0.47244094488188976,
          "duration": 0.19594575000002123
        },
        {
          "name": "E2",
          "midi": 40,
          "time": 318.4456275000047,
          "velocity": 0.47244094488188976,
          "duration": 0.19594575000002123
        },
        {
          "name": "E3",
          "midi": 52,
          "time": 318.4456275000047,
          "velocity": 0.47244094488188976,
          "duration": 0.19594575000002123
        },
        {
          "name": "A3",
          "midi": 57,
          "time": 318.4456275000047,
          "velocity": 0.47244094488188976,
          "duration": 0.19594575000002123
        },
        {
          "name": "E4",
          "midi": 64,
          "time": 318.4456275000047,
          "velocity": 0.47244094488188976,
          "duration": 0.19594575000002123
        },
        {
          "name": "C#4",
          "midi": 61,
          "time": 318.4456275000047,
          "velocity": 0.47244094488188976,
          "duration": 0.19594575000002123
        },
        {
          "name": "A3",
          "midi": 57,
          "time": 318.64833000000476,
          "velocity": 0.47244094488188976,
          "duration": 0.3986482500000079
        },
        {
          "name": "A2",
          "midi": 45,
          "time": 318.64833000000476,
          "velocity": 0.47244094488188976,
          "duration": 0.3986482500000079
        },
        {
          "name": "E4",
          "midi": 64,
          "time": 318.64833000000476,
          "velocity": 0.47244094488188976,
          "duration": 0.3986482500000079
        },
        {
          "name": "E3",
          "midi": 52,
          "time": 318.64833000000476,
          "velocity": 0.47244094488188976,
          "duration": 0.3986482500000079
        },
        {
          "name": "E2",
          "midi": 40,
          "time": 318.64833000000476,
          "velocity": 0.47244094488188976,
          "duration": 0.3986482500000079
        },
        {
          "name": "C#4",
          "midi": 61,
          "time": 318.64833000000476,
          "velocity": 0.47244094488188976,
          "duration": 0.3986482500000079
        },
        {
          "name": "E2",
          "midi": 40,
          "time": 319.0537350000048,
          "velocity": 0.47244094488188976,
          "duration": 0.19594575000002123
        },
        {
          "name": "A3",
          "midi": 57,
          "time": 319.0537350000048,
          "velocity": 0.47244094488188976,
          "duration": 0.19594575000002123
        },
        {
          "name": "E4",
          "midi": 64,
          "time": 319.0537350000048,
          "velocity": 0.47244094488188976,
          "duration": 0.19594575000002123
        },
        {
          "name": "E3",
          "midi": 52,
          "time": 319.0537350000048,
          "velocity": 0.47244094488188976,
          "duration": 0.19594575000002123
        },
        {
          "name": "C#4",
          "midi": 61,
          "time": 319.0537350000048,
          "velocity": 0.47244094488188976,
          "duration": 0.19594575000002123
        },
        {
          "name": "A2",
          "midi": 45,
          "time": 319.0537350000048,
          "velocity": 0.47244094488188976,
          "duration": 0.19594575000002123
        },
        {
          "name": "C#4",
          "midi": 61,
          "time": 319.25643750000484,
          "velocity": 0.47244094488188976,
          "duration": 0.3986482500000079
        },
        {
          "name": "A2",
          "midi": 45,
          "time": 319.25643750000484,
          "velocity": 0.47244094488188976,
          "duration": 0.3986482500000079
        },
        {
          "name": "E4",
          "midi": 64,
          "time": 319.25643750000484,
          "velocity": 0.47244094488188976,
          "duration": 0.3986482500000079
        },
        {
          "name": "E2",
          "midi": 40,
          "time": 319.25643750000484,
          "velocity": 0.47244094488188976,
          "duration": 0.3986482500000079
        },
        {
          "name": "A3",
          "midi": 57,
          "time": 319.25643750000484,
          "velocity": 0.47244094488188976,
          "duration": 0.3986482500000079
        },
        {
          "name": "E3",
          "midi": 52,
          "time": 319.25643750000484,
          "velocity": 0.47244094488188976,
          "duration": 0.3986482500000079
        },
        {
          "name": "E4",
          "midi": 64,
          "time": 319.66184250000487,
          "velocity": 0.47244094488188976,
          "duration": 0.19594575000002123
        },
        {
          "name": "A3",
          "midi": 57,
          "time": 319.66184250000487,
          "velocity": 0.47244094488188976,
          "duration": 0.19594575000002123
        },
        {
          "name": "E2",
          "midi": 40,
          "time": 319.66184250000487,
          "velocity": 0.47244094488188976,
          "duration": 0.19594575000002123
        },
        {
          "name": "C#4",
          "midi": 61,
          "time": 319.66184250000487,
          "velocity": 0.47244094488188976,
          "duration": 0.19594575000002123
        },
        {
          "name": "E3",
          "midi": 52,
          "time": 319.66184250000487,
          "velocity": 0.47244094488188976,
          "duration": 0.19594575000002123
        },
        {
          "name": "A2",
          "midi": 45,
          "time": 319.66184250000487,
          "velocity": 0.47244094488188976,
          "duration": 0.19594575000002123
        },
        {
          "name": "A3",
          "midi": 57,
          "time": 319.8645450000049,
          "velocity": 0.47244094488188976,
          "duration": 0.3986482500000079
        },
        {
          "name": "E2",
          "midi": 40,
          "time": 319.8645450000049,
          "velocity": 0.47244094488188976,
          "duration": 0.3986482500000079
        },
        {
          "name": "E3",
          "midi": 52,
          "time": 319.8645450000049,
          "velocity": 0.47244094488188976,
          "duration": 0.3986482500000079
        },
        {
          "name": "E4",
          "midi": 64,
          "time": 319.8645450000049,
          "velocity": 0.47244094488188976,
          "duration": 0.3986482500000079
        },
        {
          "name": "C#4",
          "midi": 61,
          "time": 319.8645450000049,
          "velocity": 0.47244094488188976,
          "duration": 0.3986482500000079
        },
        {
          "name": "A2",
          "midi": 45,
          "time": 319.8645450000049,
          "velocity": 0.47244094488188976,
          "duration": 0.3986482500000079
        },
        {
          "name": "A3",
          "midi": 57,
          "time": 320.26995000000494,
          "velocity": 0.47244094488188976,
          "duration": 0.3986482500000079
        },
        {
          "name": "C#4",
          "midi": 61,
          "time": 320.26995000000494,
          "velocity": 0.47244094488188976,
          "duration": 0.3986482500000079
        },
        {
          "name": "A2",
          "midi": 45,
          "time": 320.26995000000494,
          "velocity": 0.47244094488188976,
          "duration": 0.3986482500000079
        },
        {
          "name": "E4",
          "midi": 64,
          "time": 320.26995000000494,
          "velocity": 0.47244094488188976,
          "duration": 0.3986482500000079
        },
        {
          "name": "E2",
          "midi": 40,
          "time": 320.26995000000494,
          "velocity": 0.47244094488188976,
          "duration": 0.3986482500000079
        },
        {
          "name": "E3",
          "midi": 52,
          "time": 320.26995000000494,
          "velocity": 0.47244094488188976,
          "duration": 0.3986482500000079
        },
        {
          "name": "A2",
          "midi": 45,
          "time": 320.67535500000497,
          "velocity": 0.47244094488188976,
          "duration": 0.3986482500000079
        },
        {
          "name": "E2",
          "midi": 40,
          "time": 320.67535500000497,
          "velocity": 0.47244094488188976,
          "duration": 0.3986482500000079
        },
        {
          "name": "A3",
          "midi": 57,
          "time": 320.67535500000497,
          "velocity": 0.47244094488188976,
          "duration": 0.3986482500000079
        },
        {
          "name": "E4",
          "midi": 64,
          "time": 320.67535500000497,
          "velocity": 0.47244094488188976,
          "duration": 0.3986482500000079
        },
        {
          "name": "E3",
          "midi": 52,
          "time": 320.67535500000497,
          "velocity": 0.47244094488188976,
          "duration": 0.3986482500000079
        },
        {
          "name": "C#4",
          "midi": 61,
          "time": 320.67535500000497,
          "velocity": 0.47244094488188976,
          "duration": 0.3986482500000079
        },
        {
          "name": "B3",
          "midi": 59,
          "time": 321.080760000005,
          "velocity": 0.47244094488188976,
          "duration": 0.19594575000002123
        },
        {
          "name": "G#3",
          "midi": 56,
          "time": 321.080760000005,
          "velocity": 0.47244094488188976,
          "duration": 0.19594575000002123
        },
        {
          "name": "E3",
          "midi": 52,
          "time": 321.080760000005,
          "velocity": 0.47244094488188976,
          "duration": 0.19594575000002123
        },
        {
          "name": "E2",
          "midi": 40,
          "time": 321.080760000005,
          "velocity": 0.47244094488188976,
          "duration": 0.19594575000002123
        },
        {
          "name": "B2",
          "midi": 47,
          "time": 321.080760000005,
          "velocity": 0.47244094488188976,
          "duration": 0.19594575000002123
        },
        {
          "name": "E4",
          "midi": 64,
          "time": 321.080760000005,
          "velocity": 0.47244094488188976,
          "duration": 0.19594575000002123
        },
        {
          "name": "G#3",
          "midi": 56,
          "time": 321.28346250000504,
          "velocity": 0.47244094488188976,
          "duration": 0.3986482500000079
        },
        {
          "name": "E2",
          "midi": 40,
          "time": 321.28346250000504,
          "velocity": 0.47244094488188976,
          "duration": 0.3986482500000079
        },
        {
          "name": "B2",
          "midi": 47,
          "time": 321.28346250000504,
          "velocity": 0.47244094488188976,
          "duration": 0.3986482500000079
        },
        {
          "name": "B3",
          "midi": 59,
          "time": 321.28346250000504,
          "velocity": 0.47244094488188976,
          "duration": 0.3986482500000079
        },
        {
          "name": "E3",
          "midi": 52,
          "time": 321.28346250000504,
          "velocity": 0.47244094488188976,
          "duration": 0.3986482500000079
        },
        {
          "name": "E4",
          "midi": 64,
          "time": 321.28346250000504,
          "velocity": 0.47244094488188976,
          "duration": 0.3986482500000079
        },
        {
          "name": "E4",
          "midi": 64,
          "time": 321.6888675000051,
          "velocity": 0.47244094488188976,
          "duration": 0.19594575000002123
        },
        {
          "name": "G#3",
          "midi": 56,
          "time": 321.6888675000051,
          "velocity": 0.47244094488188976,
          "duration": 0.19594575000002123
        },
        {
          "name": "B2",
          "midi": 47,
          "time": 321.6888675000051,
          "velocity": 0.47244094488188976,
          "duration": 0.19594575000002123
        },
        {
          "name": "E3",
          "midi": 52,
          "time": 321.6888675000051,
          "velocity": 0.47244094488188976,
          "duration": 0.19594575000002123
        },
        {
          "name": "E2",
          "midi": 40,
          "time": 321.6888675000051,
          "velocity": 0.47244094488188976,
          "duration": 0.19594575000002123
        },
        {
          "name": "B3",
          "midi": 59,
          "time": 321.6888675000051,
          "velocity": 0.47244094488188976,
          "duration": 0.19594575000002123
        },
        {
          "name": "E2",
          "midi": 40,
          "time": 321.8915700000051,
          "velocity": 0.47244094488188976,
          "duration": 0.3986482500000079
        },
        {
          "name": "B3",
          "midi": 59,
          "time": 321.8915700000051,
          "velocity": 0.47244094488188976,
          "duration": 0.3986482500000079
        },
        {
          "name": "E3",
          "midi": 52,
          "time": 321.8915700000051,
          "velocity": 0.47244094488188976,
          "duration": 0.3986482500000079
        },
        {
          "name": "B2",
          "midi": 47,
          "time": 321.8915700000051,
          "velocity": 0.47244094488188976,
          "duration": 0.3986482500000079
        },
        {
          "name": "G#3",
          "midi": 56,
          "time": 321.8915700000051,
          "velocity": 0.47244094488188976,
          "duration": 0.3986482500000079
        },
        {
          "name": "E4",
          "midi": 64,
          "time": 321.8915700000051,
          "velocity": 0.47244094488188976,
          "duration": 0.3986482500000079
        },
        {
          "name": "E2",
          "midi": 40,
          "time": 322.29697500000515,
          "velocity": 0.47244094488188976,
          "duration": 0.19594575000002123
        },
        {
          "name": "E3",
          "midi": 52,
          "time": 322.29697500000515,
          "velocity": 0.47244094488188976,
          "duration": 0.19594575000002123
        },
        {
          "name": "G#3",
          "midi": 56,
          "time": 322.29697500000515,
          "velocity": 0.47244094488188976,
          "duration": 0.19594575000002123
        },
        {
          "name": "B2",
          "midi": 47,
          "time": 322.29697500000515,
          "velocity": 0.47244094488188976,
          "duration": 0.19594575000002123
        },
        {
          "name": "E4",
          "midi": 64,
          "time": 322.29697500000515,
          "velocity": 0.47244094488188976,
          "duration": 0.19594575000002123
        },
        {
          "name": "B3",
          "midi": 59,
          "time": 322.29697500000515,
          "velocity": 0.47244094488188976,
          "duration": 0.19594575000002123
        },
        {
          "name": "E4",
          "midi": 64,
          "time": 322.4996775000052,
          "velocity": 0.47244094488188976,
          "duration": 0.3986482500000079
        },
        {
          "name": "B3",
          "midi": 59,
          "time": 322.4996775000052,
          "velocity": 0.47244094488188976,
          "duration": 0.3986482500000079
        },
        {
          "name": "G#3",
          "midi": 56,
          "time": 322.4996775000052,
          "velocity": 0.47244094488188976,
          "duration": 0.3986482500000079
        },
        {
          "name": "B2",
          "midi": 47,
          "time": 322.4996775000052,
          "velocity": 0.47244094488188976,
          "duration": 0.3986482500000079
        },
        {
          "name": "E2",
          "midi": 40,
          "time": 322.4996775000052,
          "velocity": 0.47244094488188976,
          "duration": 0.3986482500000079
        },
        {
          "name": "E3",
          "midi": 52,
          "time": 322.4996775000052,
          "velocity": 0.47244094488188976,
          "duration": 0.3986482500000079
        },
        {
          "name": "E3",
          "midi": 52,
          "time": 322.9050825000052,
          "velocity": 0.47244094488188976,
          "duration": 0.19594575000002123
        },
        {
          "name": "B2",
          "midi": 47,
          "time": 322.9050825000052,
          "velocity": 0.47244094488188976,
          "duration": 0.19594575000002123
        },
        {
          "name": "B3",
          "midi": 59,
          "time": 322.9050825000052,
          "velocity": 0.47244094488188976,
          "duration": 0.19594575000002123
        },
        {
          "name": "E4",
          "midi": 64,
          "time": 322.9050825000052,
          "velocity": 0.47244094488188976,
          "duration": 0.19594575000002123
        },
        {
          "name": "E2",
          "midi": 40,
          "time": 322.9050825000052,
          "velocity": 0.47244094488188976,
          "duration": 0.19594575000002123
        },
        {
          "name": "G#3",
          "midi": 56,
          "time": 322.9050825000052,
          "velocity": 0.47244094488188976,
          "duration": 0.19594575000002123
        },
        {
          "name": "G#3",
          "midi": 56,
          "time": 323.10778500000526,
          "velocity": 0.47244094488188976,
          "duration": 0.3986482500000079
        },
        {
          "name": "B2",
          "midi": 47,
          "time": 323.10778500000526,
          "velocity": 0.47244094488188976,
          "duration": 0.3986482500000079
        },
        {
          "name": "B3",
          "midi": 59,
          "time": 323.10778500000526,
          "velocity": 0.47244094488188976,
          "duration": 0.3986482500000079
        },
        {
          "name": "E3",
          "midi": 52,
          "time": 323.10778500000526,
          "velocity": 0.47244094488188976,
          "duration": 0.3986482500000079
        },
        {
          "name": "E2",
          "midi": 40,
          "time": 323.10778500000526,
          "velocity": 0.47244094488188976,
          "duration": 0.3986482500000079
        },
        {
          "name": "E4",
          "midi": 64,
          "time": 323.10778500000526,
          "velocity": 0.47244094488188976,
          "duration": 0.3986482500000079
        },
        {
          "name": "G#3",
          "midi": 56,
          "time": 323.5131900000053,
          "velocity": 0.47244094488188976,
          "duration": 0.3986482500000079
        },
        {
          "name": "E4",
          "midi": 64,
          "time": 323.5131900000053,
          "velocity": 0.47244094488188976,
          "duration": 0.3986482500000079
        },
        {
          "name": "B3",
          "midi": 59,
          "time": 323.5131900000053,
          "velocity": 0.47244094488188976,
          "duration": 0.3986482500000079
        },
        {
          "name": "B2",
          "midi": 47,
          "time": 323.5131900000053,
          "velocity": 0.47244094488188976,
          "duration": 0.3986482500000079
        },
        {
          "name": "E2",
          "midi": 40,
          "time": 323.5131900000053,
          "velocity": 0.47244094488188976,
          "duration": 0.3986482500000079
        },
        {
          "name": "E3",
          "midi": 52,
          "time": 323.5131900000053,
          "velocity": 0.47244094488188976,
          "duration": 0.3986482500000079
        },
        {
          "name": "E4",
          "midi": 64,
          "time": 323.9185950000053,
          "velocity": 0.47244094488188976,
          "duration": 0.3986482500000079
        },
        {
          "name": "B2",
          "midi": 47,
          "time": 323.9185950000053,
          "velocity": 0.47244094488188976,
          "duration": 0.3986482500000079
        },
        {
          "name": "E2",
          "midi": 40,
          "time": 323.9185950000053,
          "velocity": 0.47244094488188976,
          "duration": 0.3986482500000079
        },
        {
          "name": "G#3",
          "midi": 56,
          "time": 323.9185950000053,
          "velocity": 0.47244094488188976,
          "duration": 0.3986482500000079
        },
        {
          "name": "E3",
          "midi": 52,
          "time": 323.9185950000053,
          "velocity": 0.47244094488188976,
          "duration": 0.3986482500000079
        },
        {
          "name": "B3",
          "midi": 59,
          "time": 323.9185950000053,
          "velocity": 0.47244094488188976,
          "duration": 0.3986482500000079
        },
        {
          "name": "D4",
          "midi": 62,
          "time": 324.32400000000536,
          "velocity": 0.47244094488188976,
          "duration": 0.19594575000002123
        },
        {
          "name": "B3",
          "midi": 59,
          "time": 324.32400000000536,
          "velocity": 0.47244094488188976,
          "duration": 0.19594575000002123
        },
        {
          "name": "G2",
          "midi": 43,
          "time": 324.32400000000536,
          "velocity": 0.47244094488188976,
          "duration": 0.19594575000002123
        },
        {
          "name": "B2",
          "midi": 47,
          "time": 324.32400000000536,
          "velocity": 0.47244094488188976,
          "duration": 0.19594575000002123
        },
        {
          "name": "G4",
          "midi": 67,
          "time": 324.32400000000536,
          "velocity": 0.47244094488188976,
          "duration": 0.19594575000002123
        },
        {
          "name": "G3",
          "midi": 55,
          "time": 324.32400000000536,
          "velocity": 0.47244094488188976,
          "duration": 0.19594575000002123
        },
        {
          "name": "B3",
          "midi": 59,
          "time": 324.5267025000054,
          "velocity": 0.47244094488188976,
          "duration": 0.3986482500000079
        },
        {
          "name": "G2",
          "midi": 43,
          "time": 324.5267025000054,
          "velocity": 0.47244094488188976,
          "duration": 0.3986482500000079
        },
        {
          "name": "D4",
          "midi": 62,
          "time": 324.5267025000054,
          "velocity": 0.47244094488188976,
          "duration": 0.3986482500000079
        },
        {
          "name": "G3",
          "midi": 55,
          "time": 324.5267025000054,
          "velocity": 0.47244094488188976,
          "duration": 0.3986482500000079
        },
        {
          "name": "B2",
          "midi": 47,
          "time": 324.5267025000054,
          "velocity": 0.47244094488188976,
          "duration": 0.3986482500000079
        },
        {
          "name": "G4",
          "midi": 67,
          "time": 324.5267025000054,
          "velocity": 0.47244094488188976,
          "duration": 0.3986482500000079
        },
        {
          "name": "B2",
          "midi": 47,
          "time": 324.93210750000543,
          "velocity": 0.47244094488188976,
          "duration": 0.19594575000002123
        },
        {
          "name": "G2",
          "midi": 43,
          "time": 324.93210750000543,
          "velocity": 0.47244094488188976,
          "duration": 0.19594575000002123
        },
        {
          "name": "G3",
          "midi": 55,
          "time": 324.93210750000543,
          "velocity": 0.47244094488188976,
          "duration": 0.19594575000002123
        },
        {
          "name": "B3",
          "midi": 59,
          "time": 324.93210750000543,
          "velocity": 0.47244094488188976,
          "duration": 0.19594575000002123
        },
        {
          "name": "G4",
          "midi": 67,
          "time": 324.93210750000543,
          "velocity": 0.47244094488188976,
          "duration": 0.19594575000002123
        },
        {
          "name": "D4",
          "midi": 62,
          "time": 324.93210750000543,
          "velocity": 0.47244094488188976,
          "duration": 0.19594575000002123
        },
        {
          "name": "B3",
          "midi": 59,
          "time": 325.1348100000055,
          "velocity": 0.47244094488188976,
          "duration": 0.3986482500000079
        },
        {
          "name": "B2",
          "midi": 47,
          "time": 325.1348100000055,
          "velocity": 0.47244094488188976,
          "duration": 0.3986482500000079
        },
        {
          "name": "G4",
          "midi": 67,
          "time": 325.1348100000055,
          "velocity": 0.47244094488188976,
          "duration": 0.3986482500000079
        },
        {
          "name": "G3",
          "midi": 55,
          "time": 325.1348100000055,
          "velocity": 0.47244094488188976,
          "duration": 0.3986482500000079
        },
        {
          "name": "G2",
          "midi": 43,
          "time": 325.1348100000055,
          "velocity": 0.47244094488188976,
          "duration": 0.3986482500000079
        },
        {
          "name": "D4",
          "midi": 62,
          "time": 325.1348100000055,
          "velocity": 0.47244094488188976,
          "duration": 0.3986482500000079
        },
        {
          "name": "G2",
          "midi": 43,
          "time": 325.5402150000055,
          "velocity": 0.47244094488188976,
          "duration": 0.19594575000002123
        },
        {
          "name": "B3",
          "midi": 59,
          "time": 325.5402150000055,
          "velocity": 0.47244094488188976,
          "duration": 0.19594575000002123
        },
        {
          "name": "G4",
          "midi": 67,
          "time": 325.5402150000055,
          "velocity": 0.47244094488188976,
          "duration": 0.19594575000002123
        },
        {
          "name": "G3",
          "midi": 55,
          "time": 325.5402150000055,
          "velocity": 0.47244094488188976,
          "duration": 0.19594575000002123
        },
        {
          "name": "D4",
          "midi": 62,
          "time": 325.5402150000055,
          "velocity": 0.47244094488188976,
          "duration": 0.19594575000002123
        },
        {
          "name": "B2",
          "midi": 47,
          "time": 325.5402150000055,
          "velocity": 0.47244094488188976,
          "duration": 0.19594575000002123
        },
        {
          "name": "D4",
          "midi": 62,
          "time": 325.74291750000555,
          "velocity": 0.47244094488188976,
          "duration": 0.3986482500000079
        },
        {
          "name": "B2",
          "midi": 47,
          "time": 325.74291750000555,
          "velocity": 0.47244094488188976,
          "duration": 0.3986482500000079
        },
        {
          "name": "G4",
          "midi": 67,
          "time": 325.74291750000555,
          "velocity": 0.47244094488188976,
          "duration": 0.3986482500000079
        },
        {
          "name": "G2",
          "midi": 43,
          "time": 325.74291750000555,
          "velocity": 0.47244094488188976,
          "duration": 0.3986482500000079
        },
        {
          "name": "B3",
          "midi": 59,
          "time": 325.74291750000555,
          "velocity": 0.47244094488188976,
          "duration": 0.3986482500000079
        },
        {
          "name": "G3",
          "midi": 55,
          "time": 325.74291750000555,
          "velocity": 0.47244094488188976,
          "duration": 0.3986482500000079
        },
        {
          "name": "G4",
          "midi": 67,
          "time": 326.1483225000056,
          "velocity": 0.47244094488188976,
          "duration": 0.19594575000002123
        },
        {
          "name": "B3",
          "midi": 59,
          "time": 326.1483225000056,
          "velocity": 0.47244094488188976,
          "duration": 0.19594575000002123
        },
        {
          "name": "G2",
          "midi": 43,
          "time": 326.1483225000056,
          "velocity": 0.47244094488188976,
          "duration": 0.19594575000002123
        },
        {
          "name": "D4",
          "midi": 62,
          "time": 326.1483225000056,
          "velocity": 0.47244094488188976,
          "duration": 0.19594575000002123
        },
        {
          "name": "G3",
          "midi": 55,
          "time": 326.1483225000056,
          "velocity": 0.47244094488188976,
          "duration": 0.19594575000002123
        },
        {
          "name": "B2",
          "midi": 47,
          "time": 326.1483225000056,
          "velocity": 0.47244094488188976,
          "duration": 0.19594575000002123
        },
        {
          "name": "B3",
          "midi": 59,
          "time": 326.3510250000056,
          "velocity": 0.47244094488188976,
          "duration": 0.3986482500000079
        },
        {
          "name": "G2",
          "midi": 43,
          "time": 326.3510250000056,
          "velocity": 0.47244094488188976,
          "duration": 0.3986482500000079
        },
        {
          "name": "G3",
          "midi": 55,
          "time": 326.3510250000056,
          "velocity": 0.47244094488188976,
          "duration": 0.3986482500000079
        },
        {
          "name": "G4",
          "midi": 67,
          "time": 326.3510250000056,
          "velocity": 0.47244094488188976,
          "duration": 0.3986482500000079
        },
        {
          "name": "D4",
          "midi": 62,
          "time": 326.3510250000056,
          "velocity": 0.47244094488188976,
          "duration": 0.3986482500000079
        },
        {
          "name": "B2",
          "midi": 47,
          "time": 326.3510250000056,
          "velocity": 0.47244094488188976,
          "duration": 0.3986482500000079
        },
        {
          "name": "B3",
          "midi": 59,
          "time": 326.75643000000565,
          "velocity": 0.47244094488188976,
          "duration": 0.3986482500000079
        },
        {
          "name": "D4",
          "midi": 62,
          "time": 326.75643000000565,
          "velocity": 0.47244094488188976,
          "duration": 0.3986482500000079
        },
        {
          "name": "B2",
          "midi": 47,
          "time": 326.75643000000565,
          "velocity": 0.47244094488188976,
          "duration": 0.3986482500000079
        },
        {
          "name": "G4",
          "midi": 67,
          "time": 326.75643000000565,
          "velocity": 0.47244094488188976,
          "duration": 0.3986482500000079
        },
        {
          "name": "G2",
          "midi": 43,
          "time": 326.75643000000565,
          "velocity": 0.47244094488188976,
          "duration": 0.3986482500000079
        },
        {
          "name": "G3",
          "midi": 55,
          "time": 326.75643000000565,
          "velocity": 0.47244094488188976,
          "duration": 0.3986482500000079
        },
        {
          "name": "B2",
          "midi": 47,
          "time": 327.1618350000057,
          "velocity": 0.47244094488188976,
          "duration": 0.3986482500000079
        },
        {
          "name": "G2",
          "midi": 43,
          "time": 327.1618350000057,
          "velocity": 0.47244094488188976,
          "duration": 0.3986482500000079
        },
        {
          "name": "B3",
          "midi": 59,
          "time": 327.1618350000057,
          "velocity": 0.47244094488188976,
          "duration": 0.3986482500000079
        },
        {
          "name": "G4",
          "midi": 67,
          "time": 327.1618350000057,
          "velocity": 0.47244094488188976,
          "duration": 0.3986482500000079
        },
        {
          "name": "G3",
          "midi": 55,
          "time": 327.1618350000057,
          "velocity": 0.47244094488188976,
          "duration": 0.3986482500000079
        },
        {
          "name": "D4",
          "midi": 62,
          "time": 327.1618350000057,
          "velocity": 0.47244094488188976,
          "duration": 0.3986482500000079
        },
        {
          "name": "F#4",
          "midi": 66,
          "time": 327.5672400000057,
          "velocity": 0.47244094488188976,
          "duration": 0.19594575000002123
        },
        {
          "name": "D4",
          "midi": 62,
          "time": 327.5672400000057,
          "velocity": 0.47244094488188976,
          "duration": 0.19594575000002123
        },
        {
          "name": "A3",
          "midi": 57,
          "time": 327.5672400000057,
          "velocity": 0.47244094488188976,
          "duration": 0.19594575000002123
        },
        {
          "name": "A2",
          "midi": 45,
          "time": 327.5672400000057,
          "velocity": 0.47244094488188976,
          "duration": 0.19594575000002123
        },
        {
          "name": "D3",
          "midi": 50,
          "time": 327.5672400000057,
          "velocity": 0.47244094488188976,
          "duration": 0.19594575000002123
        },
        {
          "name": "A4",
          "midi": 69,
          "time": 327.5672400000057,
          "velocity": 0.47244094488188976,
          "duration": 0.19594575000002123
        },
        {
          "name": "D4",
          "midi": 62,
          "time": 327.76994250000575,
          "velocity": 0.47244094488188976,
          "duration": 0.3986482500000079
        },
        {
          "name": "A2",
          "midi": 45,
          "time": 327.76994250000575,
          "velocity": 0.47244094488188976,
          "duration": 0.3986482500000079
        },
        {
          "name": "D3",
          "midi": 50,
          "time": 327.76994250000575,
          "velocity": 0.47244094488188976,
          "duration": 0.3986482500000079
        },
        {
          "name": "F#4",
          "midi": 66,
          "time": 327.76994250000575,
          "velocity": 0.47244094488188976,
          "duration": 0.3986482500000079
        },
        {
          "name": "A3",
          "midi": 57,
          "time": 327.76994250000575,
          "velocity": 0.47244094488188976,
          "duration": 0.3986482500000079
        },
        {
          "name": "A4",
          "midi": 69,
          "time": 327.76994250000575,
          "velocity": 0.47244094488188976,
          "duration": 0.3986482500000079
        },
        {
          "name": "A4",
          "midi": 69,
          "time": 328.1753475000058,
          "velocity": 0.47244094488188976,
          "duration": 0.19594575000002123
        },
        {
          "name": "D4",
          "midi": 62,
          "time": 328.1753475000058,
          "velocity": 0.47244094488188976,
          "duration": 0.19594575000002123
        },
        {
          "name": "D3",
          "midi": 50,
          "time": 328.1753475000058,
          "velocity": 0.47244094488188976,
          "duration": 0.19594575000002123
        },
        {
          "name": "A3",
          "midi": 57,
          "time": 328.1753475000058,
          "velocity": 0.47244094488188976,
          "duration": 0.19594575000002123
        },
        {
          "name": "A2",
          "midi": 45,
          "time": 328.1753475000058,
          "velocity": 0.47244094488188976,
          "duration": 0.19594575000002123
        },
        {
          "name": "F#4",
          "midi": 66,
          "time": 328.1753475000058,
          "velocity": 0.47244094488188976,
          "duration": 0.19594575000002123
        },
        {
          "name": "A2",
          "midi": 45,
          "time": 328.3780500000058,
          "velocity": 0.47244094488188976,
          "duration": 0.3986482500000079
        },
        {
          "name": "F#4",
          "midi": 66,
          "time": 328.3780500000058,
          "velocity": 0.47244094488188976,
          "duration": 0.3986482500000079
        },
        {
          "name": "A3",
          "midi": 57,
          "time": 328.3780500000058,
          "velocity": 0.47244094488188976,
          "duration": 0.3986482500000079
        },
        {
          "name": "D3",
          "midi": 50,
          "time": 328.3780500000058,
          "velocity": 0.47244094488188976,
          "duration": 0.3986482500000079
        },
        {
          "name": "D4",
          "midi": 62,
          "time": 328.3780500000058,
          "velocity": 0.47244094488188976,
          "duration": 0.3986482500000079
        },
        {
          "name": "A4",
          "midi": 69,
          "time": 328.3780500000058,
          "velocity": 0.47244094488188976,
          "duration": 0.3986482500000079
        },
        {
          "name": "A2",
          "midi": 45,
          "time": 328.78345500000586,
          "velocity": 0.47244094488188976,
          "duration": 0.19594575000002123
        },
        {
          "name": "A3",
          "midi": 57,
          "time": 328.78345500000586,
          "velocity": 0.47244094488188976,
          "duration": 0.19594575000002123
        },
        {
          "name": "D4",
          "midi": 62,
          "time": 328.78345500000586,
          "velocity": 0.47244094488188976,
          "duration": 0.19594575000002123
        },
        {
          "name": "D3",
          "midi": 50,
          "time": 328.78345500000586,
          "velocity": 0.47244094488188976,
          "duration": 0.19594575000002123
        },
        {
          "name": "A4",
          "midi": 69,
          "time": 328.78345500000586,
          "velocity": 0.47244094488188976,
          "duration": 0.19594575000002123
        },
        {
          "name": "F#4",
          "midi": 66,
          "time": 328.78345500000586,
          "velocity": 0.47244094488188976,
          "duration": 0.19594575000002123
        },
        {
          "name": "A4",
          "midi": 69,
          "time": 328.9861575000059,
          "velocity": 0.47244094488188976,
          "duration": 0.3986482500000079
        },
        {
          "name": "F#4",
          "midi": 66,
          "time": 328.9861575000059,
          "velocity": 0.47244094488188976,
          "duration": 0.3986482500000079
        },
        {
          "name": "D4",
          "midi": 62,
          "time": 328.9861575000059,
          "velocity": 0.47244094488188976,
          "duration": 0.3986482500000079
        },
        {
          "name": "D3",
          "midi": 50,
          "time": 328.9861575000059,
          "velocity": 0.47244094488188976,
          "duration": 0.3986482500000079
        },
        {
          "name": "A2",
          "midi": 45,
          "time": 328.9861575000059,
          "velocity": 0.47244094488188976,
          "duration": 0.3986482500000079
        },
        {
          "name": "A3",
          "midi": 57,
          "time": 328.9861575000059,
          "velocity": 0.47244094488188976,
          "duration": 0.3986482500000079
        },
        {
          "name": "A3",
          "midi": 57,
          "time": 329.39156250000593,
          "velocity": 0.47244094488188976,
          "duration": 0.19594575000002123
        },
        {
          "name": "D3",
          "midi": 50,
          "time": 329.39156250000593,
          "velocity": 0.47244094488188976,
          "duration": 0.19594575000002123
        },
        {
          "name": "F#4",
          "midi": 66,
          "time": 329.39156250000593,
          "velocity": 0.47244094488188976,
          "duration": 0.19594575000002123
        },
        {
          "name": "A4",
          "midi": 69,
          "time": 329.39156250000593,
          "velocity": 0.47244094488188976,
          "duration": 0.19594575000002123
        },
        {
          "name": "A2",
          "midi": 45,
          "time": 329.39156250000593,
          "velocity": 0.47244094488188976,
          "duration": 0.19594575000002123
        },
        {
          "name": "D4",
          "midi": 62,
          "time": 329.39156250000593,
          "velocity": 0.47244094488188976,
          "duration": 0.19594575000002123
        },
        {
          "name": "D4",
          "midi": 62,
          "time": 329.594265000006,
          "velocity": 0.47244094488188976,
          "duration": 0.3986482500000079
        },
        {
          "name": "D3",
          "midi": 50,
          "time": 329.594265000006,
          "velocity": 0.47244094488188976,
          "duration": 0.3986482500000079
        },
        {
          "name": "F#4",
          "midi": 66,
          "time": 329.594265000006,
          "velocity": 0.47244094488188976,
          "duration": 0.3986482500000079
        },
        {
          "name": "A3",
          "midi": 57,
          "time": 329.594265000006,
          "velocity": 0.47244094488188976,
          "duration": 0.3986482500000079
        },
        {
          "name": "A2",
          "midi": 45,
          "time": 329.594265000006,
          "velocity": 0.47244094488188976,
          "duration": 0.3986482500000079
        },
        {
          "name": "A4",
          "midi": 69,
          "time": 329.594265000006,
          "velocity": 0.47244094488188976,
          "duration": 0.3986482500000079
        },
        {
          "name": "D4",
          "midi": 62,
          "time": 329.999670000006,
          "velocity": 0.47244094488188976,
          "duration": 0.3986482500000079
        },
        {
          "name": "A4",
          "midi": 69,
          "time": 329.999670000006,
          "velocity": 0.47244094488188976,
          "duration": 0.3986482500000079
        },
        {
          "name": "F#4",
          "midi": 66,
          "time": 329.999670000006,
          "velocity": 0.47244094488188976,
          "duration": 0.3986482500000079
        },
        {
          "name": "D3",
          "midi": 50,
          "time": 329.999670000006,
          "velocity": 0.47244094488188976,
          "duration": 0.3986482500000079
        },
        {
          "name": "A2",
          "midi": 45,
          "time": 329.999670000006,
          "velocity": 0.47244094488188976,
          "duration": 0.3986482500000079
        },
        {
          "name": "A3",
          "midi": 57,
          "time": 329.999670000006,
          "velocity": 0.47244094488188976,
          "duration": 0.3986482500000079
        },
        {
          "name": "A4",
          "midi": 69,
          "time": 330.40507500000604,
          "velocity": 0.47244094488188976,
          "duration": 0.3986482500000079
        },
        {
          "name": "D3",
          "midi": 50,
          "time": 330.40507500000604,
          "velocity": 0.47244094488188976,
          "duration": 0.3986482500000079
        },
        {
          "name": "A2",
          "midi": 45,
          "time": 330.40507500000604,
          "velocity": 0.47244094488188976,
          "duration": 0.3986482500000079
        },
        {
          "name": "D4",
          "midi": 62,
          "time": 330.40507500000604,
          "velocity": 0.47244094488188976,
          "duration": 0.3986482500000079
        },
        {
          "name": "A3",
          "midi": 57,
          "time": 330.40507500000604,
          "velocity": 0.47244094488188976,
          "duration": 0.3986482500000079
        },
        {
          "name": "F#4",
          "midi": 66,
          "time": 330.40507500000604,
          "velocity": 0.47244094488188976,
          "duration": 0.3986482500000079
        },
        {
          "name": "B3",
          "midi": 59,
          "time": 330.81048000000607,
          "velocity": 0.47244094488188976,
          "duration": 0.19594575000002123
        },
        {
          "name": "G3",
          "midi": 55,
          "time": 330.81048000000607,
          "velocity": 0.47244094488188976,
          "duration": 0.19594575000002123
        },
        {
          "name": "E2",
          "midi": 40,
          "time": 330.81048000000607,
          "velocity": 0.47244094488188976,
          "duration": 0.19594575000002123
        },
        {
          "name": "A2",
          "midi": 45,
          "time": 330.81048000000607,
          "velocity": 0.47244094488188976,
          "duration": 0.19594575000002123
        },
        {
          "name": "E4",
          "midi": 64,
          "time": 330.81048000000607,
          "velocity": 0.47244094488188976,
          "duration": 0.19594575000002123
        },
        {
          "name": "E3",
          "midi": 52,
          "time": 330.81048000000607,
          "velocity": 0.47244094488188976,
          "duration": 0.19594575000002123
        },
        {
          "name": "G3",
          "midi": 55,
          "time": 331.0131825000061,
          "velocity": 0.47244094488188976,
          "duration": 0.3986482500000079
        },
        {
          "name": "E2",
          "midi": 40,
          "time": 331.0131825000061,
          "velocity": 0.47244094488188976,
          "duration": 0.3986482500000079
        },
        {
          "name": "B3",
          "midi": 59,
          "time": 331.0131825000061,
          "velocity": 0.47244094488188976,
          "duration": 0.3986482500000079
        },
        {
          "name": "E3",
          "midi": 52,
          "time": 331.0131825000061,
          "velocity": 0.47244094488188976,
          "duration": 0.3986482500000079
        },
        {
          "name": "A2",
          "midi": 45,
          "time": 331.0131825000061,
          "velocity": 0.47244094488188976,
          "duration": 0.3986482500000079
        },
        {
          "name": "E4",
          "midi": 64,
          "time": 331.0131825000061,
          "velocity": 0.47244094488188976,
          "duration": 0.3986482500000079
        },
        {
          "name": "A2",
          "midi": 45,
          "time": 331.41858750000614,
          "velocity": 0.47244094488188976,
          "duration": 0.19594575000002123
        },
        {
          "name": "E2",
          "midi": 40,
          "time": 331.41858750000614,
          "velocity": 0.47244094488188976,
          "duration": 0.19594575000002123
        },
        {
          "name": "E3",
          "midi": 52,
          "time": 331.41858750000614,
          "velocity": 0.47244094488188976,
          "duration": 0.19594575000002123
        },
        {
          "name": "G3",
          "midi": 55,
          "time": 331.41858750000614,
          "velocity": 0.47244094488188976,
          "duration": 0.19594575000002123
        },
        {
          "name": "E4",
          "midi": 64,
          "time": 331.41858750000614,
          "velocity": 0.47244094488188976,
          "duration": 0.19594575000002123
        },
        {
          "name": "B3",
          "midi": 59,
          "time": 331.41858750000614,
          "velocity": 0.47244094488188976,
          "duration": 0.19594575000002123
        },
        {
          "name": "G3",
          "midi": 55,
          "time": 331.6212900000062,
          "velocity": 0.47244094488188976,
          "duration": 0.3986482500000079
        },
        {
          "name": "A2",
          "midi": 45,
          "time": 331.6212900000062,
          "velocity": 0.47244094488188976,
          "duration": 0.3986482500000079
        },
        {
          "name": "E4",
          "midi": 64,
          "time": 331.6212900000062,
          "velocity": 0.47244094488188976,
          "duration": 0.3986482500000079
        },
        {
          "name": "E3",
          "midi": 52,
          "time": 331.6212900000062,
          "velocity": 0.47244094488188976,
          "duration": 0.3986482500000079
        },
        {
          "name": "E2",
          "midi": 40,
          "time": 331.6212900000062,
          "velocity": 0.47244094488188976,
          "duration": 0.3986482500000079
        },
        {
          "name": "B3",
          "midi": 59,
          "time": 331.6212900000062,
          "velocity": 0.47244094488188976,
          "duration": 0.3986482500000079
        },
        {
          "name": "E2",
          "midi": 40,
          "time": 332.0266950000062,
          "velocity": 0.47244094488188976,
          "duration": 0.19594575000002123
        },
        {
          "name": "G3",
          "midi": 55,
          "time": 332.0266950000062,
          "velocity": 0.47244094488188976,
          "duration": 0.19594575000002123
        },
        {
          "name": "E4",
          "midi": 64,
          "time": 332.0266950000062,
          "velocity": 0.47244094488188976,
          "duration": 0.19594575000002123
        },
        {
          "name": "E3",
          "midi": 52,
          "time": 332.0266950000062,
          "velocity": 0.47244094488188976,
          "duration": 0.19594575000002123
        },
        {
          "name": "B3",
          "midi": 59,
          "time": 332.0266950000062,
          "velocity": 0.47244094488188976,
          "duration": 0.19594575000002123
        },
        {
          "name": "A2",
          "midi": 45,
          "time": 332.0266950000062,
          "velocity": 0.47244094488188976,
          "duration": 0.19594575000002123
        },
        {
          "name": "B3",
          "midi": 59,
          "time": 332.22939750000626,
          "velocity": 0.47244094488188976,
          "duration": 0.3986482500000079
        },
        {
          "name": "A2",
          "midi": 45,
          "time": 332.22939750000626,
          "velocity": 0.47244094488188976,
          "duration": 0.3986482500000079
        },
        {
          "name": "E4",
          "midi": 64,
          "time": 332.22939750000626,
          "velocity": 0.47244094488188976,
          "duration": 0.3986482500000079
        },
        {
          "name": "E2",
          "midi": 40,
          "time": 332.22939750000626,
          "velocity": 0.47244094488188976,
          "duration": 0.3986482500000079
        },
        {
          "name": "G3",
          "midi": 55,
          "time": 332.22939750000626,
          "velocity": 0.47244094488188976,
          "duration": 0.3986482500000079
        },
        {
          "name": "E3",
          "midi": 52,
          "time": 332.22939750000626,
          "velocity": 0.47244094488188976,
          "duration": 0.3986482500000079
        },
        {
          "name": "E4",
          "midi": 64,
          "time": 332.6348025000063,
          "velocity": 0.47244094488188976,
          "duration": 0.19594575000002123
        },
        {
          "name": "G3",
          "midi": 55,
          "time": 332.6348025000063,
          "velocity": 0.47244094488188976,
          "duration": 0.19594575000002123
        },
        {
          "name": "E2",
          "midi": 40,
          "time": 332.6348025000063,
          "velocity": 0.47244094488188976,
          "duration": 0.19594575000002123
        },
        {
          "name": "B3",
          "midi": 59,
          "time": 332.6348025000063,
          "velocity": 0.47244094488188976,
          "duration": 0.19594575000002123
        },
        {
          "name": "E3",
          "midi": 52,
          "time": 332.6348025000063,
          "velocity": 0.47244094488188976,
          "duration": 0.19594575000002123
        },
        {
          "name": "A2",
          "midi": 45,
          "time": 332.6348025000063,
          "velocity": 0.47244094488188976,
          "duration": 0.19594575000002123
        },
        {
          "name": "G3",
          "midi": 55,
          "time": 332.83750500000633,
          "velocity": 0.47244094488188976,
          "duration": 0.3986482500000079
        },
        {
          "name": "E2",
          "midi": 40,
          "time": 332.83750500000633,
          "velocity": 0.47244094488188976,
          "duration": 0.3986482500000079
        },
        {
          "name": "E3",
          "midi": 52,
          "time": 332.83750500000633,
          "velocity": 0.47244094488188976,
          "duration": 0.3986482500000079
        },
        {
          "name": "E4",
          "midi": 64,
          "time": 332.83750500000633,
          "velocity": 0.47244094488188976,
          "duration": 0.3986482500000079
        },
        {
          "name": "B3",
          "midi": 59,
          "time": 332.83750500000633,
          "velocity": 0.47244094488188976,
          "duration": 0.3986482500000079
        },
        {
          "name": "A2",
          "midi": 45,
          "time": 332.83750500000633,
          "velocity": 0.47244094488188976,
          "duration": 0.3986482500000079
        },
        {
          "name": "G3",
          "midi": 55,
          "time": 333.24291000000636,
          "velocity": 0.47244094488188976,
          "duration": 0.3986482500000079
        },
        {
          "name": "B3",
          "midi": 59,
          "time": 333.24291000000636,
          "velocity": 0.47244094488188976,
          "duration": 0.3986482500000079
        },
        {
          "name": "A2",
          "midi": 45,
          "time": 333.24291000000636,
          "velocity": 0.47244094488188976,
          "duration": 0.3986482500000079
        },
        {
          "name": "E4",
          "midi": 64,
          "time": 333.24291000000636,
          "velocity": 0.47244094488188976,
          "duration": 0.3986482500000079
        },
        {
          "name": "E2",
          "midi": 40,
          "time": 333.24291000000636,
          "velocity": 0.47244094488188976,
          "duration": 0.3986482500000079
        },
        {
          "name": "E3",
          "midi": 52,
          "time": 333.24291000000636,
          "velocity": 0.47244094488188976,
          "duration": 0.3986482500000079
        },
        {
          "name": "A2",
          "midi": 45,
          "time": 333.6483150000064,
          "velocity": 0.47244094488188976,
          "duration": 0.3986482500000079
        },
        {
          "name": "E2",
          "midi": 40,
          "time": 333.6483150000064,
          "velocity": 0.47244094488188976,
          "duration": 0.3986482500000079
        },
        {
          "name": "G3",
          "midi": 55,
          "time": 333.6483150000064,
          "velocity": 0.47244094488188976,
          "duration": 0.3986482500000079
        },
        {
          "name": "E4",
          "midi": 64,
          "time": 333.6483150000064,
          "velocity": 0.47244094488188976,
          "duration": 0.3986482500000079
        },
        {
          "name": "E3",
          "midi": 52,
          "time": 333.6483150000064,
          "velocity": 0.47244094488188976,
          "duration": 0.3986482500000079
        },
        {
          "name": "B3",
          "midi": 59,
          "time": 333.6483150000064,
          "velocity": 0.47244094488188976,
          "duration": 0.3986482500000079
        },
        {
          "name": "C#4",
          "midi": 61,
          "time": 334.0537200000064,
          "velocity": 0.47244094488188976,
          "duration": 0.19594575000002123
        },
        {
          "name": "A#3",
          "midi": 58,
          "time": 334.0537200000064,
          "velocity": 0.47244094488188976,
          "duration": 0.19594575000002123
        },
        {
          "name": "F#3",
          "midi": 54,
          "time": 334.0537200000064,
          "velocity": 0.47244094488188976,
          "duration": 0.19594575000002123
        },
        {
          "name": "F#2",
          "midi": 42,
          "time": 334.0537200000064,
          "velocity": 0.47244094488188976,
          "duration": 0.19594575000002123
        },
        {
          "name": "C#3",
          "midi": 49,
          "time": 334.0537200000064,
          "velocity": 0.47244094488188976,
          "duration": 0.19594575000002123
        },
        {
          "name": "F#4",
          "midi": 66,
          "time": 334.0537200000064,
          "velocity": 0.47244094488188976,
          "duration": 0.19594575000002123
        },
        {
          "name": "A#3",
          "midi": 58,
          "time": 334.25642250000647,
          "velocity": 0.47244094488188976,
          "duration": 0.3986482500000079
        },
        {
          "name": "F#2",
          "midi": 42,
          "time": 334.25642250000647,
          "velocity": 0.47244094488188976,
          "duration": 0.3986482500000079
        },
        {
          "name": "C#3",
          "midi": 49,
          "time": 334.25642250000647,
          "velocity": 0.47244094488188976,
          "duration": 0.3986482500000079
        },
        {
          "name": "C#4",
          "midi": 61,
          "time": 334.25642250000647,
          "velocity": 0.47244094488188976,
          "duration": 0.3986482500000079
        },
        {
          "name": "F#3",
          "midi": 54,
          "time": 334.25642250000647,
          "velocity": 0.47244094488188976,
          "duration": 0.3986482500000079
        },
        {
          "name": "F#4",
          "midi": 66,
          "time": 334.25642250000647,
          "velocity": 0.47244094488188976,
          "duration": 0.3986482500000079
        },
        {
          "name": "F#4",
          "midi": 66,
          "time": 334.6618275000065,
          "velocity": 0.47244094488188976,
          "duration": 0.19594575000002123
        },
        {
          "name": "A#3",
          "midi": 58,
          "time": 334.6618275000065,
          "velocity": 0.47244094488188976,
          "duration": 0.19594575000002123
        },
        {
          "name": "C#3",
          "midi": 49,
          "time": 334.6618275000065,
          "velocity": 0.47244094488188976,
          "duration": 0.19594575000002123
        },
        {
          "name": "F#3",
          "midi": 54,
          "time": 334.6618275000065,
          "velocity": 0.47244094488188976,
          "duration": 0.19594575000002123
        },
        {
          "name": "F#2",
          "midi": 42,
          "time": 334.6618275000065,
          "velocity": 0.47244094488188976,
          "duration": 0.19594575000002123
        },
        {
          "name": "C#4",
          "midi": 61,
          "time": 334.6618275000065,
          "velocity": 0.47244094488188976,
          "duration": 0.19594575000002123
        },
        {
          "name": "F#2",
          "midi": 42,
          "time": 334.86453000000654,
          "velocity": 0.47244094488188976,
          "duration": 0.3986482500000079
        },
        {
          "name": "C#4",
          "midi": 61,
          "time": 334.86453000000654,
          "velocity": 0.47244094488188976,
          "duration": 0.3986482500000079
        },
        {
          "name": "F#3",
          "midi": 54,
          "time": 334.86453000000654,
          "velocity": 0.47244094488188976,
          "duration": 0.3986482500000079
        },
        {
          "name": "C#3",
          "midi": 49,
          "time": 334.86453000000654,
          "velocity": 0.47244094488188976,
          "duration": 0.3986482500000079
        },
        {
          "name": "A#3",
          "midi": 58,
          "time": 334.86453000000654,
          "velocity": 0.47244094488188976,
          "duration": 0.3986482500000079
        },
        {
          "name": "F#4",
          "midi": 66,
          "time": 334.86453000000654,
          "velocity": 0.47244094488188976,
          "duration": 0.3986482500000079
        },
        {
          "name": "F#2",
          "midi": 42,
          "time": 335.26993500000657,
          "velocity": 0.47244094488188976,
          "duration": 0.19594575000002123
        },
        {
          "name": "F#3",
          "midi": 54,
          "time": 335.26993500000657,
          "velocity": 0.47244094488188976,
          "duration": 0.19594575000002123
        },
        {
          "name": "A#3",
          "midi": 58,
          "time": 335.26993500000657,
          "velocity": 0.47244094488188976,
          "duration": 0.19594575000002123
        },
        {
          "name": "C#3",
          "midi": 49,
          "time": 335.26993500000657,
          "velocity": 0.47244094488188976,
          "duration": 0.19594575000002123
        },
        {
          "name": "F#4",
          "midi": 66,
          "time": 335.26993500000657,
          "velocity": 0.47244094488188976,
          "duration": 0.19594575000002123
        },
        {
          "name": "C#4",
          "midi": 61,
          "time": 335.26993500000657,
          "velocity": 0.47244094488188976,
          "duration": 0.19594575000002123
        },
        {
          "name": "F#4",
          "midi": 66,
          "time": 335.4726375000066,
          "velocity": 0.47244094488188976,
          "duration": 0.3986482500000079
        },
        {
          "name": "C#4",
          "midi": 61,
          "time": 335.4726375000066,
          "velocity": 0.47244094488188976,
          "duration": 0.3986482500000079
        },
        {
          "name": "A#3",
          "midi": 58,
          "time": 335.4726375000066,
          "velocity": 0.47244094488188976,
          "duration": 0.3986482500000079
        },
        {
          "name": "C#3",
          "midi": 49,
          "time": 335.4726375000066,
          "velocity": 0.47244094488188976,
          "duration": 0.3986482500000079
        },
        {
          "name": "F#2",
          "midi": 42,
          "time": 335.4726375000066,
          "velocity": 0.47244094488188976,
          "duration": 0.3986482500000079
        },
        {
          "name": "F#3",
          "midi": 54,
          "time": 335.4726375000066,
          "velocity": 0.47244094488188976,
          "duration": 0.3986482500000079
        },
        {
          "name": "F#3",
          "midi": 54,
          "time": 335.87804250000664,
          "velocity": 0.47244094488188976,
          "duration": 0.19594575000002123
        },
        {
          "name": "C#3",
          "midi": 49,
          "time": 335.87804250000664,
          "velocity": 0.47244094488188976,
          "duration": 0.19594575000002123
        },
        {
          "name": "C#4",
          "midi": 61,
          "time": 335.87804250000664,
          "velocity": 0.47244094488188976,
          "duration": 0.19594575000002123
        },
        {
          "name": "F#4",
          "midi": 66,
          "time": 335.87804250000664,
          "velocity": 0.47244094488188976,
          "duration": 0.19594575000002123
        },
        {
          "name": "F#2",
          "midi": 42,
          "time": 335.87804250000664,
          "velocity": 0.47244094488188976,
          "duration": 0.19594575000002123
        },
        {
          "name": "A#3",
          "midi": 58,
          "time": 335.87804250000664,
          "velocity": 0.47244094488188976,
          "duration": 0.19594575000002123
        },
        {
          "name": "A#3",
          "midi": 58,
          "time": 336.0807450000067,
          "velocity": 0.47244094488188976,
          "duration": 0.3986482500000079
        },
        {
          "name": "C#3",
          "midi": 49,
          "time": 336.0807450000067,
          "velocity": 0.47244094488188976,
          "duration": 0.3986482500000079
        },
        {
          "name": "C#4",
          "midi": 61,
          "time": 336.0807450000067,
          "velocity": 0.47244094488188976,
          "duration": 0.3986482500000079
        },
        {
          "name": "F#3",
          "midi": 54,
          "time": 336.0807450000067,
          "velocity": 0.47244094488188976,
          "duration": 0.3986482500000079
        },
        {
          "name": "F#2",
          "midi": 42,
          "time": 336.0807450000067,
          "velocity": 0.47244094488188976,
          "duration": 0.3986482500000079
        },
        {
          "name": "F#4",
          "midi": 66,
          "time": 336.0807450000067,
          "velocity": 0.47244094488188976,
          "duration": 0.3986482500000079
        },
        {
          "name": "A#3",
          "midi": 58,
          "time": 336.4861500000067,
          "velocity": 0.47244094488188976,
          "duration": 0.3986482500000079
        },
        {
          "name": "F#4",
          "midi": 66,
          "time": 336.4861500000067,
          "velocity": 0.47244094488188976,
          "duration": 0.3986482500000079
        },
        {
          "name": "C#4",
          "midi": 61,
          "time": 336.4861500000067,
          "velocity": 0.47244094488188976,
          "duration": 0.3986482500000079
        },
        {
          "name": "C#3",
          "midi": 49,
          "time": 336.4861500000067,
          "velocity": 0.47244094488188976,
          "duration": 0.3986482500000079
        },
        {
          "name": "F#2",
          "midi": 42,
          "time": 336.4861500000067,
          "velocity": 0.47244094488188976,
          "duration": 0.3986482500000079
        },
        {
          "name": "F#3",
          "midi": 54,
          "time": 336.4861500000067,
          "velocity": 0.47244094488188976,
          "duration": 0.3986482500000079
        },
        {
          "name": "F#4",
          "midi": 66,
          "time": 336.89155500000675,
          "velocity": 0.47244094488188976,
          "duration": 0.3986482500000079
        },
        {
          "name": "C#3",
          "midi": 49,
          "time": 336.89155500000675,
          "velocity": 0.47244094488188976,
          "duration": 0.3986482500000079
        },
        {
          "name": "F#2",
          "midi": 42,
          "time": 336.89155500000675,
          "velocity": 0.47244094488188976,
          "duration": 0.3986482500000079
        },
        {
          "name": "A#3",
          "midi": 58,
          "time": 336.89155500000675,
          "velocity": 0.47244094488188976,
          "duration": 0.3986482500000079
        },
        {
          "name": "F#3",
          "midi": 54,
          "time": 336.89155500000675,
          "velocity": 0.47244094488188976,
          "duration": 0.3986482500000079
        },
        {
          "name": "C#4",
          "midi": 61,
          "time": 336.89155500000675,
          "velocity": 0.47244094488188976,
          "duration": 0.3986482500000079
        },
        {
          "name": "D4",
          "midi": 62,
          "time": 337.2969600000068,
          "velocity": 0.47244094488188976,
          "duration": 0.19594575000002123
        },
        {
          "name": "B3",
          "midi": 59,
          "time": 337.2969600000068,
          "velocity": 0.47244094488188976,
          "duration": 0.19594575000002123
        },
        {
          "name": "F#2",
          "midi": 42,
          "time": 337.2969600000068,
          "velocity": 0.47244094488188976,
          "duration": 0.19594575000002123
        },
        {
          "name": "B2",
          "midi": 47,
          "time": 337.2969600000068,
          "velocity": 0.47244094488188976,
          "duration": 0.19594575000002123
        },
        {
          "name": "F#4",
          "midi": 66,
          "time": 337.2969600000068,
          "velocity": 0.47244094488188976,
          "duration": 0.19594575000002123
        },
        {
          "name": "F#3",
          "midi": 54,
          "time": 337.2969600000068,
          "velocity": 0.47244094488188976,
          "duration": 0.19594575000002123
        },
        {
          "name": "B3",
          "midi": 59,
          "time": 337.4996625000068,
          "velocity": 0.47244094488188976,
          "duration": 0.3986482500000079
        },
        {
          "name": "F#2",
          "midi": 42,
          "time": 337.4996625000068,
          "velocity": 0.47244094488188976,
          "duration": 0.3986482500000079
        },
        {
          "name": "D4",
          "midi": 62,
          "time": 337.4996625000068,
          "velocity": 0.47244094488188976,
          "duration": 0.3986482500000079
        },
        {
          "name": "F#3",
          "midi": 54,
          "time": 337.4996625000068,
          "velocity": 0.47244094488188976,
          "duration": 0.3986482500000079
        },
        {
          "name": "B2",
          "midi": 47,
          "time": 337.4996625000068,
          "velocity": 0.47244094488188976,
          "duration": 0.3986482500000079
        },
        {
          "name": "F#4",
          "midi": 66,
          "time": 337.4996625000068,
          "velocity": 0.47244094488188976,
          "duration": 0.3986482500000079
        },
        {
          "name": "B2",
          "midi": 47,
          "time": 337.90506750000685,
          "velocity": 0.47244094488188976,
          "duration": 0.19594575000002123
        },
        {
          "name": "F#2",
          "midi": 42,
          "time": 337.90506750000685,
          "velocity": 0.47244094488188976,
          "duration": 0.19594575000002123
        },
        {
          "name": "F#3",
          "midi": 54,
          "time": 337.90506750000685,
          "velocity": 0.47244094488188976,
          "duration": 0.19594575000002123
        },
        {
          "name": "B3",
          "midi": 59,
          "time": 337.90506750000685,
          "velocity": 0.47244094488188976,
          "duration": 0.19594575000002123
        },
        {
          "name": "F#4",
          "midi": 66,
          "time": 337.90506750000685,
          "velocity": 0.47244094488188976,
          "duration": 0.19594575000002123
        },
        {
          "name": "D4",
          "midi": 62,
          "time": 337.90506750000685,
          "velocity": 0.47244094488188976,
          "duration": 0.19594575000002123
        },
        {
          "name": "B3",
          "midi": 59,
          "time": 338.1077700000069,
          "velocity": 0.47244094488188976,
          "duration": 0.3986482500000079
        },
        {
          "name": "B2",
          "midi": 47,
          "time": 338.1077700000069,
          "velocity": 0.47244094488188976,
          "duration": 0.3986482500000079
        },
        {
          "name": "F#4",
          "midi": 66,
          "time": 338.1077700000069,
          "velocity": 0.47244094488188976,
          "duration": 0.3986482500000079
        },
        {
          "name": "F#3",
          "midi": 54,
          "time": 338.1077700000069,
          "velocity": 0.47244094488188976,
          "duration": 0.3986482500000079
        },
        {
          "name": "F#2",
          "midi": 42,
          "time": 338.1077700000069,
          "velocity": 0.47244094488188976,
          "duration": 0.3986482500000079
        },
        {
          "name": "D4",
          "midi": 62,
          "time": 338.1077700000069,
          "velocity": 0.47244094488188976,
          "duration": 0.3986482500000079
        },
        {
          "name": "F#2",
          "midi": 42,
          "time": 338.5131750000069,
          "velocity": 0.47244094488188976,
          "duration": 0.19594575000002123
        },
        {
          "name": "B3",
          "midi": 59,
          "time": 338.5131750000069,
          "velocity": 0.47244094488188976,
          "duration": 0.19594575000002123
        },
        {
          "name": "F#4",
          "midi": 66,
          "time": 338.5131750000069,
          "velocity": 0.47244094488188976,
          "duration": 0.19594575000002123
        },
        {
          "name": "F#3",
          "midi": 54,
          "time": 338.5131750000069,
          "velocity": 0.47244094488188976,
          "duration": 0.19594575000002123
        },
        {
          "name": "D4",
          "midi": 62,
          "time": 338.5131750000069,
          "velocity": 0.47244094488188976,
          "duration": 0.19594575000002123
        },
        {
          "name": "B2",
          "midi": 47,
          "time": 338.5131750000069,
          "velocity": 0.47244094488188976,
          "duration": 0.19594575000002123
        },
        {
          "name": "D4",
          "midi": 62,
          "time": 338.71587750000697,
          "velocity": 0.47244094488188976,
          "duration": 0.3986482500000079
        },
        {
          "name": "B2",
          "midi": 47,
          "time": 338.71587750000697,
          "velocity": 0.47244094488188976,
          "duration": 0.3986482500000079
        },
        {
          "name": "F#4",
          "midi": 66,
          "time": 338.71587750000697,
          "velocity": 0.47244094488188976,
          "duration": 0.3986482500000079
        },
        {
          "name": "F#2",
          "midi": 42,
          "time": 338.71587750000697,
          "velocity": 0.47244094488188976,
          "duration": 0.3986482500000079
        },
        {
          "name": "B3",
          "midi": 59,
          "time": 338.71587750000697,
          "velocity": 0.47244094488188976,
          "duration": 0.3986482500000079
        },
        {
          "name": "F#3",
          "midi": 54,
          "time": 338.71587750000697,
          "velocity": 0.47244094488188976,
          "duration": 0.3986482500000079
        },
        {
          "name": "F#4",
          "midi": 66,
          "time": 339.121282500007,
          "velocity": 0.47244094488188976,
          "duration": 0.19594575000002123
        },
        {
          "name": "B3",
          "midi": 59,
          "time": 339.121282500007,
          "velocity": 0.47244094488188976,
          "duration": 0.19594575000002123
        },
        {
          "name": "F#2",
          "midi": 42,
          "time": 339.121282500007,
          "velocity": 0.47244094488188976,
          "duration": 0.19594575000002123
        },
        {
          "name": "D4",
          "midi": 62,
          "time": 339.121282500007,
          "velocity": 0.47244094488188976,
          "duration": 0.19594575000002123
        },
        {
          "name": "F#3",
          "midi": 54,
          "time": 339.121282500007,
          "velocity": 0.47244094488188976,
          "duration": 0.19594575000002123
        },
        {
          "name": "B2",
          "midi": 47,
          "time": 339.121282500007,
          "velocity": 0.47244094488188976,
          "duration": 0.19594575000002123
        },
        {
          "name": "B3",
          "midi": 59,
          "time": 339.32398500000704,
          "velocity": 0.47244094488188976,
          "duration": 0.3986482500000079
        },
        {
          "name": "F#2",
          "midi": 42,
          "time": 339.32398500000704,
          "velocity": 0.47244094488188976,
          "duration": 0.3986482500000079
        },
        {
          "name": "F#3",
          "midi": 54,
          "time": 339.32398500000704,
          "velocity": 0.47244094488188976,
          "duration": 0.3986482500000079
        },
        {
          "name": "F#4",
          "midi": 66,
          "time": 339.32398500000704,
          "velocity": 0.47244094488188976,
          "duration": 0.3986482500000079
        },
        {
          "name": "D4",
          "midi": 62,
          "time": 339.32398500000704,
          "velocity": 0.47244094488188976,
          "duration": 0.3986482500000079
        },
        {
          "name": "B2",
          "midi": 47,
          "time": 339.32398500000704,
          "velocity": 0.47244094488188976,
          "duration": 0.3986482500000079
        },
        {
          "name": "B3",
          "midi": 59,
          "time": 339.7293900000071,
          "velocity": 0.47244094488188976,
          "duration": 0.3986482500000079
        },
        {
          "name": "D4",
          "midi": 62,
          "time": 339.7293900000071,
          "velocity": 0.47244094488188976,
          "duration": 0.3986482500000079
        },
        {
          "name": "B2",
          "midi": 47,
          "time": 339.7293900000071,
          "velocity": 0.47244094488188976,
          "duration": 0.3986482500000079
        },
        {
          "name": "F#4",
          "midi": 66,
          "time": 339.7293900000071,
          "velocity": 0.47244094488188976,
          "duration": 0.3986482500000079
        },
        {
          "name": "F#2",
          "midi": 42,
          "time": 339.7293900000071,
          "velocity": 0.47244094488188976,
          "duration": 0.3986482500000079
        },
        {
          "name": "F#3",
          "midi": 54,
          "time": 339.7293900000071,
          "velocity": 0.47244094488188976,
          "duration": 0.3986482500000079
        },
        {
          "name": "B2",
          "midi": 47,
          "time": 340.1347950000071,
          "velocity": 0.47244094488188976,
          "duration": 0.3986482500000079
        },
        {
          "name": "F#2",
          "midi": 42,
          "time": 340.1347950000071,
          "velocity": 0.47244094488188976,
          "duration": 0.3986482500000079
        },
        {
          "name": "B3",
          "midi": 59,
          "time": 340.1347950000071,
          "velocity": 0.47244094488188976,
          "duration": 0.3986482500000079
        },
        {
          "name": "F#4",
          "midi": 66,
          "time": 340.1347950000071,
          "velocity": 0.47244094488188976,
          "duration": 0.3986482500000079
        },
        {
          "name": "F#3",
          "midi": 54,
          "time": 340.1347950000071,
          "velocity": 0.47244094488188976,
          "duration": 0.3986482500000079
        },
        {
          "name": "D4",
          "midi": 62,
          "time": 340.1347950000071,
          "velocity": 0.47244094488188976,
          "duration": 0.3986482500000079
        },
        {
          "name": "C#4",
          "midi": 61,
          "time": 340.54020000000713,
          "velocity": 0.47244094488188976,
          "duration": 0.19594575000002123
        },
        {
          "name": "A#3",
          "midi": 58,
          "time": 340.54020000000713,
          "velocity": 0.47244094488188976,
          "duration": 0.19594575000002123
        },
        {
          "name": "F#3",
          "midi": 54,
          "time": 340.54020000000713,
          "velocity": 0.47244094488188976,
          "duration": 0.19594575000002123
        },
        {
          "name": "F#2",
          "midi": 42,
          "time": 340.54020000000713,
          "velocity": 0.47244094488188976,
          "duration": 0.19594575000002123
        },
        {
          "name": "C#3",
          "midi": 49,
          "time": 340.54020000000713,
          "velocity": 0.47244094488188976,
          "duration": 0.19594575000002123
        },
        {
          "name": "F#4",
          "midi": 66,
          "time": 340.54020000000713,
          "velocity": 0.47244094488188976,
          "duration": 0.19594575000002123
        },
        {
          "name": "A#3",
          "midi": 58,
          "time": 340.7429025000072,
          "velocity": 0.47244094488188976,
          "duration": 0.3986482500000079
        },
        {
          "name": "F#2",
          "midi": 42,
          "time": 340.7429025000072,
          "velocity": 0.47244094488188976,
          "duration": 0.3986482500000079
        },
        {
          "name": "C#3",
          "midi": 49,
          "time": 340.7429025000072,
          "velocity": 0.47244094488188976,
          "duration": 0.3986482500000079
        },
        {
          "name": "C#4",
          "midi": 61,
          "time": 340.7429025000072,
          "velocity": 0.47244094488188976,
          "duration": 0.3986482500000079
        },
        {
          "name": "F#3",
          "midi": 54,
          "time": 340.7429025000072,
          "velocity": 0.47244094488188976,
          "duration": 0.3986482500000079
        },
        {
          "name": "F#4",
          "midi": 66,
          "time": 340.7429025000072,
          "velocity": 0.47244094488188976,
          "duration": 0.3986482500000079
        },
        {
          "name": "F#4",
          "midi": 66,
          "time": 341.1483075000072,
          "velocity": 0.47244094488188976,
          "duration": 0.19594575000002123
        },
        {
          "name": "A#3",
          "midi": 58,
          "time": 341.1483075000072,
          "velocity": 0.47244094488188976,
          "duration": 0.19594575000002123
        },
        {
          "name": "C#3",
          "midi": 49,
          "time": 341.1483075000072,
          "velocity": 0.47244094488188976,
          "duration": 0.19594575000002123
        },
        {
          "name": "F#3",
          "midi": 54,
          "time": 341.1483075000072,
          "velocity": 0.47244094488188976,
          "duration": 0.19594575000002123
        },
        {
          "name": "F#2",
          "midi": 42,
          "time": 341.1483075000072,
          "velocity": 0.47244094488188976,
          "duration": 0.19594575000002123
        },
        {
          "name": "C#4",
          "midi": 61,
          "time": 341.1483075000072,
          "velocity": 0.47244094488188976,
          "duration": 0.19594575000002123
        },
        {
          "name": "F#2",
          "midi": 42,
          "time": 341.35101000000725,
          "velocity": 0.47244094488188976,
          "duration": 0.3986482500000079
        },
        {
          "name": "C#4",
          "midi": 61,
          "time": 341.35101000000725,
          "velocity": 0.47244094488188976,
          "duration": 0.3986482500000079
        },
        {
          "name": "F#3",
          "midi": 54,
          "time": 341.35101000000725,
          "velocity": 0.47244094488188976,
          "duration": 0.3986482500000079
        },
        {
          "name": "C#3",
          "midi": 49,
          "time": 341.35101000000725,
          "velocity": 0.47244094488188976,
          "duration": 0.3986482500000079
        },
        {
          "name": "A#3",
          "midi": 58,
          "time": 341.35101000000725,
          "velocity": 0.47244094488188976,
          "duration": 0.3986482500000079
        },
        {
          "name": "F#4",
          "midi": 66,
          "time": 341.35101000000725,
          "velocity": 0.47244094488188976,
          "duration": 0.3986482500000079
        },
        {
          "name": "F#2",
          "midi": 42,
          "time": 341.7564150000073,
          "velocity": 0.47244094488188976,
          "duration": 0.19594575000002123
        },
        {
          "name": "F#3",
          "midi": 54,
          "time": 341.7564150000073,
          "velocity": 0.47244094488188976,
          "duration": 0.19594575000002123
        },
        {
          "name": "A#3",
          "midi": 58,
          "time": 341.7564150000073,
          "velocity": 0.47244094488188976,
          "duration": 0.19594575000002123
        },
        {
          "name": "C#3",
          "midi": 49,
          "time": 341.7564150000073,
          "velocity": 0.47244094488188976,
          "duration": 0.19594575000002123
        },
        {
          "name": "F#4",
          "midi": 66,
          "time": 341.7564150000073,
          "velocity": 0.47244094488188976,
          "duration": 0.19594575000002123
        },
        {
          "name": "C#4",
          "midi": 61,
          "time": 341.7564150000073,
          "velocity": 0.47244094488188976,
          "duration": 0.19594575000002123
        },
        {
          "name": "F#4",
          "midi": 66,
          "time": 341.9591175000073,
          "velocity": 0.47244094488188976,
          "duration": 0.3986482500000079
        },
        {
          "name": "C#4",
          "midi": 61,
          "time": 341.9591175000073,
          "velocity": 0.47244094488188976,
          "duration": 0.3986482500000079
        },
        {
          "name": "A#3",
          "midi": 58,
          "time": 341.9591175000073,
          "velocity": 0.47244094488188976,
          "duration": 0.3986482500000079
        },
        {
          "name": "C#3",
          "midi": 49,
          "time": 341.9591175000073,
          "velocity": 0.47244094488188976,
          "duration": 0.3986482500000079
        },
        {
          "name": "F#2",
          "midi": 42,
          "time": 341.9591175000073,
          "velocity": 0.47244094488188976,
          "duration": 0.3986482500000079
        },
        {
          "name": "F#3",
          "midi": 54,
          "time": 341.9591175000073,
          "velocity": 0.47244094488188976,
          "duration": 0.3986482500000079
        },
        {
          "name": "F#3",
          "midi": 54,
          "time": 342.36452250000735,
          "velocity": 0.47244094488188976,
          "duration": 0.19594575000002123
        },
        {
          "name": "C#3",
          "midi": 49,
          "time": 342.36452250000735,
          "velocity": 0.47244094488188976,
          "duration": 0.19594575000002123
        },
        {
          "name": "C#4",
          "midi": 61,
          "time": 342.36452250000735,
          "velocity": 0.47244094488188976,
          "duration": 0.19594575000002123
        },
        {
          "name": "F#4",
          "midi": 66,
          "time": 342.36452250000735,
          "velocity": 0.47244094488188976,
          "duration": 0.19594575000002123
        },
        {
          "name": "F#2",
          "midi": 42,
          "time": 342.36452250000735,
          "velocity": 0.47244094488188976,
          "duration": 0.19594575000002123
        },
        {
          "name": "A#3",
          "midi": 58,
          "time": 342.36452250000735,
          "velocity": 0.47244094488188976,
          "duration": 0.19594575000002123
        },
        {
          "name": "A#3",
          "midi": 58,
          "time": 342.5672250000074,
          "velocity": 0.47244094488188976,
          "duration": 0.3986482500000079
        },
        {
          "name": "C#3",
          "midi": 49,
          "time": 342.5672250000074,
          "velocity": 0.47244094488188976,
          "duration": 0.3986482500000079
        },
        {
          "name": "C#4",
          "midi": 61,
          "time": 342.5672250000074,
          "velocity": 0.47244094488188976,
          "duration": 0.3986482500000079
        },
        {
          "name": "F#3",
          "midi": 54,
          "time": 342.5672250000074,
          "velocity": 0.47244094488188976,
          "duration": 0.3986482500000079
        },
        {
          "name": "F#2",
          "midi": 42,
          "time": 342.5672250000074,
          "velocity": 0.47244094488188976,
          "duration": 0.3986482500000079
        },
        {
          "name": "F#4",
          "midi": 66,
          "time": 342.5672250000074,
          "velocity": 0.47244094488188976,
          "duration": 0.3986482500000079
        },
        {
          "name": "A#3",
          "midi": 58,
          "time": 342.9726300000074,
          "velocity": 0.47244094488188976,
          "duration": 0.3986482500000079
        },
        {
          "name": "F#4",
          "midi": 66,
          "time": 342.9726300000074,
          "velocity": 0.47244094488188976,
          "duration": 0.3986482500000079
        },
        {
          "name": "C#4",
          "midi": 61,
          "time": 342.9726300000074,
          "velocity": 0.47244094488188976,
          "duration": 0.3986482500000079
        },
        {
          "name": "C#3",
          "midi": 49,
          "time": 342.9726300000074,
          "velocity": 0.47244094488188976,
          "duration": 0.3986482500000079
        },
        {
          "name": "F#2",
          "midi": 42,
          "time": 342.9726300000074,
          "velocity": 0.47244094488188976,
          "duration": 0.3986482500000079
        },
        {
          "name": "F#3",
          "midi": 54,
          "time": 342.9726300000074,
          "velocity": 0.47244094488188976,
          "duration": 0.3986482500000079
        },
        {
          "name": "F#4",
          "midi": 66,
          "time": 343.37803500000746,
          "velocity": 0.47244094488188976,
          "duration": 0.3986482500000079
        },
        {
          "name": "C#3",
          "midi": 49,
          "time": 343.37803500000746,
          "velocity": 0.47244094488188976,
          "duration": 0.3986482500000079
        },
        {
          "name": "F#2",
          "midi": 42,
          "time": 343.37803500000746,
          "velocity": 0.47244094488188976,
          "duration": 0.3986482500000079
        },
        {
          "name": "A#3",
          "midi": 58,
          "time": 343.37803500000746,
          "velocity": 0.47244094488188976,
          "duration": 0.3986482500000079
        },
        {
          "name": "F#3",
          "midi": 54,
          "time": 343.37803500000746,
          "velocity": 0.47244094488188976,
          "duration": 0.3986482500000079
        },
        {
          "name": "C#4",
          "midi": 61,
          "time": 343.37803500000746,
          "velocity": 0.47244094488188976,
          "duration": 0.3986482500000079
        },
        {
          "name": "C#4",
          "midi": 61,
          "time": 343.7834400000075,
          "velocity": 0.47244094488188976,
          "duration": 0.19594575000002123
        },
        {
          "name": "A3",
          "midi": 57,
          "time": 343.7834400000075,
          "velocity": 0.47244094488188976,
          "duration": 0.19594575000002123
        },
        {
          "name": "E2",
          "midi": 40,
          "time": 343.7834400000075,
          "velocity": 0.47244094488188976,
          "duration": 0.19594575000002123
        },
        {
          "name": "A2",
          "midi": 45,
          "time": 343.7834400000075,
          "velocity": 0.47244094488188976,
          "duration": 0.19594575000002123
        },
        {
          "name": "E4",
          "midi": 64,
          "time": 343.7834400000075,
          "velocity": 0.47244094488188976,
          "duration": 0.19594575000002123
        },
        {
          "name": "E3",
          "midi": 52,
          "time": 343.7834400000075,
          "velocity": 0.47244094488188976,
          "duration": 0.19594575000002123
        },
        {
          "name": "A3",
          "midi": 57,
          "time": 343.98614250000753,
          "velocity": 0.47244094488188976,
          "duration": 0.3986482500000079
        },
        {
          "name": "E2",
          "midi": 40,
          "time": 343.98614250000753,
          "velocity": 0.47244094488188976,
          "duration": 0.3986482500000079
        },
        {
          "name": "C#4",
          "midi": 61,
          "time": 343.98614250000753,
          "velocity": 0.47244094488188976,
          "duration": 0.3986482500000079
        },
        {
          "name": "E3",
          "midi": 52,
          "time": 343.98614250000753,
          "velocity": 0.47244094488188976,
          "duration": 0.3986482500000079
        },
        {
          "name": "A2",
          "midi": 45,
          "time": 343.98614250000753,
          "velocity": 0.47244094488188976,
          "duration": 0.3986482500000079
        },
        {
          "name": "E4",
          "midi": 64,
          "time": 343.98614250000753,
          "velocity": 0.47244094488188976,
          "duration": 0.3986482500000079
        },
        {
          "name": "A2",
          "midi": 45,
          "time": 344.39154750000756,
          "velocity": 0.47244094488188976,
          "duration": 0.19594575000002123
        },
        {
          "name": "E2",
          "midi": 40,
          "time": 344.39154750000756,
          "velocity": 0.47244094488188976,
          "duration": 0.19594575000002123
        },
        {
          "name": "E3",
          "midi": 52,
          "time": 344.39154750000756,
          "velocity": 0.47244094488188976,
          "duration": 0.19594575000002123
        },
        {
          "name": "A3",
          "midi": 57,
          "time": 344.39154750000756,
          "velocity": 0.47244094488188976,
          "duration": 0.19594575000002123
        },
        {
          "name": "E4",
          "midi": 64,
          "time": 344.39154750000756,
          "velocity": 0.47244094488188976,
          "duration": 0.19594575000002123
        },
        {
          "name": "C#4",
          "midi": 61,
          "time": 344.39154750000756,
          "velocity": 0.47244094488188976,
          "duration": 0.19594575000002123
        },
        {
          "name": "A3",
          "midi": 57,
          "time": 344.5942500000076,
          "velocity": 0.47244094488188976,
          "duration": 0.3986482500000079
        },
        {
          "name": "A2",
          "midi": 45,
          "time": 344.5942500000076,
          "velocity": 0.47244094488188976,
          "duration": 0.3986482500000079
        },
        {
          "name": "E4",
          "midi": 64,
          "time": 344.5942500000076,
          "velocity": 0.47244094488188976,
          "duration": 0.3986482500000079
        },
        {
          "name": "E3",
          "midi": 52,
          "time": 344.5942500000076,
          "velocity": 0.47244094488188976,
          "duration": 0.3986482500000079
        },
        {
          "name": "E2",
          "midi": 40,
          "time": 344.5942500000076,
          "velocity": 0.47244094488188976,
          "duration": 0.3986482500000079
        },
        {
          "name": "C#4",
          "midi": 61,
          "time": 344.5942500000076,
          "velocity": 0.47244094488188976,
          "duration": 0.3986482500000079
        },
        {
          "name": "E2",
          "midi": 40,
          "time": 344.99965500000764,
          "velocity": 0.47244094488188976,
          "duration": 0.19594575000002123
        },
        {
          "name": "A3",
          "midi": 57,
          "time": 344.99965500000764,
          "velocity": 0.47244094488188976,
          "duration": 0.19594575000002123
        },
        {
          "name": "E4",
          "midi": 64,
          "time": 344.99965500000764,
          "velocity": 0.47244094488188976,
          "duration": 0.19594575000002123
        },
        {
          "name": "E3",
          "midi": 52,
          "time": 344.99965500000764,
          "velocity": 0.47244094488188976,
          "duration": 0.19594575000002123
        },
        {
          "name": "C#4",
          "midi": 61,
          "time": 344.99965500000764,
          "velocity": 0.47244094488188976,
          "duration": 0.19594575000002123
        },
        {
          "name": "A2",
          "midi": 45,
          "time": 344.99965500000764,
          "velocity": 0.47244094488188976,
          "duration": 0.19594575000002123
        },
        {
          "name": "C#4",
          "midi": 61,
          "time": 345.2023575000077,
          "velocity": 0.47244094488188976,
          "duration": 0.3986482500000079
        },
        {
          "name": "A2",
          "midi": 45,
          "time": 345.2023575000077,
          "velocity": 0.47244094488188976,
          "duration": 0.3986482500000079
        },
        {
          "name": "E4",
          "midi": 64,
          "time": 345.2023575000077,
          "velocity": 0.47244094488188976,
          "duration": 0.3986482500000079
        },
        {
          "name": "E2",
          "midi": 40,
          "time": 345.2023575000077,
          "velocity": 0.47244094488188976,
          "duration": 0.3986482500000079
        },
        {
          "name": "A3",
          "midi": 57,
          "time": 345.2023575000077,
          "velocity": 0.47244094488188976,
          "duration": 0.3986482500000079
        },
        {
          "name": "E3",
          "midi": 52,
          "time": 345.2023575000077,
          "velocity": 0.47244094488188976,
          "duration": 0.3986482500000079
        },
        {
          "name": "E4",
          "midi": 64,
          "time": 345.6077625000077,
          "velocity": 0.47244094488188976,
          "duration": 0.19594575000002123
        },
        {
          "name": "A3",
          "midi": 57,
          "time": 345.6077625000077,
          "velocity": 0.47244094488188976,
          "duration": 0.19594575000002123
        },
        {
          "name": "E2",
          "midi": 40,
          "time": 345.6077625000077,
          "velocity": 0.47244094488188976,
          "duration": 0.19594575000002123
        },
        {
          "name": "C#4",
          "midi": 61,
          "time": 345.6077625000077,
          "velocity": 0.47244094488188976,
          "duration": 0.19594575000002123
        },
        {
          "name": "E3",
          "midi": 52,
          "time": 345.6077625000077,
          "velocity": 0.47244094488188976,
          "duration": 0.19594575000002123
        },
        {
          "name": "A2",
          "midi": 45,
          "time": 345.6077625000077,
          "velocity": 0.47244094488188976,
          "duration": 0.19594575000002123
        },
        {
          "name": "A3",
          "midi": 57,
          "time": 345.81046500000775,
          "velocity": 0.47244094488188976,
          "duration": 0.3986482500000079
        },
        {
          "name": "E2",
          "midi": 40,
          "time": 345.81046500000775,
          "velocity": 0.47244094488188976,
          "duration": 0.3986482500000079
        },
        {
          "name": "E3",
          "midi": 52,
          "time": 345.81046500000775,
          "velocity": 0.47244094488188976,
          "duration": 0.3986482500000079
        },
        {
          "name": "E4",
          "midi": 64,
          "time": 345.81046500000775,
          "velocity": 0.47244094488188976,
          "duration": 0.3986482500000079
        },
        {
          "name": "C#4",
          "midi": 61,
          "time": 345.81046500000775,
          "velocity": 0.47244094488188976,
          "duration": 0.3986482500000079
        },
        {
          "name": "A2",
          "midi": 45,
          "time": 345.81046500000775,
          "velocity": 0.47244094488188976,
          "duration": 0.3986482500000079
        },
        {
          "name": "A3",
          "midi": 57,
          "time": 346.2158700000078,
          "velocity": 0.47244094488188976,
          "duration": 0.3986482500000079
        },
        {
          "name": "C#4",
          "midi": 61,
          "time": 346.2158700000078,
          "velocity": 0.47244094488188976,
          "duration": 0.3986482500000079
        },
        {
          "name": "A2",
          "midi": 45,
          "time": 346.2158700000078,
          "velocity": 0.47244094488188976,
          "duration": 0.3986482500000079
        },
        {
          "name": "E4",
          "midi": 64,
          "time": 346.2158700000078,
          "velocity": 0.47244094488188976,
          "duration": 0.3986482500000079
        },
        {
          "name": "E2",
          "midi": 40,
          "time": 346.2158700000078,
          "velocity": 0.47244094488188976,
          "duration": 0.3986482500000079
        },
        {
          "name": "E3",
          "midi": 52,
          "time": 346.2158700000078,
          "velocity": 0.47244094488188976,
          "duration": 0.3986482500000079
        },
        {
          "name": "A2",
          "midi": 45,
          "time": 346.6212750000078,
          "velocity": 0.47244094488188976,
          "duration": 0.3986482500000079
        },
        {
          "name": "E2",
          "midi": 40,
          "time": 346.6212750000078,
          "velocity": 0.47244094488188976,
          "duration": 0.3986482500000079
        },
        {
          "name": "A3",
          "midi": 57,
          "time": 346.6212750000078,
          "velocity": 0.47244094488188976,
          "duration": 0.3986482500000079
        },
        {
          "name": "E4",
          "midi": 64,
          "time": 346.6212750000078,
          "velocity": 0.47244094488188976,
          "duration": 0.3986482500000079
        },
        {
          "name": "E3",
          "midi": 52,
          "time": 346.6212750000078,
          "velocity": 0.47244094488188976,
          "duration": 0.3986482500000079
        },
        {
          "name": "C#4",
          "midi": 61,
          "time": 346.6212750000078,
          "velocity": 0.47244094488188976,
          "duration": 0.3986482500000079
        },
        {
          "name": "B3",
          "midi": 59,
          "time": 347.02668000000784,
          "velocity": 0.47244094488188976,
          "duration": 0.19594575000002123
        },
        {
          "name": "G#3",
          "midi": 56,
          "time": 347.02668000000784,
          "velocity": 0.47244094488188976,
          "duration": 0.19594575000002123
        },
        {
          "name": "E3",
          "midi": 52,
          "time": 347.02668000000784,
          "velocity": 0.47244094488188976,
          "duration": 0.19594575000002123
        },
        {
          "name": "E2",
          "midi": 40,
          "time": 347.02668000000784,
          "velocity": 0.47244094488188976,
          "duration": 0.19594575000002123
        },
        {
          "name": "B2",
          "midi": 47,
          "time": 347.02668000000784,
          "velocity": 0.47244094488188976,
          "duration": 0.19594575000002123
        },
        {
          "name": "E4",
          "midi": 64,
          "time": 347.02668000000784,
          "velocity": 0.47244094488188976,
          "duration": 0.19594575000002123
        },
        {
          "name": "G#3",
          "midi": 56,
          "time": 347.2293825000079,
          "velocity": 0.47244094488188976,
          "duration": 0.3986482500000079
        },
        {
          "name": "E2",
          "midi": 40,
          "time": 347.2293825000079,
          "velocity": 0.47244094488188976,
          "duration": 0.3986482500000079
        },
        {
          "name": "B2",
          "midi": 47,
          "time": 347.2293825000079,
          "velocity": 0.47244094488188976,
          "duration": 0.3986482500000079
        },
        {
          "name": "B3",
          "midi": 59,
          "time": 347.2293825000079,
          "velocity": 0.47244094488188976,
          "duration": 0.3986482500000079
        },
        {
          "name": "E3",
          "midi": 52,
          "time": 347.2293825000079,
          "velocity": 0.47244094488188976,
          "duration": 0.3986482500000079
        },
        {
          "name": "E4",
          "midi": 64,
          "time": 347.2293825000079,
          "velocity": 0.47244094488188976,
          "duration": 0.3986482500000079
        },
        {
          "name": "E4",
          "midi": 64,
          "time": 347.6347875000079,
          "velocity": 0.47244094488188976,
          "duration": 0.19594575000002123
        },
        {
          "name": "G#3",
          "midi": 56,
          "time": 347.6347875000079,
          "velocity": 0.47244094488188976,
          "duration": 0.19594575000002123
        },
        {
          "name": "B2",
          "midi": 47,
          "time": 347.6347875000079,
          "velocity": 0.47244094488188976,
          "duration": 0.19594575000002123
        },
        {
          "name": "E3",
          "midi": 52,
          "time": 347.6347875000079,
          "velocity": 0.47244094488188976,
          "duration": 0.19594575000002123
        },
        {
          "name": "E2",
          "midi": 40,
          "time": 347.6347875000079,
          "velocity": 0.47244094488188976,
          "duration": 0.19594575000002123
        },
        {
          "name": "B3",
          "midi": 59,
          "time": 347.6347875000079,
          "velocity": 0.47244094488188976,
          "duration": 0.19594575000002123
        },
        {
          "name": "E2",
          "midi": 40,
          "time": 347.83749000000796,
          "velocity": 0.47244094488188976,
          "duration": 0.3986482500000079
        },
        {
          "name": "B3",
          "midi": 59,
          "time": 347.83749000000796,
          "velocity": 0.47244094488188976,
          "duration": 0.3986482500000079
        },
        {
          "name": "E3",
          "midi": 52,
          "time": 347.83749000000796,
          "velocity": 0.47244094488188976,
          "duration": 0.3986482500000079
        },
        {
          "name": "B2",
          "midi": 47,
          "time": 347.83749000000796,
          "velocity": 0.47244094488188976,
          "duration": 0.3986482500000079
        },
        {
          "name": "G#3",
          "midi": 56,
          "time": 347.83749000000796,
          "velocity": 0.47244094488188976,
          "duration": 0.3986482500000079
        },
        {
          "name": "E4",
          "midi": 64,
          "time": 347.83749000000796,
          "velocity": 0.47244094488188976,
          "duration": 0.3986482500000079
        },
        {
          "name": "E2",
          "midi": 40,
          "time": 348.242895000008,
          "velocity": 0.47244094488188976,
          "duration": 0.19594575000002123
        },
        {
          "name": "E3",
          "midi": 52,
          "time": 348.242895000008,
          "velocity": 0.47244094488188976,
          "duration": 0.19594575000002123
        },
        {
          "name": "G#3",
          "midi": 56,
          "time": 348.242895000008,
          "velocity": 0.47244094488188976,
          "duration": 0.19594575000002123
        },
        {
          "name": "B2",
          "midi": 47,
          "time": 348.242895000008,
          "velocity": 0.47244094488188976,
          "duration": 0.19594575000002123
        },
        {
          "name": "E4",
          "midi": 64,
          "time": 348.242895000008,
          "velocity": 0.47244094488188976,
          "duration": 0.19594575000002123
        },
        {
          "name": "B3",
          "midi": 59,
          "time": 348.242895000008,
          "velocity": 0.47244094488188976,
          "duration": 0.19594575000002123
        },
        {
          "name": "E4",
          "midi": 64,
          "time": 348.44559750000803,
          "velocity": 0.47244094488188976,
          "duration": 0.3986482500000079
        },
        {
          "name": "B3",
          "midi": 59,
          "time": 348.44559750000803,
          "velocity": 0.47244094488188976,
          "duration": 0.3986482500000079
        },
        {
          "name": "G#3",
          "midi": 56,
          "time": 348.44559750000803,
          "velocity": 0.47244094488188976,
          "duration": 0.3986482500000079
        },
        {
          "name": "B2",
          "midi": 47,
          "time": 348.44559750000803,
          "velocity": 0.47244094488188976,
          "duration": 0.3986482500000079
        },
        {
          "name": "E2",
          "midi": 40,
          "time": 348.44559750000803,
          "velocity": 0.47244094488188976,
          "duration": 0.3986482500000079
        },
        {
          "name": "E3",
          "midi": 52,
          "time": 348.44559750000803,
          "velocity": 0.47244094488188976,
          "duration": 0.3986482500000079
        },
        {
          "name": "E3",
          "midi": 52,
          "time": 348.85100250000806,
          "velocity": 0.47244094488188976,
          "duration": 0.19594575000002123
        },
        {
          "name": "B2",
          "midi": 47,
          "time": 348.85100250000806,
          "velocity": 0.47244094488188976,
          "duration": 0.19594575000002123
        },
        {
          "name": "B3",
          "midi": 59,
          "time": 348.85100250000806,
          "velocity": 0.47244094488188976,
          "duration": 0.19594575000002123
        },
        {
          "name": "E4",
          "midi": 64,
          "time": 348.85100250000806,
          "velocity": 0.47244094488188976,
          "duration": 0.19594575000002123
        },
        {
          "name": "E2",
          "midi": 40,
          "time": 348.85100250000806,
          "velocity": 0.47244094488188976,
          "duration": 0.19594575000002123
        },
        {
          "name": "G#3",
          "midi": 56,
          "time": 348.85100250000806,
          "velocity": 0.47244094488188976,
          "duration": 0.19594575000002123
        },
        {
          "name": "G#3",
          "midi": 56,
          "time": 349.0537050000081,
          "velocity": 0.47244094488188976,
          "duration": 0.3986482500000079
        },
        {
          "name": "B2",
          "midi": 47,
          "time": 349.0537050000081,
          "velocity": 0.47244094488188976,
          "duration": 0.3986482500000079
        },
        {
          "name": "B3",
          "midi": 59,
          "time": 349.0537050000081,
          "velocity": 0.47244094488188976,
          "duration": 0.3986482500000079
        },
        {
          "name": "E3",
          "midi": 52,
          "time": 349.0537050000081,
          "velocity": 0.47244094488188976,
          "duration": 0.3986482500000079
        },
        {
          "name": "E2",
          "midi": 40,
          "time": 349.0537050000081,
          "velocity": 0.47244094488188976,
          "duration": 0.3986482500000079
        },
        {
          "name": "E4",
          "midi": 64,
          "time": 349.0537050000081,
          "velocity": 0.47244094488188976,
          "duration": 0.3986482500000079
        },
        {
          "name": "G#3",
          "midi": 56,
          "time": 349.45911000000814,
          "velocity": 0.47244094488188976,
          "duration": 0.3986482500000079
        },
        {
          "name": "E4",
          "midi": 64,
          "time": 349.45911000000814,
          "velocity": 0.47244094488188976,
          "duration": 0.3986482500000079
        },
        {
          "name": "B3",
          "midi": 59,
          "time": 349.45911000000814,
          "velocity": 0.47244094488188976,
          "duration": 0.3986482500000079
        },
        {
          "name": "B2",
          "midi": 47,
          "time": 349.45911000000814,
          "velocity": 0.47244094488188976,
          "duration": 0.3986482500000079
        },
        {
          "name": "E2",
          "midi": 40,
          "time": 349.45911000000814,
          "velocity": 0.47244094488188976,
          "duration": 0.3986482500000079
        },
        {
          "name": "E3",
          "midi": 52,
          "time": 349.45911000000814,
          "velocity": 0.47244094488188976,
          "duration": 0.3986482500000079
        },
        {
          "name": "E4",
          "midi": 64,
          "time": 349.86451500000817,
          "velocity": 0.47244094488188976,
          "duration": 0.3986482500000079
        },
        {
          "name": "B2",
          "midi": 47,
          "time": 349.86451500000817,
          "velocity": 0.47244094488188976,
          "duration": 0.3986482500000079
        },
        {
          "name": "E2",
          "midi": 40,
          "time": 349.86451500000817,
          "velocity": 0.47244094488188976,
          "duration": 0.3986482500000079
        },
        {
          "name": "G#3",
          "midi": 56,
          "time": 349.86451500000817,
          "velocity": 0.47244094488188976,
          "duration": 0.3986482500000079
        },
        {
          "name": "E3",
          "midi": 52,
          "time": 349.86451500000817,
          "velocity": 0.47244094488188976,
          "duration": 0.3986482500000079
        },
        {
          "name": "B3",
          "midi": 59,
          "time": 349.86451500000817,
          "velocity": 0.47244094488188976,
          "duration": 0.3986482500000079
        },
        {
          "name": "D4",
          "midi": 62,
          "time": 350.2699200000082,
          "velocity": 0.47244094488188976,
          "duration": 0.19594575000002123
        },
        {
          "name": "B3",
          "midi": 59,
          "time": 350.2699200000082,
          "velocity": 0.47244094488188976,
          "duration": 0.19594575000002123
        },
        {
          "name": "G2",
          "midi": 43,
          "time": 350.2699200000082,
          "velocity": 0.47244094488188976,
          "duration": 0.19594575000002123
        },
        {
          "name": "B2",
          "midi": 47,
          "time": 350.2699200000082,
          "velocity": 0.47244094488188976,
          "duration": 0.19594575000002123
        },
        {
          "name": "G4",
          "midi": 67,
          "time": 350.2699200000082,
          "velocity": 0.47244094488188976,
          "duration": 0.19594575000002123
        },
        {
          "name": "G3",
          "midi": 55,
          "time": 350.2699200000082,
          "velocity": 0.47244094488188976,
          "duration": 0.19594575000002123
        },
        {
          "name": "B3",
          "midi": 59,
          "time": 350.47262250000824,
          "velocity": 0.47244094488188976,
          "duration": 0.3986482500000079
        },
        {
          "name": "G2",
          "midi": 43,
          "time": 350.47262250000824,
          "velocity": 0.47244094488188976,
          "duration": 0.3986482500000079
        },
        {
          "name": "D4",
          "midi": 62,
          "time": 350.47262250000824,
          "velocity": 0.47244094488188976,
          "duration": 0.3986482500000079
        },
        {
          "name": "G3",
          "midi": 55,
          "time": 350.47262250000824,
          "velocity": 0.47244094488188976,
          "duration": 0.3986482500000079
        },
        {
          "name": "B2",
          "midi": 47,
          "time": 350.47262250000824,
          "velocity": 0.47244094488188976,
          "duration": 0.3986482500000079
        },
        {
          "name": "G4",
          "midi": 67,
          "time": 350.47262250000824,
          "velocity": 0.47244094488188976,
          "duration": 0.3986482500000079
        },
        {
          "name": "B2",
          "midi": 47,
          "time": 350.8780275000083,
          "velocity": 0.47244094488188976,
          "duration": 0.19594575000002123
        },
        {
          "name": "G2",
          "midi": 43,
          "time": 350.8780275000083,
          "velocity": 0.47244094488188976,
          "duration": 0.19594575000002123
        },
        {
          "name": "G3",
          "midi": 55,
          "time": 350.8780275000083,
          "velocity": 0.47244094488188976,
          "duration": 0.19594575000002123
        },
        {
          "name": "B3",
          "midi": 59,
          "time": 350.8780275000083,
          "velocity": 0.47244094488188976,
          "duration": 0.19594575000002123
        },
        {
          "name": "G4",
          "midi": 67,
          "time": 350.8780275000083,
          "velocity": 0.47244094488188976,
          "duration": 0.19594575000002123
        },
        {
          "name": "D4",
          "midi": 62,
          "time": 350.8780275000083,
          "velocity": 0.47244094488188976,
          "duration": 0.19594575000002123
        },
        {
          "name": "B3",
          "midi": 59,
          "time": 351.0807300000083,
          "velocity": 0.47244094488188976,
          "duration": 0.3986482500000079
        },
        {
          "name": "B2",
          "midi": 47,
          "time": 351.0807300000083,
          "velocity": 0.47244094488188976,
          "duration": 0.3986482500000079
        },
        {
          "name": "G4",
          "midi": 67,
          "time": 351.0807300000083,
          "velocity": 0.47244094488188976,
          "duration": 0.3986482500000079
        },
        {
          "name": "G3",
          "midi": 55,
          "time": 351.0807300000083,
          "velocity": 0.47244094488188976,
          "duration": 0.3986482500000079
        },
        {
          "name": "G2",
          "midi": 43,
          "time": 351.0807300000083,
          "velocity": 0.47244094488188976,
          "duration": 0.3986482500000079
        },
        {
          "name": "D4",
          "midi": 62,
          "time": 351.0807300000083,
          "velocity": 0.47244094488188976,
          "duration": 0.3986482500000079
        },
        {
          "name": "G2",
          "midi": 43,
          "time": 351.48613500000835,
          "velocity": 0.47244094488188976,
          "duration": 0.19594575000002123
        },
        {
          "name": "B3",
          "midi": 59,
          "time": 351.48613500000835,
          "velocity": 0.47244094488188976,
          "duration": 0.19594575000002123
        },
        {
          "name": "G4",
          "midi": 67,
          "time": 351.48613500000835,
          "velocity": 0.47244094488188976,
          "duration": 0.19594575000002123
        },
        {
          "name": "G3",
          "midi": 55,
          "time": 351.48613500000835,
          "velocity": 0.47244094488188976,
          "duration": 0.19594575000002123
        },
        {
          "name": "D4",
          "midi": 62,
          "time": 351.48613500000835,
          "velocity": 0.47244094488188976,
          "duration": 0.19594575000002123
        },
        {
          "name": "B2",
          "midi": 47,
          "time": 351.48613500000835,
          "velocity": 0.47244094488188976,
          "duration": 0.19594575000002123
        },
        {
          "name": "D4",
          "midi": 62,
          "time": 351.6888375000084,
          "velocity": 0.47244094488188976,
          "duration": 0.3986482500000079
        },
        {
          "name": "B2",
          "midi": 47,
          "time": 351.6888375000084,
          "velocity": 0.47244094488188976,
          "duration": 0.3986482500000079
        },
        {
          "name": "G4",
          "midi": 67,
          "time": 351.6888375000084,
          "velocity": 0.47244094488188976,
          "duration": 0.3986482500000079
        },
        {
          "name": "G2",
          "midi": 43,
          "time": 351.6888375000084,
          "velocity": 0.47244094488188976,
          "duration": 0.3986482500000079
        },
        {
          "name": "B3",
          "midi": 59,
          "time": 351.6888375000084,
          "velocity": 0.47244094488188976,
          "duration": 0.3986482500000079
        },
        {
          "name": "G3",
          "midi": 55,
          "time": 351.6888375000084,
          "velocity": 0.47244094488188976,
          "duration": 0.3986482500000079
        },
        {
          "name": "G4",
          "midi": 67,
          "time": 352.0942425000084,
          "velocity": 0.47244094488188976,
          "duration": 0.19594575000002123
        },
        {
          "name": "B3",
          "midi": 59,
          "time": 352.0942425000084,
          "velocity": 0.47244094488188976,
          "duration": 0.19594575000002123
        },
        {
          "name": "G2",
          "midi": 43,
          "time": 352.0942425000084,
          "velocity": 0.47244094488188976,
          "duration": 0.19594575000002123
        },
        {
          "name": "D4",
          "midi": 62,
          "time": 352.0942425000084,
          "velocity": 0.47244094488188976,
          "duration": 0.19594575000002123
        },
        {
          "name": "G3",
          "midi": 55,
          "time": 352.0942425000084,
          "velocity": 0.47244094488188976,
          "duration": 0.19594575000002123
        },
        {
          "name": "B2",
          "midi": 47,
          "time": 352.0942425000084,
          "velocity": 0.47244094488188976,
          "duration": 0.19594575000002123
        },
        {
          "name": "B3",
          "midi": 59,
          "time": 352.29694500000846,
          "velocity": 0.47244094488188976,
          "duration": 0.3986482500000079
        },
        {
          "name": "G2",
          "midi": 43,
          "time": 352.29694500000846,
          "velocity": 0.47244094488188976,
          "duration": 0.3986482500000079
        },
        {
          "name": "G3",
          "midi": 55,
          "time": 352.29694500000846,
          "velocity": 0.47244094488188976,
          "duration": 0.3986482500000079
        },
        {
          "name": "G4",
          "midi": 67,
          "time": 352.29694500000846,
          "velocity": 0.47244094488188976,
          "duration": 0.3986482500000079
        },
        {
          "name": "D4",
          "midi": 62,
          "time": 352.29694500000846,
          "velocity": 0.47244094488188976,
          "duration": 0.3986482500000079
        },
        {
          "name": "B2",
          "midi": 47,
          "time": 352.29694500000846,
          "velocity": 0.47244094488188976,
          "duration": 0.3986482500000079
        },
        {
          "name": "B3",
          "midi": 59,
          "time": 352.7023500000085,
          "velocity": 0.47244094488188976,
          "duration": 0.3986482500000079
        },
        {
          "name": "D4",
          "midi": 62,
          "time": 352.7023500000085,
          "velocity": 0.47244094488188976,
          "duration": 0.3986482500000079
        },
        {
          "name": "B2",
          "midi": 47,
          "time": 352.7023500000085,
          "velocity": 0.47244094488188976,
          "duration": 0.3986482500000079
        },
        {
          "name": "G4",
          "midi": 67,
          "time": 352.7023500000085,
          "velocity": 0.47244094488188976,
          "duration": 0.3986482500000079
        },
        {
          "name": "G2",
          "midi": 43,
          "time": 352.7023500000085,
          "velocity": 0.47244094488188976,
          "duration": 0.3986482500000079
        },
        {
          "name": "G3",
          "midi": 55,
          "time": 352.7023500000085,
          "velocity": 0.47244094488188976,
          "duration": 0.3986482500000079
        },
        {
          "name": "B2",
          "midi": 47,
          "time": 353.1077550000085,
          "velocity": 0.47244094488188976,
          "duration": 0.3986482500000079
        },
        {
          "name": "G2",
          "midi": 43,
          "time": 353.1077550000085,
          "velocity": 0.47244094488188976,
          "duration": 0.3986482500000079
        },
        {
          "name": "B3",
          "midi": 59,
          "time": 353.1077550000085,
          "velocity": 0.47244094488188976,
          "duration": 0.3986482500000079
        },
        {
          "name": "G4",
          "midi": 67,
          "time": 353.1077550000085,
          "velocity": 0.47244094488188976,
          "duration": 0.3986482500000079
        },
        {
          "name": "G3",
          "midi": 55,
          "time": 353.1077550000085,
          "velocity": 0.47244094488188976,
          "duration": 0.3986482500000079
        },
        {
          "name": "D4",
          "midi": 62,
          "time": 353.1077550000085,
          "velocity": 0.47244094488188976,
          "duration": 0.3986482500000079
        },
        {
          "name": "F#4",
          "midi": 66,
          "time": 353.51316000000855,
          "velocity": 0.47244094488188976,
          "duration": 0.19594575000002123
        },
        {
          "name": "D4",
          "midi": 62,
          "time": 353.51316000000855,
          "velocity": 0.47244094488188976,
          "duration": 0.19594575000002123
        },
        {
          "name": "A3",
          "midi": 57,
          "time": 353.51316000000855,
          "velocity": 0.47244094488188976,
          "duration": 0.19594575000002123
        },
        {
          "name": "A2",
          "midi": 45,
          "time": 353.51316000000855,
          "velocity": 0.47244094488188976,
          "duration": 0.19594575000002123
        },
        {
          "name": "D3",
          "midi": 50,
          "time": 353.51316000000855,
          "velocity": 0.47244094488188976,
          "duration": 0.19594575000002123
        },
        {
          "name": "A4",
          "midi": 69,
          "time": 353.51316000000855,
          "velocity": 0.47244094488188976,
          "duration": 0.19594575000002123
        },
        {
          "name": "D4",
          "midi": 62,
          "time": 353.7158625000086,
          "velocity": 0.47244094488188976,
          "duration": 0.3986482500000079
        },
        {
          "name": "A2",
          "midi": 45,
          "time": 353.7158625000086,
          "velocity": 0.47244094488188976,
          "duration": 0.3986482500000079
        },
        {
          "name": "D3",
          "midi": 50,
          "time": 353.7158625000086,
          "velocity": 0.47244094488188976,
          "duration": 0.3986482500000079
        },
        {
          "name": "F#4",
          "midi": 66,
          "time": 353.7158625000086,
          "velocity": 0.47244094488188976,
          "duration": 0.3986482500000079
        },
        {
          "name": "A3",
          "midi": 57,
          "time": 353.7158625000086,
          "velocity": 0.47244094488188976,
          "duration": 0.3986482500000079
        },
        {
          "name": "A4",
          "midi": 69,
          "time": 353.7158625000086,
          "velocity": 0.47244094488188976,
          "duration": 0.3986482500000079
        },
        {
          "name": "A4",
          "midi": 69,
          "time": 354.1212675000086,
          "velocity": 0.47244094488188976,
          "duration": 0.19594575000002123
        },
        {
          "name": "D4",
          "midi": 62,
          "time": 354.1212675000086,
          "velocity": 0.47244094488188976,
          "duration": 0.19594575000002123
        },
        {
          "name": "D3",
          "midi": 50,
          "time": 354.1212675000086,
          "velocity": 0.47244094488188976,
          "duration": 0.19594575000002123
        },
        {
          "name": "A3",
          "midi": 57,
          "time": 354.1212675000086,
          "velocity": 0.47244094488188976,
          "duration": 0.19594575000002123
        },
        {
          "name": "A2",
          "midi": 45,
          "time": 354.1212675000086,
          "velocity": 0.47244094488188976,
          "duration": 0.19594575000002123
        },
        {
          "name": "F#4",
          "midi": 66,
          "time": 354.1212675000086,
          "velocity": 0.47244094488188976,
          "duration": 0.19594575000002123
        },
        {
          "name": "A2",
          "midi": 45,
          "time": 354.32397000000867,
          "velocity": 0.47244094488188976,
          "duration": 0.3986482500000079
        },
        {
          "name": "F#4",
          "midi": 66,
          "time": 354.32397000000867,
          "velocity": 0.47244094488188976,
          "duration": 0.3986482500000079
        },
        {
          "name": "A3",
          "midi": 57,
          "time": 354.32397000000867,
          "velocity": 0.47244094488188976,
          "duration": 0.3986482500000079
        },
        {
          "name": "D3",
          "midi": 50,
          "time": 354.32397000000867,
          "velocity": 0.47244094488188976,
          "duration": 0.3986482500000079
        },
        {
          "name": "D4",
          "midi": 62,
          "time": 354.32397000000867,
          "velocity": 0.47244094488188976,
          "duration": 0.3986482500000079
        },
        {
          "name": "A4",
          "midi": 69,
          "time": 354.32397000000867,
          "velocity": 0.47244094488188976,
          "duration": 0.3986482500000079
        },
        {
          "name": "A2",
          "midi": 45,
          "time": 354.7293750000087,
          "velocity": 0.47244094488188976,
          "duration": 0.19594575000002123
        },
        {
          "name": "A3",
          "midi": 57,
          "time": 354.7293750000087,
          "velocity": 0.47244094488188976,
          "duration": 0.19594575000002123
        },
        {
          "name": "D4",
          "midi": 62,
          "time": 354.7293750000087,
          "velocity": 0.47244094488188976,
          "duration": 0.19594575000002123
        },
        {
          "name": "D3",
          "midi": 50,
          "time": 354.7293750000087,
          "velocity": 0.47244094488188976,
          "duration": 0.19594575000002123
        },
        {
          "name": "A4",
          "midi": 69,
          "time": 354.7293750000087,
          "velocity": 0.47244094488188976,
          "duration": 0.19594575000002123
        },
        {
          "name": "F#4",
          "midi": 66,
          "time": 354.7293750000087,
          "velocity": 0.47244094488188976,
          "duration": 0.19594575000002123
        },
        {
          "name": "A4",
          "midi": 69,
          "time": 354.93207750000875,
          "velocity": 0.47244094488188976,
          "duration": 0.3986482500000079
        },
        {
          "name": "F#4",
          "midi": 66,
          "time": 354.93207750000875,
          "velocity": 0.47244094488188976,
          "duration": 0.3986482500000079
        },
        {
          "name": "D4",
          "midi": 62,
          "time": 354.93207750000875,
          "velocity": 0.47244094488188976,
          "duration": 0.3986482500000079
        },
        {
          "name": "D3",
          "midi": 50,
          "time": 354.93207750000875,
          "velocity": 0.47244094488188976,
          "duration": 0.3986482500000079
        },
        {
          "name": "A2",
          "midi": 45,
          "time": 354.93207750000875,
          "velocity": 0.47244094488188976,
          "duration": 0.3986482500000079
        },
        {
          "name": "A3",
          "midi": 57,
          "time": 354.93207750000875,
          "velocity": 0.47244094488188976,
          "duration": 0.3986482500000079
        },
        {
          "name": "A3",
          "midi": 57,
          "time": 355.3374825000088,
          "velocity": 0.47244094488188976,
          "duration": 0.19594575000002123
        },
        {
          "name": "D3",
          "midi": 50,
          "time": 355.3374825000088,
          "velocity": 0.47244094488188976,
          "duration": 0.19594575000002123
        },
        {
          "name": "F#4",
          "midi": 66,
          "time": 355.3374825000088,
          "velocity": 0.47244094488188976,
          "duration": 0.19594575000002123
        },
        {
          "name": "A4",
          "midi": 69,
          "time": 355.3374825000088,
          "velocity": 0.47244094488188976,
          "duration": 0.19594575000002123
        },
        {
          "name": "A2",
          "midi": 45,
          "time": 355.3374825000088,
          "velocity": 0.47244094488188976,
          "duration": 0.19594575000002123
        },
        {
          "name": "D4",
          "midi": 62,
          "time": 355.3374825000088,
          "velocity": 0.47244094488188976,
          "duration": 0.19594575000002123
        },
        {
          "name": "D4",
          "midi": 62,
          "time": 355.5401850000088,
          "velocity": 0.47244094488188976,
          "duration": 0.3986482500000079
        },
        {
          "name": "D3",
          "midi": 50,
          "time": 355.5401850000088,
          "velocity": 0.47244094488188976,
          "duration": 0.3986482500000079
        },
        {
          "name": "F#4",
          "midi": 66,
          "time": 355.5401850000088,
          "velocity": 0.47244094488188976,
          "duration": 0.3986482500000079
        },
        {
          "name": "A3",
          "midi": 57,
          "time": 355.5401850000088,
          "velocity": 0.47244094488188976,
          "duration": 0.3986482500000079
        },
        {
          "name": "A2",
          "midi": 45,
          "time": 355.5401850000088,
          "velocity": 0.47244094488188976,
          "duration": 0.3986482500000079
        },
        {
          "name": "A4",
          "midi": 69,
          "time": 355.5401850000088,
          "velocity": 0.47244094488188976,
          "duration": 0.3986482500000079
        },
        {
          "name": "D4",
          "midi": 62,
          "time": 355.94559000000885,
          "velocity": 0.47244094488188976,
          "duration": 0.3986482500000079
        },
        {
          "name": "A4",
          "midi": 69,
          "time": 355.94559000000885,
          "velocity": 0.47244094488188976,
          "duration": 0.3986482500000079
        },
        {
          "name": "F#4",
          "midi": 66,
          "time": 355.94559000000885,
          "velocity": 0.47244094488188976,
          "duration": 0.3986482500000079
        },
        {
          "name": "D3",
          "midi": 50,
          "time": 355.94559000000885,
          "velocity": 0.47244094488188976,
          "duration": 0.3986482500000079
        },
        {
          "name": "A2",
          "midi": 45,
          "time": 355.94559000000885,
          "velocity": 0.47244094488188976,
          "duration": 0.3986482500000079
        },
        {
          "name": "A3",
          "midi": 57,
          "time": 355.94559000000885,
          "velocity": 0.47244094488188976,
          "duration": 0.3986482500000079
        },
        {
          "name": "A4",
          "midi": 69,
          "time": 356.3509950000089,
          "velocity": 0.47244094488188976,
          "duration": 0.3986482500000079
        },
        {
          "name": "D3",
          "midi": 50,
          "time": 356.3509950000089,
          "velocity": 0.47244094488188976,
          "duration": 0.3986482500000079
        },
        {
          "name": "A2",
          "midi": 45,
          "time": 356.3509950000089,
          "velocity": 0.47244094488188976,
          "duration": 0.3986482500000079
        },
        {
          "name": "D4",
          "midi": 62,
          "time": 356.3509950000089,
          "velocity": 0.47244094488188976,
          "duration": 0.3986482500000079
        },
        {
          "name": "A3",
          "midi": 57,
          "time": 356.3509950000089,
          "velocity": 0.47244094488188976,
          "duration": 0.3986482500000079
        },
        {
          "name": "F#4",
          "midi": 66,
          "time": 356.3509950000089,
          "velocity": 0.47244094488188976,
          "duration": 0.3986482500000079
        },
        {
          "name": "B3",
          "midi": 59,
          "time": 356.7564000000089,
          "velocity": 0.47244094488188976,
          "duration": 0.19594575000002123
        },
        {
          "name": "G3",
          "midi": 55,
          "time": 356.7564000000089,
          "velocity": 0.47244094488188976,
          "duration": 0.19594575000002123
        },
        {
          "name": "E2",
          "midi": 40,
          "time": 356.7564000000089,
          "velocity": 0.47244094488188976,
          "duration": 0.19594575000002123
        },
        {
          "name": "A2",
          "midi": 45,
          "time": 356.7564000000089,
          "velocity": 0.47244094488188976,
          "duration": 0.19594575000002123
        },
        {
          "name": "E4",
          "midi": 64,
          "time": 356.7564000000089,
          "velocity": 0.47244094488188976,
          "duration": 0.19594575000002123
        },
        {
          "name": "E3",
          "midi": 52,
          "time": 356.7564000000089,
          "velocity": 0.47244094488188976,
          "duration": 0.19594575000002123
        },
        {
          "name": "G3",
          "midi": 55,
          "time": 356.95910250000895,
          "velocity": 0.47244094488188976,
          "duration": 0.3986482500000079
        },
        {
          "name": "E2",
          "midi": 40,
          "time": 356.95910250000895,
          "velocity": 0.47244094488188976,
          "duration": 0.3986482500000079
        },
        {
          "name": "B3",
          "midi": 59,
          "time": 356.95910250000895,
          "velocity": 0.47244094488188976,
          "duration": 0.3986482500000079
        },
        {
          "name": "E3",
          "midi": 52,
          "time": 356.95910250000895,
          "velocity": 0.47244094488188976,
          "duration": 0.3986482500000079
        },
        {
          "name": "A2",
          "midi": 45,
          "time": 356.95910250000895,
          "velocity": 0.47244094488188976,
          "duration": 0.3986482500000079
        },
        {
          "name": "E4",
          "midi": 64,
          "time": 356.95910250000895,
          "velocity": 0.47244094488188976,
          "duration": 0.3986482500000079
        },
        {
          "name": "A2",
          "midi": 45,
          "time": 357.364507500009,
          "velocity": 0.47244094488188976,
          "duration": 0.19594575000002123
        },
        {
          "name": "E2",
          "midi": 40,
          "time": 357.364507500009,
          "velocity": 0.47244094488188976,
          "duration": 0.19594575000002123
        },
        {
          "name": "E3",
          "midi": 52,
          "time": 357.364507500009,
          "velocity": 0.47244094488188976,
          "duration": 0.19594575000002123
        },
        {
          "name": "G3",
          "midi": 55,
          "time": 357.364507500009,
          "velocity": 0.47244094488188976,
          "duration": 0.19594575000002123
        },
        {
          "name": "E4",
          "midi": 64,
          "time": 357.364507500009,
          "velocity": 0.47244094488188976,
          "duration": 0.19594575000002123
        },
        {
          "name": "B3",
          "midi": 59,
          "time": 357.364507500009,
          "velocity": 0.47244094488188976,
          "duration": 0.19594575000002123
        },
        {
          "name": "G3",
          "midi": 55,
          "time": 357.567210000009,
          "velocity": 0.47244094488188976,
          "duration": 0.3986482500000079
        },
        {
          "name": "A2",
          "midi": 45,
          "time": 357.567210000009,
          "velocity": 0.47244094488188976,
          "duration": 0.3986482500000079
        },
        {
          "name": "E4",
          "midi": 64,
          "time": 357.567210000009,
          "velocity": 0.47244094488188976,
          "duration": 0.3986482500000079
        },
        {
          "name": "E3",
          "midi": 52,
          "time": 357.567210000009,
          "velocity": 0.47244094488188976,
          "duration": 0.3986482500000079
        },
        {
          "name": "E2",
          "midi": 40,
          "time": 357.567210000009,
          "velocity": 0.47244094488188976,
          "duration": 0.3986482500000079
        },
        {
          "name": "B3",
          "midi": 59,
          "time": 357.567210000009,
          "velocity": 0.47244094488188976,
          "duration": 0.3986482500000079
        },
        {
          "name": "E2",
          "midi": 40,
          "time": 357.97261500000906,
          "velocity": 0.47244094488188976,
          "duration": 0.19594575000002123
        },
        {
          "name": "G3",
          "midi": 55,
          "time": 357.97261500000906,
          "velocity": 0.47244094488188976,
          "duration": 0.19594575000002123
        },
        {
          "name": "E4",
          "midi": 64,
          "time": 357.97261500000906,
          "velocity": 0.47244094488188976,
          "duration": 0.19594575000002123
        },
        {
          "name": "E3",
          "midi": 52,
          "time": 357.97261500000906,
          "velocity": 0.47244094488188976,
          "duration": 0.19594575000002123
        },
        {
          "name": "B3",
          "midi": 59,
          "time": 357.97261500000906,
          "velocity": 0.47244094488188976,
          "duration": 0.19594575000002123
        },
        {
          "name": "A2",
          "midi": 45,
          "time": 357.97261500000906,
          "velocity": 0.47244094488188976,
          "duration": 0.19594575000002123
        },
        {
          "name": "B3",
          "midi": 59,
          "time": 358.1753175000091,
          "velocity": 0.47244094488188976,
          "duration": 0.3986482500000079
        },
        {
          "name": "A2",
          "midi": 45,
          "time": 358.1753175000091,
          "velocity": 0.47244094488188976,
          "duration": 0.3986482500000079
        },
        {
          "name": "E4",
          "midi": 64,
          "time": 358.1753175000091,
          "velocity": 0.47244094488188976,
          "duration": 0.3986482500000079
        },
        {
          "name": "E2",
          "midi": 40,
          "time": 358.1753175000091,
          "velocity": 0.47244094488188976,
          "duration": 0.3986482500000079
        },
        {
          "name": "G3",
          "midi": 55,
          "time": 358.1753175000091,
          "velocity": 0.47244094488188976,
          "duration": 0.3986482500000079
        },
        {
          "name": "E3",
          "midi": 52,
          "time": 358.1753175000091,
          "velocity": 0.47244094488188976,
          "duration": 0.3986482500000079
        },
        {
          "name": "E4",
          "midi": 64,
          "time": 358.58072250000913,
          "velocity": 0.47244094488188976,
          "duration": 0.19594575000002123
        },
        {
          "name": "G3",
          "midi": 55,
          "time": 358.58072250000913,
          "velocity": 0.47244094488188976,
          "duration": 0.19594575000002123
        },
        {
          "name": "E2",
          "midi": 40,
          "time": 358.58072250000913,
          "velocity": 0.47244094488188976,
          "duration": 0.19594575000002123
        },
        {
          "name": "B3",
          "midi": 59,
          "time": 358.58072250000913,
          "velocity": 0.47244094488188976,
          "duration": 0.19594575000002123
        },
        {
          "name": "E3",
          "midi": 52,
          "time": 358.58072250000913,
          "velocity": 0.47244094488188976,
          "duration": 0.19594575000002123
        },
        {
          "name": "A2",
          "midi": 45,
          "time": 358.58072250000913,
          "velocity": 0.47244094488188976,
          "duration": 0.19594575000002123
        },
        {
          "name": "G3",
          "midi": 55,
          "time": 358.7834250000092,
          "velocity": 0.47244094488188976,
          "duration": 0.3986482500000079
        },
        {
          "name": "E2",
          "midi": 40,
          "time": 358.7834250000092,
          "velocity": 0.47244094488188976,
          "duration": 0.3986482500000079
        },
        {
          "name": "E3",
          "midi": 52,
          "time": 358.7834250000092,
          "velocity": 0.47244094488188976,
          "duration": 0.3986482500000079
        },
        {
          "name": "E4",
          "midi": 64,
          "time": 358.7834250000092,
          "velocity": 0.47244094488188976,
          "duration": 0.3986482500000079
        },
        {
          "name": "B3",
          "midi": 59,
          "time": 358.7834250000092,
          "velocity": 0.47244094488188976,
          "duration": 0.3986482500000079
        },
        {
          "name": "A2",
          "midi": 45,
          "time": 358.7834250000092,
          "velocity": 0.47244094488188976,
          "duration": 0.3986482500000079
        },
        {
          "name": "G3",
          "midi": 55,
          "time": 359.1888300000092,
          "velocity": 0.47244094488188976,
          "duration": 0.3986482500000079
        },
        {
          "name": "B3",
          "midi": 59,
          "time": 359.1888300000092,
          "velocity": 0.47244094488188976,
          "duration": 0.3986482500000079
        },
        {
          "name": "A2",
          "midi": 45,
          "time": 359.1888300000092,
          "velocity": 0.47244094488188976,
          "duration": 0.3986482500000079
        },
        {
          "name": "E4",
          "midi": 64,
          "time": 359.1888300000092,
          "velocity": 0.47244094488188976,
          "duration": 0.3986482500000079
        },
        {
          "name": "E2",
          "midi": 40,
          "time": 359.1888300000092,
          "velocity": 0.47244094488188976,
          "duration": 0.3986482500000079
        },
        {
          "name": "E3",
          "midi": 52,
          "time": 359.1888300000092,
          "velocity": 0.47244094488188976,
          "duration": 0.3986482500000079
        },
        {
          "name": "A2",
          "midi": 45,
          "time": 359.59423500000923,
          "velocity": 0.47244094488188976,
          "duration": 0.3986482500000079
        },
        {
          "name": "E2",
          "midi": 40,
          "time": 359.59423500000923,
          "velocity": 0.47244094488188976,
          "duration": 0.3986482500000079
        },
        {
          "name": "G3",
          "midi": 55,
          "time": 359.59423500000923,
          "velocity": 0.47244094488188976,
          "duration": 0.3986482500000079
        },
        {
          "name": "E4",
          "midi": 64,
          "time": 359.59423500000923,
          "velocity": 0.47244094488188976,
          "duration": 0.3986482500000079
        },
        {
          "name": "E3",
          "midi": 52,
          "time": 359.59423500000923,
          "velocity": 0.47244094488188976,
          "duration": 0.3986482500000079
        },
        {
          "name": "B3",
          "midi": 59,
          "time": 359.59423500000923,
          "velocity": 0.47244094488188976,
          "duration": 0.3986482500000079
        },
        {
          "name": "C#4",
          "midi": 61,
          "time": 359.99964000000926,
          "velocity": 0.47244094488188976,
          "duration": 0.19594575000002123
        },
        {
          "name": "A#3",
          "midi": 58,
          "time": 359.99964000000926,
          "velocity": 0.47244094488188976,
          "duration": 0.19594575000002123
        },
        {
          "name": "F#3",
          "midi": 54,
          "time": 359.99964000000926,
          "velocity": 0.47244094488188976,
          "duration": 0.19594575000002123
        },
        {
          "name": "F#2",
          "midi": 42,
          "time": 359.99964000000926,
          "velocity": 0.47244094488188976,
          "duration": 0.19594575000002123
        },
        {
          "name": "C#3",
          "midi": 49,
          "time": 359.99964000000926,
          "velocity": 0.47244094488188976,
          "duration": 0.19594575000002123
        },
        {
          "name": "F#4",
          "midi": 66,
          "time": 359.99964000000926,
          "velocity": 0.47244094488188976,
          "duration": 0.19594575000002123
        },
        {
          "name": "A#3",
          "midi": 58,
          "time": 360.2023425000093,
          "velocity": 0.47244094488188976,
          "duration": 0.3986482500000079
        },
        {
          "name": "F#2",
          "midi": 42,
          "time": 360.2023425000093,
          "velocity": 0.47244094488188976,
          "duration": 0.3986482500000079
        },
        {
          "name": "C#3",
          "midi": 49,
          "time": 360.2023425000093,
          "velocity": 0.47244094488188976,
          "duration": 0.3986482500000079
        },
        {
          "name": "C#4",
          "midi": 61,
          "time": 360.2023425000093,
          "velocity": 0.47244094488188976,
          "duration": 0.3986482500000079
        },
        {
          "name": "F#3",
          "midi": 54,
          "time": 360.2023425000093,
          "velocity": 0.47244094488188976,
          "duration": 0.3986482500000079
        },
        {
          "name": "F#4",
          "midi": 66,
          "time": 360.2023425000093,
          "velocity": 0.47244094488188976,
          "duration": 0.3986482500000079
        },
        {
          "name": "F#4",
          "midi": 66,
          "time": 360.60774750000934,
          "velocity": 0.47244094488188976,
          "duration": 0.19594575000002123
        },
        {
          "name": "A#3",
          "midi": 58,
          "time": 360.60774750000934,
          "velocity": 0.47244094488188976,
          "duration": 0.19594575000002123
        },
        {
          "name": "C#3",
          "midi": 49,
          "time": 360.60774750000934,
          "velocity": 0.47244094488188976,
          "duration": 0.19594575000002123
        },
        {
          "name": "F#3",
          "midi": 54,
          "time": 360.60774750000934,
          "velocity": 0.47244094488188976,
          "duration": 0.19594575000002123
        },
        {
          "name": "F#2",
          "midi": 42,
          "time": 360.60774750000934,
          "velocity": 0.47244094488188976,
          "duration": 0.19594575000002123
        },
        {
          "name": "C#4",
          "midi": 61,
          "time": 360.60774750000934,
          "velocity": 0.47244094488188976,
          "duration": 0.19594575000002123
        },
        {
          "name": "F#2",
          "midi": 42,
          "time": 360.8104500000094,
          "velocity": 0.47244094488188976,
          "duration": 0.3986482500000079
        },
        {
          "name": "C#4",
          "midi": 61,
          "time": 360.8104500000094,
          "velocity": 0.47244094488188976,
          "duration": 0.3986482500000079
        },
        {
          "name": "F#3",
          "midi": 54,
          "time": 360.8104500000094,
          "velocity": 0.47244094488188976,
          "duration": 0.3986482500000079
        },
        {
          "name": "C#3",
          "midi": 49,
          "time": 360.8104500000094,
          "velocity": 0.47244094488188976,
          "duration": 0.3986482500000079
        },
        {
          "name": "A#3",
          "midi": 58,
          "time": 360.8104500000094,
          "velocity": 0.47244094488188976,
          "duration": 0.3986482500000079
        },
        {
          "name": "F#4",
          "midi": 66,
          "time": 360.8104500000094,
          "velocity": 0.47244094488188976,
          "duration": 0.3986482500000079
        },
        {
          "name": "F#2",
          "midi": 42,
          "time": 361.2158550000094,
          "velocity": 0.47244094488188976,
          "duration": 0.19594575000002123
        },
        {
          "name": "F#3",
          "midi": 54,
          "time": 361.2158550000094,
          "velocity": 0.47244094488188976,
          "duration": 0.19594575000002123
        },
        {
          "name": "A#3",
          "midi": 58,
          "time": 361.2158550000094,
          "velocity": 0.47244094488188976,
          "duration": 0.19594575000002123
        },
        {
          "name": "C#3",
          "midi": 49,
          "time": 361.2158550000094,
          "velocity": 0.47244094488188976,
          "duration": 0.19594575000002123
        },
        {
          "name": "F#4",
          "midi": 66,
          "time": 361.2158550000094,
          "velocity": 0.47244094488188976,
          "duration": 0.19594575000002123
        },
        {
          "name": "C#4",
          "midi": 61,
          "time": 361.2158550000094,
          "velocity": 0.47244094488188976,
          "duration": 0.19594575000002123
        },
        {
          "name": "F#4",
          "midi": 66,
          "time": 361.41855750000946,
          "velocity": 0.47244094488188976,
          "duration": 0.3986482500000079
        },
        {
          "name": "C#4",
          "midi": 61,
          "time": 361.41855750000946,
          "velocity": 0.47244094488188976,
          "duration": 0.3986482500000079
        },
        {
          "name": "A#3",
          "midi": 58,
          "time": 361.41855750000946,
          "velocity": 0.47244094488188976,
          "duration": 0.3986482500000079
        },
        {
          "name": "C#3",
          "midi": 49,
          "time": 361.41855750000946,
          "velocity": 0.47244094488188976,
          "duration": 0.3986482500000079
        },
        {
          "name": "F#2",
          "midi": 42,
          "time": 361.41855750000946,
          "velocity": 0.47244094488188976,
          "duration": 0.3986482500000079
        },
        {
          "name": "F#3",
          "midi": 54,
          "time": 361.41855750000946,
          "velocity": 0.47244094488188976,
          "duration": 0.3986482500000079
        },
        {
          "name": "F#3",
          "midi": 54,
          "time": 361.8239625000095,
          "velocity": 0.47244094488188976,
          "duration": 0.19594575000002123
        },
        {
          "name": "C#3",
          "midi": 49,
          "time": 361.8239625000095,
          "velocity": 0.47244094488188976,
          "duration": 0.19594575000002123
        },
        {
          "name": "C#4",
          "midi": 61,
          "time": 361.8239625000095,
          "velocity": 0.47244094488188976,
          "duration": 0.19594575000002123
        },
        {
          "name": "F#4",
          "midi": 66,
          "time": 361.8239625000095,
          "velocity": 0.47244094488188976,
          "duration": 0.19594575000002123
        },
        {
          "name": "F#2",
          "midi": 42,
          "time": 361.8239625000095,
          "velocity": 0.47244094488188976,
          "duration": 0.19594575000002123
        },
        {
          "name": "A#3",
          "midi": 58,
          "time": 361.8239625000095,
          "velocity": 0.47244094488188976,
          "duration": 0.19594575000002123
        },
        {
          "name": "A#3",
          "midi": 58,
          "time": 362.02666500000953,
          "velocity": 0.47244094488188976,
          "duration": 0.3986482500000079
        },
        {
          "name": "C#3",
          "midi": 49,
          "time": 362.02666500000953,
          "velocity": 0.47244094488188976,
          "duration": 0.3986482500000079
        },
        {
          "name": "C#4",
          "midi": 61,
          "time": 362.02666500000953,
          "velocity": 0.47244094488188976,
          "duration": 0.3986482500000079
        },
        {
          "name": "F#3",
          "midi": 54,
          "time": 362.02666500000953,
          "velocity": 0.47244094488188976,
          "duration": 0.3986482500000079
        },
        {
          "name": "F#2",
          "midi": 42,
          "time": 362.02666500000953,
          "velocity": 0.47244094488188976,
          "duration": 0.3986482500000079
        },
        {
          "name": "F#4",
          "midi": 66,
          "time": 362.02666500000953,
          "velocity": 0.47244094488188976,
          "duration": 0.3986482500000079
        },
        {
          "name": "A#3",
          "midi": 58,
          "time": 362.43207000000956,
          "velocity": 0.47244094488188976,
          "duration": 0.3986482500000079
        },
        {
          "name": "F#4",
          "midi": 66,
          "time": 362.43207000000956,
          "velocity": 0.47244094488188976,
          "duration": 0.3986482500000079
        },
        {
          "name": "C#4",
          "midi": 61,
          "time": 362.43207000000956,
          "velocity": 0.47244094488188976,
          "duration": 0.3986482500000079
        },
        {
          "name": "C#3",
          "midi": 49,
          "time": 362.43207000000956,
          "velocity": 0.47244094488188976,
          "duration": 0.3986482500000079
        },
        {
          "name": "F#2",
          "midi": 42,
          "time": 362.43207000000956,
          "velocity": 0.47244094488188976,
          "duration": 0.3986482500000079
        },
        {
          "name": "F#3",
          "midi": 54,
          "time": 362.43207000000956,
          "velocity": 0.47244094488188976,
          "duration": 0.3986482500000079
        },
        {
          "name": "F#4",
          "midi": 66,
          "time": 362.8374750000096,
          "velocity": 0.47244094488188976,
          "duration": 0.3986482500000079
        },
        {
          "name": "C#3",
          "midi": 49,
          "time": 362.8374750000096,
          "velocity": 0.47244094488188976,
          "duration": 0.3986482500000079
        },
        {
          "name": "F#2",
          "midi": 42,
          "time": 362.8374750000096,
          "velocity": 0.47244094488188976,
          "duration": 0.3986482500000079
        },
        {
          "name": "A#3",
          "midi": 58,
          "time": 362.8374750000096,
          "velocity": 0.47244094488188976,
          "duration": 0.3986482500000079
        },
        {
          "name": "F#3",
          "midi": 54,
          "time": 362.8374750000096,
          "velocity": 0.47244094488188976,
          "duration": 0.3986482500000079
        },
        {
          "name": "C#4",
          "midi": 61,
          "time": 362.8374750000096,
          "velocity": 0.47244094488188976,
          "duration": 0.3986482500000079
        },
        {
          "name": "D4",
          "midi": 62,
          "time": 363.2428800000096,
          "velocity": 0.47244094488188976,
          "duration": 0.19594575000002123
        },
        {
          "name": "B3",
          "midi": 59,
          "time": 363.2428800000096,
          "velocity": 0.47244094488188976,
          "duration": 0.19594575000002123
        },
        {
          "name": "F#2",
          "midi": 42,
          "time": 363.2428800000096,
          "velocity": 0.47244094488188976,
          "duration": 0.19594575000002123
        },
        {
          "name": "B2",
          "midi": 47,
          "time": 363.2428800000096,
          "velocity": 0.47244094488188976,
          "duration": 0.19594575000002123
        },
        {
          "name": "F#4",
          "midi": 66,
          "time": 363.2428800000096,
          "velocity": 0.47244094488188976,
          "duration": 0.19594575000002123
        },
        {
          "name": "F#3",
          "midi": 54,
          "time": 363.2428800000096,
          "velocity": 0.47244094488188976,
          "duration": 0.19594575000002123
        },
        {
          "name": "B3",
          "midi": 59,
          "time": 363.44558250000966,
          "velocity": 0.47244094488188976,
          "duration": 0.3986482500000079
        },
        {
          "name": "F#2",
          "midi": 42,
          "time": 363.44558250000966,
          "velocity": 0.47244094488188976,
          "duration": 0.3986482500000079
        },
        {
          "name": "D4",
          "midi": 62,
          "time": 363.44558250000966,
          "velocity": 0.47244094488188976,
          "duration": 0.3986482500000079
        },
        {
          "name": "F#3",
          "midi": 54,
          "time": 363.44558250000966,
          "velocity": 0.47244094488188976,
          "duration": 0.3986482500000079
        },
        {
          "name": "B2",
          "midi": 47,
          "time": 363.44558250000966,
          "velocity": 0.47244094488188976,
          "duration": 0.3986482500000079
        },
        {
          "name": "F#4",
          "midi": 66,
          "time": 363.44558250000966,
          "velocity": 0.47244094488188976,
          "duration": 0.3986482500000079
        },
        {
          "name": "B2",
          "midi": 47,
          "time": 363.8509875000097,
          "velocity": 0.47244094488188976,
          "duration": 0.19594575000002123
        },
        {
          "name": "F#2",
          "midi": 42,
          "time": 363.8509875000097,
          "velocity": 0.47244094488188976,
          "duration": 0.19594575000002123
        },
        {
          "name": "F#3",
          "midi": 54,
          "time": 363.8509875000097,
          "velocity": 0.47244094488188976,
          "duration": 0.19594575000002123
        },
        {
          "name": "B3",
          "midi": 59,
          "time": 363.8509875000097,
          "velocity": 0.47244094488188976,
          "duration": 0.19594575000002123
        },
        {
          "name": "F#4",
          "midi": 66,
          "time": 363.8509875000097,
          "velocity": 0.47244094488188976,
          "duration": 0.19594575000002123
        },
        {
          "name": "D4",
          "midi": 62,
          "time": 363.8509875000097,
          "velocity": 0.47244094488188976,
          "duration": 0.19594575000002123
        },
        {
          "name": "B3",
          "midi": 59,
          "time": 364.05369000000974,
          "velocity": 0.47244094488188976,
          "duration": 0.3986482500000079
        },
        {
          "name": "B2",
          "midi": 47,
          "time": 364.05369000000974,
          "velocity": 0.47244094488188976,
          "duration": 0.3986482500000079
        },
        {
          "name": "F#4",
          "midi": 66,
          "time": 364.05369000000974,
          "velocity": 0.47244094488188976,
          "duration": 0.3986482500000079
        },
        {
          "name": "F#3",
          "midi": 54,
          "time": 364.05369000000974,
          "velocity": 0.47244094488188976,
          "duration": 0.3986482500000079
        },
        {
          "name": "F#2",
          "midi": 42,
          "time": 364.05369000000974,
          "velocity": 0.47244094488188976,
          "duration": 0.3986482500000079
        },
        {
          "name": "D4",
          "midi": 62,
          "time": 364.05369000000974,
          "velocity": 0.47244094488188976,
          "duration": 0.3986482500000079
        },
        {
          "name": "B3",
          "midi": 59,
          "time": 364.45909500000977,
          "velocity": 0.47244094488188976,
          "duration": 0.19594575000002123
        },
        {
          "name": "F#2",
          "midi": 42,
          "time": 364.45909500000977,
          "velocity": 0.47244094488188976,
          "duration": 0.19594575000002123
        },
        {
          "name": "F#3",
          "midi": 54,
          "time": 364.45909500000977,
          "velocity": 0.47244094488188976,
          "duration": 0.19594575000002123
        },
        {
          "name": "D4",
          "midi": 62,
          "time": 364.45909500000977,
          "velocity": 0.47244094488188976,
          "duration": 0.19594575000002123
        },
        {
          "name": "B2",
          "midi": 47,
          "time": 364.45909500000977,
          "velocity": 0.47244094488188976,
          "duration": 0.19594575000002123
        },
        {
          "name": "F#4",
          "midi": 66,
          "time": 364.45909500000977,
          "velocity": 0.47244094488188976,
          "duration": 0.19594575000002123
        },
        {
          "name": "D4",
          "midi": 62,
          "time": 364.6617975000098,
          "velocity": 0.47244094488188976,
          "duration": 0.3986482500000079
        },
        {
          "name": "F#4",
          "midi": 66,
          "time": 364.6617975000098,
          "velocity": 0.47244094488188976,
          "duration": 0.3986482500000079
        },
        {
          "name": "F#2",
          "midi": 42,
          "time": 364.6617975000098,
          "velocity": 0.47244094488188976,
          "duration": 0.3986482500000079
        },
        {
          "name": "B3",
          "midi": 59,
          "time": 364.6617975000098,
          "velocity": 0.47244094488188976,
          "duration": 0.3986482500000079
        },
        {
          "name": "B2",
          "midi": 47,
          "time": 364.6617975000098,
          "velocity": 0.47244094488188976,
          "duration": 0.3986482500000079
        },
        {
          "name": "F#3",
          "midi": 54,
          "time": 364.6617975000098,
          "velocity": 0.47244094488188976,
          "duration": 0.3986482500000079
        },
        {
          "name": "F#2",
          "midi": 42,
          "time": 365.06720250000984,
          "velocity": 0.47244094488188976,
          "duration": 0.19594575000002123
        },
        {
          "name": "D4",
          "midi": 62,
          "time": 365.06720250000984,
          "velocity": 0.47244094488188976,
          "duration": 0.19594575000002123
        },
        {
          "name": "F#3",
          "midi": 54,
          "time": 365.06720250000984,
          "velocity": 0.47244094488188976,
          "duration": 0.19594575000002123
        },
        {
          "name": "B3",
          "midi": 59,
          "time": 365.06720250000984,
          "velocity": 0.47244094488188976,
          "duration": 0.19594575000002123
        },
        {
          "name": "F#4",
          "midi": 66,
          "time": 365.06720250000984,
          "velocity": 0.47244094488188976,
          "duration": 0.19594575000002123
        },
        {
          "name": "B2",
          "midi": 47,
          "time": 365.06720250000984,
          "velocity": 0.47244094488188976,
          "duration": 0.19594575000002123
        },
        {
          "name": "F#3",
          "midi": 54,
          "time": 365.2699050000099,
          "velocity": 0.47244094488188976,
          "duration": 0.3986482500000079
        },
        {
          "name": "F#2",
          "midi": 42,
          "time": 365.2699050000099,
          "velocity": 0.47244094488188976,
          "duration": 0.3986482500000079
        },
        {
          "name": "B3",
          "midi": 59,
          "time": 365.2699050000099,
          "velocity": 0.47244094488188976,
          "duration": 0.3986482500000079
        },
        {
          "name": "B2",
          "midi": 47,
          "time": 365.2699050000099,
          "velocity": 0.47244094488188976,
          "duration": 0.3986482500000079
        },
        {
          "name": "F#4",
          "midi": 66,
          "time": 365.2699050000099,
          "velocity": 0.47244094488188976,
          "duration": 0.3986482500000079
        },
        {
          "name": "D4",
          "midi": 62,
          "time": 365.2699050000099,
          "velocity": 0.47244094488188976,
          "duration": 0.3986482500000079
        },
        {
          "name": "B3",
          "midi": 59,
          "time": 365.6753100000099,
          "velocity": 0.47244094488188976,
          "duration": 0.3986482500000079
        },
        {
          "name": "D4",
          "midi": 62,
          "time": 365.6753100000099,
          "velocity": 0.47244094488188976,
          "duration": 0.3986482500000079
        },
        {
          "name": "F#2",
          "midi": 42,
          "time": 365.6753100000099,
          "velocity": 0.47244094488188976,
          "duration": 0.3986482500000079
        },
        {
          "name": "F#3",
          "midi": 54,
          "time": 365.6753100000099,
          "velocity": 0.47244094488188976,
          "duration": 0.3986482500000079
        },
        {
          "name": "B2",
          "midi": 47,
          "time": 365.6753100000099,
          "velocity": 0.47244094488188976,
          "duration": 0.3986482500000079
        },
        {
          "name": "F#4",
          "midi": 66,
          "time": 365.6753100000099,
          "velocity": 0.47244094488188976,
          "duration": 0.3986482500000079
        },
        {
          "name": "F#4",
          "midi": 66,
          "time": 366.08071500000995,
          "velocity": 0.47244094488188976,
          "duration": 0.3986482500000079
        },
        {
          "name": "F#3",
          "midi": 54,
          "time": 366.08071500000995,
          "velocity": 0.47244094488188976,
          "duration": 0.3986482500000079
        },
        {
          "name": "D4",
          "midi": 62,
          "time": 366.08071500000995,
          "velocity": 0.47244094488188976,
          "duration": 0.3986482500000079
        },
        {
          "name": "B2",
          "midi": 47,
          "time": 366.08071500000995,
          "velocity": 0.47244094488188976,
          "duration": 0.3986482500000079
        },
        {
          "name": "F#2",
          "midi": 42,
          "time": 366.08071500000995,
          "velocity": 0.47244094488188976,
          "duration": 0.3986482500000079
        },
        {
          "name": "B3",
          "midi": 59,
          "time": 366.08071500000995,
          "velocity": 0.47244094488188976,
          "duration": 0.3986482500000079
        },
        {
          "name": "F#2",
          "midi": 42,
          "time": 366.48612000001,
          "velocity": 0.47244094488188976,
          "duration": 0.19594575000002123
        },
        {
          "name": "C#4",
          "midi": 61,
          "time": 366.48612000001,
          "velocity": 0.47244094488188976,
          "duration": 0.19594575000002123
        },
        {
          "name": "A#3",
          "midi": 58,
          "time": 366.48612000001,
          "velocity": 0.47244094488188976,
          "duration": 0.19594575000002123
        },
        {
          "name": "F#3",
          "midi": 54,
          "time": 366.48612000001,
          "velocity": 0.47244094488188976,
          "duration": 0.19594575000002123
        },
        {
          "name": "F#4",
          "midi": 66,
          "time": 366.48612000001,
          "velocity": 0.47244094488188976,
          "duration": 0.19594575000002123
        },
        {
          "name": "C#3",
          "midi": 49,
          "time": 366.48612000001,
          "velocity": 0.47244094488188976,
          "duration": 0.19594575000002123
        },
        {
          "name": "C#3",
          "midi": 49,
          "time": 366.68882250001,
          "velocity": 0.47244094488188976,
          "duration": 0.3986482500000079
        },
        {
          "name": "F#4",
          "midi": 66,
          "time": 366.68882250001,
          "velocity": 0.47244094488188976,
          "duration": 0.3986482500000079
        },
        {
          "name": "F#2",
          "midi": 42,
          "time": 366.68882250001,
          "velocity": 0.47244094488188976,
          "duration": 0.3986482500000079
        },
        {
          "name": "C#4",
          "midi": 61,
          "time": 366.68882250001,
          "velocity": 0.47244094488188976,
          "duration": 0.3986482500000079
        },
        {
          "name": "F#3",
          "midi": 54,
          "time": 366.68882250001,
          "velocity": 0.47244094488188976,
          "duration": 0.3986482500000079
        },
        {
          "name": "A#3",
          "midi": 58,
          "time": 366.68882250001,
          "velocity": 0.47244094488188976,
          "duration": 0.3986482500000079
        },
        {
          "name": "F#4",
          "midi": 66,
          "time": 367.09422750001005,
          "velocity": 0.47244094488188976,
          "duration": 0.19594575000002123
        },
        {
          "name": "C#4",
          "midi": 61,
          "time": 367.09422750001005,
          "velocity": 0.47244094488188976,
          "duration": 0.19594575000002123
        },
        {
          "name": "F#2",
          "midi": 42,
          "time": 367.09422750001005,
          "velocity": 0.47244094488188976,
          "duration": 0.19594575000002123
        },
        {
          "name": "A#3",
          "midi": 58,
          "time": 367.09422750001005,
          "velocity": 0.47244094488188976,
          "duration": 0.19594575000002123
        },
        {
          "name": "C#3",
          "midi": 49,
          "time": 367.09422750001005,
          "velocity": 0.47244094488188976,
          "duration": 0.19594575000002123
        },
        {
          "name": "F#3",
          "midi": 54,
          "time": 367.09422750001005,
          "velocity": 0.47244094488188976,
          "duration": 0.19594575000002123
        },
        {
          "name": "F#2",
          "midi": 42,
          "time": 367.2969300000101,
          "velocity": 0.47244094488188976,
          "duration": 0.3986482500000079
        },
        {
          "name": "C#4",
          "midi": 61,
          "time": 367.2969300000101,
          "velocity": 0.47244094488188976,
          "duration": 0.3986482500000079
        },
        {
          "name": "F#3",
          "midi": 54,
          "time": 367.2969300000101,
          "velocity": 0.47244094488188976,
          "duration": 0.3986482500000079
        },
        {
          "name": "C#3",
          "midi": 49,
          "time": 367.2969300000101,
          "velocity": 0.47244094488188976,
          "duration": 0.3986482500000079
        },
        {
          "name": "A#3",
          "midi": 58,
          "time": 367.2969300000101,
          "velocity": 0.47244094488188976,
          "duration": 0.3986482500000079
        },
        {
          "name": "F#4",
          "midi": 66,
          "time": 367.2969300000101,
          "velocity": 0.47244094488188976,
          "duration": 0.3986482500000079
        },
        {
          "name": "C#4",
          "midi": 61,
          "time": 367.7023350000101,
          "velocity": 0.47244094488188976,
          "duration": 0.19594575000002123
        },
        {
          "name": "F#3",
          "midi": 54,
          "time": 367.7023350000101,
          "velocity": 0.47244094488188976,
          "duration": 0.19594575000002123
        },
        {
          "name": "A#3",
          "midi": 58,
          "time": 367.7023350000101,
          "velocity": 0.47244094488188976,
          "duration": 0.19594575000002123
        },
        {
          "name": "F#4",
          "midi": 66,
          "time": 367.7023350000101,
          "velocity": 0.47244094488188976,
          "duration": 0.19594575000002123
        },
        {
          "name": "F#2",
          "midi": 42,
          "time": 367.7023350000101,
          "velocity": 0.47244094488188976,
          "duration": 0.19594575000002123
        },
        {
          "name": "C#3",
          "midi": 49,
          "time": 367.7023350000101,
          "velocity": 0.47244094488188976,
          "duration": 0.19594575000002123
        },
        {
          "name": "C#4",
          "midi": 61,
          "time": 367.90503750001017,
          "velocity": 0.47244094488188976,
          "duration": 0.3986482500000079
        },
        {
          "name": "F#4",
          "midi": 66,
          "time": 367.90503750001017,
          "velocity": 0.47244094488188976,
          "duration": 0.3986482500000079
        },
        {
          "name": "F#3",
          "midi": 54,
          "time": 367.90503750001017,
          "velocity": 0.47244094488188976,
          "duration": 0.3986482500000079
        },
        {
          "name": "C#3",
          "midi": 49,
          "time": 367.90503750001017,
          "velocity": 0.47244094488188976,
          "duration": 0.3986482500000079
        },
        {
          "name": "A#3",
          "midi": 58,
          "time": 367.90503750001017,
          "velocity": 0.47244094488188976,
          "duration": 0.3986482500000079
        },
        {
          "name": "F#2",
          "midi": 42,
          "time": 367.90503750001017,
          "velocity": 0.47244094488188976,
          "duration": 0.3986482500000079
        },
        {
          "name": "C#4",
          "midi": 61,
          "time": 368.3104425000102,
          "velocity": 0.47244094488188976,
          "duration": 0.19594575000002123
        },
        {
          "name": "F#4",
          "midi": 66,
          "time": 368.3104425000102,
          "velocity": 0.47244094488188976,
          "duration": 0.19594575000002123
        },
        {
          "name": "F#2",
          "midi": 42,
          "time": 368.3104425000102,
          "velocity": 0.47244094488188976,
          "duration": 0.19594575000002123
        },
        {
          "name": "A#3",
          "midi": 58,
          "time": 368.3104425000102,
          "velocity": 0.47244094488188976,
          "duration": 0.19594575000002123
        },
        {
          "name": "C#3",
          "midi": 49,
          "time": 368.3104425000102,
          "velocity": 0.47244094488188976,
          "duration": 0.19594575000002123
        },
        {
          "name": "F#3",
          "midi": 54,
          "time": 368.3104425000102,
          "velocity": 0.47244094488188976,
          "duration": 0.19594575000002123
        },
        {
          "name": "A#3",
          "midi": 58,
          "time": 368.51314500001024,
          "velocity": 0.47244094488188976,
          "duration": 0.3986482500000079
        },
        {
          "name": "C#4",
          "midi": 61,
          "time": 368.51314500001024,
          "velocity": 0.47244094488188976,
          "duration": 0.3986482500000079
        },
        {
          "name": "F#3",
          "midi": 54,
          "time": 368.51314500001024,
          "velocity": 0.47244094488188976,
          "duration": 0.3986482500000079
        },
        {
          "name": "F#2",
          "midi": 42,
          "time": 368.51314500001024,
          "velocity": 0.47244094488188976,
          "duration": 0.3986482500000079
        },
        {
          "name": "C#3",
          "midi": 49,
          "time": 368.51314500001024,
          "velocity": 0.47244094488188976,
          "duration": 0.3986482500000079
        },
        {
          "name": "F#4",
          "midi": 66,
          "time": 368.51314500001024,
          "velocity": 0.47244094488188976,
          "duration": 0.3986482500000079
        },
        {
          "name": "F#4",
          "midi": 66,
          "time": 368.91855000001027,
          "velocity": 0.47244094488188976,
          "duration": 0.3986482500000079
        },
        {
          "name": "C#3",
          "midi": 49,
          "time": 368.91855000001027,
          "velocity": 0.47244094488188976,
          "duration": 0.3986482500000079
        },
        {
          "name": "C#4",
          "midi": 61,
          "time": 368.91855000001027,
          "velocity": 0.47244094488188976,
          "duration": 0.3986482500000079
        },
        {
          "name": "A#3",
          "midi": 58,
          "time": 368.91855000001027,
          "velocity": 0.47244094488188976,
          "duration": 0.3986482500000079
        },
        {
          "name": "F#3",
          "midi": 54,
          "time": 368.91855000001027,
          "velocity": 0.47244094488188976,
          "duration": 0.3986482500000079
        },
        {
          "name": "F#2",
          "midi": 42,
          "time": 368.91855000001027,
          "velocity": 0.47244094488188976,
          "duration": 0.3986482500000079
        },
        {
          "name": "C#3",
          "midi": 49,
          "time": 369.3239550000103,
          "velocity": 0.47244094488188976,
          "duration": 0.3986482500000079
        },
        {
          "name": "F#4",
          "midi": 66,
          "time": 369.3239550000103,
          "velocity": 0.47244094488188976,
          "duration": 0.3986482500000079
        },
        {
          "name": "C#4",
          "midi": 61,
          "time": 369.3239550000103,
          "velocity": 0.47244094488188976,
          "duration": 0.3986482500000079
        },
        {
          "name": "F#3",
          "midi": 54,
          "time": 369.3239550000103,
          "velocity": 0.47244094488188976,
          "duration": 0.3986482500000079
        },
        {
          "name": "A#3",
          "midi": 58,
          "time": 369.3239550000103,
          "velocity": 0.47244094488188976,
          "duration": 0.3986482500000079
        },
        {
          "name": "F#2",
          "midi": 42,
          "time": 369.3239550000103,
          "velocity": 0.47244094488188976,
          "duration": 0.3986482500000079
        },
        {
          "name": "A3",
          "midi": 57,
          "time": 369.72936000001033,
          "velocity": 0.47244094488188976,
          "duration": 0.19594575000002123
        },
        {
          "name": "C#4",
          "midi": 61,
          "time": 369.72936000001033,
          "velocity": 0.47244094488188976,
          "duration": 0.19594575000002123
        },
        {
          "name": "E3",
          "midi": 52,
          "time": 369.72936000001033,
          "velocity": 0.47244094488188976,
          "duration": 0.19594575000002123
        },
        {
          "name": "E2",
          "midi": 40,
          "time": 369.72936000001033,
          "velocity": 0.47244094488188976,
          "duration": 0.19594575000002123
        },
        {
          "name": "A2",
          "midi": 45,
          "time": 369.72936000001033,
          "velocity": 0.47244094488188976,
          "duration": 0.19594575000002123
        },
        {
          "name": "E4",
          "midi": 64,
          "time": 369.72936000001033,
          "velocity": 0.47244094488188976,
          "duration": 0.19594575000002123
        },
        {
          "name": "A2",
          "midi": 45,
          "time": 369.9320625000104,
          "velocity": 0.47244094488188976,
          "duration": 0.3986482500000079
        },
        {
          "name": "A3",
          "midi": 57,
          "time": 369.9320625000104,
          "velocity": 0.47244094488188976,
          "duration": 0.3986482500000079
        },
        {
          "name": "E2",
          "midi": 40,
          "time": 369.9320625000104,
          "velocity": 0.47244094488188976,
          "duration": 0.3986482500000079
        },
        {
          "name": "C#4",
          "midi": 61,
          "time": 369.9320625000104,
          "velocity": 0.47244094488188976,
          "duration": 0.3986482500000079
        },
        {
          "name": "E3",
          "midi": 52,
          "time": 369.9320625000104,
          "velocity": 0.47244094488188976,
          "duration": 0.3986482500000079
        },
        {
          "name": "E4",
          "midi": 64,
          "time": 369.9320625000104,
          "velocity": 0.47244094488188976,
          "duration": 0.3986482500000079
        },
        {
          "name": "E3",
          "midi": 52,
          "time": 370.3374675000104,
          "velocity": 0.47244094488188976,
          "duration": 0.19594575000002123
        },
        {
          "name": "E2",
          "midi": 40,
          "time": 370.3374675000104,
          "velocity": 0.47244094488188976,
          "duration": 0.19594575000002123
        },
        {
          "name": "A2",
          "midi": 45,
          "time": 370.3374675000104,
          "velocity": 0.47244094488188976,
          "duration": 0.19594575000002123
        },
        {
          "name": "C#4",
          "midi": 61,
          "time": 370.3374675000104,
          "velocity": 0.47244094488188976,
          "duration": 0.19594575000002123
        },
        {
          "name": "E4",
          "midi": 64,
          "time": 370.3374675000104,
          "velocity": 0.47244094488188976,
          "duration": 0.19594575000002123
        },
        {
          "name": "A3",
          "midi": 57,
          "time": 370.3374675000104,
          "velocity": 0.47244094488188976,
          "duration": 0.19594575000002123
        },
        {
          "name": "E4",
          "midi": 64,
          "time": 370.54017000001045,
          "velocity": 0.47244094488188976,
          "duration": 0.3986482500000079
        },
        {
          "name": "A2",
          "midi": 45,
          "time": 370.54017000001045,
          "velocity": 0.47244094488188976,
          "duration": 0.3986482500000079
        },
        {
          "name": "A3",
          "midi": 57,
          "time": 370.54017000001045,
          "velocity": 0.47244094488188976,
          "duration": 0.3986482500000079
        },
        {
          "name": "E3",
          "midi": 52,
          "time": 370.54017000001045,
          "velocity": 0.47244094488188976,
          "duration": 0.3986482500000079
        },
        {
          "name": "E2",
          "midi": 40,
          "time": 370.54017000001045,
          "velocity": 0.47244094488188976,
          "duration": 0.3986482500000079
        },
        {
          "name": "C#4",
          "midi": 61,
          "time": 370.54017000001045,
          "velocity": 0.47244094488188976,
          "duration": 0.3986482500000079
        },
        {
          "name": "E2",
          "midi": 40,
          "time": 370.9455750000105,
          "velocity": 0.47244094488188976,
          "duration": 0.19594575000002123
        },
        {
          "name": "A3",
          "midi": 57,
          "time": 370.9455750000105,
          "velocity": 0.47244094488188976,
          "duration": 0.19594575000002123
        },
        {
          "name": "E4",
          "midi": 64,
          "time": 370.9455750000105,
          "velocity": 0.47244094488188976,
          "duration": 0.19594575000002123
        },
        {
          "name": "E3",
          "midi": 52,
          "time": 370.9455750000105,
          "velocity": 0.47244094488188976,
          "duration": 0.19594575000002123
        },
        {
          "name": "C#4",
          "midi": 61,
          "time": 370.9455750000105,
          "velocity": 0.47244094488188976,
          "duration": 0.19594575000002123
        },
        {
          "name": "A2",
          "midi": 45,
          "time": 370.9455750000105,
          "velocity": 0.47244094488188976,
          "duration": 0.19594575000002123
        },
        {
          "name": "E2",
          "midi": 40,
          "time": 371.1482775000105,
          "velocity": 0.47244094488188976,
          "duration": 0.3986482500000079
        },
        {
          "name": "C#4",
          "midi": 61,
          "time": 371.1482775000105,
          "velocity": 0.47244094488188976,
          "duration": 0.3986482500000079
        },
        {
          "name": "A2",
          "midi": 45,
          "time": 371.1482775000105,
          "velocity": 0.47244094488188976,
          "duration": 0.3986482500000079
        },
        {
          "name": "E4",
          "midi": 64,
          "time": 371.1482775000105,
          "velocity": 0.47244094488188976,
          "duration": 0.3986482500000079
        },
        {
          "name": "E3",
          "midi": 52,
          "time": 371.1482775000105,
          "velocity": 0.47244094488188976,
          "duration": 0.3986482500000079
        },
        {
          "name": "A3",
          "midi": 57,
          "time": 371.1482775000105,
          "velocity": 0.47244094488188976,
          "duration": 0.3986482500000079
        },
        {
          "name": "E4",
          "midi": 64,
          "time": 371.55368250001055,
          "velocity": 0.47244094488188976,
          "duration": 0.19594575000002123
        },
        {
          "name": "A3",
          "midi": 57,
          "time": 371.55368250001055,
          "velocity": 0.47244094488188976,
          "duration": 0.19594575000002123
        },
        {
          "name": "E2",
          "midi": 40,
          "time": 371.55368250001055,
          "velocity": 0.47244094488188976,
          "duration": 0.19594575000002123
        },
        {
          "name": "E3",
          "midi": 52,
          "time": 371.55368250001055,
          "velocity": 0.47244094488188976,
          "duration": 0.19594575000002123
        },
        {
          "name": "A2",
          "midi": 45,
          "time": 371.55368250001055,
          "velocity": 0.47244094488188976,
          "duration": 0.19594575000002123
        },
        {
          "name": "C#4",
          "midi": 61,
          "time": 371.55368250001055,
          "velocity": 0.47244094488188976,
          "duration": 0.19594575000002123
        },
        {
          "name": "A3",
          "midi": 57,
          "time": 371.7563850000106,
          "velocity": 0.47244094488188976,
          "duration": 0.3986482500000079
        },
        {
          "name": "E3",
          "midi": 52,
          "time": 371.7563850000106,
          "velocity": 0.47244094488188976,
          "duration": 0.3986482500000079
        },
        {
          "name": "E2",
          "midi": 40,
          "time": 371.7563850000106,
          "velocity": 0.47244094488188976,
          "duration": 0.3986482500000079
        },
        {
          "name": "C#4",
          "midi": 61,
          "time": 371.7563850000106,
          "velocity": 0.47244094488188976,
          "duration": 0.3986482500000079
        },
        {
          "name": "A2",
          "midi": 45,
          "time": 371.7563850000106,
          "velocity": 0.47244094488188976,
          "duration": 0.3986482500000079
        },
        {
          "name": "E4",
          "midi": 64,
          "time": 371.7563850000106,
          "velocity": 0.47244094488188976,
          "duration": 0.3986482500000079
        },
        {
          "name": "A3",
          "midi": 57,
          "time": 372.1617900000106,
          "velocity": 0.47244094488188976,
          "duration": 0.3986482500000079
        },
        {
          "name": "E4",
          "midi": 64,
          "time": 372.1617900000106,
          "velocity": 0.47244094488188976,
          "duration": 0.3986482500000079
        },
        {
          "name": "E2",
          "midi": 40,
          "time": 372.1617900000106,
          "velocity": 0.47244094488188976,
          "duration": 0.3986482500000079
        },
        {
          "name": "C#4",
          "midi": 61,
          "time": 372.1617900000106,
          "velocity": 0.47244094488188976,
          "duration": 0.3986482500000079
        },
        {
          "name": "A2",
          "midi": 45,
          "time": 372.1617900000106,
          "velocity": 0.47244094488188976,
          "duration": 0.3986482500000079
        },
        {
          "name": "E3",
          "midi": 52,
          "time": 372.1617900000106,
          "velocity": 0.47244094488188976,
          "duration": 0.3986482500000079
        },
        {
          "name": "E3",
          "midi": 52,
          "time": 372.56719500001066,
          "velocity": 0.47244094488188976,
          "duration": 0.3986482500000079
        },
        {
          "name": "C#4",
          "midi": 61,
          "time": 372.56719500001066,
          "velocity": 0.47244094488188976,
          "duration": 0.3986482500000079
        },
        {
          "name": "A2",
          "midi": 45,
          "time": 372.56719500001066,
          "velocity": 0.47244094488188976,
          "duration": 0.3986482500000079
        },
        {
          "name": "E2",
          "midi": 40,
          "time": 372.56719500001066,
          "velocity": 0.47244094488188976,
          "duration": 0.3986482500000079
        },
        {
          "name": "A3",
          "midi": 57,
          "time": 372.56719500001066,
          "velocity": 0.47244094488188976,
          "duration": 0.3986482500000079
        },
        {
          "name": "E4",
          "midi": 64,
          "time": 372.56719500001066,
          "velocity": 0.47244094488188976,
          "duration": 0.3986482500000079
        },
        {
          "name": "E3",
          "midi": 52,
          "time": 372.9726000000107,
          "velocity": 0.47244094488188976,
          "duration": 0.19594575000002123
        },
        {
          "name": "E2",
          "midi": 40,
          "time": 372.9726000000107,
          "velocity": 0.47244094488188976,
          "duration": 0.19594575000002123
        },
        {
          "name": "B2",
          "midi": 47,
          "time": 372.9726000000107,
          "velocity": 0.47244094488188976,
          "duration": 0.19594575000002123
        },
        {
          "name": "E4",
          "midi": 64,
          "time": 372.9726000000107,
          "velocity": 0.47244094488188976,
          "duration": 0.19594575000002123
        },
        {
          "name": "B3",
          "midi": 59,
          "time": 372.9726000000107,
          "velocity": 0.47244094488188976,
          "duration": 0.19594575000002123
        },
        {
          "name": "G#3",
          "midi": 56,
          "time": 372.9726000000107,
          "velocity": 0.47244094488188976,
          "duration": 0.19594575000002123
        },
        {
          "name": "G#3",
          "midi": 56,
          "time": 373.17530250001073,
          "velocity": 0.47244094488188976,
          "duration": 0.3986482500000079
        },
        {
          "name": "E3",
          "midi": 52,
          "time": 373.17530250001073,
          "velocity": 0.47244094488188976,
          "duration": 0.3986482500000079
        },
        {
          "name": "E2",
          "midi": 40,
          "time": 373.17530250001073,
          "velocity": 0.47244094488188976,
          "duration": 0.3986482500000079
        },
        {
          "name": "B2",
          "midi": 47,
          "time": 373.17530250001073,
          "velocity": 0.47244094488188976,
          "duration": 0.3986482500000079
        },
        {
          "name": "B3",
          "midi": 59,
          "time": 373.17530250001073,
          "velocity": 0.47244094488188976,
          "duration": 0.3986482500000079
        },
        {
          "name": "E4",
          "midi": 64,
          "time": 373.17530250001073,
          "velocity": 0.47244094488188976,
          "duration": 0.3986482500000079
        },
        {
          "name": "G#3",
          "midi": 56,
          "time": 373.58070750001076,
          "velocity": 0.47244094488188976,
          "duration": 0.19594575000002123
        },
        {
          "name": "E3",
          "midi": 52,
          "time": 373.58070750001076,
          "velocity": 0.47244094488188976,
          "duration": 0.19594575000002123
        },
        {
          "name": "B2",
          "midi": 47,
          "time": 373.58070750001076,
          "velocity": 0.47244094488188976,
          "duration": 0.19594575000002123
        },
        {
          "name": "B3",
          "midi": 59,
          "time": 373.58070750001076,
          "velocity": 0.47244094488188976,
          "duration": 0.19594575000002123
        },
        {
          "name": "E2",
          "midi": 40,
          "time": 373.58070750001076,
          "velocity": 0.47244094488188976,
          "duration": 0.19594575000002123
        },
        {
          "name": "E4",
          "midi": 64,
          "time": 373.58070750001076,
          "velocity": 0.47244094488188976,
          "duration": 0.19594575000002123
        },
        {
          "name": "E2",
          "midi": 40,
          "time": 373.7834100000108,
          "velocity": 0.47244094488188976,
          "duration": 0.3986482500000079
        },
        {
          "name": "B3",
          "midi": 59,
          "time": 373.7834100000108,
          "velocity": 0.47244094488188976,
          "duration": 0.3986482500000079
        },
        {
          "name": "E4",
          "midi": 64,
          "time": 373.7834100000108,
          "velocity": 0.47244094488188976,
          "duration": 0.3986482500000079
        },
        {
          "name": "B2",
          "midi": 47,
          "time": 373.7834100000108,
          "velocity": 0.47244094488188976,
          "duration": 0.3986482500000079
        },
        {
          "name": "E3",
          "midi": 52,
          "time": 373.7834100000108,
          "velocity": 0.47244094488188976,
          "duration": 0.3986482500000079
        },
        {
          "name": "G#3",
          "midi": 56,
          "time": 373.7834100000108,
          "velocity": 0.47244094488188976,
          "duration": 0.3986482500000079
        },
        {
          "name": "E3",
          "midi": 52,
          "time": 374.18881500001083,
          "velocity": 0.47244094488188976,
          "duration": 0.19594575000002123
        },
        {
          "name": "B3",
          "midi": 59,
          "time": 374.18881500001083,
          "velocity": 0.47244094488188976,
          "duration": 0.19594575000002123
        },
        {
          "name": "G#3",
          "midi": 56,
          "time": 374.18881500001083,
          "velocity": 0.47244094488188976,
          "duration": 0.19594575000002123
        },
        {
          "name": "B2",
          "midi": 47,
          "time": 374.18881500001083,
          "velocity": 0.47244094488188976,
          "duration": 0.19594575000002123
        },
        {
          "name": "E4",
          "midi": 64,
          "time": 374.18881500001083,
          "velocity": 0.47244094488188976,
          "duration": 0.19594575000002123
        },
        {
          "name": "E2",
          "midi": 40,
          "time": 374.18881500001083,
          "velocity": 0.47244094488188976,
          "duration": 0.19594575000002123
        },
        {
          "name": "B2",
          "midi": 47,
          "time": 374.3915175000109,
          "velocity": 0.47244094488188976,
          "duration": 0.3986482500000079
        },
        {
          "name": "E2",
          "midi": 40,
          "time": 374.3915175000109,
          "velocity": 0.47244094488188976,
          "duration": 0.3986482500000079
        },
        {
          "name": "E3",
          "midi": 52,
          "time": 374.3915175000109,
          "velocity": 0.47244094488188976,
          "duration": 0.3986482500000079
        },
        {
          "name": "B3",
          "midi": 59,
          "time": 374.3915175000109,
          "velocity": 0.47244094488188976,
          "duration": 0.3986482500000079
        },
        {
          "name": "G#3",
          "midi": 56,
          "time": 374.3915175000109,
          "velocity": 0.47244094488188976,
          "duration": 0.3986482500000079
        },
        {
          "name": "E4",
          "midi": 64,
          "time": 374.3915175000109,
          "velocity": 0.47244094488188976,
          "duration": 0.3986482500000079
        },
        {
          "name": "E3",
          "midi": 52,
          "time": 374.7969225000109,
          "velocity": 0.47244094488188976,
          "duration": 0.19594575000002123
        },
        {
          "name": "B2",
          "midi": 47,
          "time": 374.7969225000109,
          "velocity": 0.47244094488188976,
          "duration": 0.19594575000002123
        },
        {
          "name": "B3",
          "midi": 59,
          "time": 374.7969225000109,
          "velocity": 0.47244094488188976,
          "duration": 0.19594575000002123
        },
        {
          "name": "E2",
          "midi": 40,
          "time": 374.7969225000109,
          "velocity": 0.47244094488188976,
          "duration": 0.19594575000002123
        },
        {
          "name": "E4",
          "midi": 64,
          "time": 374.7969225000109,
          "velocity": 0.47244094488188976,
          "duration": 0.19594575000002123
        },
        {
          "name": "G#3",
          "midi": 56,
          "time": 374.7969225000109,
          "velocity": 0.47244094488188976,
          "duration": 0.19594575000002123
        },
        {
          "name": "B3",
          "midi": 59,
          "time": 374.99962500001095,
          "velocity": 0.47244094488188976,
          "duration": 0.3986482500000079
        },
        {
          "name": "G#3",
          "midi": 56,
          "time": 374.99962500001095,
          "velocity": 0.47244094488188976,
          "duration": 0.3986482500000079
        },
        {
          "name": "E3",
          "midi": 52,
          "time": 374.99962500001095,
          "velocity": 0.47244094488188976,
          "duration": 0.3986482500000079
        },
        {
          "name": "E2",
          "midi": 40,
          "time": 374.99962500001095,
          "velocity": 0.47244094488188976,
          "duration": 0.3986482500000079
        },
        {
          "name": "E4",
          "midi": 64,
          "time": 374.99962500001095,
          "velocity": 0.47244094488188976,
          "duration": 0.3986482500000079
        },
        {
          "name": "B2",
          "midi": 47,
          "time": 374.99962500001095,
          "velocity": 0.47244094488188976,
          "duration": 0.3986482500000079
        },
        {
          "name": "G#3",
          "midi": 56,
          "time": 375.405030000011,
          "velocity": 0.47244094488188976,
          "duration": 0.3986482500000079
        },
        {
          "name": "E4",
          "midi": 64,
          "time": 375.405030000011,
          "velocity": 0.47244094488188976,
          "duration": 0.3986482500000079
        },
        {
          "name": "B3",
          "midi": 59,
          "time": 375.405030000011,
          "velocity": 0.47244094488188976,
          "duration": 0.3986482500000079
        },
        {
          "name": "B2",
          "midi": 47,
          "time": 375.405030000011,
          "velocity": 0.47244094488188976,
          "duration": 0.3986482500000079
        },
        {
          "name": "E2",
          "midi": 40,
          "time": 375.405030000011,
          "velocity": 0.47244094488188976,
          "duration": 0.3986482500000079
        },
        {
          "name": "E3",
          "midi": 52,
          "time": 375.405030000011,
          "velocity": 0.47244094488188976,
          "duration": 0.3986482500000079
        },
        {
          "name": "B2",
          "midi": 47,
          "time": 375.810435000011,
          "velocity": 0.47244094488188976,
          "duration": 0.3986482500000079
        },
        {
          "name": "E2",
          "midi": 40,
          "time": 375.810435000011,
          "velocity": 0.47244094488188976,
          "duration": 0.3986482500000079
        },
        {
          "name": "G#3",
          "midi": 56,
          "time": 375.810435000011,
          "velocity": 0.47244094488188976,
          "duration": 0.3986482500000079
        },
        {
          "name": "E4",
          "midi": 64,
          "time": 375.810435000011,
          "velocity": 0.47244094488188976,
          "duration": 0.3986482500000079
        },
        {
          "name": "E3",
          "midi": 52,
          "time": 375.810435000011,
          "velocity": 0.47244094488188976,
          "duration": 0.3986482500000079
        },
        {
          "name": "B3",
          "midi": 59,
          "time": 375.810435000011,
          "velocity": 0.47244094488188976,
          "duration": 0.3986482500000079
        },
        {
          "name": "D4",
          "midi": 62,
          "time": 376.21584000001104,
          "velocity": 0.47244094488188976,
          "duration": 0.19594575000002123
        },
        {
          "name": "B3",
          "midi": 59,
          "time": 376.21584000001104,
          "velocity": 0.47244094488188976,
          "duration": 0.19594575000002123
        },
        {
          "name": "G4",
          "midi": 67,
          "time": 376.21584000001104,
          "velocity": 0.47244094488188976,
          "duration": 0.19594575000002123
        },
        {
          "name": "G3",
          "midi": 55,
          "time": 376.21584000001104,
          "velocity": 0.47244094488188976,
          "duration": 0.19594575000002123
        },
        {
          "name": "B2",
          "midi": 47,
          "time": 376.21584000001104,
          "velocity": 0.47244094488188976,
          "duration": 0.19594575000002123
        },
        {
          "name": "G2",
          "midi": 43,
          "time": 376.21584000001104,
          "velocity": 0.47244094488188976,
          "duration": 0.19594575000002123
        },
        {
          "name": "G2",
          "midi": 43,
          "time": 376.4185425000111,
          "velocity": 0.47244094488188976,
          "duration": 0.3986482500000079
        },
        {
          "name": "B3",
          "midi": 59,
          "time": 376.4185425000111,
          "velocity": 0.47244094488188976,
          "duration": 0.3986482500000079
        },
        {
          "name": "D4",
          "midi": 62,
          "time": 376.4185425000111,
          "velocity": 0.47244094488188976,
          "duration": 0.3986482500000079
        },
        {
          "name": "G3",
          "midi": 55,
          "time": 376.4185425000111,
          "velocity": 0.47244094488188976,
          "duration": 0.3986482500000079
        },
        {
          "name": "B2",
          "midi": 47,
          "time": 376.4185425000111,
          "velocity": 0.47244094488188976,
          "duration": 0.3986482500000079
        },
        {
          "name": "G4",
          "midi": 67,
          "time": 376.4185425000111,
          "velocity": 0.47244094488188976,
          "duration": 0.3986482500000079
        },
        {
          "name": "G2",
          "midi": 43,
          "time": 376.8239475000111,
          "velocity": 0.47244094488188976,
          "duration": 0.19594575000002123
        },
        {
          "name": "G3",
          "midi": 55,
          "time": 376.8239475000111,
          "velocity": 0.47244094488188976,
          "duration": 0.19594575000002123
        },
        {
          "name": "B3",
          "midi": 59,
          "time": 376.8239475000111,
          "velocity": 0.47244094488188976,
          "duration": 0.19594575000002123
        },
        {
          "name": "G4",
          "midi": 67,
          "time": 376.8239475000111,
          "velocity": 0.47244094488188976,
          "duration": 0.19594575000002123
        },
        {
          "name": "B2",
          "midi": 47,
          "time": 376.8239475000111,
          "velocity": 0.47244094488188976,
          "duration": 0.19594575000002123
        },
        {
          "name": "D4",
          "midi": 62,
          "time": 376.8239475000111,
          "velocity": 0.47244094488188976,
          "duration": 0.19594575000002123
        },
        {
          "name": "D4",
          "midi": 62,
          "time": 377.02665000001116,
          "velocity": 0.47244094488188976,
          "duration": 0.3986482500000079
        },
        {
          "name": "B2",
          "midi": 47,
          "time": 377.02665000001116,
          "velocity": 0.47244094488188976,
          "duration": 0.3986482500000079
        },
        {
          "name": "G4",
          "midi": 67,
          "time": 377.02665000001116,
          "velocity": 0.47244094488188976,
          "duration": 0.3986482500000079
        },
        {
          "name": "B3",
          "midi": 59,
          "time": 377.02665000001116,
          "velocity": 0.47244094488188976,
          "duration": 0.3986482500000079
        },
        {
          "name": "G3",
          "midi": 55,
          "time": 377.02665000001116,
          "velocity": 0.47244094488188976,
          "duration": 0.3986482500000079
        },
        {
          "name": "G2",
          "midi": 43,
          "time": 377.02665000001116,
          "velocity": 0.47244094488188976,
          "duration": 0.3986482500000079
        },
        {
          "name": "G4",
          "midi": 67,
          "time": 377.4320550000112,
          "velocity": 0.47244094488188976,
          "duration": 0.19594575000002123
        },
        {
          "name": "G3",
          "midi": 55,
          "time": 377.4320550000112,
          "velocity": 0.47244094488188976,
          "duration": 0.19594575000002123
        },
        {
          "name": "B3",
          "midi": 59,
          "time": 377.4320550000112,
          "velocity": 0.47244094488188976,
          "duration": 0.19594575000002123
        },
        {
          "name": "G2",
          "midi": 43,
          "time": 377.4320550000112,
          "velocity": 0.47244094488188976,
          "duration": 0.19594575000002123
        },
        {
          "name": "D4",
          "midi": 62,
          "time": 377.4320550000112,
          "velocity": 0.47244094488188976,
          "duration": 0.19594575000002123
        },
        {
          "name": "B2",
          "midi": 47,
          "time": 377.4320550000112,
          "velocity": 0.47244094488188976,
          "duration": 0.19594575000002123
        },
        {
          "name": "G3",
          "midi": 55,
          "time": 377.63475750001123,
          "velocity": 0.47244094488188976,
          "duration": 0.3986482500000079
        },
        {
          "name": "B2",
          "midi": 47,
          "time": 377.63475750001123,
          "velocity": 0.47244094488188976,
          "duration": 0.3986482500000079
        },
        {
          "name": "D4",
          "midi": 62,
          "time": 377.63475750001123,
          "velocity": 0.47244094488188976,
          "duration": 0.3986482500000079
        },
        {
          "name": "G2",
          "midi": 43,
          "time": 377.63475750001123,
          "velocity": 0.47244094488188976,
          "duration": 0.3986482500000079
        },
        {
          "name": "G4",
          "midi": 67,
          "time": 377.63475750001123,
          "velocity": 0.47244094488188976,
          "duration": 0.3986482500000079
        },
        {
          "name": "B3",
          "midi": 59,
          "time": 377.63475750001123,
          "velocity": 0.47244094488188976,
          "duration": 0.3986482500000079
        },
        {
          "name": "G4",
          "midi": 67,
          "time": 378.04016250001126,
          "velocity": 0.47244094488188976,
          "duration": 0.19594575000002123
        },
        {
          "name": "G3",
          "midi": 55,
          "time": 378.04016250001126,
          "velocity": 0.47244094488188976,
          "duration": 0.19594575000002123
        },
        {
          "name": "B3",
          "midi": 59,
          "time": 378.04016250001126,
          "velocity": 0.47244094488188976,
          "duration": 0.19594575000002123
        },
        {
          "name": "G2",
          "midi": 43,
          "time": 378.04016250001126,
          "velocity": 0.47244094488188976,
          "duration": 0.19594575000002123
        },
        {
          "name": "D4",
          "midi": 62,
          "time": 378.04016250001126,
          "velocity": 0.47244094488188976,
          "duration": 0.19594575000002123
        },
        {
          "name": "B2",
          "midi": 47,
          "time": 378.04016250001126,
          "velocity": 0.47244094488188976,
          "duration": 0.19594575000002123
        },
        {
          "name": "D4",
          "midi": 62,
          "time": 378.2428650000113,
          "velocity": 0.47244094488188976,
          "duration": 0.3986482500000079
        },
        {
          "name": "B3",
          "midi": 59,
          "time": 378.2428650000113,
          "velocity": 0.47244094488188976,
          "duration": 0.3986482500000079
        },
        {
          "name": "G2",
          "midi": 43,
          "time": 378.2428650000113,
          "velocity": 0.47244094488188976,
          "duration": 0.3986482500000079
        },
        {
          "name": "G3",
          "midi": 55,
          "time": 378.2428650000113,
          "velocity": 0.47244094488188976,
          "duration": 0.3986482500000079
        },
        {
          "name": "G4",
          "midi": 67,
          "time": 378.2428650000113,
          "velocity": 0.47244094488188976,
          "duration": 0.3986482500000079
        },
        {
          "name": "B2",
          "midi": 47,
          "time": 378.2428650000113,
          "velocity": 0.47244094488188976,
          "duration": 0.3986482500000079
        },
        {
          "name": "B3",
          "midi": 59,
          "time": 378.64827000001134,
          "velocity": 0.47244094488188976,
          "duration": 0.3986482500000079
        },
        {
          "name": "D4",
          "midi": 62,
          "time": 378.64827000001134,
          "velocity": 0.47244094488188976,
          "duration": 0.3986482500000079
        },
        {
          "name": "B2",
          "midi": 47,
          "time": 378.64827000001134,
          "velocity": 0.47244094488188976,
          "duration": 0.3986482500000079
        },
        {
          "name": "G4",
          "midi": 67,
          "time": 378.64827000001134,
          "velocity": 0.47244094488188976,
          "duration": 0.3986482500000079
        },
        {
          "name": "G2",
          "midi": 43,
          "time": 378.64827000001134,
          "velocity": 0.47244094488188976,
          "duration": 0.3986482500000079
        },
        {
          "name": "G3",
          "midi": 55,
          "time": 378.64827000001134,
          "velocity": 0.47244094488188976,
          "duration": 0.3986482500000079
        },
        {
          "name": "B2",
          "midi": 47,
          "time": 379.05367500001137,
          "velocity": 0.47244094488188976,
          "duration": 0.3986482500000079
        },
        {
          "name": "G2",
          "midi": 43,
          "time": 379.05367500001137,
          "velocity": 0.47244094488188976,
          "duration": 0.3986482500000079
        },
        {
          "name": "B3",
          "midi": 59,
          "time": 379.05367500001137,
          "velocity": 0.47244094488188976,
          "duration": 0.3986482500000079
        },
        {
          "name": "G4",
          "midi": 67,
          "time": 379.05367500001137,
          "velocity": 0.47244094488188976,
          "duration": 0.3986482500000079
        },
        {
          "name": "G3",
          "midi": 55,
          "time": 379.05367500001137,
          "velocity": 0.47244094488188976,
          "duration": 0.3986482500000079
        },
        {
          "name": "D4",
          "midi": 62,
          "time": 379.05367500001137,
          "velocity": 0.47244094488188976,
          "duration": 0.3986482500000079
        },
        {
          "name": "F#4",
          "midi": 66,
          "time": 379.4590800000114,
          "velocity": 0.47244094488188976,
          "duration": 0.19594575000002123
        },
        {
          "name": "D4",
          "midi": 62,
          "time": 379.4590800000114,
          "velocity": 0.47244094488188976,
          "duration": 0.19594575000002123
        },
        {
          "name": "A3",
          "midi": 57,
          "time": 379.4590800000114,
          "velocity": 0.47244094488188976,
          "duration": 0.19594575000002123
        },
        {
          "name": "A2",
          "midi": 45,
          "time": 379.4590800000114,
          "velocity": 0.47244094488188976,
          "duration": 0.19594575000002123
        },
        {
          "name": "D3",
          "midi": 50,
          "time": 379.4590800000114,
          "velocity": 0.47244094488188976,
          "duration": 0.19594575000002123
        },
        {
          "name": "A4",
          "midi": 69,
          "time": 379.4590800000114,
          "velocity": 0.47244094488188976,
          "duration": 0.19594575000002123
        },
        {
          "name": "A2",
          "midi": 45,
          "time": 379.66178250001144,
          "velocity": 0.47244094488188976,
          "duration": 0.3986482500000079
        },
        {
          "name": "D3",
          "midi": 50,
          "time": 379.66178250001144,
          "velocity": 0.47244094488188976,
          "duration": 0.3986482500000079
        },
        {
          "name": "F#4",
          "midi": 66,
          "time": 379.66178250001144,
          "velocity": 0.47244094488188976,
          "duration": 0.3986482500000079
        },
        {
          "name": "A3",
          "midi": 57,
          "time": 379.66178250001144,
          "velocity": 0.47244094488188976,
          "duration": 0.3986482500000079
        },
        {
          "name": "A4",
          "midi": 69,
          "time": 379.66178250001144,
          "velocity": 0.47244094488188976,
          "duration": 0.3986482500000079
        },
        {
          "name": "D4",
          "midi": 62,
          "time": 379.66178250001144,
          "velocity": 0.47244094488188976,
          "duration": 0.3986482500000079
        },
        {
          "name": "D4",
          "midi": 62,
          "time": 380.06718750001147,
          "velocity": 0.47244094488188976,
          "duration": 0.19594575000002123
        },
        {
          "name": "D3",
          "midi": 50,
          "time": 380.06718750001147,
          "velocity": 0.47244094488188976,
          "duration": 0.19594575000002123
        },
        {
          "name": "A3",
          "midi": 57,
          "time": 380.06718750001147,
          "velocity": 0.47244094488188976,
          "duration": 0.19594575000002123
        },
        {
          "name": "A4",
          "midi": 69,
          "time": 380.06718750001147,
          "velocity": 0.47244094488188976,
          "duration": 0.19594575000002123
        },
        {
          "name": "F#4",
          "midi": 66,
          "time": 380.06718750001147,
          "velocity": 0.47244094488188976,
          "duration": 0.19594575000002123
        },
        {
          "name": "A2",
          "midi": 45,
          "time": 380.06718750001147,
          "velocity": 0.47244094488188976,
          "duration": 0.19594575000002123
        },
        {
          "name": "A2",
          "midi": 45,
          "time": 380.2698900000115,
          "velocity": 0.47244094488188976,
          "duration": 0.3986482500000079
        },
        {
          "name": "A3",
          "midi": 57,
          "time": 380.2698900000115,
          "velocity": 0.47244094488188976,
          "duration": 0.3986482500000079
        },
        {
          "name": "F#4",
          "midi": 66,
          "time": 380.2698900000115,
          "velocity": 0.47244094488188976,
          "duration": 0.3986482500000079
        },
        {
          "name": "D4",
          "midi": 62,
          "time": 380.2698900000115,
          "velocity": 0.47244094488188976,
          "duration": 0.3986482500000079
        },
        {
          "name": "A4",
          "midi": 69,
          "time": 380.2698900000115,
          "velocity": 0.47244094488188976,
          "duration": 0.3986482500000079
        },
        {
          "name": "D3",
          "midi": 50,
          "time": 380.2698900000115,
          "velocity": 0.47244094488188976,
          "duration": 0.3986482500000079
        },
        {
          "name": "A2",
          "midi": 45,
          "time": 380.67529500001154,
          "velocity": 0.47244094488188976,
          "duration": 0.19594575000002123
        },
        {
          "name": "A3",
          "midi": 57,
          "time": 380.67529500001154,
          "velocity": 0.47244094488188976,
          "duration": 0.19594575000002123
        },
        {
          "name": "D4",
          "midi": 62,
          "time": 380.67529500001154,
          "velocity": 0.47244094488188976,
          "duration": 0.19594575000002123
        },
        {
          "name": "D3",
          "midi": 50,
          "time": 380.67529500001154,
          "velocity": 0.47244094488188976,
          "duration": 0.19594575000002123
        },
        {
          "name": "A4",
          "midi": 69,
          "time": 380.67529500001154,
          "velocity": 0.47244094488188976,
          "duration": 0.19594575000002123
        },
        {
          "name": "F#4",
          "midi": 66,
          "time": 380.67529500001154,
          "velocity": 0.47244094488188976,
          "duration": 0.19594575000002123
        },
        {
          "name": "A4",
          "midi": 69,
          "time": 380.8779975000116,
          "velocity": 0.47244094488188976,
          "duration": 0.3986482500000079
        },
        {
          "name": "F#4",
          "midi": 66,
          "time": 380.8779975000116,
          "velocity": 0.47244094488188976,
          "duration": 0.3986482500000079
        },
        {
          "name": "D4",
          "midi": 62,
          "time": 380.8779975000116,
          "velocity": 0.47244094488188976,
          "duration": 0.3986482500000079
        },
        {
          "name": "D3",
          "midi": 50,
          "time": 380.8779975000116,
          "velocity": 0.47244094488188976,
          "duration": 0.3986482500000079
        },
        {
          "name": "A2",
          "midi": 45,
          "time": 380.8779975000116,
          "velocity": 0.47244094488188976,
          "duration": 0.3986482500000079
        },
        {
          "name": "A3",
          "midi": 57,
          "time": 380.8779975000116,
          "velocity": 0.47244094488188976,
          "duration": 0.3986482500000079
        },
        {
          "name": "D3",
          "midi": 50,
          "time": 381.2834025000116,
          "velocity": 0.47244094488188976,
          "duration": 0.19594575000002123
        },
        {
          "name": "F#4",
          "midi": 66,
          "time": 381.2834025000116,
          "velocity": 0.47244094488188976,
          "duration": 0.19594575000002123
        },
        {
          "name": "A4",
          "midi": 69,
          "time": 381.2834025000116,
          "velocity": 0.47244094488188976,
          "duration": 0.19594575000002123
        },
        {
          "name": "A3",
          "midi": 57,
          "time": 381.2834025000116,
          "velocity": 0.47244094488188976,
          "duration": 0.19594575000002123
        },
        {
          "name": "D4",
          "midi": 62,
          "time": 381.2834025000116,
          "velocity": 0.47244094488188976,
          "duration": 0.19594575000002123
        },
        {
          "name": "A2",
          "midi": 45,
          "time": 381.2834025000116,
          "velocity": 0.47244094488188976,
          "duration": 0.19594575000002123
        },
        {
          "name": "D3",
          "midi": 50,
          "time": 381.48610500001166,
          "velocity": 0.47244094488188976,
          "duration": 0.3986482500000079
        },
        {
          "name": "D4",
          "midi": 62,
          "time": 381.48610500001166,
          "velocity": 0.47244094488188976,
          "duration": 0.3986482500000079
        },
        {
          "name": "A4",
          "midi": 69,
          "time": 381.48610500001166,
          "velocity": 0.47244094488188976,
          "duration": 0.3986482500000079
        },
        {
          "name": "A2",
          "midi": 45,
          "time": 381.48610500001166,
          "velocity": 0.47244094488188976,
          "duration": 0.3986482500000079
        },
        {
          "name": "A3",
          "midi": 57,
          "time": 381.48610500001166,
          "velocity": 0.47244094488188976,
          "duration": 0.3986482500000079
        },
        {
          "name": "F#4",
          "midi": 66,
          "time": 381.48610500001166,
          "velocity": 0.47244094488188976,
          "duration": 0.3986482500000079
        },
        {
          "name": "D3",
          "midi": 50,
          "time": 381.8915100000117,
          "velocity": 0.47244094488188976,
          "duration": 0.3986482500000079
        },
        {
          "name": "F#4",
          "midi": 66,
          "time": 381.8915100000117,
          "velocity": 0.47244094488188976,
          "duration": 0.3986482500000079
        },
        {
          "name": "A4",
          "midi": 69,
          "time": 381.8915100000117,
          "velocity": 0.47244094488188976,
          "duration": 0.3986482500000079
        },
        {
          "name": "D4",
          "midi": 62,
          "time": 381.8915100000117,
          "velocity": 0.47244094488188976,
          "duration": 0.3986482500000079
        },
        {
          "name": "A2",
          "midi": 45,
          "time": 381.8915100000117,
          "velocity": 0.47244094488188976,
          "duration": 0.3986482500000079
        },
        {
          "name": "A3",
          "midi": 57,
          "time": 381.8915100000117,
          "velocity": 0.47244094488188976,
          "duration": 0.3986482500000079
        },
        {
          "name": "A4",
          "midi": 69,
          "time": 382.2969150000117,
          "velocity": 0.47244094488188976,
          "duration": 0.3986482500000079
        },
        {
          "name": "D3",
          "midi": 50,
          "time": 382.2969150000117,
          "velocity": 0.47244094488188976,
          "duration": 0.3986482500000079
        },
        {
          "name": "F#4",
          "midi": 66,
          "time": 382.2969150000117,
          "velocity": 0.47244094488188976,
          "duration": 0.3986482500000079
        },
        {
          "name": "A2",
          "midi": 45,
          "time": 382.2969150000117,
          "velocity": 0.47244094488188976,
          "duration": 0.3986482500000079
        },
        {
          "name": "D4",
          "midi": 62,
          "time": 382.2969150000117,
          "velocity": 0.47244094488188976,
          "duration": 0.3986482500000079
        },
        {
          "name": "A3",
          "midi": 57,
          "time": 382.2969150000117,
          "velocity": 0.47244094488188976,
          "duration": 0.3986482500000079
        },
        {
          "name": "B3",
          "midi": 59,
          "time": 382.70232000001175,
          "velocity": 0.47244094488188976,
          "duration": 0.19594575000002123
        },
        {
          "name": "G3",
          "midi": 55,
          "time": 382.70232000001175,
          "velocity": 0.47244094488188976,
          "duration": 0.19594575000002123
        },
        {
          "name": "E2",
          "midi": 40,
          "time": 382.70232000001175,
          "velocity": 0.47244094488188976,
          "duration": 0.19594575000002123
        },
        {
          "name": "A2",
          "midi": 45,
          "time": 382.70232000001175,
          "velocity": 0.47244094488188976,
          "duration": 0.19594575000002123
        },
        {
          "name": "E4",
          "midi": 64,
          "time": 382.70232000001175,
          "velocity": 0.47244094488188976,
          "duration": 0.19594575000002123
        },
        {
          "name": "E3",
          "midi": 52,
          "time": 382.70232000001175,
          "velocity": 0.47244094488188976,
          "duration": 0.19594575000002123
        },
        {
          "name": "A2",
          "midi": 45,
          "time": 382.9050225000118,
          "velocity": 0.47244094488188976,
          "duration": 0.3986482500000079
        },
        {
          "name": "G3",
          "midi": 55,
          "time": 382.9050225000118,
          "velocity": 0.47244094488188976,
          "duration": 0.3986482500000079
        },
        {
          "name": "E2",
          "midi": 40,
          "time": 382.9050225000118,
          "velocity": 0.47244094488188976,
          "duration": 0.3986482500000079
        },
        {
          "name": "B3",
          "midi": 59,
          "time": 382.9050225000118,
          "velocity": 0.47244094488188976,
          "duration": 0.3986482500000079
        },
        {
          "name": "E4",
          "midi": 64,
          "time": 382.9050225000118,
          "velocity": 0.47244094488188976,
          "duration": 0.3986482500000079
        },
        {
          "name": "E3",
          "midi": 52,
          "time": 382.9050225000118,
          "velocity": 0.47244094488188976,
          "duration": 0.3986482500000079
        },
        {
          "name": "A2",
          "midi": 45,
          "time": 383.3104275000118,
          "velocity": 0.47244094488188976,
          "duration": 0.19594575000002123
        },
        {
          "name": "E3",
          "midi": 52,
          "time": 383.3104275000118,
          "velocity": 0.47244094488188976,
          "duration": 0.19594575000002123
        },
        {
          "name": "E2",
          "midi": 40,
          "time": 383.3104275000118,
          "velocity": 0.47244094488188976,
          "duration": 0.19594575000002123
        },
        {
          "name": "G3",
          "midi": 55,
          "time": 383.3104275000118,
          "velocity": 0.47244094488188976,
          "duration": 0.19594575000002123
        },
        {
          "name": "E4",
          "midi": 64,
          "time": 383.3104275000118,
          "velocity": 0.47244094488188976,
          "duration": 0.19594575000002123
        },
        {
          "name": "B3",
          "midi": 59,
          "time": 383.3104275000118,
          "velocity": 0.47244094488188976,
          "duration": 0.19594575000002123
        },
        {
          "name": "B3",
          "midi": 59,
          "time": 383.51313000001187,
          "velocity": 0.47244094488188976,
          "duration": 0.3986482500000079
        },
        {
          "name": "E4",
          "midi": 64,
          "time": 383.51313000001187,
          "velocity": 0.47244094488188976,
          "duration": 0.3986482500000079
        },
        {
          "name": "E3",
          "midi": 52,
          "time": 383.51313000001187,
          "velocity": 0.47244094488188976,
          "duration": 0.3986482500000079
        },
        {
          "name": "E2",
          "midi": 40,
          "time": 383.51313000001187,
          "velocity": 0.47244094488188976,
          "duration": 0.3986482500000079
        },
        {
          "name": "G3",
          "midi": 55,
          "time": 383.51313000001187,
          "velocity": 0.47244094488188976,
          "duration": 0.3986482500000079
        },
        {
          "name": "A2",
          "midi": 45,
          "time": 383.51313000001187,
          "velocity": 0.47244094488188976,
          "duration": 0.3986482500000079
        },
        {
          "name": "A2",
          "midi": 45,
          "time": 383.9185350000119,
          "velocity": 0.47244094488188976,
          "duration": 0.19594575000002123
        },
        {
          "name": "G3",
          "midi": 55,
          "time": 383.9185350000119,
          "velocity": 0.47244094488188976,
          "duration": 0.19594575000002123
        },
        {
          "name": "E4",
          "midi": 64,
          "time": 383.9185350000119,
          "velocity": 0.47244094488188976,
          "duration": 0.19594575000002123
        },
        {
          "name": "E3",
          "midi": 52,
          "time": 383.9185350000119,
          "velocity": 0.47244094488188976,
          "duration": 0.19594575000002123
        },
        {
          "name": "E2",
          "midi": 40,
          "time": 383.9185350000119,
          "velocity": 0.47244094488188976,
          "duration": 0.19594575000002123
        },
        {
          "name": "B3",
          "midi": 59,
          "time": 383.9185350000119,
          "velocity": 0.47244094488188976,
          "duration": 0.19594575000002123
        },
        {
          "name": "A2",
          "midi": 45,
          "time": 384.12123750001194,
          "velocity": 0.47244094488188976,
          "duration": 0.3986482500000079
        },
        {
          "name": "E2",
          "midi": 40,
          "time": 384.12123750001194,
          "velocity": 0.47244094488188976,
          "duration": 0.3986482500000079
        },
        {
          "name": "E4",
          "midi": 64,
          "time": 384.12123750001194,
          "velocity": 0.47244094488188976,
          "duration": 0.3986482500000079
        },
        {
          "name": "B3",
          "midi": 59,
          "time": 384.12123750001194,
          "velocity": 0.47244094488188976,
          "duration": 0.3986482500000079
        },
        {
          "name": "E3",
          "midi": 52,
          "time": 384.12123750001194,
          "velocity": 0.47244094488188976,
          "duration": 0.3986482500000079
        },
        {
          "name": "G3",
          "midi": 55,
          "time": 384.12123750001194,
          "velocity": 0.47244094488188976,
          "duration": 0.3986482500000079
        },
        {
          "name": "A2",
          "midi": 45,
          "time": 384.526642500012,
          "velocity": 0.47244094488188976,
          "duration": 0.19594575000002123
        },
        {
          "name": "G3",
          "midi": 55,
          "time": 384.526642500012,
          "velocity": 0.47244094488188976,
          "duration": 0.19594575000002123
        },
        {
          "name": "E4",
          "midi": 64,
          "time": 384.526642500012,
          "velocity": 0.47244094488188976,
          "duration": 0.19594575000002123
        },
        {
          "name": "B3",
          "midi": 59,
          "time": 384.526642500012,
          "velocity": 0.47244094488188976,
          "duration": 0.19594575000002123
        },
        {
          "name": "E2",
          "midi": 40,
          "time": 384.526642500012,
          "velocity": 0.47244094488188976,
          "duration": 0.19594575000002123
        },
        {
          "name": "E3",
          "midi": 52,
          "time": 384.526642500012,
          "velocity": 0.47244094488188976,
          "duration": 0.19594575000002123
        },
        {
          "name": "G3",
          "midi": 55,
          "time": 384.729345000012,
          "velocity": 0.47244094488188976,
          "duration": 0.3986482500000079
        },
        {
          "name": "E2",
          "midi": 40,
          "time": 384.729345000012,
          "velocity": 0.47244094488188976,
          "duration": 0.3986482500000079
        },
        {
          "name": "E3",
          "midi": 52,
          "time": 384.729345000012,
          "velocity": 0.47244094488188976,
          "duration": 0.3986482500000079
        },
        {
          "name": "E4",
          "midi": 64,
          "time": 384.729345000012,
          "velocity": 0.47244094488188976,
          "duration": 0.3986482500000079
        },
        {
          "name": "B3",
          "midi": 59,
          "time": 384.729345000012,
          "velocity": 0.47244094488188976,
          "duration": 0.3986482500000079
        },
        {
          "name": "A2",
          "midi": 45,
          "time": 384.729345000012,
          "velocity": 0.47244094488188976,
          "duration": 0.3986482500000079
        },
        {
          "name": "A2",
          "midi": 45,
          "time": 385.13475000001205,
          "velocity": 0.47244094488188976,
          "duration": 0.3986482500000079
        },
        {
          "name": "E4",
          "midi": 64,
          "time": 385.13475000001205,
          "velocity": 0.47244094488188976,
          "duration": 0.3986482500000079
        },
        {
          "name": "E2",
          "midi": 40,
          "time": 385.13475000001205,
          "velocity": 0.47244094488188976,
          "duration": 0.3986482500000079
        },
        {
          "name": "G3",
          "midi": 55,
          "time": 385.13475000001205,
          "velocity": 0.47244094488188976,
          "duration": 0.3986482500000079
        },
        {
          "name": "B3",
          "midi": 59,
          "time": 385.13475000001205,
          "velocity": 0.47244094488188976,
          "duration": 0.3986482500000079
        },
        {
          "name": "E3",
          "midi": 52,
          "time": 385.13475000001205,
          "velocity": 0.47244094488188976,
          "duration": 0.3986482500000079
        },
        {
          "name": "G3",
          "midi": 55,
          "time": 385.5401550000121,
          "velocity": 0.47244094488188976,
          "duration": 0.3986482500000079
        },
        {
          "name": "E2",
          "midi": 40,
          "time": 385.5401550000121,
          "velocity": 0.47244094488188976,
          "duration": 0.3986482500000079
        },
        {
          "name": "A2",
          "midi": 45,
          "time": 385.5401550000121,
          "velocity": 0.47244094488188976,
          "duration": 0.3986482500000079
        },
        {
          "name": "B3",
          "midi": 59,
          "time": 385.5401550000121,
          "velocity": 0.47244094488188976,
          "duration": 0.3986482500000079
        },
        {
          "name": "E3",
          "midi": 52,
          "time": 385.5401550000121,
          "velocity": 0.47244094488188976,
          "duration": 0.3986482500000079
        },
        {
          "name": "E4",
          "midi": 64,
          "time": 385.5401550000121,
          "velocity": 0.47244094488188976,
          "duration": 0.3986482500000079
        },
        {
          "name": "A#3",
          "midi": 58,
          "time": 385.9455600000121,
          "velocity": 0.47244094488188976,
          "duration": 0.19594575000002123
        },
        {
          "name": "C#4",
          "midi": 61,
          "time": 385.9455600000121,
          "velocity": 0.47244094488188976,
          "duration": 0.19594575000002123
        },
        {
          "name": "C#3",
          "midi": 49,
          "time": 385.9455600000121,
          "velocity": 0.47244094488188976,
          "duration": 0.19594575000002123
        },
        {
          "name": "F#4",
          "midi": 66,
          "time": 385.9455600000121,
          "velocity": 0.47244094488188976,
          "duration": 0.19594575000002123
        },
        {
          "name": "F#3",
          "midi": 54,
          "time": 385.9455600000121,
          "velocity": 0.47244094488188976,
          "duration": 0.19594575000002123
        },
        {
          "name": "F#2",
          "midi": 42,
          "time": 385.9455600000121,
          "velocity": 0.47244094488188976,
          "duration": 0.19594575000002123
        },
        {
          "name": "F#4",
          "midi": 66,
          "time": 386.14826250001215,
          "velocity": 0.47244094488188976,
          "duration": 0.3986482500000079
        },
        {
          "name": "F#3",
          "midi": 54,
          "time": 386.14826250001215,
          "velocity": 0.47244094488188976,
          "duration": 0.3986482500000079
        },
        {
          "name": "A#3",
          "midi": 58,
          "time": 386.14826250001215,
          "velocity": 0.47244094488188976,
          "duration": 0.3986482500000079
        },
        {
          "name": "F#2",
          "midi": 42,
          "time": 386.14826250001215,
          "velocity": 0.47244094488188976,
          "duration": 0.3986482500000079
        },
        {
          "name": "C#3",
          "midi": 49,
          "time": 386.14826250001215,
          "velocity": 0.47244094488188976,
          "duration": 0.3986482500000079
        },
        {
          "name": "C#4",
          "midi": 61,
          "time": 386.14826250001215,
          "velocity": 0.47244094488188976,
          "duration": 0.3986482500000079
        },
        {
          "name": "F#4",
          "midi": 66,
          "time": 386.5536675000122,
          "velocity": 0.47244094488188976,
          "duration": 0.19594575000002123
        },
        {
          "name": "A#3",
          "midi": 58,
          "time": 386.5536675000122,
          "velocity": 0.47244094488188976,
          "duration": 0.19594575000002123
        },
        {
          "name": "C#3",
          "midi": 49,
          "time": 386.5536675000122,
          "velocity": 0.47244094488188976,
          "duration": 0.19594575000002123
        },
        {
          "name": "F#3",
          "midi": 54,
          "time": 386.5536675000122,
          "velocity": 0.47244094488188976,
          "duration": 0.19594575000002123
        },
        {
          "name": "F#2",
          "midi": 42,
          "time": 386.5536675000122,
          "velocity": 0.47244094488188976,
          "duration": 0.19594575000002123
        },
        {
          "name": "C#4",
          "midi": 61,
          "time": 386.5536675000122,
          "velocity": 0.47244094488188976,
          "duration": 0.19594575000002123
        },
        {
          "name": "F#2",
          "midi": 42,
          "time": 386.7563700000122,
          "velocity": 0.47244094488188976,
          "duration": 0.3986482500000079
        },
        {
          "name": "C#4",
          "midi": 61,
          "time": 386.7563700000122,
          "velocity": 0.47244094488188976,
          "duration": 0.3986482500000079
        },
        {
          "name": "F#3",
          "midi": 54,
          "time": 386.7563700000122,
          "velocity": 0.47244094488188976,
          "duration": 0.3986482500000079
        },
        {
          "name": "C#3",
          "midi": 49,
          "time": 386.7563700000122,
          "velocity": 0.47244094488188976,
          "duration": 0.3986482500000079
        },
        {
          "name": "A#3",
          "midi": 58,
          "time": 386.7563700000122,
          "velocity": 0.47244094488188976,
          "duration": 0.3986482500000079
        },
        {
          "name": "F#4",
          "midi": 66,
          "time": 386.7563700000122,
          "velocity": 0.47244094488188976,
          "duration": 0.3986482500000079
        },
        {
          "name": "F#2",
          "midi": 42,
          "time": 387.16177500001226,
          "velocity": 0.47244094488188976,
          "duration": 0.19594575000002123
        },
        {
          "name": "F#3",
          "midi": 54,
          "time": 387.16177500001226,
          "velocity": 0.47244094488188976,
          "duration": 0.19594575000002123
        },
        {
          "name": "A#3",
          "midi": 58,
          "time": 387.16177500001226,
          "velocity": 0.47244094488188976,
          "duration": 0.19594575000002123
        },
        {
          "name": "C#3",
          "midi": 49,
          "time": 387.16177500001226,
          "velocity": 0.47244094488188976,
          "duration": 0.19594575000002123
        },
        {
          "name": "F#4",
          "midi": 66,
          "time": 387.16177500001226,
          "velocity": 0.47244094488188976,
          "duration": 0.19594575000002123
        },
        {
          "name": "C#4",
          "midi": 61,
          "time": 387.16177500001226,
          "velocity": 0.47244094488188976,
          "duration": 0.19594575000002123
        },
        {
          "name": "F#4",
          "midi": 66,
          "time": 387.3644775000123,
          "velocity": 0.47244094488188976,
          "duration": 0.3986482500000079
        },
        {
          "name": "A#3",
          "midi": 58,
          "time": 387.3644775000123,
          "velocity": 0.47244094488188976,
          "duration": 0.3986482500000079
        },
        {
          "name": "C#3",
          "midi": 49,
          "time": 387.3644775000123,
          "velocity": 0.47244094488188976,
          "duration": 0.3986482500000079
        },
        {
          "name": "F#2",
          "midi": 42,
          "time": 387.3644775000123,
          "velocity": 0.47244094488188976,
          "duration": 0.3986482500000079
        },
        {
          "name": "F#3",
          "midi": 54,
          "time": 387.3644775000123,
          "velocity": 0.47244094488188976,
          "duration": 0.3986482500000079
        },
        {
          "name": "C#4",
          "midi": 61,
          "time": 387.3644775000123,
          "velocity": 0.47244094488188976,
          "duration": 0.3986482500000079
        },
        {
          "name": "F#3",
          "midi": 54,
          "time": 387.76988250001233,
          "velocity": 0.47244094488188976,
          "duration": 0.19594575000002123
        },
        {
          "name": "F#4",
          "midi": 66,
          "time": 387.76988250001233,
          "velocity": 0.47244094488188976,
          "duration": 0.19594575000002123
        },
        {
          "name": "F#2",
          "midi": 42,
          "time": 387.76988250001233,
          "velocity": 0.47244094488188976,
          "duration": 0.19594575000002123
        },
        {
          "name": "C#3",
          "midi": 49,
          "time": 387.76988250001233,
          "velocity": 0.47244094488188976,
          "duration": 0.19594575000002123
        },
        {
          "name": "C#4",
          "midi": 61,
          "time": 387.76988250001233,
          "velocity": 0.47244094488188976,
          "duration": 0.19594575000002123
        },
        {
          "name": "A#3",
          "midi": 58,
          "time": 387.76988250001233,
          "velocity": 0.47244094488188976,
          "duration": 0.19594575000002123
        },
        {
          "name": "C#3",
          "midi": 49,
          "time": 387.9725850000124,
          "velocity": 0.47244094488188976,
          "duration": 0.3986482500000079
        },
        {
          "name": "C#4",
          "midi": 61,
          "time": 387.9725850000124,
          "velocity": 0.47244094488188976,
          "duration": 0.3986482500000079
        },
        {
          "name": "F#3",
          "midi": 54,
          "time": 387.9725850000124,
          "velocity": 0.47244094488188976,
          "duration": 0.3986482500000079
        },
        {
          "name": "A#3",
          "midi": 58,
          "time": 387.9725850000124,
          "velocity": 0.47244094488188976,
          "duration": 0.3986482500000079
        },
        {
          "name": "F#4",
          "midi": 66,
          "time": 387.9725850000124,
          "velocity": 0.47244094488188976,
          "duration": 0.3986482500000079
        },
        {
          "name": "F#2",
          "midi": 42,
          "time": 387.9725850000124,
          "velocity": 0.47244094488188976,
          "duration": 0.3986482500000079
        },
        {
          "name": "F#4",
          "midi": 66,
          "time": 388.3779900000124,
          "velocity": 0.47244094488188976,
          "duration": 0.3986482500000079
        },
        {
          "name": "A#3",
          "midi": 58,
          "time": 388.3779900000124,
          "velocity": 0.47244094488188976,
          "duration": 0.3986482500000079
        },
        {
          "name": "F#2",
          "midi": 42,
          "time": 388.3779900000124,
          "velocity": 0.47244094488188976,
          "duration": 0.3986482500000079
        },
        {
          "name": "F#3",
          "midi": 54,
          "time": 388.3779900000124,
          "velocity": 0.47244094488188976,
          "duration": 0.3986482500000079
        },
        {
          "name": "C#3",
          "midi": 49,
          "time": 388.3779900000124,
          "velocity": 0.47244094488188976,
          "duration": 0.3986482500000079
        },
        {
          "name": "C#4",
          "midi": 61,
          "time": 388.3779900000124,
          "velocity": 0.47244094488188976,
          "duration": 0.3986482500000079
        },
        {
          "name": "C#3",
          "midi": 49,
          "time": 388.78339500001243,
          "velocity": 0.47244094488188976,
          "duration": 0.3986482500000079
        },
        {
          "name": "F#4",
          "midi": 66,
          "time": 388.78339500001243,
          "velocity": 0.47244094488188976,
          "duration": 0.3986482500000079
        },
        {
          "name": "C#4",
          "midi": 61,
          "time": 388.78339500001243,
          "velocity": 0.47244094488188976,
          "duration": 0.3986482500000079
        },
        {
          "name": "F#2",
          "midi": 42,
          "time": 388.78339500001243,
          "velocity": 0.47244094488188976,
          "duration": 0.3986482500000079
        },
        {
          "name": "A#3",
          "midi": 58,
          "time": 388.78339500001243,
          "velocity": 0.47244094488188976,
          "duration": 0.3986482500000079
        },
        {
          "name": "F#3",
          "midi": 54,
          "time": 388.78339500001243,
          "velocity": 0.47244094488188976,
          "duration": 0.3986482500000079
        }
      ],
      "controlChanges": {
        "7": [
          {
            "number": 7,
            "time": 0,
            "value": 0.7086614173228346
          },
          {
            "number": 7,
            "time": 51.89184000000002,
            "value": 0.6299212598425197
          },
          {
            "number": 7,
            "time": 103.7836799999996,
            "value": 0.7086614173228346
          },
          {
            "number": 7,
            "time": 129.7295999999995,
            "value": 0.6299212598425197
          },
          {
            "number": 7,
            "time": 181.62143999999836,
            "value": 0.7086614173228346
          },
          {
            "number": 7,
            "time": 364.05369000000974,
            "value": 0.7086614173228346
          },
          {
            "number": 7,
            "time": 364.8645000000098,
            "value": 0.6850393700787402
          },
          {
            "number": 7,
            "time": 365.6753100000099,
            "value": 0.6614173228346457
          },
          {
            "number": 7,
            "time": 366.48612000001,
            "value": 0.6377952755905512
          },
          {
            "number": 7,
            "time": 367.2969300000101,
            "value": 0.6141732283464567
          },
          {
            "number": 7,
            "time": 368.10774000001015,
            "value": 0.5905511811023622
          },
          {
            "number": 7,
            "time": 368.91855000001027,
            "value": 0.5669291338582677
          },
          {
            "number": 7,
            "time": 369.72936000001033,
            "value": 0.5433070866141733
          },
          {
            "number": 7,
            "time": 370.54017000001045,
            "value": 0.5196850393700787
          },
          {
            "number": 7,
            "time": 371.3509800000105,
            "value": 0.49606299212598426
          },
          {
            "number": 7,
            "time": 372.1617900000106,
            "value": 0.47244094488188976
          },
          {
            "number": 7,
            "time": 372.9726000000107,
            "value": 0.44881889763779526
          },
          {
            "number": 7,
            "time": 373.7834100000108,
            "value": 0.4251968503937008
          },
          {
            "number": 7,
            "time": 374.59422000001086,
            "value": 0.4015748031496063
          },
          {
            "number": 7,
            "time": 375.405030000011,
            "value": 0.3779527559055118
          },
          {
            "number": 7,
            "time": 376.21584000001104,
            "value": 0.3543307086614173
          },
          {
            "number": 7,
            "time": 377.02665000001116,
            "value": 0.33070866141732286
          },
          {
            "number": 7,
            "time": 377.8374600000112,
            "value": 0.30708661417322836
          },
          {
            "number": 7,
            "time": 378.64827000001134,
            "value": 0.28346456692913385
          },
          {
            "number": 7,
            "time": 379.4590800000114,
            "value": 0.25984251968503935
          },
          {
            "number": 7,
            "time": 380.2698900000115,
            "value": 0.23622047244094488
          },
          {
            "number": 7,
            "time": 381.0807000000116,
            "value": 0.2125984251968504
          },
          {
            "number": 7,
            "time": 381.8915100000117,
            "value": 0.1889763779527559
          },
          {
            "number": 7,
            "time": 382.70232000001175,
            "value": 0.16535433070866143
          },
          {
            "number": 7,
            "time": 383.51313000001187,
            "value": 0.14173228346456693
          },
          {
            "number": 7,
            "time": 384.32394000001193,
            "value": 0.11811023622047244
          },
          {
            "number": 7,
            "time": 385.13475000001205,
            "value": 0.09448818897637795
          },
          {
            "number": 7,
            "time": 385.9455600000121,
            "value": 0.07086614173228346
          },
          {
            "number": 7,
            "time": 386.7563700000122,
            "value": 0.047244094488188976
          },
          {
            "number": 7,
            "time": 387.5671800000123,
            "value": 0.023622047244094488
          },
          {
            "number": 7,
            "time": 388.3779900000124,
            "value": 0
          }
        ]
      },
      "id": 1,
      "name": "WinJammer Demo",
      "instrumentNumber": 25,
      "instrument": "acoustic guitar (steel)",
      "instrumentFamily": "guitar",
      "channelNumber": 0,
      "isPercussion": false
    },
    {
      "startTime": 0,
      "duration": 258.64163324999834,
      "length": 522,
      "notes": [
        {
          "name": "B3",
          "midi": 59,
          "time": 0,
          "velocity": 0.47244094488188976,
          "duration": 0.39864825
        },
        {
          "name": "B3",
          "midi": 59,
          "time": 0.40540499999999996,
          "velocity": 0.47244094488188976,
          "duration": 0.19594574999999997
        },
        {
          "name": "D4",
          "midi": 62,
          "time": 0.6081074999999999,
          "velocity": 0.47244094488188976,
          "duration": 0.19594575000000003
        },
        {
          "name": "B3",
          "midi": 59,
          "time": 0.8108099999999999,
          "velocity": 0.47244094488188976,
          "duration": 0.19594575000000003
        },
        {
          "name": "F#3",
          "midi": 54,
          "time": 1.0135125,
          "velocity": 0.47244094488188976,
          "duration": 0.3986482499999999
        },
        {
          "name": "F#3",
          "midi": 54,
          "time": 1.4189175,
          "velocity": 0.47244094488188976,
          "duration": 0.19594574999999992
        },
        {
          "name": "B3",
          "midi": 59,
          "time": 1.62162,
          "velocity": 0.47244094488188976,
          "duration": 0.8040532499999999
        },
        {
          "name": "D4",
          "midi": 62,
          "time": 2.43243,
          "velocity": 0.47244094488188976,
          "duration": 0.3986482499999999
        },
        {
          "name": "E4",
          "midi": 64,
          "time": 2.837835,
          "velocity": 0.47244094488188976,
          "duration": 0.3986482499999999
        },
        {
          "name": "F#3",
          "midi": 54,
          "time": 3.24324,
          "velocity": 0.47244094488188976,
          "duration": 0.3986482499999999
        },
        {
          "name": "C#4",
          "midi": 61,
          "time": 3.648645,
          "velocity": 0.47244094488188976,
          "duration": 0.19594574999999992
        },
        {
          "name": "F#3",
          "midi": 54,
          "time": 3.8513475,
          "velocity": 0.47244094488188976,
          "duration": 0.19594574999999992
        },
        {
          "name": "A#3",
          "midi": 58,
          "time": 4.05405,
          "velocity": 0.47244094488188976,
          "duration": 0.19594574999999992
        },
        {
          "name": "C#4",
          "midi": 61,
          "time": 4.2567525,
          "velocity": 0.47244094488188976,
          "duration": 0.3986482499999999
        },
        {
          "name": "F#3",
          "midi": 54,
          "time": 4.6621575,
          "velocity": 0.47244094488188976,
          "duration": 0.19594574999999992
        },
        {
          "name": "A#3",
          "midi": 58,
          "time": 4.86486,
          "velocity": 0.47244094488188976,
          "duration": 1.61486325
        },
        {
          "name": "A3",
          "midi": 57,
          "time": 6.48648,
          "velocity": 0.47244094488188976,
          "duration": 0.3986482499999999
        },
        {
          "name": "A3",
          "midi": 57,
          "time": 6.891885,
          "velocity": 0.47244094488188976,
          "duration": 0.19594574999999992
        },
        {
          "name": "A3",
          "midi": 57,
          "time": 7.0945875,
          "velocity": 0.47244094488188976,
          "duration": 0.19594574999999992
        },
        {
          "name": "A3",
          "midi": 57,
          "time": 7.29729,
          "velocity": 0.47244094488188976,
          "duration": 0.3986482499999999
        },
        {
          "name": "B3",
          "midi": 59,
          "time": 7.4999925,
          "velocity": 0.47244094488188976,
          "duration": 0.3986482499999999
        },
        {
          "name": "A3",
          "midi": 57,
          "time": 7.9053975,
          "velocity": 0.47244094488188976,
          "duration": 0.1959457500000008
        },
        {
          "name": "C#4",
          "midi": 61,
          "time": 8.1081,
          "velocity": 0.47244094488188976,
          "duration": 0.3986482500000008
        },
        {
          "name": "A3",
          "midi": 57,
          "time": 8.513505,
          "velocity": 0.47244094488188976,
          "duration": 0.19594574999999992
        },
        {
          "name": "B3",
          "midi": 59,
          "time": 8.7162075,
          "velocity": 0.47244094488188976,
          "duration": 0.19594574999999992
        },
        {
          "name": "E3",
          "midi": 52,
          "time": 8.918909999999999,
          "velocity": 0.47244094488188976,
          "duration": 0.3986482500000008
        },
        {
          "name": "E3",
          "midi": 52,
          "time": 9.324314999999999,
          "velocity": 0.47244094488188976,
          "duration": 0.19594574999999992
        },
        {
          "name": "F#3",
          "midi": 54,
          "time": 9.527017499999998,
          "velocity": 0.47244094488188976,
          "duration": 0.19594574999999992
        },
        {
          "name": "G#3",
          "midi": 56,
          "time": 9.729719999999997,
          "velocity": 0.47244094488188976,
          "duration": 0.3986482500000008
        },
        {
          "name": "G#3",
          "midi": 56,
          "time": 10.135124999999997,
          "velocity": 0.47244094488188976,
          "duration": 0.19594574999999992
        },
        {
          "name": "B3",
          "midi": 59,
          "time": 10.337827499999996,
          "velocity": 0.47244094488188976,
          "duration": 0.19594574999999992
        },
        {
          "name": "G#3",
          "midi": 56,
          "time": 10.540529999999995,
          "velocity": 0.47244094488188976,
          "duration": 0.19594574999999992
        },
        {
          "name": "B3",
          "midi": 59,
          "time": 10.743232499999994,
          "velocity": 0.47244094488188976,
          "duration": 0.3986482500000008
        },
        {
          "name": "G#3",
          "midi": 56,
          "time": 11.148637499999994,
          "velocity": 0.47244094488188976,
          "duration": 0.19594574999999992
        },
        {
          "name": "E4",
          "midi": 64,
          "time": 11.351339999999993,
          "velocity": 0.47244094488188976,
          "duration": 0.8040532500000008
        },
        {
          "name": "G3",
          "midi": 55,
          "time": 12.972959999999993,
          "velocity": 0.47244094488188976,
          "duration": 0.3986482500000008
        },
        {
          "name": "G3",
          "midi": 55,
          "time": 13.378364999999993,
          "velocity": 0.47244094488188976,
          "duration": 0.19594574999999992
        },
        {
          "name": "D3",
          "midi": 50,
          "time": 13.581067499999993,
          "velocity": 0.47244094488188976,
          "duration": 0.19594574999999992
        },
        {
          "name": "G3",
          "midi": 55,
          "time": 13.783769999999992,
          "velocity": 0.47244094488188976,
          "duration": 0.19594574999999992
        },
        {
          "name": "A3",
          "midi": 57,
          "time": 13.98647249999999,
          "velocity": 0.47244094488188976,
          "duration": 0.3986482500000008
        },
        {
          "name": "G3",
          "midi": 55,
          "time": 14.39187749999999,
          "velocity": 0.47244094488188976,
          "duration": 0.19594574999999992
        },
        {
          "name": "B3",
          "midi": 59,
          "time": 14.59457999999999,
          "velocity": 0.47244094488188976,
          "duration": 0.8040532500000008
        },
        {
          "name": "A3",
          "midi": 57,
          "time": 15.40538999999999,
          "velocity": 0.47244094488188976,
          "duration": 0.3986482500000008
        },
        {
          "name": "G3",
          "midi": 55,
          "time": 15.81079499999999,
          "velocity": 0.47244094488188976,
          "duration": 0.39864824999999904
        },
        {
          "name": "D3",
          "midi": 50,
          "time": 16.21619999999999,
          "velocity": 0.47244094488188976,
          "duration": 0.3986482500000008
        },
        {
          "name": "D3",
          "midi": 50,
          "time": 16.62160499999999,
          "velocity": 0.47244094488188976,
          "duration": 0.19594574999999992
        },
        {
          "name": "A2",
          "midi": 45,
          "time": 16.824307499999993,
          "velocity": 0.47244094488188976,
          "duration": 0.19594574999999992
        },
        {
          "name": "D3",
          "midi": 50,
          "time": 17.027009999999994,
          "velocity": 0.47244094488188976,
          "duration": 0.19594574999999992
        },
        {
          "name": "E3",
          "midi": 52,
          "time": 17.229712499999994,
          "velocity": 0.47244094488188976,
          "duration": 0.3986482500000008
        },
        {
          "name": "D3",
          "midi": 50,
          "time": 17.635117499999996,
          "velocity": 0.47244094488188976,
          "duration": 0.19594574999999992
        },
        {
          "name": "F#3",
          "midi": 54,
          "time": 17.837819999999997,
          "velocity": 0.47244094488188976,
          "duration": 1.614863249999999
        },
        {
          "name": "E3",
          "midi": 52,
          "time": 19.459439999999997,
          "velocity": 0.47244094488188976,
          "duration": 0.19594574999999992
        },
        {
          "name": "E3",
          "midi": 52,
          "time": 19.864844999999995,
          "velocity": 0.47244094488188976,
          "duration": 0.19594574999999992
        },
        {
          "name": "F#3",
          "midi": 54,
          "time": 20.067547499999996,
          "velocity": 0.47244094488188976,
          "duration": 0.19594574999999992
        },
        {
          "name": "E3",
          "midi": 52,
          "time": 20.270249999999997,
          "velocity": 0.47244094488188976,
          "duration": 0.19594574999999992
        },
        {
          "name": "G3",
          "midi": 55,
          "time": 20.472952499999998,
          "velocity": 0.47244094488188976,
          "duration": 0.3986482500000008
        },
        {
          "name": "E3",
          "midi": 52,
          "time": 20.8783575,
          "velocity": 0.47244094488188976,
          "duration": 0.19594574999999992
        },
        {
          "name": "B3",
          "midi": 59,
          "time": 21.08106,
          "velocity": 0.47244094488188976,
          "duration": 1.614863249999999
        },
        {
          "name": "F#3",
          "midi": 54,
          "time": 22.70268,
          "velocity": 0.47244094488188976,
          "duration": 0.3986482500000008
        },
        {
          "name": "F#3",
          "midi": 54,
          "time": 23.108085000000003,
          "velocity": 0.47244094488188976,
          "duration": 0.19594574999999992
        },
        {
          "name": "G3",
          "midi": 55,
          "time": 23.310787500000004,
          "velocity": 0.47244094488188976,
          "duration": 0.19594574999999992
        },
        {
          "name": "F#3",
          "midi": 54,
          "time": 23.513490000000004,
          "velocity": 0.47244094488188976,
          "duration": 0.19594574999999992
        },
        {
          "name": "G3",
          "midi": 55,
          "time": 23.716192500000005,
          "velocity": 0.47244094488188976,
          "duration": 0.3986482500000008
        },
        {
          "name": "F#3",
          "midi": 54,
          "time": 24.121597500000007,
          "velocity": 0.47244094488188976,
          "duration": 0.19594574999999992
        },
        {
          "name": "C#4",
          "midi": 61,
          "time": 24.324300000000008,
          "velocity": 0.47244094488188976,
          "duration": 1.614863249999999
        },
        {
          "name": "B3",
          "midi": 59,
          "time": 25.945920000000008,
          "velocity": 0.47244094488188976,
          "duration": 0.3986482500000008
        },
        {
          "name": "B3",
          "midi": 59,
          "time": 26.35132500000001,
          "velocity": 0.47244094488188976,
          "duration": 0.19594574999999992
        },
        {
          "name": "D4",
          "midi": 62,
          "time": 26.55402750000001,
          "velocity": 0.47244094488188976,
          "duration": 0.19594574999999992
        },
        {
          "name": "B3",
          "midi": 59,
          "time": 26.75673000000001,
          "velocity": 0.47244094488188976,
          "duration": 0.19594574999999992
        },
        {
          "name": "F#3",
          "midi": 54,
          "time": 26.959432500000013,
          "velocity": 0.47244094488188976,
          "duration": 0.3986482500000008
        },
        {
          "name": "F#3",
          "midi": 54,
          "time": 27.364837500000014,
          "velocity": 0.47244094488188976,
          "duration": 0.19594574999999992
        },
        {
          "name": "B3",
          "midi": 59,
          "time": 27.567540000000015,
          "velocity": 0.47244094488188976,
          "duration": 0.804053249999999
        },
        {
          "name": "D4",
          "midi": 62,
          "time": 28.378350000000015,
          "velocity": 0.47244094488188976,
          "duration": 0.3986482500000008
        },
        {
          "name": "E4",
          "midi": 64,
          "time": 28.783755000000017,
          "velocity": 0.47244094488188976,
          "duration": 0.3986482500000008
        },
        {
          "name": "F#3",
          "midi": 54,
          "time": 29.18916000000002,
          "velocity": 0.47244094488188976,
          "duration": 0.3986482500000008
        },
        {
          "name": "C#4",
          "midi": 61,
          "time": 29.59456500000002,
          "velocity": 0.47244094488188976,
          "duration": 0.19594574999999992
        },
        {
          "name": "F#3",
          "midi": 54,
          "time": 29.79726750000002,
          "velocity": 0.47244094488188976,
          "duration": 0.19594574999999992
        },
        {
          "name": "A#3",
          "midi": 58,
          "time": 29.999970000000022,
          "velocity": 0.47244094488188976,
          "duration": 0.19594574999999992
        },
        {
          "name": "C#4",
          "midi": 61,
          "time": 30.202672500000023,
          "velocity": 0.47244094488188976,
          "duration": 0.3986482500000008
        },
        {
          "name": "F#3",
          "midi": 54,
          "time": 30.608077500000025,
          "velocity": 0.47244094488188976,
          "duration": 0.19594574999999992
        },
        {
          "name": "A#3",
          "midi": 58,
          "time": 30.810780000000026,
          "velocity": 0.47244094488188976,
          "duration": 1.6148632500000026
        },
        {
          "name": "A3",
          "midi": 57,
          "time": 32.43240000000003,
          "velocity": 0.47244094488188976,
          "duration": 0.3986482500000008
        },
        {
          "name": "A3",
          "midi": 57,
          "time": 32.83780500000003,
          "velocity": 0.47244094488188976,
          "duration": 0.19594574999999992
        },
        {
          "name": "A3",
          "midi": 57,
          "time": 33.04050750000003,
          "velocity": 0.47244094488188976,
          "duration": 0.19594574999999992
        },
        {
          "name": "A3",
          "midi": 57,
          "time": 33.24321000000003,
          "velocity": 0.47244094488188976,
          "duration": 0.3986482500000008
        },
        {
          "name": "B3",
          "midi": 59,
          "time": 33.445912500000034,
          "velocity": 0.47244094488188976,
          "duration": 0.3986482500000008
        },
        {
          "name": "A3",
          "midi": 57,
          "time": 33.851317500000036,
          "velocity": 0.47244094488188976,
          "duration": 0.19594574999999992
        },
        {
          "name": "A3",
          "midi": 57,
          "time": 34.05402000000004,
          "velocity": 0.47244094488188976,
          "duration": 0.3986482500000008
        },
        {
          "name": "A3",
          "midi": 57,
          "time": 34.45942500000004,
          "velocity": 0.47244094488188976,
          "duration": 0.19594574999999992
        },
        {
          "name": "B3",
          "midi": 59,
          "time": 34.66212750000004,
          "velocity": 0.47244094488188976,
          "duration": 0.19594574999999992
        },
        {
          "name": "E3",
          "midi": 52,
          "time": 34.86483000000004,
          "velocity": 0.47244094488188976,
          "duration": 0.3986482500000008
        },
        {
          "name": "E3",
          "midi": 52,
          "time": 35.27023500000004,
          "velocity": 0.47244094488188976,
          "duration": 0.19594574999999992
        },
        {
          "name": "F#3",
          "midi": 54,
          "time": 35.47293750000004,
          "velocity": 0.47244094488188976,
          "duration": 0.19594574999999992
        },
        {
          "name": "G#3",
          "midi": 56,
          "time": 35.675640000000044,
          "velocity": 0.47244094488188976,
          "duration": 0.3986482500000008
        },
        {
          "name": "G#3",
          "midi": 56,
          "time": 36.081045000000046,
          "velocity": 0.47244094488188976,
          "duration": 0.19594574999999992
        },
        {
          "name": "B3",
          "midi": 59,
          "time": 36.28374750000005,
          "velocity": 0.47244094488188976,
          "duration": 0.19594574999999992
        },
        {
          "name": "G#3",
          "midi": 56,
          "time": 36.48645000000005,
          "velocity": 0.47244094488188976,
          "duration": 0.19594574999999992
        },
        {
          "name": "B3",
          "midi": 59,
          "time": 36.68915250000005,
          "velocity": 0.47244094488188976,
          "duration": 0.3986482500000008
        },
        {
          "name": "G#3",
          "midi": 56,
          "time": 37.09455750000005,
          "velocity": 0.47244094488188976,
          "duration": 0.19594574999999992
        },
        {
          "name": "E4",
          "midi": 64,
          "time": 37.29726000000005,
          "velocity": 0.47244094488188976,
          "duration": 0.8040532500000026
        },
        {
          "name": "G3",
          "midi": 55,
          "time": 38.91888000000005,
          "velocity": 0.47244094488188976,
          "duration": 0.3986482500000008
        },
        {
          "name": "G3",
          "midi": 55,
          "time": 39.32428500000005,
          "velocity": 0.47244094488188976,
          "duration": 0.19594574999999992
        },
        {
          "name": "D3",
          "midi": 50,
          "time": 39.526987500000054,
          "velocity": 0.47244094488188976,
          "duration": 0.19594574999999992
        },
        {
          "name": "G3",
          "midi": 55,
          "time": 39.729690000000055,
          "velocity": 0.47244094488188976,
          "duration": 0.19594574999999992
        },
        {
          "name": "A3",
          "midi": 57,
          "time": 39.932392500000056,
          "velocity": 0.47244094488188976,
          "duration": 0.3986482500000008
        },
        {
          "name": "G3",
          "midi": 55,
          "time": 40.33779750000006,
          "velocity": 0.47244094488188976,
          "duration": 0.19594574999999992
        },
        {
          "name": "B3",
          "midi": 59,
          "time": 40.54050000000006,
          "velocity": 0.47244094488188976,
          "duration": 0.8040532500000026
        },
        {
          "name": "A3",
          "midi": 57,
          "time": 41.35131000000006,
          "velocity": 0.47244094488188976,
          "duration": 0.3986482500000008
        },
        {
          "name": "G3",
          "midi": 55,
          "time": 41.756715000000064,
          "velocity": 0.47244094488188976,
          "duration": 0.3986482500000008
        },
        {
          "name": "D3",
          "midi": 50,
          "time": 42.162120000000066,
          "velocity": 0.47244094488188976,
          "duration": 0.3986482500000008
        },
        {
          "name": "D3",
          "midi": 50,
          "time": 42.56752500000007,
          "velocity": 0.47244094488188976,
          "duration": 0.19594574999999992
        },
        {
          "name": "A2",
          "midi": 45,
          "time": 42.77022750000007,
          "velocity": 0.47244094488188976,
          "duration": 0.19594574999999992
        },
        {
          "name": "D3",
          "midi": 50,
          "time": 42.97293000000007,
          "velocity": 0.47244094488188976,
          "duration": 0.19594574999999992
        },
        {
          "name": "E3",
          "midi": 52,
          "time": 43.17563250000007,
          "velocity": 0.47244094488188976,
          "duration": 0.3986482500000008
        },
        {
          "name": "D3",
          "midi": 50,
          "time": 43.58103750000007,
          "velocity": 0.47244094488188976,
          "duration": 0.19594574999999992
        },
        {
          "name": "F#3",
          "midi": 54,
          "time": 43.78374000000007,
          "velocity": 0.47244094488188976,
          "duration": 1.614863249999999
        },
        {
          "name": "E3",
          "midi": 52,
          "time": 45.40536000000007,
          "velocity": 0.47244094488188976,
          "duration": 0.3986482500000008
        },
        {
          "name": "E3",
          "midi": 52,
          "time": 45.810765000000075,
          "velocity": 0.47244094488188976,
          "duration": 0.19594574999999992
        },
        {
          "name": "F#3",
          "midi": 54,
          "time": 46.013467500000075,
          "velocity": 0.47244094488188976,
          "duration": 0.19594574999999992
        },
        {
          "name": "E3",
          "midi": 52,
          "time": 46.216170000000076,
          "velocity": 0.47244094488188976,
          "duration": 0.19594574999999992
        },
        {
          "name": "G3",
          "midi": 55,
          "time": 46.41887250000008,
          "velocity": 0.47244094488188976,
          "duration": 0.3986482500000008
        },
        {
          "name": "E3",
          "midi": 52,
          "time": 46.82427750000008,
          "velocity": 0.47244094488188976,
          "duration": 0.19594574999999992
        },
        {
          "name": "B3",
          "midi": 59,
          "time": 47.02698000000008,
          "velocity": 0.47244094488188976,
          "duration": 1.614863249999999
        },
        {
          "name": "F#3",
          "midi": 54,
          "time": 48.64860000000008,
          "velocity": 0.47244094488188976,
          "duration": 0.3986482500000008
        },
        {
          "name": "F#3",
          "midi": 54,
          "time": 49.05400500000008,
          "velocity": 0.47244094488188976,
          "duration": 0.19594574999999992
        },
        {
          "name": "G3",
          "midi": 55,
          "time": 49.25670750000008,
          "velocity": 0.47244094488188976,
          "duration": 0.19594574999999992
        },
        {
          "name": "F#3",
          "midi": 54,
          "time": 49.459410000000084,
          "velocity": 0.47244094488188976,
          "duration": 0.19594574999999992
        },
        {
          "name": "G3",
          "midi": 55,
          "time": 49.662112500000084,
          "velocity": 0.47244094488188976,
          "duration": 0.3986482500000008
        },
        {
          "name": "F#3",
          "midi": 54,
          "time": 50.067517500000086,
          "velocity": 0.47244094488188976,
          "duration": 0.19594574999999992
        },
        {
          "name": "C#4",
          "midi": 61,
          "time": 50.27022000000009,
          "velocity": 0.47244094488188976,
          "duration": 1.614863249999999
        },
        {
          "name": "B3",
          "midi": 59,
          "time": 51.89184000000009,
          "velocity": 0.47244094488188976,
          "duration": 0.3986482500000008
        },
        {
          "name": "B3",
          "midi": 59,
          "time": 52.29724500000009,
          "velocity": 0.47244094488188976,
          "duration": 0.19594574999999992
        },
        {
          "name": "D4",
          "midi": 62,
          "time": 52.49994750000009,
          "velocity": 0.47244094488188976,
          "duration": 0.19594574999999992
        },
        {
          "name": "B3",
          "midi": 59,
          "time": 52.70265000000009,
          "velocity": 0.47244094488188976,
          "duration": 0.19594574999999992
        },
        {
          "name": "F#3",
          "midi": 54,
          "time": 52.90535250000009,
          "velocity": 0.47244094488188976,
          "duration": 0.3986482500000008
        },
        {
          "name": "F#3",
          "midi": 54,
          "time": 53.31075750000009,
          "velocity": 0.47244094488188976,
          "duration": 0.19594574999999992
        },
        {
          "name": "B3",
          "midi": 59,
          "time": 53.513460000000094,
          "velocity": 0.47244094488188976,
          "duration": 0.8040532500000026
        },
        {
          "name": "D4",
          "midi": 62,
          "time": 54.3242700000001,
          "velocity": 0.47244094488188976,
          "duration": 0.3986482500000008
        },
        {
          "name": "E4",
          "midi": 64,
          "time": 54.7296750000001,
          "velocity": 0.47244094488188976,
          "duration": 0.3986482500000008
        },
        {
          "name": "F#3",
          "midi": 54,
          "time": 55.1350800000001,
          "velocity": 0.47244094488188976,
          "duration": 0.3986482500000008
        },
        {
          "name": "C#4",
          "midi": 61,
          "time": 55.5404850000001,
          "velocity": 0.47244094488188976,
          "duration": 0.19594574999999992
        },
        {
          "name": "F#3",
          "midi": 54,
          "time": 55.743187500000104,
          "velocity": 0.47244094488188976,
          "duration": 0.19594574999999992
        },
        {
          "name": "A#3",
          "midi": 58,
          "time": 55.945890000000105,
          "velocity": 0.47244094488188976,
          "duration": 0.19594574999999992
        },
        {
          "name": "C#4",
          "midi": 61,
          "time": 56.148592500000106,
          "velocity": 0.47244094488188976,
          "duration": 0.3986482500000008
        },
        {
          "name": "F#3",
          "midi": 54,
          "time": 56.55399750000011,
          "velocity": 0.47244094488188976,
          "duration": 0.19594574999999992
        },
        {
          "name": "A#3",
          "midi": 58,
          "time": 56.75670000000011,
          "velocity": 0.47244094488188976,
          "duration": 1.614863249999999
        },
        {
          "name": "A3",
          "midi": 57,
          "time": 58.37832000000011,
          "velocity": 0.47244094488188976,
          "duration": 0.3986482500000008
        },
        {
          "name": "A3",
          "midi": 57,
          "time": 58.78372500000011,
          "velocity": 0.47244094488188976,
          "duration": 0.19594574999999992
        },
        {
          "name": "A3",
          "midi": 57,
          "time": 58.98642750000011,
          "velocity": 0.47244094488188976,
          "duration": 0.19594574999999992
        },
        {
          "name": "A3",
          "midi": 57,
          "time": 59.18913000000011,
          "velocity": 0.47244094488188976,
          "duration": 0.3986482500000008
        },
        {
          "name": "B3",
          "midi": 59,
          "time": 59.39183250000011,
          "velocity": 0.47244094488188976,
          "duration": 0.3986482500000008
        },
        {
          "name": "A3",
          "midi": 57,
          "time": 59.797237500000115,
          "velocity": 0.47244094488188976,
          "duration": 0.19594574999999992
        },
        {
          "name": "A3",
          "midi": 57,
          "time": 59.999940000000116,
          "velocity": 0.47244094488188976,
          "duration": 0.3986482500000008
        },
        {
          "name": "A3",
          "midi": 57,
          "time": 60.40534500000012,
          "velocity": 0.47244094488188976,
          "duration": 0.19594574999999992
        },
        {
          "name": "B3",
          "midi": 59,
          "time": 60.60804750000012,
          "velocity": 0.47244094488188976,
          "duration": 0.19594574999999992
        },
        {
          "name": "E3",
          "midi": 52,
          "time": 60.81075000000012,
          "velocity": 0.47244094488188976,
          "duration": 0.3986482500000008
        },
        {
          "name": "E3",
          "midi": 52,
          "time": 61.21615500000012,
          "velocity": 0.47244094488188976,
          "duration": 0.19594574999999992
        },
        {
          "name": "F#3",
          "midi": 54,
          "time": 61.41885750000012,
          "velocity": 0.47244094488188976,
          "duration": 0.19594574999999992
        },
        {
          "name": "G#3",
          "midi": 56,
          "time": 61.62156000000012,
          "velocity": 0.47244094488188976,
          "duration": 0.3986482500000008
        },
        {
          "name": "G#3",
          "midi": 56,
          "time": 62.026965000000125,
          "velocity": 0.47244094488188976,
          "duration": 0.19594574999999992
        },
        {
          "name": "B3",
          "midi": 59,
          "time": 62.229667500000126,
          "velocity": 0.47244094488188976,
          "duration": 0.19594574999999992
        },
        {
          "name": "G#3",
          "midi": 56,
          "time": 62.43237000000013,
          "velocity": 0.47244094488188976,
          "duration": 0.19594574999999992
        },
        {
          "name": "B3",
          "midi": 59,
          "time": 62.63507250000013,
          "velocity": 0.47244094488188976,
          "duration": 0.3986482500000008
        },
        {
          "name": "G#3",
          "midi": 56,
          "time": 63.04047750000013,
          "velocity": 0.47244094488188976,
          "duration": 0.19594574999999992
        },
        {
          "name": "E4",
          "midi": 64,
          "time": 63.24318000000013,
          "velocity": 0.47244094488188976,
          "duration": 0.8040532500000026
        },
        {
          "name": "G3",
          "midi": 55,
          "time": 64.86480000000013,
          "velocity": 0.47244094488188976,
          "duration": 0.3986482499999937
        },
        {
          "name": "G3",
          "midi": 55,
          "time": 65.27020500000012,
          "velocity": 0.47244094488188976,
          "duration": 0.19594575000000702
        },
        {
          "name": "D3",
          "midi": 50,
          "time": 65.47290750000012,
          "velocity": 0.47244094488188976,
          "duration": 0.19594575000000702
        },
        {
          "name": "G3",
          "midi": 55,
          "time": 65.67561000000012,
          "velocity": 0.47244094488188976,
          "duration": 0.19594575000000702
        },
        {
          "name": "A3",
          "midi": 57,
          "time": 65.87831250000012,
          "velocity": 0.47244094488188976,
          "duration": 0.3986482499999937
        },
        {
          "name": "G3",
          "midi": 55,
          "time": 66.28371750000011,
          "velocity": 0.47244094488188976,
          "duration": 0.19594575000000702
        },
        {
          "name": "B3",
          "midi": 59,
          "time": 66.48642000000011,
          "velocity": 0.47244094488188976,
          "duration": 0.8040532499999955
        },
        {
          "name": "A3",
          "midi": 57,
          "time": 67.2972300000001,
          "velocity": 0.47244094488188976,
          "duration": 0.3986482499999937
        },
        {
          "name": "G3",
          "midi": 55,
          "time": 67.70263500000009,
          "velocity": 0.47244094488188976,
          "duration": 0.3986482499999937
        },
        {
          "name": "D3",
          "midi": 50,
          "time": 68.10804000000007,
          "velocity": 0.47244094488188976,
          "duration": 0.3986482499999937
        },
        {
          "name": "D3",
          "midi": 50,
          "time": 68.51344500000006,
          "velocity": 0.47244094488188976,
          "duration": 0.19594575000000702
        },
        {
          "name": "A2",
          "midi": 45,
          "time": 68.71614750000006,
          "velocity": 0.47244094488188976,
          "duration": 0.19594575000000702
        },
        {
          "name": "D3",
          "midi": 50,
          "time": 68.91885000000006,
          "velocity": 0.47244094488188976,
          "duration": 0.19594575000000702
        },
        {
          "name": "E3",
          "midi": 52,
          "time": 69.12155250000006,
          "velocity": 0.47244094488188976,
          "duration": 0.3986482499999937
        },
        {
          "name": "D3",
          "midi": 50,
          "time": 69.52695750000005,
          "velocity": 0.47244094488188976,
          "duration": 0.19594575000000702
        },
        {
          "name": "F#3",
          "midi": 54,
          "time": 69.72966000000005,
          "velocity": 0.47244094488188976,
          "duration": 1.614863249999999
        },
        {
          "name": "E3",
          "midi": 52,
          "time": 71.35128000000005,
          "velocity": 0.47244094488188976,
          "duration": 0.19594575000000702
        },
        {
          "name": "E3",
          "midi": 52,
          "time": 71.75668500000005,
          "velocity": 0.47244094488188976,
          "duration": 0.19594575000000702
        },
        {
          "name": "F#3",
          "midi": 54,
          "time": 71.95938750000005,
          "velocity": 0.47244094488188976,
          "duration": 0.19594575000000702
        },
        {
          "name": "E3",
          "midi": 52,
          "time": 72.16209000000005,
          "velocity": 0.47244094488188976,
          "duration": 0.19594575000000702
        },
        {
          "name": "G3",
          "midi": 55,
          "time": 72.36479250000005,
          "velocity": 0.47244094488188976,
          "duration": 0.3986482499999937
        },
        {
          "name": "E3",
          "midi": 52,
          "time": 72.77019750000004,
          "velocity": 0.47244094488188976,
          "duration": 0.19594575000000702
        },
        {
          "name": "B3",
          "midi": 59,
          "time": 72.97290000000004,
          "velocity": 0.47244094488188976,
          "duration": 1.614863249999999
        },
        {
          "name": "F#3",
          "midi": 54,
          "time": 74.59452000000003,
          "velocity": 0.47244094488188976,
          "duration": 0.3986482499999937
        },
        {
          "name": "F#3",
          "midi": 54,
          "time": 74.99992500000002,
          "velocity": 0.47244094488188976,
          "duration": 0.19594575000000702
        },
        {
          "name": "G3",
          "midi": 55,
          "time": 75.20262750000002,
          "velocity": 0.47244094488188976,
          "duration": 0.19594575000000702
        },
        {
          "name": "F#3",
          "midi": 54,
          "time": 75.40533000000002,
          "velocity": 0.47244094488188976,
          "duration": 0.19594575000000702
        },
        {
          "name": "G3",
          "midi": 55,
          "time": 75.60803250000002,
          "velocity": 0.47244094488188976,
          "duration": 0.3986482499999937
        },
        {
          "name": "F#3",
          "midi": 54,
          "time": 76.01343750000001,
          "velocity": 0.47244094488188976,
          "duration": 0.19594575000000702
        },
        {
          "name": "C#4",
          "midi": 61,
          "time": 76.21614000000001,
          "velocity": 0.47244094488188976,
          "duration": 1.614863249999999
        },
        {
          "name": "B3",
          "midi": 59,
          "time": 77.83776,
          "velocity": 0.47244094488188976,
          "duration": 0.3986482499999937
        },
        {
          "name": "B3",
          "midi": 59,
          "time": 78.24316499999999,
          "velocity": 0.47244094488188976,
          "duration": 0.19594575000000702
        },
        {
          "name": "D4",
          "midi": 62,
          "time": 78.44586749999999,
          "velocity": 0.47244094488188976,
          "duration": 0.19594575000000702
        },
        {
          "name": "B3",
          "midi": 59,
          "time": 78.64856999999999,
          "velocity": 0.47244094488188976,
          "duration": 0.19594575000000702
        },
        {
          "name": "F#3",
          "midi": 54,
          "time": 78.8512725,
          "velocity": 0.47244094488188976,
          "duration": 0.3986482499999937
        },
        {
          "name": "F#3",
          "midi": 54,
          "time": 79.25667749999998,
          "velocity": 0.47244094488188976,
          "duration": 0.19594575000000702
        },
        {
          "name": "B3",
          "midi": 59,
          "time": 79.45937999999998,
          "velocity": 0.47244094488188976,
          "duration": 0.8040532499999955
        },
        {
          "name": "D4",
          "midi": 62,
          "time": 80.27018999999997,
          "velocity": 0.47244094488188976,
          "duration": 0.3986482499999937
        },
        {
          "name": "E4",
          "midi": 64,
          "time": 80.67559499999996,
          "velocity": 0.47244094488188976,
          "duration": 0.3986482499999937
        },
        {
          "name": "F#3",
          "midi": 54,
          "time": 81.08099999999995,
          "velocity": 0.47244094488188976,
          "duration": 0.3986482499999937
        },
        {
          "name": "C#4",
          "midi": 61,
          "time": 81.48640499999993,
          "velocity": 0.47244094488188976,
          "duration": 0.19594575000000702
        },
        {
          "name": "F#3",
          "midi": 54,
          "time": 81.68910749999993,
          "velocity": 0.47244094488188976,
          "duration": 0.19594575000000702
        },
        {
          "name": "A#3",
          "midi": 58,
          "time": 81.89180999999994,
          "velocity": 0.47244094488188976,
          "duration": 0.19594575000000702
        },
        {
          "name": "C#4",
          "midi": 61,
          "time": 82.09451249999994,
          "velocity": 0.47244094488188976,
          "duration": 0.3986482499999937
        },
        {
          "name": "F#3",
          "midi": 54,
          "time": 82.49991749999992,
          "velocity": 0.47244094488188976,
          "duration": 0.19594575000000702
        },
        {
          "name": "A#3",
          "midi": 58,
          "time": 82.70261999999992,
          "velocity": 0.47244094488188976,
          "duration": 1.614863249999999
        },
        {
          "name": "A3",
          "midi": 57,
          "time": 84.32423999999992,
          "velocity": 0.47244094488188976,
          "duration": 0.3986482499999937
        },
        {
          "name": "A3",
          "midi": 57,
          "time": 84.7296449999999,
          "velocity": 0.47244094488188976,
          "duration": 0.19594575000000702
        },
        {
          "name": "A3",
          "midi": 57,
          "time": 84.9323474999999,
          "velocity": 0.47244094488188976,
          "duration": 0.19594575000000702
        },
        {
          "name": "A3",
          "midi": 57,
          "time": 85.13504999999991,
          "velocity": 0.47244094488188976,
          "duration": 0.3986482500000079
        },
        {
          "name": "B3",
          "midi": 59,
          "time": 85.33775249999991,
          "velocity": 0.47244094488188976,
          "duration": 0.3986482500000079
        },
        {
          "name": "A3",
          "midi": 57,
          "time": 85.74315749999991,
          "velocity": 0.47244094488188976,
          "duration": 0.19594575000000702
        },
        {
          "name": "A3",
          "midi": 57,
          "time": 85.94585999999991,
          "velocity": 0.47244094488188976,
          "duration": 0.3986482499999937
        },
        {
          "name": "A3",
          "midi": 57,
          "time": 86.3512649999999,
          "velocity": 0.47244094488188976,
          "duration": 0.19594575000000702
        },
        {
          "name": "B3",
          "midi": 59,
          "time": 86.5539674999999,
          "velocity": 0.47244094488188976,
          "duration": 0.19594575000000702
        },
        {
          "name": "E3",
          "midi": 52,
          "time": 86.7566699999999,
          "velocity": 0.47244094488188976,
          "duration": 0.3986482499999937
        },
        {
          "name": "E3",
          "midi": 52,
          "time": 87.16207499999989,
          "velocity": 0.47244094488188976,
          "duration": 0.19594575000000702
        },
        {
          "name": "F#3",
          "midi": 54,
          "time": 87.36477749999989,
          "velocity": 0.47244094488188976,
          "duration": 0.19594575000000702
        },
        {
          "name": "G#3",
          "midi": 56,
          "time": 87.56747999999989,
          "velocity": 0.47244094488188976,
          "duration": 0.3986482499999937
        },
        {
          "name": "G#3",
          "midi": 56,
          "time": 87.97288499999988,
          "velocity": 0.47244094488188976,
          "duration": 0.19594575000000702
        },
        {
          "name": "B3",
          "midi": 59,
          "time": 88.17558749999988,
          "velocity": 0.47244094488188976,
          "duration": 0.19594575000000702
        },
        {
          "name": "G#3",
          "midi": 56,
          "time": 88.37828999999988,
          "velocity": 0.47244094488188976,
          "duration": 0.19594575000000702
        },
        {
          "name": "B3",
          "midi": 59,
          "time": 88.58099249999988,
          "velocity": 0.47244094488188976,
          "duration": 0.3986482499999937
        },
        {
          "name": "G#3",
          "midi": 56,
          "time": 88.98639749999987,
          "velocity": 0.47244094488188976,
          "duration": 0.19594575000000702
        },
        {
          "name": "E4",
          "midi": 64,
          "time": 89.18909999999987,
          "velocity": 0.47244094488188976,
          "duration": 0.8040532499999955
        },
        {
          "name": "G3",
          "midi": 55,
          "time": 90.81071999999986,
          "velocity": 0.47244094488188976,
          "duration": 0.3986482499999937
        },
        {
          "name": "G3",
          "midi": 55,
          "time": 91.21612499999985,
          "velocity": 0.47244094488188976,
          "duration": 0.19594575000000702
        },
        {
          "name": "D3",
          "midi": 50,
          "time": 91.41882749999985,
          "velocity": 0.47244094488188976,
          "duration": 0.19594575000000702
        },
        {
          "name": "G3",
          "midi": 55,
          "time": 91.62152999999985,
          "velocity": 0.47244094488188976,
          "duration": 0.19594575000000702
        },
        {
          "name": "A3",
          "midi": 57,
          "time": 91.82423249999985,
          "velocity": 0.47244094488188976,
          "duration": 0.3986482499999937
        },
        {
          "name": "G3",
          "midi": 55,
          "time": 92.22963749999984,
          "velocity": 0.47244094488188976,
          "duration": 0.19594575000000702
        },
        {
          "name": "B3",
          "midi": 59,
          "time": 92.43233999999984,
          "velocity": 0.47244094488188976,
          "duration": 0.8040532499999955
        },
        {
          "name": "A3",
          "midi": 57,
          "time": 93.24314999999983,
          "velocity": 0.47244094488188976,
          "duration": 0.3986482499999937
        },
        {
          "name": "G3",
          "midi": 55,
          "time": 93.64855499999982,
          "velocity": 0.47244094488188976,
          "duration": 0.3986482499999937
        },
        {
          "name": "D3",
          "midi": 50,
          "time": 94.0539599999998,
          "velocity": 0.47244094488188976,
          "duration": 0.3986482499999937
        },
        {
          "name": "D3",
          "midi": 50,
          "time": 94.45936499999979,
          "velocity": 0.47244094488188976,
          "duration": 0.19594575000000702
        },
        {
          "name": "A2",
          "midi": 45,
          "time": 94.6620674999998,
          "velocity": 0.47244094488188976,
          "duration": 0.19594575000000702
        },
        {
          "name": "D3",
          "midi": 50,
          "time": 94.8647699999998,
          "velocity": 0.47244094488188976,
          "duration": 0.19594575000000702
        },
        {
          "name": "E3",
          "midi": 52,
          "time": 95.0674724999998,
          "velocity": 0.47244094488188976,
          "duration": 0.3986482499999937
        },
        {
          "name": "D3",
          "midi": 50,
          "time": 95.47287749999978,
          "velocity": 0.47244094488188976,
          "duration": 0.19594575000000702
        },
        {
          "name": "F#3",
          "midi": 54,
          "time": 95.67557999999978,
          "velocity": 0.47244094488188976,
          "duration": 1.614863249999999
        },
        {
          "name": "E3",
          "midi": 52,
          "time": 97.29719999999978,
          "velocity": 0.47244094488188976,
          "duration": 0.19594575000000702
        },
        {
          "name": "E3",
          "midi": 52,
          "time": 97.70260499999978,
          "velocity": 0.47244094488188976,
          "duration": 0.19594575000000702
        },
        {
          "name": "F#3",
          "midi": 54,
          "time": 97.90530749999978,
          "velocity": 0.47244094488188976,
          "duration": 0.19594575000000702
        },
        {
          "name": "E3",
          "midi": 52,
          "time": 98.10800999999978,
          "velocity": 0.47244094488188976,
          "duration": 0.19594575000000702
        },
        {
          "name": "G3",
          "midi": 55,
          "time": 98.31071249999978,
          "velocity": 0.47244094488188976,
          "duration": 0.3986482499999937
        },
        {
          "name": "E3",
          "midi": 52,
          "time": 98.71611749999977,
          "velocity": 0.47244094488188976,
          "duration": 0.19594575000000702
        },
        {
          "name": "B3",
          "midi": 59,
          "time": 98.91881999999977,
          "velocity": 0.47244094488188976,
          "duration": 1.614863249999999
        },
        {
          "name": "F#3",
          "midi": 54,
          "time": 100.54043999999976,
          "velocity": 0.47244094488188976,
          "duration": 0.3986482499999937
        },
        {
          "name": "F#3",
          "midi": 54,
          "time": 100.94584499999975,
          "velocity": 0.47244094488188976,
          "duration": 0.19594575000000702
        },
        {
          "name": "G3",
          "midi": 55,
          "time": 101.14854749999975,
          "velocity": 0.47244094488188976,
          "duration": 0.19594575000000702
        },
        {
          "name": "F#3",
          "midi": 54,
          "time": 101.35124999999975,
          "velocity": 0.47244094488188976,
          "duration": 0.19594575000000702
        },
        {
          "name": "G3",
          "midi": 55,
          "time": 101.55395249999975,
          "velocity": 0.47244094488188976,
          "duration": 0.3986482499999937
        },
        {
          "name": "F#3",
          "midi": 54,
          "time": 101.95935749999974,
          "velocity": 0.47244094488188976,
          "duration": 0.19594575000000702
        },
        {
          "name": "C#4",
          "midi": 61,
          "time": 102.16205999999974,
          "velocity": 0.47244094488188976,
          "duration": 0.8040532499999955
        },
        {
          "name": "F#4",
          "midi": 66,
          "time": 128.91878999999975,
          "velocity": 0.47244094488188976,
          "duration": 0.3986482500000079
        },
        {
          "name": "D4",
          "midi": 62,
          "time": 129.32419499999975,
          "velocity": 0.47244094488188976,
          "duration": 0.3986482500000079
        },
        {
          "name": "B3",
          "midi": 59,
          "time": 129.72959999999975,
          "velocity": 0.47244094488188976,
          "duration": 0.3986482500000079
        },
        {
          "name": "B3",
          "midi": 59,
          "time": 130.13500499999975,
          "velocity": 0.47244094488188976,
          "duration": 0.1959457499999928
        },
        {
          "name": "D4",
          "midi": 62,
          "time": 130.33770749999974,
          "velocity": 0.47244094488188976,
          "duration": 0.1959457499999928
        },
        {
          "name": "B3",
          "midi": 59,
          "time": 130.54040999999972,
          "velocity": 0.47244094488188976,
          "duration": 0.1959457499999928
        },
        {
          "name": "F#3",
          "midi": 54,
          "time": 130.7431124999997,
          "velocity": 0.47244094488188976,
          "duration": 0.3986482500000079
        },
        {
          "name": "F#3",
          "midi": 54,
          "time": 131.1485174999997,
          "velocity": 0.47244094488188976,
          "duration": 0.1959457499999928
        },
        {
          "name": "B3",
          "midi": 59,
          "time": 131.3512199999997,
          "velocity": 0.47244094488188976,
          "duration": 0.8040532500000097
        },
        {
          "name": "F#4",
          "midi": 66,
          "time": 132.1620299999997,
          "velocity": 0.47244094488188976,
          "duration": 0.3986482500000079
        },
        {
          "name": "D4",
          "midi": 62,
          "time": 132.5674349999997,
          "velocity": 0.47244094488188976,
          "duration": 0.3986482500000079
        },
        {
          "name": "F#3",
          "midi": 54,
          "time": 132.9728399999997,
          "velocity": 0.47244094488188976,
          "duration": 0.3986482500000079
        },
        {
          "name": "C#4",
          "midi": 61,
          "time": 133.3782449999997,
          "velocity": 0.47244094488188976,
          "duration": 0.1959457499999928
        },
        {
          "name": "F#3",
          "midi": 54,
          "time": 133.5809474999997,
          "velocity": 0.47244094488188976,
          "duration": 0.1959457499999928
        },
        {
          "name": "A#3",
          "midi": 58,
          "time": 133.78364999999968,
          "velocity": 0.47244094488188976,
          "duration": 0.1959457499999928
        },
        {
          "name": "C#4",
          "midi": 61,
          "time": 133.98635249999967,
          "velocity": 0.47244094488188976,
          "duration": 0.3986482500000079
        },
        {
          "name": "F#3",
          "midi": 54,
          "time": 134.39175749999967,
          "velocity": 0.47244094488188976,
          "duration": 0.1959457499999928
        },
        {
          "name": "A#3",
          "midi": 58,
          "time": 134.59445999999966,
          "velocity": 0.47244094488188976,
          "duration": 1.6148632500000133
        },
        {
          "name": "A3",
          "midi": 57,
          "time": 136.21607999999966,
          "velocity": 0.47244094488188976,
          "duration": 0.3986482500000079
        },
        {
          "name": "A3",
          "midi": 57,
          "time": 136.62148499999967,
          "velocity": 0.47244094488188976,
          "duration": 0.1959457499999928
        },
        {
          "name": "A3",
          "midi": 57,
          "time": 136.82418749999965,
          "velocity": 0.47244094488188976,
          "duration": 0.1959457499999928
        },
        {
          "name": "A3",
          "midi": 57,
          "time": 137.02688999999964,
          "velocity": 0.47244094488188976,
          "duration": 0.3986482499999795
        },
        {
          "name": "B3",
          "midi": 59,
          "time": 137.22959249999963,
          "velocity": 0.47244094488188976,
          "duration": 0.3986482499999795
        },
        {
          "name": "A3",
          "midi": 57,
          "time": 137.6349974999996,
          "velocity": 0.47244094488188976,
          "duration": 0.1959457499999928
        },
        {
          "name": "A3",
          "midi": 57,
          "time": 137.8376999999996,
          "velocity": 0.47244094488188976,
          "duration": 0.3986482500000079
        },
        {
          "name": "A3",
          "midi": 57,
          "time": 138.2431049999996,
          "velocity": 0.47244094488188976,
          "duration": 0.1959457499999928
        },
        {
          "name": "B3",
          "midi": 59,
          "time": 138.44580749999957,
          "velocity": 0.47244094488188976,
          "duration": 0.1959457499999928
        },
        {
          "name": "E3",
          "midi": 52,
          "time": 138.64850999999956,
          "velocity": 0.47244094488188976,
          "duration": 0.3986482500000079
        },
        {
          "name": "E3",
          "midi": 52,
          "time": 139.05391499999956,
          "velocity": 0.47244094488188976,
          "duration": 0.1959457499999928
        },
        {
          "name": "F#3",
          "midi": 54,
          "time": 139.25661749999955,
          "velocity": 0.47244094488188976,
          "duration": 0.1959457499999928
        },
        {
          "name": "G#3",
          "midi": 56,
          "time": 139.45931999999954,
          "velocity": 0.47244094488188976,
          "duration": 0.3986482500000079
        },
        {
          "name": "G#3",
          "midi": 56,
          "time": 139.86472499999954,
          "velocity": 0.47244094488188976,
          "duration": 0.1959457499999928
        },
        {
          "name": "B3",
          "midi": 59,
          "time": 140.06742749999952,
          "velocity": 0.47244094488188976,
          "duration": 0.1959457499999928
        },
        {
          "name": "G#3",
          "midi": 56,
          "time": 140.2701299999995,
          "velocity": 0.47244094488188976,
          "duration": 0.1959457499999928
        },
        {
          "name": "B3",
          "midi": 59,
          "time": 140.4728324999995,
          "velocity": 0.47244094488188976,
          "duration": 0.3986482500000079
        },
        {
          "name": "G#3",
          "midi": 56,
          "time": 140.8782374999995,
          "velocity": 0.47244094488188976,
          "duration": 0.1959457499999928
        },
        {
          "name": "E4",
          "midi": 64,
          "time": 141.0809399999995,
          "velocity": 0.47244094488188976,
          "duration": 0.8040532500000097
        },
        {
          "name": "G3",
          "midi": 55,
          "time": 142.7025599999995,
          "velocity": 0.47244094488188976,
          "duration": 0.3986482500000079
        },
        {
          "name": "G3",
          "midi": 55,
          "time": 143.1079649999995,
          "velocity": 0.47244094488188976,
          "duration": 0.1959457499999928
        },
        {
          "name": "D3",
          "midi": 50,
          "time": 143.31066749999948,
          "velocity": 0.47244094488188976,
          "duration": 0.1959457499999928
        },
        {
          "name": "G3",
          "midi": 55,
          "time": 143.51336999999947,
          "velocity": 0.47244094488188976,
          "duration": 0.1959457499999928
        },
        {
          "name": "A3",
          "midi": 57,
          "time": 143.71607249999946,
          "velocity": 0.47244094488188976,
          "duration": 0.3986482500000079
        },
        {
          "name": "G3",
          "midi": 55,
          "time": 144.12147749999946,
          "velocity": 0.47244094488188976,
          "duration": 0.1959457499999928
        },
        {
          "name": "B3",
          "midi": 59,
          "time": 144.32417999999944,
          "velocity": 0.47244094488188976,
          "duration": 0.8040532500000097
        },
        {
          "name": "A3",
          "midi": 57,
          "time": 145.13498999999945,
          "velocity": 0.47244094488188976,
          "duration": 0.3986482500000079
        },
        {
          "name": "G3",
          "midi": 55,
          "time": 145.54039499999945,
          "velocity": 0.47244094488188976,
          "duration": 0.3986482500000079
        },
        {
          "name": "D3",
          "midi": 50,
          "time": 145.94579999999945,
          "velocity": 0.47244094488188976,
          "duration": 0.3986482500000079
        },
        {
          "name": "D3",
          "midi": 50,
          "time": 146.35120499999945,
          "velocity": 0.47244094488188976,
          "duration": 0.1959457499999928
        },
        {
          "name": "A2",
          "midi": 45,
          "time": 146.55390749999944,
          "velocity": 0.47244094488188976,
          "duration": 0.1959457499999928
        },
        {
          "name": "D3",
          "midi": 50,
          "time": 146.75660999999943,
          "velocity": 0.47244094488188976,
          "duration": 0.1959457499999928
        },
        {
          "name": "E3",
          "midi": 52,
          "time": 146.9593124999994,
          "velocity": 0.47244094488188976,
          "duration": 0.3986482500000079
        },
        {
          "name": "D3",
          "midi": 50,
          "time": 147.36471749999941,
          "velocity": 0.47244094488188976,
          "duration": 0.1959457499999928
        },
        {
          "name": "F#3",
          "midi": 54,
          "time": 147.5674199999994,
          "velocity": 0.47244094488188976,
          "duration": 1.6148632500000133
        },
        {
          "name": "E3",
          "midi": 52,
          "time": 149.1890399999994,
          "velocity": 0.47244094488188976,
          "duration": 0.1959457499999928
        },
        {
          "name": "E3",
          "midi": 52,
          "time": 149.5944449999994,
          "velocity": 0.47244094488188976,
          "duration": 0.1959457499999928
        },
        {
          "name": "F#3",
          "midi": 54,
          "time": 149.7971474999994,
          "velocity": 0.47244094488188976,
          "duration": 0.1959457499999928
        },
        {
          "name": "E3",
          "midi": 52,
          "time": 149.99984999999938,
          "velocity": 0.47244094488188976,
          "duration": 0.1959457499999928
        },
        {
          "name": "G3",
          "midi": 55,
          "time": 150.20255249999937,
          "velocity": 0.47244094488188976,
          "duration": 0.3986482500000079
        },
        {
          "name": "E3",
          "midi": 52,
          "time": 150.60795749999937,
          "velocity": 0.47244094488188976,
          "duration": 0.1959457499999928
        },
        {
          "name": "B3",
          "midi": 59,
          "time": 150.81065999999936,
          "velocity": 0.47244094488188976,
          "duration": 1.6148632500000133
        },
        {
          "name": "F#3",
          "midi": 54,
          "time": 152.43227999999937,
          "velocity": 0.47244094488188976,
          "duration": 0.3986482500000079
        },
        {
          "name": "F#3",
          "midi": 54,
          "time": 152.83768499999937,
          "velocity": 0.47244094488188976,
          "duration": 0.1959457499999928
        },
        {
          "name": "G3",
          "midi": 55,
          "time": 153.04038749999935,
          "velocity": 0.47244094488188976,
          "duration": 0.1959457499999928
        },
        {
          "name": "F#3",
          "midi": 54,
          "time": 153.24308999999934,
          "velocity": 0.47244094488188976,
          "duration": 0.1959457499999928
        },
        {
          "name": "G3",
          "midi": 55,
          "time": 153.44579249999933,
          "velocity": 0.47244094488188976,
          "duration": 0.3986482500000079
        },
        {
          "name": "F#3",
          "midi": 54,
          "time": 153.85119749999933,
          "velocity": 0.47244094488188976,
          "duration": 0.1959457499999928
        },
        {
          "name": "C#4",
          "midi": 61,
          "time": 154.05389999999932,
          "velocity": 0.47244094488188976,
          "duration": 1.6148632500000133
        },
        {
          "name": "B3",
          "midi": 59,
          "time": 155.67551999999932,
          "velocity": 0.47244094488188976,
          "duration": 0.3986482500000079
        },
        {
          "name": "B3",
          "midi": 59,
          "time": 156.08092499999933,
          "velocity": 0.47244094488188976,
          "duration": 0.1959457499999928
        },
        {
          "name": "D4",
          "midi": 62,
          "time": 156.2836274999993,
          "velocity": 0.47244094488188976,
          "duration": 0.1959457499999928
        },
        {
          "name": "B3",
          "midi": 59,
          "time": 156.4863299999993,
          "velocity": 0.47244094488188976,
          "duration": 0.1959457499999928
        },
        {
          "name": "F#3",
          "midi": 54,
          "time": 156.68903249999929,
          "velocity": 0.47244094488188976,
          "duration": 0.3986482500000079
        },
        {
          "name": "F#3",
          "midi": 54,
          "time": 157.0944374999993,
          "velocity": 0.47244094488188976,
          "duration": 0.1959457499999928
        },
        {
          "name": "B3",
          "midi": 59,
          "time": 157.29713999999927,
          "velocity": 0.47244094488188976,
          "duration": 0.8040532500000097
        },
        {
          "name": "D4",
          "midi": 62,
          "time": 158.10794999999928,
          "velocity": 0.47244094488188976,
          "duration": 0.3986482500000079
        },
        {
          "name": "E4",
          "midi": 64,
          "time": 158.51335499999928,
          "velocity": 0.47244094488188976,
          "duration": 0.3986482500000079
        },
        {
          "name": "F#3",
          "midi": 54,
          "time": 158.91875999999928,
          "velocity": 0.47244094488188976,
          "duration": 0.3986482500000079
        },
        {
          "name": "C#4",
          "midi": 61,
          "time": 159.32416499999928,
          "velocity": 0.47244094488188976,
          "duration": 0.1959457499999928
        },
        {
          "name": "F#3",
          "midi": 54,
          "time": 159.52686749999927,
          "velocity": 0.47244094488188976,
          "duration": 0.1959457499999928
        },
        {
          "name": "A#3",
          "midi": 58,
          "time": 159.72956999999926,
          "velocity": 0.47244094488188976,
          "duration": 0.1959457499999928
        },
        {
          "name": "C#4",
          "midi": 61,
          "time": 159.93227249999924,
          "velocity": 0.47244094488188976,
          "duration": 0.3986482500000079
        },
        {
          "name": "F#3",
          "midi": 54,
          "time": 160.33767749999924,
          "velocity": 0.47244094488188976,
          "duration": 0.1959457499999928
        },
        {
          "name": "A#3",
          "midi": 58,
          "time": 160.54037999999923,
          "velocity": 0.47244094488188976,
          "duration": 1.6148632500000133
        },
        {
          "name": "A3",
          "midi": 57,
          "time": 162.16199999999924,
          "velocity": 0.47244094488188976,
          "duration": 0.3986482500000079
        },
        {
          "name": "A3",
          "midi": 57,
          "time": 162.56740499999924,
          "velocity": 0.47244094488188976,
          "duration": 0.1959457499999928
        },
        {
          "name": "A3",
          "midi": 57,
          "time": 162.77010749999923,
          "velocity": 0.47244094488188976,
          "duration": 0.1959457499999928
        },
        {
          "name": "A3",
          "midi": 57,
          "time": 162.9728099999992,
          "velocity": 0.47244094488188976,
          "duration": 0.3986482499999795
        },
        {
          "name": "B3",
          "midi": 59,
          "time": 163.1755124999992,
          "velocity": 0.47244094488188976,
          "duration": 0.3986482499999795
        },
        {
          "name": "A3",
          "midi": 57,
          "time": 163.58091749999917,
          "velocity": 0.47244094488188976,
          "duration": 0.1959457499999928
        },
        {
          "name": "A3",
          "midi": 57,
          "time": 163.78361999999916,
          "velocity": 0.47244094488188976,
          "duration": 0.3986482500000079
        },
        {
          "name": "A3",
          "midi": 57,
          "time": 164.18902499999916,
          "velocity": 0.47244094488188976,
          "duration": 0.1959457499999928
        },
        {
          "name": "B3",
          "midi": 59,
          "time": 164.39172749999915,
          "velocity": 0.47244094488188976,
          "duration": 0.1959457499999928
        },
        {
          "name": "E3",
          "midi": 52,
          "time": 164.59442999999914,
          "velocity": 0.47244094488188976,
          "duration": 0.3986482500000079
        },
        {
          "name": "E3",
          "midi": 52,
          "time": 164.99983499999914,
          "velocity": 0.47244094488188976,
          "duration": 0.1959457499999928
        },
        {
          "name": "F#3",
          "midi": 54,
          "time": 165.20253749999912,
          "velocity": 0.47244094488188976,
          "duration": 0.1959457499999928
        },
        {
          "name": "G#3",
          "midi": 56,
          "time": 165.4052399999991,
          "velocity": 0.47244094488188976,
          "duration": 0.3986482500000079
        },
        {
          "name": "G#3",
          "midi": 56,
          "time": 165.8106449999991,
          "velocity": 0.47244094488188976,
          "duration": 0.1959457499999928
        },
        {
          "name": "B3",
          "midi": 59,
          "time": 166.0133474999991,
          "velocity": 0.47244094488188976,
          "duration": 0.1959457499999928
        },
        {
          "name": "G#3",
          "midi": 56,
          "time": 166.2160499999991,
          "velocity": 0.47244094488188976,
          "duration": 0.1959457499999928
        },
        {
          "name": "B3",
          "midi": 59,
          "time": 166.41875249999907,
          "velocity": 0.47244094488188976,
          "duration": 0.3986482500000079
        },
        {
          "name": "G#3",
          "midi": 56,
          "time": 166.82415749999907,
          "velocity": 0.47244094488188976,
          "duration": 0.1959457499999928
        },
        {
          "name": "E4",
          "midi": 64,
          "time": 167.02685999999906,
          "velocity": 0.47244094488188976,
          "duration": 0.8040532500000097
        },
        {
          "name": "G3",
          "midi": 55,
          "time": 168.64847999999907,
          "velocity": 0.47244094488188976,
          "duration": 0.3986482500000079
        },
        {
          "name": "G3",
          "midi": 55,
          "time": 169.05388499999907,
          "velocity": 0.47244094488188976,
          "duration": 0.1959457499999928
        },
        {
          "name": "D3",
          "midi": 50,
          "time": 169.25658749999906,
          "velocity": 0.47244094488188976,
          "duration": 0.1959457499999928
        },
        {
          "name": "G3",
          "midi": 55,
          "time": 169.45928999999904,
          "velocity": 0.47244094488188976,
          "duration": 0.1959457499999928
        },
        {
          "name": "A3",
          "midi": 57,
          "time": 169.66199249999903,
          "velocity": 0.47244094488188976,
          "duration": 0.3986482500000079
        },
        {
          "name": "G3",
          "midi": 55,
          "time": 170.06739749999903,
          "velocity": 0.47244094488188976,
          "duration": 0.1959457499999928
        },
        {
          "name": "B3",
          "midi": 59,
          "time": 170.27009999999902,
          "velocity": 0.47244094488188976,
          "duration": 0.8040532500000097
        },
        {
          "name": "A3",
          "midi": 57,
          "time": 171.08090999999902,
          "velocity": 0.47244094488188976,
          "duration": 0.3986482500000079
        },
        {
          "name": "G3",
          "midi": 55,
          "time": 171.48631499999902,
          "velocity": 0.47244094488188976,
          "duration": 0.3986482500000079
        },
        {
          "name": "D3",
          "midi": 50,
          "time": 171.89171999999903,
          "velocity": 0.47244094488188976,
          "duration": 0.3986482500000079
        },
        {
          "name": "D3",
          "midi": 50,
          "time": 172.29712499999903,
          "velocity": 0.47244094488188976,
          "duration": 0.1959457499999928
        },
        {
          "name": "A2",
          "midi": 45,
          "time": 172.49982749999901,
          "velocity": 0.47244094488188976,
          "duration": 0.1959457499999928
        },
        {
          "name": "D3",
          "midi": 50,
          "time": 172.702529999999,
          "velocity": 0.47244094488188976,
          "duration": 0.1959457499999928
        },
        {
          "name": "E3",
          "midi": 52,
          "time": 172.905232499999,
          "velocity": 0.47244094488188976,
          "duration": 0.3986482500000079
        },
        {
          "name": "D3",
          "midi": 50,
          "time": 173.310637499999,
          "velocity": 0.47244094488188976,
          "duration": 0.1959457499999928
        },
        {
          "name": "F#3",
          "midi": 54,
          "time": 173.51333999999898,
          "velocity": 0.47244094488188976,
          "duration": 1.6148632500000133
        },
        {
          "name": "E3",
          "midi": 52,
          "time": 175.13495999999898,
          "velocity": 0.47244094488188976,
          "duration": 0.1959457499999928
        },
        {
          "name": "E3",
          "midi": 52,
          "time": 175.54036499999899,
          "velocity": 0.47244094488188976,
          "duration": 0.1959457499999928
        },
        {
          "name": "F#3",
          "midi": 54,
          "time": 175.74306749999897,
          "velocity": 0.47244094488188976,
          "duration": 0.1959457499999928
        },
        {
          "name": "E3",
          "midi": 52,
          "time": 175.94576999999896,
          "velocity": 0.47244094488188976,
          "duration": 0.1959457499999928
        },
        {
          "name": "G3",
          "midi": 55,
          "time": 176.14847249999895,
          "velocity": 0.47244094488188976,
          "duration": 0.3986482500000079
        },
        {
          "name": "E3",
          "midi": 52,
          "time": 176.55387749999895,
          "velocity": 0.47244094488188976,
          "duration": 0.1959457499999928
        },
        {
          "name": "B3",
          "midi": 59,
          "time": 176.75657999999893,
          "velocity": 0.47244094488188976,
          "duration": 1.6148632500000133
        },
        {
          "name": "F#3",
          "midi": 54,
          "time": 178.37819999999894,
          "velocity": 0.47244094488188976,
          "duration": 0.3986482500000079
        },
        {
          "name": "F#3",
          "midi": 54,
          "time": 178.78360499999894,
          "velocity": 0.47244094488188976,
          "duration": 0.1959457499999928
        },
        {
          "name": "G3",
          "midi": 55,
          "time": 178.98630749999893,
          "velocity": 0.47244094488188976,
          "duration": 0.1959457499999928
        },
        {
          "name": "F#3",
          "midi": 54,
          "time": 179.18900999999892,
          "velocity": 0.47244094488188976,
          "duration": 0.1959457499999928
        },
        {
          "name": "G3",
          "midi": 55,
          "time": 179.3917124999989,
          "velocity": 0.47244094488188976,
          "duration": 0.3986482500000079
        },
        {
          "name": "F#3",
          "midi": 54,
          "time": 179.7971174999989,
          "velocity": 0.47244094488188976,
          "duration": 0.1959457499999928
        },
        {
          "name": "C#4",
          "midi": 61,
          "time": 179.9998199999989,
          "velocity": 0.47244094488188976,
          "duration": 0.8040532500000097
        },
        {
          "name": "B3",
          "midi": 59,
          "time": 207.5673599999989,
          "velocity": 0.47244094488188976,
          "duration": 0.3986482500000079
        },
        {
          "name": "B3",
          "midi": 59,
          "time": 207.9727649999989,
          "velocity": 0.47244094488188976,
          "duration": 0.1959457499999928
        },
        {
          "name": "D4",
          "midi": 62,
          "time": 208.1754674999989,
          "velocity": 0.47244094488188976,
          "duration": 0.1959457499999928
        },
        {
          "name": "B3",
          "midi": 59,
          "time": 208.37816999999887,
          "velocity": 0.47244094488188976,
          "duration": 0.1959457499999928
        },
        {
          "name": "F#3",
          "midi": 54,
          "time": 208.58087249999886,
          "velocity": 0.47244094488188976,
          "duration": 0.3986482500000079
        },
        {
          "name": "F#3",
          "midi": 54,
          "time": 208.98627749999886,
          "velocity": 0.47244094488188976,
          "duration": 0.1959457499999928
        },
        {
          "name": "B3",
          "midi": 59,
          "time": 209.18897999999885,
          "velocity": 0.47244094488188976,
          "duration": 0.8040532500000097
        },
        {
          "name": "D4",
          "midi": 62,
          "time": 209.99978999999885,
          "velocity": 0.47244094488188976,
          "duration": 0.3986482500000079
        },
        {
          "name": "E4",
          "midi": 64,
          "time": 210.40519499999886,
          "velocity": 0.47244094488188976,
          "duration": 0.3986482500000079
        },
        {
          "name": "F#3",
          "midi": 54,
          "time": 210.81059999999886,
          "velocity": 0.47244094488188976,
          "duration": 0.3986482500000079
        },
        {
          "name": "C#4",
          "midi": 61,
          "time": 211.21600499999886,
          "velocity": 0.47244094488188976,
          "duration": 0.1959457499999928
        },
        {
          "name": "F#3",
          "midi": 54,
          "time": 211.41870749999885,
          "velocity": 0.47244094488188976,
          "duration": 0.1959457499999928
        },
        {
          "name": "A#3",
          "midi": 58,
          "time": 211.62140999999883,
          "velocity": 0.47244094488188976,
          "duration": 0.1959457499999928
        },
        {
          "name": "C#4",
          "midi": 61,
          "time": 211.82411249999882,
          "velocity": 0.47244094488188976,
          "duration": 0.3986482500000079
        },
        {
          "name": "F#3",
          "midi": 54,
          "time": 212.22951749999882,
          "velocity": 0.47244094488188976,
          "duration": 0.1959457499999928
        },
        {
          "name": "A#3",
          "midi": 58,
          "time": 212.4322199999988,
          "velocity": 0.47244094488188976,
          "duration": 1.6148632500000133
        },
        {
          "name": "A3",
          "midi": 57,
          "time": 214.05383999999881,
          "velocity": 0.47244094488188976,
          "duration": 0.3986482500000079
        },
        {
          "name": "A3",
          "midi": 57,
          "time": 214.45924499999882,
          "velocity": 0.47244094488188976,
          "duration": 0.1959457499999928
        },
        {
          "name": "A3",
          "midi": 57,
          "time": 214.6619474999988,
          "velocity": 0.47244094488188976,
          "duration": 0.1959457499999928
        },
        {
          "name": "A3",
          "midi": 57,
          "time": 214.8646499999988,
          "velocity": 0.47244094488188976,
          "duration": 0.3986482499999795
        },
        {
          "name": "B3",
          "midi": 59,
          "time": 215.06735249999878,
          "velocity": 0.47244094488188976,
          "duration": 0.3986482499999795
        },
        {
          "name": "A3",
          "midi": 57,
          "time": 215.47275749999875,
          "velocity": 0.47244094488188976,
          "duration": 0.1959457499999928
        },
        {
          "name": "C#4",
          "midi": 61,
          "time": 215.67545999999874,
          "velocity": 0.47244094488188976,
          "duration": 0.3986482500000079
        },
        {
          "name": "A3",
          "midi": 57,
          "time": 216.08086499999874,
          "velocity": 0.47244094488188976,
          "duration": 0.1959457499999928
        },
        {
          "name": "B3",
          "midi": 59,
          "time": 216.28356749999872,
          "velocity": 0.47244094488188976,
          "duration": 0.1959457499999928
        },
        {
          "name": "E3",
          "midi": 52,
          "time": 216.4862699999987,
          "velocity": 0.47244094488188976,
          "duration": 0.3986482500000079
        },
        {
          "name": "E3",
          "midi": 52,
          "time": 216.8916749999987,
          "velocity": 0.47244094488188976,
          "duration": 0.1959457499999928
        },
        {
          "name": "F#3",
          "midi": 54,
          "time": 217.0943774999987,
          "velocity": 0.47244094488188976,
          "duration": 0.1959457499999928
        },
        {
          "name": "G#3",
          "midi": 56,
          "time": 217.2970799999987,
          "velocity": 0.47244094488188976,
          "duration": 0.3986482500000079
        },
        {
          "name": "G#3",
          "midi": 56,
          "time": 217.7024849999987,
          "velocity": 0.47244094488188976,
          "duration": 0.1959457499999928
        },
        {
          "name": "B3",
          "midi": 59,
          "time": 217.90518749999868,
          "velocity": 0.47244094488188976,
          "duration": 0.1959457499999928
        },
        {
          "name": "G#3",
          "midi": 56,
          "time": 218.10788999999866,
          "velocity": 0.47244094488188976,
          "duration": 0.1959457499999928
        },
        {
          "name": "B3",
          "midi": 59,
          "time": 218.31059249999865,
          "velocity": 0.47244094488188976,
          "duration": 0.3986482500000079
        },
        {
          "name": "G#3",
          "midi": 56,
          "time": 218.71599749999865,
          "velocity": 0.47244094488188976,
          "duration": 0.1959457499999928
        },
        {
          "name": "E4",
          "midi": 64,
          "time": 218.91869999999864,
          "velocity": 0.47244094488188976,
          "duration": 0.8040532500000097
        },
        {
          "name": "G3",
          "midi": 55,
          "time": 220.54031999999864,
          "velocity": 0.47244094488188976,
          "duration": 0.3986482500000079
        },
        {
          "name": "G3",
          "midi": 55,
          "time": 220.94572499999865,
          "velocity": 0.47244094488188976,
          "duration": 0.1959457499999928
        },
        {
          "name": "D3",
          "midi": 50,
          "time": 221.14842749999863,
          "velocity": 0.47244094488188976,
          "duration": 0.1959457499999928
        },
        {
          "name": "G3",
          "midi": 55,
          "time": 221.35112999999862,
          "velocity": 0.47244094488188976,
          "duration": 0.1959457499999928
        },
        {
          "name": "A3",
          "midi": 57,
          "time": 221.5538324999986,
          "velocity": 0.47244094488188976,
          "duration": 0.3986482500000079
        },
        {
          "name": "G3",
          "midi": 55,
          "time": 221.9592374999986,
          "velocity": 0.47244094488188976,
          "duration": 0.1959457499999928
        },
        {
          "name": "B3",
          "midi": 59,
          "time": 222.1619399999986,
          "velocity": 0.47244094488188976,
          "duration": 0.8040532500000097
        },
        {
          "name": "A3",
          "midi": 57,
          "time": 222.9727499999986,
          "velocity": 0.47244094488188976,
          "duration": 0.3986482500000079
        },
        {
          "name": "G3",
          "midi": 55,
          "time": 223.3781549999986,
          "velocity": 0.47244094488188976,
          "duration": 0.3986482500000079
        },
        {
          "name": "D3",
          "midi": 50,
          "time": 223.7835599999986,
          "velocity": 0.47244094488188976,
          "duration": 0.3986482500000079
        },
        {
          "name": "D3",
          "midi": 50,
          "time": 224.1889649999986,
          "velocity": 0.47244094488188976,
          "duration": 0.1959457499999928
        },
        {
          "name": "A2",
          "midi": 45,
          "time": 224.3916674999986,
          "velocity": 0.47244094488188976,
          "duration": 0.1959457499999928
        },
        {
          "name": "D3",
          "midi": 50,
          "time": 224.59436999999858,
          "velocity": 0.47244094488188976,
          "duration": 0.1959457499999928
        },
        {
          "name": "E3",
          "midi": 52,
          "time": 224.79707249999856,
          "velocity": 0.47244094488188976,
          "duration": 0.3986482500000079
        },
        {
          "name": "D3",
          "midi": 50,
          "time": 225.20247749999857,
          "velocity": 0.47244094488188976,
          "duration": 0.1959457499999928
        },
        {
          "name": "F#3",
          "midi": 54,
          "time": 225.40517999999855,
          "velocity": 0.47244094488188976,
          "duration": 1.6148632500000133
        },
        {
          "name": "E3",
          "midi": 52,
          "time": 227.02679999999856,
          "velocity": 0.47244094488188976,
          "duration": 0.1959457499999928
        },
        {
          "name": "E3",
          "midi": 52,
          "time": 227.43220499999856,
          "velocity": 0.47244094488188976,
          "duration": 0.1959457499999928
        },
        {
          "name": "F#3",
          "midi": 54,
          "time": 227.63490749999855,
          "velocity": 0.47244094488188976,
          "duration": 0.1959457499999928
        },
        {
          "name": "E3",
          "midi": 52,
          "time": 227.83760999999853,
          "velocity": 0.47244094488188976,
          "duration": 0.1959457499999928
        },
        {
          "name": "G3",
          "midi": 55,
          "time": 228.04031249999852,
          "velocity": 0.47244094488188976,
          "duration": 0.3986482500000079
        },
        {
          "name": "E3",
          "midi": 52,
          "time": 228.44571749999852,
          "velocity": 0.47244094488188976,
          "duration": 0.1959457499999928
        },
        {
          "name": "B3",
          "midi": 59,
          "time": 228.6484199999985,
          "velocity": 0.47244094488188976,
          "duration": 1.6148632500000133
        },
        {
          "name": "F#3",
          "midi": 54,
          "time": 230.27003999999852,
          "velocity": 0.47244094488188976,
          "duration": 0.3986482500000079
        },
        {
          "name": "F#3",
          "midi": 54,
          "time": 230.67544499999852,
          "velocity": 0.47244094488188976,
          "duration": 0.1959457499999928
        },
        {
          "name": "G3",
          "midi": 55,
          "time": 230.8781474999985,
          "velocity": 0.47244094488188976,
          "duration": 0.1959457499999928
        },
        {
          "name": "F#3",
          "midi": 54,
          "time": 231.0808499999985,
          "velocity": 0.47244094488188976,
          "duration": 0.1959457499999928
        },
        {
          "name": "G3",
          "midi": 55,
          "time": 231.28355249999848,
          "velocity": 0.47244094488188976,
          "duration": 0.3986482500000079
        },
        {
          "name": "F#3",
          "midi": 54,
          "time": 231.68895749999848,
          "velocity": 0.47244094488188976,
          "duration": 0.1959457499999928
        },
        {
          "name": "C#4",
          "midi": 61,
          "time": 231.89165999999847,
          "velocity": 0.47244094488188976,
          "duration": 1.6148632500000133
        },
        {
          "name": "B3",
          "midi": 59,
          "time": 233.51327999999847,
          "velocity": 0.47244094488188976,
          "duration": 0.3986482500000079
        },
        {
          "name": "B3",
          "midi": 59,
          "time": 233.91868499999848,
          "velocity": 0.47244094488188976,
          "duration": 0.1959457499999928
        },
        {
          "name": "D4",
          "midi": 62,
          "time": 234.12138749999846,
          "velocity": 0.47244094488188976,
          "duration": 0.1959457499999928
        },
        {
          "name": "B3",
          "midi": 59,
          "time": 234.32408999999845,
          "velocity": 0.47244094488188976,
          "duration": 0.1959457499999928
        },
        {
          "name": "F#3",
          "midi": 54,
          "time": 234.52679249999844,
          "velocity": 0.47244094488188976,
          "duration": 0.3986482500000079
        },
        {
          "name": "F#3",
          "midi": 54,
          "time": 234.93219749999844,
          "velocity": 0.47244094488188976,
          "duration": 0.1959457499999928
        },
        {
          "name": "B3",
          "midi": 59,
          "time": 235.13489999999842,
          "velocity": 0.47244094488188976,
          "duration": 0.8040532500000097
        },
        {
          "name": "D4",
          "midi": 62,
          "time": 235.94570999999843,
          "velocity": 0.47244094488188976,
          "duration": 0.3986482500000079
        },
        {
          "name": "E4",
          "midi": 64,
          "time": 236.35111499999843,
          "velocity": 0.47244094488188976,
          "duration": 0.3986482500000079
        },
        {
          "name": "F#3",
          "midi": 54,
          "time": 236.75651999999843,
          "velocity": 0.47244094488188976,
          "duration": 0.3986482500000079
        },
        {
          "name": "C#4",
          "midi": 61,
          "time": 237.16192499999843,
          "velocity": 0.47244094488188976,
          "duration": 0.1959457499999928
        },
        {
          "name": "F#3",
          "midi": 54,
          "time": 237.36462749999842,
          "velocity": 0.47244094488188976,
          "duration": 0.1959457499999928
        },
        {
          "name": "A#3",
          "midi": 58,
          "time": 237.5673299999984,
          "velocity": 0.47244094488188976,
          "duration": 0.1959457499999928
        },
        {
          "name": "C#4",
          "midi": 61,
          "time": 237.7700324999984,
          "velocity": 0.47244094488188976,
          "duration": 0.3986482500000079
        },
        {
          "name": "F#3",
          "midi": 54,
          "time": 238.1754374999984,
          "velocity": 0.47244094488188976,
          "duration": 0.1959457499999928
        },
        {
          "name": "A#3",
          "midi": 58,
          "time": 238.37813999999838,
          "velocity": 0.47244094488188976,
          "duration": 1.6148632500000133
        },
        {
          "name": "A3",
          "midi": 57,
          "time": 239.9997599999984,
          "velocity": 0.47244094488188976,
          "duration": 0.3986482500000079
        },
        {
          "name": "A3",
          "midi": 57,
          "time": 240.4051649999984,
          "velocity": 0.47244094488188976,
          "duration": 0.1959457499999928
        },
        {
          "name": "A3",
          "midi": 57,
          "time": 240.60786749999838,
          "velocity": 0.47244094488188976,
          "duration": 0.1959457499999928
        },
        {
          "name": "A3",
          "midi": 57,
          "time": 240.81056999999836,
          "velocity": 0.47244094488188976,
          "duration": 0.3986482499999795
        },
        {
          "name": "B3",
          "midi": 59,
          "time": 241.01327249999835,
          "velocity": 0.47244094488188976,
          "duration": 0.3986482499999795
        },
        {
          "name": "A3",
          "midi": 57,
          "time": 241.41867749999832,
          "velocity": 0.47244094488188976,
          "duration": 0.1959457499999928
        },
        {
          "name": "A3",
          "midi": 57,
          "time": 241.6213799999983,
          "velocity": 0.47244094488188976,
          "duration": 0.3986482500000079
        },
        {
          "name": "A3",
          "midi": 57,
          "time": 242.0267849999983,
          "velocity": 0.47244094488188976,
          "duration": 0.1959457499999928
        },
        {
          "name": "B3",
          "midi": 59,
          "time": 242.2294874999983,
          "velocity": 0.47244094488188976,
          "duration": 0.1959457499999928
        },
        {
          "name": "E3",
          "midi": 52,
          "time": 242.4321899999983,
          "velocity": 0.47244094488188976,
          "duration": 0.3986482500000079
        },
        {
          "name": "E3",
          "midi": 52,
          "time": 242.8375949999983,
          "velocity": 0.47244094488188976,
          "duration": 0.1959457499999928
        },
        {
          "name": "F#3",
          "midi": 54,
          "time": 243.04029749999827,
          "velocity": 0.47244094488188976,
          "duration": 0.1959457499999928
        },
        {
          "name": "G#3",
          "midi": 56,
          "time": 243.24299999999826,
          "velocity": 0.47244094488188976,
          "duration": 0.3986482500000079
        },
        {
          "name": "G#3",
          "midi": 56,
          "time": 243.64840499999826,
          "velocity": 0.47244094488188976,
          "duration": 0.1959457499999928
        },
        {
          "name": "B3",
          "midi": 59,
          "time": 243.85110749999825,
          "velocity": 0.47244094488188976,
          "duration": 0.1959457499999928
        },
        {
          "name": "G#3",
          "midi": 56,
          "time": 244.05380999999824,
          "velocity": 0.47244094488188976,
          "duration": 0.1959457499999928
        },
        {
          "name": "B3",
          "midi": 59,
          "time": 244.25651249999822,
          "velocity": 0.47244094488188976,
          "duration": 0.3986482500000079
        },
        {
          "name": "G#3",
          "midi": 56,
          "time": 244.66191749999822,
          "velocity": 0.47244094488188976,
          "duration": 0.1959457499999928
        },
        {
          "name": "E4",
          "midi": 64,
          "time": 244.8646199999982,
          "velocity": 0.47244094488188976,
          "duration": 0.8040532500000097
        },
        {
          "name": "G3",
          "midi": 55,
          "time": 246.48623999999822,
          "velocity": 0.47244094488188976,
          "duration": 0.3986482500000079
        },
        {
          "name": "G3",
          "midi": 55,
          "time": 246.89164499999822,
          "velocity": 0.47244094488188976,
          "duration": 0.1959457499999928
        },
        {
          "name": "D3",
          "midi": 50,
          "time": 247.0943474999982,
          "velocity": 0.47244094488188976,
          "duration": 0.1959457499999928
        },
        {
          "name": "G3",
          "midi": 55,
          "time": 247.2970499999982,
          "velocity": 0.47244094488188976,
          "duration": 0.1959457499999928
        },
        {
          "name": "A3",
          "midi": 57,
          "time": 247.49975249999818,
          "velocity": 0.47244094488188976,
          "duration": 0.3986482500000079
        },
        {
          "name": "G3",
          "midi": 55,
          "time": 247.90515749999818,
          "velocity": 0.47244094488188976,
          "duration": 0.1959457499999928
        },
        {
          "name": "B3",
          "midi": 59,
          "time": 248.10785999999817,
          "velocity": 0.47244094488188976,
          "duration": 0.8040532500000097
        },
        {
          "name": "A3",
          "midi": 57,
          "time": 248.91866999999817,
          "velocity": 0.47244094488188976,
          "duration": 0.3986482500000079
        },
        {
          "name": "G3",
          "midi": 55,
          "time": 249.32407499999817,
          "velocity": 0.47244094488188976,
          "duration": 0.3986482500000079
        },
        {
          "name": "D3",
          "midi": 50,
          "time": 249.72947999999818,
          "velocity": 0.47244094488188976,
          "duration": 0.3986482500000079
        },
        {
          "name": "D3",
          "midi": 50,
          "time": 250.13488499999818,
          "velocity": 0.47244094488188976,
          "duration": 0.1959457499999928
        },
        {
          "name": "A2",
          "midi": 45,
          "time": 250.33758749999816,
          "velocity": 0.47244094488188976,
          "duration": 0.1959457499999928
        },
        {
          "name": "D3",
          "midi": 50,
          "time": 250.54028999999815,
          "velocity": 0.47244094488188976,
          "duration": 0.1959457499999928
        },
        {
          "name": "E3",
          "midi": 52,
          "time": 250.74299249999814,
          "velocity": 0.47244094488188976,
          "duration": 0.3986482500000079
        },
        {
          "name": "D3",
          "midi": 50,
          "time": 251.14839749999814,
          "velocity": 0.47244094488188976,
          "duration": 0.1959457499999928
        },
        {
          "name": "F#3",
          "midi": 54,
          "time": 251.35109999999813,
          "velocity": 0.47244094488188976,
          "duration": 1.6148632500000133
        },
        {
          "name": "E3",
          "midi": 52,
          "time": 252.97271999999813,
          "velocity": 0.47244094488188976,
          "duration": 0.1959457499999928
        },
        {
          "name": "E3",
          "midi": 52,
          "time": 253.37812499999814,
          "velocity": 0.47244094488188976,
          "duration": 0.1959457499999928
        },
        {
          "name": "F#3",
          "midi": 54,
          "time": 253.58082749999812,
          "velocity": 0.47244094488188976,
          "duration": 0.1959457499999928
        },
        {
          "name": "E3",
          "midi": 52,
          "time": 253.7835299999981,
          "velocity": 0.47244094488188976,
          "duration": 0.1959457499999928
        },
        {
          "name": "G3",
          "midi": 55,
          "time": 253.9862324999981,
          "velocity": 0.47244094488188976,
          "duration": 0.3986482500000079
        },
        {
          "name": "E3",
          "midi": 52,
          "time": 254.3916374999981,
          "velocity": 0.47244094488188976,
          "duration": 0.1959457499999928
        },
        {
          "name": "B3",
          "midi": 59,
          "time": 254.59433999999808,
          "velocity": 0.47244094488188976,
          "duration": 1.6148632500000133
        },
        {
          "name": "F#3",
          "midi": 54,
          "time": 256.2159599999981,
          "velocity": 0.47244094488188976,
          "duration": 0.3986482500000079
        },
        {
          "name": "F#3",
          "midi": 54,
          "time": 256.62136499999815,
          "velocity": 0.47244094488188976,
          "duration": 0.19594575000002123
        },
        {
          "name": "G3",
          "midi": 55,
          "time": 256.8240674999982,
          "velocity": 0.47244094488188976,
          "duration": 0.19594575000002123
        },
        {
          "name": "F#3",
          "midi": 54,
          "time": 257.02676999999824,
          "velocity": 0.47244094488188976,
          "duration": 0.19594575000002123
        },
        {
          "name": "G3",
          "midi": 55,
          "time": 257.2294724999983,
          "velocity": 0.47244094488188976,
          "duration": 0.3986482500000079
        },
        {
          "name": "F#3",
          "midi": 54,
          "time": 257.6348774999983,
          "velocity": 0.47244094488188976,
          "duration": 0.19594575000002123
        },
        {
          "name": "C#4",
          "midi": 61,
          "time": 257.83757999999835,
          "velocity": 0.47244094488188976,
          "duration": 0.8040532499999813
        }
      ],
      "controlChanges": {
        "7": [
          {
            "number": 7,
            "time": 0,
            "value": 0.7086614173228346
          },
          {
            "number": 7,
            "time": 51.89184000000009,
            "value": 0.7086614173228346
          }
        ]
      },
      "id": 2,
      "name": "WinJammer Demo",
      "instrumentNumber": 2,
      "instrument": "electric grand piano",
      "instrumentFamily": "piano",
      "channelNumber": 1,
      "isPercussion": false
    },
    {
      "startTime": 0,
      "duration": 388.7766382500095,
      "length": 796,
      "notes": [
        {
          "name": "B1",
          "midi": 35,
          "time": 0,
          "velocity": 0.7086614173228346,
          "duration": 1.6148632500000002
        },
        {
          "name": "F#1",
          "midi": 30,
          "time": 3.24324,
          "velocity": 0.7086614173228346,
          "duration": 1.61486325
        },
        {
          "name": "A1",
          "midi": 33,
          "time": 6.48648,
          "velocity": 0.7086614173228346,
          "duration": 1.6148632500000009
        },
        {
          "name": "E1",
          "midi": 28,
          "time": 9.72972,
          "velocity": 0.7086614173228346,
          "duration": 1.6148632500000009
        },
        {
          "name": "G1",
          "midi": 31,
          "time": 12.97296,
          "velocity": 0.7086614173228346,
          "duration": 1.6148632500000009
        },
        {
          "name": "D2",
          "midi": 38,
          "time": 16.2162,
          "velocity": 0.7086614173228346,
          "duration": 1.614863249999999
        },
        {
          "name": "E1",
          "midi": 28,
          "time": 19.45944,
          "velocity": 0.7086614173228346,
          "duration": 1.614863249999999
        },
        {
          "name": "F#1",
          "midi": 30,
          "time": 22.70268,
          "velocity": 0.7086614173228346,
          "duration": 1.614863249999999
        },
        {
          "name": "D2",
          "midi": 38,
          "time": 25.94592,
          "velocity": 0.7086614173228346,
          "duration": 1.614863249999999
        },
        {
          "name": "E2",
          "midi": 40,
          "time": 27.56754,
          "velocity": 0.7086614173228346,
          "duration": 0.804053249999999
        },
        {
          "name": "F#2",
          "midi": 42,
          "time": 28.37835,
          "velocity": 0.7086614173228346,
          "duration": 0.804053249999999
        },
        {
          "name": "F#1",
          "midi": 30,
          "time": 29.18916,
          "velocity": 0.7086614173228346,
          "duration": 1.2094582500000008
        },
        {
          "name": "D2",
          "midi": 38,
          "time": 30.405375000000003,
          "velocity": 0.7086614173228346,
          "duration": 0.3986482500000008
        },
        {
          "name": "C#2",
          "midi": 37,
          "time": 30.810780000000005,
          "velocity": 0.7086614173228346,
          "duration": 1.6148632500000026
        },
        {
          "name": "C#2",
          "midi": 37,
          "time": 32.43240000000001,
          "velocity": 0.7086614173228346,
          "duration": 1.614863249999999
        },
        {
          "name": "D2",
          "midi": 38,
          "time": 34.05402000000001,
          "velocity": 0.7086614173228346,
          "duration": 0.8040532500000026
        },
        {
          "name": "E2",
          "midi": 40,
          "time": 34.86483000000001,
          "velocity": 0.7086614173228346,
          "duration": 0.8040532500000026
        },
        {
          "name": "E2",
          "midi": 40,
          "time": 35.675640000000016,
          "velocity": 0.7086614173228346,
          "duration": 1.614863249999999
        },
        {
          "name": "E2",
          "midi": 40,
          "time": 37.297260000000016,
          "velocity": 0.7086614173228346,
          "duration": 1.614863249999999
        },
        {
          "name": "G1",
          "midi": 31,
          "time": 38.918880000000016,
          "velocity": 0.7086614173228346,
          "duration": 1.614863249999999
        },
        {
          "name": "C#2",
          "midi": 37,
          "time": 40.540500000000016,
          "velocity": 0.7086614173228346,
          "duration": 0.8040532500000026
        },
        {
          "name": "D2",
          "midi": 38,
          "time": 41.35131000000002,
          "velocity": 0.7086614173228346,
          "duration": 0.8040532500000026
        },
        {
          "name": "F#1",
          "midi": 30,
          "time": 42.16212000000002,
          "velocity": 0.7086614173228346,
          "duration": 1.614863249999999
        },
        {
          "name": "E1",
          "midi": 28,
          "time": 45.40536000000002,
          "velocity": 0.7086614173228346,
          "duration": 1.614863249999999
        },
        {
          "name": "F#1",
          "midi": 30,
          "time": 48.64860000000002,
          "velocity": 0.7086614173228346,
          "duration": 1.614863249999999
        },
        {
          "name": "B1",
          "midi": 35,
          "time": 51.89184000000002,
          "velocity": 0.7086614173228346,
          "duration": 0.19594574999999992
        },
        {
          "name": "B1",
          "midi": 35,
          "time": 52.094542500000024,
          "velocity": 0.7086614173228346,
          "duration": 0.19594574999999992
        },
        {
          "name": "F#1",
          "midi": 30,
          "time": 52.297245000000025,
          "velocity": 0.7086614173228346,
          "duration": 0.3986482500000008
        },
        {
          "name": "B1",
          "midi": 35,
          "time": 52.70265000000003,
          "velocity": 0.7086614173228346,
          "duration": 0.3986482500000008
        },
        {
          "name": "F#1",
          "midi": 30,
          "time": 53.31075750000003,
          "velocity": 0.7086614173228346,
          "duration": 0.19594574999999992
        },
        {
          "name": "B1",
          "midi": 35,
          "time": 53.51346000000003,
          "velocity": 0.7086614173228346,
          "duration": 0.19594574999999992
        },
        {
          "name": "B1",
          "midi": 35,
          "time": 53.71616250000003,
          "velocity": 0.7086614173228346,
          "duration": 0.19594574999999992
        },
        {
          "name": "F#1",
          "midi": 30,
          "time": 53.91886500000003,
          "velocity": 0.7086614173228346,
          "duration": 0.3986482500000008
        },
        {
          "name": "F#1",
          "midi": 30,
          "time": 55.13508000000003,
          "velocity": 0.7086614173228346,
          "duration": 0.19594574999999992
        },
        {
          "name": "F#1",
          "midi": 30,
          "time": 55.33778250000003,
          "velocity": 0.7086614173228346,
          "duration": 0.19594574999999992
        },
        {
          "name": "A#1",
          "midi": 34,
          "time": 55.54048500000003,
          "velocity": 0.7086614173228346,
          "duration": 0.3986482500000008
        },
        {
          "name": "F#2",
          "midi": 42,
          "time": 55.945890000000034,
          "velocity": 0.7086614173228346,
          "duration": 0.3986482500000008
        },
        {
          "name": "C#2",
          "midi": 37,
          "time": 56.55399750000004,
          "velocity": 0.7086614173228346,
          "duration": 0.19594574999999992
        },
        {
          "name": "F#2",
          "midi": 42,
          "time": 56.75670000000004,
          "velocity": 0.7086614173228346,
          "duration": 0.3986482500000008
        },
        {
          "name": "F#2",
          "midi": 42,
          "time": 56.95940250000004,
          "velocity": 0.7086614173228346,
          "duration": 0.19594574999999992
        },
        {
          "name": "C#2",
          "midi": 37,
          "time": 57.16210500000004,
          "velocity": 0.7086614173228346,
          "duration": 0.3986482500000008
        },
        {
          "name": "A1",
          "midi": 33,
          "time": 58.37832000000004,
          "velocity": 0.7086614173228346,
          "duration": 0.19594574999999992
        },
        {
          "name": "A1",
          "midi": 33,
          "time": 58.58102250000004,
          "velocity": 0.7086614173228346,
          "duration": 0.19594574999999992
        },
        {
          "name": "E2",
          "midi": 40,
          "time": 58.78372500000004,
          "velocity": 0.7086614173228346,
          "duration": 0.3986482500000008
        },
        {
          "name": "A2",
          "midi": 45,
          "time": 59.18913000000004,
          "velocity": 0.7086614173228346,
          "duration": 0.3986482500000008
        },
        {
          "name": "E2",
          "midi": 40,
          "time": 59.797237500000044,
          "velocity": 0.7086614173228346,
          "duration": 0.19594574999999992
        },
        {
          "name": "A2",
          "midi": 45,
          "time": 59.999940000000045,
          "velocity": 0.7086614173228346,
          "duration": 0.3986482500000008
        },
        {
          "name": "A2",
          "midi": 45,
          "time": 60.202642500000046,
          "velocity": 0.7086614173228346,
          "duration": 0.19594574999999992
        },
        {
          "name": "E2",
          "midi": 40,
          "time": 60.40534500000005,
          "velocity": 0.7086614173228346,
          "duration": 0.3986482500000008
        },
        {
          "name": "E1",
          "midi": 28,
          "time": 61.621560000000045,
          "velocity": 0.7086614173228346,
          "duration": 0.19594574999999992
        },
        {
          "name": "E1",
          "midi": 28,
          "time": 61.824262500000046,
          "velocity": 0.7086614173228346,
          "duration": 0.19594574999999992
        },
        {
          "name": "B1",
          "midi": 35,
          "time": 62.02696500000005,
          "velocity": 0.7086614173228346,
          "duration": 0.3986482500000008
        },
        {
          "name": "E2",
          "midi": 40,
          "time": 62.43237000000005,
          "velocity": 0.7086614173228346,
          "duration": 0.3986482500000008
        },
        {
          "name": "B1",
          "midi": 35,
          "time": 63.04047750000005,
          "velocity": 0.7086614173228346,
          "duration": 0.19594574999999992
        },
        {
          "name": "E2",
          "midi": 40,
          "time": 63.24318000000005,
          "velocity": 0.7086614173228346,
          "duration": 0.3986482500000008
        },
        {
          "name": "E2",
          "midi": 40,
          "time": 63.44588250000005,
          "velocity": 0.7086614173228346,
          "duration": 1.4121607499999982
        },
        {
          "name": "B1",
          "midi": 35,
          "time": 63.648585000000054,
          "velocity": 0.7086614173228346,
          "duration": 0.3986482499999937
        },
        {
          "name": "G1",
          "midi": 31,
          "time": 64.86480000000005,
          "velocity": 0.7086614173228346,
          "duration": 0.19594575000000702
        },
        {
          "name": "G1",
          "midi": 31,
          "time": 65.06750250000005,
          "velocity": 0.7086614173228346,
          "duration": 0.19594575000000702
        },
        {
          "name": "D2",
          "midi": 38,
          "time": 65.27020500000005,
          "velocity": 0.7086614173228346,
          "duration": 0.3986482499999937
        },
        {
          "name": "G2",
          "midi": 43,
          "time": 65.67561000000003,
          "velocity": 0.7086614173228346,
          "duration": 0.3986482499999937
        },
        {
          "name": "D2",
          "midi": 38,
          "time": 66.28371750000002,
          "velocity": 0.7086614173228346,
          "duration": 0.19594575000000702
        },
        {
          "name": "G2",
          "midi": 43,
          "time": 66.48642000000002,
          "velocity": 0.7086614173228346,
          "duration": 0.19594575000000702
        },
        {
          "name": "G2",
          "midi": 43,
          "time": 66.68912250000002,
          "velocity": 0.7086614173228346,
          "duration": 0.19594575000000702
        },
        {
          "name": "D2",
          "midi": 38,
          "time": 66.89182500000003,
          "velocity": 0.7086614173228346,
          "duration": 0.3986482499999937
        },
        {
          "name": "F#1",
          "midi": 30,
          "time": 68.10804000000002,
          "velocity": 0.7086614173228346,
          "duration": 0.19594575000000702
        },
        {
          "name": "A1",
          "midi": 33,
          "time": 68.31074250000002,
          "velocity": 0.7086614173228346,
          "duration": 0.19594575000000702
        },
        {
          "name": "D2",
          "midi": 38,
          "time": 68.51344500000002,
          "velocity": 0.7086614173228346,
          "duration": 0.3986482499999937
        },
        {
          "name": "F#2",
          "midi": 42,
          "time": 68.91885,
          "velocity": 0.7086614173228346,
          "duration": 0.3986482499999937
        },
        {
          "name": "D2",
          "midi": 38,
          "time": 69.5269575,
          "velocity": 0.7086614173228346,
          "duration": 0.19594575000000702
        },
        {
          "name": "F#2",
          "midi": 42,
          "time": 69.72966,
          "velocity": 0.7086614173228346,
          "duration": 0.19594575000000702
        },
        {
          "name": "F#2",
          "midi": 42,
          "time": 69.9323625,
          "velocity": 0.7086614173228346,
          "duration": 0.19594575000000702
        },
        {
          "name": "D2",
          "midi": 38,
          "time": 70.135065,
          "velocity": 0.7086614173228346,
          "duration": 0.3986482499999937
        },
        {
          "name": "E1",
          "midi": 28,
          "time": 71.35127999999999,
          "velocity": 0.7086614173228346,
          "duration": 0.19594575000000702
        },
        {
          "name": "G1",
          "midi": 31,
          "time": 71.55398249999999,
          "velocity": 0.7086614173228346,
          "duration": 0.19594575000000702
        },
        {
          "name": "B1",
          "midi": 35,
          "time": 71.75668499999999,
          "velocity": 0.7086614173228346,
          "duration": 0.3986482499999937
        },
        {
          "name": "E2",
          "midi": 40,
          "time": 72.16208999999998,
          "velocity": 0.7086614173228346,
          "duration": 0.3986482499999937
        },
        {
          "name": "B1",
          "midi": 35,
          "time": 72.77019749999997,
          "velocity": 0.7086614173228346,
          "duration": 0.19594575000000702
        },
        {
          "name": "E2",
          "midi": 40,
          "time": 72.97289999999997,
          "velocity": 0.7086614173228346,
          "duration": 0.19594575000000702
        },
        {
          "name": "E2",
          "midi": 40,
          "time": 73.17560249999997,
          "velocity": 0.7086614173228346,
          "duration": 0.19594575000000702
        },
        {
          "name": "B1",
          "midi": 35,
          "time": 73.37830499999997,
          "velocity": 0.7086614173228346,
          "duration": 0.3986482499999937
        },
        {
          "name": "F#1",
          "midi": 30,
          "time": 74.59451999999996,
          "velocity": 0.7086614173228346,
          "duration": 0.19594575000000702
        },
        {
          "name": "A1",
          "midi": 33,
          "time": 74.79722249999996,
          "velocity": 0.7086614173228346,
          "duration": 0.19594575000000702
        },
        {
          "name": "C#2",
          "midi": 37,
          "time": 74.99992499999996,
          "velocity": 0.7086614173228346,
          "duration": 0.3986482499999937
        },
        {
          "name": "F#2",
          "midi": 42,
          "time": 75.40532999999995,
          "velocity": 0.7086614173228346,
          "duration": 0.3986482499999937
        },
        {
          "name": "C#2",
          "midi": 37,
          "time": 76.01343749999994,
          "velocity": 0.7086614173228346,
          "duration": 0.19594575000000702
        },
        {
          "name": "F#2",
          "midi": 42,
          "time": 76.21613999999994,
          "velocity": 0.7086614173228346,
          "duration": 0.3986482499999937
        },
        {
          "name": "C#2",
          "midi": 37,
          "time": 76.82424749999993,
          "velocity": 0.7086614173228346,
          "duration": 0.19594575000000702
        },
        {
          "name": "F#2",
          "midi": 42,
          "time": 77.02694999999993,
          "velocity": 0.7086614173228346,
          "duration": 0.3986482499999937
        },
        {
          "name": "B1",
          "midi": 35,
          "time": 77.83775999999992,
          "velocity": 0.7086614173228346,
          "duration": 0.19594575000000702
        },
        {
          "name": "B1",
          "midi": 35,
          "time": 78.04046249999992,
          "velocity": 0.7086614173228346,
          "duration": 0.19594575000000702
        },
        {
          "name": "F#1",
          "midi": 30,
          "time": 78.24316499999992,
          "velocity": 0.7086614173228346,
          "duration": 0.3986482499999937
        },
        {
          "name": "B1",
          "midi": 35,
          "time": 78.6485699999999,
          "velocity": 0.7086614173228346,
          "duration": 0.3986482499999937
        },
        {
          "name": "F#1",
          "midi": 30,
          "time": 79.2566774999999,
          "velocity": 0.7086614173228346,
          "duration": 0.19594575000000702
        },
        {
          "name": "B1",
          "midi": 35,
          "time": 79.4593799999999,
          "velocity": 0.7086614173228346,
          "duration": 0.19594575000000702
        },
        {
          "name": "B1",
          "midi": 35,
          "time": 79.6620824999999,
          "velocity": 0.7086614173228346,
          "duration": 0.19594575000000702
        },
        {
          "name": "F#1",
          "midi": 30,
          "time": 79.8647849999999,
          "velocity": 0.7086614173228346,
          "duration": 0.3986482499999937
        },
        {
          "name": "F#1",
          "midi": 30,
          "time": 81.08099999999989,
          "velocity": 0.7086614173228346,
          "duration": 0.19594575000000702
        },
        {
          "name": "F#1",
          "midi": 30,
          "time": 81.28370249999989,
          "velocity": 0.7086614173228346,
          "duration": 0.19594575000000702
        },
        {
          "name": "A#1",
          "midi": 34,
          "time": 81.48640499999989,
          "velocity": 0.7086614173228346,
          "duration": 0.3986482499999937
        },
        {
          "name": "C#2",
          "midi": 37,
          "time": 81.89180999999988,
          "velocity": 0.7086614173228346,
          "duration": 0.3986482499999937
        },
        {
          "name": "A#1",
          "midi": 34,
          "time": 82.49991749999987,
          "velocity": 0.7086614173228346,
          "duration": 0.19594575000000702
        },
        {
          "name": "F#2",
          "midi": 42,
          "time": 82.70261999999987,
          "velocity": 0.7086614173228346,
          "duration": 0.3986482500000079
        },
        {
          "name": "F#2",
          "midi": 42,
          "time": 82.90532249999987,
          "velocity": 0.7086614173228346,
          "duration": 0.19594575000000702
        },
        {
          "name": "A#1",
          "midi": 34,
          "time": 83.10802499999987,
          "velocity": 0.7086614173228346,
          "duration": 0.3986482499999937
        },
        {
          "name": "A1",
          "midi": 33,
          "time": 84.32423999999986,
          "velocity": 0.7086614173228346,
          "duration": 0.19594575000000702
        },
        {
          "name": "A1",
          "midi": 33,
          "time": 84.52694249999986,
          "velocity": 0.7086614173228346,
          "duration": 0.19594575000000702
        },
        {
          "name": "E2",
          "midi": 40,
          "time": 84.72964499999986,
          "velocity": 0.7086614173228346,
          "duration": 0.3986482499999937
        },
        {
          "name": "A2",
          "midi": 45,
          "time": 85.13504999999985,
          "velocity": 0.7086614173228346,
          "duration": 0.3986482499999937
        },
        {
          "name": "E2",
          "midi": 40,
          "time": 85.74315749999984,
          "velocity": 0.7086614173228346,
          "duration": 0.19594575000000702
        },
        {
          "name": "A2",
          "midi": 45,
          "time": 85.94585999999984,
          "velocity": 0.7086614173228346,
          "duration": 0.3986482500000079
        },
        {
          "name": "A2",
          "midi": 45,
          "time": 86.14856249999984,
          "velocity": 0.7086614173228346,
          "duration": 0.19594575000000702
        },
        {
          "name": "E2",
          "midi": 40,
          "time": 86.35126499999984,
          "velocity": 0.7086614173228346,
          "duration": 0.3986482499999937
        },
        {
          "name": "E1",
          "midi": 28,
          "time": 87.56747999999983,
          "velocity": 0.7086614173228346,
          "duration": 0.19594575000000702
        },
        {
          "name": "E1",
          "midi": 28,
          "time": 87.77018249999983,
          "velocity": 0.7086614173228346,
          "duration": 0.19594575000000702
        },
        {
          "name": "B1",
          "midi": 35,
          "time": 87.97288499999983,
          "velocity": 0.7086614173228346,
          "duration": 0.3986482499999937
        },
        {
          "name": "E2",
          "midi": 40,
          "time": 88.37828999999982,
          "velocity": 0.7086614173228346,
          "duration": 0.6013507499999946
        },
        {
          "name": "B1",
          "midi": 35,
          "time": 88.98639749999981,
          "velocity": 0.7086614173228346,
          "duration": 0.19594575000000702
        },
        {
          "name": "E2",
          "midi": 40,
          "time": 89.18909999999981,
          "velocity": 0.7086614173228346,
          "duration": 1.614863249999999
        },
        {
          "name": "G1",
          "midi": 31,
          "time": 90.8107199999998,
          "velocity": 0.7086614173228346,
          "duration": 0.19594575000000702
        },
        {
          "name": "G1",
          "midi": 31,
          "time": 91.0134224999998,
          "velocity": 0.7086614173228346,
          "duration": 0.19594575000000702
        },
        {
          "name": "D2",
          "midi": 38,
          "time": 91.2161249999998,
          "velocity": 0.7086614173228346,
          "duration": 0.3986482499999937
        },
        {
          "name": "G2",
          "midi": 43,
          "time": 91.6215299999998,
          "velocity": 0.7086614173228346,
          "duration": 0.6013507499999946
        },
        {
          "name": "D2",
          "midi": 38,
          "time": 92.22963749999978,
          "velocity": 0.7086614173228346,
          "duration": 0.19594575000000702
        },
        {
          "name": "G2",
          "midi": 43,
          "time": 92.43233999999978,
          "velocity": 0.7086614173228346,
          "duration": 0.19594575000000702
        },
        {
          "name": "G2",
          "midi": 43,
          "time": 92.63504249999978,
          "velocity": 0.7086614173228346,
          "duration": 0.19594575000000702
        },
        {
          "name": "D2",
          "midi": 38,
          "time": 92.83774499999979,
          "velocity": 0.7086614173228346,
          "duration": 1.2094582499999973
        },
        {
          "name": "F#1",
          "midi": 30,
          "time": 94.05395999999978,
          "velocity": 0.7086614173228346,
          "duration": 0.19594575000000702
        },
        {
          "name": "A1",
          "midi": 33,
          "time": 94.25666249999978,
          "velocity": 0.7086614173228346,
          "duration": 0.19594575000000702
        },
        {
          "name": "D2",
          "midi": 38,
          "time": 94.45936499999978,
          "velocity": 0.7086614173228346,
          "duration": 0.3986482499999937
        },
        {
          "name": "F#2",
          "midi": 42,
          "time": 94.86476999999977,
          "velocity": 0.7086614173228346,
          "duration": 0.3986482499999937
        },
        {
          "name": "D2",
          "midi": 38,
          "time": 95.47287749999975,
          "velocity": 0.7086614173228346,
          "duration": 0.19594575000000702
        },
        {
          "name": "F#2",
          "midi": 42,
          "time": 95.67557999999975,
          "velocity": 0.7086614173228346,
          "duration": 0.19594575000000702
        },
        {
          "name": "F#2",
          "midi": 42,
          "time": 95.87828249999976,
          "velocity": 0.7086614173228346,
          "duration": 0.19594575000000702
        },
        {
          "name": "D2",
          "midi": 38,
          "time": 96.08098499999976,
          "velocity": 0.7086614173228346,
          "duration": 0.3986482499999937
        },
        {
          "name": "E1",
          "midi": 28,
          "time": 97.29719999999975,
          "velocity": 0.7086614173228346,
          "duration": 0.19594575000000702
        },
        {
          "name": "G1",
          "midi": 31,
          "time": 97.49990249999975,
          "velocity": 0.7086614173228346,
          "duration": 0.19594575000000702
        },
        {
          "name": "B1",
          "midi": 35,
          "time": 97.70260499999975,
          "velocity": 0.7086614173228346,
          "duration": 0.3986482499999937
        },
        {
          "name": "E2",
          "midi": 40,
          "time": 98.10800999999974,
          "velocity": 0.7086614173228346,
          "duration": 0.3986482499999937
        },
        {
          "name": "B1",
          "midi": 35,
          "time": 98.71611749999973,
          "velocity": 0.7086614173228346,
          "duration": 0.19594575000000702
        },
        {
          "name": "E2",
          "midi": 40,
          "time": 98.91881999999973,
          "velocity": 0.7086614173228346,
          "duration": 0.19594575000000702
        },
        {
          "name": "E2",
          "midi": 40,
          "time": 99.12152249999973,
          "velocity": 0.7086614173228346,
          "duration": 0.19594575000000702
        },
        {
          "name": "B1",
          "midi": 35,
          "time": 99.32422499999973,
          "velocity": 0.7086614173228346,
          "duration": 0.3986482499999937
        },
        {
          "name": "F#1",
          "midi": 30,
          "time": 100.54043999999972,
          "velocity": 0.7086614173228346,
          "duration": 0.19594575000000702
        },
        {
          "name": "A1",
          "midi": 33,
          "time": 100.74314249999972,
          "velocity": 0.7086614173228346,
          "duration": 0.19594575000000702
        },
        {
          "name": "C#2",
          "midi": 37,
          "time": 100.94584499999972,
          "velocity": 0.7086614173228346,
          "duration": 0.19594575000000702
        },
        {
          "name": "F#2",
          "midi": 42,
          "time": 101.14854749999972,
          "velocity": 0.7086614173228346,
          "duration": 0.8040532499999955
        },
        {
          "name": "C#2",
          "midi": 37,
          "time": 101.95935749999971,
          "velocity": 0.7086614173228346,
          "duration": 0.19594575000000702
        },
        {
          "name": "F#2",
          "midi": 42,
          "time": 102.16205999999971,
          "velocity": 0.7086614173228346,
          "duration": 0.3986482499999937
        },
        {
          "name": "B1",
          "midi": 35,
          "time": 102.9728699999997,
          "velocity": 0.7086614173228346,
          "duration": 0.3986482500000079
        },
        {
          "name": "C#2",
          "midi": 37,
          "time": 103.1755724999997,
          "velocity": 0.7086614173228346,
          "duration": 0.19594575000000702
        },
        {
          "name": "D2",
          "midi": 38,
          "time": 103.3782749999997,
          "velocity": 0.7086614173228346,
          "duration": 0.19594575000000702
        },
        {
          "name": "F#2",
          "midi": 42,
          "time": 103.5809774999997,
          "velocity": 0.7086614173228346,
          "duration": 0.19594575000000702
        },
        {
          "name": "G2",
          "midi": 43,
          "time": 103.7836799999997,
          "velocity": 0.7086614173228346,
          "duration": 0.19594575000000702
        },
        {
          "name": "D2",
          "midi": 38,
          "time": 103.9863824999997,
          "velocity": 0.7086614173228346,
          "duration": 0.19594575000000702
        },
        {
          "name": "G1",
          "midi": 31,
          "time": 104.18908499999971,
          "velocity": 0.7086614173228346,
          "duration": 0.3986482499999937
        },
        {
          "name": "G2",
          "midi": 43,
          "time": 104.18908499999971,
          "velocity": 0.7086614173228346,
          "duration": 0.3986482499999937
        },
        {
          "name": "D2",
          "midi": 38,
          "time": 105.2025974999997,
          "velocity": 0.7086614173228346,
          "duration": 0.19594575000000702
        },
        {
          "name": "G2",
          "midi": 43,
          "time": 105.4052999999997,
          "velocity": 0.7086614173228346,
          "duration": 0.3986482499999937
        },
        {
          "name": "D2",
          "midi": 38,
          "time": 106.01340749999969,
          "velocity": 0.7086614173228346,
          "duration": 0.19594575000000702
        },
        {
          "name": "G2",
          "midi": 43,
          "time": 106.21610999999969,
          "velocity": 0.7086614173228346,
          "duration": 0.3986482499999937
        },
        {
          "name": "C#2",
          "midi": 37,
          "time": 106.82421749999968,
          "velocity": 0.7086614173228346,
          "duration": 0.19594575000000702
        },
        {
          "name": "D2",
          "midi": 38,
          "time": 107.02691999999968,
          "velocity": 0.7086614173228346,
          "duration": 0.19594575000000702
        },
        {
          "name": "A1",
          "midi": 33,
          "time": 107.22962249999968,
          "velocity": 0.7086614173228346,
          "duration": 0.19594575000000702
        },
        {
          "name": "D1",
          "midi": 26,
          "time": 107.43232499999968,
          "velocity": 0.7086614173228346,
          "duration": 0.3986482499999937
        },
        {
          "name": "D2",
          "midi": 38,
          "time": 107.43232499999968,
          "velocity": 0.7086614173228346,
          "duration": 0.3986482499999937
        },
        {
          "name": "A1",
          "midi": 33,
          "time": 108.44583749999967,
          "velocity": 0.7086614173228346,
          "duration": 0.19594575000000702
        },
        {
          "name": "D2",
          "midi": 38,
          "time": 108.64853999999967,
          "velocity": 0.7086614173228346,
          "duration": 0.3986482499999937
        },
        {
          "name": "A1",
          "midi": 33,
          "time": 109.25664749999966,
          "velocity": 0.7086614173228346,
          "duration": 0.19594575000000702
        },
        {
          "name": "D2",
          "midi": 38,
          "time": 109.45934999999966,
          "velocity": 0.7086614173228346,
          "duration": 0.3986482499999937
        },
        {
          "name": "F#2",
          "midi": 42,
          "time": 110.06745749999965,
          "velocity": 0.7086614173228346,
          "duration": 0.19594575000000702
        },
        {
          "name": "F#2",
          "midi": 42,
          "time": 110.27015999999965,
          "velocity": 0.7086614173228346,
          "duration": 0.19594575000000702
        },
        {
          "name": "C#2",
          "midi": 37,
          "time": 110.47286249999965,
          "velocity": 0.7086614173228346,
          "duration": 0.19594575000000702
        },
        {
          "name": "F#2",
          "midi": 42,
          "time": 110.67556499999965,
          "velocity": 0.7086614173228346,
          "duration": 0.3986482499999937
        },
        {
          "name": "F#1",
          "midi": 30,
          "time": 110.67556499999965,
          "velocity": 0.7086614173228346,
          "duration": 0.3986482499999937
        },
        {
          "name": "C#2",
          "midi": 37,
          "time": 111.68907749999964,
          "velocity": 0.7086614173228346,
          "duration": 0.19594575000000702
        },
        {
          "name": "F#2",
          "midi": 42,
          "time": 111.89177999999964,
          "velocity": 0.7086614173228346,
          "duration": 0.3986482499999937
        },
        {
          "name": "C#2",
          "midi": 37,
          "time": 112.49988749999963,
          "velocity": 0.7086614173228346,
          "duration": 0.19594575000000702
        },
        {
          "name": "F#2",
          "midi": 42,
          "time": 112.70258999999963,
          "velocity": 0.7086614173228346,
          "duration": 0.3986482499999937
        },
        {
          "name": "B1",
          "midi": 35,
          "time": 113.51339999999962,
          "velocity": 0.7086614173228346,
          "duration": 0.8040532499999955
        },
        {
          "name": "C#2",
          "midi": 37,
          "time": 114.32420999999961,
          "velocity": 0.7086614173228346,
          "duration": 0.8040532499999955
        },
        {
          "name": "D2",
          "midi": 38,
          "time": 115.1350199999996,
          "velocity": 0.7086614173228346,
          "duration": 0.8040532499999955
        },
        {
          "name": "E2",
          "midi": 40,
          "time": 115.94582999999959,
          "velocity": 0.7086614173228346,
          "duration": 0.3986482499999937
        },
        {
          "name": "F#2",
          "midi": 42,
          "time": 116.35123499999958,
          "velocity": 0.7086614173228346,
          "duration": 0.3986482499999937
        },
        {
          "name": "G2",
          "midi": 43,
          "time": 116.75663999999956,
          "velocity": 0.7086614173228346,
          "duration": 0.19594575000000702
        },
        {
          "name": "D2",
          "midi": 38,
          "time": 116.95934249999956,
          "velocity": 0.7086614173228346,
          "duration": 0.19594575000000702
        },
        {
          "name": "G1",
          "midi": 31,
          "time": 117.16204499999957,
          "velocity": 0.7086614173228346,
          "duration": 0.19594575000000702
        },
        {
          "name": "G2",
          "midi": 43,
          "time": 117.16204499999957,
          "velocity": 0.7086614173228346,
          "duration": 0.19594575000000702
        },
        {
          "name": "D2",
          "midi": 38,
          "time": 118.17555749999957,
          "velocity": 0.7086614173228346,
          "duration": 0.19594575000000702
        },
        {
          "name": "G2",
          "midi": 43,
          "time": 118.37825999999957,
          "velocity": 0.7086614173228346,
          "duration": 0.3986482499999937
        },
        {
          "name": "D2",
          "midi": 38,
          "time": 118.98636749999956,
          "velocity": 0.7086614173228346,
          "duration": 0.19594575000000702
        },
        {
          "name": "G2",
          "midi": 43,
          "time": 119.18906999999956,
          "velocity": 0.7086614173228346,
          "duration": 0.3986482499999937
        },
        {
          "name": "C#2",
          "midi": 37,
          "time": 119.79717749999955,
          "velocity": 0.7086614173228346,
          "duration": 0.19594575000000702
        },
        {
          "name": "D2",
          "midi": 38,
          "time": 119.99987999999955,
          "velocity": 0.7086614173228346,
          "duration": 0.19594575000000702
        },
        {
          "name": "A1",
          "midi": 33,
          "time": 120.20258249999955,
          "velocity": 0.7086614173228346,
          "duration": 0.19594575000000702
        },
        {
          "name": "D2",
          "midi": 38,
          "time": 120.40528499999955,
          "velocity": 0.7086614173228346,
          "duration": 0.3986482499999937
        },
        {
          "name": "D1",
          "midi": 26,
          "time": 120.40528499999955,
          "velocity": 0.7086614173228346,
          "duration": 0.3986482499999937
        },
        {
          "name": "A1",
          "midi": 33,
          "time": 121.41879749999954,
          "velocity": 0.7086614173228346,
          "duration": 0.19594575000000702
        },
        {
          "name": "D2",
          "midi": 38,
          "time": 121.62149999999954,
          "velocity": 0.7086614173228346,
          "duration": 0.3986482499999937
        },
        {
          "name": "A1",
          "midi": 33,
          "time": 122.22960749999953,
          "velocity": 0.7086614173228346,
          "duration": 0.19594575000000702
        },
        {
          "name": "D2",
          "midi": 38,
          "time": 122.43230999999953,
          "velocity": 0.7086614173228346,
          "duration": 0.3986482499999937
        },
        {
          "name": "F#2",
          "midi": 42,
          "time": 123.04041749999952,
          "velocity": 0.7086614173228346,
          "duration": 0.19594575000000702
        },
        {
          "name": "G2",
          "midi": 43,
          "time": 123.24311999999952,
          "velocity": 0.7086614173228346,
          "duration": 0.19594575000000702
        },
        {
          "name": "B1",
          "midi": 35,
          "time": 123.44582249999952,
          "velocity": 0.7086614173228346,
          "duration": 0.19594575000000702
        },
        {
          "name": "E1",
          "midi": 28,
          "time": 123.64852499999952,
          "velocity": 0.7086614173228346,
          "duration": 0.3986482499999937
        },
        {
          "name": "E2",
          "midi": 40,
          "time": 123.64852499999952,
          "velocity": 0.7086614173228346,
          "duration": 0.3986482499999937
        },
        {
          "name": "B1",
          "midi": 35,
          "time": 124.66203749999951,
          "velocity": 0.7086614173228346,
          "duration": 0.19594575000000702
        },
        {
          "name": "E2",
          "midi": 40,
          "time": 124.86473999999951,
          "velocity": 0.7086614173228346,
          "duration": 0.3986482499999937
        },
        {
          "name": "B1",
          "midi": 35,
          "time": 125.4728474999995,
          "velocity": 0.7086614173228346,
          "duration": 0.19594575000000702
        },
        {
          "name": "E2",
          "midi": 40,
          "time": 125.6755499999995,
          "velocity": 0.7086614173228346,
          "duration": 0.3986482499999937
        },
        {
          "name": "G2",
          "midi": 43,
          "time": 126.28365749999949,
          "velocity": 0.7086614173228346,
          "duration": 0.19594575000000702
        },
        {
          "name": "F#2",
          "midi": 42,
          "time": 126.4863599999995,
          "velocity": 0.7086614173228346,
          "duration": 0.19594575000000702
        },
        {
          "name": "C#2",
          "midi": 37,
          "time": 126.6890624999995,
          "velocity": 0.7086614173228346,
          "duration": 0.19594575000000702
        },
        {
          "name": "F#2",
          "midi": 42,
          "time": 126.8917649999995,
          "velocity": 0.7086614173228346,
          "duration": 0.3986482499999937
        },
        {
          "name": "F#1",
          "midi": 30,
          "time": 126.8917649999995,
          "velocity": 0.7086614173228346,
          "duration": 0.3986482499999937
        },
        {
          "name": "C#2",
          "midi": 37,
          "time": 127.90527749999949,
          "velocity": 0.7086614173228346,
          "duration": 0.19594575000000702
        },
        {
          "name": "F#2",
          "midi": 42,
          "time": 128.1079799999995,
          "velocity": 0.7086614173228346,
          "duration": 0.3986482500000079
        },
        {
          "name": "B1",
          "midi": 35,
          "time": 129.7295999999995,
          "velocity": 0.7086614173228346,
          "duration": 0.1959457499999928
        },
        {
          "name": "B1",
          "midi": 35,
          "time": 129.93230249999948,
          "velocity": 0.7086614173228346,
          "duration": 0.1959457499999928
        },
        {
          "name": "F#1",
          "midi": 30,
          "time": 130.13500499999947,
          "velocity": 0.7086614173228346,
          "duration": 0.3986482500000079
        },
        {
          "name": "B1",
          "midi": 35,
          "time": 130.54040999999947,
          "velocity": 0.7086614173228346,
          "duration": 0.3986482500000079
        },
        {
          "name": "F#1",
          "midi": 30,
          "time": 131.14851749999949,
          "velocity": 0.7086614173228346,
          "duration": 0.1959457499999928
        },
        {
          "name": "B1",
          "midi": 35,
          "time": 131.35121999999947,
          "velocity": 0.7086614173228346,
          "duration": 0.1959457499999928
        },
        {
          "name": "B1",
          "midi": 35,
          "time": 131.55392249999946,
          "velocity": 0.7086614173228346,
          "duration": 0.1959457499999928
        },
        {
          "name": "F#1",
          "midi": 30,
          "time": 131.75662499999945,
          "velocity": 0.7086614173228346,
          "duration": 0.3986482500000079
        },
        {
          "name": "F#1",
          "midi": 30,
          "time": 132.97283999999945,
          "velocity": 0.7086614173228346,
          "duration": 0.1959457499999928
        },
        {
          "name": "F#1",
          "midi": 30,
          "time": 133.17554249999944,
          "velocity": 0.7086614173228346,
          "duration": 0.1959457499999928
        },
        {
          "name": "A#1",
          "midi": 34,
          "time": 133.37824499999942,
          "velocity": 0.7086614173228346,
          "duration": 0.3986482500000079
        },
        {
          "name": "C#2",
          "midi": 37,
          "time": 133.78364999999943,
          "velocity": 0.7086614173228346,
          "duration": 0.3986482500000079
        },
        {
          "name": "A#1",
          "midi": 34,
          "time": 134.39175749999944,
          "velocity": 0.7086614173228346,
          "duration": 0.1959457499999928
        },
        {
          "name": "F#2",
          "midi": 42,
          "time": 134.59445999999943,
          "velocity": 0.7086614173228346,
          "duration": 0.3986482499999795
        },
        {
          "name": "F#2",
          "midi": 42,
          "time": 134.79716249999942,
          "velocity": 0.7086614173228346,
          "duration": 0.1959457499999928
        },
        {
          "name": "A#1",
          "midi": 34,
          "time": 134.9998649999994,
          "velocity": 0.7086614173228346,
          "duration": 0.3986482500000079
        },
        {
          "name": "A1",
          "midi": 33,
          "time": 136.2160799999994,
          "velocity": 0.7086614173228346,
          "duration": 0.1959457499999928
        },
        {
          "name": "A1",
          "midi": 33,
          "time": 136.4187824999994,
          "velocity": 0.7086614173228346,
          "duration": 0.1959457499999928
        },
        {
          "name": "E2",
          "midi": 40,
          "time": 136.62148499999938,
          "velocity": 0.7086614173228346,
          "duration": 0.3986482500000079
        },
        {
          "name": "A2",
          "midi": 45,
          "time": 137.02688999999938,
          "velocity": 0.7086614173228346,
          "duration": 0.3986482500000079
        },
        {
          "name": "E2",
          "midi": 40,
          "time": 137.6349974999994,
          "velocity": 0.7086614173228346,
          "duration": 0.1959457499999928
        },
        {
          "name": "A2",
          "midi": 45,
          "time": 137.8376999999994,
          "velocity": 0.7086614173228346,
          "duration": 0.3986482499999795
        },
        {
          "name": "A2",
          "midi": 45,
          "time": 138.04040249999937,
          "velocity": 0.7086614173228346,
          "duration": 0.1959457499999928
        },
        {
          "name": "E2",
          "midi": 40,
          "time": 138.24310499999936,
          "velocity": 0.7086614173228346,
          "duration": 0.3986482500000079
        },
        {
          "name": "E1",
          "midi": 28,
          "time": 139.45931999999937,
          "velocity": 0.7086614173228346,
          "duration": 0.1959457499999928
        },
        {
          "name": "E1",
          "midi": 28,
          "time": 139.66202249999935,
          "velocity": 0.7086614173228346,
          "duration": 0.1959457499999928
        },
        {
          "name": "B1",
          "midi": 35,
          "time": 139.86472499999934,
          "velocity": 0.7086614173228346,
          "duration": 0.3986482500000079
        },
        {
          "name": "E2",
          "midi": 40,
          "time": 140.27012999999934,
          "velocity": 0.7086614173228346,
          "duration": 0.3986482500000079
        },
        {
          "name": "B1",
          "midi": 35,
          "time": 140.87823749999936,
          "velocity": 0.7086614173228346,
          "duration": 0.1959457499999928
        },
        {
          "name": "E2",
          "midi": 40,
          "time": 141.08093999999934,
          "velocity": 0.7086614173228346,
          "duration": 0.3986482499999795
        },
        {
          "name": "E2",
          "midi": 40,
          "time": 141.28364249999933,
          "velocity": 0.7086614173228346,
          "duration": 1.4121607499999982
        },
        {
          "name": "B1",
          "midi": 35,
          "time": 141.48634499999932,
          "velocity": 0.7086614173228346,
          "duration": 0.3986482500000079
        },
        {
          "name": "G1",
          "midi": 31,
          "time": 142.70255999999932,
          "velocity": 0.7086614173228346,
          "duration": 0.1959457499999928
        },
        {
          "name": "G1",
          "midi": 31,
          "time": 142.9052624999993,
          "velocity": 0.7086614173228346,
          "duration": 0.1959457499999928
        },
        {
          "name": "D2",
          "midi": 38,
          "time": 143.1079649999993,
          "velocity": 0.7086614173228346,
          "duration": 0.3986482500000079
        },
        {
          "name": "G2",
          "midi": 43,
          "time": 143.5133699999993,
          "velocity": 0.7086614173228346,
          "duration": 0.3986482500000079
        },
        {
          "name": "D2",
          "midi": 38,
          "time": 144.12147749999932,
          "velocity": 0.7086614173228346,
          "duration": 0.1959457499999928
        },
        {
          "name": "G2",
          "midi": 43,
          "time": 144.3241799999993,
          "velocity": 0.7086614173228346,
          "duration": 0.1959457499999928
        },
        {
          "name": "G2",
          "midi": 43,
          "time": 144.5268824999993,
          "velocity": 0.7086614173228346,
          "duration": 0.1959457499999928
        },
        {
          "name": "D2",
          "midi": 38,
          "time": 144.72958499999928,
          "velocity": 0.7086614173228346,
          "duration": 0.3986482500000079
        },
        {
          "name": "F#1",
          "midi": 30,
          "time": 145.94579999999928,
          "velocity": 0.7086614173228346,
          "duration": 0.1959457499999928
        },
        {
          "name": "A1",
          "midi": 33,
          "time": 146.14850249999927,
          "velocity": 0.7086614173228346,
          "duration": 0.1959457499999928
        },
        {
          "name": "D2",
          "midi": 38,
          "time": 146.35120499999925,
          "velocity": 0.7086614173228346,
          "duration": 0.3986482500000079
        },
        {
          "name": "F#2",
          "midi": 42,
          "time": 146.75660999999926,
          "velocity": 0.7086614173228346,
          "duration": 0.3986482500000079
        },
        {
          "name": "D2",
          "midi": 38,
          "time": 147.36471749999927,
          "velocity": 0.7086614173228346,
          "duration": 0.1959457499999928
        },
        {
          "name": "F#2",
          "midi": 42,
          "time": 147.56741999999926,
          "velocity": 0.7086614173228346,
          "duration": 0.1959457499999928
        },
        {
          "name": "F#2",
          "midi": 42,
          "time": 147.77012249999925,
          "velocity": 0.7086614173228346,
          "duration": 0.1959457499999928
        },
        {
          "name": "D2",
          "midi": 38,
          "time": 147.97282499999923,
          "velocity": 0.7086614173228346,
          "duration": 0.3986482500000079
        },
        {
          "name": "E1",
          "midi": 28,
          "time": 149.18903999999924,
          "velocity": 0.7086614173228346,
          "duration": 0.1959457499999928
        },
        {
          "name": "G1",
          "midi": 31,
          "time": 149.39174249999922,
          "velocity": 0.7086614173228346,
          "duration": 0.1959457499999928
        },
        {
          "name": "B1",
          "midi": 35,
          "time": 149.5944449999992,
          "velocity": 0.7086614173228346,
          "duration": 0.3986482500000079
        },
        {
          "name": "E2",
          "midi": 40,
          "time": 149.9998499999992,
          "velocity": 0.7086614173228346,
          "duration": 0.3986482500000079
        },
        {
          "name": "B1",
          "midi": 35,
          "time": 150.60795749999923,
          "velocity": 0.7086614173228346,
          "duration": 0.1959457499999928
        },
        {
          "name": "E2",
          "midi": 40,
          "time": 150.81065999999922,
          "velocity": 0.7086614173228346,
          "duration": 0.1959457499999928
        },
        {
          "name": "E2",
          "midi": 40,
          "time": 151.0133624999992,
          "velocity": 0.7086614173228346,
          "duration": 0.1959457499999928
        },
        {
          "name": "B1",
          "midi": 35,
          "time": 151.2160649999992,
          "velocity": 0.7086614173228346,
          "duration": 0.3986482500000079
        },
        {
          "name": "F#1",
          "midi": 30,
          "time": 152.4322799999992,
          "velocity": 0.7086614173228346,
          "duration": 0.1959457499999928
        },
        {
          "name": "A1",
          "midi": 33,
          "time": 152.63498249999918,
          "velocity": 0.7086614173228346,
          "duration": 0.1959457499999928
        },
        {
          "name": "C#2",
          "midi": 37,
          "time": 152.83768499999917,
          "velocity": 0.7086614173228346,
          "duration": 0.1959457499999928
        },
        {
          "name": "F#2",
          "midi": 42,
          "time": 153.04038749999916,
          "velocity": 0.7086614173228346,
          "duration": 0.8040532500000097
        },
        {
          "name": "C#2",
          "midi": 37,
          "time": 153.85119749999916,
          "velocity": 0.7086614173228346,
          "duration": 0.1959457499999928
        },
        {
          "name": "F#2",
          "midi": 42,
          "time": 154.05389999999915,
          "velocity": 0.7086614173228346,
          "duration": 0.3986482500000079
        },
        {
          "name": "C#2",
          "midi": 37,
          "time": 154.66200749999916,
          "velocity": 0.7086614173228346,
          "duration": 0.1959457499999928
        },
        {
          "name": "F#2",
          "midi": 42,
          "time": 154.86470999999915,
          "velocity": 0.7086614173228346,
          "duration": 0.3986482500000079
        },
        {
          "name": "B1",
          "midi": 35,
          "time": 155.67551999999915,
          "velocity": 0.7086614173228346,
          "duration": 0.1959457499999928
        },
        {
          "name": "B1",
          "midi": 35,
          "time": 155.87822249999914,
          "velocity": 0.7086614173228346,
          "duration": 0.1959457499999928
        },
        {
          "name": "F#1",
          "midi": 30,
          "time": 156.08092499999913,
          "velocity": 0.7086614173228346,
          "duration": 0.3986482500000079
        },
        {
          "name": "B1",
          "midi": 35,
          "time": 156.48632999999913,
          "velocity": 0.7086614173228346,
          "duration": 0.3986482500000079
        },
        {
          "name": "F#1",
          "midi": 30,
          "time": 157.09443749999915,
          "velocity": 0.7086614173228346,
          "duration": 0.1959457499999928
        },
        {
          "name": "B1",
          "midi": 35,
          "time": 157.29713999999913,
          "velocity": 0.7086614173228346,
          "duration": 0.1959457499999928
        },
        {
          "name": "B1",
          "midi": 35,
          "time": 157.49984249999912,
          "velocity": 0.7086614173228346,
          "duration": 0.1959457499999928
        },
        {
          "name": "F#1",
          "midi": 30,
          "time": 157.7025449999991,
          "velocity": 0.7086614173228346,
          "duration": 0.3986482500000079
        },
        {
          "name": "F#1",
          "midi": 30,
          "time": 158.9187599999991,
          "velocity": 0.7086614173228346,
          "duration": 0.1959457499999928
        },
        {
          "name": "F#1",
          "midi": 30,
          "time": 159.1214624999991,
          "velocity": 0.7086614173228346,
          "duration": 0.1959457499999928
        },
        {
          "name": "A#1",
          "midi": 34,
          "time": 159.32416499999908,
          "velocity": 0.7086614173228346,
          "duration": 0.3986482500000079
        },
        {
          "name": "C#2",
          "midi": 37,
          "time": 159.7295699999991,
          "velocity": 0.7086614173228346,
          "duration": 0.3986482500000079
        },
        {
          "name": "A#1",
          "midi": 34,
          "time": 160.3376774999991,
          "velocity": 0.7086614173228346,
          "duration": 0.1959457499999928
        },
        {
          "name": "F#2",
          "midi": 42,
          "time": 160.5403799999991,
          "velocity": 0.7086614173228346,
          "duration": 0.3986482499999795
        },
        {
          "name": "F#2",
          "midi": 42,
          "time": 160.74308249999908,
          "velocity": 0.7086614173228346,
          "duration": 0.1959457499999928
        },
        {
          "name": "A#1",
          "midi": 34,
          "time": 160.94578499999906,
          "velocity": 0.7086614173228346,
          "duration": 0.3986482500000079
        },
        {
          "name": "A1",
          "midi": 33,
          "time": 162.16199999999907,
          "velocity": 0.7086614173228346,
          "duration": 0.1959457499999928
        },
        {
          "name": "A1",
          "midi": 33,
          "time": 162.36470249999905,
          "velocity": 0.7086614173228346,
          "duration": 0.1959457499999928
        },
        {
          "name": "E2",
          "midi": 40,
          "time": 162.56740499999904,
          "velocity": 0.7086614173228346,
          "duration": 0.3986482500000079
        },
        {
          "name": "A2",
          "midi": 45,
          "time": 162.97280999999904,
          "velocity": 0.7086614173228346,
          "duration": 0.3986482500000079
        },
        {
          "name": "E2",
          "midi": 40,
          "time": 163.58091749999906,
          "velocity": 0.7086614173228346,
          "duration": 0.1959457499999928
        },
        {
          "name": "A2",
          "midi": 45,
          "time": 163.78361999999905,
          "velocity": 0.7086614173228346,
          "duration": 0.3986482499999795
        },
        {
          "name": "A2",
          "midi": 45,
          "time": 163.98632249999903,
          "velocity": 0.7086614173228346,
          "duration": 0.1959457499999928
        },
        {
          "name": "E2",
          "midi": 40,
          "time": 164.18902499999902,
          "velocity": 0.7086614173228346,
          "duration": 0.3986482500000079
        },
        {
          "name": "E1",
          "midi": 28,
          "time": 165.40523999999903,
          "velocity": 0.7086614173228346,
          "duration": 0.1959457499999928
        },
        {
          "name": "E1",
          "midi": 28,
          "time": 165.607942499999,
          "velocity": 0.7086614173228346,
          "duration": 0.1959457499999928
        },
        {
          "name": "B1",
          "midi": 35,
          "time": 165.810644999999,
          "velocity": 0.7086614173228346,
          "duration": 0.3986482500000079
        },
        {
          "name": "E2",
          "midi": 40,
          "time": 166.216049999999,
          "velocity": 0.7086614173228346,
          "duration": 0.3986482500000079
        },
        {
          "name": "B1",
          "midi": 35,
          "time": 166.82415749999902,
          "velocity": 0.7086614173228346,
          "duration": 0.1959457499999928
        },
        {
          "name": "E2",
          "midi": 40,
          "time": 167.026859999999,
          "velocity": 0.7086614173228346,
          "duration": 0.3986482499999795
        },
        {
          "name": "E2",
          "midi": 40,
          "time": 167.229562499999,
          "velocity": 0.7086614173228346,
          "duration": 1.4121607499999982
        },
        {
          "name": "B1",
          "midi": 35,
          "time": 167.43226499999898,
          "velocity": 0.7086614173228346,
          "duration": 0.3986482500000079
        },
        {
          "name": "G1",
          "midi": 31,
          "time": 168.64847999999898,
          "velocity": 0.7086614173228346,
          "duration": 0.1959457499999928
        },
        {
          "name": "G1",
          "midi": 31,
          "time": 168.85118249999897,
          "velocity": 0.7086614173228346,
          "duration": 0.1959457499999928
        },
        {
          "name": "D2",
          "midi": 38,
          "time": 169.05388499999896,
          "velocity": 0.7086614173228346,
          "duration": 0.3986482500000079
        },
        {
          "name": "G2",
          "midi": 43,
          "time": 169.45928999999896,
          "velocity": 0.7086614173228346,
          "duration": 0.3986482500000079
        },
        {
          "name": "D2",
          "midi": 38,
          "time": 170.06739749999898,
          "velocity": 0.7086614173228346,
          "duration": 0.1959457499999928
        },
        {
          "name": "G2",
          "midi": 43,
          "time": 170.27009999999896,
          "velocity": 0.7086614173228346,
          "duration": 0.1959457499999928
        },
        {
          "name": "G2",
          "midi": 43,
          "time": 170.47280249999895,
          "velocity": 0.7086614173228346,
          "duration": 0.1959457499999928
        },
        {
          "name": "D2",
          "midi": 38,
          "time": 170.67550499999894,
          "velocity": 0.7086614173228346,
          "duration": 0.1959457499999928
        },
        {
          "name": "F#1",
          "midi": 30,
          "time": 171.89171999999894,
          "velocity": 0.7086614173228346,
          "duration": 0.1959457499999928
        },
        {
          "name": "A1",
          "midi": 33,
          "time": 172.09442249999893,
          "velocity": 0.7086614173228346,
          "duration": 0.1959457499999928
        },
        {
          "name": "D2",
          "midi": 38,
          "time": 172.2971249999989,
          "velocity": 0.7086614173228346,
          "duration": 0.3986482500000079
        },
        {
          "name": "F#2",
          "midi": 42,
          "time": 172.70252999999892,
          "velocity": 0.7086614173228346,
          "duration": 0.3986482500000079
        },
        {
          "name": "D2",
          "midi": 38,
          "time": 173.31063749999893,
          "velocity": 0.7086614173228346,
          "duration": 0.1959457499999928
        },
        {
          "name": "F#2",
          "midi": 42,
          "time": 173.51333999999892,
          "velocity": 0.7086614173228346,
          "duration": 0.1959457499999928
        },
        {
          "name": "F#2",
          "midi": 42,
          "time": 173.7160424999989,
          "velocity": 0.7086614173228346,
          "duration": 0.1959457499999928
        },
        {
          "name": "D2",
          "midi": 38,
          "time": 173.9187449999989,
          "velocity": 0.7086614173228346,
          "duration": 0.3986482500000079
        },
        {
          "name": "E1",
          "midi": 28,
          "time": 175.1349599999989,
          "velocity": 0.7086614173228346,
          "duration": 0.1959457499999928
        },
        {
          "name": "G1",
          "midi": 31,
          "time": 175.33766249999888,
          "velocity": 0.7086614173228346,
          "duration": 0.1959457499999928
        },
        {
          "name": "B1",
          "midi": 35,
          "time": 175.54036499999887,
          "velocity": 0.7086614173228346,
          "duration": 0.3986482500000079
        },
        {
          "name": "E2",
          "midi": 40,
          "time": 175.94576999999887,
          "velocity": 0.7086614173228346,
          "duration": 0.3986482500000079
        },
        {
          "name": "B1",
          "midi": 35,
          "time": 176.5538774999989,
          "velocity": 0.7086614173228346,
          "duration": 0.1959457499999928
        },
        {
          "name": "E2",
          "midi": 40,
          "time": 176.75657999999888,
          "velocity": 0.7086614173228346,
          "duration": 0.1959457499999928
        },
        {
          "name": "E2",
          "midi": 40,
          "time": 176.95928249999886,
          "velocity": 0.7086614173228346,
          "duration": 0.1959457499999928
        },
        {
          "name": "B1",
          "midi": 35,
          "time": 177.16198499999885,
          "velocity": 0.7086614173228346,
          "duration": 0.3986482500000079
        },
        {
          "name": "F#1",
          "midi": 30,
          "time": 178.37819999999886,
          "velocity": 0.7086614173228346,
          "duration": 0.1959457499999928
        },
        {
          "name": "A1",
          "midi": 33,
          "time": 178.58090249999884,
          "velocity": 0.7086614173228346,
          "duration": 0.1959457499999928
        },
        {
          "name": "C#2",
          "midi": 37,
          "time": 178.78360499999883,
          "velocity": 0.7086614173228346,
          "duration": 0.1959457499999928
        },
        {
          "name": "F#2",
          "midi": 42,
          "time": 178.98630749999882,
          "velocity": 0.7086614173228346,
          "duration": 0.8040532500000097
        },
        {
          "name": "C#2",
          "midi": 37,
          "time": 179.79711749999882,
          "velocity": 0.7086614173228346,
          "duration": 0.1959457499999928
        },
        {
          "name": "F#2",
          "midi": 42,
          "time": 179.9998199999988,
          "velocity": 0.7086614173228346,
          "duration": 0.3986482500000079
        },
        {
          "name": "B1",
          "midi": 35,
          "time": 180.8106299999988,
          "velocity": 0.7086614173228346,
          "duration": 0.3986482499999795
        },
        {
          "name": "C#2",
          "midi": 37,
          "time": 181.0133324999988,
          "velocity": 0.7086614173228346,
          "duration": 0.1959457499999928
        },
        {
          "name": "D2",
          "midi": 38,
          "time": 181.21603499999878,
          "velocity": 0.7086614173228346,
          "duration": 0.1959457499999928
        },
        {
          "name": "F#2",
          "midi": 42,
          "time": 181.41873749999877,
          "velocity": 0.7086614173228346,
          "duration": 0.1959457499999928
        },
        {
          "name": "G2",
          "midi": 43,
          "time": 181.62143999999876,
          "velocity": 0.7086614173228346,
          "duration": 0.1959457499999928
        },
        {
          "name": "D2",
          "midi": 38,
          "time": 181.82414249999874,
          "velocity": 0.7086614173228346,
          "duration": 0.1959457499999928
        },
        {
          "name": "G1",
          "midi": 31,
          "time": 182.02684499999873,
          "velocity": 0.7086614173228346,
          "duration": 0.3986482500000079
        },
        {
          "name": "G2",
          "midi": 43,
          "time": 182.02684499999873,
          "velocity": 0.7086614173228346,
          "duration": 0.3986482500000079
        },
        {
          "name": "D2",
          "midi": 38,
          "time": 183.04035749999875,
          "velocity": 0.7086614173228346,
          "duration": 0.1959457499999928
        },
        {
          "name": "G2",
          "midi": 43,
          "time": 183.24305999999874,
          "velocity": 0.7086614173228346,
          "duration": 0.3986482500000079
        },
        {
          "name": "D2",
          "midi": 38,
          "time": 183.85116749999875,
          "velocity": 0.7086614173228346,
          "duration": 0.1959457499999928
        },
        {
          "name": "G2",
          "midi": 43,
          "time": 184.05386999999874,
          "velocity": 0.7086614173228346,
          "duration": 0.3986482500000079
        },
        {
          "name": "C#2",
          "midi": 37,
          "time": 184.66197749999876,
          "velocity": 0.7086614173228346,
          "duration": 0.1959457499999928
        },
        {
          "name": "D2",
          "midi": 38,
          "time": 184.86467999999874,
          "velocity": 0.7086614173228346,
          "duration": 0.1959457499999928
        },
        {
          "name": "A1",
          "midi": 33,
          "time": 185.06738249999873,
          "velocity": 0.7086614173228346,
          "duration": 0.1959457499999928
        },
        {
          "name": "D1",
          "midi": 26,
          "time": 185.27008499999872,
          "velocity": 0.7086614173228346,
          "duration": 0.3986482500000079
        },
        {
          "name": "D2",
          "midi": 38,
          "time": 185.27008499999872,
          "velocity": 0.7086614173228346,
          "duration": 0.3986482500000079
        },
        {
          "name": "A1",
          "midi": 33,
          "time": 186.28359749999873,
          "velocity": 0.7086614173228346,
          "duration": 0.1959457499999928
        },
        {
          "name": "D2",
          "midi": 38,
          "time": 186.48629999999872,
          "velocity": 0.7086614173228346,
          "duration": 0.3986482500000079
        },
        {
          "name": "A1",
          "midi": 33,
          "time": 187.09440749999874,
          "velocity": 0.7086614173228346,
          "duration": 0.1959457499999928
        },
        {
          "name": "D2",
          "midi": 38,
          "time": 187.29710999999872,
          "velocity": 0.7086614173228346,
          "duration": 0.3986482500000079
        },
        {
          "name": "F#2",
          "midi": 42,
          "time": 187.90521749999874,
          "velocity": 0.7086614173228346,
          "duration": 0.1959457499999928
        },
        {
          "name": "F#2",
          "midi": 42,
          "time": 188.10791999999873,
          "velocity": 0.7086614173228346,
          "duration": 0.1959457499999928
        },
        {
          "name": "C#2",
          "midi": 37,
          "time": 188.31062249999871,
          "velocity": 0.7086614173228346,
          "duration": 0.1959457499999928
        },
        {
          "name": "F#2",
          "midi": 42,
          "time": 188.5133249999987,
          "velocity": 0.7086614173228346,
          "duration": 0.3986482500000079
        },
        {
          "name": "F#1",
          "midi": 30,
          "time": 188.5133249999987,
          "velocity": 0.7086614173228346,
          "duration": 0.3986482500000079
        },
        {
          "name": "C#2",
          "midi": 37,
          "time": 189.52683749999872,
          "velocity": 0.7086614173228346,
          "duration": 0.1959457499999928
        },
        {
          "name": "F#2",
          "midi": 42,
          "time": 189.7295399999987,
          "velocity": 0.7086614173228346,
          "duration": 0.3986482500000079
        },
        {
          "name": "C#2",
          "midi": 37,
          "time": 190.33764749999872,
          "velocity": 0.7086614173228346,
          "duration": 0.1959457499999928
        },
        {
          "name": "F#2",
          "midi": 42,
          "time": 190.5403499999987,
          "velocity": 0.7086614173228346,
          "duration": 0.3986482500000079
        },
        {
          "name": "B1",
          "midi": 35,
          "time": 191.3511599999987,
          "velocity": 0.7086614173228346,
          "duration": 0.8040532500000097
        },
        {
          "name": "C#2",
          "midi": 37,
          "time": 192.16196999999872,
          "velocity": 0.7086614173228346,
          "duration": 0.8040532500000097
        },
        {
          "name": "D2",
          "midi": 38,
          "time": 192.97277999999872,
          "velocity": 0.7086614173228346,
          "duration": 0.8040532500000097
        },
        {
          "name": "E2",
          "midi": 40,
          "time": 193.78358999999872,
          "velocity": 0.7086614173228346,
          "duration": 0.3986482500000079
        },
        {
          "name": "F#2",
          "midi": 42,
          "time": 194.18899499999873,
          "velocity": 0.7086614173228346,
          "duration": 0.3986482500000079
        },
        {
          "name": "G2",
          "midi": 43,
          "time": 194.59439999999873,
          "velocity": 0.7086614173228346,
          "duration": 0.1959457499999928
        },
        {
          "name": "D2",
          "midi": 38,
          "time": 194.79710249999872,
          "velocity": 0.7086614173228346,
          "duration": 0.1959457499999928
        },
        {
          "name": "G1",
          "midi": 31,
          "time": 194.9998049999987,
          "velocity": 0.7086614173228346,
          "duration": 0.1959457499999928
        },
        {
          "name": "G2",
          "midi": 43,
          "time": 194.9998049999987,
          "velocity": 0.7086614173228346,
          "duration": 0.1959457499999928
        },
        {
          "name": "D2",
          "midi": 38,
          "time": 196.0133174999987,
          "velocity": 0.7086614173228346,
          "duration": 0.1959457499999928
        },
        {
          "name": "G2",
          "midi": 43,
          "time": 196.21601999999868,
          "velocity": 0.7086614173228346,
          "duration": 0.3986482500000079
        },
        {
          "name": "D2",
          "midi": 38,
          "time": 196.8241274999987,
          "velocity": 0.7086614173228346,
          "duration": 0.1959457499999928
        },
        {
          "name": "G2",
          "midi": 43,
          "time": 197.02682999999868,
          "velocity": 0.7086614173228346,
          "duration": 0.3986482500000079
        },
        {
          "name": "C#2",
          "midi": 37,
          "time": 197.6349374999987,
          "velocity": 0.7086614173228346,
          "duration": 0.1959457499999928
        },
        {
          "name": "D2",
          "midi": 38,
          "time": 197.8376399999987,
          "velocity": 0.7086614173228346,
          "duration": 0.1959457499999928
        },
        {
          "name": "A1",
          "midi": 33,
          "time": 198.04034249999867,
          "velocity": 0.7086614173228346,
          "duration": 0.1959457499999928
        },
        {
          "name": "D2",
          "midi": 38,
          "time": 198.24304499999866,
          "velocity": 0.7086614173228346,
          "duration": 0.3986482500000079
        },
        {
          "name": "D1",
          "midi": 26,
          "time": 198.24304499999866,
          "velocity": 0.7086614173228346,
          "duration": 0.3986482500000079
        },
        {
          "name": "A1",
          "midi": 33,
          "time": 199.25655749999868,
          "velocity": 0.7086614173228346,
          "duration": 0.1959457499999928
        },
        {
          "name": "D2",
          "midi": 38,
          "time": 199.45925999999866,
          "velocity": 0.7086614173228346,
          "duration": 0.3986482500000079
        },
        {
          "name": "A1",
          "midi": 33,
          "time": 200.06736749999868,
          "velocity": 0.7086614173228346,
          "duration": 0.1959457499999928
        },
        {
          "name": "D2",
          "midi": 38,
          "time": 200.27006999999867,
          "velocity": 0.7086614173228346,
          "duration": 0.3986482500000079
        },
        {
          "name": "F#2",
          "midi": 42,
          "time": 200.87817749999869,
          "velocity": 0.7086614173228346,
          "duration": 0.1959457499999928
        },
        {
          "name": "G2",
          "midi": 43,
          "time": 201.08087999999867,
          "velocity": 0.7086614173228346,
          "duration": 0.1959457499999928
        },
        {
          "name": "B1",
          "midi": 35,
          "time": 201.28358249999866,
          "velocity": 0.7086614173228346,
          "duration": 0.1959457499999928
        },
        {
          "name": "E1",
          "midi": 28,
          "time": 201.48628499999865,
          "velocity": 0.7086614173228346,
          "duration": 0.3986482500000079
        },
        {
          "name": "E2",
          "midi": 40,
          "time": 201.48628499999865,
          "velocity": 0.7086614173228346,
          "duration": 0.3986482500000079
        },
        {
          "name": "B1",
          "midi": 35,
          "time": 202.49979749999866,
          "velocity": 0.7086614173228346,
          "duration": 0.1959457499999928
        },
        {
          "name": "E2",
          "midi": 40,
          "time": 202.70249999999865,
          "velocity": 0.7086614173228346,
          "duration": 0.3986482500000079
        },
        {
          "name": "B1",
          "midi": 35,
          "time": 203.31060749999867,
          "velocity": 0.7086614173228346,
          "duration": 0.1959457499999928
        },
        {
          "name": "E2",
          "midi": 40,
          "time": 203.51330999999865,
          "velocity": 0.7086614173228346,
          "duration": 0.3986482500000079
        },
        {
          "name": "G2",
          "midi": 43,
          "time": 204.12141749999867,
          "velocity": 0.7086614173228346,
          "duration": 0.1959457499999928
        },
        {
          "name": "F#2",
          "midi": 42,
          "time": 204.32411999999866,
          "velocity": 0.7086614173228346,
          "duration": 1.6148632500000133
        },
        {
          "name": "B1",
          "midi": 35,
          "time": 207.56735999999867,
          "velocity": 0.7086614173228346,
          "duration": 1.6148632500000133
        },
        {
          "name": "F#1",
          "midi": 30,
          "time": 210.8105999999987,
          "velocity": 0.7086614173228346,
          "duration": 1.6148632500000133
        },
        {
          "name": "A1",
          "midi": 33,
          "time": 214.0538399999987,
          "velocity": 0.7086614173228346,
          "duration": 1.6148632500000133
        },
        {
          "name": "E1",
          "midi": 28,
          "time": 217.29707999999872,
          "velocity": 0.7086614173228346,
          "duration": 1.6148632500000133
        },
        {
          "name": "G1",
          "midi": 31,
          "time": 220.54031999999873,
          "velocity": 0.7086614173228346,
          "duration": 1.6148632500000133
        },
        {
          "name": "D2",
          "midi": 38,
          "time": 223.78355999999874,
          "velocity": 0.7086614173228346,
          "duration": 1.6148632500000133
        },
        {
          "name": "E1",
          "midi": 28,
          "time": 227.02679999999876,
          "velocity": 0.7086614173228346,
          "duration": 1.6148632500000133
        },
        {
          "name": "F#1",
          "midi": 30,
          "time": 230.27003999999877,
          "velocity": 0.7086614173228346,
          "duration": 1.6148632500000133
        },
        {
          "name": "B1",
          "midi": 35,
          "time": 233.5132799999988,
          "velocity": 0.7086614173228346,
          "duration": 0.1959457499999928
        },
        {
          "name": "B1",
          "midi": 35,
          "time": 233.71598249999877,
          "velocity": 0.7086614173228346,
          "duration": 0.1959457499999928
        },
        {
          "name": "F#1",
          "midi": 30,
          "time": 233.91868499999876,
          "velocity": 0.7086614173228346,
          "duration": 0.3986482500000079
        },
        {
          "name": "B1",
          "midi": 35,
          "time": 234.32408999999876,
          "velocity": 0.7086614173228346,
          "duration": 0.3986482500000079
        },
        {
          "name": "F#1",
          "midi": 30,
          "time": 234.93219749999878,
          "velocity": 0.7086614173228346,
          "duration": 0.1959457499999928
        },
        {
          "name": "B1",
          "midi": 35,
          "time": 235.13489999999877,
          "velocity": 0.7086614173228346,
          "duration": 0.1959457499999928
        },
        {
          "name": "B1",
          "midi": 35,
          "time": 235.33760249999875,
          "velocity": 0.7086614173228346,
          "duration": 0.1959457499999928
        },
        {
          "name": "F#1",
          "midi": 30,
          "time": 235.54030499999874,
          "velocity": 0.7086614173228346,
          "duration": 0.3986482500000079
        },
        {
          "name": "F#1",
          "midi": 30,
          "time": 236.75651999999874,
          "velocity": 0.7086614173228346,
          "duration": 0.1959457499999928
        },
        {
          "name": "F#1",
          "midi": 30,
          "time": 236.95922249999873,
          "velocity": 0.7086614173228346,
          "duration": 0.1959457499999928
        },
        {
          "name": "A#1",
          "midi": 34,
          "time": 237.16192499999872,
          "velocity": 0.7086614173228346,
          "duration": 0.3986482500000079
        },
        {
          "name": "C#2",
          "midi": 37,
          "time": 237.56732999999872,
          "velocity": 0.7086614173228346,
          "duration": 0.3986482500000079
        },
        {
          "name": "A#1",
          "midi": 34,
          "time": 238.17543749999874,
          "velocity": 0.7086614173228346,
          "duration": 0.1959457499999928
        },
        {
          "name": "F#2",
          "midi": 42,
          "time": 238.37813999999872,
          "velocity": 0.7086614173228346,
          "duration": 0.3986482499999795
        },
        {
          "name": "F#2",
          "midi": 42,
          "time": 238.5808424999987,
          "velocity": 0.7086614173228346,
          "duration": 0.1959457499999928
        },
        {
          "name": "A#1",
          "midi": 34,
          "time": 238.7835449999987,
          "velocity": 0.7086614173228346,
          "duration": 0.3986482500000079
        },
        {
          "name": "A1",
          "midi": 33,
          "time": 239.9997599999987,
          "velocity": 0.7086614173228346,
          "duration": 0.1959457499999928
        },
        {
          "name": "A1",
          "midi": 33,
          "time": 240.2024624999987,
          "velocity": 0.7086614173228346,
          "duration": 0.1959457499999928
        },
        {
          "name": "E2",
          "midi": 40,
          "time": 240.40516499999868,
          "velocity": 0.7086614173228346,
          "duration": 0.3986482500000079
        },
        {
          "name": "A2",
          "midi": 45,
          "time": 240.81056999999868,
          "velocity": 0.7086614173228346,
          "duration": 0.3986482500000079
        },
        {
          "name": "E2",
          "midi": 40,
          "time": 241.4186774999987,
          "velocity": 0.7086614173228346,
          "duration": 0.1959457499999928
        },
        {
          "name": "A2",
          "midi": 45,
          "time": 241.62137999999868,
          "velocity": 0.7086614173228346,
          "duration": 0.3986482499999795
        },
        {
          "name": "A2",
          "midi": 45,
          "time": 241.82408249999867,
          "velocity": 0.7086614173228346,
          "duration": 0.1959457499999928
        },
        {
          "name": "E2",
          "midi": 40,
          "time": 242.02678499999865,
          "velocity": 0.7086614173228346,
          "duration": 0.3986482500000079
        },
        {
          "name": "E1",
          "midi": 28,
          "time": 243.24299999999866,
          "velocity": 0.7086614173228346,
          "duration": 0.1959457499999928
        },
        {
          "name": "E1",
          "midi": 28,
          "time": 243.44570249999865,
          "velocity": 0.7086614173228346,
          "duration": 0.1959457499999928
        },
        {
          "name": "B1",
          "midi": 35,
          "time": 243.64840499999863,
          "velocity": 0.7086614173228346,
          "duration": 0.3986482500000079
        },
        {
          "name": "E2",
          "midi": 40,
          "time": 244.05380999999863,
          "velocity": 0.7086614173228346,
          "duration": 0.3986482500000079
        },
        {
          "name": "B1",
          "midi": 35,
          "time": 244.66191749999865,
          "velocity": 0.7086614173228346,
          "duration": 0.1959457499999928
        },
        {
          "name": "E2",
          "midi": 40,
          "time": 244.86461999999864,
          "velocity": 0.7086614173228346,
          "duration": 0.3986482499999795
        },
        {
          "name": "E2",
          "midi": 40,
          "time": 245.06732249999862,
          "velocity": 0.7086614173228346,
          "duration": 1.4121607499999982
        },
        {
          "name": "B1",
          "midi": 35,
          "time": 245.2700249999986,
          "velocity": 0.7086614173228346,
          "duration": 0.3986482500000079
        },
        {
          "name": "G1",
          "midi": 31,
          "time": 246.48623999999862,
          "velocity": 0.7086614173228346,
          "duration": 0.1959457499999928
        },
        {
          "name": "G1",
          "midi": 31,
          "time": 246.6889424999986,
          "velocity": 0.7086614173228346,
          "duration": 0.1959457499999928
        },
        {
          "name": "D2",
          "midi": 38,
          "time": 246.8916449999986,
          "velocity": 0.7086614173228346,
          "duration": 0.3986482500000079
        },
        {
          "name": "G2",
          "midi": 43,
          "time": 247.2970499999986,
          "velocity": 0.7086614173228346,
          "duration": 0.3986482500000079
        },
        {
          "name": "D2",
          "midi": 38,
          "time": 247.9051574999986,
          "velocity": 0.7086614173228346,
          "duration": 0.1959457499999928
        },
        {
          "name": "G2",
          "midi": 43,
          "time": 248.1078599999986,
          "velocity": 0.7086614173228346,
          "duration": 0.1959457499999928
        },
        {
          "name": "G2",
          "midi": 43,
          "time": 248.31056249999858,
          "velocity": 0.7086614173228346,
          "duration": 0.1959457499999928
        },
        {
          "name": "D2",
          "midi": 38,
          "time": 248.51326499999857,
          "velocity": 0.7086614173228346,
          "duration": 0.1959457499999928
        },
        {
          "name": "F#1",
          "midi": 30,
          "time": 249.72947999999857,
          "velocity": 0.7086614173228346,
          "duration": 0.1959457499999928
        },
        {
          "name": "A1",
          "midi": 33,
          "time": 249.93218249999856,
          "velocity": 0.7086614173228346,
          "duration": 0.1959457499999928
        },
        {
          "name": "D2",
          "midi": 38,
          "time": 250.13488499999855,
          "velocity": 0.7086614173228346,
          "duration": 0.3986482500000079
        },
        {
          "name": "F#2",
          "midi": 42,
          "time": 250.54028999999855,
          "velocity": 0.7086614173228346,
          "duration": 0.3986482500000079
        },
        {
          "name": "D2",
          "midi": 38,
          "time": 251.14839749999857,
          "velocity": 0.7086614173228346,
          "duration": 0.1959457499999928
        },
        {
          "name": "F#2",
          "midi": 42,
          "time": 251.35109999999855,
          "velocity": 0.7086614173228346,
          "duration": 0.1959457499999928
        },
        {
          "name": "F#2",
          "midi": 42,
          "time": 251.55380249999854,
          "velocity": 0.7086614173228346,
          "duration": 0.1959457499999928
        },
        {
          "name": "D2",
          "midi": 38,
          "time": 251.75650499999853,
          "velocity": 0.7086614173228346,
          "duration": 0.3986482500000079
        },
        {
          "name": "E1",
          "midi": 28,
          "time": 252.97271999999853,
          "velocity": 0.7086614173228346,
          "duration": 0.1959457499999928
        },
        {
          "name": "G1",
          "midi": 31,
          "time": 253.17542249999852,
          "velocity": 0.7086614173228346,
          "duration": 0.1959457499999928
        },
        {
          "name": "B1",
          "midi": 35,
          "time": 253.3781249999985,
          "velocity": 0.7086614173228346,
          "duration": 0.3986482500000079
        },
        {
          "name": "E2",
          "midi": 40,
          "time": 253.7835299999985,
          "velocity": 0.7086614173228346,
          "duration": 0.3986482500000079
        },
        {
          "name": "B1",
          "midi": 35,
          "time": 254.39163749999852,
          "velocity": 0.7086614173228346,
          "duration": 0.1959457499999928
        },
        {
          "name": "E2",
          "midi": 40,
          "time": 254.5943399999985,
          "velocity": 0.7086614173228346,
          "duration": 0.1959457499999928
        },
        {
          "name": "E2",
          "midi": 40,
          "time": 254.7970424999985,
          "velocity": 0.7086614173228346,
          "duration": 0.1959457499999928
        },
        {
          "name": "B1",
          "midi": 35,
          "time": 254.99974499999848,
          "velocity": 0.7086614173228346,
          "duration": 0.3986482500000079
        },
        {
          "name": "F#1",
          "midi": 30,
          "time": 256.2159599999985,
          "velocity": 0.7086614173228346,
          "duration": 0.19594575000002123
        },
        {
          "name": "A1",
          "midi": 33,
          "time": 256.41866249999856,
          "velocity": 0.7086614173228346,
          "duration": 0.19594575000002123
        },
        {
          "name": "C#2",
          "midi": 37,
          "time": 256.6213649999986,
          "velocity": 0.7086614173228346,
          "duration": 0.19594575000002123
        },
        {
          "name": "F#2",
          "midi": 42,
          "time": 256.82406749999865,
          "velocity": 0.7086614173228346,
          "duration": 0.8040532499999813
        },
        {
          "name": "C#2",
          "midi": 37,
          "time": 257.63487749999865,
          "velocity": 0.7086614173228346,
          "duration": 0.19594575000002123
        },
        {
          "name": "F#2",
          "midi": 42,
          "time": 257.8375799999987,
          "velocity": 0.7086614173228346,
          "duration": 0.3986482500000079
        },
        {
          "name": "B1",
          "midi": 35,
          "time": 259.4591999999987,
          "velocity": 0.7086614173228346,
          "duration": 0.19594575000002123
        },
        {
          "name": "B1",
          "midi": 35,
          "time": 259.66190249999875,
          "velocity": 0.7086614173228346,
          "duration": 0.19594575000002123
        },
        {
          "name": "F#1",
          "midi": 30,
          "time": 259.8646049999988,
          "velocity": 0.7086614173228346,
          "duration": 0.3986482500000079
        },
        {
          "name": "B1",
          "midi": 35,
          "time": 260.2700099999988,
          "velocity": 0.7086614173228346,
          "duration": 0.3986482500000079
        },
        {
          "name": "F#1",
          "midi": 30,
          "time": 260.87811749999884,
          "velocity": 0.7086614173228346,
          "duration": 0.19594575000002123
        },
        {
          "name": "B1",
          "midi": 35,
          "time": 261.0808199999989,
          "velocity": 0.7086614173228346,
          "duration": 0.19594575000002123
        },
        {
          "name": "B1",
          "midi": 35,
          "time": 261.2835224999989,
          "velocity": 0.7086614173228346,
          "duration": 0.19594575000002123
        },
        {
          "name": "F#1",
          "midi": 30,
          "time": 261.48622499999897,
          "velocity": 0.7086614173228346,
          "duration": 0.3986482500000079
        },
        {
          "name": "F#1",
          "midi": 30,
          "time": 262.702439999999,
          "velocity": 0.7086614173228346,
          "duration": 0.19594575000002123
        },
        {
          "name": "F#1",
          "midi": 30,
          "time": 262.90514249999904,
          "velocity": 0.7086614173228346,
          "duration": 0.19594575000002123
        },
        {
          "name": "A#1",
          "midi": 34,
          "time": 263.1078449999991,
          "velocity": 0.7086614173228346,
          "duration": 0.3986482500000079
        },
        {
          "name": "C#2",
          "midi": 37,
          "time": 263.5132499999991,
          "velocity": 0.7086614173228346,
          "duration": 0.3986482500000079
        },
        {
          "name": "A#1",
          "midi": 34,
          "time": 264.12135749999914,
          "velocity": 0.7086614173228346,
          "duration": 0.19594575000002123
        },
        {
          "name": "F#2",
          "midi": 42,
          "time": 264.3240599999992,
          "velocity": 0.7086614173228346,
          "duration": 0.3986482500000079
        },
        {
          "name": "F#2",
          "midi": 42,
          "time": 264.52676249999917,
          "velocity": 0.7086614173228346,
          "duration": 0.19594575000002123
        },
        {
          "name": "A#1",
          "midi": 34,
          "time": 264.7294649999992,
          "velocity": 0.7086614173228346,
          "duration": 0.3986482500000079
        },
        {
          "name": "A1",
          "midi": 33,
          "time": 265.94567999999924,
          "velocity": 0.7086614173228346,
          "duration": 0.19594575000002123
        },
        {
          "name": "A1",
          "midi": 33,
          "time": 266.1483824999993,
          "velocity": 0.7086614173228346,
          "duration": 0.19594575000002123
        },
        {
          "name": "E2",
          "midi": 40,
          "time": 266.35108499999933,
          "velocity": 0.7086614173228346,
          "duration": 0.3986482500000079
        },
        {
          "name": "A2",
          "midi": 45,
          "time": 266.75648999999936,
          "velocity": 0.7086614173228346,
          "duration": 0.3986482500000079
        },
        {
          "name": "E2",
          "midi": 40,
          "time": 267.3645974999994,
          "velocity": 0.7086614173228346,
          "duration": 0.19594575000002123
        },
        {
          "name": "A2",
          "midi": 45,
          "time": 267.5672999999994,
          "velocity": 0.7086614173228346,
          "duration": 0.3986482500000079
        },
        {
          "name": "A2",
          "midi": 45,
          "time": 267.7700024999994,
          "velocity": 0.7086614173228346,
          "duration": 0.19594575000002123
        },
        {
          "name": "E2",
          "midi": 40,
          "time": 267.97270499999945,
          "velocity": 0.7086614173228346,
          "duration": 0.3986482500000079
        },
        {
          "name": "E1",
          "midi": 28,
          "time": 269.1889199999995,
          "velocity": 0.7086614173228346,
          "duration": 0.19594575000002123
        },
        {
          "name": "E1",
          "midi": 28,
          "time": 269.3916224999995,
          "velocity": 0.7086614173228346,
          "duration": 0.19594575000002123
        },
        {
          "name": "B1",
          "midi": 35,
          "time": 269.59432499999957,
          "velocity": 0.7086614173228346,
          "duration": 0.3986482500000079
        },
        {
          "name": "E2",
          "midi": 40,
          "time": 269.9997299999996,
          "velocity": 0.7086614173228346,
          "duration": 0.3986482500000079
        },
        {
          "name": "B1",
          "midi": 35,
          "time": 270.6078374999996,
          "velocity": 0.7086614173228346,
          "duration": 0.19594575000002123
        },
        {
          "name": "E2",
          "midi": 40,
          "time": 270.81053999999966,
          "velocity": 0.7086614173228346,
          "duration": 0.3986482500000079
        },
        {
          "name": "E2",
          "midi": 40,
          "time": 271.01324249999965,
          "velocity": 0.7086614173228346,
          "duration": 1.412160750000055
        },
        {
          "name": "B1",
          "midi": 35,
          "time": 271.2159449999997,
          "velocity": 0.7086614173228346,
          "duration": 0.3986482500000079
        },
        {
          "name": "G1",
          "midi": 31,
          "time": 272.4321599999997,
          "velocity": 0.7086614173228346,
          "duration": 0.19594575000002123
        },
        {
          "name": "G1",
          "midi": 31,
          "time": 272.63486249999977,
          "velocity": 0.7086614173228346,
          "duration": 0.19594575000002123
        },
        {
          "name": "D2",
          "midi": 38,
          "time": 272.8375649999998,
          "velocity": 0.7086614173228346,
          "duration": 0.3986482500000079
        },
        {
          "name": "G2",
          "midi": 43,
          "time": 273.24296999999984,
          "velocity": 0.7086614173228346,
          "duration": 0.3986482500000079
        },
        {
          "name": "D2",
          "midi": 38,
          "time": 273.85107749999986,
          "velocity": 0.7086614173228346,
          "duration": 0.19594575000002123
        },
        {
          "name": "G2",
          "midi": 43,
          "time": 274.0537799999999,
          "velocity": 0.7086614173228346,
          "duration": 0.19594575000002123
        },
        {
          "name": "G2",
          "midi": 43,
          "time": 274.25648249999995,
          "velocity": 0.7086614173228346,
          "duration": 0.19594575000002123
        },
        {
          "name": "D2",
          "midi": 38,
          "time": 274.459185,
          "velocity": 0.7086614173228346,
          "duration": 0.3986482500000079
        },
        {
          "name": "F#1",
          "midi": 30,
          "time": 275.6754,
          "velocity": 0.7086614173228346,
          "duration": 0.19594575000002123
        },
        {
          "name": "A1",
          "midi": 33,
          "time": 275.87810250000007,
          "velocity": 0.7086614173228346,
          "duration": 0.19594575000002123
        },
        {
          "name": "D2",
          "midi": 38,
          "time": 276.0808050000001,
          "velocity": 0.7086614173228346,
          "duration": 0.3986482500000079
        },
        {
          "name": "F#2",
          "midi": 42,
          "time": 276.48621000000014,
          "velocity": 0.7086614173228346,
          "duration": 0.3986482500000079
        },
        {
          "name": "D2",
          "midi": 38,
          "time": 277.09431750000016,
          "velocity": 0.7086614173228346,
          "duration": 0.19594575000002123
        },
        {
          "name": "F#2",
          "midi": 42,
          "time": 277.2970200000002,
          "velocity": 0.7086614173228346,
          "duration": 0.19594575000002123
        },
        {
          "name": "F#2",
          "midi": 42,
          "time": 277.49972250000025,
          "velocity": 0.7086614173228346,
          "duration": 0.19594575000002123
        },
        {
          "name": "D2",
          "midi": 38,
          "time": 277.7024250000003,
          "velocity": 0.7086614173228346,
          "duration": 0.3986482500000079
        },
        {
          "name": "E1",
          "midi": 28,
          "time": 278.9186400000003,
          "velocity": 0.7086614173228346,
          "duration": 0.19594575000002123
        },
        {
          "name": "G1",
          "midi": 31,
          "time": 279.12134250000037,
          "velocity": 0.7086614173228346,
          "duration": 0.19594575000002123
        },
        {
          "name": "B1",
          "midi": 35,
          "time": 279.3240450000004,
          "velocity": 0.7086614173228346,
          "duration": 0.3986482500000079
        },
        {
          "name": "E2",
          "midi": 40,
          "time": 279.72945000000044,
          "velocity": 0.7086614173228346,
          "duration": 0.3986482500000079
        },
        {
          "name": "B1",
          "midi": 35,
          "time": 280.33755750000046,
          "velocity": 0.7086614173228346,
          "duration": 0.19594575000002123
        },
        {
          "name": "E2",
          "midi": 40,
          "time": 280.5402600000005,
          "velocity": 0.7086614173228346,
          "duration": 0.19594575000002123
        },
        {
          "name": "E2",
          "midi": 40,
          "time": 280.74296250000054,
          "velocity": 0.7086614173228346,
          "duration": 0.19594575000002123
        },
        {
          "name": "B1",
          "midi": 35,
          "time": 280.9456650000006,
          "velocity": 0.7086614173228346,
          "duration": 0.3986482500000079
        },
        {
          "name": "F#1",
          "midi": 30,
          "time": 282.1618800000006,
          "velocity": 0.7086614173228346,
          "duration": 0.19594575000002123
        },
        {
          "name": "A1",
          "midi": 33,
          "time": 282.36458250000067,
          "velocity": 0.7086614173228346,
          "duration": 0.19594575000002123
        },
        {
          "name": "C#2",
          "midi": 37,
          "time": 282.5672850000007,
          "velocity": 0.7086614173228346,
          "duration": 0.19594575000002123
        },
        {
          "name": "F#2",
          "midi": 42,
          "time": 282.76998750000075,
          "velocity": 0.7086614173228346,
          "duration": 0.8040532499999813
        },
        {
          "name": "C#2",
          "midi": 37,
          "time": 283.58079750000076,
          "velocity": 0.7086614173228346,
          "duration": 0.19594575000002123
        },
        {
          "name": "F#2",
          "midi": 42,
          "time": 283.7835000000008,
          "velocity": 0.7086614173228346,
          "duration": 0.3986482500000079
        },
        {
          "name": "C#2",
          "midi": 37,
          "time": 284.3916075000008,
          "velocity": 0.7086614173228346,
          "duration": 0.19594575000002123
        },
        {
          "name": "F#2",
          "midi": 42,
          "time": 284.59431000000086,
          "velocity": 0.7086614173228346,
          "duration": 0.3986482500000079
        },
        {
          "name": "B1",
          "midi": 35,
          "time": 285.40512000000086,
          "velocity": 0.7086614173228346,
          "duration": 0.19594575000002123
        },
        {
          "name": "B1",
          "midi": 35,
          "time": 285.6078225000009,
          "velocity": 0.7086614173228346,
          "duration": 0.19594575000002123
        },
        {
          "name": "F#1",
          "midi": 30,
          "time": 285.81052500000095,
          "velocity": 0.7086614173228346,
          "duration": 0.3986482500000079
        },
        {
          "name": "B1",
          "midi": 35,
          "time": 286.215930000001,
          "velocity": 0.7086614173228346,
          "duration": 0.3986482500000079
        },
        {
          "name": "F#1",
          "midi": 30,
          "time": 286.824037500001,
          "velocity": 0.7086614173228346,
          "duration": 0.19594575000002123
        },
        {
          "name": "B1",
          "midi": 35,
          "time": 287.02674000000104,
          "velocity": 0.7086614173228346,
          "duration": 0.19594575000002123
        },
        {
          "name": "B1",
          "midi": 35,
          "time": 287.2294425000011,
          "velocity": 0.7086614173228346,
          "duration": 0.19594575000002123
        },
        {
          "name": "F#1",
          "midi": 30,
          "time": 287.4321450000011,
          "velocity": 0.7086614173228346,
          "duration": 0.3986482500000079
        },
        {
          "name": "F#1",
          "midi": 30,
          "time": 288.64836000000116,
          "velocity": 0.7086614173228346,
          "duration": 0.19594575000002123
        },
        {
          "name": "F#1",
          "midi": 30,
          "time": 288.8510625000012,
          "velocity": 0.7086614173228346,
          "duration": 0.19594575000002123
        },
        {
          "name": "A#1",
          "midi": 34,
          "time": 289.05376500000125,
          "velocity": 0.7086614173228346,
          "duration": 0.3986482500000079
        },
        {
          "name": "C#2",
          "midi": 37,
          "time": 289.4591700000013,
          "velocity": 0.7086614173228346,
          "duration": 0.3986482500000079
        },
        {
          "name": "A#1",
          "midi": 34,
          "time": 290.0672775000013,
          "velocity": 0.7086614173228346,
          "duration": 0.19594575000002123
        },
        {
          "name": "F#2",
          "midi": 42,
          "time": 290.26998000000134,
          "velocity": 0.7086614173228346,
          "duration": 0.3986482500000079
        },
        {
          "name": "F#2",
          "midi": 42,
          "time": 290.4726825000013,
          "velocity": 0.7086614173228346,
          "duration": 0.19594575000002123
        },
        {
          "name": "A#1",
          "midi": 34,
          "time": 290.67538500000137,
          "velocity": 0.7086614173228346,
          "duration": 0.3986482500000079
        },
        {
          "name": "A1",
          "midi": 33,
          "time": 291.8916000000014,
          "velocity": 0.7086614173228346,
          "duration": 0.19594575000002123
        },
        {
          "name": "A1",
          "midi": 33,
          "time": 292.09430250000145,
          "velocity": 0.7086614173228346,
          "duration": 0.19594575000002123
        },
        {
          "name": "E2",
          "midi": 40,
          "time": 292.2970050000015,
          "velocity": 0.7086614173228346,
          "duration": 0.3986482500000079
        },
        {
          "name": "A2",
          "midi": 45,
          "time": 292.7024100000015,
          "velocity": 0.7086614173228346,
          "duration": 0.3986482500000079
        },
        {
          "name": "E2",
          "midi": 40,
          "time": 293.31051750000154,
          "velocity": 0.7086614173228346,
          "duration": 0.19594575000002123
        },
        {
          "name": "A2",
          "midi": 45,
          "time": 293.5132200000016,
          "velocity": 0.7086614173228346,
          "duration": 0.3986482500000079
        },
        {
          "name": "A2",
          "midi": 45,
          "time": 293.71592250000157,
          "velocity": 0.7086614173228346,
          "duration": 0.19594575000002123
        },
        {
          "name": "E2",
          "midi": 40,
          "time": 293.9186250000016,
          "velocity": 0.7086614173228346,
          "duration": 0.3986482500000079
        },
        {
          "name": "E1",
          "midi": 28,
          "time": 295.13484000000165,
          "velocity": 0.7086614173228346,
          "duration": 0.19594575000002123
        },
        {
          "name": "E1",
          "midi": 28,
          "time": 295.3375425000017,
          "velocity": 0.7086614173228346,
          "duration": 0.19594575000002123
        },
        {
          "name": "B1",
          "midi": 35,
          "time": 295.54024500000173,
          "velocity": 0.7086614173228346,
          "duration": 0.3986482500000079
        },
        {
          "name": "E2",
          "midi": 40,
          "time": 295.94565000000176,
          "velocity": 0.7086614173228346,
          "duration": 0.3986482500000079
        },
        {
          "name": "B1",
          "midi": 35,
          "time": 296.5537575000018,
          "velocity": 0.7086614173228346,
          "duration": 0.19594575000002123
        },
        {
          "name": "E2",
          "midi": 40,
          "time": 296.7564600000018,
          "velocity": 0.7086614173228346,
          "duration": 0.3986482500000079
        },
        {
          "name": "E2",
          "midi": 40,
          "time": 296.9591625000018,
          "velocity": 0.7086614173228346,
          "duration": 1.412160750000055
        },
        {
          "name": "B1",
          "midi": 35,
          "time": 297.16186500000185,
          "velocity": 0.7086614173228346,
          "duration": 0.3986482500000079
        },
        {
          "name": "G1",
          "midi": 31,
          "time": 298.3780800000019,
          "velocity": 0.7086614173228346,
          "duration": 0.19594575000002123
        },
        {
          "name": "G1",
          "midi": 31,
          "time": 298.58078250000193,
          "velocity": 0.7086614173228346,
          "duration": 0.19594575000002123
        },
        {
          "name": "D2",
          "midi": 38,
          "time": 298.783485000002,
          "velocity": 0.7086614173228346,
          "duration": 0.3986482500000079
        },
        {
          "name": "G2",
          "midi": 43,
          "time": 299.188890000002,
          "velocity": 0.7086614173228346,
          "duration": 0.3986482500000079
        },
        {
          "name": "D2",
          "midi": 38,
          "time": 299.796997500002,
          "velocity": 0.7086614173228346,
          "duration": 0.19594575000002123
        },
        {
          "name": "G2",
          "midi": 43,
          "time": 299.99970000000206,
          "velocity": 0.7086614173228346,
          "duration": 0.19594575000002123
        },
        {
          "name": "G2",
          "midi": 43,
          "time": 300.2024025000021,
          "velocity": 0.7086614173228346,
          "duration": 0.19594575000002123
        },
        {
          "name": "D2",
          "midi": 38,
          "time": 300.40510500000215,
          "velocity": 0.7086614173228346,
          "duration": 0.19594575000002123
        },
        {
          "name": "F#1",
          "midi": 30,
          "time": 301.6213200000022,
          "velocity": 0.7086614173228346,
          "duration": 0.19594575000002123
        },
        {
          "name": "A1",
          "midi": 33,
          "time": 301.82402250000223,
          "velocity": 0.7086614173228346,
          "duration": 0.19594575000002123
        },
        {
          "name": "D2",
          "midi": 38,
          "time": 302.0267250000023,
          "velocity": 0.7086614173228346,
          "duration": 0.3986482500000079
        },
        {
          "name": "F#2",
          "midi": 42,
          "time": 302.4321300000023,
          "velocity": 0.7086614173228346,
          "duration": 0.3986482500000079
        },
        {
          "name": "D2",
          "midi": 38,
          "time": 303.0402375000023,
          "velocity": 0.7086614173228346,
          "duration": 0.19594575000002123
        },
        {
          "name": "F#2",
          "midi": 42,
          "time": 303.24294000000236,
          "velocity": 0.7086614173228346,
          "duration": 0.19594575000002123
        },
        {
          "name": "F#2",
          "midi": 42,
          "time": 303.4456425000024,
          "velocity": 0.7086614173228346,
          "duration": 0.19594575000002123
        },
        {
          "name": "D2",
          "midi": 38,
          "time": 303.64834500000245,
          "velocity": 0.7086614173228346,
          "duration": 0.3986482500000079
        },
        {
          "name": "E1",
          "midi": 28,
          "time": 304.8645600000025,
          "velocity": 0.7086614173228346,
          "duration": 0.19594575000002123
        },
        {
          "name": "G1",
          "midi": 31,
          "time": 305.0672625000025,
          "velocity": 0.7086614173228346,
          "duration": 0.19594575000002123
        },
        {
          "name": "B1",
          "midi": 35,
          "time": 305.26996500000257,
          "velocity": 0.7086614173228346,
          "duration": 0.3986482500000079
        },
        {
          "name": "E2",
          "midi": 40,
          "time": 305.6753700000026,
          "velocity": 0.7086614173228346,
          "duration": 0.3986482500000079
        },
        {
          "name": "B1",
          "midi": 35,
          "time": 306.2834775000026,
          "velocity": 0.7086614173228346,
          "duration": 0.19594575000002123
        },
        {
          "name": "E2",
          "midi": 40,
          "time": 306.48618000000266,
          "velocity": 0.7086614173228346,
          "duration": 0.19594575000002123
        },
        {
          "name": "E2",
          "midi": 40,
          "time": 306.6888825000027,
          "velocity": 0.7086614173228346,
          "duration": 0.19594575000002123
        },
        {
          "name": "B1",
          "midi": 35,
          "time": 306.89158500000275,
          "velocity": 0.7086614173228346,
          "duration": 0.3986482500000079
        },
        {
          "name": "F#1",
          "midi": 30,
          "time": 308.1078000000028,
          "velocity": 0.7086614173228346,
          "duration": 0.19594575000002123
        },
        {
          "name": "A1",
          "midi": 33,
          "time": 308.3105025000028,
          "velocity": 0.7086614173228346,
          "duration": 0.19594575000002123
        },
        {
          "name": "C#2",
          "midi": 37,
          "time": 308.51320500000287,
          "velocity": 0.7086614173228346,
          "duration": 0.19594575000002123
        },
        {
          "name": "F#2",
          "midi": 42,
          "time": 308.7159075000029,
          "velocity": 0.7086614173228346,
          "duration": 0.8040532499999813
        },
        {
          "name": "C#2",
          "midi": 37,
          "time": 309.5267175000029,
          "velocity": 0.7086614173228346,
          "duration": 0.19594575000002123
        },
        {
          "name": "F#2",
          "midi": 42,
          "time": 309.72942000000296,
          "velocity": 0.7086614173228346,
          "duration": 0.3986482500000079
        },
        {
          "name": "C#2",
          "midi": 37,
          "time": 310.337527500003,
          "velocity": 0.7086614173228346,
          "duration": 0.19594575000002123
        },
        {
          "name": "F#2",
          "midi": 42,
          "time": 310.540230000003,
          "velocity": 0.7086614173228346,
          "duration": 0.3986482500000079
        },
        {
          "name": "B1",
          "midi": 35,
          "time": 311.351040000003,
          "velocity": 0.7086614173228346,
          "duration": 0.19594575000002123
        },
        {
          "name": "B1",
          "midi": 35,
          "time": 311.55374250000307,
          "velocity": 0.7086614173228346,
          "duration": 0.19594575000002123
        },
        {
          "name": "F#1",
          "midi": 30,
          "time": 311.7564450000031,
          "velocity": 0.7086614173228346,
          "duration": 0.3986482500000079
        },
        {
          "name": "B1",
          "midi": 35,
          "time": 312.16185000000314,
          "velocity": 0.7086614173228346,
          "duration": 0.3986482500000079
        },
        {
          "name": "F#1",
          "midi": 30,
          "time": 312.76995750000316,
          "velocity": 0.7086614173228346,
          "duration": 0.19594575000002123
        },
        {
          "name": "B1",
          "midi": 35,
          "time": 312.9726600000032,
          "velocity": 0.7086614173228346,
          "duration": 0.19594575000002123
        },
        {
          "name": "B1",
          "midi": 35,
          "time": 313.17536250000325,
          "velocity": 0.7086614173228346,
          "duration": 0.19594575000002123
        },
        {
          "name": "F#1",
          "midi": 30,
          "time": 313.3780650000033,
          "velocity": 0.7086614173228346,
          "duration": 0.3986482500000079
        },
        {
          "name": "F#1",
          "midi": 30,
          "time": 314.5942800000033,
          "velocity": 0.7086614173228346,
          "duration": 0.19594575000002123
        },
        {
          "name": "F#1",
          "midi": 30,
          "time": 314.79698250000337,
          "velocity": 0.7086614173228346,
          "duration": 0.19594575000002123
        },
        {
          "name": "A#1",
          "midi": 34,
          "time": 314.9996850000034,
          "velocity": 0.7086614173228346,
          "duration": 0.3986482500000079
        },
        {
          "name": "C#2",
          "midi": 37,
          "time": 315.40509000000344,
          "velocity": 0.7086614173228346,
          "duration": 0.3986482500000079
        },
        {
          "name": "A#1",
          "midi": 34,
          "time": 316.01319750000346,
          "velocity": 0.7086614173228346,
          "duration": 0.19594575000002123
        },
        {
          "name": "F#2",
          "midi": 42,
          "time": 316.2159000000035,
          "velocity": 0.7086614173228346,
          "duration": 0.3986482500000079
        },
        {
          "name": "F#2",
          "midi": 42,
          "time": 316.4186025000035,
          "velocity": 0.7086614173228346,
          "duration": 0.19594575000002123
        },
        {
          "name": "A#1",
          "midi": 34,
          "time": 316.62130500000353,
          "velocity": 0.7086614173228346,
          "duration": 0.3986482500000079
        },
        {
          "name": "A1",
          "midi": 33,
          "time": 317.83752000000356,
          "velocity": 0.7086614173228346,
          "duration": 0.19594575000002123
        },
        {
          "name": "A1",
          "midi": 33,
          "time": 318.0402225000036,
          "velocity": 0.7086614173228346,
          "duration": 0.19594575000002123
        },
        {
          "name": "E2",
          "midi": 40,
          "time": 318.24292500000365,
          "velocity": 0.7086614173228346,
          "duration": 0.3986482500000079
        },
        {
          "name": "A2",
          "midi": 45,
          "time": 318.6483300000037,
          "velocity": 0.7086614173228346,
          "duration": 0.3986482500000079
        },
        {
          "name": "E2",
          "midi": 40,
          "time": 319.2564375000037,
          "velocity": 0.7086614173228346,
          "duration": 0.19594575000002123
        },
        {
          "name": "A2",
          "midi": 45,
          "time": 319.45914000000374,
          "velocity": 0.7086614173228346,
          "duration": 0.3986482500000079
        },
        {
          "name": "A2",
          "midi": 45,
          "time": 319.66184250000373,
          "velocity": 0.7086614173228346,
          "duration": 0.19594575000002123
        },
        {
          "name": "E2",
          "midi": 40,
          "time": 319.8645450000038,
          "velocity": 0.7086614173228346,
          "duration": 0.3986482500000079
        },
        {
          "name": "E1",
          "midi": 28,
          "time": 321.0807600000038,
          "velocity": 0.7086614173228346,
          "duration": 0.19594575000002123
        },
        {
          "name": "E1",
          "midi": 28,
          "time": 321.28346250000385,
          "velocity": 0.7086614173228346,
          "duration": 0.19594575000002123
        },
        {
          "name": "B1",
          "midi": 35,
          "time": 321.4861650000039,
          "velocity": 0.7086614173228346,
          "duration": 0.3986482500000079
        },
        {
          "name": "E2",
          "midi": 40,
          "time": 321.8915700000039,
          "velocity": 0.7086614173228346,
          "duration": 0.3986482500000079
        },
        {
          "name": "B1",
          "midi": 35,
          "time": 322.49967750000394,
          "velocity": 0.7086614173228346,
          "duration": 0.19594575000002123
        },
        {
          "name": "E2",
          "midi": 40,
          "time": 322.702380000004,
          "velocity": 0.7086614173228346,
          "duration": 0.3986482500000079
        },
        {
          "name": "E2",
          "midi": 40,
          "time": 322.90508250000397,
          "velocity": 0.7086614173228346,
          "duration": 1.412160750000055
        },
        {
          "name": "B1",
          "midi": 35,
          "time": 323.107785000004,
          "velocity": 0.7086614173228346,
          "duration": 0.3986482500000079
        },
        {
          "name": "G1",
          "midi": 31,
          "time": 324.32400000000405,
          "velocity": 0.7086614173228346,
          "duration": 0.19594575000002123
        },
        {
          "name": "G1",
          "midi": 31,
          "time": 324.5267025000041,
          "velocity": 0.7086614173228346,
          "duration": 0.19594575000002123
        },
        {
          "name": "D2",
          "midi": 38,
          "time": 324.72940500000414,
          "velocity": 0.7086614173228346,
          "duration": 0.3986482500000079
        },
        {
          "name": "G2",
          "midi": 43,
          "time": 325.13481000000417,
          "velocity": 0.7086614173228346,
          "duration": 0.3986482500000079
        },
        {
          "name": "D2",
          "midi": 38,
          "time": 325.7429175000042,
          "velocity": 0.7086614173228346,
          "duration": 0.19594575000002123
        },
        {
          "name": "G2",
          "midi": 43,
          "time": 325.9456200000042,
          "velocity": 0.7086614173228346,
          "duration": 0.19594575000002123
        },
        {
          "name": "G2",
          "midi": 43,
          "time": 326.14832250000427,
          "velocity": 0.7086614173228346,
          "duration": 0.19594575000002123
        },
        {
          "name": "D2",
          "midi": 38,
          "time": 326.3510250000043,
          "velocity": 0.7086614173228346,
          "duration": 0.3986482500000079
        },
        {
          "name": "F#1",
          "midi": 30,
          "time": 327.56724000000435,
          "velocity": 0.7086614173228346,
          "duration": 0.19594575000002123
        },
        {
          "name": "A1",
          "midi": 33,
          "time": 327.7699425000044,
          "velocity": 0.7086614173228346,
          "duration": 0.19594575000002123
        },
        {
          "name": "D2",
          "midi": 38,
          "time": 327.97264500000443,
          "velocity": 0.7086614173228346,
          "duration": 0.3986482500000079
        },
        {
          "name": "F#2",
          "midi": 42,
          "time": 328.37805000000446,
          "velocity": 0.7086614173228346,
          "duration": 0.3986482500000079
        },
        {
          "name": "D2",
          "midi": 38,
          "time": 328.9861575000045,
          "velocity": 0.7086614173228346,
          "duration": 0.19594575000002123
        },
        {
          "name": "F#2",
          "midi": 42,
          "time": 329.1888600000045,
          "velocity": 0.7086614173228346,
          "duration": 0.19594575000002123
        },
        {
          "name": "F#2",
          "midi": 42,
          "time": 329.39156250000457,
          "velocity": 0.7086614173228346,
          "duration": 0.19594575000002123
        },
        {
          "name": "D2",
          "midi": 38,
          "time": 329.5942650000046,
          "velocity": 0.7086614173228346,
          "duration": 0.3986482500000079
        },
        {
          "name": "E1",
          "midi": 28,
          "time": 330.81048000000465,
          "velocity": 0.7086614173228346,
          "duration": 0.19594575000002123
        },
        {
          "name": "G1",
          "midi": 31,
          "time": 331.0131825000047,
          "velocity": 0.7086614173228346,
          "duration": 0.19594575000002123
        },
        {
          "name": "B1",
          "midi": 35,
          "time": 331.21588500000473,
          "velocity": 0.7086614173228346,
          "duration": 0.3986482500000079
        },
        {
          "name": "E2",
          "midi": 40,
          "time": 331.62129000000476,
          "velocity": 0.7086614173228346,
          "duration": 0.3986482500000079
        },
        {
          "name": "B1",
          "midi": 35,
          "time": 332.2293975000048,
          "velocity": 0.7086614173228346,
          "duration": 0.19594575000002123
        },
        {
          "name": "E2",
          "midi": 40,
          "time": 332.4321000000048,
          "velocity": 0.7086614173228346,
          "duration": 0.19594575000002123
        },
        {
          "name": "E2",
          "midi": 40,
          "time": 332.63480250000487,
          "velocity": 0.7086614173228346,
          "duration": 0.19594575000002123
        },
        {
          "name": "B1",
          "midi": 35,
          "time": 332.8375050000049,
          "velocity": 0.7086614173228346,
          "duration": 0.3986482500000079
        },
        {
          "name": "F#1",
          "midi": 30,
          "time": 334.05372000000494,
          "velocity": 0.7086614173228346,
          "duration": 0.19594575000002123
        },
        {
          "name": "A1",
          "midi": 33,
          "time": 334.256422500005,
          "velocity": 0.7086614173228346,
          "duration": 0.19594575000002123
        },
        {
          "name": "C#2",
          "midi": 37,
          "time": 334.45912500000503,
          "velocity": 0.7086614173228346,
          "duration": 0.19594575000002123
        },
        {
          "name": "F#2",
          "midi": 42,
          "time": 334.6618275000051,
          "velocity": 0.7086614173228346,
          "duration": 0.8040532499999813
        },
        {
          "name": "C#2",
          "midi": 37,
          "time": 335.4726375000051,
          "velocity": 0.7086614173228346,
          "duration": 0.19594575000002123
        },
        {
          "name": "F#2",
          "midi": 42,
          "time": 335.6753400000051,
          "velocity": 0.7086614173228346,
          "duration": 0.3986482500000079
        },
        {
          "name": "C#2",
          "midi": 37,
          "time": 336.28344750000514,
          "velocity": 0.7086614173228346,
          "duration": 0.19594575000002123
        },
        {
          "name": "F#2",
          "midi": 42,
          "time": 336.4861500000052,
          "velocity": 0.7086614173228346,
          "duration": 0.3986482500000079
        },
        {
          "name": "B1",
          "midi": 35,
          "time": 337.2969600000052,
          "velocity": 0.7086614173228346,
          "duration": 0.19594575000002123
        },
        {
          "name": "B1",
          "midi": 35,
          "time": 337.49966250000523,
          "velocity": 0.7086614173228346,
          "duration": 0.19594575000002123
        },
        {
          "name": "F#1",
          "midi": 30,
          "time": 337.7023650000053,
          "velocity": 0.7086614173228346,
          "duration": 0.3986482500000079
        },
        {
          "name": "B1",
          "midi": 35,
          "time": 338.1077700000053,
          "velocity": 0.7086614173228346,
          "duration": 0.3986482500000079
        },
        {
          "name": "F#1",
          "midi": 30,
          "time": 338.7158775000053,
          "velocity": 0.7086614173228346,
          "duration": 0.19594575000002123
        },
        {
          "name": "B1",
          "midi": 35,
          "time": 338.91858000000536,
          "velocity": 0.7086614173228346,
          "duration": 0.19594575000002123
        },
        {
          "name": "B1",
          "midi": 35,
          "time": 339.1212825000054,
          "velocity": 0.7086614173228346,
          "duration": 0.19594575000002123
        },
        {
          "name": "F#1",
          "midi": 30,
          "time": 339.32398500000545,
          "velocity": 0.7086614173228346,
          "duration": 0.3986482500000079
        },
        {
          "name": "F#1",
          "midi": 30,
          "time": 340.5402000000055,
          "velocity": 0.7086614173228346,
          "duration": 0.19594575000002123
        },
        {
          "name": "F#1",
          "midi": 30,
          "time": 340.7429025000055,
          "velocity": 0.7086614173228346,
          "duration": 0.19594575000002123
        },
        {
          "name": "A#1",
          "midi": 34,
          "time": 340.94560500000557,
          "velocity": 0.7086614173228346,
          "duration": 0.3986482500000079
        },
        {
          "name": "C#2",
          "midi": 37,
          "time": 341.3510100000056,
          "velocity": 0.7086614173228346,
          "duration": 0.3986482500000079
        },
        {
          "name": "A#1",
          "midi": 34,
          "time": 341.9591175000056,
          "velocity": 0.7086614173228346,
          "duration": 0.19594575000002123
        },
        {
          "name": "F#2",
          "midi": 42,
          "time": 342.16182000000566,
          "velocity": 0.7086614173228346,
          "duration": 0.3986482500000079
        },
        {
          "name": "F#2",
          "midi": 42,
          "time": 342.36452250000565,
          "velocity": 0.7086614173228346,
          "duration": 0.19594575000002123
        },
        {
          "name": "A#1",
          "midi": 34,
          "time": 342.5672250000057,
          "velocity": 0.7086614173228346,
          "duration": 0.3986482500000079
        },
        {
          "name": "A1",
          "midi": 33,
          "time": 343.7834400000057,
          "velocity": 0.7086614173228346,
          "duration": 0.19594575000002123
        },
        {
          "name": "A1",
          "midi": 33,
          "time": 343.98614250000577,
          "velocity": 0.7086614173228346,
          "duration": 0.19594575000002123
        },
        {
          "name": "E2",
          "midi": 40,
          "time": 344.1888450000058,
          "velocity": 0.7086614173228346,
          "duration": 0.3986482500000079
        },
        {
          "name": "A2",
          "midi": 45,
          "time": 344.59425000000584,
          "velocity": 0.7086614173228346,
          "duration": 0.3986482500000079
        },
        {
          "name": "E2",
          "midi": 40,
          "time": 345.20235750000586,
          "velocity": 0.7086614173228346,
          "duration": 0.19594575000002123
        },
        {
          "name": "A2",
          "midi": 45,
          "time": 345.4050600000059,
          "velocity": 0.7086614173228346,
          "duration": 0.3986482500000079
        },
        {
          "name": "A2",
          "midi": 45,
          "time": 345.6077625000059,
          "velocity": 0.7086614173228346,
          "duration": 0.19594575000002123
        },
        {
          "name": "E2",
          "midi": 40,
          "time": 345.81046500000593,
          "velocity": 0.7086614173228346,
          "duration": 0.3986482500000079
        },
        {
          "name": "E1",
          "midi": 28,
          "time": 347.02668000000597,
          "velocity": 0.7086614173228346,
          "duration": 0.19594575000002123
        },
        {
          "name": "E1",
          "midi": 28,
          "time": 347.229382500006,
          "velocity": 0.7086614173228346,
          "duration": 0.19594575000002123
        },
        {
          "name": "B1",
          "midi": 35,
          "time": 347.43208500000605,
          "velocity": 0.7086614173228346,
          "duration": 0.3986482500000079
        },
        {
          "name": "E2",
          "midi": 40,
          "time": 347.8374900000061,
          "velocity": 0.7086614173228346,
          "duration": 0.3986482500000079
        },
        {
          "name": "B1",
          "midi": 35,
          "time": 348.4455975000061,
          "velocity": 0.7086614173228346,
          "duration": 0.19594575000002123
        },
        {
          "name": "E2",
          "midi": 40,
          "time": 348.64830000000615,
          "velocity": 0.7086614173228346,
          "duration": 0.3986482500000079
        },
        {
          "name": "E2",
          "midi": 40,
          "time": 348.85100250000613,
          "velocity": 0.7086614173228346,
          "duration": 1.412160750000055
        },
        {
          "name": "B1",
          "midi": 35,
          "time": 349.0537050000062,
          "velocity": 0.7086614173228346,
          "duration": 0.3986482500000079
        },
        {
          "name": "G1",
          "midi": 31,
          "time": 350.2699200000062,
          "velocity": 0.7086614173228346,
          "duration": 0.19594575000002123
        },
        {
          "name": "G1",
          "midi": 31,
          "time": 350.47262250000625,
          "velocity": 0.7086614173228346,
          "duration": 0.19594575000002123
        },
        {
          "name": "D2",
          "midi": 38,
          "time": 350.6753250000063,
          "velocity": 0.7086614173228346,
          "duration": 0.3986482500000079
        },
        {
          "name": "G2",
          "midi": 43,
          "time": 351.0807300000063,
          "velocity": 0.7086614173228346,
          "duration": 0.3986482500000079
        },
        {
          "name": "D2",
          "midi": 38,
          "time": 351.68883750000634,
          "velocity": 0.7086614173228346,
          "duration": 0.19594575000002123
        },
        {
          "name": "G2",
          "midi": 43,
          "time": 351.8915400000064,
          "velocity": 0.7086614173228346,
          "duration": 0.19594575000002123
        },
        {
          "name": "G2",
          "midi": 43,
          "time": 352.09424250000643,
          "velocity": 0.7086614173228346,
          "duration": 0.19594575000002123
        },
        {
          "name": "D2",
          "midi": 38,
          "time": 352.2969450000065,
          "velocity": 0.7086614173228346,
          "duration": 0.19594575000002123
        },
        {
          "name": "F#1",
          "midi": 30,
          "time": 353.5131600000065,
          "velocity": 0.7086614173228346,
          "duration": 0.19594575000002123
        },
        {
          "name": "A1",
          "midi": 33,
          "time": 353.71586250000655,
          "velocity": 0.7086614173228346,
          "duration": 0.19594575000002123
        },
        {
          "name": "D2",
          "midi": 38,
          "time": 353.9185650000066,
          "velocity": 0.7086614173228346,
          "duration": 0.3986482500000079
        },
        {
          "name": "F#2",
          "midi": 42,
          "time": 354.3239700000066,
          "velocity": 0.7086614173228346,
          "duration": 0.3986482500000079
        },
        {
          "name": "D2",
          "midi": 38,
          "time": 354.93207750000664,
          "velocity": 0.7086614173228346,
          "duration": 0.19594575000002123
        },
        {
          "name": "F#2",
          "midi": 42,
          "time": 355.1347800000067,
          "velocity": 0.7086614173228346,
          "duration": 0.19594575000002123
        },
        {
          "name": "F#2",
          "midi": 42,
          "time": 355.33748250000673,
          "velocity": 0.7086614173228346,
          "duration": 0.19594575000002123
        },
        {
          "name": "D2",
          "midi": 38,
          "time": 355.5401850000068,
          "velocity": 0.7086614173228346,
          "duration": 0.3986482500000079
        },
        {
          "name": "E1",
          "midi": 28,
          "time": 356.7564000000068,
          "velocity": 0.7086614173228346,
          "duration": 0.19594575000002123
        },
        {
          "name": "G1",
          "midi": 31,
          "time": 356.95910250000685,
          "velocity": 0.7086614173228346,
          "duration": 0.19594575000002123
        },
        {
          "name": "B1",
          "midi": 35,
          "time": 357.1618050000069,
          "velocity": 0.7086614173228346,
          "duration": 0.3986482500000079
        },
        {
          "name": "E2",
          "midi": 40,
          "time": 357.5672100000069,
          "velocity": 0.7086614173228346,
          "duration": 0.3986482500000079
        },
        {
          "name": "B1",
          "midi": 35,
          "time": 358.17531750000694,
          "velocity": 0.7086614173228346,
          "duration": 0.19594575000002123
        },
        {
          "name": "E2",
          "midi": 40,
          "time": 358.378020000007,
          "velocity": 0.7086614173228346,
          "duration": 0.19594575000002123
        },
        {
          "name": "E2",
          "midi": 40,
          "time": 358.580722500007,
          "velocity": 0.7086614173228346,
          "duration": 0.19594575000002123
        },
        {
          "name": "B1",
          "midi": 35,
          "time": 358.78342500000707,
          "velocity": 0.7086614173228346,
          "duration": 0.3986482500000079
        },
        {
          "name": "F#1",
          "midi": 30,
          "time": 359.9996400000071,
          "velocity": 0.7086614173228346,
          "duration": 0.19594575000002123
        },
        {
          "name": "A1",
          "midi": 33,
          "time": 360.20234250000715,
          "velocity": 0.7086614173228346,
          "duration": 0.19594575000002123
        },
        {
          "name": "C#2",
          "midi": 37,
          "time": 360.4050450000072,
          "velocity": 0.7086614173228346,
          "duration": 0.19594575000002123
        },
        {
          "name": "F#2",
          "midi": 42,
          "time": 360.60774750000724,
          "velocity": 0.7086614173228346,
          "duration": 0.8040532499999813
        },
        {
          "name": "C#2",
          "midi": 37,
          "time": 361.41855750000724,
          "velocity": 0.7086614173228346,
          "duration": 0.19594575000002123
        },
        {
          "name": "F#2",
          "midi": 42,
          "time": 361.6212600000073,
          "velocity": 0.7086614173228346,
          "duration": 0.3986482500000079
        },
        {
          "name": "C#2",
          "midi": 37,
          "time": 362.2293675000073,
          "velocity": 0.7086614173228346,
          "duration": 0.19594575000002123
        },
        {
          "name": "F#2",
          "midi": 42,
          "time": 362.43207000000734,
          "velocity": 0.7086614173228346,
          "duration": 0.3986482500000079
        },
        {
          "name": "B1",
          "midi": 35,
          "time": 363.24288000000735,
          "velocity": 0.7086614173228346,
          "duration": 0.19594575000002123
        },
        {
          "name": "B1",
          "midi": 35,
          "time": 363.4455825000074,
          "velocity": 0.7086614173228346,
          "duration": 0.19594575000002123
        },
        {
          "name": "F#1",
          "midi": 30,
          "time": 363.64828500000743,
          "velocity": 0.7086614173228346,
          "duration": 0.3986482500000079
        },
        {
          "name": "B1",
          "midi": 35,
          "time": 364.05369000000746,
          "velocity": 0.7086614173228346,
          "duration": 0.3986482500000079
        },
        {
          "name": "F#1",
          "midi": 30,
          "time": 364.6617975000075,
          "velocity": 0.7086614173228346,
          "duration": 0.19594575000002123
        },
        {
          "name": "B1",
          "midi": 35,
          "time": 364.8645000000075,
          "velocity": 0.7086614173228346,
          "duration": 0.19594575000002123
        },
        {
          "name": "B1",
          "midi": 35,
          "time": 365.06720250000757,
          "velocity": 0.7086614173228346,
          "duration": 0.19594575000002123
        },
        {
          "name": "F#1",
          "midi": 30,
          "time": 365.2699050000076,
          "velocity": 0.7086614173228346,
          "duration": 0.3986482500000079
        },
        {
          "name": "F#1",
          "midi": 30,
          "time": 366.48612000000765,
          "velocity": 0.7086614173228346,
          "duration": 0.19594575000002123
        },
        {
          "name": "F#1",
          "midi": 30,
          "time": 366.6888225000077,
          "velocity": 0.7086614173228346,
          "duration": 0.19594575000002123
        },
        {
          "name": "A#1",
          "midi": 34,
          "time": 366.89152500000773,
          "velocity": 0.7086614173228346,
          "duration": 0.3986482500000079
        },
        {
          "name": "C#2",
          "midi": 37,
          "time": 367.29693000000776,
          "velocity": 0.7086614173228346,
          "duration": 0.3986482500000079
        },
        {
          "name": "A#1",
          "midi": 34,
          "time": 367.9050375000078,
          "velocity": 0.7086614173228346,
          "duration": 0.19594575000002123
        },
        {
          "name": "F#2",
          "midi": 42,
          "time": 368.1077400000078,
          "velocity": 0.7086614173228346,
          "duration": 0.3986482500000079
        },
        {
          "name": "F#2",
          "midi": 42,
          "time": 368.3104425000078,
          "velocity": 0.7086614173228346,
          "duration": 0.19594575000002123
        },
        {
          "name": "A#1",
          "midi": 34,
          "time": 368.51314500000785,
          "velocity": 0.7086614173228346,
          "duration": 0.3986482500000079
        },
        {
          "name": "A1",
          "midi": 33,
          "time": 369.7293600000079,
          "velocity": 0.7086614173228346,
          "duration": 0.19594575000002123
        },
        {
          "name": "A1",
          "midi": 33,
          "time": 369.93206250000793,
          "velocity": 0.7086614173228346,
          "duration": 0.19594575000002123
        },
        {
          "name": "E2",
          "midi": 40,
          "time": 370.134765000008,
          "velocity": 0.7086614173228346,
          "duration": 0.3986482500000079
        },
        {
          "name": "A2",
          "midi": 45,
          "time": 370.540170000008,
          "velocity": 0.7086614173228346,
          "duration": 0.3986482500000079
        },
        {
          "name": "E2",
          "midi": 40,
          "time": 371.148277500008,
          "velocity": 0.7086614173228346,
          "duration": 0.19594575000002123
        },
        {
          "name": "A2",
          "midi": 45,
          "time": 371.35098000000806,
          "velocity": 0.7086614173228346,
          "duration": 0.3986482500000079
        },
        {
          "name": "A2",
          "midi": 45,
          "time": 371.55368250000805,
          "velocity": 0.7086614173228346,
          "duration": 0.19594575000002123
        },
        {
          "name": "E2",
          "midi": 40,
          "time": 371.7563850000081,
          "velocity": 0.7086614173228346,
          "duration": 0.3986482500000079
        },
        {
          "name": "E1",
          "midi": 28,
          "time": 372.97260000000813,
          "velocity": 0.7086614173228346,
          "duration": 0.19594575000002123
        },
        {
          "name": "E1",
          "midi": 28,
          "time": 373.1753025000082,
          "velocity": 0.7086614173228346,
          "duration": 0.19594575000002123
        },
        {
          "name": "B1",
          "midi": 35,
          "time": 373.3780050000082,
          "velocity": 0.7086614173228346,
          "duration": 0.3986482500000079
        },
        {
          "name": "E2",
          "midi": 40,
          "time": 373.78341000000825,
          "velocity": 0.7086614173228346,
          "duration": 0.3986482500000079
        },
        {
          "name": "B1",
          "midi": 35,
          "time": 374.39151750000826,
          "velocity": 0.7086614173228346,
          "duration": 0.19594575000002123
        },
        {
          "name": "E2",
          "midi": 40,
          "time": 374.5942200000083,
          "velocity": 0.7086614173228346,
          "duration": 0.3986482500000079
        },
        {
          "name": "E2",
          "midi": 40,
          "time": 374.7969225000083,
          "velocity": 0.7086614173228346,
          "duration": 1.412160750000055
        },
        {
          "name": "B1",
          "midi": 35,
          "time": 374.99962500000834,
          "velocity": 0.7086614173228346,
          "duration": 0.3986482500000079
        },
        {
          "name": "G1",
          "midi": 31,
          "time": 376.21584000000837,
          "velocity": 0.7086614173228346,
          "duration": 0.19594575000002123
        },
        {
          "name": "G1",
          "midi": 31,
          "time": 376.4185425000084,
          "velocity": 0.7086614173228346,
          "duration": 0.19594575000002123
        },
        {
          "name": "D2",
          "midi": 38,
          "time": 376.62124500000846,
          "velocity": 0.7086614173228346,
          "duration": 0.3986482500000079
        },
        {
          "name": "G2",
          "midi": 43,
          "time": 377.0266500000085,
          "velocity": 0.7086614173228346,
          "duration": 0.3986482500000079
        },
        {
          "name": "D2",
          "midi": 38,
          "time": 377.6347575000085,
          "velocity": 0.7086614173228346,
          "duration": 0.19594575000002123
        },
        {
          "name": "G2",
          "midi": 43,
          "time": 377.83746000000855,
          "velocity": 0.7086614173228346,
          "duration": 0.19594575000002123
        },
        {
          "name": "G2",
          "midi": 43,
          "time": 378.0401625000086,
          "velocity": 0.7086614173228346,
          "duration": 0.19594575000002123
        },
        {
          "name": "D2",
          "midi": 38,
          "time": 378.24286500000863,
          "velocity": 0.7086614173228346,
          "duration": 0.3986482500000079
        },
        {
          "name": "F#1",
          "midi": 30,
          "time": 379.45908000000867,
          "velocity": 0.7086614173228346,
          "duration": 0.19594575000002123
        },
        {
          "name": "A1",
          "midi": 33,
          "time": 379.6617825000087,
          "velocity": 0.7086614173228346,
          "duration": 0.19594575000002123
        },
        {
          "name": "D2",
          "midi": 38,
          "time": 379.86448500000876,
          "velocity": 0.7086614173228346,
          "duration": 0.3986482500000079
        },
        {
          "name": "F#2",
          "midi": 42,
          "time": 380.2698900000088,
          "velocity": 0.7086614173228346,
          "duration": 0.3986482500000079
        },
        {
          "name": "D2",
          "midi": 38,
          "time": 380.8779975000088,
          "velocity": 0.7086614173228346,
          "duration": 0.19594575000002123
        },
        {
          "name": "F#2",
          "midi": 42,
          "time": 381.08070000000885,
          "velocity": 0.7086614173228346,
          "duration": 0.19594575000002123
        },
        {
          "name": "F#2",
          "midi": 42,
          "time": 381.2834025000089,
          "velocity": 0.7086614173228346,
          "duration": 0.19594575000002123
        },
        {
          "name": "D2",
          "midi": 38,
          "time": 381.48610500000893,
          "velocity": 0.7086614173228346,
          "duration": 0.3986482500000079
        },
        {
          "name": "E1",
          "midi": 28,
          "time": 382.70232000000897,
          "velocity": 0.7086614173228346,
          "duration": 0.19594575000002123
        },
        {
          "name": "G1",
          "midi": 31,
          "time": 382.905022500009,
          "velocity": 0.7086614173228346,
          "duration": 0.19594575000002123
        },
        {
          "name": "B1",
          "midi": 35,
          "time": 383.10772500000905,
          "velocity": 0.7086614173228346,
          "duration": 0.3986482500000079
        },
        {
          "name": "E2",
          "midi": 40,
          "time": 383.5131300000091,
          "velocity": 0.7086614173228346,
          "duration": 0.3986482500000079
        },
        {
          "name": "B1",
          "midi": 35,
          "time": 384.1212375000091,
          "velocity": 0.7086614173228346,
          "duration": 0.19594575000002123
        },
        {
          "name": "E2",
          "midi": 40,
          "time": 384.32394000000915,
          "velocity": 0.7086614173228346,
          "duration": 0.19594575000002123
        },
        {
          "name": "E2",
          "midi": 40,
          "time": 384.5266425000092,
          "velocity": 0.7086614173228346,
          "duration": 0.19594575000002123
        },
        {
          "name": "B1",
          "midi": 35,
          "time": 384.72934500000923,
          "velocity": 0.7086614173228346,
          "duration": 0.3986482500000079
        },
        {
          "name": "F#1",
          "midi": 30,
          "time": 385.94556000000927,
          "velocity": 0.7086614173228346,
          "duration": 0.19594575000002123
        },
        {
          "name": "A1",
          "midi": 33,
          "time": 386.1482625000093,
          "velocity": 0.7086614173228346,
          "duration": 0.19594575000002123
        },
        {
          "name": "C#2",
          "midi": 37,
          "time": 386.35096500000935,
          "velocity": 0.7086614173228346,
          "duration": 0.19594575000002123
        },
        {
          "name": "F#2",
          "midi": 42,
          "time": 386.5536675000094,
          "velocity": 0.7086614173228346,
          "duration": 0.8040532499999813
        },
        {
          "name": "C#2",
          "midi": 37,
          "time": 387.3644775000094,
          "velocity": 0.7086614173228346,
          "duration": 0.19594575000002123
        },
        {
          "name": "F#2",
          "midi": 42,
          "time": 387.56718000000944,
          "velocity": 0.7086614173228346,
          "duration": 0.3986482500000079
        },
        {
          "name": "C#2",
          "midi": 37,
          "time": 388.17528750000946,
          "velocity": 0.7086614173228346,
          "duration": 0.19594575000002123
        },
        {
          "name": "F#2",
          "midi": 42,
          "time": 388.3779900000095,
          "velocity": 0.7086614173228346,
          "duration": 0.3986482500000079
        }
      ],
      "controlChanges": {
        "7": [
          {
            "number": 7,
            "time": 0,
            "value": 0.9448818897637795
          },
          {
            "number": 7,
            "time": 364.05369000000746,
            "value": 0.7086614173228346
          },
          {
            "number": 7,
            "time": 364.8645000000075,
            "value": 0.6850393700787402
          },
          {
            "number": 7,
            "time": 365.67531000000764,
            "value": 0.6614173228346457
          },
          {
            "number": 7,
            "time": 366.48612000000765,
            "value": 0.6377952755905512
          },
          {
            "number": 7,
            "time": 367.29693000000776,
            "value": 0.6141732283464567
          },
          {
            "number": 7,
            "time": 368.1077400000078,
            "value": 0.5905511811023622
          },
          {
            "number": 7,
            "time": 368.9185500000079,
            "value": 0.5669291338582677
          },
          {
            "number": 7,
            "time": 369.7293600000079,
            "value": 0.5433070866141733
          },
          {
            "number": 7,
            "time": 370.540170000008,
            "value": 0.5196850393700787
          },
          {
            "number": 7,
            "time": 371.35098000000806,
            "value": 0.49606299212598426
          },
          {
            "number": 7,
            "time": 372.1617900000081,
            "value": 0.47244094488188976
          },
          {
            "number": 7,
            "time": 372.97260000000813,
            "value": 0.44881889763779526
          },
          {
            "number": 7,
            "time": 373.78341000000825,
            "value": 0.4251968503937008
          },
          {
            "number": 7,
            "time": 374.5942200000083,
            "value": 0.4015748031496063
          },
          {
            "number": 7,
            "time": 375.40503000000837,
            "value": 0.3779527559055118
          },
          {
            "number": 7,
            "time": 376.21584000000837,
            "value": 0.3543307086614173
          },
          {
            "number": 7,
            "time": 377.0266500000085,
            "value": 0.33070866141732286
          },
          {
            "number": 7,
            "time": 377.83746000000855,
            "value": 0.30708661417322836
          },
          {
            "number": 7,
            "time": 378.64827000000867,
            "value": 0.28346456692913385
          },
          {
            "number": 7,
            "time": 379.45908000000867,
            "value": 0.25984251968503935
          },
          {
            "number": 7,
            "time": 380.2698900000088,
            "value": 0.23622047244094488
          },
          {
            "number": 7,
            "time": 381.08070000000885,
            "value": 0.2125984251968504
          },
          {
            "number": 7,
            "time": 381.89151000000896,
            "value": 0.1889763779527559
          },
          {
            "number": 7,
            "time": 382.70232000000897,
            "value": 0.16535433070866143
          },
          {
            "number": 7,
            "time": 383.5131300000091,
            "value": 0.14173228346456693
          },
          {
            "number": 7,
            "time": 384.32394000000915,
            "value": 0.11811023622047244
          },
          {
            "number": 7,
            "time": 385.13475000000926,
            "value": 0.09448818897637795
          },
          {
            "number": 7,
            "time": 385.94556000000927,
            "value": 0.07086614173228346
          },
          {
            "number": 7,
            "time": 386.7563700000094,
            "value": 0.047244094488188976
          },
          {
            "number": 7,
            "time": 387.56718000000944,
            "value": 0.023622047244094488
          },
          {
            "number": 7,
            "time": 388.3779900000095,
            "value": 0
          }
        ]
      },
      "id": 3,
      "name": "WinJammer Demo",
      "instrumentNumber": 33,
      "instrument": "electric bass (finger)",
      "instrumentFamily": "bass",
      "channelNumber": 2,
      "isPercussion": false
    },
    {
      "startTime": 52.297245000000004,
      "duration": 258.6416332499981,
      "length": 435,
      "notes": [
        {
          "name": "F#4",
          "midi": 66,
          "time": 52.297245000000004,
          "velocity": 0.7874015748031497,
          "duration": 0.19594574999999992
        },
        {
          "name": "F#4",
          "midi": 66,
          "time": 52.499947500000005,
          "velocity": 0.7874015748031497,
          "duration": 0.19594574999999992
        },
        {
          "name": "F#4",
          "midi": 66,
          "time": 52.702650000000006,
          "velocity": 0.7874015748031497,
          "duration": 0.3986482500000008
        },
        {
          "name": "E4",
          "midi": 64,
          "time": 53.10805500000001,
          "velocity": 0.7874015748031497,
          "duration": 0.19594574999999992
        },
        {
          "name": "D4",
          "midi": 62,
          "time": 53.31075750000001,
          "velocity": 0.7874015748031497,
          "duration": 0.19594574999999992
        },
        {
          "name": "D4",
          "midi": 62,
          "time": 53.51346000000001,
          "velocity": 0.7874015748031497,
          "duration": 0.3986482500000008
        },
        {
          "name": "F#4",
          "midi": 66,
          "time": 53.91886500000001,
          "velocity": 0.7874015748031497,
          "duration": 0.8040532500000026
        },
        {
          "name": "F#4",
          "midi": 66,
          "time": 55.54048500000001,
          "velocity": 0.7874015748031497,
          "duration": 0.3986482500000008
        },
        {
          "name": "F#4",
          "midi": 66,
          "time": 55.94589000000001,
          "velocity": 0.7874015748031497,
          "duration": 0.2635132500000026
        },
        {
          "name": "E4",
          "midi": 64,
          "time": 56.216160000000016,
          "velocity": 0.7874015748031497,
          "duration": 0.2635132500000026
        },
        {
          "name": "D4",
          "midi": 62,
          "time": 56.48643000000002,
          "velocity": 0.7874015748031497,
          "duration": 0.2635132500000026
        },
        {
          "name": "F#4",
          "midi": 66,
          "time": 56.75670000000002,
          "velocity": 0.7874015748031497,
          "duration": 0.8040532500000026
        },
        {
          "name": "E4",
          "midi": 64,
          "time": 58.783725000000025,
          "velocity": 0.7874015748031497,
          "duration": 0.3986482500000008
        },
        {
          "name": "E4",
          "midi": 64,
          "time": 59.18913000000003,
          "velocity": 0.7874015748031497,
          "duration": 0.2635132500000026
        },
        {
          "name": "E4",
          "midi": 64,
          "time": 59.45940000000003,
          "velocity": 0.7874015748031497,
          "duration": 0.2635132500000026
        },
        {
          "name": "E4",
          "midi": 64,
          "time": 59.729670000000034,
          "velocity": 0.7874015748031497,
          "duration": 0.2635132500000026
        },
        {
          "name": "E4",
          "midi": 64,
          "time": 59.99994000000004,
          "velocity": 0.7874015748031497,
          "duration": 0.3986482500000008
        },
        {
          "name": "F#4",
          "midi": 66,
          "time": 60.40534500000004,
          "velocity": 0.7874015748031497,
          "duration": 0.8040532500000026
        },
        {
          "name": "F#4",
          "midi": 66,
          "time": 62.02696500000004,
          "velocity": 0.7874015748031497,
          "duration": 0.19594574999999992
        },
        {
          "name": "F#4",
          "midi": 66,
          "time": 62.22966750000004,
          "velocity": 0.7874015748031497,
          "duration": 0.19594574999999992
        },
        {
          "name": "F#4",
          "midi": 66,
          "time": 62.43237000000004,
          "velocity": 0.7874015748031497,
          "duration": 0.2635132500000026
        },
        {
          "name": "E4",
          "midi": 64,
          "time": 62.702640000000045,
          "velocity": 0.7874015748031497,
          "duration": 0.2635132500000026
        },
        {
          "name": "E4",
          "midi": 64,
          "time": 62.97291000000005,
          "velocity": 0.7874015748031497,
          "duration": 0.2635132500000026
        },
        {
          "name": "E4",
          "midi": 64,
          "time": 63.24318000000005,
          "velocity": 0.7874015748031497,
          "duration": 0.19594574999999992
        },
        {
          "name": "D4",
          "midi": 62,
          "time": 63.44588250000005,
          "velocity": 0.7874015748031497,
          "duration": 0.19594574999999992
        },
        {
          "name": "B3",
          "midi": 59,
          "time": 63.648585000000054,
          "velocity": 0.7874015748031497,
          "duration": 0.8040532499999955
        },
        {
          "name": "F#4",
          "midi": 66,
          "time": 65.27020500000005,
          "velocity": 0.7874015748031497,
          "duration": 0.19594575000000702
        },
        {
          "name": "F#4",
          "midi": 66,
          "time": 65.47290750000005,
          "velocity": 0.7874015748031497,
          "duration": 0.19594575000000702
        },
        {
          "name": "F#4",
          "midi": 66,
          "time": 65.67561000000005,
          "velocity": 0.7874015748031497,
          "duration": 0.3986482499999937
        },
        {
          "name": "E4",
          "midi": 64,
          "time": 66.08101500000004,
          "velocity": 0.7874015748031497,
          "duration": 0.19594575000000702
        },
        {
          "name": "D4",
          "midi": 62,
          "time": 66.28371750000004,
          "velocity": 0.7874015748031497,
          "duration": 0.19594575000000702
        },
        {
          "name": "D4",
          "midi": 62,
          "time": 66.48642000000004,
          "velocity": 0.7874015748031497,
          "duration": 0.3986482499999937
        },
        {
          "name": "F#4",
          "midi": 66,
          "time": 66.89182500000003,
          "velocity": 0.7874015748031497,
          "duration": 0.8040532499999955
        },
        {
          "name": "A3",
          "midi": 57,
          "time": 68.31074250000002,
          "velocity": 0.7874015748031497,
          "duration": 0.19594575000000702
        },
        {
          "name": "A3",
          "midi": 57,
          "time": 68.51344500000002,
          "velocity": 0.7874015748031497,
          "duration": 0.19594575000000702
        },
        {
          "name": "A3",
          "midi": 57,
          "time": 68.71614750000002,
          "velocity": 0.7874015748031497,
          "duration": 0.19594575000000702
        },
        {
          "name": "F#4",
          "midi": 66,
          "time": 68.91885000000002,
          "velocity": 0.7874015748031497,
          "duration": 0.2635132500000026
        },
        {
          "name": "E4",
          "midi": 64,
          "time": 69.18912000000002,
          "velocity": 0.7874015748031497,
          "duration": 0.2635132500000026
        },
        {
          "name": "D4",
          "midi": 62,
          "time": 69.45939000000001,
          "velocity": 0.7874015748031497,
          "duration": 0.2635132500000026
        },
        {
          "name": "D4",
          "midi": 62,
          "time": 69.72966000000001,
          "velocity": 0.7874015748031497,
          "duration": 0.8040532499999955
        },
        {
          "name": "A3",
          "midi": 57,
          "time": 71.5539825,
          "velocity": 0.7874015748031497,
          "duration": 0.19594575000000702
        },
        {
          "name": "E4",
          "midi": 64,
          "time": 71.756685,
          "velocity": 0.7874015748031497,
          "duration": 0.19594575000000702
        },
        {
          "name": "E4",
          "midi": 64,
          "time": 71.9593875,
          "velocity": 0.7874015748031497,
          "duration": 0.19594575000000702
        },
        {
          "name": "E4",
          "midi": 64,
          "time": 72.16209,
          "velocity": 0.7874015748031497,
          "duration": 0.19594575000000702
        },
        {
          "name": "E4",
          "midi": 64,
          "time": 72.36479250000001,
          "velocity": 0.7874015748031497,
          "duration": 0.19594575000000702
        },
        {
          "name": "E4",
          "midi": 64,
          "time": 72.56749500000001,
          "velocity": 0.7874015748031497,
          "duration": 0.19594575000000702
        },
        {
          "name": "E4",
          "midi": 64,
          "time": 72.77019750000001,
          "velocity": 0.7874015748031497,
          "duration": 0.19594575000000702
        },
        {
          "name": "E4",
          "midi": 64,
          "time": 72.97290000000001,
          "velocity": 0.7874015748031497,
          "duration": 0.19594575000000702
        },
        {
          "name": "D4",
          "midi": 62,
          "time": 73.17560250000001,
          "velocity": 0.7874015748031497,
          "duration": 0.3986482499999937
        },
        {
          "name": "F#4",
          "midi": 66,
          "time": 73.5810075,
          "velocity": 0.7874015748031497,
          "duration": 0.8040532499999955
        },
        {
          "name": "A3",
          "midi": 57,
          "time": 74.79722249999999,
          "velocity": 0.7874015748031497,
          "duration": 0.19594575000000702
        },
        {
          "name": "F#4",
          "midi": 66,
          "time": 74.99992499999999,
          "velocity": 0.7874015748031497,
          "duration": 0.19594575000000702
        },
        {
          "name": "F#4",
          "midi": 66,
          "time": 75.20262749999999,
          "velocity": 0.7874015748031497,
          "duration": 0.19594575000000702
        },
        {
          "name": "F#4",
          "midi": 66,
          "time": 75.40532999999999,
          "velocity": 0.7874015748031497,
          "duration": 0.3986482499999937
        },
        {
          "name": "E4",
          "midi": 64,
          "time": 75.81073499999998,
          "velocity": 0.7874015748031497,
          "duration": 0.19594575000000702
        },
        {
          "name": "D4",
          "midi": 62,
          "time": 76.01343749999998,
          "velocity": 0.7874015748031497,
          "duration": 0.19594575000000702
        },
        {
          "name": "F#4",
          "midi": 66,
          "time": 76.21613999999998,
          "velocity": 0.7874015748031497,
          "duration": 0.8040532499999955
        },
        {
          "name": "F#4",
          "midi": 66,
          "time": 78.24316499999998,
          "velocity": 0.7874015748031497,
          "duration": 0.19594575000000702
        },
        {
          "name": "F#4",
          "midi": 66,
          "time": 78.44586749999998,
          "velocity": 0.7874015748031497,
          "duration": 0.19594575000000702
        },
        {
          "name": "F#4",
          "midi": 66,
          "time": 78.64856999999998,
          "velocity": 0.7874015748031497,
          "duration": 0.2635132500000026
        },
        {
          "name": "G4",
          "midi": 67,
          "time": 78.91883999999997,
          "velocity": 0.7874015748031497,
          "duration": 0.2635132500000026
        },
        {
          "name": "F#4",
          "midi": 66,
          "time": 79.18910999999997,
          "velocity": 0.7874015748031497,
          "duration": 0.2635132500000026
        },
        {
          "name": "G4",
          "midi": 67,
          "time": 79.45937999999997,
          "velocity": 0.7874015748031497,
          "duration": 0.19594575000000702
        },
        {
          "name": "F#4",
          "midi": 66,
          "time": 79.66208249999997,
          "velocity": 0.7874015748031497,
          "duration": 1.0067557499999964
        },
        {
          "name": "A3",
          "midi": 57,
          "time": 81.28370249999996,
          "velocity": 0.7874015748031497,
          "duration": 0.19594575000000702
        },
        {
          "name": "F#4",
          "midi": 66,
          "time": 81.48640499999996,
          "velocity": 0.7874015748031497,
          "duration": 0.19594575000000702
        },
        {
          "name": "F#4",
          "midi": 66,
          "time": 81.68910749999996,
          "velocity": 0.7874015748031497,
          "duration": 0.19594575000000702
        },
        {
          "name": "F#4",
          "midi": 66,
          "time": 81.89180999999996,
          "velocity": 0.7874015748031497,
          "duration": 0.19594575000000702
        },
        {
          "name": "E4",
          "midi": 64,
          "time": 82.09451249999996,
          "velocity": 0.7874015748031497,
          "duration": 0.3986482499999937
        },
        {
          "name": "E4",
          "midi": 64,
          "time": 82.49991749999995,
          "velocity": 0.7874015748031497,
          "duration": 1.0067557499999964
        },
        {
          "name": "B3",
          "midi": 59,
          "time": 84.93234749999995,
          "velocity": 0.7874015748031497,
          "duration": 0.19594575000000702
        },
        {
          "name": "E4",
          "midi": 64,
          "time": 85.13504999999995,
          "velocity": 0.7874015748031497,
          "duration": 0.19594575000000702
        },
        {
          "name": "E4",
          "midi": 64,
          "time": 85.33775249999995,
          "velocity": 0.7874015748031497,
          "duration": 0.19594575000000702
        },
        {
          "name": "E4",
          "midi": 64,
          "time": 85.54045499999995,
          "velocity": 0.7874015748031497,
          "duration": 0.19594575000000702
        },
        {
          "name": "E4",
          "midi": 64,
          "time": 85.74315749999995,
          "velocity": 0.7874015748031497,
          "duration": 0.19594575000000702
        },
        {
          "name": "E4",
          "midi": 64,
          "time": 85.94585999999995,
          "velocity": 0.7874015748031497,
          "duration": 0.2635132500000026
        },
        {
          "name": "E4",
          "midi": 64,
          "time": 86.21612999999995,
          "velocity": 0.7874015748031497,
          "duration": 0.2635132500000026
        },
        {
          "name": "F#4",
          "midi": 66,
          "time": 86.48639999999995,
          "velocity": 0.7874015748031497,
          "duration": 0.4662157500000035
        },
        {
          "name": "F#4",
          "midi": 66,
          "time": 86.95937249999994,
          "velocity": 0.7874015748031497,
          "duration": 0.19594575000000702
        },
        {
          "name": "F#4",
          "midi": 66,
          "time": 87.16207499999994,
          "velocity": 0.7874015748031497,
          "duration": 0.19594575000000702
        },
        {
          "name": "F#4",
          "midi": 66,
          "time": 87.36477749999995,
          "velocity": 0.7874015748031497,
          "duration": 0.19594575000000702
        },
        {
          "name": "F#4",
          "midi": 66,
          "time": 87.56747999999995,
          "velocity": 0.7874015748031497,
          "duration": 0.3986482499999937
        },
        {
          "name": "F#4",
          "midi": 66,
          "time": 87.97288499999993,
          "velocity": 0.7874015748031497,
          "duration": 0.19594575000000702
        },
        {
          "name": "F#4",
          "midi": 66,
          "time": 88.17558749999993,
          "velocity": 0.7874015748031497,
          "duration": 0.19594575000000702
        },
        {
          "name": "F#4",
          "midi": 66,
          "time": 88.37828999999994,
          "velocity": 0.7874015748031497,
          "duration": 0.2635132500000026
        },
        {
          "name": "E4",
          "midi": 64,
          "time": 88.64855999999993,
          "velocity": 0.7874015748031497,
          "duration": 0.2635132500000026
        },
        {
          "name": "E4",
          "midi": 64,
          "time": 88.91882999999993,
          "velocity": 0.7874015748031497,
          "duration": 0.4662157500000035
        },
        {
          "name": "E4",
          "midi": 64,
          "time": 89.39180249999993,
          "velocity": 0.7874015748031497,
          "duration": 0.09459449999999947
        },
        {
          "name": "D4",
          "midi": 62,
          "time": 89.49315374999992,
          "velocity": 0.7874015748031497,
          "duration": 0.09459449999999947
        },
        {
          "name": "B3",
          "midi": 59,
          "time": 89.59450499999991,
          "velocity": 0.7874015748031497,
          "duration": 1.2094582499999973
        },
        {
          "name": "F#4",
          "midi": 66,
          "time": 91.2161249999999,
          "velocity": 0.7874015748031497,
          "duration": 0.19594575000000702
        },
        {
          "name": "F#4",
          "midi": 66,
          "time": 91.4188274999999,
          "velocity": 0.7874015748031497,
          "duration": 0.19594575000000702
        },
        {
          "name": "F#4",
          "midi": 66,
          "time": 91.62152999999991,
          "velocity": 0.7874015748031497,
          "duration": 0.2635132500000026
        },
        {
          "name": "E4",
          "midi": 64,
          "time": 91.8917999999999,
          "velocity": 0.7874015748031497,
          "duration": 0.2635132500000026
        },
        {
          "name": "D4",
          "midi": 62,
          "time": 92.1620699999999,
          "velocity": 0.7874015748031497,
          "duration": 0.2635132500000026
        },
        {
          "name": "D4",
          "midi": 62,
          "time": 92.4323399999999,
          "velocity": 0.7874015748031497,
          "duration": 0.3986482499999937
        },
        {
          "name": "F#4",
          "midi": 66,
          "time": 92.83774499999988,
          "velocity": 0.7874015748031497,
          "duration": 1.2094582499999973
        },
        {
          "name": "A3",
          "midi": 57,
          "time": 94.45936499999988,
          "velocity": 0.7874015748031497,
          "duration": 0.19594575000000702
        },
        {
          "name": "A3",
          "midi": 57,
          "time": 94.66206749999988,
          "velocity": 0.7874015748031497,
          "duration": 0.19594575000000702
        },
        {
          "name": "F#4",
          "midi": 66,
          "time": 94.86476999999988,
          "velocity": 0.7874015748031497,
          "duration": 0.2635132500000026
        },
        {
          "name": "E4",
          "midi": 64,
          "time": 95.13503999999988,
          "velocity": 0.7874015748031497,
          "duration": 0.2635132500000026
        },
        {
          "name": "D4",
          "midi": 62,
          "time": 95.40530999999987,
          "velocity": 0.7874015748031497,
          "duration": 0.2635132500000026
        },
        {
          "name": "D4",
          "midi": 62,
          "time": 95.67557999999987,
          "velocity": 0.7874015748031497,
          "duration": 0.8040532499999955
        },
        {
          "name": "E4",
          "midi": 64,
          "time": 97.70260499999986,
          "velocity": 0.7874015748031497,
          "duration": 0.19594575000000702
        },
        {
          "name": "E4",
          "midi": 64,
          "time": 97.90530749999986,
          "velocity": 0.7874015748031497,
          "duration": 0.19594575000000702
        },
        {
          "name": "E4",
          "midi": 64,
          "time": 98.10800999999987,
          "velocity": 0.7874015748031497,
          "duration": 0.19594575000000702
        },
        {
          "name": "E4",
          "midi": 64,
          "time": 98.31071249999987,
          "velocity": 0.7874015748031497,
          "duration": 0.19594575000000702
        },
        {
          "name": "E4",
          "midi": 64,
          "time": 98.51341499999987,
          "velocity": 0.7874015748031497,
          "duration": 0.19594575000000702
        },
        {
          "name": "E4",
          "midi": 64,
          "time": 98.71611749999987,
          "velocity": 0.7874015748031497,
          "duration": 0.19594575000000702
        },
        {
          "name": "E4",
          "midi": 64,
          "time": 98.91881999999987,
          "velocity": 0.7874015748031497,
          "duration": 0.19594575000000702
        },
        {
          "name": "D4",
          "midi": 62,
          "time": 99.12152249999987,
          "velocity": 0.7874015748031497,
          "duration": 0.3986482499999937
        },
        {
          "name": "F#4",
          "midi": 66,
          "time": 99.52692749999986,
          "velocity": 0.7874015748031497,
          "duration": 1.0067557499999964
        },
        {
          "name": "F#4",
          "midi": 66,
          "time": 100.74314249999985,
          "velocity": 0.7874015748031497,
          "duration": 0.19594575000000702
        },
        {
          "name": "F#4",
          "midi": 66,
          "time": 100.94584499999985,
          "velocity": 0.7874015748031497,
          "duration": 0.19594575000000702
        },
        {
          "name": "F#4",
          "midi": 66,
          "time": 101.14854749999985,
          "velocity": 0.7874015748031497,
          "duration": 0.19594575000000702
        },
        {
          "name": "F#4",
          "midi": 66,
          "time": 101.35124999999985,
          "velocity": 0.7874015748031497,
          "duration": 0.3986482499999937
        },
        {
          "name": "A#4",
          "midi": 70,
          "time": 101.75665499999984,
          "velocity": 0.7874015748031497,
          "duration": 0.3986482499999937
        },
        {
          "name": "F#4",
          "midi": 66,
          "time": 102.16205999999983,
          "velocity": 0.7874015748031497,
          "duration": 0.8040532499999955
        },
        {
          "name": "G4",
          "midi": 67,
          "time": 104.18908499999982,
          "velocity": 0.7874015748031497,
          "duration": 0.19594575000000702
        },
        {
          "name": "G4",
          "midi": 67,
          "time": 104.39178749999982,
          "velocity": 0.7874015748031497,
          "duration": 0.19594575000000702
        },
        {
          "name": "G4",
          "midi": 67,
          "time": 104.79719249999982,
          "velocity": 0.7874015748031497,
          "duration": 0.19594575000000702
        },
        {
          "name": "G4",
          "midi": 67,
          "time": 104.99989499999982,
          "velocity": 0.7874015748031497,
          "duration": 0.19594575000000702
        },
        {
          "name": "G4",
          "midi": 67,
          "time": 105.20259749999983,
          "velocity": 0.7874015748031497,
          "duration": 0.6013507499999946
        },
        {
          "name": "G4",
          "midi": 67,
          "time": 105.81070499999981,
          "velocity": 0.7874015748031497,
          "duration": 0.3986482499999937
        },
        {
          "name": "A4",
          "midi": 69,
          "time": 106.2161099999998,
          "velocity": 0.7874015748031497,
          "duration": 0.3986482499999937
        },
        {
          "name": "G4",
          "midi": 67,
          "time": 106.62151499999979,
          "velocity": 0.7874015748031497,
          "duration": 0.19594575000000702
        },
        {
          "name": "G4",
          "midi": 67,
          "time": 106.82421749999979,
          "velocity": 0.7874015748031497,
          "duration": 0.3986482499999937
        },
        {
          "name": "F#4",
          "midi": 66,
          "time": 107.22962249999978,
          "velocity": 0.7874015748031497,
          "duration": 0.6013507499999946
        },
        {
          "name": "F#4",
          "midi": 66,
          "time": 109.86475499999978,
          "velocity": 0.7874015748031497,
          "duration": 0.19594575000000702
        },
        {
          "name": "F#4",
          "midi": 66,
          "time": 110.06745749999978,
          "velocity": 0.7874015748031497,
          "duration": 0.19594575000000702
        },
        {
          "name": "F#4",
          "midi": 66,
          "time": 110.27015999999978,
          "velocity": 0.7874015748031497,
          "duration": 0.3986482499999937
        },
        {
          "name": "E4",
          "midi": 64,
          "time": 110.67556499999976,
          "velocity": 0.7874015748031497,
          "duration": 0.19594575000000702
        },
        {
          "name": "E4",
          "midi": 64,
          "time": 110.87826749999977,
          "velocity": 0.7874015748031497,
          "duration": 0.6013507499999946
        },
        {
          "name": "E4",
          "midi": 64,
          "time": 113.10799499999976,
          "velocity": 0.7874015748031497,
          "duration": 0.19594575000000702
        },
        {
          "name": "E4",
          "midi": 64,
          "time": 113.31069749999976,
          "velocity": 0.7874015748031497,
          "duration": 0.19594575000000702
        },
        {
          "name": "E4",
          "midi": 64,
          "time": 113.51339999999976,
          "velocity": 0.7874015748031497,
          "duration": 0.3986482499999937
        },
        {
          "name": "D4",
          "midi": 62,
          "time": 113.91880499999975,
          "velocity": 0.7874015748031497,
          "duration": 0.19594575000000702
        },
        {
          "name": "D4",
          "midi": 62,
          "time": 114.12150749999975,
          "velocity": 0.7874015748031497,
          "duration": 0.6013507499999946
        },
        {
          "name": "G4",
          "midi": 67,
          "time": 116.75663999999975,
          "velocity": 0.7874015748031497,
          "duration": 0.19594575000000702
        },
        {
          "name": "G4",
          "midi": 67,
          "time": 116.95934249999975,
          "velocity": 0.7874015748031497,
          "duration": 0.19594575000000702
        },
        {
          "name": "G4",
          "midi": 67,
          "time": 117.16204499999975,
          "velocity": 0.7874015748031497,
          "duration": 0.19594575000000702
        },
        {
          "name": "G4",
          "midi": 67,
          "time": 117.36474749999975,
          "velocity": 0.7874015748031497,
          "duration": 0.19594575000000702
        },
        {
          "name": "G4",
          "midi": 67,
          "time": 117.77015249999975,
          "velocity": 0.7874015748031497,
          "duration": 0.19594575000000702
        },
        {
          "name": "G4",
          "midi": 67,
          "time": 117.97285499999975,
          "velocity": 0.7874015748031497,
          "duration": 0.19594575000000702
        },
        {
          "name": "G4",
          "midi": 67,
          "time": 118.17555749999975,
          "velocity": 0.7874015748031497,
          "duration": 0.6013507499999946
        },
        {
          "name": "G4",
          "midi": 67,
          "time": 118.78366499999974,
          "velocity": 0.7874015748031497,
          "duration": 0.3986482499999937
        },
        {
          "name": "A4",
          "midi": 69,
          "time": 119.18906999999973,
          "velocity": 0.7874015748031497,
          "duration": 0.3986482499999937
        },
        {
          "name": "G4",
          "midi": 67,
          "time": 119.59447499999972,
          "velocity": 0.7874015748031497,
          "duration": 0.3986482499999937
        },
        {
          "name": "G4",
          "midi": 67,
          "time": 119.9998799999997,
          "velocity": 0.7874015748031497,
          "duration": 0.19594575000000702
        },
        {
          "name": "F#4",
          "midi": 66,
          "time": 120.2025824999997,
          "velocity": 0.7874015748031497,
          "duration": 0.19594575000000702
        },
        {
          "name": "F#4",
          "midi": 66,
          "time": 122.83771499999972,
          "velocity": 0.7874015748031497,
          "duration": 0.19594575000000702
        },
        {
          "name": "F#4",
          "midi": 66,
          "time": 123.04041749999972,
          "velocity": 0.7874015748031497,
          "duration": 0.19594575000000702
        },
        {
          "name": "F#4",
          "midi": 66,
          "time": 123.24311999999972,
          "velocity": 0.7874015748031497,
          "duration": 0.3986482499999937
        },
        {
          "name": "E4",
          "midi": 64,
          "time": 123.64852499999971,
          "velocity": 0.7874015748031497,
          "duration": 0.19594575000000702
        },
        {
          "name": "E4",
          "midi": 64,
          "time": 123.85122749999971,
          "velocity": 0.7874015748031497,
          "duration": 0.6013507499999946
        },
        {
          "name": "G4",
          "midi": 67,
          "time": 126.0809549999997,
          "velocity": 0.7874015748031497,
          "duration": 0.19594575000000702
        },
        {
          "name": "G4",
          "midi": 67,
          "time": 126.2836574999997,
          "velocity": 0.7874015748031497,
          "duration": 0.19594575000000702
        },
        {
          "name": "G4",
          "midi": 67,
          "time": 126.4863599999997,
          "velocity": 0.7874015748031497,
          "duration": 0.3986482499999937
        },
        {
          "name": "F#4",
          "midi": 66,
          "time": 126.8917649999997,
          "velocity": 0.7874015748031497,
          "duration": 0.19594575000000702
        },
        {
          "name": "F#4",
          "midi": 66,
          "time": 127.0944674999997,
          "velocity": 0.7874015748031497,
          "duration": 0.6013507499999946
        },
        {
          "name": "F#4",
          "midi": 66,
          "time": 129.93230249999968,
          "velocity": 0.7874015748031497,
          "duration": 0.1959457499999928
        },
        {
          "name": "F#4",
          "midi": 66,
          "time": 130.13500499999967,
          "velocity": 0.7874015748031497,
          "duration": 0.1959457499999928
        },
        {
          "name": "F#4",
          "midi": 66,
          "time": 130.33770749999965,
          "velocity": 0.7874015748031497,
          "duration": 0.1959457499999928
        },
        {
          "name": "G4",
          "midi": 67,
          "time": 130.54040999999964,
          "velocity": 0.7874015748031497,
          "duration": 0.2635132499999884
        },
        {
          "name": "F#4",
          "midi": 66,
          "time": 130.81067999999962,
          "velocity": 0.7874015748031497,
          "duration": 0.2635132499999884
        },
        {
          "name": "G4",
          "midi": 67,
          "time": 131.0809499999996,
          "velocity": 0.7874015748031497,
          "duration": 0.2635132499999884
        },
        {
          "name": "G4",
          "midi": 67,
          "time": 131.35121999999959,
          "velocity": 0.7874015748031497,
          "duration": 0.3986482500000079
        },
        {
          "name": "F#4",
          "midi": 66,
          "time": 131.7566249999996,
          "velocity": 0.7874015748031497,
          "duration": 0.8040532500000097
        },
        {
          "name": "F#4",
          "midi": 66,
          "time": 133.1755424999996,
          "velocity": 0.7874015748031497,
          "duration": 0.1959457499999928
        },
        {
          "name": "F#4",
          "midi": 66,
          "time": 133.3782449999996,
          "velocity": 0.7874015748031497,
          "duration": 0.3986482500000079
        },
        {
          "name": "F#4",
          "midi": 66,
          "time": 133.7836499999996,
          "velocity": 0.7874015748031497,
          "duration": 0.2635132499999884
        },
        {
          "name": "E4",
          "midi": 64,
          "time": 134.05391999999958,
          "velocity": 0.7874015748031497,
          "duration": 0.2635132499999884
        },
        {
          "name": "D4",
          "midi": 62,
          "time": 134.32418999999956,
          "velocity": 0.7874015748031497,
          "duration": 0.2635132499999884
        },
        {
          "name": "F#4",
          "midi": 66,
          "time": 134.59445999999954,
          "velocity": 0.7874015748031497,
          "duration": 0.8040532500000097
        },
        {
          "name": "E4",
          "midi": 64,
          "time": 136.41878249999957,
          "velocity": 0.7874015748031497,
          "duration": 0.1959457499999928
        },
        {
          "name": "E4",
          "midi": 64,
          "time": 136.62148499999955,
          "velocity": 0.7874015748031497,
          "duration": 0.1959457499999928
        },
        {
          "name": "E4",
          "midi": 64,
          "time": 136.82418749999954,
          "velocity": 0.7874015748031497,
          "duration": 0.1959457499999928
        },
        {
          "name": "F#4",
          "midi": 66,
          "time": 137.02688999999953,
          "velocity": 0.7874015748031497,
          "duration": 0.1959457499999928
        },
        {
          "name": "E4",
          "midi": 64,
          "time": 137.2295924999995,
          "velocity": 0.7874015748031497,
          "duration": 0.1959457499999928
        },
        {
          "name": "F#4",
          "midi": 66,
          "time": 137.4322949999995,
          "velocity": 0.7874015748031497,
          "duration": 0.1959457499999928
        },
        {
          "name": "E4",
          "midi": 64,
          "time": 137.63499749999949,
          "velocity": 0.7874015748031497,
          "duration": 0.3986482500000079
        },
        {
          "name": "F#4",
          "midi": 66,
          "time": 138.0404024999995,
          "velocity": 0.7874015748031497,
          "duration": 0.1959457499999928
        },
        {
          "name": "E4",
          "midi": 64,
          "time": 138.24310499999947,
          "velocity": 0.7874015748031497,
          "duration": 0.1959457499999928
        },
        {
          "name": "F#4",
          "midi": 66,
          "time": 138.44580749999946,
          "velocity": 0.7874015748031497,
          "duration": 0.3986482500000079
        },
        {
          "name": "F#4",
          "midi": 66,
          "time": 140.06742749999947,
          "velocity": 0.7874015748031497,
          "duration": 0.1959457499999928
        },
        {
          "name": "F#4",
          "midi": 66,
          "time": 140.27012999999945,
          "velocity": 0.7874015748031497,
          "duration": 0.2635132499999884
        },
        {
          "name": "E4",
          "midi": 64,
          "time": 140.54039999999944,
          "velocity": 0.7874015748031497,
          "duration": 0.533783249999999
        },
        {
          "name": "E4",
          "midi": 64,
          "time": 141.08093999999943,
          "velocity": 0.7874015748031497,
          "duration": 0.1959457499999928
        },
        {
          "name": "D4",
          "midi": 62,
          "time": 141.28364249999942,
          "velocity": 0.7874015748031497,
          "duration": 0.1959457499999928
        },
        {
          "name": "B3",
          "midi": 59,
          "time": 141.4863449999994,
          "velocity": 0.7874015748031497,
          "duration": 0.8040532500000097
        },
        {
          "name": "F#4",
          "midi": 66,
          "time": 143.1079649999994,
          "velocity": 0.7874015748031497,
          "duration": 0.1959457499999928
        },
        {
          "name": "F#4",
          "midi": 66,
          "time": 143.3106674999994,
          "velocity": 0.7874015748031497,
          "duration": 0.1959457499999928
        },
        {
          "name": "F#4",
          "midi": 66,
          "time": 143.51336999999938,
          "velocity": 0.7874015748031497,
          "duration": 0.3986482500000079
        },
        {
          "name": "E4",
          "midi": 64,
          "time": 143.91877499999939,
          "velocity": 0.7874015748031497,
          "duration": 0.1959457499999928
        },
        {
          "name": "D4",
          "midi": 62,
          "time": 144.12147749999937,
          "velocity": 0.7874015748031497,
          "duration": 0.1959457499999928
        },
        {
          "name": "D4",
          "midi": 62,
          "time": 144.32417999999936,
          "velocity": 0.7874015748031497,
          "duration": 0.3986482500000079
        },
        {
          "name": "F#4",
          "midi": 66,
          "time": 144.72958499999936,
          "velocity": 0.7874015748031497,
          "duration": 0.8040532500000097
        },
        {
          "name": "F#4",
          "midi": 66,
          "time": 146.35120499999937,
          "velocity": 0.7874015748031497,
          "duration": 0.6689182499999902
        },
        {
          "name": "E4",
          "midi": 64,
          "time": 147.02687999999935,
          "velocity": 0.7874015748031497,
          "duration": 0.2635132499999884
        },
        {
          "name": "D4",
          "midi": 62,
          "time": 147.29714999999933,
          "velocity": 0.7874015748031497,
          "duration": 0.2635132499999884
        },
        {
          "name": "D4",
          "midi": 62,
          "time": 147.56741999999932,
          "velocity": 0.7874015748031497,
          "duration": 0.8040532500000097
        },
        {
          "name": "E4",
          "midi": 64,
          "time": 149.59444499999933,
          "velocity": 0.7874015748031497,
          "duration": 0.3986482500000079
        },
        {
          "name": "E4",
          "midi": 64,
          "time": 149.99984999999933,
          "velocity": 0.7874015748031497,
          "duration": 0.3986482500000079
        },
        {
          "name": "E4",
          "midi": 64,
          "time": 150.40525499999933,
          "velocity": 0.7874015748031497,
          "duration": 0.1959457499999928
        },
        {
          "name": "D4",
          "midi": 62,
          "time": 150.60795749999932,
          "velocity": 0.7874015748031497,
          "duration": 0.1959457499999928
        },
        {
          "name": "F#4",
          "midi": 66,
          "time": 150.8106599999993,
          "velocity": 0.7874015748031497,
          "duration": 0.3986482500000079
        },
        {
          "name": "E4",
          "midi": 64,
          "time": 151.2160649999993,
          "velocity": 0.7874015748031497,
          "duration": 0.3986482500000079
        },
        {
          "name": "F#4",
          "midi": 66,
          "time": 152.8376849999993,
          "velocity": 0.7874015748031497,
          "duration": 0.3986482500000079
        },
        {
          "name": "F#4",
          "midi": 66,
          "time": 153.2430899999993,
          "velocity": 0.7874015748031497,
          "duration": 0.3986482500000079
        },
        {
          "name": "E4",
          "midi": 64,
          "time": 153.64849499999931,
          "velocity": 0.7874015748031497,
          "duration": 0.1959457499999928
        },
        {
          "name": "D4",
          "midi": 62,
          "time": 153.8511974999993,
          "velocity": 0.7874015748031497,
          "duration": 0.3986482500000079
        },
        {
          "name": "F#4",
          "midi": 66,
          "time": 154.2566024999993,
          "velocity": 0.7874015748031497,
          "duration": 0.8040532500000097
        },
        {
          "name": "F#4",
          "midi": 66,
          "time": 156.08092499999933,
          "velocity": 0.7874015748031497,
          "duration": 0.1959457499999928
        },
        {
          "name": "F#4",
          "midi": 66,
          "time": 156.2836274999993,
          "velocity": 0.7874015748031497,
          "duration": 0.1959457499999928
        },
        {
          "name": "F#4",
          "midi": 66,
          "time": 156.4863299999993,
          "velocity": 0.7874015748031497,
          "duration": 0.2635132499999884
        },
        {
          "name": "G4",
          "midi": 67,
          "time": 156.75659999999928,
          "velocity": 0.7874015748031497,
          "duration": 0.2635132499999884
        },
        {
          "name": "F#4",
          "midi": 66,
          "time": 157.02686999999926,
          "velocity": 0.7874015748031497,
          "duration": 0.2635132499999884
        },
        {
          "name": "G4",
          "midi": 67,
          "time": 157.29713999999925,
          "velocity": 0.7874015748031497,
          "duration": 0.1959457499999928
        },
        {
          "name": "F#4",
          "midi": 66,
          "time": 157.49984249999923,
          "velocity": 0.7874015748031497,
          "duration": 1.0067557499999964
        },
        {
          "name": "F#4",
          "midi": 66,
          "time": 159.32416499999923,
          "velocity": 0.7874015748031497,
          "duration": 0.3986482500000079
        },
        {
          "name": "F#4",
          "midi": 66,
          "time": 159.72956999999923,
          "velocity": 0.7874015748031497,
          "duration": 0.1959457499999928
        },
        {
          "name": "E4",
          "midi": 64,
          "time": 159.93227249999921,
          "velocity": 0.7874015748031497,
          "duration": 0.3986482500000079
        },
        {
          "name": "D4",
          "midi": 62,
          "time": 160.33767749999922,
          "velocity": 0.7874015748031497,
          "duration": 0.3986482500000079
        },
        {
          "name": "F#4",
          "midi": 66,
          "time": 160.74308249999922,
          "velocity": 0.7874015748031497,
          "duration": 0.3986482500000079
        },
        {
          "name": "A3",
          "midi": 57,
          "time": 161.55389249999922,
          "velocity": 0.7874015748031497,
          "duration": 0.1959457499999928
        },
        {
          "name": "A3",
          "midi": 57,
          "time": 161.7565949999992,
          "velocity": 0.7874015748031497,
          "duration": 0.3986482500000079
        },
        {
          "name": "B3",
          "midi": 59,
          "time": 162.77010749999923,
          "velocity": 0.7874015748031497,
          "duration": 0.1959457499999928
        },
        {
          "name": "E4",
          "midi": 64,
          "time": 162.9728099999992,
          "velocity": 0.7874015748031497,
          "duration": 0.1959457499999928
        },
        {
          "name": "E4",
          "midi": 64,
          "time": 163.1755124999992,
          "velocity": 0.7874015748031497,
          "duration": 0.1959457499999928
        },
        {
          "name": "E4",
          "midi": 64,
          "time": 163.3782149999992,
          "velocity": 0.7874015748031497,
          "duration": 0.1959457499999928
        },
        {
          "name": "E4",
          "midi": 64,
          "time": 163.58091749999917,
          "velocity": 0.7874015748031497,
          "duration": 0.1959457499999928
        },
        {
          "name": "E4",
          "midi": 64,
          "time": 163.78361999999916,
          "velocity": 0.7874015748031497,
          "duration": 0.2635132499999884
        },
        {
          "name": "E4",
          "midi": 64,
          "time": 164.05388999999914,
          "velocity": 0.7874015748031497,
          "duration": 0.2635132499999884
        },
        {
          "name": "F#4",
          "midi": 66,
          "time": 164.32415999999913,
          "velocity": 0.7874015748031497,
          "duration": 0.6689182499999902
        },
        {
          "name": "D4",
          "midi": 62,
          "time": 165.60794249999913,
          "velocity": 0.7874015748031497,
          "duration": 0.1959457499999928
        },
        {
          "name": "F#4",
          "midi": 66,
          "time": 165.8106449999991,
          "velocity": 0.7874015748031497,
          "duration": 0.1959457499999928
        },
        {
          "name": "F#4",
          "midi": 66,
          "time": 166.0133474999991,
          "velocity": 0.7874015748031497,
          "duration": 0.1959457499999928
        },
        {
          "name": "F#4",
          "midi": 66,
          "time": 166.2160499999991,
          "velocity": 0.7874015748031497,
          "duration": 0.2635132499999884
        },
        {
          "name": "E4",
          "midi": 64,
          "time": 166.48631999999907,
          "velocity": 0.7874015748031497,
          "duration": 0.2635132499999884
        },
        {
          "name": "E4",
          "midi": 64,
          "time": 166.75658999999905,
          "velocity": 0.7874015748031497,
          "duration": 0.4662157500000035
        },
        {
          "name": "E4",
          "midi": 64,
          "time": 167.22956249999905,
          "velocity": 0.7874015748031497,
          "duration": 0.09459449999999947
        },
        {
          "name": "D4",
          "midi": 62,
          "time": 167.33091374999904,
          "velocity": 0.7874015748031497,
          "duration": 0.09459449999999947
        },
        {
          "name": "B3",
          "midi": 59,
          "time": 167.43226499999903,
          "velocity": 0.7874015748031497,
          "duration": 1.2094582500000115
        },
        {
          "name": "F#4",
          "midi": 66,
          "time": 169.05388499999904,
          "velocity": 0.7874015748031497,
          "duration": 0.3986482500000079
        },
        {
          "name": "F#4",
          "midi": 66,
          "time": 169.45928999999904,
          "velocity": 0.7874015748031497,
          "duration": 0.3986482500000079
        },
        {
          "name": "F#4",
          "midi": 66,
          "time": 169.86469499999905,
          "velocity": 0.7874015748031497,
          "duration": 0.3986482500000079
        },
        {
          "name": "F#4",
          "midi": 66,
          "time": 170.27009999999905,
          "velocity": 0.7874015748031497,
          "duration": 0.1959457499999928
        },
        {
          "name": "E4",
          "midi": 64,
          "time": 170.47280249999903,
          "velocity": 0.7874015748031497,
          "duration": 0.1959457499999928
        },
        {
          "name": "D4",
          "midi": 62,
          "time": 170.67550499999902,
          "velocity": 0.7874015748031497,
          "duration": 0.1959457499999928
        },
        {
          "name": "D4",
          "midi": 62,
          "time": 170.878207499999,
          "velocity": 0.7874015748031497,
          "duration": 0.3986482500000079
        },
        {
          "name": "E4",
          "midi": 64,
          "time": 171.283612499999,
          "velocity": 0.7874015748031497,
          "duration": 0.1959457499999928
        },
        {
          "name": "F#4",
          "midi": 66,
          "time": 171.486314999999,
          "velocity": 0.7874015748031497,
          "duration": 0.3986482500000079
        },
        {
          "name": "F#4",
          "midi": 66,
          "time": 171.891719999999,
          "velocity": 0.7874015748031497,
          "duration": 1.0067557499999964
        },
        {
          "name": "E4",
          "midi": 64,
          "time": 172.905232499999,
          "velocity": 0.7874015748031497,
          "duration": 0.1959457499999928
        },
        {
          "name": "D4",
          "midi": 62,
          "time": 173.10793499999897,
          "velocity": 0.7874015748031497,
          "duration": 0.1959457499999928
        },
        {
          "name": "D4",
          "midi": 62,
          "time": 173.31063749999896,
          "velocity": 0.7874015748031497,
          "duration": 0.1959457499999928
        },
        {
          "name": "B3",
          "midi": 59,
          "time": 173.71604249999896,
          "velocity": 0.7874015748031497,
          "duration": 0.1959457499999928
        },
        {
          "name": "A3",
          "midi": 57,
          "time": 173.91874499999895,
          "velocity": 0.7874015748031497,
          "duration": 0.3986482500000079
        },
        {
          "name": "E4",
          "midi": 64,
          "time": 175.54036499999896,
          "velocity": 0.7874015748031497,
          "duration": 0.1959457499999928
        },
        {
          "name": "E4",
          "midi": 64,
          "time": 175.74306749999894,
          "velocity": 0.7874015748031497,
          "duration": 0.1959457499999928
        },
        {
          "name": "E4",
          "midi": 64,
          "time": 175.94576999999893,
          "velocity": 0.7874015748031497,
          "duration": 0.3986482500000079
        },
        {
          "name": "E4",
          "midi": 64,
          "time": 176.35117499999893,
          "velocity": 0.7874015748031497,
          "duration": 0.1959457499999928
        },
        {
          "name": "E4",
          "midi": 64,
          "time": 176.55387749999892,
          "velocity": 0.7874015748031497,
          "duration": 0.1959457499999928
        },
        {
          "name": "E4",
          "midi": 64,
          "time": 176.7565799999989,
          "velocity": 0.7874015748031497,
          "duration": 0.1959457499999928
        },
        {
          "name": "E4",
          "midi": 64,
          "time": 176.9592824999989,
          "velocity": 0.7874015748031497,
          "duration": 0.1959457499999928
        },
        {
          "name": "E4",
          "midi": 64,
          "time": 177.16198499999888,
          "velocity": 0.7874015748031497,
          "duration": 0.1959457499999928
        },
        {
          "name": "D4",
          "midi": 62,
          "time": 177.36468749999887,
          "velocity": 0.7874015748031497,
          "duration": 0.1959457499999928
        },
        {
          "name": "F#4",
          "midi": 66,
          "time": 177.56738999999885,
          "velocity": 0.7874015748031497,
          "duration": 0.3986482500000079
        },
        {
          "name": "F#4",
          "midi": 66,
          "time": 178.78360499999886,
          "velocity": 0.7874015748031497,
          "duration": 0.1959457499999928
        },
        {
          "name": "F#4",
          "midi": 66,
          "time": 178.98630749999884,
          "velocity": 0.7874015748031497,
          "duration": 0.1959457499999928
        },
        {
          "name": "F#4",
          "midi": 66,
          "time": 179.18900999999883,
          "velocity": 0.7874015748031497,
          "duration": 0.3986482500000079
        },
        {
          "name": "A#4",
          "midi": 70,
          "time": 179.59441499999883,
          "velocity": 0.7874015748031497,
          "duration": 0.3986482500000079
        },
        {
          "name": "E4",
          "midi": 64,
          "time": 179.99981999999883,
          "velocity": 0.7874015748031497,
          "duration": 0.8040532500000097
        },
        {
          "name": "F#4",
          "midi": 66,
          "time": 180.81062999999884,
          "velocity": 0.7874015748031497,
          "duration": 0.8040532500000097
        },
        {
          "name": "G4",
          "midi": 67,
          "time": 182.02684499999884,
          "velocity": 0.7874015748031497,
          "duration": 0.1959457499999928
        },
        {
          "name": "G4",
          "midi": 67,
          "time": 182.22954749999883,
          "velocity": 0.7874015748031497,
          "duration": 0.1959457499999928
        },
        {
          "name": "G4",
          "midi": 67,
          "time": 182.63495249999883,
          "velocity": 0.7874015748031497,
          "duration": 0.1959457499999928
        },
        {
          "name": "G4",
          "midi": 67,
          "time": 182.83765499999882,
          "velocity": 0.7874015748031497,
          "duration": 0.1959457499999928
        },
        {
          "name": "G4",
          "midi": 67,
          "time": 183.0403574999988,
          "velocity": 0.7874015748031497,
          "duration": 0.6013507499999946
        },
        {
          "name": "G4",
          "midi": 67,
          "time": 183.6484649999988,
          "velocity": 0.7874015748031497,
          "duration": 0.3986482500000079
        },
        {
          "name": "A4",
          "midi": 69,
          "time": 184.0538699999988,
          "velocity": 0.7874015748031497,
          "duration": 0.3986482500000079
        },
        {
          "name": "G4",
          "midi": 67,
          "time": 184.4592749999988,
          "velocity": 0.7874015748031497,
          "duration": 0.1959457499999928
        },
        {
          "name": "G4",
          "midi": 67,
          "time": 184.66197749999878,
          "velocity": 0.7874015748031497,
          "duration": 0.3986482500000079
        },
        {
          "name": "F#4",
          "midi": 66,
          "time": 185.06738249999879,
          "velocity": 0.7874015748031497,
          "duration": 0.6013507499999946
        },
        {
          "name": "F#4",
          "midi": 66,
          "time": 187.70251499999878,
          "velocity": 0.7874015748031497,
          "duration": 0.1959457499999928
        },
        {
          "name": "F#4",
          "midi": 66,
          "time": 187.90521749999877,
          "velocity": 0.7874015748031497,
          "duration": 0.1959457499999928
        },
        {
          "name": "F#4",
          "midi": 66,
          "time": 188.10791999999876,
          "velocity": 0.7874015748031497,
          "duration": 0.3986482500000079
        },
        {
          "name": "E4",
          "midi": 64,
          "time": 188.51332499999876,
          "velocity": 0.7874015748031497,
          "duration": 0.1959457499999928
        },
        {
          "name": "E4",
          "midi": 64,
          "time": 188.71602749999875,
          "velocity": 0.7874015748031497,
          "duration": 0.6013507499999946
        },
        {
          "name": "E4",
          "midi": 64,
          "time": 190.94575499999874,
          "velocity": 0.7874015748031497,
          "duration": 0.1959457499999928
        },
        {
          "name": "E4",
          "midi": 64,
          "time": 191.14845749999873,
          "velocity": 0.7874015748031497,
          "duration": 0.1959457499999928
        },
        {
          "name": "E4",
          "midi": 64,
          "time": 191.3511599999987,
          "velocity": 0.7874015748031497,
          "duration": 0.3986482500000079
        },
        {
          "name": "D4",
          "midi": 62,
          "time": 191.75656499999872,
          "velocity": 0.7874015748031497,
          "duration": 0.1959457499999928
        },
        {
          "name": "D4",
          "midi": 62,
          "time": 191.9592674999987,
          "velocity": 0.7874015748031497,
          "duration": 0.6013507499999946
        },
        {
          "name": "G4",
          "midi": 67,
          "time": 194.5943999999987,
          "velocity": 0.7874015748031497,
          "duration": 0.1959457499999928
        },
        {
          "name": "G4",
          "midi": 67,
          "time": 194.7971024999987,
          "velocity": 0.7874015748031497,
          "duration": 0.1959457499999928
        },
        {
          "name": "G4",
          "midi": 67,
          "time": 194.99980499999867,
          "velocity": 0.7874015748031497,
          "duration": 0.1959457499999928
        },
        {
          "name": "G4",
          "midi": 67,
          "time": 195.20250749999866,
          "velocity": 0.7874015748031497,
          "duration": 0.1959457499999928
        },
        {
          "name": "G4",
          "midi": 67,
          "time": 195.60791249999866,
          "velocity": 0.7874015748031497,
          "duration": 0.1959457499999928
        },
        {
          "name": "G4",
          "midi": 67,
          "time": 195.81061499999865,
          "velocity": 0.7874015748031497,
          "duration": 0.1959457499999928
        },
        {
          "name": "G4",
          "midi": 67,
          "time": 196.01331749999864,
          "velocity": 0.7874015748031497,
          "duration": 0.6013507499999946
        },
        {
          "name": "G4",
          "midi": 67,
          "time": 196.62142499999862,
          "velocity": 0.7874015748031497,
          "duration": 0.3986482500000079
        },
        {
          "name": "A4",
          "midi": 69,
          "time": 197.02682999999863,
          "velocity": 0.7874015748031497,
          "duration": 0.3986482500000079
        },
        {
          "name": "G4",
          "midi": 67,
          "time": 197.43223499999863,
          "velocity": 0.7874015748031497,
          "duration": 0.3986482500000079
        },
        {
          "name": "G4",
          "midi": 67,
          "time": 197.83763999999863,
          "velocity": 0.7874015748031497,
          "duration": 0.1959457499999928
        },
        {
          "name": "F#4",
          "midi": 66,
          "time": 198.04034249999862,
          "velocity": 0.7874015748031497,
          "duration": 0.1959457499999928
        },
        {
          "name": "F#4",
          "midi": 66,
          "time": 200.6754749999986,
          "velocity": 0.7874015748031497,
          "duration": 0.1959457499999928
        },
        {
          "name": "F#4",
          "midi": 66,
          "time": 200.8781774999986,
          "velocity": 0.7874015748031497,
          "duration": 0.1959457499999928
        },
        {
          "name": "F#4",
          "midi": 66,
          "time": 201.0808799999986,
          "velocity": 0.7874015748031497,
          "duration": 0.3986482500000079
        },
        {
          "name": "E4",
          "midi": 64,
          "time": 201.4862849999986,
          "velocity": 0.7874015748031497,
          "duration": 0.1959457499999928
        },
        {
          "name": "E4",
          "midi": 64,
          "time": 201.68898749999858,
          "velocity": 0.7874015748031497,
          "duration": 0.6013507499999946
        },
        {
          "name": "G4",
          "midi": 67,
          "time": 203.91871499999857,
          "velocity": 0.7874015748031497,
          "duration": 0.1959457499999928
        },
        {
          "name": "G4",
          "midi": 67,
          "time": 204.12141749999856,
          "velocity": 0.7874015748031497,
          "duration": 0.1959457499999928
        },
        {
          "name": "G4",
          "midi": 67,
          "time": 204.32411999999854,
          "velocity": 0.7874015748031497,
          "duration": 0.3986482500000079
        },
        {
          "name": "F#4",
          "midi": 66,
          "time": 204.72952499999855,
          "velocity": 0.7874015748031497,
          "duration": 0.1959457499999928
        },
        {
          "name": "F#4",
          "midi": 66,
          "time": 204.93222749999853,
          "velocity": 0.7874015748031497,
          "duration": 1.0067557499999964
        },
        {
          "name": "F#4",
          "midi": 66,
          "time": 207.97276499999853,
          "velocity": 0.7874015748031497,
          "duration": 0.1959457499999928
        },
        {
          "name": "G4",
          "midi": 67,
          "time": 208.17546749999852,
          "velocity": 0.7874015748031497,
          "duration": 0.3986482500000079
        },
        {
          "name": "G4",
          "midi": 67,
          "time": 208.58087249999852,
          "velocity": 0.7874015748031497,
          "duration": 0.3986482500000079
        },
        {
          "name": "F#4",
          "midi": 66,
          "time": 208.98627749999852,
          "velocity": 0.7874015748031497,
          "duration": 0.1959457499999928
        },
        {
          "name": "G4",
          "midi": 67,
          "time": 209.1889799999985,
          "velocity": 0.7874015748031497,
          "duration": 0.3986482500000079
        },
        {
          "name": "F#4",
          "midi": 66,
          "time": 209.5943849999985,
          "velocity": 0.7874015748031497,
          "duration": 0.3986482500000079
        },
        {
          "name": "E3",
          "midi": 52,
          "time": 211.01330249999853,
          "velocity": 0.7874015748031497,
          "duration": 0.1959457499999928
        },
        {
          "name": "F#4",
          "midi": 66,
          "time": 211.21600499999852,
          "velocity": 0.7874015748031497,
          "duration": 0.1959457499999928
        },
        {
          "name": "F#4",
          "midi": 66,
          "time": 211.4187074999985,
          "velocity": 0.7874015748031497,
          "duration": 0.3986482500000079
        },
        {
          "name": "F#4",
          "midi": 66,
          "time": 211.8241124999985,
          "velocity": 0.7874015748031497,
          "duration": 0.3986482500000079
        },
        {
          "name": "E4",
          "midi": 64,
          "time": 212.2295174999985,
          "velocity": 0.7874015748031497,
          "duration": 0.1959457499999928
        },
        {
          "name": "F#4",
          "midi": 66,
          "time": 212.4322199999985,
          "velocity": 0.7874015748031497,
          "duration": 0.3986482500000079
        },
        {
          "name": "E3",
          "midi": 52,
          "time": 213.0403274999985,
          "velocity": 0.7874015748031497,
          "duration": 0.1959457499999928
        },
        {
          "name": "F#3",
          "midi": 54,
          "time": 213.2430299999985,
          "velocity": 0.7874015748031497,
          "duration": 0.1959457499999928
        },
        {
          "name": "F#3",
          "midi": 54,
          "time": 213.44573249999848,
          "velocity": 0.7874015748031497,
          "duration": 0.3986482500000079
        },
        {
          "name": "F#4",
          "midi": 66,
          "time": 214.4592449999985,
          "velocity": 0.7874015748031497,
          "duration": 0.1959457499999928
        },
        {
          "name": "E4",
          "midi": 64,
          "time": 214.6619474999985,
          "velocity": 0.7874015748031497,
          "duration": 0.1959457499999928
        },
        {
          "name": "E4",
          "midi": 64,
          "time": 214.86464999999848,
          "velocity": 0.7874015748031497,
          "duration": 0.3986482500000079
        },
        {
          "name": "E4",
          "midi": 64,
          "time": 215.27005499999848,
          "velocity": 0.7874015748031497,
          "duration": 0.3986482500000079
        },
        {
          "name": "F#4",
          "midi": 66,
          "time": 215.67545999999848,
          "velocity": 0.7874015748031497,
          "duration": 0.29729699999998616
        },
        {
          "name": "E4",
          "midi": 64,
          "time": 215.97951374999846,
          "velocity": 0.7874015748031497,
          "duration": 0.1959457499999928
        },
        {
          "name": "E4",
          "midi": 64,
          "time": 216.18221624999845,
          "velocity": 0.7874015748031497,
          "duration": 0.29729699999998616
        },
        {
          "name": "F#4",
          "midi": 66,
          "time": 216.48626999999843,
          "velocity": 0.7874015748031497,
          "duration": 0.3986482500000079
        },
        {
          "name": "F#4",
          "midi": 66,
          "time": 217.70248499999843,
          "velocity": 0.7874015748031497,
          "duration": 0.1959457499999928
        },
        {
          "name": "F#4",
          "midi": 66,
          "time": 217.90518749999842,
          "velocity": 0.7874015748031497,
          "duration": 0.1959457499999928
        },
        {
          "name": "F#4",
          "midi": 66,
          "time": 218.1078899999984,
          "velocity": 0.7874015748031497,
          "duration": 0.1959457499999928
        },
        {
          "name": "E4",
          "midi": 64,
          "time": 218.3105924999984,
          "velocity": 0.7874015748031497,
          "duration": 0.3986482500000079
        },
        {
          "name": "D4",
          "midi": 62,
          "time": 218.7159974999984,
          "velocity": 0.7874015748031497,
          "duration": 0.1959457499999928
        },
        {
          "name": "D4",
          "midi": 62,
          "time": 218.91869999999838,
          "velocity": 0.7874015748031497,
          "duration": 0.3986482500000079
        },
        {
          "name": "D4",
          "midi": 62,
          "time": 220.74302249999837,
          "velocity": 0.7874015748031497,
          "duration": 0.1959457499999928
        },
        {
          "name": "F#4",
          "midi": 66,
          "time": 220.94572499999836,
          "velocity": 0.7874015748031497,
          "duration": 0.1959457499999928
        },
        {
          "name": "F#4",
          "midi": 66,
          "time": 221.14842749999835,
          "velocity": 0.7874015748031497,
          "duration": 0.1959457499999928
        },
        {
          "name": "F#4",
          "midi": 66,
          "time": 221.35112999999834,
          "velocity": 0.7874015748031497,
          "duration": 0.3986482500000079
        },
        {
          "name": "E4",
          "midi": 64,
          "time": 221.75653499999834,
          "velocity": 0.7874015748031497,
          "duration": 0.3986482500000079
        },
        {
          "name": "D4",
          "midi": 62,
          "time": 222.16193999999834,
          "velocity": 0.7874015748031497,
          "duration": 0.3986482500000079
        },
        {
          "name": "F#4",
          "midi": 66,
          "time": 222.56734499999834,
          "velocity": 0.7874015748031497,
          "duration": 0.3986482500000079
        },
        {
          "name": "F#3",
          "midi": 54,
          "time": 223.98626249999836,
          "velocity": 0.7874015748031497,
          "duration": 0.1959457499999928
        },
        {
          "name": "F#4",
          "midi": 66,
          "time": 224.18896499999835,
          "velocity": 0.7874015748031497,
          "duration": 0.3986482500000079
        },
        {
          "name": "E4",
          "midi": 64,
          "time": 224.59436999999835,
          "velocity": 0.7874015748031497,
          "duration": 0.2635132499999884
        },
        {
          "name": "E4",
          "midi": 64,
          "time": 224.86463999999833,
          "velocity": 0.7874015748031497,
          "duration": 0.2635132499999884
        },
        {
          "name": "D4",
          "midi": 62,
          "time": 225.1349099999983,
          "velocity": 0.7874015748031497,
          "duration": 0.2635132499999884
        },
        {
          "name": "D4",
          "midi": 62,
          "time": 225.4051799999983,
          "velocity": 0.7874015748031497,
          "duration": 0.3986482500000079
        },
        {
          "name": "E3",
          "midi": 52,
          "time": 227.2295024999983,
          "velocity": 0.7874015748031497,
          "duration": 0.1959457499999928
        },
        {
          "name": "E4",
          "midi": 64,
          "time": 227.43220499999828,
          "velocity": 0.7874015748031497,
          "duration": 0.3986482500000079
        },
        {
          "name": "E4",
          "midi": 64,
          "time": 227.83760999999828,
          "velocity": 0.7874015748031497,
          "duration": 0.2635132499999884
        },
        {
          "name": "E4",
          "midi": 64,
          "time": 228.10787999999826,
          "velocity": 0.7874015748031497,
          "duration": 0.2635132499999884
        },
        {
          "name": "D4",
          "midi": 62,
          "time": 228.37814999999824,
          "velocity": 0.7874015748031497,
          "duration": 0.4662157500000035
        },
        {
          "name": "E4",
          "midi": 64,
          "time": 228.85112249999824,
          "velocity": 0.7874015748031497,
          "duration": 0.3986482500000079
        },
        {
          "name": "D4",
          "midi": 62,
          "time": 229.25652749999824,
          "velocity": 0.7874015748031497,
          "duration": 0.1959457499999928
        },
        {
          "name": "F#4",
          "midi": 66,
          "time": 229.45922999999823,
          "velocity": 0.7874015748031497,
          "duration": 0.3986482500000079
        },
        {
          "name": "F#4",
          "midi": 66,
          "time": 229.86463499999823,
          "velocity": 0.7874015748031497,
          "duration": 0.1959457499999928
        },
        {
          "name": "D4",
          "midi": 62,
          "time": 230.06733749999822,
          "velocity": 0.7874015748031497,
          "duration": 0.1959457499999928
        },
        {
          "name": "F#4",
          "midi": 66,
          "time": 230.2700399999982,
          "velocity": 0.7874015748031497,
          "duration": 0.3986482500000079
        },
        {
          "name": "F#4",
          "midi": 66,
          "time": 230.6754449999982,
          "velocity": 0.7874015748031497,
          "duration": 0.3986482500000079
        },
        {
          "name": "F#4",
          "midi": 66,
          "time": 231.28355249999822,
          "velocity": 0.7874015748031497,
          "duration": 0.3986482500000079
        },
        {
          "name": "E4",
          "midi": 64,
          "time": 231.68895749999822,
          "velocity": 0.7874015748031497,
          "duration": 0.1959457499999928
        },
        {
          "name": "F#4",
          "midi": 66,
          "time": 231.8916599999982,
          "velocity": 0.7874015748031497,
          "duration": 0.3986482500000079
        },
        {
          "name": "F#4",
          "midi": 66,
          "time": 233.91868499999822,
          "velocity": 0.7874015748031497,
          "duration": 0.3986482500000079
        },
        {
          "name": "F#4",
          "midi": 66,
          "time": 234.32408999999822,
          "velocity": 0.7874015748031497,
          "duration": 0.2635132499999884
        },
        {
          "name": "G4",
          "midi": 67,
          "time": 234.5943599999982,
          "velocity": 0.7874015748031497,
          "duration": 0.2635132499999884
        },
        {
          "name": "F#4",
          "midi": 66,
          "time": 234.8646299999982,
          "velocity": 0.7874015748031497,
          "duration": 0.2635132499999884
        },
        {
          "name": "G4",
          "midi": 67,
          "time": 235.13489999999817,
          "velocity": 0.7874015748031497,
          "duration": 0.3986482500000079
        },
        {
          "name": "F#4",
          "midi": 66,
          "time": 235.54030499999817,
          "velocity": 0.7874015748031497,
          "duration": 0.6013507499999946
        },
        {
          "name": "F#3",
          "midi": 54,
          "time": 236.35111499999817,
          "velocity": 0.7874015748031497,
          "duration": 0.1959457499999928
        },
        {
          "name": "B3",
          "midi": 59,
          "time": 236.55381749999816,
          "velocity": 0.7874015748031497,
          "duration": 0.1959457499999928
        },
        {
          "name": "F#4",
          "midi": 66,
          "time": 237.16192499999815,
          "velocity": 0.7874015748031497,
          "duration": 0.1959457499999928
        },
        {
          "name": "F#4",
          "midi": 66,
          "time": 237.36462749999814,
          "velocity": 0.7874015748031497,
          "duration": 0.3986482500000079
        },
        {
          "name": "F#4",
          "midi": 66,
          "time": 237.77003249999814,
          "velocity": 0.7874015748031497,
          "duration": 0.1959457499999928
        },
        {
          "name": "E4",
          "midi": 64,
          "time": 237.97273499999812,
          "velocity": 0.7874015748031497,
          "duration": 0.3986482500000079
        },
        {
          "name": "F#4",
          "midi": 66,
          "time": 238.37813999999813,
          "velocity": 0.7874015748031497,
          "duration": 0.3986482500000079
        },
        {
          "name": "E4",
          "midi": 64,
          "time": 240.60786749999812,
          "velocity": 0.7874015748031497,
          "duration": 0.1959457499999928
        },
        {
          "name": "E4",
          "midi": 64,
          "time": 240.8105699999981,
          "velocity": 0.7874015748031497,
          "duration": 0.1959457499999928
        },
        {
          "name": "E4",
          "midi": 64,
          "time": 241.0132724999981,
          "velocity": 0.7874015748031497,
          "duration": 0.1959457499999928
        },
        {
          "name": "E4",
          "midi": 64,
          "time": 241.21597499999808,
          "velocity": 0.7874015748031497,
          "duration": 0.1959457499999928
        },
        {
          "name": "E4",
          "midi": 64,
          "time": 241.41867749999807,
          "velocity": 0.7874015748031497,
          "duration": 0.1959457499999928
        },
        {
          "name": "E4",
          "midi": 64,
          "time": 241.62137999999806,
          "velocity": 0.7874015748031497,
          "duration": 0.1959457499999928
        },
        {
          "name": "E4",
          "midi": 64,
          "time": 241.82408249999804,
          "velocity": 0.7874015748031497,
          "duration": 0.3986482500000079
        },
        {
          "name": "F#4",
          "midi": 66,
          "time": 242.22948749999804,
          "velocity": 0.7874015748031497,
          "duration": 0.3986482500000079
        },
        {
          "name": "F#4",
          "midi": 66,
          "time": 242.83759499999806,
          "velocity": 0.7874015748031497,
          "duration": 0.1959457499999928
        },
        {
          "name": "F#4",
          "midi": 66,
          "time": 243.04029749999805,
          "velocity": 0.7874015748031497,
          "duration": 0.1959457499999928
        },
        {
          "name": "F#4",
          "midi": 66,
          "time": 243.24299999999803,
          "velocity": 0.7874015748031497,
          "duration": 0.3986482500000079
        },
        {
          "name": "F#4",
          "midi": 66,
          "time": 243.64840499999804,
          "velocity": 0.7874015748031497,
          "duration": 0.3986482500000079
        },
        {
          "name": "F#4",
          "midi": 66,
          "time": 244.05380999999804,
          "velocity": 0.7874015748031497,
          "duration": 0.1959457499999928
        },
        {
          "name": "E4",
          "midi": 64,
          "time": 244.25651249999802,
          "velocity": 0.7874015748031497,
          "duration": 0.1959457499999928
        },
        {
          "name": "D4",
          "midi": 62,
          "time": 244.459214999998,
          "velocity": 0.7874015748031497,
          "duration": 0.1959457499999928
        },
        {
          "name": "E4",
          "midi": 64,
          "time": 244.661917499998,
          "velocity": 0.7874015748031497,
          "duration": 0.3986482500000079
        },
        {
          "name": "D4",
          "midi": 62,
          "time": 245.067322499998,
          "velocity": 0.7874015748031497,
          "duration": 0.1959457499999928
        },
        {
          "name": "B3",
          "midi": 59,
          "time": 245.270024999998,
          "velocity": 0.7874015748031497,
          "duration": 0.3986482500000079
        },
        {
          "name": "D4",
          "midi": 62,
          "time": 246.891644999998,
          "velocity": 0.7874015748031497,
          "duration": 0.1959457499999928
        },
        {
          "name": "F#4",
          "midi": 66,
          "time": 247.09434749999798,
          "velocity": 0.7874015748031497,
          "duration": 0.6013507499999946
        },
        {
          "name": "E4",
          "midi": 64,
          "time": 247.70245499999797,
          "velocity": 0.7874015748031497,
          "duration": 0.1959457499999928
        },
        {
          "name": "D4",
          "midi": 62,
          "time": 247.90515749999796,
          "velocity": 0.7874015748031497,
          "duration": 0.1959457499999928
        },
        {
          "name": "D4",
          "midi": 62,
          "time": 248.10785999999794,
          "velocity": 0.7874015748031497,
          "duration": 0.3986482500000079
        },
        {
          "name": "F#4",
          "midi": 66,
          "time": 248.51326499999794,
          "velocity": 0.7874015748031497,
          "duration": 0.3986482500000079
        },
        {
          "name": "D4",
          "midi": 62,
          "time": 249.32407499999795,
          "velocity": 0.7874015748031497,
          "duration": 0.1959457499999928
        },
        {
          "name": "A3",
          "midi": 57,
          "time": 249.52677749999793,
          "velocity": 0.7874015748031497,
          "duration": 0.6013507499999946
        },
        {
          "name": "D4",
          "midi": 62,
          "time": 250.13488499999792,
          "velocity": 0.7874015748031497,
          "duration": 0.1959457499999928
        },
        {
          "name": "D4",
          "midi": 62,
          "time": 250.3375874999979,
          "velocity": 0.7874015748031497,
          "duration": 0.3986482500000079
        },
        {
          "name": "D4",
          "midi": 62,
          "time": 250.7429924999979,
          "velocity": 0.7874015748031497,
          "duration": 0.3986482500000079
        },
        {
          "name": "B3",
          "midi": 59,
          "time": 251.1483974999979,
          "velocity": 0.7874015748031497,
          "duration": 0.1959457499999928
        },
        {
          "name": "D4",
          "midi": 62,
          "time": 251.3510999999979,
          "velocity": 0.7874015748031497,
          "duration": 0.3986482500000079
        },
        {
          "name": "E4",
          "midi": 64,
          "time": 253.3781249999979,
          "velocity": 0.7874015748031497,
          "duration": 0.1959457499999928
        },
        {
          "name": "E4",
          "midi": 64,
          "time": 253.5808274999979,
          "velocity": 0.7874015748031497,
          "duration": 0.1959457499999928
        },
        {
          "name": "E4",
          "midi": 64,
          "time": 253.78352999999788,
          "velocity": 0.7874015748031497,
          "duration": 0.1959457499999928
        },
        {
          "name": "E4",
          "midi": 64,
          "time": 253.98623249999787,
          "velocity": 0.7874015748031497,
          "duration": 0.1959457499999928
        },
        {
          "name": "E4",
          "midi": 64,
          "time": 254.18893499999785,
          "velocity": 0.7874015748031497,
          "duration": 0.1959457499999928
        },
        {
          "name": "D4",
          "midi": 62,
          "time": 254.39163749999784,
          "velocity": 0.7874015748031497,
          "duration": 0.3986482500000079
        },
        {
          "name": "E4",
          "midi": 64,
          "time": 254.79704249999784,
          "velocity": 0.7874015748031497,
          "duration": 0.3986482500000079
        },
        {
          "name": "D4",
          "midi": 62,
          "time": 255.20244749999785,
          "velocity": 0.7874015748031497,
          "duration": 0.1959457499999928
        },
        {
          "name": "E4",
          "midi": 64,
          "time": 255.40514999999783,
          "velocity": 0.7874015748031497,
          "duration": 0.1959457499999928
        },
        {
          "name": "F#4",
          "midi": 66,
          "time": 255.60785249999782,
          "velocity": 0.7874015748031497,
          "duration": 0.3986482500000079
        },
        {
          "name": "F#4",
          "midi": 66,
          "time": 256.4186624999978,
          "velocity": 0.7874015748031497,
          "duration": 0.19594575000002123
        },
        {
          "name": "F#4",
          "midi": 66,
          "time": 256.62136499999787,
          "velocity": 0.7874015748031497,
          "duration": 0.19594575000002123
        },
        {
          "name": "F#4",
          "midi": 66,
          "time": 256.8240674999979,
          "velocity": 0.7874015748031497,
          "duration": 0.19594575000002123
        },
        {
          "name": "A#4",
          "midi": 70,
          "time": 257.22947249999794,
          "velocity": 0.7874015748031497,
          "duration": 0.19594575000002123
        },
        {
          "name": "F#4",
          "midi": 66,
          "time": 257.432174999998,
          "velocity": 0.7874015748031497,
          "duration": 0.19594575000002123
        },
        {
          "name": "F#4",
          "midi": 66,
          "time": 257.837579999998,
          "velocity": 0.7874015748031497,
          "duration": 0.19594575000002123
        },
        {
          "name": "E4",
          "midi": 64,
          "time": 258.04028249999806,
          "velocity": 0.7874015748031497,
          "duration": 0.19594575000002123
        },
        {
          "name": "F#4",
          "midi": 66,
          "time": 258.2429849999981,
          "velocity": 0.7874015748031497,
          "duration": 0.3986482500000079
        }
      ],
      "controlChanges": {
        "7": [
          {
            "number": 7,
            "time": 0,
            "value": 0.7874015748031497
          }
        ]
      },
      "id": 4,
      "name": "WinJammer Demo",
      "instrumentNumber": 71,
      "instrument": "clarinet",
      "instrumentFamily": "reed",
      "channelNumber": 3,
      "isPercussion": false
    },
    {
      "startTime": 77.83776,
      "duration": 389.1820432500168,
      "length": 815,
      "notes": [
        {
          "name": "B3",
          "midi": 59,
          "time": 77.83776,
          "velocity": 0.7086614173228346,
          "duration": 2.4256732500000027
        },
        {
          "name": "B3",
          "midi": 59,
          "time": 80.27019,
          "velocity": 0.7086614173228346,
          "duration": 0.8040532499999955
        },
        {
          "name": "A#3",
          "midi": 58,
          "time": 81.08099999999999,
          "velocity": 0.7086614173228346,
          "duration": 3.2364832500000063
        },
        {
          "name": "A3",
          "midi": 57,
          "time": 84.32423999999999,
          "velocity": 0.7086614173228346,
          "duration": 3.2364832500000063
        },
        {
          "name": "G#3",
          "midi": 56,
          "time": 87.56747999999999,
          "velocity": 0.7086614173228346,
          "duration": 3.2364832500000063
        },
        {
          "name": "G3",
          "midi": 55,
          "time": 90.81071999999999,
          "velocity": 0.7086614173228346,
          "duration": 3.2364832500000063
        },
        {
          "name": "F#3",
          "midi": 54,
          "time": 94.05395999999999,
          "velocity": 0.7086614173228346,
          "duration": 2.4256732500000027
        },
        {
          "name": "F#3",
          "midi": 54,
          "time": 96.48638999999999,
          "velocity": 0.7086614173228346,
          "duration": 0.8040532499999955
        },
        {
          "name": "G3",
          "midi": 55,
          "time": 97.29719999999998,
          "velocity": 0.7086614173228346,
          "duration": 2.4256732500000027
        },
        {
          "name": "B3",
          "midi": 59,
          "time": 99.72962999999997,
          "velocity": 0.7086614173228346,
          "duration": 0.8040532499999955
        },
        {
          "name": "A#3",
          "midi": 58,
          "time": 100.54043999999996,
          "velocity": 0.7086614173228346,
          "duration": 2.4256732500000027
        },
        {
          "name": "B2",
          "midi": 47,
          "time": 102.97286999999996,
          "velocity": 0.7086614173228346,
          "duration": 0.19594575000000702
        },
        {
          "name": "C#3",
          "midi": 49,
          "time": 103.17557249999996,
          "velocity": 0.7086614173228346,
          "duration": 0.19594575000000702
        },
        {
          "name": "D3",
          "midi": 50,
          "time": 103.37827499999996,
          "velocity": 0.7086614173228346,
          "duration": 0.19594575000000702
        },
        {
          "name": "F#3",
          "midi": 54,
          "time": 103.58097749999996,
          "velocity": 0.7086614173228346,
          "duration": 0.19594575000000702
        },
        {
          "name": "D3",
          "midi": 50,
          "time": 103.78367999999996,
          "velocity": 0.7086614173228346,
          "duration": 1.614863249999999
        },
        {
          "name": "C#4",
          "midi": 61,
          "time": 107.43232499999996,
          "velocity": 0.7086614173228346,
          "duration": 0.19594575000000702
        },
        {
          "name": "C#4",
          "midi": 61,
          "time": 107.63502749999996,
          "velocity": 0.7086614173228346,
          "duration": 0.3986482499999937
        },
        {
          "name": "B3",
          "midi": 59,
          "time": 108.04043249999995,
          "velocity": 0.7086614173228346,
          "duration": 0.3986482499999937
        },
        {
          "name": "A3",
          "midi": 57,
          "time": 108.44583749999994,
          "velocity": 0.7086614173228346,
          "duration": 0.19594575000000702
        },
        {
          "name": "C#4",
          "midi": 61,
          "time": 108.64853999999994,
          "velocity": 0.7086614173228346,
          "duration": 0.3986482499999937
        },
        {
          "name": "B3",
          "midi": 59,
          "time": 109.05394499999993,
          "velocity": 0.7086614173228346,
          "duration": 0.3986482499999937
        },
        {
          "name": "A3",
          "midi": 57,
          "time": 109.45934999999992,
          "velocity": 0.7086614173228346,
          "duration": 0.8040532499999955
        },
        {
          "name": "B2",
          "midi": 47,
          "time": 113.5133999999999,
          "velocity": 0.7086614173228346,
          "duration": 0.8040532499999955
        },
        {
          "name": "C#3",
          "midi": 49,
          "time": 114.3242099999999,
          "velocity": 0.7086614173228346,
          "duration": 0.8040532499999955
        },
        {
          "name": "D3",
          "midi": 50,
          "time": 115.13501999999988,
          "velocity": 0.7086614173228346,
          "duration": 0.8040532499999955
        },
        {
          "name": "E3",
          "midi": 52,
          "time": 115.94582999999987,
          "velocity": 0.7086614173228346,
          "duration": 0.3986482499999937
        },
        {
          "name": "F#3",
          "midi": 54,
          "time": 116.35123499999986,
          "velocity": 0.7086614173228346,
          "duration": 0.3986482499999937
        },
        {
          "name": "G3",
          "midi": 55,
          "time": 116.75663999999985,
          "velocity": 0.7086614173228346,
          "duration": 1.614863249999999
        },
        {
          "name": "C#4",
          "midi": 61,
          "time": 120.40528499999985,
          "velocity": 0.7086614173228346,
          "duration": 0.19594575000000702
        },
        {
          "name": "C#4",
          "midi": 61,
          "time": 120.60798749999985,
          "velocity": 0.7086614173228346,
          "duration": 0.3986482499999937
        },
        {
          "name": "B3",
          "midi": 59,
          "time": 121.01339249999984,
          "velocity": 0.7086614173228346,
          "duration": 0.3986482499999937
        },
        {
          "name": "A3",
          "midi": 57,
          "time": 121.41879749999983,
          "velocity": 0.7086614173228346,
          "duration": 0.19594575000000702
        },
        {
          "name": "A2",
          "midi": 45,
          "time": 121.62149999999983,
          "velocity": 0.7086614173228346,
          "duration": 0.19594575000000702
        },
        {
          "name": "D3",
          "midi": 50,
          "time": 121.82420249999983,
          "velocity": 0.7086614173228346,
          "duration": 0.19594575000000702
        },
        {
          "name": "G3",
          "midi": 55,
          "time": 122.02690499999983,
          "velocity": 0.7086614173228346,
          "duration": 0.3986482499999937
        },
        {
          "name": "F#3",
          "midi": 54,
          "time": 122.43230999999982,
          "velocity": 0.7086614173228346,
          "duration": 0.8040532499999955
        },
        {
          "name": "D3",
          "midi": 50,
          "time": 122.43230999999982,
          "velocity": 0.7086614173228346,
          "duration": 0.8040532499999955
        },
        {
          "name": "B3",
          "midi": 59,
          "time": 129.7295999999998,
          "velocity": 0.7086614173228346,
          "duration": 1.6148632500000133
        },
        {
          "name": "C#4",
          "midi": 61,
          "time": 132.16202999999982,
          "velocity": 0.7086614173228346,
          "duration": 0.3986482500000079
        },
        {
          "name": "D4",
          "midi": 62,
          "time": 132.56743499999982,
          "velocity": 0.7086614173228346,
          "duration": 0.3986482500000079
        },
        {
          "name": "A#3",
          "midi": 58,
          "time": 132.97283999999982,
          "velocity": 0.7086614173228346,
          "duration": 2.4256732499999885
        },
        {
          "name": "A#3",
          "midi": 58,
          "time": 135.4052699999998,
          "velocity": 0.7086614173228346,
          "duration": 0.8040532500000097
        },
        {
          "name": "A3",
          "midi": 57,
          "time": 136.2160799999998,
          "velocity": 0.7086614173228346,
          "duration": 3.236483249999992
        },
        {
          "name": "G#3",
          "midi": 56,
          "time": 139.4593199999998,
          "velocity": 0.7086614173228346,
          "duration": 2.4256732499999885
        },
        {
          "name": "C#4",
          "midi": 61,
          "time": 141.89174999999977,
          "velocity": 0.7086614173228346,
          "duration": 0.3986482500000079
        },
        {
          "name": "D4",
          "midi": 62,
          "time": 142.29715499999978,
          "velocity": 0.7086614173228346,
          "duration": 0.3986482500000079
        },
        {
          "name": "G3",
          "midi": 55,
          "time": 142.70255999999978,
          "velocity": 0.7086614173228346,
          "duration": 2.4256732499999885
        },
        {
          "name": "B3",
          "midi": 59,
          "time": 145.13498999999976,
          "velocity": 0.7086614173228346,
          "duration": 0.1959457499999928
        },
        {
          "name": "C#4",
          "midi": 61,
          "time": 145.33769249999975,
          "velocity": 0.7086614173228346,
          "duration": 0.1959457499999928
        },
        {
          "name": "D4",
          "midi": 62,
          "time": 145.54039499999973,
          "velocity": 0.7086614173228346,
          "duration": 0.3986482500000079
        },
        {
          "name": "F#3",
          "midi": 54,
          "time": 145.94579999999974,
          "velocity": 0.7086614173228346,
          "duration": 2.4256732499999885
        },
        {
          "name": "F#3",
          "midi": 54,
          "time": 148.37822999999972,
          "velocity": 0.7086614173228346,
          "duration": 0.8040532500000097
        },
        {
          "name": "G3",
          "midi": 55,
          "time": 149.18903999999972,
          "velocity": 0.7086614173228346,
          "duration": 2.4256732499999885
        },
        {
          "name": "B3",
          "midi": 59,
          "time": 151.6214699999997,
          "velocity": 0.7086614173228346,
          "duration": 0.8040532500000097
        },
        {
          "name": "A#3",
          "midi": 58,
          "time": 152.4322799999997,
          "velocity": 0.7086614173228346,
          "duration": 1.2094582500000115
        },
        {
          "name": "A#3",
          "midi": 58,
          "time": 153.6484949999997,
          "velocity": 0.7086614173228346,
          "duration": 0.3986482500000079
        },
        {
          "name": "B3",
          "midi": 59,
          "time": 154.05389999999971,
          "velocity": 0.7086614173228346,
          "duration": 0.8040532500000097
        },
        {
          "name": "C#4",
          "midi": 61,
          "time": 154.86470999999972,
          "velocity": 0.7086614173228346,
          "duration": 0.8040532500000097
        },
        {
          "name": "B3",
          "midi": 59,
          "time": 155.67551999999972,
          "velocity": 0.7086614173228346,
          "duration": 1.6148632500000133
        },
        {
          "name": "F#5",
          "midi": 78,
          "time": 157.29713999999973,
          "velocity": 0.7086614173228346,
          "duration": 0.1959457499999928
        },
        {
          "name": "F5",
          "midi": 77,
          "time": 157.49984249999972,
          "velocity": 0.7086614173228346,
          "duration": 0.1959457499999928
        },
        {
          "name": "F#5",
          "midi": 78,
          "time": 157.7025449999997,
          "velocity": 0.7086614173228346,
          "duration": 1.2094582500000115
        },
        {
          "name": "A#3",
          "midi": 58,
          "time": 158.9187599999997,
          "velocity": 0.7086614173228346,
          "duration": 1.6148632500000133
        },
        {
          "name": "F#5",
          "midi": 78,
          "time": 160.54037999999971,
          "velocity": 0.7086614173228346,
          "duration": 0.1959457499999928
        },
        {
          "name": "F5",
          "midi": 77,
          "time": 160.7430824999997,
          "velocity": 0.7086614173228346,
          "duration": 0.1959457499999928
        },
        {
          "name": "F#5",
          "midi": 78,
          "time": 160.9457849999997,
          "velocity": 0.7086614173228346,
          "duration": 1.2094582500000115
        },
        {
          "name": "A3",
          "midi": 57,
          "time": 162.1619999999997,
          "velocity": 0.7086614173228346,
          "duration": 1.6148632500000133
        },
        {
          "name": "E5",
          "midi": 76,
          "time": 163.7836199999997,
          "velocity": 0.7086614173228346,
          "duration": 0.1959457499999928
        },
        {
          "name": "D#5",
          "midi": 75,
          "time": 163.9863224999997,
          "velocity": 0.7086614173228346,
          "duration": 0.1959457499999928
        },
        {
          "name": "E5",
          "midi": 76,
          "time": 164.18902499999967,
          "velocity": 0.7086614173228346,
          "duration": 1.2094582500000115
        },
        {
          "name": "G#3",
          "midi": 56,
          "time": 165.40523999999968,
          "velocity": 0.7086614173228346,
          "duration": 1.6148632500000133
        },
        {
          "name": "E5",
          "midi": 76,
          "time": 167.0268599999997,
          "velocity": 0.7086614173228346,
          "duration": 0.1959457499999928
        },
        {
          "name": "D#5",
          "midi": 75,
          "time": 167.22956249999967,
          "velocity": 0.7086614173228346,
          "duration": 0.1959457499999928
        },
        {
          "name": "E5",
          "midi": 76,
          "time": 167.43226499999966,
          "velocity": 0.7086614173228346,
          "duration": 1.2094582500000115
        },
        {
          "name": "G3",
          "midi": 55,
          "time": 168.64847999999967,
          "velocity": 0.7086614173228346,
          "duration": 1.6148632500000133
        },
        {
          "name": "G5",
          "midi": 79,
          "time": 170.27009999999967,
          "velocity": 0.7086614173228346,
          "duration": 0.1959457499999928
        },
        {
          "name": "F#5",
          "midi": 78,
          "time": 170.47280249999966,
          "velocity": 0.7086614173228346,
          "duration": 0.1959457499999928
        },
        {
          "name": "G5",
          "midi": 79,
          "time": 170.67550499999965,
          "velocity": 0.7086614173228346,
          "duration": 1.2094582500000115
        },
        {
          "name": "F#3",
          "midi": 54,
          "time": 171.89171999999965,
          "velocity": 0.7086614173228346,
          "duration": 1.6148632500000133
        },
        {
          "name": "F#5",
          "midi": 78,
          "time": 173.51333999999966,
          "velocity": 0.7086614173228346,
          "duration": 0.1959457499999928
        },
        {
          "name": "E5",
          "midi": 76,
          "time": 173.71604249999965,
          "velocity": 0.7086614173228346,
          "duration": 0.1959457499999928
        },
        {
          "name": "F#5",
          "midi": 78,
          "time": 173.91874499999963,
          "velocity": 0.7086614173228346,
          "duration": 1.2094582500000115
        },
        {
          "name": "G3",
          "midi": 55,
          "time": 175.13495999999964,
          "velocity": 0.7086614173228346,
          "duration": 1.6148632500000133
        },
        {
          "name": "B4",
          "midi": 71,
          "time": 176.75657999999964,
          "velocity": 0.7086614173228346,
          "duration": 0.1959457499999928
        },
        {
          "name": "A#4",
          "midi": 70,
          "time": 176.95928249999963,
          "velocity": 0.7086614173228346,
          "duration": 0.1959457499999928
        },
        {
          "name": "B4",
          "midi": 71,
          "time": 177.16198499999962,
          "velocity": 0.7086614173228346,
          "duration": 0.3986482500000079
        },
        {
          "name": "B3",
          "midi": 59,
          "time": 177.56738999999962,
          "velocity": 0.7086614173228346,
          "duration": 0.8040532500000097
        },
        {
          "name": "A#3",
          "midi": 58,
          "time": 178.37819999999962,
          "velocity": 0.7086614173228346,
          "duration": 1.6148632500000133
        },
        {
          "name": "B2",
          "midi": 47,
          "time": 180.81062999999963,
          "velocity": 0.7086614173228346,
          "duration": 0.1959457499999928
        },
        {
          "name": "C#3",
          "midi": 49,
          "time": 181.01333249999962,
          "velocity": 0.7086614173228346,
          "duration": 0.1959457499999928
        },
        {
          "name": "D3",
          "midi": 50,
          "time": 181.2160349999996,
          "velocity": 0.7086614173228346,
          "duration": 0.1959457499999928
        },
        {
          "name": "F#3",
          "midi": 54,
          "time": 181.4187374999996,
          "velocity": 0.7086614173228346,
          "duration": 0.1959457499999928
        },
        {
          "name": "D3",
          "midi": 50,
          "time": 181.62143999999958,
          "velocity": 0.7086614173228346,
          "duration": 1.6148632500000133
        },
        {
          "name": "D4",
          "midi": 62,
          "time": 185.06738249999958,
          "velocity": 0.7086614173228346,
          "duration": 0.1959457499999928
        },
        {
          "name": "F#4",
          "midi": 66,
          "time": 185.27008499999957,
          "velocity": 0.7086614173228346,
          "duration": 0.1959457499999928
        },
        {
          "name": "A4",
          "midi": 69,
          "time": 185.47278749999955,
          "velocity": 0.7086614173228346,
          "duration": 0.1959457499999928
        },
        {
          "name": "F#4",
          "midi": 66,
          "time": 185.67548999999954,
          "velocity": 0.7086614173228346,
          "duration": 0.1959457499999928
        },
        {
          "name": "E4",
          "midi": 64,
          "time": 185.87819249999953,
          "velocity": 0.7086614173228346,
          "duration": 0.1959457499999928
        },
        {
          "name": "D4",
          "midi": 62,
          "time": 186.08089499999951,
          "velocity": 0.7086614173228346,
          "duration": 0.3986482500000079
        },
        {
          "name": "F#4",
          "midi": 66,
          "time": 186.48629999999952,
          "velocity": 0.7086614173228346,
          "duration": 0.3986482500000079
        },
        {
          "name": "A4",
          "midi": 69,
          "time": 186.89170499999952,
          "velocity": 0.7086614173228346,
          "duration": 0.3986482500000079
        },
        {
          "name": "D6",
          "midi": 86,
          "time": 187.29710999999952,
          "velocity": 0.7086614173228346,
          "duration": 0.3986482500000079
        },
        {
          "name": "C#6",
          "midi": 85,
          "time": 187.70251499999952,
          "velocity": 0.7086614173228346,
          "duration": 2.0202682499999867
        },
        {
          "name": "B2",
          "midi": 47,
          "time": 191.3511599999995,
          "velocity": 0.7086614173228346,
          "duration": 0.8040532500000097
        },
        {
          "name": "C#3",
          "midi": 49,
          "time": 192.1619699999995,
          "velocity": 0.7086614173228346,
          "duration": 0.8040532500000097
        },
        {
          "name": "D3",
          "midi": 50,
          "time": 192.97277999999952,
          "velocity": 0.7086614173228346,
          "duration": 0.8040532500000097
        },
        {
          "name": "E3",
          "midi": 52,
          "time": 193.78358999999952,
          "velocity": 0.7086614173228346,
          "duration": 0.3986482500000079
        },
        {
          "name": "F#3",
          "midi": 54,
          "time": 194.18899499999952,
          "velocity": 0.7086614173228346,
          "duration": 0.3986482500000079
        },
        {
          "name": "G3",
          "midi": 55,
          "time": 194.59439999999952,
          "velocity": 0.7086614173228346,
          "duration": 1.6148632500000133
        },
        {
          "name": "B5",
          "midi": 83,
          "time": 198.24304499999954,
          "velocity": 0.7086614173228346,
          "duration": 0.8040532500000097
        },
        {
          "name": "D6",
          "midi": 86,
          "time": 199.05385499999954,
          "velocity": 0.7086614173228346,
          "duration": 0.1959457499999928
        },
        {
          "name": "D6",
          "midi": 86,
          "time": 199.25655749999953,
          "velocity": 0.7086614173228346,
          "duration": 0.1959457499999928
        },
        {
          "name": "B5",
          "midi": 83,
          "time": 199.45925999999952,
          "velocity": 0.7086614173228346,
          "duration": 0.1959457499999928
        },
        {
          "name": "A5",
          "midi": 81,
          "time": 199.6619624999995,
          "velocity": 0.7086614173228346,
          "duration": 0.1959457499999928
        },
        {
          "name": "F#5",
          "midi": 78,
          "time": 199.8646649999995,
          "velocity": 0.7086614173228346,
          "duration": 0.3986482500000079
        },
        {
          "name": "F#6",
          "midi": 90,
          "time": 200.2700699999995,
          "velocity": 0.7086614173228346,
          "duration": 0.3986482500000079
        },
        {
          "name": "E6",
          "midi": 88,
          "time": 200.6754749999995,
          "velocity": 0.7086614173228346,
          "duration": 2.0202682499999867
        },
        {
          "name": "B3",
          "midi": 59,
          "time": 233.5132799999995,
          "velocity": 0.7086614173228346,
          "duration": 1.6148632500000133
        },
        {
          "name": "F#5",
          "midi": 78,
          "time": 235.1348999999995,
          "velocity": 0.7086614173228346,
          "duration": 0.1959457499999928
        },
        {
          "name": "F5",
          "midi": 77,
          "time": 235.3376024999995,
          "velocity": 0.7086614173228346,
          "duration": 0.1959457499999928
        },
        {
          "name": "F#5",
          "midi": 78,
          "time": 235.54030499999948,
          "velocity": 0.7086614173228346,
          "duration": 1.2094582500000115
        },
        {
          "name": "A#3",
          "midi": 58,
          "time": 236.75651999999948,
          "velocity": 0.7086614173228346,
          "duration": 1.6148632500000133
        },
        {
          "name": "F#5",
          "midi": 78,
          "time": 238.3781399999995,
          "velocity": 0.7086614173228346,
          "duration": 0.1959457499999928
        },
        {
          "name": "F5",
          "midi": 77,
          "time": 238.58084249999948,
          "velocity": 0.7086614173228346,
          "duration": 0.1959457499999928
        },
        {
          "name": "F#5",
          "midi": 78,
          "time": 238.78354499999946,
          "velocity": 0.7086614173228346,
          "duration": 1.2094582500000115
        },
        {
          "name": "A3",
          "midi": 57,
          "time": 239.99975999999947,
          "velocity": 0.7086614173228346,
          "duration": 1.6148632500000133
        },
        {
          "name": "E5",
          "midi": 76,
          "time": 241.62137999999948,
          "velocity": 0.7086614173228346,
          "duration": 0.1959457499999928
        },
        {
          "name": "D#5",
          "midi": 75,
          "time": 241.82408249999946,
          "velocity": 0.7086614173228346,
          "duration": 0.1959457499999928
        },
        {
          "name": "E5",
          "midi": 76,
          "time": 242.02678499999945,
          "velocity": 0.7086614173228346,
          "duration": 1.2094582500000115
        },
        {
          "name": "G#3",
          "midi": 56,
          "time": 243.24299999999945,
          "velocity": 0.7086614173228346,
          "duration": 1.6148632500000133
        },
        {
          "name": "E5",
          "midi": 76,
          "time": 244.86461999999946,
          "velocity": 0.7086614173228346,
          "duration": 0.1959457499999928
        },
        {
          "name": "D#5",
          "midi": 75,
          "time": 245.06732249999945,
          "velocity": 0.7086614173228346,
          "duration": 0.1959457499999928
        },
        {
          "name": "E5",
          "midi": 76,
          "time": 245.27002499999944,
          "velocity": 0.7086614173228346,
          "duration": 1.2094582500000115
        },
        {
          "name": "G3",
          "midi": 55,
          "time": 246.48623999999944,
          "velocity": 0.7086614173228346,
          "duration": 1.6148632500000133
        },
        {
          "name": "G5",
          "midi": 79,
          "time": 248.10785999999945,
          "velocity": 0.7086614173228346,
          "duration": 0.1959457499999928
        },
        {
          "name": "F#5",
          "midi": 78,
          "time": 248.31056249999943,
          "velocity": 0.7086614173228346,
          "duration": 0.1959457499999928
        },
        {
          "name": "G5",
          "midi": 79,
          "time": 248.51326499999942,
          "velocity": 0.7086614173228346,
          "duration": 1.2094582500000115
        },
        {
          "name": "F#3",
          "midi": 54,
          "time": 249.72947999999943,
          "velocity": 0.7086614173228346,
          "duration": 1.6148632500000133
        },
        {
          "name": "F#5",
          "midi": 78,
          "time": 251.35109999999943,
          "velocity": 0.7086614173228346,
          "duration": 0.1959457499999928
        },
        {
          "name": "E5",
          "midi": 76,
          "time": 251.55380249999942,
          "velocity": 0.7086614173228346,
          "duration": 0.1959457499999928
        },
        {
          "name": "F#5",
          "midi": 78,
          "time": 251.7565049999994,
          "velocity": 0.7086614173228346,
          "duration": 1.2094582500000115
        },
        {
          "name": "G3",
          "midi": 55,
          "time": 252.9727199999994,
          "velocity": 0.7086614173228346,
          "duration": 1.6148632500000133
        },
        {
          "name": "B4",
          "midi": 71,
          "time": 254.59433999999942,
          "velocity": 0.7086614173228346,
          "duration": 0.1959457499999928
        },
        {
          "name": "A#4",
          "midi": 70,
          "time": 254.7970424999994,
          "velocity": 0.7086614173228346,
          "duration": 0.1959457499999928
        },
        {
          "name": "B4",
          "midi": 71,
          "time": 254.9997449999994,
          "velocity": 0.7086614173228346,
          "duration": 0.3986482500000079
        },
        {
          "name": "B3",
          "midi": 59,
          "time": 255.4051499999994,
          "velocity": 0.7086614173228346,
          "duration": 0.8040532500000097
        },
        {
          "name": "A#3",
          "midi": 58,
          "time": 256.2159599999994,
          "velocity": 0.7086614173228346,
          "duration": 1.6148632499999849
        },
        {
          "name": "F#5",
          "midi": 78,
          "time": 257.83757999999943,
          "velocity": 0.7086614173228346,
          "duration": 0.19594575000002123
        },
        {
          "name": "F5",
          "midi": 77,
          "time": 258.0402824999995,
          "velocity": 0.7086614173228346,
          "duration": 0.19594575000002123
        },
        {
          "name": "F#5",
          "midi": 78,
          "time": 258.2429849999995,
          "velocity": 0.7086614173228346,
          "duration": 0.19594575000002123
        },
        {
          "name": "B3",
          "midi": 59,
          "time": 258.64838999999955,
          "velocity": 0.7086614173228346,
          "duration": 0.19594575000002123
        },
        {
          "name": "F#4",
          "midi": 66,
          "time": 258.8510924999996,
          "velocity": 0.7086614173228346,
          "duration": 0.19594575000002123
        },
        {
          "name": "A4",
          "midi": 69,
          "time": 259.05379499999964,
          "velocity": 0.7086614173228346,
          "duration": 0.19594575000002123
        },
        {
          "name": "B4",
          "midi": 71,
          "time": 259.2564974999997,
          "velocity": 0.7086614173228346,
          "duration": 0.19594575000002123
        },
        {
          "name": "D5",
          "midi": 74,
          "time": 259.4591999999997,
          "velocity": 0.7086614173228346,
          "duration": 1.2094582500000115
        },
        {
          "name": "A4",
          "midi": 69,
          "time": 260.67541499999976,
          "velocity": 0.7086614173228346,
          "duration": 0.19594575000002123
        },
        {
          "name": "B4",
          "midi": 71,
          "time": 260.8781174999998,
          "velocity": 0.7086614173228346,
          "duration": 0.19594575000002123
        },
        {
          "name": "F#4",
          "midi": 66,
          "time": 261.08081999999985,
          "velocity": 0.7086614173228346,
          "duration": 0.8040532499999813
        },
        {
          "name": "D4",
          "midi": 62,
          "time": 261.89162999999985,
          "velocity": 0.7086614173228346,
          "duration": 0.19594575000002123
        },
        {
          "name": "E4",
          "midi": 64,
          "time": 262.0943324999999,
          "velocity": 0.7086614173228346,
          "duration": 0.19594575000002123
        },
        {
          "name": "F#4",
          "midi": 66,
          "time": 262.29703499999994,
          "velocity": 0.7086614173228346,
          "duration": 0.19594575000002123
        },
        {
          "name": "D4",
          "midi": 62,
          "time": 262.4997375,
          "velocity": 0.7086614173228346,
          "duration": 0.19594575000002123
        },
        {
          "name": "A#3",
          "midi": 58,
          "time": 262.70244,
          "velocity": 0.7086614173228346,
          "duration": 0.8040532499999813
        },
        {
          "name": "B3",
          "midi": 59,
          "time": 263.51325,
          "velocity": 0.7086614173228346,
          "duration": 0.19594575000002123
        },
        {
          "name": "D4",
          "midi": 62,
          "time": 263.61460125,
          "velocity": 0.7086614173228346,
          "duration": 0.09459450000002789
        },
        {
          "name": "B3",
          "midi": 59,
          "time": 263.71595250000007,
          "velocity": 0.7086614173228346,
          "duration": 0.09459450000002789
        },
        {
          "name": "A#3",
          "midi": 58,
          "time": 263.8173037500001,
          "velocity": 0.7086614173228346,
          "duration": 0.09459450000002789
        },
        {
          "name": "A3",
          "midi": 57,
          "time": 263.9186550000002,
          "velocity": 0.7086614173228346,
          "duration": 0.3986482500000079
        },
        {
          "name": "A#3",
          "midi": 58,
          "time": 264.3240600000002,
          "velocity": 0.7086614173228346,
          "duration": 1.2094582500000115
        },
        {
          "name": "F#2",
          "midi": 42,
          "time": 265.54027500000024,
          "velocity": 0.7086614173228346,
          "duration": 0.3986482500000079
        },
        {
          "name": "D4",
          "midi": 62,
          "time": 265.94568000000027,
          "velocity": 0.7086614173228346,
          "duration": 0.19594575000002123
        },
        {
          "name": "E4",
          "midi": 64,
          "time": 266.1483825000003,
          "velocity": 0.7086614173228346,
          "duration": 0.19594575000002123
        },
        {
          "name": "F#4",
          "midi": 66,
          "time": 266.35108500000035,
          "velocity": 0.7086614173228346,
          "duration": 0.19594575000002123
        },
        {
          "name": "D4",
          "midi": 62,
          "time": 266.5537875000004,
          "velocity": 0.7086614173228346,
          "duration": 0.19594575000002123
        },
        {
          "name": "B3",
          "midi": 59,
          "time": 266.75649000000044,
          "velocity": 0.7086614173228346,
          "duration": 0.19594575000002123
        },
        {
          "name": "A#3",
          "midi": 58,
          "time": 266.9591925000005,
          "velocity": 0.7086614173228346,
          "duration": 0.19594575000002123
        },
        {
          "name": "B3",
          "midi": 59,
          "time": 267.1618950000005,
          "velocity": 0.7086614173228346,
          "duration": 0.3986482500000079
        },
        {
          "name": "D4",
          "midi": 62,
          "time": 267.56730000000056,
          "velocity": 0.7086614173228346,
          "duration": 0.19594575000002123
        },
        {
          "name": "E4",
          "midi": 64,
          "time": 267.7700025000006,
          "velocity": 0.7086614173228346,
          "duration": 0.19594575000002123
        },
        {
          "name": "F#4",
          "midi": 66,
          "time": 267.97270500000064,
          "velocity": 0.7086614173228346,
          "duration": 0.19594575000002123
        },
        {
          "name": "D4",
          "midi": 62,
          "time": 268.1754075000007,
          "velocity": 0.7086614173228346,
          "duration": 0.19594575000002123
        },
        {
          "name": "B3",
          "midi": 59,
          "time": 268.37811000000073,
          "velocity": 0.7086614173228346,
          "duration": 0.19594575000002123
        },
        {
          "name": "A#3",
          "midi": 58,
          "time": 268.5808125000008,
          "velocity": 0.7086614173228346,
          "duration": 0.19594575000002123
        },
        {
          "name": "B3",
          "midi": 59,
          "time": 268.7835150000008,
          "velocity": 0.7086614173228346,
          "duration": 0.19594575000002123
        },
        {
          "name": "A#3",
          "midi": 58,
          "time": 268.98621750000086,
          "velocity": 0.7086614173228346,
          "duration": 0.19594575000002123
        },
        {
          "name": "A4",
          "midi": 69,
          "time": 269.1889200000009,
          "velocity": 0.7086614173228346,
          "duration": 0.19594575000002123
        },
        {
          "name": "B4",
          "midi": 71,
          "time": 269.39162250000095,
          "velocity": 0.7086614173228346,
          "duration": 0.19594575000002123
        },
        {
          "name": "D5",
          "midi": 74,
          "time": 269.594325000001,
          "velocity": 0.7086614173228346,
          "duration": 0.19594575000002123
        },
        {
          "name": "B4",
          "midi": 71,
          "time": 269.79702750000104,
          "velocity": 0.7086614173228346,
          "duration": 0.3986482500000079
        },
        {
          "name": "G#4",
          "midi": 68,
          "time": 270.20243250000107,
          "velocity": 0.7086614173228346,
          "duration": 0.19594575000002123
        },
        {
          "name": "A4",
          "midi": 69,
          "time": 270.4051350000011,
          "velocity": 0.7086614173228346,
          "duration": 0.3986482500000079
        },
        {
          "name": "G#4",
          "midi": 68,
          "time": 270.81054000000114,
          "velocity": 0.7086614173228346,
          "duration": 0.8040532499999813
        },
        {
          "name": "B4",
          "midi": 71,
          "time": 271.62135000000114,
          "velocity": 0.7086614173228346,
          "duration": 0.19594575000002123
        },
        {
          "name": "A4",
          "midi": 69,
          "time": 271.8240525000012,
          "velocity": 0.7086614173228346,
          "duration": 0.19594575000002123
        },
        {
          "name": "E5",
          "midi": 76,
          "time": 272.02675500000123,
          "velocity": 0.7086614173228346,
          "duration": 0.8040532499999813
        },
        {
          "name": "D5",
          "midi": 74,
          "time": 272.83756500000123,
          "velocity": 0.7086614173228346,
          "duration": 0.20270249999998668
        },
        {
          "name": "E5",
          "midi": 76,
          "time": 273.2429700000012,
          "velocity": 0.7086614173228346,
          "duration": 0.20270249999998668
        },
        {
          "name": "D5",
          "midi": 74,
          "time": 273.4456725000012,
          "velocity": 0.7086614173228346,
          "duration": 0.20270249999998668
        },
        {
          "name": "B4",
          "midi": 71,
          "time": 273.6483750000012,
          "velocity": 0.7086614173228346,
          "duration": 0.20270249999998668
        },
        {
          "name": "A4",
          "midi": 69,
          "time": 273.85107750000117,
          "velocity": 0.7086614173228346,
          "duration": 0.20270249999998668
        },
        {
          "name": "B4",
          "midi": 71,
          "time": 274.05378000000115,
          "velocity": 0.7086614173228346,
          "duration": 0.20270249999998668
        },
        {
          "name": "D5",
          "midi": 74,
          "time": 274.25648250000114,
          "velocity": 0.7086614173228346,
          "duration": 0.20270249999998668
        },
        {
          "name": "B4",
          "midi": 71,
          "time": 274.4591850000011,
          "velocity": 0.7086614173228346,
          "duration": 0.20270249999998668
        },
        {
          "name": "A4",
          "midi": 69,
          "time": 274.6618875000011,
          "velocity": 0.7086614173228346,
          "duration": 0.20270249999998668
        },
        {
          "name": "G4",
          "midi": 67,
          "time": 274.8645900000011,
          "velocity": 0.7086614173228346,
          "duration": 0.40540499999997337
        },
        {
          "name": "A4",
          "midi": 69,
          "time": 275.2699950000011,
          "velocity": 0.7086614173228346,
          "duration": 0.10135124999999334
        },
        {
          "name": "B3",
          "midi": 59,
          "time": 275.47269750000106,
          "velocity": 0.7086614173228346,
          "duration": 0.10135124999999334
        },
        {
          "name": "F#4",
          "midi": 66,
          "time": 275.67540000000105,
          "velocity": 0.7086614173228346,
          "duration": 0.3986482500000079
        },
        {
          "name": "D5",
          "midi": 74,
          "time": 276.0808050000011,
          "velocity": 0.7086614173228346,
          "duration": 0.3986482500000079
        },
        {
          "name": "F#4",
          "midi": 66,
          "time": 276.4862100000011,
          "velocity": 0.7086614173228346,
          "duration": 0.19594575000002123
        },
        {
          "name": "E4",
          "midi": 64,
          "time": 276.68891250000115,
          "velocity": 0.7086614173228346,
          "duration": 0.19594575000002123
        },
        {
          "name": "D4",
          "midi": 62,
          "time": 276.8916150000012,
          "velocity": 0.7086614173228346,
          "duration": 0.3986482500000079
        },
        {
          "name": "D4",
          "midi": 62,
          "time": 277.2970200000012,
          "velocity": 0.7086614173228346,
          "duration": 0.19594575000002123
        },
        {
          "name": "C#4",
          "midi": 61,
          "time": 277.49972250000127,
          "velocity": 0.7086614173228346,
          "duration": 0.19594575000002123
        },
        {
          "name": "D4",
          "midi": 62,
          "time": 277.7024250000013,
          "velocity": 0.7086614173228346,
          "duration": 0.3986482500000079
        },
        {
          "name": "D4",
          "midi": 62,
          "time": 278.10783000000134,
          "velocity": 0.7086614173228346,
          "duration": 0.8040532499999813
        },
        {
          "name": "D4",
          "midi": 62,
          "time": 278.91864000000135,
          "velocity": 0.7086614173228346,
          "duration": 0.19594575000002123
        },
        {
          "name": "E4",
          "midi": 64,
          "time": 279.1213425000014,
          "velocity": 0.7086614173228346,
          "duration": 0.19594575000002123
        },
        {
          "name": "G4",
          "midi": 67,
          "time": 279.32404500000143,
          "velocity": 0.7086614173228346,
          "duration": 0.19594575000002123
        },
        {
          "name": "G4",
          "midi": 67,
          "time": 279.72945000000146,
          "velocity": 0.7086614173228346,
          "duration": 0.19594575000002123
        },
        {
          "name": "F#4",
          "midi": 66,
          "time": 279.9321525000015,
          "velocity": 0.7086614173228346,
          "duration": 0.19594575000002123
        },
        {
          "name": "E4",
          "midi": 64,
          "time": 280.13485500000155,
          "velocity": 0.7086614173228346,
          "duration": 0.19594575000002123
        },
        {
          "name": "E4",
          "midi": 64,
          "time": 280.5402600000016,
          "velocity": 0.7086614173228346,
          "duration": 0.19594575000002123
        },
        {
          "name": "G4",
          "midi": 67,
          "time": 280.7429625000016,
          "velocity": 0.7086614173228346,
          "duration": 0.19594575000002123
        },
        {
          "name": "G4",
          "midi": 67,
          "time": 281.04701625000166,
          "velocity": 0.7086614173228346,
          "duration": 0.19594575000002123
        },
        {
          "name": "G4",
          "midi": 67,
          "time": 281.3510700000017,
          "velocity": 0.7086614173228346,
          "duration": 0.19594575000002123
        },
        {
          "name": "F#4",
          "midi": 66,
          "time": 281.55377250000174,
          "velocity": 0.7086614173228346,
          "duration": 0.19594575000002123
        },
        {
          "name": "E4",
          "midi": 64,
          "time": 281.7564750000018,
          "velocity": 0.7086614173228346,
          "duration": 0.19594575000002123
        },
        {
          "name": "D4",
          "midi": 62,
          "time": 281.95917750000183,
          "velocity": 0.7086614173228346,
          "duration": 0.19594575000002123
        },
        {
          "name": "F#4",
          "midi": 66,
          "time": 282.1618800000019,
          "velocity": 0.7086614173228346,
          "duration": 0.19594575000002123
        },
        {
          "name": "F#4",
          "midi": 66,
          "time": 282.3645825000019,
          "velocity": 0.7086614173228346,
          "duration": 0.19594575000002123
        },
        {
          "name": "A4",
          "midi": 69,
          "time": 282.56728500000196,
          "velocity": 0.7086614173228346,
          "duration": 0.19594575000002123
        },
        {
          "name": "F#4",
          "midi": 66,
          "time": 282.769987500002,
          "velocity": 0.7086614173228346,
          "duration": 0.19594575000002123
        },
        {
          "name": "F#4",
          "midi": 66,
          "time": 282.97269000000205,
          "velocity": 0.7086614173228346,
          "duration": 0.19594575000002123
        },
        {
          "name": "B4",
          "midi": 71,
          "time": 283.1753925000021,
          "velocity": 0.7086614173228346,
          "duration": 0.19594575000002123
        },
        {
          "name": "F#4",
          "midi": 66,
          "time": 283.37809500000213,
          "velocity": 0.7086614173228346,
          "duration": 0.19594575000002123
        },
        {
          "name": "E4",
          "midi": 64,
          "time": 283.5807975000022,
          "velocity": 0.7086614173228346,
          "duration": 0.09459450000002789
        },
        {
          "name": "D4",
          "midi": 62,
          "time": 283.6821487500022,
          "velocity": 0.7086614173228346,
          "duration": 0.09459450000002789
        },
        {
          "name": "F#4",
          "midi": 66,
          "time": 283.7835000000023,
          "velocity": 0.7086614173228346,
          "duration": 1.6148632499999849
        },
        {
          "name": "F#4",
          "midi": 66,
          "time": 285.4051200000023,
          "velocity": 0.7086614173228346,
          "duration": 0.19594575000002123
        },
        {
          "name": "F#4",
          "midi": 66,
          "time": 285.6078225000023,
          "velocity": 0.7086614173228346,
          "duration": 0.19594575000002123
        },
        {
          "name": "A4",
          "midi": 69,
          "time": 285.8105250000024,
          "velocity": 0.7086614173228346,
          "duration": 0.19594575000002123
        },
        {
          "name": "F#4",
          "midi": 66,
          "time": 286.0132275000024,
          "velocity": 0.7086614173228346,
          "duration": 0.19594575000002123
        },
        {
          "name": "F#4",
          "midi": 66,
          "time": 286.21593000000246,
          "velocity": 0.7086614173228346,
          "duration": 0.19594575000002123
        },
        {
          "name": "B4",
          "midi": 71,
          "time": 286.4186325000025,
          "velocity": 0.7086614173228346,
          "duration": 0.19594575000002123
        },
        {
          "name": "F#4",
          "midi": 66,
          "time": 286.62133500000255,
          "velocity": 0.7086614173228346,
          "duration": 0.19594575000002123
        },
        {
          "name": "B4",
          "midi": 71,
          "time": 286.8240375000026,
          "velocity": 0.7086614173228346,
          "duration": 0.19594575000002123
        },
        {
          "name": "B4",
          "midi": 71,
          "time": 287.02674000000263,
          "velocity": 0.7086614173228346,
          "duration": 0.19594575000002123
        },
        {
          "name": "F#4",
          "midi": 66,
          "time": 287.2294425000027,
          "velocity": 0.7086614173228346,
          "duration": 0.19594575000002123
        },
        {
          "name": "F#4",
          "midi": 66,
          "time": 287.4321450000027,
          "velocity": 0.7086614173228346,
          "duration": 0.19594575000002123
        },
        {
          "name": "F#4",
          "midi": 66,
          "time": 287.63484750000276,
          "velocity": 0.7086614173228346,
          "duration": 0.19594575000002123
        },
        {
          "name": "F#4",
          "midi": 66,
          "time": 287.8375500000028,
          "velocity": 0.7086614173228346,
          "duration": 0.12837825000002567
        },
        {
          "name": "E4",
          "midi": 64,
          "time": 287.97268500000285,
          "velocity": 0.7086614173228346,
          "duration": 0.12837825000002567
        },
        {
          "name": "D4",
          "midi": 62,
          "time": 288.1078200000029,
          "velocity": 0.7086614173228346,
          "duration": 0.12837825000002567
        },
        {
          "name": "E4",
          "midi": 64,
          "time": 288.24295500000295,
          "velocity": 0.7086614173228346,
          "duration": 0.19594575000002123
        },
        {
          "name": "D4",
          "midi": 62,
          "time": 288.445657500003,
          "velocity": 0.7086614173228346,
          "duration": 0.19594575000002123
        },
        {
          "name": "F#4",
          "midi": 66,
          "time": 288.64836000000304,
          "velocity": 0.7086614173228346,
          "duration": 1.6148632499999849
        },
        {
          "name": "E5",
          "midi": 76,
          "time": 290.26998000000305,
          "velocity": 0.7086614173228346,
          "duration": 0.19594575000002123
        },
        {
          "name": "F#5",
          "midi": 78,
          "time": 290.4726825000031,
          "velocity": 0.7086614173228346,
          "duration": 0.19594575000002123
        },
        {
          "name": "E3",
          "midi": 52,
          "time": 291.8240325000031,
          "velocity": 0.7086614173228346,
          "duration": 0.027026999999975487
        },
        {
          "name": "A3",
          "midi": 57,
          "time": 291.8578162500031,
          "velocity": 0.7086614173228346,
          "duration": 0.027026999999975487
        },
        {
          "name": "D4",
          "midi": 62,
          "time": 291.8916000000031,
          "velocity": 0.7086614173228346,
          "duration": 0.027026999999975487
        },
        {
          "name": "A4",
          "midi": 69,
          "time": 291.9253837500031,
          "velocity": 0.7086614173228346,
          "duration": 0.5675669999999968
        },
        {
          "name": "F#4",
          "midi": 66,
          "time": 292.4997075000031,
          "velocity": 0.7086614173228346,
          "duration": 0.19594575000002123
        },
        {
          "name": "E4",
          "midi": 64,
          "time": 292.70241000000317,
          "velocity": 0.7086614173228346,
          "duration": 0.19594575000002123
        },
        {
          "name": "F#4",
          "midi": 66,
          "time": 292.9051125000032,
          "velocity": 0.7086614173228346,
          "duration": 0.19594575000002123
        },
        {
          "name": "D4",
          "midi": 62,
          "time": 293.10781500000326,
          "velocity": 0.7086614173228346,
          "duration": 0.3986482500000079
        },
        {
          "name": "B3",
          "midi": 59,
          "time": 293.5132200000033,
          "velocity": 0.7086614173228346,
          "duration": 0.3986482500000079
        },
        {
          "name": "A4",
          "midi": 69,
          "time": 293.9186250000033,
          "velocity": 0.7086614173228346,
          "duration": 0.19594575000002123
        },
        {
          "name": "B4",
          "midi": 71,
          "time": 294.12132750000336,
          "velocity": 0.7086614173228346,
          "duration": 0.19594575000002123
        },
        {
          "name": "B4",
          "midi": 71,
          "time": 294.3240300000034,
          "velocity": 0.7086614173228346,
          "duration": 0.3986482500000079
        },
        {
          "name": "A4",
          "midi": 69,
          "time": 294.72943500000343,
          "velocity": 0.7086614173228346,
          "duration": 0.19594575000002123
        },
        {
          "name": "F#4",
          "midi": 66,
          "time": 294.9321375000035,
          "velocity": 0.7086614173228346,
          "duration": 0.19594575000002123
        },
        {
          "name": "A4",
          "midi": 69,
          "time": 295.1348400000035,
          "velocity": 0.7086614173228346,
          "duration": 0.19594575000002123
        },
        {
          "name": "B4",
          "midi": 71,
          "time": 295.33754250000356,
          "velocity": 0.7086614173228346,
          "duration": 0.19594575000002123
        },
        {
          "name": "D5",
          "midi": 74,
          "time": 295.5402450000036,
          "velocity": 0.7086614173228346,
          "duration": 0.19594575000002123
        },
        {
          "name": "A4",
          "midi": 69,
          "time": 295.74294750000365,
          "velocity": 0.7086614173228346,
          "duration": 0.19594575000002123
        },
        {
          "name": "B4",
          "midi": 71,
          "time": 295.9456500000037,
          "velocity": 0.7086614173228346,
          "duration": 0.19594575000002123
        },
        {
          "name": "A#4",
          "midi": 70,
          "time": 296.14835250000374,
          "velocity": 0.7086614173228346,
          "duration": 0.19594575000002123
        },
        {
          "name": "A4",
          "midi": 69,
          "time": 296.3510550000038,
          "velocity": 0.7086614173228346,
          "duration": 0.19594575000002123
        },
        {
          "name": "G#4",
          "midi": 68,
          "time": 296.5537575000038,
          "velocity": 0.7086614173228346,
          "duration": 1.2094582500000115
        },
        {
          "name": "A4",
          "midi": 69,
          "time": 297.97267500000385,
          "velocity": 0.7086614173228346,
          "duration": 0.3986482500000079
        },
        {
          "name": "B4",
          "midi": 71,
          "time": 298.3780800000039,
          "velocity": 0.7086614173228346,
          "duration": 0.3986482500000079
        },
        {
          "name": "B4",
          "midi": 71,
          "time": 298.7834850000039,
          "velocity": 0.7086614173228346,
          "duration": 0.3986482500000079
        },
        {
          "name": "B4",
          "midi": 71,
          "time": 299.18889000000394,
          "velocity": 0.7086614173228346,
          "duration": 0.3986482500000079
        },
        {
          "name": "E5",
          "midi": 76,
          "time": 299.59429500000397,
          "velocity": 0.7086614173228346,
          "duration": 0.19594575000002123
        },
        {
          "name": "D5",
          "midi": 74,
          "time": 299.796997500004,
          "velocity": 0.7086614173228346,
          "duration": 0.19594575000002123
        },
        {
          "name": "E5",
          "midi": 76,
          "time": 299.99970000000405,
          "velocity": 0.7086614173228346,
          "duration": 0.19594575000002123
        },
        {
          "name": "F#5",
          "midi": 78,
          "time": 300.2024025000041,
          "velocity": 0.7086614173228346,
          "duration": 0.19594575000002123
        },
        {
          "name": "A5",
          "midi": 81,
          "time": 300.40510500000414,
          "velocity": 0.7086614173228346,
          "duration": 0.19594575000002123
        },
        {
          "name": "F#5",
          "midi": 78,
          "time": 300.6078075000042,
          "velocity": 0.7086614173228346,
          "duration": 0.19594575000002123
        },
        {
          "name": "E5",
          "midi": 76,
          "time": 300.81051000000423,
          "velocity": 0.7086614173228346,
          "duration": 0.19594575000002123
        },
        {
          "name": "D5",
          "midi": 74,
          "time": 301.0132125000043,
          "velocity": 0.7086614173228346,
          "duration": 0.19594575000002123
        },
        {
          "name": "E5",
          "midi": 76,
          "time": 301.2159150000043,
          "velocity": 0.7086614173228346,
          "duration": 0.19594575000002123
        },
        {
          "name": "D5",
          "midi": 74,
          "time": 301.41861750000436,
          "velocity": 0.7086614173228346,
          "duration": 0.19594575000002123
        },
        {
          "name": "F#5",
          "midi": 78,
          "time": 301.6213200000044,
          "velocity": 0.7086614173228346,
          "duration": 0.19594575000002123
        },
        {
          "name": "G5",
          "midi": 79,
          "time": 301.82402250000445,
          "velocity": 0.7086614173228346,
          "duration": 0.19594575000002123
        },
        {
          "name": "G#5",
          "midi": 80,
          "time": 302.0267250000045,
          "velocity": 0.7086614173228346,
          "duration": 0.19594575000002123
        },
        {
          "name": "A5",
          "midi": 81,
          "time": 302.22942750000453,
          "velocity": 0.7086614173228346,
          "duration": 0.19594575000002123
        },
        {
          "name": "B5",
          "midi": 83,
          "time": 302.4321300000046,
          "velocity": 0.7086614173228346,
          "duration": 0.19594575000002123
        },
        {
          "name": "F#5",
          "midi": 78,
          "time": 302.6348325000046,
          "velocity": 0.7086614173228346,
          "duration": 0.3986482500000079
        },
        {
          "name": "E5",
          "midi": 76,
          "time": 303.04023750000465,
          "velocity": 0.7086614173228346,
          "duration": 0.19594575000002123
        },
        {
          "name": "D5",
          "midi": 74,
          "time": 303.2429400000047,
          "velocity": 0.7086614173228346,
          "duration": 0.8040532499999813
        },
        {
          "name": "E5",
          "midi": 76,
          "time": 304.0537500000047,
          "velocity": 0.7086614173228346,
          "duration": 0.19594575000002123
        },
        {
          "name": "E5",
          "midi": 76,
          "time": 304.6618575000047,
          "velocity": 0.7086614173228346,
          "duration": 0.09459450000002789
        },
        {
          "name": "D5",
          "midi": 74,
          "time": 304.76320875000476,
          "velocity": 0.7086614173228346,
          "duration": 0.09459450000002789
        },
        {
          "name": "E5",
          "midi": 76,
          "time": 304.8645600000048,
          "velocity": 0.7086614173228346,
          "duration": 0.19594575000002123
        },
        {
          "name": "F#5",
          "midi": 78,
          "time": 305.06726250000486,
          "velocity": 0.7086614173228346,
          "duration": 0.3986482500000079
        },
        {
          "name": "A5",
          "midi": 81,
          "time": 305.4726675000049,
          "velocity": 0.7086614173228346,
          "duration": 0.3986482500000079
        },
        {
          "name": "A5",
          "midi": 81,
          "time": 305.8780725000049,
          "velocity": 0.7086614173228346,
          "duration": 0.19594575000002123
        },
        {
          "name": "F#5",
          "midi": 78,
          "time": 306.08077500000496,
          "velocity": 0.7086614173228346,
          "duration": 0.19594575000002123
        },
        {
          "name": "E5",
          "midi": 76,
          "time": 306.283477500005,
          "velocity": 0.7086614173228346,
          "duration": 0.19594575000002123
        },
        {
          "name": "F#5",
          "midi": 78,
          "time": 306.48618000000505,
          "velocity": 0.7086614173228346,
          "duration": 0.8040532499999813
        },
        {
          "name": "F#5",
          "midi": 78,
          "time": 307.29699000000505,
          "velocity": 0.7086614173228346,
          "duration": 0.19594575000002123
        },
        {
          "name": "E5",
          "midi": 76,
          "time": 307.4996925000051,
          "velocity": 0.7086614173228346,
          "duration": 0.19594575000002123
        },
        {
          "name": "D5",
          "midi": 74,
          "time": 307.70239500000514,
          "velocity": 0.7086614173228346,
          "duration": 0.3986482500000079
        },
        {
          "name": "E5",
          "midi": 76,
          "time": 308.10780000000517,
          "velocity": 0.7086614173228346,
          "duration": 0.19594575000002123
        },
        {
          "name": "F#5",
          "midi": 78,
          "time": 308.3105025000052,
          "velocity": 0.7086614173228346,
          "duration": 0.3986482500000079
        },
        {
          "name": "A5",
          "midi": 81,
          "time": 308.71590750000524,
          "velocity": 0.7086614173228346,
          "duration": 0.3986482500000079
        },
        {
          "name": "A5",
          "midi": 81,
          "time": 309.1213125000053,
          "velocity": 0.7086614173228346,
          "duration": 0.19594575000002123
        },
        {
          "name": "F#5",
          "midi": 78,
          "time": 309.3240150000053,
          "velocity": 0.7086614173228346,
          "duration": 0.19594575000002123
        },
        {
          "name": "E5",
          "midi": 76,
          "time": 309.52671750000536,
          "velocity": 0.7086614173228346,
          "duration": 0.19594575000002123
        },
        {
          "name": "F#5",
          "midi": 78,
          "time": 309.7294200000054,
          "velocity": 0.7086614173228346,
          "duration": 0.8040532499999813
        },
        {
          "name": "F#5",
          "midi": 78,
          "time": 310.5402300000054,
          "velocity": 0.7086614173228346,
          "duration": 0.19594575000002123
        },
        {
          "name": "D5",
          "midi": 74,
          "time": 310.5402300000054,
          "velocity": 0.7086614173228346,
          "duration": 0.19594575000002123
        },
        {
          "name": "C#5",
          "midi": 73,
          "time": 310.74293250000545,
          "velocity": 0.7086614173228346,
          "duration": 0.19594575000002123
        },
        {
          "name": "E5",
          "midi": 76,
          "time": 310.74293250000545,
          "velocity": 0.7086614173228346,
          "duration": 0.19594575000002123
        },
        {
          "name": "D5",
          "midi": 74,
          "time": 310.9456350000055,
          "velocity": 0.7086614173228346,
          "duration": 0.3986482500000079
        },
        {
          "name": "B4",
          "midi": 71,
          "time": 310.9456350000055,
          "velocity": 0.7086614173228346,
          "duration": 0.3986482500000079
        },
        {
          "name": "B5",
          "midi": 83,
          "time": 311.3510400000055,
          "velocity": 0.7086614173228346,
          "duration": 1.6148632499999849
        },
        {
          "name": "D5",
          "midi": 74,
          "time": 311.3510400000055,
          "velocity": 0.7086614173228346,
          "duration": 1.581079499999987
        },
        {
          "name": "D5",
          "midi": 74,
          "time": 312.97266000000553,
          "velocity": 0.7086614173228346,
          "duration": 0.19594575000002123
        },
        {
          "name": "D5",
          "midi": 74,
          "time": 313.1753625000056,
          "velocity": 0.7086614173228346,
          "duration": 0.19594575000002123
        },
        {
          "name": "D5",
          "midi": 74,
          "time": 313.3780650000056,
          "velocity": 0.7086614173228346,
          "duration": 0.19594575000002123
        },
        {
          "name": "D5",
          "midi": 74,
          "time": 313.58076750000566,
          "velocity": 0.7086614173228346,
          "duration": 0.19594575000002123
        },
        {
          "name": "E4",
          "midi": 64,
          "time": 313.7834700000057,
          "velocity": 0.7086614173228346,
          "duration": 0.3986482500009174
        },
        {
          "name": "B3",
          "midi": 59,
          "time": 314.18887500000665,
          "velocity": 0.7086614173228346,
          "duration": 0.19594575000002123
        },
        {
          "name": "A#3",
          "midi": 58,
          "time": 314.3915775000067,
          "velocity": 0.7086614173228346,
          "duration": 0.19594575000002123
        },
        {
          "name": "A#4",
          "midi": 70,
          "time": 314.59428000000673,
          "velocity": 0.7086614173228346,
          "duration": 3.236483249999992
        },
        {
          "name": "F#5",
          "midi": 78,
          "time": 317.83752000000675,
          "velocity": 0.7086614173228346,
          "duration": 0.6013507499999946
        },
        {
          "name": "F5",
          "midi": 77,
          "time": 318.44562750000676,
          "velocity": 0.7086614173228346,
          "duration": 0.19594575000002123
        },
        {
          "name": "E5",
          "midi": 76,
          "time": 318.6483300000068,
          "velocity": 0.7086614173228346,
          "duration": 0.19594575000002123
        },
        {
          "name": "E5",
          "midi": 76,
          "time": 318.85103250000685,
          "velocity": 0.7086614173228346,
          "duration": 0.19594575000002123
        },
        {
          "name": "E5",
          "midi": 76,
          "time": 319.0537350000069,
          "velocity": 0.7086614173228346,
          "duration": 0.19594575000002123
        },
        {
          "name": "E5",
          "midi": 76,
          "time": 319.25643750000694,
          "velocity": 0.7086614173228346,
          "duration": 0.19594575000002123
        },
        {
          "name": "E5",
          "midi": 76,
          "time": 319.459140000007,
          "velocity": 0.7086614173228346,
          "duration": 0.19594575000002123
        },
        {
          "name": "E5",
          "midi": 76,
          "time": 319.661842500007,
          "velocity": 0.7086614173228346,
          "duration": 0.19594575000002123
        },
        {
          "name": "E5",
          "midi": 76,
          "time": 319.86454500000707,
          "velocity": 0.7086614173228346,
          "duration": 0.19594575000002123
        },
        {
          "name": "E5",
          "midi": 76,
          "time": 320.0672475000071,
          "velocity": 0.7086614173228346,
          "duration": 0.19594575000002123
        },
        {
          "name": "E5",
          "midi": 76,
          "time": 320.26995000000716,
          "velocity": 0.7086614173228346,
          "duration": 0.12837825000002567
        },
        {
          "name": "D5",
          "midi": 74,
          "time": 320.4050850000072,
          "velocity": 0.7086614173228346,
          "duration": 0.12837825000002567
        },
        {
          "name": "B4",
          "midi": 71,
          "time": 320.54022000000725,
          "velocity": 0.7086614173228346,
          "duration": 0.12837825000002567
        },
        {
          "name": "E5",
          "midi": 76,
          "time": 320.6753550000073,
          "velocity": 0.7086614173228346,
          "duration": 0.19594575000002123
        },
        {
          "name": "D#5",
          "midi": 75,
          "time": 320.87805750000734,
          "velocity": 0.7086614173228346,
          "duration": 0.19594575000002123
        },
        {
          "name": "B4",
          "midi": 71,
          "time": 321.0807600000074,
          "velocity": 0.7086614173228346,
          "duration": 0.8040532499999813
        },
        {
          "name": "A4",
          "midi": 69,
          "time": 321.8915700000074,
          "velocity": 0.7086614173228346,
          "duration": 0.19594575000002123
        },
        {
          "name": "F#4",
          "midi": 66,
          "time": 322.09427250000743,
          "velocity": 0.7086614173228346,
          "duration": 0.19594575000002123
        },
        {
          "name": "E4",
          "midi": 64,
          "time": 322.2969750000075,
          "velocity": 0.7086614173228346,
          "duration": 0.19594575000002123
        },
        {
          "name": "D4",
          "midi": 62,
          "time": 322.4996775000075,
          "velocity": 0.7086614173228346,
          "duration": 0.19594575000002123
        },
        {
          "name": "E4",
          "midi": 64,
          "time": 322.70238000000757,
          "velocity": 0.7086614173228346,
          "duration": 0.19594575000002123
        },
        {
          "name": "F#4",
          "midi": 66,
          "time": 322.9050825000076,
          "velocity": 0.7086614173228346,
          "duration": 0.19594575000002123
        },
        {
          "name": "A4",
          "midi": 69,
          "time": 323.10778500000765,
          "velocity": 0.7086614173228346,
          "duration": 0.6013507499999946
        },
        {
          "name": "D4",
          "midi": 62,
          "time": 323.71589250000767,
          "velocity": 0.7086614173228346,
          "duration": 0.19594575000002123
        },
        {
          "name": "E4",
          "midi": 64,
          "time": 323.9185950000077,
          "velocity": 0.7086614173228346,
          "duration": 0.19594575000002123
        },
        {
          "name": "A4",
          "midi": 69,
          "time": 323.9185950000077,
          "velocity": 0.7086614173228346,
          "duration": 0.19594575000002123
        },
        {
          "name": "B4",
          "midi": 71,
          "time": 324.12129750000776,
          "velocity": 0.7086614173228346,
          "duration": 0.19594575000002123
        },
        {
          "name": "F#4",
          "midi": 66,
          "time": 324.12129750000776,
          "velocity": 0.7086614173228346,
          "duration": 0.19594575000002123
        },
        {
          "name": "B4",
          "midi": 71,
          "time": 324.3240000000078,
          "velocity": 0.7086614173228346,
          "duration": 0.19594575000002123
        },
        {
          "name": "D5",
          "midi": 74,
          "time": 324.3240000000078,
          "velocity": 0.7086614173228346,
          "duration": 0.19594575000002123
        },
        {
          "name": "F#4",
          "midi": 66,
          "time": 324.52670250000784,
          "velocity": 0.7086614173228346,
          "duration": 0.19594575000002123
        },
        {
          "name": "A4",
          "midi": 69,
          "time": 324.52670250000784,
          "velocity": 0.7086614173228346,
          "duration": 0.19594575000002123
        },
        {
          "name": "C#5",
          "midi": 73,
          "time": 324.7294050000079,
          "velocity": 0.7086614173228346,
          "duration": 0.19594575000002123
        },
        {
          "name": "A4",
          "midi": 69,
          "time": 324.7294050000079,
          "velocity": 0.7086614173228346,
          "duration": 0.19594575000002123
        },
        {
          "name": "E4",
          "midi": 64,
          "time": 324.93210750000793,
          "velocity": 0.7086614173228346,
          "duration": 0.19594575000002123
        },
        {
          "name": "G4",
          "midi": 67,
          "time": 324.93210750000793,
          "velocity": 0.7086614173228346,
          "duration": 0.19594575000002123
        },
        {
          "name": "B4",
          "midi": 71,
          "time": 325.134810000008,
          "velocity": 0.7086614173228346,
          "duration": 0.19594575000002123
        },
        {
          "name": "F#4",
          "midi": 66,
          "time": 325.134810000008,
          "velocity": 0.7086614173228346,
          "duration": 0.19594575000002123
        },
        {
          "name": "F#4",
          "midi": 66,
          "time": 325.337512500008,
          "velocity": 0.7086614173228346,
          "duration": 0.19594575000002123
        },
        {
          "name": "D4",
          "midi": 62,
          "time": 325.337512500008,
          "velocity": 0.7086614173228346,
          "duration": 0.19594575000002123
        },
        {
          "name": "A4",
          "midi": 69,
          "time": 325.54021500000806,
          "velocity": 0.7086614173228346,
          "duration": 0.19594575000002123
        },
        {
          "name": "E4",
          "midi": 64,
          "time": 325.54021500000806,
          "velocity": 0.7086614173228346,
          "duration": 0.19594575000002123
        },
        {
          "name": "E4",
          "midi": 64,
          "time": 325.7429175000081,
          "velocity": 0.7086614173228346,
          "duration": 0.19594575000002123
        },
        {
          "name": "B3",
          "midi": 59,
          "time": 325.7429175000081,
          "velocity": 0.7086614173228346,
          "duration": 0.19594575000002123
        },
        {
          "name": "G4",
          "midi": 67,
          "time": 325.94562000000815,
          "velocity": 0.7086614173228346,
          "duration": 0.19594575000002123
        },
        {
          "name": "D4",
          "midi": 62,
          "time": 325.94562000000815,
          "velocity": 0.7086614173228346,
          "duration": 0.19594575000002123
        },
        {
          "name": "A3",
          "midi": 57,
          "time": 326.1483225000082,
          "velocity": 0.7086614173228346,
          "duration": 0.19594575000002123
        },
        {
          "name": "F#3",
          "midi": 54,
          "time": 326.1483225000082,
          "velocity": 0.7086614173228346,
          "duration": 0.19594575000002123
        },
        {
          "name": "D4",
          "midi": 62,
          "time": 326.35102500000824,
          "velocity": 0.7086614173228346,
          "duration": 0.19594575000002123
        },
        {
          "name": "A3",
          "midi": 57,
          "time": 326.35102500000824,
          "velocity": 0.7086614173228346,
          "duration": 0.19594575000002123
        },
        {
          "name": "A3",
          "midi": 57,
          "time": 326.5537275000083,
          "velocity": 0.7086614173228346,
          "duration": 0.19594575000002123
        },
        {
          "name": "F#3",
          "midi": 54,
          "time": 326.5537275000083,
          "velocity": 0.7086614173228346,
          "duration": 0.19594575000002123
        },
        {
          "name": "G3",
          "midi": 55,
          "time": 326.7564300000083,
          "velocity": 0.7086614173228346,
          "duration": 0.19594575000002123
        },
        {
          "name": "E3",
          "midi": 52,
          "time": 326.7564300000083,
          "velocity": 0.7086614173228346,
          "duration": 0.19594575000002123
        },
        {
          "name": "F#3",
          "midi": 54,
          "time": 326.95913250000837,
          "velocity": 0.7086614173228346,
          "duration": 0.19594575000002123
        },
        {
          "name": "D3",
          "midi": 50,
          "time": 326.95913250000837,
          "velocity": 0.7086614173228346,
          "duration": 0.19594575000002123
        },
        {
          "name": "G3",
          "midi": 55,
          "time": 327.1618350000084,
          "velocity": 0.7086614173228346,
          "duration": 0.19594575000002123
        },
        {
          "name": "E3",
          "midi": 52,
          "time": 327.1618350000084,
          "velocity": 0.7086614173228346,
          "duration": 0.19594575000002123
        },
        {
          "name": "A3",
          "midi": 57,
          "time": 327.36453750000845,
          "velocity": 0.7086614173228346,
          "duration": 0.19594575000002123
        },
        {
          "name": "F#3",
          "midi": 54,
          "time": 327.36453750000845,
          "velocity": 0.7086614173228346,
          "duration": 0.19594575000002123
        },
        {
          "name": "A3",
          "midi": 57,
          "time": 327.5672400000085,
          "velocity": 0.7086614173228346,
          "duration": 0.3986482500000079
        },
        {
          "name": "F#5",
          "midi": 78,
          "time": 327.9726450000085,
          "velocity": 0.7086614173228346,
          "duration": 0.3986482500000079
        },
        {
          "name": "B4",
          "midi": 71,
          "time": 327.9726450000085,
          "velocity": 0.7086614173228346,
          "duration": 0.3986482500000079
        },
        {
          "name": "E5",
          "midi": 76,
          "time": 328.37805000000856,
          "velocity": 0.7086614173228346,
          "duration": 0.19594575000002123
        },
        {
          "name": "A4",
          "midi": 69,
          "time": 328.37805000000856,
          "velocity": 0.7086614173228346,
          "duration": 0.19594575000002123
        },
        {
          "name": "D5",
          "midi": 74,
          "time": 328.5807525000086,
          "velocity": 0.7086614173228346,
          "duration": 0.19594575000002123
        },
        {
          "name": "F#4",
          "midi": 66,
          "time": 328.5807525000086,
          "velocity": 0.7086614173228346,
          "duration": 0.19594575000002123
        },
        {
          "name": "A4",
          "midi": 69,
          "time": 328.78345500000864,
          "velocity": 0.7086614173228346,
          "duration": 0.19594575000002123
        },
        {
          "name": "F#4",
          "midi": 66,
          "time": 328.78345500000864,
          "velocity": 0.7086614173228346,
          "duration": 0.19594575000002123
        },
        {
          "name": "G4",
          "midi": 67,
          "time": 328.9861575000087,
          "velocity": 0.7086614173228346,
          "duration": 0.19594575000002123
        },
        {
          "name": "E4",
          "midi": 64,
          "time": 328.9861575000087,
          "velocity": 0.7086614173228346,
          "duration": 0.19594575000002123
        },
        {
          "name": "F#4",
          "midi": 66,
          "time": 329.18886000000873,
          "velocity": 0.7086614173228346,
          "duration": 1.2094582500000115
        },
        {
          "name": "D4",
          "midi": 62,
          "time": 329.18886000000873,
          "velocity": 0.7086614173228346,
          "duration": 1.2094582500000115
        },
        {
          "name": "F#4",
          "midi": 66,
          "time": 330.40507500000876,
          "velocity": 0.7086614173228346,
          "duration": 0.3986482500000079
        },
        {
          "name": "D4",
          "midi": 62,
          "time": 330.40507500000876,
          "velocity": 0.7086614173228346,
          "duration": 0.3986482500000079
        },
        {
          "name": "G4",
          "midi": 67,
          "time": 330.8104800000088,
          "velocity": 0.7086614173228346,
          "duration": 1.2094582500000115
        },
        {
          "name": "E4",
          "midi": 64,
          "time": 330.8104800000088,
          "velocity": 0.7086614173228346,
          "duration": 1.2094582500000115
        },
        {
          "name": "G4",
          "midi": 67,
          "time": 332.02669500000883,
          "velocity": 0.7086614173228346,
          "duration": 0.3986482500000079
        },
        {
          "name": "E4",
          "midi": 64,
          "time": 332.02669500000883,
          "velocity": 0.7086614173228346,
          "duration": 0.3986482500000079
        },
        {
          "name": "A4",
          "midi": 69,
          "time": 332.43210000000886,
          "velocity": 0.7086614173228346,
          "duration": 0.8040532499999813
        },
        {
          "name": "F#4",
          "midi": 66,
          "time": 332.43210000000886,
          "velocity": 0.7086614173228346,
          "duration": 0.8040532499999813
        },
        {
          "name": "B4",
          "midi": 71,
          "time": 333.24291000000886,
          "velocity": 0.7086614173228346,
          "duration": 0.8040532499999813
        },
        {
          "name": "G4",
          "midi": 67,
          "time": 333.24291000000886,
          "velocity": 0.7086614173228346,
          "duration": 0.8040532499999813
        },
        {
          "name": "A#4",
          "midi": 70,
          "time": 334.05372000000887,
          "velocity": 0.7086614173228346,
          "duration": 1.2094582500000115
        },
        {
          "name": "F#4",
          "midi": 66,
          "time": 334.05372000000887,
          "velocity": 0.7086614173228346,
          "duration": 1.2094582500000115
        },
        {
          "name": "A#4",
          "midi": 70,
          "time": 335.2699350000089,
          "velocity": 0.7086614173228346,
          "duration": 0.3986482500000079
        },
        {
          "name": "C#5",
          "midi": 73,
          "time": 335.2699350000089,
          "velocity": 0.7086614173228346,
          "duration": 0.3986482500000079
        },
        {
          "name": "D5",
          "midi": 74,
          "time": 335.67534000000893,
          "velocity": 0.7086614173228346,
          "duration": 0.8040532499999813
        },
        {
          "name": "B4",
          "midi": 71,
          "time": 335.67534000000893,
          "velocity": 0.7086614173228346,
          "duration": 0.8040532499999813
        },
        {
          "name": "E5",
          "midi": 76,
          "time": 336.48615000000893,
          "velocity": 0.7086614173228346,
          "duration": 0.8040532499999813
        },
        {
          "name": "C#5",
          "midi": 73,
          "time": 336.48615000000893,
          "velocity": 0.7086614173228346,
          "duration": 0.8040532499999813
        },
        {
          "name": "F#5",
          "midi": 78,
          "time": 337.29696000000894,
          "velocity": 0.7086614173228346,
          "duration": 0.19594575000002123
        },
        {
          "name": "D5",
          "midi": 74,
          "time": 337.29696000000894,
          "velocity": 0.7086614173228346,
          "duration": 0.19594575000002123
        },
        {
          "name": "D5",
          "midi": 74,
          "time": 337.499662500009,
          "velocity": 0.7086614173228346,
          "duration": 0.19594575000002123
        },
        {
          "name": "B4",
          "midi": 71,
          "time": 337.499662500009,
          "velocity": 0.7086614173228346,
          "duration": 0.19594575000002123
        },
        {
          "name": "B4",
          "midi": 71,
          "time": 337.702365000009,
          "velocity": 0.7086614173228346,
          "duration": 0.19594575000002123
        },
        {
          "name": "F#4",
          "midi": 66,
          "time": 337.702365000009,
          "velocity": 0.7086614173228346,
          "duration": 0.19594575000002123
        },
        {
          "name": "F#5",
          "midi": 78,
          "time": 337.90506750000907,
          "velocity": 0.7086614173228346,
          "duration": 0.19594575000002123
        },
        {
          "name": "D5",
          "midi": 74,
          "time": 337.90506750000907,
          "velocity": 0.7086614173228346,
          "duration": 0.19594575000002123
        },
        {
          "name": "D5",
          "midi": 74,
          "time": 338.1077700000091,
          "velocity": 0.7086614173228346,
          "duration": 0.19594575000002123
        },
        {
          "name": "B4",
          "midi": 71,
          "time": 338.1077700000091,
          "velocity": 0.7086614173228346,
          "duration": 0.19594575000002123
        },
        {
          "name": "B4",
          "midi": 71,
          "time": 338.31047250000915,
          "velocity": 0.7086614173228346,
          "duration": 0.19594575000002123
        },
        {
          "name": "F#4",
          "midi": 66,
          "time": 338.31047250000915,
          "velocity": 0.7086614173228346,
          "duration": 0.19594575000002123
        },
        {
          "name": "F#5",
          "midi": 78,
          "time": 338.5131750000092,
          "velocity": 0.7086614173228346,
          "duration": 0.19594575000002123
        },
        {
          "name": "D5",
          "midi": 74,
          "time": 338.5131750000092,
          "velocity": 0.7086614173228346,
          "duration": 0.19594575000002123
        },
        {
          "name": "D5",
          "midi": 74,
          "time": 338.71587750000924,
          "velocity": 0.7086614173228346,
          "duration": 0.19594575000002123
        },
        {
          "name": "B4",
          "midi": 71,
          "time": 338.71587750000924,
          "velocity": 0.7086614173228346,
          "duration": 0.19594575000002123
        },
        {
          "name": "B4",
          "midi": 71,
          "time": 338.9185800000093,
          "velocity": 0.7086614173228346,
          "duration": 0.19594575000002123
        },
        {
          "name": "F#4",
          "midi": 66,
          "time": 338.9185800000093,
          "velocity": 0.7086614173228346,
          "duration": 0.19594575000002123
        },
        {
          "name": "F#5",
          "midi": 78,
          "time": 339.12128250000933,
          "velocity": 0.7086614173228346,
          "duration": 0.19594575000002123
        },
        {
          "name": "D5",
          "midi": 74,
          "time": 339.12128250000933,
          "velocity": 0.7086614173228346,
          "duration": 0.19594575000002123
        },
        {
          "name": "B4",
          "midi": 71,
          "time": 339.3239850000094,
          "velocity": 0.7086614173228346,
          "duration": 0.19594575000002123
        },
        {
          "name": "D5",
          "midi": 74,
          "time": 339.3239850000094,
          "velocity": 0.7086614173228346,
          "duration": 0.19594575000002123
        },
        {
          "name": "B4",
          "midi": 71,
          "time": 339.5266875000094,
          "velocity": 0.7086614173228346,
          "duration": 0.19594575000002123
        },
        {
          "name": "F#4",
          "midi": 66,
          "time": 339.5266875000094,
          "velocity": 0.7086614173228346,
          "duration": 0.19594575000002123
        },
        {
          "name": "D5",
          "midi": 74,
          "time": 339.72939000000946,
          "velocity": 0.7086614173228346,
          "duration": 0.19594575000002123
        },
        {
          "name": "F#5",
          "midi": 78,
          "time": 339.72939000000946,
          "velocity": 0.7086614173228346,
          "duration": 0.19594575000002123
        },
        {
          "name": "B4",
          "midi": 71,
          "time": 339.9320925000095,
          "velocity": 0.7086614173228346,
          "duration": 0.19594575000002123
        },
        {
          "name": "D5",
          "midi": 74,
          "time": 339.9320925000095,
          "velocity": 0.7086614173228346,
          "duration": 0.19594575000002123
        },
        {
          "name": "B4",
          "midi": 71,
          "time": 340.13479500000955,
          "velocity": 0.7086614173228346,
          "duration": 0.3986482500000079
        },
        {
          "name": "F#4",
          "midi": 66,
          "time": 340.13479500000955,
          "velocity": 0.7086614173228346,
          "duration": 0.3986482500000079
        },
        {
          "name": "C#5",
          "midi": 73,
          "time": 340.5402000000096,
          "velocity": 0.7086614173228346,
          "duration": 0.19594575000002123
        },
        {
          "name": "E5",
          "midi": 76,
          "time": 340.5402000000096,
          "velocity": 0.7086614173228346,
          "duration": 0.19594575000002123
        },
        {
          "name": "A#4",
          "midi": 70,
          "time": 340.7429025000096,
          "velocity": 0.7086614173228346,
          "duration": 0.19594575000002123
        },
        {
          "name": "C#5",
          "midi": 73,
          "time": 340.7429025000096,
          "velocity": 0.7086614173228346,
          "duration": 0.19594575000002123
        },
        {
          "name": "A#4",
          "midi": 70,
          "time": 340.94560500000966,
          "velocity": 0.7086614173228346,
          "duration": 0.19594575000002123
        },
        {
          "name": "F#4",
          "midi": 66,
          "time": 340.94560500000966,
          "velocity": 0.7086614173228346,
          "duration": 0.19594575000002123
        },
        {
          "name": "C#5",
          "midi": 73,
          "time": 341.1483075000097,
          "velocity": 0.7086614173228346,
          "duration": 0.19594575000002123
        },
        {
          "name": "E5",
          "midi": 76,
          "time": 341.1483075000097,
          "velocity": 0.7086614173228346,
          "duration": 0.19594575000002123
        },
        {
          "name": "A#4",
          "midi": 70,
          "time": 341.35101000000975,
          "velocity": 0.7086614173228346,
          "duration": 0.19594575000002123
        },
        {
          "name": "C#5",
          "midi": 73,
          "time": 341.35101000000975,
          "velocity": 0.7086614173228346,
          "duration": 0.19594575000002123
        },
        {
          "name": "A#4",
          "midi": 70,
          "time": 341.5537125000098,
          "velocity": 0.7086614173228346,
          "duration": 0.19594575000002123
        },
        {
          "name": "F#4",
          "midi": 66,
          "time": 341.5537125000098,
          "velocity": 0.7086614173228346,
          "duration": 0.19594575000002123
        },
        {
          "name": "C#5",
          "midi": 73,
          "time": 341.75641500000984,
          "velocity": 0.7086614173228346,
          "duration": 0.19594575000002123
        },
        {
          "name": "E5",
          "midi": 76,
          "time": 341.75641500000984,
          "velocity": 0.7086614173228346,
          "duration": 0.19594575000002123
        },
        {
          "name": "A#4",
          "midi": 70,
          "time": 341.9591175000099,
          "velocity": 0.7086614173228346,
          "duration": 0.19594575000002123
        },
        {
          "name": "C#5",
          "midi": 73,
          "time": 341.9591175000099,
          "velocity": 0.7086614173228346,
          "duration": 0.19594575000002123
        },
        {
          "name": "A#5",
          "midi": 82,
          "time": 342.1618200000099,
          "velocity": 0.7086614173228346,
          "duration": 1.6148632499999849
        },
        {
          "name": "F#5",
          "midi": 78,
          "time": 342.1618200000099,
          "velocity": 0.7086614173228346,
          "duration": 1.6148632499999849
        },
        {
          "name": "C#5",
          "midi": 73,
          "time": 343.78344000000993,
          "velocity": 0.7086614173228346,
          "duration": 0.19594575000002123
        },
        {
          "name": "E5",
          "midi": 76,
          "time": 343.78344000000993,
          "velocity": 0.7086614173228346,
          "duration": 0.19594575000002123
        },
        {
          "name": "C#5",
          "midi": 73,
          "time": 343.98614250001,
          "velocity": 0.7086614173228346,
          "duration": 0.19594575000002123
        },
        {
          "name": "A4",
          "midi": 69,
          "time": 343.98614250001,
          "velocity": 0.7086614173228346,
          "duration": 0.19594575000002123
        },
        {
          "name": "A4",
          "midi": 69,
          "time": 344.18884500001,
          "velocity": 0.7086614173228346,
          "duration": 0.19594575000002123
        },
        {
          "name": "E4",
          "midi": 64,
          "time": 344.18884500001,
          "velocity": 0.7086614173228346,
          "duration": 0.19594575000002123
        },
        {
          "name": "E5",
          "midi": 76,
          "time": 344.39154750001006,
          "velocity": 0.7086614173228346,
          "duration": 0.19594575000002123
        },
        {
          "name": "C#5",
          "midi": 73,
          "time": 344.39154750001006,
          "velocity": 0.7086614173228346,
          "duration": 0.19594575000002123
        },
        {
          "name": "C#5",
          "midi": 73,
          "time": 344.5942500000101,
          "velocity": 0.7086614173228346,
          "duration": 0.19594575000002123
        },
        {
          "name": "A4",
          "midi": 69,
          "time": 344.5942500000101,
          "velocity": 0.7086614173228346,
          "duration": 0.19594575000002123
        },
        {
          "name": "A4",
          "midi": 69,
          "time": 344.79695250001015,
          "velocity": 0.7086614173228346,
          "duration": 0.19594575000002123
        },
        {
          "name": "E4",
          "midi": 64,
          "time": 344.79695250001015,
          "velocity": 0.7086614173228346,
          "duration": 0.19594575000002123
        },
        {
          "name": "E5",
          "midi": 76,
          "time": 344.9996550000102,
          "velocity": 0.7086614173228346,
          "duration": 0.19594575000002123
        },
        {
          "name": "C#5",
          "midi": 73,
          "time": 344.9996550000102,
          "velocity": 0.7086614173228346,
          "duration": 0.19594575000002123
        },
        {
          "name": "C#5",
          "midi": 73,
          "time": 345.20235750001024,
          "velocity": 0.7086614173228346,
          "duration": 0.19594575000002123
        },
        {
          "name": "A4",
          "midi": 69,
          "time": 345.20235750001024,
          "velocity": 0.7086614173228346,
          "duration": 0.19594575000002123
        },
        {
          "name": "A4",
          "midi": 69,
          "time": 345.4050600000103,
          "velocity": 0.7086614173228346,
          "duration": 0.19594575000002123
        },
        {
          "name": "E4",
          "midi": 64,
          "time": 345.4050600000103,
          "velocity": 0.7086614173228346,
          "duration": 0.19594575000002123
        },
        {
          "name": "E5",
          "midi": 76,
          "time": 345.6077625000103,
          "velocity": 0.7086614173228346,
          "duration": 0.19594575000002123
        },
        {
          "name": "C#5",
          "midi": 73,
          "time": 345.6077625000103,
          "velocity": 0.7086614173228346,
          "duration": 0.19594575000002123
        },
        {
          "name": "C#5",
          "midi": 73,
          "time": 345.81046500001037,
          "velocity": 0.7086614173228346,
          "duration": 0.19594575000002123
        },
        {
          "name": "A4",
          "midi": 69,
          "time": 345.81046500001037,
          "velocity": 0.7086614173228346,
          "duration": 0.19594575000002123
        },
        {
          "name": "A4",
          "midi": 69,
          "time": 346.0131675000104,
          "velocity": 0.7086614173228346,
          "duration": 0.19594575000002123
        },
        {
          "name": "E4",
          "midi": 64,
          "time": 346.0131675000104,
          "velocity": 0.7086614173228346,
          "duration": 0.19594575000002123
        },
        {
          "name": "E5",
          "midi": 76,
          "time": 346.21587000001045,
          "velocity": 0.7086614173228346,
          "duration": 0.19594575000002123
        },
        {
          "name": "C#5",
          "midi": 73,
          "time": 346.21587000001045,
          "velocity": 0.7086614173228346,
          "duration": 0.19594575000002123
        },
        {
          "name": "A4",
          "midi": 69,
          "time": 346.4185725000105,
          "velocity": 0.7086614173228346,
          "duration": 0.19594575000002123
        },
        {
          "name": "C#5",
          "midi": 73,
          "time": 346.4185725000105,
          "velocity": 0.7086614173228346,
          "duration": 0.19594575000002123
        },
        {
          "name": "A4",
          "midi": 69,
          "time": 346.62127500001054,
          "velocity": 0.7086614173228346,
          "duration": 0.3986482500000079
        },
        {
          "name": "E4",
          "midi": 64,
          "time": 346.62127500001054,
          "velocity": 0.7086614173228346,
          "duration": 0.3986482500000079
        },
        {
          "name": "D5",
          "midi": 74,
          "time": 347.0266800000106,
          "velocity": 0.7086614173228346,
          "duration": 0.19594575000002123
        },
        {
          "name": "B4",
          "midi": 71,
          "time": 347.0266800000106,
          "velocity": 0.7086614173228346,
          "duration": 0.19594575000002123
        },
        {
          "name": "B4",
          "midi": 71,
          "time": 347.2293825000106,
          "velocity": 0.7086614173228346,
          "duration": 0.19594575000002123
        },
        {
          "name": "G#4",
          "midi": 68,
          "time": 347.2293825000106,
          "velocity": 0.7086614173228346,
          "duration": 0.19594575000002123
        },
        {
          "name": "G#4",
          "midi": 68,
          "time": 347.43208500001066,
          "velocity": 0.7086614173228346,
          "duration": 0.19594575000002123
        },
        {
          "name": "E4",
          "midi": 64,
          "time": 347.43208500001066,
          "velocity": 0.7086614173228346,
          "duration": 0.19594575000002123
        },
        {
          "name": "D5",
          "midi": 74,
          "time": 347.6347875000107,
          "velocity": 0.7086614173228346,
          "duration": 0.19594575000002123
        },
        {
          "name": "B4",
          "midi": 71,
          "time": 347.6347875000107,
          "velocity": 0.7086614173228346,
          "duration": 0.19594575000002123
        },
        {
          "name": "B4",
          "midi": 71,
          "time": 347.83749000001075,
          "velocity": 0.7086614173228346,
          "duration": 0.19594575000002123
        },
        {
          "name": "G#4",
          "midi": 68,
          "time": 347.83749000001075,
          "velocity": 0.7086614173228346,
          "duration": 0.19594575000002123
        },
        {
          "name": "G#4",
          "midi": 68,
          "time": 348.0401925000108,
          "velocity": 0.7086614173228346,
          "duration": 0.19594575000002123
        },
        {
          "name": "E4",
          "midi": 64,
          "time": 348.0401925000108,
          "velocity": 0.7086614173228346,
          "duration": 0.19594575000002123
        },
        {
          "name": "D5",
          "midi": 74,
          "time": 348.24289500001083,
          "velocity": 0.7086614173228346,
          "duration": 0.19594575000002123
        },
        {
          "name": "B4",
          "midi": 71,
          "time": 348.24289500001083,
          "velocity": 0.7086614173228346,
          "duration": 0.19594575000002123
        },
        {
          "name": "B4",
          "midi": 71,
          "time": 348.4455975000109,
          "velocity": 0.7086614173228346,
          "duration": 0.19594575000002123
        },
        {
          "name": "G#4",
          "midi": 68,
          "time": 348.4455975000109,
          "velocity": 0.7086614173228346,
          "duration": 0.19594575000002123
        },
        {
          "name": "G#5",
          "midi": 80,
          "time": 348.6483000000109,
          "velocity": 0.7086614173228346,
          "duration": 1.6148632499999849
        },
        {
          "name": "E5",
          "midi": 76,
          "time": 348.6483000000109,
          "velocity": 0.7086614173228346,
          "duration": 1.6148632499999849
        },
        {
          "name": "D5",
          "midi": 74,
          "time": 350.2699200000109,
          "velocity": 0.7086614173228346,
          "duration": 0.19594575000002123
        },
        {
          "name": "B4",
          "midi": 71,
          "time": 350.2699200000109,
          "velocity": 0.7086614173228346,
          "duration": 0.19594575000002123
        },
        {
          "name": "B4",
          "midi": 71,
          "time": 350.47262250001097,
          "velocity": 0.7086614173228346,
          "duration": 0.19594575000002123
        },
        {
          "name": "G4",
          "midi": 67,
          "time": 350.47262250001097,
          "velocity": 0.7086614173228346,
          "duration": 0.19594575000002123
        },
        {
          "name": "D4",
          "midi": 62,
          "time": 350.675325000011,
          "velocity": 0.7086614173228346,
          "duration": 0.19594575000002123
        },
        {
          "name": "G4",
          "midi": 67,
          "time": 350.675325000011,
          "velocity": 0.7086614173228346,
          "duration": 0.19594575000002123
        },
        {
          "name": "D5",
          "midi": 74,
          "time": 350.87802750001106,
          "velocity": 0.7086614173228346,
          "duration": 0.19594575000002123
        },
        {
          "name": "B4",
          "midi": 71,
          "time": 350.87802750001106,
          "velocity": 0.7086614173228346,
          "duration": 0.19594575000002123
        },
        {
          "name": "B4",
          "midi": 71,
          "time": 351.0807300000111,
          "velocity": 0.7086614173228346,
          "duration": 0.19594575000002123
        },
        {
          "name": "G4",
          "midi": 67,
          "time": 351.0807300000111,
          "velocity": 0.7086614173228346,
          "duration": 0.19594575000002123
        },
        {
          "name": "G4",
          "midi": 67,
          "time": 351.28343250001114,
          "velocity": 0.7086614173228346,
          "duration": 0.19594575000002123
        },
        {
          "name": "D4",
          "midi": 62,
          "time": 351.28343250001114,
          "velocity": 0.7086614173228346,
          "duration": 0.19594575000002123
        },
        {
          "name": "D5",
          "midi": 74,
          "time": 351.4861350000112,
          "velocity": 0.7086614173228346,
          "duration": 0.19594575000002123
        },
        {
          "name": "B4",
          "midi": 71,
          "time": 351.4861350000112,
          "velocity": 0.7086614173228346,
          "duration": 0.19594575000002123
        },
        {
          "name": "B4",
          "midi": 71,
          "time": 351.68883750001123,
          "velocity": 0.7086614173228346,
          "duration": 0.19594575000002123
        },
        {
          "name": "G4",
          "midi": 67,
          "time": 351.68883750001123,
          "velocity": 0.7086614173228346,
          "duration": 0.19594575000002123
        },
        {
          "name": "G4",
          "midi": 67,
          "time": 351.8915400000113,
          "velocity": 0.7086614173228346,
          "duration": 0.19594575000002123
        },
        {
          "name": "D4",
          "midi": 62,
          "time": 351.8915400000113,
          "velocity": 0.7086614173228346,
          "duration": 0.19594575000002123
        },
        {
          "name": "D5",
          "midi": 74,
          "time": 352.0942425000113,
          "velocity": 0.7086614173228346,
          "duration": 0.19594575000002123
        },
        {
          "name": "B4",
          "midi": 71,
          "time": 352.0942425000113,
          "velocity": 0.7086614173228346,
          "duration": 0.19594575000002123
        },
        {
          "name": "B4",
          "midi": 71,
          "time": 352.29694500001136,
          "velocity": 0.7086614173228346,
          "duration": 0.19594575000002123
        },
        {
          "name": "G4",
          "midi": 67,
          "time": 352.29694500001136,
          "velocity": 0.7086614173228346,
          "duration": 0.19594575000002123
        },
        {
          "name": "G4",
          "midi": 67,
          "time": 352.4996475000114,
          "velocity": 0.7086614173228346,
          "duration": 0.19594575000002123
        },
        {
          "name": "D4",
          "midi": 62,
          "time": 352.4996475000114,
          "velocity": 0.7086614173228346,
          "duration": 0.19594575000002123
        },
        {
          "name": "D5",
          "midi": 74,
          "time": 352.70235000001145,
          "velocity": 0.7086614173228346,
          "duration": 0.19594575000002123
        },
        {
          "name": "B4",
          "midi": 71,
          "time": 352.70235000001145,
          "velocity": 0.7086614173228346,
          "duration": 0.19594575000002123
        },
        {
          "name": "B4",
          "midi": 71,
          "time": 352.9050525000115,
          "velocity": 0.7086614173228346,
          "duration": 0.19594575000002123
        },
        {
          "name": "G4",
          "midi": 67,
          "time": 352.9050525000115,
          "velocity": 0.7086614173228346,
          "duration": 0.19594575000002123
        },
        {
          "name": "G4",
          "midi": 67,
          "time": 353.10775500001154,
          "velocity": 0.7086614173228346,
          "duration": 0.3986482500000079
        },
        {
          "name": "D4",
          "midi": 62,
          "time": 353.10775500001154,
          "velocity": 0.7086614173228346,
          "duration": 0.3986482500000079
        },
        {
          "name": "A4",
          "midi": 69,
          "time": 353.51316000001157,
          "velocity": 0.7086614173228346,
          "duration": 0.19594575000002123
        },
        {
          "name": "D5",
          "midi": 74,
          "time": 353.51316000001157,
          "velocity": 0.7086614173228346,
          "duration": 0.19594575000002123
        },
        {
          "name": "A4",
          "midi": 69,
          "time": 353.7158625000116,
          "velocity": 0.7086614173228346,
          "duration": 0.19594575000002123
        },
        {
          "name": "F#4",
          "midi": 66,
          "time": 353.7158625000116,
          "velocity": 0.7086614173228346,
          "duration": 0.19594575000002123
        },
        {
          "name": "D4",
          "midi": 62,
          "time": 353.91856500001165,
          "velocity": 0.7086614173228346,
          "duration": 0.19594575000002123
        },
        {
          "name": "F#4",
          "midi": 66,
          "time": 353.91856500001165,
          "velocity": 0.7086614173228346,
          "duration": 0.19594575000002123
        },
        {
          "name": "A4",
          "midi": 69,
          "time": 354.1212675000117,
          "velocity": 0.7086614173228346,
          "duration": 0.19594575000002123
        },
        {
          "name": "D5",
          "midi": 74,
          "time": 354.1212675000117,
          "velocity": 0.7086614173228346,
          "duration": 0.19594575000002123
        },
        {
          "name": "A4",
          "midi": 69,
          "time": 354.32397000001174,
          "velocity": 0.7086614173228346,
          "duration": 0.19594575000002123
        },
        {
          "name": "F#4",
          "midi": 66,
          "time": 354.32397000001174,
          "velocity": 0.7086614173228346,
          "duration": 0.19594575000002123
        },
        {
          "name": "D4",
          "midi": 62,
          "time": 354.5266725000118,
          "velocity": 0.7086614173228346,
          "duration": 0.19594575000002123
        },
        {
          "name": "F#4",
          "midi": 66,
          "time": 354.5266725000118,
          "velocity": 0.7086614173228346,
          "duration": 0.19594575000002123
        },
        {
          "name": "A4",
          "midi": 69,
          "time": 354.7293750000118,
          "velocity": 0.7086614173228346,
          "duration": 0.19594575000002123
        },
        {
          "name": "D5",
          "midi": 74,
          "time": 354.7293750000118,
          "velocity": 0.7086614173228346,
          "duration": 0.19594575000002123
        },
        {
          "name": "B4",
          "midi": 71,
          "time": 354.93207750001187,
          "velocity": 0.7086614173228346,
          "duration": 0.19594575000002123
        },
        {
          "name": "F#4",
          "midi": 66,
          "time": 354.93207750001187,
          "velocity": 0.7086614173228346,
          "duration": 0.19594575000002123
        },
        {
          "name": "D5",
          "midi": 74,
          "time": 355.1347800000119,
          "velocity": 0.7086614173228346,
          "duration": 1.6148632499999849
        },
        {
          "name": "F#5",
          "midi": 78,
          "time": 355.1347800000119,
          "velocity": 0.7086614173228346,
          "duration": 1.6148632499999849
        },
        {
          "name": "G4",
          "midi": 67,
          "time": 356.7564000000119,
          "velocity": 0.7086614173228346,
          "duration": 0.19594575000002123
        },
        {
          "name": "B4",
          "midi": 71,
          "time": 356.7564000000119,
          "velocity": 0.7086614173228346,
          "duration": 0.19594575000002123
        },
        {
          "name": "G4",
          "midi": 67,
          "time": 356.95910250001197,
          "velocity": 0.7086614173228346,
          "duration": 0.19594575000002123
        },
        {
          "name": "E4",
          "midi": 64,
          "time": 356.95910250001197,
          "velocity": 0.7086614173228346,
          "duration": 0.19594575000002123
        },
        {
          "name": "B3",
          "midi": 59,
          "time": 357.161805000012,
          "velocity": 0.7086614173228346,
          "duration": 0.19594575000002123
        },
        {
          "name": "E4",
          "midi": 64,
          "time": 357.161805000012,
          "velocity": 0.7086614173228346,
          "duration": 0.19594575000002123
        },
        {
          "name": "G4",
          "midi": 67,
          "time": 357.36450750001205,
          "velocity": 0.7086614173228346,
          "duration": 0.19594575000002123
        },
        {
          "name": "B4",
          "midi": 71,
          "time": 357.36450750001205,
          "velocity": 0.7086614173228346,
          "duration": 0.19594575000002123
        },
        {
          "name": "G4",
          "midi": 67,
          "time": 357.5672100000121,
          "velocity": 0.7086614173228346,
          "duration": 0.19594575000002123
        },
        {
          "name": "E4",
          "midi": 64,
          "time": 357.5672100000121,
          "velocity": 0.7086614173228346,
          "duration": 0.19594575000002123
        },
        {
          "name": "B3",
          "midi": 59,
          "time": 357.76991250001214,
          "velocity": 0.7086614173228346,
          "duration": 0.19594575000002123
        },
        {
          "name": "E4",
          "midi": 64,
          "time": 357.76991250001214,
          "velocity": 0.7086614173228346,
          "duration": 0.19594575000002123
        },
        {
          "name": "B4",
          "midi": 71,
          "time": 357.9726150000122,
          "velocity": 0.7086614173228346,
          "duration": 0.19594575000002123
        },
        {
          "name": "G4",
          "midi": 67,
          "time": 357.9726150000122,
          "velocity": 0.7086614173228346,
          "duration": 0.19594575000002123
        },
        {
          "name": "G4",
          "midi": 67,
          "time": 358.1753175000122,
          "velocity": 0.7086614173228346,
          "duration": 0.19594575000002123
        },
        {
          "name": "E4",
          "midi": 64,
          "time": 358.1753175000122,
          "velocity": 0.7086614173228346,
          "duration": 0.19594575000002123
        },
        {
          "name": "E4",
          "midi": 64,
          "time": 358.37802000001227,
          "velocity": 0.7086614173228346,
          "duration": 0.19594575000002123
        },
        {
          "name": "B3",
          "midi": 59,
          "time": 358.37802000001227,
          "velocity": 0.7086614173228346,
          "duration": 0.19594575000002123
        },
        {
          "name": "B4",
          "midi": 71,
          "time": 358.5807225000123,
          "velocity": 0.7086614173228346,
          "duration": 0.19594575000002123
        },
        {
          "name": "G4",
          "midi": 67,
          "time": 358.5807225000123,
          "velocity": 0.7086614173228346,
          "duration": 0.19594575000002123
        },
        {
          "name": "G4",
          "midi": 67,
          "time": 358.78342500001236,
          "velocity": 0.7086614173228346,
          "duration": 0.19594575000002123
        },
        {
          "name": "E4",
          "midi": 64,
          "time": 358.78342500001236,
          "velocity": 0.7086614173228346,
          "duration": 0.19594575000002123
        },
        {
          "name": "E4",
          "midi": 64,
          "time": 358.9861275000124,
          "velocity": 0.7086614173228346,
          "duration": 0.19594575000002123
        },
        {
          "name": "B3",
          "midi": 59,
          "time": 358.9861275000124,
          "velocity": 0.7086614173228346,
          "duration": 0.19594575000002123
        },
        {
          "name": "B4",
          "midi": 71,
          "time": 359.18883000001244,
          "velocity": 0.7086614173228346,
          "duration": 0.19594575000002123
        },
        {
          "name": "G4",
          "midi": 67,
          "time": 359.18883000001244,
          "velocity": 0.7086614173228346,
          "duration": 0.19594575000002123
        },
        {
          "name": "G4",
          "midi": 67,
          "time": 359.3915325000125,
          "velocity": 0.7086614173228346,
          "duration": 0.19594575000002123
        },
        {
          "name": "E4",
          "midi": 64,
          "time": 359.3915325000125,
          "velocity": 0.7086614173228346,
          "duration": 0.19594575000002123
        },
        {
          "name": "E4",
          "midi": 64,
          "time": 359.59423500001253,
          "velocity": 0.7086614173228346,
          "duration": 0.3986482500000079
        },
        {
          "name": "B3",
          "midi": 59,
          "time": 359.59423500001253,
          "velocity": 0.7086614173228346,
          "duration": 0.3986482500000079
        },
        {
          "name": "C#5",
          "midi": 73,
          "time": 359.99964000001256,
          "velocity": 0.7086614173228346,
          "duration": 0.19594575000002123
        },
        {
          "name": "A#4",
          "midi": 70,
          "time": 359.99964000001256,
          "velocity": 0.7086614173228346,
          "duration": 0.19594575000002123
        },
        {
          "name": "A#4",
          "midi": 70,
          "time": 360.2023425000126,
          "velocity": 0.7086614173228346,
          "duration": 0.19594575000002123
        },
        {
          "name": "F#4",
          "midi": 66,
          "time": 360.2023425000126,
          "velocity": 0.7086614173228346,
          "duration": 0.19594575000002123
        },
        {
          "name": "F#4",
          "midi": 66,
          "time": 360.40504500001265,
          "velocity": 0.7086614173228346,
          "duration": 0.19594575000002123
        },
        {
          "name": "C#4",
          "midi": 61,
          "time": 360.40504500001265,
          "velocity": 0.7086614173228346,
          "duration": 0.19594575000002123
        },
        {
          "name": "A#4",
          "midi": 70,
          "time": 360.6077475000127,
          "velocity": 0.7086614173228346,
          "duration": 0.19594575000002123
        },
        {
          "name": "C#5",
          "midi": 73,
          "time": 360.6077475000127,
          "velocity": 0.7086614173228346,
          "duration": 0.19594575000002123
        },
        {
          "name": "A#4",
          "midi": 70,
          "time": 360.81045000001274,
          "velocity": 0.7086614173228346,
          "duration": 0.19594575000002123
        },
        {
          "name": "F#4",
          "midi": 66,
          "time": 360.81045000001274,
          "velocity": 0.7086614173228346,
          "duration": 0.19594575000002123
        },
        {
          "name": "F#4",
          "midi": 66,
          "time": 361.0131525000128,
          "velocity": 0.7086614173228346,
          "duration": 0.19594575000002123
        },
        {
          "name": "C#4",
          "midi": 61,
          "time": 361.0131525000128,
          "velocity": 0.7086614173228346,
          "duration": 0.19594575000002123
        },
        {
          "name": "C#5",
          "midi": 73,
          "time": 361.2158550000128,
          "velocity": 0.7086614173228346,
          "duration": 0.19594575000002123
        },
        {
          "name": "A#4",
          "midi": 70,
          "time": 361.2158550000128,
          "velocity": 0.7086614173228346,
          "duration": 0.19594575000002123
        },
        {
          "name": "A#4",
          "midi": 70,
          "time": 361.41855750001287,
          "velocity": 0.7086614173228346,
          "duration": 0.19594575000002123
        },
        {
          "name": "F#4",
          "midi": 66,
          "time": 361.41855750001287,
          "velocity": 0.7086614173228346,
          "duration": 0.19594575000002123
        },
        {
          "name": "F#5",
          "midi": 78,
          "time": 361.6212600000129,
          "velocity": 0.7086614173228346,
          "duration": 1.6148632499999849
        },
        {
          "name": "C#5",
          "midi": 73,
          "time": 361.6212600000129,
          "velocity": 0.7086614173228346,
          "duration": 1.6148632499999849
        },
        {
          "name": "F#5",
          "midi": 78,
          "time": 363.2428800000129,
          "velocity": 0.7086614173228346,
          "duration": 0.19594575000002123
        },
        {
          "name": "D5",
          "midi": 74,
          "time": 363.2428800000129,
          "velocity": 0.7086614173228346,
          "duration": 0.19594575000002123
        },
        {
          "name": "D5",
          "midi": 74,
          "time": 363.44558250001296,
          "velocity": 0.7086614173228346,
          "duration": 0.19594575000002123
        },
        {
          "name": "B4",
          "midi": 71,
          "time": 363.44558250001296,
          "velocity": 0.7086614173228346,
          "duration": 0.19594575000002123
        },
        {
          "name": "B4",
          "midi": 71,
          "time": 363.648285000013,
          "velocity": 0.7086614173228346,
          "duration": 0.19594575000002123
        },
        {
          "name": "F#4",
          "midi": 66,
          "time": 363.648285000013,
          "velocity": 0.7086614173228346,
          "duration": 0.19594575000002123
        },
        {
          "name": "F#5",
          "midi": 78,
          "time": 363.85098750001305,
          "velocity": 0.7086614173228346,
          "duration": 0.19594575000002123
        },
        {
          "name": "D5",
          "midi": 74,
          "time": 363.85098750001305,
          "velocity": 0.7086614173228346,
          "duration": 0.19594575000002123
        },
        {
          "name": "D5",
          "midi": 74,
          "time": 364.0536900000131,
          "velocity": 0.7086614173228346,
          "duration": 0.19594575000002123
        },
        {
          "name": "B4",
          "midi": 71,
          "time": 364.0536900000131,
          "velocity": 0.7086614173228346,
          "duration": 0.19594575000002123
        },
        {
          "name": "F#4",
          "midi": 66,
          "time": 364.25639250001313,
          "velocity": 0.7086614173228346,
          "duration": 0.19594575000002123
        },
        {
          "name": "B4",
          "midi": 71,
          "time": 364.25639250001313,
          "velocity": 0.7086614173228346,
          "duration": 0.19594575000002123
        },
        {
          "name": "F#5",
          "midi": 78,
          "time": 364.4590950000132,
          "velocity": 0.7086614173228346,
          "duration": 0.19594575000002123
        },
        {
          "name": "D5",
          "midi": 74,
          "time": 364.4590950000132,
          "velocity": 0.7086614173228346,
          "duration": 0.19594575000002123
        },
        {
          "name": "D5",
          "midi": 74,
          "time": 364.6617975000132,
          "velocity": 0.7086614173228346,
          "duration": 0.19594575000002123
        },
        {
          "name": "B4",
          "midi": 71,
          "time": 364.6617975000132,
          "velocity": 0.7086614173228346,
          "duration": 0.19594575000002123
        },
        {
          "name": "B4",
          "midi": 71,
          "time": 364.86450000001327,
          "velocity": 0.7086614173228346,
          "duration": 0.19594575000002123
        },
        {
          "name": "F#4",
          "midi": 66,
          "time": 364.86450000001327,
          "velocity": 0.7086614173228346,
          "duration": 0.19594575000002123
        },
        {
          "name": "D5",
          "midi": 74,
          "time": 365.0672025000133,
          "velocity": 0.7086614173228346,
          "duration": 0.19594575000002123
        },
        {
          "name": "F#5",
          "midi": 78,
          "time": 365.0672025000133,
          "velocity": 0.7086614173228346,
          "duration": 0.19594575000002123
        },
        {
          "name": "D5",
          "midi": 74,
          "time": 365.26990500001335,
          "velocity": 0.7086614173228346,
          "duration": 0.19594575000002123
        },
        {
          "name": "B4",
          "midi": 71,
          "time": 365.26990500001335,
          "velocity": 0.7086614173228346,
          "duration": 0.19594575000002123
        },
        {
          "name": "B4",
          "midi": 71,
          "time": 365.4726075000134,
          "velocity": 0.7086614173228346,
          "duration": 0.19594575000002123
        },
        {
          "name": "F#4",
          "midi": 66,
          "time": 365.4726075000134,
          "velocity": 0.7086614173228346,
          "duration": 0.19594575000002123
        },
        {
          "name": "D5",
          "midi": 74,
          "time": 365.67531000001344,
          "velocity": 0.7086614173228346,
          "duration": 0.19594575000002123
        },
        {
          "name": "F#5",
          "midi": 78,
          "time": 365.67531000001344,
          "velocity": 0.7086614173228346,
          "duration": 0.19594575000002123
        },
        {
          "name": "B4",
          "midi": 71,
          "time": 365.8780125000135,
          "velocity": 0.7086614173228346,
          "duration": 0.19594575000002123
        },
        {
          "name": "D5",
          "midi": 74,
          "time": 365.8780125000135,
          "velocity": 0.7086614173228346,
          "duration": 0.19594575000002123
        },
        {
          "name": "B4",
          "midi": 71,
          "time": 366.0807150000135,
          "velocity": 0.7086614173228346,
          "duration": 0.3986482499999511
        },
        {
          "name": "F#4",
          "midi": 66,
          "time": 366.0807150000135,
          "velocity": 0.7086614173228346,
          "duration": 0.3716212499999756
        },
        {
          "name": "C#5",
          "midi": 73,
          "time": 366.4861200000135,
          "velocity": 0.7086614173228346,
          "duration": 0.19594575000002123
        },
        {
          "name": "E5",
          "midi": 76,
          "time": 366.4861200000135,
          "velocity": 0.7086614173228346,
          "duration": 0.19594575000002123
        },
        {
          "name": "A#4",
          "midi": 70,
          "time": 366.68882250001354,
          "velocity": 0.7086614173228346,
          "duration": 0.19594575000002123
        },
        {
          "name": "C#5",
          "midi": 73,
          "time": 366.68882250001354,
          "velocity": 0.7086614173228346,
          "duration": 0.19594575000002123
        },
        {
          "name": "A#4",
          "midi": 70,
          "time": 366.8915250000136,
          "velocity": 0.7086614173228346,
          "duration": 0.19594575000002123
        },
        {
          "name": "F#4",
          "midi": 66,
          "time": 366.8915250000136,
          "velocity": 0.7086614173228346,
          "duration": 0.19594575000002123
        },
        {
          "name": "E5",
          "midi": 76,
          "time": 367.09422750001363,
          "velocity": 0.7086614173228346,
          "duration": 0.19594575000002123
        },
        {
          "name": "C#5",
          "midi": 73,
          "time": 367.09422750001363,
          "velocity": 0.7086614173228346,
          "duration": 0.19594575000002123
        },
        {
          "name": "A#4",
          "midi": 70,
          "time": 367.2969300000137,
          "velocity": 0.7086614173228346,
          "duration": 0.19594575000002123
        },
        {
          "name": "C#5",
          "midi": 73,
          "time": 367.2969300000137,
          "velocity": 0.7086614173228346,
          "duration": 0.19594575000002123
        },
        {
          "name": "F#4",
          "midi": 66,
          "time": 367.4996325000137,
          "velocity": 0.7086614173228346,
          "duration": 0.19594575000002123
        },
        {
          "name": "A#4",
          "midi": 70,
          "time": 367.4996325000137,
          "velocity": 0.7086614173228346,
          "duration": 0.19594575000002123
        },
        {
          "name": "E5",
          "midi": 76,
          "time": 367.70233500001376,
          "velocity": 0.7086614173228346,
          "duration": 0.19594575000002123
        },
        {
          "name": "C#5",
          "midi": 73,
          "time": 367.70233500001376,
          "velocity": 0.7086614173228346,
          "duration": 0.19594575000002123
        },
        {
          "name": "C#5",
          "midi": 73,
          "time": 367.9050375000138,
          "velocity": 0.7086614173228346,
          "duration": 0.19594575000002123
        },
        {
          "name": "A#4",
          "midi": 70,
          "time": 367.9050375000138,
          "velocity": 0.7086614173228346,
          "duration": 0.19594575000002123
        },
        {
          "name": "A#5",
          "midi": 82,
          "time": 368.10774000001385,
          "velocity": 0.7086614173228346,
          "duration": 1.6148632499999849
        },
        {
          "name": "F#5",
          "midi": 78,
          "time": 368.10774000001385,
          "velocity": 0.7086614173228346,
          "duration": 1.6148632499999849
        },
        {
          "name": "C#5",
          "midi": 73,
          "time": 369.72936000001386,
          "velocity": 0.7086614173228346,
          "duration": 0.19594575000002123
        },
        {
          "name": "E5",
          "midi": 76,
          "time": 369.72936000001386,
          "velocity": 0.7086614173228346,
          "duration": 0.19594575000002123
        },
        {
          "name": "A4",
          "midi": 69,
          "time": 369.9320625000139,
          "velocity": 0.7086614173228346,
          "duration": 0.19594575000002123
        },
        {
          "name": "C#5",
          "midi": 73,
          "time": 369.9320625000139,
          "velocity": 0.7086614173228346,
          "duration": 0.19594575000002123
        },
        {
          "name": "A4",
          "midi": 69,
          "time": 370.13476500001394,
          "velocity": 0.7086614173228346,
          "duration": 0.19594575000002123
        },
        {
          "name": "E4",
          "midi": 64,
          "time": 370.13476500001394,
          "velocity": 0.7086614173228346,
          "duration": 0.19594575000002123
        },
        {
          "name": "E5",
          "midi": 76,
          "time": 370.337467500014,
          "velocity": 0.7086614173228346,
          "duration": 0.19594575000002123
        },
        {
          "name": "C#5",
          "midi": 73,
          "time": 370.337467500014,
          "velocity": 0.7086614173228346,
          "duration": 0.19594575000002123
        },
        {
          "name": "A4",
          "midi": 69,
          "time": 370.54017000001403,
          "velocity": 0.7086614173228346,
          "duration": 0.19594575000002123
        },
        {
          "name": "C#5",
          "midi": 73,
          "time": 370.54017000001403,
          "velocity": 0.7086614173228346,
          "duration": 0.19594575000002123
        },
        {
          "name": "E4",
          "midi": 64,
          "time": 370.7428725000141,
          "velocity": 0.7086614173228346,
          "duration": 0.19594575000002123
        },
        {
          "name": "A4",
          "midi": 69,
          "time": 370.7428725000141,
          "velocity": 0.7086614173228346,
          "duration": 0.19594575000002123
        },
        {
          "name": "C#5",
          "midi": 73,
          "time": 370.9455750000141,
          "velocity": 0.7086614173228346,
          "duration": 0.19594575000002123
        },
        {
          "name": "E5",
          "midi": 76,
          "time": 370.9455750000141,
          "velocity": 0.7086614173228346,
          "duration": 0.19594575000002123
        },
        {
          "name": "A4",
          "midi": 69,
          "time": 371.14827750001416,
          "velocity": 0.7086614173228346,
          "duration": 0.19594575000002123
        },
        {
          "name": "C#5",
          "midi": 73,
          "time": 371.14827750001416,
          "velocity": 0.7086614173228346,
          "duration": 0.19594575000002123
        },
        {
          "name": "E4",
          "midi": 64,
          "time": 371.3509800000142,
          "velocity": 0.7086614173228346,
          "duration": 0.19594575000002123
        },
        {
          "name": "A4",
          "midi": 69,
          "time": 371.3509800000142,
          "velocity": 0.7086614173228346,
          "duration": 0.19594575000002123
        },
        {
          "name": "E5",
          "midi": 76,
          "time": 371.55368250001425,
          "velocity": 0.7086614173228346,
          "duration": 0.19594575000002123
        },
        {
          "name": "C#5",
          "midi": 73,
          "time": 371.55368250001425,
          "velocity": 0.7086614173228346,
          "duration": 0.19594575000002123
        },
        {
          "name": "A4",
          "midi": 69,
          "time": 371.7563850000143,
          "velocity": 0.7086614173228346,
          "duration": 0.19594575000002123
        },
        {
          "name": "C#5",
          "midi": 73,
          "time": 371.7563850000143,
          "velocity": 0.7086614173228346,
          "duration": 0.19594575000002123
        },
        {
          "name": "A4",
          "midi": 69,
          "time": 371.95908750001433,
          "velocity": 0.7086614173228346,
          "duration": 0.19594575000002123
        },
        {
          "name": "E4",
          "midi": 64,
          "time": 371.95908750001433,
          "velocity": 0.7086614173228346,
          "duration": 0.19594575000002123
        },
        {
          "name": "E5",
          "midi": 76,
          "time": 372.1617900000144,
          "velocity": 0.7086614173228346,
          "duration": 0.19594575000002123
        },
        {
          "name": "C#5",
          "midi": 73,
          "time": 372.1617900000144,
          "velocity": 0.7086614173228346,
          "duration": 0.19594575000002123
        },
        {
          "name": "A4",
          "midi": 69,
          "time": 372.3644925000144,
          "velocity": 0.7086614173228346,
          "duration": 0.19594575000002123
        },
        {
          "name": "C#5",
          "midi": 73,
          "time": 372.3644925000144,
          "velocity": 0.7086614173228346,
          "duration": 0.19594575000002123
        },
        {
          "name": "A4",
          "midi": 69,
          "time": 372.56719500001446,
          "velocity": 0.7086614173228346,
          "duration": 0.3986482500000079
        },
        {
          "name": "E4",
          "midi": 64,
          "time": 372.56719500001446,
          "velocity": 0.7086614173228346,
          "duration": 0.3986482500000079
        },
        {
          "name": "B4",
          "midi": 71,
          "time": 372.9726000000145,
          "velocity": 0.7086614173228346,
          "duration": 0.19594575000002123
        },
        {
          "name": "D5",
          "midi": 74,
          "time": 372.9726000000145,
          "velocity": 0.7086614173228346,
          "duration": 0.19594575000002123
        },
        {
          "name": "B4",
          "midi": 71,
          "time": 373.17530250001454,
          "velocity": 0.7086614173228346,
          "duration": 0.19594575000002123
        },
        {
          "name": "G#4",
          "midi": 68,
          "time": 373.17530250001454,
          "velocity": 0.7086614173228346,
          "duration": 0.19594575000002123
        },
        {
          "name": "E4",
          "midi": 64,
          "time": 373.3780050000146,
          "velocity": 0.7086614173228346,
          "duration": 0.19594575000002123
        },
        {
          "name": "G#4",
          "midi": 68,
          "time": 373.3780050000146,
          "velocity": 0.7086614173228346,
          "duration": 0.19594575000002123
        },
        {
          "name": "D5",
          "midi": 74,
          "time": 373.5807075000146,
          "velocity": 0.7086614173228346,
          "duration": 0.19594575000002123
        },
        {
          "name": "B4",
          "midi": 71,
          "time": 373.5807075000146,
          "velocity": 0.7086614173228346,
          "duration": 0.19594575000002123
        },
        {
          "name": "B4",
          "midi": 71,
          "time": 373.78341000001467,
          "velocity": 0.7086614173228346,
          "duration": 0.19594575000002123
        },
        {
          "name": "G#4",
          "midi": 68,
          "time": 373.78341000001467,
          "velocity": 0.7086614173228346,
          "duration": 0.19594575000002123
        },
        {
          "name": "G#4",
          "midi": 68,
          "time": 373.9861125000147,
          "velocity": 0.7086614173228346,
          "duration": 0.19594575000002123
        },
        {
          "name": "E4",
          "midi": 64,
          "time": 373.9861125000147,
          "velocity": 0.7086614173228346,
          "duration": 0.19594575000002123
        },
        {
          "name": "B4",
          "midi": 71,
          "time": 374.18881500001476,
          "velocity": 0.7086614173228346,
          "duration": 0.19594575000002123
        },
        {
          "name": "D5",
          "midi": 74,
          "time": 374.18881500001476,
          "velocity": 0.7086614173228346,
          "duration": 0.19594575000002123
        },
        {
          "name": "B4",
          "midi": 71,
          "time": 374.3915175000148,
          "velocity": 0.7086614173228346,
          "duration": 0.19594575000002123
        },
        {
          "name": "G#4",
          "midi": 68,
          "time": 374.3915175000148,
          "velocity": 0.7086614173228346,
          "duration": 0.19594575000002123
        },
        {
          "name": "G#5",
          "midi": 80,
          "time": 374.59422000001484,
          "velocity": 0.7086614173228346,
          "duration": 1.6148632499999849
        },
        {
          "name": "E5",
          "midi": 76,
          "time": 374.59422000001484,
          "velocity": 0.7086614173228346,
          "duration": 1.6148632499999849
        },
        {
          "name": "D5",
          "midi": 74,
          "time": 376.21584000001485,
          "velocity": 0.7086614173228346,
          "duration": 0.19594575000002123
        },
        {
          "name": "B4",
          "midi": 71,
          "time": 376.21584000001485,
          "velocity": 0.7086614173228346,
          "duration": 0.19594575000002123
        },
        {
          "name": "B4",
          "midi": 71,
          "time": 376.4185425000149,
          "velocity": 0.7086614173228346,
          "duration": 0.19594575000002123
        },
        {
          "name": "G4",
          "midi": 67,
          "time": 376.4185425000149,
          "velocity": 0.7086614173228346,
          "duration": 0.19594575000002123
        },
        {
          "name": "G4",
          "midi": 67,
          "time": 376.62124500001494,
          "velocity": 0.7086614173228346,
          "duration": 0.19594575000002123
        },
        {
          "name": "D4",
          "midi": 62,
          "time": 376.62124500001494,
          "velocity": 0.7086614173228346,
          "duration": 0.19594575000002123
        },
        {
          "name": "D5",
          "midi": 74,
          "time": 376.823947500015,
          "velocity": 0.7086614173228346,
          "duration": 0.19594575000002123
        },
        {
          "name": "B4",
          "midi": 71,
          "time": 376.823947500015,
          "velocity": 0.7086614173228346,
          "duration": 0.19594575000002123
        },
        {
          "name": "G4",
          "midi": 67,
          "time": 377.026650000015,
          "velocity": 0.7086614173228346,
          "duration": 0.19594575000002123
        },
        {
          "name": "B4",
          "midi": 71,
          "time": 377.026650000015,
          "velocity": 0.7086614173228346,
          "duration": 0.19594575000002123
        },
        {
          "name": "G4",
          "midi": 67,
          "time": 377.22935250001507,
          "velocity": 0.7086614173228346,
          "duration": 0.19594575000002123
        },
        {
          "name": "D4",
          "midi": 62,
          "time": 377.22935250001507,
          "velocity": 0.7086614173228346,
          "duration": 0.19594575000002123
        },
        {
          "name": "D5",
          "midi": 74,
          "time": 377.4320550000151,
          "velocity": 0.7086614173228346,
          "duration": 0.19594575000002123
        },
        {
          "name": "B4",
          "midi": 71,
          "time": 377.4320550000151,
          "velocity": 0.7086614173228346,
          "duration": 0.19594575000002123
        },
        {
          "name": "B4",
          "midi": 71,
          "time": 377.63475750001516,
          "velocity": 0.7086614173228346,
          "duration": 0.19594575000002123
        },
        {
          "name": "G4",
          "midi": 67,
          "time": 377.63475750001516,
          "velocity": 0.7086614173228346,
          "duration": 0.19594575000002123
        },
        {
          "name": "G4",
          "midi": 67,
          "time": 377.8374600000152,
          "velocity": 0.7086614173228346,
          "duration": 0.19594575000002123
        },
        {
          "name": "D4",
          "midi": 62,
          "time": 377.8374600000152,
          "velocity": 0.7086614173228346,
          "duration": 0.19594575000002123
        },
        {
          "name": "B4",
          "midi": 71,
          "time": 378.04016250001524,
          "velocity": 0.7086614173228346,
          "duration": 0.19594575000002123
        },
        {
          "name": "D5",
          "midi": 74,
          "time": 378.04016250001524,
          "velocity": 0.7086614173228346,
          "duration": 0.19594575000002123
        },
        {
          "name": "B4",
          "midi": 71,
          "time": 378.2428650000153,
          "velocity": 0.7086614173228346,
          "duration": 0.19594575000002123
        },
        {
          "name": "G4",
          "midi": 67,
          "time": 378.2428650000153,
          "velocity": 0.7086614173228346,
          "duration": 0.19594575000002123
        },
        {
          "name": "G4",
          "midi": 67,
          "time": 378.44556750001533,
          "velocity": 0.7086614173228346,
          "duration": 0.19594575000002123
        },
        {
          "name": "D4",
          "midi": 62,
          "time": 378.44556750001533,
          "velocity": 0.7086614173228346,
          "duration": 0.19594575000002123
        },
        {
          "name": "D5",
          "midi": 74,
          "time": 378.6482700000154,
          "velocity": 0.7086614173228346,
          "duration": 0.19594575000002123
        },
        {
          "name": "B4",
          "midi": 71,
          "time": 378.6482700000154,
          "velocity": 0.7086614173228346,
          "duration": 0.19594575000002123
        },
        {
          "name": "B4",
          "midi": 71,
          "time": 378.8509725000154,
          "velocity": 0.7086614173228346,
          "duration": 0.19594575000002123
        },
        {
          "name": "G4",
          "midi": 67,
          "time": 378.8509725000154,
          "velocity": 0.7086614173228346,
          "duration": 0.19594575000002123
        },
        {
          "name": "G4",
          "midi": 67,
          "time": 379.05367500001546,
          "velocity": 0.7086614173228346,
          "duration": 0.3986482500000079
        },
        {
          "name": "D4",
          "midi": 62,
          "time": 379.05367500001546,
          "velocity": 0.7086614173228346,
          "duration": 0.3986482500000079
        },
        {
          "name": "D5",
          "midi": 74,
          "time": 379.4590800000155,
          "velocity": 0.7086614173228346,
          "duration": 0.19594575000002123
        },
        {
          "name": "A4",
          "midi": 69,
          "time": 379.4590800000155,
          "velocity": 0.7086614173228346,
          "duration": 0.19594575000002123
        },
        {
          "name": "F#4",
          "midi": 66,
          "time": 379.66178250001553,
          "velocity": 0.7086614173228346,
          "duration": 0.19594575000002123
        },
        {
          "name": "A4",
          "midi": 69,
          "time": 379.66178250001553,
          "velocity": 0.7086614173228346,
          "duration": 0.19594575000002123
        },
        {
          "name": "D4",
          "midi": 62,
          "time": 379.8644850000156,
          "velocity": 0.7086614173228346,
          "duration": 0.19594575000002123
        },
        {
          "name": "F#4",
          "midi": 66,
          "time": 379.8644850000156,
          "velocity": 0.7086614173228346,
          "duration": 0.19594575000002123
        },
        {
          "name": "D5",
          "midi": 74,
          "time": 380.0671875000156,
          "velocity": 0.7086614173228346,
          "duration": 0.19594575000002123
        },
        {
          "name": "A4",
          "midi": 69,
          "time": 380.0671875000156,
          "velocity": 0.7086614173228346,
          "duration": 0.19594575000002123
        },
        {
          "name": "F#4",
          "midi": 66,
          "time": 380.26989000001566,
          "velocity": 0.7086614173228346,
          "duration": 0.19594575000002123
        },
        {
          "name": "A4",
          "midi": 69,
          "time": 380.26989000001566,
          "velocity": 0.7086614173228346,
          "duration": 0.19594575000002123
        },
        {
          "name": "F#4",
          "midi": 66,
          "time": 380.4725925000157,
          "velocity": 0.7086614173228346,
          "duration": 0.19594575000002123
        },
        {
          "name": "D4",
          "midi": 62,
          "time": 380.4725925000157,
          "velocity": 0.7086614173228346,
          "duration": 0.19594575000002123
        },
        {
          "name": "A4",
          "midi": 69,
          "time": 380.67529500001575,
          "velocity": 0.7086614173228346,
          "duration": 0.19594575000002123
        },
        {
          "name": "D5",
          "midi": 74,
          "time": 380.67529500001575,
          "velocity": 0.7086614173228346,
          "duration": 0.19594575000002123
        },
        {
          "name": "B4",
          "midi": 71,
          "time": 380.8779975000158,
          "velocity": 0.7086614173228346,
          "duration": 0.19594575000002123
        },
        {
          "name": "F#4",
          "midi": 66,
          "time": 380.8779975000158,
          "velocity": 0.7086614173228346,
          "duration": 0.19594575000002123
        },
        {
          "name": "F#5",
          "midi": 78,
          "time": 381.08070000001584,
          "velocity": 0.7086614173228346,
          "duration": 1.6148632499999849
        },
        {
          "name": "D5",
          "midi": 74,
          "time": 381.08070000001584,
          "velocity": 0.7086614173228346,
          "duration": 1.6148632499999849
        },
        {
          "name": "G4",
          "midi": 67,
          "time": 382.70232000001585,
          "velocity": 0.7086614173228346,
          "duration": 0.19594575000002123
        },
        {
          "name": "B4",
          "midi": 71,
          "time": 382.70232000001585,
          "velocity": 0.7086614173228346,
          "duration": 0.19594575000002123
        },
        {
          "name": "E4",
          "midi": 64,
          "time": 382.9050225000159,
          "velocity": 0.7086614173228346,
          "duration": 0.19594575000002123
        },
        {
          "name": "G4",
          "midi": 67,
          "time": 382.9050225000159,
          "velocity": 0.7086614173228346,
          "duration": 0.19594575000002123
        },
        {
          "name": "E4",
          "midi": 64,
          "time": 383.10772500001593,
          "velocity": 0.7086614173228346,
          "duration": 0.19594575000002123
        },
        {
          "name": "B3",
          "midi": 59,
          "time": 383.10772500001593,
          "velocity": 0.7086614173228346,
          "duration": 0.19594575000002123
        },
        {
          "name": "G4",
          "midi": 67,
          "time": 383.310427500016,
          "velocity": 0.7086614173228346,
          "duration": 0.19594575000002123
        },
        {
          "name": "B4",
          "midi": 71,
          "time": 383.310427500016,
          "velocity": 0.7086614173228346,
          "duration": 0.19594575000002123
        },
        {
          "name": "E4",
          "midi": 64,
          "time": 383.513130000016,
          "velocity": 0.7086614173228346,
          "duration": 0.19594575000002123
        },
        {
          "name": "G4",
          "midi": 67,
          "time": 383.513130000016,
          "velocity": 0.7086614173228346,
          "duration": 0.19594575000002123
        },
        {
          "name": "E4",
          "midi": 64,
          "time": 383.71583250001606,
          "velocity": 0.7086614173228346,
          "duration": 0.19594575000002123
        },
        {
          "name": "B3",
          "midi": 59,
          "time": 383.71583250001606,
          "velocity": 0.7086614173228346,
          "duration": 0.19594575000002123
        },
        {
          "name": "G4",
          "midi": 67,
          "time": 383.9185350000161,
          "velocity": 0.7086614173228346,
          "duration": 0.19594575000002123
        },
        {
          "name": "B4",
          "midi": 71,
          "time": 383.9185350000161,
          "velocity": 0.7086614173228346,
          "duration": 0.19594575000002123
        },
        {
          "name": "E4",
          "midi": 64,
          "time": 384.12123750001615,
          "velocity": 0.7086614173228346,
          "duration": 0.19594575000002123
        },
        {
          "name": "G4",
          "midi": 67,
          "time": 384.12123750001615,
          "velocity": 0.7086614173228346,
          "duration": 0.19594575000002123
        },
        {
          "name": "B3",
          "midi": 59,
          "time": 384.3239400000162,
          "velocity": 0.7086614173228346,
          "duration": 0.19594575000002123
        },
        {
          "name": "E4",
          "midi": 64,
          "time": 384.3239400000162,
          "velocity": 0.7086614173228346,
          "duration": 0.19594575000002123
        },
        {
          "name": "G4",
          "midi": 67,
          "time": 384.52664250001624,
          "velocity": 0.7086614173228346,
          "duration": 0.19594575000002123
        },
        {
          "name": "B4",
          "midi": 71,
          "time": 384.52664250001624,
          "velocity": 0.7086614173228346,
          "duration": 0.19594575000002123
        },
        {
          "name": "E4",
          "midi": 64,
          "time": 384.7293450000163,
          "velocity": 0.7086614173228346,
          "duration": 0.19594575000002123
        },
        {
          "name": "G4",
          "midi": 67,
          "time": 384.7293450000163,
          "velocity": 0.7086614173228346,
          "duration": 0.19594575000002123
        },
        {
          "name": "B3",
          "midi": 59,
          "time": 384.9320475000163,
          "velocity": 0.7086614173228346,
          "duration": 0.19594575000002123
        },
        {
          "name": "E4",
          "midi": 64,
          "time": 384.9320475000163,
          "velocity": 0.7086614173228346,
          "duration": 0.19594575000002123
        },
        {
          "name": "G4",
          "midi": 67,
          "time": 385.13475000001637,
          "velocity": 0.7086614173228346,
          "duration": 0.19594575000002123
        },
        {
          "name": "B4",
          "midi": 71,
          "time": 385.13475000001637,
          "velocity": 0.7086614173228346,
          "duration": 0.19594575000002123
        },
        {
          "name": "E4",
          "midi": 64,
          "time": 385.3374525000164,
          "velocity": 0.7086614173228346,
          "duration": 0.19594575000002123
        },
        {
          "name": "G4",
          "midi": 67,
          "time": 385.3374525000164,
          "velocity": 0.7086614173228346,
          "duration": 0.19594575000002123
        },
        {
          "name": "E4",
          "midi": 64,
          "time": 385.54015500001645,
          "velocity": 0.7086614173228346,
          "duration": 0.3986482500000079
        },
        {
          "name": "B3",
          "midi": 59,
          "time": 385.54015500001645,
          "velocity": 0.7086614173228346,
          "duration": 0.3986482500000079
        },
        {
          "name": "C#5",
          "midi": 73,
          "time": 385.9455600000165,
          "velocity": 0.7086614173228346,
          "duration": 0.19594575000002123
        },
        {
          "name": "A#4",
          "midi": 70,
          "time": 385.9455600000165,
          "velocity": 0.7086614173228346,
          "duration": 0.19594575000002123
        },
        {
          "name": "F#4",
          "midi": 66,
          "time": 386.14826250001653,
          "velocity": 0.7086614173228346,
          "duration": 0.19594575000002123
        },
        {
          "name": "A#4",
          "midi": 70,
          "time": 386.14826250001653,
          "velocity": 0.7086614173228346,
          "duration": 0.19594575000002123
        },
        {
          "name": "F#4",
          "midi": 66,
          "time": 386.3509650000166,
          "velocity": 0.7086614173228346,
          "duration": 0.19594575000002123
        },
        {
          "name": "C#4",
          "midi": 61,
          "time": 386.3509650000166,
          "velocity": 0.7086614173228346,
          "duration": 0.19594575000002123
        },
        {
          "name": "C#5",
          "midi": 73,
          "time": 386.5536675000166,
          "velocity": 0.7086614173228346,
          "duration": 0.19594575000002123
        },
        {
          "name": "A#4",
          "midi": 70,
          "time": 386.5536675000166,
          "velocity": 0.7086614173228346,
          "duration": 0.19594575000002123
        },
        {
          "name": "A#4",
          "midi": 70,
          "time": 386.75637000001666,
          "velocity": 0.7086614173228346,
          "duration": 0.19594575000002123
        },
        {
          "name": "F#4",
          "midi": 66,
          "time": 386.75637000001666,
          "velocity": 0.7086614173228346,
          "duration": 0.19594575000002123
        },
        {
          "name": "C#4",
          "midi": 61,
          "time": 386.9590725000167,
          "velocity": 0.7086614173228346,
          "duration": 0.19594575000002123
        },
        {
          "name": "F#4",
          "midi": 66,
          "time": 386.9590725000167,
          "velocity": 0.7086614173228346,
          "duration": 0.19594575000002123
        },
        {
          "name": "C#5",
          "midi": 73,
          "time": 387.16177500001675,
          "velocity": 0.7086614173228346,
          "duration": 0.19594575000002123
        },
        {
          "name": "A#4",
          "midi": 70,
          "time": 387.16177500001675,
          "velocity": 0.7086614173228346,
          "duration": 0.19594575000002123
        },
        {
          "name": "A#4",
          "midi": 70,
          "time": 387.3644775000168,
          "velocity": 0.7086614173228346,
          "duration": 0.19594575000002123
        },
        {
          "name": "F#4",
          "midi": 66,
          "time": 387.3644775000168,
          "velocity": 0.7086614173228346,
          "duration": 0.19594575000002123
        },
        {
          "name": "C#5",
          "midi": 73,
          "time": 387.56718000001683,
          "velocity": 0.7086614173228346,
          "duration": 1.6148632499999849
        },
        {
          "name": "F#5",
          "midi": 78,
          "time": 387.56718000001683,
          "velocity": 0.7086614173228346,
          "duration": 1.6148632499999849
        }
      ],
      "controlChanges": {
        "7": [
          {
            "number": 7,
            "time": 0,
            "value": 0.7086614173228346
          },
          {
            "number": 7,
            "time": 258.64838999999955,
            "value": 0.7874015748031497
          },
          {
            "number": 7,
            "time": 364.0536900000131,
            "value": 0.7086614173228346
          },
          {
            "number": 7,
            "time": 364.86450000001327,
            "value": 0.6850393700787402
          },
          {
            "number": 7,
            "time": 365.67531000001344,
            "value": 0.6614173228346457
          },
          {
            "number": 7,
            "time": 366.4861200000135,
            "value": 0.6377952755905512
          },
          {
            "number": 7,
            "time": 367.2969300000137,
            "value": 0.6141732283464567
          },
          {
            "number": 7,
            "time": 368.10774000001385,
            "value": 0.5905511811023622
          },
          {
            "number": 7,
            "time": 368.91855000001385,
            "value": 0.5669291338582677
          },
          {
            "number": 7,
            "time": 369.72936000001386,
            "value": 0.5433070866141733
          },
          {
            "number": 7,
            "time": 370.54017000001403,
            "value": 0.5196850393700787
          },
          {
            "number": 7,
            "time": 371.3509800000142,
            "value": 0.49606299212598426
          },
          {
            "number": 7,
            "time": 372.1617900000144,
            "value": 0.47244094488188976
          },
          {
            "number": 7,
            "time": 372.9726000000145,
            "value": 0.44881889763779526
          },
          {
            "number": 7,
            "time": 373.78341000001467,
            "value": 0.4251968503937008
          },
          {
            "number": 7,
            "time": 374.59422000001484,
            "value": 0.4015748031496063
          },
          {
            "number": 7,
            "time": 375.40503000001485,
            "value": 0.3779527559055118
          },
          {
            "number": 7,
            "time": 376.21584000001485,
            "value": 0.3543307086614173
          },
          {
            "number": 7,
            "time": 377.026650000015,
            "value": 0.33070866141732286
          },
          {
            "number": 7,
            "time": 377.8374600000152,
            "value": 0.30708661417322836
          },
          {
            "number": 7,
            "time": 378.6482700000154,
            "value": 0.28346456692913385
          },
          {
            "number": 7,
            "time": 379.4590800000155,
            "value": 0.25984251968503935
          },
          {
            "number": 7,
            "time": 380.26989000001566,
            "value": 0.23622047244094488
          },
          {
            "number": 7,
            "time": 381.08070000001584,
            "value": 0.2125984251968504
          },
          {
            "number": 7,
            "time": 381.89151000001584,
            "value": 0.1889763779527559
          },
          {
            "number": 7,
            "time": 382.70232000001585,
            "value": 0.16535433070866143
          },
          {
            "number": 7,
            "time": 383.513130000016,
            "value": 0.14173228346456693
          },
          {
            "number": 7,
            "time": 384.3239400000162,
            "value": 0.11811023622047244
          },
          {
            "number": 7,
            "time": 385.13475000001637,
            "value": 0.09448818897637795
          },
          {
            "number": 7,
            "time": 385.9455600000165,
            "value": 0.07086614173228346
          },
          {
            "number": 7,
            "time": 386.75637000001666,
            "value": 0.047244094488188976
          },
          {
            "number": 7,
            "time": 387.56718000001683,
            "value": 0.023622047244094488
          },
          {
            "number": 7,
            "time": 388.37799000001684,
            "value": 0
          }
        ]
      },
      "id": 5,
      "name": "WinJammer Demo",
      "instrumentNumber": 30,
      "instrument": "distortion guitar",
      "instrumentFamily": "guitar",
      "channelNumber": 4,
      "isPercussion": false
    },
    {
      "startTime": 12.16215,
      "duration": 389.1820432500267,
      "length": 1258,
      "notes": [
        {
          "name": "G#2",
          "midi": 44,
          "time": 12.16215,
          "velocity": 0.7874015748031497,
          "duration": 0.09459449999999947
        },
        {
          "name": "G#2",
          "midi": 44,
          "time": 12.26350125,
          "velocity": 0.7874015748031497,
          "duration": 0.09459449999999947
        },
        {
          "name": "G#2",
          "midi": 44,
          "time": 12.364852499999998,
          "velocity": 0.7874015748031497,
          "duration": 0.09459449999999947
        },
        {
          "name": "G#2",
          "midi": 44,
          "time": 12.466203749999996,
          "velocity": 0.7874015748031497,
          "duration": 0.09459449999999947
        },
        {
          "name": "G#2",
          "midi": 44,
          "time": 12.567554999999995,
          "velocity": 0.7874015748031497,
          "duration": 0.09459449999999947
        },
        {
          "name": "G#2",
          "midi": 44,
          "time": 12.668906249999994,
          "velocity": 0.7874015748031497,
          "duration": 0.09459449999999947
        },
        {
          "name": "G#2",
          "midi": 44,
          "time": 12.770257499999992,
          "velocity": 0.7874015748031497,
          "duration": 0.09459449999999947
        },
        {
          "name": "G#2",
          "midi": 44,
          "time": 12.871608749999991,
          "velocity": 0.7874015748031497,
          "duration": 0.09459449999999947
        },
        {
          "name": "E2",
          "midi": 40,
          "time": 51.08102999999999,
          "velocity": 0.7874015748031497,
          "duration": 0.3986482500000008
        },
        {
          "name": "E2",
          "midi": 40,
          "time": 51.48643499999999,
          "velocity": 0.7874015748031497,
          "duration": 0.3986482500000008
        },
        {
          "name": "E2",
          "midi": 40,
          "time": 52.70264999999999,
          "velocity": 0.7874015748031497,
          "duration": 0.3986482500000008
        },
        {
          "name": "E2",
          "midi": 40,
          "time": 54.32426999999999,
          "velocity": 0.7874015748031497,
          "duration": 0.3986482500000008
        },
        {
          "name": "E2",
          "midi": 40,
          "time": 55.94588999999999,
          "velocity": 0.7874015748031497,
          "duration": 0.3986482500000008
        },
        {
          "name": "E2",
          "midi": 40,
          "time": 57.56750999999999,
          "velocity": 0.7874015748031497,
          "duration": 0.3986482500000008
        },
        {
          "name": "E2",
          "midi": 40,
          "time": 59.18912999999999,
          "velocity": 0.7874015748031497,
          "duration": 0.3986482500000008
        },
        {
          "name": "E2",
          "midi": 40,
          "time": 60.81074999999999,
          "velocity": 0.7874015748031497,
          "duration": 0.3986482500000008
        },
        {
          "name": "E2",
          "midi": 40,
          "time": 62.43236999999999,
          "velocity": 0.7874015748031497,
          "duration": 0.3986482500000008
        },
        {
          "name": "E2",
          "midi": 40,
          "time": 64.05399,
          "velocity": 0.7874015748031497,
          "duration": 0.3986482499999937
        },
        {
          "name": "E2",
          "midi": 40,
          "time": 65.67560999999999,
          "velocity": 0.7874015748031497,
          "duration": 0.3986482499999937
        },
        {
          "name": "E2",
          "midi": 40,
          "time": 67.29722999999998,
          "velocity": 0.7874015748031497,
          "duration": 0.3986482499999937
        },
        {
          "name": "E2",
          "midi": 40,
          "time": 68.91884999999998,
          "velocity": 0.7874015748031497,
          "duration": 0.3986482499999937
        },
        {
          "name": "E2",
          "midi": 40,
          "time": 70.54046999999997,
          "velocity": 0.7874015748031497,
          "duration": 0.3986482499999937
        },
        {
          "name": "E2",
          "midi": 40,
          "time": 72.16208999999996,
          "velocity": 0.7874015748031497,
          "duration": 0.3986482499999937
        },
        {
          "name": "E2",
          "midi": 40,
          "time": 73.78370999999996,
          "velocity": 0.7874015748031497,
          "duration": 0.3986482499999937
        },
        {
          "name": "E2",
          "midi": 40,
          "time": 75.40532999999995,
          "velocity": 0.7874015748031497,
          "duration": 0.8040532499999955
        },
        {
          "name": "E2",
          "midi": 40,
          "time": 77.02694999999994,
          "velocity": 0.7874015748031497,
          "duration": 0.3986482499999937
        },
        {
          "name": "E2",
          "midi": 40,
          "time": 77.43235499999993,
          "velocity": 0.7874015748031497,
          "duration": 0.3986482499999937
        },
        {
          "name": "E2",
          "midi": 40,
          "time": 78.64856999999992,
          "velocity": 0.7874015748031497,
          "duration": 0.3986482499999937
        },
        {
          "name": "E2",
          "midi": 40,
          "time": 80.27018999999991,
          "velocity": 0.7874015748031497,
          "duration": 0.3986482499999937
        },
        {
          "name": "E2",
          "midi": 40,
          "time": 81.89180999999991,
          "velocity": 0.7874015748031497,
          "duration": 0.3986482499999937
        },
        {
          "name": "E2",
          "midi": 40,
          "time": 83.5134299999999,
          "velocity": 0.7874015748031497,
          "duration": 0.3986482499999937
        },
        {
          "name": "E2",
          "midi": 40,
          "time": 85.1350499999999,
          "velocity": 0.7874015748031497,
          "duration": 0.8040532499999955
        },
        {
          "name": "E2",
          "midi": 40,
          "time": 86.75666999999989,
          "velocity": 0.7874015748031497,
          "duration": 0.8040532499999955
        },
        {
          "name": "E2",
          "midi": 40,
          "time": 88.37828999999988,
          "velocity": 0.7874015748031497,
          "duration": 0.8040532499999955
        },
        {
          "name": "E2",
          "midi": 40,
          "time": 89.99990999999987,
          "velocity": 0.7874015748031497,
          "duration": 0.8040532499999955
        },
        {
          "name": "E2",
          "midi": 40,
          "time": 91.62152999999986,
          "velocity": 0.7874015748031497,
          "duration": 0.8040532499999955
        },
        {
          "name": "E2",
          "midi": 40,
          "time": 93.24314999999986,
          "velocity": 0.7874015748031497,
          "duration": 0.8040532499999955
        },
        {
          "name": "E2",
          "midi": 40,
          "time": 94.86476999999985,
          "velocity": 0.7874015748031497,
          "duration": 0.8040532499999955
        },
        {
          "name": "E2",
          "midi": 40,
          "time": 96.48638999999984,
          "velocity": 0.7874015748031497,
          "duration": 0.8040532499999955
        },
        {
          "name": "E2",
          "midi": 40,
          "time": 98.10800999999984,
          "velocity": 0.7874015748031497,
          "duration": 0.8040532499999955
        },
        {
          "name": "E2",
          "midi": 40,
          "time": 99.72962999999983,
          "velocity": 0.7874015748031497,
          "duration": 0.8040532499999955
        },
        {
          "name": "E2",
          "midi": 40,
          "time": 101.35124999999982,
          "velocity": 0.7874015748031497,
          "duration": 0.8040532499999955
        },
        {
          "name": "E2",
          "midi": 40,
          "time": 102.56746499999981,
          "velocity": 0.7874015748031497,
          "duration": 0.19594575000000702
        },
        {
          "name": "E2",
          "midi": 40,
          "time": 102.97286999999982,
          "velocity": 0.7874015748031497,
          "duration": 0.3986482500000079
        },
        {
          "name": "E2",
          "midi": 40,
          "time": 103.17557249999982,
          "velocity": 0.7874015748031497,
          "duration": 0.19594575000000702
        },
        {
          "name": "E2",
          "midi": 40,
          "time": 103.37827499999982,
          "velocity": 0.7874015748031497,
          "duration": 0.3986482500000079
        },
        {
          "name": "B1",
          "midi": 35,
          "time": 103.37827499999982,
          "velocity": 0.7874015748031497,
          "duration": 0.3986482500000079
        },
        {
          "name": "E2",
          "midi": 40,
          "time": 103.58097749999982,
          "velocity": 0.7874015748031497,
          "duration": 0.19594575000000702
        },
        {
          "name": "B1",
          "midi": 35,
          "time": 103.58097749999982,
          "velocity": 0.7874015748031497,
          "duration": 0.19594575000000702
        },
        {
          "name": "F#3",
          "midi": 54,
          "time": 103.78367999999982,
          "velocity": 0.7874015748031497,
          "duration": 0.19594575000000702
        },
        {
          "name": "C2",
          "midi": 36,
          "time": 103.78367999999982,
          "velocity": 0.7874015748031497,
          "duration": 0.19594575000000702
        },
        {
          "name": "F#3",
          "midi": 54,
          "time": 103.98638249999982,
          "velocity": 0.7874015748031497,
          "duration": 0.19594575000000702
        },
        {
          "name": "C2",
          "midi": 36,
          "time": 103.98638249999982,
          "velocity": 0.7874015748031497,
          "duration": 0.19594575000000702
        },
        {
          "name": "C2",
          "midi": 36,
          "time": 104.18908499999982,
          "velocity": 0.7874015748031497,
          "duration": 0.19594575000000702
        },
        {
          "name": "F#3",
          "midi": 54,
          "time": 104.18908499999982,
          "velocity": 0.7874015748031497,
          "duration": 0.19594575000000702
        },
        {
          "name": "G3",
          "midi": 55,
          "time": 104.59448999999982,
          "velocity": 0.7874015748031497,
          "duration": 0.19594575000000702
        },
        {
          "name": "E2",
          "midi": 40,
          "time": 104.59448999999982,
          "velocity": 0.7874015748031497,
          "duration": 0.19594575000000702
        },
        {
          "name": "C2",
          "midi": 36,
          "time": 105.40529999999983,
          "velocity": 0.7874015748031497,
          "duration": 0.19594575000000702
        },
        {
          "name": "F#3",
          "midi": 54,
          "time": 105.40529999999983,
          "velocity": 0.7874015748031497,
          "duration": 0.19594575000000702
        },
        {
          "name": "C2",
          "midi": 36,
          "time": 105.60800249999983,
          "velocity": 0.7874015748031497,
          "duration": 0.19594575000000702
        },
        {
          "name": "F#3",
          "midi": 54,
          "time": 105.60800249999983,
          "velocity": 0.7874015748031497,
          "duration": 0.19594575000000702
        },
        {
          "name": "F#3",
          "midi": 54,
          "time": 105.81070499999983,
          "velocity": 0.7874015748031497,
          "duration": 0.19594575000000702
        },
        {
          "name": "C2",
          "midi": 36,
          "time": 105.81070499999983,
          "velocity": 0.7874015748031497,
          "duration": 0.19594575000000702
        },
        {
          "name": "E2",
          "midi": 40,
          "time": 106.21610999999983,
          "velocity": 0.7874015748031497,
          "duration": 0.19594575000000702
        },
        {
          "name": "G3",
          "midi": 55,
          "time": 106.21610999999983,
          "velocity": 0.7874015748031497,
          "duration": 0.19594575000000702
        },
        {
          "name": "C2",
          "midi": 36,
          "time": 107.02691999999983,
          "velocity": 0.7874015748031497,
          "duration": 0.19594575000000702
        },
        {
          "name": "F#3",
          "midi": 54,
          "time": 107.02691999999983,
          "velocity": 0.7874015748031497,
          "duration": 0.19594575000000702
        },
        {
          "name": "C2",
          "midi": 36,
          "time": 107.22962249999983,
          "velocity": 0.7874015748031497,
          "duration": 0.19594575000000702
        },
        {
          "name": "F#3",
          "midi": 54,
          "time": 107.22962249999983,
          "velocity": 0.7874015748031497,
          "duration": 0.19594575000000702
        },
        {
          "name": "C2",
          "midi": 36,
          "time": 107.43232499999984,
          "velocity": 0.7874015748031497,
          "duration": 0.19594575000000702
        },
        {
          "name": "F#3",
          "midi": 54,
          "time": 107.43232499999984,
          "velocity": 0.7874015748031497,
          "duration": 0.19594575000000702
        },
        {
          "name": "E2",
          "midi": 40,
          "time": 107.83772999999984,
          "velocity": 0.7874015748031497,
          "duration": 0.19594575000000702
        },
        {
          "name": "G3",
          "midi": 55,
          "time": 107.83772999999984,
          "velocity": 0.7874015748031497,
          "duration": 0.19594575000000702
        },
        {
          "name": "F#3",
          "midi": 54,
          "time": 108.64853999999984,
          "velocity": 0.7874015748031497,
          "duration": 0.19594575000000702
        },
        {
          "name": "C2",
          "midi": 36,
          "time": 108.64853999999984,
          "velocity": 0.7874015748031497,
          "duration": 0.19594575000000702
        },
        {
          "name": "C2",
          "midi": 36,
          "time": 108.85124249999984,
          "velocity": 0.7874015748031497,
          "duration": 0.19594575000000702
        },
        {
          "name": "F#3",
          "midi": 54,
          "time": 108.85124249999984,
          "velocity": 0.7874015748031497,
          "duration": 0.19594575000000702
        },
        {
          "name": "C2",
          "midi": 36,
          "time": 109.05394499999984,
          "velocity": 0.7874015748031497,
          "duration": 0.19594575000000702
        },
        {
          "name": "F#3",
          "midi": 54,
          "time": 109.05394499999984,
          "velocity": 0.7874015748031497,
          "duration": 0.19594575000000702
        },
        {
          "name": "G3",
          "midi": 55,
          "time": 109.45934999999984,
          "velocity": 0.7874015748031497,
          "duration": 0.19594575000000702
        },
        {
          "name": "E2",
          "midi": 40,
          "time": 109.45934999999984,
          "velocity": 0.7874015748031497,
          "duration": 0.19594575000000702
        },
        {
          "name": "C2",
          "midi": 36,
          "time": 110.27015999999985,
          "velocity": 0.7874015748031497,
          "duration": 0.19594575000000702
        },
        {
          "name": "F#3",
          "midi": 54,
          "time": 110.27015999999985,
          "velocity": 0.7874015748031497,
          "duration": 0.19594575000000702
        },
        {
          "name": "C2",
          "midi": 36,
          "time": 110.47286249999985,
          "velocity": 0.7874015748031497,
          "duration": 0.19594575000000702
        },
        {
          "name": "F#3",
          "midi": 54,
          "time": 110.47286249999985,
          "velocity": 0.7874015748031497,
          "duration": 0.19594575000000702
        },
        {
          "name": "C2",
          "midi": 36,
          "time": 110.67556499999985,
          "velocity": 0.7874015748031497,
          "duration": 0.19594575000000702
        },
        {
          "name": "F#3",
          "midi": 54,
          "time": 110.67556499999985,
          "velocity": 0.7874015748031497,
          "duration": 0.19594575000000702
        },
        {
          "name": "E2",
          "midi": 40,
          "time": 111.08096999999985,
          "velocity": 0.7874015748031497,
          "duration": 0.19594575000000702
        },
        {
          "name": "G3",
          "midi": 55,
          "time": 111.08096999999985,
          "velocity": 0.7874015748031497,
          "duration": 0.19594575000000702
        },
        {
          "name": "C2",
          "midi": 36,
          "time": 111.89177999999986,
          "velocity": 0.7874015748031497,
          "duration": 0.19594575000000702
        },
        {
          "name": "F#3",
          "midi": 54,
          "time": 111.89177999999986,
          "velocity": 0.7874015748031497,
          "duration": 0.19594575000000702
        },
        {
          "name": "C2",
          "midi": 36,
          "time": 112.09448249999986,
          "velocity": 0.7874015748031497,
          "duration": 0.19594575000000702
        },
        {
          "name": "F#3",
          "midi": 54,
          "time": 112.09448249999986,
          "velocity": 0.7874015748031497,
          "duration": 0.19594575000000702
        },
        {
          "name": "C2",
          "midi": 36,
          "time": 112.29718499999986,
          "velocity": 0.7874015748031497,
          "duration": 0.19594575000000702
        },
        {
          "name": "F#3",
          "midi": 54,
          "time": 112.29718499999986,
          "velocity": 0.7874015748031497,
          "duration": 0.19594575000000702
        },
        {
          "name": "E2",
          "midi": 40,
          "time": 112.70258999999986,
          "velocity": 0.7874015748031497,
          "duration": 0.19594575000000702
        },
        {
          "name": "G3",
          "midi": 55,
          "time": 112.70258999999986,
          "velocity": 0.7874015748031497,
          "duration": 0.19594575000000702
        },
        {
          "name": "G3",
          "midi": 55,
          "time": 113.51339999999986,
          "velocity": 0.7874015748031497,
          "duration": 0.19594575000000702
        },
        {
          "name": "E2",
          "midi": 40,
          "time": 113.51339999999986,
          "velocity": 0.7874015748031497,
          "duration": 0.19594575000000702
        },
        {
          "name": "F#3",
          "midi": 54,
          "time": 113.91880499999986,
          "velocity": 0.7874015748031497,
          "duration": 0.19594575000000702
        },
        {
          "name": "C2",
          "midi": 36,
          "time": 113.91880499999986,
          "velocity": 0.7874015748031497,
          "duration": 0.19594575000000702
        },
        {
          "name": "C2",
          "midi": 36,
          "time": 114.12150749999986,
          "velocity": 0.7874015748031497,
          "duration": 0.19594575000000702
        },
        {
          "name": "F#3",
          "midi": 54,
          "time": 114.12150749999986,
          "velocity": 0.7874015748031497,
          "duration": 0.19594575000000702
        },
        {
          "name": "G3",
          "midi": 55,
          "time": 114.32420999999987,
          "velocity": 0.7874015748031497,
          "duration": 0.19594575000000702
        },
        {
          "name": "E2",
          "midi": 40,
          "time": 114.32420999999987,
          "velocity": 0.7874015748031497,
          "duration": 0.19594575000000702
        },
        {
          "name": "F#3",
          "midi": 54,
          "time": 114.72961499999987,
          "velocity": 0.7874015748031497,
          "duration": 0.19594575000000702
        },
        {
          "name": "C2",
          "midi": 36,
          "time": 114.72961499999987,
          "velocity": 0.7874015748031497,
          "duration": 0.19594575000000702
        },
        {
          "name": "C2",
          "midi": 36,
          "time": 114.93231749999987,
          "velocity": 0.7874015748031497,
          "duration": 0.19594575000000702
        },
        {
          "name": "F#3",
          "midi": 54,
          "time": 114.93231749999987,
          "velocity": 0.7874015748031497,
          "duration": 0.19594575000000702
        },
        {
          "name": "G3",
          "midi": 55,
          "time": 115.13501999999987,
          "velocity": 0.7874015748031497,
          "duration": 0.19594575000000702
        },
        {
          "name": "E2",
          "midi": 40,
          "time": 115.13501999999987,
          "velocity": 0.7874015748031497,
          "duration": 0.19594575000000702
        },
        {
          "name": "C2",
          "midi": 36,
          "time": 115.54042499999987,
          "velocity": 0.7874015748031497,
          "duration": 0.19594575000000702
        },
        {
          "name": "F#3",
          "midi": 54,
          "time": 115.54042499999987,
          "velocity": 0.7874015748031497,
          "duration": 0.19594575000000702
        },
        {
          "name": "C2",
          "midi": 36,
          "time": 115.74312749999987,
          "velocity": 0.7874015748031497,
          "duration": 0.19594575000000702
        },
        {
          "name": "F#3",
          "midi": 54,
          "time": 115.74312749999987,
          "velocity": 0.7874015748031497,
          "duration": 0.19594575000000702
        },
        {
          "name": "G3",
          "midi": 55,
          "time": 115.94582999999987,
          "velocity": 0.7874015748031497,
          "duration": 0.19594575000000702
        },
        {
          "name": "E2",
          "midi": 40,
          "time": 115.94582999999987,
          "velocity": 0.7874015748031497,
          "duration": 0.19594575000000702
        },
        {
          "name": "F#3",
          "midi": 54,
          "time": 116.35123499999987,
          "velocity": 0.7874015748031497,
          "duration": 0.19594575000000702
        },
        {
          "name": "C2",
          "midi": 36,
          "time": 116.35123499999987,
          "velocity": 0.7874015748031497,
          "duration": 0.19594575000000702
        },
        {
          "name": "C2",
          "midi": 36,
          "time": 116.55393749999988,
          "velocity": 0.7874015748031497,
          "duration": 0.19594575000000702
        },
        {
          "name": "F#3",
          "midi": 54,
          "time": 116.55393749999988,
          "velocity": 0.7874015748031497,
          "duration": 0.19594575000000702
        },
        {
          "name": "C2",
          "midi": 36,
          "time": 116.75663999999988,
          "velocity": 0.7874015748031497,
          "duration": 0.19594575000000702
        },
        {
          "name": "F#3",
          "midi": 54,
          "time": 116.75663999999988,
          "velocity": 0.7874015748031497,
          "duration": 0.19594575000000702
        },
        {
          "name": "C2",
          "midi": 36,
          "time": 116.95934249999988,
          "velocity": 0.7874015748031497,
          "duration": 0.19594575000000702
        },
        {
          "name": "F#3",
          "midi": 54,
          "time": 116.95934249999988,
          "velocity": 0.7874015748031497,
          "duration": 0.19594575000000702
        },
        {
          "name": "F#3",
          "midi": 54,
          "time": 117.16204499999988,
          "velocity": 0.7874015748031497,
          "duration": 0.19594575000000702
        },
        {
          "name": "C2",
          "midi": 36,
          "time": 117.16204499999988,
          "velocity": 0.7874015748031497,
          "duration": 0.19594575000000702
        },
        {
          "name": "E2",
          "midi": 40,
          "time": 117.56744999999988,
          "velocity": 0.7874015748031497,
          "duration": 0.19594575000000702
        },
        {
          "name": "G3",
          "midi": 55,
          "time": 117.56744999999988,
          "velocity": 0.7874015748031497,
          "duration": 0.19594575000000702
        },
        {
          "name": "C2",
          "midi": 36,
          "time": 118.37825999999988,
          "velocity": 0.7874015748031497,
          "duration": 0.19594575000000702
        },
        {
          "name": "F#3",
          "midi": 54,
          "time": 118.37825999999988,
          "velocity": 0.7874015748031497,
          "duration": 0.19594575000000702
        },
        {
          "name": "F#3",
          "midi": 54,
          "time": 118.58096249999988,
          "velocity": 0.7874015748031497,
          "duration": 0.19594575000000702
        },
        {
          "name": "C2",
          "midi": 36,
          "time": 118.58096249999988,
          "velocity": 0.7874015748031497,
          "duration": 0.19594575000000702
        },
        {
          "name": "C2",
          "midi": 36,
          "time": 118.78366499999989,
          "velocity": 0.7874015748031497,
          "duration": 0.19594575000000702
        },
        {
          "name": "F#3",
          "midi": 54,
          "time": 118.78366499999989,
          "velocity": 0.7874015748031497,
          "duration": 0.19594575000000702
        },
        {
          "name": "E2",
          "midi": 40,
          "time": 119.18906999999989,
          "velocity": 0.7874015748031497,
          "duration": 0.19594575000000702
        },
        {
          "name": "G3",
          "midi": 55,
          "time": 119.18906999999989,
          "velocity": 0.7874015748031497,
          "duration": 0.19594575000000702
        },
        {
          "name": "F#3",
          "midi": 54,
          "time": 119.99987999999989,
          "velocity": 0.7874015748031497,
          "duration": 0.19594575000000702
        },
        {
          "name": "C2",
          "midi": 36,
          "time": 119.99987999999989,
          "velocity": 0.7874015748031497,
          "duration": 0.19594575000000702
        },
        {
          "name": "F#3",
          "midi": 54,
          "time": 120.20258249999989,
          "velocity": 0.7874015748031497,
          "duration": 0.19594575000000702
        },
        {
          "name": "C2",
          "midi": 36,
          "time": 120.20258249999989,
          "velocity": 0.7874015748031497,
          "duration": 0.19594575000000702
        },
        {
          "name": "C2",
          "midi": 36,
          "time": 120.40528499999989,
          "velocity": 0.7874015748031497,
          "duration": 0.19594575000000702
        },
        {
          "name": "F#3",
          "midi": 54,
          "time": 120.40528499999989,
          "velocity": 0.7874015748031497,
          "duration": 0.19594575000000702
        },
        {
          "name": "E2",
          "midi": 40,
          "time": 120.8106899999999,
          "velocity": 0.7874015748031497,
          "duration": 0.19594575000000702
        },
        {
          "name": "G3",
          "midi": 55,
          "time": 120.8106899999999,
          "velocity": 0.7874015748031497,
          "duration": 0.19594575000000702
        },
        {
          "name": "C2",
          "midi": 36,
          "time": 121.6214999999999,
          "velocity": 0.7874015748031497,
          "duration": 0.19594575000000702
        },
        {
          "name": "F#3",
          "midi": 54,
          "time": 121.6214999999999,
          "velocity": 0.7874015748031497,
          "duration": 0.19594575000000702
        },
        {
          "name": "C2",
          "midi": 36,
          "time": 121.8242024999999,
          "velocity": 0.7874015748031497,
          "duration": 0.19594575000000702
        },
        {
          "name": "F#3",
          "midi": 54,
          "time": 121.8242024999999,
          "velocity": 0.7874015748031497,
          "duration": 0.19594575000000702
        },
        {
          "name": "F#3",
          "midi": 54,
          "time": 122.0269049999999,
          "velocity": 0.7874015748031497,
          "duration": 0.19594575000000702
        },
        {
          "name": "C2",
          "midi": 36,
          "time": 122.0269049999999,
          "velocity": 0.7874015748031497,
          "duration": 0.19594575000000702
        },
        {
          "name": "E2",
          "midi": 40,
          "time": 122.4323099999999,
          "velocity": 0.7874015748031497,
          "duration": 0.19594575000000702
        },
        {
          "name": "G3",
          "midi": 55,
          "time": 122.4323099999999,
          "velocity": 0.7874015748031497,
          "duration": 0.19594575000000702
        },
        {
          "name": "F#3",
          "midi": 54,
          "time": 123.2431199999999,
          "velocity": 0.7874015748031497,
          "duration": 0.19594575000000702
        },
        {
          "name": "C2",
          "midi": 36,
          "time": 123.2431199999999,
          "velocity": 0.7874015748031497,
          "duration": 0.19594575000000702
        },
        {
          "name": "F#3",
          "midi": 54,
          "time": 123.4458224999999,
          "velocity": 0.7874015748031497,
          "duration": 0.19594575000000702
        },
        {
          "name": "C2",
          "midi": 36,
          "time": 123.4458224999999,
          "velocity": 0.7874015748031497,
          "duration": 0.19594575000000702
        },
        {
          "name": "C2",
          "midi": 36,
          "time": 123.6485249999999,
          "velocity": 0.7874015748031497,
          "duration": 0.19594575000000702
        },
        {
          "name": "F#3",
          "midi": 54,
          "time": 123.6485249999999,
          "velocity": 0.7874015748031497,
          "duration": 0.19594575000000702
        },
        {
          "name": "G3",
          "midi": 55,
          "time": 124.05392999999991,
          "velocity": 0.7874015748031497,
          "duration": 0.19594575000000702
        },
        {
          "name": "E2",
          "midi": 40,
          "time": 124.05392999999991,
          "velocity": 0.7874015748031497,
          "duration": 0.19594575000000702
        },
        {
          "name": "C2",
          "midi": 36,
          "time": 124.86473999999991,
          "velocity": 0.7874015748031497,
          "duration": 0.19594575000000702
        },
        {
          "name": "F#3",
          "midi": 54,
          "time": 124.86473999999991,
          "velocity": 0.7874015748031497,
          "duration": 0.19594575000000702
        },
        {
          "name": "C2",
          "midi": 36,
          "time": 125.06744249999991,
          "velocity": 0.7874015748031497,
          "duration": 0.19594575000000702
        },
        {
          "name": "F#3",
          "midi": 54,
          "time": 125.06744249999991,
          "velocity": 0.7874015748031497,
          "duration": 0.19594575000000702
        },
        {
          "name": "F#3",
          "midi": 54,
          "time": 125.27014499999991,
          "velocity": 0.7874015748031497,
          "duration": 0.19594575000000702
        },
        {
          "name": "C2",
          "midi": 36,
          "time": 125.27014499999991,
          "velocity": 0.7874015748031497,
          "duration": 0.19594575000000702
        },
        {
          "name": "E2",
          "midi": 40,
          "time": 125.67554999999992,
          "velocity": 0.7874015748031497,
          "duration": 0.19594575000000702
        },
        {
          "name": "G3",
          "midi": 55,
          "time": 125.67554999999992,
          "velocity": 0.7874015748031497,
          "duration": 0.19594575000000702
        },
        {
          "name": "C2",
          "midi": 36,
          "time": 126.48635999999992,
          "velocity": 0.7874015748031497,
          "duration": 0.19594575000000702
        },
        {
          "name": "F#3",
          "midi": 54,
          "time": 126.48635999999992,
          "velocity": 0.7874015748031497,
          "duration": 0.19594575000000702
        },
        {
          "name": "C2",
          "midi": 36,
          "time": 126.68906249999992,
          "velocity": 0.7874015748031497,
          "duration": 0.19594575000000702
        },
        {
          "name": "F#3",
          "midi": 54,
          "time": 126.68906249999992,
          "velocity": 0.7874015748031497,
          "duration": 0.19594575000000702
        },
        {
          "name": "C2",
          "midi": 36,
          "time": 126.89176499999992,
          "velocity": 0.7874015748031497,
          "duration": 0.19594575000000702
        },
        {
          "name": "F#3",
          "midi": 54,
          "time": 126.89176499999992,
          "velocity": 0.7874015748031497,
          "duration": 0.19594575000000702
        },
        {
          "name": "E2",
          "midi": 40,
          "time": 127.29716999999992,
          "velocity": 0.7874015748031497,
          "duration": 0.19594575000000702
        },
        {
          "name": "G3",
          "midi": 55,
          "time": 127.29716999999992,
          "velocity": 0.7874015748031497,
          "duration": 0.19594575000000702
        },
        {
          "name": "C2",
          "midi": 36,
          "time": 127.49987249999992,
          "velocity": 0.7874015748031497,
          "duration": 0.19594575000000702
        },
        {
          "name": "F#3",
          "midi": 54,
          "time": 127.49987249999992,
          "velocity": 0.7874015748031497,
          "duration": 0.19594575000000702
        },
        {
          "name": "F#3",
          "midi": 54,
          "time": 127.70257499999992,
          "velocity": 0.7874015748031497,
          "duration": 0.19594575000000702
        },
        {
          "name": "C2",
          "midi": 36,
          "time": 127.70257499999992,
          "velocity": 0.7874015748031497,
          "duration": 0.19594575000000702
        },
        {
          "name": "G3",
          "midi": 55,
          "time": 128.10797999999994,
          "velocity": 0.7874015748031497,
          "duration": 0.3986482499999795
        },
        {
          "name": "E2",
          "midi": 40,
          "time": 128.10797999999994,
          "velocity": 0.7874015748031497,
          "duration": 0.3986482499999795
        },
        {
          "name": "C2",
          "midi": 36,
          "time": 128.31068249999993,
          "velocity": 0.7874015748031497,
          "duration": 0.1959457499999928
        },
        {
          "name": "F#3",
          "midi": 54,
          "time": 128.31068249999993,
          "velocity": 0.7874015748031497,
          "duration": 0.1959457499999928
        },
        {
          "name": "F#3",
          "midi": 54,
          "time": 128.51338499999991,
          "velocity": 0.7874015748031497,
          "duration": 0.1959457499999928
        },
        {
          "name": "C2",
          "midi": 36,
          "time": 128.51338499999991,
          "velocity": 0.7874015748031497,
          "duration": 0.1959457499999928
        },
        {
          "name": "G3",
          "midi": 55,
          "time": 128.91878999999992,
          "velocity": 0.7874015748031497,
          "duration": 0.3986482499999795
        },
        {
          "name": "A3",
          "midi": 57,
          "time": 128.91878999999992,
          "velocity": 0.7874015748031497,
          "duration": 0.3986482499999795
        },
        {
          "name": "C#3",
          "midi": 49,
          "time": 128.91878999999992,
          "velocity": 0.7874015748031497,
          "duration": 0.3986482499999795
        },
        {
          "name": "E2",
          "midi": 40,
          "time": 128.91878999999992,
          "velocity": 0.7874015748031497,
          "duration": 0.3986482499999795
        },
        {
          "name": "F#3",
          "midi": 54,
          "time": 129.1214924999999,
          "velocity": 0.7874015748031497,
          "duration": 0.1959457499999928
        },
        {
          "name": "C2",
          "midi": 36,
          "time": 129.1214924999999,
          "velocity": 0.7874015748031497,
          "duration": 0.1959457499999928
        },
        {
          "name": "C2",
          "midi": 36,
          "time": 129.3241949999999,
          "velocity": 0.7874015748031497,
          "duration": 0.1959457499999928
        },
        {
          "name": "F#3",
          "midi": 54,
          "time": 129.3241949999999,
          "velocity": 0.7874015748031497,
          "duration": 0.1959457499999928
        },
        {
          "name": "E2",
          "midi": 40,
          "time": 130.5404099999999,
          "velocity": 0.7874015748031497,
          "duration": 0.3986482500000079
        },
        {
          "name": "E2",
          "midi": 40,
          "time": 132.1620299999999,
          "velocity": 0.7874015748031497,
          "duration": 0.3986482500000079
        },
        {
          "name": "E2",
          "midi": 40,
          "time": 133.7836499999999,
          "velocity": 0.7874015748031497,
          "duration": 0.3986482500000079
        },
        {
          "name": "E2",
          "midi": 40,
          "time": 135.40526999999992,
          "velocity": 0.7874015748031497,
          "duration": 0.3986482500000079
        },
        {
          "name": "E2",
          "midi": 40,
          "time": 137.02688999999992,
          "velocity": 0.7874015748031497,
          "duration": 0.8040532500000097
        },
        {
          "name": "E2",
          "midi": 40,
          "time": 138.64850999999993,
          "velocity": 0.7874015748031497,
          "duration": 0.8040532500000097
        },
        {
          "name": "E2",
          "midi": 40,
          "time": 140.27012999999994,
          "velocity": 0.7874015748031497,
          "duration": 0.8040532500000097
        },
        {
          "name": "E2",
          "midi": 40,
          "time": 141.89174999999994,
          "velocity": 0.7874015748031497,
          "duration": 0.8040532500000097
        },
        {
          "name": "E2",
          "midi": 40,
          "time": 143.51336999999995,
          "velocity": 0.7874015748031497,
          "duration": 0.8040532500000097
        },
        {
          "name": "E2",
          "midi": 40,
          "time": 145.13498999999996,
          "velocity": 0.7874015748031497,
          "duration": 0.8040532500000097
        },
        {
          "name": "E2",
          "midi": 40,
          "time": 146.75660999999997,
          "velocity": 0.7874015748031497,
          "duration": 0.8040532500000097
        },
        {
          "name": "E2",
          "midi": 40,
          "time": 148.37822999999997,
          "velocity": 0.7874015748031497,
          "duration": 0.8040532500000097
        },
        {
          "name": "E2",
          "midi": 40,
          "time": 149.99984999999998,
          "velocity": 0.7874015748031497,
          "duration": 0.8040532500000097
        },
        {
          "name": "E2",
          "midi": 40,
          "time": 151.62147,
          "velocity": 0.7874015748031497,
          "duration": 0.8040532500000097
        },
        {
          "name": "E2",
          "midi": 40,
          "time": 153.24309,
          "velocity": 0.7874015748031497,
          "duration": 0.8040532500000097
        },
        {
          "name": "E2",
          "midi": 40,
          "time": 154.86471,
          "velocity": 0.7874015748031497,
          "duration": 0.3986482500000079
        },
        {
          "name": "E2",
          "midi": 40,
          "time": 155.270115,
          "velocity": 0.7874015748031497,
          "duration": 0.3986482500000079
        },
        {
          "name": "E2",
          "midi": 40,
          "time": 156.48633,
          "velocity": 0.7874015748031497,
          "duration": 0.3986482500000079
        },
        {
          "name": "E2",
          "midi": 40,
          "time": 158.10795000000002,
          "velocity": 0.7874015748031497,
          "duration": 0.3986482500000079
        },
        {
          "name": "E2",
          "midi": 40,
          "time": 159.72957000000002,
          "velocity": 0.7874015748031497,
          "duration": 0.3986482500000079
        },
        {
          "name": "E2",
          "midi": 40,
          "time": 161.35119000000003,
          "velocity": 0.7874015748031497,
          "duration": 0.3986482500000079
        },
        {
          "name": "E2",
          "midi": 40,
          "time": 162.97281000000004,
          "velocity": 0.7874015748031497,
          "duration": 0.8040532500000097
        },
        {
          "name": "E2",
          "midi": 40,
          "time": 164.59443000000005,
          "velocity": 0.7874015748031497,
          "duration": 0.8040532500000097
        },
        {
          "name": "E2",
          "midi": 40,
          "time": 166.21605000000005,
          "velocity": 0.7874015748031497,
          "duration": 0.8040532500000097
        },
        {
          "name": "E2",
          "midi": 40,
          "time": 167.83767000000006,
          "velocity": 0.7874015748031497,
          "duration": 0.8040532500000097
        },
        {
          "name": "E2",
          "midi": 40,
          "time": 169.45929000000007,
          "velocity": 0.7874015748031497,
          "duration": 0.8040532500000097
        },
        {
          "name": "E2",
          "midi": 40,
          "time": 171.08091000000007,
          "velocity": 0.7874015748031497,
          "duration": 0.8040532500000097
        },
        {
          "name": "E2",
          "midi": 40,
          "time": 172.70253000000008,
          "velocity": 0.7874015748031497,
          "duration": 0.8040532500000097
        },
        {
          "name": "E2",
          "midi": 40,
          "time": 174.3241500000001,
          "velocity": 0.7874015748031497,
          "duration": 0.8040532500000097
        },
        {
          "name": "E2",
          "midi": 40,
          "time": 175.9457700000001,
          "velocity": 0.7874015748031497,
          "duration": 0.8040532500000097
        },
        {
          "name": "E2",
          "midi": 40,
          "time": 177.5673900000001,
          "velocity": 0.7874015748031497,
          "duration": 0.8040532500000097
        },
        {
          "name": "E2",
          "midi": 40,
          "time": 179.1890100000001,
          "velocity": 0.7874015748031497,
          "duration": 0.8040532500000097
        },
        {
          "name": "E2",
          "midi": 40,
          "time": 180.40522500000012,
          "velocity": 0.7874015748031497,
          "duration": 0.1959457499999928
        },
        {
          "name": "E2",
          "midi": 40,
          "time": 180.81063000000012,
          "velocity": 0.7874015748031497,
          "duration": 0.3986482499999795
        },
        {
          "name": "E2",
          "midi": 40,
          "time": 181.0133325000001,
          "velocity": 0.7874015748031497,
          "duration": 0.1959457499999928
        },
        {
          "name": "E2",
          "midi": 40,
          "time": 181.2160350000001,
          "velocity": 0.7874015748031497,
          "duration": 0.3986482499999795
        },
        {
          "name": "C2",
          "midi": 36,
          "time": 181.2160350000001,
          "velocity": 0.7874015748031497,
          "duration": 0.1959457499999928
        },
        {
          "name": "E2",
          "midi": 40,
          "time": 181.41873750000008,
          "velocity": 0.7874015748031497,
          "duration": 0.1959457499999928
        },
        {
          "name": "C2",
          "midi": 36,
          "time": 181.41873750000008,
          "velocity": 0.7874015748031497,
          "duration": 0.1959457499999928
        },
        {
          "name": "C2",
          "midi": 36,
          "time": 181.62144000000006,
          "velocity": 0.7874015748031497,
          "duration": 0.1959457499999928
        },
        {
          "name": "F#3",
          "midi": 54,
          "time": 181.62144000000006,
          "velocity": 0.7874015748031497,
          "duration": 0.1959457499999928
        },
        {
          "name": "F#3",
          "midi": 54,
          "time": 181.82414250000005,
          "velocity": 0.7874015748031497,
          "duration": 0.1959457499999928
        },
        {
          "name": "C2",
          "midi": 36,
          "time": 181.82414250000005,
          "velocity": 0.7874015748031497,
          "duration": 0.1959457499999928
        },
        {
          "name": "F#3",
          "midi": 54,
          "time": 182.02684500000004,
          "velocity": 0.7874015748031497,
          "duration": 0.1959457499999928
        },
        {
          "name": "C2",
          "midi": 36,
          "time": 182.02684500000004,
          "velocity": 0.7874015748031497,
          "duration": 0.3986482499999795
        },
        {
          "name": "G3",
          "midi": 55,
          "time": 182.43225,
          "velocity": 0.7874015748031497,
          "duration": 0.1959457499999928
        },
        {
          "name": "E2",
          "midi": 40,
          "time": 182.43225,
          "velocity": 0.7874015748031497,
          "duration": 0.1959457499999928
        },
        {
          "name": "F#3",
          "midi": 54,
          "time": 183.24306,
          "velocity": 0.7874015748031497,
          "duration": 0.1959457499999928
        },
        {
          "name": "C2",
          "midi": 36,
          "time": 183.24306,
          "velocity": 0.7874015748031497,
          "duration": 0.1959457499999928
        },
        {
          "name": "F#3",
          "midi": 54,
          "time": 183.4457625,
          "velocity": 0.7874015748031497,
          "duration": 0.1959457499999928
        },
        {
          "name": "C2",
          "midi": 36,
          "time": 183.4457625,
          "velocity": 0.7874015748031497,
          "duration": 0.1959457499999928
        },
        {
          "name": "C2",
          "midi": 36,
          "time": 183.648465,
          "velocity": 0.7874015748031497,
          "duration": 0.3986482499999795
        },
        {
          "name": "F#3",
          "midi": 54,
          "time": 183.648465,
          "velocity": 0.7874015748031497,
          "duration": 0.1959457499999928
        },
        {
          "name": "E2",
          "midi": 40,
          "time": 184.05386999999996,
          "velocity": 0.7874015748031497,
          "duration": 0.1959457499999928
        },
        {
          "name": "G3",
          "midi": 55,
          "time": 184.05386999999996,
          "velocity": 0.7874015748031497,
          "duration": 0.1959457499999928
        },
        {
          "name": "F#3",
          "midi": 54,
          "time": 184.86467999999996,
          "velocity": 0.7874015748031497,
          "duration": 0.1959457499999928
        },
        {
          "name": "C2",
          "midi": 36,
          "time": 184.86467999999996,
          "velocity": 0.7874015748031497,
          "duration": 0.1959457499999928
        },
        {
          "name": "C2",
          "midi": 36,
          "time": 185.06738249999995,
          "velocity": 0.7874015748031497,
          "duration": 0.1959457499999928
        },
        {
          "name": "F#3",
          "midi": 54,
          "time": 185.06738249999995,
          "velocity": 0.7874015748031497,
          "duration": 0.1959457499999928
        },
        {
          "name": "F#3",
          "midi": 54,
          "time": 185.27008499999994,
          "velocity": 0.7874015748031497,
          "duration": 0.1959457499999928
        },
        {
          "name": "C2",
          "midi": 36,
          "time": 185.27008499999994,
          "velocity": 0.7874015748031497,
          "duration": 0.3986482499999795
        },
        {
          "name": "E2",
          "midi": 40,
          "time": 185.6754899999999,
          "velocity": 0.7874015748031497,
          "duration": 0.1959457499999928
        },
        {
          "name": "G3",
          "midi": 55,
          "time": 185.6754899999999,
          "velocity": 0.7874015748031497,
          "duration": 0.1959457499999928
        },
        {
          "name": "C2",
          "midi": 36,
          "time": 186.48629999999991,
          "velocity": 0.7874015748031497,
          "duration": 0.1959457499999928
        },
        {
          "name": "F#3",
          "midi": 54,
          "time": 186.48629999999991,
          "velocity": 0.7874015748031497,
          "duration": 0.1959457499999928
        },
        {
          "name": "F#3",
          "midi": 54,
          "time": 186.6890024999999,
          "velocity": 0.7874015748031497,
          "duration": 0.1959457499999928
        },
        {
          "name": "C2",
          "midi": 36,
          "time": 186.6890024999999,
          "velocity": 0.7874015748031497,
          "duration": 0.1959457499999928
        },
        {
          "name": "F#3",
          "midi": 54,
          "time": 186.8917049999999,
          "velocity": 0.7874015748031497,
          "duration": 0.1959457499999928
        },
        {
          "name": "C2",
          "midi": 36,
          "time": 186.8917049999999,
          "velocity": 0.7874015748031497,
          "duration": 0.3986482499999795
        },
        {
          "name": "G3",
          "midi": 55,
          "time": 187.29710999999986,
          "velocity": 0.7874015748031497,
          "duration": 0.1959457499999928
        },
        {
          "name": "E2",
          "midi": 40,
          "time": 187.29710999999986,
          "velocity": 0.7874015748031497,
          "duration": 0.1959457499999928
        },
        {
          "name": "F#3",
          "midi": 54,
          "time": 188.10791999999987,
          "velocity": 0.7874015748031497,
          "duration": 0.1959457499999928
        },
        {
          "name": "C2",
          "midi": 36,
          "time": 188.10791999999987,
          "velocity": 0.7874015748031497,
          "duration": 0.1959457499999928
        },
        {
          "name": "C2",
          "midi": 36,
          "time": 188.31062249999985,
          "velocity": 0.7874015748031497,
          "duration": 0.1959457499999928
        },
        {
          "name": "F#3",
          "midi": 54,
          "time": 188.31062249999985,
          "velocity": 0.7874015748031497,
          "duration": 0.1959457499999928
        },
        {
          "name": "F#3",
          "midi": 54,
          "time": 188.51332499999984,
          "velocity": 0.7874015748031497,
          "duration": 0.1959457499999928
        },
        {
          "name": "C2",
          "midi": 36,
          "time": 188.51332499999984,
          "velocity": 0.7874015748031497,
          "duration": 0.3986482499999795
        },
        {
          "name": "E2",
          "midi": 40,
          "time": 188.9187299999998,
          "velocity": 0.7874015748031497,
          "duration": 0.1959457499999928
        },
        {
          "name": "G3",
          "midi": 55,
          "time": 188.9187299999998,
          "velocity": 0.7874015748031497,
          "duration": 0.1959457499999928
        },
        {
          "name": "C2",
          "midi": 36,
          "time": 189.72953999999982,
          "velocity": 0.7874015748031497,
          "duration": 0.1959457499999928
        },
        {
          "name": "F#3",
          "midi": 54,
          "time": 189.72953999999982,
          "velocity": 0.7874015748031497,
          "duration": 0.1959457499999928
        },
        {
          "name": "C2",
          "midi": 36,
          "time": 189.9322424999998,
          "velocity": 0.7874015748031497,
          "duration": 0.1959457499999928
        },
        {
          "name": "F#3",
          "midi": 54,
          "time": 189.9322424999998,
          "velocity": 0.7874015748031497,
          "duration": 0.1959457499999928
        },
        {
          "name": "C2",
          "midi": 36,
          "time": 190.1349449999998,
          "velocity": 0.7874015748031497,
          "duration": 0.1959457499999928
        },
        {
          "name": "F#3",
          "midi": 54,
          "time": 190.1349449999998,
          "velocity": 0.7874015748031497,
          "duration": 0.1959457499999928
        },
        {
          "name": "E2",
          "midi": 40,
          "time": 190.5403499999998,
          "velocity": 0.7874015748031497,
          "duration": 0.1959457499999928
        },
        {
          "name": "G3",
          "midi": 55,
          "time": 190.5403499999998,
          "velocity": 0.7874015748031497,
          "duration": 0.1959457499999928
        },
        {
          "name": "G3",
          "midi": 55,
          "time": 191.3511599999998,
          "velocity": 0.7874015748031497,
          "duration": 0.1959457499999928
        },
        {
          "name": "E2",
          "midi": 40,
          "time": 191.3511599999998,
          "velocity": 0.7874015748031497,
          "duration": 0.1959457499999928
        },
        {
          "name": "F#3",
          "midi": 54,
          "time": 191.7565649999998,
          "velocity": 0.7874015748031497,
          "duration": 0.1959457499999928
        },
        {
          "name": "C2",
          "midi": 36,
          "time": 191.7565649999998,
          "velocity": 0.7874015748031497,
          "duration": 0.1959457499999928
        },
        {
          "name": "C2",
          "midi": 36,
          "time": 191.95926749999978,
          "velocity": 0.7874015748031497,
          "duration": 0.1959457499999928
        },
        {
          "name": "F#3",
          "midi": 54,
          "time": 191.95926749999978,
          "velocity": 0.7874015748031497,
          "duration": 0.1959457499999928
        },
        {
          "name": "G3",
          "midi": 55,
          "time": 192.16196999999977,
          "velocity": 0.7874015748031497,
          "duration": 0.1959457499999928
        },
        {
          "name": "E2",
          "midi": 40,
          "time": 192.16196999999977,
          "velocity": 0.7874015748031497,
          "duration": 0.1959457499999928
        },
        {
          "name": "F#3",
          "midi": 54,
          "time": 192.56737499999977,
          "velocity": 0.7874015748031497,
          "duration": 0.1959457499999928
        },
        {
          "name": "C2",
          "midi": 36,
          "time": 192.56737499999977,
          "velocity": 0.7874015748031497,
          "duration": 0.1959457499999928
        },
        {
          "name": "C2",
          "midi": 36,
          "time": 192.77007749999976,
          "velocity": 0.7874015748031497,
          "duration": 0.1959457499999928
        },
        {
          "name": "F#3",
          "midi": 54,
          "time": 192.77007749999976,
          "velocity": 0.7874015748031497,
          "duration": 0.1959457499999928
        },
        {
          "name": "G3",
          "midi": 55,
          "time": 192.97277999999974,
          "velocity": 0.7874015748031497,
          "duration": 0.1959457499999928
        },
        {
          "name": "E2",
          "midi": 40,
          "time": 192.97277999999974,
          "velocity": 0.7874015748031497,
          "duration": 0.1959457499999928
        },
        {
          "name": "C2",
          "midi": 36,
          "time": 193.37818499999975,
          "velocity": 0.7874015748031497,
          "duration": 0.1959457499999928
        },
        {
          "name": "F#3",
          "midi": 54,
          "time": 193.37818499999975,
          "velocity": 0.7874015748031497,
          "duration": 0.1959457499999928
        },
        {
          "name": "C2",
          "midi": 36,
          "time": 193.58088749999973,
          "velocity": 0.7874015748031497,
          "duration": 0.1959457499999928
        },
        {
          "name": "F#3",
          "midi": 54,
          "time": 193.58088749999973,
          "velocity": 0.7874015748031497,
          "duration": 0.1959457499999928
        },
        {
          "name": "G3",
          "midi": 55,
          "time": 193.78358999999972,
          "velocity": 0.7874015748031497,
          "duration": 0.1959457499999928
        },
        {
          "name": "E2",
          "midi": 40,
          "time": 193.78358999999972,
          "velocity": 0.7874015748031497,
          "duration": 0.1959457499999928
        },
        {
          "name": "F#3",
          "midi": 54,
          "time": 194.18899499999972,
          "velocity": 0.7874015748031497,
          "duration": 0.1959457499999928
        },
        {
          "name": "C2",
          "midi": 36,
          "time": 194.18899499999972,
          "velocity": 0.7874015748031497,
          "duration": 0.1959457499999928
        },
        {
          "name": "G2",
          "midi": 43,
          "time": 194.3916974999997,
          "velocity": 0.7874015748031497,
          "duration": 0.1959457499999928
        },
        {
          "name": "F#3",
          "midi": 54,
          "time": 194.3916974999997,
          "velocity": 0.7874015748031497,
          "duration": 0.1959457499999928
        },
        {
          "name": "C2",
          "midi": 36,
          "time": 194.5943999999997,
          "velocity": 0.7874015748031497,
          "duration": 0.1959457499999928
        },
        {
          "name": "F#3",
          "midi": 54,
          "time": 194.5943999999997,
          "velocity": 0.7874015748031497,
          "duration": 0.1959457499999928
        },
        {
          "name": "C2",
          "midi": 36,
          "time": 194.79710249999968,
          "velocity": 0.7874015748031497,
          "duration": 0.1959457499999928
        },
        {
          "name": "F#3",
          "midi": 54,
          "time": 194.79710249999968,
          "velocity": 0.7874015748031497,
          "duration": 0.1959457499999928
        },
        {
          "name": "F#3",
          "midi": 54,
          "time": 194.99980499999967,
          "velocity": 0.7874015748031497,
          "duration": 0.1959457499999928
        },
        {
          "name": "C2",
          "midi": 36,
          "time": 194.99980499999967,
          "velocity": 0.7874015748031497,
          "duration": 0.1959457499999928
        },
        {
          "name": "E2",
          "midi": 40,
          "time": 195.40520999999967,
          "velocity": 0.7874015748031497,
          "duration": 0.1959457499999928
        },
        {
          "name": "G3",
          "midi": 55,
          "time": 195.40520999999967,
          "velocity": 0.7874015748031497,
          "duration": 0.1959457499999928
        },
        {
          "name": "C2",
          "midi": 36,
          "time": 196.21601999999967,
          "velocity": 0.7874015748031497,
          "duration": 0.1959457499999928
        },
        {
          "name": "F#3",
          "midi": 54,
          "time": 196.21601999999967,
          "velocity": 0.7874015748031497,
          "duration": 0.1959457499999928
        },
        {
          "name": "F#3",
          "midi": 54,
          "time": 196.41872249999966,
          "velocity": 0.7874015748031497,
          "duration": 0.1959457499999928
        },
        {
          "name": "C2",
          "midi": 36,
          "time": 196.41872249999966,
          "velocity": 0.7874015748031497,
          "duration": 0.1959457499999928
        },
        {
          "name": "C2",
          "midi": 36,
          "time": 196.62142499999965,
          "velocity": 0.7874015748031497,
          "duration": 0.1959457499999928
        },
        {
          "name": "F#3",
          "midi": 54,
          "time": 196.62142499999965,
          "velocity": 0.7874015748031497,
          "duration": 0.1959457499999928
        },
        {
          "name": "E2",
          "midi": 40,
          "time": 197.02682999999965,
          "velocity": 0.7874015748031497,
          "duration": 0.1959457499999928
        },
        {
          "name": "G3",
          "midi": 55,
          "time": 197.02682999999965,
          "velocity": 0.7874015748031497,
          "duration": 0.1959457499999928
        },
        {
          "name": "F#3",
          "midi": 54,
          "time": 197.83763999999965,
          "velocity": 0.7874015748031497,
          "duration": 0.1959457499999928
        },
        {
          "name": "C2",
          "midi": 36,
          "time": 197.83763999999965,
          "velocity": 0.7874015748031497,
          "duration": 0.1959457499999928
        },
        {
          "name": "F#3",
          "midi": 54,
          "time": 198.04034249999964,
          "velocity": 0.7874015748031497,
          "duration": 0.1959457499999928
        },
        {
          "name": "C2",
          "midi": 36,
          "time": 198.04034249999964,
          "velocity": 0.7874015748031497,
          "duration": 0.1959457499999928
        },
        {
          "name": "C2",
          "midi": 36,
          "time": 198.24304499999963,
          "velocity": 0.7874015748031497,
          "duration": 0.1959457499999928
        },
        {
          "name": "F#3",
          "midi": 54,
          "time": 198.24304499999963,
          "velocity": 0.7874015748031497,
          "duration": 0.1959457499999928
        },
        {
          "name": "E2",
          "midi": 40,
          "time": 198.64844999999963,
          "velocity": 0.7874015748031497,
          "duration": 0.1959457499999928
        },
        {
          "name": "G3",
          "midi": 55,
          "time": 198.64844999999963,
          "velocity": 0.7874015748031497,
          "duration": 0.1959457499999928
        },
        {
          "name": "C2",
          "midi": 36,
          "time": 199.45925999999963,
          "velocity": 0.7874015748031497,
          "duration": 0.1959457499999928
        },
        {
          "name": "F#3",
          "midi": 54,
          "time": 199.45925999999963,
          "velocity": 0.7874015748031497,
          "duration": 0.1959457499999928
        },
        {
          "name": "C2",
          "midi": 36,
          "time": 199.66196249999962,
          "velocity": 0.7874015748031497,
          "duration": 0.1959457499999928
        },
        {
          "name": "F#3",
          "midi": 54,
          "time": 199.66196249999962,
          "velocity": 0.7874015748031497,
          "duration": 0.1959457499999928
        },
        {
          "name": "F#3",
          "midi": 54,
          "time": 199.8646649999996,
          "velocity": 0.7874015748031497,
          "duration": 0.1959457499999928
        },
        {
          "name": "C2",
          "midi": 36,
          "time": 199.8646649999996,
          "velocity": 0.7874015748031497,
          "duration": 0.1959457499999928
        },
        {
          "name": "E2",
          "midi": 40,
          "time": 200.2700699999996,
          "velocity": 0.7874015748031497,
          "duration": 0.1959457499999928
        },
        {
          "name": "G3",
          "midi": 55,
          "time": 200.2700699999996,
          "velocity": 0.7874015748031497,
          "duration": 0.1959457499999928
        },
        {
          "name": "F#3",
          "midi": 54,
          "time": 201.0808799999996,
          "velocity": 0.7874015748031497,
          "duration": 0.1959457499999928
        },
        {
          "name": "C2",
          "midi": 36,
          "time": 201.0808799999996,
          "velocity": 0.7874015748031497,
          "duration": 0.1959457499999928
        },
        {
          "name": "F#3",
          "midi": 54,
          "time": 201.2835824999996,
          "velocity": 0.7874015748031497,
          "duration": 0.1959457499999928
        },
        {
          "name": "C2",
          "midi": 36,
          "time": 201.2835824999996,
          "velocity": 0.7874015748031497,
          "duration": 0.1959457499999928
        },
        {
          "name": "C2",
          "midi": 36,
          "time": 201.48628499999958,
          "velocity": 0.7874015748031497,
          "duration": 0.1959457499999928
        },
        {
          "name": "F#3",
          "midi": 54,
          "time": 201.48628499999958,
          "velocity": 0.7874015748031497,
          "duration": 0.1959457499999928
        },
        {
          "name": "G3",
          "midi": 55,
          "time": 201.89168999999958,
          "velocity": 0.7874015748031497,
          "duration": 0.1959457499999928
        },
        {
          "name": "E2",
          "midi": 40,
          "time": 201.89168999999958,
          "velocity": 0.7874015748031497,
          "duration": 0.1959457499999928
        },
        {
          "name": "C2",
          "midi": 36,
          "time": 202.7024999999996,
          "velocity": 0.7874015748031497,
          "duration": 0.1959457499999928
        },
        {
          "name": "F#3",
          "midi": 54,
          "time": 202.7024999999996,
          "velocity": 0.7874015748031497,
          "duration": 0.1959457499999928
        },
        {
          "name": "C2",
          "midi": 36,
          "time": 202.90520249999958,
          "velocity": 0.7874015748031497,
          "duration": 0.1959457499999928
        },
        {
          "name": "F#3",
          "midi": 54,
          "time": 202.90520249999958,
          "velocity": 0.7874015748031497,
          "duration": 0.1959457499999928
        },
        {
          "name": "F#3",
          "midi": 54,
          "time": 203.10790499999956,
          "velocity": 0.7874015748031497,
          "duration": 0.1959457499999928
        },
        {
          "name": "C2",
          "midi": 36,
          "time": 203.10790499999956,
          "velocity": 0.7874015748031497,
          "duration": 0.1959457499999928
        },
        {
          "name": "E2",
          "midi": 40,
          "time": 203.51330999999956,
          "velocity": 0.7874015748031497,
          "duration": 0.1959457499999928
        },
        {
          "name": "G3",
          "midi": 55,
          "time": 203.51330999999956,
          "velocity": 0.7874015748031497,
          "duration": 0.1959457499999928
        },
        {
          "name": "G2",
          "midi": 43,
          "time": 230.67544499999957,
          "velocity": 0.7874015748031497,
          "duration": 0.3986482500000079
        },
        {
          "name": "G2",
          "midi": 43,
          "time": 231.2835524999996,
          "velocity": 0.7874015748031497,
          "duration": 0.3986482500000079
        },
        {
          "name": "G2",
          "midi": 43,
          "time": 231.8916599999996,
          "velocity": 0.7874015748031497,
          "duration": 0.3986482500000079
        },
        {
          "name": "E2",
          "midi": 40,
          "time": 232.2970649999996,
          "velocity": 0.7874015748031497,
          "duration": 0.1959457499999928
        },
        {
          "name": "C2",
          "midi": 36,
          "time": 232.4997674999996,
          "velocity": 0.7874015748031497,
          "duration": 0.09459449999999947
        },
        {
          "name": "C2",
          "midi": 36,
          "time": 232.60111874999959,
          "velocity": 0.7874015748031497,
          "duration": 0.09459449999999947
        },
        {
          "name": "C2",
          "midi": 36,
          "time": 232.70246999999958,
          "velocity": 0.7874015748031497,
          "duration": 0.1959457499999928
        },
        {
          "name": "B1",
          "midi": 35,
          "time": 232.90517249999957,
          "velocity": 0.7874015748031497,
          "duration": 0.1959457499999928
        },
        {
          "name": "B1",
          "midi": 35,
          "time": 233.10787499999955,
          "velocity": 0.7874015748031497,
          "duration": 0.1959457499999928
        },
        {
          "name": "A3",
          "midi": 57,
          "time": 233.51327999999955,
          "velocity": 0.7874015748031497,
          "duration": 0.8040532499999529
        },
        {
          "name": "G#2",
          "midi": 44,
          "time": 233.51327999999955,
          "velocity": 0.7874015748031497,
          "duration": 0.1959457499999928
        },
        {
          "name": "G#2",
          "midi": 44,
          "time": 233.71598249999954,
          "velocity": 0.7874015748031497,
          "duration": 0.1959457499999928
        },
        {
          "name": "G#2",
          "midi": 44,
          "time": 233.91868499999953,
          "velocity": 0.7874015748031497,
          "duration": 0.1959457499999928
        },
        {
          "name": "G#2",
          "midi": 44,
          "time": 234.1213874999995,
          "velocity": 0.7874015748031497,
          "duration": 0.1959457499999928
        },
        {
          "name": "E2",
          "midi": 40,
          "time": 234.3240899999995,
          "velocity": 0.7874015748031497,
          "duration": 0.3986482499999795
        },
        {
          "name": "G#2",
          "midi": 44,
          "time": 234.3240899999995,
          "velocity": 0.7874015748031497,
          "duration": 0.1959457499999928
        },
        {
          "name": "G#2",
          "midi": 44,
          "time": 234.5267924999995,
          "velocity": 0.7874015748031497,
          "duration": 0.1959457499999928
        },
        {
          "name": "G#2",
          "midi": 44,
          "time": 234.72949499999947,
          "velocity": 0.7874015748031497,
          "duration": 0.1959457499999928
        },
        {
          "name": "G#2",
          "midi": 44,
          "time": 234.93219749999946,
          "velocity": 0.7874015748031497,
          "duration": 0.1959457499999928
        },
        {
          "name": "G#2",
          "midi": 44,
          "time": 235.13489999999945,
          "velocity": 0.7874015748031497,
          "duration": 0.1959457499999928
        },
        {
          "name": "G#2",
          "midi": 44,
          "time": 235.33760249999943,
          "velocity": 0.7874015748031497,
          "duration": 0.1959457499999928
        },
        {
          "name": "G#2",
          "midi": 44,
          "time": 235.54030499999942,
          "velocity": 0.7874015748031497,
          "duration": 0.1959457499999928
        },
        {
          "name": "G#2",
          "midi": 44,
          "time": 235.7430074999994,
          "velocity": 0.7874015748031497,
          "duration": 0.1959457499999928
        },
        {
          "name": "E2",
          "midi": 40,
          "time": 235.9457099999994,
          "velocity": 0.7874015748031497,
          "duration": 0.3986482499999795
        },
        {
          "name": "G#2",
          "midi": 44,
          "time": 235.9457099999994,
          "velocity": 0.7874015748031497,
          "duration": 0.1959457499999928
        },
        {
          "name": "G#2",
          "midi": 44,
          "time": 236.14841249999938,
          "velocity": 0.7874015748031497,
          "duration": 0.1959457499999928
        },
        {
          "name": "G#2",
          "midi": 44,
          "time": 236.35111499999937,
          "velocity": 0.7874015748031497,
          "duration": 0.1959457499999928
        },
        {
          "name": "G#2",
          "midi": 44,
          "time": 236.55381749999935,
          "velocity": 0.7874015748031497,
          "duration": 0.1959457499999928
        },
        {
          "name": "G#2",
          "midi": 44,
          "time": 236.75651999999934,
          "velocity": 0.7874015748031497,
          "duration": 0.1959457499999928
        },
        {
          "name": "G#2",
          "midi": 44,
          "time": 236.95922249999933,
          "velocity": 0.7874015748031497,
          "duration": 0.1959457499999928
        },
        {
          "name": "G#2",
          "midi": 44,
          "time": 237.16192499999931,
          "velocity": 0.7874015748031497,
          "duration": 0.1959457499999928
        },
        {
          "name": "G#2",
          "midi": 44,
          "time": 237.3646274999993,
          "velocity": 0.7874015748031497,
          "duration": 0.1959457499999928
        },
        {
          "name": "E2",
          "midi": 40,
          "time": 237.5673299999993,
          "velocity": 0.7874015748031497,
          "duration": 0.3986482499999795
        },
        {
          "name": "G#2",
          "midi": 44,
          "time": 237.5673299999993,
          "velocity": 0.7874015748031497,
          "duration": 0.1959457499999928
        },
        {
          "name": "G#2",
          "midi": 44,
          "time": 237.77003249999927,
          "velocity": 0.7874015748031497,
          "duration": 0.1959457499999928
        },
        {
          "name": "G#2",
          "midi": 44,
          "time": 237.97273499999926,
          "velocity": 0.7874015748031497,
          "duration": 0.1959457499999928
        },
        {
          "name": "G#2",
          "midi": 44,
          "time": 238.17543749999925,
          "velocity": 0.7874015748031497,
          "duration": 0.1959457499999928
        },
        {
          "name": "G#2",
          "midi": 44,
          "time": 238.37813999999923,
          "velocity": 0.7874015748031497,
          "duration": 0.1959457499999928
        },
        {
          "name": "G#2",
          "midi": 44,
          "time": 238.58084249999922,
          "velocity": 0.7874015748031497,
          "duration": 0.1959457499999928
        },
        {
          "name": "G#2",
          "midi": 44,
          "time": 238.7835449999992,
          "velocity": 0.7874015748031497,
          "duration": 0.1959457499999928
        },
        {
          "name": "G#2",
          "midi": 44,
          "time": 238.9862474999992,
          "velocity": 0.7874015748031497,
          "duration": 0.1959457499999928
        },
        {
          "name": "E2",
          "midi": 40,
          "time": 239.18894999999918,
          "velocity": 0.7874015748031497,
          "duration": 0.3986482499999795
        },
        {
          "name": "G#2",
          "midi": 44,
          "time": 239.18894999999918,
          "velocity": 0.7874015748031497,
          "duration": 0.1959457499999928
        },
        {
          "name": "G#2",
          "midi": 44,
          "time": 239.39165249999917,
          "velocity": 0.7874015748031497,
          "duration": 0.1959457499999928
        },
        {
          "name": "G#2",
          "midi": 44,
          "time": 239.59435499999915,
          "velocity": 0.7874015748031497,
          "duration": 0.1959457499999928
        },
        {
          "name": "G#2",
          "midi": 44,
          "time": 239.79705749999914,
          "velocity": 0.7874015748031497,
          "duration": 0.1959457499999928
        },
        {
          "name": "G#2",
          "midi": 44,
          "time": 239.99975999999913,
          "velocity": 0.7874015748031497,
          "duration": 0.1959457499999928
        },
        {
          "name": "G#2",
          "midi": 44,
          "time": 240.20246249999911,
          "velocity": 0.7874015748031497,
          "duration": 0.1959457499999928
        },
        {
          "name": "G#2",
          "midi": 44,
          "time": 240.4051649999991,
          "velocity": 0.7874015748031497,
          "duration": 0.1959457499999928
        },
        {
          "name": "G#2",
          "midi": 44,
          "time": 240.6078674999991,
          "velocity": 0.7874015748031497,
          "duration": 0.1959457499999928
        },
        {
          "name": "E2",
          "midi": 40,
          "time": 240.81056999999907,
          "velocity": 0.7874015748031497,
          "duration": 0.3986482499999795
        },
        {
          "name": "G#2",
          "midi": 44,
          "time": 240.81056999999907,
          "velocity": 0.7874015748031497,
          "duration": 0.1959457499999928
        },
        {
          "name": "G#2",
          "midi": 44,
          "time": 241.01327249999906,
          "velocity": 0.7874015748031497,
          "duration": 0.1959457499999928
        },
        {
          "name": "G#2",
          "midi": 44,
          "time": 241.21597499999905,
          "velocity": 0.7874015748031497,
          "duration": 0.1959457499999928
        },
        {
          "name": "G#2",
          "midi": 44,
          "time": 241.41867749999903,
          "velocity": 0.7874015748031497,
          "duration": 0.1959457499999928
        },
        {
          "name": "G#2",
          "midi": 44,
          "time": 241.62137999999902,
          "velocity": 0.7874015748031497,
          "duration": 0.1959457499999928
        },
        {
          "name": "G#2",
          "midi": 44,
          "time": 241.824082499999,
          "velocity": 0.7874015748031497,
          "duration": 0.1959457499999928
        },
        {
          "name": "G#2",
          "midi": 44,
          "time": 242.026784999999,
          "velocity": 0.7874015748031497,
          "duration": 0.1959457499999928
        },
        {
          "name": "G#2",
          "midi": 44,
          "time": 242.22948749999898,
          "velocity": 0.7874015748031497,
          "duration": 0.1959457499999928
        },
        {
          "name": "E2",
          "midi": 40,
          "time": 242.43218999999897,
          "velocity": 0.7874015748031497,
          "duration": 0.3986482499999795
        },
        {
          "name": "G#2",
          "midi": 44,
          "time": 242.43218999999897,
          "velocity": 0.7874015748031497,
          "duration": 0.1959457499999928
        },
        {
          "name": "G#2",
          "midi": 44,
          "time": 242.63489249999895,
          "velocity": 0.7874015748031497,
          "duration": 0.1959457499999928
        },
        {
          "name": "G#2",
          "midi": 44,
          "time": 242.83759499999894,
          "velocity": 0.7874015748031497,
          "duration": 0.1959457499999928
        },
        {
          "name": "G#2",
          "midi": 44,
          "time": 243.04029749999893,
          "velocity": 0.7874015748031497,
          "duration": 0.1959457499999928
        },
        {
          "name": "G#2",
          "midi": 44,
          "time": 243.24299999999891,
          "velocity": 0.7874015748031497,
          "duration": 0.1959457499999928
        },
        {
          "name": "G#2",
          "midi": 44,
          "time": 243.4457024999989,
          "velocity": 0.7874015748031497,
          "duration": 0.1959457499999928
        },
        {
          "name": "G#2",
          "midi": 44,
          "time": 243.6484049999989,
          "velocity": 0.7874015748031497,
          "duration": 0.1959457499999928
        },
        {
          "name": "G#2",
          "midi": 44,
          "time": 243.85110749999888,
          "velocity": 0.7874015748031497,
          "duration": 0.1959457499999928
        },
        {
          "name": "E2",
          "midi": 40,
          "time": 244.05380999999886,
          "velocity": 0.7874015748031497,
          "duration": 0.3986482499999795
        },
        {
          "name": "G#2",
          "midi": 44,
          "time": 244.05380999999886,
          "velocity": 0.7874015748031497,
          "duration": 0.1959457499999928
        },
        {
          "name": "G#2",
          "midi": 44,
          "time": 244.25651249999885,
          "velocity": 0.7874015748031497,
          "duration": 0.1959457499999928
        },
        {
          "name": "G#2",
          "midi": 44,
          "time": 244.45921499999884,
          "velocity": 0.7874015748031497,
          "duration": 0.1959457499999928
        },
        {
          "name": "G#2",
          "midi": 44,
          "time": 244.66191749999882,
          "velocity": 0.7874015748031497,
          "duration": 0.1959457499999928
        },
        {
          "name": "G#2",
          "midi": 44,
          "time": 244.8646199999988,
          "velocity": 0.7874015748031497,
          "duration": 0.1959457499999928
        },
        {
          "name": "G#2",
          "midi": 44,
          "time": 245.0673224999988,
          "velocity": 0.7874015748031497,
          "duration": 0.1959457499999928
        },
        {
          "name": "G#2",
          "midi": 44,
          "time": 245.27002499999878,
          "velocity": 0.7874015748031497,
          "duration": 0.1959457499999928
        },
        {
          "name": "G#2",
          "midi": 44,
          "time": 245.47272749999877,
          "velocity": 0.7874015748031497,
          "duration": 0.1959457499999928
        },
        {
          "name": "E2",
          "midi": 40,
          "time": 245.67542999999876,
          "velocity": 0.7874015748031497,
          "duration": 0.3986482499999795
        },
        {
          "name": "G#2",
          "midi": 44,
          "time": 245.67542999999876,
          "velocity": 0.7874015748031497,
          "duration": 0.1959457499999928
        },
        {
          "name": "G#2",
          "midi": 44,
          "time": 245.87813249999874,
          "velocity": 0.7874015748031497,
          "duration": 0.1959457499999928
        },
        {
          "name": "G#2",
          "midi": 44,
          "time": 246.08083499999873,
          "velocity": 0.7874015748031497,
          "duration": 0.1959457499999928
        },
        {
          "name": "G#2",
          "midi": 44,
          "time": 246.28353749999872,
          "velocity": 0.7874015748031497,
          "duration": 0.1959457499999928
        },
        {
          "name": "G#2",
          "midi": 44,
          "time": 246.4862399999987,
          "velocity": 0.7874015748031497,
          "duration": 0.1959457499999928
        },
        {
          "name": "G#2",
          "midi": 44,
          "time": 246.6889424999987,
          "velocity": 0.7874015748031497,
          "duration": 0.1959457499999928
        },
        {
          "name": "G#2",
          "midi": 44,
          "time": 246.89164499999868,
          "velocity": 0.7874015748031497,
          "duration": 0.1959457499999928
        },
        {
          "name": "G#2",
          "midi": 44,
          "time": 247.09434749999866,
          "velocity": 0.7874015748031497,
          "duration": 0.1959457499999928
        },
        {
          "name": "E2",
          "midi": 40,
          "time": 247.29704999999865,
          "velocity": 0.7874015748031497,
          "duration": 0.3986482499999795
        },
        {
          "name": "G#2",
          "midi": 44,
          "time": 247.29704999999865,
          "velocity": 0.7874015748031497,
          "duration": 0.1959457499999928
        },
        {
          "name": "G#2",
          "midi": 44,
          "time": 247.49975249999864,
          "velocity": 0.7874015748031497,
          "duration": 0.1959457499999928
        },
        {
          "name": "G#2",
          "midi": 44,
          "time": 247.70245499999862,
          "velocity": 0.7874015748031497,
          "duration": 0.1959457499999928
        },
        {
          "name": "G#2",
          "midi": 44,
          "time": 247.9051574999986,
          "velocity": 0.7874015748031497,
          "duration": 0.1959457499999928
        },
        {
          "name": "G#2",
          "midi": 44,
          "time": 248.1078599999986,
          "velocity": 0.7874015748031497,
          "duration": 0.1959457499999928
        },
        {
          "name": "G#2",
          "midi": 44,
          "time": 248.31056249999858,
          "velocity": 0.7874015748031497,
          "duration": 0.1959457499999928
        },
        {
          "name": "G#2",
          "midi": 44,
          "time": 248.51326499999857,
          "velocity": 0.7874015748031497,
          "duration": 0.1959457499999928
        },
        {
          "name": "G#2",
          "midi": 44,
          "time": 248.71596749999856,
          "velocity": 0.7874015748031497,
          "duration": 0.1959457499999928
        },
        {
          "name": "E2",
          "midi": 40,
          "time": 248.91866999999854,
          "velocity": 0.7874015748031497,
          "duration": 0.3986482499999795
        },
        {
          "name": "G#2",
          "midi": 44,
          "time": 248.91866999999854,
          "velocity": 0.7874015748031497,
          "duration": 0.1959457499999928
        },
        {
          "name": "G#2",
          "midi": 44,
          "time": 249.12137249999853,
          "velocity": 0.7874015748031497,
          "duration": 0.1959457499999928
        },
        {
          "name": "G#2",
          "midi": 44,
          "time": 249.32407499999852,
          "velocity": 0.7874015748031497,
          "duration": 0.1959457499999928
        },
        {
          "name": "G#2",
          "midi": 44,
          "time": 249.5267774999985,
          "velocity": 0.7874015748031497,
          "duration": 0.1959457499999928
        },
        {
          "name": "G#2",
          "midi": 44,
          "time": 249.7294799999985,
          "velocity": 0.7874015748031497,
          "duration": 0.1959457499999928
        },
        {
          "name": "G#2",
          "midi": 44,
          "time": 249.93218249999848,
          "velocity": 0.7874015748031497,
          "duration": 0.1959457499999928
        },
        {
          "name": "G#2",
          "midi": 44,
          "time": 250.13488499999846,
          "velocity": 0.7874015748031497,
          "duration": 0.1959457499999928
        },
        {
          "name": "G#2",
          "midi": 44,
          "time": 250.33758749999845,
          "velocity": 0.7874015748031497,
          "duration": 0.1959457499999928
        },
        {
          "name": "E2",
          "midi": 40,
          "time": 250.54028999999844,
          "velocity": 0.7874015748031497,
          "duration": 0.3986482499999795
        },
        {
          "name": "G#2",
          "midi": 44,
          "time": 250.54028999999844,
          "velocity": 0.7874015748031497,
          "duration": 0.1959457499999928
        },
        {
          "name": "G#2",
          "midi": 44,
          "time": 250.74299249999842,
          "velocity": 0.7874015748031497,
          "duration": 0.1959457499999928
        },
        {
          "name": "G#2",
          "midi": 44,
          "time": 250.9456949999984,
          "velocity": 0.7874015748031497,
          "duration": 0.1959457499999928
        },
        {
          "name": "G#2",
          "midi": 44,
          "time": 251.1483974999984,
          "velocity": 0.7874015748031497,
          "duration": 0.1959457499999928
        },
        {
          "name": "G#2",
          "midi": 44,
          "time": 251.35109999999838,
          "velocity": 0.7874015748031497,
          "duration": 0.1959457499999928
        },
        {
          "name": "G#2",
          "midi": 44,
          "time": 251.55380249999837,
          "velocity": 0.7874015748031497,
          "duration": 0.1959457499999928
        },
        {
          "name": "G#2",
          "midi": 44,
          "time": 251.75650499999836,
          "velocity": 0.7874015748031497,
          "duration": 0.1959457499999928
        },
        {
          "name": "G#2",
          "midi": 44,
          "time": 251.95920749999834,
          "velocity": 0.7874015748031497,
          "duration": 0.1959457499999928
        },
        {
          "name": "E2",
          "midi": 40,
          "time": 252.16190999999833,
          "velocity": 0.7874015748031497,
          "duration": 0.3986482499999795
        },
        {
          "name": "G#2",
          "midi": 44,
          "time": 252.16190999999833,
          "velocity": 0.7874015748031497,
          "duration": 0.1959457499999928
        },
        {
          "name": "G#2",
          "midi": 44,
          "time": 252.36461249999832,
          "velocity": 0.7874015748031497,
          "duration": 0.1959457499999928
        },
        {
          "name": "G#2",
          "midi": 44,
          "time": 252.5673149999983,
          "velocity": 0.7874015748031497,
          "duration": 0.1959457499999928
        },
        {
          "name": "G#2",
          "midi": 44,
          "time": 252.7700174999983,
          "velocity": 0.7874015748031497,
          "duration": 0.1959457499999928
        },
        {
          "name": "G#2",
          "midi": 44,
          "time": 252.97271999999828,
          "velocity": 0.7874015748031497,
          "duration": 0.1959457499999928
        },
        {
          "name": "G#2",
          "midi": 44,
          "time": 253.17542249999826,
          "velocity": 0.7874015748031497,
          "duration": 0.1959457499999928
        },
        {
          "name": "G#2",
          "midi": 44,
          "time": 253.37812499999825,
          "velocity": 0.7874015748031497,
          "duration": 0.1959457499999928
        },
        {
          "name": "G#2",
          "midi": 44,
          "time": 253.58082749999824,
          "velocity": 0.7874015748031497,
          "duration": 0.1959457499999928
        },
        {
          "name": "E2",
          "midi": 40,
          "time": 253.78352999999822,
          "velocity": 0.7874015748031497,
          "duration": 0.3986482499999795
        },
        {
          "name": "G#2",
          "midi": 44,
          "time": 253.78352999999822,
          "velocity": 0.7874015748031497,
          "duration": 0.1959457499999928
        },
        {
          "name": "G#2",
          "midi": 44,
          "time": 253.9862324999982,
          "velocity": 0.7874015748031497,
          "duration": 0.1959457499999928
        },
        {
          "name": "G#2",
          "midi": 44,
          "time": 254.1889349999982,
          "velocity": 0.7874015748031497,
          "duration": 0.1959457499999928
        },
        {
          "name": "G#2",
          "midi": 44,
          "time": 254.39163749999818,
          "velocity": 0.7874015748031497,
          "duration": 0.1959457499999928
        },
        {
          "name": "G#2",
          "midi": 44,
          "time": 254.59433999999817,
          "velocity": 0.7874015748031497,
          "duration": 0.1959457499999928
        },
        {
          "name": "G#2",
          "midi": 44,
          "time": 254.79704249999816,
          "velocity": 0.7874015748031497,
          "duration": 0.1959457499999928
        },
        {
          "name": "G#2",
          "midi": 44,
          "time": 254.99974499999814,
          "velocity": 0.7874015748031497,
          "duration": 0.1959457499999928
        },
        {
          "name": "G#2",
          "midi": 44,
          "time": 255.20244749999813,
          "velocity": 0.7874015748031497,
          "duration": 0.1959457499999928
        },
        {
          "name": "E2",
          "midi": 40,
          "time": 255.40514999999812,
          "velocity": 0.7874015748031497,
          "duration": 0.3986482499999795
        },
        {
          "name": "G#2",
          "midi": 44,
          "time": 255.40514999999812,
          "velocity": 0.7874015748031497,
          "duration": 0.1959457499999928
        },
        {
          "name": "G#2",
          "midi": 44,
          "time": 255.6078524999981,
          "velocity": 0.7874015748031497,
          "duration": 0.1959457499999928
        },
        {
          "name": "G#2",
          "midi": 44,
          "time": 255.8105549999981,
          "velocity": 0.7874015748031497,
          "duration": 0.19594575000002123
        },
        {
          "name": "G#2",
          "midi": 44,
          "time": 256.01325749999813,
          "velocity": 0.7874015748031497,
          "duration": 0.19594575000002123
        },
        {
          "name": "G#2",
          "midi": 44,
          "time": 256.2159599999982,
          "velocity": 0.7874015748031497,
          "duration": 0.19594575000002123
        },
        {
          "name": "G#2",
          "midi": 44,
          "time": 256.4186624999982,
          "velocity": 0.7874015748031497,
          "duration": 0.19594575000002123
        },
        {
          "name": "G#2",
          "midi": 44,
          "time": 256.62136499999826,
          "velocity": 0.7874015748031497,
          "duration": 0.19594575000002123
        },
        {
          "name": "G#2",
          "midi": 44,
          "time": 256.8240674999983,
          "velocity": 0.7874015748031497,
          "duration": 0.19594575000002123
        },
        {
          "name": "E2",
          "midi": 40,
          "time": 257.02676999999835,
          "velocity": 0.7874015748031497,
          "duration": 0.39864825000006476
        },
        {
          "name": "G#2",
          "midi": 44,
          "time": 257.02676999999835,
          "velocity": 0.7874015748031497,
          "duration": 0.19594575000002123
        },
        {
          "name": "G#2",
          "midi": 44,
          "time": 257.2294724999984,
          "velocity": 0.7874015748031497,
          "duration": 0.19594575000002123
        },
        {
          "name": "G#2",
          "midi": 44,
          "time": 257.43217499999844,
          "velocity": 0.7874015748031497,
          "duration": 0.19594575000002123
        },
        {
          "name": "G#2",
          "midi": 44,
          "time": 257.6348774999985,
          "velocity": 0.7874015748031497,
          "duration": 0.19594575000002123
        },
        {
          "name": "E2",
          "midi": 40,
          "time": 257.8375799999985,
          "velocity": 0.7874015748031497,
          "duration": 0.19594575000002123
        },
        {
          "name": "G#2",
          "midi": 44,
          "time": 257.8375799999985,
          "velocity": 0.7874015748031497,
          "duration": 0.19594575000002123
        },
        {
          "name": "E2",
          "midi": 40,
          "time": 258.04028249999857,
          "velocity": 0.7874015748031497,
          "duration": 0.19594575000002123
        },
        {
          "name": "G#2",
          "midi": 44,
          "time": 258.04028249999857,
          "velocity": 0.7874015748031497,
          "duration": 0.19594575000002123
        },
        {
          "name": "E2",
          "midi": 40,
          "time": 258.2429849999986,
          "velocity": 0.7874015748031497,
          "duration": 0.3986482500000079
        },
        {
          "name": "G#2",
          "midi": 44,
          "time": 258.2429849999986,
          "velocity": 0.7874015748031497,
          "duration": 0.3986482500000079
        },
        {
          "name": "A3",
          "midi": 57,
          "time": 259.45919999999865,
          "velocity": 0.7874015748031497,
          "duration": 0.8040532500001518
        },
        {
          "name": "G#2",
          "midi": 44,
          "time": 259.45919999999865,
          "velocity": 0.7874015748031497,
          "duration": 0.19594575000002123
        },
        {
          "name": "G#2",
          "midi": 44,
          "time": 259.6619024999987,
          "velocity": 0.7874015748031497,
          "duration": 0.19594575000002123
        },
        {
          "name": "G#2",
          "midi": 44,
          "time": 259.86460499999873,
          "velocity": 0.7874015748031497,
          "duration": 0.19594575000002123
        },
        {
          "name": "G#2",
          "midi": 44,
          "time": 260.0673074999988,
          "velocity": 0.7874015748031497,
          "duration": 0.19594575000002123
        },
        {
          "name": "E2",
          "midi": 40,
          "time": 260.2700099999988,
          "velocity": 0.7874015748031497,
          "duration": 0.39864825000006476
        },
        {
          "name": "G#2",
          "midi": 44,
          "time": 260.2700099999988,
          "velocity": 0.7874015748031497,
          "duration": 0.19594575000002123
        },
        {
          "name": "G#2",
          "midi": 44,
          "time": 260.47271249999886,
          "velocity": 0.7874015748031497,
          "duration": 0.19594575000002123
        },
        {
          "name": "G#2",
          "midi": 44,
          "time": 260.6754149999989,
          "velocity": 0.7874015748031497,
          "duration": 0.19594575000002123
        },
        {
          "name": "G#2",
          "midi": 44,
          "time": 260.87811749999895,
          "velocity": 0.7874015748031497,
          "duration": 0.19594575000002123
        },
        {
          "name": "G#2",
          "midi": 44,
          "time": 261.080819999999,
          "velocity": 0.7874015748031497,
          "duration": 0.19594575000002123
        },
        {
          "name": "G#2",
          "midi": 44,
          "time": 261.28352249999904,
          "velocity": 0.7874015748031497,
          "duration": 0.19594575000002123
        },
        {
          "name": "G#2",
          "midi": 44,
          "time": 261.4862249999991,
          "velocity": 0.7874015748031497,
          "duration": 0.19594575000002123
        },
        {
          "name": "G#2",
          "midi": 44,
          "time": 261.6889274999991,
          "velocity": 0.7874015748031497,
          "duration": 0.19594575000002123
        },
        {
          "name": "E2",
          "midi": 40,
          "time": 261.89162999999917,
          "velocity": 0.7874015748031497,
          "duration": 0.39864825000006476
        },
        {
          "name": "G#2",
          "midi": 44,
          "time": 261.89162999999917,
          "velocity": 0.7874015748031497,
          "duration": 0.19594575000002123
        },
        {
          "name": "G#2",
          "midi": 44,
          "time": 262.0943324999992,
          "velocity": 0.7874015748031497,
          "duration": 0.19594575000002123
        },
        {
          "name": "G#2",
          "midi": 44,
          "time": 262.29703499999925,
          "velocity": 0.7874015748031497,
          "duration": 0.19594575000002123
        },
        {
          "name": "G#2",
          "midi": 44,
          "time": 262.4997374999993,
          "velocity": 0.7874015748031497,
          "duration": 0.19594575000002123
        },
        {
          "name": "G#2",
          "midi": 44,
          "time": 262.70243999999934,
          "velocity": 0.7874015748031497,
          "duration": 0.19594575000002123
        },
        {
          "name": "G#2",
          "midi": 44,
          "time": 262.9051424999994,
          "velocity": 0.7874015748031497,
          "duration": 0.19594575000002123
        },
        {
          "name": "G#2",
          "midi": 44,
          "time": 263.10784499999943,
          "velocity": 0.7874015748031497,
          "duration": 0.19594575000002123
        },
        {
          "name": "G#2",
          "midi": 44,
          "time": 263.3105474999995,
          "velocity": 0.7874015748031497,
          "duration": 0.19594575000002123
        },
        {
          "name": "E2",
          "midi": 40,
          "time": 263.5132499999995,
          "velocity": 0.7874015748031497,
          "duration": 0.39864825000006476
        },
        {
          "name": "G#2",
          "midi": 44,
          "time": 263.5132499999995,
          "velocity": 0.7874015748031497,
          "duration": 0.19594575000002123
        },
        {
          "name": "G#2",
          "midi": 44,
          "time": 263.71595249999956,
          "velocity": 0.7874015748031497,
          "duration": 0.19594575000002123
        },
        {
          "name": "G#2",
          "midi": 44,
          "time": 263.9186549999996,
          "velocity": 0.7874015748031497,
          "duration": 0.19594575000002123
        },
        {
          "name": "G#2",
          "midi": 44,
          "time": 264.12135749999965,
          "velocity": 0.7874015748031497,
          "duration": 0.19594575000002123
        },
        {
          "name": "G#2",
          "midi": 44,
          "time": 264.3240599999997,
          "velocity": 0.7874015748031497,
          "duration": 0.19594575000002123
        },
        {
          "name": "G#2",
          "midi": 44,
          "time": 264.52676249999973,
          "velocity": 0.7874015748031497,
          "duration": 0.19594575000002123
        },
        {
          "name": "G#2",
          "midi": 44,
          "time": 264.7294649999998,
          "velocity": 0.7874015748031497,
          "duration": 0.19594575000002123
        },
        {
          "name": "G#2",
          "midi": 44,
          "time": 264.9321674999998,
          "velocity": 0.7874015748031497,
          "duration": 0.19594575000002123
        },
        {
          "name": "E2",
          "midi": 40,
          "time": 265.13486999999986,
          "velocity": 0.7874015748031497,
          "duration": 0.39864825000006476
        },
        {
          "name": "G#2",
          "midi": 44,
          "time": 265.13486999999986,
          "velocity": 0.7874015748031497,
          "duration": 0.19594575000002123
        },
        {
          "name": "G#2",
          "midi": 44,
          "time": 265.3375724999999,
          "velocity": 0.7874015748031497,
          "duration": 0.19594575000002123
        },
        {
          "name": "G#2",
          "midi": 44,
          "time": 265.54027499999995,
          "velocity": 0.7874015748031497,
          "duration": 0.19594575000002123
        },
        {
          "name": "G#2",
          "midi": 44,
          "time": 265.7429775,
          "velocity": 0.7874015748031497,
          "duration": 0.19594575000002123
        },
        {
          "name": "G#2",
          "midi": 44,
          "time": 265.94568000000004,
          "velocity": 0.7874015748031497,
          "duration": 0.19594575000002123
        },
        {
          "name": "A3",
          "midi": 57,
          "time": 265.94568000000004,
          "velocity": 0.7874015748031497,
          "duration": 0.8040532500001518
        },
        {
          "name": "G#2",
          "midi": 44,
          "time": 266.1483825000001,
          "velocity": 0.7874015748031497,
          "duration": 0.19594575000002123
        },
        {
          "name": "G#2",
          "midi": 44,
          "time": 266.3510850000001,
          "velocity": 0.7874015748031497,
          "duration": 0.19594575000002123
        },
        {
          "name": "G#2",
          "midi": 44,
          "time": 266.55378750000017,
          "velocity": 0.7874015748031497,
          "duration": 0.19594575000002123
        },
        {
          "name": "E2",
          "midi": 40,
          "time": 266.7564900000002,
          "velocity": 0.7874015748031497,
          "duration": 0.39864825000006476
        },
        {
          "name": "G#2",
          "midi": 44,
          "time": 266.7564900000002,
          "velocity": 0.7874015748031497,
          "duration": 0.19594575000002123
        },
        {
          "name": "G#2",
          "midi": 44,
          "time": 266.95919250000026,
          "velocity": 0.7874015748031497,
          "duration": 0.19594575000002123
        },
        {
          "name": "G#2",
          "midi": 44,
          "time": 267.1618950000003,
          "velocity": 0.7874015748031497,
          "duration": 0.19594575000002123
        },
        {
          "name": "G#2",
          "midi": 44,
          "time": 267.36459750000034,
          "velocity": 0.7874015748031497,
          "duration": 0.19594575000002123
        },
        {
          "name": "G#2",
          "midi": 44,
          "time": 267.5673000000004,
          "velocity": 0.7874015748031497,
          "duration": 0.19594575000002123
        },
        {
          "name": "G#2",
          "midi": 44,
          "time": 267.77000250000043,
          "velocity": 0.7874015748031497,
          "duration": 0.19594575000002123
        },
        {
          "name": "G#2",
          "midi": 44,
          "time": 267.9727050000005,
          "velocity": 0.7874015748031497,
          "duration": 0.19594575000002123
        },
        {
          "name": "G#2",
          "midi": 44,
          "time": 268.1754075000005,
          "velocity": 0.7874015748031497,
          "duration": 0.19594575000002123
        },
        {
          "name": "E2",
          "midi": 40,
          "time": 268.37811000000056,
          "velocity": 0.7874015748031497,
          "duration": 0.39864825000006476
        },
        {
          "name": "G#2",
          "midi": 44,
          "time": 268.37811000000056,
          "velocity": 0.7874015748031497,
          "duration": 0.19594575000002123
        },
        {
          "name": "G#2",
          "midi": 44,
          "time": 268.5808125000006,
          "velocity": 0.7874015748031497,
          "duration": 0.19594575000002123
        },
        {
          "name": "G#2",
          "midi": 44,
          "time": 268.78351500000065,
          "velocity": 0.7874015748031497,
          "duration": 0.19594575000002123
        },
        {
          "name": "G#2",
          "midi": 44,
          "time": 268.9862175000007,
          "velocity": 0.7874015748031497,
          "duration": 0.19594575000002123
        },
        {
          "name": "G#2",
          "midi": 44,
          "time": 269.18892000000073,
          "velocity": 0.7874015748031497,
          "duration": 0.19594575000002123
        },
        {
          "name": "G#2",
          "midi": 44,
          "time": 269.3916225000008,
          "velocity": 0.7874015748031497,
          "duration": 0.19594575000002123
        },
        {
          "name": "G#2",
          "midi": 44,
          "time": 269.5943250000008,
          "velocity": 0.7874015748031497,
          "duration": 0.19594575000002123
        },
        {
          "name": "G#2",
          "midi": 44,
          "time": 269.79702750000087,
          "velocity": 0.7874015748031497,
          "duration": 0.19594575000002123
        },
        {
          "name": "E2",
          "midi": 40,
          "time": 269.9997300000009,
          "velocity": 0.7874015748031497,
          "duration": 0.39864825000006476
        },
        {
          "name": "G#2",
          "midi": 44,
          "time": 269.9997300000009,
          "velocity": 0.7874015748031497,
          "duration": 0.19594575000002123
        },
        {
          "name": "G#2",
          "midi": 44,
          "time": 270.20243250000095,
          "velocity": 0.7874015748031497,
          "duration": 0.19594575000002123
        },
        {
          "name": "G#2",
          "midi": 44,
          "time": 270.405135000001,
          "velocity": 0.7874015748031497,
          "duration": 0.19594575000002123
        },
        {
          "name": "G#2",
          "midi": 44,
          "time": 270.60783750000104,
          "velocity": 0.7874015748031497,
          "duration": 0.19594575000002123
        },
        {
          "name": "G#2",
          "midi": 44,
          "time": 270.8105400000011,
          "velocity": 0.7874015748031497,
          "duration": 0.19594575000002123
        },
        {
          "name": "G#2",
          "midi": 44,
          "time": 271.0132425000011,
          "velocity": 0.7874015748031497,
          "duration": 0.19594575000002123
        },
        {
          "name": "G#2",
          "midi": 44,
          "time": 271.21594500000117,
          "velocity": 0.7874015748031497,
          "duration": 0.19594575000002123
        },
        {
          "name": "G#2",
          "midi": 44,
          "time": 271.4186475000012,
          "velocity": 0.7874015748031497,
          "duration": 0.19594575000002123
        },
        {
          "name": "E2",
          "midi": 40,
          "time": 271.62135000000126,
          "velocity": 0.7874015748031497,
          "duration": 0.39864825000006476
        },
        {
          "name": "G#2",
          "midi": 44,
          "time": 271.62135000000126,
          "velocity": 0.7874015748031497,
          "duration": 0.19594575000002123
        },
        {
          "name": "G#2",
          "midi": 44,
          "time": 271.8240525000013,
          "velocity": 0.7874015748031497,
          "duration": 0.19594575000002123
        },
        {
          "name": "G#2",
          "midi": 44,
          "time": 272.02675500000134,
          "velocity": 0.7874015748031497,
          "duration": 0.19594575000002123
        },
        {
          "name": "G#2",
          "midi": 44,
          "time": 272.2294575000014,
          "velocity": 0.7874015748031497,
          "duration": 0.19594575000002123
        },
        {
          "name": "G#2",
          "midi": 44,
          "time": 272.43216000000143,
          "velocity": 0.7874015748031497,
          "duration": 0.19594575000002123
        },
        {
          "name": "A3",
          "midi": 57,
          "time": 272.43216000000143,
          "velocity": 0.7874015748031497,
          "duration": 0.8040532500001518
        },
        {
          "name": "G#2",
          "midi": 44,
          "time": 272.6348625000015,
          "velocity": 0.7874015748031497,
          "duration": 0.19594575000002123
        },
        {
          "name": "G#2",
          "midi": 44,
          "time": 272.8375650000015,
          "velocity": 0.7874015748031497,
          "duration": 0.19594575000002123
        },
        {
          "name": "G#2",
          "midi": 44,
          "time": 273.04026750000156,
          "velocity": 0.7874015748031497,
          "duration": 0.19594575000002123
        },
        {
          "name": "E2",
          "midi": 40,
          "time": 273.2429700000016,
          "velocity": 0.7874015748031497,
          "duration": 0.39864825000006476
        },
        {
          "name": "G#2",
          "midi": 44,
          "time": 273.2429700000016,
          "velocity": 0.7874015748031497,
          "duration": 0.19594575000002123
        },
        {
          "name": "G#2",
          "midi": 44,
          "time": 273.44567250000165,
          "velocity": 0.7874015748031497,
          "duration": 0.19594575000002123
        },
        {
          "name": "G#2",
          "midi": 44,
          "time": 273.6483750000017,
          "velocity": 0.7874015748031497,
          "duration": 0.19594575000002123
        },
        {
          "name": "G#2",
          "midi": 44,
          "time": 273.85107750000174,
          "velocity": 0.7874015748031497,
          "duration": 0.19594575000002123
        },
        {
          "name": "G#2",
          "midi": 44,
          "time": 274.0537800000018,
          "velocity": 0.7874015748031497,
          "duration": 0.19594575000002123
        },
        {
          "name": "G#2",
          "midi": 44,
          "time": 274.2564825000018,
          "velocity": 0.7874015748031497,
          "duration": 0.19594575000002123
        },
        {
          "name": "G#2",
          "midi": 44,
          "time": 274.45918500000187,
          "velocity": 0.7874015748031497,
          "duration": 0.19594575000002123
        },
        {
          "name": "G#2",
          "midi": 44,
          "time": 274.6618875000019,
          "velocity": 0.7874015748031497,
          "duration": 0.19594575000002123
        },
        {
          "name": "E2",
          "midi": 40,
          "time": 274.86459000000195,
          "velocity": 0.7874015748031497,
          "duration": 0.39864825000006476
        },
        {
          "name": "G#2",
          "midi": 44,
          "time": 274.86459000000195,
          "velocity": 0.7874015748031497,
          "duration": 0.19594575000002123
        },
        {
          "name": "G#2",
          "midi": 44,
          "time": 275.067292500002,
          "velocity": 0.7874015748031497,
          "duration": 0.19594575000002123
        },
        {
          "name": "G#2",
          "midi": 44,
          "time": 275.26999500000204,
          "velocity": 0.7874015748031497,
          "duration": 0.19594575000002123
        },
        {
          "name": "G#2",
          "midi": 44,
          "time": 275.4726975000021,
          "velocity": 0.7874015748031497,
          "duration": 0.19594575000002123
        },
        {
          "name": "G#2",
          "midi": 44,
          "time": 275.6754000000021,
          "velocity": 0.7874015748031497,
          "duration": 0.19594575000002123
        },
        {
          "name": "G#2",
          "midi": 44,
          "time": 275.87810250000217,
          "velocity": 0.7874015748031497,
          "duration": 0.19594575000002123
        },
        {
          "name": "G#2",
          "midi": 44,
          "time": 276.0808050000022,
          "velocity": 0.7874015748031497,
          "duration": 0.19594575000002123
        },
        {
          "name": "G#2",
          "midi": 44,
          "time": 276.28350750000226,
          "velocity": 0.7874015748031497,
          "duration": 0.19594575000002123
        },
        {
          "name": "E2",
          "midi": 40,
          "time": 276.4862100000023,
          "velocity": 0.7874015748031497,
          "duration": 0.39864825000006476
        },
        {
          "name": "G#2",
          "midi": 44,
          "time": 276.4862100000023,
          "velocity": 0.7874015748031497,
          "duration": 0.19594575000002123
        },
        {
          "name": "G#2",
          "midi": 44,
          "time": 276.68891250000235,
          "velocity": 0.7874015748031497,
          "duration": 0.19594575000002123
        },
        {
          "name": "G#2",
          "midi": 44,
          "time": 276.8916150000024,
          "velocity": 0.7874015748031497,
          "duration": 0.19594575000002123
        },
        {
          "name": "G#2",
          "midi": 44,
          "time": 277.09431750000243,
          "velocity": 0.7874015748031497,
          "duration": 0.19594575000002123
        },
        {
          "name": "G#2",
          "midi": 44,
          "time": 277.2970200000025,
          "velocity": 0.7874015748031497,
          "duration": 0.19594575000002123
        },
        {
          "name": "G#2",
          "midi": 44,
          "time": 277.4997225000025,
          "velocity": 0.7874015748031497,
          "duration": 0.19594575000002123
        },
        {
          "name": "G#2",
          "midi": 44,
          "time": 277.70242500000256,
          "velocity": 0.7874015748031497,
          "duration": 0.19594575000002123
        },
        {
          "name": "G#2",
          "midi": 44,
          "time": 277.9051275000026,
          "velocity": 0.7874015748031497,
          "duration": 0.19594575000002123
        },
        {
          "name": "E2",
          "midi": 40,
          "time": 278.10783000000265,
          "velocity": 0.7874015748031497,
          "duration": 0.39864825000006476
        },
        {
          "name": "G#2",
          "midi": 44,
          "time": 278.10783000000265,
          "velocity": 0.7874015748031497,
          "duration": 0.19594575000002123
        },
        {
          "name": "A3",
          "midi": 57,
          "time": 278.10783000000265,
          "velocity": 0.7874015748031497,
          "duration": 0.19594575000002123
        },
        {
          "name": "G#2",
          "midi": 44,
          "time": 278.3105325000027,
          "velocity": 0.7874015748031497,
          "duration": 0.19594575000002123
        },
        {
          "name": "A3",
          "midi": 57,
          "time": 278.3105325000027,
          "velocity": 0.7874015748031497,
          "duration": 0.19594575000002123
        },
        {
          "name": "G#2",
          "midi": 44,
          "time": 278.51323500000274,
          "velocity": 0.7874015748031497,
          "duration": 0.19594575000002123
        },
        {
          "name": "A3",
          "midi": 57,
          "time": 278.51323500000274,
          "velocity": 0.7874015748031497,
          "duration": 0.39864825000006476
        },
        {
          "name": "G#2",
          "midi": 44,
          "time": 278.7159375000028,
          "velocity": 0.7874015748031497,
          "duration": 0.19594575000002123
        },
        {
          "name": "G#2",
          "midi": 44,
          "time": 278.9186400000028,
          "velocity": 0.7874015748031497,
          "duration": 0.19594575000002123
        },
        {
          "name": "G#2",
          "midi": 44,
          "time": 279.12134250000287,
          "velocity": 0.7874015748031497,
          "duration": 0.19594575000002123
        },
        {
          "name": "G#2",
          "midi": 44,
          "time": 279.3240450000029,
          "velocity": 0.7874015748031497,
          "duration": 0.19594575000002123
        },
        {
          "name": "G#2",
          "midi": 44,
          "time": 279.52674750000295,
          "velocity": 0.7874015748031497,
          "duration": 0.19594575000002123
        },
        {
          "name": "E2",
          "midi": 40,
          "time": 279.729450000003,
          "velocity": 0.7874015748031497,
          "duration": 0.39864825000006476
        },
        {
          "name": "G#2",
          "midi": 44,
          "time": 279.729450000003,
          "velocity": 0.7874015748031497,
          "duration": 0.19594575000002123
        },
        {
          "name": "G#2",
          "midi": 44,
          "time": 279.93215250000304,
          "velocity": 0.7874015748031497,
          "duration": 0.19594575000002123
        },
        {
          "name": "G#2",
          "midi": 44,
          "time": 280.1348550000031,
          "velocity": 0.7874015748031497,
          "duration": 0.19594575000002123
        },
        {
          "name": "G#2",
          "midi": 44,
          "time": 280.33755750000313,
          "velocity": 0.7874015748031497,
          "duration": 0.19594575000002123
        },
        {
          "name": "G#2",
          "midi": 44,
          "time": 280.5402600000032,
          "velocity": 0.7874015748031497,
          "duration": 0.19594575000002123
        },
        {
          "name": "G#2",
          "midi": 44,
          "time": 280.7429625000032,
          "velocity": 0.7874015748031497,
          "duration": 0.19594575000002123
        },
        {
          "name": "G#2",
          "midi": 44,
          "time": 280.94566500000326,
          "velocity": 0.7874015748031497,
          "duration": 0.19594575000002123
        },
        {
          "name": "G#2",
          "midi": 44,
          "time": 281.1483675000033,
          "velocity": 0.7874015748031497,
          "duration": 0.19594575000002123
        },
        {
          "name": "E2",
          "midi": 40,
          "time": 281.35107000000335,
          "velocity": 0.7874015748031497,
          "duration": 0.39864825000006476
        },
        {
          "name": "G#2",
          "midi": 44,
          "time": 281.35107000000335,
          "velocity": 0.7874015748031497,
          "duration": 0.19594575000002123
        },
        {
          "name": "G#2",
          "midi": 44,
          "time": 281.5537725000034,
          "velocity": 0.7874015748031497,
          "duration": 0.19594575000002123
        },
        {
          "name": "G#2",
          "midi": 44,
          "time": 281.75647500000343,
          "velocity": 0.7874015748031497,
          "duration": 0.19594575000002123
        },
        {
          "name": "G#2",
          "midi": 44,
          "time": 281.9591775000035,
          "velocity": 0.7874015748031497,
          "duration": 0.19594575000002123
        },
        {
          "name": "G#2",
          "midi": 44,
          "time": 282.1618800000035,
          "velocity": 0.7874015748031497,
          "duration": 0.19594575000002123
        },
        {
          "name": "G#2",
          "midi": 44,
          "time": 282.36458250000356,
          "velocity": 0.7874015748031497,
          "duration": 0.19594575000002123
        },
        {
          "name": "G#2",
          "midi": 44,
          "time": 282.5672850000036,
          "velocity": 0.7874015748031497,
          "duration": 0.19594575000002123
        },
        {
          "name": "G#2",
          "midi": 44,
          "time": 282.76998750000365,
          "velocity": 0.7874015748031497,
          "duration": 0.19594575000002123
        },
        {
          "name": "E2",
          "midi": 40,
          "time": 282.9726900000037,
          "velocity": 0.7874015748031497,
          "duration": 0.39864825000006476
        },
        {
          "name": "G#2",
          "midi": 44,
          "time": 282.9726900000037,
          "velocity": 0.7874015748031497,
          "duration": 0.19594575000002123
        },
        {
          "name": "G#2",
          "midi": 44,
          "time": 283.17539250000374,
          "velocity": 0.7874015748031497,
          "duration": 0.19594575000002123
        },
        {
          "name": "G#2",
          "midi": 44,
          "time": 283.3780950000038,
          "velocity": 0.7874015748031497,
          "duration": 0.19594575000002123
        },
        {
          "name": "G#2",
          "midi": 44,
          "time": 283.5807975000038,
          "velocity": 0.7874015748031497,
          "duration": 0.19594575000002123
        },
        {
          "name": "G#2",
          "midi": 44,
          "time": 283.78350000000387,
          "velocity": 0.7874015748031497,
          "duration": 0.19594575000002123
        },
        {
          "name": "G#2",
          "midi": 44,
          "time": 283.9862025000039,
          "velocity": 0.7874015748031497,
          "duration": 0.19594575000002123
        },
        {
          "name": "G#2",
          "midi": 44,
          "time": 284.18890500000396,
          "velocity": 0.7874015748031497,
          "duration": 0.19594575000002123
        },
        {
          "name": "G#2",
          "midi": 44,
          "time": 284.391607500004,
          "velocity": 0.7874015748031497,
          "duration": 0.19594575000002123
        },
        {
          "name": "E2",
          "midi": 40,
          "time": 284.59431000000404,
          "velocity": 0.7874015748031497,
          "duration": 0.39864825000006476
        },
        {
          "name": "G#2",
          "midi": 44,
          "time": 284.59431000000404,
          "velocity": 0.7874015748031497,
          "duration": 0.19594575000002123
        },
        {
          "name": "G#2",
          "midi": 44,
          "time": 284.7970125000041,
          "velocity": 0.7874015748031497,
          "duration": 0.19594575000002123
        },
        {
          "name": "G#2",
          "midi": 44,
          "time": 284.99971500000413,
          "velocity": 0.7874015748031497,
          "duration": 0.19594575000002123
        },
        {
          "name": "G#2",
          "midi": 44,
          "time": 285.2024175000042,
          "velocity": 0.7874015748031497,
          "duration": 0.19594575000002123
        },
        {
          "name": "G#2",
          "midi": 44,
          "time": 285.4051200000042,
          "velocity": 0.7874015748031497,
          "duration": 0.19594575000002123
        },
        {
          "name": "A3",
          "midi": 57,
          "time": 285.4051200000042,
          "velocity": 0.7874015748031497,
          "duration": 0.8040532500001518
        },
        {
          "name": "G#2",
          "midi": 44,
          "time": 285.60782250000426,
          "velocity": 0.7874015748031497,
          "duration": 0.19594575000002123
        },
        {
          "name": "G#2",
          "midi": 44,
          "time": 285.8105250000043,
          "velocity": 0.7874015748031497,
          "duration": 0.19594575000002123
        },
        {
          "name": "G#2",
          "midi": 44,
          "time": 286.01322750000435,
          "velocity": 0.7874015748031497,
          "duration": 0.19594575000002123
        },
        {
          "name": "E2",
          "midi": 40,
          "time": 286.2159300000044,
          "velocity": 0.7874015748031497,
          "duration": 0.39864825000006476
        },
        {
          "name": "G#2",
          "midi": 44,
          "time": 286.2159300000044,
          "velocity": 0.7874015748031497,
          "duration": 0.19594575000002123
        },
        {
          "name": "G#2",
          "midi": 44,
          "time": 286.41863250000443,
          "velocity": 0.7874015748031497,
          "duration": 0.19594575000002123
        },
        {
          "name": "G#2",
          "midi": 44,
          "time": 286.6213350000045,
          "velocity": 0.7874015748031497,
          "duration": 0.19594575000002123
        },
        {
          "name": "G#2",
          "midi": 44,
          "time": 286.8240375000045,
          "velocity": 0.7874015748031497,
          "duration": 0.19594575000002123
        },
        {
          "name": "G#2",
          "midi": 44,
          "time": 287.02674000000457,
          "velocity": 0.7874015748031497,
          "duration": 0.19594575000002123
        },
        {
          "name": "G#2",
          "midi": 44,
          "time": 287.2294425000046,
          "velocity": 0.7874015748031497,
          "duration": 0.19594575000002123
        },
        {
          "name": "G#2",
          "midi": 44,
          "time": 287.43214500000465,
          "velocity": 0.7874015748031497,
          "duration": 0.19594575000002123
        },
        {
          "name": "G#2",
          "midi": 44,
          "time": 287.6348475000047,
          "velocity": 0.7874015748031497,
          "duration": 0.19594575000002123
        },
        {
          "name": "E2",
          "midi": 40,
          "time": 287.83755000000474,
          "velocity": 0.7874015748031497,
          "duration": 0.39864825000006476
        },
        {
          "name": "G#2",
          "midi": 44,
          "time": 287.83755000000474,
          "velocity": 0.7874015748031497,
          "duration": 0.19594575000002123
        },
        {
          "name": "G#2",
          "midi": 44,
          "time": 288.0402525000048,
          "velocity": 0.7874015748031497,
          "duration": 0.19594575000002123
        },
        {
          "name": "G#2",
          "midi": 44,
          "time": 288.2429550000048,
          "velocity": 0.7874015748031497,
          "duration": 0.19594575000002123
        },
        {
          "name": "G#2",
          "midi": 44,
          "time": 288.44565750000487,
          "velocity": 0.7874015748031497,
          "duration": 0.19594575000002123
        },
        {
          "name": "G#2",
          "midi": 44,
          "time": 288.6483600000049,
          "velocity": 0.7874015748031497,
          "duration": 0.19594575000002123
        },
        {
          "name": "G#2",
          "midi": 44,
          "time": 288.85106250000496,
          "velocity": 0.7874015748031497,
          "duration": 0.19594575000002123
        },
        {
          "name": "G#2",
          "midi": 44,
          "time": 289.053765000005,
          "velocity": 0.7874015748031497,
          "duration": 0.19594575000002123
        },
        {
          "name": "G#2",
          "midi": 44,
          "time": 289.25646750000504,
          "velocity": 0.7874015748031497,
          "duration": 0.19594575000002123
        },
        {
          "name": "E2",
          "midi": 40,
          "time": 289.4591700000051,
          "velocity": 0.7874015748031497,
          "duration": 0.39864825000006476
        },
        {
          "name": "G#2",
          "midi": 44,
          "time": 289.4591700000051,
          "velocity": 0.7874015748031497,
          "duration": 0.19594575000002123
        },
        {
          "name": "G#2",
          "midi": 44,
          "time": 289.66187250000513,
          "velocity": 0.7874015748031497,
          "duration": 0.19594575000002123
        },
        {
          "name": "G#2",
          "midi": 44,
          "time": 289.8645750000052,
          "velocity": 0.7874015748031497,
          "duration": 0.19594575000002123
        },
        {
          "name": "G#2",
          "midi": 44,
          "time": 290.0672775000052,
          "velocity": 0.7874015748031497,
          "duration": 0.19594575000002123
        },
        {
          "name": "G#2",
          "midi": 44,
          "time": 290.26998000000526,
          "velocity": 0.7874015748031497,
          "duration": 0.19594575000002123
        },
        {
          "name": "G#2",
          "midi": 44,
          "time": 290.4726825000053,
          "velocity": 0.7874015748031497,
          "duration": 0.19594575000002123
        },
        {
          "name": "G#2",
          "midi": 44,
          "time": 290.67538500000535,
          "velocity": 0.7874015748031497,
          "duration": 0.19594575000002123
        },
        {
          "name": "G#2",
          "midi": 44,
          "time": 290.8780875000054,
          "velocity": 0.7874015748031497,
          "duration": 0.19594575000002123
        },
        {
          "name": "E2",
          "midi": 40,
          "time": 291.08079000000544,
          "velocity": 0.7874015748031497,
          "duration": 0.39864825000006476
        },
        {
          "name": "G#2",
          "midi": 44,
          "time": 291.08079000000544,
          "velocity": 0.7874015748031497,
          "duration": 0.19594575000002123
        },
        {
          "name": "G#2",
          "midi": 44,
          "time": 291.2834925000055,
          "velocity": 0.7874015748031497,
          "duration": 0.19594575000002123
        },
        {
          "name": "G#2",
          "midi": 44,
          "time": 291.4861950000055,
          "velocity": 0.7874015748031497,
          "duration": 0.19594575000002123
        },
        {
          "name": "G#2",
          "midi": 44,
          "time": 291.68889750000557,
          "velocity": 0.7874015748031497,
          "duration": 0.19594575000002123
        },
        {
          "name": "G#2",
          "midi": 44,
          "time": 291.8916000000056,
          "velocity": 0.7874015748031497,
          "duration": 0.19594575000002123
        },
        {
          "name": "A3",
          "midi": 57,
          "time": 291.8916000000056,
          "velocity": 0.7874015748031497,
          "duration": 0.8040532500001518
        },
        {
          "name": "G#2",
          "midi": 44,
          "time": 292.09430250000565,
          "velocity": 0.7874015748031497,
          "duration": 0.19594575000002123
        },
        {
          "name": "G#2",
          "midi": 44,
          "time": 292.2970050000057,
          "velocity": 0.7874015748031497,
          "duration": 0.19594575000002123
        },
        {
          "name": "G#2",
          "midi": 44,
          "time": 292.49970750000574,
          "velocity": 0.7874015748031497,
          "duration": 0.19594575000002123
        },
        {
          "name": "E2",
          "midi": 40,
          "time": 292.7024100000058,
          "velocity": 0.7874015748031497,
          "duration": 0.39864825000006476
        },
        {
          "name": "G#2",
          "midi": 44,
          "time": 292.7024100000058,
          "velocity": 0.7874015748031497,
          "duration": 0.19594575000002123
        },
        {
          "name": "G#2",
          "midi": 44,
          "time": 292.9051125000058,
          "velocity": 0.7874015748031497,
          "duration": 0.19594575000002123
        },
        {
          "name": "G#2",
          "midi": 44,
          "time": 293.10781500000587,
          "velocity": 0.7874015748031497,
          "duration": 0.19594575000002123
        },
        {
          "name": "G#2",
          "midi": 44,
          "time": 293.3105175000059,
          "velocity": 0.7874015748031497,
          "duration": 0.19594575000002123
        },
        {
          "name": "G#2",
          "midi": 44,
          "time": 293.51322000000596,
          "velocity": 0.7874015748031497,
          "duration": 0.19594575000002123
        },
        {
          "name": "G#2",
          "midi": 44,
          "time": 293.715922500006,
          "velocity": 0.7874015748031497,
          "duration": 0.19594575000002123
        },
        {
          "name": "G#2",
          "midi": 44,
          "time": 293.91862500000605,
          "velocity": 0.7874015748031497,
          "duration": 0.19594575000002123
        },
        {
          "name": "G#2",
          "midi": 44,
          "time": 294.1213275000061,
          "velocity": 0.7874015748031497,
          "duration": 0.19594575000002123
        },
        {
          "name": "E2",
          "midi": 40,
          "time": 294.32403000000613,
          "velocity": 0.7874015748031497,
          "duration": 0.39864825000006476
        },
        {
          "name": "G#2",
          "midi": 44,
          "time": 294.32403000000613,
          "velocity": 0.7874015748031497,
          "duration": 0.19594575000002123
        },
        {
          "name": "G#2",
          "midi": 44,
          "time": 294.5267325000062,
          "velocity": 0.7874015748031497,
          "duration": 0.19594575000002123
        },
        {
          "name": "G#2",
          "midi": 44,
          "time": 294.7294350000062,
          "velocity": 0.7874015748031497,
          "duration": 0.19594575000002123
        },
        {
          "name": "G#2",
          "midi": 44,
          "time": 294.93213750000626,
          "velocity": 0.7874015748031497,
          "duration": 0.19594575000002123
        },
        {
          "name": "G#2",
          "midi": 44,
          "time": 295.1348400000063,
          "velocity": 0.7874015748031497,
          "duration": 0.19594575000002123
        },
        {
          "name": "G#2",
          "midi": 44,
          "time": 295.33754250000635,
          "velocity": 0.7874015748031497,
          "duration": 0.19594575000002123
        },
        {
          "name": "G#2",
          "midi": 44,
          "time": 295.5402450000064,
          "velocity": 0.7874015748031497,
          "duration": 0.19594575000002123
        },
        {
          "name": "G#2",
          "midi": 44,
          "time": 295.74294750000644,
          "velocity": 0.7874015748031497,
          "duration": 0.19594575000002123
        },
        {
          "name": "E2",
          "midi": 40,
          "time": 295.9456500000065,
          "velocity": 0.7874015748031497,
          "duration": 0.39864825000006476
        },
        {
          "name": "G#2",
          "midi": 44,
          "time": 295.9456500000065,
          "velocity": 0.7874015748031497,
          "duration": 0.19594575000002123
        },
        {
          "name": "G#2",
          "midi": 44,
          "time": 296.1483525000065,
          "velocity": 0.7874015748031497,
          "duration": 0.19594575000002123
        },
        {
          "name": "G#2",
          "midi": 44,
          "time": 296.35105500000657,
          "velocity": 0.7874015748031497,
          "duration": 0.19594575000002123
        },
        {
          "name": "G#2",
          "midi": 44,
          "time": 296.5537575000066,
          "velocity": 0.7874015748031497,
          "duration": 0.19594575000002123
        },
        {
          "name": "G#2",
          "midi": 44,
          "time": 296.75646000000665,
          "velocity": 0.7874015748031497,
          "duration": 0.19594575000002123
        },
        {
          "name": "G#2",
          "midi": 44,
          "time": 296.9591625000067,
          "velocity": 0.7874015748031497,
          "duration": 0.19594575000002123
        },
        {
          "name": "G#2",
          "midi": 44,
          "time": 297.16186500000674,
          "velocity": 0.7874015748031497,
          "duration": 0.19594575000002123
        },
        {
          "name": "G#2",
          "midi": 44,
          "time": 297.3645675000068,
          "velocity": 0.7874015748031497,
          "duration": 0.19594575000002123
        },
        {
          "name": "E2",
          "midi": 40,
          "time": 297.56727000000683,
          "velocity": 0.7874015748031497,
          "duration": 0.39864825000006476
        },
        {
          "name": "G#2",
          "midi": 44,
          "time": 297.56727000000683,
          "velocity": 0.7874015748031497,
          "duration": 0.19594575000002123
        },
        {
          "name": "G#2",
          "midi": 44,
          "time": 297.7699725000069,
          "velocity": 0.7874015748031497,
          "duration": 0.19594575000002123
        },
        {
          "name": "G#2",
          "midi": 44,
          "time": 297.9726750000069,
          "velocity": 0.7874015748031497,
          "duration": 0.19594575000002123
        },
        {
          "name": "G#2",
          "midi": 44,
          "time": 298.17537750000696,
          "velocity": 0.7874015748031497,
          "duration": 0.19594575000002123
        },
        {
          "name": "G#2",
          "midi": 44,
          "time": 298.378080000007,
          "velocity": 0.7874015748031497,
          "duration": 0.19594575000002123
        },
        {
          "name": "G#2",
          "midi": 44,
          "time": 298.58078250000705,
          "velocity": 0.7874015748031497,
          "duration": 0.19594575000002123
        },
        {
          "name": "G#2",
          "midi": 44,
          "time": 298.7834850000071,
          "velocity": 0.7874015748031497,
          "duration": 0.19594575000002123
        },
        {
          "name": "G#2",
          "midi": 44,
          "time": 298.98618750000713,
          "velocity": 0.7874015748031497,
          "duration": 0.19594575000002123
        },
        {
          "name": "E2",
          "midi": 40,
          "time": 299.1888900000072,
          "velocity": 0.7874015748031497,
          "duration": 0.39864825000006476
        },
        {
          "name": "G#2",
          "midi": 44,
          "time": 299.1888900000072,
          "velocity": 0.7874015748031497,
          "duration": 0.19594575000002123
        },
        {
          "name": "G#2",
          "midi": 44,
          "time": 299.3915925000072,
          "velocity": 0.7874015748031497,
          "duration": 0.19594575000002123
        },
        {
          "name": "G#2",
          "midi": 44,
          "time": 299.59429500000726,
          "velocity": 0.7874015748031497,
          "duration": 0.19594575000002123
        },
        {
          "name": "G#2",
          "midi": 44,
          "time": 299.7969975000073,
          "velocity": 0.7874015748031497,
          "duration": 0.19594575000002123
        },
        {
          "name": "G#2",
          "midi": 44,
          "time": 299.99970000000735,
          "velocity": 0.7874015748031497,
          "duration": 0.19594575000002123
        },
        {
          "name": "G#2",
          "midi": 44,
          "time": 300.2024025000074,
          "velocity": 0.7874015748031497,
          "duration": 0.19594575000002123
        },
        {
          "name": "G#2",
          "midi": 44,
          "time": 300.40510500000744,
          "velocity": 0.7874015748031497,
          "duration": 0.19594575000002123
        },
        {
          "name": "G#2",
          "midi": 44,
          "time": 300.6078075000075,
          "velocity": 0.7874015748031497,
          "duration": 0.19594575000002123
        },
        {
          "name": "E2",
          "midi": 40,
          "time": 300.8105100000075,
          "velocity": 0.7874015748031497,
          "duration": 0.39864825000006476
        },
        {
          "name": "G#2",
          "midi": 44,
          "time": 300.8105100000075,
          "velocity": 0.7874015748031497,
          "duration": 0.19594575000002123
        },
        {
          "name": "G#2",
          "midi": 44,
          "time": 301.01321250000757,
          "velocity": 0.7874015748031497,
          "duration": 0.19594575000002123
        },
        {
          "name": "G#2",
          "midi": 44,
          "time": 301.2159150000076,
          "velocity": 0.7874015748031497,
          "duration": 0.19594575000002123
        },
        {
          "name": "G#2",
          "midi": 44,
          "time": 301.41861750000766,
          "velocity": 0.7874015748031497,
          "duration": 0.19594575000002123
        },
        {
          "name": "G#2",
          "midi": 44,
          "time": 301.6213200000077,
          "velocity": 0.7874015748031497,
          "duration": 0.19594575000002123
        },
        {
          "name": "G#2",
          "midi": 44,
          "time": 301.82402250000774,
          "velocity": 0.7874015748031497,
          "duration": 0.19594575000002123
        },
        {
          "name": "G#2",
          "midi": 44,
          "time": 302.0267250000078,
          "velocity": 0.7874015748031497,
          "duration": 0.19594575000002123
        },
        {
          "name": "G#2",
          "midi": 44,
          "time": 302.22942750000783,
          "velocity": 0.7874015748031497,
          "duration": 0.19594575000002123
        },
        {
          "name": "E2",
          "midi": 40,
          "time": 302.4321300000079,
          "velocity": 0.7874015748031497,
          "duration": 0.39864825000006476
        },
        {
          "name": "G#2",
          "midi": 44,
          "time": 302.4321300000079,
          "velocity": 0.7874015748031497,
          "duration": 0.19594575000002123
        },
        {
          "name": "G#2",
          "midi": 44,
          "time": 302.6348325000079,
          "velocity": 0.7874015748031497,
          "duration": 0.19594575000002123
        },
        {
          "name": "G#2",
          "midi": 44,
          "time": 302.83753500000796,
          "velocity": 0.7874015748031497,
          "duration": 0.19594575000002123
        },
        {
          "name": "G#2",
          "midi": 44,
          "time": 303.040237500008,
          "velocity": 0.7874015748031497,
          "duration": 0.19594575000002123
        },
        {
          "name": "G#2",
          "midi": 44,
          "time": 303.24294000000805,
          "velocity": 0.7874015748031497,
          "duration": 0.19594575000002123
        },
        {
          "name": "G#2",
          "midi": 44,
          "time": 303.4456425000081,
          "velocity": 0.7874015748031497,
          "duration": 0.19594575000002123
        },
        {
          "name": "G#2",
          "midi": 44,
          "time": 303.64834500000813,
          "velocity": 0.7874015748031497,
          "duration": 0.19594575000002123
        },
        {
          "name": "G#2",
          "midi": 44,
          "time": 303.8510475000082,
          "velocity": 0.7874015748031497,
          "duration": 0.19594575000002123
        },
        {
          "name": "E2",
          "midi": 40,
          "time": 304.0537500000082,
          "velocity": 0.7874015748031497,
          "duration": 0.39864825000006476
        },
        {
          "name": "G#2",
          "midi": 44,
          "time": 304.0537500000082,
          "velocity": 0.7874015748031497,
          "duration": 0.19594575000002123
        },
        {
          "name": "G#2",
          "midi": 44,
          "time": 304.25645250000827,
          "velocity": 0.7874015748031497,
          "duration": 0.19594575000002123
        },
        {
          "name": "G#2",
          "midi": 44,
          "time": 304.4591550000083,
          "velocity": 0.7874015748031497,
          "duration": 0.19594575000002123
        },
        {
          "name": "A3",
          "midi": 57,
          "time": 304.4591550000083,
          "velocity": 0.7874015748031497,
          "duration": 0.39864825000006476
        },
        {
          "name": "G#2",
          "midi": 44,
          "time": 304.66185750000835,
          "velocity": 0.7874015748031497,
          "duration": 0.19594575000002123
        },
        {
          "name": "G#2",
          "midi": 44,
          "time": 304.8645600000084,
          "velocity": 0.7874015748031497,
          "duration": 0.19594575000002123
        },
        {
          "name": "G#2",
          "midi": 44,
          "time": 305.06726250000844,
          "velocity": 0.7874015748031497,
          "duration": 0.19594575000002123
        },
        {
          "name": "G#2",
          "midi": 44,
          "time": 305.2699650000085,
          "velocity": 0.7874015748031497,
          "duration": 0.19594575000002123
        },
        {
          "name": "G#2",
          "midi": 44,
          "time": 305.4726675000085,
          "velocity": 0.7874015748031497,
          "duration": 0.19594575000002123
        },
        {
          "name": "E2",
          "midi": 40,
          "time": 305.67537000000857,
          "velocity": 0.7874015748031497,
          "duration": 0.39864825000006476
        },
        {
          "name": "G#2",
          "midi": 44,
          "time": 305.67537000000857,
          "velocity": 0.7874015748031497,
          "duration": 0.19594575000002123
        },
        {
          "name": "G#2",
          "midi": 44,
          "time": 305.8780725000086,
          "velocity": 0.7874015748031497,
          "duration": 0.19594575000002123
        },
        {
          "name": "G#2",
          "midi": 44,
          "time": 306.08077500000866,
          "velocity": 0.7874015748031497,
          "duration": 0.19594575000002123
        },
        {
          "name": "G#2",
          "midi": 44,
          "time": 306.2834775000087,
          "velocity": 0.7874015748031497,
          "duration": 0.19594575000002123
        },
        {
          "name": "G#2",
          "midi": 44,
          "time": 306.48618000000874,
          "velocity": 0.7874015748031497,
          "duration": 0.19594575000002123
        },
        {
          "name": "G#2",
          "midi": 44,
          "time": 306.6888825000088,
          "velocity": 0.7874015748031497,
          "duration": 0.19594575000002123
        },
        {
          "name": "G#2",
          "midi": 44,
          "time": 306.89158500000883,
          "velocity": 0.7874015748031497,
          "duration": 0.19594575000002123
        },
        {
          "name": "G#2",
          "midi": 44,
          "time": 307.0942875000089,
          "velocity": 0.7874015748031497,
          "duration": 0.19594575000002123
        },
        {
          "name": "E2",
          "midi": 40,
          "time": 307.2969900000089,
          "velocity": 0.7874015748031497,
          "duration": 0.39864825000006476
        },
        {
          "name": "G#2",
          "midi": 44,
          "time": 307.2969900000089,
          "velocity": 0.7874015748031497,
          "duration": 0.19594575000002123
        },
        {
          "name": "G#2",
          "midi": 44,
          "time": 307.49969250000896,
          "velocity": 0.7874015748031497,
          "duration": 0.19594575000002123
        },
        {
          "name": "G#2",
          "midi": 44,
          "time": 307.702395000009,
          "velocity": 0.7874015748031497,
          "duration": 0.19594575000002123
        },
        {
          "name": "G#2",
          "midi": 44,
          "time": 307.90509750000905,
          "velocity": 0.7874015748031497,
          "duration": 0.19594575000002123
        },
        {
          "name": "G#2",
          "midi": 44,
          "time": 308.1078000000091,
          "velocity": 0.7874015748031497,
          "duration": 0.19594575000002123
        },
        {
          "name": "G#2",
          "midi": 44,
          "time": 308.31050250000914,
          "velocity": 0.7874015748031497,
          "duration": 0.19594575000002123
        },
        {
          "name": "G#2",
          "midi": 44,
          "time": 308.5132050000092,
          "velocity": 0.7874015748031497,
          "duration": 0.19594575000002123
        },
        {
          "name": "G#2",
          "midi": 44,
          "time": 308.7159075000092,
          "velocity": 0.7874015748031497,
          "duration": 0.19594575000002123
        },
        {
          "name": "E2",
          "midi": 40,
          "time": 308.91861000000927,
          "velocity": 0.7874015748031497,
          "duration": 0.39864825000006476
        },
        {
          "name": "G#2",
          "midi": 44,
          "time": 308.91861000000927,
          "velocity": 0.7874015748031497,
          "duration": 0.19594575000002123
        },
        {
          "name": "G#2",
          "midi": 44,
          "time": 309.1213125000093,
          "velocity": 0.7874015748031497,
          "duration": 0.19594575000002123
        },
        {
          "name": "G#2",
          "midi": 44,
          "time": 309.32401500000935,
          "velocity": 0.7874015748031497,
          "duration": 0.19594575000002123
        },
        {
          "name": "G#2",
          "midi": 44,
          "time": 309.5267175000094,
          "velocity": 0.7874015748031497,
          "duration": 0.19594575000002123
        },
        {
          "name": "G#2",
          "midi": 44,
          "time": 309.72942000000944,
          "velocity": 0.7874015748031497,
          "duration": 0.19594575000002123
        },
        {
          "name": "G#2",
          "midi": 44,
          "time": 309.9321225000095,
          "velocity": 0.7874015748031497,
          "duration": 0.19594575000002123
        },
        {
          "name": "G#2",
          "midi": 44,
          "time": 310.1348250000095,
          "velocity": 0.7874015748031497,
          "duration": 0.19594575000002123
        },
        {
          "name": "G#2",
          "midi": 44,
          "time": 310.33752750000957,
          "velocity": 0.7874015748031497,
          "duration": 0.19594575000002123
        },
        {
          "name": "E2",
          "midi": 40,
          "time": 310.5402300000096,
          "velocity": 0.7874015748031497,
          "duration": 0.39864825000006476
        },
        {
          "name": "G#2",
          "midi": 44,
          "time": 310.5402300000096,
          "velocity": 0.7874015748031497,
          "duration": 0.19594575000002123
        },
        {
          "name": "G#2",
          "midi": 44,
          "time": 310.74293250000966,
          "velocity": 0.7874015748031497,
          "duration": 0.19594575000002123
        },
        {
          "name": "G#2",
          "midi": 44,
          "time": 310.9456350000097,
          "velocity": 0.7874015748031497,
          "duration": 0.19594575000002123
        },
        {
          "name": "G#2",
          "midi": 44,
          "time": 311.14833750000975,
          "velocity": 0.7874015748031497,
          "duration": 0.19594575000002123
        },
        {
          "name": "G#2",
          "midi": 44,
          "time": 311.3510400000098,
          "velocity": 0.7874015748031497,
          "duration": 0.19594575000002123
        },
        {
          "name": "A3",
          "midi": 57,
          "time": 311.3510400000098,
          "velocity": 0.7874015748031497,
          "duration": 0.8040532500001518
        },
        {
          "name": "G#2",
          "midi": 44,
          "time": 311.55374250000983,
          "velocity": 0.7874015748031497,
          "duration": 0.19594575000002123
        },
        {
          "name": "G#2",
          "midi": 44,
          "time": 311.7564450000099,
          "velocity": 0.7874015748031497,
          "duration": 0.19594575000002123
        },
        {
          "name": "G#2",
          "midi": 44,
          "time": 311.9591475000099,
          "velocity": 0.7874015748031497,
          "duration": 0.19594575000002123
        },
        {
          "name": "E2",
          "midi": 40,
          "time": 312.16185000000996,
          "velocity": 0.7874015748031497,
          "duration": 0.39864825000006476
        },
        {
          "name": "G#2",
          "midi": 44,
          "time": 312.16185000000996,
          "velocity": 0.7874015748031497,
          "duration": 0.19594575000002123
        },
        {
          "name": "G#2",
          "midi": 44,
          "time": 312.36455250001,
          "velocity": 0.7874015748031497,
          "duration": 0.19594575000002123
        },
        {
          "name": "G#2",
          "midi": 44,
          "time": 312.56725500001005,
          "velocity": 0.7874015748031497,
          "duration": 0.19594575000002123
        },
        {
          "name": "G#2",
          "midi": 44,
          "time": 312.7699575000101,
          "velocity": 0.7874015748031497,
          "duration": 0.19594575000002123
        },
        {
          "name": "G#2",
          "midi": 44,
          "time": 312.97266000001014,
          "velocity": 0.7874015748031497,
          "duration": 0.19594575000002123
        },
        {
          "name": "G#2",
          "midi": 44,
          "time": 313.1753625000102,
          "velocity": 0.7874015748031497,
          "duration": 0.19594575000002123
        },
        {
          "name": "G#2",
          "midi": 44,
          "time": 313.3780650000102,
          "velocity": 0.7874015748031497,
          "duration": 0.19594575000002123
        },
        {
          "name": "G#2",
          "midi": 44,
          "time": 313.58076750001027,
          "velocity": 0.7874015748031497,
          "duration": 0.19594575000002123
        },
        {
          "name": "E2",
          "midi": 40,
          "time": 313.7834700000103,
          "velocity": 0.7874015748031497,
          "duration": 0.39864825000006476
        },
        {
          "name": "G#2",
          "midi": 44,
          "time": 313.7834700000103,
          "velocity": 0.7874015748031497,
          "duration": 0.19594575000002123
        },
        {
          "name": "G#2",
          "midi": 44,
          "time": 313.98617250001035,
          "velocity": 0.7874015748031497,
          "duration": 0.19594575000002123
        },
        {
          "name": "G#2",
          "midi": 44,
          "time": 314.1888750000104,
          "velocity": 0.7874015748031497,
          "duration": 0.19594575000002123
        },
        {
          "name": "G#2",
          "midi": 44,
          "time": 314.39157750001044,
          "velocity": 0.7874015748031497,
          "duration": 0.19594575000002123
        },
        {
          "name": "G#2",
          "midi": 44,
          "time": 314.5942800000105,
          "velocity": 0.7874015748031497,
          "duration": 0.19594575000002123
        },
        {
          "name": "G#2",
          "midi": 44,
          "time": 314.79698250001053,
          "velocity": 0.7874015748031497,
          "duration": 0.19594575000002123
        },
        {
          "name": "G#2",
          "midi": 44,
          "time": 314.9996850000106,
          "velocity": 0.7874015748031497,
          "duration": 0.19594575000002123
        },
        {
          "name": "G#2",
          "midi": 44,
          "time": 315.2023875000106,
          "velocity": 0.7874015748031497,
          "duration": 0.19594575000002123
        },
        {
          "name": "E2",
          "midi": 40,
          "time": 315.40509000001066,
          "velocity": 0.7874015748031497,
          "duration": 0.39864825000006476
        },
        {
          "name": "G#2",
          "midi": 44,
          "time": 315.40509000001066,
          "velocity": 0.7874015748031497,
          "duration": 0.19594575000002123
        },
        {
          "name": "G#2",
          "midi": 44,
          "time": 315.6077925000107,
          "velocity": 0.7874015748031497,
          "duration": 0.19594575000002123
        },
        {
          "name": "G#2",
          "midi": 44,
          "time": 315.81049500001075,
          "velocity": 0.7874015748031497,
          "duration": 0.19594575000002123
        },
        {
          "name": "G#2",
          "midi": 44,
          "time": 316.0131975000108,
          "velocity": 0.7874015748031497,
          "duration": 0.19594575000002123
        },
        {
          "name": "G#2",
          "midi": 44,
          "time": 316.21590000001083,
          "velocity": 0.7874015748031497,
          "duration": 0.19594575000002123
        },
        {
          "name": "G#2",
          "midi": 44,
          "time": 316.4186025000109,
          "velocity": 0.7874015748031497,
          "duration": 0.19594575000002123
        },
        {
          "name": "G#2",
          "midi": 44,
          "time": 316.6213050000109,
          "velocity": 0.7874015748031497,
          "duration": 0.19594575000002123
        },
        {
          "name": "G#2",
          "midi": 44,
          "time": 316.82400750001096,
          "velocity": 0.7874015748031497,
          "duration": 0.19594575000002123
        },
        {
          "name": "E2",
          "midi": 40,
          "time": 317.026710000011,
          "velocity": 0.7874015748031497,
          "duration": 0.39864825000006476
        },
        {
          "name": "G#2",
          "midi": 44,
          "time": 317.026710000011,
          "velocity": 0.7874015748031497,
          "duration": 0.19594575000002123
        },
        {
          "name": "G#2",
          "midi": 44,
          "time": 317.22941250001105,
          "velocity": 0.7874015748031497,
          "duration": 0.19594575000002123
        },
        {
          "name": "G#2",
          "midi": 44,
          "time": 317.4321150000111,
          "velocity": 0.7874015748031497,
          "duration": 0.19594575000002123
        },
        {
          "name": "G#2",
          "midi": 44,
          "time": 317.63481750001114,
          "velocity": 0.7874015748031497,
          "duration": 0.19594575000002123
        },
        {
          "name": "G#2",
          "midi": 44,
          "time": 317.8375200000112,
          "velocity": 0.7874015748031497,
          "duration": 0.19594575000002123
        },
        {
          "name": "A3",
          "midi": 57,
          "time": 317.8375200000112,
          "velocity": 0.7874015748031497,
          "duration": 0.8040532500001518
        },
        {
          "name": "G#2",
          "midi": 44,
          "time": 318.0402225000112,
          "velocity": 0.7874015748031497,
          "duration": 0.19594575000002123
        },
        {
          "name": "G#2",
          "midi": 44,
          "time": 318.24292500001127,
          "velocity": 0.7874015748031497,
          "duration": 0.19594575000002123
        },
        {
          "name": "G#2",
          "midi": 44,
          "time": 318.4456275000113,
          "velocity": 0.7874015748031497,
          "duration": 0.19594575000002123
        },
        {
          "name": "E2",
          "midi": 40,
          "time": 318.64833000001136,
          "velocity": 0.7874015748031497,
          "duration": 0.39864825000006476
        },
        {
          "name": "G#2",
          "midi": 44,
          "time": 318.64833000001136,
          "velocity": 0.7874015748031497,
          "duration": 0.19594575000002123
        },
        {
          "name": "G#2",
          "midi": 44,
          "time": 318.8510325000114,
          "velocity": 0.7874015748031497,
          "duration": 0.19594575000002123
        },
        {
          "name": "G#2",
          "midi": 44,
          "time": 319.05373500001144,
          "velocity": 0.7874015748031497,
          "duration": 0.19594575000002123
        },
        {
          "name": "G#2",
          "midi": 44,
          "time": 319.2564375000115,
          "velocity": 0.7874015748031497,
          "duration": 0.19594575000002123
        },
        {
          "name": "G#2",
          "midi": 44,
          "time": 319.45914000001153,
          "velocity": 0.7874015748031497,
          "duration": 0.19594575000002123
        },
        {
          "name": "G#2",
          "midi": 44,
          "time": 319.6618425000116,
          "velocity": 0.7874015748031497,
          "duration": 0.19594575000002123
        },
        {
          "name": "G#2",
          "midi": 44,
          "time": 319.8645450000116,
          "velocity": 0.7874015748031497,
          "duration": 0.19594575000002123
        },
        {
          "name": "G#2",
          "midi": 44,
          "time": 320.06724750001166,
          "velocity": 0.7874015748031497,
          "duration": 0.19594575000002123
        },
        {
          "name": "E2",
          "midi": 40,
          "time": 320.2699500000117,
          "velocity": 0.7874015748031497,
          "duration": 0.39864825000006476
        },
        {
          "name": "G#2",
          "midi": 44,
          "time": 320.2699500000117,
          "velocity": 0.7874015748031497,
          "duration": 0.19594575000002123
        },
        {
          "name": "G#2",
          "midi": 44,
          "time": 320.47265250001175,
          "velocity": 0.7874015748031497,
          "duration": 0.19594575000002123
        },
        {
          "name": "G#2",
          "midi": 44,
          "time": 320.6753550000118,
          "velocity": 0.7874015748031497,
          "duration": 0.19594575000002123
        },
        {
          "name": "G#2",
          "midi": 44,
          "time": 320.87805750001183,
          "velocity": 0.7874015748031497,
          "duration": 0.19594575000002123
        },
        {
          "name": "G#2",
          "midi": 44,
          "time": 321.0807600000119,
          "velocity": 0.7874015748031497,
          "duration": 0.19594575000002123
        },
        {
          "name": "G#2",
          "midi": 44,
          "time": 321.2834625000119,
          "velocity": 0.7874015748031497,
          "duration": 0.19594575000002123
        },
        {
          "name": "G#2",
          "midi": 44,
          "time": 321.48616500001197,
          "velocity": 0.7874015748031497,
          "duration": 0.19594575000002123
        },
        {
          "name": "G#2",
          "midi": 44,
          "time": 321.688867500012,
          "velocity": 0.7874015748031497,
          "duration": 0.19594575000002123
        },
        {
          "name": "E2",
          "midi": 40,
          "time": 321.89157000001205,
          "velocity": 0.7874015748031497,
          "duration": 0.39864825000006476
        },
        {
          "name": "G#2",
          "midi": 44,
          "time": 321.89157000001205,
          "velocity": 0.7874015748031497,
          "duration": 0.19594575000002123
        },
        {
          "name": "G#2",
          "midi": 44,
          "time": 322.0942725000121,
          "velocity": 0.7874015748031497,
          "duration": 0.19594575000002123
        },
        {
          "name": "G#2",
          "midi": 44,
          "time": 322.29697500001214,
          "velocity": 0.7874015748031497,
          "duration": 0.19594575000002123
        },
        {
          "name": "G#2",
          "midi": 44,
          "time": 322.4996775000122,
          "velocity": 0.7874015748031497,
          "duration": 0.19594575000002123
        },
        {
          "name": "G#2",
          "midi": 44,
          "time": 322.7023800000122,
          "velocity": 0.7874015748031497,
          "duration": 0.19594575000002123
        },
        {
          "name": "G#2",
          "midi": 44,
          "time": 322.90508250001227,
          "velocity": 0.7874015748031497,
          "duration": 0.19594575000002123
        },
        {
          "name": "G#2",
          "midi": 44,
          "time": 323.1077850000123,
          "velocity": 0.7874015748031497,
          "duration": 0.19594575000002123
        },
        {
          "name": "G#2",
          "midi": 44,
          "time": 323.31048750001236,
          "velocity": 0.7874015748031497,
          "duration": 0.19594575000002123
        },
        {
          "name": "E2",
          "midi": 40,
          "time": 323.5131900000124,
          "velocity": 0.7874015748031497,
          "duration": 0.39864825000006476
        },
        {
          "name": "G#2",
          "midi": 44,
          "time": 323.5131900000124,
          "velocity": 0.7874015748031497,
          "duration": 0.19594575000002123
        },
        {
          "name": "G#2",
          "midi": 44,
          "time": 323.71589250001244,
          "velocity": 0.7874015748031497,
          "duration": 0.19594575000002123
        },
        {
          "name": "G#2",
          "midi": 44,
          "time": 323.9185950000125,
          "velocity": 0.7874015748031497,
          "duration": 0.19594575000002123
        },
        {
          "name": "G#2",
          "midi": 44,
          "time": 324.12129750001253,
          "velocity": 0.7874015748031497,
          "duration": 0.19594575000002123
        },
        {
          "name": "G#2",
          "midi": 44,
          "time": 324.3240000000126,
          "velocity": 0.7874015748031497,
          "duration": 0.19594575000002123
        },
        {
          "name": "A3",
          "midi": 57,
          "time": 324.3240000000126,
          "velocity": 0.7874015748031497,
          "duration": 0.8040532500001518
        },
        {
          "name": "G#2",
          "midi": 44,
          "time": 324.5267025000126,
          "velocity": 0.7874015748031497,
          "duration": 0.19594575000002123
        },
        {
          "name": "G#2",
          "midi": 44,
          "time": 324.72940500001266,
          "velocity": 0.7874015748031497,
          "duration": 0.19594575000002123
        },
        {
          "name": "G#2",
          "midi": 44,
          "time": 324.9321075000127,
          "velocity": 0.7874015748031497,
          "duration": 0.19594575000002123
        },
        {
          "name": "E2",
          "midi": 40,
          "time": 325.13481000001275,
          "velocity": 0.7874015748031497,
          "duration": 0.39864825000006476
        },
        {
          "name": "G#2",
          "midi": 44,
          "time": 325.13481000001275,
          "velocity": 0.7874015748031497,
          "duration": 0.19594575000002123
        },
        {
          "name": "G#2",
          "midi": 44,
          "time": 325.3375125000128,
          "velocity": 0.7874015748031497,
          "duration": 0.19594575000002123
        },
        {
          "name": "G#2",
          "midi": 44,
          "time": 325.54021500001284,
          "velocity": 0.7874015748031497,
          "duration": 0.19594575000002123
        },
        {
          "name": "G#2",
          "midi": 44,
          "time": 325.7429175000129,
          "velocity": 0.7874015748031497,
          "duration": 0.19594575000002123
        },
        {
          "name": "G#2",
          "midi": 44,
          "time": 325.9456200000129,
          "velocity": 0.7874015748031497,
          "duration": 0.19594575000002123
        },
        {
          "name": "G#2",
          "midi": 44,
          "time": 326.14832250001297,
          "velocity": 0.7874015748031497,
          "duration": 0.19594575000002123
        },
        {
          "name": "G#2",
          "midi": 44,
          "time": 326.351025000013,
          "velocity": 0.7874015748031497,
          "duration": 0.19594575000002123
        },
        {
          "name": "G#2",
          "midi": 44,
          "time": 326.55372750001305,
          "velocity": 0.7874015748031497,
          "duration": 0.19594575000002123
        },
        {
          "name": "E2",
          "midi": 40,
          "time": 326.7564300000131,
          "velocity": 0.7874015748031497,
          "duration": 0.39864825000006476
        },
        {
          "name": "G#2",
          "midi": 44,
          "time": 326.7564300000131,
          "velocity": 0.7874015748031497,
          "duration": 0.19594575000002123
        },
        {
          "name": "G#2",
          "midi": 44,
          "time": 326.95913250001314,
          "velocity": 0.7874015748031497,
          "duration": 0.19594575000002123
        },
        {
          "name": "G#2",
          "midi": 44,
          "time": 327.1618350000132,
          "velocity": 0.7874015748031497,
          "duration": 0.19594575000002123
        },
        {
          "name": "G#2",
          "midi": 44,
          "time": 327.3645375000132,
          "velocity": 0.7874015748031497,
          "duration": 0.19594575000002123
        },
        {
          "name": "G#2",
          "midi": 44,
          "time": 327.56724000001327,
          "velocity": 0.7874015748031497,
          "duration": 0.19594575000002123
        },
        {
          "name": "G#2",
          "midi": 44,
          "time": 327.7699425000133,
          "velocity": 0.7874015748031497,
          "duration": 0.19594575000002123
        },
        {
          "name": "G#2",
          "midi": 44,
          "time": 327.97264500001336,
          "velocity": 0.7874015748031497,
          "duration": 0.19594575000002123
        },
        {
          "name": "G#2",
          "midi": 44,
          "time": 328.1753475000134,
          "velocity": 0.7874015748031497,
          "duration": 0.19594575000002123
        },
        {
          "name": "E2",
          "midi": 40,
          "time": 328.37805000001345,
          "velocity": 0.7874015748031497,
          "duration": 0.39864825000006476
        },
        {
          "name": "G#2",
          "midi": 44,
          "time": 328.37805000001345,
          "velocity": 0.7874015748031497,
          "duration": 0.19594575000002123
        },
        {
          "name": "G#2",
          "midi": 44,
          "time": 328.5807525000135,
          "velocity": 0.7874015748031497,
          "duration": 0.19594575000002123
        },
        {
          "name": "G#2",
          "midi": 44,
          "time": 328.78345500001353,
          "velocity": 0.7874015748031497,
          "duration": 0.19594575000002123
        },
        {
          "name": "G#2",
          "midi": 44,
          "time": 328.9861575000136,
          "velocity": 0.7874015748031497,
          "duration": 0.19594575000002123
        },
        {
          "name": "G#2",
          "midi": 44,
          "time": 329.1888600000136,
          "velocity": 0.7874015748031497,
          "duration": 0.19594575000002123
        },
        {
          "name": "G#2",
          "midi": 44,
          "time": 329.39156250001366,
          "velocity": 0.7874015748031497,
          "duration": 0.19594575000002123
        },
        {
          "name": "G#2",
          "midi": 44,
          "time": 329.5942650000137,
          "velocity": 0.7874015748031497,
          "duration": 0.19594575000002123
        },
        {
          "name": "G#2",
          "midi": 44,
          "time": 329.79696750001375,
          "velocity": 0.7874015748031497,
          "duration": 0.19594575000002123
        },
        {
          "name": "E2",
          "midi": 40,
          "time": 329.9996700000138,
          "velocity": 0.7874015748031497,
          "duration": 0.39864825000006476
        },
        {
          "name": "G#2",
          "midi": 44,
          "time": 329.9996700000138,
          "velocity": 0.7874015748031497,
          "duration": 0.19594575000002123
        },
        {
          "name": "G#2",
          "midi": 44,
          "time": 330.20237250001384,
          "velocity": 0.7874015748031497,
          "duration": 0.19594575000002123
        },
        {
          "name": "G#2",
          "midi": 44,
          "time": 330.4050750000139,
          "velocity": 0.7874015748031497,
          "duration": 0.19594575000002123
        },
        {
          "name": "G#2",
          "midi": 44,
          "time": 330.6077775000139,
          "velocity": 0.7874015748031497,
          "duration": 0.19594575000002123
        },
        {
          "name": "G#2",
          "midi": 44,
          "time": 330.81048000001397,
          "velocity": 0.7874015748031497,
          "duration": 0.19594575000002123
        },
        {
          "name": "A3",
          "midi": 57,
          "time": 330.81048000001397,
          "velocity": 0.7874015748031497,
          "duration": 0.8040532500001518
        },
        {
          "name": "G#2",
          "midi": 44,
          "time": 331.013182500014,
          "velocity": 0.7874015748031497,
          "duration": 0.19594575000002123
        },
        {
          "name": "G#2",
          "midi": 44,
          "time": 331.21588500001405,
          "velocity": 0.7874015748031497,
          "duration": 0.19594575000002123
        },
        {
          "name": "G#2",
          "midi": 44,
          "time": 331.4185875000141,
          "velocity": 0.7874015748031497,
          "duration": 0.19594575000002123
        },
        {
          "name": "E2",
          "midi": 40,
          "time": 331.62129000001414,
          "velocity": 0.7874015748031497,
          "duration": 0.39864825000006476
        },
        {
          "name": "G#2",
          "midi": 44,
          "time": 331.62129000001414,
          "velocity": 0.7874015748031497,
          "duration": 0.19594575000002123
        },
        {
          "name": "G#2",
          "midi": 44,
          "time": 331.8239925000142,
          "velocity": 0.7874015748031497,
          "duration": 0.19594575000002123
        },
        {
          "name": "G#2",
          "midi": 44,
          "time": 332.02669500001423,
          "velocity": 0.7874015748031497,
          "duration": 0.19594575000002123
        },
        {
          "name": "G#2",
          "midi": 44,
          "time": 332.2293975000143,
          "velocity": 0.7874015748031497,
          "duration": 0.19594575000002123
        },
        {
          "name": "G#2",
          "midi": 44,
          "time": 332.4321000000143,
          "velocity": 0.7874015748031497,
          "duration": 0.19594575000002123
        },
        {
          "name": "G#2",
          "midi": 44,
          "time": 332.63480250001436,
          "velocity": 0.7874015748031497,
          "duration": 0.19594575000002123
        },
        {
          "name": "G#2",
          "midi": 44,
          "time": 332.8375050000144,
          "velocity": 0.7874015748031497,
          "duration": 0.19594575000002123
        },
        {
          "name": "G#2",
          "midi": 44,
          "time": 333.04020750001445,
          "velocity": 0.7874015748031497,
          "duration": 0.19594575000002123
        },
        {
          "name": "E2",
          "midi": 40,
          "time": 333.2429100000145,
          "velocity": 0.7874015748031497,
          "duration": 0.39864825000006476
        },
        {
          "name": "G#2",
          "midi": 44,
          "time": 333.2429100000145,
          "velocity": 0.7874015748031497,
          "duration": 0.19594575000002123
        },
        {
          "name": "G#2",
          "midi": 44,
          "time": 333.44561250001453,
          "velocity": 0.7874015748031497,
          "duration": 0.19594575000002123
        },
        {
          "name": "G#2",
          "midi": 44,
          "time": 333.6483150000146,
          "velocity": 0.7874015748031497,
          "duration": 0.19594575000002123
        },
        {
          "name": "G#2",
          "midi": 44,
          "time": 333.8510175000146,
          "velocity": 0.7874015748031497,
          "duration": 0.19594575000002123
        },
        {
          "name": "G#2",
          "midi": 44,
          "time": 334.05372000001466,
          "velocity": 0.7874015748031497,
          "duration": 0.19594575000002123
        },
        {
          "name": "G#2",
          "midi": 44,
          "time": 334.2564225000147,
          "velocity": 0.7874015748031497,
          "duration": 0.19594575000002123
        },
        {
          "name": "G#2",
          "midi": 44,
          "time": 334.45912500001475,
          "velocity": 0.7874015748031497,
          "duration": 0.19594575000002123
        },
        {
          "name": "G#2",
          "midi": 44,
          "time": 334.6618275000148,
          "velocity": 0.7874015748031497,
          "duration": 0.19594575000002123
        },
        {
          "name": "E2",
          "midi": 40,
          "time": 334.86453000001484,
          "velocity": 0.7874015748031497,
          "duration": 0.39864825000006476
        },
        {
          "name": "G#2",
          "midi": 44,
          "time": 334.86453000001484,
          "velocity": 0.7874015748031497,
          "duration": 0.19594575000002123
        },
        {
          "name": "G#2",
          "midi": 44,
          "time": 335.0672325000149,
          "velocity": 0.7874015748031497,
          "duration": 0.19594575000002123
        },
        {
          "name": "G#2",
          "midi": 44,
          "time": 335.2699350000149,
          "velocity": 0.7874015748031497,
          "duration": 0.19594575000002123
        },
        {
          "name": "G#2",
          "midi": 44,
          "time": 335.47263750001497,
          "velocity": 0.7874015748031497,
          "duration": 0.19594575000002123
        },
        {
          "name": "G#2",
          "midi": 44,
          "time": 335.675340000015,
          "velocity": 0.7874015748031497,
          "duration": 0.19594575000002123
        },
        {
          "name": "G#2",
          "midi": 44,
          "time": 335.87804250001506,
          "velocity": 0.7874015748031497,
          "duration": 0.19594575000002123
        },
        {
          "name": "G#2",
          "midi": 44,
          "time": 336.0807450000151,
          "velocity": 0.7874015748031497,
          "duration": 0.19594575000002123
        },
        {
          "name": "G#2",
          "midi": 44,
          "time": 336.28344750001514,
          "velocity": 0.7874015748031497,
          "duration": 0.19594575000002123
        },
        {
          "name": "E2",
          "midi": 40,
          "time": 336.4861500000152,
          "velocity": 0.7874015748031497,
          "duration": 0.39864825000006476
        },
        {
          "name": "G#2",
          "midi": 44,
          "time": 336.4861500000152,
          "velocity": 0.7874015748031497,
          "duration": 0.19594575000002123
        },
        {
          "name": "G#2",
          "midi": 44,
          "time": 336.68885250001523,
          "velocity": 0.7874015748031497,
          "duration": 0.19594575000002123
        },
        {
          "name": "G#2",
          "midi": 44,
          "time": 336.8915550000153,
          "velocity": 0.7874015748031497,
          "duration": 0.19594575000002123
        },
        {
          "name": "G#2",
          "midi": 44,
          "time": 337.0942575000153,
          "velocity": 0.7874015748031497,
          "duration": 0.19594575000002123
        },
        {
          "name": "G#2",
          "midi": 44,
          "time": 337.29696000001536,
          "velocity": 0.7874015748031497,
          "duration": 0.19594575000002123
        },
        {
          "name": "A3",
          "midi": 57,
          "time": 337.29696000001536,
          "velocity": 0.7874015748031497,
          "duration": 0.8040532500001518
        },
        {
          "name": "G#2",
          "midi": 44,
          "time": 337.4996625000154,
          "velocity": 0.7874015748031497,
          "duration": 0.19594575000002123
        },
        {
          "name": "G#2",
          "midi": 44,
          "time": 337.70236500001545,
          "velocity": 0.7874015748031497,
          "duration": 0.19594575000002123
        },
        {
          "name": "G#2",
          "midi": 44,
          "time": 337.9050675000155,
          "velocity": 0.7874015748031497,
          "duration": 0.19594575000002123
        },
        {
          "name": "E2",
          "midi": 40,
          "time": 338.10777000001553,
          "velocity": 0.7874015748031497,
          "duration": 0.39864825000006476
        },
        {
          "name": "G#2",
          "midi": 44,
          "time": 338.10777000001553,
          "velocity": 0.7874015748031497,
          "duration": 0.19594575000002123
        },
        {
          "name": "G#2",
          "midi": 44,
          "time": 338.3104725000156,
          "velocity": 0.7874015748031497,
          "duration": 0.19594575000002123
        },
        {
          "name": "G#2",
          "midi": 44,
          "time": 338.5131750000156,
          "velocity": 0.7874015748031497,
          "duration": 0.19594575000002123
        },
        {
          "name": "G#2",
          "midi": 44,
          "time": 338.71587750001567,
          "velocity": 0.7874015748031497,
          "duration": 0.19594575000002123
        },
        {
          "name": "G#2",
          "midi": 44,
          "time": 338.9185800000157,
          "velocity": 0.7874015748031497,
          "duration": 0.19594575000002123
        },
        {
          "name": "G#2",
          "midi": 44,
          "time": 339.12128250001575,
          "velocity": 0.7874015748031497,
          "duration": 0.19594575000002123
        },
        {
          "name": "G#2",
          "midi": 44,
          "time": 339.3239850000158,
          "velocity": 0.7874015748031497,
          "duration": 0.19594575000002123
        },
        {
          "name": "G#2",
          "midi": 44,
          "time": 339.52668750001584,
          "velocity": 0.7874015748031497,
          "duration": 0.19594575000002123
        },
        {
          "name": "E2",
          "midi": 40,
          "time": 339.7293900000159,
          "velocity": 0.7874015748031497,
          "duration": 0.39864825000006476
        },
        {
          "name": "G#2",
          "midi": 44,
          "time": 339.7293900000159,
          "velocity": 0.7874015748031497,
          "duration": 0.19594575000002123
        },
        {
          "name": "A3",
          "midi": 57,
          "time": 339.7293900000159,
          "velocity": 0.7874015748031497,
          "duration": 0.39864825000006476
        },
        {
          "name": "G#2",
          "midi": 44,
          "time": 339.9320925000159,
          "velocity": 0.7874015748031497,
          "duration": 0.19594575000002123
        },
        {
          "name": "G#2",
          "midi": 44,
          "time": 340.13479500001597,
          "velocity": 0.7874015748031497,
          "duration": 0.19594575000002123
        },
        {
          "name": "A3",
          "midi": 57,
          "time": 340.13479500001597,
          "velocity": 0.7874015748031497,
          "duration": 0.39864825000006476
        },
        {
          "name": "G#2",
          "midi": 44,
          "time": 340.337497500016,
          "velocity": 0.7874015748031497,
          "duration": 0.19594575000002123
        },
        {
          "name": "G#2",
          "midi": 44,
          "time": 340.54020000001606,
          "velocity": 0.7874015748031497,
          "duration": 0.19594575000002123
        },
        {
          "name": "G#2",
          "midi": 44,
          "time": 340.7429025000161,
          "velocity": 0.7874015748031497,
          "duration": 0.19594575000002123
        },
        {
          "name": "G#2",
          "midi": 44,
          "time": 340.94560500001614,
          "velocity": 0.7874015748031497,
          "duration": 0.19594575000002123
        },
        {
          "name": "G#2",
          "midi": 44,
          "time": 341.1483075000162,
          "velocity": 0.7874015748031497,
          "duration": 0.19594575000002123
        },
        {
          "name": "E2",
          "midi": 40,
          "time": 341.35101000001623,
          "velocity": 0.7874015748031497,
          "duration": 0.39864825000006476
        },
        {
          "name": "G#2",
          "midi": 44,
          "time": 341.35101000001623,
          "velocity": 0.7874015748031497,
          "duration": 0.19594575000002123
        },
        {
          "name": "G#2",
          "midi": 44,
          "time": 341.5537125000163,
          "velocity": 0.7874015748031497,
          "duration": 0.19594575000002123
        },
        {
          "name": "G#2",
          "midi": 44,
          "time": 341.7564150000163,
          "velocity": 0.7874015748031497,
          "duration": 0.19594575000002123
        },
        {
          "name": "G#2",
          "midi": 44,
          "time": 341.95911750001636,
          "velocity": 0.7874015748031497,
          "duration": 0.19594575000002123
        },
        {
          "name": "G#2",
          "midi": 44,
          "time": 342.1618200000164,
          "velocity": 0.7874015748031497,
          "duration": 0.19594575000002123
        },
        {
          "name": "G#2",
          "midi": 44,
          "time": 342.36452250001645,
          "velocity": 0.7874015748031497,
          "duration": 0.19594575000002123
        },
        {
          "name": "G#2",
          "midi": 44,
          "time": 342.5672250000165,
          "velocity": 0.7874015748031497,
          "duration": 0.19594575000002123
        },
        {
          "name": "G#2",
          "midi": 44,
          "time": 342.76992750001654,
          "velocity": 0.7874015748031497,
          "duration": 0.19594575000002123
        },
        {
          "name": "E2",
          "midi": 40,
          "time": 342.9726300000166,
          "velocity": 0.7874015748031497,
          "duration": 0.39864825000006476
        },
        {
          "name": "G#2",
          "midi": 44,
          "time": 342.9726300000166,
          "velocity": 0.7874015748031497,
          "duration": 0.19594575000002123
        },
        {
          "name": "A3",
          "midi": 57,
          "time": 342.9726300000166,
          "velocity": 0.7874015748031497,
          "duration": 0.39864825000006476
        },
        {
          "name": "G#2",
          "midi": 44,
          "time": 343.1753325000166,
          "velocity": 0.7874015748031497,
          "duration": 0.19594575000002123
        },
        {
          "name": "G#2",
          "midi": 44,
          "time": 343.37803500001667,
          "velocity": 0.7874015748031497,
          "duration": 0.19594575000002123
        },
        {
          "name": "A3",
          "midi": 57,
          "time": 343.37803500001667,
          "velocity": 0.7874015748031497,
          "duration": 0.39864825000006476
        },
        {
          "name": "G#2",
          "midi": 44,
          "time": 343.5807375000167,
          "velocity": 0.7874015748031497,
          "duration": 0.19594575000002123
        },
        {
          "name": "G#2",
          "midi": 44,
          "time": 343.78344000001675,
          "velocity": 0.7874015748031497,
          "duration": 0.19594575000002123
        },
        {
          "name": "G#2",
          "midi": 44,
          "time": 343.9861425000168,
          "velocity": 0.7874015748031497,
          "duration": 0.19594575000002123
        },
        {
          "name": "G#2",
          "midi": 44,
          "time": 344.18884500001684,
          "velocity": 0.7874015748031497,
          "duration": 0.19594575000002123
        },
        {
          "name": "G#2",
          "midi": 44,
          "time": 344.3915475000169,
          "velocity": 0.7874015748031497,
          "duration": 0.19594575000002123
        },
        {
          "name": "E2",
          "midi": 40,
          "time": 344.5942500000169,
          "velocity": 0.7874015748031497,
          "duration": 0.39864825000006476
        },
        {
          "name": "G#2",
          "midi": 44,
          "time": 344.5942500000169,
          "velocity": 0.7874015748031497,
          "duration": 0.19594575000002123
        },
        {
          "name": "G#2",
          "midi": 44,
          "time": 344.79695250001697,
          "velocity": 0.7874015748031497,
          "duration": 0.19594575000002123
        },
        {
          "name": "G#2",
          "midi": 44,
          "time": 344.999655000017,
          "velocity": 0.7874015748031497,
          "duration": 0.19594575000002123
        },
        {
          "name": "G#2",
          "midi": 44,
          "time": 345.20235750001706,
          "velocity": 0.7874015748031497,
          "duration": 0.19594575000002123
        },
        {
          "name": "G#2",
          "midi": 44,
          "time": 345.4050600000171,
          "velocity": 0.7874015748031497,
          "duration": 0.19594575000002123
        },
        {
          "name": "G#2",
          "midi": 44,
          "time": 345.60776250001715,
          "velocity": 0.7874015748031497,
          "duration": 0.19594575000002123
        },
        {
          "name": "G#2",
          "midi": 44,
          "time": 345.8104650000172,
          "velocity": 0.7874015748031497,
          "duration": 0.19594575000002123
        },
        {
          "name": "G#2",
          "midi": 44,
          "time": 346.01316750001723,
          "velocity": 0.7874015748031497,
          "duration": 0.19594575000002123
        },
        {
          "name": "E2",
          "midi": 40,
          "time": 346.2158700000173,
          "velocity": 0.7874015748031497,
          "duration": 0.39864825000006476
        },
        {
          "name": "G#2",
          "midi": 44,
          "time": 346.2158700000173,
          "velocity": 0.7874015748031497,
          "duration": 0.19594575000002123
        },
        {
          "name": "A3",
          "midi": 57,
          "time": 346.2158700000173,
          "velocity": 0.7874015748031497,
          "duration": 0.39864825000006476
        },
        {
          "name": "G#2",
          "midi": 44,
          "time": 346.4185725000173,
          "velocity": 0.7874015748031497,
          "duration": 0.19594575000002123
        },
        {
          "name": "G#2",
          "midi": 44,
          "time": 346.62127500001736,
          "velocity": 0.7874015748031497,
          "duration": 0.19594575000002123
        },
        {
          "name": "A3",
          "midi": 57,
          "time": 346.62127500001736,
          "velocity": 0.7874015748031497,
          "duration": 0.39864825000006476
        },
        {
          "name": "G#2",
          "midi": 44,
          "time": 346.8239775000174,
          "velocity": 0.7874015748031497,
          "duration": 0.19594575000002123
        },
        {
          "name": "G#2",
          "midi": 44,
          "time": 347.02668000001745,
          "velocity": 0.7874015748031497,
          "duration": 0.19594575000002123
        },
        {
          "name": "G#2",
          "midi": 44,
          "time": 347.2293825000175,
          "velocity": 0.7874015748031497,
          "duration": 0.19594575000002123
        },
        {
          "name": "G#2",
          "midi": 44,
          "time": 347.43208500001754,
          "velocity": 0.7874015748031497,
          "duration": 0.19594575000002123
        },
        {
          "name": "G#2",
          "midi": 44,
          "time": 347.6347875000176,
          "velocity": 0.7874015748031497,
          "duration": 0.19594575000002123
        },
        {
          "name": "E2",
          "midi": 40,
          "time": 347.8374900000176,
          "velocity": 0.7874015748031497,
          "duration": 0.39864825000006476
        },
        {
          "name": "G#2",
          "midi": 44,
          "time": 347.8374900000176,
          "velocity": 0.7874015748031497,
          "duration": 0.19594575000002123
        },
        {
          "name": "G#2",
          "midi": 44,
          "time": 348.04019250001767,
          "velocity": 0.7874015748031497,
          "duration": 0.19594575000002123
        },
        {
          "name": "G#2",
          "midi": 44,
          "time": 348.2428950000177,
          "velocity": 0.7874015748031497,
          "duration": 0.19594575000002123
        },
        {
          "name": "G#2",
          "midi": 44,
          "time": 348.44559750001775,
          "velocity": 0.7874015748031497,
          "duration": 0.19594575000002123
        },
        {
          "name": "G#2",
          "midi": 44,
          "time": 348.6483000000178,
          "velocity": 0.7874015748031497,
          "duration": 0.19594575000002123
        },
        {
          "name": "G#2",
          "midi": 44,
          "time": 348.85100250001784,
          "velocity": 0.7874015748031497,
          "duration": 0.19594575000002123
        },
        {
          "name": "G#2",
          "midi": 44,
          "time": 349.0537050000179,
          "velocity": 0.7874015748031497,
          "duration": 0.19594575000002123
        },
        {
          "name": "G#2",
          "midi": 44,
          "time": 349.25640750001793,
          "velocity": 0.7874015748031497,
          "duration": 0.19594575000002123
        },
        {
          "name": "E2",
          "midi": 40,
          "time": 349.459110000018,
          "velocity": 0.7874015748031497,
          "duration": 0.39864825000006476
        },
        {
          "name": "G#2",
          "midi": 44,
          "time": 349.459110000018,
          "velocity": 0.7874015748031497,
          "duration": 0.19594575000002123
        },
        {
          "name": "A3",
          "midi": 57,
          "time": 349.459110000018,
          "velocity": 0.7874015748031497,
          "duration": 0.39864825000006476
        },
        {
          "name": "G#2",
          "midi": 44,
          "time": 349.661812500018,
          "velocity": 0.7874015748031497,
          "duration": 0.19594575000002123
        },
        {
          "name": "G#2",
          "midi": 44,
          "time": 349.86451500001806,
          "velocity": 0.7874015748031497,
          "duration": 0.19594575000002123
        },
        {
          "name": "A3",
          "midi": 57,
          "time": 349.86451500001806,
          "velocity": 0.7874015748031497,
          "duration": 0.39864825000006476
        },
        {
          "name": "G#2",
          "midi": 44,
          "time": 350.0672175000181,
          "velocity": 0.7874015748031497,
          "duration": 0.19594575000002123
        },
        {
          "name": "G#2",
          "midi": 44,
          "time": 350.26992000001815,
          "velocity": 0.7874015748031497,
          "duration": 0.19594575000002123
        },
        {
          "name": "G#2",
          "midi": 44,
          "time": 350.4726225000182,
          "velocity": 0.7874015748031497,
          "duration": 0.19594575000002123
        },
        {
          "name": "G#2",
          "midi": 44,
          "time": 350.67532500001823,
          "velocity": 0.7874015748031497,
          "duration": 0.19594575000002123
        },
        {
          "name": "G#2",
          "midi": 44,
          "time": 350.8780275000183,
          "velocity": 0.7874015748031497,
          "duration": 0.19594575000002123
        },
        {
          "name": "E2",
          "midi": 40,
          "time": 351.0807300000183,
          "velocity": 0.7874015748031497,
          "duration": 0.39864825000006476
        },
        {
          "name": "G#2",
          "midi": 44,
          "time": 351.0807300000183,
          "velocity": 0.7874015748031497,
          "duration": 0.19594575000002123
        },
        {
          "name": "G#2",
          "midi": 44,
          "time": 351.28343250001836,
          "velocity": 0.7874015748031497,
          "duration": 0.19594575000002123
        },
        {
          "name": "G#2",
          "midi": 44,
          "time": 351.4861350000184,
          "velocity": 0.7874015748031497,
          "duration": 0.19594575000002123
        },
        {
          "name": "G#2",
          "midi": 44,
          "time": 351.68883750001845,
          "velocity": 0.7874015748031497,
          "duration": 0.19594575000002123
        },
        {
          "name": "G#2",
          "midi": 44,
          "time": 351.8915400000185,
          "velocity": 0.7874015748031497,
          "duration": 0.19594575000002123
        },
        {
          "name": "G#2",
          "midi": 44,
          "time": 352.09424250001854,
          "velocity": 0.7874015748031497,
          "duration": 0.19594575000002123
        },
        {
          "name": "G#2",
          "midi": 44,
          "time": 352.2969450000186,
          "velocity": 0.7874015748031497,
          "duration": 0.19594575000002123
        },
        {
          "name": "G#2",
          "midi": 44,
          "time": 352.4996475000186,
          "velocity": 0.7874015748031497,
          "duration": 0.19594575000002123
        },
        {
          "name": "E2",
          "midi": 40,
          "time": 352.70235000001867,
          "velocity": 0.7874015748031497,
          "duration": 0.39864825000006476
        },
        {
          "name": "G#2",
          "midi": 44,
          "time": 352.70235000001867,
          "velocity": 0.7874015748031497,
          "duration": 0.19594575000002123
        },
        {
          "name": "A3",
          "midi": 57,
          "time": 352.70235000001867,
          "velocity": 0.7874015748031497,
          "duration": 0.39864825000006476
        },
        {
          "name": "G#2",
          "midi": 44,
          "time": 352.9050525000187,
          "velocity": 0.7874015748031497,
          "duration": 0.19594575000002123
        },
        {
          "name": "G#2",
          "midi": 44,
          "time": 353.10775500001876,
          "velocity": 0.7874015748031497,
          "duration": 0.19594575000002123
        },
        {
          "name": "A3",
          "midi": 57,
          "time": 353.10775500001876,
          "velocity": 0.7874015748031497,
          "duration": 0.39864825000006476
        },
        {
          "name": "G#2",
          "midi": 44,
          "time": 353.3104575000188,
          "velocity": 0.7874015748031497,
          "duration": 0.19594575000002123
        },
        {
          "name": "G#2",
          "midi": 44,
          "time": 353.51316000001884,
          "velocity": 0.7874015748031497,
          "duration": 0.19594575000002123
        },
        {
          "name": "G#2",
          "midi": 44,
          "time": 353.7158625000189,
          "velocity": 0.7874015748031497,
          "duration": 0.19594575000002123
        },
        {
          "name": "G#2",
          "midi": 44,
          "time": 353.91856500001893,
          "velocity": 0.7874015748031497,
          "duration": 0.19594575000002123
        },
        {
          "name": "G#2",
          "midi": 44,
          "time": 354.121267500019,
          "velocity": 0.7874015748031497,
          "duration": 0.19594575000002123
        },
        {
          "name": "E2",
          "midi": 40,
          "time": 354.323970000019,
          "velocity": 0.7874015748031497,
          "duration": 0.39864825000006476
        },
        {
          "name": "G#2",
          "midi": 44,
          "time": 354.323970000019,
          "velocity": 0.7874015748031497,
          "duration": 0.19594575000002123
        },
        {
          "name": "G#2",
          "midi": 44,
          "time": 354.52667250001906,
          "velocity": 0.7874015748031497,
          "duration": 0.19594575000002123
        },
        {
          "name": "G#2",
          "midi": 44,
          "time": 354.7293750000191,
          "velocity": 0.7874015748031497,
          "duration": 0.19594575000002123
        },
        {
          "name": "G#2",
          "midi": 44,
          "time": 354.93207750001915,
          "velocity": 0.7874015748031497,
          "duration": 0.19594575000002123
        },
        {
          "name": "G#2",
          "midi": 44,
          "time": 355.1347800000192,
          "velocity": 0.7874015748031497,
          "duration": 0.19594575000002123
        },
        {
          "name": "G#2",
          "midi": 44,
          "time": 355.33748250001923,
          "velocity": 0.7874015748031497,
          "duration": 0.19594575000002123
        },
        {
          "name": "G#2",
          "midi": 44,
          "time": 355.5401850000193,
          "velocity": 0.7874015748031497,
          "duration": 0.19594575000002123
        },
        {
          "name": "G#2",
          "midi": 44,
          "time": 355.7428875000193,
          "velocity": 0.7874015748031497,
          "duration": 0.19594575000002123
        },
        {
          "name": "E2",
          "midi": 40,
          "time": 355.94559000001937,
          "velocity": 0.7874015748031497,
          "duration": 0.39864825000006476
        },
        {
          "name": "G#2",
          "midi": 44,
          "time": 355.94559000001937,
          "velocity": 0.7874015748031497,
          "duration": 0.19594575000002123
        },
        {
          "name": "A3",
          "midi": 57,
          "time": 355.94559000001937,
          "velocity": 0.7874015748031497,
          "duration": 0.39864825000006476
        },
        {
          "name": "G#2",
          "midi": 44,
          "time": 356.1482925000194,
          "velocity": 0.7874015748031497,
          "duration": 0.19594575000002123
        },
        {
          "name": "G#2",
          "midi": 44,
          "time": 356.35099500001945,
          "velocity": 0.7874015748031497,
          "duration": 0.19594575000002123
        },
        {
          "name": "A3",
          "midi": 57,
          "time": 356.35099500001945,
          "velocity": 0.7874015748031497,
          "duration": 0.39864825000006476
        },
        {
          "name": "G#2",
          "midi": 44,
          "time": 356.5536975000195,
          "velocity": 0.7874015748031497,
          "duration": 0.19594575000002123
        },
        {
          "name": "G#2",
          "midi": 44,
          "time": 356.75640000001954,
          "velocity": 0.7874015748031497,
          "duration": 0.19594575000002123
        },
        {
          "name": "G#2",
          "midi": 44,
          "time": 356.9591025000196,
          "velocity": 0.7874015748031497,
          "duration": 0.19594575000002123
        },
        {
          "name": "G#2",
          "midi": 44,
          "time": 357.1618050000196,
          "velocity": 0.7874015748031497,
          "duration": 0.19594575000002123
        },
        {
          "name": "G#2",
          "midi": 44,
          "time": 357.36450750001967,
          "velocity": 0.7874015748031497,
          "duration": 0.19594575000002123
        },
        {
          "name": "E2",
          "midi": 40,
          "time": 357.5672100000197,
          "velocity": 0.7874015748031497,
          "duration": 0.39864825000006476
        },
        {
          "name": "G#2",
          "midi": 44,
          "time": 357.5672100000197,
          "velocity": 0.7874015748031497,
          "duration": 0.19594575000002123
        },
        {
          "name": "G#2",
          "midi": 44,
          "time": 357.76991250001976,
          "velocity": 0.7874015748031497,
          "duration": 0.19594575000002123
        },
        {
          "name": "G#2",
          "midi": 44,
          "time": 357.9726150000198,
          "velocity": 0.7874015748031497,
          "duration": 0.19594575000002123
        },
        {
          "name": "G#2",
          "midi": 44,
          "time": 358.17531750001984,
          "velocity": 0.7874015748031497,
          "duration": 0.19594575000002123
        },
        {
          "name": "G#2",
          "midi": 44,
          "time": 358.3780200000199,
          "velocity": 0.7874015748031497,
          "duration": 0.19594575000002123
        },
        {
          "name": "G#2",
          "midi": 44,
          "time": 358.58072250001993,
          "velocity": 0.7874015748031497,
          "duration": 0.19594575000002123
        },
        {
          "name": "G#2",
          "midi": 44,
          "time": 358.78342500002,
          "velocity": 0.7874015748031497,
          "duration": 0.19594575000002123
        },
        {
          "name": "G#2",
          "midi": 44,
          "time": 358.98612750002,
          "velocity": 0.7874015748031497,
          "duration": 0.19594575000002123
        },
        {
          "name": "E2",
          "midi": 40,
          "time": 359.18883000002006,
          "velocity": 0.7874015748031497,
          "duration": 0.39864825000006476
        },
        {
          "name": "G#2",
          "midi": 44,
          "time": 359.18883000002006,
          "velocity": 0.7874015748031497,
          "duration": 0.19594575000002123
        },
        {
          "name": "A3",
          "midi": 57,
          "time": 359.18883000002006,
          "velocity": 0.7874015748031497,
          "duration": 0.39864825000006476
        },
        {
          "name": "G#2",
          "midi": 44,
          "time": 359.3915325000201,
          "velocity": 0.7874015748031497,
          "duration": 0.19594575000002123
        },
        {
          "name": "G#2",
          "midi": 44,
          "time": 359.59423500002015,
          "velocity": 0.7874015748031497,
          "duration": 0.19594575000002123
        },
        {
          "name": "A3",
          "midi": 57,
          "time": 359.59423500002015,
          "velocity": 0.7874015748031497,
          "duration": 0.39864825000006476
        },
        {
          "name": "G#2",
          "midi": 44,
          "time": 359.7969375000202,
          "velocity": 0.7874015748031497,
          "duration": 0.19594575000002123
        },
        {
          "name": "G#2",
          "midi": 44,
          "time": 359.99964000002024,
          "velocity": 0.7874015748031497,
          "duration": 0.19594575000002123
        },
        {
          "name": "G#2",
          "midi": 44,
          "time": 360.2023425000203,
          "velocity": 0.7874015748031497,
          "duration": 0.19594575000002123
        },
        {
          "name": "G#2",
          "midi": 44,
          "time": 360.4050450000203,
          "velocity": 0.7874015748031497,
          "duration": 0.19594575000002123
        },
        {
          "name": "G#2",
          "midi": 44,
          "time": 360.60774750002037,
          "velocity": 0.7874015748031497,
          "duration": 0.19594575000002123
        },
        {
          "name": "E2",
          "midi": 40,
          "time": 360.8104500000204,
          "velocity": 0.7874015748031497,
          "duration": 0.39864825000006476
        },
        {
          "name": "G#2",
          "midi": 44,
          "time": 360.8104500000204,
          "velocity": 0.7874015748031497,
          "duration": 0.19594575000002123
        },
        {
          "name": "G#2",
          "midi": 44,
          "time": 361.01315250002045,
          "velocity": 0.7874015748031497,
          "duration": 0.19594575000002123
        },
        {
          "name": "G#2",
          "midi": 44,
          "time": 361.2158550000205,
          "velocity": 0.7874015748031497,
          "duration": 0.19594575000002123
        },
        {
          "name": "G#2",
          "midi": 44,
          "time": 361.41855750002054,
          "velocity": 0.7874015748031497,
          "duration": 0.19594575000002123
        },
        {
          "name": "C3",
          "midi": 48,
          "time": 361.6212600000206,
          "velocity": 0.7874015748031497,
          "duration": 0.09459450000002789
        },
        {
          "name": "C3",
          "midi": 48,
          "time": 361.72261125002063,
          "velocity": 0.7874015748031497,
          "duration": 0.09459450000002789
        },
        {
          "name": "C3",
          "midi": 48,
          "time": 361.8239625000207,
          "velocity": 0.7874015748031497,
          "duration": 0.19594575000002123
        },
        {
          "name": "B2",
          "midi": 47,
          "time": 362.0266650000207,
          "velocity": 0.7874015748031497,
          "duration": 0.09459450000002789
        },
        {
          "name": "B2",
          "midi": 47,
          "time": 362.1280162500208,
          "velocity": 0.7874015748031497,
          "duration": 0.09459450000002789
        },
        {
          "name": "B2",
          "midi": 47,
          "time": 362.2293675000208,
          "velocity": 0.7874015748031497,
          "duration": 0.19594575000002123
        },
        {
          "name": "A2",
          "midi": 45,
          "time": 362.4320700000209,
          "velocity": 0.7874015748031497,
          "duration": 0.09459450000002789
        },
        {
          "name": "A2",
          "midi": 45,
          "time": 362.5334212500209,
          "velocity": 0.7874015748031497,
          "duration": 0.09459450000002789
        },
        {
          "name": "A2",
          "midi": 45,
          "time": 362.634772500021,
          "velocity": 0.7874015748031497,
          "duration": 0.19594575000002123
        },
        {
          "name": "G2",
          "midi": 43,
          "time": 362.837475000021,
          "velocity": 0.7874015748031497,
          "duration": 0.09459450000002789
        },
        {
          "name": "G2",
          "midi": 43,
          "time": 362.93882625002107,
          "velocity": 0.7874015748031497,
          "duration": 0.09459450000002789
        },
        {
          "name": "G2",
          "midi": 43,
          "time": 363.0401775000211,
          "velocity": 0.7874015748031497,
          "duration": 0.19594575000002123
        },
        {
          "name": "G#2",
          "midi": 44,
          "time": 363.24288000002116,
          "velocity": 0.7874015748031497,
          "duration": 0.19594575000002123
        },
        {
          "name": "A3",
          "midi": 57,
          "time": 363.24288000002116,
          "velocity": 0.7874015748031497,
          "duration": 0.8040532500001518
        },
        {
          "name": "G#2",
          "midi": 44,
          "time": 363.4455825000212,
          "velocity": 0.7874015748031497,
          "duration": 0.19594575000002123
        },
        {
          "name": "G#2",
          "midi": 44,
          "time": 363.64828500002125,
          "velocity": 0.7874015748031497,
          "duration": 0.19594575000002123
        },
        {
          "name": "G#2",
          "midi": 44,
          "time": 363.8509875000213,
          "velocity": 0.7874015748031497,
          "duration": 0.19594575000002123
        },
        {
          "name": "E2",
          "midi": 40,
          "time": 364.05369000002133,
          "velocity": 0.7874015748031497,
          "duration": 0.39864825000006476
        },
        {
          "name": "G#2",
          "midi": 44,
          "time": 364.05369000002133,
          "velocity": 0.7874015748031497,
          "duration": 0.19594575000002123
        },
        {
          "name": "G#2",
          "midi": 44,
          "time": 364.2563925000214,
          "velocity": 0.7874015748031497,
          "duration": 0.19594575000002123
        },
        {
          "name": "G#2",
          "midi": 44,
          "time": 364.4590950000214,
          "velocity": 0.7874015748031497,
          "duration": 0.19594575000002123
        },
        {
          "name": "G#2",
          "midi": 44,
          "time": 364.66179750002146,
          "velocity": 0.7874015748031497,
          "duration": 0.19594575000002123
        },
        {
          "name": "G#2",
          "midi": 44,
          "time": 364.8645000000215,
          "velocity": 0.7874015748031497,
          "duration": 0.19594575000002123
        },
        {
          "name": "G#2",
          "midi": 44,
          "time": 365.06720250002155,
          "velocity": 0.7874015748031497,
          "duration": 0.19594575000002123
        },
        {
          "name": "G#2",
          "midi": 44,
          "time": 365.2699050000216,
          "velocity": 0.7874015748031497,
          "duration": 0.19594575000002123
        },
        {
          "name": "G#2",
          "midi": 44,
          "time": 365.47260750002164,
          "velocity": 0.7874015748031497,
          "duration": 0.19594575000002123
        },
        {
          "name": "G#2",
          "midi": 44,
          "time": 365.6753100000217,
          "velocity": 0.7874015748031497,
          "duration": 0.19594575000002123
        },
        {
          "name": "E2",
          "midi": 40,
          "time": 365.6753100000217,
          "velocity": 0.7874015748031497,
          "duration": 0.39864825000006476
        },
        {
          "name": "G#2",
          "midi": 44,
          "time": 365.8780125000217,
          "velocity": 0.7874015748031497,
          "duration": 0.19594575000002123
        },
        {
          "name": "G#2",
          "midi": 44,
          "time": 366.08071500002177,
          "velocity": 0.7874015748031497,
          "duration": 0.19594575000002123
        },
        {
          "name": "G#2",
          "midi": 44,
          "time": 366.2834175000218,
          "velocity": 0.7874015748031497,
          "duration": 0.19594575000002123
        },
        {
          "name": "G#2",
          "midi": 44,
          "time": 366.48612000002186,
          "velocity": 0.7874015748031497,
          "duration": 0.19594575000002123
        },
        {
          "name": "G#2",
          "midi": 44,
          "time": 366.6888225000219,
          "velocity": 0.7874015748031497,
          "duration": 0.19594575000002123
        },
        {
          "name": "G#2",
          "midi": 44,
          "time": 366.89152500002194,
          "velocity": 0.7874015748031497,
          "duration": 0.19594575000002123
        },
        {
          "name": "G#2",
          "midi": 44,
          "time": 367.094227500022,
          "velocity": 0.7874015748031497,
          "duration": 0.19594575000002123
        },
        {
          "name": "E2",
          "midi": 40,
          "time": 367.29693000002203,
          "velocity": 0.7874015748031497,
          "duration": 0.39864825000006476
        },
        {
          "name": "G#2",
          "midi": 44,
          "time": 367.29693000002203,
          "velocity": 0.7874015748031497,
          "duration": 0.19594575000002123
        },
        {
          "name": "G#2",
          "midi": 44,
          "time": 367.4996325000221,
          "velocity": 0.7874015748031497,
          "duration": 0.19594575000002123
        },
        {
          "name": "G#2",
          "midi": 44,
          "time": 367.7023350000221,
          "velocity": 0.7874015748031497,
          "duration": 0.19594575000002123
        },
        {
          "name": "G#2",
          "midi": 44,
          "time": 367.90503750002216,
          "velocity": 0.7874015748031497,
          "duration": 0.19594575000002123
        },
        {
          "name": "G#2",
          "midi": 44,
          "time": 368.1077400000222,
          "velocity": 0.7874015748031497,
          "duration": 0.19594575000002123
        },
        {
          "name": "G#2",
          "midi": 44,
          "time": 368.31044250002225,
          "velocity": 0.7874015748031497,
          "duration": 0.19594575000002123
        },
        {
          "name": "G#2",
          "midi": 44,
          "time": 368.5131450000223,
          "velocity": 0.7874015748031497,
          "duration": 0.19594575000002123
        },
        {
          "name": "G#2",
          "midi": 44,
          "time": 368.71584750002233,
          "velocity": 0.7874015748031497,
          "duration": 0.19594575000002123
        },
        {
          "name": "E2",
          "midi": 40,
          "time": 368.9185500000224,
          "velocity": 0.7874015748031497,
          "duration": 0.39864825000006476
        },
        {
          "name": "G#2",
          "midi": 44,
          "time": 368.9185500000224,
          "velocity": 0.7874015748031497,
          "duration": 0.19594575000002123
        },
        {
          "name": "G#2",
          "midi": 44,
          "time": 369.1212525000224,
          "velocity": 0.7874015748031497,
          "duration": 0.19594575000002123
        },
        {
          "name": "G#2",
          "midi": 44,
          "time": 369.32395500002247,
          "velocity": 0.7874015748031497,
          "duration": 0.19594575000002123
        },
        {
          "name": "G#2",
          "midi": 44,
          "time": 369.5266575000225,
          "velocity": 0.7874015748031497,
          "duration": 0.19594575000002123
        },
        {
          "name": "G#2",
          "midi": 44,
          "time": 369.72936000002255,
          "velocity": 0.7874015748031497,
          "duration": 0.19594575000002123
        },
        {
          "name": "A3",
          "midi": 57,
          "time": 369.72936000002255,
          "velocity": 0.7874015748031497,
          "duration": 0.8040532500001518
        },
        {
          "name": "G#2",
          "midi": 44,
          "time": 369.9320625000226,
          "velocity": 0.7874015748031497,
          "duration": 0.19594575000002123
        },
        {
          "name": "G#2",
          "midi": 44,
          "time": 370.13476500002264,
          "velocity": 0.7874015748031497,
          "duration": 0.19594575000002123
        },
        {
          "name": "G#2",
          "midi": 44,
          "time": 370.3374675000227,
          "velocity": 0.7874015748031497,
          "duration": 0.19594575000002123
        },
        {
          "name": "E2",
          "midi": 40,
          "time": 370.5401700000227,
          "velocity": 0.7874015748031497,
          "duration": 0.39864825000006476
        },
        {
          "name": "G#2",
          "midi": 44,
          "time": 370.5401700000227,
          "velocity": 0.7874015748031497,
          "duration": 0.19594575000002123
        },
        {
          "name": "G#2",
          "midi": 44,
          "time": 370.74287250002277,
          "velocity": 0.7874015748031497,
          "duration": 0.19594575000002123
        },
        {
          "name": "G#2",
          "midi": 44,
          "time": 370.9455750000228,
          "velocity": 0.7874015748031497,
          "duration": 0.19594575000002123
        },
        {
          "name": "G#2",
          "midi": 44,
          "time": 371.14827750002286,
          "velocity": 0.7874015748031497,
          "duration": 0.19594575000002123
        },
        {
          "name": "G#2",
          "midi": 44,
          "time": 371.3509800000229,
          "velocity": 0.7874015748031497,
          "duration": 0.19594575000002123
        },
        {
          "name": "G#2",
          "midi": 44,
          "time": 371.55368250002294,
          "velocity": 0.7874015748031497,
          "duration": 0.19594575000002123
        },
        {
          "name": "G#2",
          "midi": 44,
          "time": 371.756385000023,
          "velocity": 0.7874015748031497,
          "duration": 0.19594575000002123
        },
        {
          "name": "G#2",
          "midi": 44,
          "time": 371.95908750002303,
          "velocity": 0.7874015748031497,
          "duration": 0.19594575000002123
        },
        {
          "name": "E2",
          "midi": 40,
          "time": 372.1617900000231,
          "velocity": 0.7874015748031497,
          "duration": 0.39864825000006476
        },
        {
          "name": "G#2",
          "midi": 44,
          "time": 372.1617900000231,
          "velocity": 0.7874015748031497,
          "duration": 0.19594575000002123
        },
        {
          "name": "G#2",
          "midi": 44,
          "time": 372.3644925000231,
          "velocity": 0.7874015748031497,
          "duration": 0.19594575000002123
        },
        {
          "name": "G#2",
          "midi": 44,
          "time": 372.56719500002316,
          "velocity": 0.7874015748031497,
          "duration": 0.19594575000002123
        },
        {
          "name": "G#2",
          "midi": 44,
          "time": 372.7698975000232,
          "velocity": 0.7874015748031497,
          "duration": 0.19594575000002123
        },
        {
          "name": "G#2",
          "midi": 44,
          "time": 372.97260000002325,
          "velocity": 0.7874015748031497,
          "duration": 0.19594575000002123
        },
        {
          "name": "G#2",
          "midi": 44,
          "time": 373.1753025000233,
          "velocity": 0.7874015748031497,
          "duration": 0.19594575000002123
        },
        {
          "name": "G#2",
          "midi": 44,
          "time": 373.37800500002334,
          "velocity": 0.7874015748031497,
          "duration": 0.19594575000002123
        },
        {
          "name": "G#2",
          "midi": 44,
          "time": 373.5807075000234,
          "velocity": 0.7874015748031497,
          "duration": 0.19594575000002123
        },
        {
          "name": "G#2",
          "midi": 44,
          "time": 373.7834100000234,
          "velocity": 0.7874015748031497,
          "duration": 0.19594575000002123
        },
        {
          "name": "E2",
          "midi": 40,
          "time": 373.7834100000234,
          "velocity": 0.7874015748031497,
          "duration": 0.39864825000006476
        },
        {
          "name": "G#2",
          "midi": 44,
          "time": 373.98611250002347,
          "velocity": 0.7874015748031497,
          "duration": 0.19594575000002123
        },
        {
          "name": "G#2",
          "midi": 44,
          "time": 374.1888150000235,
          "velocity": 0.7874015748031497,
          "duration": 0.19594575000002123
        },
        {
          "name": "G#2",
          "midi": 44,
          "time": 374.39151750002355,
          "velocity": 0.7874015748031497,
          "duration": 0.19594575000002123
        },
        {
          "name": "G#2",
          "midi": 44,
          "time": 374.5942200000236,
          "velocity": 0.7874015748031497,
          "duration": 0.19594575000002123
        },
        {
          "name": "G#2",
          "midi": 44,
          "time": 374.79692250002364,
          "velocity": 0.7874015748031497,
          "duration": 0.19594575000002123
        },
        {
          "name": "G#2",
          "midi": 44,
          "time": 374.9996250000237,
          "velocity": 0.7874015748031497,
          "duration": 0.19594575000002123
        },
        {
          "name": "G#2",
          "midi": 44,
          "time": 375.2023275000237,
          "velocity": 0.7874015748031497,
          "duration": 0.19594575000002123
        },
        {
          "name": "G#2",
          "midi": 44,
          "time": 375.40503000002377,
          "velocity": 0.7874015748031497,
          "duration": 0.19594575000002123
        },
        {
          "name": "E2",
          "midi": 40,
          "time": 375.40503000002377,
          "velocity": 0.7874015748031497,
          "duration": 0.39864825000006476
        },
        {
          "name": "G#2",
          "midi": 44,
          "time": 375.6077325000238,
          "velocity": 0.7874015748031497,
          "duration": 0.19594575000002123
        },
        {
          "name": "G#2",
          "midi": 44,
          "time": 375.81043500002386,
          "velocity": 0.7874015748031497,
          "duration": 0.19594575000002123
        },
        {
          "name": "G#2",
          "midi": 44,
          "time": 376.0131375000239,
          "velocity": 0.7874015748031497,
          "duration": 0.19594575000002123
        },
        {
          "name": "G#2",
          "midi": 44,
          "time": 376.21584000002395,
          "velocity": 0.7874015748031497,
          "duration": 0.19594575000002123
        },
        {
          "name": "G#2",
          "midi": 44,
          "time": 376.418542500024,
          "velocity": 0.7874015748031497,
          "duration": 0.19594575000002123
        },
        {
          "name": "G#2",
          "midi": 44,
          "time": 376.62124500002403,
          "velocity": 0.7874015748031497,
          "duration": 0.19594575000002123
        },
        {
          "name": "G#2",
          "midi": 44,
          "time": 376.8239475000241,
          "velocity": 0.7874015748031497,
          "duration": 0.19594575000002123
        },
        {
          "name": "E2",
          "midi": 40,
          "time": 377.0266500000241,
          "velocity": 0.7874015748031497,
          "duration": 0.39864825000006476
        },
        {
          "name": "G#2",
          "midi": 44,
          "time": 377.0266500000241,
          "velocity": 0.7874015748031497,
          "duration": 0.19594575000002123
        },
        {
          "name": "G#2",
          "midi": 44,
          "time": 377.22935250002416,
          "velocity": 0.7874015748031497,
          "duration": 0.19594575000002123
        },
        {
          "name": "G#2",
          "midi": 44,
          "time": 377.4320550000242,
          "velocity": 0.7874015748031497,
          "duration": 0.19594575000002123
        },
        {
          "name": "G#2",
          "midi": 44,
          "time": 377.63475750002425,
          "velocity": 0.7874015748031497,
          "duration": 0.19594575000002123
        },
        {
          "name": "G#2",
          "midi": 44,
          "time": 377.8374600000243,
          "velocity": 0.7874015748031497,
          "duration": 0.19594575000002123
        },
        {
          "name": "G#2",
          "midi": 44,
          "time": 378.04016250002434,
          "velocity": 0.7874015748031497,
          "duration": 0.19594575000002123
        },
        {
          "name": "G#2",
          "midi": 44,
          "time": 378.2428650000244,
          "velocity": 0.7874015748031497,
          "duration": 0.19594575000002123
        },
        {
          "name": "G#2",
          "midi": 44,
          "time": 378.4455675000244,
          "velocity": 0.7874015748031497,
          "duration": 0.19594575000002123
        },
        {
          "name": "E2",
          "midi": 40,
          "time": 378.64827000002447,
          "velocity": 0.7874015748031497,
          "duration": 0.39864825000006476
        },
        {
          "name": "G#2",
          "midi": 44,
          "time": 378.64827000002447,
          "velocity": 0.7874015748031497,
          "duration": 0.19594575000002123
        },
        {
          "name": "G#2",
          "midi": 44,
          "time": 378.8509725000245,
          "velocity": 0.7874015748031497,
          "duration": 0.19594575000002123
        },
        {
          "name": "G#2",
          "midi": 44,
          "time": 379.05367500002455,
          "velocity": 0.7874015748031497,
          "duration": 0.19594575000002123
        },
        {
          "name": "G#2",
          "midi": 44,
          "time": 379.2563775000246,
          "velocity": 0.7874015748031497,
          "duration": 0.19594575000002123
        },
        {
          "name": "G#2",
          "midi": 44,
          "time": 379.45908000002464,
          "velocity": 0.7874015748031497,
          "duration": 0.19594575000002123
        },
        {
          "name": "G#2",
          "midi": 44,
          "time": 379.6617825000247,
          "velocity": 0.7874015748031497,
          "duration": 0.19594575000002123
        },
        {
          "name": "G#2",
          "midi": 44,
          "time": 379.86448500002473,
          "velocity": 0.7874015748031497,
          "duration": 0.19594575000002123
        },
        {
          "name": "G#2",
          "midi": 44,
          "time": 380.0671875000248,
          "velocity": 0.7874015748031497,
          "duration": 0.19594575000002123
        },
        {
          "name": "G#2",
          "midi": 44,
          "time": 380.2698900000248,
          "velocity": 0.7874015748031497,
          "duration": 0.19594575000002123
        },
        {
          "name": "E2",
          "midi": 40,
          "time": 380.2698900000248,
          "velocity": 0.7874015748031497,
          "duration": 0.39864825000006476
        },
        {
          "name": "G#2",
          "midi": 44,
          "time": 380.47259250002486,
          "velocity": 0.7874015748031497,
          "duration": 0.19594575000002123
        },
        {
          "name": "G#2",
          "midi": 44,
          "time": 380.6752950000249,
          "velocity": 0.7874015748031497,
          "duration": 0.19594575000002123
        },
        {
          "name": "G#2",
          "midi": 44,
          "time": 380.87799750002495,
          "velocity": 0.7874015748031497,
          "duration": 0.19594575000002123
        },
        {
          "name": "G#2",
          "midi": 44,
          "time": 381.080700000025,
          "velocity": 0.7874015748031497,
          "duration": 0.19594575000002123
        },
        {
          "name": "G#2",
          "midi": 44,
          "time": 381.28340250002503,
          "velocity": 0.7874015748031497,
          "duration": 0.19594575000002123
        },
        {
          "name": "G#2",
          "midi": 44,
          "time": 381.4861050000251,
          "velocity": 0.7874015748031497,
          "duration": 0.19594575000002123
        },
        {
          "name": "G#2",
          "midi": 44,
          "time": 381.6888075000251,
          "velocity": 0.7874015748031497,
          "duration": 0.19594575000002123
        },
        {
          "name": "G#2",
          "midi": 44,
          "time": 381.89151000002516,
          "velocity": 0.7874015748031497,
          "duration": 0.19594575000002123
        },
        {
          "name": "E2",
          "midi": 40,
          "time": 381.89151000002516,
          "velocity": 0.7874015748031497,
          "duration": 0.39864825000006476
        },
        {
          "name": "G#2",
          "midi": 44,
          "time": 382.0942125000252,
          "velocity": 0.7874015748031497,
          "duration": 0.19594575000002123
        },
        {
          "name": "G#2",
          "midi": 44,
          "time": 382.29691500002525,
          "velocity": 0.7874015748031497,
          "duration": 0.19594575000002123
        },
        {
          "name": "G#2",
          "midi": 44,
          "time": 382.4996175000253,
          "velocity": 0.7874015748031497,
          "duration": 0.19594575000002123
        },
        {
          "name": "G#2",
          "midi": 44,
          "time": 382.70232000002534,
          "velocity": 0.7874015748031497,
          "duration": 0.19594575000002123
        },
        {
          "name": "G#2",
          "midi": 44,
          "time": 382.9050225000254,
          "velocity": 0.7874015748031497,
          "duration": 0.19594575000002123
        },
        {
          "name": "G#2",
          "midi": 44,
          "time": 383.1077250000254,
          "velocity": 0.7874015748031497,
          "duration": 0.19594575000002123
        },
        {
          "name": "G#2",
          "midi": 44,
          "time": 383.31042750002547,
          "velocity": 0.7874015748031497,
          "duration": 0.19594575000002123
        },
        {
          "name": "E2",
          "midi": 40,
          "time": 383.5131300000255,
          "velocity": 0.7874015748031497,
          "duration": 0.39864825000006476
        },
        {
          "name": "G#2",
          "midi": 44,
          "time": 383.5131300000255,
          "velocity": 0.7874015748031497,
          "duration": 0.19594575000002123
        },
        {
          "name": "G#2",
          "midi": 44,
          "time": 383.71583250002556,
          "velocity": 0.7874015748031497,
          "duration": 0.19594575000002123
        },
        {
          "name": "G#2",
          "midi": 44,
          "time": 383.9185350000256,
          "velocity": 0.7874015748031497,
          "duration": 0.19594575000002123
        },
        {
          "name": "G#2",
          "midi": 44,
          "time": 384.12123750002564,
          "velocity": 0.7874015748031497,
          "duration": 0.19594575000002123
        },
        {
          "name": "G#2",
          "midi": 44,
          "time": 384.3239400000257,
          "velocity": 0.7874015748031497,
          "duration": 0.19594575000002123
        },
        {
          "name": "G#2",
          "midi": 44,
          "time": 384.52664250002573,
          "velocity": 0.7874015748031497,
          "duration": 0.19594575000002123
        },
        {
          "name": "G#2",
          "midi": 44,
          "time": 384.7293450000258,
          "velocity": 0.7874015748031497,
          "duration": 0.19594575000002123
        },
        {
          "name": "G#2",
          "midi": 44,
          "time": 384.9320475000258,
          "velocity": 0.7874015748031497,
          "duration": 0.19594575000002123
        },
        {
          "name": "E2",
          "midi": 40,
          "time": 385.13475000002586,
          "velocity": 0.7874015748031497,
          "duration": 0.39864825000006476
        },
        {
          "name": "G#2",
          "midi": 44,
          "time": 385.13475000002586,
          "velocity": 0.7874015748031497,
          "duration": 0.19594575000002123
        },
        {
          "name": "G#2",
          "midi": 44,
          "time": 385.3374525000259,
          "velocity": 0.7874015748031497,
          "duration": 0.19594575000002123
        },
        {
          "name": "G#2",
          "midi": 44,
          "time": 385.54015500002595,
          "velocity": 0.7874015748031497,
          "duration": 0.19594575000002123
        },
        {
          "name": "G#2",
          "midi": 44,
          "time": 385.742857500026,
          "velocity": 0.7874015748031497,
          "duration": 0.19594575000002123
        },
        {
          "name": "G#2",
          "midi": 44,
          "time": 385.94556000002603,
          "velocity": 0.7874015748031497,
          "duration": 0.19594575000002123
        },
        {
          "name": "G#2",
          "midi": 44,
          "time": 386.1482625000261,
          "velocity": 0.7874015748031497,
          "duration": 0.19594575000002123
        },
        {
          "name": "G#2",
          "midi": 44,
          "time": 386.3509650000261,
          "velocity": 0.7874015748031497,
          "duration": 0.19594575000002123
        },
        {
          "name": "G#2",
          "midi": 44,
          "time": 386.55366750002617,
          "velocity": 0.7874015748031497,
          "duration": 0.19594575000002123
        },
        {
          "name": "G#2",
          "midi": 44,
          "time": 386.7563700000262,
          "velocity": 0.7874015748031497,
          "duration": 0.19594575000002123
        },
        {
          "name": "E2",
          "midi": 40,
          "time": 386.7563700000262,
          "velocity": 0.7874015748031497,
          "duration": 0.39864825000006476
        },
        {
          "name": "G#2",
          "midi": 44,
          "time": 386.95907250002625,
          "velocity": 0.7874015748031497,
          "duration": 0.19594575000002123
        },
        {
          "name": "G#2",
          "midi": 44,
          "time": 387.1617750000263,
          "velocity": 0.7874015748031497,
          "duration": 0.19594575000002123
        },
        {
          "name": "G#2",
          "midi": 44,
          "time": 387.36447750002634,
          "velocity": 0.7874015748031497,
          "duration": 0.19594575000002123
        },
        {
          "name": "G#2",
          "midi": 44,
          "time": 387.5671800000264,
          "velocity": 0.7874015748031497,
          "duration": 0.19594575000002123
        },
        {
          "name": "G#2",
          "midi": 44,
          "time": 387.7698825000264,
          "velocity": 0.7874015748031497,
          "duration": 0.19594575000002123
        },
        {
          "name": "G#2",
          "midi": 44,
          "time": 387.97258500002647,
          "velocity": 0.7874015748031497,
          "duration": 0.19594575000002123
        },
        {
          "name": "G#2",
          "midi": 44,
          "time": 388.1752875000265,
          "velocity": 0.7874015748031497,
          "duration": 0.19594575000002123
        },
        {
          "name": "E2",
          "midi": 40,
          "time": 388.37799000002656,
          "velocity": 0.7874015748031497,
          "duration": 0.39864825000006476
        },
        {
          "name": "G#2",
          "midi": 44,
          "time": 388.37799000002656,
          "velocity": 0.7874015748031497,
          "duration": 0.19594575000002123
        },
        {
          "name": "G#2",
          "midi": 44,
          "time": 388.5806925000266,
          "velocity": 0.7874015748031497,
          "duration": 0.19594575000002123
        },
        {
          "name": "G#2",
          "midi": 44,
          "time": 388.78339500002664,
          "velocity": 0.7874015748031497,
          "duration": 0.19594575000002123
        },
        {
          "name": "G#2",
          "midi": 44,
          "time": 388.9860975000267,
          "velocity": 0.7874015748031497,
          "duration": 0.19594575000002123
        }
      ],
      "controlChanges": {
        "7": [
          {
            "number": 7,
            "time": 12.16215,
            "value": 0.31496062992125984
          },
          {
            "number": 7,
            "time": 12.26350125,
            "value": 0.47244094488188976
          },
          {
            "number": 7,
            "time": 12.364852499999998,
            "value": 0.6299212598425197
          },
          {
            "number": 7,
            "time": 12.466203749999996,
            "value": 0.7874015748031497
          },
          {
            "number": 7,
            "time": 12.567554999999995,
            "value": 0.9448818897637795
          },
          {
            "number": 7,
            "time": 12.668906249999994,
            "value": 0.7874015748031497
          },
          {
            "number": 7,
            "time": 364.05369000002133,
            "value": 0.7086614173228346
          },
          {
            "number": 7,
            "time": 364.8645000000215,
            "value": 0.6850393700787402
          },
          {
            "number": 7,
            "time": 365.6753100000217,
            "value": 0.6614173228346457
          },
          {
            "number": 7,
            "time": 366.48612000002186,
            "value": 0.6377952755905512
          },
          {
            "number": 7,
            "time": 367.29693000002203,
            "value": 0.6141732283464567
          },
          {
            "number": 7,
            "time": 368.1077400000222,
            "value": 0.5905511811023622
          },
          {
            "number": 7,
            "time": 368.9185500000224,
            "value": 0.5669291338582677
          },
          {
            "number": 7,
            "time": 369.72936000002255,
            "value": 0.5433070866141733
          },
          {
            "number": 7,
            "time": 370.5401700000227,
            "value": 0.5196850393700787
          },
          {
            "number": 7,
            "time": 371.3509800000229,
            "value": 0.49606299212598426
          },
          {
            "number": 7,
            "time": 372.1617900000231,
            "value": 0.47244094488188976
          },
          {
            "number": 7,
            "time": 372.97260000002325,
            "value": 0.44881889763779526
          },
          {
            "number": 7,
            "time": 373.7834100000234,
            "value": 0.4251968503937008
          },
          {
            "number": 7,
            "time": 374.5942200000236,
            "value": 0.4015748031496063
          },
          {
            "number": 7,
            "time": 375.40503000002377,
            "value": 0.3779527559055118
          },
          {
            "number": 7,
            "time": 376.21584000002395,
            "value": 0.3543307086614173
          },
          {
            "number": 7,
            "time": 377.0266500000241,
            "value": 0.33070866141732286
          },
          {
            "number": 7,
            "time": 377.8374600000243,
            "value": 0.30708661417322836
          },
          {
            "number": 7,
            "time": 378.64827000002447,
            "value": 0.28346456692913385
          },
          {
            "number": 7,
            "time": 379.45908000002464,
            "value": 0.25984251968503935
          },
          {
            "number": 7,
            "time": 380.2698900000248,
            "value": 0.23622047244094488
          },
          {
            "number": 7,
            "time": 381.080700000025,
            "value": 0.2125984251968504
          },
          {
            "number": 7,
            "time": 381.89151000002516,
            "value": 0.1889763779527559
          },
          {
            "number": 7,
            "time": 382.70232000002534,
            "value": 0.16535433070866143
          },
          {
            "number": 7,
            "time": 383.5131300000255,
            "value": 0.14173228346456693
          },
          {
            "number": 7,
            "time": 384.3239400000257,
            "value": 0.11811023622047244
          },
          {
            "number": 7,
            "time": 385.13475000002586,
            "value": 0.09448818897637795
          },
          {
            "number": 7,
            "time": 385.94556000002603,
            "value": 0.07086614173228346
          },
          {
            "number": 7,
            "time": 386.7563700000262,
            "value": 0.047244094488188976
          },
          {
            "number": 7,
            "time": 387.5671800000264,
            "value": 0.023622047244094488
          },
          {
            "number": 7,
            "time": 388.37799000002656,
            "value": 0
          }
        ]
      },
      "id": 6,
      "name": "WinJammer Demo",
      "channelNumber": 9,
      "isPercussion": true
    },
    {
      "startTime": 0,
      "duration": 0,
      "length": 0,
      "notes": [],
      "controlChanges": {
        "7": [
          {
            "number": 7,
            "time": 364.05369,
            "value": 0.7086614173228346
          },
          {
            "number": 7,
            "time": 364.8645,
            "value": 0.6850393700787402
          },
          {
            "number": 7,
            "time": 365.67531,
            "value": 0.6614173228346457
          },
          {
            "number": 7,
            "time": 366.48612,
            "value": 0.6377952755905512
          },
          {
            "number": 7,
            "time": 367.29693000000003,
            "value": 0.6141732283464567
          },
          {
            "number": 7,
            "time": 368.10774000000004,
            "value": 0.5905511811023622
          },
          {
            "number": 7,
            "time": 368.91855000000004,
            "value": 0.5669291338582677
          },
          {
            "number": 7,
            "time": 369.72936000000004,
            "value": 0.5433070866141733
          },
          {
            "number": 7,
            "time": 370.54017000000005,
            "value": 0.5196850393700787
          },
          {
            "number": 7,
            "time": 371.35098000000005,
            "value": 0.49606299212598426
          },
          {
            "number": 7,
            "time": 372.16179000000005,
            "value": 0.47244094488188976
          },
          {
            "number": 7,
            "time": 372.97260000000006,
            "value": 0.44881889763779526
          },
          {
            "number": 7,
            "time": 373.78341000000006,
            "value": 0.4251968503937008
          },
          {
            "number": 7,
            "time": 374.59422000000006,
            "value": 0.4015748031496063
          },
          {
            "number": 7,
            "time": 375.40503000000007,
            "value": 0.3779527559055118
          },
          {
            "number": 7,
            "time": 376.21584000000007,
            "value": 0.3543307086614173
          },
          {
            "number": 7,
            "time": 377.0266500000001,
            "value": 0.33070866141732286
          },
          {
            "number": 7,
            "time": 377.8374600000001,
            "value": 0.30708661417322836
          },
          {
            "number": 7,
            "time": 378.6482700000001,
            "value": 0.28346456692913385
          },
          {
            "number": 7,
            "time": 379.4590800000001,
            "value": 0.25984251968503935
          },
          {
            "number": 7,
            "time": 380.2698900000001,
            "value": 0.23622047244094488
          },
          {
            "number": 7,
            "time": 381.0807000000001,
            "value": 0.2125984251968504
          },
          {
            "number": 7,
            "time": 381.8915100000001,
            "value": 0.1889763779527559
          },
          {
            "number": 7,
            "time": 382.7023200000001,
            "value": 0.16535433070866143
          },
          {
            "number": 7,
            "time": 383.5131300000001,
            "value": 0.14173228346456693
          },
          {
            "number": 7,
            "time": 384.3239400000001,
            "value": 0.11811023622047244
          },
          {
            "number": 7,
            "time": 385.1347500000001,
            "value": 0.09448818897637795
          },
          {
            "number": 7,
            "time": 385.9455600000001,
            "value": 0.07086614173228346
          },
          {
            "number": 7,
            "time": 386.7563700000001,
            "value": 0.047244094488188976
          },
          {
            "number": 7,
            "time": 387.5671800000001,
            "value": 0.023622047244094488
          },
          {
            "number": 7,
            "time": 388.3779900000001,
            "value": 0
          }
        ]
      },
      "id": 7,
      "name": "WinJammer Demo"
    }
  ]
}
