{"notes": [
	{
		"name": "D4",
		"midi": 62,
		"time": 4.79,
		"velocity": 0.6771653543307087,
		"duration": 0.5800000000000001
	},
	{
		"name": "A4",
		"midi": 69,
		"time": 4.8,
		"velocity": 0.6771653543307087,
		"duration": 0.5800000000000001
	},
	{
		"name": "A3",
		"midi": 57,
		"time": 4.8,
		"velocity": 0.6771653543307087,
		"duration": 0.29000000000000004
	},
	{
		"name": "D3",
		"midi": 50,
		"time": 4.81,
		"velocity": 0.6771653543307087,
		"duration": 0.5800000000000001
	},
	{
		"name": "C4",
		"midi": 60,
		"time": 4.81,
		"velocity": 0.6771653543307087,
		"duration": 0.5800000000000001
	},
	{
		"name": "A3",
		"midi": 57,
		"time": 5.109999999999999,
		"velocity": 0.5748031496062992,
		"duration": 0.29000000000000004
	},
	{
		"name": "A3",
		"midi": 57,
		"time": 5.39,
		"velocity": 0.5984251968503937,
		"duration": 0.29000000000000004
	},
	{
		"name": "D3",
		"midi": 50,
		"time": 5.39,
		"velocity": 0.5984251968503937,
		"duration": 0.5800000000000001
	},
	{
		"name": "A4",
		"midi": 69,
		"time": 5.3999999999999995,
		"velocity": 0.6771653543307087,
		"duration": 0.5800000000000001
	},
	{
		"name": "C4",
		"midi": 60,
		"time": 5.3999999999999995,
		"velocity": 0.5984251968503937,
		"duration": 0.5800000000000001
	},
	{
		"name": "D4",
		"midi": 62,
		"time": 5.404999999999999,
		"velocity": 0.5984251968503937,
		"duration": 0.5800000000000001
	},
	{
		"name": "A3",
		"midi": 57,
		"time": 5.699999999999999,
		"velocity": 0.6299212598425197,
		"duration": 0.29000000000000004
	},
	{
		"name": "A4",
		"midi": 69,
		"time": 5.999999999999999,
		"velocity": 0.6771653543307087,
		"duration": 0.5800000000000001
	},
	{
		"name": "A3",
		"midi": 57,
		"time": 6.004999999999999,
		"velocity": 0.6771653543307087,
		"duration": 0.29000000000000004
	},
	{
		"name": "D3",
		"midi": 50,
		"time": 6.004999999999999,
		"velocity": 0.6771653543307087,
		"duration": 0.5800000000000001
	},
	{
		"name": "D4",
		"midi": 62,
		"time": 6.009999999999999,
		"velocity": 0.6771653543307087,
		"duration": 0.5800000000000001
	},
	{
		"name": "C4",
		"midi": 60,
		"time": 6.009999999999999,
		"velocity": 0.6771653543307087,
		"duration": 0.5800000000000001
	},
	{
		"name": "A3",
		"midi": 57,
		"time": 6.294999999999999,
		"velocity": 0.5748031496062992,
		"duration": 0.29000000000000004
	},
	{
		"name": "D3",
		"midi": 50,
		"time": 6.589999999999999,
		"velocity": 0.5984251968503937,
		"duration": 0.5800000000000001
	},
	{
		"name": "A4",
		"midi": 69,
		"time": 6.599999999999999,
		"velocity": 0.6771653543307087,
		"duration": 0.5800000000000001
	},
	{
		"name": "A3",
		"midi": 57,
		"time": 6.604999999999999,
		"velocity": 0.5984251968503937,
		"duration": 0.29000000000000004
	},
	{
		"name": "D4",
		"midi": 62,
		"time": 6.6099999999999985,
		"velocity": 0.5984251968503937,
		"duration": 0.5800000000000001
	},
	{
		"name": "C4",
		"midi": 60,
		"time": 6.6099999999999985,
		"velocity": 0.5984251968503937,
		"duration": 0.5800000000000001
	},
	{
		"name": "A3",
		"midi": 57,
		"time": 6.899999999999999,
		"velocity": 0.6299212598425197,
		"duration": 0.29000000000000004
	},
	{
		"name": "D4",
		"midi": 62,
		"time": 7.1949999999999985,
		"velocity": 0.6771653543307087,
		"duration": 0.5800000000000001
	},
	{
		"name": "A#4",
		"midi": 70,
		"time": 7.204999999999998,
		"velocity": 0.6771653543307087,
		"duration": 0.5800000000000001
	},
	{
		"name": "A#2",
		"midi": 46,
		"time": 7.204999999999998,
		"velocity": 0.6771653543307087,
		"duration": 0.5800000000000001
	},
	{
		"name": "A#3",
		"midi": 58,
		"time": 7.204999999999998,
		"velocity": 0.6771653543307087,
		"duration": 0.29000000000000004
	},
	{
		"name": "F3",
		"midi": 53,
		"time": 7.209999999999998,
		"velocity": 0.6771653543307087,
		"duration": 0.28000000000000025
	},
	{
		"name": "F3",
		"midi": 53,
		"time": 7.499999999999998,
		"velocity": 0.5196850393700787,
		"duration": 0.28000000000000025
	},
	{
		"name": "A#3",
		"midi": 58,
		"time": 7.514999999999998,
		"velocity": 0.5748031496062992,
		"duration": 0.29000000000000004
	},
	{
		"name": "A#2",
		"midi": 46,
		"time": 7.784999999999998,
		"velocity": 0.5984251968503937,
		"duration": 0.5799999999999983
	},
	{
		"name": "A#3",
		"midi": 58,
		"time": 7.794999999999998,
		"velocity": 0.5984251968503937,
		"duration": 0.28999999999999915
	},
	{
		"name": "F3",
		"midi": 53,
		"time": 7.799999999999998,
		"velocity": 0.5984251968503937,
		"duration": 0.5799999999999992
	},
	{
		"name": "A#4",
		"midi": 70,
		"time": 7.804999999999998,
		"velocity": 0.6771653543307087,
		"duration": 0.5800000000000001
	},
	{
		"name": "D4",
		"midi": 62,
		"time": 7.809999999999998,
		"velocity": 0.5984251968503937,
		"duration": 0.580000000000001
	},
	{
		"name": "A#3",
		"midi": 58,
		"time": 8.104999999999997,
		"velocity": 0.6299212598425197,
		"duration": 0.2900000000000027
	},
	{
		"name": "A#2",
		"midi": 46,
		"time": 8.4,
		"velocity": 0.6771653543307087,
		"duration": 0.5800000000000036
	},
	{
		"name": "A#4",
		"midi": 70,
		"time": 8.405000000000001,
		"velocity": 0.6771653543307087,
		"duration": 0.5800000000000036
	},
	{
		"name": "A#3",
		"midi": 58,
		"time": 8.410000000000002,
		"velocity": 0.6771653543307087,
		"duration": 0.2900000000000009
	},
	{
		"name": "F3",
		"midi": 53,
		"time": 8.410000000000002,
		"velocity": 0.6771653543307087,
		"duration": 0.27500000000000036
	},
	{
		"name": "D4",
		"midi": 62,
		"time": 8.415000000000003,
		"velocity": 0.6771653543307087,
		"duration": 0.5800000000000036
	},
	{
		"name": "A#3",
		"midi": 58,
		"time": 8.700000000000003,
		"velocity": 0.5748031496062992,
		"duration": 0.2900000000000027
	},
	{
		"name": "F3",
		"midi": 53,
		"time": 8.700000000000003,
		"velocity": 0.5196850393700787,
		"duration": 0.27500000000000036
	},
	{
		"name": "A#2",
		"midi": 46,
		"time": 8.985000000000005,
		"velocity": 0.5984251968503937,
		"duration": 0.5800000000000036
	},
	{
		"name": "A#4",
		"midi": 70,
		"time": 9.005000000000006,
		"velocity": 0.6771653543307087,
		"duration": 0.5800000000000018
	},
	{
		"name": "F3",
		"midi": 53,
		"time": 9.010000000000007,
		"velocity": 0.5984251968503937,
		"duration": 0.5800000000000018
	},
	{
		"name": "A#3",
		"midi": 58,
		"time": 9.010000000000007,
		"velocity": 0.5984251968503937,
		"duration": 0.2900000000000009
	},
	{
		"name": "D4",
		"midi": 62,
		"time": 9.015000000000008,
		"velocity": 0.5984251968503937,
		"duration": 0.5800000000000018
	},
	{
		"name": "C4",
		"midi": 60,
		"time": 9.305000000000009,
		"velocity": 0.8267716535433071,
		"duration": 0.2900000000000009
	},
	{
		"name": "A4",
		"midi": 69,
		"time": 9.60000000000001,
		"velocity": 0.6771653543307087,
		"duration": 0.5800000000000018
	},
	{
		"name": "A3",
		"midi": 57,
		"time": 9.60000000000001,
		"velocity": 0.6771653543307087,
		"duration": 0.2900000000000027
	},
	{
		"name": "F3",
		"midi": 53,
		"time": 9.605000000000011,
		"velocity": 0.6771653543307087,
		"duration": 0.3050000000000015
	},
	{
		"name": "F2",
		"midi": 41,
		"time": 9.605000000000011,
		"velocity": 0.6771653543307087,
		"duration": 0.5800000000000018
	},
	{
		"name": "F4",
		"midi": 65,
		"time": 9.605000000000011,
		"velocity": 0.48031496062992124,
		"duration": 0.5800000000000018
	},
	{
		"name": "C4",
		"midi": 60,
		"time": 9.610000000000012,
		"velocity": 0.6771653543307087,
		"duration": 0.5800000000000018
	},
	{
		"name": "F3",
		"midi": 53,
		"time": 9.900000000000013,
		"velocity": 0.6771653543307087,
		"duration": 0.30500000000000327
	},
	{
		"name": "A3",
		"midi": 57,
		"time": 9.910000000000013,
		"velocity": 0.5748031496062992,
		"duration": 0.2900000000000027
	},
	{
		"name": "F2",
		"midi": 41,
		"time": 10.185000000000013,
		"velocity": 0.5984251968503937,
		"duration": 0.5800000000000036
	},
	{
		"name": "A3",
		"midi": 57,
		"time": 10.190000000000014,
		"velocity": 0.5984251968503937,
		"duration": 0.2900000000000027
	},
	{
		"name": "F4",
		"midi": 65,
		"time": 10.195000000000014,
		"velocity": 0.4251968503937008,
		"duration": 0.5800000000000018
	},
	{
		"name": "C4",
		"midi": 60,
		"time": 10.200000000000015,
		"velocity": 0.5984251968503937,
		"duration": 0.5800000000000018
	},
	{
		"name": "A4",
		"midi": 69,
		"time": 10.200000000000015,
		"velocity": 0.6771653543307087,
		"duration": 0.5800000000000018
	},
	{
		"name": "F3",
		"midi": 53,
		"time": 10.200000000000015,
		"velocity": 0.5984251968503937,
		"duration": 0.3000000000000007
	},
	{
		"name": "F3",
		"midi": 53,
		"time": 10.500000000000016,
		"velocity": 0.5984251968503937,
		"duration": 0.3000000000000007
	},
	{
		"name": "A3",
		"midi": 57,
		"time": 10.500000000000016,
		"velocity": 0.6299212598425197,
		"duration": 0.2900000000000009
	},
	{
		"name": "F2",
		"midi": 41,
		"time": 10.800000000000017,
		"velocity": 0.6771653543307087,
		"duration": 0.5800000000000036
	},
	{
		"name": "A4",
		"midi": 69,
		"time": 10.800000000000017,
		"velocity": 0.6771653543307087,
		"duration": 0.5800000000000036
	},
	{
		"name": "F3",
		"midi": 53,
		"time": 10.800000000000017,
		"velocity": 0.6771653543307087,
		"duration": 0.3000000000000025
	},
	{
		"name": "F4",
		"midi": 65,
		"time": 10.805000000000017,
		"velocity": 0.48031496062992124,
		"duration": 0.5800000000000036
	},
	{
		"name": "A3",
		"midi": 57,
		"time": 10.805000000000017,
		"velocity": 0.6771653543307087,
		"duration": 0.2900000000000009
	},
	{
		"name": "C4",
		"midi": 60,
		"time": 10.810000000000018,
		"velocity": 0.6771653543307087,
		"duration": 0.5800000000000036
	},
	{
		"name": "A3",
		"midi": 57,
		"time": 11.095000000000018,
		"velocity": 0.5748031496062992,
		"duration": 0.2900000000000027
	},
	{
		"name": "F3",
		"midi": 53,
		"time": 11.10000000000002,
		"velocity": 0.5984251968503937,
		"duration": 0.3000000000000025
	},
	{
		"name": "F2",
		"midi": 41,
		"time": 11.385000000000021,
		"velocity": 0.5984251968503937,
		"duration": 0.5800000000000036
	},
	{
		"name": "A4",
		"midi": 69,
		"time": 11.400000000000022,
		"velocity": 0.6771653543307087,
		"duration": 0.5800000000000036
	},
	{
		"name": "F3",
		"midi": 53,
		"time": 11.400000000000022,
		"velocity": 0.5984251968503937,
		"duration": 0.3000000000000025
	},
	{
		"name": "A3",
		"midi": 57,
		"time": 11.405000000000022,
		"velocity": 0.5984251968503937,
		"duration": 0.2900000000000009
	},
	{
		"name": "F4",
		"midi": 65,
		"time": 11.405000000000022,
		"velocity": 0.4251968503937008,
		"duration": 0.5800000000000036
	},
	{
		"name": "C4",
		"midi": 60,
		"time": 11.410000000000023,
		"velocity": 0.5984251968503937,
		"duration": 0.5800000000000036
	},
	{
		"name": "F3",
		"midi": 53,
		"time": 11.700000000000024,
		"velocity": 0.5984251968503937,
		"duration": 0.30000000000000426
	},
	{
		"name": "A3",
		"midi": 57,
		"time": 11.700000000000024,
		"velocity": 0.6299212598425197,
		"duration": 0.2900000000000027
	},
	{
		"name": "F4",
		"midi": 65,
		"time": 11.995000000000028,
		"velocity": 0.5354330708661418,
		"duration": 0.5800000000000072
	},
	{
		"name": "G3",
		"midi": 55,
		"time": 12.000000000000028,
		"velocity": 0.6771653543307087,
		"duration": 0.30500000000000504
	},
	{
		"name": "G4",
		"midi": 67,
		"time": 12.00500000000003,
		"velocity": 0.6771653543307087,
		"duration": 0.5800000000000054
	},
	{
		"name": "C3",
		"midi": 48,
		"time": 12.00500000000003,
		"velocity": 0.6771653543307087,
		"duration": 0.5800000000000054
	},
	{
		"name": "F3",
		"midi": 53,
		"time": 12.01000000000003,
		"velocity": 0.6771653543307087,
		"duration": 0.5800000000000054
	},
	{
		"name": "F2",
		"midi": 41,
		"time": 12.01500000000003,
		"velocity": 0.6771653543307087,
		"duration": 0.5800000000000054
	},
	{
		"name": "C4",
		"midi": 60,
		"time": 12.020000000000032,
		"velocity": 0.6771653543307087,
		"duration": 0.28000000000000114
	},
	{
		"name": "G3",
		"midi": 55,
		"time": 12.310000000000034,
		"velocity": 0.6771653543307087,
		"duration": 0.30500000000000504
	},
	{
		"name": "C4",
		"midi": 60,
		"time": 12.310000000000034,
		"velocity": 0.6771653543307087,
		"duration": 0.28000000000000114
	},
	{
		"name": "F2",
		"midi": 41,
		"time": 12.595000000000036,
		"velocity": 0.5984251968503937,
		"duration": 0.5800000000000054
	},
	{
		"name": "C3",
		"midi": 48,
		"time": 12.595000000000036,
		"velocity": 0.5984251968503937,
		"duration": 0.5800000000000054
	},
	{
		"name": "F4",
		"midi": 65,
		"time": 12.600000000000037,
		"velocity": 0.5354330708661418,
		"duration": 0.5800000000000054
	},
	{
		"name": "G4",
		"midi": 67,
		"time": 12.605000000000038,
		"velocity": 0.6771653543307087,
		"duration": 0.5800000000000054
	},
	{
		"name": "F3",
		"midi": 53,
		"time": 12.610000000000039,
		"velocity": 0.6771653543307087,
		"duration": 0.5800000000000054
	},
	{
		"name": "C4",
		"midi": 60,
		"time": 12.610000000000039,
		"velocity": 0.5984251968503937,
		"duration": 0.2900000000000027
	},
	{
		"name": "G3",
		"midi": 55,
		"time": 12.62000000000004,
		"velocity": 0.6771653543307087,
		"duration": 0.3050000000000015
	},
	{
		"name": "C4",
		"midi": 60,
		"time": 12.900000000000041,
		"velocity": 0.5984251968503937,
		"duration": 0.2900000000000027
	},
	{
		"name": "G3",
		"midi": 55,
		"time": 12.910000000000041,
		"velocity": 0.5984251968503937,
		"duration": 0.2800000000000029
	},
	{
		"name": "F4",
		"midi": 65,
		"time": 13.205000000000044,
		"velocity": 0.5354330708661418,
		"duration": 0.5800000000000036
	},
	{
		"name": "C3",
		"midi": 48,
		"time": 13.205000000000044,
		"velocity": 0.6771653543307087,
		"duration": 0.5800000000000036
	},
	{
		"name": "G4",
		"midi": 67,
		"time": 13.205000000000044,
		"velocity": 0.6771653543307087,
		"duration": 0.5800000000000036
	},
	{
		"name": "F2",
		"midi": 41,
		"time": 13.210000000000045,
		"velocity": 0.6771653543307087,
		"duration": 0.5800000000000036
	},
	{
		"name": "G3",
		"midi": 55,
		"time": 13.215000000000046,
		"velocity": 0.5984251968503937,
		"duration": 0.28000000000000114
	},
	{
		"name": "F3",
		"midi": 53,
		"time": 13.215000000000046,
		"velocity": 0.6771653543307087,
		"duration": 0.5800000000000036
	},
	{
		"name": "C4",
		"midi": 60,
		"time": 13.220000000000047,
		"velocity": 0.6771653543307087,
		"duration": 0.28000000000000114
	},
	{
		"name": "C4",
		"midi": 60,
		"time": 13.500000000000048,
		"velocity": 0.6771653543307087,
		"duration": 0.27999999999999936
	},
	{
		"name": "G3",
		"midi": 55,
		"time": 13.510000000000048,
		"velocity": 0.5984251968503937,
		"duration": 0.2850000000000019
	},
	{
		"name": "F2",
		"midi": 41,
		"time": 13.79500000000005,
		"velocity": 0.5984251968503937,
		"duration": 0.5800000000000001
	},
	{
		"name": "F4",
		"midi": 65,
		"time": 13.80500000000005,
		"velocity": 0.5354330708661418,
		"duration": 0.5800000000000018
	},
	{
		"name": "G3",
		"midi": 55,
		"time": 13.80500000000005,
		"velocity": 0.5984251968503937,
		"duration": 0.28500000000000014
	},
	{
		"name": "C3",
		"midi": 48,
		"time": 13.80500000000005,
		"velocity": 0.5984251968503937,
		"duration": 0.5800000000000018
	},
	{
		"name": "G4",
		"midi": 67,
		"time": 13.80500000000005,
		"velocity": 0.6771653543307087,
		"duration": 0.5800000000000018
	},
	{
		"name": "F3",
		"midi": 53,
		"time": 13.81000000000005,
		"velocity": 0.6771653543307087,
		"duration": 0.5800000000000018
	},
	{
		"name": "C4",
		"midi": 60,
		"time": 13.82000000000005,
		"velocity": 0.5984251968503937,
		"duration": 0.27999999999999936
	},
	{
		"name": "C4",
		"midi": 60,
		"time": 14.10000000000005,
		"velocity": 0.5984251968503937,
		"duration": 0.28000000000000114
	},
	{
		"name": "G3",
		"midi": 55,
		"time": 14.11000000000005,
		"velocity": 0.5984251968503937,
		"duration": 0.30000000000000426
	},
	{
		"name": "D4",
		"midi": 62,
		"time": 14.395000000000053,
		"velocity": 0.6771653543307087,
		"duration": 0.5800000000000018
	},
	{
		"name": "A4",
		"midi": 69,
		"time": 14.405000000000053,
		"velocity": 0.6771653543307087,
		"duration": 0.5800000000000018
	},
	{
		"name": "A3",
		"midi": 57,
		"time": 14.405000000000053,
		"velocity": 0.6771653543307087,
		"duration": 0.2900000000000027
	},
	{
		"name": "D3",
		"midi": 50,
		"time": 14.415000000000054,
		"velocity": 0.6771653543307087,
		"duration": 0.5800000000000001
	},
	{
		"name": "C4",
		"midi": 60,
		"time": 14.415000000000054,
		"velocity": 0.6771653543307087,
		"duration": 0.5800000000000001
	},
	{
		"name": "A3",
		"midi": 57,
		"time": 14.715000000000055,
		"velocity": 0.5748031496062992,
		"duration": 0.28999999999999915
	},
	{
		"name": "A3",
		"midi": 57,
		"time": 14.995000000000054,
		"velocity": 0.5984251968503937,
		"duration": 0.2900000000000009
	},
	{
		"name": "D3",
		"midi": 50,
		"time": 14.995000000000054,
		"velocity": 0.5984251968503937,
		"duration": 0.5800000000000001
	},
	{
		"name": "A4",
		"midi": 69,
		"time": 15.005000000000054,
		"velocity": 0.6771653543307087,
		"duration": 0.5800000000000001
	},
	{
		"name": "C4",
		"midi": 60,
		"time": 15.005000000000054,
		"velocity": 0.5984251968503937,
		"duration": 0.5800000000000001
	},
	{
		"name": "D4",
		"midi": 62,
		"time": 15.010000000000055,
		"velocity": 0.5984251968503937,
		"duration": 0.5800000000000001
	},
	{
		"name": "A3",
		"midi": 57,
		"time": 15.305000000000055,
		"velocity": 0.6299212598425197,
		"duration": 0.2900000000000009
	},
	{
		"name": "A4",
		"midi": 69,
		"time": 15.605000000000055,
		"velocity": 0.6771653543307087,
		"duration": 0.5800000000000001
	},
	{
		"name": "A3",
		"midi": 57,
		"time": 15.610000000000056,
		"velocity": 0.6771653543307087,
		"duration": 0.2900000000000009
	},
	{
		"name": "D3",
		"midi": 50,
		"time": 15.610000000000056,
		"velocity": 0.6771653543307087,
		"duration": 0.5799999999999983
	},
	{
		"name": "D4",
		"midi": 62,
		"time": 15.615000000000057,
		"velocity": 0.6771653543307087,
		"duration": 0.5799999999999965
	},
	{
		"name": "C4",
		"midi": 60,
		"time": 15.615000000000057,
		"velocity": 0.6771653543307087,
		"duration": 0.5799999999999965
	},
	{
		"name": "A3",
		"midi": 57,
		"time": 15.900000000000057,
		"velocity": 0.5748031496062992,
		"duration": 0.28999999999999737
	},
	{
		"name": "D3",
		"midi": 50,
		"time": 16.195000000000054,
		"velocity": 0.5984251968503937,
		"duration": 0.5800000000000018
	},
	{
		"name": "A4",
		"midi": 69,
		"time": 16.205000000000055,
		"velocity": 0.6771653543307087,
		"duration": 0.5800000000000018
	},
	{
		"name": "A3",
		"midi": 57,
		"time": 16.210000000000054,
		"velocity": 0.5984251968503937,
		"duration": 0.28999999999999915
	},
	{
		"name": "D4",
		"midi": 62,
		"time": 16.215000000000053,
		"velocity": 0.5984251968503937,
		"duration": 0.5800000000000054
	},
	{
		"name": "C4",
		"midi": 60,
		"time": 16.215000000000053,
		"velocity": 0.5984251968503937,
		"duration": 0.5800000000000054
	},
	{
		"name": "A3",
		"midi": 57,
		"time": 16.505000000000052,
		"velocity": 0.6299212598425197,
		"duration": 0.29000000000000625
	},
	{
		"name": "D4",
		"midi": 62,
		"time": 16.800000000000058,
		"velocity": 0.6771653543307087,
		"duration": 0.5800000000000018
	},
	{
		"name": "A#4",
		"midi": 70,
		"time": 16.81000000000006,
		"velocity": 0.6771653543307087,
		"duration": 0.5799999999999983
	},
	{
		"name": "A#2",
		"midi": 46,
		"time": 16.81000000000006,
		"velocity": 0.6771653543307087,
		"duration": 0.5799999999999983
	},
	{
		"name": "A#3",
		"midi": 58,
		"time": 16.81000000000006,
		"velocity": 0.6771653543307087,
		"duration": 0.28999999999999915
	},
	{
		"name": "F3",
		"midi": 53,
		"time": 16.815000000000058,
		"velocity": 0.6771653543307087,
		"duration": 0.28000000000000114
	},
	{
		"name": "F3",
		"midi": 53,
		"time": 17.105000000000057,
		"velocity": 0.5196850393700787,
		"duration": 0.28000000000000114
	},
	{
		"name": "A#3",
		"midi": 58,
		"time": 17.120000000000058,
		"velocity": 0.5748031496062992,
		"duration": 0.28999999999999915
	},
	{
		"name": "A#2",
		"midi": 46,
		"time": 17.390000000000057,
		"velocity": 0.5984251968503937,
		"duration": 0.5800000000000018
	},
	{
		"name": "A#3",
		"midi": 58,
		"time": 17.40000000000006,
		"velocity": 0.5984251968503937,
		"duration": 0.28999999999999915
	},
	{
		"name": "F3",
		"midi": 53,
		"time": 17.405000000000058,
		"velocity": 0.5984251968503937,
		"duration": 0.5800000000000018
	},
	{
		"name": "A#4",
		"midi": 70,
		"time": 17.410000000000057,
		"velocity": 0.6771653543307087,
		"duration": 0.5800000000000018
	},
	{
		"name": "D4",
		"midi": 62,
		"time": 17.415000000000056,
		"velocity": 0.5984251968503937,
		"duration": 0.5800000000000018
	},
	{
		"name": "A#3",
		"midi": 58,
		"time": 17.710000000000058,
		"velocity": 0.6299212598425197,
		"duration": 0.28999999999999915
	},
	{
		"name": "A#2",
		"midi": 46,
		"time": 18.005000000000056,
		"velocity": 0.6771653543307087,
		"duration": 0.5800000000000018
	},
	{
		"name": "A#4",
		"midi": 70,
		"time": 18.010000000000055,
		"velocity": 0.6771653543307087,
		"duration": 0.5800000000000018
	},
	{
		"name": "A#3",
		"midi": 58,
		"time": 18.015000000000054,
		"velocity": 0.6771653543307087,
		"duration": 0.2900000000000027
	},
	{
		"name": "F3",
		"midi": 53,
		"time": 18.015000000000054,
		"velocity": 0.6771653543307087,
		"duration": 0.27500000000000213
	},
	{
		"name": "D4",
		"midi": 62,
		"time": 18.020000000000053,
		"velocity": 0.6771653543307087,
		"duration": 0.5800000000000018
	},
	{
		"name": "A#3",
		"midi": 58,
		"time": 18.305000000000057,
		"velocity": 0.5748031496062992,
		"duration": 0.28999999999999915
	},
	{
		"name": "F3",
		"midi": 53,
		"time": 18.305000000000057,
		"velocity": 0.5196850393700787,
		"duration": 0.27500000000000213
	},
	{
		"name": "A#2",
		"midi": 46,
		"time": 18.590000000000057,
		"velocity": 0.5984251968503937,
		"duration": 0.5799999999999983
	},
	{
		"name": "A#4",
		"midi": 70,
		"time": 18.610000000000056,
		"velocity": 0.6771653543307087,
		"duration": 0.5799999999999983
	},
	{
		"name": "F3",
		"midi": 53,
		"time": 18.615000000000055,
		"velocity": 0.5984251968503937,
		"duration": 0.5799999999999983
	},
	{
		"name": "A#3",
		"midi": 58,
		"time": 18.615000000000055,
		"velocity": 0.5984251968503937,
		"duration": 0.28999999999999915
	},
	{
		"name": "D4",
		"midi": 62,
		"time": 18.620000000000054,
		"velocity": 0.5984251968503937,
		"duration": 0.5799999999999983
	},
	{
		"name": "C4",
		"midi": 60,
		"time": 18.910000000000053,
		"velocity": 0.8267716535433071,
		"duration": 0.28999999999999915
	},
	{
		"name": "A4",
		"midi": 69,
		"time": 19.20500000000005,
		"velocity": 0.6771653543307087,
		"duration": 0.5800000000000018
	},
	{
		"name": "A3",
		"midi": 57,
		"time": 19.20500000000005,
		"velocity": 0.6771653543307087,
		"duration": 0.28999999999999915
	},
	{
		"name": "F3",
		"midi": 53,
		"time": 19.21000000000005,
		"velocity": 0.6771653543307087,
		"duration": 0.30500000000000327
	},
	{
		"name": "F2",
		"midi": 41,
		"time": 19.21000000000005,
		"velocity": 0.6771653543307087,
		"duration": 0.5800000000000018
	},
	{
		"name": "F4",
		"midi": 65,
		"time": 19.21000000000005,
		"velocity": 0.48031496062992124,
		"duration": 0.5800000000000018
	},
	{
		"name": "C4",
		"midi": 60,
		"time": 19.21500000000005,
		"velocity": 0.6771653543307087,
		"duration": 0.5800000000000018
	},
	{
		"name": "F3",
		"midi": 53,
		"time": 19.505000000000052,
		"velocity": 0.6771653543307087,
		"duration": 0.30499999999999616
	},
	{
		"name": "A3",
		"midi": 57,
		"time": 19.515000000000054,
		"velocity": 0.5748031496062992,
		"duration": 0.2899999999999956
	},
	{
		"name": "F2",
		"midi": 41,
		"time": 19.790000000000052,
		"velocity": 0.5984251968503937,
		"duration": 0.5799999999999947
	},
	{
		"name": "A3",
		"midi": 57,
		"time": 19.79500000000005,
		"velocity": 0.5984251968503937,
		"duration": 0.2899999999999956
	},
	{
		"name": "F4",
		"midi": 65,
		"time": 19.80000000000005,
		"velocity": 0.4251968503937008,
		"duration": 0.5799999999999983
	},
	{
		"name": "C4",
		"midi": 60,
		"time": 19.80500000000005,
		"velocity": 0.5984251968503937,
		"duration": 0.5799999999999983
	},
	{
		"name": "A4",
		"midi": 69,
		"time": 19.80500000000005,
		"velocity": 0.6771653543307087,
		"duration": 0.5799999999999983
	},
	{
		"name": "F3",
		"midi": 53,
		"time": 19.80500000000005,
		"velocity": 0.5984251968503937,
		"duration": 0.29999999999999716
	},
	{
		"name": "F3",
		"midi": 53,
		"time": 20.105000000000047,
		"velocity": 0.5984251968503937,
		"duration": 0.30000000000000426
	},
	{
		"name": "A3",
		"midi": 57,
		"time": 20.105000000000047,
		"velocity": 0.6299212598425197,
		"duration": 0.2900000000000027
	},
	{
		"name": "F2",
		"midi": 41,
		"time": 20.40500000000005,
		"velocity": 0.6771653543307087,
		"duration": 0.5799999999999983
	},
	{
		"name": "A4",
		"midi": 69,
		"time": 20.40500000000005,
		"velocity": 0.6771653543307087,
		"duration": 0.5799999999999983
	},
	{
		"name": "F3",
		"midi": 53,
		"time": 20.40500000000005,
		"velocity": 0.6771653543307087,
		"duration": 0.29999999999999716
	},
	{
		"name": "F4",
		"midi": 65,
		"time": 20.41000000000005,
		"velocity": 0.48031496062992124,
		"duration": 0.5799999999999983
	},
	{
		"name": "A3",
		"midi": 57,
		"time": 20.41000000000005,
		"velocity": 0.6771653543307087,
		"duration": 0.28999999999999915
	},
	{
		"name": "C4",
		"midi": 60,
		"time": 20.41500000000005,
		"velocity": 0.6771653543307087,
		"duration": 0.5799999999999983
	},
	{
		"name": "A3",
		"midi": 57,
		"time": 20.70000000000005,
		"velocity": 0.5748031496062992,
		"duration": 0.28999999999999915
	},
	{
		"name": "F3",
		"midi": 53,
		"time": 20.705000000000048,
		"velocity": 0.5984251968503937,
		"duration": 0.3000000000000007
	},
	{
		"name": "F2",
		"midi": 41,
		"time": 20.990000000000048,
		"velocity": 0.5984251968503937,
		"duration": 0.5799999999999983
	},
	{
		"name": "A4",
		"midi": 69,
		"time": 21.00500000000005,
		"velocity": 0.6771653543307087,
		"duration": 0.5799999999999983
	},
	{
		"name": "F3",
		"midi": 53,
		"time": 21.00500000000005,
		"velocity": 0.5984251968503937,
		"duration": 0.29999999999999716
	},
	{
		"name": "A3",
		"midi": 57,
		"time": 21.010000000000048,
		"velocity": 0.5984251968503937,
		"duration": 0.28999999999999915
	},
	{
		"name": "F4",
		"midi": 65,
		"time": 21.010000000000048,
		"velocity": 0.4251968503937008,
		"duration": 0.5799999999999983
	},
	{
		"name": "C4",
		"midi": 60,
		"time": 21.015000000000047,
		"velocity": 0.5984251968503937,
		"duration": 0.5799999999999983
	},
	{
		"name": "F3",
		"midi": 53,
		"time": 21.305000000000046,
		"velocity": 0.5984251968503937,
		"duration": 0.29999999999999716
	},
	{
		"name": "A3",
		"midi": 57,
		"time": 21.305000000000046,
		"velocity": 0.6299212598425197,
		"duration": 0.28999999999999915
	},
	{
		"name": "F4",
		"midi": 65,
		"time": 21.600000000000044,
		"velocity": 0.5354330708661418,
		"duration": 0.5799999999999947
	},
	{
		"name": "G3",
		"midi": 55,
		"time": 21.605000000000043,
		"velocity": 0.6771653543307087,
		"duration": 0.30499999999999616
	},
	{
		"name": "G4",
		"midi": 67,
		"time": 21.610000000000042,
		"velocity": 0.6771653543307087,
		"duration": 0.5799999999999983
	},
	{
		"name": "C3",
		"midi": 48,
		"time": 21.610000000000042,
		"velocity": 0.6771653543307087,
		"duration": 0.5799999999999983
	},
	{
		"name": "F3",
		"midi": 53,
		"time": 21.61500000000004,
		"velocity": 0.6771653543307087,
		"duration": 0.5799999999999983
	},
	{
		"name": "F2",
		"midi": 41,
		"time": 21.62000000000004,
		"velocity": 0.6771653543307087,
		"duration": 0.5799999999999983
	},
	{
		"name": "C4",
		"midi": 60,
		"time": 21.62500000000004,
		"velocity": 0.6771653543307087,
		"duration": 0.28000000000000114
	},
	{
		"name": "G3",
		"midi": 55,
		"time": 21.91500000000004,
		"velocity": 0.6771653543307087,
		"duration": 0.30499999999999616
	},
	{
		"name": "C4",
		"midi": 60,
		"time": 21.91500000000004,
		"velocity": 0.6771653543307087,
		"duration": 0.28000000000000114
	},
	{
		"name": "F2",
		"midi": 41,
		"time": 22.20000000000004,
		"velocity": 0.5984251968503937,
		"duration": 0.5799999999999983
	},
	{
		"name": "C3",
		"midi": 48,
		"time": 22.20000000000004,
		"velocity": 0.5984251968503937,
		"duration": 0.5799999999999983
	},
	{
		"name": "F4",
		"midi": 65,
		"time": 22.205000000000037,
		"velocity": 0.5354330708661418,
		"duration": 0.5799999999999983
	},
	{
		"name": "G4",
		"midi": 67,
		"time": 22.210000000000036,
		"velocity": 0.6771653543307087,
		"duration": 0.5799999999999983
	},
	{
		"name": "F3",
		"midi": 53,
		"time": 22.215000000000035,
		"velocity": 0.6771653543307087,
		"duration": 0.5799999999999983
	},
	{
		"name": "C4",
		"midi": 60,
		"time": 22.215000000000035,
		"velocity": 0.5984251968503937,
		"duration": 0.28999999999999915
	},
	{
		"name": "G3",
		"midi": 55,
		"time": 22.225000000000033,
		"velocity": 0.6771653543307087,
		"duration": 0.30500000000000327
	},
	{
		"name": "C4",
		"midi": 60,
		"time": 22.505000000000035,
		"velocity": 0.5984251968503937,
		"duration": 0.28999999999999915
	},
	{
		"name": "G3",
		"midi": 55,
		"time": 22.515000000000036,
		"velocity": 0.5984251968503937,
		"duration": 0.2799999999999976
	},
	{
		"name": "F4",
		"midi": 65,
		"time": 22.810000000000034,
		"velocity": 0.5354330708661418,
		"duration": 0.5799999999999947
	},
	{
		"name": "C3",
		"midi": 48,
		"time": 22.810000000000034,
		"velocity": 0.6771653543307087,
		"duration": 0.5799999999999947
	},
	{
		"name": "G4",
		"midi": 67,
		"time": 22.810000000000034,
		"velocity": 0.6771653543307087,
		"duration": 0.5799999999999947
	},
	{
		"name": "F2",
		"midi": 41,
		"time": 22.815000000000033,
		"velocity": 0.6771653543307087,
		"duration": 0.5799999999999947
	},
	{
		"name": "G3",
		"midi": 55,
		"time": 22.820000000000032,
		"velocity": 0.5984251968503937,
		"duration": 0.2799999999999976
	},
	{
		"name": "F3",
		"midi": 53,
		"time": 22.820000000000032,
		"velocity": 0.6771653543307087,
		"duration": 0.5799999999999947
	},
	{
		"name": "C4",
		"midi": 60,
		"time": 22.82500000000003,
		"velocity": 0.6771653543307087,
		"duration": 0.2799999999999976
	},
	{
		"name": "C4",
		"midi": 60,
		"time": 23.10500000000003,
		"velocity": 0.6771653543307087,
		"duration": 0.28000000000000114
	},
	{
		"name": "G3",
		"midi": 55,
		"time": 23.11500000000003,
		"velocity": 0.5984251968503937,
		"duration": 0.2849999999999966
	},
	{
		"name": "F2",
		"midi": 41,
		"time": 23.400000000000027,
		"velocity": 0.5984251968503937,
		"duration": 0.5800000000000054
	},
	{
		"name": "F4",
		"midi": 65,
		"time": 23.41000000000003,
		"velocity": 0.5354330708661418,
		"duration": 0.5800000000000018
	},
	{
		"name": "G3",
		"midi": 55,
		"time": 23.41000000000003,
		"velocity": 0.5984251968503937,
		"duration": 0.28500000000000014
	},
	{
		"name": "C3",
		"midi": 48,
		"time": 23.41000000000003,
		"velocity": 0.5984251968503937,
		"duration": 0.5800000000000018
	},
	{
		"name": "G4",
		"midi": 67,
		"time": 23.41000000000003,
		"velocity": 0.6771653543307087,
		"duration": 0.5800000000000018
	},
	{
		"name": "F3",
		"midi": 53,
		"time": 23.415000000000028,
		"velocity": 0.6771653543307087,
		"duration": 0.5800000000000018
	},
	{
		"name": "C4",
		"midi": 60,
		"time": 23.42500000000003,
		"velocity": 0.5984251968503937,
		"duration": 0.28000000000000114
	},
	{
		"name": "C4",
		"midi": 60,
		"time": 23.70500000000003,
		"velocity": 0.5984251968503937,
		"duration": 0.28000000000000114
	},
	{
		"name": "G3",
		"midi": 55,
		"time": 23.715000000000032,
		"velocity": 0.5984251968503937,
		"duration": 0.2749999999999986
	},
	{
		"name": "D4",
		"midi": 62,
		"time": 23.99500000000003,
		"velocity": 0.6771653543307087,
		"duration": 0.5800000000000054
	},
	{
		"name": "A4",
		"midi": 69,
		"time": 24.00500000000003,
		"velocity": 0.6771653543307087,
		"duration": 0.5800000000000054
	},
	{
		"name": "A3",
		"midi": 57,
		"time": 24.00500000000003,
		"velocity": 0.6771653543307087,
		"duration": 0.2900000000000027
	},
	{
		"name": "D3",
		"midi": 50,
		"time": 24.015000000000033,
		"velocity": 0.6771653543307087,
		"duration": 0.5800000000000054
	},
	{
		"name": "C4",
		"midi": 60,
		"time": 24.015000000000033,
		"velocity": 0.6771653543307087,
		"duration": 0.5800000000000054
	},
	{
		"name": "A3",
		"midi": 57,
		"time": 24.315000000000033,
		"velocity": 0.5748031496062992,
		"duration": 0.29000000000000625
	},
	{
		"name": "A3",
		"midi": 57,
		"time": 24.595000000000038,
		"velocity": 0.5984251968503937,
		"duration": 0.28999999999999915
	},
	{
		"name": "D3",
		"midi": 50,
		"time": 24.595000000000038,
		"velocity": 0.5984251968503937,
		"duration": 0.5799999999999983
	},
	{
		"name": "A4",
		"midi": 69,
		"time": 24.60500000000004,
		"velocity": 0.6771653543307087,
		"duration": 0.5799999999999983
	},
	{
		"name": "C4",
		"midi": 60,
		"time": 24.60500000000004,
		"velocity": 0.5984251968503937,
		"duration": 0.5799999999999983
	},
	{
		"name": "D4",
		"midi": 62,
		"time": 24.61000000000004,
		"velocity": 0.5984251968503937,
		"duration": 0.5799999999999983
	},
	{
		"name": "A3",
		"midi": 57,
		"time": 24.905000000000037,
		"velocity": 0.6299212598425197,
		"duration": 0.28999999999999915
	},
	{
		"name": "A4",
		"midi": 69,
		"time": 25.205000000000037,
		"velocity": 0.6771653543307087,
		"duration": 0.5799999999999983
	},
	{
		"name": "A3",
		"midi": 57,
		"time": 25.210000000000036,
		"velocity": 0.6771653543307087,
		"duration": 0.28999999999999915
	},
	{
		"name": "D3",
		"midi": 50,
		"time": 25.210000000000036,
		"velocity": 0.6771653543307087,
		"duration": 0.5799999999999983
	},
	{
		"name": "D4",
		"midi": 62,
		"time": 25.215000000000035,
		"velocity": 0.6771653543307087,
		"duration": 0.5799999999999983
	},
	{
		"name": "C4",
		"midi": 60,
		"time": 25.215000000000035,
		"velocity": 0.6771653543307087,
		"duration": 0.5799999999999983
	},
	{
		"name": "A3",
		"midi": 57,
		"time": 25.500000000000036,
		"velocity": 0.5748031496062992,
		"duration": 0.28999999999999915
	},
	{
		"name": "D3",
		"midi": 50,
		"time": 25.795000000000034,
		"velocity": 0.5984251968503937,
		"duration": 0.5799999999999983
	},
	{
		"name": "A4",
		"midi": 69,
		"time": 25.805000000000035,
		"velocity": 0.6771653543307087,
		"duration": 0.5799999999999983
	},
	{
		"name": "A3",
		"midi": 57,
		"time": 25.810000000000034,
		"velocity": 0.5984251968503937,
		"duration": 0.28999999999999915
	},
	{
		"name": "D4",
		"midi": 62,
		"time": 25.815000000000033,
		"velocity": 0.5984251968503937,
		"duration": 0.5800000000000018
	},
	{
		"name": "C4",
		"midi": 60,
		"time": 25.815000000000033,
		"velocity": 0.5984251968503937,
		"duration": 0.5800000000000018
	},
	{
		"name": "A3",
		"midi": 57,
		"time": 26.105000000000032,
		"velocity": 0.6299212598425197,
		"duration": 0.2900000000000027
	},
	{
		"name": "D4",
		"midi": 62,
		"time": 26.400000000000034,
		"velocity": 0.6771653543307087,
		"duration": 0.5800000000000018
	},
	{
		"name": "A#4",
		"midi": 70,
		"time": 26.410000000000036,
		"velocity": 0.6771653543307087,
		"duration": 0.5799999999999983
	},
	{
		"name": "A#2",
		"midi": 46,
		"time": 26.410000000000036,
		"velocity": 0.6771653543307087,
		"duration": 0.5799999999999983
	},
	{
		"name": "A#3",
		"midi": 58,
		"time": 26.410000000000036,
		"velocity": 0.6771653543307087,
		"duration": 0.28999999999999915
	},
	{
		"name": "F3",
		"midi": 53,
		"time": 26.415000000000035,
		"velocity": 0.6771653543307087,
		"duration": 0.28000000000000114
	},
	{
		"name": "F3",
		"midi": 53,
		"time": 26.705000000000034,
		"velocity": 0.5196850393700787,
		"duration": 0.28000000000000114
	},
	{
		"name": "A#3",
		"midi": 58,
		"time": 26.720000000000034,
		"velocity": 0.5748031496062992,
		"duration": 0.28999999999999915
	},
	{
		"name": "A#2",
		"midi": 46,
		"time": 26.990000000000034,
		"velocity": 0.5984251968503937,
		"duration": 0.5799999999999983
	},
	{
		"name": "A#3",
		"midi": 58,
		"time": 27.000000000000036,
		"velocity": 0.5984251968503937,
		"duration": 0.2899999999999956
	},
	{
		"name": "F3",
		"midi": 53,
		"time": 27.005000000000035,
		"velocity": 0.5984251968503937,
		"duration": 0.5799999999999983
	},
	{
		"name": "A#4",
		"midi": 70,
		"time": 27.010000000000034,
		"velocity": 0.6771653543307087,
		"duration": 0.5799999999999983
	},
	{
		"name": "D4",
		"midi": 62,
		"time": 27.015000000000033,
		"velocity": 0.5984251968503937,
		"duration": 0.5799999999999983
	},
	{
		"name": "A#3",
		"midi": 58,
		"time": 27.31000000000003,
		"velocity": 0.6299212598425197,
		"duration": 0.28999999999999915
	},
	{
		"name": "A#2",
		"midi": 46,
		"time": 27.60500000000003,
		"velocity": 0.6771653543307087,
		"duration": 0.5799999999999947
	},
	{
		"name": "A#4",
		"midi": 70,
		"time": 27.610000000000028,
		"velocity": 0.6771653543307087,
		"duration": 0.5799999999999947
	},
	{
		"name": "A#3",
		"midi": 58,
		"time": 27.615000000000027,
		"velocity": 0.6771653543307087,
		"duration": 0.28999999999999915
	},
	{
		"name": "F3",
		"midi": 53,
		"time": 27.615000000000027,
		"velocity": 0.6771653543307087,
		"duration": 0.2749999999999986
	},
	{
		"name": "D4",
		"midi": 62,
		"time": 27.620000000000026,
		"velocity": 0.6771653543307087,
		"duration": 0.5799999999999947
	},
	{
		"name": "A#3",
		"midi": 58,
		"time": 27.905000000000026,
		"velocity": 0.5748031496062992,
		"duration": 0.2899999999999956
	},
	{
		"name": "F3",
		"midi": 53,
		"time": 27.905000000000026,
		"velocity": 0.5196850393700787,
		"duration": 0.2749999999999986
	},
	{
		"name": "A#2",
		"midi": 46,
		"time": 28.190000000000023,
		"velocity": 0.5984251968503937,
		"duration": 0.5799999999999983
	},
	{
		"name": "A#4",
		"midi": 70,
		"time": 28.210000000000022,
		"velocity": 0.6771653543307087,
		"duration": 0.5799999999999983
	},
	{
		"name": "F3",
		"midi": 53,
		"time": 28.21500000000002,
		"velocity": 0.5984251968503937,
		"duration": 0.5799999999999983
	},
	{
		"name": "A#3",
		"midi": 58,
		"time": 28.21500000000002,
		"velocity": 0.5984251968503937,
		"duration": 0.28999999999999915
	},
	{
		"name": "D4",
		"midi": 62,
		"time": 28.22000000000002,
		"velocity": 0.5984251968503937,
		"duration": 0.5799999999999983
	},
	{
		"name": "C4",
		"midi": 60,
		"time": 28.51000000000002,
		"velocity": 0.8267716535433071,
		"duration": 0.28999999999999915
	},
	{
		"name": "A4",
		"midi": 69,
		"time": 28.805000000000017,
		"velocity": 0.6771653543307087,
		"duration": 0.5800000000000018
	},
	{
		"name": "A3",
		"midi": 57,
		"time": 28.805000000000017,
		"velocity": 0.6771653543307087,
		"duration": 0.28999999999999915
	},
	{
		"name": "F3",
		"midi": 53,
		"time": 28.810000000000016,
		"velocity": 0.6771653543307087,
		"duration": 0.30500000000000327
	},
	{
		"name": "F2",
		"midi": 41,
		"time": 28.810000000000016,
		"velocity": 0.6771653543307087,
		"duration": 0.5800000000000018
	},
	{
		"name": "F4",
		"midi": 65,
		"time": 28.810000000000016,
		"velocity": 0.48031496062992124,
		"duration": 0.5800000000000018
	},
	{
		"name": "C4",
		"midi": 60,
		"time": 28.815000000000015,
		"velocity": 0.6771653543307087,
		"duration": 0.5800000000000018
	},
	{
		"name": "F3",
		"midi": 53,
		"time": 29.105000000000018,
		"velocity": 0.6771653543307087,
		"duration": 0.30499999999999616
	},
	{
		"name": "A3",
		"midi": 57,
		"time": 29.11500000000002,
		"velocity": 0.5748031496062992,
		"duration": 0.2899999999999956
	},
	{
		"name": "F2",
		"midi": 41,
		"time": 29.39000000000002,
		"velocity": 0.5984251968503937,
		"duration": 0.5799999999999947
	},
	{
		"name": "A3",
		"midi": 57,
		"time": 29.395000000000017,
		"velocity": 0.5984251968503937,
		"duration": 0.2899999999999956
	},
	{
		"name": "F4",
		"midi": 65,
		"time": 29.400000000000016,
		"velocity": 0.4251968503937008,
		"duration": 0.5799999999999983
	},
	{
		"name": "C4",
		"midi": 60,
		"time": 29.405000000000015,
		"velocity": 0.5984251968503937,
		"duration": 0.5799999999999983
	},
	{
		"name": "A4",
		"midi": 69,
		"time": 29.405000000000015,
		"velocity": 0.6771653543307087,
		"duration": 0.5799999999999983
	},
	{
		"name": "F3",
		"midi": 53,
		"time": 29.405000000000015,
		"velocity": 0.5984251968503937,
		"duration": 0.29999999999999716
	},
	{
		"name": "F3",
		"midi": 53,
		"time": 29.705000000000013,
		"velocity": 0.5984251968503937,
		"duration": 0.30000000000000426
	},
	{
		"name": "A3",
		"midi": 57,
		"time": 29.705000000000013,
		"velocity": 0.6299212598425197,
		"duration": 0.2900000000000027
	},
	{
		"name": "F2",
		"midi": 41,
		"time": 30.005000000000017,
		"velocity": 0.6771653543307087,
		"duration": 0.5799999999999983
	},
	{
		"name": "A4",
		"midi": 69,
		"time": 30.005000000000017,
		"velocity": 0.6771653543307087,
		"duration": 0.5799999999999983
	},
	{
		"name": "F3",
		"midi": 53,
		"time": 30.005000000000017,
		"velocity": 0.6771653543307087,
		"duration": 0.29999999999999716
	},
	{
		"name": "F4",
		"midi": 65,
		"time": 30.010000000000016,
		"velocity": 0.48031496062992124,
		"duration": 0.5799999999999983
	},
	{
		"name": "A3",
		"midi": 57,
		"time": 30.010000000000016,
		"velocity": 0.6771653543307087,
		"duration": 0.28999999999999915
	},
	{
		"name": "C4",
		"midi": 60,
		"time": 30.015000000000015,
		"velocity": 0.6771653543307087,
		"duration": 0.5799999999999983
	},
	{
		"name": "A3",
		"midi": 57,
		"time": 30.300000000000015,
		"velocity": 0.5748031496062992,
		"duration": 0.28999999999999915
	},
	{
		"name": "F3",
		"midi": 53,
		"time": 30.305000000000014,
		"velocity": 0.5984251968503937,
		"duration": 0.3000000000000007
	},
	{
		"name": "F2",
		"midi": 41,
		"time": 30.590000000000014,
		"velocity": 0.5984251968503937,
		"duration": 0.5799999999999983
	},
	{
		"name": "A4",
		"midi": 69,
		"time": 30.605000000000015,
		"velocity": 0.6771653543307087,
		"duration": 0.5799999999999983
	},
	{
		"name": "F3",
		"midi": 53,
		"time": 30.605000000000015,
		"velocity": 0.5984251968503937,
		"duration": 0.29999999999999716
	},
	{
		"name": "A3",
		"midi": 57,
		"time": 30.610000000000014,
		"velocity": 0.5984251968503937,
		"duration": 0.28999999999999915
	},
	{
		"name": "F4",
		"midi": 65,
		"time": 30.610000000000014,
		"velocity": 0.4251968503937008,
		"duration": 0.5799999999999983
	},
	{
		"name": "C4",
		"midi": 60,
		"time": 30.615000000000013,
		"velocity": 0.5984251968503937,
		"duration": 0.5799999999999983
	},
	{
		"name": "F3",
		"midi": 53,
		"time": 30.905000000000012,
		"velocity": 0.5984251968503937,
		"duration": 0.29999999999999716
	},
	{
		"name": "A3",
		"midi": 57,
		"time": 30.905000000000012,
		"velocity": 0.6299212598425197,
		"duration": 0.28999999999999915
	},
	{
		"name": "F4",
		"midi": 65,
		"time": 31.20000000000001,
		"velocity": 0.5354330708661418,
		"duration": 0.5799999999999947
	},
	{
		"name": "G3",
		"midi": 55,
		"time": 31.20500000000001,
		"velocity": 0.6771653543307087,
		"duration": 0.30499999999999616
	},
	{
		"name": "G4",
		"midi": 67,
		"time": 31.210000000000008,
		"velocity": 0.6771653543307087,
		"duration": 0.5799999999999983
	},
	{
		"name": "C3",
		"midi": 48,
		"time": 31.210000000000008,
		"velocity": 0.6771653543307087,
		"duration": 0.5799999999999983
	},
	{
		"name": "F3",
		"midi": 53,
		"time": 31.215000000000007,
		"velocity": 0.6771653543307087,
		"duration": 0.5799999999999983
	},
	{
		"name": "F2",
		"midi": 41,
		"time": 31.220000000000006,
		"velocity": 0.6771653543307087,
		"duration": 0.5799999999999983
	},
	{
		"name": "C4",
		"midi": 60,
		"time": 31.225000000000005,
		"velocity": 0.6771653543307087,
		"duration": 0.28000000000000114
	},
	{
		"name": "G3",
		"midi": 55,
		"time": 31.515000000000004,
		"velocity": 0.6771653543307087,
		"duration": 0.30499999999999616
	},
	{
		"name": "C4",
		"midi": 60,
		"time": 31.515000000000004,
		"velocity": 0.6771653543307087,
		"duration": 0.28000000000000114
	},
	{
		"name": "F2",
		"midi": 41,
		"time": 31.800000000000004,
		"velocity": 0.5984251968503937,
		"duration": 0.5799999999999912
	},
	{
		"name": "C3",
		"midi": 48,
		"time": 31.800000000000004,
		"velocity": 0.5984251968503937,
		"duration": 0.5799999999999912
	},
	{
		"name": "F4",
		"midi": 65,
		"time": 31.805000000000003,
		"velocity": 0.5354330708661418,
		"duration": 0.5799999999999947
	},
	{
		"name": "G4",
		"midi": 67,
		"time": 31.810000000000002,
		"velocity": 0.6771653543307087,
		"duration": 0.5799999999999983
	},
	{
		"name": "F3",
		"midi": 53,
		"time": 31.815,
		"velocity": 0.6771653543307087,
		"duration": 0.5800000000000018
	},
	{
		"name": "C4",
		"midi": 60,
		"time": 31.815,
		"velocity": 0.5984251968503937,
		"duration": 0.2899999999999956
	},
	{
		"name": "G3",
		"midi": 55,
		"time": 31.825,
		"velocity": 0.6771653543307087,
		"duration": 0.30499999999999616
	},
	{
		"name": "C4",
		"midi": 60,
		"time": 32.105,
		"velocity": 0.5984251968503937,
		"duration": 0.29000000000000625
	},
	{
		"name": "G3",
		"midi": 55,
		"time": 32.114999999999995,
		"velocity": 0.5984251968503937,
		"duration": 0.28000000000000824
	},
	{
		"name": "F4",
		"midi": 65,
		"time": 32.410000000000004,
		"velocity": 0.5354330708661418,
		"duration": 0.5800000000000125
	},
	{
		"name": "C3",
		"midi": 48,
		"time": 32.410000000000004,
		"velocity": 0.6771653543307087,
		"duration": 0.5800000000000125
	},
	{
		"name": "G4",
		"midi": 67,
		"time": 32.410000000000004,
		"velocity": 0.6771653543307087,
		"duration": 0.5800000000000125
	},
	{
		"name": "F2",
		"midi": 41,
		"time": 32.415000000000006,
		"velocity": 0.6771653543307087,
		"duration": 0.5800000000000125
	},
	{
		"name": "G3",
		"midi": 55,
		"time": 32.42000000000001,
		"velocity": 0.5984251968503937,
		"duration": 0.28000000000000114
	},
	{
		"name": "F3",
		"midi": 53,
		"time": 32.42000000000001,
		"velocity": 0.6771653543307087,
		"duration": 0.5800000000000125
	},
	{
		"name": "C4",
		"midi": 60,
		"time": 32.42500000000001,
		"velocity": 0.6771653543307087,
		"duration": 0.28000000000000114
	},
	{
		"name": "C4",
		"midi": 60,
		"time": 32.70500000000001,
		"velocity": 0.6771653543307087,
		"duration": 0.28000000000000114
	},
	{
		"name": "G3",
		"midi": 55,
		"time": 32.71500000000001,
		"velocity": 0.5984251968503937,
		"duration": 0.2850000000000108
	},
	{
		"name": "F2",
		"midi": 41,
		"time": 33.00000000000002,
		"velocity": 0.5984251968503937,
		"duration": 0.5799999999999983
	},
	{
		"name": "F4",
		"midi": 65,
		"time": 33.01000000000002,
		"velocity": 0.5354330708661418,
		"duration": 0.5800000000000054
	},
	{
		"name": "G3",
		"midi": 55,
		"time": 33.01000000000002,
		"velocity": 0.5984251968503937,
		"duration": 0.2850000000000037
	},
	{
		"name": "C3",
		"midi": 48,
		"time": 33.01000000000002,
		"velocity": 0.5984251968503937,
		"duration": 0.5800000000000054
	},
	{
		"name": "G4",
		"midi": 67,
		"time": 33.01000000000002,
		"velocity": 0.6771653543307087,
		"duration": 0.5800000000000054
	},
	{
		"name": "F3",
		"midi": 53,
		"time": 33.01500000000002,
		"velocity": 0.6771653543307087,
		"duration": 0.5800000000000054
	},
	{
		"name": "C4",
		"midi": 60,
		"time": 33.02500000000002,
		"velocity": 0.5984251968503937,
		"duration": 0.28000000000000114
	},
	{
		"name": "C4",
		"midi": 60,
		"time": 33.30500000000002,
		"velocity": 0.5984251968503937,
		"duration": 0.28000000000000114
	},
	{
		"name": "G3",
		"midi": 55,
		"time": 33.31500000000002,
		"velocity": 0.5984251968503937,
		"duration": 0.30000000000000426
	},
	{
		"name": "D4",
		"midi": 62,
		"time": 33.59500000000003,
		"velocity": 0.6771653543307087,
		"duration": 0.5799999999999983
	},
	{
		"name": "A4",
		"midi": 69,
		"time": 33.605000000000025,
		"velocity": 0.6771653543307087,
		"duration": 0.5799999999999983
	},
	{
		"name": "A3",
		"midi": 57,
		"time": 33.605000000000025,
		"velocity": 0.6771653543307087,
		"duration": 0.28999999999999915
	},
	{
		"name": "D3",
		"midi": 50,
		"time": 33.61500000000002,
		"velocity": 0.6771653543307087,
		"duration": 0.5799999999999983
	},
	{
		"name": "C4",
		"midi": 60,
		"time": 33.61500000000002,
		"velocity": 0.6771653543307087,
		"duration": 0.5799999999999983
	},
	{
		"name": "A3",
		"midi": 57,
		"time": 33.91500000000003,
		"velocity": 0.5748031496062992,
		"duration": 0.28999999999999204
	},
	{
		"name": "A3",
		"midi": 57,
		"time": 34.19500000000002,
		"velocity": 0.5984251968503937,
		"duration": 0.28999999999999915
	},
	{
		"name": "D3",
		"midi": 50,
		"time": 34.19500000000002,
		"velocity": 0.5984251968503937,
		"duration": 0.5800000000000054
	},
	{
		"name": "A4",
		"midi": 69,
		"time": 34.20500000000002,
		"velocity": 0.6771653543307087,
		"duration": 0.5800000000000054
	},
	{
		"name": "C4",
		"midi": 60,
		"time": 34.20500000000002,
		"velocity": 0.5984251968503937,
		"duration": 0.5800000000000054
	},
	{
		"name": "D4",
		"midi": 62,
		"time": 34.21000000000002,
		"velocity": 0.5984251968503937,
		"duration": 0.5800000000000054
	},
	{
		"name": "A3",
		"midi": 57,
		"time": 34.505000000000024,
		"velocity": 0.6299212598425197,
		"duration": 0.29000000000000625
	},
	{
		"name": "A4",
		"midi": 69,
		"time": 34.80500000000003,
		"velocity": 0.6771653543307087,
		"duration": 0.5799999999999983
	},
	{
		"name": "A3",
		"midi": 57,
		"time": 34.81000000000003,
		"velocity": 0.6771653543307087,
		"duration": 0.28999999999999915
	},
	{
		"name": "D3",
		"midi": 50,
		"time": 34.81000000000003,
		"velocity": 0.6771653543307087,
		"duration": 0.5799999999999983
	},
	{
		"name": "D4",
		"midi": 62,
		"time": 34.81500000000003,
		"velocity": 0.6771653543307087,
		"duration": 0.5799999999999983
	},
	{
		"name": "C4",
		"midi": 60,
		"time": 34.81500000000003,
		"velocity": 0.6771653543307087,
		"duration": 0.5799999999999983
	},
	{
		"name": "A3",
		"midi": 57,
		"time": 35.10000000000003,
		"velocity": 0.5748031496062992,
		"duration": 0.28999999999999915
	},
	{
		"name": "D3",
		"midi": 50,
		"time": 35.39500000000003,
		"velocity": 0.5984251968503937,
		"duration": 0.5800000000000054
	},
	{
		"name": "A4",
		"midi": 69,
		"time": 35.40500000000003,
		"velocity": 0.6771653543307087,
		"duration": 0.5800000000000054
	},
	{
		"name": "A3",
		"midi": 57,
		"time": 35.41000000000003,
		"velocity": 0.5984251968503937,
		"duration": 0.28999999999999915
	},
	{
		"name": "D4",
		"midi": 62,
		"time": 35.415000000000035,
		"velocity": 0.5984251968503937,
		"duration": 0.5799999999999983
	},
	{
		"name": "C4",
		"midi": 60,
		"time": 35.415000000000035,
		"velocity": 0.5984251968503937,
		"duration": 0.5799999999999983
	},
	{
		"name": "A3",
		"midi": 57,
		"time": 35.705000000000034,
		"velocity": 0.6299212598425197,
		"duration": 0.28999999999999915
	},
	{
		"name": "D4",
		"midi": 62,
		"time": 36.000000000000036,
		"velocity": 0.6771653543307087,
		"duration": 0.5800000000000054
	},
	{
		"name": "A#4",
		"midi": 70,
		"time": 36.01000000000003,
		"velocity": 0.6771653543307087,
		"duration": 0.5800000000000125
	},
	{
		"name": "A#2",
		"midi": 46,
		"time": 36.01000000000003,
		"velocity": 0.6771653543307087,
		"duration": 0.5800000000000125
	},
	{
		"name": "A#3",
		"midi": 58,
		"time": 36.01000000000003,
		"velocity": 0.6771653543307087,
		"duration": 0.29000000000000625
	},
	{
		"name": "F3",
		"midi": 53,
		"time": 36.015000000000036,
		"velocity": 0.6771653543307087,
		"duration": 0.28000000000000114
	},
	{
		"name": "F3",
		"midi": 53,
		"time": 36.30500000000004,
		"velocity": 0.5196850393700787,
		"duration": 0.28000000000000114
	},
	{
		"name": "A#3",
		"midi": 58,
		"time": 36.32000000000004,
		"velocity": 0.5748031496062992,
		"duration": 0.29000000000000625
	},
	{
		"name": "A#2",
		"midi": 46,
		"time": 36.590000000000046,
		"velocity": 0.5984251968503937,
		"duration": 0.5800000000000054
	},
	{
		"name": "A#3",
		"midi": 58,
		"time": 36.600000000000044,
		"velocity": 0.5984251968503937,
		"duration": 0.29000000000000625
	},
	{
		"name": "F3",
		"midi": 53,
		"time": 36.60500000000005,
		"velocity": 0.5984251968503937,
		"duration": 0.5800000000000054
	},
	{
		"name": "A#4",
		"midi": 70,
		"time": 36.61000000000005,
		"velocity": 0.6771653543307087,
		"duration": 0.5800000000000054
	},
	{
		"name": "D4",
		"midi": 62,
		"time": 36.61500000000005,
		"velocity": 0.5984251968503937,
		"duration": 0.5800000000000054
	},
	{
		"name": "A#3",
		"midi": 58,
		"time": 36.91000000000005,
		"velocity": 0.6299212598425197,
		"duration": 0.29000000000000625
	},
	{
		"name": "A#2",
		"midi": 46,
		"time": 37.20500000000006,
		"velocity": 0.6771653543307087,
		"duration": 0.5800000000000125
	},
	{
		"name": "A#4",
		"midi": 70,
		"time": 37.210000000000065,
		"velocity": 0.6771653543307087,
		"duration": 0.5800000000000125
	},
	{
		"name": "A#3",
		"midi": 58,
		"time": 37.21500000000007,
		"velocity": 0.6771653543307087,
		"duration": 0.29000000000000625
	},
	{
		"name": "F3",
		"midi": 53,
		"time": 37.21500000000007,
		"velocity": 0.6771653543307087,
		"duration": 0.2750000000000057
	},
	{
		"name": "D4",
		"midi": 62,
		"time": 37.22000000000007,
		"velocity": 0.6771653543307087,
		"duration": 0.5800000000000125
	},
	{
		"name": "A#3",
		"midi": 58,
		"time": 37.505000000000074,
		"velocity": 0.5748031496062992,
		"duration": 0.29000000000000625
	},
	{
		"name": "F3",
		"midi": 53,
		"time": 37.505000000000074,
		"velocity": 0.5196850393700787,
		"duration": 0.2749999999999986
	},
	{
		"name": "A#2",
		"midi": 46,
		"time": 37.79000000000008,
		"velocity": 0.5984251968503937,
		"duration": 0.5800000000000054
	},
	{
		"name": "A#4",
		"midi": 70,
		"time": 37.81000000000008,
		"velocity": 0.6771653543307087,
		"duration": 0.5800000000000054
	},
	{
		"name": "F3",
		"midi": 53,
		"time": 37.81500000000008,
		"velocity": 0.5984251968503937,
		"duration": 0.5800000000000054
	},
	{
		"name": "A#3",
		"midi": 58,
		"time": 37.81500000000008,
		"velocity": 0.5984251968503937,
		"duration": 0.28999999999999915
	},
	{
		"name": "D4",
		"midi": 62,
		"time": 37.820000000000086,
		"velocity": 0.5984251968503937,
		"duration": 0.5800000000000054
	},
	{
		"name": "C4",
		"midi": 60,
		"time": 38.110000000000085,
		"velocity": 0.8267716535433071,
		"duration": 0.29000000000000625
	},
	{
		"name": "A4",
		"midi": 69,
		"time": 38.40500000000009,
		"velocity": 0.6771653543307087,
		"duration": 0.5800000000000054
	},
	{
		"name": "A3",
		"midi": 57,
		"time": 38.40500000000009,
		"velocity": 0.6771653543307087,
		"duration": 0.29000000000000625
	},
	{
		"name": "F3",
		"midi": 53,
		"time": 38.410000000000096,
		"velocity": 0.6771653543307087,
		"duration": 0.3049999999999997
	},
	{
		"name": "F2",
		"midi": 41,
		"time": 38.410000000000096,
		"velocity": 0.6771653543307087,
		"duration": 0.5800000000000054
	},
	{
		"name": "F4",
		"midi": 65,
		"time": 38.410000000000096,
		"velocity": 0.48031496062992124,
		"duration": 0.5800000000000054
	},
	{
		"name": "C4",
		"midi": 60,
		"time": 38.4150000000001,
		"velocity": 0.6771653543307087,
		"duration": 0.5800000000000054
	},
	{
		"name": "F3",
		"midi": 53,
		"time": 38.7050000000001,
		"velocity": 0.6771653543307087,
		"duration": 0.3050000000000139
	},
	{
		"name": "A3",
		"midi": 57,
		"time": 38.715000000000096,
		"velocity": 0.5748031496062992,
		"duration": 0.29000000000001336
	},
	{
		"name": "F2",
		"midi": 41,
		"time": 38.9900000000001,
		"velocity": 0.5984251968503937,
		"duration": 0.5800000000000125
	},
	{
		"name": "A3",
		"midi": 57,
		"time": 38.995000000000104,
		"velocity": 0.5984251968503937,
		"duration": 0.29000000000000625
	},
	{
		"name": "F4",
		"midi": 65,
		"time": 39.00000000000011,
		"velocity": 0.4251968503937008,
		"duration": 0.5800000000000054
	},
	{
		"name": "C4",
		"midi": 60,
		"time": 39.00500000000011,
		"velocity": 0.5984251968503937,
		"duration": 0.5800000000000054
	},
	{
		"name": "A4",
		"midi": 69,
		"time": 39.00500000000011,
		"velocity": 0.6771653543307087,
		"duration": 0.5800000000000054
	},
	{
		"name": "F3",
		"midi": 53,
		"time": 39.00500000000011,
		"velocity": 0.5984251968503937,
		"duration": 0.30000000000000426
	},
	{
		"name": "F3",
		"midi": 53,
		"time": 39.30500000000011,
		"velocity": 0.5984251968503937,
		"duration": 0.29999999999999716
	},
	{
		"name": "A3",
		"midi": 57,
		"time": 39.30500000000011,
		"velocity": 0.6299212598425197,
		"duration": 0.28999999999999915
	},
	{
		"name": "F2",
		"midi": 41,
		"time": 39.60500000000011,
		"velocity": 0.6771653543307087,
		"duration": 0.5800000000000054
	},
	{
		"name": "A4",
		"midi": 69,
		"time": 39.60500000000011,
		"velocity": 0.6771653543307087,
		"duration": 0.5800000000000054
	},
	{
		"name": "F3",
		"midi": 53,
		"time": 39.60500000000011,
		"velocity": 0.6771653543307087,
		"duration": 0.30000000000000426
	},
	{
		"name": "F4",
		"midi": 65,
		"time": 39.61000000000011,
		"velocity": 0.48031496062992124,
		"duration": 0.5800000000000054
	},
	{
		"name": "A3",
		"midi": 57,
		"time": 39.61000000000011,
		"velocity": 0.6771653543307087,
		"duration": 0.28999999999999915
	},
	{
		"name": "C4",
		"midi": 60,
		"time": 39.615000000000116,
		"velocity": 0.6771653543307087,
		"duration": 0.5800000000000054
	},
	{
		"name": "A3",
		"midi": 57,
		"time": 39.90000000000011,
		"velocity": 0.5748031496062992,
		"duration": 0.29000000000000625
	},
	{
		"name": "F3",
		"midi": 53,
		"time": 39.905000000000115,
		"velocity": 0.5984251968503937,
		"duration": 0.30000000000000426
	},
	{
		"name": "F2",
		"midi": 41,
		"time": 40.19000000000012,
		"velocity": 0.5984251968503937,
		"duration": 0.5800000000000054
	},
	{
		"name": "A4",
		"midi": 69,
		"time": 40.20500000000012,
		"velocity": 0.6771653543307087,
		"duration": 0.5800000000000054
	},
	{
		"name": "F3",
		"midi": 53,
		"time": 40.20500000000012,
		"velocity": 0.5984251968503937,
		"duration": 0.30000000000000426
	},
	{
		"name": "A3",
		"midi": 57,
		"time": 40.21000000000012,
		"velocity": 0.5984251968503937,
		"duration": 0.28999999999999915
	},
	{
		"name": "F4",
		"midi": 65,
		"time": 40.21000000000012,
		"velocity": 0.4251968503937008,
		"duration": 0.5800000000000054
	},
	{
		"name": "C4",
		"midi": 60,
		"time": 40.215000000000124,
		"velocity": 0.5984251968503937,
		"duration": 0.5800000000000054
	},
	{
		"name": "F3",
		"midi": 53,
		"time": 40.50500000000012,
		"velocity": 0.5984251968503937,
		"duration": 0.30000000000001137
	},
	{
		"name": "A3",
		"midi": 57,
		"time": 40.50500000000012,
		"velocity": 0.6299212598425197,
		"duration": 0.29000000000000625
	},
	{
		"name": "F4",
		"midi": 65,
		"time": 40.80000000000013,
		"velocity": 0.5354330708661418,
		"duration": 0.5800000000000196
	},
	{
		"name": "G3",
		"midi": 55,
		"time": 40.805000000000135,
		"velocity": 0.6771653543307087,
		"duration": 0.3050000000000139
	},
	{
		"name": "G4",
		"midi": 67,
		"time": 40.81000000000014,
		"velocity": 0.6771653543307087,
		"duration": 0.5800000000000125
	},
	{
		"name": "C3",
		"midi": 48,
		"time": 40.81000000000014,
		"velocity": 0.6771653543307087,
		"duration": 0.5800000000000125
	},
	{
		"name": "F3",
		"midi": 53,
		"time": 40.81500000000014,
		"velocity": 0.6771653543307087,
		"duration": 0.5800000000000125
	},
	{
		"name": "F2",
		"midi": 41,
		"time": 40.82000000000014,
		"velocity": 0.6771653543307087,
		"duration": 0.5800000000000125
	},
	{
		"name": "C4",
		"midi": 60,
		"time": 40.825000000000145,
		"velocity": 0.6771653543307087,
		"duration": 0.28000000000000114
	},
	{
		"name": "G3",
		"midi": 55,
		"time": 41.11500000000015,
		"velocity": 0.6771653543307087,
		"duration": 0.3050000000000139
	},
	{
		"name": "C4",
		"midi": 60,
		"time": 41.11500000000015,
		"velocity": 0.6771653543307087,
		"duration": 0.28000000000000114
	},
	{
		"name": "F2",
		"midi": 41,
		"time": 41.400000000000155,
		"velocity": 0.5984251968503937,
		"duration": 0.5800000000000125
	},
	{
		"name": "C3",
		"midi": 48,
		"time": 41.400000000000155,
		"velocity": 0.5984251968503937,
		"duration": 0.5800000000000125
	},
	{
		"name": "F4",
		"midi": 65,
		"time": 41.40500000000016,
		"velocity": 0.5354330708661418,
		"duration": 0.5800000000000125
	},
	{
		"name": "G4",
		"midi": 67,
		"time": 41.41000000000016,
		"velocity": 0.6771653543307087,
		"duration": 0.5800000000000125
	},
	{
		"name": "F3",
		"midi": 53,
		"time": 41.41500000000016,
		"velocity": 0.6771653543307087,
		"duration": 0.5800000000000125
	},
	{
		"name": "C4",
		"midi": 60,
		"time": 41.41500000000016,
		"velocity": 0.5984251968503937,
		"duration": 0.29000000000000625
	},
	{
		"name": "G3",
		"midi": 55,
		"time": 41.42500000000017,
		"velocity": 0.6771653543307087,
		"duration": 0.3049999999999997
	},
	{
		"name": "C4",
		"midi": 60,
		"time": 41.70500000000017,
		"velocity": 0.5984251968503937,
		"duration": 0.29000000000000625
	},
	{
		"name": "G3",
		"midi": 55,
		"time": 41.71500000000017,
		"velocity": 0.5984251968503937,
		"duration": 0.28000000000000824
	},
	{
		"name": "F4",
		"midi": 65,
		"time": 42.010000000000176,
		"velocity": 0.5354330708661418,
		"duration": 0.5800000000000125
	},
	{
		"name": "C3",
		"midi": 48,
		"time": 42.010000000000176,
		"velocity": 0.6771653543307087,
		"duration": 0.5800000000000125
	},
	{
		"name": "G4",
		"midi": 67,
		"time": 42.010000000000176,
		"velocity": 0.6771653543307087,
		"duration": 0.5800000000000125
	},
	{
		"name": "F2",
		"midi": 41,
		"time": 42.01500000000018,
		"velocity": 0.6771653543307087,
		"duration": 0.5800000000000125
	},
	{
		"name": "G3",
		"midi": 55,
		"time": 42.02000000000018,
		"velocity": 0.5984251968503937,
		"duration": 0.28000000000000114
	},
	{
		"name": "F3",
		"midi": 53,
		"time": 42.02000000000018,
		"velocity": 0.6771653543307087,
		"duration": 0.5800000000000125
	},
	{
		"name": "C4",
		"midi": 60,
		"time": 42.02500000000018,
		"velocity": 0.6771653543307087,
		"duration": 0.28000000000000114
	},
	{
		"name": "C4",
		"midi": 60,
		"time": 42.305000000000184,
		"velocity": 0.6771653543307087,
		"duration": 0.28000000000000114
	},
	{
		"name": "G3",
		"midi": 55,
		"time": 42.31500000000018,
		"velocity": 0.5984251968503937,
		"duration": 0.2850000000000108
	},
	{
		"name": "F2",
		"midi": 41,
		"time": 42.60000000000019,
		"velocity": 0.5984251968503937,
		"duration": 0.5799999999999983
	},
	{
		"name": "F4",
		"midi": 65,
		"time": 42.61000000000019,
		"velocity": 0.5354330708661418,
		"duration": 0.5800000000000054
	},
	{
		"name": "G3",
		"midi": 55,
		"time": 42.61000000000019,
		"velocity": 0.5984251968503937,
		"duration": 0.2850000000000037
	},
	{
		"name": "C3",
		"midi": 48,
		"time": 42.61000000000019,
		"velocity": 0.5984251968503937,
		"duration": 0.5800000000000054
	},
	{
		"name": "G4",
		"midi": 67,
		"time": 42.61000000000019,
		"velocity": 0.6771653543307087,
		"duration": 0.5800000000000054
	},
	{
		"name": "F3",
		"midi": 53,
		"time": 42.615000000000194,
		"velocity": 0.6771653543307087,
		"duration": 0.5800000000000054
	},
	{
		"name": "C4",
		"midi": 60,
		"time": 42.62500000000019,
		"velocity": 0.5984251968503937,
		"duration": 0.28000000000000114
	},
	{
		"name": "C4",
		"midi": 60,
		"time": 42.90500000000019,
		"velocity": 0.5984251968503937,
		"duration": 0.28000000000000114
	},
	{
		"name": "G3",
		"midi": 55,
		"time": 42.91500000000019,
		"velocity": 0.5984251968503937,
		"duration": 0.30000000000001137
	},
	{
		"name": "D4",
		"midi": 62,
		"time": 43.1900000000002,
		"velocity": 0.6771653543307087,
		"duration": 0.5800000000000054
	},
	{
		"name": "A4",
		"midi": 69,
		"time": 43.2000000000002,
		"velocity": 0.6771653543307087,
		"duration": 0.5799999999999983
	},
	{
		"name": "A3",
		"midi": 57,
		"time": 43.2000000000002,
		"velocity": 0.6771653543307087,
		"duration": 0.28999999999999915
	},
	{
		"name": "D3",
		"midi": 50,
		"time": 43.2100000000002,
		"velocity": 0.6771653543307087,
		"duration": 0.5799999999999983
	},
	{
		"name": "C4",
		"midi": 60,
		"time": 43.2100000000002,
		"velocity": 0.6771653543307087,
		"duration": 0.5799999999999983
	},
	{
		"name": "A3",
		"midi": 57,
		"time": 43.510000000000204,
		"velocity": 0.5748031496062992,
		"duration": 0.28999999999999204
	},
	{
		"name": "A3",
		"midi": 57,
		"time": 43.7900000000002,
		"velocity": 0.5984251968503937,
		"duration": 0.28999999999999915
	},
	{
		"name": "D3",
		"midi": 50,
		"time": 43.7900000000002,
		"velocity": 0.5984251968503937,
		"duration": 0.5800000000000054
	},
	{
		"name": "A4",
		"midi": 69,
		"time": 43.800000000000196,
		"velocity": 0.6771653543307087,
		"duration": 0.5800000000000054
	},
	{
		"name": "C4",
		"midi": 60,
		"time": 43.800000000000196,
		"velocity": 0.5984251968503937,
		"duration": 0.5800000000000054
	},
	{
		"name": "D4",
		"midi": 62,
		"time": 43.8050000000002,
		"velocity": 0.5984251968503937,
		"duration": 0.5800000000000054
	},
	{
		"name": "A3",
		"midi": 57,
		"time": 44.1000000000002,
		"velocity": 0.6299212598425197,
		"duration": 0.29000000000000625
	},
	{
		"name": "A4",
		"midi": 69,
		"time": 44.400000000000205,
		"velocity": 0.6771653543307087,
		"duration": 0.5799999999999983
	},
	{
		"name": "A3",
		"midi": 57,
		"time": 44.40500000000021,
		"velocity": 0.6771653543307087,
		"duration": 0.28999999999999915
	},
	{
		"name": "D3",
		"midi": 50,
		"time": 44.40500000000021,
		"velocity": 0.6771653543307087,
		"duration": 0.5799999999999983
	},
	{
		"name": "D4",
		"midi": 62,
		"time": 44.41000000000021,
		"velocity": 0.6771653543307087,
		"duration": 0.5799999999999983
	},
	{
		"name": "C4",
		"midi": 60,
		"time": 44.41000000000021,
		"velocity": 0.6771653543307087,
		"duration": 0.5799999999999983
	},
	{
		"name": "A3",
		"midi": 57,
		"time": 44.695000000000206,
		"velocity": 0.5748031496062992,
		"duration": 0.28999999999999915
	},
	{
		"name": "D3",
		"midi": 50,
		"time": 44.99000000000021,
		"velocity": 0.5984251968503937,
		"duration": 0.5800000000000054
	},
	{
		"name": "A4",
		"midi": 69,
		"time": 45.000000000000206,
		"velocity": 0.6771653543307087,
		"duration": 0.5800000000000054
	},
	{
		"name": "A3",
		"midi": 57,
		"time": 45.00500000000021,
		"velocity": 0.5984251968503937,
		"duration": 0.28999999999999915
	},
	{
		"name": "D4",
		"midi": 62,
		"time": 45.01000000000021,
		"velocity": 0.5984251968503937,
		"duration": 0.5799999999999983
	},
	{
		"name": "C4",
		"midi": 60,
		"time": 45.01000000000021,
		"velocity": 0.5984251968503937,
		"duration": 0.5799999999999983
	},
	{
		"name": "A3",
		"midi": 57,
		"time": 45.30000000000021,
		"velocity": 0.6299212598425197,
		"duration": 0.28999999999999915
	},
	{
		"name": "D4",
		"midi": 62,
		"time": 45.59500000000021,
		"velocity": 0.6771653543307087,
		"duration": 0.5800000000000054
	},
	{
		"name": "A#4",
		"midi": 70,
		"time": 45.60500000000021,
		"velocity": 0.6771653543307087,
		"duration": 0.5800000000000125
	},
	{
		"name": "A#2",
		"midi": 46,
		"time": 45.60500000000021,
		"velocity": 0.6771653543307087,
		"duration": 0.5800000000000125
	},
	{
		"name": "A#3",
		"midi": 58,
		"time": 45.60500000000021,
		"velocity": 0.6771653543307087,
		"duration": 0.29000000000000625
	},
	{
		"name": "F3",
		"midi": 53,
		"time": 45.61000000000021,
		"velocity": 0.6771653543307087,
		"duration": 0.28000000000000114
	},
	{
		"name": "F3",
		"midi": 53,
		"time": 45.90000000000022,
		"velocity": 0.5196850393700787,
		"duration": 0.28000000000000114
	},
	{
		"name": "A#3",
		"midi": 58,
		"time": 45.91500000000022,
		"velocity": 0.5748031496062992,
		"duration": 0.29000000000000625
	},
	{
		"name": "A#2",
		"midi": 46,
		"time": 46.18500000000022,
		"velocity": 0.5984251968503937,
		"duration": 0.5800000000000054
	},
	{
		"name": "A#3",
		"midi": 58,
		"time": 46.19500000000022,
		"velocity": 0.5984251968503937,
		"duration": 0.29000000000000625
	},
	{
		"name": "F3",
		"midi": 53,
		"time": 46.20000000000022,
		"velocity": 0.5984251968503937,
		"duration": 0.5800000000000054
	},
	{
		"name": "A#4",
		"midi": 70,
		"time": 46.205000000000226,
		"velocity": 0.6771653543307087,
		"duration": 0.5800000000000054
	},
	{
		"name": "D4",
		"midi": 62,
		"time": 46.21000000000023,
		"velocity": 0.5984251968503937,
		"duration": 0.5800000000000054
	},
	{
		"name": "A#3",
		"midi": 58,
		"time": 46.50500000000023,
		"velocity": 0.6299212598425197,
		"duration": 0.29000000000000625
	},
	{
		"name": "A#2",
		"midi": 46,
		"time": 46.80000000000024,
		"velocity": 0.6771653543307087,
		"duration": 0.5800000000000125
	},
	{
		"name": "A#4",
		"midi": 70,
		"time": 46.80500000000024,
		"velocity": 0.6771653543307087,
		"duration": 0.5800000000000125
	},
	{
		"name": "A#3",
		"midi": 58,
		"time": 46.810000000000244,
		"velocity": 0.6771653543307087,
		"duration": 0.29000000000000625
	},
	{
		"name": "F3",
		"midi": 53,
		"time": 46.810000000000244,
		"velocity": 0.6771653543307087,
		"duration": 0.2750000000000057
	},
	{
		"name": "D4",
		"midi": 62,
		"time": 46.815000000000246,
		"velocity": 0.6771653543307087,
		"duration": 0.5800000000000125
	},
	{
		"name": "A#3",
		"midi": 58,
		"time": 47.10000000000025,
		"velocity": 0.5748031496062992,
		"duration": 0.29000000000000625
	},
	{
		"name": "F3",
		"midi": 53,
		"time": 47.10000000000025,
		"velocity": 0.5196850393700787,
		"duration": 0.2749999999999986
	},
	{
		"name": "A#2",
		"midi": 46,
		"time": 47.385000000000254,
		"velocity": 0.5984251968503937,
		"duration": 0.5800000000000054
	},
	{
		"name": "A#4",
		"midi": 70,
		"time": 47.40500000000026,
		"velocity": 0.6771653543307087,
		"duration": 0.5800000000000054
	},
	{
		"name": "F3",
		"midi": 53,
		"time": 47.41000000000026,
		"velocity": 0.5984251968503937,
		"duration": 0.5800000000000054
	},
	{
		"name": "A#3",
		"midi": 58,
		"time": 47.41000000000026,
		"velocity": 0.5984251968503937,
		"duration": 0.28999999999999915
	},
	{
		"name": "D4",
		"midi": 62,
		"time": 47.41500000000026,
		"velocity": 0.5984251968503937,
		"duration": 0.5800000000000054
	},
	{
		"name": "C4",
		"midi": 60,
		"time": 47.70500000000026,
		"velocity": 0.8267716535433071,
		"duration": 0.29000000000000625
	},
	{
		"name": "A4",
		"midi": 69,
		"time": 48.00000000000027,
		"velocity": 0.6771653543307087,
		"duration": 0.5800000000000054
	},
	{
		"name": "A3",
		"midi": 57,
		"time": 48.00000000000027,
		"velocity": 0.6771653543307087,
		"duration": 0.29000000000000625
	},
	{
		"name": "F3",
		"midi": 53,
		"time": 48.00500000000027,
		"velocity": 0.6771653543307087,
		"duration": 0.3049999999999997
	},
	{
		"name": "F2",
		"midi": 41,
		"time": 48.00500000000027,
		"velocity": 0.6771653543307087,
		"duration": 0.5800000000000054
	},
	{
		"name": "F4",
		"midi": 65,
		"time": 48.00500000000027,
		"velocity": 0.48031496062992124,
		"duration": 0.5800000000000054
	},
	{
		"name": "C4",
		"midi": 60,
		"time": 48.010000000000275,
		"velocity": 0.6771653543307087,
		"duration": 0.5800000000000054
	},
	{
		"name": "F3",
		"midi": 53,
		"time": 48.300000000000274,
		"velocity": 0.6771653543307087,
		"duration": 0.3050000000000139
	},
	{
		"name": "A3",
		"midi": 57,
		"time": 48.31000000000027,
		"velocity": 0.5748031496062992,
		"duration": 0.29000000000001336
	},
	{
		"name": "F2",
		"midi": 41,
		"time": 48.58500000000028,
		"velocity": 0.5984251968503937,
		"duration": 0.5800000000000125
	},
	{
		"name": "A3",
		"midi": 57,
		"time": 48.59000000000028,
		"velocity": 0.5984251968503937,
		"duration": 0.29000000000000625
	},
	{
		"name": "F4",
		"midi": 65,
		"time": 48.59500000000028,
		"velocity": 0.4251968503937008,
		"duration": 0.5800000000000054
	},
	{
		"name": "C4",
		"midi": 60,
		"time": 48.600000000000286,
		"velocity": 0.5984251968503937,
		"duration": 0.5800000000000054
	},
	{
		"name": "A4",
		"midi": 69,
		"time": 48.600000000000286,
		"velocity": 0.6771653543307087,
		"duration": 0.5800000000000054
	},
	{
		"name": "F3",
		"midi": 53,
		"time": 48.600000000000286,
		"velocity": 0.5984251968503937,
		"duration": 0.30000000000000426
	},
	{
		"name": "F3",
		"midi": 53,
		"time": 48.90000000000029,
		"velocity": 0.5984251968503937,
		"duration": 0.29999999999999716
	},
	{
		"name": "A3",
		"midi": 57,
		"time": 48.90000000000029,
		"velocity": 0.6299212598425197,
		"duration": 0.28999999999999915
	},
	{
		"name": "F2",
		"midi": 41,
		"time": 49.20000000000029,
		"velocity": 0.6771653543307087,
		"duration": 0.5800000000000054
	},
	{
		"name": "A4",
		"midi": 69,
		"time": 49.20000000000029,
		"velocity": 0.6771653543307087,
		"duration": 0.5800000000000054
	},
	{
		"name": "F3",
		"midi": 53,
		"time": 49.20000000000029,
		"velocity": 0.6771653543307087,
		"duration": 0.30000000000000426
	},
	{
		"name": "F4",
		"midi": 65,
		"time": 49.20500000000029,
		"velocity": 0.48031496062992124,
		"duration": 0.5800000000000054
	},
	{
		"name": "A3",
		"midi": 57,
		"time": 49.20500000000029,
		"velocity": 0.6771653543307087,
		"duration": 0.28999999999999915
	},
	{
		"name": "C4",
		"midi": 60,
		"time": 49.21000000000029,
		"velocity": 0.6771653543307087,
		"duration": 0.5800000000000054
	},
	{
		"name": "A3",
		"midi": 57,
		"time": 49.49500000000029,
		"velocity": 0.5748031496062992,
		"duration": 0.29000000000000625
	},
	{
		"name": "F3",
		"midi": 53,
		"time": 49.50000000000029,
		"velocity": 0.5984251968503937,
		"duration": 0.30000000000000426
	},
	{
		"name": "F2",
		"midi": 41,
		"time": 49.785000000000295,
		"velocity": 0.5984251968503937,
		"duration": 0.5800000000000054
	},
	{
		"name": "A4",
		"midi": 69,
		"time": 49.800000000000296,
		"velocity": 0.6771653543307087,
		"duration": 0.5800000000000054
	},
	{
		"name": "F3",
		"midi": 53,
		"time": 49.800000000000296,
		"velocity": 0.5984251968503937,
		"duration": 0.30000000000000426
	},
	{
		"name": "A3",
		"midi": 57,
		"time": 49.8050000000003,
		"velocity": 0.5984251968503937,
		"duration": 0.28999999999999915
	},
	{
		"name": "F4",
		"midi": 65,
		"time": 49.8050000000003,
		"velocity": 0.4251968503937008,
		"duration": 0.5800000000000054
	},
	{
		"name": "C4",
		"midi": 60,
		"time": 49.8100000000003,
		"velocity": 0.5984251968503937,
		"duration": 0.5800000000000054
	},
	{
		"name": "F3",
		"midi": 53,
		"time": 50.1000000000003,
		"velocity": 0.5984251968503937,
		"duration": 0.30000000000001137
	},
	{
		"name": "A3",
		"midi": 57,
		"time": 50.1000000000003,
		"velocity": 0.6299212598425197,
		"duration": 0.29000000000000625
	},
	{
		"name": "F4",
		"midi": 65,
		"time": 50.39500000000031,
		"velocity": 0.5354330708661418,
		"duration": 0.5800000000000196
	},
	{
		"name": "G3",
		"midi": 55,
		"time": 50.40000000000031,
		"velocity": 0.6771653543307087,
		"duration": 0.3050000000000139
	},
	{
		"name": "G4",
		"midi": 67,
		"time": 50.405000000000314,
		"velocity": 0.6771653543307087,
		"duration": 0.5800000000000125
	},
	{
		"name": "C3",
		"midi": 48,
		"time": 50.405000000000314,
		"velocity": 0.6771653543307087,
		"duration": 0.5800000000000125
	},
	{
		"name": "F3",
		"midi": 53,
		"time": 50.410000000000316,
		"velocity": 0.6771653543307087,
		"duration": 0.5800000000000125
	},
	{
		"name": "F2",
		"midi": 41,
		"time": 50.41500000000032,
		"velocity": 0.6771653543307087,
		"duration": 0.5800000000000125
	},
	{
		"name": "C4",
		"midi": 60,
		"time": 50.42000000000032,
		"velocity": 0.6771653543307087,
		"duration": 0.28000000000000114
	},
	{
		"name": "G3",
		"midi": 55,
		"time": 50.71000000000033,
		"velocity": 0.6771653543307087,
		"duration": 0.3050000000000139
	},
	{
		"name": "C4",
		"midi": 60,
		"time": 50.71000000000033,
		"velocity": 0.6771653543307087,
		"duration": 0.28000000000000114
	},
	{
		"name": "F2",
		"midi": 41,
		"time": 50.99500000000033,
		"velocity": 0.5984251968503937,
		"duration": 0.5800000000000125
	},
	{
		"name": "C3",
		"midi": 48,
		"time": 50.99500000000033,
		"velocity": 0.5984251968503937,
		"duration": 0.5800000000000125
	},
	{
		"name": "F4",
		"midi": 65,
		"time": 51.000000000000334,
		"velocity": 0.5354330708661418,
		"duration": 0.5800000000000125
	},
	{
		"name": "G4",
		"midi": 67,
		"time": 51.00500000000034,
		"velocity": 0.6771653543307087,
		"duration": 0.5800000000000125
	},
	{
		"name": "F3",
		"midi": 53,
		"time": 51.01000000000034,
		"velocity": 0.6771653543307087,
		"duration": 0.5800000000000125
	},
	{
		"name": "C4",
		"midi": 60,
		"time": 51.01000000000034,
		"velocity": 0.5984251968503937,
		"duration": 0.29000000000000625
	},
	{
		"name": "G3",
		"midi": 55,
		"time": 51.020000000000344,
		"velocity": 0.6771653543307087,
		"duration": 0.3049999999999997
	},
	{
		"name": "C4",
		"midi": 60,
		"time": 51.300000000000345,
		"velocity": 0.5984251968503937,
		"duration": 0.29000000000000625
	},
	{
		"name": "G3",
		"midi": 55,
		"time": 51.31000000000034,
		"velocity": 0.5984251968503937,
		"duration": 0.28000000000000824
	},
	{
		"name": "F4",
		"midi": 65,
		"time": 51.60500000000035,
		"velocity": 0.5354330708661418,
		"duration": 0.5800000000000125
	},
	{
		"name": "C3",
		"midi": 48,
		"time": 51.60500000000035,
		"velocity": 0.6771653543307087,
		"duration": 0.5800000000000125
	},
	{
		"name": "G4",
		"midi": 67,
		"time": 51.60500000000035,
		"velocity": 0.6771653543307087,
		"duration": 0.5800000000000125
	},
	{
		"name": "F2",
		"midi": 41,
		"time": 51.610000000000355,
		"velocity": 0.6771653543307087,
		"duration": 0.5800000000000125
	},
	{
		"name": "G3",
		"midi": 55,
		"time": 51.61500000000036,
		"velocity": 0.5984251968503937,
		"duration": 0.28000000000000114
	},
	{
		"name": "F3",
		"midi": 53,
		"time": 51.61500000000036,
		"velocity": 0.6771653543307087,
		"duration": 0.5800000000000125
	},
	{
		"name": "C4",
		"midi": 60,
		"time": 51.62000000000036,
		"velocity": 0.6771653543307087,
		"duration": 0.28000000000000114
	},
	{
		"name": "C4",
		"midi": 60,
		"time": 51.90000000000036,
		"velocity": 0.6771653543307087,
		"duration": 0.28000000000000114
	},
	{
		"name": "G3",
		"midi": 55,
		"time": 51.91000000000036,
		"velocity": 0.5984251968503937,
		"duration": 0.2850000000000108
	},
	{
		"name": "F2",
		"midi": 41,
		"time": 52.19500000000037,
		"velocity": 0.5984251968503937,
		"duration": 0.5799999999999983
	},
	{
		"name": "F4",
		"midi": 65,
		"time": 52.20500000000037,
		"velocity": 0.5354330708661418,
		"duration": 0.5800000000000054
	},
	{
		"name": "G3",
		"midi": 55,
		"time": 52.20500000000037,
		"velocity": 0.5984251968503937,
		"duration": 0.2850000000000037
	},
	{
		"name": "C3",
		"midi": 48,
		"time": 52.20500000000037,
		"velocity": 0.5984251968503937,
		"duration": 0.5800000000000054
	},
	{
		"name": "G4",
		"midi": 67,
		"time": 52.20500000000037,
		"velocity": 0.6771653543307087,
		"duration": 0.5800000000000054
	},
	{
		"name": "F3",
		"midi": 53,
		"time": 52.21000000000037,
		"velocity": 0.6771653543307087,
		"duration": 0.5800000000000054
	},
	{
		"name": "C4",
		"midi": 60,
		"time": 52.22000000000037,
		"velocity": 0.5984251968503937,
		"duration": 0.28000000000000114
	},
	{
		"name": "C4",
		"midi": 60,
		"time": 52.50000000000037,
		"velocity": 0.5984251968503937,
		"duration": 0.28000000000000114
	},
	{
		"name": "G3",
		"midi": 55,
		"time": 52.51000000000037,
		"velocity": 0.5984251968503937,
		"duration": 0.30000000000001137
	},
	{
		"name": "D4",
		"midi": 62,
		"time": 52.78500000000037,
		"velocity": 0.6771653543307087,
		"duration": 0.5800000000000054
	},
	{
		"name": "A4",
		"midi": 69,
		"time": 52.79500000000038,
		"velocity": 0.6771653543307087,
		"duration": 0.5799999999999983
	},
	{
		"name": "A3",
		"midi": 57,
		"time": 52.79500000000038,
		"velocity": 0.6771653543307087,
		"duration": 0.28999999999999915
	},
	{
		"name": "D3",
		"midi": 50,
		"time": 52.805000000000376,
		"velocity": 0.6771653543307087,
		"duration": 0.5799999999999983
	},
	{
		"name": "C4",
		"midi": 60,
		"time": 52.805000000000376,
		"velocity": 0.6771653543307087,
		"duration": 0.5799999999999983
	},
	{
		"name": "A3",
		"midi": 57,
		"time": 53.10500000000038,
		"velocity": 0.5748031496062992,
		"duration": 0.28999999999999204
	},
	{
		"name": "A3",
		"midi": 57,
		"time": 53.385000000000375,
		"velocity": 0.5984251968503937,
		"duration": 0.28999999999999915
	},
	{
		"name": "D3",
		"midi": 50,
		"time": 53.385000000000375,
		"velocity": 0.5984251968503937,
		"duration": 0.5800000000000054
	},
	{
		"name": "A4",
		"midi": 69,
		"time": 53.39500000000037,
		"velocity": 0.6771653543307087,
		"duration": 0.5800000000000054
	},
	{
		"name": "C4",
		"midi": 60,
		"time": 53.39500000000037,
		"velocity": 0.5984251968503937,
		"duration": 0.5800000000000054
	},
	{
		"name": "D4",
		"midi": 62,
		"time": 53.400000000000375,
		"velocity": 0.5984251968503937,
		"duration": 0.5800000000000054
	},
	{
		"name": "A3",
		"midi": 57,
		"time": 53.69500000000038,
		"velocity": 0.6299212598425197,
		"duration": 0.29000000000000625
	},
	{
		"name": "A4",
		"midi": 69,
		"time": 53.99500000000038,
		"velocity": 0.6771653543307087,
		"duration": 0.5799999999999983
	},
	{
		"name": "A3",
		"midi": 57,
		"time": 54.000000000000384,
		"velocity": 0.6771653543307087,
		"duration": 0.28999999999999915
	},
	{
		"name": "D3",
		"midi": 50,
		"time": 54.000000000000384,
		"velocity": 0.6771653543307087,
		"duration": 0.5799999999999983
	},
	{
		"name": "D4",
		"midi": 62,
		"time": 54.005000000000386,
		"velocity": 0.6771653543307087,
		"duration": 0.5799999999999983
	},
	{
		"name": "C4",
		"midi": 60,
		"time": 54.005000000000386,
		"velocity": 0.6771653543307087,
		"duration": 0.5799999999999983
	},
	{
		"name": "A3",
		"midi": 57,
		"time": 54.29000000000038,
		"velocity": 0.5748031496062992,
		"duration": 0.28999999999999915
	},
	{
		"name": "D3",
		"midi": 50,
		"time": 54.585000000000385,
		"velocity": 0.5984251968503937,
		"duration": 0.5800000000000054
	},
	{
		"name": "A4",
		"midi": 69,
		"time": 54.59500000000038,
		"velocity": 0.6771653543307087,
		"duration": 0.5800000000000054
	},
	{
		"name": "A3",
		"midi": 57,
		"time": 54.600000000000385,
		"velocity": 0.5984251968503937,
		"duration": 0.28999999999999915
	},
	{
		"name": "D4",
		"midi": 62,
		"time": 54.60500000000039,
		"velocity": 0.5984251968503937,
		"duration": 0.5799999999999983
	},
	{
		"name": "C4",
		"midi": 60,
		"time": 54.60500000000039,
		"velocity": 0.5984251968503937,
		"duration": 0.5799999999999983
	},
	{
		"name": "A3",
		"midi": 57,
		"time": 54.89500000000039,
		"velocity": 0.6299212598425197,
		"duration": 0.28999999999999915
	},
	{
		"name": "D4",
		"midi": 62,
		"time": 55.19000000000039,
		"velocity": 0.6771653543307087,
		"duration": 0.5800000000000054
	},
	{
		"name": "A#4",
		"midi": 70,
		"time": 55.20000000000039,
		"velocity": 0.6771653543307087,
		"duration": 0.5800000000000125
	},
	{
		"name": "A#2",
		"midi": 46,
		"time": 55.20000000000039,
		"velocity": 0.6771653543307087,
		"duration": 0.5800000000000125
	},
	{
		"name": "A#3",
		"midi": 58,
		"time": 55.20000000000039,
		"velocity": 0.6771653543307087,
		"duration": 0.29000000000000625
	},
	{
		"name": "F3",
		"midi": 53,
		"time": 55.20500000000039,
		"velocity": 0.6771653543307087,
		"duration": 0.28000000000000114
	},
	{
		"name": "F3",
		"midi": 53,
		"time": 55.495000000000395,
		"velocity": 0.5196850393700787,
		"duration": 0.28000000000000114
	},
	{
		"name": "A#3",
		"midi": 58,
		"time": 55.510000000000396,
		"velocity": 0.5748031496062992,
		"duration": 0.29000000000000625
	},
	{
		"name": "A#2",
		"midi": 46,
		"time": 55.7800000000004,
		"velocity": 0.5984251968503937,
		"duration": 0.5800000000000054
	},
	{
		"name": "A#3",
		"midi": 58,
		"time": 55.7900000000004,
		"velocity": 0.5984251968503937,
		"duration": 0.29000000000000625
	},
	{
		"name": "F3",
		"midi": 53,
		"time": 55.7950000000004,
		"velocity": 0.5984251968503937,
		"duration": 0.5800000000000054
	},
	{
		"name": "A#4",
		"midi": 70,
		"time": 55.8000000000004,
		"velocity": 0.6771653543307087,
		"duration": 0.5800000000000054
	},
	{
		"name": "D4",
		"midi": 62,
		"time": 55.805000000000405,
		"velocity": 0.5984251968503937,
		"duration": 0.5800000000000054
	},
	{
		"name": "A#3",
		"midi": 58,
		"time": 56.100000000000406,
		"velocity": 0.6299212598425197,
		"duration": 0.29000000000000625
	},
	{
		"name": "A#2",
		"midi": 46,
		"time": 56.395000000000415,
		"velocity": 0.6771653543307087,
		"duration": 0.5800000000000125
	},
	{
		"name": "A#4",
		"midi": 70,
		"time": 56.40000000000042,
		"velocity": 0.6771653543307087,
		"duration": 0.5800000000000125
	},
	{
		"name": "A#3",
		"midi": 58,
		"time": 56.40500000000042,
		"velocity": 0.6771653543307087,
		"duration": 0.29000000000000625
	},
	{
		"name": "F3",
		"midi": 53,
		"time": 56.40500000000042,
		"velocity": 0.6771653543307087,
		"duration": 0.2750000000000057
	},
	{
		"name": "D4",
		"midi": 62,
		"time": 56.41000000000042,
		"velocity": 0.6771653543307087,
		"duration": 0.5800000000000125
	},
	{
		"name": "A#3",
		"midi": 58,
		"time": 56.69500000000043,
		"velocity": 0.5748031496062992,
		"duration": 0.29000000000000625
	},
	{
		"name": "F3",
		"midi": 53,
		"time": 56.69500000000043,
		"velocity": 0.5196850393700787,
		"duration": 0.2749999999999986
	},
	{
		"name": "A#2",
		"midi": 46,
		"time": 56.98000000000043,
		"velocity": 0.5984251968503937,
		"duration": 0.5800000000000054
	},
	{
		"name": "A#4",
		"midi": 70,
		"time": 57.00000000000043,
		"velocity": 0.6771653543307087,
		"duration": 0.5800000000000054
	},
	{
		"name": "F3",
		"midi": 53,
		"time": 57.005000000000436,
		"velocity": 0.5984251968503937,
		"duration": 0.5800000000000054
	},
	{
		"name": "A#3",
		"midi": 58,
		"time": 57.005000000000436,
		"velocity": 0.5984251968503937,
		"duration": 0.28999999999999915
	},
	{
		"name": "D4",
		"midi": 62,
		"time": 57.01000000000044,
		"velocity": 0.5984251968503937,
		"duration": 0.5800000000000054
	},
	{
		"name": "C4",
		"midi": 60,
		"time": 57.30000000000044,
		"velocity": 0.8267716535433071,
		"duration": 0.29000000000000625
	},
	{
		"name": "A4",
		"midi": 69,
		"time": 57.59500000000045,
		"velocity": 0.6771653543307087,
		"duration": 0.5800000000000054
	},
	{
		"name": "A3",
		"midi": 57,
		"time": 57.59500000000045,
		"velocity": 0.6771653543307087,
		"duration": 0.29000000000000625
	},
	{
		"name": "F3",
		"midi": 53,
		"time": 57.60000000000045,
		"velocity": 0.6771653543307087,
		"duration": 0.3049999999999997
	},
	{
		"name": "F2",
		"midi": 41,
		"time": 57.60000000000045,
		"velocity": 0.6771653543307087,
		"duration": 0.5800000000000054
	},
	{
		"name": "F4",
		"midi": 65,
		"time": 57.60000000000045,
		"velocity": 0.48031496062992124,
		"duration": 0.5800000000000054
	},
	{
		"name": "C4",
		"midi": 60,
		"time": 57.60500000000045,
		"velocity": 0.6771653543307087,
		"duration": 0.5800000000000054
	},
	{
		"name": "C3",
		"midi": 48,
		"time": 57.88500000000045,
		"velocity": 0.6771653543307087,
		"duration": 0.3050000000000068
	},
	{
		"name": "F3",
		"midi": 53,
		"time": 57.89500000000045,
		"velocity": 0.6771653543307087,
		"duration": 0.3050000000000139
	},
	{
		"name": "A3",
		"midi": 57,
		"time": 57.90500000000045,
		"velocity": 0.5748031496062992,
		"duration": 0.29000000000001336
	},
	{
		"name": "F2",
		"midi": 41,
		"time": 58.180000000000454,
		"velocity": 0.5984251968503937,
		"duration": 0.5800000000000125
	},
	{
		"name": "A3",
		"midi": 57,
		"time": 58.18500000000046,
		"velocity": 0.5984251968503937,
		"duration": 0.29000000000000625
	},
	{
		"name": "F4",
		"midi": 65,
		"time": 58.19000000000046,
		"velocity": 0.4251968503937008,
		"duration": 0.5800000000000054
	},
	{
		"name": "C4",
		"midi": 60,
		"time": 58.19500000000046,
		"velocity": 0.5984251968503937,
		"duration": 0.5800000000000054
	},
	{
		"name": "A4",
		"midi": 69,
		"time": 58.19500000000046,
		"velocity": 0.6771653543307087,
		"duration": 0.5800000000000054
	},
	{
		"name": "F3",
		"midi": 53,
		"time": 58.19500000000046,
		"velocity": 0.5984251968503937,
		"duration": 0.30000000000000426
	},
	{
		"name": "C3",
		"midi": 48,
		"time": 58.480000000000466,
		"velocity": 0.6771653543307087,
		"duration": 0.3049999999999997
	},
	{
		"name": "F3",
		"midi": 53,
		"time": 58.495000000000466,
		"velocity": 0.5984251968503937,
		"duration": 0.29999999999999716
	},
	{
		"name": "A3",
		"midi": 57,
		"time": 58.495000000000466,
		"velocity": 0.6299212598425197,
		"duration": 0.28999999999999915
	},
	{
		"name": "F2",
		"midi": 41,
		"time": 58.795000000000464,
		"velocity": 0.6771653543307087,
		"duration": 0.5800000000000054
	},
	{
		"name": "A4",
		"midi": 69,
		"time": 58.795000000000464,
		"velocity": 0.7874015748031497,
		"duration": 0.5800000000000054
	},
	{
		"name": "F3",
		"midi": 53,
		"time": 58.795000000000464,
		"velocity": 0.6771653543307087,
		"duration": 0.30000000000000426
	},
	{
		"name": "F4",
		"midi": 65,
		"time": 58.800000000000466,
		"velocity": 0.48031496062992124,
		"duration": 0.5800000000000054
	},
	{
		"name": "A3",
		"midi": 57,
		"time": 58.800000000000466,
		"velocity": 0.6771653543307087,
		"duration": 0.28999999999999915
	},
	{
		"name": "C4",
		"midi": 60,
		"time": 58.80500000000047,
		"velocity": 0.6771653543307087,
		"duration": 0.5800000000000054
	},
	{
		"name": "C3",
		"midi": 48,
		"time": 59.090000000000465,
		"velocity": 0.6771653543307087,
		"duration": 0.3050000000000068
	},
	{
		"name": "A3",
		"midi": 57,
		"time": 59.090000000000465,
		"velocity": 0.5748031496062992,
		"duration": 0.29000000000000625
	},
	{
		"name": "F3",
		"midi": 53,
		"time": 59.09500000000047,
		"velocity": 0.5984251968503937,
		"duration": 0.30000000000000426
	},
	{
		"name": "F2",
		"midi": 41,
		"time": 59.38000000000047,
		"velocity": 0.5984251968503937,
		"duration": 0.5800000000000054
	},
	{
		"name": "A4",
		"midi": 69,
		"time": 59.39500000000047,
		"velocity": 0.6771653543307087,
		"duration": 0.5800000000000054
	},
	{
		"name": "F3",
		"midi": 53,
		"time": 59.39500000000047,
		"velocity": 0.5984251968503937,
		"duration": 0.30000000000000426
	},
	{
		"name": "A3",
		"midi": 57,
		"time": 59.400000000000475,
		"velocity": 0.5984251968503937,
		"duration": 0.28999999999999915
	},
	{
		"name": "F4",
		"midi": 65,
		"time": 59.400000000000475,
		"velocity": 0.4251968503937008,
		"duration": 0.5800000000000054
	},
	{
		"name": "C4",
		"midi": 60,
		"time": 59.40500000000048,
		"velocity": 0.5984251968503937,
		"duration": 0.5800000000000054
	},
	{
		"name": "F3",
		"midi": 53,
		"time": 59.695000000000476,
		"velocity": 0.5984251968503937,
		"duration": 0.30000000000001137
	},
	{
		"name": "A3",
		"midi": 57,
		"time": 59.695000000000476,
		"velocity": 0.6299212598425197,
		"duration": 0.29000000000000625
	},
	{
		"name": "F4",
		"midi": 65,
		"time": 59.990000000000485,
		"velocity": 0.5354330708661418,
		"duration": 0.5800000000000196
	},
	{
		"name": "A3",
		"midi": 57,
		"time": 59.99500000000049,
		"velocity": 0.6771653543307087,
		"duration": 0.3050000000000139
	},
	{
		"name": "A4",
		"midi": 69,
		"time": 60.00000000000049,
		"velocity": 0.6771653543307087,
		"duration": 0.3200000000000145
	},
	{
		"name": "C3",
		"midi": 48,
		"time": 60.00000000000049,
		"velocity": 0.6771653543307087,
		"duration": 0.5800000000000125
	},
	{
		"name": "F3",
		"midi": 53,
		"time": 60.00500000000049,
		"velocity": 0.6771653543307087,
		"duration": 0.5800000000000125
	},
	{
		"name": "F2",
		"midi": 41,
		"time": 60.010000000000495,
		"velocity": 0.6771653543307087,
		"duration": 0.5800000000000125
	},
	{
		"name": "C4",
		"midi": 60,
		"time": 60.0150000000005,
		"velocity": 0.6771653543307087,
		"duration": 0.28000000000000114
	},
	{
		"name": "G3",
		"midi": 55,
		"time": 60.305000000000504,
		"velocity": 0.6771653543307087,
		"duration": 0.3050000000000139
	},
	{
		"name": "C4",
		"midi": 60,
		"time": 60.305000000000504,
		"velocity": 0.6771653543307087,
		"duration": 0.28000000000000114
	},
	{
		"name": "F2",
		"midi": 41,
		"time": 60.59000000000051,
		"velocity": 0.5984251968503937,
		"duration": 0.5800000000000125
	},
	{
		"name": "C3",
		"midi": 48,
		"time": 60.59000000000051,
		"velocity": 0.5984251968503937,
		"duration": 0.5800000000000125
	},
	{
		"name": "G4",
		"midi": 67,
		"time": 60.59500000000051,
		"velocity": 0.5354330708661418,
		"duration": 0.3100000000000094
	},
	{
		"name": "A4",
		"midi": 69,
		"time": 60.60000000000051,
		"velocity": 0.6771653543307087,
		"duration": 0.5800000000000054
	},
	{
		"name": "F3",
		"midi": 53,
		"time": 60.605000000000516,
		"velocity": 0.6771653543307087,
		"duration": 0.5800000000000054
	},
	{
		"name": "C4",
		"midi": 60,
		"time": 60.605000000000516,
		"velocity": 0.5984251968503937,
		"duration": 0.29000000000000625
	},
	{
		"name": "G3",
		"midi": 55,
		"time": 60.61500000000052,
		"velocity": 0.6771653543307087,
		"duration": 0.3049999999999997
	},
	{
		"name": "C4",
		"midi": 60,
		"time": 60.89500000000052,
		"velocity": 0.5984251968503937,
		"duration": 0.28999999999999915
	},
	{
		"name": "F4",
		"midi": 65,
		"time": 60.89500000000052,
		"velocity": 0.5354330708661418,
		"duration": 0.3100000000000023
	},
	{
		"name": "G3",
		"midi": 55,
		"time": 60.90500000000052,
		"velocity": 0.5984251968503937,
		"duration": 0.28000000000000114
	},
	{
		"name": "F4",
		"midi": 65,
		"time": 61.20000000000052,
		"velocity": 0.5354330708661418,
		"duration": 0.2950000000000159
	},
	{
		"name": "C3",
		"midi": 48,
		"time": 61.20000000000052,
		"velocity": 0.6771653543307087,
		"duration": 0.5800000000000196
	},
	{
		"name": "A4",
		"midi": 69,
		"time": 61.20000000000052,
		"velocity": 0.6771653543307087,
		"duration": 0.5800000000000196
	},
	{
		"name": "F2",
		"midi": 41,
		"time": 61.205000000000524,
		"velocity": 0.6771653543307087,
		"duration": 0.5800000000000196
	},
	{
		"name": "G3",
		"midi": 55,
		"time": 61.21000000000053,
		"velocity": 0.5984251968503937,
		"duration": 0.28000000000000824
	},
	{
		"name": "F3",
		"midi": 53,
		"time": 61.21000000000053,
		"velocity": 0.6771653543307087,
		"duration": 0.5800000000000196
	},
	{
		"name": "C4",
		"midi": 60,
		"time": 61.21500000000053,
		"velocity": 0.6771653543307087,
		"duration": 0.28000000000000824
	},
	{
		"name": "E4",
		"midi": 64,
		"time": 61.48500000000053,
		"velocity": 0.5354330708661418,
		"duration": 0.2950000000000088
	},
	{
		"name": "C4",
		"midi": 60,
		"time": 61.49500000000054,
		"velocity": 0.6771653543307087,
		"duration": 0.28000000000000114
	},
	{
		"name": "G3",
		"midi": 55,
		"time": 61.505000000000535,
		"velocity": 0.5984251968503937,
		"duration": 0.2850000000000108
	},
	{
		"name": "F2",
		"midi": 41,
		"time": 61.790000000000546,
		"velocity": 0.5984251968503937,
		"duration": 0.5799999999999983
	},
	{
		"name": "E4",
		"midi": 64,
		"time": 61.800000000000544,
		"velocity": 0.5354330708661418,
		"duration": 0.5800000000000054
	},
	{
		"name": "G3",
		"midi": 55,
		"time": 61.800000000000544,
		"velocity": 0.5984251968503937,
		"duration": 0.2850000000000037
	},
	{
		"name": "C3",
		"midi": 48,
		"time": 61.800000000000544,
		"velocity": 0.5984251968503937,
		"duration": 0.5800000000000054
	},
	{
		"name": "G4",
		"midi": 67,
		"time": 61.800000000000544,
		"velocity": 0.6771653543307087,
		"duration": 0.5800000000000054
	},
	{
		"name": "F3",
		"midi": 53,
		"time": 61.80500000000055,
		"velocity": 0.6771653543307087,
		"duration": 0.5800000000000054
	},
	{
		"name": "C4",
		"midi": 60,
		"time": 61.815000000000545,
		"velocity": 0.5984251968503937,
		"duration": 0.28000000000000114
	},
	{
		"name": "C4",
		"midi": 60,
		"time": 62.095000000000546,
		"velocity": 0.5984251968503937,
		"duration": 0.28000000000000114
	},
	{
		"name": "G3",
		"midi": 55,
		"time": 62.105000000000544,
		"velocity": 0.5984251968503937,
		"duration": 0.30000000000001137
	},
	{
		"name": "D4",
		"midi": 62,
		"time": 62.40000000000055,
		"velocity": 0.6771653543307087,
		"duration": 0.5800000000000125
	},
	{
		"name": "A#4",
		"midi": 70,
		"time": 62.41000000000056,
		"velocity": 0.6771653543307087,
		"duration": 0.5800000000000125
	},
	{
		"name": "A#2",
		"midi": 46,
		"time": 62.41000000000056,
		"velocity": 0.6771653543307087,
		"duration": 0.5800000000000125
	},
	{
		"name": "A#3",
		"midi": 58,
		"time": 62.41000000000056,
		"velocity": 0.6771653543307087,
		"duration": 0.29000000000000625
	},
	{
		"name": "F3",
		"midi": 53,
		"time": 62.41500000000056,
		"velocity": 0.6771653543307087,
		"duration": 0.28000000000000114
	},
	{
		"name": "F3",
		"midi": 53,
		"time": 62.70500000000057,
		"velocity": 0.5196850393700787,
		"duration": 0.28000000000000114
	},
	{
		"name": "A#2",
		"midi": 46,
		"time": 62.99000000000057,
		"velocity": 0.5984251968503937,
		"duration": 0.5800000000000054
	},
	{
		"name": "A#3",
		"midi": 58,
		"time": 63.00000000000057,
		"velocity": 0.5984251968503937,
		"duration": 0.29000000000000625
	},
	{
		"name": "F3",
		"midi": 53,
		"time": 63.00500000000057,
		"velocity": 0.5984251968503937,
		"duration": 0.30000000000000426
	},
	{
		"name": "A#4",
		"midi": 70,
		"time": 63.01000000000057,
		"velocity": 0.6771653543307087,
		"duration": 0.5800000000000054
	},
	{
		"name": "D4",
		"midi": 62,
		"time": 63.015000000000576,
		"velocity": 0.5984251968503937,
		"duration": 0.5800000000000054
	},
	{
		"name": "F3",
		"midi": 53,
		"time": 63.305000000000575,
		"velocity": 0.5984251968503937,
		"duration": 0.30000000000000426
	},
	{
		"name": "A#2",
		"midi": 46,
		"time": 63.60500000000058,
		"velocity": 0.6771653543307087,
		"duration": 0.5800000000000054
	},
	{
		"name": "A#4",
		"midi": 70,
		"time": 63.61000000000058,
		"velocity": 0.6771653543307087,
		"duration": 0.5799999999999983
	},
	{
		"name": "A#3",
		"midi": 58,
		"time": 63.615000000000585,
		"velocity": 0.6771653543307087,
		"duration": 0.29000000000000625
	},
	{
		"name": "F3",
		"midi": 53,
		"time": 63.615000000000585,
		"velocity": 0.6771653543307087,
		"duration": 0.2750000000000057
	},
	{
		"name": "D4",
		"midi": 62,
		"time": 63.62000000000059,
		"velocity": 0.6771653543307087,
		"duration": 0.5799999999999983
	},
	{
		"name": "F3",
		"midi": 53,
		"time": 63.90500000000059,
		"velocity": 0.5196850393700787,
		"duration": 0.2749999999999986
	},
	{
		"name": "A#2",
		"midi": 46,
		"time": 64.19000000000058,
		"velocity": 0.5984251968503937,
		"duration": 0.5799999999999983
	},
	{
		"name": "A#4",
		"midi": 70,
		"time": 64.21000000000059,
		"velocity": 0.6771653543307087,
		"duration": 0.5799999999999841
	},
	{
		"name": "F3",
		"midi": 53,
		"time": 64.21500000000059,
		"velocity": 0.5984251968503937,
		"duration": 0.2749999999999915
	},
	{
		"name": "A#3",
		"midi": 58,
		"time": 64.21500000000059,
		"velocity": 0.5984251968503937,
		"duration": 0.28999999999999204
	},
	{
		"name": "D4",
		"midi": 62,
		"time": 64.22000000000058,
		"velocity": 0.5984251968503937,
		"duration": 0.5799999999999983
	},
	{
		"name": "F3",
		"midi": 53,
		"time": 64.51500000000058,
		"velocity": 0.5984251968503937,
		"duration": 0.2749999999999915
	},
	{
		"name": "D4",
		"midi": 62,
		"time": 64.81000000000058,
		"velocity": 0.6771653543307087,
		"duration": 0.5799999999999983
	},
	{
		"name": "A#4",
		"midi": 70,
		"time": 64.82000000000059,
		"velocity": 0.6771653543307087,
		"duration": 0.5799999999999841
	},
	{
		"name": "A#2",
		"midi": 46,
		"time": 64.82000000000059,
		"velocity": 0.6771653543307087,
		"duration": 0.5799999999999841
	},
	{
		"name": "A#3",
		"midi": 58,
		"time": 64.82000000000059,
		"velocity": 0.6771653543307087,
		"duration": 0.28999999999999204
	},
	{
		"name": "F3",
		"midi": 53,
		"time": 64.82500000000059,
		"velocity": 0.6771653543307087,
		"duration": 0.28000000000000114
	},
	{
		"name": "F3",
		"midi": 53,
		"time": 65.11500000000058,
		"velocity": 0.5196850393700787,
		"duration": 0.28000000000000114
	},
	{
		"name": "A#3",
		"midi": 58,
		"time": 65.13000000000058,
		"velocity": 0.4566929133858268,
		"duration": 0.28999999999999204
	},
	{
		"name": "A#2",
		"midi": 46,
		"time": 65.40000000000057,
		"velocity": 0.5984251968503937,
		"duration": 0.5799999999999983
	},
	{
		"name": "A#3",
		"midi": 58,
		"time": 65.41000000000058,
		"velocity": 0.5984251968503937,
		"duration": 0.28999999999999204
	},
	{
		"name": "F3",
		"midi": 53,
		"time": 65.41500000000057,
		"velocity": 0.5984251968503937,
		"duration": 0.5799999999999983
	},
	{
		"name": "A#4",
		"midi": 70,
		"time": 65.42000000000057,
		"velocity": 0.6771653543307087,
		"duration": 0.5799999999999983
	},
	{
		"name": "D4",
		"midi": 62,
		"time": 65.42500000000057,
		"velocity": 0.5984251968503937,
		"duration": 0.5799999999999983
	},
	{
		"name": "A#3",
		"midi": 58,
		"time": 65.72000000000057,
		"velocity": 0.5039370078740157,
		"duration": 0.28999999999999204
	},
	{
		"name": "A#2",
		"midi": 46,
		"time": 66.01500000000055,
		"velocity": 0.6771653543307087,
		"duration": 0.5799999999999841
	},
	{
		"name": "A#4",
		"midi": 70,
		"time": 66.02000000000055,
		"velocity": 0.6771653543307087,
		"duration": 0.5799999999999841
	},
	{
		"name": "A#3",
		"midi": 58,
		"time": 66.02500000000055,
		"velocity": 0.6771653543307087,
		"duration": 0.28999999999999204
	},
	{
		"name": "F3",
		"midi": 53,
		"time": 66.02500000000055,
		"velocity": 0.6771653543307087,
		"duration": 0.2749999999999915
	},
	{
		"name": "D4",
		"midi": 62,
		"time": 66.03000000000054,
		"velocity": 0.6771653543307087,
		"duration": 0.5799999999999841
	},
	{
		"name": "A#3",
		"midi": 58,
		"time": 66.31500000000054,
		"velocity": 0.4566929133858268,
		"duration": 0.28999999999999204
	},
	{
		"name": "F3",
		"midi": 53,
		"time": 66.31500000000054,
		"velocity": 0.5196850393700787,
		"duration": 0.2750000000000057
	},
	{
		"name": "A#2",
		"midi": 46,
		"time": 66.60000000000053,
		"velocity": 0.5984251968503937,
		"duration": 0.8899999999999579
	},
	{
		"name": "A#4",
		"midi": 70,
		"time": 66.62000000000053,
		"velocity": 0.6771653543307087,
		"duration": 0.8699999999999619
	},
	{
		"name": "F3",
		"midi": 53,
		"time": 66.62500000000053,
		"velocity": 0.5984251968503937,
		"duration": 0.5799999999999841
	},
	{
		"name": "A#3",
		"midi": 58,
		"time": 66.62500000000053,
		"velocity": 0.5984251968503937,
		"duration": 0.28999999999999204
	},
	{
		"name": "D4",
		"midi": 62,
		"time": 66.63000000000052,
		"velocity": 0.5984251968503937,
		"duration": 0.839999999999975
	},
	{
		"name": "A#3",
		"midi": 58,
		"time": 66.92000000000051,
		"velocity": 0.8267716535433071,
		"duration": 0.28999999999999204
	},
	{
		"name": "A4",
		"midi": 69,
		"time": 67.2150000000005,
		"velocity": 0.6771653543307087,
		"duration": 0.5799999999999983
	},
	{
		"name": "A3",
		"midi": 57,
		"time": 67.2150000000005,
		"velocity": 0.6771653543307087,
		"duration": 0.28999999999999204
	},
	{
		"name": "F3",
		"midi": 53,
		"time": 67.2200000000005,
		"velocity": 0.6771653543307087,
		"duration": 0.3050000000000068
	},
	{
		"name": "F2",
		"midi": 41,
		"time": 67.2200000000005,
		"velocity": 0.6771653543307087,
		"duration": 0.5799999999999983
	},
	{
		"name": "F4",
		"midi": 65,
		"time": 67.2200000000005,
		"velocity": 0.48031496062992124,
		"duration": 0.5799999999999983
	},
	{
		"name": "C4",
		"midi": 60,
		"time": 67.22500000000049,
		"velocity": 0.6771653543307087,
		"duration": 0.5799999999999983
	},
	{
		"name": "C3",
		"midi": 48,
		"time": 67.50500000000049,
		"velocity": 0.6771653543307087,
		"duration": 0.3049999999999926
	},
	{
		"name": "F3",
		"midi": 53,
		"time": 67.5150000000005,
		"velocity": 0.6771653543307087,
		"duration": 0.3049999999999784
	},
	{
		"name": "A3",
		"midi": 57,
		"time": 67.5250000000005,
		"velocity": 0.5748031496062992,
		"duration": 0.28999999999997783
	},
	{
		"name": "F2",
		"midi": 41,
		"time": 67.8000000000005,
		"velocity": 0.5984251968503937,
		"duration": 0.5799999999999841
	},
	{
		"name": "A3",
		"midi": 57,
		"time": 67.80500000000049,
		"velocity": 0.5984251968503937,
		"duration": 0.28999999999999204
	},
	{
		"name": "F4",
		"midi": 65,
		"time": 67.81000000000049,
		"velocity": 0.4251968503937008,
		"duration": 0.5799999999999983
	},
	{
		"name": "C4",
		"midi": 60,
		"time": 67.81500000000048,
		"velocity": 0.5984251968503937,
		"duration": 0.5799999999999983
	},
	{
		"name": "A4",
		"midi": 69,
		"time": 67.81500000000048,
		"velocity": 0.6771653543307087,
		"duration": 0.5799999999999983
	},
	{
		"name": "F3",
		"midi": 53,
		"time": 67.81500000000048,
		"velocity": 0.5984251968503937,
		"duration": 0.29999999999999716
	},
	{
		"name": "C3",
		"midi": 48,
		"time": 68.10000000000048,
		"velocity": 0.6771653543307087,
		"duration": 0.3050000000000068
	},
	{
		"name": "F3",
		"midi": 53,
		"time": 68.11500000000048,
		"velocity": 0.5984251968503937,
		"duration": 0.30000000000001137
	},
	{
		"name": "A3",
		"midi": 57,
		"time": 68.11500000000048,
		"velocity": 0.6299212598425197,
		"duration": 0.29000000000000625
	},
	{
		"name": "F2",
		"midi": 41,
		"time": 68.41500000000049,
		"velocity": 0.6771653543307087,
		"duration": 0.5799999999999841
	},
	{
		"name": "A4",
		"midi": 69,
		"time": 68.41500000000049,
		"velocity": 0.7874015748031497,
		"duration": 0.5799999999999841
	},
	{
		"name": "F3",
		"midi": 53,
		"time": 68.41500000000049,
		"velocity": 0.6771653543307087,
		"duration": 0.29999999999998295
	},
	{
		"name": "F4",
		"midi": 65,
		"time": 68.42000000000048,
		"velocity": 0.48031496062992124,
		"duration": 0.5799999999999841
	},
	{
		"name": "A3",
		"midi": 57,
		"time": 68.42000000000048,
		"velocity": 0.6771653543307087,
		"duration": 0.28999999999999204
	},
	{
		"name": "C4",
		"midi": 60,
		"time": 68.42500000000048,
		"velocity": 0.6771653543307087,
		"duration": 0.5799999999999841
	},
	{
		"name": "C3",
		"midi": 48,
		"time": 68.71000000000048,
		"velocity": 0.6771653543307087,
		"duration": 0.3049999999999926
	},
	{
		"name": "A3",
		"midi": 57,
		"time": 68.71000000000048,
		"velocity": 0.5748031496062992,
		"duration": 0.28999999999999204
	},
	{
		"name": "F3",
		"midi": 53,
		"time": 68.71500000000047,
		"velocity": 0.5984251968503937,
		"duration": 0.29999999999999716
	},
	{
		"name": "F2",
		"midi": 41,
		"time": 69.00000000000047,
		"velocity": 0.5984251968503937,
		"duration": 0.5799999999999841
	},
	{
		"name": "A4",
		"midi": 69,
		"time": 69.01500000000047,
		"velocity": 0.6771653543307087,
		"duration": 0.5799999999999841
	},
	{
		"name": "F3",
		"midi": 53,
		"time": 69.01500000000047,
		"velocity": 0.5984251968503937,
		"duration": 0.29999999999998295
	},
	{
		"name": "A3",
		"midi": 57,
		"time": 69.02000000000046,
		"velocity": 0.5984251968503937,
		"duration": 0.28999999999999204
	},
	{
		"name": "F4",
		"midi": 65,
		"time": 69.02000000000046,
		"velocity": 0.4251968503937008,
		"duration": 0.5799999999999841
	},
	{
		"name": "C4",
		"midi": 60,
		"time": 69.02500000000046,
		"velocity": 0.5984251968503937,
		"duration": 0.5799999999999841
	},
	{
		"name": "F3",
		"midi": 53,
		"time": 69.31500000000045,
		"velocity": 0.5984251968503937,
		"duration": 0.29999999999998295
	},
	{
		"name": "A3",
		"midi": 57,
		"time": 69.31500000000045,
		"velocity": 0.6299212598425197,
		"duration": 0.28999999999999204
	},
	{
		"name": "F4",
		"midi": 65,
		"time": 69.61000000000044,
		"velocity": 0.5354330708661418,
		"duration": 0.5799999999999699
	},
	{
		"name": "G3",
		"midi": 55,
		"time": 69.61500000000044,
		"velocity": 0.6771653543307087,
		"duration": 0.3049999999999784
	},
	{
		"name": "G4",
		"midi": 67,
		"time": 69.62000000000043,
		"velocity": 0.6771653543307087,
		"duration": 0.5799999999999841
	},
	{
		"name": "C3",
		"midi": 48,
		"time": 69.62000000000043,
		"velocity": 0.6771653543307087,
		"duration": 0.5799999999999841
	},
	{
		"name": "F3",
		"midi": 53,
		"time": 69.62500000000043,
		"velocity": 0.6771653543307087,
		"duration": 0.5799999999999841
	},
	{
		"name": "F2",
		"midi": 41,
		"time": 69.63000000000042,
		"velocity": 0.6771653543307087,
		"duration": 0.5799999999999841
	},
	{
		"name": "C4",
		"midi": 60,
		"time": 69.63500000000042,
		"velocity": 0.6771653543307087,
		"duration": 0.28000000000000114
	},
	{
		"name": "G3",
		"midi": 55,
		"time": 69.92500000000041,
		"velocity": 0.6771653543307087,
		"duration": 0.3049999999999784
	},
	{
		"name": "C4",
		"midi": 60,
		"time": 69.92500000000041,
		"velocity": 0.6771653543307087,
		"duration": 0.28000000000000114
	},
	{
		"name": "F2",
		"midi": 41,
		"time": 70.2100000000004,
		"velocity": 0.5984251968503937,
		"duration": 0.5799999999999841
	},
	{
		"name": "C3",
		"midi": 48,
		"time": 70.2100000000004,
		"velocity": 0.5984251968503937,
		"duration": 0.5799999999999841
	},
	{
		"name": "F4",
		"midi": 65,
		"time": 70.2150000000004,
		"velocity": 0.5354330708661418,
		"duration": 0.5799999999999841
	},
	{
		"name": "G4",
		"midi": 67,
		"time": 70.2200000000004,
		"velocity": 0.6771653543307087,
		"duration": 0.5799999999999841
	},
	{
		"name": "F3",
		"midi": 53,
		"time": 70.22500000000039,
		"velocity": 0.6771653543307087,
		"duration": 0.5799999999999841
	},
	{
		"name": "C4",
		"midi": 60,
		"time": 70.22500000000039,
		"velocity": 0.5984251968503937,
		"duration": 0.28999999999999204
	},
	{
		"name": "G3",
		"midi": 55,
		"time": 70.23500000000038,
		"velocity": 0.6771653543307087,
		"duration": 0.3050000000000068
	},
	{
		"name": "C4",
		"midi": 60,
		"time": 70.51500000000038,
		"velocity": 0.5984251968503937,
		"duration": 0.28999999999999204
	},
	{
		"name": "G3",
		"midi": 55,
		"time": 70.52500000000039,
		"velocity": 0.5984251968503937,
		"duration": 0.2799999999999869
	},
	{
		"name": "F4",
		"midi": 65,
		"time": 70.82000000000038,
		"velocity": 0.5354330708661418,
		"duration": 0.5799999999999841
	},
	{
		"name": "C3",
		"midi": 48,
		"time": 70.82000000000038,
		"velocity": 0.6771653543307087,
		"duration": 0.5799999999999841
	},
	{
		"name": "G4",
		"midi": 67,
		"time": 70.82000000000038,
		"velocity": 0.6771653543307087,
		"duration": 0.5799999999999841
	},
	{
		"name": "F2",
		"midi": 41,
		"time": 70.82500000000037,
		"velocity": 0.6771653543307087,
		"duration": 0.5799999999999841
	},
	{
		"name": "G3",
		"midi": 55,
		"time": 70.83000000000037,
		"velocity": 0.5984251968503937,
		"duration": 0.28000000000000114
	},
	{
		"name": "F3",
		"midi": 53,
		"time": 70.83000000000037,
		"velocity": 0.6771653543307087,
		"duration": 0.5799999999999841
	},
	{
		"name": "C4",
		"midi": 60,
		"time": 70.83500000000036,
		"velocity": 0.6771653543307087,
		"duration": 0.28000000000000114
	},
	{
		"name": "C4",
		"midi": 60,
		"time": 71.11500000000036,
		"velocity": 0.6771653543307087,
		"duration": 0.28000000000000114
	},
	{
		"name": "G3",
		"midi": 55,
		"time": 71.12500000000037,
		"velocity": 0.5984251968503937,
		"duration": 0.2849999999999824
	},
	{
		"name": "F2",
		"midi": 41,
		"time": 71.41000000000035,
		"velocity": 0.5984251968503937,
		"duration": 0.5800000000000125
	},
	{
		"name": "F4",
		"midi": 65,
		"time": 71.42000000000036,
		"velocity": 0.5354330708661418,
		"duration": 0.5799999999999983
	},
	{
		"name": "G3",
		"midi": 55,
		"time": 71.42000000000036,
		"velocity": 0.5984251968503937,
		"duration": 0.2849999999999966
	},
	{
		"name": "C3",
		"midi": 48,
		"time": 71.42000000000036,
		"velocity": 0.5984251968503937,
		"duration": 0.5799999999999983
	},
	{
		"name": "G4",
		"midi": 67,
		"time": 71.42000000000036,
		"velocity": 0.6771653543307087,
		"duration": 0.5799999999999983
	},
	{
		"name": "F3",
		"midi": 53,
		"time": 71.42500000000035,
		"velocity": 0.6771653543307087,
		"duration": 0.5799999999999983
	},
	{
		"name": "C4",
		"midi": 60,
		"time": 71.43500000000036,
		"velocity": 0.5984251968503937,
		"duration": 0.28000000000000114
	},
	{
		"name": "C4",
		"midi": 60,
		"time": 71.71500000000036,
		"velocity": 0.5984251968503937,
		"duration": 0.28000000000000114
	},
	{
		"name": "G3",
		"midi": 55,
		"time": 71.72500000000036,
		"velocity": 0.5984251968503937,
		"duration": 0.29999999999998295
	},
	{
		"name": "D4",
		"midi": 62,
		"time": 71.99500000000036,
		"velocity": 0.6771653543307087,
		"duration": 0.5799999999999841
	},
	{
		"name": "A#4",
		"midi": 70,
		"time": 72.00500000000035,
		"velocity": 0.6771653543307087,
		"duration": 0.5799999999999841
	},
	{
		"name": "A#2",
		"midi": 46,
		"time": 72.00500000000035,
		"velocity": 0.6771653543307087,
		"duration": 0.5799999999999841
	},
	{
		"name": "A#3",
		"midi": 58,
		"time": 72.00500000000035,
		"velocity": 0.6771653543307087,
		"duration": 0.28999999999999204
	},
	{
		"name": "F3",
		"midi": 53,
		"time": 72.01000000000035,
		"velocity": 0.6771653543307087,
		"duration": 0.28000000000000114
	},
	{
		"name": "F3",
		"midi": 53,
		"time": 72.30000000000034,
		"velocity": 0.5196850393700787,
		"duration": 0.28000000000000114
	},
	{
		"name": "A#2",
		"midi": 46,
		"time": 72.58500000000033,
		"velocity": 0.5984251968503937,
		"duration": 0.5799999999999983
	},
	{
		"name": "A#3",
		"midi": 58,
		"time": 72.59500000000034,
		"velocity": 0.5984251968503937,
		"duration": 0.28999999999999204
	},
	{
		"name": "F3",
		"midi": 53,
		"time": 72.60000000000034,
		"velocity": 0.5984251968503937,
		"duration": 0.29999999999999716
	},
	{
		"name": "A#4",
		"midi": 70,
		"time": 72.60500000000033,
		"velocity": 0.6771653543307087,
		"duration": 0.5799999999999983
	},
	{
		"name": "D4",
		"midi": 62,
		"time": 72.61000000000033,
		"velocity": 0.5984251968503937,
		"duration": 0.5799999999999983
	},
	{
		"name": "F3",
		"midi": 53,
		"time": 72.90000000000033,
		"velocity": 0.5984251968503937,
		"duration": 0.29999999999999716
	},
	{
		"name": "A#2",
		"midi": 46,
		"time": 73.20000000000033,
		"velocity": 0.6771653543307087,
		"duration": 0.5799999999999841
	},
	{
		"name": "A#4",
		"midi": 70,
		"time": 73.20500000000033,
		"velocity": 0.6771653543307087,
		"duration": 0.5799999999999841
	},
	{
		"name": "A#3",
		"midi": 58,
		"time": 73.21000000000032,
		"velocity": 0.6771653543307087,
		"duration": 0.28999999999999204
	},
	{
		"name": "F3",
		"midi": 53,
		"time": 73.21000000000032,
		"velocity": 0.6771653543307087,
		"duration": 0.2749999999999915
	},
	{
		"name": "D4",
		"midi": 62,
		"time": 73.21500000000032,
		"velocity": 0.6771653543307087,
		"duration": 0.5799999999999983
	},
	{
		"name": "F3",
		"midi": 53,
		"time": 73.50000000000031,
		"velocity": 0.5196850393700787,
		"duration": 0.2750000000000057
	},
	{
		"name": "A#2",
		"midi": 46,
		"time": 73.78500000000031,
		"velocity": 0.5984251968503937,
		"duration": 0.5799999999999983
	},
	{
		"name": "A#4",
		"midi": 70,
		"time": 73.80500000000032,
		"velocity": 0.6771653543307087,
		"duration": 0.5799999999999841
	},
	{
		"name": "F3",
		"midi": 53,
		"time": 73.81000000000031,
		"velocity": 0.5984251968503937,
		"duration": 0.2749999999999915
	},
	{
		"name": "A#3",
		"midi": 58,
		"time": 73.81000000000031,
		"velocity": 0.5984251968503937,
		"duration": 0.28999999999999204
	},
	{
		"name": "D4",
		"midi": 62,
		"time": 73.81500000000031,
		"velocity": 0.5984251968503937,
		"duration": 0.5799999999999983
	},
	{
		"name": "F3",
		"midi": 53,
		"time": 74.11000000000031,
		"velocity": 0.5984251968503937,
		"duration": 0.2749999999999915
	},
	{
		"name": "D4",
		"midi": 62,
		"time": 74.40500000000031,
		"velocity": 0.6771653543307087,
		"duration": 0.5799999999999983
	},
	{
		"name": "A#4",
		"midi": 70,
		"time": 74.41500000000032,
		"velocity": 0.6771653543307087,
		"duration": 0.5799999999999841
	},
	{
		"name": "A#2",
		"midi": 46,
		"time": 74.41500000000032,
		"velocity": 0.6771653543307087,
		"duration": 0.5799999999999841
	},
	{
		"name": "A#3",
		"midi": 58,
		"time": 74.41500000000032,
		"velocity": 0.6771653543307087,
		"duration": 0.28999999999999204
	},
	{
		"name": "F3",
		"midi": 53,
		"time": 74.42000000000031,
		"velocity": 0.6771653543307087,
		"duration": 0.28000000000000114
	},
	{
		"name": "F3",
		"midi": 53,
		"time": 74.7100000000003,
		"velocity": 0.5196850393700787,
		"duration": 0.28000000000000114
	},
	{
		"name": "A#3",
		"midi": 58,
		"time": 74.7250000000003,
		"velocity": 0.4566929133858268,
		"duration": 0.28999999999999204
	},
	{
		"name": "A#2",
		"midi": 46,
		"time": 74.9950000000003,
		"velocity": 0.5984251968503937,
		"duration": 0.5799999999999983
	},
	{
		"name": "A#3",
		"midi": 58,
		"time": 75.00500000000031,
		"velocity": 0.5984251968503937,
		"duration": 0.28999999999999204
	},
	{
		"name": "F3",
		"midi": 53,
		"time": 75.0100000000003,
		"velocity": 0.5984251968503937,
		"duration": 0.5799999999999983
	},
	{
		"name": "A#4",
		"midi": 70,
		"time": 75.0150000000003,
		"velocity": 0.6771653543307087,
		"duration": 0.5799999999999983
	},
	{
		"name": "D4",
		"midi": 62,
		"time": 75.0200000000003,
		"velocity": 0.5984251968503937,
		"duration": 0.5799999999999983
	},
	{
		"name": "A#3",
		"midi": 58,
		"time": 75.3150000000003,
		"velocity": 0.5039370078740157,
		"duration": 0.28999999999999204
	},
	{
		"name": "A#2",
		"midi": 46,
		"time": 75.61000000000028,
		"velocity": 0.6771653543307087,
		"duration": 0.5799999999999841
	},
	{
		"name": "A#4",
		"midi": 70,
		"time": 75.61500000000028,
		"velocity": 0.6771653543307087,
		"duration": 0.5799999999999841
	},
	{
		"name": "A#3",
		"midi": 58,
		"time": 75.62000000000027,
		"velocity": 0.6771653543307087,
		"duration": 0.28999999999999204
	},
	{
		"name": "F3",
		"midi": 53,
		"time": 75.62000000000027,
		"velocity": 0.6771653543307087,
		"duration": 0.2749999999999915
	},
	{
		"name": "D4",
		"midi": 62,
		"time": 75.62500000000027,
		"velocity": 0.6771653543307087,
		"duration": 0.5799999999999841
	},
	{
		"name": "A#3",
		"midi": 58,
		"time": 75.91000000000027,
		"velocity": 0.4566929133858268,
		"duration": 0.28999999999999204
	},
	{
		"name": "F3",
		"midi": 53,
		"time": 75.91000000000027,
		"velocity": 0.5196850393700787,
		"duration": 0.2750000000000057
	},
	{
		"name": "A#2",
		"midi": 46,
		"time": 76.19500000000026,
		"velocity": 0.5984251968503937,
		"duration": 0.8899999999999579
	},
	{
		"name": "A#4",
		"midi": 70,
		"time": 76.21500000000026,
		"velocity": 0.6771653543307087,
		"duration": 0.8699999999999619
	},
	{
		"name": "F3",
		"midi": 53,
		"time": 76.22000000000025,
		"velocity": 0.5984251968503937,
		"duration": 0.5799999999999841
	},
	{
		"name": "A#3",
		"midi": 58,
		"time": 76.22000000000025,
		"velocity": 0.5984251968503937,
		"duration": 0.28999999999999204
	},
	{
		"name": "D4",
		"midi": 62,
		"time": 76.22500000000025,
		"velocity": 0.5984251968503937,
		"duration": 0.839999999999975
	},
	{
		"name": "A#3",
		"midi": 58,
		"time": 76.51500000000024,
		"velocity": 0.8267716535433071,
		"duration": 0.28999999999999204
	},
	{
		"name": "A4",
		"midi": 69,
		"time": 76.81000000000023,
		"velocity": 0.6771653543307087,
		"duration": 0.5799999999999983
	},
	{
		"name": "A3",
		"midi": 57,
		"time": 76.81000000000023,
		"velocity": 0.6771653543307087,
		"duration": 0.28999999999999204
	},
	{
		"name": "F3",
		"midi": 53,
		"time": 76.81500000000023,
		"velocity": 0.6771653543307087,
		"duration": 0.3050000000000068
	},
	{
		"name": "F2",
		"midi": 41,
		"time": 76.81500000000023,
		"velocity": 0.6771653543307087,
		"duration": 0.5799999999999983
	},
	{
		"name": "F4",
		"midi": 65,
		"time": 76.81500000000023,
		"velocity": 0.48031496062992124,
		"duration": 0.5799999999999983
	},
	{
		"name": "C4",
		"midi": 60,
		"time": 76.82000000000022,
		"velocity": 0.6771653543307087,
		"duration": 0.5799999999999983
	},
	{
		"name": "C3",
		"midi": 48,
		"time": 77.10000000000022,
		"velocity": 0.6771653543307087,
		"duration": 0.3049999999999926
	},
	{
		"name": "F3",
		"midi": 53,
		"time": 77.11000000000023,
		"velocity": 0.6771653543307087,
		"duration": 0.3049999999999784
	},
	{
		"name": "A3",
		"midi": 57,
		"time": 77.12000000000023,
		"velocity": 0.5748031496062992,
		"duration": 0.28999999999997783
	},
	{
		"name": "F2",
		"midi": 41,
		"time": 77.39500000000022,
		"velocity": 0.5984251968503937,
		"duration": 0.5799999999999841
	},
	{
		"name": "A3",
		"midi": 57,
		"time": 77.40000000000022,
		"velocity": 0.5984251968503937,
		"duration": 0.28999999999999204
	},
	{
		"name": "F4",
		"midi": 65,
		"time": 77.40500000000021,
		"velocity": 0.4251968503937008,
		"duration": 0.5799999999999983
	},
	{
		"name": "C4",
		"midi": 60,
		"time": 77.41000000000021,
		"velocity": 0.5984251968503937,
		"duration": 0.5799999999999983
	},
	{
		"name": "A4",
		"midi": 69,
		"time": 77.41000000000021,
		"velocity": 0.6771653543307087,
		"duration": 0.5799999999999983
	},
	{
		"name": "F3",
		"midi": 53,
		"time": 77.41000000000021,
		"velocity": 0.5984251968503937,
		"duration": 0.29999999999999716
	},
	{
		"name": "C3",
		"midi": 48,
		"time": 77.6950000000002,
		"velocity": 0.6771653543307087,
		"duration": 0.3050000000000068
	},
	{
		"name": "F3",
		"midi": 53,
		"time": 77.7100000000002,
		"velocity": 0.5984251968503937,
		"duration": 0.30000000000001137
	},
	{
		"name": "A3",
		"midi": 57,
		"time": 77.7100000000002,
		"velocity": 0.6299212598425197,
		"duration": 0.29000000000000625
	},
	{
		"name": "F2",
		"midi": 41,
		"time": 78.01000000000022,
		"velocity": 0.6771653543307087,
		"duration": 0.5799999999999841
	},
	{
		"name": "A4",
		"midi": 69,
		"time": 78.01000000000022,
		"velocity": 0.7874015748031497,
		"duration": 0.5799999999999841
	},
	{
		"name": "F3",
		"midi": 53,
		"time": 78.01000000000022,
		"velocity": 0.6771653543307087,
		"duration": 0.29999999999998295
	},
	{
		"name": "F4",
		"midi": 65,
		"time": 78.01500000000021,
		"velocity": 0.48031496062992124,
		"duration": 0.5799999999999841
	},
	{
		"name": "A3",
		"midi": 57,
		"time": 78.01500000000021,
		"velocity": 0.6771653543307087,
		"duration": 0.28999999999999204
	},
	{
		"name": "C4",
		"midi": 60,
		"time": 78.02000000000021,
		"velocity": 0.6771653543307087,
		"duration": 0.5799999999999841
	},
	{
		"name": "C3",
		"midi": 48,
		"time": 78.3050000000002,
		"velocity": 0.6771653543307087,
		"duration": 0.3049999999999926
	},
	{
		"name": "A3",
		"midi": 57,
		"time": 78.3050000000002,
		"velocity": 0.5748031496062992,
		"duration": 0.28999999999999204
	},
	{
		"name": "F3",
		"midi": 53,
		"time": 78.3100000000002,
		"velocity": 0.5984251968503937,
		"duration": 0.29999999999999716
	},
	{
		"name": "F2",
		"midi": 41,
		"time": 78.5950000000002,
		"velocity": 0.5984251968503937,
		"duration": 0.5799999999999841
	},
	{
		"name": "A4",
		"midi": 69,
		"time": 78.6100000000002,
		"velocity": 0.6771653543307087,
		"duration": 0.5799999999999841
	},
	{
		"name": "F3",
		"midi": 53,
		"time": 78.6100000000002,
		"velocity": 0.5984251968503937,
		"duration": 0.29999999999998295
	},
	{
		"name": "A3",
		"midi": 57,
		"time": 78.6150000000002,
		"velocity": 0.5984251968503937,
		"duration": 0.28999999999999204
	},
	{
		"name": "F4",
		"midi": 65,
		"time": 78.6150000000002,
		"velocity": 0.4251968503937008,
		"duration": 0.5799999999999841
	},
	{
		"name": "C4",
		"midi": 60,
		"time": 78.62000000000019,
		"velocity": 0.5984251968503937,
		"duration": 0.5799999999999841
	},
	{
		"name": "F3",
		"midi": 53,
		"time": 78.91000000000018,
		"velocity": 0.5984251968503937,
		"duration": 0.29999999999998295
	},
	{
		"name": "A3",
		"midi": 57,
		"time": 78.91000000000018,
		"velocity": 0.6299212598425197,
		"duration": 0.28999999999999204
	},
	{
		"name": "E4",
		"midi": 64,
		"time": 79.20500000000017,
		"velocity": 0.5354330708661418,
		"duration": 0.5799999999999699
	},
	{
		"name": "G3",
		"midi": 55,
		"time": 79.21000000000016,
		"velocity": 0.6771653543307087,
		"duration": 0.3049999999999784
	},
	{
		"name": "G4",
		"midi": 67,
		"time": 79.21500000000016,
		"velocity": 0.6771653543307087,
		"duration": 0.5799999999999841
	},
	{
		"name": "C3",
		"midi": 48,
		"time": 79.21500000000016,
		"velocity": 0.6771653543307087,
		"duration": 0.5799999999999841
	},
	{
		"name": "F3",
		"midi": 53,
		"time": 79.22000000000016,
		"velocity": 0.6771653543307087,
		"duration": 0.5799999999999841
	},
	{
		"name": "F2",
		"midi": 41,
		"time": 79.22500000000015,
		"velocity": 0.6771653543307087,
		"duration": 0.5799999999999841
	},
	{
		"name": "C4",
		"midi": 60,
		"time": 79.23000000000015,
		"velocity": 0.6771653543307087,
		"duration": 0.28000000000000114
	},
	{
		"name": "G3",
		"midi": 55,
		"time": 79.52000000000014,
		"velocity": 0.6771653543307087,
		"duration": 0.3049999999999784
	},
	{
		"name": "C4",
		"midi": 60,
		"time": 79.52000000000014,
		"velocity": 0.6771653543307087,
		"duration": 0.28000000000000114
	},
	{
		"name": "F2",
		"midi": 41,
		"time": 79.80500000000013,
		"velocity": 0.5984251968503937,
		"duration": 0.5799999999999841
	},
	{
		"name": "C3",
		"midi": 48,
		"time": 79.80500000000013,
		"velocity": 0.5984251968503937,
		"duration": 0.5799999999999841
	},
	{
		"name": "E4",
		"midi": 64,
		"time": 79.81000000000013,
		"velocity": 0.5354330708661418,
		"duration": 0.5799999999999841
	},
	{
		"name": "G4",
		"midi": 67,
		"time": 79.81500000000013,
		"velocity": 0.6771653543307087,
		"duration": 0.5799999999999841
	},
	{
		"name": "F3",
		"midi": 53,
		"time": 79.82000000000012,
		"velocity": 0.6771653543307087,
		"duration": 0.5799999999999841
	},
	{
		"name": "C4",
		"midi": 60,
		"time": 79.82000000000012,
		"velocity": 0.5984251968503937,
		"duration": 0.28999999999999204
	},
	{
		"name": "G3",
		"midi": 55,
		"time": 79.83000000000011,
		"velocity": 0.6771653543307087,
		"duration": 0.3050000000000068
	},
	{
		"name": "C4",
		"midi": 60,
		"time": 80.11000000000011,
		"velocity": 0.5984251968503937,
		"duration": 0.28999999999999204
	},
	{
		"name": "G3",
		"midi": 55,
		"time": 80.12000000000012,
		"velocity": 0.5984251968503937,
		"duration": 0.2799999999999869
	},
	{
		"name": "D4",
		"midi": 62,
		"time": 80.4150000000001,
		"velocity": 0.5354330708661418,
		"duration": 0.5799999999999841
	},
	{
		"name": "C3",
		"midi": 48,
		"time": 80.4150000000001,
		"velocity": 0.6771653543307087,
		"duration": 0.5799999999999841
	},
	{
		"name": "G4",
		"midi": 67,
		"time": 80.4150000000001,
		"velocity": 0.6771653543307087,
		"duration": 0.5799999999999841
	},
	{
		"name": "F2",
		"midi": 41,
		"time": 80.4200000000001,
		"velocity": 0.6771653543307087,
		"duration": 0.5799999999999841
	},
	{
		"name": "A3",
		"midi": 57,
		"time": 80.4250000000001,
		"velocity": 0.5984251968503937,
		"duration": 0.28000000000000114
	},
	{
		"name": "F3",
		"midi": 53,
		"time": 80.4250000000001,
		"velocity": 0.6771653543307087,
		"duration": 0.5799999999999841
	},
	{
		"name": "C4",
		"midi": 60,
		"time": 80.43000000000009,
		"velocity": 0.6771653543307087,
		"duration": 0.28000000000000114
	},
	{
		"name": "C4",
		"midi": 60,
		"time": 80.7100000000001,
		"velocity": 0.6771653543307087,
		"duration": 0.28000000000000114
	},
	{
		"name": "A3",
		"midi": 57,
		"time": 80.7200000000001,
		"velocity": 0.5984251968503937,
		"duration": 0.2849999999999824
	},
	{
		"name": "F2",
		"midi": 41,
		"time": 81.00500000000008,
		"velocity": 0.5984251968503937,
		"duration": 0.5800000000000125
	},
	{
		"name": "D4",
		"midi": 62,
		"time": 81.01500000000009,
		"velocity": 0.5354330708661418,
		"duration": 0.5799999999999983
	},
	{
		"name": "A3",
		"midi": 57,
		"time": 81.01500000000009,
		"velocity": 0.5984251968503937,
		"duration": 0.2849999999999966
	},
	{
		"name": "C3",
		"midi": 48,
		"time": 81.01500000000009,
		"velocity": 0.5984251968503937,
		"duration": 0.5799999999999983
	},
	{
		"name": "G4",
		"midi": 67,
		"time": 81.01500000000009,
		"velocity": 0.6771653543307087,
		"duration": 0.5799999999999983
	},
	{
		"name": "F3",
		"midi": 53,
		"time": 81.02000000000008,
		"velocity": 0.6771653543307087,
		"duration": 0.5799999999999983
	},
	{
		"name": "C4",
		"midi": 60,
		"time": 81.03000000000009,
		"velocity": 0.5984251968503937,
		"duration": 0.28000000000000114
	},
	{
		"name": "C4",
		"midi": 60,
		"time": 81.31000000000009,
		"velocity": 0.5984251968503937,
		"duration": 0.28000000000000114
	},
	{
		"name": "A3",
		"midi": 57,
		"time": 81.32000000000009,
		"velocity": 0.5984251968503937,
		"duration": 0.2799999999999869
	},
	{
		"name": "G2",
		"midi": 43,
		"time": 81.60000000000008,
		"velocity": 0.5196850393700787,
		"duration": 0.28000000000000114
	},
	{
		"name": "E4",
		"midi": 64,
		"time": 81.60000000000008,
		"velocity": 0.6771653543307087,
		"duration": 0.5799999999999983
	},
	{
		"name": "E3",
		"midi": 52,
		"time": 81.60000000000008,
		"velocity": 0.6771653543307087,
		"duration": 0.28000000000000114
	},
	{
		"name": "C3",
		"midi": 48,
		"time": 81.60000000000008,
		"velocity": 0.6771653543307087,
		"duration": 0.29999999999999716
	},
	{
		"name": "G3",
		"midi": 55,
		"time": 81.60000000000008,
		"velocity": 0.6771653543307087,
		"duration": 0.28000000000000114
	},
	{
		"name": "G4",
		"midi": 67,
		"time": 81.60500000000008,
		"velocity": 0.6771653543307087,
		"duration": 0.5799999999999983
	},
	{
		"name": "C4",
		"midi": 60,
		"time": 81.62000000000008,
		"velocity": 0.6771653543307087,
		"duration": 0.28000000000000114
	},
	{
		"name": "C3",
		"midi": 48,
		"time": 81.90000000000008,
		"velocity": 0.4881889763779528,
		"duration": 0.29999999999998295
	},
	{
		"name": "G3",
		"midi": 55,
		"time": 81.90500000000007,
		"velocity": 0.4881889763779528,
		"duration": 0.28000000000000114
	},
	{
		"name": "E3",
		"midi": 52,
		"time": 81.90500000000007,
		"velocity": 0.4881889763779528,
		"duration": 0.28000000000000114
	},
	{
		"name": "C3",
		"midi": 48,
		"time": 82.19000000000007,
		"velocity": 0.5984251968503937,
		"duration": 0.5799999999999983
	},
	{
		"name": "C4",
		"midi": 60,
		"time": 82.19500000000006,
		"velocity": 0.6771653543307087,
		"duration": 0.28000000000000114
	},
	{
		"name": "G4",
		"midi": 67,
		"time": 82.20500000000006,
		"velocity": 0.6771653543307087,
		"duration": 0.5800000000000125
	},
	{
		"name": "E3",
		"midi": 52,
		"time": 82.20500000000006,
		"velocity": 0.5984251968503937,
		"duration": 0.30000000000001137
	},
	{
		"name": "G3",
		"midi": 55,
		"time": 82.20500000000006,
		"velocity": 0.5984251968503937,
		"duration": 0.30000000000001137
	},
	{
		"name": "E4",
		"midi": 64,
		"time": 82.21500000000006,
		"velocity": 0.5984251968503937,
		"duration": 0.5800000000000125
	},
	{
		"name": "E3",
		"midi": 52,
		"time": 82.50500000000007,
		"velocity": 0.5984251968503937,
		"duration": 0.30000000000001137
	},
	{
		"name": "G3",
		"midi": 55,
		"time": 82.50500000000007,
		"velocity": 0.5984251968503937,
		"duration": 0.30000000000001137
	},
	{
		"name": "C4",
		"midi": 60,
		"time": 82.79500000000007,
		"velocity": 0.6771653543307087,
		"duration": 0.28000000000000114
	},
	{
		"name": "G4",
		"midi": 67,
		"time": 82.80500000000008,
		"velocity": 0.6771653543307087,
		"duration": 0.5799999999999983
	},
	{
		"name": "C3",
		"midi": 48,
		"time": 82.80500000000008,
		"velocity": 0.6771653543307087,
		"duration": 0.5799999999999983
	},
	{
		"name": "E3",
		"midi": 52,
		"time": 82.81500000000008,
		"velocity": 0.6771653543307087,
		"duration": 0.2749999999999915
	},
	{
		"name": "G3",
		"midi": 55,
		"time": 82.81500000000008,
		"velocity": 0.6771653543307087,
		"duration": 0.2749999999999915
	},
	{
		"name": "E4",
		"midi": 64,
		"time": 82.82000000000008,
		"velocity": 0.6771653543307087,
		"duration": 0.5799999999999983
	},
	{
		"name": "G3",
		"midi": 55,
		"time": 83.10500000000008,
		"velocity": 0.5196850393700787,
		"duration": 0.2750000000000057
	},
	{
		"name": "E3",
		"midi": 52,
		"time": 83.10500000000008,
		"velocity": 0.5196850393700787,
		"duration": 0.2750000000000057
	},
	{
		"name": "C3",
		"midi": 48,
		"time": 83.39000000000007,
		"velocity": 0.5984251968503937,
		"duration": 0.5800000000000125
	},
	{
		"name": "C4",
		"midi": 60,
		"time": 83.40000000000008,
		"velocity": 0.6771653543307087,
		"duration": 0.28000000000000114
	},
	{
		"name": "G4",
		"midi": 67,
		"time": 83.40500000000007,
		"velocity": 0.6771653543307087,
		"duration": 0.5800000000000125
	},
	{
		"name": "E3",
		"midi": 52,
		"time": 83.41500000000008,
		"velocity": 0.5984251968503937,
		"duration": 0.2750000000000057
	},
	{
		"name": "G3",
		"midi": 55,
		"time": 83.41500000000008,
		"velocity": 0.5984251968503937,
		"duration": 0.2750000000000057
	},
	{
		"name": "E4",
		"midi": 64,
		"time": 83.42000000000007,
		"velocity": 0.5984251968503937,
		"duration": 0.5800000000000125
	},
	{
		"name": "D4",
		"midi": 62,
		"time": 83.71500000000009,
		"velocity": 0.5984251968503937,
		"duration": 0.2749999999999915
	},
	{
		"name": "E3",
		"midi": 52,
		"time": 83.71500000000009,
		"velocity": 0.5984251968503937,
		"duration": 0.2749999999999915
	},
	{
		"name": "C4",
		"midi": 60,
		"time": 84.00500000000008,
		"velocity": 0.6771653543307087,
		"duration": 0.2799999999999869
	},
	{
		"name": "E4",
		"midi": 64,
		"time": 84.01000000000008,
		"velocity": 0.6771653543307087,
		"duration": 0.5799999999999983
	},
	{
		"name": "G4",
		"midi": 67,
		"time": 84.01500000000007,
		"velocity": 0.6771653543307087,
		"duration": 0.5799999999999983
	},
	{
		"name": "C3",
		"midi": 48,
		"time": 84.02000000000007,
		"velocity": 0.6771653543307087,
		"duration": 0.5799999999999983
	},
	{
		"name": "G3",
		"midi": 55,
		"time": 84.02500000000006,
		"velocity": 0.6771653543307087,
		"duration": 0.28000000000000114
	},
	{
		"name": "E3",
		"midi": 52,
		"time": 84.02500000000006,
		"velocity": 0.6771653543307087,
		"duration": 0.28000000000000114
	},
	{
		"name": "E3",
		"midi": 52,
		"time": 84.31500000000007,
		"velocity": 0.5196850393700787,
		"duration": 0.28000000000000114
	},
	{
		"name": "G3",
		"midi": 55,
		"time": 84.31500000000007,
		"velocity": 0.5196850393700787,
		"duration": 0.28000000000000114
	},
	{
		"name": "C4",
		"midi": 60,
		"time": 84.60000000000007,
		"velocity": 0.6771653543307087,
		"duration": 0.28000000000000114
	},
	{
		"name": "C3",
		"midi": 48,
		"time": 84.60000000000007,
		"velocity": 0.5984251968503937,
		"duration": 0.5799999999999983
	},
	{
		"name": "E3",
		"midi": 52,
		"time": 84.61500000000007,
		"velocity": 0.5984251968503937,
		"duration": 0.5799999999999983
	},
	{
		"name": "G4",
		"midi": 67,
		"time": 84.61500000000007,
		"velocity": 0.6771653543307087,
		"duration": 0.5799999999999983
	},
	{
		"name": "G3",
		"midi": 55,
		"time": 84.61500000000007,
		"velocity": 0.5984251968503937,
		"duration": 0.29000000000000625
	},
	{
		"name": "E4",
		"midi": 64,
		"time": 84.62500000000007,
		"velocity": 0.5984251968503937,
		"duration": 0.5799999999999983
	},
	{
		"name": "G3",
		"midi": 55,
		"time": 84.91000000000007,
		"velocity": 0.5984251968503937,
		"duration": 0.3049999999999926
	},
	{
		"name": "C4",
		"midi": 60,
		"time": 85.21000000000006,
		"velocity": 0.6771653543307087,
		"duration": 0.28000000000000114
	},
	{
		"name": "G4",
		"midi": 67,
		"time": 85.21500000000006,
		"velocity": 0.6771653543307087,
		"duration": 0.5800000000000125
	},
	{
		"name": "C3",
		"midi": 48,
		"time": 85.21500000000006,
		"velocity": 0.6771653543307087,
		"duration": 0.5800000000000125
	},
	{
		"name": "E3",
		"midi": 52,
		"time": 85.22500000000007,
		"velocity": 0.6771653543307087,
		"duration": 0.2750000000000057
	},
	{
		"name": "G3",
		"midi": 55,
		"time": 85.22500000000007,
		"velocity": 0.6771653543307087,
		"duration": 0.2750000000000057
	},
	{
		"name": "E4",
		"midi": 64,
		"time": 85.23000000000006,
		"velocity": 0.6771653543307087,
		"duration": 0.5800000000000125
	},
	{
		"name": "E3",
		"midi": 52,
		"time": 85.51500000000007,
		"velocity": 0.5196850393700787,
		"duration": 0.2750000000000057
	},
	{
		"name": "G3",
		"midi": 55,
		"time": 85.51500000000007,
		"velocity": 0.5196850393700787,
		"duration": 0.2750000000000057
	},
	{
		"name": "A#4",
		"midi": 70,
		"time": 85.80000000000007,
		"velocity": 0.6771653543307087,
		"duration": 0.5800000000000125
	},
	{
		"name": "E5",
		"midi": 76,
		"time": 85.80000000000007,
		"velocity": 0.6771653543307087,
		"duration": 0.5800000000000125
	},
	{
		"name": "C3",
		"midi": 48,
		"time": 85.80000000000007,
		"velocity": 0.5984251968503937,
		"duration": 0.6000000000000085
	},
	{
		"name": "C4",
		"midi": 60,
		"time": 85.81000000000007,
		"velocity": 0.6771653543307087,
		"duration": 0.28000000000000114
	},
	{
		"name": "G4",
		"midi": 67,
		"time": 85.81500000000007,
		"velocity": 0.6771653543307087,
		"duration": 0.5800000000000125
	},
	{
		"name": "E3",
		"midi": 52,
		"time": 85.82500000000007,
		"velocity": 0.5984251968503937,
		"duration": 0.5799999999999983
	},
	{
		"name": "G3",
		"midi": 55,
		"time": 85.82500000000007,
		"velocity": 0.5984251968503937,
		"duration": 0.5799999999999983
	},
	{
		"name": "E4",
		"midi": 64,
		"time": 85.83000000000007,
		"velocity": 0.5984251968503937,
		"duration": 0.5700000000000074
	},
	{
		"name": "F2",
		"midi": 41,
		"time": 86.40000000000008,
		"velocity": 0.5196850393700787,
		"duration": 0.28000000000000114
	},
	{
		"name": "C3",
		"midi": 48,
		"time": 86.40000000000008,
		"velocity": 0.6771653543307087,
		"duration": 0.29999999999999716
	},
	{
		"name": "F4",
		"midi": 65,
		"time": 86.40000000000008,
		"velocity": 0.6771653543307087,
		"duration": 0.5799999999999983
	},
	{
		"name": "A3",
		"midi": 57,
		"time": 86.40000000000008,
		"velocity": 0.6771653543307087,
		"duration": 0.28000000000000114
	},
	{
		"name": "F3",
		"midi": 53,
		"time": 86.40000000000008,
		"velocity": 0.6771653543307087,
		"duration": 0.28000000000000114
	},
	{
		"name": "A4",
		"midi": 69,
		"time": 86.41500000000008,
		"velocity": 0.6771653543307087,
		"duration": 0.5799999999999841
	},
	{
		"name": "C4",
		"midi": 60,
		"time": 86.42000000000007,
		"velocity": 0.6771653543307087,
		"duration": 0.28000000000000114
	},
	{
		"name": "C3",
		"midi": 48,
		"time": 86.70000000000007,
		"velocity": 0.4881889763779528,
		"duration": 0.29999999999998295
	},
	{
		"name": "F3",
		"midi": 53,
		"time": 86.70500000000007,
		"velocity": 0.4881889763779528,
		"duration": 0.28000000000000114
	},
	{
		"name": "A3",
		"midi": 57,
		"time": 86.70500000000007,
		"velocity": 0.4881889763779528,
		"duration": 0.28000000000000114
	},
	{
		"name": "C3",
		"midi": 48,
		"time": 86.99000000000007,
		"velocity": 0.5984251968503937,
		"duration": 0.5799999999999983
	},
	{
		"name": "C4",
		"midi": 60,
		"time": 86.99500000000006,
		"velocity": 0.6771653543307087,
		"duration": 0.28000000000000114
	},
	{
		"name": "F2",
		"midi": 41,
		"time": 87.00000000000006,
		"velocity": 0.5196850393700787,
		"duration": 0.28000000000000114
	},
	{
		"name": "A3",
		"midi": 57,
		"time": 87.00500000000005,
		"velocity": 0.5984251968503937,
		"duration": 0.30000000000001137
	},
	{
		"name": "F3",
		"midi": 53,
		"time": 87.00500000000005,
		"velocity": 0.5984251968503937,
		"duration": 0.30000000000001137
	},
	{
		"name": "A4",
		"midi": 69,
		"time": 87.01500000000006,
		"velocity": 0.6771653543307087,
		"duration": 0.5800000000000125
	},
	{
		"name": "F4",
		"midi": 65,
		"time": 87.01500000000006,
		"velocity": 0.5984251968503937,
		"duration": 0.5800000000000125
	},
	{
		"name": "F3",
		"midi": 53,
		"time": 87.30500000000006,
		"velocity": 0.5984251968503937,
		"duration": 0.29999999999999716
	},
	{
		"name": "A3",
		"midi": 57,
		"time": 87.30500000000006,
		"velocity": 0.5984251968503937,
		"duration": 0.29999999999999716
	},
	{
		"name": "C4",
		"midi": 60,
		"time": 87.59500000000007,
		"velocity": 0.6771653543307087,
		"duration": 0.2799999999999869
	},
	{
		"name": "F2",
		"midi": 41,
		"time": 87.60000000000007,
		"velocity": 0.5196850393700787,
		"duration": 0.2799999999999869
	},
	{
		"name": "C3",
		"midi": 48,
		"time": 87.60500000000006,
		"velocity": 0.6771653543307087,
		"duration": 0.5799999999999983
	},
	{
		"name": "A4",
		"midi": 69,
		"time": 87.61500000000007,
		"velocity": 0.6771653543307087,
		"duration": 0.5799999999999841
	},
	{
		"name": "F3",
		"midi": 53,
		"time": 87.61500000000007,
		"velocity": 0.6771653543307087,
		"duration": 0.2749999999999915
	},
	{
		"name": "A3",
		"midi": 57,
		"time": 87.61500000000007,
		"velocity": 0.6771653543307087,
		"duration": 0.2749999999999915
	},
	{
		"name": "F4",
		"midi": 65,
		"time": 87.62000000000006,
		"velocity": 0.6771653543307087,
		"duration": 0.5799999999999841
	},
	{
		"name": "F3",
		"midi": 53,
		"time": 87.90500000000006,
		"velocity": 0.5196850393700787,
		"duration": 0.2750000000000057
	},
	{
		"name": "A3",
		"midi": 57,
		"time": 87.90500000000006,
		"velocity": 0.5196850393700787,
		"duration": 0.2750000000000057
	},
	{
		"name": "C3",
		"midi": 48,
		"time": 88.19000000000005,
		"velocity": 0.5984251968503937,
		"duration": 0.5799999999999983
	},
	{
		"name": "A4",
		"midi": 69,
		"time": 88.20000000000005,
		"velocity": 0.6771653543307087,
		"duration": 0.5800000000000125
	},
	{
		"name": "F2",
		"midi": 41,
		"time": 88.20000000000005,
		"velocity": 0.5196850393700787,
		"duration": 0.28000000000000114
	},
	{
		"name": "C4",
		"midi": 60,
		"time": 88.20000000000005,
		"velocity": 0.6771653543307087,
		"duration": 0.28000000000000114
	},
	{
		"name": "A3",
		"midi": 57,
		"time": 88.21500000000005,
		"velocity": 0.5984251968503937,
		"duration": 0.2750000000000057
	},
	{
		"name": "F3",
		"midi": 53,
		"time": 88.21500000000005,
		"velocity": 0.5984251968503937,
		"duration": 0.2750000000000057
	},
	{
		"name": "F4",
		"midi": 65,
		"time": 88.22000000000004,
		"velocity": 0.5984251968503937,
		"duration": 0.5800000000000267
	},
	{
		"name": "F3",
		"midi": 53,
		"time": 88.51500000000006,
		"velocity": 0.5984251968503937,
		"duration": 0.2750000000000057
	},
	{
		"name": "F4",
		"midi": 65,
		"time": 88.80000000000007,
		"velocity": 0.6771653543307087,
		"duration": 0.5799999999999983
	},
	{
		"name": "F3",
		"midi": 53,
		"time": 88.80000000000007,
		"velocity": 0.6771653543307087,
		"duration": 0.28000000000000114
	},
	{
		"name": "D4",
		"midi": 62,
		"time": 88.80000000000007,
		"velocity": 0.6771653543307087,
		"duration": 0.28000000000000114
	},
	{
		"name": "A#3",
		"midi": 58,
		"time": 88.80000000000007,
		"velocity": 0.6771653543307087,
		"duration": 0.28000000000000114
	},
	{
		"name": "A#2",
		"midi": 46,
		"time": 88.80000000000007,
		"velocity": 0.6771653543307087,
		"duration": 0.29999999999999716
	},
	{
		"name": "A#4",
		"midi": 70,
		"time": 88.82000000000006,
		"velocity": 0.6771653543307087,
		"duration": 0.5799999999999983
	},
	{
		"name": "A#2",
		"midi": 46,
		"time": 89.10000000000007,
		"velocity": 0.4881889763779528,
		"duration": 0.29999999999999716
	},
	{
		"name": "F3",
		"midi": 53,
		"time": 89.10500000000006,
		"velocity": 0.4881889763779528,
		"duration": 0.28000000000000114
	},
	{
		"name": "A#3",
		"midi": 58,
		"time": 89.10500000000006,
		"velocity": 0.4881889763779528,
		"duration": 0.28000000000000114
	},
	{
		"name": "D4",
		"midi": 62,
		"time": 89.38000000000007,
		"velocity": 0.6771653543307087,
		"duration": 0.28000000000000114
	},
	{
		"name": "A#2",
		"midi": 46,
		"time": 89.39000000000006,
		"velocity": 0.5984251968503937,
		"duration": 0.5800000000000125
	},
	{
		"name": "A#3",
		"midi": 58,
		"time": 89.40500000000006,
		"velocity": 0.5984251968503937,
		"duration": 0.30000000000001137
	},
	{
		"name": "F3",
		"midi": 53,
		"time": 89.40500000000006,
		"velocity": 0.5984251968503937,
		"duration": 0.30000000000001137
	},
	{
		"name": "F4",
		"midi": 65,
		"time": 89.41500000000006,
		"velocity": 0.5984251968503937,
		"duration": 0.5800000000000125
	},
	{
		"name": "A#4",
		"midi": 70,
		"time": 89.43000000000006,
		"velocity": 0.6771653543307087,
		"duration": 0.5800000000000125
	},
	{
		"name": "F3",
		"midi": 53,
		"time": 89.70500000000007,
		"velocity": 0.5984251968503937,
		"duration": 0.30000000000001137
	},
	{
		"name": "A#3",
		"midi": 58,
		"time": 89.70500000000007,
		"velocity": 0.5984251968503937,
		"duration": 0.30000000000001137
	},
	{
		"name": "D4",
		"midi": 62,
		"time": 89.98000000000008,
		"velocity": 0.6771653543307087,
		"duration": 0.2799999999999869
	},
	{
		"name": "A#2",
		"midi": 46,
		"time": 90.00500000000008,
		"velocity": 0.6771653543307087,
		"duration": 0.5799999999999841
	},
	{
		"name": "F3",
		"midi": 53,
		"time": 90.01500000000007,
		"velocity": 0.6771653543307087,
		"duration": 0.2749999999999915
	},
	{
		"name": "A#3",
		"midi": 58,
		"time": 90.01500000000007,
		"velocity": 0.6771653543307087,
		"duration": 0.2749999999999915
	},
	{
		"name": "F4",
		"midi": 65,
		"time": 90.02000000000007,
		"velocity": 0.6771653543307087,
		"duration": 0.5799999999999983
	},
	{
		"name": "A#4",
		"midi": 70,
		"time": 90.03500000000007,
		"velocity": 0.6771653543307087,
		"duration": 0.5799999999999983
	},
	{
		"name": "A#3",
		"midi": 58,
		"time": 90.30500000000006,
		"velocity": 0.5196850393700787,
		"duration": 0.2750000000000057
	},
	{
		"name": "F3",
		"midi": 53,
		"time": 90.30500000000006,
		"velocity": 0.5196850393700787,
		"duration": 0.2750000000000057
	},
	{
		"name": "D4",
		"midi": 62,
		"time": 90.58500000000006,
		"velocity": 0.6771653543307087,
		"duration": 0.28000000000000114
	},
	{
		"name": "A#2",
		"midi": 46,
		"time": 90.59000000000006,
		"velocity": 0.5984251968503937,
		"duration": 0.5800000000000125
	},
	{
		"name": "A4",
		"midi": 69,
		"time": 90.60000000000007,
		"velocity": 0.6771653543307087,
		"duration": 0.5800000000000125
	},
	{
		"name": "A#3",
		"midi": 58,
		"time": 90.61500000000007,
		"velocity": 0.5984251968503937,
		"duration": 0.2750000000000057
	},
	{
		"name": "F3",
		"midi": 53,
		"time": 90.61500000000007,
		"velocity": 0.5984251968503937,
		"duration": 0.2750000000000057
	},
	{
		"name": "F4",
		"midi": 65,
		"time": 90.62000000000006,
		"velocity": 0.5984251968503937,
		"duration": 0.5800000000000267
	},
	{
		"name": "F3",
		"midi": 53,
		"time": 90.91500000000008,
		"velocity": 0.5984251968503937,
		"duration": 0.2750000000000057
	},
	{
		"name": "F2",
		"midi": 41,
		"time": 91.20000000000009,
		"velocity": 0.5196850393700787,
		"duration": 0.28000000000000114
	},
	{
		"name": "C3",
		"midi": 48,
		"time": 91.20000000000009,
		"velocity": 0.6771653543307087,
		"duration": 0.29999999999999716
	},
	{
		"name": "F4",
		"midi": 65,
		"time": 91.20000000000009,
		"velocity": 0.6771653543307087,
		"duration": 0.5799999999999983
	},
	{
		"name": "A3",
		"midi": 57,
		"time": 91.20000000000009,
		"velocity": 0.6771653543307087,
		"duration": 0.28000000000000114
	},
	{
		"name": "F3",
		"midi": 53,
		"time": 91.20000000000009,
		"velocity": 0.6771653543307087,
		"duration": 0.28000000000000114
	},
	{
		"name": "A4",
		"midi": 69,
		"time": 91.21500000000009,
		"velocity": 0.6771653543307087,
		"duration": 0.5799999999999841
	},
	{
		"name": "C4",
		"midi": 60,
		"time": 91.22000000000008,
		"velocity": 0.6771653543307087,
		"duration": 0.28000000000000114
	},
	{
		"name": "C3",
		"midi": 48,
		"time": 91.50000000000009,
		"velocity": 0.4881889763779528,
		"duration": 0.29999999999998295
	},
	{
		"name": "F3",
		"midi": 53,
		"time": 91.50500000000008,
		"velocity": 0.4881889763779528,
		"duration": 0.28000000000000114
	},
	{
		"name": "A3",
		"midi": 57,
		"time": 91.50500000000008,
		"velocity": 0.4881889763779528,
		"duration": 0.28000000000000114
	},
	{
		"name": "C3",
		"midi": 48,
		"time": 91.79000000000008,
		"velocity": 0.5984251968503937,
		"duration": 0.5799999999999983
	},
	{
		"name": "C4",
		"midi": 60,
		"time": 91.79500000000007,
		"velocity": 0.6771653543307087,
		"duration": 0.28000000000000114
	},
	{
		"name": "F2",
		"midi": 41,
		"time": 91.80000000000007,
		"velocity": 0.5196850393700787,
		"duration": 0.28000000000000114
	},
	{
		"name": "A3",
		"midi": 57,
		"time": 91.80500000000006,
		"velocity": 0.5984251968503937,
		"duration": 0.30000000000001137
	},
	{
		"name": "F3",
		"midi": 53,
		"time": 91.80500000000006,
		"velocity": 0.5984251968503937,
		"duration": 0.30000000000001137
	},
	{
		"name": "A4",
		"midi": 69,
		"time": 91.81500000000007,
		"velocity": 0.6771653543307087,
		"duration": 0.5800000000000125
	},
	{
		"name": "F4",
		"midi": 65,
		"time": 91.81500000000007,
		"velocity": 0.5984251968503937,
		"duration": 0.5800000000000125
	},
	{
		"name": "F3",
		"midi": 53,
		"time": 92.10500000000008,
		"velocity": 0.5984251968503937,
		"duration": 0.29999999999999716
	},
	{
		"name": "A3",
		"midi": 57,
		"time": 92.10500000000008,
		"velocity": 0.5984251968503937,
		"duration": 0.29999999999999716
	},
	{
		"name": "C4",
		"midi": 60,
		"time": 92.39500000000008,
		"velocity": 0.6771653543307087,
		"duration": 0.2799999999999869
	},
	{
		"name": "F2",
		"midi": 41,
		"time": 92.40000000000008,
		"velocity": 0.5196850393700787,
		"duration": 0.2799999999999869
	},
	{
		"name": "C3",
		"midi": 48,
		"time": 92.40500000000007,
		"velocity": 0.6771653543307087,
		"duration": 0.5799999999999983
	},
	{
		"name": "A4",
		"midi": 69,
		"time": 92.41500000000008,
		"velocity": 0.6771653543307087,
		"duration": 0.5799999999999841
	},
	{
		"name": "F3",
		"midi": 53,
		"time": 92.41500000000008,
		"velocity": 0.6771653543307087,
		"duration": 0.2749999999999915
	},
	{
		"name": "A3",
		"midi": 57,
		"time": 92.41500000000008,
		"velocity": 0.6771653543307087,
		"duration": 0.2749999999999915
	},
	{
		"name": "F4",
		"midi": 65,
		"time": 92.42000000000007,
		"velocity": 0.6771653543307087,
		"duration": 0.5799999999999841
	},
	{
		"name": "F3",
		"midi": 53,
		"time": 92.70500000000007,
		"velocity": 0.5196850393700787,
		"duration": 0.2750000000000057
	},
	{
		"name": "A3",
		"midi": 57,
		"time": 92.70500000000007,
		"velocity": 0.5196850393700787,
		"duration": 0.2750000000000057
	},
	{
		"name": "C3",
		"midi": 48,
		"time": 92.99000000000007,
		"velocity": 0.5984251968503937,
		"duration": 0.5799999999999983
	},
	{
		"name": "A4",
		"midi": 69,
		"time": 93.00000000000006,
		"velocity": 0.6771653543307087,
		"duration": 0.5800000000000125
	},
	{
		"name": "F2",
		"midi": 41,
		"time": 93.00000000000006,
		"velocity": 0.5196850393700787,
		"duration": 0.28000000000000114
	},
	{
		"name": "C4",
		"midi": 60,
		"time": 93.00000000000006,
		"velocity": 0.6771653543307087,
		"duration": 0.28000000000000114
	},
	{
		"name": "A3",
		"midi": 57,
		"time": 93.01500000000006,
		"velocity": 0.5984251968503937,
		"duration": 0.2750000000000057
	},
	{
		"name": "F3",
		"midi": 53,
		"time": 93.01500000000006,
		"velocity": 0.5984251968503937,
		"duration": 0.2750000000000057
	},
	{
		"name": "F4",
		"midi": 65,
		"time": 93.02000000000005,
		"velocity": 0.5984251968503937,
		"duration": 0.5800000000000267
	},
	{
		"name": "F3",
		"midi": 53,
		"time": 93.31500000000007,
		"velocity": 0.5984251968503937,
		"duration": 0.2750000000000057
	},
	{
		"name": "F2",
		"midi": 41,
		"time": 93.60000000000008,
		"velocity": 0.5196850393700787,
		"duration": 0.28000000000000114
	},
	{
		"name": "C3",
		"midi": 48,
		"time": 93.60000000000008,
		"velocity": 0.6771653543307087,
		"duration": 0.29999999999999716
	},
	{
		"name": "F4",
		"midi": 65,
		"time": 93.60000000000008,
		"velocity": 0.6771653543307087,
		"duration": 0.5799999999999983
	},
	{
		"name": "A3",
		"midi": 57,
		"time": 93.60000000000008,
		"velocity": 0.6771653543307087,
		"duration": 0.28000000000000114
	},
	{
		"name": "F3",
		"midi": 53,
		"time": 93.60000000000008,
		"velocity": 0.6771653543307087,
		"duration": 0.28000000000000114
	},
	{
		"name": "A4",
		"midi": 69,
		"time": 93.61500000000008,
		"velocity": 0.6771653543307087,
		"duration": 0.5799999999999841
	},
	{
		"name": "C4",
		"midi": 60,
		"time": 93.62000000000008,
		"velocity": 0.6771653543307087,
		"duration": 0.28000000000000114
	},
	{
		"name": "C3",
		"midi": 48,
		"time": 93.90000000000008,
		"velocity": 0.4881889763779528,
		"duration": 0.29999999999998295
	},
	{
		"name": "F3",
		"midi": 53,
		"time": 93.90500000000007,
		"velocity": 0.4881889763779528,
		"duration": 0.28000000000000114
	},
	{
		"name": "A3",
		"midi": 57,
		"time": 93.90500000000007,
		"velocity": 0.4881889763779528,
		"duration": 0.28000000000000114
	},
	{
		"name": "C3",
		"midi": 48,
		"time": 94.19000000000007,
		"velocity": 0.5984251968503937,
		"duration": 0.5799999999999983
	},
	{
		"name": "C4",
		"midi": 60,
		"time": 94.19500000000006,
		"velocity": 0.6771653543307087,
		"duration": 0.28000000000000114
	},
	{
		"name": "F2",
		"midi": 41,
		"time": 94.20000000000006,
		"velocity": 0.5196850393700787,
		"duration": 0.28000000000000114
	},
	{
		"name": "A3",
		"midi": 57,
		"time": 94.20500000000006,
		"velocity": 0.5984251968503937,
		"duration": 0.30000000000001137
	},
	{
		"name": "F3",
		"midi": 53,
		"time": 94.20500000000006,
		"velocity": 0.5984251968503937,
		"duration": 0.30000000000001137
	},
	{
		"name": "A4",
		"midi": 69,
		"time": 94.21500000000006,
		"velocity": 0.6771653543307087,
		"duration": 0.5800000000000125
	},
	{
		"name": "F4",
		"midi": 65,
		"time": 94.21500000000006,
		"velocity": 0.5984251968503937,
		"duration": 0.5800000000000125
	},
	{
		"name": "F3",
		"midi": 53,
		"time": 94.50500000000007,
		"velocity": 0.5984251968503937,
		"duration": 0.29999999999999716
	},
	{
		"name": "A3",
		"midi": 57,
		"time": 94.50500000000007,
		"velocity": 0.5984251968503937,
		"duration": 0.29999999999999716
	},
	{
		"name": "C4",
		"midi": 60,
		"time": 94.79500000000007,
		"velocity": 0.6771653543307087,
		"duration": 0.2799999999999869
	},
	{
		"name": "F2",
		"midi": 41,
		"time": 94.80000000000007,
		"velocity": 0.5196850393700787,
		"duration": 0.2799999999999869
	},
	{
		"name": "C3",
		"midi": 48,
		"time": 94.80500000000006,
		"velocity": 0.6771653543307087,
		"duration": 0.5799999999999983
	},
	{
		"name": "A4",
		"midi": 69,
		"time": 94.81500000000007,
		"velocity": 0.6771653543307087,
		"duration": 0.5799999999999841
	},
	{
		"name": "F3",
		"midi": 53,
		"time": 94.81500000000007,
		"velocity": 0.6771653543307087,
		"duration": 0.2749999999999915
	},
	{
		"name": "A3",
		"midi": 57,
		"time": 94.81500000000007,
		"velocity": 0.6771653543307087,
		"duration": 0.2749999999999915
	},
	{
		"name": "F4",
		"midi": 65,
		"time": 94.82000000000006,
		"velocity": 0.6771653543307087,
		"duration": 0.5799999999999841
	},
	{
		"name": "F3",
		"midi": 53,
		"time": 95.10500000000006,
		"velocity": 0.5196850393700787,
		"duration": 0.2750000000000057
	},
	{
		"name": "A3",
		"midi": 57,
		"time": 95.10500000000006,
		"velocity": 0.5196850393700787,
		"duration": 0.2750000000000057
	},
	{
		"name": "C3",
		"midi": 48,
		"time": 95.39000000000006,
		"velocity": 0.5984251968503937,
		"duration": 0.5799999999999983
	},
	{
		"name": "A4",
		"midi": 69,
		"time": 95.40000000000005,
		"velocity": 0.6771653543307087,
		"duration": 0.5800000000000125
	},
	{
		"name": "F2",
		"midi": 41,
		"time": 95.40000000000005,
		"velocity": 0.5196850393700787,
		"duration": 0.28000000000000114
	},
	{
		"name": "C4",
		"midi": 60,
		"time": 95.40000000000005,
		"velocity": 0.6771653543307087,
		"duration": 0.28000000000000114
	},
	{
		"name": "A3",
		"midi": 57,
		"time": 95.41500000000005,
		"velocity": 0.5984251968503937,
		"duration": 0.2750000000000057
	},
	{
		"name": "F3",
		"midi": 53,
		"time": 95.41500000000005,
		"velocity": 0.5984251968503937,
		"duration": 0.2750000000000057
	},
	{
		"name": "F4",
		"midi": 65,
		"time": 95.42000000000004,
		"velocity": 0.5984251968503937,
		"duration": 0.5800000000000267
	},
	{
		"name": "F3",
		"midi": 53,
		"time": 95.71500000000006,
		"velocity": 0.5984251968503937,
		"duration": 0.2750000000000057
	},
	{
		"name": "F4",
		"midi": 65,
		"time": 96.00000000000007,
		"velocity": 0.6771653543307087,
		"duration": 0.5800000000000125
	},
	{
		"name": "C4",
		"midi": 60,
		"time": 96.00000000000007,
		"velocity": 0.6771653543307087,
		"duration": 0.28000000000000114
	},
	{
		"name": "A3",
		"midi": 57,
		"time": 96.00000000000007,
		"velocity": 0.6771653543307087,
		"duration": 0.28000000000000114
	},
	{
		"name": "D3",
		"midi": 50,
		"time": 96.00000000000007,
		"velocity": 0.6771653543307087,
		"duration": 0.30000000000001137
	},
	{
		"name": "F2",
		"midi": 41,
		"time": 96.00000000000007,
		"velocity": 0.5196850393700787,
		"duration": 0.28000000000000114
	},
	{
		"name": "D4",
		"midi": 62,
		"time": 96.01000000000008,
		"velocity": 0.6771653543307087,
		"duration": 0.28000000000000114
	},
	{
		"name": "A4",
		"midi": 69,
		"time": 96.01500000000007,
		"velocity": 0.6771653543307087,
		"duration": 0.5799999999999983
	},
	{
		"name": "D3",
		"midi": 50,
		"time": 96.30000000000008,
		"velocity": 0.4881889763779528,
		"duration": 0.29999999999998295
	},
	{
		"name": "D4",
		"midi": 62,
		"time": 96.30500000000008,
		"velocity": 0.4881889763779528,
		"duration": 0.28000000000000114
	},
	{
		"name": "A3",
		"midi": 57,
		"time": 96.30500000000008,
		"velocity": 0.4881889763779528,
		"duration": 0.28000000000000114
	},
	{
		"name": "D4",
		"midi": 62,
		"time": 96.58500000000008,
		"velocity": 0.6771653543307087,
		"duration": 0.2799999999999869
	},
	{
		"name": "D3",
		"midi": 50,
		"time": 96.59000000000007,
		"velocity": 0.5984251968503937,
		"duration": 0.5799999999999983
	},
	{
		"name": "F2",
		"midi": 41,
		"time": 96.60000000000007,
		"velocity": 0.5196850393700787,
		"duration": 0.28000000000000114
	},
	{
		"name": "C4",
		"midi": 60,
		"time": 96.60500000000006,
		"velocity": 0.5984251968503937,
		"duration": 0.30000000000001137
	},
	{
		"name": "A3",
		"midi": 57,
		"time": 96.60500000000006,
		"velocity": 0.5984251968503937,
		"duration": 0.30000000000001137
	},
	{
		"name": "A4",
		"midi": 69,
		"time": 96.61500000000007,
		"velocity": 0.6771653543307087,
		"duration": 0.5800000000000125
	},
	{
		"name": "F4",
		"midi": 65,
		"time": 96.61500000000007,
		"velocity": 0.5984251968503937,
		"duration": 0.5800000000000125
	},
	{
		"name": "A3",
		"midi": 57,
		"time": 96.90500000000007,
		"velocity": 0.4409448818897638,
		"duration": 0.29999999999999716
	},
	{
		"name": "D4",
		"midi": 62,
		"time": 96.90500000000007,
		"velocity": 0.4409448818897638,
		"duration": 0.29999999999999716
	},
	{
		"name": "D4",
		"midi": 62,
		"time": 97.18500000000007,
		"velocity": 0.6771653543307087,
		"duration": 0.28000000000000114
	},
	{
		"name": "F2",
		"midi": 41,
		"time": 97.20000000000007,
		"velocity": 0.5196850393700787,
		"duration": 0.28000000000000114
	},
	{
		"name": "D3",
		"midi": 50,
		"time": 97.20500000000007,
		"velocity": 0.6771653543307087,
		"duration": 0.5800000000000125
	},
	{
		"name": "A3",
		"midi": 57,
		"time": 97.21500000000007,
		"velocity": 0.6771653543307087,
		"duration": 0.2750000000000057
	},
	{
		"name": "C4",
		"midi": 60,
		"time": 97.21500000000007,
		"velocity": 0.6771653543307087,
		"duration": 0.2750000000000057
	},
	{
		"name": "A4",
		"midi": 69,
		"time": 97.21500000000007,
		"velocity": 0.6771653543307087,
		"duration": 0.5799999999999983
	},
	{
		"name": "F4",
		"midi": 65,
		"time": 97.22000000000007,
		"velocity": 0.6771653543307087,
		"duration": 0.5799999999999983
	},
	{
		"name": "A3",
		"midi": 57,
		"time": 97.50500000000008,
		"velocity": 0.3937007874015748,
		"duration": 0.2750000000000057
	},
	{
		"name": "D4",
		"midi": 62,
		"time": 97.50500000000008,
		"velocity": 0.3937007874015748,
		"duration": 0.2750000000000057
	},
	{
		"name": "D3",
		"midi": 50,
		"time": 97.79000000000008,
		"velocity": 0.5984251968503937,
		"duration": 0.5799999999999983
	},
	{
		"name": "D4",
		"midi": 62,
		"time": 97.79000000000008,
		"velocity": 0.6771653543307087,
		"duration": 0.2799999999999869
	},
	{
		"name": "F2",
		"midi": 41,
		"time": 97.80000000000007,
		"velocity": 0.5196850393700787,
		"duration": 0.28000000000000114
	},
	{
		"name": "A4",
		"midi": 69,
		"time": 97.80000000000007,
		"velocity": 0.6771653543307087,
		"duration": 0.5800000000000125
	},
	{
		"name": "C4",
		"midi": 60,
		"time": 97.81500000000007,
		"velocity": 0.5984251968503937,
		"duration": 0.2750000000000057
	},
	{
		"name": "A3",
		"midi": 57,
		"time": 97.81500000000007,
		"velocity": 0.5984251968503937,
		"duration": 0.2750000000000057
	},
	{
		"name": "F4",
		"midi": 65,
		"time": 97.82000000000006,
		"velocity": 0.5984251968503937,
		"duration": 0.5800000000000267
	},
	{
		"name": "A3",
		"midi": 57,
		"time": 98.11500000000008,
		"velocity": 0.5984251968503937,
		"duration": 0.2750000000000057
	},
	{
		"name": "F4",
		"midi": 65,
		"time": 98.40000000000009,
		"velocity": 0.6771653543307087,
		"duration": 0.5799999999999983
	},
	{
		"name": "F3",
		"midi": 53,
		"time": 98.40000000000009,
		"velocity": 0.6771653543307087,
		"duration": 0.29999999999999716
	},
	{
		"name": "A#2",
		"midi": 46,
		"time": 98.40000000000009,
		"velocity": 0.5196850393700787,
		"duration": 0.28000000000000114
	},
	{
		"name": "D4",
		"midi": 62,
		"time": 98.40000000000009,
		"velocity": 0.6771653543307087,
		"duration": 0.28000000000000114
	},
	{
		"name": "A#3",
		"midi": 58,
		"time": 98.40000000000009,
		"velocity": 0.6771653543307087,
		"duration": 0.28000000000000114
	},
	{
		"name": "A#4",
		"midi": 70,
		"time": 98.40500000000009,
		"velocity": 0.6771653543307087,
		"duration": 0.5799999999999983
	},
	{
		"name": "F3",
		"midi": 53,
		"time": 98.70000000000009,
		"velocity": 0.4881889763779528,
		"duration": 0.29999999999999716
	},
	{
		"name": "A#3",
		"midi": 58,
		"time": 98.70500000000008,
		"velocity": 0.4881889763779528,
		"duration": 0.28000000000000114
	},
	{
		"name": "D4",
		"midi": 62,
		"time": 98.98500000000008,
		"velocity": 0.6771653543307087,
		"duration": 0.28000000000000114
	},
	{
		"name": "F3",
		"midi": 53,
		"time": 98.99000000000008,
		"velocity": 0.5984251968503937,
		"duration": 0.5800000000000125
	},
	{
		"name": "A#2",
		"midi": 46,
		"time": 99.00000000000009,
		"velocity": 0.5196850393700787,
		"duration": 0.28000000000000114
	},
	{
		"name": "A#4",
		"midi": 70,
		"time": 99.00500000000008,
		"velocity": 0.6771653543307087,
		"duration": 0.5800000000000125
	},
	{
		"name": "A#3",
		"midi": 58,
		"time": 99.00500000000008,
		"velocity": 0.5984251968503937,
		"duration": 0.30000000000001137
	},
	{
		"name": "F4",
		"midi": 65,
		"time": 99.01500000000009,
		"velocity": 0.5984251968503937,
		"duration": 0.5800000000000125
	},
	{
		"name": "A#3",
		"midi": 58,
		"time": 99.30500000000009,
		"velocity": 0.5984251968503937,
		"duration": 0.29999999999999716
	},
	{
		"name": "D4",
		"midi": 62,
		"time": 99.5850000000001,
		"velocity": 0.6771653543307087,
		"duration": 0.28000000000000114
	},
	{
		"name": "A#2",
		"midi": 46,
		"time": 99.6000000000001,
		"velocity": 0.5196850393700787,
		"duration": 0.28000000000000114
	},
	{
		"name": "F3",
		"midi": 53,
		"time": 99.60500000000009,
		"velocity": 0.6771653543307087,
		"duration": 0.5800000000000125
	},
	{
		"name": "A#4",
		"midi": 70,
		"time": 99.60500000000009,
		"velocity": 0.6771653543307087,
		"duration": 0.5800000000000125
	},
	{
		"name": "A#3",
		"midi": 58,
		"time": 99.6150000000001,
		"velocity": 0.6771653543307087,
		"duration": 0.2750000000000057
	},
	{
		"name": "F4",
		"midi": 65,
		"time": 99.62000000000009,
		"velocity": 0.6771653543307087,
		"duration": 0.5800000000000125
	},
	{
		"name": "A#3",
		"midi": 58,
		"time": 99.9050000000001,
		"velocity": 0.5196850393700787,
		"duration": 0.2750000000000057
	},
	{
		"name": "D4",
		"midi": 62,
		"time": 100.1900000000001,
		"velocity": 0.6771653543307087,
		"duration": 0.28000000000000114
	},
	{
		"name": "A#4",
		"midi": 70,
		"time": 100.1900000000001,
		"velocity": 0.6771653543307087,
		"duration": 0.5800000000000125
	},
	{
		"name": "F3",
		"midi": 53,
		"time": 100.1900000000001,
		"velocity": 0.5984251968503937,
		"duration": 0.5800000000000125
	},
	{
		"name": "A#2",
		"midi": 46,
		"time": 100.2000000000001,
		"velocity": 0.5196850393700787,
		"duration": 0.28000000000000114
	},
	{
		"name": "A#3",
		"midi": 58,
		"time": 100.2150000000001,
		"velocity": 0.5984251968503937,
		"duration": 0.2750000000000057
	},
	{
		"name": "F4",
		"midi": 65,
		"time": 100.2200000000001,
		"velocity": 0.5984251968503937,
		"duration": 0.5800000000000125
	},
	{
		"name": "C4",
		"midi": 60,
		"time": 100.51500000000011,
		"velocity": 0.5984251968503937,
		"duration": 0.2749999999999915
	},
	{
		"name": "F2",
		"midi": 41,
		"time": 100.80000000000011,
		"velocity": 0.5196850393700787,
		"duration": 0.28000000000000114
	},
	{
		"name": "C3",
		"midi": 48,
		"time": 100.80000000000011,
		"velocity": 0.6771653543307087,
		"duration": 0.29999999999999716
	},
	{
		"name": "F4",
		"midi": 65,
		"time": 100.80000000000011,
		"velocity": 0.6771653543307087,
		"duration": 0.5799999999999983
	},
	{
		"name": "A3",
		"midi": 57,
		"time": 100.80000000000011,
		"velocity": 0.6771653543307087,
		"duration": 0.28000000000000114
	},
	{
		"name": "F3",
		"midi": 53,
		"time": 100.80000000000011,
		"velocity": 0.6771653543307087,
		"duration": 0.28000000000000114
	},
	{
		"name": "A4",
		"midi": 69,
		"time": 100.81500000000011,
		"velocity": 0.6771653543307087,
		"duration": 0.5799999999999841
	},
	{
		"name": "C4",
		"midi": 60,
		"time": 100.8200000000001,
		"velocity": 0.6771653543307087,
		"duration": 0.5349999999999966
	},
	{
		"name": "C3",
		"midi": 48,
		"time": 101.10000000000011,
		"velocity": 0.4881889763779528,
		"duration": 0.29999999999998295
	},
	{
		"name": "F3",
		"midi": 53,
		"time": 101.1050000000001,
		"velocity": 0.4881889763779528,
		"duration": 0.28000000000000114
	},
	{
		"name": "A3",
		"midi": 57,
		"time": 101.1050000000001,
		"velocity": 0.4881889763779528,
		"duration": 0.28000000000000114
	},
	{
		"name": "C3",
		"midi": 48,
		"time": 101.3900000000001,
		"velocity": 0.5984251968503937,
		"duration": 0.5799999999999983
	},
	{
		"name": "C4",
		"midi": 60,
		"time": 101.3950000000001,
		"velocity": 0.6771653543307087,
		"duration": 0.5649999999999977
	},
	{
		"name": "F2",
		"midi": 41,
		"time": 101.40000000000009,
		"velocity": 0.5196850393700787,
		"duration": 0.28000000000000114
	},
	{
		"name": "A3",
		"midi": 57,
		"time": 101.40500000000009,
		"velocity": 0.5984251968503937,
		"duration": 0.30000000000001137
	},
	{
		"name": "F3",
		"midi": 53,
		"time": 101.40500000000009,
		"velocity": 0.5984251968503937,
		"duration": 0.30000000000001137
	},
	{
		"name": "A4",
		"midi": 69,
		"time": 101.41500000000009,
		"velocity": 0.6771653543307087,
		"duration": 0.5800000000000125
	},
	{
		"name": "F4",
		"midi": 65,
		"time": 101.41500000000009,
		"velocity": 0.5984251968503937,
		"duration": 0.5800000000000125
	},
	{
		"name": "F3",
		"midi": 53,
		"time": 101.7050000000001,
		"velocity": 0.5984251968503937,
		"duration": 0.29999999999999716
	},
	{
		"name": "A3",
		"midi": 57,
		"time": 101.7050000000001,
		"velocity": 0.5984251968503937,
		"duration": 0.29999999999999716
	},
	{
		"name": "C4",
		"midi": 60,
		"time": 101.9950000000001,
		"velocity": 0.6771653543307087,
		"duration": 0.5750000000000028
	},
	{
		"name": "F2",
		"midi": 41,
		"time": 102.0000000000001,
		"velocity": 0.5196850393700787,
		"duration": 0.28000000000000114
	},
	{
		"name": "C3",
		"midi": 48,
		"time": 102.0050000000001,
		"velocity": 0.6771653543307087,
		"duration": 0.5800000000000125
	},
	{
		"name": "A4",
		"midi": 69,
		"time": 102.0150000000001,
		"velocity": 0.6771653543307087,
		"duration": 0.5799999999999983
	},
	{
		"name": "F3",
		"midi": 53,
		"time": 102.0150000000001,
		"velocity": 0.6771653543307087,
		"duration": 0.2750000000000057
	},
	{
		"name": "A3",
		"midi": 57,
		"time": 102.0150000000001,
		"velocity": 0.6771653543307087,
		"duration": 0.2750000000000057
	},
	{
		"name": "F4",
		"midi": 65,
		"time": 102.0200000000001,
		"velocity": 0.6771653543307087,
		"duration": 0.5799999999999983
	},
	{
		"name": "F3",
		"midi": 53,
		"time": 102.3050000000001,
		"velocity": 0.5196850393700787,
		"duration": 0.2750000000000057
	},
	{
		"name": "A3",
		"midi": 57,
		"time": 102.3050000000001,
		"velocity": 0.5196850393700787,
		"duration": 0.2750000000000057
	},
	{
		"name": "C3",
		"midi": 48,
		"time": 102.5900000000001,
		"velocity": 0.5984251968503937,
		"duration": 0.5799999999999983
	},
	{
		"name": "A4",
		"midi": 69,
		"time": 102.6000000000001,
		"velocity": 0.6771653543307087,
		"duration": 0.5800000000000125
	},
	{
		"name": "F2",
		"midi": 41,
		"time": 102.6000000000001,
		"velocity": 0.5196850393700787,
		"duration": 0.28000000000000114
	},
	{
		"name": "C4",
		"midi": 60,
		"time": 102.6000000000001,
		"velocity": 0.6771653543307087,
		"duration": 0.5700000000000074
	},
	{
		"name": "A3",
		"midi": 57,
		"time": 102.6150000000001,
		"velocity": 0.5984251968503937,
		"duration": 0.2750000000000057
	},
	{
		"name": "F3",
		"midi": 53,
		"time": 102.6150000000001,
		"velocity": 0.5984251968503937,
		"duration": 0.2750000000000057
	},
	{
		"name": "F4",
		"midi": 65,
		"time": 102.62000000000009,
		"velocity": 0.5984251968503937,
		"duration": 0.5450000000000159
	},
	{
		"name": "F3",
		"midi": 53,
		"time": 102.9150000000001,
		"velocity": 0.5984251968503937,
		"duration": 0.2750000000000057
	},
	{
		"name": "F4",
		"midi": 65,
		"time": 103.1950000000001,
		"velocity": 0.5984251968503937,
		"duration": 0.5449999999999733
	},
	{
		"name": "G3",
		"midi": 55,
		"time": 103.2000000000001,
		"velocity": 0.6771653543307087,
		"duration": 0.3049999999999784
	},
	{
		"name": "G4",
		"midi": 67,
		"time": 103.2050000000001,
		"velocity": 0.6771653543307087,
		"duration": 0.5799999999999841
	},
	{
		"name": "C3",
		"midi": 48,
		"time": 103.2050000000001,
		"velocity": 0.6771653543307087,
		"duration": 0.5799999999999841
	},
	{
		"name": "F3",
		"midi": 53,
		"time": 103.2100000000001,
		"velocity": 0.6771653543307087,
		"duration": 0.5799999999999841
	},
	{
		"name": "F2",
		"midi": 41,
		"time": 103.21500000000009,
		"velocity": 0.6771653543307087,
		"duration": 0.5799999999999841
	},
	{
		"name": "C4",
		"midi": 60,
		"time": 103.22000000000008,
		"velocity": 0.6771653543307087,
		"duration": 0.28000000000000114
	},
	{
		"name": "G3",
		"midi": 55,
		"time": 103.51000000000008,
		"velocity": 0.6771653543307087,
		"duration": 0.3049999999999784
	},
	{
		"name": "C4",
		"midi": 60,
		"time": 103.51000000000008,
		"velocity": 0.6771653543307087,
		"duration": 0.28000000000000114
	},
	{
		"name": "F2",
		"midi": 41,
		"time": 103.79500000000007,
		"velocity": 0.5984251968503937,
		"duration": 0.5799999999999841
	},
	{
		"name": "C3",
		"midi": 48,
		"time": 103.79500000000007,
		"velocity": 0.5984251968503937,
		"duration": 0.5799999999999841
	},
	{
		"name": "F4",
		"midi": 65,
		"time": 103.80000000000007,
		"velocity": 0.5354330708661418,
		"duration": 0.5799999999999841
	},
	{
		"name": "G4",
		"midi": 67,
		"time": 103.80500000000006,
		"velocity": 0.6771653543307087,
		"duration": 0.5799999999999841
	},
	{
		"name": "F3",
		"midi": 53,
		"time": 103.81000000000006,
		"velocity": 0.6771653543307087,
		"duration": 0.5799999999999841
	},
	{
		"name": "C4",
		"midi": 60,
		"time": 103.81000000000006,
		"velocity": 0.5984251968503937,
		"duration": 0.28999999999999204
	},
	{
		"name": "G3",
		"midi": 55,
		"time": 103.82000000000005,
		"velocity": 0.6771653543307087,
		"duration": 0.3050000000000068
	},
	{
		"name": "C4",
		"midi": 60,
		"time": 104.10000000000005,
		"velocity": 0.5984251968503937,
		"duration": 0.28999999999999204
	},
	{
		"name": "G3",
		"midi": 55,
		"time": 104.11000000000006,
		"velocity": 0.5984251968503937,
		"duration": 0.2799999999999869
	},
	{
		"name": "F4",
		"midi": 65,
		"time": 104.40500000000004,
		"velocity": 0.5354330708661418,
		"duration": 0.5799999999999841
	},
	{
		"name": "C3",
		"midi": 48,
		"time": 104.40500000000004,
		"velocity": 0.6771653543307087,
		"duration": 0.5799999999999841
	},
	{
		"name": "G4",
		"midi": 67,
		"time": 104.40500000000004,
		"velocity": 0.6771653543307087,
		"duration": 0.5799999999999841
	},
	{
		"name": "F2",
		"midi": 41,
		"time": 104.41000000000004,
		"velocity": 0.6771653543307087,
		"duration": 0.5799999999999841
	},
	{
		"name": "G3",
		"midi": 55,
		"time": 104.41500000000003,
		"velocity": 0.5984251968503937,
		"duration": 0.28000000000000114
	},
	{
		"name": "F3",
		"midi": 53,
		"time": 104.41500000000003,
		"velocity": 0.6771653543307087,
		"duration": 0.5799999999999841
	},
	{
		"name": "C4",
		"midi": 60,
		"time": 104.42000000000003,
		"velocity": 0.6771653543307087,
		"duration": 0.28000000000000114
	},
	{
		"name": "C4",
		"midi": 60,
		"time": 104.70000000000003,
		"velocity": 0.6771653543307087,
		"duration": 0.28000000000000114
	},
	{
		"name": "G3",
		"midi": 55,
		"time": 104.71000000000004,
		"velocity": 0.5984251968503937,
		"duration": 0.2849999999999824
	},
	{
		"name": "F2",
		"midi": 41,
		"time": 104.99500000000002,
		"velocity": 0.5984251968503937,
		"duration": 0.5800000000000125
	},
	{
		"name": "F4",
		"midi": 65,
		"time": 105.00500000000002,
		"velocity": 0.5354330708661418,
		"duration": 0.5799999999999983
	},
	{
		"name": "G3",
		"midi": 55,
		"time": 105.00500000000002,
		"velocity": 0.5984251968503937,
		"duration": 0.2849999999999966
	},
	{
		"name": "C3",
		"midi": 48,
		"time": 105.00500000000002,
		"velocity": 0.5984251968503937,
		"duration": 0.5799999999999983
	},
	{
		"name": "G4",
		"midi": 67,
		"time": 105.00500000000002,
		"velocity": 0.6771653543307087,
		"duration": 0.5799999999999983
	},
	{
		"name": "F3",
		"midi": 53,
		"time": 105.01000000000002,
		"velocity": 0.6771653543307087,
		"duration": 0.5799999999999983
	},
	{
		"name": "C4",
		"midi": 60,
		"time": 105.02000000000002,
		"velocity": 0.5984251968503937,
		"duration": 0.28000000000000114
	},
	{
		"name": "C4",
		"midi": 60,
		"time": 105.30000000000003,
		"velocity": 0.5984251968503937,
		"duration": 0.28000000000000114
	},
	{
		"name": "G3",
		"midi": 55,
		"time": 105.31000000000003,
		"velocity": 0.5984251968503937,
		"duration": 0.29999999999998295
	},
	{
		"name": "D4",
		"midi": 62,
		"time": 105.59500000000001,
		"velocity": 0.5984251968503937,
		"duration": 0.5799999999999983
	},
	{
		"name": "A4",
		"midi": 69,
		"time": 105.60500000000002,
		"velocity": 0.6771653543307087,
		"duration": 0.5799999999999983
	},
	{
		"name": "A3",
		"midi": 57,
		"time": 105.60500000000002,
		"velocity": 0.6771653543307087,
		"duration": 0.28999999999999204
	},
	{
		"name": "D3",
		"midi": 50,
		"time": 105.61500000000001,
		"velocity": 0.6771653543307087,
		"duration": 0.5800000000000125
	},
	{
		"name": "C4",
		"midi": 60,
		"time": 105.61500000000001,
		"velocity": 0.6771653543307087,
		"duration": 0.5800000000000125
	},
	{
		"name": "A3",
		"midi": 57,
		"time": 105.915,
		"velocity": 0.5748031496062992,
		"duration": 0.29000000000002046
	},
	{
		"name": "A3",
		"midi": 57,
		"time": 106.19500000000002,
		"velocity": 0.5984251968503937,
		"duration": 0.29000000000000625
	},
	{
		"name": "D3",
		"midi": 50,
		"time": 106.19500000000002,
		"velocity": 0.5984251968503937,
		"duration": 0.5799999999999983
	},
	{
		"name": "A4",
		"midi": 69,
		"time": 106.20500000000003,
		"velocity": 0.6771653543307087,
		"duration": 0.5799999999999983
	},
	{
		"name": "C4",
		"midi": 60,
		"time": 106.20500000000003,
		"velocity": 0.5984251968503937,
		"duration": 0.5799999999999983
	},
	{
		"name": "D4",
		"midi": 62,
		"time": 106.21000000000002,
		"velocity": 0.5984251968503937,
		"duration": 0.5799999999999983
	},
	{
		"name": "A3",
		"midi": 57,
		"time": 106.50500000000002,
		"velocity": 0.6299212598425197,
		"duration": 0.28999999999999204
	},
	{
		"name": "A4",
		"midi": 69,
		"time": 106.80500000000002,
		"velocity": 0.6771653543307087,
		"duration": 0.5799999999999841
	},
	{
		"name": "A3",
		"midi": 57,
		"time": 106.81000000000002,
		"velocity": 0.6771653543307087,
		"duration": 0.28999999999999204
	},
	{
		"name": "D3",
		"midi": 50,
		"time": 106.81000000000002,
		"velocity": 0.6771653543307087,
		"duration": 0.5799999999999841
	},
	{
		"name": "D4",
		"midi": 62,
		"time": 106.81500000000001,
		"velocity": 0.6771653543307087,
		"duration": 0.5799999999999841
	},
	{
		"name": "C4",
		"midi": 60,
		"time": 106.81500000000001,
		"velocity": 0.6771653543307087,
		"duration": 0.5799999999999841
	},
	{
		"name": "A3",
		"midi": 57,
		"time": 107.10000000000001,
		"velocity": 0.5748031496062992,
		"duration": 0.28999999999999204
	},
	{
		"name": "D3",
		"midi": 50,
		"time": 107.395,
		"velocity": 0.5984251968503937,
		"duration": 0.5799999999999841
	},
	{
		"name": "A4",
		"midi": 69,
		"time": 107.405,
		"velocity": 0.6771653543307087,
		"duration": 0.5799999999999841
	},
	{
		"name": "A3",
		"midi": 57,
		"time": 107.41,
		"velocity": 0.5984251968503937,
		"duration": 0.28999999999999204
	},
	{
		"name": "D4",
		"midi": 62,
		"time": 107.41499999999999,
		"velocity": 0.5984251968503937,
		"duration": 0.5799999999999983
	},
	{
		"name": "C4",
		"midi": 60,
		"time": 107.41499999999999,
		"velocity": 0.5984251968503937,
		"duration": 0.5799999999999983
	},
	{
		"name": "A3",
		"midi": 57,
		"time": 107.70499999999998,
		"velocity": 0.6299212598425197,
		"duration": 0.29000000000000625
	},
	{
		"name": "D4",
		"midi": 62,
		"time": 107.99999999999999,
		"velocity": 0.6771653543307087,
		"duration": 0.5799999999999983
	},
	{
		"name": "A#4",
		"midi": 70,
		"time": 108.00999999999999,
		"velocity": 0.6771653543307087,
		"duration": 0.5799999999999841
	},
	{
		"name": "A#2",
		"midi": 46,
		"time": 108.00999999999999,
		"velocity": 0.6771653543307087,
		"duration": 0.5799999999999841
	},
	{
		"name": "A#3",
		"midi": 58,
		"time": 108.00999999999999,
		"velocity": 0.6771653543307087,
		"duration": 0.28999999999999204
	},
	{
		"name": "F3",
		"midi": 53,
		"time": 108.01499999999999,
		"velocity": 0.6771653543307087,
		"duration": 0.28000000000000114
	},
	{
		"name": "F3",
		"midi": 53,
		"time": 108.30499999999998,
		"velocity": 0.5196850393700787,
		"duration": 0.28000000000000114
	},
	{
		"name": "A#3",
		"midi": 58,
		"time": 108.31999999999998,
		"velocity": 0.5748031496062992,
		"duration": 0.28999999999999204
	},
	{
		"name": "A#2",
		"midi": 46,
		"time": 108.58999999999997,
		"velocity": 0.5984251968503937,
		"duration": 0.5799999999999983
	},
	{
		"name": "A#3",
		"midi": 58,
		"time": 108.59999999999998,
		"velocity": 0.5984251968503937,
		"duration": 0.28999999999999204
	},
	{
		"name": "F3",
		"midi": 53,
		"time": 108.60499999999998,
		"velocity": 0.5984251968503937,
		"duration": 0.5799999999999983
	},
	{
		"name": "A#4",
		"midi": 70,
		"time": 108.60999999999997,
		"velocity": 0.6771653543307087,
		"duration": 0.5799999999999983
	},
	{
		"name": "D4",
		"midi": 62,
		"time": 108.61499999999997,
		"velocity": 0.5984251968503937,
		"duration": 0.5799999999999983
	},
	{
		"name": "A#3",
		"midi": 58,
		"time": 108.89999999999998,
		"velocity": 0.6299212598425197,
		"duration": 0.28999999999999204
	},
	{
		"name": "A#2",
		"midi": 46,
		"time": 109.20499999999997,
		"velocity": 0.6771653543307087,
		"duration": 0.5799999999999841
	},
	{
		"name": "A#4",
		"midi": 70,
		"time": 109.20999999999997,
		"velocity": 0.6771653543307087,
		"duration": 0.5799999999999841
	},
	{
		"name": "A#3",
		"midi": 58,
		"time": 109.21499999999996,
		"velocity": 0.6771653543307087,
		"duration": 0.28999999999999204
	},
	{
		"name": "F3",
		"midi": 53,
		"time": 109.21499999999996,
		"velocity": 0.6771653543307087,
		"duration": 0.2749999999999915
	},
	{
		"name": "D4",
		"midi": 62,
		"time": 109.21999999999996,
		"velocity": 0.6771653543307087,
		"duration": 0.5799999999999841
	},
	{
		"name": "A#3",
		"midi": 58,
		"time": 109.50499999999995,
		"velocity": 0.5748031496062992,
		"duration": 0.28999999999999204
	},
	{
		"name": "F3",
		"midi": 53,
		"time": 109.50499999999995,
		"velocity": 0.5196850393700787,
		"duration": 0.2750000000000057
	},
	{
		"name": "A#2",
		"midi": 46,
		"time": 109.78999999999995,
		"velocity": 0.5984251968503937,
		"duration": 0.5799999999999841
	},
	{
		"name": "A#4",
		"midi": 70,
		"time": 109.80999999999995,
		"velocity": 0.6771653543307087,
		"duration": 0.5799999999999841
	},
	{
		"name": "F3",
		"midi": 53,
		"time": 109.81499999999994,
		"velocity": 0.5984251968503937,
		"duration": 0.5799999999999841
	},
	{
		"name": "A#3",
		"midi": 58,
		"time": 109.81499999999994,
		"velocity": 0.5984251968503937,
		"duration": 0.28999999999999204
	},
	{
		"name": "D4",
		"midi": 62,
		"time": 109.81999999999994,
		"velocity": 0.5984251968503937,
		"duration": 0.5799999999999841
	},
	{
		"name": "C4",
		"midi": 60,
		"time": 110.10999999999993,
		"velocity": 0.6535433070866141,
		"duration": 0.28999999999999204
	},
	{
		"name": "A4",
		"midi": 69,
		"time": 110.40499999999992,
		"velocity": 0.6771653543307087,
		"duration": 0.5799999999999983
	},
	{
		"name": "A3",
		"midi": 57,
		"time": 110.40499999999992,
		"velocity": 0.6771653543307087,
		"duration": 0.28999999999999204
	},
	{
		"name": "C3",
		"midi": 48,
		"time": 110.40499999999992,
		"velocity": 0.6771653543307087,
		"duration": 0.5799999999999983
	},
	{
		"name": "F3",
		"midi": 53,
		"time": 110.40999999999991,
		"velocity": 0.6771653543307087,
		"duration": 0.3050000000000068
	},
	{
		"name": "F4",
		"midi": 65,
		"time": 110.40999999999991,
		"velocity": 0.48031496062992124,
		"duration": 0.5799999999999983
	},
	{
		"name": "F2",
		"midi": 41,
		"time": 110.40999999999991,
		"velocity": 0.6771653543307087,
		"duration": 0.5799999999999983
	},
	{
		"name": "C4",
		"midi": 60,
		"time": 110.4149999999999,
		"velocity": 0.6771653543307087,
		"duration": 0.5799999999999983
	},
	{
		"name": "F3",
		"midi": 53,
		"time": 110.70499999999991,
		"velocity": 0.6771653543307087,
		"duration": 0.3049999999999784
	},
	{
		"name": "A3",
		"midi": 57,
		"time": 110.71499999999992,
		"velocity": 0.5748031496062992,
		"duration": 0.28999999999997783
	},
	{
		"name": "F2",
		"midi": 41,
		"time": 110.98999999999991,
		"velocity": 0.5984251968503937,
		"duration": 0.5799999999999841
	},
	{
		"name": "C3",
		"midi": 48,
		"time": 110.9949999999999,
		"velocity": 0.5984251968503937,
		"duration": 0.5799999999999841
	},
	{
		"name": "A3",
		"midi": 57,
		"time": 110.9949999999999,
		"velocity": 0.5984251968503937,
		"duration": 0.28999999999999204
	},
	{
		"name": "F4",
		"midi": 65,
		"time": 110.9999999999999,
		"velocity": 0.4251968503937008,
		"duration": 0.5799999999999841
	},
	{
		"name": "C4",
		"midi": 60,
		"time": 111.0049999999999,
		"velocity": 0.5984251968503937,
		"duration": 0.5799999999999841
	},
	{
		"name": "A4",
		"midi": 69,
		"time": 111.0049999999999,
		"velocity": 0.6771653543307087,
		"duration": 0.5799999999999841
	},
	{
		"name": "F3",
		"midi": 53,
		"time": 111.0049999999999,
		"velocity": 0.5984251968503937,
		"duration": 0.29999999999999716
	},
	{
		"name": "A3",
		"midi": 57,
		"time": 111.3049999999999,
		"velocity": 0.6299212598425197,
		"duration": 0.28999999999999204
	},
	{
		"name": "F3",
		"midi": 53,
		"time": 111.3049999999999,
		"velocity": 0.5984251968503937,
		"duration": 0.29999999999999716
	},
	{
		"name": "A4",
		"midi": 69,
		"time": 111.60499999999989,
		"velocity": 0.6771653543307087,
		"duration": 0.5799999999999841
	},
	{
		"name": "F2",
		"midi": 41,
		"time": 111.60499999999989,
		"velocity": 0.6771653543307087,
		"duration": 0.5799999999999841
	},
	{
		"name": "F3",
		"midi": 53,
		"time": 111.60499999999989,
		"velocity": 0.6771653543307087,
		"duration": 0.29999999999998295
	},
	{
		"name": "C3",
		"midi": 48,
		"time": 111.60499999999989,
		"velocity": 0.6771653543307087,
		"duration": 0.5799999999999841
	},
	{
		"name": "F4",
		"midi": 65,
		"time": 111.60999999999989,
		"velocity": 0.48031496062992124,
		"duration": 0.5799999999999841
	},
	{
		"name": "A3",
		"midi": 57,
		"time": 111.60999999999989,
		"velocity": 0.6771653543307087,
		"duration": 0.28999999999999204
	},
	{
		"name": "C4",
		"midi": 60,
		"time": 111.61499999999988,
		"velocity": 0.6771653543307087,
		"duration": 0.5799999999999841
	},
	{
		"name": "A3",
		"midi": 57,
		"time": 111.89999999999988,
		"velocity": 0.5748031496062992,
		"duration": 0.28999999999999204
	},
	{
		"name": "F3",
		"midi": 53,
		"time": 111.90499999999987,
		"velocity": 0.5984251968503937,
		"duration": 0.29999999999999716
	},
	{
		"name": "F2",
		"midi": 41,
		"time": 112.18999999999987,
		"velocity": 0.5984251968503937,
		"duration": 0.5799999999999841
	},
	{
		"name": "C3",
		"midi": 48,
		"time": 112.20499999999987,
		"velocity": 0.5984251968503937,
		"duration": 0.5799999999999841
	},
	{
		"name": "A4",
		"midi": 69,
		"time": 112.20499999999987,
		"velocity": 0.6771653543307087,
		"duration": 0.5799999999999841
	},
	{
		"name": "F3",
		"midi": 53,
		"time": 112.20499999999987,
		"velocity": 0.5984251968503937,
		"duration": 0.29999999999998295
	},
	{
		"name": "F4",
		"midi": 65,
		"time": 112.20999999999987,
		"velocity": 0.4251968503937008,
		"duration": 0.5799999999999841
	},
	{
		"name": "A3",
		"midi": 57,
		"time": 112.20999999999987,
		"velocity": 0.5984251968503937,
		"duration": 0.28999999999999204
	},
	{
		"name": "C4",
		"midi": 60,
		"time": 112.21499999999986,
		"velocity": 0.5984251968503937,
		"duration": 0.5799999999999841
	},
	{
		"name": "F3",
		"midi": 53,
		"time": 112.50499999999985,
		"velocity": 0.5984251968503937,
		"duration": 0.29999999999998295
	},
	{
		"name": "A3",
		"midi": 57,
		"time": 112.50499999999985,
		"velocity": 0.6299212598425197,
		"duration": 0.28999999999999204
	},
	{
		"name": "F4",
		"midi": 65,
		"time": 112.79999999999984,
		"velocity": 0.5354330708661418,
		"duration": 0.5799999999999699
	},
	{
		"name": "A3",
		"midi": 57,
		"time": 112.80499999999984,
		"velocity": 0.6771653543307087,
		"duration": 0.3049999999999784
	},
	{
		"name": "A4",
		"midi": 69,
		"time": 112.80499999999984,
		"velocity": 0.6771653543307087,
		"duration": 0.5799999999999699
	},
	{
		"name": "C3",
		"midi": 48,
		"time": 112.80999999999983,
		"velocity": 0.6771653543307087,
		"duration": 0.5799999999999699
	},
	{
		"name": "F3",
		"midi": 53,
		"time": 112.81499999999983,
		"velocity": 0.6771653543307087,
		"duration": 0.5799999999999699
	},
	{
		"name": "F2",
		"midi": 41,
		"time": 112.81999999999982,
		"velocity": 0.6771653543307087,
		"duration": 0.5799999999999699
	},
	{
		"name": "C4",
		"midi": 60,
		"time": 112.82499999999982,
		"velocity": 0.6771653543307087,
		"duration": 0.28000000000000114
	},
	{
		"name": "A3",
		"midi": 57,
		"time": 113.11499999999981,
		"velocity": 0.6771653543307087,
		"duration": 0.3049999999999784
	},
	{
		"name": "C4",
		"midi": 60,
		"time": 113.11499999999981,
		"velocity": 0.6771653543307087,
		"duration": 0.2799999999999869
	},
	{
		"name": "C3",
		"midi": 48,
		"time": 113.39999999999979,
		"velocity": 0.5984251968503937,
		"duration": 0.5799999999999983
	},
	{
		"name": "F2",
		"midi": 41,
		"time": 113.39999999999979,
		"velocity": 0.5984251968503937,
		"duration": 0.5799999999999983
	},
	{
		"name": "F4",
		"midi": 65,
		"time": 113.40499999999979,
		"velocity": 0.5354330708661418,
		"duration": 0.5799999999999983
	},
	{
		"name": "A4",
		"midi": 69,
		"time": 113.40499999999979,
		"velocity": 0.6771653543307087,
		"duration": 0.5799999999999983
	},
	{
		"name": "F3",
		"midi": 53,
		"time": 113.4149999999998,
		"velocity": 0.6771653543307087,
		"duration": 0.5799999999999983
	},
	{
		"name": "C4",
		"midi": 60,
		"time": 113.4149999999998,
		"velocity": 0.5984251968503937,
		"duration": 0.28999999999999204
	},
	{
		"name": "A3",
		"midi": 57,
		"time": 113.42499999999978,
		"velocity": 0.6771653543307087,
		"duration": 0.3050000000000068
	},
	{
		"name": "C4",
		"midi": 60,
		"time": 113.70499999999979,
		"velocity": 0.5984251968503937,
		"duration": 0.29000000000000625
	},
	{
		"name": "A3",
		"midi": 57,
		"time": 113.71499999999979,
		"velocity": 0.5984251968503937,
		"duration": 0.28000000000000114
	},
	{
		"name": "A4",
		"midi": 69,
		"time": 114.0049999999998,
		"velocity": 0.6771653543307087,
		"duration": 0.5799999999999841
	},
	{
		"name": "C3",
		"midi": 48,
		"time": 114.00999999999979,
		"velocity": 0.6771653543307087,
		"duration": 0.5799999999999841
	},
	{
		"name": "F4",
		"midi": 65,
		"time": 114.00999999999979,
		"velocity": 0.5354330708661418,
		"duration": 0.5799999999999841
	},
	{
		"name": "F2",
		"midi": 41,
		"time": 114.01499999999979,
		"velocity": 0.6771653543307087,
		"duration": 0.5799999999999841
	},
	{
		"name": "F3",
		"midi": 53,
		"time": 114.01999999999978,
		"velocity": 0.6771653543307087,
		"duration": 0.5799999999999841
	},
	{
		"name": "A3",
		"midi": 57,
		"time": 114.01999999999978,
		"velocity": 0.5984251968503937,
		"duration": 0.28000000000000114
	},
	{
		"name": "C4",
		"midi": 60,
		"time": 114.02499999999978,
		"velocity": 0.6771653543307087,
		"duration": 0.28000000000000114
	},
	{
		"name": "C4",
		"midi": 60,
		"time": 114.30499999999978,
		"velocity": 0.6771653543307087,
		"duration": 0.28000000000000114
	},
	{
		"name": "A3",
		"midi": 57,
		"time": 114.31499999999978,
		"velocity": 0.5984251968503937,
		"duration": 0.2849999999999824
	},
	{
		"name": "F2",
		"midi": 41,
		"time": 114.59999999999977,
		"velocity": 0.5984251968503937,
		"duration": 0.5799999999999983
	},
	{
		"name": "A4",
		"midi": 69,
		"time": 114.60499999999976,
		"velocity": 0.6771653543307087,
		"duration": 0.5799999999999983
	},
	{
		"name": "F4",
		"midi": 65,
		"time": 114.60999999999976,
		"velocity": 0.5354330708661418,
		"duration": 0.5799999999999983
	},
	{
		"name": "C3",
		"midi": 48,
		"time": 114.60999999999976,
		"velocity": 0.5984251968503937,
		"duration": 0.5799999999999983
	},
	{
		"name": "A3",
		"midi": 57,
		"time": 114.60999999999976,
		"velocity": 0.5984251968503937,
		"duration": 0.2849999999999966
	},
	{
		"name": "F3",
		"midi": 53,
		"time": 114.61499999999975,
		"velocity": 0.6771653543307087,
		"duration": 0.5799999999999983
	},
	{
		"name": "C4",
		"midi": 60,
		"time": 114.62499999999976,
		"velocity": 0.5984251968503937,
		"duration": 0.28000000000000114
	},
	{
		"name": "C4",
		"midi": 60,
		"time": 114.90499999999976,
		"velocity": 0.5984251968503937,
		"duration": 0.28000000000000114
	},
	{
		"name": "A3",
		"midi": 57,
		"time": 114.91499999999976,
		"velocity": 0.5984251968503937,
		"duration": 0.29999999999999716
	},
	{
		"name": "D4",
		"midi": 62,
		"time": 115.18999999999976,
		"velocity": 0.6771653543307087,
		"duration": 0.5799999999999983
	},
	{
		"name": "A4",
		"midi": 69,
		"time": 115.20499999999976,
		"velocity": 0.6771653543307087,
		"duration": 0.5799999999999983
	},
	{
		"name": "A3",
		"midi": 57,
		"time": 115.20499999999976,
		"velocity": 0.6771653543307087,
		"duration": 0.29000000000000625
	},
	{
		"name": "D3",
		"midi": 50,
		"time": 115.21499999999976,
		"velocity": 0.6771653543307087,
		"duration": 0.5799999999999983
	},
	{
		"name": "C4",
		"midi": 60,
		"time": 115.21499999999976,
		"velocity": 0.6771653543307087,
		"duration": 0.5799999999999983
	},
	{
		"name": "A3",
		"midi": 57,
		"time": 115.51499999999976,
		"velocity": 0.5748031496062992,
		"duration": 0.29000000000000625
	},
	{
		"name": "A3",
		"midi": 57,
		"time": 115.79499999999976,
		"velocity": 0.5984251968503937,
		"duration": 0.29000000000000625
	},
	{
		"name": "D3",
		"midi": 50,
		"time": 115.79499999999976,
		"velocity": 0.5984251968503937,
		"duration": 0.5799999999999983
	},
	{
		"name": "A4",
		"midi": 69,
		"time": 115.80499999999977,
		"velocity": 0.6771653543307087,
		"duration": 0.5799999999999983
	},
	{
		"name": "C4",
		"midi": 60,
		"time": 115.80499999999977,
		"velocity": 0.5984251968503937,
		"duration": 0.5799999999999983
	},
	{
		"name": "D4",
		"midi": 62,
		"time": 115.80999999999976,
		"velocity": 0.5984251968503937,
		"duration": 0.5799999999999983
	},
	{
		"name": "A3",
		"midi": 57,
		"time": 116.10499999999976,
		"velocity": 0.6299212598425197,
		"duration": 0.28999999999999204
	},
	{
		"name": "A4",
		"midi": 69,
		"time": 116.40499999999976,
		"velocity": 0.6771653543307087,
		"duration": 0.5799999999999841
	},
	{
		"name": "A3",
		"midi": 57,
		"time": 116.40999999999976,
		"velocity": 0.6771653543307087,
		"duration": 0.28999999999999204
	},
	{
		"name": "D3",
		"midi": 50,
		"time": 116.40999999999976,
		"velocity": 0.6771653543307087,
		"duration": 0.5799999999999841
	},
	{
		"name": "D4",
		"midi": 62,
		"time": 116.41499999999975,
		"velocity": 0.6771653543307087,
		"duration": 0.5799999999999841
	},
	{
		"name": "C4",
		"midi": 60,
		"time": 116.41499999999975,
		"velocity": 0.6771653543307087,
		"duration": 0.5799999999999841
	},
	{
		"name": "A3",
		"midi": 57,
		"time": 116.69999999999975,
		"velocity": 0.5748031496062992,
		"duration": 0.28999999999999204
	},
	{
		"name": "D3",
		"midi": 50,
		"time": 116.99499999999973,
		"velocity": 0.5984251968503937,
		"duration": 0.5799999999999841
	},
	{
		"name": "A4",
		"midi": 69,
		"time": 117.00499999999974,
		"velocity": 0.6771653543307087,
		"duration": 0.5799999999999841
	},
	{
		"name": "A3",
		"midi": 57,
		"time": 117.00999999999974,
		"velocity": 0.5984251968503937,
		"duration": 0.28999999999999204
	},
	{
		"name": "D4",
		"midi": 62,
		"time": 117.01499999999973,
		"velocity": 0.5984251968503937,
		"duration": 0.5799999999999983
	},
	{
		"name": "C4",
		"midi": 60,
		"time": 117.01499999999973,
		"velocity": 0.5984251968503937,
		"duration": 0.5799999999999983
	},
	{
		"name": "A3",
		"midi": 57,
		"time": 117.30499999999972,
		"velocity": 0.6299212598425197,
		"duration": 0.29000000000000625
	},
	{
		"name": "D4",
		"midi": 62,
		"time": 117.59999999999972,
		"velocity": 0.6771653543307087,
		"duration": 0.5799999999999983
	},
	{
		"name": "A#4",
		"midi": 70,
		"time": 117.60999999999973,
		"velocity": 0.6771653543307087,
		"duration": 0.5799999999999841
	},
	{
		"name": "A#2",
		"midi": 46,
		"time": 117.60999999999973,
		"velocity": 0.6771653543307087,
		"duration": 0.5799999999999841
	},
	{
		"name": "A#3",
		"midi": 58,
		"time": 117.60999999999973,
		"velocity": 0.6771653543307087,
		"duration": 0.28999999999999204
	},
	{
		"name": "F3",
		"midi": 53,
		"time": 117.61499999999972,
		"velocity": 0.6771653543307087,
		"duration": 0.28000000000000114
	},
	{
		"name": "F3",
		"midi": 53,
		"time": 117.90499999999972,
		"velocity": 0.5196850393700787,
		"duration": 0.28000000000000114
	},
	{
		"name": "A#3",
		"midi": 58,
		"time": 117.91999999999972,
		"velocity": 0.5748031496062992,
		"duration": 0.28999999999999204
	},
	{
		"name": "A#2",
		"midi": 46,
		"time": 118.18999999999971,
		"velocity": 0.5984251968503937,
		"duration": 0.5799999999999983
	},
	{
		"name": "A#3",
		"midi": 58,
		"time": 118.19999999999972,
		"velocity": 0.5984251968503937,
		"duration": 0.28999999999999204
	},
	{
		"name": "F3",
		"midi": 53,
		"time": 118.20499999999971,
		"velocity": 0.5984251968503937,
		"duration": 0.5799999999999983
	},
	{
		"name": "A#4",
		"midi": 70,
		"time": 118.20999999999971,
		"velocity": 0.6771653543307087,
		"duration": 0.5799999999999983
	},
	{
		"name": "D4",
		"midi": 62,
		"time": 118.2149999999997,
		"velocity": 0.5984251968503937,
		"duration": 0.5799999999999983
	},
	{
		"name": "A#3",
		"midi": 58,
		"time": 118.49999999999972,
		"velocity": 0.6299212598425197,
		"duration": 0.28999999999999204
	},
	{
		"name": "A#2",
		"midi": 46,
		"time": 118.80499999999971,
		"velocity": 0.6771653543307087,
		"duration": 0.5799999999999841
	},
	{
		"name": "A#4",
		"midi": 70,
		"time": 118.8099999999997,
		"velocity": 0.6771653543307087,
		"duration": 0.5799999999999841
	},
	{
		"name": "A#3",
		"midi": 58,
		"time": 118.8149999999997,
		"velocity": 0.6771653543307087,
		"duration": 0.28999999999999204
	},
	{
		"name": "F3",
		"midi": 53,
		"time": 118.8149999999997,
		"velocity": 0.6771653543307087,
		"duration": 0.2749999999999915
	},
	{
		"name": "D4",
		"midi": 62,
		"time": 118.8199999999997,
		"velocity": 0.6771653543307087,
		"duration": 0.5799999999999841
	},
	{
		"name": "A#3",
		"midi": 58,
		"time": 119.10499999999969,
		"velocity": 0.5748031496062992,
		"duration": 0.28999999999999204
	},
	{
		"name": "F3",
		"midi": 53,
		"time": 119.10499999999969,
		"velocity": 0.5196850393700787,
		"duration": 0.2750000000000057
	},
	{
		"name": "A#2",
		"midi": 46,
		"time": 119.38999999999969,
		"velocity": 0.5984251968503937,
		"duration": 0.5799999999999841
	},
	{
		"name": "A#4",
		"midi": 70,
		"time": 119.40999999999968,
		"velocity": 0.6771653543307087,
		"duration": 0.5799999999999841
	},
	{
		"name": "F3",
		"midi": 53,
		"time": 119.41499999999968,
		"velocity": 0.5984251968503937,
		"duration": 0.5799999999999841
	},
	{
		"name": "A#3",
		"midi": 58,
		"time": 119.41499999999968,
		"velocity": 0.5984251968503937,
		"duration": 0.28999999999999204
	},
	{
		"name": "D4",
		"midi": 62,
		"time": 119.41999999999967,
		"velocity": 0.5984251968503937,
		"duration": 0.5799999999999841
	},
	{
		"name": "C4",
		"midi": 60,
		"time": 119.70999999999967,
		"velocity": 0.6535433070866141,
		"duration": 0.28999999999999204
	},
	{
		"name": "A4",
		"midi": 69,
		"time": 120.00499999999965,
		"velocity": 0.6771653543307087,
		"duration": 0.5799999999999983
	},
	{
		"name": "A3",
		"midi": 57,
		"time": 120.00499999999965,
		"velocity": 0.6771653543307087,
		"duration": 0.28999999999999204
	},
	{
		"name": "C3",
		"midi": 48,
		"time": 120.00499999999965,
		"velocity": 0.6771653543307087,
		"duration": 0.5799999999999983
	},
	{
		"name": "F3",
		"midi": 53,
		"time": 120.00999999999965,
		"velocity": 0.6771653543307087,
		"duration": 0.3050000000000068
	},
	{
		"name": "F4",
		"midi": 65,
		"time": 120.00999999999965,
		"velocity": 0.48031496062992124,
		"duration": 0.5799999999999983
	},
	{
		"name": "F2",
		"midi": 41,
		"time": 120.00999999999965,
		"velocity": 0.6771653543307087,
		"duration": 0.5799999999999983
	},
	{
		"name": "C4",
		"midi": 60,
		"time": 120.01499999999965,
		"velocity": 0.6771653543307087,
		"duration": 0.5799999999999983
	},
	{
		"name": "F3",
		"midi": 53,
		"time": 120.30499999999965,
		"velocity": 0.6771653543307087,
		"duration": 0.3049999999999784
	},
	{
		"name": "A3",
		"midi": 57,
		"time": 120.31499999999966,
		"velocity": 0.5748031496062992,
		"duration": 0.28999999999997783
	},
	{
		"name": "F2",
		"midi": 41,
		"time": 120.58999999999965,
		"velocity": 0.5984251968503937,
		"duration": 0.5799999999999841
	},
	{
		"name": "C3",
		"midi": 48,
		"time": 120.59499999999964,
		"velocity": 0.5984251968503937,
		"duration": 0.5799999999999841
	},
	{
		"name": "A3",
		"midi": 57,
		"time": 120.59499999999964,
		"velocity": 0.5984251968503937,
		"duration": 0.28999999999999204
	},
	{
		"name": "F4",
		"midi": 65,
		"time": 120.59999999999964,
		"velocity": 0.4251968503937008,
		"duration": 0.5799999999999841
	},
	{
		"name": "C4",
		"midi": 60,
		"time": 120.60499999999963,
		"velocity": 0.5984251968503937,
		"duration": 0.5799999999999841
	},
	{
		"name": "A4",
		"midi": 69,
		"time": 120.60499999999963,
		"velocity": 0.6771653543307087,
		"duration": 0.5799999999999841
	},
	{
		"name": "F3",
		"midi": 53,
		"time": 120.60499999999963,
		"velocity": 0.5984251968503937,
		"duration": 0.29999999999999716
	},
	{
		"name": "A3",
		"midi": 57,
		"time": 120.90499999999963,
		"velocity": 0.6299212598425197,
		"duration": 0.28999999999999204
	},
	{
		"name": "F3",
		"midi": 53,
		"time": 120.90499999999963,
		"velocity": 0.5984251968503937,
		"duration": 0.29999999999999716
	},
	{
		"name": "A4",
		"midi": 69,
		"time": 121.20499999999963,
		"velocity": 0.6771653543307087,
		"duration": 0.5799999999999841
	},
	{
		"name": "F2",
		"midi": 41,
		"time": 121.20499999999963,
		"velocity": 0.6771653543307087,
		"duration": 0.5799999999999841
	},
	{
		"name": "F3",
		"midi": 53,
		"time": 121.20499999999963,
		"velocity": 0.6771653543307087,
		"duration": 0.29999999999998295
	},
	{
		"name": "C3",
		"midi": 48,
		"time": 121.20499999999963,
		"velocity": 0.6771653543307087,
		"duration": 0.5799999999999841
	},
	{
		"name": "F4",
		"midi": 65,
		"time": 121.20999999999962,
		"velocity": 0.48031496062992124,
		"duration": 0.5799999999999841
	},
	{
		"name": "A3",
		"midi": 57,
		"time": 121.20999999999962,
		"velocity": 0.6771653543307087,
		"duration": 0.28999999999999204
	},
	{
		"name": "C4",
		"midi": 60,
		"time": 121.21499999999962,
		"velocity": 0.6771653543307087,
		"duration": 0.5799999999999841
	},
	{
		"name": "A3",
		"midi": 57,
		"time": 121.49999999999962,
		"velocity": 0.5748031496062992,
		"duration": 0.28999999999999204
	},
	{
		"name": "F3",
		"midi": 53,
		"time": 121.50499999999961,
		"velocity": 0.5984251968503937,
		"duration": 0.29999999999999716
	},
	{
		"name": "F2",
		"midi": 41,
		"time": 121.78999999999961,
		"velocity": 0.5984251968503937,
		"duration": 0.5799999999999841
	},
	{
		"name": "C3",
		"midi": 48,
		"time": 121.80499999999961,
		"velocity": 0.5984251968503937,
		"duration": 0.5799999999999841
	},
	{
		"name": "A4",
		"midi": 69,
		"time": 121.80499999999961,
		"velocity": 0.6771653543307087,
		"duration": 0.5799999999999841
	},
	{
		"name": "F3",
		"midi": 53,
		"time": 121.80499999999961,
		"velocity": 0.5984251968503937,
		"duration": 0.29999999999998295
	},
	{
		"name": "F4",
		"midi": 65,
		"time": 121.8099999999996,
		"velocity": 0.4251968503937008,
		"duration": 0.5799999999999841
	},
	{
		"name": "A3",
		"midi": 57,
		"time": 121.8099999999996,
		"velocity": 0.5984251968503937,
		"duration": 0.28999999999999204
	},
	{
		"name": "C4",
		"midi": 60,
		"time": 121.8149999999996,
		"velocity": 0.5984251968503937,
		"duration": 0.5799999999999841
	},
	{
		"name": "F3",
		"midi": 53,
		"time": 122.10499999999959,
		"velocity": 0.5984251968503937,
		"duration": 0.29999999999998295
	},
	{
		"name": "A3",
		"midi": 57,
		"time": 122.10499999999959,
		"velocity": 0.6299212598425197,
		"duration": 0.28999999999999204
	},
	{
		"name": "F4",
		"midi": 65,
		"time": 122.39999999999958,
		"velocity": 0.5354330708661418,
		"duration": 0.5799999999999699
	},
	{
		"name": "A3",
		"midi": 57,
		"time": 122.40499999999957,
		"velocity": 0.6771653543307087,
		"duration": 0.3049999999999784
	},
	{
		"name": "A4",
		"midi": 69,
		"time": 122.40499999999957,
		"velocity": 0.6771653543307087,
		"duration": 0.5799999999999699
	},
	{
		"name": "C3",
		"midi": 48,
		"time": 122.40999999999957,
		"velocity": 0.6771653543307087,
		"duration": 0.5799999999999699
	},
	{
		"name": "F3",
		"midi": 53,
		"time": 122.41499999999957,
		"velocity": 0.6771653543307087,
		"duration": 0.5799999999999699
	},
	{
		"name": "F2",
		"midi": 41,
		"time": 122.41999999999956,
		"velocity": 0.6771653543307087,
		"duration": 0.5799999999999699
	},
	{
		"name": "C4",
		"midi": 60,
		"time": 122.42499999999956,
		"velocity": 0.6771653543307087,
		"duration": 0.28000000000000114
	},
	{
		"name": "A3",
		"midi": 57,
		"time": 122.71499999999955,
		"velocity": 0.6771653543307087,
		"duration": 0.3049999999999784
	},
	{
		"name": "C4",
		"midi": 60,
		"time": 122.71499999999955,
		"velocity": 0.6771653543307087,
		"duration": 0.2799999999999869
	},
	{
		"name": "C3",
		"midi": 48,
		"time": 122.99999999999953,
		"velocity": 0.5984251968503937,
		"duration": 0.5799999999999983
	},
	{
		"name": "F2",
		"midi": 41,
		"time": 122.99999999999953,
		"velocity": 0.5984251968503937,
		"duration": 0.5799999999999983
	},
	{
		"name": "F4",
		"midi": 65,
		"time": 123.00499999999953,
		"velocity": 0.5354330708661418,
		"duration": 0.5799999999999983
	},
	{
		"name": "A4",
		"midi": 69,
		"time": 123.00499999999953,
		"velocity": 0.6771653543307087,
		"duration": 0.5799999999999983
	},
	{
		"name": "F3",
		"midi": 53,
		"time": 123.01499999999953,
		"velocity": 0.6771653543307087,
		"duration": 0.5799999999999983
	},
	{
		"name": "C4",
		"midi": 60,
		"time": 123.01499999999953,
		"velocity": 0.5984251968503937,
		"duration": 0.28999999999999204
	},
	{
		"name": "A3",
		"midi": 57,
		"time": 123.02499999999952,
		"velocity": 0.6771653543307087,
		"duration": 0.3050000000000068
	},
	{
		"name": "C4",
		"midi": 60,
		"time": 123.30499999999952,
		"velocity": 0.5984251968503937,
		"duration": 0.29000000000000625
	},
	{
		"name": "A3",
		"midi": 57,
		"time": 123.31499999999953,
		"velocity": 0.5984251968503937,
		"duration": 0.28000000000000114
	},
	{
		"name": "A4",
		"midi": 69,
		"time": 123.60499999999954,
		"velocity": 0.6771653543307087,
		"duration": 0.5799999999999841
	},
	{
		"name": "C3",
		"midi": 48,
		"time": 123.60999999999953,
		"velocity": 0.6771653543307087,
		"duration": 0.5799999999999841
	},
	{
		"name": "F4",
		"midi": 65,
		"time": 123.60999999999953,
		"velocity": 0.5354330708661418,
		"duration": 0.5799999999999841
	},
	{
		"name": "F2",
		"midi": 41,
		"time": 123.61499999999953,
		"velocity": 0.6771653543307087,
		"duration": 0.5799999999999841
	},
	{
		"name": "F3",
		"midi": 53,
		"time": 123.61999999999952,
		"velocity": 0.6771653543307087,
		"duration": 0.5799999999999841
	},
	{
		"name": "A3",
		"midi": 57,
		"time": 123.61999999999952,
		"velocity": 0.5984251968503937,
		"duration": 0.28000000000000114
	},
	{
		"name": "C4",
		"midi": 60,
		"time": 123.62499999999952,
		"velocity": 0.6771653543307087,
		"duration": 0.28000000000000114
	},
	{
		"name": "C4",
		"midi": 60,
		"time": 123.90499999999952,
		"velocity": 0.6771653543307087,
		"duration": 0.28000000000000114
	},
	{
		"name": "A3",
		"midi": 57,
		"time": 123.91499999999952,
		"velocity": 0.5984251968503937,
		"duration": 0.2849999999999824
	},
	{
		"name": "F2",
		"midi": 41,
		"time": 124.1999999999995,
		"velocity": 0.5984251968503937,
		"duration": 0.5799999999999983
	},
	{
		"name": "A4",
		"midi": 69,
		"time": 124.2049999999995,
		"velocity": 0.6771653543307087,
		"duration": 0.5799999999999983
	},
	{
		"name": "F4",
		"midi": 65,
		"time": 124.2099999999995,
		"velocity": 0.5354330708661418,
		"duration": 0.5799999999999983
	},
	{
		"name": "C3",
		"midi": 48,
		"time": 124.2099999999995,
		"velocity": 0.5984251968503937,
		"duration": 0.5799999999999983
	},
	{
		"name": "A3",
		"midi": 57,
		"time": 124.2099999999995,
		"velocity": 0.5984251968503937,
		"duration": 0.2849999999999966
	},
	{
		"name": "F3",
		"midi": 53,
		"time": 124.21499999999949,
		"velocity": 0.6771653543307087,
		"duration": 0.5799999999999983
	},
	{
		"name": "C4",
		"midi": 60,
		"time": 124.2249999999995,
		"velocity": 0.5984251968503937,
		"duration": 0.28000000000000114
	},
	{
		"name": "C4",
		"midi": 60,
		"time": 124.5049999999995,
		"velocity": 0.5984251968503937,
		"duration": 0.28000000000000114
	},
	{
		"name": "A3",
		"midi": 57,
		"time": 124.5149999999995,
		"velocity": 0.5984251968503937,
		"duration": 0.29999999999999716
	},
	{
		"name": "A4",
		"midi": 69,
		"time": 124.8049999999995,
		"velocity": 0.6771653543307087,
		"duration": 0.5799999999999983
	},
	{
		"name": "A3",
		"midi": 57,
		"time": 124.8049999999995,
		"velocity": 0.6771653543307087,
		"duration": 0.29000000000000625
	},
	{
		"name": "D3",
		"midi": 50,
		"time": 124.8149999999995,
		"velocity": 0.6771653543307087,
		"duration": 0.5799999999999983
	},
	{
		"name": "C4",
		"midi": 60,
		"time": 124.8149999999995,
		"velocity": 0.6771653543307087,
		"duration": 0.5799999999999983
	},
	{
		"name": "A3",
		"midi": 57,
		"time": 125.1149999999995,
		"velocity": 0.5748031496062992,
		"duration": 0.29000000000000625
	},
	{
		"name": "A3",
		"midi": 57,
		"time": 125.3949999999995,
		"velocity": 0.5984251968503937,
		"duration": 0.29000000000000625
	},
	{
		"name": "D3",
		"midi": 50,
		"time": 125.3949999999995,
		"velocity": 0.5984251968503937,
		"duration": 0.5799999999999983
	},
	{
		"name": "A4",
		"midi": 69,
		"time": 125.4049999999995,
		"velocity": 0.6771653543307087,
		"duration": 0.5799999999999983
	},
	{
		"name": "C4",
		"midi": 60,
		"time": 125.4049999999995,
		"velocity": 0.5984251968503937,
		"duration": 0.5799999999999983
	},
	{
		"name": "D4",
		"midi": 62,
		"time": 125.4099999999995,
		"velocity": 0.5984251968503937,
		"duration": 0.5799999999999983
	},
	{
		"name": "A3",
		"midi": 57,
		"time": 125.7049999999995,
		"velocity": 0.6299212598425197,
		"duration": 0.28999999999999204
	},
	{
		"name": "A4",
		"midi": 69,
		"time": 126.0049999999995,
		"velocity": 0.6771653543307087,
		"duration": 0.5799999999999841
	},
	{
		"name": "A3",
		"midi": 57,
		"time": 126.0099999999995,
		"velocity": 0.6771653543307087,
		"duration": 0.28999999999999204
	},
	{
		"name": "D3",
		"midi": 50,
		"time": 126.0099999999995,
		"velocity": 0.6771653543307087,
		"duration": 0.5799999999999841
	},
	{
		"name": "D4",
		"midi": 62,
		"time": 126.01499999999949,
		"velocity": 0.6771653543307087,
		"duration": 0.5799999999999841
	},
	{
		"name": "C4",
		"midi": 60,
		"time": 126.01499999999949,
		"velocity": 0.6771653543307087,
		"duration": 0.5799999999999841
	},
	{
		"name": "A3",
		"midi": 57,
		"time": 126.29999999999949,
		"velocity": 0.5748031496062992,
		"duration": 0.28999999999999204
	},
	{
		"name": "D3",
		"midi": 50,
		"time": 126.59499999999947,
		"velocity": 0.5984251968503937,
		"duration": 0.5799999999999841
	},
	{
		"name": "A4",
		"midi": 69,
		"time": 126.60499999999948,
		"velocity": 0.6771653543307087,
		"duration": 0.5799999999999841
	},
	{
		"name": "A3",
		"midi": 57,
		"time": 126.60999999999947,
		"velocity": 0.5984251968503937,
		"duration": 0.28999999999999204
	},
	{
		"name": "D4",
		"midi": 62,
		"time": 126.61499999999947,
		"velocity": 0.5984251968503937,
		"duration": 0.5799999999999983
	},
	{
		"name": "C4",
		"midi": 60,
		"time": 126.61499999999947,
		"velocity": 0.5984251968503937,
		"duration": 0.5799999999999983
	},
	{
		"name": "A3",
		"midi": 57,
		"time": 126.90499999999946,
		"velocity": 0.6299212598425197,
		"duration": 0.29000000000000625
	},
	{
		"name": "D4",
		"midi": 62,
		"time": 127.19999999999946,
		"velocity": 0.6771653543307087,
		"duration": 0.5799999999999983
	},
	{
		"name": "A#4",
		"midi": 70,
		"time": 127.20999999999947,
		"velocity": 0.6771653543307087,
		"duration": 0.5799999999999841
	},
	{
		"name": "A#2",
		"midi": 46,
		"time": 127.20999999999947,
		"velocity": 0.6771653543307087,
		"duration": 0.5799999999999841
	},
	{
		"name": "A#3",
		"midi": 58,
		"time": 127.20999999999947,
		"velocity": 0.6771653543307087,
		"duration": 0.28999999999999204
	},
	{
		"name": "F3",
		"midi": 53,
		"time": 127.21499999999946,
		"velocity": 0.6771653543307087,
		"duration": 0.28000000000000114
	},
	{
		"name": "F3",
		"midi": 53,
		"time": 127.50499999999946,
		"velocity": 0.5196850393700787,
		"duration": 0.28000000000000114
	},
	{
		"name": "A#3",
		"midi": 58,
		"time": 127.51999999999946,
		"velocity": 0.5748031496062992,
		"duration": 0.28999999999999204
	},
	{
		"name": "A#2",
		"midi": 46,
		"time": 127.78999999999945,
		"velocity": 0.5984251968503937,
		"duration": 0.5799999999999841
	},
	{
		"name": "A#3",
		"midi": 58,
		"time": 127.79999999999946,
		"velocity": 0.5984251968503937,
		"duration": 0.28999999999997783
	},
	{
		"name": "F3",
		"midi": 53,
		"time": 127.80499999999945,
		"velocity": 0.5984251968503937,
		"duration": 0.5799999999999699
	},
	{
		"name": "A#4",
		"midi": 70,
		"time": 127.80999999999945,
		"velocity": 0.6771653543307087,
		"duration": 0.5799999999999699
	},
	{
		"name": "D4",
		"midi": 62,
		"time": 127.81499999999944,
		"velocity": 0.5984251968503937,
		"duration": 0.5799999999999699
	},
	{
		"name": "A#3",
		"midi": 58,
		"time": 128.09999999999943,
		"velocity": 0.6299212598425197,
		"duration": 0.28999999999999204
	},
	{
		"name": "A#2",
		"midi": 46,
		"time": 128.4049999999994,
		"velocity": 0.6771653543307087,
		"duration": 0.5799999999999841
	},
	{
		"name": "A#4",
		"midi": 70,
		"time": 128.4099999999994,
		"velocity": 0.6771653543307087,
		"duration": 0.5799999999999841
	},
	{
		"name": "A#3",
		"midi": 58,
		"time": 128.4149999999994,
		"velocity": 0.6771653543307087,
		"duration": 0.28999999999999204
	},
	{
		"name": "F3",
		"midi": 53,
		"time": 128.4149999999994,
		"velocity": 0.6771653543307087,
		"duration": 0.2750000000000057
	},
	{
		"name": "D4",
		"midi": 62,
		"time": 128.4199999999994,
		"velocity": 0.6771653543307087,
		"duration": 0.5799999999999841
	},
	{
		"name": "A#3",
		"midi": 58,
		"time": 128.7049999999994,
		"velocity": 0.5748031496062992,
		"duration": 0.28999999999999204
	},
	{
		"name": "F3",
		"midi": 53,
		"time": 128.7049999999994,
		"velocity": 0.5196850393700787,
		"duration": 0.2750000000000057
	},
	{
		"name": "A#2",
		"midi": 46,
		"time": 128.98999999999938,
		"velocity": 0.5984251968503937,
		"duration": 0.5799999999999557
	},
	{
		"name": "A#4",
		"midi": 70,
		"time": 129.00999999999937,
		"velocity": 0.6771653543307087,
		"duration": 0.5799999999999841
	},
	{
		"name": "F3",
		"midi": 53,
		"time": 129.01499999999936,
		"velocity": 0.5984251968503937,
		"duration": 0.5799999999999841
	},
	{
		"name": "A#3",
		"midi": 58,
		"time": 129.01499999999936,
		"velocity": 0.5984251968503937,
		"duration": 0.28999999999999204
	},
	{
		"name": "D4",
		"midi": 62,
		"time": 129.01999999999936,
		"velocity": 0.5984251968503937,
		"duration": 0.5799999999999841
	},
	{
		"name": "C4",
		"midi": 60,
		"time": 129.30999999999935,
		"velocity": 0.6535433070866141,
		"duration": 0.28999999999999204
	},
	{
		"name": "A4",
		"midi": 69,
		"time": 129.60499999999934,
		"velocity": 0.6771653543307087,
		"duration": 0.5799999999999841
	},
	{
		"name": "A3",
		"midi": 57,
		"time": 129.60499999999934,
		"velocity": 0.6771653543307087,
		"duration": 0.28999999999999204
	},
	{
		"name": "C3",
		"midi": 48,
		"time": 129.60499999999934,
		"velocity": 0.6771653543307087,
		"duration": 0.5799999999999841
	},
	{
		"name": "F3",
		"midi": 53,
		"time": 129.60999999999933,
		"velocity": 0.6771653543307087,
		"duration": 0.3049999999999784
	},
	{
		"name": "F4",
		"midi": 65,
		"time": 129.60999999999933,
		"velocity": 0.48031496062992124,
		"duration": 0.5799999999999841
	},
	{
		"name": "F2",
		"midi": 41,
		"time": 129.60999999999933,
		"velocity": 0.6771653543307087,
		"duration": 0.5799999999999841
	},
	{
		"name": "C4",
		"midi": 60,
		"time": 129.61499999999933,
		"velocity": 0.6771653543307087,
		"duration": 0.5799999999999841
	},
	{
		"name": "F3",
		"midi": 53,
		"time": 129.90499999999932,
		"velocity": 0.6771653543307087,
		"duration": 0.3049999999999784
	},
	{
		"name": "A3",
		"midi": 57,
		"time": 129.9149999999993,
		"velocity": 0.5748031496062992,
		"duration": 0.28999999999999204
	},
	{
		"name": "F2",
		"midi": 41,
		"time": 130.18999999999932,
		"velocity": 0.5984251968503937,
		"duration": 0.5799999999999841
	},
	{
		"name": "C3",
		"midi": 48,
		"time": 130.1949999999993,
		"velocity": 0.5984251968503937,
		"duration": 0.5799999999999841
	},
	{
		"name": "A3",
		"midi": 57,
		"time": 130.1949999999993,
		"velocity": 0.5984251968503937,
		"duration": 0.28999999999999204
	},
	{
		"name": "F4",
		"midi": 65,
		"time": 130.1999999999993,
		"velocity": 0.4251968503937008,
		"duration": 0.5799999999999841
	},
	{
		"name": "C4",
		"midi": 60,
		"time": 130.2049999999993,
		"velocity": 0.5984251968503937,
		"duration": 0.5799999999999841
	},
	{
		"name": "A4",
		"midi": 69,
		"time": 130.2049999999993,
		"velocity": 0.6771653543307087,
		"duration": 0.5799999999999841
	},
	{
		"name": "F3",
		"midi": 53,
		"time": 130.2049999999993,
		"velocity": 0.5984251968503937,
		"duration": 0.30000000000001137
	},
	{
		"name": "A3",
		"midi": 57,
		"time": 130.5049999999993,
		"velocity": 0.6299212598425197,
		"duration": 0.2899999999999636
	},
	{
		"name": "F3",
		"midi": 53,
		"time": 130.5049999999993,
		"velocity": 0.5984251968503937,
		"duration": 0.2999999999999545
	},
	{
		"name": "A4",
		"midi": 69,
		"time": 130.80499999999927,
		"velocity": 0.6771653543307087,
		"duration": 0.5799999999999841
	},
	{
		"name": "F2",
		"midi": 41,
		"time": 130.80499999999927,
		"velocity": 0.6771653543307087,
		"duration": 0.5799999999999841
	},
	{
		"name": "F3",
		"midi": 53,
		"time": 130.80499999999927,
		"velocity": 0.6771653543307087,
		"duration": 0.29999999999998295
	},
	{
		"name": "C3",
		"midi": 48,
		"time": 130.80499999999927,
		"velocity": 0.6771653543307087,
		"duration": 0.5799999999999841
	},
	{
		"name": "F4",
		"midi": 65,
		"time": 130.80999999999926,
		"velocity": 0.48031496062992124,
		"duration": 0.5799999999999841
	},
	{
		"name": "A3",
		"midi": 57,
		"time": 130.80999999999926,
		"velocity": 0.6771653543307087,
		"duration": 0.28999999999999204
	},
	{
		"name": "C4",
		"midi": 60,
		"time": 130.81499999999926,
		"velocity": 0.6771653543307087,
		"duration": 0.5799999999999841
	},
	{
		"name": "A3",
		"midi": 57,
		"time": 131.09999999999926,
		"velocity": 0.5748031496062992,
		"duration": 0.28999999999999204
	},
	{
		"name": "F3",
		"midi": 53,
		"time": 131.10499999999925,
		"velocity": 0.5984251968503937,
		"duration": 0.29999999999998295
	},
	{
		"name": "F2",
		"midi": 41,
		"time": 131.38999999999925,
		"velocity": 0.5984251968503937,
		"duration": 0.5799999999999557
	},
	{
		"name": "C3",
		"midi": 48,
		"time": 131.40499999999923,
		"velocity": 0.5984251968503937,
		"duration": 0.5799999999999557
	},
	{
		"name": "A4",
		"midi": 69,
		"time": 131.40499999999923,
		"velocity": 0.6771653543307087,
		"duration": 0.5799999999999557
	},
	{
		"name": "F3",
		"midi": 53,
		"time": 131.40499999999923,
		"velocity": 0.5984251968503937,
		"duration": 0.29999999999998295
	},
	{
		"name": "F4",
		"midi": 65,
		"time": 131.40999999999923,
		"velocity": 0.4251968503937008,
		"duration": 0.5799999999999557
	},
	{
		"name": "A3",
		"midi": 57,
		"time": 131.40999999999923,
		"velocity": 0.5984251968503937,
		"duration": 0.28999999999999204
	},
	{
		"name": "C4",
		"midi": 60,
		"time": 131.41499999999922,
		"velocity": 0.5984251968503937,
		"duration": 0.5799999999999557
	},
	{
		"name": "F3",
		"midi": 53,
		"time": 131.70499999999922,
		"velocity": 0.5984251968503937,
		"duration": 0.2999999999999545
	},
	{
		"name": "A3",
		"midi": 57,
		"time": 131.70499999999922,
		"velocity": 0.6299212598425197,
		"duration": 0.2899999999999636
	},
	{
		"name": "F4",
		"midi": 65,
		"time": 131.99999999999918,
		"velocity": 0.5354330708661418,
		"duration": 0.5799999999999557
	},
	{
		"name": "A3",
		"midi": 57,
		"time": 132.00499999999917,
		"velocity": 0.6771653543307087,
		"duration": 0.3049999999999784
	},
	{
		"name": "A4",
		"midi": 69,
		"time": 132.00499999999917,
		"velocity": 0.6771653543307087,
		"duration": 0.5799999999999557
	},
	{
		"name": "C3",
		"midi": 48,
		"time": 132.00999999999917,
		"velocity": 0.6771653543307087,
		"duration": 0.5799999999999557
	},
	{
		"name": "F3",
		"midi": 53,
		"time": 132.01499999999916,
		"velocity": 0.6771653543307087,
		"duration": 0.5799999999999557
	},
	{
		"name": "F2",
		"midi": 41,
		"time": 132.01999999999916,
		"velocity": 0.6771653543307087,
		"duration": 0.5799999999999557
	},
	{
		"name": "C4",
		"midi": 60,
		"time": 132.02499999999915,
		"velocity": 0.6771653543307087,
		"duration": 0.28000000000000114
	},
	{
		"name": "A3",
		"midi": 57,
		"time": 132.31499999999915,
		"velocity": 0.6771653543307087,
		"duration": 0.30499999999995
	},
	{
		"name": "C4",
		"midi": 60,
		"time": 132.31499999999915,
		"velocity": 0.6771653543307087,
		"duration": 0.2799999999999727
	},
	{
		"name": "C3",
		"midi": 48,
		"time": 132.5999999999991,
		"velocity": 0.5984251968503937,
		"duration": 0.5799999999999557
	},
	{
		"name": "F2",
		"midi": 41,
		"time": 132.5999999999991,
		"velocity": 0.5984251968503937,
		"duration": 0.5799999999999557
	},
	{
		"name": "F4",
		"midi": 65,
		"time": 132.6049999999991,
		"velocity": 0.5354330708661418,
		"duration": 0.5799999999999557
	},
	{
		"name": "A4",
		"midi": 69,
		"time": 132.6049999999991,
		"velocity": 0.6771653543307087,
		"duration": 0.5799999999999557
	},
	{
		"name": "F3",
		"midi": 53,
		"time": 132.6149999999991,
		"velocity": 0.6771653543307087,
		"duration": 0.5799999999999557
	},
	{
		"name": "C4",
		"midi": 60,
		"time": 132.6149999999991,
		"velocity": 0.5984251968503937,
		"duration": 0.28999999999999204
	},
	{
		"name": "A3",
		"midi": 57,
		"time": 132.6249999999991,
		"velocity": 0.6771653543307087,
		"duration": 0.3049999999999784
	},
	{
		"name": "C4",
		"midi": 60,
		"time": 132.9049999999991,
		"velocity": 0.5984251968503937,
		"duration": 0.2899999999999636
	},
	{
		"name": "A3",
		"midi": 57,
		"time": 132.91499999999908,
		"velocity": 0.5984251968503937,
		"duration": 0.2799999999999727
	},
	{
		"name": "A4",
		"midi": 69,
		"time": 133.20499999999905,
		"velocity": 0.6771653543307087,
		"duration": 0.5799999999999841
	},
	{
		"name": "C3",
		"midi": 48,
		"time": 133.20999999999904,
		"velocity": 0.6771653543307087,
		"duration": 0.5799999999999841
	},
	{
		"name": "F4",
		"midi": 65,
		"time": 133.20999999999904,
		"velocity": 0.5354330708661418,
		"duration": 0.5799999999999841
	},
	{
		"name": "F2",
		"midi": 41,
		"time": 133.21499999999904,
		"velocity": 0.6771653543307087,
		"duration": 0.5799999999999841
	},
	{
		"name": "F3",
		"midi": 53,
		"time": 133.21999999999903,
		"velocity": 0.6771653543307087,
		"duration": 0.5799999999999841
	},
	{
		"name": "A3",
		"midi": 57,
		"time": 133.21999999999903,
		"velocity": 0.5984251968503937,
		"duration": 0.28000000000000114
	},
	{
		"name": "C4",
		"midi": 60,
		"time": 133.22499999999903,
		"velocity": 0.6771653543307087,
		"duration": 0.28000000000000114
	},
	{
		"name": "C4",
		"midi": 60,
		"time": 133.50499999999903,
		"velocity": 0.6771653543307087,
		"duration": 0.28000000000000114
	},
	{
		"name": "A3",
		"midi": 57,
		"time": 133.51499999999902,
		"velocity": 0.5984251968503937,
		"duration": 0.2849999999999966
	},
	{
		"name": "F2",
		"midi": 41,
		"time": 133.79999999999902,
		"velocity": 0.5984251968503937,
		"duration": 0.5799999999999557
	},
	{
		"name": "A4",
		"midi": 69,
		"time": 133.804999999999,
		"velocity": 0.6771653543307087,
		"duration": 0.5799999999999557
	},
	{
		"name": "F4",
		"midi": 65,
		"time": 133.809999999999,
		"velocity": 0.5354330708661418,
		"duration": 0.5799999999999557
	},
	{
		"name": "C3",
		"midi": 48,
		"time": 133.809999999999,
		"velocity": 0.5984251968503937,
		"duration": 0.5799999999999557
	},
	{
		"name": "A3",
		"midi": 57,
		"time": 133.809999999999,
		"velocity": 0.5984251968503937,
		"duration": 0.2849999999999966
	},
	{
		"name": "F3",
		"midi": 53,
		"time": 133.814999999999,
		"velocity": 0.6771653543307087,
		"duration": 0.5799999999999557
	},
	{
		"name": "C4",
		"midi": 60,
		"time": 133.824999999999,
		"velocity": 0.5984251968503937,
		"duration": 0.28000000000000114
	},
	{
		"name": "C4",
		"midi": 60,
		"time": 134.104999999999,
		"velocity": 0.5984251968503937,
		"duration": 0.2799999999999727
	},
	{
		"name": "A3",
		"midi": 57,
		"time": 134.114999999999,
		"velocity": 0.5984251968503937,
		"duration": 0.2999999999999545
	},
	{
		"name": "A4",
		"midi": 69,
		"time": 134.40499999999895,
		"velocity": 0.6771653543307087,
		"duration": 0.5800000000000125
	},
	{
		"name": "A3",
		"midi": 57,
		"time": 134.40499999999895,
		"velocity": 0.6771653543307087,
		"duration": 0.28999999999999204
	},
	{
		"name": "D3",
		"midi": 50,
		"time": 134.41499999999894,
		"velocity": 0.6771653543307087,
		"duration": 0.5800000000000125
	},
	{
		"name": "C4",
		"midi": 60,
		"time": 134.41499999999894,
		"velocity": 0.6771653543307087,
		"duration": 0.5800000000000125
	},
	{
		"name": "A3",
		"midi": 57,
		"time": 134.71499999999895,
		"velocity": 0.5748031496062992,
		"duration": 0.28999999999999204
	},
	{
		"name": "A3",
		"midi": 57,
		"time": 134.99499999999895,
		"velocity": 0.5984251968503937,
		"duration": 0.28999999999999204
	},
	{
		"name": "D3",
		"midi": 50,
		"time": 134.99499999999895,
		"velocity": 0.5984251968503937,
		"duration": 0.5800000000000125
	},
	{
		"name": "A4",
		"midi": 69,
		"time": 135.00499999999894,
		"velocity": 0.6771653543307087,
		"duration": 0.5800000000000125
	},
	{
		"name": "C4",
		"midi": 60,
		"time": 135.00499999999894,
		"velocity": 0.5984251968503937,
		"duration": 0.5800000000000125
	},
	{
		"name": "D4",
		"midi": 62,
		"time": 135.00999999999894,
		"velocity": 0.5984251968503937,
		"duration": 0.5800000000000125
	},
	{
		"name": "A3",
		"midi": 57,
		"time": 135.30499999999896,
		"velocity": 0.6299212598425197,
		"duration": 0.28999999999999204
	},
	{
		"name": "A4",
		"midi": 69,
		"time": 135.60499999999894,
		"velocity": 0.6771653543307087,
		"duration": 0.5799999999999841
	},
	{
		"name": "A3",
		"midi": 57,
		"time": 135.60999999999893,
		"velocity": 0.6771653543307087,
		"duration": 0.28999999999999204
	},
	{
		"name": "D3",
		"midi": 50,
		"time": 135.60999999999893,
		"velocity": 0.6771653543307087,
		"duration": 0.5799999999999841
	},
	{
		"name": "D4",
		"midi": 62,
		"time": 135.61499999999893,
		"velocity": 0.6771653543307087,
		"duration": 0.5799999999999841
	},
	{
		"name": "C4",
		"midi": 60,
		"time": 135.61499999999893,
		"velocity": 0.6771653543307087,
		"duration": 0.5799999999999841
	},
	{
		"name": "A3",
		"midi": 57,
		"time": 135.89999999999893,
		"velocity": 0.5748031496062992,
		"duration": 0.28999999999999204
	},
	{
		"name": "D3",
		"midi": 50,
		"time": 136.1949999999989,
		"velocity": 0.5984251968503937,
		"duration": 0.5799999999999841
	},
	{
		"name": "A4",
		"midi": 69,
		"time": 136.2049999999989,
		"velocity": 0.6771653543307087,
		"duration": 0.5799999999999841
	},
	{
		"name": "A3",
		"midi": 57,
		"time": 136.2099999999989,
		"velocity": 0.5984251968503937,
		"duration": 0.28999999999999204
	},
	{
		"name": "D4",
		"midi": 62,
		"time": 136.2149999999989,
		"velocity": 0.5984251968503937,
		"duration": 0.5799999999999841
	},
	{
		"name": "C4",
		"midi": 60,
		"time": 136.2149999999989,
		"velocity": 0.5984251968503937,
		"duration": 0.5799999999999841
	},
	{
		"name": "A3",
		"midi": 57,
		"time": 136.5049999999989,
		"velocity": 0.6299212598425197,
		"duration": 0.28999999999999204
	},
	{
		"name": "D4",
		"midi": 62,
		"time": 136.79999999999887,
		"velocity": 0.6771653543307087,
		"duration": 0.5799999999999557
	},
	{
		"name": "A#4",
		"midi": 70,
		"time": 136.80999999999887,
		"velocity": 0.6771653543307087,
		"duration": 0.5799999999999557
	},
	{
		"name": "A#2",
		"midi": 46,
		"time": 136.80999999999887,
		"velocity": 0.6771653543307087,
		"duration": 0.5799999999999557
	},
	{
		"name": "A#3",
		"midi": 58,
		"time": 136.80999999999887,
		"velocity": 0.6771653543307087,
		"duration": 0.28999999999999204
	},
	{
		"name": "F3",
		"midi": 53,
		"time": 136.81499999999886,
		"velocity": 0.6771653543307087,
		"duration": 0.28000000000000114
	},
	{
		"name": "F3",
		"midi": 53,
		"time": 137.10499999999885,
		"velocity": 0.5196850393700787,
		"duration": 0.2799999999999727
	},
	{
		"name": "A#3",
		"midi": 58,
		"time": 137.11999999999884,
		"velocity": 0.5748031496062992,
		"duration": 0.2899999999999636
	},
	{
		"name": "A#2",
		"midi": 46,
		"time": 137.38999999999882,
		"velocity": 0.5984251968503937,
		"duration": 0.5799999999999841
	},
	{
		"name": "A#3",
		"midi": 58,
		"time": 137.3999999999988,
		"velocity": 0.5984251968503937,
		"duration": 0.28999999999999204
	},
	{
		"name": "F3",
		"midi": 53,
		"time": 137.4049999999988,
		"velocity": 0.5984251968503937,
		"duration": 0.5799999999999841
	},
	{
		"name": "A#4",
		"midi": 70,
		"time": 137.4099999999988,
		"velocity": 0.6771653543307087,
		"duration": 0.5799999999999841
	},
	{
		"name": "D4",
		"midi": 62,
		"time": 137.4149999999988,
		"velocity": 0.5984251968503937,
		"duration": 0.5799999999999841
	},
	{
		"name": "A#3",
		"midi": 58,
		"time": 137.6999999999988,
		"velocity": 0.6299212598425197,
		"duration": 0.28999999999999204
	},
	{
		"name": "A#2",
		"midi": 46,
		"time": 138.00499999999877,
		"velocity": 0.6771653543307087,
		"duration": 0.5799999999999841
	},
	{
		"name": "A#4",
		"midi": 70,
		"time": 138.00999999999877,
		"velocity": 0.6771653543307087,
		"duration": 0.5799999999999841
	},
	{
		"name": "A#3",
		"midi": 58,
		"time": 138.01499999999876,
		"velocity": 0.6771653543307087,
		"duration": 0.28999999999999204
	},
	{
		"name": "F3",
		"midi": 53,
		"time": 138.01499999999876,
		"velocity": 0.6771653543307087,
		"duration": 0.2750000000000057
	},
	{
		"name": "D4",
		"midi": 62,
		"time": 138.01999999999876,
		"velocity": 0.6771653543307087,
		"duration": 0.5799999999999841
	},
	{
		"name": "A#3",
		"midi": 58,
		"time": 138.30499999999876,
		"velocity": 0.5748031496062992,
		"duration": 0.28999999999999204
	},
	{
		"name": "F3",
		"midi": 53,
		"time": 138.30499999999876,
		"velocity": 0.5196850393700787,
		"duration": 0.2750000000000057
	},
	{
		"name": "A#2",
		"midi": 46,
		"time": 138.58999999999875,
		"velocity": 0.5984251968503937,
		"duration": 0.5799999999999557
	},
	{
		"name": "A#4",
		"midi": 70,
		"time": 138.60999999999873,
		"velocity": 0.6771653543307087,
		"duration": 0.5799999999999841
	},
	{
		"name": "F3",
		"midi": 53,
		"time": 138.61499999999873,
		"velocity": 0.5984251968503937,
		"duration": 0.5799999999999841
	},
	{
		"name": "A#3",
		"midi": 58,
		"time": 138.61499999999873,
		"velocity": 0.5984251968503937,
		"duration": 0.28999999999999204
	},
	{
		"name": "D4",
		"midi": 62,
		"time": 138.61999999999873,
		"velocity": 0.5984251968503937,
		"duration": 0.5799999999999841
	},
	{
		"name": "C4",
		"midi": 60,
		"time": 138.90999999999872,
		"velocity": 0.6535433070866141,
		"duration": 0.28999999999999204
	},
	{
		"name": "A4",
		"midi": 69,
		"time": 139.2049999999987,
		"velocity": 0.6771653543307087,
		"duration": 0.5799999999999841
	},
	{
		"name": "A3",
		"midi": 57,
		"time": 139.2049999999987,
		"velocity": 0.6771653543307087,
		"duration": 0.28999999999999204
	},
	{
		"name": "C3",
		"midi": 48,
		"time": 139.2049999999987,
		"velocity": 0.6771653543307087,
		"duration": 0.5799999999999841
	},
	{
		"name": "F3",
		"midi": 53,
		"time": 139.2099999999987,
		"velocity": 0.6771653543307087,
		"duration": 0.3049999999999784
	},
	{
		"name": "F4",
		"midi": 65,
		"time": 139.2099999999987,
		"velocity": 0.48031496062992124,
		"duration": 0.5799999999999841
	},
	{
		"name": "F2",
		"midi": 41,
		"time": 139.2099999999987,
		"velocity": 0.6771653543307087,
		"duration": 0.5799999999999841
	},
	{
		"name": "C4",
		"midi": 60,
		"time": 139.2149999999987,
		"velocity": 0.6771653543307087,
		"duration": 0.5799999999999841
	},
	{
		"name": "F3",
		"midi": 53,
		"time": 139.5049999999987,
		"velocity": 0.6771653543307087,
		"duration": 0.3049999999999784
	},
	{
		"name": "A3",
		"midi": 57,
		"time": 139.51499999999868,
		"velocity": 0.5748031496062992,
		"duration": 0.28999999999999204
	},
	{
		"name": "F2",
		"midi": 41,
		"time": 139.78999999999868,
		"velocity": 0.5984251968503937,
		"duration": 0.5799999999999841
	},
	{
		"name": "C3",
		"midi": 48,
		"time": 139.79499999999868,
		"velocity": 0.5984251968503937,
		"duration": 0.5799999999999841
	},
	{
		"name": "A3",
		"midi": 57,
		"time": 139.79499999999868,
		"velocity": 0.5984251968503937,
		"duration": 0.28999999999999204
	},
	{
		"name": "F4",
		"midi": 65,
		"time": 139.79999999999868,
		"velocity": 0.4251968503937008,
		"duration": 0.5799999999999841
	},
	{
		"name": "C4",
		"midi": 60,
		"time": 139.80499999999867,
		"velocity": 0.5984251968503937,
		"duration": 0.5799999999999841
	},
	{
		"name": "A4",
		"midi": 69,
		"time": 139.80499999999867,
		"velocity": 0.6771653543307087,
		"duration": 0.5799999999999841
	},
	{
		"name": "F3",
		"midi": 53,
		"time": 139.80499999999867,
		"velocity": 0.5984251968503937,
		"duration": 0.30000000000001137
	},
	{
		"name": "A3",
		"midi": 57,
		"time": 140.10499999999868,
		"velocity": 0.6299212598425197,
		"duration": 0.2899999999999636
	},
	{
		"name": "F3",
		"midi": 53,
		"time": 140.10499999999868,
		"velocity": 0.5984251968503937,
		"duration": 0.2999999999999545
	},
	{
		"name": "A4",
		"midi": 69,
		"time": 140.40499999999864,
		"velocity": 0.6771653543307087,
		"duration": 0.5799999999999841
	},
	{
		"name": "F2",
		"midi": 41,
		"time": 140.40499999999864,
		"velocity": 0.6771653543307087,
		"duration": 0.5799999999999841
	},
	{
		"name": "F3",
		"midi": 53,
		"time": 140.40499999999864,
		"velocity": 0.6771653543307087,
		"duration": 0.29999999999998295
	},
	{
		"name": "C3",
		"midi": 48,
		"time": 140.40499999999864,
		"velocity": 0.6771653543307087,
		"duration": 0.5799999999999841
	},
	{
		"name": "F4",
		"midi": 65,
		"time": 140.40999999999863,
		"velocity": 0.48031496062992124,
		"duration": 0.5799999999999841
	},
	{
		"name": "A3",
		"midi": 57,
		"time": 140.40999999999863,
		"velocity": 0.6771653543307087,
		"duration": 0.28999999999999204
	},
	{
		"name": "C4",
		"midi": 60,
		"time": 140.41499999999863,
		"velocity": 0.6771653543307087,
		"duration": 0.5799999999999841
	},
	{
		"name": "A3",
		"midi": 57,
		"time": 140.69999999999862,
		"velocity": 0.5748031496062992,
		"duration": 0.28999999999999204
	},
	{
		"name": "F3",
		"midi": 53,
		"time": 140.70499999999862,
		"velocity": 0.5984251968503937,
		"duration": 0.29999999999998295
	},
	{
		"name": "F2",
		"midi": 41,
		"time": 140.98999999999862,
		"velocity": 0.5984251968503937,
		"duration": 0.5799999999999557
	},
	{
		"name": "C3",
		"midi": 48,
		"time": 141.0049999999986,
		"velocity": 0.5984251968503937,
		"duration": 0.5799999999999557
	},
	{
		"name": "A4",
		"midi": 69,
		"time": 141.0049999999986,
		"velocity": 0.6771653543307087,
		"duration": 0.5799999999999557
	},
	{
		"name": "F3",
		"midi": 53,
		"time": 141.0049999999986,
		"velocity": 0.5984251968503937,
		"duration": 0.29999999999998295
	},
	{
		"name": "F4",
		"midi": 65,
		"time": 141.0099999999986,
		"velocity": 0.4251968503937008,
		"duration": 0.5799999999999557
	},
	{
		"name": "A3",
		"midi": 57,
		"time": 141.0099999999986,
		"velocity": 0.5984251968503937,
		"duration": 0.28999999999999204
	},
	{
		"name": "C4",
		"midi": 60,
		"time": 141.0149999999986,
		"velocity": 0.5984251968503937,
		"duration": 0.5799999999999557
	},
	{
		"name": "F3",
		"midi": 53,
		"time": 141.30499999999859,
		"velocity": 0.5984251968503937,
		"duration": 0.2999999999999545
	},
	{
		"name": "A3",
		"midi": 57,
		"time": 141.30499999999859,
		"velocity": 0.6299212598425197,
		"duration": 0.2899999999999636
	},
	{
		"name": "F4",
		"midi": 65,
		"time": 141.59999999999854,
		"velocity": 0.5354330708661418,
		"duration": 0.5799999999999557
	},
	{
		"name": "A3",
		"midi": 57,
		"time": 141.60499999999854,
		"velocity": 0.6771653543307087,
		"duration": 0.3049999999999784
	},
	{
		"name": "A4",
		"midi": 69,
		"time": 141.60499999999854,
		"velocity": 0.6771653543307087,
		"duration": 0.5799999999999557
	},
	{
		"name": "C3",
		"midi": 48,
		"time": 141.60999999999854,
		"velocity": 0.6771653543307087,
		"duration": 0.5799999999999557
	},
	{
		"name": "F3",
		"midi": 53,
		"time": 141.61499999999853,
		"velocity": 0.6771653543307087,
		"duration": 0.5799999999999557
	},
	{
		"name": "F2",
		"midi": 41,
		"time": 141.61999999999853,
		"velocity": 0.6771653543307087,
		"duration": 0.5799999999999557
	},
	{
		"name": "C4",
		"midi": 60,
		"time": 141.62499999999852,
		"velocity": 0.6771653543307087,
		"duration": 0.28000000000000114
	},
	{
		"name": "A3",
		"midi": 57,
		"time": 141.9149999999985,
		"velocity": 0.6771653543307087,
		"duration": 0.30499999999995
	},
	{
		"name": "C4",
		"midi": 60,
		"time": 141.9149999999985,
		"velocity": 0.6771653543307087,
		"duration": 0.2799999999999727
	},
	{
		"name": "C3",
		"midi": 48,
		"time": 142.19999999999848,
		"velocity": 0.5984251968503937,
		"duration": 0.5799999999999557
	},
	{
		"name": "F2",
		"midi": 41,
		"time": 142.19999999999848,
		"velocity": 0.5984251968503937,
		"duration": 0.5799999999999557
	},
	{
		"name": "F4",
		"midi": 65,
		"time": 142.20499999999848,
		"velocity": 0.5354330708661418,
		"duration": 0.5799999999999557
	},
	{
		"name": "A4",
		"midi": 69,
		"time": 142.20499999999848,
		"velocity": 0.6771653543307087,
		"duration": 0.5799999999999557
	},
	{
		"name": "F3",
		"midi": 53,
		"time": 142.21499999999847,
		"velocity": 0.6771653543307087,
		"duration": 0.5799999999999557
	},
	{
		"name": "C4",
		"midi": 60,
		"time": 142.21499999999847,
		"velocity": 0.5984251968503937,
		"duration": 0.28999999999999204
	},
	{
		"name": "A3",
		"midi": 57,
		"time": 142.22499999999846,
		"velocity": 0.6771653543307087,
		"duration": 0.3049999999999784
	},
	{
		"name": "C4",
		"midi": 60,
		"time": 142.50499999999846,
		"velocity": 0.5984251968503937,
		"duration": 0.2899999999999636
	},
	{
		"name": "A3",
		"midi": 57,
		"time": 142.51499999999845,
		"velocity": 0.5984251968503937,
		"duration": 0.2799999999999727
	},
	{
		"name": "A4",
		"midi": 69,
		"time": 142.80499999999842,
		"velocity": 0.6771653543307087,
		"duration": 0.5799999999999841
	},
	{
		"name": "C3",
		"midi": 48,
		"time": 142.8099999999984,
		"velocity": 0.6771653543307087,
		"duration": 0.5799999999999841
	},
	{
		"name": "E4",
		"midi": 64,
		"time": 142.8099999999984,
		"velocity": 0.5354330708661418,
		"duration": 0.5799999999999841
	},
	{
		"name": "E2",
		"midi": 40,
		"time": 142.8149999999984,
		"velocity": 0.6771653543307087,
		"duration": 0.5799999999999841
	},
	{
		"name": "E3",
		"midi": 52,
		"time": 142.8199999999984,
		"velocity": 0.6771653543307087,
		"duration": 0.5799999999999841
	},
	{
		"name": "A3",
		"midi": 57,
		"time": 142.8199999999984,
		"velocity": 0.5984251968503937,
		"duration": 0.28000000000000114
	},
	{
		"name": "C4",
		"midi": 60,
		"time": 142.8249999999984,
		"velocity": 0.6771653543307087,
		"duration": 0.28000000000000114
	},
	{
		"name": "C4",
		"midi": 60,
		"time": 143.1049999999984,
		"velocity": 0.6771653543307087,
		"duration": 0.28000000000000114
	},
	{
		"name": "A3",
		"midi": 57,
		"time": 143.1149999999984,
		"velocity": 0.5984251968503937,
		"duration": 0.2849999999999966
	},
	{
		"name": "E2",
		"midi": 40,
		"time": 143.39999999999839,
		"velocity": 0.5984251968503937,
		"duration": 0.5799999999999557
	},
	{
		"name": "A4",
		"midi": 69,
		"time": 143.40499999999838,
		"velocity": 0.6771653543307087,
		"duration": 0.5799999999999557
	},
	{
		"name": "E4",
		"midi": 64,
		"time": 143.40999999999838,
		"velocity": 0.5354330708661418,
		"duration": 0.5799999999999557
	},
	{
		"name": "C3",
		"midi": 48,
		"time": 143.40999999999838,
		"velocity": 0.5984251968503937,
		"duration": 0.5799999999999557
	},
	{
		"name": "A3",
		"midi": 57,
		"time": 143.40999999999838,
		"velocity": 0.5984251968503937,
		"duration": 0.2849999999999966
	},
	{
		"name": "E3",
		"midi": 52,
		"time": 143.41499999999837,
		"velocity": 0.6771653543307087,
		"duration": 0.5799999999999557
	},
	{
		"name": "C4",
		"midi": 60,
		"time": 143.42499999999836,
		"velocity": 0.5984251968503937,
		"duration": 0.28000000000000114
	},
	{
		"name": "C4",
		"midi": 60,
		"time": 143.70499999999836,
		"velocity": 0.5984251968503937,
		"duration": 0.2799999999999727
	},
	{
		"name": "A3",
		"midi": 57,
		"time": 143.71499999999835,
		"velocity": 0.5984251968503937,
		"duration": 0.2999999999999545
	},
	{
		"name": "A#4",
		"midi": 70,
		"time": 144.00499999999832,
		"velocity": 0.6771653543307087,
		"duration": 0.5799999999999841
	},
	{
		"name": "D4",
		"midi": 62,
		"time": 144.00499999999832,
		"velocity": 0.6771653543307087,
		"duration": 0.5799999999999841
	},
	{
		"name": "A#3",
		"midi": 58,
		"time": 144.00499999999832,
		"velocity": 0.6771653543307087,
		"duration": 0.28999999999999204
	},
	{
		"name": "A#2",
		"midi": 46,
		"time": 144.00499999999832,
		"velocity": 0.6771653543307087,
		"duration": 0.5799999999999841
	},
	{
		"name": "F3",
		"midi": 53,
		"time": 144.0099999999983,
		"velocity": 0.6771653543307087,
		"duration": 0.3049999999999784
	},
	{
		"name": "F4",
		"midi": 65,
		"time": 144.0099999999983,
		"velocity": 0.48031496062992124,
		"duration": 0.5799999999999841
	},
	{
		"name": "F3",
		"midi": 53,
		"time": 144.3049999999983,
		"velocity": 0.6771653543307087,
		"duration": 0.3049999999999784
	},
	{
		"name": "A#3",
		"midi": 58,
		"time": 144.3149999999983,
		"velocity": 0.5748031496062992,
		"duration": 0.28999999999999204
	},
	{
		"name": "D4",
		"midi": 62,
		"time": 144.5949999999983,
		"velocity": 0.5984251968503937,
		"duration": 0.5800000000000125
	},
	{
		"name": "A#3",
		"midi": 58,
		"time": 144.5949999999983,
		"velocity": 0.5984251968503937,
		"duration": 0.28999999999999204
	},
	{
		"name": "A#2",
		"midi": 46,
		"time": 144.5949999999983,
		"velocity": 0.5984251968503937,
		"duration": 0.5800000000000125
	},
	{
		"name": "F4",
		"midi": 65,
		"time": 144.5999999999983,
		"velocity": 0.4251968503937008,
		"duration": 0.5800000000000125
	},
	{
		"name": "F3",
		"midi": 53,
		"time": 144.60499999999828,
		"velocity": 0.5984251968503937,
		"duration": 0.30000000000001137
	},
	{
		"name": "A#4",
		"midi": 70,
		"time": 144.60499999999828,
		"velocity": 0.6771653543307087,
		"duration": 0.5800000000000125
	},
	{
		"name": "F3",
		"midi": 53,
		"time": 144.9049999999983,
		"velocity": 0.5984251968503937,
		"duration": 0.29999999999998295
	},
	{
		"name": "A#3",
		"midi": 58,
		"time": 144.9049999999983,
		"velocity": 0.6299212598425197,
		"duration": 0.28999999999999204
	},
	{
		"name": "A#4",
		"midi": 70,
		"time": 145.20499999999828,
		"velocity": 0.6771653543307087,
		"duration": 0.5799999999999841
	},
	{
		"name": "A#2",
		"midi": 46,
		"time": 145.20499999999828,
		"velocity": 0.6771653543307087,
		"duration": 0.5799999999999841
	},
	{
		"name": "F3",
		"midi": 53,
		"time": 145.20499999999828,
		"velocity": 0.6771653543307087,
		"duration": 0.29999999999998295
	},
	{
		"name": "D4",
		"midi": 62,
		"time": 145.20499999999828,
		"velocity": 0.6771653543307087,
		"duration": 0.5799999999999841
	},
	{
		"name": "F4",
		"midi": 65,
		"time": 145.20999999999827,
		"velocity": 0.48031496062992124,
		"duration": 0.5799999999999841
	},
	{
		"name": "A#3",
		"midi": 58,
		"time": 145.20999999999827,
		"velocity": 0.6771653543307087,
		"duration": 0.28999999999999204
	},
	{
		"name": "A#3",
		"midi": 58,
		"time": 145.49999999999827,
		"velocity": 0.5748031496062992,
		"duration": 0.28999999999999204
	},
	{
		"name": "F3",
		"midi": 53,
		"time": 145.50499999999826,
		"velocity": 0.5984251968503937,
		"duration": 0.29999999999998295
	},
	{
		"name": "A#4",
		"midi": 70,
		"time": 145.80499999999824,
		"velocity": 0.6771653543307087,
		"duration": 0.5799999999999841
	},
	{
		"name": "D4",
		"midi": 62,
		"time": 145.80499999999824,
		"velocity": 0.5984251968503937,
		"duration": 0.5799999999999841
	},
	{
		"name": "F3",
		"midi": 53,
		"time": 145.80499999999824,
		"velocity": 0.5984251968503937,
		"duration": 0.29999999999998295
	},
	{
		"name": "A#2",
		"midi": 46,
		"time": 145.80499999999824,
		"velocity": 0.5984251968503937,
		"duration": 0.5799999999999841
	},
	{
		"name": "F4",
		"midi": 65,
		"time": 145.80999999999824,
		"velocity": 0.4251968503937008,
		"duration": 0.5799999999999841
	},
	{
		"name": "A#3",
		"midi": 58,
		"time": 145.80999999999824,
		"velocity": 0.5984251968503937,
		"duration": 0.28999999999999204
	},
	{
		"name": "A#3",
		"midi": 58,
		"time": 146.10499999999823,
		"velocity": 0.6299212598425197,
		"duration": 0.28999999999999204
	},
	{
		"name": "F3",
		"midi": 53,
		"time": 146.10499999999823,
		"velocity": 0.5984251968503937,
		"duration": 0.29999999999998295
	},
	{
		"name": "F4",
		"midi": 65,
		"time": 146.39999999999822,
		"velocity": 0.5354330708661418,
		"duration": 0.5799999999999557
	},
	{
		"name": "A#4",
		"midi": 70,
		"time": 146.4049999999982,
		"velocity": 0.6771653543307087,
		"duration": 0.5799999999999557
	},
	{
		"name": "A#3",
		"midi": 58,
		"time": 146.4049999999982,
		"velocity": 0.6771653543307087,
		"duration": 0.3049999999999784
	},
	{
		"name": "A#2",
		"midi": 46,
		"time": 146.4099999999982,
		"velocity": 0.6771653543307087,
		"duration": 0.5799999999999557
	},
	{
		"name": "F3",
		"midi": 53,
		"time": 146.4149999999982,
		"velocity": 0.6771653543307087,
		"duration": 0.5799999999999557
	},
	{
		"name": "D4",
		"midi": 62,
		"time": 146.4149999999982,
		"velocity": 0.6771653543307087,
		"duration": 0.28000000000000114
	},
	{
		"name": "D4",
		"midi": 62,
		"time": 146.7049999999982,
		"velocity": 0.6771653543307087,
		"duration": 0.2799999999999727
	},
	{
		"name": "A#3",
		"midi": 58,
		"time": 146.71499999999818,
		"velocity": 0.6771653543307087,
		"duration": 0.30499999999995
	},
	{
		"name": "A#2",
		"midi": 46,
		"time": 146.99999999999815,
		"velocity": 0.5984251968503937,
		"duration": 0.5799999999999841
	},
	{
		"name": "D4",
		"midi": 62,
		"time": 147.00499999999815,
		"velocity": 0.5984251968503937,
		"duration": 0.28999999999999204
	},
	{
		"name": "F4",
		"midi": 65,
		"time": 147.00499999999815,
		"velocity": 0.5354330708661418,
		"duration": 0.5799999999999841
	},
	{
		"name": "A#4",
		"midi": 70,
		"time": 147.00499999999815,
		"velocity": 0.6771653543307087,
		"duration": 0.5799999999999841
	},
	{
		"name": "F3",
		"midi": 53,
		"time": 147.01499999999814,
		"velocity": 0.6771653543307087,
		"duration": 0.5799999999999841
	},
	{
		"name": "A#3",
		"midi": 58,
		"time": 147.02499999999813,
		"velocity": 0.6771653543307087,
		"duration": 0.3050000000000068
	},
	{
		"name": "D4",
		"midi": 62,
		"time": 147.29499999999814,
		"velocity": 0.5984251968503937,
		"duration": 0.28999999999999204
	},
	{
		"name": "A#3",
		"midi": 58,
		"time": 147.31499999999815,
		"velocity": 0.5984251968503937,
		"duration": 0.2799999999999727
	},
	{
		"name": "A#4",
		"midi": 70,
		"time": 147.6049999999981,
		"velocity": 0.6771653543307087,
		"duration": 0.5799999999999557
	},
	{
		"name": "A#2",
		"midi": 46,
		"time": 147.6099999999981,
		"velocity": 0.6771653543307087,
		"duration": 0.5799999999999557
	},
	{
		"name": "F4",
		"midi": 65,
		"time": 147.6099999999981,
		"velocity": 0.5354330708661418,
		"duration": 0.5799999999999557
	},
	{
		"name": "D4",
		"midi": 62,
		"time": 147.6149999999981,
		"velocity": 0.6771653543307087,
		"duration": 0.28000000000000114
	},
	{
		"name": "A#3",
		"midi": 58,
		"time": 147.6199999999981,
		"velocity": 0.5984251968503937,
		"duration": 0.28000000000000114
	},
	{
		"name": "F3",
		"midi": 53,
		"time": 147.6199999999981,
		"velocity": 0.6771653543307087,
		"duration": 0.5799999999999557
	},
	{
		"name": "D4",
		"midi": 62,
		"time": 147.8949999999981,
		"velocity": 0.6771653543307087,
		"duration": 0.2799999999999727
	},
	{
		"name": "A#3",
		"midi": 58,
		"time": 147.9149999999981,
		"velocity": 0.5984251968503937,
		"duration": 0.28499999999996817
	},
	{
		"name": "A#4",
		"midi": 70,
		"time": 148.20499999999805,
		"velocity": 0.6771653543307087,
		"duration": 0.5799999999999841
	},
	{
		"name": "A#3",
		"midi": 58,
		"time": 148.20999999999805,
		"velocity": 0.5984251968503937,
		"duration": 0.2849999999999966
	},
	{
		"name": "A#2",
		"midi": 46,
		"time": 148.20999999999805,
		"velocity": 0.5984251968503937,
		"duration": 0.5799999999999841
	},
	{
		"name": "F4",
		"midi": 65,
		"time": 148.20999999999805,
		"velocity": 0.5354330708661418,
		"duration": 0.5799999999999841
	},
	{
		"name": "D4",
		"midi": 62,
		"time": 148.21499999999804,
		"velocity": 0.5984251968503937,
		"duration": 0.28000000000000114
	},
	{
		"name": "F3",
		"midi": 53,
		"time": 148.21499999999804,
		"velocity": 0.6771653543307087,
		"duration": 0.5799999999999841
	},
	{
		"name": "D4",
		"midi": 62,
		"time": 148.49499999999804,
		"velocity": 0.5984251968503937,
		"duration": 0.28000000000000114
	},
	{
		"name": "A#3",
		"midi": 58,
		"time": 148.51499999999805,
		"velocity": 0.5984251968503937,
		"duration": 0.2999999999999545
	},
	{
		"name": "C4",
		"midi": 60,
		"time": 148.79999999999802,
		"velocity": 0.6771653543307087,
		"duration": 0.5799999999999557
	},
	{
		"name": "A4",
		"midi": 69,
		"time": 148.80499999999802,
		"velocity": 0.6771653543307087,
		"duration": 0.5799999999999557
	},
	{
		"name": "A3",
		"midi": 57,
		"time": 148.80499999999802,
		"velocity": 0.6771653543307087,
		"duration": 0.28999999999999204
	},
	{
		"name": "F3",
		"midi": 53,
		"time": 148.80499999999802,
		"velocity": 0.6771653543307087,
		"duration": 0.3049999999999784
	},
	{
		"name": "F2",
		"midi": 41,
		"time": 148.80499999999802,
		"velocity": 0.6771653543307087,
		"duration": 0.5799999999999557
	},
	{
		"name": "F4",
		"midi": 65,
		"time": 148.809999999998,
		"velocity": 0.48031496062992124,
		"duration": 0.5799999999999557
	},
	{
		"name": "F3",
		"midi": 53,
		"time": 149.099999999998,
		"velocity": 0.6771653543307087,
		"duration": 0.30499999999995
	},
	{
		"name": "A3",
		"midi": 57,
		"time": 149.114999999998,
		"velocity": 0.5748031496062992,
		"duration": 0.2899999999999636
	},
	{
		"name": "C4",
		"midi": 60,
		"time": 149.39499999999796,
		"velocity": 0.5984251968503937,
		"duration": 0.5799999999999841
	},
	{
		"name": "A3",
		"midi": 57,
		"time": 149.39499999999796,
		"velocity": 0.5984251968503937,
		"duration": 0.28999999999999204
	},
	{
		"name": "F2",
		"midi": 41,
		"time": 149.39499999999796,
		"velocity": 0.5984251968503937,
		"duration": 0.5799999999999841
	},
	{
		"name": "F3",
		"midi": 53,
		"time": 149.39999999999796,
		"velocity": 0.5984251968503937,
		"duration": 0.29999999999998295
	},
	{
		"name": "F4",
		"midi": 65,
		"time": 149.39999999999796,
		"velocity": 0.4251968503937008,
		"duration": 0.5799999999999841
	},
	{
		"name": "A4",
		"midi": 69,
		"time": 149.40499999999795,
		"velocity": 0.6771653543307087,
		"duration": 0.5799999999999841
	},
	{
		"name": "F3",
		"midi": 53,
		"time": 149.69999999999794,
		"velocity": 0.5984251968503937,
		"duration": 0.29999999999998295
	},
	{
		"name": "A3",
		"midi": 57,
		"time": 149.70499999999794,
		"velocity": 0.6299212598425197,
		"duration": 0.28999999999999204
	},
	{
		"name": "F3",
		"midi": 53,
		"time": 149.99999999999793,
		"velocity": 0.6771653543307087,
		"duration": 0.29999999999998295
	},
	{
		"name": "A4",
		"midi": 69,
		"time": 150.00499999999792,
		"velocity": 0.6771653543307087,
		"duration": 0.5799999999999841
	},
	{
		"name": "C4",
		"midi": 60,
		"time": 150.00499999999792,
		"velocity": 0.6771653543307087,
		"duration": 0.5799999999999841
	},
	{
		"name": "F2",
		"midi": 41,
		"time": 150.00499999999792,
		"velocity": 0.6771653543307087,
		"duration": 0.5799999999999841
	},
	{
		"name": "A3",
		"midi": 57,
		"time": 150.00999999999792,
		"velocity": 0.6771653543307087,
		"duration": 0.28999999999999204
	},
	{
		"name": "F4",
		"midi": 65,
		"time": 150.00999999999792,
		"velocity": 0.48031496062992124,
		"duration": 0.5799999999999841
	},
	{
		"name": "F3",
		"midi": 53,
		"time": 150.2999999999979,
		"velocity": 0.5984251968503937,
		"duration": 0.29999999999998295
	},
	{
		"name": "A3",
		"midi": 57,
		"time": 150.2999999999979,
		"velocity": 0.5748031496062992,
		"duration": 0.28999999999999204
	},
	{
		"name": "F3",
		"midi": 53,
		"time": 150.5999999999979,
		"velocity": 0.5984251968503937,
		"duration": 0.29999999999998295
	},
	{
		"name": "C4",
		"midi": 60,
		"time": 150.6049999999979,
		"velocity": 0.5984251968503937,
		"duration": 0.5799999999999841
	},
	{
		"name": "A4",
		"midi": 69,
		"time": 150.6049999999979,
		"velocity": 0.6771653543307087,
		"duration": 0.5799999999999841
	},
	{
		"name": "F2",
		"midi": 41,
		"time": 150.6049999999979,
		"velocity": 0.5984251968503937,
		"duration": 0.5799999999999841
	},
	{
		"name": "F4",
		"midi": 65,
		"time": 150.60999999999788,
		"velocity": 0.4251968503937008,
		"duration": 0.5799999999999841
	},
	{
		"name": "A3",
		"midi": 57,
		"time": 150.60999999999788,
		"velocity": 0.5984251968503937,
		"duration": 0.28999999999999204
	},
	{
		"name": "F3",
		"midi": 53,
		"time": 150.89999999999787,
		"velocity": 0.5984251968503937,
		"duration": 0.29999999999998295
	},
	{
		"name": "A3",
		"midi": 57,
		"time": 150.90499999999787,
		"velocity": 0.6299212598425197,
		"duration": 0.28999999999999204
	},
	{
		"name": "E4",
		"midi": 64,
		"time": 151.19999999999786,
		"velocity": 0.5354330708661418,
		"duration": 0.5799999999999841
	},
	{
		"name": "G3",
		"midi": 55,
		"time": 151.20499999999785,
		"velocity": 0.6771653543307087,
		"duration": 0.3049999999999784
	},
	{
		"name": "A4",
		"midi": 69,
		"time": 151.20499999999785,
		"velocity": 0.6771653543307087,
		"duration": 0.5799999999999841
	},
	{
		"name": "F2",
		"midi": 41,
		"time": 151.20999999999785,
		"velocity": 0.6771653543307087,
		"duration": 0.5799999999999841
	},
	{
		"name": "F3",
		"midi": 53,
		"time": 151.20999999999785,
		"velocity": 0.6771653543307087,
		"duration": 0.5799999999999841
	},
	{
		"name": "C4",
		"midi": 60,
		"time": 151.21499999999784,
		"velocity": 0.6771653543307087,
		"duration": 0.28000000000000114
	},
	{
		"name": "C4",
		"midi": 60,
		"time": 151.50499999999784,
		"velocity": 0.6771653543307087,
		"duration": 0.28000000000000114
	},
	{
		"name": "F2",
		"midi": 41,
		"time": 151.79999999999782,
		"velocity": 0.5984251968503937,
		"duration": 0.5799999999999841
	},
	{
		"name": "E4",
		"midi": 64,
		"time": 151.80499999999782,
		"velocity": 0.5354330708661418,
		"duration": 0.5799999999999841
	},
	{
		"name": "C4",
		"midi": 60,
		"time": 151.80499999999782,
		"velocity": 0.5984251968503937,
		"duration": 0.28999999999999204
	},
	{
		"name": "A4",
		"midi": 69,
		"time": 151.80499999999782,
		"velocity": 0.6771653543307087,
		"duration": 0.5799999999999841
	},
	{
		"name": "F3",
		"midi": 53,
		"time": 151.8099999999978,
		"velocity": 0.6771653543307087,
		"duration": 0.5799999999999841
	},
	{
		"name": "G3",
		"midi": 55,
		"time": 151.8249999999978,
		"velocity": 0.6771653543307087,
		"duration": 0.3050000000000068
	},
	{
		"name": "C4",
		"midi": 60,
		"time": 152.0949999999978,
		"velocity": 0.5984251968503937,
		"duration": 0.28999999999999204
	},
	{
		"name": "A4",
		"midi": 69,
		"time": 152.40499999999778,
		"velocity": 0.6771653543307087,
		"duration": 0.5799999999999841
	},
	{
		"name": "F2",
		"midi": 41,
		"time": 152.40999999999778,
		"velocity": 0.6771653543307087,
		"duration": 0.5799999999999841
	},
	{
		"name": "D4",
		"midi": 62,
		"time": 152.40999999999778,
		"velocity": 0.5354330708661418,
		"duration": 0.5799999999999841
	},
	{
		"name": "F3",
		"midi": 53,
		"time": 152.41499999999778,
		"velocity": 0.6771653543307087,
		"duration": 0.5799999999999841
	},
	{
		"name": "A3",
		"midi": 57,
		"time": 152.41999999999777,
		"velocity": 0.5984251968503937,
		"duration": 0.28000000000000114
	},
	{
		"name": "A3",
		"midi": 57,
		"time": 152.71499999999776,
		"velocity": 0.5984251968503937,
		"duration": 0.2849999999999966
	},
	{
		"name": "A4",
		"midi": 69,
		"time": 153.00499999999775,
		"velocity": 0.6771653543307087,
		"duration": 0.5800000000000125
	},
	{
		"name": "D4",
		"midi": 62,
		"time": 153.00999999999775,
		"velocity": 0.5354330708661418,
		"duration": 0.5800000000000125
	},
	{
		"name": "F3",
		"midi": 53,
		"time": 153.00999999999775,
		"velocity": 0.6771653543307087,
		"duration": 0.5800000000000125
	},
	{
		"name": "A3",
		"midi": 57,
		"time": 153.00999999999775,
		"velocity": 0.5984251968503937,
		"duration": 0.2849999999999966
	},
	{
		"name": "F2",
		"midi": 41,
		"time": 153.00999999999775,
		"velocity": 0.5984251968503937,
		"duration": 0.5800000000000125
	},
	{
		"name": "A3",
		"midi": 57,
		"time": 153.31499999999775,
		"velocity": 0.5984251968503937,
		"duration": 0.29999999999998295
	},
	{
		"name": "F4",
		"midi": 65,
		"time": 153.58499999999776,
		"velocity": 0.48031496062992124,
		"duration": 0.5799999999999557
	},
	{
		"name": "A#3",
		"midi": 58,
		"time": 153.58499999999776,
		"velocity": 0.6771653543307087,
		"duration": 0.2899999999999636
	},
	{
		"name": "D4",
		"midi": 62,
		"time": 153.60499999999774,
		"velocity": 0.6771653543307087,
		"duration": 0.5799999999999841
	},
	{
		"name": "A#2",
		"midi": 46,
		"time": 153.60499999999774,
		"velocity": 0.6771653543307087,
		"duration": 0.5799999999999841
	},
	{
		"name": "F3",
		"midi": 53,
		"time": 153.60999999999774,
		"velocity": 0.6771653543307087,
		"duration": 0.3049999999999784
	},
	{
		"name": "A#4",
		"midi": 70,
		"time": 153.61999999999773,
		"velocity": 0.6771653543307087,
		"duration": 0.5799999999999841
	},
	{
		"name": "F3",
		"midi": 53,
		"time": 153.89999999999773,
		"velocity": 0.6771653543307087,
		"duration": 0.3049999999999784
	},
	{
		"name": "A#3",
		"midi": 58,
		"time": 153.91499999999772,
		"velocity": 0.5748031496062992,
		"duration": 0.28999999999999204
	},
	{
		"name": "D4",
		"midi": 62,
		"time": 154.19499999999772,
		"velocity": 0.5984251968503937,
		"duration": 0.5800000000000125
	},
	{
		"name": "A3",
		"midi": 57,
		"time": 154.19499999999772,
		"velocity": 0.5984251968503937,
		"duration": 0.28999999999999204
	},
	{
		"name": "A#2",
		"midi": 46,
		"time": 154.19499999999772,
		"velocity": 0.5984251968503937,
		"duration": 0.5800000000000125
	},
	{
		"name": "F4",
		"midi": 65,
		"time": 154.19999999999771,
		"velocity": 0.4251968503937008,
		"duration": 0.5800000000000125
	},
	{
		"name": "F3",
		"midi": 53,
		"time": 154.2049999999977,
		"velocity": 0.5984251968503937,
		"duration": 0.30000000000001137
	},
	{
		"name": "A#4",
		"midi": 70,
		"time": 154.2049999999977,
		"velocity": 0.6771653543307087,
		"duration": 0.5800000000000125
	},
	{
		"name": "F3",
		"midi": 53,
		"time": 154.50499999999772,
		"velocity": 0.5984251968503937,
		"duration": 0.29999999999998295
	},
	{
		"name": "A3",
		"midi": 57,
		"time": 154.50499999999772,
		"velocity": 0.6299212598425197,
		"duration": 0.28999999999999204
	},
	{
		"name": "A#4",
		"midi": 70,
		"time": 154.8049999999977,
		"velocity": 0.6771653543307087,
		"duration": 0.5799999999999841
	},
	{
		"name": "A#2",
		"midi": 46,
		"time": 154.8049999999977,
		"velocity": 0.6771653543307087,
		"duration": 0.5799999999999841
	},
	{
		"name": "F3",
		"midi": 53,
		"time": 154.8049999999977,
		"velocity": 0.6771653543307087,
		"duration": 0.29999999999998295
	},
	{
		"name": "D4",
		"midi": 62,
		"time": 154.8049999999977,
		"velocity": 0.6771653543307087,
		"duration": 0.5799999999999841
	},
	{
		"name": "F4",
		"midi": 65,
		"time": 154.8099999999977,
		"velocity": 0.48031496062992124,
		"duration": 0.5799999999999841
	},
	{
		"name": "A#3",
		"midi": 58,
		"time": 154.8099999999977,
		"velocity": 0.6771653543307087,
		"duration": 0.28999999999999204
	},
	{
		"name": "A#3",
		"midi": 58,
		"time": 155.0999999999977,
		"velocity": 0.5748031496062992,
		"duration": 0.28999999999999204
	},
	{
		"name": "F3",
		"midi": 53,
		"time": 155.1049999999977,
		"velocity": 0.5984251968503937,
		"duration": 0.29999999999998295
	},
	{
		"name": "A#4",
		"midi": 70,
		"time": 155.40499999999767,
		"velocity": 0.6771653543307087,
		"duration": 0.5799999999999841
	},
	{
		"name": "D4",
		"midi": 62,
		"time": 155.40499999999767,
		"velocity": 0.5984251968503937,
		"duration": 0.5799999999999841
	},
	{
		"name": "F3",
		"midi": 53,
		"time": 155.40499999999767,
		"velocity": 0.5984251968503937,
		"duration": 0.29999999999998295
	},
	{
		"name": "A#2",
		"midi": 46,
		"time": 155.40499999999767,
		"velocity": 0.5984251968503937,
		"duration": 0.5799999999999841
	},
	{
		"name": "F4",
		"midi": 65,
		"time": 155.40999999999767,
		"velocity": 0.4251968503937008,
		"duration": 0.5799999999999841
	},
	{
		"name": "A3",
		"midi": 57,
		"time": 155.40999999999767,
		"velocity": 0.5984251968503937,
		"duration": 0.28999999999999204
	},
	{
		"name": "A3",
		"midi": 57,
		"time": 155.70499999999765,
		"velocity": 0.6299212598425197,
		"duration": 0.28999999999999204
	},
	{
		"name": "F3",
		"midi": 53,
		"time": 155.70499999999765,
		"velocity": 0.5984251968503937,
		"duration": 0.29999999999998295
	},
	{
		"name": "F4",
		"midi": 65,
		"time": 155.99999999999764,
		"velocity": 0.5354330708661418,
		"duration": 0.5799999999999557
	},
	{
		"name": "A#4",
		"midi": 70,
		"time": 156.00499999999764,
		"velocity": 0.6771653543307087,
		"duration": 0.5799999999999557
	},
	{
		"name": "A#3",
		"midi": 58,
		"time": 156.00499999999764,
		"velocity": 0.6771653543307087,
		"duration": 0.3049999999999784
	},
	{
		"name": "A#2",
		"midi": 46,
		"time": 156.00999999999763,
		"velocity": 0.6771653543307087,
		"duration": 0.5799999999999557
	},
	{
		"name": "F3",
		"midi": 53,
		"time": 156.01499999999763,
		"velocity": 0.6771653543307087,
		"duration": 0.5799999999999557
	},
	{
		"name": "D4",
		"midi": 62,
		"time": 156.01499999999763,
		"velocity": 0.6771653543307087,
		"duration": 0.28000000000000114
	},
	{
		"name": "D4",
		"midi": 62,
		"time": 156.30499999999762,
		"velocity": 0.6771653543307087,
		"duration": 0.2799999999999727
	},
	{
		"name": "A#3",
		"midi": 58,
		"time": 156.3149999999976,
		"velocity": 0.6771653543307087,
		"duration": 0.30499999999995
	},
	{
		"name": "A#2",
		"midi": 46,
		"time": 156.59999999999758,
		"velocity": 0.5984251968503937,
		"duration": 0.5799999999999841
	},
	{
		"name": "D4",
		"midi": 62,
		"time": 156.60499999999757,
		"velocity": 0.5984251968503937,
		"duration": 0.28999999999999204
	},
	{
		"name": "F4",
		"midi": 65,
		"time": 156.60499999999757,
		"velocity": 0.5354330708661418,
		"duration": 0.5799999999999841
	},
	{
		"name": "A#4",
		"midi": 70,
		"time": 156.60499999999757,
		"velocity": 0.6771653543307087,
		"duration": 0.5799999999999841
	},
	{
		"name": "F3",
		"midi": 53,
		"time": 156.61499999999756,
		"velocity": 0.6771653543307087,
		"duration": 0.5799999999999841
	},
	{
		"name": "A#3",
		"midi": 58,
		"time": 156.62499999999756,
		"velocity": 0.6771653543307087,
		"duration": 0.3050000000000068
	},
	{
		"name": "D4",
		"midi": 62,
		"time": 156.89499999999757,
		"velocity": 0.5984251968503937,
		"duration": 0.28999999999999204
	},
	{
		"name": "A#3",
		"midi": 58,
		"time": 156.91499999999758,
		"velocity": 0.5984251968503937,
		"duration": 0.2799999999999727
	},
	{
		"name": "A#4",
		"midi": 70,
		"time": 157.20499999999754,
		"velocity": 0.6771653543307087,
		"duration": 0.5799999999999557
	},
	{
		"name": "A#2",
		"midi": 46,
		"time": 157.20999999999754,
		"velocity": 0.6771653543307087,
		"duration": 0.5799999999999557
	},
	{
		"name": "F4",
		"midi": 65,
		"time": 157.20999999999754,
		"velocity": 0.5354330708661418,
		"duration": 0.5799999999999557
	},
	{
		"name": "D4",
		"midi": 62,
		"time": 157.21499999999753,
		"velocity": 0.6771653543307087,
		"duration": 0.28000000000000114
	},
	{
		"name": "A#3",
		"midi": 58,
		"time": 157.21999999999753,
		"velocity": 0.5984251968503937,
		"duration": 0.28000000000000114
	},
	{
		"name": "F3",
		"midi": 53,
		"time": 157.21999999999753,
		"velocity": 0.6771653543307087,
		"duration": 0.5799999999999557
	},
	{
		"name": "D4",
		"midi": 62,
		"time": 157.49499999999753,
		"velocity": 0.6771653543307087,
		"duration": 0.2799999999999727
	},
	{
		"name": "A#3",
		"midi": 58,
		"time": 157.5149999999975,
		"velocity": 0.5984251968503937,
		"duration": 0.28499999999996817
	},
	{
		"name": "A#4",
		"midi": 70,
		"time": 157.80499999999748,
		"velocity": 0.6771653543307087,
		"duration": 0.5799999999999841
	},
	{
		"name": "A#3",
		"midi": 58,
		"time": 157.80999999999747,
		"velocity": 0.5984251968503937,
		"duration": 0.2849999999999966
	},
	{
		"name": "A#2",
		"midi": 46,
		"time": 157.80999999999747,
		"velocity": 0.5984251968503937,
		"duration": 0.5799999999999841
	},
	{
		"name": "F4",
		"midi": 65,
		"time": 157.80999999999747,
		"velocity": 0.5354330708661418,
		"duration": 0.5799999999999841
	},
	{
		"name": "D4",
		"midi": 62,
		"time": 157.81499999999747,
		"velocity": 0.5984251968503937,
		"duration": 0.28000000000000114
	},
	{
		"name": "F3",
		"midi": 53,
		"time": 157.81499999999747,
		"velocity": 0.6771653543307087,
		"duration": 0.5799999999999841
	},
	{
		"name": "D4",
		"midi": 62,
		"time": 158.09499999999747,
		"velocity": 0.5984251968503937,
		"duration": 0.28000000000000114
	},
	{
		"name": "A#3",
		"midi": 58,
		"time": 158.11499999999748,
		"velocity": 0.5984251968503937,
		"duration": 0.2999999999999545
	},
	{
		"name": "C4",
		"midi": 60,
		"time": 158.39999999999745,
		"velocity": 0.6771653543307087,
		"duration": 0.5799999999999557
	},
	{
		"name": "A4",
		"midi": 69,
		"time": 158.40499999999744,
		"velocity": 0.6771653543307087,
		"duration": 0.5799999999999557
	},
	{
		"name": "A3",
		"midi": 57,
		"time": 158.40499999999744,
		"velocity": 0.6771653543307087,
		"duration": 0.28999999999999204
	},
	{
		"name": "F3",
		"midi": 53,
		"time": 158.40499999999744,
		"velocity": 0.6771653543307087,
		"duration": 0.3049999999999784
	},
	{
		"name": "F2",
		"midi": 41,
		"time": 158.40499999999744,
		"velocity": 0.6771653543307087,
		"duration": 0.5799999999999557
	},
	{
		"name": "F4",
		"midi": 65,
		"time": 158.40999999999744,
		"velocity": 0.48031496062992124,
		"duration": 0.5799999999999557
	},
	{
		"name": "F3",
		"midi": 53,
		"time": 158.69999999999743,
		"velocity": 0.6771653543307087,
		"duration": 0.30499999999995
	},
	{
		"name": "A3",
		"midi": 57,
		"time": 158.71499999999742,
		"velocity": 0.5748031496062992,
		"duration": 0.2899999999999636
	},
	{
		"name": "C4",
		"midi": 60,
		"time": 158.9949999999974,
		"velocity": 0.5984251968503937,
		"duration": 0.5799999999999841
	},
	{
		"name": "A3",
		"midi": 57,
		"time": 158.9949999999974,
		"velocity": 0.5984251968503937,
		"duration": 0.28999999999999204
	},
	{
		"name": "F2",
		"midi": 41,
		"time": 158.9949999999974,
		"velocity": 0.5984251968503937,
		"duration": 0.5799999999999841
	},
	{
		"name": "F3",
		"midi": 53,
		"time": 158.99999999999739,
		"velocity": 0.5984251968503937,
		"duration": 0.29999999999998295
	},
	{
		"name": "F4",
		"midi": 65,
		"time": 158.99999999999739,
		"velocity": 0.4251968503937008,
		"duration": 0.5799999999999841
	},
	{
		"name": "A4",
		"midi": 69,
		"time": 159.00499999999738,
		"velocity": 0.6771653543307087,
		"duration": 0.5799999999999841
	},
	{
		"name": "F3",
		"midi": 53,
		"time": 159.29999999999737,
		"velocity": 0.5984251968503937,
		"duration": 0.29999999999998295
	},
	{
		"name": "A3",
		"midi": 57,
		"time": 159.30499999999736,
		"velocity": 0.6299212598425197,
		"duration": 0.28999999999999204
	},
	{
		"name": "F3",
		"midi": 53,
		"time": 159.59999999999735,
		"velocity": 0.6771653543307087,
		"duration": 0.29999999999998295
	},
	{
		"name": "A4",
		"midi": 69,
		"time": 159.60499999999735,
		"velocity": 0.6771653543307087,
		"duration": 0.5799999999999841
	},
	{
		"name": "C4",
		"midi": 60,
		"time": 159.60499999999735,
		"velocity": 0.6771653543307087,
		"duration": 0.5799999999999841
	},
	{
		"name": "F2",
		"midi": 41,
		"time": 159.60499999999735,
		"velocity": 0.6771653543307087,
		"duration": 0.5799999999999841
	},
	{
		"name": "A3",
		"midi": 57,
		"time": 159.60999999999734,
		"velocity": 0.6771653543307087,
		"duration": 0.28999999999999204
	},
	{
		"name": "F4",
		"midi": 65,
		"time": 159.60999999999734,
		"velocity": 0.48031496062992124,
		"duration": 0.5799999999999841
	},
	{
		"name": "F3",
		"midi": 53,
		"time": 159.89999999999733,
		"velocity": 0.5984251968503937,
		"duration": 0.29999999999998295
	},
	{
		"name": "A3",
		"midi": 57,
		"time": 159.89999999999733,
		"velocity": 0.5748031496062992,
		"duration": 0.28999999999999204
	},
	{
		"name": "F3",
		"midi": 53,
		"time": 160.19999999999732,
		"velocity": 0.5984251968503937,
		"duration": 0.29999999999998295
	},
	{
		"name": "C4",
		"midi": 60,
		"time": 160.2049999999973,
		"velocity": 0.5984251968503937,
		"duration": 0.5799999999999841
	},
	{
		"name": "A4",
		"midi": 69,
		"time": 160.2049999999973,
		"velocity": 0.6771653543307087,
		"duration": 0.5799999999999841
	},
	{
		"name": "F2",
		"midi": 41,
		"time": 160.2049999999973,
		"velocity": 0.5984251968503937,
		"duration": 0.5799999999999841
	},
	{
		"name": "F4",
		"midi": 65,
		"time": 160.2099999999973,
		"velocity": 0.4251968503937008,
		"duration": 0.5799999999999841
	},
	{
		"name": "A3",
		"midi": 57,
		"time": 160.2099999999973,
		"velocity": 0.5984251968503937,
		"duration": 0.28999999999999204
	},
	{
		"name": "F3",
		"midi": 53,
		"time": 160.4999999999973,
		"velocity": 0.5984251968503937,
		"duration": 0.29999999999998295
	},
	{
		"name": "A3",
		"midi": 57,
		"time": 160.5049999999973,
		"velocity": 0.6299212598425197,
		"duration": 0.28999999999999204
	},
	{
		"name": "E4",
		"midi": 64,
		"time": 160.79999999999728,
		"velocity": 0.5354330708661418,
		"duration": 0.5799999999999841
	},
	{
		"name": "G3",
		"midi": 55,
		"time": 160.80499999999728,
		"velocity": 0.6771653543307087,
		"duration": 0.3049999999999784
	},
	{
		"name": "A4",
		"midi": 69,
		"time": 160.80499999999728,
		"velocity": 0.6771653543307087,
		"duration": 0.5799999999999841
	},
	{
		"name": "F2",
		"midi": 41,
		"time": 160.80999999999727,
		"velocity": 0.6771653543307087,
		"duration": 0.5799999999999841
	},
	{
		"name": "F3",
		"midi": 53,
		"time": 160.80999999999727,
		"velocity": 0.6771653543307087,
		"duration": 0.5799999999999841
	},
	{
		"name": "C4",
		"midi": 60,
		"time": 160.81499999999727,
		"velocity": 0.6771653543307087,
		"duration": 0.28000000000000114
	},
	{
		"name": "C4",
		"midi": 60,
		"time": 161.10499999999726,
		"velocity": 0.6771653543307087,
		"duration": 0.28000000000000114
	},
	{
		"name": "F2",
		"midi": 41,
		"time": 161.39999999999725,
		"velocity": 0.5984251968503937,
		"duration": 0.5799999999999841
	},
	{
		"name": "E4",
		"midi": 64,
		"time": 161.40499999999724,
		"velocity": 0.5354330708661418,
		"duration": 0.5799999999999841
	},
	{
		"name": "C4",
		"midi": 60,
		"time": 161.40499999999724,
		"velocity": 0.5984251968503937,
		"duration": 0.28999999999999204
	},
	{
		"name": "A4",
		"midi": 69,
		"time": 161.40499999999724,
		"velocity": 0.6771653543307087,
		"duration": 0.5799999999999841
	},
	{
		"name": "F3",
		"midi": 53,
		"time": 161.40999999999724,
		"velocity": 0.6771653543307087,
		"duration": 0.5799999999999841
	},
	{
		"name": "G3",
		"midi": 55,
		"time": 161.42499999999723,
		"velocity": 0.6771653543307087,
		"duration": 0.3050000000000068
	},
	{
		"name": "C4",
		"midi": 60,
		"time": 161.69499999999724,
		"velocity": 0.5984251968503937,
		"duration": 0.28999999999999204
	},
	{
		"name": "A4",
		"midi": 69,
		"time": 162.0049999999972,
		"velocity": 0.6771653543307087,
		"duration": 0.5799999999999841
	},
	{
		"name": "F2",
		"midi": 41,
		"time": 162.0099999999972,
		"velocity": 0.6771653543307087,
		"duration": 0.5799999999999841
	},
	{
		"name": "D4",
		"midi": 62,
		"time": 162.0099999999972,
		"velocity": 0.5354330708661418,
		"duration": 0.5799999999999841
	},
	{
		"name": "F3",
		"midi": 53,
		"time": 162.0149999999972,
		"velocity": 0.6771653543307087,
		"duration": 0.5799999999999841
	},
	{
		"name": "A3",
		"midi": 57,
		"time": 162.0199999999972,
		"velocity": 0.5984251968503937,
		"duration": 0.28000000000000114
	},
	{
		"name": "A3",
		"midi": 57,
		"time": 162.31499999999718,
		"velocity": 0.5984251968503937,
		"duration": 0.2849999999999966
	},
	{
		"name": "A4",
		"midi": 69,
		"time": 162.60499999999718,
		"velocity": 0.6771653543307087,
		"duration": 0.5800000000000125
	},
	{
		"name": "D4",
		"midi": 62,
		"time": 162.60999999999717,
		"velocity": 0.5354330708661418,
		"duration": 0.5800000000000125
	},
	{
		"name": "F3",
		"midi": 53,
		"time": 162.60999999999717,
		"velocity": 0.6771653543307087,
		"duration": 0.5800000000000125
	},
	{
		"name": "A3",
		"midi": 57,
		"time": 162.60999999999717,
		"velocity": 0.5984251968503937,
		"duration": 0.2849999999999966
	},
	{
		"name": "F2",
		"midi": 41,
		"time": 162.60999999999717,
		"velocity": 0.5984251968503937,
		"duration": 0.5800000000000125
	},
	{
		"name": "A3",
		"midi": 57,
		"time": 162.91499999999718,
		"velocity": 0.5984251968503937,
		"duration": 0.29999999999998295
	},
	{
		"name": "G4",
		"midi": 67,
		"time": 163.20499999999717,
		"velocity": 0.6771653543307087,
		"duration": 0.5799999999999557
	},
	{
		"name": "E4",
		"midi": 64,
		"time": 163.20499999999717,
		"velocity": 0.6771653543307087,
		"duration": 0.28000000000000114
	},
	{
		"name": "C4",
		"midi": 60,
		"time": 163.20499999999717,
		"velocity": 0.6771653543307087,
		"duration": 0.3049999999999784
	},
	{
		"name": "G3",
		"midi": 55,
		"time": 163.20499999999717,
		"velocity": 0.6771653543307087,
		"duration": 0.5799999999999557
	},
	{
		"name": "C3",
		"midi": 48,
		"time": 163.20499999999717,
		"velocity": 0.6771653543307087,
		"duration": 0.5799999999999557
	},
	{
		"name": "E4",
		"midi": 64,
		"time": 163.49499999999716,
		"velocity": 0.6771653543307087,
		"duration": 0.2799999999999727
	},
	{
		"name": "C4",
		"midi": 60,
		"time": 163.51499999999714,
		"velocity": 0.6771653543307087,
		"duration": 0.30499999999995
	},
	{
		"name": "C3",
		"midi": 48,
		"time": 163.79499999999712,
		"velocity": 0.5984251968503937,
		"duration": 0.5799999999999557
	},
	{
		"name": "E4",
		"midi": 64,
		"time": 163.79499999999712,
		"velocity": 0.5984251968503937,
		"duration": 0.2899999999999636
	},
	{
		"name": "G3",
		"midi": 55,
		"time": 163.8049999999971,
		"velocity": 0.6771653543307087,
		"duration": 0.5799999999999557
	},
	{
		"name": "G4",
		"midi": 67,
		"time": 163.8049999999971,
		"velocity": 0.6771653543307087,
		"duration": 0.5799999999999557
	},
	{
		"name": "C4",
		"midi": 60,
		"time": 163.8249999999971,
		"velocity": 0.6771653543307087,
		"duration": 0.3049999999999784
	},
	{
		"name": "E4",
		"midi": 64,
		"time": 164.08499999999708,
		"velocity": 0.5984251968503937,
		"duration": 0.28999999999999204
	},
	{
		"name": "C4",
		"midi": 60,
		"time": 164.11499999999708,
		"velocity": 0.5984251968503937,
		"duration": 0.2799999999999727
	},
	{
		"name": "C3",
		"midi": 48,
		"time": 164.40499999999705,
		"velocity": 0.6771653543307087,
		"duration": 0.5799999999999557
	},
	{
		"name": "E4",
		"midi": 64,
		"time": 164.40499999999705,
		"velocity": 0.6771653543307087,
		"duration": 0.2799999999999727
	},
	{
		"name": "G4",
		"midi": 67,
		"time": 164.40499999999705,
		"velocity": 0.6771653543307087,
		"duration": 0.5799999999999557
	},
	{
		"name": "G3",
		"midi": 55,
		"time": 164.40999999999704,
		"velocity": 0.6771653543307087,
		"duration": 0.5799999999999557
	},
	{
		"name": "C4",
		"midi": 60,
		"time": 164.41999999999703,
		"velocity": 0.5984251968503937,
		"duration": 0.2799999999999727
	},
	{
		"name": "E4",
		"midi": 64,
		"time": 164.68499999999702,
		"velocity": 0.6771653543307087,
		"duration": 0.2799999999999727
	},
	{
		"name": "C4",
		"midi": 60,
		"time": 164.714999999997,
		"velocity": 0.5984251968503937,
		"duration": 0.2849999999999966
	},
	{
		"name": "G4",
		"midi": 67,
		"time": 165.00499999999698,
		"velocity": 0.6771653543307087,
		"duration": 0.5799999999999557
	},
	{
		"name": "E4",
		"midi": 64,
		"time": 165.00499999999698,
		"velocity": 0.5984251968503937,
		"duration": 0.28000000000000114
	},
	{
		"name": "C3",
		"midi": 48,
		"time": 165.00499999999698,
		"velocity": 0.5984251968503937,
		"duration": 0.2949999999999875
	},
	{
		"name": "G3",
		"midi": 55,
		"time": 165.00499999999698,
		"velocity": 0.6771653543307087,
		"duration": 0.5799999999999557
	},
	{
		"name": "C4",
		"midi": 60,
		"time": 165.00999999999698,
		"velocity": 0.5984251968503937,
		"duration": 0.2849999999999966
	},
	{
		"name": "D4",
		"midi": 62,
		"time": 165.28499999999698,
		"velocity": 0.5984251968503937,
		"duration": 0.2799999999999727
	},
	{
		"name": "A#2",
		"midi": 46,
		"time": 165.29999999999697,
		"velocity": 0.5984251968503937,
		"duration": 0.2799999999999727
	},
	{
		"name": "C4",
		"midi": 60,
		"time": 165.31499999999696,
		"velocity": 0.5984251968503937,
		"duration": 0.27499999999997726
	},
	{
		"name": "C2",
		"midi": 36,
		"time": 165.59499999999693,
		"velocity": 0.5984251968503937,
		"duration": 0.5749999999999602
	},
	{
		"name": "C3",
		"midi": 48,
		"time": 165.59499999999693,
		"velocity": 0.5984251968503937,
		"duration": 0.5749999999999602
	},
	{
		"name": "G3",
		"midi": 55,
		"time": 165.59999999999692,
		"velocity": 0.5984251968503937,
		"duration": 0.5749999999999602
	},
	{
		"name": "C4",
		"midi": 60,
		"time": 165.6149999999969,
		"velocity": 0.5984251968503937,
		"duration": 0.5749999999999602
	},
	{
		"name": "E4",
		"midi": 64,
		"time": 165.6299999999969,
		"velocity": 0.6771653543307087,
		"duration": 0.5799999999999841
	},
	{
		"name": "C4",
		"midi": 60,
		"time": 167.39999999999688,
		"velocity": 0.6771653543307087,
		"duration": 0.5799999999999841
	},
	{
		"name": "E4",
		"midi": 64,
		"time": 167.40499999999687,
		"velocity": 0.6771653543307087,
		"duration": 0.5799999999999841
	},
	{
		"name": "G4",
		"midi": 67,
		"time": 167.41499999999687,
		"velocity": 0.6771653543307087,
		"duration": 0.5799999999999841
	},
	{
		"name": "A#4",
		"midi": 70,
		"time": 167.41499999999687,
		"velocity": 0.6771653543307087,
		"duration": 0.5799999999999841
	},
	{
		"name": "F2",
		"midi": 41,
		"time": 167.99999999999685,
		"velocity": 0.5196850393700787,
		"duration": 0.2799999999999727
	},
	{
		"name": "C3",
		"midi": 48,
		"time": 167.99999999999685,
		"velocity": 0.6771653543307087,
		"duration": 0.29999999999998295
	},
	{
		"name": "F4",
		"midi": 65,
		"time": 167.99999999999685,
		"velocity": 0.6771653543307087,
		"duration": 0.5799999999999841
	},
	{
		"name": "A3",
		"midi": 57,
		"time": 167.99999999999685,
		"velocity": 0.6771653543307087,
		"duration": 0.2799999999999727
	},
	{
		"name": "F3",
		"midi": 53,
		"time": 167.99999999999685,
		"velocity": 0.6771653543307087,
		"duration": 0.2799999999999727
	},
	{
		"name": "A4",
		"midi": 69,
		"time": 168.01499999999683,
		"velocity": 0.6771653543307087,
		"duration": 0.5799999999999841
	},
	{
		"name": "C4",
		"midi": 60,
		"time": 168.01999999999683,
		"velocity": 0.6771653543307087,
		"duration": 0.28000000000000114
	},
	{
		"name": "C3",
		"midi": 48,
		"time": 168.29999999999683,
		"velocity": 0.4881889763779528,
		"duration": 0.29999999999998295
	},
	{
		"name": "F3",
		"midi": 53,
		"time": 168.30499999999682,
		"velocity": 0.4881889763779528,
		"duration": 0.28000000000000114
	},
	{
		"name": "A3",
		"midi": 57,
		"time": 168.30499999999682,
		"velocity": 0.4881889763779528,
		"duration": 0.28000000000000114
	},
	{
		"name": "C3",
		"midi": 48,
		"time": 168.58999999999682,
		"velocity": 0.5984251968503937,
		"duration": 0.5799999999999557
	},
	{
		"name": "C4",
		"midi": 60,
		"time": 168.59499999999682,
		"velocity": 0.6771653543307087,
		"duration": 0.2799999999999727
	},
	{
		"name": "F2",
		"midi": 41,
		"time": 168.5999999999968,
		"velocity": 0.5196850393700787,
		"duration": 0.2799999999999727
	},
	{
		"name": "A3",
		"midi": 57,
		"time": 168.6049999999968,
		"velocity": 0.5984251968503937,
		"duration": 0.29999999999998295
	},
	{
		"name": "F3",
		"midi": 53,
		"time": 168.6049999999968,
		"velocity": 0.5984251968503937,
		"duration": 0.29999999999998295
	},
	{
		"name": "A4",
		"midi": 69,
		"time": 168.6149999999968,
		"velocity": 0.6771653543307087,
		"duration": 0.5799999999999841
	},
	{
		"name": "F4",
		"midi": 65,
		"time": 168.6149999999968,
		"velocity": 0.5984251968503937,
		"duration": 0.5799999999999841
	},
	{
		"name": "F3",
		"midi": 53,
		"time": 168.9049999999968,
		"velocity": 0.5984251968503937,
		"duration": 0.29999999999998295
	},
	{
		"name": "A3",
		"midi": 57,
		"time": 168.9049999999968,
		"velocity": 0.5984251968503937,
		"duration": 0.29999999999998295
	},
	{
		"name": "C4",
		"midi": 60,
		"time": 169.19499999999678,
		"velocity": 0.6771653543307087,
		"duration": 0.2799999999999727
	},
	{
		"name": "F2",
		"midi": 41,
		"time": 169.19999999999678,
		"velocity": 0.5196850393700787,
		"duration": 0.2799999999999727
	},
	{
		"name": "C3",
		"midi": 48,
		"time": 169.20499999999677,
		"velocity": 0.6771653543307087,
		"duration": 0.5799999999999557
	},
	{
		"name": "A4",
		"midi": 69,
		"time": 169.21499999999676,
		"velocity": 0.6771653543307087,
		"duration": 0.5799999999999557
	},
	{
		"name": "F3",
		"midi": 53,
		"time": 169.21499999999676,
		"velocity": 0.6771653543307087,
		"duration": 0.27499999999997726
	},
	{
		"name": "A3",
		"midi": 57,
		"time": 169.21499999999676,
		"velocity": 0.6771653543307087,
		"duration": 0.27499999999997726
	},
	{
		"name": "F4",
		"midi": 65,
		"time": 169.21999999999676,
		"velocity": 0.6771653543307087,
		"duration": 0.5799999999999557
	},
	{
		"name": "F3",
		"midi": 53,
		"time": 169.50499999999673,
		"velocity": 0.5196850393700787,
		"duration": 0.2750000000000057
	},
	{
		"name": "A3",
		"midi": 57,
		"time": 169.50499999999673,
		"velocity": 0.5196850393700787,
		"duration": 0.2750000000000057
	},
	{
		"name": "C3",
		"midi": 48,
		"time": 169.78999999999672,
		"velocity": 0.5984251968503937,
		"duration": 0.5799999999999557
	},
	{
		"name": "A4",
		"midi": 69,
		"time": 169.79999999999671,
		"velocity": 0.6771653543307087,
		"duration": 0.5799999999999557
	},
	{
		"name": "F2",
		"midi": 41,
		"time": 169.79999999999671,
		"velocity": 0.5196850393700787,
		"duration": 0.2799999999999727
	},
	{
		"name": "C4",
		"midi": 60,
		"time": 169.79999999999671,
		"velocity": 0.6771653543307087,
		"duration": 0.2799999999999727
	},
	{
		"name": "A3",
		"midi": 57,
		"time": 169.8149999999967,
		"velocity": 0.5984251968503937,
		"duration": 0.27499999999997726
	},
	{
		"name": "F3",
		"midi": 53,
		"time": 169.8149999999967,
		"velocity": 0.5984251968503937,
		"duration": 0.27499999999997726
	},
	{
		"name": "F4",
		"midi": 65,
		"time": 169.8199999999967,
		"velocity": 0.5984251968503937,
		"duration": 0.5799999999999557
	},
	{
		"name": "F3",
		"midi": 53,
		"time": 170.11499999999668,
		"velocity": 0.5984251968503937,
		"duration": 0.27499999999997726
	},
	{
		"name": "F4",
		"midi": 65,
		"time": 170.39999999999665,
		"velocity": 0.6771653543307087,
		"duration": 0.5800000000000125
	},
	{
		"name": "F3",
		"midi": 53,
		"time": 170.39999999999665,
		"velocity": 0.6771653543307087,
		"duration": 0.28000000000000114
	},
	{
		"name": "D4",
		"midi": 62,
		"time": 170.39999999999665,
		"velocity": 0.6771653543307087,
		"duration": 0.28000000000000114
	},
	{
		"name": "A#3",
		"midi": 58,
		"time": 170.39999999999665,
		"velocity": 0.6771653543307087,
		"duration": 0.28000000000000114
	},
	{
		"name": "A#2",
		"midi": 46,
		"time": 170.39999999999665,
		"velocity": 0.6771653543307087,
		"duration": 0.30000000000001137
	},
	{
		"name": "A#4",
		"midi": 70,
		"time": 170.41999999999666,
		"velocity": 0.6771653543307087,
		"duration": 0.5799999999999841
	},
	{
		"name": "A#2",
		"midi": 46,
		"time": 170.69999999999666,
		"velocity": 0.4881889763779528,
		"duration": 0.29999999999998295
	},
	{
		"name": "F3",
		"midi": 53,
		"time": 170.70499999999666,
		"velocity": 0.4881889763779528,
		"duration": 0.28000000000000114
	},
	{
		"name": "A#3",
		"midi": 58,
		"time": 170.70499999999666,
		"velocity": 0.4881889763779528,
		"duration": 0.28000000000000114
	},
	{
		"name": "D4",
		"midi": 62,
		"time": 170.97999999999666,
		"velocity": 0.6771653543307087,
		"duration": 0.2799999999999443
	},
	{
		"name": "A#2",
		"midi": 46,
		"time": 170.98999999999666,
		"velocity": 0.5984251968503937,
		"duration": 0.5799999999999272
	},
	{
		"name": "A#3",
		"midi": 58,
		"time": 171.00499999999664,
		"velocity": 0.5984251968503937,
		"duration": 0.2999999999999545
	},
	{
		"name": "F3",
		"midi": 53,
		"time": 171.00499999999664,
		"velocity": 0.5984251968503937,
		"duration": 0.2999999999999545
	},
	{
		"name": "F4",
		"midi": 65,
		"time": 171.01499999999663,
		"velocity": 0.5984251968503937,
		"duration": 0.5799999999999272
	},
	{
		"name": "A#4",
		"midi": 70,
		"time": 171.02999999999662,
		"velocity": 0.6771653543307087,
		"duration": 0.5799999999999272
	},
	{
		"name": "F3",
		"midi": 53,
		"time": 171.3049999999966,
		"velocity": 0.5984251968503937,
		"duration": 0.2999999999999545
	},
	{
		"name": "A#3",
		"midi": 58,
		"time": 171.3049999999966,
		"velocity": 0.5984251968503937,
		"duration": 0.2999999999999545
	},
	{
		"name": "D4",
		"midi": 62,
		"time": 171.57999999999657,
		"velocity": 0.6771653543307087,
		"duration": 0.2799999999999443
	},
	{
		"name": "A#2",
		"midi": 46,
		"time": 171.60499999999655,
		"velocity": 0.6771653543307087,
		"duration": 0.5799999999999557
	},
	{
		"name": "F3",
		"midi": 53,
		"time": 171.61499999999654,
		"velocity": 0.6771653543307087,
		"duration": 0.27499999999997726
	},
	{
		"name": "A#3",
		"midi": 58,
		"time": 171.61499999999654,
		"velocity": 0.6771653543307087,
		"duration": 0.27499999999997726
	},
	{
		"name": "F4",
		"midi": 65,
		"time": 171.61999999999654,
		"velocity": 0.6771653543307087,
		"duration": 0.5799999999999557
	},
	{
		"name": "A#4",
		"midi": 70,
		"time": 171.63499999999652,
		"velocity": 0.6771653543307087,
		"duration": 0.5799999999999557
	},
	{
		"name": "A#3",
		"midi": 58,
		"time": 171.9049999999965,
		"velocity": 0.5196850393700787,
		"duration": 0.2750000000000057
	},
	{
		"name": "F3",
		"midi": 53,
		"time": 171.9049999999965,
		"velocity": 0.5196850393700787,
		"duration": 0.2750000000000057
	},
	{
		"name": "D4",
		"midi": 62,
		"time": 172.1849999999965,
		"velocity": 0.6771653543307087,
		"duration": 0.2799999999999727
	},
	{
		"name": "A#2",
		"midi": 46,
		"time": 172.1899999999965,
		"velocity": 0.5984251968503937,
		"duration": 0.5799999999999841
	},
	{
		"name": "A4",
		"midi": 69,
		"time": 172.1999999999965,
		"velocity": 0.6771653543307087,
		"duration": 0.5799999999999841
	},
	{
		"name": "A#3",
		"midi": 58,
		"time": 172.21499999999648,
		"velocity": 0.5984251968503937,
		"duration": 0.2750000000000057
	},
	{
		"name": "F3",
		"midi": 53,
		"time": 172.21499999999648,
		"velocity": 0.5984251968503937,
		"duration": 0.2750000000000057
	},
	{
		"name": "F4",
		"midi": 65,
		"time": 172.21999999999647,
		"velocity": 0.5984251968503937,
		"duration": 0.5799999999999841
	},
	{
		"name": "F3",
		"midi": 53,
		"time": 172.5149999999965,
		"velocity": 0.5984251968503937,
		"duration": 0.27499999999997726
	},
	{
		"name": "F2",
		"midi": 41,
		"time": 172.79999999999646,
		"velocity": 0.5196850393700787,
		"duration": 0.2799999999999727
	},
	{
		"name": "C3",
		"midi": 48,
		"time": 172.79999999999646,
		"velocity": 0.6771653543307087,
		"duration": 0.29999999999998295
	},
	{
		"name": "F4",
		"midi": 65,
		"time": 172.79999999999646,
		"velocity": 0.6771653543307087,
		"duration": 0.5799999999999841
	},
	{
		"name": "A3",
		"midi": 57,
		"time": 172.79999999999646,
		"velocity": 0.6771653543307087,
		"duration": 0.2799999999999727
	},
	{
		"name": "F3",
		"midi": 53,
		"time": 172.79999999999646,
		"velocity": 0.6771653543307087,
		"duration": 0.2799999999999727
	},
	{
		"name": "A4",
		"midi": 69,
		"time": 172.81499999999645,
		"velocity": 0.6771653543307087,
		"duration": 0.5799999999999841
	},
	{
		"name": "C4",
		"midi": 60,
		"time": 172.81999999999644,
		"velocity": 0.6771653543307087,
		"duration": 0.28000000000000114
	},
	{
		"name": "C3",
		"midi": 48,
		"time": 173.09999999999644,
		"velocity": 0.4881889763779528,
		"duration": 0.29999999999998295
	},
	{
		"name": "F3",
		"midi": 53,
		"time": 173.10499999999644,
		"velocity": 0.4881889763779528,
		"duration": 0.28000000000000114
	},
	{
		"name": "A3",
		"midi": 57,
		"time": 173.10499999999644,
		"velocity": 0.4881889763779528,
		"duration": 0.28000000000000114
	},
	{
		"name": "C3",
		"midi": 48,
		"time": 173.38999999999643,
		"velocity": 0.5984251968503937,
		"duration": 0.5799999999999557
	},
	{
		"name": "C4",
		"midi": 60,
		"time": 173.39499999999643,
		"velocity": 0.6771653543307087,
		"duration": 0.2799999999999727
	},
	{
		"name": "F2",
		"midi": 41,
		"time": 173.39999999999642,
		"velocity": 0.5196850393700787,
		"duration": 0.2799999999999727
	},
	{
		"name": "A3",
		"midi": 57,
		"time": 173.40499999999642,
		"velocity": 0.5984251968503937,
		"duration": 0.29999999999998295
	},
	{
		"name": "F3",
		"midi": 53,
		"time": 173.40499999999642,
		"velocity": 0.5984251968503937,
		"duration": 0.29999999999998295
	},
	{
		"name": "A4",
		"midi": 69,
		"time": 173.4149999999964,
		"velocity": 0.6771653543307087,
		"duration": 0.5799999999999841
	},
	{
		"name": "F4",
		"midi": 65,
		"time": 173.4149999999964,
		"velocity": 0.5984251968503937,
		"duration": 0.5799999999999841
	},
	{
		"name": "F3",
		"midi": 53,
		"time": 173.7049999999964,
		"velocity": 0.5984251968503937,
		"duration": 0.29999999999998295
	},
	{
		"name": "A3",
		"midi": 57,
		"time": 173.7049999999964,
		"velocity": 0.5984251968503937,
		"duration": 0.29999999999998295
	},
	{
		"name": "C4",
		"midi": 60,
		"time": 173.9949999999964,
		"velocity": 0.6771653543307087,
		"duration": 0.2799999999999727
	},
	{
		"name": "F2",
		"midi": 41,
		"time": 173.9999999999964,
		"velocity": 0.5196850393700787,
		"duration": 0.2799999999999727
	},
	{
		"name": "C3",
		"midi": 48,
		"time": 174.0049999999964,
		"velocity": 0.6771653543307087,
		"duration": 0.5799999999999557
	},
	{
		"name": "A4",
		"midi": 69,
		"time": 174.01499999999638,
		"velocity": 0.6771653543307087,
		"duration": 0.5799999999999557
	},
	{
		"name": "F3",
		"midi": 53,
		"time": 174.01499999999638,
		"velocity": 0.6771653543307087,
		"duration": 0.27499999999997726
	},
	{
		"name": "A3",
		"midi": 57,
		"time": 174.01499999999638,
		"velocity": 0.6771653543307087,
		"duration": 0.27499999999997726
	},
	{
		"name": "F4",
		"midi": 65,
		"time": 174.01999999999637,
		"velocity": 0.6771653543307087,
		"duration": 0.5799999999999557
	},
	{
		"name": "F3",
		"midi": 53,
		"time": 174.30499999999634,
		"velocity": 0.5196850393700787,
		"duration": 0.2750000000000057
	},
	{
		"name": "A3",
		"midi": 57,
		"time": 174.30499999999634,
		"velocity": 0.5196850393700787,
		"duration": 0.2750000000000057
	},
	{
		"name": "C3",
		"midi": 48,
		"time": 174.58999999999634,
		"velocity": 0.5984251968503937,
		"duration": 0.5799999999999557
	},
	{
		"name": "A4",
		"midi": 69,
		"time": 174.59999999999633,
		"velocity": 0.6771653543307087,
		"duration": 0.5799999999999557
	},
	{
		"name": "F2",
		"midi": 41,
		"time": 174.59999999999633,
		"velocity": 0.5196850393700787,
		"duration": 0.2799999999999727
	},
	{
		"name": "C4",
		"midi": 60,
		"time": 174.59999999999633,
		"velocity": 0.6771653543307087,
		"duration": 0.2799999999999727
	},
	{
		"name": "A3",
		"midi": 57,
		"time": 174.61499999999631,
		"velocity": 0.5984251968503937,
		"duration": 0.27499999999997726
	},
	{
		"name": "F3",
		"midi": 53,
		"time": 174.61499999999631,
		"velocity": 0.5984251968503937,
		"duration": 0.27499999999997726
	},
	{
		"name": "F4",
		"midi": 65,
		"time": 174.6199999999963,
		"velocity": 0.5984251968503937,
		"duration": 0.5799999999999557
	},
	{
		"name": "F3",
		"midi": 53,
		"time": 174.9149999999963,
		"velocity": 0.5984251968503937,
		"duration": 0.27499999999997726
	},
	{
		"name": "F2",
		"midi": 41,
		"time": 175.19999999999627,
		"velocity": 0.5196850393700787,
		"duration": 0.2799999999999727
	},
	{
		"name": "C3",
		"midi": 48,
		"time": 175.19999999999627,
		"velocity": 0.6771653543307087,
		"duration": 0.29999999999998295
	},
	{
		"name": "F4",
		"midi": 65,
		"time": 175.19999999999627,
		"velocity": 0.6771653543307087,
		"duration": 0.5799999999999841
	},
	{
		"name": "A3",
		"midi": 57,
		"time": 175.19999999999627,
		"velocity": 0.6771653543307087,
		"duration": 0.2799999999999727
	},
	{
		"name": "F3",
		"midi": 53,
		"time": 175.19999999999627,
		"velocity": 0.6771653543307087,
		"duration": 0.2799999999999727
	},
	{
		"name": "A4",
		"midi": 69,
		"time": 175.21499999999625,
		"velocity": 0.6771653543307087,
		"duration": 0.5799999999999841
	},
	{
		"name": "C4",
		"midi": 60,
		"time": 175.21999999999625,
		"velocity": 0.6771653543307087,
		"duration": 0.28000000000000114
	},
	{
		"name": "C3",
		"midi": 48,
		"time": 175.49999999999625,
		"velocity": 0.4881889763779528,
		"duration": 0.29999999999998295
	},
	{
		"name": "F3",
		"midi": 53,
		"time": 175.50499999999624,
		"velocity": 0.4881889763779528,
		"duration": 0.28000000000000114
	},
	{
		"name": "A3",
		"midi": 57,
		"time": 175.50499999999624,
		"velocity": 0.4881889763779528,
		"duration": 0.28000000000000114
	},
	{
		"name": "C3",
		"midi": 48,
		"time": 175.78999999999624,
		"velocity": 0.5984251968503937,
		"duration": 0.5799999999999557
	},
	{
		"name": "C4",
		"midi": 60,
		"time": 175.79499999999624,
		"velocity": 0.6771653543307087,
		"duration": 0.2799999999999727
	},
	{
		"name": "F2",
		"midi": 41,
		"time": 175.79999999999623,
		"velocity": 0.5196850393700787,
		"duration": 0.2799999999999727
	},
	{
		"name": "A3",
		"midi": 57,
		"time": 175.80499999999623,
		"velocity": 0.5984251968503937,
		"duration": 0.29999999999998295
	},
	{
		"name": "F3",
		"midi": 53,
		"time": 175.80499999999623,
		"velocity": 0.5984251968503937,
		"duration": 0.29999999999998295
	},
	{
		"name": "A4",
		"midi": 69,
		"time": 175.81499999999622,
		"velocity": 0.6771653543307087,
		"duration": 0.5799999999999841
	},
	{
		"name": "F4",
		"midi": 65,
		"time": 175.81499999999622,
		"velocity": 0.5984251968503937,
		"duration": 0.5799999999999841
	},
	{
		"name": "F3",
		"midi": 53,
		"time": 176.1049999999962,
		"velocity": 0.5984251968503937,
		"duration": 0.29999999999998295
	},
	{
		"name": "A3",
		"midi": 57,
		"time": 176.1049999999962,
		"velocity": 0.5984251968503937,
		"duration": 0.29999999999998295
	},
	{
		"name": "C4",
		"midi": 60,
		"time": 176.3949999999962,
		"velocity": 0.6771653543307087,
		"duration": 0.2799999999999727
	},
	{
		"name": "F2",
		"midi": 41,
		"time": 176.3999999999962,
		"velocity": 0.5196850393700787,
		"duration": 0.2799999999999727
	},
	{
		"name": "C3",
		"midi": 48,
		"time": 176.4049999999962,
		"velocity": 0.6771653543307087,
		"duration": 0.5799999999999557
	},
	{
		"name": "A4",
		"midi": 69,
		"time": 176.41499999999618,
		"velocity": 0.6771653543307087,
		"duration": 0.5799999999999557
	},
	{
		"name": "F3",
		"midi": 53,
		"time": 176.41499999999618,
		"velocity": 0.6771653543307087,
		"duration": 0.27499999999997726
	},
	{
		"name": "A3",
		"midi": 57,
		"time": 176.41499999999618,
		"velocity": 0.6771653543307087,
		"duration": 0.27499999999997726
	},
	{
		"name": "F4",
		"midi": 65,
		"time": 176.41999999999618,
		"velocity": 0.6771653543307087,
		"duration": 0.5799999999999557
	},
	{
		"name": "F3",
		"midi": 53,
		"time": 176.70499999999615,
		"velocity": 0.5196850393700787,
		"duration": 0.2750000000000057
	},
	{
		"name": "A3",
		"midi": 57,
		"time": 176.70499999999615,
		"velocity": 0.5196850393700787,
		"duration": 0.2750000000000057
	},
	{
		"name": "C3",
		"midi": 48,
		"time": 176.98999999999614,
		"velocity": 0.5984251968503937,
		"duration": 0.5799999999999557
	},
	{
		"name": "A4",
		"midi": 69,
		"time": 176.99999999999613,
		"velocity": 0.6771653543307087,
		"duration": 0.5799999999999557
	},
	{
		"name": "F2",
		"midi": 41,
		"time": 176.99999999999613,
		"velocity": 0.5196850393700787,
		"duration": 0.2799999999999727
	},
	{
		"name": "C4",
		"midi": 60,
		"time": 176.99999999999613,
		"velocity": 0.6771653543307087,
		"duration": 0.2799999999999727
	},
	{
		"name": "A3",
		"midi": 57,
		"time": 177.01499999999612,
		"velocity": 0.5984251968503937,
		"duration": 0.27499999999997726
	},
	{
		"name": "F3",
		"midi": 53,
		"time": 177.01499999999612,
		"velocity": 0.5984251968503937,
		"duration": 0.27499999999997726
	},
	{
		"name": "F4",
		"midi": 65,
		"time": 177.01999999999612,
		"velocity": 0.5984251968503937,
		"duration": 0.5799999999999557
	},
	{
		"name": "F3",
		"midi": 53,
		"time": 177.3149999999961,
		"velocity": 0.5984251968503937,
		"duration": 0.27499999999997726
	},
	{
		"name": "F4",
		"midi": 65,
		"time": 177.59999999999607,
		"velocity": 0.6771653543307087,
		"duration": 0.5799999999999557
	},
	{
		"name": "C4",
		"midi": 60,
		"time": 177.59999999999607,
		"velocity": 0.6771653543307087,
		"duration": 0.2799999999999727
	},
	{
		"name": "A3",
		"midi": 57,
		"time": 177.59999999999607,
		"velocity": 0.6771653543307087,
		"duration": 0.2799999999999727
	},
	{
		"name": "D3",
		"midi": 50,
		"time": 177.59999999999607,
		"velocity": 0.6771653543307087,
		"duration": 0.2999999999999545
	},
	{
		"name": "F2",
		"midi": 41,
		"time": 177.59999999999607,
		"velocity": 0.5196850393700787,
		"duration": 0.2799999999999727
	},
	{
		"name": "D4",
		"midi": 62,
		"time": 177.60999999999606,
		"velocity": 0.6771653543307087,
		"duration": 0.2799999999999727
	},
	{
		"name": "A4",
		"midi": 69,
		"time": 177.61499999999606,
		"velocity": 0.6771653543307087,
		"duration": 0.5799999999999557
	},
	{
		"name": "D3",
		"midi": 50,
		"time": 177.89999999999603,
		"velocity": 0.4881889763779528,
		"duration": 0.29999999999998295
	},
	{
		"name": "D4",
		"midi": 62,
		"time": 177.90499999999602,
		"velocity": 0.4881889763779528,
		"duration": 0.28000000000000114
	},
	{
		"name": "A3",
		"midi": 57,
		"time": 177.90499999999602,
		"velocity": 0.4881889763779528,
		"duration": 0.28000000000000114
	},
	{
		"name": "D4",
		"midi": 62,
		"time": 178.18499999999602,
		"velocity": 0.6771653543307087,
		"duration": 0.2799999999999727
	},
	{
		"name": "D3",
		"midi": 50,
		"time": 178.18999999999602,
		"velocity": 0.5984251968503937,
		"duration": 0.5799999999999557
	},
	{
		"name": "F2",
		"midi": 41,
		"time": 178.199999999996,
		"velocity": 0.5196850393700787,
		"duration": 0.2799999999999727
	},
	{
		"name": "C4",
		"midi": 60,
		"time": 178.204999999996,
		"velocity": 0.5984251968503937,
		"duration": 0.29999999999998295
	},
	{
		"name": "A3",
		"midi": 57,
		"time": 178.204999999996,
		"velocity": 0.5984251968503937,
		"duration": 0.29999999999998295
	},
	{
		"name": "A4",
		"midi": 69,
		"time": 178.214999999996,
		"velocity": 0.6771653543307087,
		"duration": 0.5799999999999557
	},
	{
		"name": "F4",
		"midi": 65,
		"time": 178.214999999996,
		"velocity": 0.5984251968503937,
		"duration": 0.5799999999999557
	},
	{
		"name": "A3",
		"midi": 57,
		"time": 178.504999999996,
		"velocity": 0.4409448818897638,
		"duration": 0.2999999999999545
	},
	{
		"name": "D4",
		"midi": 62,
		"time": 178.504999999996,
		"velocity": 0.4409448818897638,
		"duration": 0.2999999999999545
	},
	{
		"name": "D4",
		"midi": 62,
		"time": 178.78499999999596,
		"velocity": 0.6771653543307087,
		"duration": 0.2799999999999727
	},
	{
		"name": "F2",
		"midi": 41,
		"time": 178.79999999999595,
		"velocity": 0.5196850393700787,
		"duration": 0.2799999999999727
	},
	{
		"name": "D3",
		"midi": 50,
		"time": 178.80499999999594,
		"velocity": 0.6771653543307087,
		"duration": 0.5799999999999557
	},
	{
		"name": "A3",
		"midi": 57,
		"time": 178.81499999999593,
		"velocity": 0.6771653543307087,
		"duration": 0.27499999999997726
	},
	{
		"name": "C4",
		"midi": 60,
		"time": 178.81499999999593,
		"velocity": 0.6771653543307087,
		"duration": 0.27499999999997726
	},
	{
		"name": "A4",
		"midi": 69,
		"time": 178.81499999999593,
		"velocity": 0.6771653543307087,
		"duration": 0.5799999999999557
	},
	{
		"name": "F4",
		"midi": 65,
		"time": 178.81999999999593,
		"velocity": 0.6771653543307087,
		"duration": 0.5799999999999557
	},
	{
		"name": "A3",
		"midi": 57,
		"time": 179.1049999999959,
		"velocity": 0.3937007874015748,
		"duration": 0.2750000000000057
	},
	{
		"name": "D4",
		"midi": 62,
		"time": 179.1049999999959,
		"velocity": 0.3937007874015748,
		"duration": 0.2750000000000057
	},
	{
		"name": "D3",
		"midi": 50,
		"time": 179.3899999999959,
		"velocity": 0.5984251968503937,
		"duration": 0.5799999999999557
	},
	{
		"name": "D4",
		"midi": 62,
		"time": 179.3899999999959,
		"velocity": 0.6771653543307087,
		"duration": 0.2799999999999727
	},
	{
		"name": "F2",
		"midi": 41,
		"time": 179.39999999999588,
		"velocity": 0.5196850393700787,
		"duration": 0.2799999999999727
	},
	{
		"name": "A4",
		"midi": 69,
		"time": 179.39999999999588,
		"velocity": 0.6771653543307087,
		"duration": 0.5799999999999557
	},
	{
		"name": "C4",
		"midi": 60,
		"time": 179.41499999999587,
		"velocity": 0.5984251968503937,
		"duration": 0.27499999999997726
	},
	{
		"name": "A3",
		"midi": 57,
		"time": 179.41499999999587,
		"velocity": 0.5984251968503937,
		"duration": 0.27499999999997726
	},
	{
		"name": "F4",
		"midi": 65,
		"time": 179.41999999999587,
		"velocity": 0.5984251968503937,
		"duration": 0.5799999999999557
	},
	{
		"name": "A3",
		"midi": 57,
		"time": 179.71499999999585,
		"velocity": 0.5984251968503937,
		"duration": 0.27499999999997726
	},
	{
		"name": "F4",
		"midi": 65,
		"time": 179.99999999999582,
		"velocity": 0.6771653543307087,
		"duration": 0.5800000000000125
	},
	{
		"name": "F3",
		"midi": 53,
		"time": 179.99999999999582,
		"velocity": 0.6771653543307087,
		"duration": 0.30000000000001137
	},
	{
		"name": "A#2",
		"midi": 46,
		"time": 179.99999999999582,
		"velocity": 0.5196850393700787,
		"duration": 0.28000000000000114
	},
	{
		"name": "D4",
		"midi": 62,
		"time": 179.99999999999582,
		"velocity": 0.6771653543307087,
		"duration": 0.28000000000000114
	},
	{
		"name": "A#3",
		"midi": 58,
		"time": 179.99999999999582,
		"velocity": 0.6771653543307087,
		"duration": 0.28000000000000114
	},
	{
		"name": "A#4",
		"midi": 70,
		"time": 180.00499999999582,
		"velocity": 0.6771653543307087,
		"duration": 0.5800000000000125
	},
	{
		"name": "F3",
		"midi": 53,
		"time": 180.29999999999583,
		"velocity": 0.4881889763779528,
		"duration": 0.29999999999998295
	},
	{
		"name": "A#3",
		"midi": 58,
		"time": 180.30499999999583,
		"velocity": 0.4881889763779528,
		"duration": 0.28000000000000114
	},
	{
		"name": "D4",
		"midi": 62,
		"time": 180.58499999999583,
		"velocity": 0.6771653543307087,
		"duration": 0.2799999999999727
	},
	{
		"name": "F3",
		"midi": 53,
		"time": 180.58999999999583,
		"velocity": 0.5984251968503937,
		"duration": 0.5799999999999557
	},
	{
		"name": "A#2",
		"midi": 46,
		"time": 180.59999999999582,
		"velocity": 0.5196850393700787,
		"duration": 0.2799999999999727
	},
	{
		"name": "A#4",
		"midi": 70,
		"time": 180.6049999999958,
		"velocity": 0.6771653543307087,
		"duration": 0.5799999999999557
	},
	{
		"name": "A#3",
		"midi": 58,
		"time": 180.6049999999958,
		"velocity": 0.5984251968503937,
		"duration": 0.29999999999998295
	},
	{
		"name": "F4",
		"midi": 65,
		"time": 180.6149999999958,
		"velocity": 0.5984251968503937,
		"duration": 0.5799999999999557
	},
	{
		"name": "A#3",
		"midi": 58,
		"time": 180.9049999999958,
		"velocity": 0.5984251968503937,
		"duration": 0.2999999999999545
	},
	{
		"name": "D4",
		"midi": 62,
		"time": 181.18499999999577,
		"velocity": 0.6771653543307087,
		"duration": 0.2799999999999727
	},
	{
		"name": "A#2",
		"midi": 46,
		"time": 181.19999999999575,
		"velocity": 0.5196850393700787,
		"duration": 0.2799999999999727
	},
	{
		"name": "F3",
		"midi": 53,
		"time": 181.20499999999575,
		"velocity": 0.6771653543307087,
		"duration": 0.5799999999999557
	},
	{
		"name": "A#4",
		"midi": 70,
		"time": 181.20499999999575,
		"velocity": 0.6771653543307087,
		"duration": 0.5799999999999557
	},
	{
		"name": "A#3",
		"midi": 58,
		"time": 181.21499999999574,
		"velocity": 0.6771653543307087,
		"duration": 0.27499999999997726
	},
	{
		"name": "F4",
		"midi": 65,
		"time": 181.21999999999574,
		"velocity": 0.6771653543307087,
		"duration": 0.5799999999999557
	},
	{
		"name": "A#3",
		"midi": 58,
		"time": 181.5049999999957,
		"velocity": 0.5196850393700787,
		"duration": 0.2750000000000057
	},
	{
		"name": "D4",
		"midi": 62,
		"time": 181.7899999999957,
		"velocity": 0.6771653543307087,
		"duration": 0.2799999999999727
	},
	{
		"name": "A#4",
		"midi": 70,
		"time": 181.7899999999957,
		"velocity": 0.6771653543307087,
		"duration": 0.5799999999999557
	},
	{
		"name": "F3",
		"midi": 53,
		"time": 181.7899999999957,
		"velocity": 0.5984251968503937,
		"duration": 0.5799999999999557
	},
	{
		"name": "A#2",
		"midi": 46,
		"time": 181.7999999999957,
		"velocity": 0.5196850393700787,
		"duration": 0.2799999999999727
	},
	{
		"name": "A#3",
		"midi": 58,
		"time": 181.81499999999568,
		"velocity": 0.5984251968503937,
		"duration": 0.27499999999997726
	},
	{
		"name": "F4",
		"midi": 65,
		"time": 181.81999999999567,
		"velocity": 0.5984251968503937,
		"duration": 0.5799999999999841
	},
	{
		"name": "C4",
		"midi": 60,
		"time": 182.11499999999566,
		"velocity": 0.5984251968503937,
		"duration": 0.2750000000000057
	},
	{
		"name": "F2",
		"midi": 41,
		"time": 182.39999999999566,
		"velocity": 0.5196850393700787,
		"duration": 0.2799999999999727
	},
	{
		"name": "C3",
		"midi": 48,
		"time": 182.39999999999566,
		"velocity": 0.6771653543307087,
		"duration": 0.29999999999998295
	},
	{
		"name": "F4",
		"midi": 65,
		"time": 182.39999999999566,
		"velocity": 0.6771653543307087,
		"duration": 0.5799999999999841
	},
	{
		"name": "A3",
		"midi": 57,
		"time": 182.39999999999566,
		"velocity": 0.6771653543307087,
		"duration": 0.2799999999999727
	},
	{
		"name": "F3",
		"midi": 53,
		"time": 182.39999999999566,
		"velocity": 0.6771653543307087,
		"duration": 0.2799999999999727
	},
	{
		"name": "A4",
		"midi": 69,
		"time": 182.41499999999564,
		"velocity": 0.6771653543307087,
		"duration": 0.5799999999999841
	},
	{
		"name": "C4",
		"midi": 60,
		"time": 182.41999999999564,
		"velocity": 0.6771653543307087,
		"duration": 0.28000000000000114
	},
	{
		"name": "C3",
		"midi": 48,
		"time": 182.69999999999564,
		"velocity": 0.4881889763779528,
		"duration": 0.29999999999998295
	},
	{
		"name": "F3",
		"midi": 53,
		"time": 182.70499999999564,
		"velocity": 0.4881889763779528,
		"duration": 0.28000000000000114
	},
	{
		"name": "A3",
		"midi": 57,
		"time": 182.70499999999564,
		"velocity": 0.4881889763779528,
		"duration": 0.28000000000000114
	},
	{
		"name": "C3",
		"midi": 48,
		"time": 182.98999999999563,
		"velocity": 0.5984251968503937,
		"duration": 0.5799999999999557
	},
	{
		"name": "C4",
		"midi": 60,
		"time": 182.99499999999563,
		"velocity": 0.6771653543307087,
		"duration": 0.2799999999999727
	},
	{
		"name": "F2",
		"midi": 41,
		"time": 182.99999999999562,
		"velocity": 0.5196850393700787,
		"duration": 0.2799999999999727
	},
	{
		"name": "A3",
		"midi": 57,
		"time": 183.00499999999562,
		"velocity": 0.5984251968503937,
		"duration": 0.29999999999998295
	},
	{
		"name": "F3",
		"midi": 53,
		"time": 183.00499999999562,
		"velocity": 0.5984251968503937,
		"duration": 0.29999999999998295
	},
	{
		"name": "A4",
		"midi": 69,
		"time": 183.0149999999956,
		"velocity": 0.6771653543307087,
		"duration": 0.5799999999999841
	},
	{
		"name": "F4",
		"midi": 65,
		"time": 183.0149999999956,
		"velocity": 0.5984251968503937,
		"duration": 0.5799999999999841
	},
	{
		"name": "F3",
		"midi": 53,
		"time": 183.3049999999956,
		"velocity": 0.5984251968503937,
		"duration": 0.29999999999998295
	},
	{
		"name": "A3",
		"midi": 57,
		"time": 183.3049999999956,
		"velocity": 0.5984251968503937,
		"duration": 0.29999999999998295
	},
	{
		"name": "C4",
		"midi": 60,
		"time": 183.5949999999956,
		"velocity": 0.6771653543307087,
		"duration": 0.2799999999999727
	},
	{
		"name": "F2",
		"midi": 41,
		"time": 183.5999999999956,
		"velocity": 0.5196850393700787,
		"duration": 0.2799999999999727
	},
	{
		"name": "C3",
		"midi": 48,
		"time": 183.60499999999558,
		"velocity": 0.6771653543307087,
		"duration": 0.5799999999999557
	},
	{
		"name": "A4",
		"midi": 69,
		"time": 183.61499999999558,
		"velocity": 0.6771653543307087,
		"duration": 0.5799999999999557
	},
	{
		"name": "F3",
		"midi": 53,
		"time": 183.61499999999558,
		"velocity": 0.6771653543307087,
		"duration": 0.27499999999997726
	},
	{
		"name": "A3",
		"midi": 57,
		"time": 183.61499999999558,
		"velocity": 0.6771653543307087,
		"duration": 0.27499999999997726
	},
	{
		"name": "F4",
		"midi": 65,
		"time": 183.61999999999557,
		"velocity": 0.6771653543307087,
		"duration": 0.5799999999999557
	},
	{
		"name": "F3",
		"midi": 53,
		"time": 183.90499999999554,
		"velocity": 0.5196850393700787,
		"duration": 0.2750000000000057
	},
	{
		"name": "A3",
		"midi": 57,
		"time": 183.90499999999554,
		"velocity": 0.5196850393700787,
		"duration": 0.2750000000000057
	},
	{
		"name": "C3",
		"midi": 48,
		"time": 184.18999999999554,
		"velocity": 0.5984251968503937,
		"duration": 0.5799999999999557
	},
	{
		"name": "A4",
		"midi": 69,
		"time": 184.19999999999553,
		"velocity": 0.6771653543307087,
		"duration": 0.5799999999999557
	},
	{
		"name": "F2",
		"midi": 41,
		"time": 184.19999999999553,
		"velocity": 0.5196850393700787,
		"duration": 0.2799999999999727
	},
	{
		"name": "C4",
		"midi": 60,
		"time": 184.19999999999553,
		"velocity": 0.6771653543307087,
		"duration": 0.2799999999999727
	},
	{
		"name": "A3",
		"midi": 57,
		"time": 184.2149999999955,
		"velocity": 0.5984251968503937,
		"duration": 0.27499999999997726
	},
	{
		"name": "F3",
		"midi": 53,
		"time": 184.2149999999955,
		"velocity": 0.5984251968503937,
		"duration": 0.27499999999997726
	},
	{
		"name": "F4",
		"midi": 65,
		"time": 184.2199999999955,
		"velocity": 0.5984251968503937,
		"duration": 0.5799999999999557
	},
	{
		"name": "F3",
		"midi": 53,
		"time": 184.5149999999955,
		"velocity": 0.5984251968503937,
		"duration": 0.27499999999997726
	},
	{
		"name": "F2",
		"midi": 41,
		"time": 184.79999999999546,
		"velocity": 0.5196850393700787,
		"duration": 0.2799999999999727
	},
	{
		"name": "C3",
		"midi": 48,
		"time": 184.79999999999546,
		"velocity": 0.6771653543307087,
		"duration": 0.29999999999998295
	},
	{
		"name": "F4",
		"midi": 65,
		"time": 184.79999999999546,
		"velocity": 0.6771653543307087,
		"duration": 0.5799999999999841
	},
	{
		"name": "A3",
		"midi": 57,
		"time": 184.79999999999546,
		"velocity": 0.6771653543307087,
		"duration": 0.2799999999999727
	},
	{
		"name": "F3",
		"midi": 53,
		"time": 184.79999999999546,
		"velocity": 0.6771653543307087,
		"duration": 0.2799999999999727
	},
	{
		"name": "A4",
		"midi": 69,
		"time": 184.81499999999545,
		"velocity": 0.6771653543307087,
		"duration": 0.5799999999999841
	},
	{
		"name": "C4",
		"midi": 60,
		"time": 184.81999999999545,
		"velocity": 0.6771653543307087,
		"duration": 0.28000000000000114
	},
	{
		"name": "C3",
		"midi": 48,
		"time": 185.09999999999545,
		"velocity": 0.4881889763779528,
		"duration": 0.29999999999998295
	},
	{
		"name": "F3",
		"midi": 53,
		"time": 185.10499999999544,
		"velocity": 0.4881889763779528,
		"duration": 0.28000000000000114
	},
	{
		"name": "A3",
		"midi": 57,
		"time": 185.10499999999544,
		"velocity": 0.4881889763779528,
		"duration": 0.28000000000000114
	},
	{
		"name": "C3",
		"midi": 48,
		"time": 185.38999999999544,
		"velocity": 0.5984251968503937,
		"duration": 0.5799999999999557
	},
	{
		"name": "C4",
		"midi": 60,
		"time": 185.39499999999543,
		"velocity": 0.6771653543307087,
		"duration": 0.2799999999999727
	},
	{
		"name": "F2",
		"midi": 41,
		"time": 185.39999999999543,
		"velocity": 0.5196850393700787,
		"duration": 0.2799999999999727
	},
	{
		"name": "A3",
		"midi": 57,
		"time": 185.40499999999543,
		"velocity": 0.5984251968503937,
		"duration": 0.29999999999998295
	},
	{
		"name": "F3",
		"midi": 53,
		"time": 185.40499999999543,
		"velocity": 0.5984251968503937,
		"duration": 0.29999999999998295
	},
	{
		"name": "A4",
		"midi": 69,
		"time": 185.41499999999542,
		"velocity": 0.6771653543307087,
		"duration": 0.5799999999999841
	},
	{
		"name": "F4",
		"midi": 65,
		"time": 185.41499999999542,
		"velocity": 0.5984251968503937,
		"duration": 0.5799999999999841
	},
	{
		"name": "F3",
		"midi": 53,
		"time": 185.7049999999954,
		"velocity": 0.5984251968503937,
		"duration": 0.29999999999998295
	},
	{
		"name": "A3",
		"midi": 57,
		"time": 185.7049999999954,
		"velocity": 0.5984251968503937,
		"duration": 0.29999999999998295
	},
	{
		"name": "C4",
		"midi": 60,
		"time": 185.9949999999954,
		"velocity": 0.6771653543307087,
		"duration": 0.2799999999999727
	},
	{
		"name": "F2",
		"midi": 41,
		"time": 185.9999999999954,
		"velocity": 0.5196850393700787,
		"duration": 0.2799999999999727
	},
	{
		"name": "C3",
		"midi": 48,
		"time": 186.0049999999954,
		"velocity": 0.6771653543307087,
		"duration": 0.5799999999999557
	},
	{
		"name": "A4",
		"midi": 69,
		"time": 186.01499999999538,
		"velocity": 0.6771653543307087,
		"duration": 0.5799999999999557
	},
	{
		"name": "F3",
		"midi": 53,
		"time": 186.01499999999538,
		"velocity": 0.6771653543307087,
		"duration": 0.27499999999997726
	},
	{
		"name": "A3",
		"midi": 57,
		"time": 186.01499999999538,
		"velocity": 0.6771653543307087,
		"duration": 0.27499999999997726
	},
	{
		"name": "F4",
		"midi": 65,
		"time": 186.01999999999538,
		"velocity": 0.6771653543307087,
		"duration": 0.5799999999999557
	},
	{
		"name": "F3",
		"midi": 53,
		"time": 186.30499999999535,
		"velocity": 0.5196850393700787,
		"duration": 0.2750000000000057
	},
	{
		"name": "A3",
		"midi": 57,
		"time": 186.30499999999535,
		"velocity": 0.5196850393700787,
		"duration": 0.2750000000000057
	},
	{
		"name": "C3",
		"midi": 48,
		"time": 186.58999999999534,
		"velocity": 0.5984251968503937,
		"duration": 0.5799999999999557
	},
	{
		"name": "A4",
		"midi": 69,
		"time": 186.59999999999533,
		"velocity": 0.6771653543307087,
		"duration": 0.5799999999999557
	},
	{
		"name": "F2",
		"midi": 41,
		"time": 186.59999999999533,
		"velocity": 0.5196850393700787,
		"duration": 0.2799999999999727
	},
	{
		"name": "C4",
		"midi": 60,
		"time": 186.59999999999533,
		"velocity": 0.6771653543307087,
		"duration": 0.2799999999999727
	},
	{
		"name": "A3",
		"midi": 57,
		"time": 186.61499999999532,
		"velocity": 0.5984251968503937,
		"duration": 0.27499999999997726
	},
	{
		"name": "F3",
		"midi": 53,
		"time": 186.61499999999532,
		"velocity": 0.5984251968503937,
		"duration": 0.27499999999997726
	},
	{
		"name": "F4",
		"midi": 65,
		"time": 186.61999999999531,
		"velocity": 0.5984251968503937,
		"duration": 0.5799999999999557
	},
	{
		"name": "F3",
		"midi": 53,
		"time": 186.9149999999953,
		"velocity": 0.5984251968503937,
		"duration": 0.27499999999997726
	},
	{
		"name": "F4",
		"midi": 65,
		"time": 187.19999999999527,
		"velocity": 0.6771653543307087,
		"duration": 0.5799999999999557
	},
	{
		"name": "C4",
		"midi": 60,
		"time": 187.19999999999527,
		"velocity": 0.6771653543307087,
		"duration": 0.2799999999999727
	},
	{
		"name": "A3",
		"midi": 57,
		"time": 187.19999999999527,
		"velocity": 0.6771653543307087,
		"duration": 0.2799999999999727
	},
	{
		"name": "D3",
		"midi": 50,
		"time": 187.19999999999527,
		"velocity": 0.6771653543307087,
		"duration": 0.2999999999999545
	},
	{
		"name": "F2",
		"midi": 41,
		"time": 187.19999999999527,
		"velocity": 0.5196850393700787,
		"duration": 0.2799999999999727
	},
	{
		"name": "D4",
		"midi": 62,
		"time": 187.20999999999526,
		"velocity": 0.6771653543307087,
		"duration": 0.2799999999999727
	},
	{
		"name": "A4",
		"midi": 69,
		"time": 187.21499999999526,
		"velocity": 0.6771653543307087,
		"duration": 0.5799999999999557
	},
	{
		"name": "D3",
		"midi": 50,
		"time": 187.49999999999523,
		"velocity": 0.4881889763779528,
		"duration": 0.29999999999998295
	},
	{
		"name": "D4",
		"midi": 62,
		"time": 187.50499999999522,
		"velocity": 0.4881889763779528,
		"duration": 0.28000000000000114
	},
	{
		"name": "A3",
		"midi": 57,
		"time": 187.50499999999522,
		"velocity": 0.4881889763779528,
		"duration": 0.28000000000000114
	},
	{
		"name": "D4",
		"midi": 62,
		"time": 187.78499999999522,
		"velocity": 0.6771653543307087,
		"duration": 0.2799999999999727
	},
	{
		"name": "D3",
		"midi": 50,
		"time": 187.78999999999522,
		"velocity": 0.5984251968503937,
		"duration": 0.5799999999999557
	},
	{
		"name": "F2",
		"midi": 41,
		"time": 187.7999999999952,
		"velocity": 0.5196850393700787,
		"duration": 0.2799999999999727
	},
	{
		"name": "C4",
		"midi": 60,
		"time": 187.8049999999952,
		"velocity": 0.5984251968503937,
		"duration": 0.29999999999998295
	},
	{
		"name": "A3",
		"midi": 57,
		"time": 187.8049999999952,
		"velocity": 0.5984251968503937,
		"duration": 0.29999999999998295
	},
	{
		"name": "A4",
		"midi": 69,
		"time": 187.8149999999952,
		"velocity": 0.6771653543307087,
		"duration": 0.5799999999999557
	},
	{
		"name": "F4",
		"midi": 65,
		"time": 187.8149999999952,
		"velocity": 0.5984251968503937,
		"duration": 0.5799999999999557
	},
	{
		"name": "A3",
		"midi": 57,
		"time": 188.1049999999952,
		"velocity": 0.4409448818897638,
		"duration": 0.2999999999999545
	},
	{
		"name": "D4",
		"midi": 62,
		"time": 188.1049999999952,
		"velocity": 0.4409448818897638,
		"duration": 0.2999999999999545
	},
	{
		"name": "D4",
		"midi": 62,
		"time": 188.38499999999516,
		"velocity": 0.6771653543307087,
		"duration": 0.2799999999999727
	},
	{
		"name": "F2",
		"midi": 41,
		"time": 188.39999999999515,
		"velocity": 0.5196850393700787,
		"duration": 0.2799999999999727
	},
	{
		"name": "D3",
		"midi": 50,
		"time": 188.40499999999514,
		"velocity": 0.6771653543307087,
		"duration": 0.5799999999999557
	},
	{
		"name": "A3",
		"midi": 57,
		"time": 188.41499999999513,
		"velocity": 0.6771653543307087,
		"duration": 0.27499999999997726
	},
	{
		"name": "C4",
		"midi": 60,
		"time": 188.41499999999513,
		"velocity": 0.6771653543307087,
		"duration": 0.27499999999997726
	},
	{
		"name": "A4",
		"midi": 69,
		"time": 188.41499999999513,
		"velocity": 0.6771653543307087,
		"duration": 0.5799999999999557
	},
	{
		"name": "F4",
		"midi": 65,
		"time": 188.41999999999513,
		"velocity": 0.6771653543307087,
		"duration": 0.5799999999999557
	},
	{
		"name": "A3",
		"midi": 57,
		"time": 188.7049999999951,
		"velocity": 0.3937007874015748,
		"duration": 0.2750000000000057
	},
	{
		"name": "D4",
		"midi": 62,
		"time": 188.7049999999951,
		"velocity": 0.3937007874015748,
		"duration": 0.2750000000000057
	},
	{
		"name": "D3",
		"midi": 50,
		"time": 188.9899999999951,
		"velocity": 0.5984251968503937,
		"duration": 0.5799999999999557
	},
	{
		"name": "D4",
		"midi": 62,
		"time": 188.9899999999951,
		"velocity": 0.6771653543307087,
		"duration": 0.2799999999999727
	},
	{
		"name": "F2",
		"midi": 41,
		"time": 188.99999999999508,
		"velocity": 0.5196850393700787,
		"duration": 0.2799999999999727
	},
	{
		"name": "A4",
		"midi": 69,
		"time": 188.99999999999508,
		"velocity": 0.6771653543307087,
		"duration": 0.5799999999999557
	},
	{
		"name": "C4",
		"midi": 60,
		"time": 189.01499999999507,
		"velocity": 0.5984251968503937,
		"duration": 0.27499999999997726
	},
	{
		"name": "A3",
		"midi": 57,
		"time": 189.01499999999507,
		"velocity": 0.5984251968503937,
		"duration": 0.27499999999997726
	},
	{
		"name": "F4",
		"midi": 65,
		"time": 189.01999999999506,
		"velocity": 0.5984251968503937,
		"duration": 0.5799999999999557
	},
	{
		"name": "A3",
		"midi": 57,
		"time": 189.31499999999505,
		"velocity": 0.5984251968503937,
		"duration": 0.27499999999997726
	},
	{
		"name": "F4",
		"midi": 65,
		"time": 189.59999999999502,
		"velocity": 0.6771653543307087,
		"duration": 0.5800000000000125
	},
	{
		"name": "F3",
		"midi": 53,
		"time": 189.59999999999502,
		"velocity": 0.6771653543307087,
		"duration": 0.30000000000001137
	},
	{
		"name": "A#2",
		"midi": 46,
		"time": 189.59999999999502,
		"velocity": 0.5196850393700787,
		"duration": 0.28000000000000114
	},
	{
		"name": "D4",
		"midi": 62,
		"time": 189.59999999999502,
		"velocity": 0.6771653543307087,
		"duration": 0.28000000000000114
	},
	{
		"name": "A#3",
		"midi": 58,
		"time": 189.59999999999502,
		"velocity": 0.6771653543307087,
		"duration": 0.28000000000000114
	},
	{
		"name": "A#4",
		"midi": 70,
		"time": 189.60499999999502,
		"velocity": 0.6771653543307087,
		"duration": 0.5800000000000125
	},
	{
		"name": "F3",
		"midi": 53,
		"time": 189.89999999999503,
		"velocity": 0.4881889763779528,
		"duration": 0.29999999999998295
	},
	{
		"name": "A#3",
		"midi": 58,
		"time": 189.90499999999503,
		"velocity": 0.4881889763779528,
		"duration": 0.28000000000000114
	},
	{
		"name": "D4",
		"midi": 62,
		"time": 190.18499999999503,
		"velocity": 0.6771653543307087,
		"duration": 0.2799999999999727
	},
	{
		"name": "F3",
		"midi": 53,
		"time": 190.18999999999502,
		"velocity": 0.5984251968503937,
		"duration": 0.5799999999999557
	},
	{
		"name": "A#2",
		"midi": 46,
		"time": 190.19999999999501,
		"velocity": 0.5196850393700787,
		"duration": 0.2799999999999727
	},
	{
		"name": "A#4",
		"midi": 70,
		"time": 190.204999999995,
		"velocity": 0.6771653543307087,
		"duration": 0.5799999999999557
	},
	{
		"name": "A#3",
		"midi": 58,
		"time": 190.204999999995,
		"velocity": 0.5984251968503937,
		"duration": 0.29999999999998295
	},
	{
		"name": "F4",
		"midi": 65,
		"time": 190.214999999995,
		"velocity": 0.5984251968503937,
		"duration": 0.5799999999999557
	},
	{
		"name": "A#3",
		"midi": 58,
		"time": 190.504999999995,
		"velocity": 0.5984251968503937,
		"duration": 0.2999999999999545
	},
	{
		"name": "D4",
		"midi": 62,
		"time": 190.78499999999497,
		"velocity": 0.6771653543307087,
		"duration": 0.2799999999999727
	},
	{
		"name": "A#2",
		"midi": 46,
		"time": 190.79999999999495,
		"velocity": 0.5196850393700787,
		"duration": 0.2799999999999727
	},
	{
		"name": "F3",
		"midi": 53,
		"time": 190.80499999999495,
		"velocity": 0.6771653543307087,
		"duration": 0.5799999999999557
	},
	{
		"name": "A#4",
		"midi": 70,
		"time": 190.80499999999495,
		"velocity": 0.6771653543307087,
		"duration": 0.5799999999999557
	},
	{
		"name": "A#3",
		"midi": 58,
		"time": 190.81499999999494,
		"velocity": 0.6771653543307087,
		"duration": 0.27499999999997726
	},
	{
		"name": "F4",
		"midi": 65,
		"time": 190.81999999999493,
		"velocity": 0.6771653543307087,
		"duration": 0.5799999999999557
	},
	{
		"name": "A#3",
		"midi": 58,
		"time": 191.1049999999949,
		"velocity": 0.5196850393700787,
		"duration": 0.2750000000000057
	},
	{
		"name": "D4",
		"midi": 62,
		"time": 191.3899999999949,
		"velocity": 0.6771653543307087,
		"duration": 0.2799999999999727
	},
	{
		"name": "A#4",
		"midi": 70,
		"time": 191.3899999999949,
		"velocity": 0.6771653543307087,
		"duration": 0.5799999999999557
	},
	{
		"name": "F3",
		"midi": 53,
		"time": 191.3899999999949,
		"velocity": 0.5984251968503937,
		"duration": 0.5799999999999557
	},
	{
		"name": "A#2",
		"midi": 46,
		"time": 191.3999999999949,
		"velocity": 0.5196850393700787,
		"duration": 0.2799999999999727
	},
	{
		"name": "A#3",
		"midi": 58,
		"time": 191.41499999999488,
		"velocity": 0.5984251968503937,
		"duration": 0.27499999999997726
	},
	{
		"name": "F4",
		"midi": 65,
		"time": 191.41999999999487,
		"velocity": 0.5984251968503937,
		"duration": 0.5799999999999841
	},
	{
		"name": "C4",
		"midi": 60,
		"time": 191.71499999999486,
		"velocity": 0.5984251968503937,
		"duration": 0.2750000000000057
	},
	{
		"name": "F2",
		"midi": 41,
		"time": 191.99999999999486,
		"velocity": 0.5196850393700787,
		"duration": 0.2799999999999727
	},
	{
		"name": "C3",
		"midi": 48,
		"time": 191.99999999999486,
		"velocity": 0.6771653543307087,
		"duration": 0.29999999999998295
	},
	{
		"name": "F4",
		"midi": 65,
		"time": 191.99999999999486,
		"velocity": 0.6771653543307087,
		"duration": 0.5799999999999841
	},
	{
		"name": "A3",
		"midi": 57,
		"time": 191.99999999999486,
		"velocity": 0.6771653543307087,
		"duration": 0.2799999999999727
	},
	{
		"name": "F3",
		"midi": 53,
		"time": 191.99999999999486,
		"velocity": 0.6771653543307087,
		"duration": 0.2799999999999727
	},
	{
		"name": "A4",
		"midi": 69,
		"time": 192.01499999999484,
		"velocity": 0.6771653543307087,
		"duration": 0.5799999999999841
	},
	{
		"name": "C4",
		"midi": 60,
		"time": 192.01999999999484,
		"velocity": 0.6771653543307087,
		"duration": 0.28000000000000114
	},
	{
		"name": "C3",
		"midi": 48,
		"time": 192.29999999999484,
		"velocity": 0.4881889763779528,
		"duration": 0.29999999999998295
	},
	{
		"name": "F3",
		"midi": 53,
		"time": 192.30499999999483,
		"velocity": 0.4881889763779528,
		"duration": 0.28000000000000114
	},
	{
		"name": "A3",
		"midi": 57,
		"time": 192.30499999999483,
		"velocity": 0.4881889763779528,
		"duration": 0.28000000000000114
	},
	{
		"name": "C3",
		"midi": 48,
		"time": 192.58999999999483,
		"velocity": 0.5984251968503937,
		"duration": 0.5799999999999557
	},
	{
		"name": "C4",
		"midi": 60,
		"time": 192.59499999999483,
		"velocity": 0.6771653543307087,
		"duration": 0.2799999999999727
	},
	{
		"name": "F2",
		"midi": 41,
		"time": 192.59999999999482,
		"velocity": 0.5196850393700787,
		"duration": 0.2799999999999727
	},
	{
		"name": "A3",
		"midi": 57,
		"time": 192.60499999999482,
		"velocity": 0.5984251968503937,
		"duration": 0.29999999999998295
	},
	{
		"name": "F3",
		"midi": 53,
		"time": 192.60499999999482,
		"velocity": 0.5984251968503937,
		"duration": 0.29999999999998295
	},
	{
		"name": "A4",
		"midi": 69,
		"time": 192.6149999999948,
		"velocity": 0.6771653543307087,
		"duration": 0.5799999999999841
	},
	{
		"name": "F4",
		"midi": 65,
		"time": 192.6149999999948,
		"velocity": 0.5984251968503937,
		"duration": 0.5799999999999841
	},
	{
		"name": "F3",
		"midi": 53,
		"time": 192.9049999999948,
		"velocity": 0.5984251968503937,
		"duration": 0.29999999999998295
	},
	{
		"name": "A3",
		"midi": 57,
		"time": 192.9049999999948,
		"velocity": 0.5984251968503937,
		"duration": 0.29999999999998295
	},
	{
		"name": "C4",
		"midi": 60,
		"time": 193.1949999999948,
		"velocity": 0.6771653543307087,
		"duration": 0.2799999999999727
	},
	{
		"name": "F2",
		"midi": 41,
		"time": 193.1999999999948,
		"velocity": 0.5196850393700787,
		"duration": 0.2799999999999727
	},
	{
		"name": "C3",
		"midi": 48,
		"time": 193.20499999999478,
		"velocity": 0.6771653543307087,
		"duration": 0.5799999999999557
	},
	{
		"name": "A4",
		"midi": 69,
		"time": 193.21499999999477,
		"velocity": 0.6771653543307087,
		"duration": 0.5799999999999557
	},
	{
		"name": "F3",
		"midi": 53,
		"time": 193.21499999999477,
		"velocity": 0.6771653543307087,
		"duration": 0.27499999999997726
	},
	{
		"name": "A3",
		"midi": 57,
		"time": 193.21499999999477,
		"velocity": 0.6771653543307087,
		"duration": 0.27499999999997726
	},
	{
		"name": "F4",
		"midi": 65,
		"time": 193.21999999999477,
		"velocity": 0.6771653543307087,
		"duration": 0.5799999999999557
	},
	{
		"name": "F3",
		"midi": 53,
		"time": 193.50499999999474,
		"velocity": 0.5196850393700787,
		"duration": 0.2750000000000057
	},
	{
		"name": "A3",
		"midi": 57,
		"time": 193.50499999999474,
		"velocity": 0.5196850393700787,
		"duration": 0.2750000000000057
	},
	{
		"name": "C3",
		"midi": 48,
		"time": 193.78999999999473,
		"velocity": 0.5984251968503937,
		"duration": 0.5799999999999557
	},
	{
		"name": "A4",
		"midi": 69,
		"time": 193.79999999999472,
		"velocity": 0.6771653543307087,
		"duration": 0.5799999999999557
	},
	{
		"name": "F2",
		"midi": 41,
		"time": 193.79999999999472,
		"velocity": 0.5196850393700787,
		"duration": 0.2799999999999727
	},
	{
		"name": "C4",
		"midi": 60,
		"time": 193.79999999999472,
		"velocity": 0.6771653543307087,
		"duration": 0.2799999999999727
	},
	{
		"name": "A3",
		"midi": 57,
		"time": 193.8149999999947,
		"velocity": 0.5984251968503937,
		"duration": 0.27499999999997726
	},
	{
		"name": "F3",
		"midi": 53,
		"time": 193.8149999999947,
		"velocity": 0.5984251968503937,
		"duration": 0.27499999999997726
	},
	{
		"name": "F4",
		"midi": 65,
		"time": 193.8199999999947,
		"velocity": 0.5984251968503937,
		"duration": 0.5799999999999557
	},
	{
		"name": "F3",
		"midi": 53,
		"time": 194.1149999999947,
		"velocity": 0.5984251968503937,
		"duration": 0.27499999999997726
	},
	{
		"name": "F2",
		"midi": 41,
		"time": 194.39999999999466,
		"velocity": 0.5196850393700787,
		"duration": 0.2799999999999727
	},
	{
		"name": "C3",
		"midi": 48,
		"time": 194.39999999999466,
		"velocity": 0.6771653543307087,
		"duration": 0.29999999999998295
	},
	{
		"name": "F4",
		"midi": 65,
		"time": 194.39999999999466,
		"velocity": 0.6771653543307087,
		"duration": 0.5799999999999841
	},
	{
		"name": "A3",
		"midi": 57,
		"time": 194.39999999999466,
		"velocity": 0.6771653543307087,
		"duration": 0.2799999999999727
	},
	{
		"name": "F3",
		"midi": 53,
		"time": 194.39999999999466,
		"velocity": 0.6771653543307087,
		"duration": 0.2799999999999727
	},
	{
		"name": "A4",
		"midi": 69,
		"time": 194.41499999999465,
		"velocity": 0.6771653543307087,
		"duration": 0.5799999999999841
	},
	{
		"name": "C4",
		"midi": 60,
		"time": 194.41999999999464,
		"velocity": 0.6771653543307087,
		"duration": 0.28000000000000114
	},
	{
		"name": "C3",
		"midi": 48,
		"time": 194.69999999999465,
		"velocity": 0.4881889763779528,
		"duration": 0.29999999999998295
	},
	{
		"name": "F3",
		"midi": 53,
		"time": 194.70499999999464,
		"velocity": 0.4881889763779528,
		"duration": 0.28000000000000114
	},
	{
		"name": "A3",
		"midi": 57,
		"time": 194.70499999999464,
		"velocity": 0.4881889763779528,
		"duration": 0.28000000000000114
	},
	{
		"name": "C3",
		"midi": 48,
		"time": 194.98999999999464,
		"velocity": 0.5984251968503937,
		"duration": 0.5799999999999557
	},
	{
		"name": "C4",
		"midi": 60,
		"time": 194.99499999999463,
		"velocity": 0.6771653543307087,
		"duration": 0.2799999999999727
	},
	{
		"name": "F2",
		"midi": 41,
		"time": 194.99999999999463,
		"velocity": 0.5196850393700787,
		"duration": 0.2799999999999727
	},
	{
		"name": "A3",
		"midi": 57,
		"time": 195.00499999999462,
		"velocity": 0.5984251968503937,
		"duration": 0.29999999999998295
	},
	{
		"name": "F3",
		"midi": 53,
		"time": 195.00499999999462,
		"velocity": 0.5984251968503937,
		"duration": 0.29999999999998295
	},
	{
		"name": "A4",
		"midi": 69,
		"time": 195.01499999999461,
		"velocity": 0.6771653543307087,
		"duration": 0.5799999999999841
	},
	{
		"name": "F4",
		"midi": 65,
		"time": 195.01499999999461,
		"velocity": 0.5984251968503937,
		"duration": 0.5799999999999841
	},
	{
		"name": "F3",
		"midi": 53,
		"time": 195.3049999999946,
		"velocity": 0.5984251968503937,
		"duration": 0.29999999999998295
	},
	{
		"name": "A3",
		"midi": 57,
		"time": 195.3049999999946,
		"velocity": 0.5984251968503937,
		"duration": 0.29999999999998295
	},
	{
		"name": "C4",
		"midi": 60,
		"time": 195.5949999999946,
		"velocity": 0.6771653543307087,
		"duration": 0.2799999999999727
	},
	{
		"name": "F2",
		"midi": 41,
		"time": 195.5999999999946,
		"velocity": 0.5196850393700787,
		"duration": 0.2799999999999727
	},
	{
		"name": "C3",
		"midi": 48,
		"time": 195.6049999999946,
		"velocity": 0.6771653543307087,
		"duration": 0.5799999999999557
	},
	{
		"name": "A4",
		"midi": 69,
		"time": 195.61499999999458,
		"velocity": 0.6771653543307087,
		"duration": 0.5799999999999557
	},
	{
		"name": "F3",
		"midi": 53,
		"time": 195.61499999999458,
		"velocity": 0.6771653543307087,
		"duration": 0.27499999999997726
	},
	{
		"name": "A3",
		"midi": 57,
		"time": 195.61499999999458,
		"velocity": 0.6771653543307087,
		"duration": 0.27499999999997726
	},
	{
		"name": "F4",
		"midi": 65,
		"time": 195.61999999999458,
		"velocity": 0.6771653543307087,
		"duration": 0.5799999999999557
	},
	{
		"name": "F3",
		"midi": 53,
		"time": 195.90499999999454,
		"velocity": 0.5196850393700787,
		"duration": 0.2750000000000057
	},
	{
		"name": "A3",
		"midi": 57,
		"time": 195.90499999999454,
		"velocity": 0.5196850393700787,
		"duration": 0.2750000000000057
	},
	{
		"name": "C3",
		"midi": 48,
		"time": 196.18999999999454,
		"velocity": 0.5984251968503937,
		"duration": 0.5799999999999557
	},
	{
		"name": "A4",
		"midi": 69,
		"time": 196.19999999999453,
		"velocity": 0.6771653543307087,
		"duration": 0.5799999999999557
	},
	{
		"name": "F2",
		"midi": 41,
		"time": 196.19999999999453,
		"velocity": 0.5196850393700787,
		"duration": 0.2799999999999727
	},
	{
		"name": "C4",
		"midi": 60,
		"time": 196.19999999999453,
		"velocity": 0.6771653543307087,
		"duration": 0.2799999999999727
	},
	{
		"name": "A3",
		"midi": 57,
		"time": 196.21499999999452,
		"velocity": 0.5984251968503937,
		"duration": 0.27499999999997726
	},
	{
		"name": "F3",
		"midi": 53,
		"time": 196.21499999999452,
		"velocity": 0.5984251968503937,
		"duration": 0.27499999999997726
	},
	{
		"name": "F4",
		"midi": 65,
		"time": 196.2199999999945,
		"velocity": 0.5984251968503937,
		"duration": 0.5799999999999557
	},
	{
		"name": "F3",
		"midi": 53,
		"time": 196.5149999999945,
		"velocity": 0.5984251968503937,
		"duration": 0.27499999999997726
	},
	{
		"name": "F4",
		"midi": 65,
		"time": 196.79999999999447,
		"velocity": 0.6771653543307087,
		"duration": 0.5799999999999557
	},
	{
		"name": "C4",
		"midi": 60,
		"time": 196.79999999999447,
		"velocity": 0.6771653543307087,
		"duration": 0.2799999999999727
	},
	{
		"name": "A3",
		"midi": 57,
		"time": 196.79999999999447,
		"velocity": 0.6771653543307087,
		"duration": 0.2799999999999727
	},
	{
		"name": "D3",
		"midi": 50,
		"time": 196.79999999999447,
		"velocity": 0.6771653543307087,
		"duration": 0.2999999999999545
	},
	{
		"name": "F2",
		"midi": 41,
		"time": 196.79999999999447,
		"velocity": 0.5196850393700787,
		"duration": 0.2799999999999727
	},
	{
		"name": "D4",
		"midi": 62,
		"time": 196.80999999999446,
		"velocity": 0.6771653543307087,
		"duration": 0.2799999999999727
	},
	{
		"name": "A4",
		"midi": 69,
		"time": 196.81499999999446,
		"velocity": 0.6771653543307087,
		"duration": 0.5799999999999557
	},
	{
		"name": "D3",
		"midi": 50,
		"time": 197.09999999999442,
		"velocity": 0.4881889763779528,
		"duration": 0.29999999999998295
	},
	{
		"name": "D4",
		"midi": 62,
		"time": 197.10499999999442,
		"velocity": 0.4881889763779528,
		"duration": 0.28000000000000114
	},
	{
		"name": "A3",
		"midi": 57,
		"time": 197.10499999999442,
		"velocity": 0.4881889763779528,
		"duration": 0.28000000000000114
	},
	{
		"name": "D4",
		"midi": 62,
		"time": 197.38499999999442,
		"velocity": 0.6771653543307087,
		"duration": 0.2799999999999727
	},
	{
		"name": "D3",
		"midi": 50,
		"time": 197.38999999999442,
		"velocity": 0.5984251968503937,
		"duration": 0.5799999999999557
	},
	{
		"name": "F2",
		"midi": 41,
		"time": 197.3999999999944,
		"velocity": 0.5196850393700787,
		"duration": 0.2799999999999727
	},
	{
		"name": "C4",
		"midi": 60,
		"time": 197.4049999999944,
		"velocity": 0.5984251968503937,
		"duration": 0.29999999999998295
	},
	{
		"name": "A3",
		"midi": 57,
		"time": 197.4049999999944,
		"velocity": 0.5984251968503937,
		"duration": 0.29999999999998295
	},
	{
		"name": "A4",
		"midi": 69,
		"time": 197.4149999999944,
		"velocity": 0.6771653543307087,
		"duration": 0.5799999999999557
	},
	{
		"name": "F4",
		"midi": 65,
		"time": 197.4149999999944,
		"velocity": 0.5984251968503937,
		"duration": 0.5799999999999557
	},
	{
		"name": "A3",
		"midi": 57,
		"time": 197.70499999999439,
		"velocity": 0.4409448818897638,
		"duration": 0.2999999999999545
	},
	{
		"name": "D4",
		"midi": 62,
		"time": 197.70499999999439,
		"velocity": 0.4409448818897638,
		"duration": 0.2999999999999545
	},
	{
		"name": "D4",
		"midi": 62,
		"time": 197.98499999999436,
		"velocity": 0.6771653543307087,
		"duration": 0.2799999999999727
	},
	{
		"name": "F2",
		"midi": 41,
		"time": 197.99999999999434,
		"velocity": 0.5196850393700787,
		"duration": 0.2799999999999727
	},
	{
		"name": "D3",
		"midi": 50,
		"time": 198.00499999999434,
		"velocity": 0.6771653543307087,
		"duration": 0.5799999999999557
	},
	{
		"name": "A3",
		"midi": 57,
		"time": 198.01499999999433,
		"velocity": 0.6771653543307087,
		"duration": 0.27499999999997726
	},
	{
		"name": "C4",
		"midi": 60,
		"time": 198.01499999999433,
		"velocity": 0.6771653543307087,
		"duration": 0.27499999999997726
	},
	{
		"name": "A4",
		"midi": 69,
		"time": 198.01499999999433,
		"velocity": 0.6771653543307087,
		"duration": 0.5799999999999557
	},
	{
		"name": "F4",
		"midi": 65,
		"time": 198.01999999999433,
		"velocity": 0.6771653543307087,
		"duration": 0.5799999999999557
	},
	{
		"name": "A3",
		"midi": 57,
		"time": 198.3049999999943,
		"velocity": 0.3937007874015748,
		"duration": 0.2750000000000057
	},
	{
		"name": "D4",
		"midi": 62,
		"time": 198.3049999999943,
		"velocity": 0.3937007874015748,
		"duration": 0.2750000000000057
	},
	{
		"name": "D3",
		"midi": 50,
		"time": 198.5899999999943,
		"velocity": 0.5984251968503937,
		"duration": 0.5799999999999557
	},
	{
		"name": "D4",
		"midi": 62,
		"time": 198.5899999999943,
		"velocity": 0.6771653543307087,
		"duration": 0.2799999999999727
	},
	{
		"name": "F2",
		"midi": 41,
		"time": 198.59999999999428,
		"velocity": 0.5196850393700787,
		"duration": 0.2799999999999727
	},
	{
		"name": "A4",
		"midi": 69,
		"time": 198.59999999999428,
		"velocity": 0.6771653543307087,
		"duration": 0.5799999999999557
	},
	{
		"name": "C4",
		"midi": 60,
		"time": 198.61499999999427,
		"velocity": 0.5984251968503937,
		"duration": 0.27499999999997726
	},
	{
		"name": "A3",
		"midi": 57,
		"time": 198.61499999999427,
		"velocity": 0.5984251968503937,
		"duration": 0.27499999999997726
	},
	{
		"name": "F4",
		"midi": 65,
		"time": 198.61999999999426,
		"velocity": 0.5984251968503937,
		"duration": 0.5799999999999557
	},
	{
		"name": "A3",
		"midi": 57,
		"time": 198.91499999999425,
		"velocity": 0.5984251968503937,
		"duration": 0.27499999999997726
	},
	{
		"name": "F4",
		"midi": 65,
		"time": 199.19999999999422,
		"velocity": 0.6771653543307087,
		"duration": 0.5800000000000125
	},
	{
		"name": "F3",
		"midi": 53,
		"time": 199.19999999999422,
		"velocity": 0.6771653543307087,
		"duration": 0.30000000000001137
	},
	{
		"name": "A#2",
		"midi": 46,
		"time": 199.19999999999422,
		"velocity": 0.5196850393700787,
		"duration": 0.28000000000000114
	},
	{
		"name": "D4",
		"midi": 62,
		"time": 199.19999999999422,
		"velocity": 0.6771653543307087,
		"duration": 0.28000000000000114
	},
	{
		"name": "A#3",
		"midi": 58,
		"time": 199.19999999999422,
		"velocity": 0.6771653543307087,
		"duration": 0.28000000000000114
	},
	{
		"name": "A#4",
		"midi": 70,
		"time": 199.20499999999421,
		"velocity": 0.6771653543307087,
		"duration": 0.5800000000000125
	},
	{
		"name": "F3",
		"midi": 53,
		"time": 199.49999999999423,
		"velocity": 0.4881889763779528,
		"duration": 0.29999999999998295
	},
	{
		"name": "A#3",
		"midi": 58,
		"time": 199.50499999999423,
		"velocity": 0.4881889763779528,
		"duration": 0.28000000000000114
	},
	{
		"name": "D4",
		"midi": 62,
		"time": 199.78499999999423,
		"velocity": 0.6771653543307087,
		"duration": 0.2799999999999727
	},
	{
		"name": "F3",
		"midi": 53,
		"time": 199.78999999999422,
		"velocity": 0.5984251968503937,
		"duration": 0.5799999999999557
	},
	{
		"name": "A#2",
		"midi": 46,
		"time": 199.7999999999942,
		"velocity": 0.5196850393700787,
		"duration": 0.2799999999999727
	},
	{
		"name": "A#4",
		"midi": 70,
		"time": 199.8049999999942,
		"velocity": 0.6771653543307087,
		"duration": 0.5799999999999557
	},
	{
		"name": "A#3",
		"midi": 58,
		"time": 199.8049999999942,
		"velocity": 0.5984251968503937,
		"duration": 0.29999999999998295
	},
	{
		"name": "F4",
		"midi": 65,
		"time": 199.8149999999942,
		"velocity": 0.5984251968503937,
		"duration": 0.5799999999999557
	},
	{
		"name": "A#3",
		"midi": 58,
		"time": 200.1049999999942,
		"velocity": 0.5984251968503937,
		"duration": 0.2999999999999545
	},
	{
		"name": "D4",
		"midi": 62,
		"time": 200.38499999999416,
		"velocity": 0.6771653543307087,
		"duration": 0.2799999999999727
	},
	{
		"name": "A#2",
		"midi": 46,
		"time": 200.39999999999415,
		"velocity": 0.5196850393700787,
		"duration": 0.2799999999999727
	},
	{
		"name": "F3",
		"midi": 53,
		"time": 200.40499999999415,
		"velocity": 0.6771653543307087,
		"duration": 0.5799999999999557
	},
	{
		"name": "A#4",
		"midi": 70,
		"time": 200.40499999999415,
		"velocity": 0.6771653543307087,
		"duration": 0.5799999999999557
	},
	{
		"name": "A#3",
		"midi": 58,
		"time": 200.41499999999414,
		"velocity": 0.6771653543307087,
		"duration": 0.27499999999997726
	},
	{
		"name": "F4",
		"midi": 65,
		"time": 200.41999999999413,
		"velocity": 0.6771653543307087,
		"duration": 0.5799999999999557
	},
	{
		"name": "A#3",
		"midi": 58,
		"time": 200.7049999999941,
		"velocity": 0.5196850393700787,
		"duration": 0.2750000000000057
	},
	{
		"name": "D4",
		"midi": 62,
		"time": 200.9899999999941,
		"velocity": 0.6771653543307087,
		"duration": 0.2799999999999727
	},
	{
		"name": "A#4",
		"midi": 70,
		"time": 200.9899999999941,
		"velocity": 0.6771653543307087,
		"duration": 0.5799999999999557
	},
	{
		"name": "F3",
		"midi": 53,
		"time": 200.9899999999941,
		"velocity": 0.5984251968503937,
		"duration": 0.5799999999999557
	},
	{
		"name": "A#2",
		"midi": 46,
		"time": 200.9999999999941,
		"velocity": 0.5196850393700787,
		"duration": 0.2799999999999727
	},
	{
		"name": "A#3",
		"midi": 58,
		"time": 201.01499999999407,
		"velocity": 0.5984251968503937,
		"duration": 0.27499999999997726
	},
	{
		"name": "F4",
		"midi": 65,
		"time": 201.01999999999407,
		"velocity": 0.5984251968503937,
		"duration": 0.5799999999999841
	},
	{
		"name": "C4",
		"midi": 60,
		"time": 201.31499999999406,
		"velocity": 0.5984251968503937,
		"duration": 0.2750000000000057
	},
	{
		"name": "F2",
		"midi": 41,
		"time": 201.59999999999405,
		"velocity": 0.5196850393700787,
		"duration": 0.2799999999999727
	},
	{
		"name": "C3",
		"midi": 48,
		"time": 201.59999999999405,
		"velocity": 0.6771653543307087,
		"duration": 0.29999999999998295
	},
	{
		"name": "F4",
		"midi": 65,
		"time": 201.59999999999405,
		"velocity": 0.6771653543307087,
		"duration": 0.5799999999999841
	},
	{
		"name": "A3",
		"midi": 57,
		"time": 201.59999999999405,
		"velocity": 0.6771653543307087,
		"duration": 0.2799999999999727
	},
	{
		"name": "F3",
		"midi": 53,
		"time": 201.59999999999405,
		"velocity": 0.6771653543307087,
		"duration": 0.2799999999999727
	},
	{
		"name": "A4",
		"midi": 69,
		"time": 201.61499999999404,
		"velocity": 0.6771653543307087,
		"duration": 0.5799999999999841
	},
	{
		"name": "C4",
		"midi": 60,
		"time": 201.61999999999404,
		"velocity": 0.6771653543307087,
		"duration": 0.28000000000000114
	},
	{
		"name": "C3",
		"midi": 48,
		"time": 201.89999999999404,
		"velocity": 0.4881889763779528,
		"duration": 0.29999999999998295
	},
	{
		"name": "F3",
		"midi": 53,
		"time": 201.90499999999403,
		"velocity": 0.4881889763779528,
		"duration": 0.28000000000000114
	},
	{
		"name": "A3",
		"midi": 57,
		"time": 201.90499999999403,
		"velocity": 0.4881889763779528,
		"duration": 0.28000000000000114
	},
	{
		"name": "C3",
		"midi": 48,
		"time": 202.18999999999403,
		"velocity": 0.5984251968503937,
		"duration": 0.5799999999999557
	},
	{
		"name": "C4",
		"midi": 60,
		"time": 202.19499999999402,
		"velocity": 0.6771653543307087,
		"duration": 0.2799999999999727
	},
	{
		"name": "F2",
		"midi": 41,
		"time": 202.19999999999402,
		"velocity": 0.5196850393700787,
		"duration": 0.2799999999999727
	},
	{
		"name": "A3",
		"midi": 57,
		"time": 202.20499999999402,
		"velocity": 0.5984251968503937,
		"duration": 0.29999999999998295
	},
	{
		"name": "F3",
		"midi": 53,
		"time": 202.20499999999402,
		"velocity": 0.5984251968503937,
		"duration": 0.29999999999998295
	},
	{
		"name": "A4",
		"midi": 69,
		"time": 202.214999999994,
		"velocity": 0.6771653543307087,
		"duration": 0.5799999999999841
	},
	{
		"name": "F4",
		"midi": 65,
		"time": 202.214999999994,
		"velocity": 0.5984251968503937,
		"duration": 0.5799999999999841
	},
	{
		"name": "F3",
		"midi": 53,
		"time": 202.504999999994,
		"velocity": 0.5984251968503937,
		"duration": 0.29999999999998295
	},
	{
		"name": "A3",
		"midi": 57,
		"time": 202.504999999994,
		"velocity": 0.5984251968503937,
		"duration": 0.29999999999998295
	},
	{
		"name": "C4",
		"midi": 60,
		"time": 202.794999999994,
		"velocity": 0.6771653543307087,
		"duration": 0.2799999999999727
	},
	{
		"name": "F2",
		"midi": 41,
		"time": 202.799999999994,
		"velocity": 0.5196850393700787,
		"duration": 0.2799999999999727
	},
	{
		"name": "C3",
		"midi": 48,
		"time": 202.80499999999398,
		"velocity": 0.6771653543307087,
		"duration": 0.5799999999999557
	},
	{
		"name": "A4",
		"midi": 69,
		"time": 202.81499999999397,
		"velocity": 0.6771653543307087,
		"duration": 0.5799999999999557
	},
	{
		"name": "F3",
		"midi": 53,
		"time": 202.81499999999397,
		"velocity": 0.6771653543307087,
		"duration": 0.27499999999997726
	},
	{
		"name": "A3",
		"midi": 57,
		"time": 202.81499999999397,
		"velocity": 0.6771653543307087,
		"duration": 0.27499999999997726
	},
	{
		"name": "F4",
		"midi": 65,
		"time": 202.81999999999397,
		"velocity": 0.6771653543307087,
		"duration": 0.5799999999999557
	},
	{
		"name": "F3",
		"midi": 53,
		"time": 203.10499999999394,
		"velocity": 0.5196850393700787,
		"duration": 0.2750000000000057
	},
	{
		"name": "A3",
		"midi": 57,
		"time": 203.10499999999394,
		"velocity": 0.5196850393700787,
		"duration": 0.2750000000000057
	},
	{
		"name": "C3",
		"midi": 48,
		"time": 203.38999999999393,
		"velocity": 0.5984251968503937,
		"duration": 0.5799999999999557
	},
	{
		"name": "A4",
		"midi": 69,
		"time": 203.39999999999392,
		"velocity": 0.6771653543307087,
		"duration": 0.5799999999999557
	},
	{
		"name": "F2",
		"midi": 41,
		"time": 203.39999999999392,
		"velocity": 0.5196850393700787,
		"duration": 0.2799999999999727
	},
	{
		"name": "C4",
		"midi": 60,
		"time": 203.39999999999392,
		"velocity": 0.6771653543307087,
		"duration": 0.2799999999999727
	},
	{
		"name": "A3",
		"midi": 57,
		"time": 203.4149999999939,
		"velocity": 0.5984251968503937,
		"duration": 0.27499999999997726
	},
	{
		"name": "F3",
		"midi": 53,
		"time": 203.4149999999939,
		"velocity": 0.5984251968503937,
		"duration": 0.27499999999997726
	},
	{
		"name": "F4",
		"midi": 65,
		"time": 203.4199999999939,
		"velocity": 0.5984251968503937,
		"duration": 0.5799999999999557
	},
	{
		"name": "F3",
		"midi": 53,
		"time": 203.7149999999939,
		"velocity": 0.5984251968503937,
		"duration": 0.27499999999997726
	},
	{
		"name": "F2",
		"midi": 41,
		"time": 203.99999999999386,
		"velocity": 0.5196850393700787,
		"duration": 0.2799999999999727
	},
	{
		"name": "C3",
		"midi": 48,
		"time": 203.99999999999386,
		"velocity": 0.6771653543307087,
		"duration": 0.29999999999998295
	},
	{
		"name": "F4",
		"midi": 65,
		"time": 203.99999999999386,
		"velocity": 0.6771653543307087,
		"duration": 0.5799999999999841
	},
	{
		"name": "A3",
		"midi": 57,
		"time": 203.99999999999386,
		"velocity": 0.6771653543307087,
		"duration": 0.2799999999999727
	},
	{
		"name": "F3",
		"midi": 53,
		"time": 203.99999999999386,
		"velocity": 0.6771653543307087,
		"duration": 0.2799999999999727
	},
	{
		"name": "A4",
		"midi": 69,
		"time": 204.01499999999385,
		"velocity": 0.6771653543307087,
		"duration": 0.5799999999999841
	},
	{
		"name": "C4",
		"midi": 60,
		"time": 204.01999999999384,
		"velocity": 0.6771653543307087,
		"duration": 0.28000000000000114
	},
	{
		"name": "C3",
		"midi": 48,
		"time": 204.29999999999384,
		"velocity": 0.4881889763779528,
		"duration": 0.29999999999998295
	},
	{
		"name": "F3",
		"midi": 53,
		"time": 204.30499999999384,
		"velocity": 0.4881889763779528,
		"duration": 0.28000000000000114
	},
	{
		"name": "A3",
		"midi": 57,
		"time": 204.30499999999384,
		"velocity": 0.4881889763779528,
		"duration": 0.28000000000000114
	},
	{
		"name": "C3",
		"midi": 48,
		"time": 204.58999999999384,
		"velocity": 0.5984251968503937,
		"duration": 0.5799999999999557
	},
	{
		"name": "C4",
		"midi": 60,
		"time": 204.59499999999383,
		"velocity": 0.6771653543307087,
		"duration": 0.2799999999999727
	},
	{
		"name": "F2",
		"midi": 41,
		"time": 204.59999999999383,
		"velocity": 0.5196850393700787,
		"duration": 0.2799999999999727
	},
	{
		"name": "A3",
		"midi": 57,
		"time": 204.60499999999382,
		"velocity": 0.5984251968503937,
		"duration": 0.29999999999998295
	},
	{
		"name": "F3",
		"midi": 53,
		"time": 204.60499999999382,
		"velocity": 0.5984251968503937,
		"duration": 0.29999999999998295
	},
	{
		"name": "A4",
		"midi": 69,
		"time": 204.6149999999938,
		"velocity": 0.6771653543307087,
		"duration": 0.5799999999999841
	},
	{
		"name": "F4",
		"midi": 65,
		"time": 204.6149999999938,
		"velocity": 0.5984251968503937,
		"duration": 0.5799999999999841
	},
	{
		"name": "F3",
		"midi": 53,
		"time": 204.9049999999938,
		"velocity": 0.5984251968503937,
		"duration": 0.29999999999998295
	},
	{
		"name": "A3",
		"midi": 57,
		"time": 204.9049999999938,
		"velocity": 0.5984251968503937,
		"duration": 0.29999999999998295
	},
	{
		"name": "C4",
		"midi": 60,
		"time": 205.1949999999938,
		"velocity": 0.6771653543307087,
		"duration": 0.2799999999999727
	},
	{
		"name": "F2",
		"midi": 41,
		"time": 205.1999999999938,
		"velocity": 0.5196850393700787,
		"duration": 0.2799999999999727
	},
	{
		"name": "C3",
		"midi": 48,
		"time": 205.2049999999938,
		"velocity": 0.6771653543307087,
		"duration": 0.5799999999999557
	},
	{
		"name": "A4",
		"midi": 69,
		"time": 205.21499999999378,
		"velocity": 0.6771653543307087,
		"duration": 0.5799999999999557
	},
	{
		"name": "F3",
		"midi": 53,
		"time": 205.21499999999378,
		"velocity": 0.6771653543307087,
		"duration": 0.27499999999997726
	},
	{
		"name": "A3",
		"midi": 57,
		"time": 205.21499999999378,
		"velocity": 0.6771653543307087,
		"duration": 0.27499999999997726
	},
	{
		"name": "F4",
		"midi": 65,
		"time": 205.21999999999377,
		"velocity": 0.6771653543307087,
		"duration": 0.5799999999999557
	},
	{
		"name": "F3",
		"midi": 53,
		"time": 205.50499999999374,
		"velocity": 0.5196850393700787,
		"duration": 0.2750000000000057
	},
	{
		"name": "A3",
		"midi": 57,
		"time": 205.50499999999374,
		"velocity": 0.5196850393700787,
		"duration": 0.2750000000000057
	},
	{
		"name": "C3",
		"midi": 48,
		"time": 205.78999999999374,
		"velocity": 0.5984251968503937,
		"duration": 0.5799999999999557
	},
	{
		"name": "A4",
		"midi": 69,
		"time": 205.79999999999373,
		"velocity": 0.6771653543307087,
		"duration": 0.5799999999999557
	},
	{
		"name": "F2",
		"midi": 41,
		"time": 205.79999999999373,
		"velocity": 0.5196850393700787,
		"duration": 0.2799999999999727
	},
	{
		"name": "C4",
		"midi": 60,
		"time": 205.79999999999373,
		"velocity": 0.6771653543307087,
		"duration": 0.2799999999999727
	},
	{
		"name": "A3",
		"midi": 57,
		"time": 205.81499999999372,
		"velocity": 0.5984251968503937,
		"duration": 0.27499999999997726
	},
	{
		"name": "F3",
		"midi": 53,
		"time": 205.81499999999372,
		"velocity": 0.5984251968503937,
		"duration": 0.27499999999997726
	},
	{
		"name": "F4",
		"midi": 65,
		"time": 205.8199999999937,
		"velocity": 0.5984251968503937,
		"duration": 0.5799999999999557
	},
	{
		"name": "F3",
		"midi": 53,
		"time": 206.1149999999937,
		"velocity": 0.5984251968503937,
		"duration": 0.27499999999997726
	},
	{
		"name": "F4",
		"midi": 65,
		"time": 206.39999999999367,
		"velocity": 0.6771653543307087,
		"duration": 0.5799999999999557
	},
	{
		"name": "C4",
		"midi": 60,
		"time": 206.39999999999367,
		"velocity": 0.6771653543307087,
		"duration": 0.2799999999999727
	},
	{
		"name": "A3",
		"midi": 57,
		"time": 206.39999999999367,
		"velocity": 0.6771653543307087,
		"duration": 0.2799999999999727
	},
	{
		"name": "D3",
		"midi": 50,
		"time": 206.39999999999367,
		"velocity": 0.6771653543307087,
		"duration": 0.2999999999999545
	},
	{
		"name": "F2",
		"midi": 41,
		"time": 206.39999999999367,
		"velocity": 0.5196850393700787,
		"duration": 0.2799999999999727
	},
	{
		"name": "D4",
		"midi": 62,
		"time": 206.40999999999366,
		"velocity": 0.6771653543307087,
		"duration": 0.2799999999999727
	},
	{
		"name": "A4",
		"midi": 69,
		"time": 206.41499999999365,
		"velocity": 0.6771653543307087,
		"duration": 0.5799999999999557
	},
	{
		"name": "D3",
		"midi": 50,
		"time": 206.69999999999362,
		"velocity": 0.4881889763779528,
		"duration": 0.29999999999998295
	},
	{
		"name": "D4",
		"midi": 62,
		"time": 206.70499999999362,
		"velocity": 0.4881889763779528,
		"duration": 0.28000000000000114
	},
	{
		"name": "A3",
		"midi": 57,
		"time": 206.70499999999362,
		"velocity": 0.4881889763779528,
		"duration": 0.28000000000000114
	},
	{
		"name": "D4",
		"midi": 62,
		"time": 206.98499999999362,
		"velocity": 0.6771653543307087,
		"duration": 0.2799999999999727
	},
	{
		"name": "D3",
		"midi": 50,
		"time": 206.9899999999936,
		"velocity": 0.5984251968503937,
		"duration": 0.5799999999999557
	},
	{
		"name": "F2",
		"midi": 41,
		"time": 206.9999999999936,
		"velocity": 0.5196850393700787,
		"duration": 0.2799999999999727
	},
	{
		"name": "C4",
		"midi": 60,
		"time": 207.0049999999936,
		"velocity": 0.5984251968503937,
		"duration": 0.29999999999998295
	},
	{
		"name": "A3",
		"midi": 57,
		"time": 207.0049999999936,
		"velocity": 0.5984251968503937,
		"duration": 0.29999999999998295
	},
	{
		"name": "A4",
		"midi": 69,
		"time": 207.0149999999936,
		"velocity": 0.6771653543307087,
		"duration": 0.5799999999999557
	},
	{
		"name": "F4",
		"midi": 65,
		"time": 207.0149999999936,
		"velocity": 0.5984251968503937,
		"duration": 0.5799999999999557
	},
	{
		"name": "A3",
		"midi": 57,
		"time": 207.30499999999358,
		"velocity": 0.4409448818897638,
		"duration": 0.2999999999999545
	},
	{
		"name": "D4",
		"midi": 62,
		"time": 207.30499999999358,
		"velocity": 0.4409448818897638,
		"duration": 0.2999999999999545
	},
	{
		"name": "D4",
		"midi": 62,
		"time": 207.58499999999356,
		"velocity": 0.6771653543307087,
		"duration": 0.2799999999999727
	},
	{
		"name": "F2",
		"midi": 41,
		"time": 207.59999999999354,
		"velocity": 0.5196850393700787,
		"duration": 0.2799999999999727
	},
	{
		"name": "D3",
		"midi": 50,
		"time": 207.60499999999354,
		"velocity": 0.6771653543307087,
		"duration": 0.5799999999999557
	},
	{
		"name": "A3",
		"midi": 57,
		"time": 207.61499999999353,
		"velocity": 0.6771653543307087,
		"duration": 0.27499999999997726
	},
	{
		"name": "C4",
		"midi": 60,
		"time": 207.61499999999353,
		"velocity": 0.6771653543307087,
		"duration": 0.27499999999997726
	},
	{
		"name": "A4",
		"midi": 69,
		"time": 207.61499999999353,
		"velocity": 0.6771653543307087,
		"duration": 0.5799999999999557
	},
	{
		"name": "F4",
		"midi": 65,
		"time": 207.61999999999352,
		"velocity": 0.6771653543307087,
		"duration": 0.5799999999999557
	},
	{
		"name": "A3",
		"midi": 57,
		"time": 207.9049999999935,
		"velocity": 0.3937007874015748,
		"duration": 0.2750000000000057
	},
	{
		"name": "D4",
		"midi": 62,
		"time": 207.9049999999935,
		"velocity": 0.3937007874015748,
		"duration": 0.2750000000000057
	},
	{
		"name": "D3",
		"midi": 50,
		"time": 208.1899999999935,
		"velocity": 0.5984251968503937,
		"duration": 0.5799999999999557
	},
	{
		"name": "D4",
		"midi": 62,
		"time": 208.1899999999935,
		"velocity": 0.6771653543307087,
		"duration": 0.2799999999999727
	},
	{
		"name": "F2",
		"midi": 41,
		"time": 208.19999999999348,
		"velocity": 0.5196850393700787,
		"duration": 0.2799999999999727
	},
	{
		"name": "A4",
		"midi": 69,
		"time": 208.19999999999348,
		"velocity": 0.6771653543307087,
		"duration": 0.5799999999999557
	},
	{
		"name": "C4",
		"midi": 60,
		"time": 208.21499999999347,
		"velocity": 0.5984251968503937,
		"duration": 0.27499999999997726
	},
	{
		"name": "A3",
		"midi": 57,
		"time": 208.21499999999347,
		"velocity": 0.5984251968503937,
		"duration": 0.27499999999997726
	},
	{
		"name": "F4",
		"midi": 65,
		"time": 208.21999999999346,
		"velocity": 0.5984251968503937,
		"duration": 0.5799999999999557
	},
	{
		"name": "A3",
		"midi": 57,
		"time": 208.51499999999345,
		"velocity": 0.5984251968503937,
		"duration": 0.27499999999997726
	},
	{
		"name": "F4",
		"midi": 65,
		"time": 208.79999999999342,
		"velocity": 0.6771653543307087,
		"duration": 0.5800000000000125
	},
	{
		"name": "F3",
		"midi": 53,
		"time": 208.79999999999342,
		"velocity": 0.6771653543307087,
		"duration": 0.30000000000001137
	},
	{
		"name": "A#2",
		"midi": 46,
		"time": 208.79999999999342,
		"velocity": 0.5196850393700787,
		"duration": 0.28000000000000114
	},
	{
		"name": "D4",
		"midi": 62,
		"time": 208.79999999999342,
		"velocity": 0.6771653543307087,
		"duration": 0.28000000000000114
	},
	{
		"name": "A#3",
		"midi": 58,
		"time": 208.79999999999342,
		"velocity": 0.6771653543307087,
		"duration": 0.28000000000000114
	},
	{
		"name": "A#4",
		"midi": 70,
		"time": 208.8049999999934,
		"velocity": 0.6771653543307087,
		"duration": 0.5800000000000125
	},
	{
		"name": "F3",
		"midi": 53,
		"time": 209.09999999999343,
		"velocity": 0.4881889763779528,
		"duration": 0.29999999999998295
	},
	{
		"name": "A#3",
		"midi": 58,
		"time": 209.10499999999342,
		"velocity": 0.4881889763779528,
		"duration": 0.28000000000000114
	},
	{
		"name": "D4",
		"midi": 62,
		"time": 209.38499999999343,
		"velocity": 0.6771653543307087,
		"duration": 0.2799999999999727
	},
	{
		"name": "F3",
		"midi": 53,
		"time": 209.38999999999342,
		"velocity": 0.5984251968503937,
		"duration": 0.5799999999999557
	},
	{
		"name": "A#2",
		"midi": 46,
		"time": 209.3999999999934,
		"velocity": 0.5196850393700787,
		"duration": 0.2799999999999727
	},
	{
		"name": "A#4",
		"midi": 70,
		"time": 209.4049999999934,
		"velocity": 0.6771653543307087,
		"duration": 0.5799999999999557
	},
	{
		"name": "A#3",
		"midi": 58,
		"time": 209.4049999999934,
		"velocity": 0.5984251968503937,
		"duration": 0.29999999999998295
	},
	{
		"name": "F4",
		"midi": 65,
		"time": 209.4149999999934,
		"velocity": 0.5984251968503937,
		"duration": 0.5799999999999557
	},
	{
		"name": "A#3",
		"midi": 58,
		"time": 209.7049999999934,
		"velocity": 0.5984251968503937,
		"duration": 0.2999999999999545
	},
	{
		"name": "D4",
		"midi": 62,
		"time": 209.98499999999336,
		"velocity": 0.6771653543307087,
		"duration": 0.2799999999999727
	},
	{
		"name": "A#2",
		"midi": 46,
		"time": 209.99999999999335,
		"velocity": 0.5196850393700787,
		"duration": 0.2799999999999727
	},
	{
		"name": "F3",
		"midi": 53,
		"time": 210.00499999999334,
		"velocity": 0.6771653543307087,
		"duration": 0.5799999999999557
	},
	{
		"name": "A#4",
		"midi": 70,
		"time": 210.00499999999334,
		"velocity": 0.6771653543307087,
		"duration": 0.5799999999999557
	},
	{
		"name": "A#3",
		"midi": 58,
		"time": 210.01499999999334,
		"velocity": 0.6771653543307087,
		"duration": 0.27499999999997726
	},
	{
		"name": "F4",
		"midi": 65,
		"time": 210.01999999999333,
		"velocity": 0.6771653543307087,
		"duration": 0.5799999999999557
	},
	{
		"name": "A#3",
		"midi": 58,
		"time": 210.3049999999933,
		"velocity": 0.5196850393700787,
		"duration": 0.2750000000000057
	},
	{
		"name": "D4",
		"midi": 62,
		"time": 210.5899999999933,
		"velocity": 0.6771653543307087,
		"duration": 0.2799999999999727
	},
	{
		"name": "A#4",
		"midi": 70,
		"time": 210.5899999999933,
		"velocity": 0.6771653543307087,
		"duration": 0.5799999999999557
	},
	{
		"name": "F3",
		"midi": 53,
		"time": 210.5899999999933,
		"velocity": 0.5984251968503937,
		"duration": 0.5799999999999557
	},
	{
		"name": "A#2",
		"midi": 46,
		"time": 210.5999999999933,
		"velocity": 0.5196850393700787,
		"duration": 0.2799999999999727
	},
	{
		"name": "A#3",
		"midi": 58,
		"time": 210.61499999999327,
		"velocity": 0.5984251968503937,
		"duration": 0.27499999999997726
	},
	{
		"name": "F4",
		"midi": 65,
		"time": 210.61999999999327,
		"velocity": 0.5984251968503937,
		"duration": 0.5799999999999841
	},
	{
		"name": "C4",
		"midi": 60,
		"time": 210.91499999999326,
		"velocity": 0.5984251968503937,
		"duration": 0.2750000000000057
	},
	{
		"name": "F2",
		"midi": 41,
		"time": 211.19999999999325,
		"velocity": 0.5196850393700787,
		"duration": 0.2799999999999727
	},
	{
		"name": "C3",
		"midi": 48,
		"time": 211.19999999999325,
		"velocity": 0.6771653543307087,
		"duration": 0.29999999999998295
	},
	{
		"name": "F4",
		"midi": 65,
		"time": 211.19999999999325,
		"velocity": 0.6771653543307087,
		"duration": 0.5799999999999841
	},
	{
		"name": "A3",
		"midi": 57,
		"time": 211.19999999999325,
		"velocity": 0.6771653543307087,
		"duration": 0.2799999999999727
	},
	{
		"name": "F3",
		"midi": 53,
		"time": 211.19999999999325,
		"velocity": 0.6771653543307087,
		"duration": 0.2799999999999727
	},
	{
		"name": "A4",
		"midi": 69,
		"time": 211.21499999999324,
		"velocity": 0.6771653543307087,
		"duration": 0.5799999999999841
	},
	{
		"name": "C4",
		"midi": 60,
		"time": 211.21999999999323,
		"velocity": 0.6771653543307087,
		"duration": 0.28000000000000114
	},
	{
		"name": "C3",
		"midi": 48,
		"time": 211.49999999999324,
		"velocity": 0.4881889763779528,
		"duration": 0.29999999999998295
	},
	{
		"name": "F3",
		"midi": 53,
		"time": 211.50499999999323,
		"velocity": 0.4881889763779528,
		"duration": 0.28000000000000114
	},
	{
		"name": "A3",
		"midi": 57,
		"time": 211.50499999999323,
		"velocity": 0.4881889763779528,
		"duration": 0.28000000000000114
	},
	{
		"name": "C3",
		"midi": 48,
		"time": 211.78999999999323,
		"velocity": 0.5984251968503937,
		"duration": 0.5799999999999557
	},
	{
		"name": "C4",
		"midi": 60,
		"time": 211.79499999999322,
		"velocity": 0.6771653543307087,
		"duration": 0.2799999999999727
	},
	{
		"name": "F2",
		"midi": 41,
		"time": 211.79999999999322,
		"velocity": 0.5196850393700787,
		"duration": 0.2799999999999727
	},
	{
		"name": "A3",
		"midi": 57,
		"time": 211.8049999999932,
		"velocity": 0.5984251968503937,
		"duration": 0.29999999999998295
	},
	{
		"name": "F3",
		"midi": 53,
		"time": 211.8049999999932,
		"velocity": 0.5984251968503937,
		"duration": 0.29999999999998295
	},
	{
		"name": "A4",
		"midi": 69,
		"time": 211.8149999999932,
		"velocity": 0.6771653543307087,
		"duration": 0.5799999999999841
	},
	{
		"name": "F4",
		"midi": 65,
		"time": 211.8149999999932,
		"velocity": 0.5984251968503937,
		"duration": 0.5799999999999841
	},
	{
		"name": "F3",
		"midi": 53,
		"time": 212.1049999999932,
		"velocity": 0.5984251968503937,
		"duration": 0.29999999999998295
	},
	{
		"name": "A3",
		"midi": 57,
		"time": 212.1049999999932,
		"velocity": 0.5984251968503937,
		"duration": 0.29999999999998295
	},
	{
		"name": "C4",
		"midi": 60,
		"time": 212.3949999999932,
		"velocity": 0.6771653543307087,
		"duration": 0.2799999999999727
	},
	{
		"name": "F2",
		"midi": 41,
		"time": 212.39999999999318,
		"velocity": 0.5196850393700787,
		"duration": 0.2799999999999727
	},
	{
		"name": "C3",
		"midi": 48,
		"time": 212.40499999999318,
		"velocity": 0.6771653543307087,
		"duration": 0.5799999999999557
	},
	{
		"name": "A4",
		"midi": 69,
		"time": 212.41499999999317,
		"velocity": 0.6771653543307087,
		"duration": 0.5799999999999557
	},
	{
		"name": "F3",
		"midi": 53,
		"time": 212.41499999999317,
		"velocity": 0.6771653543307087,
		"duration": 0.27499999999997726
	},
	{
		"name": "A3",
		"midi": 57,
		"time": 212.41499999999317,
		"velocity": 0.6771653543307087,
		"duration": 0.27499999999997726
	},
	{
		"name": "F4",
		"midi": 65,
		"time": 212.41999999999317,
		"velocity": 0.6771653543307087,
		"duration": 0.5799999999999557
	},
	{
		"name": "F3",
		"midi": 53,
		"time": 212.70499999999313,
		"velocity": 0.5196850393700787,
		"duration": 0.2750000000000057
	},
	{
		"name": "A3",
		"midi": 57,
		"time": 212.70499999999313,
		"velocity": 0.5196850393700787,
		"duration": 0.2750000000000057
	},
	{
		"name": "C3",
		"midi": 48,
		"time": 212.98999999999313,
		"velocity": 0.5984251968503937,
		"duration": 0.5799999999999557
	},
	{
		"name": "A4",
		"midi": 69,
		"time": 212.99999999999312,
		"velocity": 0.6771653543307087,
		"duration": 0.5799999999999557
	},
	{
		"name": "F2",
		"midi": 41,
		"time": 212.99999999999312,
		"velocity": 0.5196850393700787,
		"duration": 0.2799999999999727
	},
	{
		"name": "C4",
		"midi": 60,
		"time": 212.99999999999312,
		"velocity": 0.6771653543307087,
		"duration": 0.2799999999999727
	},
	{
		"name": "A3",
		"midi": 57,
		"time": 213.0149999999931,
		"velocity": 0.5984251968503937,
		"duration": 0.27499999999997726
	},
	{
		"name": "F3",
		"midi": 53,
		"time": 213.0149999999931,
		"velocity": 0.5984251968503937,
		"duration": 0.27499999999997726
	},
	{
		"name": "F4",
		"midi": 65,
		"time": 213.0199999999931,
		"velocity": 0.5984251968503937,
		"duration": 0.5799999999999557
	},
	{
		"name": "F3",
		"midi": 53,
		"time": 213.3149999999931,
		"velocity": 0.5984251968503937,
		"duration": 0.27499999999997726
	},
	{
		"name": "F2",
		"midi": 41,
		"time": 213.59999999999306,
		"velocity": 0.5196850393700787,
		"duration": 0.2799999999999727
	},
	{
		"name": "C3",
		"midi": 48,
		"time": 213.59999999999306,
		"velocity": 0.6771653543307087,
		"duration": 0.29999999999998295
	},
	{
		"name": "F4",
		"midi": 65,
		"time": 213.59999999999306,
		"velocity": 0.6771653543307087,
		"duration": 0.5799999999999841
	},
	{
		"name": "A3",
		"midi": 57,
		"time": 213.59999999999306,
		"velocity": 0.6771653543307087,
		"duration": 0.2799999999999727
	},
	{
		"name": "F3",
		"midi": 53,
		"time": 213.59999999999306,
		"velocity": 0.6771653543307087,
		"duration": 0.2799999999999727
	},
	{
		"name": "A4",
		"midi": 69,
		"time": 213.61499999999305,
		"velocity": 0.6771653543307087,
		"duration": 0.5799999999999841
	},
	{
		"name": "C4",
		"midi": 60,
		"time": 213.61999999999304,
		"velocity": 0.6771653543307087,
		"duration": 0.28000000000000114
	},
	{
		"name": "C3",
		"midi": 48,
		"time": 213.89999999999304,
		"velocity": 0.4881889763779528,
		"duration": 0.29999999999998295
	},
	{
		"name": "F3",
		"midi": 53,
		"time": 213.90499999999304,
		"velocity": 0.4881889763779528,
		"duration": 0.28000000000000114
	},
	{
		"name": "A3",
		"midi": 57,
		"time": 213.90499999999304,
		"velocity": 0.4881889763779528,
		"duration": 0.28000000000000114
	},
	{
		"name": "C3",
		"midi": 48,
		"time": 214.18999999999303,
		"velocity": 0.5984251968503937,
		"duration": 0.5799999999999557
	},
	{
		"name": "C4",
		"midi": 60,
		"time": 214.19499999999303,
		"velocity": 0.6771653543307087,
		"duration": 0.2799999999999727
	},
	{
		"name": "F2",
		"midi": 41,
		"time": 214.19999999999303,
		"velocity": 0.5196850393700787,
		"duration": 0.2799999999999727
	},
	{
		"name": "A3",
		"midi": 57,
		"time": 214.20499999999302,
		"velocity": 0.5984251968503937,
		"duration": 0.29999999999998295
	},
	{
		"name": "F3",
		"midi": 53,
		"time": 214.20499999999302,
		"velocity": 0.5984251968503937,
		"duration": 0.29999999999998295
	},
	{
		"name": "A4",
		"midi": 69,
		"time": 214.214999999993,
		"velocity": 0.6771653543307087,
		"duration": 0.5799999999999841
	},
	{
		"name": "F4",
		"midi": 65,
		"time": 214.214999999993,
		"velocity": 0.5984251968503937,
		"duration": 0.5799999999999841
	},
	{
		"name": "F3",
		"midi": 53,
		"time": 214.504999999993,
		"velocity": 0.5984251968503937,
		"duration": 0.29999999999998295
	},
	{
		"name": "A3",
		"midi": 57,
		"time": 214.504999999993,
		"velocity": 0.5984251968503937,
		"duration": 0.29999999999998295
	},
	{
		"name": "C4",
		"midi": 60,
		"time": 214.794999999993,
		"velocity": 0.6771653543307087,
		"duration": 0.2799999999999727
	},
	{
		"name": "F2",
		"midi": 41,
		"time": 214.799999999993,
		"velocity": 0.5196850393700787,
		"duration": 0.2799999999999727
	},
	{
		"name": "C3",
		"midi": 48,
		"time": 214.804999999993,
		"velocity": 0.6771653543307087,
		"duration": 0.5799999999999557
	},
	{
		"name": "A4",
		"midi": 69,
		"time": 214.81499999999298,
		"velocity": 0.6771653543307087,
		"duration": 0.5799999999999557
	},
	{
		"name": "F3",
		"midi": 53,
		"time": 214.81499999999298,
		"velocity": 0.6771653543307087,
		"duration": 0.27499999999997726
	},
	{
		"name": "A3",
		"midi": 57,
		"time": 214.81499999999298,
		"velocity": 0.6771653543307087,
		"duration": 0.27499999999997726
	},
	{
		"name": "F4",
		"midi": 65,
		"time": 214.81999999999297,
		"velocity": 0.6771653543307087,
		"duration": 0.5799999999999557
	},
	{
		"name": "F3",
		"midi": 53,
		"time": 215.10499999999294,
		"velocity": 0.5196850393700787,
		"duration": 0.2750000000000057
	}]
}
