{
  "header": {
    "PPQ": 120,
    "timeSignature": [
      4,
      4
    ],
    "bpm": 100,
    "name": "Coldplay - The Scientist"
  },
  "startTime": 0,
  "duration": 225.6000000000017,
  "tracks": [
    {
      "startTime": 0,
      "duration": 0,
      "length": 0,
      "notes": [],
      "controlChanges": {},
      "id": 0,
      "name": "Coldplay - The Scientist"
    },
    {
      "startTime": 0,
      "duration": 0,
      "length": 0,
      "notes": [],
      "controlChanges": {},
      "id": 1
    },
    {
      "startTime": 4.79,
      "duration": 215.98999999999288,
      "length": 2753,
      "notes": [
        {
          "name": "D4",
          "midi": 62,
          "time": 4.79,
          "velocity": 0.6771653543307087,
          "duration": 0.5800000000000001
        },
        {
          "name": "A4",
          "midi": 69,
          "time": 4.8,
          "velocity": 0.6771653543307087,
          "duration": 0.5800000000000001
        },
        {
          "name": "A3",
          "midi": 57,
          "time": 4.8,
          "velocity": 0.6771653543307087,
          "duration": 0.29000000000000004
        },
        {
          "name": "D3",
          "midi": 50,
          "time": 4.81,
          "velocity": 0.6771653543307087,
          "duration": 0.5800000000000001
        },
        {
          "name": "C4",
          "midi": 60,
          "time": 4.81,
          "velocity": 0.6771653543307087,
          "duration": 0.5800000000000001
        },
        {
          "name": "A3",
          "midi": 57,
          "time": 5.109999999999999,
          "velocity": 0.5748031496062992,
          "duration": 0.29000000000000004
        },
        {
          "name": "A3",
          "midi": 57,
          "time": 5.39,
          "velocity": 0.5984251968503937,
          "duration": 0.29000000000000004
        },
        {
          "name": "D3",
          "midi": 50,
          "time": 5.39,
          "velocity": 0.5984251968503937,
          "duration": 0.5800000000000001
        },
        {
          "name": "A4",
          "midi": 69,
          "time": 5.3999999999999995,
          "velocity": 0.6771653543307087,
          "duration": 0.5800000000000001
        },
        {
          "name": "C4",
          "midi": 60,
          "time": 5.3999999999999995,
          "velocity": 0.5984251968503937,
          "duration": 0.5800000000000001
        },
        {
          "name": "D4",
          "midi": 62,
          "time": 5.404999999999999,
          "velocity": 0.5984251968503937,
          "duration": 0.5800000000000001
        },
        {
          "name": "A3",
          "midi": 57,
          "time": 5.699999999999999,
          "velocity": 0.6299212598425197,
          "duration": 0.29000000000000004
        },
        {
          "name": "A4",
          "midi": 69,
          "time": 5.999999999999999,
          "velocity": 0.6771653543307087,
          "duration": 0.5800000000000001
        },
        {
          "name": "A3",
          "midi": 57,
          "time": 6.004999999999999,
          "velocity": 0.6771653543307087,
          "duration": 0.29000000000000004
        },
        {
          "name": "D3",
          "midi": 50,
          "time": 6.004999999999999,
          "velocity": 0.6771653543307087,
          "duration": 0.5800000000000001
        },
        {
          "name": "D4",
          "midi": 62,
          "time": 6.009999999999999,
          "velocity": 0.6771653543307087,
          "duration": 0.5800000000000001
        },
        {
          "name": "C4",
          "midi": 60,
          "time": 6.009999999999999,
          "velocity": 0.6771653543307087,
          "duration": 0.5800000000000001
        },
        {
          "name": "A3",
          "midi": 57,
          "time": 6.294999999999999,
          "velocity": 0.5748031496062992,
          "duration": 0.29000000000000004
        },
        {
          "name": "D3",
          "midi": 50,
          "time": 6.589999999999999,
          "velocity": 0.5984251968503937,
          "duration": 0.5800000000000001
        },
        {
          "name": "A4",
          "midi": 69,
          "time": 6.599999999999999,
          "velocity": 0.6771653543307087,
          "duration": 0.5800000000000001
        },
        {
          "name": "A3",
          "midi": 57,
          "time": 6.604999999999999,
          "velocity": 0.5984251968503937,
          "duration": 0.29000000000000004
        },
        {
          "name": "D4",
          "midi": 62,
          "time": 6.6099999999999985,
          "velocity": 0.5984251968503937,
          "duration": 0.5800000000000001
        },
        {
          "name": "C4",
          "midi": 60,
          "time": 6.6099999999999985,
          "velocity": 0.5984251968503937,
          "duration": 0.5800000000000001
        },
        {
          "name": "A3",
          "midi": 57,
          "time": 6.899999999999999,
          "velocity": 0.6299212598425197,
          "duration": 0.29000000000000004
        },
        {
          "name": "D4",
          "midi": 62,
          "time": 7.1949999999999985,
          "velocity": 0.6771653543307087,
          "duration": 0.5800000000000001
        },
        {
          "name": "A#4",
          "midi": 70,
          "time": 7.204999999999998,
          "velocity": 0.6771653543307087,
          "duration": 0.5800000000000001
        },
        {
          "name": "A#2",
          "midi": 46,
          "time": 7.204999999999998,
          "velocity": 0.6771653543307087,
          "duration": 0.5800000000000001
        },
        {
          "name": "A#3",
          "midi": 58,
          "time": 7.204999999999998,
          "velocity": 0.6771653543307087,
          "duration": 0.29000000000000004
        },
        {
          "name": "F3",
          "midi": 53,
          "time": 7.209999999999998,
          "velocity": 0.6771653543307087,
          "duration": 0.28000000000000025
        },
        {
          "name": "F3",
          "midi": 53,
          "time": 7.499999999999998,
          "velocity": 0.5196850393700787,
          "duration": 0.28000000000000025
        },
        {
          "name": "A#3",
          "midi": 58,
          "time": 7.514999999999998,
          "velocity": 0.5748031496062992,
          "duration": 0.29000000000000004
        },
        {
          "name": "A#2",
          "midi": 46,
          "time": 7.784999999999998,
          "velocity": 0.5984251968503937,
          "duration": 0.5799999999999983
        },
        {
          "name": "A#3",
          "midi": 58,
          "time": 7.794999999999998,
          "velocity": 0.5984251968503937,
          "duration": 0.28999999999999915
        },
        {
          "name": "F3",
          "midi": 53,
          "time": 7.799999999999998,
          "velocity": 0.5984251968503937,
          "duration": 0.5799999999999992
        },
        {
          "name": "A#4",
          "midi": 70,
          "time": 7.804999999999998,
          "velocity": 0.6771653543307087,
          "duration": 0.5800000000000001
        },
        {
          "name": "D4",
          "midi": 62,
          "time": 7.809999999999998,
          "velocity": 0.5984251968503937,
          "duration": 0.580000000000001
        },
        {
          "name": "A#3",
          "midi": 58,
          "time": 8.104999999999997,
          "velocity": 0.6299212598425197,
          "duration": 0.2900000000000027
        },
        {
          "name": "A#2",
          "midi": 46,
          "time": 8.4,
          "velocity": 0.6771653543307087,
          "duration": 0.5800000000000036
        },
        {
          "name": "A#4",
          "midi": 70,
          "time": 8.405000000000001,
          "velocity": 0.6771653543307087,
          "duration": 0.5800000000000036
        },
        {
          "name": "A#3",
          "midi": 58,
          "time": 8.410000000000002,
          "velocity": 0.6771653543307087,
          "duration": 0.2900000000000009
        },
        {
          "name": "F3",
          "midi": 53,
          "time": 8.410000000000002,
          "velocity": 0.6771653543307087,
          "duration": 0.27500000000000036
        },
        {
          "name": "D4",
          "midi": 62,
          "time": 8.415000000000003,
          "velocity": 0.6771653543307087,
          "duration": 0.5800000000000036
        },
        {
          "name": "A#3",
          "midi": 58,
          "time": 8.700000000000003,
          "velocity": 0.5748031496062992,
          "duration": 0.2900000000000027
        },
        {
          "name": "F3",
          "midi": 53,
          "time": 8.700000000000003,
          "velocity": 0.5196850393700787,
          "duration": 0.27500000000000036
        },
        {
          "name": "A#2",
          "midi": 46,
          "time": 8.985000000000005,
          "velocity": 0.5984251968503937,
          "duration": 0.5800000000000036
        },
        {
          "name": "A#4",
          "midi": 70,
          "time": 9.005000000000006,
          "velocity": 0.6771653543307087,
          "duration": 0.5800000000000018
        },
        {
          "name": "F3",
          "midi": 53,
          "time": 9.010000000000007,
          "velocity": 0.5984251968503937,
          "duration": 0.5800000000000018
        },
        {
          "name": "A#3",
          "midi": 58,
          "time": 9.010000000000007,
          "velocity": 0.5984251968503937,
          "duration": 0.2900000000000009
        },
        {
          "name": "D4",
          "midi": 62,
          "time": 9.015000000000008,
          "velocity": 0.5984251968503937,
          "duration": 0.5800000000000018
        },
        {
          "name": "C4",
          "midi": 60,
          "time": 9.305000000000009,
          "velocity": 0.8267716535433071,
          "duration": 0.2900000000000009
        },
        {
          "name": "A4",
          "midi": 69,
          "time": 9.60000000000001,
          "velocity": 0.6771653543307087,
          "duration": 0.5800000000000018
        },
        {
          "name": "A3",
          "midi": 57,
          "time": 9.60000000000001,
          "velocity": 0.6771653543307087,
          "duration": 0.2900000000000027
        },
        {
          "name": "F3",
          "midi": 53,
          "time": 9.605000000000011,
          "velocity": 0.6771653543307087,
          "duration": 0.3050000000000015
        },
        {
          "name": "F2",
          "midi": 41,
          "time": 9.605000000000011,
          "velocity": 0.6771653543307087,
          "duration": 0.5800000000000018
        },
        {
          "name": "F4",
          "midi": 65,
          "time": 9.605000000000011,
          "velocity": 0.48031496062992124,
          "duration": 0.5800000000000018
        },
        {
          "name": "C4",
          "midi": 60,
          "time": 9.610000000000012,
          "velocity": 0.6771653543307087,
          "duration": 0.5800000000000018
        },
        {
          "name": "F3",
          "midi": 53,
          "time": 9.900000000000013,
          "velocity": 0.6771653543307087,
          "duration": 0.30500000000000327
        },
        {
          "name": "A3",
          "midi": 57,
          "time": 9.910000000000013,
          "velocity": 0.5748031496062992,
          "duration": 0.2900000000000027
        },
        {
          "name": "F2",
          "midi": 41,
          "time": 10.185000000000013,
          "velocity": 0.5984251968503937,
          "duration": 0.5800000000000036
        },
        {
          "name": "A3",
          "midi": 57,
          "time": 10.190000000000014,
          "velocity": 0.5984251968503937,
          "duration": 0.2900000000000027
        },
        {
          "name": "F4",
          "midi": 65,
          "time": 10.195000000000014,
          "velocity": 0.4251968503937008,
          "duration": 0.5800000000000018
        },
        {
          "name": "C4",
          "midi": 60,
          "time": 10.200000000000015,
          "velocity": 0.5984251968503937,
          "duration": 0.5800000000000018
        },
        {
          "name": "A4",
          "midi": 69,
          "time": 10.200000000000015,
          "velocity": 0.6771653543307087,
          "duration": 0.5800000000000018
        },
        {
          "name": "F3",
          "midi": 53,
          "time": 10.200000000000015,
          "velocity": 0.5984251968503937,
          "duration": 0.3000000000000007
        },
        {
          "name": "F3",
          "midi": 53,
          "time": 10.500000000000016,
          "velocity": 0.5984251968503937,
          "duration": 0.3000000000000007
        },
        {
          "name": "A3",
          "midi": 57,
          "time": 10.500000000000016,
          "velocity": 0.6299212598425197,
          "duration": 0.2900000000000009
        },
        {
          "name": "F2",
          "midi": 41,
          "time": 10.800000000000017,
          "velocity": 0.6771653543307087,
          "duration": 0.5800000000000036
        },
        {
          "name": "A4",
          "midi": 69,
          "time": 10.800000000000017,
          "velocity": 0.6771653543307087,
          "duration": 0.5800000000000036
        },
        {
          "name": "F3",
          "midi": 53,
          "time": 10.800000000000017,
          "velocity": 0.6771653543307087,
          "duration": 0.3000000000000025
        },
        {
          "name": "F4",
          "midi": 65,
          "time": 10.805000000000017,
          "velocity": 0.48031496062992124,
          "duration": 0.5800000000000036
        },
        {
          "name": "A3",
          "midi": 57,
          "time": 10.805000000000017,
          "velocity": 0.6771653543307087,
          "duration": 0.2900000000000009
        },
        {
          "name": "C4",
          "midi": 60,
          "time": 10.810000000000018,
          "velocity": 0.6771653543307087,
          "duration": 0.5800000000000036
        },
        {
          "name": "A3",
          "midi": 57,
          "time": 11.095000000000018,
          "velocity": 0.5748031496062992,
          "duration": 0.2900000000000027
        },
        {
          "name": "F3",
          "midi": 53,
          "time": 11.10000000000002,
          "velocity": 0.5984251968503937,
          "duration": 0.3000000000000025
        },
        {
          "name": "F2",
          "midi": 41,
          "time": 11.385000000000021,
          "velocity": 0.5984251968503937,
          "duration": 0.5800000000000036
        },
        {
          "name": "A4",
          "midi": 69,
          "time": 11.400000000000022,
          "velocity": 0.6771653543307087,
          "duration": 0.5800000000000036
        },
        {
          "name": "F3",
          "midi": 53,
          "time": 11.400000000000022,
          "velocity": 0.5984251968503937,
          "duration": 0.3000000000000025
        },
        {
          "name": "A3",
          "midi": 57,
          "time": 11.405000000000022,
          "velocity": 0.5984251968503937,
          "duration": 0.2900000000000009
        },
        {
          "name": "F4",
          "midi": 65,
          "time": 11.405000000000022,
          "velocity": 0.4251968503937008,
          "duration": 0.5800000000000036
        },
        {
          "name": "C4",
          "midi": 60,
          "time": 11.410000000000023,
          "velocity": 0.5984251968503937,
          "duration": 0.5800000000000036
        },
        {
          "name": "F3",
          "midi": 53,
          "time": 11.700000000000024,
          "velocity": 0.5984251968503937,
          "duration": 0.30000000000000426
        },
        {
          "name": "A3",
          "midi": 57,
          "time": 11.700000000000024,
          "velocity": 0.6299212598425197,
          "duration": 0.2900000000000027
        },
        {
          "name": "F4",
          "midi": 65,
          "time": 11.995000000000028,
          "velocity": 0.5354330708661418,
          "duration": 0.5800000000000072
        },
        {
          "name": "G3",
          "midi": 55,
          "time": 12.000000000000028,
          "velocity": 0.6771653543307087,
          "duration": 0.30500000000000504
        },
        {
          "name": "G4",
          "midi": 67,
          "time": 12.00500000000003,
          "velocity": 0.6771653543307087,
          "duration": 0.5800000000000054
        },
        {
          "name": "C3",
          "midi": 48,
          "time": 12.00500000000003,
          "velocity": 0.6771653543307087,
          "duration": 0.5800000000000054
        },
        {
          "name": "F3",
          "midi": 53,
          "time": 12.01000000000003,
          "velocity": 0.6771653543307087,
          "duration": 0.5800000000000054
        },
        {
          "name": "F2",
          "midi": 41,
          "time": 12.01500000000003,
          "velocity": 0.6771653543307087,
          "duration": 0.5800000000000054
        },
        {
          "name": "C4",
          "midi": 60,
          "time": 12.020000000000032,
          "velocity": 0.6771653543307087,
          "duration": 0.28000000000000114
        },
        {
          "name": "G3",
          "midi": 55,
          "time": 12.310000000000034,
          "velocity": 0.6771653543307087,
          "duration": 0.30500000000000504
        },
        {
          "name": "C4",
          "midi": 60,
          "time": 12.310000000000034,
          "velocity": 0.6771653543307087,
          "duration": 0.28000000000000114
        },
        {
          "name": "F2",
          "midi": 41,
          "time": 12.595000000000036,
          "velocity": 0.5984251968503937,
          "duration": 0.5800000000000054
        },
        {
          "name": "C3",
          "midi": 48,
          "time": 12.595000000000036,
          "velocity": 0.5984251968503937,
          "duration": 0.5800000000000054
        },
        {
          "name": "F4",
          "midi": 65,
          "time": 12.600000000000037,
          "velocity": 0.5354330708661418,
          "duration": 0.5800000000000054
        },
        {
          "name": "G4",
          "midi": 67,
          "time": 12.605000000000038,
          "velocity": 0.6771653543307087,
          "duration": 0.5800000000000054
        },
        {
          "name": "F3",
          "midi": 53,
          "time": 12.610000000000039,
          "velocity": 0.6771653543307087,
          "duration": 0.5800000000000054
        },
        {
          "name": "C4",
          "midi": 60,
          "time": 12.610000000000039,
          "velocity": 0.5984251968503937,
          "duration": 0.2900000000000027
        },
        {
          "name": "G3",
          "midi": 55,
          "time": 12.62000000000004,
          "velocity": 0.6771653543307087,
          "duration": 0.3050000000000015
        },
        {
          "name": "C4",
          "midi": 60,
          "time": 12.900000000000041,
          "velocity": 0.5984251968503937,
          "duration": 0.2900000000000027
        },
        {
          "name": "G3",
          "midi": 55,
          "time": 12.910000000000041,
          "velocity": 0.5984251968503937,
          "duration": 0.2800000000000029
        },
        {
          "name": "F4",
          "midi": 65,
          "time": 13.205000000000044,
          "velocity": 0.5354330708661418,
          "duration": 0.5800000000000036
        },
        {
          "name": "C3",
          "midi": 48,
          "time": 13.205000000000044,
          "velocity": 0.6771653543307087,
          "duration": 0.5800000000000036
        },
        {
          "name": "G4",
          "midi": 67,
          "time": 13.205000000000044,
          "velocity": 0.6771653543307087,
          "duration": 0.5800000000000036
        },
        {
          "name": "F2",
          "midi": 41,
          "time": 13.210000000000045,
          "velocity": 0.6771653543307087,
          "duration": 0.5800000000000036
        },
        {
          "name": "G3",
          "midi": 55,
          "time": 13.215000000000046,
          "velocity": 0.5984251968503937,
          "duration": 0.28000000000000114
        },
        {
          "name": "F3",
          "midi": 53,
          "time": 13.215000000000046,
          "velocity": 0.6771653543307087,
          "duration": 0.5800000000000036
        },
        {
          "name": "C4",
          "midi": 60,
          "time": 13.220000000000047,
          "velocity": 0.6771653543307087,
          "duration": 0.28000000000000114
        },
        {
          "name": "C4",
          "midi": 60,
          "time": 13.500000000000048,
          "velocity": 0.6771653543307087,
          "duration": 0.27999999999999936
        },
        {
          "name": "G3",
          "midi": 55,
          "time": 13.510000000000048,
          "velocity": 0.5984251968503937,
          "duration": 0.2850000000000019
        },
        {
          "name": "F2",
          "midi": 41,
          "time": 13.79500000000005,
          "velocity": 0.5984251968503937,
          "duration": 0.5800000000000001
        },
        {
          "name": "F4",
          "midi": 65,
          "time": 13.80500000000005,
          "velocity": 0.5354330708661418,
          "duration": 0.5800000000000018
        },
        {
          "name": "G3",
          "midi": 55,
          "time": 13.80500000000005,
          "velocity": 0.5984251968503937,
          "duration": 0.28500000000000014
        },
        {
          "name": "C3",
          "midi": 48,
          "time": 13.80500000000005,
          "velocity": 0.5984251968503937,
          "duration": 0.5800000000000018
        },
        {
          "name": "G4",
          "midi": 67,
          "time": 13.80500000000005,
          "velocity": 0.6771653543307087,
          "duration": 0.5800000000000018
        },
        {
          "name": "F3",
          "midi": 53,
          "time": 13.81000000000005,
          "velocity": 0.6771653543307087,
          "duration": 0.5800000000000018
        },
        {
          "name": "C4",
          "midi": 60,
          "time": 13.82000000000005,
          "velocity": 0.5984251968503937,
          "duration": 0.27999999999999936
        },
        {
          "name": "C4",
          "midi": 60,
          "time": 14.10000000000005,
          "velocity": 0.5984251968503937,
          "duration": 0.28000000000000114
        },
        {
          "name": "G3",
          "midi": 55,
          "time": 14.11000000000005,
          "velocity": 0.5984251968503937,
          "duration": 0.30000000000000426
        },
        {
          "name": "D4",
          "midi": 62,
          "time": 14.395000000000053,
          "velocity": 0.6771653543307087,
          "duration": 0.5800000000000018
        },
        {
          "name": "A4",
          "midi": 69,
          "time": 14.405000000000053,
          "velocity": 0.6771653543307087,
          "duration": 0.5800000000000018
        },
        {
          "name": "A3",
          "midi": 57,
          "time": 14.405000000000053,
          "velocity": 0.6771653543307087,
          "duration": 0.2900000000000027
        },
        {
          "name": "D3",
          "midi": 50,
          "time": 14.415000000000054,
          "velocity": 0.6771653543307087,
          "duration": 0.5800000000000001
        },
        {
          "name": "C4",
          "midi": 60,
          "time": 14.415000000000054,
          "velocity": 0.6771653543307087,
          "duration": 0.5800000000000001
        },
        {
          "name": "A3",
          "midi": 57,
          "time": 14.715000000000055,
          "velocity": 0.5748031496062992,
          "duration": 0.28999999999999915
        },
        {
          "name": "A3",
          "midi": 57,
          "time": 14.995000000000054,
          "velocity": 0.5984251968503937,
          "duration": 0.2900000000000009
        },
        {
          "name": "D3",
          "midi": 50,
          "time": 14.995000000000054,
          "velocity": 0.5984251968503937,
          "duration": 0.5800000000000001
        },
        {
          "name": "A4",
          "midi": 69,
          "time": 15.005000000000054,
          "velocity": 0.6771653543307087,
          "duration": 0.5800000000000001
        },
        {
          "name": "C4",
          "midi": 60,
          "time": 15.005000000000054,
          "velocity": 0.5984251968503937,
          "duration": 0.5800000000000001
        },
        {
          "name": "D4",
          "midi": 62,
          "time": 15.010000000000055,
          "velocity": 0.5984251968503937,
          "duration": 0.5800000000000001
        },
        {
          "name": "A3",
          "midi": 57,
          "time": 15.305000000000055,
          "velocity": 0.6299212598425197,
          "duration": 0.2900000000000009
        },
        {
          "name": "A4",
          "midi": 69,
          "time": 15.605000000000055,
          "velocity": 0.6771653543307087,
          "duration": 0.5800000000000001
        },
        {
          "name": "A3",
          "midi": 57,
          "time": 15.610000000000056,
          "velocity": 0.6771653543307087,
          "duration": 0.2900000000000009
        },
        {
          "name": "D3",
          "midi": 50,
          "time": 15.610000000000056,
          "velocity": 0.6771653543307087,
          "duration": 0.5799999999999983
        },
        {
          "name": "D4",
          "midi": 62,
          "time": 15.615000000000057,
          "velocity": 0.6771653543307087,
          "duration": 0.5799999999999965
        },
        {
          "name": "C4",
          "midi": 60,
          "time": 15.615000000000057,
          "velocity": 0.6771653543307087,
          "duration": 0.5799999999999965
        },
        {
          "name": "A3",
          "midi": 57,
          "time": 15.900000000000057,
          "velocity": 0.5748031496062992,
          "duration": 0.28999999999999737
        },
        {
          "name": "D3",
          "midi": 50,
          "time": 16.195000000000054,
          "velocity": 0.5984251968503937,
          "duration": 0.5800000000000018
        },
        {
          "name": "A4",
          "midi": 69,
          "time": 16.205000000000055,
          "velocity": 0.6771653543307087,
          "duration": 0.5800000000000018
        },
        {
          "name": "A3",
          "midi": 57,
          "time": 16.210000000000054,
          "velocity": 0.5984251968503937,
          "duration": 0.28999999999999915
        },
        {
          "name": "D4",
          "midi": 62,
          "time": 16.215000000000053,
          "velocity": 0.5984251968503937,
          "duration": 0.5800000000000054
        },
        {
          "name": "C4",
          "midi": 60,
          "time": 16.215000000000053,
          "velocity": 0.5984251968503937,
          "duration": 0.5800000000000054
        },
        {
          "name": "A3",
          "midi": 57,
          "time": 16.505000000000052,
          "velocity": 0.6299212598425197,
          "duration": 0.29000000000000625
        },
        {
          "name": "D4",
          "midi": 62,
          "time": 16.800000000000058,
          "velocity": 0.6771653543307087,
          "duration": 0.5800000000000018
        },
        {
          "name": "A#4",
          "midi": 70,
          "time": 16.81000000000006,
          "velocity": 0.6771653543307087,
          "duration": 0.5799999999999983
        },
        {
          "name": "A#2",
          "midi": 46,
          "time": 16.81000000000006,
          "velocity": 0.6771653543307087,
          "duration": 0.5799999999999983
        },
        {
          "name": "A#3",
          "midi": 58,
          "time": 16.81000000000006,
          "velocity": 0.6771653543307087,
          "duration": 0.28999999999999915
        },
        {
          "name": "F3",
          "midi": 53,
          "time": 16.815000000000058,
          "velocity": 0.6771653543307087,
          "duration": 0.28000000000000114
        },
        {
          "name": "F3",
          "midi": 53,
          "time": 17.105000000000057,
          "velocity": 0.5196850393700787,
          "duration": 0.28000000000000114
        },
        {
          "name": "A#3",
          "midi": 58,
          "time": 17.120000000000058,
          "velocity": 0.5748031496062992,
          "duration": 0.28999999999999915
        },
        {
          "name": "A#2",
          "midi": 46,
          "time": 17.390000000000057,
          "velocity": 0.5984251968503937,
          "duration": 0.5800000000000018
        },
        {
          "name": "A#3",
          "midi": 58,
          "time": 17.40000000000006,
          "velocity": 0.5984251968503937,
          "duration": 0.28999999999999915
        },
        {
          "name": "F3",
          "midi": 53,
          "time": 17.405000000000058,
          "velocity": 0.5984251968503937,
          "duration": 0.5800000000000018
        },
        {
          "name": "A#4",
          "midi": 70,
          "time": 17.410000000000057,
          "velocity": 0.6771653543307087,
          "duration": 0.5800000000000018
        },
        {
          "name": "D4",
          "midi": 62,
          "time": 17.415000000000056,
          "velocity": 0.5984251968503937,
          "duration": 0.5800000000000018
        },
        {
          "name": "A#3",
          "midi": 58,
          "time": 17.710000000000058,
          "velocity": 0.6299212598425197,
          "duration": 0.28999999999999915
        },
        {
          "name": "A#2",
          "midi": 46,
          "time": 18.005000000000056,
          "velocity": 0.6771653543307087,
          "duration": 0.5800000000000018
        },
        {
          "name": "A#4",
          "midi": 70,
          "time": 18.010000000000055,
          "velocity": 0.6771653543307087,
          "duration": 0.5800000000000018
        },
        {
          "name": "A#3",
          "midi": 58,
          "time": 18.015000000000054,
          "velocity": 0.6771653543307087,
          "duration": 0.2900000000000027
        },
        {
          "name": "F3",
          "midi": 53,
          "time": 18.015000000000054,
          "velocity": 0.6771653543307087,
          "duration": 0.27500000000000213
        },
        {
          "name": "D4",
          "midi": 62,
          "time": 18.020000000000053,
          "velocity": 0.6771653543307087,
          "duration": 0.5800000000000018
        },
        {
          "name": "A#3",
          "midi": 58,
          "time": 18.305000000000057,
          "velocity": 0.5748031496062992,
          "duration": 0.28999999999999915
        },
        {
          "name": "F3",
          "midi": 53,
          "time": 18.305000000000057,
          "velocity": 0.5196850393700787,
          "duration": 0.27500000000000213
        },
        {
          "name": "A#2",
          "midi": 46,
          "time": 18.590000000000057,
          "velocity": 0.5984251968503937,
          "duration": 0.5799999999999983
        },
        {
          "name": "A#4",
          "midi": 70,
          "time": 18.610000000000056,
          "velocity": 0.6771653543307087,
          "duration": 0.5799999999999983
        },
        {
          "name": "F3",
          "midi": 53,
          "time": 18.615000000000055,
          "velocity": 0.5984251968503937,
          "duration": 0.5799999999999983
        },
        {
          "name": "A#3",
          "midi": 58,
          "time": 18.615000000000055,
          "velocity": 0.5984251968503937,
          "duration": 0.28999999999999915
        },
        {
          "name": "D4",
          "midi": 62,
          "time": 18.620000000000054,
          "velocity": 0.5984251968503937,
          "duration": 0.5799999999999983
        },
        {
          "name": "C4",
          "midi": 60,
          "time": 18.910000000000053,
          "velocity": 0.8267716535433071,
          "duration": 0.28999999999999915
        },
        {
          "name": "A4",
          "midi": 69,
          "time": 19.20500000000005,
          "velocity": 0.6771653543307087,
          "duration": 0.5800000000000018
        },
        {
          "name": "A3",
          "midi": 57,
          "time": 19.20500000000005,
          "velocity": 0.6771653543307087,
          "duration": 0.28999999999999915
        },
        {
          "name": "F3",
          "midi": 53,
          "time": 19.21000000000005,
          "velocity": 0.6771653543307087,
          "duration": 0.30500000000000327
        },
        {
          "name": "F2",
          "midi": 41,
          "time": 19.21000000000005,
          "velocity": 0.6771653543307087,
          "duration": 0.5800000000000018
        },
        {
          "name": "F4",
          "midi": 65,
          "time": 19.21000000000005,
          "velocity": 0.48031496062992124,
          "duration": 0.5800000000000018
        },
        {
          "name": "C4",
          "midi": 60,
          "time": 19.21500000000005,
          "velocity": 0.6771653543307087,
          "duration": 0.5800000000000018
        },
        {
          "name": "F3",
          "midi": 53,
          "time": 19.505000000000052,
          "velocity": 0.6771653543307087,
          "duration": 0.30499999999999616
        },
        {
          "name": "A3",
          "midi": 57,
          "time": 19.515000000000054,
          "velocity": 0.5748031496062992,
          "duration": 0.2899999999999956
        },
        {
          "name": "F2",
          "midi": 41,
          "time": 19.790000000000052,
          "velocity": 0.5984251968503937,
          "duration": 0.5799999999999947
        },
        {
          "name": "A3",
          "midi": 57,
          "time": 19.79500000000005,
          "velocity": 0.5984251968503937,
          "duration": 0.2899999999999956
        },
        {
          "name": "F4",
          "midi": 65,
          "time": 19.80000000000005,
          "velocity": 0.4251968503937008,
          "duration": 0.5799999999999983
        },
        {
          "name": "C4",
          "midi": 60,
          "time": 19.80500000000005,
          "velocity": 0.5984251968503937,
          "duration": 0.5799999999999983
        },
        {
          "name": "A4",
          "midi": 69,
          "time": 19.80500000000005,
          "velocity": 0.6771653543307087,
          "duration": 0.5799999999999983
        },
        {
          "name": "F3",
          "midi": 53,
          "time": 19.80500000000005,
          "velocity": 0.5984251968503937,
          "duration": 0.29999999999999716
        },
        {
          "name": "F3",
          "midi": 53,
          "time": 20.105000000000047,
          "velocity": 0.5984251968503937,
          "duration": 0.30000000000000426
        },
        {
          "name": "A3",
          "midi": 57,
          "time": 20.105000000000047,
          "velocity": 0.6299212598425197,
          "duration": 0.2900000000000027
        },
        {
          "name": "F2",
          "midi": 41,
          "time": 20.40500000000005,
          "velocity": 0.6771653543307087,
          "duration": 0.5799999999999983
        },
        {
          "name": "A4",
          "midi": 69,
          "time": 20.40500000000005,
          "velocity": 0.6771653543307087,
          "duration": 0.5799999999999983
        },
        {
          "name": "F3",
          "midi": 53,
          "time": 20.40500000000005,
          "velocity": 0.6771653543307087,
          "duration": 0.29999999999999716
        },
        {
          "name": "F4",
          "midi": 65,
          "time": 20.41000000000005,
          "velocity": 0.48031496062992124,
          "duration": 0.5799999999999983
        },
        {
          "name": "A3",
          "midi": 57,
          "time": 20.41000000000005,
          "velocity": 0.6771653543307087,
          "duration": 0.28999999999999915
        },
        {
          "name": "C4",
          "midi": 60,
          "time": 20.41500000000005,
          "velocity": 0.6771653543307087,
          "duration": 0.5799999999999983
        },
        {
          "name": "A3",
          "midi": 57,
          "time": 20.70000000000005,
          "velocity": 0.5748031496062992,
          "duration": 0.28999999999999915
        },
        {
          "name": "F3",
          "midi": 53,
          "time": 20.705000000000048,
          "velocity": 0.5984251968503937,
          "duration": 0.3000000000000007
        },
        {
          "name": "F2",
          "midi": 41,
          "time": 20.990000000000048,
          "velocity": 0.5984251968503937,
          "duration": 0.5799999999999983
        },
        {
          "name": "A4",
          "midi": 69,
          "time": 21.00500000000005,
          "velocity": 0.6771653543307087,
          "duration": 0.5799999999999983
        },
        {
          "name": "F3",
          "midi": 53,
          "time": 21.00500000000005,
          "velocity": 0.5984251968503937,
          "duration": 0.29999999999999716
        },
        {
          "name": "A3",
          "midi": 57,
          "time": 21.010000000000048,
          "velocity": 0.5984251968503937,
          "duration": 0.28999999999999915
        },
        {
          "name": "F4",
          "midi": 65,
          "time": 21.010000000000048,
          "velocity": 0.4251968503937008,
          "duration": 0.5799999999999983
        },
        {
          "name": "C4",
          "midi": 60,
          "time": 21.015000000000047,
          "velocity": 0.5984251968503937,
          "duration": 0.5799999999999983
        },
        {
          "name": "F3",
          "midi": 53,
          "time": 21.305000000000046,
          "velocity": 0.5984251968503937,
          "duration": 0.29999999999999716
        },
        {
          "name": "A3",
          "midi": 57,
          "time": 21.305000000000046,
          "velocity": 0.6299212598425197,
          "duration": 0.28999999999999915
        },
        {
          "name": "F4",
          "midi": 65,
          "time": 21.600000000000044,
          "velocity": 0.5354330708661418,
          "duration": 0.5799999999999947
        },
        {
          "name": "G3",
          "midi": 55,
          "time": 21.605000000000043,
          "velocity": 0.6771653543307087,
          "duration": 0.30499999999999616
        },
        {
          "name": "G4",
          "midi": 67,
          "time": 21.610000000000042,
          "velocity": 0.6771653543307087,
          "duration": 0.5799999999999983
        },
        {
          "name": "C3",
          "midi": 48,
          "time": 21.610000000000042,
          "velocity": 0.6771653543307087,
          "duration": 0.5799999999999983
        },
        {
          "name": "F3",
          "midi": 53,
          "time": 21.61500000000004,
          "velocity": 0.6771653543307087,
          "duration": 0.5799999999999983
        },
        {
          "name": "F2",
          "midi": 41,
          "time": 21.62000000000004,
          "velocity": 0.6771653543307087,
          "duration": 0.5799999999999983
        },
        {
          "name": "C4",
          "midi": 60,
          "time": 21.62500000000004,
          "velocity": 0.6771653543307087,
          "duration": 0.28000000000000114
        },
        {
          "name": "G3",
          "midi": 55,
          "time": 21.91500000000004,
          "velocity": 0.6771653543307087,
          "duration": 0.30499999999999616
        },
        {
          "name": "C4",
          "midi": 60,
          "time": 21.91500000000004,
          "velocity": 0.6771653543307087,
          "duration": 0.28000000000000114
        },
        {
          "name": "F2",
          "midi": 41,
          "time": 22.20000000000004,
          "velocity": 0.5984251968503937,
          "duration": 0.5799999999999983
        },
        {
          "name": "C3",
          "midi": 48,
          "time": 22.20000000000004,
          "velocity": 0.5984251968503937,
          "duration": 0.5799999999999983
        },
        {
          "name": "F4",
          "midi": 65,
          "time": 22.205000000000037,
          "velocity": 0.5354330708661418,
          "duration": 0.5799999999999983
        },
        {
          "name": "G4",
          "midi": 67,
          "time": 22.210000000000036,
          "velocity": 0.6771653543307087,
          "duration": 0.5799999999999983
        },
        {
          "name": "F3",
          "midi": 53,
          "time": 22.215000000000035,
          "velocity": 0.6771653543307087,
          "duration": 0.5799999999999983
        },
        {
          "name": "C4",
          "midi": 60,
          "time": 22.215000000000035,
          "velocity": 0.5984251968503937,
          "duration": 0.28999999999999915
        },
        {
          "name": "G3",
          "midi": 55,
          "time": 22.225000000000033,
          "velocity": 0.6771653543307087,
          "duration": 0.30500000000000327
        },
        {
          "name": "C4",
          "midi": 60,
          "time": 22.505000000000035,
          "velocity": 0.5984251968503937,
          "duration": 0.28999999999999915
        },
        {
          "name": "G3",
          "midi": 55,
          "time": 22.515000000000036,
          "velocity": 0.5984251968503937,
          "duration": 0.2799999999999976
        },
        {
          "name": "F4",
          "midi": 65,
          "time": 22.810000000000034,
          "velocity": 0.5354330708661418,
          "duration": 0.5799999999999947
        },
        {
          "name": "C3",
          "midi": 48,
          "time": 22.810000000000034,
          "velocity": 0.6771653543307087,
          "duration": 0.5799999999999947
        },
        {
          "name": "G4",
          "midi": 67,
          "time": 22.810000000000034,
          "velocity": 0.6771653543307087,
          "duration": 0.5799999999999947
        },
        {
          "name": "F2",
          "midi": 41,
          "time": 22.815000000000033,
          "velocity": 0.6771653543307087,
          "duration": 0.5799999999999947
        },
        {
          "name": "G3",
          "midi": 55,
          "time": 22.820000000000032,
          "velocity": 0.5984251968503937,
          "duration": 0.2799999999999976
        },
        {
          "name": "F3",
          "midi": 53,
          "time": 22.820000000000032,
          "velocity": 0.6771653543307087,
          "duration": 0.5799999999999947
        },
        {
          "name": "C4",
          "midi": 60,
          "time": 22.82500000000003,
          "velocity": 0.6771653543307087,
          "duration": 0.2799999999999976
        },
        {
          "name": "C4",
          "midi": 60,
          "time": 23.10500000000003,
          "velocity": 0.6771653543307087,
          "duration": 0.28000000000000114
        },
        {
          "name": "G3",
          "midi": 55,
          "time": 23.11500000000003,
          "velocity": 0.5984251968503937,
          "duration": 0.2849999999999966
        },
        {
          "name": "F2",
          "midi": 41,
          "time": 23.400000000000027,
          "velocity": 0.5984251968503937,
          "duration": 0.5800000000000054
        },
        {
          "name": "F4",
          "midi": 65,
          "time": 23.41000000000003,
          "velocity": 0.5354330708661418,
          "duration": 0.5800000000000018
        },
        {
          "name": "G3",
          "midi": 55,
          "time": 23.41000000000003,
          "velocity": 0.5984251968503937,
          "duration": 0.28500000000000014
        },
        {
          "name": "C3",
          "midi": 48,
          "time": 23.41000000000003,
          "velocity": 0.5984251968503937,
          "duration": 0.5800000000000018
        },
        {
          "name": "G4",
          "midi": 67,
          "time": 23.41000000000003,
          "velocity": 0.6771653543307087,
          "duration": 0.5800000000000018
        },
        {
          "name": "F3",
          "midi": 53,
          "time": 23.415000000000028,
          "velocity": 0.6771653543307087,
          "duration": 0.5800000000000018
        },
        {
          "name": "C4",
          "midi": 60,
          "time": 23.42500000000003,
          "velocity": 0.5984251968503937,
          "duration": 0.28000000000000114
        },
        {
          "name": "C4",
          "midi": 60,
          "time": 23.70500000000003,
          "velocity": 0.5984251968503937,
          "duration": 0.28000000000000114
        },
        {
          "name": "G3",
          "midi": 55,
          "time": 23.715000000000032,
          "velocity": 0.5984251968503937,
          "duration": 0.2749999999999986
        },
        {
          "name": "D4",
          "midi": 62,
          "time": 23.99500000000003,
          "velocity": 0.6771653543307087,
          "duration": 0.5800000000000054
        },
        {
          "name": "A4",
          "midi": 69,
          "time": 24.00500000000003,
          "velocity": 0.6771653543307087,
          "duration": 0.5800000000000054
        },
        {
          "name": "A3",
          "midi": 57,
          "time": 24.00500000000003,
          "velocity": 0.6771653543307087,
          "duration": 0.2900000000000027
        },
        {
          "name": "D3",
          "midi": 50,
          "time": 24.015000000000033,
          "velocity": 0.6771653543307087,
          "duration": 0.5800000000000054
        },
        {
          "name": "C4",
          "midi": 60,
          "time": 24.015000000000033,
          "velocity": 0.6771653543307087,
          "duration": 0.5800000000000054
        },
        {
          "name": "A3",
          "midi": 57,
          "time": 24.315000000000033,
          "velocity": 0.5748031496062992,
          "duration": 0.29000000000000625
        },
        {
          "name": "A3",
          "midi": 57,
          "time": 24.595000000000038,
          "velocity": 0.5984251968503937,
          "duration": 0.28999999999999915
        },
        {
          "name": "D3",
          "midi": 50,
          "time": 24.595000000000038,
          "velocity": 0.5984251968503937,
          "duration": 0.5799999999999983
        },
        {
          "name": "A4",
          "midi": 69,
          "time": 24.60500000000004,
          "velocity": 0.6771653543307087,
          "duration": 0.5799999999999983
        },
        {
          "name": "C4",
          "midi": 60,
          "time": 24.60500000000004,
          "velocity": 0.5984251968503937,
          "duration": 0.5799999999999983
        },
        {
          "name": "D4",
          "midi": 62,
          "time": 24.61000000000004,
          "velocity": 0.5984251968503937,
          "duration": 0.5799999999999983
        },
        {
          "name": "A3",
          "midi": 57,
          "time": 24.905000000000037,
          "velocity": 0.6299212598425197,
          "duration": 0.28999999999999915
        },
        {
          "name": "A4",
          "midi": 69,
          "time": 25.205000000000037,
          "velocity": 0.6771653543307087,
          "duration": 0.5799999999999983
        },
        {
          "name": "A3",
          "midi": 57,
          "time": 25.210000000000036,
          "velocity": 0.6771653543307087,
          "duration": 0.28999999999999915
        },
        {
          "name": "D3",
          "midi": 50,
          "time": 25.210000000000036,
          "velocity": 0.6771653543307087,
          "duration": 0.5799999999999983
        },
        {
          "name": "D4",
          "midi": 62,
          "time": 25.215000000000035,
          "velocity": 0.6771653543307087,
          "duration": 0.5799999999999983
        },
        {
          "name": "C4",
          "midi": 60,
          "time": 25.215000000000035,
          "velocity": 0.6771653543307087,
          "duration": 0.5799999999999983
        },
        {
          "name": "A3",
          "midi": 57,
          "time": 25.500000000000036,
          "velocity": 0.5748031496062992,
          "duration": 0.28999999999999915
        },
        {
          "name": "D3",
          "midi": 50,
          "time": 25.795000000000034,
          "velocity": 0.5984251968503937,
          "duration": 0.5799999999999983
        },
        {
          "name": "A4",
          "midi": 69,
          "time": 25.805000000000035,
          "velocity": 0.6771653543307087,
          "duration": 0.5799999999999983
        },
        {
          "name": "A3",
          "midi": 57,
          "time": 25.810000000000034,
          "velocity": 0.5984251968503937,
          "duration": 0.28999999999999915
        },
        {
          "name": "D4",
          "midi": 62,
          "time": 25.815000000000033,
          "velocity": 0.5984251968503937,
          "duration": 0.5800000000000018
        },
        {
          "name": "C4",
          "midi": 60,
          "time": 25.815000000000033,
          "velocity": 0.5984251968503937,
          "duration": 0.5800000000000018
        },
        {
          "name": "A3",
          "midi": 57,
          "time": 26.105000000000032,
          "velocity": 0.6299212598425197,
          "duration": 0.2900000000000027
        },
        {
          "name": "D4",
          "midi": 62,
          "time": 26.400000000000034,
          "velocity": 0.6771653543307087,
          "duration": 0.5800000000000018
        },
        {
          "name": "A#4",
          "midi": 70,
          "time": 26.410000000000036,
          "velocity": 0.6771653543307087,
          "duration": 0.5799999999999983
        },
        {
          "name": "A#2",
          "midi": 46,
          "time": 26.410000000000036,
          "velocity": 0.6771653543307087,
          "duration": 0.5799999999999983
        },
        {
          "name": "A#3",
          "midi": 58,
          "time": 26.410000000000036,
          "velocity": 0.6771653543307087,
          "duration": 0.28999999999999915
        },
        {
          "name": "F3",
          "midi": 53,
          "time": 26.415000000000035,
          "velocity": 0.6771653543307087,
          "duration": 0.28000000000000114
        },
        {
          "name": "F3",
          "midi": 53,
          "time": 26.705000000000034,
          "velocity": 0.5196850393700787,
          "duration": 0.28000000000000114
        },
        {
          "name": "A#3",
          "midi": 58,
          "time": 26.720000000000034,
          "velocity": 0.5748031496062992,
          "duration": 0.28999999999999915
        },
        {
          "name": "A#2",
          "midi": 46,
          "time": 26.990000000000034,
          "velocity": 0.5984251968503937,
          "duration": 0.5799999999999983
        },
        {
          "name": "A#3",
          "midi": 58,
          "time": 27.000000000000036,
          "velocity": 0.5984251968503937,
          "duration": 0.2899999999999956
        },
        {
          "name": "F3",
          "midi": 53,
          "time": 27.005000000000035,
          "velocity": 0.5984251968503937,
          "duration": 0.5799999999999983
        },
        {
          "name": "A#4",
          "midi": 70,
          "time": 27.010000000000034,
          "velocity": 0.6771653543307087,
          "duration": 0.5799999999999983
        },
        {
          "name": "D4",
          "midi": 62,
          "time": 27.015000000000033,
          "velocity": 0.5984251968503937,
          "duration": 0.5799999999999983
        },
        {
          "name": "A#3",
          "midi": 58,
          "time": 27.31000000000003,
          "velocity": 0.6299212598425197,
          "duration": 0.28999999999999915
        },
        {
          "name": "A#2",
          "midi": 46,
          "time": 27.60500000000003,
          "velocity": 0.6771653543307087,
          "duration": 0.5799999999999947
        },
        {
          "name": "A#4",
          "midi": 70,
          "time": 27.610000000000028,
          "velocity": 0.6771653543307087,
          "duration": 0.5799999999999947
        },
        {
          "name": "A#3",
          "midi": 58,
          "time": 27.615000000000027,
          "velocity": 0.6771653543307087,
          "duration": 0.28999999999999915
        },
        {
          "name": "F3",
          "midi": 53,
          "time": 27.615000000000027,
          "velocity": 0.6771653543307087,
          "duration": 0.2749999999999986
        },
        {
          "name": "D4",
          "midi": 62,
          "time": 27.620000000000026,
          "velocity": 0.6771653543307087,
          "duration": 0.5799999999999947
        },
        {
          "name": "A#3",
          "midi": 58,
          "time": 27.905000000000026,
          "velocity": 0.5748031496062992,
          "duration": 0.2899999999999956
        },
        {
          "name": "F3",
          "midi": 53,
          "time": 27.905000000000026,
          "velocity": 0.5196850393700787,
          "duration": 0.2749999999999986
        },
        {
          "name": "A#2",
          "midi": 46,
          "time": 28.190000000000023,
          "velocity": 0.5984251968503937,
          "duration": 0.5799999999999983
        },
        {
          "name": "A#4",
          "midi": 70,
          "time": 28.210000000000022,
          "velocity": 0.6771653543307087,
          "duration": 0.5799999999999983
        },
        {
          "name": "F3",
          "midi": 53,
          "time": 28.21500000000002,
          "velocity": 0.5984251968503937,
          "duration": 0.5799999999999983
        },
        {
          "name": "A#3",
          "midi": 58,
          "time": 28.21500000000002,
          "velocity": 0.5984251968503937,
          "duration": 0.28999999999999915
        },
        {
          "name": "D4",
          "midi": 62,
          "time": 28.22000000000002,
          "velocity": 0.5984251968503937,
          "duration": 0.5799999999999983
        },
        {
          "name": "C4",
          "midi": 60,
          "time": 28.51000000000002,
          "velocity": 0.8267716535433071,
          "duration": 0.28999999999999915
        },
        {
          "name": "A4",
          "midi": 69,
          "time": 28.805000000000017,
          "velocity": 0.6771653543307087,
          "duration": 0.5800000000000018
        },
        {
          "name": "A3",
          "midi": 57,
          "time": 28.805000000000017,
          "velocity": 0.6771653543307087,
          "duration": 0.28999999999999915
        },
        {
          "name": "F3",
          "midi": 53,
          "time": 28.810000000000016,
          "velocity": 0.6771653543307087,
          "duration": 0.30500000000000327
        },
        {
          "name": "F2",
          "midi": 41,
          "time": 28.810000000000016,
          "velocity": 0.6771653543307087,
          "duration": 0.5800000000000018
        },
        {
          "name": "F4",
          "midi": 65,
          "time": 28.810000000000016,
          "velocity": 0.48031496062992124,
          "duration": 0.5800000000000018
        },
        {
          "name": "C4",
          "midi": 60,
          "time": 28.815000000000015,
          "velocity": 0.6771653543307087,
          "duration": 0.5800000000000018
        },
        {
          "name": "F3",
          "midi": 53,
          "time": 29.105000000000018,
          "velocity": 0.6771653543307087,
          "duration": 0.30499999999999616
        },
        {
          "name": "A3",
          "midi": 57,
          "time": 29.11500000000002,
          "velocity": 0.5748031496062992,
          "duration": 0.2899999999999956
        },
        {
          "name": "F2",
          "midi": 41,
          "time": 29.39000000000002,
          "velocity": 0.5984251968503937,
          "duration": 0.5799999999999947
        },
        {
          "name": "A3",
          "midi": 57,
          "time": 29.395000000000017,
          "velocity": 0.5984251968503937,
          "duration": 0.2899999999999956
        },
        {
          "name": "F4",
          "midi": 65,
          "time": 29.400000000000016,
          "velocity": 0.4251968503937008,
          "duration": 0.5799999999999983
        },
        {
          "name": "C4",
          "midi": 60,
          "time": 29.405000000000015,
          "velocity": 0.5984251968503937,
          "duration": 0.5799999999999983
        },
        {
          "name": "A4",
          "midi": 69,
          "time": 29.405000000000015,
          "velocity": 0.6771653543307087,
          "duration": 0.5799999999999983
        },
        {
          "name": "F3",
          "midi": 53,
          "time": 29.405000000000015,
          "velocity": 0.5984251968503937,
          "duration": 0.29999999999999716
        },
        {
          "name": "F3",
          "midi": 53,
          "time": 29.705000000000013,
          "velocity": 0.5984251968503937,
          "duration": 0.30000000000000426
        },
        {
          "name": "A3",
          "midi": 57,
          "time": 29.705000000000013,
          "velocity": 0.6299212598425197,
          "duration": 0.2900000000000027
        },
        {
          "name": "F2",
          "midi": 41,
          "time": 30.005000000000017,
          "velocity": 0.6771653543307087,
          "duration": 0.5799999999999983
        },
        {
          "name": "A4",
          "midi": 69,
          "time": 30.005000000000017,
          "velocity": 0.6771653543307087,
          "duration": 0.5799999999999983
        },
        {
          "name": "F3",
          "midi": 53,
          "time": 30.005000000000017,
          "velocity": 0.6771653543307087,
          "duration": 0.29999999999999716
        },
        {
          "name": "F4",
          "midi": 65,
          "time": 30.010000000000016,
          "velocity": 0.48031496062992124,
          "duration": 0.5799999999999983
        },
        {
          "name": "A3",
          "midi": 57,
          "time": 30.010000000000016,
          "velocity": 0.6771653543307087,
          "duration": 0.28999999999999915
        },
        {
          "name": "C4",
          "midi": 60,
          "time": 30.015000000000015,
          "velocity": 0.6771653543307087,
          "duration": 0.5799999999999983
        },
        {
          "name": "A3",
          "midi": 57,
          "time": 30.300000000000015,
          "velocity": 0.5748031496062992,
          "duration": 0.28999999999999915
        },
        {
          "name": "F3",
          "midi": 53,
          "time": 30.305000000000014,
          "velocity": 0.5984251968503937,
          "duration": 0.3000000000000007
        },
        {
          "name": "F2",
          "midi": 41,
          "time": 30.590000000000014,
          "velocity": 0.5984251968503937,
          "duration": 0.5799999999999983
        },
        {
          "name": "A4",
          "midi": 69,
          "time": 30.605000000000015,
          "velocity": 0.6771653543307087,
          "duration": 0.5799999999999983
        },
        {
          "name": "F3",
          "midi": 53,
          "time": 30.605000000000015,
          "velocity": 0.5984251968503937,
          "duration": 0.29999999999999716
        },
        {
          "name": "A3",
          "midi": 57,
          "time": 30.610000000000014,
          "velocity": 0.5984251968503937,
          "duration": 0.28999999999999915
        },
        {
          "name": "F4",
          "midi": 65,
          "time": 30.610000000000014,
          "velocity": 0.4251968503937008,
          "duration": 0.5799999999999983
        },
        {
          "name": "C4",
          "midi": 60,
          "time": 30.615000000000013,
          "velocity": 0.5984251968503937,
          "duration": 0.5799999999999983
        },
        {
          "name": "F3",
          "midi": 53,
          "time": 30.905000000000012,
          "velocity": 0.5984251968503937,
          "duration": 0.29999999999999716
        },
        {
          "name": "A3",
          "midi": 57,
          "time": 30.905000000000012,
          "velocity": 0.6299212598425197,
          "duration": 0.28999999999999915
        },
        {
          "name": "F4",
          "midi": 65,
          "time": 31.20000000000001,
          "velocity": 0.5354330708661418,
          "duration": 0.5799999999999947
        },
        {
          "name": "G3",
          "midi": 55,
          "time": 31.20500000000001,
          "velocity": 0.6771653543307087,
          "duration": 0.30499999999999616
        },
        {
          "name": "G4",
          "midi": 67,
          "time": 31.210000000000008,
          "velocity": 0.6771653543307087,
          "duration": 0.5799999999999983
        },
        {
          "name": "C3",
          "midi": 48,
          "time": 31.210000000000008,
          "velocity": 0.6771653543307087,
          "duration": 0.5799999999999983
        },
        {
          "name": "F3",
          "midi": 53,
          "time": 31.215000000000007,
          "velocity": 0.6771653543307087,
          "duration": 0.5799999999999983
        },
        {
          "name": "F2",
          "midi": 41,
          "time": 31.220000000000006,
          "velocity": 0.6771653543307087,
          "duration": 0.5799999999999983
        },
        {
          "name": "C4",
          "midi": 60,
          "time": 31.225000000000005,
          "velocity": 0.6771653543307087,
          "duration": 0.28000000000000114
        },
        {
          "name": "G3",
          "midi": 55,
          "time": 31.515000000000004,
          "velocity": 0.6771653543307087,
          "duration": 0.30499999999999616
        },
        {
          "name": "C4",
          "midi": 60,
          "time": 31.515000000000004,
          "velocity": 0.6771653543307087,
          "duration": 0.28000000000000114
        },
        {
          "name": "F2",
          "midi": 41,
          "time": 31.800000000000004,
          "velocity": 0.5984251968503937,
          "duration": 0.5799999999999912
        },
        {
          "name": "C3",
          "midi": 48,
          "time": 31.800000000000004,
          "velocity": 0.5984251968503937,
          "duration": 0.5799999999999912
        },
        {
          "name": "F4",
          "midi": 65,
          "time": 31.805000000000003,
          "velocity": 0.5354330708661418,
          "duration": 0.5799999999999947
        },
        {
          "name": "G4",
          "midi": 67,
          "time": 31.810000000000002,
          "velocity": 0.6771653543307087,
          "duration": 0.5799999999999983
        },
        {
          "name": "F3",
          "midi": 53,
          "time": 31.815,
          "velocity": 0.6771653543307087,
          "duration": 0.5800000000000018
        },
        {
          "name": "C4",
          "midi": 60,
          "time": 31.815,
          "velocity": 0.5984251968503937,
          "duration": 0.2899999999999956
        },
        {
          "name": "G3",
          "midi": 55,
          "time": 31.825,
          "velocity": 0.6771653543307087,
          "duration": 0.30499999999999616
        },
        {
          "name": "C4",
          "midi": 60,
          "time": 32.105,
          "velocity": 0.5984251968503937,
          "duration": 0.29000000000000625
        },
        {
          "name": "G3",
          "midi": 55,
          "time": 32.114999999999995,
          "velocity": 0.5984251968503937,
          "duration": 0.28000000000000824
        },
        {
          "name": "F4",
          "midi": 65,
          "time": 32.410000000000004,
          "velocity": 0.5354330708661418,
          "duration": 0.5800000000000125
        },
        {
          "name": "C3",
          "midi": 48,
          "time": 32.410000000000004,
          "velocity": 0.6771653543307087,
          "duration": 0.5800000000000125
        },
        {
          "name": "G4",
          "midi": 67,
          "time": 32.410000000000004,
          "velocity": 0.6771653543307087,
          "duration": 0.5800000000000125
        },
        {
          "name": "F2",
          "midi": 41,
          "time": 32.415000000000006,
          "velocity": 0.6771653543307087,
          "duration": 0.5800000000000125
        },
        {
          "name": "G3",
          "midi": 55,
          "time": 32.42000000000001,
          "velocity": 0.5984251968503937,
          "duration": 0.28000000000000114
        },
        {
          "name": "F3",
          "midi": 53,
          "time": 32.42000000000001,
          "velocity": 0.6771653543307087,
          "duration": 0.5800000000000125
        },
        {
          "name": "C4",
          "midi": 60,
          "time": 32.42500000000001,
          "velocity": 0.6771653543307087,
          "duration": 0.28000000000000114
        },
        {
          "name": "C4",
          "midi": 60,
          "time": 32.70500000000001,
          "velocity": 0.6771653543307087,
          "duration": 0.28000000000000114
        },
        {
          "name": "G3",
          "midi": 55,
          "time": 32.71500000000001,
          "velocity": 0.5984251968503937,
          "duration": 0.2850000000000108
        },
        {
          "name": "F2",
          "midi": 41,
          "time": 33.00000000000002,
          "velocity": 0.5984251968503937,
          "duration": 0.5799999999999983
        },
        {
          "name": "F4",
          "midi": 65,
          "time": 33.01000000000002,
          "velocity": 0.5354330708661418,
          "duration": 0.5800000000000054
        },
        {
          "name": "G3",
          "midi": 55,
          "time": 33.01000000000002,
          "velocity": 0.5984251968503937,
          "duration": 0.2850000000000037
        },
        {
          "name": "C3",
          "midi": 48,
          "time": 33.01000000000002,
          "velocity": 0.5984251968503937,
          "duration": 0.5800000000000054
        },
        {
          "name": "G4",
          "midi": 67,
          "time": 33.01000000000002,
          "velocity": 0.6771653543307087,
          "duration": 0.5800000000000054
        },
        {
          "name": "F3",
          "midi": 53,
          "time": 33.01500000000002,
          "velocity": 0.6771653543307087,
          "duration": 0.5800000000000054
        },
        {
          "name": "C4",
          "midi": 60,
          "time": 33.02500000000002,
          "velocity": 0.5984251968503937,
          "duration": 0.28000000000000114
        },
        {
          "name": "C4",
          "midi": 60,
          "time": 33.30500000000002,
          "velocity": 0.5984251968503937,
          "duration": 0.28000000000000114
        },
        {
          "name": "G3",
          "midi": 55,
          "time": 33.31500000000002,
          "velocity": 0.5984251968503937,
          "duration": 0.30000000000000426
        },
        {
          "name": "D4",
          "midi": 62,
          "time": 33.59500000000003,
          "velocity": 0.6771653543307087,
          "duration": 0.5799999999999983
        },
        {
          "name": "A4",
          "midi": 69,
          "time": 33.605000000000025,
          "velocity": 0.6771653543307087,
          "duration": 0.5799999999999983
        },
        {
          "name": "A3",
          "midi": 57,
          "time": 33.605000000000025,
          "velocity": 0.6771653543307087,
          "duration": 0.28999999999999915
        },
        {
          "name": "D3",
          "midi": 50,
          "time": 33.61500000000002,
          "velocity": 0.6771653543307087,
          "duration": 0.5799999999999983
        },
        {
          "name": "C4",
          "midi": 60,
          "time": 33.61500000000002,
          "velocity": 0.6771653543307087,
          "duration": 0.5799999999999983
        },
        {
          "name": "A3",
          "midi": 57,
          "time": 33.91500000000003,
          "velocity": 0.5748031496062992,
          "duration": 0.28999999999999204
        },
        {
          "name": "A3",
          "midi": 57,
          "time": 34.19500000000002,
          "velocity": 0.5984251968503937,
          "duration": 0.28999999999999915
        },
        {
          "name": "D3",
          "midi": 50,
          "time": 34.19500000000002,
          "velocity": 0.5984251968503937,
          "duration": 0.5800000000000054
        },
        {
          "name": "A4",
          "midi": 69,
          "time": 34.20500000000002,
          "velocity": 0.6771653543307087,
          "duration": 0.5800000000000054
        },
        {
          "name": "C4",
          "midi": 60,
          "time": 34.20500000000002,
          "velocity": 0.5984251968503937,
          "duration": 0.5800000000000054
        },
        {
          "name": "D4",
          "midi": 62,
          "time": 34.21000000000002,
          "velocity": 0.5984251968503937,
          "duration": 0.5800000000000054
        },
        {
          "name": "A3",
          "midi": 57,
          "time": 34.505000000000024,
          "velocity": 0.6299212598425197,
          "duration": 0.29000000000000625
        },
        {
          "name": "A4",
          "midi": 69,
          "time": 34.80500000000003,
          "velocity": 0.6771653543307087,
          "duration": 0.5799999999999983
        },
        {
          "name": "A3",
          "midi": 57,
          "time": 34.81000000000003,
          "velocity": 0.6771653543307087,
          "duration": 0.28999999999999915
        },
        {
          "name": "D3",
          "midi": 50,
          "time": 34.81000000000003,
          "velocity": 0.6771653543307087,
          "duration": 0.5799999999999983
        },
        {
          "name": "D4",
          "midi": 62,
          "time": 34.81500000000003,
          "velocity": 0.6771653543307087,
          "duration": 0.5799999999999983
        },
        {
          "name": "C4",
          "midi": 60,
          "time": 34.81500000000003,
          "velocity": 0.6771653543307087,
          "duration": 0.5799999999999983
        },
        {
          "name": "A3",
          "midi": 57,
          "time": 35.10000000000003,
          "velocity": 0.5748031496062992,
          "duration": 0.28999999999999915
        },
        {
          "name": "D3",
          "midi": 50,
          "time": 35.39500000000003,
          "velocity": 0.5984251968503937,
          "duration": 0.5800000000000054
        },
        {
          "name": "A4",
          "midi": 69,
          "time": 35.40500000000003,
          "velocity": 0.6771653543307087,
          "duration": 0.5800000000000054
        },
        {
          "name": "A3",
          "midi": 57,
          "time": 35.41000000000003,
          "velocity": 0.5984251968503937,
          "duration": 0.28999999999999915
        },
        {
          "name": "D4",
          "midi": 62,
          "time": 35.415000000000035,
          "velocity": 0.5984251968503937,
          "duration": 0.5799999999999983
        },
        {
          "name": "C4",
          "midi": 60,
          "time": 35.415000000000035,
          "velocity": 0.5984251968503937,
          "duration": 0.5799999999999983
        },
        {
          "name": "A3",
          "midi": 57,
          "time": 35.705000000000034,
          "velocity": 0.6299212598425197,
          "duration": 0.28999999999999915
        },
        {
          "name": "D4",
          "midi": 62,
          "time": 36.000000000000036,
          "velocity": 0.6771653543307087,
          "duration": 0.5800000000000054
        },
        {
          "name": "A#4",
          "midi": 70,
          "time": 36.01000000000003,
          "velocity": 0.6771653543307087,
          "duration": 0.5800000000000125
        },
        {
          "name": "A#2",
          "midi": 46,
          "time": 36.01000000000003,
          "velocity": 0.6771653543307087,
          "duration": 0.5800000000000125
        },
        {
          "name": "A#3",
          "midi": 58,
          "time": 36.01000000000003,
          "velocity": 0.6771653543307087,
          "duration": 0.29000000000000625
        },
        {
          "name": "F3",
          "midi": 53,
          "time": 36.015000000000036,
          "velocity": 0.6771653543307087,
          "duration": 0.28000000000000114
        },
        {
          "name": "F3",
          "midi": 53,
          "time": 36.30500000000004,
          "velocity": 0.5196850393700787,
          "duration": 0.28000000000000114
        },
        {
          "name": "A#3",
          "midi": 58,
          "time": 36.32000000000004,
          "velocity": 0.5748031496062992,
          "duration": 0.29000000000000625
        },
        {
          "name": "A#2",
          "midi": 46,
          "time": 36.590000000000046,
          "velocity": 0.5984251968503937,
          "duration": 0.5800000000000054
        },
        {
          "name": "A#3",
          "midi": 58,
          "time": 36.600000000000044,
          "velocity": 0.5984251968503937,
          "duration": 0.29000000000000625
        },
        {
          "name": "F3",
          "midi": 53,
          "time": 36.60500000000005,
          "velocity": 0.5984251968503937,
          "duration": 0.5800000000000054
        },
        {
          "name": "A#4",
          "midi": 70,
          "time": 36.61000000000005,
          "velocity": 0.6771653543307087,
          "duration": 0.5800000000000054
        },
        {
          "name": "D4",
          "midi": 62,
          "time": 36.61500000000005,
          "velocity": 0.5984251968503937,
          "duration": 0.5800000000000054
        },
        {
          "name": "A#3",
          "midi": 58,
          "time": 36.91000000000005,
          "velocity": 0.6299212598425197,
          "duration": 0.29000000000000625
        },
        {
          "name": "A#2",
          "midi": 46,
          "time": 37.20500000000006,
          "velocity": 0.6771653543307087,
          "duration": 0.5800000000000125
        },
        {
          "name": "A#4",
          "midi": 70,
          "time": 37.210000000000065,
          "velocity": 0.6771653543307087,
          "duration": 0.5800000000000125
        },
        {
          "name": "A#3",
          "midi": 58,
          "time": 37.21500000000007,
          "velocity": 0.6771653543307087,
          "duration": 0.29000000000000625
        },
        {
          "name": "F3",
          "midi": 53,
          "time": 37.21500000000007,
          "velocity": 0.6771653543307087,
          "duration": 0.2750000000000057
        },
        {
          "name": "D4",
          "midi": 62,
          "time": 37.22000000000007,
          "velocity": 0.6771653543307087,
          "duration": 0.5800000000000125
        },
        {
          "name": "A#3",
          "midi": 58,
          "time": 37.505000000000074,
          "velocity": 0.5748031496062992,
          "duration": 0.29000000000000625
        },
        {
          "name": "F3",
          "midi": 53,
          "time": 37.505000000000074,
          "velocity": 0.5196850393700787,
          "duration": 0.2749999999999986
        },
        {
          "name": "A#2",
          "midi": 46,
          "time": 37.79000000000008,
          "velocity": 0.5984251968503937,
          "duration": 0.5800000000000054
        },
        {
          "name": "A#4",
          "midi": 70,
          "time": 37.81000000000008,
          "velocity": 0.6771653543307087,
          "duration": 0.5800000000000054
        },
        {
          "name": "F3",
          "midi": 53,
          "time": 37.81500000000008,
          "velocity": 0.5984251968503937,
          "duration": 0.5800000000000054
        },
        {
          "name": "A#3",
          "midi": 58,
          "time": 37.81500000000008,
          "velocity": 0.5984251968503937,
          "duration": 0.28999999999999915
        },
        {
          "name": "D4",
          "midi": 62,
          "time": 37.820000000000086,
          "velocity": 0.5984251968503937,
          "duration": 0.5800000000000054
        },
        {
          "name": "C4",
          "midi": 60,
          "time": 38.110000000000085,
          "velocity": 0.8267716535433071,
          "duration": 0.29000000000000625
        },
        {
          "name": "A4",
          "midi": 69,
          "time": 38.40500000000009,
          "velocity": 0.6771653543307087,
          "duration": 0.5800000000000054
        },
        {
          "name": "A3",
          "midi": 57,
          "time": 38.40500000000009,
          "velocity": 0.6771653543307087,
          "duration": 0.29000000000000625
        },
        {
          "name": "F3",
          "midi": 53,
          "time": 38.410000000000096,
          "velocity": 0.6771653543307087,
          "duration": 0.3049999999999997
        },
        {
          "name": "F2",
          "midi": 41,
          "time": 38.410000000000096,
          "velocity": 0.6771653543307087,
          "duration": 0.5800000000000054
        },
        {
          "name": "F4",
          "midi": 65,
          "time": 38.410000000000096,
          "velocity": 0.48031496062992124,
          "duration": 0.5800000000000054
        },
        {
          "name": "C4",
          "midi": 60,
          "time": 38.4150000000001,
          "velocity": 0.6771653543307087,
          "duration": 0.5800000000000054
        },
        {
          "name": "F3",
          "midi": 53,
          "time": 38.7050000000001,
          "velocity": 0.6771653543307087,
          "duration": 0.3050000000000139
        },
        {
          "name": "A3",
          "midi": 57,
          "time": 38.715000000000096,
          "velocity": 0.5748031496062992,
          "duration": 0.29000000000001336
        },
        {
          "name": "F2",
          "midi": 41,
          "time": 38.9900000000001,
          "velocity": 0.5984251968503937,
          "duration": 0.5800000000000125
        },
        {
          "name": "A3",
          "midi": 57,
          "time": 38.995000000000104,
          "velocity": 0.5984251968503937,
          "duration": 0.29000000000000625
        },
        {
          "name": "F4",
          "midi": 65,
          "time": 39.00000000000011,
          "velocity": 0.4251968503937008,
          "duration": 0.5800000000000054
        },
        {
          "name": "C4",
          "midi": 60,
          "time": 39.00500000000011,
          "velocity": 0.5984251968503937,
          "duration": 0.5800000000000054
        },
        {
          "name": "A4",
          "midi": 69,
          "time": 39.00500000000011,
          "velocity": 0.6771653543307087,
          "duration": 0.5800000000000054
        },
        {
          "name": "F3",
          "midi": 53,
          "time": 39.00500000000011,
          "velocity": 0.5984251968503937,
          "duration": 0.30000000000000426
        },
        {
          "name": "F3",
          "midi": 53,
          "time": 39.30500000000011,
          "velocity": 0.5984251968503937,
          "duration": 0.29999999999999716
        },
        {
          "name": "A3",
          "midi": 57,
          "time": 39.30500000000011,
          "velocity": 0.6299212598425197,
          "duration": 0.28999999999999915
        },
        {
          "name": "F2",
          "midi": 41,
          "time": 39.60500000000011,
          "velocity": 0.6771653543307087,
          "duration": 0.5800000000000054
        },
        {
          "name": "A4",
          "midi": 69,
          "time": 39.60500000000011,
          "velocity": 0.6771653543307087,
          "duration": 0.5800000000000054
        },
        {
          "name": "F3",
          "midi": 53,
          "time": 39.60500000000011,
          "velocity": 0.6771653543307087,
          "duration": 0.30000000000000426
        },
        {
          "name": "F4",
          "midi": 65,
          "time": 39.61000000000011,
          "velocity": 0.48031496062992124,
          "duration": 0.5800000000000054
        },
        {
          "name": "A3",
          "midi": 57,
          "time": 39.61000000000011,
          "velocity": 0.6771653543307087,
          "duration": 0.28999999999999915
        },
        {
          "name": "C4",
          "midi": 60,
          "time": 39.615000000000116,
          "velocity": 0.6771653543307087,
          "duration": 0.5800000000000054
        },
        {
          "name": "A3",
          "midi": 57,
          "time": 39.90000000000011,
          "velocity": 0.5748031496062992,
          "duration": 0.29000000000000625
        },
        {
          "name": "F3",
          "midi": 53,
          "time": 39.905000000000115,
          "velocity": 0.5984251968503937,
          "duration": 0.30000000000000426
        },
        {
          "name": "F2",
          "midi": 41,
          "time": 40.19000000000012,
          "velocity": 0.5984251968503937,
          "duration": 0.5800000000000054
        },
        {
          "name": "A4",
          "midi": 69,
          "time": 40.20500000000012,
          "velocity": 0.6771653543307087,
          "duration": 0.5800000000000054
        },
        {
          "name": "F3",
          "midi": 53,
          "time": 40.20500000000012,
          "velocity": 0.5984251968503937,
          "duration": 0.30000000000000426
        },
        {
          "name": "A3",
          "midi": 57,
          "time": 40.21000000000012,
          "velocity": 0.5984251968503937,
          "duration": 0.28999999999999915
        },
        {
          "name": "F4",
          "midi": 65,
          "time": 40.21000000000012,
          "velocity": 0.4251968503937008,
          "duration": 0.5800000000000054
        },
        {
          "name": "C4",
          "midi": 60,
          "time": 40.215000000000124,
          "velocity": 0.5984251968503937,
          "duration": 0.5800000000000054
        },
        {
          "name": "F3",
          "midi": 53,
          "time": 40.50500000000012,
          "velocity": 0.5984251968503937,
          "duration": 0.30000000000001137
        },
        {
          "name": "A3",
          "midi": 57,
          "time": 40.50500000000012,
          "velocity": 0.6299212598425197,
          "duration": 0.29000000000000625
        },
        {
          "name": "F4",
          "midi": 65,
          "time": 40.80000000000013,
          "velocity": 0.5354330708661418,
          "duration": 0.5800000000000196
        },
        {
          "name": "G3",
          "midi": 55,
          "time": 40.805000000000135,
          "velocity": 0.6771653543307087,
          "duration": 0.3050000000000139
        },
        {
          "name": "G4",
          "midi": 67,
          "time": 40.81000000000014,
          "velocity": 0.6771653543307087,
          "duration": 0.5800000000000125
        },
        {
          "name": "C3",
          "midi": 48,
          "time": 40.81000000000014,
          "velocity": 0.6771653543307087,
          "duration": 0.5800000000000125
        },
        {
          "name": "F3",
          "midi": 53,
          "time": 40.81500000000014,
          "velocity": 0.6771653543307087,
          "duration": 0.5800000000000125
        },
        {
          "name": "F2",
          "midi": 41,
          "time": 40.82000000000014,
          "velocity": 0.6771653543307087,
          "duration": 0.5800000000000125
        },
        {
          "name": "C4",
          "midi": 60,
          "time": 40.825000000000145,
          "velocity": 0.6771653543307087,
          "duration": 0.28000000000000114
        },
        {
          "name": "G3",
          "midi": 55,
          "time": 41.11500000000015,
          "velocity": 0.6771653543307087,
          "duration": 0.3050000000000139
        },
        {
          "name": "C4",
          "midi": 60,
          "time": 41.11500000000015,
          "velocity": 0.6771653543307087,
          "duration": 0.28000000000000114
        },
        {
          "name": "F2",
          "midi": 41,
          "time": 41.400000000000155,
          "velocity": 0.5984251968503937,
          "duration": 0.5800000000000125
        },
        {
          "name": "C3",
          "midi": 48,
          "time": 41.400000000000155,
          "velocity": 0.5984251968503937,
          "duration": 0.5800000000000125
        },
        {
          "name": "F4",
          "midi": 65,
          "time": 41.40500000000016,
          "velocity": 0.5354330708661418,
          "duration": 0.5800000000000125
        },
        {
          "name": "G4",
          "midi": 67,
          "time": 41.41000000000016,
          "velocity": 0.6771653543307087,
          "duration": 0.5800000000000125
        },
        {
          "name": "F3",
          "midi": 53,
          "time": 41.41500000000016,
          "velocity": 0.6771653543307087,
          "duration": 0.5800000000000125
        },
        {
          "name": "C4",
          "midi": 60,
          "time": 41.41500000000016,
          "velocity": 0.5984251968503937,
          "duration": 0.29000000000000625
        },
        {
          "name": "G3",
          "midi": 55,
          "time": 41.42500000000017,
          "velocity": 0.6771653543307087,
          "duration": 0.3049999999999997
        },
        {
          "name": "C4",
          "midi": 60,
          "time": 41.70500000000017,
          "velocity": 0.5984251968503937,
          "duration": 0.29000000000000625
        },
        {
          "name": "G3",
          "midi": 55,
          "time": 41.71500000000017,
          "velocity": 0.5984251968503937,
          "duration": 0.28000000000000824
        },
        {
          "name": "F4",
          "midi": 65,
          "time": 42.010000000000176,
          "velocity": 0.5354330708661418,
          "duration": 0.5800000000000125
        },
        {
          "name": "C3",
          "midi": 48,
          "time": 42.010000000000176,
          "velocity": 0.6771653543307087,
          "duration": 0.5800000000000125
        },
        {
          "name": "G4",
          "midi": 67,
          "time": 42.010000000000176,
          "velocity": 0.6771653543307087,
          "duration": 0.5800000000000125
        },
        {
          "name": "F2",
          "midi": 41,
          "time": 42.01500000000018,
          "velocity": 0.6771653543307087,
          "duration": 0.5800000000000125
        },
        {
          "name": "G3",
          "midi": 55,
          "time": 42.02000000000018,
          "velocity": 0.5984251968503937,
          "duration": 0.28000000000000114
        },
        {
          "name": "F3",
          "midi": 53,
          "time": 42.02000000000018,
          "velocity": 0.6771653543307087,
          "duration": 0.5800000000000125
        },
        {
          "name": "C4",
          "midi": 60,
          "time": 42.02500000000018,
          "velocity": 0.6771653543307087,
          "duration": 0.28000000000000114
        },
        {
          "name": "C4",
          "midi": 60,
          "time": 42.305000000000184,
          "velocity": 0.6771653543307087,
          "duration": 0.28000000000000114
        },
        {
          "name": "G3",
          "midi": 55,
          "time": 42.31500000000018,
          "velocity": 0.5984251968503937,
          "duration": 0.2850000000000108
        },
        {
          "name": "F2",
          "midi": 41,
          "time": 42.60000000000019,
          "velocity": 0.5984251968503937,
          "duration": 0.5799999999999983
        },
        {
          "name": "F4",
          "midi": 65,
          "time": 42.61000000000019,
          "velocity": 0.5354330708661418,
          "duration": 0.5800000000000054
        },
        {
          "name": "G3",
          "midi": 55,
          "time": 42.61000000000019,
          "velocity": 0.5984251968503937,
          "duration": 0.2850000000000037
        },
        {
          "name": "C3",
          "midi": 48,
          "time": 42.61000000000019,
          "velocity": 0.5984251968503937,
          "duration": 0.5800000000000054
        },
        {
          "name": "G4",
          "midi": 67,
          "time": 42.61000000000019,
          "velocity": 0.6771653543307087,
          "duration": 0.5800000000000054
        },
        {
          "name": "F3",
          "midi": 53,
          "time": 42.615000000000194,
          "velocity": 0.6771653543307087,
          "duration": 0.5800000000000054
        },
        {
          "name": "C4",
          "midi": 60,
          "time": 42.62500000000019,
          "velocity": 0.5984251968503937,
          "duration": 0.28000000000000114
        },
        {
          "name": "C4",
          "midi": 60,
          "time": 42.90500000000019,
          "velocity": 0.5984251968503937,
          "duration": 0.28000000000000114
        },
        {
          "name": "G3",
          "midi": 55,
          "time": 42.91500000000019,
          "velocity": 0.5984251968503937,
          "duration": 0.30000000000001137
        },
        {
          "name": "D4",
          "midi": 62,
          "time": 43.1900000000002,
          "velocity": 0.6771653543307087,
          "duration": 0.5800000000000054
        },
        {
          "name": "A4",
          "midi": 69,
          "time": 43.2000000000002,
          "velocity": 0.6771653543307087,
          "duration": 0.5799999999999983
        },
        {
          "name": "A3",
          "midi": 57,
          "time": 43.2000000000002,
          "velocity": 0.6771653543307087,
          "duration": 0.28999999999999915
        },
        {
          "name": "D3",
          "midi": 50,
          "time": 43.2100000000002,
          "velocity": 0.6771653543307087,
          "duration": 0.5799999999999983
        },
        {
          "name": "C4",
          "midi": 60,
          "time": 43.2100000000002,
          "velocity": 0.6771653543307087,
          "duration": 0.5799999999999983
        },
        {
          "name": "A3",
          "midi": 57,
          "time": 43.510000000000204,
          "velocity": 0.5748031496062992,
          "duration": 0.28999999999999204
        },
        {
          "name": "A3",
          "midi": 57,
          "time": 43.7900000000002,
          "velocity": 0.5984251968503937,
          "duration": 0.28999999999999915
        },
        {
          "name": "D3",
          "midi": 50,
          "time": 43.7900000000002,
          "velocity": 0.5984251968503937,
          "duration": 0.5800000000000054
        },
        {
          "name": "A4",
          "midi": 69,
          "time": 43.800000000000196,
          "velocity": 0.6771653543307087,
          "duration": 0.5800000000000054
        },
        {
          "name": "C4",
          "midi": 60,
          "time": 43.800000000000196,
          "velocity": 0.5984251968503937,
          "duration": 0.5800000000000054
        },
        {
          "name": "D4",
          "midi": 62,
          "time": 43.8050000000002,
          "velocity": 0.5984251968503937,
          "duration": 0.5800000000000054
        },
        {
          "name": "A3",
          "midi": 57,
          "time": 44.1000000000002,
          "velocity": 0.6299212598425197,
          "duration": 0.29000000000000625
        },
        {
          "name": "A4",
          "midi": 69,
          "time": 44.400000000000205,
          "velocity": 0.6771653543307087,
          "duration": 0.5799999999999983
        },
        {
          "name": "A3",
          "midi": 57,
          "time": 44.40500000000021,
          "velocity": 0.6771653543307087,
          "duration": 0.28999999999999915
        },
        {
          "name": "D3",
          "midi": 50,
          "time": 44.40500000000021,
          "velocity": 0.6771653543307087,
          "duration": 0.5799999999999983
        },
        {
          "name": "D4",
          "midi": 62,
          "time": 44.41000000000021,
          "velocity": 0.6771653543307087,
          "duration": 0.5799999999999983
        },
        {
          "name": "C4",
          "midi": 60,
          "time": 44.41000000000021,
          "velocity": 0.6771653543307087,
          "duration": 0.5799999999999983
        },
        {
          "name": "A3",
          "midi": 57,
          "time": 44.695000000000206,
          "velocity": 0.5748031496062992,
          "duration": 0.28999999999999915
        },
        {
          "name": "D3",
          "midi": 50,
          "time": 44.99000000000021,
          "velocity": 0.5984251968503937,
          "duration": 0.5800000000000054
        },
        {
          "name": "A4",
          "midi": 69,
          "time": 45.000000000000206,
          "velocity": 0.6771653543307087,
          "duration": 0.5800000000000054
        },
        {
          "name": "A3",
          "midi": 57,
          "time": 45.00500000000021,
          "velocity": 0.5984251968503937,
          "duration": 0.28999999999999915
        },
        {
          "name": "D4",
          "midi": 62,
          "time": 45.01000000000021,
          "velocity": 0.5984251968503937,
          "duration": 0.5799999999999983
        },
        {
          "name": "C4",
          "midi": 60,
          "time": 45.01000000000021,
          "velocity": 0.5984251968503937,
          "duration": 0.5799999999999983
        },
        {
          "name": "A3",
          "midi": 57,
          "time": 45.30000000000021,
          "velocity": 0.6299212598425197,
          "duration": 0.28999999999999915
        },
        {
          "name": "D4",
          "midi": 62,
          "time": 45.59500000000021,
          "velocity": 0.6771653543307087,
          "duration": 0.5800000000000054
        },
        {
          "name": "A#4",
          "midi": 70,
          "time": 45.60500000000021,
          "velocity": 0.6771653543307087,
          "duration": 0.5800000000000125
        },
        {
          "name": "A#2",
          "midi": 46,
          "time": 45.60500000000021,
          "velocity": 0.6771653543307087,
          "duration": 0.5800000000000125
        },
        {
          "name": "A#3",
          "midi": 58,
          "time": 45.60500000000021,
          "velocity": 0.6771653543307087,
          "duration": 0.29000000000000625
        },
        {
          "name": "F3",
          "midi": 53,
          "time": 45.61000000000021,
          "velocity": 0.6771653543307087,
          "duration": 0.28000000000000114
        },
        {
          "name": "F3",
          "midi": 53,
          "time": 45.90000000000022,
          "velocity": 0.5196850393700787,
          "duration": 0.28000000000000114
        },
        {
          "name": "A#3",
          "midi": 58,
          "time": 45.91500000000022,
          "velocity": 0.5748031496062992,
          "duration": 0.29000000000000625
        },
        {
          "name": "A#2",
          "midi": 46,
          "time": 46.18500000000022,
          "velocity": 0.5984251968503937,
          "duration": 0.5800000000000054
        },
        {
          "name": "A#3",
          "midi": 58,
          "time": 46.19500000000022,
          "velocity": 0.5984251968503937,
          "duration": 0.29000000000000625
        },
        {
          "name": "F3",
          "midi": 53,
          "time": 46.20000000000022,
          "velocity": 0.5984251968503937,
          "duration": 0.5800000000000054
        },
        {
          "name": "A#4",
          "midi": 70,
          "time": 46.205000000000226,
          "velocity": 0.6771653543307087,
          "duration": 0.5800000000000054
        },
        {
          "name": "D4",
          "midi": 62,
          "time": 46.21000000000023,
          "velocity": 0.5984251968503937,
          "duration": 0.5800000000000054
        },
        {
          "name": "A#3",
          "midi": 58,
          "time": 46.50500000000023,
          "velocity": 0.6299212598425197,
          "duration": 0.29000000000000625
        },
        {
          "name": "A#2",
          "midi": 46,
          "time": 46.80000000000024,
          "velocity": 0.6771653543307087,
          "duration": 0.5800000000000125
        },
        {
          "name": "A#4",
          "midi": 70,
          "time": 46.80500000000024,
          "velocity": 0.6771653543307087,
          "duration": 0.5800000000000125
        },
        {
          "name": "A#3",
          "midi": 58,
          "time": 46.810000000000244,
          "velocity": 0.6771653543307087,
          "duration": 0.29000000000000625
        },
        {
          "name": "F3",
          "midi": 53,
          "time": 46.810000000000244,
          "velocity": 0.6771653543307087,
          "duration": 0.2750000000000057
        },
        {
          "name": "D4",
          "midi": 62,
          "time": 46.815000000000246,
          "velocity": 0.6771653543307087,
          "duration": 0.5800000000000125
        },
        {
          "name": "A#3",
          "midi": 58,
          "time": 47.10000000000025,
          "velocity": 0.5748031496062992,
          "duration": 0.29000000000000625
        },
        {
          "name": "F3",
          "midi": 53,
          "time": 47.10000000000025,
          "velocity": 0.5196850393700787,
          "duration": 0.2749999999999986
        },
        {
          "name": "A#2",
          "midi": 46,
          "time": 47.385000000000254,
          "velocity": 0.5984251968503937,
          "duration": 0.5800000000000054
        },
        {
          "name": "A#4",
          "midi": 70,
          "time": 47.40500000000026,
          "velocity": 0.6771653543307087,
          "duration": 0.5800000000000054
        },
        {
          "name": "F3",
          "midi": 53,
          "time": 47.41000000000026,
          "velocity": 0.5984251968503937,
          "duration": 0.5800000000000054
        },
        {
          "name": "A#3",
          "midi": 58,
          "time": 47.41000000000026,
          "velocity": 0.5984251968503937,
          "duration": 0.28999999999999915
        },
        {
          "name": "D4",
          "midi": 62,
          "time": 47.41500000000026,
          "velocity": 0.5984251968503937,
          "duration": 0.5800000000000054
        },
        {
          "name": "C4",
          "midi": 60,
          "time": 47.70500000000026,
          "velocity": 0.8267716535433071,
          "duration": 0.29000000000000625
        },
        {
          "name": "A4",
          "midi": 69,
          "time": 48.00000000000027,
          "velocity": 0.6771653543307087,
          "duration": 0.5800000000000054
        },
        {
          "name": "A3",
          "midi": 57,
          "time": 48.00000000000027,
          "velocity": 0.6771653543307087,
          "duration": 0.29000000000000625
        },
        {
          "name": "F3",
          "midi": 53,
          "time": 48.00500000000027,
          "velocity": 0.6771653543307087,
          "duration": 0.3049999999999997
        },
        {
          "name": "F2",
          "midi": 41,
          "time": 48.00500000000027,
          "velocity": 0.6771653543307087,
          "duration": 0.5800000000000054
        },
        {
          "name": "F4",
          "midi": 65,
          "time": 48.00500000000027,
          "velocity": 0.48031496062992124,
          "duration": 0.5800000000000054
        },
        {
          "name": "C4",
          "midi": 60,
          "time": 48.010000000000275,
          "velocity": 0.6771653543307087,
          "duration": 0.5800000000000054
        },
        {
          "name": "F3",
          "midi": 53,
          "time": 48.300000000000274,
          "velocity": 0.6771653543307087,
          "duration": 0.3050000000000139
        },
        {
          "name": "A3",
          "midi": 57,
          "time": 48.31000000000027,
          "velocity": 0.5748031496062992,
          "duration": 0.29000000000001336
        },
        {
          "name": "F2",
          "midi": 41,
          "time": 48.58500000000028,
          "velocity": 0.5984251968503937,
          "duration": 0.5800000000000125
        },
        {
          "name": "A3",
          "midi": 57,
          "time": 48.59000000000028,
          "velocity": 0.5984251968503937,
          "duration": 0.29000000000000625
        },
        {
          "name": "F4",
          "midi": 65,
          "time": 48.59500000000028,
          "velocity": 0.4251968503937008,
          "duration": 0.5800000000000054
        },
        {
          "name": "C4",
          "midi": 60,
          "time": 48.600000000000286,
          "velocity": 0.5984251968503937,
          "duration": 0.5800000000000054
        },
        {
          "name": "A4",
          "midi": 69,
          "time": 48.600000000000286,
          "velocity": 0.6771653543307087,
          "duration": 0.5800000000000054
        },
        {
          "name": "F3",
          "midi": 53,
          "time": 48.600000000000286,
          "velocity": 0.5984251968503937,
          "duration": 0.30000000000000426
        },
        {
          "name": "F3",
          "midi": 53,
          "time": 48.90000000000029,
          "velocity": 0.5984251968503937,
          "duration": 0.29999999999999716
        },
        {
          "name": "A3",
          "midi": 57,
          "time": 48.90000000000029,
          "velocity": 0.6299212598425197,
          "duration": 0.28999999999999915
        },
        {
          "name": "F2",
          "midi": 41,
          "time": 49.20000000000029,
          "velocity": 0.6771653543307087,
          "duration": 0.5800000000000054
        },
        {
          "name": "A4",
          "midi": 69,
          "time": 49.20000000000029,
          "velocity": 0.6771653543307087,
          "duration": 0.5800000000000054
        },
        {
          "name": "F3",
          "midi": 53,
          "time": 49.20000000000029,
          "velocity": 0.6771653543307087,
          "duration": 0.30000000000000426
        },
        {
          "name": "F4",
          "midi": 65,
          "time": 49.20500000000029,
          "velocity": 0.48031496062992124,
          "duration": 0.5800000000000054
        },
        {
          "name": "A3",
          "midi": 57,
          "time": 49.20500000000029,
          "velocity": 0.6771653543307087,
          "duration": 0.28999999999999915
        },
        {
          "name": "C4",
          "midi": 60,
          "time": 49.21000000000029,
          "velocity": 0.6771653543307087,
          "duration": 0.5800000000000054
        },
        {
          "name": "A3",
          "midi": 57,
          "time": 49.49500000000029,
          "velocity": 0.5748031496062992,
          "duration": 0.29000000000000625
        },
        {
          "name": "F3",
          "midi": 53,
          "time": 49.50000000000029,
          "velocity": 0.5984251968503937,
          "duration": 0.30000000000000426
        },
        {
          "name": "F2",
          "midi": 41,
          "time": 49.785000000000295,
          "velocity": 0.5984251968503937,
          "duration": 0.5800000000000054
        },
        {
          "name": "A4",
          "midi": 69,
          "time": 49.800000000000296,
          "velocity": 0.6771653543307087,
          "duration": 0.5800000000000054
        },
        {
          "name": "F3",
          "midi": 53,
          "time": 49.800000000000296,
          "velocity": 0.5984251968503937,
          "duration": 0.30000000000000426
        },
        {
          "name": "A3",
          "midi": 57,
          "time": 49.8050000000003,
          "velocity": 0.5984251968503937,
          "duration": 0.28999999999999915
        },
        {
          "name": "F4",
          "midi": 65,
          "time": 49.8050000000003,
          "velocity": 0.4251968503937008,
          "duration": 0.5800000000000054
        },
        {
          "name": "C4",
          "midi": 60,
          "time": 49.8100000000003,
          "velocity": 0.5984251968503937,
          "duration": 0.5800000000000054
        },
        {
          "name": "F3",
          "midi": 53,
          "time": 50.1000000000003,
          "velocity": 0.5984251968503937,
          "duration": 0.30000000000001137
        },
        {
          "name": "A3",
          "midi": 57,
          "time": 50.1000000000003,
          "velocity": 0.6299212598425197,
          "duration": 0.29000000000000625
        },
        {
          "name": "F4",
          "midi": 65,
          "time": 50.39500000000031,
          "velocity": 0.5354330708661418,
          "duration": 0.5800000000000196
        },
        {
          "name": "G3",
          "midi": 55,
          "time": 50.40000000000031,
          "velocity": 0.6771653543307087,
          "duration": 0.3050000000000139
        },
        {
          "name": "G4",
          "midi": 67,
          "time": 50.405000000000314,
          "velocity": 0.6771653543307087,
          "duration": 0.5800000000000125
        },
        {
          "name": "C3",
          "midi": 48,
          "time": 50.405000000000314,
          "velocity": 0.6771653543307087,
          "duration": 0.5800000000000125
        },
        {
          "name": "F3",
          "midi": 53,
          "time": 50.410000000000316,
          "velocity": 0.6771653543307087,
          "duration": 0.5800000000000125
        },
        {
          "name": "F2",
          "midi": 41,
          "time": 50.41500000000032,
          "velocity": 0.6771653543307087,
          "duration": 0.5800000000000125
        },
        {
          "name": "C4",
          "midi": 60,
          "time": 50.42000000000032,
          "velocity": 0.6771653543307087,
          "duration": 0.28000000000000114
        },
        {
          "name": "G3",
          "midi": 55,
          "time": 50.71000000000033,
          "velocity": 0.6771653543307087,
          "duration": 0.3050000000000139
        },
        {
          "name": "C4",
          "midi": 60,
          "time": 50.71000000000033,
          "velocity": 0.6771653543307087,
          "duration": 0.28000000000000114
        },
        {
          "name": "F2",
          "midi": 41,
          "time": 50.99500000000033,
          "velocity": 0.5984251968503937,
          "duration": 0.5800000000000125
        },
        {
          "name": "C3",
          "midi": 48,
          "time": 50.99500000000033,
          "velocity": 0.5984251968503937,
          "duration": 0.5800000000000125
        },
        {
          "name": "F4",
          "midi": 65,
          "time": 51.000000000000334,
          "velocity": 0.5354330708661418,
          "duration": 0.5800000000000125
        },
        {
          "name": "G4",
          "midi": 67,
          "time": 51.00500000000034,
          "velocity": 0.6771653543307087,
          "duration": 0.5800000000000125
        },
        {
          "name": "F3",
          "midi": 53,
          "time": 51.01000000000034,
          "velocity": 0.6771653543307087,
          "duration": 0.5800000000000125
        },
        {
          "name": "C4",
          "midi": 60,
          "time": 51.01000000000034,
          "velocity": 0.5984251968503937,
          "duration": 0.29000000000000625
        },
        {
          "name": "G3",
          "midi": 55,
          "time": 51.020000000000344,
          "velocity": 0.6771653543307087,
          "duration": 0.3049999999999997
        },
        {
          "name": "C4",
          "midi": 60,
          "time": 51.300000000000345,
          "velocity": 0.5984251968503937,
          "duration": 0.29000000000000625
        },
        {
          "name": "G3",
          "midi": 55,
          "time": 51.31000000000034,
          "velocity": 0.5984251968503937,
          "duration": 0.28000000000000824
        },
        {
          "name": "F4",
          "midi": 65,
          "time": 51.60500000000035,
          "velocity": 0.5354330708661418,
          "duration": 0.5800000000000125
        },
        {
          "name": "C3",
          "midi": 48,
          "time": 51.60500000000035,
          "velocity": 0.6771653543307087,
          "duration": 0.5800000000000125
        },
        {
          "name": "G4",
          "midi": 67,
          "time": 51.60500000000035,
          "velocity": 0.6771653543307087,
          "duration": 0.5800000000000125
        },
        {
          "name": "F2",
          "midi": 41,
          "time": 51.610000000000355,
          "velocity": 0.6771653543307087,
          "duration": 0.5800000000000125
        },
        {
          "name": "G3",
          "midi": 55,
          "time": 51.61500000000036,
          "velocity": 0.5984251968503937,
          "duration": 0.28000000000000114
        },
        {
          "name": "F3",
          "midi": 53,
          "time": 51.61500000000036,
          "velocity": 0.6771653543307087,
          "duration": 0.5800000000000125
        },
        {
          "name": "C4",
          "midi": 60,
          "time": 51.62000000000036,
          "velocity": 0.6771653543307087,
          "duration": 0.28000000000000114
        },
        {
          "name": "C4",
          "midi": 60,
          "time": 51.90000000000036,
          "velocity": 0.6771653543307087,
          "duration": 0.28000000000000114
        },
        {
          "name": "G3",
          "midi": 55,
          "time": 51.91000000000036,
          "velocity": 0.5984251968503937,
          "duration": 0.2850000000000108
        },
        {
          "name": "F2",
          "midi": 41,
          "time": 52.19500000000037,
          "velocity": 0.5984251968503937,
          "duration": 0.5799999999999983
        },
        {
          "name": "F4",
          "midi": 65,
          "time": 52.20500000000037,
          "velocity": 0.5354330708661418,
          "duration": 0.5800000000000054
        },
        {
          "name": "G3",
          "midi": 55,
          "time": 52.20500000000037,
          "velocity": 0.5984251968503937,
          "duration": 0.2850000000000037
        },
        {
          "name": "C3",
          "midi": 48,
          "time": 52.20500000000037,
          "velocity": 0.5984251968503937,
          "duration": 0.5800000000000054
        },
        {
          "name": "G4",
          "midi": 67,
          "time": 52.20500000000037,
          "velocity": 0.6771653543307087,
          "duration": 0.5800000000000054
        },
        {
          "name": "F3",
          "midi": 53,
          "time": 52.21000000000037,
          "velocity": 0.6771653543307087,
          "duration": 0.5800000000000054
        },
        {
          "name": "C4",
          "midi": 60,
          "time": 52.22000000000037,
          "velocity": 0.5984251968503937,
          "duration": 0.28000000000000114
        },
        {
          "name": "C4",
          "midi": 60,
          "time": 52.50000000000037,
          "velocity": 0.5984251968503937,
          "duration": 0.28000000000000114
        },
        {
          "name": "G3",
          "midi": 55,
          "time": 52.51000000000037,
          "velocity": 0.5984251968503937,
          "duration": 0.30000000000001137
        },
        {
          "name": "D4",
          "midi": 62,
          "time": 52.78500000000037,
          "velocity": 0.6771653543307087,
          "duration": 0.5800000000000054
        },
        {
          "name": "A4",
          "midi": 69,
          "time": 52.79500000000038,
          "velocity": 0.6771653543307087,
          "duration": 0.5799999999999983
        },
        {
          "name": "A3",
          "midi": 57,
          "time": 52.79500000000038,
          "velocity": 0.6771653543307087,
          "duration": 0.28999999999999915
        },
        {
          "name": "D3",
          "midi": 50,
          "time": 52.805000000000376,
          "velocity": 0.6771653543307087,
          "duration": 0.5799999999999983
        },
        {
          "name": "C4",
          "midi": 60,
          "time": 52.805000000000376,
          "velocity": 0.6771653543307087,
          "duration": 0.5799999999999983
        },
        {
          "name": "A3",
          "midi": 57,
          "time": 53.10500000000038,
          "velocity": 0.5748031496062992,
          "duration": 0.28999999999999204
        },
        {
          "name": "A3",
          "midi": 57,
          "time": 53.385000000000375,
          "velocity": 0.5984251968503937,
          "duration": 0.28999999999999915
        },
        {
          "name": "D3",
          "midi": 50,
          "time": 53.385000000000375,
          "velocity": 0.5984251968503937,
          "duration": 0.5800000000000054
        },
        {
          "name": "A4",
          "midi": 69,
          "time": 53.39500000000037,
          "velocity": 0.6771653543307087,
          "duration": 0.5800000000000054
        },
        {
          "name": "C4",
          "midi": 60,
          "time": 53.39500000000037,
          "velocity": 0.5984251968503937,
          "duration": 0.5800000000000054
        },
        {
          "name": "D4",
          "midi": 62,
          "time": 53.400000000000375,
          "velocity": 0.5984251968503937,
          "duration": 0.5800000000000054
        },
        {
          "name": "A3",
          "midi": 57,
          "time": 53.69500000000038,
          "velocity": 0.6299212598425197,
          "duration": 0.29000000000000625
        },
        {
          "name": "A4",
          "midi": 69,
          "time": 53.99500000000038,
          "velocity": 0.6771653543307087,
          "duration": 0.5799999999999983
        },
        {
          "name": "A3",
          "midi": 57,
          "time": 54.000000000000384,
          "velocity": 0.6771653543307087,
          "duration": 0.28999999999999915
        },
        {
          "name": "D3",
          "midi": 50,
          "time": 54.000000000000384,
          "velocity": 0.6771653543307087,
          "duration": 0.5799999999999983
        },
        {
          "name": "D4",
          "midi": 62,
          "time": 54.005000000000386,
          "velocity": 0.6771653543307087,
          "duration": 0.5799999999999983
        },
        {
          "name": "C4",
          "midi": 60,
          "time": 54.005000000000386,
          "velocity": 0.6771653543307087,
          "duration": 0.5799999999999983
        },
        {
          "name": "A3",
          "midi": 57,
          "time": 54.29000000000038,
          "velocity": 0.5748031496062992,
          "duration": 0.28999999999999915
        },
        {
          "name": "D3",
          "midi": 50,
          "time": 54.585000000000385,
          "velocity": 0.5984251968503937,
          "duration": 0.5800000000000054
        },
        {
          "name": "A4",
          "midi": 69,
          "time": 54.59500000000038,
          "velocity": 0.6771653543307087,
          "duration": 0.5800000000000054
        },
        {
          "name": "A3",
          "midi": 57,
          "time": 54.600000000000385,
          "velocity": 0.5984251968503937,
          "duration": 0.28999999999999915
        },
        {
          "name": "D4",
          "midi": 62,
          "time": 54.60500000000039,
          "velocity": 0.5984251968503937,
          "duration": 0.5799999999999983
        },
        {
          "name": "C4",
          "midi": 60,
          "time": 54.60500000000039,
          "velocity": 0.5984251968503937,
          "duration": 0.5799999999999983
        },
        {
          "name": "A3",
          "midi": 57,
          "time": 54.89500000000039,
          "velocity": 0.6299212598425197,
          "duration": 0.28999999999999915
        },
        {
          "name": "D4",
          "midi": 62,
          "time": 55.19000000000039,
          "velocity": 0.6771653543307087,
          "duration": 0.5800000000000054
        },
        {
          "name": "A#4",
          "midi": 70,
          "time": 55.20000000000039,
          "velocity": 0.6771653543307087,
          "duration": 0.5800000000000125
        },
        {
          "name": "A#2",
          "midi": 46,
          "time": 55.20000000000039,
          "velocity": 0.6771653543307087,
          "duration": 0.5800000000000125
        },
        {
          "name": "A#3",
          "midi": 58,
          "time": 55.20000000000039,
          "velocity": 0.6771653543307087,
          "duration": 0.29000000000000625
        },
        {
          "name": "F3",
          "midi": 53,
          "time": 55.20500000000039,
          "velocity": 0.6771653543307087,
          "duration": 0.28000000000000114
        },
        {
          "name": "F3",
          "midi": 53,
          "time": 55.495000000000395,
          "velocity": 0.5196850393700787,
          "duration": 0.28000000000000114
        },
        {
          "name": "A#3",
          "midi": 58,
          "time": 55.510000000000396,
          "velocity": 0.5748031496062992,
          "duration": 0.29000000000000625
        },
        {
          "name": "A#2",
          "midi": 46,
          "time": 55.7800000000004,
          "velocity": 0.5984251968503937,
          "duration": 0.5800000000000054
        },
        {
          "name": "A#3",
          "midi": 58,
          "time": 55.7900000000004,
          "velocity": 0.5984251968503937,
          "duration": 0.29000000000000625
        },
        {
          "name": "F3",
          "midi": 53,
          "time": 55.7950000000004,
          "velocity": 0.5984251968503937,
          "duration": 0.5800000000000054
        },
        {
          "name": "A#4",
          "midi": 70,
          "time": 55.8000000000004,
          "velocity": 0.6771653543307087,
          "duration": 0.5800000000000054
        },
        {
          "name": "D4",
          "midi": 62,
          "time": 55.805000000000405,
          "velocity": 0.5984251968503937,
          "duration": 0.5800000000000054
        },
        {
          "name": "A#3",
          "midi": 58,
          "time": 56.100000000000406,
          "velocity": 0.6299212598425197,
          "duration": 0.29000000000000625
        },
        {
          "name": "A#2",
          "midi": 46,
          "time": 56.395000000000415,
          "velocity": 0.6771653543307087,
          "duration": 0.5800000000000125
        },
        {
          "name": "A#4",
          "midi": 70,
          "time": 56.40000000000042,
          "velocity": 0.6771653543307087,
          "duration": 0.5800000000000125
        },
        {
          "name": "A#3",
          "midi": 58,
          "time": 56.40500000000042,
          "velocity": 0.6771653543307087,
          "duration": 0.29000000000000625
        },
        {
          "name": "F3",
          "midi": 53,
          "time": 56.40500000000042,
          "velocity": 0.6771653543307087,
          "duration": 0.2750000000000057
        },
        {
          "name": "D4",
          "midi": 62,
          "time": 56.41000000000042,
          "velocity": 0.6771653543307087,
          "duration": 0.5800000000000125
        },
        {
          "name": "A#3",
          "midi": 58,
          "time": 56.69500000000043,
          "velocity": 0.5748031496062992,
          "duration": 0.29000000000000625
        },
        {
          "name": "F3",
          "midi": 53,
          "time": 56.69500000000043,
          "velocity": 0.5196850393700787,
          "duration": 0.2749999999999986
        },
        {
          "name": "A#2",
          "midi": 46,
          "time": 56.98000000000043,
          "velocity": 0.5984251968503937,
          "duration": 0.5800000000000054
        },
        {
          "name": "A#4",
          "midi": 70,
          "time": 57.00000000000043,
          "velocity": 0.6771653543307087,
          "duration": 0.5800000000000054
        },
        {
          "name": "F3",
          "midi": 53,
          "time": 57.005000000000436,
          "velocity": 0.5984251968503937,
          "duration": 0.5800000000000054
        },
        {
          "name": "A#3",
          "midi": 58,
          "time": 57.005000000000436,
          "velocity": 0.5984251968503937,
          "duration": 0.28999999999999915
        },
        {
          "name": "D4",
          "midi": 62,
          "time": 57.01000000000044,
          "velocity": 0.5984251968503937,
          "duration": 0.5800000000000054
        },
        {
          "name": "C4",
          "midi": 60,
          "time": 57.30000000000044,
          "velocity": 0.8267716535433071,
          "duration": 0.29000000000000625
        },
        {
          "name": "A4",
          "midi": 69,
          "time": 57.59500000000045,
          "velocity": 0.6771653543307087,
          "duration": 0.5800000000000054
        },
        {
          "name": "A3",
          "midi": 57,
          "time": 57.59500000000045,
          "velocity": 0.6771653543307087,
          "duration": 0.29000000000000625
        },
        {
          "name": "F3",
          "midi": 53,
          "time": 57.60000000000045,
          "velocity": 0.6771653543307087,
          "duration": 0.3049999999999997
        },
        {
          "name": "F2",
          "midi": 41,
          "time": 57.60000000000045,
          "velocity": 0.6771653543307087,
          "duration": 0.5800000000000054
        },
        {
          "name": "F4",
          "midi": 65,
          "time": 57.60000000000045,
          "velocity": 0.48031496062992124,
          "duration": 0.5800000000000054
        },
        {
          "name": "C4",
          "midi": 60,
          "time": 57.60500000000045,
          "velocity": 0.6771653543307087,
          "duration": 0.5800000000000054
        },
        {
          "name": "C3",
          "midi": 48,
          "time": 57.88500000000045,
          "velocity": 0.6771653543307087,
          "duration": 0.3050000000000068
        },
        {
          "name": "F3",
          "midi": 53,
          "time": 57.89500000000045,
          "velocity": 0.6771653543307087,
          "duration": 0.3050000000000139
        },
        {
          "name": "A3",
          "midi": 57,
          "time": 57.90500000000045,
          "velocity": 0.5748031496062992,
          "duration": 0.29000000000001336
        },
        {
          "name": "F2",
          "midi": 41,
          "time": 58.180000000000454,
          "velocity": 0.5984251968503937,
          "duration": 0.5800000000000125
        },
        {
          "name": "A3",
          "midi": 57,
          "time": 58.18500000000046,
          "velocity": 0.5984251968503937,
          "duration": 0.29000000000000625
        },
        {
          "name": "F4",
          "midi": 65,
          "time": 58.19000000000046,
          "velocity": 0.4251968503937008,
          "duration": 0.5800000000000054
        },
        {
          "name": "C4",
          "midi": 60,
          "time": 58.19500000000046,
          "velocity": 0.5984251968503937,
          "duration": 0.5800000000000054
        },
        {
          "name": "A4",
          "midi": 69,
          "time": 58.19500000000046,
          "velocity": 0.6771653543307087,
          "duration": 0.5800000000000054
        },
        {
          "name": "F3",
          "midi": 53,
          "time": 58.19500000000046,
          "velocity": 0.5984251968503937,
          "duration": 0.30000000000000426
        },
        {
          "name": "C3",
          "midi": 48,
          "time": 58.480000000000466,
          "velocity": 0.6771653543307087,
          "duration": 0.3049999999999997
        },
        {
          "name": "F3",
          "midi": 53,
          "time": 58.495000000000466,
          "velocity": 0.5984251968503937,
          "duration": 0.29999999999999716
        },
        {
          "name": "A3",
          "midi": 57,
          "time": 58.495000000000466,
          "velocity": 0.6299212598425197,
          "duration": 0.28999999999999915
        },
        {
          "name": "F2",
          "midi": 41,
          "time": 58.795000000000464,
          "velocity": 0.6771653543307087,
          "duration": 0.5800000000000054
        },
        {
          "name": "A4",
          "midi": 69,
          "time": 58.795000000000464,
          "velocity": 0.7874015748031497,
          "duration": 0.5800000000000054
        },
        {
          "name": "F3",
          "midi": 53,
          "time": 58.795000000000464,
          "velocity": 0.6771653543307087,
          "duration": 0.30000000000000426
        },
        {
          "name": "F4",
          "midi": 65,
          "time": 58.800000000000466,
          "velocity": 0.48031496062992124,
          "duration": 0.5800000000000054
        },
        {
          "name": "A3",
          "midi": 57,
          "time": 58.800000000000466,
          "velocity": 0.6771653543307087,
          "duration": 0.28999999999999915
        },
        {
          "name": "C4",
          "midi": 60,
          "time": 58.80500000000047,
          "velocity": 0.6771653543307087,
          "duration": 0.5800000000000054
        },
        {
          "name": "C3",
          "midi": 48,
          "time": 59.090000000000465,
          "velocity": 0.6771653543307087,
          "duration": 0.3050000000000068
        },
        {
          "name": "A3",
          "midi": 57,
          "time": 59.090000000000465,
          "velocity": 0.5748031496062992,
          "duration": 0.29000000000000625
        },
        {
          "name": "F3",
          "midi": 53,
          "time": 59.09500000000047,
          "velocity": 0.5984251968503937,
          "duration": 0.30000000000000426
        },
        {
          "name": "F2",
          "midi": 41,
          "time": 59.38000000000047,
          "velocity": 0.5984251968503937,
          "duration": 0.5800000000000054
        },
        {
          "name": "A4",
          "midi": 69,
          "time": 59.39500000000047,
          "velocity": 0.6771653543307087,
          "duration": 0.5800000000000054
        },
        {
          "name": "F3",
          "midi": 53,
          "time": 59.39500000000047,
          "velocity": 0.5984251968503937,
          "duration": 0.30000000000000426
        },
        {
          "name": "A3",
          "midi": 57,
          "time": 59.400000000000475,
          "velocity": 0.5984251968503937,
          "duration": 0.28999999999999915
        },
        {
          "name": "F4",
          "midi": 65,
          "time": 59.400000000000475,
          "velocity": 0.4251968503937008,
          "duration": 0.5800000000000054
        },
        {
          "name": "C4",
          "midi": 60,
          "time": 59.40500000000048,
          "velocity": 0.5984251968503937,
          "duration": 0.5800000000000054
        },
        {
          "name": "F3",
          "midi": 53,
          "time": 59.695000000000476,
          "velocity": 0.5984251968503937,
          "duration": 0.30000000000001137
        },
        {
          "name": "A3",
          "midi": 57,
          "time": 59.695000000000476,
          "velocity": 0.6299212598425197,
          "duration": 0.29000000000000625
        },
        {
          "name": "F4",
          "midi": 65,
          "time": 59.990000000000485,
          "velocity": 0.5354330708661418,
          "duration": 0.5800000000000196
        },
        {
          "name": "A3",
          "midi": 57,
          "time": 59.99500000000049,
          "velocity": 0.6771653543307087,
          "duration": 0.3050000000000139
        },
        {
          "name": "A4",
          "midi": 69,
          "time": 60.00000000000049,
          "velocity": 0.6771653543307087,
          "duration": 0.3200000000000145
        },
        {
          "name": "C3",
          "midi": 48,
          "time": 60.00000000000049,
          "velocity": 0.6771653543307087,
          "duration": 0.5800000000000125
        },
        {
          "name": "F3",
          "midi": 53,
          "time": 60.00500000000049,
          "velocity": 0.6771653543307087,
          "duration": 0.5800000000000125
        },
        {
          "name": "F2",
          "midi": 41,
          "time": 60.010000000000495,
          "velocity": 0.6771653543307087,
          "duration": 0.5800000000000125
        },
        {
          "name": "C4",
          "midi": 60,
          "time": 60.0150000000005,
          "velocity": 0.6771653543307087,
          "duration": 0.28000000000000114
        },
        {
          "name": "G3",
          "midi": 55,
          "time": 60.305000000000504,
          "velocity": 0.6771653543307087,
          "duration": 0.3050000000000139
        },
        {
          "name": "C4",
          "midi": 60,
          "time": 60.305000000000504,
          "velocity": 0.6771653543307087,
          "duration": 0.28000000000000114
        },
        {
          "name": "F2",
          "midi": 41,
          "time": 60.59000000000051,
          "velocity": 0.5984251968503937,
          "duration": 0.5800000000000125
        },
        {
          "name": "C3",
          "midi": 48,
          "time": 60.59000000000051,
          "velocity": 0.5984251968503937,
          "duration": 0.5800000000000125
        },
        {
          "name": "G4",
          "midi": 67,
          "time": 60.59500000000051,
          "velocity": 0.5354330708661418,
          "duration": 0.3100000000000094
        },
        {
          "name": "A4",
          "midi": 69,
          "time": 60.60000000000051,
          "velocity": 0.6771653543307087,
          "duration": 0.5800000000000054
        },
        {
          "name": "F3",
          "midi": 53,
          "time": 60.605000000000516,
          "velocity": 0.6771653543307087,
          "duration": 0.5800000000000054
        },
        {
          "name": "C4",
          "midi": 60,
          "time": 60.605000000000516,
          "velocity": 0.5984251968503937,
          "duration": 0.29000000000000625
        },
        {
          "name": "G3",
          "midi": 55,
          "time": 60.61500000000052,
          "velocity": 0.6771653543307087,
          "duration": 0.3049999999999997
        },
        {
          "name": "C4",
          "midi": 60,
          "time": 60.89500000000052,
          "velocity": 0.5984251968503937,
          "duration": 0.28999999999999915
        },
        {
          "name": "F4",
          "midi": 65,
          "time": 60.89500000000052,
          "velocity": 0.5354330708661418,
          "duration": 0.3100000000000023
        },
        {
          "name": "G3",
          "midi": 55,
          "time": 60.90500000000052,
          "velocity": 0.5984251968503937,
          "duration": 0.28000000000000114
        },
        {
          "name": "F4",
          "midi": 65,
          "time": 61.20000000000052,
          "velocity": 0.5354330708661418,
          "duration": 0.2950000000000159
        },
        {
          "name": "C3",
          "midi": 48,
          "time": 61.20000000000052,
          "velocity": 0.6771653543307087,
          "duration": 0.5800000000000196
        },
        {
          "name": "A4",
          "midi": 69,
          "time": 61.20000000000052,
          "velocity": 0.6771653543307087,
          "duration": 0.5800000000000196
        },
        {
          "name": "F2",
          "midi": 41,
          "time": 61.205000000000524,
          "velocity": 0.6771653543307087,
          "duration": 0.5800000000000196
        },
        {
          "name": "G3",
          "midi": 55,
          "time": 61.21000000000053,
          "velocity": 0.5984251968503937,
          "duration": 0.28000000000000824
        },
        {
          "name": "F3",
          "midi": 53,
          "time": 61.21000000000053,
          "velocity": 0.6771653543307087,
          "duration": 0.5800000000000196
        },
        {
          "name": "C4",
          "midi": 60,
          "time": 61.21500000000053,
          "velocity": 0.6771653543307087,
          "duration": 0.28000000000000824
        },
        {
          "name": "E4",
          "midi": 64,
          "time": 61.48500000000053,
          "velocity": 0.5354330708661418,
          "duration": 0.2950000000000088
        },
        {
          "name": "C4",
          "midi": 60,
          "time": 61.49500000000054,
          "velocity": 0.6771653543307087,
          "duration": 0.28000000000000114
        },
        {
          "name": "G3",
          "midi": 55,
          "time": 61.505000000000535,
          "velocity": 0.5984251968503937,
          "duration": 0.2850000000000108
        },
        {
          "name": "F2",
          "midi": 41,
          "time": 61.790000000000546,
          "velocity": 0.5984251968503937,
          "duration": 0.5799999999999983
        },
        {
          "name": "E4",
          "midi": 64,
          "time": 61.800000000000544,
          "velocity": 0.5354330708661418,
          "duration": 0.5800000000000054
        },
        {
          "name": "G3",
          "midi": 55,
          "time": 61.800000000000544,
          "velocity": 0.5984251968503937,
          "duration": 0.2850000000000037
        },
        {
          "name": "C3",
          "midi": 48,
          "time": 61.800000000000544,
          "velocity": 0.5984251968503937,
          "duration": 0.5800000000000054
        },
        {
          "name": "G4",
          "midi": 67,
          "time": 61.800000000000544,
          "velocity": 0.6771653543307087,
          "duration": 0.5800000000000054
        },
        {
          "name": "F3",
          "midi": 53,
          "time": 61.80500000000055,
          "velocity": 0.6771653543307087,
          "duration": 0.5800000000000054
        },
        {
          "name": "C4",
          "midi": 60,
          "time": 61.815000000000545,
          "velocity": 0.5984251968503937,
          "duration": 0.28000000000000114
        },
        {
          "name": "C4",
          "midi": 60,
          "time": 62.095000000000546,
          "velocity": 0.5984251968503937,
          "duration": 0.28000000000000114
        },
        {
          "name": "G3",
          "midi": 55,
          "time": 62.105000000000544,
          "velocity": 0.5984251968503937,
          "duration": 0.30000000000001137
        },
        {
          "name": "D4",
          "midi": 62,
          "time": 62.40000000000055,
          "velocity": 0.6771653543307087,
          "duration": 0.5800000000000125
        },
        {
          "name": "A#4",
          "midi": 70,
          "time": 62.41000000000056,
          "velocity": 0.6771653543307087,
          "duration": 0.5800000000000125
        },
        {
          "name": "A#2",
          "midi": 46,
          "time": 62.41000000000056,
          "velocity": 0.6771653543307087,
          "duration": 0.5800000000000125
        },
        {
          "name": "A#3",
          "midi": 58,
          "time": 62.41000000000056,
          "velocity": 0.6771653543307087,
          "duration": 0.29000000000000625
        },
        {
          "name": "F3",
          "midi": 53,
          "time": 62.41500000000056,
          "velocity": 0.6771653543307087,
          "duration": 0.28000000000000114
        },
        {
          "name": "F3",
          "midi": 53,
          "time": 62.70500000000057,
          "velocity": 0.5196850393700787,
          "duration": 0.28000000000000114
        },
        {
          "name": "A#2",
          "midi": 46,
          "time": 62.99000000000057,
          "velocity": 0.5984251968503937,
          "duration": 0.5800000000000054
        },
        {
          "name": "A#3",
          "midi": 58,
          "time": 63.00000000000057,
          "velocity": 0.5984251968503937,
          "duration": 0.29000000000000625
        },
        {
          "name": "F3",
          "midi": 53,
          "time": 63.00500000000057,
          "velocity": 0.5984251968503937,
          "duration": 0.30000000000000426
        },
        {
          "name": "A#4",
          "midi": 70,
          "time": 63.01000000000057,
          "velocity": 0.6771653543307087,
          "duration": 0.5800000000000054
        },
        {
          "name": "D4",
          "midi": 62,
          "time": 63.015000000000576,
          "velocity": 0.5984251968503937,
          "duration": 0.5800000000000054
        },
        {
          "name": "F3",
          "midi": 53,
          "time": 63.305000000000575,
          "velocity": 0.5984251968503937,
          "duration": 0.30000000000000426
        },
        {
          "name": "A#2",
          "midi": 46,
          "time": 63.60500000000058,
          "velocity": 0.6771653543307087,
          "duration": 0.5800000000000054
        },
        {
          "name": "A#4",
          "midi": 70,
          "time": 63.61000000000058,
          "velocity": 0.6771653543307087,
          "duration": 0.5799999999999983
        },
        {
          "name": "A#3",
          "midi": 58,
          "time": 63.615000000000585,
          "velocity": 0.6771653543307087,
          "duration": 0.29000000000000625
        },
        {
          "name": "F3",
          "midi": 53,
          "time": 63.615000000000585,
          "velocity": 0.6771653543307087,
          "duration": 0.2750000000000057
        },
        {
          "name": "D4",
          "midi": 62,
          "time": 63.62000000000059,
          "velocity": 0.6771653543307087,
          "duration": 0.5799999999999983
        },
        {
          "name": "F3",
          "midi": 53,
          "time": 63.90500000000059,
          "velocity": 0.5196850393700787,
          "duration": 0.2749999999999986
        },
        {
          "name": "A#2",
          "midi": 46,
          "time": 64.19000000000058,
          "velocity": 0.5984251968503937,
          "duration": 0.5799999999999983
        },
        {
          "name": "A#4",
          "midi": 70,
          "time": 64.21000000000059,
          "velocity": 0.6771653543307087,
          "duration": 0.5799999999999841
        },
        {
          "name": "F3",
          "midi": 53,
          "time": 64.21500000000059,
          "velocity": 0.5984251968503937,
          "duration": 0.2749999999999915
        },
        {
          "name": "A#3",
          "midi": 58,
          "time": 64.21500000000059,
          "velocity": 0.5984251968503937,
          "duration": 0.28999999999999204
        },
        {
          "name": "D4",
          "midi": 62,
          "time": 64.22000000000058,
          "velocity": 0.5984251968503937,
          "duration": 0.5799999999999983
        },
        {
          "name": "F3",
          "midi": 53,
          "time": 64.51500000000058,
          "velocity": 0.5984251968503937,
          "duration": 0.2749999999999915
        },
        {
          "name": "D4",
          "midi": 62,
          "time": 64.81000000000058,
          "velocity": 0.6771653543307087,
          "duration": 0.5799999999999983
        },
        {
          "name": "A#4",
          "midi": 70,
          "time": 64.82000000000059,
          "velocity": 0.6771653543307087,
          "duration": 0.5799999999999841
        },
        {
          "name": "A#2",
          "midi": 46,
          "time": 64.82000000000059,
          "velocity": 0.6771653543307087,
          "duration": 0.5799999999999841
        },
        {
          "name": "A#3",
          "midi": 58,
          "time": 64.82000000000059,
          "velocity": 0.6771653543307087,
          "duration": 0.28999999999999204
        },
        {
          "name": "F3",
          "midi": 53,
          "time": 64.82500000000059,
          "velocity": 0.6771653543307087,
          "duration": 0.28000000000000114
        },
        {
          "name": "F3",
          "midi": 53,
          "time": 65.11500000000058,
          "velocity": 0.5196850393700787,
          "duration": 0.28000000000000114
        },
        {
          "name": "A#3",
          "midi": 58,
          "time": 65.13000000000058,
          "velocity": 0.4566929133858268,
          "duration": 0.28999999999999204
        },
        {
          "name": "A#2",
          "midi": 46,
          "time": 65.40000000000057,
          "velocity": 0.5984251968503937,
          "duration": 0.5799999999999983
        },
        {
          "name": "A#3",
          "midi": 58,
          "time": 65.41000000000058,
          "velocity": 0.5984251968503937,
          "duration": 0.28999999999999204
        },
        {
          "name": "F3",
          "midi": 53,
          "time": 65.41500000000057,
          "velocity": 0.5984251968503937,
          "duration": 0.5799999999999983
        },
        {
          "name": "A#4",
          "midi": 70,
          "time": 65.42000000000057,
          "velocity": 0.6771653543307087,
          "duration": 0.5799999999999983
        },
        {
          "name": "D4",
          "midi": 62,
          "time": 65.42500000000057,
          "velocity": 0.5984251968503937,
          "duration": 0.5799999999999983
        },
        {
          "name": "A#3",
          "midi": 58,
          "time": 65.72000000000057,
          "velocity": 0.5039370078740157,
          "duration": 0.28999999999999204
        },
        {
          "name": "A#2",
          "midi": 46,
          "time": 66.01500000000055,
          "velocity": 0.6771653543307087,
          "duration": 0.5799999999999841
        },
        {
          "name": "A#4",
          "midi": 70,
          "time": 66.02000000000055,
          "velocity": 0.6771653543307087,
          "duration": 0.5799999999999841
        },
        {
          "name": "A#3",
          "midi": 58,
          "time": 66.02500000000055,
          "velocity": 0.6771653543307087,
          "duration": 0.28999999999999204
        },
        {
          "name": "F3",
          "midi": 53,
          "time": 66.02500000000055,
          "velocity": 0.6771653543307087,
          "duration": 0.2749999999999915
        },
        {
          "name": "D4",
          "midi": 62,
          "time": 66.03000000000054,
          "velocity": 0.6771653543307087,
          "duration": 0.5799999999999841
        },
        {
          "name": "A#3",
          "midi": 58,
          "time": 66.31500000000054,
          "velocity": 0.4566929133858268,
          "duration": 0.28999999999999204
        },
        {
          "name": "F3",
          "midi": 53,
          "time": 66.31500000000054,
          "velocity": 0.5196850393700787,
          "duration": 0.2750000000000057
        },
        {
          "name": "A#2",
          "midi": 46,
          "time": 66.60000000000053,
          "velocity": 0.5984251968503937,
          "duration": 0.8899999999999579
        },
        {
          "name": "A#4",
          "midi": 70,
          "time": 66.62000000000053,
          "velocity": 0.6771653543307087,
          "duration": 0.8699999999999619
        },
        {
          "name": "F3",
          "midi": 53,
          "time": 66.62500000000053,
          "velocity": 0.5984251968503937,
          "duration": 0.5799999999999841
        },
        {
          "name": "A#3",
          "midi": 58,
          "time": 66.62500000000053,
          "velocity": 0.5984251968503937,
          "duration": 0.28999999999999204
        },
        {
          "name": "D4",
          "midi": 62,
          "time": 66.63000000000052,
          "velocity": 0.5984251968503937,
          "duration": 0.839999999999975
        },
        {
          "name": "A#3",
          "midi": 58,
          "time": 66.92000000000051,
          "velocity": 0.8267716535433071,
          "duration": 0.28999999999999204
        },
        {
          "name": "A4",
          "midi": 69,
          "time": 67.2150000000005,
          "velocity": 0.6771653543307087,
          "duration": 0.5799999999999983
        },
        {
          "name": "A3",
          "midi": 57,
          "time": 67.2150000000005,
          "velocity": 0.6771653543307087,
          "duration": 0.28999999999999204
        },
        {
          "name": "F3",
          "midi": 53,
          "time": 67.2200000000005,
          "velocity": 0.6771653543307087,
          "duration": 0.3050000000000068
        },
        {
          "name": "F2",
          "midi": 41,
          "time": 67.2200000000005,
          "velocity": 0.6771653543307087,
          "duration": 0.5799999999999983
        },
        {
          "name": "F4",
          "midi": 65,
          "time": 67.2200000000005,
          "velocity": 0.48031496062992124,
          "duration": 0.5799999999999983
        },
        {
          "name": "C4",
          "midi": 60,
          "time": 67.22500000000049,
          "velocity": 0.6771653543307087,
          "duration": 0.5799999999999983
        },
        {
          "name": "C3",
          "midi": 48,
          "time": 67.50500000000049,
          "velocity": 0.6771653543307087,
          "duration": 0.3049999999999926
        },
        {
          "name": "F3",
          "midi": 53,
          "time": 67.5150000000005,
          "velocity": 0.6771653543307087,
          "duration": 0.3049999999999784
        },
        {
          "name": "A3",
          "midi": 57,
          "time": 67.5250000000005,
          "velocity": 0.5748031496062992,
          "duration": 0.28999999999997783
        },
        {
          "name": "F2",
          "midi": 41,
          "time": 67.8000000000005,
          "velocity": 0.5984251968503937,
          "duration": 0.5799999999999841
        },
        {
          "name": "A3",
          "midi": 57,
          "time": 67.80500000000049,
          "velocity": 0.5984251968503937,
          "duration": 0.28999999999999204
        },
        {
          "name": "F4",
          "midi": 65,
          "time": 67.81000000000049,
          "velocity": 0.4251968503937008,
          "duration": 0.5799999999999983
        },
        {
          "name": "C4",
          "midi": 60,
          "time": 67.81500000000048,
          "velocity": 0.5984251968503937,
          "duration": 0.5799999999999983
        },
        {
          "name": "A4",
          "midi": 69,
          "time": 67.81500000000048,
          "velocity": 0.6771653543307087,
          "duration": 0.5799999999999983
        },
        {
          "name": "F3",
          "midi": 53,
          "time": 67.81500000000048,
          "velocity": 0.5984251968503937,
          "duration": 0.29999999999999716
        },
        {
          "name": "C3",
          "midi": 48,
          "time": 68.10000000000048,
          "velocity": 0.6771653543307087,
          "duration": 0.3050000000000068
        },
        {
          "name": "F3",
          "midi": 53,
          "time": 68.11500000000048,
          "velocity": 0.5984251968503937,
          "duration": 0.30000000000001137
        },
        {
          "name": "A3",
          "midi": 57,
          "time": 68.11500000000048,
          "velocity": 0.6299212598425197,
          "duration": 0.29000000000000625
        },
        {
          "name": "F2",
          "midi": 41,
          "time": 68.41500000000049,
          "velocity": 0.6771653543307087,
          "duration": 0.5799999999999841
        },
        {
          "name": "A4",
          "midi": 69,
          "time": 68.41500000000049,
          "velocity": 0.7874015748031497,
          "duration": 0.5799999999999841
        },
        {
          "name": "F3",
          "midi": 53,
          "time": 68.41500000000049,
          "velocity": 0.6771653543307087,
          "duration": 0.29999999999998295
        },
        {
          "name": "F4",
          "midi": 65,
          "time": 68.42000000000048,
          "velocity": 0.48031496062992124,
          "duration": 0.5799999999999841
        },
        {
          "name": "A3",
          "midi": 57,
          "time": 68.42000000000048,
          "velocity": 0.6771653543307087,
          "duration": 0.28999999999999204
        },
        {
          "name": "C4",
          "midi": 60,
          "time": 68.42500000000048,
          "velocity": 0.6771653543307087,
          "duration": 0.5799999999999841
        },
        {
          "name": "C3",
          "midi": 48,
          "time": 68.71000000000048,
          "velocity": 0.6771653543307087,
          "duration": 0.3049999999999926
        },
        {
          "name": "A3",
          "midi": 57,
          "time": 68.71000000000048,
          "velocity": 0.5748031496062992,
          "duration": 0.28999999999999204
        },
        {
          "name": "F3",
          "midi": 53,
          "time": 68.71500000000047,
          "velocity": 0.5984251968503937,
          "duration": 0.29999999999999716
        },
        {
          "name": "F2",
          "midi": 41,
          "time": 69.00000000000047,
          "velocity": 0.5984251968503937,
          "duration": 0.5799999999999841
        },
        {
          "name": "A4",
          "midi": 69,
          "time": 69.01500000000047,
          "velocity": 0.6771653543307087,
          "duration": 0.5799999999999841
        },
        {
          "name": "F3",
          "midi": 53,
          "time": 69.01500000000047,
          "velocity": 0.5984251968503937,
          "duration": 0.29999999999998295
        },
        {
          "name": "A3",
          "midi": 57,
          "time": 69.02000000000046,
          "velocity": 0.5984251968503937,
          "duration": 0.28999999999999204
        },
        {
          "name": "F4",
          "midi": 65,
          "time": 69.02000000000046,
          "velocity": 0.4251968503937008,
          "duration": 0.5799999999999841
        },
        {
          "name": "C4",
          "midi": 60,
          "time": 69.02500000000046,
          "velocity": 0.5984251968503937,
          "duration": 0.5799999999999841
        },
        {
          "name": "F3",
          "midi": 53,
          "time": 69.31500000000045,
          "velocity": 0.5984251968503937,
          "duration": 0.29999999999998295
        },
        {
          "name": "A3",
          "midi": 57,
          "time": 69.31500000000045,
          "velocity": 0.6299212598425197,
          "duration": 0.28999999999999204
        },
        {
          "name": "F4",
          "midi": 65,
          "time": 69.61000000000044,
          "velocity": 0.5354330708661418,
          "duration": 0.5799999999999699
        },
        {
          "name": "G3",
          "midi": 55,
          "time": 69.61500000000044,
          "velocity": 0.6771653543307087,
          "duration": 0.3049999999999784
        },
        {
          "name": "G4",
          "midi": 67,
          "time": 69.62000000000043,
          "velocity": 0.6771653543307087,
          "duration": 0.5799999999999841
        },
        {
          "name": "C3",
          "midi": 48,
          "time": 69.62000000000043,
          "velocity": 0.6771653543307087,
          "duration": 0.5799999999999841
        },
        {
          "name": "F3",
          "midi": 53,
          "time": 69.62500000000043,
          "velocity": 0.6771653543307087,
          "duration": 0.5799999999999841
        },
        {
          "name": "F2",
          "midi": 41,
          "time": 69.63000000000042,
          "velocity": 0.6771653543307087,
          "duration": 0.5799999999999841
        },
        {
          "name": "C4",
          "midi": 60,
          "time": 69.63500000000042,
          "velocity": 0.6771653543307087,
          "duration": 0.28000000000000114
        },
        {
          "name": "G3",
          "midi": 55,
          "time": 69.92500000000041,
          "velocity": 0.6771653543307087,
          "duration": 0.3049999999999784
        },
        {
          "name": "C4",
          "midi": 60,
          "time": 69.92500000000041,
          "velocity": 0.6771653543307087,
          "duration": 0.28000000000000114
        },
        {
          "name": "F2",
          "midi": 41,
          "time": 70.2100000000004,
          "velocity": 0.5984251968503937,
          "duration": 0.5799999999999841
        },
        {
          "name": "C3",
          "midi": 48,
          "time": 70.2100000000004,
          "velocity": 0.5984251968503937,
          "duration": 0.5799999999999841
        },
        {
          "name": "F4",
          "midi": 65,
          "time": 70.2150000000004,
          "velocity": 0.5354330708661418,
          "duration": 0.5799999999999841
        },
        {
          "name": "G4",
          "midi": 67,
          "time": 70.2200000000004,
          "velocity": 0.6771653543307087,
          "duration": 0.5799999999999841
        },
        {
          "name": "F3",
          "midi": 53,
          "time": 70.22500000000039,
          "velocity": 0.6771653543307087,
          "duration": 0.5799999999999841
        },
        {
          "name": "C4",
          "midi": 60,
          "time": 70.22500000000039,
          "velocity": 0.5984251968503937,
          "duration": 0.28999999999999204
        },
        {
          "name": "G3",
          "midi": 55,
          "time": 70.23500000000038,
          "velocity": 0.6771653543307087,
          "duration": 0.3050000000000068
        },
        {
          "name": "C4",
          "midi": 60,
          "time": 70.51500000000038,
          "velocity": 0.5984251968503937,
          "duration": 0.28999999999999204
        },
        {
          "name": "G3",
          "midi": 55,
          "time": 70.52500000000039,
          "velocity": 0.5984251968503937,
          "duration": 0.2799999999999869
        },
        {
          "name": "F4",
          "midi": 65,
          "time": 70.82000000000038,
          "velocity": 0.5354330708661418,
          "duration": 0.5799999999999841
        },
        {
          "name": "C3",
          "midi": 48,
          "time": 70.82000000000038,
          "velocity": 0.6771653543307087,
          "duration": 0.5799999999999841
        },
        {
          "name": "G4",
          "midi": 67,
          "time": 70.82000000000038,
          "velocity": 0.6771653543307087,
          "duration": 0.5799999999999841
        },
        {
          "name": "F2",
          "midi": 41,
          "time": 70.82500000000037,
          "velocity": 0.6771653543307087,
          "duration": 0.5799999999999841
        },
        {
          "name": "G3",
          "midi": 55,
          "time": 70.83000000000037,
          "velocity": 0.5984251968503937,
          "duration": 0.28000000000000114
        },
        {
          "name": "F3",
          "midi": 53,
          "time": 70.83000000000037,
          "velocity": 0.6771653543307087,
          "duration": 0.5799999999999841
        },
        {
          "name": "C4",
          "midi": 60,
          "time": 70.83500000000036,
          "velocity": 0.6771653543307087,
          "duration": 0.28000000000000114
        },
        {
          "name": "C4",
          "midi": 60,
          "time": 71.11500000000036,
          "velocity": 0.6771653543307087,
          "duration": 0.28000000000000114
        },
        {
          "name": "G3",
          "midi": 55,
          "time": 71.12500000000037,
          "velocity": 0.5984251968503937,
          "duration": 0.2849999999999824
        },
        {
          "name": "F2",
          "midi": 41,
          "time": 71.41000000000035,
          "velocity": 0.5984251968503937,
          "duration": 0.5800000000000125
        },
        {
          "name": "F4",
          "midi": 65,
          "time": 71.42000000000036,
          "velocity": 0.5354330708661418,
          "duration": 0.5799999999999983
        },
        {
          "name": "G3",
          "midi": 55,
          "time": 71.42000000000036,
          "velocity": 0.5984251968503937,
          "duration": 0.2849999999999966
        },
        {
          "name": "C3",
          "midi": 48,
          "time": 71.42000000000036,
          "velocity": 0.5984251968503937,
          "duration": 0.5799999999999983
        },
        {
          "name": "G4",
          "midi": 67,
          "time": 71.42000000000036,
          "velocity": 0.6771653543307087,
          "duration": 0.5799999999999983
        },
        {
          "name": "F3",
          "midi": 53,
          "time": 71.42500000000035,
          "velocity": 0.6771653543307087,
          "duration": 0.5799999999999983
        },
        {
          "name": "C4",
          "midi": 60,
          "time": 71.43500000000036,
          "velocity": 0.5984251968503937,
          "duration": 0.28000000000000114
        },
        {
          "name": "C4",
          "midi": 60,
          "time": 71.71500000000036,
          "velocity": 0.5984251968503937,
          "duration": 0.28000000000000114
        },
        {
          "name": "G3",
          "midi": 55,
          "time": 71.72500000000036,
          "velocity": 0.5984251968503937,
          "duration": 0.29999999999998295
        },
        {
          "name": "D4",
          "midi": 62,
          "time": 71.99500000000036,
          "velocity": 0.6771653543307087,
          "duration": 0.5799999999999841
        },
        {
          "name": "A#4",
          "midi": 70,
          "time": 72.00500000000035,
          "velocity": 0.6771653543307087,
          "duration": 0.5799999999999841
        },
        {
          "name": "A#2",
          "midi": 46,
          "time": 72.00500000000035,
          "velocity": 0.6771653543307087,
          "duration": 0.5799999999999841
        },
        {
          "name": "A#3",
          "midi": 58,
          "time": 72.00500000000035,
          "velocity": 0.6771653543307087,
          "duration": 0.28999999999999204
        },
        {
          "name": "F3",
          "midi": 53,
          "time": 72.01000000000035,
          "velocity": 0.6771653543307087,
          "duration": 0.28000000000000114
        },
        {
          "name": "F3",
          "midi": 53,
          "time": 72.30000000000034,
          "velocity": 0.5196850393700787,
          "duration": 0.28000000000000114
        },
        {
          "name": "A#2",
          "midi": 46,
          "time": 72.58500000000033,
          "velocity": 0.5984251968503937,
          "duration": 0.5799999999999983
        },
        {
          "name": "A#3",
          "midi": 58,
          "time": 72.59500000000034,
          "velocity": 0.5984251968503937,
          "duration": 0.28999999999999204
        },
        {
          "name": "F3",
          "midi": 53,
          "time": 72.60000000000034,
          "velocity": 0.5984251968503937,
          "duration": 0.29999999999999716
        },
        {
          "name": "A#4",
          "midi": 70,
          "time": 72.60500000000033,
          "velocity": 0.6771653543307087,
          "duration": 0.5799999999999983
        },
        {
          "name": "D4",
          "midi": 62,
          "time": 72.61000000000033,
          "velocity": 0.5984251968503937,
          "duration": 0.5799999999999983
        },
        {
          "name": "F3",
          "midi": 53,
          "time": 72.90000000000033,
          "velocity": 0.5984251968503937,
          "duration": 0.29999999999999716
        },
        {
          "name": "A#2",
          "midi": 46,
          "time": 73.20000000000033,
          "velocity": 0.6771653543307087,
          "duration": 0.5799999999999841
        },
        {
          "name": "A#4",
          "midi": 70,
          "time": 73.20500000000033,
          "velocity": 0.6771653543307087,
          "duration": 0.5799999999999841
        },
        {
          "name": "A#3",
          "midi": 58,
          "time": 73.21000000000032,
          "velocity": 0.6771653543307087,
          "duration": 0.28999999999999204
        },
        {
          "name": "F3",
          "midi": 53,
          "time": 73.21000000000032,
          "velocity": 0.6771653543307087,
          "duration": 0.2749999999999915
        },
        {
          "name": "D4",
          "midi": 62,
          "time": 73.21500000000032,
          "velocity": 0.6771653543307087,
          "duration": 0.5799999999999983
        },
        {
          "name": "F3",
          "midi": 53,
          "time": 73.50000000000031,
          "velocity": 0.5196850393700787,
          "duration": 0.2750000000000057
        },
        {
          "name": "A#2",
          "midi": 46,
          "time": 73.78500000000031,
          "velocity": 0.5984251968503937,
          "duration": 0.5799999999999983
        },
        {
          "name": "A#4",
          "midi": 70,
          "time": 73.80500000000032,
          "velocity": 0.6771653543307087,
          "duration": 0.5799999999999841
        },
        {
          "name": "F3",
          "midi": 53,
          "time": 73.81000000000031,
          "velocity": 0.5984251968503937,
          "duration": 0.2749999999999915
        },
        {
          "name": "A#3",
          "midi": 58,
          "time": 73.81000000000031,
          "velocity": 0.5984251968503937,
          "duration": 0.28999999999999204
        },
        {
          "name": "D4",
          "midi": 62,
          "time": 73.81500000000031,
          "velocity": 0.5984251968503937,
          "duration": 0.5799999999999983
        },
        {
          "name": "F3",
          "midi": 53,
          "time": 74.11000000000031,
          "velocity": 0.5984251968503937,
          "duration": 0.2749999999999915
        },
        {
          "name": "D4",
          "midi": 62,
          "time": 74.40500000000031,
          "velocity": 0.6771653543307087,
          "duration": 0.5799999999999983
        },
        {
          "name": "A#4",
          "midi": 70,
          "time": 74.41500000000032,
          "velocity": 0.6771653543307087,
          "duration": 0.5799999999999841
        },
        {
          "name": "A#2",
          "midi": 46,
          "time": 74.41500000000032,
          "velocity": 0.6771653543307087,
          "duration": 0.5799999999999841
        },
        {
          "name": "A#3",
          "midi": 58,
          "time": 74.41500000000032,
          "velocity": 0.6771653543307087,
          "duration": 0.28999999999999204
        },
        {
          "name": "F3",
          "midi": 53,
          "time": 74.42000000000031,
          "velocity": 0.6771653543307087,
          "duration": 0.28000000000000114
        },
        {
          "name": "F3",
          "midi": 53,
          "time": 74.7100000000003,
          "velocity": 0.5196850393700787,
          "duration": 0.28000000000000114
        },
        {
          "name": "A#3",
          "midi": 58,
          "time": 74.7250000000003,
          "velocity": 0.4566929133858268,
          "duration": 0.28999999999999204
        },
        {
          "name": "A#2",
          "midi": 46,
          "time": 74.9950000000003,
          "velocity": 0.5984251968503937,
          "duration": 0.5799999999999983
        },
        {
          "name": "A#3",
          "midi": 58,
          "time": 75.00500000000031,
          "velocity": 0.5984251968503937,
          "duration": 0.28999999999999204
        },
        {
          "name": "F3",
          "midi": 53,
          "time": 75.0100000000003,
          "velocity": 0.5984251968503937,
          "duration": 0.5799999999999983
        },
        {
          "name": "A#4",
          "midi": 70,
          "time": 75.0150000000003,
          "velocity": 0.6771653543307087,
          "duration": 0.5799999999999983
        },
        {
          "name": "D4",
          "midi": 62,
          "time": 75.0200000000003,
          "velocity": 0.5984251968503937,
          "duration": 0.5799999999999983
        },
        {
          "name": "A#3",
          "midi": 58,
          "time": 75.3150000000003,
          "velocity": 0.5039370078740157,
          "duration": 0.28999999999999204
        },
        {
          "name": "A#2",
          "midi": 46,
          "time": 75.61000000000028,
          "velocity": 0.6771653543307087,
          "duration": 0.5799999999999841
        },
        {
          "name": "A#4",
          "midi": 70,
          "time": 75.61500000000028,
          "velocity": 0.6771653543307087,
          "duration": 0.5799999999999841
        },
        {
          "name": "A#3",
          "midi": 58,
          "time": 75.62000000000027,
          "velocity": 0.6771653543307087,
          "duration": 0.28999999999999204
        },
        {
          "name": "F3",
          "midi": 53,
          "time": 75.62000000000027,
          "velocity": 0.6771653543307087,
          "duration": 0.2749999999999915
        },
        {
          "name": "D4",
          "midi": 62,
          "time": 75.62500000000027,
          "velocity": 0.6771653543307087,
          "duration": 0.5799999999999841
        },
        {
          "name": "A#3",
          "midi": 58,
          "time": 75.91000000000027,
          "velocity": 0.4566929133858268,
          "duration": 0.28999999999999204
        },
        {
          "name": "F3",
          "midi": 53,
          "time": 75.91000000000027,
          "velocity": 0.5196850393700787,
          "duration": 0.2750000000000057
        },
        {
          "name": "A#2",
          "midi": 46,
          "time": 76.19500000000026,
          "velocity": 0.5984251968503937,
          "duration": 0.8899999999999579
        },
        {
          "name": "A#4",
          "midi": 70,
          "time": 76.21500000000026,
          "velocity": 0.6771653543307087,
          "duration": 0.8699999999999619
        },
        {
          "name": "F3",
          "midi": 53,
          "time": 76.22000000000025,
          "velocity": 0.5984251968503937,
          "duration": 0.5799999999999841
        },
        {
          "name": "A#3",
          "midi": 58,
          "time": 76.22000000000025,
          "velocity": 0.5984251968503937,
          "duration": 0.28999999999999204
        },
        {
          "name": "D4",
          "midi": 62,
          "time": 76.22500000000025,
          "velocity": 0.5984251968503937,
          "duration": 0.839999999999975
        },
        {
          "name": "A#3",
          "midi": 58,
          "time": 76.51500000000024,
          "velocity": 0.8267716535433071,
          "duration": 0.28999999999999204
        },
        {
          "name": "A4",
          "midi": 69,
          "time": 76.81000000000023,
          "velocity": 0.6771653543307087,
          "duration": 0.5799999999999983
        },
        {
          "name": "A3",
          "midi": 57,
          "time": 76.81000000000023,
          "velocity": 0.6771653543307087,
          "duration": 0.28999999999999204
        },
        {
          "name": "F3",
          "midi": 53,
          "time": 76.81500000000023,
          "velocity": 0.6771653543307087,
          "duration": 0.3050000000000068
        },
        {
          "name": "F2",
          "midi": 41,
          "time": 76.81500000000023,
          "velocity": 0.6771653543307087,
          "duration": 0.5799999999999983
        },
        {
          "name": "F4",
          "midi": 65,
          "time": 76.81500000000023,
          "velocity": 0.48031496062992124,
          "duration": 0.5799999999999983
        },
        {
          "name": "C4",
          "midi": 60,
          "time": 76.82000000000022,
          "velocity": 0.6771653543307087,
          "duration": 0.5799999999999983
        },
        {
          "name": "C3",
          "midi": 48,
          "time": 77.10000000000022,
          "velocity": 0.6771653543307087,
          "duration": 0.3049999999999926
        },
        {
          "name": "F3",
          "midi": 53,
          "time": 77.11000000000023,
          "velocity": 0.6771653543307087,
          "duration": 0.3049999999999784
        },
        {
          "name": "A3",
          "midi": 57,
          "time": 77.12000000000023,
          "velocity": 0.5748031496062992,
          "duration": 0.28999999999997783
        },
        {
          "name": "F2",
          "midi": 41,
          "time": 77.39500000000022,
          "velocity": 0.5984251968503937,
          "duration": 0.5799999999999841
        },
        {
          "name": "A3",
          "midi": 57,
          "time": 77.40000000000022,
          "velocity": 0.5984251968503937,
          "duration": 0.28999999999999204
        },
        {
          "name": "F4",
          "midi": 65,
          "time": 77.40500000000021,
          "velocity": 0.4251968503937008,
          "duration": 0.5799999999999983
        },
        {
          "name": "C4",
          "midi": 60,
          "time": 77.41000000000021,
          "velocity": 0.5984251968503937,
          "duration": 0.5799999999999983
        },
        {
          "name": "A4",
          "midi": 69,
          "time": 77.41000000000021,
          "velocity": 0.6771653543307087,
          "duration": 0.5799999999999983
        },
        {
          "name": "F3",
          "midi": 53,
          "time": 77.41000000000021,
          "velocity": 0.5984251968503937,
          "duration": 0.29999999999999716
        },
        {
          "name": "C3",
          "midi": 48,
          "time": 77.6950000000002,
          "velocity": 0.6771653543307087,
          "duration": 0.3050000000000068
        },
        {
          "name": "F3",
          "midi": 53,
          "time": 77.7100000000002,
          "velocity": 0.5984251968503937,
          "duration": 0.30000000000001137
        },
        {
          "name": "A3",
          "midi": 57,
          "time": 77.7100000000002,
          "velocity": 0.6299212598425197,
          "duration": 0.29000000000000625
        },
        {
          "name": "F2",
          "midi": 41,
          "time": 78.01000000000022,
          "velocity": 0.6771653543307087,
          "duration": 0.5799999999999841
        },
        {
          "name": "A4",
          "midi": 69,
          "time": 78.01000000000022,
          "velocity": 0.7874015748031497,
          "duration": 0.5799999999999841
        },
        {
          "name": "F3",
          "midi": 53,
          "time": 78.01000000000022,
          "velocity": 0.6771653543307087,
          "duration": 0.29999999999998295
        },
        {
          "name": "F4",
          "midi": 65,
          "time": 78.01500000000021,
          "velocity": 0.48031496062992124,
          "duration": 0.5799999999999841
        },
        {
          "name": "A3",
          "midi": 57,
          "time": 78.01500000000021,
          "velocity": 0.6771653543307087,
          "duration": 0.28999999999999204
        },
        {
          "name": "C4",
          "midi": 60,
          "time": 78.02000000000021,
          "velocity": 0.6771653543307087,
          "duration": 0.5799999999999841
        },
        {
          "name": "C3",
          "midi": 48,
          "time": 78.3050000000002,
          "velocity": 0.6771653543307087,
          "duration": 0.3049999999999926
        },
        {
          "name": "A3",
          "midi": 57,
          "time": 78.3050000000002,
          "velocity": 0.5748031496062992,
          "duration": 0.28999999999999204
        },
        {
          "name": "F3",
          "midi": 53,
          "time": 78.3100000000002,
          "velocity": 0.5984251968503937,
          "duration": 0.29999999999999716
        },
        {
          "name": "F2",
          "midi": 41,
          "time": 78.5950000000002,
          "velocity": 0.5984251968503937,
          "duration": 0.5799999999999841
        },
        {
          "name": "A4",
          "midi": 69,
          "time": 78.6100000000002,
          "velocity": 0.6771653543307087,
          "duration": 0.5799999999999841
        },
        {
          "name": "F3",
          "midi": 53,
          "time": 78.6100000000002,
          "velocity": 0.5984251968503937,
          "duration": 0.29999999999998295
        },
        {
          "name": "A3",
          "midi": 57,
          "time": 78.6150000000002,
          "velocity": 0.5984251968503937,
          "duration": 0.28999999999999204
        },
        {
          "name": "F4",
          "midi": 65,
          "time": 78.6150000000002,
          "velocity": 0.4251968503937008,
          "duration": 0.5799999999999841
        },
        {
          "name": "C4",
          "midi": 60,
          "time": 78.62000000000019,
          "velocity": 0.5984251968503937,
          "duration": 0.5799999999999841
        },
        {
          "name": "F3",
          "midi": 53,
          "time": 78.91000000000018,
          "velocity": 0.5984251968503937,
          "duration": 0.29999999999998295
        },
        {
          "name": "A3",
          "midi": 57,
          "time": 78.91000000000018,
          "velocity": 0.6299212598425197,
          "duration": 0.28999999999999204
        },
        {
          "name": "E4",
          "midi": 64,
          "time": 79.20500000000017,
          "velocity": 0.5354330708661418,
          "duration": 0.5799999999999699
        },
        {
          "name": "G3",
          "midi": 55,
          "time": 79.21000000000016,
          "velocity": 0.6771653543307087,
          "duration": 0.3049999999999784
        },
        {
          "name": "G4",
          "midi": 67,
          "time": 79.21500000000016,
          "velocity": 0.6771653543307087,
          "duration": 0.5799999999999841
        },
        {
          "name": "C3",
          "midi": 48,
          "time": 79.21500000000016,
          "velocity": 0.6771653543307087,
          "duration": 0.5799999999999841
        },
        {
          "name": "F3",
          "midi": 53,
          "time": 79.22000000000016,
          "velocity": 0.6771653543307087,
          "duration": 0.5799999999999841
        },
        {
          "name": "F2",
          "midi": 41,
          "time": 79.22500000000015,
          "velocity": 0.6771653543307087,
          "duration": 0.5799999999999841
        },
        {
          "name": "C4",
          "midi": 60,
          "time": 79.23000000000015,
          "velocity": 0.6771653543307087,
          "duration": 0.28000000000000114
        },
        {
          "name": "G3",
          "midi": 55,
          "time": 79.52000000000014,
          "velocity": 0.6771653543307087,
          "duration": 0.3049999999999784
        },
        {
          "name": "C4",
          "midi": 60,
          "time": 79.52000000000014,
          "velocity": 0.6771653543307087,
          "duration": 0.28000000000000114
        },
        {
          "name": "F2",
          "midi": 41,
          "time": 79.80500000000013,
          "velocity": 0.5984251968503937,
          "duration": 0.5799999999999841
        },
        {
          "name": "C3",
          "midi": 48,
          "time": 79.80500000000013,
          "velocity": 0.5984251968503937,
          "duration": 0.5799999999999841
        },
        {
          "name": "E4",
          "midi": 64,
          "time": 79.81000000000013,
          "velocity": 0.5354330708661418,
          "duration": 0.5799999999999841
        },
        {
          "name": "G4",
          "midi": 67,
          "time": 79.81500000000013,
          "velocity": 0.6771653543307087,
          "duration": 0.5799999999999841
        },
        {
          "name": "F3",
          "midi": 53,
          "time": 79.82000000000012,
          "velocity": 0.6771653543307087,
          "duration": 0.5799999999999841
        },
        {
          "name": "C4",
          "midi": 60,
          "time": 79.82000000000012,
          "velocity": 0.5984251968503937,
          "duration": 0.28999999999999204
        },
        {
          "name": "G3",
          "midi": 55,
          "time": 79.83000000000011,
          "velocity": 0.6771653543307087,
          "duration": 0.3050000000000068
        },
        {
          "name": "C4",
          "midi": 60,
          "time": 80.11000000000011,
          "velocity": 0.5984251968503937,
          "duration": 0.28999999999999204
        },
        {
          "name": "G3",
          "midi": 55,
          "time": 80.12000000000012,
          "velocity": 0.5984251968503937,
          "duration": 0.2799999999999869
        },
        {
          "name": "D4",
          "midi": 62,
          "time": 80.4150000000001,
          "velocity": 0.5354330708661418,
          "duration": 0.5799999999999841
        },
        {
          "name": "C3",
          "midi": 48,
          "time": 80.4150000000001,
          "velocity": 0.6771653543307087,
          "duration": 0.5799999999999841
        },
        {
          "name": "G4",
          "midi": 67,
          "time": 80.4150000000001,
          "velocity": 0.6771653543307087,
          "duration": 0.5799999999999841
        },
        {
          "name": "F2",
          "midi": 41,
          "time": 80.4200000000001,
          "velocity": 0.6771653543307087,
          "duration": 0.5799999999999841
        },
        {
          "name": "A3",
          "midi": 57,
          "time": 80.4250000000001,
          "velocity": 0.5984251968503937,
          "duration": 0.28000000000000114
        },
        {
          "name": "F3",
          "midi": 53,
          "time": 80.4250000000001,
          "velocity": 0.6771653543307087,
          "duration": 0.5799999999999841
        },
        {
          "name": "C4",
          "midi": 60,
          "time": 80.43000000000009,
          "velocity": 0.6771653543307087,
          "duration": 0.28000000000000114
        },
        {
          "name": "C4",
          "midi": 60,
          "time": 80.7100000000001,
          "velocity": 0.6771653543307087,
          "duration": 0.28000000000000114
        },
        {
          "name": "A3",
          "midi": 57,
          "time": 80.7200000000001,
          "velocity": 0.5984251968503937,
          "duration": 0.2849999999999824
        },
        {
          "name": "F2",
          "midi": 41,
          "time": 81.00500000000008,
          "velocity": 0.5984251968503937,
          "duration": 0.5800000000000125
        },
        {
          "name": "D4",
          "midi": 62,
          "time": 81.01500000000009,
          "velocity": 0.5354330708661418,
          "duration": 0.5799999999999983
        },
        {
          "name": "A3",
          "midi": 57,
          "time": 81.01500000000009,
          "velocity": 0.5984251968503937,
          "duration": 0.2849999999999966
        },
        {
          "name": "C3",
          "midi": 48,
          "time": 81.01500000000009,
          "velocity": 0.5984251968503937,
          "duration": 0.5799999999999983
        },
        {
          "name": "G4",
          "midi": 67,
          "time": 81.01500000000009,
          "velocity": 0.6771653543307087,
          "duration": 0.5799999999999983
        },
        {
          "name": "F3",
          "midi": 53,
          "time": 81.02000000000008,
          "velocity": 0.6771653543307087,
          "duration": 0.5799999999999983
        },
        {
          "name": "C4",
          "midi": 60,
          "time": 81.03000000000009,
          "velocity": 0.5984251968503937,
          "duration": 0.28000000000000114
        },
        {
          "name": "C4",
          "midi": 60,
          "time": 81.31000000000009,
          "velocity": 0.5984251968503937,
          "duration": 0.28000000000000114
        },
        {
          "name": "A3",
          "midi": 57,
          "time": 81.32000000000009,
          "velocity": 0.5984251968503937,
          "duration": 0.2799999999999869
        },
        {
          "name": "G2",
          "midi": 43,
          "time": 81.60000000000008,
          "velocity": 0.5196850393700787,
          "duration": 0.28000000000000114
        },
        {
          "name": "E4",
          "midi": 64,
          "time": 81.60000000000008,
          "velocity": 0.6771653543307087,
          "duration": 0.5799999999999983
        },
        {
          "name": "E3",
          "midi": 52,
          "time": 81.60000000000008,
          "velocity": 0.6771653543307087,
          "duration": 0.28000000000000114
        },
        {
          "name": "C3",
          "midi": 48,
          "time": 81.60000000000008,
          "velocity": 0.6771653543307087,
          "duration": 0.29999999999999716
        },
        {
          "name": "G3",
          "midi": 55,
          "time": 81.60000000000008,
          "velocity": 0.6771653543307087,
          "duration": 0.28000000000000114
        },
        {
          "name": "G4",
          "midi": 67,
          "time": 81.60500000000008,
          "velocity": 0.6771653543307087,
          "duration": 0.5799999999999983
        },
        {
          "name": "C4",
          "midi": 60,
          "time": 81.62000000000008,
          "velocity": 0.6771653543307087,
          "duration": 0.28000000000000114
        },
        {
          "name": "C3",
          "midi": 48,
          "time": 81.90000000000008,
          "velocity": 0.4881889763779528,
          "duration": 0.29999999999998295
        },
        {
          "name": "G3",
          "midi": 55,
          "time": 81.90500000000007,
          "velocity": 0.4881889763779528,
          "duration": 0.28000000000000114
        },
        {
          "name": "E3",
          "midi": 52,
          "time": 81.90500000000007,
          "velocity": 0.4881889763779528,
          "duration": 0.28000000000000114
        },
        {
          "name": "C3",
          "midi": 48,
          "time": 82.19000000000007,
          "velocity": 0.5984251968503937,
          "duration": 0.5799999999999983
        },
        {
          "name": "C4",
          "midi": 60,
          "time": 82.19500000000006,
          "velocity": 0.6771653543307087,
          "duration": 0.28000000000000114
        },
        {
          "name": "G4",
          "midi": 67,
          "time": 82.20500000000006,
          "velocity": 0.6771653543307087,
          "duration": 0.5800000000000125
        },
        {
          "name": "E3",
          "midi": 52,
          "time": 82.20500000000006,
          "velocity": 0.5984251968503937,
          "duration": 0.30000000000001137
        },
        {
          "name": "G3",
          "midi": 55,
          "time": 82.20500000000006,
          "velocity": 0.5984251968503937,
          "duration": 0.30000000000001137
        },
        {
          "name": "E4",
          "midi": 64,
          "time": 82.21500000000006,
          "velocity": 0.5984251968503937,
          "duration": 0.5800000000000125
        },
        {
          "name": "E3",
          "midi": 52,
          "time": 82.50500000000007,
          "velocity": 0.5984251968503937,
          "duration": 0.30000000000001137
        },
        {
          "name": "G3",
          "midi": 55,
          "time": 82.50500000000007,
          "velocity": 0.5984251968503937,
          "duration": 0.30000000000001137
        },
        {
          "name": "C4",
          "midi": 60,
          "time": 82.79500000000007,
          "velocity": 0.6771653543307087,
          "duration": 0.28000000000000114
        },
        {
          "name": "G4",
          "midi": 67,
          "time": 82.80500000000008,
          "velocity": 0.6771653543307087,
          "duration": 0.5799999999999983
        },
        {
          "name": "C3",
          "midi": 48,
          "time": 82.80500000000008,
          "velocity": 0.6771653543307087,
          "duration": 0.5799999999999983
        },
        {
          "name": "E3",
          "midi": 52,
          "time": 82.81500000000008,
          "velocity": 0.6771653543307087,
          "duration": 0.2749999999999915
        },
        {
          "name": "G3",
          "midi": 55,
          "time": 82.81500000000008,
          "velocity": 0.6771653543307087,
          "duration": 0.2749999999999915
        },
        {
          "name": "E4",
          "midi": 64,
          "time": 82.82000000000008,
          "velocity": 0.6771653543307087,
          "duration": 0.5799999999999983
        },
        {
          "name": "G3",
          "midi": 55,
          "time": 83.10500000000008,
          "velocity": 0.5196850393700787,
          "duration": 0.2750000000000057
        },
        {
          "name": "E3",
          "midi": 52,
          "time": 83.10500000000008,
          "velocity": 0.5196850393700787,
          "duration": 0.2750000000000057
        },
        {
          "name": "C3",
          "midi": 48,
          "time": 83.39000000000007,
          "velocity": 0.5984251968503937,
          "duration": 0.5800000000000125
        },
        {
          "name": "C4",
          "midi": 60,
          "time": 83.40000000000008,
          "velocity": 0.6771653543307087,
          "duration": 0.28000000000000114
        },
        {
          "name": "G4",
          "midi": 67,
          "time": 83.40500000000007,
          "velocity": 0.6771653543307087,
          "duration": 0.5800000000000125
        },
        {
          "name": "E3",
          "midi": 52,
          "time": 83.41500000000008,
          "velocity": 0.5984251968503937,
          "duration": 0.2750000000000057
        },
        {
          "name": "G3",
          "midi": 55,
          "time": 83.41500000000008,
          "velocity": 0.5984251968503937,
          "duration": 0.2750000000000057
        },
        {
          "name": "E4",
          "midi": 64,
          "time": 83.42000000000007,
          "velocity": 0.5984251968503937,
          "duration": 0.5800000000000125
        },
        {
          "name": "D4",
          "midi": 62,
          "time": 83.71500000000009,
          "velocity": 0.5984251968503937,
          "duration": 0.2749999999999915
        },
        {
          "name": "E3",
          "midi": 52,
          "time": 83.71500000000009,
          "velocity": 0.5984251968503937,
          "duration": 0.2749999999999915
        },
        {
          "name": "C4",
          "midi": 60,
          "time": 84.00500000000008,
          "velocity": 0.6771653543307087,
          "duration": 0.2799999999999869
        },
        {
          "name": "E4",
          "midi": 64,
          "time": 84.01000000000008,
          "velocity": 0.6771653543307087,
          "duration": 0.5799999999999983
        },
        {
          "name": "G4",
          "midi": 67,
          "time": 84.01500000000007,
          "velocity": 0.6771653543307087,
          "duration": 0.5799999999999983
        },
        {
          "name": "C3",
          "midi": 48,
          "time": 84.02000000000007,
          "velocity": 0.6771653543307087,
          "duration": 0.5799999999999983
        },
        {
          "name": "G3",
          "midi": 55,
          "time": 84.02500000000006,
          "velocity": 0.6771653543307087,
          "duration": 0.28000000000000114
        },
        {
          "name": "E3",
          "midi": 52,
          "time": 84.02500000000006,
          "velocity": 0.6771653543307087,
          "duration": 0.28000000000000114
        },
        {
          "name": "E3",
          "midi": 52,
          "time": 84.31500000000007,
          "velocity": 0.5196850393700787,
          "duration": 0.28000000000000114
        },
        {
          "name": "G3",
          "midi": 55,
          "time": 84.31500000000007,
          "velocity": 0.5196850393700787,
          "duration": 0.28000000000000114
        },
        {
          "name": "C4",
          "midi": 60,
          "time": 84.60000000000007,
          "velocity": 0.6771653543307087,
          "duration": 0.28000000000000114
        },
        {
          "name": "C3",
          "midi": 48,
          "time": 84.60000000000007,
          "velocity": 0.5984251968503937,
          "duration": 0.5799999999999983
        },
        {
          "name": "E3",
          "midi": 52,
          "time": 84.61500000000007,
          "velocity": 0.5984251968503937,
          "duration": 0.5799999999999983
        },
        {
          "name": "G4",
          "midi": 67,
          "time": 84.61500000000007,
          "velocity": 0.6771653543307087,
          "duration": 0.5799999999999983
        },
        {
          "name": "G3",
          "midi": 55,
          "time": 84.61500000000007,
          "velocity": 0.5984251968503937,
          "duration": 0.29000000000000625
        },
        {
          "name": "E4",
          "midi": 64,
          "time": 84.62500000000007,
          "velocity": 0.5984251968503937,
          "duration": 0.5799999999999983
        },
        {
          "name": "G3",
          "midi": 55,
          "time": 84.91000000000007,
          "velocity": 0.5984251968503937,
          "duration": 0.3049999999999926
        },
        {
          "name": "C4",
          "midi": 60,
          "time": 85.21000000000006,
          "velocity": 0.6771653543307087,
          "duration": 0.28000000000000114
        },
        {
          "name": "G4",
          "midi": 67,
          "time": 85.21500000000006,
          "velocity": 0.6771653543307087,
          "duration": 0.5800000000000125
        },
        {
          "name": "C3",
          "midi": 48,
          "time": 85.21500000000006,
          "velocity": 0.6771653543307087,
          "duration": 0.5800000000000125
        },
        {
          "name": "E3",
          "midi": 52,
          "time": 85.22500000000007,
          "velocity": 0.6771653543307087,
          "duration": 0.2750000000000057
        },
        {
          "name": "G3",
          "midi": 55,
          "time": 85.22500000000007,
          "velocity": 0.6771653543307087,
          "duration": 0.2750000000000057
        },
        {
          "name": "E4",
          "midi": 64,
          "time": 85.23000000000006,
          "velocity": 0.6771653543307087,
          "duration": 0.5800000000000125
        },
        {
          "name": "E3",
          "midi": 52,
          "time": 85.51500000000007,
          "velocity": 0.5196850393700787,
          "duration": 0.2750000000000057
        },
        {
          "name": "G3",
          "midi": 55,
          "time": 85.51500000000007,
          "velocity": 0.5196850393700787,
          "duration": 0.2750000000000057
        },
        {
          "name": "A#4",
          "midi": 70,
          "time": 85.80000000000007,
          "velocity": 0.6771653543307087,
          "duration": 0.5800000000000125
        },
        {
          "name": "E5",
          "midi": 76,
          "time": 85.80000000000007,
          "velocity": 0.6771653543307087,
          "duration": 0.5800000000000125
        },
        {
          "name": "C3",
          "midi": 48,
          "time": 85.80000000000007,
          "velocity": 0.5984251968503937,
          "duration": 0.6000000000000085
        },
        {
          "name": "C4",
          "midi": 60,
          "time": 85.81000000000007,
          "velocity": 0.6771653543307087,
          "duration": 0.28000000000000114
        },
        {
          "name": "G4",
          "midi": 67,
          "time": 85.81500000000007,
          "velocity": 0.6771653543307087,
          "duration": 0.5800000000000125
        },
        {
          "name": "E3",
          "midi": 52,
          "time": 85.82500000000007,
          "velocity": 0.5984251968503937,
          "duration": 0.5799999999999983
        },
        {
          "name": "G3",
          "midi": 55,
          "time": 85.82500000000007,
          "velocity": 0.5984251968503937,
          "duration": 0.5799999999999983
        },
        {
          "name": "E4",
          "midi": 64,
          "time": 85.83000000000007,
          "velocity": 0.5984251968503937,
          "duration": 0.5700000000000074
        },
        {
          "name": "F2",
          "midi": 41,
          "time": 86.40000000000008,
          "velocity": 0.5196850393700787,
          "duration": 0.28000000000000114
        },
        {
          "name": "C3",
          "midi": 48,
          "time": 86.40000000000008,
          "velocity": 0.6771653543307087,
          "duration": 0.29999999999999716
        },
        {
          "name": "F4",
          "midi": 65,
          "time": 86.40000000000008,
          "velocity": 0.6771653543307087,
          "duration": 0.5799999999999983
        },
        {
          "name": "A3",
          "midi": 57,
          "time": 86.40000000000008,
          "velocity": 0.6771653543307087,
          "duration": 0.28000000000000114
        },
        {
          "name": "F3",
          "midi": 53,
          "time": 86.40000000000008,
          "velocity": 0.6771653543307087,
          "duration": 0.28000000000000114
        },
        {
          "name": "A4",
          "midi": 69,
          "time": 86.41500000000008,
          "velocity": 0.6771653543307087,
          "duration": 0.5799999999999841
        },
        {
          "name": "C4",
          "midi": 60,
          "time": 86.42000000000007,
          "velocity": 0.6771653543307087,
          "duration": 0.28000000000000114
        },
        {
          "name": "C3",
          "midi": 48,
          "time": 86.70000000000007,
          "velocity": 0.4881889763779528,
          "duration": 0.29999999999998295
        },
        {
          "name": "F3",
          "midi": 53,
          "time": 86.70500000000007,
          "velocity": 0.4881889763779528,
          "duration": 0.28000000000000114
        },
        {
          "name": "A3",
          "midi": 57,
          "time": 86.70500000000007,
          "velocity": 0.4881889763779528,
          "duration": 0.28000000000000114
        },
        {
          "name": "C3",
          "midi": 48,
          "time": 86.99000000000007,
          "velocity": 0.5984251968503937,
          "duration": 0.5799999999999983
        },
        {
          "name": "C4",
          "midi": 60,
          "time": 86.99500000000006,
          "velocity": 0.6771653543307087,
          "duration": 0.28000000000000114
        },
        {
          "name": "F2",
          "midi": 41,
          "time": 87.00000000000006,
          "velocity": 0.5196850393700787,
          "duration": 0.28000000000000114
        },
        {
          "name": "A3",
          "midi": 57,
          "time": 87.00500000000005,
          "velocity": 0.5984251968503937,
          "duration": 0.30000000000001137
        },
        {
          "name": "F3",
          "midi": 53,
          "time": 87.00500000000005,
          "velocity": 0.5984251968503937,
          "duration": 0.30000000000001137
        },
        {
          "name": "A4",
          "midi": 69,
          "time": 87.01500000000006,
          "velocity": 0.6771653543307087,
          "duration": 0.5800000000000125
        },
        {
          "name": "F4",
          "midi": 65,
          "time": 87.01500000000006,
          "velocity": 0.5984251968503937,
          "duration": 0.5800000000000125
        },
        {
          "name": "F3",
          "midi": 53,
          "time": 87.30500000000006,
          "velocity": 0.5984251968503937,
          "duration": 0.29999999999999716
        },
        {
          "name": "A3",
          "midi": 57,
          "time": 87.30500000000006,
          "velocity": 0.5984251968503937,
          "duration": 0.29999999999999716
        },
        {
          "name": "C4",
          "midi": 60,
          "time": 87.59500000000007,
          "velocity": 0.6771653543307087,
          "duration": 0.2799999999999869
        },
        {
          "name": "F2",
          "midi": 41,
          "time": 87.60000000000007,
          "velocity": 0.5196850393700787,
          "duration": 0.2799999999999869
        },
        {
          "name": "C3",
          "midi": 48,
          "time": 87.60500000000006,
          "velocity": 0.6771653543307087,
          "duration": 0.5799999999999983
        },
        {
          "name": "A4",
          "midi": 69,
          "time": 87.61500000000007,
          "velocity": 0.6771653543307087,
          "duration": 0.5799999999999841
        },
        {
          "name": "F3",
          "midi": 53,
          "time": 87.61500000000007,
          "velocity": 0.6771653543307087,
          "duration": 0.2749999999999915
        },
        {
          "name": "A3",
          "midi": 57,
          "time": 87.61500000000007,
          "velocity": 0.6771653543307087,
          "duration": 0.2749999999999915
        },
        {
          "name": "F4",
          "midi": 65,
          "time": 87.62000000000006,
          "velocity": 0.6771653543307087,
          "duration": 0.5799999999999841
        },
        {
          "name": "F3",
          "midi": 53,
          "time": 87.90500000000006,
          "velocity": 0.5196850393700787,
          "duration": 0.2750000000000057
        },
        {
          "name": "A3",
          "midi": 57,
          "time": 87.90500000000006,
          "velocity": 0.5196850393700787,
          "duration": 0.2750000000000057
        },
        {
          "name": "C3",
          "midi": 48,
          "time": 88.19000000000005,
          "velocity": 0.5984251968503937,
          "duration": 0.5799999999999983
        },
        {
          "name": "A4",
          "midi": 69,
          "time": 88.20000000000005,
          "velocity": 0.6771653543307087,
          "duration": 0.5800000000000125
        },
        {
          "name": "F2",
          "midi": 41,
          "time": 88.20000000000005,
          "velocity": 0.5196850393700787,
          "duration": 0.28000000000000114
        },
        {
          "name": "C4",
          "midi": 60,
          "time": 88.20000000000005,
          "velocity": 0.6771653543307087,
          "duration": 0.28000000000000114
        },
        {
          "name": "A3",
          "midi": 57,
          "time": 88.21500000000005,
          "velocity": 0.5984251968503937,
          "duration": 0.2750000000000057
        },
        {
          "name": "F3",
          "midi": 53,
          "time": 88.21500000000005,
          "velocity": 0.5984251968503937,
          "duration": 0.2750000000000057
        },
        {
          "name": "F4",
          "midi": 65,
          "time": 88.22000000000004,
          "velocity": 0.5984251968503937,
          "duration": 0.5800000000000267
        },
        {
          "name": "F3",
          "midi": 53,
          "time": 88.51500000000006,
          "velocity": 0.5984251968503937,
          "duration": 0.2750000000000057
        },
        {
          "name": "F4",
          "midi": 65,
          "time": 88.80000000000007,
          "velocity": 0.6771653543307087,
          "duration": 0.5799999999999983
        },
        {
          "name": "F3",
          "midi": 53,
          "time": 88.80000000000007,
          "velocity": 0.6771653543307087,
          "duration": 0.28000000000000114
        },
        {
          "name": "D4",
          "midi": 62,
          "time": 88.80000000000007,
          "velocity": 0.6771653543307087,
          "duration": 0.28000000000000114
        },
        {
          "name": "A#3",
          "midi": 58,
          "time": 88.80000000000007,
          "velocity": 0.6771653543307087,
          "duration": 0.28000000000000114
        },
        {
          "name": "A#2",
          "midi": 46,
          "time": 88.80000000000007,
          "velocity": 0.6771653543307087,
          "duration": 0.29999999999999716
        },
        {
          "name": "A#4",
          "midi": 70,
          "time": 88.82000000000006,
          "velocity": 0.6771653543307087,
          "duration": 0.5799999999999983
        },
        {
          "name": "A#2",
          "midi": 46,
          "time": 89.10000000000007,
          "velocity": 0.4881889763779528,
          "duration": 0.29999999999999716
        },
        {
          "name": "F3",
          "midi": 53,
          "time": 89.10500000000006,
          "velocity": 0.4881889763779528,
          "duration": 0.28000000000000114
        },
        {
          "name": "A#3",
          "midi": 58,
          "time": 89.10500000000006,
          "velocity": 0.4881889763779528,
          "duration": 0.28000000000000114
        },
        {
          "name": "D4",
          "midi": 62,
          "time": 89.38000000000007,
          "velocity": 0.6771653543307087,
          "duration": 0.28000000000000114
        },
        {
          "name": "A#2",
          "midi": 46,
          "time": 89.39000000000006,
          "velocity": 0.5984251968503937,
          "duration": 0.5800000000000125
        },
        {
          "name": "A#3",
          "midi": 58,
          "time": 89.40500000000006,
          "velocity": 0.5984251968503937,
          "duration": 0.30000000000001137
        },
        {
          "name": "F3",
          "midi": 53,
          "time": 89.40500000000006,
          "velocity": 0.5984251968503937,
          "duration": 0.30000000000001137
        },
        {
          "name": "F4",
          "midi": 65,
          "time": 89.41500000000006,
          "velocity": 0.5984251968503937,
          "duration": 0.5800000000000125
        },
        {
          "name": "A#4",
          "midi": 70,
          "time": 89.43000000000006,
          "velocity": 0.6771653543307087,
          "duration": 0.5800000000000125
        },
        {
          "name": "F3",
          "midi": 53,
          "time": 89.70500000000007,
          "velocity": 0.5984251968503937,
          "duration": 0.30000000000001137
        },
        {
          "name": "A#3",
          "midi": 58,
          "time": 89.70500000000007,
          "velocity": 0.5984251968503937,
          "duration": 0.30000000000001137
        },
        {
          "name": "D4",
          "midi": 62,
          "time": 89.98000000000008,
          "velocity": 0.6771653543307087,
          "duration": 0.2799999999999869
        },
        {
          "name": "A#2",
          "midi": 46,
          "time": 90.00500000000008,
          "velocity": 0.6771653543307087,
          "duration": 0.5799999999999841
        },
        {
          "name": "F3",
          "midi": 53,
          "time": 90.01500000000007,
          "velocity": 0.6771653543307087,
          "duration": 0.2749999999999915
        },
        {
          "name": "A#3",
          "midi": 58,
          "time": 90.01500000000007,
          "velocity": 0.6771653543307087,
          "duration": 0.2749999999999915
        },
        {
          "name": "F4",
          "midi": 65,
          "time": 90.02000000000007,
          "velocity": 0.6771653543307087,
          "duration": 0.5799999999999983
        },
        {
          "name": "A#4",
          "midi": 70,
          "time": 90.03500000000007,
          "velocity": 0.6771653543307087,
          "duration": 0.5799999999999983
        },
        {
          "name": "A#3",
          "midi": 58,
          "time": 90.30500000000006,
          "velocity": 0.5196850393700787,
          "duration": 0.2750000000000057
        },
        {
          "name": "F3",
          "midi": 53,
          "time": 90.30500000000006,
          "velocity": 0.5196850393700787,
          "duration": 0.2750000000000057
        },
        {
          "name": "D4",
          "midi": 62,
          "time": 90.58500000000006,
          "velocity": 0.6771653543307087,
          "duration": 0.28000000000000114
        },
        {
          "name": "A#2",
          "midi": 46,
          "time": 90.59000000000006,
          "velocity": 0.5984251968503937,
          "duration": 0.5800000000000125
        },
        {
          "name": "A4",
          "midi": 69,
          "time": 90.60000000000007,
          "velocity": 0.6771653543307087,
          "duration": 0.5800000000000125
        },
        {
          "name": "A#3",
          "midi": 58,
          "time": 90.61500000000007,
          "velocity": 0.5984251968503937,
          "duration": 0.2750000000000057
        },
        {
          "name": "F3",
          "midi": 53,
          "time": 90.61500000000007,
          "velocity": 0.5984251968503937,
          "duration": 0.2750000000000057
        },
        {
          "name": "F4",
          "midi": 65,
          "time": 90.62000000000006,
          "velocity": 0.5984251968503937,
          "duration": 0.5800000000000267
        },
        {
          "name": "F3",
          "midi": 53,
          "time": 90.91500000000008,
          "velocity": 0.5984251968503937,
          "duration": 0.2750000000000057
        },
        {
          "name": "F2",
          "midi": 41,
          "time": 91.20000000000009,
          "velocity": 0.5196850393700787,
          "duration": 0.28000000000000114
        },
        {
          "name": "C3",
          "midi": 48,
          "time": 91.20000000000009,
          "velocity": 0.6771653543307087,
          "duration": 0.29999999999999716
        },
        {
          "name": "F4",
          "midi": 65,
          "time": 91.20000000000009,
          "velocity": 0.6771653543307087,
          "duration": 0.5799999999999983
        },
        {
          "name": "A3",
          "midi": 57,
          "time": 91.20000000000009,
          "velocity": 0.6771653543307087,
          "duration": 0.28000000000000114
        },
        {
          "name": "F3",
          "midi": 53,
          "time": 91.20000000000009,
          "velocity": 0.6771653543307087,
          "duration": 0.28000000000000114
        },
        {
          "name": "A4",
          "midi": 69,
          "time": 91.21500000000009,
          "velocity": 0.6771653543307087,
          "duration": 0.5799999999999841
        },
        {
          "name": "C4",
          "midi": 60,
          "time": 91.22000000000008,
          "velocity": 0.6771653543307087,
          "duration": 0.28000000000000114
        },
        {
          "name": "C3",
          "midi": 48,
          "time": 91.50000000000009,
          "velocity": 0.4881889763779528,
          "duration": 0.29999999999998295
        },
        {
          "name": "F3",
          "midi": 53,
          "time": 91.50500000000008,
          "velocity": 0.4881889763779528,
          "duration": 0.28000000000000114
        },
        {
          "name": "A3",
          "midi": 57,
          "time": 91.50500000000008,
          "velocity": 0.4881889763779528,
          "duration": 0.28000000000000114
        },
        {
          "name": "C3",
          "midi": 48,
          "time": 91.79000000000008,
          "velocity": 0.5984251968503937,
          "duration": 0.5799999999999983
        },
        {
          "name": "C4",
          "midi": 60,
          "time": 91.79500000000007,
          "velocity": 0.6771653543307087,
          "duration": 0.28000000000000114
        },
        {
          "name": "F2",
          "midi": 41,
          "time": 91.80000000000007,
          "velocity": 0.5196850393700787,
          "duration": 0.28000000000000114
        },
        {
          "name": "A3",
          "midi": 57,
          "time": 91.80500000000006,
          "velocity": 0.5984251968503937,
          "duration": 0.30000000000001137
        },
        {
          "name": "F3",
          "midi": 53,
          "time": 91.80500000000006,
          "velocity": 0.5984251968503937,
          "duration": 0.30000000000001137
        },
        {
          "name": "A4",
          "midi": 69,
          "time": 91.81500000000007,
          "velocity": 0.6771653543307087,
          "duration": 0.5800000000000125
        },
        {
          "name": "F4",
          "midi": 65,
          "time": 91.81500000000007,
          "velocity": 0.5984251968503937,
          "duration": 0.5800000000000125
        },
        {
          "name": "F3",
          "midi": 53,
          "time": 92.10500000000008,
          "velocity": 0.5984251968503937,
          "duration": 0.29999999999999716
        },
        {
          "name": "A3",
          "midi": 57,
          "time": 92.10500000000008,
          "velocity": 0.5984251968503937,
          "duration": 0.29999999999999716
        },
        {
          "name": "C4",
          "midi": 60,
          "time": 92.39500000000008,
          "velocity": 0.6771653543307087,
          "duration": 0.2799999999999869
        },
        {
          "name": "F2",
          "midi": 41,
          "time": 92.40000000000008,
          "velocity": 0.5196850393700787,
          "duration": 0.2799999999999869
        },
        {
          "name": "C3",
          "midi": 48,
          "time": 92.40500000000007,
          "velocity": 0.6771653543307087,
          "duration": 0.5799999999999983
        },
        {
          "name": "A4",
          "midi": 69,
          "time": 92.41500000000008,
          "velocity": 0.6771653543307087,
          "duration": 0.5799999999999841
        },
        {
          "name": "F3",
          "midi": 53,
          "time": 92.41500000000008,
          "velocity": 0.6771653543307087,
          "duration": 0.2749999999999915
        },
        {
          "name": "A3",
          "midi": 57,
          "time": 92.41500000000008,
          "velocity": 0.6771653543307087,
          "duration": 0.2749999999999915
        },
        {
          "name": "F4",
          "midi": 65,
          "time": 92.42000000000007,
          "velocity": 0.6771653543307087,
          "duration": 0.5799999999999841
        },
        {
          "name": "F3",
          "midi": 53,
          "time": 92.70500000000007,
          "velocity": 0.5196850393700787,
          "duration": 0.2750000000000057
        },
        {
          "name": "A3",
          "midi": 57,
          "time": 92.70500000000007,
          "velocity": 0.5196850393700787,
          "duration": 0.2750000000000057
        },
        {
          "name": "C3",
          "midi": 48,
          "time": 92.99000000000007,
          "velocity": 0.5984251968503937,
          "duration": 0.5799999999999983
        },
        {
          "name": "A4",
          "midi": 69,
          "time": 93.00000000000006,
          "velocity": 0.6771653543307087,
          "duration": 0.5800000000000125
        },
        {
          "name": "F2",
          "midi": 41,
          "time": 93.00000000000006,
          "velocity": 0.5196850393700787,
          "duration": 0.28000000000000114
        },
        {
          "name": "C4",
          "midi": 60,
          "time": 93.00000000000006,
          "velocity": 0.6771653543307087,
          "duration": 0.28000000000000114
        },
        {
          "name": "A3",
          "midi": 57,
          "time": 93.01500000000006,
          "velocity": 0.5984251968503937,
          "duration": 0.2750000000000057
        },
        {
          "name": "F3",
          "midi": 53,
          "time": 93.01500000000006,
          "velocity": 0.5984251968503937,
          "duration": 0.2750000000000057
        },
        {
          "name": "F4",
          "midi": 65,
          "time": 93.02000000000005,
          "velocity": 0.5984251968503937,
          "duration": 0.5800000000000267
        },
        {
          "name": "F3",
          "midi": 53,
          "time": 93.31500000000007,
          "velocity": 0.5984251968503937,
          "duration": 0.2750000000000057
        },
        {
          "name": "F2",
          "midi": 41,
          "time": 93.60000000000008,
          "velocity": 0.5196850393700787,
          "duration": 0.28000000000000114
        },
        {
          "name": "C3",
          "midi": 48,
          "time": 93.60000000000008,
          "velocity": 0.6771653543307087,
          "duration": 0.29999999999999716
        },
        {
          "name": "F4",
          "midi": 65,
          "time": 93.60000000000008,
          "velocity": 0.6771653543307087,
          "duration": 0.5799999999999983
        },
        {
          "name": "A3",
          "midi": 57,
          "time": 93.60000000000008,
          "velocity": 0.6771653543307087,
          "duration": 0.28000000000000114
        },
        {
          "name": "F3",
          "midi": 53,
          "time": 93.60000000000008,
          "velocity": 0.6771653543307087,
          "duration": 0.28000000000000114
        },
        {
          "name": "A4",
          "midi": 69,
          "time": 93.61500000000008,
          "velocity": 0.6771653543307087,
          "duration": 0.5799999999999841
        },
        {
          "name": "C4",
          "midi": 60,
          "time": 93.62000000000008,
          "velocity": 0.6771653543307087,
          "duration": 0.28000000000000114
        },
        {
          "name": "C3",
          "midi": 48,
          "time": 93.90000000000008,
          "velocity": 0.4881889763779528,
          "duration": 0.29999999999998295
        },
        {
          "name": "F3",
          "midi": 53,
          "time": 93.90500000000007,
          "velocity": 0.4881889763779528,
          "duration": 0.28000000000000114
        },
        {
          "name": "A3",
          "midi": 57,
          "time": 93.90500000000007,
          "velocity": 0.4881889763779528,
          "duration": 0.28000000000000114
        },
        {
          "name": "C3",
          "midi": 48,
          "time": 94.19000000000007,
          "velocity": 0.5984251968503937,
          "duration": 0.5799999999999983
        },
        {
          "name": "C4",
          "midi": 60,
          "time": 94.19500000000006,
          "velocity": 0.6771653543307087,
          "duration": 0.28000000000000114
        },
        {
          "name": "F2",
          "midi": 41,
          "time": 94.20000000000006,
          "velocity": 0.5196850393700787,
          "duration": 0.28000000000000114
        },
        {
          "name": "A3",
          "midi": 57,
          "time": 94.20500000000006,
          "velocity": 0.5984251968503937,
          "duration": 0.30000000000001137
        },
        {
          "name": "F3",
          "midi": 53,
          "time": 94.20500000000006,
          "velocity": 0.5984251968503937,
          "duration": 0.30000000000001137
        },
        {
          "name": "A4",
          "midi": 69,
          "time": 94.21500000000006,
          "velocity": 0.6771653543307087,
          "duration": 0.5800000000000125
        },
        {
          "name": "F4",
          "midi": 65,
          "time": 94.21500000000006,
          "velocity": 0.5984251968503937,
          "duration": 0.5800000000000125
        },
        {
          "name": "F3",
          "midi": 53,
          "time": 94.50500000000007,
          "velocity": 0.5984251968503937,
          "duration": 0.29999999999999716
        },
        {
          "name": "A3",
          "midi": 57,
          "time": 94.50500000000007,
          "velocity": 0.5984251968503937,
          "duration": 0.29999999999999716
        },
        {
          "name": "C4",
          "midi": 60,
          "time": 94.79500000000007,
          "velocity": 0.6771653543307087,
          "duration": 0.2799999999999869
        },
        {
          "name": "F2",
          "midi": 41,
          "time": 94.80000000000007,
          "velocity": 0.5196850393700787,
          "duration": 0.2799999999999869
        },
        {
          "name": "C3",
          "midi": 48,
          "time": 94.80500000000006,
          "velocity": 0.6771653543307087,
          "duration": 0.5799999999999983
        },
        {
          "name": "A4",
          "midi": 69,
          "time": 94.81500000000007,
          "velocity": 0.6771653543307087,
          "duration": 0.5799999999999841
        },
        {
          "name": "F3",
          "midi": 53,
          "time": 94.81500000000007,
          "velocity": 0.6771653543307087,
          "duration": 0.2749999999999915
        },
        {
          "name": "A3",
          "midi": 57,
          "time": 94.81500000000007,
          "velocity": 0.6771653543307087,
          "duration": 0.2749999999999915
        },
        {
          "name": "F4",
          "midi": 65,
          "time": 94.82000000000006,
          "velocity": 0.6771653543307087,
          "duration": 0.5799999999999841
        },
        {
          "name": "F3",
          "midi": 53,
          "time": 95.10500000000006,
          "velocity": 0.5196850393700787,
          "duration": 0.2750000000000057
        },
        {
          "name": "A3",
          "midi": 57,
          "time": 95.10500000000006,
          "velocity": 0.5196850393700787,
          "duration": 0.2750000000000057
        },
        {
          "name": "C3",
          "midi": 48,
          "time": 95.39000000000006,
          "velocity": 0.5984251968503937,
          "duration": 0.5799999999999983
        },
        {
          "name": "A4",
          "midi": 69,
          "time": 95.40000000000005,
          "velocity": 0.6771653543307087,
          "duration": 0.5800000000000125
        },
        {
          "name": "F2",
          "midi": 41,
          "time": 95.40000000000005,
          "velocity": 0.5196850393700787,
          "duration": 0.28000000000000114
        },
        {
          "name": "C4",
          "midi": 60,
          "time": 95.40000000000005,
          "velocity": 0.6771653543307087,
          "duration": 0.28000000000000114
        },
        {
          "name": "A3",
          "midi": 57,
          "time": 95.41500000000005,
          "velocity": 0.5984251968503937,
          "duration": 0.2750000000000057
        },
        {
          "name": "F3",
          "midi": 53,
          "time": 95.41500000000005,
          "velocity": 0.5984251968503937,
          "duration": 0.2750000000000057
        },
        {
          "name": "F4",
          "midi": 65,
          "time": 95.42000000000004,
          "velocity": 0.5984251968503937,
          "duration": 0.5800000000000267
        },
        {
          "name": "F3",
          "midi": 53,
          "time": 95.71500000000006,
          "velocity": 0.5984251968503937,
          "duration": 0.2750000000000057
        },
        {
          "name": "F4",
          "midi": 65,
          "time": 96.00000000000007,
          "velocity": 0.6771653543307087,
          "duration": 0.5800000000000125
        },
        {
          "name": "C4",
          "midi": 60,
          "time": 96.00000000000007,
          "velocity": 0.6771653543307087,
          "duration": 0.28000000000000114
        },
        {
          "name": "A3",
          "midi": 57,
          "time": 96.00000000000007,
          "velocity": 0.6771653543307087,
          "duration": 0.28000000000000114
        },
        {
          "name": "D3",
          "midi": 50,
          "time": 96.00000000000007,
          "velocity": 0.6771653543307087,
          "duration": 0.30000000000001137
        },
        {
          "name": "F2",
          "midi": 41,
          "time": 96.00000000000007,
          "velocity": 0.5196850393700787,
          "duration": 0.28000000000000114
        },
        {
          "name": "D4",
          "midi": 62,
          "time": 96.01000000000008,
          "velocity": 0.6771653543307087,
          "duration": 0.28000000000000114
        },
        {
          "name": "A4",
          "midi": 69,
          "time": 96.01500000000007,
          "velocity": 0.6771653543307087,
          "duration": 0.5799999999999983
        },
        {
          "name": "D3",
          "midi": 50,
          "time": 96.30000000000008,
          "velocity": 0.4881889763779528,
          "duration": 0.29999999999998295
        },
        {
          "name": "D4",
          "midi": 62,
          "time": 96.30500000000008,
          "velocity": 0.4881889763779528,
          "duration": 0.28000000000000114
        },
        {
          "name": "A3",
          "midi": 57,
          "time": 96.30500000000008,
          "velocity": 0.4881889763779528,
          "duration": 0.28000000000000114
        },
        {
          "name": "D4",
          "midi": 62,
          "time": 96.58500000000008,
          "velocity": 0.6771653543307087,
          "duration": 0.2799999999999869
        },
        {
          "name": "D3",
          "midi": 50,
          "time": 96.59000000000007,
          "velocity": 0.5984251968503937,
          "duration": 0.5799999999999983
        },
        {
          "name": "F2",
          "midi": 41,
          "time": 96.60000000000007,
          "velocity": 0.5196850393700787,
          "duration": 0.28000000000000114
        },
        {
          "name": "C4",
          "midi": 60,
          "time": 96.60500000000006,
          "velocity": 0.5984251968503937,
          "duration": 0.30000000000001137
        },
        {
          "name": "A3",
          "midi": 57,
          "time": 96.60500000000006,
          "velocity": 0.5984251968503937,
          "duration": 0.30000000000001137
        },
        {
          "name": "A4",
          "midi": 69,
          "time": 96.61500000000007,
          "velocity": 0.6771653543307087,
          "duration": 0.5800000000000125
        },
        {
          "name": "F4",
          "midi": 65,
          "time": 96.61500000000007,
          "velocity": 0.5984251968503937,
          "duration": 0.5800000000000125
        },
        {
          "name": "A3",
          "midi": 57,
          "time": 96.90500000000007,
          "velocity": 0.4409448818897638,
          "duration": 0.29999999999999716
        },
        {
          "name": "D4",
          "midi": 62,
          "time": 96.90500000000007,
          "velocity": 0.4409448818897638,
          "duration": 0.29999999999999716
        },
        {
          "name": "D4",
          "midi": 62,
          "time": 97.18500000000007,
          "velocity": 0.6771653543307087,
          "duration": 0.28000000000000114
        },
        {
          "name": "F2",
          "midi": 41,
          "time": 97.20000000000007,
          "velocity": 0.5196850393700787,
          "duration": 0.28000000000000114
        },
        {
          "name": "D3",
          "midi": 50,
          "time": 97.20500000000007,
          "velocity": 0.6771653543307087,
          "duration": 0.5800000000000125
        },
        {
          "name": "A3",
          "midi": 57,
          "time": 97.21500000000007,
          "velocity": 0.6771653543307087,
          "duration": 0.2750000000000057
        },
        {
          "name": "C4",
          "midi": 60,
          "time": 97.21500000000007,
          "velocity": 0.6771653543307087,
          "duration": 0.2750000000000057
        },
        {
          "name": "A4",
          "midi": 69,
          "time": 97.21500000000007,
          "velocity": 0.6771653543307087,
          "duration": 0.5799999999999983
        },
        {
          "name": "F4",
          "midi": 65,
          "time": 97.22000000000007,
          "velocity": 0.6771653543307087,
          "duration": 0.5799999999999983
        },
        {
          "name": "A3",
          "midi": 57,
          "time": 97.50500000000008,
          "velocity": 0.3937007874015748,
          "duration": 0.2750000000000057
        },
        {
          "name": "D4",
          "midi": 62,
          "time": 97.50500000000008,
          "velocity": 0.3937007874015748,
          "duration": 0.2750000000000057
        },
        {
          "name": "D3",
          "midi": 50,
          "time": 97.79000000000008,
          "velocity": 0.5984251968503937,
          "duration": 0.5799999999999983
        },
        {
          "name": "D4",
          "midi": 62,
          "time": 97.79000000000008,
          "velocity": 0.6771653543307087,
          "duration": 0.2799999999999869
        },
        {
          "name": "F2",
          "midi": 41,
          "time": 97.80000000000007,
          "velocity": 0.5196850393700787,
          "duration": 0.28000000000000114
        },
        {
          "name": "A4",
          "midi": 69,
          "time": 97.80000000000007,
          "velocity": 0.6771653543307087,
          "duration": 0.5800000000000125
        },
        {
          "name": "C4",
          "midi": 60,
          "time": 97.81500000000007,
          "velocity": 0.5984251968503937,
          "duration": 0.2750000000000057
        },
        {
          "name": "A3",
          "midi": 57,
          "time": 97.81500000000007,
          "velocity": 0.5984251968503937,
          "duration": 0.2750000000000057
        },
        {
          "name": "F4",
          "midi": 65,
          "time": 97.82000000000006,
          "velocity": 0.5984251968503937,
          "duration": 0.5800000000000267
        },
        {
          "name": "A3",
          "midi": 57,
          "time": 98.11500000000008,
          "velocity": 0.5984251968503937,
          "duration": 0.2750000000000057
        },
        {
          "name": "F4",
          "midi": 65,
          "time": 98.40000000000009,
          "velocity": 0.6771653543307087,
          "duration": 0.5799999999999983
        },
        {
          "name": "F3",
          "midi": 53,
          "time": 98.40000000000009,
          "velocity": 0.6771653543307087,
          "duration": 0.29999999999999716
        },
        {
          "name": "A#2",
          "midi": 46,
          "time": 98.40000000000009,
          "velocity": 0.5196850393700787,
          "duration": 0.28000000000000114
        },
        {
          "name": "D4",
          "midi": 62,
          "time": 98.40000000000009,
          "velocity": 0.6771653543307087,
          "duration": 0.28000000000000114
        },
        {
          "name": "A#3",
          "midi": 58,
          "time": 98.40000000000009,
          "velocity": 0.6771653543307087,
          "duration": 0.28000000000000114
        },
        {
          "name": "A#4",
          "midi": 70,
          "time": 98.40500000000009,
          "velocity": 0.6771653543307087,
          "duration": 0.5799999999999983
        },
        {
          "name": "F3",
          "midi": 53,
          "time": 98.70000000000009,
          "velocity": 0.4881889763779528,
          "duration": 0.29999999999999716
        },
        {
          "name": "A#3",
          "midi": 58,
          "time": 98.70500000000008,
          "velocity": 0.4881889763779528,
          "duration": 0.28000000000000114
        },
        {
          "name": "D4",
          "midi": 62,
          "time": 98.98500000000008,
          "velocity": 0.6771653543307087,
          "duration": 0.28000000000000114
        },
        {
          "name": "F3",
          "midi": 53,
          "time": 98.99000000000008,
          "velocity": 0.5984251968503937,
          "duration": 0.5800000000000125
        },
        {
          "name": "A#2",
          "midi": 46,
          "time": 99.00000000000009,
          "velocity": 0.5196850393700787,
          "duration": 0.28000000000000114
        },
        {
          "name": "A#4",
          "midi": 70,
          "time": 99.00500000000008,
          "velocity": 0.6771653543307087,
          "duration": 0.5800000000000125
        },
        {
          "name": "A#3",
          "midi": 58,
          "time": 99.00500000000008,
          "velocity": 0.5984251968503937,
          "duration": 0.30000000000001137
        },
        {
          "name": "F4",
          "midi": 65,
          "time": 99.01500000000009,
          "velocity": 0.5984251968503937,
          "duration": 0.5800000000000125
        },
        {
          "name": "A#3",
          "midi": 58,
          "time": 99.30500000000009,
          "velocity": 0.5984251968503937,
          "duration": 0.29999999999999716
        },
        {
          "name": "D4",
          "midi": 62,
          "time": 99.5850000000001,
          "velocity": 0.6771653543307087,
          "duration": 0.28000000000000114
        },
        {
          "name": "A#2",
          "midi": 46,
          "time": 99.6000000000001,
          "velocity": 0.5196850393700787,
          "duration": 0.28000000000000114
        },
        {
          "name": "F3",
          "midi": 53,
          "time": 99.60500000000009,
          "velocity": 0.6771653543307087,
          "duration": 0.5800000000000125
        },
        {
          "name": "A#4",
          "midi": 70,
          "time": 99.60500000000009,
          "velocity": 0.6771653543307087,
          "duration": 0.5800000000000125
        },
        {
          "name": "A#3",
          "midi": 58,
          "time": 99.6150000000001,
          "velocity": 0.6771653543307087,
          "duration": 0.2750000000000057
        },
        {
          "name": "F4",
          "midi": 65,
          "time": 99.62000000000009,
          "velocity": 0.6771653543307087,
          "duration": 0.5800000000000125
        },
        {
          "name": "A#3",
          "midi": 58,
          "time": 99.9050000000001,
          "velocity": 0.5196850393700787,
          "duration": 0.2750000000000057
        },
        {
          "name": "D4",
          "midi": 62,
          "time": 100.1900000000001,
          "velocity": 0.6771653543307087,
          "duration": 0.28000000000000114
        },
        {
          "name": "A#4",
          "midi": 70,
          "time": 100.1900000000001,
          "velocity": 0.6771653543307087,
          "duration": 0.5800000000000125
        },
        {
          "name": "F3",
          "midi": 53,
          "time": 100.1900000000001,
          "velocity": 0.5984251968503937,
          "duration": 0.5800000000000125
        },
        {
          "name": "A#2",
          "midi": 46,
          "time": 100.2000000000001,
          "velocity": 0.5196850393700787,
          "duration": 0.28000000000000114
        },
        {
          "name": "A#3",
          "midi": 58,
          "time": 100.2150000000001,
          "velocity": 0.5984251968503937,
          "duration": 0.2750000000000057
        },
        {
          "name": "F4",
          "midi": 65,
          "time": 100.2200000000001,
          "velocity": 0.5984251968503937,
          "duration": 0.5800000000000125
        },
        {
          "name": "C4",
          "midi": 60,
          "time": 100.51500000000011,
          "velocity": 0.5984251968503937,
          "duration": 0.2749999999999915
        },
        {
          "name": "F2",
          "midi": 41,
          "time": 100.80000000000011,
          "velocity": 0.5196850393700787,
          "duration": 0.28000000000000114
        },
        {
          "name": "C3",
          "midi": 48,
          "time": 100.80000000000011,
          "velocity": 0.6771653543307087,
          "duration": 0.29999999999999716
        },
        {
          "name": "F4",
          "midi": 65,
          "time": 100.80000000000011,
          "velocity": 0.6771653543307087,
          "duration": 0.5799999999999983
        },
        {
          "name": "A3",
          "midi": 57,
          "time": 100.80000000000011,
          "velocity": 0.6771653543307087,
          "duration": 0.28000000000000114
        },
        {
          "name": "F3",
          "midi": 53,
          "time": 100.80000000000011,
          "velocity": 0.6771653543307087,
          "duration": 0.28000000000000114
        },
        {
          "name": "A4",
          "midi": 69,
          "time": 100.81500000000011,
          "velocity": 0.6771653543307087,
          "duration": 0.5799999999999841
        },
        {
          "name": "C4",
          "midi": 60,
          "time": 100.8200000000001,
          "velocity": 0.6771653543307087,
          "duration": 0.5349999999999966
        },
        {
          "name": "C3",
          "midi": 48,
          "time": 101.10000000000011,
          "velocity": 0.4881889763779528,
          "duration": 0.29999999999998295
        },
        {
          "name": "F3",
          "midi": 53,
          "time": 101.1050000000001,
          "velocity": 0.4881889763779528,
          "duration": 0.28000000000000114
        },
        {
          "name": "A3",
          "midi": 57,
          "time": 101.1050000000001,
          "velocity": 0.4881889763779528,
          "duration": 0.28000000000000114
        },
        {
          "name": "C3",
          "midi": 48,
          "time": 101.3900000000001,
          "velocity": 0.5984251968503937,
          "duration": 0.5799999999999983
        },
        {
          "name": "C4",
          "midi": 60,
          "time": 101.3950000000001,
          "velocity": 0.6771653543307087,
          "duration": 0.5649999999999977
        },
        {
          "name": "F2",
          "midi": 41,
          "time": 101.40000000000009,
          "velocity": 0.5196850393700787,
          "duration": 0.28000000000000114
        },
        {
          "name": "A3",
          "midi": 57,
          "time": 101.40500000000009,
          "velocity": 0.5984251968503937,
          "duration": 0.30000000000001137
        },
        {
          "name": "F3",
          "midi": 53,
          "time": 101.40500000000009,
          "velocity": 0.5984251968503937,
          "duration": 0.30000000000001137
        },
        {
          "name": "A4",
          "midi": 69,
          "time": 101.41500000000009,
          "velocity": 0.6771653543307087,
          "duration": 0.5800000000000125
        },
        {
          "name": "F4",
          "midi": 65,
          "time": 101.41500000000009,
          "velocity": 0.5984251968503937,
          "duration": 0.5800000000000125
        },
        {
          "name": "F3",
          "midi": 53,
          "time": 101.7050000000001,
          "velocity": 0.5984251968503937,
          "duration": 0.29999999999999716
        },
        {
          "name": "A3",
          "midi": 57,
          "time": 101.7050000000001,
          "velocity": 0.5984251968503937,
          "duration": 0.29999999999999716
        },
        {
          "name": "C4",
          "midi": 60,
          "time": 101.9950000000001,
          "velocity": 0.6771653543307087,
          "duration": 0.5750000000000028
        },
        {
          "name": "F2",
          "midi": 41,
          "time": 102.0000000000001,
          "velocity": 0.5196850393700787,
          "duration": 0.28000000000000114
        },
        {
          "name": "C3",
          "midi": 48,
          "time": 102.0050000000001,
          "velocity": 0.6771653543307087,
          "duration": 0.5800000000000125
        },
        {
          "name": "A4",
          "midi": 69,
          "time": 102.0150000000001,
          "velocity": 0.6771653543307087,
          "duration": 0.5799999999999983
        },
        {
          "name": "F3",
          "midi": 53,
          "time": 102.0150000000001,
          "velocity": 0.6771653543307087,
          "duration": 0.2750000000000057
        },
        {
          "name": "A3",
          "midi": 57,
          "time": 102.0150000000001,
          "velocity": 0.6771653543307087,
          "duration": 0.2750000000000057
        },
        {
          "name": "F4",
          "midi": 65,
          "time": 102.0200000000001,
          "velocity": 0.6771653543307087,
          "duration": 0.5799999999999983
        },
        {
          "name": "F3",
          "midi": 53,
          "time": 102.3050000000001,
          "velocity": 0.5196850393700787,
          "duration": 0.2750000000000057
        },
        {
          "name": "A3",
          "midi": 57,
          "time": 102.3050000000001,
          "velocity": 0.5196850393700787,
          "duration": 0.2750000000000057
        },
        {
          "name": "C3",
          "midi": 48,
          "time": 102.5900000000001,
          "velocity": 0.5984251968503937,
          "duration": 0.5799999999999983
        },
        {
          "name": "A4",
          "midi": 69,
          "time": 102.6000000000001,
          "velocity": 0.6771653543307087,
          "duration": 0.5800000000000125
        },
        {
          "name": "F2",
          "midi": 41,
          "time": 102.6000000000001,
          "velocity": 0.5196850393700787,
          "duration": 0.28000000000000114
        },
        {
          "name": "C4",
          "midi": 60,
          "time": 102.6000000000001,
          "velocity": 0.6771653543307087,
          "duration": 0.5700000000000074
        },
        {
          "name": "A3",
          "midi": 57,
          "time": 102.6150000000001,
          "velocity": 0.5984251968503937,
          "duration": 0.2750000000000057
        },
        {
          "name": "F3",
          "midi": 53,
          "time": 102.6150000000001,
          "velocity": 0.5984251968503937,
          "duration": 0.2750000000000057
        },
        {
          "name": "F4",
          "midi": 65,
          "time": 102.62000000000009,
          "velocity": 0.5984251968503937,
          "duration": 0.5450000000000159
        },
        {
          "name": "F3",
          "midi": 53,
          "time": 102.9150000000001,
          "velocity": 0.5984251968503937,
          "duration": 0.2750000000000057
        },
        {
          "name": "F4",
          "midi": 65,
          "time": 103.1950000000001,
          "velocity": 0.5984251968503937,
          "duration": 0.5449999999999733
        },
        {
          "name": "G3",
          "midi": 55,
          "time": 103.2000000000001,
          "velocity": 0.6771653543307087,
          "duration": 0.3049999999999784
        },
        {
          "name": "G4",
          "midi": 67,
          "time": 103.2050000000001,
          "velocity": 0.6771653543307087,
          "duration": 0.5799999999999841
        },
        {
          "name": "C3",
          "midi": 48,
          "time": 103.2050000000001,
          "velocity": 0.6771653543307087,
          "duration": 0.5799999999999841
        },
        {
          "name": "F3",
          "midi": 53,
          "time": 103.2100000000001,
          "velocity": 0.6771653543307087,
          "duration": 0.5799999999999841
        },
        {
          "name": "F2",
          "midi": 41,
          "time": 103.21500000000009,
          "velocity": 0.6771653543307087,
          "duration": 0.5799999999999841
        },
        {
          "name": "C4",
          "midi": 60,
          "time": 103.22000000000008,
          "velocity": 0.6771653543307087,
          "duration": 0.28000000000000114
        },
        {
          "name": "G3",
          "midi": 55,
          "time": 103.51000000000008,
          "velocity": 0.6771653543307087,
          "duration": 0.3049999999999784
        },
        {
          "name": "C4",
          "midi": 60,
          "time": 103.51000000000008,
          "velocity": 0.6771653543307087,
          "duration": 0.28000000000000114
        },
        {
          "name": "F2",
          "midi": 41,
          "time": 103.79500000000007,
          "velocity": 0.5984251968503937,
          "duration": 0.5799999999999841
        },
        {
          "name": "C3",
          "midi": 48,
          "time": 103.79500000000007,
          "velocity": 0.5984251968503937,
          "duration": 0.5799999999999841
        },
        {
          "name": "F4",
          "midi": 65,
          "time": 103.80000000000007,
          "velocity": 0.5354330708661418,
          "duration": 0.5799999999999841
        },
        {
          "name": "G4",
          "midi": 67,
          "time": 103.80500000000006,
          "velocity": 0.6771653543307087,
          "duration": 0.5799999999999841
        },
        {
          "name": "F3",
          "midi": 53,
          "time": 103.81000000000006,
          "velocity": 0.6771653543307087,
          "duration": 0.5799999999999841
        },
        {
          "name": "C4",
          "midi": 60,
          "time": 103.81000000000006,
          "velocity": 0.5984251968503937,
          "duration": 0.28999999999999204
        },
        {
          "name": "G3",
          "midi": 55,
          "time": 103.82000000000005,
          "velocity": 0.6771653543307087,
          "duration": 0.3050000000000068
        },
        {
          "name": "C4",
          "midi": 60,
          "time": 104.10000000000005,
          "velocity": 0.5984251968503937,
          "duration": 0.28999999999999204
        },
        {
          "name": "G3",
          "midi": 55,
          "time": 104.11000000000006,
          "velocity": 0.5984251968503937,
          "duration": 0.2799999999999869
        },
        {
          "name": "F4",
          "midi": 65,
          "time": 104.40500000000004,
          "velocity": 0.5354330708661418,
          "duration": 0.5799999999999841
        },
        {
          "name": "C3",
          "midi": 48,
          "time": 104.40500000000004,
          "velocity": 0.6771653543307087,
          "duration": 0.5799999999999841
        },
        {
          "name": "G4",
          "midi": 67,
          "time": 104.40500000000004,
          "velocity": 0.6771653543307087,
          "duration": 0.5799999999999841
        },
        {
          "name": "F2",
          "midi": 41,
          "time": 104.41000000000004,
          "velocity": 0.6771653543307087,
          "duration": 0.5799999999999841
        },
        {
          "name": "G3",
          "midi": 55,
          "time": 104.41500000000003,
          "velocity": 0.5984251968503937,
          "duration": 0.28000000000000114
        },
        {
          "name": "F3",
          "midi": 53,
          "time": 104.41500000000003,
          "velocity": 0.6771653543307087,
          "duration": 0.5799999999999841
        },
        {
          "name": "C4",
          "midi": 60,
          "time": 104.42000000000003,
          "velocity": 0.6771653543307087,
          "duration": 0.28000000000000114
        },
        {
          "name": "C4",
          "midi": 60,
          "time": 104.70000000000003,
          "velocity": 0.6771653543307087,
          "duration": 0.28000000000000114
        },
        {
          "name": "G3",
          "midi": 55,
          "time": 104.71000000000004,
          "velocity": 0.5984251968503937,
          "duration": 0.2849999999999824
        },
        {
          "name": "F2",
          "midi": 41,
          "time": 104.99500000000002,
          "velocity": 0.5984251968503937,
          "duration": 0.5800000000000125
        },
        {
          "name": "F4",
          "midi": 65,
          "time": 105.00500000000002,
          "velocity": 0.5354330708661418,
          "duration": 0.5799999999999983
        },
        {
          "name": "G3",
          "midi": 55,
          "time": 105.00500000000002,
          "velocity": 0.5984251968503937,
          "duration": 0.2849999999999966
        },
        {
          "name": "C3",
          "midi": 48,
          "time": 105.00500000000002,
          "velocity": 0.5984251968503937,
          "duration": 0.5799999999999983
        },
        {
          "name": "G4",
          "midi": 67,
          "time": 105.00500000000002,
          "velocity": 0.6771653543307087,
          "duration": 0.5799999999999983
        },
        {
          "name": "F3",
          "midi": 53,
          "time": 105.01000000000002,
          "velocity": 0.6771653543307087,
          "duration": 0.5799999999999983
        },
        {
          "name": "C4",
          "midi": 60,
          "time": 105.02000000000002,
          "velocity": 0.5984251968503937,
          "duration": 0.28000000000000114
        },
        {
          "name": "C4",
          "midi": 60,
          "time": 105.30000000000003,
          "velocity": 0.5984251968503937,
          "duration": 0.28000000000000114
        },
        {
          "name": "G3",
          "midi": 55,
          "time": 105.31000000000003,
          "velocity": 0.5984251968503937,
          "duration": 0.29999999999998295
        },
        {
          "name": "D4",
          "midi": 62,
          "time": 105.59500000000001,
          "velocity": 0.5984251968503937,
          "duration": 0.5799999999999983
        },
        {
          "name": "A4",
          "midi": 69,
          "time": 105.60500000000002,
          "velocity": 0.6771653543307087,
          "duration": 0.5799999999999983
        },
        {
          "name": "A3",
          "midi": 57,
          "time": 105.60500000000002,
          "velocity": 0.6771653543307087,
          "duration": 0.28999999999999204
        },
        {
          "name": "D3",
          "midi": 50,
          "time": 105.61500000000001,
          "velocity": 0.6771653543307087,
          "duration": 0.5800000000000125
        },
        {
          "name": "C4",
          "midi": 60,
          "time": 105.61500000000001,
          "velocity": 0.6771653543307087,
          "duration": 0.5800000000000125
        },
        {
          "name": "A3",
          "midi": 57,
          "time": 105.915,
          "velocity": 0.5748031496062992,
          "duration": 0.29000000000002046
        },
        {
          "name": "A3",
          "midi": 57,
          "time": 106.19500000000002,
          "velocity": 0.5984251968503937,
          "duration": 0.29000000000000625
        },
        {
          "name": "D3",
          "midi": 50,
          "time": 106.19500000000002,
          "velocity": 0.5984251968503937,
          "duration": 0.5799999999999983
        },
        {
          "name": "A4",
          "midi": 69,
          "time": 106.20500000000003,
          "velocity": 0.6771653543307087,
          "duration": 0.5799999999999983
        },
        {
          "name": "C4",
          "midi": 60,
          "time": 106.20500000000003,
          "velocity": 0.5984251968503937,
          "duration": 0.5799999999999983
        },
        {
          "name": "D4",
          "midi": 62,
          "time": 106.21000000000002,
          "velocity": 0.5984251968503937,
          "duration": 0.5799999999999983
        },
        {
          "name": "A3",
          "midi": 57,
          "time": 106.50500000000002,
          "velocity": 0.6299212598425197,
          "duration": 0.28999999999999204
        },
        {
          "name": "A4",
          "midi": 69,
          "time": 106.80500000000002,
          "velocity": 0.6771653543307087,
          "duration": 0.5799999999999841
        },
        {
          "name": "A3",
          "midi": 57,
          "time": 106.81000000000002,
          "velocity": 0.6771653543307087,
          "duration": 0.28999999999999204
        },
        {
          "name": "D3",
          "midi": 50,
          "time": 106.81000000000002,
          "velocity": 0.6771653543307087,
          "duration": 0.5799999999999841
        },
        {
          "name": "D4",
          "midi": 62,
          "time": 106.81500000000001,
          "velocity": 0.6771653543307087,
          "duration": 0.5799999999999841
        },
        {
          "name": "C4",
          "midi": 60,
          "time": 106.81500000000001,
          "velocity": 0.6771653543307087,
          "duration": 0.5799999999999841
        },
        {
          "name": "A3",
          "midi": 57,
          "time": 107.10000000000001,
          "velocity": 0.5748031496062992,
          "duration": 0.28999999999999204
        },
        {
          "name": "D3",
          "midi": 50,
          "time": 107.395,
          "velocity": 0.5984251968503937,
          "duration": 0.5799999999999841
        },
        {
          "name": "A4",
          "midi": 69,
          "time": 107.405,
          "velocity": 0.6771653543307087,
          "duration": 0.5799999999999841
        },
        {
          "name": "A3",
          "midi": 57,
          "time": 107.41,
          "velocity": 0.5984251968503937,
          "duration": 0.28999999999999204
        },
        {
          "name": "D4",
          "midi": 62,
          "time": 107.41499999999999,
          "velocity": 0.5984251968503937,
          "duration": 0.5799999999999983
        },
        {
          "name": "C4",
          "midi": 60,
          "time": 107.41499999999999,
          "velocity": 0.5984251968503937,
          "duration": 0.5799999999999983
        },
        {
          "name": "A3",
          "midi": 57,
          "time": 107.70499999999998,
          "velocity": 0.6299212598425197,
          "duration": 0.29000000000000625
        },
        {
          "name": "D4",
          "midi": 62,
          "time": 107.99999999999999,
          "velocity": 0.6771653543307087,
          "duration": 0.5799999999999983
        },
        {
          "name": "A#4",
          "midi": 70,
          "time": 108.00999999999999,
          "velocity": 0.6771653543307087,
          "duration": 0.5799999999999841
        },
        {
          "name": "A#2",
          "midi": 46,
          "time": 108.00999999999999,
          "velocity": 0.6771653543307087,
          "duration": 0.5799999999999841
        },
        {
          "name": "A#3",
          "midi": 58,
          "time": 108.00999999999999,
          "velocity": 0.6771653543307087,
          "duration": 0.28999999999999204
        },
        {
          "name": "F3",
          "midi": 53,
          "time": 108.01499999999999,
          "velocity": 0.6771653543307087,
          "duration": 0.28000000000000114
        },
        {
          "name": "F3",
          "midi": 53,
          "time": 108.30499999999998,
          "velocity": 0.5196850393700787,
          "duration": 0.28000000000000114
        },
        {
          "name": "A#3",
          "midi": 58,
          "time": 108.31999999999998,
          "velocity": 0.5748031496062992,
          "duration": 0.28999999999999204
        },
        {
          "name": "A#2",
          "midi": 46,
          "time": 108.58999999999997,
          "velocity": 0.5984251968503937,
          "duration": 0.5799999999999983
        },
        {
          "name": "A#3",
          "midi": 58,
          "time": 108.59999999999998,
          "velocity": 0.5984251968503937,
          "duration": 0.28999999999999204
        },
        {
          "name": "F3",
          "midi": 53,
          "time": 108.60499999999998,
          "velocity": 0.5984251968503937,
          "duration": 0.5799999999999983
        },
        {
          "name": "A#4",
          "midi": 70,
          "time": 108.60999999999997,
          "velocity": 0.6771653543307087,
          "duration": 0.5799999999999983
        },
        {
          "name": "D4",
          "midi": 62,
          "time": 108.61499999999997,
          "velocity": 0.5984251968503937,
          "duration": 0.5799999999999983
        },
        {
          "name": "A#3",
          "midi": 58,
          "time": 108.89999999999998,
          "velocity": 0.6299212598425197,
          "duration": 0.28999999999999204
        },
        {
          "name": "A#2",
          "midi": 46,
          "time": 109.20499999999997,
          "velocity": 0.6771653543307087,
          "duration": 0.5799999999999841
        },
        {
          "name": "A#4",
          "midi": 70,
          "time": 109.20999999999997,
          "velocity": 0.6771653543307087,
          "duration": 0.5799999999999841
        },
        {
          "name": "A#3",
          "midi": 58,
          "time": 109.21499999999996,
          "velocity": 0.6771653543307087,
          "duration": 0.28999999999999204
        },
        {
          "name": "F3",
          "midi": 53,
          "time": 109.21499999999996,
          "velocity": 0.6771653543307087,
          "duration": 0.2749999999999915
        },
        {
          "name": "D4",
          "midi": 62,
          "time": 109.21999999999996,
          "velocity": 0.6771653543307087,
          "duration": 0.5799999999999841
        },
        {
          "name": "A#3",
          "midi": 58,
          "time": 109.50499999999995,
          "velocity": 0.5748031496062992,
          "duration": 0.28999999999999204
        },
        {
          "name": "F3",
          "midi": 53,
          "time": 109.50499999999995,
          "velocity": 0.5196850393700787,
          "duration": 0.2750000000000057
        },
        {
          "name": "A#2",
          "midi": 46,
          "time": 109.78999999999995,
          "velocity": 0.5984251968503937,
          "duration": 0.5799999999999841
        },
        {
          "name": "A#4",
          "midi": 70,
          "time": 109.80999999999995,
          "velocity": 0.6771653543307087,
          "duration": 0.5799999999999841
        },
        {
          "name": "F3",
          "midi": 53,
          "time": 109.81499999999994,
          "velocity": 0.5984251968503937,
          "duration": 0.5799999999999841
        },
        {
          "name": "A#3",
          "midi": 58,
          "time": 109.81499999999994,
          "velocity": 0.5984251968503937,
          "duration": 0.28999999999999204
        },
        {
          "name": "D4",
          "midi": 62,
          "time": 109.81999999999994,
          "velocity": 0.5984251968503937,
          "duration": 0.5799999999999841
        },
        {
          "name": "C4",
          "midi": 60,
          "time": 110.10999999999993,
          "velocity": 0.6535433070866141,
          "duration": 0.28999999999999204
        },
        {
          "name": "A4",
          "midi": 69,
          "time": 110.40499999999992,
          "velocity": 0.6771653543307087,
          "duration": 0.5799999999999983
        },
        {
          "name": "A3",
          "midi": 57,
          "time": 110.40499999999992,
          "velocity": 0.6771653543307087,
          "duration": 0.28999999999999204
        },
        {
          "name": "C3",
          "midi": 48,
          "time": 110.40499999999992,
          "velocity": 0.6771653543307087,
          "duration": 0.5799999999999983
        },
        {
          "name": "F3",
          "midi": 53,
          "time": 110.40999999999991,
          "velocity": 0.6771653543307087,
          "duration": 0.3050000000000068
        },
        {
          "name": "F4",
          "midi": 65,
          "time": 110.40999999999991,
          "velocity": 0.48031496062992124,
          "duration": 0.5799999999999983
        },
        {
          "name": "F2",
          "midi": 41,
          "time": 110.40999999999991,
          "velocity": 0.6771653543307087,
          "duration": 0.5799999999999983
        },
        {
          "name": "C4",
          "midi": 60,
          "time": 110.4149999999999,
          "velocity": 0.6771653543307087,
          "duration": 0.5799999999999983
        },
        {
          "name": "F3",
          "midi": 53,
          "time": 110.70499999999991,
          "velocity": 0.6771653543307087,
          "duration": 0.3049999999999784
        },
        {
          "name": "A3",
          "midi": 57,
          "time": 110.71499999999992,
          "velocity": 0.5748031496062992,
          "duration": 0.28999999999997783
        },
        {
          "name": "F2",
          "midi": 41,
          "time": 110.98999999999991,
          "velocity": 0.5984251968503937,
          "duration": 0.5799999999999841
        },
        {
          "name": "C3",
          "midi": 48,
          "time": 110.9949999999999,
          "velocity": 0.5984251968503937,
          "duration": 0.5799999999999841
        },
        {
          "name": "A3",
          "midi": 57,
          "time": 110.9949999999999,
          "velocity": 0.5984251968503937,
          "duration": 0.28999999999999204
        },
        {
          "name": "F4",
          "midi": 65,
          "time": 110.9999999999999,
          "velocity": 0.4251968503937008,
          "duration": 0.5799999999999841
        },
        {
          "name": "C4",
          "midi": 60,
          "time": 111.0049999999999,
          "velocity": 0.5984251968503937,
          "duration": 0.5799999999999841
        },
        {
          "name": "A4",
          "midi": 69,
          "time": 111.0049999999999,
          "velocity": 0.6771653543307087,
          "duration": 0.5799999999999841
        },
        {
          "name": "F3",
          "midi": 53,
          "time": 111.0049999999999,
          "velocity": 0.5984251968503937,
          "duration": 0.29999999999999716
        },
        {
          "name": "A3",
          "midi": 57,
          "time": 111.3049999999999,
          "velocity": 0.6299212598425197,
          "duration": 0.28999999999999204
        },
        {
          "name": "F3",
          "midi": 53,
          "time": 111.3049999999999,
          "velocity": 0.5984251968503937,
          "duration": 0.29999999999999716
        },
        {
          "name": "A4",
          "midi": 69,
          "time": 111.60499999999989,
          "velocity": 0.6771653543307087,
          "duration": 0.5799999999999841
        },
        {
          "name": "F2",
          "midi": 41,
          "time": 111.60499999999989,
          "velocity": 0.6771653543307087,
          "duration": 0.5799999999999841
        },
        {
          "name": "F3",
          "midi": 53,
          "time": 111.60499999999989,
          "velocity": 0.6771653543307087,
          "duration": 0.29999999999998295
        },
        {
          "name": "C3",
          "midi": 48,
          "time": 111.60499999999989,
          "velocity": 0.6771653543307087,
          "duration": 0.5799999999999841
        },
        {
          "name": "F4",
          "midi": 65,
          "time": 111.60999999999989,
          "velocity": 0.48031496062992124,
          "duration": 0.5799999999999841
        },
        {
          "name": "A3",
          "midi": 57,
          "time": 111.60999999999989,
          "velocity": 0.6771653543307087,
          "duration": 0.28999999999999204
        },
        {
          "name": "C4",
          "midi": 60,
          "time": 111.61499999999988,
          "velocity": 0.6771653543307087,
          "duration": 0.5799999999999841
        },
        {
          "name": "A3",
          "midi": 57,
          "time": 111.89999999999988,
          "velocity": 0.5748031496062992,
          "duration": 0.28999999999999204
        },
        {
          "name": "F3",
          "midi": 53,
          "time": 111.90499999999987,
          "velocity": 0.5984251968503937,
          "duration": 0.29999999999999716
        },
        {
          "name": "F2",
          "midi": 41,
          "time": 112.18999999999987,
          "velocity": 0.5984251968503937,
          "duration": 0.5799999999999841
        },
        {
          "name": "C3",
          "midi": 48,
          "time": 112.20499999999987,
          "velocity": 0.5984251968503937,
          "duration": 0.5799999999999841
        },
        {
          "name": "A4",
          "midi": 69,
          "time": 112.20499999999987,
          "velocity": 0.6771653543307087,
          "duration": 0.5799999999999841
        },
        {
          "name": "F3",
          "midi": 53,
          "time": 112.20499999999987,
          "velocity": 0.5984251968503937,
          "duration": 0.29999999999998295
        },
        {
          "name": "F4",
          "midi": 65,
          "time": 112.20999999999987,
          "velocity": 0.4251968503937008,
          "duration": 0.5799999999999841
        },
        {
          "name": "A3",
          "midi": 57,
          "time": 112.20999999999987,
          "velocity": 0.5984251968503937,
          "duration": 0.28999999999999204
        },
        {
          "name": "C4",
          "midi": 60,
          "time": 112.21499999999986,
          "velocity": 0.5984251968503937,
          "duration": 0.5799999999999841
        },
        {
          "name": "F3",
          "midi": 53,
          "time": 112.50499999999985,
          "velocity": 0.5984251968503937,
          "duration": 0.29999999999998295
        },
        {
          "name": "A3",
          "midi": 57,
          "time": 112.50499999999985,
          "velocity": 0.6299212598425197,
          "duration": 0.28999999999999204
        },
        {
          "name": "F4",
          "midi": 65,
          "time": 112.79999999999984,
          "velocity": 0.5354330708661418,
          "duration": 0.5799999999999699
        },
        {
          "name": "A3",
          "midi": 57,
          "time": 112.80499999999984,
          "velocity": 0.6771653543307087,
          "duration": 0.3049999999999784
        },
        {
          "name": "A4",
          "midi": 69,
          "time": 112.80499999999984,
          "velocity": 0.6771653543307087,
          "duration": 0.5799999999999699
        },
        {
          "name": "C3",
          "midi": 48,
          "time": 112.80999999999983,
          "velocity": 0.6771653543307087,
          "duration": 0.5799999999999699
        },
        {
          "name": "F3",
          "midi": 53,
          "time": 112.81499999999983,
          "velocity": 0.6771653543307087,
          "duration": 0.5799999999999699
        },
        {
          "name": "F2",
          "midi": 41,
          "time": 112.81999999999982,
          "velocity": 0.6771653543307087,
          "duration": 0.5799999999999699
        },
        {
          "name": "C4",
          "midi": 60,
          "time": 112.82499999999982,
          "velocity": 0.6771653543307087,
          "duration": 0.28000000000000114
        },
        {
          "name": "A3",
          "midi": 57,
          "time": 113.11499999999981,
          "velocity": 0.6771653543307087,
          "duration": 0.3049999999999784
        },
        {
          "name": "C4",
          "midi": 60,
          "time": 113.11499999999981,
          "velocity": 0.6771653543307087,
          "duration": 0.2799999999999869
        },
        {
          "name": "C3",
          "midi": 48,
          "time": 113.39999999999979,
          "velocity": 0.5984251968503937,
          "duration": 0.5799999999999983
        },
        {
          "name": "F2",
          "midi": 41,
          "time": 113.39999999999979,
          "velocity": 0.5984251968503937,
          "duration": 0.5799999999999983
        },
        {
          "name": "F4",
          "midi": 65,
          "time": 113.40499999999979,
          "velocity": 0.5354330708661418,
          "duration": 0.5799999999999983
        },
        {
          "name": "A4",
          "midi": 69,
          "time": 113.40499999999979,
          "velocity": 0.6771653543307087,
          "duration": 0.5799999999999983
        },
        {
          "name": "F3",
          "midi": 53,
          "time": 113.4149999999998,
          "velocity": 0.6771653543307087,
          "duration": 0.5799999999999983
        },
        {
          "name": "C4",
          "midi": 60,
          "time": 113.4149999999998,
          "velocity": 0.5984251968503937,
          "duration": 0.28999999999999204
        },
        {
          "name": "A3",
          "midi": 57,
          "time": 113.42499999999978,
          "velocity": 0.6771653543307087,
          "duration": 0.3050000000000068
        },
        {
          "name": "C4",
          "midi": 60,
          "time": 113.70499999999979,
          "velocity": 0.5984251968503937,
          "duration": 0.29000000000000625
        },
        {
          "name": "A3",
          "midi": 57,
          "time": 113.71499999999979,
          "velocity": 0.5984251968503937,
          "duration": 0.28000000000000114
        },
        {
          "name": "A4",
          "midi": 69,
          "time": 114.0049999999998,
          "velocity": 0.6771653543307087,
          "duration": 0.5799999999999841
        },
        {
          "name": "C3",
          "midi": 48,
          "time": 114.00999999999979,
          "velocity": 0.6771653543307087,
          "duration": 0.5799999999999841
        },
        {
          "name": "F4",
          "midi": 65,
          "time": 114.00999999999979,
          "velocity": 0.5354330708661418,
          "duration": 0.5799999999999841
        },
        {
          "name": "F2",
          "midi": 41,
          "time": 114.01499999999979,
          "velocity": 0.6771653543307087,
          "duration": 0.5799999999999841
        },
        {
          "name": "F3",
          "midi": 53,
          "time": 114.01999999999978,
          "velocity": 0.6771653543307087,
          "duration": 0.5799999999999841
        },
        {
          "name": "A3",
          "midi": 57,
          "time": 114.01999999999978,
          "velocity": 0.5984251968503937,
          "duration": 0.28000000000000114
        },
        {
          "name": "C4",
          "midi": 60,
          "time": 114.02499999999978,
          "velocity": 0.6771653543307087,
          "duration": 0.28000000000000114
        },
        {
          "name": "C4",
          "midi": 60,
          "time": 114.30499999999978,
          "velocity": 0.6771653543307087,
          "duration": 0.28000000000000114
        },
        {
          "name": "A3",
          "midi": 57,
          "time": 114.31499999999978,
          "velocity": 0.5984251968503937,
          "duration": 0.2849999999999824
        },
        {
          "name": "F2",
          "midi": 41,
          "time": 114.59999999999977,
          "velocity": 0.5984251968503937,
          "duration": 0.5799999999999983
        },
        {
          "name": "A4",
          "midi": 69,
          "time": 114.60499999999976,
          "velocity": 0.6771653543307087,
          "duration": 0.5799999999999983
        },
        {
          "name": "F4",
          "midi": 65,
          "time": 114.60999999999976,
          "velocity": 0.5354330708661418,
          "duration": 0.5799999999999983
        },
        {
          "name": "C3",
          "midi": 48,
          "time": 114.60999999999976,
          "velocity": 0.5984251968503937,
          "duration": 0.5799999999999983
        },
        {
          "name": "A3",
          "midi": 57,
          "time": 114.60999999999976,
          "velocity": 0.5984251968503937,
          "duration": 0.2849999999999966
        },
        {
          "name": "F3",
          "midi": 53,
          "time": 114.61499999999975,
          "velocity": 0.6771653543307087,
          "duration": 0.5799999999999983
        },
        {
          "name": "C4",
          "midi": 60,
          "time": 114.62499999999976,
          "velocity": 0.5984251968503937,
          "duration": 0.28000000000000114
        },
        {
          "name": "C4",
          "midi": 60,
          "time": 114.90499999999976,
          "velocity": 0.5984251968503937,
          "duration": 0.28000000000000114
        },
        {
          "name": "A3",
          "midi": 57,
          "time": 114.91499999999976,
          "velocity": 0.5984251968503937,
          "duration": 0.29999999999999716
        },
        {
          "name": "D4",
          "midi": 62,
          "time": 115.18999999999976,
          "velocity": 0.6771653543307087,
          "duration": 0.5799999999999983
        },
        {
          "name": "A4",
          "midi": 69,
          "time": 115.20499999999976,
          "velocity": 0.6771653543307087,
          "duration": 0.5799999999999983
        },
        {
          "name": "A3",
          "midi": 57,
          "time": 115.20499999999976,
          "velocity": 0.6771653543307087,
          "duration": 0.29000000000000625
        },
        {
          "name": "D3",
          "midi": 50,
          "time": 115.21499999999976,
          "velocity": 0.6771653543307087,
          "duration": 0.5799999999999983
        },
        {
          "name": "C4",
          "midi": 60,
          "time": 115.21499999999976,
          "velocity": 0.6771653543307087,
          "duration": 0.5799999999999983
        },
        {
          "name": "A3",
          "midi": 57,
          "time": 115.51499999999976,
          "velocity": 0.5748031496062992,
          "duration": 0.29000000000000625
        },
        {
          "name": "A3",
          "midi": 57,
          "time": 115.79499999999976,
          "velocity": 0.5984251968503937,
          "duration": 0.29000000000000625
        },
        {
          "name": "D3",
          "midi": 50,
          "time": 115.79499999999976,
          "velocity": 0.5984251968503937,
          "duration": 0.5799999999999983
        },
        {
          "name": "A4",
          "midi": 69,
          "time": 115.80499999999977,
          "velocity": 0.6771653543307087,
          "duration": 0.5799999999999983
        },
        {
          "name": "C4",
          "midi": 60,
          "time": 115.80499999999977,
          "velocity": 0.5984251968503937,
          "duration": 0.5799999999999983
        },
        {
          "name": "D4",
          "midi": 62,
          "time": 115.80999999999976,
          "velocity": 0.5984251968503937,
          "duration": 0.5799999999999983
        },
        {
          "name": "A3",
          "midi": 57,
          "time": 116.10499999999976,
          "velocity": 0.6299212598425197,
          "duration": 0.28999999999999204
        },
        {
          "name": "A4",
          "midi": 69,
          "time": 116.40499999999976,
          "velocity": 0.6771653543307087,
          "duration": 0.5799999999999841
        },
        {
          "name": "A3",
          "midi": 57,
          "time": 116.40999999999976,
          "velocity": 0.6771653543307087,
          "duration": 0.28999999999999204
        },
        {
          "name": "D3",
          "midi": 50,
          "time": 116.40999999999976,
          "velocity": 0.6771653543307087,
          "duration": 0.5799999999999841
        },
        {
          "name": "D4",
          "midi": 62,
          "time": 116.41499999999975,
          "velocity": 0.6771653543307087,
          "duration": 0.5799999999999841
        },
        {
          "name": "C4",
          "midi": 60,
          "time": 116.41499999999975,
          "velocity": 0.6771653543307087,
          "duration": 0.5799999999999841
        },
        {
          "name": "A3",
          "midi": 57,
          "time": 116.69999999999975,
          "velocity": 0.5748031496062992,
          "duration": 0.28999999999999204
        },
        {
          "name": "D3",
          "midi": 50,
          "time": 116.99499999999973,
          "velocity": 0.5984251968503937,
          "duration": 0.5799999999999841
        },
        {
          "name": "A4",
          "midi": 69,
          "time": 117.00499999999974,
          "velocity": 0.6771653543307087,
          "duration": 0.5799999999999841
        },
        {
          "name": "A3",
          "midi": 57,
          "time": 117.00999999999974,
          "velocity": 0.5984251968503937,
          "duration": 0.28999999999999204
        },
        {
          "name": "D4",
          "midi": 62,
          "time": 117.01499999999973,
          "velocity": 0.5984251968503937,
          "duration": 0.5799999999999983
        },
        {
          "name": "C4",
          "midi": 60,
          "time": 117.01499999999973,
          "velocity": 0.5984251968503937,
          "duration": 0.5799999999999983
        },
        {
          "name": "A3",
          "midi": 57,
          "time": 117.30499999999972,
          "velocity": 0.6299212598425197,
          "duration": 0.29000000000000625
        },
        {
          "name": "D4",
          "midi": 62,
          "time": 117.59999999999972,
          "velocity": 0.6771653543307087,
          "duration": 0.5799999999999983
        },
        {
          "name": "A#4",
          "midi": 70,
          "time": 117.60999999999973,
          "velocity": 0.6771653543307087,
          "duration": 0.5799999999999841
        },
        {
          "name": "A#2",
          "midi": 46,
          "time": 117.60999999999973,
          "velocity": 0.6771653543307087,
          "duration": 0.5799999999999841
        },
        {
          "name": "A#3",
          "midi": 58,
          "time": 117.60999999999973,
          "velocity": 0.6771653543307087,
          "duration": 0.28999999999999204
        },
        {
          "name": "F3",
          "midi": 53,
          "time": 117.61499999999972,
          "velocity": 0.6771653543307087,
          "duration": 0.28000000000000114
        },
        {
          "name": "F3",
          "midi": 53,
          "time": 117.90499999999972,
          "velocity": 0.5196850393700787,
          "duration": 0.28000000000000114
        },
        {
          "name": "A#3",
          "midi": 58,
          "time": 117.91999999999972,
          "velocity": 0.5748031496062992,
          "duration": 0.28999999999999204
        },
        {
          "name": "A#2",
          "midi": 46,
          "time": 118.18999999999971,
          "velocity": 0.5984251968503937,
          "duration": 0.5799999999999983
        },
        {
          "name": "A#3",
          "midi": 58,
          "time": 118.19999999999972,
          "velocity": 0.5984251968503937,
          "duration": 0.28999999999999204
        },
        {
          "name": "F3",
          "midi": 53,
          "time": 118.20499999999971,
          "velocity": 0.5984251968503937,
          "duration": 0.5799999999999983
        },
        {
          "name": "A#4",
          "midi": 70,
          "time": 118.20999999999971,
          "velocity": 0.6771653543307087,
          "duration": 0.5799999999999983
        },
        {
          "name": "D4",
          "midi": 62,
          "time": 118.2149999999997,
          "velocity": 0.5984251968503937,
          "duration": 0.5799999999999983
        },
        {
          "name": "A#3",
          "midi": 58,
          "time": 118.49999999999972,
          "velocity": 0.6299212598425197,
          "duration": 0.28999999999999204
        },
        {
          "name": "A#2",
          "midi": 46,
          "time": 118.80499999999971,
          "velocity": 0.6771653543307087,
          "duration": 0.5799999999999841
        },
        {
          "name": "A#4",
          "midi": 70,
          "time": 118.8099999999997,
          "velocity": 0.6771653543307087,
          "duration": 0.5799999999999841
        },
        {
          "name": "A#3",
          "midi": 58,
          "time": 118.8149999999997,
          "velocity": 0.6771653543307087,
          "duration": 0.28999999999999204
        },
        {
          "name": "F3",
          "midi": 53,
          "time": 118.8149999999997,
          "velocity": 0.6771653543307087,
          "duration": 0.2749999999999915
        },
        {
          "name": "D4",
          "midi": 62,
          "time": 118.8199999999997,
          "velocity": 0.6771653543307087,
          "duration": 0.5799999999999841
        },
        {
          "name": "A#3",
          "midi": 58,
          "time": 119.10499999999969,
          "velocity": 0.5748031496062992,
          "duration": 0.28999999999999204
        },
        {
          "name": "F3",
          "midi": 53,
          "time": 119.10499999999969,
          "velocity": 0.5196850393700787,
          "duration": 0.2750000000000057
        },
        {
          "name": "A#2",
          "midi": 46,
          "time": 119.38999999999969,
          "velocity": 0.5984251968503937,
          "duration": 0.5799999999999841
        },
        {
          "name": "A#4",
          "midi": 70,
          "time": 119.40999999999968,
          "velocity": 0.6771653543307087,
          "duration": 0.5799999999999841
        },
        {
          "name": "F3",
          "midi": 53,
          "time": 119.41499999999968,
          "velocity": 0.5984251968503937,
          "duration": 0.5799999999999841
        },
        {
          "name": "A#3",
          "midi": 58,
          "time": 119.41499999999968,
          "velocity": 0.5984251968503937,
          "duration": 0.28999999999999204
        },
        {
          "name": "D4",
          "midi": 62,
          "time": 119.41999999999967,
          "velocity": 0.5984251968503937,
          "duration": 0.5799999999999841
        },
        {
          "name": "C4",
          "midi": 60,
          "time": 119.70999999999967,
          "velocity": 0.6535433070866141,
          "duration": 0.28999999999999204
        },
        {
          "name": "A4",
          "midi": 69,
          "time": 120.00499999999965,
          "velocity": 0.6771653543307087,
          "duration": 0.5799999999999983
        },
        {
          "name": "A3",
          "midi": 57,
          "time": 120.00499999999965,
          "velocity": 0.6771653543307087,
          "duration": 0.28999999999999204
        },
        {
          "name": "C3",
          "midi": 48,
          "time": 120.00499999999965,
          "velocity": 0.6771653543307087,
          "duration": 0.5799999999999983
        },
        {
          "name": "F3",
          "midi": 53,
          "time": 120.00999999999965,
          "velocity": 0.6771653543307087,
          "duration": 0.3050000000000068
        },
        {
          "name": "F4",
          "midi": 65,
          "time": 120.00999999999965,
          "velocity": 0.48031496062992124,
          "duration": 0.5799999999999983
        },
        {
          "name": "F2",
          "midi": 41,
          "time": 120.00999999999965,
          "velocity": 0.6771653543307087,
          "duration": 0.5799999999999983
        },
        {
          "name": "C4",
          "midi": 60,
          "time": 120.01499999999965,
          "velocity": 0.6771653543307087,
          "duration": 0.5799999999999983
        },
        {
          "name": "F3",
          "midi": 53,
          "time": 120.30499999999965,
          "velocity": 0.6771653543307087,
          "duration": 0.3049999999999784
        },
        {
          "name": "A3",
          "midi": 57,
          "time": 120.31499999999966,
          "velocity": 0.5748031496062992,
          "duration": 0.28999999999997783
        },
        {
          "name": "F2",
          "midi": 41,
          "time": 120.58999999999965,
          "velocity": 0.5984251968503937,
          "duration": 0.5799999999999841
        },
        {
          "name": "C3",
          "midi": 48,
          "time": 120.59499999999964,
          "velocity": 0.5984251968503937,
          "duration": 0.5799999999999841
        },
        {
          "name": "A3",
          "midi": 57,
          "time": 120.59499999999964,
          "velocity": 0.5984251968503937,
          "duration": 0.28999999999999204
        },
        {
          "name": "F4",
          "midi": 65,
          "time": 120.59999999999964,
          "velocity": 0.4251968503937008,
          "duration": 0.5799999999999841
        },
        {
          "name": "C4",
          "midi": 60,
          "time": 120.60499999999963,
          "velocity": 0.5984251968503937,
          "duration": 0.5799999999999841
        },
        {
          "name": "A4",
          "midi": 69,
          "time": 120.60499999999963,
          "velocity": 0.6771653543307087,
          "duration": 0.5799999999999841
        },
        {
          "name": "F3",
          "midi": 53,
          "time": 120.60499999999963,
          "velocity": 0.5984251968503937,
          "duration": 0.29999999999999716
        },
        {
          "name": "A3",
          "midi": 57,
          "time": 120.90499999999963,
          "velocity": 0.6299212598425197,
          "duration": 0.28999999999999204
        },
        {
          "name": "F3",
          "midi": 53,
          "time": 120.90499999999963,
          "velocity": 0.5984251968503937,
          "duration": 0.29999999999999716
        },
        {
          "name": "A4",
          "midi": 69,
          "time": 121.20499999999963,
          "velocity": 0.6771653543307087,
          "duration": 0.5799999999999841
        },
        {
          "name": "F2",
          "midi": 41,
          "time": 121.20499999999963,
          "velocity": 0.6771653543307087,
          "duration": 0.5799999999999841
        },
        {
          "name": "F3",
          "midi": 53,
          "time": 121.20499999999963,
          "velocity": 0.6771653543307087,
          "duration": 0.29999999999998295
        },
        {
          "name": "C3",
          "midi": 48,
          "time": 121.20499999999963,
          "velocity": 0.6771653543307087,
          "duration": 0.5799999999999841
        },
        {
          "name": "F4",
          "midi": 65,
          "time": 121.20999999999962,
          "velocity": 0.48031496062992124,
          "duration": 0.5799999999999841
        },
        {
          "name": "A3",
          "midi": 57,
          "time": 121.20999999999962,
          "velocity": 0.6771653543307087,
          "duration": 0.28999999999999204
        },
        {
          "name": "C4",
          "midi": 60,
          "time": 121.21499999999962,
          "velocity": 0.6771653543307087,
          "duration": 0.5799999999999841
        },
        {
          "name": "A3",
          "midi": 57,
          "time": 121.49999999999962,
          "velocity": 0.5748031496062992,
          "duration": 0.28999999999999204
        },
        {
          "name": "F3",
          "midi": 53,
          "time": 121.50499999999961,
          "velocity": 0.5984251968503937,
          "duration": 0.29999999999999716
        },
        {
          "name": "F2",
          "midi": 41,
          "time": 121.78999999999961,
          "velocity": 0.5984251968503937,
          "duration": 0.5799999999999841
        },
        {
          "name": "C3",
          "midi": 48,
          "time": 121.80499999999961,
          "velocity": 0.5984251968503937,
          "duration": 0.5799999999999841
        },
        {
          "name": "A4",
          "midi": 69,
          "time": 121.80499999999961,
          "velocity": 0.6771653543307087,
          "duration": 0.5799999999999841
        },
        {
          "name": "F3",
          "midi": 53,
          "time": 121.80499999999961,
          "velocity": 0.5984251968503937,
          "duration": 0.29999999999998295
        },
        {
          "name": "F4",
          "midi": 65,
          "time": 121.8099999999996,
          "velocity": 0.4251968503937008,
          "duration": 0.5799999999999841
        },
        {
          "name": "A3",
          "midi": 57,
          "time": 121.8099999999996,
          "velocity": 0.5984251968503937,
          "duration": 0.28999999999999204
        },
        {
          "name": "C4",
          "midi": 60,
          "time": 121.8149999999996,
          "velocity": 0.5984251968503937,
          "duration": 0.5799999999999841
        },
        {
          "name": "F3",
          "midi": 53,
          "time": 122.10499999999959,
          "velocity": 0.5984251968503937,
          "duration": 0.29999999999998295
        },
        {
          "name": "A3",
          "midi": 57,
          "time": 122.10499999999959,
          "velocity": 0.6299212598425197,
          "duration": 0.28999999999999204
        },
        {
          "name": "F4",
          "midi": 65,
          "time": 122.39999999999958,
          "velocity": 0.5354330708661418,
          "duration": 0.5799999999999699
        },
        {
          "name": "A3",
          "midi": 57,
          "time": 122.40499999999957,
          "velocity": 0.6771653543307087,
          "duration": 0.3049999999999784
        },
        {
          "name": "A4",
          "midi": 69,
          "time": 122.40499999999957,
          "velocity": 0.6771653543307087,
          "duration": 0.5799999999999699
        },
        {
          "name": "C3",
          "midi": 48,
          "time": 122.40999999999957,
          "velocity": 0.6771653543307087,
          "duration": 0.5799999999999699
        },
        {
          "name": "F3",
          "midi": 53,
          "time": 122.41499999999957,
          "velocity": 0.6771653543307087,
          "duration": 0.5799999999999699
        },
        {
          "name": "F2",
          "midi": 41,
          "time": 122.41999999999956,
          "velocity": 0.6771653543307087,
          "duration": 0.5799999999999699
        },
        {
          "name": "C4",
          "midi": 60,
          "time": 122.42499999999956,
          "velocity": 0.6771653543307087,
          "duration": 0.28000000000000114
        },
        {
          "name": "A3",
          "midi": 57,
          "time": 122.71499999999955,
          "velocity": 0.6771653543307087,
          "duration": 0.3049999999999784
        },
        {
          "name": "C4",
          "midi": 60,
          "time": 122.71499999999955,
          "velocity": 0.6771653543307087,
          "duration": 0.2799999999999869
        },
        {
          "name": "C3",
          "midi": 48,
          "time": 122.99999999999953,
          "velocity": 0.5984251968503937,
          "duration": 0.5799999999999983
        },
        {
          "name": "F2",
          "midi": 41,
          "time": 122.99999999999953,
          "velocity": 0.5984251968503937,
          "duration": 0.5799999999999983
        },
        {
          "name": "F4",
          "midi": 65,
          "time": 123.00499999999953,
          "velocity": 0.5354330708661418,
          "duration": 0.5799999999999983
        },
        {
          "name": "A4",
          "midi": 69,
          "time": 123.00499999999953,
          "velocity": 0.6771653543307087,
          "duration": 0.5799999999999983
        },
        {
          "name": "F3",
          "midi": 53,
          "time": 123.01499999999953,
          "velocity": 0.6771653543307087,
          "duration": 0.5799999999999983
        },
        {
          "name": "C4",
          "midi": 60,
          "time": 123.01499999999953,
          "velocity": 0.5984251968503937,
          "duration": 0.28999999999999204
        },
        {
          "name": "A3",
          "midi": 57,
          "time": 123.02499999999952,
          "velocity": 0.6771653543307087,
          "duration": 0.3050000000000068
        },
        {
          "name": "C4",
          "midi": 60,
          "time": 123.30499999999952,
          "velocity": 0.5984251968503937,
          "duration": 0.29000000000000625
        },
        {
          "name": "A3",
          "midi": 57,
          "time": 123.31499999999953,
          "velocity": 0.5984251968503937,
          "duration": 0.28000000000000114
        },
        {
          "name": "A4",
          "midi": 69,
          "time": 123.60499999999954,
          "velocity": 0.6771653543307087,
          "duration": 0.5799999999999841
        },
        {
          "name": "C3",
          "midi": 48,
          "time": 123.60999999999953,
          "velocity": 0.6771653543307087,
          "duration": 0.5799999999999841
        },
        {
          "name": "F4",
          "midi": 65,
          "time": 123.60999999999953,
          "velocity": 0.5354330708661418,
          "duration": 0.5799999999999841
        },
        {
          "name": "F2",
          "midi": 41,
          "time": 123.61499999999953,
          "velocity": 0.6771653543307087,
          "duration": 0.5799999999999841
        },
        {
          "name": "F3",
          "midi": 53,
          "time": 123.61999999999952,
          "velocity": 0.6771653543307087,
          "duration": 0.5799999999999841
        },
        {
          "name": "A3",
          "midi": 57,
          "time": 123.61999999999952,
          "velocity": 0.5984251968503937,
          "duration": 0.28000000000000114
        },
        {
          "name": "C4",
          "midi": 60,
          "time": 123.62499999999952,
          "velocity": 0.6771653543307087,
          "duration": 0.28000000000000114
        },
        {
          "name": "C4",
          "midi": 60,
          "time": 123.90499999999952,
          "velocity": 0.6771653543307087,
          "duration": 0.28000000000000114
        },
        {
          "name": "A3",
          "midi": 57,
          "time": 123.91499999999952,
          "velocity": 0.5984251968503937,
          "duration": 0.2849999999999824
        },
        {
          "name": "F2",
          "midi": 41,
          "time": 124.1999999999995,
          "velocity": 0.5984251968503937,
          "duration": 0.5799999999999983
        },
        {
          "name": "A4",
          "midi": 69,
          "time": 124.2049999999995,
          "velocity": 0.6771653543307087,
          "duration": 0.5799999999999983
        },
        {
          "name": "F4",
          "midi": 65,
          "time": 124.2099999999995,
          "velocity": 0.5354330708661418,
          "duration": 0.5799999999999983
        },
        {
          "name": "C3",
          "midi": 48,
          "time": 124.2099999999995,
          "velocity": 0.5984251968503937,
          "duration": 0.5799999999999983
        },
        {
          "name": "A3",
          "midi": 57,
          "time": 124.2099999999995,
          "velocity": 0.5984251968503937,
          "duration": 0.2849999999999966
        },
        {
          "name": "F3",
          "midi": 53,
          "time": 124.21499999999949,
          "velocity": 0.6771653543307087,
          "duration": 0.5799999999999983
        },
        {
          "name": "C4",
          "midi": 60,
          "time": 124.2249999999995,
          "velocity": 0.5984251968503937,
          "duration": 0.28000000000000114
        },
        {
          "name": "C4",
          "midi": 60,
          "time": 124.5049999999995,
          "velocity": 0.5984251968503937,
          "duration": 0.28000000000000114
        },
        {
          "name": "A3",
          "midi": 57,
          "time": 124.5149999999995,
          "velocity": 0.5984251968503937,
          "duration": 0.29999999999999716
        },
        {
          "name": "A4",
          "midi": 69,
          "time": 124.8049999999995,
          "velocity": 0.6771653543307087,
          "duration": 0.5799999999999983
        },
        {
          "name": "A3",
          "midi": 57,
          "time": 124.8049999999995,
          "velocity": 0.6771653543307087,
          "duration": 0.29000000000000625
        },
        {
          "name": "D3",
          "midi": 50,
          "time": 124.8149999999995,
          "velocity": 0.6771653543307087,
          "duration": 0.5799999999999983
        },
        {
          "name": "C4",
          "midi": 60,
          "time": 124.8149999999995,
          "velocity": 0.6771653543307087,
          "duration": 0.5799999999999983
        },
        {
          "name": "A3",
          "midi": 57,
          "time": 125.1149999999995,
          "velocity": 0.5748031496062992,
          "duration": 0.29000000000000625
        },
        {
          "name": "A3",
          "midi": 57,
          "time": 125.3949999999995,
          "velocity": 0.5984251968503937,
          "duration": 0.29000000000000625
        },
        {
          "name": "D3",
          "midi": 50,
          "time": 125.3949999999995,
          "velocity": 0.5984251968503937,
          "duration": 0.5799999999999983
        },
        {
          "name": "A4",
          "midi": 69,
          "time": 125.4049999999995,
          "velocity": 0.6771653543307087,
          "duration": 0.5799999999999983
        },
        {
          "name": "C4",
          "midi": 60,
          "time": 125.4049999999995,
          "velocity": 0.5984251968503937,
          "duration": 0.5799999999999983
        },
        {
          "name": "D4",
          "midi": 62,
          "time": 125.4099999999995,
          "velocity": 0.5984251968503937,
          "duration": 0.5799999999999983
        },
        {
          "name": "A3",
          "midi": 57,
          "time": 125.7049999999995,
          "velocity": 0.6299212598425197,
          "duration": 0.28999999999999204
        },
        {
          "name": "A4",
          "midi": 69,
          "time": 126.0049999999995,
          "velocity": 0.6771653543307087,
          "duration": 0.5799999999999841
        },
        {
          "name": "A3",
          "midi": 57,
          "time": 126.0099999999995,
          "velocity": 0.6771653543307087,
          "duration": 0.28999999999999204
        },
        {
          "name": "D3",
          "midi": 50,
          "time": 126.0099999999995,
          "velocity": 0.6771653543307087,
          "duration": 0.5799999999999841
        },
        {
          "name": "D4",
          "midi": 62,
          "time": 126.01499999999949,
          "velocity": 0.6771653543307087,
          "duration": 0.5799999999999841
        },
        {
          "name": "C4",
          "midi": 60,
          "time": 126.01499999999949,
          "velocity": 0.6771653543307087,
          "duration": 0.5799999999999841
        },
        {
          "name": "A3",
          "midi": 57,
          "time": 126.29999999999949,
          "velocity": 0.5748031496062992,
          "duration": 0.28999999999999204
        },
        {
          "name": "D3",
          "midi": 50,
          "time": 126.59499999999947,
          "velocity": 0.5984251968503937,
          "duration": 0.5799999999999841
        },
        {
          "name": "A4",
          "midi": 69,
          "time": 126.60499999999948,
          "velocity": 0.6771653543307087,
          "duration": 0.5799999999999841
        },
        {
          "name": "A3",
          "midi": 57,
          "time": 126.60999999999947,
          "velocity": 0.5984251968503937,
          "duration": 0.28999999999999204
        },
        {
          "name": "D4",
          "midi": 62,
          "time": 126.61499999999947,
          "velocity": 0.5984251968503937,
          "duration": 0.5799999999999983
        },
        {
          "name": "C4",
          "midi": 60,
          "time": 126.61499999999947,
          "velocity": 0.5984251968503937,
          "duration": 0.5799999999999983
        },
        {
          "name": "A3",
          "midi": 57,
          "time": 126.90499999999946,
          "velocity": 0.6299212598425197,
          "duration": 0.29000000000000625
        },
        {
          "name": "D4",
          "midi": 62,
          "time": 127.19999999999946,
          "velocity": 0.6771653543307087,
          "duration": 0.5799999999999983
        },
        {
          "name": "A#4",
          "midi": 70,
          "time": 127.20999999999947,
          "velocity": 0.6771653543307087,
          "duration": 0.5799999999999841
        },
        {
          "name": "A#2",
          "midi": 46,
          "time": 127.20999999999947,
          "velocity": 0.6771653543307087,
          "duration": 0.5799999999999841
        },
        {
          "name": "A#3",
          "midi": 58,
          "time": 127.20999999999947,
          "velocity": 0.6771653543307087,
          "duration": 0.28999999999999204
        },
        {
          "name": "F3",
          "midi": 53,
          "time": 127.21499999999946,
          "velocity": 0.6771653543307087,
          "duration": 0.28000000000000114
        },
        {
          "name": "F3",
          "midi": 53,
          "time": 127.50499999999946,
          "velocity": 0.5196850393700787,
          "duration": 0.28000000000000114
        },
        {
          "name": "A#3",
          "midi": 58,
          "time": 127.51999999999946,
          "velocity": 0.5748031496062992,
          "duration": 0.28999999999999204
        },
        {
          "name": "A#2",
          "midi": 46,
          "time": 127.78999999999945,
          "velocity": 0.5984251968503937,
          "duration": 0.5799999999999841
        },
        {
          "name": "A#3",
          "midi": 58,
          "time": 127.79999999999946,
          "velocity": 0.5984251968503937,
          "duration": 0.28999999999997783
        },
        {
          "name": "F3",
          "midi": 53,
          "time": 127.80499999999945,
          "velocity": 0.5984251968503937,
          "duration": 0.5799999999999699
        },
        {
          "name": "A#4",
          "midi": 70,
          "time": 127.80999999999945,
          "velocity": 0.6771653543307087,
          "duration": 0.5799999999999699
        },
        {
          "name": "D4",
          "midi": 62,
          "time": 127.81499999999944,
          "velocity": 0.5984251968503937,
          "duration": 0.5799999999999699
        },
        {
          "name": "A#3",
          "midi": 58,
          "time": 128.09999999999943,
          "velocity": 0.6299212598425197,
          "duration": 0.28999999999999204
        },
        {
          "name": "A#2",
          "midi": 46,
          "time": 128.4049999999994,
          "velocity": 0.6771653543307087,
          "duration": 0.5799999999999841
        },
        {
          "name": "A#4",
          "midi": 70,
          "time": 128.4099999999994,
          "velocity": 0.6771653543307087,
          "duration": 0.5799999999999841
        },
        {
          "name": "A#3",
          "midi": 58,
          "time": 128.4149999999994,
          "velocity": 0.6771653543307087,
          "duration": 0.28999999999999204
        },
        {
          "name": "F3",
          "midi": 53,
          "time": 128.4149999999994,
          "velocity": 0.6771653543307087,
          "duration": 0.2750000000000057
        },
        {
          "name": "D4",
          "midi": 62,
          "time": 128.4199999999994,
          "velocity": 0.6771653543307087,
          "duration": 0.5799999999999841
        },
        {
          "name": "A#3",
          "midi": 58,
          "time": 128.7049999999994,
          "velocity": 0.5748031496062992,
          "duration": 0.28999999999999204
        },
        {
          "name": "F3",
          "midi": 53,
          "time": 128.7049999999994,
          "velocity": 0.5196850393700787,
          "duration": 0.2750000000000057
        },
        {
          "name": "A#2",
          "midi": 46,
          "time": 128.98999999999938,
          "velocity": 0.5984251968503937,
          "duration": 0.5799999999999557
        },
        {
          "name": "A#4",
          "midi": 70,
          "time": 129.00999999999937,
          "velocity": 0.6771653543307087,
          "duration": 0.5799999999999841
        },
        {
          "name": "F3",
          "midi": 53,
          "time": 129.01499999999936,
          "velocity": 0.5984251968503937,
          "duration": 0.5799999999999841
        },
        {
          "name": "A#3",
          "midi": 58,
          "time": 129.01499999999936,
          "velocity": 0.5984251968503937,
          "duration": 0.28999999999999204
        },
        {
          "name": "D4",
          "midi": 62,
          "time": 129.01999999999936,
          "velocity": 0.5984251968503937,
          "duration": 0.5799999999999841
        },
        {
          "name": "C4",
          "midi": 60,
          "time": 129.30999999999935,
          "velocity": 0.6535433070866141,
          "duration": 0.28999999999999204
        },
        {
          "name": "A4",
          "midi": 69,
          "time": 129.60499999999934,
          "velocity": 0.6771653543307087,
          "duration": 0.5799999999999841
        },
        {
          "name": "A3",
          "midi": 57,
          "time": 129.60499999999934,
          "velocity": 0.6771653543307087,
          "duration": 0.28999999999999204
        },
        {
          "name": "C3",
          "midi": 48,
          "time": 129.60499999999934,
          "velocity": 0.6771653543307087,
          "duration": 0.5799999999999841
        },
        {
          "name": "F3",
          "midi": 53,
          "time": 129.60999999999933,
          "velocity": 0.6771653543307087,
          "duration": 0.3049999999999784
        },
        {
          "name": "F4",
          "midi": 65,
          "time": 129.60999999999933,
          "velocity": 0.48031496062992124,
          "duration": 0.5799999999999841
        },
        {
          "name": "F2",
          "midi": 41,
          "time": 129.60999999999933,
          "velocity": 0.6771653543307087,
          "duration": 0.5799999999999841
        },
        {
          "name": "C4",
          "midi": 60,
          "time": 129.61499999999933,
          "velocity": 0.6771653543307087,
          "duration": 0.5799999999999841
        },
        {
          "name": "F3",
          "midi": 53,
          "time": 129.90499999999932,
          "velocity": 0.6771653543307087,
          "duration": 0.3049999999999784
        },
        {
          "name": "A3",
          "midi": 57,
          "time": 129.9149999999993,
          "velocity": 0.5748031496062992,
          "duration": 0.28999999999999204
        },
        {
          "name": "F2",
          "midi": 41,
          "time": 130.18999999999932,
          "velocity": 0.5984251968503937,
          "duration": 0.5799999999999841
        },
        {
          "name": "C3",
          "midi": 48,
          "time": 130.1949999999993,
          "velocity": 0.5984251968503937,
          "duration": 0.5799999999999841
        },
        {
          "name": "A3",
          "midi": 57,
          "time": 130.1949999999993,
          "velocity": 0.5984251968503937,
          "duration": 0.28999999999999204
        },
        {
          "name": "F4",
          "midi": 65,
          "time": 130.1999999999993,
          "velocity": 0.4251968503937008,
          "duration": 0.5799999999999841
        },
        {
          "name": "C4",
          "midi": 60,
          "time": 130.2049999999993,
          "velocity": 0.5984251968503937,
          "duration": 0.5799999999999841
        },
        {
          "name": "A4",
          "midi": 69,
          "time": 130.2049999999993,
          "velocity": 0.6771653543307087,
          "duration": 0.5799999999999841
        },
        {
          "name": "F3",
          "midi": 53,
          "time": 130.2049999999993,
          "velocity": 0.5984251968503937,
          "duration": 0.30000000000001137
        },
        {
          "name": "A3",
          "midi": 57,
          "time": 130.5049999999993,
          "velocity": 0.6299212598425197,
          "duration": 0.2899999999999636
        },
        {
          "name": "F3",
          "midi": 53,
          "time": 130.5049999999993,
          "velocity": 0.5984251968503937,
          "duration": 0.2999999999999545
        },
        {
          "name": "A4",
          "midi": 69,
          "time": 130.80499999999927,
          "velocity": 0.6771653543307087,
          "duration": 0.5799999999999841
        },
        {
          "name": "F2",
          "midi": 41,
          "time": 130.80499999999927,
          "velocity": 0.6771653543307087,
          "duration": 0.5799999999999841
        },
        {
          "name": "F3",
          "midi": 53,
          "time": 130.80499999999927,
          "velocity": 0.6771653543307087,
          "duration": 0.29999999999998295
        },
        {
          "name": "C3",
          "midi": 48,
          "time": 130.80499999999927,
          "velocity": 0.6771653543307087,
          "duration": 0.5799999999999841
        },
        {
          "name": "F4",
          "midi": 65,
          "time": 130.80999999999926,
          "velocity": 0.48031496062992124,
          "duration": 0.5799999999999841
        },
        {
          "name": "A3",
          "midi": 57,
          "time": 130.80999999999926,
          "velocity": 0.6771653543307087,
          "duration": 0.28999999999999204
        },
        {
          "name": "C4",
          "midi": 60,
          "time": 130.81499999999926,
          "velocity": 0.6771653543307087,
          "duration": 0.5799999999999841
        },
        {
          "name": "A3",
          "midi": 57,
          "time": 131.09999999999926,
          "velocity": 0.5748031496062992,
          "duration": 0.28999999999999204
        },
        {
          "name": "F3",
          "midi": 53,
          "time": 131.10499999999925,
          "velocity": 0.5984251968503937,
          "duration": 0.29999999999998295
        },
        {
          "name": "F2",
          "midi": 41,
          "time": 131.38999999999925,
          "velocity": 0.5984251968503937,
          "duration": 0.5799999999999557
        },
        {
          "name": "C3",
          "midi": 48,
          "time": 131.40499999999923,
          "velocity": 0.5984251968503937,
          "duration": 0.5799999999999557
        },
        {
          "name": "A4",
          "midi": 69,
          "time": 131.40499999999923,
          "velocity": 0.6771653543307087,
          "duration": 0.5799999999999557
        },
        {
          "name": "F3",
          "midi": 53,
          "time": 131.40499999999923,
          "velocity": 0.5984251968503937,
          "duration": 0.29999999999998295
        },
        {
          "name": "F4",
          "midi": 65,
          "time": 131.40999999999923,
          "velocity": 0.4251968503937008,
          "duration": 0.5799999999999557
        },
        {
          "name": "A3",
          "midi": 57,
          "time": 131.40999999999923,
          "velocity": 0.5984251968503937,
          "duration": 0.28999999999999204
        },
        {
          "name": "C4",
          "midi": 60,
          "time": 131.41499999999922,
          "velocity": 0.5984251968503937,
          "duration": 0.5799999999999557
        },
        {
          "name": "F3",
          "midi": 53,
          "time": 131.70499999999922,
          "velocity": 0.5984251968503937,
          "duration": 0.2999999999999545
        },
        {
          "name": "A3",
          "midi": 57,
          "time": 131.70499999999922,
          "velocity": 0.6299212598425197,
          "duration": 0.2899999999999636
        },
        {
          "name": "F4",
          "midi": 65,
          "time": 131.99999999999918,
          "velocity": 0.5354330708661418,
          "duration": 0.5799999999999557
        },
        {
          "name": "A3",
          "midi": 57,
          "time": 132.00499999999917,
          "velocity": 0.6771653543307087,
          "duration": 0.3049999999999784
        },
        {
          "name": "A4",
          "midi": 69,
          "time": 132.00499999999917,
          "velocity": 0.6771653543307087,
          "duration": 0.5799999999999557
        },
        {
          "name": "C3",
          "midi": 48,
          "time": 132.00999999999917,
          "velocity": 0.6771653543307087,
          "duration": 0.5799999999999557
        },
        {
          "name": "F3",
          "midi": 53,
          "time": 132.01499999999916,
          "velocity": 0.6771653543307087,
          "duration": 0.5799999999999557
        },
        {
          "name": "F2",
          "midi": 41,
          "time": 132.01999999999916,
          "velocity": 0.6771653543307087,
          "duration": 0.5799999999999557
        },
        {
          "name": "C4",
          "midi": 60,
          "time": 132.02499999999915,
          "velocity": 0.6771653543307087,
          "duration": 0.28000000000000114
        },
        {
          "name": "A3",
          "midi": 57,
          "time": 132.31499999999915,
          "velocity": 0.6771653543307087,
          "duration": 0.30499999999995
        },
        {
          "name": "C4",
          "midi": 60,
          "time": 132.31499999999915,
          "velocity": 0.6771653543307087,
          "duration": 0.2799999999999727
        },
        {
          "name": "C3",
          "midi": 48,
          "time": 132.5999999999991,
          "velocity": 0.5984251968503937,
          "duration": 0.5799999999999557
        },
        {
          "name": "F2",
          "midi": 41,
          "time": 132.5999999999991,
          "velocity": 0.5984251968503937,
          "duration": 0.5799999999999557
        },
        {
          "name": "F4",
          "midi": 65,
          "time": 132.6049999999991,
          "velocity": 0.5354330708661418,
          "duration": 0.5799999999999557
        },
        {
          "name": "A4",
          "midi": 69,
          "time": 132.6049999999991,
          "velocity": 0.6771653543307087,
          "duration": 0.5799999999999557
        },
        {
          "name": "F3",
          "midi": 53,
          "time": 132.6149999999991,
          "velocity": 0.6771653543307087,
          "duration": 0.5799999999999557
        },
        {
          "name": "C4",
          "midi": 60,
          "time": 132.6149999999991,
          "velocity": 0.5984251968503937,
          "duration": 0.28999999999999204
        },
        {
          "name": "A3",
          "midi": 57,
          "time": 132.6249999999991,
          "velocity": 0.6771653543307087,
          "duration": 0.3049999999999784
        },
        {
          "name": "C4",
          "midi": 60,
          "time": 132.9049999999991,
          "velocity": 0.5984251968503937,
          "duration": 0.2899999999999636
        },
        {
          "name": "A3",
          "midi": 57,
          "time": 132.91499999999908,
          "velocity": 0.5984251968503937,
          "duration": 0.2799999999999727
        },
        {
          "name": "A4",
          "midi": 69,
          "time": 133.20499999999905,
          "velocity": 0.6771653543307087,
          "duration": 0.5799999999999841
        },
        {
          "name": "C3",
          "midi": 48,
          "time": 133.20999999999904,
          "velocity": 0.6771653543307087,
          "duration": 0.5799999999999841
        },
        {
          "name": "F4",
          "midi": 65,
          "time": 133.20999999999904,
          "velocity": 0.5354330708661418,
          "duration": 0.5799999999999841
        },
        {
          "name": "F2",
          "midi": 41,
          "time": 133.21499999999904,
          "velocity": 0.6771653543307087,
          "duration": 0.5799999999999841
        },
        {
          "name": "F3",
          "midi": 53,
          "time": 133.21999999999903,
          "velocity": 0.6771653543307087,
          "duration": 0.5799999999999841
        },
        {
          "name": "A3",
          "midi": 57,
          "time": 133.21999999999903,
          "velocity": 0.5984251968503937,
          "duration": 0.28000000000000114
        },
        {
          "name": "C4",
          "midi": 60,
          "time": 133.22499999999903,
          "velocity": 0.6771653543307087,
          "duration": 0.28000000000000114
        },
        {
          "name": "C4",
          "midi": 60,
          "time": 133.50499999999903,
          "velocity": 0.6771653543307087,
          "duration": 0.28000000000000114
        },
        {
          "name": "A3",
          "midi": 57,
          "time": 133.51499999999902,
          "velocity": 0.5984251968503937,
          "duration": 0.2849999999999966
        },
        {
          "name": "F2",
          "midi": 41,
          "time": 133.79999999999902,
          "velocity": 0.5984251968503937,
          "duration": 0.5799999999999557
        },
        {
          "name": "A4",
          "midi": 69,
          "time": 133.804999999999,
          "velocity": 0.6771653543307087,
          "duration": 0.5799999999999557
        },
        {
          "name": "F4",
          "midi": 65,
          "time": 133.809999999999,
          "velocity": 0.5354330708661418,
          "duration": 0.5799999999999557
        },
        {
          "name": "C3",
          "midi": 48,
          "time": 133.809999999999,
          "velocity": 0.5984251968503937,
          "duration": 0.5799999999999557
        },
        {
          "name": "A3",
          "midi": 57,
          "time": 133.809999999999,
          "velocity": 0.5984251968503937,
          "duration": 0.2849999999999966
        },
        {
          "name": "F3",
          "midi": 53,
          "time": 133.814999999999,
          "velocity": 0.6771653543307087,
          "duration": 0.5799999999999557
        },
        {
          "name": "C4",
          "midi": 60,
          "time": 133.824999999999,
          "velocity": 0.5984251968503937,
          "duration": 0.28000000000000114
        },
        {
          "name": "C4",
          "midi": 60,
          "time": 134.104999999999,
          "velocity": 0.5984251968503937,
          "duration": 0.2799999999999727
        },
        {
          "name": "A3",
          "midi": 57,
          "time": 134.114999999999,
          "velocity": 0.5984251968503937,
          "duration": 0.2999999999999545
        },
        {
          "name": "A4",
          "midi": 69,
          "time": 134.40499999999895,
          "velocity": 0.6771653543307087,
          "duration": 0.5800000000000125
        },
        {
          "name": "A3",
          "midi": 57,
          "time": 134.40499999999895,
          "velocity": 0.6771653543307087,
          "duration": 0.28999999999999204
        },
        {
          "name": "D3",
          "midi": 50,
          "time": 134.41499999999894,
          "velocity": 0.6771653543307087,
          "duration": 0.5800000000000125
        },
        {
          "name": "C4",
          "midi": 60,
          "time": 134.41499999999894,
          "velocity": 0.6771653543307087,
          "duration": 0.5800000000000125
        },
        {
          "name": "A3",
          "midi": 57,
          "time": 134.71499999999895,
          "velocity": 0.5748031496062992,
          "duration": 0.28999999999999204
        },
        {
          "name": "A3",
          "midi": 57,
          "time": 134.99499999999895,
          "velocity": 0.5984251968503937,
          "duration": 0.28999999999999204
        },
        {
          "name": "D3",
          "midi": 50,
          "time": 134.99499999999895,
          "velocity": 0.5984251968503937,
          "duration": 0.5800000000000125
        },
        {
          "name": "A4",
          "midi": 69,
          "time": 135.00499999999894,
          "velocity": 0.6771653543307087,
          "duration": 0.5800000000000125
        },
        {
          "name": "C4",
          "midi": 60,
          "time": 135.00499999999894,
          "velocity": 0.5984251968503937,
          "duration": 0.5800000000000125
        },
        {
          "name": "D4",
          "midi": 62,
          "time": 135.00999999999894,
          "velocity": 0.5984251968503937,
          "duration": 0.5800000000000125
        },
        {
          "name": "A3",
          "midi": 57,
          "time": 135.30499999999896,
          "velocity": 0.6299212598425197,
          "duration": 0.28999999999999204
        },
        {
          "name": "A4",
          "midi": 69,
          "time": 135.60499999999894,
          "velocity": 0.6771653543307087,
          "duration": 0.5799999999999841
        },
        {
          "name": "A3",
          "midi": 57,
          "time": 135.60999999999893,
          "velocity": 0.6771653543307087,
          "duration": 0.28999999999999204
        },
        {
          "name": "D3",
          "midi": 50,
          "time": 135.60999999999893,
          "velocity": 0.6771653543307087,
          "duration": 0.5799999999999841
        },
        {
          "name": "D4",
          "midi": 62,
          "time": 135.61499999999893,
          "velocity": 0.6771653543307087,
          "duration": 0.5799999999999841
        },
        {
          "name": "C4",
          "midi": 60,
          "time": 135.61499999999893,
          "velocity": 0.6771653543307087,
          "duration": 0.5799999999999841
        },
        {
          "name": "A3",
          "midi": 57,
          "time": 135.89999999999893,
          "velocity": 0.5748031496062992,
          "duration": 0.28999999999999204
        },
        {
          "name": "D3",
          "midi": 50,
          "time": 136.1949999999989,
          "velocity": 0.5984251968503937,
          "duration": 0.5799999999999841
        },
        {
          "name": "A4",
          "midi": 69,
          "time": 136.2049999999989,
          "velocity": 0.6771653543307087,
          "duration": 0.5799999999999841
        },
        {
          "name": "A3",
          "midi": 57,
          "time": 136.2099999999989,
          "velocity": 0.5984251968503937,
          "duration": 0.28999999999999204
        },
        {
          "name": "D4",
          "midi": 62,
          "time": 136.2149999999989,
          "velocity": 0.5984251968503937,
          "duration": 0.5799999999999841
        },
        {
          "name": "C4",
          "midi": 60,
          "time": 136.2149999999989,
          "velocity": 0.5984251968503937,
          "duration": 0.5799999999999841
        },
        {
          "name": "A3",
          "midi": 57,
          "time": 136.5049999999989,
          "velocity": 0.6299212598425197,
          "duration": 0.28999999999999204
        },
        {
          "name": "D4",
          "midi": 62,
          "time": 136.79999999999887,
          "velocity": 0.6771653543307087,
          "duration": 0.5799999999999557
        },
        {
          "name": "A#4",
          "midi": 70,
          "time": 136.80999999999887,
          "velocity": 0.6771653543307087,
          "duration": 0.5799999999999557
        },
        {
          "name": "A#2",
          "midi": 46,
          "time": 136.80999999999887,
          "velocity": 0.6771653543307087,
          "duration": 0.5799999999999557
        },
        {
          "name": "A#3",
          "midi": 58,
          "time": 136.80999999999887,
          "velocity": 0.6771653543307087,
          "duration": 0.28999999999999204
        },
        {
          "name": "F3",
          "midi": 53,
          "time": 136.81499999999886,
          "velocity": 0.6771653543307087,
          "duration": 0.28000000000000114
        },
        {
          "name": "F3",
          "midi": 53,
          "time": 137.10499999999885,
          "velocity": 0.5196850393700787,
          "duration": 0.2799999999999727
        },
        {
          "name": "A#3",
          "midi": 58,
          "time": 137.11999999999884,
          "velocity": 0.5748031496062992,
          "duration": 0.2899999999999636
        },
        {
          "name": "A#2",
          "midi": 46,
          "time": 137.38999999999882,
          "velocity": 0.5984251968503937,
          "duration": 0.5799999999999841
        },
        {
          "name": "A#3",
          "midi": 58,
          "time": 137.3999999999988,
          "velocity": 0.5984251968503937,
          "duration": 0.28999999999999204
        },
        {
          "name": "F3",
          "midi": 53,
          "time": 137.4049999999988,
          "velocity": 0.5984251968503937,
          "duration": 0.5799999999999841
        },
        {
          "name": "A#4",
          "midi": 70,
          "time": 137.4099999999988,
          "velocity": 0.6771653543307087,
          "duration": 0.5799999999999841
        },
        {
          "name": "D4",
          "midi": 62,
          "time": 137.4149999999988,
          "velocity": 0.5984251968503937,
          "duration": 0.5799999999999841
        },
        {
          "name": "A#3",
          "midi": 58,
          "time": 137.6999999999988,
          "velocity": 0.6299212598425197,
          "duration": 0.28999999999999204
        },
        {
          "name": "A#2",
          "midi": 46,
          "time": 138.00499999999877,
          "velocity": 0.6771653543307087,
          "duration": 0.5799999999999841
        },
        {
          "name": "A#4",
          "midi": 70,
          "time": 138.00999999999877,
          "velocity": 0.6771653543307087,
          "duration": 0.5799999999999841
        },
        {
          "name": "A#3",
          "midi": 58,
          "time": 138.01499999999876,
          "velocity": 0.6771653543307087,
          "duration": 0.28999999999999204
        },
        {
          "name": "F3",
          "midi": 53,
          "time": 138.01499999999876,
          "velocity": 0.6771653543307087,
          "duration": 0.2750000000000057
        },
        {
          "name": "D4",
          "midi": 62,
          "time": 138.01999999999876,
          "velocity": 0.6771653543307087,
          "duration": 0.5799999999999841
        },
        {
          "name": "A#3",
          "midi": 58,
          "time": 138.30499999999876,
          "velocity": 0.5748031496062992,
          "duration": 0.28999999999999204
        },
        {
          "name": "F3",
          "midi": 53,
          "time": 138.30499999999876,
          "velocity": 0.5196850393700787,
          "duration": 0.2750000000000057
        },
        {
          "name": "A#2",
          "midi": 46,
          "time": 138.58999999999875,
          "velocity": 0.5984251968503937,
          "duration": 0.5799999999999557
        },
        {
          "name": "A#4",
          "midi": 70,
          "time": 138.60999999999873,
          "velocity": 0.6771653543307087,
          "duration": 0.5799999999999841
        },
        {
          "name": "F3",
          "midi": 53,
          "time": 138.61499999999873,
          "velocity": 0.5984251968503937,
          "duration": 0.5799999999999841
        },
        {
          "name": "A#3",
          "midi": 58,
          "time": 138.61499999999873,
          "velocity": 0.5984251968503937,
          "duration": 0.28999999999999204
        },
        {
          "name": "D4",
          "midi": 62,
          "time": 138.61999999999873,
          "velocity": 0.5984251968503937,
          "duration": 0.5799999999999841
        },
        {
          "name": "C4",
          "midi": 60,
          "time": 138.90999999999872,
          "velocity": 0.6535433070866141,
          "duration": 0.28999999999999204
        },
        {
          "name": "A4",
          "midi": 69,
          "time": 139.2049999999987,
          "velocity": 0.6771653543307087,
          "duration": 0.5799999999999841
        },
        {
          "name": "A3",
          "midi": 57,
          "time": 139.2049999999987,
          "velocity": 0.6771653543307087,
          "duration": 0.28999999999999204
        },
        {
          "name": "C3",
          "midi": 48,
          "time": 139.2049999999987,
          "velocity": 0.6771653543307087,
          "duration": 0.5799999999999841
        },
        {
          "name": "F3",
          "midi": 53,
          "time": 139.2099999999987,
          "velocity": 0.6771653543307087,
          "duration": 0.3049999999999784
        },
        {
          "name": "F4",
          "midi": 65,
          "time": 139.2099999999987,
          "velocity": 0.48031496062992124,
          "duration": 0.5799999999999841
        },
        {
          "name": "F2",
          "midi": 41,
          "time": 139.2099999999987,
          "velocity": 0.6771653543307087,
          "duration": 0.5799999999999841
        },
        {
          "name": "C4",
          "midi": 60,
          "time": 139.2149999999987,
          "velocity": 0.6771653543307087,
          "duration": 0.5799999999999841
        },
        {
          "name": "F3",
          "midi": 53,
          "time": 139.5049999999987,
          "velocity": 0.6771653543307087,
          "duration": 0.3049999999999784
        },
        {
          "name": "A3",
          "midi": 57,
          "time": 139.51499999999868,
          "velocity": 0.5748031496062992,
          "duration": 0.28999999999999204
        },
        {
          "name": "F2",
          "midi": 41,
          "time": 139.78999999999868,
          "velocity": 0.5984251968503937,
          "duration": 0.5799999999999841
        },
        {
          "name": "C3",
          "midi": 48,
          "time": 139.79499999999868,
          "velocity": 0.5984251968503937,
          "duration": 0.5799999999999841
        },
        {
          "name": "A3",
          "midi": 57,
          "time": 139.79499999999868,
          "velocity": 0.5984251968503937,
          "duration": 0.28999999999999204
        },
        {
          "name": "F4",
          "midi": 65,
          "time": 139.79999999999868,
          "velocity": 0.4251968503937008,
          "duration": 0.5799999999999841
        },
        {
          "name": "C4",
          "midi": 60,
          "time": 139.80499999999867,
          "velocity": 0.5984251968503937,
          "duration": 0.5799999999999841
        },
        {
          "name": "A4",
          "midi": 69,
          "time": 139.80499999999867,
          "velocity": 0.6771653543307087,
          "duration": 0.5799999999999841
        },
        {
          "name": "F3",
          "midi": 53,
          "time": 139.80499999999867,
          "velocity": 0.5984251968503937,
          "duration": 0.30000000000001137
        },
        {
          "name": "A3",
          "midi": 57,
          "time": 140.10499999999868,
          "velocity": 0.6299212598425197,
          "duration": 0.2899999999999636
        },
        {
          "name": "F3",
          "midi": 53,
          "time": 140.10499999999868,
          "velocity": 0.5984251968503937,
          "duration": 0.2999999999999545
        },
        {
          "name": "A4",
          "midi": 69,
          "time": 140.40499999999864,
          "velocity": 0.6771653543307087,
          "duration": 0.5799999999999841
        },
        {
          "name": "F2",
          "midi": 41,
          "time": 140.40499999999864,
          "velocity": 0.6771653543307087,
          "duration": 0.5799999999999841
        },
        {
          "name": "F3",
          "midi": 53,
          "time": 140.40499999999864,
          "velocity": 0.6771653543307087,
          "duration": 0.29999999999998295
        },
        {
          "name": "C3",
          "midi": 48,
          "time": 140.40499999999864,
          "velocity": 0.6771653543307087,
          "duration": 0.5799999999999841
        },
        {
          "name": "F4",
          "midi": 65,
          "time": 140.40999999999863,
          "velocity": 0.48031496062992124,
          "duration": 0.5799999999999841
        },
        {
          "name": "A3",
          "midi": 57,
          "time": 140.40999999999863,
          "velocity": 0.6771653543307087,
          "duration": 0.28999999999999204
        },
        {
          "name": "C4",
          "midi": 60,
          "time": 140.41499999999863,
          "velocity": 0.6771653543307087,
          "duration": 0.5799999999999841
        },
        {
          "name": "A3",
          "midi": 57,
          "time": 140.69999999999862,
          "velocity": 0.5748031496062992,
          "duration": 0.28999999999999204
        },
        {
          "name": "F3",
          "midi": 53,
          "time": 140.70499999999862,
          "velocity": 0.5984251968503937,
          "duration": 0.29999999999998295
        },
        {
          "name": "F2",
          "midi": 41,
          "time": 140.98999999999862,
          "velocity": 0.5984251968503937,
          "duration": 0.5799999999999557
        },
        {
          "name": "C3",
          "midi": 48,
          "time": 141.0049999999986,
          "velocity": 0.5984251968503937,
          "duration": 0.5799999999999557
        },
        {
          "name": "A4",
          "midi": 69,
          "time": 141.0049999999986,
          "velocity": 0.6771653543307087,
          "duration": 0.5799999999999557
        },
        {
          "name": "F3",
          "midi": 53,
          "time": 141.0049999999986,
          "velocity": 0.5984251968503937,
          "duration": 0.29999999999998295
        },
        {
          "name": "F4",
          "midi": 65,
          "time": 141.0099999999986,
          "velocity": 0.4251968503937008,
          "duration": 0.5799999999999557
        },
        {
          "name": "A3",
          "midi": 57,
          "time": 141.0099999999986,
          "velocity": 0.5984251968503937,
          "duration": 0.28999999999999204
        },
        {
          "name": "C4",
          "midi": 60,
          "time": 141.0149999999986,
          "velocity": 0.5984251968503937,
          "duration": 0.5799999999999557
        },
        {
          "name": "F3",
          "midi": 53,
          "time": 141.30499999999859,
          "velocity": 0.5984251968503937,
          "duration": 0.2999999999999545
        },
        {
          "name": "A3",
          "midi": 57,
          "time": 141.30499999999859,
          "velocity": 0.6299212598425197,
          "duration": 0.2899999999999636
        },
        {
          "name": "F4",
          "midi": 65,
          "time": 141.59999999999854,
          "velocity": 0.5354330708661418,
          "duration": 0.5799999999999557
        },
        {
          "name": "A3",
          "midi": 57,
          "time": 141.60499999999854,
          "velocity": 0.6771653543307087,
          "duration": 0.3049999999999784
        },
        {
          "name": "A4",
          "midi": 69,
          "time": 141.60499999999854,
          "velocity": 0.6771653543307087,
          "duration": 0.5799999999999557
        },
        {
          "name": "C3",
          "midi": 48,
          "time": 141.60999999999854,
          "velocity": 0.6771653543307087,
          "duration": 0.5799999999999557
        },
        {
          "name": "F3",
          "midi": 53,
          "time": 141.61499999999853,
          "velocity": 0.6771653543307087,
          "duration": 0.5799999999999557
        },
        {
          "name": "F2",
          "midi": 41,
          "time": 141.61999999999853,
          "velocity": 0.6771653543307087,
          "duration": 0.5799999999999557
        },
        {
          "name": "C4",
          "midi": 60,
          "time": 141.62499999999852,
          "velocity": 0.6771653543307087,
          "duration": 0.28000000000000114
        },
        {
          "name": "A3",
          "midi": 57,
          "time": 141.9149999999985,
          "velocity": 0.6771653543307087,
          "duration": 0.30499999999995
        },
        {
          "name": "C4",
          "midi": 60,
          "time": 141.9149999999985,
          "velocity": 0.6771653543307087,
          "duration": 0.2799999999999727
        },
        {
          "name": "C3",
          "midi": 48,
          "time": 142.19999999999848,
          "velocity": 0.5984251968503937,
          "duration": 0.5799999999999557
        },
        {
          "name": "F2",
          "midi": 41,
          "time": 142.19999999999848,
          "velocity": 0.5984251968503937,
          "duration": 0.5799999999999557
        },
        {
          "name": "F4",
          "midi": 65,
          "time": 142.20499999999848,
          "velocity": 0.5354330708661418,
          "duration": 0.5799999999999557
        },
        {
          "name": "A4",
          "midi": 69,
          "time": 142.20499999999848,
          "velocity": 0.6771653543307087,
          "duration": 0.5799999999999557
        },
        {
          "name": "F3",
          "midi": 53,
          "time": 142.21499999999847,
          "velocity": 0.6771653543307087,
          "duration": 0.5799999999999557
        },
        {
          "name": "C4",
          "midi": 60,
          "time": 142.21499999999847,
          "velocity": 0.5984251968503937,
          "duration": 0.28999999999999204
        },
        {
          "name": "A3",
          "midi": 57,
          "time": 142.22499999999846,
          "velocity": 0.6771653543307087,
          "duration": 0.3049999999999784
        },
        {
          "name": "C4",
          "midi": 60,
          "time": 142.50499999999846,
          "velocity": 0.5984251968503937,
          "duration": 0.2899999999999636
        },
        {
          "name": "A3",
          "midi": 57,
          "time": 142.51499999999845,
          "velocity": 0.5984251968503937,
          "duration": 0.2799999999999727
        },
        {
          "name": "A4",
          "midi": 69,
          "time": 142.80499999999842,
          "velocity": 0.6771653543307087,
          "duration": 0.5799999999999841
        },
        {
          "name": "C3",
          "midi": 48,
          "time": 142.8099999999984,
          "velocity": 0.6771653543307087,
          "duration": 0.5799999999999841
        },
        {
          "name": "E4",
          "midi": 64,
          "time": 142.8099999999984,
          "velocity": 0.5354330708661418,
          "duration": 0.5799999999999841
        },
        {
          "name": "E2",
          "midi": 40,
          "time": 142.8149999999984,
          "velocity": 0.6771653543307087,
          "duration": 0.5799999999999841
        },
        {
          "name": "E3",
          "midi": 52,
          "time": 142.8199999999984,
          "velocity": 0.6771653543307087,
          "duration": 0.5799999999999841
        },
        {
          "name": "A3",
          "midi": 57,
          "time": 142.8199999999984,
          "velocity": 0.5984251968503937,
          "duration": 0.28000000000000114
        },
        {
          "name": "C4",
          "midi": 60,
          "time": 142.8249999999984,
          "velocity": 0.6771653543307087,
          "duration": 0.28000000000000114
        },
        {
          "name": "C4",
          "midi": 60,
          "time": 143.1049999999984,
          "velocity": 0.6771653543307087,
          "duration": 0.28000000000000114
        },
        {
          "name": "A3",
          "midi": 57,
          "time": 143.1149999999984,
          "velocity": 0.5984251968503937,
          "duration": 0.2849999999999966
        },
        {
          "name": "E2",
          "midi": 40,
          "time": 143.39999999999839,
          "velocity": 0.5984251968503937,
          "duration": 0.5799999999999557
        },
        {
          "name": "A4",
          "midi": 69,
          "time": 143.40499999999838,
          "velocity": 0.6771653543307087,
          "duration": 0.5799999999999557
        },
        {
          "name": "E4",
          "midi": 64,
          "time": 143.40999999999838,
          "velocity": 0.5354330708661418,
          "duration": 0.5799999999999557
        },
        {
          "name": "C3",
          "midi": 48,
          "time": 143.40999999999838,
          "velocity": 0.5984251968503937,
          "duration": 0.5799999999999557
        },
        {
          "name": "A3",
          "midi": 57,
          "time": 143.40999999999838,
          "velocity": 0.5984251968503937,
          "duration": 0.2849999999999966
        },
        {
          "name": "E3",
          "midi": 52,
          "time": 143.41499999999837,
          "velocity": 0.6771653543307087,
          "duration": 0.5799999999999557
        },
        {
          "name": "C4",
          "midi": 60,
          "time": 143.42499999999836,
          "velocity": 0.5984251968503937,
          "duration": 0.28000000000000114
        },
        {
          "name": "C4",
          "midi": 60,
          "time": 143.70499999999836,
          "velocity": 0.5984251968503937,
          "duration": 0.2799999999999727
        },
        {
          "name": "A3",
          "midi": 57,
          "time": 143.71499999999835,
          "velocity": 0.5984251968503937,
          "duration": 0.2999999999999545
        },
        {
          "name": "A#4",
          "midi": 70,
          "time": 144.00499999999832,
          "velocity": 0.6771653543307087,
          "duration": 0.5799999999999841
        },
        {
          "name": "D4",
          "midi": 62,
          "time": 144.00499999999832,
          "velocity": 0.6771653543307087,
          "duration": 0.5799999999999841
        },
        {
          "name": "A#3",
          "midi": 58,
          "time": 144.00499999999832,
          "velocity": 0.6771653543307087,
          "duration": 0.28999999999999204
        },
        {
          "name": "A#2",
          "midi": 46,
          "time": 144.00499999999832,
          "velocity": 0.6771653543307087,
          "duration": 0.5799999999999841
        },
        {
          "name": "F3",
          "midi": 53,
          "time": 144.0099999999983,
          "velocity": 0.6771653543307087,
          "duration": 0.3049999999999784
        },
        {
          "name": "F4",
          "midi": 65,
          "time": 144.0099999999983,
          "velocity": 0.48031496062992124,
          "duration": 0.5799999999999841
        },
        {
          "name": "F3",
          "midi": 53,
          "time": 144.3049999999983,
          "velocity": 0.6771653543307087,
          "duration": 0.3049999999999784
        },
        {
          "name": "A#3",
          "midi": 58,
          "time": 144.3149999999983,
          "velocity": 0.5748031496062992,
          "duration": 0.28999999999999204
        },
        {
          "name": "D4",
          "midi": 62,
          "time": 144.5949999999983,
          "velocity": 0.5984251968503937,
          "duration": 0.5800000000000125
        },
        {
          "name": "A#3",
          "midi": 58,
          "time": 144.5949999999983,
          "velocity": 0.5984251968503937,
          "duration": 0.28999999999999204
        },
        {
          "name": "A#2",
          "midi": 46,
          "time": 144.5949999999983,
          "velocity": 0.5984251968503937,
          "duration": 0.5800000000000125
        },
        {
          "name": "F4",
          "midi": 65,
          "time": 144.5999999999983,
          "velocity": 0.4251968503937008,
          "duration": 0.5800000000000125
        },
        {
          "name": "F3",
          "midi": 53,
          "time": 144.60499999999828,
          "velocity": 0.5984251968503937,
          "duration": 0.30000000000001137
        },
        {
          "name": "A#4",
          "midi": 70,
          "time": 144.60499999999828,
          "velocity": 0.6771653543307087,
          "duration": 0.5800000000000125
        },
        {
          "name": "F3",
          "midi": 53,
          "time": 144.9049999999983,
          "velocity": 0.5984251968503937,
          "duration": 0.29999999999998295
        },
        {
          "name": "A#3",
          "midi": 58,
          "time": 144.9049999999983,
          "velocity": 0.6299212598425197,
          "duration": 0.28999999999999204
        },
        {
          "name": "A#4",
          "midi": 70,
          "time": 145.20499999999828,
          "velocity": 0.6771653543307087,
          "duration": 0.5799999999999841
        },
        {
          "name": "A#2",
          "midi": 46,
          "time": 145.20499999999828,
          "velocity": 0.6771653543307087,
          "duration": 0.5799999999999841
        },
        {
          "name": "F3",
          "midi": 53,
          "time": 145.20499999999828,
          "velocity": 0.6771653543307087,
          "duration": 0.29999999999998295
        },
        {
          "name": "D4",
          "midi": 62,
          "time": 145.20499999999828,
          "velocity": 0.6771653543307087,
          "duration": 0.5799999999999841
        },
        {
          "name": "F4",
          "midi": 65,
          "time": 145.20999999999827,
          "velocity": 0.48031496062992124,
          "duration": 0.5799999999999841
        },
        {
          "name": "A#3",
          "midi": 58,
          "time": 145.20999999999827,
          "velocity": 0.6771653543307087,
          "duration": 0.28999999999999204
        },
        {
          "name": "A#3",
          "midi": 58,
          "time": 145.49999999999827,
          "velocity": 0.5748031496062992,
          "duration": 0.28999999999999204
        },
        {
          "name": "F3",
          "midi": 53,
          "time": 145.50499999999826,
          "velocity": 0.5984251968503937,
          "duration": 0.29999999999998295
        },
        {
          "name": "A#4",
          "midi": 70,
          "time": 145.80499999999824,
          "velocity": 0.6771653543307087,
          "duration": 0.5799999999999841
        },
        {
          "name": "D4",
          "midi": 62,
          "time": 145.80499999999824,
          "velocity": 0.5984251968503937,
          "duration": 0.5799999999999841
        },
        {
          "name": "F3",
          "midi": 53,
          "time": 145.80499999999824,
          "velocity": 0.5984251968503937,
          "duration": 0.29999999999998295
        },
        {
          "name": "A#2",
          "midi": 46,
          "time": 145.80499999999824,
          "velocity": 0.5984251968503937,
          "duration": 0.5799999999999841
        },
        {
          "name": "F4",
          "midi": 65,
          "time": 145.80999999999824,
          "velocity": 0.4251968503937008,
          "duration": 0.5799999999999841
        },
        {
          "name": "A#3",
          "midi": 58,
          "time": 145.80999999999824,
          "velocity": 0.5984251968503937,
          "duration": 0.28999999999999204
        },
        {
          "name": "A#3",
          "midi": 58,
          "time": 146.10499999999823,
          "velocity": 0.6299212598425197,
          "duration": 0.28999999999999204
        },
        {
          "name": "F3",
          "midi": 53,
          "time": 146.10499999999823,
          "velocity": 0.5984251968503937,
          "duration": 0.29999999999998295
        },
        {
          "name": "F4",
          "midi": 65,
          "time": 146.39999999999822,
          "velocity": 0.5354330708661418,
          "duration": 0.5799999999999557
        },
        {
          "name": "A#4",
          "midi": 70,
          "time": 146.4049999999982,
          "velocity": 0.6771653543307087,
          "duration": 0.5799999999999557
        },
        {
          "name": "A#3",
          "midi": 58,
          "time": 146.4049999999982,
          "velocity": 0.6771653543307087,
          "duration": 0.3049999999999784
        },
        {
          "name": "A#2",
          "midi": 46,
          "time": 146.4099999999982,
          "velocity": 0.6771653543307087,
          "duration": 0.5799999999999557
        },
        {
          "name": "F3",
          "midi": 53,
          "time": 146.4149999999982,
          "velocity": 0.6771653543307087,
          "duration": 0.5799999999999557
        },
        {
          "name": "D4",
          "midi": 62,
          "time": 146.4149999999982,
          "velocity": 0.6771653543307087,
          "duration": 0.28000000000000114
        },
        {
          "name": "D4",
          "midi": 62,
          "time": 146.7049999999982,
          "velocity": 0.6771653543307087,
          "duration": 0.2799999999999727
        },
        {
          "name": "A#3",
          "midi": 58,
          "time": 146.71499999999818,
          "velocity": 0.6771653543307087,
          "duration": 0.30499999999995
        },
        {
          "name": "A#2",
          "midi": 46,
          "time": 146.99999999999815,
          "velocity": 0.5984251968503937,
          "duration": 0.5799999999999841
        },
        {
          "name": "D4",
          "midi": 62,
          "time": 147.00499999999815,
          "velocity": 0.5984251968503937,
          "duration": 0.28999999999999204
        },
        {
          "name": "F4",
          "midi": 65,
          "time": 147.00499999999815,
          "velocity": 0.5354330708661418,
          "duration": 0.5799999999999841
        },
        {
          "name": "A#4",
          "midi": 70,
          "time": 147.00499999999815,
          "velocity": 0.6771653543307087,
          "duration": 0.5799999999999841
        },
        {
          "name": "F3",
          "midi": 53,
          "time": 147.01499999999814,
          "velocity": 0.6771653543307087,
          "duration": 0.5799999999999841
        },
        {
          "name": "A#3",
          "midi": 58,
          "time": 147.02499999999813,
          "velocity": 0.6771653543307087,
          "duration": 0.3050000000000068
        },
        {
          "name": "D4",
          "midi": 62,
          "time": 147.29499999999814,
          "velocity": 0.5984251968503937,
          "duration": 0.28999999999999204
        },
        {
          "name": "A#3",
          "midi": 58,
          "time": 147.31499999999815,
          "velocity": 0.5984251968503937,
          "duration": 0.2799999999999727
        },
        {
          "name": "A#4",
          "midi": 70,
          "time": 147.6049999999981,
          "velocity": 0.6771653543307087,
          "duration": 0.5799999999999557
        },
        {
          "name": "A#2",
          "midi": 46,
          "time": 147.6099999999981,
          "velocity": 0.6771653543307087,
          "duration": 0.5799999999999557
        },
        {
          "name": "F4",
          "midi": 65,
          "time": 147.6099999999981,
          "velocity": 0.5354330708661418,
          "duration": 0.5799999999999557
        },
        {
          "name": "D4",
          "midi": 62,
          "time": 147.6149999999981,
          "velocity": 0.6771653543307087,
          "duration": 0.28000000000000114
        },
        {
          "name": "A#3",
          "midi": 58,
          "time": 147.6199999999981,
          "velocity": 0.5984251968503937,
          "duration": 0.28000000000000114
        },
        {
          "name": "F3",
          "midi": 53,
          "time": 147.6199999999981,
          "velocity": 0.6771653543307087,
          "duration": 0.5799999999999557
        },
        {
          "name": "D4",
          "midi": 62,
          "time": 147.8949999999981,
          "velocity": 0.6771653543307087,
          "duration": 0.2799999999999727
        },
        {
          "name": "A#3",
          "midi": 58,
          "time": 147.9149999999981,
          "velocity": 0.5984251968503937,
          "duration": 0.28499999999996817
        },
        {
          "name": "A#4",
          "midi": 70,
          "time": 148.20499999999805,
          "velocity": 0.6771653543307087,
          "duration": 0.5799999999999841
        },
        {
          "name": "A#3",
          "midi": 58,
          "time": 148.20999999999805,
          "velocity": 0.5984251968503937,
          "duration": 0.2849999999999966
        },
        {
          "name": "A#2",
          "midi": 46,
          "time": 148.20999999999805,
          "velocity": 0.5984251968503937,
          "duration": 0.5799999999999841
        },
        {
          "name": "F4",
          "midi": 65,
          "time": 148.20999999999805,
          "velocity": 0.5354330708661418,
          "duration": 0.5799999999999841
        },
        {
          "name": "D4",
          "midi": 62,
          "time": 148.21499999999804,
          "velocity": 0.5984251968503937,
          "duration": 0.28000000000000114
        },
        {
          "name": "F3",
          "midi": 53,
          "time": 148.21499999999804,
          "velocity": 0.6771653543307087,
          "duration": 0.5799999999999841
        },
        {
          "name": "D4",
          "midi": 62,
          "time": 148.49499999999804,
          "velocity": 0.5984251968503937,
          "duration": 0.28000000000000114
        },
        {
          "name": "A#3",
          "midi": 58,
          "time": 148.51499999999805,
          "velocity": 0.5984251968503937,
          "duration": 0.2999999999999545
        },
        {
          "name": "C4",
          "midi": 60,
          "time": 148.79999999999802,
          "velocity": 0.6771653543307087,
          "duration": 0.5799999999999557
        },
        {
          "name": "A4",
          "midi": 69,
          "time": 148.80499999999802,
          "velocity": 0.6771653543307087,
          "duration": 0.5799999999999557
        },
        {
          "name": "A3",
          "midi": 57,
          "time": 148.80499999999802,
          "velocity": 0.6771653543307087,
          "duration": 0.28999999999999204
        },
        {
          "name": "F3",
          "midi": 53,
          "time": 148.80499999999802,
          "velocity": 0.6771653543307087,
          "duration": 0.3049999999999784
        },
        {
          "name": "F2",
          "midi": 41,
          "time": 148.80499999999802,
          "velocity": 0.6771653543307087,
          "duration": 0.5799999999999557
        },
        {
          "name": "F4",
          "midi": 65,
          "time": 148.809999999998,
          "velocity": 0.48031496062992124,
          "duration": 0.5799999999999557
        },
        {
          "name": "F3",
          "midi": 53,
          "time": 149.099999999998,
          "velocity": 0.6771653543307087,
          "duration": 0.30499999999995
        },
        {
          "name": "A3",
          "midi": 57,
          "time": 149.114999999998,
          "velocity": 0.5748031496062992,
          "duration": 0.2899999999999636
        },
        {
          "name": "C4",
          "midi": 60,
          "time": 149.39499999999796,
          "velocity": 0.5984251968503937,
          "duration": 0.5799999999999841
        },
        {
          "name": "A3",
          "midi": 57,
          "time": 149.39499999999796,
          "velocity": 0.5984251968503937,
          "duration": 0.28999999999999204
        },
        {
          "name": "F2",
          "midi": 41,
          "time": 149.39499999999796,
          "velocity": 0.5984251968503937,
          "duration": 0.5799999999999841
        },
        {
          "name": "F3",
          "midi": 53,
          "time": 149.39999999999796,
          "velocity": 0.5984251968503937,
          "duration": 0.29999999999998295
        },
        {
          "name": "F4",
          "midi": 65,
          "time": 149.39999999999796,
          "velocity": 0.4251968503937008,
          "duration": 0.5799999999999841
        },
        {
          "name": "A4",
          "midi": 69,
          "time": 149.40499999999795,
          "velocity": 0.6771653543307087,
          "duration": 0.5799999999999841
        },
        {
          "name": "F3",
          "midi": 53,
          "time": 149.69999999999794,
          "velocity": 0.5984251968503937,
          "duration": 0.29999999999998295
        },
        {
          "name": "A3",
          "midi": 57,
          "time": 149.70499999999794,
          "velocity": 0.6299212598425197,
          "duration": 0.28999999999999204
        },
        {
          "name": "F3",
          "midi": 53,
          "time": 149.99999999999793,
          "velocity": 0.6771653543307087,
          "duration": 0.29999999999998295
        },
        {
          "name": "A4",
          "midi": 69,
          "time": 150.00499999999792,
          "velocity": 0.6771653543307087,
          "duration": 0.5799999999999841
        },
        {
          "name": "C4",
          "midi": 60,
          "time": 150.00499999999792,
          "velocity": 0.6771653543307087,
          "duration": 0.5799999999999841
        },
        {
          "name": "F2",
          "midi": 41,
          "time": 150.00499999999792,
          "velocity": 0.6771653543307087,
          "duration": 0.5799999999999841
        },
        {
          "name": "A3",
          "midi": 57,
          "time": 150.00999999999792,
          "velocity": 0.6771653543307087,
          "duration": 0.28999999999999204
        },
        {
          "name": "F4",
          "midi": 65,
          "time": 150.00999999999792,
          "velocity": 0.48031496062992124,
          "duration": 0.5799999999999841
        },
        {
          "name": "F3",
          "midi": 53,
          "time": 150.2999999999979,
          "velocity": 0.5984251968503937,
          "duration": 0.29999999999998295
        },
        {
          "name": "A3",
          "midi": 57,
          "time": 150.2999999999979,
          "velocity": 0.5748031496062992,
          "duration": 0.28999999999999204
        },
        {
          "name": "F3",
          "midi": 53,
          "time": 150.5999999999979,
          "velocity": 0.5984251968503937,
          "duration": 0.29999999999998295
        },
        {
          "name": "C4",
          "midi": 60,
          "time": 150.6049999999979,
          "velocity": 0.5984251968503937,
          "duration": 0.5799999999999841
        },
        {
          "name": "A4",
          "midi": 69,
          "time": 150.6049999999979,
          "velocity": 0.6771653543307087,
          "duration": 0.5799999999999841
        },
        {
          "name": "F2",
          "midi": 41,
          "time": 150.6049999999979,
          "velocity": 0.5984251968503937,
          "duration": 0.5799999999999841
        },
        {
          "name": "F4",
          "midi": 65,
          "time": 150.60999999999788,
          "velocity": 0.4251968503937008,
          "duration": 0.5799999999999841
        },
        {
          "name": "A3",
          "midi": 57,
          "time": 150.60999999999788,
          "velocity": 0.5984251968503937,
          "duration": 0.28999999999999204
        },
        {
          "name": "F3",
          "midi": 53,
          "time": 150.89999999999787,
          "velocity": 0.5984251968503937,
          "duration": 0.29999999999998295
        },
        {
          "name": "A3",
          "midi": 57,
          "time": 150.90499999999787,
          "velocity": 0.6299212598425197,
          "duration": 0.28999999999999204
        },
        {
          "name": "E4",
          "midi": 64,
          "time": 151.19999999999786,
          "velocity": 0.5354330708661418,
          "duration": 0.5799999999999841
        },
        {
          "name": "G3",
          "midi": 55,
          "time": 151.20499999999785,
          "velocity": 0.6771653543307087,
          "duration": 0.3049999999999784
        },
        {
          "name": "A4",
          "midi": 69,
          "time": 151.20499999999785,
          "velocity": 0.6771653543307087,
          "duration": 0.5799999999999841
        },
        {
          "name": "F2",
          "midi": 41,
          "time": 151.20999999999785,
          "velocity": 0.6771653543307087,
          "duration": 0.5799999999999841
        },
        {
          "name": "F3",
          "midi": 53,
          "time": 151.20999999999785,
          "velocity": 0.6771653543307087,
          "duration": 0.5799999999999841
        },
        {
          "name": "C4",
          "midi": 60,
          "time": 151.21499999999784,
          "velocity": 0.6771653543307087,
          "duration": 0.28000000000000114
        },
        {
          "name": "C4",
          "midi": 60,
          "time": 151.50499999999784,
          "velocity": 0.6771653543307087,
          "duration": 0.28000000000000114
        },
        {
          "name": "F2",
          "midi": 41,
          "time": 151.79999999999782,
          "velocity": 0.5984251968503937,
          "duration": 0.5799999999999841
        },
        {
          "name": "E4",
          "midi": 64,
          "time": 151.80499999999782,
          "velocity": 0.5354330708661418,
          "duration": 0.5799999999999841
        },
        {
          "name": "C4",
          "midi": 60,
          "time": 151.80499999999782,
          "velocity": 0.5984251968503937,
          "duration": 0.28999999999999204
        },
        {
          "name": "A4",
          "midi": 69,
          "time": 151.80499999999782,
          "velocity": 0.6771653543307087,
          "duration": 0.5799999999999841
        },
        {
          "name": "F3",
          "midi": 53,
          "time": 151.8099999999978,
          "velocity": 0.6771653543307087,
          "duration": 0.5799999999999841
        },
        {
          "name": "G3",
          "midi": 55,
          "time": 151.8249999999978,
          "velocity": 0.6771653543307087,
          "duration": 0.3050000000000068
        },
        {
          "name": "C4",
          "midi": 60,
          "time": 152.0949999999978,
          "velocity": 0.5984251968503937,
          "duration": 0.28999999999999204
        },
        {
          "name": "A4",
          "midi": 69,
          "time": 152.40499999999778,
          "velocity": 0.6771653543307087,
          "duration": 0.5799999999999841
        },
        {
          "name": "F2",
          "midi": 41,
          "time": 152.40999999999778,
          "velocity": 0.6771653543307087,
          "duration": 0.5799999999999841
        },
        {
          "name": "D4",
          "midi": 62,
          "time": 152.40999999999778,
          "velocity": 0.5354330708661418,
          "duration": 0.5799999999999841
        },
        {
          "name": "F3",
          "midi": 53,
          "time": 152.41499999999778,
          "velocity": 0.6771653543307087,
          "duration": 0.5799999999999841
        },
        {
          "name": "A3",
          "midi": 57,
          "time": 152.41999999999777,
          "velocity": 0.5984251968503937,
          "duration": 0.28000000000000114
        },
        {
          "name": "A3",
          "midi": 57,
          "time": 152.71499999999776,
          "velocity": 0.5984251968503937,
          "duration": 0.2849999999999966
        },
        {
          "name": "A4",
          "midi": 69,
          "time": 153.00499999999775,
          "velocity": 0.6771653543307087,
          "duration": 0.5800000000000125
        },
        {
          "name": "D4",
          "midi": 62,
          "time": 153.00999999999775,
          "velocity": 0.5354330708661418,
          "duration": 0.5800000000000125
        },
        {
          "name": "F3",
          "midi": 53,
          "time": 153.00999999999775,
          "velocity": 0.6771653543307087,
          "duration": 0.5800000000000125
        },
        {
          "name": "A3",
          "midi": 57,
          "time": 153.00999999999775,
          "velocity": 0.5984251968503937,
          "duration": 0.2849999999999966
        },
        {
          "name": "F2",
          "midi": 41,
          "time": 153.00999999999775,
          "velocity": 0.5984251968503937,
          "duration": 0.5800000000000125
        },
        {
          "name": "A3",
          "midi": 57,
          "time": 153.31499999999775,
          "velocity": 0.5984251968503937,
          "duration": 0.29999999999998295
        },
        {
          "name": "F4",
          "midi": 65,
          "time": 153.58499999999776,
          "velocity": 0.48031496062992124,
          "duration": 0.5799999999999557
        },
        {
          "name": "A#3",
          "midi": 58,
          "time": 153.58499999999776,
          "velocity": 0.6771653543307087,
          "duration": 0.2899999999999636
        },
        {
          "name": "D4",
          "midi": 62,
          "time": 153.60499999999774,
          "velocity": 0.6771653543307087,
          "duration": 0.5799999999999841
        },
        {
          "name": "A#2",
          "midi": 46,
          "time": 153.60499999999774,
          "velocity": 0.6771653543307087,
          "duration": 0.5799999999999841
        },
        {
          "name": "F3",
          "midi": 53,
          "time": 153.60999999999774,
          "velocity": 0.6771653543307087,
          "duration": 0.3049999999999784
        },
        {
          "name": "A#4",
          "midi": 70,
          "time": 153.61999999999773,
          "velocity": 0.6771653543307087,
          "duration": 0.5799999999999841
        },
        {
          "name": "F3",
          "midi": 53,
          "time": 153.89999999999773,
          "velocity": 0.6771653543307087,
          "duration": 0.3049999999999784
        },
        {
          "name": "A#3",
          "midi": 58,
          "time": 153.91499999999772,
          "velocity": 0.5748031496062992,
          "duration": 0.28999999999999204
        },
        {
          "name": "D4",
          "midi": 62,
          "time": 154.19499999999772,
          "velocity": 0.5984251968503937,
          "duration": 0.5800000000000125
        },
        {
          "name": "A3",
          "midi": 57,
          "time": 154.19499999999772,
          "velocity": 0.5984251968503937,
          "duration": 0.28999999999999204
        },
        {
          "name": "A#2",
          "midi": 46,
          "time": 154.19499999999772,
          "velocity": 0.5984251968503937,
          "duration": 0.5800000000000125
        },
        {
          "name": "F4",
          "midi": 65,
          "time": 154.19999999999771,
          "velocity": 0.4251968503937008,
          "duration": 0.5800000000000125
        },
        {
          "name": "F3",
          "midi": 53,
          "time": 154.2049999999977,
          "velocity": 0.5984251968503937,
          "duration": 0.30000000000001137
        },
        {
          "name": "A#4",
          "midi": 70,
          "time": 154.2049999999977,
          "velocity": 0.6771653543307087,
          "duration": 0.5800000000000125
        },
        {
          "name": "F3",
          "midi": 53,
          "time": 154.50499999999772,
          "velocity": 0.5984251968503937,
          "duration": 0.29999999999998295
        },
        {
          "name": "A3",
          "midi": 57,
          "time": 154.50499999999772,
          "velocity": 0.6299212598425197,
          "duration": 0.28999999999999204
        },
        {
          "name": "A#4",
          "midi": 70,
          "time": 154.8049999999977,
          "velocity": 0.6771653543307087,
          "duration": 0.5799999999999841
        },
        {
          "name": "A#2",
          "midi": 46,
          "time": 154.8049999999977,
          "velocity": 0.6771653543307087,
          "duration": 0.5799999999999841
        },
        {
          "name": "F3",
          "midi": 53,
          "time": 154.8049999999977,
          "velocity": 0.6771653543307087,
          "duration": 0.29999999999998295
        },
        {
          "name": "D4",
          "midi": 62,
          "time": 154.8049999999977,
          "velocity": 0.6771653543307087,
          "duration": 0.5799999999999841
        },
        {
          "name": "F4",
          "midi": 65,
          "time": 154.8099999999977,
          "velocity": 0.48031496062992124,
          "duration": 0.5799999999999841
        },
        {
          "name": "A#3",
          "midi": 58,
          "time": 154.8099999999977,
          "velocity": 0.6771653543307087,
          "duration": 0.28999999999999204
        },
        {
          "name": "A#3",
          "midi": 58,
          "time": 155.0999999999977,
          "velocity": 0.5748031496062992,
          "duration": 0.28999999999999204
        },
        {
          "name": "F3",
          "midi": 53,
          "time": 155.1049999999977,
          "velocity": 0.5984251968503937,
          "duration": 0.29999999999998295
        },
        {
          "name": "A#4",
          "midi": 70,
          "time": 155.40499999999767,
          "velocity": 0.6771653543307087,
          "duration": 0.5799999999999841
        },
        {
          "name": "D4",
          "midi": 62,
          "time": 155.40499999999767,
          "velocity": 0.5984251968503937,
          "duration": 0.5799999999999841
        },
        {
          "name": "F3",
          "midi": 53,
          "time": 155.40499999999767,
          "velocity": 0.5984251968503937,
          "duration": 0.29999999999998295
        },
        {
          "name": "A#2",
          "midi": 46,
          "time": 155.40499999999767,
          "velocity": 0.5984251968503937,
          "duration": 0.5799999999999841
        },
        {
          "name": "F4",
          "midi": 65,
          "time": 155.40999999999767,
          "velocity": 0.4251968503937008,
          "duration": 0.5799999999999841
        },
        {
          "name": "A3",
          "midi": 57,
          "time": 155.40999999999767,
          "velocity": 0.5984251968503937,
          "duration": 0.28999999999999204
        },
        {
          "name": "A3",
          "midi": 57,
          "time": 155.70499999999765,
          "velocity": 0.6299212598425197,
          "duration": 0.28999999999999204
        },
        {
          "name": "F3",
          "midi": 53,
          "time": 155.70499999999765,
          "velocity": 0.5984251968503937,
          "duration": 0.29999999999998295
        },
        {
          "name": "F4",
          "midi": 65,
          "time": 155.99999999999764,
          "velocity": 0.5354330708661418,
          "duration": 0.5799999999999557
        },
        {
          "name": "A#4",
          "midi": 70,
          "time": 156.00499999999764,
          "velocity": 0.6771653543307087,
          "duration": 0.5799999999999557
        },
        {
          "name": "A#3",
          "midi": 58,
          "time": 156.00499999999764,
          "velocity": 0.6771653543307087,
          "duration": 0.3049999999999784
        },
        {
          "name": "A#2",
          "midi": 46,
          "time": 156.00999999999763,
          "velocity": 0.6771653543307087,
          "duration": 0.5799999999999557
        },
        {
          "name": "F3",
          "midi": 53,
          "time": 156.01499999999763,
          "velocity": 0.6771653543307087,
          "duration": 0.5799999999999557
        },
        {
          "name": "D4",
          "midi": 62,
          "time": 156.01499999999763,
          "velocity": 0.6771653543307087,
          "duration": 0.28000000000000114
        },
        {
          "name": "D4",
          "midi": 62,
          "time": 156.30499999999762,
          "velocity": 0.6771653543307087,
          "duration": 0.2799999999999727
        },
        {
          "name": "A#3",
          "midi": 58,
          "time": 156.3149999999976,
          "velocity": 0.6771653543307087,
          "duration": 0.30499999999995
        },
        {
          "name": "A#2",
          "midi": 46,
          "time": 156.59999999999758,
          "velocity": 0.5984251968503937,
          "duration": 0.5799999999999841
        },
        {
          "name": "D4",
          "midi": 62,
          "time": 156.60499999999757,
          "velocity": 0.5984251968503937,
          "duration": 0.28999999999999204
        },
        {
          "name": "F4",
          "midi": 65,
          "time": 156.60499999999757,
          "velocity": 0.5354330708661418,
          "duration": 0.5799999999999841
        },
        {
          "name": "A#4",
          "midi": 70,
          "time": 156.60499999999757,
          "velocity": 0.6771653543307087,
          "duration": 0.5799999999999841
        },
        {
          "name": "F3",
          "midi": 53,
          "time": 156.61499999999756,
          "velocity": 0.6771653543307087,
          "duration": 0.5799999999999841
        },
        {
          "name": "A#3",
          "midi": 58,
          "time": 156.62499999999756,
          "velocity": 0.6771653543307087,
          "duration": 0.3050000000000068
        },
        {
          "name": "D4",
          "midi": 62,
          "time": 156.89499999999757,
          "velocity": 0.5984251968503937,
          "duration": 0.28999999999999204
        },
        {
          "name": "A#3",
          "midi": 58,
          "time": 156.91499999999758,
          "velocity": 0.5984251968503937,
          "duration": 0.2799999999999727
        },
        {
          "name": "A#4",
          "midi": 70,
          "time": 157.20499999999754,
          "velocity": 0.6771653543307087,
          "duration": 0.5799999999999557
        },
        {
          "name": "A#2",
          "midi": 46,
          "time": 157.20999999999754,
          "velocity": 0.6771653543307087,
          "duration": 0.5799999999999557
        },
        {
          "name": "F4",
          "midi": 65,
          "time": 157.20999999999754,
          "velocity": 0.5354330708661418,
          "duration": 0.5799999999999557
        },
        {
          "name": "D4",
          "midi": 62,
          "time": 157.21499999999753,
          "velocity": 0.6771653543307087,
          "duration": 0.28000000000000114
        },
        {
          "name": "A#3",
          "midi": 58,
          "time": 157.21999999999753,
          "velocity": 0.5984251968503937,
          "duration": 0.28000000000000114
        },
        {
          "name": "F3",
          "midi": 53,
          "time": 157.21999999999753,
          "velocity": 0.6771653543307087,
          "duration": 0.5799999999999557
        },
        {
          "name": "D4",
          "midi": 62,
          "time": 157.49499999999753,
          "velocity": 0.6771653543307087,
          "duration": 0.2799999999999727
        },
        {
          "name": "A#3",
          "midi": 58,
          "time": 157.5149999999975,
          "velocity": 0.5984251968503937,
          "duration": 0.28499999999996817
        },
        {
          "name": "A#4",
          "midi": 70,
          "time": 157.80499999999748,
          "velocity": 0.6771653543307087,
          "duration": 0.5799999999999841
        },
        {
          "name": "A#3",
          "midi": 58,
          "time": 157.80999999999747,
          "velocity": 0.5984251968503937,
          "duration": 0.2849999999999966
        },
        {
          "name": "A#2",
          "midi": 46,
          "time": 157.80999999999747,
          "velocity": 0.5984251968503937,
          "duration": 0.5799999999999841
        },
        {
          "name": "F4",
          "midi": 65,
          "time": 157.80999999999747,
          "velocity": 0.5354330708661418,
          "duration": 0.5799999999999841
        },
        {
          "name": "D4",
          "midi": 62,
          "time": 157.81499999999747,
          "velocity": 0.5984251968503937,
          "duration": 0.28000000000000114
        },
        {
          "name": "F3",
          "midi": 53,
          "time": 157.81499999999747,
          "velocity": 0.6771653543307087,
          "duration": 0.5799999999999841
        },
        {
          "name": "D4",
          "midi": 62,
          "time": 158.09499999999747,
          "velocity": 0.5984251968503937,
          "duration": 0.28000000000000114
        },
        {
          "name": "A#3",
          "midi": 58,
          "time": 158.11499999999748,
          "velocity": 0.5984251968503937,
          "duration": 0.2999999999999545
        },
        {
          "name": "C4",
          "midi": 60,
          "time": 158.39999999999745,
          "velocity": 0.6771653543307087,
          "duration": 0.5799999999999557
        },
        {
          "name": "A4",
          "midi": 69,
          "time": 158.40499999999744,
          "velocity": 0.6771653543307087,
          "duration": 0.5799999999999557
        },
        {
          "name": "A3",
          "midi": 57,
          "time": 158.40499999999744,
          "velocity": 0.6771653543307087,
          "duration": 0.28999999999999204
        },
        {
          "name": "F3",
          "midi": 53,
          "time": 158.40499999999744,
          "velocity": 0.6771653543307087,
          "duration": 0.3049999999999784
        },
        {
          "name": "F2",
          "midi": 41,
          "time": 158.40499999999744,
          "velocity": 0.6771653543307087,
          "duration": 0.5799999999999557
        },
        {
          "name": "F4",
          "midi": 65,
          "time": 158.40999999999744,
          "velocity": 0.48031496062992124,
          "duration": 0.5799999999999557
        },
        {
          "name": "F3",
          "midi": 53,
          "time": 158.69999999999743,
          "velocity": 0.6771653543307087,
          "duration": 0.30499999999995
        },
        {
          "name": "A3",
          "midi": 57,
          "time": 158.71499999999742,
          "velocity": 0.5748031496062992,
          "duration": 0.2899999999999636
        },
        {
          "name": "C4",
          "midi": 60,
          "time": 158.9949999999974,
          "velocity": 0.5984251968503937,
          "duration": 0.5799999999999841
        },
        {
          "name": "A3",
          "midi": 57,
          "time": 158.9949999999974,
          "velocity": 0.5984251968503937,
          "duration": 0.28999999999999204
        },
        {
          "name": "F2",
          "midi": 41,
          "time": 158.9949999999974,
          "velocity": 0.5984251968503937,
          "duration": 0.5799999999999841
        },
        {
          "name": "F3",
          "midi": 53,
          "time": 158.99999999999739,
          "velocity": 0.5984251968503937,
          "duration": 0.29999999999998295
        },
        {
          "name": "F4",
          "midi": 65,
          "time": 158.99999999999739,
          "velocity": 0.4251968503937008,
          "duration": 0.5799999999999841
        },
        {
          "name": "A4",
          "midi": 69,
          "time": 159.00499999999738,
          "velocity": 0.6771653543307087,
          "duration": 0.5799999999999841
        },
        {
          "name": "F3",
          "midi": 53,
          "time": 159.29999999999737,
          "velocity": 0.5984251968503937,
          "duration": 0.29999999999998295
        },
        {
          "name": "A3",
          "midi": 57,
          "time": 159.30499999999736,
          "velocity": 0.6299212598425197,
          "duration": 0.28999999999999204
        },
        {
          "name": "F3",
          "midi": 53,
          "time": 159.59999999999735,
          "velocity": 0.6771653543307087,
          "duration": 0.29999999999998295
        },
        {
          "name": "A4",
          "midi": 69,
          "time": 159.60499999999735,
          "velocity": 0.6771653543307087,
          "duration": 0.5799999999999841
        },
        {
          "name": "C4",
          "midi": 60,
          "time": 159.60499999999735,
          "velocity": 0.6771653543307087,
          "duration": 0.5799999999999841
        },
        {
          "name": "F2",
          "midi": 41,
          "time": 159.60499999999735,
          "velocity": 0.6771653543307087,
          "duration": 0.5799999999999841
        },
        {
          "name": "A3",
          "midi": 57,
          "time": 159.60999999999734,
          "velocity": 0.6771653543307087,
          "duration": 0.28999999999999204
        },
        {
          "name": "F4",
          "midi": 65,
          "time": 159.60999999999734,
          "velocity": 0.48031496062992124,
          "duration": 0.5799999999999841
        },
        {
          "name": "F3",
          "midi": 53,
          "time": 159.89999999999733,
          "velocity": 0.5984251968503937,
          "duration": 0.29999999999998295
        },
        {
          "name": "A3",
          "midi": 57,
          "time": 159.89999999999733,
          "velocity": 0.5748031496062992,
          "duration": 0.28999999999999204
        },
        {
          "name": "F3",
          "midi": 53,
          "time": 160.19999999999732,
          "velocity": 0.5984251968503937,
          "duration": 0.29999999999998295
        },
        {
          "name": "C4",
          "midi": 60,
          "time": 160.2049999999973,
          "velocity": 0.5984251968503937,
          "duration": 0.5799999999999841
        },
        {
          "name": "A4",
          "midi": 69,
          "time": 160.2049999999973,
          "velocity": 0.6771653543307087,
          "duration": 0.5799999999999841
        },
        {
          "name": "F2",
          "midi": 41,
          "time": 160.2049999999973,
          "velocity": 0.5984251968503937,
          "duration": 0.5799999999999841
        },
        {
          "name": "F4",
          "midi": 65,
          "time": 160.2099999999973,
          "velocity": 0.4251968503937008,
          "duration": 0.5799999999999841
        },
        {
          "name": "A3",
          "midi": 57,
          "time": 160.2099999999973,
          "velocity": 0.5984251968503937,
          "duration": 0.28999999999999204
        },
        {
          "name": "F3",
          "midi": 53,
          "time": 160.4999999999973,
          "velocity": 0.5984251968503937,
          "duration": 0.29999999999998295
        },
        {
          "name": "A3",
          "midi": 57,
          "time": 160.5049999999973,
          "velocity": 0.6299212598425197,
          "duration": 0.28999999999999204
        },
        {
          "name": "E4",
          "midi": 64,
          "time": 160.79999999999728,
          "velocity": 0.5354330708661418,
          "duration": 0.5799999999999841
        },
        {
          "name": "G3",
          "midi": 55,
          "time": 160.80499999999728,
          "velocity": 0.6771653543307087,
          "duration": 0.3049999999999784
        },
        {
          "name": "A4",
          "midi": 69,
          "time": 160.80499999999728,
          "velocity": 0.6771653543307087,
          "duration": 0.5799999999999841
        },
        {
          "name": "F2",
          "midi": 41,
          "time": 160.80999999999727,
          "velocity": 0.6771653543307087,
          "duration": 0.5799999999999841
        },
        {
          "name": "F3",
          "midi": 53,
          "time": 160.80999999999727,
          "velocity": 0.6771653543307087,
          "duration": 0.5799999999999841
        },
        {
          "name": "C4",
          "midi": 60,
          "time": 160.81499999999727,
          "velocity": 0.6771653543307087,
          "duration": 0.28000000000000114
        },
        {
          "name": "C4",
          "midi": 60,
          "time": 161.10499999999726,
          "velocity": 0.6771653543307087,
          "duration": 0.28000000000000114
        },
        {
          "name": "F2",
          "midi": 41,
          "time": 161.39999999999725,
          "velocity": 0.5984251968503937,
          "duration": 0.5799999999999841
        },
        {
          "name": "E4",
          "midi": 64,
          "time": 161.40499999999724,
          "velocity": 0.5354330708661418,
          "duration": 0.5799999999999841
        },
        {
          "name": "C4",
          "midi": 60,
          "time": 161.40499999999724,
          "velocity": 0.5984251968503937,
          "duration": 0.28999999999999204
        },
        {
          "name": "A4",
          "midi": 69,
          "time": 161.40499999999724,
          "velocity": 0.6771653543307087,
          "duration": 0.5799999999999841
        },
        {
          "name": "F3",
          "midi": 53,
          "time": 161.40999999999724,
          "velocity": 0.6771653543307087,
          "duration": 0.5799999999999841
        },
        {
          "name": "G3",
          "midi": 55,
          "time": 161.42499999999723,
          "velocity": 0.6771653543307087,
          "duration": 0.3050000000000068
        },
        {
          "name": "C4",
          "midi": 60,
          "time": 161.69499999999724,
          "velocity": 0.5984251968503937,
          "duration": 0.28999999999999204
        },
        {
          "name": "A4",
          "midi": 69,
          "time": 162.0049999999972,
          "velocity": 0.6771653543307087,
          "duration": 0.5799999999999841
        },
        {
          "name": "F2",
          "midi": 41,
          "time": 162.0099999999972,
          "velocity": 0.6771653543307087,
          "duration": 0.5799999999999841
        },
        {
          "name": "D4",
          "midi": 62,
          "time": 162.0099999999972,
          "velocity": 0.5354330708661418,
          "duration": 0.5799999999999841
        },
        {
          "name": "F3",
          "midi": 53,
          "time": 162.0149999999972,
          "velocity": 0.6771653543307087,
          "duration": 0.5799999999999841
        },
        {
          "name": "A3",
          "midi": 57,
          "time": 162.0199999999972,
          "velocity": 0.5984251968503937,
          "duration": 0.28000000000000114
        },
        {
          "name": "A3",
          "midi": 57,
          "time": 162.31499999999718,
          "velocity": 0.5984251968503937,
          "duration": 0.2849999999999966
        },
        {
          "name": "A4",
          "midi": 69,
          "time": 162.60499999999718,
          "velocity": 0.6771653543307087,
          "duration": 0.5800000000000125
        },
        {
          "name": "D4",
          "midi": 62,
          "time": 162.60999999999717,
          "velocity": 0.5354330708661418,
          "duration": 0.5800000000000125
        },
        {
          "name": "F3",
          "midi": 53,
          "time": 162.60999999999717,
          "velocity": 0.6771653543307087,
          "duration": 0.5800000000000125
        },
        {
          "name": "A3",
          "midi": 57,
          "time": 162.60999999999717,
          "velocity": 0.5984251968503937,
          "duration": 0.2849999999999966
        },
        {
          "name": "F2",
          "midi": 41,
          "time": 162.60999999999717,
          "velocity": 0.5984251968503937,
          "duration": 0.5800000000000125
        },
        {
          "name": "A3",
          "midi": 57,
          "time": 162.91499999999718,
          "velocity": 0.5984251968503937,
          "duration": 0.29999999999998295
        },
        {
          "name": "G4",
          "midi": 67,
          "time": 163.20499999999717,
          "velocity": 0.6771653543307087,
          "duration": 0.5799999999999557
        },
        {
          "name": "E4",
          "midi": 64,
          "time": 163.20499999999717,
          "velocity": 0.6771653543307087,
          "duration": 0.28000000000000114
        },
        {
          "name": "C4",
          "midi": 60,
          "time": 163.20499999999717,
          "velocity": 0.6771653543307087,
          "duration": 0.3049999999999784
        },
        {
          "name": "G3",
          "midi": 55,
          "time": 163.20499999999717,
          "velocity": 0.6771653543307087,
          "duration": 0.5799999999999557
        },
        {
          "name": "C3",
          "midi": 48,
          "time": 163.20499999999717,
          "velocity": 0.6771653543307087,
          "duration": 0.5799999999999557
        },
        {
          "name": "E4",
          "midi": 64,
          "time": 163.49499999999716,
          "velocity": 0.6771653543307087,
          "duration": 0.2799999999999727
        },
        {
          "name": "C4",
          "midi": 60,
          "time": 163.51499999999714,
          "velocity": 0.6771653543307087,
          "duration": 0.30499999999995
        },
        {
          "name": "C3",
          "midi": 48,
          "time": 163.79499999999712,
          "velocity": 0.5984251968503937,
          "duration": 0.5799999999999557
        },
        {
          "name": "E4",
          "midi": 64,
          "time": 163.79499999999712,
          "velocity": 0.5984251968503937,
          "duration": 0.2899999999999636
        },
        {
          "name": "G3",
          "midi": 55,
          "time": 163.8049999999971,
          "velocity": 0.6771653543307087,
          "duration": 0.5799999999999557
        },
        {
          "name": "G4",
          "midi": 67,
          "time": 163.8049999999971,
          "velocity": 0.6771653543307087,
          "duration": 0.5799999999999557
        },
        {
          "name": "C4",
          "midi": 60,
          "time": 163.8249999999971,
          "velocity": 0.6771653543307087,
          "duration": 0.3049999999999784
        },
        {
          "name": "E4",
          "midi": 64,
          "time": 164.08499999999708,
          "velocity": 0.5984251968503937,
          "duration": 0.28999999999999204
        },
        {
          "name": "C4",
          "midi": 60,
          "time": 164.11499999999708,
          "velocity": 0.5984251968503937,
          "duration": 0.2799999999999727
        },
        {
          "name": "C3",
          "midi": 48,
          "time": 164.40499999999705,
          "velocity": 0.6771653543307087,
          "duration": 0.5799999999999557
        },
        {
          "name": "E4",
          "midi": 64,
          "time": 164.40499999999705,
          "velocity": 0.6771653543307087,
          "duration": 0.2799999999999727
        },
        {
          "name": "G4",
          "midi": 67,
          "time": 164.40499999999705,
          "velocity": 0.6771653543307087,
          "duration": 0.5799999999999557
        },
        {
          "name": "G3",
          "midi": 55,
          "time": 164.40999999999704,
          "velocity": 0.6771653543307087,
          "duration": 0.5799999999999557
        },
        {
          "name": "C4",
          "midi": 60,
          "time": 164.41999999999703,
          "velocity": 0.5984251968503937,
          "duration": 0.2799999999999727
        },
        {
          "name": "E4",
          "midi": 64,
          "time": 164.68499999999702,
          "velocity": 0.6771653543307087,
          "duration": 0.2799999999999727
        },
        {
          "name": "C4",
          "midi": 60,
          "time": 164.714999999997,
          "velocity": 0.5984251968503937,
          "duration": 0.2849999999999966
        },
        {
          "name": "G4",
          "midi": 67,
          "time": 165.00499999999698,
          "velocity": 0.6771653543307087,
          "duration": 0.5799999999999557
        },
        {
          "name": "E4",
          "midi": 64,
          "time": 165.00499999999698,
          "velocity": 0.5984251968503937,
          "duration": 0.28000000000000114
        },
        {
          "name": "C3",
          "midi": 48,
          "time": 165.00499999999698,
          "velocity": 0.5984251968503937,
          "duration": 0.2949999999999875
        },
        {
          "name": "G3",
          "midi": 55,
          "time": 165.00499999999698,
          "velocity": 0.6771653543307087,
          "duration": 0.5799999999999557
        },
        {
          "name": "C4",
          "midi": 60,
          "time": 165.00999999999698,
          "velocity": 0.5984251968503937,
          "duration": 0.2849999999999966
        },
        {
          "name": "D4",
          "midi": 62,
          "time": 165.28499999999698,
          "velocity": 0.5984251968503937,
          "duration": 0.2799999999999727
        },
        {
          "name": "A#2",
          "midi": 46,
          "time": 165.29999999999697,
          "velocity": 0.5984251968503937,
          "duration": 0.2799999999999727
        },
        {
          "name": "C4",
          "midi": 60,
          "time": 165.31499999999696,
          "velocity": 0.5984251968503937,
          "duration": 0.27499999999997726
        },
        {
          "name": "C2",
          "midi": 36,
          "time": 165.59499999999693,
          "velocity": 0.5984251968503937,
          "duration": 0.5749999999999602
        },
        {
          "name": "C3",
          "midi": 48,
          "time": 165.59499999999693,
          "velocity": 0.5984251968503937,
          "duration": 0.5749999999999602
        },
        {
          "name": "G3",
          "midi": 55,
          "time": 165.59999999999692,
          "velocity": 0.5984251968503937,
          "duration": 0.5749999999999602
        },
        {
          "name": "C4",
          "midi": 60,
          "time": 165.6149999999969,
          "velocity": 0.5984251968503937,
          "duration": 0.5749999999999602
        },
        {
          "name": "E4",
          "midi": 64,
          "time": 165.6299999999969,
          "velocity": 0.6771653543307087,
          "duration": 0.5799999999999841
        },
        {
          "name": "C4",
          "midi": 60,
          "time": 167.39999999999688,
          "velocity": 0.6771653543307087,
          "duration": 0.5799999999999841
        },
        {
          "name": "E4",
          "midi": 64,
          "time": 167.40499999999687,
          "velocity": 0.6771653543307087,
          "duration": 0.5799999999999841
        },
        {
          "name": "G4",
          "midi": 67,
          "time": 167.41499999999687,
          "velocity": 0.6771653543307087,
          "duration": 0.5799999999999841
        },
        {
          "name": "A#4",
          "midi": 70,
          "time": 167.41499999999687,
          "velocity": 0.6771653543307087,
          "duration": 0.5799999999999841
        },
        {
          "name": "F2",
          "midi": 41,
          "time": 167.99999999999685,
          "velocity": 0.5196850393700787,
          "duration": 0.2799999999999727
        },
        {
          "name": "C3",
          "midi": 48,
          "time": 167.99999999999685,
          "velocity": 0.6771653543307087,
          "duration": 0.29999999999998295
        },
        {
          "name": "F4",
          "midi": 65,
          "time": 167.99999999999685,
          "velocity": 0.6771653543307087,
          "duration": 0.5799999999999841
        },
        {
          "name": "A3",
          "midi": 57,
          "time": 167.99999999999685,
          "velocity": 0.6771653543307087,
          "duration": 0.2799999999999727
        },
        {
          "name": "F3",
          "midi": 53,
          "time": 167.99999999999685,
          "velocity": 0.6771653543307087,
          "duration": 0.2799999999999727
        },
        {
          "name": "A4",
          "midi": 69,
          "time": 168.01499999999683,
          "velocity": 0.6771653543307087,
          "duration": 0.5799999999999841
        },
        {
          "name": "C4",
          "midi": 60,
          "time": 168.01999999999683,
          "velocity": 0.6771653543307087,
          "duration": 0.28000000000000114
        },
        {
          "name": "C3",
          "midi": 48,
          "time": 168.29999999999683,
          "velocity": 0.4881889763779528,
          "duration": 0.29999999999998295
        },
        {
          "name": "F3",
          "midi": 53,
          "time": 168.30499999999682,
          "velocity": 0.4881889763779528,
          "duration": 0.28000000000000114
        },
        {
          "name": "A3",
          "midi": 57,
          "time": 168.30499999999682,
          "velocity": 0.4881889763779528,
          "duration": 0.28000000000000114
        },
        {
          "name": "C3",
          "midi": 48,
          "time": 168.58999999999682,
          "velocity": 0.5984251968503937,
          "duration": 0.5799999999999557
        },
        {
          "name": "C4",
          "midi": 60,
          "time": 168.59499999999682,
          "velocity": 0.6771653543307087,
          "duration": 0.2799999999999727
        },
        {
          "name": "F2",
          "midi": 41,
          "time": 168.5999999999968,
          "velocity": 0.5196850393700787,
          "duration": 0.2799999999999727
        },
        {
          "name": "A3",
          "midi": 57,
          "time": 168.6049999999968,
          "velocity": 0.5984251968503937,
          "duration": 0.29999999999998295
        },
        {
          "name": "F3",
          "midi": 53,
          "time": 168.6049999999968,
          "velocity": 0.5984251968503937,
          "duration": 0.29999999999998295
        },
        {
          "name": "A4",
          "midi": 69,
          "time": 168.6149999999968,
          "velocity": 0.6771653543307087,
          "duration": 0.5799999999999841
        },
        {
          "name": "F4",
          "midi": 65,
          "time": 168.6149999999968,
          "velocity": 0.5984251968503937,
          "duration": 0.5799999999999841
        },
        {
          "name": "F3",
          "midi": 53,
          "time": 168.9049999999968,
          "velocity": 0.5984251968503937,
          "duration": 0.29999999999998295
        },
        {
          "name": "A3",
          "midi": 57,
          "time": 168.9049999999968,
          "velocity": 0.5984251968503937,
          "duration": 0.29999999999998295
        },
        {
          "name": "C4",
          "midi": 60,
          "time": 169.19499999999678,
          "velocity": 0.6771653543307087,
          "duration": 0.2799999999999727
        },
        {
          "name": "F2",
          "midi": 41,
          "time": 169.19999999999678,
          "velocity": 0.5196850393700787,
          "duration": 0.2799999999999727
        },
        {
          "name": "C3",
          "midi": 48,
          "time": 169.20499999999677,
          "velocity": 0.6771653543307087,
          "duration": 0.5799999999999557
        },
        {
          "name": "A4",
          "midi": 69,
          "time": 169.21499999999676,
          "velocity": 0.6771653543307087,
          "duration": 0.5799999999999557
        },
        {
          "name": "F3",
          "midi": 53,
          "time": 169.21499999999676,
          "velocity": 0.6771653543307087,
          "duration": 0.27499999999997726
        },
        {
          "name": "A3",
          "midi": 57,
          "time": 169.21499999999676,
          "velocity": 0.6771653543307087,
          "duration": 0.27499999999997726
        },
        {
          "name": "F4",
          "midi": 65,
          "time": 169.21999999999676,
          "velocity": 0.6771653543307087,
          "duration": 0.5799999999999557
        },
        {
          "name": "F3",
          "midi": 53,
          "time": 169.50499999999673,
          "velocity": 0.5196850393700787,
          "duration": 0.2750000000000057
        },
        {
          "name": "A3",
          "midi": 57,
          "time": 169.50499999999673,
          "velocity": 0.5196850393700787,
          "duration": 0.2750000000000057
        },
        {
          "name": "C3",
          "midi": 48,
          "time": 169.78999999999672,
          "velocity": 0.5984251968503937,
          "duration": 0.5799999999999557
        },
        {
          "name": "A4",
          "midi": 69,
          "time": 169.79999999999671,
          "velocity": 0.6771653543307087,
          "duration": 0.5799999999999557
        },
        {
          "name": "F2",
          "midi": 41,
          "time": 169.79999999999671,
          "velocity": 0.5196850393700787,
          "duration": 0.2799999999999727
        },
        {
          "name": "C4",
          "midi": 60,
          "time": 169.79999999999671,
          "velocity": 0.6771653543307087,
          "duration": 0.2799999999999727
        },
        {
          "name": "A3",
          "midi": 57,
          "time": 169.8149999999967,
          "velocity": 0.5984251968503937,
          "duration": 0.27499999999997726
        },
        {
          "name": "F3",
          "midi": 53,
          "time": 169.8149999999967,
          "velocity": 0.5984251968503937,
          "duration": 0.27499999999997726
        },
        {
          "name": "F4",
          "midi": 65,
          "time": 169.8199999999967,
          "velocity": 0.5984251968503937,
          "duration": 0.5799999999999557
        },
        {
          "name": "F3",
          "midi": 53,
          "time": 170.11499999999668,
          "velocity": 0.5984251968503937,
          "duration": 0.27499999999997726
        },
        {
          "name": "F4",
          "midi": 65,
          "time": 170.39999999999665,
          "velocity": 0.6771653543307087,
          "duration": 0.5800000000000125
        },
        {
          "name": "F3",
          "midi": 53,
          "time": 170.39999999999665,
          "velocity": 0.6771653543307087,
          "duration": 0.28000000000000114
        },
        {
          "name": "D4",
          "midi": 62,
          "time": 170.39999999999665,
          "velocity": 0.6771653543307087,
          "duration": 0.28000000000000114
        },
        {
          "name": "A#3",
          "midi": 58,
          "time": 170.39999999999665,
          "velocity": 0.6771653543307087,
          "duration": 0.28000000000000114
        },
        {
          "name": "A#2",
          "midi": 46,
          "time": 170.39999999999665,
          "velocity": 0.6771653543307087,
          "duration": 0.30000000000001137
        },
        {
          "name": "A#4",
          "midi": 70,
          "time": 170.41999999999666,
          "velocity": 0.6771653543307087,
          "duration": 0.5799999999999841
        },
        {
          "name": "A#2",
          "midi": 46,
          "time": 170.69999999999666,
          "velocity": 0.4881889763779528,
          "duration": 0.29999999999998295
        },
        {
          "name": "F3",
          "midi": 53,
          "time": 170.70499999999666,
          "velocity": 0.4881889763779528,
          "duration": 0.28000000000000114
        },
        {
          "name": "A#3",
          "midi": 58,
          "time": 170.70499999999666,
          "velocity": 0.4881889763779528,
          "duration": 0.28000000000000114
        },
        {
          "name": "D4",
          "midi": 62,
          "time": 170.97999999999666,
          "velocity": 0.6771653543307087,
          "duration": 0.2799999999999443
        },
        {
          "name": "A#2",
          "midi": 46,
          "time": 170.98999999999666,
          "velocity": 0.5984251968503937,
          "duration": 0.5799999999999272
        },
        {
          "name": "A#3",
          "midi": 58,
          "time": 171.00499999999664,
          "velocity": 0.5984251968503937,
          "duration": 0.2999999999999545
        },
        {
          "name": "F3",
          "midi": 53,
          "time": 171.00499999999664,
          "velocity": 0.5984251968503937,
          "duration": 0.2999999999999545
        },
        {
          "name": "F4",
          "midi": 65,
          "time": 171.01499999999663,
          "velocity": 0.5984251968503937,
          "duration": 0.5799999999999272
        },
        {
          "name": "A#4",
          "midi": 70,
          "time": 171.02999999999662,
          "velocity": 0.6771653543307087,
          "duration": 0.5799999999999272
        },
        {
          "name": "F3",
          "midi": 53,
          "time": 171.3049999999966,
          "velocity": 0.5984251968503937,
          "duration": 0.2999999999999545
        },
        {
          "name": "A#3",
          "midi": 58,
          "time": 171.3049999999966,
          "velocity": 0.5984251968503937,
          "duration": 0.2999999999999545
        },
        {
          "name": "D4",
          "midi": 62,
          "time": 171.57999999999657,
          "velocity": 0.6771653543307087,
          "duration": 0.2799999999999443
        },
        {
          "name": "A#2",
          "midi": 46,
          "time": 171.60499999999655,
          "velocity": 0.6771653543307087,
          "duration": 0.5799999999999557
        },
        {
          "name": "F3",
          "midi": 53,
          "time": 171.61499999999654,
          "velocity": 0.6771653543307087,
          "duration": 0.27499999999997726
        },
        {
          "name": "A#3",
          "midi": 58,
          "time": 171.61499999999654,
          "velocity": 0.6771653543307087,
          "duration": 0.27499999999997726
        },
        {
          "name": "F4",
          "midi": 65,
          "time": 171.61999999999654,
          "velocity": 0.6771653543307087,
          "duration": 0.5799999999999557
        },
        {
          "name": "A#4",
          "midi": 70,
          "time": 171.63499999999652,
          "velocity": 0.6771653543307087,
          "duration": 0.5799999999999557
        },
        {
          "name": "A#3",
          "midi": 58,
          "time": 171.9049999999965,
          "velocity": 0.5196850393700787,
          "duration": 0.2750000000000057
        },
        {
          "name": "F3",
          "midi": 53,
          "time": 171.9049999999965,
          "velocity": 0.5196850393700787,
          "duration": 0.2750000000000057
        },
        {
          "name": "D4",
          "midi": 62,
          "time": 172.1849999999965,
          "velocity": 0.6771653543307087,
          "duration": 0.2799999999999727
        },
        {
          "name": "A#2",
          "midi": 46,
          "time": 172.1899999999965,
          "velocity": 0.5984251968503937,
          "duration": 0.5799999999999841
        },
        {
          "name": "A4",
          "midi": 69,
          "time": 172.1999999999965,
          "velocity": 0.6771653543307087,
          "duration": 0.5799999999999841
        },
        {
          "name": "A#3",
          "midi": 58,
          "time": 172.21499999999648,
          "velocity": 0.5984251968503937,
          "duration": 0.2750000000000057
        },
        {
          "name": "F3",
          "midi": 53,
          "time": 172.21499999999648,
          "velocity": 0.5984251968503937,
          "duration": 0.2750000000000057
        },
        {
          "name": "F4",
          "midi": 65,
          "time": 172.21999999999647,
          "velocity": 0.5984251968503937,
          "duration": 0.5799999999999841
        },
        {
          "name": "F3",
          "midi": 53,
          "time": 172.5149999999965,
          "velocity": 0.5984251968503937,
          "duration": 0.27499999999997726
        },
        {
          "name": "F2",
          "midi": 41,
          "time": 172.79999999999646,
          "velocity": 0.5196850393700787,
          "duration": 0.2799999999999727
        },
        {
          "name": "C3",
          "midi": 48,
          "time": 172.79999999999646,
          "velocity": 0.6771653543307087,
          "duration": 0.29999999999998295
        },
        {
          "name": "F4",
          "midi": 65,
          "time": 172.79999999999646,
          "velocity": 0.6771653543307087,
          "duration": 0.5799999999999841
        },
        {
          "name": "A3",
          "midi": 57,
          "time": 172.79999999999646,
          "velocity": 0.6771653543307087,
          "duration": 0.2799999999999727
        },
        {
          "name": "F3",
          "midi": 53,
          "time": 172.79999999999646,
          "velocity": 0.6771653543307087,
          "duration": 0.2799999999999727
        },
        {
          "name": "A4",
          "midi": 69,
          "time": 172.81499999999645,
          "velocity": 0.6771653543307087,
          "duration": 0.5799999999999841
        },
        {
          "name": "C4",
          "midi": 60,
          "time": 172.81999999999644,
          "velocity": 0.6771653543307087,
          "duration": 0.28000000000000114
        },
        {
          "name": "C3",
          "midi": 48,
          "time": 173.09999999999644,
          "velocity": 0.4881889763779528,
          "duration": 0.29999999999998295
        },
        {
          "name": "F3",
          "midi": 53,
          "time": 173.10499999999644,
          "velocity": 0.4881889763779528,
          "duration": 0.28000000000000114
        },
        {
          "name": "A3",
          "midi": 57,
          "time": 173.10499999999644,
          "velocity": 0.4881889763779528,
          "duration": 0.28000000000000114
        },
        {
          "name": "C3",
          "midi": 48,
          "time": 173.38999999999643,
          "velocity": 0.5984251968503937,
          "duration": 0.5799999999999557
        },
        {
          "name": "C4",
          "midi": 60,
          "time": 173.39499999999643,
          "velocity": 0.6771653543307087,
          "duration": 0.2799999999999727
        },
        {
          "name": "F2",
          "midi": 41,
          "time": 173.39999999999642,
          "velocity": 0.5196850393700787,
          "duration": 0.2799999999999727
        },
        {
          "name": "A3",
          "midi": 57,
          "time": 173.40499999999642,
          "velocity": 0.5984251968503937,
          "duration": 0.29999999999998295
        },
        {
          "name": "F3",
          "midi": 53,
          "time": 173.40499999999642,
          "velocity": 0.5984251968503937,
          "duration": 0.29999999999998295
        },
        {
          "name": "A4",
          "midi": 69,
          "time": 173.4149999999964,
          "velocity": 0.6771653543307087,
          "duration": 0.5799999999999841
        },
        {
          "name": "F4",
          "midi": 65,
          "time": 173.4149999999964,
          "velocity": 0.5984251968503937,
          "duration": 0.5799999999999841
        },
        {
          "name": "F3",
          "midi": 53,
          "time": 173.7049999999964,
          "velocity": 0.5984251968503937,
          "duration": 0.29999999999998295
        },
        {
          "name": "A3",
          "midi": 57,
          "time": 173.7049999999964,
          "velocity": 0.5984251968503937,
          "duration": 0.29999999999998295
        },
        {
          "name": "C4",
          "midi": 60,
          "time": 173.9949999999964,
          "velocity": 0.6771653543307087,
          "duration": 0.2799999999999727
        },
        {
          "name": "F2",
          "midi": 41,
          "time": 173.9999999999964,
          "velocity": 0.5196850393700787,
          "duration": 0.2799999999999727
        },
        {
          "name": "C3",
          "midi": 48,
          "time": 174.0049999999964,
          "velocity": 0.6771653543307087,
          "duration": 0.5799999999999557
        },
        {
          "name": "A4",
          "midi": 69,
          "time": 174.01499999999638,
          "velocity": 0.6771653543307087,
          "duration": 0.5799999999999557
        },
        {
          "name": "F3",
          "midi": 53,
          "time": 174.01499999999638,
          "velocity": 0.6771653543307087,
          "duration": 0.27499999999997726
        },
        {
          "name": "A3",
          "midi": 57,
          "time": 174.01499999999638,
          "velocity": 0.6771653543307087,
          "duration": 0.27499999999997726
        },
        {
          "name": "F4",
          "midi": 65,
          "time": 174.01999999999637,
          "velocity": 0.6771653543307087,
          "duration": 0.5799999999999557
        },
        {
          "name": "F3",
          "midi": 53,
          "time": 174.30499999999634,
          "velocity": 0.5196850393700787,
          "duration": 0.2750000000000057
        },
        {
          "name": "A3",
          "midi": 57,
          "time": 174.30499999999634,
          "velocity": 0.5196850393700787,
          "duration": 0.2750000000000057
        },
        {
          "name": "C3",
          "midi": 48,
          "time": 174.58999999999634,
          "velocity": 0.5984251968503937,
          "duration": 0.5799999999999557
        },
        {
          "name": "A4",
          "midi": 69,
          "time": 174.59999999999633,
          "velocity": 0.6771653543307087,
          "duration": 0.5799999999999557
        },
        {
          "name": "F2",
          "midi": 41,
          "time": 174.59999999999633,
          "velocity": 0.5196850393700787,
          "duration": 0.2799999999999727
        },
        {
          "name": "C4",
          "midi": 60,
          "time": 174.59999999999633,
          "velocity": 0.6771653543307087,
          "duration": 0.2799999999999727
        },
        {
          "name": "A3",
          "midi": 57,
          "time": 174.61499999999631,
          "velocity": 0.5984251968503937,
          "duration": 0.27499999999997726
        },
        {
          "name": "F3",
          "midi": 53,
          "time": 174.61499999999631,
          "velocity": 0.5984251968503937,
          "duration": 0.27499999999997726
        },
        {
          "name": "F4",
          "midi": 65,
          "time": 174.6199999999963,
          "velocity": 0.5984251968503937,
          "duration": 0.5799999999999557
        },
        {
          "name": "F3",
          "midi": 53,
          "time": 174.9149999999963,
          "velocity": 0.5984251968503937,
          "duration": 0.27499999999997726
        },
        {
          "name": "F2",
          "midi": 41,
          "time": 175.19999999999627,
          "velocity": 0.5196850393700787,
          "duration": 0.2799999999999727
        },
        {
          "name": "C3",
          "midi": 48,
          "time": 175.19999999999627,
          "velocity": 0.6771653543307087,
          "duration": 0.29999999999998295
        },
        {
          "name": "F4",
          "midi": 65,
          "time": 175.19999999999627,
          "velocity": 0.6771653543307087,
          "duration": 0.5799999999999841
        },
        {
          "name": "A3",
          "midi": 57,
          "time": 175.19999999999627,
          "velocity": 0.6771653543307087,
          "duration": 0.2799999999999727
        },
        {
          "name": "F3",
          "midi": 53,
          "time": 175.19999999999627,
          "velocity": 0.6771653543307087,
          "duration": 0.2799999999999727
        },
        {
          "name": "A4",
          "midi": 69,
          "time": 175.21499999999625,
          "velocity": 0.6771653543307087,
          "duration": 0.5799999999999841
        },
        {
          "name": "C4",
          "midi": 60,
          "time": 175.21999999999625,
          "velocity": 0.6771653543307087,
          "duration": 0.28000000000000114
        },
        {
          "name": "C3",
          "midi": 48,
          "time": 175.49999999999625,
          "velocity": 0.4881889763779528,
          "duration": 0.29999999999998295
        },
        {
          "name": "F3",
          "midi": 53,
          "time": 175.50499999999624,
          "velocity": 0.4881889763779528,
          "duration": 0.28000000000000114
        },
        {
          "name": "A3",
          "midi": 57,
          "time": 175.50499999999624,
          "velocity": 0.4881889763779528,
          "duration": 0.28000000000000114
        },
        {
          "name": "C3",
          "midi": 48,
          "time": 175.78999999999624,
          "velocity": 0.5984251968503937,
          "duration": 0.5799999999999557
        },
        {
          "name": "C4",
          "midi": 60,
          "time": 175.79499999999624,
          "velocity": 0.6771653543307087,
          "duration": 0.2799999999999727
        },
        {
          "name": "F2",
          "midi": 41,
          "time": 175.79999999999623,
          "velocity": 0.5196850393700787,
          "duration": 0.2799999999999727
        },
        {
          "name": "A3",
          "midi": 57,
          "time": 175.80499999999623,
          "velocity": 0.5984251968503937,
          "duration": 0.29999999999998295
        },
        {
          "name": "F3",
          "midi": 53,
          "time": 175.80499999999623,
          "velocity": 0.5984251968503937,
          "duration": 0.29999999999998295
        },
        {
          "name": "A4",
          "midi": 69,
          "time": 175.81499999999622,
          "velocity": 0.6771653543307087,
          "duration": 0.5799999999999841
        },
        {
          "name": "F4",
          "midi": 65,
          "time": 175.81499999999622,
          "velocity": 0.5984251968503937,
          "duration": 0.5799999999999841
        },
        {
          "name": "F3",
          "midi": 53,
          "time": 176.1049999999962,
          "velocity": 0.5984251968503937,
          "duration": 0.29999999999998295
        },
        {
          "name": "A3",
          "midi": 57,
          "time": 176.1049999999962,
          "velocity": 0.5984251968503937,
          "duration": 0.29999999999998295
        },
        {
          "name": "C4",
          "midi": 60,
          "time": 176.3949999999962,
          "velocity": 0.6771653543307087,
          "duration": 0.2799999999999727
        },
        {
          "name": "F2",
          "midi": 41,
          "time": 176.3999999999962,
          "velocity": 0.5196850393700787,
          "duration": 0.2799999999999727
        },
        {
          "name": "C3",
          "midi": 48,
          "time": 176.4049999999962,
          "velocity": 0.6771653543307087,
          "duration": 0.5799999999999557
        },
        {
          "name": "A4",
          "midi": 69,
          "time": 176.41499999999618,
          "velocity": 0.6771653543307087,
          "duration": 0.5799999999999557
        },
        {
          "name": "F3",
          "midi": 53,
          "time": 176.41499999999618,
          "velocity": 0.6771653543307087,
          "duration": 0.27499999999997726
        },
        {
          "name": "A3",
          "midi": 57,
          "time": 176.41499999999618,
          "velocity": 0.6771653543307087,
          "duration": 0.27499999999997726
        },
        {
          "name": "F4",
          "midi": 65,
          "time": 176.41999999999618,
          "velocity": 0.6771653543307087,
          "duration": 0.5799999999999557
        },
        {
          "name": "F3",
          "midi": 53,
          "time": 176.70499999999615,
          "velocity": 0.5196850393700787,
          "duration": 0.2750000000000057
        },
        {
          "name": "A3",
          "midi": 57,
          "time": 176.70499999999615,
          "velocity": 0.5196850393700787,
          "duration": 0.2750000000000057
        },
        {
          "name": "C3",
          "midi": 48,
          "time": 176.98999999999614,
          "velocity": 0.5984251968503937,
          "duration": 0.5799999999999557
        },
        {
          "name": "A4",
          "midi": 69,
          "time": 176.99999999999613,
          "velocity": 0.6771653543307087,
          "duration": 0.5799999999999557
        },
        {
          "name": "F2",
          "midi": 41,
          "time": 176.99999999999613,
          "velocity": 0.5196850393700787,
          "duration": 0.2799999999999727
        },
        {
          "name": "C4",
          "midi": 60,
          "time": 176.99999999999613,
          "velocity": 0.6771653543307087,
          "duration": 0.2799999999999727
        },
        {
          "name": "A3",
          "midi": 57,
          "time": 177.01499999999612,
          "velocity": 0.5984251968503937,
          "duration": 0.27499999999997726
        },
        {
          "name": "F3",
          "midi": 53,
          "time": 177.01499999999612,
          "velocity": 0.5984251968503937,
          "duration": 0.27499999999997726
        },
        {
          "name": "F4",
          "midi": 65,
          "time": 177.01999999999612,
          "velocity": 0.5984251968503937,
          "duration": 0.5799999999999557
        },
        {
          "name": "F3",
          "midi": 53,
          "time": 177.3149999999961,
          "velocity": 0.5984251968503937,
          "duration": 0.27499999999997726
        },
        {
          "name": "F4",
          "midi": 65,
          "time": 177.59999999999607,
          "velocity": 0.6771653543307087,
          "duration": 0.5799999999999557
        },
        {
          "name": "C4",
          "midi": 60,
          "time": 177.59999999999607,
          "velocity": 0.6771653543307087,
          "duration": 0.2799999999999727
        },
        {
          "name": "A3",
          "midi": 57,
          "time": 177.59999999999607,
          "velocity": 0.6771653543307087,
          "duration": 0.2799999999999727
        },
        {
          "name": "D3",
          "midi": 50,
          "time": 177.59999999999607,
          "velocity": 0.6771653543307087,
          "duration": 0.2999999999999545
        },
        {
          "name": "F2",
          "midi": 41,
          "time": 177.59999999999607,
          "velocity": 0.5196850393700787,
          "duration": 0.2799999999999727
        },
        {
          "name": "D4",
          "midi": 62,
          "time": 177.60999999999606,
          "velocity": 0.6771653543307087,
          "duration": 0.2799999999999727
        },
        {
          "name": "A4",
          "midi": 69,
          "time": 177.61499999999606,
          "velocity": 0.6771653543307087,
          "duration": 0.5799999999999557
        },
        {
          "name": "D3",
          "midi": 50,
          "time": 177.89999999999603,
          "velocity": 0.4881889763779528,
          "duration": 0.29999999999998295
        },
        {
          "name": "D4",
          "midi": 62,
          "time": 177.90499999999602,
          "velocity": 0.4881889763779528,
          "duration": 0.28000000000000114
        },
        {
          "name": "A3",
          "midi": 57,
          "time": 177.90499999999602,
          "velocity": 0.4881889763779528,
          "duration": 0.28000000000000114
        },
        {
          "name": "D4",
          "midi": 62,
          "time": 178.18499999999602,
          "velocity": 0.6771653543307087,
          "duration": 0.2799999999999727
        },
        {
          "name": "D3",
          "midi": 50,
          "time": 178.18999999999602,
          "velocity": 0.5984251968503937,
          "duration": 0.5799999999999557
        },
        {
          "name": "F2",
          "midi": 41,
          "time": 178.199999999996,
          "velocity": 0.5196850393700787,
          "duration": 0.2799999999999727
        },
        {
          "name": "C4",
          "midi": 60,
          "time": 178.204999999996,
          "velocity": 0.5984251968503937,
          "duration": 0.29999999999998295
        },
        {
          "name": "A3",
          "midi": 57,
          "time": 178.204999999996,
          "velocity": 0.5984251968503937,
          "duration": 0.29999999999998295
        },
        {
          "name": "A4",
          "midi": 69,
          "time": 178.214999999996,
          "velocity": 0.6771653543307087,
          "duration": 0.5799999999999557
        },
        {
          "name": "F4",
          "midi": 65,
          "time": 178.214999999996,
          "velocity": 0.5984251968503937,
          "duration": 0.5799999999999557
        },
        {
          "name": "A3",
          "midi": 57,
          "time": 178.504999999996,
          "velocity": 0.4409448818897638,
          "duration": 0.2999999999999545
        },
        {
          "name": "D4",
          "midi": 62,
          "time": 178.504999999996,
          "velocity": 0.4409448818897638,
          "duration": 0.2999999999999545
        },
        {
          "name": "D4",
          "midi": 62,
          "time": 178.78499999999596,
          "velocity": 0.6771653543307087,
          "duration": 0.2799999999999727
        },
        {
          "name": "F2",
          "midi": 41,
          "time": 178.79999999999595,
          "velocity": 0.5196850393700787,
          "duration": 0.2799999999999727
        },
        {
          "name": "D3",
          "midi": 50,
          "time": 178.80499999999594,
          "velocity": 0.6771653543307087,
          "duration": 0.5799999999999557
        },
        {
          "name": "A3",
          "midi": 57,
          "time": 178.81499999999593,
          "velocity": 0.6771653543307087,
          "duration": 0.27499999999997726
        },
        {
          "name": "C4",
          "midi": 60,
          "time": 178.81499999999593,
          "velocity": 0.6771653543307087,
          "duration": 0.27499999999997726
        },
        {
          "name": "A4",
          "midi": 69,
          "time": 178.81499999999593,
          "velocity": 0.6771653543307087,
          "duration": 0.5799999999999557
        },
        {
          "name": "F4",
          "midi": 65,
          "time": 178.81999999999593,
          "velocity": 0.6771653543307087,
          "duration": 0.5799999999999557
        },
        {
          "name": "A3",
          "midi": 57,
          "time": 179.1049999999959,
          "velocity": 0.3937007874015748,
          "duration": 0.2750000000000057
        },
        {
          "name": "D4",
          "midi": 62,
          "time": 179.1049999999959,
          "velocity": 0.3937007874015748,
          "duration": 0.2750000000000057
        },
        {
          "name": "D3",
          "midi": 50,
          "time": 179.3899999999959,
          "velocity": 0.5984251968503937,
          "duration": 0.5799999999999557
        },
        {
          "name": "D4",
          "midi": 62,
          "time": 179.3899999999959,
          "velocity": 0.6771653543307087,
          "duration": 0.2799999999999727
        },
        {
          "name": "F2",
          "midi": 41,
          "time": 179.39999999999588,
          "velocity": 0.5196850393700787,
          "duration": 0.2799999999999727
        },
        {
          "name": "A4",
          "midi": 69,
          "time": 179.39999999999588,
          "velocity": 0.6771653543307087,
          "duration": 0.5799999999999557
        },
        {
          "name": "C4",
          "midi": 60,
          "time": 179.41499999999587,
          "velocity": 0.5984251968503937,
          "duration": 0.27499999999997726
        },
        {
          "name": "A3",
          "midi": 57,
          "time": 179.41499999999587,
          "velocity": 0.5984251968503937,
          "duration": 0.27499999999997726
        },
        {
          "name": "F4",
          "midi": 65,
          "time": 179.41999999999587,
          "velocity": 0.5984251968503937,
          "duration": 0.5799999999999557
        },
        {
          "name": "A3",
          "midi": 57,
          "time": 179.71499999999585,
          "velocity": 0.5984251968503937,
          "duration": 0.27499999999997726
        },
        {
          "name": "F4",
          "midi": 65,
          "time": 179.99999999999582,
          "velocity": 0.6771653543307087,
          "duration": 0.5800000000000125
        },
        {
          "name": "F3",
          "midi": 53,
          "time": 179.99999999999582,
          "velocity": 0.6771653543307087,
          "duration": 0.30000000000001137
        },
        {
          "name": "A#2",
          "midi": 46,
          "time": 179.99999999999582,
          "velocity": 0.5196850393700787,
          "duration": 0.28000000000000114
        },
        {
          "name": "D4",
          "midi": 62,
          "time": 179.99999999999582,
          "velocity": 0.6771653543307087,
          "duration": 0.28000000000000114
        },
        {
          "name": "A#3",
          "midi": 58,
          "time": 179.99999999999582,
          "velocity": 0.6771653543307087,
          "duration": 0.28000000000000114
        },
        {
          "name": "A#4",
          "midi": 70,
          "time": 180.00499999999582,
          "velocity": 0.6771653543307087,
          "duration": 0.5800000000000125
        },
        {
          "name": "F3",
          "midi": 53,
          "time": 180.29999999999583,
          "velocity": 0.4881889763779528,
          "duration": 0.29999999999998295
        },
        {
          "name": "A#3",
          "midi": 58,
          "time": 180.30499999999583,
          "velocity": 0.4881889763779528,
          "duration": 0.28000000000000114
        },
        {
          "name": "D4",
          "midi": 62,
          "time": 180.58499999999583,
          "velocity": 0.6771653543307087,
          "duration": 0.2799999999999727
        },
        {
          "name": "F3",
          "midi": 53,
          "time": 180.58999999999583,
          "velocity": 0.5984251968503937,
          "duration": 0.5799999999999557
        },
        {
          "name": "A#2",
          "midi": 46,
          "time": 180.59999999999582,
          "velocity": 0.5196850393700787,
          "duration": 0.2799999999999727
        },
        {
          "name": "A#4",
          "midi": 70,
          "time": 180.6049999999958,
          "velocity": 0.6771653543307087,
          "duration": 0.5799999999999557
        },
        {
          "name": "A#3",
          "midi": 58,
          "time": 180.6049999999958,
          "velocity": 0.5984251968503937,
          "duration": 0.29999999999998295
        },
        {
          "name": "F4",
          "midi": 65,
          "time": 180.6149999999958,
          "velocity": 0.5984251968503937,
          "duration": 0.5799999999999557
        },
        {
          "name": "A#3",
          "midi": 58,
          "time": 180.9049999999958,
          "velocity": 0.5984251968503937,
          "duration": 0.2999999999999545
        },
        {
          "name": "D4",
          "midi": 62,
          "time": 181.18499999999577,
          "velocity": 0.6771653543307087,
          "duration": 0.2799999999999727
        },
        {
          "name": "A#2",
          "midi": 46,
          "time": 181.19999999999575,
          "velocity": 0.5196850393700787,
          "duration": 0.2799999999999727
        },
        {
          "name": "F3",
          "midi": 53,
          "time": 181.20499999999575,
          "velocity": 0.6771653543307087,
          "duration": 0.5799999999999557
        },
        {
          "name": "A#4",
          "midi": 70,
          "time": 181.20499999999575,
          "velocity": 0.6771653543307087,
          "duration": 0.5799999999999557
        },
        {
          "name": "A#3",
          "midi": 58,
          "time": 181.21499999999574,
          "velocity": 0.6771653543307087,
          "duration": 0.27499999999997726
        },
        {
          "name": "F4",
          "midi": 65,
          "time": 181.21999999999574,
          "velocity": 0.6771653543307087,
          "duration": 0.5799999999999557
        },
        {
          "name": "A#3",
          "midi": 58,
          "time": 181.5049999999957,
          "velocity": 0.5196850393700787,
          "duration": 0.2750000000000057
        },
        {
          "name": "D4",
          "midi": 62,
          "time": 181.7899999999957,
          "velocity": 0.6771653543307087,
          "duration": 0.2799999999999727
        },
        {
          "name": "A#4",
          "midi": 70,
          "time": 181.7899999999957,
          "velocity": 0.6771653543307087,
          "duration": 0.5799999999999557
        },
        {
          "name": "F3",
          "midi": 53,
          "time": 181.7899999999957,
          "velocity": 0.5984251968503937,
          "duration": 0.5799999999999557
        },
        {
          "name": "A#2",
          "midi": 46,
          "time": 181.7999999999957,
          "velocity": 0.5196850393700787,
          "duration": 0.2799999999999727
        },
        {
          "name": "A#3",
          "midi": 58,
          "time": 181.81499999999568,
          "velocity": 0.5984251968503937,
          "duration": 0.27499999999997726
        },
        {
          "name": "F4",
          "midi": 65,
          "time": 181.81999999999567,
          "velocity": 0.5984251968503937,
          "duration": 0.5799999999999841
        },
        {
          "name": "C4",
          "midi": 60,
          "time": 182.11499999999566,
          "velocity": 0.5984251968503937,
          "duration": 0.2750000000000057
        },
        {
          "name": "F2",
          "midi": 41,
          "time": 182.39999999999566,
          "velocity": 0.5196850393700787,
          "duration": 0.2799999999999727
        },
        {
          "name": "C3",
          "midi": 48,
          "time": 182.39999999999566,
          "velocity": 0.6771653543307087,
          "duration": 0.29999999999998295
        },
        {
          "name": "F4",
          "midi": 65,
          "time": 182.39999999999566,
          "velocity": 0.6771653543307087,
          "duration": 0.5799999999999841
        },
        {
          "name": "A3",
          "midi": 57,
          "time": 182.39999999999566,
          "velocity": 0.6771653543307087,
          "duration": 0.2799999999999727
        },
        {
          "name": "F3",
          "midi": 53,
          "time": 182.39999999999566,
          "velocity": 0.6771653543307087,
          "duration": 0.2799999999999727
        },
        {
          "name": "A4",
          "midi": 69,
          "time": 182.41499999999564,
          "velocity": 0.6771653543307087,
          "duration": 0.5799999999999841
        },
        {
          "name": "C4",
          "midi": 60,
          "time": 182.41999999999564,
          "velocity": 0.6771653543307087,
          "duration": 0.28000000000000114
        },
        {
          "name": "C3",
          "midi": 48,
          "time": 182.69999999999564,
          "velocity": 0.4881889763779528,
          "duration": 0.29999999999998295
        },
        {
          "name": "F3",
          "midi": 53,
          "time": 182.70499999999564,
          "velocity": 0.4881889763779528,
          "duration": 0.28000000000000114
        },
        {
          "name": "A3",
          "midi": 57,
          "time": 182.70499999999564,
          "velocity": 0.4881889763779528,
          "duration": 0.28000000000000114
        },
        {
          "name": "C3",
          "midi": 48,
          "time": 182.98999999999563,
          "velocity": 0.5984251968503937,
          "duration": 0.5799999999999557
        },
        {
          "name": "C4",
          "midi": 60,
          "time": 182.99499999999563,
          "velocity": 0.6771653543307087,
          "duration": 0.2799999999999727
        },
        {
          "name": "F2",
          "midi": 41,
          "time": 182.99999999999562,
          "velocity": 0.5196850393700787,
          "duration": 0.2799999999999727
        },
        {
          "name": "A3",
          "midi": 57,
          "time": 183.00499999999562,
          "velocity": 0.5984251968503937,
          "duration": 0.29999999999998295
        },
        {
          "name": "F3",
          "midi": 53,
          "time": 183.00499999999562,
          "velocity": 0.5984251968503937,
          "duration": 0.29999999999998295
        },
        {
          "name": "A4",
          "midi": 69,
          "time": 183.0149999999956,
          "velocity": 0.6771653543307087,
          "duration": 0.5799999999999841
        },
        {
          "name": "F4",
          "midi": 65,
          "time": 183.0149999999956,
          "velocity": 0.5984251968503937,
          "duration": 0.5799999999999841
        },
        {
          "name": "F3",
          "midi": 53,
          "time": 183.3049999999956,
          "velocity": 0.5984251968503937,
          "duration": 0.29999999999998295
        },
        {
          "name": "A3",
          "midi": 57,
          "time": 183.3049999999956,
          "velocity": 0.5984251968503937,
          "duration": 0.29999999999998295
        },
        {
          "name": "C4",
          "midi": 60,
          "time": 183.5949999999956,
          "velocity": 0.6771653543307087,
          "duration": 0.2799999999999727
        },
        {
          "name": "F2",
          "midi": 41,
          "time": 183.5999999999956,
          "velocity": 0.5196850393700787,
          "duration": 0.2799999999999727
        },
        {
          "name": "C3",
          "midi": 48,
          "time": 183.60499999999558,
          "velocity": 0.6771653543307087,
          "duration": 0.5799999999999557
        },
        {
          "name": "A4",
          "midi": 69,
          "time": 183.61499999999558,
          "velocity": 0.6771653543307087,
          "duration": 0.5799999999999557
        },
        {
          "name": "F3",
          "midi": 53,
          "time": 183.61499999999558,
          "velocity": 0.6771653543307087,
          "duration": 0.27499999999997726
        },
        {
          "name": "A3",
          "midi": 57,
          "time": 183.61499999999558,
          "velocity": 0.6771653543307087,
          "duration": 0.27499999999997726
        },
        {
          "name": "F4",
          "midi": 65,
          "time": 183.61999999999557,
          "velocity": 0.6771653543307087,
          "duration": 0.5799999999999557
        },
        {
          "name": "F3",
          "midi": 53,
          "time": 183.90499999999554,
          "velocity": 0.5196850393700787,
          "duration": 0.2750000000000057
        },
        {
          "name": "A3",
          "midi": 57,
          "time": 183.90499999999554,
          "velocity": 0.5196850393700787,
          "duration": 0.2750000000000057
        },
        {
          "name": "C3",
          "midi": 48,
          "time": 184.18999999999554,
          "velocity": 0.5984251968503937,
          "duration": 0.5799999999999557
        },
        {
          "name": "A4",
          "midi": 69,
          "time": 184.19999999999553,
          "velocity": 0.6771653543307087,
          "duration": 0.5799999999999557
        },
        {
          "name": "F2",
          "midi": 41,
          "time": 184.19999999999553,
          "velocity": 0.5196850393700787,
          "duration": 0.2799999999999727
        },
        {
          "name": "C4",
          "midi": 60,
          "time": 184.19999999999553,
          "velocity": 0.6771653543307087,
          "duration": 0.2799999999999727
        },
        {
          "name": "A3",
          "midi": 57,
          "time": 184.2149999999955,
          "velocity": 0.5984251968503937,
          "duration": 0.27499999999997726
        },
        {
          "name": "F3",
          "midi": 53,
          "time": 184.2149999999955,
          "velocity": 0.5984251968503937,
          "duration": 0.27499999999997726
        },
        {
          "name": "F4",
          "midi": 65,
          "time": 184.2199999999955,
          "velocity": 0.5984251968503937,
          "duration": 0.5799999999999557
        },
        {
          "name": "F3",
          "midi": 53,
          "time": 184.5149999999955,
          "velocity": 0.5984251968503937,
          "duration": 0.27499999999997726
        },
        {
          "name": "F2",
          "midi": 41,
          "time": 184.79999999999546,
          "velocity": 0.5196850393700787,
          "duration": 0.2799999999999727
        },
        {
          "name": "C3",
          "midi": 48,
          "time": 184.79999999999546,
          "velocity": 0.6771653543307087,
          "duration": 0.29999999999998295
        },
        {
          "name": "F4",
          "midi": 65,
          "time": 184.79999999999546,
          "velocity": 0.6771653543307087,
          "duration": 0.5799999999999841
        },
        {
          "name": "A3",
          "midi": 57,
          "time": 184.79999999999546,
          "velocity": 0.6771653543307087,
          "duration": 0.2799999999999727
        },
        {
          "name": "F3",
          "midi": 53,
          "time": 184.79999999999546,
          "velocity": 0.6771653543307087,
          "duration": 0.2799999999999727
        },
        {
          "name": "A4",
          "midi": 69,
          "time": 184.81499999999545,
          "velocity": 0.6771653543307087,
          "duration": 0.5799999999999841
        },
        {
          "name": "C4",
          "midi": 60,
          "time": 184.81999999999545,
          "velocity": 0.6771653543307087,
          "duration": 0.28000000000000114
        },
        {
          "name": "C3",
          "midi": 48,
          "time": 185.09999999999545,
          "velocity": 0.4881889763779528,
          "duration": 0.29999999999998295
        },
        {
          "name": "F3",
          "midi": 53,
          "time": 185.10499999999544,
          "velocity": 0.4881889763779528,
          "duration": 0.28000000000000114
        },
        {
          "name": "A3",
          "midi": 57,
          "time": 185.10499999999544,
          "velocity": 0.4881889763779528,
          "duration": 0.28000000000000114
        },
        {
          "name": "C3",
          "midi": 48,
          "time": 185.38999999999544,
          "velocity": 0.5984251968503937,
          "duration": 0.5799999999999557
        },
        {
          "name": "C4",
          "midi": 60,
          "time": 185.39499999999543,
          "velocity": 0.6771653543307087,
          "duration": 0.2799999999999727
        },
        {
          "name": "F2",
          "midi": 41,
          "time": 185.39999999999543,
          "velocity": 0.5196850393700787,
          "duration": 0.2799999999999727
        },
        {
          "name": "A3",
          "midi": 57,
          "time": 185.40499999999543,
          "velocity": 0.5984251968503937,
          "duration": 0.29999999999998295
        },
        {
          "name": "F3",
          "midi": 53,
          "time": 185.40499999999543,
          "velocity": 0.5984251968503937,
          "duration": 0.29999999999998295
        },
        {
          "name": "A4",
          "midi": 69,
          "time": 185.41499999999542,
          "velocity": 0.6771653543307087,
          "duration": 0.5799999999999841
        },
        {
          "name": "F4",
          "midi": 65,
          "time": 185.41499999999542,
          "velocity": 0.5984251968503937,
          "duration": 0.5799999999999841
        },
        {
          "name": "F3",
          "midi": 53,
          "time": 185.7049999999954,
          "velocity": 0.5984251968503937,
          "duration": 0.29999999999998295
        },
        {
          "name": "A3",
          "midi": 57,
          "time": 185.7049999999954,
          "velocity": 0.5984251968503937,
          "duration": 0.29999999999998295
        },
        {
          "name": "C4",
          "midi": 60,
          "time": 185.9949999999954,
          "velocity": 0.6771653543307087,
          "duration": 0.2799999999999727
        },
        {
          "name": "F2",
          "midi": 41,
          "time": 185.9999999999954,
          "velocity": 0.5196850393700787,
          "duration": 0.2799999999999727
        },
        {
          "name": "C3",
          "midi": 48,
          "time": 186.0049999999954,
          "velocity": 0.6771653543307087,
          "duration": 0.5799999999999557
        },
        {
          "name": "A4",
          "midi": 69,
          "time": 186.01499999999538,
          "velocity": 0.6771653543307087,
          "duration": 0.5799999999999557
        },
        {
          "name": "F3",
          "midi": 53,
          "time": 186.01499999999538,
          "velocity": 0.6771653543307087,
          "duration": 0.27499999999997726
        },
        {
          "name": "A3",
          "midi": 57,
          "time": 186.01499999999538,
          "velocity": 0.6771653543307087,
          "duration": 0.27499999999997726
        },
        {
          "name": "F4",
          "midi": 65,
          "time": 186.01999999999538,
          "velocity": 0.6771653543307087,
          "duration": 0.5799999999999557
        },
        {
          "name": "F3",
          "midi": 53,
          "time": 186.30499999999535,
          "velocity": 0.5196850393700787,
          "duration": 0.2750000000000057
        },
        {
          "name": "A3",
          "midi": 57,
          "time": 186.30499999999535,
          "velocity": 0.5196850393700787,
          "duration": 0.2750000000000057
        },
        {
          "name": "C3",
          "midi": 48,
          "time": 186.58999999999534,
          "velocity": 0.5984251968503937,
          "duration": 0.5799999999999557
        },
        {
          "name": "A4",
          "midi": 69,
          "time": 186.59999999999533,
          "velocity": 0.6771653543307087,
          "duration": 0.5799999999999557
        },
        {
          "name": "F2",
          "midi": 41,
          "time": 186.59999999999533,
          "velocity": 0.5196850393700787,
          "duration": 0.2799999999999727
        },
        {
          "name": "C4",
          "midi": 60,
          "time": 186.59999999999533,
          "velocity": 0.6771653543307087,
          "duration": 0.2799999999999727
        },
        {
          "name": "A3",
          "midi": 57,
          "time": 186.61499999999532,
          "velocity": 0.5984251968503937,
          "duration": 0.27499999999997726
        },
        {
          "name": "F3",
          "midi": 53,
          "time": 186.61499999999532,
          "velocity": 0.5984251968503937,
          "duration": 0.27499999999997726
        },
        {
          "name": "F4",
          "midi": 65,
          "time": 186.61999999999531,
          "velocity": 0.5984251968503937,
          "duration": 0.5799999999999557
        },
        {
          "name": "F3",
          "midi": 53,
          "time": 186.9149999999953,
          "velocity": 0.5984251968503937,
          "duration": 0.27499999999997726
        },
        {
          "name": "F4",
          "midi": 65,
          "time": 187.19999999999527,
          "velocity": 0.6771653543307087,
          "duration": 0.5799999999999557
        },
        {
          "name": "C4",
          "midi": 60,
          "time": 187.19999999999527,
          "velocity": 0.6771653543307087,
          "duration": 0.2799999999999727
        },
        {
          "name": "A3",
          "midi": 57,
          "time": 187.19999999999527,
          "velocity": 0.6771653543307087,
          "duration": 0.2799999999999727
        },
        {
          "name": "D3",
          "midi": 50,
          "time": 187.19999999999527,
          "velocity": 0.6771653543307087,
          "duration": 0.2999999999999545
        },
        {
          "name": "F2",
          "midi": 41,
          "time": 187.19999999999527,
          "velocity": 0.5196850393700787,
          "duration": 0.2799999999999727
        },
        {
          "name": "D4",
          "midi": 62,
          "time": 187.20999999999526,
          "velocity": 0.6771653543307087,
          "duration": 0.2799999999999727
        },
        {
          "name": "A4",
          "midi": 69,
          "time": 187.21499999999526,
          "velocity": 0.6771653543307087,
          "duration": 0.5799999999999557
        },
        {
          "name": "D3",
          "midi": 50,
          "time": 187.49999999999523,
          "velocity": 0.4881889763779528,
          "duration": 0.29999999999998295
        },
        {
          "name": "D4",
          "midi": 62,
          "time": 187.50499999999522,
          "velocity": 0.4881889763779528,
          "duration": 0.28000000000000114
        },
        {
          "name": "A3",
          "midi": 57,
          "time": 187.50499999999522,
          "velocity": 0.4881889763779528,
          "duration": 0.28000000000000114
        },
        {
          "name": "D4",
          "midi": 62,
          "time": 187.78499999999522,
          "velocity": 0.6771653543307087,
          "duration": 0.2799999999999727
        },
        {
          "name": "D3",
          "midi": 50,
          "time": 187.78999999999522,
          "velocity": 0.5984251968503937,
          "duration": 0.5799999999999557
        },
        {
          "name": "F2",
          "midi": 41,
          "time": 187.7999999999952,
          "velocity": 0.5196850393700787,
          "duration": 0.2799999999999727
        },
        {
          "name": "C4",
          "midi": 60,
          "time": 187.8049999999952,
          "velocity": 0.5984251968503937,
          "duration": 0.29999999999998295
        },
        {
          "name": "A3",
          "midi": 57,
          "time": 187.8049999999952,
          "velocity": 0.5984251968503937,
          "duration": 0.29999999999998295
        },
        {
          "name": "A4",
          "midi": 69,
          "time": 187.8149999999952,
          "velocity": 0.6771653543307087,
          "duration": 0.5799999999999557
        },
        {
          "name": "F4",
          "midi": 65,
          "time": 187.8149999999952,
          "velocity": 0.5984251968503937,
          "duration": 0.5799999999999557
        },
        {
          "name": "A3",
          "midi": 57,
          "time": 188.1049999999952,
          "velocity": 0.4409448818897638,
          "duration": 0.2999999999999545
        },
        {
          "name": "D4",
          "midi": 62,
          "time": 188.1049999999952,
          "velocity": 0.4409448818897638,
          "duration": 0.2999999999999545
        },
        {
          "name": "D4",
          "midi": 62,
          "time": 188.38499999999516,
          "velocity": 0.6771653543307087,
          "duration": 0.2799999999999727
        },
        {
          "name": "F2",
          "midi": 41,
          "time": 188.39999999999515,
          "velocity": 0.5196850393700787,
          "duration": 0.2799999999999727
        },
        {
          "name": "D3",
          "midi": 50,
          "time": 188.40499999999514,
          "velocity": 0.6771653543307087,
          "duration": 0.5799999999999557
        },
        {
          "name": "A3",
          "midi": 57,
          "time": 188.41499999999513,
          "velocity": 0.6771653543307087,
          "duration": 0.27499999999997726
        },
        {
          "name": "C4",
          "midi": 60,
          "time": 188.41499999999513,
          "velocity": 0.6771653543307087,
          "duration": 0.27499999999997726
        },
        {
          "name": "A4",
          "midi": 69,
          "time": 188.41499999999513,
          "velocity": 0.6771653543307087,
          "duration": 0.5799999999999557
        },
        {
          "name": "F4",
          "midi": 65,
          "time": 188.41999999999513,
          "velocity": 0.6771653543307087,
          "duration": 0.5799999999999557
        },
        {
          "name": "A3",
          "midi": 57,
          "time": 188.7049999999951,
          "velocity": 0.3937007874015748,
          "duration": 0.2750000000000057
        },
        {
          "name": "D4",
          "midi": 62,
          "time": 188.7049999999951,
          "velocity": 0.3937007874015748,
          "duration": 0.2750000000000057
        },
        {
          "name": "D3",
          "midi": 50,
          "time": 188.9899999999951,
          "velocity": 0.5984251968503937,
          "duration": 0.5799999999999557
        },
        {
          "name": "D4",
          "midi": 62,
          "time": 188.9899999999951,
          "velocity": 0.6771653543307087,
          "duration": 0.2799999999999727
        },
        {
          "name": "F2",
          "midi": 41,
          "time": 188.99999999999508,
          "velocity": 0.5196850393700787,
          "duration": 0.2799999999999727
        },
        {
          "name": "A4",
          "midi": 69,
          "time": 188.99999999999508,
          "velocity": 0.6771653543307087,
          "duration": 0.5799999999999557
        },
        {
          "name": "C4",
          "midi": 60,
          "time": 189.01499999999507,
          "velocity": 0.5984251968503937,
          "duration": 0.27499999999997726
        },
        {
          "name": "A3",
          "midi": 57,
          "time": 189.01499999999507,
          "velocity": 0.5984251968503937,
          "duration": 0.27499999999997726
        },
        {
          "name": "F4",
          "midi": 65,
          "time": 189.01999999999506,
          "velocity": 0.5984251968503937,
          "duration": 0.5799999999999557
        },
        {
          "name": "A3",
          "midi": 57,
          "time": 189.31499999999505,
          "velocity": 0.5984251968503937,
          "duration": 0.27499999999997726
        },
        {
          "name": "F4",
          "midi": 65,
          "time": 189.59999999999502,
          "velocity": 0.6771653543307087,
          "duration": 0.5800000000000125
        },
        {
          "name": "F3",
          "midi": 53,
          "time": 189.59999999999502,
          "velocity": 0.6771653543307087,
          "duration": 0.30000000000001137
        },
        {
          "name": "A#2",
          "midi": 46,
          "time": 189.59999999999502,
          "velocity": 0.5196850393700787,
          "duration": 0.28000000000000114
        },
        {
          "name": "D4",
          "midi": 62,
          "time": 189.59999999999502,
          "velocity": 0.6771653543307087,
          "duration": 0.28000000000000114
        },
        {
          "name": "A#3",
          "midi": 58,
          "time": 189.59999999999502,
          "velocity": 0.6771653543307087,
          "duration": 0.28000000000000114
        },
        {
          "name": "A#4",
          "midi": 70,
          "time": 189.60499999999502,
          "velocity": 0.6771653543307087,
          "duration": 0.5800000000000125
        },
        {
          "name": "F3",
          "midi": 53,
          "time": 189.89999999999503,
          "velocity": 0.4881889763779528,
          "duration": 0.29999999999998295
        },
        {
          "name": "A#3",
          "midi": 58,
          "time": 189.90499999999503,
          "velocity": 0.4881889763779528,
          "duration": 0.28000000000000114
        },
        {
          "name": "D4",
          "midi": 62,
          "time": 190.18499999999503,
          "velocity": 0.6771653543307087,
          "duration": 0.2799999999999727
        },
        {
          "name": "F3",
          "midi": 53,
          "time": 190.18999999999502,
          "velocity": 0.5984251968503937,
          "duration": 0.5799999999999557
        },
        {
          "name": "A#2",
          "midi": 46,
          "time": 190.19999999999501,
          "velocity": 0.5196850393700787,
          "duration": 0.2799999999999727
        },
        {
          "name": "A#4",
          "midi": 70,
          "time": 190.204999999995,
          "velocity": 0.6771653543307087,
          "duration": 0.5799999999999557
        },
        {
          "name": "A#3",
          "midi": 58,
          "time": 190.204999999995,
          "velocity": 0.5984251968503937,
          "duration": 0.29999999999998295
        },
        {
          "name": "F4",
          "midi": 65,
          "time": 190.214999999995,
          "velocity": 0.5984251968503937,
          "duration": 0.5799999999999557
        },
        {
          "name": "A#3",
          "midi": 58,
          "time": 190.504999999995,
          "velocity": 0.5984251968503937,
          "duration": 0.2999999999999545
        },
        {
          "name": "D4",
          "midi": 62,
          "time": 190.78499999999497,
          "velocity": 0.6771653543307087,
          "duration": 0.2799999999999727
        },
        {
          "name": "A#2",
          "midi": 46,
          "time": 190.79999999999495,
          "velocity": 0.5196850393700787,
          "duration": 0.2799999999999727
        },
        {
          "name": "F3",
          "midi": 53,
          "time": 190.80499999999495,
          "velocity": 0.6771653543307087,
          "duration": 0.5799999999999557
        },
        {
          "name": "A#4",
          "midi": 70,
          "time": 190.80499999999495,
          "velocity": 0.6771653543307087,
          "duration": 0.5799999999999557
        },
        {
          "name": "A#3",
          "midi": 58,
          "time": 190.81499999999494,
          "velocity": 0.6771653543307087,
          "duration": 0.27499999999997726
        },
        {
          "name": "F4",
          "midi": 65,
          "time": 190.81999999999493,
          "velocity": 0.6771653543307087,
          "duration": 0.5799999999999557
        },
        {
          "name": "A#3",
          "midi": 58,
          "time": 191.1049999999949,
          "velocity": 0.5196850393700787,
          "duration": 0.2750000000000057
        },
        {
          "name": "D4",
          "midi": 62,
          "time": 191.3899999999949,
          "velocity": 0.6771653543307087,
          "duration": 0.2799999999999727
        },
        {
          "name": "A#4",
          "midi": 70,
          "time": 191.3899999999949,
          "velocity": 0.6771653543307087,
          "duration": 0.5799999999999557
        },
        {
          "name": "F3",
          "midi": 53,
          "time": 191.3899999999949,
          "velocity": 0.5984251968503937,
          "duration": 0.5799999999999557
        },
        {
          "name": "A#2",
          "midi": 46,
          "time": 191.3999999999949,
          "velocity": 0.5196850393700787,
          "duration": 0.2799999999999727
        },
        {
          "name": "A#3",
          "midi": 58,
          "time": 191.41499999999488,
          "velocity": 0.5984251968503937,
          "duration": 0.27499999999997726
        },
        {
          "name": "F4",
          "midi": 65,
          "time": 191.41999999999487,
          "velocity": 0.5984251968503937,
          "duration": 0.5799999999999841
        },
        {
          "name": "C4",
          "midi": 60,
          "time": 191.71499999999486,
          "velocity": 0.5984251968503937,
          "duration": 0.2750000000000057
        },
        {
          "name": "F2",
          "midi": 41,
          "time": 191.99999999999486,
          "velocity": 0.5196850393700787,
          "duration": 0.2799999999999727
        },
        {
          "name": "C3",
          "midi": 48,
          "time": 191.99999999999486,
          "velocity": 0.6771653543307087,
          "duration": 0.29999999999998295
        },
        {
          "name": "F4",
          "midi": 65,
          "time": 191.99999999999486,
          "velocity": 0.6771653543307087,
          "duration": 0.5799999999999841
        },
        {
          "name": "A3",
          "midi": 57,
          "time": 191.99999999999486,
          "velocity": 0.6771653543307087,
          "duration": 0.2799999999999727
        },
        {
          "name": "F3",
          "midi": 53,
          "time": 191.99999999999486,
          "velocity": 0.6771653543307087,
          "duration": 0.2799999999999727
        },
        {
          "name": "A4",
          "midi": 69,
          "time": 192.01499999999484,
          "velocity": 0.6771653543307087,
          "duration": 0.5799999999999841
        },
        {
          "name": "C4",
          "midi": 60,
          "time": 192.01999999999484,
          "velocity": 0.6771653543307087,
          "duration": 0.28000000000000114
        },
        {
          "name": "C3",
          "midi": 48,
          "time": 192.29999999999484,
          "velocity": 0.4881889763779528,
          "duration": 0.29999999999998295
        },
        {
          "name": "F3",
          "midi": 53,
          "time": 192.30499999999483,
          "velocity": 0.4881889763779528,
          "duration": 0.28000000000000114
        },
        {
          "name": "A3",
          "midi": 57,
          "time": 192.30499999999483,
          "velocity": 0.4881889763779528,
          "duration": 0.28000000000000114
        },
        {
          "name": "C3",
          "midi": 48,
          "time": 192.58999999999483,
          "velocity": 0.5984251968503937,
          "duration": 0.5799999999999557
        },
        {
          "name": "C4",
          "midi": 60,
          "time": 192.59499999999483,
          "velocity": 0.6771653543307087,
          "duration": 0.2799999999999727
        },
        {
          "name": "F2",
          "midi": 41,
          "time": 192.59999999999482,
          "velocity": 0.5196850393700787,
          "duration": 0.2799999999999727
        },
        {
          "name": "A3",
          "midi": 57,
          "time": 192.60499999999482,
          "velocity": 0.5984251968503937,
          "duration": 0.29999999999998295
        },
        {
          "name": "F3",
          "midi": 53,
          "time": 192.60499999999482,
          "velocity": 0.5984251968503937,
          "duration": 0.29999999999998295
        },
        {
          "name": "A4",
          "midi": 69,
          "time": 192.6149999999948,
          "velocity": 0.6771653543307087,
          "duration": 0.5799999999999841
        },
        {
          "name": "F4",
          "midi": 65,
          "time": 192.6149999999948,
          "velocity": 0.5984251968503937,
          "duration": 0.5799999999999841
        },
        {
          "name": "F3",
          "midi": 53,
          "time": 192.9049999999948,
          "velocity": 0.5984251968503937,
          "duration": 0.29999999999998295
        },
        {
          "name": "A3",
          "midi": 57,
          "time": 192.9049999999948,
          "velocity": 0.5984251968503937,
          "duration": 0.29999999999998295
        },
        {
          "name": "C4",
          "midi": 60,
          "time": 193.1949999999948,
          "velocity": 0.6771653543307087,
          "duration": 0.2799999999999727
        },
        {
          "name": "F2",
          "midi": 41,
          "time": 193.1999999999948,
          "velocity": 0.5196850393700787,
          "duration": 0.2799999999999727
        },
        {
          "name": "C3",
          "midi": 48,
          "time": 193.20499999999478,
          "velocity": 0.6771653543307087,
          "duration": 0.5799999999999557
        },
        {
          "name": "A4",
          "midi": 69,
          "time": 193.21499999999477,
          "velocity": 0.6771653543307087,
          "duration": 0.5799999999999557
        },
        {
          "name": "F3",
          "midi": 53,
          "time": 193.21499999999477,
          "velocity": 0.6771653543307087,
          "duration": 0.27499999999997726
        },
        {
          "name": "A3",
          "midi": 57,
          "time": 193.21499999999477,
          "velocity": 0.6771653543307087,
          "duration": 0.27499999999997726
        },
        {
          "name": "F4",
          "midi": 65,
          "time": 193.21999999999477,
          "velocity": 0.6771653543307087,
          "duration": 0.5799999999999557
        },
        {
          "name": "F3",
          "midi": 53,
          "time": 193.50499999999474,
          "velocity": 0.5196850393700787,
          "duration": 0.2750000000000057
        },
        {
          "name": "A3",
          "midi": 57,
          "time": 193.50499999999474,
          "velocity": 0.5196850393700787,
          "duration": 0.2750000000000057
        },
        {
          "name": "C3",
          "midi": 48,
          "time": 193.78999999999473,
          "velocity": 0.5984251968503937,
          "duration": 0.5799999999999557
        },
        {
          "name": "A4",
          "midi": 69,
          "time": 193.79999999999472,
          "velocity": 0.6771653543307087,
          "duration": 0.5799999999999557
        },
        {
          "name": "F2",
          "midi": 41,
          "time": 193.79999999999472,
          "velocity": 0.5196850393700787,
          "duration": 0.2799999999999727
        },
        {
          "name": "C4",
          "midi": 60,
          "time": 193.79999999999472,
          "velocity": 0.6771653543307087,
          "duration": 0.2799999999999727
        },
        {
          "name": "A3",
          "midi": 57,
          "time": 193.8149999999947,
          "velocity": 0.5984251968503937,
          "duration": 0.27499999999997726
        },
        {
          "name": "F3",
          "midi": 53,
          "time": 193.8149999999947,
          "velocity": 0.5984251968503937,
          "duration": 0.27499999999997726
        },
        {
          "name": "F4",
          "midi": 65,
          "time": 193.8199999999947,
          "velocity": 0.5984251968503937,
          "duration": 0.5799999999999557
        },
        {
          "name": "F3",
          "midi": 53,
          "time": 194.1149999999947,
          "velocity": 0.5984251968503937,
          "duration": 0.27499999999997726
        },
        {
          "name": "F2",
          "midi": 41,
          "time": 194.39999999999466,
          "velocity": 0.5196850393700787,
          "duration": 0.2799999999999727
        },
        {
          "name": "C3",
          "midi": 48,
          "time": 194.39999999999466,
          "velocity": 0.6771653543307087,
          "duration": 0.29999999999998295
        },
        {
          "name": "F4",
          "midi": 65,
          "time": 194.39999999999466,
          "velocity": 0.6771653543307087,
          "duration": 0.5799999999999841
        },
        {
          "name": "A3",
          "midi": 57,
          "time": 194.39999999999466,
          "velocity": 0.6771653543307087,
          "duration": 0.2799999999999727
        },
        {
          "name": "F3",
          "midi": 53,
          "time": 194.39999999999466,
          "velocity": 0.6771653543307087,
          "duration": 0.2799999999999727
        },
        {
          "name": "A4",
          "midi": 69,
          "time": 194.41499999999465,
          "velocity": 0.6771653543307087,
          "duration": 0.5799999999999841
        },
        {
          "name": "C4",
          "midi": 60,
          "time": 194.41999999999464,
          "velocity": 0.6771653543307087,
          "duration": 0.28000000000000114
        },
        {
          "name": "C3",
          "midi": 48,
          "time": 194.69999999999465,
          "velocity": 0.4881889763779528,
          "duration": 0.29999999999998295
        },
        {
          "name": "F3",
          "midi": 53,
          "time": 194.70499999999464,
          "velocity": 0.4881889763779528,
          "duration": 0.28000000000000114
        },
        {
          "name": "A3",
          "midi": 57,
          "time": 194.70499999999464,
          "velocity": 0.4881889763779528,
          "duration": 0.28000000000000114
        },
        {
          "name": "C3",
          "midi": 48,
          "time": 194.98999999999464,
          "velocity": 0.5984251968503937,
          "duration": 0.5799999999999557
        },
        {
          "name": "C4",
          "midi": 60,
          "time": 194.99499999999463,
          "velocity": 0.6771653543307087,
          "duration": 0.2799999999999727
        },
        {
          "name": "F2",
          "midi": 41,
          "time": 194.99999999999463,
          "velocity": 0.5196850393700787,
          "duration": 0.2799999999999727
        },
        {
          "name": "A3",
          "midi": 57,
          "time": 195.00499999999462,
          "velocity": 0.5984251968503937,
          "duration": 0.29999999999998295
        },
        {
          "name": "F3",
          "midi": 53,
          "time": 195.00499999999462,
          "velocity": 0.5984251968503937,
          "duration": 0.29999999999998295
        },
        {
          "name": "A4",
          "midi": 69,
          "time": 195.01499999999461,
          "velocity": 0.6771653543307087,
          "duration": 0.5799999999999841
        },
        {
          "name": "F4",
          "midi": 65,
          "time": 195.01499999999461,
          "velocity": 0.5984251968503937,
          "duration": 0.5799999999999841
        },
        {
          "name": "F3",
          "midi": 53,
          "time": 195.3049999999946,
          "velocity": 0.5984251968503937,
          "duration": 0.29999999999998295
        },
        {
          "name": "A3",
          "midi": 57,
          "time": 195.3049999999946,
          "velocity": 0.5984251968503937,
          "duration": 0.29999999999998295
        },
        {
          "name": "C4",
          "midi": 60,
          "time": 195.5949999999946,
          "velocity": 0.6771653543307087,
          "duration": 0.2799999999999727
        },
        {
          "name": "F2",
          "midi": 41,
          "time": 195.5999999999946,
          "velocity": 0.5196850393700787,
          "duration": 0.2799999999999727
        },
        {
          "name": "C3",
          "midi": 48,
          "time": 195.6049999999946,
          "velocity": 0.6771653543307087,
          "duration": 0.5799999999999557
        },
        {
          "name": "A4",
          "midi": 69,
          "time": 195.61499999999458,
          "velocity": 0.6771653543307087,
          "duration": 0.5799999999999557
        },
        {
          "name": "F3",
          "midi": 53,
          "time": 195.61499999999458,
          "velocity": 0.6771653543307087,
          "duration": 0.27499999999997726
        },
        {
          "name": "A3",
          "midi": 57,
          "time": 195.61499999999458,
          "velocity": 0.6771653543307087,
          "duration": 0.27499999999997726
        },
        {
          "name": "F4",
          "midi": 65,
          "time": 195.61999999999458,
          "velocity": 0.6771653543307087,
          "duration": 0.5799999999999557
        },
        {
          "name": "F3",
          "midi": 53,
          "time": 195.90499999999454,
          "velocity": 0.5196850393700787,
          "duration": 0.2750000000000057
        },
        {
          "name": "A3",
          "midi": 57,
          "time": 195.90499999999454,
          "velocity": 0.5196850393700787,
          "duration": 0.2750000000000057
        },
        {
          "name": "C3",
          "midi": 48,
          "time": 196.18999999999454,
          "velocity": 0.5984251968503937,
          "duration": 0.5799999999999557
        },
        {
          "name": "A4",
          "midi": 69,
          "time": 196.19999999999453,
          "velocity": 0.6771653543307087,
          "duration": 0.5799999999999557
        },
        {
          "name": "F2",
          "midi": 41,
          "time": 196.19999999999453,
          "velocity": 0.5196850393700787,
          "duration": 0.2799999999999727
        },
        {
          "name": "C4",
          "midi": 60,
          "time": 196.19999999999453,
          "velocity": 0.6771653543307087,
          "duration": 0.2799999999999727
        },
        {
          "name": "A3",
          "midi": 57,
          "time": 196.21499999999452,
          "velocity": 0.5984251968503937,
          "duration": 0.27499999999997726
        },
        {
          "name": "F3",
          "midi": 53,
          "time": 196.21499999999452,
          "velocity": 0.5984251968503937,
          "duration": 0.27499999999997726
        },
        {
          "name": "F4",
          "midi": 65,
          "time": 196.2199999999945,
          "velocity": 0.5984251968503937,
          "duration": 0.5799999999999557
        },
        {
          "name": "F3",
          "midi": 53,
          "time": 196.5149999999945,
          "velocity": 0.5984251968503937,
          "duration": 0.27499999999997726
        },
        {
          "name": "F4",
          "midi": 65,
          "time": 196.79999999999447,
          "velocity": 0.6771653543307087,
          "duration": 0.5799999999999557
        },
        {
          "name": "C4",
          "midi": 60,
          "time": 196.79999999999447,
          "velocity": 0.6771653543307087,
          "duration": 0.2799999999999727
        },
        {
          "name": "A3",
          "midi": 57,
          "time": 196.79999999999447,
          "velocity": 0.6771653543307087,
          "duration": 0.2799999999999727
        },
        {
          "name": "D3",
          "midi": 50,
          "time": 196.79999999999447,
          "velocity": 0.6771653543307087,
          "duration": 0.2999999999999545
        },
        {
          "name": "F2",
          "midi": 41,
          "time": 196.79999999999447,
          "velocity": 0.5196850393700787,
          "duration": 0.2799999999999727
        },
        {
          "name": "D4",
          "midi": 62,
          "time": 196.80999999999446,
          "velocity": 0.6771653543307087,
          "duration": 0.2799999999999727
        },
        {
          "name": "A4",
          "midi": 69,
          "time": 196.81499999999446,
          "velocity": 0.6771653543307087,
          "duration": 0.5799999999999557
        },
        {
          "name": "D3",
          "midi": 50,
          "time": 197.09999999999442,
          "velocity": 0.4881889763779528,
          "duration": 0.29999999999998295
        },
        {
          "name": "D4",
          "midi": 62,
          "time": 197.10499999999442,
          "velocity": 0.4881889763779528,
          "duration": 0.28000000000000114
        },
        {
          "name": "A3",
          "midi": 57,
          "time": 197.10499999999442,
          "velocity": 0.4881889763779528,
          "duration": 0.28000000000000114
        },
        {
          "name": "D4",
          "midi": 62,
          "time": 197.38499999999442,
          "velocity": 0.6771653543307087,
          "duration": 0.2799999999999727
        },
        {
          "name": "D3",
          "midi": 50,
          "time": 197.38999999999442,
          "velocity": 0.5984251968503937,
          "duration": 0.5799999999999557
        },
        {
          "name": "F2",
          "midi": 41,
          "time": 197.3999999999944,
          "velocity": 0.5196850393700787,
          "duration": 0.2799999999999727
        },
        {
          "name": "C4",
          "midi": 60,
          "time": 197.4049999999944,
          "velocity": 0.5984251968503937,
          "duration": 0.29999999999998295
        },
        {
          "name": "A3",
          "midi": 57,
          "time": 197.4049999999944,
          "velocity": 0.5984251968503937,
          "duration": 0.29999999999998295
        },
        {
          "name": "A4",
          "midi": 69,
          "time": 197.4149999999944,
          "velocity": 0.6771653543307087,
          "duration": 0.5799999999999557
        },
        {
          "name": "F4",
          "midi": 65,
          "time": 197.4149999999944,
          "velocity": 0.5984251968503937,
          "duration": 0.5799999999999557
        },
        {
          "name": "A3",
          "midi": 57,
          "time": 197.70499999999439,
          "velocity": 0.4409448818897638,
          "duration": 0.2999999999999545
        },
        {
          "name": "D4",
          "midi": 62,
          "time": 197.70499999999439,
          "velocity": 0.4409448818897638,
          "duration": 0.2999999999999545
        },
        {
          "name": "D4",
          "midi": 62,
          "time": 197.98499999999436,
          "velocity": 0.6771653543307087,
          "duration": 0.2799999999999727
        },
        {
          "name": "F2",
          "midi": 41,
          "time": 197.99999999999434,
          "velocity": 0.5196850393700787,
          "duration": 0.2799999999999727
        },
        {
          "name": "D3",
          "midi": 50,
          "time": 198.00499999999434,
          "velocity": 0.6771653543307087,
          "duration": 0.5799999999999557
        },
        {
          "name": "A3",
          "midi": 57,
          "time": 198.01499999999433,
          "velocity": 0.6771653543307087,
          "duration": 0.27499999999997726
        },
        {
          "name": "C4",
          "midi": 60,
          "time": 198.01499999999433,
          "velocity": 0.6771653543307087,
          "duration": 0.27499999999997726
        },
        {
          "name": "A4",
          "midi": 69,
          "time": 198.01499999999433,
          "velocity": 0.6771653543307087,
          "duration": 0.5799999999999557
        },
        {
          "name": "F4",
          "midi": 65,
          "time": 198.01999999999433,
          "velocity": 0.6771653543307087,
          "duration": 0.5799999999999557
        },
        {
          "name": "A3",
          "midi": 57,
          "time": 198.3049999999943,
          "velocity": 0.3937007874015748,
          "duration": 0.2750000000000057
        },
        {
          "name": "D4",
          "midi": 62,
          "time": 198.3049999999943,
          "velocity": 0.3937007874015748,
          "duration": 0.2750000000000057
        },
        {
          "name": "D3",
          "midi": 50,
          "time": 198.5899999999943,
          "velocity": 0.5984251968503937,
          "duration": 0.5799999999999557
        },
        {
          "name": "D4",
          "midi": 62,
          "time": 198.5899999999943,
          "velocity": 0.6771653543307087,
          "duration": 0.2799999999999727
        },
        {
          "name": "F2",
          "midi": 41,
          "time": 198.59999999999428,
          "velocity": 0.5196850393700787,
          "duration": 0.2799999999999727
        },
        {
          "name": "A4",
          "midi": 69,
          "time": 198.59999999999428,
          "velocity": 0.6771653543307087,
          "duration": 0.5799999999999557
        },
        {
          "name": "C4",
          "midi": 60,
          "time": 198.61499999999427,
          "velocity": 0.5984251968503937,
          "duration": 0.27499999999997726
        },
        {
          "name": "A3",
          "midi": 57,
          "time": 198.61499999999427,
          "velocity": 0.5984251968503937,
          "duration": 0.27499999999997726
        },
        {
          "name": "F4",
          "midi": 65,
          "time": 198.61999999999426,
          "velocity": 0.5984251968503937,
          "duration": 0.5799999999999557
        },
        {
          "name": "A3",
          "midi": 57,
          "time": 198.91499999999425,
          "velocity": 0.5984251968503937,
          "duration": 0.27499999999997726
        },
        {
          "name": "F4",
          "midi": 65,
          "time": 199.19999999999422,
          "velocity": 0.6771653543307087,
          "duration": 0.5800000000000125
        },
        {
          "name": "F3",
          "midi": 53,
          "time": 199.19999999999422,
          "velocity": 0.6771653543307087,
          "duration": 0.30000000000001137
        },
        {
          "name": "A#2",
          "midi": 46,
          "time": 199.19999999999422,
          "velocity": 0.5196850393700787,
          "duration": 0.28000000000000114
        },
        {
          "name": "D4",
          "midi": 62,
          "time": 199.19999999999422,
          "velocity": 0.6771653543307087,
          "duration": 0.28000000000000114
        },
        {
          "name": "A#3",
          "midi": 58,
          "time": 199.19999999999422,
          "velocity": 0.6771653543307087,
          "duration": 0.28000000000000114
        },
        {
          "name": "A#4",
          "midi": 70,
          "time": 199.20499999999421,
          "velocity": 0.6771653543307087,
          "duration": 0.5800000000000125
        },
        {
          "name": "F3",
          "midi": 53,
          "time": 199.49999999999423,
          "velocity": 0.4881889763779528,
          "duration": 0.29999999999998295
        },
        {
          "name": "A#3",
          "midi": 58,
          "time": 199.50499999999423,
          "velocity": 0.4881889763779528,
          "duration": 0.28000000000000114
        },
        {
          "name": "D4",
          "midi": 62,
          "time": 199.78499999999423,
          "velocity": 0.6771653543307087,
          "duration": 0.2799999999999727
        },
        {
          "name": "F3",
          "midi": 53,
          "time": 199.78999999999422,
          "velocity": 0.5984251968503937,
          "duration": 0.5799999999999557
        },
        {
          "name": "A#2",
          "midi": 46,
          "time": 199.7999999999942,
          "velocity": 0.5196850393700787,
          "duration": 0.2799999999999727
        },
        {
          "name": "A#4",
          "midi": 70,
          "time": 199.8049999999942,
          "velocity": 0.6771653543307087,
          "duration": 0.5799999999999557
        },
        {
          "name": "A#3",
          "midi": 58,
          "time": 199.8049999999942,
          "velocity": 0.5984251968503937,
          "duration": 0.29999999999998295
        },
        {
          "name": "F4",
          "midi": 65,
          "time": 199.8149999999942,
          "velocity": 0.5984251968503937,
          "duration": 0.5799999999999557
        },
        {
          "name": "A#3",
          "midi": 58,
          "time": 200.1049999999942,
          "velocity": 0.5984251968503937,
          "duration": 0.2999999999999545
        },
        {
          "name": "D4",
          "midi": 62,
          "time": 200.38499999999416,
          "velocity": 0.6771653543307087,
          "duration": 0.2799999999999727
        },
        {
          "name": "A#2",
          "midi": 46,
          "time": 200.39999999999415,
          "velocity": 0.5196850393700787,
          "duration": 0.2799999999999727
        },
        {
          "name": "F3",
          "midi": 53,
          "time": 200.40499999999415,
          "velocity": 0.6771653543307087,
          "duration": 0.5799999999999557
        },
        {
          "name": "A#4",
          "midi": 70,
          "time": 200.40499999999415,
          "velocity": 0.6771653543307087,
          "duration": 0.5799999999999557
        },
        {
          "name": "A#3",
          "midi": 58,
          "time": 200.41499999999414,
          "velocity": 0.6771653543307087,
          "duration": 0.27499999999997726
        },
        {
          "name": "F4",
          "midi": 65,
          "time": 200.41999999999413,
          "velocity": 0.6771653543307087,
          "duration": 0.5799999999999557
        },
        {
          "name": "A#3",
          "midi": 58,
          "time": 200.7049999999941,
          "velocity": 0.5196850393700787,
          "duration": 0.2750000000000057
        },
        {
          "name": "D4",
          "midi": 62,
          "time": 200.9899999999941,
          "velocity": 0.6771653543307087,
          "duration": 0.2799999999999727
        },
        {
          "name": "A#4",
          "midi": 70,
          "time": 200.9899999999941,
          "velocity": 0.6771653543307087,
          "duration": 0.5799999999999557
        },
        {
          "name": "F3",
          "midi": 53,
          "time": 200.9899999999941,
          "velocity": 0.5984251968503937,
          "duration": 0.5799999999999557
        },
        {
          "name": "A#2",
          "midi": 46,
          "time": 200.9999999999941,
          "velocity": 0.5196850393700787,
          "duration": 0.2799999999999727
        },
        {
          "name": "A#3",
          "midi": 58,
          "time": 201.01499999999407,
          "velocity": 0.5984251968503937,
          "duration": 0.27499999999997726
        },
        {
          "name": "F4",
          "midi": 65,
          "time": 201.01999999999407,
          "velocity": 0.5984251968503937,
          "duration": 0.5799999999999841
        },
        {
          "name": "C4",
          "midi": 60,
          "time": 201.31499999999406,
          "velocity": 0.5984251968503937,
          "duration": 0.2750000000000057
        },
        {
          "name": "F2",
          "midi": 41,
          "time": 201.59999999999405,
          "velocity": 0.5196850393700787,
          "duration": 0.2799999999999727
        },
        {
          "name": "C3",
          "midi": 48,
          "time": 201.59999999999405,
          "velocity": 0.6771653543307087,
          "duration": 0.29999999999998295
        },
        {
          "name": "F4",
          "midi": 65,
          "time": 201.59999999999405,
          "velocity": 0.6771653543307087,
          "duration": 0.5799999999999841
        },
        {
          "name": "A3",
          "midi": 57,
          "time": 201.59999999999405,
          "velocity": 0.6771653543307087,
          "duration": 0.2799999999999727
        },
        {
          "name": "F3",
          "midi": 53,
          "time": 201.59999999999405,
          "velocity": 0.6771653543307087,
          "duration": 0.2799999999999727
        },
        {
          "name": "A4",
          "midi": 69,
          "time": 201.61499999999404,
          "velocity": 0.6771653543307087,
          "duration": 0.5799999999999841
        },
        {
          "name": "C4",
          "midi": 60,
          "time": 201.61999999999404,
          "velocity": 0.6771653543307087,
          "duration": 0.28000000000000114
        },
        {
          "name": "C3",
          "midi": 48,
          "time": 201.89999999999404,
          "velocity": 0.4881889763779528,
          "duration": 0.29999999999998295
        },
        {
          "name": "F3",
          "midi": 53,
          "time": 201.90499999999403,
          "velocity": 0.4881889763779528,
          "duration": 0.28000000000000114
        },
        {
          "name": "A3",
          "midi": 57,
          "time": 201.90499999999403,
          "velocity": 0.4881889763779528,
          "duration": 0.28000000000000114
        },
        {
          "name": "C3",
          "midi": 48,
          "time": 202.18999999999403,
          "velocity": 0.5984251968503937,
          "duration": 0.5799999999999557
        },
        {
          "name": "C4",
          "midi": 60,
          "time": 202.19499999999402,
          "velocity": 0.6771653543307087,
          "duration": 0.2799999999999727
        },
        {
          "name": "F2",
          "midi": 41,
          "time": 202.19999999999402,
          "velocity": 0.5196850393700787,
          "duration": 0.2799999999999727
        },
        {
          "name": "A3",
          "midi": 57,
          "time": 202.20499999999402,
          "velocity": 0.5984251968503937,
          "duration": 0.29999999999998295
        },
        {
          "name": "F3",
          "midi": 53,
          "time": 202.20499999999402,
          "velocity": 0.5984251968503937,
          "duration": 0.29999999999998295
        },
        {
          "name": "A4",
          "midi": 69,
          "time": 202.214999999994,
          "velocity": 0.6771653543307087,
          "duration": 0.5799999999999841
        },
        {
          "name": "F4",
          "midi": 65,
          "time": 202.214999999994,
          "velocity": 0.5984251968503937,
          "duration": 0.5799999999999841
        },
        {
          "name": "F3",
          "midi": 53,
          "time": 202.504999999994,
          "velocity": 0.5984251968503937,
          "duration": 0.29999999999998295
        },
        {
          "name": "A3",
          "midi": 57,
          "time": 202.504999999994,
          "velocity": 0.5984251968503937,
          "duration": 0.29999999999998295
        },
        {
          "name": "C4",
          "midi": 60,
          "time": 202.794999999994,
          "velocity": 0.6771653543307087,
          "duration": 0.2799999999999727
        },
        {
          "name": "F2",
          "midi": 41,
          "time": 202.799999999994,
          "velocity": 0.5196850393700787,
          "duration": 0.2799999999999727
        },
        {
          "name": "C3",
          "midi": 48,
          "time": 202.80499999999398,
          "velocity": 0.6771653543307087,
          "duration": 0.5799999999999557
        },
        {
          "name": "A4",
          "midi": 69,
          "time": 202.81499999999397,
          "velocity": 0.6771653543307087,
          "duration": 0.5799999999999557
        },
        {
          "name": "F3",
          "midi": 53,
          "time": 202.81499999999397,
          "velocity": 0.6771653543307087,
          "duration": 0.27499999999997726
        },
        {
          "name": "A3",
          "midi": 57,
          "time": 202.81499999999397,
          "velocity": 0.6771653543307087,
          "duration": 0.27499999999997726
        },
        {
          "name": "F4",
          "midi": 65,
          "time": 202.81999999999397,
          "velocity": 0.6771653543307087,
          "duration": 0.5799999999999557
        },
        {
          "name": "F3",
          "midi": 53,
          "time": 203.10499999999394,
          "velocity": 0.5196850393700787,
          "duration": 0.2750000000000057
        },
        {
          "name": "A3",
          "midi": 57,
          "time": 203.10499999999394,
          "velocity": 0.5196850393700787,
          "duration": 0.2750000000000057
        },
        {
          "name": "C3",
          "midi": 48,
          "time": 203.38999999999393,
          "velocity": 0.5984251968503937,
          "duration": 0.5799999999999557
        },
        {
          "name": "A4",
          "midi": 69,
          "time": 203.39999999999392,
          "velocity": 0.6771653543307087,
          "duration": 0.5799999999999557
        },
        {
          "name": "F2",
          "midi": 41,
          "time": 203.39999999999392,
          "velocity": 0.5196850393700787,
          "duration": 0.2799999999999727
        },
        {
          "name": "C4",
          "midi": 60,
          "time": 203.39999999999392,
          "velocity": 0.6771653543307087,
          "duration": 0.2799999999999727
        },
        {
          "name": "A3",
          "midi": 57,
          "time": 203.4149999999939,
          "velocity": 0.5984251968503937,
          "duration": 0.27499999999997726
        },
        {
          "name": "F3",
          "midi": 53,
          "time": 203.4149999999939,
          "velocity": 0.5984251968503937,
          "duration": 0.27499999999997726
        },
        {
          "name": "F4",
          "midi": 65,
          "time": 203.4199999999939,
          "velocity": 0.5984251968503937,
          "duration": 0.5799999999999557
        },
        {
          "name": "F3",
          "midi": 53,
          "time": 203.7149999999939,
          "velocity": 0.5984251968503937,
          "duration": 0.27499999999997726
        },
        {
          "name": "F2",
          "midi": 41,
          "time": 203.99999999999386,
          "velocity": 0.5196850393700787,
          "duration": 0.2799999999999727
        },
        {
          "name": "C3",
          "midi": 48,
          "time": 203.99999999999386,
          "velocity": 0.6771653543307087,
          "duration": 0.29999999999998295
        },
        {
          "name": "F4",
          "midi": 65,
          "time": 203.99999999999386,
          "velocity": 0.6771653543307087,
          "duration": 0.5799999999999841
        },
        {
          "name": "A3",
          "midi": 57,
          "time": 203.99999999999386,
          "velocity": 0.6771653543307087,
          "duration": 0.2799999999999727
        },
        {
          "name": "F3",
          "midi": 53,
          "time": 203.99999999999386,
          "velocity": 0.6771653543307087,
          "duration": 0.2799999999999727
        },
        {
          "name": "A4",
          "midi": 69,
          "time": 204.01499999999385,
          "velocity": 0.6771653543307087,
          "duration": 0.5799999999999841
        },
        {
          "name": "C4",
          "midi": 60,
          "time": 204.01999999999384,
          "velocity": 0.6771653543307087,
          "duration": 0.28000000000000114
        },
        {
          "name": "C3",
          "midi": 48,
          "time": 204.29999999999384,
          "velocity": 0.4881889763779528,
          "duration": 0.29999999999998295
        },
        {
          "name": "F3",
          "midi": 53,
          "time": 204.30499999999384,
          "velocity": 0.4881889763779528,
          "duration": 0.28000000000000114
        },
        {
          "name": "A3",
          "midi": 57,
          "time": 204.30499999999384,
          "velocity": 0.4881889763779528,
          "duration": 0.28000000000000114
        },
        {
          "name": "C3",
          "midi": 48,
          "time": 204.58999999999384,
          "velocity": 0.5984251968503937,
          "duration": 0.5799999999999557
        },
        {
          "name": "C4",
          "midi": 60,
          "time": 204.59499999999383,
          "velocity": 0.6771653543307087,
          "duration": 0.2799999999999727
        },
        {
          "name": "F2",
          "midi": 41,
          "time": 204.59999999999383,
          "velocity": 0.5196850393700787,
          "duration": 0.2799999999999727
        },
        {
          "name": "A3",
          "midi": 57,
          "time": 204.60499999999382,
          "velocity": 0.5984251968503937,
          "duration": 0.29999999999998295
        },
        {
          "name": "F3",
          "midi": 53,
          "time": 204.60499999999382,
          "velocity": 0.5984251968503937,
          "duration": 0.29999999999998295
        },
        {
          "name": "A4",
          "midi": 69,
          "time": 204.6149999999938,
          "velocity": 0.6771653543307087,
          "duration": 0.5799999999999841
        },
        {
          "name": "F4",
          "midi": 65,
          "time": 204.6149999999938,
          "velocity": 0.5984251968503937,
          "duration": 0.5799999999999841
        },
        {
          "name": "F3",
          "midi": 53,
          "time": 204.9049999999938,
          "velocity": 0.5984251968503937,
          "duration": 0.29999999999998295
        },
        {
          "name": "A3",
          "midi": 57,
          "time": 204.9049999999938,
          "velocity": 0.5984251968503937,
          "duration": 0.29999999999998295
        },
        {
          "name": "C4",
          "midi": 60,
          "time": 205.1949999999938,
          "velocity": 0.6771653543307087,
          "duration": 0.2799999999999727
        },
        {
          "name": "F2",
          "midi": 41,
          "time": 205.1999999999938,
          "velocity": 0.5196850393700787,
          "duration": 0.2799999999999727
        },
        {
          "name": "C3",
          "midi": 48,
          "time": 205.2049999999938,
          "velocity": 0.6771653543307087,
          "duration": 0.5799999999999557
        },
        {
          "name": "A4",
          "midi": 69,
          "time": 205.21499999999378,
          "velocity": 0.6771653543307087,
          "duration": 0.5799999999999557
        },
        {
          "name": "F3",
          "midi": 53,
          "time": 205.21499999999378,
          "velocity": 0.6771653543307087,
          "duration": 0.27499999999997726
        },
        {
          "name": "A3",
          "midi": 57,
          "time": 205.21499999999378,
          "velocity": 0.6771653543307087,
          "duration": 0.27499999999997726
        },
        {
          "name": "F4",
          "midi": 65,
          "time": 205.21999999999377,
          "velocity": 0.6771653543307087,
          "duration": 0.5799999999999557
        },
        {
          "name": "F3",
          "midi": 53,
          "time": 205.50499999999374,
          "velocity": 0.5196850393700787,
          "duration": 0.2750000000000057
        },
        {
          "name": "A3",
          "midi": 57,
          "time": 205.50499999999374,
          "velocity": 0.5196850393700787,
          "duration": 0.2750000000000057
        },
        {
          "name": "C3",
          "midi": 48,
          "time": 205.78999999999374,
          "velocity": 0.5984251968503937,
          "duration": 0.5799999999999557
        },
        {
          "name": "A4",
          "midi": 69,
          "time": 205.79999999999373,
          "velocity": 0.6771653543307087,
          "duration": 0.5799999999999557
        },
        {
          "name": "F2",
          "midi": 41,
          "time": 205.79999999999373,
          "velocity": 0.5196850393700787,
          "duration": 0.2799999999999727
        },
        {
          "name": "C4",
          "midi": 60,
          "time": 205.79999999999373,
          "velocity": 0.6771653543307087,
          "duration": 0.2799999999999727
        },
        {
          "name": "A3",
          "midi": 57,
          "time": 205.81499999999372,
          "velocity": 0.5984251968503937,
          "duration": 0.27499999999997726
        },
        {
          "name": "F3",
          "midi": 53,
          "time": 205.81499999999372,
          "velocity": 0.5984251968503937,
          "duration": 0.27499999999997726
        },
        {
          "name": "F4",
          "midi": 65,
          "time": 205.8199999999937,
          "velocity": 0.5984251968503937,
          "duration": 0.5799999999999557
        },
        {
          "name": "F3",
          "midi": 53,
          "time": 206.1149999999937,
          "velocity": 0.5984251968503937,
          "duration": 0.27499999999997726
        },
        {
          "name": "F4",
          "midi": 65,
          "time": 206.39999999999367,
          "velocity": 0.6771653543307087,
          "duration": 0.5799999999999557
        },
        {
          "name": "C4",
          "midi": 60,
          "time": 206.39999999999367,
          "velocity": 0.6771653543307087,
          "duration": 0.2799999999999727
        },
        {
          "name": "A3",
          "midi": 57,
          "time": 206.39999999999367,
          "velocity": 0.6771653543307087,
          "duration": 0.2799999999999727
        },
        {
          "name": "D3",
          "midi": 50,
          "time": 206.39999999999367,
          "velocity": 0.6771653543307087,
          "duration": 0.2999999999999545
        },
        {
          "name": "F2",
          "midi": 41,
          "time": 206.39999999999367,
          "velocity": 0.5196850393700787,
          "duration": 0.2799999999999727
        },
        {
          "name": "D4",
          "midi": 62,
          "time": 206.40999999999366,
          "velocity": 0.6771653543307087,
          "duration": 0.2799999999999727
        },
        {
          "name": "A4",
          "midi": 69,
          "time": 206.41499999999365,
          "velocity": 0.6771653543307087,
          "duration": 0.5799999999999557
        },
        {
          "name": "D3",
          "midi": 50,
          "time": 206.69999999999362,
          "velocity": 0.4881889763779528,
          "duration": 0.29999999999998295
        },
        {
          "name": "D4",
          "midi": 62,
          "time": 206.70499999999362,
          "velocity": 0.4881889763779528,
          "duration": 0.28000000000000114
        },
        {
          "name": "A3",
          "midi": 57,
          "time": 206.70499999999362,
          "velocity": 0.4881889763779528,
          "duration": 0.28000000000000114
        },
        {
          "name": "D4",
          "midi": 62,
          "time": 206.98499999999362,
          "velocity": 0.6771653543307087,
          "duration": 0.2799999999999727
        },
        {
          "name": "D3",
          "midi": 50,
          "time": 206.9899999999936,
          "velocity": 0.5984251968503937,
          "duration": 0.5799999999999557
        },
        {
          "name": "F2",
          "midi": 41,
          "time": 206.9999999999936,
          "velocity": 0.5196850393700787,
          "duration": 0.2799999999999727
        },
        {
          "name": "C4",
          "midi": 60,
          "time": 207.0049999999936,
          "velocity": 0.5984251968503937,
          "duration": 0.29999999999998295
        },
        {
          "name": "A3",
          "midi": 57,
          "time": 207.0049999999936,
          "velocity": 0.5984251968503937,
          "duration": 0.29999999999998295
        },
        {
          "name": "A4",
          "midi": 69,
          "time": 207.0149999999936,
          "velocity": 0.6771653543307087,
          "duration": 0.5799999999999557
        },
        {
          "name": "F4",
          "midi": 65,
          "time": 207.0149999999936,
          "velocity": 0.5984251968503937,
          "duration": 0.5799999999999557
        },
        {
          "name": "A3",
          "midi": 57,
          "time": 207.30499999999358,
          "velocity": 0.4409448818897638,
          "duration": 0.2999999999999545
        },
        {
          "name": "D4",
          "midi": 62,
          "time": 207.30499999999358,
          "velocity": 0.4409448818897638,
          "duration": 0.2999999999999545
        },
        {
          "name": "D4",
          "midi": 62,
          "time": 207.58499999999356,
          "velocity": 0.6771653543307087,
          "duration": 0.2799999999999727
        },
        {
          "name": "F2",
          "midi": 41,
          "time": 207.59999999999354,
          "velocity": 0.5196850393700787,
          "duration": 0.2799999999999727
        },
        {
          "name": "D3",
          "midi": 50,
          "time": 207.60499999999354,
          "velocity": 0.6771653543307087,
          "duration": 0.5799999999999557
        },
        {
          "name": "A3",
          "midi": 57,
          "time": 207.61499999999353,
          "velocity": 0.6771653543307087,
          "duration": 0.27499999999997726
        },
        {
          "name": "C4",
          "midi": 60,
          "time": 207.61499999999353,
          "velocity": 0.6771653543307087,
          "duration": 0.27499999999997726
        },
        {
          "name": "A4",
          "midi": 69,
          "time": 207.61499999999353,
          "velocity": 0.6771653543307087,
          "duration": 0.5799999999999557
        },
        {
          "name": "F4",
          "midi": 65,
          "time": 207.61999999999352,
          "velocity": 0.6771653543307087,
          "duration": 0.5799999999999557
        },
        {
          "name": "A3",
          "midi": 57,
          "time": 207.9049999999935,
          "velocity": 0.3937007874015748,
          "duration": 0.2750000000000057
        },
        {
          "name": "D4",
          "midi": 62,
          "time": 207.9049999999935,
          "velocity": 0.3937007874015748,
          "duration": 0.2750000000000057
        },
        {
          "name": "D3",
          "midi": 50,
          "time": 208.1899999999935,
          "velocity": 0.5984251968503937,
          "duration": 0.5799999999999557
        },
        {
          "name": "D4",
          "midi": 62,
          "time": 208.1899999999935,
          "velocity": 0.6771653543307087,
          "duration": 0.2799999999999727
        },
        {
          "name": "F2",
          "midi": 41,
          "time": 208.19999999999348,
          "velocity": 0.5196850393700787,
          "duration": 0.2799999999999727
        },
        {
          "name": "A4",
          "midi": 69,
          "time": 208.19999999999348,
          "velocity": 0.6771653543307087,
          "duration": 0.5799999999999557
        },
        {
          "name": "C4",
          "midi": 60,
          "time": 208.21499999999347,
          "velocity": 0.5984251968503937,
          "duration": 0.27499999999997726
        },
        {
          "name": "A3",
          "midi": 57,
          "time": 208.21499999999347,
          "velocity": 0.5984251968503937,
          "duration": 0.27499999999997726
        },
        {
          "name": "F4",
          "midi": 65,
          "time": 208.21999999999346,
          "velocity": 0.5984251968503937,
          "duration": 0.5799999999999557
        },
        {
          "name": "A3",
          "midi": 57,
          "time": 208.51499999999345,
          "velocity": 0.5984251968503937,
          "duration": 0.27499999999997726
        },
        {
          "name": "F4",
          "midi": 65,
          "time": 208.79999999999342,
          "velocity": 0.6771653543307087,
          "duration": 0.5800000000000125
        },
        {
          "name": "F3",
          "midi": 53,
          "time": 208.79999999999342,
          "velocity": 0.6771653543307087,
          "duration": 0.30000000000001137
        },
        {
          "name": "A#2",
          "midi": 46,
          "time": 208.79999999999342,
          "velocity": 0.5196850393700787,
          "duration": 0.28000000000000114
        },
        {
          "name": "D4",
          "midi": 62,
          "time": 208.79999999999342,
          "velocity": 0.6771653543307087,
          "duration": 0.28000000000000114
        },
        {
          "name": "A#3",
          "midi": 58,
          "time": 208.79999999999342,
          "velocity": 0.6771653543307087,
          "duration": 0.28000000000000114
        },
        {
          "name": "A#4",
          "midi": 70,
          "time": 208.8049999999934,
          "velocity": 0.6771653543307087,
          "duration": 0.5800000000000125
        },
        {
          "name": "F3",
          "midi": 53,
          "time": 209.09999999999343,
          "velocity": 0.4881889763779528,
          "duration": 0.29999999999998295
        },
        {
          "name": "A#3",
          "midi": 58,
          "time": 209.10499999999342,
          "velocity": 0.4881889763779528,
          "duration": 0.28000000000000114
        },
        {
          "name": "D4",
          "midi": 62,
          "time": 209.38499999999343,
          "velocity": 0.6771653543307087,
          "duration": 0.2799999999999727
        },
        {
          "name": "F3",
          "midi": 53,
          "time": 209.38999999999342,
          "velocity": 0.5984251968503937,
          "duration": 0.5799999999999557
        },
        {
          "name": "A#2",
          "midi": 46,
          "time": 209.3999999999934,
          "velocity": 0.5196850393700787,
          "duration": 0.2799999999999727
        },
        {
          "name": "A#4",
          "midi": 70,
          "time": 209.4049999999934,
          "velocity": 0.6771653543307087,
          "duration": 0.5799999999999557
        },
        {
          "name": "A#3",
          "midi": 58,
          "time": 209.4049999999934,
          "velocity": 0.5984251968503937,
          "duration": 0.29999999999998295
        },
        {
          "name": "F4",
          "midi": 65,
          "time": 209.4149999999934,
          "velocity": 0.5984251968503937,
          "duration": 0.5799999999999557
        },
        {
          "name": "A#3",
          "midi": 58,
          "time": 209.7049999999934,
          "velocity": 0.5984251968503937,
          "duration": 0.2999999999999545
        },
        {
          "name": "D4",
          "midi": 62,
          "time": 209.98499999999336,
          "velocity": 0.6771653543307087,
          "duration": 0.2799999999999727
        },
        {
          "name": "A#2",
          "midi": 46,
          "time": 209.99999999999335,
          "velocity": 0.5196850393700787,
          "duration": 0.2799999999999727
        },
        {
          "name": "F3",
          "midi": 53,
          "time": 210.00499999999334,
          "velocity": 0.6771653543307087,
          "duration": 0.5799999999999557
        },
        {
          "name": "A#4",
          "midi": 70,
          "time": 210.00499999999334,
          "velocity": 0.6771653543307087,
          "duration": 0.5799999999999557
        },
        {
          "name": "A#3",
          "midi": 58,
          "time": 210.01499999999334,
          "velocity": 0.6771653543307087,
          "duration": 0.27499999999997726
        },
        {
          "name": "F4",
          "midi": 65,
          "time": 210.01999999999333,
          "velocity": 0.6771653543307087,
          "duration": 0.5799999999999557
        },
        {
          "name": "A#3",
          "midi": 58,
          "time": 210.3049999999933,
          "velocity": 0.5196850393700787,
          "duration": 0.2750000000000057
        },
        {
          "name": "D4",
          "midi": 62,
          "time": 210.5899999999933,
          "velocity": 0.6771653543307087,
          "duration": 0.2799999999999727
        },
        {
          "name": "A#4",
          "midi": 70,
          "time": 210.5899999999933,
          "velocity": 0.6771653543307087,
          "duration": 0.5799999999999557
        },
        {
          "name": "F3",
          "midi": 53,
          "time": 210.5899999999933,
          "velocity": 0.5984251968503937,
          "duration": 0.5799999999999557
        },
        {
          "name": "A#2",
          "midi": 46,
          "time": 210.5999999999933,
          "velocity": 0.5196850393700787,
          "duration": 0.2799999999999727
        },
        {
          "name": "A#3",
          "midi": 58,
          "time": 210.61499999999327,
          "velocity": 0.5984251968503937,
          "duration": 0.27499999999997726
        },
        {
          "name": "F4",
          "midi": 65,
          "time": 210.61999999999327,
          "velocity": 0.5984251968503937,
          "duration": 0.5799999999999841
        },
        {
          "name": "C4",
          "midi": 60,
          "time": 210.91499999999326,
          "velocity": 0.5984251968503937,
          "duration": 0.2750000000000057
        },
        {
          "name": "F2",
          "midi": 41,
          "time": 211.19999999999325,
          "velocity": 0.5196850393700787,
          "duration": 0.2799999999999727
        },
        {
          "name": "C3",
          "midi": 48,
          "time": 211.19999999999325,
          "velocity": 0.6771653543307087,
          "duration": 0.29999999999998295
        },
        {
          "name": "F4",
          "midi": 65,
          "time": 211.19999999999325,
          "velocity": 0.6771653543307087,
          "duration": 0.5799999999999841
        },
        {
          "name": "A3",
          "midi": 57,
          "time": 211.19999999999325,
          "velocity": 0.6771653543307087,
          "duration": 0.2799999999999727
        },
        {
          "name": "F3",
          "midi": 53,
          "time": 211.19999999999325,
          "velocity": 0.6771653543307087,
          "duration": 0.2799999999999727
        },
        {
          "name": "A4",
          "midi": 69,
          "time": 211.21499999999324,
          "velocity": 0.6771653543307087,
          "duration": 0.5799999999999841
        },
        {
          "name": "C4",
          "midi": 60,
          "time": 211.21999999999323,
          "velocity": 0.6771653543307087,
          "duration": 0.28000000000000114
        },
        {
          "name": "C3",
          "midi": 48,
          "time": 211.49999999999324,
          "velocity": 0.4881889763779528,
          "duration": 0.29999999999998295
        },
        {
          "name": "F3",
          "midi": 53,
          "time": 211.50499999999323,
          "velocity": 0.4881889763779528,
          "duration": 0.28000000000000114
        },
        {
          "name": "A3",
          "midi": 57,
          "time": 211.50499999999323,
          "velocity": 0.4881889763779528,
          "duration": 0.28000000000000114
        },
        {
          "name": "C3",
          "midi": 48,
          "time": 211.78999999999323,
          "velocity": 0.5984251968503937,
          "duration": 0.5799999999999557
        },
        {
          "name": "C4",
          "midi": 60,
          "time": 211.79499999999322,
          "velocity": 0.6771653543307087,
          "duration": 0.2799999999999727
        },
        {
          "name": "F2",
          "midi": 41,
          "time": 211.79999999999322,
          "velocity": 0.5196850393700787,
          "duration": 0.2799999999999727
        },
        {
          "name": "A3",
          "midi": 57,
          "time": 211.8049999999932,
          "velocity": 0.5984251968503937,
          "duration": 0.29999999999998295
        },
        {
          "name": "F3",
          "midi": 53,
          "time": 211.8049999999932,
          "velocity": 0.5984251968503937,
          "duration": 0.29999999999998295
        },
        {
          "name": "A4",
          "midi": 69,
          "time": 211.8149999999932,
          "velocity": 0.6771653543307087,
          "duration": 0.5799999999999841
        },
        {
          "name": "F4",
          "midi": 65,
          "time": 211.8149999999932,
          "velocity": 0.5984251968503937,
          "duration": 0.5799999999999841
        },
        {
          "name": "F3",
          "midi": 53,
          "time": 212.1049999999932,
          "velocity": 0.5984251968503937,
          "duration": 0.29999999999998295
        },
        {
          "name": "A3",
          "midi": 57,
          "time": 212.1049999999932,
          "velocity": 0.5984251968503937,
          "duration": 0.29999999999998295
        },
        {
          "name": "C4",
          "midi": 60,
          "time": 212.3949999999932,
          "velocity": 0.6771653543307087,
          "duration": 0.2799999999999727
        },
        {
          "name": "F2",
          "midi": 41,
          "time": 212.39999999999318,
          "velocity": 0.5196850393700787,
          "duration": 0.2799999999999727
        },
        {
          "name": "C3",
          "midi": 48,
          "time": 212.40499999999318,
          "velocity": 0.6771653543307087,
          "duration": 0.5799999999999557
        },
        {
          "name": "A4",
          "midi": 69,
          "time": 212.41499999999317,
          "velocity": 0.6771653543307087,
          "duration": 0.5799999999999557
        },
        {
          "name": "F3",
          "midi": 53,
          "time": 212.41499999999317,
          "velocity": 0.6771653543307087,
          "duration": 0.27499999999997726
        },
        {
          "name": "A3",
          "midi": 57,
          "time": 212.41499999999317,
          "velocity": 0.6771653543307087,
          "duration": 0.27499999999997726
        },
        {
          "name": "F4",
          "midi": 65,
          "time": 212.41999999999317,
          "velocity": 0.6771653543307087,
          "duration": 0.5799999999999557
        },
        {
          "name": "F3",
          "midi": 53,
          "time": 212.70499999999313,
          "velocity": 0.5196850393700787,
          "duration": 0.2750000000000057
        },
        {
          "name": "A3",
          "midi": 57,
          "time": 212.70499999999313,
          "velocity": 0.5196850393700787,
          "duration": 0.2750000000000057
        },
        {
          "name": "C3",
          "midi": 48,
          "time": 212.98999999999313,
          "velocity": 0.5984251968503937,
          "duration": 0.5799999999999557
        },
        {
          "name": "A4",
          "midi": 69,
          "time": 212.99999999999312,
          "velocity": 0.6771653543307087,
          "duration": 0.5799999999999557
        },
        {
          "name": "F2",
          "midi": 41,
          "time": 212.99999999999312,
          "velocity": 0.5196850393700787,
          "duration": 0.2799999999999727
        },
        {
          "name": "C4",
          "midi": 60,
          "time": 212.99999999999312,
          "velocity": 0.6771653543307087,
          "duration": 0.2799999999999727
        },
        {
          "name": "A3",
          "midi": 57,
          "time": 213.0149999999931,
          "velocity": 0.5984251968503937,
          "duration": 0.27499999999997726
        },
        {
          "name": "F3",
          "midi": 53,
          "time": 213.0149999999931,
          "velocity": 0.5984251968503937,
          "duration": 0.27499999999997726
        },
        {
          "name": "F4",
          "midi": 65,
          "time": 213.0199999999931,
          "velocity": 0.5984251968503937,
          "duration": 0.5799999999999557
        },
        {
          "name": "F3",
          "midi": 53,
          "time": 213.3149999999931,
          "velocity": 0.5984251968503937,
          "duration": 0.27499999999997726
        },
        {
          "name": "F2",
          "midi": 41,
          "time": 213.59999999999306,
          "velocity": 0.5196850393700787,
          "duration": 0.2799999999999727
        },
        {
          "name": "C3",
          "midi": 48,
          "time": 213.59999999999306,
          "velocity": 0.6771653543307087,
          "duration": 0.29999999999998295
        },
        {
          "name": "F4",
          "midi": 65,
          "time": 213.59999999999306,
          "velocity": 0.6771653543307087,
          "duration": 0.5799999999999841
        },
        {
          "name": "A3",
          "midi": 57,
          "time": 213.59999999999306,
          "velocity": 0.6771653543307087,
          "duration": 0.2799999999999727
        },
        {
          "name": "F3",
          "midi": 53,
          "time": 213.59999999999306,
          "velocity": 0.6771653543307087,
          "duration": 0.2799999999999727
        },
        {
          "name": "A4",
          "midi": 69,
          "time": 213.61499999999305,
          "velocity": 0.6771653543307087,
          "duration": 0.5799999999999841
        },
        {
          "name": "C4",
          "midi": 60,
          "time": 213.61999999999304,
          "velocity": 0.6771653543307087,
          "duration": 0.28000000000000114
        },
        {
          "name": "C3",
          "midi": 48,
          "time": 213.89999999999304,
          "velocity": 0.4881889763779528,
          "duration": 0.29999999999998295
        },
        {
          "name": "F3",
          "midi": 53,
          "time": 213.90499999999304,
          "velocity": 0.4881889763779528,
          "duration": 0.28000000000000114
        },
        {
          "name": "A3",
          "midi": 57,
          "time": 213.90499999999304,
          "velocity": 0.4881889763779528,
          "duration": 0.28000000000000114
        },
        {
          "name": "C3",
          "midi": 48,
          "time": 214.18999999999303,
          "velocity": 0.5984251968503937,
          "duration": 0.5799999999999557
        },
        {
          "name": "C4",
          "midi": 60,
          "time": 214.19499999999303,
          "velocity": 0.6771653543307087,
          "duration": 0.2799999999999727
        },
        {
          "name": "F2",
          "midi": 41,
          "time": 214.19999999999303,
          "velocity": 0.5196850393700787,
          "duration": 0.2799999999999727
        },
        {
          "name": "A3",
          "midi": 57,
          "time": 214.20499999999302,
          "velocity": 0.5984251968503937,
          "duration": 0.29999999999998295
        },
        {
          "name": "F3",
          "midi": 53,
          "time": 214.20499999999302,
          "velocity": 0.5984251968503937,
          "duration": 0.29999999999998295
        },
        {
          "name": "A4",
          "midi": 69,
          "time": 214.214999999993,
          "velocity": 0.6771653543307087,
          "duration": 0.5799999999999841
        },
        {
          "name": "F4",
          "midi": 65,
          "time": 214.214999999993,
          "velocity": 0.5984251968503937,
          "duration": 0.5799999999999841
        },
        {
          "name": "F3",
          "midi": 53,
          "time": 214.504999999993,
          "velocity": 0.5984251968503937,
          "duration": 0.29999999999998295
        },
        {
          "name": "A3",
          "midi": 57,
          "time": 214.504999999993,
          "velocity": 0.5984251968503937,
          "duration": 0.29999999999998295
        },
        {
          "name": "C4",
          "midi": 60,
          "time": 214.794999999993,
          "velocity": 0.6771653543307087,
          "duration": 0.2799999999999727
        },
        {
          "name": "F2",
          "midi": 41,
          "time": 214.799999999993,
          "velocity": 0.5196850393700787,
          "duration": 0.2799999999999727
        },
        {
          "name": "C3",
          "midi": 48,
          "time": 214.804999999993,
          "velocity": 0.6771653543307087,
          "duration": 0.5799999999999557
        },
        {
          "name": "A4",
          "midi": 69,
          "time": 214.81499999999298,
          "velocity": 0.6771653543307087,
          "duration": 0.5799999999999557
        },
        {
          "name": "F3",
          "midi": 53,
          "time": 214.81499999999298,
          "velocity": 0.6771653543307087,
          "duration": 0.27499999999997726
        },
        {
          "name": "A3",
          "midi": 57,
          "time": 214.81499999999298,
          "velocity": 0.6771653543307087,
          "duration": 0.27499999999997726
        },
        {
          "name": "F4",
          "midi": 65,
          "time": 214.81999999999297,
          "velocity": 0.6771653543307087,
          "duration": 0.5799999999999557
        },
        {
          "name": "F3",
          "midi": 53,
          "time": 215.10499999999294,
          "velocity": 0.5196850393700787,
          "duration": 0.2750000000000057
        },
        {
          "name": "A3",
          "midi": 57,
          "time": 215.10499999999294,
          "velocity": 0.5196850393700787,
          "duration": 0.2750000000000057
        },
        {
          "name": "C3",
          "midi": 48,
          "time": 215.38999999999294,
          "velocity": 0.5984251968503937,
          "duration": 0.5799999999999557
        },
        {
          "name": "A4",
          "midi": 69,
          "time": 215.39999999999293,
          "velocity": 0.6771653543307087,
          "duration": 0.5799999999999557
        },
        {
          "name": "F2",
          "midi": 41,
          "time": 215.39999999999293,
          "velocity": 0.5196850393700787,
          "duration": 0.2799999999999727
        },
        {
          "name": "C4",
          "midi": 60,
          "time": 215.39999999999293,
          "velocity": 0.6771653543307087,
          "duration": 0.2799999999999727
        },
        {
          "name": "A3",
          "midi": 57,
          "time": 215.41499999999292,
          "velocity": 0.5984251968503937,
          "duration": 0.27499999999997726
        },
        {
          "name": "F3",
          "midi": 53,
          "time": 215.41499999999292,
          "velocity": 0.5984251968503937,
          "duration": 0.27499999999997726
        },
        {
          "name": "F4",
          "midi": 65,
          "time": 215.4199999999929,
          "velocity": 0.5984251968503937,
          "duration": 0.5799999999999557
        },
        {
          "name": "F3",
          "midi": 53,
          "time": 215.7149999999929,
          "velocity": 0.5984251968503937,
          "duration": 0.27499999999997726
        }
      ],
      "controlChanges": {
        "7": [
          {
            "number": 7,
            "time": 0,
            "value": 1
          }
        ],
        "10": [
          {
            "number": 10,
            "time": 0,
            "value": 0.5039370078740157
          }
        ],
        "32": [
          {
            "number": 32,
            "time": 0,
            "value": 0.007874015748031496
          }
        ],
        "72": [
          {
            "number": 72,
            "time": 2.15,
            "value": 0.7401574803149606
          }
        ],
        "73": [
          {
            "number": 73,
            "time": 1.9699999999999998,
            "value": 0.4881889763779528
          }
        ],
        "74": [
          {
            "number": 74,
            "time": 2.1149999999999998,
            "value": 0.5826771653543307
          }
        ],
        "119": [
          {
            "number": 119,
            "time": 4.81,
            "value": 0.4251968503937008
          },
          {
            "number": 119,
            "time": 4.949999999999999,
            "value": 0.5748031496062992
          },
          {
            "number": 119,
            "time": 5.02,
            "value": 0
          },
          {
            "number": 119,
            "time": 5.109999999999999,
            "value": 0.968503937007874
          },
          {
            "number": 119,
            "time": 5.239999999999999,
            "value": 0.031496062992125984
          },
          {
            "number": 119,
            "time": 5.305,
            "value": 0
          },
          {
            "number": 119,
            "time": 5.404999999999999,
            "value": 0.49606299212598426
          },
          {
            "number": 119,
            "time": 5.539999999999999,
            "value": 0.5039370078740157
          },
          {
            "number": 119,
            "time": 5.609999999999999,
            "value": 0
          },
          {
            "number": 119,
            "time": 5.699999999999999,
            "value": 0.05511811023622047
          },
          {
            "number": 119,
            "time": 5.834999999999999,
            "value": 0.9448818897637795
          },
          {
            "number": 119,
            "time": 5.8999999999999995,
            "value": 0
          },
          {
            "number": 119,
            "time": 6.009999999999999,
            "value": 0.7480314960629921
          },
          {
            "number": 119,
            "time": 6.149999999999999,
            "value": 0.25196850393700787
          },
          {
            "number": 119,
            "time": 6.219999999999999,
            "value": 0
          },
          {
            "number": 119,
            "time": 6.294999999999999,
            "value": 0.3700787401574803
          },
          {
            "number": 119,
            "time": 6.434999999999999,
            "value": 0.6299212598425197
          },
          {
            "number": 119,
            "time": 6.504999999999999,
            "value": 0
          },
          {
            "number": 119,
            "time": 6.6099999999999985,
            "value": 0.8740157480314961
          },
          {
            "number": 119,
            "time": 6.749999999999998,
            "value": 0.12598425196850394
          },
          {
            "number": 119,
            "time": 6.8199999999999985,
            "value": 0
          },
          {
            "number": 119,
            "time": 6.899999999999999,
            "value": 0.47244094488188976
          },
          {
            "number": 119,
            "time": 7.034999999999998,
            "value": 0.5275590551181102
          },
          {
            "number": 119,
            "time": 7.099999999999999,
            "value": 0
          },
          {
            "number": 119,
            "time": 7.209999999999998,
            "value": 0.5905511811023622
          },
          {
            "number": 119,
            "time": 7.349999999999998,
            "value": 0.4094488188976378
          },
          {
            "number": 119,
            "time": 7.419999999999998,
            "value": 0
          },
          {
            "number": 119,
            "time": 7.514999999999998,
            "value": 0.9606299212598425
          },
          {
            "number": 119,
            "time": 7.644999999999998,
            "value": 0.03937007874015748
          },
          {
            "number": 119,
            "time": 7.709999999999998,
            "value": 0
          },
          {
            "number": 119,
            "time": 7.809999999999998,
            "value": 0.8031496062992126
          },
          {
            "number": 119,
            "time": 7.944999999999998,
            "value": 0.1968503937007874
          },
          {
            "number": 119,
            "time": 8.014999999999997,
            "value": 0
          },
          {
            "number": 119,
            "time": 8.104999999999997,
            "value": 0.7165354330708661
          },
          {
            "number": 119,
            "time": 8.234999999999998,
            "value": 0.28346456692913385
          },
          {
            "number": 119,
            "time": 8.299999999999997,
            "value": 0
          },
          {
            "number": 119,
            "time": 8.415000000000003,
            "value": 0.29133858267716534
          },
          {
            "number": 119,
            "time": 8.550000000000002,
            "value": 0.7086614173228346
          },
          {
            "number": 119,
            "time": 8.615000000000002,
            "value": 0
          },
          {
            "number": 119,
            "time": 8.700000000000003,
            "value": 0.937007874015748
          },
          {
            "number": 119,
            "time": 8.835000000000003,
            "value": 0.06299212598425197
          },
          {
            "number": 119,
            "time": 8.905000000000003,
            "value": 0
          },
          {
            "number": 119,
            "time": 9.015000000000008,
            "value": 0.44881889763779526
          },
          {
            "number": 119,
            "time": 9.155000000000008,
            "value": 0.5511811023622047
          },
          {
            "number": 119,
            "time": 9.225000000000009,
            "value": 0
          },
          {
            "number": 119,
            "time": 9.305000000000009,
            "value": 0.952755905511811
          },
          {
            "number": 119,
            "time": 9.43500000000001,
            "value": 0.047244094488188976
          },
          {
            "number": 119,
            "time": 9.500000000000009,
            "value": 0
          },
          {
            "number": 119,
            "time": 9.610000000000012,
            "value": 0.5039370078740157
          },
          {
            "number": 119,
            "time": 9.750000000000012,
            "value": 0.49606299212598426
          },
          {
            "number": 119,
            "time": 9.820000000000013,
            "value": 0
          },
          {
            "number": 119,
            "time": 9.910000000000013,
            "value": 0.07874015748031496
          },
          {
            "number": 119,
            "time": 10.045000000000012,
            "value": 0.9212598425196851
          },
          {
            "number": 119,
            "time": 10.110000000000012,
            "value": 0
          },
          {
            "number": 119,
            "time": 10.205000000000016,
            "value": 0.7480314960629921
          },
          {
            "number": 119,
            "time": 10.340000000000016,
            "value": 0.25196850393700787
          },
          {
            "number": 119,
            "time": 10.410000000000016,
            "value": 0
          },
          {
            "number": 119,
            "time": 10.500000000000016,
            "value": 0.6614173228346457
          },
          {
            "number": 119,
            "time": 10.630000000000017,
            "value": 0.33858267716535434
          },
          {
            "number": 119,
            "time": 10.695000000000016,
            "value": 0
          },
          {
            "number": 119,
            "time": 10.810000000000018,
            "value": 0.2992125984251969
          },
          {
            "number": 119,
            "time": 10.950000000000019,
            "value": 0.7007874015748031
          },
          {
            "number": 119,
            "time": 11.02000000000002,
            "value": 0
          },
          {
            "number": 119,
            "time": 11.10000000000002,
            "value": 0.8031496062992126
          },
          {
            "number": 119,
            "time": 11.24000000000002,
            "value": 0.1968503937007874
          },
          {
            "number": 119,
            "time": 11.31000000000002,
            "value": 0
          },
          {
            "number": 119,
            "time": 11.410000000000023,
            "value": 0.5118110236220472
          },
          {
            "number": 119,
            "time": 11.550000000000024,
            "value": 0.4881889763779528
          },
          {
            "number": 119,
            "time": 11.620000000000024,
            "value": 0
          },
          {
            "number": 119,
            "time": 11.700000000000024,
            "value": 0.06299212598425197
          },
          {
            "number": 119,
            "time": 11.830000000000025,
            "value": 0.937007874015748
          },
          {
            "number": 119,
            "time": 11.895000000000024,
            "value": 0
          },
          {
            "number": 119,
            "time": 12.020000000000032,
            "value": 0.6377952755905512
          },
          {
            "number": 119,
            "time": 12.160000000000032,
            "value": 0.36220472440944884
          },
          {
            "number": 119,
            "time": 12.230000000000032,
            "value": 0
          },
          {
            "number": 119,
            "time": 12.310000000000034,
            "value": 0.2204724409448819
          },
          {
            "number": 119,
            "time": 12.440000000000035,
            "value": 0.7795275590551181
          },
          {
            "number": 119,
            "time": 12.505000000000035,
            "value": 0
          },
          {
            "number": 119,
            "time": 12.62000000000004,
            "value": 0.6535433070866141
          },
          {
            "number": 119,
            "time": 12.76000000000004,
            "value": 0.3464566929133858
          },
          {
            "number": 119,
            "time": 12.830000000000041,
            "value": 0
          },
          {
            "number": 119,
            "time": 12.925000000000042,
            "value": 0.7401574803149606
          },
          {
            "number": 119,
            "time": 13.050000000000042,
            "value": 0.25984251968503935
          },
          {
            "number": 119,
            "time": 13.110000000000042,
            "value": 0
          },
          {
            "number": 119,
            "time": 13.220000000000047,
            "value": 0.4881889763779528
          },
          {
            "number": 119,
            "time": 13.355000000000047,
            "value": 0.5118110236220472
          },
          {
            "number": 119,
            "time": 13.425000000000047,
            "value": 0
          },
          {
            "number": 119,
            "time": 13.510000000000048,
            "value": 0.36220472440944884
          },
          {
            "number": 119,
            "time": 13.645000000000048,
            "value": 0.6377952755905512
          },
          {
            "number": 119,
            "time": 13.710000000000047,
            "value": 0
          },
          {
            "number": 119,
            "time": 13.82000000000005,
            "value": 0.30708661417322836
          },
          {
            "number": 119,
            "time": 13.95500000000005,
            "value": 0.6929133858267716
          },
          {
            "number": 119,
            "time": 14.02000000000005,
            "value": 0
          },
          {
            "number": 119,
            "time": 14.11000000000005,
            "value": 0.007874015748031496
          },
          {
            "number": 119,
            "time": 14.24000000000005,
            "value": 0.9921259842519685
          },
          {
            "number": 119,
            "time": 14.30500000000005,
            "value": 0
          },
          {
            "number": 119,
            "time": 14.415000000000054,
            "value": 0.7401574803149606
          },
          {
            "number": 119,
            "time": 14.555000000000055,
            "value": 0.25984251968503935
          },
          {
            "number": 119,
            "time": 14.625000000000055,
            "value": 0
          },
          {
            "number": 119,
            "time": 14.715000000000055,
            "value": 0.23622047244094488
          },
          {
            "number": 119,
            "time": 14.845000000000056,
            "value": 0.7637795275590551
          },
          {
            "number": 119,
            "time": 14.910000000000055,
            "value": 0
          },
          {
            "number": 119,
            "time": 15.010000000000055,
            "value": 0.2125984251968504
          },
          {
            "number": 119,
            "time": 15.145000000000055,
            "value": 0.7874015748031497
          },
          {
            "number": 119,
            "time": 15.215000000000055,
            "value": 0
          },
          {
            "number": 119,
            "time": 15.305000000000055,
            "value": 0.2125984251968504
          },
          {
            "number": 119,
            "time": 15.440000000000055,
            "value": 0.7874015748031497
          },
          {
            "number": 119,
            "time": 15.505000000000054,
            "value": 0
          },
          {
            "number": 119,
            "time": 15.615000000000057,
            "value": 0.9291338582677166
          },
          {
            "number": 119,
            "time": 15.755000000000058,
            "value": 0.07086614173228346
          },
          {
            "number": 119,
            "time": 15.825000000000058,
            "value": 0
          },
          {
            "number": 119,
            "time": 15.900000000000057,
            "value": 0.5196850393700787
          },
          {
            "number": 119,
            "time": 16.040000000000056,
            "value": 0.48031496062992124
          },
          {
            "number": 119,
            "time": 16.110000000000056,
            "value": 0
          },
          {
            "number": 119,
            "time": 16.215000000000053,
            "value": 0.08661417322834646
          },
          {
            "number": 119,
            "time": 16.355000000000054,
            "value": 0.9133858267716536
          },
          {
            "number": 119,
            "time": 16.425000000000054,
            "value": 0
          },
          {
            "number": 119,
            "time": 16.505000000000052,
            "value": 0.6377952755905512
          },
          {
            "number": 119,
            "time": 16.640000000000054,
            "value": 0.36220472440944884
          },
          {
            "number": 119,
            "time": 16.705000000000055,
            "value": 0
          },
          {
            "number": 119,
            "time": 16.815000000000058,
            "value": 0.14173228346456693
          },
          {
            "number": 119,
            "time": 16.95500000000006,
            "value": 0.8582677165354331
          },
          {
            "number": 119,
            "time": 17.02500000000006,
            "value": 0
          },
          {
            "number": 119,
            "time": 17.120000000000058,
            "value": 0.8110236220472441
          },
          {
            "number": 119,
            "time": 17.250000000000057,
            "value": 0.1889763779527559
          },
          {
            "number": 119,
            "time": 17.315000000000058,
            "value": 0
          },
          {
            "number": 119,
            "time": 17.415000000000056,
            "value": 0.4251968503937008
          },
          {
            "number": 119,
            "time": 17.550000000000058,
            "value": 0.5748031496062992
          },
          {
            "number": 119,
            "time": 17.620000000000058,
            "value": 0
          },
          {
            "number": 119,
            "time": 17.710000000000058,
            "value": 0.968503937007874
          },
          {
            "number": 119,
            "time": 17.840000000000057,
            "value": 0.031496062992125984
          },
          {
            "number": 119,
            "time": 17.905000000000058,
            "value": 0
          },
          {
            "number": 119,
            "time": 18.020000000000053,
            "value": 0.5275590551181102
          },
          {
            "number": 119,
            "time": 18.155000000000054,
            "value": 0.47244094488188976
          },
          {
            "number": 119,
            "time": 18.220000000000056,
            "value": 0
          },
          {
            "number": 119,
            "time": 18.305000000000057,
            "value": 0.2440944881889764
          },
          {
            "number": 119,
            "time": 18.440000000000058,
            "value": 0.7559055118110236
          },
          {
            "number": 119,
            "time": 18.51000000000006,
            "value": 0
          }
        ]
      },
      "id": 2,
      "instrumentNumber": 1,
      "instrument": "bright acoustic piano",
      "instrumentFamily": "piano",
      "channelNumber": 0,
      "isPercussion": false
    },
    {
      "startTime": 62.06999999999999,
      "duration": 225.58500000000018,
      "length": 167,
      "notes": [
        {
          "name": "F4",
          "midi": 65,
          "time": 62.06999999999999,
          "velocity": 0.36220472440944884,
          "duration": 5.009999999999977
        },
        {
          "name": "A#4",
          "midi": 70,
          "time": 62.074999999999996,
          "velocity": 0.36220472440944884,
          "duration": 5.019999999999975
        },
        {
          "name": "D4",
          "midi": 62,
          "time": 62.08,
          "velocity": 0.36220472440944884,
          "duration": 4.999999999999972
        },
        {
          "name": "C4",
          "midi": 60,
          "time": 67.17499999999997,
          "velocity": 0.36220472440944884,
          "duration": 4.785000000000011
        },
        {
          "name": "A4",
          "midi": 69,
          "time": 67.17499999999997,
          "velocity": 0.36220472440944884,
          "duration": 4.77500000000002
        },
        {
          "name": "F4",
          "midi": 65,
          "time": 67.18499999999997,
          "velocity": 0.36220472440944884,
          "duration": 4.77000000000001
        },
        {
          "name": "F4",
          "midi": 65,
          "time": 71.99999999999999,
          "velocity": 0.36220472440944884,
          "duration": 4.77000000000001
        },
        {
          "name": "D4",
          "midi": 62,
          "time": 72.00999999999999,
          "velocity": 0.36220472440944884,
          "duration": 4.784999999999997
        },
        {
          "name": "A#4",
          "midi": 70,
          "time": 72.00999999999999,
          "velocity": 0.36220472440944884,
          "duration": 4.75500000000001
        },
        {
          "name": "C4",
          "midi": 60,
          "time": 76.78999999999999,
          "velocity": 0.36220472440944884,
          "duration": 2.3800000000000097
        },
        {
          "name": "A4",
          "midi": 69,
          "time": 76.79999999999998,
          "velocity": 0.36220472440944884,
          "duration": 2.3650000000000233
        },
        {
          "name": "F4",
          "midi": 65,
          "time": 76.80999999999999,
          "velocity": 0.49606299212598426,
          "duration": 2.3600000000000136
        },
        {
          "name": "G4",
          "midi": 67,
          "time": 79.185,
          "velocity": 0.36220472440944884,
          "duration": 1.1999999999999886
        },
        {
          "name": "C4",
          "midi": 60,
          "time": 79.19,
          "velocity": 0.36220472440944884,
          "duration": 1.1999999999999886
        },
        {
          "name": "E4",
          "midi": 64,
          "time": 79.19,
          "velocity": 0.36220472440944884,
          "duration": 1.1999999999999886
        },
        {
          "name": "A3",
          "midi": 57,
          "time": 80.38499999999999,
          "velocity": 0.36220472440944884,
          "duration": 1.1999999999999886
        },
        {
          "name": "D4",
          "midi": 62,
          "time": 80.38499999999999,
          "velocity": 0.36220472440944884,
          "duration": 1.1999999999999886
        },
        {
          "name": "F4",
          "midi": 65,
          "time": 80.38499999999999,
          "velocity": 0.36220472440944884,
          "duration": 1.1999999999999886
        },
        {
          "name": "G4",
          "midi": 67,
          "time": 81.57999999999998,
          "velocity": 0.36220472440944884,
          "duration": 4.650000000000006
        },
        {
          "name": "G3",
          "midi": 55,
          "time": 81.59999999999998,
          "velocity": 0.36220472440944884,
          "duration": 4.650000000000006
        },
        {
          "name": "E4",
          "midi": 64,
          "time": 81.59999999999998,
          "velocity": 0.36220472440944884,
          "duration": 4.650000000000006
        },
        {
          "name": "C4",
          "midi": 60,
          "time": 81.60999999999999,
          "velocity": 0.36220472440944884,
          "duration": 4.650000000000006
        },
        {
          "name": "F4",
          "midi": 65,
          "time": 86.375,
          "velocity": 0.36220472440944884,
          "duration": 2.384999999999991
        },
        {
          "name": "A3",
          "midi": 57,
          "time": 86.38,
          "velocity": 0.36220472440944884,
          "duration": 2.384999999999991
        },
        {
          "name": "C4",
          "midi": 60,
          "time": 86.38,
          "velocity": 0.36220472440944884,
          "duration": 2.384999999999991
        },
        {
          "name": "F4",
          "midi": 65,
          "time": 88.77499999999999,
          "velocity": 0.36220472440944884,
          "duration": 2.384999999999991
        },
        {
          "name": "A#3",
          "midi": 58,
          "time": 88.77999999999999,
          "velocity": 0.36220472440944884,
          "duration": 2.384999999999991
        },
        {
          "name": "D4",
          "midi": 62,
          "time": 88.77999999999999,
          "velocity": 0.36220472440944884,
          "duration": 2.384999999999991
        },
        {
          "name": "F4",
          "midi": 65,
          "time": 91.17499999999998,
          "velocity": 0.36220472440944884,
          "duration": 4.784999999999997
        },
        {
          "name": "C4",
          "midi": 60,
          "time": 91.19499999999998,
          "velocity": 0.36220472440944884,
          "duration": 4.784999999999997
        },
        {
          "name": "A3",
          "midi": 57,
          "time": 91.19999999999997,
          "velocity": 0.36220472440944884,
          "duration": 4.784999999999997
        },
        {
          "name": "D4",
          "midi": 62,
          "time": 95.99499999999998,
          "velocity": 0.4094488188976378,
          "duration": 2.3100000000000023
        },
        {
          "name": "F4",
          "midi": 65,
          "time": 95.99999999999997,
          "velocity": 0.4094488188976378,
          "duration": 2.3100000000000023
        },
        {
          "name": "A3",
          "midi": 57,
          "time": 96.00499999999997,
          "velocity": 0.4094488188976378,
          "duration": 2.3100000000000023
        },
        {
          "name": "A#3",
          "midi": 58,
          "time": 98.37499999999997,
          "velocity": 0.4094488188976378,
          "duration": 2.3100000000000023
        },
        {
          "name": "D4",
          "midi": 62,
          "time": 98.37499999999997,
          "velocity": 0.4094488188976378,
          "duration": 2.3100000000000023
        },
        {
          "name": "F4",
          "midi": 65,
          "time": 98.37999999999997,
          "velocity": 0.4094488188976378,
          "duration": 2.3100000000000023
        },
        {
          "name": "C4",
          "midi": 60,
          "time": 100.76499999999997,
          "velocity": 0.4094488188976378,
          "duration": 4.75
        },
        {
          "name": "F4",
          "midi": 65,
          "time": 100.77499999999998,
          "velocity": 0.4094488188976378,
          "duration": 4.75
        },
        {
          "name": "C4",
          "midi": 60,
          "time": 105.56499999999998,
          "velocity": 0.3779527559055118,
          "duration": 2.3100000000000023
        },
        {
          "name": "F4",
          "midi": 65,
          "time": 105.57499999999999,
          "velocity": 0.3779527559055118,
          "duration": 2.3100000000000023
        },
        {
          "name": "A3",
          "midi": 57,
          "time": 105.59499999999998,
          "velocity": 0.3779527559055118,
          "duration": 2.3100000000000023
        },
        {
          "name": "A#3",
          "midi": 58,
          "time": 107.97999999999999,
          "velocity": 0.3700787401574803,
          "duration": 2.3100000000000023
        },
        {
          "name": "F4",
          "midi": 65,
          "time": 107.98499999999999,
          "velocity": 0.3700787401574803,
          "duration": 2.3100000000000023
        },
        {
          "name": "D4",
          "midi": 62,
          "time": 107.99499999999999,
          "velocity": 0.3700787401574803,
          "duration": 2.3100000000000023
        },
        {
          "name": "A3",
          "midi": 57,
          "time": 110.36,
          "velocity": 0.4330708661417323,
          "duration": 4.765000000000001
        },
        {
          "name": "C4",
          "midi": 60,
          "time": 110.41,
          "velocity": 0.4330708661417323,
          "duration": 4.765000000000001
        },
        {
          "name": "F4",
          "midi": 65,
          "time": 110.42,
          "velocity": 0.4330708661417323,
          "duration": 4.765000000000001
        },
        {
          "name": "C4",
          "midi": 60,
          "time": 115.19,
          "velocity": 0.3779527559055118,
          "duration": 2.3100000000000023
        },
        {
          "name": "F4",
          "midi": 65,
          "time": 115.2,
          "velocity": 0.3779527559055118,
          "duration": 2.3100000000000023
        },
        {
          "name": "A3",
          "midi": 57,
          "time": 115.22,
          "velocity": 0.3779527559055118,
          "duration": 2.3100000000000023
        },
        {
          "name": "A#3",
          "midi": 58,
          "time": 117.58,
          "velocity": 0.3700787401574803,
          "duration": 2.3100000000000023
        },
        {
          "name": "F4",
          "midi": 65,
          "time": 117.585,
          "velocity": 0.3700787401574803,
          "duration": 2.3100000000000023
        },
        {
          "name": "D4",
          "midi": 62,
          "time": 117.595,
          "velocity": 0.3700787401574803,
          "duration": 2.3100000000000023
        },
        {
          "name": "A3",
          "midi": 57,
          "time": 119.96000000000001,
          "velocity": 0.4330708661417323,
          "duration": 4.765000000000001
        },
        {
          "name": "C4",
          "midi": 60,
          "time": 120.01,
          "velocity": 0.4330708661417323,
          "duration": 4.765000000000001
        },
        {
          "name": "F4",
          "midi": 65,
          "time": 120.02000000000001,
          "velocity": 0.4330708661417323,
          "duration": 4.765000000000001
        },
        {
          "name": "A4",
          "midi": 69,
          "time": 124.79500000000002,
          "velocity": 0.3779527559055118,
          "duration": 2.384999999999991
        },
        {
          "name": "C4",
          "midi": 60,
          "time": 124.80000000000001,
          "velocity": 0.3779527559055118,
          "duration": 2.3100000000000023
        },
        {
          "name": "F4",
          "midi": 65,
          "time": 124.80000000000001,
          "velocity": 0.3779527559055118,
          "duration": 2.3100000000000023
        },
        {
          "name": "A3",
          "midi": 57,
          "time": 124.82000000000001,
          "velocity": 0.3779527559055118,
          "duration": 2.3100000000000023
        },
        {
          "name": "A#3",
          "midi": 58,
          "time": 127.18,
          "velocity": 0.3700787401574803,
          "duration": 2.3100000000000023
        },
        {
          "name": "F4",
          "midi": 65,
          "time": 127.185,
          "velocity": 0.3700787401574803,
          "duration": 2.3100000000000023
        },
        {
          "name": "C5",
          "midi": 72,
          "time": 127.19500000000001,
          "velocity": 0.3779527559055118,
          "duration": 2.309999999999988
        },
        {
          "name": "D4",
          "midi": 62,
          "time": 127.19500000000001,
          "velocity": 0.3700787401574803,
          "duration": 2.309999999999988
        },
        {
          "name": "A4",
          "midi": 69,
          "time": 127.20500000000001,
          "velocity": 0.3779527559055118,
          "duration": 2.309999999999974
        },
        {
          "name": "A3",
          "midi": 57,
          "time": 129.55999999999997,
          "velocity": 0.4330708661417323,
          "duration": 4.764999999999986
        },
        {
          "name": "A4",
          "midi": 69,
          "time": 129.59499999999997,
          "velocity": 0.4330708661417323,
          "duration": 4.764999999999986
        },
        {
          "name": "C4",
          "midi": 60,
          "time": 129.60999999999996,
          "velocity": 0.4330708661417323,
          "duration": 4.764999999999986
        },
        {
          "name": "F4",
          "midi": 65,
          "time": 129.61999999999995,
          "velocity": 0.4330708661417323,
          "duration": 4.764999999999986
        },
        {
          "name": "C4",
          "midi": 60,
          "time": 134.39999999999992,
          "velocity": 0.3779527559055118,
          "duration": 2.3100000000000023
        },
        {
          "name": "F4",
          "midi": 65,
          "time": 134.39999999999992,
          "velocity": 0.3779527559055118,
          "duration": 2.3100000000000023
        },
        {
          "name": "A3",
          "midi": 57,
          "time": 134.41999999999993,
          "velocity": 0.3779527559055118,
          "duration": 2.3100000000000023
        },
        {
          "name": "A#3",
          "midi": 58,
          "time": 136.77999999999994,
          "velocity": 0.3700787401574803,
          "duration": 2.309999999999974
        },
        {
          "name": "F4",
          "midi": 65,
          "time": 136.78499999999994,
          "velocity": 0.3700787401574803,
          "duration": 2.309999999999974
        },
        {
          "name": "C5",
          "midi": 72,
          "time": 136.79499999999993,
          "velocity": 0.3779527559055118,
          "duration": 2.309999999999974
        },
        {
          "name": "D4",
          "midi": 62,
          "time": 136.79499999999993,
          "velocity": 0.3700787401574803,
          "duration": 2.309999999999974
        },
        {
          "name": "A4",
          "midi": 69,
          "time": 136.80499999999992,
          "velocity": 0.3779527559055118,
          "duration": 2.309999999999974
        },
        {
          "name": "A3",
          "midi": 57,
          "time": 139.15999999999988,
          "velocity": 0.4330708661417323,
          "duration": 4.764999999999986
        },
        {
          "name": "A4",
          "midi": 69,
          "time": 139.19499999999988,
          "velocity": 0.4330708661417323,
          "duration": 4.764999999999986
        },
        {
          "name": "C4",
          "midi": 60,
          "time": 139.20999999999987,
          "velocity": 0.4330708661417323,
          "duration": 4.764999999999986
        },
        {
          "name": "F4",
          "midi": 65,
          "time": 139.21999999999986,
          "velocity": 0.4330708661417323,
          "duration": 4.764999999999986
        },
        {
          "name": "D4",
          "midi": 62,
          "time": 143.96999999999986,
          "velocity": 0.4330708661417323,
          "duration": 4.764999999999958
        },
        {
          "name": "A#4",
          "midi": 70,
          "time": 143.97499999999985,
          "velocity": 0.4330708661417323,
          "duration": 4.764999999999958
        },
        {
          "name": "A#3",
          "midi": 58,
          "time": 143.99999999999983,
          "velocity": 0.4330708661417323,
          "duration": 4.764999999999986
        },
        {
          "name": "F4",
          "midi": 65,
          "time": 144.00999999999982,
          "velocity": 0.4330708661417323,
          "duration": 4.764999999999986
        },
        {
          "name": "C4",
          "midi": 60,
          "time": 148.7999999999998,
          "velocity": 0.4330708661417323,
          "duration": 4.764999999999986
        },
        {
          "name": "F4",
          "midi": 65,
          "time": 148.7999999999998,
          "velocity": 0.4330708661417323,
          "duration": 4.764999999999986
        },
        {
          "name": "A4",
          "midi": 69,
          "time": 148.7999999999998,
          "velocity": 0.4330708661417323,
          "duration": 4.764999999999986
        },
        {
          "name": "A#3",
          "midi": 58,
          "time": 153.5549999999998,
          "velocity": 0.4330708661417323,
          "duration": 4.764999999999958
        },
        {
          "name": "D4",
          "midi": 62,
          "time": 153.5749999999998,
          "velocity": 0.4330708661417323,
          "duration": 4.764999999999986
        },
        {
          "name": "F4",
          "midi": 65,
          "time": 153.61999999999978,
          "velocity": 0.4330708661417323,
          "duration": 4.764999999999986
        },
        {
          "name": "C4",
          "midi": 60,
          "time": 158.39999999999975,
          "velocity": 0.4330708661417323,
          "duration": 4.764999999999986
        },
        {
          "name": "A4",
          "midi": 69,
          "time": 158.39999999999975,
          "velocity": 0.4330708661417323,
          "duration": 4.764999999999986
        },
        {
          "name": "F4",
          "midi": 65,
          "time": 158.39999999999975,
          "velocity": 0.4330708661417323,
          "duration": 4.764999999999986
        },
        {
          "name": "C4",
          "midi": 60,
          "time": 163.16999999999973,
          "velocity": 0.4330708661417323,
          "duration": 2.384999999999991
        },
        {
          "name": "E4",
          "midi": 64,
          "time": 163.16999999999973,
          "velocity": 0.4330708661417323,
          "duration": 2.3999999999999773
        },
        {
          "name": "C5",
          "midi": 72,
          "time": 163.18499999999972,
          "velocity": 0.4330708661417323,
          "duration": 2.4299999999999784
        },
        {
          "name": "G3",
          "midi": 55,
          "time": 163.18499999999972,
          "velocity": 0.4330708661417323,
          "duration": 2.384999999999991
        },
        {
          "name": "C4",
          "midi": 60,
          "time": 165.5799999999997,
          "velocity": 0.30708661417322836,
          "duration": 2.384999999999991
        },
        {
          "name": "G4",
          "midi": 67,
          "time": 165.5849999999997,
          "velocity": 0.30708661417322836,
          "duration": 2.384999999999991
        },
        {
          "name": "G3",
          "midi": 55,
          "time": 165.6049999999997,
          "velocity": 0.30708661417322836,
          "duration": 2.3849999999999625
        },
        {
          "name": "E4",
          "midi": 64,
          "time": 165.6199999999997,
          "velocity": 0.30708661417322836,
          "duration": 2.3149999999999977
        },
        {
          "name": "F4",
          "midi": 65,
          "time": 167.97999999999968,
          "velocity": 0.36220472440944884,
          "duration": 2.384999999999991
        },
        {
          "name": "A3",
          "midi": 57,
          "time": 167.98499999999967,
          "velocity": 0.36220472440944884,
          "duration": 2.384999999999991
        },
        {
          "name": "C4",
          "midi": 60,
          "time": 167.98499999999967,
          "velocity": 0.36220472440944884,
          "duration": 2.384999999999991
        },
        {
          "name": "F4",
          "midi": 65,
          "time": 170.37499999999966,
          "velocity": 0.36220472440944884,
          "duration": 2.384999999999991
        },
        {
          "name": "A#3",
          "midi": 58,
          "time": 170.37999999999965,
          "velocity": 0.36220472440944884,
          "duration": 2.384999999999991
        },
        {
          "name": "D4",
          "midi": 62,
          "time": 170.37999999999965,
          "velocity": 0.36220472440944884,
          "duration": 2.384999999999991
        },
        {
          "name": "F4",
          "midi": 65,
          "time": 172.77499999999964,
          "velocity": 0.36220472440944884,
          "duration": 4.784999999999997
        },
        {
          "name": "C4",
          "midi": 60,
          "time": 172.79499999999965,
          "velocity": 0.36220472440944884,
          "duration": 4.784999999999997
        },
        {
          "name": "A3",
          "midi": 57,
          "time": 172.79999999999964,
          "velocity": 0.36220472440944884,
          "duration": 4.784999999999997
        },
        {
          "name": "F4",
          "midi": 65,
          "time": 177.57999999999964,
          "velocity": 0.4094488188976378,
          "duration": 2.3100000000000023
        },
        {
          "name": "A3",
          "midi": 57,
          "time": 177.60499999999965,
          "velocity": 0.4094488188976378,
          "duration": 2.3100000000000023
        },
        {
          "name": "D4",
          "midi": 62,
          "time": 177.63499999999965,
          "velocity": 0.4094488188976378,
          "duration": 2.3100000000000023
        },
        {
          "name": "A#3",
          "midi": 58,
          "time": 179.97499999999965,
          "velocity": 0.4094488188976378,
          "duration": 2.3100000000000023
        },
        {
          "name": "D4",
          "midi": 62,
          "time": 179.97499999999965,
          "velocity": 0.4094488188976378,
          "duration": 2.3100000000000023
        },
        {
          "name": "F4",
          "midi": 65,
          "time": 179.97999999999965,
          "velocity": 0.4094488188976378,
          "duration": 2.3100000000000023
        },
        {
          "name": "F4",
          "midi": 65,
          "time": 182.38499999999965,
          "velocity": 0.36220472440944884,
          "duration": 4.784999999999997
        },
        {
          "name": "A3",
          "midi": 57,
          "time": 182.38499999999965,
          "velocity": 0.36220472440944884,
          "duration": 4.784999999999997
        },
        {
          "name": "C4",
          "midi": 60,
          "time": 182.38999999999965,
          "velocity": 0.36220472440944884,
          "duration": 4.784999999999997
        },
        {
          "name": "F4",
          "midi": 65,
          "time": 187.19999999999965,
          "velocity": 0.4094488188976378,
          "duration": 2.3100000000000023
        },
        {
          "name": "A3",
          "midi": 57,
          "time": 187.20499999999964,
          "velocity": 0.4094488188976378,
          "duration": 2.3100000000000023
        },
        {
          "name": "D4",
          "midi": 62,
          "time": 187.23499999999964,
          "velocity": 0.4094488188976378,
          "duration": 2.3100000000000023
        },
        {
          "name": "A#3",
          "midi": 58,
          "time": 189.57499999999965,
          "velocity": 0.4094488188976378,
          "duration": 2.3100000000000023
        },
        {
          "name": "D4",
          "midi": 62,
          "time": 189.57499999999965,
          "velocity": 0.4094488188976378,
          "duration": 2.3100000000000023
        },
        {
          "name": "F4",
          "midi": 65,
          "time": 189.57999999999964,
          "velocity": 0.4094488188976378,
          "duration": 2.3100000000000023
        },
        {
          "name": "F5",
          "midi": 77,
          "time": 191.89999999999964,
          "velocity": 0.44881889763779526,
          "duration": 1.7849999999999966
        },
        {
          "name": "F4",
          "midi": 65,
          "time": 191.98499999999964,
          "velocity": 0.36220472440944884,
          "duration": 4.784999999999997
        },
        {
          "name": "A3",
          "midi": 57,
          "time": 191.98499999999964,
          "velocity": 0.36220472440944884,
          "duration": 4.784999999999997
        },
        {
          "name": "C4",
          "midi": 60,
          "time": 191.98999999999964,
          "velocity": 0.36220472440944884,
          "duration": 4.784999999999997
        },
        {
          "name": "A5",
          "midi": 81,
          "time": 196.79999999999964,
          "velocity": 0.48031496062992124,
          "duration": 4.460000000000008
        },
        {
          "name": "F4",
          "midi": 65,
          "time": 196.79999999999964,
          "velocity": 0.4094488188976378,
          "duration": 2.3100000000000023
        },
        {
          "name": "A3",
          "midi": 57,
          "time": 196.80499999999964,
          "velocity": 0.4094488188976378,
          "duration": 2.3100000000000023
        },
        {
          "name": "D4",
          "midi": 62,
          "time": 196.83499999999964,
          "velocity": 0.4094488188976378,
          "duration": 2.3100000000000023
        },
        {
          "name": "A#3",
          "midi": 58,
          "time": 199.17499999999964,
          "velocity": 0.4094488188976378,
          "duration": 2.3100000000000023
        },
        {
          "name": "D4",
          "midi": 62,
          "time": 199.17499999999964,
          "velocity": 0.4094488188976378,
          "duration": 2.3100000000000023
        },
        {
          "name": "F4",
          "midi": 65,
          "time": 199.17999999999964,
          "velocity": 0.4094488188976378,
          "duration": 2.3100000000000023
        },
        {
          "name": "F5",
          "midi": 77,
          "time": 201.49999999999963,
          "velocity": 0.44881889763779526,
          "duration": 1.7849999999999966
        },
        {
          "name": "F4",
          "midi": 65,
          "time": 201.58499999999964,
          "velocity": 0.36220472440944884,
          "duration": 4.784999999999997
        },
        {
          "name": "A3",
          "midi": 57,
          "time": 201.58499999999964,
          "velocity": 0.36220472440944884,
          "duration": 4.784999999999997
        },
        {
          "name": "C4",
          "midi": 60,
          "time": 201.58999999999963,
          "velocity": 0.36220472440944884,
          "duration": 4.784999999999997
        },
        {
          "name": "A5",
          "midi": 81,
          "time": 203.98999999999964,
          "velocity": 0.44881889763779526,
          "duration": 2.2299999999999898
        },
        {
          "name": "A#5",
          "midi": 82,
          "time": 206.20999999999964,
          "velocity": 0.44881889763779526,
          "duration": 0.19499999999999318
        },
        {
          "name": "C6",
          "midi": 84,
          "time": 206.39999999999964,
          "velocity": 0.48031496062992124,
          "duration": 4.460000000000008
        },
        {
          "name": "F4",
          "midi": 65,
          "time": 206.39999999999964,
          "velocity": 0.4094488188976378,
          "duration": 2.3100000000000023
        },
        {
          "name": "A3",
          "midi": 57,
          "time": 206.40499999999963,
          "velocity": 0.4094488188976378,
          "duration": 2.3100000000000023
        },
        {
          "name": "D4",
          "midi": 62,
          "time": 206.43499999999963,
          "velocity": 0.4094488188976378,
          "duration": 2.3100000000000023
        },
        {
          "name": "A#3",
          "midi": 58,
          "time": 208.77499999999964,
          "velocity": 0.4094488188976378,
          "duration": 2.3100000000000023
        },
        {
          "name": "D4",
          "midi": 62,
          "time": 208.77499999999964,
          "velocity": 0.4094488188976378,
          "duration": 2.3100000000000023
        },
        {
          "name": "F4",
          "midi": 65,
          "time": 208.77999999999963,
          "velocity": 0.4094488188976378,
          "duration": 2.3100000000000023
        },
        {
          "name": "F5",
          "midi": 77,
          "time": 211.09999999999962,
          "velocity": 0.44881889763779526,
          "duration": 1.7849999999999966
        },
        {
          "name": "F4",
          "midi": 65,
          "time": 211.18499999999963,
          "velocity": 0.36220472440944884,
          "duration": 4.784999999999997
        },
        {
          "name": "A3",
          "midi": 57,
          "time": 211.18499999999963,
          "velocity": 0.36220472440944884,
          "duration": 4.784999999999997
        },
        {
          "name": "C4",
          "midi": 60,
          "time": 211.18999999999963,
          "velocity": 0.36220472440944884,
          "duration": 4.784999999999997
        },
        {
          "name": "C5",
          "midi": 72,
          "time": 215.99999999999963,
          "velocity": 0.48031496062992124,
          "duration": 2.319999999999993
        },
        {
          "name": "F4",
          "midi": 65,
          "time": 215.99999999999963,
          "velocity": 0.4094488188976378,
          "duration": 2.3100000000000023
        },
        {
          "name": "A3",
          "midi": 57,
          "time": 216.00499999999963,
          "velocity": 0.4094488188976378,
          "duration": 2.3100000000000023
        },
        {
          "name": "D4",
          "midi": 62,
          "time": 216.03499999999963,
          "velocity": 0.4094488188976378,
          "duration": 2.3100000000000023
        },
        {
          "name": "A#3",
          "midi": 58,
          "time": 218.37499999999963,
          "velocity": 0.4094488188976378,
          "duration": 2.3100000000000023
        },
        {
          "name": "D4",
          "midi": 62,
          "time": 218.37499999999963,
          "velocity": 0.4094488188976378,
          "duration": 2.3100000000000023
        },
        {
          "name": "A#4",
          "midi": 70,
          "time": 218.37999999999963,
          "velocity": 0.4094488188976378,
          "duration": 2.3100000000000023
        },
        {
          "name": "F4",
          "midi": 65,
          "time": 218.37999999999963,
          "velocity": 0.4094488188976378,
          "duration": 2.3100000000000023
        },
        {
          "name": "F4",
          "midi": 65,
          "time": 220.78499999999963,
          "velocity": 0.4251968503937008,
          "duration": 4.785000000000565
        },
        {
          "name": "A3",
          "midi": 57,
          "time": 220.78499999999963,
          "velocity": 0.36220472440944884,
          "duration": 4.785000000000565
        },
        {
          "name": "C4",
          "midi": 60,
          "time": 220.78999999999962,
          "velocity": 0.36220472440944884,
          "duration": 4.785000000000565
        },
        {
          "name": "A4",
          "midi": 69,
          "time": 220.7999999999996,
          "velocity": 0.4251968503937008,
          "duration": 4.785000000000565
        }
      ],
      "controlChanges": {
        "7": [
          {
            "number": 7,
            "time": 0,
            "value": 1
          }
        ],
        "10": [
          {
            "number": 10,
            "time": 0,
            "value": 0.5039370078740157
          }
        ],
        "11": [
          {
            "number": 11,
            "time": 59.62,
            "value": 0.08661417322834646
          },
          {
            "number": 11,
            "time": 59.644999999999996,
            "value": 0.10236220472440945
          },
          {
            "number": 11,
            "time": 59.654999999999994,
            "value": 0.16535433070866143
          },
          {
            "number": 11,
            "time": 62.08,
            "value": 0.2283464566929134
          },
          {
            "number": 11,
            "time": 62.089999999999996,
            "value": 0.2755905511811024
          },
          {
            "number": 11,
            "time": 62.114999999999995,
            "value": 0.3228346456692913
          },
          {
            "number": 11,
            "time": 62.13999999999999,
            "value": 0.3858267716535433
          },
          {
            "number": 11,
            "time": 62.14999999999999,
            "value": 0.44881889763779526
          },
          {
            "number": 11,
            "time": 62.17499999999999,
            "value": 0.5118110236220472
          },
          {
            "number": 11,
            "time": 62.19999999999999,
            "value": 0.5905511811023622
          },
          {
            "number": 11,
            "time": 62.26999999999999,
            "value": 0.6377952755905512
          },
          {
            "number": 11,
            "time": 62.28999999999999,
            "value": 0.6850393700787402
          },
          {
            "number": 11,
            "time": 62.31499999999999,
            "value": 0.7007874015748031
          },
          {
            "number": 11,
            "time": 62.32499999999999,
            "value": 0.7480314960629921
          },
          {
            "number": 11,
            "time": 62.34999999999999,
            "value": 0.7637795275590551
          },
          {
            "number": 11,
            "time": 62.374999999999986,
            "value": 0.7795275590551181
          },
          {
            "number": 11,
            "time": 62.399999999999984,
            "value": 0.8267716535433071
          },
          {
            "number": 11,
            "time": 62.41999999999999,
            "value": 0.84251968503937
          },
          {
            "number": 11,
            "time": 62.444999999999986,
            "value": 0.8503937007874016
          },
          {
            "number": 11,
            "time": 62.469999999999985,
            "value": 0.8661417322834646
          },
          {
            "number": 11,
            "time": 62.47999999999998,
            "value": 0.8818897637795275
          },
          {
            "number": 11,
            "time": 62.54999999999998,
            "value": 0.8976377952755905
          },
          {
            "number": 11,
            "time": 62.55999999999998,
            "value": 0.905511811023622
          },
          {
            "number": 11,
            "time": 62.58499999999998,
            "value": 0.9133858267716536
          },
          {
            "number": 11,
            "time": 62.59999999999998,
            "value": 0.9212598425196851
          },
          {
            "number": 11,
            "time": 62.60999999999998,
            "value": 0.9291338582677166
          },
          {
            "number": 11,
            "time": 62.63499999999998,
            "value": 0.937007874015748
          },
          {
            "number": 11,
            "time": 62.65499999999998,
            "value": 0.9448818897637795
          },
          {
            "number": 11,
            "time": 62.67999999999998,
            "value": 0.952755905511811
          },
          {
            "number": 11,
            "time": 62.689999999999976,
            "value": 0.9606299212598425
          },
          {
            "number": 11,
            "time": 62.70499999999998,
            "value": 0.968503937007874
          },
          {
            "number": 11,
            "time": 62.77499999999998,
            "value": 0.9763779527559056
          },
          {
            "number": 11,
            "time": 62.799999999999976,
            "value": 0.984251968503937
          },
          {
            "number": 11,
            "time": 62.809999999999974,
            "value": 0.9921259842519685
          },
          {
            "number": 11,
            "time": 62.83499999999997,
            "value": 1
          },
          {
            "number": 11,
            "time": 222.2749999999996,
            "value": 1
          },
          {
            "number": 11,
            "time": 222.3049999999996,
            "value": 0.9921259842519685
          },
          {
            "number": 11,
            "time": 222.32999999999961,
            "value": 0.984251968503937
          },
          {
            "number": 11,
            "time": 222.35999999999962,
            "value": 0.9763779527559056
          },
          {
            "number": 11,
            "time": 222.38499999999962,
            "value": 0.968503937007874
          },
          {
            "number": 11,
            "time": 222.40999999999963,
            "value": 0.9606299212598425
          },
          {
            "number": 11,
            "time": 222.43999999999963,
            "value": 0.952755905511811
          },
          {
            "number": 11,
            "time": 222.45999999999964,
            "value": 0.9448818897637795
          },
          {
            "number": 11,
            "time": 222.48499999999964,
            "value": 0.937007874015748
          },
          {
            "number": 11,
            "time": 222.51499999999965,
            "value": 0.9291338582677166
          },
          {
            "number": 11,
            "time": 222.53999999999965,
            "value": 0.9212598425196851
          },
          {
            "number": 11,
            "time": 222.56499999999966,
            "value": 0.9133858267716536
          },
          {
            "number": 11,
            "time": 222.59499999999966,
            "value": 0.905511811023622
          },
          {
            "number": 11,
            "time": 222.61999999999966,
            "value": 0.8976377952755905
          },
          {
            "number": 11,
            "time": 222.63999999999967,
            "value": 0.889763779527559
          },
          {
            "number": 11,
            "time": 222.66999999999967,
            "value": 0.8818897637795275
          },
          {
            "number": 11,
            "time": 222.69499999999968,
            "value": 0.8740157480314961
          },
          {
            "number": 11,
            "time": 222.7199999999997,
            "value": 0.8661417322834646
          },
          {
            "number": 11,
            "time": 222.7499999999997,
            "value": 0.8582677165354331
          },
          {
            "number": 11,
            "time": 222.7749999999997,
            "value": 0.8503937007874016
          },
          {
            "number": 11,
            "time": 222.7999999999997,
            "value": 0.84251968503937
          },
          {
            "number": 11,
            "time": 222.8299999999997,
            "value": 0.8346456692913385
          },
          {
            "number": 11,
            "time": 222.8499999999997,
            "value": 0.8267716535433071
          },
          {
            "number": 11,
            "time": 222.87499999999972,
            "value": 0.8188976377952756
          },
          {
            "number": 11,
            "time": 222.90499999999972,
            "value": 0.8110236220472441
          },
          {
            "number": 11,
            "time": 222.92999999999972,
            "value": 0.8031496062992126
          },
          {
            "number": 11,
            "time": 222.95499999999973,
            "value": 0.7952755905511811
          },
          {
            "number": 11,
            "time": 222.98499999999973,
            "value": 0.7874015748031497
          },
          {
            "number": 11,
            "time": 223.00999999999974,
            "value": 0.7795275590551181
          },
          {
            "number": 11,
            "time": 223.02999999999975,
            "value": 0.7716535433070866
          },
          {
            "number": 11,
            "time": 223.05999999999975,
            "value": 0.7637795275590551
          },
          {
            "number": 11,
            "time": 223.08499999999975,
            "value": 0.7559055118110236
          },
          {
            "number": 11,
            "time": 223.10999999999976,
            "value": 0.7480314960629921
          },
          {
            "number": 11,
            "time": 223.13999999999976,
            "value": 0.7401574803149606
          },
          {
            "number": 11,
            "time": 223.16499999999976,
            "value": 0.7322834645669292
          },
          {
            "number": 11,
            "time": 223.18999999999977,
            "value": 0.7244094488188977
          },
          {
            "number": 11,
            "time": 223.21999999999977,
            "value": 0.7165354330708661
          },
          {
            "number": 11,
            "time": 223.23999999999978,
            "value": 0.7086614173228346
          },
          {
            "number": 11,
            "time": 223.2649999999998,
            "value": 0.7007874015748031
          },
          {
            "number": 11,
            "time": 223.2949999999998,
            "value": 0.6929133858267716
          },
          {
            "number": 11,
            "time": 223.3199999999998,
            "value": 0.6850393700787402
          },
          {
            "number": 11,
            "time": 223.3449999999998,
            "value": 0.6771653543307087
          },
          {
            "number": 11,
            "time": 223.3749999999998,
            "value": 0.6692913385826772
          },
          {
            "number": 11,
            "time": 223.3999999999998,
            "value": 0.6614173228346457
          },
          {
            "number": 11,
            "time": 223.41999999999982,
            "value": 0.6535433070866141
          },
          {
            "number": 11,
            "time": 223.44999999999982,
            "value": 0.6456692913385826
          },
          {
            "number": 11,
            "time": 223.47499999999982,
            "value": 0.6377952755905512
          },
          {
            "number": 11,
            "time": 223.49999999999983,
            "value": 0.6299212598425197
          },
          {
            "number": 11,
            "time": 223.52999999999983,
            "value": 0.6220472440944882
          },
          {
            "number": 11,
            "time": 223.55499999999984,
            "value": 0.6141732283464567
          },
          {
            "number": 11,
            "time": 223.57999999999984,
            "value": 0.6062992125984252
          },
          {
            "number": 11,
            "time": 223.60999999999984,
            "value": 0.5984251968503937
          },
          {
            "number": 11,
            "time": 223.62999999999985,
            "value": 0.5905511811023622
          },
          {
            "number": 11,
            "time": 223.65499999999986,
            "value": 0.5826771653543307
          },
          {
            "number": 11,
            "time": 223.68499999999986,
            "value": 0.5748031496062992
          },
          {
            "number": 11,
            "time": 223.70999999999987,
            "value": 0.5669291338582677
          },
          {
            "number": 11,
            "time": 223.73499999999987,
            "value": 0.5590551181102362
          },
          {
            "number": 11,
            "time": 223.76499999999987,
            "value": 0.5511811023622047
          },
          {
            "number": 11,
            "time": 223.78999999999988,
            "value": 0.5433070866141733
          },
          {
            "number": 11,
            "time": 223.8099999999999,
            "value": 0.5354330708661418
          },
          {
            "number": 11,
            "time": 223.8399999999999,
            "value": 0.5275590551181102
          },
          {
            "number": 11,
            "time": 223.8649999999999,
            "value": 0.5196850393700787
          },
          {
            "number": 11,
            "time": 223.8899999999999,
            "value": 0.5118110236220472
          },
          {
            "number": 11,
            "time": 223.9199999999999,
            "value": 0.5039370078740157
          },
          {
            "number": 11,
            "time": 223.9449999999999,
            "value": 0.49606299212598426
          },
          {
            "number": 11,
            "time": 223.9749999999999,
            "value": 0.4881889763779528
          },
          {
            "number": 11,
            "time": 223.99999999999991,
            "value": 0.48031496062992124
          },
          {
            "number": 11,
            "time": 224.01999999999992,
            "value": 0.47244094488188976
          },
          {
            "number": 11,
            "time": 224.04999999999993,
            "value": 0.4645669291338583
          },
          {
            "number": 11,
            "time": 224.07499999999993,
            "value": 0.4566929133858268
          },
          {
            "number": 11,
            "time": 224.09999999999994,
            "value": 0.44881889763779526
          },
          {
            "number": 11,
            "time": 224.12999999999994,
            "value": 0.4409448818897638
          },
          {
            "number": 11,
            "time": 224.15499999999994,
            "value": 0.4330708661417323
          },
          {
            "number": 11,
            "time": 224.17999999999995,
            "value": 0.4251968503937008
          },
          {
            "number": 11,
            "time": 224.20999999999995,
            "value": 0.41732283464566927
          },
          {
            "number": 11,
            "time": 224.22999999999996,
            "value": 0.4094488188976378
          },
          {
            "number": 11,
            "time": 224.25499999999997,
            "value": 0.4015748031496063
          },
          {
            "number": 11,
            "time": 224.28499999999997,
            "value": 0.3937007874015748
          },
          {
            "number": 11,
            "time": 224.30999999999997,
            "value": 0.3858267716535433
          },
          {
            "number": 11,
            "time": 224.33499999999998,
            "value": 0.3779527559055118
          },
          {
            "number": 11,
            "time": 224.36499999999998,
            "value": 0.3700787401574803
          },
          {
            "number": 11,
            "time": 224.39,
            "value": 0.36220472440944884
          },
          {
            "number": 11,
            "time": 224.41,
            "value": 0.3543307086614173
          },
          {
            "number": 11,
            "time": 224.44,
            "value": 0.3464566929133858
          },
          {
            "number": 11,
            "time": 224.465,
            "value": 0.33858267716535434
          },
          {
            "number": 11,
            "time": 224.49,
            "value": 0.33070866141732286
          },
          {
            "number": 11,
            "time": 224.52,
            "value": 0.3228346456692913
          },
          {
            "number": 11,
            "time": 224.54500000000002,
            "value": 0.31496062992125984
          },
          {
            "number": 11,
            "time": 224.57000000000002,
            "value": 0.30708661417322836
          },
          {
            "number": 11,
            "time": 224.60000000000002,
            "value": 0.2992125984251969
          },
          {
            "number": 11,
            "time": 224.62000000000003,
            "value": 0.29133858267716534
          },
          {
            "number": 11,
            "time": 224.64500000000004,
            "value": 0.28346456692913385
          },
          {
            "number": 11,
            "time": 224.67500000000004,
            "value": 0.2755905511811024
          },
          {
            "number": 11,
            "time": 224.70000000000005,
            "value": 0.2677165354330709
          },
          {
            "number": 11,
            "time": 224.72500000000005,
            "value": 0.25984251968503935
          },
          {
            "number": 11,
            "time": 224.75500000000005,
            "value": 0.25196850393700787
          },
          {
            "number": 11,
            "time": 224.78000000000006,
            "value": 0.2440944881889764
          },
          {
            "number": 11,
            "time": 224.80000000000007,
            "value": 0.23622047244094488
          },
          {
            "number": 11,
            "time": 224.83000000000007,
            "value": 0.2283464566929134
          },
          {
            "number": 11,
            "time": 224.85500000000008,
            "value": 0.2204724409448819
          },
          {
            "number": 11,
            "time": 224.88000000000008,
            "value": 0.2125984251968504
          },
          {
            "number": 11,
            "time": 224.91000000000008,
            "value": 0.2047244094488189
          },
          {
            "number": 11,
            "time": 224.9350000000001,
            "value": 0.1968503937007874
          },
          {
            "number": 11,
            "time": 224.9600000000001,
            "value": 0.1889763779527559
          },
          {
            "number": 11,
            "time": 224.9900000000001,
            "value": 0.18110236220472442
          },
          {
            "number": 11,
            "time": 225.0100000000001,
            "value": 0.1732283464566929
          },
          {
            "number": 11,
            "time": 225.0350000000001,
            "value": 0.16535433070866143
          },
          {
            "number": 11,
            "time": 225.0650000000001,
            "value": 0.15748031496062992
          },
          {
            "number": 11,
            "time": 225.09000000000012,
            "value": 0.14960629921259844
          },
          {
            "number": 11,
            "time": 225.11500000000012,
            "value": 0.14173228346456693
          },
          {
            "number": 11,
            "time": 225.14500000000012,
            "value": 0.13385826771653545
          },
          {
            "number": 11,
            "time": 225.17000000000013,
            "value": 0.12598425196850394
          },
          {
            "number": 11,
            "time": 225.19000000000014,
            "value": 0.11811023622047244
          },
          {
            "number": 11,
            "time": 225.22000000000014,
            "value": 0.11023622047244094
          },
          {
            "number": 11,
            "time": 225.24500000000015,
            "value": 0.10236220472440945
          },
          {
            "number": 11,
            "time": 225.27000000000015,
            "value": 0.09448818897637795
          },
          {
            "number": 11,
            "time": 225.30000000000015,
            "value": 0.08661417322834646
          },
          {
            "number": 11,
            "time": 225.32500000000016,
            "value": 0.07874015748031496
          },
          {
            "number": 11,
            "time": 225.35000000000016,
            "value": 0.07086614173228346
          },
          {
            "number": 11,
            "time": 225.38000000000017,
            "value": 0.06299212598425197
          },
          {
            "number": 11,
            "time": 225.40000000000018,
            "value": 0.05511811023622047
          },
          {
            "number": 11,
            "time": 225.42500000000018,
            "value": 0.047244094488188976
          },
          {
            "number": 11,
            "time": 225.45500000000018,
            "value": 0.03937007874015748
          },
          {
            "number": 11,
            "time": 225.4800000000002,
            "value": 0.031496062992125984
          },
          {
            "number": 11,
            "time": 225.5050000000002,
            "value": 0.023622047244094488
          },
          {
            "number": 11,
            "time": 225.5350000000002,
            "value": 0.015748031496062992
          },
          {
            "number": 11,
            "time": 225.5600000000002,
            "value": 0.007874015748031496
          },
          {
            "number": 11,
            "time": 225.58000000000018,
            "value": 0
          }
        ],
        "32": [
          {
            "number": 32,
            "time": 0,
            "value": 0
          }
        ],
        "72": [
          {
            "number": 72,
            "time": 59.285,
            "value": 0.7795275590551181
          }
        ],
        "73": [
          {
            "number": 73,
            "time": 59.445,
            "value": 0.5275590551181102
          }
        ],
        "93": [
          {
            "number": 93,
            "time": 59.4,
            "value": 0.3858267716535433
          }
        ],
        "119": [
          {
            "number": 119,
            "time": 62.83499999999997,
            "value": 1
          },
          {
            "number": 119,
            "time": 63.32999999999997,
            "value": 0
          },
          {
            "number": 119,
            "time": 63.57999999999997,
            "value": 0
          },
          {
            "number": 119,
            "time": 63.82999999999997,
            "value": 0.5354330708661418
          },
          {
            "number": 119,
            "time": 64.32499999999997,
            "value": 0.4645669291338583
          },
          {
            "number": 119,
            "time": 64.57499999999997,
            "value": 0
          },
          {
            "number": 119,
            "time": 64.82499999999997,
            "value": 0.06299212598425197
          },
          {
            "number": 119,
            "time": 65.31999999999998,
            "value": 0.937007874015748
          },
          {
            "number": 119,
            "time": 65.56999999999998,
            "value": 0
          },
          {
            "number": 119,
            "time": 65.81999999999998,
            "value": 0.6299212598425197
          },
          {
            "number": 119,
            "time": 66.31499999999998,
            "value": 0.3700787401574803
          },
          {
            "number": 119,
            "time": 66.56499999999998,
            "value": 0
          },
          {
            "number": 119,
            "time": 66.81499999999998,
            "value": 0.31496062992125984
          },
          {
            "number": 119,
            "time": 66.94499999999998,
            "value": 0.6850393700787402
          },
          {
            "number": 119,
            "time": 67.00999999999998,
            "value": 0
          },
          {
            "number": 119,
            "time": 67.09499999999997,
            "value": 0.9448818897637795
          },
          {
            "number": 119,
            "time": 67.13499999999998,
            "value": 0.05511811023622047
          },
          {
            "number": 119,
            "time": 67.15499999999997,
            "value": 0
          },
          {
            "number": 119,
            "time": 67.18499999999997,
            "value": 0.4409448818897638
          },
          {
            "number": 119,
            "time": 67.67999999999998,
            "value": 0.5590551181102362
          },
          {
            "number": 119,
            "time": 67.92999999999998,
            "value": 0
          },
          {
            "number": 119,
            "time": 68.17999999999998,
            "value": 0.03937007874015748
          },
          {
            "number": 119,
            "time": 68.67499999999998,
            "value": 0.9606299212598425
          },
          {
            "number": 119,
            "time": 68.92499999999998,
            "value": 0
          },
          {
            "number": 119,
            "time": 69.17499999999998,
            "value": 0.15748031496062992
          },
          {
            "number": 119,
            "time": 69.66999999999999,
            "value": 0.84251968503937
          },
          {
            "number": 119,
            "time": 69.91999999999999,
            "value": 0
          },
          {
            "number": 119,
            "time": 70.16999999999999,
            "value": 0.5275590551181102
          },
          {
            "number": 119,
            "time": 70.66499999999999,
            "value": 0.47244094488188976
          },
          {
            "number": 119,
            "time": 70.91499999999999,
            "value": 0
          },
          {
            "number": 119,
            "time": 71.16499999999999,
            "value": 0.3700787401574803
          },
          {
            "number": 119,
            "time": 71.55499999999999,
            "value": 0.6299212598425197
          },
          {
            "number": 119,
            "time": 71.74999999999999,
            "value": 0
          },
          {
            "number": 119,
            "time": 72.00999999999999,
            "value": 0.28346456692913385
          },
          {
            "number": 119,
            "time": 72.505,
            "value": 0.7165354330708661
          },
          {
            "number": 119,
            "time": 72.755,
            "value": 0
          },
          {
            "number": 119,
            "time": 73.005,
            "value": 0.8661417322834646
          },
          {
            "number": 119,
            "time": 73.5,
            "value": 0.13385826771653545
          },
          {
            "number": 119,
            "time": 73.75,
            "value": 0
          },
          {
            "number": 119,
            "time": 74,
            "value": 0.5039370078740157
          },
          {
            "number": 119,
            "time": 74.495,
            "value": 0.49606299212598426
          },
          {
            "number": 119,
            "time": 74.745,
            "value": 0
          },
          {
            "number": 119,
            "time": 74.995,
            "value": 0.015748031496062992
          },
          {
            "number": 119,
            "time": 75.49000000000001,
            "value": 0.984251968503937
          },
          {
            "number": 119,
            "time": 75.74000000000001,
            "value": 0
          },
          {
            "number": 119,
            "time": 75.99000000000001,
            "value": 0.5196850393700787
          },
          {
            "number": 119,
            "time": 76.37500000000001,
            "value": 0.48031496062992124
          },
          {
            "number": 119,
            "time": 76.57000000000001,
            "value": 0
          },
          {
            "number": 119,
            "time": 76.80999999999999,
            "value": 0.07086614173228346
          },
          {
            "number": 119,
            "time": 77.30499999999999,
            "value": 0.9291338582677166
          },
          {
            "number": 119,
            "time": 77.55499999999999,
            "value": 0
          },
          {
            "number": 119,
            "time": 77.80499999999999,
            "value": 0.6535433070866141
          },
          {
            "number": 119,
            "time": 78.3,
            "value": 0.3464566929133858
          },
          {
            "number": 119,
            "time": 78.55,
            "value": 0
          },
          {
            "number": 119,
            "time": 78.8,
            "value": 0.31496062992125984
          },
          {
            "number": 119,
            "time": 78.98,
            "value": 0.6850393700787402
          },
          {
            "number": 119,
            "time": 79.07000000000001,
            "value": 0
          },
          {
            "number": 119,
            "time": 79.19,
            "value": 0.2283464566929134
          },
          {
            "number": 119,
            "time": 79.685,
            "value": 0.7716535433070866
          },
          {
            "number": 119,
            "time": 79.935,
            "value": 0
          },
          {
            "number": 119,
            "time": 80.185,
            "value": 0.8740157480314961
          },
          {
            "number": 119,
            "time": 80.285,
            "value": 0.12598425196850394
          },
          {
            "number": 119,
            "time": 80.335,
            "value": 0
          },
          {
            "number": 119,
            "time": 80.38999999999999,
            "value": 0.3700787401574803
          },
          {
            "number": 119,
            "time": 80.88499999999999,
            "value": 0.6299212598425197
          },
          {
            "number": 119,
            "time": 81.13499999999999,
            "value": 0
          },
          {
            "number": 119,
            "time": 81.38499999999999,
            "value": 0.07874015748031496
          },
          {
            "number": 119,
            "time": 81.47999999999999,
            "value": 0.9212598425196851
          },
          {
            "number": 119,
            "time": 81.52999999999999,
            "value": 0
          },
          {
            "number": 119,
            "time": 81.60999999999999,
            "value": 0.6377952755905512
          },
          {
            "number": 119,
            "time": 82.10499999999999,
            "value": 0.36220472440944884
          },
          {
            "number": 119,
            "time": 82.35499999999999,
            "value": 0
          },
          {
            "number": 119,
            "time": 82.60499999999999,
            "value": 0.2047244094488189
          },
          {
            "number": 119,
            "time": 83.1,
            "value": 0.7952755905511811
          },
          {
            "number": 119,
            "time": 83.35,
            "value": 0
          },
          {
            "number": 119,
            "time": 83.6,
            "value": 0.7952755905511811
          },
          {
            "number": 119,
            "time": 84.095,
            "value": 0.2047244094488189
          },
          {
            "number": 119,
            "time": 84.345,
            "value": 0
          },
          {
            "number": 119,
            "time": 84.595,
            "value": 0.2204724409448819
          },
          {
            "number": 119,
            "time": 85.09,
            "value": 0.7795275590551181
          },
          {
            "number": 119,
            "time": 85.34,
            "value": 0
          },
          {
            "number": 119,
            "time": 85.59,
            "value": 0.30708661417322836
          },
          {
            "number": 119,
            "time": 85.91,
            "value": 0.6929133858267716
          },
          {
            "number": 119,
            "time": 86.07,
            "value": 0
          },
          {
            "number": 119,
            "time": 86.25999999999999,
            "value": 0.05511811023622047
          },
          {
            "number": 119,
            "time": 86.315,
            "value": 0.9448818897637795
          },
          {
            "number": 119,
            "time": 86.345,
            "value": 0
          },
          {
            "number": 119,
            "time": 86.38,
            "value": 0.937007874015748
          },
          {
            "number": 119,
            "time": 86.875,
            "value": 0.06299212598425197
          },
          {
            "number": 119,
            "time": 87.125,
            "value": 0
          },
          {
            "number": 119,
            "time": 87.375,
            "value": 0.8818897637795275
          },
          {
            "number": 119,
            "time": 87.87,
            "value": 0.11811023622047244
          },
          {
            "number": 119,
            "time": 88.12,
            "value": 0
          },
          {
            "number": 119,
            "time": 88.37,
            "value": 0.5826771653543307
          },
          {
            "number": 119,
            "time": 88.565,
            "value": 0.41732283464566927
          },
          {
            "number": 119,
            "time": 88.66,
            "value": 0
          },
          {
            "number": 119,
            "time": 88.77999999999999,
            "value": 0.30708661417322836
          },
          {
            "number": 119,
            "time": 89.27499999999999,
            "value": 0.6929133858267716
          },
          {
            "number": 119,
            "time": 89.52499999999999,
            "value": 0
          },
          {
            "number": 119,
            "time": 89.77499999999999,
            "value": 0.8110236220472441
          },
          {
            "number": 119,
            "time": 90.27,
            "value": 0.1889763779527559
          },
          {
            "number": 119,
            "time": 90.52,
            "value": 0
          },
          {
            "number": 119,
            "time": 90.77,
            "value": 0.7874015748031497
          },
          {
            "number": 119,
            "time": 90.96499999999999,
            "value": 0.2125984251968504
          },
          {
            "number": 119,
            "time": 91.05999999999999,
            "value": 0
          },
          {
            "number": 119,
            "time": 91.19999999999997,
            "value": 0.7874015748031497
          },
          {
            "number": 119,
            "time": 91.69499999999998,
            "value": 0.2125984251968504
          },
          {
            "number": 119,
            "time": 91.94499999999998,
            "value": 0
          },
          {
            "number": 119,
            "time": 92.19499999999998,
            "value": 0.49606299212598426
          },
          {
            "number": 119,
            "time": 92.68999999999998,
            "value": 0.5039370078740157
          },
          {
            "number": 119,
            "time": 92.93999999999998,
            "value": 0
          },
          {
            "number": 119,
            "time": 93.18999999999998,
            "value": 0.08661417322834646
          },
          {
            "number": 119,
            "time": 93.68499999999999,
            "value": 0.9133858267716536
          },
          {
            "number": 119,
            "time": 93.93499999999999,
            "value": 0
          },
          {
            "number": 119,
            "time": 94.18499999999999,
            "value": 0.6614173228346457
          },
          {
            "number": 119,
            "time": 94.67999999999999,
            "value": 0.33858267716535434
          },
          {
            "number": 119,
            "time": 94.92999999999999,
            "value": 0
          },
          {
            "number": 119,
            "time": 95.17999999999999,
            "value": 0.2047244094488189
          },
          {
            "number": 119,
            "time": 95.57,
            "value": 0.7952755905511811
          },
          {
            "number": 119,
            "time": 95.76499999999999,
            "value": 0
          },
          {
            "number": 119,
            "time": 96.00499999999997,
            "value": 0.7165354330708661
          },
          {
            "number": 119,
            "time": 96.49999999999997,
            "value": 0.28346456692913385
          },
          {
            "number": 119,
            "time": 96.74999999999997,
            "value": 0
          },
          {
            "number": 119,
            "time": 96.99999999999997,
            "value": 0.3779527559055118
          },
          {
            "number": 119,
            "time": 97.49499999999998,
            "value": 0.6220472440944882
          },
          {
            "number": 119,
            "time": 97.74499999999998,
            "value": 0
          },
          {
            "number": 119,
            "time": 97.99499999999998,
            "value": 1
          },
          {
            "number": 119,
            "time": 98.14999999999998,
            "value": 0
          },
          {
            "number": 119,
            "time": 98.22499999999998,
            "value": 0
          },
          {
            "number": 119,
            "time": 98.37999999999997,
            "value": 0.5354330708661418
          },
          {
            "number": 119,
            "time": 98.87499999999997,
            "value": 0.4645669291338583
          },
          {
            "number": 119,
            "time": 99.12499999999997,
            "value": 0
          },
          {
            "number": 119,
            "time": 99.37499999999997,
            "value": 0.09448818897637795
          },
          {
            "number": 119,
            "time": 99.86999999999998,
            "value": 0.905511811023622
          },
          {
            "number": 119,
            "time": 100.11999999999998,
            "value": 0
          },
          {
            "number": 119,
            "time": 100.36999999999998,
            "value": 0.8188976377952756
          },
          {
            "number": 119,
            "time": 100.52499999999998,
            "value": 0.18110236220472442
          },
          {
            "number": 119,
            "time": 100.60499999999998,
            "value": 0
          }
        ]
      },
      "id": 3,
      "name": "Sequenced by",
      "instrumentNumber": 50,
      "instrument": "synthstrings 1",
      "instrumentFamily": "ensemble",
      "channelNumber": 1,
      "isPercussion": false
    },
    {
      "startTime": 83.865,
      "duration": 223.2799999999922,
      "length": 1669,
      "notes": [
        {
          "name": "C3",
          "midi": 48,
          "time": 83.865,
          "velocity": 0.5590551181102362,
          "duration": 0.6000000000000085
        },
        {
          "name": "E3",
          "midi": 52,
          "time": 83.925,
          "velocity": 0.5826771653543307,
          "duration": 0.6000000000000085
        },
        {
          "name": "G3",
          "midi": 55,
          "time": 83.955,
          "velocity": 0.5984251968503937,
          "duration": 0.6000000000000085
        },
        {
          "name": "C4",
          "midi": 60,
          "time": 84,
          "velocity": 0.6220472440944882,
          "duration": 0.6000000000000085
        },
        {
          "name": "E4",
          "midi": 64,
          "time": 84.045,
          "velocity": 0.6456692913385826,
          "duration": 0.6000000000000085
        },
        {
          "name": "F3",
          "midi": 53,
          "time": 86.38000000000002,
          "velocity": 0.48031496062992124,
          "duration": 0.09000000000000341
        },
        {
          "name": "A3",
          "midi": 57,
          "time": 86.39500000000002,
          "velocity": 0.48031496062992124,
          "duration": 0.09000000000000341
        },
        {
          "name": "C4",
          "midi": 60,
          "time": 86.41000000000003,
          "velocity": 0.48031496062992124,
          "duration": 0.09000000000000341
        },
        {
          "name": "F4",
          "midi": 65,
          "time": 86.43000000000002,
          "velocity": 0.48031496062992124,
          "duration": 0.09000000000000341
        },
        {
          "name": "F3",
          "midi": 53,
          "time": 86.68500000000003,
          "velocity": 0.3543307086614173,
          "duration": 0.09000000000000341
        },
        {
          "name": "A3",
          "midi": 57,
          "time": 86.70000000000003,
          "velocity": 0.3543307086614173,
          "duration": 0.09000000000000341
        },
        {
          "name": "C4",
          "midi": 60,
          "time": 86.71500000000003,
          "velocity": 0.3543307086614173,
          "duration": 0.09000000000000341
        },
        {
          "name": "F3",
          "midi": 53,
          "time": 86.96500000000005,
          "velocity": 0.48031496062992124,
          "duration": 0.09000000000000341
        },
        {
          "name": "A3",
          "midi": 57,
          "time": 86.98000000000005,
          "velocity": 0.48031496062992124,
          "duration": 0.09000000000000341
        },
        {
          "name": "C4",
          "midi": 60,
          "time": 86.99500000000005,
          "velocity": 0.48031496062992124,
          "duration": 0.09000000000000341
        },
        {
          "name": "F4",
          "midi": 65,
          "time": 87.01500000000004,
          "velocity": 0.48031496062992124,
          "duration": 0.09000000000000341
        },
        {
          "name": "F3",
          "midi": 53,
          "time": 87.27000000000005,
          "velocity": 0.36220472440944884,
          "duration": 0.09000000000000341
        },
        {
          "name": "A3",
          "midi": 57,
          "time": 87.28500000000005,
          "velocity": 0.36220472440944884,
          "duration": 0.09000000000000341
        },
        {
          "name": "C4",
          "midi": 60,
          "time": 87.30000000000005,
          "velocity": 0.36220472440944884,
          "duration": 0.09000000000000341
        },
        {
          "name": "F3",
          "midi": 53,
          "time": 87.59000000000005,
          "velocity": 0.48031496062992124,
          "duration": 0.09000000000000341
        },
        {
          "name": "A3",
          "midi": 57,
          "time": 87.60500000000005,
          "velocity": 0.48031496062992124,
          "duration": 0.09000000000000341
        },
        {
          "name": "C4",
          "midi": 60,
          "time": 87.62000000000005,
          "velocity": 0.48031496062992124,
          "duration": 0.09000000000000341
        },
        {
          "name": "F4",
          "midi": 65,
          "time": 87.64000000000004,
          "velocity": 0.48031496062992124,
          "duration": 0.09000000000000341
        },
        {
          "name": "F3",
          "midi": 53,
          "time": 87.89500000000005,
          "velocity": 0.36220472440944884,
          "duration": 0.09000000000000341
        },
        {
          "name": "A3",
          "midi": 57,
          "time": 87.91000000000005,
          "velocity": 0.36220472440944884,
          "duration": 0.09000000000000341
        },
        {
          "name": "C4",
          "midi": 60,
          "time": 87.92500000000005,
          "velocity": 0.3700787401574803,
          "duration": 0.09000000000000341
        },
        {
          "name": "F3",
          "midi": 53,
          "time": 88.17500000000007,
          "velocity": 0.48031496062992124,
          "duration": 0.09000000000000341
        },
        {
          "name": "A3",
          "midi": 57,
          "time": 88.19000000000007,
          "velocity": 0.48031496062992124,
          "duration": 0.09000000000000341
        },
        {
          "name": "C4",
          "midi": 60,
          "time": 88.20500000000007,
          "velocity": 0.48031496062992124,
          "duration": 0.09000000000000341
        },
        {
          "name": "F4",
          "midi": 65,
          "time": 88.22500000000007,
          "velocity": 0.48031496062992124,
          "duration": 0.09000000000000341
        },
        {
          "name": "F3",
          "midi": 53,
          "time": 88.48000000000008,
          "velocity": 0.3464566929133858,
          "duration": 0.09000000000000341
        },
        {
          "name": "A3",
          "midi": 57,
          "time": 88.49500000000008,
          "velocity": 0.3464566929133858,
          "duration": 0.09000000000000341
        },
        {
          "name": "C4",
          "midi": 60,
          "time": 88.51000000000008,
          "velocity": 0.3464566929133858,
          "duration": 0.09000000000000341
        },
        {
          "name": "F3",
          "midi": 53,
          "time": 88.64000000000009,
          "velocity": 0.3464566929133858,
          "duration": 0.09000000000000341
        },
        {
          "name": "A3",
          "midi": 57,
          "time": 88.65500000000009,
          "velocity": 0.3464566929133858,
          "duration": 0.09000000000000341
        },
        {
          "name": "C4",
          "midi": 60,
          "time": 88.67000000000009,
          "velocity": 0.3464566929133858,
          "duration": 0.09000000000000341
        },
        {
          "name": "F3",
          "midi": 53,
          "time": 88.77500000000009,
          "velocity": 0.48031496062992124,
          "duration": 0.09000000000000341
        },
        {
          "name": "A#3",
          "midi": 58,
          "time": 88.79000000000009,
          "velocity": 0.48031496062992124,
          "duration": 0.09000000000000341
        },
        {
          "name": "D4",
          "midi": 62,
          "time": 88.82000000000009,
          "velocity": 0.48031496062992124,
          "duration": 0.09000000000000341
        },
        {
          "name": "F4",
          "midi": 65,
          "time": 88.82500000000009,
          "velocity": 0.48031496062992124,
          "duration": 0.09000000000000341
        },
        {
          "name": "F3",
          "midi": 53,
          "time": 89.0800000000001,
          "velocity": 0.3543307086614173,
          "duration": 0.09000000000000341
        },
        {
          "name": "A#3",
          "midi": 58,
          "time": 89.0950000000001,
          "velocity": 0.3543307086614173,
          "duration": 0.09000000000000341
        },
        {
          "name": "D4",
          "midi": 62,
          "time": 89.1250000000001,
          "velocity": 0.3543307086614173,
          "duration": 0.09000000000000341
        },
        {
          "name": "F3",
          "midi": 53,
          "time": 89.3600000000001,
          "velocity": 0.48031496062992124,
          "duration": 0.09000000000000341
        },
        {
          "name": "A#3",
          "midi": 58,
          "time": 89.3750000000001,
          "velocity": 0.48031496062992124,
          "duration": 0.09000000000000341
        },
        {
          "name": "D4",
          "midi": 62,
          "time": 89.4050000000001,
          "velocity": 0.48031496062992124,
          "duration": 0.09000000000000341
        },
        {
          "name": "F4",
          "midi": 65,
          "time": 89.4100000000001,
          "velocity": 0.48031496062992124,
          "duration": 0.09000000000000341
        },
        {
          "name": "F3",
          "midi": 53,
          "time": 89.6650000000001,
          "velocity": 0.36220472440944884,
          "duration": 0.09000000000000341
        },
        {
          "name": "A#3",
          "midi": 58,
          "time": 89.6800000000001,
          "velocity": 0.36220472440944884,
          "duration": 0.09000000000000341
        },
        {
          "name": "D4",
          "midi": 62,
          "time": 89.71000000000011,
          "velocity": 0.36220472440944884,
          "duration": 0.09000000000000341
        },
        {
          "name": "F3",
          "midi": 53,
          "time": 89.98500000000011,
          "velocity": 0.48031496062992124,
          "duration": 0.09000000000000341
        },
        {
          "name": "A#3",
          "midi": 58,
          "time": 90.00000000000011,
          "velocity": 0.48031496062992124,
          "duration": 0.09000000000000341
        },
        {
          "name": "D4",
          "midi": 62,
          "time": 90.03000000000011,
          "velocity": 0.48031496062992124,
          "duration": 0.09000000000000341
        },
        {
          "name": "F4",
          "midi": 65,
          "time": 90.03500000000011,
          "velocity": 0.48031496062992124,
          "duration": 0.09000000000000341
        },
        {
          "name": "F3",
          "midi": 53,
          "time": 90.29000000000012,
          "velocity": 0.36220472440944884,
          "duration": 0.09000000000000341
        },
        {
          "name": "A#3",
          "midi": 58,
          "time": 90.30500000000012,
          "velocity": 0.36220472440944884,
          "duration": 0.09000000000000341
        },
        {
          "name": "D4",
          "midi": 62,
          "time": 90.33500000000012,
          "velocity": 0.3700787401574803,
          "duration": 0.09000000000000341
        },
        {
          "name": "F3",
          "midi": 53,
          "time": 90.57000000000012,
          "velocity": 0.48031496062992124,
          "duration": 0.09000000000000341
        },
        {
          "name": "A#3",
          "midi": 58,
          "time": 90.58500000000012,
          "velocity": 0.48031496062992124,
          "duration": 0.09000000000000341
        },
        {
          "name": "D4",
          "midi": 62,
          "time": 90.61500000000012,
          "velocity": 0.48031496062992124,
          "duration": 0.09000000000000341
        },
        {
          "name": "F4",
          "midi": 65,
          "time": 90.62000000000012,
          "velocity": 0.48031496062992124,
          "duration": 0.09000000000000341
        },
        {
          "name": "F3",
          "midi": 53,
          "time": 90.87500000000013,
          "velocity": 0.3464566929133858,
          "duration": 0.09000000000000341
        },
        {
          "name": "A#3",
          "midi": 58,
          "time": 90.89000000000013,
          "velocity": 0.3464566929133858,
          "duration": 0.09000000000000341
        },
        {
          "name": "D4",
          "midi": 62,
          "time": 90.92000000000013,
          "velocity": 0.3464566929133858,
          "duration": 0.09000000000000341
        },
        {
          "name": "F3",
          "midi": 53,
          "time": 91.02500000000013,
          "velocity": 0.3464566929133858,
          "duration": 0.09000000000000341
        },
        {
          "name": "A#3",
          "midi": 58,
          "time": 91.04000000000013,
          "velocity": 0.3464566929133858,
          "duration": 0.09000000000000341
        },
        {
          "name": "D4",
          "midi": 62,
          "time": 91.07000000000014,
          "velocity": 0.3464566929133858,
          "duration": 0.09000000000000341
        },
        {
          "name": "F3",
          "midi": 53,
          "time": 91.19000000000014,
          "velocity": 0.48031496062992124,
          "duration": 0.09000000000000341
        },
        {
          "name": "A3",
          "midi": 57,
          "time": 91.20500000000014,
          "velocity": 0.48031496062992124,
          "duration": 0.09000000000000341
        },
        {
          "name": "C4",
          "midi": 60,
          "time": 91.22000000000014,
          "velocity": 0.48031496062992124,
          "duration": 0.09000000000000341
        },
        {
          "name": "F4",
          "midi": 65,
          "time": 91.24000000000014,
          "velocity": 0.48031496062992124,
          "duration": 0.09000000000000341
        },
        {
          "name": "F3",
          "midi": 53,
          "time": 91.49500000000015,
          "velocity": 0.3543307086614173,
          "duration": 0.09000000000000341
        },
        {
          "name": "A3",
          "midi": 57,
          "time": 91.51000000000015,
          "velocity": 0.3543307086614173,
          "duration": 0.09000000000000341
        },
        {
          "name": "C4",
          "midi": 60,
          "time": 91.52500000000015,
          "velocity": 0.3543307086614173,
          "duration": 0.09000000000000341
        },
        {
          "name": "F3",
          "midi": 53,
          "time": 91.77500000000016,
          "velocity": 0.48031496062992124,
          "duration": 0.09000000000000341
        },
        {
          "name": "A3",
          "midi": 57,
          "time": 91.79000000000016,
          "velocity": 0.48031496062992124,
          "duration": 0.09000000000000341
        },
        {
          "name": "C4",
          "midi": 60,
          "time": 91.80500000000016,
          "velocity": 0.48031496062992124,
          "duration": 0.09000000000000341
        },
        {
          "name": "F4",
          "midi": 65,
          "time": 91.82500000000016,
          "velocity": 0.48031496062992124,
          "duration": 0.09000000000000341
        },
        {
          "name": "F3",
          "midi": 53,
          "time": 92.08000000000017,
          "velocity": 0.36220472440944884,
          "duration": 0.09000000000000341
        },
        {
          "name": "A3",
          "midi": 57,
          "time": 92.09500000000017,
          "velocity": 0.36220472440944884,
          "duration": 0.09000000000000341
        },
        {
          "name": "C4",
          "midi": 60,
          "time": 92.11000000000017,
          "velocity": 0.36220472440944884,
          "duration": 0.09000000000000341
        },
        {
          "name": "F3",
          "midi": 53,
          "time": 92.40000000000016,
          "velocity": 0.48031496062992124,
          "duration": 0.09000000000000341
        },
        {
          "name": "A3",
          "midi": 57,
          "time": 92.41500000000016,
          "velocity": 0.48031496062992124,
          "duration": 0.09000000000000341
        },
        {
          "name": "C4",
          "midi": 60,
          "time": 92.43000000000016,
          "velocity": 0.48031496062992124,
          "duration": 0.09000000000000341
        },
        {
          "name": "F4",
          "midi": 65,
          "time": 92.45000000000016,
          "velocity": 0.48031496062992124,
          "duration": 0.09000000000000341
        },
        {
          "name": "F3",
          "midi": 53,
          "time": 92.70500000000017,
          "velocity": 0.36220472440944884,
          "duration": 0.09000000000000341
        },
        {
          "name": "A3",
          "midi": 57,
          "time": 92.72000000000017,
          "velocity": 0.36220472440944884,
          "duration": 0.09000000000000341
        },
        {
          "name": "C4",
          "midi": 60,
          "time": 92.73500000000017,
          "velocity": 0.3700787401574803,
          "duration": 0.09000000000000341
        },
        {
          "name": "F3",
          "midi": 53,
          "time": 92.98500000000018,
          "velocity": 0.48031496062992124,
          "duration": 0.09000000000000341
        },
        {
          "name": "A3",
          "midi": 57,
          "time": 93.00000000000018,
          "velocity": 0.48031496062992124,
          "duration": 0.09000000000000341
        },
        {
          "name": "C4",
          "midi": 60,
          "time": 93.01500000000019,
          "velocity": 0.48031496062992124,
          "duration": 0.09000000000000341
        },
        {
          "name": "F4",
          "midi": 65,
          "time": 93.03500000000018,
          "velocity": 0.48031496062992124,
          "duration": 0.09000000000000341
        },
        {
          "name": "F3",
          "midi": 53,
          "time": 93.29000000000019,
          "velocity": 0.3464566929133858,
          "duration": 0.09000000000000341
        },
        {
          "name": "A3",
          "midi": 57,
          "time": 93.30500000000019,
          "velocity": 0.3464566929133858,
          "duration": 0.09000000000000341
        },
        {
          "name": "C4",
          "midi": 60,
          "time": 93.32000000000019,
          "velocity": 0.3464566929133858,
          "duration": 0.09000000000000341
        },
        {
          "name": "F3",
          "midi": 53,
          "time": 93.4500000000002,
          "velocity": 0.3464566929133858,
          "duration": 0.09000000000000341
        },
        {
          "name": "A3",
          "midi": 57,
          "time": 93.4650000000002,
          "velocity": 0.3464566929133858,
          "duration": 0.09000000000000341
        },
        {
          "name": "C4",
          "midi": 60,
          "time": 93.4800000000002,
          "velocity": 0.3464566929133858,
          "duration": 0.09000000000000341
        },
        {
          "name": "F3",
          "midi": 53,
          "time": 93.5850000000002,
          "velocity": 0.48031496062992124,
          "duration": 0.09000000000000341
        },
        {
          "name": "A3",
          "midi": 57,
          "time": 93.60000000000021,
          "velocity": 0.48031496062992124,
          "duration": 0.09000000000000341
        },
        {
          "name": "C4",
          "midi": 60,
          "time": 93.61500000000021,
          "velocity": 0.48031496062992124,
          "duration": 0.09000000000000341
        },
        {
          "name": "F4",
          "midi": 65,
          "time": 93.6350000000002,
          "velocity": 0.48031496062992124,
          "duration": 0.09000000000000341
        },
        {
          "name": "F3",
          "midi": 53,
          "time": 93.89000000000021,
          "velocity": 0.3543307086614173,
          "duration": 0.09000000000000341
        },
        {
          "name": "A3",
          "midi": 57,
          "time": 93.90500000000021,
          "velocity": 0.3543307086614173,
          "duration": 0.09000000000000341
        },
        {
          "name": "C4",
          "midi": 60,
          "time": 93.92000000000021,
          "velocity": 0.3543307086614173,
          "duration": 0.09000000000000341
        },
        {
          "name": "F3",
          "midi": 53,
          "time": 94.17000000000023,
          "velocity": 0.48031496062992124,
          "duration": 0.09000000000000341
        },
        {
          "name": "A3",
          "midi": 57,
          "time": 94.18500000000023,
          "velocity": 0.48031496062992124,
          "duration": 0.09000000000000341
        },
        {
          "name": "C4",
          "midi": 60,
          "time": 94.20000000000023,
          "velocity": 0.48031496062992124,
          "duration": 0.09000000000000341
        },
        {
          "name": "F4",
          "midi": 65,
          "time": 94.22000000000023,
          "velocity": 0.48031496062992124,
          "duration": 0.09000000000000341
        },
        {
          "name": "F3",
          "midi": 53,
          "time": 94.47500000000024,
          "velocity": 0.36220472440944884,
          "duration": 0.09000000000000341
        },
        {
          "name": "A3",
          "midi": 57,
          "time": 94.49000000000024,
          "velocity": 0.36220472440944884,
          "duration": 0.09000000000000341
        },
        {
          "name": "C4",
          "midi": 60,
          "time": 94.50500000000024,
          "velocity": 0.36220472440944884,
          "duration": 0.09000000000000341
        },
        {
          "name": "F3",
          "midi": 53,
          "time": 94.79500000000023,
          "velocity": 0.48031496062992124,
          "duration": 0.09000000000000341
        },
        {
          "name": "A3",
          "midi": 57,
          "time": 94.81000000000023,
          "velocity": 0.48031496062992124,
          "duration": 0.09000000000000341
        },
        {
          "name": "C4",
          "midi": 60,
          "time": 94.82500000000023,
          "velocity": 0.48031496062992124,
          "duration": 0.09000000000000341
        },
        {
          "name": "E4",
          "midi": 64,
          "time": 94.84500000000023,
          "velocity": 0.48031496062992124,
          "duration": 0.09000000000000341
        },
        {
          "name": "F3",
          "midi": 53,
          "time": 95.10000000000024,
          "velocity": 0.36220472440944884,
          "duration": 0.09000000000000341
        },
        {
          "name": "A3",
          "midi": 57,
          "time": 95.11500000000024,
          "velocity": 0.36220472440944884,
          "duration": 0.09000000000000341
        },
        {
          "name": "C4",
          "midi": 60,
          "time": 95.13000000000024,
          "velocity": 0.3700787401574803,
          "duration": 0.09000000000000341
        },
        {
          "name": "F3",
          "midi": 53,
          "time": 95.38000000000025,
          "velocity": 0.48031496062992124,
          "duration": 0.09000000000000341
        },
        {
          "name": "A3",
          "midi": 57,
          "time": 95.39500000000025,
          "velocity": 0.48031496062992124,
          "duration": 0.09000000000000341
        },
        {
          "name": "C4",
          "midi": 60,
          "time": 95.41000000000025,
          "velocity": 0.48031496062992124,
          "duration": 0.09000000000000341
        },
        {
          "name": "E4",
          "midi": 64,
          "time": 95.43000000000025,
          "velocity": 0.48031496062992124,
          "duration": 0.09000000000000341
        },
        {
          "name": "F3",
          "midi": 53,
          "time": 95.68500000000026,
          "velocity": 0.3464566929133858,
          "duration": 0.09000000000000341
        },
        {
          "name": "A3",
          "midi": 57,
          "time": 95.70000000000026,
          "velocity": 0.3464566929133858,
          "duration": 0.09000000000000341
        },
        {
          "name": "C4",
          "midi": 60,
          "time": 95.71500000000026,
          "velocity": 0.3464566929133858,
          "duration": 0.09000000000000341
        },
        {
          "name": "F3",
          "midi": 53,
          "time": 95.84500000000027,
          "velocity": 0.3464566929133858,
          "duration": 0.09000000000000341
        },
        {
          "name": "A3",
          "midi": 57,
          "time": 95.86000000000027,
          "velocity": 0.3464566929133858,
          "duration": 0.09000000000000341
        },
        {
          "name": "C4",
          "midi": 60,
          "time": 95.87500000000027,
          "velocity": 0.3464566929133858,
          "duration": 0.09000000000000341
        },
        {
          "name": "D3",
          "midi": 50,
          "time": 95.99500000000027,
          "velocity": 0.48031496062992124,
          "duration": 0.0899999999999892
        },
        {
          "name": "A3",
          "midi": 57,
          "time": 96.00000000000027,
          "velocity": 0.48031496062992124,
          "duration": 0.0899999999999892
        },
        {
          "name": "D4",
          "midi": 62,
          "time": 96.02000000000027,
          "velocity": 0.48031496062992124,
          "duration": 0.0899999999999892
        },
        {
          "name": "F4",
          "midi": 65,
          "time": 96.02500000000026,
          "velocity": 0.48031496062992124,
          "duration": 0.0899999999999892
        },
        {
          "name": "A4",
          "midi": 69,
          "time": 96.03500000000027,
          "velocity": 0.48031496062992124,
          "duration": 0.0899999999999892
        },
        {
          "name": "D3",
          "midi": 50,
          "time": 96.30000000000025,
          "velocity": 0.3543307086614173,
          "duration": 0.0899999999999892
        },
        {
          "name": "A3",
          "midi": 57,
          "time": 96.30500000000025,
          "velocity": 0.3543307086614173,
          "duration": 0.0899999999999892
        },
        {
          "name": "D4",
          "midi": 62,
          "time": 96.32500000000024,
          "velocity": 0.3543307086614173,
          "duration": 0.0899999999999892
        },
        {
          "name": "D3",
          "midi": 50,
          "time": 96.58000000000024,
          "velocity": 0.48031496062992124,
          "duration": 0.09000000000000341
        },
        {
          "name": "A3",
          "midi": 57,
          "time": 96.58500000000024,
          "velocity": 0.48031496062992124,
          "duration": 0.09000000000000341
        },
        {
          "name": "F4",
          "midi": 65,
          "time": 96.59500000000024,
          "velocity": 0.48031496062992124,
          "duration": 0.09000000000000341
        },
        {
          "name": "D4",
          "midi": 62,
          "time": 96.60500000000025,
          "velocity": 0.48031496062992124,
          "duration": 0.09000000000000341
        },
        {
          "name": "A4",
          "midi": 69,
          "time": 96.62000000000025,
          "velocity": 0.48031496062992124,
          "duration": 0.09000000000000341
        },
        {
          "name": "D3",
          "midi": 50,
          "time": 96.88500000000025,
          "velocity": 0.36220472440944884,
          "duration": 0.0899999999999892
        },
        {
          "name": "A3",
          "midi": 57,
          "time": 96.89000000000024,
          "velocity": 0.36220472440944884,
          "duration": 0.0899999999999892
        },
        {
          "name": "D4",
          "midi": 62,
          "time": 96.91000000000024,
          "velocity": 0.36220472440944884,
          "duration": 0.0899999999999892
        },
        {
          "name": "D3",
          "midi": 50,
          "time": 97.20500000000023,
          "velocity": 0.48031496062992124,
          "duration": 0.0899999999999892
        },
        {
          "name": "A3",
          "midi": 57,
          "time": 97.21000000000022,
          "velocity": 0.48031496062992124,
          "duration": 0.0899999999999892
        },
        {
          "name": "F4",
          "midi": 65,
          "time": 97.22500000000022,
          "velocity": 0.48031496062992124,
          "duration": 0.0899999999999892
        },
        {
          "name": "D4",
          "midi": 62,
          "time": 97.23000000000022,
          "velocity": 0.48031496062992124,
          "duration": 0.0899999999999892
        },
        {
          "name": "A4",
          "midi": 69,
          "time": 97.24500000000022,
          "velocity": 0.48031496062992124,
          "duration": 0.0899999999999892
        },
        {
          "name": "D3",
          "midi": 50,
          "time": 97.5100000000002,
          "velocity": 0.36220472440944884,
          "duration": 0.0899999999999892
        },
        {
          "name": "A3",
          "midi": 57,
          "time": 97.5150000000002,
          "velocity": 0.36220472440944884,
          "duration": 0.0899999999999892
        },
        {
          "name": "D4",
          "midi": 62,
          "time": 97.5350000000002,
          "velocity": 0.3700787401574803,
          "duration": 0.0899999999999892
        },
        {
          "name": "D3",
          "midi": 50,
          "time": 97.79000000000019,
          "velocity": 0.48031496062992124,
          "duration": 0.0899999999999892
        },
        {
          "name": "A3",
          "midi": 57,
          "time": 97.79500000000019,
          "velocity": 0.48031496062992124,
          "duration": 0.0899999999999892
        },
        {
          "name": "D4",
          "midi": 62,
          "time": 97.81500000000018,
          "velocity": 0.48031496062992124,
          "duration": 0.0899999999999892
        },
        {
          "name": "A4",
          "midi": 69,
          "time": 97.83000000000018,
          "velocity": 0.48031496062992124,
          "duration": 0.0899999999999892
        },
        {
          "name": "F4",
          "midi": 65,
          "time": 97.83500000000018,
          "velocity": 0.48031496062992124,
          "duration": 0.0899999999999892
        },
        {
          "name": "D3",
          "midi": 50,
          "time": 98.09500000000017,
          "velocity": 0.3464566929133858,
          "duration": 0.0899999999999892
        },
        {
          "name": "A3",
          "midi": 57,
          "time": 98.10000000000016,
          "velocity": 0.3464566929133858,
          "duration": 0.0899999999999892
        },
        {
          "name": "D4",
          "midi": 62,
          "time": 98.12000000000016,
          "velocity": 0.3464566929133858,
          "duration": 0.0899999999999892
        },
        {
          "name": "D3",
          "midi": 50,
          "time": 98.25500000000015,
          "velocity": 0.3464566929133858,
          "duration": 0.0899999999999892
        },
        {
          "name": "A3",
          "midi": 57,
          "time": 98.26000000000015,
          "velocity": 0.3464566929133858,
          "duration": 0.0899999999999892
        },
        {
          "name": "D4",
          "midi": 62,
          "time": 98.28000000000014,
          "velocity": 0.3464566929133858,
          "duration": 0.0899999999999892
        },
        {
          "name": "A#3",
          "midi": 58,
          "time": 98.39500000000014,
          "velocity": 0.48031496062992124,
          "duration": 0.09000000000000341
        },
        {
          "name": "A#2",
          "midi": 46,
          "time": 98.39500000000014,
          "velocity": 0.48031496062992124,
          "duration": 0.09000000000000341
        },
        {
          "name": "D4",
          "midi": 62,
          "time": 98.41500000000013,
          "velocity": 0.48031496062992124,
          "duration": 0.09000000000000341
        },
        {
          "name": "F4",
          "midi": 65,
          "time": 98.42000000000013,
          "velocity": 0.48031496062992124,
          "duration": 0.09000000000000341
        },
        {
          "name": "A#4",
          "midi": 70,
          "time": 98.43000000000013,
          "velocity": 0.48031496062992124,
          "duration": 0.09000000000000341
        },
        {
          "name": "A#3",
          "midi": 58,
          "time": 98.70000000000014,
          "velocity": 0.3543307086614173,
          "duration": 0.0899999999999892
        },
        {
          "name": "A#2",
          "midi": 46,
          "time": 98.70000000000014,
          "velocity": 0.3543307086614173,
          "duration": 0.0899999999999892
        },
        {
          "name": "D4",
          "midi": 62,
          "time": 98.72000000000014,
          "velocity": 0.3543307086614173,
          "duration": 0.0899999999999892
        },
        {
          "name": "A#2",
          "midi": 46,
          "time": 98.98000000000013,
          "velocity": 0.48031496062992124,
          "duration": 0.09000000000001762
        },
        {
          "name": "A#3",
          "midi": 58,
          "time": 98.98000000000013,
          "velocity": 0.48031496062992124,
          "duration": 0.09000000000001762
        },
        {
          "name": "F4",
          "midi": 65,
          "time": 98.99000000000014,
          "velocity": 0.48031496062992124,
          "duration": 0.09000000000001762
        },
        {
          "name": "D4",
          "midi": 62,
          "time": 99.00000000000014,
          "velocity": 0.48031496062992124,
          "duration": 0.09000000000001762
        },
        {
          "name": "A#4",
          "midi": 70,
          "time": 99.01500000000014,
          "velocity": 0.48031496062992124,
          "duration": 0.09000000000001762
        },
        {
          "name": "A#3",
          "midi": 58,
          "time": 99.28500000000017,
          "velocity": 0.36220472440944884,
          "duration": 0.0899999999999892
        },
        {
          "name": "A#2",
          "midi": 46,
          "time": 99.28500000000017,
          "velocity": 0.36220472440944884,
          "duration": 0.0899999999999892
        },
        {
          "name": "D4",
          "midi": 62,
          "time": 99.30500000000016,
          "velocity": 0.36220472440944884,
          "duration": 0.0899999999999892
        },
        {
          "name": "A#3",
          "midi": 58,
          "time": 99.60500000000016,
          "velocity": 0.48031496062992124,
          "duration": 0.09000000000000341
        },
        {
          "name": "A#2",
          "midi": 46,
          "time": 99.60500000000016,
          "velocity": 0.48031496062992124,
          "duration": 0.09000000000000341
        },
        {
          "name": "F4",
          "midi": 65,
          "time": 99.62000000000016,
          "velocity": 0.48031496062992124,
          "duration": 0.09000000000000341
        },
        {
          "name": "D4",
          "midi": 62,
          "time": 99.62500000000016,
          "velocity": 0.48031496062992124,
          "duration": 0.09000000000000341
        },
        {
          "name": "A#4",
          "midi": 70,
          "time": 99.64000000000016,
          "velocity": 0.48031496062992124,
          "duration": 0.09000000000000341
        },
        {
          "name": "A#2",
          "midi": 46,
          "time": 99.91000000000017,
          "velocity": 0.36220472440944884,
          "duration": 0.0899999999999892
        },
        {
          "name": "A#3",
          "midi": 58,
          "time": 99.91000000000017,
          "velocity": 0.36220472440944884,
          "duration": 0.0899999999999892
        },
        {
          "name": "D4",
          "midi": 62,
          "time": 99.93000000000016,
          "velocity": 0.3700787401574803,
          "duration": 0.0899999999999892
        },
        {
          "name": "A#3",
          "midi": 58,
          "time": 100.19000000000015,
          "velocity": 0.48031496062992124,
          "duration": 0.0899999999999892
        },
        {
          "name": "A#2",
          "midi": 46,
          "time": 100.19000000000015,
          "velocity": 0.48031496062992124,
          "duration": 0.0899999999999892
        },
        {
          "name": "D4",
          "midi": 62,
          "time": 100.21000000000015,
          "velocity": 0.48031496062992124,
          "duration": 0.0899999999999892
        },
        {
          "name": "A#4",
          "midi": 70,
          "time": 100.22500000000015,
          "velocity": 0.48031496062992124,
          "duration": 0.0899999999999892
        },
        {
          "name": "F4",
          "midi": 65,
          "time": 100.23000000000015,
          "velocity": 0.48031496062992124,
          "duration": 0.0899999999999892
        },
        {
          "name": "A#3",
          "midi": 58,
          "time": 100.49500000000013,
          "velocity": 0.3464566929133858,
          "duration": 0.0899999999999892
        },
        {
          "name": "A#2",
          "midi": 46,
          "time": 100.49500000000013,
          "velocity": 0.3464566929133858,
          "duration": 0.0899999999999892
        },
        {
          "name": "D4",
          "midi": 62,
          "time": 100.51500000000013,
          "velocity": 0.3464566929133858,
          "duration": 0.0899999999999892
        },
        {
          "name": "C3",
          "midi": 48,
          "time": 100.65500000000011,
          "velocity": 0.3464566929133858,
          "duration": 0.0899999999999892
        },
        {
          "name": "C4",
          "midi": 60,
          "time": 100.65500000000011,
          "velocity": 0.3464566929133858,
          "duration": 0.0899999999999892
        },
        {
          "name": "D4",
          "midi": 62,
          "time": 100.67500000000011,
          "velocity": 0.3464566929133858,
          "duration": 0.0899999999999892
        },
        {
          "name": "F3",
          "midi": 53,
          "time": 100.7750000000001,
          "velocity": 0.48031496062992124,
          "duration": 0.09000000000000341
        },
        {
          "name": "A3",
          "midi": 57,
          "time": 100.8050000000001,
          "velocity": 0.48031496062992124,
          "duration": 0.09000000000000341
        },
        {
          "name": "C4",
          "midi": 60,
          "time": 100.8200000000001,
          "velocity": 0.48031496062992124,
          "duration": 0.09000000000000341
        },
        {
          "name": "F4",
          "midi": 65,
          "time": 100.8400000000001,
          "velocity": 0.48031496062992124,
          "duration": 0.09000000000000341
        },
        {
          "name": "F3",
          "midi": 53,
          "time": 101.09500000000011,
          "velocity": 0.3543307086614173,
          "duration": 0.09000000000000341
        },
        {
          "name": "A3",
          "midi": 57,
          "time": 101.11000000000011,
          "velocity": 0.3543307086614173,
          "duration": 0.09000000000000341
        },
        {
          "name": "C4",
          "midi": 60,
          "time": 101.12500000000011,
          "velocity": 0.3543307086614173,
          "duration": 0.09000000000000341
        },
        {
          "name": "F3",
          "midi": 53,
          "time": 101.37500000000011,
          "velocity": 0.48031496062992124,
          "duration": 0.09000000000000341
        },
        {
          "name": "A3",
          "midi": 57,
          "time": 101.39000000000011,
          "velocity": 0.48031496062992124,
          "duration": 0.09000000000000341
        },
        {
          "name": "C4",
          "midi": 60,
          "time": 101.40500000000011,
          "velocity": 0.48031496062992124,
          "duration": 0.09000000000000341
        },
        {
          "name": "F4",
          "midi": 65,
          "time": 101.42500000000011,
          "velocity": 0.48031496062992124,
          "duration": 0.09000000000000341
        },
        {
          "name": "F3",
          "midi": 53,
          "time": 101.68000000000012,
          "velocity": 0.36220472440944884,
          "duration": 0.09000000000000341
        },
        {
          "name": "A3",
          "midi": 57,
          "time": 101.69500000000012,
          "velocity": 0.36220472440944884,
          "duration": 0.09000000000000341
        },
        {
          "name": "C4",
          "midi": 60,
          "time": 101.71000000000012,
          "velocity": 0.36220472440944884,
          "duration": 0.09000000000000341
        },
        {
          "name": "F3",
          "midi": 53,
          "time": 102.00000000000013,
          "velocity": 0.48031496062992124,
          "duration": 0.09000000000000341
        },
        {
          "name": "A3",
          "midi": 57,
          "time": 102.01500000000013,
          "velocity": 0.48031496062992124,
          "duration": 0.09000000000000341
        },
        {
          "name": "C4",
          "midi": 60,
          "time": 102.03000000000013,
          "velocity": 0.48031496062992124,
          "duration": 0.09000000000000341
        },
        {
          "name": "F4",
          "midi": 65,
          "time": 102.05000000000013,
          "velocity": 0.48031496062992124,
          "duration": 0.09000000000000341
        },
        {
          "name": "F3",
          "midi": 53,
          "time": 102.30500000000013,
          "velocity": 0.36220472440944884,
          "duration": 0.09000000000000341
        },
        {
          "name": "A3",
          "midi": 57,
          "time": 102.32000000000014,
          "velocity": 0.36220472440944884,
          "duration": 0.09000000000000341
        },
        {
          "name": "C4",
          "midi": 60,
          "time": 102.33500000000014,
          "velocity": 0.3700787401574803,
          "duration": 0.09000000000000341
        },
        {
          "name": "F3",
          "midi": 53,
          "time": 102.58500000000014,
          "velocity": 0.48031496062992124,
          "duration": 0.09000000000000341
        },
        {
          "name": "A3",
          "midi": 57,
          "time": 102.60000000000014,
          "velocity": 0.48031496062992124,
          "duration": 0.09000000000000341
        },
        {
          "name": "C4",
          "midi": 60,
          "time": 102.61500000000014,
          "velocity": 0.48031496062992124,
          "duration": 0.09000000000000341
        },
        {
          "name": "F4",
          "midi": 65,
          "time": 102.63500000000013,
          "velocity": 0.48031496062992124,
          "duration": 0.09000000000000341
        },
        {
          "name": "F3",
          "midi": 53,
          "time": 102.89000000000014,
          "velocity": 0.3464566929133858,
          "duration": 0.09000000000000341
        },
        {
          "name": "A3",
          "midi": 57,
          "time": 102.90500000000014,
          "velocity": 0.3464566929133858,
          "duration": 0.09000000000000341
        },
        {
          "name": "C4",
          "midi": 60,
          "time": 102.92000000000014,
          "velocity": 0.3464566929133858,
          "duration": 0.09000000000000341
        },
        {
          "name": "F3",
          "midi": 53,
          "time": 103.05000000000015,
          "velocity": 0.4251968503937008,
          "duration": 0.09000000000000341
        },
        {
          "name": "A3",
          "midi": 57,
          "time": 103.06500000000015,
          "velocity": 0.4330708661417323,
          "duration": 0.09000000000000341
        },
        {
          "name": "C4",
          "midi": 60,
          "time": 103.08000000000015,
          "velocity": 0.4409448818897638,
          "duration": 0.09000000000000341
        },
        {
          "name": "F3",
          "midi": 53,
          "time": 103.19000000000015,
          "velocity": 0.48031496062992124,
          "duration": 0.09000000000000341
        },
        {
          "name": "G3",
          "midi": 55,
          "time": 103.22000000000016,
          "velocity": 0.48031496062992124,
          "duration": 0.09000000000000341
        },
        {
          "name": "C4",
          "midi": 60,
          "time": 103.23500000000016,
          "velocity": 0.48031496062992124,
          "duration": 0.09000000000000341
        },
        {
          "name": "F4",
          "midi": 65,
          "time": 103.25500000000015,
          "velocity": 0.48031496062992124,
          "duration": 0.09000000000000341
        },
        {
          "name": "F3",
          "midi": 53,
          "time": 103.51000000000016,
          "velocity": 0.3543307086614173,
          "duration": 0.09000000000000341
        },
        {
          "name": "G3",
          "midi": 55,
          "time": 103.52500000000016,
          "velocity": 0.3543307086614173,
          "duration": 0.09000000000000341
        },
        {
          "name": "C4",
          "midi": 60,
          "time": 103.54000000000016,
          "velocity": 0.3543307086614173,
          "duration": 0.09000000000000341
        },
        {
          "name": "F3",
          "midi": 53,
          "time": 103.79000000000016,
          "velocity": 0.48031496062992124,
          "duration": 0.09000000000000341
        },
        {
          "name": "G3",
          "midi": 55,
          "time": 103.80500000000016,
          "velocity": 0.48031496062992124,
          "duration": 0.09000000000000341
        },
        {
          "name": "C4",
          "midi": 60,
          "time": 103.82000000000016,
          "velocity": 0.48031496062992124,
          "duration": 0.09000000000000341
        },
        {
          "name": "F4",
          "midi": 65,
          "time": 103.84000000000016,
          "velocity": 0.48031496062992124,
          "duration": 0.09000000000000341
        },
        {
          "name": "F3",
          "midi": 53,
          "time": 104.09500000000017,
          "velocity": 0.36220472440944884,
          "duration": 0.09000000000000341
        },
        {
          "name": "G3",
          "midi": 55,
          "time": 104.11000000000017,
          "velocity": 0.36220472440944884,
          "duration": 0.09000000000000341
        },
        {
          "name": "C4",
          "midi": 60,
          "time": 104.12500000000017,
          "velocity": 0.36220472440944884,
          "duration": 0.09000000000000341
        },
        {
          "name": "F3",
          "midi": 53,
          "time": 104.41500000000018,
          "velocity": 0.48031496062992124,
          "duration": 0.09000000000000341
        },
        {
          "name": "G3",
          "midi": 55,
          "time": 104.43000000000018,
          "velocity": 0.48031496062992124,
          "duration": 0.09000000000000341
        },
        {
          "name": "C4",
          "midi": 60,
          "time": 104.44500000000018,
          "velocity": 0.48031496062992124,
          "duration": 0.09000000000000341
        },
        {
          "name": "F4",
          "midi": 65,
          "time": 104.46500000000017,
          "velocity": 0.48031496062992124,
          "duration": 0.09000000000000341
        },
        {
          "name": "F3",
          "midi": 53,
          "time": 104.72000000000018,
          "velocity": 0.36220472440944884,
          "duration": 0.09000000000000341
        },
        {
          "name": "G3",
          "midi": 55,
          "time": 104.73500000000018,
          "velocity": 0.36220472440944884,
          "duration": 0.09000000000000341
        },
        {
          "name": "C4",
          "midi": 60,
          "time": 104.75000000000018,
          "velocity": 0.3700787401574803,
          "duration": 0.09000000000000341
        },
        {
          "name": "F3",
          "midi": 53,
          "time": 105.00000000000018,
          "velocity": 0.48031496062992124,
          "duration": 0.09000000000000341
        },
        {
          "name": "G3",
          "midi": 55,
          "time": 105.01500000000019,
          "velocity": 0.48031496062992124,
          "duration": 0.09000000000000341
        },
        {
          "name": "C4",
          "midi": 60,
          "time": 105.03000000000019,
          "velocity": 0.48031496062992124,
          "duration": 0.09000000000000341
        },
        {
          "name": "F4",
          "midi": 65,
          "time": 105.05000000000018,
          "velocity": 0.48031496062992124,
          "duration": 0.09000000000000341
        },
        {
          "name": "F3",
          "midi": 53,
          "time": 105.30500000000019,
          "velocity": 0.3464566929133858,
          "duration": 0.09000000000000341
        },
        {
          "name": "G3",
          "midi": 55,
          "time": 105.32000000000019,
          "velocity": 0.3464566929133858,
          "duration": 0.09000000000000341
        },
        {
          "name": "C4",
          "midi": 60,
          "time": 105.33500000000019,
          "velocity": 0.3464566929133858,
          "duration": 0.09000000000000341
        },
        {
          "name": "F3",
          "midi": 53,
          "time": 105.4650000000002,
          "velocity": 0.3464566929133858,
          "duration": 0.09000000000000341
        },
        {
          "name": "G3",
          "midi": 55,
          "time": 105.4800000000002,
          "velocity": 0.3464566929133858,
          "duration": 0.09000000000000341
        },
        {
          "name": "C4",
          "midi": 60,
          "time": 105.4950000000002,
          "velocity": 0.3464566929133858,
          "duration": 0.09000000000000341
        },
        {
          "name": "A3",
          "midi": 57,
          "time": 105.61500000000021,
          "velocity": 0.48031496062992124,
          "duration": 0.09000000000000341
        },
        {
          "name": "C4",
          "midi": 60,
          "time": 105.63000000000021,
          "velocity": 0.48031496062992124,
          "duration": 0.09000000000000341
        },
        {
          "name": "F3",
          "midi": 53,
          "time": 105.88000000000021,
          "velocity": 0.48031496062992124,
          "duration": 0.09000000000000341
        },
        {
          "name": "A3",
          "midi": 57,
          "time": 105.90500000000021,
          "velocity": 0.48031496062992124,
          "duration": 0.09000000000000341
        },
        {
          "name": "A3",
          "midi": 57,
          "time": 106.21000000000022,
          "velocity": 0.48031496062992124,
          "duration": 0.09000000000000341
        },
        {
          "name": "C4",
          "midi": 60,
          "time": 106.22500000000022,
          "velocity": 0.48031496062992124,
          "duration": 0.09000000000000341
        },
        {
          "name": "F3",
          "midi": 53,
          "time": 106.47500000000022,
          "velocity": 0.48031496062992124,
          "duration": 0.09000000000000341
        },
        {
          "name": "A3",
          "midi": 57,
          "time": 106.50000000000023,
          "velocity": 0.48031496062992124,
          "duration": 0.09000000000000341
        },
        {
          "name": "A3",
          "midi": 57,
          "time": 106.79500000000023,
          "velocity": 0.48031496062992124,
          "duration": 0.09000000000000341
        },
        {
          "name": "C4",
          "midi": 60,
          "time": 106.81000000000023,
          "velocity": 0.48031496062992124,
          "duration": 0.09000000000000341
        },
        {
          "name": "F3",
          "midi": 53,
          "time": 107.09500000000023,
          "velocity": 0.48031496062992124,
          "duration": 0.09000000000000341
        },
        {
          "name": "A3",
          "midi": 57,
          "time": 107.12000000000023,
          "velocity": 0.48031496062992124,
          "duration": 0.09000000000000341
        },
        {
          "name": "A3",
          "midi": 57,
          "time": 107.39000000000024,
          "velocity": 0.48031496062992124,
          "duration": 0.09000000000000341
        },
        {
          "name": "C4",
          "midi": 60,
          "time": 107.40500000000024,
          "velocity": 0.48031496062992124,
          "duration": 0.09000000000000341
        },
        {
          "name": "F3",
          "midi": 53,
          "time": 107.68000000000025,
          "velocity": 0.48031496062992124,
          "duration": 0.09000000000000341
        },
        {
          "name": "A3",
          "midi": 57,
          "time": 107.70500000000025,
          "velocity": 0.48031496062992124,
          "duration": 0.09000000000000341
        },
        {
          "name": "A#3",
          "midi": 58,
          "time": 107.99000000000025,
          "velocity": 0.48031496062992124,
          "duration": 0.09000000000000341
        },
        {
          "name": "D4",
          "midi": 62,
          "time": 108.00500000000025,
          "velocity": 0.48031496062992124,
          "duration": 0.09000000000000341
        },
        {
          "name": "F3",
          "midi": 53,
          "time": 108.29000000000025,
          "velocity": 0.48031496062992124,
          "duration": 0.09000000000000341
        },
        {
          "name": "A#3",
          "midi": 58,
          "time": 108.31500000000025,
          "velocity": 0.48031496062992124,
          "duration": 0.09000000000000341
        },
        {
          "name": "A#3",
          "midi": 58,
          "time": 108.58500000000026,
          "velocity": 0.48031496062992124,
          "duration": 0.09000000000000341
        },
        {
          "name": "D4",
          "midi": 62,
          "time": 108.60000000000026,
          "velocity": 0.48031496062992124,
          "duration": 0.09000000000000341
        },
        {
          "name": "F3",
          "midi": 53,
          "time": 108.88000000000027,
          "velocity": 0.48031496062992124,
          "duration": 0.09000000000000341
        },
        {
          "name": "A#3",
          "midi": 58,
          "time": 108.90500000000027,
          "velocity": 0.48031496062992124,
          "duration": 0.09000000000000341
        },
        {
          "name": "A#3",
          "midi": 58,
          "time": 109.17000000000027,
          "velocity": 0.48031496062992124,
          "duration": 0.09000000000000341
        },
        {
          "name": "D4",
          "midi": 62,
          "time": 109.18500000000027,
          "velocity": 0.48031496062992124,
          "duration": 0.09000000000000341
        },
        {
          "name": "F3",
          "midi": 53,
          "time": 109.47000000000027,
          "velocity": 0.48031496062992124,
          "duration": 0.09000000000000341
        },
        {
          "name": "A#3",
          "midi": 58,
          "time": 109.49500000000027,
          "velocity": 0.48031496062992124,
          "duration": 0.09000000000000341
        },
        {
          "name": "A#3",
          "midi": 58,
          "time": 109.76500000000028,
          "velocity": 0.48031496062992124,
          "duration": 0.09000000000000341
        },
        {
          "name": "D4",
          "midi": 62,
          "time": 109.78000000000029,
          "velocity": 0.48031496062992124,
          "duration": 0.09000000000000341
        },
        {
          "name": "F3",
          "midi": 53,
          "time": 110.05500000000029,
          "velocity": 0.48031496062992124,
          "duration": 0.09000000000000341
        },
        {
          "name": "A#3",
          "midi": 58,
          "time": 110.0800000000003,
          "velocity": 0.48031496062992124,
          "duration": 0.09000000000000341
        },
        {
          "name": "F3",
          "midi": 53,
          "time": 110.3750000000003,
          "velocity": 0.48031496062992124,
          "duration": 0.09000000000000341
        },
        {
          "name": "A3",
          "midi": 57,
          "time": 110.3950000000003,
          "velocity": 0.48031496062992124,
          "duration": 0.09000000000000341
        },
        {
          "name": "C4",
          "midi": 60,
          "time": 110.4100000000003,
          "velocity": 0.48031496062992124,
          "duration": 0.09000000000000341
        },
        {
          "name": "F3",
          "midi": 53,
          "time": 110.6700000000003,
          "velocity": 0.48031496062992124,
          "duration": 0.09000000000000341
        },
        {
          "name": "A3",
          "midi": 57,
          "time": 110.6900000000003,
          "velocity": 0.48031496062992124,
          "duration": 0.09000000000000341
        },
        {
          "name": "C4",
          "midi": 60,
          "time": 110.7050000000003,
          "velocity": 0.48031496062992124,
          "duration": 0.09000000000000341
        },
        {
          "name": "F3",
          "midi": 53,
          "time": 110.9800000000003,
          "velocity": 0.48031496062992124,
          "duration": 0.09000000000000341
        },
        {
          "name": "A3",
          "midi": 57,
          "time": 111.0000000000003,
          "velocity": 0.48031496062992124,
          "duration": 0.09000000000000341
        },
        {
          "name": "C4",
          "midi": 60,
          "time": 111.0150000000003,
          "velocity": 0.48031496062992124,
          "duration": 0.09000000000000341
        },
        {
          "name": "F3",
          "midi": 53,
          "time": 111.2950000000003,
          "velocity": 0.48031496062992124,
          "duration": 0.09000000000000341
        },
        {
          "name": "A3",
          "midi": 57,
          "time": 111.3150000000003,
          "velocity": 0.48031496062992124,
          "duration": 0.09000000000000341
        },
        {
          "name": "C4",
          "midi": 60,
          "time": 111.3300000000003,
          "velocity": 0.48031496062992124,
          "duration": 0.09000000000000341
        },
        {
          "name": "F3",
          "midi": 53,
          "time": 111.5900000000003,
          "velocity": 0.48031496062992124,
          "duration": 0.09000000000000341
        },
        {
          "name": "A3",
          "midi": 57,
          "time": 111.6100000000003,
          "velocity": 0.48031496062992124,
          "duration": 0.09000000000000341
        },
        {
          "name": "C4",
          "midi": 60,
          "time": 111.6250000000003,
          "velocity": 0.48031496062992124,
          "duration": 0.09000000000000341
        },
        {
          "name": "F3",
          "midi": 53,
          "time": 111.9000000000003,
          "velocity": 0.48031496062992124,
          "duration": 0.09000000000000341
        },
        {
          "name": "A3",
          "midi": 57,
          "time": 111.9200000000003,
          "velocity": 0.48031496062992124,
          "duration": 0.09000000000000341
        },
        {
          "name": "C4",
          "midi": 60,
          "time": 111.9350000000003,
          "velocity": 0.48031496062992124,
          "duration": 0.09000000000000341
        },
        {
          "name": "F3",
          "midi": 53,
          "time": 112.19000000000031,
          "velocity": 0.48031496062992124,
          "duration": 0.09000000000000341
        },
        {
          "name": "A3",
          "midi": 57,
          "time": 112.2100000000003,
          "velocity": 0.48031496062992124,
          "duration": 0.09000000000000341
        },
        {
          "name": "C4",
          "midi": 60,
          "time": 112.2250000000003,
          "velocity": 0.48031496062992124,
          "duration": 0.09000000000000341
        },
        {
          "name": "F3",
          "midi": 53,
          "time": 112.48500000000031,
          "velocity": 0.48031496062992124,
          "duration": 0.09000000000000341
        },
        {
          "name": "A3",
          "midi": 57,
          "time": 112.50500000000031,
          "velocity": 0.48031496062992124,
          "duration": 0.09000000000000341
        },
        {
          "name": "C4",
          "midi": 60,
          "time": 112.52000000000031,
          "velocity": 0.48031496062992124,
          "duration": 0.09000000000000341
        },
        {
          "name": "F3",
          "midi": 53,
          "time": 112.79500000000031,
          "velocity": 0.48031496062992124,
          "duration": 0.09000000000000341
        },
        {
          "name": "A3",
          "midi": 57,
          "time": 112.81500000000031,
          "velocity": 0.48031496062992124,
          "duration": 0.09000000000000341
        },
        {
          "name": "C4",
          "midi": 60,
          "time": 112.83000000000031,
          "velocity": 0.48031496062992124,
          "duration": 0.09000000000000341
        },
        {
          "name": "F3",
          "midi": 53,
          "time": 113.12000000000032,
          "velocity": 0.48031496062992124,
          "duration": 0.09000000000000341
        },
        {
          "name": "A3",
          "midi": 57,
          "time": 113.14000000000031,
          "velocity": 0.48031496062992124,
          "duration": 0.09000000000000341
        },
        {
          "name": "C4",
          "midi": 60,
          "time": 113.15500000000031,
          "velocity": 0.48031496062992124,
          "duration": 0.09000000000000341
        },
        {
          "name": "F3",
          "midi": 53,
          "time": 113.41500000000032,
          "velocity": 0.48031496062992124,
          "duration": 0.09000000000000341
        },
        {
          "name": "A3",
          "midi": 57,
          "time": 113.43500000000031,
          "velocity": 0.48031496062992124,
          "duration": 0.09000000000000341
        },
        {
          "name": "C4",
          "midi": 60,
          "time": 113.45000000000032,
          "velocity": 0.48031496062992124,
          "duration": 0.09000000000000341
        },
        {
          "name": "F3",
          "midi": 53,
          "time": 113.72500000000032,
          "velocity": 0.48031496062992124,
          "duration": 0.09000000000000341
        },
        {
          "name": "A3",
          "midi": 57,
          "time": 113.74500000000032,
          "velocity": 0.48031496062992124,
          "duration": 0.09000000000000341
        },
        {
          "name": "C4",
          "midi": 60,
          "time": 113.76000000000032,
          "velocity": 0.48031496062992124,
          "duration": 0.09000000000000341
        },
        {
          "name": "F3",
          "midi": 53,
          "time": 113.99000000000032,
          "velocity": 0.48031496062992124,
          "duration": 0.09000000000000341
        },
        {
          "name": "A3",
          "midi": 57,
          "time": 114.01000000000032,
          "velocity": 0.48031496062992124,
          "duration": 0.09000000000000341
        },
        {
          "name": "C4",
          "midi": 60,
          "time": 114.02500000000032,
          "velocity": 0.48031496062992124,
          "duration": 0.09000000000000341
        },
        {
          "name": "F3",
          "midi": 53,
          "time": 114.28500000000032,
          "velocity": 0.48031496062992124,
          "duration": 0.09000000000000341
        },
        {
          "name": "A3",
          "midi": 57,
          "time": 114.30500000000032,
          "velocity": 0.48031496062992124,
          "duration": 0.09000000000000341
        },
        {
          "name": "C4",
          "midi": 60,
          "time": 114.32000000000032,
          "velocity": 0.48031496062992124,
          "duration": 0.09000000000000341
        },
        {
          "name": "F3",
          "midi": 53,
          "time": 114.59500000000033,
          "velocity": 0.48031496062992124,
          "duration": 0.09000000000000341
        },
        {
          "name": "A3",
          "midi": 57,
          "time": 114.61500000000032,
          "velocity": 0.48031496062992124,
          "duration": 0.09000000000000341
        },
        {
          "name": "C4",
          "midi": 60,
          "time": 114.63000000000032,
          "velocity": 0.48031496062992124,
          "duration": 0.09000000000000341
        },
        {
          "name": "F3",
          "midi": 53,
          "time": 114.91000000000032,
          "velocity": 0.48031496062992124,
          "duration": 0.09000000000000341
        },
        {
          "name": "A3",
          "midi": 57,
          "time": 114.93000000000032,
          "velocity": 0.48031496062992124,
          "duration": 0.09000000000000341
        },
        {
          "name": "C4",
          "midi": 60,
          "time": 114.94500000000032,
          "velocity": 0.48031496062992124,
          "duration": 0.09000000000000341
        },
        {
          "name": "A3",
          "midi": 57,
          "time": 115.21500000000033,
          "velocity": 0.48031496062992124,
          "duration": 0.09000000000000341
        },
        {
          "name": "F4",
          "midi": 65,
          "time": 115.22500000000034,
          "velocity": 0.48031496062992124,
          "duration": 0.09000000000000341
        },
        {
          "name": "C4",
          "midi": 60,
          "time": 115.23000000000033,
          "velocity": 0.48031496062992124,
          "duration": 0.09000000000000341
        },
        {
          "name": "F3",
          "midi": 53,
          "time": 115.48000000000033,
          "velocity": 0.48031496062992124,
          "duration": 0.0899999999999892
        },
        {
          "name": "F4",
          "midi": 65,
          "time": 115.50000000000033,
          "velocity": 0.48031496062992124,
          "duration": 0.0899999999999892
        },
        {
          "name": "A3",
          "midi": 57,
          "time": 115.50500000000032,
          "velocity": 0.48031496062992124,
          "duration": 0.0899999999999892
        },
        {
          "name": "A3",
          "midi": 57,
          "time": 115.81000000000031,
          "velocity": 0.48031496062992124,
          "duration": 0.09000000000000341
        },
        {
          "name": "F4",
          "midi": 65,
          "time": 115.81500000000031,
          "velocity": 0.48031496062992124,
          "duration": 0.09000000000000341
        },
        {
          "name": "C4",
          "midi": 60,
          "time": 115.82500000000032,
          "velocity": 0.48031496062992124,
          "duration": 0.09000000000000341
        },
        {
          "name": "F3",
          "midi": 53,
          "time": 116.07500000000032,
          "velocity": 0.48031496062992124,
          "duration": 0.09000000000000341
        },
        {
          "name": "F4",
          "midi": 65,
          "time": 116.08500000000032,
          "velocity": 0.48031496062992124,
          "duration": 0.09000000000000341
        },
        {
          "name": "A3",
          "midi": 57,
          "time": 116.10000000000032,
          "velocity": 0.48031496062992124,
          "duration": 0.09000000000000341
        },
        {
          "name": "A3",
          "midi": 57,
          "time": 116.39500000000032,
          "velocity": 0.48031496062992124,
          "duration": 0.09000000000000341
        },
        {
          "name": "C4",
          "midi": 60,
          "time": 116.41000000000032,
          "velocity": 0.48031496062992124,
          "duration": 0.09000000000000341
        },
        {
          "name": "F4",
          "midi": 65,
          "time": 116.42000000000033,
          "velocity": 0.48031496062992124,
          "duration": 0.09000000000000341
        },
        {
          "name": "F3",
          "midi": 53,
          "time": 116.69500000000033,
          "velocity": 0.48031496062992124,
          "duration": 0.09000000000000341
        },
        {
          "name": "F4",
          "midi": 65,
          "time": 116.69500000000033,
          "velocity": 0.48031496062992124,
          "duration": 0.09000000000000341
        },
        {
          "name": "A3",
          "midi": 57,
          "time": 116.72000000000034,
          "velocity": 0.48031496062992124,
          "duration": 0.09000000000000341
        },
        {
          "name": "A3",
          "midi": 57,
          "time": 116.99000000000035,
          "velocity": 0.48031496062992124,
          "duration": 0.0899999999999892
        },
        {
          "name": "C4",
          "midi": 60,
          "time": 117.00500000000035,
          "velocity": 0.48031496062992124,
          "duration": 0.0899999999999892
        },
        {
          "name": "F4",
          "midi": 65,
          "time": 117.01000000000035,
          "velocity": 0.48031496062992124,
          "duration": 0.0899999999999892
        },
        {
          "name": "F4",
          "midi": 65,
          "time": 117.28000000000034,
          "velocity": 0.48031496062992124,
          "duration": 0.09000000000000341
        },
        {
          "name": "F3",
          "midi": 53,
          "time": 117.28000000000034,
          "velocity": 0.48031496062992124,
          "duration": 0.09000000000000341
        },
        {
          "name": "A3",
          "midi": 57,
          "time": 117.30500000000035,
          "velocity": 0.48031496062992124,
          "duration": 0.09000000000000341
        },
        {
          "name": "A#3",
          "midi": 58,
          "time": 117.59000000000034,
          "velocity": 0.48031496062992124,
          "duration": 0.09000000000000341
        },
        {
          "name": "D4",
          "midi": 62,
          "time": 117.60500000000035,
          "velocity": 0.48031496062992124,
          "duration": 0.09000000000000341
        },
        {
          "name": "F3",
          "midi": 53,
          "time": 117.89000000000034,
          "velocity": 0.48031496062992124,
          "duration": 0.09000000000000341
        },
        {
          "name": "A#3",
          "midi": 58,
          "time": 117.91500000000035,
          "velocity": 0.48031496062992124,
          "duration": 0.09000000000000341
        },
        {
          "name": "A#3",
          "midi": 58,
          "time": 118.18500000000036,
          "velocity": 0.48031496062992124,
          "duration": 0.09000000000000341
        },
        {
          "name": "D4",
          "midi": 62,
          "time": 118.20000000000036,
          "velocity": 0.48031496062992124,
          "duration": 0.09000000000000341
        },
        {
          "name": "F3",
          "midi": 53,
          "time": 118.48000000000036,
          "velocity": 0.48031496062992124,
          "duration": 0.09000000000000341
        },
        {
          "name": "A#3",
          "midi": 58,
          "time": 118.50500000000036,
          "velocity": 0.48031496062992124,
          "duration": 0.09000000000000341
        },
        {
          "name": "A#3",
          "midi": 58,
          "time": 118.77000000000037,
          "velocity": 0.48031496062992124,
          "duration": 0.09000000000000341
        },
        {
          "name": "D4",
          "midi": 62,
          "time": 118.78500000000037,
          "velocity": 0.48031496062992124,
          "duration": 0.09000000000000341
        },
        {
          "name": "F3",
          "midi": 53,
          "time": 119.07000000000036,
          "velocity": 0.48031496062992124,
          "duration": 0.09000000000000341
        },
        {
          "name": "A#3",
          "midi": 58,
          "time": 119.09500000000037,
          "velocity": 0.48031496062992124,
          "duration": 0.09000000000000341
        },
        {
          "name": "A#3",
          "midi": 58,
          "time": 119.36500000000038,
          "velocity": 0.48031496062992124,
          "duration": 0.09000000000000341
        },
        {
          "name": "D4",
          "midi": 62,
          "time": 119.38000000000038,
          "velocity": 0.48031496062992124,
          "duration": 0.09000000000000341
        },
        {
          "name": "F3",
          "midi": 53,
          "time": 119.65500000000038,
          "velocity": 0.48031496062992124,
          "duration": 0.09000000000000341
        },
        {
          "name": "A#3",
          "midi": 58,
          "time": 119.68000000000039,
          "velocity": 0.48031496062992124,
          "duration": 0.09000000000000341
        },
        {
          "name": "F3",
          "midi": 53,
          "time": 119.97500000000039,
          "velocity": 0.48031496062992124,
          "duration": 0.09000000000000341
        },
        {
          "name": "A3",
          "midi": 57,
          "time": 119.99500000000039,
          "velocity": 0.48031496062992124,
          "duration": 0.09000000000000341
        },
        {
          "name": "C4",
          "midi": 60,
          "time": 120.01000000000039,
          "velocity": 0.48031496062992124,
          "duration": 0.09000000000000341
        },
        {
          "name": "F3",
          "midi": 53,
          "time": 120.2700000000004,
          "velocity": 0.48031496062992124,
          "duration": 0.09000000000000341
        },
        {
          "name": "A3",
          "midi": 57,
          "time": 120.29000000000039,
          "velocity": 0.48031496062992124,
          "duration": 0.09000000000000341
        },
        {
          "name": "C4",
          "midi": 60,
          "time": 120.30500000000039,
          "velocity": 0.48031496062992124,
          "duration": 0.09000000000000341
        },
        {
          "name": "F3",
          "midi": 53,
          "time": 120.5800000000004,
          "velocity": 0.48031496062992124,
          "duration": 0.09000000000000341
        },
        {
          "name": "A3",
          "midi": 57,
          "time": 120.60000000000039,
          "velocity": 0.48031496062992124,
          "duration": 0.09000000000000341
        },
        {
          "name": "C4",
          "midi": 60,
          "time": 120.61500000000039,
          "velocity": 0.48031496062992124,
          "duration": 0.09000000000000341
        },
        {
          "name": "F3",
          "midi": 53,
          "time": 120.8950000000004,
          "velocity": 0.48031496062992124,
          "duration": 0.09000000000000341
        },
        {
          "name": "A3",
          "midi": 57,
          "time": 120.91500000000039,
          "velocity": 0.48031496062992124,
          "duration": 0.09000000000000341
        },
        {
          "name": "C4",
          "midi": 60,
          "time": 120.93000000000039,
          "velocity": 0.48031496062992124,
          "duration": 0.09000000000000341
        },
        {
          "name": "F3",
          "midi": 53,
          "time": 121.1900000000004,
          "velocity": 0.48031496062992124,
          "duration": 0.09000000000000341
        },
        {
          "name": "A3",
          "midi": 57,
          "time": 121.21000000000039,
          "velocity": 0.48031496062992124,
          "duration": 0.09000000000000341
        },
        {
          "name": "C4",
          "midi": 60,
          "time": 121.22500000000039,
          "velocity": 0.48031496062992124,
          "duration": 0.09000000000000341
        },
        {
          "name": "F3",
          "midi": 53,
          "time": 121.5000000000004,
          "velocity": 0.48031496062992124,
          "duration": 0.09000000000000341
        },
        {
          "name": "A3",
          "midi": 57,
          "time": 121.5200000000004,
          "velocity": 0.48031496062992124,
          "duration": 0.09000000000000341
        },
        {
          "name": "C4",
          "midi": 60,
          "time": 121.5350000000004,
          "velocity": 0.48031496062992124,
          "duration": 0.09000000000000341
        },
        {
          "name": "F3",
          "midi": 53,
          "time": 121.7900000000004,
          "velocity": 0.48031496062992124,
          "duration": 0.09000000000000341
        },
        {
          "name": "A3",
          "midi": 57,
          "time": 121.8100000000004,
          "velocity": 0.48031496062992124,
          "duration": 0.09000000000000341
        },
        {
          "name": "C4",
          "midi": 60,
          "time": 121.8250000000004,
          "velocity": 0.48031496062992124,
          "duration": 0.09000000000000341
        },
        {
          "name": "F3",
          "midi": 53,
          "time": 122.0850000000004,
          "velocity": 0.48031496062992124,
          "duration": 0.09000000000000341
        },
        {
          "name": "A3",
          "midi": 57,
          "time": 122.1050000000004,
          "velocity": 0.48031496062992124,
          "duration": 0.09000000000000341
        },
        {
          "name": "C4",
          "midi": 60,
          "time": 122.1200000000004,
          "velocity": 0.48031496062992124,
          "duration": 0.09000000000000341
        },
        {
          "name": "F3",
          "midi": 53,
          "time": 122.39500000000041,
          "velocity": 0.48031496062992124,
          "duration": 0.09000000000000341
        },
        {
          "name": "A3",
          "midi": 57,
          "time": 122.4150000000004,
          "velocity": 0.48031496062992124,
          "duration": 0.09000000000000341
        },
        {
          "name": "C4",
          "midi": 60,
          "time": 122.4300000000004,
          "velocity": 0.48031496062992124,
          "duration": 0.09000000000000341
        },
        {
          "name": "F3",
          "midi": 53,
          "time": 122.72000000000041,
          "velocity": 0.48031496062992124,
          "duration": 0.09000000000000341
        },
        {
          "name": "A3",
          "midi": 57,
          "time": 122.7400000000004,
          "velocity": 0.48031496062992124,
          "duration": 0.09000000000000341
        },
        {
          "name": "C4",
          "midi": 60,
          "time": 122.75500000000041,
          "velocity": 0.48031496062992124,
          "duration": 0.09000000000000341
        },
        {
          "name": "F3",
          "midi": 53,
          "time": 123.01500000000041,
          "velocity": 0.48031496062992124,
          "duration": 0.09000000000000341
        },
        {
          "name": "A3",
          "midi": 57,
          "time": 123.03500000000041,
          "velocity": 0.48031496062992124,
          "duration": 0.09000000000000341
        },
        {
          "name": "C4",
          "midi": 60,
          "time": 123.05000000000041,
          "velocity": 0.48031496062992124,
          "duration": 0.09000000000000341
        },
        {
          "name": "F3",
          "midi": 53,
          "time": 123.32500000000041,
          "velocity": 0.48031496062992124,
          "duration": 0.09000000000000341
        },
        {
          "name": "A3",
          "midi": 57,
          "time": 123.34500000000041,
          "velocity": 0.48031496062992124,
          "duration": 0.09000000000000341
        },
        {
          "name": "C4",
          "midi": 60,
          "time": 123.36000000000041,
          "velocity": 0.48031496062992124,
          "duration": 0.09000000000000341
        },
        {
          "name": "F3",
          "midi": 53,
          "time": 123.59000000000042,
          "velocity": 0.48031496062992124,
          "duration": 0.09000000000000341
        },
        {
          "name": "A3",
          "midi": 57,
          "time": 123.61000000000041,
          "velocity": 0.48031496062992124,
          "duration": 0.09000000000000341
        },
        {
          "name": "C4",
          "midi": 60,
          "time": 123.62500000000041,
          "velocity": 0.48031496062992124,
          "duration": 0.09000000000000341
        },
        {
          "name": "F3",
          "midi": 53,
          "time": 123.88500000000042,
          "velocity": 0.48031496062992124,
          "duration": 0.09000000000000341
        },
        {
          "name": "A3",
          "midi": 57,
          "time": 123.90500000000041,
          "velocity": 0.48031496062992124,
          "duration": 0.09000000000000341
        },
        {
          "name": "C4",
          "midi": 60,
          "time": 123.92000000000041,
          "velocity": 0.48031496062992124,
          "duration": 0.09000000000000341
        },
        {
          "name": "F3",
          "midi": 53,
          "time": 124.19500000000042,
          "velocity": 0.48031496062992124,
          "duration": 0.09000000000000341
        },
        {
          "name": "A3",
          "midi": 57,
          "time": 124.21500000000042,
          "velocity": 0.48031496062992124,
          "duration": 0.09000000000000341
        },
        {
          "name": "C4",
          "midi": 60,
          "time": 124.23000000000042,
          "velocity": 0.48031496062992124,
          "duration": 0.09000000000000341
        },
        {
          "name": "F3",
          "midi": 53,
          "time": 124.51000000000042,
          "velocity": 0.48031496062992124,
          "duration": 0.09000000000000341
        },
        {
          "name": "A3",
          "midi": 57,
          "time": 124.53000000000041,
          "velocity": 0.48031496062992124,
          "duration": 0.09000000000000341
        },
        {
          "name": "C4",
          "midi": 60,
          "time": 124.54500000000041,
          "velocity": 0.48031496062992124,
          "duration": 0.09000000000000341
        },
        {
          "name": "F3",
          "midi": 53,
          "time": 124.78000000000041,
          "velocity": 0.48031496062992124,
          "duration": 0.09000000000000341
        },
        {
          "name": "A3",
          "midi": 57,
          "time": 124.81500000000041,
          "velocity": 0.48031496062992124,
          "duration": 0.09000000000000341
        },
        {
          "name": "F4",
          "midi": 65,
          "time": 124.82500000000041,
          "velocity": 0.48031496062992124,
          "duration": 0.09000000000000341
        },
        {
          "name": "C4",
          "midi": 60,
          "time": 124.83000000000041,
          "velocity": 0.48031496062992124,
          "duration": 0.09000000000000341
        },
        {
          "name": "F3",
          "midi": 53,
          "time": 125.08000000000041,
          "velocity": 0.48031496062992124,
          "duration": 0.0899999999999892
        },
        {
          "name": "F4",
          "midi": 65,
          "time": 125.1000000000004,
          "velocity": 0.48031496062992124,
          "duration": 0.0899999999999892
        },
        {
          "name": "A3",
          "midi": 57,
          "time": 125.1050000000004,
          "velocity": 0.48031496062992124,
          "duration": 0.0899999999999892
        },
        {
          "name": "A3",
          "midi": 57,
          "time": 125.4100000000004,
          "velocity": 0.48031496062992124,
          "duration": 0.09000000000000341
        },
        {
          "name": "F4",
          "midi": 65,
          "time": 125.41500000000039,
          "velocity": 0.48031496062992124,
          "duration": 0.09000000000000341
        },
        {
          "name": "C4",
          "midi": 60,
          "time": 125.4250000000004,
          "velocity": 0.48031496062992124,
          "duration": 0.09000000000000341
        },
        {
          "name": "F3",
          "midi": 53,
          "time": 125.6750000000004,
          "velocity": 0.48031496062992124,
          "duration": 0.09000000000000341
        },
        {
          "name": "F4",
          "midi": 65,
          "time": 125.6850000000004,
          "velocity": 0.48031496062992124,
          "duration": 0.09000000000000341
        },
        {
          "name": "A3",
          "midi": 57,
          "time": 125.7000000000004,
          "velocity": 0.48031496062992124,
          "duration": 0.09000000000000341
        },
        {
          "name": "A3",
          "midi": 57,
          "time": 125.9950000000004,
          "velocity": 0.48031496062992124,
          "duration": 0.09000000000000341
        },
        {
          "name": "C4",
          "midi": 60,
          "time": 126.0100000000004,
          "velocity": 0.48031496062992124,
          "duration": 0.09000000000000341
        },
        {
          "name": "F4",
          "midi": 65,
          "time": 126.02000000000041,
          "velocity": 0.48031496062992124,
          "duration": 0.09000000000000341
        },
        {
          "name": "F3",
          "midi": 53,
          "time": 126.29500000000041,
          "velocity": 0.48031496062992124,
          "duration": 0.09000000000000341
        },
        {
          "name": "F4",
          "midi": 65,
          "time": 126.29500000000041,
          "velocity": 0.48031496062992124,
          "duration": 0.09000000000000341
        },
        {
          "name": "A3",
          "midi": 57,
          "time": 126.32000000000042,
          "velocity": 0.48031496062992124,
          "duration": 0.09000000000000341
        },
        {
          "name": "A3",
          "midi": 57,
          "time": 126.59000000000043,
          "velocity": 0.48031496062992124,
          "duration": 0.0899999999999892
        },
        {
          "name": "C4",
          "midi": 60,
          "time": 126.60500000000043,
          "velocity": 0.48031496062992124,
          "duration": 0.0899999999999892
        },
        {
          "name": "F4",
          "midi": 65,
          "time": 126.61000000000043,
          "velocity": 0.48031496062992124,
          "duration": 0.0899999999999892
        },
        {
          "name": "F4",
          "midi": 65,
          "time": 126.88000000000042,
          "velocity": 0.48031496062992124,
          "duration": 0.09000000000000341
        },
        {
          "name": "F3",
          "midi": 53,
          "time": 126.88000000000042,
          "velocity": 0.48031496062992124,
          "duration": 0.09000000000000341
        },
        {
          "name": "A3",
          "midi": 57,
          "time": 126.90500000000043,
          "velocity": 0.48031496062992124,
          "duration": 0.09000000000000341
        },
        {
          "name": "A#3",
          "midi": 58,
          "time": 127.19000000000042,
          "velocity": 0.48031496062992124,
          "duration": 0.09000000000000341
        },
        {
          "name": "D4",
          "midi": 62,
          "time": 127.20500000000042,
          "velocity": 0.48031496062992124,
          "duration": 0.09000000000000341
        },
        {
          "name": "F3",
          "midi": 53,
          "time": 127.49000000000042,
          "velocity": 0.48031496062992124,
          "duration": 0.09000000000000341
        },
        {
          "name": "A#3",
          "midi": 58,
          "time": 127.51500000000043,
          "velocity": 0.48031496062992124,
          "duration": 0.09000000000000341
        },
        {
          "name": "A#3",
          "midi": 58,
          "time": 127.78500000000044,
          "velocity": 0.48031496062992124,
          "duration": 0.09000000000000341
        },
        {
          "name": "D4",
          "midi": 62,
          "time": 127.80000000000044,
          "velocity": 0.48031496062992124,
          "duration": 0.09000000000000341
        },
        {
          "name": "F3",
          "midi": 53,
          "time": 128.08000000000044,
          "velocity": 0.48031496062992124,
          "duration": 0.09000000000000341
        },
        {
          "name": "A#3",
          "midi": 58,
          "time": 128.10500000000044,
          "velocity": 0.48031496062992124,
          "duration": 0.09000000000000341
        },
        {
          "name": "A#3",
          "midi": 58,
          "time": 128.37000000000046,
          "velocity": 0.48031496062992124,
          "duration": 0.08999999999997499
        },
        {
          "name": "D4",
          "midi": 62,
          "time": 128.38500000000045,
          "velocity": 0.48031496062992124,
          "duration": 0.08999999999997499
        },
        {
          "name": "F3",
          "midi": 53,
          "time": 128.6700000000004,
          "velocity": 0.48031496062992124,
          "duration": 0.09000000000000341
        },
        {
          "name": "A#3",
          "midi": 58,
          "time": 128.69500000000042,
          "velocity": 0.48031496062992124,
          "duration": 0.09000000000000341
        },
        {
          "name": "A#3",
          "midi": 58,
          "time": 128.96500000000043,
          "velocity": 0.48031496062992124,
          "duration": 0.08999999999997499
        },
        {
          "name": "D4",
          "midi": 62,
          "time": 128.98000000000042,
          "velocity": 0.48031496062992124,
          "duration": 0.08999999999997499
        },
        {
          "name": "F3",
          "midi": 53,
          "time": 129.2550000000004,
          "velocity": 0.48031496062992124,
          "duration": 0.09000000000000341
        },
        {
          "name": "A#3",
          "midi": 58,
          "time": 129.2800000000004,
          "velocity": 0.48031496062992124,
          "duration": 0.09000000000000341
        },
        {
          "name": "F3",
          "midi": 53,
          "time": 129.57500000000041,
          "velocity": 0.48031496062992124,
          "duration": 0.09000000000000341
        },
        {
          "name": "A3",
          "midi": 57,
          "time": 129.59500000000043,
          "velocity": 0.48031496062992124,
          "duration": 0.09000000000000341
        },
        {
          "name": "C4",
          "midi": 60,
          "time": 129.6100000000004,
          "velocity": 0.48031496062992124,
          "duration": 0.09000000000000341
        },
        {
          "name": "F3",
          "midi": 53,
          "time": 129.8700000000004,
          "velocity": 0.48031496062992124,
          "duration": 0.09000000000000341
        },
        {
          "name": "A3",
          "midi": 57,
          "time": 129.8900000000004,
          "velocity": 0.48031496062992124,
          "duration": 0.09000000000000341
        },
        {
          "name": "C4",
          "midi": 60,
          "time": 129.9050000000004,
          "velocity": 0.48031496062992124,
          "duration": 0.09000000000000341
        },
        {
          "name": "F3",
          "midi": 53,
          "time": 130.1800000000004,
          "velocity": 0.48031496062992124,
          "duration": 0.09000000000000341
        },
        {
          "name": "A3",
          "midi": 57,
          "time": 130.20000000000041,
          "velocity": 0.48031496062992124,
          "duration": 0.09000000000000341
        },
        {
          "name": "C4",
          "midi": 60,
          "time": 130.2150000000004,
          "velocity": 0.48031496062992124,
          "duration": 0.09000000000000341
        },
        {
          "name": "F3",
          "midi": 53,
          "time": 130.4950000000004,
          "velocity": 0.48031496062992124,
          "duration": 0.09000000000000341
        },
        {
          "name": "A3",
          "midi": 57,
          "time": 130.5150000000004,
          "velocity": 0.48031496062992124,
          "duration": 0.09000000000000341
        },
        {
          "name": "C4",
          "midi": 60,
          "time": 130.5300000000004,
          "velocity": 0.48031496062992124,
          "duration": 0.09000000000000341
        },
        {
          "name": "F3",
          "midi": 53,
          "time": 130.7900000000004,
          "velocity": 0.48031496062992124,
          "duration": 0.09000000000000341
        },
        {
          "name": "A3",
          "midi": 57,
          "time": 130.8100000000004,
          "velocity": 0.48031496062992124,
          "duration": 0.09000000000000341
        },
        {
          "name": "C4",
          "midi": 60,
          "time": 130.8250000000004,
          "velocity": 0.48031496062992124,
          "duration": 0.09000000000000341
        },
        {
          "name": "F3",
          "midi": 53,
          "time": 131.1000000000004,
          "velocity": 0.48031496062992124,
          "duration": 0.09000000000000341
        },
        {
          "name": "A3",
          "midi": 57,
          "time": 131.1200000000004,
          "velocity": 0.48031496062992124,
          "duration": 0.09000000000000341
        },
        {
          "name": "C4",
          "midi": 60,
          "time": 131.1350000000004,
          "velocity": 0.48031496062992124,
          "duration": 0.09000000000000341
        },
        {
          "name": "F3",
          "midi": 53,
          "time": 131.39000000000038,
          "velocity": 0.48031496062992124,
          "duration": 0.09000000000000341
        },
        {
          "name": "A3",
          "midi": 57,
          "time": 131.4100000000004,
          "velocity": 0.48031496062992124,
          "duration": 0.09000000000000341
        },
        {
          "name": "C4",
          "midi": 60,
          "time": 131.42500000000038,
          "velocity": 0.48031496062992124,
          "duration": 0.09000000000000341
        },
        {
          "name": "F3",
          "midi": 53,
          "time": 131.68500000000037,
          "velocity": 0.48031496062992124,
          "duration": 0.09000000000000341
        },
        {
          "name": "A3",
          "midi": 57,
          "time": 131.70500000000038,
          "velocity": 0.48031496062992124,
          "duration": 0.09000000000000341
        },
        {
          "name": "C4",
          "midi": 60,
          "time": 131.72000000000037,
          "velocity": 0.48031496062992124,
          "duration": 0.09000000000000341
        },
        {
          "name": "F3",
          "midi": 53,
          "time": 131.99500000000037,
          "velocity": 0.48031496062992124,
          "duration": 0.09000000000000341
        },
        {
          "name": "A3",
          "midi": 57,
          "time": 132.01500000000038,
          "velocity": 0.48031496062992124,
          "duration": 0.09000000000000341
        },
        {
          "name": "C4",
          "midi": 60,
          "time": 132.03000000000037,
          "velocity": 0.48031496062992124,
          "duration": 0.09000000000000341
        },
        {
          "name": "F3",
          "midi": 53,
          "time": 132.32000000000036,
          "velocity": 0.48031496062992124,
          "duration": 0.09000000000000341
        },
        {
          "name": "A3",
          "midi": 57,
          "time": 132.34000000000037,
          "velocity": 0.48031496062992124,
          "duration": 0.09000000000000341
        },
        {
          "name": "C4",
          "midi": 60,
          "time": 132.35500000000036,
          "velocity": 0.48031496062992124,
          "duration": 0.09000000000000341
        },
        {
          "name": "F3",
          "midi": 53,
          "time": 132.61500000000035,
          "velocity": 0.48031496062992124,
          "duration": 0.09000000000000341
        },
        {
          "name": "A3",
          "midi": 57,
          "time": 132.63500000000036,
          "velocity": 0.48031496062992124,
          "duration": 0.09000000000000341
        },
        {
          "name": "C4",
          "midi": 60,
          "time": 132.65000000000035,
          "velocity": 0.48031496062992124,
          "duration": 0.09000000000000341
        },
        {
          "name": "F3",
          "midi": 53,
          "time": 132.92500000000035,
          "velocity": 0.48031496062992124,
          "duration": 0.09000000000000341
        },
        {
          "name": "A3",
          "midi": 57,
          "time": 132.94500000000036,
          "velocity": 0.48031496062992124,
          "duration": 0.09000000000000341
        },
        {
          "name": "C4",
          "midi": 60,
          "time": 132.96000000000035,
          "velocity": 0.48031496062992124,
          "duration": 0.09000000000000341
        },
        {
          "name": "F3",
          "midi": 53,
          "time": 133.19000000000034,
          "velocity": 0.48031496062992124,
          "duration": 0.09000000000000341
        },
        {
          "name": "A3",
          "midi": 57,
          "time": 133.21000000000035,
          "velocity": 0.48031496062992124,
          "duration": 0.09000000000000341
        },
        {
          "name": "C4",
          "midi": 60,
          "time": 133.22500000000034,
          "velocity": 0.48031496062992124,
          "duration": 0.09000000000000341
        },
        {
          "name": "F3",
          "midi": 53,
          "time": 133.48500000000033,
          "velocity": 0.48031496062992124,
          "duration": 0.09000000000000341
        },
        {
          "name": "A3",
          "midi": 57,
          "time": 133.50500000000034,
          "velocity": 0.48031496062992124,
          "duration": 0.09000000000000341
        },
        {
          "name": "C4",
          "midi": 60,
          "time": 133.52000000000032,
          "velocity": 0.48031496062992124,
          "duration": 0.09000000000000341
        },
        {
          "name": "F3",
          "midi": 53,
          "time": 133.79500000000033,
          "velocity": 0.48031496062992124,
          "duration": 0.09000000000000341
        },
        {
          "name": "A3",
          "midi": 57,
          "time": 133.81500000000034,
          "velocity": 0.48031496062992124,
          "duration": 0.09000000000000341
        },
        {
          "name": "C4",
          "midi": 60,
          "time": 133.83000000000033,
          "velocity": 0.48031496062992124,
          "duration": 0.09000000000000341
        },
        {
          "name": "F3",
          "midi": 53,
          "time": 134.11000000000033,
          "velocity": 0.48031496062992124,
          "duration": 0.09000000000000341
        },
        {
          "name": "A3",
          "midi": 57,
          "time": 134.13000000000034,
          "velocity": 0.48031496062992124,
          "duration": 0.09000000000000341
        },
        {
          "name": "C4",
          "midi": 60,
          "time": 134.14500000000032,
          "velocity": 0.48031496062992124,
          "duration": 0.09000000000000341
        },
        {
          "name": "A3",
          "midi": 57,
          "time": 134.41500000000033,
          "velocity": 0.48031496062992124,
          "duration": 0.08999999999997499
        },
        {
          "name": "F4",
          "midi": 65,
          "time": 134.42500000000032,
          "velocity": 0.48031496062992124,
          "duration": 0.08999999999997499
        },
        {
          "name": "C4",
          "midi": 60,
          "time": 134.43000000000032,
          "velocity": 0.48031496062992124,
          "duration": 0.08999999999997499
        },
        {
          "name": "F3",
          "midi": 53,
          "time": 134.6800000000003,
          "velocity": 0.48031496062992124,
          "duration": 0.09000000000000341
        },
        {
          "name": "F4",
          "midi": 65,
          "time": 134.7000000000003,
          "velocity": 0.48031496062992124,
          "duration": 0.09000000000000341
        },
        {
          "name": "A3",
          "midi": 57,
          "time": 134.7050000000003,
          "velocity": 0.48031496062992124,
          "duration": 0.09000000000000341
        },
        {
          "name": "A3",
          "midi": 57,
          "time": 135.0100000000003,
          "velocity": 0.48031496062992124,
          "duration": 0.08999999999997499
        },
        {
          "name": "F4",
          "midi": 65,
          "time": 135.0150000000003,
          "velocity": 0.48031496062992124,
          "duration": 0.08999999999997499
        },
        {
          "name": "C4",
          "midi": 60,
          "time": 135.0250000000003,
          "velocity": 0.48031496062992124,
          "duration": 0.08999999999997499
        },
        {
          "name": "F3",
          "midi": 53,
          "time": 135.27500000000026,
          "velocity": 0.48031496062992124,
          "duration": 0.08999999999997499
        },
        {
          "name": "F4",
          "midi": 65,
          "time": 135.28500000000025,
          "velocity": 0.48031496062992124,
          "duration": 0.08999999999997499
        },
        {
          "name": "A3",
          "midi": 57,
          "time": 135.30000000000024,
          "velocity": 0.48031496062992124,
          "duration": 0.08999999999997499
        },
        {
          "name": "A3",
          "midi": 57,
          "time": 135.59500000000023,
          "velocity": 0.48031496062992124,
          "duration": 0.08999999999997499
        },
        {
          "name": "C4",
          "midi": 60,
          "time": 135.6100000000002,
          "velocity": 0.48031496062992124,
          "duration": 0.08999999999997499
        },
        {
          "name": "F4",
          "midi": 65,
          "time": 135.6200000000002,
          "velocity": 0.48031496062992124,
          "duration": 0.08999999999997499
        },
        {
          "name": "F3",
          "midi": 53,
          "time": 135.89500000000018,
          "velocity": 0.48031496062992124,
          "duration": 0.09000000000000341
        },
        {
          "name": "F4",
          "midi": 65,
          "time": 135.89500000000018,
          "velocity": 0.48031496062992124,
          "duration": 0.09000000000000341
        },
        {
          "name": "A3",
          "midi": 57,
          "time": 135.9200000000002,
          "velocity": 0.48031496062992124,
          "duration": 0.09000000000000341
        },
        {
          "name": "A3",
          "midi": 57,
          "time": 136.1900000000002,
          "velocity": 0.48031496062992124,
          "duration": 0.08999999999997499
        },
        {
          "name": "C4",
          "midi": 60,
          "time": 136.20500000000018,
          "velocity": 0.48031496062992124,
          "duration": 0.08999999999997499
        },
        {
          "name": "F4",
          "midi": 65,
          "time": 136.21000000000018,
          "velocity": 0.48031496062992124,
          "duration": 0.08999999999997499
        },
        {
          "name": "F4",
          "midi": 65,
          "time": 136.48000000000016,
          "velocity": 0.48031496062992124,
          "duration": 0.09000000000000341
        },
        {
          "name": "F3",
          "midi": 53,
          "time": 136.48000000000016,
          "velocity": 0.48031496062992124,
          "duration": 0.09000000000000341
        },
        {
          "name": "A3",
          "midi": 57,
          "time": 136.50500000000017,
          "velocity": 0.48031496062992124,
          "duration": 0.09000000000000341
        },
        {
          "name": "A#3",
          "midi": 58,
          "time": 136.79000000000016,
          "velocity": 0.48031496062992124,
          "duration": 0.08999999999997499
        },
        {
          "name": "D4",
          "midi": 62,
          "time": 136.80500000000015,
          "velocity": 0.48031496062992124,
          "duration": 0.08999999999997499
        },
        {
          "name": "F3",
          "midi": 53,
          "time": 137.09000000000012,
          "velocity": 0.48031496062992124,
          "duration": 0.09000000000000341
        },
        {
          "name": "A#3",
          "midi": 58,
          "time": 137.11500000000012,
          "velocity": 0.48031496062992124,
          "duration": 0.09000000000000341
        },
        {
          "name": "A#3",
          "midi": 58,
          "time": 137.38500000000013,
          "velocity": 0.48031496062992124,
          "duration": 0.08999999999997499
        },
        {
          "name": "D4",
          "midi": 62,
          "time": 137.40000000000012,
          "velocity": 0.48031496062992124,
          "duration": 0.08999999999997499
        },
        {
          "name": "F3",
          "midi": 53,
          "time": 137.6800000000001,
          "velocity": 0.48031496062992124,
          "duration": 0.09000000000000341
        },
        {
          "name": "A#3",
          "midi": 58,
          "time": 137.7050000000001,
          "velocity": 0.48031496062992124,
          "duration": 0.09000000000000341
        },
        {
          "name": "A#3",
          "midi": 58,
          "time": 137.9700000000001,
          "velocity": 0.48031496062992124,
          "duration": 0.08999999999997499
        },
        {
          "name": "D4",
          "midi": 62,
          "time": 137.9850000000001,
          "velocity": 0.48031496062992124,
          "duration": 0.08999999999997499
        },
        {
          "name": "F3",
          "midi": 53,
          "time": 138.27000000000007,
          "velocity": 0.48031496062992124,
          "duration": 0.09000000000000341
        },
        {
          "name": "A#3",
          "midi": 58,
          "time": 138.29500000000007,
          "velocity": 0.48031496062992124,
          "duration": 0.09000000000000341
        },
        {
          "name": "A#3",
          "midi": 58,
          "time": 138.56500000000008,
          "velocity": 0.48031496062992124,
          "duration": 0.08999999999997499
        },
        {
          "name": "D4",
          "midi": 62,
          "time": 138.58000000000007,
          "velocity": 0.48031496062992124,
          "duration": 0.08999999999997499
        },
        {
          "name": "F3",
          "midi": 53,
          "time": 138.85500000000005,
          "velocity": 0.48031496062992124,
          "duration": 0.09000000000000341
        },
        {
          "name": "A#3",
          "midi": 58,
          "time": 138.88000000000005,
          "velocity": 0.48031496062992124,
          "duration": 0.09000000000000341
        },
        {
          "name": "F3",
          "midi": 53,
          "time": 139.17500000000007,
          "velocity": 0.48031496062992124,
          "duration": 0.09000000000000341
        },
        {
          "name": "A3",
          "midi": 57,
          "time": 139.19500000000008,
          "velocity": 0.48031496062992124,
          "duration": 0.09000000000000341
        },
        {
          "name": "C4",
          "midi": 60,
          "time": 139.21000000000006,
          "velocity": 0.48031496062992124,
          "duration": 0.09000000000000341
        },
        {
          "name": "F3",
          "midi": 53,
          "time": 139.47000000000006,
          "velocity": 0.48031496062992124,
          "duration": 0.09000000000000341
        },
        {
          "name": "A3",
          "midi": 57,
          "time": 139.49000000000007,
          "velocity": 0.48031496062992124,
          "duration": 0.09000000000000341
        },
        {
          "name": "C4",
          "midi": 60,
          "time": 139.50500000000005,
          "velocity": 0.48031496062992124,
          "duration": 0.09000000000000341
        },
        {
          "name": "F3",
          "midi": 53,
          "time": 139.78000000000006,
          "velocity": 0.48031496062992124,
          "duration": 0.09000000000000341
        },
        {
          "name": "A3",
          "midi": 57,
          "time": 139.80000000000007,
          "velocity": 0.48031496062992124,
          "duration": 0.09000000000000341
        },
        {
          "name": "C4",
          "midi": 60,
          "time": 139.81500000000005,
          "velocity": 0.48031496062992124,
          "duration": 0.09000000000000341
        },
        {
          "name": "F3",
          "midi": 53,
          "time": 140.09500000000006,
          "velocity": 0.48031496062992124,
          "duration": 0.09000000000000341
        },
        {
          "name": "A3",
          "midi": 57,
          "time": 140.11500000000007,
          "velocity": 0.48031496062992124,
          "duration": 0.09000000000000341
        },
        {
          "name": "C4",
          "midi": 60,
          "time": 140.13000000000005,
          "velocity": 0.48031496062992124,
          "duration": 0.09000000000000341
        },
        {
          "name": "F3",
          "midi": 53,
          "time": 140.39000000000004,
          "velocity": 0.48031496062992124,
          "duration": 0.09000000000000341
        },
        {
          "name": "A3",
          "midi": 57,
          "time": 140.41000000000005,
          "velocity": 0.48031496062992124,
          "duration": 0.09000000000000341
        },
        {
          "name": "C4",
          "midi": 60,
          "time": 140.42500000000004,
          "velocity": 0.48031496062992124,
          "duration": 0.09000000000000341
        },
        {
          "name": "F3",
          "midi": 53,
          "time": 140.70000000000005,
          "velocity": 0.48031496062992124,
          "duration": 0.09000000000000341
        },
        {
          "name": "A3",
          "midi": 57,
          "time": 140.72000000000006,
          "velocity": 0.48031496062992124,
          "duration": 0.09000000000000341
        },
        {
          "name": "C4",
          "midi": 60,
          "time": 140.73500000000004,
          "velocity": 0.48031496062992124,
          "duration": 0.09000000000000341
        },
        {
          "name": "F3",
          "midi": 53,
          "time": 140.99000000000004,
          "velocity": 0.48031496062992124,
          "duration": 0.09000000000000341
        },
        {
          "name": "A3",
          "midi": 57,
          "time": 141.01000000000005,
          "velocity": 0.48031496062992124,
          "duration": 0.09000000000000341
        },
        {
          "name": "C4",
          "midi": 60,
          "time": 141.02500000000003,
          "velocity": 0.48031496062992124,
          "duration": 0.09000000000000341
        },
        {
          "name": "F3",
          "midi": 53,
          "time": 141.28500000000003,
          "velocity": 0.48031496062992124,
          "duration": 0.09000000000000341
        },
        {
          "name": "A3",
          "midi": 57,
          "time": 141.30500000000004,
          "velocity": 0.48031496062992124,
          "duration": 0.09000000000000341
        },
        {
          "name": "C4",
          "midi": 60,
          "time": 141.32000000000002,
          "velocity": 0.48031496062992124,
          "duration": 0.09000000000000341
        },
        {
          "name": "F3",
          "midi": 53,
          "time": 141.59500000000003,
          "velocity": 0.48031496062992124,
          "duration": 0.09000000000000341
        },
        {
          "name": "A3",
          "midi": 57,
          "time": 141.61500000000004,
          "velocity": 0.48031496062992124,
          "duration": 0.09000000000000341
        },
        {
          "name": "C4",
          "midi": 60,
          "time": 141.63000000000002,
          "velocity": 0.48031496062992124,
          "duration": 0.09000000000000341
        },
        {
          "name": "F3",
          "midi": 53,
          "time": 141.92000000000002,
          "velocity": 0.48031496062992124,
          "duration": 0.09000000000000341
        },
        {
          "name": "A3",
          "midi": 57,
          "time": 141.94000000000003,
          "velocity": 0.48031496062992124,
          "duration": 0.09000000000000341
        },
        {
          "name": "C4",
          "midi": 60,
          "time": 141.955,
          "velocity": 0.48031496062992124,
          "duration": 0.09000000000000341
        },
        {
          "name": "F3",
          "midi": 53,
          "time": 142.215,
          "velocity": 0.48031496062992124,
          "duration": 0.09000000000000341
        },
        {
          "name": "A3",
          "midi": 57,
          "time": 142.235,
          "velocity": 0.48031496062992124,
          "duration": 0.09000000000000341
        },
        {
          "name": "C4",
          "midi": 60,
          "time": 142.25,
          "velocity": 0.48031496062992124,
          "duration": 0.09000000000000341
        },
        {
          "name": "F3",
          "midi": 53,
          "time": 142.525,
          "velocity": 0.48031496062992124,
          "duration": 0.09000000000000341
        },
        {
          "name": "A3",
          "midi": 57,
          "time": 142.54500000000002,
          "velocity": 0.48031496062992124,
          "duration": 0.09000000000000341
        },
        {
          "name": "C4",
          "midi": 60,
          "time": 142.56,
          "velocity": 0.48031496062992124,
          "duration": 0.09000000000000341
        },
        {
          "name": "F3",
          "midi": 53,
          "time": 142.79,
          "velocity": 0.48031496062992124,
          "duration": 0.09000000000000341
        },
        {
          "name": "A3",
          "midi": 57,
          "time": 142.81,
          "velocity": 0.48031496062992124,
          "duration": 0.09000000000000341
        },
        {
          "name": "C4",
          "midi": 60,
          "time": 142.825,
          "velocity": 0.48031496062992124,
          "duration": 0.09000000000000341
        },
        {
          "name": "E4",
          "midi": 64,
          "time": 142.82999999999998,
          "velocity": 0.48031496062992124,
          "duration": 0.09000000000000341
        },
        {
          "name": "F3",
          "midi": 53,
          "time": 143.08499999999998,
          "velocity": 0.48031496062992124,
          "duration": 0.09000000000000341
        },
        {
          "name": "A3",
          "midi": 57,
          "time": 143.105,
          "velocity": 0.48031496062992124,
          "duration": 0.09000000000000341
        },
        {
          "name": "E4",
          "midi": 64,
          "time": 143.11999999999998,
          "velocity": 0.48031496062992124,
          "duration": 0.09000000000000341
        },
        {
          "name": "C4",
          "midi": 60,
          "time": 143.11999999999998,
          "velocity": 0.48031496062992124,
          "duration": 0.09000000000000341
        },
        {
          "name": "F3",
          "midi": 53,
          "time": 143.39499999999998,
          "velocity": 0.48031496062992124,
          "duration": 0.09000000000000341
        },
        {
          "name": "A3",
          "midi": 57,
          "time": 143.415,
          "velocity": 0.48031496062992124,
          "duration": 0.09000000000000341
        },
        {
          "name": "E4",
          "midi": 64,
          "time": 143.42499999999998,
          "velocity": 0.48031496062992124,
          "duration": 0.09000000000000341
        },
        {
          "name": "C4",
          "midi": 60,
          "time": 143.42999999999998,
          "velocity": 0.48031496062992124,
          "duration": 0.09000000000000341
        },
        {
          "name": "F3",
          "midi": 53,
          "time": 143.68999999999997,
          "velocity": 0.48031496062992124,
          "duration": 0.08999999999997499
        },
        {
          "name": "A3",
          "midi": 57,
          "time": 143.70999999999998,
          "velocity": 0.48031496062992124,
          "duration": 0.08999999999997499
        },
        {
          "name": "C4",
          "midi": 60,
          "time": 143.72499999999997,
          "velocity": 0.48031496062992124,
          "duration": 0.08999999999997499
        },
        {
          "name": "E4",
          "midi": 64,
          "time": 143.73499999999996,
          "velocity": 0.48031496062992124,
          "duration": 0.08999999999997499
        },
        {
          "name": "F3",
          "midi": 53,
          "time": 143.83999999999992,
          "velocity": 0.48031496062992124,
          "duration": 0.08999999999997499
        },
        {
          "name": "A3",
          "midi": 57,
          "time": 143.85999999999993,
          "velocity": 0.48031496062992124,
          "duration": 0.08999999999997499
        },
        {
          "name": "C4",
          "midi": 60,
          "time": 143.87499999999991,
          "velocity": 0.48031496062992124,
          "duration": 0.08999999999997499
        },
        {
          "name": "E4",
          "midi": 64,
          "time": 143.8849999999999,
          "velocity": 0.48031496062992124,
          "duration": 0.08999999999997499
        },
        {
          "name": "F3",
          "midi": 53,
          "time": 143.97499999999988,
          "velocity": 0.48031496062992124,
          "duration": 0.09000000000000341
        },
        {
          "name": "A#3",
          "midi": 58,
          "time": 143.9949999999999,
          "velocity": 0.48031496062992124,
          "duration": 0.09000000000000341
        },
        {
          "name": "D4",
          "midi": 62,
          "time": 144.00499999999988,
          "velocity": 0.48031496062992124,
          "duration": 0.09000000000000341
        },
        {
          "name": "F3",
          "midi": 53,
          "time": 144.2699999999999,
          "velocity": 0.48031496062992124,
          "duration": 0.09000000000000341
        },
        {
          "name": "A#3",
          "midi": 58,
          "time": 144.2899999999999,
          "velocity": 0.48031496062992124,
          "duration": 0.09000000000000341
        },
        {
          "name": "D4",
          "midi": 62,
          "time": 144.2999999999999,
          "velocity": 0.48031496062992124,
          "duration": 0.09000000000000341
        },
        {
          "name": "F3",
          "midi": 53,
          "time": 144.5799999999999,
          "velocity": 0.48031496062992124,
          "duration": 0.09000000000000341
        },
        {
          "name": "A#3",
          "midi": 58,
          "time": 144.5999999999999,
          "velocity": 0.48031496062992124,
          "duration": 0.09000000000000341
        },
        {
          "name": "D4",
          "midi": 62,
          "time": 144.6099999999999,
          "velocity": 0.48031496062992124,
          "duration": 0.09000000000000341
        },
        {
          "name": "F3",
          "midi": 53,
          "time": 144.8949999999999,
          "velocity": 0.48031496062992124,
          "duration": 0.09000000000000341
        },
        {
          "name": "A#3",
          "midi": 58,
          "time": 144.9149999999999,
          "velocity": 0.48031496062992124,
          "duration": 0.09000000000000341
        },
        {
          "name": "D4",
          "midi": 62,
          "time": 144.9249999999999,
          "velocity": 0.48031496062992124,
          "duration": 0.09000000000000341
        },
        {
          "name": "F3",
          "midi": 53,
          "time": 145.1899999999999,
          "velocity": 0.48031496062992124,
          "duration": 0.09000000000000341
        },
        {
          "name": "A#3",
          "midi": 58,
          "time": 145.20999999999992,
          "velocity": 0.48031496062992124,
          "duration": 0.09000000000000341
        },
        {
          "name": "D4",
          "midi": 62,
          "time": 145.2199999999999,
          "velocity": 0.48031496062992124,
          "duration": 0.09000000000000341
        },
        {
          "name": "F3",
          "midi": 53,
          "time": 145.49999999999991,
          "velocity": 0.48031496062992124,
          "duration": 0.09000000000000341
        },
        {
          "name": "A#3",
          "midi": 58,
          "time": 145.51999999999992,
          "velocity": 0.48031496062992124,
          "duration": 0.09000000000000341
        },
        {
          "name": "D4",
          "midi": 62,
          "time": 145.52999999999992,
          "velocity": 0.48031496062992124,
          "duration": 0.09000000000000341
        },
        {
          "name": "F3",
          "midi": 53,
          "time": 145.7899999999999,
          "velocity": 0.48031496062992124,
          "duration": 0.09000000000000341
        },
        {
          "name": "A#3",
          "midi": 58,
          "time": 145.80999999999992,
          "velocity": 0.48031496062992124,
          "duration": 0.09000000000000341
        },
        {
          "name": "D4",
          "midi": 62,
          "time": 145.8199999999999,
          "velocity": 0.48031496062992124,
          "duration": 0.09000000000000341
        },
        {
          "name": "F3",
          "midi": 53,
          "time": 146.08499999999992,
          "velocity": 0.48031496062992124,
          "duration": 0.09000000000000341
        },
        {
          "name": "A#3",
          "midi": 58,
          "time": 146.10499999999993,
          "velocity": 0.48031496062992124,
          "duration": 0.09000000000000341
        },
        {
          "name": "D4",
          "midi": 62,
          "time": 146.11499999999992,
          "velocity": 0.48031496062992124,
          "duration": 0.09000000000000341
        },
        {
          "name": "F3",
          "midi": 53,
          "time": 146.24499999999992,
          "velocity": 0.48031496062992124,
          "duration": 0.09000000000000341
        },
        {
          "name": "A#3",
          "midi": 58,
          "time": 146.26499999999993,
          "velocity": 0.48031496062992124,
          "duration": 0.09000000000000341
        },
        {
          "name": "D4",
          "midi": 62,
          "time": 146.27499999999992,
          "velocity": 0.48031496062992124,
          "duration": 0.09000000000000341
        },
        {
          "name": "F3",
          "midi": 53,
          "time": 146.39499999999992,
          "velocity": 0.48031496062992124,
          "duration": 0.09000000000000341
        },
        {
          "name": "A#3",
          "midi": 58,
          "time": 146.41499999999994,
          "velocity": 0.48031496062992124,
          "duration": 0.09000000000000341
        },
        {
          "name": "D4",
          "midi": 62,
          "time": 146.42499999999993,
          "velocity": 0.48031496062992124,
          "duration": 0.09000000000000341
        },
        {
          "name": "F3",
          "midi": 53,
          "time": 146.71999999999994,
          "velocity": 0.48031496062992124,
          "duration": 0.09000000000000341
        },
        {
          "name": "A#3",
          "midi": 58,
          "time": 146.73999999999995,
          "velocity": 0.48031496062992124,
          "duration": 0.09000000000000341
        },
        {
          "name": "D4",
          "midi": 62,
          "time": 146.74999999999994,
          "velocity": 0.48031496062992124,
          "duration": 0.09000000000000341
        },
        {
          "name": "F3",
          "midi": 53,
          "time": 147.01499999999996,
          "velocity": 0.48031496062992124,
          "duration": 0.09000000000000341
        },
        {
          "name": "A#3",
          "midi": 58,
          "time": 147.03499999999997,
          "velocity": 0.48031496062992124,
          "duration": 0.09000000000000341
        },
        {
          "name": "D4",
          "midi": 62,
          "time": 147.04499999999996,
          "velocity": 0.48031496062992124,
          "duration": 0.09000000000000341
        },
        {
          "name": "F3",
          "midi": 53,
          "time": 147.32499999999996,
          "velocity": 0.48031496062992124,
          "duration": 0.09000000000000341
        },
        {
          "name": "A#3",
          "midi": 58,
          "time": 147.34499999999997,
          "velocity": 0.48031496062992124,
          "duration": 0.09000000000000341
        },
        {
          "name": "D4",
          "midi": 62,
          "time": 147.35499999999996,
          "velocity": 0.48031496062992124,
          "duration": 0.09000000000000341
        },
        {
          "name": "F3",
          "midi": 53,
          "time": 147.58999999999997,
          "velocity": 0.48031496062992124,
          "duration": 0.09000000000003183
        },
        {
          "name": "A#3",
          "midi": 58,
          "time": 147.60999999999999,
          "velocity": 0.48031496062992124,
          "duration": 0.09000000000003183
        },
        {
          "name": "F4",
          "midi": 65,
          "time": 147.63,
          "velocity": 0.48031496062992124,
          "duration": 0.09000000000003183
        },
        {
          "name": "D4",
          "midi": 62,
          "time": 147.63,
          "velocity": 0.48031496062992124,
          "duration": 0.09000000000003183
        },
        {
          "name": "F3",
          "midi": 53,
          "time": 147.88500000000002,
          "velocity": 0.48031496062992124,
          "duration": 0.09000000000000341
        },
        {
          "name": "A3",
          "midi": 57,
          "time": 147.90500000000003,
          "velocity": 0.48031496062992124,
          "duration": 0.09000000000000341
        },
        {
          "name": "F4",
          "midi": 65,
          "time": 147.92000000000002,
          "velocity": 0.48031496062992124,
          "duration": 0.09000000000000341
        },
        {
          "name": "D4",
          "midi": 62,
          "time": 147.925,
          "velocity": 0.48031496062992124,
          "duration": 0.09000000000000341
        },
        {
          "name": "F3",
          "midi": 53,
          "time": 148.19500000000002,
          "velocity": 0.48031496062992124,
          "duration": 0.09000000000000341
        },
        {
          "name": "A3",
          "midi": 57,
          "time": 148.21500000000003,
          "velocity": 0.48031496062992124,
          "duration": 0.09000000000000341
        },
        {
          "name": "F4",
          "midi": 65,
          "time": 148.22500000000002,
          "velocity": 0.48031496062992124,
          "duration": 0.09000000000000341
        },
        {
          "name": "D4",
          "midi": 62,
          "time": 148.235,
          "velocity": 0.48031496062992124,
          "duration": 0.09000000000000341
        },
        {
          "name": "F3",
          "midi": 53,
          "time": 148.49,
          "velocity": 0.48031496062992124,
          "duration": 0.09000000000000341
        },
        {
          "name": "A3",
          "midi": 57,
          "time": 148.51000000000002,
          "velocity": 0.48031496062992124,
          "duration": 0.09000000000000341
        },
        {
          "name": "D4",
          "midi": 62,
          "time": 148.53000000000003,
          "velocity": 0.48031496062992124,
          "duration": 0.09000000000000341
        },
        {
          "name": "F4",
          "midi": 65,
          "time": 148.53500000000003,
          "velocity": 0.48031496062992124,
          "duration": 0.09000000000000341
        },
        {
          "name": "F3",
          "midi": 53,
          "time": 148.64000000000001,
          "velocity": 0.48031496062992124,
          "duration": 0.09000000000000341
        },
        {
          "name": "A3",
          "midi": 57,
          "time": 148.66000000000003,
          "velocity": 0.48031496062992124,
          "duration": 0.09000000000000341
        },
        {
          "name": "D4",
          "midi": 62,
          "time": 148.68000000000004,
          "velocity": 0.48031496062992124,
          "duration": 0.09000000000000341
        },
        {
          "name": "F4",
          "midi": 65,
          "time": 148.68500000000003,
          "velocity": 0.48031496062992124,
          "duration": 0.09000000000000341
        },
        {
          "name": "C4",
          "midi": 60,
          "time": 148.80500000000004,
          "velocity": 0.48031496062992124,
          "duration": 0.08999999999997499
        },
        {
          "name": "F4",
          "midi": 65,
          "time": 148.82000000000002,
          "velocity": 0.48031496062992124,
          "duration": 0.08999999999997499
        },
        {
          "name": "A3",
          "midi": 57,
          "time": 148.82000000000002,
          "velocity": 0.48031496062992124,
          "duration": 0.08999999999997499
        },
        {
          "name": "C4",
          "midi": 60,
          "time": 149.075,
          "velocity": 0.48031496062992124,
          "duration": 0.08999999999997499
        },
        {
          "name": "A3",
          "midi": 57,
          "time": 149.08999999999997,
          "velocity": 0.48031496062992124,
          "duration": 0.08999999999997499
        },
        {
          "name": "F4",
          "midi": 65,
          "time": 149.08999999999997,
          "velocity": 0.48031496062992124,
          "duration": 0.08999999999997499
        },
        {
          "name": "C4",
          "midi": 60,
          "time": 149.38499999999996,
          "velocity": 0.48031496062992124,
          "duration": 0.08999999999997499
        },
        {
          "name": "A3",
          "midi": 57,
          "time": 149.39999999999995,
          "velocity": 0.48031496062992124,
          "duration": 0.08999999999997499
        },
        {
          "name": "F4",
          "midi": 65,
          "time": 149.39999999999995,
          "velocity": 0.48031496062992124,
          "duration": 0.08999999999997499
        },
        {
          "name": "C4",
          "midi": 60,
          "time": 149.69999999999993,
          "velocity": 0.48031496062992124,
          "duration": 0.08999999999997499
        },
        {
          "name": "F4",
          "midi": 65,
          "time": 149.71499999999992,
          "velocity": 0.48031496062992124,
          "duration": 0.08999999999997499
        },
        {
          "name": "A3",
          "midi": 57,
          "time": 149.71499999999992,
          "velocity": 0.48031496062992124,
          "duration": 0.08999999999997499
        },
        {
          "name": "C4",
          "midi": 60,
          "time": 149.9949999999999,
          "velocity": 0.48031496062992124,
          "duration": 0.08999999999997499
        },
        {
          "name": "A3",
          "midi": 57,
          "time": 150.00999999999988,
          "velocity": 0.48031496062992124,
          "duration": 0.08999999999997499
        },
        {
          "name": "F4",
          "midi": 65,
          "time": 150.00999999999988,
          "velocity": 0.48031496062992124,
          "duration": 0.08999999999997499
        },
        {
          "name": "C4",
          "midi": 60,
          "time": 150.30499999999986,
          "velocity": 0.48031496062992124,
          "duration": 0.08999999999997499
        },
        {
          "name": "A3",
          "midi": 57,
          "time": 150.31999999999985,
          "velocity": 0.48031496062992124,
          "duration": 0.08999999999997499
        },
        {
          "name": "F4",
          "midi": 65,
          "time": 150.31999999999985,
          "velocity": 0.48031496062992124,
          "duration": 0.08999999999997499
        },
        {
          "name": "C4",
          "midi": 60,
          "time": 150.59499999999983,
          "velocity": 0.48031496062992124,
          "duration": 0.08999999999997499
        },
        {
          "name": "F4",
          "midi": 65,
          "time": 150.60999999999981,
          "velocity": 0.48031496062992124,
          "duration": 0.08999999999997499
        },
        {
          "name": "A3",
          "midi": 57,
          "time": 150.60999999999981,
          "velocity": 0.48031496062992124,
          "duration": 0.08999999999997499
        },
        {
          "name": "C4",
          "midi": 60,
          "time": 150.8899999999998,
          "velocity": 0.48031496062992124,
          "duration": 0.08999999999997499
        },
        {
          "name": "F4",
          "midi": 65,
          "time": 150.90499999999977,
          "velocity": 0.48031496062992124,
          "duration": 0.08999999999997499
        },
        {
          "name": "A3",
          "midi": 57,
          "time": 150.90499999999977,
          "velocity": 0.48031496062992124,
          "duration": 0.08999999999997499
        },
        {
          "name": "C4",
          "midi": 60,
          "time": 151.04999999999976,
          "velocity": 0.48031496062992124,
          "duration": 0.08999999999997499
        },
        {
          "name": "F4",
          "midi": 65,
          "time": 151.06499999999974,
          "velocity": 0.48031496062992124,
          "duration": 0.08999999999997499
        },
        {
          "name": "A3",
          "midi": 57,
          "time": 151.06499999999974,
          "velocity": 0.48031496062992124,
          "duration": 0.08999999999997499
        },
        {
          "name": "C4",
          "midi": 60,
          "time": 151.20499999999973,
          "velocity": 0.48031496062992124,
          "duration": 0.08999999999997499
        },
        {
          "name": "F4",
          "midi": 65,
          "time": 151.21999999999971,
          "velocity": 0.48031496062992124,
          "duration": 0.08999999999997499
        },
        {
          "name": "A3",
          "midi": 57,
          "time": 151.21999999999971,
          "velocity": 0.48031496062992124,
          "duration": 0.08999999999997499
        },
        {
          "name": "C4",
          "midi": 60,
          "time": 151.50999999999968,
          "velocity": 0.48031496062992124,
          "duration": 0.08999999999997499
        },
        {
          "name": "A3",
          "midi": 57,
          "time": 151.52499999999966,
          "velocity": 0.48031496062992124,
          "duration": 0.08999999999997499
        },
        {
          "name": "F4",
          "midi": 65,
          "time": 151.52499999999966,
          "velocity": 0.48031496062992124,
          "duration": 0.08999999999997499
        },
        {
          "name": "C4",
          "midi": 60,
          "time": 151.80499999999964,
          "velocity": 0.48031496062992124,
          "duration": 0.08999999999997499
        },
        {
          "name": "A3",
          "midi": 57,
          "time": 151.81999999999962,
          "velocity": 0.48031496062992124,
          "duration": 0.08999999999997499
        },
        {
          "name": "F4",
          "midi": 65,
          "time": 151.81999999999962,
          "velocity": 0.48031496062992124,
          "duration": 0.08999999999997499
        },
        {
          "name": "C4",
          "midi": 60,
          "time": 152.1149999999996,
          "velocity": 0.48031496062992124,
          "duration": 0.08999999999997499
        },
        {
          "name": "A3",
          "midi": 57,
          "time": 152.1299999999996,
          "velocity": 0.48031496062992124,
          "duration": 0.08999999999997499
        },
        {
          "name": "F4",
          "midi": 65,
          "time": 152.1299999999996,
          "velocity": 0.48031496062992124,
          "duration": 0.08999999999997499
        },
        {
          "name": "C4",
          "midi": 60,
          "time": 152.37999999999957,
          "velocity": 0.48031496062992124,
          "duration": 0.08999999999997499
        },
        {
          "name": "A3",
          "midi": 57,
          "time": 152.39499999999956,
          "velocity": 0.48031496062992124,
          "duration": 0.08999999999997499
        },
        {
          "name": "F4",
          "midi": 65,
          "time": 152.40499999999955,
          "velocity": 0.48031496062992124,
          "duration": 0.08999999999997499
        },
        {
          "name": "C4",
          "midi": 60,
          "time": 152.67499999999953,
          "velocity": 0.48031496062992124,
          "duration": 0.08999999999997499
        },
        {
          "name": "A3",
          "midi": 57,
          "time": 152.68999999999951,
          "velocity": 0.48031496062992124,
          "duration": 0.08999999999997499
        },
        {
          "name": "F4",
          "midi": 65,
          "time": 152.6999999999995,
          "velocity": 0.48031496062992124,
          "duration": 0.08999999999997499
        },
        {
          "name": "C4",
          "midi": 60,
          "time": 152.98499999999947,
          "velocity": 0.48031496062992124,
          "duration": 0.08999999999997499
        },
        {
          "name": "A3",
          "midi": 57,
          "time": 152.99999999999946,
          "velocity": 0.48031496062992124,
          "duration": 0.08999999999997499
        },
        {
          "name": "F4",
          "midi": 65,
          "time": 153.00999999999945,
          "velocity": 0.48031496062992124,
          "duration": 0.08999999999997499
        },
        {
          "name": "C4",
          "midi": 60,
          "time": 153.27999999999943,
          "velocity": 0.48031496062992124,
          "duration": 0.08999999999997499
        },
        {
          "name": "A3",
          "midi": 57,
          "time": 153.29499999999942,
          "velocity": 0.48031496062992124,
          "duration": 0.08999999999997499
        },
        {
          "name": "F4",
          "midi": 65,
          "time": 153.3049999999994,
          "velocity": 0.48031496062992124,
          "duration": 0.08999999999997499
        },
        {
          "name": "C4",
          "midi": 60,
          "time": 153.42999999999938,
          "velocity": 0.48031496062992124,
          "duration": 0.08999999999997499
        },
        {
          "name": "A3",
          "midi": 57,
          "time": 153.44499999999937,
          "velocity": 0.48031496062992124,
          "duration": 0.08999999999997499
        },
        {
          "name": "F4",
          "midi": 65,
          "time": 153.45499999999936,
          "velocity": 0.48031496062992124,
          "duration": 0.08999999999997499
        },
        {
          "name": "F3",
          "midi": 53,
          "time": 153.59999999999934,
          "velocity": 0.48031496062992124,
          "duration": 0.09000000000000341
        },
        {
          "name": "A#3",
          "midi": 58,
          "time": 153.59999999999934,
          "velocity": 0.48031496062992124,
          "duration": 0.09000000000000341
        },
        {
          "name": "D4",
          "midi": 62,
          "time": 153.60499999999934,
          "velocity": 0.48031496062992124,
          "duration": 0.09000000000000341
        },
        {
          "name": "F4",
          "midi": 65,
          "time": 153.60499999999934,
          "velocity": 0.48031496062992124,
          "duration": 0.09000000000000341
        },
        {
          "name": "F3",
          "midi": 53,
          "time": 153.86999999999935,
          "velocity": 0.48031496062992124,
          "duration": 0.09000000000000341
        },
        {
          "name": "A#3",
          "midi": 58,
          "time": 153.88999999999936,
          "velocity": 0.48031496062992124,
          "duration": 0.09000000000000341
        },
        {
          "name": "D4",
          "midi": 62,
          "time": 153.89999999999935,
          "velocity": 0.48031496062992124,
          "duration": 0.09000000000000341
        },
        {
          "name": "F4",
          "midi": 65,
          "time": 153.89999999999935,
          "velocity": 0.48031496062992124,
          "duration": 0.09000000000000341
        },
        {
          "name": "F3",
          "midi": 53,
          "time": 154.17999999999935,
          "velocity": 0.48031496062992124,
          "duration": 0.09000000000000341
        },
        {
          "name": "A#3",
          "midi": 58,
          "time": 154.19999999999936,
          "velocity": 0.48031496062992124,
          "duration": 0.09000000000000341
        },
        {
          "name": "D4",
          "midi": 62,
          "time": 154.20999999999935,
          "velocity": 0.48031496062992124,
          "duration": 0.09000000000000341
        },
        {
          "name": "F4",
          "midi": 65,
          "time": 154.20999999999935,
          "velocity": 0.48031496062992124,
          "duration": 0.09000000000000341
        },
        {
          "name": "F3",
          "midi": 53,
          "time": 154.49499999999935,
          "velocity": 0.48031496062992124,
          "duration": 0.09000000000000341
        },
        {
          "name": "A#3",
          "midi": 58,
          "time": 154.51499999999936,
          "velocity": 0.48031496062992124,
          "duration": 0.09000000000000341
        },
        {
          "name": "D4",
          "midi": 62,
          "time": 154.52499999999935,
          "velocity": 0.48031496062992124,
          "duration": 0.09000000000000341
        },
        {
          "name": "F4",
          "midi": 65,
          "time": 154.52499999999935,
          "velocity": 0.48031496062992124,
          "duration": 0.09000000000000341
        },
        {
          "name": "F3",
          "midi": 53,
          "time": 154.78999999999937,
          "velocity": 0.48031496062992124,
          "duration": 0.09000000000000341
        },
        {
          "name": "A#3",
          "midi": 58,
          "time": 154.80999999999938,
          "velocity": 0.48031496062992124,
          "duration": 0.09000000000000341
        },
        {
          "name": "D4",
          "midi": 62,
          "time": 154.81999999999937,
          "velocity": 0.48031496062992124,
          "duration": 0.09000000000000341
        },
        {
          "name": "F4",
          "midi": 65,
          "time": 154.81999999999937,
          "velocity": 0.48031496062992124,
          "duration": 0.09000000000000341
        },
        {
          "name": "F3",
          "midi": 53,
          "time": 155.09999999999937,
          "velocity": 0.48031496062992124,
          "duration": 0.09000000000000341
        },
        {
          "name": "A#3",
          "midi": 58,
          "time": 155.11999999999938,
          "velocity": 0.48031496062992124,
          "duration": 0.09000000000000341
        },
        {
          "name": "F4",
          "midi": 65,
          "time": 155.12999999999937,
          "velocity": 0.48031496062992124,
          "duration": 0.09000000000000341
        },
        {
          "name": "D4",
          "midi": 62,
          "time": 155.12999999999937,
          "velocity": 0.48031496062992124,
          "duration": 0.09000000000000341
        },
        {
          "name": "F3",
          "midi": 53,
          "time": 155.38999999999936,
          "velocity": 0.48031496062992124,
          "duration": 0.09000000000000341
        },
        {
          "name": "A#3",
          "midi": 58,
          "time": 155.40999999999937,
          "velocity": 0.48031496062992124,
          "duration": 0.09000000000000341
        },
        {
          "name": "D4",
          "midi": 62,
          "time": 155.41999999999936,
          "velocity": 0.48031496062992124,
          "duration": 0.09000000000000341
        },
        {
          "name": "F4",
          "midi": 65,
          "time": 155.41999999999936,
          "velocity": 0.48031496062992124,
          "duration": 0.09000000000000341
        },
        {
          "name": "F3",
          "midi": 53,
          "time": 155.68499999999938,
          "velocity": 0.48031496062992124,
          "duration": 0.09000000000000341
        },
        {
          "name": "A#3",
          "midi": 58,
          "time": 155.7049999999994,
          "velocity": 0.48031496062992124,
          "duration": 0.09000000000000341
        },
        {
          "name": "D4",
          "midi": 62,
          "time": 155.71499999999938,
          "velocity": 0.48031496062992124,
          "duration": 0.09000000000000341
        },
        {
          "name": "F4",
          "midi": 65,
          "time": 155.71499999999938,
          "velocity": 0.48031496062992124,
          "duration": 0.09000000000000341
        },
        {
          "name": "F3",
          "midi": 53,
          "time": 155.84499999999937,
          "velocity": 0.48031496062992124,
          "duration": 0.09000000000000341
        },
        {
          "name": "A#3",
          "midi": 58,
          "time": 155.86499999999938,
          "velocity": 0.48031496062992124,
          "duration": 0.09000000000000341
        },
        {
          "name": "D4",
          "midi": 62,
          "time": 155.87499999999937,
          "velocity": 0.48031496062992124,
          "duration": 0.09000000000000341
        },
        {
          "name": "F4",
          "midi": 65,
          "time": 155.87499999999937,
          "velocity": 0.48031496062992124,
          "duration": 0.09000000000000341
        },
        {
          "name": "F3",
          "midi": 53,
          "time": 155.99499999999938,
          "velocity": 0.48031496062992124,
          "duration": 0.09000000000000341
        },
        {
          "name": "A#3",
          "midi": 58,
          "time": 156.0149999999994,
          "velocity": 0.48031496062992124,
          "duration": 0.09000000000000341
        },
        {
          "name": "F4",
          "midi": 65,
          "time": 156.02499999999938,
          "velocity": 0.48031496062992124,
          "duration": 0.09000000000000341
        },
        {
          "name": "D4",
          "midi": 62,
          "time": 156.02499999999938,
          "velocity": 0.48031496062992124,
          "duration": 0.09000000000000341
        },
        {
          "name": "F3",
          "midi": 53,
          "time": 156.3199999999994,
          "velocity": 0.48031496062992124,
          "duration": 0.09000000000000341
        },
        {
          "name": "A#3",
          "midi": 58,
          "time": 156.3399999999994,
          "velocity": 0.48031496062992124,
          "duration": 0.09000000000000341
        },
        {
          "name": "D4",
          "midi": 62,
          "time": 156.3499999999994,
          "velocity": 0.48031496062992124,
          "duration": 0.09000000000000341
        },
        {
          "name": "F4",
          "midi": 65,
          "time": 156.3499999999994,
          "velocity": 0.48031496062992124,
          "duration": 0.09000000000000341
        },
        {
          "name": "F3",
          "midi": 53,
          "time": 156.6149999999994,
          "velocity": 0.48031496062992124,
          "duration": 0.09000000000000341
        },
        {
          "name": "A#3",
          "midi": 58,
          "time": 156.63499999999942,
          "velocity": 0.48031496062992124,
          "duration": 0.09000000000000341
        },
        {
          "name": "F4",
          "midi": 65,
          "time": 156.6449999999994,
          "velocity": 0.48031496062992124,
          "duration": 0.09000000000000341
        },
        {
          "name": "D4",
          "midi": 62,
          "time": 156.6449999999994,
          "velocity": 0.48031496062992124,
          "duration": 0.09000000000000341
        },
        {
          "name": "F3",
          "midi": 53,
          "time": 156.92499999999941,
          "velocity": 0.48031496062992124,
          "duration": 0.09000000000000341
        },
        {
          "name": "A#3",
          "midi": 58,
          "time": 156.94499999999942,
          "velocity": 0.48031496062992124,
          "duration": 0.09000000000000341
        },
        {
          "name": "F4",
          "midi": 65,
          "time": 156.95499999999942,
          "velocity": 0.48031496062992124,
          "duration": 0.09000000000000341
        },
        {
          "name": "D4",
          "midi": 62,
          "time": 156.95499999999942,
          "velocity": 0.48031496062992124,
          "duration": 0.09000000000000341
        },
        {
          "name": "F3",
          "midi": 53,
          "time": 157.18999999999943,
          "velocity": 0.48031496062992124,
          "duration": 0.09000000000003183
        },
        {
          "name": "A#3",
          "midi": 58,
          "time": 157.20999999999944,
          "velocity": 0.48031496062992124,
          "duration": 0.09000000000003183
        },
        {
          "name": "F4",
          "midi": 65,
          "time": 157.22999999999945,
          "velocity": 0.48031496062992124,
          "duration": 0.09000000000003183
        },
        {
          "name": "D4",
          "midi": 62,
          "time": 157.22999999999945,
          "velocity": 0.48031496062992124,
          "duration": 0.09000000000003183
        },
        {
          "name": "F3",
          "midi": 53,
          "time": 157.48499999999947,
          "velocity": 0.48031496062992124,
          "duration": 0.09000000000000341
        },
        {
          "name": "A3",
          "midi": 57,
          "time": 157.50499999999948,
          "velocity": 0.48031496062992124,
          "duration": 0.09000000000000341
        },
        {
          "name": "F4",
          "midi": 65,
          "time": 157.51999999999947,
          "velocity": 0.48031496062992124,
          "duration": 0.09000000000000341
        },
        {
          "name": "D4",
          "midi": 62,
          "time": 157.52499999999947,
          "velocity": 0.48031496062992124,
          "duration": 0.09000000000000341
        },
        {
          "name": "F3",
          "midi": 53,
          "time": 157.79499999999948,
          "velocity": 0.48031496062992124,
          "duration": 0.09000000000000341
        },
        {
          "name": "A3",
          "midi": 57,
          "time": 157.8149999999995,
          "velocity": 0.48031496062992124,
          "duration": 0.09000000000000341
        },
        {
          "name": "F4",
          "midi": 65,
          "time": 157.82499999999948,
          "velocity": 0.48031496062992124,
          "duration": 0.09000000000000341
        },
        {
          "name": "D4",
          "midi": 62,
          "time": 157.83499999999947,
          "velocity": 0.48031496062992124,
          "duration": 0.09000000000000341
        },
        {
          "name": "F3",
          "midi": 53,
          "time": 158.08999999999946,
          "velocity": 0.48031496062992124,
          "duration": 0.09000000000000341
        },
        {
          "name": "A3",
          "midi": 57,
          "time": 158.10999999999947,
          "velocity": 0.48031496062992124,
          "duration": 0.09000000000000341
        },
        {
          "name": "D4",
          "midi": 62,
          "time": 158.12999999999948,
          "velocity": 0.48031496062992124,
          "duration": 0.09000000000000341
        },
        {
          "name": "F4",
          "midi": 65,
          "time": 158.13499999999948,
          "velocity": 0.48031496062992124,
          "duration": 0.09000000000000341
        },
        {
          "name": "F3",
          "midi": 53,
          "time": 158.23999999999947,
          "velocity": 0.48031496062992124,
          "duration": 0.09000000000000341
        },
        {
          "name": "A3",
          "midi": 57,
          "time": 158.25999999999948,
          "velocity": 0.48031496062992124,
          "duration": 0.09000000000000341
        },
        {
          "name": "D4",
          "midi": 62,
          "time": 158.2799999999995,
          "velocity": 0.48031496062992124,
          "duration": 0.09000000000000341
        },
        {
          "name": "F4",
          "midi": 65,
          "time": 158.28499999999948,
          "velocity": 0.48031496062992124,
          "duration": 0.09000000000000341
        },
        {
          "name": "C4",
          "midi": 60,
          "time": 158.4049999999995,
          "velocity": 0.48031496062992124,
          "duration": 0.08999999999997499
        },
        {
          "name": "F4",
          "midi": 65,
          "time": 158.41999999999948,
          "velocity": 0.48031496062992124,
          "duration": 0.08999999999997499
        },
        {
          "name": "A3",
          "midi": 57,
          "time": 158.41999999999948,
          "velocity": 0.48031496062992124,
          "duration": 0.08999999999997499
        },
        {
          "name": "C4",
          "midi": 60,
          "time": 158.67499999999944,
          "velocity": 0.48031496062992124,
          "duration": 0.08999999999997499
        },
        {
          "name": "A3",
          "midi": 57,
          "time": 158.68999999999943,
          "velocity": 0.48031496062992124,
          "duration": 0.08999999999997499
        },
        {
          "name": "F4",
          "midi": 65,
          "time": 158.68999999999943,
          "velocity": 0.48031496062992124,
          "duration": 0.08999999999997499
        },
        {
          "name": "C4",
          "midi": 60,
          "time": 158.98499999999942,
          "velocity": 0.48031496062992124,
          "duration": 0.08999999999997499
        },
        {
          "name": "A3",
          "midi": 57,
          "time": 158.9999999999994,
          "velocity": 0.48031496062992124,
          "duration": 0.08999999999997499
        },
        {
          "name": "F4",
          "midi": 65,
          "time": 158.9999999999994,
          "velocity": 0.48031496062992124,
          "duration": 0.08999999999997499
        },
        {
          "name": "C4",
          "midi": 60,
          "time": 159.2999999999994,
          "velocity": 0.48031496062992124,
          "duration": 0.08999999999997499
        },
        {
          "name": "F4",
          "midi": 65,
          "time": 159.31499999999937,
          "velocity": 0.48031496062992124,
          "duration": 0.08999999999997499
        },
        {
          "name": "A3",
          "midi": 57,
          "time": 159.31499999999937,
          "velocity": 0.48031496062992124,
          "duration": 0.08999999999997499
        },
        {
          "name": "C4",
          "midi": 60,
          "time": 159.59499999999935,
          "velocity": 0.48031496062992124,
          "duration": 0.08999999999997499
        },
        {
          "name": "F4",
          "midi": 65,
          "time": 159.60999999999933,
          "velocity": 0.48031496062992124,
          "duration": 0.08999999999997499
        },
        {
          "name": "A3",
          "midi": 57,
          "time": 159.60999999999933,
          "velocity": 0.48031496062992124,
          "duration": 0.08999999999997499
        },
        {
          "name": "C4",
          "midi": 60,
          "time": 159.90499999999932,
          "velocity": 0.48031496062992124,
          "duration": 0.08999999999997499
        },
        {
          "name": "A3",
          "midi": 57,
          "time": 159.9199999999993,
          "velocity": 0.48031496062992124,
          "duration": 0.08999999999997499
        },
        {
          "name": "F4",
          "midi": 65,
          "time": 159.9199999999993,
          "velocity": 0.48031496062992124,
          "duration": 0.08999999999997499
        },
        {
          "name": "C4",
          "midi": 60,
          "time": 160.19499999999928,
          "velocity": 0.48031496062992124,
          "duration": 0.08999999999997499
        },
        {
          "name": "F4",
          "midi": 65,
          "time": 160.20999999999927,
          "velocity": 0.48031496062992124,
          "duration": 0.08999999999997499
        },
        {
          "name": "A3",
          "midi": 57,
          "time": 160.20999999999927,
          "velocity": 0.48031496062992124,
          "duration": 0.08999999999997499
        },
        {
          "name": "C4",
          "midi": 60,
          "time": 160.48999999999924,
          "velocity": 0.48031496062992124,
          "duration": 0.08999999999997499
        },
        {
          "name": "F4",
          "midi": 65,
          "time": 160.50499999999923,
          "velocity": 0.48031496062992124,
          "duration": 0.08999999999997499
        },
        {
          "name": "A3",
          "midi": 57,
          "time": 160.50499999999923,
          "velocity": 0.48031496062992124,
          "duration": 0.08999999999997499
        },
        {
          "name": "C4",
          "midi": 60,
          "time": 160.6499999999992,
          "velocity": 0.48031496062992124,
          "duration": 0.08999999999997499
        },
        {
          "name": "F4",
          "midi": 65,
          "time": 160.6649999999992,
          "velocity": 0.48031496062992124,
          "duration": 0.08999999999997499
        },
        {
          "name": "A3",
          "midi": 57,
          "time": 160.6649999999992,
          "velocity": 0.48031496062992124,
          "duration": 0.08999999999997499
        },
        {
          "name": "C4",
          "midi": 60,
          "time": 160.80499999999918,
          "velocity": 0.48031496062992124,
          "duration": 0.08999999999997499
        },
        {
          "name": "A3",
          "midi": 57,
          "time": 160.81999999999917,
          "velocity": 0.48031496062992124,
          "duration": 0.08999999999997499
        },
        {
          "name": "E4",
          "midi": 64,
          "time": 160.82499999999916,
          "velocity": 0.48031496062992124,
          "duration": 0.08999999999997499
        },
        {
          "name": "G4",
          "midi": 67,
          "time": 160.83499999999916,
          "velocity": 0.48031496062992124,
          "duration": 0.08999999999997499
        },
        {
          "name": "C4",
          "midi": 60,
          "time": 161.10999999999913,
          "velocity": 0.48031496062992124,
          "duration": 0.08999999999997499
        },
        {
          "name": "A3",
          "midi": 57,
          "time": 161.12499999999912,
          "velocity": 0.48031496062992124,
          "duration": 0.08999999999997499
        },
        {
          "name": "E4",
          "midi": 64,
          "time": 161.12499999999912,
          "velocity": 0.48031496062992124,
          "duration": 0.08999999999997499
        },
        {
          "name": "G4",
          "midi": 67,
          "time": 161.1399999999991,
          "velocity": 0.48031496062992124,
          "duration": 0.08999999999997499
        },
        {
          "name": "C4",
          "midi": 60,
          "time": 161.4049999999991,
          "velocity": 0.48031496062992124,
          "duration": 0.08999999999997499
        },
        {
          "name": "E4",
          "midi": 64,
          "time": 161.4099999999991,
          "velocity": 0.48031496062992124,
          "duration": 0.08999999999997499
        },
        {
          "name": "A3",
          "midi": 57,
          "time": 161.41999999999908,
          "velocity": 0.48031496062992124,
          "duration": 0.08999999999997499
        },
        {
          "name": "G4",
          "midi": 67,
          "time": 161.43499999999906,
          "velocity": 0.48031496062992124,
          "duration": 0.08999999999997499
        },
        {
          "name": "E4",
          "midi": 64,
          "time": 161.71499999999904,
          "velocity": 0.48031496062992124,
          "duration": 0.08999999999997499
        },
        {
          "name": "C4",
          "midi": 60,
          "time": 161.71499999999904,
          "velocity": 0.48031496062992124,
          "duration": 0.08999999999997499
        },
        {
          "name": "A3",
          "midi": 57,
          "time": 161.72999999999902,
          "velocity": 0.48031496062992124,
          "duration": 0.08999999999997499
        },
        {
          "name": "G4",
          "midi": 67,
          "time": 161.744999999999,
          "velocity": 0.48031496062992124,
          "duration": 0.08999999999997499
        },
        {
          "name": "C#4",
          "midi": 61,
          "time": 161.979999999999,
          "velocity": 0.48031496062992124,
          "duration": 0.08999999999997499
        },
        {
          "name": "A3",
          "midi": 57,
          "time": 161.99499999999898,
          "velocity": 0.48031496062992124,
          "duration": 0.08999999999997499
        },
        {
          "name": "F4",
          "midi": 65,
          "time": 162.00499999999897,
          "velocity": 0.48031496062992124,
          "duration": 0.08999999999997499
        },
        {
          "name": "C#4",
          "midi": 61,
          "time": 162.27499999999895,
          "velocity": 0.48031496062992124,
          "duration": 0.08999999999997499
        },
        {
          "name": "A3",
          "midi": 57,
          "time": 162.28999999999894,
          "velocity": 0.48031496062992124,
          "duration": 0.08999999999997499
        },
        {
          "name": "F4",
          "midi": 65,
          "time": 162.29999999999893,
          "velocity": 0.48031496062992124,
          "duration": 0.08999999999997499
        },
        {
          "name": "C#4",
          "midi": 61,
          "time": 162.5849999999989,
          "velocity": 0.48031496062992124,
          "duration": 0.08999999999997499
        },
        {
          "name": "A3",
          "midi": 57,
          "time": 162.5999999999989,
          "velocity": 0.48031496062992124,
          "duration": 0.08999999999997499
        },
        {
          "name": "F4",
          "midi": 65,
          "time": 162.60999999999888,
          "velocity": 0.48031496062992124,
          "duration": 0.08999999999997499
        },
        {
          "name": "C#4",
          "midi": 61,
          "time": 162.87999999999886,
          "velocity": 0.48031496062992124,
          "duration": 0.08999999999997499
        },
        {
          "name": "A3",
          "midi": 57,
          "time": 162.89499999999884,
          "velocity": 0.48031496062992124,
          "duration": 0.08999999999997499
        },
        {
          "name": "F4",
          "midi": 65,
          "time": 162.90499999999884,
          "velocity": 0.48031496062992124,
          "duration": 0.08999999999997499
        },
        {
          "name": "C#4",
          "midi": 61,
          "time": 163.0299999999988,
          "velocity": 0.48031496062992124,
          "duration": 0.08999999999997499
        },
        {
          "name": "A3",
          "midi": 57,
          "time": 163.0449999999988,
          "velocity": 0.48031496062992124,
          "duration": 0.08999999999997499
        },
        {
          "name": "F4",
          "midi": 65,
          "time": 163.05499999999878,
          "velocity": 0.48031496062992124,
          "duration": 0.08999999999997499
        },
        {
          "name": "C3",
          "midi": 48,
          "time": 163.18999999999875,
          "velocity": 0.48031496062992124,
          "duration": 0.08999999999997499
        },
        {
          "name": "G4",
          "midi": 67,
          "time": 163.20499999999873,
          "velocity": 0.5748031496062992,
          "duration": 0.575000000000017
        },
        {
          "name": "C4",
          "midi": 60,
          "time": 163.20999999999873,
          "velocity": 0.48031496062992124,
          "duration": 0.09000000000000341
        },
        {
          "name": "G3",
          "midi": 55,
          "time": 163.20999999999873,
          "velocity": 0.48031496062992124,
          "duration": 0.09000000000000341
        },
        {
          "name": "E4",
          "midi": 64,
          "time": 163.21499999999872,
          "velocity": 0.48031496062992124,
          "duration": 0.09000000000000341
        },
        {
          "name": "C3",
          "midi": 48,
          "time": 163.48999999999873,
          "velocity": 0.48031496062992124,
          "duration": 0.09000000000000341
        },
        {
          "name": "C4",
          "midi": 60,
          "time": 163.50999999999874,
          "velocity": 0.48031496062992124,
          "duration": 0.09000000000000341
        },
        {
          "name": "G3",
          "midi": 55,
          "time": 163.50999999999874,
          "velocity": 0.48031496062992124,
          "duration": 0.09000000000000341
        },
        {
          "name": "E4",
          "midi": 64,
          "time": 163.51499999999874,
          "velocity": 0.48031496062992124,
          "duration": 0.09000000000000341
        },
        {
          "name": "C3",
          "midi": 48,
          "time": 163.62999999999874,
          "velocity": 0.3543307086614173,
          "duration": 0.09000000000000341
        },
        {
          "name": "C4",
          "midi": 60,
          "time": 163.64999999999876,
          "velocity": 0.3543307086614173,
          "duration": 0.09000000000000341
        },
        {
          "name": "G3",
          "midi": 55,
          "time": 163.64999999999876,
          "velocity": 0.3543307086614173,
          "duration": 0.09000000000000341
        },
        {
          "name": "E4",
          "midi": 64,
          "time": 163.65499999999875,
          "velocity": 0.3543307086614173,
          "duration": 0.09000000000000341
        },
        {
          "name": "C3",
          "midi": 48,
          "time": 163.80999999999875,
          "velocity": 0.48031496062992124,
          "duration": 0.08999999999997499
        },
        {
          "name": "G4",
          "midi": 67,
          "time": 163.81999999999874,
          "velocity": 0.5748031496062992,
          "duration": 0.27499999999997726
        },
        {
          "name": "C4",
          "midi": 60,
          "time": 163.82999999999873,
          "velocity": 0.48031496062992124,
          "duration": 0.09000000000000341
        },
        {
          "name": "G3",
          "midi": 55,
          "time": 163.82999999999873,
          "velocity": 0.48031496062992124,
          "duration": 0.09000000000000341
        },
        {
          "name": "E4",
          "midi": 64,
          "time": 163.83499999999873,
          "velocity": 0.48031496062992124,
          "duration": 0.09000000000000341
        },
        {
          "name": "C3",
          "midi": 48,
          "time": 164.09499999999872,
          "velocity": 0.48031496062992124,
          "duration": 0.09000000000000341
        },
        {
          "name": "C4",
          "midi": 60,
          "time": 164.11499999999873,
          "velocity": 0.48031496062992124,
          "duration": 0.09000000000000341
        },
        {
          "name": "G3",
          "midi": 55,
          "time": 164.11499999999873,
          "velocity": 0.48031496062992124,
          "duration": 0.09000000000000341
        },
        {
          "name": "G4",
          "midi": 67,
          "time": 164.11999999999873,
          "velocity": 0.5748031496062992,
          "duration": 0.2750000000000057
        },
        {
          "name": "E4",
          "midi": 64,
          "time": 164.11999999999873,
          "velocity": 0.48031496062992124,
          "duration": 0.09000000000000341
        },
        {
          "name": "C3",
          "midi": 48,
          "time": 164.23499999999873,
          "velocity": 0.3464566929133858,
          "duration": 0.09000000000000341
        },
        {
          "name": "C4",
          "midi": 60,
          "time": 164.25499999999874,
          "velocity": 0.3464566929133858,
          "duration": 0.09000000000000341
        },
        {
          "name": "G3",
          "midi": 55,
          "time": 164.25499999999874,
          "velocity": 0.3464566929133858,
          "duration": 0.09000000000000341
        },
        {
          "name": "E4",
          "midi": 64,
          "time": 164.25999999999874,
          "velocity": 0.3464566929133858,
          "duration": 0.09000000000000341
        },
        {
          "name": "C3",
          "midi": 48,
          "time": 164.38499999999874,
          "velocity": 0.48031496062992124,
          "duration": 0.08999999999997499
        },
        {
          "name": "G3",
          "midi": 55,
          "time": 164.40499999999872,
          "velocity": 0.48031496062992124,
          "duration": 0.09000000000000341
        },
        {
          "name": "G4",
          "midi": 67,
          "time": 164.4149999999987,
          "velocity": 0.5748031496062992,
          "duration": 0.2750000000000057
        },
        {
          "name": "C4",
          "midi": 60,
          "time": 164.4149999999987,
          "velocity": 0.48031496062992124,
          "duration": 0.09000000000000341
        },
        {
          "name": "E4",
          "midi": 64,
          "time": 164.4199999999987,
          "velocity": 0.48031496062992124,
          "duration": 0.09000000000000341
        },
        {
          "name": "C3",
          "midi": 48,
          "time": 164.65499999999872,
          "velocity": 0.48031496062992124,
          "duration": 0.08999999999997499
        },
        {
          "name": "G3",
          "midi": 55,
          "time": 164.67999999999873,
          "velocity": 0.48031496062992124,
          "duration": 0.08999999999997499
        },
        {
          "name": "E4",
          "midi": 64,
          "time": 164.68499999999872,
          "velocity": 0.48031496062992124,
          "duration": 0.08999999999997499
        },
        {
          "name": "C4",
          "midi": 60,
          "time": 164.68499999999872,
          "velocity": 0.48031496062992124,
          "duration": 0.08999999999997499
        },
        {
          "name": "G4",
          "midi": 67,
          "time": 164.7049999999987,
          "velocity": 0.5748031496062992,
          "duration": 0.2750000000000057
        },
        {
          "name": "C3",
          "midi": 48,
          "time": 164.8099999999987,
          "velocity": 0.33858267716535434,
          "duration": 0.09000000000000341
        },
        {
          "name": "G3",
          "midi": 55,
          "time": 164.8349999999987,
          "velocity": 0.33858267716535434,
          "duration": 0.09000000000000341
        },
        {
          "name": "C4",
          "midi": 60,
          "time": 164.8399999999987,
          "velocity": 0.33858267716535434,
          "duration": 0.09000000000000341
        },
        {
          "name": "E4",
          "midi": 64,
          "time": 164.8399999999987,
          "velocity": 0.33858267716535434,
          "duration": 0.09000000000000341
        },
        {
          "name": "C3",
          "midi": 48,
          "time": 164.9899999999987,
          "velocity": 0.48031496062992124,
          "duration": 0.09000000000000341
        },
        {
          "name": "G4",
          "midi": 67,
          "time": 165.0099999999987,
          "velocity": 0.5748031496062992,
          "duration": 0.2750000000000057
        },
        {
          "name": "G3",
          "midi": 55,
          "time": 165.0149999999987,
          "velocity": 0.48031496062992124,
          "duration": 0.09000000000000341
        },
        {
          "name": "E4",
          "midi": 64,
          "time": 165.0149999999987,
          "velocity": 0.48031496062992124,
          "duration": 0.09000000000000341
        },
        {
          "name": "C4",
          "midi": 60,
          "time": 165.0199999999987,
          "velocity": 0.48031496062992124,
          "duration": 0.09000000000000341
        },
        {
          "name": "C3",
          "midi": 48,
          "time": 165.2599999999987,
          "velocity": 0.48031496062992124,
          "duration": 0.09000000000000341
        },
        {
          "name": "G3",
          "midi": 55,
          "time": 165.28499999999872,
          "velocity": 0.48031496062992124,
          "duration": 0.09000000000000341
        },
        {
          "name": "F4",
          "midi": 65,
          "time": 165.2949999999987,
          "velocity": 0.5748031496062992,
          "duration": 0.27499999999997726
        },
        {
          "name": "G4",
          "midi": 67,
          "time": 165.2999999999987,
          "velocity": 0.5748031496062992,
          "duration": 0.27499999999997726
        },
        {
          "name": "D4",
          "midi": 62,
          "time": 165.2999999999987,
          "velocity": 0.48031496062992124,
          "duration": 0.09000000000000341
        },
        {
          "name": "C3",
          "midi": 48,
          "time": 165.3999999999987,
          "velocity": 0.2992125984251969,
          "duration": 0.09000000000000341
        },
        {
          "name": "G3",
          "midi": 55,
          "time": 165.4099999999987,
          "velocity": 0.2992125984251969,
          "duration": 0.09000000000000341
        },
        {
          "name": "D4",
          "midi": 62,
          "time": 165.4399999999987,
          "velocity": 0.2992125984251969,
          "duration": 0.09000000000000341
        },
        {
          "name": "C3",
          "midi": 48,
          "time": 165.58999999999867,
          "velocity": 0.5748031496062992,
          "duration": 1.9099999999999966
        },
        {
          "name": "G3",
          "midi": 55,
          "time": 165.58999999999867,
          "velocity": 0.5748031496062992,
          "duration": 1.9099999999999966
        },
        {
          "name": "C4",
          "midi": 60,
          "time": 165.58999999999867,
          "velocity": 0.5748031496062992,
          "duration": 1.9099999999999966
        },
        {
          "name": "E4",
          "midi": 64,
          "time": 165.59999999999866,
          "velocity": 0.5748031496062992,
          "duration": 1.9099999999999966
        },
        {
          "name": "G4",
          "midi": 67,
          "time": 165.59999999999866,
          "velocity": 0.5748031496062992,
          "duration": 1.9099999999999966
        },
        {
          "name": "E3",
          "midi": 52,
          "time": 167.68999999999866,
          "velocity": 0.48031496062992124,
          "duration": 0.09000000000000341
        },
        {
          "name": "C3",
          "midi": 48,
          "time": 167.68999999999866,
          "velocity": 0.48031496062992124,
          "duration": 0.09000000000000341
        },
        {
          "name": "G3",
          "midi": 55,
          "time": 167.69999999999865,
          "velocity": 0.48031496062992124,
          "duration": 0.09000000000000341
        },
        {
          "name": "C3",
          "midi": 48,
          "time": 167.84499999999866,
          "velocity": 0.48031496062992124,
          "duration": 0.09000000000000341
        },
        {
          "name": "E3",
          "midi": 52,
          "time": 167.84499999999866,
          "velocity": 0.48031496062992124,
          "duration": 0.09000000000000341
        },
        {
          "name": "G3",
          "midi": 55,
          "time": 167.84999999999866,
          "velocity": 0.48031496062992124,
          "duration": 0.09000000000000341
        },
        {
          "name": "F3",
          "midi": 53,
          "time": 167.98999999999867,
          "velocity": 0.48031496062992124,
          "duration": 0.09000000000000341
        },
        {
          "name": "A3",
          "midi": 57,
          "time": 167.99499999999867,
          "velocity": 0.48031496062992124,
          "duration": 0.09000000000000341
        },
        {
          "name": "C4",
          "midi": 60,
          "time": 168.00999999999866,
          "velocity": 0.48031496062992124,
          "duration": 0.09000000000000341
        },
        {
          "name": "F4",
          "midi": 65,
          "time": 168.02999999999867,
          "velocity": 0.48031496062992124,
          "duration": 0.09000000000000341
        },
        {
          "name": "F3",
          "midi": 53,
          "time": 168.28499999999866,
          "velocity": 0.3543307086614173,
          "duration": 0.08999999999997499
        },
        {
          "name": "A3",
          "midi": 57,
          "time": 168.29999999999865,
          "velocity": 0.3543307086614173,
          "duration": 0.08999999999997499
        },
        {
          "name": "C4",
          "midi": 60,
          "time": 168.31499999999863,
          "velocity": 0.3543307086614173,
          "duration": 0.08999999999997499
        },
        {
          "name": "F3",
          "midi": 53,
          "time": 168.5649999999986,
          "velocity": 0.48031496062992124,
          "duration": 0.08999999999997499
        },
        {
          "name": "A#3",
          "midi": 58,
          "time": 168.5799999999986,
          "velocity": 0.48031496062992124,
          "duration": 0.08999999999997499
        },
        {
          "name": "C4",
          "midi": 60,
          "time": 168.59499999999858,
          "velocity": 0.48031496062992124,
          "duration": 0.08999999999997499
        },
        {
          "name": "F4",
          "midi": 65,
          "time": 168.6149999999986,
          "velocity": 0.48031496062992124,
          "duration": 0.08999999999997499
        },
        {
          "name": "F3",
          "midi": 53,
          "time": 168.86999999999856,
          "velocity": 0.36220472440944884,
          "duration": 0.08999999999997499
        },
        {
          "name": "A3",
          "midi": 57,
          "time": 168.88499999999854,
          "velocity": 0.36220472440944884,
          "duration": 0.08999999999997499
        },
        {
          "name": "C4",
          "midi": 60,
          "time": 168.89999999999853,
          "velocity": 0.36220472440944884,
          "duration": 0.08999999999997499
        },
        {
          "name": "F3",
          "midi": 53,
          "time": 169.1899999999985,
          "velocity": 0.48031496062992124,
          "duration": 0.08999999999997499
        },
        {
          "name": "A3",
          "midi": 57,
          "time": 169.20499999999848,
          "velocity": 0.48031496062992124,
          "duration": 0.08999999999997499
        },
        {
          "name": "C4",
          "midi": 60,
          "time": 169.21999999999846,
          "velocity": 0.48031496062992124,
          "duration": 0.08999999999997499
        },
        {
          "name": "F4",
          "midi": 65,
          "time": 169.23999999999847,
          "velocity": 0.48031496062992124,
          "duration": 0.08999999999997499
        },
        {
          "name": "F3",
          "midi": 53,
          "time": 169.49499999999844,
          "velocity": 0.36220472440944884,
          "duration": 0.08999999999997499
        },
        {
          "name": "A3",
          "midi": 57,
          "time": 169.50999999999843,
          "velocity": 0.36220472440944884,
          "duration": 0.08999999999997499
        },
        {
          "name": "C4",
          "midi": 60,
          "time": 169.5249999999984,
          "velocity": 0.3700787401574803,
          "duration": 0.08999999999997499
        },
        {
          "name": "F3",
          "midi": 53,
          "time": 169.77499999999839,
          "velocity": 0.48031496062992124,
          "duration": 0.08999999999997499
        },
        {
          "name": "A#3",
          "midi": 58,
          "time": 169.78999999999837,
          "velocity": 0.48031496062992124,
          "duration": 0.08999999999997499
        },
        {
          "name": "C4",
          "midi": 60,
          "time": 169.80499999999836,
          "velocity": 0.48031496062992124,
          "duration": 0.08999999999997499
        },
        {
          "name": "F4",
          "midi": 65,
          "time": 169.82499999999837,
          "velocity": 0.48031496062992124,
          "duration": 0.08999999999997499
        },
        {
          "name": "F3",
          "midi": 53,
          "time": 170.07999999999834,
          "velocity": 0.3464566929133858,
          "duration": 0.08999999999997499
        },
        {
          "name": "A3",
          "midi": 57,
          "time": 170.09499999999832,
          "velocity": 0.3464566929133858,
          "duration": 0.08999999999997499
        },
        {
          "name": "C4",
          "midi": 60,
          "time": 170.1099999999983,
          "velocity": 0.3464566929133858,
          "duration": 0.08999999999997499
        },
        {
          "name": "F3",
          "midi": 53,
          "time": 170.23999999999828,
          "velocity": 0.3464566929133858,
          "duration": 0.08999999999997499
        },
        {
          "name": "A3",
          "midi": 57,
          "time": 170.25499999999826,
          "velocity": 0.3464566929133858,
          "duration": 0.08999999999997499
        },
        {
          "name": "C4",
          "midi": 60,
          "time": 170.26999999999825,
          "velocity": 0.3464566929133858,
          "duration": 0.08999999999997499
        },
        {
          "name": "F3",
          "midi": 53,
          "time": 170.3749999999982,
          "velocity": 0.48031496062992124,
          "duration": 0.08999999999997499
        },
        {
          "name": "A#3",
          "midi": 58,
          "time": 170.3899999999982,
          "velocity": 0.48031496062992124,
          "duration": 0.08999999999997499
        },
        {
          "name": "D4",
          "midi": 62,
          "time": 170.4199999999982,
          "velocity": 0.48031496062992124,
          "duration": 0.08999999999997499
        },
        {
          "name": "F4",
          "midi": 65,
          "time": 170.4249999999982,
          "velocity": 0.48031496062992124,
          "duration": 0.08999999999997499
        },
        {
          "name": "F3",
          "midi": 53,
          "time": 170.67999999999816,
          "velocity": 0.3543307086614173,
          "duration": 0.08999999999997499
        },
        {
          "name": "A#3",
          "midi": 58,
          "time": 170.69499999999815,
          "velocity": 0.3543307086614173,
          "duration": 0.08999999999997499
        },
        {
          "name": "D4",
          "midi": 62,
          "time": 170.72499999999815,
          "velocity": 0.3543307086614173,
          "duration": 0.08999999999997499
        },
        {
          "name": "F3",
          "midi": 53,
          "time": 170.95999999999813,
          "velocity": 0.48031496062992124,
          "duration": 0.08999999999997499
        },
        {
          "name": "A#3",
          "midi": 58,
          "time": 170.97499999999812,
          "velocity": 0.48031496062992124,
          "duration": 0.08999999999997499
        },
        {
          "name": "D4",
          "midi": 62,
          "time": 171.00499999999812,
          "velocity": 0.48031496062992124,
          "duration": 0.08999999999997499
        },
        {
          "name": "F4",
          "midi": 65,
          "time": 171.00999999999812,
          "velocity": 0.48031496062992124,
          "duration": 0.08999999999997499
        },
        {
          "name": "F3",
          "midi": 53,
          "time": 171.26499999999808,
          "velocity": 0.4409448818897638,
          "duration": 0.08999999999997499
        },
        {
          "name": "C4",
          "midi": 60,
          "time": 171.27999999999807,
          "velocity": 0.4409448818897638,
          "duration": 0.020000000000010232
        },
        {
          "name": "D4",
          "midi": 62,
          "time": 171.30999999999807,
          "velocity": 0.4409448818897638,
          "duration": 0.08999999999997499
        },
        {
          "name": "F3",
          "midi": 53,
          "time": 171.58499999999805,
          "velocity": 0.48031496062992124,
          "duration": 0.08999999999997499
        },
        {
          "name": "C4",
          "midi": 60,
          "time": 171.59999999999803,
          "velocity": 0.48031496062992124,
          "duration": 0.08999999999997499
        },
        {
          "name": "D4",
          "midi": 62,
          "time": 171.62999999999803,
          "velocity": 0.48031496062992124,
          "duration": 0.08999999999997499
        },
        {
          "name": "F4",
          "midi": 65,
          "time": 171.63499999999803,
          "velocity": 0.48031496062992124,
          "duration": 0.08999999999997499
        },
        {
          "name": "F3",
          "midi": 53,
          "time": 171.889999999998,
          "velocity": 0.36220472440944884,
          "duration": 0.08999999999997499
        },
        {
          "name": "A#3",
          "midi": 58,
          "time": 171.90499999999798,
          "velocity": 0.36220472440944884,
          "duration": 0.08999999999997499
        },
        {
          "name": "D4",
          "midi": 62,
          "time": 171.93499999999798,
          "velocity": 0.3700787401574803,
          "duration": 0.08999999999997499
        },
        {
          "name": "F3",
          "midi": 53,
          "time": 172.16999999999797,
          "velocity": 0.48031496062992124,
          "duration": 0.08999999999997499
        },
        {
          "name": "A#3",
          "midi": 58,
          "time": 172.18499999999796,
          "velocity": 0.48031496062992124,
          "duration": 0.08999999999997499
        },
        {
          "name": "D4",
          "midi": 62,
          "time": 172.21499999999796,
          "velocity": 0.48031496062992124,
          "duration": 0.08999999999997499
        },
        {
          "name": "F4",
          "midi": 65,
          "time": 172.21999999999795,
          "velocity": 0.48031496062992124,
          "duration": 0.08999999999997499
        },
        {
          "name": "F3",
          "midi": 53,
          "time": 172.47499999999792,
          "velocity": 0.3464566929133858,
          "duration": 0.08999999999997499
        },
        {
          "name": "C4",
          "midi": 60,
          "time": 172.4899999999979,
          "velocity": 0.3464566929133858,
          "duration": 0.08999999999997499
        },
        {
          "name": "D4",
          "midi": 62,
          "time": 172.5199999999979,
          "velocity": 0.3464566929133858,
          "duration": 0.08999999999997499
        },
        {
          "name": "F3",
          "midi": 53,
          "time": 172.62499999999787,
          "velocity": 0.3464566929133858,
          "duration": 0.08999999999997499
        },
        {
          "name": "C4",
          "midi": 60,
          "time": 172.63999999999785,
          "velocity": 0.3464566929133858,
          "duration": 0.08999999999997499
        },
        {
          "name": "D4",
          "midi": 62,
          "time": 172.66999999999786,
          "velocity": 0.3464566929133858,
          "duration": 0.08999999999997499
        },
        {
          "name": "F3",
          "midi": 53,
          "time": 172.78999999999783,
          "velocity": 0.48031496062992124,
          "duration": 0.08999999999997499
        },
        {
          "name": "A3",
          "midi": 57,
          "time": 172.80499999999782,
          "velocity": 0.48031496062992124,
          "duration": 0.08999999999997499
        },
        {
          "name": "C4",
          "midi": 60,
          "time": 172.8199999999978,
          "velocity": 0.48031496062992124,
          "duration": 0.08999999999997499
        },
        {
          "name": "F4",
          "midi": 65,
          "time": 172.83999999999781,
          "velocity": 0.48031496062992124,
          "duration": 0.08999999999997499
        },
        {
          "name": "F3",
          "midi": 53,
          "time": 173.09499999999778,
          "velocity": 0.3543307086614173,
          "duration": 0.08999999999997499
        },
        {
          "name": "A3",
          "midi": 57,
          "time": 173.10999999999777,
          "velocity": 0.3543307086614173,
          "duration": 0.08999999999997499
        },
        {
          "name": "C4",
          "midi": 60,
          "time": 173.12499999999775,
          "velocity": 0.3543307086614173,
          "duration": 0.08999999999997499
        },
        {
          "name": "F3",
          "midi": 53,
          "time": 173.37499999999773,
          "velocity": 0.48031496062992124,
          "duration": 0.09000000000000341
        },
        {
          "name": "A#3",
          "midi": 58,
          "time": 173.39999999999773,
          "velocity": 0.48031496062992124,
          "duration": 0.09000000000000341
        },
        {
          "name": "C4",
          "midi": 60,
          "time": 173.40499999999773,
          "velocity": 0.48031496062992124,
          "duration": 0.09000000000000341
        },
        {
          "name": "C5",
          "midi": 72,
          "time": 173.42499999999774,
          "velocity": 0.48031496062992124,
          "duration": 0.09000000000000341
        },
        {
          "name": "F4",
          "midi": 65,
          "time": 173.42499999999774,
          "velocity": 0.48031496062992124,
          "duration": 0.09000000000000341
        },
        {
          "name": "F3",
          "midi": 53,
          "time": 173.67999999999773,
          "velocity": 0.36220472440944884,
          "duration": 0.08999999999997499
        },
        {
          "name": "A#3",
          "midi": 58,
          "time": 173.69499999999772,
          "velocity": 0.36220472440944884,
          "duration": 0.08999999999997499
        },
        {
          "name": "C4",
          "midi": 60,
          "time": 173.7099999999977,
          "velocity": 0.36220472440944884,
          "duration": 0.08999999999997499
        },
        {
          "name": "C5",
          "midi": 72,
          "time": 173.7199999999977,
          "velocity": 0.48031496062992124,
          "duration": 0.08999999999997499
        },
        {
          "name": "F3",
          "midi": 53,
          "time": 173.99999999999767,
          "velocity": 0.48031496062992124,
          "duration": 0.08999999999997499
        },
        {
          "name": "A3",
          "midi": 57,
          "time": 174.01499999999766,
          "velocity": 0.48031496062992124,
          "duration": 0.08999999999997499
        },
        {
          "name": "C4",
          "midi": 60,
          "time": 174.02999999999764,
          "velocity": 0.48031496062992124,
          "duration": 0.08999999999997499
        },
        {
          "name": "F4",
          "midi": 65,
          "time": 174.04999999999765,
          "velocity": 0.48031496062992124,
          "duration": 0.08999999999997499
        },
        {
          "name": "F3",
          "midi": 53,
          "time": 174.30499999999762,
          "velocity": 0.36220472440944884,
          "duration": 0.08999999999997499
        },
        {
          "name": "A3",
          "midi": 57,
          "time": 174.3199999999976,
          "velocity": 0.36220472440944884,
          "duration": 0.08999999999997499
        },
        {
          "name": "C4",
          "midi": 60,
          "time": 174.3349999999976,
          "velocity": 0.3700787401574803,
          "duration": 0.08999999999997499
        },
        {
          "name": "F3",
          "midi": 53,
          "time": 174.58499999999756,
          "velocity": 0.48031496062992124,
          "duration": 0.08999999999997499
        },
        {
          "name": "A#3",
          "midi": 58,
          "time": 174.59999999999755,
          "velocity": 0.48031496062992124,
          "duration": 0.08999999999997499
        },
        {
          "name": "C4",
          "midi": 60,
          "time": 174.61499999999754,
          "velocity": 0.48031496062992124,
          "duration": 0.08999999999997499
        },
        {
          "name": "F4",
          "midi": 65,
          "time": 174.63499999999755,
          "velocity": 0.48031496062992124,
          "duration": 0.08999999999997499
        },
        {
          "name": "F3",
          "midi": 53,
          "time": 174.8899999999975,
          "velocity": 0.3464566929133858,
          "duration": 0.08999999999997499
        },
        {
          "name": "A3",
          "midi": 57,
          "time": 174.9049999999975,
          "velocity": 0.3464566929133858,
          "duration": 0.08999999999997499
        },
        {
          "name": "C4",
          "midi": 60,
          "time": 174.9199999999975,
          "velocity": 0.3464566929133858,
          "duration": 0.08999999999997499
        },
        {
          "name": "F3",
          "midi": 53,
          "time": 175.04999999999745,
          "velocity": 0.3464566929133858,
          "duration": 0.08999999999997499
        },
        {
          "name": "A3",
          "midi": 57,
          "time": 175.06499999999744,
          "velocity": 0.3464566929133858,
          "duration": 0.08999999999997499
        },
        {
          "name": "C4",
          "midi": 60,
          "time": 175.07999999999743,
          "velocity": 0.3464566929133858,
          "duration": 0.08999999999997499
        },
        {
          "name": "F3",
          "midi": 53,
          "time": 175.1849999999974,
          "velocity": 0.48031496062992124,
          "duration": 0.08999999999997499
        },
        {
          "name": "A3",
          "midi": 57,
          "time": 175.19999999999737,
          "velocity": 0.48031496062992124,
          "duration": 0.08999999999997499
        },
        {
          "name": "C4",
          "midi": 60,
          "time": 175.21499999999736,
          "velocity": 0.48031496062992124,
          "duration": 0.08999999999997499
        },
        {
          "name": "F4",
          "midi": 65,
          "time": 175.23499999999737,
          "velocity": 0.48031496062992124,
          "duration": 0.08999999999997499
        },
        {
          "name": "F3",
          "midi": 53,
          "time": 175.48999999999734,
          "velocity": 0.3543307086614173,
          "duration": 0.08999999999997499
        },
        {
          "name": "A3",
          "midi": 57,
          "time": 175.50499999999732,
          "velocity": 0.3543307086614173,
          "duration": 0.08999999999997499
        },
        {
          "name": "C4",
          "midi": 60,
          "time": 175.5199999999973,
          "velocity": 0.3543307086614173,
          "duration": 0.08999999999997499
        },
        {
          "name": "F3",
          "midi": 53,
          "time": 175.76999999999728,
          "velocity": 0.48031496062992124,
          "duration": 0.08999999999997499
        },
        {
          "name": "A#3",
          "midi": 58,
          "time": 175.78499999999727,
          "velocity": 0.48031496062992124,
          "duration": 0.08999999999997499
        },
        {
          "name": "C4",
          "midi": 60,
          "time": 175.79999999999725,
          "velocity": 0.48031496062992124,
          "duration": 0.08999999999997499
        },
        {
          "name": "F4",
          "midi": 65,
          "time": 175.81999999999726,
          "velocity": 0.48031496062992124,
          "duration": 0.08999999999997499
        },
        {
          "name": "F3",
          "midi": 53,
          "time": 176.07499999999723,
          "velocity": 0.36220472440944884,
          "duration": 0.08999999999997499
        },
        {
          "name": "A3",
          "midi": 57,
          "time": 176.08999999999722,
          "velocity": 0.36220472440944884,
          "duration": 0.08999999999997499
        },
        {
          "name": "C4",
          "midi": 60,
          "time": 176.1049999999972,
          "velocity": 0.36220472440944884,
          "duration": 0.08999999999997499
        },
        {
          "name": "F3",
          "midi": 53,
          "time": 176.39499999999717,
          "velocity": 0.48031496062992124,
          "duration": 0.08999999999997499
        },
        {
          "name": "A3",
          "midi": 57,
          "time": 176.40999999999715,
          "velocity": 0.48031496062992124,
          "duration": 0.08999999999997499
        },
        {
          "name": "C4",
          "midi": 60,
          "time": 176.42499999999714,
          "velocity": 0.48031496062992124,
          "duration": 0.08999999999997499
        },
        {
          "name": "F4",
          "midi": 65,
          "time": 176.44499999999715,
          "velocity": 0.48031496062992124,
          "duration": 0.08999999999997499
        },
        {
          "name": "F3",
          "midi": 53,
          "time": 176.69999999999712,
          "velocity": 0.36220472440944884,
          "duration": 0.08999999999997499
        },
        {
          "name": "A3",
          "midi": 57,
          "time": 176.7149999999971,
          "velocity": 0.36220472440944884,
          "duration": 0.08999999999997499
        },
        {
          "name": "C4",
          "midi": 60,
          "time": 176.7299999999971,
          "velocity": 0.3700787401574803,
          "duration": 0.08999999999997499
        },
        {
          "name": "F3",
          "midi": 53,
          "time": 176.84499999999707,
          "velocity": 0.3464566929133858,
          "duration": 0.08999999999997499
        },
        {
          "name": "A3",
          "midi": 57,
          "time": 176.85999999999706,
          "velocity": 0.3464566929133858,
          "duration": 0.08999999999997499
        },
        {
          "name": "C4",
          "midi": 60,
          "time": 176.87499999999704,
          "velocity": 0.3464566929133858,
          "duration": 0.08999999999997499
        },
        {
          "name": "F3",
          "midi": 53,
          "time": 176.979999999997,
          "velocity": 0.48031496062992124,
          "duration": 0.08999999999997499
        },
        {
          "name": "A#3",
          "midi": 58,
          "time": 176.994999999997,
          "velocity": 0.48031496062992124,
          "duration": 0.08999999999997499
        },
        {
          "name": "C4",
          "midi": 60,
          "time": 177.00999999999698,
          "velocity": 0.48031496062992124,
          "duration": 0.08999999999997499
        },
        {
          "name": "F4",
          "midi": 65,
          "time": 177.029999999997,
          "velocity": 0.48031496062992124,
          "duration": 0.08999999999997499
        },
        {
          "name": "F3",
          "midi": 53,
          "time": 177.28499999999696,
          "velocity": 0.3464566929133858,
          "duration": 0.08999999999997499
        },
        {
          "name": "A3",
          "midi": 57,
          "time": 177.29999999999694,
          "velocity": 0.3464566929133858,
          "duration": 0.08999999999997499
        },
        {
          "name": "C4",
          "midi": 60,
          "time": 177.31499999999693,
          "velocity": 0.3464566929133858,
          "duration": 0.08999999999997499
        },
        {
          "name": "F3",
          "midi": 53,
          "time": 177.4499999999969,
          "velocity": 0.3464566929133858,
          "duration": 0.08999999999997499
        },
        {
          "name": "A3",
          "midi": 57,
          "time": 177.46499999999688,
          "velocity": 0.3464566929133858,
          "duration": 0.08999999999997499
        },
        {
          "name": "C4",
          "midi": 60,
          "time": 177.47999999999686,
          "velocity": 0.3464566929133858,
          "duration": 0.08999999999997499
        },
        {
          "name": "A3",
          "midi": 57,
          "time": 177.59999999999684,
          "velocity": 0.48031496062992124,
          "duration": 0.09000000000000341
        },
        {
          "name": "D4",
          "midi": 62,
          "time": 177.61999999999685,
          "velocity": 0.48031496062992124,
          "duration": 0.09000000000000341
        },
        {
          "name": "F4",
          "midi": 65,
          "time": 177.62499999999685,
          "velocity": 0.48031496062992124,
          "duration": 0.09000000000000341
        },
        {
          "name": "A4",
          "midi": 69,
          "time": 177.63499999999684,
          "velocity": 0.48031496062992124,
          "duration": 0.09000000000000341
        },
        {
          "name": "D3",
          "midi": 50,
          "time": 177.89999999999685,
          "velocity": 0.3543307086614173,
          "duration": 0.09000000000000341
        },
        {
          "name": "A3",
          "midi": 57,
          "time": 177.90499999999685,
          "velocity": 0.3543307086614173,
          "duration": 0.09000000000000341
        },
        {
          "name": "D4",
          "midi": 62,
          "time": 177.92499999999686,
          "velocity": 0.3543307086614173,
          "duration": 0.09000000000000341
        },
        {
          "name": "D3",
          "midi": 50,
          "time": 178.17999999999685,
          "velocity": 0.48031496062992124,
          "duration": 0.08999999999997499
        },
        {
          "name": "A3",
          "midi": 57,
          "time": 178.18499999999685,
          "velocity": 0.48031496062992124,
          "duration": 0.08999999999997499
        },
        {
          "name": "F4",
          "midi": 65,
          "time": 178.19499999999684,
          "velocity": 0.48031496062992124,
          "duration": 0.08999999999997499
        },
        {
          "name": "D4",
          "midi": 62,
          "time": 178.20499999999683,
          "velocity": 0.48031496062992124,
          "duration": 0.08999999999997499
        },
        {
          "name": "A4",
          "midi": 69,
          "time": 178.21999999999682,
          "velocity": 0.48031496062992124,
          "duration": 0.08999999999997499
        },
        {
          "name": "D3",
          "midi": 50,
          "time": 178.4849999999968,
          "velocity": 0.36220472440944884,
          "duration": 0.09000000000000341
        },
        {
          "name": "A3",
          "midi": 57,
          "time": 178.4899999999968,
          "velocity": 0.36220472440944884,
          "duration": 0.09000000000000341
        },
        {
          "name": "D4",
          "midi": 62,
          "time": 178.5099999999968,
          "velocity": 0.36220472440944884,
          "duration": 0.09000000000000341
        },
        {
          "name": "D3",
          "midi": 50,
          "time": 178.80499999999682,
          "velocity": 0.48031496062992124,
          "duration": 0.08999999999997499
        },
        {
          "name": "A3",
          "midi": 57,
          "time": 178.80999999999682,
          "velocity": 0.48031496062992124,
          "duration": 0.08999999999997499
        },
        {
          "name": "F4",
          "midi": 65,
          "time": 178.8249999999968,
          "velocity": 0.48031496062992124,
          "duration": 0.08999999999997499
        },
        {
          "name": "D4",
          "midi": 62,
          "time": 178.8299999999968,
          "velocity": 0.48031496062992124,
          "duration": 0.08999999999997499
        },
        {
          "name": "A4",
          "midi": 69,
          "time": 178.8449999999968,
          "velocity": 0.48031496062992124,
          "duration": 0.08999999999997499
        },
        {
          "name": "D3",
          "midi": 50,
          "time": 179.10999999999677,
          "velocity": 0.36220472440944884,
          "duration": 0.09000000000000341
        },
        {
          "name": "A3",
          "midi": 57,
          "time": 179.11499999999677,
          "velocity": 0.36220472440944884,
          "duration": 0.09000000000000341
        },
        {
          "name": "D4",
          "midi": 62,
          "time": 179.13499999999678,
          "velocity": 0.3700787401574803,
          "duration": 0.09000000000000341
        },
        {
          "name": "D3",
          "midi": 50,
          "time": 179.38999999999677,
          "velocity": 0.48031496062992124,
          "duration": 0.08999999999997499
        },
        {
          "name": "A3",
          "midi": 57,
          "time": 179.39499999999677,
          "velocity": 0.48031496062992124,
          "duration": 0.08999999999997499
        },
        {
          "name": "D4",
          "midi": 62,
          "time": 179.41499999999678,
          "velocity": 0.48031496062992124,
          "duration": 0.08999999999997499
        },
        {
          "name": "A4",
          "midi": 69,
          "time": 179.42999999999677,
          "velocity": 0.48031496062992124,
          "duration": 0.08999999999997499
        },
        {
          "name": "F4",
          "midi": 65,
          "time": 179.43499999999676,
          "velocity": 0.48031496062992124,
          "duration": 0.08999999999997499
        },
        {
          "name": "D3",
          "midi": 50,
          "time": 179.69499999999672,
          "velocity": 0.3464566929133858,
          "duration": 0.09000000000000341
        },
        {
          "name": "A3",
          "midi": 57,
          "time": 179.69999999999672,
          "velocity": 0.3464566929133858,
          "duration": 0.09000000000000341
        },
        {
          "name": "D4",
          "midi": 62,
          "time": 179.71999999999673,
          "velocity": 0.3464566929133858,
          "duration": 0.09000000000000341
        },
        {
          "name": "D3",
          "midi": 50,
          "time": 179.85499999999672,
          "velocity": 0.6220472440944882,
          "duration": 0.09000000000000341
        },
        {
          "name": "A3",
          "midi": 57,
          "time": 179.85999999999672,
          "velocity": 0.6220472440944882,
          "duration": 0.09000000000000341
        },
        {
          "name": "D4",
          "midi": 62,
          "time": 179.87999999999673,
          "velocity": 0.6220472440944882,
          "duration": 0.09000000000000341
        },
        {
          "name": "A#3",
          "midi": 58,
          "time": 179.99499999999674,
          "velocity": 0.48031496062992124,
          "duration": 0.09000000000000341
        },
        {
          "name": "A#2",
          "midi": 46,
          "time": 179.99499999999674,
          "velocity": 0.48031496062992124,
          "duration": 0.09000000000000341
        },
        {
          "name": "D4",
          "midi": 62,
          "time": 180.01499999999675,
          "velocity": 0.48031496062992124,
          "duration": 0.09000000000000341
        },
        {
          "name": "F4",
          "midi": 65,
          "time": 180.01999999999674,
          "velocity": 0.48031496062992124,
          "duration": 0.09000000000000341
        },
        {
          "name": "A#4",
          "midi": 70,
          "time": 180.02999999999673,
          "velocity": 0.48031496062992124,
          "duration": 0.09000000000000341
        },
        {
          "name": "A#3",
          "midi": 58,
          "time": 180.29999999999674,
          "velocity": 0.3543307086614173,
          "duration": 0.09000000000000341
        },
        {
          "name": "A#2",
          "midi": 46,
          "time": 180.29999999999674,
          "velocity": 0.3543307086614173,
          "duration": 0.09000000000000341
        },
        {
          "name": "D4",
          "midi": 62,
          "time": 180.31999999999675,
          "velocity": 0.3543307086614173,
          "duration": 0.09000000000000341
        },
        {
          "name": "A#2",
          "midi": 46,
          "time": 180.57999999999674,
          "velocity": 0.48031496062992124,
          "duration": 0.08999999999997499
        },
        {
          "name": "A#3",
          "midi": 58,
          "time": 180.57999999999674,
          "velocity": 0.48031496062992124,
          "duration": 0.08999999999997499
        },
        {
          "name": "F4",
          "midi": 65,
          "time": 180.58999999999673,
          "velocity": 0.48031496062992124,
          "duration": 0.08999999999997499
        },
        {
          "name": "D4",
          "midi": 62,
          "time": 180.59999999999673,
          "velocity": 0.48031496062992124,
          "duration": 0.08999999999997499
        },
        {
          "name": "A#4",
          "midi": 70,
          "time": 180.6149999999967,
          "velocity": 0.48031496062992124,
          "duration": 0.08999999999997499
        },
        {
          "name": "A#3",
          "midi": 58,
          "time": 180.8849999999967,
          "velocity": 0.36220472440944884,
          "duration": 0.09000000000000341
        },
        {
          "name": "A#2",
          "midi": 46,
          "time": 180.8849999999967,
          "velocity": 0.36220472440944884,
          "duration": 0.09000000000000341
        },
        {
          "name": "D4",
          "midi": 62,
          "time": 180.9049999999967,
          "velocity": 0.36220472440944884,
          "duration": 0.09000000000000341
        },
        {
          "name": "A#3",
          "midi": 58,
          "time": 181.20499999999672,
          "velocity": 0.48031496062992124,
          "duration": 0.08999999999997499
        },
        {
          "name": "A#2",
          "midi": 46,
          "time": 181.20499999999672,
          "velocity": 0.48031496062992124,
          "duration": 0.08999999999997499
        },
        {
          "name": "F4",
          "midi": 65,
          "time": 181.2199999999967,
          "velocity": 0.48031496062992124,
          "duration": 0.08999999999997499
        },
        {
          "name": "D4",
          "midi": 62,
          "time": 181.2249999999967,
          "velocity": 0.48031496062992124,
          "duration": 0.08999999999997499
        },
        {
          "name": "A#4",
          "midi": 70,
          "time": 181.23999999999668,
          "velocity": 0.48031496062992124,
          "duration": 0.08999999999997499
        },
        {
          "name": "A#2",
          "midi": 46,
          "time": 181.50999999999667,
          "velocity": 0.36220472440944884,
          "duration": 0.09000000000000341
        },
        {
          "name": "A#3",
          "midi": 58,
          "time": 181.50999999999667,
          "velocity": 0.36220472440944884,
          "duration": 0.09000000000000341
        },
        {
          "name": "D4",
          "midi": 62,
          "time": 181.52999999999668,
          "velocity": 0.3700787401574803,
          "duration": 0.09000000000000341
        },
        {
          "name": "A#3",
          "midi": 58,
          "time": 181.78999999999667,
          "velocity": 0.48031496062992124,
          "duration": 0.09000000000000341
        },
        {
          "name": "A#2",
          "midi": 46,
          "time": 181.78999999999667,
          "velocity": 0.48031496062992124,
          "duration": 0.09000000000000341
        },
        {
          "name": "D4",
          "midi": 62,
          "time": 181.80999999999668,
          "velocity": 0.48031496062992124,
          "duration": 0.09000000000000341
        },
        {
          "name": "A#4",
          "midi": 70,
          "time": 181.82499999999666,
          "velocity": 0.48031496062992124,
          "duration": 0.09000000000000341
        },
        {
          "name": "F4",
          "midi": 65,
          "time": 181.82999999999666,
          "velocity": 0.48031496062992124,
          "duration": 0.09000000000000341
        },
        {
          "name": "A#3",
          "midi": 58,
          "time": 182.09499999999667,
          "velocity": 0.3464566929133858,
          "duration": 0.09000000000000341
        },
        {
          "name": "A#2",
          "midi": 46,
          "time": 182.09499999999667,
          "velocity": 0.3464566929133858,
          "duration": 0.09000000000000341
        },
        {
          "name": "D4",
          "midi": 62,
          "time": 182.11499999999668,
          "velocity": 0.3464566929133858,
          "duration": 0.09000000000000341
        },
        {
          "name": "C3",
          "midi": 48,
          "time": 182.2549999999967,
          "velocity": 0.3464566929133858,
          "duration": 0.09000000000000341
        },
        {
          "name": "C4",
          "midi": 60,
          "time": 182.2549999999967,
          "velocity": 0.3464566929133858,
          "duration": 0.09000000000000341
        },
        {
          "name": "D4",
          "midi": 62,
          "time": 182.2749999999967,
          "velocity": 0.3464566929133858,
          "duration": 0.09000000000000341
        },
        {
          "name": "F3",
          "midi": 53,
          "time": 182.3749999999967,
          "velocity": 0.48031496062992124,
          "duration": 0.09000000000000341
        },
        {
          "name": "A3",
          "midi": 57,
          "time": 182.4049999999967,
          "velocity": 0.48031496062992124,
          "duration": 0.09000000000000341
        },
        {
          "name": "C4",
          "midi": 60,
          "time": 182.4199999999967,
          "velocity": 0.48031496062992124,
          "duration": 0.09000000000000341
        },
        {
          "name": "F4",
          "midi": 65,
          "time": 182.4399999999967,
          "velocity": 0.48031496062992124,
          "duration": 0.09000000000000341
        },
        {
          "name": "F3",
          "midi": 53,
          "time": 182.6949999999967,
          "velocity": 0.3543307086614173,
          "duration": 0.08999999999997499
        },
        {
          "name": "A3",
          "midi": 57,
          "time": 182.70999999999668,
          "velocity": 0.3543307086614173,
          "duration": 0.08999999999997499
        },
        {
          "name": "C4",
          "midi": 60,
          "time": 182.72499999999667,
          "velocity": 0.3543307086614173,
          "duration": 0.08999999999997499
        },
        {
          "name": "F3",
          "midi": 53,
          "time": 182.97499999999664,
          "velocity": 0.48031496062992124,
          "duration": 0.09000000000000341
        },
        {
          "name": "A#3",
          "midi": 58,
          "time": 182.99999999999665,
          "velocity": 0.48031496062992124,
          "duration": 0.09000000000000341
        },
        {
          "name": "C4",
          "midi": 60,
          "time": 183.00499999999664,
          "velocity": 0.48031496062992124,
          "duration": 0.09000000000000341
        },
        {
          "name": "C5",
          "midi": 72,
          "time": 183.02499999999665,
          "velocity": 0.48031496062992124,
          "duration": 0.09000000000000341
        },
        {
          "name": "F4",
          "midi": 65,
          "time": 183.02499999999665,
          "velocity": 0.48031496062992124,
          "duration": 0.09000000000000341
        },
        {
          "name": "F3",
          "midi": 53,
          "time": 183.27999999999665,
          "velocity": 0.36220472440944884,
          "duration": 0.08999999999997499
        },
        {
          "name": "A#3",
          "midi": 58,
          "time": 183.29499999999663,
          "velocity": 0.36220472440944884,
          "duration": 0.08999999999997499
        },
        {
          "name": "C4",
          "midi": 60,
          "time": 183.30999999999662,
          "velocity": 0.36220472440944884,
          "duration": 0.08999999999997499
        },
        {
          "name": "C5",
          "midi": 72,
          "time": 183.3199999999966,
          "velocity": 0.48031496062992124,
          "duration": 0.08999999999997499
        },
        {
          "name": "F3",
          "midi": 53,
          "time": 183.59999999999658,
          "velocity": 0.48031496062992124,
          "duration": 0.08999999999997499
        },
        {
          "name": "A3",
          "midi": 57,
          "time": 183.61499999999657,
          "velocity": 0.48031496062992124,
          "duration": 0.08999999999997499
        },
        {
          "name": "C4",
          "midi": 60,
          "time": 183.62999999999656,
          "velocity": 0.48031496062992124,
          "duration": 0.08999999999997499
        },
        {
          "name": "F4",
          "midi": 65,
          "time": 183.64999999999657,
          "velocity": 0.48031496062992124,
          "duration": 0.08999999999997499
        },
        {
          "name": "F3",
          "midi": 53,
          "time": 183.90499999999653,
          "velocity": 0.36220472440944884,
          "duration": 0.08999999999997499
        },
        {
          "name": "A3",
          "midi": 57,
          "time": 183.91999999999652,
          "velocity": 0.36220472440944884,
          "duration": 0.08999999999997499
        },
        {
          "name": "C4",
          "midi": 60,
          "time": 183.9349999999965,
          "velocity": 0.3700787401574803,
          "duration": 0.08999999999997499
        },
        {
          "name": "F3",
          "midi": 53,
          "time": 184.18499999999648,
          "velocity": 0.48031496062992124,
          "duration": 0.08999999999997499
        },
        {
          "name": "A#3",
          "midi": 58,
          "time": 184.19999999999646,
          "velocity": 0.48031496062992124,
          "duration": 0.08999999999997499
        },
        {
          "name": "C4",
          "midi": 60,
          "time": 184.21499999999645,
          "velocity": 0.48031496062992124,
          "duration": 0.08999999999997499
        },
        {
          "name": "F4",
          "midi": 65,
          "time": 184.23499999999646,
          "velocity": 0.48031496062992124,
          "duration": 0.08999999999997499
        },
        {
          "name": "F3",
          "midi": 53,
          "time": 184.48999999999643,
          "velocity": 0.3464566929133858,
          "duration": 0.08999999999997499
        },
        {
          "name": "A3",
          "midi": 57,
          "time": 184.50499999999641,
          "velocity": 0.3464566929133858,
          "duration": 0.08999999999997499
        },
        {
          "name": "C4",
          "midi": 60,
          "time": 184.5199999999964,
          "velocity": 0.3464566929133858,
          "duration": 0.08999999999997499
        },
        {
          "name": "F3",
          "midi": 53,
          "time": 184.64999999999637,
          "velocity": 0.3464566929133858,
          "duration": 0.08999999999997499
        },
        {
          "name": "A3",
          "midi": 57,
          "time": 184.66499999999635,
          "velocity": 0.3464566929133858,
          "duration": 0.08999999999997499
        },
        {
          "name": "C4",
          "midi": 60,
          "time": 184.67999999999634,
          "velocity": 0.3464566929133858,
          "duration": 0.08999999999997499
        },
        {
          "name": "F3",
          "midi": 53,
          "time": 184.7849999999963,
          "velocity": 0.48031496062992124,
          "duration": 0.08999999999997499
        },
        {
          "name": "A3",
          "midi": 57,
          "time": 184.7999999999963,
          "velocity": 0.48031496062992124,
          "duration": 0.08999999999997499
        },
        {
          "name": "C4",
          "midi": 60,
          "time": 184.81499999999627,
          "velocity": 0.48031496062992124,
          "duration": 0.08999999999997499
        },
        {
          "name": "F4",
          "midi": 65,
          "time": 184.83499999999628,
          "velocity": 0.48031496062992124,
          "duration": 0.08999999999997499
        },
        {
          "name": "F3",
          "midi": 53,
          "time": 185.08999999999625,
          "velocity": 0.3543307086614173,
          "duration": 0.08999999999997499
        },
        {
          "name": "A3",
          "midi": 57,
          "time": 185.10499999999624,
          "velocity": 0.3543307086614173,
          "duration": 0.08999999999997499
        },
        {
          "name": "C4",
          "midi": 60,
          "time": 185.11999999999622,
          "velocity": 0.3543307086614173,
          "duration": 0.08999999999997499
        },
        {
          "name": "F3",
          "midi": 53,
          "time": 185.3699999999962,
          "velocity": 0.48031496062992124,
          "duration": 0.08999999999997499
        },
        {
          "name": "A#3",
          "midi": 58,
          "time": 185.38499999999618,
          "velocity": 0.48031496062992124,
          "duration": 0.08999999999997499
        },
        {
          "name": "C4",
          "midi": 60,
          "time": 185.39999999999617,
          "velocity": 0.48031496062992124,
          "duration": 0.08999999999997499
        },
        {
          "name": "F4",
          "midi": 65,
          "time": 185.41999999999618,
          "velocity": 0.48031496062992124,
          "duration": 0.08999999999997499
        },
        {
          "name": "F3",
          "midi": 53,
          "time": 185.67499999999615,
          "velocity": 0.36220472440944884,
          "duration": 0.08999999999997499
        },
        {
          "name": "A3",
          "midi": 57,
          "time": 185.68999999999613,
          "velocity": 0.36220472440944884,
          "duration": 0.08999999999997499
        },
        {
          "name": "C4",
          "midi": 60,
          "time": 185.70499999999612,
          "velocity": 0.36220472440944884,
          "duration": 0.08999999999997499
        },
        {
          "name": "F3",
          "midi": 53,
          "time": 185.99499999999608,
          "velocity": 0.48031496062992124,
          "duration": 0.08999999999997499
        },
        {
          "name": "A3",
          "midi": 57,
          "time": 186.00999999999607,
          "velocity": 0.48031496062992124,
          "duration": 0.08999999999997499
        },
        {
          "name": "C4",
          "midi": 60,
          "time": 186.02499999999606,
          "velocity": 0.48031496062992124,
          "duration": 0.08999999999997499
        },
        {
          "name": "F4",
          "midi": 65,
          "time": 186.04499999999607,
          "velocity": 0.48031496062992124,
          "duration": 0.08999999999997499
        },
        {
          "name": "F3",
          "midi": 53,
          "time": 186.29999999999603,
          "velocity": 0.36220472440944884,
          "duration": 0.08999999999997499
        },
        {
          "name": "A3",
          "midi": 57,
          "time": 186.31499999999602,
          "velocity": 0.36220472440944884,
          "duration": 0.08999999999997499
        },
        {
          "name": "C4",
          "midi": 60,
          "time": 186.329999999996,
          "velocity": 0.3700787401574803,
          "duration": 0.08999999999997499
        },
        {
          "name": "F3",
          "midi": 53,
          "time": 186.44499999999599,
          "velocity": 0.3464566929133858,
          "duration": 0.08999999999997499
        },
        {
          "name": "A3",
          "midi": 57,
          "time": 186.45999999999597,
          "velocity": 0.3464566929133858,
          "duration": 0.08999999999997499
        },
        {
          "name": "C4",
          "midi": 60,
          "time": 186.47499999999596,
          "velocity": 0.3464566929133858,
          "duration": 0.08999999999997499
        },
        {
          "name": "F3",
          "midi": 53,
          "time": 186.57999999999592,
          "velocity": 0.48031496062992124,
          "duration": 0.08999999999997499
        },
        {
          "name": "A#3",
          "midi": 58,
          "time": 186.5949999999959,
          "velocity": 0.48031496062992124,
          "duration": 0.08999999999997499
        },
        {
          "name": "C4",
          "midi": 60,
          "time": 186.6099999999959,
          "velocity": 0.48031496062992124,
          "duration": 0.08999999999997499
        },
        {
          "name": "F4",
          "midi": 65,
          "time": 186.6299999999959,
          "velocity": 0.48031496062992124,
          "duration": 0.08999999999997499
        },
        {
          "name": "F3",
          "midi": 53,
          "time": 186.88499999999587,
          "velocity": 0.3464566929133858,
          "duration": 0.08999999999997499
        },
        {
          "name": "A3",
          "midi": 57,
          "time": 186.89999999999586,
          "velocity": 0.3464566929133858,
          "duration": 0.08999999999997499
        },
        {
          "name": "C4",
          "midi": 60,
          "time": 186.91499999999584,
          "velocity": 0.3464566929133858,
          "duration": 0.08999999999997499
        },
        {
          "name": "F3",
          "midi": 53,
          "time": 187.0499999999958,
          "velocity": 0.3464566929133858,
          "duration": 0.08999999999997499
        },
        {
          "name": "A3",
          "midi": 57,
          "time": 187.0649999999958,
          "velocity": 0.3464566929133858,
          "duration": 0.08999999999997499
        },
        {
          "name": "C4",
          "midi": 60,
          "time": 187.07999999999578,
          "velocity": 0.3464566929133858,
          "duration": 0.08999999999997499
        },
        {
          "name": "A3",
          "midi": 57,
          "time": 187.19999999999575,
          "velocity": 0.48031496062992124,
          "duration": 0.09000000000000341
        },
        {
          "name": "D4",
          "midi": 62,
          "time": 187.21999999999576,
          "velocity": 0.48031496062992124,
          "duration": 0.09000000000000341
        },
        {
          "name": "F4",
          "midi": 65,
          "time": 187.22499999999576,
          "velocity": 0.48031496062992124,
          "duration": 0.09000000000000341
        },
        {
          "name": "A4",
          "midi": 69,
          "time": 187.23499999999575,
          "velocity": 0.48031496062992124,
          "duration": 0.09000000000000341
        },
        {
          "name": "D3",
          "midi": 50,
          "time": 187.49999999999577,
          "velocity": 0.3543307086614173,
          "duration": 0.09000000000000341
        },
        {
          "name": "A3",
          "midi": 57,
          "time": 187.50499999999576,
          "velocity": 0.3543307086614173,
          "duration": 0.09000000000000341
        },
        {
          "name": "D4",
          "midi": 62,
          "time": 187.52499999999577,
          "velocity": 0.3543307086614173,
          "duration": 0.09000000000000341
        },
        {
          "name": "D3",
          "midi": 50,
          "time": 187.77999999999577,
          "velocity": 0.48031496062992124,
          "duration": 0.08999999999997499
        },
        {
          "name": "A3",
          "midi": 57,
          "time": 187.78499999999576,
          "velocity": 0.48031496062992124,
          "duration": 0.08999999999997499
        },
        {
          "name": "F4",
          "midi": 65,
          "time": 187.79499999999575,
          "velocity": 0.48031496062992124,
          "duration": 0.08999999999997499
        },
        {
          "name": "D4",
          "midi": 62,
          "time": 187.80499999999574,
          "velocity": 0.48031496062992124,
          "duration": 0.08999999999997499
        },
        {
          "name": "A4",
          "midi": 69,
          "time": 187.81999999999573,
          "velocity": 0.48031496062992124,
          "duration": 0.08999999999997499
        },
        {
          "name": "D3",
          "midi": 50,
          "time": 188.08499999999572,
          "velocity": 0.36220472440944884,
          "duration": 0.09000000000000341
        },
        {
          "name": "A3",
          "midi": 57,
          "time": 188.0899999999957,
          "velocity": 0.36220472440944884,
          "duration": 0.09000000000000341
        },
        {
          "name": "D4",
          "midi": 62,
          "time": 188.10999999999572,
          "velocity": 0.36220472440944884,
          "duration": 0.09000000000000341
        },
        {
          "name": "D3",
          "midi": 50,
          "time": 188.40499999999574,
          "velocity": 0.48031496062992124,
          "duration": 0.08999999999997499
        },
        {
          "name": "A3",
          "midi": 57,
          "time": 188.40999999999573,
          "velocity": 0.48031496062992124,
          "duration": 0.08999999999997499
        },
        {
          "name": "F4",
          "midi": 65,
          "time": 188.42499999999572,
          "velocity": 0.48031496062992124,
          "duration": 0.08999999999997499
        },
        {
          "name": "D4",
          "midi": 62,
          "time": 188.42999999999572,
          "velocity": 0.48031496062992124,
          "duration": 0.08999999999997499
        },
        {
          "name": "A4",
          "midi": 69,
          "time": 188.4449999999957,
          "velocity": 0.48031496062992124,
          "duration": 0.08999999999997499
        },
        {
          "name": "D3",
          "midi": 50,
          "time": 188.7099999999957,
          "velocity": 0.36220472440944884,
          "duration": 0.09000000000000341
        },
        {
          "name": "A3",
          "midi": 57,
          "time": 188.71499999999568,
          "velocity": 0.36220472440944884,
          "duration": 0.09000000000000341
        },
        {
          "name": "D4",
          "midi": 62,
          "time": 188.7349999999957,
          "velocity": 0.3700787401574803,
          "duration": 0.09000000000000341
        },
        {
          "name": "D3",
          "midi": 50,
          "time": 188.9899999999957,
          "velocity": 0.48031496062992124,
          "duration": 0.08999999999997499
        },
        {
          "name": "A3",
          "midi": 57,
          "time": 188.99499999999568,
          "velocity": 0.48031496062992124,
          "duration": 0.08999999999997499
        },
        {
          "name": "D4",
          "midi": 62,
          "time": 189.0149999999957,
          "velocity": 0.48031496062992124,
          "duration": 0.08999999999997499
        },
        {
          "name": "A4",
          "midi": 69,
          "time": 189.02999999999568,
          "velocity": 0.48031496062992124,
          "duration": 0.08999999999997499
        },
        {
          "name": "F4",
          "midi": 65,
          "time": 189.03499999999568,
          "velocity": 0.48031496062992124,
          "duration": 0.08999999999997499
        },
        {
          "name": "D3",
          "midi": 50,
          "time": 189.29499999999564,
          "velocity": 0.3464566929133858,
          "duration": 0.09000000000000341
        },
        {
          "name": "A3",
          "midi": 57,
          "time": 189.29999999999563,
          "velocity": 0.3464566929133858,
          "duration": 0.09000000000000341
        },
        {
          "name": "D4",
          "midi": 62,
          "time": 189.31999999999564,
          "velocity": 0.3464566929133858,
          "duration": 0.09000000000000341
        },
        {
          "name": "D3",
          "midi": 50,
          "time": 189.45499999999564,
          "velocity": 0.6220472440944882,
          "duration": 0.09000000000000341
        },
        {
          "name": "A3",
          "midi": 57,
          "time": 189.45999999999563,
          "velocity": 0.6220472440944882,
          "duration": 0.09000000000000341
        },
        {
          "name": "D4",
          "midi": 62,
          "time": 189.47999999999564,
          "velocity": 0.6220472440944882,
          "duration": 0.09000000000000341
        },
        {
          "name": "A#3",
          "midi": 58,
          "time": 189.59499999999565,
          "velocity": 0.48031496062992124,
          "duration": 0.09000000000000341
        },
        {
          "name": "A#2",
          "midi": 46,
          "time": 189.59499999999565,
          "velocity": 0.48031496062992124,
          "duration": 0.09000000000000341
        },
        {
          "name": "D4",
          "midi": 62,
          "time": 189.61499999999566,
          "velocity": 0.48031496062992124,
          "duration": 0.09000000000000341
        },
        {
          "name": "F4",
          "midi": 65,
          "time": 189.61999999999566,
          "velocity": 0.48031496062992124,
          "duration": 0.09000000000000341
        },
        {
          "name": "A#4",
          "midi": 70,
          "time": 189.62999999999565,
          "velocity": 0.48031496062992124,
          "duration": 0.09000000000000341
        },
        {
          "name": "A#3",
          "midi": 58,
          "time": 189.89999999999566,
          "velocity": 0.3543307086614173,
          "duration": 0.09000000000000341
        },
        {
          "name": "A#2",
          "midi": 46,
          "time": 189.89999999999566,
          "velocity": 0.3543307086614173,
          "duration": 0.09000000000000341
        },
        {
          "name": "D4",
          "midi": 62,
          "time": 189.91999999999567,
          "velocity": 0.3543307086614173,
          "duration": 0.09000000000000341
        },
        {
          "name": "A#2",
          "midi": 46,
          "time": 190.17999999999566,
          "velocity": 0.48031496062992124,
          "duration": 0.08999999999997499
        },
        {
          "name": "A#3",
          "midi": 58,
          "time": 190.17999999999566,
          "velocity": 0.48031496062992124,
          "duration": 0.08999999999997499
        },
        {
          "name": "F4",
          "midi": 65,
          "time": 190.18999999999565,
          "velocity": 0.48031496062992124,
          "duration": 0.08999999999997499
        },
        {
          "name": "D4",
          "midi": 62,
          "time": 190.19999999999564,
          "velocity": 0.48031496062992124,
          "duration": 0.08999999999997499
        },
        {
          "name": "A#4",
          "midi": 70,
          "time": 190.21499999999563,
          "velocity": 0.48031496062992124,
          "duration": 0.08999999999997499
        },
        {
          "name": "A#3",
          "midi": 58,
          "time": 190.4849999999956,
          "velocity": 0.36220472440944884,
          "duration": 0.09000000000000341
        },
        {
          "name": "A#2",
          "midi": 46,
          "time": 190.4849999999956,
          "velocity": 0.36220472440944884,
          "duration": 0.09000000000000341
        },
        {
          "name": "D4",
          "midi": 62,
          "time": 190.50499999999562,
          "velocity": 0.36220472440944884,
          "duration": 0.09000000000000341
        },
        {
          "name": "A#3",
          "midi": 58,
          "time": 190.80499999999563,
          "velocity": 0.48031496062992124,
          "duration": 0.08999999999997499
        },
        {
          "name": "A#2",
          "midi": 46,
          "time": 190.80499999999563,
          "velocity": 0.48031496062992124,
          "duration": 0.08999999999997499
        },
        {
          "name": "F4",
          "midi": 65,
          "time": 190.81999999999562,
          "velocity": 0.48031496062992124,
          "duration": 0.08999999999997499
        },
        {
          "name": "D4",
          "midi": 62,
          "time": 190.8249999999956,
          "velocity": 0.48031496062992124,
          "duration": 0.08999999999997499
        },
        {
          "name": "A#4",
          "midi": 70,
          "time": 190.8399999999956,
          "velocity": 0.48031496062992124,
          "duration": 0.08999999999997499
        },
        {
          "name": "A#2",
          "midi": 46,
          "time": 191.10999999999558,
          "velocity": 0.36220472440944884,
          "duration": 0.09000000000000341
        },
        {
          "name": "A#3",
          "midi": 58,
          "time": 191.10999999999558,
          "velocity": 0.36220472440944884,
          "duration": 0.09000000000000341
        },
        {
          "name": "D4",
          "midi": 62,
          "time": 191.1299999999956,
          "velocity": 0.3700787401574803,
          "duration": 0.09000000000000341
        },
        {
          "name": "A#3",
          "midi": 58,
          "time": 191.38999999999558,
          "velocity": 0.48031496062992124,
          "duration": 0.09000000000000341
        },
        {
          "name": "A#2",
          "midi": 46,
          "time": 191.38999999999558,
          "velocity": 0.48031496062992124,
          "duration": 0.09000000000000341
        },
        {
          "name": "D4",
          "midi": 62,
          "time": 191.4099999999956,
          "velocity": 0.48031496062992124,
          "duration": 0.09000000000000341
        },
        {
          "name": "A#4",
          "midi": 70,
          "time": 191.42499999999558,
          "velocity": 0.48031496062992124,
          "duration": 0.09000000000000341
        },
        {
          "name": "F4",
          "midi": 65,
          "time": 191.42999999999557,
          "velocity": 0.48031496062992124,
          "duration": 0.09000000000000341
        },
        {
          "name": "A#3",
          "midi": 58,
          "time": 191.6949999999956,
          "velocity": 0.3464566929133858,
          "duration": 0.09000000000000341
        },
        {
          "name": "A#2",
          "midi": 46,
          "time": 191.6949999999956,
          "velocity": 0.3464566929133858,
          "duration": 0.09000000000000341
        },
        {
          "name": "D4",
          "midi": 62,
          "time": 191.7149999999956,
          "velocity": 0.3464566929133858,
          "duration": 0.09000000000000341
        },
        {
          "name": "C3",
          "midi": 48,
          "time": 191.8549999999956,
          "velocity": 0.6141732283464567,
          "duration": 0.09000000000000341
        },
        {
          "name": "C4",
          "midi": 60,
          "time": 191.8549999999956,
          "velocity": 0.6141732283464567,
          "duration": 0.09000000000000341
        },
        {
          "name": "D4",
          "midi": 62,
          "time": 191.87499999999562,
          "velocity": 0.6141732283464567,
          "duration": 0.09000000000000341
        },
        {
          "name": "F3",
          "midi": 53,
          "time": 191.97499999999562,
          "velocity": 0.48031496062992124,
          "duration": 0.09000000000000341
        },
        {
          "name": "A3",
          "midi": 57,
          "time": 192.00499999999562,
          "velocity": 0.48031496062992124,
          "duration": 0.09000000000000341
        },
        {
          "name": "C4",
          "midi": 60,
          "time": 192.0199999999956,
          "velocity": 0.48031496062992124,
          "duration": 0.09000000000000341
        },
        {
          "name": "F4",
          "midi": 65,
          "time": 192.03999999999562,
          "velocity": 0.48031496062992124,
          "duration": 0.09000000000000341
        },
        {
          "name": "F3",
          "midi": 53,
          "time": 192.2949999999956,
          "velocity": 0.3543307086614173,
          "duration": 0.08999999999997499
        },
        {
          "name": "A3",
          "midi": 57,
          "time": 192.3099999999956,
          "velocity": 0.3543307086614173,
          "duration": 0.08999999999997499
        },
        {
          "name": "C4",
          "midi": 60,
          "time": 192.32499999999558,
          "velocity": 0.3543307086614173,
          "duration": 0.08999999999997499
        },
        {
          "name": "F3",
          "midi": 53,
          "time": 192.57499999999555,
          "velocity": 0.48031496062992124,
          "duration": 0.09000000000000341
        },
        {
          "name": "A#3",
          "midi": 58,
          "time": 192.59999999999556,
          "velocity": 0.48031496062992124,
          "duration": 0.09000000000000341
        },
        {
          "name": "C4",
          "midi": 60,
          "time": 192.60499999999556,
          "velocity": 0.48031496062992124,
          "duration": 0.09000000000000341
        },
        {
          "name": "C5",
          "midi": 72,
          "time": 192.62499999999557,
          "velocity": 0.48031496062992124,
          "duration": 0.09000000000000341
        },
        {
          "name": "F4",
          "midi": 65,
          "time": 192.62499999999557,
          "velocity": 0.48031496062992124,
          "duration": 0.09000000000000341
        },
        {
          "name": "F3",
          "midi": 53,
          "time": 192.87999999999556,
          "velocity": 0.36220472440944884,
          "duration": 0.08999999999997499
        },
        {
          "name": "A#3",
          "midi": 58,
          "time": 192.89499999999555,
          "velocity": 0.36220472440944884,
          "duration": 0.08999999999997499
        },
        {
          "name": "C4",
          "midi": 60,
          "time": 192.90999999999553,
          "velocity": 0.36220472440944884,
          "duration": 0.08999999999997499
        },
        {
          "name": "C5",
          "midi": 72,
          "time": 192.91999999999553,
          "velocity": 0.48031496062992124,
          "duration": 0.08999999999997499
        },
        {
          "name": "F3",
          "midi": 53,
          "time": 193.1999999999955,
          "velocity": 0.48031496062992124,
          "duration": 0.08999999999997499
        },
        {
          "name": "A3",
          "midi": 57,
          "time": 193.21499999999548,
          "velocity": 0.48031496062992124,
          "duration": 0.08999999999997499
        },
        {
          "name": "C4",
          "midi": 60,
          "time": 193.22999999999547,
          "velocity": 0.48031496062992124,
          "duration": 0.08999999999997499
        },
        {
          "name": "F4",
          "midi": 65,
          "time": 193.24999999999548,
          "velocity": 0.48031496062992124,
          "duration": 0.08999999999997499
        },
        {
          "name": "F3",
          "midi": 53,
          "time": 193.50499999999545,
          "velocity": 0.36220472440944884,
          "duration": 0.08999999999997499
        },
        {
          "name": "A3",
          "midi": 57,
          "time": 193.51999999999543,
          "velocity": 0.36220472440944884,
          "duration": 0.08999999999997499
        },
        {
          "name": "C4",
          "midi": 60,
          "time": 193.53499999999542,
          "velocity": 0.3700787401574803,
          "duration": 0.08999999999997499
        },
        {
          "name": "F3",
          "midi": 53,
          "time": 193.7849999999954,
          "velocity": 0.48031496062992124,
          "duration": 0.08999999999997499
        },
        {
          "name": "A#3",
          "midi": 58,
          "time": 193.79999999999538,
          "velocity": 0.48031496062992124,
          "duration": 0.08999999999997499
        },
        {
          "name": "C4",
          "midi": 60,
          "time": 193.81499999999536,
          "velocity": 0.48031496062992124,
          "duration": 0.08999999999997499
        },
        {
          "name": "F4",
          "midi": 65,
          "time": 193.83499999999538,
          "velocity": 0.48031496062992124,
          "duration": 0.08999999999997499
        },
        {
          "name": "F3",
          "midi": 53,
          "time": 194.08999999999534,
          "velocity": 0.4645669291338583,
          "duration": 0.08999999999997499
        },
        {
          "name": "A3",
          "midi": 57,
          "time": 194.10499999999533,
          "velocity": 0.4645669291338583,
          "duration": 0.08999999999997499
        },
        {
          "name": "C4",
          "midi": 60,
          "time": 194.11999999999531,
          "velocity": 0.4645669291338583,
          "duration": 0.08999999999997499
        },
        {
          "name": "F3",
          "midi": 53,
          "time": 194.24999999999528,
          "velocity": 0.4645669291338583,
          "duration": 0.08999999999997499
        },
        {
          "name": "A3",
          "midi": 57,
          "time": 194.26499999999527,
          "velocity": 0.4645669291338583,
          "duration": 0.08999999999997499
        },
        {
          "name": "C4",
          "midi": 60,
          "time": 194.27999999999525,
          "velocity": 0.4645669291338583,
          "duration": 0.08999999999997499
        },
        {
          "name": "F3",
          "midi": 53,
          "time": 194.38499999999522,
          "velocity": 0.48031496062992124,
          "duration": 0.08999999999997499
        },
        {
          "name": "A3",
          "midi": 57,
          "time": 194.3999999999952,
          "velocity": 0.48031496062992124,
          "duration": 0.08999999999997499
        },
        {
          "name": "C4",
          "midi": 60,
          "time": 194.4149999999952,
          "velocity": 0.48031496062992124,
          "duration": 0.08999999999997499
        },
        {
          "name": "F4",
          "midi": 65,
          "time": 194.4349999999952,
          "velocity": 0.48031496062992124,
          "duration": 0.08999999999997499
        },
        {
          "name": "F3",
          "midi": 53,
          "time": 194.68999999999517,
          "velocity": 0.3543307086614173,
          "duration": 0.08999999999997499
        },
        {
          "name": "A3",
          "midi": 57,
          "time": 194.70499999999515,
          "velocity": 0.3543307086614173,
          "duration": 0.08999999999997499
        },
        {
          "name": "C4",
          "midi": 60,
          "time": 194.71999999999514,
          "velocity": 0.3543307086614173,
          "duration": 0.08999999999997499
        },
        {
          "name": "F3",
          "midi": 53,
          "time": 194.9699999999951,
          "velocity": 0.48031496062992124,
          "duration": 0.08999999999997499
        },
        {
          "name": "A#3",
          "midi": 58,
          "time": 194.9849999999951,
          "velocity": 0.48031496062992124,
          "duration": 0.08999999999997499
        },
        {
          "name": "C4",
          "midi": 60,
          "time": 194.99999999999508,
          "velocity": 0.48031496062992124,
          "duration": 0.08999999999997499
        },
        {
          "name": "F4",
          "midi": 65,
          "time": 195.0199999999951,
          "velocity": 0.48031496062992124,
          "duration": 0.08999999999997499
        },
        {
          "name": "F3",
          "midi": 53,
          "time": 195.27499999999506,
          "velocity": 0.36220472440944884,
          "duration": 0.08999999999997499
        },
        {
          "name": "A3",
          "midi": 57,
          "time": 195.28999999999505,
          "velocity": 0.36220472440944884,
          "duration": 0.08999999999997499
        },
        {
          "name": "C4",
          "midi": 60,
          "time": 195.30499999999503,
          "velocity": 0.36220472440944884,
          "duration": 0.08999999999997499
        },
        {
          "name": "F3",
          "midi": 53,
          "time": 195.594999999995,
          "velocity": 0.48031496062992124,
          "duration": 0.08999999999997499
        },
        {
          "name": "A3",
          "midi": 57,
          "time": 195.60999999999498,
          "velocity": 0.48031496062992124,
          "duration": 0.08999999999997499
        },
        {
          "name": "C4",
          "midi": 60,
          "time": 195.62499999999497,
          "velocity": 0.48031496062992124,
          "duration": 0.08999999999997499
        },
        {
          "name": "F4",
          "midi": 65,
          "time": 195.64499999999498,
          "velocity": 0.48031496062992124,
          "duration": 0.08999999999997499
        },
        {
          "name": "F3",
          "midi": 53,
          "time": 195.89999999999495,
          "velocity": 0.36220472440944884,
          "duration": 0.08999999999997499
        },
        {
          "name": "A3",
          "midi": 57,
          "time": 195.91499999999493,
          "velocity": 0.36220472440944884,
          "duration": 0.08999999999997499
        },
        {
          "name": "C4",
          "midi": 60,
          "time": 195.92999999999492,
          "velocity": 0.3700787401574803,
          "duration": 0.08999999999997499
        },
        {
          "name": "F3",
          "midi": 53,
          "time": 196.0449999999949,
          "velocity": 0.3464566929133858,
          "duration": 0.08999999999997499
        },
        {
          "name": "A3",
          "midi": 57,
          "time": 196.0599999999949,
          "velocity": 0.3464566929133858,
          "duration": 0.08999999999997499
        },
        {
          "name": "C4",
          "midi": 60,
          "time": 196.07499999999487,
          "velocity": 0.3464566929133858,
          "duration": 0.08999999999997499
        },
        {
          "name": "F3",
          "midi": 53,
          "time": 196.17999999999483,
          "velocity": 0.48031496062992124,
          "duration": 0.08999999999997499
        },
        {
          "name": "A#3",
          "midi": 58,
          "time": 196.19499999999482,
          "velocity": 0.48031496062992124,
          "duration": 0.08999999999997499
        },
        {
          "name": "C4",
          "midi": 60,
          "time": 196.2099999999948,
          "velocity": 0.48031496062992124,
          "duration": 0.08999999999997499
        },
        {
          "name": "F4",
          "midi": 65,
          "time": 196.22999999999482,
          "velocity": 0.48031496062992124,
          "duration": 0.08999999999997499
        },
        {
          "name": "F3",
          "midi": 53,
          "time": 196.48499999999478,
          "velocity": 0.3464566929133858,
          "duration": 0.08999999999997499
        },
        {
          "name": "A3",
          "midi": 57,
          "time": 196.49999999999477,
          "velocity": 0.3464566929133858,
          "duration": 0.08999999999997499
        },
        {
          "name": "C4",
          "midi": 60,
          "time": 196.51499999999476,
          "velocity": 0.3464566929133858,
          "duration": 0.08999999999997499
        },
        {
          "name": "F3",
          "midi": 53,
          "time": 196.64999999999472,
          "velocity": 0.3464566929133858,
          "duration": 0.08999999999997499
        },
        {
          "name": "A3",
          "midi": 57,
          "time": 196.6649999999947,
          "velocity": 0.3464566929133858,
          "duration": 0.08999999999997499
        },
        {
          "name": "C4",
          "midi": 60,
          "time": 196.6799999999947,
          "velocity": 0.3464566929133858,
          "duration": 0.08999999999997499
        },
        {
          "name": "A3",
          "midi": 57,
          "time": 196.79999999999467,
          "velocity": 0.48031496062992124,
          "duration": 0.09000000000000341
        },
        {
          "name": "D4",
          "midi": 62,
          "time": 196.81999999999468,
          "velocity": 0.48031496062992124,
          "duration": 0.09000000000000341
        },
        {
          "name": "F4",
          "midi": 65,
          "time": 196.82499999999467,
          "velocity": 0.48031496062992124,
          "duration": 0.09000000000000341
        },
        {
          "name": "A4",
          "midi": 69,
          "time": 196.83499999999466,
          "velocity": 0.48031496062992124,
          "duration": 0.09000000000000341
        },
        {
          "name": "D3",
          "midi": 50,
          "time": 197.09999999999468,
          "velocity": 0.3543307086614173,
          "duration": 0.09000000000000341
        },
        {
          "name": "A3",
          "midi": 57,
          "time": 197.10499999999467,
          "velocity": 0.3543307086614173,
          "duration": 0.09000000000000341
        },
        {
          "name": "D4",
          "midi": 62,
          "time": 197.12499999999469,
          "velocity": 0.3543307086614173,
          "duration": 0.09000000000000341
        },
        {
          "name": "D3",
          "midi": 50,
          "time": 197.37999999999468,
          "velocity": 0.48031496062992124,
          "duration": 0.08999999999997499
        },
        {
          "name": "A3",
          "midi": 57,
          "time": 197.38499999999468,
          "velocity": 0.48031496062992124,
          "duration": 0.08999999999997499
        },
        {
          "name": "F4",
          "midi": 65,
          "time": 197.39499999999467,
          "velocity": 0.48031496062992124,
          "duration": 0.08999999999997499
        },
        {
          "name": "D4",
          "midi": 62,
          "time": 197.40499999999466,
          "velocity": 0.48031496062992124,
          "duration": 0.08999999999997499
        },
        {
          "name": "A4",
          "midi": 69,
          "time": 197.41999999999464,
          "velocity": 0.48031496062992124,
          "duration": 0.08999999999997499
        },
        {
          "name": "D3",
          "midi": 50,
          "time": 197.68499999999463,
          "velocity": 0.36220472440944884,
          "duration": 0.09000000000000341
        },
        {
          "name": "A3",
          "midi": 57,
          "time": 197.68999999999463,
          "velocity": 0.36220472440944884,
          "duration": 0.09000000000000341
        },
        {
          "name": "D4",
          "midi": 62,
          "time": 197.70999999999464,
          "velocity": 0.36220472440944884,
          "duration": 0.09000000000000341
        },
        {
          "name": "D3",
          "midi": 50,
          "time": 198.00499999999465,
          "velocity": 0.48031496062992124,
          "duration": 0.08999999999997499
        },
        {
          "name": "A3",
          "midi": 57,
          "time": 198.00999999999465,
          "velocity": 0.48031496062992124,
          "duration": 0.08999999999997499
        },
        {
          "name": "F4",
          "midi": 65,
          "time": 198.02499999999463,
          "velocity": 0.48031496062992124,
          "duration": 0.08999999999997499
        },
        {
          "name": "D4",
          "midi": 62,
          "time": 198.02999999999463,
          "velocity": 0.48031496062992124,
          "duration": 0.08999999999997499
        },
        {
          "name": "A4",
          "midi": 69,
          "time": 198.04499999999462,
          "velocity": 0.48031496062992124,
          "duration": 0.08999999999997499
        },
        {
          "name": "D3",
          "midi": 50,
          "time": 198.3099999999946,
          "velocity": 0.36220472440944884,
          "duration": 0.09000000000000341
        },
        {
          "name": "A3",
          "midi": 57,
          "time": 198.3149999999946,
          "velocity": 0.36220472440944884,
          "duration": 0.09000000000000341
        },
        {
          "name": "D4",
          "midi": 62,
          "time": 198.3349999999946,
          "velocity": 0.3700787401574803,
          "duration": 0.09000000000000341
        },
        {
          "name": "D3",
          "midi": 50,
          "time": 198.5899999999946,
          "velocity": 0.48031496062992124,
          "duration": 0.08999999999997499
        },
        {
          "name": "A3",
          "midi": 57,
          "time": 198.5949999999946,
          "velocity": 0.48031496062992124,
          "duration": 0.08999999999997499
        },
        {
          "name": "D4",
          "midi": 62,
          "time": 198.6149999999946,
          "velocity": 0.48031496062992124,
          "duration": 0.08999999999997499
        },
        {
          "name": "A4",
          "midi": 69,
          "time": 198.6299999999946,
          "velocity": 0.48031496062992124,
          "duration": 0.08999999999997499
        },
        {
          "name": "F4",
          "midi": 65,
          "time": 198.6349999999946,
          "velocity": 0.48031496062992124,
          "duration": 0.08999999999997499
        },
        {
          "name": "D3",
          "midi": 50,
          "time": 198.89499999999455,
          "velocity": 0.3464566929133858,
          "duration": 0.09000000000000341
        },
        {
          "name": "A3",
          "midi": 57,
          "time": 198.89999999999455,
          "velocity": 0.3464566929133858,
          "duration": 0.09000000000000341
        },
        {
          "name": "D4",
          "midi": 62,
          "time": 198.91999999999456,
          "velocity": 0.3464566929133858,
          "duration": 0.09000000000000341
        },
        {
          "name": "D3",
          "midi": 50,
          "time": 199.05499999999455,
          "velocity": 0.6220472440944882,
          "duration": 0.09000000000000341
        },
        {
          "name": "A3",
          "midi": 57,
          "time": 199.05999999999455,
          "velocity": 0.6220472440944882,
          "duration": 0.09000000000000341
        },
        {
          "name": "D4",
          "midi": 62,
          "time": 199.07999999999456,
          "velocity": 0.6220472440944882,
          "duration": 0.09000000000000341
        },
        {
          "name": "A#3",
          "midi": 58,
          "time": 199.19499999999456,
          "velocity": 0.48031496062992124,
          "duration": 0.09000000000000341
        },
        {
          "name": "A#2",
          "midi": 46,
          "time": 199.19499999999456,
          "velocity": 0.48031496062992124,
          "duration": 0.09000000000000341
        },
        {
          "name": "D4",
          "midi": 62,
          "time": 199.21499999999457,
          "velocity": 0.48031496062992124,
          "duration": 0.09000000000000341
        },
        {
          "name": "F4",
          "midi": 65,
          "time": 199.21999999999457,
          "velocity": 0.48031496062992124,
          "duration": 0.09000000000000341
        },
        {
          "name": "A#4",
          "midi": 70,
          "time": 199.22999999999456,
          "velocity": 0.48031496062992124,
          "duration": 0.09000000000000341
        },
        {
          "name": "A#3",
          "midi": 58,
          "time": 199.49999999999457,
          "velocity": 0.3543307086614173,
          "duration": 0.09000000000000341
        },
        {
          "name": "A#2",
          "midi": 46,
          "time": 199.49999999999457,
          "velocity": 0.3543307086614173,
          "duration": 0.09000000000000341
        },
        {
          "name": "D4",
          "midi": 62,
          "time": 199.51999999999458,
          "velocity": 0.3543307086614173,
          "duration": 0.09000000000000341
        },
        {
          "name": "A#2",
          "midi": 46,
          "time": 199.77999999999457,
          "velocity": 0.48031496062992124,
          "duration": 0.08999999999997499
        },
        {
          "name": "A#3",
          "midi": 58,
          "time": 199.77999999999457,
          "velocity": 0.48031496062992124,
          "duration": 0.08999999999997499
        },
        {
          "name": "F4",
          "midi": 65,
          "time": 199.78999999999456,
          "velocity": 0.48031496062992124,
          "duration": 0.08999999999997499
        },
        {
          "name": "D4",
          "midi": 62,
          "time": 199.79999999999455,
          "velocity": 0.48031496062992124,
          "duration": 0.08999999999997499
        },
        {
          "name": "A#4",
          "midi": 70,
          "time": 199.81499999999454,
          "velocity": 0.48031496062992124,
          "duration": 0.08999999999997499
        },
        {
          "name": "A#3",
          "midi": 58,
          "time": 200.08499999999452,
          "velocity": 0.36220472440944884,
          "duration": 0.09000000000000341
        },
        {
          "name": "A#2",
          "midi": 46,
          "time": 200.08499999999452,
          "velocity": 0.36220472440944884,
          "duration": 0.09000000000000341
        },
        {
          "name": "D4",
          "midi": 62,
          "time": 200.10499999999453,
          "velocity": 0.36220472440944884,
          "duration": 0.09000000000000341
        },
        {
          "name": "A#3",
          "midi": 58,
          "time": 200.40499999999454,
          "velocity": 0.48031496062992124,
          "duration": 0.08999999999997499
        },
        {
          "name": "A#2",
          "midi": 46,
          "time": 200.40499999999454,
          "velocity": 0.48031496062992124,
          "duration": 0.08999999999997499
        },
        {
          "name": "F4",
          "midi": 65,
          "time": 200.41999999999453,
          "velocity": 0.48031496062992124,
          "duration": 0.08999999999997499
        },
        {
          "name": "D4",
          "midi": 62,
          "time": 200.42499999999453,
          "velocity": 0.48031496062992124,
          "duration": 0.08999999999997499
        },
        {
          "name": "A#4",
          "midi": 70,
          "time": 200.4399999999945,
          "velocity": 0.48031496062992124,
          "duration": 0.08999999999997499
        },
        {
          "name": "A#2",
          "midi": 46,
          "time": 200.7099999999945,
          "velocity": 0.36220472440944884,
          "duration": 0.09000000000000341
        },
        {
          "name": "A#3",
          "midi": 58,
          "time": 200.7099999999945,
          "velocity": 0.36220472440944884,
          "duration": 0.09000000000000341
        },
        {
          "name": "D4",
          "midi": 62,
          "time": 200.7299999999945,
          "velocity": 0.3700787401574803,
          "duration": 0.09000000000000341
        },
        {
          "name": "A#3",
          "midi": 58,
          "time": 200.9899999999945,
          "velocity": 0.48031496062992124,
          "duration": 0.09000000000000341
        },
        {
          "name": "A#2",
          "midi": 46,
          "time": 200.9899999999945,
          "velocity": 0.48031496062992124,
          "duration": 0.09000000000000341
        },
        {
          "name": "D4",
          "midi": 62,
          "time": 201.0099999999945,
          "velocity": 0.48031496062992124,
          "duration": 0.09000000000000341
        },
        {
          "name": "A#4",
          "midi": 70,
          "time": 201.0249999999945,
          "velocity": 0.48031496062992124,
          "duration": 0.09000000000000341
        },
        {
          "name": "F4",
          "midi": 65,
          "time": 201.0299999999945,
          "velocity": 0.48031496062992124,
          "duration": 0.09000000000000341
        },
        {
          "name": "A#3",
          "midi": 58,
          "time": 201.2949999999945,
          "velocity": 0.3464566929133858,
          "duration": 0.09000000000000341
        },
        {
          "name": "A#2",
          "midi": 46,
          "time": 201.2949999999945,
          "velocity": 0.3464566929133858,
          "duration": 0.09000000000000341
        },
        {
          "name": "D4",
          "midi": 62,
          "time": 201.3149999999945,
          "velocity": 0.3464566929133858,
          "duration": 0.09000000000000341
        },
        {
          "name": "C3",
          "midi": 48,
          "time": 201.45499999999453,
          "velocity": 0.6141732283464567,
          "duration": 0.09000000000000341
        },
        {
          "name": "C4",
          "midi": 60,
          "time": 201.45499999999453,
          "velocity": 0.6141732283464567,
          "duration": 0.09000000000000341
        },
        {
          "name": "D4",
          "midi": 62,
          "time": 201.47499999999454,
          "velocity": 0.6141732283464567,
          "duration": 0.09000000000000341
        },
        {
          "name": "F3",
          "midi": 53,
          "time": 201.57499999999453,
          "velocity": 0.48031496062992124,
          "duration": 0.09000000000000341
        },
        {
          "name": "A3",
          "midi": 57,
          "time": 201.60499999999453,
          "velocity": 0.48031496062992124,
          "duration": 0.09000000000000341
        },
        {
          "name": "C4",
          "midi": 60,
          "time": 201.61999999999452,
          "velocity": 0.48031496062992124,
          "duration": 0.09000000000000341
        },
        {
          "name": "F4",
          "midi": 65,
          "time": 201.63999999999453,
          "velocity": 0.48031496062992124,
          "duration": 0.09000000000000341
        },
        {
          "name": "F3",
          "midi": 53,
          "time": 201.89499999999452,
          "velocity": 0.3543307086614173,
          "duration": 0.08999999999997499
        },
        {
          "name": "A3",
          "midi": 57,
          "time": 201.9099999999945,
          "velocity": 0.3543307086614173,
          "duration": 0.08999999999997499
        },
        {
          "name": "C4",
          "midi": 60,
          "time": 201.9249999999945,
          "velocity": 0.3543307086614173,
          "duration": 0.08999999999997499
        },
        {
          "name": "F3",
          "midi": 53,
          "time": 202.17499999999447,
          "velocity": 0.48031496062992124,
          "duration": 0.09000000000000341
        },
        {
          "name": "A#3",
          "midi": 58,
          "time": 202.19999999999447,
          "velocity": 0.48031496062992124,
          "duration": 0.09000000000000341
        },
        {
          "name": "C4",
          "midi": 60,
          "time": 202.20499999999447,
          "velocity": 0.48031496062992124,
          "duration": 0.09000000000000341
        },
        {
          "name": "C5",
          "midi": 72,
          "time": 202.22499999999448,
          "velocity": 0.48031496062992124,
          "duration": 0.09000000000000341
        },
        {
          "name": "F4",
          "midi": 65,
          "time": 202.22499999999448,
          "velocity": 0.48031496062992124,
          "duration": 0.09000000000000341
        },
        {
          "name": "F3",
          "midi": 53,
          "time": 202.47999999999448,
          "velocity": 0.36220472440944884,
          "duration": 0.08999999999997499
        },
        {
          "name": "A#3",
          "midi": 58,
          "time": 202.49499999999446,
          "velocity": 0.36220472440944884,
          "duration": 0.08999999999997499
        },
        {
          "name": "C4",
          "midi": 60,
          "time": 202.50999999999445,
          "velocity": 0.36220472440944884,
          "duration": 0.08999999999997499
        },
        {
          "name": "C5",
          "midi": 72,
          "time": 202.51999999999444,
          "velocity": 0.48031496062992124,
          "duration": 0.08999999999997499
        },
        {
          "name": "F3",
          "midi": 53,
          "time": 202.7999999999944,
          "velocity": 0.48031496062992124,
          "duration": 0.08999999999997499
        },
        {
          "name": "A3",
          "midi": 57,
          "time": 202.8149999999944,
          "velocity": 0.48031496062992124,
          "duration": 0.08999999999997499
        },
        {
          "name": "C4",
          "midi": 60,
          "time": 202.82999999999439,
          "velocity": 0.48031496062992124,
          "duration": 0.08999999999997499
        },
        {
          "name": "F4",
          "midi": 65,
          "time": 202.8499999999944,
          "velocity": 0.48031496062992124,
          "duration": 0.08999999999997499
        },
        {
          "name": "F3",
          "midi": 53,
          "time": 203.10499999999436,
          "velocity": 0.36220472440944884,
          "duration": 0.08999999999997499
        },
        {
          "name": "A3",
          "midi": 57,
          "time": 203.11999999999435,
          "velocity": 0.36220472440944884,
          "duration": 0.08999999999997499
        },
        {
          "name": "C4",
          "midi": 60,
          "time": 203.13499999999433,
          "velocity": 0.3700787401574803,
          "duration": 0.08999999999997499
        },
        {
          "name": "F3",
          "midi": 53,
          "time": 203.3849999999943,
          "velocity": 0.48031496062992124,
          "duration": 0.08999999999997499
        },
        {
          "name": "A#3",
          "midi": 58,
          "time": 203.3999999999943,
          "velocity": 0.48031496062992124,
          "duration": 0.08999999999997499
        },
        {
          "name": "C4",
          "midi": 60,
          "time": 203.41499999999428,
          "velocity": 0.48031496062992124,
          "duration": 0.08999999999997499
        },
        {
          "name": "F4",
          "midi": 65,
          "time": 203.4349999999943,
          "velocity": 0.48031496062992124,
          "duration": 0.08999999999997499
        },
        {
          "name": "F3",
          "midi": 53,
          "time": 203.68999999999426,
          "velocity": 0.4645669291338583,
          "duration": 0.08999999999997499
        },
        {
          "name": "A3",
          "midi": 57,
          "time": 203.70499999999424,
          "velocity": 0.4645669291338583,
          "duration": 0.08999999999997499
        },
        {
          "name": "C4",
          "midi": 60,
          "time": 203.71999999999423,
          "velocity": 0.4645669291338583,
          "duration": 0.08999999999997499
        },
        {
          "name": "F3",
          "midi": 53,
          "time": 203.8499999999942,
          "velocity": 0.4645669291338583,
          "duration": 0.08999999999997499
        },
        {
          "name": "A3",
          "midi": 57,
          "time": 203.86499999999418,
          "velocity": 0.4645669291338583,
          "duration": 0.08999999999997499
        },
        {
          "name": "C4",
          "midi": 60,
          "time": 203.87999999999417,
          "velocity": 0.4645669291338583,
          "duration": 0.08999999999997499
        },
        {
          "name": "F3",
          "midi": 53,
          "time": 203.98499999999413,
          "velocity": 0.48031496062992124,
          "duration": 0.08999999999997499
        },
        {
          "name": "A3",
          "midi": 57,
          "time": 203.99999999999412,
          "velocity": 0.48031496062992124,
          "duration": 0.08999999999997499
        },
        {
          "name": "C4",
          "midi": 60,
          "time": 204.0149999999941,
          "velocity": 0.48031496062992124,
          "duration": 0.08999999999997499
        },
        {
          "name": "F4",
          "midi": 65,
          "time": 204.0349999999941,
          "velocity": 0.48031496062992124,
          "duration": 0.08999999999997499
        },
        {
          "name": "F3",
          "midi": 53,
          "time": 204.28999999999408,
          "velocity": 0.3543307086614173,
          "duration": 0.08999999999997499
        },
        {
          "name": "A3",
          "midi": 57,
          "time": 204.30499999999407,
          "velocity": 0.3543307086614173,
          "duration": 0.08999999999997499
        },
        {
          "name": "C4",
          "midi": 60,
          "time": 204.31999999999405,
          "velocity": 0.3543307086614173,
          "duration": 0.08999999999997499
        },
        {
          "name": "F3",
          "midi": 53,
          "time": 204.56999999999402,
          "velocity": 0.48031496062992124,
          "duration": 0.08999999999997499
        },
        {
          "name": "A#3",
          "midi": 58,
          "time": 204.584999999994,
          "velocity": 0.48031496062992124,
          "duration": 0.08999999999997499
        },
        {
          "name": "C4",
          "midi": 60,
          "time": 204.599999999994,
          "velocity": 0.48031496062992124,
          "duration": 0.08999999999997499
        },
        {
          "name": "F4",
          "midi": 65,
          "time": 204.619999999994,
          "velocity": 0.48031496062992124,
          "duration": 0.08999999999997499
        },
        {
          "name": "F3",
          "midi": 53,
          "time": 204.87499999999397,
          "velocity": 0.36220472440944884,
          "duration": 0.08999999999997499
        },
        {
          "name": "A3",
          "midi": 57,
          "time": 204.88999999999396,
          "velocity": 0.36220472440944884,
          "duration": 0.08999999999997499
        },
        {
          "name": "C4",
          "midi": 60,
          "time": 204.90499999999395,
          "velocity": 0.36220472440944884,
          "duration": 0.08999999999997499
        },
        {
          "name": "F3",
          "midi": 53,
          "time": 205.1949999999939,
          "velocity": 0.48031496062992124,
          "duration": 0.08999999999997499
        },
        {
          "name": "A3",
          "midi": 57,
          "time": 205.2099999999939,
          "velocity": 0.48031496062992124,
          "duration": 0.08999999999997499
        },
        {
          "name": "C4",
          "midi": 60,
          "time": 205.22499999999388,
          "velocity": 0.48031496062992124,
          "duration": 0.08999999999997499
        },
        {
          "name": "F4",
          "midi": 65,
          "time": 205.2449999999939,
          "velocity": 0.48031496062992124,
          "duration": 0.08999999999997499
        },
        {
          "name": "F3",
          "midi": 53,
          "time": 205.49999999999386,
          "velocity": 0.36220472440944884,
          "duration": 0.08999999999997499
        },
        {
          "name": "A3",
          "midi": 57,
          "time": 205.51499999999385,
          "velocity": 0.36220472440944884,
          "duration": 0.08999999999997499
        },
        {
          "name": "C4",
          "midi": 60,
          "time": 205.52999999999383,
          "velocity": 0.3700787401574803,
          "duration": 0.08999999999997499
        },
        {
          "name": "F3",
          "midi": 53,
          "time": 205.64499999999381,
          "velocity": 0.3464566929133858,
          "duration": 0.08999999999997499
        },
        {
          "name": "A3",
          "midi": 57,
          "time": 205.6599999999938,
          "velocity": 0.3464566929133858,
          "duration": 0.08999999999997499
        },
        {
          "name": "C4",
          "midi": 60,
          "time": 205.6749999999938,
          "velocity": 0.3464566929133858,
          "duration": 0.08999999999997499
        },
        {
          "name": "F3",
          "midi": 53,
          "time": 205.77999999999375,
          "velocity": 0.48031496062992124,
          "duration": 0.08999999999997499
        },
        {
          "name": "A#3",
          "midi": 58,
          "time": 205.79499999999373,
          "velocity": 0.48031496062992124,
          "duration": 0.08999999999997499
        },
        {
          "name": "C4",
          "midi": 60,
          "time": 205.80999999999372,
          "velocity": 0.48031496062992124,
          "duration": 0.08999999999997499
        },
        {
          "name": "F4",
          "midi": 65,
          "time": 205.82999999999373,
          "velocity": 0.48031496062992124,
          "duration": 0.08999999999997499
        },
        {
          "name": "F3",
          "midi": 53,
          "time": 206.0849999999937,
          "velocity": 0.3464566929133858,
          "duration": 0.08999999999997499
        },
        {
          "name": "A3",
          "midi": 57,
          "time": 206.09999999999368,
          "velocity": 0.3464566929133858,
          "duration": 0.08999999999997499
        },
        {
          "name": "C4",
          "midi": 60,
          "time": 206.11499999999367,
          "velocity": 0.3464566929133858,
          "duration": 0.08999999999997499
        },
        {
          "name": "F3",
          "midi": 53,
          "time": 206.24999999999363,
          "velocity": 0.3464566929133858,
          "duration": 0.08999999999997499
        },
        {
          "name": "A3",
          "midi": 57,
          "time": 206.26499999999362,
          "velocity": 0.3464566929133858,
          "duration": 0.08999999999997499
        },
        {
          "name": "C4",
          "midi": 60,
          "time": 206.2799999999936,
          "velocity": 0.3464566929133858,
          "duration": 0.08999999999997499
        },
        {
          "name": "A3",
          "midi": 57,
          "time": 206.39999999999358,
          "velocity": 0.48031496062992124,
          "duration": 0.09000000000000341
        },
        {
          "name": "D4",
          "midi": 62,
          "time": 206.4199999999936,
          "velocity": 0.48031496062992124,
          "duration": 0.09000000000000341
        },
        {
          "name": "F4",
          "midi": 65,
          "time": 206.4249999999936,
          "velocity": 0.48031496062992124,
          "duration": 0.09000000000000341
        },
        {
          "name": "A4",
          "midi": 69,
          "time": 206.43499999999358,
          "velocity": 0.48031496062992124,
          "duration": 0.09000000000000341
        },
        {
          "name": "D3",
          "midi": 50,
          "time": 206.6999999999936,
          "velocity": 0.3543307086614173,
          "duration": 0.09000000000000341
        },
        {
          "name": "A3",
          "midi": 57,
          "time": 206.7049999999936,
          "velocity": 0.3543307086614173,
          "duration": 0.09000000000000341
        },
        {
          "name": "D4",
          "midi": 62,
          "time": 206.7249999999936,
          "velocity": 0.3543307086614173,
          "duration": 0.09000000000000341
        },
        {
          "name": "D3",
          "midi": 50,
          "time": 206.9799999999936,
          "velocity": 0.48031496062992124,
          "duration": 0.08999999999997499
        },
        {
          "name": "A3",
          "midi": 57,
          "time": 206.9849999999936,
          "velocity": 0.48031496062992124,
          "duration": 0.08999999999997499
        },
        {
          "name": "F4",
          "midi": 65,
          "time": 206.99499999999358,
          "velocity": 0.48031496062992124,
          "duration": 0.08999999999997499
        },
        {
          "name": "D4",
          "midi": 62,
          "time": 207.00499999999357,
          "velocity": 0.48031496062992124,
          "duration": 0.08999999999997499
        },
        {
          "name": "A4",
          "midi": 69,
          "time": 207.01999999999356,
          "velocity": 0.48031496062992124,
          "duration": 0.08999999999997499
        },
        {
          "name": "D3",
          "midi": 50,
          "time": 207.28499999999354,
          "velocity": 0.36220472440944884,
          "duration": 0.09000000000000341
        },
        {
          "name": "A3",
          "midi": 57,
          "time": 207.28999999999354,
          "velocity": 0.36220472440944884,
          "duration": 0.09000000000000341
        },
        {
          "name": "D4",
          "midi": 62,
          "time": 207.30999999999355,
          "velocity": 0.36220472440944884,
          "duration": 0.09000000000000341
        },
        {
          "name": "D3",
          "midi": 50,
          "time": 207.60499999999357,
          "velocity": 0.48031496062992124,
          "duration": 0.08999999999997499
        },
        {
          "name": "A3",
          "midi": 57,
          "time": 207.60999999999356,
          "velocity": 0.48031496062992124,
          "duration": 0.08999999999997499
        },
        {
          "name": "F4",
          "midi": 65,
          "time": 207.62499999999355,
          "velocity": 0.48031496062992124,
          "duration": 0.08999999999997499
        },
        {
          "name": "D4",
          "midi": 62,
          "time": 207.62999999999354,
          "velocity": 0.48031496062992124,
          "duration": 0.08999999999997499
        },
        {
          "name": "A4",
          "midi": 69,
          "time": 207.64499999999353,
          "velocity": 0.48031496062992124,
          "duration": 0.08999999999997499
        },
        {
          "name": "D3",
          "midi": 50,
          "time": 207.90999999999352,
          "velocity": 0.36220472440944884,
          "duration": 0.09000000000000341
        },
        {
          "name": "A3",
          "midi": 57,
          "time": 207.9149999999935,
          "velocity": 0.36220472440944884,
          "duration": 0.09000000000000341
        },
        {
          "name": "D4",
          "midi": 62,
          "time": 207.93499999999352,
          "velocity": 0.3700787401574803,
          "duration": 0.09000000000000341
        },
        {
          "name": "D3",
          "midi": 50,
          "time": 208.18999999999352,
          "velocity": 0.48031496062992124,
          "duration": 0.08999999999997499
        },
        {
          "name": "A3",
          "midi": 57,
          "time": 208.1949999999935,
          "velocity": 0.48031496062992124,
          "duration": 0.08999999999997499
        },
        {
          "name": "D4",
          "midi": 62,
          "time": 208.21499999999352,
          "velocity": 0.48031496062992124,
          "duration": 0.08999999999997499
        },
        {
          "name": "A4",
          "midi": 69,
          "time": 208.2299999999935,
          "velocity": 0.48031496062992124,
          "duration": 0.08999999999997499
        },
        {
          "name": "F4",
          "midi": 65,
          "time": 208.2349999999935,
          "velocity": 0.48031496062992124,
          "duration": 0.08999999999997499
        },
        {
          "name": "D3",
          "midi": 50,
          "time": 208.49499999999347,
          "velocity": 0.3464566929133858,
          "duration": 0.09000000000000341
        },
        {
          "name": "A3",
          "midi": 57,
          "time": 208.49999999999346,
          "velocity": 0.3464566929133858,
          "duration": 0.09000000000000341
        },
        {
          "name": "D4",
          "midi": 62,
          "time": 208.51999999999347,
          "velocity": 0.3464566929133858,
          "duration": 0.09000000000000341
        },
        {
          "name": "D3",
          "midi": 50,
          "time": 208.65499999999346,
          "velocity": 0.6220472440944882,
          "duration": 0.09000000000000341
        },
        {
          "name": "A3",
          "midi": 57,
          "time": 208.65999999999346,
          "velocity": 0.6220472440944882,
          "duration": 0.09000000000000341
        },
        {
          "name": "D4",
          "midi": 62,
          "time": 208.67999999999347,
          "velocity": 0.6220472440944882,
          "duration": 0.09000000000000341
        },
        {
          "name": "A#3",
          "midi": 58,
          "time": 208.79499999999348,
          "velocity": 0.48031496062992124,
          "duration": 0.09000000000000341
        },
        {
          "name": "A#2",
          "midi": 46,
          "time": 208.79499999999348,
          "velocity": 0.48031496062992124,
          "duration": 0.09000000000000341
        },
        {
          "name": "D4",
          "midi": 62,
          "time": 208.8149999999935,
          "velocity": 0.48031496062992124,
          "duration": 0.09000000000000341
        },
        {
          "name": "F4",
          "midi": 65,
          "time": 208.81999999999348,
          "velocity": 0.48031496062992124,
          "duration": 0.09000000000000341
        },
        {
          "name": "A#4",
          "midi": 70,
          "time": 208.82999999999348,
          "velocity": 0.48031496062992124,
          "duration": 0.09000000000000341
        },
        {
          "name": "A#3",
          "midi": 58,
          "time": 209.09999999999349,
          "velocity": 0.3543307086614173,
          "duration": 0.09000000000000341
        },
        {
          "name": "A#2",
          "midi": 46,
          "time": 209.09999999999349,
          "velocity": 0.3543307086614173,
          "duration": 0.09000000000000341
        },
        {
          "name": "D4",
          "midi": 62,
          "time": 209.1199999999935,
          "velocity": 0.3543307086614173,
          "duration": 0.09000000000000341
        },
        {
          "name": "A#2",
          "midi": 46,
          "time": 209.3799999999935,
          "velocity": 0.48031496062992124,
          "duration": 0.08999999999997499
        },
        {
          "name": "A#3",
          "midi": 58,
          "time": 209.3799999999935,
          "velocity": 0.48031496062992124,
          "duration": 0.08999999999997499
        },
        {
          "name": "F4",
          "midi": 65,
          "time": 209.38999999999348,
          "velocity": 0.48031496062992124,
          "duration": 0.08999999999997499
        },
        {
          "name": "D4",
          "midi": 62,
          "time": 209.39999999999347,
          "velocity": 0.48031496062992124,
          "duration": 0.08999999999997499
        },
        {
          "name": "A#4",
          "midi": 70,
          "time": 209.41499999999346,
          "velocity": 0.48031496062992124,
          "duration": 0.08999999999997499
        },
        {
          "name": "A#3",
          "midi": 58,
          "time": 209.68499999999344,
          "velocity": 0.36220472440944884,
          "duration": 0.09000000000000341
        },
        {
          "name": "A#2",
          "midi": 46,
          "time": 209.68499999999344,
          "velocity": 0.36220472440944884,
          "duration": 0.09000000000000341
        },
        {
          "name": "D4",
          "midi": 62,
          "time": 209.70499999999345,
          "velocity": 0.36220472440944884,
          "duration": 0.09000000000000341
        },
        {
          "name": "A#3",
          "midi": 58,
          "time": 210.00499999999346,
          "velocity": 0.48031496062992124,
          "duration": 0.08999999999997499
        },
        {
          "name": "A#2",
          "midi": 46,
          "time": 210.00499999999346,
          "velocity": 0.48031496062992124,
          "duration": 0.08999999999997499
        },
        {
          "name": "F4",
          "midi": 65,
          "time": 210.01999999999344,
          "velocity": 0.48031496062992124,
          "duration": 0.08999999999997499
        },
        {
          "name": "D4",
          "midi": 62,
          "time": 210.02499999999344,
          "velocity": 0.48031496062992124,
          "duration": 0.08999999999997499
        },
        {
          "name": "A#4",
          "midi": 70,
          "time": 210.03999999999343,
          "velocity": 0.48031496062992124,
          "duration": 0.08999999999997499
        },
        {
          "name": "A#2",
          "midi": 46,
          "time": 210.3099999999934,
          "velocity": 0.36220472440944884,
          "duration": 0.09000000000000341
        },
        {
          "name": "A#3",
          "midi": 58,
          "time": 210.3099999999934,
          "velocity": 0.36220472440944884,
          "duration": 0.09000000000000341
        },
        {
          "name": "D4",
          "midi": 62,
          "time": 210.32999999999342,
          "velocity": 0.3700787401574803,
          "duration": 0.09000000000000341
        },
        {
          "name": "A#3",
          "midi": 58,
          "time": 210.5899999999934,
          "velocity": 0.48031496062992124,
          "duration": 0.09000000000000341
        },
        {
          "name": "A#2",
          "midi": 46,
          "time": 210.5899999999934,
          "velocity": 0.48031496062992124,
          "duration": 0.09000000000000341
        },
        {
          "name": "D4",
          "midi": 62,
          "time": 210.60999999999342,
          "velocity": 0.48031496062992124,
          "duration": 0.09000000000000341
        },
        {
          "name": "A#4",
          "midi": 70,
          "time": 210.6249999999934,
          "velocity": 0.48031496062992124,
          "duration": 0.09000000000000341
        },
        {
          "name": "F4",
          "midi": 65,
          "time": 210.6299999999934,
          "velocity": 0.48031496062992124,
          "duration": 0.09000000000000341
        },
        {
          "name": "A#3",
          "midi": 58,
          "time": 210.89499999999342,
          "velocity": 0.3464566929133858,
          "duration": 0.09000000000000341
        },
        {
          "name": "A#2",
          "midi": 46,
          "time": 210.89499999999342,
          "velocity": 0.3464566929133858,
          "duration": 0.09000000000000341
        },
        {
          "name": "D4",
          "midi": 62,
          "time": 210.91499999999343,
          "velocity": 0.3464566929133858,
          "duration": 0.09000000000000341
        },
        {
          "name": "C3",
          "midi": 48,
          "time": 211.05499999999344,
          "velocity": 0.6141732283464567,
          "duration": 0.09000000000000341
        },
        {
          "name": "C4",
          "midi": 60,
          "time": 211.05499999999344,
          "velocity": 0.6141732283464567,
          "duration": 0.09000000000000341
        },
        {
          "name": "D4",
          "midi": 62,
          "time": 211.07499999999345,
          "velocity": 0.6141732283464567,
          "duration": 0.09000000000000341
        },
        {
          "name": "F3",
          "midi": 53,
          "time": 211.17499999999345,
          "velocity": 0.48031496062992124,
          "duration": 0.09000000000000341
        },
        {
          "name": "A3",
          "midi": 57,
          "time": 211.20499999999345,
          "velocity": 0.48031496062992124,
          "duration": 0.09000000000000341
        },
        {
          "name": "C4",
          "midi": 60,
          "time": 211.21999999999343,
          "velocity": 0.48031496062992124,
          "duration": 0.09000000000000341
        },
        {
          "name": "F4",
          "midi": 65,
          "time": 211.23999999999344,
          "velocity": 0.48031496062992124,
          "duration": 0.09000000000000341
        },
        {
          "name": "F3",
          "midi": 53,
          "time": 211.49499999999344,
          "velocity": 0.3543307086614173,
          "duration": 0.08999999999997499
        },
        {
          "name": "A3",
          "midi": 57,
          "time": 211.50999999999343,
          "velocity": 0.3543307086614173,
          "duration": 0.08999999999997499
        },
        {
          "name": "C4",
          "midi": 60,
          "time": 211.5249999999934,
          "velocity": 0.3543307086614173,
          "duration": 0.08999999999997499
        },
        {
          "name": "F3",
          "midi": 53,
          "time": 211.77499999999338,
          "velocity": 0.48031496062992124,
          "duration": 0.09000000000000341
        },
        {
          "name": "A#3",
          "midi": 58,
          "time": 211.7999999999934,
          "velocity": 0.48031496062992124,
          "duration": 0.09000000000000341
        },
        {
          "name": "C4",
          "midi": 60,
          "time": 211.80499999999338,
          "velocity": 0.48031496062992124,
          "duration": 0.09000000000000341
        },
        {
          "name": "C5",
          "midi": 72,
          "time": 211.8249999999934,
          "velocity": 0.48031496062992124,
          "duration": 0.09000000000000341
        },
        {
          "name": "F4",
          "midi": 65,
          "time": 211.8249999999934,
          "velocity": 0.48031496062992124,
          "duration": 0.09000000000000341
        },
        {
          "name": "F3",
          "midi": 53,
          "time": 212.0799999999934,
          "velocity": 0.36220472440944884,
          "duration": 0.08999999999997499
        },
        {
          "name": "A#3",
          "midi": 58,
          "time": 212.09499999999338,
          "velocity": 0.36220472440944884,
          "duration": 0.08999999999997499
        },
        {
          "name": "C4",
          "midi": 60,
          "time": 212.10999999999336,
          "velocity": 0.36220472440944884,
          "duration": 0.08999999999997499
        },
        {
          "name": "C5",
          "midi": 72,
          "time": 212.11999999999335,
          "velocity": 0.48031496062992124,
          "duration": 0.08999999999997499
        },
        {
          "name": "F3",
          "midi": 53,
          "time": 212.39999999999333,
          "velocity": 0.48031496062992124,
          "duration": 0.08999999999997499
        },
        {
          "name": "A3",
          "midi": 57,
          "time": 212.4149999999933,
          "velocity": 0.48031496062992124,
          "duration": 0.08999999999997499
        },
        {
          "name": "C4",
          "midi": 60,
          "time": 212.4299999999933,
          "velocity": 0.48031496062992124,
          "duration": 0.08999999999997499
        },
        {
          "name": "F4",
          "midi": 65,
          "time": 212.4499999999933,
          "velocity": 0.48031496062992124,
          "duration": 0.08999999999997499
        },
        {
          "name": "F3",
          "midi": 53,
          "time": 212.70499999999328,
          "velocity": 0.36220472440944884,
          "duration": 0.08999999999997499
        },
        {
          "name": "A3",
          "midi": 57,
          "time": 212.71999999999326,
          "velocity": 0.36220472440944884,
          "duration": 0.08999999999997499
        },
        {
          "name": "C4",
          "midi": 60,
          "time": 212.73499999999325,
          "velocity": 0.3700787401574803,
          "duration": 0.08999999999997499
        },
        {
          "name": "F3",
          "midi": 53,
          "time": 212.98499999999322,
          "velocity": 0.48031496062992124,
          "duration": 0.08999999999997499
        },
        {
          "name": "A#3",
          "midi": 58,
          "time": 212.9999999999932,
          "velocity": 0.48031496062992124,
          "duration": 0.08999999999997499
        },
        {
          "name": "C4",
          "midi": 60,
          "time": 213.0149999999932,
          "velocity": 0.48031496062992124,
          "duration": 0.08999999999997499
        },
        {
          "name": "F4",
          "midi": 65,
          "time": 213.0349999999932,
          "velocity": 0.48031496062992124,
          "duration": 0.08999999999997499
        },
        {
          "name": "F3",
          "midi": 53,
          "time": 213.28999999999317,
          "velocity": 0.4645669291338583,
          "duration": 0.08999999999997499
        },
        {
          "name": "A3",
          "midi": 57,
          "time": 213.30499999999316,
          "velocity": 0.4645669291338583,
          "duration": 0.08999999999997499
        },
        {
          "name": "C4",
          "midi": 60,
          "time": 213.31999999999314,
          "velocity": 0.4645669291338583,
          "duration": 0.08999999999997499
        },
        {
          "name": "F3",
          "midi": 53,
          "time": 213.4499999999931,
          "velocity": 0.4645669291338583,
          "duration": 0.08999999999997499
        },
        {
          "name": "A3",
          "midi": 57,
          "time": 213.4649999999931,
          "velocity": 0.4645669291338583,
          "duration": 0.08999999999997499
        },
        {
          "name": "C4",
          "midi": 60,
          "time": 213.47999999999308,
          "velocity": 0.4645669291338583,
          "duration": 0.08999999999997499
        },
        {
          "name": "F3",
          "midi": 53,
          "time": 213.58499999999304,
          "velocity": 0.48031496062992124,
          "duration": 0.08999999999997499
        },
        {
          "name": "A3",
          "midi": 57,
          "time": 213.59999999999303,
          "velocity": 0.48031496062992124,
          "duration": 0.08999999999997499
        },
        {
          "name": "C4",
          "midi": 60,
          "time": 213.61499999999302,
          "velocity": 0.48031496062992124,
          "duration": 0.08999999999997499
        },
        {
          "name": "F4",
          "midi": 65,
          "time": 213.63499999999303,
          "velocity": 0.48031496062992124,
          "duration": 0.08999999999997499
        },
        {
          "name": "F3",
          "midi": 53,
          "time": 213.889999999993,
          "velocity": 0.3543307086614173,
          "duration": 0.08999999999997499
        },
        {
          "name": "A3",
          "midi": 57,
          "time": 213.90499999999298,
          "velocity": 0.3543307086614173,
          "duration": 0.08999999999997499
        },
        {
          "name": "C4",
          "midi": 60,
          "time": 213.91999999999297,
          "velocity": 0.3543307086614173,
          "duration": 0.08999999999997499
        },
        {
          "name": "F3",
          "midi": 53,
          "time": 214.16999999999294,
          "velocity": 0.48031496062992124,
          "duration": 0.08999999999997499
        },
        {
          "name": "A#3",
          "midi": 58,
          "time": 214.18499999999293,
          "velocity": 0.48031496062992124,
          "duration": 0.08999999999997499
        },
        {
          "name": "C4",
          "midi": 60,
          "time": 214.1999999999929,
          "velocity": 0.48031496062992124,
          "duration": 0.08999999999997499
        },
        {
          "name": "F4",
          "midi": 65,
          "time": 214.21999999999292,
          "velocity": 0.48031496062992124,
          "duration": 0.08999999999997499
        },
        {
          "name": "F3",
          "midi": 53,
          "time": 214.4749999999929,
          "velocity": 0.36220472440944884,
          "duration": 0.08999999999997499
        },
        {
          "name": "A3",
          "midi": 57,
          "time": 214.48999999999288,
          "velocity": 0.36220472440944884,
          "duration": 0.08999999999997499
        },
        {
          "name": "C4",
          "midi": 60,
          "time": 214.50499999999286,
          "velocity": 0.36220472440944884,
          "duration": 0.08999999999997499
        },
        {
          "name": "F3",
          "midi": 53,
          "time": 214.79499999999283,
          "velocity": 0.48031496062992124,
          "duration": 0.08999999999997499
        },
        {
          "name": "A3",
          "midi": 57,
          "time": 214.8099999999928,
          "velocity": 0.48031496062992124,
          "duration": 0.08999999999997499
        },
        {
          "name": "C4",
          "midi": 60,
          "time": 214.8249999999928,
          "velocity": 0.48031496062992124,
          "duration": 0.08999999999997499
        },
        {
          "name": "F4",
          "midi": 65,
          "time": 214.8449999999928,
          "velocity": 0.48031496062992124,
          "duration": 0.08999999999997499
        },
        {
          "name": "F3",
          "midi": 53,
          "time": 215.09999999999278,
          "velocity": 0.36220472440944884,
          "duration": 0.08999999999997499
        },
        {
          "name": "A3",
          "midi": 57,
          "time": 215.11499999999276,
          "velocity": 0.36220472440944884,
          "duration": 0.08999999999997499
        },
        {
          "name": "C4",
          "midi": 60,
          "time": 215.12999999999275,
          "velocity": 0.3700787401574803,
          "duration": 0.08999999999997499
        },
        {
          "name": "F3",
          "midi": 53,
          "time": 215.24499999999273,
          "velocity": 0.3464566929133858,
          "duration": 0.08999999999997499
        },
        {
          "name": "A3",
          "midi": 57,
          "time": 215.25999999999271,
          "velocity": 0.3464566929133858,
          "duration": 0.08999999999997499
        },
        {
          "name": "C4",
          "midi": 60,
          "time": 215.2749999999927,
          "velocity": 0.3464566929133858,
          "duration": 0.08999999999997499
        },
        {
          "name": "F3",
          "midi": 53,
          "time": 215.37999999999266,
          "velocity": 0.48031496062992124,
          "duration": 0.08999999999997499
        },
        {
          "name": "A#3",
          "midi": 58,
          "time": 215.39499999999265,
          "velocity": 0.48031496062992124,
          "duration": 0.08999999999997499
        },
        {
          "name": "C4",
          "midi": 60,
          "time": 215.40999999999264,
          "velocity": 0.48031496062992124,
          "duration": 0.08999999999997499
        },
        {
          "name": "F4",
          "midi": 65,
          "time": 215.42999999999265,
          "velocity": 0.48031496062992124,
          "duration": 0.08999999999997499
        },
        {
          "name": "F3",
          "midi": 53,
          "time": 215.6849999999926,
          "velocity": 0.3464566929133858,
          "duration": 0.08999999999997499
        },
        {
          "name": "A3",
          "midi": 57,
          "time": 215.6999999999926,
          "velocity": 0.3464566929133858,
          "duration": 0.08999999999997499
        },
        {
          "name": "C4",
          "midi": 60,
          "time": 215.71499999999259,
          "velocity": 0.3464566929133858,
          "duration": 0.08999999999997499
        },
        {
          "name": "F3",
          "midi": 53,
          "time": 215.84999999999255,
          "velocity": 0.5275590551181102,
          "duration": 0.08999999999997499
        },
        {
          "name": "A3",
          "midi": 57,
          "time": 215.86499999999253,
          "velocity": 0.5275590551181102,
          "duration": 0.08999999999997499
        },
        {
          "name": "C4",
          "midi": 60,
          "time": 215.87999999999252,
          "velocity": 0.5275590551181102,
          "duration": 0.08999999999997499
        },
        {
          "name": "D3",
          "midi": 50,
          "time": 215.9749999999925,
          "velocity": 0.3464566929133858,
          "duration": 0.09000000000000341
        },
        {
          "name": "A3",
          "midi": 57,
          "time": 215.9999999999925,
          "velocity": 0.3464566929133858,
          "duration": 0.09000000000000341
        },
        {
          "name": "D4",
          "midi": 62,
          "time": 216.0199999999925,
          "velocity": 0.3464566929133858,
          "duration": 0.09000000000000341
        },
        {
          "name": "F4",
          "midi": 65,
          "time": 216.0249999999925,
          "velocity": 0.3464566929133858,
          "duration": 0.09000000000000341
        },
        {
          "name": "A4",
          "midi": 69,
          "time": 216.0349999999925,
          "velocity": 0.3464566929133858,
          "duration": 0.09000000000000341
        },
        {
          "name": "D3",
          "midi": 50,
          "time": 216.5799999999925,
          "velocity": 0.36220472440944884,
          "duration": 0.08999999999997499
        },
        {
          "name": "A3",
          "midi": 57,
          "time": 216.5849999999925,
          "velocity": 0.36220472440944884,
          "duration": 0.08999999999997499
        },
        {
          "name": "F4",
          "midi": 65,
          "time": 216.5949999999925,
          "velocity": 0.36220472440944884,
          "duration": 0.08999999999997499
        },
        {
          "name": "D4",
          "midi": 62,
          "time": 216.6049999999925,
          "velocity": 0.36220472440944884,
          "duration": 0.08999999999997499
        },
        {
          "name": "A4",
          "midi": 69,
          "time": 216.61999999999247,
          "velocity": 0.36220472440944884,
          "duration": 0.08999999999997499
        },
        {
          "name": "D3",
          "midi": 50,
          "time": 216.87999999999244,
          "velocity": 0.41732283464566927,
          "duration": 0.08999999999997499
        },
        {
          "name": "A3",
          "midi": 57,
          "time": 216.88499999999243,
          "velocity": 0.41732283464566927,
          "duration": 0.08999999999997499
        },
        {
          "name": "F4",
          "midi": 65,
          "time": 216.89499999999242,
          "velocity": 0.41732283464566927,
          "duration": 0.08999999999997499
        },
        {
          "name": "D4",
          "midi": 62,
          "time": 216.9049999999924,
          "velocity": 0.41732283464566927,
          "duration": 0.08999999999997499
        },
        {
          "name": "A4",
          "midi": 69,
          "time": 216.9199999999924,
          "velocity": 0.41732283464566927,
          "duration": 0.08999999999997499
        },
        {
          "name": "D3",
          "midi": 50,
          "time": 217.17499999999237,
          "velocity": 0.3700787401574803,
          "duration": 0.08999999999997499
        },
        {
          "name": "A3",
          "midi": 57,
          "time": 217.17999999999236,
          "velocity": 0.3700787401574803,
          "duration": 0.08999999999997499
        },
        {
          "name": "F4",
          "midi": 65,
          "time": 217.19499999999235,
          "velocity": 0.3700787401574803,
          "duration": 0.08999999999997499
        },
        {
          "name": "D4",
          "midi": 62,
          "time": 217.19999999999234,
          "velocity": 0.3700787401574803,
          "duration": 0.08999999999997499
        },
        {
          "name": "A4",
          "midi": 69,
          "time": 217.21499999999233,
          "velocity": 0.3700787401574803,
          "duration": 0.08999999999997499
        },
        {
          "name": "D3",
          "midi": 50,
          "time": 217.50999999999232,
          "velocity": 0.36220472440944884,
          "duration": 0.09000000000000341
        },
        {
          "name": "A3",
          "midi": 57,
          "time": 217.5149999999923,
          "velocity": 0.36220472440944884,
          "duration": 0.09000000000000341
        },
        {
          "name": "D4",
          "midi": 62,
          "time": 217.53499999999232,
          "velocity": 0.3700787401574803,
          "duration": 0.09000000000000341
        },
        {
          "name": "D3",
          "midi": 50,
          "time": 217.78999999999232,
          "velocity": 0.3543307086614173,
          "duration": 0.08999999999997499
        },
        {
          "name": "A3",
          "midi": 57,
          "time": 217.7949999999923,
          "velocity": 0.3543307086614173,
          "duration": 0.08999999999997499
        },
        {
          "name": "D4",
          "midi": 62,
          "time": 217.81499999999232,
          "velocity": 0.3543307086614173,
          "duration": 0.08999999999997499
        },
        {
          "name": "A4",
          "midi": 69,
          "time": 217.8299999999923,
          "velocity": 0.3543307086614173,
          "duration": 0.08999999999997499
        },
        {
          "name": "F4",
          "midi": 65,
          "time": 217.8349999999923,
          "velocity": 0.3543307086614173,
          "duration": 0.08999999999997499
        },
        {
          "name": "D3",
          "midi": 50,
          "time": 218.09499999999227,
          "velocity": 0.3464566929133858,
          "duration": 0.09000000000000341
        },
        {
          "name": "A3",
          "midi": 57,
          "time": 218.09999999999226,
          "velocity": 0.3464566929133858,
          "duration": 0.09000000000000341
        },
        {
          "name": "D4",
          "midi": 62,
          "time": 218.11999999999227,
          "velocity": 0.3464566929133858,
          "duration": 0.09000000000000341
        },
        {
          "name": "D3",
          "midi": 50,
          "time": 218.24999999999227,
          "velocity": 0.4251968503937008,
          "duration": 0.09000000000000341
        },
        {
          "name": "A3",
          "midi": 57,
          "time": 218.25499999999226,
          "velocity": 0.4251968503937008,
          "duration": 0.09000000000000341
        },
        {
          "name": "D4",
          "midi": 62,
          "time": 218.27499999999227,
          "velocity": 0.4330708661417323,
          "duration": 0.09000000000000341
        },
        {
          "name": "A#3",
          "midi": 58,
          "time": 218.39499999999228,
          "velocity": 0.3700787401574803,
          "duration": 0.09000000000000341
        },
        {
          "name": "A#2",
          "midi": 46,
          "time": 218.39499999999228,
          "velocity": 0.3700787401574803,
          "duration": 0.09000000000000341
        },
        {
          "name": "D4",
          "midi": 62,
          "time": 218.4149999999923,
          "velocity": 0.3700787401574803,
          "duration": 0.09000000000000341
        },
        {
          "name": "F4",
          "midi": 65,
          "time": 218.41999999999229,
          "velocity": 0.3700787401574803,
          "duration": 0.09000000000000341
        },
        {
          "name": "A#4",
          "midi": 70,
          "time": 218.42999999999228,
          "velocity": 0.3700787401574803,
          "duration": 0.09000000000000341
        },
        {
          "name": "A#3",
          "midi": 58,
          "time": 218.6999999999923,
          "velocity": 0.3543307086614173,
          "duration": 0.09000000000000341
        },
        {
          "name": "A#2",
          "midi": 46,
          "time": 218.6999999999923,
          "velocity": 0.3543307086614173,
          "duration": 0.09000000000000341
        },
        {
          "name": "D4",
          "midi": 62,
          "time": 218.7199999999923,
          "velocity": 0.3543307086614173,
          "duration": 0.09000000000000341
        },
        {
          "name": "A#2",
          "midi": 46,
          "time": 218.9799999999923,
          "velocity": 0.3779527559055118,
          "duration": 0.08999999999997499
        },
        {
          "name": "A#3",
          "midi": 58,
          "time": 218.9799999999923,
          "velocity": 0.3779527559055118,
          "duration": 0.08999999999997499
        },
        {
          "name": "F4",
          "midi": 65,
          "time": 218.98999999999228,
          "velocity": 0.3779527559055118,
          "duration": 0.08999999999997499
        },
        {
          "name": "D4",
          "midi": 62,
          "time": 218.99999999999227,
          "velocity": 0.3779527559055118,
          "duration": 0.08999999999997499
        },
        {
          "name": "A#4",
          "midi": 70,
          "time": 219.01499999999226,
          "velocity": 0.3779527559055118,
          "duration": 0.08999999999997499
        },
        {
          "name": "A#3",
          "midi": 58,
          "time": 219.28499999999224,
          "velocity": 0.36220472440944884,
          "duration": 0.09000000000000341
        },
        {
          "name": "A#2",
          "midi": 46,
          "time": 219.28499999999224,
          "velocity": 0.36220472440944884,
          "duration": 0.09000000000000341
        },
        {
          "name": "D4",
          "midi": 62,
          "time": 219.30499999999225,
          "velocity": 0.36220472440944884,
          "duration": 0.09000000000000341
        },
        {
          "name": "A#3",
          "midi": 58,
          "time": 219.60499999999226,
          "velocity": 0.3228346456692913,
          "duration": 0.08999999999997499
        },
        {
          "name": "A#2",
          "midi": 46,
          "time": 219.60499999999226,
          "velocity": 0.3228346456692913,
          "duration": 0.08999999999997499
        },
        {
          "name": "F4",
          "midi": 65,
          "time": 219.61999999999225,
          "velocity": 0.3228346456692913,
          "duration": 0.08999999999997499
        },
        {
          "name": "D4",
          "midi": 62,
          "time": 219.62499999999224,
          "velocity": 0.3228346456692913,
          "duration": 0.08999999999997499
        },
        {
          "name": "A#4",
          "midi": 70,
          "time": 219.63999999999223,
          "velocity": 0.3228346456692913,
          "duration": 0.08999999999997499
        },
        {
          "name": "A#3",
          "midi": 58,
          "time": 219.9099999999922,
          "velocity": 0.36220472440944884,
          "duration": 0.09000000000000341
        },
        {
          "name": "A#2",
          "midi": 46,
          "time": 219.9099999999922,
          "velocity": 0.36220472440944884,
          "duration": 0.09000000000000341
        },
        {
          "name": "D4",
          "midi": 62,
          "time": 219.92999999999222,
          "velocity": 0.3700787401574803,
          "duration": 0.09000000000000341
        },
        {
          "name": "A#2",
          "midi": 46,
          "time": 220.1899999999922,
          "velocity": 0.36220472440944884,
          "duration": 0.09000000000000341
        },
        {
          "name": "A#3",
          "midi": 58,
          "time": 220.1899999999922,
          "velocity": 0.36220472440944884,
          "duration": 0.09000000000000341
        },
        {
          "name": "D4",
          "midi": 62,
          "time": 220.20999999999222,
          "velocity": 0.36220472440944884,
          "duration": 0.09000000000000341
        },
        {
          "name": "A#4",
          "midi": 70,
          "time": 220.2249999999922,
          "velocity": 0.36220472440944884,
          "duration": 0.09000000000000341
        },
        {
          "name": "F4",
          "midi": 65,
          "time": 220.2299999999922,
          "velocity": 0.36220472440944884,
          "duration": 0.09000000000000341
        },
        {
          "name": "A#3",
          "midi": 58,
          "time": 220.49499999999222,
          "velocity": 0.3464566929133858,
          "duration": 0.09000000000000341
        },
        {
          "name": "A#2",
          "midi": 46,
          "time": 220.49499999999222,
          "velocity": 0.3464566929133858,
          "duration": 0.09000000000000341
        },
        {
          "name": "D4",
          "midi": 62,
          "time": 220.51499999999223,
          "velocity": 0.3464566929133858,
          "duration": 0.09000000000000341
        },
        {
          "name": "C3",
          "midi": 48,
          "time": 220.65499999999224,
          "velocity": 0.4015748031496063,
          "duration": 0.09000000000000341
        },
        {
          "name": "C4",
          "midi": 60,
          "time": 220.65499999999224,
          "velocity": 0.4015748031496063,
          "duration": 0.09000000000000341
        },
        {
          "name": "D4",
          "midi": 62,
          "time": 220.67499999999225,
          "velocity": 0.4015748031496063,
          "duration": 0.08999999999997499
        },
        {
          "name": "F2",
          "midi": 41,
          "time": 220.74999999999224,
          "velocity": 0.48031496062992124,
          "duration": 2.999999999999943
        },
        {
          "name": "F3",
          "midi": 53,
          "time": 220.77499999999222,
          "velocity": 0.48031496062992124,
          "duration": 2.9999999999999716
        },
        {
          "name": "A3",
          "midi": 57,
          "time": 220.80499999999222,
          "velocity": 0.48031496062992124,
          "duration": 2.909999999999968
        },
        {
          "name": "C4",
          "midi": 60,
          "time": 220.8199999999922,
          "velocity": 0.48031496062992124,
          "duration": 2.4749999999999943
        },
        {
          "name": "F4",
          "midi": 65,
          "time": 220.83999999999222,
          "velocity": 0.48031496062992124,
          "duration": 2.4399999999999977
        }
      ],
      "controlChanges": {
        "7": [
          {
            "number": 7,
            "time": 0,
            "value": 1
          }
        ],
        "10": [
          {
            "number": 10,
            "time": 0,
            "value": 0.5039370078740157
          }
        ],
        "32": [
          {
            "number": 32,
            "time": 0,
            "value": 0.31496062992125984
          }
        ],
        "72": [
          {
            "number": 72,
            "time": 78.92,
            "value": 0.7952755905511811
          }
        ],
        "93": [
          {
            "number": 93,
            "time": 79,
            "value": 0.48031496062992124
          }
        ],
        "119": [
          {
            "number": 119,
            "time": 84.045,
            "value": 0.5669291338582677
          },
          {
            "number": 119,
            "time": 84.255,
            "value": 0.4330708661417323
          },
          {
            "number": 119,
            "time": 84.36,
            "value": 0
          },
          {
            "number": 119,
            "time": 84.64500000000001,
            "value": 0.10236220472440945
          },
          {
            "number": 119,
            "time": 85.14000000000001,
            "value": 0.8976377952755905
          },
          {
            "number": 119,
            "time": 85.39000000000001,
            "value": 0
          },
          {
            "number": 119,
            "time": 85.64000000000001,
            "value": 0.6377952755905512
          },
          {
            "number": 119,
            "time": 86.01000000000002,
            "value": 0.36220472440944884
          },
          {
            "number": 119,
            "time": 86.19500000000002,
            "value": 0
          },
          {
            "number": 119,
            "time": 86.52000000000002,
            "value": 0.1968503937007874
          },
          {
            "number": 119,
            "time": 86.60000000000002,
            "value": 0.8031496062992126
          },
          {
            "number": 119,
            "time": 86.64000000000003,
            "value": 0
          },
          {
            "number": 119,
            "time": 86.80500000000004,
            "value": 0.889763779527559
          },
          {
            "number": 119,
            "time": 86.88500000000003,
            "value": 0.11023622047244094
          },
          {
            "number": 119,
            "time": 86.92500000000004,
            "value": 0
          },
          {
            "number": 119,
            "time": 87.10500000000005,
            "value": 0.5118110236220472
          },
          {
            "number": 119,
            "time": 87.18500000000004,
            "value": 0.4881889763779528
          },
          {
            "number": 119,
            "time": 87.22500000000005,
            "value": 0
          },
          {
            "number": 119,
            "time": 87.39000000000006,
            "value": 0.007874015748031496
          },
          {
            "number": 119,
            "time": 87.49000000000005,
            "value": 0.9921259842519685
          },
          {
            "number": 119,
            "time": 87.54000000000005,
            "value": 0
          },
          {
            "number": 119,
            "time": 87.73000000000005,
            "value": 0.6141732283464567
          },
          {
            "number": 119,
            "time": 87.81000000000004,
            "value": 0.3858267716535433
          },
          {
            "number": 119,
            "time": 87.85000000000005,
            "value": 0
          },
          {
            "number": 119,
            "time": 88.01500000000006,
            "value": 0.7322834645669292
          },
          {
            "number": 119,
            "time": 88.09500000000006,
            "value": 0.2677165354330709
          },
          {
            "number": 119,
            "time": 88.13500000000006,
            "value": 0
          },
          {
            "number": 119,
            "time": 88.31500000000007,
            "value": 0.09448818897637795
          },
          {
            "number": 119,
            "time": 88.39500000000007,
            "value": 0.905511811023622
          },
          {
            "number": 119,
            "time": 88.43500000000007,
            "value": 0
          },
          {
            "number": 119,
            "time": 88.91500000000009,
            "value": 0.9448818897637795
          },
          {
            "number": 119,
            "time": 88.99500000000009,
            "value": 0.05511811023622047
          },
          {
            "number": 119,
            "time": 89.0350000000001,
            "value": 0
          },
          {
            "number": 119,
            "time": 89.2150000000001,
            "value": 0.8582677165354331
          },
          {
            "number": 119,
            "time": 89.2850000000001,
            "value": 0.14173228346456693
          },
          {
            "number": 119,
            "time": 89.32000000000009,
            "value": 0
          },
          {
            "number": 119,
            "time": 89.5000000000001,
            "value": 0.4330708661417323
          },
          {
            "number": 119,
            "time": 89.5800000000001,
            "value": 0.5669291338582677
          },
          {
            "number": 119,
            "time": 89.6200000000001,
            "value": 0
          },
          {
            "number": 119,
            "time": 89.80000000000011,
            "value": 0.07086614173228346
          },
          {
            "number": 119,
            "time": 89.89000000000011,
            "value": 0.9291338582677166
          },
          {
            "number": 119,
            "time": 89.93500000000012,
            "value": 0
          },
          {
            "number": 119,
            "time": 90.12500000000011,
            "value": 0.5905511811023622
          },
          {
            "number": 119,
            "time": 90.20500000000011,
            "value": 0.4094488188976378
          },
          {
            "number": 119,
            "time": 90.24500000000012,
            "value": 0
          },
          {
            "number": 119,
            "time": 90.42500000000013,
            "value": 0.08661417322834646
          },
          {
            "number": 119,
            "time": 90.49500000000012,
            "value": 0.9133858267716536
          },
          {
            "number": 119,
            "time": 90.53000000000011,
            "value": 0
          },
          {
            "number": 119,
            "time": 90.71000000000012,
            "value": 0.6456692913385826
          },
          {
            "number": 119,
            "time": 90.79000000000012,
            "value": 0.3543307086614173
          },
          {
            "number": 119,
            "time": 90.83000000000013,
            "value": 0
          },
          {
            "number": 119,
            "time": 91.33000000000014,
            "value": 0.2204724409448819
          },
          {
            "number": 119,
            "time": 91.41000000000014,
            "value": 0.7795275590551181
          },
          {
            "number": 119,
            "time": 91.45000000000014,
            "value": 0
          },
          {
            "number": 119,
            "time": 91.61500000000015,
            "value": 0.889763779527559
          },
          {
            "number": 119,
            "time": 91.69500000000015,
            "value": 0.11023622047244094
          },
          {
            "number": 119,
            "time": 91.73500000000016,
            "value": 0
          },
          {
            "number": 119,
            "time": 91.91500000000016,
            "value": 0.8031496062992126
          },
          {
            "number": 119,
            "time": 91.99500000000016,
            "value": 0.1968503937007874
          },
          {
            "number": 119,
            "time": 92.03500000000017,
            "value": 0
          },
          {
            "number": 119,
            "time": 92.20000000000017,
            "value": 0.4409448818897638
          },
          {
            "number": 119,
            "time": 92.30000000000017,
            "value": 0.5590551181102362
          },
          {
            "number": 119,
            "time": 92.35000000000016,
            "value": 0
          },
          {
            "number": 119,
            "time": 92.54000000000016,
            "value": 0.9448818897637795
          },
          {
            "number": 119,
            "time": 92.62000000000016,
            "value": 0.05511811023622047
          },
          {
            "number": 119,
            "time": 92.66000000000017,
            "value": 0
          },
          {
            "number": 119,
            "time": 92.82500000000017,
            "value": 0.6535433070866141
          },
          {
            "number": 119,
            "time": 92.90500000000017,
            "value": 0.3464566929133858
          },
          {
            "number": 119,
            "time": 92.94500000000018,
            "value": 0
          },
          {
            "number": 119,
            "time": 93.12500000000018,
            "value": 0.2047244094488189
          },
          {
            "number": 119,
            "time": 93.20500000000018,
            "value": 0.7952755905511811
          },
          {
            "number": 119,
            "time": 93.24500000000019,
            "value": 0
          },
          {
            "number": 119,
            "time": 93.72500000000021,
            "value": 0.7795275590551181
          },
          {
            "number": 119,
            "time": 93.8050000000002,
            "value": 0.2204724409448819
          },
          {
            "number": 119,
            "time": 93.84500000000021,
            "value": 0
          },
          {
            "number": 119,
            "time": 94.01000000000022,
            "value": 0.36220472440944884
          },
          {
            "number": 119,
            "time": 94.09000000000022,
            "value": 0.6377952755905512
          },
          {
            "number": 119,
            "time": 94.13000000000022,
            "value": 0
          },
          {
            "number": 119,
            "time": 94.31000000000023,
            "value": 0.7952755905511811
          },
          {
            "number": 119,
            "time": 94.39000000000023,
            "value": 0.2047244094488189
          },
          {
            "number": 119,
            "time": 94.43000000000023,
            "value": 0
          },
          {
            "number": 119,
            "time": 94.59500000000024,
            "value": 0.8818897637795275
          },
          {
            "number": 119,
            "time": 94.69500000000023,
            "value": 0.11811023622047244
          },
          {
            "number": 119,
            "time": 94.74500000000023,
            "value": 0
          },
          {
            "number": 119,
            "time": 94.93500000000023,
            "value": 0.6299212598425197
          },
          {
            "number": 119,
            "time": 95.01500000000023,
            "value": 0.3700787401574803
          },
          {
            "number": 119,
            "time": 95.05500000000023,
            "value": 0
          },
          {
            "number": 119,
            "time": 95.22000000000024,
            "value": 0.5039370078740157
          },
          {
            "number": 119,
            "time": 95.30000000000024,
            "value": 0.49606299212598426
          },
          {
            "number": 119,
            "time": 95.34000000000024,
            "value": 0
          },
          {
            "number": 119,
            "time": 95.52000000000025,
            "value": 0.44881889763779526
          },
          {
            "number": 119,
            "time": 95.60000000000025,
            "value": 0.5511811023622047
          },
          {
            "number": 119,
            "time": 95.64000000000026,
            "value": 0
          },
          {
            "number": 119,
            "time": 96.12500000000026,
            "value": 0.14960629921259844
          },
          {
            "number": 119,
            "time": 96.21000000000025,
            "value": 0.8503937007874016
          },
          {
            "number": 119,
            "time": 96.25500000000025,
            "value": 0
          },
          {
            "number": 119,
            "time": 96.41500000000023,
            "value": 0.8818897637795275
          },
          {
            "number": 119,
            "time": 96.49500000000023,
            "value": 0.11811023622047244
          },
          {
            "number": 119,
            "time": 96.53500000000024,
            "value": 0
          },
          {
            "number": 119,
            "time": 96.71000000000025,
            "value": 0.3779527559055118
          },
          {
            "number": 119,
            "time": 96.79500000000024,
            "value": 0.6220472440944882
          },
          {
            "number": 119,
            "time": 96.84000000000024,
            "value": 0
          },
          {
            "number": 119,
            "time": 97.00000000000023,
            "value": 0.3543307086614173
          },
          {
            "number": 119,
            "time": 97.10000000000022,
            "value": 0.6456692913385826
          },
          {
            "number": 119,
            "time": 97.15000000000022,
            "value": 0
          },
          {
            "number": 119,
            "time": 97.3350000000002,
            "value": 0.3543307086614173
          },
          {
            "number": 119,
            "time": 97.4200000000002,
            "value": 0.6456692913385826
          },
          {
            "number": 119,
            "time": 97.4650000000002,
            "value": 0
          },
          {
            "number": 119,
            "time": 97.62500000000018,
            "value": 0.06299212598425197
          },
          {
            "number": 119,
            "time": 97.70500000000018,
            "value": 0.937007874015748
          },
          {
            "number": 119,
            "time": 97.74500000000019,
            "value": 0
          },
          {
            "number": 119,
            "time": 97.92500000000017,
            "value": 0.6614173228346457
          },
          {
            "number": 119,
            "time": 98.01000000000016,
            "value": 0.33858267716535434
          },
          {
            "number": 119,
            "time": 98.05000000000017,
            "value": 0
          },
          {
            "number": 119,
            "time": 98.52000000000014,
            "value": 0.2283464566929134
          },
          {
            "number": 119,
            "time": 98.61000000000014,
            "value": 0.7716535433070866
          },
          {
            "number": 119,
            "time": 98.65500000000014,
            "value": 0
          },
          {
            "number": 119,
            "time": 98.81000000000013,
            "value": 0.7795275590551181
          },
          {
            "number": 119,
            "time": 98.89500000000012,
            "value": 0.2204724409448819
          },
          {
            "number": 119,
            "time": 98.93500000000013,
            "value": 0
          },
          {
            "number": 119,
            "time": 99.10500000000016,
            "value": 0.28346456692913385
          },
          {
            "number": 119,
            "time": 99.19500000000016,
            "value": 0.7165354330708661
          },
          {
            "number": 119,
            "time": 99.24000000000017,
            "value": 0
          },
          {
            "number": 119,
            "time": 99.39500000000015,
            "value": 0.952755905511811
          },
          {
            "number": 119,
            "time": 99.50000000000016,
            "value": 0.047244094488188976
          },
          {
            "number": 119,
            "time": 99.55000000000015,
            "value": 0
          },
          {
            "number": 119,
            "time": 99.73000000000016,
            "value": 0.5669291338582677
          },
          {
            "number": 119,
            "time": 99.82000000000016,
            "value": 0.4330708661417323
          },
          {
            "number": 119,
            "time": 99.86500000000017,
            "value": 0
          },
          {
            "number": 119,
            "time": 100.02000000000015,
            "value": 0.10236220472440945
          },
          {
            "number": 119,
            "time": 100.10500000000015,
            "value": 0.8976377952755905
          },
          {
            "number": 119,
            "time": 100.14500000000015,
            "value": 0
          },
          {
            "number": 119,
            "time": 100.32000000000014,
            "value": 0.6692913385826772
          },
          {
            "number": 119,
            "time": 100.40500000000013,
            "value": 0.33070866141732286
          },
          {
            "number": 119,
            "time": 100.45000000000013,
            "value": 0
          },
          {
            "number": 119,
            "time": 100.9300000000001,
            "value": 0.3858267716535433
          },
          {
            "number": 119,
            "time": 101.0100000000001,
            "value": 0.6141732283464567
          },
          {
            "number": 119,
            "time": 101.05000000000011,
            "value": 0
          }
        ]
      },
      "id": 4,
      "name": "Toplist Team",
      "instrumentNumber": 25,
      "instrument": "acoustic guitar (steel)",
      "instrumentFamily": "guitar",
      "channelNumber": 2,
      "isPercussion": false
    },
    {
      "startTime": 132,
      "duration": 222.66500000000093,
      "length": 210,
      "notes": [
        {
          "name": "G3",
          "midi": 55,
          "time": 132,
          "velocity": 0.4881889763779528,
          "duration": 0.6000000000000227
        },
        {
          "name": "G3",
          "midi": 55,
          "time": 132.60000000000002,
          "velocity": 0.5118110236220472,
          "duration": 0.6000000000000227
        },
        {
          "name": "C4",
          "midi": 60,
          "time": 133.20000000000005,
          "velocity": 0.5196850393700787,
          "duration": 0.6000000000000227
        },
        {
          "name": "A#3",
          "midi": 58,
          "time": 133.80000000000007,
          "velocity": 0.5196850393700787,
          "duration": 0.6000000000000227
        },
        {
          "name": "A3",
          "midi": 57,
          "time": 134.4000000000001,
          "velocity": 0.4881889763779528,
          "duration": 0.6000000000000227
        },
        {
          "name": "G4",
          "midi": 67,
          "time": 141.60000000000014,
          "velocity": 0.5433070866141733,
          "duration": 0.6000000000000227
        },
        {
          "name": "G4",
          "midi": 67,
          "time": 142.20000000000016,
          "velocity": 0.5118110236220472,
          "duration": 0.6000000000000227
        },
        {
          "name": "E4",
          "midi": 64,
          "time": 142.80000000000018,
          "velocity": 0.5196850393700787,
          "duration": 0.6000000000000227
        },
        {
          "name": "E4",
          "midi": 64,
          "time": 143.4000000000002,
          "velocity": 0.5196850393700787,
          "duration": 0.6000000000000227
        },
        {
          "name": "G4",
          "midi": 67,
          "time": 151.20000000000027,
          "velocity": 0.5275590551181102,
          "duration": 0.6000000000000227
        },
        {
          "name": "G4",
          "midi": 67,
          "time": 151.8000000000003,
          "velocity": 0.5275590551181102,
          "duration": 0.6000000000000227
        },
        {
          "name": "D4",
          "midi": 62,
          "time": 152.40000000000032,
          "velocity": 0.5275590551181102,
          "duration": 0.6000000000000227
        },
        {
          "name": "D4",
          "midi": 62,
          "time": 153.00000000000034,
          "velocity": 0.5275590551181102,
          "duration": 0.6000000000000227
        },
        {
          "name": "A#2",
          "midi": 46,
          "time": 153.60000000000036,
          "velocity": 0.5275590551181102,
          "duration": 0.6000000000000227
        },
        {
          "name": "F3",
          "midi": 53,
          "time": 153.60000000000036,
          "velocity": 0.5275590551181102,
          "duration": 0.6000000000000227
        },
        {
          "name": "A#3",
          "midi": 58,
          "time": 153.60000000000036,
          "velocity": 0.5275590551181102,
          "duration": 0.6000000000000227
        },
        {
          "name": "G4",
          "midi": 67,
          "time": 160.8000000000004,
          "velocity": 0.5275590551181102,
          "duration": 0.6000000000000227
        },
        {
          "name": "G4",
          "midi": 67,
          "time": 161.40000000000043,
          "velocity": 0.5275590551181102,
          "duration": 0.6000000000000227
        },
        {
          "name": "D4",
          "midi": 62,
          "time": 162.00000000000045,
          "velocity": 0.5275590551181102,
          "duration": 0.6000000000000227
        },
        {
          "name": "D4",
          "midi": 62,
          "time": 162.60000000000048,
          "velocity": 0.5275590551181102,
          "duration": 0.6000000000000227
        },
        {
          "name": "C4",
          "midi": 60,
          "time": 165.6000000000005,
          "velocity": 0.49606299212598426,
          "duration": 2.389999999999958
        },
        {
          "name": "C3",
          "midi": 48,
          "time": 165.6050000000005,
          "velocity": 0.49606299212598426,
          "duration": 2.389999999999958
        },
        {
          "name": "E4",
          "midi": 64,
          "time": 165.6050000000005,
          "velocity": 0.49606299212598426,
          "duration": 2.2949999999999875
        },
        {
          "name": "G4",
          "midi": 67,
          "time": 165.6200000000005,
          "velocity": 0.49606299212598426,
          "duration": 2.2949999999999875
        },
        {
          "name": "C4",
          "midi": 60,
          "time": 168.00000000000045,
          "velocity": 0.5118110236220472,
          "duration": 0.5999999999999943
        },
        {
          "name": "F2",
          "midi": 41,
          "time": 168.00000000000045,
          "velocity": 0.5118110236220472,
          "duration": 0.5999999999999943
        },
        {
          "name": "F3",
          "midi": 53,
          "time": 169.20000000000044,
          "velocity": 0.5118110236220472,
          "duration": 0.5999999999999943
        },
        {
          "name": "A3",
          "midi": 57,
          "time": 169.20000000000044,
          "velocity": 0.5118110236220472,
          "duration": 0.5999999999999943
        },
        {
          "name": "F3",
          "midi": 53,
          "time": 170.40000000000043,
          "velocity": 0.3700787401574803,
          "duration": 0.5999999999999943
        },
        {
          "name": "A#3",
          "midi": 58,
          "time": 170.40000000000043,
          "velocity": 0.3700787401574803,
          "duration": 0.5999999999999943
        },
        {
          "name": "D4",
          "midi": 62,
          "time": 170.40000000000043,
          "velocity": 0.3700787401574803,
          "duration": 0.5999999999999943
        },
        {
          "name": "C4",
          "midi": 60,
          "time": 171.30000000000044,
          "velocity": 0.3700787401574803,
          "duration": 0.5999999999999943
        },
        {
          "name": "F3",
          "midi": 53,
          "time": 171.30000000000044,
          "velocity": 0.3700787401574803,
          "duration": 0.5999999999999943
        },
        {
          "name": "D#4",
          "midi": 63,
          "time": 172.20000000000041,
          "velocity": 0.3700787401574803,
          "duration": 0.2999999999998124
        },
        {
          "name": "D4",
          "midi": 62,
          "time": 172.50000000000023,
          "velocity": 0.3700787401574803,
          "duration": 0.30000000000001137
        },
        {
          "name": "C4",
          "midi": 60,
          "time": 172.80000000000024,
          "velocity": 0.48031496062992124,
          "duration": 0.5999999999999943
        },
        {
          "name": "F2",
          "midi": 41,
          "time": 172.80000000000024,
          "velocity": 0.48031496062992124,
          "duration": 0.5999999999999943
        },
        {
          "name": "F3",
          "midi": 53,
          "time": 174.00000000000023,
          "velocity": 0.4251968503937008,
          "duration": 0.5999999999999943
        },
        {
          "name": "A3",
          "midi": 57,
          "time": 174.00000000000023,
          "velocity": 0.4251968503937008,
          "duration": 0.5999999999999943
        },
        {
          "name": "C4",
          "midi": 60,
          "time": 175.20000000000022,
          "velocity": 0.44881889763779526,
          "duration": 0.5999999999999943
        },
        {
          "name": "F2",
          "midi": 41,
          "time": 175.20000000000022,
          "velocity": 0.44881889763779526,
          "duration": 0.5999999999999943
        },
        {
          "name": "F3",
          "midi": 53,
          "time": 176.4000000000002,
          "velocity": 0.4094488188976378,
          "duration": 0.5999999999999943
        },
        {
          "name": "A3",
          "midi": 57,
          "time": 176.4000000000002,
          "velocity": 0.4094488188976378,
          "duration": 0.5999999999999943
        },
        {
          "name": "A3",
          "midi": 57,
          "time": 177.6000000000002,
          "velocity": 0.4094488188976378,
          "duration": 0.30000000000001137
        },
        {
          "name": "A3",
          "midi": 57,
          "time": 177.9000000000002,
          "velocity": 0.4094488188976378,
          "duration": 0.30000000000001137
        },
        {
          "name": "A#3",
          "midi": 58,
          "time": 178.20000000000022,
          "velocity": 0.4094488188976378,
          "duration": 0.30000000000001137
        },
        {
          "name": "A#3",
          "midi": 58,
          "time": 178.50000000000023,
          "velocity": 0.4094488188976378,
          "duration": 0.30000000000001137
        },
        {
          "name": "A#3",
          "midi": 58,
          "time": 178.80000000000024,
          "velocity": 0.4094488188976378,
          "duration": 0.30000000000001137
        },
        {
          "name": "A#3",
          "midi": 58,
          "time": 179.10000000000025,
          "velocity": 0.4094488188976378,
          "duration": 0.30000000000001137
        },
        {
          "name": "A#3",
          "midi": 58,
          "time": 179.40000000000026,
          "velocity": 0.4094488188976378,
          "duration": 0.30000000000001137
        },
        {
          "name": "A3",
          "midi": 57,
          "time": 179.70000000000027,
          "velocity": 0.4094488188976378,
          "duration": 0.30000000000001137
        },
        {
          "name": "F3",
          "midi": 53,
          "time": 180.00000000000028,
          "velocity": 0.4566929133858268,
          "duration": 0.5999999999999943
        },
        {
          "name": "A#2",
          "midi": 46,
          "time": 180.00000000000028,
          "velocity": 0.4566929133858268,
          "duration": 0.5999999999999943
        },
        {
          "name": "D4",
          "midi": 62,
          "time": 180.00000000000028,
          "velocity": 0.4566929133858268,
          "duration": 0.5999999999999943
        },
        {
          "name": "A#2",
          "midi": 46,
          "time": 180.60000000000028,
          "velocity": 0.44881889763779526,
          "duration": 0.6000000000000227
        },
        {
          "name": "D4",
          "midi": 62,
          "time": 180.60000000000028,
          "velocity": 0.44881889763779526,
          "duration": 0.30000000000001137
        },
        {
          "name": "C4",
          "midi": 60,
          "time": 180.9000000000003,
          "velocity": 0.44881889763779526,
          "duration": 0.30000000000001137
        },
        {
          "name": "D4",
          "midi": 62,
          "time": 181.2000000000003,
          "velocity": 0.44881889763779526,
          "duration": 0.30000000000001137
        },
        {
          "name": "C4",
          "midi": 60,
          "time": 181.5000000000003,
          "velocity": 0.44881889763779526,
          "duration": 0.30000000000001137
        },
        {
          "name": "D4",
          "midi": 62,
          "time": 181.80000000000032,
          "velocity": 0.44881889763779526,
          "duration": 0.30000000000001137
        },
        {
          "name": "C4",
          "midi": 60,
          "time": 182.10000000000034,
          "velocity": 0.4566929133858268,
          "duration": 0.30000000000001137
        },
        {
          "name": "F2",
          "midi": 41,
          "time": 182.40000000000035,
          "velocity": 0.48031496062992124,
          "duration": 0.5999999999999943
        },
        {
          "name": "C4",
          "midi": 60,
          "time": 182.40000000000035,
          "velocity": 0.48031496062992124,
          "duration": 0.5999999999999943
        },
        {
          "name": "F3",
          "midi": 53,
          "time": 183.60000000000034,
          "velocity": 0.4251968503937008,
          "duration": 0.5999999999999943
        },
        {
          "name": "A3",
          "midi": 57,
          "time": 183.60000000000034,
          "velocity": 0.4251968503937008,
          "duration": 0.5999999999999943
        },
        {
          "name": "C4",
          "midi": 60,
          "time": 184.80000000000032,
          "velocity": 0.44881889763779526,
          "duration": 0.5999999999999943
        },
        {
          "name": "F2",
          "midi": 41,
          "time": 184.80000000000032,
          "velocity": 0.44881889763779526,
          "duration": 0.5999999999999943
        },
        {
          "name": "F3",
          "midi": 53,
          "time": 186.0000000000003,
          "velocity": 0.4094488188976378,
          "duration": 0.5999999999999943
        },
        {
          "name": "A3",
          "midi": 57,
          "time": 186.0000000000003,
          "velocity": 0.4094488188976378,
          "duration": 0.5999999999999943
        },
        {
          "name": "A4",
          "midi": 69,
          "time": 187.2000000000003,
          "velocity": 0.4094488188976378,
          "duration": 0.15000000000000568
        },
        {
          "name": "A3",
          "midi": 57,
          "time": 187.2000000000003,
          "velocity": 0.4094488188976378,
          "duration": 0.30000000000001137
        },
        {
          "name": "A#4",
          "midi": 70,
          "time": 187.3500000000003,
          "velocity": 0.4094488188976378,
          "duration": 0.15000000000000568
        },
        {
          "name": "A4",
          "midi": 69,
          "time": 187.5000000000003,
          "velocity": 0.4094488188976378,
          "duration": 0.30000000000001137
        },
        {
          "name": "A3",
          "midi": 57,
          "time": 187.5000000000003,
          "velocity": 0.4094488188976378,
          "duration": 0.30000000000001137
        },
        {
          "name": "A#4",
          "midi": 70,
          "time": 187.80000000000032,
          "velocity": 0.4094488188976378,
          "duration": 0.30000000000001137
        },
        {
          "name": "A#3",
          "midi": 58,
          "time": 187.80000000000032,
          "velocity": 0.4094488188976378,
          "duration": 0.30000000000001137
        },
        {
          "name": "A4",
          "midi": 69,
          "time": 188.10000000000034,
          "velocity": 0.4094488188976378,
          "duration": 0.30000000000001137
        },
        {
          "name": "A#3",
          "midi": 58,
          "time": 188.10000000000034,
          "velocity": 0.4094488188976378,
          "duration": 0.30000000000001137
        },
        {
          "name": "A#3",
          "midi": 58,
          "time": 188.40000000000035,
          "velocity": 0.4094488188976378,
          "duration": 0.30000000000001137
        },
        {
          "name": "A4",
          "midi": 69,
          "time": 188.40000000000035,
          "velocity": 0.4094488188976378,
          "duration": 0.15000000000000568
        },
        {
          "name": "A#4",
          "midi": 70,
          "time": 188.55000000000035,
          "velocity": 0.4094488188976378,
          "duration": 0.15000000000000568
        },
        {
          "name": "A4",
          "midi": 69,
          "time": 188.70000000000036,
          "velocity": 0.4094488188976378,
          "duration": 0.30000000000001137
        },
        {
          "name": "A#3",
          "midi": 58,
          "time": 188.70000000000036,
          "velocity": 0.4094488188976378,
          "duration": 0.30000000000001137
        },
        {
          "name": "A#4",
          "midi": 70,
          "time": 189.00000000000037,
          "velocity": 0.4094488188976378,
          "duration": 0.30000000000001137
        },
        {
          "name": "A#3",
          "midi": 58,
          "time": 189.00000000000037,
          "velocity": 0.4094488188976378,
          "duration": 0.30000000000001137
        },
        {
          "name": "A3",
          "midi": 57,
          "time": 189.30000000000038,
          "velocity": 0.4094488188976378,
          "duration": 0.30000000000001137
        },
        {
          "name": "A4",
          "midi": 69,
          "time": 189.30000000000038,
          "velocity": 0.4094488188976378,
          "duration": 0.30000000000001137
        },
        {
          "name": "F3",
          "midi": 53,
          "time": 189.6000000000004,
          "velocity": 0.4566929133858268,
          "duration": 0.5999999999999943
        },
        {
          "name": "A#2",
          "midi": 46,
          "time": 189.6000000000004,
          "velocity": 0.4566929133858268,
          "duration": 0.5999999999999943
        },
        {
          "name": "D4",
          "midi": 62,
          "time": 189.6000000000004,
          "velocity": 0.4566929133858268,
          "duration": 0.5999999999999943
        },
        {
          "name": "A#2",
          "midi": 46,
          "time": 190.2000000000004,
          "velocity": 0.44881889763779526,
          "duration": 0.6000000000000227
        },
        {
          "name": "D4",
          "midi": 62,
          "time": 190.2000000000004,
          "velocity": 0.44881889763779526,
          "duration": 0.30000000000001137
        },
        {
          "name": "C4",
          "midi": 60,
          "time": 190.5000000000004,
          "velocity": 0.44881889763779526,
          "duration": 0.30000000000001137
        },
        {
          "name": "D4",
          "midi": 62,
          "time": 190.8000000000004,
          "velocity": 0.44881889763779526,
          "duration": 0.30000000000001137
        },
        {
          "name": "C4",
          "midi": 60,
          "time": 191.10000000000042,
          "velocity": 0.44881889763779526,
          "duration": 0.30000000000001137
        },
        {
          "name": "D4",
          "midi": 62,
          "time": 191.40000000000043,
          "velocity": 0.44881889763779526,
          "duration": 0.30000000000001137
        },
        {
          "name": "C4",
          "midi": 60,
          "time": 191.70000000000044,
          "velocity": 0.4566929133858268,
          "duration": 0.30000000000001137
        },
        {
          "name": "F2",
          "midi": 41,
          "time": 192.00000000000045,
          "velocity": 0.48031496062992124,
          "duration": 0.5999999999999943
        },
        {
          "name": "C4",
          "midi": 60,
          "time": 192.00000000000045,
          "velocity": 0.48031496062992124,
          "duration": 0.5999999999999943
        },
        {
          "name": "F3",
          "midi": 53,
          "time": 193.20000000000044,
          "velocity": 0.4251968503937008,
          "duration": 0.5999999999999943
        },
        {
          "name": "A3",
          "midi": 57,
          "time": 193.20000000000044,
          "velocity": 0.4251968503937008,
          "duration": 0.5999999999999943
        },
        {
          "name": "A3",
          "midi": 57,
          "time": 194.40000000000043,
          "velocity": 0.44881889763779526,
          "duration": 0.30000000000001137
        },
        {
          "name": "C4",
          "midi": 60,
          "time": 194.40000000000043,
          "velocity": 0.44881889763779526,
          "duration": 0.6000000000000227
        },
        {
          "name": "F2",
          "midi": 41,
          "time": 194.40000000000043,
          "velocity": 0.44881889763779526,
          "duration": 0.6000000000000227
        },
        {
          "name": "A3",
          "midi": 57,
          "time": 194.70000000000044,
          "velocity": 0.44881889763779526,
          "duration": 0.30000000000001137
        },
        {
          "name": "A#3",
          "midi": 58,
          "time": 195.00000000000045,
          "velocity": 0.44881889763779526,
          "duration": 0.30000000000001137
        },
        {
          "name": "A3",
          "midi": 57,
          "time": 195.30000000000047,
          "velocity": 0.44881889763779526,
          "duration": 0.30000000000001137
        },
        {
          "name": "G3",
          "midi": 55,
          "time": 195.60000000000048,
          "velocity": 0.5748031496062992,
          "duration": 0.30000000000001137
        },
        {
          "name": "F3",
          "midi": 53,
          "time": 195.9000000000005,
          "velocity": 0.49606299212598426,
          "duration": 0.30000000000001137
        },
        {
          "name": "G3",
          "midi": 55,
          "time": 196.2000000000005,
          "velocity": 0.5826771653543307,
          "duration": 0.30000000000001137
        },
        {
          "name": "F3",
          "midi": 53,
          "time": 196.5000000000005,
          "velocity": 0.49606299212598426,
          "duration": 0.30000000000001137
        },
        {
          "name": "A4",
          "midi": 69,
          "time": 196.80000000000052,
          "velocity": 0.4094488188976378,
          "duration": 0.15000000000000568
        },
        {
          "name": "A3",
          "midi": 57,
          "time": 196.80000000000052,
          "velocity": 0.4094488188976378,
          "duration": 0.30000000000001137
        },
        {
          "name": "A#4",
          "midi": 70,
          "time": 196.95000000000053,
          "velocity": 0.4094488188976378,
          "duration": 0.15000000000000568
        },
        {
          "name": "A4",
          "midi": 69,
          "time": 197.10000000000053,
          "velocity": 0.4094488188976378,
          "duration": 0.30000000000001137
        },
        {
          "name": "A3",
          "midi": 57,
          "time": 197.10000000000053,
          "velocity": 0.4094488188976378,
          "duration": 0.30000000000001137
        },
        {
          "name": "A#4",
          "midi": 70,
          "time": 197.40000000000055,
          "velocity": 0.4094488188976378,
          "duration": 0.30000000000001137
        },
        {
          "name": "A#3",
          "midi": 58,
          "time": 197.40000000000055,
          "velocity": 0.4094488188976378,
          "duration": 0.30000000000001137
        },
        {
          "name": "A4",
          "midi": 69,
          "time": 197.70000000000056,
          "velocity": 0.4094488188976378,
          "duration": 0.30000000000001137
        },
        {
          "name": "A#3",
          "midi": 58,
          "time": 197.70000000000056,
          "velocity": 0.4094488188976378,
          "duration": 0.30000000000001137
        },
        {
          "name": "A#3",
          "midi": 58,
          "time": 198.00000000000057,
          "velocity": 0.4094488188976378,
          "duration": 0.30000000000001137
        },
        {
          "name": "A4",
          "midi": 69,
          "time": 198.00000000000057,
          "velocity": 0.4094488188976378,
          "duration": 0.15000000000000568
        },
        {
          "name": "A#4",
          "midi": 70,
          "time": 198.15000000000057,
          "velocity": 0.4094488188976378,
          "duration": 0.15000000000000568
        },
        {
          "name": "A4",
          "midi": 69,
          "time": 198.30000000000058,
          "velocity": 0.4094488188976378,
          "duration": 0.30000000000001137
        },
        {
          "name": "A#3",
          "midi": 58,
          "time": 198.30000000000058,
          "velocity": 0.4094488188976378,
          "duration": 0.30000000000001137
        },
        {
          "name": "A#4",
          "midi": 70,
          "time": 198.6000000000006,
          "velocity": 0.4094488188976378,
          "duration": 0.30000000000001137
        },
        {
          "name": "A#3",
          "midi": 58,
          "time": 198.6000000000006,
          "velocity": 0.4094488188976378,
          "duration": 0.30000000000001137
        },
        {
          "name": "A3",
          "midi": 57,
          "time": 198.9000000000006,
          "velocity": 0.4094488188976378,
          "duration": 0.30000000000001137
        },
        {
          "name": "A4",
          "midi": 69,
          "time": 198.9000000000006,
          "velocity": 0.4094488188976378,
          "duration": 0.30000000000001137
        },
        {
          "name": "F3",
          "midi": 53,
          "time": 199.2000000000006,
          "velocity": 0.4566929133858268,
          "duration": 0.5999999999999943
        },
        {
          "name": "A#2",
          "midi": 46,
          "time": 199.2000000000006,
          "velocity": 0.4566929133858268,
          "duration": 0.5999999999999943
        },
        {
          "name": "D4",
          "midi": 62,
          "time": 199.2000000000006,
          "velocity": 0.4566929133858268,
          "duration": 0.5999999999999943
        },
        {
          "name": "A#2",
          "midi": 46,
          "time": 199.8000000000006,
          "velocity": 0.44881889763779526,
          "duration": 0.6000000000000227
        },
        {
          "name": "D4",
          "midi": 62,
          "time": 199.8000000000006,
          "velocity": 0.44881889763779526,
          "duration": 0.30000000000001137
        },
        {
          "name": "C4",
          "midi": 60,
          "time": 200.10000000000062,
          "velocity": 0.44881889763779526,
          "duration": 0.30000000000001137
        },
        {
          "name": "D4",
          "midi": 62,
          "time": 200.40000000000063,
          "velocity": 0.44881889763779526,
          "duration": 0.30000000000001137
        },
        {
          "name": "C4",
          "midi": 60,
          "time": 200.70000000000064,
          "velocity": 0.44881889763779526,
          "duration": 0.30000000000001137
        },
        {
          "name": "D4",
          "midi": 62,
          "time": 201.00000000000065,
          "velocity": 0.44881889763779526,
          "duration": 0.30000000000001137
        },
        {
          "name": "C4",
          "midi": 60,
          "time": 201.30000000000067,
          "velocity": 0.4566929133858268,
          "duration": 0.30000000000001137
        },
        {
          "name": "F2",
          "midi": 41,
          "time": 201.60000000000068,
          "velocity": 0.48031496062992124,
          "duration": 0.5999999999999943
        },
        {
          "name": "C4",
          "midi": 60,
          "time": 201.60000000000068,
          "velocity": 0.48031496062992124,
          "duration": 0.5999999999999943
        },
        {
          "name": "F3",
          "midi": 53,
          "time": 202.80000000000067,
          "velocity": 0.4251968503937008,
          "duration": 0.5999999999999943
        },
        {
          "name": "A3",
          "midi": 57,
          "time": 202.80000000000067,
          "velocity": 0.4251968503937008,
          "duration": 0.5999999999999943
        },
        {
          "name": "A3",
          "midi": 57,
          "time": 204.00000000000065,
          "velocity": 0.44881889763779526,
          "duration": 0.30000000000001137
        },
        {
          "name": "C4",
          "midi": 60,
          "time": 204.00000000000065,
          "velocity": 0.44881889763779526,
          "duration": 0.6000000000000227
        },
        {
          "name": "F2",
          "midi": 41,
          "time": 204.00000000000065,
          "velocity": 0.44881889763779526,
          "duration": 0.6000000000000227
        },
        {
          "name": "A3",
          "midi": 57,
          "time": 204.30000000000067,
          "velocity": 0.44881889763779526,
          "duration": 0.30000000000001137
        },
        {
          "name": "A#3",
          "midi": 58,
          "time": 204.60000000000068,
          "velocity": 0.44881889763779526,
          "duration": 0.30000000000001137
        },
        {
          "name": "A3",
          "midi": 57,
          "time": 204.9000000000007,
          "velocity": 0.44881889763779526,
          "duration": 0.30000000000001137
        },
        {
          "name": "G3",
          "midi": 55,
          "time": 205.2000000000007,
          "velocity": 0.5748031496062992,
          "duration": 0.30000000000001137
        },
        {
          "name": "F3",
          "midi": 53,
          "time": 205.5000000000007,
          "velocity": 0.49606299212598426,
          "duration": 0.30000000000001137
        },
        {
          "name": "G3",
          "midi": 55,
          "time": 205.80000000000072,
          "velocity": 0.5826771653543307,
          "duration": 0.30000000000001137
        },
        {
          "name": "F3",
          "midi": 53,
          "time": 206.10000000000073,
          "velocity": 0.49606299212598426,
          "duration": 0.30000000000001137
        },
        {
          "name": "A4",
          "midi": 69,
          "time": 206.40000000000074,
          "velocity": 0.4094488188976378,
          "duration": 0.15000000000000568
        },
        {
          "name": "A3",
          "midi": 57,
          "time": 206.40000000000074,
          "velocity": 0.4094488188976378,
          "duration": 0.30000000000001137
        },
        {
          "name": "A#4",
          "midi": 70,
          "time": 206.55000000000075,
          "velocity": 0.4094488188976378,
          "duration": 0.15000000000000568
        },
        {
          "name": "A4",
          "midi": 69,
          "time": 206.70000000000076,
          "velocity": 0.4094488188976378,
          "duration": 0.30000000000001137
        },
        {
          "name": "A3",
          "midi": 57,
          "time": 206.70000000000076,
          "velocity": 0.4094488188976378,
          "duration": 0.30000000000001137
        },
        {
          "name": "A#4",
          "midi": 70,
          "time": 207.00000000000077,
          "velocity": 0.4094488188976378,
          "duration": 0.30000000000001137
        },
        {
          "name": "A#3",
          "midi": 58,
          "time": 207.00000000000077,
          "velocity": 0.4094488188976378,
          "duration": 0.30000000000001137
        },
        {
          "name": "A4",
          "midi": 69,
          "time": 207.30000000000078,
          "velocity": 0.4094488188976378,
          "duration": 0.30000000000001137
        },
        {
          "name": "A#3",
          "midi": 58,
          "time": 207.30000000000078,
          "velocity": 0.4094488188976378,
          "duration": 0.30000000000001137
        },
        {
          "name": "A#3",
          "midi": 58,
          "time": 207.6000000000008,
          "velocity": 0.4094488188976378,
          "duration": 0.30000000000001137
        },
        {
          "name": "A4",
          "midi": 69,
          "time": 207.6000000000008,
          "velocity": 0.4094488188976378,
          "duration": 0.15000000000000568
        },
        {
          "name": "A#4",
          "midi": 70,
          "time": 207.7500000000008,
          "velocity": 0.4094488188976378,
          "duration": 0.15000000000000568
        },
        {
          "name": "A4",
          "midi": 69,
          "time": 207.9000000000008,
          "velocity": 0.4094488188976378,
          "duration": 0.30000000000001137
        },
        {
          "name": "A#3",
          "midi": 58,
          "time": 207.9000000000008,
          "velocity": 0.4094488188976378,
          "duration": 0.30000000000001137
        },
        {
          "name": "A#4",
          "midi": 70,
          "time": 208.2000000000008,
          "velocity": 0.4094488188976378,
          "duration": 0.30000000000001137
        },
        {
          "name": "A#3",
          "midi": 58,
          "time": 208.2000000000008,
          "velocity": 0.4094488188976378,
          "duration": 0.30000000000001137
        },
        {
          "name": "A3",
          "midi": 57,
          "time": 208.50000000000082,
          "velocity": 0.4094488188976378,
          "duration": 0.30000000000001137
        },
        {
          "name": "A4",
          "midi": 69,
          "time": 208.50000000000082,
          "velocity": 0.4094488188976378,
          "duration": 0.30000000000001137
        },
        {
          "name": "F3",
          "midi": 53,
          "time": 208.80000000000084,
          "velocity": 0.4566929133858268,
          "duration": 0.5999999999999943
        },
        {
          "name": "A#2",
          "midi": 46,
          "time": 208.80000000000084,
          "velocity": 0.4566929133858268,
          "duration": 0.5999999999999943
        },
        {
          "name": "D4",
          "midi": 62,
          "time": 208.80000000000084,
          "velocity": 0.4566929133858268,
          "duration": 0.5999999999999943
        },
        {
          "name": "A#2",
          "midi": 46,
          "time": 209.40000000000083,
          "velocity": 0.44881889763779526,
          "duration": 0.6000000000000227
        },
        {
          "name": "D4",
          "midi": 62,
          "time": 209.40000000000083,
          "velocity": 0.44881889763779526,
          "duration": 0.30000000000001137
        },
        {
          "name": "C4",
          "midi": 60,
          "time": 209.70000000000084,
          "velocity": 0.44881889763779526,
          "duration": 0.30000000000001137
        },
        {
          "name": "D4",
          "midi": 62,
          "time": 210.00000000000085,
          "velocity": 0.44881889763779526,
          "duration": 0.30000000000001137
        },
        {
          "name": "C4",
          "midi": 60,
          "time": 210.30000000000086,
          "velocity": 0.44881889763779526,
          "duration": 0.30000000000001137
        },
        {
          "name": "D4",
          "midi": 62,
          "time": 210.60000000000088,
          "velocity": 0.44881889763779526,
          "duration": 0.30000000000001137
        },
        {
          "name": "C4",
          "midi": 60,
          "time": 210.9000000000009,
          "velocity": 0.4566929133858268,
          "duration": 0.30000000000001137
        },
        {
          "name": "F2",
          "midi": 41,
          "time": 211.2000000000009,
          "velocity": 0.48031496062992124,
          "duration": 0.5999999999999943
        },
        {
          "name": "C4",
          "midi": 60,
          "time": 211.2000000000009,
          "velocity": 0.48031496062992124,
          "duration": 0.5999999999999943
        },
        {
          "name": "F3",
          "midi": 53,
          "time": 212.4000000000009,
          "velocity": 0.4251968503937008,
          "duration": 0.5999999999999943
        },
        {
          "name": "A3",
          "midi": 57,
          "time": 212.4000000000009,
          "velocity": 0.4251968503937008,
          "duration": 0.5999999999999943
        },
        {
          "name": "A3",
          "midi": 57,
          "time": 213.60000000000088,
          "velocity": 0.44881889763779526,
          "duration": 0.30000000000001137
        },
        {
          "name": "C4",
          "midi": 60,
          "time": 213.60000000000088,
          "velocity": 0.44881889763779526,
          "duration": 0.6000000000000227
        },
        {
          "name": "F2",
          "midi": 41,
          "time": 213.60000000000088,
          "velocity": 0.44881889763779526,
          "duration": 0.6000000000000227
        },
        {
          "name": "A3",
          "midi": 57,
          "time": 213.9000000000009,
          "velocity": 0.44881889763779526,
          "duration": 0.30000000000001137
        },
        {
          "name": "A#3",
          "midi": 58,
          "time": 214.2000000000009,
          "velocity": 0.44881889763779526,
          "duration": 0.30000000000001137
        },
        {
          "name": "A3",
          "midi": 57,
          "time": 214.5000000000009,
          "velocity": 0.44881889763779526,
          "duration": 0.30000000000001137
        },
        {
          "name": "G3",
          "midi": 55,
          "time": 214.80000000000092,
          "velocity": 0.5748031496062992,
          "duration": 0.30000000000001137
        },
        {
          "name": "F3",
          "midi": 53,
          "time": 215.10000000000093,
          "velocity": 0.49606299212598426,
          "duration": 0.30000000000001137
        },
        {
          "name": "G3",
          "midi": 55,
          "time": 215.40000000000094,
          "velocity": 0.5826771653543307,
          "duration": 0.30000000000001137
        },
        {
          "name": "F3",
          "midi": 53,
          "time": 215.70000000000095,
          "velocity": 0.49606299212598426,
          "duration": 0.30000000000001137
        },
        {
          "name": "D2",
          "midi": 38,
          "time": 215.97000000000097,
          "velocity": 0.4881889763779528,
          "duration": 1.829999999999984
        },
        {
          "name": "D3",
          "midi": 50,
          "time": 216.01500000000095,
          "velocity": 0.4881889763779528,
          "duration": 1.924999999999983
        },
        {
          "name": "F3",
          "midi": 53,
          "time": 216.03000000000094,
          "velocity": 0.4881889763779528,
          "duration": 1.9749999999999943
        },
        {
          "name": "A3",
          "midi": 57,
          "time": 216.06000000000094,
          "velocity": 0.4881889763779528,
          "duration": 1.9749999999999943
        },
        {
          "name": "A#2",
          "midi": 46,
          "time": 218.30500000000094,
          "velocity": 0.3779527559055118,
          "duration": 1.8300000000000125
        },
        {
          "name": "F3",
          "midi": 53,
          "time": 218.35500000000096,
          "velocity": 0.3779527559055118,
          "duration": 1.8300000000000125
        },
        {
          "name": "A#3",
          "midi": 58,
          "time": 218.38000000000096,
          "velocity": 0.3858267716535433,
          "duration": 1.8300000000000125
        },
        {
          "name": "D4",
          "midi": 62,
          "time": 218.41000000000096,
          "velocity": 0.3858267716535433,
          "duration": 1.8300000000000125
        },
        {
          "name": "F4",
          "midi": 65,
          "time": 218.44500000000096,
          "velocity": 0.3858267716535433,
          "duration": 1.8300000000000125
        },
        {
          "name": "A#4",
          "midi": 70,
          "time": 218.46000000000095,
          "velocity": 0.3858267716535433,
          "duration": 1.8300000000000125
        },
        {
          "name": "F3",
          "midi": 53,
          "time": 220.73000000000096,
          "velocity": 0.3779527559055118,
          "duration": 1.829999999999984
        },
        {
          "name": "A3",
          "midi": 57,
          "time": 220.75500000000096,
          "velocity": 0.3858267716535433,
          "duration": 1.829999999999984
        },
        {
          "name": "C4",
          "midi": 60,
          "time": 220.78500000000096,
          "velocity": 0.3858267716535433,
          "duration": 1.829999999999984
        },
        {
          "name": "F4",
          "midi": 65,
          "time": 220.82000000000096,
          "velocity": 0.3858267716535433,
          "duration": 1.829999999999984
        },
        {
          "name": "A4",
          "midi": 69,
          "time": 220.83500000000095,
          "velocity": 0.3858267716535433,
          "duration": 1.829999999999984
        }
      ],
      "controlChanges": {
        "7": [
          {
            "number": 7,
            "time": 0,
            "value": 1
          }
        ],
        "10": [
          {
            "number": 10,
            "time": 0,
            "value": 0.5039370078740157
          }
        ],
        "32": [
          {
            "number": 32,
            "time": 0,
            "value": 0
          }
        ],
        "72": [
          {
            "number": 72,
            "time": 129.185,
            "value": 0.7874015748031497
          }
        ],
        "119": [
          {
            "number": 119,
            "time": 132,
            "value": 0.13385826771653545
          },
          {
            "number": 119,
            "time": 132.3,
            "value": 0.8661417322834646
          },
          {
            "number": 119,
            "time": 132.45000000000002,
            "value": 0
          },
          {
            "number": 119,
            "time": 132.60000000000002,
            "value": 0.6771653543307087
          },
          {
            "number": 119,
            "time": 132.90000000000003,
            "value": 0.3228346456692913
          },
          {
            "number": 119,
            "time": 133.05000000000004,
            "value": 0
          },
          {
            "number": 119,
            "time": 133.20000000000005,
            "value": 0.2047244094488189
          },
          {
            "number": 119,
            "time": 133.50000000000006,
            "value": 0.7952755905511811
          },
          {
            "number": 119,
            "time": 133.65000000000006,
            "value": 0
          },
          {
            "number": 119,
            "time": 133.80000000000007,
            "value": 0.7716535433070866
          },
          {
            "number": 119,
            "time": 134.10000000000008,
            "value": 0.2283464566929134
          },
          {
            "number": 119,
            "time": 134.25000000000009,
            "value": 0
          },
          {
            "number": 119,
            "time": 134.4000000000001,
            "value": 0.4566929133858268
          },
          {
            "number": 119,
            "time": 134.7000000000001,
            "value": 0.5433070866141733
          },
          {
            "number": 119,
            "time": 134.8500000000001,
            "value": 0
          },
          {
            "number": 119,
            "time": 135.0000000000001,
            "value": 0.07874015748031496
          },
          {
            "number": 119,
            "time": 135.49500000000012,
            "value": 0.9212598425196851
          },
          {
            "number": 119,
            "time": 135.74500000000012,
            "value": 0
          },
          {
            "number": 119,
            "time": 135.99500000000012,
            "value": 0.5826771653543307
          },
          {
            "number": 119,
            "time": 136.49000000000012,
            "value": 0.41732283464566927
          },
          {
            "number": 119,
            "time": 136.74000000000012,
            "value": 0
          },
          {
            "number": 119,
            "time": 136.99000000000012,
            "value": 0.18110236220472442
          },
          {
            "number": 119,
            "time": 137.48500000000013,
            "value": 0.8188976377952756
          },
          {
            "number": 119,
            "time": 137.73500000000013,
            "value": 0
          },
          {
            "number": 119,
            "time": 137.98500000000013,
            "value": 0.2992125984251969
          },
          {
            "number": 119,
            "time": 138.48000000000013,
            "value": 0.7007874015748031
          },
          {
            "number": 119,
            "time": 138.73000000000013,
            "value": 0
          },
          {
            "number": 119,
            "time": 138.98000000000013,
            "value": 0.6692913385826772
          },
          {
            "number": 119,
            "time": 139.47500000000014,
            "value": 0.33070866141732286
          },
          {
            "number": 119,
            "time": 139.72500000000014,
            "value": 0
          },
          {
            "number": 119,
            "time": 139.97500000000014,
            "value": 0.5118110236220472
          },
          {
            "number": 119,
            "time": 140.47000000000014,
            "value": 0.4881889763779528
          },
          {
            "number": 119,
            "time": 140.72000000000014,
            "value": 0
          },
          {
            "number": 119,
            "time": 140.97000000000014,
            "value": 0.4251968503937008
          },
          {
            "number": 119,
            "time": 141.28500000000014,
            "value": 0.5748031496062992
          },
          {
            "number": 119,
            "time": 141.44000000000014,
            "value": 0
          },
          {
            "number": 119,
            "time": 141.60000000000014,
            "value": 0
          },
          {
            "number": 119,
            "time": 141.90000000000015,
            "value": 1
          },
          {
            "number": 119,
            "time": 142.05000000000015,
            "value": 0
          },
          {
            "number": 119,
            "time": 142.20000000000016,
            "value": 0.6456692913385826
          },
          {
            "number": 119,
            "time": 142.50000000000017,
            "value": 0.3543307086614173
          },
          {
            "number": 119,
            "time": 142.65000000000018,
            "value": 0
          },
          {
            "number": 119,
            "time": 142.80000000000018,
            "value": 0.15748031496062992
          },
          {
            "number": 119,
            "time": 143.1000000000002,
            "value": 0.84251968503937
          },
          {
            "number": 119,
            "time": 143.2500000000002,
            "value": 0
          },
          {
            "number": 119,
            "time": 143.4000000000002,
            "value": 0.6614173228346457
          },
          {
            "number": 119,
            "time": 143.70000000000022,
            "value": 0.33858267716535434
          },
          {
            "number": 119,
            "time": 143.85000000000022,
            "value": 0
          },
          {
            "number": 119,
            "time": 144.00000000000023,
            "value": 0.2125984251968504
          },
          {
            "number": 119,
            "time": 144.49500000000023,
            "value": 0.7874015748031497
          },
          {
            "number": 119,
            "time": 144.74500000000023,
            "value": 0
          },
          {
            "number": 119,
            "time": 144.99500000000023,
            "value": 0.7952755905511811
          },
          {
            "number": 119,
            "time": 145.49000000000024,
            "value": 0.2047244094488189
          },
          {
            "number": 119,
            "time": 145.74000000000024,
            "value": 0
          },
          {
            "number": 119,
            "time": 145.99000000000024,
            "value": 0.4566929133858268
          },
          {
            "number": 119,
            "time": 146.48500000000024,
            "value": 0.5433070866141733
          },
          {
            "number": 119,
            "time": 146.73500000000024,
            "value": 0
          },
          {
            "number": 119,
            "time": 146.98500000000024,
            "value": 0.3700787401574803
          },
          {
            "number": 119,
            "time": 147.48000000000025,
            "value": 0.6299212598425197
          },
          {
            "number": 119,
            "time": 147.73000000000025,
            "value": 0
          },
          {
            "number": 119,
            "time": 147.98000000000025,
            "value": 0.007874015748031496
          },
          {
            "number": 119,
            "time": 148.47500000000025,
            "value": 0.9921259842519685
          },
          {
            "number": 119,
            "time": 148.72500000000025,
            "value": 0
          },
          {
            "number": 119,
            "time": 148.97500000000025,
            "value": 0.5118110236220472
          },
          {
            "number": 119,
            "time": 149.47000000000025,
            "value": 0.4881889763779528
          },
          {
            "number": 119,
            "time": 149.72000000000025,
            "value": 0
          },
          {
            "number": 119,
            "time": 149.97000000000025,
            "value": 0.2204724409448819
          },
          {
            "number": 119,
            "time": 150.46500000000026,
            "value": 0.7795275590551181
          },
          {
            "number": 119,
            "time": 150.71500000000026,
            "value": 0
          },
          {
            "number": 119,
            "time": 150.96500000000026,
            "value": 0.7795275590551181
          },
          {
            "number": 119,
            "time": 151.08000000000027,
            "value": 0.2204724409448819
          },
          {
            "number": 119,
            "time": 151.14000000000027,
            "value": 0
          },
          {
            "number": 119,
            "time": 151.20000000000027,
            "value": 0.3464566929133858
          },
          {
            "number": 119,
            "time": 151.50000000000028,
            "value": 0.6535433070866141
          },
          {
            "number": 119,
            "time": 151.6500000000003,
            "value": 0
          },
          {
            "number": 119,
            "time": 151.8000000000003,
            "value": 0.937007874015748
          },
          {
            "number": 119,
            "time": 152.1000000000003,
            "value": 0.06299212598425197
          },
          {
            "number": 119,
            "time": 152.2500000000003,
            "value": 0
          },
          {
            "number": 119,
            "time": 152.40000000000032,
            "value": 0.36220472440944884
          },
          {
            "number": 119,
            "time": 152.70000000000033,
            "value": 0.6377952755905512
          },
          {
            "number": 119,
            "time": 152.85000000000034,
            "value": 0
          },
          {
            "number": 119,
            "time": 153.00000000000034,
            "value": 0.44881889763779526
          },
          {
            "number": 119,
            "time": 153.30000000000035,
            "value": 0.5511811023622047
          },
          {
            "number": 119,
            "time": 153.45000000000036,
            "value": 0
          },
          {
            "number": 119,
            "time": 153.60000000000036,
            "value": 0.1968503937007874
          },
          {
            "number": 119,
            "time": 153.90000000000038,
            "value": 0.8031496062992126
          },
          {
            "number": 119,
            "time": 154.05000000000038,
            "value": 0
          },
          {
            "number": 119,
            "time": 154.2000000000004,
            "value": 0.07086614173228346
          },
          {
            "number": 119,
            "time": 154.6950000000004,
            "value": 0.9291338582677166
          },
          {
            "number": 119,
            "time": 154.9450000000004,
            "value": 0
          },
          {
            "number": 119,
            "time": 155.1950000000004,
            "value": 0.015748031496062992
          },
          {
            "number": 119,
            "time": 155.6900000000004,
            "value": 0.984251968503937
          },
          {
            "number": 119,
            "time": 155.9400000000004,
            "value": 0
          },
          {
            "number": 119,
            "time": 156.1900000000004,
            "value": 0.7244094488188977
          },
          {
            "number": 119,
            "time": 156.6850000000004,
            "value": 0.2755905511811024
          },
          {
            "number": 119,
            "time": 156.9350000000004,
            "value": 0
          },
          {
            "number": 119,
            "time": 157.1850000000004,
            "value": 0.44881889763779526
          },
          {
            "number": 119,
            "time": 157.6800000000004,
            "value": 0.5511811023622047
          },
          {
            "number": 119,
            "time": 157.9300000000004,
            "value": 0
          },
          {
            "number": 119,
            "time": 158.1800000000004,
            "value": 0.952755905511811
          },
          {
            "number": 119,
            "time": 158.6750000000004,
            "value": 0.047244094488188976
          },
          {
            "number": 119,
            "time": 158.9250000000004,
            "value": 0
          },
          {
            "number": 119,
            "time": 159.1750000000004,
            "value": 0.9291338582677166
          },
          {
            "number": 119,
            "time": 159.6700000000004,
            "value": 0.07086614173228346
          },
          {
            "number": 119,
            "time": 159.9200000000004,
            "value": 0
          },
          {
            "number": 119,
            "time": 160.1700000000004,
            "value": 0.9291338582677166
          },
          {
            "number": 119,
            "time": 160.4850000000004,
            "value": 0.07086614173228346
          },
          {
            "number": 119,
            "time": 160.6400000000004,
            "value": 0
          },
          {
            "number": 119,
            "time": 160.8000000000004,
            "value": 0.6377952755905512
          },
          {
            "number": 119,
            "time": 161.10000000000042,
            "value": 0.36220472440944884
          },
          {
            "number": 119,
            "time": 161.25000000000043,
            "value": 0
          },
          {
            "number": 119,
            "time": 161.40000000000043,
            "value": 0.2283464566929134
          },
          {
            "number": 119,
            "time": 161.70000000000044,
            "value": 0.7716535433070866
          },
          {
            "number": 119,
            "time": 161.85000000000045,
            "value": 0
          },
          {
            "number": 119,
            "time": 162.00000000000045,
            "value": 0.8031496062992126
          },
          {
            "number": 119,
            "time": 162.30000000000047,
            "value": 0.1968503937007874
          },
          {
            "number": 119,
            "time": 162.45000000000047,
            "value": 0
          },
          {
            "number": 119,
            "time": 162.60000000000048,
            "value": 0.3464566929133858
          },
          {
            "number": 119,
            "time": 162.9000000000005,
            "value": 0.6535433070866141
          },
          {
            "number": 119,
            "time": 163.0500000000005,
            "value": 0
          },
          {
            "number": 119,
            "time": 163.2000000000005,
            "value": 0.8582677165354331
          },
          {
            "number": 119,
            "time": 163.6950000000005,
            "value": 0.14173228346456693
          },
          {
            "number": 119,
            "time": 163.9450000000005,
            "value": 0
          },
          {
            "number": 119,
            "time": 164.1950000000005,
            "value": 0.5196850393700787
          },
          {
            "number": 119,
            "time": 164.6900000000005,
            "value": 0.48031496062992124
          },
          {
            "number": 119,
            "time": 164.9400000000005,
            "value": 0
          },
          {
            "number": 119,
            "time": 165.1900000000005,
            "value": 0.13385826771653545
          },
          {
            "number": 119,
            "time": 165.39500000000052,
            "value": 0.8661417322834646
          },
          {
            "number": 119,
            "time": 165.49500000000052,
            "value": 0
          },
          {
            "number": 119,
            "time": 165.6200000000005,
            "value": 0.6771653543307087
          },
          {
            "number": 119,
            "time": 166.1150000000005,
            "value": 0.3228346456692913
          },
          {
            "number": 119,
            "time": 166.3650000000005,
            "value": 0
          },
          {
            "number": 119,
            "time": 166.6150000000005,
            "value": 0.23622047244094488
          },
          {
            "number": 119,
            "time": 167.1100000000005,
            "value": 0.7637795275590551
          },
          {
            "number": 119,
            "time": 167.3600000000005,
            "value": 0
          },
          {
            "number": 119,
            "time": 167.6100000000005,
            "value": 0.9606299212598425
          },
          {
            "number": 119,
            "time": 167.7550000000005,
            "value": 0.03937007874015748
          },
          {
            "number": 119,
            "time": 167.8250000000005,
            "value": 0
          }
        ]
      },
      "id": 5,
      "instrumentNumber": 27,
      "instrument": "electric guitar (clean)",
      "instrumentFamily": "guitar",
      "channelNumber": 3,
      "isPercussion": false
    },
    {
      "startTime": 143.955,
      "duration": 225.6000000000008,
      "length": 4,
      "notes": [
        {
          "name": "A#4",
          "midi": 70,
          "time": 143.955,
          "velocity": 0.7874015748031497,
          "duration": 4.764999999999986
        },
        {
          "name": "A#4",
          "midi": 70,
          "time": 153.52500000000003,
          "velocity": 0.7874015748031497,
          "duration": 4.764999999999986
        },
        {
          "name": "A4",
          "midi": 69,
          "time": 158.35500000000002,
          "velocity": 0.7874015748031497,
          "duration": 4.764999999999986
        },
        {
          "name": "C4",
          "midi": 60,
          "time": 220.80000000000013,
          "velocity": 0.6850393700787402,
          "duration": 4.800000000000665
        }
      ],
      "controlChanges": {
        "7": [
          {
            "number": 7,
            "time": 0,
            "value": 1
          }
        ],
        "10": [
          {
            "number": 10,
            "time": 0,
            "value": 0.5039370078740157
          }
        ],
        "11": [
          {
            "number": 11,
            "time": 222.33500000000012,
            "value": 1
          },
          {
            "number": 11,
            "time": 222.36500000000012,
            "value": 0.9921259842519685
          },
          {
            "number": 11,
            "time": 222.39000000000013,
            "value": 0.984251968503937
          },
          {
            "number": 11,
            "time": 222.41500000000013,
            "value": 0.9763779527559056
          },
          {
            "number": 11,
            "time": 222.44000000000014,
            "value": 0.968503937007874
          },
          {
            "number": 11,
            "time": 222.47000000000014,
            "value": 0.9606299212598425
          },
          {
            "number": 11,
            "time": 222.49000000000015,
            "value": 0.952755905511811
          },
          {
            "number": 11,
            "time": 222.51500000000016,
            "value": 0.9448818897637795
          },
          {
            "number": 11,
            "time": 222.54000000000016,
            "value": 0.937007874015748
          },
          {
            "number": 11,
            "time": 222.57000000000016,
            "value": 0.9291338582677166
          },
          {
            "number": 11,
            "time": 222.59500000000017,
            "value": 0.9212598425196851
          },
          {
            "number": 11,
            "time": 222.62000000000018,
            "value": 0.9133858267716536
          },
          {
            "number": 11,
            "time": 222.64000000000019,
            "value": 0.905511811023622
          },
          {
            "number": 11,
            "time": 222.6700000000002,
            "value": 0.8976377952755905
          },
          {
            "number": 11,
            "time": 222.6950000000002,
            "value": 0.889763779527559
          },
          {
            "number": 11,
            "time": 222.7200000000002,
            "value": 0.8818897637795275
          },
          {
            "number": 11,
            "time": 222.7450000000002,
            "value": 0.8740157480314961
          },
          {
            "number": 11,
            "time": 222.7750000000002,
            "value": 0.8661417322834646
          },
          {
            "number": 11,
            "time": 222.8000000000002,
            "value": 0.8582677165354331
          },
          {
            "number": 11,
            "time": 222.82000000000022,
            "value": 0.8503937007874016
          },
          {
            "number": 11,
            "time": 222.84500000000023,
            "value": 0.84251968503937
          },
          {
            "number": 11,
            "time": 222.87000000000023,
            "value": 0.8346456692913385
          },
          {
            "number": 11,
            "time": 222.90000000000023,
            "value": 0.8267716535433071
          },
          {
            "number": 11,
            "time": 222.92500000000024,
            "value": 0.8188976377952756
          },
          {
            "number": 11,
            "time": 222.95000000000024,
            "value": 0.8110236220472441
          },
          {
            "number": 11,
            "time": 222.97000000000025,
            "value": 0.8031496062992126
          },
          {
            "number": 11,
            "time": 223.00000000000026,
            "value": 0.7952755905511811
          },
          {
            "number": 11,
            "time": 223.02500000000026,
            "value": 0.7874015748031497
          },
          {
            "number": 11,
            "time": 223.05000000000027,
            "value": 0.7795275590551181
          },
          {
            "number": 11,
            "time": 223.07500000000027,
            "value": 0.7716535433070866
          },
          {
            "number": 11,
            "time": 223.10500000000027,
            "value": 0.7637795275590551
          },
          {
            "number": 11,
            "time": 223.13000000000028,
            "value": 0.7559055118110236
          },
          {
            "number": 11,
            "time": 223.1500000000003,
            "value": 0.7480314960629921
          },
          {
            "number": 11,
            "time": 223.1750000000003,
            "value": 0.7401574803149606
          },
          {
            "number": 11,
            "time": 223.2050000000003,
            "value": 0.7322834645669292
          },
          {
            "number": 11,
            "time": 223.2300000000003,
            "value": 0.7244094488188977
          },
          {
            "number": 11,
            "time": 223.2550000000003,
            "value": 0.7165354330708661
          },
          {
            "number": 11,
            "time": 223.2800000000003,
            "value": 0.7086614173228346
          },
          {
            "number": 11,
            "time": 223.30000000000032,
            "value": 0.7007874015748031
          },
          {
            "number": 11,
            "time": 223.33000000000033,
            "value": 0.6929133858267716
          },
          {
            "number": 11,
            "time": 223.35500000000033,
            "value": 0.6850393700787402
          },
          {
            "number": 11,
            "time": 223.38000000000034,
            "value": 0.6771653543307087
          },
          {
            "number": 11,
            "time": 223.40500000000034,
            "value": 0.6692913385826772
          },
          {
            "number": 11,
            "time": 223.43500000000034,
            "value": 0.6614173228346457
          },
          {
            "number": 11,
            "time": 223.46000000000035,
            "value": 0.6535433070866141
          },
          {
            "number": 11,
            "time": 223.48000000000036,
            "value": 0.6456692913385826
          },
          {
            "number": 11,
            "time": 223.50500000000036,
            "value": 0.6377952755905512
          },
          {
            "number": 11,
            "time": 223.53500000000037,
            "value": 0.6299212598425197
          },
          {
            "number": 11,
            "time": 223.56000000000037,
            "value": 0.6220472440944882
          },
          {
            "number": 11,
            "time": 223.58500000000038,
            "value": 0.6141732283464567
          },
          {
            "number": 11,
            "time": 223.61000000000038,
            "value": 0.6062992125984252
          },
          {
            "number": 11,
            "time": 223.64000000000038,
            "value": 0.5984251968503937
          },
          {
            "number": 11,
            "time": 223.6600000000004,
            "value": 0.5905511811023622
          },
          {
            "number": 11,
            "time": 223.6850000000004,
            "value": 0.5826771653543307
          },
          {
            "number": 11,
            "time": 223.7100000000004,
            "value": 0.5748031496062992
          },
          {
            "number": 11,
            "time": 223.7350000000004,
            "value": 0.5669291338582677
          },
          {
            "number": 11,
            "time": 223.7650000000004,
            "value": 0.5590551181102362
          },
          {
            "number": 11,
            "time": 223.79000000000042,
            "value": 0.5511811023622047
          },
          {
            "number": 11,
            "time": 223.81000000000043,
            "value": 0.5433070866141733
          },
          {
            "number": 11,
            "time": 223.83500000000043,
            "value": 0.5354330708661418
          },
          {
            "number": 11,
            "time": 223.86500000000044,
            "value": 0.5275590551181102
          },
          {
            "number": 11,
            "time": 223.89000000000044,
            "value": 0.5196850393700787
          },
          {
            "number": 11,
            "time": 223.91500000000045,
            "value": 0.5118110236220472
          },
          {
            "number": 11,
            "time": 223.94000000000045,
            "value": 0.5039370078740157
          },
          {
            "number": 11,
            "time": 223.97000000000045,
            "value": 0.49606299212598426
          },
          {
            "number": 11,
            "time": 223.99000000000046,
            "value": 0.4881889763779528
          },
          {
            "number": 11,
            "time": 224.01500000000047,
            "value": 0.48031496062992124
          },
          {
            "number": 11,
            "time": 224.04000000000048,
            "value": 0.47244094488188976
          },
          {
            "number": 11,
            "time": 224.07000000000048,
            "value": 0.4645669291338583
          },
          {
            "number": 11,
            "time": 224.09500000000048,
            "value": 0.4566929133858268
          },
          {
            "number": 11,
            "time": 224.1200000000005,
            "value": 0.44881889763779526
          },
          {
            "number": 11,
            "time": 224.1400000000005,
            "value": 0.4409448818897638
          },
          {
            "number": 11,
            "time": 224.1700000000005,
            "value": 0.4330708661417323
          },
          {
            "number": 11,
            "time": 224.1950000000005,
            "value": 0.4251968503937008
          },
          {
            "number": 11,
            "time": 224.2200000000005,
            "value": 0.41732283464566927
          },
          {
            "number": 11,
            "time": 224.24500000000052,
            "value": 0.4094488188976378
          },
          {
            "number": 11,
            "time": 224.27000000000052,
            "value": 0.4015748031496063
          },
          {
            "number": 11,
            "time": 224.30000000000052,
            "value": 0.3937007874015748
          },
          {
            "number": 11,
            "time": 224.32000000000053,
            "value": 0.3858267716535433
          },
          {
            "number": 11,
            "time": 224.34500000000054,
            "value": 0.3779527559055118
          },
          {
            "number": 11,
            "time": 224.37000000000054,
            "value": 0.3700787401574803
          },
          {
            "number": 11,
            "time": 224.40000000000055,
            "value": 0.36220472440944884
          },
          {
            "number": 11,
            "time": 224.42500000000055,
            "value": 0.3543307086614173
          },
          {
            "number": 11,
            "time": 224.45000000000056,
            "value": 0.3464566929133858
          },
          {
            "number": 11,
            "time": 224.47000000000057,
            "value": 0.33858267716535434
          },
          {
            "number": 11,
            "time": 224.50000000000057,
            "value": 0.33070866141732286
          },
          {
            "number": 11,
            "time": 224.52500000000057,
            "value": 0.3228346456692913
          },
          {
            "number": 11,
            "time": 224.55000000000058,
            "value": 0.31496062992125984
          },
          {
            "number": 11,
            "time": 224.57500000000059,
            "value": 0.30708661417322836
          },
          {
            "number": 11,
            "time": 224.6050000000006,
            "value": 0.2992125984251969
          },
          {
            "number": 11,
            "time": 224.6300000000006,
            "value": 0.29133858267716534
          },
          {
            "number": 11,
            "time": 224.6500000000006,
            "value": 0.28346456692913385
          },
          {
            "number": 11,
            "time": 224.6750000000006,
            "value": 0.2755905511811024
          },
          {
            "number": 11,
            "time": 224.7000000000006,
            "value": 0.2677165354330709
          },
          {
            "number": 11,
            "time": 224.73000000000062,
            "value": 0.25984251968503935
          },
          {
            "number": 11,
            "time": 224.75500000000062,
            "value": 0.25196850393700787
          },
          {
            "number": 11,
            "time": 224.78000000000063,
            "value": 0.2440944881889764
          },
          {
            "number": 11,
            "time": 224.80000000000064,
            "value": 0.23622047244094488
          },
          {
            "number": 11,
            "time": 224.83000000000064,
            "value": 0.2283464566929134
          },
          {
            "number": 11,
            "time": 224.85500000000064,
            "value": 0.2204724409448819
          },
          {
            "number": 11,
            "time": 224.88000000000065,
            "value": 0.2125984251968504
          },
          {
            "number": 11,
            "time": 224.90500000000065,
            "value": 0.2047244094488189
          },
          {
            "number": 11,
            "time": 224.93500000000066,
            "value": 0.1968503937007874
          },
          {
            "number": 11,
            "time": 224.96000000000066,
            "value": 0.1889763779527559
          },
          {
            "number": 11,
            "time": 224.98000000000067,
            "value": 0.18110236220472442
          },
          {
            "number": 11,
            "time": 225.00500000000068,
            "value": 0.1732283464566929
          },
          {
            "number": 11,
            "time": 225.03500000000068,
            "value": 0.16535433070866143
          },
          {
            "number": 11,
            "time": 225.06000000000068,
            "value": 0.15748031496062992
          },
          {
            "number": 11,
            "time": 225.0850000000007,
            "value": 0.14960629921259844
          },
          {
            "number": 11,
            "time": 225.1100000000007,
            "value": 0.14173228346456693
          },
          {
            "number": 11,
            "time": 225.1300000000007,
            "value": 0.13385826771653545
          },
          {
            "number": 11,
            "time": 225.1600000000007,
            "value": 0.12598425196850394
          },
          {
            "number": 11,
            "time": 225.1850000000007,
            "value": 0.11811023622047244
          },
          {
            "number": 11,
            "time": 225.21000000000072,
            "value": 0.11023622047244094
          },
          {
            "number": 11,
            "time": 225.23500000000072,
            "value": 0.10236220472440945
          },
          {
            "number": 11,
            "time": 225.26500000000073,
            "value": 0.09448818897637795
          },
          {
            "number": 11,
            "time": 225.29000000000073,
            "value": 0.08661417322834646
          },
          {
            "number": 11,
            "time": 225.31000000000074,
            "value": 0.07874015748031496
          },
          {
            "number": 11,
            "time": 225.33500000000075,
            "value": 0.07086614173228346
          },
          {
            "number": 11,
            "time": 225.36500000000075,
            "value": 0.06299212598425197
          },
          {
            "number": 11,
            "time": 225.39000000000075,
            "value": 0.05511811023622047
          },
          {
            "number": 11,
            "time": 225.41500000000076,
            "value": 0.047244094488188976
          },
          {
            "number": 11,
            "time": 225.44000000000077,
            "value": 0.03937007874015748
          },
          {
            "number": 11,
            "time": 225.47000000000077,
            "value": 0.031496062992125984
          },
          {
            "number": 11,
            "time": 225.49000000000078,
            "value": 0.023622047244094488
          },
          {
            "number": 11,
            "time": 225.51500000000078,
            "value": 0.015748031496062992
          },
          {
            "number": 11,
            "time": 225.5400000000008,
            "value": 0.007874015748031496
          },
          {
            "number": 11,
            "time": 225.5650000000008,
            "value": 0
          }
        ],
        "32": [
          {
            "number": 32,
            "time": 0,
            "value": 0.5039370078740157
          }
        ],
        "119": [
          {
            "number": 119,
            "time": 143.955,
            "value": 0.7086614173228346
          },
          {
            "number": 119,
            "time": 144.45000000000002,
            "value": 0.29133858267716534
          },
          {
            "number": 119,
            "time": 144.70000000000002,
            "value": 0
          },
          {
            "number": 119,
            "time": 144.95000000000002,
            "value": 0.2440944881889764
          },
          {
            "number": 119,
            "time": 145.44500000000002,
            "value": 0.7559055118110236
          },
          {
            "number": 119,
            "time": 145.69500000000002,
            "value": 0
          },
          {
            "number": 119,
            "time": 145.94500000000002,
            "value": 0.7795275590551181
          },
          {
            "number": 119,
            "time": 146.44000000000003,
            "value": 0.2204724409448819
          },
          {
            "number": 119,
            "time": 146.69000000000003,
            "value": 0
          },
          {
            "number": 119,
            "time": 146.94000000000003,
            "value": 0.33858267716535434
          },
          {
            "number": 119,
            "time": 147.43500000000003,
            "value": 0.6614173228346457
          },
          {
            "number": 119,
            "time": 147.68500000000003,
            "value": 0
          },
          {
            "number": 119,
            "time": 147.93500000000003,
            "value": 0.023622047244094488
          },
          {
            "number": 119,
            "time": 148.32500000000002,
            "value": 0.9763779527559056
          },
          {
            "number": 119,
            "time": 148.52,
            "value": 0
          },
          {
            "number": 119,
            "time": 148.72,
            "value": 0.6535433070866141
          },
          {
            "number": 119,
            "time": 149.215,
            "value": 0.3464566929133858
          },
          {
            "number": 119,
            "time": 149.465,
            "value": 0
          },
          {
            "number": 119,
            "time": 149.715,
            "value": 0.14960629921259844
          },
          {
            "number": 119,
            "time": 150.21,
            "value": 0.8503937007874016
          },
          {
            "number": 119,
            "time": 150.46,
            "value": 0
          },
          {
            "number": 119,
            "time": 150.71,
            "value": 0.7559055118110236
          },
          {
            "number": 119,
            "time": 151.205,
            "value": 0.2440944881889764
          },
          {
            "number": 119,
            "time": 151.455,
            "value": 0
          },
          {
            "number": 119,
            "time": 151.705,
            "value": 0.8740157480314961
          },
          {
            "number": 119,
            "time": 152.20000000000002,
            "value": 0.12598425196850394
          },
          {
            "number": 119,
            "time": 152.45000000000002,
            "value": 0
          },
          {
            "number": 119,
            "time": 152.70000000000002,
            "value": 0.23622047244094488
          },
          {
            "number": 119,
            "time": 153.11,
            "value": 0.7637795275590551
          },
          {
            "number": 119,
            "time": 153.31500000000003,
            "value": 0
          },
          {
            "number": 119,
            "time": 153.52500000000003,
            "value": 0.07874015748031496
          },
          {
            "number": 119,
            "time": 154.02000000000004,
            "value": 0.9212598425196851
          },
          {
            "number": 119,
            "time": 154.27000000000004,
            "value": 0
          },
          {
            "number": 119,
            "time": 154.52000000000004,
            "value": 1
          },
          {
            "number": 119,
            "time": 155.01500000000004,
            "value": 0
          },
          {
            "number": 119,
            "time": 155.26500000000004,
            "value": 0
          },
          {
            "number": 119,
            "time": 155.51500000000004,
            "value": 0.5748031496062992
          },
          {
            "number": 119,
            "time": 156.01000000000005,
            "value": 0.4251968503937008
          },
          {
            "number": 119,
            "time": 156.26000000000005,
            "value": 0
          },
          {
            "number": 119,
            "time": 156.51000000000005,
            "value": 0.2125984251968504
          },
          {
            "number": 119,
            "time": 157.00500000000005,
            "value": 0.7874015748031497
          },
          {
            "number": 119,
            "time": 157.25500000000005,
            "value": 0
          },
          {
            "number": 119,
            "time": 157.50500000000005,
            "value": 0.7322834645669292
          },
          {
            "number": 119,
            "time": 157.89500000000004,
            "value": 0.2677165354330709
          },
          {
            "number": 119,
            "time": 158.09000000000003,
            "value": 0
          },
          {
            "number": 119,
            "time": 158.35500000000002,
            "value": 0.2283464566929134
          },
          {
            "number": 119,
            "time": 158.85000000000002,
            "value": 0.7716535433070866
          },
          {
            "number": 119,
            "time": 159.10000000000002,
            "value": 0
          },
          {
            "number": 119,
            "time": 159.35000000000002,
            "value": 0.7874015748031497
          },
          {
            "number": 119,
            "time": 159.84500000000003,
            "value": 0.2125984251968504
          },
          {
            "number": 119,
            "time": 160.09500000000003,
            "value": 0
          },
          {
            "number": 119,
            "time": 160.34500000000003,
            "value": 0.36220472440944884
          },
          {
            "number": 119,
            "time": 160.84000000000003,
            "value": 0.6377952755905512
          },
          {
            "number": 119,
            "time": 161.09000000000003,
            "value": 0
          },
          {
            "number": 119,
            "time": 161.34000000000003,
            "value": 0.023622047244094488
          },
          {
            "number": 119,
            "time": 161.83500000000004,
            "value": 0.9763779527559056
          },
          {
            "number": 119,
            "time": 162.08500000000004,
            "value": 0
          },
          {
            "number": 119,
            "time": 162.33500000000004,
            "value": 0.9448818897637795
          },
          {
            "number": 119,
            "time": 162.72500000000002,
            "value": 0.05511811023622047
          },
          {
            "number": 119,
            "time": 162.92000000000002,
            "value": 0
          },
          {
            "number": 119,
            "time": 163.12,
            "value": 0.5826771653543307
          },
          {
            "number": 119,
            "time": 163.615,
            "value": 0.41732283464566927
          },
          {
            "number": 119,
            "time": 163.865,
            "value": 0
          },
          {
            "number": 119,
            "time": 164.115,
            "value": 0.07874015748031496
          },
          {
            "number": 119,
            "time": 164.61,
            "value": 0.9212598425196851
          },
          {
            "number": 119,
            "time": 164.86,
            "value": 0
          },
          {
            "number": 119,
            "time": 165.11,
            "value": 0.7952755905511811
          },
          {
            "number": 119,
            "time": 165.60500000000002,
            "value": 0.2047244094488189
          },
          {
            "number": 119,
            "time": 165.85500000000002,
            "value": 0
          },
          {
            "number": 119,
            "time": 166.10500000000002,
            "value": 0.3464566929133858
          },
          {
            "number": 119,
            "time": 166.60000000000002,
            "value": 0.6535433070866141
          },
          {
            "number": 119,
            "time": 166.85000000000002,
            "value": 0
          },
          {
            "number": 119,
            "time": 167.10000000000002,
            "value": 0.9212598425196851
          },
          {
            "number": 119,
            "time": 167.59500000000003,
            "value": 0.07874015748031496
          },
          {
            "number": 119,
            "time": 167.84500000000003,
            "value": 0
          },
          {
            "number": 119,
            "time": 168.09500000000003,
            "value": 0.5039370078740157
          },
          {
            "number": 119,
            "time": 168.59000000000003,
            "value": 0.49606299212598426
          },
          {
            "number": 119,
            "time": 168.84000000000003,
            "value": 0
          },
          {
            "number": 119,
            "time": 169.09000000000003,
            "value": 0.937007874015748
          },
          {
            "number": 119,
            "time": 169.58500000000004,
            "value": 0.06299212598425197
          },
          {
            "number": 119,
            "time": 169.83500000000004,
            "value": 0
          },
          {
            "number": 119,
            "time": 170.08500000000004,
            "value": 0.015748031496062992
          },
          {
            "number": 119,
            "time": 170.58000000000004,
            "value": 0.984251968503937
          },
          {
            "number": 119,
            "time": 170.83000000000004,
            "value": 0
          },
          {
            "number": 119,
            "time": 171.08000000000004,
            "value": 0.7716535433070866
          },
          {
            "number": 119,
            "time": 171.57500000000005,
            "value": 0.2283464566929134
          },
          {
            "number": 119,
            "time": 171.82500000000005,
            "value": 0
          },
          {
            "number": 119,
            "time": 172.07500000000005,
            "value": 0.6456692913385826
          },
          {
            "number": 119,
            "time": 172.57000000000005,
            "value": 0.3543307086614173
          },
          {
            "number": 119,
            "time": 172.82000000000005,
            "value": 0
          },
          {
            "number": 119,
            "time": 173.07000000000005,
            "value": 0.5905511811023622
          },
          {
            "number": 119,
            "time": 173.56500000000005,
            "value": 0.4094488188976378
          },
          {
            "number": 119,
            "time": 173.81500000000005,
            "value": 0
          },
          {
            "number": 119,
            "time": 174.06500000000005,
            "value": 0.29133858267716534
          },
          {
            "number": 119,
            "time": 174.56000000000006,
            "value": 0.7086614173228346
          },
          {
            "number": 119,
            "time": 174.81000000000006,
            "value": 0
          },
          {
            "number": 119,
            "time": 175.06000000000006,
            "value": 0.015748031496062992
          },
          {
            "number": 119,
            "time": 175.55500000000006,
            "value": 0.984251968503937
          },
          {
            "number": 119,
            "time": 175.80500000000006,
            "value": 0
          },
          {
            "number": 119,
            "time": 176.05500000000006,
            "value": 0.5196850393700787
          },
          {
            "number": 119,
            "time": 176.55000000000007,
            "value": 0.48031496062992124
          },
          {
            "number": 119,
            "time": 176.80000000000007,
            "value": 0
          },
          {
            "number": 119,
            "time": 177.05000000000007,
            "value": 0.49606299212598426
          },
          {
            "number": 119,
            "time": 177.54500000000007,
            "value": 0.5039370078740157
          },
          {
            "number": 119,
            "time": 177.79500000000007,
            "value": 0
          },
          {
            "number": 119,
            "time": 178.04500000000007,
            "value": 0.49606299212598426
          },
          {
            "number": 119,
            "time": 178.54000000000008,
            "value": 0.5039370078740157
          },
          {
            "number": 119,
            "time": 178.79000000000008,
            "value": 0
          },
          {
            "number": 119,
            "time": 179.04000000000008,
            "value": 0.2047244094488189
          },
          {
            "number": 119,
            "time": 179.53500000000008,
            "value": 0.7952755905511811
          },
          {
            "number": 119,
            "time": 179.78500000000008,
            "value": 0
          },
          {
            "number": 119,
            "time": 180.03500000000008,
            "value": 0.8031496062992126
          },
          {
            "number": 119,
            "time": 180.5300000000001,
            "value": 0.1968503937007874
          },
          {
            "number": 119,
            "time": 180.7800000000001,
            "value": 0
          },
          {
            "number": 119,
            "time": 181.0300000000001,
            "value": 0.3700787401574803
          },
          {
            "number": 119,
            "time": 181.5250000000001,
            "value": 0.6299212598425197
          },
          {
            "number": 119,
            "time": 181.7750000000001,
            "value": 0
          },
          {
            "number": 119,
            "time": 182.0250000000001,
            "value": 0.9212598425196851
          },
          {
            "number": 119,
            "time": 182.5200000000001,
            "value": 0.07874015748031496
          },
          {
            "number": 119,
            "time": 182.7700000000001,
            "value": 0
          },
          {
            "number": 119,
            "time": 183.0200000000001,
            "value": 0.4251968503937008
          },
          {
            "number": 119,
            "time": 183.5150000000001,
            "value": 0.5748031496062992
          },
          {
            "number": 119,
            "time": 183.7650000000001,
            "value": 0
          },
          {
            "number": 119,
            "time": 184.0150000000001,
            "value": 0.08661417322834646
          },
          {
            "number": 119,
            "time": 184.5100000000001,
            "value": 0.9133858267716536
          },
          {
            "number": 119,
            "time": 184.7600000000001,
            "value": 0
          },
          {
            "number": 119,
            "time": 185.0100000000001,
            "value": 0.7086614173228346
          },
          {
            "number": 119,
            "time": 185.5050000000001,
            "value": 0.29133858267716534
          },
          {
            "number": 119,
            "time": 185.7550000000001,
            "value": 0
          },
          {
            "number": 119,
            "time": 186.0050000000001,
            "value": 0.2440944881889764
          },
          {
            "number": 119,
            "time": 186.5000000000001,
            "value": 0.7559055118110236
          },
          {
            "number": 119,
            "time": 186.7500000000001,
            "value": 0
          },
          {
            "number": 119,
            "time": 187.0000000000001,
            "value": 0.8110236220472441
          },
          {
            "number": 119,
            "time": 187.49500000000012,
            "value": 0.1889763779527559
          },
          {
            "number": 119,
            "time": 187.74500000000012,
            "value": 0
          },
          {
            "number": 119,
            "time": 187.99500000000012,
            "value": 0.5275590551181102
          },
          {
            "number": 119,
            "time": 188.49000000000012,
            "value": 0.47244094488188976
          },
          {
            "number": 119,
            "time": 188.74000000000012,
            "value": 0
          }
        ]
      },
      "id": 6,
      "name": "www.singlouder.com",
      "instrumentNumber": 89,
      "instrument": "pad 2 (warm)",
      "instrumentFamily": "synth pad",
      "channelNumber": 4,
      "isPercussion": false
    },
    {
      "startTime": 167.99999999999997,
      "duration": 218.39999999999176,
      "length": 413,
      "notes": [
        {
          "name": "A3",
          "midi": 57,
          "time": 167.99999999999997,
          "velocity": 0.6771653543307087,
          "duration": 0.29999999999998295
        },
        {
          "name": "F2",
          "midi": 41,
          "time": 168.00499999999997,
          "velocity": 0.6771653543307087,
          "duration": 0.3049999999999784
        },
        {
          "name": "A3",
          "midi": 57,
          "time": 168.29999999999995,
          "velocity": 0.6771653543307087,
          "duration": 0.29999999999998295
        },
        {
          "name": "F2",
          "midi": 41,
          "time": 168.29999999999995,
          "velocity": 0.6771653543307087,
          "duration": 0.3049999999999784
        },
        {
          "name": "A#3",
          "midi": 58,
          "time": 168.59999999999994,
          "velocity": 0.6771653543307087,
          "duration": 0.30499999999977945
        },
        {
          "name": "F2",
          "midi": 41,
          "time": 168.59999999999994,
          "velocity": 0.6771653543307087,
          "duration": 0.30499999999977945
        },
        {
          "name": "A3",
          "midi": 57,
          "time": 168.89999999999972,
          "velocity": 0.6771653543307087,
          "duration": 0.3049999999999784
        },
        {
          "name": "F2",
          "midi": 41,
          "time": 168.89999999999972,
          "velocity": 0.6771653543307087,
          "duration": 0.3049999999999784
        },
        {
          "name": "A3",
          "midi": 57,
          "time": 169.1999999999997,
          "velocity": 0.6771653543307087,
          "duration": 0.29999999999998295
        },
        {
          "name": "F2",
          "midi": 41,
          "time": 169.2049999999997,
          "velocity": 0.6771653543307087,
          "duration": 0.3049999999999784
        },
        {
          "name": "A3",
          "midi": 57,
          "time": 169.4999999999997,
          "velocity": 0.6771653543307087,
          "duration": 0.29999999999998295
        },
        {
          "name": "F2",
          "midi": 41,
          "time": 169.4999999999997,
          "velocity": 0.6771653543307087,
          "duration": 0.3049999999999784
        },
        {
          "name": "A#3",
          "midi": 58,
          "time": 169.79999999999967,
          "velocity": 0.6771653543307087,
          "duration": 0.304999999999751
        },
        {
          "name": "F2",
          "midi": 41,
          "time": 169.79999999999967,
          "velocity": 0.6771653543307087,
          "duration": 0.304999999999751
        },
        {
          "name": "A3",
          "midi": 57,
          "time": 170.09999999999943,
          "velocity": 0.6771653543307087,
          "duration": 0.3049999999999784
        },
        {
          "name": "F2",
          "midi": 41,
          "time": 170.09999999999943,
          "velocity": 0.6771653543307087,
          "duration": 0.3049999999999784
        },
        {
          "name": "D4",
          "midi": 62,
          "time": 170.3999999999994,
          "velocity": 0.6062992125984252,
          "duration": 0.3049999999999784
        },
        {
          "name": "A#3",
          "midi": 58,
          "time": 170.3999999999994,
          "velocity": 0.6062992125984252,
          "duration": 0.3049999999999784
        },
        {
          "name": "D3",
          "midi": 50,
          "time": 170.3999999999994,
          "velocity": 0.6062992125984252,
          "duration": 0.3049999999999784
        },
        {
          "name": "A#2",
          "midi": 46,
          "time": 170.3999999999994,
          "velocity": 0.6062992125984252,
          "duration": 0.3049999999999784
        },
        {
          "name": "D4",
          "midi": 62,
          "time": 170.6999999999994,
          "velocity": 0.5748031496062992,
          "duration": 0.30499999999995
        },
        {
          "name": "A#3",
          "midi": 58,
          "time": 170.6999999999994,
          "velocity": 0.5748031496062992,
          "duration": 0.30499999999995
        },
        {
          "name": "D3",
          "midi": 50,
          "time": 170.6999999999994,
          "velocity": 0.5748031496062992,
          "duration": 0.30499999999995
        },
        {
          "name": "A#2",
          "midi": 46,
          "time": 170.6999999999994,
          "velocity": 0.5748031496062992,
          "duration": 0.30499999999995
        },
        {
          "name": "D4",
          "midi": 62,
          "time": 170.99999999999935,
          "velocity": 0.5354330708661418,
          "duration": 0.3049999999998363
        },
        {
          "name": "A#3",
          "midi": 58,
          "time": 170.99999999999935,
          "velocity": 0.5354330708661418,
          "duration": 0.3049999999998363
        },
        {
          "name": "D3",
          "midi": 50,
          "time": 170.99999999999935,
          "velocity": 0.5354330708661418,
          "duration": 0.3049999999998363
        },
        {
          "name": "A#2",
          "midi": 46,
          "time": 170.99999999999935,
          "velocity": 0.5354330708661418,
          "duration": 0.3049999999998363
        },
        {
          "name": "F3",
          "midi": 53,
          "time": 171.2999999999992,
          "velocity": 0.48031496062992124,
          "duration": 0.5999999999999943
        },
        {
          "name": "C3",
          "midi": 48,
          "time": 171.2999999999992,
          "velocity": 0.48031496062992124,
          "duration": 0.5999999999999943
        },
        {
          "name": "C4",
          "midi": 60,
          "time": 171.2999999999992,
          "velocity": 0.48031496062992124,
          "duration": 0.5999999999999943
        },
        {
          "name": "C3",
          "midi": 48,
          "time": 171.89999999999918,
          "velocity": 0.5196850393700787,
          "duration": 0.30499999999995
        },
        {
          "name": "F3",
          "midi": 53,
          "time": 171.89999999999918,
          "velocity": 0.5196850393700787,
          "duration": 0.30499999999995
        },
        {
          "name": "C4",
          "midi": 60,
          "time": 171.89999999999918,
          "velocity": 0.5196850393700787,
          "duration": 0.30499999999995
        },
        {
          "name": "D#4",
          "midi": 63,
          "time": 172.19999999999914,
          "velocity": 0.5196850393700787,
          "duration": 0.3049999999998363
        },
        {
          "name": "C4",
          "midi": 60,
          "time": 172.19999999999914,
          "velocity": 0.5196850393700787,
          "duration": 0.3049999999998363
        },
        {
          "name": "D#3",
          "midi": 51,
          "time": 172.19999999999914,
          "velocity": 0.5196850393700787,
          "duration": 0.3049999999998363
        },
        {
          "name": "C3",
          "midi": 48,
          "time": 172.19999999999914,
          "velocity": 0.5196850393700787,
          "duration": 0.3049999999998363
        },
        {
          "name": "D4",
          "midi": 62,
          "time": 172.49999999999898,
          "velocity": 0.5196850393700787,
          "duration": 0.3049999999999784
        },
        {
          "name": "A#3",
          "midi": 58,
          "time": 172.49999999999898,
          "velocity": 0.5196850393700787,
          "duration": 0.3049999999999784
        },
        {
          "name": "D3",
          "midi": 50,
          "time": 172.49999999999898,
          "velocity": 0.5196850393700787,
          "duration": 0.3049999999999784
        },
        {
          "name": "A#2",
          "midi": 46,
          "time": 172.49999999999898,
          "velocity": 0.5196850393700787,
          "duration": 0.3049999999999784
        },
        {
          "name": "A3",
          "midi": 57,
          "time": 172.79999999999896,
          "velocity": 0.6771653543307087,
          "duration": 0.29999999999998295
        },
        {
          "name": "F2",
          "midi": 41,
          "time": 172.80499999999896,
          "velocity": 0.6771653543307087,
          "duration": 0.3049999999999784
        },
        {
          "name": "C3",
          "midi": 48,
          "time": 172.80499999999896,
          "velocity": 0.6771653543307087,
          "duration": 0.3049999999999784
        },
        {
          "name": "A3",
          "midi": 57,
          "time": 173.09999999999894,
          "velocity": 0.6771653543307087,
          "duration": 0.29999999999998295
        },
        {
          "name": "F2",
          "midi": 41,
          "time": 173.09999999999894,
          "velocity": 0.6771653543307087,
          "duration": 0.3049999999999784
        },
        {
          "name": "C3",
          "midi": 48,
          "time": 173.09999999999894,
          "velocity": 0.6771653543307087,
          "duration": 0.3049999999999784
        },
        {
          "name": "C3",
          "midi": 48,
          "time": 173.39999999999893,
          "velocity": 0.6771653543307087,
          "duration": 0.30499999999977945
        },
        {
          "name": "A#3",
          "midi": 58,
          "time": 173.39999999999893,
          "velocity": 0.6771653543307087,
          "duration": 0.30499999999977945
        },
        {
          "name": "F2",
          "midi": 41,
          "time": 173.39999999999893,
          "velocity": 0.6771653543307087,
          "duration": 0.30499999999977945
        },
        {
          "name": "A3",
          "midi": 57,
          "time": 173.6999999999987,
          "velocity": 0.6771653543307087,
          "duration": 0.3049999999999784
        },
        {
          "name": "C3",
          "midi": 48,
          "time": 173.6999999999987,
          "velocity": 0.6771653543307087,
          "duration": 0.3049999999999784
        },
        {
          "name": "F2",
          "midi": 41,
          "time": 173.6999999999987,
          "velocity": 0.6771653543307087,
          "duration": 0.3049999999999784
        },
        {
          "name": "A3",
          "midi": 57,
          "time": 173.9999999999987,
          "velocity": 0.6771653543307087,
          "duration": 0.29999999999998295
        },
        {
          "name": "F2",
          "midi": 41,
          "time": 174.0049999999987,
          "velocity": 0.6771653543307087,
          "duration": 0.3049999999999784
        },
        {
          "name": "C3",
          "midi": 48,
          "time": 174.0049999999987,
          "velocity": 0.6771653543307087,
          "duration": 0.3049999999999784
        },
        {
          "name": "A3",
          "midi": 57,
          "time": 174.29999999999868,
          "velocity": 0.6771653543307087,
          "duration": 0.29999999999998295
        },
        {
          "name": "C3",
          "midi": 48,
          "time": 174.29999999999868,
          "velocity": 0.6771653543307087,
          "duration": 0.3049999999999784
        },
        {
          "name": "F2",
          "midi": 41,
          "time": 174.29999999999868,
          "velocity": 0.6771653543307087,
          "duration": 0.3049999999999784
        },
        {
          "name": "F2",
          "midi": 41,
          "time": 174.59999999999866,
          "velocity": 0.6771653543307087,
          "duration": 0.304999999999751
        },
        {
          "name": "C3",
          "midi": 48,
          "time": 174.59999999999866,
          "velocity": 0.6771653543307087,
          "duration": 0.304999999999751
        },
        {
          "name": "A#3",
          "midi": 58,
          "time": 174.59999999999866,
          "velocity": 0.6771653543307087,
          "duration": 0.304999999999751
        },
        {
          "name": "F2",
          "midi": 41,
          "time": 174.8999999999984,
          "velocity": 0.6771653543307087,
          "duration": 0.3049999999999784
        },
        {
          "name": "A3",
          "midi": 57,
          "time": 174.8999999999984,
          "velocity": 0.6771653543307087,
          "duration": 0.3049999999999784
        },
        {
          "name": "C3",
          "midi": 48,
          "time": 174.8999999999984,
          "velocity": 0.6771653543307087,
          "duration": 0.3049999999999784
        },
        {
          "name": "A3",
          "midi": 57,
          "time": 175.1999999999984,
          "velocity": 0.6771653543307087,
          "duration": 0.29999999999998295
        },
        {
          "name": "C3",
          "midi": 48,
          "time": 175.2049999999984,
          "velocity": 0.6771653543307087,
          "duration": 0.3049999999999784
        },
        {
          "name": "F2",
          "midi": 41,
          "time": 175.2049999999984,
          "velocity": 0.6771653543307087,
          "duration": 0.3049999999999784
        },
        {
          "name": "F2",
          "midi": 41,
          "time": 175.49999999999838,
          "velocity": 0.6771653543307087,
          "duration": 0.3049999999999784
        },
        {
          "name": "A3",
          "midi": 57,
          "time": 175.49999999999838,
          "velocity": 0.6771653543307087,
          "duration": 0.29999999999998295
        },
        {
          "name": "C3",
          "midi": 48,
          "time": 175.49999999999838,
          "velocity": 0.6771653543307087,
          "duration": 0.3049999999999784
        },
        {
          "name": "F2",
          "midi": 41,
          "time": 175.79999999999836,
          "velocity": 0.6771653543307087,
          "duration": 0.30499999999977945
        },
        {
          "name": "C3",
          "midi": 48,
          "time": 175.79999999999836,
          "velocity": 0.6771653543307087,
          "duration": 0.30499999999977945
        },
        {
          "name": "A#3",
          "midi": 58,
          "time": 175.79999999999836,
          "velocity": 0.6771653543307087,
          "duration": 0.30499999999977945
        },
        {
          "name": "A3",
          "midi": 57,
          "time": 176.09999999999815,
          "velocity": 0.6771653543307087,
          "duration": 0.3049999999999784
        },
        {
          "name": "F2",
          "midi": 41,
          "time": 176.09999999999815,
          "velocity": 0.6771653543307087,
          "duration": 0.3049999999999784
        },
        {
          "name": "C3",
          "midi": 48,
          "time": 176.09999999999815,
          "velocity": 0.6771653543307087,
          "duration": 0.3049999999999784
        },
        {
          "name": "A3",
          "midi": 57,
          "time": 176.39999999999813,
          "velocity": 0.6771653543307087,
          "duration": 0.29999999999998295
        },
        {
          "name": "C3",
          "midi": 48,
          "time": 176.40499999999813,
          "velocity": 0.6771653543307087,
          "duration": 0.3049999999999784
        },
        {
          "name": "F2",
          "midi": 41,
          "time": 176.40499999999813,
          "velocity": 0.6771653543307087,
          "duration": 0.3049999999999784
        },
        {
          "name": "A3",
          "midi": 57,
          "time": 176.6999999999981,
          "velocity": 0.6771653543307087,
          "duration": 0.29999999999998295
        },
        {
          "name": "F2",
          "midi": 41,
          "time": 176.6999999999981,
          "velocity": 0.6771653543307087,
          "duration": 0.3049999999999784
        },
        {
          "name": "C3",
          "midi": 48,
          "time": 176.6999999999981,
          "velocity": 0.6771653543307087,
          "duration": 0.3049999999999784
        },
        {
          "name": "A#3",
          "midi": 58,
          "time": 176.9999999999981,
          "velocity": 0.6771653543307087,
          "duration": 0.304999999999751
        },
        {
          "name": "C3",
          "midi": 48,
          "time": 176.9999999999981,
          "velocity": 0.6771653543307087,
          "duration": 0.304999999999751
        },
        {
          "name": "F2",
          "midi": 41,
          "time": 176.9999999999981,
          "velocity": 0.6771653543307087,
          "duration": 0.304999999999751
        },
        {
          "name": "F2",
          "midi": 41,
          "time": 177.29999999999785,
          "velocity": 0.6771653543307087,
          "duration": 0.3049999999999784
        },
        {
          "name": "A3",
          "midi": 57,
          "time": 177.29999999999785,
          "velocity": 0.6771653543307087,
          "duration": 0.3049999999999784
        },
        {
          "name": "C3",
          "midi": 48,
          "time": 177.29999999999785,
          "velocity": 0.6771653543307087,
          "duration": 0.3049999999999784
        },
        {
          "name": "A2",
          "midi": 45,
          "time": 177.59999999999783,
          "velocity": 0.6771653543307087,
          "duration": 0.3049999999999784
        },
        {
          "name": "D3",
          "midi": 50,
          "time": 177.60499999999783,
          "velocity": 0.6771653543307087,
          "duration": 0.3049999999999784
        },
        {
          "name": "A2",
          "midi": 45,
          "time": 177.89999999999782,
          "velocity": 0.6771653543307087,
          "duration": 0.3049999999999784
        },
        {
          "name": "D3",
          "midi": 50,
          "time": 177.89999999999782,
          "velocity": 0.6771653543307087,
          "duration": 0.3049999999999784
        },
        {
          "name": "A2",
          "midi": 45,
          "time": 178.1999999999978,
          "velocity": 0.6771653543307087,
          "duration": 0.3049999999999784
        },
        {
          "name": "D3",
          "midi": 50,
          "time": 178.2049999999978,
          "velocity": 0.6771653543307087,
          "duration": 0.3049999999999784
        },
        {
          "name": "D3",
          "midi": 50,
          "time": 178.49999999999778,
          "velocity": 0.6771653543307087,
          "duration": 0.3049999999999784
        },
        {
          "name": "A2",
          "midi": 45,
          "time": 178.49999999999778,
          "velocity": 0.6771653543307087,
          "duration": 0.3049999999999784
        },
        {
          "name": "A2",
          "midi": 45,
          "time": 178.79999999999777,
          "velocity": 0.6771653543307087,
          "duration": 0.3049999999999784
        },
        {
          "name": "D3",
          "midi": 50,
          "time": 178.80499999999776,
          "velocity": 0.6771653543307087,
          "duration": 0.3049999999999784
        },
        {
          "name": "A2",
          "midi": 45,
          "time": 179.09999999999775,
          "velocity": 0.6771653543307087,
          "duration": 0.3049999999999784
        },
        {
          "name": "D3",
          "midi": 50,
          "time": 179.09999999999775,
          "velocity": 0.6771653543307087,
          "duration": 0.3049999999999784
        },
        {
          "name": "A2",
          "midi": 45,
          "time": 179.39999999999773,
          "velocity": 0.6771653543307087,
          "duration": 0.3049999999999784
        },
        {
          "name": "D3",
          "midi": 50,
          "time": 179.40499999999773,
          "velocity": 0.6771653543307087,
          "duration": 0.3049999999999784
        },
        {
          "name": "D3",
          "midi": 50,
          "time": 179.69999999999771,
          "velocity": 0.6771653543307087,
          "duration": 0.3049999999999784
        },
        {
          "name": "A2",
          "midi": 45,
          "time": 179.69999999999771,
          "velocity": 0.6771653543307087,
          "duration": 0.3049999999999784
        },
        {
          "name": "F3",
          "midi": 53,
          "time": 179.9999999999977,
          "velocity": 0.6771653543307087,
          "duration": 0.3049999999999784
        },
        {
          "name": "A#2",
          "midi": 46,
          "time": 179.9999999999977,
          "velocity": 0.6771653543307087,
          "duration": 0.3049999999999784
        },
        {
          "name": "A#2",
          "midi": 46,
          "time": 180.29999999999768,
          "velocity": 0.6771653543307087,
          "duration": 0.3049999999999784
        },
        {
          "name": "F3",
          "midi": 53,
          "time": 180.29999999999768,
          "velocity": 0.6771653543307087,
          "duration": 0.3049999999999784
        },
        {
          "name": "F3",
          "midi": 53,
          "time": 180.59999999999766,
          "velocity": 0.6771653543307087,
          "duration": 0.3049999999999784
        },
        {
          "name": "A#2",
          "midi": 46,
          "time": 180.59999999999766,
          "velocity": 0.6771653543307087,
          "duration": 0.3049999999999784
        },
        {
          "name": "A#2",
          "midi": 46,
          "time": 180.89999999999765,
          "velocity": 0.6771653543307087,
          "duration": 0.3049999999999784
        },
        {
          "name": "F3",
          "midi": 53,
          "time": 180.89999999999765,
          "velocity": 0.6771653543307087,
          "duration": 0.3049999999999784
        },
        {
          "name": "F3",
          "midi": 53,
          "time": 181.19999999999763,
          "velocity": 0.6771653543307087,
          "duration": 0.3049999999999784
        },
        {
          "name": "A#2",
          "midi": 46,
          "time": 181.19999999999763,
          "velocity": 0.6771653543307087,
          "duration": 0.3049999999999784
        },
        {
          "name": "A#2",
          "midi": 46,
          "time": 181.4999999999976,
          "velocity": 0.6771653543307087,
          "duration": 0.3049999999999784
        },
        {
          "name": "F3",
          "midi": 53,
          "time": 181.4999999999976,
          "velocity": 0.6771653543307087,
          "duration": 0.3049999999999784
        },
        {
          "name": "A#2",
          "midi": 46,
          "time": 181.7999999999976,
          "velocity": 0.6771653543307087,
          "duration": 0.3049999999999784
        },
        {
          "name": "F3",
          "midi": 53,
          "time": 181.7999999999976,
          "velocity": 0.6771653543307087,
          "duration": 0.3049999999999784
        },
        {
          "name": "F3",
          "midi": 53,
          "time": 182.09999999999758,
          "velocity": 0.6771653543307087,
          "duration": 0.3049999999999784
        },
        {
          "name": "A#2",
          "midi": 46,
          "time": 182.09999999999758,
          "velocity": 0.6771653543307087,
          "duration": 0.3049999999999784
        },
        {
          "name": "A3",
          "midi": 57,
          "time": 182.39999999999756,
          "velocity": 0.6771653543307087,
          "duration": 0.29999999999998295
        },
        {
          "name": "F2",
          "midi": 41,
          "time": 182.40499999999756,
          "velocity": 0.6771653543307087,
          "duration": 0.3049999999999784
        },
        {
          "name": "C3",
          "midi": 48,
          "time": 182.40499999999756,
          "velocity": 0.6771653543307087,
          "duration": 0.3049999999999784
        },
        {
          "name": "C3",
          "midi": 48,
          "time": 182.69999999999754,
          "velocity": 0.6771653543307087,
          "duration": 0.3049999999999784
        },
        {
          "name": "F2",
          "midi": 41,
          "time": 182.69999999999754,
          "velocity": 0.6771653543307087,
          "duration": 0.3049999999999784
        },
        {
          "name": "A3",
          "midi": 57,
          "time": 182.69999999999754,
          "velocity": 0.6771653543307087,
          "duration": 0.29999999999998295
        },
        {
          "name": "C3",
          "midi": 48,
          "time": 182.99999999999753,
          "velocity": 0.6771653543307087,
          "duration": 0.30499999999977945
        },
        {
          "name": "A#3",
          "midi": 58,
          "time": 182.99999999999753,
          "velocity": 0.6771653543307087,
          "duration": 0.30499999999977945
        },
        {
          "name": "F2",
          "midi": 41,
          "time": 182.99999999999753,
          "velocity": 0.6771653543307087,
          "duration": 0.30499999999977945
        },
        {
          "name": "F2",
          "midi": 41,
          "time": 183.2999999999973,
          "velocity": 0.6771653543307087,
          "duration": 0.3049999999999784
        },
        {
          "name": "C3",
          "midi": 48,
          "time": 183.2999999999973,
          "velocity": 0.6771653543307087,
          "duration": 0.3049999999999784
        },
        {
          "name": "A3",
          "midi": 57,
          "time": 183.2999999999973,
          "velocity": 0.6771653543307087,
          "duration": 0.3049999999999784
        },
        {
          "name": "A3",
          "midi": 57,
          "time": 183.5999999999973,
          "velocity": 0.6771653543307087,
          "duration": 0.29999999999998295
        },
        {
          "name": "F2",
          "midi": 41,
          "time": 183.6049999999973,
          "velocity": 0.6771653543307087,
          "duration": 0.3049999999999784
        },
        {
          "name": "C3",
          "midi": 48,
          "time": 183.6049999999973,
          "velocity": 0.6771653543307087,
          "duration": 0.3049999999999784
        },
        {
          "name": "F2",
          "midi": 41,
          "time": 183.89999999999728,
          "velocity": 0.6771653543307087,
          "duration": 0.3049999999999784
        },
        {
          "name": "C3",
          "midi": 48,
          "time": 183.89999999999728,
          "velocity": 0.6771653543307087,
          "duration": 0.3049999999999784
        },
        {
          "name": "A3",
          "midi": 57,
          "time": 183.89999999999728,
          "velocity": 0.6771653543307087,
          "duration": 0.29999999999998295
        },
        {
          "name": "A#3",
          "midi": 58,
          "time": 184.19999999999726,
          "velocity": 0.6771653543307087,
          "duration": 0.304999999999751
        },
        {
          "name": "C3",
          "midi": 48,
          "time": 184.19999999999726,
          "velocity": 0.6771653543307087,
          "duration": 0.304999999999751
        },
        {
          "name": "F2",
          "midi": 41,
          "time": 184.19999999999726,
          "velocity": 0.6771653543307087,
          "duration": 0.304999999999751
        },
        {
          "name": "F2",
          "midi": 41,
          "time": 184.49999999999702,
          "velocity": 0.6771653543307087,
          "duration": 0.3049999999999784
        },
        {
          "name": "A3",
          "midi": 57,
          "time": 184.49999999999702,
          "velocity": 0.6771653543307087,
          "duration": 0.3049999999999784
        },
        {
          "name": "C3",
          "midi": 48,
          "time": 184.49999999999702,
          "velocity": 0.6771653543307087,
          "duration": 0.3049999999999784
        },
        {
          "name": "A3",
          "midi": 57,
          "time": 184.799999999997,
          "velocity": 0.6771653543307087,
          "duration": 0.29999999999998295
        },
        {
          "name": "F2",
          "midi": 41,
          "time": 184.804999999997,
          "velocity": 0.6771653543307087,
          "duration": 0.3049999999999784
        },
        {
          "name": "C3",
          "midi": 48,
          "time": 184.804999999997,
          "velocity": 0.6771653543307087,
          "duration": 0.3049999999999784
        },
        {
          "name": "A3",
          "midi": 57,
          "time": 185.09999999999698,
          "velocity": 0.6771653543307087,
          "duration": 0.29999999999998295
        },
        {
          "name": "C3",
          "midi": 48,
          "time": 185.09999999999698,
          "velocity": 0.6771653543307087,
          "duration": 0.3049999999999784
        },
        {
          "name": "F2",
          "midi": 41,
          "time": 185.09999999999698,
          "velocity": 0.6771653543307087,
          "duration": 0.3049999999999784
        },
        {
          "name": "F2",
          "midi": 41,
          "time": 185.39999999999696,
          "velocity": 0.6771653543307087,
          "duration": 0.30499999999977945
        },
        {
          "name": "A#3",
          "midi": 58,
          "time": 185.39999999999696,
          "velocity": 0.6771653543307087,
          "duration": 0.30499999999977945
        },
        {
          "name": "C3",
          "midi": 48,
          "time": 185.39999999999696,
          "velocity": 0.6771653543307087,
          "duration": 0.30499999999977945
        },
        {
          "name": "C3",
          "midi": 48,
          "time": 185.69999999999675,
          "velocity": 0.6771653543307087,
          "duration": 0.3049999999999784
        },
        {
          "name": "A3",
          "midi": 57,
          "time": 185.69999999999675,
          "velocity": 0.6771653543307087,
          "duration": 0.3049999999999784
        },
        {
          "name": "F2",
          "midi": 41,
          "time": 185.69999999999675,
          "velocity": 0.6771653543307087,
          "duration": 0.3049999999999784
        },
        {
          "name": "A3",
          "midi": 57,
          "time": 185.99999999999673,
          "velocity": 0.6771653543307087,
          "duration": 0.29999999999998295
        },
        {
          "name": "F2",
          "midi": 41,
          "time": 186.00499999999673,
          "velocity": 0.6771653543307087,
          "duration": 0.3049999999999784
        },
        {
          "name": "C3",
          "midi": 48,
          "time": 186.00499999999673,
          "velocity": 0.6771653543307087,
          "duration": 0.3049999999999784
        },
        {
          "name": "C3",
          "midi": 48,
          "time": 186.29999999999671,
          "velocity": 0.6771653543307087,
          "duration": 0.3049999999999784
        },
        {
          "name": "F2",
          "midi": 41,
          "time": 186.29999999999671,
          "velocity": 0.6771653543307087,
          "duration": 0.3049999999999784
        },
        {
          "name": "A3",
          "midi": 57,
          "time": 186.29999999999671,
          "velocity": 0.6771653543307087,
          "duration": 0.29999999999998295
        },
        {
          "name": "A#3",
          "midi": 58,
          "time": 186.5999999999967,
          "velocity": 0.6771653543307087,
          "duration": 0.304999999999751
        },
        {
          "name": "C3",
          "midi": 48,
          "time": 186.5999999999967,
          "velocity": 0.6771653543307087,
          "duration": 0.304999999999751
        },
        {
          "name": "F2",
          "midi": 41,
          "time": 186.5999999999967,
          "velocity": 0.6771653543307087,
          "duration": 0.304999999999751
        },
        {
          "name": "A3",
          "midi": 57,
          "time": 186.89999999999645,
          "velocity": 0.6771653543307087,
          "duration": 0.3049999999999784
        },
        {
          "name": "C3",
          "midi": 48,
          "time": 186.89999999999645,
          "velocity": 0.6771653543307087,
          "duration": 0.3049999999999784
        },
        {
          "name": "F2",
          "midi": 41,
          "time": 186.89999999999645,
          "velocity": 0.6771653543307087,
          "duration": 0.3049999999999784
        },
        {
          "name": "A2",
          "midi": 45,
          "time": 187.19999999999644,
          "velocity": 0.6771653543307087,
          "duration": 0.3049999999999784
        },
        {
          "name": "D3",
          "midi": 50,
          "time": 187.20499999999643,
          "velocity": 0.6771653543307087,
          "duration": 0.3049999999999784
        },
        {
          "name": "A2",
          "midi": 45,
          "time": 187.49999999999642,
          "velocity": 0.6771653543307087,
          "duration": 0.3049999999999784
        },
        {
          "name": "D3",
          "midi": 50,
          "time": 187.49999999999642,
          "velocity": 0.6771653543307087,
          "duration": 0.3049999999999784
        },
        {
          "name": "A2",
          "midi": 45,
          "time": 187.7999999999964,
          "velocity": 0.6771653543307087,
          "duration": 0.3049999999999784
        },
        {
          "name": "D3",
          "midi": 50,
          "time": 187.8049999999964,
          "velocity": 0.6771653543307087,
          "duration": 0.3049999999999784
        },
        {
          "name": "D3",
          "midi": 50,
          "time": 188.09999999999638,
          "velocity": 0.6771653543307087,
          "duration": 0.3049999999999784
        },
        {
          "name": "A2",
          "midi": 45,
          "time": 188.09999999999638,
          "velocity": 0.6771653543307087,
          "duration": 0.3049999999999784
        },
        {
          "name": "A2",
          "midi": 45,
          "time": 188.39999999999637,
          "velocity": 0.6771653543307087,
          "duration": 0.3049999999999784
        },
        {
          "name": "D3",
          "midi": 50,
          "time": 188.40499999999636,
          "velocity": 0.6771653543307087,
          "duration": 0.3049999999999784
        },
        {
          "name": "A2",
          "midi": 45,
          "time": 188.69999999999635,
          "velocity": 0.6771653543307087,
          "duration": 0.3049999999999784
        },
        {
          "name": "D3",
          "midi": 50,
          "time": 188.69999999999635,
          "velocity": 0.6771653543307087,
          "duration": 0.3049999999999784
        },
        {
          "name": "A2",
          "midi": 45,
          "time": 188.99999999999633,
          "velocity": 0.6771653543307087,
          "duration": 0.3049999999999784
        },
        {
          "name": "D3",
          "midi": 50,
          "time": 189.00499999999633,
          "velocity": 0.6771653543307087,
          "duration": 0.3049999999999784
        },
        {
          "name": "D3",
          "midi": 50,
          "time": 189.29999999999632,
          "velocity": 0.6771653543307087,
          "duration": 0.3049999999999784
        },
        {
          "name": "A2",
          "midi": 45,
          "time": 189.29999999999632,
          "velocity": 0.6771653543307087,
          "duration": 0.3049999999999784
        },
        {
          "name": "F3",
          "midi": 53,
          "time": 189.5999999999963,
          "velocity": 0.6771653543307087,
          "duration": 0.3049999999999784
        },
        {
          "name": "A#2",
          "midi": 46,
          "time": 189.5999999999963,
          "velocity": 0.6771653543307087,
          "duration": 0.3049999999999784
        },
        {
          "name": "A#2",
          "midi": 46,
          "time": 189.89999999999628,
          "velocity": 0.6771653543307087,
          "duration": 0.3049999999999784
        },
        {
          "name": "F3",
          "midi": 53,
          "time": 189.89999999999628,
          "velocity": 0.6771653543307087,
          "duration": 0.3049999999999784
        },
        {
          "name": "F3",
          "midi": 53,
          "time": 190.19999999999627,
          "velocity": 0.6771653543307087,
          "duration": 0.3049999999999784
        },
        {
          "name": "A#2",
          "midi": 46,
          "time": 190.19999999999627,
          "velocity": 0.6771653543307087,
          "duration": 0.3049999999999784
        },
        {
          "name": "A#2",
          "midi": 46,
          "time": 190.49999999999625,
          "velocity": 0.6771653543307087,
          "duration": 0.3049999999999784
        },
        {
          "name": "F3",
          "midi": 53,
          "time": 190.49999999999625,
          "velocity": 0.6771653543307087,
          "duration": 0.3049999999999784
        },
        {
          "name": "F3",
          "midi": 53,
          "time": 190.79999999999623,
          "velocity": 0.6771653543307087,
          "duration": 0.3049999999999784
        },
        {
          "name": "A#2",
          "midi": 46,
          "time": 190.79999999999623,
          "velocity": 0.6771653543307087,
          "duration": 0.3049999999999784
        },
        {
          "name": "A#2",
          "midi": 46,
          "time": 191.09999999999621,
          "velocity": 0.6771653543307087,
          "duration": 0.3049999999999784
        },
        {
          "name": "F3",
          "midi": 53,
          "time": 191.09999999999621,
          "velocity": 0.6771653543307087,
          "duration": 0.3049999999999784
        },
        {
          "name": "A#2",
          "midi": 46,
          "time": 191.3999999999962,
          "velocity": 0.6771653543307087,
          "duration": 0.3049999999999784
        },
        {
          "name": "F3",
          "midi": 53,
          "time": 191.3999999999962,
          "velocity": 0.6771653543307087,
          "duration": 0.3049999999999784
        },
        {
          "name": "F3",
          "midi": 53,
          "time": 191.69999999999618,
          "velocity": 0.6771653543307087,
          "duration": 0.3049999999999784
        },
        {
          "name": "A#2",
          "midi": 46,
          "time": 191.69999999999618,
          "velocity": 0.6771653543307087,
          "duration": 0.3049999999999784
        },
        {
          "name": "A3",
          "midi": 57,
          "time": 191.99999999999616,
          "velocity": 0.6771653543307087,
          "duration": 0.29999999999998295
        },
        {
          "name": "F2",
          "midi": 41,
          "time": 192.00499999999616,
          "velocity": 0.6771653543307087,
          "duration": 0.3049999999999784
        },
        {
          "name": "C3",
          "midi": 48,
          "time": 192.00499999999616,
          "velocity": 0.6771653543307087,
          "duration": 0.3049999999999784
        },
        {
          "name": "C3",
          "midi": 48,
          "time": 192.29999999999615,
          "velocity": 0.6771653543307087,
          "duration": 0.3049999999999784
        },
        {
          "name": "F2",
          "midi": 41,
          "time": 192.29999999999615,
          "velocity": 0.6771653543307087,
          "duration": 0.3049999999999784
        },
        {
          "name": "A3",
          "midi": 57,
          "time": 192.29999999999615,
          "velocity": 0.6771653543307087,
          "duration": 0.29999999999998295
        },
        {
          "name": "C3",
          "midi": 48,
          "time": 192.59999999999613,
          "velocity": 0.6771653543307087,
          "duration": 0.30499999999977945
        },
        {
          "name": "A#3",
          "midi": 58,
          "time": 192.59999999999613,
          "velocity": 0.6771653543307087,
          "duration": 0.30499999999977945
        },
        {
          "name": "F2",
          "midi": 41,
          "time": 192.59999999999613,
          "velocity": 0.6771653543307087,
          "duration": 0.30499999999977945
        },
        {
          "name": "F2",
          "midi": 41,
          "time": 192.8999999999959,
          "velocity": 0.6771653543307087,
          "duration": 0.3049999999999784
        },
        {
          "name": "C3",
          "midi": 48,
          "time": 192.8999999999959,
          "velocity": 0.6771653543307087,
          "duration": 0.3049999999999784
        },
        {
          "name": "A3",
          "midi": 57,
          "time": 192.8999999999959,
          "velocity": 0.6771653543307087,
          "duration": 0.3049999999999784
        },
        {
          "name": "A3",
          "midi": 57,
          "time": 193.1999999999959,
          "velocity": 0.6771653543307087,
          "duration": 0.29999999999998295
        },
        {
          "name": "F2",
          "midi": 41,
          "time": 193.2049999999959,
          "velocity": 0.6771653543307087,
          "duration": 0.3049999999999784
        },
        {
          "name": "C3",
          "midi": 48,
          "time": 193.2049999999959,
          "velocity": 0.6771653543307087,
          "duration": 0.3049999999999784
        },
        {
          "name": "F2",
          "midi": 41,
          "time": 193.49999999999588,
          "velocity": 0.6771653543307087,
          "duration": 0.3049999999999784
        },
        {
          "name": "C3",
          "midi": 48,
          "time": 193.49999999999588,
          "velocity": 0.6771653543307087,
          "duration": 0.3049999999999784
        },
        {
          "name": "A3",
          "midi": 57,
          "time": 193.49999999999588,
          "velocity": 0.6771653543307087,
          "duration": 0.29999999999998295
        },
        {
          "name": "A#3",
          "midi": 58,
          "time": 193.79999999999586,
          "velocity": 0.6771653543307087,
          "duration": 0.304999999999751
        },
        {
          "name": "C3",
          "midi": 48,
          "time": 193.79999999999586,
          "velocity": 0.6771653543307087,
          "duration": 0.304999999999751
        },
        {
          "name": "F2",
          "midi": 41,
          "time": 193.79999999999586,
          "velocity": 0.6771653543307087,
          "duration": 0.304999999999751
        },
        {
          "name": "F2",
          "midi": 41,
          "time": 194.09999999999562,
          "velocity": 0.6771653543307087,
          "duration": 0.3049999999999784
        },
        {
          "name": "A3",
          "midi": 57,
          "time": 194.09999999999562,
          "velocity": 0.6771653543307087,
          "duration": 0.3049999999999784
        },
        {
          "name": "C3",
          "midi": 48,
          "time": 194.09999999999562,
          "velocity": 0.6771653543307087,
          "duration": 0.3049999999999784
        },
        {
          "name": "A3",
          "midi": 57,
          "time": 194.3999999999956,
          "velocity": 0.6771653543307087,
          "duration": 0.29999999999998295
        },
        {
          "name": "F2",
          "midi": 41,
          "time": 194.4049999999956,
          "velocity": 0.6771653543307087,
          "duration": 0.3049999999999784
        },
        {
          "name": "C3",
          "midi": 48,
          "time": 194.4049999999956,
          "velocity": 0.6771653543307087,
          "duration": 0.3049999999999784
        },
        {
          "name": "A3",
          "midi": 57,
          "time": 194.69999999999558,
          "velocity": 0.6771653543307087,
          "duration": 0.29999999999998295
        },
        {
          "name": "C3",
          "midi": 48,
          "time": 194.69999999999558,
          "velocity": 0.6771653543307087,
          "duration": 0.3049999999999784
        },
        {
          "name": "F2",
          "midi": 41,
          "time": 194.69999999999558,
          "velocity": 0.6771653543307087,
          "duration": 0.3049999999999784
        },
        {
          "name": "F2",
          "midi": 41,
          "time": 194.99999999999557,
          "velocity": 0.6771653543307087,
          "duration": 0.30499999999977945
        },
        {
          "name": "A#3",
          "midi": 58,
          "time": 194.99999999999557,
          "velocity": 0.6771653543307087,
          "duration": 0.30499999999977945
        },
        {
          "name": "C3",
          "midi": 48,
          "time": 194.99999999999557,
          "velocity": 0.6771653543307087,
          "duration": 0.30499999999977945
        },
        {
          "name": "C3",
          "midi": 48,
          "time": 195.29999999999535,
          "velocity": 0.6771653543307087,
          "duration": 0.3049999999999784
        },
        {
          "name": "A3",
          "midi": 57,
          "time": 195.29999999999535,
          "velocity": 0.6771653543307087,
          "duration": 0.3049999999999784
        },
        {
          "name": "F2",
          "midi": 41,
          "time": 195.29999999999535,
          "velocity": 0.6771653543307087,
          "duration": 0.3049999999999784
        },
        {
          "name": "A3",
          "midi": 57,
          "time": 195.59999999999533,
          "velocity": 0.6771653543307087,
          "duration": 0.29999999999998295
        },
        {
          "name": "F2",
          "midi": 41,
          "time": 195.60499999999533,
          "velocity": 0.6771653543307087,
          "duration": 0.3049999999999784
        },
        {
          "name": "C3",
          "midi": 48,
          "time": 195.60499999999533,
          "velocity": 0.6771653543307087,
          "duration": 0.3049999999999784
        },
        {
          "name": "C3",
          "midi": 48,
          "time": 195.89999999999532,
          "velocity": 0.6771653543307087,
          "duration": 0.3049999999999784
        },
        {
          "name": "F2",
          "midi": 41,
          "time": 195.89999999999532,
          "velocity": 0.6771653543307087,
          "duration": 0.3049999999999784
        },
        {
          "name": "A3",
          "midi": 57,
          "time": 195.89999999999532,
          "velocity": 0.6771653543307087,
          "duration": 0.29999999999998295
        },
        {
          "name": "A#3",
          "midi": 58,
          "time": 196.1999999999953,
          "velocity": 0.6771653543307087,
          "duration": 0.304999999999751
        },
        {
          "name": "C3",
          "midi": 48,
          "time": 196.1999999999953,
          "velocity": 0.6771653543307087,
          "duration": 0.304999999999751
        },
        {
          "name": "F2",
          "midi": 41,
          "time": 196.1999999999953,
          "velocity": 0.6771653543307087,
          "duration": 0.304999999999751
        },
        {
          "name": "A3",
          "midi": 57,
          "time": 196.49999999999505,
          "velocity": 0.6771653543307087,
          "duration": 0.3049999999999784
        },
        {
          "name": "C3",
          "midi": 48,
          "time": 196.49999999999505,
          "velocity": 0.6771653543307087,
          "duration": 0.3049999999999784
        },
        {
          "name": "F2",
          "midi": 41,
          "time": 196.49999999999505,
          "velocity": 0.6771653543307087,
          "duration": 0.3049999999999784
        },
        {
          "name": "A2",
          "midi": 45,
          "time": 196.79999999999504,
          "velocity": 0.6771653543307087,
          "duration": 0.3049999999999784
        },
        {
          "name": "D3",
          "midi": 50,
          "time": 196.80499999999503,
          "velocity": 0.6771653543307087,
          "duration": 0.3049999999999784
        },
        {
          "name": "A2",
          "midi": 45,
          "time": 197.09999999999502,
          "velocity": 0.6771653543307087,
          "duration": 0.3049999999999784
        },
        {
          "name": "D3",
          "midi": 50,
          "time": 197.09999999999502,
          "velocity": 0.6771653543307087,
          "duration": 0.3049999999999784
        },
        {
          "name": "A2",
          "midi": 45,
          "time": 197.399999999995,
          "velocity": 0.6771653543307087,
          "duration": 0.3049999999999784
        },
        {
          "name": "D3",
          "midi": 50,
          "time": 197.404999999995,
          "velocity": 0.6771653543307087,
          "duration": 0.3049999999999784
        },
        {
          "name": "D3",
          "midi": 50,
          "time": 197.699999999995,
          "velocity": 0.6771653543307087,
          "duration": 0.3049999999999784
        },
        {
          "name": "A2",
          "midi": 45,
          "time": 197.699999999995,
          "velocity": 0.6771653543307087,
          "duration": 0.3049999999999784
        },
        {
          "name": "A2",
          "midi": 45,
          "time": 197.99999999999497,
          "velocity": 0.6771653543307087,
          "duration": 0.3049999999999784
        },
        {
          "name": "D3",
          "midi": 50,
          "time": 198.00499999999496,
          "velocity": 0.6771653543307087,
          "duration": 0.3049999999999784
        },
        {
          "name": "A2",
          "midi": 45,
          "time": 198.29999999999495,
          "velocity": 0.6771653543307087,
          "duration": 0.3049999999999784
        },
        {
          "name": "D3",
          "midi": 50,
          "time": 198.29999999999495,
          "velocity": 0.6771653543307087,
          "duration": 0.3049999999999784
        },
        {
          "name": "A2",
          "midi": 45,
          "time": 198.59999999999494,
          "velocity": 0.6771653543307087,
          "duration": 0.3049999999999784
        },
        {
          "name": "D3",
          "midi": 50,
          "time": 198.60499999999493,
          "velocity": 0.6771653543307087,
          "duration": 0.3049999999999784
        },
        {
          "name": "D3",
          "midi": 50,
          "time": 198.89999999999492,
          "velocity": 0.6771653543307087,
          "duration": 0.3049999999999784
        },
        {
          "name": "A2",
          "midi": 45,
          "time": 198.89999999999492,
          "velocity": 0.6771653543307087,
          "duration": 0.3049999999999784
        },
        {
          "name": "F3",
          "midi": 53,
          "time": 199.1999999999949,
          "velocity": 0.6771653543307087,
          "duration": 0.3049999999999784
        },
        {
          "name": "A#2",
          "midi": 46,
          "time": 199.1999999999949,
          "velocity": 0.6771653543307087,
          "duration": 0.3049999999999784
        },
        {
          "name": "A#2",
          "midi": 46,
          "time": 199.49999999999488,
          "velocity": 0.6771653543307087,
          "duration": 0.3049999999999784
        },
        {
          "name": "F3",
          "midi": 53,
          "time": 199.49999999999488,
          "velocity": 0.6771653543307087,
          "duration": 0.3049999999999784
        },
        {
          "name": "F3",
          "midi": 53,
          "time": 199.79999999999487,
          "velocity": 0.6771653543307087,
          "duration": 0.3049999999999784
        },
        {
          "name": "A#2",
          "midi": 46,
          "time": 199.79999999999487,
          "velocity": 0.6771653543307087,
          "duration": 0.3049999999999784
        },
        {
          "name": "A#2",
          "midi": 46,
          "time": 200.09999999999485,
          "velocity": 0.6771653543307087,
          "duration": 0.3049999999999784
        },
        {
          "name": "F3",
          "midi": 53,
          "time": 200.09999999999485,
          "velocity": 0.6771653543307087,
          "duration": 0.3049999999999784
        },
        {
          "name": "F3",
          "midi": 53,
          "time": 200.39999999999483,
          "velocity": 0.6771653543307087,
          "duration": 0.3049999999999784
        },
        {
          "name": "A#2",
          "midi": 46,
          "time": 200.39999999999483,
          "velocity": 0.6771653543307087,
          "duration": 0.3049999999999784
        },
        {
          "name": "A#2",
          "midi": 46,
          "time": 200.69999999999482,
          "velocity": 0.6771653543307087,
          "duration": 0.3049999999999784
        },
        {
          "name": "F3",
          "midi": 53,
          "time": 200.69999999999482,
          "velocity": 0.6771653543307087,
          "duration": 0.3049999999999784
        },
        {
          "name": "A#2",
          "midi": 46,
          "time": 200.9999999999948,
          "velocity": 0.6771653543307087,
          "duration": 0.3049999999999784
        },
        {
          "name": "F3",
          "midi": 53,
          "time": 200.9999999999948,
          "velocity": 0.6771653543307087,
          "duration": 0.3049999999999784
        },
        {
          "name": "F3",
          "midi": 53,
          "time": 201.29999999999478,
          "velocity": 0.6771653543307087,
          "duration": 0.3049999999999784
        },
        {
          "name": "A#2",
          "midi": 46,
          "time": 201.29999999999478,
          "velocity": 0.6771653543307087,
          "duration": 0.3049999999999784
        },
        {
          "name": "A3",
          "midi": 57,
          "time": 201.59999999999476,
          "velocity": 0.6771653543307087,
          "duration": 0.29999999999998295
        },
        {
          "name": "F2",
          "midi": 41,
          "time": 201.60499999999476,
          "velocity": 0.6771653543307087,
          "duration": 0.3049999999999784
        },
        {
          "name": "C3",
          "midi": 48,
          "time": 201.60499999999476,
          "velocity": 0.6771653543307087,
          "duration": 0.3049999999999784
        },
        {
          "name": "C3",
          "midi": 48,
          "time": 201.89999999999475,
          "velocity": 0.6771653543307087,
          "duration": 0.3049999999999784
        },
        {
          "name": "F2",
          "midi": 41,
          "time": 201.89999999999475,
          "velocity": 0.6771653543307087,
          "duration": 0.3049999999999784
        },
        {
          "name": "A3",
          "midi": 57,
          "time": 201.89999999999475,
          "velocity": 0.6771653543307087,
          "duration": 0.29999999999998295
        },
        {
          "name": "C3",
          "midi": 48,
          "time": 202.19999999999473,
          "velocity": 0.6771653543307087,
          "duration": 0.30499999999977945
        },
        {
          "name": "A#3",
          "midi": 58,
          "time": 202.19999999999473,
          "velocity": 0.6771653543307087,
          "duration": 0.30499999999977945
        },
        {
          "name": "F2",
          "midi": 41,
          "time": 202.19999999999473,
          "velocity": 0.6771653543307087,
          "duration": 0.30499999999977945
        },
        {
          "name": "F2",
          "midi": 41,
          "time": 202.49999999999451,
          "velocity": 0.6771653543307087,
          "duration": 0.3049999999999784
        },
        {
          "name": "C3",
          "midi": 48,
          "time": 202.49999999999451,
          "velocity": 0.6771653543307087,
          "duration": 0.3049999999999784
        },
        {
          "name": "A3",
          "midi": 57,
          "time": 202.49999999999451,
          "velocity": 0.6771653543307087,
          "duration": 0.3049999999999784
        },
        {
          "name": "A3",
          "midi": 57,
          "time": 202.7999999999945,
          "velocity": 0.6771653543307087,
          "duration": 0.29999999999998295
        },
        {
          "name": "F2",
          "midi": 41,
          "time": 202.8049999999945,
          "velocity": 0.6771653543307087,
          "duration": 0.3049999999999784
        },
        {
          "name": "C3",
          "midi": 48,
          "time": 202.8049999999945,
          "velocity": 0.6771653543307087,
          "duration": 0.3049999999999784
        },
        {
          "name": "F2",
          "midi": 41,
          "time": 203.09999999999448,
          "velocity": 0.6771653543307087,
          "duration": 0.3049999999999784
        },
        {
          "name": "C3",
          "midi": 48,
          "time": 203.09999999999448,
          "velocity": 0.6771653543307087,
          "duration": 0.3049999999999784
        },
        {
          "name": "A3",
          "midi": 57,
          "time": 203.09999999999448,
          "velocity": 0.6771653543307087,
          "duration": 0.29999999999998295
        },
        {
          "name": "A#3",
          "midi": 58,
          "time": 203.39999999999446,
          "velocity": 0.6771653543307087,
          "duration": 0.304999999999751
        },
        {
          "name": "C3",
          "midi": 48,
          "time": 203.39999999999446,
          "velocity": 0.6771653543307087,
          "duration": 0.304999999999751
        },
        {
          "name": "F2",
          "midi": 41,
          "time": 203.39999999999446,
          "velocity": 0.6771653543307087,
          "duration": 0.304999999999751
        },
        {
          "name": "F2",
          "midi": 41,
          "time": 203.69999999999422,
          "velocity": 0.6771653543307087,
          "duration": 0.3049999999999784
        },
        {
          "name": "A3",
          "midi": 57,
          "time": 203.69999999999422,
          "velocity": 0.6771653543307087,
          "duration": 0.3049999999999784
        },
        {
          "name": "C3",
          "midi": 48,
          "time": 203.69999999999422,
          "velocity": 0.6771653543307087,
          "duration": 0.3049999999999784
        },
        {
          "name": "A3",
          "midi": 57,
          "time": 203.9999999999942,
          "velocity": 0.6771653543307087,
          "duration": 0.29999999999998295
        },
        {
          "name": "F2",
          "midi": 41,
          "time": 204.0049999999942,
          "velocity": 0.6771653543307087,
          "duration": 0.3049999999999784
        },
        {
          "name": "C3",
          "midi": 48,
          "time": 204.0049999999942,
          "velocity": 0.6771653543307087,
          "duration": 0.3049999999999784
        },
        {
          "name": "A3",
          "midi": 57,
          "time": 204.29999999999418,
          "velocity": 0.6771653543307087,
          "duration": 0.29999999999998295
        },
        {
          "name": "C3",
          "midi": 48,
          "time": 204.29999999999418,
          "velocity": 0.6771653543307087,
          "duration": 0.3049999999999784
        },
        {
          "name": "F2",
          "midi": 41,
          "time": 204.29999999999418,
          "velocity": 0.6771653543307087,
          "duration": 0.3049999999999784
        },
        {
          "name": "F2",
          "midi": 41,
          "time": 204.59999999999417,
          "velocity": 0.6771653543307087,
          "duration": 0.30499999999977945
        },
        {
          "name": "A#3",
          "midi": 58,
          "time": 204.59999999999417,
          "velocity": 0.6771653543307087,
          "duration": 0.30499999999977945
        },
        {
          "name": "C3",
          "midi": 48,
          "time": 204.59999999999417,
          "velocity": 0.6771653543307087,
          "duration": 0.30499999999977945
        },
        {
          "name": "C3",
          "midi": 48,
          "time": 204.89999999999395,
          "velocity": 0.6771653543307087,
          "duration": 0.3049999999999784
        },
        {
          "name": "A3",
          "midi": 57,
          "time": 204.89999999999395,
          "velocity": 0.6771653543307087,
          "duration": 0.3049999999999784
        },
        {
          "name": "F2",
          "midi": 41,
          "time": 204.89999999999395,
          "velocity": 0.6771653543307087,
          "duration": 0.3049999999999784
        },
        {
          "name": "A3",
          "midi": 57,
          "time": 205.19999999999393,
          "velocity": 0.6771653543307087,
          "duration": 0.29999999999998295
        },
        {
          "name": "F2",
          "midi": 41,
          "time": 205.20499999999393,
          "velocity": 0.6771653543307087,
          "duration": 0.3049999999999784
        },
        {
          "name": "C3",
          "midi": 48,
          "time": 205.20499999999393,
          "velocity": 0.6771653543307087,
          "duration": 0.3049999999999784
        },
        {
          "name": "C3",
          "midi": 48,
          "time": 205.49999999999392,
          "velocity": 0.6771653543307087,
          "duration": 0.3049999999999784
        },
        {
          "name": "F2",
          "midi": 41,
          "time": 205.49999999999392,
          "velocity": 0.6771653543307087,
          "duration": 0.3049999999999784
        },
        {
          "name": "A3",
          "midi": 57,
          "time": 205.49999999999392,
          "velocity": 0.6771653543307087,
          "duration": 0.29999999999998295
        },
        {
          "name": "A#3",
          "midi": 58,
          "time": 205.7999999999939,
          "velocity": 0.6771653543307087,
          "duration": 0.304999999999751
        },
        {
          "name": "C3",
          "midi": 48,
          "time": 205.7999999999939,
          "velocity": 0.6771653543307087,
          "duration": 0.304999999999751
        },
        {
          "name": "F2",
          "midi": 41,
          "time": 205.7999999999939,
          "velocity": 0.6771653543307087,
          "duration": 0.304999999999751
        },
        {
          "name": "A3",
          "midi": 57,
          "time": 206.09999999999366,
          "velocity": 0.6771653543307087,
          "duration": 0.3049999999999784
        },
        {
          "name": "C3",
          "midi": 48,
          "time": 206.09999999999366,
          "velocity": 0.6771653543307087,
          "duration": 0.3049999999999784
        },
        {
          "name": "F2",
          "midi": 41,
          "time": 206.09999999999366,
          "velocity": 0.6771653543307087,
          "duration": 0.3049999999999784
        },
        {
          "name": "A2",
          "midi": 45,
          "time": 206.39999999999364,
          "velocity": 0.6771653543307087,
          "duration": 0.3049999999999784
        },
        {
          "name": "D3",
          "midi": 50,
          "time": 206.40499999999363,
          "velocity": 0.6771653543307087,
          "duration": 0.3049999999999784
        },
        {
          "name": "A2",
          "midi": 45,
          "time": 206.69999999999362,
          "velocity": 0.6771653543307087,
          "duration": 0.3049999999999784
        },
        {
          "name": "D3",
          "midi": 50,
          "time": 206.69999999999362,
          "velocity": 0.6771653543307087,
          "duration": 0.3049999999999784
        },
        {
          "name": "A2",
          "midi": 45,
          "time": 206.9999999999936,
          "velocity": 0.6771653543307087,
          "duration": 0.3049999999999784
        },
        {
          "name": "D3",
          "midi": 50,
          "time": 207.0049999999936,
          "velocity": 0.6771653543307087,
          "duration": 0.3049999999999784
        },
        {
          "name": "D3",
          "midi": 50,
          "time": 207.2999999999936,
          "velocity": 0.6771653543307087,
          "duration": 0.3049999999999784
        },
        {
          "name": "A2",
          "midi": 45,
          "time": 207.2999999999936,
          "velocity": 0.6771653543307087,
          "duration": 0.3049999999999784
        },
        {
          "name": "A2",
          "midi": 45,
          "time": 207.59999999999357,
          "velocity": 0.6771653543307087,
          "duration": 0.3049999999999784
        },
        {
          "name": "D3",
          "midi": 50,
          "time": 207.60499999999357,
          "velocity": 0.6771653543307087,
          "duration": 0.3049999999999784
        },
        {
          "name": "A2",
          "midi": 45,
          "time": 207.89999999999355,
          "velocity": 0.6771653543307087,
          "duration": 0.3049999999999784
        },
        {
          "name": "D3",
          "midi": 50,
          "time": 207.89999999999355,
          "velocity": 0.6771653543307087,
          "duration": 0.3049999999999784
        },
        {
          "name": "A2",
          "midi": 45,
          "time": 208.19999999999354,
          "velocity": 0.6771653543307087,
          "duration": 0.3049999999999784
        },
        {
          "name": "D3",
          "midi": 50,
          "time": 208.20499999999353,
          "velocity": 0.6771653543307087,
          "duration": 0.3049999999999784
        },
        {
          "name": "D3",
          "midi": 50,
          "time": 208.49999999999352,
          "velocity": 0.6771653543307087,
          "duration": 0.3049999999999784
        },
        {
          "name": "A2",
          "midi": 45,
          "time": 208.49999999999352,
          "velocity": 0.6771653543307087,
          "duration": 0.3049999999999784
        },
        {
          "name": "F3",
          "midi": 53,
          "time": 208.7999999999935,
          "velocity": 0.6771653543307087,
          "duration": 0.3049999999999784
        },
        {
          "name": "A#2",
          "midi": 46,
          "time": 208.7999999999935,
          "velocity": 0.6771653543307087,
          "duration": 0.3049999999999784
        },
        {
          "name": "A#2",
          "midi": 46,
          "time": 209.09999999999349,
          "velocity": 0.6771653543307087,
          "duration": 0.3049999999999784
        },
        {
          "name": "F3",
          "midi": 53,
          "time": 209.09999999999349,
          "velocity": 0.6771653543307087,
          "duration": 0.3049999999999784
        },
        {
          "name": "F3",
          "midi": 53,
          "time": 209.39999999999347,
          "velocity": 0.6771653543307087,
          "duration": 0.3049999999999784
        },
        {
          "name": "A#2",
          "midi": 46,
          "time": 209.39999999999347,
          "velocity": 0.6771653543307087,
          "duration": 0.3049999999999784
        },
        {
          "name": "A#2",
          "midi": 46,
          "time": 209.69999999999345,
          "velocity": 0.6771653543307087,
          "duration": 0.3049999999999784
        },
        {
          "name": "F3",
          "midi": 53,
          "time": 209.69999999999345,
          "velocity": 0.6771653543307087,
          "duration": 0.3049999999999784
        },
        {
          "name": "F3",
          "midi": 53,
          "time": 209.99999999999343,
          "velocity": 0.6771653543307087,
          "duration": 0.3049999999999784
        },
        {
          "name": "A#2",
          "midi": 46,
          "time": 209.99999999999343,
          "velocity": 0.6771653543307087,
          "duration": 0.3049999999999784
        },
        {
          "name": "A#2",
          "midi": 46,
          "time": 210.29999999999342,
          "velocity": 0.6771653543307087,
          "duration": 0.3049999999999784
        },
        {
          "name": "F3",
          "midi": 53,
          "time": 210.29999999999342,
          "velocity": 0.6771653543307087,
          "duration": 0.3049999999999784
        },
        {
          "name": "A#2",
          "midi": 46,
          "time": 210.5999999999934,
          "velocity": 0.6771653543307087,
          "duration": 0.3049999999999784
        },
        {
          "name": "F3",
          "midi": 53,
          "time": 210.5999999999934,
          "velocity": 0.6771653543307087,
          "duration": 0.3049999999999784
        },
        {
          "name": "F3",
          "midi": 53,
          "time": 210.89999999999338,
          "velocity": 0.6771653543307087,
          "duration": 0.3049999999999784
        },
        {
          "name": "A#2",
          "midi": 46,
          "time": 210.89999999999338,
          "velocity": 0.6771653543307087,
          "duration": 0.3049999999999784
        },
        {
          "name": "A3",
          "midi": 57,
          "time": 211.19999999999337,
          "velocity": 0.6771653543307087,
          "duration": 0.29999999999998295
        },
        {
          "name": "F2",
          "midi": 41,
          "time": 211.20499999999336,
          "velocity": 0.6771653543307087,
          "duration": 0.3049999999999784
        },
        {
          "name": "C3",
          "midi": 48,
          "time": 211.20499999999336,
          "velocity": 0.6771653543307087,
          "duration": 0.3049999999999784
        },
        {
          "name": "C3",
          "midi": 48,
          "time": 211.49999999999335,
          "velocity": 0.6771653543307087,
          "duration": 0.3049999999999784
        },
        {
          "name": "F2",
          "midi": 41,
          "time": 211.49999999999335,
          "velocity": 0.6771653543307087,
          "duration": 0.3049999999999784
        },
        {
          "name": "A3",
          "midi": 57,
          "time": 211.49999999999335,
          "velocity": 0.6771653543307087,
          "duration": 0.29999999999998295
        },
        {
          "name": "C3",
          "midi": 48,
          "time": 211.79999999999333,
          "velocity": 0.6771653543307087,
          "duration": 0.30499999999977945
        },
        {
          "name": "A#3",
          "midi": 58,
          "time": 211.79999999999333,
          "velocity": 0.6771653543307087,
          "duration": 0.30499999999977945
        },
        {
          "name": "F2",
          "midi": 41,
          "time": 211.79999999999333,
          "velocity": 0.6771653543307087,
          "duration": 0.30499999999977945
        },
        {
          "name": "F2",
          "midi": 41,
          "time": 212.09999999999312,
          "velocity": 0.6771653543307087,
          "duration": 0.3049999999999784
        },
        {
          "name": "C3",
          "midi": 48,
          "time": 212.09999999999312,
          "velocity": 0.6771653543307087,
          "duration": 0.3049999999999784
        },
        {
          "name": "A3",
          "midi": 57,
          "time": 212.09999999999312,
          "velocity": 0.6771653543307087,
          "duration": 0.3049999999999784
        },
        {
          "name": "A3",
          "midi": 57,
          "time": 212.3999999999931,
          "velocity": 0.6771653543307087,
          "duration": 0.29999999999998295
        },
        {
          "name": "F2",
          "midi": 41,
          "time": 212.4049999999931,
          "velocity": 0.6771653543307087,
          "duration": 0.3049999999999784
        },
        {
          "name": "C3",
          "midi": 48,
          "time": 212.4049999999931,
          "velocity": 0.6771653543307087,
          "duration": 0.3049999999999784
        },
        {
          "name": "F2",
          "midi": 41,
          "time": 212.69999999999308,
          "velocity": 0.6771653543307087,
          "duration": 0.3049999999999784
        },
        {
          "name": "C3",
          "midi": 48,
          "time": 212.69999999999308,
          "velocity": 0.6771653543307087,
          "duration": 0.3049999999999784
        },
        {
          "name": "A3",
          "midi": 57,
          "time": 212.69999999999308,
          "velocity": 0.6771653543307087,
          "duration": 0.29999999999998295
        },
        {
          "name": "A#3",
          "midi": 58,
          "time": 212.99999999999307,
          "velocity": 0.6771653543307087,
          "duration": 0.304999999999751
        },
        {
          "name": "C3",
          "midi": 48,
          "time": 212.99999999999307,
          "velocity": 0.6771653543307087,
          "duration": 0.304999999999751
        },
        {
          "name": "F2",
          "midi": 41,
          "time": 212.99999999999307,
          "velocity": 0.6771653543307087,
          "duration": 0.304999999999751
        },
        {
          "name": "F2",
          "midi": 41,
          "time": 213.29999999999282,
          "velocity": 0.6771653543307087,
          "duration": 0.3049999999999784
        },
        {
          "name": "A3",
          "midi": 57,
          "time": 213.29999999999282,
          "velocity": 0.6771653543307087,
          "duration": 0.3049999999999784
        },
        {
          "name": "C3",
          "midi": 48,
          "time": 213.29999999999282,
          "velocity": 0.6771653543307087,
          "duration": 0.3049999999999784
        },
        {
          "name": "A3",
          "midi": 57,
          "time": 213.5999999999928,
          "velocity": 0.6771653543307087,
          "duration": 0.29999999999998295
        },
        {
          "name": "F2",
          "midi": 41,
          "time": 213.6049999999928,
          "velocity": 0.6771653543307087,
          "duration": 0.3049999999999784
        },
        {
          "name": "C3",
          "midi": 48,
          "time": 213.6049999999928,
          "velocity": 0.6771653543307087,
          "duration": 0.3049999999999784
        },
        {
          "name": "A3",
          "midi": 57,
          "time": 213.8999999999928,
          "velocity": 0.6771653543307087,
          "duration": 0.29999999999998295
        },
        {
          "name": "C3",
          "midi": 48,
          "time": 213.8999999999928,
          "velocity": 0.6771653543307087,
          "duration": 0.3049999999999784
        },
        {
          "name": "F2",
          "midi": 41,
          "time": 213.8999999999928,
          "velocity": 0.6771653543307087,
          "duration": 0.3049999999999784
        },
        {
          "name": "F2",
          "midi": 41,
          "time": 214.19999999999277,
          "velocity": 0.6771653543307087,
          "duration": 0.30499999999977945
        },
        {
          "name": "A#3",
          "midi": 58,
          "time": 214.19999999999277,
          "velocity": 0.6771653543307087,
          "duration": 0.30499999999977945
        },
        {
          "name": "C3",
          "midi": 48,
          "time": 214.19999999999277,
          "velocity": 0.6771653543307087,
          "duration": 0.30499999999977945
        },
        {
          "name": "C3",
          "midi": 48,
          "time": 214.49999999999255,
          "velocity": 0.6771653543307087,
          "duration": 0.3049999999999784
        },
        {
          "name": "A3",
          "midi": 57,
          "time": 214.49999999999255,
          "velocity": 0.6771653543307087,
          "duration": 0.3049999999999784
        },
        {
          "name": "F2",
          "midi": 41,
          "time": 214.49999999999255,
          "velocity": 0.6771653543307087,
          "duration": 0.3049999999999784
        },
        {
          "name": "A3",
          "midi": 57,
          "time": 214.79999999999254,
          "velocity": 0.6771653543307087,
          "duration": 0.29999999999998295
        },
        {
          "name": "F2",
          "midi": 41,
          "time": 214.80499999999253,
          "velocity": 0.6771653543307087,
          "duration": 0.3049999999999784
        },
        {
          "name": "C3",
          "midi": 48,
          "time": 214.80499999999253,
          "velocity": 0.6771653543307087,
          "duration": 0.3049999999999784
        },
        {
          "name": "C3",
          "midi": 48,
          "time": 215.09999999999252,
          "velocity": 0.6771653543307087,
          "duration": 0.3049999999999784
        },
        {
          "name": "F2",
          "midi": 41,
          "time": 215.09999999999252,
          "velocity": 0.6771653543307087,
          "duration": 0.3049999999999784
        },
        {
          "name": "A3",
          "midi": 57,
          "time": 215.09999999999252,
          "velocity": 0.6771653543307087,
          "duration": 0.29999999999998295
        },
        {
          "name": "A#3",
          "midi": 58,
          "time": 215.3999999999925,
          "velocity": 0.6771653543307087,
          "duration": 0.304999999999751
        },
        {
          "name": "C3",
          "midi": 48,
          "time": 215.3999999999925,
          "velocity": 0.6771653543307087,
          "duration": 0.304999999999751
        },
        {
          "name": "F2",
          "midi": 41,
          "time": 215.3999999999925,
          "velocity": 0.6771653543307087,
          "duration": 0.304999999999751
        },
        {
          "name": "A3",
          "midi": 57,
          "time": 215.69999999999226,
          "velocity": 0.6771653543307087,
          "duration": 0.3049999999999784
        },
        {
          "name": "C3",
          "midi": 48,
          "time": 215.69999999999226,
          "velocity": 0.6771653543307087,
          "duration": 0.3049999999999784
        },
        {
          "name": "F2",
          "midi": 41,
          "time": 215.69999999999226,
          "velocity": 0.6771653543307087,
          "duration": 0.3049999999999784
        },
        {
          "name": "D2",
          "midi": 38,
          "time": 215.99999999999224,
          "velocity": 0.6771653543307087,
          "duration": 2.3999999999995225
        },
        {
          "name": "A2",
          "midi": 45,
          "time": 215.99999999999224,
          "velocity": 0.6771653543307087,
          "duration": 2.3999999999995225
        },
        {
          "name": "D3",
          "midi": 50,
          "time": 216.00499999999224,
          "velocity": 0.6771653543307087,
          "duration": 2.394999999999527
        }
      ],
      "controlChanges": {
        "7": [
          {
            "number": 7,
            "time": 0,
            "value": 1
          }
        ],
        "10": [
          {
            "number": 10,
            "time": 0,
            "value": 0.5039370078740157
          }
        ],
        "11": [
          {
            "number": 11,
            "time": 215.99499999999225,
            "value": 1
          },
          {
            "number": 11,
            "time": 215.99999999999224,
            "value": 0.9921259842519685
          },
          {
            "number": 11,
            "time": 216.22499999999224,
            "value": 0.984251968503937
          },
          {
            "number": 11,
            "time": 216.31999999999223,
            "value": 0.9763779527559056
          },
          {
            "number": 11,
            "time": 216.38999999999223,
            "value": 0.968503937007874
          },
          {
            "number": 11,
            "time": 216.42499999999222,
            "value": 0.9606299212598425
          },
          {
            "number": 11,
            "time": 216.4999999999922,
            "value": 0.952755905511811
          },
          {
            "number": 11,
            "time": 216.5049999999922,
            "value": 0.984251968503937
          },
          {
            "number": 11,
            "time": 216.52499999999222,
            "value": 0.9763779527559056
          },
          {
            "number": 11,
            "time": 216.5649999999922,
            "value": 0.9606299212598425
          },
          {
            "number": 11,
            "time": 216.5749999999922,
            "value": 0.952755905511811
          },
          {
            "number": 11,
            "time": 216.6249999999922,
            "value": 0.937007874015748
          },
          {
            "number": 11,
            "time": 216.6949999999922,
            "value": 0.889763779527559
          },
          {
            "number": 11,
            "time": 216.74499999999222,
            "value": 0.8740157480314961
          },
          {
            "number": 11,
            "time": 216.80499999999222,
            "value": 0.8582677165354331
          },
          {
            "number": 11,
            "time": 216.8749999999922,
            "value": 0.8110236220472441
          },
          {
            "number": 11,
            "time": 216.9499999999922,
            "value": 0.7952755905511811
          },
          {
            "number": 11,
            "time": 217.0199999999922,
            "value": 0.7795275590551181
          },
          {
            "number": 11,
            "time": 217.09499999999218,
            "value": 0.7637795275590551
          },
          {
            "number": 11,
            "time": 217.15499999999219,
            "value": 0.7165354330708661
          },
          {
            "number": 11,
            "time": 217.22499999999218,
            "value": 0.7086614173228346
          },
          {
            "number": 11,
            "time": 217.2749999999922,
            "value": 0.6929133858267716
          },
          {
            "number": 11,
            "time": 217.3349999999922,
            "value": 0.6771653543307087
          },
          {
            "number": 11,
            "time": 217.37999999999218,
            "value": 0.6614173228346457
          },
          {
            "number": 11,
            "time": 217.41499999999218,
            "value": 0.6535433070866141
          },
          {
            "number": 11,
            "time": 217.45499999999217,
            "value": 0.6377952755905512
          },
          {
            "number": 11,
            "time": 217.48999999999216,
            "value": 0.6220472440944882
          },
          {
            "number": 11,
            "time": 217.53499999999215,
            "value": 0.6141732283464567
          },
          {
            "number": 11,
            "time": 217.57499999999214,
            "value": 0.5669291338582677
          },
          {
            "number": 11,
            "time": 217.61999999999213,
            "value": 0.5511811023622047
          },
          {
            "number": 11,
            "time": 217.66999999999214,
            "value": 0.5354330708661418
          },
          {
            "number": 11,
            "time": 217.71499999999213,
            "value": 0.5196850393700787
          },
          {
            "number": 11,
            "time": 217.75499999999212,
            "value": 0.5039370078740157
          },
          {
            "number": 11,
            "time": 217.78999999999212,
            "value": 0.4881889763779528
          },
          {
            "number": 11,
            "time": 217.82499999999212,
            "value": 0.47244094488188976
          },
          {
            "number": 11,
            "time": 217.8599999999921,
            "value": 0.4645669291338583
          },
          {
            "number": 11,
            "time": 217.8949999999921,
            "value": 0.44881889763779526
          },
          {
            "number": 11,
            "time": 217.9099999999921,
            "value": 0.4409448818897638
          },
          {
            "number": 11,
            "time": 217.9199999999921,
            "value": 0.4330708661417323
          },
          {
            "number": 11,
            "time": 217.93499999999207,
            "value": 0.41732283464566927
          },
          {
            "number": 11,
            "time": 217.94499999999206,
            "value": 0.4094488188976378
          },
          {
            "number": 11,
            "time": 217.95499999999205,
            "value": 0.3937007874015748
          },
          {
            "number": 11,
            "time": 217.96999999999204,
            "value": 0.3779527559055118
          },
          {
            "number": 11,
            "time": 217.97999999999203,
            "value": 0.36220472440944884
          },
          {
            "number": 11,
            "time": 218.01499999999203,
            "value": 0.3464566929133858
          },
          {
            "number": 11,
            "time": 218.05499999999202,
            "value": 0.33858267716535434
          },
          {
            "number": 11,
            "time": 218.05999999999202,
            "value": 0.3228346456692913
          },
          {
            "number": 11,
            "time": 218.094999999992,
            "value": 0.31496062992125984
          },
          {
            "number": 11,
            "time": 218.104999999992,
            "value": 0.2992125984251969
          },
          {
            "number": 11,
            "time": 218.119999999992,
            "value": 0.29133858267716534
          },
          {
            "number": 11,
            "time": 218.12999999999198,
            "value": 0.2755905511811024
          },
          {
            "number": 11,
            "time": 218.14499999999197,
            "value": 0.25984251968503935
          },
          {
            "number": 11,
            "time": 218.14999999999196,
            "value": 0.25196850393700787
          },
          {
            "number": 11,
            "time": 218.15999999999195,
            "value": 0.2440944881889764
          },
          {
            "number": 11,
            "time": 218.17499999999194,
            "value": 0.2283464566929134
          },
          {
            "number": 11,
            "time": 218.17999999999194,
            "value": 0.2204724409448819
          },
          {
            "number": 11,
            "time": 218.18999999999193,
            "value": 0.2047244094488189
          },
          {
            "number": 11,
            "time": 218.19499999999192,
            "value": 0.1968503937007874
          },
          {
            "number": 11,
            "time": 218.2049999999919,
            "value": 0.1889763779527559
          },
          {
            "number": 11,
            "time": 218.2149999999919,
            "value": 0.1732283464566929
          },
          {
            "number": 11,
            "time": 218.2199999999919,
            "value": 0.16535433070866143
          },
          {
            "number": 11,
            "time": 218.23499999999189,
            "value": 0.15748031496062992
          },
          {
            "number": 11,
            "time": 218.23999999999188,
            "value": 0.14960629921259844
          },
          {
            "number": 11,
            "time": 218.24499999999188,
            "value": 0.13385826771653545
          },
          {
            "number": 11,
            "time": 218.24999999999187,
            "value": 0.12598425196850394
          },
          {
            "number": 11,
            "time": 218.25499999999187,
            "value": 0.11811023622047244
          },
          {
            "number": 11,
            "time": 218.26999999999185,
            "value": 0.10236220472440945
          },
          {
            "number": 11,
            "time": 218.27499999999185,
            "value": 0.09448818897637795
          },
          {
            "number": 11,
            "time": 218.27999999999184,
            "value": 0.08661417322834646
          },
          {
            "number": 11,
            "time": 218.29499999999183,
            "value": 0.07874015748031496
          },
          {
            "number": 11,
            "time": 218.29999999999183,
            "value": 0.07086614173228346
          },
          {
            "number": 11,
            "time": 218.30499999999182,
            "value": 0.06299212598425197
          },
          {
            "number": 11,
            "time": 218.30999999999182,
            "value": 0.05511811023622047
          },
          {
            "number": 11,
            "time": 218.3149999999918,
            "value": 0.047244094488188976
          },
          {
            "number": 11,
            "time": 218.3249999999918,
            "value": 0.03937007874015748
          },
          {
            "number": 11,
            "time": 218.3349999999918,
            "value": 0.023622047244094488
          },
          {
            "number": 11,
            "time": 218.3399999999918,
            "value": 0.007874015748031496
          },
          {
            "number": 11,
            "time": 218.35499999999178,
            "value": 0
          },
          {
            "number": 11,
            "time": 218.50999999999178,
            "value": 0.9921259842519685
          }
        ],
        "32": [
          {
            "number": 32,
            "time": 0,
            "value": 0.31496062992125984
          }
        ],
        "93": [
          {
            "number": 93,
            "time": 165.42999999999998,
            "value": 0.4015748031496063
          }
        ],
        "119": [
          {
            "number": 119,
            "time": 168.00499999999997,
            "value": 0.2755905511811024
          },
          {
            "number": 119,
            "time": 168.14999999999998,
            "value": 0.7244094488188977
          },
          {
            "number": 119,
            "time": 168.22499999999997,
            "value": 0
          },
          {
            "number": 119,
            "time": 168.30999999999995,
            "value": 0.8188976377952756
          },
          {
            "number": 119,
            "time": 168.45499999999996,
            "value": 0.18110236220472442
          },
          {
            "number": 119,
            "time": 168.52499999999995,
            "value": 0
          },
          {
            "number": 119,
            "time": 168.90499999999972,
            "value": 0.3464566929133858
          },
          {
            "number": 119,
            "time": 169.04999999999973,
            "value": 0.6535433070866141
          },
          {
            "number": 119,
            "time": 169.12499999999972,
            "value": 0
          },
          {
            "number": 119,
            "time": 169.2049999999997,
            "value": 0.9133858267716536
          },
          {
            "number": 119,
            "time": 169.3499999999997,
            "value": 0.08661417322834646
          },
          {
            "number": 119,
            "time": 169.4249999999997,
            "value": 0
          },
          {
            "number": 119,
            "time": 169.50999999999968,
            "value": 0.5984251968503937
          },
          {
            "number": 119,
            "time": 169.6549999999997,
            "value": 0.4015748031496063
          },
          {
            "number": 119,
            "time": 169.72499999999968,
            "value": 0
          },
          {
            "number": 119,
            "time": 170.10499999999942,
            "value": 0.2204724409448819
          },
          {
            "number": 119,
            "time": 170.24999999999943,
            "value": 0.7795275590551181
          },
          {
            "number": 119,
            "time": 170.32499999999942,
            "value": 0
          },
          {
            "number": 119,
            "time": 170.4049999999994,
            "value": 0.7244094488188977
          },
          {
            "number": 119,
            "time": 170.54999999999941,
            "value": 0.2755905511811024
          },
          {
            "number": 119,
            "time": 170.6249999999994,
            "value": 0
          },
          {
            "number": 119,
            "time": 170.7049999999994,
            "value": 0.3228346456692913
          },
          {
            "number": 119,
            "time": 170.84499999999937,
            "value": 0.6771653543307087
          },
          {
            "number": 119,
            "time": 170.91499999999937,
            "value": 0
          },
          {
            "number": 119,
            "time": 171.20999999999918,
            "value": 0.4409448818897638
          },
          {
            "number": 119,
            "time": 171.25499999999917,
            "value": 0.5590551181102362
          },
          {
            "number": 119,
            "time": 171.27499999999918,
            "value": 0
          },
          {
            "number": 119,
            "time": 171.30499999999918,
            "value": 0.8110236220472441
          },
          {
            "number": 119,
            "time": 171.59999999999917,
            "value": 0.1889763779527559
          },
          {
            "number": 119,
            "time": 171.74999999999918,
            "value": 0
          },
          {
            "number": 119,
            "time": 171.89999999999918,
            "value": 0.6535433070866141
          },
          {
            "number": 119,
            "time": 172.03999999999917,
            "value": 0.3464566929133858
          },
          {
            "number": 119,
            "time": 172.10999999999916,
            "value": 0
          },
          {
            "number": 119,
            "time": 172.40999999999897,
            "value": 0.5669291338582677
          },
          {
            "number": 119,
            "time": 172.45499999999896,
            "value": 0.4330708661417323
          },
          {
            "number": 119,
            "time": 172.47499999999897,
            "value": 0
          },
          {
            "number": 119,
            "time": 172.50499999999897,
            "value": 0.14173228346456693
          },
          {
            "number": 119,
            "time": 172.64999999999898,
            "value": 0.8582677165354331
          },
          {
            "number": 119,
            "time": 172.72499999999897,
            "value": 0
          },
          {
            "number": 119,
            "time": 172.80499999999896,
            "value": 0.7874015748031497
          },
          {
            "number": 119,
            "time": 172.94999999999897,
            "value": 0.2125984251968504
          },
          {
            "number": 119,
            "time": 173.02499999999895,
            "value": 0
          },
          {
            "number": 119,
            "time": 173.10999999999893,
            "value": 0.2992125984251969
          },
          {
            "number": 119,
            "time": 173.25499999999894,
            "value": 0.7007874015748031
          },
          {
            "number": 119,
            "time": 173.32499999999894,
            "value": 0
          },
          {
            "number": 119,
            "time": 173.7049999999987,
            "value": 0.8031496062992126
          },
          {
            "number": 119,
            "time": 173.84999999999872,
            "value": 0.1968503937007874
          },
          {
            "number": 119,
            "time": 173.9249999999987,
            "value": 0
          },
          {
            "number": 119,
            "time": 174.0049999999987,
            "value": 0.3543307086614173
          },
          {
            "number": 119,
            "time": 174.1499999999987,
            "value": 0.6456692913385826
          },
          {
            "number": 119,
            "time": 174.2249999999987,
            "value": 0
          },
          {
            "number": 119,
            "time": 174.30999999999867,
            "value": 0.937007874015748
          },
          {
            "number": 119,
            "time": 174.45499999999868,
            "value": 0.06299212598425197
          },
          {
            "number": 119,
            "time": 174.52499999999867,
            "value": 0
          },
          {
            "number": 119,
            "time": 174.9049999999984,
            "value": 0.5984251968503937
          },
          {
            "number": 119,
            "time": 175.04999999999842,
            "value": 0.4015748031496063
          },
          {
            "number": 119,
            "time": 175.1249999999984,
            "value": 0
          },
          {
            "number": 119,
            "time": 175.2049999999984,
            "value": 0.5118110236220472
          },
          {
            "number": 119,
            "time": 175.3499999999984,
            "value": 0.4881889763779528
          },
          {
            "number": 119,
            "time": 175.4249999999984,
            "value": 0
          },
          {
            "number": 119,
            "time": 175.50999999999837,
            "value": 0.14960629921259844
          },
          {
            "number": 119,
            "time": 175.65499999999838,
            "value": 0.8503937007874016
          },
          {
            "number": 119,
            "time": 175.72499999999837,
            "value": 0
          },
          {
            "number": 119,
            "time": 176.10499999999814,
            "value": 0.6535433070866141
          },
          {
            "number": 119,
            "time": 176.24999999999815,
            "value": 0.3464566929133858
          },
          {
            "number": 119,
            "time": 176.32499999999814,
            "value": 0
          },
          {
            "number": 119,
            "time": 176.40499999999813,
            "value": 0.36220472440944884
          },
          {
            "number": 119,
            "time": 176.54999999999814,
            "value": 0.6377952755905512
          },
          {
            "number": 119,
            "time": 176.62499999999812,
            "value": 0
          },
          {
            "number": 119,
            "time": 176.7099999999981,
            "value": 0.9212598425196851
          },
          {
            "number": 119,
            "time": 176.8549999999981,
            "value": 0.07874015748031496
          },
          {
            "number": 119,
            "time": 176.9249999999981,
            "value": 0
          },
          {
            "number": 119,
            "time": 177.30499999999785,
            "value": 0.4881889763779528
          },
          {
            "number": 119,
            "time": 177.44999999999786,
            "value": 0.5118110236220472
          },
          {
            "number": 119,
            "time": 177.52499999999785,
            "value": 0
          },
          {
            "number": 119,
            "time": 177.60499999999783,
            "value": 0.07086614173228346
          },
          {
            "number": 119,
            "time": 177.74999999999784,
            "value": 0.9291338582677166
          },
          {
            "number": 119,
            "time": 177.82499999999783,
            "value": 0
          },
          {
            "number": 119,
            "time": 177.9099999999978,
            "value": 0.5039370078740157
          },
          {
            "number": 119,
            "time": 178.05499999999782,
            "value": 0.49606299212598426
          },
          {
            "number": 119,
            "time": 178.1249999999978,
            "value": 0
          },
          {
            "number": 119,
            "time": 178.2049999999978,
            "value": 0.5905511811023622
          },
          {
            "number": 119,
            "time": 178.3499999999978,
            "value": 0.4094488188976378
          },
          {
            "number": 119,
            "time": 178.4249999999978,
            "value": 0
          },
          {
            "number": 119,
            "time": 178.50999999999777,
            "value": 0.33858267716535434
          },
          {
            "number": 119,
            "time": 178.65499999999778,
            "value": 0.6614173228346457
          },
          {
            "number": 119,
            "time": 178.72499999999778,
            "value": 0
          },
          {
            "number": 119,
            "time": 178.80499999999776,
            "value": 0.2125984251968504
          },
          {
            "number": 119,
            "time": 178.94999999999777,
            "value": 0.7874015748031497
          },
          {
            "number": 119,
            "time": 179.02499999999776,
            "value": 0
          },
          {
            "number": 119,
            "time": 179.10999999999774,
            "value": 0.15748031496062992
          },
          {
            "number": 119,
            "time": 179.25499999999775,
            "value": 0.84251968503937
          },
          {
            "number": 119,
            "time": 179.32499999999774,
            "value": 0
          },
          {
            "number": 119,
            "time": 179.40499999999773,
            "value": 0.8661417322834646
          },
          {
            "number": 119,
            "time": 179.54999999999774,
            "value": 0.13385826771653545
          },
          {
            "number": 119,
            "time": 179.62499999999773,
            "value": 0
          },
          {
            "number": 119,
            "time": 179.7099999999977,
            "value": 0.5905511811023622
          },
          {
            "number": 119,
            "time": 179.85499999999772,
            "value": 0.4094488188976378
          },
          {
            "number": 119,
            "time": 179.9249999999977,
            "value": 0
          },
          {
            "number": 119,
            "time": 180.0049999999977,
            "value": 0.08661417322834646
          },
          {
            "number": 119,
            "time": 180.1499999999977,
            "value": 0.9133858267716536
          },
          {
            "number": 119,
            "time": 180.2249999999977,
            "value": 0
          },
          {
            "number": 119,
            "time": 180.30499999999768,
            "value": 0.06299212598425197
          },
          {
            "number": 119,
            "time": 180.4499999999977,
            "value": 0.937007874015748
          },
          {
            "number": 119,
            "time": 180.52499999999768,
            "value": 0
          },
          {
            "number": 119,
            "time": 180.60499999999766,
            "value": 0.06299212598425197
          },
          {
            "number": 119,
            "time": 180.74999999999767,
            "value": 0.937007874015748
          },
          {
            "number": 119,
            "time": 180.82499999999766,
            "value": 0
          },
          {
            "number": 119,
            "time": 180.90499999999764,
            "value": 0.7795275590551181
          },
          {
            "number": 119,
            "time": 181.04999999999765,
            "value": 0.2204724409448819
          },
          {
            "number": 119,
            "time": 181.12499999999764,
            "value": 0
          },
          {
            "number": 119,
            "time": 181.20499999999763,
            "value": 0.3700787401574803
          },
          {
            "number": 119,
            "time": 181.34999999999764,
            "value": 0.6299212598425197
          },
          {
            "number": 119,
            "time": 181.42499999999762,
            "value": 0
          },
          {
            "number": 119,
            "time": 181.5049999999976,
            "value": 0.9448818897637795
          },
          {
            "number": 119,
            "time": 181.64999999999762,
            "value": 0.05511811023622047
          },
          {
            "number": 119,
            "time": 181.7249999999976,
            "value": 0
          },
          {
            "number": 119,
            "time": 181.8049999999976,
            "value": 0.4881889763779528
          },
          {
            "number": 119,
            "time": 181.9499999999976,
            "value": 0.5118110236220472
          },
          {
            "number": 119,
            "time": 182.0249999999976,
            "value": 0
          },
          {
            "number": 119,
            "time": 182.10499999999757,
            "value": 1
          },
          {
            "number": 119,
            "time": 182.24999999999758,
            "value": 0
          },
          {
            "number": 119,
            "time": 182.32499999999757,
            "value": 0
          },
          {
            "number": 119,
            "time": 182.40499999999756,
            "value": 0.6614173228346457
          },
          {
            "number": 119,
            "time": 182.54999999999757,
            "value": 0.33858267716535434
          },
          {
            "number": 119,
            "time": 182.62499999999756,
            "value": 0
          },
          {
            "number": 119,
            "time": 182.70999999999754,
            "value": 0.2755905511811024
          },
          {
            "number": 119,
            "time": 182.85499999999755,
            "value": 0.7244094488188977
          },
          {
            "number": 119,
            "time": 182.92499999999754,
            "value": 0
          },
          {
            "number": 119,
            "time": 183.3049999999973,
            "value": 0.8188976377952756
          },
          {
            "number": 119,
            "time": 183.44999999999732,
            "value": 0.18110236220472442
          },
          {
            "number": 119,
            "time": 183.5249999999973,
            "value": 0
          },
          {
            "number": 119,
            "time": 183.6049999999973,
            "value": 0.3779527559055118
          },
          {
            "number": 119,
            "time": 183.7499999999973,
            "value": 0.6220472440944882
          },
          {
            "number": 119,
            "time": 183.8249999999973,
            "value": 0
          },
          {
            "number": 119,
            "time": 183.90999999999727,
            "value": 0.09448818897637795
          },
          {
            "number": 119,
            "time": 184.05499999999728,
            "value": 0.905511811023622
          },
          {
            "number": 119,
            "time": 184.12499999999727,
            "value": 0
          }
        ]
      },
      "id": 7,
      "name": "info@singlouder.com",
      "instrumentNumber": 30,
      "instrument": "distortion guitar",
      "instrumentFamily": "guitar",
      "channelNumber": 5,
      "isPercussion": false
    },
    {
      "startTime": 192,
      "duration": 216.45000000000002,
      "length": 16,
      "notes": [
        {
          "name": "F5",
          "midi": 77,
          "time": 192,
          "velocity": 0.48031496062992124,
          "duration": 4.2000000000000455
        },
        {
          "name": "D5",
          "midi": 74,
          "time": 196.20000000000005,
          "velocity": 0.49606299212598426,
          "duration": 0.29999999999998295
        },
        {
          "name": "G5",
          "midi": 79,
          "time": 196.20000000000005,
          "velocity": 0.49606299212598426,
          "duration": 0.29999999999998295
        },
        {
          "name": "G5",
          "midi": 79,
          "time": 196.50000000000003,
          "velocity": 0.4645669291338583,
          "duration": 0.29999999999998295
        },
        {
          "name": "C5",
          "midi": 72,
          "time": 196.50000000000003,
          "velocity": 0.4645669291338583,
          "duration": 0.29999999999998295
        },
        {
          "name": "E5",
          "midi": 76,
          "time": 196.50000000000003,
          "velocity": 0.4645669291338583,
          "duration": 0.29999999999998295
        },
        {
          "name": "A5",
          "midi": 81,
          "time": 196.8,
          "velocity": 0.48031496062992124,
          "duration": 4.350000000000023
        },
        {
          "name": "A5",
          "midi": 81,
          "time": 201.60000000000005,
          "velocity": 0.48031496062992124,
          "duration": 4.2000000000000455
        },
        {
          "name": "F5",
          "midi": 77,
          "time": 201.60000000000005,
          "velocity": 0.48031496062992124,
          "duration": 4.2000000000000455
        },
        {
          "name": "A#5",
          "midi": 82,
          "time": 205.8000000000001,
          "velocity": 0.5748031496062992,
          "duration": 0.29999999999998295
        },
        {
          "name": "A#5",
          "midi": 82,
          "time": 206.10000000000008,
          "velocity": 0.5826771653543307,
          "duration": 0.29999999999998295
        },
        {
          "name": "C6",
          "midi": 84,
          "time": 206.40000000000006,
          "velocity": 0.48031496062992124,
          "duration": 4.349999999999966
        },
        {
          "name": "B5",
          "midi": 83,
          "time": 210.75500000000002,
          "velocity": 0.48031496062992124,
          "duration": 0.4199999999999875
        },
        {
          "name": "A5",
          "midi": 81,
          "time": 211.20000000000002,
          "velocity": 0.3937007874015748,
          "duration": 4.7900000000000205
        },
        {
          "name": "F5",
          "midi": 77,
          "time": 211.20000000000002,
          "velocity": 0.3937007874015748,
          "duration": 4.77000000000001
        },
        {
          "name": "F4",
          "midi": 65,
          "time": 216.30000000000004,
          "velocity": 0.3937007874015748,
          "duration": 0.14999999999997726
        }
      ],
      "controlChanges": {
        "7": [
          {
            "number": 7,
            "time": 0,
            "value": 1
          }
        ],
        "10": [
          {
            "number": 10,
            "time": 0,
            "value": 0.5039370078740157
          }
        ],
        "11": [
          {
            "number": 11,
            "time": 206.41500000000005,
            "value": 0.984251968503937
          },
          {
            "number": 11,
            "time": 206.52500000000006,
            "value": 0.9763779527559056
          },
          {
            "number": 11,
            "time": 206.64500000000007,
            "value": 0.968503937007874
          },
          {
            "number": 11,
            "time": 206.69500000000008,
            "value": 0.9606299212598425
          },
          {
            "number": 11,
            "time": 206.7450000000001,
            "value": 0.952755905511811
          },
          {
            "number": 11,
            "time": 206.8250000000001,
            "value": 0.9448818897637795
          },
          {
            "number": 11,
            "time": 206.9000000000001,
            "value": 0.937007874015748
          },
          {
            "number": 11,
            "time": 206.9850000000001,
            "value": 0.9212598425196851
          },
          {
            "number": 11,
            "time": 207.0550000000001,
            "value": 0.9133858267716536
          },
          {
            "number": 11,
            "time": 207.1050000000001,
            "value": 0.905511811023622
          },
          {
            "number": 11,
            "time": 207.1650000000001,
            "value": 0.889763779527559
          },
          {
            "number": 11,
            "time": 207.2250000000001,
            "value": 0.8818897637795275
          },
          {
            "number": 11,
            "time": 207.2700000000001,
            "value": 0.8740157480314961
          },
          {
            "number": 11,
            "time": 207.3650000000001,
            "value": 0.8582677165354331
          },
          {
            "number": 11,
            "time": 207.4150000000001,
            "value": 0.8503937007874016
          },
          {
            "number": 11,
            "time": 207.46500000000012,
            "value": 0.84251968503937
          },
          {
            "number": 11,
            "time": 207.5100000000001,
            "value": 0.8346456692913385
          },
          {
            "number": 11,
            "time": 207.5450000000001,
            "value": 0.8267716535433071
          },
          {
            "number": 11,
            "time": 207.6050000000001,
            "value": 0.8188976377952756
          },
          {
            "number": 11,
            "time": 207.65500000000011,
            "value": 0.8110236220472441
          },
          {
            "number": 11,
            "time": 207.70500000000013,
            "value": 0.8031496062992126
          },
          {
            "number": 11,
            "time": 207.7500000000001,
            "value": 0.7952755905511811
          },
          {
            "number": 11,
            "time": 207.81000000000012,
            "value": 0.7874015748031497
          },
          {
            "number": 11,
            "time": 207.8450000000001,
            "value": 0.7795275590551181
          },
          {
            "number": 11,
            "time": 207.94500000000014,
            "value": 0.7716535433070866
          },
          {
            "number": 11,
            "time": 207.99000000000012,
            "value": 0.7637795275590551
          },
          {
            "number": 11,
            "time": 208.04000000000013,
            "value": 0.7559055118110236
          },
          {
            "number": 11,
            "time": 208.14500000000015,
            "value": 0.7480314960629921
          },
          {
            "number": 11,
            "time": 208.19500000000016,
            "value": 0.7401574803149606
          },
          {
            "number": 11,
            "time": 208.24500000000018,
            "value": 0.7322834645669292
          },
          {
            "number": 11,
            "time": 208.34000000000017,
            "value": 0.7244094488188977
          },
          {
            "number": 11,
            "time": 208.38500000000016,
            "value": 0.7165354330708661
          },
          {
            "number": 11,
            "time": 208.49500000000018,
            "value": 0.7007874015748031
          },
          {
            "number": 11,
            "time": 208.6050000000002,
            "value": 0.6929133858267716
          },
          {
            "number": 11,
            "time": 208.65000000000018,
            "value": 0.6850393700787402
          },
          {
            "number": 11,
            "time": 208.7600000000002,
            "value": 0.6771653543307087
          },
          {
            "number": 11,
            "time": 208.8200000000002,
            "value": 0.6692913385826772
          },
          {
            "number": 11,
            "time": 208.9250000000002,
            "value": 0.6614173228346457
          },
          {
            "number": 11,
            "time": 209.6950000000002,
            "value": 0.6692913385826772
          },
          {
            "number": 11,
            "time": 209.7450000000002,
            "value": 0.6771653543307087
          },
          {
            "number": 11,
            "time": 209.82500000000022,
            "value": 0.6850393700787402
          },
          {
            "number": 11,
            "time": 209.91000000000022,
            "value": 0.6929133858267716
          },
          {
            "number": 11,
            "time": 209.9250000000002,
            "value": 0.7007874015748031
          },
          {
            "number": 11,
            "time": 209.9700000000002,
            "value": 0.7086614173228346
          },
          {
            "number": 11,
            "time": 210.0050000000002,
            "value": 0.7165354330708661
          },
          {
            "number": 11,
            "time": 210.0450000000002,
            "value": 0.7244094488188977
          },
          {
            "number": 11,
            "time": 210.09000000000017,
            "value": 0.7322834645669292
          },
          {
            "number": 11,
            "time": 210.14000000000019,
            "value": 0.7401574803149606
          },
          {
            "number": 11,
            "time": 210.15000000000018,
            "value": 0.7480314960629921
          },
          {
            "number": 11,
            "time": 210.22500000000016,
            "value": 0.7559055118110236
          },
          {
            "number": 11,
            "time": 210.23500000000016,
            "value": 0.7637795275590551
          },
          {
            "number": 11,
            "time": 210.24500000000015,
            "value": 0.7716535433070866
          },
          {
            "number": 11,
            "time": 210.28500000000014,
            "value": 0.7795275590551181
          },
          {
            "number": 11,
            "time": 210.29500000000013,
            "value": 0.7874015748031497
          },
          {
            "number": 11,
            "time": 210.32000000000014,
            "value": 0.8031496062992126
          },
          {
            "number": 11,
            "time": 210.33500000000012,
            "value": 0.8110236220472441
          },
          {
            "number": 11,
            "time": 210.3500000000001,
            "value": 0.8188976377952756
          },
          {
            "number": 11,
            "time": 210.3650000000001,
            "value": 0.8267716535433071
          },
          {
            "number": 11,
            "time": 210.4050000000001,
            "value": 0.8346456692913385
          },
          {
            "number": 11,
            "time": 210.41000000000008,
            "value": 0.84251968503937
          },
          {
            "number": 11,
            "time": 210.44500000000008,
            "value": 0.8503937007874016
          },
          {
            "number": 11,
            "time": 210.45500000000007,
            "value": 0.8582677165354331
          },
          {
            "number": 11,
            "time": 210.47000000000006,
            "value": 0.8661417322834646
          },
          {
            "number": 11,
            "time": 210.48000000000005,
            "value": 0.8740157480314961
          },
          {
            "number": 11,
            "time": 210.49500000000003,
            "value": 0.8818897637795275
          },
          {
            "number": 11,
            "time": 210.53500000000003,
            "value": 0.889763779527559
          },
          {
            "number": 11,
            "time": 210.54000000000002,
            "value": 0.8976377952755905
          },
          {
            "number": 11,
            "time": 210.555,
            "value": 0.905511811023622
          },
          {
            "number": 11,
            "time": 210.57500000000002,
            "value": 0.9133858267716536
          },
          {
            "number": 11,
            "time": 210.60500000000002,
            "value": 0.9212598425196851
          },
          {
            "number": 11,
            "time": 210.63000000000002,
            "value": 0.9291338582677166
          },
          {
            "number": 11,
            "time": 210.68000000000004,
            "value": 0.937007874015748
          },
          {
            "number": 11,
            "time": 210.69500000000002,
            "value": 0.9448818897637795
          },
          {
            "number": 11,
            "time": 210.71500000000003,
            "value": 0.952755905511811
          },
          {
            "number": 11,
            "time": 210.72000000000003,
            "value": 0.9606299212598425
          },
          {
            "number": 11,
            "time": 210.74000000000004,
            "value": 0.968503937007874
          },
          {
            "number": 11,
            "time": 210.75000000000003,
            "value": 0.9763779527559056
          },
          {
            "number": 11,
            "time": 210.77,
            "value": 0.984251968503937
          },
          {
            "number": 11,
            "time": 210.775,
            "value": 0.9921259842519685
          },
          {
            "number": 11,
            "time": 210.79500000000002,
            "value": 1
          }
        ],
        "32": [
          {
            "number": 32,
            "time": 0,
            "value": 0.25196850393700787
          }
        ],
        "93": [
          {
            "number": 93,
            "time": 189.45,
            "value": 0.4330708661417323
          }
        ],
        "119": [
          {
            "number": 119,
            "time": 192,
            "value": 0.8503937007874016
          },
          {
            "number": 119,
            "time": 192.495,
            "value": 0.14960629921259844
          },
          {
            "number": 119,
            "time": 192.745,
            "value": 0
          },
          {
            "number": 119,
            "time": 192.995,
            "value": 0.3858267716535433
          },
          {
            "number": 119,
            "time": 193.49,
            "value": 0.6141732283464567
          },
          {
            "number": 119,
            "time": 193.74,
            "value": 0
          },
          {
            "number": 119,
            "time": 193.99,
            "value": 0.9212598425196851
          },
          {
            "number": 119,
            "time": 194.485,
            "value": 0.07874015748031496
          },
          {
            "number": 119,
            "time": 194.735,
            "value": 0
          },
          {
            "number": 119,
            "time": 194.985,
            "value": 0.48031496062992124
          },
          {
            "number": 119,
            "time": 195.48000000000002,
            "value": 0.5196850393700787
          },
          {
            "number": 119,
            "time": 195.73000000000002,
            "value": 0
          },
          {
            "number": 119,
            "time": 195.98000000000002,
            "value": 0.16535433070866143
          },
          {
            "number": 119,
            "time": 196.09000000000003,
            "value": 0.8346456692913385
          },
          {
            "number": 119,
            "time": 196.14500000000004,
            "value": 0
          },
          {
            "number": 119,
            "time": 196.20000000000005,
            "value": 0.7952755905511811
          },
          {
            "number": 119,
            "time": 196.35000000000005,
            "value": 0.2047244094488189
          },
          {
            "number": 119,
            "time": 196.42500000000004,
            "value": 0
          },
          {
            "number": 119,
            "time": 196.50000000000003,
            "value": 0.29133858267716534
          },
          {
            "number": 119,
            "time": 196.65000000000003,
            "value": 0.7086614173228346
          },
          {
            "number": 119,
            "time": 196.72500000000002,
            "value": 0
          },
          {
            "number": 119,
            "time": 196.8,
            "value": 0.8976377952755905
          },
          {
            "number": 119,
            "time": 197.29500000000002,
            "value": 0.10236220472440945
          },
          {
            "number": 119,
            "time": 197.54500000000002,
            "value": 0
          },
          {
            "number": 119,
            "time": 197.79500000000002,
            "value": 0.007874015748031496
          },
          {
            "number": 119,
            "time": 198.29000000000002,
            "value": 0.9921259842519685
          },
          {
            "number": 119,
            "time": 198.54000000000002,
            "value": 0
          },
          {
            "number": 119,
            "time": 198.79000000000002,
            "value": 0.3779527559055118
          },
          {
            "number": 119,
            "time": 199.28500000000003,
            "value": 0.6220472440944882
          },
          {
            "number": 119,
            "time": 199.53500000000003,
            "value": 0
          },
          {
            "number": 119,
            "time": 199.78500000000003,
            "value": 0.2204724409448819
          },
          {
            "number": 119,
            "time": 200.28000000000003,
            "value": 0.7795275590551181
          },
          {
            "number": 119,
            "time": 200.53000000000003,
            "value": 0
          },
          {
            "number": 119,
            "time": 200.78000000000003,
            "value": 0.13385826771653545
          },
          {
            "number": 119,
            "time": 200.96500000000003,
            "value": 0.8661417322834646
          },
          {
            "number": 119,
            "time": 201.05500000000004,
            "value": 0
          },
          {
            "number": 119,
            "time": 201.15000000000003,
            "value": 0.7165354330708661
          },
          {
            "number": 119,
            "time": 201.37500000000003,
            "value": 0.28346456692913385
          },
          {
            "number": 119,
            "time": 201.48500000000004,
            "value": 0
          },
          {
            "number": 119,
            "time": 201.60000000000005,
            "value": 0.3543307086614173
          },
          {
            "number": 119,
            "time": 202.09500000000006,
            "value": 0.6456692913385826
          },
          {
            "number": 119,
            "time": 202.34500000000006,
            "value": 0
          },
          {
            "number": 119,
            "time": 202.59500000000006,
            "value": 0.8740157480314961
          },
          {
            "number": 119,
            "time": 203.09000000000006,
            "value": 0.12598425196850394
          },
          {
            "number": 119,
            "time": 203.34000000000006,
            "value": 0
          },
          {
            "number": 119,
            "time": 203.59000000000006,
            "value": 0.3700787401574803
          },
          {
            "number": 119,
            "time": 204.08500000000006,
            "value": 0.6299212598425197
          },
          {
            "number": 119,
            "time": 204.33500000000006,
            "value": 0
          },
          {
            "number": 119,
            "time": 204.58500000000006,
            "value": 0.9291338582677166
          },
          {
            "number": 119,
            "time": 205.08000000000007,
            "value": 0.07086614173228346
          },
          {
            "number": 119,
            "time": 205.33000000000007,
            "value": 0
          },
          {
            "number": 119,
            "time": 205.58000000000007,
            "value": 0.5039370078740157
          },
          {
            "number": 119,
            "time": 205.69000000000008,
            "value": 0.49606299212598426
          },
          {
            "number": 119,
            "time": 205.7450000000001,
            "value": 0
          },
          {
            "number": 119,
            "time": 205.8000000000001,
            "value": 0.16535433070866143
          },
          {
            "number": 119,
            "time": 205.9500000000001,
            "value": 0.8346456692913385
          },
          {
            "number": 119,
            "time": 206.0250000000001,
            "value": 0
          },
          {
            "number": 119,
            "time": 206.10000000000008,
            "value": 0.07874015748031496
          },
          {
            "number": 119,
            "time": 206.25000000000009,
            "value": 0.9212598425196851
          },
          {
            "number": 119,
            "time": 206.32500000000007,
            "value": 0
          },
          {
            "number": 119,
            "time": 206.41500000000005,
            "value": 0.7244094488188977
          },
          {
            "number": 119,
            "time": 206.47000000000006,
            "value": 0.2755905511811024
          },
          {
            "number": 119,
            "time": 206.49500000000006,
            "value": 0
          },
          {
            "number": 119,
            "time": 206.52500000000006,
            "value": 0.2204724409448819
          },
          {
            "number": 119,
            "time": 206.58500000000006,
            "value": 0.7795275590551181
          },
          {
            "number": 119,
            "time": 206.61500000000007,
            "value": 0
          },
          {
            "number": 119,
            "time": 206.7450000000001,
            "value": 0.937007874015748
          },
          {
            "number": 119,
            "time": 206.78500000000008,
            "value": 0.06299212598425197
          },
          {
            "number": 119,
            "time": 206.8050000000001,
            "value": 0
          },
          {
            "number": 119,
            "time": 206.9000000000001,
            "value": 0.4881889763779528
          },
          {
            "number": 119,
            "time": 206.94000000000008,
            "value": 0.5118110236220472
          },
          {
            "number": 119,
            "time": 206.9600000000001,
            "value": 0
          },
          {
            "number": 119,
            "time": 207.2700000000001,
            "value": 0.05511811023622047
          },
          {
            "number": 119,
            "time": 207.31500000000008,
            "value": 0.9448818897637795
          },
          {
            "number": 119,
            "time": 207.3400000000001,
            "value": 0
          },
          {
            "number": 119,
            "time": 207.8450000000001,
            "value": 0.6456692913385826
          },
          {
            "number": 119,
            "time": 207.89500000000012,
            "value": 0.3543307086614173
          },
          {
            "number": 119,
            "time": 207.92000000000013,
            "value": 0
          },
          {
            "number": 119,
            "time": 208.04000000000013,
            "value": 0.07086614173228346
          },
          {
            "number": 119,
            "time": 208.09000000000015,
            "value": 0.9291338582677166
          },
          {
            "number": 119,
            "time": 208.11500000000015,
            "value": 0
          },
          {
            "number": 119,
            "time": 208.24500000000018,
            "value": 0.15748031496062992
          },
          {
            "number": 119,
            "time": 208.29000000000016,
            "value": 0.84251968503937
          },
          {
            "number": 119,
            "time": 208.31500000000017,
            "value": 0
          },
          {
            "number": 119,
            "time": 208.38500000000016,
            "value": 0.9133858267716536
          },
          {
            "number": 119,
            "time": 208.44000000000017,
            "value": 0.08661417322834646
          },
          {
            "number": 119,
            "time": 208.46500000000017,
            "value": 0
          },
          {
            "number": 119,
            "time": 208.49500000000018,
            "value": 0.7874015748031497
          },
          {
            "number": 119,
            "time": 208.55000000000018,
            "value": 0.2125984251968504
          },
          {
            "number": 119,
            "time": 208.5750000000002,
            "value": 0
          },
          {
            "number": 119,
            "time": 208.65000000000018,
            "value": 0.7322834645669292
          },
          {
            "number": 119,
            "time": 208.70500000000018,
            "value": 0.2677165354330709
          },
          {
            "number": 119,
            "time": 208.7300000000002,
            "value": 0
          },
          {
            "number": 119,
            "time": 208.8200000000002,
            "value": 0.4330708661417323
          },
          {
            "number": 119,
            "time": 208.8700000000002,
            "value": 0.5669291338582677
          },
          {
            "number": 119,
            "time": 208.8950000000002,
            "value": 0
          },
          {
            "number": 119,
            "time": 208.9250000000002,
            "value": 0.15748031496062992
          },
          {
            "number": 119,
            "time": 209.3100000000002,
            "value": 0.84251968503937
          },
          {
            "number": 119,
            "time": 209.5000000000002,
            "value": 0
          },
          {
            "number": 119,
            "time": 209.7450000000002,
            "value": 0.6614173228346457
          },
          {
            "number": 119,
            "time": 209.7850000000002,
            "value": 0.33858267716535434
          },
          {
            "number": 119,
            "time": 209.8050000000002,
            "value": 0
          },
          {
            "number": 119,
            "time": 209.82500000000022,
            "value": 0.6377952755905512
          },
          {
            "number": 119,
            "time": 209.8650000000002,
            "value": 0.36220472440944884
          },
          {
            "number": 119,
            "time": 209.88500000000022,
            "value": 0
          },
          {
            "number": 119,
            "time": 210.79500000000002,
            "value": 0.6377952755905512
          },
          {
            "number": 119,
            "time": 210.985,
            "value": 0.36220472440944884
          },
          {
            "number": 119,
            "time": 211.08,
            "value": 0
          },
          {
            "number": 119,
            "time": 211.20000000000002,
            "value": 0.3464566929133858
          },
          {
            "number": 119,
            "time": 211.69500000000002,
            "value": 0.6535433070866141
          },
          {
            "number": 119,
            "time": 211.94500000000002,
            "value": 0
          },
          {
            "number": 119,
            "time": 212.19500000000002,
            "value": 0.9448818897637795
          },
          {
            "number": 119,
            "time": 212.69000000000003,
            "value": 0.05511811023622047
          },
          {
            "number": 119,
            "time": 212.94000000000003,
            "value": 0
          },
          {
            "number": 119,
            "time": 213.19000000000003,
            "value": 0.5118110236220472
          },
          {
            "number": 119,
            "time": 213.68500000000003,
            "value": 0.4881889763779528
          },
          {
            "number": 119,
            "time": 213.93500000000003,
            "value": 0
          },
          {
            "number": 119,
            "time": 214.18500000000003,
            "value": 0.05511811023622047
          },
          {
            "number": 119,
            "time": 214.68000000000004,
            "value": 0.9448818897637795
          },
          {
            "number": 119,
            "time": 214.93000000000004,
            "value": 0
          },
          {
            "number": 119,
            "time": 215.18000000000004,
            "value": 0.5669291338582677
          },
          {
            "number": 119,
            "time": 215.57500000000005,
            "value": 0.4330708661417323
          },
          {
            "number": 119,
            "time": 215.77000000000004,
            "value": 0
          },
          {
            "number": 119,
            "time": 215.99000000000004,
            "value": 0.2283464566929134
          },
          {
            "number": 119,
            "time": 216.14500000000004,
            "value": 0.7716535433070866
          },
          {
            "number": 119,
            "time": 216.22000000000003,
            "value": 0
          },
          {
            "number": 119,
            "time": 216.30000000000004,
            "value": 0.8503937007874016
          },
          {
            "number": 119,
            "time": 216.37500000000003,
            "value": 0.14960629921259844
          },
          {
            "number": 119,
            "time": 216.41000000000003,
            "value": 0
          }
        ]
      },
      "id": 8,
      "instrumentNumber": 21,
      "instrument": "accordion",
      "instrumentFamily": "organ",
      "channelNumber": 6,
      "isPercussion": false
    },
    {
      "startTime": 0,
      "duration": 0,
      "length": 0,
      "notes": [],
      "controlChanges": {
        "7": [
          {
            "number": 7,
            "time": 0,
            "value": 1
          }
        ],
        "10": [
          {
            "number": 10,
            "time": 0,
            "value": 0.5039370078740157
          }
        ]
      },
      "id": 9
    },
    {
      "startTime": 105.6,
      "duration": 225.6000000000017,
      "length": 231,
      "notes": [
        {
          "name": "D2",
          "midi": 38,
          "time": 105.6,
          "velocity": 0.8267716535433071,
          "duration": 0.30000000000001137
        },
        {
          "name": "D2",
          "midi": 38,
          "time": 105.9,
          "velocity": 0.8267716535433071,
          "duration": 0.6000000000000085
        },
        {
          "name": "D2",
          "midi": 38,
          "time": 106.50000000000001,
          "velocity": 0.8267716535433071,
          "duration": 0.30000000000001137
        },
        {
          "name": "D2",
          "midi": 38,
          "time": 106.80000000000003,
          "velocity": 0.8267716535433071,
          "duration": 0.30000000000001137
        },
        {
          "name": "D2",
          "midi": 38,
          "time": 107.10000000000004,
          "velocity": 0.8267716535433071,
          "duration": 0.8999999999999915
        },
        {
          "name": "A#1",
          "midi": 34,
          "time": 108.00000000000003,
          "velocity": 0.8267716535433071,
          "duration": 0.30000000000001137
        },
        {
          "name": "A#1",
          "midi": 34,
          "time": 108.30000000000004,
          "velocity": 0.8267716535433071,
          "duration": 0.6000000000000085
        },
        {
          "name": "A#1",
          "midi": 34,
          "time": 108.90000000000005,
          "velocity": 0.8267716535433071,
          "duration": 0.30000000000001137
        },
        {
          "name": "A#1",
          "midi": 34,
          "time": 109.20000000000006,
          "velocity": 0.8267716535433071,
          "duration": 0.30000000000001137
        },
        {
          "name": "A#1",
          "midi": 34,
          "time": 109.50000000000007,
          "velocity": 0.8267716535433071,
          "duration": 0.8999999999999915
        },
        {
          "name": "F2",
          "midi": 41,
          "time": 110.40000000000006,
          "velocity": 0.8267716535433071,
          "duration": 0.30000000000001137
        },
        {
          "name": "F2",
          "midi": 41,
          "time": 110.70000000000007,
          "velocity": 0.8267716535433071,
          "duration": 0.6000000000000085
        },
        {
          "name": "F2",
          "midi": 41,
          "time": 111.30000000000008,
          "velocity": 0.8267716535433071,
          "duration": 0.30000000000001137
        },
        {
          "name": "F2",
          "midi": 41,
          "time": 111.6000000000001,
          "velocity": 0.8267716535433071,
          "duration": 0.30000000000001137
        },
        {
          "name": "F2",
          "midi": 41,
          "time": 111.9000000000001,
          "velocity": 0.8267716535433071,
          "duration": 0.8999999999999915
        },
        {
          "name": "F2",
          "midi": 41,
          "time": 112.8000000000001,
          "velocity": 0.8267716535433071,
          "duration": 0.30000000000001137
        },
        {
          "name": "F2",
          "midi": 41,
          "time": 113.10000000000011,
          "velocity": 0.8267716535433071,
          "duration": 0.6000000000000085
        },
        {
          "name": "F2",
          "midi": 41,
          "time": 113.70000000000012,
          "velocity": 0.8267716535433071,
          "duration": 0.30000000000001137
        },
        {
          "name": "F2",
          "midi": 41,
          "time": 114.00000000000013,
          "velocity": 0.8267716535433071,
          "duration": 0.30000000000001137
        },
        {
          "name": "F2",
          "midi": 41,
          "time": 114.30000000000014,
          "velocity": 0.8267716535433071,
          "duration": 0.8999999999999915
        },
        {
          "name": "D2",
          "midi": 38,
          "time": 115.20000000000013,
          "velocity": 0.8267716535433071,
          "duration": 0.30000000000001137
        },
        {
          "name": "D2",
          "midi": 38,
          "time": 115.50000000000014,
          "velocity": 0.8267716535433071,
          "duration": 0.6000000000000085
        },
        {
          "name": "D2",
          "midi": 38,
          "time": 116.10000000000015,
          "velocity": 0.8267716535433071,
          "duration": 0.30000000000001137
        },
        {
          "name": "D2",
          "midi": 38,
          "time": 116.40000000000016,
          "velocity": 0.8267716535433071,
          "duration": 0.30000000000001137
        },
        {
          "name": "D2",
          "midi": 38,
          "time": 116.70000000000017,
          "velocity": 0.8267716535433071,
          "duration": 0.8999999999999915
        },
        {
          "name": "A#1",
          "midi": 34,
          "time": 117.60000000000016,
          "velocity": 0.8267716535433071,
          "duration": 0.30000000000001137
        },
        {
          "name": "A#1",
          "midi": 34,
          "time": 117.90000000000018,
          "velocity": 0.8267716535433071,
          "duration": 0.6000000000000085
        },
        {
          "name": "A#1",
          "midi": 34,
          "time": 118.50000000000018,
          "velocity": 0.8267716535433071,
          "duration": 0.30000000000001137
        },
        {
          "name": "A#1",
          "midi": 34,
          "time": 118.8000000000002,
          "velocity": 0.8267716535433071,
          "duration": 0.30000000000001137
        },
        {
          "name": "A#1",
          "midi": 34,
          "time": 119.10000000000021,
          "velocity": 0.8267716535433071,
          "duration": 0.8999999999999915
        },
        {
          "name": "F2",
          "midi": 41,
          "time": 120.0000000000002,
          "velocity": 0.8267716535433071,
          "duration": 0.30000000000001137
        },
        {
          "name": "F2",
          "midi": 41,
          "time": 120.30000000000021,
          "velocity": 0.8267716535433071,
          "duration": 0.6000000000000085
        },
        {
          "name": "F2",
          "midi": 41,
          "time": 120.90000000000022,
          "velocity": 0.8267716535433071,
          "duration": 0.30000000000001137
        },
        {
          "name": "F2",
          "midi": 41,
          "time": 121.20000000000023,
          "velocity": 0.8267716535433071,
          "duration": 0.30000000000001137
        },
        {
          "name": "F2",
          "midi": 41,
          "time": 121.50000000000024,
          "velocity": 0.8267716535433071,
          "duration": 0.8999999999999915
        },
        {
          "name": "F2",
          "midi": 41,
          "time": 122.40000000000023,
          "velocity": 0.8267716535433071,
          "duration": 0.30000000000001137
        },
        {
          "name": "F2",
          "midi": 41,
          "time": 122.70000000000024,
          "velocity": 0.8267716535433071,
          "duration": 0.6000000000000085
        },
        {
          "name": "F2",
          "midi": 41,
          "time": 123.30000000000025,
          "velocity": 0.8267716535433071,
          "duration": 0.30000000000001137
        },
        {
          "name": "F2",
          "midi": 41,
          "time": 123.60000000000026,
          "velocity": 0.8267716535433071,
          "duration": 0.30000000000001137
        },
        {
          "name": "F2",
          "midi": 41,
          "time": 123.90000000000028,
          "velocity": 0.8267716535433071,
          "duration": 0.8999999999999915
        },
        {
          "name": "D2",
          "midi": 38,
          "time": 124.80000000000027,
          "velocity": 0.8267716535433071,
          "duration": 0.30000000000001137
        },
        {
          "name": "D2",
          "midi": 38,
          "time": 125.10000000000028,
          "velocity": 0.8267716535433071,
          "duration": 0.6000000000000085
        },
        {
          "name": "D2",
          "midi": 38,
          "time": 125.70000000000029,
          "velocity": 0.8267716535433071,
          "duration": 0.30000000000001137
        },
        {
          "name": "D2",
          "midi": 38,
          "time": 126.0000000000003,
          "velocity": 0.8267716535433071,
          "duration": 0.30000000000001137
        },
        {
          "name": "D2",
          "midi": 38,
          "time": 126.30000000000031,
          "velocity": 0.8267716535433071,
          "duration": 0.8999999999999915
        },
        {
          "name": "A#1",
          "midi": 34,
          "time": 127.2000000000003,
          "velocity": 0.8267716535433071,
          "duration": 0.30000000000001137
        },
        {
          "name": "A#1",
          "midi": 34,
          "time": 127.50000000000031,
          "velocity": 0.8267716535433071,
          "duration": 0.5999999999999943
        },
        {
          "name": "A#1",
          "midi": 34,
          "time": 128.1000000000003,
          "velocity": 0.8267716535433071,
          "duration": 0.30000000000001137
        },
        {
          "name": "A#1",
          "midi": 34,
          "time": 128.40000000000032,
          "velocity": 0.8267716535433071,
          "duration": 0.30000000000001137
        },
        {
          "name": "A#1",
          "midi": 34,
          "time": 128.70000000000033,
          "velocity": 0.8267716535433071,
          "duration": 0.9000000000000057
        },
        {
          "name": "F2",
          "midi": 41,
          "time": 129.60000000000034,
          "velocity": 0.8267716535433071,
          "duration": 0.30000000000001137
        },
        {
          "name": "F2",
          "midi": 41,
          "time": 129.90000000000035,
          "velocity": 0.8267716535433071,
          "duration": 0.5999999999999943
        },
        {
          "name": "F2",
          "midi": 41,
          "time": 130.50000000000034,
          "velocity": 0.8267716535433071,
          "duration": 0.30000000000001137
        },
        {
          "name": "F2",
          "midi": 41,
          "time": 130.80000000000035,
          "velocity": 0.8267716535433071,
          "duration": 0.30000000000001137
        },
        {
          "name": "F2",
          "midi": 41,
          "time": 131.10000000000036,
          "velocity": 0.8267716535433071,
          "duration": 0.9000000000000057
        },
        {
          "name": "F2",
          "midi": 41,
          "time": 132.00000000000037,
          "velocity": 0.8267716535433071,
          "duration": 0.30000000000001137
        },
        {
          "name": "F2",
          "midi": 41,
          "time": 132.30000000000038,
          "velocity": 0.8267716535433071,
          "duration": 0.5999999999999943
        },
        {
          "name": "F2",
          "midi": 41,
          "time": 132.90000000000038,
          "velocity": 0.8267716535433071,
          "duration": 0.30000000000001137
        },
        {
          "name": "F2",
          "midi": 41,
          "time": 133.2000000000004,
          "velocity": 0.8267716535433071,
          "duration": 0.30000000000001137
        },
        {
          "name": "F2",
          "midi": 41,
          "time": 133.5000000000004,
          "velocity": 0.8267716535433071,
          "duration": 0.9000000000000057
        },
        {
          "name": "D2",
          "midi": 38,
          "time": 134.4000000000004,
          "velocity": 0.8267716535433071,
          "duration": 0.30000000000001137
        },
        {
          "name": "D2",
          "midi": 38,
          "time": 134.70000000000041,
          "velocity": 0.8267716535433071,
          "duration": 0.5999999999999943
        },
        {
          "name": "D2",
          "midi": 38,
          "time": 135.3000000000004,
          "velocity": 0.8267716535433071,
          "duration": 0.30000000000001137
        },
        {
          "name": "D2",
          "midi": 38,
          "time": 135.60000000000042,
          "velocity": 0.8267716535433071,
          "duration": 0.30000000000001137
        },
        {
          "name": "D2",
          "midi": 38,
          "time": 135.90000000000043,
          "velocity": 0.8267716535433071,
          "duration": 0.9000000000000057
        },
        {
          "name": "A#1",
          "midi": 34,
          "time": 136.80000000000044,
          "velocity": 0.8267716535433071,
          "duration": 0.30000000000001137
        },
        {
          "name": "A#1",
          "midi": 34,
          "time": 137.10000000000045,
          "velocity": 0.8267716535433071,
          "duration": 0.5999999999999943
        },
        {
          "name": "A#1",
          "midi": 34,
          "time": 137.70000000000044,
          "velocity": 0.8267716535433071,
          "duration": 0.30000000000001137
        },
        {
          "name": "A#1",
          "midi": 34,
          "time": 138.00000000000045,
          "velocity": 0.8267716535433071,
          "duration": 0.30000000000001137
        },
        {
          "name": "A#1",
          "midi": 34,
          "time": 138.30000000000047,
          "velocity": 0.8267716535433071,
          "duration": 0.9000000000000057
        },
        {
          "name": "F2",
          "midi": 41,
          "time": 139.20000000000047,
          "velocity": 0.8267716535433071,
          "duration": 0.30000000000001137
        },
        {
          "name": "F2",
          "midi": 41,
          "time": 139.50000000000048,
          "velocity": 0.8267716535433071,
          "duration": 0.5999999999999943
        },
        {
          "name": "F2",
          "midi": 41,
          "time": 140.10000000000048,
          "velocity": 0.8267716535433071,
          "duration": 0.30000000000001137
        },
        {
          "name": "F2",
          "midi": 41,
          "time": 140.4000000000005,
          "velocity": 0.8267716535433071,
          "duration": 0.30000000000001137
        },
        {
          "name": "F2",
          "midi": 41,
          "time": 140.7000000000005,
          "velocity": 0.8267716535433071,
          "duration": 0.9000000000000057
        },
        {
          "name": "F2",
          "midi": 41,
          "time": 141.6000000000005,
          "velocity": 0.8267716535433071,
          "duration": 0.30000000000001137
        },
        {
          "name": "F2",
          "midi": 41,
          "time": 141.90000000000052,
          "velocity": 0.8267716535433071,
          "duration": 0.5999999999999943
        },
        {
          "name": "F2",
          "midi": 41,
          "time": 142.5000000000005,
          "velocity": 0.8267716535433071,
          "duration": 0.30000000000001137
        },
        {
          "name": "E2",
          "midi": 40,
          "time": 142.80000000000052,
          "velocity": 0.8267716535433071,
          "duration": 0.30000000000001137
        },
        {
          "name": "E2",
          "midi": 40,
          "time": 143.10000000000053,
          "velocity": 0.8267716535433071,
          "duration": 0.9000000000000057
        },
        {
          "name": "A#1",
          "midi": 34,
          "time": 144.00000000000054,
          "velocity": 0.8267716535433071,
          "duration": 0.30000000000001137
        },
        {
          "name": "A#1",
          "midi": 34,
          "time": 144.30000000000055,
          "velocity": 0.8267716535433071,
          "duration": 0.5999999999999943
        },
        {
          "name": "A#1",
          "midi": 34,
          "time": 144.90000000000055,
          "velocity": 0.8267716535433071,
          "duration": 0.30000000000001137
        },
        {
          "name": "A#1",
          "midi": 34,
          "time": 145.20000000000056,
          "velocity": 0.8267716535433071,
          "duration": 0.30000000000001137
        },
        {
          "name": "A#1",
          "midi": 34,
          "time": 145.50000000000057,
          "velocity": 0.8267716535433071,
          "duration": 0.9000000000000057
        },
        {
          "name": "A#1",
          "midi": 34,
          "time": 146.40000000000057,
          "velocity": 0.8267716535433071,
          "duration": 0.30000000000001137
        },
        {
          "name": "A#1",
          "midi": 34,
          "time": 146.70000000000059,
          "velocity": 0.8267716535433071,
          "duration": 0.5999999999999943
        },
        {
          "name": "A#1",
          "midi": 34,
          "time": 147.30000000000058,
          "velocity": 0.8267716535433071,
          "duration": 0.30000000000001137
        },
        {
          "name": "A#1",
          "midi": 34,
          "time": 147.6000000000006,
          "velocity": 0.8267716535433071,
          "duration": 0.30000000000001137
        },
        {
          "name": "A#1",
          "midi": 34,
          "time": 147.9000000000006,
          "velocity": 0.8267716535433071,
          "duration": 0.9000000000000057
        },
        {
          "name": "F2",
          "midi": 41,
          "time": 148.8000000000006,
          "velocity": 0.8267716535433071,
          "duration": 0.30000000000001137
        },
        {
          "name": "F2",
          "midi": 41,
          "time": 149.10000000000062,
          "velocity": 0.8267716535433071,
          "duration": 0.5999999999999943
        },
        {
          "name": "F2",
          "midi": 41,
          "time": 149.7000000000006,
          "velocity": 0.8267716535433071,
          "duration": 0.30000000000001137
        },
        {
          "name": "F2",
          "midi": 41,
          "time": 150.00000000000063,
          "velocity": 0.8267716535433071,
          "duration": 0.30000000000001137
        },
        {
          "name": "F2",
          "midi": 41,
          "time": 150.30000000000064,
          "velocity": 0.8267716535433071,
          "duration": 0.9000000000000057
        },
        {
          "name": "F2",
          "midi": 41,
          "time": 151.20000000000064,
          "velocity": 0.8267716535433071,
          "duration": 0.30000000000001137
        },
        {
          "name": "F2",
          "midi": 41,
          "time": 151.50000000000065,
          "velocity": 0.8267716535433071,
          "duration": 0.5999999999999943
        },
        {
          "name": "F2",
          "midi": 41,
          "time": 152.10000000000065,
          "velocity": 0.8267716535433071,
          "duration": 0.30000000000001137
        },
        {
          "name": "F2",
          "midi": 41,
          "time": 152.40000000000066,
          "velocity": 0.8267716535433071,
          "duration": 0.30000000000001137
        },
        {
          "name": "F2",
          "midi": 41,
          "time": 152.70000000000067,
          "velocity": 0.8267716535433071,
          "duration": 0.9000000000000057
        },
        {
          "name": "A#1",
          "midi": 34,
          "time": 153.60000000000068,
          "velocity": 0.8267716535433071,
          "duration": 0.30000000000001137
        },
        {
          "name": "A#1",
          "midi": 34,
          "time": 153.9000000000007,
          "velocity": 0.8267716535433071,
          "duration": 0.5999999999999943
        },
        {
          "name": "A#1",
          "midi": 34,
          "time": 154.50000000000068,
          "velocity": 0.8267716535433071,
          "duration": 0.30000000000001137
        },
        {
          "name": "A#1",
          "midi": 34,
          "time": 154.8000000000007,
          "velocity": 0.8267716535433071,
          "duration": 0.30000000000001137
        },
        {
          "name": "A#1",
          "midi": 34,
          "time": 155.1000000000007,
          "velocity": 0.8267716535433071,
          "duration": 0.9000000000000057
        },
        {
          "name": "A#1",
          "midi": 34,
          "time": 156.0000000000007,
          "velocity": 0.8267716535433071,
          "duration": 0.30000000000001137
        },
        {
          "name": "A#1",
          "midi": 34,
          "time": 156.30000000000072,
          "velocity": 0.8267716535433071,
          "duration": 0.5999999999999943
        },
        {
          "name": "A#1",
          "midi": 34,
          "time": 156.90000000000072,
          "velocity": 0.8267716535433071,
          "duration": 0.30000000000001137
        },
        {
          "name": "A#1",
          "midi": 34,
          "time": 157.20000000000073,
          "velocity": 0.8267716535433071,
          "duration": 0.30000000000001137
        },
        {
          "name": "A#1",
          "midi": 34,
          "time": 157.50000000000074,
          "velocity": 0.8267716535433071,
          "duration": 0.9000000000000057
        },
        {
          "name": "F2",
          "midi": 41,
          "time": 158.40000000000074,
          "velocity": 0.8267716535433071,
          "duration": 0.30000000000001137
        },
        {
          "name": "F2",
          "midi": 41,
          "time": 158.70000000000076,
          "velocity": 0.8267716535433071,
          "duration": 0.5999999999999943
        },
        {
          "name": "F2",
          "midi": 41,
          "time": 159.30000000000075,
          "velocity": 0.8267716535433071,
          "duration": 0.30000000000001137
        },
        {
          "name": "F2",
          "midi": 41,
          "time": 159.60000000000076,
          "velocity": 0.8267716535433071,
          "duration": 0.30000000000001137
        },
        {
          "name": "F2",
          "midi": 41,
          "time": 159.90000000000077,
          "velocity": 0.8267716535433071,
          "duration": 0.9000000000000057
        },
        {
          "name": "F2",
          "midi": 41,
          "time": 160.80000000000078,
          "velocity": 0.8267716535433071,
          "duration": 0.30000000000001137
        },
        {
          "name": "F2",
          "midi": 41,
          "time": 161.1000000000008,
          "velocity": 0.8267716535433071,
          "duration": 0.5999999999999943
        },
        {
          "name": "F2",
          "midi": 41,
          "time": 161.70000000000078,
          "velocity": 0.8267716535433071,
          "duration": 0.30000000000001137
        },
        {
          "name": "F2",
          "midi": 41,
          "time": 162.0000000000008,
          "velocity": 0.8267716535433071,
          "duration": 0.30000000000001137
        },
        {
          "name": "F2",
          "midi": 41,
          "time": 162.3000000000008,
          "velocity": 0.8267716535433071,
          "duration": 0.9000000000000057
        },
        {
          "name": "C2",
          "midi": 36,
          "time": 163.2000000000008,
          "velocity": 0.8267716535433071,
          "duration": 0.30000000000001137
        },
        {
          "name": "C2",
          "midi": 36,
          "time": 163.50000000000082,
          "velocity": 0.8267716535433071,
          "duration": 0.5999999999999943
        },
        {
          "name": "C2",
          "midi": 36,
          "time": 164.10000000000082,
          "velocity": 0.8267716535433071,
          "duration": 0.30000000000001137
        },
        {
          "name": "C2",
          "midi": 36,
          "time": 164.40000000000083,
          "velocity": 0.8267716535433071,
          "duration": 0.30000000000001137
        },
        {
          "name": "C2",
          "midi": 36,
          "time": 164.70000000000084,
          "velocity": 0.8267716535433071,
          "duration": 0.30000000000001137
        },
        {
          "name": "C2",
          "midi": 36,
          "time": 165.00000000000085,
          "velocity": 0.8267716535433071,
          "duration": 0.30000000000001137
        },
        {
          "name": "A#1",
          "midi": 34,
          "time": 165.30000000000086,
          "velocity": 0.8267716535433071,
          "duration": 0.30000000000001137
        },
        {
          "name": "C2",
          "midi": 36,
          "time": 165.60000000000088,
          "velocity": 0.7874015748031497,
          "duration": 2.3799999999999955
        },
        {
          "name": "F2",
          "midi": 41,
          "time": 168.00000000000088,
          "velocity": 0.8267716535433071,
          "duration": 0.30000000000001137
        },
        {
          "name": "F2",
          "midi": 41,
          "time": 168.3000000000009,
          "velocity": 0.8267716535433071,
          "duration": 0.5999999999999943
        },
        {
          "name": "F2",
          "midi": 41,
          "time": 168.9000000000009,
          "velocity": 0.8267716535433071,
          "duration": 0.30000000000001137
        },
        {
          "name": "F2",
          "midi": 41,
          "time": 169.2000000000009,
          "velocity": 0.8267716535433071,
          "duration": 0.30000000000001137
        },
        {
          "name": "F2",
          "midi": 41,
          "time": 169.5000000000009,
          "velocity": 0.8267716535433071,
          "duration": 0.9000000000000057
        },
        {
          "name": "A#2",
          "midi": 46,
          "time": 170.40000000000092,
          "velocity": 0.8267716535433071,
          "duration": 0.30000000000001137
        },
        {
          "name": "A#2",
          "midi": 46,
          "time": 170.70000000000093,
          "velocity": 0.8267716535433071,
          "duration": 0.5999999999999943
        },
        {
          "name": "A#2",
          "midi": 46,
          "time": 171.30000000000092,
          "velocity": 0.8267716535433071,
          "duration": 0.30000000000001137
        },
        {
          "name": "A#2",
          "midi": 46,
          "time": 171.60000000000093,
          "velocity": 0.8267716535433071,
          "duration": 0.30000000000001137
        },
        {
          "name": "A#2",
          "midi": 46,
          "time": 171.90000000000094,
          "velocity": 0.8267716535433071,
          "duration": 0.9000000000000057
        },
        {
          "name": "F2",
          "midi": 41,
          "time": 172.80000000000095,
          "velocity": 0.8267716535433071,
          "duration": 0.30000000000001137
        },
        {
          "name": "F2",
          "midi": 41,
          "time": 173.10000000000096,
          "velocity": 0.8267716535433071,
          "duration": 0.5999999999999943
        },
        {
          "name": "F2",
          "midi": 41,
          "time": 173.70000000000095,
          "velocity": 0.8267716535433071,
          "duration": 0.30000000000001137
        },
        {
          "name": "F2",
          "midi": 41,
          "time": 174.00000000000097,
          "velocity": 0.8267716535433071,
          "duration": 0.30000000000001137
        },
        {
          "name": "F2",
          "midi": 41,
          "time": 174.30000000000098,
          "velocity": 0.8267716535433071,
          "duration": 0.9000000000000057
        },
        {
          "name": "F2",
          "midi": 41,
          "time": 175.20000000000098,
          "velocity": 0.8267716535433071,
          "duration": 0.30000000000001137
        },
        {
          "name": "F2",
          "midi": 41,
          "time": 175.500000000001,
          "velocity": 0.8267716535433071,
          "duration": 0.5999999999999943
        },
        {
          "name": "F2",
          "midi": 41,
          "time": 176.100000000001,
          "velocity": 0.8267716535433071,
          "duration": 0.30000000000001137
        },
        {
          "name": "F2",
          "midi": 41,
          "time": 176.400000000001,
          "velocity": 0.8267716535433071,
          "duration": 0.30000000000001137
        },
        {
          "name": "F2",
          "midi": 41,
          "time": 176.700000000001,
          "velocity": 0.8267716535433071,
          "duration": 0.9000000000000057
        },
        {
          "name": "D2",
          "midi": 38,
          "time": 177.610000000001,
          "velocity": 0.8267716535433071,
          "duration": 0.29999999999998295
        },
        {
          "name": "D2",
          "midi": 38,
          "time": 177.905000000001,
          "velocity": 0.8267716535433071,
          "duration": 0.5999999999999943
        },
        {
          "name": "D2",
          "midi": 38,
          "time": 178.505000000001,
          "velocity": 0.8267716535433071,
          "duration": 0.30000000000001137
        },
        {
          "name": "D2",
          "midi": 38,
          "time": 178.805000000001,
          "velocity": 0.8267716535433071,
          "duration": 0.30000000000001137
        },
        {
          "name": "D2",
          "midi": 38,
          "time": 179.105000000001,
          "velocity": 0.8267716535433071,
          "duration": 0.9000000000000057
        },
        {
          "name": "A#1",
          "midi": 34,
          "time": 180.00000000000102,
          "velocity": 0.8267716535433071,
          "duration": 0.29999999999998295
        },
        {
          "name": "A#1",
          "midi": 34,
          "time": 180.300000000001,
          "velocity": 0.8267716535433071,
          "duration": 0.5999999999999943
        },
        {
          "name": "A#1",
          "midi": 34,
          "time": 180.900000000001,
          "velocity": 0.8267716535433071,
          "duration": 0.30000000000001137
        },
        {
          "name": "A#1",
          "midi": 34,
          "time": 181.200000000001,
          "velocity": 0.8267716535433071,
          "duration": 0.30000000000001137
        },
        {
          "name": "A#1",
          "midi": 34,
          "time": 181.50000000000102,
          "velocity": 0.8267716535433071,
          "duration": 0.9000000000000057
        },
        {
          "name": "F2",
          "midi": 41,
          "time": 182.40000000000103,
          "velocity": 0.8267716535433071,
          "duration": 0.30000000000001137
        },
        {
          "name": "F2",
          "midi": 41,
          "time": 182.70000000000104,
          "velocity": 0.8267716535433071,
          "duration": 0.5999999999999943
        },
        {
          "name": "F2",
          "midi": 41,
          "time": 183.30000000000103,
          "velocity": 0.8267716535433071,
          "duration": 0.30000000000001137
        },
        {
          "name": "F2",
          "midi": 41,
          "time": 183.60000000000105,
          "velocity": 0.8267716535433071,
          "duration": 0.30000000000001137
        },
        {
          "name": "F2",
          "midi": 41,
          "time": 183.90000000000106,
          "velocity": 0.8267716535433071,
          "duration": 0.9000000000000057
        },
        {
          "name": "F2",
          "midi": 41,
          "time": 184.80000000000106,
          "velocity": 0.8267716535433071,
          "duration": 0.30000000000001137
        },
        {
          "name": "F2",
          "midi": 41,
          "time": 185.10000000000107,
          "velocity": 0.8267716535433071,
          "duration": 0.5999999999999943
        },
        {
          "name": "F2",
          "midi": 41,
          "time": 185.70000000000107,
          "velocity": 0.8267716535433071,
          "duration": 0.30000000000001137
        },
        {
          "name": "F2",
          "midi": 41,
          "time": 186.00000000000108,
          "velocity": 0.8267716535433071,
          "duration": 0.30000000000001137
        },
        {
          "name": "F2",
          "midi": 41,
          "time": 186.3000000000011,
          "velocity": 0.8267716535433071,
          "duration": 0.9000000000000057
        },
        {
          "name": "D2",
          "midi": 38,
          "time": 187.2100000000011,
          "velocity": 0.8267716535433071,
          "duration": 0.29999999999998295
        },
        {
          "name": "D2",
          "midi": 38,
          "time": 187.50500000000108,
          "velocity": 0.8267716535433071,
          "duration": 0.5999999999999943
        },
        {
          "name": "D2",
          "midi": 38,
          "time": 188.10500000000107,
          "velocity": 0.8267716535433071,
          "duration": 0.30000000000001137
        },
        {
          "name": "D2",
          "midi": 38,
          "time": 188.40500000000108,
          "velocity": 0.8267716535433071,
          "duration": 0.30000000000001137
        },
        {
          "name": "D2",
          "midi": 38,
          "time": 188.7050000000011,
          "velocity": 0.8267716535433071,
          "duration": 0.9000000000000057
        },
        {
          "name": "A#1",
          "midi": 34,
          "time": 189.6000000000011,
          "velocity": 0.8267716535433071,
          "duration": 0.29999999999998295
        },
        {
          "name": "A#1",
          "midi": 34,
          "time": 189.90000000000109,
          "velocity": 0.8267716535433071,
          "duration": 0.5999999999999943
        },
        {
          "name": "A#1",
          "midi": 34,
          "time": 190.50000000000108,
          "velocity": 0.8267716535433071,
          "duration": 0.30000000000001137
        },
        {
          "name": "A#1",
          "midi": 34,
          "time": 190.8000000000011,
          "velocity": 0.8267716535433071,
          "duration": 0.30000000000001137
        },
        {
          "name": "A#1",
          "midi": 34,
          "time": 191.1000000000011,
          "velocity": 0.8267716535433071,
          "duration": 0.9000000000000057
        },
        {
          "name": "F2",
          "midi": 41,
          "time": 192.0000000000011,
          "velocity": 0.8267716535433071,
          "duration": 0.30000000000001137
        },
        {
          "name": "F2",
          "midi": 41,
          "time": 192.30000000000112,
          "velocity": 0.8267716535433071,
          "duration": 0.5999999999999943
        },
        {
          "name": "F2",
          "midi": 41,
          "time": 192.9000000000011,
          "velocity": 0.8267716535433071,
          "duration": 0.30000000000001137
        },
        {
          "name": "F2",
          "midi": 41,
          "time": 193.20000000000113,
          "velocity": 0.8267716535433071,
          "duration": 0.30000000000001137
        },
        {
          "name": "F2",
          "midi": 41,
          "time": 193.50000000000114,
          "velocity": 0.8267716535433071,
          "duration": 0.9000000000000057
        },
        {
          "name": "F2",
          "midi": 41,
          "time": 194.40000000000114,
          "velocity": 0.8267716535433071,
          "duration": 0.30000000000001137
        },
        {
          "name": "F2",
          "midi": 41,
          "time": 194.70000000000115,
          "velocity": 0.8267716535433071,
          "duration": 0.5999999999999943
        },
        {
          "name": "F2",
          "midi": 41,
          "time": 195.30000000000115,
          "velocity": 0.8267716535433071,
          "duration": 0.30000000000001137
        },
        {
          "name": "F2",
          "midi": 41,
          "time": 195.60000000000116,
          "velocity": 0.8267716535433071,
          "duration": 0.30000000000001137
        },
        {
          "name": "F2",
          "midi": 41,
          "time": 195.90000000000117,
          "velocity": 0.8267716535433071,
          "duration": 0.9000000000000057
        },
        {
          "name": "D2",
          "midi": 38,
          "time": 196.81000000000117,
          "velocity": 0.8267716535433071,
          "duration": 0.29999999999998295
        },
        {
          "name": "D2",
          "midi": 38,
          "time": 197.10500000000116,
          "velocity": 0.8267716535433071,
          "duration": 0.5999999999999943
        },
        {
          "name": "D2",
          "midi": 38,
          "time": 197.70500000000115,
          "velocity": 0.8267716535433071,
          "duration": 0.30000000000001137
        },
        {
          "name": "D2",
          "midi": 38,
          "time": 198.00500000000116,
          "velocity": 0.8267716535433071,
          "duration": 0.30000000000001137
        },
        {
          "name": "D2",
          "midi": 38,
          "time": 198.30500000000117,
          "velocity": 0.8267716535433071,
          "duration": 0.9000000000000057
        },
        {
          "name": "A#1",
          "midi": 34,
          "time": 199.20000000000118,
          "velocity": 0.8267716535433071,
          "duration": 0.29999999999998295
        },
        {
          "name": "A#1",
          "midi": 34,
          "time": 199.50000000000117,
          "velocity": 0.8267716535433071,
          "duration": 0.5999999999999943
        },
        {
          "name": "A#1",
          "midi": 34,
          "time": 200.10000000000116,
          "velocity": 0.8267716535433071,
          "duration": 0.30000000000001137
        },
        {
          "name": "A#1",
          "midi": 34,
          "time": 200.40000000000117,
          "velocity": 0.8267716535433071,
          "duration": 0.30000000000001137
        },
        {
          "name": "A#1",
          "midi": 34,
          "time": 200.70000000000118,
          "velocity": 0.8267716535433071,
          "duration": 0.9000000000000057
        },
        {
          "name": "F2",
          "midi": 41,
          "time": 201.6000000000012,
          "velocity": 0.8267716535433071,
          "duration": 0.30000000000001137
        },
        {
          "name": "F2",
          "midi": 41,
          "time": 201.9000000000012,
          "velocity": 0.8267716535433071,
          "duration": 0.5999999999999943
        },
        {
          "name": "F2",
          "midi": 41,
          "time": 202.5000000000012,
          "velocity": 0.8267716535433071,
          "duration": 0.30000000000001137
        },
        {
          "name": "F2",
          "midi": 41,
          "time": 202.8000000000012,
          "velocity": 0.8267716535433071,
          "duration": 0.30000000000001137
        },
        {
          "name": "F2",
          "midi": 41,
          "time": 203.10000000000122,
          "velocity": 0.8267716535433071,
          "duration": 0.9000000000000057
        },
        {
          "name": "F2",
          "midi": 41,
          "time": 204.00000000000122,
          "velocity": 0.8267716535433071,
          "duration": 0.30000000000001137
        },
        {
          "name": "F2",
          "midi": 41,
          "time": 204.30000000000123,
          "velocity": 0.8267716535433071,
          "duration": 0.5999999999999943
        },
        {
          "name": "F2",
          "midi": 41,
          "time": 204.90000000000123,
          "velocity": 0.8267716535433071,
          "duration": 0.30000000000001137
        },
        {
          "name": "F2",
          "midi": 41,
          "time": 205.20000000000124,
          "velocity": 0.8267716535433071,
          "duration": 0.30000000000001137
        },
        {
          "name": "F2",
          "midi": 41,
          "time": 205.50000000000125,
          "velocity": 0.8267716535433071,
          "duration": 0.9000000000000057
        },
        {
          "name": "D2",
          "midi": 38,
          "time": 206.41000000000125,
          "velocity": 0.8267716535433071,
          "duration": 0.29999999999998295
        },
        {
          "name": "D2",
          "midi": 38,
          "time": 206.70500000000123,
          "velocity": 0.8267716535433071,
          "duration": 0.5999999999999943
        },
        {
          "name": "D2",
          "midi": 38,
          "time": 207.30500000000123,
          "velocity": 0.8267716535433071,
          "duration": 0.30000000000001137
        },
        {
          "name": "D2",
          "midi": 38,
          "time": 207.60500000000124,
          "velocity": 0.8267716535433071,
          "duration": 0.30000000000001137
        },
        {
          "name": "D2",
          "midi": 38,
          "time": 207.90500000000125,
          "velocity": 0.8267716535433071,
          "duration": 0.9000000000000057
        },
        {
          "name": "A#1",
          "midi": 34,
          "time": 208.80000000000126,
          "velocity": 0.8267716535433071,
          "duration": 0.29999999999998295
        },
        {
          "name": "A#1",
          "midi": 34,
          "time": 209.10000000000124,
          "velocity": 0.8267716535433071,
          "duration": 0.5999999999999943
        },
        {
          "name": "A#1",
          "midi": 34,
          "time": 209.70000000000124,
          "velocity": 0.8267716535433071,
          "duration": 0.30000000000001137
        },
        {
          "name": "A#1",
          "midi": 34,
          "time": 210.00000000000125,
          "velocity": 0.8267716535433071,
          "duration": 0.30000000000001137
        },
        {
          "name": "A#1",
          "midi": 34,
          "time": 210.30000000000126,
          "velocity": 0.8267716535433071,
          "duration": 0.9000000000000057
        },
        {
          "name": "F2",
          "midi": 41,
          "time": 211.20000000000127,
          "velocity": 0.8267716535433071,
          "duration": 0.30000000000001137
        },
        {
          "name": "F2",
          "midi": 41,
          "time": 211.50000000000128,
          "velocity": 0.8267716535433071,
          "duration": 0.5999999999999943
        },
        {
          "name": "F2",
          "midi": 41,
          "time": 212.10000000000127,
          "velocity": 0.8267716535433071,
          "duration": 0.30000000000001137
        },
        {
          "name": "F2",
          "midi": 41,
          "time": 212.40000000000128,
          "velocity": 0.8267716535433071,
          "duration": 0.30000000000001137
        },
        {
          "name": "F2",
          "midi": 41,
          "time": 212.7000000000013,
          "velocity": 0.8267716535433071,
          "duration": 0.9000000000000057
        },
        {
          "name": "F2",
          "midi": 41,
          "time": 213.6000000000013,
          "velocity": 0.8267716535433071,
          "duration": 0.30000000000001137
        },
        {
          "name": "F2",
          "midi": 41,
          "time": 213.9000000000013,
          "velocity": 0.8267716535433071,
          "duration": 0.5999999999999943
        },
        {
          "name": "F2",
          "midi": 41,
          "time": 214.5000000000013,
          "velocity": 0.8267716535433071,
          "duration": 0.30000000000001137
        },
        {
          "name": "F2",
          "midi": 41,
          "time": 214.80000000000132,
          "velocity": 0.8267716535433071,
          "duration": 0.30000000000001137
        },
        {
          "name": "F2",
          "midi": 41,
          "time": 215.10000000000133,
          "velocity": 0.8267716535433071,
          "duration": 0.9000000000000057
        },
        {
          "name": "D2",
          "midi": 38,
          "time": 216.01000000000133,
          "velocity": 0.8267716535433071,
          "duration": 2.3899999999999864
        },
        {
          "name": "A#1",
          "midi": 34,
          "time": 218.4000000000013,
          "velocity": 0.8267716535433071,
          "duration": 2.4000000000000057
        },
        {
          "name": "F2",
          "midi": 41,
          "time": 220.80000000000132,
          "velocity": 0.8267716535433071,
          "duration": 4.800000000000381
        }
      ],
      "controlChanges": {
        "7": [
          {
            "number": 7,
            "time": 0,
            "value": 1
          }
        ],
        "10": [
          {
            "number": 10,
            "time": 0,
            "value": 0.5039370078740157
          }
        ],
        "11": [
          {
            "number": 11,
            "time": 222.05000000000132,
            "value": 1
          },
          {
            "number": 11,
            "time": 222.08000000000132,
            "value": 0.9921259842519685
          },
          {
            "number": 11,
            "time": 222.11000000000132,
            "value": 0.984251968503937
          },
          {
            "number": 11,
            "time": 222.13000000000133,
            "value": 0.9763779527559056
          },
          {
            "number": 11,
            "time": 222.16000000000133,
            "value": 0.968503937007874
          },
          {
            "number": 11,
            "time": 222.19000000000133,
            "value": 0.9606299212598425
          },
          {
            "number": 11,
            "time": 222.21500000000134,
            "value": 0.952755905511811
          },
          {
            "number": 11,
            "time": 222.24500000000134,
            "value": 0.9448818897637795
          },
          {
            "number": 11,
            "time": 222.27500000000134,
            "value": 0.937007874015748
          },
          {
            "number": 11,
            "time": 222.30000000000135,
            "value": 0.9291338582677166
          },
          {
            "number": 11,
            "time": 222.33000000000135,
            "value": 0.9212598425196851
          },
          {
            "number": 11,
            "time": 222.36000000000135,
            "value": 0.9133858267716536
          },
          {
            "number": 11,
            "time": 222.38500000000136,
            "value": 0.905511811023622
          },
          {
            "number": 11,
            "time": 222.41500000000136,
            "value": 0.8976377952755905
          },
          {
            "number": 11,
            "time": 222.44500000000136,
            "value": 0.889763779527559
          },
          {
            "number": 11,
            "time": 222.47000000000136,
            "value": 0.8818897637795275
          },
          {
            "number": 11,
            "time": 222.50000000000136,
            "value": 0.8740157480314961
          },
          {
            "number": 11,
            "time": 222.53000000000137,
            "value": 0.8661417322834646
          },
          {
            "number": 11,
            "time": 222.55000000000138,
            "value": 0.8582677165354331
          },
          {
            "number": 11,
            "time": 222.58000000000138,
            "value": 0.8503937007874016
          },
          {
            "number": 11,
            "time": 222.61000000000138,
            "value": 0.84251968503937
          },
          {
            "number": 11,
            "time": 222.63500000000138,
            "value": 0.8346456692913385
          },
          {
            "number": 11,
            "time": 222.66500000000138,
            "value": 0.8267716535433071
          },
          {
            "number": 11,
            "time": 222.6950000000014,
            "value": 0.8188976377952756
          },
          {
            "number": 11,
            "time": 222.7200000000014,
            "value": 0.8110236220472441
          },
          {
            "number": 11,
            "time": 222.7500000000014,
            "value": 0.8031496062992126
          },
          {
            "number": 11,
            "time": 222.7800000000014,
            "value": 0.7952755905511811
          },
          {
            "number": 11,
            "time": 222.8050000000014,
            "value": 0.7874015748031497
          },
          {
            "number": 11,
            "time": 222.8350000000014,
            "value": 0.7795275590551181
          },
          {
            "number": 11,
            "time": 222.8650000000014,
            "value": 0.7716535433070866
          },
          {
            "number": 11,
            "time": 222.8900000000014,
            "value": 0.7637795275590551
          },
          {
            "number": 11,
            "time": 222.9200000000014,
            "value": 0.7559055118110236
          },
          {
            "number": 11,
            "time": 222.9500000000014,
            "value": 0.7480314960629921
          },
          {
            "number": 11,
            "time": 222.97000000000142,
            "value": 0.7401574803149606
          },
          {
            "number": 11,
            "time": 223.00000000000142,
            "value": 0.7322834645669292
          },
          {
            "number": 11,
            "time": 223.03000000000142,
            "value": 0.7244094488188977
          },
          {
            "number": 11,
            "time": 223.05500000000143,
            "value": 0.7165354330708661
          },
          {
            "number": 11,
            "time": 223.08500000000143,
            "value": 0.7086614173228346
          },
          {
            "number": 11,
            "time": 223.11500000000143,
            "value": 0.7007874015748031
          },
          {
            "number": 11,
            "time": 223.14000000000144,
            "value": 0.6929133858267716
          },
          {
            "number": 11,
            "time": 223.17000000000144,
            "value": 0.6850393700787402
          },
          {
            "number": 11,
            "time": 223.20000000000144,
            "value": 0.6771653543307087
          },
          {
            "number": 11,
            "time": 223.22500000000144,
            "value": 0.6692913385826772
          },
          {
            "number": 11,
            "time": 223.25500000000144,
            "value": 0.6614173228346457
          },
          {
            "number": 11,
            "time": 223.28500000000145,
            "value": 0.6535433070866141
          },
          {
            "number": 11,
            "time": 223.31000000000145,
            "value": 0.6456692913385826
          },
          {
            "number": 11,
            "time": 223.34000000000145,
            "value": 0.6377952755905512
          },
          {
            "number": 11,
            "time": 223.37000000000145,
            "value": 0.6299212598425197
          },
          {
            "number": 11,
            "time": 223.39000000000146,
            "value": 0.6220472440944882
          },
          {
            "number": 11,
            "time": 223.42000000000147,
            "value": 0.6141732283464567
          },
          {
            "number": 11,
            "time": 223.45000000000147,
            "value": 0.6062992125984252
          },
          {
            "number": 11,
            "time": 223.47500000000147,
            "value": 0.5984251968503937
          },
          {
            "number": 11,
            "time": 223.50500000000147,
            "value": 0.5905511811023622
          },
          {
            "number": 11,
            "time": 223.53500000000147,
            "value": 0.5826771653543307
          },
          {
            "number": 11,
            "time": 223.56000000000148,
            "value": 0.5748031496062992
          },
          {
            "number": 11,
            "time": 223.59000000000148,
            "value": 0.5669291338582677
          },
          {
            "number": 11,
            "time": 223.62000000000148,
            "value": 0.5590551181102362
          },
          {
            "number": 11,
            "time": 223.6450000000015,
            "value": 0.5511811023622047
          },
          {
            "number": 11,
            "time": 223.6750000000015,
            "value": 0.5433070866141733
          },
          {
            "number": 11,
            "time": 223.7050000000015,
            "value": 0.5354330708661418
          },
          {
            "number": 11,
            "time": 223.7300000000015,
            "value": 0.5275590551181102
          },
          {
            "number": 11,
            "time": 223.7600000000015,
            "value": 0.5196850393700787
          },
          {
            "number": 11,
            "time": 223.7900000000015,
            "value": 0.5118110236220472
          },
          {
            "number": 11,
            "time": 223.8100000000015,
            "value": 0.5039370078740157
          },
          {
            "number": 11,
            "time": 223.8400000000015,
            "value": 0.49606299212598426
          },
          {
            "number": 11,
            "time": 223.86500000000152,
            "value": 0.4881889763779528
          },
          {
            "number": 11,
            "time": 223.89500000000152,
            "value": 0.48031496062992124
          },
          {
            "number": 11,
            "time": 223.92500000000152,
            "value": 0.47244094488188976
          },
          {
            "number": 11,
            "time": 223.95000000000152,
            "value": 0.4645669291338583
          },
          {
            "number": 11,
            "time": 223.98000000000152,
            "value": 0.4566929133858268
          },
          {
            "number": 11,
            "time": 224.01000000000153,
            "value": 0.44881889763779526
          },
          {
            "number": 11,
            "time": 224.03500000000153,
            "value": 0.4409448818897638
          },
          {
            "number": 11,
            "time": 224.06500000000153,
            "value": 0.4330708661417323
          },
          {
            "number": 11,
            "time": 224.09500000000153,
            "value": 0.4251968503937008
          },
          {
            "number": 11,
            "time": 224.12000000000154,
            "value": 0.41732283464566927
          },
          {
            "number": 11,
            "time": 224.15000000000154,
            "value": 0.4094488188976378
          },
          {
            "number": 11,
            "time": 224.18000000000154,
            "value": 0.4015748031496063
          },
          {
            "number": 11,
            "time": 224.20000000000155,
            "value": 0.3937007874015748
          },
          {
            "number": 11,
            "time": 224.23000000000155,
            "value": 0.3858267716535433
          },
          {
            "number": 11,
            "time": 224.26000000000155,
            "value": 0.3779527559055118
          },
          {
            "number": 11,
            "time": 224.28500000000156,
            "value": 0.3700787401574803
          },
          {
            "number": 11,
            "time": 224.31500000000156,
            "value": 0.36220472440944884
          },
          {
            "number": 11,
            "time": 224.34500000000156,
            "value": 0.3543307086614173
          },
          {
            "number": 11,
            "time": 224.37000000000157,
            "value": 0.3464566929133858
          },
          {
            "number": 11,
            "time": 224.40000000000157,
            "value": 0.33858267716535434
          },
          {
            "number": 11,
            "time": 224.43000000000157,
            "value": 0.33070866141732286
          },
          {
            "number": 11,
            "time": 224.45500000000158,
            "value": 0.3228346456692913
          },
          {
            "number": 11,
            "time": 224.48500000000158,
            "value": 0.31496062992125984
          },
          {
            "number": 11,
            "time": 224.51500000000158,
            "value": 0.30708661417322836
          },
          {
            "number": 11,
            "time": 224.54000000000158,
            "value": 0.2992125984251969
          },
          {
            "number": 11,
            "time": 224.57000000000158,
            "value": 0.29133858267716534
          },
          {
            "number": 11,
            "time": 224.6000000000016,
            "value": 0.28346456692913385
          },
          {
            "number": 11,
            "time": 224.6200000000016,
            "value": 0.2755905511811024
          },
          {
            "number": 11,
            "time": 224.6500000000016,
            "value": 0.2677165354330709
          },
          {
            "number": 11,
            "time": 224.6800000000016,
            "value": 0.25984251968503935
          },
          {
            "number": 11,
            "time": 224.7050000000016,
            "value": 0.25196850393700787
          },
          {
            "number": 11,
            "time": 224.7350000000016,
            "value": 0.2440944881889764
          },
          {
            "number": 11,
            "time": 224.7650000000016,
            "value": 0.23622047244094488
          },
          {
            "number": 11,
            "time": 224.7900000000016,
            "value": 0.2283464566929134
          },
          {
            "number": 11,
            "time": 224.8200000000016,
            "value": 0.2204724409448819
          },
          {
            "number": 11,
            "time": 224.85000000000161,
            "value": 0.2125984251968504
          },
          {
            "number": 11,
            "time": 224.87500000000162,
            "value": 0.2047244094488189
          },
          {
            "number": 11,
            "time": 224.90500000000162,
            "value": 0.1968503937007874
          },
          {
            "number": 11,
            "time": 224.93500000000162,
            "value": 0.1889763779527559
          },
          {
            "number": 11,
            "time": 224.96000000000163,
            "value": 0.18110236220472442
          },
          {
            "number": 11,
            "time": 224.99000000000163,
            "value": 0.1732283464566929
          },
          {
            "number": 11,
            "time": 225.02000000000163,
            "value": 0.16535433070866143
          },
          {
            "number": 11,
            "time": 225.04000000000164,
            "value": 0.15748031496062992
          },
          {
            "number": 11,
            "time": 225.07000000000164,
            "value": 0.14960629921259844
          },
          {
            "number": 11,
            "time": 225.10000000000164,
            "value": 0.14173228346456693
          },
          {
            "number": 11,
            "time": 225.12500000000165,
            "value": 0.13385826771653545
          },
          {
            "number": 11,
            "time": 225.15500000000165,
            "value": 0.12598425196850394
          },
          {
            "number": 11,
            "time": 225.18500000000165,
            "value": 0.11811023622047244
          },
          {
            "number": 11,
            "time": 225.21000000000166,
            "value": 0.11023622047244094
          },
          {
            "number": 11,
            "time": 225.24000000000166,
            "value": 0.10236220472440945
          },
          {
            "number": 11,
            "time": 225.27000000000166,
            "value": 0.09448818897637795
          },
          {
            "number": 11,
            "time": 225.29500000000166,
            "value": 0.08661417322834646
          },
          {
            "number": 11,
            "time": 225.32500000000167,
            "value": 0.07874015748031496
          },
          {
            "number": 11,
            "time": 225.35500000000167,
            "value": 0.07086614173228346
          },
          {
            "number": 11,
            "time": 225.38000000000167,
            "value": 0.06299212598425197
          },
          {
            "number": 11,
            "time": 225.41000000000167,
            "value": 0.05511811023622047
          },
          {
            "number": 11,
            "time": 225.44000000000167,
            "value": 0.047244094488188976
          },
          {
            "number": 11,
            "time": 225.46000000000168,
            "value": 0.03937007874015748
          },
          {
            "number": 11,
            "time": 225.4900000000017,
            "value": 0.031496062992125984
          },
          {
            "number": 11,
            "time": 225.5200000000017,
            "value": 0.023622047244094488
          },
          {
            "number": 11,
            "time": 225.5450000000017,
            "value": 0.015748031496062992
          },
          {
            "number": 11,
            "time": 225.5750000000017,
            "value": 0.007874015748031496
          },
          {
            "number": 11,
            "time": 225.6000000000017,
            "value": 0
          },
          {
            "number": 11,
            "time": 227.6100000000017,
            "value": 0
          }
        ],
        "32": [
          {
            "number": 32,
            "time": 0,
            "value": 0
          }
        ],
        "119": [
          {
            "number": 119,
            "time": 105.6,
            "value": 0.9921259842519685
          },
          {
            "number": 119,
            "time": 105.75,
            "value": 0.007874015748031496
          },
          {
            "number": 119,
            "time": 105.825,
            "value": 0
          },
          {
            "number": 119,
            "time": 105.9,
            "value": 0.5275590551181102
          },
          {
            "number": 119,
            "time": 106.2,
            "value": 0.47244094488188976
          },
          {
            "number": 119,
            "time": 106.35000000000001,
            "value": 0
          },
          {
            "number": 119,
            "time": 106.50000000000001,
            "value": 0.05511811023622047
          },
          {
            "number": 119,
            "time": 106.65000000000002,
            "value": 0.9448818897637795
          },
          {
            "number": 119,
            "time": 106.72500000000002,
            "value": 0
          },
          {
            "number": 119,
            "time": 106.80000000000003,
            "value": 0.6220472440944882
          },
          {
            "number": 119,
            "time": 106.95000000000003,
            "value": 0.3779527559055118
          },
          {
            "number": 119,
            "time": 107.02500000000003,
            "value": 0
          },
          {
            "number": 119,
            "time": 107.10000000000004,
            "value": 0.30708661417322836
          },
          {
            "number": 119,
            "time": 107.55000000000004,
            "value": 0.6929133858267716
          },
          {
            "number": 119,
            "time": 107.77500000000003,
            "value": 0
          },
          {
            "number": 119,
            "time": 108.00000000000003,
            "value": 0.937007874015748
          },
          {
            "number": 119,
            "time": 108.15000000000003,
            "value": 0.06299212598425197
          },
          {
            "number": 119,
            "time": 108.22500000000004,
            "value": 0
          },
          {
            "number": 119,
            "time": 108.30000000000004,
            "value": 0.4330708661417323
          },
          {
            "number": 119,
            "time": 108.60000000000004,
            "value": 0.5669291338582677
          },
          {
            "number": 119,
            "time": 108.75000000000004,
            "value": 0
          },
          {
            "number": 119,
            "time": 108.90000000000005,
            "value": 0.031496062992125984
          },
          {
            "number": 119,
            "time": 109.05000000000005,
            "value": 0.968503937007874
          },
          {
            "number": 119,
            "time": 109.12500000000006,
            "value": 0
          },
          {
            "number": 119,
            "time": 109.20000000000006,
            "value": 0.14960629921259844
          },
          {
            "number": 119,
            "time": 109.35000000000007,
            "value": 0.8503937007874016
          },
          {
            "number": 119,
            "time": 109.42500000000007,
            "value": 0
          },
          {
            "number": 119,
            "time": 109.50000000000007,
            "value": 0.5196850393700787
          },
          {
            "number": 119,
            "time": 109.95000000000007,
            "value": 0.48031496062992124
          },
          {
            "number": 119,
            "time": 110.17500000000007,
            "value": 0
          },
          {
            "number": 119,
            "time": 110.40000000000006,
            "value": 0.36220472440944884
          },
          {
            "number": 119,
            "time": 110.55000000000007,
            "value": 0.6377952755905512
          },
          {
            "number": 119,
            "time": 110.62500000000007,
            "value": 0
          },
          {
            "number": 119,
            "time": 110.70000000000007,
            "value": 0.2755905511811024
          },
          {
            "number": 119,
            "time": 111.00000000000007,
            "value": 0.7244094488188977
          },
          {
            "number": 119,
            "time": 111.15000000000008,
            "value": 0
          },
          {
            "number": 119,
            "time": 111.30000000000008,
            "value": 0.8582677165354331
          },
          {
            "number": 119,
            "time": 111.45000000000009,
            "value": 0.14173228346456693
          },
          {
            "number": 119,
            "time": 111.52500000000009,
            "value": 0
          },
          {
            "number": 119,
            "time": 111.6000000000001,
            "value": 0.49606299212598426
          },
          {
            "number": 119,
            "time": 111.7500000000001,
            "value": 0.5039370078740157
          },
          {
            "number": 119,
            "time": 111.8250000000001,
            "value": 0
          },
          {
            "number": 119,
            "time": 111.9000000000001,
            "value": 0.007874015748031496
          },
          {
            "number": 119,
            "time": 112.35000000000011,
            "value": 0.9921259842519685
          },
          {
            "number": 119,
            "time": 112.5750000000001,
            "value": 0
          },
          {
            "number": 119,
            "time": 112.8000000000001,
            "value": 0.5118110236220472
          },
          {
            "number": 119,
            "time": 112.9500000000001,
            "value": 0.4881889763779528
          },
          {
            "number": 119,
            "time": 113.0250000000001,
            "value": 0
          },
          {
            "number": 119,
            "time": 113.10000000000011,
            "value": 0.06299212598425197
          },
          {
            "number": 119,
            "time": 113.4000000000001,
            "value": 0.937007874015748
          },
          {
            "number": 119,
            "time": 113.55000000000011,
            "value": 0
          },
          {
            "number": 119,
            "time": 113.70000000000012,
            "value": 0.6456692913385826
          },
          {
            "number": 119,
            "time": 113.85000000000012,
            "value": 0.3543307086614173
          },
          {
            "number": 119,
            "time": 113.92500000000013,
            "value": 0
          },
          {
            "number": 119,
            "time": 114.00000000000013,
            "value": 0.30708661417322836
          },
          {
            "number": 119,
            "time": 114.15000000000013,
            "value": 0.6929133858267716
          },
          {
            "number": 119,
            "time": 114.22500000000014,
            "value": 0
          },
          {
            "number": 119,
            "time": 114.30000000000014,
            "value": 0.2204724409448819
          },
          {
            "number": 119,
            "time": 114.75000000000014,
            "value": 0.7795275590551181
          },
          {
            "number": 119,
            "time": 114.97500000000014,
            "value": 0
          },
          {
            "number": 119,
            "time": 115.20000000000013,
            "value": 0.8661417322834646
          },
          {
            "number": 119,
            "time": 115.35000000000014,
            "value": 0.13385826771653545
          },
          {
            "number": 119,
            "time": 115.42500000000014,
            "value": 0
          },
          {
            "number": 119,
            "time": 115.50000000000014,
            "value": 0.36220472440944884
          },
          {
            "number": 119,
            "time": 115.80000000000014,
            "value": 0.6377952755905512
          },
          {
            "number": 119,
            "time": 115.95000000000014,
            "value": 0
          },
          {
            "number": 119,
            "time": 116.10000000000015,
            "value": 0.07086614173228346
          },
          {
            "number": 119,
            "time": 116.25000000000016,
            "value": 0.9291338582677166
          },
          {
            "number": 119,
            "time": 116.32500000000016,
            "value": 0
          },
          {
            "number": 119,
            "time": 116.40000000000016,
            "value": 0.6299212598425197
          },
          {
            "number": 119,
            "time": 116.55000000000017,
            "value": 0.3700787401574803
          },
          {
            "number": 119,
            "time": 116.62500000000017,
            "value": 0
          },
          {
            "number": 119,
            "time": 116.70000000000017,
            "value": 0.1968503937007874
          },
          {
            "number": 119,
            "time": 117.15000000000018,
            "value": 0.8031496062992126
          },
          {
            "number": 119,
            "time": 117.37500000000017,
            "value": 0
          },
          {
            "number": 119,
            "time": 117.60000000000016,
            "value": 0.7874015748031497
          },
          {
            "number": 119,
            "time": 117.75000000000017,
            "value": 0.2125984251968504
          },
          {
            "number": 119,
            "time": 117.82500000000017,
            "value": 0
          },
          {
            "number": 119,
            "time": 117.90000000000018,
            "value": 0.2125984251968504
          },
          {
            "number": 119,
            "time": 118.20000000000017,
            "value": 0.7874015748031497
          },
          {
            "number": 119,
            "time": 118.35000000000018,
            "value": 0
          },
          {
            "number": 119,
            "time": 118.50000000000018,
            "value": 0.2992125984251969
          },
          {
            "number": 119,
            "time": 118.65000000000019,
            "value": 0.7007874015748031
          },
          {
            "number": 119,
            "time": 118.7250000000002,
            "value": 0
          },
          {
            "number": 119,
            "time": 118.8000000000002,
            "value": 0.047244094488188976
          },
          {
            "number": 119,
            "time": 118.9500000000002,
            "value": 0.952755905511811
          },
          {
            "number": 119,
            "time": 119.0250000000002,
            "value": 0
          },
          {
            "number": 119,
            "time": 119.10000000000021,
            "value": 0.9291338582677166
          },
          {
            "number": 119,
            "time": 119.55000000000021,
            "value": 0.07086614173228346
          },
          {
            "number": 119,
            "time": 119.7750000000002,
            "value": 0
          },
          {
            "number": 119,
            "time": 120.0000000000002,
            "value": 0.8740157480314961
          },
          {
            "number": 119,
            "time": 120.1500000000002,
            "value": 0.12598425196850394
          },
          {
            "number": 119,
            "time": 120.22500000000021,
            "value": 0
          },
          {
            "number": 119,
            "time": 120.30000000000021,
            "value": 0.5748031496062992
          },
          {
            "number": 119,
            "time": 120.60000000000021,
            "value": 0.4251968503937008
          },
          {
            "number": 119,
            "time": 120.75000000000021,
            "value": 0
          },
          {
            "number": 119,
            "time": 120.90000000000022,
            "value": 0.2992125984251969
          },
          {
            "number": 119,
            "time": 121.05000000000022,
            "value": 0.7007874015748031
          },
          {
            "number": 119,
            "time": 121.12500000000023,
            "value": 0
          },
          {
            "number": 119,
            "time": 121.20000000000023,
            "value": 0.8031496062992126
          },
          {
            "number": 119,
            "time": 121.35000000000024,
            "value": 0.1968503937007874
          },
          {
            "number": 119,
            "time": 121.42500000000024,
            "value": 0
          },
          {
            "number": 119,
            "time": 121.50000000000024,
            "value": 0.7795275590551181
          },
          {
            "number": 119,
            "time": 121.95000000000024,
            "value": 0.2204724409448819
          },
          {
            "number": 119,
            "time": 122.17500000000024,
            "value": 0
          },
          {
            "number": 119,
            "time": 122.40000000000023,
            "value": 0.7795275590551181
          },
          {
            "number": 119,
            "time": 122.55000000000024,
            "value": 0.2204724409448819
          },
          {
            "number": 119,
            "time": 122.62500000000024,
            "value": 0
          },
          {
            "number": 119,
            "time": 122.70000000000024,
            "value": 0.4881889763779528
          },
          {
            "number": 119,
            "time": 123.00000000000024,
            "value": 0.5118110236220472
          },
          {
            "number": 119,
            "time": 123.15000000000025,
            "value": 0
          },
          {
            "number": 119,
            "time": 123.30000000000025,
            "value": 0.07874015748031496
          },
          {
            "number": 119,
            "time": 123.45000000000026,
            "value": 0.9212598425196851
          },
          {
            "number": 119,
            "time": 123.52500000000026,
            "value": 0
          },
          {
            "number": 119,
            "time": 123.60000000000026,
            "value": 0.6535433070866141
          },
          {
            "number": 119,
            "time": 123.75000000000027,
            "value": 0.3464566929133858
          },
          {
            "number": 119,
            "time": 123.82500000000027,
            "value": 0
          },
          {
            "number": 119,
            "time": 123.90000000000028,
            "value": 0.1968503937007874
          },
          {
            "number": 119,
            "time": 124.35000000000028,
            "value": 0.8031496062992126
          },
          {
            "number": 119,
            "time": 124.57500000000027,
            "value": 0
          },
          {
            "number": 119,
            "time": 124.80000000000027,
            "value": 0.7086614173228346
          },
          {
            "number": 119,
            "time": 124.95000000000027,
            "value": 0.29133858267716534
          },
          {
            "number": 119,
            "time": 125.02500000000028,
            "value": 0
          },
          {
            "number": 119,
            "time": 125.10000000000028,
            "value": 0.3700787401574803
          },
          {
            "number": 119,
            "time": 125.40000000000028,
            "value": 0.6299212598425197
          },
          {
            "number": 119,
            "time": 125.55000000000028,
            "value": 0
          },
          {
            "number": 119,
            "time": 125.70000000000029,
            "value": 0.9921259842519685
          },
          {
            "number": 119,
            "time": 125.85000000000029,
            "value": 0.007874015748031496
          },
          {
            "number": 119,
            "time": 125.9250000000003,
            "value": 0
          },
          {
            "number": 119,
            "time": 126.0000000000003,
            "value": 0.5275590551181102
          },
          {
            "number": 119,
            "time": 126.1500000000003,
            "value": 0.47244094488188976
          },
          {
            "number": 119,
            "time": 126.2250000000003,
            "value": 0
          },
          {
            "number": 119,
            "time": 126.30000000000031,
            "value": 0.08661417322834646
          },
          {
            "number": 119,
            "time": 126.75000000000031,
            "value": 0.9133858267716536
          },
          {
            "number": 119,
            "time": 126.9750000000003,
            "value": 0
          },
          {
            "number": 119,
            "time": 127.2000000000003,
            "value": 0.8110236220472441
          },
          {
            "number": 119,
            "time": 127.3500000000003,
            "value": 0.1889763779527559
          },
          {
            "number": 119,
            "time": 127.42500000000031,
            "value": 0
          }
        ]
      },
      "id": 10,
      "instrumentNumber": 32,
      "instrument": "acoustic bass",
      "instrumentFamily": "bass",
      "channelNumber": 8,
      "isPercussion": false
    },
    {
      "startTime": 105.60000000000001,
      "duration": 220.87499999998877,
      "length": 1178,
      "notes": [
        {
          "name": "G#2",
          "midi": 44,
          "time": 105.60000000000001,
          "velocity": 0.7244094488188977,
          "duration": 0.07500000000000284
        },
        {
          "name": "A1",
          "midi": 33,
          "time": 105.60000000000001,
          "velocity": 0.9921259842519685,
          "duration": 0.07500000000000284
        },
        {
          "name": "G#2",
          "midi": 44,
          "time": 105.75000000000001,
          "velocity": 0.2677165354330709,
          "duration": 0.07500000000000284
        },
        {
          "name": "G#2",
          "midi": 44,
          "time": 105.90000000000002,
          "velocity": 0.4409448818897638,
          "duration": 0.07500000000000284
        },
        {
          "name": "G#2",
          "midi": 44,
          "time": 106.05000000000003,
          "velocity": 0.2440944881889764,
          "duration": 0.07500000000000284
        },
        {
          "name": "G1",
          "midi": 31,
          "time": 106.20000000000003,
          "velocity": 0.7874015748031497,
          "duration": 0.07500000000000284
        },
        {
          "name": "G#2",
          "midi": 44,
          "time": 106.20000000000003,
          "velocity": 0.7244094488188977,
          "duration": 0.07500000000000284
        },
        {
          "name": "A1",
          "midi": 33,
          "time": 106.20000000000003,
          "velocity": 1,
          "duration": 0.07500000000000284
        },
        {
          "name": "G#2",
          "midi": 44,
          "time": 106.50000000000004,
          "velocity": 0.4409448818897638,
          "duration": 0.07500000000000284
        },
        {
          "name": "G#2",
          "midi": 44,
          "time": 106.65000000000005,
          "velocity": 0.2440944881889764,
          "duration": 0.07500000000000284
        },
        {
          "name": "G#2",
          "midi": 44,
          "time": 106.80000000000005,
          "velocity": 0.7244094488188977,
          "duration": 0.07500000000000284
        },
        {
          "name": "A1",
          "midi": 33,
          "time": 106.80000000000005,
          "velocity": 0.9921259842519685,
          "duration": 0.07500000000000284
        },
        {
          "name": "G#2",
          "midi": 44,
          "time": 107.10000000000007,
          "velocity": 0.7244094488188977,
          "duration": 0.07500000000000284
        },
        {
          "name": "A1",
          "midi": 33,
          "time": 107.40000000000008,
          "velocity": 1,
          "duration": 0.07500000000000284
        },
        {
          "name": "G1",
          "midi": 31,
          "time": 107.40000000000008,
          "velocity": 0.7874015748031497,
          "duration": 0.07500000000000284
        },
        {
          "name": "G#2",
          "midi": 44,
          "time": 107.70000000000009,
          "velocity": 0.4409448818897638,
          "duration": 0.07500000000000284
        },
        {
          "name": "G#2",
          "midi": 44,
          "time": 107.8500000000001,
          "velocity": 0.2440944881889764,
          "duration": 0.07500000000000284
        },
        {
          "name": "G#2",
          "midi": 44,
          "time": 108.0000000000001,
          "velocity": 0.7244094488188977,
          "duration": 0.07500000000000284
        },
        {
          "name": "A1",
          "midi": 33,
          "time": 108.0000000000001,
          "velocity": 0.9921259842519685,
          "duration": 0.07500000000000284
        },
        {
          "name": "G#2",
          "midi": 44,
          "time": 108.30000000000011,
          "velocity": 0.4409448818897638,
          "duration": 0.07500000000000284
        },
        {
          "name": "G1",
          "midi": 31,
          "time": 108.60000000000012,
          "velocity": 0.7874015748031497,
          "duration": 0.07500000000000284
        },
        {
          "name": "G#2",
          "midi": 44,
          "time": 108.60000000000012,
          "velocity": 0.7244094488188977,
          "duration": 0.07500000000000284
        },
        {
          "name": "A1",
          "midi": 33,
          "time": 108.60000000000012,
          "velocity": 1,
          "duration": 0.07500000000000284
        },
        {
          "name": "G#2",
          "midi": 44,
          "time": 108.90000000000013,
          "velocity": 0.4409448818897638,
          "duration": 0.07500000000000284
        },
        {
          "name": "G#2",
          "midi": 44,
          "time": 109.05000000000014,
          "velocity": 0.2440944881889764,
          "duration": 0.07500000000000284
        },
        {
          "name": "G#2",
          "midi": 44,
          "time": 109.20000000000014,
          "velocity": 0.7244094488188977,
          "duration": 0.07500000000000284
        },
        {
          "name": "A1",
          "midi": 33,
          "time": 109.20000000000014,
          "velocity": 0.9921259842519685,
          "duration": 0.07500000000000284
        },
        {
          "name": "G#2",
          "midi": 44,
          "time": 109.50000000000016,
          "velocity": 0.7244094488188977,
          "duration": 0.07500000000000284
        },
        {
          "name": "A1",
          "midi": 33,
          "time": 109.80000000000017,
          "velocity": 1,
          "duration": 0.07500000000000284
        },
        {
          "name": "G1",
          "midi": 31,
          "time": 109.80000000000017,
          "velocity": 0.7874015748031497,
          "duration": 0.07500000000000284
        },
        {
          "name": "G#2",
          "midi": 44,
          "time": 110.10000000000018,
          "velocity": 0.4409448818897638,
          "duration": 0.07500000000000284
        },
        {
          "name": "G#2",
          "midi": 44,
          "time": 110.25000000000018,
          "velocity": 0.2440944881889764,
          "duration": 0.07500000000000284
        },
        {
          "name": "A1",
          "midi": 33,
          "time": 110.40000000000019,
          "velocity": 0.9921259842519685,
          "duration": 0.07500000000000284
        },
        {
          "name": "G#2",
          "midi": 44,
          "time": 110.40000000000019,
          "velocity": 0.7244094488188977,
          "duration": 0.07500000000000284
        },
        {
          "name": "G#2",
          "midi": 44,
          "time": 110.7000000000002,
          "velocity": 0.4409448818897638,
          "duration": 0.07500000000000284
        },
        {
          "name": "A1",
          "midi": 33,
          "time": 111.00000000000021,
          "velocity": 1,
          "duration": 0.07500000000000284
        },
        {
          "name": "G#2",
          "midi": 44,
          "time": 111.00000000000021,
          "velocity": 0.7244094488188977,
          "duration": 0.07500000000000284
        },
        {
          "name": "G1",
          "midi": 31,
          "time": 111.00000000000021,
          "velocity": 0.7874015748031497,
          "duration": 0.07500000000000284
        },
        {
          "name": "G#2",
          "midi": 44,
          "time": 111.30000000000022,
          "velocity": 0.4409448818897638,
          "duration": 0.07500000000000284
        },
        {
          "name": "G#2",
          "midi": 44,
          "time": 111.45000000000023,
          "velocity": 0.2440944881889764,
          "duration": 0.07500000000000284
        },
        {
          "name": "G#2",
          "midi": 44,
          "time": 111.60000000000024,
          "velocity": 0.7244094488188977,
          "duration": 0.07500000000000284
        },
        {
          "name": "A1",
          "midi": 33,
          "time": 111.60000000000024,
          "velocity": 0.9921259842519685,
          "duration": 0.07500000000000284
        },
        {
          "name": "G#2",
          "midi": 44,
          "time": 111.90000000000025,
          "velocity": 0.7244094488188977,
          "duration": 0.07500000000000284
        },
        {
          "name": "A1",
          "midi": 33,
          "time": 112.20000000000026,
          "velocity": 1,
          "duration": 0.07500000000000284
        },
        {
          "name": "G1",
          "midi": 31,
          "time": 112.20000000000026,
          "velocity": 0.7874015748031497,
          "duration": 0.07500000000000284
        },
        {
          "name": "G#2",
          "midi": 44,
          "time": 112.50000000000027,
          "velocity": 0.4409448818897638,
          "duration": 0.07500000000000284
        },
        {
          "name": "G#2",
          "midi": 44,
          "time": 112.65000000000028,
          "velocity": 0.2440944881889764,
          "duration": 0.07500000000000284
        },
        {
          "name": "A1",
          "midi": 33,
          "time": 112.80000000000028,
          "velocity": 0.9921259842519685,
          "duration": 0.07500000000000284
        },
        {
          "name": "G#2",
          "midi": 44,
          "time": 112.80000000000028,
          "velocity": 0.7244094488188977,
          "duration": 0.07500000000000284
        },
        {
          "name": "G#2",
          "midi": 44,
          "time": 113.10000000000029,
          "velocity": 0.4409448818897638,
          "duration": 0.07500000000000284
        },
        {
          "name": "A1",
          "midi": 33,
          "time": 113.4000000000003,
          "velocity": 1,
          "duration": 0.07500000000000284
        },
        {
          "name": "G#2",
          "midi": 44,
          "time": 113.4000000000003,
          "velocity": 0.7244094488188977,
          "duration": 0.07500000000000284
        },
        {
          "name": "G1",
          "midi": 31,
          "time": 113.4000000000003,
          "velocity": 0.7874015748031497,
          "duration": 0.07500000000000284
        },
        {
          "name": "G#2",
          "midi": 44,
          "time": 113.70000000000032,
          "velocity": 0.4409448818897638,
          "duration": 0.07500000000000284
        },
        {
          "name": "G#2",
          "midi": 44,
          "time": 113.85000000000032,
          "velocity": 0.2440944881889764,
          "duration": 0.07500000000000284
        },
        {
          "name": "A1",
          "midi": 33,
          "time": 114.00000000000033,
          "velocity": 0.9921259842519685,
          "duration": 0.07500000000000284
        },
        {
          "name": "G#2",
          "midi": 44,
          "time": 114.00000000000033,
          "velocity": 0.7244094488188977,
          "duration": 0.07500000000000284
        },
        {
          "name": "G#2",
          "midi": 44,
          "time": 114.30000000000034,
          "velocity": 0.7244094488188977,
          "duration": 0.07500000000000284
        },
        {
          "name": "G1",
          "midi": 31,
          "time": 114.60000000000035,
          "velocity": 0.7874015748031497,
          "duration": 0.07500000000000284
        },
        {
          "name": "A1",
          "midi": 33,
          "time": 114.60000000000035,
          "velocity": 1,
          "duration": 0.07500000000000284
        },
        {
          "name": "G#2",
          "midi": 44,
          "time": 114.90000000000036,
          "velocity": 0.4409448818897638,
          "duration": 0.07500000000000284
        },
        {
          "name": "G#2",
          "midi": 44,
          "time": 115.05000000000037,
          "velocity": 0.2440944881889764,
          "duration": 0.07500000000000284
        },
        {
          "name": "A1",
          "midi": 33,
          "time": 115.20000000000037,
          "velocity": 0.9921259842519685,
          "duration": 0.07500000000000284
        },
        {
          "name": "G#2",
          "midi": 44,
          "time": 115.20000000000037,
          "velocity": 0.7244094488188977,
          "duration": 0.07500000000000284
        },
        {
          "name": "G#2",
          "midi": 44,
          "time": 115.35000000000038,
          "velocity": 0.2677165354330709,
          "duration": 0.07500000000000284
        },
        {
          "name": "G#2",
          "midi": 44,
          "time": 115.50000000000038,
          "velocity": 0.4409448818897638,
          "duration": 0.07500000000000284
        },
        {
          "name": "G#2",
          "midi": 44,
          "time": 115.65000000000039,
          "velocity": 0.2440944881889764,
          "duration": 0.07500000000000284
        },
        {
          "name": "G1",
          "midi": 31,
          "time": 115.8000000000004,
          "velocity": 0.7874015748031497,
          "duration": 0.07500000000000284
        },
        {
          "name": "G#2",
          "midi": 44,
          "time": 115.8000000000004,
          "velocity": 0.7244094488188977,
          "duration": 0.07500000000000284
        },
        {
          "name": "A1",
          "midi": 33,
          "time": 115.8000000000004,
          "velocity": 1,
          "duration": 0.07500000000000284
        },
        {
          "name": "G#2",
          "midi": 44,
          "time": 116.1000000000004,
          "velocity": 0.4409448818897638,
          "duration": 0.07500000000000284
        },
        {
          "name": "G#2",
          "midi": 44,
          "time": 116.25000000000041,
          "velocity": 0.2440944881889764,
          "duration": 0.07500000000000284
        },
        {
          "name": "G#2",
          "midi": 44,
          "time": 116.40000000000042,
          "velocity": 0.7244094488188977,
          "duration": 0.07500000000000284
        },
        {
          "name": "A1",
          "midi": 33,
          "time": 116.40000000000042,
          "velocity": 0.9921259842519685,
          "duration": 0.07500000000000284
        },
        {
          "name": "G#2",
          "midi": 44,
          "time": 116.70000000000043,
          "velocity": 0.7244094488188977,
          "duration": 0.07500000000000284
        },
        {
          "name": "A1",
          "midi": 33,
          "time": 117.00000000000044,
          "velocity": 1,
          "duration": 0.07500000000000284
        },
        {
          "name": "G1",
          "midi": 31,
          "time": 117.00000000000044,
          "velocity": 0.7874015748031497,
          "duration": 0.07500000000000284
        },
        {
          "name": "G#2",
          "midi": 44,
          "time": 117.30000000000045,
          "velocity": 0.4409448818897638,
          "duration": 0.07500000000000284
        },
        {
          "name": "G#2",
          "midi": 44,
          "time": 117.45000000000046,
          "velocity": 0.2440944881889764,
          "duration": 0.07500000000000284
        },
        {
          "name": "A1",
          "midi": 33,
          "time": 117.60000000000046,
          "velocity": 0.9921259842519685,
          "duration": 0.07500000000000284
        },
        {
          "name": "G#2",
          "midi": 44,
          "time": 117.60000000000046,
          "velocity": 0.7244094488188977,
          "duration": 0.07500000000000284
        },
        {
          "name": "G#2",
          "midi": 44,
          "time": 117.90000000000047,
          "velocity": 0.4409448818897638,
          "duration": 0.07500000000000284
        },
        {
          "name": "A1",
          "midi": 33,
          "time": 118.20000000000049,
          "velocity": 1,
          "duration": 0.07500000000000284
        },
        {
          "name": "G#2",
          "midi": 44,
          "time": 118.20000000000049,
          "velocity": 0.7244094488188977,
          "duration": 0.07500000000000284
        },
        {
          "name": "G1",
          "midi": 31,
          "time": 118.20000000000049,
          "velocity": 0.7874015748031497,
          "duration": 0.07500000000000284
        },
        {
          "name": "G#2",
          "midi": 44,
          "time": 118.5000000000005,
          "velocity": 0.4409448818897638,
          "duration": 0.07500000000000284
        },
        {
          "name": "G#2",
          "midi": 44,
          "time": 118.6500000000005,
          "velocity": 0.2440944881889764,
          "duration": 0.07500000000000284
        },
        {
          "name": "G#2",
          "midi": 44,
          "time": 118.80000000000051,
          "velocity": 0.7244094488188977,
          "duration": 0.07500000000000284
        },
        {
          "name": "A1",
          "midi": 33,
          "time": 118.80000000000051,
          "velocity": 0.9921259842519685,
          "duration": 0.07500000000000284
        },
        {
          "name": "G#2",
          "midi": 44,
          "time": 119.10000000000052,
          "velocity": 0.7244094488188977,
          "duration": 0.07500000000000284
        },
        {
          "name": "A1",
          "midi": 33,
          "time": 119.40000000000053,
          "velocity": 1,
          "duration": 0.07500000000000284
        },
        {
          "name": "G1",
          "midi": 31,
          "time": 119.40000000000053,
          "velocity": 0.7874015748031497,
          "duration": 0.07500000000000284
        },
        {
          "name": "G#2",
          "midi": 44,
          "time": 119.70000000000054,
          "velocity": 0.4409448818897638,
          "duration": 0.07500000000000284
        },
        {
          "name": "G#2",
          "midi": 44,
          "time": 119.85000000000055,
          "velocity": 0.2440944881889764,
          "duration": 0.07500000000000284
        },
        {
          "name": "A1",
          "midi": 33,
          "time": 120.00000000000055,
          "velocity": 0.9921259842519685,
          "duration": 0.07500000000000284
        },
        {
          "name": "G#2",
          "midi": 44,
          "time": 120.00000000000055,
          "velocity": 0.7244094488188977,
          "duration": 0.07500000000000284
        },
        {
          "name": "G#2",
          "midi": 44,
          "time": 120.30000000000057,
          "velocity": 0.4409448818897638,
          "duration": 0.07500000000000284
        },
        {
          "name": "A1",
          "midi": 33,
          "time": 120.60000000000058,
          "velocity": 1,
          "duration": 0.07500000000000284
        },
        {
          "name": "G#2",
          "midi": 44,
          "time": 120.60000000000058,
          "velocity": 0.7244094488188977,
          "duration": 0.07500000000000284
        },
        {
          "name": "G1",
          "midi": 31,
          "time": 120.60000000000058,
          "velocity": 0.7874015748031497,
          "duration": 0.07500000000000284
        },
        {
          "name": "G#2",
          "midi": 44,
          "time": 120.90000000000059,
          "velocity": 0.4409448818897638,
          "duration": 0.07500000000000284
        },
        {
          "name": "G#2",
          "midi": 44,
          "time": 121.0500000000006,
          "velocity": 0.2440944881889764,
          "duration": 0.07500000000000284
        },
        {
          "name": "A1",
          "midi": 33,
          "time": 121.2000000000006,
          "velocity": 0.9921259842519685,
          "duration": 0.07500000000000284
        },
        {
          "name": "G#2",
          "midi": 44,
          "time": 121.2000000000006,
          "velocity": 0.7244094488188977,
          "duration": 0.07500000000000284
        },
        {
          "name": "G#2",
          "midi": 44,
          "time": 121.50000000000061,
          "velocity": 0.7244094488188977,
          "duration": 0.07500000000000284
        },
        {
          "name": "A1",
          "midi": 33,
          "time": 121.80000000000062,
          "velocity": 1,
          "duration": 0.07500000000000284
        },
        {
          "name": "G1",
          "midi": 31,
          "time": 121.80000000000062,
          "velocity": 0.7874015748031497,
          "duration": 0.07500000000000284
        },
        {
          "name": "G#2",
          "midi": 44,
          "time": 122.10000000000063,
          "velocity": 0.4409448818897638,
          "duration": 0.07500000000000284
        },
        {
          "name": "G#2",
          "midi": 44,
          "time": 122.25000000000064,
          "velocity": 0.2440944881889764,
          "duration": 0.07500000000000284
        },
        {
          "name": "G#2",
          "midi": 44,
          "time": 122.40000000000065,
          "velocity": 0.7244094488188977,
          "duration": 0.07500000000000284
        },
        {
          "name": "A1",
          "midi": 33,
          "time": 122.40000000000065,
          "velocity": 0.9921259842519685,
          "duration": 0.07500000000000284
        },
        {
          "name": "G#2",
          "midi": 44,
          "time": 122.70000000000066,
          "velocity": 0.4409448818897638,
          "duration": 0.07500000000000284
        },
        {
          "name": "G1",
          "midi": 31,
          "time": 123.00000000000067,
          "velocity": 0.7874015748031497,
          "duration": 0.07500000000000284
        },
        {
          "name": "G#2",
          "midi": 44,
          "time": 123.00000000000067,
          "velocity": 0.7244094488188977,
          "duration": 0.07500000000000284
        },
        {
          "name": "A1",
          "midi": 33,
          "time": 123.00000000000067,
          "velocity": 1,
          "duration": 0.07500000000000284
        },
        {
          "name": "G#2",
          "midi": 44,
          "time": 123.30000000000068,
          "velocity": 0.4409448818897638,
          "duration": 0.07500000000000284
        },
        {
          "name": "G#2",
          "midi": 44,
          "time": 123.45000000000068,
          "velocity": 0.2440944881889764,
          "duration": 0.07500000000000284
        },
        {
          "name": "G#2",
          "midi": 44,
          "time": 123.60000000000069,
          "velocity": 0.7244094488188977,
          "duration": 0.07500000000000284
        },
        {
          "name": "A1",
          "midi": 33,
          "time": 123.60000000000069,
          "velocity": 0.9921259842519685,
          "duration": 0.07500000000000284
        },
        {
          "name": "G#2",
          "midi": 44,
          "time": 123.9000000000007,
          "velocity": 0.7244094488188977,
          "duration": 0.07500000000000284
        },
        {
          "name": "A1",
          "midi": 33,
          "time": 124.20000000000071,
          "velocity": 1,
          "duration": 0.07500000000000284
        },
        {
          "name": "G1",
          "midi": 31,
          "time": 124.20000000000071,
          "velocity": 0.7874015748031497,
          "duration": 0.07500000000000284
        },
        {
          "name": "G#2",
          "midi": 44,
          "time": 124.50000000000072,
          "velocity": 0.4409448818897638,
          "duration": 0.07500000000000284
        },
        {
          "name": "G#2",
          "midi": 44,
          "time": 124.65000000000073,
          "velocity": 0.2440944881889764,
          "duration": 0.07500000000000284
        },
        {
          "name": "G#2",
          "midi": 44,
          "time": 124.80000000000074,
          "velocity": 0.7244094488188977,
          "duration": 0.07500000000000284
        },
        {
          "name": "A1",
          "midi": 33,
          "time": 124.80000000000074,
          "velocity": 0.9921259842519685,
          "duration": 0.07500000000000284
        },
        {
          "name": "G#2",
          "midi": 44,
          "time": 124.95000000000074,
          "velocity": 0.2677165354330709,
          "duration": 0.07500000000000284
        },
        {
          "name": "G#2",
          "midi": 44,
          "time": 125.10000000000075,
          "velocity": 0.4409448818897638,
          "duration": 0.07500000000000284
        },
        {
          "name": "G#2",
          "midi": 44,
          "time": 125.25000000000075,
          "velocity": 0.2440944881889764,
          "duration": 0.07500000000000284
        },
        {
          "name": "A1",
          "midi": 33,
          "time": 125.40000000000076,
          "velocity": 1,
          "duration": 0.07500000000000284
        },
        {
          "name": "G1",
          "midi": 31,
          "time": 125.40000000000076,
          "velocity": 0.7874015748031497,
          "duration": 0.07500000000000284
        },
        {
          "name": "G#2",
          "midi": 44,
          "time": 125.40000000000076,
          "velocity": 0.7244094488188977,
          "duration": 0.07500000000000284
        },
        {
          "name": "G#2",
          "midi": 44,
          "time": 125.70000000000077,
          "velocity": 0.4409448818897638,
          "duration": 0.07500000000000284
        },
        {
          "name": "G#2",
          "midi": 44,
          "time": 125.85000000000078,
          "velocity": 0.2440944881889764,
          "duration": 0.07500000000000284
        },
        {
          "name": "A1",
          "midi": 33,
          "time": 126.00000000000078,
          "velocity": 0.9921259842519685,
          "duration": 0.07500000000000284
        },
        {
          "name": "G#2",
          "midi": 44,
          "time": 126.00000000000078,
          "velocity": 0.7244094488188977,
          "duration": 0.07500000000000284
        },
        {
          "name": "G#2",
          "midi": 44,
          "time": 126.3000000000008,
          "velocity": 0.7244094488188977,
          "duration": 0.07500000000000284
        },
        {
          "name": "G1",
          "midi": 31,
          "time": 126.60000000000079,
          "velocity": 0.7874015748031497,
          "duration": 0.07500000000000284
        },
        {
          "name": "A1",
          "midi": 33,
          "time": 126.60000000000079,
          "velocity": 1,
          "duration": 0.07500000000000284
        },
        {
          "name": "G#2",
          "midi": 44,
          "time": 126.90000000000079,
          "velocity": 0.4409448818897638,
          "duration": 0.07500000000000284
        },
        {
          "name": "G#2",
          "midi": 44,
          "time": 127.0500000000008,
          "velocity": 0.2440944881889764,
          "duration": 0.07500000000000284
        },
        {
          "name": "A1",
          "midi": 33,
          "time": 127.2000000000008,
          "velocity": 0.9921259842519685,
          "duration": 0.07500000000000284
        },
        {
          "name": "G#2",
          "midi": 44,
          "time": 127.2000000000008,
          "velocity": 0.7244094488188977,
          "duration": 0.07500000000000284
        },
        {
          "name": "G#2",
          "midi": 44,
          "time": 127.5000000000008,
          "velocity": 0.4409448818897638,
          "duration": 0.07500000000000284
        },
        {
          "name": "A1",
          "midi": 33,
          "time": 127.8000000000008,
          "velocity": 1,
          "duration": 0.07500000000000284
        },
        {
          "name": "G1",
          "midi": 31,
          "time": 127.8000000000008,
          "velocity": 0.7874015748031497,
          "duration": 0.07500000000000284
        },
        {
          "name": "G#2",
          "midi": 44,
          "time": 127.8000000000008,
          "velocity": 0.7244094488188977,
          "duration": 0.07500000000000284
        },
        {
          "name": "G#2",
          "midi": 44,
          "time": 128.1000000000008,
          "velocity": 0.4409448818897638,
          "duration": 0.07499999999998863
        },
        {
          "name": "G#2",
          "midi": 44,
          "time": 128.25000000000077,
          "velocity": 0.2440944881889764,
          "duration": 0.07499999999998863
        },
        {
          "name": "A1",
          "midi": 33,
          "time": 128.40000000000074,
          "velocity": 0.9921259842519685,
          "duration": 0.07499999999998863
        },
        {
          "name": "G#2",
          "midi": 44,
          "time": 128.40000000000074,
          "velocity": 0.7244094488188977,
          "duration": 0.07499999999998863
        },
        {
          "name": "G#2",
          "midi": 44,
          "time": 128.70000000000073,
          "velocity": 0.7244094488188977,
          "duration": 0.07499999999998863
        },
        {
          "name": "G1",
          "midi": 31,
          "time": 129.0000000000007,
          "velocity": 0.7874015748031497,
          "duration": 0.07499999999998863
        },
        {
          "name": "A1",
          "midi": 33,
          "time": 129.0000000000007,
          "velocity": 1,
          "duration": 0.07499999999998863
        },
        {
          "name": "G#2",
          "midi": 44,
          "time": 129.3000000000007,
          "velocity": 0.4409448818897638,
          "duration": 0.07499999999998863
        },
        {
          "name": "G#2",
          "midi": 44,
          "time": 129.45000000000067,
          "velocity": 0.2440944881889764,
          "duration": 0.07499999999998863
        },
        {
          "name": "G#2",
          "midi": 44,
          "time": 129.60000000000065,
          "velocity": 0.7244094488188977,
          "duration": 0.07499999999998863
        },
        {
          "name": "A1",
          "midi": 33,
          "time": 129.60000000000065,
          "velocity": 0.9921259842519685,
          "duration": 0.07499999999998863
        },
        {
          "name": "G#2",
          "midi": 44,
          "time": 129.90000000000063,
          "velocity": 0.4409448818897638,
          "duration": 0.07499999999998863
        },
        {
          "name": "G1",
          "midi": 31,
          "time": 130.2000000000006,
          "velocity": 0.7874015748031497,
          "duration": 0.07499999999998863
        },
        {
          "name": "G#2",
          "midi": 44,
          "time": 130.2000000000006,
          "velocity": 0.7244094488188977,
          "duration": 0.07499999999998863
        },
        {
          "name": "A1",
          "midi": 33,
          "time": 130.2000000000006,
          "velocity": 1,
          "duration": 0.07499999999998863
        },
        {
          "name": "G#2",
          "midi": 44,
          "time": 130.5000000000006,
          "velocity": 0.4409448818897638,
          "duration": 0.07499999999998863
        },
        {
          "name": "G#2",
          "midi": 44,
          "time": 130.65000000000057,
          "velocity": 0.2440944881889764,
          "duration": 0.07499999999998863
        },
        {
          "name": "G#2",
          "midi": 44,
          "time": 130.80000000000055,
          "velocity": 0.7244094488188977,
          "duration": 0.07499999999998863
        },
        {
          "name": "A1",
          "midi": 33,
          "time": 130.80000000000055,
          "velocity": 0.9921259842519685,
          "duration": 0.07499999999998863
        },
        {
          "name": "G#2",
          "midi": 44,
          "time": 131.10000000000053,
          "velocity": 0.7244094488188977,
          "duration": 0.07499999999998863
        },
        {
          "name": "A1",
          "midi": 33,
          "time": 131.40000000000052,
          "velocity": 1,
          "duration": 0.07499999999998863
        },
        {
          "name": "G1",
          "midi": 31,
          "time": 131.40000000000052,
          "velocity": 0.7874015748031497,
          "duration": 0.07499999999998863
        },
        {
          "name": "G#2",
          "midi": 44,
          "time": 131.7000000000005,
          "velocity": 0.4409448818897638,
          "duration": 0.07499999999998863
        },
        {
          "name": "G#2",
          "midi": 44,
          "time": 131.85000000000048,
          "velocity": 0.2440944881889764,
          "duration": 0.07499999999998863
        },
        {
          "name": "G#2",
          "midi": 44,
          "time": 132.00000000000045,
          "velocity": 0.7244094488188977,
          "duration": 0.07499999999998863
        },
        {
          "name": "A1",
          "midi": 33,
          "time": 132.00000000000045,
          "velocity": 0.9921259842519685,
          "duration": 0.07499999999998863
        },
        {
          "name": "G#2",
          "midi": 44,
          "time": 132.30000000000044,
          "velocity": 0.4409448818897638,
          "duration": 0.07499999999998863
        },
        {
          "name": "G1",
          "midi": 31,
          "time": 132.60000000000042,
          "velocity": 0.7874015748031497,
          "duration": 0.07499999999998863
        },
        {
          "name": "G#2",
          "midi": 44,
          "time": 132.60000000000042,
          "velocity": 0.7244094488188977,
          "duration": 0.07499999999998863
        },
        {
          "name": "A1",
          "midi": 33,
          "time": 132.60000000000042,
          "velocity": 1,
          "duration": 0.07499999999998863
        },
        {
          "name": "G#2",
          "midi": 44,
          "time": 132.9000000000004,
          "velocity": 0.4409448818897638,
          "duration": 0.07499999999998863
        },
        {
          "name": "G#2",
          "midi": 44,
          "time": 133.05000000000038,
          "velocity": 0.2440944881889764,
          "duration": 0.07499999999998863
        },
        {
          "name": "G#2",
          "midi": 44,
          "time": 133.20000000000036,
          "velocity": 0.7244094488188977,
          "duration": 0.07499999999998863
        },
        {
          "name": "A1",
          "midi": 33,
          "time": 133.20000000000036,
          "velocity": 0.9921259842519685,
          "duration": 0.07499999999998863
        },
        {
          "name": "G#2",
          "midi": 44,
          "time": 133.50000000000034,
          "velocity": 0.7244094488188977,
          "duration": 0.07499999999998863
        },
        {
          "name": "A1",
          "midi": 33,
          "time": 133.80000000000032,
          "velocity": 1,
          "duration": 0.07499999999998863
        },
        {
          "name": "G1",
          "midi": 31,
          "time": 133.80000000000032,
          "velocity": 0.7874015748031497,
          "duration": 0.07499999999998863
        },
        {
          "name": "G#2",
          "midi": 44,
          "time": 134.1000000000003,
          "velocity": 0.4409448818897638,
          "duration": 0.07499999999998863
        },
        {
          "name": "G#2",
          "midi": 44,
          "time": 134.25000000000028,
          "velocity": 0.2440944881889764,
          "duration": 0.07499999999998863
        },
        {
          "name": "A1",
          "midi": 33,
          "time": 134.40000000000026,
          "velocity": 0.9921259842519685,
          "duration": 0.07499999999998863
        },
        {
          "name": "G#2",
          "midi": 44,
          "time": 134.40000000000026,
          "velocity": 0.7244094488188977,
          "duration": 0.07499999999998863
        },
        {
          "name": "G#2",
          "midi": 44,
          "time": 134.55000000000024,
          "velocity": 0.2677165354330709,
          "duration": 0.07499999999998863
        },
        {
          "name": "G#2",
          "midi": 44,
          "time": 134.70000000000022,
          "velocity": 0.4409448818897638,
          "duration": 0.07499999999998863
        },
        {
          "name": "G#2",
          "midi": 44,
          "time": 134.8500000000002,
          "velocity": 0.2440944881889764,
          "duration": 0.07499999999998863
        },
        {
          "name": "A1",
          "midi": 33,
          "time": 135.00000000000017,
          "velocity": 1,
          "duration": 0.07499999999998863
        },
        {
          "name": "G1",
          "midi": 31,
          "time": 135.00000000000017,
          "velocity": 0.7874015748031497,
          "duration": 0.07499999999998863
        },
        {
          "name": "G#2",
          "midi": 44,
          "time": 135.00000000000017,
          "velocity": 0.7244094488188977,
          "duration": 0.07499999999998863
        },
        {
          "name": "G#2",
          "midi": 44,
          "time": 135.30000000000015,
          "velocity": 0.4409448818897638,
          "duration": 0.07499999999998863
        },
        {
          "name": "G#2",
          "midi": 44,
          "time": 135.45000000000013,
          "velocity": 0.2440944881889764,
          "duration": 0.07499999999998863
        },
        {
          "name": "A1",
          "midi": 33,
          "time": 135.6000000000001,
          "velocity": 0.9921259842519685,
          "duration": 0.07499999999998863
        },
        {
          "name": "G#2",
          "midi": 44,
          "time": 135.6000000000001,
          "velocity": 0.7244094488188977,
          "duration": 0.07499999999998863
        },
        {
          "name": "G#2",
          "midi": 44,
          "time": 135.9000000000001,
          "velocity": 0.7244094488188977,
          "duration": 0.07499999999998863
        },
        {
          "name": "G1",
          "midi": 31,
          "time": 136.20000000000007,
          "velocity": 0.7874015748031497,
          "duration": 0.07499999999998863
        },
        {
          "name": "A1",
          "midi": 33,
          "time": 136.20000000000007,
          "velocity": 1,
          "duration": 0.07499999999998863
        },
        {
          "name": "G#2",
          "midi": 44,
          "time": 136.50000000000006,
          "velocity": 0.4409448818897638,
          "duration": 0.07499999999998863
        },
        {
          "name": "G#2",
          "midi": 44,
          "time": 136.65000000000003,
          "velocity": 0.2440944881889764,
          "duration": 0.07499999999998863
        },
        {
          "name": "G#2",
          "midi": 44,
          "time": 136.8,
          "velocity": 0.7244094488188977,
          "duration": 0.07499999999998863
        },
        {
          "name": "A1",
          "midi": 33,
          "time": 136.8,
          "velocity": 0.9921259842519685,
          "duration": 0.07499999999998863
        },
        {
          "name": "G#2",
          "midi": 44,
          "time": 137.1,
          "velocity": 0.4409448818897638,
          "duration": 0.07499999999998863
        },
        {
          "name": "A1",
          "midi": 33,
          "time": 137.39999999999998,
          "velocity": 1,
          "duration": 0.07499999999998863
        },
        {
          "name": "G#2",
          "midi": 44,
          "time": 137.39999999999998,
          "velocity": 0.7244094488188977,
          "duration": 0.07499999999998863
        },
        {
          "name": "G1",
          "midi": 31,
          "time": 137.39999999999998,
          "velocity": 0.7874015748031497,
          "duration": 0.07499999999998863
        },
        {
          "name": "G#2",
          "midi": 44,
          "time": 137.69999999999996,
          "velocity": 0.4409448818897638,
          "duration": 0.07499999999998863
        },
        {
          "name": "G#2",
          "midi": 44,
          "time": 137.84999999999994,
          "velocity": 0.2440944881889764,
          "duration": 0.07499999999998863
        },
        {
          "name": "G#2",
          "midi": 44,
          "time": 137.99999999999991,
          "velocity": 0.7244094488188977,
          "duration": 0.07499999999998863
        },
        {
          "name": "A1",
          "midi": 33,
          "time": 137.99999999999991,
          "velocity": 0.9921259842519685,
          "duration": 0.07499999999998863
        },
        {
          "name": "G#2",
          "midi": 44,
          "time": 138.2999999999999,
          "velocity": 0.7244094488188977,
          "duration": 0.07499999999998863
        },
        {
          "name": "A1",
          "midi": 33,
          "time": 138.59999999999988,
          "velocity": 1,
          "duration": 0.07499999999998863
        },
        {
          "name": "G1",
          "midi": 31,
          "time": 138.59999999999988,
          "velocity": 0.7874015748031497,
          "duration": 0.07499999999998863
        },
        {
          "name": "G#2",
          "midi": 44,
          "time": 138.89999999999986,
          "velocity": 0.4409448818897638,
          "duration": 0.07499999999998863
        },
        {
          "name": "G#2",
          "midi": 44,
          "time": 139.04999999999984,
          "velocity": 0.2440944881889764,
          "duration": 0.07499999999998863
        },
        {
          "name": "A1",
          "midi": 33,
          "time": 139.19999999999982,
          "velocity": 0.9921259842519685,
          "duration": 0.07499999999998863
        },
        {
          "name": "G#2",
          "midi": 44,
          "time": 139.19999999999982,
          "velocity": 0.7244094488188977,
          "duration": 0.07499999999998863
        },
        {
          "name": "G#2",
          "midi": 44,
          "time": 139.4999999999998,
          "velocity": 0.4409448818897638,
          "duration": 0.07499999999998863
        },
        {
          "name": "A1",
          "midi": 33,
          "time": 139.79999999999978,
          "velocity": 1,
          "duration": 0.07499999999998863
        },
        {
          "name": "G#2",
          "midi": 44,
          "time": 139.79999999999978,
          "velocity": 0.7244094488188977,
          "duration": 0.07499999999998863
        },
        {
          "name": "G1",
          "midi": 31,
          "time": 139.79999999999978,
          "velocity": 0.7874015748031497,
          "duration": 0.07499999999998863
        },
        {
          "name": "G#2",
          "midi": 44,
          "time": 140.09999999999977,
          "velocity": 0.4409448818897638,
          "duration": 0.07499999999998863
        },
        {
          "name": "G#2",
          "midi": 44,
          "time": 140.24999999999974,
          "velocity": 0.2440944881889764,
          "duration": 0.07499999999998863
        },
        {
          "name": "G#2",
          "midi": 44,
          "time": 140.39999999999972,
          "velocity": 0.7244094488188977,
          "duration": 0.07499999999998863
        },
        {
          "name": "A1",
          "midi": 33,
          "time": 140.39999999999972,
          "velocity": 0.9921259842519685,
          "duration": 0.07499999999998863
        },
        {
          "name": "G#2",
          "midi": 44,
          "time": 140.6999999999997,
          "velocity": 0.7244094488188977,
          "duration": 0.07499999999998863
        },
        {
          "name": "G1",
          "midi": 31,
          "time": 140.9999999999997,
          "velocity": 0.7874015748031497,
          "duration": 0.07499999999998863
        },
        {
          "name": "A1",
          "midi": 33,
          "time": 140.9999999999997,
          "velocity": 1,
          "duration": 0.07499999999998863
        },
        {
          "name": "G#2",
          "midi": 44,
          "time": 141.29999999999967,
          "velocity": 0.4409448818897638,
          "duration": 0.07499999999998863
        },
        {
          "name": "G#2",
          "midi": 44,
          "time": 141.44999999999965,
          "velocity": 0.2440944881889764,
          "duration": 0.07499999999998863
        },
        {
          "name": "A1",
          "midi": 33,
          "time": 141.59999999999962,
          "velocity": 0.9921259842519685,
          "duration": 0.07499999999998863
        },
        {
          "name": "G#2",
          "midi": 44,
          "time": 141.59999999999962,
          "velocity": 0.7244094488188977,
          "duration": 0.07499999999998863
        },
        {
          "name": "G#2",
          "midi": 44,
          "time": 141.8999999999996,
          "velocity": 0.4409448818897638,
          "duration": 0.07499999999998863
        },
        {
          "name": "A1",
          "midi": 33,
          "time": 142.1999999999996,
          "velocity": 1,
          "duration": 0.07499999999998863
        },
        {
          "name": "G1",
          "midi": 31,
          "time": 142.1999999999996,
          "velocity": 0.7874015748031497,
          "duration": 0.07499999999998863
        },
        {
          "name": "G#2",
          "midi": 44,
          "time": 142.1999999999996,
          "velocity": 0.7244094488188977,
          "duration": 0.07499999999998863
        },
        {
          "name": "G#2",
          "midi": 44,
          "time": 142.49999999999957,
          "velocity": 0.4409448818897638,
          "duration": 0.07499999999998863
        },
        {
          "name": "G#2",
          "midi": 44,
          "time": 142.64999999999955,
          "velocity": 0.2440944881889764,
          "duration": 0.07499999999998863
        },
        {
          "name": "A1",
          "midi": 33,
          "time": 142.79999999999953,
          "velocity": 0.9921259842519685,
          "duration": 0.07499999999998863
        },
        {
          "name": "G#2",
          "midi": 44,
          "time": 142.79999999999953,
          "velocity": 0.7244094488188977,
          "duration": 0.07499999999998863
        },
        {
          "name": "G#2",
          "midi": 44,
          "time": 143.0999999999995,
          "velocity": 0.7244094488188977,
          "duration": 0.07499999999998863
        },
        {
          "name": "G1",
          "midi": 31,
          "time": 143.3999999999995,
          "velocity": 0.7874015748031497,
          "duration": 0.07499999999998863
        },
        {
          "name": "A1",
          "midi": 33,
          "time": 143.3999999999995,
          "velocity": 1,
          "duration": 0.07499999999998863
        },
        {
          "name": "G#2",
          "midi": 44,
          "time": 143.69999999999948,
          "velocity": 0.4409448818897638,
          "duration": 0.07499999999998863
        },
        {
          "name": "G#2",
          "midi": 44,
          "time": 143.84999999999945,
          "velocity": 0.2440944881889764,
          "duration": 0.07499999999998863
        },
        {
          "name": "A3",
          "midi": 57,
          "time": 143.99999999999943,
          "velocity": 0.33858267716535434,
          "duration": 0.07499999999998863
        },
        {
          "name": "A1",
          "midi": 33,
          "time": 143.99999999999943,
          "velocity": 0.9921259842519685,
          "duration": 0.07499999999998863
        },
        {
          "name": "G#2",
          "midi": 44,
          "time": 143.99999999999943,
          "velocity": 0.7244094488188977,
          "duration": 0.07499999999998863
        },
        {
          "name": "F#3",
          "midi": 54,
          "time": 143.99999999999943,
          "velocity": 0.2992125984251969,
          "duration": 0.07499999999998863
        },
        {
          "name": "F#3",
          "midi": 54,
          "time": 144.13999999999942,
          "velocity": 0.18110236220472442,
          "duration": 0.07499999999998863
        },
        {
          "name": "F#3",
          "midi": 54,
          "time": 144.2899999999994,
          "velocity": 0.14960629921259844,
          "duration": 0.07499999999998863
        },
        {
          "name": "G#2",
          "midi": 44,
          "time": 144.2999999999994,
          "velocity": 0.4409448818897638,
          "duration": 0.07499999999998863
        },
        {
          "name": "F#3",
          "midi": 54,
          "time": 144.43999999999937,
          "velocity": 0.1968503937007874,
          "duration": 0.07499999999998863
        },
        {
          "name": "F#3",
          "midi": 54,
          "time": 144.58499999999935,
          "velocity": 0.2992125984251969,
          "duration": 0.07499999999998863
        },
        {
          "name": "A1",
          "midi": 33,
          "time": 144.59999999999934,
          "velocity": 1,
          "duration": 0.07499999999998863
        },
        {
          "name": "G#2",
          "midi": 44,
          "time": 144.59999999999934,
          "velocity": 0.7244094488188977,
          "duration": 0.07499999999998863
        },
        {
          "name": "G1",
          "midi": 31,
          "time": 144.59999999999934,
          "velocity": 0.7874015748031497,
          "duration": 0.07499999999998863
        },
        {
          "name": "F#3",
          "midi": 54,
          "time": 144.73999999999933,
          "velocity": 0.1732283464566929,
          "duration": 0.07499999999998863
        },
        {
          "name": "F#3",
          "midi": 54,
          "time": 144.8899999999993,
          "velocity": 0.14173228346456693,
          "duration": 0.07499999999998863
        },
        {
          "name": "G#2",
          "midi": 44,
          "time": 144.8999999999993,
          "velocity": 0.4409448818897638,
          "duration": 0.07499999999998863
        },
        {
          "name": "F#3",
          "midi": 54,
          "time": 145.03999999999928,
          "velocity": 0.1889763779527559,
          "duration": 0.07499999999998863
        },
        {
          "name": "G#2",
          "midi": 44,
          "time": 145.04999999999927,
          "velocity": 0.2440944881889764,
          "duration": 0.07499999999998863
        },
        {
          "name": "F#3",
          "midi": 54,
          "time": 145.18999999999926,
          "velocity": 0.2992125984251969,
          "duration": 0.07499999999998863
        },
        {
          "name": "A1",
          "midi": 33,
          "time": 145.19999999999925,
          "velocity": 0.9921259842519685,
          "duration": 0.07499999999998863
        },
        {
          "name": "G#2",
          "midi": 44,
          "time": 145.19999999999925,
          "velocity": 0.7244094488188977,
          "duration": 0.07499999999998863
        },
        {
          "name": "F#3",
          "midi": 54,
          "time": 145.33999999999924,
          "velocity": 0.1889763779527559,
          "duration": 0.07499999999998863
        },
        {
          "name": "F#3",
          "midi": 54,
          "time": 145.4899999999992,
          "velocity": 0.1732283464566929,
          "duration": 0.07499999999998863
        },
        {
          "name": "G#2",
          "midi": 44,
          "time": 145.4999999999992,
          "velocity": 0.7244094488188977,
          "duration": 0.07499999999998863
        },
        {
          "name": "F#3",
          "midi": 54,
          "time": 145.6399999999992,
          "velocity": 0.2047244094488189,
          "duration": 0.07499999999998863
        },
        {
          "name": "F#3",
          "midi": 54,
          "time": 145.78999999999917,
          "velocity": 0.2992125984251969,
          "duration": 0.07499999999998863
        },
        {
          "name": "G1",
          "midi": 31,
          "time": 145.79999999999916,
          "velocity": 0.7874015748031497,
          "duration": 0.07499999999998863
        },
        {
          "name": "A1",
          "midi": 33,
          "time": 145.79999999999916,
          "velocity": 1,
          "duration": 0.07499999999998863
        },
        {
          "name": "F#3",
          "midi": 54,
          "time": 145.93999999999915,
          "velocity": 0.2047244094488189,
          "duration": 0.07499999999998863
        },
        {
          "name": "F#3",
          "midi": 54,
          "time": 146.08999999999912,
          "velocity": 0.1889763779527559,
          "duration": 0.07499999999998863
        },
        {
          "name": "G#2",
          "midi": 44,
          "time": 146.0999999999991,
          "velocity": 0.4409448818897638,
          "duration": 0.07499999999998863
        },
        {
          "name": "F#3",
          "midi": 54,
          "time": 146.2399999999991,
          "velocity": 0.25196850393700787,
          "duration": 0.07499999999998863
        },
        {
          "name": "G#2",
          "midi": 44,
          "time": 146.2499999999991,
          "velocity": 0.2440944881889764,
          "duration": 0.07499999999998863
        },
        {
          "name": "A1",
          "midi": 33,
          "time": 146.39999999999907,
          "velocity": 0.9921259842519685,
          "duration": 0.07499999999998863
        },
        {
          "name": "G#2",
          "midi": 44,
          "time": 146.39999999999907,
          "velocity": 0.7244094488188977,
          "duration": 0.07499999999998863
        },
        {
          "name": "F#3",
          "midi": 54,
          "time": 146.39999999999907,
          "velocity": 0.2992125984251969,
          "duration": 0.07499999999998863
        },
        {
          "name": "F#3",
          "midi": 54,
          "time": 146.53999999999905,
          "velocity": 0.18110236220472442,
          "duration": 0.07499999999998863
        },
        {
          "name": "F#3",
          "midi": 54,
          "time": 146.68999999999903,
          "velocity": 0.14960629921259844,
          "duration": 0.07499999999998863
        },
        {
          "name": "G#2",
          "midi": 44,
          "time": 146.69999999999902,
          "velocity": 0.4409448818897638,
          "duration": 0.07499999999998863
        },
        {
          "name": "F#3",
          "midi": 54,
          "time": 146.839999999999,
          "velocity": 0.1968503937007874,
          "duration": 0.07499999999998863
        },
        {
          "name": "F#3",
          "midi": 54,
          "time": 146.984999999999,
          "velocity": 0.2992125984251969,
          "duration": 0.07499999999998863
        },
        {
          "name": "G#2",
          "midi": 44,
          "time": 146.99999999999898,
          "velocity": 0.7244094488188977,
          "duration": 0.07499999999998863
        },
        {
          "name": "A1",
          "midi": 33,
          "time": 146.99999999999898,
          "velocity": 1,
          "duration": 0.07499999999998863
        },
        {
          "name": "G1",
          "midi": 31,
          "time": 146.99999999999898,
          "velocity": 0.7874015748031497,
          "duration": 0.07499999999998863
        },
        {
          "name": "F#3",
          "midi": 54,
          "time": 147.13999999999896,
          "velocity": 0.1732283464566929,
          "duration": 0.07499999999998863
        },
        {
          "name": "F#3",
          "midi": 54,
          "time": 147.28999999999894,
          "velocity": 0.14173228346456693,
          "duration": 0.07499999999998863
        },
        {
          "name": "G#2",
          "midi": 44,
          "time": 147.29999999999893,
          "velocity": 0.4409448818897638,
          "duration": 0.07499999999998863
        },
        {
          "name": "F#3",
          "midi": 54,
          "time": 147.43999999999892,
          "velocity": 0.1889763779527559,
          "duration": 0.07499999999998863
        },
        {
          "name": "G#2",
          "midi": 44,
          "time": 147.4499999999989,
          "velocity": 0.2440944881889764,
          "duration": 0.07499999999998863
        },
        {
          "name": "F#3",
          "midi": 54,
          "time": 147.5899999999989,
          "velocity": 0.2992125984251969,
          "duration": 0.07499999999998863
        },
        {
          "name": "A1",
          "midi": 33,
          "time": 147.5999999999989,
          "velocity": 0.9921259842519685,
          "duration": 0.07499999999998863
        },
        {
          "name": "G#2",
          "midi": 44,
          "time": 147.5999999999989,
          "velocity": 0.7244094488188977,
          "duration": 0.07499999999998863
        },
        {
          "name": "F#3",
          "midi": 54,
          "time": 147.73999999999887,
          "velocity": 0.1889763779527559,
          "duration": 0.07499999999998863
        },
        {
          "name": "F#3",
          "midi": 54,
          "time": 147.88999999999885,
          "velocity": 0.1732283464566929,
          "duration": 0.07499999999998863
        },
        {
          "name": "G#2",
          "midi": 44,
          "time": 147.89999999999884,
          "velocity": 0.7244094488188977,
          "duration": 0.07499999999998863
        },
        {
          "name": "F#3",
          "midi": 54,
          "time": 148.03999999999883,
          "velocity": 0.2047244094488189,
          "duration": 0.07499999999998863
        },
        {
          "name": "F#3",
          "midi": 54,
          "time": 148.1899999999988,
          "velocity": 0.2992125984251969,
          "duration": 0.07499999999998863
        },
        {
          "name": "G1",
          "midi": 31,
          "time": 148.1999999999988,
          "velocity": 0.7874015748031497,
          "duration": 0.07499999999998863
        },
        {
          "name": "A1",
          "midi": 33,
          "time": 148.1999999999988,
          "velocity": 1,
          "duration": 0.07499999999998863
        },
        {
          "name": "F#3",
          "midi": 54,
          "time": 148.33999999999878,
          "velocity": 0.2047244094488189,
          "duration": 0.07499999999998863
        },
        {
          "name": "F#3",
          "midi": 54,
          "time": 148.48999999999876,
          "velocity": 0.1889763779527559,
          "duration": 0.07499999999998863
        },
        {
          "name": "G#2",
          "midi": 44,
          "time": 148.49999999999875,
          "velocity": 0.4409448818897638,
          "duration": 0.07499999999998863
        },
        {
          "name": "F#3",
          "midi": 54,
          "time": 148.63999999999874,
          "velocity": 0.25196850393700787,
          "duration": 0.07499999999998863
        },
        {
          "name": "G#2",
          "midi": 44,
          "time": 148.64999999999873,
          "velocity": 0.2440944881889764,
          "duration": 0.07499999999998863
        },
        {
          "name": "G#2",
          "midi": 44,
          "time": 148.7999999999987,
          "velocity": 0.7244094488188977,
          "duration": 0.07499999999998863
        },
        {
          "name": "A1",
          "midi": 33,
          "time": 148.7999999999987,
          "velocity": 0.9921259842519685,
          "duration": 0.07499999999998863
        },
        {
          "name": "F#3",
          "midi": 54,
          "time": 148.7999999999987,
          "velocity": 0.2992125984251969,
          "duration": 0.07499999999998863
        },
        {
          "name": "F#3",
          "midi": 54,
          "time": 148.9399999999987,
          "velocity": 0.18110236220472442,
          "duration": 0.07499999999998863
        },
        {
          "name": "G#2",
          "midi": 44,
          "time": 148.94999999999868,
          "velocity": 0.2677165354330709,
          "duration": 0.07499999999998863
        },
        {
          "name": "F#3",
          "midi": 54,
          "time": 149.08999999999867,
          "velocity": 0.14960629921259844,
          "duration": 0.07499999999998863
        },
        {
          "name": "G#2",
          "midi": 44,
          "time": 149.09999999999866,
          "velocity": 0.4409448818897638,
          "duration": 0.07499999999998863
        },
        {
          "name": "F#3",
          "midi": 54,
          "time": 149.23999999999864,
          "velocity": 0.1968503937007874,
          "duration": 0.07499999999998863
        },
        {
          "name": "G#2",
          "midi": 44,
          "time": 149.24999999999864,
          "velocity": 0.2440944881889764,
          "duration": 0.07499999999998863
        },
        {
          "name": "F#3",
          "midi": 54,
          "time": 149.38499999999863,
          "velocity": 0.2992125984251969,
          "duration": 0.07499999999998863
        },
        {
          "name": "G1",
          "midi": 31,
          "time": 149.3999999999986,
          "velocity": 0.7874015748031497,
          "duration": 0.07499999999998863
        },
        {
          "name": "A1",
          "midi": 33,
          "time": 149.3999999999986,
          "velocity": 1,
          "duration": 0.07499999999998863
        },
        {
          "name": "G#2",
          "midi": 44,
          "time": 149.3999999999986,
          "velocity": 0.7244094488188977,
          "duration": 0.07499999999998863
        },
        {
          "name": "F#3",
          "midi": 54,
          "time": 149.5399999999986,
          "velocity": 0.1732283464566929,
          "duration": 0.07499999999998863
        },
        {
          "name": "F#3",
          "midi": 54,
          "time": 149.68999999999858,
          "velocity": 0.14173228346456693,
          "duration": 0.07499999999998863
        },
        {
          "name": "G#2",
          "midi": 44,
          "time": 149.69999999999857,
          "velocity": 0.4409448818897638,
          "duration": 0.07499999999998863
        },
        {
          "name": "F#3",
          "midi": 54,
          "time": 149.83999999999855,
          "velocity": 0.1889763779527559,
          "duration": 0.07499999999998863
        },
        {
          "name": "G#2",
          "midi": 44,
          "time": 149.84999999999854,
          "velocity": 0.2440944881889764,
          "duration": 0.07499999999998863
        },
        {
          "name": "F#3",
          "midi": 54,
          "time": 149.98999999999853,
          "velocity": 0.2992125984251969,
          "duration": 0.07499999999998863
        },
        {
          "name": "G#2",
          "midi": 44,
          "time": 149.99999999999852,
          "velocity": 0.7244094488188977,
          "duration": 0.07499999999998863
        },
        {
          "name": "A1",
          "midi": 33,
          "time": 149.99999999999852,
          "velocity": 0.9921259842519685,
          "duration": 0.07499999999998863
        },
        {
          "name": "F#3",
          "midi": 54,
          "time": 150.1399999999985,
          "velocity": 0.1889763779527559,
          "duration": 0.07499999999998863
        },
        {
          "name": "F#3",
          "midi": 54,
          "time": 150.28999999999849,
          "velocity": 0.1732283464566929,
          "duration": 0.07499999999998863
        },
        {
          "name": "G#2",
          "midi": 44,
          "time": 150.29999999999848,
          "velocity": 0.7244094488188977,
          "duration": 0.07499999999998863
        },
        {
          "name": "F#3",
          "midi": 54,
          "time": 150.43999999999846,
          "velocity": 0.2047244094488189,
          "duration": 0.07499999999998863
        },
        {
          "name": "F#3",
          "midi": 54,
          "time": 150.58999999999844,
          "velocity": 0.2992125984251969,
          "duration": 0.07499999999998863
        },
        {
          "name": "A1",
          "midi": 33,
          "time": 150.59999999999843,
          "velocity": 1,
          "duration": 0.07499999999998863
        },
        {
          "name": "G1",
          "midi": 31,
          "time": 150.59999999999843,
          "velocity": 0.7874015748031497,
          "duration": 0.07499999999998863
        },
        {
          "name": "F#3",
          "midi": 54,
          "time": 150.73999999999842,
          "velocity": 0.2047244094488189,
          "duration": 0.07499999999998863
        },
        {
          "name": "F#3",
          "midi": 54,
          "time": 150.8899999999984,
          "velocity": 0.1889763779527559,
          "duration": 0.07499999999998863
        },
        {
          "name": "G#2",
          "midi": 44,
          "time": 150.89999999999839,
          "velocity": 0.4409448818897638,
          "duration": 0.07499999999998863
        },
        {
          "name": "F#3",
          "midi": 54,
          "time": 151.03999999999837,
          "velocity": 0.25196850393700787,
          "duration": 0.07499999999998863
        },
        {
          "name": "G#2",
          "midi": 44,
          "time": 151.04999999999836,
          "velocity": 0.2440944881889764,
          "duration": 0.07499999999998863
        },
        {
          "name": "G#2",
          "midi": 44,
          "time": 151.19999999999834,
          "velocity": 0.7244094488188977,
          "duration": 0.07499999999998863
        },
        {
          "name": "F#3",
          "midi": 54,
          "time": 151.19999999999834,
          "velocity": 0.2992125984251969,
          "duration": 0.07499999999998863
        },
        {
          "name": "A1",
          "midi": 33,
          "time": 151.19999999999834,
          "velocity": 0.9921259842519685,
          "duration": 0.07499999999998863
        },
        {
          "name": "F#3",
          "midi": 54,
          "time": 151.33999999999833,
          "velocity": 0.18110236220472442,
          "duration": 0.07499999999998863
        },
        {
          "name": "F#3",
          "midi": 54,
          "time": 151.4899999999983,
          "velocity": 0.14960629921259844,
          "duration": 0.07499999999998863
        },
        {
          "name": "G#2",
          "midi": 44,
          "time": 151.4999999999983,
          "velocity": 0.4409448818897638,
          "duration": 0.07499999999998863
        },
        {
          "name": "F#3",
          "midi": 54,
          "time": 151.63999999999828,
          "velocity": 0.1968503937007874,
          "duration": 0.07499999999998863
        },
        {
          "name": "F#3",
          "midi": 54,
          "time": 151.78499999999826,
          "velocity": 0.2992125984251969,
          "duration": 0.07499999999998863
        },
        {
          "name": "A1",
          "midi": 33,
          "time": 151.79999999999825,
          "velocity": 1,
          "duration": 0.07499999999998863
        },
        {
          "name": "G1",
          "midi": 31,
          "time": 151.79999999999825,
          "velocity": 0.7874015748031497,
          "duration": 0.07499999999998863
        },
        {
          "name": "G#2",
          "midi": 44,
          "time": 151.79999999999825,
          "velocity": 0.7244094488188977,
          "duration": 0.07499999999998863
        },
        {
          "name": "F#3",
          "midi": 54,
          "time": 151.93999999999824,
          "velocity": 0.1732283464566929,
          "duration": 0.07499999999998863
        },
        {
          "name": "F#3",
          "midi": 54,
          "time": 152.0899999999982,
          "velocity": 0.14173228346456693,
          "duration": 0.07499999999998863
        },
        {
          "name": "G#2",
          "midi": 44,
          "time": 152.0999999999982,
          "velocity": 0.4409448818897638,
          "duration": 0.07499999999998863
        },
        {
          "name": "F#3",
          "midi": 54,
          "time": 152.2399999999982,
          "velocity": 0.1889763779527559,
          "duration": 0.07499999999998863
        },
        {
          "name": "G#2",
          "midi": 44,
          "time": 152.24999999999818,
          "velocity": 0.2440944881889764,
          "duration": 0.07499999999998863
        },
        {
          "name": "F#3",
          "midi": 54,
          "time": 152.38999999999817,
          "velocity": 0.2992125984251969,
          "duration": 0.07499999999998863
        },
        {
          "name": "G#2",
          "midi": 44,
          "time": 152.39999999999816,
          "velocity": 0.7244094488188977,
          "duration": 0.07499999999998863
        },
        {
          "name": "A1",
          "midi": 33,
          "time": 152.39999999999816,
          "velocity": 0.9921259842519685,
          "duration": 0.07499999999998863
        },
        {
          "name": "F#3",
          "midi": 54,
          "time": 152.53999999999814,
          "velocity": 0.1889763779527559,
          "duration": 0.07499999999998863
        },
        {
          "name": "F#3",
          "midi": 54,
          "time": 152.68999999999812,
          "velocity": 0.1732283464566929,
          "duration": 0.07499999999998863
        },
        {
          "name": "G#2",
          "midi": 44,
          "time": 152.6999999999981,
          "velocity": 0.7244094488188977,
          "duration": 0.07499999999998863
        },
        {
          "name": "F#3",
          "midi": 54,
          "time": 152.8399999999981,
          "velocity": 0.2047244094488189,
          "duration": 0.07499999999998863
        },
        {
          "name": "F#3",
          "midi": 54,
          "time": 152.98999999999808,
          "velocity": 0.2992125984251969,
          "duration": 0.07499999999998863
        },
        {
          "name": "G1",
          "midi": 31,
          "time": 152.99999999999807,
          "velocity": 0.7874015748031497,
          "duration": 0.07499999999998863
        },
        {
          "name": "A1",
          "midi": 33,
          "time": 152.99999999999807,
          "velocity": 1,
          "duration": 0.07499999999998863
        },
        {
          "name": "F#3",
          "midi": 54,
          "time": 153.13999999999805,
          "velocity": 0.2047244094488189,
          "duration": 0.07499999999998863
        },
        {
          "name": "F#3",
          "midi": 54,
          "time": 153.28999999999803,
          "velocity": 0.1889763779527559,
          "duration": 0.07499999999998863
        },
        {
          "name": "G#2",
          "midi": 44,
          "time": 153.29999999999802,
          "velocity": 0.4409448818897638,
          "duration": 0.07499999999998863
        },
        {
          "name": "F#3",
          "midi": 54,
          "time": 153.439999999998,
          "velocity": 0.25196850393700787,
          "duration": 0.07499999999998863
        },
        {
          "name": "G#2",
          "midi": 44,
          "time": 153.449999999998,
          "velocity": 0.2440944881889764,
          "duration": 0.07499999999998863
        },
        {
          "name": "A1",
          "midi": 33,
          "time": 153.59999999999798,
          "velocity": 0.9921259842519685,
          "duration": 0.07499999999998863
        },
        {
          "name": "G#2",
          "midi": 44,
          "time": 153.59999999999798,
          "velocity": 0.7244094488188977,
          "duration": 0.07499999999998863
        },
        {
          "name": "F#3",
          "midi": 54,
          "time": 153.59999999999798,
          "velocity": 0.2992125984251969,
          "duration": 0.07499999999998863
        },
        {
          "name": "F#3",
          "midi": 54,
          "time": 153.73999999999796,
          "velocity": 0.18110236220472442,
          "duration": 0.07499999999998863
        },
        {
          "name": "F#3",
          "midi": 54,
          "time": 153.88999999999794,
          "velocity": 0.14960629921259844,
          "duration": 0.07499999999998863
        },
        {
          "name": "G#2",
          "midi": 44,
          "time": 153.89999999999793,
          "velocity": 0.4409448818897638,
          "duration": 0.07499999999998863
        },
        {
          "name": "F#3",
          "midi": 54,
          "time": 154.03999999999792,
          "velocity": 0.1968503937007874,
          "duration": 0.07499999999998863
        },
        {
          "name": "F#3",
          "midi": 54,
          "time": 154.1849999999979,
          "velocity": 0.2992125984251969,
          "duration": 0.07499999999998863
        },
        {
          "name": "A1",
          "midi": 33,
          "time": 154.19999999999789,
          "velocity": 1,
          "duration": 0.07499999999998863
        },
        {
          "name": "G#2",
          "midi": 44,
          "time": 154.19999999999789,
          "velocity": 0.7244094488188977,
          "duration": 0.07499999999998863
        },
        {
          "name": "G1",
          "midi": 31,
          "time": 154.19999999999789,
          "velocity": 0.7874015748031497,
          "duration": 0.07499999999998863
        },
        {
          "name": "F#3",
          "midi": 54,
          "time": 154.33999999999787,
          "velocity": 0.1732283464566929,
          "duration": 0.07499999999998863
        },
        {
          "name": "F#3",
          "midi": 54,
          "time": 154.48999999999785,
          "velocity": 0.14173228346456693,
          "duration": 0.07499999999998863
        },
        {
          "name": "G#2",
          "midi": 44,
          "time": 154.49999999999784,
          "velocity": 0.4409448818897638,
          "duration": 0.07499999999998863
        },
        {
          "name": "F#3",
          "midi": 54,
          "time": 154.63999999999783,
          "velocity": 0.1889763779527559,
          "duration": 0.07499999999998863
        },
        {
          "name": "G#2",
          "midi": 44,
          "time": 154.64999999999782,
          "velocity": 0.2440944881889764,
          "duration": 0.07499999999998863
        },
        {
          "name": "F#3",
          "midi": 54,
          "time": 154.7899999999978,
          "velocity": 0.2992125984251969,
          "duration": 0.07499999999998863
        },
        {
          "name": "G#2",
          "midi": 44,
          "time": 154.7999999999978,
          "velocity": 0.7244094488188977,
          "duration": 0.07499999999998863
        },
        {
          "name": "A1",
          "midi": 33,
          "time": 154.7999999999978,
          "velocity": 0.9921259842519685,
          "duration": 0.07499999999998863
        },
        {
          "name": "F#3",
          "midi": 54,
          "time": 154.93999999999778,
          "velocity": 0.1889763779527559,
          "duration": 0.07499999999998863
        },
        {
          "name": "F#3",
          "midi": 54,
          "time": 155.08999999999776,
          "velocity": 0.1732283464566929,
          "duration": 0.07499999999998863
        },
        {
          "name": "G#2",
          "midi": 44,
          "time": 155.09999999999775,
          "velocity": 0.7244094488188977,
          "duration": 0.07499999999998863
        },
        {
          "name": "F#3",
          "midi": 54,
          "time": 155.23999999999774,
          "velocity": 0.2047244094488189,
          "duration": 0.07499999999998863
        },
        {
          "name": "F#3",
          "midi": 54,
          "time": 155.3899999999977,
          "velocity": 0.2992125984251969,
          "duration": 0.07499999999998863
        },
        {
          "name": "A1",
          "midi": 33,
          "time": 155.3999999999977,
          "velocity": 1,
          "duration": 0.07499999999998863
        },
        {
          "name": "G1",
          "midi": 31,
          "time": 155.3999999999977,
          "velocity": 0.7874015748031497,
          "duration": 0.07499999999998863
        },
        {
          "name": "F#3",
          "midi": 54,
          "time": 155.5399999999977,
          "velocity": 0.2047244094488189,
          "duration": 0.07499999999998863
        },
        {
          "name": "F#3",
          "midi": 54,
          "time": 155.68999999999767,
          "velocity": 0.1889763779527559,
          "duration": 0.07499999999998863
        },
        {
          "name": "G#2",
          "midi": 44,
          "time": 155.69999999999766,
          "velocity": 0.4409448818897638,
          "duration": 0.07499999999998863
        },
        {
          "name": "F#3",
          "midi": 54,
          "time": 155.83999999999764,
          "velocity": 0.25196850393700787,
          "duration": 0.07499999999998863
        },
        {
          "name": "G#2",
          "midi": 44,
          "time": 155.84999999999764,
          "velocity": 0.2440944881889764,
          "duration": 0.07499999999998863
        },
        {
          "name": "G#2",
          "midi": 44,
          "time": 155.9999999999976,
          "velocity": 0.7244094488188977,
          "duration": 0.07499999999998863
        },
        {
          "name": "A1",
          "midi": 33,
          "time": 155.9999999999976,
          "velocity": 0.9921259842519685,
          "duration": 0.07499999999998863
        },
        {
          "name": "F#3",
          "midi": 54,
          "time": 155.9999999999976,
          "velocity": 0.2992125984251969,
          "duration": 0.07499999999998863
        },
        {
          "name": "F#3",
          "midi": 54,
          "time": 156.1399999999976,
          "velocity": 0.18110236220472442,
          "duration": 0.07499999999998863
        },
        {
          "name": "F#3",
          "midi": 54,
          "time": 156.28999999999758,
          "velocity": 0.14960629921259844,
          "duration": 0.07499999999998863
        },
        {
          "name": "G#2",
          "midi": 44,
          "time": 156.29999999999757,
          "velocity": 0.4409448818897638,
          "duration": 0.07499999999998863
        },
        {
          "name": "F#3",
          "midi": 54,
          "time": 156.43999999999755,
          "velocity": 0.1968503937007874,
          "duration": 0.07499999999998863
        },
        {
          "name": "F#3",
          "midi": 54,
          "time": 156.58499999999754,
          "velocity": 0.2992125984251969,
          "duration": 0.07499999999998863
        },
        {
          "name": "A1",
          "midi": 33,
          "time": 156.59999999999752,
          "velocity": 1,
          "duration": 0.07499999999998863
        },
        {
          "name": "G#2",
          "midi": 44,
          "time": 156.59999999999752,
          "velocity": 0.7244094488188977,
          "duration": 0.07499999999998863
        },
        {
          "name": "G1",
          "midi": 31,
          "time": 156.59999999999752,
          "velocity": 0.7874015748031497,
          "duration": 0.07499999999998863
        },
        {
          "name": "F#3",
          "midi": 54,
          "time": 156.7399999999975,
          "velocity": 0.1732283464566929,
          "duration": 0.07499999999998863
        },
        {
          "name": "F#3",
          "midi": 54,
          "time": 156.88999999999749,
          "velocity": 0.14173228346456693,
          "duration": 0.07499999999998863
        },
        {
          "name": "G#2",
          "midi": 44,
          "time": 156.89999999999748,
          "velocity": 0.4409448818897638,
          "duration": 0.07499999999998863
        },
        {
          "name": "F#3",
          "midi": 54,
          "time": 157.03999999999746,
          "velocity": 0.1889763779527559,
          "duration": 0.07499999999998863
        },
        {
          "name": "G#2",
          "midi": 44,
          "time": 157.04999999999745,
          "velocity": 0.2440944881889764,
          "duration": 0.07499999999998863
        },
        {
          "name": "F#3",
          "midi": 54,
          "time": 157.18999999999744,
          "velocity": 0.2992125984251969,
          "duration": 0.07499999999998863
        },
        {
          "name": "A1",
          "midi": 33,
          "time": 157.19999999999743,
          "velocity": 0.9921259842519685,
          "duration": 0.07499999999998863
        },
        {
          "name": "G#2",
          "midi": 44,
          "time": 157.19999999999743,
          "velocity": 0.7244094488188977,
          "duration": 0.07499999999998863
        },
        {
          "name": "F#3",
          "midi": 54,
          "time": 157.33999999999742,
          "velocity": 0.1889763779527559,
          "duration": 0.07499999999998863
        },
        {
          "name": "F#3",
          "midi": 54,
          "time": 157.4899999999974,
          "velocity": 0.1732283464566929,
          "duration": 0.07499999999998863
        },
        {
          "name": "G#2",
          "midi": 44,
          "time": 157.49999999999739,
          "velocity": 0.7244094488188977,
          "duration": 0.07499999999998863
        },
        {
          "name": "F#3",
          "midi": 54,
          "time": 157.63999999999737,
          "velocity": 0.2047244094488189,
          "duration": 0.07499999999998863
        },
        {
          "name": "F#3",
          "midi": 54,
          "time": 157.78999999999735,
          "velocity": 0.2992125984251969,
          "duration": 0.07499999999998863
        },
        {
          "name": "G1",
          "midi": 31,
          "time": 157.79999999999734,
          "velocity": 0.7874015748031497,
          "duration": 0.07499999999998863
        },
        {
          "name": "A1",
          "midi": 33,
          "time": 157.79999999999734,
          "velocity": 1,
          "duration": 0.07499999999998863
        },
        {
          "name": "F#3",
          "midi": 54,
          "time": 157.93999999999733,
          "velocity": 0.2047244094488189,
          "duration": 0.07499999999998863
        },
        {
          "name": "F#3",
          "midi": 54,
          "time": 158.0899999999973,
          "velocity": 0.1889763779527559,
          "duration": 0.07499999999998863
        },
        {
          "name": "G#2",
          "midi": 44,
          "time": 158.0999999999973,
          "velocity": 0.4409448818897638,
          "duration": 0.07499999999998863
        },
        {
          "name": "F#3",
          "midi": 54,
          "time": 158.23999999999728,
          "velocity": 0.25196850393700787,
          "duration": 0.07499999999998863
        },
        {
          "name": "G#2",
          "midi": 44,
          "time": 158.24999999999727,
          "velocity": 0.2440944881889764,
          "duration": 0.07499999999998863
        },
        {
          "name": "A1",
          "midi": 33,
          "time": 158.39999999999725,
          "velocity": 0.9921259842519685,
          "duration": 0.07499999999998863
        },
        {
          "name": "G#2",
          "midi": 44,
          "time": 158.39999999999725,
          "velocity": 0.7244094488188977,
          "duration": 0.07499999999998863
        },
        {
          "name": "F#3",
          "midi": 54,
          "time": 158.39999999999725,
          "velocity": 0.2992125984251969,
          "duration": 0.07499999999998863
        },
        {
          "name": "F#3",
          "midi": 54,
          "time": 158.53999999999724,
          "velocity": 0.18110236220472442,
          "duration": 0.07499999999998863
        },
        {
          "name": "G#2",
          "midi": 44,
          "time": 158.54999999999723,
          "velocity": 0.2677165354330709,
          "duration": 0.07499999999998863
        },
        {
          "name": "F#3",
          "midi": 54,
          "time": 158.6899999999972,
          "velocity": 0.14960629921259844,
          "duration": 0.07499999999998863
        },
        {
          "name": "G#2",
          "midi": 44,
          "time": 158.6999999999972,
          "velocity": 0.4409448818897638,
          "duration": 0.07499999999998863
        },
        {
          "name": "F#3",
          "midi": 54,
          "time": 158.8399999999972,
          "velocity": 0.1968503937007874,
          "duration": 0.07499999999998863
        },
        {
          "name": "G#2",
          "midi": 44,
          "time": 158.84999999999718,
          "velocity": 0.2440944881889764,
          "duration": 0.07499999999998863
        },
        {
          "name": "F#3",
          "midi": 54,
          "time": 158.98499999999717,
          "velocity": 0.2992125984251969,
          "duration": 0.07499999999998863
        },
        {
          "name": "G1",
          "midi": 31,
          "time": 158.99999999999716,
          "velocity": 0.7874015748031497,
          "duration": 0.07499999999998863
        },
        {
          "name": "A1",
          "midi": 33,
          "time": 158.99999999999716,
          "velocity": 1,
          "duration": 0.07499999999998863
        },
        {
          "name": "G#2",
          "midi": 44,
          "time": 158.99999999999716,
          "velocity": 0.7244094488188977,
          "duration": 0.07499999999998863
        },
        {
          "name": "F#3",
          "midi": 54,
          "time": 159.13999999999714,
          "velocity": 0.1732283464566929,
          "duration": 0.07499999999998863
        },
        {
          "name": "F#3",
          "midi": 54,
          "time": 159.28999999999712,
          "velocity": 0.14173228346456693,
          "duration": 0.07499999999998863
        },
        {
          "name": "G#2",
          "midi": 44,
          "time": 159.2999999999971,
          "velocity": 0.4409448818897638,
          "duration": 0.07499999999998863
        },
        {
          "name": "F#3",
          "midi": 54,
          "time": 159.4399999999971,
          "velocity": 0.1889763779527559,
          "duration": 0.07499999999998863
        },
        {
          "name": "G#2",
          "midi": 44,
          "time": 159.4499999999971,
          "velocity": 0.2440944881889764,
          "duration": 0.07499999999998863
        },
        {
          "name": "F#3",
          "midi": 54,
          "time": 159.58999999999708,
          "velocity": 0.2992125984251969,
          "duration": 0.07499999999998863
        },
        {
          "name": "G#2",
          "midi": 44,
          "time": 159.59999999999707,
          "velocity": 0.7244094488188977,
          "duration": 0.07499999999998863
        },
        {
          "name": "A1",
          "midi": 33,
          "time": 159.59999999999707,
          "velocity": 0.9921259842519685,
          "duration": 0.07499999999998863
        },
        {
          "name": "F#3",
          "midi": 54,
          "time": 159.73999999999705,
          "velocity": 0.1889763779527559,
          "duration": 0.07499999999998863
        },
        {
          "name": "F#3",
          "midi": 54,
          "time": 159.88999999999703,
          "velocity": 0.1732283464566929,
          "duration": 0.07499999999998863
        },
        {
          "name": "G#2",
          "midi": 44,
          "time": 159.89999999999702,
          "velocity": 0.7244094488188977,
          "duration": 0.07499999999998863
        },
        {
          "name": "F#3",
          "midi": 54,
          "time": 160.039999999997,
          "velocity": 0.2047244094488189,
          "duration": 0.07499999999998863
        },
        {
          "name": "F#3",
          "midi": 54,
          "time": 160.18999999999699,
          "velocity": 0.2992125984251969,
          "duration": 0.07499999999998863
        },
        {
          "name": "G1",
          "midi": 31,
          "time": 160.19999999999698,
          "velocity": 0.7874015748031497,
          "duration": 0.07499999999998863
        },
        {
          "name": "A1",
          "midi": 33,
          "time": 160.19999999999698,
          "velocity": 1,
          "duration": 0.07499999999998863
        },
        {
          "name": "F#3",
          "midi": 54,
          "time": 160.33999999999696,
          "velocity": 0.2047244094488189,
          "duration": 0.07499999999998863
        },
        {
          "name": "F#3",
          "midi": 54,
          "time": 160.48999999999694,
          "velocity": 0.1889763779527559,
          "duration": 0.07499999999998863
        },
        {
          "name": "G#2",
          "midi": 44,
          "time": 160.49999999999693,
          "velocity": 0.4409448818897638,
          "duration": 0.07499999999998863
        },
        {
          "name": "F#3",
          "midi": 54,
          "time": 160.63999999999692,
          "velocity": 0.25196850393700787,
          "duration": 0.07499999999998863
        },
        {
          "name": "G#2",
          "midi": 44,
          "time": 160.6499999999969,
          "velocity": 0.2440944881889764,
          "duration": 0.07499999999998863
        },
        {
          "name": "G#2",
          "midi": 44,
          "time": 160.79999999999688,
          "velocity": 0.7244094488188977,
          "duration": 0.07499999999998863
        },
        {
          "name": "A1",
          "midi": 33,
          "time": 160.79999999999688,
          "velocity": 0.9921259842519685,
          "duration": 0.07499999999998863
        },
        {
          "name": "F#3",
          "midi": 54,
          "time": 160.79999999999688,
          "velocity": 0.2992125984251969,
          "duration": 0.07499999999998863
        },
        {
          "name": "F#3",
          "midi": 54,
          "time": 160.93999999999687,
          "velocity": 0.18110236220472442,
          "duration": 0.07499999999998863
        },
        {
          "name": "F#3",
          "midi": 54,
          "time": 161.08999999999685,
          "velocity": 0.14960629921259844,
          "duration": 0.07499999999998863
        },
        {
          "name": "G#2",
          "midi": 44,
          "time": 161.09999999999684,
          "velocity": 0.4409448818897638,
          "duration": 0.07499999999998863
        },
        {
          "name": "F#3",
          "midi": 54,
          "time": 161.23999999999683,
          "velocity": 0.1968503937007874,
          "duration": 0.07499999999998863
        },
        {
          "name": "F#3",
          "midi": 54,
          "time": 161.3849999999968,
          "velocity": 0.2992125984251969,
          "duration": 0.07499999999998863
        },
        {
          "name": "G1",
          "midi": 31,
          "time": 161.3999999999968,
          "velocity": 0.7874015748031497,
          "duration": 0.07499999999998863
        },
        {
          "name": "A1",
          "midi": 33,
          "time": 161.3999999999968,
          "velocity": 1,
          "duration": 0.07499999999998863
        },
        {
          "name": "G#2",
          "midi": 44,
          "time": 161.3999999999968,
          "velocity": 0.7244094488188977,
          "duration": 0.07499999999998863
        },
        {
          "name": "F#3",
          "midi": 54,
          "time": 161.53999999999678,
          "velocity": 0.1732283464566929,
          "duration": 0.07499999999998863
        },
        {
          "name": "F#3",
          "midi": 54,
          "time": 161.68999999999676,
          "velocity": 0.14173228346456693,
          "duration": 0.07499999999998863
        },
        {
          "name": "G#2",
          "midi": 44,
          "time": 161.69999999999675,
          "velocity": 0.4409448818897638,
          "duration": 0.07499999999998863
        },
        {
          "name": "F#3",
          "midi": 54,
          "time": 161.83999999999673,
          "velocity": 0.1889763779527559,
          "duration": 0.07499999999998863
        },
        {
          "name": "G#2",
          "midi": 44,
          "time": 161.84999999999673,
          "velocity": 0.2440944881889764,
          "duration": 0.07499999999998863
        },
        {
          "name": "F#3",
          "midi": 54,
          "time": 161.9899999999967,
          "velocity": 0.2992125984251969,
          "duration": 0.07499999999998863
        },
        {
          "name": "A1",
          "midi": 33,
          "time": 161.9999999999967,
          "velocity": 0.9921259842519685,
          "duration": 0.07499999999998863
        },
        {
          "name": "G#2",
          "midi": 44,
          "time": 161.9999999999967,
          "velocity": 0.7244094488188977,
          "duration": 0.07499999999998863
        },
        {
          "name": "F#3",
          "midi": 54,
          "time": 162.1399999999967,
          "velocity": 0.1889763779527559,
          "duration": 0.07499999999998863
        },
        {
          "name": "F#3",
          "midi": 54,
          "time": 162.28999999999667,
          "velocity": 0.1732283464566929,
          "duration": 0.07499999999998863
        },
        {
          "name": "G#2",
          "midi": 44,
          "time": 162.29999999999666,
          "velocity": 0.7244094488188977,
          "duration": 0.07499999999998863
        },
        {
          "name": "F#3",
          "midi": 54,
          "time": 162.43999999999664,
          "velocity": 0.2047244094488189,
          "duration": 0.07499999999998863
        },
        {
          "name": "F#3",
          "midi": 54,
          "time": 162.58999999999662,
          "velocity": 0.2992125984251969,
          "duration": 0.07499999999998863
        },
        {
          "name": "A1",
          "midi": 33,
          "time": 162.5999999999966,
          "velocity": 1,
          "duration": 0.07499999999998863
        },
        {
          "name": "G1",
          "midi": 31,
          "time": 162.5999999999966,
          "velocity": 0.7874015748031497,
          "duration": 0.07499999999998863
        },
        {
          "name": "F#3",
          "midi": 54,
          "time": 162.7399999999966,
          "velocity": 0.2047244094488189,
          "duration": 0.07499999999998863
        },
        {
          "name": "F#3",
          "midi": 54,
          "time": 162.88999999999658,
          "velocity": 0.1889763779527559,
          "duration": 0.07499999999998863
        },
        {
          "name": "G#2",
          "midi": 44,
          "time": 162.89999999999657,
          "velocity": 0.4409448818897638,
          "duration": 0.07499999999998863
        },
        {
          "name": "F#3",
          "midi": 54,
          "time": 163.03999999999655,
          "velocity": 0.25196850393700787,
          "duration": 0.07499999999998863
        },
        {
          "name": "G#2",
          "midi": 44,
          "time": 163.04999999999654,
          "velocity": 0.2440944881889764,
          "duration": 0.07499999999998863
        },
        {
          "name": "G#2",
          "midi": 44,
          "time": 163.19999999999652,
          "velocity": 0.7244094488188977,
          "duration": 0.07499999999998863
        },
        {
          "name": "A1",
          "midi": 33,
          "time": 163.19999999999652,
          "velocity": 0.9921259842519685,
          "duration": 0.07499999999998863
        },
        {
          "name": "F#3",
          "midi": 54,
          "time": 163.19999999999652,
          "velocity": 0.2992125984251969,
          "duration": 0.07499999999998863
        },
        {
          "name": "F#3",
          "midi": 54,
          "time": 163.3399999999965,
          "velocity": 0.18110236220472442,
          "duration": 0.07499999999998863
        },
        {
          "name": "F#3",
          "midi": 54,
          "time": 163.48999999999648,
          "velocity": 0.14960629921259844,
          "duration": 0.07499999999998863
        },
        {
          "name": "G#2",
          "midi": 44,
          "time": 163.49999999999648,
          "velocity": 0.4409448818897638,
          "duration": 0.07499999999998863
        },
        {
          "name": "F#3",
          "midi": 54,
          "time": 163.63999999999646,
          "velocity": 0.1968503937007874,
          "duration": 0.07499999999998863
        },
        {
          "name": "F#3",
          "midi": 54,
          "time": 163.78499999999644,
          "velocity": 0.2992125984251969,
          "duration": 0.07499999999998863
        },
        {
          "name": "G#2",
          "midi": 44,
          "time": 163.79999999999643,
          "velocity": 0.7244094488188977,
          "duration": 0.07499999999998863
        },
        {
          "name": "G1",
          "midi": 31,
          "time": 163.79999999999643,
          "velocity": 0.7874015748031497,
          "duration": 0.07499999999998863
        },
        {
          "name": "A1",
          "midi": 33,
          "time": 163.79999999999643,
          "velocity": 1,
          "duration": 0.07499999999998863
        },
        {
          "name": "F#3",
          "midi": 54,
          "time": 163.93999999999642,
          "velocity": 0.1732283464566929,
          "duration": 0.07499999999998863
        },
        {
          "name": "F#3",
          "midi": 54,
          "time": 164.0899999999964,
          "velocity": 0.14173228346456693,
          "duration": 0.07499999999998863
        },
        {
          "name": "G#2",
          "midi": 44,
          "time": 164.09999999999638,
          "velocity": 0.4409448818897638,
          "duration": 0.07499999999998863
        },
        {
          "name": "F#3",
          "midi": 54,
          "time": 164.23999999999637,
          "velocity": 0.1889763779527559,
          "duration": 0.07499999999998863
        },
        {
          "name": "G#2",
          "midi": 44,
          "time": 164.24999999999636,
          "velocity": 0.2440944881889764,
          "duration": 0.07499999999998863
        },
        {
          "name": "F#3",
          "midi": 54,
          "time": 164.38999999999635,
          "velocity": 0.2992125984251969,
          "duration": 0.07499999999998863
        },
        {
          "name": "G#2",
          "midi": 44,
          "time": 164.39999999999634,
          "velocity": 0.7244094488188977,
          "duration": 0.07499999999998863
        },
        {
          "name": "A1",
          "midi": 33,
          "time": 164.39999999999634,
          "velocity": 0.9921259842519685,
          "duration": 0.07499999999998863
        },
        {
          "name": "F#3",
          "midi": 54,
          "time": 164.53999999999633,
          "velocity": 0.1889763779527559,
          "duration": 0.07499999999998863
        },
        {
          "name": "F#3",
          "midi": 54,
          "time": 164.6899999999963,
          "velocity": 0.1732283464566929,
          "duration": 0.07499999999998863
        },
        {
          "name": "G#2",
          "midi": 44,
          "time": 164.6999999999963,
          "velocity": 0.7244094488188977,
          "duration": 0.07499999999998863
        },
        {
          "name": "F#3",
          "midi": 54,
          "time": 164.83999999999628,
          "velocity": 0.2047244094488189,
          "duration": 0.07499999999998863
        },
        {
          "name": "F#3",
          "midi": 54,
          "time": 164.98999999999626,
          "velocity": 0.2992125984251969,
          "duration": 0.07499999999998863
        },
        {
          "name": "A1",
          "midi": 33,
          "time": 164.99999999999625,
          "velocity": 1,
          "duration": 0.07499999999998863
        },
        {
          "name": "G1",
          "midi": 31,
          "time": 164.99999999999625,
          "velocity": 0.7874015748031497,
          "duration": 0.07499999999998863
        },
        {
          "name": "F#3",
          "midi": 54,
          "time": 165.13999999999623,
          "velocity": 0.2047244094488189,
          "duration": 0.07499999999998863
        },
        {
          "name": "F#3",
          "midi": 54,
          "time": 165.2899999999962,
          "velocity": 0.1889763779527559,
          "duration": 0.07499999999998863
        },
        {
          "name": "G#2",
          "midi": 44,
          "time": 165.2999999999962,
          "velocity": 0.4409448818897638,
          "duration": 0.07499999999998863
        },
        {
          "name": "F#3",
          "midi": 54,
          "time": 165.4399999999962,
          "velocity": 0.25196850393700787,
          "duration": 0.07499999999998863
        },
        {
          "name": "G#2",
          "midi": 44,
          "time": 165.44999999999618,
          "velocity": 0.2440944881889764,
          "duration": 0.07499999999998863
        },
        {
          "name": "A1",
          "midi": 33,
          "time": 165.59999999999616,
          "velocity": 1,
          "duration": 0.07499999999998863
        },
        {
          "name": "A1",
          "midi": 33,
          "time": 167.99999999999613,
          "velocity": 0.9921259842519685,
          "duration": 0.07499999999998863
        },
        {
          "name": "G#2",
          "midi": 44,
          "time": 167.99999999999613,
          "velocity": 0.7244094488188977,
          "duration": 0.07499999999998863
        },
        {
          "name": "F#3",
          "midi": 54,
          "time": 167.99999999999613,
          "velocity": 0.2992125984251969,
          "duration": 0.07499999999998863
        },
        {
          "name": "F#3",
          "midi": 54,
          "time": 168.13999999999612,
          "velocity": 0.18110236220472442,
          "duration": 0.07499999999998863
        },
        {
          "name": "F#3",
          "midi": 54,
          "time": 168.2899999999961,
          "velocity": 0.14960629921259844,
          "duration": 0.07499999999998863
        },
        {
          "name": "G#2",
          "midi": 44,
          "time": 168.2999999999961,
          "velocity": 0.4409448818897638,
          "duration": 0.07499999999998863
        },
        {
          "name": "F#3",
          "midi": 54,
          "time": 168.43999999999608,
          "velocity": 0.1968503937007874,
          "duration": 0.07499999999998863
        },
        {
          "name": "F#3",
          "midi": 54,
          "time": 168.58499999999606,
          "velocity": 0.2992125984251969,
          "duration": 0.07499999999998863
        },
        {
          "name": "A1",
          "midi": 33,
          "time": 168.59999999999604,
          "velocity": 1,
          "duration": 0.07499999999998863
        },
        {
          "name": "G#2",
          "midi": 44,
          "time": 168.59999999999604,
          "velocity": 0.7244094488188977,
          "duration": 0.07499999999998863
        },
        {
          "name": "G1",
          "midi": 31,
          "time": 168.59999999999604,
          "velocity": 0.7874015748031497,
          "duration": 0.07499999999998863
        },
        {
          "name": "F#3",
          "midi": 54,
          "time": 168.73999999999603,
          "velocity": 0.1732283464566929,
          "duration": 0.07499999999998863
        },
        {
          "name": "F#3",
          "midi": 54,
          "time": 168.889999999996,
          "velocity": 0.14173228346456693,
          "duration": 0.07499999999998863
        },
        {
          "name": "G#2",
          "midi": 44,
          "time": 168.899999999996,
          "velocity": 0.4409448818897638,
          "duration": 0.07499999999998863
        },
        {
          "name": "F#3",
          "midi": 54,
          "time": 169.03999999999598,
          "velocity": 0.1889763779527559,
          "duration": 0.07499999999998863
        },
        {
          "name": "G#2",
          "midi": 44,
          "time": 169.04999999999598,
          "velocity": 0.2440944881889764,
          "duration": 0.07499999999998863
        },
        {
          "name": "F#3",
          "midi": 54,
          "time": 169.18999999999596,
          "velocity": 0.2992125984251969,
          "duration": 0.07499999999998863
        },
        {
          "name": "G#2",
          "midi": 44,
          "time": 169.19999999999595,
          "velocity": 0.7244094488188977,
          "duration": 0.07499999999998863
        },
        {
          "name": "A1",
          "midi": 33,
          "time": 169.19999999999595,
          "velocity": 0.9921259842519685,
          "duration": 0.07499999999998863
        },
        {
          "name": "F#3",
          "midi": 54,
          "time": 169.33999999999594,
          "velocity": 0.1889763779527559,
          "duration": 0.07499999999998863
        },
        {
          "name": "F#3",
          "midi": 54,
          "time": 169.48999999999592,
          "velocity": 0.1732283464566929,
          "duration": 0.07499999999998863
        },
        {
          "name": "G#2",
          "midi": 44,
          "time": 169.4999999999959,
          "velocity": 0.7244094488188977,
          "duration": 0.07499999999998863
        },
        {
          "name": "F#3",
          "midi": 54,
          "time": 169.6399999999959,
          "velocity": 0.2047244094488189,
          "duration": 0.07499999999998863
        },
        {
          "name": "F#3",
          "midi": 54,
          "time": 169.78999999999587,
          "velocity": 0.2992125984251969,
          "duration": 0.07499999999998863
        },
        {
          "name": "A1",
          "midi": 33,
          "time": 169.79999999999586,
          "velocity": 1,
          "duration": 0.07499999999998863
        },
        {
          "name": "G1",
          "midi": 31,
          "time": 169.79999999999586,
          "velocity": 0.7874015748031497,
          "duration": 0.07499999999998863
        },
        {
          "name": "F#3",
          "midi": 54,
          "time": 169.93999999999585,
          "velocity": 0.2047244094488189,
          "duration": 0.07499999999998863
        },
        {
          "name": "F#3",
          "midi": 54,
          "time": 170.08999999999583,
          "velocity": 0.1889763779527559,
          "duration": 0.07499999999998863
        },
        {
          "name": "G#2",
          "midi": 44,
          "time": 170.09999999999582,
          "velocity": 0.4409448818897638,
          "duration": 0.07499999999998863
        },
        {
          "name": "F#3",
          "midi": 54,
          "time": 170.2399999999958,
          "velocity": 0.25196850393700787,
          "duration": 0.07499999999998863
        },
        {
          "name": "G#2",
          "midi": 44,
          "time": 170.2499999999958,
          "velocity": 0.2440944881889764,
          "duration": 0.07499999999998863
        },
        {
          "name": "G#2",
          "midi": 44,
          "time": 170.39999999999577,
          "velocity": 0.7244094488188977,
          "duration": 0.07499999999998863
        },
        {
          "name": "A1",
          "midi": 33,
          "time": 170.39999999999577,
          "velocity": 0.9921259842519685,
          "duration": 0.07499999999998863
        },
        {
          "name": "F#3",
          "midi": 54,
          "time": 170.39999999999577,
          "velocity": 0.2992125984251969,
          "duration": 0.07499999999998863
        },
        {
          "name": "F#3",
          "midi": 54,
          "time": 170.53999999999576,
          "velocity": 0.18110236220472442,
          "duration": 0.07499999999998863
        },
        {
          "name": "F#3",
          "midi": 54,
          "time": 170.68999999999573,
          "velocity": 0.14960629921259844,
          "duration": 0.07499999999998863
        },
        {
          "name": "G#2",
          "midi": 44,
          "time": 170.69999999999573,
          "velocity": 0.4409448818897638,
          "duration": 0.07499999999998863
        },
        {
          "name": "F#3",
          "midi": 54,
          "time": 170.8399999999957,
          "velocity": 0.1968503937007874,
          "duration": 0.07499999999998863
        },
        {
          "name": "F#3",
          "midi": 54,
          "time": 170.9849999999957,
          "velocity": 0.2992125984251969,
          "duration": 0.07499999999998863
        },
        {
          "name": "A1",
          "midi": 33,
          "time": 170.99999999999568,
          "velocity": 1,
          "duration": 0.07499999999998863
        },
        {
          "name": "G#2",
          "midi": 44,
          "time": 170.99999999999568,
          "velocity": 0.7244094488188977,
          "duration": 0.07499999999998863
        },
        {
          "name": "G1",
          "midi": 31,
          "time": 170.99999999999568,
          "velocity": 0.7874015748031497,
          "duration": 0.07499999999998863
        },
        {
          "name": "F#3",
          "midi": 54,
          "time": 171.13999999999567,
          "velocity": 0.1732283464566929,
          "duration": 0.07499999999998863
        },
        {
          "name": "F#3",
          "midi": 54,
          "time": 171.28999999999564,
          "velocity": 0.14173228346456693,
          "duration": 0.07499999999998863
        },
        {
          "name": "G#2",
          "midi": 44,
          "time": 171.29999999999563,
          "velocity": 0.4409448818897638,
          "duration": 0.07499999999998863
        },
        {
          "name": "F#3",
          "midi": 54,
          "time": 171.43999999999562,
          "velocity": 0.1889763779527559,
          "duration": 0.07499999999998863
        },
        {
          "name": "G#2",
          "midi": 44,
          "time": 171.4499999999956,
          "velocity": 0.2440944881889764,
          "duration": 0.07499999999998863
        },
        {
          "name": "F#3",
          "midi": 54,
          "time": 171.5899999999956,
          "velocity": 0.2992125984251969,
          "duration": 0.07499999999998863
        },
        {
          "name": "A1",
          "midi": 33,
          "time": 171.5999999999956,
          "velocity": 0.9921259842519685,
          "duration": 0.07499999999998863
        },
        {
          "name": "G#2",
          "midi": 44,
          "time": 171.5999999999956,
          "velocity": 0.7244094488188977,
          "duration": 0.07499999999998863
        },
        {
          "name": "F#3",
          "midi": 54,
          "time": 171.73999999999558,
          "velocity": 0.1889763779527559,
          "duration": 0.07499999999998863
        },
        {
          "name": "F#3",
          "midi": 54,
          "time": 171.88999999999555,
          "velocity": 0.1732283464566929,
          "duration": 0.07499999999998863
        },
        {
          "name": "G#2",
          "midi": 44,
          "time": 171.89999999999554,
          "velocity": 0.7244094488188977,
          "duration": 0.07499999999998863
        },
        {
          "name": "F#3",
          "midi": 54,
          "time": 172.03999999999553,
          "velocity": 0.2047244094488189,
          "duration": 0.07499999999998863
        },
        {
          "name": "F#3",
          "midi": 54,
          "time": 172.1899999999955,
          "velocity": 0.2992125984251969,
          "duration": 0.07499999999998863
        },
        {
          "name": "G1",
          "midi": 31,
          "time": 172.1999999999955,
          "velocity": 0.7874015748031497,
          "duration": 0.07499999999998863
        },
        {
          "name": "A1",
          "midi": 33,
          "time": 172.1999999999955,
          "velocity": 1,
          "duration": 0.07499999999998863
        },
        {
          "name": "F#3",
          "midi": 54,
          "time": 172.33999999999548,
          "velocity": 0.2047244094488189,
          "duration": 0.07499999999998863
        },
        {
          "name": "F#3",
          "midi": 54,
          "time": 172.48999999999546,
          "velocity": 0.1889763779527559,
          "duration": 0.07499999999998863
        },
        {
          "name": "G#2",
          "midi": 44,
          "time": 172.49999999999545,
          "velocity": 0.4409448818897638,
          "duration": 0.07499999999998863
        },
        {
          "name": "F#3",
          "midi": 54,
          "time": 172.63999999999544,
          "velocity": 0.25196850393700787,
          "duration": 0.07499999999998863
        },
        {
          "name": "G#2",
          "midi": 44,
          "time": 172.64999999999543,
          "velocity": 0.2440944881889764,
          "duration": 0.07499999999998863
        },
        {
          "name": "A1",
          "midi": 33,
          "time": 172.7999999999954,
          "velocity": 0.9921259842519685,
          "duration": 0.07499999999998863
        },
        {
          "name": "G#2",
          "midi": 44,
          "time": 172.7999999999954,
          "velocity": 0.7244094488188977,
          "duration": 0.07499999999998863
        },
        {
          "name": "F#3",
          "midi": 54,
          "time": 172.7999999999954,
          "velocity": 0.2992125984251969,
          "duration": 0.07499999999998863
        },
        {
          "name": "F#3",
          "midi": 54,
          "time": 172.9399999999954,
          "velocity": 0.18110236220472442,
          "duration": 0.07499999999998863
        },
        {
          "name": "G#2",
          "midi": 44,
          "time": 172.94999999999538,
          "velocity": 0.2677165354330709,
          "duration": 0.07499999999998863
        },
        {
          "name": "F#3",
          "midi": 54,
          "time": 173.08999999999537,
          "velocity": 0.14960629921259844,
          "duration": 0.07499999999998863
        },
        {
          "name": "G#2",
          "midi": 44,
          "time": 173.09999999999536,
          "velocity": 0.4409448818897638,
          "duration": 0.07499999999998863
        },
        {
          "name": "F#3",
          "midi": 54,
          "time": 173.23999999999535,
          "velocity": 0.1968503937007874,
          "duration": 0.07499999999998863
        },
        {
          "name": "G#2",
          "midi": 44,
          "time": 173.24999999999534,
          "velocity": 0.2440944881889764,
          "duration": 0.07499999999998863
        },
        {
          "name": "F#3",
          "midi": 54,
          "time": 173.38499999999533,
          "velocity": 0.2992125984251969,
          "duration": 0.07499999999998863
        },
        {
          "name": "G1",
          "midi": 31,
          "time": 173.39999999999532,
          "velocity": 0.7874015748031497,
          "duration": 0.07499999999998863
        },
        {
          "name": "A1",
          "midi": 33,
          "time": 173.39999999999532,
          "velocity": 1,
          "duration": 0.07499999999998863
        },
        {
          "name": "G#2",
          "midi": 44,
          "time": 173.39999999999532,
          "velocity": 0.7244094488188977,
          "duration": 0.07499999999998863
        },
        {
          "name": "F#3",
          "midi": 54,
          "time": 173.5399999999953,
          "velocity": 0.1732283464566929,
          "duration": 0.07499999999998863
        },
        {
          "name": "F#3",
          "midi": 54,
          "time": 173.68999999999528,
          "velocity": 0.14173228346456693,
          "duration": 0.07499999999998863
        },
        {
          "name": "G#2",
          "midi": 44,
          "time": 173.69999999999527,
          "velocity": 0.4409448818897638,
          "duration": 0.07499999999998863
        },
        {
          "name": "F#3",
          "midi": 54,
          "time": 173.83999999999526,
          "velocity": 0.1889763779527559,
          "duration": 0.07499999999998863
        },
        {
          "name": "G#2",
          "midi": 44,
          "time": 173.84999999999525,
          "velocity": 0.2440944881889764,
          "duration": 0.07499999999998863
        },
        {
          "name": "F#3",
          "midi": 54,
          "time": 173.98999999999523,
          "velocity": 0.2992125984251969,
          "duration": 0.07499999999998863
        },
        {
          "name": "G#2",
          "midi": 44,
          "time": 173.99999999999523,
          "velocity": 0.7244094488188977,
          "duration": 0.07499999999998863
        },
        {
          "name": "A1",
          "midi": 33,
          "time": 173.99999999999523,
          "velocity": 0.9921259842519685,
          "duration": 0.07499999999998863
        },
        {
          "name": "F#3",
          "midi": 54,
          "time": 174.1399999999952,
          "velocity": 0.1889763779527559,
          "duration": 0.07499999999998863
        },
        {
          "name": "F#3",
          "midi": 54,
          "time": 174.2899999999952,
          "velocity": 0.1732283464566929,
          "duration": 0.07499999999998863
        },
        {
          "name": "G#2",
          "midi": 44,
          "time": 174.29999999999518,
          "velocity": 0.7244094488188977,
          "duration": 0.07499999999998863
        },
        {
          "name": "F#3",
          "midi": 54,
          "time": 174.43999999999517,
          "velocity": 0.2047244094488189,
          "duration": 0.07499999999998863
        },
        {
          "name": "F#3",
          "midi": 54,
          "time": 174.58999999999514,
          "velocity": 0.2992125984251969,
          "duration": 0.07499999999998863
        },
        {
          "name": "G1",
          "midi": 31,
          "time": 174.59999999999513,
          "velocity": 0.7874015748031497,
          "duration": 0.07499999999998863
        },
        {
          "name": "A1",
          "midi": 33,
          "time": 174.59999999999513,
          "velocity": 1,
          "duration": 0.07499999999998863
        },
        {
          "name": "F#3",
          "midi": 54,
          "time": 174.73999999999512,
          "velocity": 0.2047244094488189,
          "duration": 0.07499999999998863
        },
        {
          "name": "F#3",
          "midi": 54,
          "time": 174.8899999999951,
          "velocity": 0.1889763779527559,
          "duration": 0.07499999999998863
        },
        {
          "name": "G#2",
          "midi": 44,
          "time": 174.8999999999951,
          "velocity": 0.4409448818897638,
          "duration": 0.07499999999998863
        },
        {
          "name": "F#3",
          "midi": 54,
          "time": 175.03999999999508,
          "velocity": 0.25196850393700787,
          "duration": 0.07499999999998863
        },
        {
          "name": "G#2",
          "midi": 44,
          "time": 175.04999999999507,
          "velocity": 0.2440944881889764,
          "duration": 0.07499999999998863
        },
        {
          "name": "G#2",
          "midi": 44,
          "time": 175.19999999999504,
          "velocity": 0.7244094488188977,
          "duration": 0.07499999999998863
        },
        {
          "name": "A1",
          "midi": 33,
          "time": 175.19999999999504,
          "velocity": 0.9921259842519685,
          "duration": 0.07499999999998863
        },
        {
          "name": "F#3",
          "midi": 54,
          "time": 175.19999999999504,
          "velocity": 0.2992125984251969,
          "duration": 0.07499999999998863
        },
        {
          "name": "F#3",
          "midi": 54,
          "time": 175.33999999999503,
          "velocity": 0.18110236220472442,
          "duration": 0.07499999999998863
        },
        {
          "name": "F#3",
          "midi": 54,
          "time": 175.489999999995,
          "velocity": 0.14960629921259844,
          "duration": 0.07499999999998863
        },
        {
          "name": "G#2",
          "midi": 44,
          "time": 175.499999999995,
          "velocity": 0.4409448818897638,
          "duration": 0.07499999999998863
        },
        {
          "name": "F#3",
          "midi": 54,
          "time": 175.63999999999498,
          "velocity": 0.1968503937007874,
          "duration": 0.07499999999998863
        },
        {
          "name": "F#3",
          "midi": 54,
          "time": 175.78499999999497,
          "velocity": 0.2992125984251969,
          "duration": 0.07499999999998863
        },
        {
          "name": "G1",
          "midi": 31,
          "time": 175.79999999999495,
          "velocity": 0.7874015748031497,
          "duration": 0.07499999999998863
        },
        {
          "name": "A1",
          "midi": 33,
          "time": 175.79999999999495,
          "velocity": 1,
          "duration": 0.07499999999998863
        },
        {
          "name": "G#2",
          "midi": 44,
          "time": 175.79999999999495,
          "velocity": 0.7244094488188977,
          "duration": 0.07499999999998863
        },
        {
          "name": "F#3",
          "midi": 54,
          "time": 175.93999999999494,
          "velocity": 0.1732283464566929,
          "duration": 0.07499999999998863
        },
        {
          "name": "F#3",
          "midi": 54,
          "time": 176.08999999999492,
          "velocity": 0.14173228346456693,
          "duration": 0.07499999999998863
        },
        {
          "name": "G#2",
          "midi": 44,
          "time": 176.0999999999949,
          "velocity": 0.4409448818897638,
          "duration": 0.07499999999998863
        },
        {
          "name": "F#3",
          "midi": 54,
          "time": 176.2399999999949,
          "velocity": 0.1889763779527559,
          "duration": 0.07499999999998863
        },
        {
          "name": "G#2",
          "midi": 44,
          "time": 176.24999999999488,
          "velocity": 0.2440944881889764,
          "duration": 0.07499999999998863
        },
        {
          "name": "F#3",
          "midi": 54,
          "time": 176.38999999999487,
          "velocity": 0.2992125984251969,
          "duration": 0.07499999999998863
        },
        {
          "name": "A1",
          "midi": 33,
          "time": 176.39999999999486,
          "velocity": 0.9921259842519685,
          "duration": 0.07499999999998863
        },
        {
          "name": "G#2",
          "midi": 44,
          "time": 176.39999999999486,
          "velocity": 0.7244094488188977,
          "duration": 0.07499999999998863
        },
        {
          "name": "F#3",
          "midi": 54,
          "time": 176.53999999999485,
          "velocity": 0.1889763779527559,
          "duration": 0.07499999999998863
        },
        {
          "name": "F#3",
          "midi": 54,
          "time": 176.68999999999482,
          "velocity": 0.1732283464566929,
          "duration": 0.07499999999998863
        },
        {
          "name": "G#2",
          "midi": 44,
          "time": 176.69999999999482,
          "velocity": 0.7244094488188977,
          "duration": 0.07499999999998863
        },
        {
          "name": "F#3",
          "midi": 54,
          "time": 176.8399999999948,
          "velocity": 0.2047244094488189,
          "duration": 0.07499999999998863
        },
        {
          "name": "F#3",
          "midi": 54,
          "time": 176.98999999999478,
          "velocity": 0.2992125984251969,
          "duration": 0.07499999999998863
        },
        {
          "name": "A1",
          "midi": 33,
          "time": 176.99999999999477,
          "velocity": 1,
          "duration": 0.07499999999998863
        },
        {
          "name": "G1",
          "midi": 31,
          "time": 176.99999999999477,
          "velocity": 0.7874015748031497,
          "duration": 0.07499999999998863
        },
        {
          "name": "F#3",
          "midi": 54,
          "time": 177.13999999999476,
          "velocity": 0.2047244094488189,
          "duration": 0.07499999999998863
        },
        {
          "name": "F#3",
          "midi": 54,
          "time": 177.28999999999473,
          "velocity": 0.1889763779527559,
          "duration": 0.07499999999998863
        },
        {
          "name": "G#2",
          "midi": 44,
          "time": 177.29999999999472,
          "velocity": 0.4409448818897638,
          "duration": 0.07499999999998863
        },
        {
          "name": "F#3",
          "midi": 54,
          "time": 177.4399999999947,
          "velocity": 0.25196850393700787,
          "duration": 0.07499999999998863
        },
        {
          "name": "G#2",
          "midi": 44,
          "time": 177.4499999999947,
          "velocity": 0.2440944881889764,
          "duration": 0.07499999999998863
        },
        {
          "name": "A1",
          "midi": 33,
          "time": 177.59999999999468,
          "velocity": 0.9921259842519685,
          "duration": 0.07499999999998863
        },
        {
          "name": "G#2",
          "midi": 44,
          "time": 177.59999999999468,
          "velocity": 0.7244094488188977,
          "duration": 0.07499999999998863
        },
        {
          "name": "F#3",
          "midi": 54,
          "time": 177.59999999999468,
          "velocity": 0.2992125984251969,
          "duration": 0.07499999999998863
        },
        {
          "name": "F#3",
          "midi": 54,
          "time": 177.73999999999467,
          "velocity": 0.18110236220472442,
          "duration": 0.07499999999998863
        },
        {
          "name": "G#2",
          "midi": 44,
          "time": 177.74999999999466,
          "velocity": 0.2677165354330709,
          "duration": 0.07499999999998863
        },
        {
          "name": "F#3",
          "midi": 54,
          "time": 177.88999999999464,
          "velocity": 0.14960629921259844,
          "duration": 0.07499999999998863
        },
        {
          "name": "G#2",
          "midi": 44,
          "time": 177.89999999999463,
          "velocity": 0.4409448818897638,
          "duration": 0.07499999999998863
        },
        {
          "name": "F#3",
          "midi": 54,
          "time": 178.03999999999462,
          "velocity": 0.1968503937007874,
          "duration": 0.07499999999998863
        },
        {
          "name": "G#2",
          "midi": 44,
          "time": 178.0499999999946,
          "velocity": 0.2440944881889764,
          "duration": 0.07499999999998863
        },
        {
          "name": "F#3",
          "midi": 54,
          "time": 178.1849999999946,
          "velocity": 0.2992125984251969,
          "duration": 0.07499999999998863
        },
        {
          "name": "G1",
          "midi": 31,
          "time": 178.1999999999946,
          "velocity": 0.7874015748031497,
          "duration": 0.07499999999998863
        },
        {
          "name": "A1",
          "midi": 33,
          "time": 178.1999999999946,
          "velocity": 1,
          "duration": 0.07499999999998863
        },
        {
          "name": "G#2",
          "midi": 44,
          "time": 178.1999999999946,
          "velocity": 0.7244094488188977,
          "duration": 0.07499999999998863
        },
        {
          "name": "F#3",
          "midi": 54,
          "time": 178.33999999999457,
          "velocity": 0.1732283464566929,
          "duration": 0.07499999999998863
        },
        {
          "name": "F#3",
          "midi": 54,
          "time": 178.48999999999455,
          "velocity": 0.14173228346456693,
          "duration": 0.07499999999998863
        },
        {
          "name": "G#2",
          "midi": 44,
          "time": 178.49999999999454,
          "velocity": 0.4409448818897638,
          "duration": 0.07499999999998863
        },
        {
          "name": "F#3",
          "midi": 54,
          "time": 178.63999999999453,
          "velocity": 0.1889763779527559,
          "duration": 0.07499999999998863
        },
        {
          "name": "G#2",
          "midi": 44,
          "time": 178.64999999999452,
          "velocity": 0.2440944881889764,
          "duration": 0.07499999999998863
        },
        {
          "name": "F#3",
          "midi": 54,
          "time": 178.7899999999945,
          "velocity": 0.2992125984251969,
          "duration": 0.07499999999998863
        },
        {
          "name": "G#2",
          "midi": 44,
          "time": 178.7999999999945,
          "velocity": 0.7244094488188977,
          "duration": 0.07499999999998863
        },
        {
          "name": "A1",
          "midi": 33,
          "time": 178.7999999999945,
          "velocity": 0.9921259842519685,
          "duration": 0.07499999999998863
        },
        {
          "name": "F#3",
          "midi": 54,
          "time": 178.93999999999448,
          "velocity": 0.1889763779527559,
          "duration": 0.07499999999998863
        },
        {
          "name": "F#3",
          "midi": 54,
          "time": 179.08999999999446,
          "velocity": 0.1732283464566929,
          "duration": 0.07499999999998863
        },
        {
          "name": "G#2",
          "midi": 44,
          "time": 179.09999999999445,
          "velocity": 0.7244094488188977,
          "duration": 0.07499999999998863
        },
        {
          "name": "F#3",
          "midi": 54,
          "time": 179.23999999999444,
          "velocity": 0.2047244094488189,
          "duration": 0.07499999999998863
        },
        {
          "name": "F#3",
          "midi": 54,
          "time": 179.38999999999442,
          "velocity": 0.2992125984251969,
          "duration": 0.07499999999998863
        },
        {
          "name": "G1",
          "midi": 31,
          "time": 179.3999999999944,
          "velocity": 0.7874015748031497,
          "duration": 0.07499999999998863
        },
        {
          "name": "A1",
          "midi": 33,
          "time": 179.3999999999944,
          "velocity": 1,
          "duration": 0.07499999999998863
        },
        {
          "name": "F#3",
          "midi": 54,
          "time": 179.5399999999944,
          "velocity": 0.2047244094488189,
          "duration": 0.07499999999998863
        },
        {
          "name": "F#3",
          "midi": 54,
          "time": 179.68999999999437,
          "velocity": 0.1889763779527559,
          "duration": 0.07499999999998863
        },
        {
          "name": "G#2",
          "midi": 44,
          "time": 179.69999999999436,
          "velocity": 0.4409448818897638,
          "duration": 0.07499999999998863
        },
        {
          "name": "F#3",
          "midi": 54,
          "time": 179.83999999999435,
          "velocity": 0.25196850393700787,
          "duration": 0.07499999999998863
        },
        {
          "name": "G#2",
          "midi": 44,
          "time": 179.84999999999434,
          "velocity": 0.2440944881889764,
          "duration": 0.07499999999998863
        },
        {
          "name": "A1",
          "midi": 33,
          "time": 179.99999999999432,
          "velocity": 0.9921259842519685,
          "duration": 0.07499999999998863
        },
        {
          "name": "F#3",
          "midi": 54,
          "time": 179.99999999999432,
          "velocity": 0.2992125984251969,
          "duration": 0.07499999999998863
        },
        {
          "name": "G#2",
          "midi": 44,
          "time": 179.99999999999432,
          "velocity": 0.7244094488188977,
          "duration": 0.07499999999998863
        },
        {
          "name": "F#3",
          "midi": 54,
          "time": 180.1399999999943,
          "velocity": 0.18110236220472442,
          "duration": 0.07499999999998863
        },
        {
          "name": "F#3",
          "midi": 54,
          "time": 180.28999999999428,
          "velocity": 0.14960629921259844,
          "duration": 0.07499999999998863
        },
        {
          "name": "G#2",
          "midi": 44,
          "time": 180.29999999999427,
          "velocity": 0.4409448818897638,
          "duration": 0.07499999999998863
        },
        {
          "name": "F#3",
          "midi": 54,
          "time": 180.43999999999426,
          "velocity": 0.1968503937007874,
          "duration": 0.07499999999998863
        },
        {
          "name": "F#3",
          "midi": 54,
          "time": 180.58499999999424,
          "velocity": 0.2992125984251969,
          "duration": 0.07499999999998863
        },
        {
          "name": "G1",
          "midi": 31,
          "time": 180.59999999999422,
          "velocity": 0.7874015748031497,
          "duration": 0.07499999999998863
        },
        {
          "name": "A1",
          "midi": 33,
          "time": 180.59999999999422,
          "velocity": 1,
          "duration": 0.07499999999998863
        },
        {
          "name": "G#2",
          "midi": 44,
          "time": 180.59999999999422,
          "velocity": 0.7244094488188977,
          "duration": 0.07499999999998863
        },
        {
          "name": "F#3",
          "midi": 54,
          "time": 180.7399999999942,
          "velocity": 0.1732283464566929,
          "duration": 0.07499999999998863
        },
        {
          "name": "F#3",
          "midi": 54,
          "time": 180.8899999999942,
          "velocity": 0.14173228346456693,
          "duration": 0.07499999999998863
        },
        {
          "name": "G#2",
          "midi": 44,
          "time": 180.89999999999418,
          "velocity": 0.4409448818897638,
          "duration": 0.07499999999998863
        },
        {
          "name": "F#3",
          "midi": 54,
          "time": 181.03999999999417,
          "velocity": 0.1889763779527559,
          "duration": 0.07499999999998863
        },
        {
          "name": "G#2",
          "midi": 44,
          "time": 181.04999999999416,
          "velocity": 0.2440944881889764,
          "duration": 0.07499999999998863
        },
        {
          "name": "F#3",
          "midi": 54,
          "time": 181.18999999999414,
          "velocity": 0.2992125984251969,
          "duration": 0.07499999999998863
        },
        {
          "name": "A1",
          "midi": 33,
          "time": 181.19999999999413,
          "velocity": 0.9921259842519685,
          "duration": 0.07499999999998863
        },
        {
          "name": "G#2",
          "midi": 44,
          "time": 181.19999999999413,
          "velocity": 0.7244094488188977,
          "duration": 0.07499999999998863
        },
        {
          "name": "F#3",
          "midi": 54,
          "time": 181.33999999999412,
          "velocity": 0.1889763779527559,
          "duration": 0.07499999999998863
        },
        {
          "name": "F#3",
          "midi": 54,
          "time": 181.4899999999941,
          "velocity": 0.1732283464566929,
          "duration": 0.07499999999998863
        },
        {
          "name": "G#2",
          "midi": 44,
          "time": 181.4999999999941,
          "velocity": 0.7244094488188977,
          "duration": 0.07499999999998863
        },
        {
          "name": "F#3",
          "midi": 54,
          "time": 181.63999999999407,
          "velocity": 0.2047244094488189,
          "duration": 0.07499999999998863
        },
        {
          "name": "F#3",
          "midi": 54,
          "time": 181.78999999999405,
          "velocity": 0.2992125984251969,
          "duration": 0.07499999999998863
        },
        {
          "name": "A1",
          "midi": 33,
          "time": 181.79999999999404,
          "velocity": 1,
          "duration": 0.07499999999998863
        },
        {
          "name": "G1",
          "midi": 31,
          "time": 181.79999999999404,
          "velocity": 0.7874015748031497,
          "duration": 0.07499999999998863
        },
        {
          "name": "F#3",
          "midi": 54,
          "time": 181.93999999999403,
          "velocity": 0.2047244094488189,
          "duration": 0.07499999999998863
        },
        {
          "name": "F#3",
          "midi": 54,
          "time": 182.089999999994,
          "velocity": 0.1889763779527559,
          "duration": 0.07499999999998863
        },
        {
          "name": "G#2",
          "midi": 44,
          "time": 182.099999999994,
          "velocity": 0.4409448818897638,
          "duration": 0.07499999999998863
        },
        {
          "name": "F#3",
          "midi": 54,
          "time": 182.23999999999398,
          "velocity": 0.25196850393700787,
          "duration": 0.07499999999998863
        },
        {
          "name": "G#2",
          "midi": 44,
          "time": 182.24999999999397,
          "velocity": 0.2440944881889764,
          "duration": 0.07499999999998863
        },
        {
          "name": "A1",
          "midi": 33,
          "time": 182.39999999999395,
          "velocity": 0.9921259842519685,
          "duration": 0.07499999999998863
        },
        {
          "name": "G#2",
          "midi": 44,
          "time": 182.39999999999395,
          "velocity": 0.7244094488188977,
          "duration": 0.07499999999998863
        },
        {
          "name": "F#3",
          "midi": 54,
          "time": 182.39999999999395,
          "velocity": 0.2992125984251969,
          "duration": 0.07499999999998863
        },
        {
          "name": "F#3",
          "midi": 54,
          "time": 182.53999999999394,
          "velocity": 0.18110236220472442,
          "duration": 0.07499999999998863
        },
        {
          "name": "G#2",
          "midi": 44,
          "time": 182.54999999999393,
          "velocity": 0.2677165354330709,
          "duration": 0.07499999999998863
        },
        {
          "name": "F#3",
          "midi": 54,
          "time": 182.68999999999392,
          "velocity": 0.14960629921259844,
          "duration": 0.07499999999998863
        },
        {
          "name": "G#2",
          "midi": 44,
          "time": 182.6999999999939,
          "velocity": 0.4409448818897638,
          "duration": 0.07499999999998863
        },
        {
          "name": "F#3",
          "midi": 54,
          "time": 182.8399999999939,
          "velocity": 0.1968503937007874,
          "duration": 0.07499999999998863
        },
        {
          "name": "G#2",
          "midi": 44,
          "time": 182.84999999999388,
          "velocity": 0.2440944881889764,
          "duration": 0.07499999999998863
        },
        {
          "name": "F#3",
          "midi": 54,
          "time": 182.98499999999387,
          "velocity": 0.2992125984251969,
          "duration": 0.07499999999998863
        },
        {
          "name": "G1",
          "midi": 31,
          "time": 182.99999999999386,
          "velocity": 0.7874015748031497,
          "duration": 0.07499999999998863
        },
        {
          "name": "A1",
          "midi": 33,
          "time": 182.99999999999386,
          "velocity": 1,
          "duration": 0.07499999999998863
        },
        {
          "name": "G#2",
          "midi": 44,
          "time": 182.99999999999386,
          "velocity": 0.7244094488188977,
          "duration": 0.07499999999998863
        },
        {
          "name": "F#3",
          "midi": 54,
          "time": 183.13999999999385,
          "velocity": 0.1732283464566929,
          "duration": 0.07499999999998863
        },
        {
          "name": "F#3",
          "midi": 54,
          "time": 183.28999999999382,
          "velocity": 0.14173228346456693,
          "duration": 0.07499999999998863
        },
        {
          "name": "G#2",
          "midi": 44,
          "time": 183.29999999999382,
          "velocity": 0.4409448818897638,
          "duration": 0.07499999999998863
        },
        {
          "name": "F#3",
          "midi": 54,
          "time": 183.4399999999938,
          "velocity": 0.1889763779527559,
          "duration": 0.07499999999998863
        },
        {
          "name": "G#2",
          "midi": 44,
          "time": 183.4499999999938,
          "velocity": 0.2440944881889764,
          "duration": 0.07499999999998863
        },
        {
          "name": "F#3",
          "midi": 54,
          "time": 183.58999999999378,
          "velocity": 0.2992125984251969,
          "duration": 0.07499999999998863
        },
        {
          "name": "A1",
          "midi": 33,
          "time": 183.59999999999377,
          "velocity": 0.9921259842519685,
          "duration": 0.07499999999998863
        },
        {
          "name": "G#2",
          "midi": 44,
          "time": 183.59999999999377,
          "velocity": 0.7244094488188977,
          "duration": 0.07499999999998863
        },
        {
          "name": "F#3",
          "midi": 54,
          "time": 183.73999999999376,
          "velocity": 0.1889763779527559,
          "duration": 0.07499999999998863
        },
        {
          "name": "F#3",
          "midi": 54,
          "time": 183.88999999999373,
          "velocity": 0.1732283464566929,
          "duration": 0.07499999999998863
        },
        {
          "name": "G#2",
          "midi": 44,
          "time": 183.89999999999372,
          "velocity": 0.7244094488188977,
          "duration": 0.07499999999998863
        },
        {
          "name": "F#3",
          "midi": 54,
          "time": 184.0399999999937,
          "velocity": 0.2047244094488189,
          "duration": 0.07499999999998863
        },
        {
          "name": "F#3",
          "midi": 54,
          "time": 184.1899999999937,
          "velocity": 0.2992125984251969,
          "duration": 0.07499999999998863
        },
        {
          "name": "G1",
          "midi": 31,
          "time": 184.19999999999368,
          "velocity": 0.7874015748031497,
          "duration": 0.07499999999998863
        },
        {
          "name": "A1",
          "midi": 33,
          "time": 184.19999999999368,
          "velocity": 1,
          "duration": 0.07499999999998863
        },
        {
          "name": "F#3",
          "midi": 54,
          "time": 184.33999999999367,
          "velocity": 0.2047244094488189,
          "duration": 0.07499999999998863
        },
        {
          "name": "F#3",
          "midi": 54,
          "time": 184.48999999999364,
          "velocity": 0.1889763779527559,
          "duration": 0.07499999999998863
        },
        {
          "name": "G#2",
          "midi": 44,
          "time": 184.49999999999363,
          "velocity": 0.4409448818897638,
          "duration": 0.07499999999998863
        },
        {
          "name": "F#3",
          "midi": 54,
          "time": 184.63999999999362,
          "velocity": 0.25196850393700787,
          "duration": 0.07499999999998863
        },
        {
          "name": "G#2",
          "midi": 44,
          "time": 184.6499999999936,
          "velocity": 0.2440944881889764,
          "duration": 0.07499999999998863
        },
        {
          "name": "G#2",
          "midi": 44,
          "time": 184.7999999999936,
          "velocity": 0.7244094488188977,
          "duration": 0.07499999999998863
        },
        {
          "name": "A1",
          "midi": 33,
          "time": 184.7999999999936,
          "velocity": 0.9921259842519685,
          "duration": 0.07499999999998863
        },
        {
          "name": "F#3",
          "midi": 54,
          "time": 184.7999999999936,
          "velocity": 0.2992125984251969,
          "duration": 0.07499999999998863
        },
        {
          "name": "F#3",
          "midi": 54,
          "time": 184.93999999999357,
          "velocity": 0.18110236220472442,
          "duration": 0.07499999999998863
        },
        {
          "name": "F#3",
          "midi": 54,
          "time": 185.08999999999355,
          "velocity": 0.14960629921259844,
          "duration": 0.07499999999998863
        },
        {
          "name": "G#2",
          "midi": 44,
          "time": 185.09999999999354,
          "velocity": 0.4409448818897638,
          "duration": 0.07499999999998863
        },
        {
          "name": "F#3",
          "midi": 54,
          "time": 185.23999999999353,
          "velocity": 0.1968503937007874,
          "duration": 0.07499999999998863
        },
        {
          "name": "F#3",
          "midi": 54,
          "time": 185.3849999999935,
          "velocity": 0.2992125984251969,
          "duration": 0.07499999999998863
        },
        {
          "name": "G1",
          "midi": 31,
          "time": 185.3999999999935,
          "velocity": 0.7874015748031497,
          "duration": 0.07499999999998863
        },
        {
          "name": "A1",
          "midi": 33,
          "time": 185.3999999999935,
          "velocity": 1,
          "duration": 0.07499999999998863
        },
        {
          "name": "G#2",
          "midi": 44,
          "time": 185.3999999999935,
          "velocity": 0.7244094488188977,
          "duration": 0.07499999999998863
        },
        {
          "name": "F#3",
          "midi": 54,
          "time": 185.53999999999348,
          "velocity": 0.1732283464566929,
          "duration": 0.07499999999998863
        },
        {
          "name": "F#3",
          "midi": 54,
          "time": 185.68999999999346,
          "velocity": 0.14173228346456693,
          "duration": 0.07499999999998863
        },
        {
          "name": "G#2",
          "midi": 44,
          "time": 185.69999999999345,
          "velocity": 0.4409448818897638,
          "duration": 0.07499999999998863
        },
        {
          "name": "F#3",
          "midi": 54,
          "time": 185.83999999999344,
          "velocity": 0.1889763779527559,
          "duration": 0.07499999999998863
        },
        {
          "name": "G#2",
          "midi": 44,
          "time": 185.84999999999343,
          "velocity": 0.2440944881889764,
          "duration": 0.07499999999998863
        },
        {
          "name": "F#3",
          "midi": 54,
          "time": 185.98999999999342,
          "velocity": 0.2992125984251969,
          "duration": 0.07499999999998863
        },
        {
          "name": "A1",
          "midi": 33,
          "time": 185.9999999999934,
          "velocity": 0.9921259842519685,
          "duration": 0.07499999999998863
        },
        {
          "name": "G#2",
          "midi": 44,
          "time": 185.9999999999934,
          "velocity": 0.7244094488188977,
          "duration": 0.07499999999998863
        },
        {
          "name": "F#3",
          "midi": 54,
          "time": 186.1399999999934,
          "velocity": 0.1889763779527559,
          "duration": 0.07499999999998863
        },
        {
          "name": "F#3",
          "midi": 54,
          "time": 186.28999999999337,
          "velocity": 0.1732283464566929,
          "duration": 0.07499999999998863
        },
        {
          "name": "G#2",
          "midi": 44,
          "time": 186.29999999999336,
          "velocity": 0.7244094488188977,
          "duration": 0.07499999999998863
        },
        {
          "name": "F#3",
          "midi": 54,
          "time": 186.43999999999335,
          "velocity": 0.2047244094488189,
          "duration": 0.07499999999998863
        },
        {
          "name": "F#3",
          "midi": 54,
          "time": 186.58999999999332,
          "velocity": 0.2992125984251969,
          "duration": 0.07499999999998863
        },
        {
          "name": "A1",
          "midi": 33,
          "time": 186.59999999999332,
          "velocity": 1,
          "duration": 0.07499999999998863
        },
        {
          "name": "G1",
          "midi": 31,
          "time": 186.59999999999332,
          "velocity": 0.7874015748031497,
          "duration": 0.07499999999998863
        },
        {
          "name": "F#3",
          "midi": 54,
          "time": 186.7399999999933,
          "velocity": 0.2047244094488189,
          "duration": 0.07499999999998863
        },
        {
          "name": "F#3",
          "midi": 54,
          "time": 186.88999999999328,
          "velocity": 0.1889763779527559,
          "duration": 0.07499999999998863
        },
        {
          "name": "G#2",
          "midi": 44,
          "time": 186.89999999999327,
          "velocity": 0.4409448818897638,
          "duration": 0.07499999999998863
        },
        {
          "name": "F#3",
          "midi": 54,
          "time": 187.03999999999326,
          "velocity": 0.25196850393700787,
          "duration": 0.07499999999998863
        },
        {
          "name": "G#2",
          "midi": 44,
          "time": 187.04999999999325,
          "velocity": 0.2440944881889764,
          "duration": 0.07499999999998863
        },
        {
          "name": "A1",
          "midi": 33,
          "time": 187.19999999999322,
          "velocity": 0.9921259842519685,
          "duration": 0.07499999999998863
        },
        {
          "name": "G#2",
          "midi": 44,
          "time": 187.19999999999322,
          "velocity": 0.7244094488188977,
          "duration": 0.07499999999998863
        },
        {
          "name": "F#3",
          "midi": 54,
          "time": 187.19999999999322,
          "velocity": 0.2992125984251969,
          "duration": 0.07499999999998863
        },
        {
          "name": "F#3",
          "midi": 54,
          "time": 187.3399999999932,
          "velocity": 0.18110236220472442,
          "duration": 0.07499999999998863
        },
        {
          "name": "G#2",
          "midi": 44,
          "time": 187.3499999999932,
          "velocity": 0.2677165354330709,
          "duration": 0.07499999999998863
        },
        {
          "name": "F#3",
          "midi": 54,
          "time": 187.4899999999932,
          "velocity": 0.14960629921259844,
          "duration": 0.07499999999998863
        },
        {
          "name": "G#2",
          "midi": 44,
          "time": 187.49999999999318,
          "velocity": 0.4409448818897638,
          "duration": 0.07499999999998863
        },
        {
          "name": "F#3",
          "midi": 54,
          "time": 187.63999999999317,
          "velocity": 0.1968503937007874,
          "duration": 0.07499999999998863
        },
        {
          "name": "G#2",
          "midi": 44,
          "time": 187.64999999999316,
          "velocity": 0.2440944881889764,
          "duration": 0.07499999999998863
        },
        {
          "name": "F#3",
          "midi": 54,
          "time": 187.78499999999315,
          "velocity": 0.2992125984251969,
          "duration": 0.07499999999998863
        },
        {
          "name": "G1",
          "midi": 31,
          "time": 187.79999999999313,
          "velocity": 0.7874015748031497,
          "duration": 0.07499999999998863
        },
        {
          "name": "A1",
          "midi": 33,
          "time": 187.79999999999313,
          "velocity": 1,
          "duration": 0.07499999999998863
        },
        {
          "name": "G#2",
          "midi": 44,
          "time": 187.79999999999313,
          "velocity": 0.7244094488188977,
          "duration": 0.07499999999998863
        },
        {
          "name": "F#3",
          "midi": 54,
          "time": 187.93999999999312,
          "velocity": 0.1732283464566929,
          "duration": 0.07499999999998863
        },
        {
          "name": "F#3",
          "midi": 54,
          "time": 188.0899999999931,
          "velocity": 0.14173228346456693,
          "duration": 0.07499999999998863
        },
        {
          "name": "G#2",
          "midi": 44,
          "time": 188.0999999999931,
          "velocity": 0.4409448818897638,
          "duration": 0.07499999999998863
        },
        {
          "name": "F#3",
          "midi": 54,
          "time": 188.23999999999307,
          "velocity": 0.1889763779527559,
          "duration": 0.07499999999998863
        },
        {
          "name": "G#2",
          "midi": 44,
          "time": 188.24999999999307,
          "velocity": 0.2440944881889764,
          "duration": 0.07499999999998863
        },
        {
          "name": "F#3",
          "midi": 54,
          "time": 188.38999999999305,
          "velocity": 0.2992125984251969,
          "duration": 0.07499999999998863
        },
        {
          "name": "G#2",
          "midi": 44,
          "time": 188.39999999999304,
          "velocity": 0.7244094488188977,
          "duration": 0.07499999999998863
        },
        {
          "name": "A1",
          "midi": 33,
          "time": 188.39999999999304,
          "velocity": 0.9921259842519685,
          "duration": 0.07499999999998863
        },
        {
          "name": "F#3",
          "midi": 54,
          "time": 188.53999999999303,
          "velocity": 0.1889763779527559,
          "duration": 0.07499999999998863
        },
        {
          "name": "F#3",
          "midi": 54,
          "time": 188.689999999993,
          "velocity": 0.1732283464566929,
          "duration": 0.07499999999998863
        },
        {
          "name": "G#2",
          "midi": 44,
          "time": 188.699999999993,
          "velocity": 0.7244094488188977,
          "duration": 0.07499999999998863
        },
        {
          "name": "F#3",
          "midi": 54,
          "time": 188.83999999999298,
          "velocity": 0.2047244094488189,
          "duration": 0.07499999999998863
        },
        {
          "name": "F#3",
          "midi": 54,
          "time": 188.98999999999296,
          "velocity": 0.2992125984251969,
          "duration": 0.07499999999998863
        },
        {
          "name": "G1",
          "midi": 31,
          "time": 188.99999999999295,
          "velocity": 0.7874015748031497,
          "duration": 0.07499999999998863
        },
        {
          "name": "A1",
          "midi": 33,
          "time": 188.99999999999295,
          "velocity": 1,
          "duration": 0.07499999999998863
        },
        {
          "name": "F#3",
          "midi": 54,
          "time": 189.13999999999294,
          "velocity": 0.2047244094488189,
          "duration": 0.07499999999998863
        },
        {
          "name": "F#3",
          "midi": 54,
          "time": 189.28999999999292,
          "velocity": 0.1889763779527559,
          "duration": 0.07499999999998863
        },
        {
          "name": "G#2",
          "midi": 44,
          "time": 189.2999999999929,
          "velocity": 0.4409448818897638,
          "duration": 0.07499999999998863
        },
        {
          "name": "F#3",
          "midi": 54,
          "time": 189.4399999999929,
          "velocity": 0.25196850393700787,
          "duration": 0.07499999999998863
        },
        {
          "name": "G#2",
          "midi": 44,
          "time": 189.44999999999288,
          "velocity": 0.2440944881889764,
          "duration": 0.07499999999998863
        },
        {
          "name": "A1",
          "midi": 33,
          "time": 189.59999999999286,
          "velocity": 0.9921259842519685,
          "duration": 0.07499999999998863
        },
        {
          "name": "F#3",
          "midi": 54,
          "time": 189.59999999999286,
          "velocity": 0.2992125984251969,
          "duration": 0.07499999999998863
        },
        {
          "name": "G#2",
          "midi": 44,
          "time": 189.59999999999286,
          "velocity": 0.7244094488188977,
          "duration": 0.07499999999998863
        },
        {
          "name": "F#3",
          "midi": 54,
          "time": 189.73999999999285,
          "velocity": 0.18110236220472442,
          "duration": 0.07499999999998863
        },
        {
          "name": "F#3",
          "midi": 54,
          "time": 189.88999999999282,
          "velocity": 0.14960629921259844,
          "duration": 0.07499999999998863
        },
        {
          "name": "G#2",
          "midi": 44,
          "time": 189.89999999999281,
          "velocity": 0.4409448818897638,
          "duration": 0.07499999999998863
        },
        {
          "name": "F#3",
          "midi": 54,
          "time": 190.0399999999928,
          "velocity": 0.1968503937007874,
          "duration": 0.07499999999998863
        },
        {
          "name": "F#3",
          "midi": 54,
          "time": 190.18499999999278,
          "velocity": 0.2992125984251969,
          "duration": 0.07499999999998863
        },
        {
          "name": "G1",
          "midi": 31,
          "time": 190.19999999999277,
          "velocity": 0.7874015748031497,
          "duration": 0.07499999999998863
        },
        {
          "name": "A1",
          "midi": 33,
          "time": 190.19999999999277,
          "velocity": 1,
          "duration": 0.07499999999998863
        },
        {
          "name": "G#2",
          "midi": 44,
          "time": 190.19999999999277,
          "velocity": 0.7244094488188977,
          "duration": 0.07499999999998863
        },
        {
          "name": "F#3",
          "midi": 54,
          "time": 190.33999999999276,
          "velocity": 0.1732283464566929,
          "duration": 0.07499999999998863
        },
        {
          "name": "F#3",
          "midi": 54,
          "time": 190.48999999999273,
          "velocity": 0.14173228346456693,
          "duration": 0.07499999999998863
        },
        {
          "name": "G#2",
          "midi": 44,
          "time": 190.49999999999272,
          "velocity": 0.4409448818897638,
          "duration": 0.07499999999998863
        },
        {
          "name": "F#3",
          "midi": 54,
          "time": 190.6399999999927,
          "velocity": 0.1889763779527559,
          "duration": 0.07499999999998863
        },
        {
          "name": "G#2",
          "midi": 44,
          "time": 190.6499999999927,
          "velocity": 0.2440944881889764,
          "duration": 0.07499999999998863
        },
        {
          "name": "F#3",
          "midi": 54,
          "time": 190.7899999999927,
          "velocity": 0.2992125984251969,
          "duration": 0.07499999999998863
        },
        {
          "name": "A1",
          "midi": 33,
          "time": 190.79999999999268,
          "velocity": 0.9921259842519685,
          "duration": 0.07499999999998863
        },
        {
          "name": "G#2",
          "midi": 44,
          "time": 190.79999999999268,
          "velocity": 0.7244094488188977,
          "duration": 0.07499999999998863
        },
        {
          "name": "F#3",
          "midi": 54,
          "time": 190.93999999999266,
          "velocity": 0.1889763779527559,
          "duration": 0.07499999999998863
        },
        {
          "name": "F#3",
          "midi": 54,
          "time": 191.08999999999264,
          "velocity": 0.1732283464566929,
          "duration": 0.07499999999998863
        },
        {
          "name": "G#2",
          "midi": 44,
          "time": 191.09999999999263,
          "velocity": 0.7244094488188977,
          "duration": 0.07499999999998863
        },
        {
          "name": "F#3",
          "midi": 54,
          "time": 191.23999999999262,
          "velocity": 0.2047244094488189,
          "duration": 0.07499999999998863
        },
        {
          "name": "F#3",
          "midi": 54,
          "time": 191.3899999999926,
          "velocity": 0.2992125984251969,
          "duration": 0.07499999999998863
        },
        {
          "name": "A1",
          "midi": 33,
          "time": 191.3999999999926,
          "velocity": 1,
          "duration": 0.07499999999998863
        },
        {
          "name": "G1",
          "midi": 31,
          "time": 191.3999999999926,
          "velocity": 0.7874015748031497,
          "duration": 0.07499999999998863
        },
        {
          "name": "F#3",
          "midi": 54,
          "time": 191.53999999999257,
          "velocity": 0.2047244094488189,
          "duration": 0.07499999999998863
        },
        {
          "name": "F#3",
          "midi": 54,
          "time": 191.68999999999255,
          "velocity": 0.1889763779527559,
          "duration": 0.07499999999998863
        },
        {
          "name": "G#2",
          "midi": 44,
          "time": 191.69999999999254,
          "velocity": 0.4409448818897638,
          "duration": 0.07499999999998863
        },
        {
          "name": "F#3",
          "midi": 54,
          "time": 191.83999999999253,
          "velocity": 0.25196850393700787,
          "duration": 0.07499999999998863
        },
        {
          "name": "G#2",
          "midi": 44,
          "time": 191.84999999999252,
          "velocity": 0.2440944881889764,
          "duration": 0.07499999999998863
        },
        {
          "name": "A1",
          "midi": 33,
          "time": 191.9999999999925,
          "velocity": 0.9921259842519685,
          "duration": 0.07499999999998863
        },
        {
          "name": "G#2",
          "midi": 44,
          "time": 191.9999999999925,
          "velocity": 0.7244094488188977,
          "duration": 0.07499999999998863
        },
        {
          "name": "F#3",
          "midi": 54,
          "time": 191.9999999999925,
          "velocity": 0.2992125984251969,
          "duration": 0.07499999999998863
        },
        {
          "name": "F#3",
          "midi": 54,
          "time": 192.13999999999248,
          "velocity": 0.18110236220472442,
          "duration": 0.07499999999998863
        },
        {
          "name": "G#2",
          "midi": 44,
          "time": 192.14999999999247,
          "velocity": 0.2677165354330709,
          "duration": 0.07499999999998863
        },
        {
          "name": "F#3",
          "midi": 54,
          "time": 192.28999999999246,
          "velocity": 0.14960629921259844,
          "duration": 0.07499999999998863
        },
        {
          "name": "G#2",
          "midi": 44,
          "time": 192.29999999999245,
          "velocity": 0.4409448818897638,
          "duration": 0.07499999999998863
        },
        {
          "name": "F#3",
          "midi": 54,
          "time": 192.43999999999244,
          "velocity": 0.1968503937007874,
          "duration": 0.07499999999998863
        },
        {
          "name": "G#2",
          "midi": 44,
          "time": 192.44999999999243,
          "velocity": 0.2440944881889764,
          "duration": 0.07499999999998863
        },
        {
          "name": "F#3",
          "midi": 54,
          "time": 192.58499999999242,
          "velocity": 0.2992125984251969,
          "duration": 0.07499999999998863
        },
        {
          "name": "G1",
          "midi": 31,
          "time": 192.5999999999924,
          "velocity": 0.7874015748031497,
          "duration": 0.07499999999998863
        },
        {
          "name": "A1",
          "midi": 33,
          "time": 192.5999999999924,
          "velocity": 1,
          "duration": 0.07499999999998863
        },
        {
          "name": "G#2",
          "midi": 44,
          "time": 192.5999999999924,
          "velocity": 0.7244094488188977,
          "duration": 0.07499999999998863
        },
        {
          "name": "F#3",
          "midi": 54,
          "time": 192.7399999999924,
          "velocity": 0.1732283464566929,
          "duration": 0.07499999999998863
        },
        {
          "name": "F#3",
          "midi": 54,
          "time": 192.88999999999237,
          "velocity": 0.14173228346456693,
          "duration": 0.07499999999998863
        },
        {
          "name": "G#2",
          "midi": 44,
          "time": 192.89999999999236,
          "velocity": 0.4409448818897638,
          "duration": 0.07499999999998863
        },
        {
          "name": "F#3",
          "midi": 54,
          "time": 193.03999999999235,
          "velocity": 0.1889763779527559,
          "duration": 0.07499999999998863
        },
        {
          "name": "G#2",
          "midi": 44,
          "time": 193.04999999999234,
          "velocity": 0.2440944881889764,
          "duration": 0.07499999999998863
        },
        {
          "name": "F#3",
          "midi": 54,
          "time": 193.18999999999232,
          "velocity": 0.2992125984251969,
          "duration": 0.07499999999998863
        },
        {
          "name": "A1",
          "midi": 33,
          "time": 193.19999999999231,
          "velocity": 0.9921259842519685,
          "duration": 0.07499999999998863
        },
        {
          "name": "G#2",
          "midi": 44,
          "time": 193.19999999999231,
          "velocity": 0.7244094488188977,
          "duration": 0.07499999999998863
        },
        {
          "name": "F#3",
          "midi": 54,
          "time": 193.3399999999923,
          "velocity": 0.1889763779527559,
          "duration": 0.07499999999998863
        },
        {
          "name": "F#3",
          "midi": 54,
          "time": 193.48999999999228,
          "velocity": 0.1732283464566929,
          "duration": 0.07499999999998863
        },
        {
          "name": "G#2",
          "midi": 44,
          "time": 193.49999999999227,
          "velocity": 0.7244094488188977,
          "duration": 0.07499999999998863
        },
        {
          "name": "F#3",
          "midi": 54,
          "time": 193.63999999999226,
          "velocity": 0.2047244094488189,
          "duration": 0.07499999999998863
        },
        {
          "name": "F#3",
          "midi": 54,
          "time": 193.78999999999223,
          "velocity": 0.2992125984251969,
          "duration": 0.07499999999998863
        },
        {
          "name": "G1",
          "midi": 31,
          "time": 193.79999999999222,
          "velocity": 0.7874015748031497,
          "duration": 0.07499999999998863
        },
        {
          "name": "A1",
          "midi": 33,
          "time": 193.79999999999222,
          "velocity": 1,
          "duration": 0.07499999999998863
        },
        {
          "name": "F#3",
          "midi": 54,
          "time": 193.9399999999922,
          "velocity": 0.2047244094488189,
          "duration": 0.07499999999998863
        },
        {
          "name": "F#3",
          "midi": 54,
          "time": 194.0899999999922,
          "velocity": 0.1889763779527559,
          "duration": 0.07499999999998863
        },
        {
          "name": "G#2",
          "midi": 44,
          "time": 194.09999999999218,
          "velocity": 0.4409448818897638,
          "duration": 0.07499999999998863
        },
        {
          "name": "F#3",
          "midi": 54,
          "time": 194.23999999999216,
          "velocity": 0.25196850393700787,
          "duration": 0.07499999999998863
        },
        {
          "name": "G#2",
          "midi": 44,
          "time": 194.24999999999216,
          "velocity": 0.2440944881889764,
          "duration": 0.07499999999998863
        },
        {
          "name": "G#2",
          "midi": 44,
          "time": 194.39999999999213,
          "velocity": 0.7244094488188977,
          "duration": 0.07499999999998863
        },
        {
          "name": "A1",
          "midi": 33,
          "time": 194.39999999999213,
          "velocity": 0.9921259842519685,
          "duration": 0.07499999999998863
        },
        {
          "name": "F#3",
          "midi": 54,
          "time": 194.39999999999213,
          "velocity": 0.2992125984251969,
          "duration": 0.07499999999998863
        },
        {
          "name": "F#3",
          "midi": 54,
          "time": 194.53999999999212,
          "velocity": 0.18110236220472442,
          "duration": 0.07499999999998863
        },
        {
          "name": "F#3",
          "midi": 54,
          "time": 194.6899999999921,
          "velocity": 0.14960629921259844,
          "duration": 0.07499999999998863
        },
        {
          "name": "G#2",
          "midi": 44,
          "time": 194.6999999999921,
          "velocity": 0.4409448818897638,
          "duration": 0.07499999999998863
        },
        {
          "name": "F#3",
          "midi": 54,
          "time": 194.83999999999207,
          "velocity": 0.1968503937007874,
          "duration": 0.07499999999998863
        },
        {
          "name": "F#3",
          "midi": 54,
          "time": 194.98499999999206,
          "velocity": 0.2992125984251969,
          "duration": 0.07499999999998863
        },
        {
          "name": "G1",
          "midi": 31,
          "time": 194.99999999999204,
          "velocity": 0.7874015748031497,
          "duration": 0.07499999999998863
        },
        {
          "name": "A1",
          "midi": 33,
          "time": 194.99999999999204,
          "velocity": 1,
          "duration": 0.07499999999998863
        },
        {
          "name": "G#2",
          "midi": 44,
          "time": 194.99999999999204,
          "velocity": 0.7244094488188977,
          "duration": 0.07499999999998863
        },
        {
          "name": "F#3",
          "midi": 54,
          "time": 195.13999999999203,
          "velocity": 0.1732283464566929,
          "duration": 0.07499999999998863
        },
        {
          "name": "F#3",
          "midi": 54,
          "time": 195.289999999992,
          "velocity": 0.14173228346456693,
          "duration": 0.07499999999998863
        },
        {
          "name": "G#2",
          "midi": 44,
          "time": 195.299999999992,
          "velocity": 0.4409448818897638,
          "duration": 0.07499999999998863
        },
        {
          "name": "F#3",
          "midi": 54,
          "time": 195.43999999999198,
          "velocity": 0.1889763779527559,
          "duration": 0.07499999999998863
        },
        {
          "name": "G#2",
          "midi": 44,
          "time": 195.44999999999197,
          "velocity": 0.2440944881889764,
          "duration": 0.07499999999998863
        },
        {
          "name": "F#3",
          "midi": 54,
          "time": 195.58999999999196,
          "velocity": 0.2992125984251969,
          "duration": 0.07499999999998863
        },
        {
          "name": "A1",
          "midi": 33,
          "time": 195.59999999999195,
          "velocity": 0.9921259842519685,
          "duration": 0.07499999999998863
        },
        {
          "name": "G#2",
          "midi": 44,
          "time": 195.59999999999195,
          "velocity": 0.7244094488188977,
          "duration": 0.07499999999998863
        },
        {
          "name": "F#3",
          "midi": 54,
          "time": 195.73999999999194,
          "velocity": 0.1889763779527559,
          "duration": 0.07499999999998863
        },
        {
          "name": "F#3",
          "midi": 54,
          "time": 195.88999999999191,
          "velocity": 0.1732283464566929,
          "duration": 0.07499999999998863
        },
        {
          "name": "G#2",
          "midi": 44,
          "time": 195.8999999999919,
          "velocity": 0.7244094488188977,
          "duration": 0.07499999999998863
        },
        {
          "name": "F#3",
          "midi": 54,
          "time": 196.0399999999919,
          "velocity": 0.2047244094488189,
          "duration": 0.07499999999998863
        },
        {
          "name": "F#3",
          "midi": 54,
          "time": 196.18999999999187,
          "velocity": 0.2992125984251969,
          "duration": 0.07499999999998863
        },
        {
          "name": "A1",
          "midi": 33,
          "time": 196.19999999999186,
          "velocity": 1,
          "duration": 0.07499999999998863
        },
        {
          "name": "G1",
          "midi": 31,
          "time": 196.19999999999186,
          "velocity": 0.7874015748031497,
          "duration": 0.07499999999998863
        },
        {
          "name": "F#3",
          "midi": 54,
          "time": 196.33999999999185,
          "velocity": 0.2047244094488189,
          "duration": 0.07499999999998863
        },
        {
          "name": "F#3",
          "midi": 54,
          "time": 196.48999999999182,
          "velocity": 0.1889763779527559,
          "duration": 0.07499999999998863
        },
        {
          "name": "G#2",
          "midi": 44,
          "time": 196.49999999999181,
          "velocity": 0.4409448818897638,
          "duration": 0.07499999999998863
        },
        {
          "name": "F#3",
          "midi": 54,
          "time": 196.6399999999918,
          "velocity": 0.25196850393700787,
          "duration": 0.07499999999998863
        },
        {
          "name": "G#2",
          "midi": 44,
          "time": 196.6499999999918,
          "velocity": 0.2440944881889764,
          "duration": 0.07499999999998863
        },
        {
          "name": "A1",
          "midi": 33,
          "time": 196.79999999999177,
          "velocity": 0.9921259842519685,
          "duration": 0.07499999999998863
        },
        {
          "name": "G#2",
          "midi": 44,
          "time": 196.79999999999177,
          "velocity": 0.7244094488188977,
          "duration": 0.07499999999998863
        },
        {
          "name": "F#3",
          "midi": 54,
          "time": 196.79999999999177,
          "velocity": 0.2992125984251969,
          "duration": 0.07499999999998863
        },
        {
          "name": "F#3",
          "midi": 54,
          "time": 196.93999999999176,
          "velocity": 0.18110236220472442,
          "duration": 0.07499999999998863
        },
        {
          "name": "G#2",
          "midi": 44,
          "time": 196.94999999999175,
          "velocity": 0.2677165354330709,
          "duration": 0.07499999999998863
        },
        {
          "name": "F#3",
          "midi": 54,
          "time": 197.08999999999173,
          "velocity": 0.14960629921259844,
          "duration": 0.07499999999998863
        },
        {
          "name": "G#2",
          "midi": 44,
          "time": 197.09999999999172,
          "velocity": 0.4409448818897638,
          "duration": 0.07499999999998863
        },
        {
          "name": "F#3",
          "midi": 54,
          "time": 197.2399999999917,
          "velocity": 0.1968503937007874,
          "duration": 0.07499999999998863
        },
        {
          "name": "G#2",
          "midi": 44,
          "time": 197.2499999999917,
          "velocity": 0.2440944881889764,
          "duration": 0.07499999999998863
        },
        {
          "name": "F#3",
          "midi": 54,
          "time": 197.3849999999917,
          "velocity": 0.2992125984251969,
          "duration": 0.07499999999998863
        },
        {
          "name": "G1",
          "midi": 31,
          "time": 197.39999999999168,
          "velocity": 0.7874015748031497,
          "duration": 0.07499999999998863
        },
        {
          "name": "A1",
          "midi": 33,
          "time": 197.39999999999168,
          "velocity": 1,
          "duration": 0.07499999999998863
        },
        {
          "name": "G#2",
          "midi": 44,
          "time": 197.39999999999168,
          "velocity": 0.7244094488188977,
          "duration": 0.07499999999998863
        },
        {
          "name": "F#3",
          "midi": 54,
          "time": 197.53999999999166,
          "velocity": 0.1732283464566929,
          "duration": 0.07499999999998863
        },
        {
          "name": "F#3",
          "midi": 54,
          "time": 197.68999999999164,
          "velocity": 0.14173228346456693,
          "duration": 0.07499999999998863
        },
        {
          "name": "G#2",
          "midi": 44,
          "time": 197.69999999999163,
          "velocity": 0.4409448818897638,
          "duration": 0.07499999999998863
        },
        {
          "name": "F#3",
          "midi": 54,
          "time": 197.83999999999162,
          "velocity": 0.1889763779527559,
          "duration": 0.07499999999998863
        },
        {
          "name": "G#2",
          "midi": 44,
          "time": 197.8499999999916,
          "velocity": 0.2440944881889764,
          "duration": 0.07499999999998863
        },
        {
          "name": "F#3",
          "midi": 54,
          "time": 197.9899999999916,
          "velocity": 0.2992125984251969,
          "duration": 0.07499999999998863
        },
        {
          "name": "G#2",
          "midi": 44,
          "time": 197.9999999999916,
          "velocity": 0.7244094488188977,
          "duration": 0.07499999999998863
        },
        {
          "name": "A1",
          "midi": 33,
          "time": 197.9999999999916,
          "velocity": 0.9921259842519685,
          "duration": 0.07499999999998863
        },
        {
          "name": "F#3",
          "midi": 54,
          "time": 198.13999999999157,
          "velocity": 0.1889763779527559,
          "duration": 0.07499999999998863
        },
        {
          "name": "F#3",
          "midi": 54,
          "time": 198.28999999999155,
          "velocity": 0.1732283464566929,
          "duration": 0.07499999999998863
        },
        {
          "name": "G#2",
          "midi": 44,
          "time": 198.29999999999154,
          "velocity": 0.7244094488188977,
          "duration": 0.07499999999998863
        },
        {
          "name": "F#3",
          "midi": 54,
          "time": 198.43999999999153,
          "velocity": 0.2047244094488189,
          "duration": 0.07499999999998863
        },
        {
          "name": "F#3",
          "midi": 54,
          "time": 198.5899999999915,
          "velocity": 0.2992125984251969,
          "duration": 0.07499999999998863
        },
        {
          "name": "G1",
          "midi": 31,
          "time": 198.5999999999915,
          "velocity": 0.7874015748031497,
          "duration": 0.07499999999998863
        },
        {
          "name": "A1",
          "midi": 33,
          "time": 198.5999999999915,
          "velocity": 1,
          "duration": 0.07499999999998863
        },
        {
          "name": "F#3",
          "midi": 54,
          "time": 198.73999999999148,
          "velocity": 0.2047244094488189,
          "duration": 0.07499999999998863
        },
        {
          "name": "F#3",
          "midi": 54,
          "time": 198.88999999999146,
          "velocity": 0.1889763779527559,
          "duration": 0.07499999999998863
        },
        {
          "name": "G#2",
          "midi": 44,
          "time": 198.89999999999145,
          "velocity": 0.4409448818897638,
          "duration": 0.07499999999998863
        },
        {
          "name": "F#3",
          "midi": 54,
          "time": 199.03999999999144,
          "velocity": 0.25196850393700787,
          "duration": 0.07499999999998863
        },
        {
          "name": "G#2",
          "midi": 44,
          "time": 199.04999999999143,
          "velocity": 0.2440944881889764,
          "duration": 0.07499999999998863
        },
        {
          "name": "A1",
          "midi": 33,
          "time": 199.1999999999914,
          "velocity": 0.9921259842519685,
          "duration": 0.07499999999998863
        },
        {
          "name": "F#3",
          "midi": 54,
          "time": 199.1999999999914,
          "velocity": 0.2992125984251969,
          "duration": 0.07499999999998863
        },
        {
          "name": "G#2",
          "midi": 44,
          "time": 199.1999999999914,
          "velocity": 0.7244094488188977,
          "duration": 0.07499999999998863
        },
        {
          "name": "F#3",
          "midi": 54,
          "time": 199.3399999999914,
          "velocity": 0.18110236220472442,
          "duration": 0.07499999999998863
        },
        {
          "name": "F#3",
          "midi": 54,
          "time": 199.48999999999137,
          "velocity": 0.14960629921259844,
          "duration": 0.07499999999998863
        },
        {
          "name": "G#2",
          "midi": 44,
          "time": 199.49999999999136,
          "velocity": 0.4409448818897638,
          "duration": 0.07499999999998863
        },
        {
          "name": "F#3",
          "midi": 54,
          "time": 199.63999999999135,
          "velocity": 0.1968503937007874,
          "duration": 0.07499999999998863
        },
        {
          "name": "F#3",
          "midi": 54,
          "time": 199.78499999999133,
          "velocity": 0.2992125984251969,
          "duration": 0.07499999999998863
        },
        {
          "name": "G1",
          "midi": 31,
          "time": 199.79999999999131,
          "velocity": 0.7874015748031497,
          "duration": 0.07499999999998863
        },
        {
          "name": "A1",
          "midi": 33,
          "time": 199.79999999999131,
          "velocity": 1,
          "duration": 0.07499999999998863
        },
        {
          "name": "G#2",
          "midi": 44,
          "time": 199.79999999999131,
          "velocity": 0.7244094488188977,
          "duration": 0.07499999999998863
        },
        {
          "name": "F#3",
          "midi": 54,
          "time": 199.9399999999913,
          "velocity": 0.1732283464566929,
          "duration": 0.07499999999998863
        },
        {
          "name": "F#3",
          "midi": 54,
          "time": 200.08999999999128,
          "velocity": 0.14173228346456693,
          "duration": 0.07499999999998863
        },
        {
          "name": "G#2",
          "midi": 44,
          "time": 200.09999999999127,
          "velocity": 0.4409448818897638,
          "duration": 0.07499999999998863
        },
        {
          "name": "F#3",
          "midi": 54,
          "time": 200.23999999999126,
          "velocity": 0.1889763779527559,
          "duration": 0.07499999999998863
        },
        {
          "name": "G#2",
          "midi": 44,
          "time": 200.24999999999125,
          "velocity": 0.2440944881889764,
          "duration": 0.07499999999998863
        },
        {
          "name": "F#3",
          "midi": 54,
          "time": 200.38999999999123,
          "velocity": 0.2992125984251969,
          "duration": 0.07499999999998863
        },
        {
          "name": "A1",
          "midi": 33,
          "time": 200.39999999999122,
          "velocity": 0.9921259842519685,
          "duration": 0.07499999999998863
        },
        {
          "name": "G#2",
          "midi": 44,
          "time": 200.39999999999122,
          "velocity": 0.7244094488188977,
          "duration": 0.07499999999998863
        },
        {
          "name": "F#3",
          "midi": 54,
          "time": 200.5399999999912,
          "velocity": 0.1889763779527559,
          "duration": 0.07499999999998863
        },
        {
          "name": "F#3",
          "midi": 54,
          "time": 200.6899999999912,
          "velocity": 0.1732283464566929,
          "duration": 0.07499999999998863
        },
        {
          "name": "G#2",
          "midi": 44,
          "time": 200.69999999999118,
          "velocity": 0.7244094488188977,
          "duration": 0.07499999999998863
        },
        {
          "name": "F#3",
          "midi": 54,
          "time": 200.83999999999116,
          "velocity": 0.2047244094488189,
          "duration": 0.07499999999998863
        },
        {
          "name": "F#3",
          "midi": 54,
          "time": 200.98999999999114,
          "velocity": 0.2992125984251969,
          "duration": 0.07499999999998863
        },
        {
          "name": "A1",
          "midi": 33,
          "time": 200.99999999999113,
          "velocity": 1,
          "duration": 0.07499999999998863
        },
        {
          "name": "G1",
          "midi": 31,
          "time": 200.99999999999113,
          "velocity": 0.7874015748031497,
          "duration": 0.07499999999998863
        },
        {
          "name": "F#3",
          "midi": 54,
          "time": 201.13999999999112,
          "velocity": 0.2047244094488189,
          "duration": 0.07499999999998863
        },
        {
          "name": "F#3",
          "midi": 54,
          "time": 201.2899999999911,
          "velocity": 0.1889763779527559,
          "duration": 0.07499999999998863
        },
        {
          "name": "G#2",
          "midi": 44,
          "time": 201.2999999999911,
          "velocity": 0.4409448818897638,
          "duration": 0.07499999999998863
        },
        {
          "name": "F#3",
          "midi": 54,
          "time": 201.43999999999107,
          "velocity": 0.25196850393700787,
          "duration": 0.07499999999998863
        },
        {
          "name": "G#2",
          "midi": 44,
          "time": 201.44999999999106,
          "velocity": 0.2440944881889764,
          "duration": 0.07499999999998863
        },
        {
          "name": "A1",
          "midi": 33,
          "time": 201.59999999999104,
          "velocity": 0.9921259842519685,
          "duration": 0.07499999999998863
        },
        {
          "name": "G#2",
          "midi": 44,
          "time": 201.59999999999104,
          "velocity": 0.7244094488188977,
          "duration": 0.07499999999998863
        },
        {
          "name": "F#3",
          "midi": 54,
          "time": 201.59999999999104,
          "velocity": 0.2992125984251969,
          "duration": 0.07499999999998863
        },
        {
          "name": "F#3",
          "midi": 54,
          "time": 201.73999999999103,
          "velocity": 0.18110236220472442,
          "duration": 0.07499999999998863
        },
        {
          "name": "G#2",
          "midi": 44,
          "time": 201.74999999999102,
          "velocity": 0.2677165354330709,
          "duration": 0.07499999999998863
        },
        {
          "name": "F#3",
          "midi": 54,
          "time": 201.889999999991,
          "velocity": 0.14960629921259844,
          "duration": 0.07499999999998863
        },
        {
          "name": "G#2",
          "midi": 44,
          "time": 201.899999999991,
          "velocity": 0.4409448818897638,
          "duration": 0.07499999999998863
        },
        {
          "name": "F#3",
          "midi": 54,
          "time": 202.03999999999098,
          "velocity": 0.1968503937007874,
          "duration": 0.07499999999998863
        },
        {
          "name": "G#2",
          "midi": 44,
          "time": 202.04999999999097,
          "velocity": 0.2440944881889764,
          "duration": 0.07499999999998863
        },
        {
          "name": "F#3",
          "midi": 54,
          "time": 202.18499999999096,
          "velocity": 0.2992125984251969,
          "duration": 0.07499999999998863
        },
        {
          "name": "G1",
          "midi": 31,
          "time": 202.19999999999095,
          "velocity": 0.7874015748031497,
          "duration": 0.07499999999998863
        },
        {
          "name": "A1",
          "midi": 33,
          "time": 202.19999999999095,
          "velocity": 1,
          "duration": 0.07499999999998863
        },
        {
          "name": "G#2",
          "midi": 44,
          "time": 202.19999999999095,
          "velocity": 0.7244094488188977,
          "duration": 0.07499999999998863
        },
        {
          "name": "F#3",
          "midi": 54,
          "time": 202.33999999999094,
          "velocity": 0.1732283464566929,
          "duration": 0.07499999999998863
        },
        {
          "name": "F#3",
          "midi": 54,
          "time": 202.4899999999909,
          "velocity": 0.14173228346456693,
          "duration": 0.07499999999998863
        },
        {
          "name": "G#2",
          "midi": 44,
          "time": 202.4999999999909,
          "velocity": 0.4409448818897638,
          "duration": 0.07499999999998863
        },
        {
          "name": "F#3",
          "midi": 54,
          "time": 202.6399999999909,
          "velocity": 0.1889763779527559,
          "duration": 0.07499999999998863
        },
        {
          "name": "G#2",
          "midi": 44,
          "time": 202.64999999999088,
          "velocity": 0.2440944881889764,
          "duration": 0.07499999999998863
        },
        {
          "name": "F#3",
          "midi": 54,
          "time": 202.78999999999087,
          "velocity": 0.2992125984251969,
          "duration": 0.07499999999998863
        },
        {
          "name": "A1",
          "midi": 33,
          "time": 202.79999999999086,
          "velocity": 0.9921259842519685,
          "duration": 0.07499999999998863
        },
        {
          "name": "G#2",
          "midi": 44,
          "time": 202.79999999999086,
          "velocity": 0.7244094488188977,
          "duration": 0.07499999999998863
        },
        {
          "name": "F#3",
          "midi": 54,
          "time": 202.93999999999085,
          "velocity": 0.1889763779527559,
          "duration": 0.07499999999998863
        },
        {
          "name": "F#3",
          "midi": 54,
          "time": 203.08999999999082,
          "velocity": 0.1732283464566929,
          "duration": 0.07499999999998863
        },
        {
          "name": "G#2",
          "midi": 44,
          "time": 203.0999999999908,
          "velocity": 0.7244094488188977,
          "duration": 0.07499999999998863
        },
        {
          "name": "F#3",
          "midi": 54,
          "time": 203.2399999999908,
          "velocity": 0.2047244094488189,
          "duration": 0.07499999999998863
        },
        {
          "name": "F#3",
          "midi": 54,
          "time": 203.38999999999078,
          "velocity": 0.2992125984251969,
          "duration": 0.07499999999998863
        },
        {
          "name": "G1",
          "midi": 31,
          "time": 203.39999999999077,
          "velocity": 0.7874015748031497,
          "duration": 0.07499999999998863
        },
        {
          "name": "A1",
          "midi": 33,
          "time": 203.39999999999077,
          "velocity": 1,
          "duration": 0.07499999999998863
        },
        {
          "name": "F#3",
          "midi": 54,
          "time": 203.53999999999075,
          "velocity": 0.2047244094488189,
          "duration": 0.07499999999998863
        },
        {
          "name": "F#3",
          "midi": 54,
          "time": 203.68999999999073,
          "velocity": 0.1889763779527559,
          "duration": 0.07499999999998863
        },
        {
          "name": "G#2",
          "midi": 44,
          "time": 203.69999999999072,
          "velocity": 0.4409448818897638,
          "duration": 0.07499999999998863
        },
        {
          "name": "F#3",
          "midi": 54,
          "time": 203.8399999999907,
          "velocity": 0.25196850393700787,
          "duration": 0.07499999999998863
        },
        {
          "name": "G#2",
          "midi": 44,
          "time": 203.8499999999907,
          "velocity": 0.2440944881889764,
          "duration": 0.07499999999998863
        },
        {
          "name": "G#2",
          "midi": 44,
          "time": 203.99999999999068,
          "velocity": 0.7244094488188977,
          "duration": 0.07499999999998863
        },
        {
          "name": "A1",
          "midi": 33,
          "time": 203.99999999999068,
          "velocity": 0.9921259842519685,
          "duration": 0.07499999999998863
        },
        {
          "name": "F#3",
          "midi": 54,
          "time": 203.99999999999068,
          "velocity": 0.2992125984251969,
          "duration": 0.07499999999998863
        },
        {
          "name": "F#3",
          "midi": 54,
          "time": 204.13999999999066,
          "velocity": 0.18110236220472442,
          "duration": 0.07499999999998863
        },
        {
          "name": "F#3",
          "midi": 54,
          "time": 204.28999999999064,
          "velocity": 0.14960629921259844,
          "duration": 0.07499999999998863
        },
        {
          "name": "G#2",
          "midi": 44,
          "time": 204.29999999999063,
          "velocity": 0.4409448818897638,
          "duration": 0.07499999999998863
        },
        {
          "name": "F#3",
          "midi": 54,
          "time": 204.43999999999062,
          "velocity": 0.1968503937007874,
          "duration": 0.07499999999998863
        },
        {
          "name": "F#3",
          "midi": 54,
          "time": 204.5849999999906,
          "velocity": 0.2992125984251969,
          "duration": 0.07499999999998863
        },
        {
          "name": "G1",
          "midi": 31,
          "time": 204.5999999999906,
          "velocity": 0.7874015748031497,
          "duration": 0.07499999999998863
        },
        {
          "name": "A1",
          "midi": 33,
          "time": 204.5999999999906,
          "velocity": 1,
          "duration": 0.07499999999998863
        },
        {
          "name": "G#2",
          "midi": 44,
          "time": 204.5999999999906,
          "velocity": 0.7244094488188977,
          "duration": 0.07499999999998863
        },
        {
          "name": "F#3",
          "midi": 54,
          "time": 204.73999999999057,
          "velocity": 0.1732283464566929,
          "duration": 0.07499999999998863
        },
        {
          "name": "F#3",
          "midi": 54,
          "time": 204.88999999999055,
          "velocity": 0.14173228346456693,
          "duration": 0.07499999999998863
        },
        {
          "name": "G#2",
          "midi": 44,
          "time": 204.89999999999054,
          "velocity": 0.4409448818897638,
          "duration": 0.07499999999998863
        },
        {
          "name": "F#3",
          "midi": 54,
          "time": 205.03999999999053,
          "velocity": 0.1889763779527559,
          "duration": 0.07499999999998863
        },
        {
          "name": "G#2",
          "midi": 44,
          "time": 205.04999999999052,
          "velocity": 0.2440944881889764,
          "duration": 0.07499999999998863
        },
        {
          "name": "F#3",
          "midi": 54,
          "time": 205.1899999999905,
          "velocity": 0.2992125984251969,
          "duration": 0.07499999999998863
        },
        {
          "name": "A1",
          "midi": 33,
          "time": 205.1999999999905,
          "velocity": 0.9921259842519685,
          "duration": 0.07499999999998863
        },
        {
          "name": "G#2",
          "midi": 44,
          "time": 205.1999999999905,
          "velocity": 0.7244094488188977,
          "duration": 0.07499999999998863
        },
        {
          "name": "F#3",
          "midi": 54,
          "time": 205.33999999999048,
          "velocity": 0.1889763779527559,
          "duration": 0.07499999999998863
        },
        {
          "name": "F#3",
          "midi": 54,
          "time": 205.48999999999046,
          "velocity": 0.1732283464566929,
          "duration": 0.07499999999998863
        },
        {
          "name": "G#2",
          "midi": 44,
          "time": 205.49999999999045,
          "velocity": 0.7244094488188977,
          "duration": 0.07499999999998863
        },
        {
          "name": "F#3",
          "midi": 54,
          "time": 205.63999999999044,
          "velocity": 0.2047244094488189,
          "duration": 0.07499999999998863
        },
        {
          "name": "F#3",
          "midi": 54,
          "time": 205.7899999999904,
          "velocity": 0.2992125984251969,
          "duration": 0.07499999999998863
        },
        {
          "name": "A1",
          "midi": 33,
          "time": 205.7999999999904,
          "velocity": 1,
          "duration": 0.07499999999998863
        },
        {
          "name": "G1",
          "midi": 31,
          "time": 205.7999999999904,
          "velocity": 0.7874015748031497,
          "duration": 0.07499999999998863
        },
        {
          "name": "F#3",
          "midi": 54,
          "time": 205.9399999999904,
          "velocity": 0.2047244094488189,
          "duration": 0.07499999999998863
        },
        {
          "name": "F#3",
          "midi": 54,
          "time": 206.08999999999037,
          "velocity": 0.1889763779527559,
          "duration": 0.07499999999998863
        },
        {
          "name": "G#2",
          "midi": 44,
          "time": 206.09999999999036,
          "velocity": 0.4409448818897638,
          "duration": 0.07499999999998863
        },
        {
          "name": "F#3",
          "midi": 54,
          "time": 206.23999999999035,
          "velocity": 0.25196850393700787,
          "duration": 0.07499999999998863
        },
        {
          "name": "G#2",
          "midi": 44,
          "time": 206.24999999999034,
          "velocity": 0.2440944881889764,
          "duration": 0.07499999999998863
        },
        {
          "name": "A1",
          "midi": 33,
          "time": 206.3999999999903,
          "velocity": 0.9921259842519685,
          "duration": 0.07499999999998863
        },
        {
          "name": "G#2",
          "midi": 44,
          "time": 206.3999999999903,
          "velocity": 0.7244094488188977,
          "duration": 0.07499999999998863
        },
        {
          "name": "F#3",
          "midi": 54,
          "time": 206.3999999999903,
          "velocity": 0.2992125984251969,
          "duration": 0.07499999999998863
        },
        {
          "name": "F#3",
          "midi": 54,
          "time": 206.5399999999903,
          "velocity": 0.18110236220472442,
          "duration": 0.07499999999998863
        },
        {
          "name": "G#2",
          "midi": 44,
          "time": 206.5499999999903,
          "velocity": 0.2677165354330709,
          "duration": 0.07499999999998863
        },
        {
          "name": "F#3",
          "midi": 54,
          "time": 206.68999999999028,
          "velocity": 0.14960629921259844,
          "duration": 0.07499999999998863
        },
        {
          "name": "G#2",
          "midi": 44,
          "time": 206.69999999999027,
          "velocity": 0.4409448818897638,
          "duration": 0.07499999999998863
        },
        {
          "name": "F#3",
          "midi": 54,
          "time": 206.83999999999025,
          "velocity": 0.1968503937007874,
          "duration": 0.07499999999998863
        },
        {
          "name": "G#2",
          "midi": 44,
          "time": 206.84999999999025,
          "velocity": 0.2440944881889764,
          "duration": 0.07499999999998863
        },
        {
          "name": "F#3",
          "midi": 54,
          "time": 206.98499999999024,
          "velocity": 0.2992125984251969,
          "duration": 0.07499999999998863
        },
        {
          "name": "G1",
          "midi": 31,
          "time": 206.99999999999022,
          "velocity": 0.7874015748031497,
          "duration": 0.07499999999998863
        },
        {
          "name": "A1",
          "midi": 33,
          "time": 206.99999999999022,
          "velocity": 1,
          "duration": 0.07499999999998863
        },
        {
          "name": "G#2",
          "midi": 44,
          "time": 206.99999999999022,
          "velocity": 0.7244094488188977,
          "duration": 0.07499999999998863
        },
        {
          "name": "F#3",
          "midi": 54,
          "time": 207.1399999999902,
          "velocity": 0.1732283464566929,
          "duration": 0.07499999999998863
        },
        {
          "name": "F#3",
          "midi": 54,
          "time": 207.2899999999902,
          "velocity": 0.14173228346456693,
          "duration": 0.07499999999998863
        },
        {
          "name": "G#2",
          "midi": 44,
          "time": 207.29999999999018,
          "velocity": 0.4409448818897638,
          "duration": 0.07499999999998863
        },
        {
          "name": "F#3",
          "midi": 54,
          "time": 207.43999999999016,
          "velocity": 0.1889763779527559,
          "duration": 0.07499999999998863
        },
        {
          "name": "G#2",
          "midi": 44,
          "time": 207.44999999999015,
          "velocity": 0.2440944881889764,
          "duration": 0.07499999999998863
        },
        {
          "name": "F#3",
          "midi": 54,
          "time": 207.58999999999014,
          "velocity": 0.2992125984251969,
          "duration": 0.07499999999998863
        },
        {
          "name": "G#2",
          "midi": 44,
          "time": 207.59999999999013,
          "velocity": 0.7244094488188977,
          "duration": 0.07499999999998863
        },
        {
          "name": "A1",
          "midi": 33,
          "time": 207.59999999999013,
          "velocity": 0.9921259842519685,
          "duration": 0.07499999999998863
        },
        {
          "name": "F#3",
          "midi": 54,
          "time": 207.73999999999012,
          "velocity": 0.1889763779527559,
          "duration": 0.07499999999998863
        },
        {
          "name": "F#3",
          "midi": 54,
          "time": 207.8899999999901,
          "velocity": 0.1732283464566929,
          "duration": 0.07499999999998863
        },
        {
          "name": "G#2",
          "midi": 44,
          "time": 207.8999999999901,
          "velocity": 0.7244094488188977,
          "duration": 0.07499999999998863
        },
        {
          "name": "F#3",
          "midi": 54,
          "time": 208.03999999999007,
          "velocity": 0.2047244094488189,
          "duration": 0.07499999999998863
        },
        {
          "name": "F#3",
          "midi": 54,
          "time": 208.18999999999005,
          "velocity": 0.2992125984251969,
          "duration": 0.07499999999998863
        },
        {
          "name": "G1",
          "midi": 31,
          "time": 208.19999999999004,
          "velocity": 0.7874015748031497,
          "duration": 0.07499999999998863
        },
        {
          "name": "A1",
          "midi": 33,
          "time": 208.19999999999004,
          "velocity": 1,
          "duration": 0.07499999999998863
        },
        {
          "name": "F#3",
          "midi": 54,
          "time": 208.33999999999003,
          "velocity": 0.2047244094488189,
          "duration": 0.07499999999998863
        },
        {
          "name": "F#3",
          "midi": 54,
          "time": 208.48999999999,
          "velocity": 0.1889763779527559,
          "duration": 0.07499999999998863
        },
        {
          "name": "G#2",
          "midi": 44,
          "time": 208.49999999999,
          "velocity": 0.4409448818897638,
          "duration": 0.07499999999998863
        },
        {
          "name": "F#3",
          "midi": 54,
          "time": 208.63999999998998,
          "velocity": 0.25196850393700787,
          "duration": 0.07499999999998863
        },
        {
          "name": "G#2",
          "midi": 44,
          "time": 208.64999999998997,
          "velocity": 0.2440944881889764,
          "duration": 0.07499999999998863
        },
        {
          "name": "A1",
          "midi": 33,
          "time": 208.79999999998995,
          "velocity": 0.9921259842519685,
          "duration": 0.07499999999998863
        },
        {
          "name": "F#3",
          "midi": 54,
          "time": 208.79999999998995,
          "velocity": 0.2992125984251969,
          "duration": 0.07499999999998863
        },
        {
          "name": "G#2",
          "midi": 44,
          "time": 208.79999999998995,
          "velocity": 0.7244094488188977,
          "duration": 0.07499999999998863
        },
        {
          "name": "F#3",
          "midi": 54,
          "time": 208.93999999998994,
          "velocity": 0.18110236220472442,
          "duration": 0.07499999999998863
        },
        {
          "name": "F#3",
          "midi": 54,
          "time": 209.0899999999899,
          "velocity": 0.14960629921259844,
          "duration": 0.07499999999998863
        },
        {
          "name": "G#2",
          "midi": 44,
          "time": 209.0999999999899,
          "velocity": 0.4409448818897638,
          "duration": 0.07499999999998863
        },
        {
          "name": "F#3",
          "midi": 54,
          "time": 209.2399999999899,
          "velocity": 0.1968503937007874,
          "duration": 0.07499999999998863
        },
        {
          "name": "F#3",
          "midi": 54,
          "time": 209.38499999998987,
          "velocity": 0.2992125984251969,
          "duration": 0.07499999999998863
        },
        {
          "name": "G1",
          "midi": 31,
          "time": 209.39999999998986,
          "velocity": 0.7874015748031497,
          "duration": 0.07499999999998863
        },
        {
          "name": "A1",
          "midi": 33,
          "time": 209.39999999998986,
          "velocity": 1,
          "duration": 0.07499999999998863
        },
        {
          "name": "G#2",
          "midi": 44,
          "time": 209.39999999998986,
          "velocity": 0.7244094488188977,
          "duration": 0.07499999999998863
        },
        {
          "name": "F#3",
          "midi": 54,
          "time": 209.53999999998985,
          "velocity": 0.1732283464566929,
          "duration": 0.07499999999998863
        },
        {
          "name": "F#3",
          "midi": 54,
          "time": 209.68999999998982,
          "velocity": 0.14173228346456693,
          "duration": 0.07499999999998863
        },
        {
          "name": "G#2",
          "midi": 44,
          "time": 209.6999999999898,
          "velocity": 0.4409448818897638,
          "duration": 0.07499999999998863
        },
        {
          "name": "F#3",
          "midi": 54,
          "time": 209.8399999999898,
          "velocity": 0.1889763779527559,
          "duration": 0.07499999999998863
        },
        {
          "name": "G#2",
          "midi": 44,
          "time": 209.8499999999898,
          "velocity": 0.2440944881889764,
          "duration": 0.07499999999998863
        },
        {
          "name": "F#3",
          "midi": 54,
          "time": 209.98999999998978,
          "velocity": 0.2992125984251969,
          "duration": 0.07499999999998863
        },
        {
          "name": "A1",
          "midi": 33,
          "time": 209.99999999998977,
          "velocity": 0.9921259842519685,
          "duration": 0.07499999999998863
        },
        {
          "name": "G#2",
          "midi": 44,
          "time": 209.99999999998977,
          "velocity": 0.7244094488188977,
          "duration": 0.07499999999998863
        },
        {
          "name": "F#3",
          "midi": 54,
          "time": 210.13999999998975,
          "velocity": 0.1889763779527559,
          "duration": 0.07499999999998863
        },
        {
          "name": "F#3",
          "midi": 54,
          "time": 210.28999999998973,
          "velocity": 0.1732283464566929,
          "duration": 0.07499999999998863
        },
        {
          "name": "G#2",
          "midi": 44,
          "time": 210.29999999998972,
          "velocity": 0.7244094488188977,
          "duration": 0.07499999999998863
        },
        {
          "name": "F#3",
          "midi": 54,
          "time": 210.4399999999897,
          "velocity": 0.2047244094488189,
          "duration": 0.07499999999998863
        },
        {
          "name": "F#3",
          "midi": 54,
          "time": 210.5899999999897,
          "velocity": 0.2992125984251969,
          "duration": 0.07499999999998863
        },
        {
          "name": "A1",
          "midi": 33,
          "time": 210.59999999998968,
          "velocity": 1,
          "duration": 0.07499999999998863
        },
        {
          "name": "G1",
          "midi": 31,
          "time": 210.59999999998968,
          "velocity": 0.7874015748031497,
          "duration": 0.07499999999998863
        },
        {
          "name": "F#3",
          "midi": 54,
          "time": 210.73999999998966,
          "velocity": 0.2047244094488189,
          "duration": 0.07499999999998863
        },
        {
          "name": "F#3",
          "midi": 54,
          "time": 210.88999999998964,
          "velocity": 0.1889763779527559,
          "duration": 0.07499999999998863
        },
        {
          "name": "G#2",
          "midi": 44,
          "time": 210.89999999998963,
          "velocity": 0.4409448818897638,
          "duration": 0.07499999999998863
        },
        {
          "name": "F#3",
          "midi": 54,
          "time": 211.03999999998962,
          "velocity": 0.25196850393700787,
          "duration": 0.07499999999998863
        },
        {
          "name": "G#2",
          "midi": 44,
          "time": 211.0499999999896,
          "velocity": 0.2440944881889764,
          "duration": 0.07499999999998863
        },
        {
          "name": "A1",
          "midi": 33,
          "time": 211.1999999999896,
          "velocity": 0.9921259842519685,
          "duration": 0.07499999999998863
        },
        {
          "name": "G#2",
          "midi": 44,
          "time": 211.1999999999896,
          "velocity": 0.7244094488188977,
          "duration": 0.07499999999998863
        },
        {
          "name": "F#3",
          "midi": 54,
          "time": 211.1999999999896,
          "velocity": 0.2992125984251969,
          "duration": 0.07499999999998863
        },
        {
          "name": "F#3",
          "midi": 54,
          "time": 211.33999999998957,
          "velocity": 0.18110236220472442,
          "duration": 0.07499999999998863
        },
        {
          "name": "G#2",
          "midi": 44,
          "time": 211.34999999998956,
          "velocity": 0.2677165354330709,
          "duration": 0.07499999999998863
        },
        {
          "name": "F#3",
          "midi": 54,
          "time": 211.48999999998955,
          "velocity": 0.14960629921259844,
          "duration": 0.07499999999998863
        },
        {
          "name": "G#2",
          "midi": 44,
          "time": 211.49999999998954,
          "velocity": 0.4409448818897638,
          "duration": 0.07499999999998863
        },
        {
          "name": "F#3",
          "midi": 54,
          "time": 211.63999999998953,
          "velocity": 0.1968503937007874,
          "duration": 0.07499999999998863
        },
        {
          "name": "G#2",
          "midi": 44,
          "time": 211.64999999998952,
          "velocity": 0.2440944881889764,
          "duration": 0.07499999999998863
        },
        {
          "name": "F#3",
          "midi": 54,
          "time": 211.7849999999895,
          "velocity": 0.2992125984251969,
          "duration": 0.07499999999998863
        },
        {
          "name": "G1",
          "midi": 31,
          "time": 211.7999999999895,
          "velocity": 0.7874015748031497,
          "duration": 0.07499999999998863
        },
        {
          "name": "A1",
          "midi": 33,
          "time": 211.7999999999895,
          "velocity": 1,
          "duration": 0.07499999999998863
        },
        {
          "name": "G#2",
          "midi": 44,
          "time": 211.7999999999895,
          "velocity": 0.7244094488188977,
          "duration": 0.07499999999998863
        },
        {
          "name": "F#3",
          "midi": 54,
          "time": 211.93999999998948,
          "velocity": 0.1732283464566929,
          "duration": 0.07499999999998863
        },
        {
          "name": "F#3",
          "midi": 54,
          "time": 212.08999999998946,
          "velocity": 0.14173228346456693,
          "duration": 0.07499999999998863
        },
        {
          "name": "G#2",
          "midi": 44,
          "time": 212.09999999998945,
          "velocity": 0.4409448818897638,
          "duration": 0.07499999999998863
        },
        {
          "name": "F#3",
          "midi": 54,
          "time": 212.23999999998944,
          "velocity": 0.1889763779527559,
          "duration": 0.07499999999998863
        },
        {
          "name": "G#2",
          "midi": 44,
          "time": 212.24999999998943,
          "velocity": 0.2440944881889764,
          "duration": 0.07499999999998863
        },
        {
          "name": "F#3",
          "midi": 54,
          "time": 212.3899999999894,
          "velocity": 0.2992125984251969,
          "duration": 0.07499999999998863
        },
        {
          "name": "A1",
          "midi": 33,
          "time": 212.3999999999894,
          "velocity": 0.9921259842519685,
          "duration": 0.07499999999998863
        },
        {
          "name": "G#2",
          "midi": 44,
          "time": 212.3999999999894,
          "velocity": 0.7244094488188977,
          "duration": 0.07499999999998863
        },
        {
          "name": "F#3",
          "midi": 54,
          "time": 212.5399999999894,
          "velocity": 0.1889763779527559,
          "duration": 0.07499999999998863
        },
        {
          "name": "F#3",
          "midi": 54,
          "time": 212.68999999998937,
          "velocity": 0.1732283464566929,
          "duration": 0.07499999999998863
        },
        {
          "name": "G#2",
          "midi": 44,
          "time": 212.69999999998936,
          "velocity": 0.7244094488188977,
          "duration": 0.07499999999998863
        },
        {
          "name": "F#3",
          "midi": 54,
          "time": 212.83999999998935,
          "velocity": 0.2047244094488189,
          "duration": 0.07499999999998863
        },
        {
          "name": "F#3",
          "midi": 54,
          "time": 212.98999999998932,
          "velocity": 0.2992125984251969,
          "duration": 0.07499999999998863
        },
        {
          "name": "G1",
          "midi": 31,
          "time": 212.9999999999893,
          "velocity": 0.7874015748031497,
          "duration": 0.07499999999998863
        },
        {
          "name": "A1",
          "midi": 33,
          "time": 212.9999999999893,
          "velocity": 1,
          "duration": 0.07499999999998863
        },
        {
          "name": "F#3",
          "midi": 54,
          "time": 213.1399999999893,
          "velocity": 0.2047244094488189,
          "duration": 0.07499999999998863
        },
        {
          "name": "F#3",
          "midi": 54,
          "time": 213.28999999998928,
          "velocity": 0.1889763779527559,
          "duration": 0.07499999999998863
        },
        {
          "name": "G#2",
          "midi": 44,
          "time": 213.29999999998927,
          "velocity": 0.4409448818897638,
          "duration": 0.07499999999998863
        },
        {
          "name": "F#3",
          "midi": 54,
          "time": 213.43999999998925,
          "velocity": 0.25196850393700787,
          "duration": 0.07499999999998863
        },
        {
          "name": "G#2",
          "midi": 44,
          "time": 213.44999999998925,
          "velocity": 0.2440944881889764,
          "duration": 0.07499999999998863
        },
        {
          "name": "G#2",
          "midi": 44,
          "time": 213.59999999998922,
          "velocity": 0.7244094488188977,
          "duration": 0.07499999999998863
        },
        {
          "name": "A1",
          "midi": 33,
          "time": 213.59999999998922,
          "velocity": 0.9921259842519685,
          "duration": 0.07499999999998863
        },
        {
          "name": "F#3",
          "midi": 54,
          "time": 213.59999999998922,
          "velocity": 0.2992125984251969,
          "duration": 0.07499999999998863
        },
        {
          "name": "F#3",
          "midi": 54,
          "time": 213.7399999999892,
          "velocity": 0.18110236220472442,
          "duration": 0.07499999999998863
        },
        {
          "name": "F#3",
          "midi": 54,
          "time": 213.8899999999892,
          "velocity": 0.14960629921259844,
          "duration": 0.07499999999998863
        },
        {
          "name": "G#2",
          "midi": 44,
          "time": 213.89999999998918,
          "velocity": 0.4409448818897638,
          "duration": 0.07499999999998863
        },
        {
          "name": "F#3",
          "midi": 54,
          "time": 214.03999999998916,
          "velocity": 0.1968503937007874,
          "duration": 0.07499999999998863
        },
        {
          "name": "F#3",
          "midi": 54,
          "time": 214.18499999998915,
          "velocity": 0.2992125984251969,
          "duration": 0.07499999999998863
        },
        {
          "name": "G1",
          "midi": 31,
          "time": 214.19999999998913,
          "velocity": 0.7874015748031497,
          "duration": 0.07499999999998863
        },
        {
          "name": "A1",
          "midi": 33,
          "time": 214.19999999998913,
          "velocity": 1,
          "duration": 0.07499999999998863
        },
        {
          "name": "G#2",
          "midi": 44,
          "time": 214.19999999998913,
          "velocity": 0.7244094488188977,
          "duration": 0.07499999999998863
        },
        {
          "name": "F#3",
          "midi": 54,
          "time": 214.33999999998912,
          "velocity": 0.1732283464566929,
          "duration": 0.07499999999998863
        },
        {
          "name": "F#3",
          "midi": 54,
          "time": 214.4899999999891,
          "velocity": 0.14173228346456693,
          "duration": 0.07499999999998863
        },
        {
          "name": "G#2",
          "midi": 44,
          "time": 214.4999999999891,
          "velocity": 0.4409448818897638,
          "duration": 0.07499999999998863
        },
        {
          "name": "F#3",
          "midi": 54,
          "time": 214.63999999998907,
          "velocity": 0.1889763779527559,
          "duration": 0.07499999999998863
        },
        {
          "name": "G#2",
          "midi": 44,
          "time": 214.64999999998906,
          "velocity": 0.2440944881889764,
          "duration": 0.07499999999998863
        },
        {
          "name": "F#3",
          "midi": 54,
          "time": 214.78999999998905,
          "velocity": 0.2992125984251969,
          "duration": 0.07499999999998863
        },
        {
          "name": "A1",
          "midi": 33,
          "time": 214.79999999998904,
          "velocity": 0.9921259842519685,
          "duration": 0.07499999999998863
        },
        {
          "name": "G#2",
          "midi": 44,
          "time": 214.79999999998904,
          "velocity": 0.7244094488188977,
          "duration": 0.07499999999998863
        },
        {
          "name": "F#3",
          "midi": 54,
          "time": 214.93999999998903,
          "velocity": 0.1889763779527559,
          "duration": 0.07499999999998863
        },
        {
          "name": "F#3",
          "midi": 54,
          "time": 215.089999999989,
          "velocity": 0.1732283464566929,
          "duration": 0.07499999999998863
        },
        {
          "name": "G#2",
          "midi": 44,
          "time": 215.099999999989,
          "velocity": 0.7244094488188977,
          "duration": 0.07499999999998863
        },
        {
          "name": "F#3",
          "midi": 54,
          "time": 215.23999999998898,
          "velocity": 0.2047244094488189,
          "duration": 0.07499999999998863
        },
        {
          "name": "F#3",
          "midi": 54,
          "time": 215.38999999998896,
          "velocity": 0.2992125984251969,
          "duration": 0.07499999999998863
        },
        {
          "name": "A1",
          "midi": 33,
          "time": 215.39999999998895,
          "velocity": 1,
          "duration": 0.07499999999998863
        },
        {
          "name": "G1",
          "midi": 31,
          "time": 215.39999999998895,
          "velocity": 0.7874015748031497,
          "duration": 0.07499999999998863
        },
        {
          "name": "F#3",
          "midi": 54,
          "time": 215.53999999998894,
          "velocity": 0.2047244094488189,
          "duration": 0.07499999999998863
        },
        {
          "name": "F#3",
          "midi": 54,
          "time": 215.6899999999889,
          "velocity": 0.1889763779527559,
          "duration": 0.07499999999998863
        },
        {
          "name": "G#2",
          "midi": 44,
          "time": 215.6999999999889,
          "velocity": 0.4409448818897638,
          "duration": 0.07499999999998863
        },
        {
          "name": "F#3",
          "midi": 54,
          "time": 215.8399999999889,
          "velocity": 0.25196850393700787,
          "duration": 0.07499999999998863
        },
        {
          "name": "G#2",
          "midi": 44,
          "time": 215.84999999998888,
          "velocity": 0.2440944881889764,
          "duration": 0.07499999999998863
        },
        {
          "name": "F#3",
          "midi": 54,
          "time": 216.58999999998886,
          "velocity": 0.25196850393700787,
          "duration": 0.07499999999998863
        },
        {
          "name": "F#3",
          "midi": 54,
          "time": 217.19999999998885,
          "velocity": 0.14960629921259844,
          "duration": 0.07499999999998863
        },
        {
          "name": "F#3",
          "midi": 54,
          "time": 217.49999999998883,
          "velocity": 0.15748031496062992,
          "duration": 0.07499999999998863
        },
        {
          "name": "F#3",
          "midi": 54,
          "time": 217.7999999999888,
          "velocity": 0.25196850393700787,
          "duration": 0.07499999999998863
        },
        {
          "name": "F#3",
          "midi": 54,
          "time": 218.9999999999888,
          "velocity": 0.25196850393700787,
          "duration": 0.07499999999998863
        },
        {
          "name": "F#3",
          "midi": 54,
          "time": 220.1999999999888,
          "velocity": 0.2204724409448819,
          "duration": 0.07499999999998863
        },
        {
          "name": "D#3",
          "midi": 51,
          "time": 220.79999999998878,
          "velocity": 0.3937007874015748,
          "duration": 0.07499999999998863
        }
      ],
      "controlChanges": {
        "6": [
          {
            "number": 6,
            "time": 102.295,
            "value": 0.09448818897637795
          }
        ],
        "7": [
          {
            "number": 7,
            "time": 0,
            "value": 1
          }
        ],
        "10": [
          {
            "number": 10,
            "time": 0,
            "value": 0.5039370078740157
          }
        ],
        "32": [
          {
            "number": 32,
            "time": 0,
            "value": 0
          }
        ],
        "38": [
          {
            "number": 38,
            "time": 102.295,
            "value": 1
          }
        ],
        "98": [
          {
            "number": 98,
            "time": 102.295,
            "value": 0.4251968503937008
          }
        ],
        "99": [
          {
            "number": 99,
            "time": 102.295,
            "value": 0.1732283464566929
          }
        ],
        "119": [
          {
            "number": 119,
            "time": 106.27500000000003,
            "value": 0.5590551181102362
          },
          {
            "number": 119,
            "time": 106.38500000000003,
            "value": 0.4409448818897638
          },
          {
            "number": 119,
            "time": 106.44000000000004,
            "value": 0
          },
          {
            "number": 119,
            "time": 106.87500000000006,
            "value": 0.09448818897637795
          },
          {
            "number": 119,
            "time": 106.98500000000006,
            "value": 0.905511811023622
          },
          {
            "number": 119,
            "time": 107.04000000000006,
            "value": 0
          },
          {
            "number": 119,
            "time": 107.17500000000007,
            "value": 0.6299212598425197
          },
          {
            "number": 119,
            "time": 107.28500000000007,
            "value": 0.3700787401574803
          },
          {
            "number": 119,
            "time": 107.34000000000007,
            "value": 0
          },
          {
            "number": 119,
            "time": 107.47500000000008,
            "value": 0.1889763779527559
          },
          {
            "number": 119,
            "time": 107.58500000000008,
            "value": 0.8110236220472441
          },
          {
            "number": 119,
            "time": 107.64000000000009,
            "value": 0
          },
          {
            "number": 119,
            "time": 108.0750000000001,
            "value": 0.8818897637795275
          },
          {
            "number": 119,
            "time": 108.1850000000001,
            "value": 0.11811023622047244
          },
          {
            "number": 119,
            "time": 108.24000000000011,
            "value": 0
          },
          {
            "number": 119,
            "time": 108.37500000000011,
            "value": 0.5039370078740157
          },
          {
            "number": 119,
            "time": 108.48500000000011,
            "value": 0.49606299212598426
          },
          {
            "number": 119,
            "time": 108.54000000000012,
            "value": 0
          },
          {
            "number": 119,
            "time": 108.67500000000013,
            "value": 0
          },
          {
            "number": 119,
            "time": 108.78500000000012,
            "value": 1
          },
          {
            "number": 119,
            "time": 108.84000000000013,
            "value": 0
          },
          {
            "number": 119,
            "time": 109.27500000000015,
            "value": 0.6062992125984252
          },
          {
            "number": 119,
            "time": 109.38500000000015,
            "value": 0.3937007874015748
          },
          {
            "number": 119,
            "time": 109.44000000000015,
            "value": 0
          },
          {
            "number": 119,
            "time": 109.57500000000016,
            "value": 0.7244094488188977
          },
          {
            "number": 119,
            "time": 109.68500000000016,
            "value": 0.2755905511811024
          },
          {
            "number": 119,
            "time": 109.74000000000017,
            "value": 0
          },
          {
            "number": 119,
            "time": 109.87500000000017,
            "value": 0.08661417322834646
          },
          {
            "number": 119,
            "time": 109.98500000000017,
            "value": 0.9133858267716536
          },
          {
            "number": 119,
            "time": 110.04000000000018,
            "value": 0
          },
          {
            "number": 119,
            "time": 110.4750000000002,
            "value": 0.937007874015748
          },
          {
            "number": 119,
            "time": 110.58500000000019,
            "value": 0.06299212598425197
          },
          {
            "number": 119,
            "time": 110.6400000000002,
            "value": 0
          },
          {
            "number": 119,
            "time": 110.7750000000002,
            "value": 0.8503937007874016
          },
          {
            "number": 119,
            "time": 110.8850000000002,
            "value": 0.14960629921259844
          },
          {
            "number": 119,
            "time": 110.94000000000021,
            "value": 0
          },
          {
            "number": 119,
            "time": 111.07500000000022,
            "value": 0.4251968503937008
          },
          {
            "number": 119,
            "time": 111.18500000000022,
            "value": 0.5748031496062992
          },
          {
            "number": 119,
            "time": 111.24000000000022,
            "value": 0
          },
          {
            "number": 119,
            "time": 111.67500000000024,
            "value": 0.06299212598425197
          },
          {
            "number": 119,
            "time": 111.78500000000024,
            "value": 0.937007874015748
          },
          {
            "number": 119,
            "time": 111.84000000000024,
            "value": 0
          },
          {
            "number": 119,
            "time": 111.97500000000025,
            "value": 0.5826771653543307
          },
          {
            "number": 119,
            "time": 112.08500000000025,
            "value": 0.41732283464566927
          },
          {
            "number": 119,
            "time": 112.14000000000026,
            "value": 0
          },
          {
            "number": 119,
            "time": 112.27500000000026,
            "value": 0.07874015748031496
          },
          {
            "number": 119,
            "time": 112.38500000000026,
            "value": 0.9212598425196851
          },
          {
            "number": 119,
            "time": 112.44000000000027,
            "value": 0
          },
          {
            "number": 119,
            "time": 112.87500000000028,
            "value": 0.6377952755905512
          },
          {
            "number": 119,
            "time": 112.98500000000028,
            "value": 0.36220472440944884
          },
          {
            "number": 119,
            "time": 113.04000000000029,
            "value": 0
          },
          {
            "number": 119,
            "time": 113.1750000000003,
            "value": 0.2125984251968504
          },
          {
            "number": 119,
            "time": 113.2850000000003,
            "value": 0.7874015748031497
          },
          {
            "number": 119,
            "time": 113.3400000000003,
            "value": 0
          },
          {
            "number": 119,
            "time": 113.4750000000003,
            "value": 0.8818897637795275
          },
          {
            "number": 119,
            "time": 113.5850000000003,
            "value": 0.11811023622047244
          },
          {
            "number": 119,
            "time": 113.64000000000031,
            "value": 0
          },
          {
            "number": 119,
            "time": 114.07500000000033,
            "value": 0.7952755905511811
          },
          {
            "number": 119,
            "time": 114.18500000000033,
            "value": 0.2047244094488189
          },
          {
            "number": 119,
            "time": 114.24000000000034,
            "value": 0
          },
          {
            "number": 119,
            "time": 114.37500000000034,
            "value": 0.4330708661417323
          },
          {
            "number": 119,
            "time": 114.48500000000034,
            "value": 0.5669291338582677
          },
          {
            "number": 119,
            "time": 114.54000000000035,
            "value": 0
          },
          {
            "number": 119,
            "time": 114.67500000000035,
            "value": 0.937007874015748
          },
          {
            "number": 119,
            "time": 114.78500000000035,
            "value": 0.06299212598425197
          },
          {
            "number": 119,
            "time": 114.84000000000036,
            "value": 0
          },
          {
            "number": 119,
            "time": 115.8750000000004,
            "value": 0.6456692913385826
          },
          {
            "number": 119,
            "time": 115.9850000000004,
            "value": 0.3543307086614173
          },
          {
            "number": 119,
            "time": 116.0400000000004,
            "value": 0
          },
          {
            "number": 119,
            "time": 116.47500000000042,
            "value": 0.1968503937007874
          },
          {
            "number": 119,
            "time": 116.58500000000042,
            "value": 0.8031496062992126
          },
          {
            "number": 119,
            "time": 116.64000000000043,
            "value": 0
          },
          {
            "number": 119,
            "time": 116.77500000000043,
            "value": 0.7716535433070866
          },
          {
            "number": 119,
            "time": 116.88500000000043,
            "value": 0.2283464566929134
          },
          {
            "number": 119,
            "time": 116.94000000000044,
            "value": 0
          },
          {
            "number": 119,
            "time": 117.07500000000044,
            "value": 0.3543307086614173
          },
          {
            "number": 119,
            "time": 117.18500000000044,
            "value": 0.6456692913385826
          },
          {
            "number": 119,
            "time": 117.24000000000045,
            "value": 0
          },
          {
            "number": 119,
            "time": 117.67500000000047,
            "value": 0.7874015748031497
          },
          {
            "number": 119,
            "time": 117.78500000000047,
            "value": 0.2125984251968504
          },
          {
            "number": 119,
            "time": 117.84000000000047,
            "value": 0
          },
          {
            "number": 119,
            "time": 117.97500000000048,
            "value": 0.8740157480314961
          },
          {
            "number": 119,
            "time": 118.08500000000048,
            "value": 0.12598425196850394
          },
          {
            "number": 119,
            "time": 118.14000000000048,
            "value": 0
          },
          {
            "number": 119,
            "time": 118.27500000000049,
            "value": 0.6220472440944882
          },
          {
            "number": 119,
            "time": 118.38500000000049,
            "value": 0.3779527559055118
          },
          {
            "number": 119,
            "time": 118.4400000000005,
            "value": 0
          },
          {
            "number": 119,
            "time": 118.87500000000051,
            "value": 0.49606299212598426
          },
          {
            "number": 119,
            "time": 118.98500000000051,
            "value": 0.5039370078740157
          },
          {
            "number": 119,
            "time": 119.04000000000052,
            "value": 0
          },
          {
            "number": 119,
            "time": 119.17500000000052,
            "value": 0.4409448818897638
          },
          {
            "number": 119,
            "time": 119.28500000000052,
            "value": 0.5590551181102362
          },
          {
            "number": 119,
            "time": 119.34000000000053,
            "value": 0
          },
          {
            "number": 119,
            "time": 119.47500000000053,
            "value": 0.14173228346456693
          },
          {
            "number": 119,
            "time": 119.58500000000053,
            "value": 0.8582677165354331
          },
          {
            "number": 119,
            "time": 119.64000000000054,
            "value": 0
          },
          {
            "number": 119,
            "time": 120.07500000000056,
            "value": 0.8740157480314961
          },
          {
            "number": 119,
            "time": 120.18500000000056,
            "value": 0.12598425196850394
          },
          {
            "number": 119,
            "time": 120.24000000000056,
            "value": 0
          },
          {
            "number": 119,
            "time": 120.37500000000057,
            "value": 0.3700787401574803
          },
          {
            "number": 119,
            "time": 120.48500000000057,
            "value": 0.6299212598425197
          },
          {
            "number": 119,
            "time": 120.54000000000057,
            "value": 0
          },
          {
            "number": 119,
            "time": 120.67500000000058,
            "value": 0.3464566929133858
          },
          {
            "number": 119,
            "time": 120.78500000000058,
            "value": 0.6535433070866141
          },
          {
            "number": 119,
            "time": 120.84000000000059,
            "value": 0
          },
          {
            "number": 119,
            "time": 121.2750000000006,
            "value": 0.3464566929133858
          },
          {
            "number": 119,
            "time": 121.3850000000006,
            "value": 0.6535433070866141
          },
          {
            "number": 119,
            "time": 121.44000000000061,
            "value": 0
          },
          {
            "number": 119,
            "time": 121.57500000000061,
            "value": 0.05511811023622047
          },
          {
            "number": 119,
            "time": 121.68500000000061,
            "value": 0.9448818897637795
          },
          {
            "number": 119,
            "time": 121.74000000000062,
            "value": 0
          },
          {
            "number": 119,
            "time": 121.87500000000063,
            "value": 0.6535433070866141
          },
          {
            "number": 119,
            "time": 121.98500000000062,
            "value": 0.3464566929133858
          },
          {
            "number": 119,
            "time": 122.04000000000063,
            "value": 0
          },
          {
            "number": 119,
            "time": 122.47500000000065,
            "value": 0.2204724409448819
          },
          {
            "number": 119,
            "time": 122.58500000000065,
            "value": 0.7795275590551181
          },
          {
            "number": 119,
            "time": 122.64000000000065,
            "value": 0
          },
          {
            "number": 119,
            "time": 122.77500000000066,
            "value": 0.7716535433070866
          },
          {
            "number": 119,
            "time": 122.88500000000066,
            "value": 0.2283464566929134
          },
          {
            "number": 119,
            "time": 122.94000000000067,
            "value": 0
          },
          {
            "number": 119,
            "time": 123.07500000000067,
            "value": 0.2755905511811024
          },
          {
            "number": 119,
            "time": 123.18500000000067,
            "value": 0.7244094488188977
          },
          {
            "number": 119,
            "time": 123.24000000000068,
            "value": 0
          },
          {
            "number": 119,
            "time": 123.6750000000007,
            "value": 0.9448818897637795
          },
          {
            "number": 119,
            "time": 123.7850000000007,
            "value": 0.05511811023622047
          },
          {
            "number": 119,
            "time": 123.8400000000007,
            "value": 0
          },
          {
            "number": 119,
            "time": 123.9750000000007,
            "value": 0.5590551181102362
          },
          {
            "number": 119,
            "time": 124.0850000000007,
            "value": 0.4409448818897638
          },
          {
            "number": 119,
            "time": 124.14000000000071,
            "value": 0
          },
          {
            "number": 119,
            "time": 124.27500000000072,
            "value": 0.09448818897637795
          },
          {
            "number": 119,
            "time": 124.38500000000072,
            "value": 0.905511811023622
          },
          {
            "number": 119,
            "time": 124.44000000000072,
            "value": 0
          },
          {
            "number": 119,
            "time": 125.47500000000076,
            "value": 0.6614173228346457
          },
          {
            "number": 119,
            "time": 125.58500000000076,
            "value": 0.33858267716535434
          },
          {
            "number": 119,
            "time": 125.64000000000077,
            "value": 0
          },
          {
            "number": 119,
            "time": 126.07500000000078,
            "value": 0.3779527559055118
          },
          {
            "number": 119,
            "time": 126.18500000000078,
            "value": 0.6220472440944882
          },
          {
            "number": 119,
            "time": 126.24000000000079,
            "value": 0
          }
        ]
      },
      "id": 11,
      "instrumentNumber": 0,
      "instrument": "standard kit",
      "instrumentFamily": "drums",
      "channelNumber": 9,
      "isPercussion": true
    },
    {
      "startTime": 0,
      "duration": 0,
      "length": 0,
      "notes": [],
      "controlChanges": {
        "7": [
          {
            "number": 7,
            "time": 0,
            "value": 1
          }
        ],
        "10": [
          {
            "number": 10,
            "time": 0,
            "value": 0.5039370078740157
          }
        ]
      },
      "id": 12
    },
    {
      "startTime": 0,
      "duration": 0,
      "length": 0,
      "notes": [],
      "controlChanges": {
        "7": [
          {
            "number": 7,
            "time": 0,
            "value": 1
          }
        ],
        "10": [
          {
            "number": 10,
            "time": 0,
            "value": 0.5039370078740157
          }
        ]
      },
      "id": 13
    },
    {
      "startTime": 0,
      "duration": 0,
      "length": 0,
      "notes": [],
      "controlChanges": {
        "7": [
          {
            "number": 7,
            "time": 0,
            "value": 1
          }
        ],
        "10": [
          {
            "number": 10,
            "time": 0,
            "value": 0.5039370078740157
          }
        ]
      },
      "id": 14
    },
    {
      "startTime": 124.79999999999998,
      "duration": 142.1999999999985,
      "length": 18,
      "notes": [
        {
          "name": "F4",
          "midi": 65,
          "time": 124.79999999999998,
          "velocity": 0.6377952755905512,
          "duration": 2.3999999999999773
        },
        {
          "name": "A4",
          "midi": 69,
          "time": 124.79999999999998,
          "velocity": 0.6377952755905512,
          "duration": 2.3999999999999773
        },
        {
          "name": "D4",
          "midi": 62,
          "time": 124.79999999999998,
          "velocity": 0.6377952755905512,
          "duration": 2.3999999999999773
        },
        {
          "name": "G4",
          "midi": 67,
          "time": 127.19999999999996,
          "velocity": 0.5826771653543307,
          "duration": 2.4000000000000057
        },
        {
          "name": "D#4",
          "midi": 63,
          "time": 127.19999999999996,
          "velocity": 0.5826771653543307,
          "duration": 2.4000000000000057
        },
        {
          "name": "A#4",
          "midi": 70,
          "time": 127.19999999999996,
          "velocity": 0.5826771653543307,
          "duration": 2.4000000000000057
        },
        {
          "name": "D#4",
          "midi": 63,
          "time": 129.59999999999997,
          "velocity": 0.6377952755905512,
          "duration": 2.99999999999946
        },
        {
          "name": "G4",
          "midi": 67,
          "time": 129.59999999999997,
          "velocity": 0.6377952755905512,
          "duration": 2.99999999999946
        },
        {
          "name": "A#3",
          "midi": 58,
          "time": 129.59999999999997,
          "velocity": 0.6377952755905512,
          "duration": 2.99999999999946
        },
        {
          "name": "F4",
          "midi": 65,
          "time": 134.39999999999944,
          "velocity": 0.6377952755905512,
          "duration": 2.399999999999608
        },
        {
          "name": "A4",
          "midi": 69,
          "time": 134.39999999999944,
          "velocity": 0.6377952755905512,
          "duration": 2.399999999999608
        },
        {
          "name": "D4",
          "midi": 62,
          "time": 134.39999999999944,
          "velocity": 0.6377952755905512,
          "duration": 2.399999999999608
        },
        {
          "name": "G4",
          "midi": 67,
          "time": 136.79999999999905,
          "velocity": 0.5826771653543307,
          "duration": 2.4000000000000057
        },
        {
          "name": "D#4",
          "midi": 63,
          "time": 136.79999999999905,
          "velocity": 0.5826771653543307,
          "duration": 2.4000000000000057
        },
        {
          "name": "A#4",
          "midi": 70,
          "time": 136.79999999999905,
          "velocity": 0.5826771653543307,
          "duration": 2.4000000000000057
        },
        {
          "name": "F4",
          "midi": 65,
          "time": 139.19999999999905,
          "velocity": 0.6377952755905512,
          "duration": 2.99999999999946
        },
        {
          "name": "A4",
          "midi": 69,
          "time": 139.19999999999905,
          "velocity": 0.6377952755905512,
          "duration": 2.99999999999946
        },
        {
          "name": "C4",
          "midi": 60,
          "time": 139.19999999999905,
          "velocity": 0.6377952755905512,
          "duration": 2.99999999999946
        }
      ],
      "controlChanges": {
        "7": [
          {
            "number": 7,
            "time": 0,
            "value": 1
          }
        ],
        "10": [
          {
            "number": 10,
            "time": 0,
            "value": 0.5039370078740157
          }
        ],
        "11": [
          {
            "number": 11,
            "time": 130.55999999999997,
            "value": 0.9921259842519685
          },
          {
            "number": 11,
            "time": 130.56499999999997,
            "value": 0.984251968503937
          },
          {
            "number": 11,
            "time": 130.58499999999998,
            "value": 0.9763779527559056
          },
          {
            "number": 11,
            "time": 130.58999999999997,
            "value": 0.968503937007874
          },
          {
            "number": 11,
            "time": 130.59999999999997,
            "value": 0.9606299212598425
          },
          {
            "number": 11,
            "time": 130.61499999999995,
            "value": 0.952755905511811
          },
          {
            "number": 11,
            "time": 130.62499999999994,
            "value": 0.9448818897637795
          },
          {
            "number": 11,
            "time": 130.67499999999995,
            "value": 0.937007874015748
          },
          {
            "number": 11,
            "time": 130.71999999999994,
            "value": 0.9212598425196851
          },
          {
            "number": 11,
            "time": 130.75999999999993,
            "value": 0.9133858267716536
          },
          {
            "number": 11,
            "time": 130.82999999999993,
            "value": 0.905511811023622
          },
          {
            "number": 11,
            "time": 130.89999999999992,
            "value": 0.8976377952755905
          },
          {
            "number": 11,
            "time": 130.9149999999999,
            "value": 0.889763779527559
          },
          {
            "number": 11,
            "time": 130.9849999999999,
            "value": 0.8818897637795275
          },
          {
            "number": 11,
            "time": 131.0299999999999,
            "value": 0.8740157480314961
          },
          {
            "number": 11,
            "time": 131.07499999999987,
            "value": 0.8661417322834646
          },
          {
            "number": 11,
            "time": 131.07999999999987,
            "value": 0.8582677165354331
          },
          {
            "number": 11,
            "time": 131.11999999999986,
            "value": 0.8503937007874016
          },
          {
            "number": 11,
            "time": 131.13999999999987,
            "value": 0.84251968503937
          },
          {
            "number": 11,
            "time": 131.15499999999986,
            "value": 0.8346456692913385
          },
          {
            "number": 11,
            "time": 131.16499999999985,
            "value": 0.8267716535433071
          },
          {
            "number": 11,
            "time": 131.18999999999986,
            "value": 0.8188976377952756
          },
          {
            "number": 11,
            "time": 131.19499999999985,
            "value": 0.8110236220472441
          },
          {
            "number": 11,
            "time": 131.20999999999984,
            "value": 0.8031496062992126
          },
          {
            "number": 11,
            "time": 131.21999999999983,
            "value": 0.7952755905511811
          },
          {
            "number": 11,
            "time": 131.25499999999982,
            "value": 0.7795275590551181
          },
          {
            "number": 11,
            "time": 131.30499999999984,
            "value": 0.7716535433070866
          },
          {
            "number": 11,
            "time": 131.31499999999983,
            "value": 0.7559055118110236
          },
          {
            "number": 11,
            "time": 131.34999999999982,
            "value": 0.7480314960629921
          },
          {
            "number": 11,
            "time": 131.39999999999984,
            "value": 0.7322834645669292
          },
          {
            "number": 11,
            "time": 131.43499999999983,
            "value": 0.7165354330708661
          },
          {
            "number": 11,
            "time": 131.48499999999984,
            "value": 0.7007874015748031
          },
          {
            "number": 11,
            "time": 131.51999999999984,
            "value": 0.6850393700787402
          },
          {
            "number": 11,
            "time": 131.52999999999983,
            "value": 0.6377952755905512
          },
          {
            "number": 11,
            "time": 131.56999999999982,
            "value": 0.6299212598425197
          },
          {
            "number": 11,
            "time": 131.60499999999982,
            "value": 0.5826771653543307
          },
          {
            "number": 11,
            "time": 131.63999999999982,
            "value": 0.5748031496062992
          },
          {
            "number": 11,
            "time": 131.6499999999998,
            "value": 0.5590551181102362
          },
          {
            "number": 11,
            "time": 131.6899999999998,
            "value": 0.5433070866141733
          },
          {
            "number": 11,
            "time": 131.7249999999998,
            "value": 0.5354330708661418
          },
          {
            "number": 11,
            "time": 131.7349999999998,
            "value": 0.5196850393700787
          },
          {
            "number": 11,
            "time": 131.76999999999978,
            "value": 0.5118110236220472
          },
          {
            "number": 11,
            "time": 131.80999999999977,
            "value": 0.49606299212598426
          },
          {
            "number": 11,
            "time": 131.81999999999977,
            "value": 0.4881889763779528
          },
          {
            "number": 11,
            "time": 131.85499999999976,
            "value": 0.47244094488188976
          },
          {
            "number": 11,
            "time": 131.88999999999976,
            "value": 0.4566929133858268
          },
          {
            "number": 11,
            "time": 131.90499999999975,
            "value": 0.44881889763779526
          },
          {
            "number": 11,
            "time": 131.93999999999974,
            "value": 0.4330708661417323
          },
          {
            "number": 11,
            "time": 131.94999999999973,
            "value": 0.4251968503937008
          },
          {
            "number": 11,
            "time": 131.98999999999972,
            "value": 0.41732283464566927
          },
          {
            "number": 11,
            "time": 131.99999999999972,
            "value": 0.4015748031496063
          },
          {
            "number": 11,
            "time": 132.0099999999997,
            "value": 0.3937007874015748
          },
          {
            "number": 11,
            "time": 132.0249999999997,
            "value": 0.3779527559055118
          },
          {
            "number": 11,
            "time": 132.03499999999968,
            "value": 0.36220472440944884
          },
          {
            "number": 11,
            "time": 132.06999999999968,
            "value": 0.3543307086614173
          },
          {
            "number": 11,
            "time": 132.08499999999967,
            "value": 0.33858267716535434
          },
          {
            "number": 11,
            "time": 132.11999999999966,
            "value": 0.33070866141732286
          },
          {
            "number": 11,
            "time": 132.15499999999966,
            "value": 0.3228346456692913
          },
          {
            "number": 11,
            "time": 132.16999999999965,
            "value": 0.30708661417322836
          },
          {
            "number": 11,
            "time": 132.20499999999964,
            "value": 0.29133858267716534
          },
          {
            "number": 11,
            "time": 132.23999999999964,
            "value": 0.28346456692913385
          },
          {
            "number": 11,
            "time": 132.24999999999963,
            "value": 0.2755905511811024
          },
          {
            "number": 11,
            "time": 132.26499999999962,
            "value": 0.2677165354330709
          },
          {
            "number": 11,
            "time": 132.2699999999996,
            "value": 0.25196850393700787
          },
          {
            "number": 11,
            "time": 132.2799999999996,
            "value": 0.2440944881889764
          },
          {
            "number": 11,
            "time": 132.2949999999996,
            "value": 0.2283464566929134
          },
          {
            "number": 11,
            "time": 132.30499999999958,
            "value": 0.2125984251968504
          },
          {
            "number": 11,
            "time": 132.31999999999957,
            "value": 0.2047244094488189
          },
          {
            "number": 11,
            "time": 132.32999999999956,
            "value": 0.1968503937007874
          },
          {
            "number": 11,
            "time": 132.33999999999955,
            "value": 0.18110236220472442
          },
          {
            "number": 11,
            "time": 132.36499999999955,
            "value": 0.1732283464566929
          },
          {
            "number": 11,
            "time": 132.36999999999955,
            "value": 0.16535433070866143
          },
          {
            "number": 11,
            "time": 132.37999999999954,
            "value": 0.15748031496062992
          },
          {
            "number": 11,
            "time": 132.38499999999954,
            "value": 0.14960629921259844
          },
          {
            "number": 11,
            "time": 132.38999999999953,
            "value": 0.14173228346456693
          },
          {
            "number": 11,
            "time": 132.39499999999953,
            "value": 0.13385826771653545
          },
          {
            "number": 11,
            "time": 132.4099999999995,
            "value": 0.12598425196850394
          },
          {
            "number": 11,
            "time": 132.4149999999995,
            "value": 0.11811023622047244
          },
          {
            "number": 11,
            "time": 132.4249999999995,
            "value": 0.11023622047244094
          },
          {
            "number": 11,
            "time": 132.4399999999995,
            "value": 0.10236220472440945
          },
          {
            "number": 11,
            "time": 132.44999999999948,
            "value": 0.09448818897637795
          },
          {
            "number": 11,
            "time": 132.45999999999947,
            "value": 0.08661417322834646
          },
          {
            "number": 11,
            "time": 132.47999999999948,
            "value": 0.07874015748031496
          },
          {
            "number": 11,
            "time": 132.48999999999947,
            "value": 0.07086614173228346
          },
          {
            "number": 11,
            "time": 132.50499999999946,
            "value": 0.06299212598425197
          },
          {
            "number": 11,
            "time": 132.51499999999945,
            "value": 0.05511811023622047
          },
          {
            "number": 11,
            "time": 132.53499999999946,
            "value": 0.047244094488188976
          },
          {
            "number": 11,
            "time": 132.54999999999944,
            "value": 0.03937007874015748
          },
          {
            "number": 11,
            "time": 132.56499999999943,
            "value": 0.023622047244094488
          },
          {
            "number": 11,
            "time": 132.57999999999942,
            "value": 0.015748031496062992
          },
          {
            "number": 11,
            "time": 132.83999999999943,
            "value": 1
          },
          {
            "number": 11,
            "time": 140.15999999999906,
            "value": 0.9921259842519685
          },
          {
            "number": 11,
            "time": 140.16499999999905,
            "value": 0.984251968503937
          },
          {
            "number": 11,
            "time": 140.18499999999906,
            "value": 0.9763779527559056
          },
          {
            "number": 11,
            "time": 140.18999999999906,
            "value": 0.968503937007874
          },
          {
            "number": 11,
            "time": 140.19999999999905,
            "value": 0.9606299212598425
          },
          {
            "number": 11,
            "time": 140.21499999999904,
            "value": 0.952755905511811
          },
          {
            "number": 11,
            "time": 140.22499999999903,
            "value": 0.9448818897637795
          },
          {
            "number": 11,
            "time": 140.27499999999904,
            "value": 0.937007874015748
          },
          {
            "number": 11,
            "time": 140.31999999999903,
            "value": 0.9212598425196851
          },
          {
            "number": 11,
            "time": 140.35999999999902,
            "value": 0.9133858267716536
          },
          {
            "number": 11,
            "time": 140.429999999999,
            "value": 0.905511811023622
          },
          {
            "number": 11,
            "time": 140.499999999999,
            "value": 0.8976377952755905
          },
          {
            "number": 11,
            "time": 140.514999999999,
            "value": 0.889763779527559
          },
          {
            "number": 11,
            "time": 140.58499999999898,
            "value": 0.8818897637795275
          },
          {
            "number": 11,
            "time": 140.62999999999897,
            "value": 0.8740157480314961
          },
          {
            "number": 11,
            "time": 140.67499999999896,
            "value": 0.8661417322834646
          },
          {
            "number": 11,
            "time": 140.67999999999896,
            "value": 0.8582677165354331
          },
          {
            "number": 11,
            "time": 140.71999999999895,
            "value": 0.8503937007874016
          },
          {
            "number": 11,
            "time": 140.73999999999896,
            "value": 0.84251968503937
          },
          {
            "number": 11,
            "time": 140.75499999999894,
            "value": 0.8346456692913385
          },
          {
            "number": 11,
            "time": 140.76499999999893,
            "value": 0.8267716535433071
          },
          {
            "number": 11,
            "time": 140.78999999999894,
            "value": 0.8188976377952756
          },
          {
            "number": 11,
            "time": 140.79499999999894,
            "value": 0.8110236220472441
          },
          {
            "number": 11,
            "time": 140.80999999999892,
            "value": 0.8031496062992126
          },
          {
            "number": 11,
            "time": 140.8199999999989,
            "value": 0.7952755905511811
          },
          {
            "number": 11,
            "time": 140.8549999999989,
            "value": 0.7795275590551181
          },
          {
            "number": 11,
            "time": 140.90499999999892,
            "value": 0.7716535433070866
          },
          {
            "number": 11,
            "time": 140.9149999999989,
            "value": 0.7559055118110236
          },
          {
            "number": 11,
            "time": 140.9499999999989,
            "value": 0.7480314960629921
          },
          {
            "number": 11,
            "time": 140.99999999999892,
            "value": 0.7322834645669292
          },
          {
            "number": 11,
            "time": 141.03499999999892,
            "value": 0.7165354330708661
          },
          {
            "number": 11,
            "time": 141.08499999999893,
            "value": 0.7007874015748031
          },
          {
            "number": 11,
            "time": 141.11999999999892,
            "value": 0.6850393700787402
          },
          {
            "number": 11,
            "time": 141.12999999999892,
            "value": 0.6377952755905512
          },
          {
            "number": 11,
            "time": 141.1699999999989,
            "value": 0.6299212598425197
          },
          {
            "number": 11,
            "time": 141.2049999999989,
            "value": 0.5826771653543307
          },
          {
            "number": 11,
            "time": 141.2399999999989,
            "value": 0.5748031496062992
          },
          {
            "number": 11,
            "time": 141.2499999999989,
            "value": 0.5590551181102362
          },
          {
            "number": 11,
            "time": 141.28999999999888,
            "value": 0.5433070866141733
          },
          {
            "number": 11,
            "time": 141.32499999999888,
            "value": 0.5354330708661418
          },
          {
            "number": 11,
            "time": 141.33499999999887,
            "value": 0.5196850393700787
          },
          {
            "number": 11,
            "time": 141.36999999999887,
            "value": 0.5118110236220472
          },
          {
            "number": 11,
            "time": 141.40999999999886,
            "value": 0.49606299212598426
          },
          {
            "number": 11,
            "time": 141.41999999999885,
            "value": 0.4881889763779528
          },
          {
            "number": 11,
            "time": 141.45499999999885,
            "value": 0.47244094488188976
          },
          {
            "number": 11,
            "time": 141.48999999999884,
            "value": 0.4566929133858268
          },
          {
            "number": 11,
            "time": 141.50499999999883,
            "value": 0.44881889763779526
          },
          {
            "number": 11,
            "time": 141.53999999999883,
            "value": 0.4330708661417323
          },
          {
            "number": 11,
            "time": 141.54999999999882,
            "value": 0.4251968503937008
          },
          {
            "number": 11,
            "time": 141.5899999999988,
            "value": 0.41732283464566927
          },
          {
            "number": 11,
            "time": 141.5999999999988,
            "value": 0.4015748031496063
          },
          {
            "number": 11,
            "time": 141.6099999999988,
            "value": 0.3937007874015748
          },
          {
            "number": 11,
            "time": 141.62499999999878,
            "value": 0.3779527559055118
          },
          {
            "number": 11,
            "time": 141.63499999999877,
            "value": 0.36220472440944884
          },
          {
            "number": 11,
            "time": 141.66999999999877,
            "value": 0.3543307086614173
          },
          {
            "number": 11,
            "time": 141.68499999999875,
            "value": 0.33858267716535434
          },
          {
            "number": 11,
            "time": 141.71999999999875,
            "value": 0.33070866141732286
          },
          {
            "number": 11,
            "time": 141.75499999999874,
            "value": 0.3228346456692913
          },
          {
            "number": 11,
            "time": 141.76999999999873,
            "value": 0.30708661417322836
          },
          {
            "number": 11,
            "time": 141.80499999999873,
            "value": 0.29133858267716534
          },
          {
            "number": 11,
            "time": 141.83999999999872,
            "value": 0.28346456692913385
          },
          {
            "number": 11,
            "time": 141.84999999999872,
            "value": 0.2755905511811024
          },
          {
            "number": 11,
            "time": 141.8649999999987,
            "value": 0.2677165354330709
          },
          {
            "number": 11,
            "time": 141.8699999999987,
            "value": 0.25196850393700787
          },
          {
            "number": 11,
            "time": 141.8799999999987,
            "value": 0.2440944881889764
          },
          {
            "number": 11,
            "time": 141.89499999999867,
            "value": 0.2283464566929134
          },
          {
            "number": 11,
            "time": 141.90499999999867,
            "value": 0.2125984251968504
          },
          {
            "number": 11,
            "time": 141.91999999999865,
            "value": 0.2047244094488189
          },
          {
            "number": 11,
            "time": 141.92999999999864,
            "value": 0.1968503937007874
          },
          {
            "number": 11,
            "time": 141.93999999999863,
            "value": 0.18110236220472442
          },
          {
            "number": 11,
            "time": 141.96499999999864,
            "value": 0.1732283464566929
          },
          {
            "number": 11,
            "time": 141.96999999999863,
            "value": 0.16535433070866143
          },
          {
            "number": 11,
            "time": 141.97999999999863,
            "value": 0.15748031496062992
          },
          {
            "number": 11,
            "time": 141.98499999999862,
            "value": 0.14960629921259844
          },
          {
            "number": 11,
            "time": 141.98999999999862,
            "value": 0.14173228346456693
          },
          {
            "number": 11,
            "time": 141.9949999999986,
            "value": 0.13385826771653545
          },
          {
            "number": 11,
            "time": 142.0099999999986,
            "value": 0.12598425196850394
          },
          {
            "number": 11,
            "time": 142.0149999999986,
            "value": 0.11811023622047244
          },
          {
            "number": 11,
            "time": 142.02499999999858,
            "value": 0.11023622047244094
          },
          {
            "number": 11,
            "time": 142.03999999999857,
            "value": 0.10236220472440945
          },
          {
            "number": 11,
            "time": 142.04999999999856,
            "value": 0.09448818897637795
          },
          {
            "number": 11,
            "time": 142.05999999999855,
            "value": 0.08661417322834646
          },
          {
            "number": 11,
            "time": 142.07999999999856,
            "value": 0.07874015748031496
          },
          {
            "number": 11,
            "time": 142.08999999999855,
            "value": 0.07086614173228346
          },
          {
            "number": 11,
            "time": 142.10499999999854,
            "value": 0.06299212598425197
          },
          {
            "number": 11,
            "time": 142.11499999999853,
            "value": 0.05511811023622047
          },
          {
            "number": 11,
            "time": 142.13499999999854,
            "value": 0.047244094488188976
          },
          {
            "number": 11,
            "time": 142.14999999999853,
            "value": 0.03937007874015748
          },
          {
            "number": 11,
            "time": 142.1649999999985,
            "value": 0.023622047244094488
          },
          {
            "number": 11,
            "time": 142.1799999999985,
            "value": 0.015748031496062992
          },
          {
            "number": 11,
            "time": 142.43999999999852,
            "value": 1
          }
        ],
        "32": [
          {
            "number": 32,
            "time": 0,
            "value": 0
          }
        ],
        "93": [
          {
            "number": 93,
            "time": 121.95499999999998,
            "value": 0.3779527559055118
          }
        ],
        "119": [
          {
            "number": 119,
            "time": 125.13499999999998,
            "value": 0.84251968503937
          },
          {
            "number": 119,
            "time": 125.62999999999998,
            "value": 0.15748031496062992
          },
          {
            "number": 119,
            "time": 125.87999999999998,
            "value": 0
          },
          {
            "number": 119,
            "time": 126.12999999999998,
            "value": 0.3779527559055118
          },
          {
            "number": 119,
            "time": 126.56999999999998,
            "value": 0.6220472440944882
          },
          {
            "number": 119,
            "time": 126.78999999999998,
            "value": 0
          },
          {
            "number": 119,
            "time": 127.19999999999996,
            "value": 0.9133858267716536
          },
          {
            "number": 119,
            "time": 127.69499999999996,
            "value": 0.08661417322834646
          },
          {
            "number": 119,
            "time": 127.94499999999996,
            "value": 0
          },
          {
            "number": 119,
            "time": 128.19499999999996,
            "value": 0.47244094488188976
          },
          {
            "number": 119,
            "time": 128.68999999999997,
            "value": 0.5275590551181102
          },
          {
            "number": 119,
            "time": 128.93999999999997,
            "value": 0
          },
          {
            "number": 119,
            "time": 129.18999999999997,
            "value": 0.15748031496062992
          },
          {
            "number": 119,
            "time": 129.39499999999998,
            "value": 0.84251968503937
          },
          {
            "number": 119,
            "time": 129.49499999999998,
            "value": 0
          },
          {
            "number": 119,
            "time": 129.59999999999997,
            "value": 0.7874015748031497
          },
          {
            "number": 119,
            "time": 130.07999999999996,
            "value": 0.2125984251968504
          },
          {
            "number": 119,
            "time": 130.31999999999996,
            "value": 0
          },
          {
            "number": 119,
            "time": 132.59999999999943,
            "value": 0.28346456692913385
          },
          {
            "number": 119,
            "time": 132.71999999999943,
            "value": 0.7165354330708661
          },
          {
            "number": 119,
            "time": 132.77999999999943,
            "value": 0
          },
          {
            "number": 119,
            "time": 132.83999999999943,
            "value": 0.889763779527559
          },
          {
            "number": 119,
            "time": 133.33499999999944,
            "value": 0.11023622047244094
          },
          {
            "number": 119,
            "time": 133.58499999999944,
            "value": 0
          },
          {
            "number": 119,
            "time": 133.83499999999944,
            "value": 0
          },
          {
            "number": 119,
            "time": 134.11499999999944,
            "value": 1
          },
          {
            "number": 119,
            "time": 134.25499999999943,
            "value": 0
          },
          {
            "number": 119,
            "time": 134.7349999999992,
            "value": 0.3700787401574803
          },
          {
            "number": 119,
            "time": 135.2299999999992,
            "value": 0.6299212598425197
          },
          {
            "number": 119,
            "time": 135.4799999999992,
            "value": 0
          },
          {
            "number": 119,
            "time": 135.7299999999992,
            "value": 0.2125984251968504
          },
          {
            "number": 119,
            "time": 136.1699999999992,
            "value": 0.7874015748031497
          },
          {
            "number": 119,
            "time": 136.3899999999992,
            "value": 0
          },
          {
            "number": 119,
            "time": 136.79999999999905,
            "value": 0.12598425196850394
          },
          {
            "number": 119,
            "time": 137.29499999999905,
            "value": 0.8740157480314961
          },
          {
            "number": 119,
            "time": 137.54499999999905,
            "value": 0
          },
          {
            "number": 119,
            "time": 137.79499999999905,
            "value": 0.7086614173228346
          },
          {
            "number": 119,
            "time": 138.28999999999905,
            "value": 0.29133858267716534
          },
          {
            "number": 119,
            "time": 138.53999999999905,
            "value": 0
          },
          {
            "number": 119,
            "time": 138.78999999999905,
            "value": 0.3464566929133858
          },
          {
            "number": 119,
            "time": 138.99499999999907,
            "value": 0.6535433070866141
          },
          {
            "number": 119,
            "time": 139.09499999999906,
            "value": 0
          },
          {
            "number": 119,
            "time": 139.19999999999905,
            "value": 0.8661417322834646
          },
          {
            "number": 119,
            "time": 139.67999999999904,
            "value": 0.13385826771653545
          },
          {
            "number": 119,
            "time": 139.91999999999905,
            "value": 0
          },
          {
            "number": 119,
            "time": 142.1999999999985,
            "value": 0.36220472440944884
          },
          {
            "number": 119,
            "time": 142.31999999999852,
            "value": 0.6377952755905512
          },
          {
            "number": 119,
            "time": 142.37999999999852,
            "value": 0
          }
        ]
      },
      "id": 15,
      "instrumentNumber": 53,
      "instrument": "voice oohs",
      "instrumentFamily": "ensemble",
      "channelNumber": 13,
      "isPercussion": false
    },
    {
      "startTime": 25.2,
      "duration": 222.8749999999793,
      "length": 270,
      "notes": [
        {
          "name": "F3",
          "midi": 53,
          "time": 25.2,
          "velocity": 0.7244094488188977,
          "duration": 0.29999999999999716
        },
        {
          "name": "G3",
          "midi": 55,
          "time": 25.499999999999996,
          "velocity": 0.7244094488188977,
          "duration": 0.19500000000000028
        },
        {
          "name": "F3",
          "midi": 53,
          "time": 25.799999999999997,
          "velocity": 0.7244094488188977,
          "duration": 0.29999999999999716
        },
        {
          "name": "C4",
          "midi": 60,
          "time": 26.099999999999994,
          "velocity": 0.7244094488188977,
          "duration": 0.5999999999999979
        },
        {
          "name": "A3",
          "midi": 57,
          "time": 26.699999999999992,
          "velocity": 0.7244094488188977,
          "duration": 0.5999999999999979
        },
        {
          "name": "F3",
          "midi": 53,
          "time": 27.599999999999994,
          "velocity": 0.7244094488188977,
          "duration": 0.29999999999999716
        },
        {
          "name": "G3",
          "midi": 55,
          "time": 27.89999999999999,
          "velocity": 0.7244094488188977,
          "duration": 0.2999999999999865
        },
        {
          "name": "F3",
          "midi": 53,
          "time": 28.199999999999978,
          "velocity": 0.7244094488188977,
          "duration": 0.29999999999999716
        },
        {
          "name": "C4",
          "midi": 60,
          "time": 28.499999999999975,
          "velocity": 0.7322834645669292,
          "duration": 0.6000000000000014
        },
        {
          "name": "A3",
          "midi": 57,
          "time": 29.099999999999977,
          "velocity": 0.7322834645669292,
          "duration": 0.6000000000000085
        },
        {
          "name": "C3",
          "midi": 48,
          "time": 29.849999999999987,
          "velocity": 0.7322834645669292,
          "duration": 0.14999999999999858
        },
        {
          "name": "F3",
          "midi": 53,
          "time": 29.999999999999986,
          "velocity": 0.7322834645669292,
          "duration": 0.29999999999999716
        },
        {
          "name": "G3",
          "midi": 55,
          "time": 30.299999999999983,
          "velocity": 0.7322834645669292,
          "duration": 0.29999999999999716
        },
        {
          "name": "F3",
          "midi": 53,
          "time": 30.59999999999998,
          "velocity": 0.7322834645669292,
          "duration": 0.29999999999999716
        },
        {
          "name": "G3",
          "midi": 55,
          "time": 30.899999999999977,
          "velocity": 0.7322834645669292,
          "duration": 0.6000000000000085
        },
        {
          "name": "A3",
          "midi": 57,
          "time": 31.499999999999986,
          "velocity": 0.7322834645669292,
          "duration": 0.6000000000000014
        },
        {
          "name": "A3",
          "midi": 57,
          "time": 32.09999999999999,
          "velocity": 0.7322834645669292,
          "duration": 0.30000000000001137
        },
        {
          "name": "G3",
          "midi": 55,
          "time": 32.4,
          "velocity": 0.7322834645669292,
          "duration": 0.6000000000000085
        },
        {
          "name": "G3",
          "midi": 55,
          "time": 33.00000000000001,
          "velocity": 0.7322834645669292,
          "duration": 0.600000000000037
        },
        {
          "name": "F3",
          "midi": 53,
          "time": 34.80000000000004,
          "velocity": 0.7244094488188977,
          "duration": 0.3000000000000469
        },
        {
          "name": "G3",
          "midi": 55,
          "time": 35.10000000000009,
          "velocity": 0.7244094488188977,
          "duration": 0.19499999999999318
        },
        {
          "name": "F3",
          "midi": 53,
          "time": 35.40000000000008,
          "velocity": 0.7244094488188977,
          "duration": 0.30000000000000426
        },
        {
          "name": "C4",
          "midi": 60,
          "time": 35.70000000000008,
          "velocity": 0.7244094488188977,
          "duration": 0.5999999999999943
        },
        {
          "name": "A3",
          "midi": 57,
          "time": 36.300000000000075,
          "velocity": 0.7244094488188977,
          "duration": 0.6000000000000227
        },
        {
          "name": "F3",
          "midi": 53,
          "time": 37.20000000000011,
          "velocity": 0.7244094488188977,
          "duration": 0.30000000000000426
        },
        {
          "name": "G3",
          "midi": 55,
          "time": 37.500000000000114,
          "velocity": 0.7244094488188977,
          "duration": 0.3000000000000469
        },
        {
          "name": "F3",
          "midi": 53,
          "time": 37.80000000000016,
          "velocity": 0.7244094488188977,
          "duration": 0.30000000000000426
        },
        {
          "name": "C4",
          "midi": 60,
          "time": 38.100000000000165,
          "velocity": 0.7322834645669292,
          "duration": 0.6000000000000014
        },
        {
          "name": "A3",
          "midi": 57,
          "time": 38.700000000000166,
          "velocity": 0.7322834645669292,
          "duration": 0.6000000000000298
        },
        {
          "name": "C3",
          "midi": 48,
          "time": 39.450000000000195,
          "velocity": 0.7322834645669292,
          "duration": 0.14999999999999858
        },
        {
          "name": "F3",
          "midi": 53,
          "time": 39.60000000000019,
          "velocity": 0.7322834645669292,
          "duration": 0.30000000000000426
        },
        {
          "name": "G3",
          "midi": 55,
          "time": 39.9000000000002,
          "velocity": 0.7322834645669292,
          "duration": 0.30000000000000426
        },
        {
          "name": "F3",
          "midi": 53,
          "time": 40.2000000000002,
          "velocity": 0.7322834645669292,
          "duration": 0.30000000000001137
        },
        {
          "name": "G3",
          "midi": 55,
          "time": 40.50000000000021,
          "velocity": 0.7322834645669292,
          "duration": 0.6000000000000156
        },
        {
          "name": "A3",
          "midi": 57,
          "time": 41.10000000000023,
          "velocity": 0.7322834645669292,
          "duration": 0.6000000000000654
        },
        {
          "name": "A3",
          "midi": 57,
          "time": 41.700000000000294,
          "velocity": 0.7322834645669292,
          "duration": 0.30000000000001137
        },
        {
          "name": "G3",
          "midi": 55,
          "time": 42.000000000000306,
          "velocity": 0.7322834645669292,
          "duration": 0.6000000000000085
        },
        {
          "name": "G3",
          "midi": 55,
          "time": 42.600000000000314,
          "velocity": 0.7322834645669292,
          "duration": 1.2000000000000455
        },
        {
          "name": "F3",
          "midi": 53,
          "time": 44.39500000000036,
          "velocity": 0.7322834645669292,
          "duration": 0.3049999999999997
        },
        {
          "name": "G3",
          "midi": 55,
          "time": 44.70000000000036,
          "velocity": 0.7322834645669292,
          "duration": 0.6000000000000512
        },
        {
          "name": "C4",
          "midi": 60,
          "time": 45.30000000000041,
          "velocity": 0.7322834645669292,
          "duration": 0.6000000000000014
        },
        {
          "name": "A3",
          "midi": 57,
          "time": 45.90000000000041,
          "velocity": 0.7322834645669292,
          "duration": 0.6000000000000725
        },
        {
          "name": "C3",
          "midi": 48,
          "time": 46.65000000000048,
          "velocity": 0.7322834645669292,
          "duration": 0.14999999999999858
        },
        {
          "name": "F3",
          "midi": 53,
          "time": 46.80000000000048,
          "velocity": 0.7322834645669292,
          "duration": 0.3049999999999997
        },
        {
          "name": "G3",
          "midi": 55,
          "time": 47.10000000000048,
          "velocity": 0.7322834645669292,
          "duration": 0.3050000000000068
        },
        {
          "name": "F3",
          "midi": 53,
          "time": 47.40000000000048,
          "velocity": 0.7322834645669292,
          "duration": 0.3050000000000068
        },
        {
          "name": "C4",
          "midi": 60,
          "time": 47.700000000000486,
          "velocity": 0.7322834645669292,
          "duration": 0.6000000000000014
        },
        {
          "name": "A3",
          "midi": 57,
          "time": 48.30000000000049,
          "velocity": 0.7322834645669292,
          "duration": 0.6000000000000156
        },
        {
          "name": "F3",
          "midi": 53,
          "time": 49.20000000000051,
          "velocity": 0.7322834645669292,
          "duration": 0.29999999999999716
        },
        {
          "name": "G3",
          "midi": 55,
          "time": 49.500000000000504,
          "velocity": 0.7322834645669292,
          "duration": 0.3000000000000256
        },
        {
          "name": "F3",
          "midi": 53,
          "time": 49.80000000000053,
          "velocity": 0.7322834645669292,
          "duration": 0.30000000000000426
        },
        {
          "name": "A3",
          "midi": 57,
          "time": 50.100000000000534,
          "velocity": 0.7322834645669292,
          "duration": 0.30000000000001137
        },
        {
          "name": "A3",
          "midi": 57,
          "time": 50.70000000000054,
          "velocity": 0.7322834645669292,
          "duration": 0.6000000000001151
        },
        {
          "name": "A3",
          "midi": 57,
          "time": 51.30000000000066,
          "velocity": 0.7322834645669292,
          "duration": 0.29999999999999716
        },
        {
          "name": "G3",
          "midi": 55,
          "time": 51.600000000000655,
          "velocity": 0.7322834645669292,
          "duration": 2.2500000000002345
        },
        {
          "name": "F3",
          "midi": 53,
          "time": 54.00000000000091,
          "velocity": 0.6771653543307087,
          "duration": 0.29999999999999716
        },
        {
          "name": "G3",
          "midi": 55,
          "time": 54.30000000000091,
          "velocity": 0.6771653543307087,
          "duration": 0.600000000000044
        },
        {
          "name": "C4",
          "midi": 60,
          "time": 54.90000000000095,
          "velocity": 0.6771653543307087,
          "duration": 0.600000000000044
        },
        {
          "name": "G3",
          "midi": 55,
          "time": 55.500000000000995,
          "velocity": 0.6771653543307087,
          "duration": 0.5999999999999872
        },
        {
          "name": "F3",
          "midi": 53,
          "time": 56.400000000001015,
          "velocity": 0.6771653543307087,
          "duration": 0.29999999999999716
        },
        {
          "name": "G3",
          "midi": 55,
          "time": 56.70000000000101,
          "velocity": 0.6771653543307087,
          "duration": 0.600000000000044
        },
        {
          "name": "C4",
          "midi": 60,
          "time": 57.300000000001056,
          "velocity": 0.6771653543307087,
          "duration": 0.600000000000044
        },
        {
          "name": "G3",
          "midi": 55,
          "time": 57.9000000000011,
          "velocity": 0.6771653543307087,
          "duration": 0.5999999999999872
        },
        {
          "name": "F3",
          "midi": 53,
          "time": 58.80000000000111,
          "velocity": 0.7244094488188977,
          "duration": 0.29999999999999716
        },
        {
          "name": "G3",
          "midi": 55,
          "time": 59.10000000000111,
          "velocity": 0.7165354330708661,
          "duration": 0.29999999999999716
        },
        {
          "name": "F3",
          "midi": 53,
          "time": 59.40000000000111,
          "velocity": 0.7165354330708661,
          "duration": 0.29999999999999716
        },
        {
          "name": "A3",
          "midi": 57,
          "time": 59.700000000001104,
          "velocity": 0.6771653543307087,
          "duration": 1.0500000000000398
        },
        {
          "name": "A3",
          "midi": 57,
          "time": 60.90000000000114,
          "velocity": 0.6771653543307087,
          "duration": 0.3000000000000469
        },
        {
          "name": "G3",
          "midi": 55,
          "time": 61.20000000000119,
          "velocity": 0.7322834645669292,
          "duration": 1.985000000000241
        },
        {
          "name": "F4",
          "midi": 65,
          "time": 63.30000000000144,
          "velocity": 0.7322834645669292,
          "duration": 0.6000000000000156
        },
        {
          "name": "D4",
          "midi": 62,
          "time": 63.90500000000146,
          "velocity": 0.7007874015748031,
          "duration": 0.2949999999999946
        },
        {
          "name": "C4",
          "midi": 60,
          "time": 64.20000000000145,
          "velocity": 0.7007874015748031,
          "duration": 0.2950000000000017
        },
        {
          "name": "F4",
          "midi": 65,
          "time": 64.50000000000145,
          "velocity": 0.7322834645669292,
          "duration": 0.5999999999999943
        },
        {
          "name": "D4",
          "midi": 62,
          "time": 65.10000000000144,
          "velocity": 0.7007874015748031,
          "duration": 0.2950000000000017
        },
        {
          "name": "C4",
          "midi": 60,
          "time": 65.40000000000144,
          "velocity": 0.7007874015748031,
          "duration": 0.2950000000000017
        },
        {
          "name": "F4",
          "midi": 65,
          "time": 65.70000000000144,
          "velocity": 0.7322834645669292,
          "duration": 0.5999999999999233
        },
        {
          "name": "C4",
          "midi": 60,
          "time": 66.30000000000136,
          "velocity": 0.7322834645669292,
          "duration": 1.3500000000000227
        },
        {
          "name": "A3",
          "midi": 57,
          "time": 68.1000000000014,
          "velocity": 0.7322834645669292,
          "duration": 0.5999999999998664
        },
        {
          "name": "C4",
          "midi": 60,
          "time": 68.70000000000127,
          "velocity": 0.7322834645669292,
          "duration": 0.29999999999999716
        },
        {
          "name": "A3",
          "midi": 57,
          "time": 69.00000000000126,
          "velocity": 0.7322834645669292,
          "duration": 0.29999999999999716
        },
        {
          "name": "D4",
          "midi": 62,
          "time": 69.30000000000126,
          "velocity": 0.7322834645669292,
          "duration": 0.5999999999998664
        },
        {
          "name": "A3",
          "midi": 57,
          "time": 69.90000000000113,
          "velocity": 0.7322834645669292,
          "duration": 0.29999999999999716
        },
        {
          "name": "A3",
          "midi": 57,
          "time": 70.20000000000113,
          "velocity": 0.7322834645669292,
          "duration": 0.2999999999999545
        },
        {
          "name": "A3",
          "midi": 57,
          "time": 70.50000000000108,
          "velocity": 0.7322834645669292,
          "duration": 0.29999999999998295
        },
        {
          "name": "G3",
          "midi": 55,
          "time": 70.80000000000106,
          "velocity": 0.7322834645669292,
          "duration": 1.799999999999585
        },
        {
          "name": "F4",
          "midi": 65,
          "time": 72.90000000000056,
          "velocity": 0.7322834645669292,
          "duration": 0.5999999999999943
        },
        {
          "name": "D4",
          "midi": 62,
          "time": 73.50500000000055,
          "velocity": 0.7007874015748031,
          "duration": 0.2950000000000017
        },
        {
          "name": "C4",
          "midi": 60,
          "time": 73.80000000000055,
          "velocity": 0.7007874015748031,
          "duration": 0.2950000000000017
        },
        {
          "name": "F4",
          "midi": 65,
          "time": 74.10000000000055,
          "velocity": 0.7322834645669292,
          "duration": 0.5999999999999943
        },
        {
          "name": "D4",
          "midi": 62,
          "time": 74.70000000000054,
          "velocity": 0.7007874015748031,
          "duration": 0.2950000000000017
        },
        {
          "name": "C4",
          "midi": 60,
          "time": 75.00000000000054,
          "velocity": 0.7007874015748031,
          "duration": 0.2950000000000017
        },
        {
          "name": "F4",
          "midi": 65,
          "time": 75.30000000000054,
          "velocity": 0.7322834645669292,
          "duration": 0.5999999999999233
        },
        {
          "name": "C4",
          "midi": 60,
          "time": 75.90000000000046,
          "velocity": 0.7322834645669292,
          "duration": 1.3499999999999517
        },
        {
          "name": "A3",
          "midi": 57,
          "time": 77.70000000000034,
          "velocity": 0.7322834645669292,
          "duration": 0.5999999999998664
        },
        {
          "name": "C4",
          "midi": 60,
          "time": 78.30000000000021,
          "velocity": 0.7322834645669292,
          "duration": 0.29999999999999716
        },
        {
          "name": "C4",
          "midi": 60,
          "time": 78.60000000000021,
          "velocity": 0.7322834645669292,
          "duration": 0.29999999999999716
        },
        {
          "name": "A3",
          "midi": 57,
          "time": 78.9000000000002,
          "velocity": 0.7322834645669292,
          "duration": 0.29999999999999716
        },
        {
          "name": "A#3",
          "midi": 58,
          "time": 79.2000000000002,
          "velocity": 0.7322834645669292,
          "duration": 0.5999999999999375
        },
        {
          "name": "A3",
          "midi": 57,
          "time": 79.80000000000014,
          "velocity": 0.7322834645669292,
          "duration": 0.29999999999986926
        },
        {
          "name": "A3",
          "midi": 57,
          "time": 80.10000000000001,
          "velocity": 0.7322834645669292,
          "duration": 0.29999999999999716
        },
        {
          "name": "A3",
          "midi": 57,
          "time": 80.4,
          "velocity": 0.7322834645669292,
          "duration": 0.2999999999999403
        },
        {
          "name": "G3",
          "midi": 55,
          "time": 80.69999999999995,
          "velocity": 0.7322834645669292,
          "duration": 0.5999999999999517
        },
        {
          "name": "E3",
          "midi": 52,
          "time": 81.2999999999999,
          "velocity": 0.7322834645669292,
          "duration": 1.049999999999983
        },
        {
          "name": "A#3",
          "midi": 58,
          "time": 84.29999999999988,
          "velocity": 0.8031496062992126,
          "duration": 0.2999999999998977
        },
        {
          "name": "A#3",
          "midi": 58,
          "time": 84.59999999999978,
          "velocity": 0.8031496062992126,
          "duration": 0.29999999999999716
        },
        {
          "name": "E3",
          "midi": 52,
          "time": 84.89999999999978,
          "velocity": 0.8031496062992126,
          "duration": 0.29999999999999716
        },
        {
          "name": "A#3",
          "midi": 58,
          "time": 85.19999999999978,
          "velocity": 0.8031496062992126,
          "duration": 0.29999999999999716
        },
        {
          "name": "A#3",
          "midi": 58,
          "time": 85.49999999999977,
          "velocity": 0.8031496062992126,
          "duration": 0.29999999999999716
        },
        {
          "name": "A#3",
          "midi": 58,
          "time": 85.79999999999977,
          "velocity": 0.8031496062992126,
          "duration": 0.29999999999999716
        },
        {
          "name": "A#3",
          "midi": 58,
          "time": 86.09999999999977,
          "velocity": 0.8031496062992126,
          "duration": 0.2999999999999403
        },
        {
          "name": "A#3",
          "midi": 58,
          "time": 86.41499999999971,
          "velocity": 0.8031496062992126,
          "duration": 0.29999999999998295
        },
        {
          "name": "F#3",
          "midi": 54,
          "time": 86.70499999999969,
          "velocity": 0.6535433070866141,
          "duration": 0.6299999999999955
        },
        {
          "name": "F3",
          "midi": 53,
          "time": 106.79999999999967,
          "velocity": 0.8110236220472441,
          "duration": 0.29999999999999716
        },
        {
          "name": "G3",
          "midi": 55,
          "time": 107.09999999999967,
          "velocity": 0.8110236220472441,
          "duration": 0.19499999999999318
        },
        {
          "name": "F3",
          "midi": 53,
          "time": 107.39999999999966,
          "velocity": 0.8110236220472441,
          "duration": 0.29999999999999716
        },
        {
          "name": "C4",
          "midi": 60,
          "time": 107.69999999999966,
          "velocity": 0.8188976377952756,
          "duration": 0.5999999999999943
        },
        {
          "name": "A3",
          "midi": 57,
          "time": 108.29999999999966,
          "velocity": 0.8188976377952756,
          "duration": 0.5999999999999801
        },
        {
          "name": "C3",
          "midi": 48,
          "time": 109.04999999999964,
          "velocity": 0.8503937007874016,
          "duration": 0.15000000000000568
        },
        {
          "name": "F3",
          "midi": 53,
          "time": 109.19999999999965,
          "velocity": 0.8110236220472441,
          "duration": 0.29999999999999716
        },
        {
          "name": "G3",
          "midi": 55,
          "time": 109.49999999999964,
          "velocity": 0.8110236220472441,
          "duration": 0.2999999999999261
        },
        {
          "name": "F3",
          "midi": 53,
          "time": 109.79999999999957,
          "velocity": 0.8110236220472441,
          "duration": 0.29999999999999716
        },
        {
          "name": "C4",
          "midi": 60,
          "time": 110.09999999999957,
          "velocity": 0.8110236220472441,
          "duration": 0.6000000000000085
        },
        {
          "name": "A3",
          "midi": 57,
          "time": 110.69999999999958,
          "velocity": 0.8110236220472441,
          "duration": 0.5999999999999801
        },
        {
          "name": "F3",
          "midi": 53,
          "time": 111.59999999999955,
          "velocity": 0.8267716535433071,
          "duration": 0.29999999999999716
        },
        {
          "name": "G3",
          "midi": 55,
          "time": 111.89999999999955,
          "velocity": 0.8267716535433071,
          "duration": 0.29999999999999716
        },
        {
          "name": "F3",
          "midi": 53,
          "time": 112.19999999999955,
          "velocity": 0.8267716535433071,
          "duration": 0.29999999999999716
        },
        {
          "name": "G3",
          "midi": 55,
          "time": 112.49999999999955,
          "velocity": 0.8267716535433071,
          "duration": 0.5999999999999943
        },
        {
          "name": "A3",
          "midi": 57,
          "time": 113.09999999999954,
          "velocity": 0.8267716535433071,
          "duration": 0.599999999999909
        },
        {
          "name": "A3",
          "midi": 57,
          "time": 113.69999999999945,
          "velocity": 0.8267716535433071,
          "duration": 0.29999999999999716
        },
        {
          "name": "G3",
          "midi": 55,
          "time": 113.99999999999945,
          "velocity": 0.8267716535433071,
          "duration": 0.5999999999999801
        },
        {
          "name": "G3",
          "midi": 55,
          "time": 114.59999999999943,
          "velocity": 0.8267716535433071,
          "duration": 1.3649999999997817
        },
        {
          "name": "F3",
          "midi": 53,
          "time": 116.39999999999921,
          "velocity": 0.8188976377952756,
          "duration": 0.29999999999998295
        },
        {
          "name": "G3",
          "midi": 55,
          "time": 116.69999999999919,
          "velocity": 0.8267716535433071,
          "duration": 0.30999999999997385
        },
        {
          "name": "F3",
          "midi": 53,
          "time": 116.99999999999918,
          "velocity": 0.8267716535433071,
          "duration": 0.29999999999999716
        },
        {
          "name": "B3",
          "midi": 59,
          "time": 117.29999999999917,
          "velocity": 0.8267716535433071,
          "duration": 1.1249999999999716
        },
        {
          "name": "F3",
          "midi": 53,
          "time": 118.79999999999913,
          "velocity": 0.7244094488188977,
          "duration": 0.29999999999999716
        },
        {
          "name": "G3",
          "midi": 55,
          "time": 119.09999999999913,
          "velocity": 0.8661417322834646,
          "duration": 0.2999999999999261
        },
        {
          "name": "F3",
          "midi": 53,
          "time": 119.39999999999905,
          "velocity": 0.8661417322834646,
          "duration": 0.29999999999999716
        },
        {
          "name": "C4",
          "midi": 60,
          "time": 119.69999999999905,
          "velocity": 0.8661417322834646,
          "duration": 0.6000000000000085
        },
        {
          "name": "A3",
          "midi": 57,
          "time": 120.29999999999906,
          "velocity": 0.8661417322834646,
          "duration": 0.5999999999999801
        },
        {
          "name": "C3",
          "midi": 48,
          "time": 121.04999999999903,
          "velocity": 0.8267716535433071,
          "duration": 0.12000000000000455
        },
        {
          "name": "F3",
          "midi": 53,
          "time": 121.19999999999904,
          "velocity": 0.8267716535433071,
          "duration": 0.29999999999999716
        },
        {
          "name": "G3",
          "midi": 55,
          "time": 121.49999999999903,
          "velocity": 0.8582677165354331,
          "duration": 0.29999999999998295
        },
        {
          "name": "F3",
          "midi": 53,
          "time": 121.79999999999902,
          "velocity": 0.8582677165354331,
          "duration": 0.29999999999999716
        },
        {
          "name": "G3",
          "midi": 55,
          "time": 122.09999999999901,
          "velocity": 0.8582677165354331,
          "duration": 0.5999999999999943
        },
        {
          "name": "A3",
          "midi": 57,
          "time": 122.69999999999901,
          "velocity": 0.8582677165354331,
          "duration": 0.599999999999909
        },
        {
          "name": "A3",
          "midi": 57,
          "time": 123.29999999999892,
          "velocity": 0.8582677165354331,
          "duration": 0.29999999999996874
        },
        {
          "name": "G3",
          "midi": 55,
          "time": 123.59999999999889,
          "velocity": 0.8582677165354331,
          "duration": 0.5999999999999801
        },
        {
          "name": "G3",
          "midi": 55,
          "time": 124.19999999999887,
          "velocity": 0.8582677165354331,
          "duration": 1.499999999999858
        },
        {
          "name": "F3",
          "midi": 53,
          "time": 125.69999999999872,
          "velocity": 0.5511811023622047,
          "duration": 0.29999999999999716
        },
        {
          "name": "F3",
          "midi": 53,
          "time": 125.99999999999872,
          "velocity": 0.905511811023622,
          "duration": 0.29999999999999716
        },
        {
          "name": "G3",
          "midi": 55,
          "time": 126.29999999999872,
          "velocity": 0.905511811023622,
          "duration": 0.29999999999999716
        },
        {
          "name": "F3",
          "midi": 53,
          "time": 126.59999999999872,
          "velocity": 0.905511811023622,
          "duration": 0.29999999999999716
        },
        {
          "name": "C4",
          "midi": 60,
          "time": 126.89999999999871,
          "velocity": 0.905511811023622,
          "duration": 0.5999999999998806
        },
        {
          "name": "A3",
          "midi": 57,
          "time": 127.4999999999986,
          "velocity": 0.905511811023622,
          "duration": 0.5999999999999517
        },
        {
          "name": "F3",
          "midi": 53,
          "time": 128.39999999999856,
          "velocity": 0.8346456692913385,
          "duration": 0.30000000000001137
        },
        {
          "name": "G3",
          "midi": 55,
          "time": 128.69999999999857,
          "velocity": 0.8346456692913385,
          "duration": 0.29999999999984084
        },
        {
          "name": "F3",
          "midi": 53,
          "time": 128.9999999999984,
          "velocity": 0.8346456692913385,
          "duration": 0.30000000000001137
        },
        {
          "name": "C4",
          "midi": 60,
          "time": 129.29999999999842,
          "velocity": 0.84251968503937,
          "duration": 0.5999999999999943
        },
        {
          "name": "A3",
          "midi": 57,
          "time": 129.8999999999984,
          "velocity": 0.8582677165354331,
          "duration": 0.5999999999996248
        },
        {
          "name": "F3",
          "midi": 53,
          "time": 130.79999999999802,
          "velocity": 0.8110236220472441,
          "duration": 0.30000000000001137
        },
        {
          "name": "G3",
          "midi": 55,
          "time": 131.09999999999803,
          "velocity": 0.8110236220472441,
          "duration": 0.30000000000001137
        },
        {
          "name": "F3",
          "midi": 53,
          "time": 131.39999999999804,
          "velocity": 0.8110236220472441,
          "duration": 0.29999999999998295
        },
        {
          "name": "G3",
          "midi": 55,
          "time": 131.69999999999803,
          "velocity": 0.8110236220472441,
          "duration": 0.5999999999997954
        },
        {
          "name": "A3",
          "midi": 57,
          "time": 132.29999999999782,
          "velocity": 0.8031496062992126,
          "duration": 0.5999999999997954
        },
        {
          "name": "A3",
          "midi": 57,
          "time": 132.89999999999762,
          "velocity": 0.8031496062992126,
          "duration": 0.2999999999998977
        },
        {
          "name": "G3",
          "midi": 55,
          "time": 133.19999999999752,
          "velocity": 0.7952755905511811,
          "duration": 0.5999999999999659
        },
        {
          "name": "G3",
          "midi": 55,
          "time": 133.79999999999748,
          "velocity": 0.7952755905511811,
          "duration": 1.364999999998986
        },
        {
          "name": "F3",
          "midi": 53,
          "time": 135.5999999999964,
          "velocity": 0.905511811023622,
          "duration": 0.30000000000001137
        },
        {
          "name": "G3",
          "midi": 55,
          "time": 135.89999999999642,
          "velocity": 0.905511811023622,
          "duration": 0.30000000000001137
        },
        {
          "name": "F3",
          "midi": 53,
          "time": 136.19999999999644,
          "velocity": 0.905511811023622,
          "duration": 0.30000000000001137
        },
        {
          "name": "C4",
          "midi": 60,
          "time": 136.49999999999645,
          "velocity": 0.905511811023622,
          "duration": 0.5999999999997669
        },
        {
          "name": "A3",
          "midi": 57,
          "time": 137.09999999999621,
          "velocity": 0.905511811023622,
          "duration": 0.5999999999997669
        },
        {
          "name": "F3",
          "midi": 53,
          "time": 137.999999999996,
          "velocity": 0.8346456692913385,
          "duration": 0.30000000000001137
        },
        {
          "name": "G3",
          "midi": 55,
          "time": 138.299999999996,
          "velocity": 0.8346456692913385,
          "duration": 0.29999999999984084
        },
        {
          "name": "F3",
          "midi": 53,
          "time": 138.59999999999584,
          "velocity": 0.8346456692913385,
          "duration": 0.30000000000001137
        },
        {
          "name": "C4",
          "midi": 60,
          "time": 138.89999999999586,
          "velocity": 0.84251968503937,
          "duration": 0.5999999999999943
        },
        {
          "name": "A3",
          "midi": 57,
          "time": 139.49999999999585,
          "velocity": 0.8582677165354331,
          "duration": 0.5999999999996248
        },
        {
          "name": "F3",
          "midi": 53,
          "time": 140.39999999999546,
          "velocity": 0.8110236220472441,
          "duration": 0.30000000000001137
        },
        {
          "name": "G3",
          "midi": 55,
          "time": 140.69999999999547,
          "velocity": 0.8110236220472441,
          "duration": 0.30000000000001137
        },
        {
          "name": "F3",
          "midi": 53,
          "time": 140.99999999999548,
          "velocity": 0.8110236220472441,
          "duration": 0.29999999999998295
        },
        {
          "name": "G3",
          "midi": 55,
          "time": 141.29999999999546,
          "velocity": 0.8110236220472441,
          "duration": 0.5999999999997954
        },
        {
          "name": "A3",
          "midi": 57,
          "time": 141.89999999999526,
          "velocity": 0.8031496062992126,
          "duration": 0.5999999999997954
        },
        {
          "name": "A3",
          "midi": 57,
          "time": 142.49999999999505,
          "velocity": 0.8031496062992126,
          "duration": 0.2999999999998977
        },
        {
          "name": "G3",
          "midi": 55,
          "time": 142.79999999999495,
          "velocity": 0.7952755905511811,
          "duration": 0.5999999999999659
        },
        {
          "name": "G3",
          "midi": 55,
          "time": 143.39999999999492,
          "velocity": 0.7952755905511811,
          "duration": 1.3649999999990143
        },
        {
          "name": "A#3",
          "midi": 58,
          "time": 144.89999999999384,
          "velocity": 0.5354330708661418,
          "duration": 0.5999999999998522
        },
        {
          "name": "F4",
          "midi": 65,
          "time": 144.89999999999384,
          "velocity": 0.7322834645669292,
          "duration": 0.5999999999998522
        },
        {
          "name": "A3",
          "midi": 57,
          "time": 145.4999999999937,
          "velocity": 0.5354330708661418,
          "duration": 0.29999999999998295
        },
        {
          "name": "D4",
          "midi": 62,
          "time": 145.5049999999937,
          "velocity": 0.7007874015748031,
          "duration": 0.2949999999999875
        },
        {
          "name": "A3",
          "midi": 57,
          "time": 145.79999999999367,
          "velocity": 0.5354330708661418,
          "duration": 0.29999999999998295
        },
        {
          "name": "C4",
          "midi": 60,
          "time": 145.79999999999367,
          "velocity": 0.7007874015748031,
          "duration": 0.2949999999999875
        },
        {
          "name": "A#3",
          "midi": 58,
          "time": 146.09999999999366,
          "velocity": 0.5354330708661418,
          "duration": 0.5999999999999943
        },
        {
          "name": "F4",
          "midi": 65,
          "time": 146.09999999999366,
          "velocity": 0.7322834645669292,
          "duration": 0.5999999999999943
        },
        {
          "name": "A3",
          "midi": 57,
          "time": 146.69999999999365,
          "velocity": 0.5354330708661418,
          "duration": 0.29999999999998295
        },
        {
          "name": "D4",
          "midi": 62,
          "time": 146.69999999999365,
          "velocity": 0.7007874015748031,
          "duration": 0.2949999999999875
        },
        {
          "name": "A3",
          "midi": 57,
          "time": 146.99999999999363,
          "velocity": 0.5354330708661418,
          "duration": 0.29999999999998295
        },
        {
          "name": "C4",
          "midi": 60,
          "time": 146.99999999999363,
          "velocity": 0.7007874015748031,
          "duration": 0.2949999999999875
        },
        {
          "name": "A#3",
          "midi": 58,
          "time": 147.29999999999362,
          "velocity": 0.5354330708661418,
          "duration": 0.5999999999998238
        },
        {
          "name": "F4",
          "midi": 65,
          "time": 147.29999999999362,
          "velocity": 0.7322834645669292,
          "duration": 0.5999999999998238
        },
        {
          "name": "A3",
          "midi": 57,
          "time": 147.89999999999344,
          "velocity": 0.5354330708661418,
          "duration": 1.349999999999369
        },
        {
          "name": "C4",
          "midi": 60,
          "time": 147.89999999999344,
          "velocity": 0.7322834645669292,
          "duration": 1.349999999999369
        },
        {
          "name": "A3",
          "midi": 57,
          "time": 149.70499999999274,
          "velocity": 0.84251968503937,
          "duration": 0.3049999999999784
        },
        {
          "name": "A3",
          "midi": 57,
          "time": 149.99999999999272,
          "velocity": 0.84251968503937,
          "duration": 0.3049999999998647
        },
        {
          "name": "C4",
          "midi": 60,
          "time": 150.2999999999926,
          "velocity": 0.8346456692913385,
          "duration": 0.3049999999999784
        },
        {
          "name": "C4",
          "midi": 60,
          "time": 150.59999999999258,
          "velocity": 0.8346456692913385,
          "duration": 0.30499999999980787
        },
        {
          "name": "D4",
          "midi": 62,
          "time": 150.8999999999924,
          "velocity": 0.8503937007874016,
          "duration": 0.5999999999998238
        },
        {
          "name": "A3",
          "midi": 57,
          "time": 151.4999999999922,
          "velocity": 0.8503937007874016,
          "duration": 0.2999999999997556
        },
        {
          "name": "A3",
          "midi": 57,
          "time": 151.79999999999197,
          "velocity": 0.84251968503937,
          "duration": 0.29999999999972715
        },
        {
          "name": "A3",
          "midi": 57,
          "time": 152.0999999999917,
          "velocity": 0.8346456692913385,
          "duration": 0.29999999999998295
        },
        {
          "name": "G3",
          "midi": 55,
          "time": 152.39999999999168,
          "velocity": 0.8267716535433071,
          "duration": 1.9499999999990507
        },
        {
          "name": "A#3",
          "midi": 58,
          "time": 154.49999999999062,
          "velocity": 0.5354330708661418,
          "duration": 0.5999999999998522
        },
        {
          "name": "F4",
          "midi": 65,
          "time": 154.49999999999062,
          "velocity": 0.8267716535433071,
          "duration": 0.5999999999998522
        },
        {
          "name": "A3",
          "midi": 57,
          "time": 155.09999999999047,
          "velocity": 0.5354330708661418,
          "duration": 0.29999999999998295
        },
        {
          "name": "D4",
          "midi": 62,
          "time": 155.10499999999047,
          "velocity": 0.8110236220472441,
          "duration": 0.2949999999999875
        },
        {
          "name": "A3",
          "midi": 57,
          "time": 155.39999999999046,
          "velocity": 0.5354330708661418,
          "duration": 0.29999999999998295
        },
        {
          "name": "C4",
          "midi": 60,
          "time": 155.39999999999046,
          "velocity": 0.8110236220472441,
          "duration": 0.2949999999999875
        },
        {
          "name": "A#3",
          "midi": 58,
          "time": 155.69999999999044,
          "velocity": 0.5354330708661418,
          "duration": 0.5999999999999943
        },
        {
          "name": "F4",
          "midi": 65,
          "time": 155.69999999999044,
          "velocity": 0.8110236220472441,
          "duration": 0.5999999999999943
        },
        {
          "name": "A3",
          "midi": 57,
          "time": 156.29999999999043,
          "velocity": 0.5354330708661418,
          "duration": 0.29999999999998295
        },
        {
          "name": "D4",
          "midi": 62,
          "time": 156.29999999999043,
          "velocity": 0.8110236220472441,
          "duration": 0.2949999999999875
        },
        {
          "name": "A3",
          "midi": 57,
          "time": 156.59999999999042,
          "velocity": 0.5354330708661418,
          "duration": 0.29999999999998295
        },
        {
          "name": "C4",
          "midi": 60,
          "time": 156.59999999999042,
          "velocity": 0.8110236220472441,
          "duration": 0.2949999999999875
        },
        {
          "name": "A#3",
          "midi": 58,
          "time": 156.8999999999904,
          "velocity": 0.5354330708661418,
          "duration": 0.5999999999998238
        },
        {
          "name": "F4",
          "midi": 65,
          "time": 156.8999999999904,
          "velocity": 0.8110236220472441,
          "duration": 0.5999999999998238
        },
        {
          "name": "A3",
          "midi": 57,
          "time": 157.49999999999022,
          "velocity": 0.5354330708661418,
          "duration": 1.349999999999369
        },
        {
          "name": "C4",
          "midi": 60,
          "time": 157.49999999999022,
          "velocity": 0.8110236220472441,
          "duration": 1.349999999999369
        },
        {
          "name": "A3",
          "midi": 57,
          "time": 159.29999999998952,
          "velocity": 0.8740157480314961,
          "duration": 0.5999999999997101
        },
        {
          "name": "C4",
          "midi": 60,
          "time": 159.89999999998923,
          "velocity": 0.8740157480314961,
          "duration": 0.30000000000001137
        },
        {
          "name": "C4",
          "midi": 60,
          "time": 160.19999999998925,
          "velocity": 0.8740157480314961,
          "duration": 0.30000000000001137
        },
        {
          "name": "A3",
          "midi": 57,
          "time": 160.49999999998926,
          "velocity": 0.8661417322834646,
          "duration": 0.30000000000001137
        },
        {
          "name": "D4",
          "midi": 62,
          "time": 160.79999999998927,
          "velocity": 0.8661417322834646,
          "duration": 0.299999999999784
        },
        {
          "name": "A3",
          "midi": 57,
          "time": 161.09999999998905,
          "velocity": 0.8661417322834646,
          "duration": 0.30000000000001137
        },
        {
          "name": "A3",
          "midi": 57,
          "time": 161.39999999998906,
          "velocity": 0.8661417322834646,
          "duration": 0.30000000000001137
        },
        {
          "name": "A3",
          "midi": 57,
          "time": 161.69999999998907,
          "velocity": 0.8661417322834646,
          "duration": 0.30000000000001137
        },
        {
          "name": "G3",
          "midi": 55,
          "time": 161.9999999999891,
          "velocity": 0.8661417322834646,
          "duration": 1.2199999999996862
        },
        {
          "name": "F#3",
          "midi": 54,
          "time": 163.1999999999888,
          "velocity": 0.7322834645669292,
          "duration": 1.199999999999676
        },
        {
          "name": "A#3",
          "midi": 58,
          "time": 165.89999999998847,
          "velocity": 0.8031496062992126,
          "duration": 0.29999999999972715
        },
        {
          "name": "A#3",
          "midi": 58,
          "time": 166.1999999999882,
          "velocity": 0.8031496062992126,
          "duration": 0.29999999999998295
        },
        {
          "name": "A#3",
          "midi": 58,
          "time": 166.49999999998818,
          "velocity": 0.8031496062992126,
          "duration": 0.29999999999998295
        },
        {
          "name": "A#3",
          "midi": 58,
          "time": 166.79999999998816,
          "velocity": 0.8031496062992126,
          "duration": 0.30000000000001137
        },
        {
          "name": "A#3",
          "midi": 58,
          "time": 167.09999999998817,
          "velocity": 0.8031496062992126,
          "duration": 0.30000000000001137
        },
        {
          "name": "A#3",
          "midi": 58,
          "time": 167.39999999998818,
          "velocity": 0.8031496062992126,
          "duration": 0.29999999999998295
        },
        {
          "name": "A#3",
          "midi": 58,
          "time": 167.69999999998817,
          "velocity": 0.8031496062992126,
          "duration": 0.299999999999784
        },
        {
          "name": "A#3",
          "midi": 58,
          "time": 168.01499999998794,
          "velocity": 0.8031496062992126,
          "duration": 0.2999999999999261
        },
        {
          "name": "F#3",
          "midi": 54,
          "time": 168.30499999998787,
          "velocity": 0.6535433070866141,
          "duration": 0.6299999999995691
        },
        {
          "name": "C4",
          "midi": 60,
          "time": 188.99999999998744,
          "velocity": 0.7874015748031497,
          "duration": 0.299999999999784
        },
        {
          "name": "A4",
          "midi": 69,
          "time": 189.29999999998722,
          "velocity": 0.7874015748031497,
          "duration": 1.7999999999998408
        },
        {
          "name": "G4",
          "midi": 67,
          "time": 191.09999999998706,
          "velocity": 0.7874015748031497,
          "duration": 0.30000000000001137
        },
        {
          "name": "F4",
          "midi": 65,
          "time": 191.39999999998707,
          "velocity": 0.7874015748031497,
          "duration": 0.30000000000001137
        },
        {
          "name": "D4",
          "midi": 62,
          "time": 191.69999999998709,
          "velocity": 0.7874015748031497,
          "duration": 0.29999999999998295
        },
        {
          "name": "C4",
          "midi": 60,
          "time": 191.99999999998707,
          "velocity": 0.8267716535433071,
          "duration": 1.1999999999990791
        },
        {
          "name": "C4",
          "midi": 60,
          "time": 198.59999999998604,
          "velocity": 0.7874015748031497,
          "duration": 0.299999999999784
        },
        {
          "name": "A4",
          "midi": 69,
          "time": 198.89999999998582,
          "velocity": 0.7874015748031497,
          "duration": 1.7999999999996419
        },
        {
          "name": "G4",
          "midi": 67,
          "time": 200.69999999998547,
          "velocity": 0.7874015748031497,
          "duration": 0.30000000000001137
        },
        {
          "name": "F4",
          "midi": 65,
          "time": 200.99999999998548,
          "velocity": 0.7874015748031497,
          "duration": 0.29999999999998295
        },
        {
          "name": "D4",
          "midi": 62,
          "time": 201.29999999998546,
          "velocity": 0.7874015748031497,
          "duration": 0.2999999999998977
        },
        {
          "name": "C4",
          "midi": 60,
          "time": 201.59999999998536,
          "velocity": 0.8267716535433071,
          "duration": 2.0749999999986812
        },
        {
          "name": "C4",
          "midi": 60,
          "time": 208.19999999998385,
          "velocity": 0.7874015748031497,
          "duration": 0.299999999999784
        },
        {
          "name": "A4",
          "midi": 69,
          "time": 208.49999999998363,
          "velocity": 0.7874015748031497,
          "duration": 1.7999999999996419
        },
        {
          "name": "G4",
          "midi": 67,
          "time": 210.29999999998327,
          "velocity": 0.7874015748031497,
          "duration": 0.30000000000001137
        },
        {
          "name": "F4",
          "midi": 65,
          "time": 210.59999999998328,
          "velocity": 0.7874015748031497,
          "duration": 0.29999999999998295
        },
        {
          "name": "D4",
          "midi": 62,
          "time": 210.89999999998327,
          "velocity": 0.7874015748031497,
          "duration": 0.2999999999998977
        },
        {
          "name": "C4",
          "midi": 60,
          "time": 211.19999999998316,
          "velocity": 0.8267716535433071,
          "duration": 2.0749999999986812
        },
        {
          "name": "C4",
          "midi": 60,
          "time": 217.4999999999816,
          "velocity": 0.6850393700787402,
          "duration": 0.5999999999998522
        },
        {
          "name": "A4",
          "midi": 69,
          "time": 218.09999999998146,
          "velocity": 0.6771653543307087,
          "duration": 1.7999999999992724
        },
        {
          "name": "G4",
          "midi": 67,
          "time": 219.89999999998074,
          "velocity": 0.6850393700787402,
          "duration": 0.30000000000001137
        },
        {
          "name": "F4",
          "midi": 65,
          "time": 220.19999999998075,
          "velocity": 0.6850393700787402,
          "duration": 0.29999999999998295
        },
        {
          "name": "D4",
          "midi": 62,
          "time": 220.49999999998073,
          "velocity": 0.6692913385826772,
          "duration": 0.2999999999998977
        },
        {
          "name": "C4",
          "midi": 60,
          "time": 220.79999999998063,
          "velocity": 0.6692913385826772,
          "duration": 2.0749999999986812
        }
      ],
      "controlChanges": {
        "1": [
          {
            "number": 1,
            "time": 45.91000000000041,
            "value": 0.07874015748031496
          },
          {
            "number": 1,
            "time": 45.92000000000041,
            "value": 0.08661417322834646
          },
          {
            "number": 1,
            "time": 45.92500000000041,
            "value": 0.09448818897637795
          },
          {
            "number": 1,
            "time": 45.96500000000041,
            "value": 0.14173228346456693
          },
          {
            "number": 1,
            "time": 45.97000000000041,
            "value": 0.15748031496062992
          },
          {
            "number": 1,
            "time": 46.005000000000415,
            "value": 0.1732283464566929
          },
          {
            "number": 1,
            "time": 46.01000000000042,
            "value": 0.2204724409448819
          },
          {
            "number": 1,
            "time": 46.02500000000042,
            "value": 0.23622047244094488
          },
          {
            "number": 1,
            "time": 46.035000000000416,
            "value": 0.29133858267716534
          },
          {
            "number": 1,
            "time": 46.04500000000042,
            "value": 0.33858267716535434
          },
          {
            "number": 1,
            "time": 46.05500000000042,
            "value": 0.3543307086614173
          },
          {
            "number": 1,
            "time": 46.06000000000042,
            "value": 0.3700787401574803
          },
          {
            "number": 1,
            "time": 46.07000000000042,
            "value": 0.3858267716535433
          },
          {
            "number": 1,
            "time": 46.08500000000042,
            "value": 0.4015748031496063
          },
          {
            "number": 1,
            "time": 46.09500000000042,
            "value": 0.41732283464566927
          },
          {
            "number": 1,
            "time": 46.10500000000042,
            "value": 0.4330708661417323
          },
          {
            "number": 1,
            "time": 46.14500000000042,
            "value": 0.48031496062992124
          },
          {
            "number": 1,
            "time": 46.150000000000425,
            "value": 0.4881889763779528
          },
          {
            "number": 1,
            "time": 46.185000000000436,
            "value": 0.5354330708661418
          },
          {
            "number": 1,
            "time": 46.19000000000044,
            "value": 0.5511811023622047
          },
          {
            "number": 1,
            "time": 46.225000000000435,
            "value": 0.5669291338582677
          },
          {
            "number": 1,
            "time": 46.23500000000043,
            "value": 0.5826771653543307
          },
          {
            "number": 1,
            "time": 46.27000000000044,
            "value": 0.5984251968503937
          },
          {
            "number": 1,
            "time": 46.27500000000044,
            "value": 0.6062992125984252
          },
          {
            "number": 1,
            "time": 46.28000000000044,
            "value": 0.6141732283464567
          },
          {
            "number": 1,
            "time": 46.29500000000044,
            "value": 0.6299212598425197
          },
          {
            "number": 1,
            "time": 46.300000000000445,
            "value": 0.6377952755905512
          },
          {
            "number": 1,
            "time": 46.31500000000045,
            "value": 0.6456692913385826
          },
          {
            "number": 1,
            "time": 46.32500000000045,
            "value": 0.6614173228346457
          },
          {
            "number": 1,
            "time": 46.360000000000454,
            "value": 0.6692913385826772
          },
          {
            "number": 1,
            "time": 46.36500000000046,
            "value": 0.6771653543307087
          },
          {
            "number": 1,
            "time": 46.37000000000046,
            "value": 0.6929133858267716
          },
          {
            "number": 1,
            "time": 46.38500000000046,
            "value": 0.7007874015748031
          },
          {
            "number": 1,
            "time": 46.39000000000046,
            "value": 0.7086614173228346
          },
          {
            "number": 1,
            "time": 46.42500000000047,
            "value": 0.7165354330708661
          },
          {
            "number": 1,
            "time": 46.430000000000476,
            "value": 0.7244094488188977
          },
          {
            "number": 1,
            "time": 46.45000000000048,
            "value": 0.7322834645669292
          },
          {
            "number": 1,
            "time": 46.45500000000048,
            "value": 0.7401574803149606
          },
          {
            "number": 1,
            "time": 46.49500000000048,
            "value": 0.7559055118110236
          },
          {
            "number": 1,
            "time": 46.51000000000048,
            "value": 0.7637795275590551
          },
          {
            "number": 1,
            "time": 46.52000000000048,
            "value": 0.7716535433070866
          },
          {
            "number": 1,
            "time": 46.52500000000048,
            "value": 0.7795275590551181
          },
          {
            "number": 1,
            "time": 46.59500000000048,
            "value": 0
          },
          {
            "number": 1,
            "time": 52.800000000000786,
            "value": 0.03937007874015748
          },
          {
            "number": 1,
            "time": 52.81000000000079,
            "value": 0.05511811023622047
          },
          {
            "number": 1,
            "time": 52.81500000000079,
            "value": 0.06299212598425197
          },
          {
            "number": 1,
            "time": 52.820000000000796,
            "value": 0.07086614173228346
          },
          {
            "number": 1,
            "time": 52.8250000000008,
            "value": 0.09448818897637795
          },
          {
            "number": 1,
            "time": 52.8400000000008,
            "value": 0.11023622047244094
          },
          {
            "number": 1,
            "time": 52.8450000000008,
            "value": 0.12598425196850394
          },
          {
            "number": 1,
            "time": 52.850000000000804,
            "value": 0.14173228346456693
          },
          {
            "number": 1,
            "time": 52.86000000000081,
            "value": 0.15748031496062992
          },
          {
            "number": 1,
            "time": 52.870000000000815,
            "value": 0.16535433070866143
          },
          {
            "number": 1,
            "time": 52.87500000000082,
            "value": 0.18110236220472442
          },
          {
            "number": 1,
            "time": 52.885000000000815,
            "value": 0.1889763779527559
          },
          {
            "number": 1,
            "time": 52.89000000000082,
            "value": 0.1968503937007874
          },
          {
            "number": 1,
            "time": 52.90000000000082,
            "value": 0.2440944881889764
          },
          {
            "number": 1,
            "time": 52.91000000000082,
            "value": 0.25196850393700787
          },
          {
            "number": 1,
            "time": 52.91500000000082,
            "value": 0.2992125984251969
          },
          {
            "number": 1,
            "time": 52.930000000000824,
            "value": 0.30708661417322836
          },
          {
            "number": 1,
            "time": 52.96500000000083,
            "value": 0.3543307086614173
          },
          {
            "number": 1,
            "time": 52.97500000000083,
            "value": 0.36220472440944884
          },
          {
            "number": 1,
            "time": 52.99000000000083,
            "value": 0.3779527559055118
          },
          {
            "number": 1,
            "time": 53.02500000000084,
            "value": 0.3858267716535433
          },
          {
            "number": 1,
            "time": 53.035000000000835,
            "value": 0.4015748031496063
          },
          {
            "number": 1,
            "time": 53.07000000000084,
            "value": 0.41732283464566927
          },
          {
            "number": 1,
            "time": 53.08500000000084,
            "value": 0.4251968503937008
          },
          {
            "number": 1,
            "time": 53.12000000000084,
            "value": 0.4409448818897638
          },
          {
            "number": 1,
            "time": 53.15500000000085,
            "value": 0.4566929133858268
          },
          {
            "number": 1,
            "time": 53.16000000000085,
            "value": 0.4645669291338583
          },
          {
            "number": 1,
            "time": 53.20000000000085,
            "value": 0.48031496062992124
          },
          {
            "number": 1,
            "time": 53.235000000000845,
            "value": 0.4881889763779528
          },
          {
            "number": 1,
            "time": 53.24000000000085,
            "value": 0.5039370078740157
          },
          {
            "number": 1,
            "time": 53.27500000000085,
            "value": 0.5118110236220472
          },
          {
            "number": 1,
            "time": 53.280000000000854,
            "value": 0.5196850393700787
          },
          {
            "number": 1,
            "time": 53.32000000000085,
            "value": 0.5275590551181102
          },
          {
            "number": 1,
            "time": 53.325000000000855,
            "value": 0.5354330708661418
          },
          {
            "number": 1,
            "time": 53.36000000000086,
            "value": 0.5433070866141733
          },
          {
            "number": 1,
            "time": 53.370000000000864,
            "value": 0.5511811023622047
          },
          {
            "number": 1,
            "time": 53.385000000000865,
            "value": 0.5590551181102362
          },
          {
            "number": 1,
            "time": 53.39500000000086,
            "value": 0.5748031496062992
          },
          {
            "number": 1,
            "time": 53.43000000000086,
            "value": 0.5826771653543307
          },
          {
            "number": 1,
            "time": 53.47000000000086,
            "value": 0.5905511811023622
          },
          {
            "number": 1,
            "time": 53.47500000000086,
            "value": 0.5984251968503937
          },
          {
            "number": 1,
            "time": 53.51000000000086,
            "value": 0.6062992125984252
          },
          {
            "number": 1,
            "time": 53.520000000000856,
            "value": 0.6141732283464567
          },
          {
            "number": 1,
            "time": 53.535000000000856,
            "value": 0.6299212598425197
          },
          {
            "number": 1,
            "time": 53.54000000000086,
            "value": 0.6377952755905512
          },
          {
            "number": 1,
            "time": 53.56500000000086,
            "value": 0.6535433070866141
          },
          {
            "number": 1,
            "time": 53.57500000000086,
            "value": 0.6614173228346457
          },
          {
            "number": 1,
            "time": 53.59000000000086,
            "value": 0.6771653543307087
          },
          {
            "number": 1,
            "time": 53.605000000000864,
            "value": 0.6850393700787402
          },
          {
            "number": 1,
            "time": 53.610000000000866,
            "value": 0.6929133858267716
          },
          {
            "number": 1,
            "time": 53.62500000000087,
            "value": 0.7007874015748031
          },
          {
            "number": 1,
            "time": 53.63500000000087,
            "value": 0.7086614173228346
          },
          {
            "number": 1,
            "time": 53.65500000000087,
            "value": 0.7165354330708661
          },
          {
            "number": 1,
            "time": 53.665000000000866,
            "value": 0.7244094488188977
          },
          {
            "number": 1,
            "time": 53.68500000000087,
            "value": 0.7322834645669292
          },
          {
            "number": 1,
            "time": 53.70000000000087,
            "value": 0.7401574803149606
          },
          {
            "number": 1,
            "time": 53.740000000000876,
            "value": 0.7322834645669292
          },
          {
            "number": 1,
            "time": 53.74500000000088,
            "value": 0.7244094488188977
          },
          {
            "number": 1,
            "time": 53.75500000000088,
            "value": 0.6614173228346457
          },
          {
            "number": 1,
            "time": 53.77000000000088,
            "value": 0.6456692913385826
          },
          {
            "number": 1,
            "time": 53.78000000000088,
            "value": 0.5984251968503937
          },
          {
            "number": 1,
            "time": 53.785000000000885,
            "value": 0.5511811023622047
          },
          {
            "number": 1,
            "time": 53.800000000000885,
            "value": 0.5039370078740157
          },
          {
            "number": 1,
            "time": 53.80500000000089,
            "value": 0.4566929133858268
          },
          {
            "number": 1,
            "time": 53.81000000000089,
            "value": 0.3937007874015748
          },
          {
            "number": 1,
            "time": 53.82000000000089,
            "value": 0.3464566929133858
          },
          {
            "number": 1,
            "time": 53.83000000000089,
            "value": 0.28346456692913385
          },
          {
            "number": 1,
            "time": 53.83500000000089,
            "value": 0.23622047244094488
          },
          {
            "number": 1,
            "time": 53.84500000000089,
            "value": 0.1889763779527559
          },
          {
            "number": 1,
            "time": 53.85000000000089,
            "value": 0.1732283464566929
          },
          {
            "number": 1,
            "time": 53.86000000000089,
            "value": 0.15748031496062992
          },
          {
            "number": 1,
            "time": 53.86500000000089,
            "value": 0.14173228346456693
          },
          {
            "number": 1,
            "time": 53.87000000000089,
            "value": 0.12598425196850394
          },
          {
            "number": 1,
            "time": 53.875000000000895,
            "value": 0.11023622047244094
          },
          {
            "number": 1,
            "time": 53.8800000000009,
            "value": 0.09448818897637795
          },
          {
            "number": 1,
            "time": 53.890000000000896,
            "value": 0.07874015748031496
          },
          {
            "number": 1,
            "time": 53.8950000000009,
            "value": 0.06299212598425197
          },
          {
            "number": 1,
            "time": 53.9000000000009,
            "value": 0.047244094488188976
          },
          {
            "number": 1,
            "time": 53.9050000000009,
            "value": 0.023622047244094488
          },
          {
            "number": 1,
            "time": 53.920000000000904,
            "value": 0.007874015748031496
          },
          {
            "number": 1,
            "time": 53.92500000000091,
            "value": 0
          },
          {
            "number": 1,
            "time": 54.910000000000956,
            "value": 0.015748031496062992
          },
          {
            "number": 1,
            "time": 54.91500000000096,
            "value": 0.023622047244094488
          },
          {
            "number": 1,
            "time": 54.92000000000096,
            "value": 0.031496062992125984
          },
          {
            "number": 1,
            "time": 54.92500000000096,
            "value": 0.047244094488188976
          },
          {
            "number": 1,
            "time": 54.93500000000096,
            "value": 0.05511811023622047
          },
          {
            "number": 1,
            "time": 54.940000000000964,
            "value": 0.06299212598425197
          },
          {
            "number": 1,
            "time": 54.94500000000097,
            "value": 0.07874015748031496
          },
          {
            "number": 1,
            "time": 54.95000000000097,
            "value": 0.10236220472440945
          },
          {
            "number": 1,
            "time": 54.95500000000097,
            "value": 0.11023622047244094
          },
          {
            "number": 1,
            "time": 54.96500000000097,
            "value": 0.11811023622047244
          },
          {
            "number": 1,
            "time": 54.97000000000097,
            "value": 0.12598425196850394
          },
          {
            "number": 1,
            "time": 54.975000000000975,
            "value": 0.14173228346456693
          },
          {
            "number": 1,
            "time": 54.98000000000098,
            "value": 0.14960629921259844
          },
          {
            "number": 1,
            "time": 54.98500000000098,
            "value": 0.15748031496062992
          },
          {
            "number": 1,
            "time": 54.99500000000098,
            "value": 0.16535433070866143
          },
          {
            "number": 1,
            "time": 55.00000000000098,
            "value": 0.1732283464566929
          },
          {
            "number": 1,
            "time": 55.00500000000098,
            "value": 0.18110236220472442
          },
          {
            "number": 1,
            "time": 55.025000000000986,
            "value": 0.1889763779527559
          },
          {
            "number": 1,
            "time": 55.035000000000984,
            "value": 0.1968503937007874
          },
          {
            "number": 1,
            "time": 55.04500000000098,
            "value": 0.2047244094488189
          },
          {
            "number": 1,
            "time": 55.05500000000098,
            "value": 0.2125984251968504
          },
          {
            "number": 1,
            "time": 55.07000000000098,
            "value": 0.2283464566929134
          },
          {
            "number": 1,
            "time": 55.07500000000098,
            "value": 0.25196850393700787
          },
          {
            "number": 1,
            "time": 55.08500000000098,
            "value": 0.2677165354330709
          },
          {
            "number": 1,
            "time": 55.090000000000984,
            "value": 0.2992125984251969
          },
          {
            "number": 1,
            "time": 55.09500000000099,
            "value": 0.3543307086614173
          },
          {
            "number": 1,
            "time": 55.10000000000099,
            "value": 0.3858267716535433
          },
          {
            "number": 1,
            "time": 55.11500000000099,
            "value": 0.41732283464566927
          },
          {
            "number": 1,
            "time": 55.12000000000099,
            "value": 0.48031496062992124
          },
          {
            "number": 1,
            "time": 55.125000000000995,
            "value": 0.49606299212598426
          },
          {
            "number": 1,
            "time": 55.130000000001,
            "value": 0.5118110236220472
          },
          {
            "number": 1,
            "time": 55.135000000001,
            "value": 0.5590551181102362
          },
          {
            "number": 1,
            "time": 55.145000000001,
            "value": 0.5905511811023622
          },
          {
            "number": 1,
            "time": 55.150000000001,
            "value": 0.6062992125984252
          },
          {
            "number": 1,
            "time": 55.160000000001,
            "value": 0.6220472440944882
          },
          {
            "number": 1,
            "time": 55.165000000001,
            "value": 0.6377952755905512
          },
          {
            "number": 1,
            "time": 55.175000000001,
            "value": 0.6535433070866141
          },
          {
            "number": 1,
            "time": 55.180000000001,
            "value": 0.6692913385826772
          },
          {
            "number": 1,
            "time": 55.185000000001004,
            "value": 0.7165354330708661
          },
          {
            "number": 1,
            "time": 55.19000000000101,
            "value": 0.7322834645669292
          },
          {
            "number": 1,
            "time": 55.19500000000101,
            "value": 0.7480314960629921
          },
          {
            "number": 1,
            "time": 55.20500000000101,
            "value": 0.7952755905511811
          },
          {
            "number": 1,
            "time": 55.21000000000101,
            "value": 0.8031496062992126
          },
          {
            "number": 1,
            "time": 55.21500000000101,
            "value": 0.8346456692913385
          },
          {
            "number": 1,
            "time": 55.220000000001015,
            "value": 0.8582677165354331
          },
          {
            "number": 1,
            "time": 55.22500000000102,
            "value": 0.8661417322834646
          },
          {
            "number": 1,
            "time": 55.235000000001016,
            "value": 0.905511811023622
          },
          {
            "number": 1,
            "time": 55.24000000000102,
            "value": 0.9133858267716536
          },
          {
            "number": 1,
            "time": 55.31000000000102,
            "value": 0.9212598425196851
          },
          {
            "number": 1,
            "time": 55.32500000000102,
            "value": 0.8110236220472441
          },
          {
            "number": 1,
            "time": 55.33500000000102,
            "value": 0.7637795275590551
          },
          {
            "number": 1,
            "time": 55.345000000001015,
            "value": 0.7165354330708661
          },
          {
            "number": 1,
            "time": 55.35500000000101,
            "value": 0.6692913385826772
          },
          {
            "number": 1,
            "time": 55.39000000000101,
            "value": 0.6062992125984252
          },
          {
            "number": 1,
            "time": 55.39500000000101,
            "value": 0.5433070866141733
          },
          {
            "number": 1,
            "time": 55.40500000000101,
            "value": 0.48031496062992124
          },
          {
            "number": 1,
            "time": 55.41500000000101,
            "value": 0.4015748031496063
          },
          {
            "number": 1,
            "time": 55.425000000001006,
            "value": 0.3228346456692913
          },
          {
            "number": 1,
            "time": 55.435000000001004,
            "value": 0.2283464566929134
          },
          {
            "number": 1,
            "time": 55.445000000001,
            "value": 0.14960629921259844
          },
          {
            "number": 1,
            "time": 55.480000000001,
            "value": 0.07086614173228346
          },
          {
            "number": 1,
            "time": 55.490000000001,
            "value": 0.007874015748031496
          },
          {
            "number": 1,
            "time": 55.505000000001,
            "value": 0
          },
          {
            "number": 1,
            "time": 57.31000000000106,
            "value": 0.015748031496062992
          },
          {
            "number": 1,
            "time": 57.31500000000106,
            "value": 0.023622047244094488
          },
          {
            "number": 1,
            "time": 57.320000000001066,
            "value": 0.031496062992125984
          },
          {
            "number": 1,
            "time": 57.32500000000107,
            "value": 0.047244094488188976
          },
          {
            "number": 1,
            "time": 57.33500000000107,
            "value": 0.05511811023622047
          },
          {
            "number": 1,
            "time": 57.34000000000107,
            "value": 0.06299212598425197
          },
          {
            "number": 1,
            "time": 57.34500000000107,
            "value": 0.07874015748031496
          },
          {
            "number": 1,
            "time": 57.350000000001074,
            "value": 0.10236220472440945
          },
          {
            "number": 1,
            "time": 57.35500000000108,
            "value": 0.11023622047244094
          },
          {
            "number": 1,
            "time": 57.365000000001075,
            "value": 0.11811023622047244
          },
          {
            "number": 1,
            "time": 57.37000000000108,
            "value": 0.12598425196850394
          },
          {
            "number": 1,
            "time": 57.37500000000108,
            "value": 0.14173228346456693
          },
          {
            "number": 1,
            "time": 57.38000000000108,
            "value": 0.14960629921259844
          },
          {
            "number": 1,
            "time": 57.385000000001085,
            "value": 0.15748031496062992
          },
          {
            "number": 1,
            "time": 57.39500000000108,
            "value": 0.16535433070866143
          },
          {
            "number": 1,
            "time": 57.400000000001086,
            "value": 0.1732283464566929
          },
          {
            "number": 1,
            "time": 57.40500000000109,
            "value": 0.18110236220472442
          },
          {
            "number": 1,
            "time": 57.42500000000109,
            "value": 0.1889763779527559
          },
          {
            "number": 1,
            "time": 57.43500000000109,
            "value": 0.1968503937007874
          },
          {
            "number": 1,
            "time": 57.44500000000109,
            "value": 0.2047244094488189
          },
          {
            "number": 1,
            "time": 57.455000000001085,
            "value": 0.2125984251968504
          },
          {
            "number": 1,
            "time": 57.470000000001086,
            "value": 0.2283464566929134
          },
          {
            "number": 1,
            "time": 57.47500000000109,
            "value": 0.25196850393700787
          },
          {
            "number": 1,
            "time": 57.48500000000109,
            "value": 0.2677165354330709
          },
          {
            "number": 1,
            "time": 57.49000000000109,
            "value": 0.2992125984251969
          },
          {
            "number": 1,
            "time": 57.49500000000109,
            "value": 0.3543307086614173
          },
          {
            "number": 1,
            "time": 57.500000000001094,
            "value": 0.3858267716535433
          },
          {
            "number": 1,
            "time": 57.515000000001095,
            "value": 0.41732283464566927
          },
          {
            "number": 1,
            "time": 57.5200000000011,
            "value": 0.48031496062992124
          },
          {
            "number": 1,
            "time": 57.5250000000011,
            "value": 0.49606299212598426
          },
          {
            "number": 1,
            "time": 57.5300000000011,
            "value": 0.5118110236220472
          },
          {
            "number": 1,
            "time": 57.535000000001105,
            "value": 0.5590551181102362
          },
          {
            "number": 1,
            "time": 57.5450000000011,
            "value": 0.5905511811023622
          },
          {
            "number": 1,
            "time": 57.550000000001106,
            "value": 0.6062992125984252
          },
          {
            "number": 1,
            "time": 57.560000000001104,
            "value": 0.6220472440944882
          },
          {
            "number": 1,
            "time": 57.565000000001106,
            "value": 0.6377952755905512
          },
          {
            "number": 1,
            "time": 57.575000000001104,
            "value": 0.6535433070866141
          },
          {
            "number": 1,
            "time": 57.58000000000111,
            "value": 0.6692913385826772
          },
          {
            "number": 1,
            "time": 57.58500000000111,
            "value": 0.7165354330708661
          },
          {
            "number": 1,
            "time": 57.59000000000111,
            "value": 0.7322834645669292
          },
          {
            "number": 1,
            "time": 57.595000000001114,
            "value": 0.7480314960629921
          },
          {
            "number": 1,
            "time": 57.60500000000111,
            "value": 0.7952755905511811
          },
          {
            "number": 1,
            "time": 57.610000000001115,
            "value": 0.8031496062992126
          },
          {
            "number": 1,
            "time": 57.61500000000112,
            "value": 0.8346456692913385
          },
          {
            "number": 1,
            "time": 57.62000000000112,
            "value": 0.8582677165354331
          },
          {
            "number": 1,
            "time": 57.62500000000112,
            "value": 0.8661417322834646
          },
          {
            "number": 1,
            "time": 57.63500000000112,
            "value": 0.905511811023622
          },
          {
            "number": 1,
            "time": 57.64000000000112,
            "value": 0.9133858267716536
          },
          {
            "number": 1,
            "time": 57.71000000000112,
            "value": 0.9212598425196851
          },
          {
            "number": 1,
            "time": 57.725000000001124,
            "value": 0.8110236220472441
          },
          {
            "number": 1,
            "time": 57.73500000000112,
            "value": 0.7637795275590551
          },
          {
            "number": 1,
            "time": 57.74500000000112,
            "value": 0.7165354330708661
          },
          {
            "number": 1,
            "time": 57.75500000000112,
            "value": 0.6692913385826772
          },
          {
            "number": 1,
            "time": 57.790000000001115,
            "value": 0.6062992125984252
          },
          {
            "number": 1,
            "time": 57.79500000000112,
            "value": 0.5433070866141733
          },
          {
            "number": 1,
            "time": 57.805000000001115,
            "value": 0.48031496062992124
          },
          {
            "number": 1,
            "time": 57.81500000000111,
            "value": 0.4015748031496063
          },
          {
            "number": 1,
            "time": 57.82500000000111,
            "value": 0.3228346456692913
          },
          {
            "number": 1,
            "time": 57.83500000000111,
            "value": 0.2283464566929134
          },
          {
            "number": 1,
            "time": 57.84500000000111,
            "value": 0.14960629921259844
          },
          {
            "number": 1,
            "time": 57.880000000001104,
            "value": 0.07086614173228346
          },
          {
            "number": 1,
            "time": 57.8900000000011,
            "value": 0.007874015748031496
          },
          {
            "number": 1,
            "time": 57.9050000000011,
            "value": 0
          },
          {
            "number": 1,
            "time": 62.40000000000132,
            "value": 0.03937007874015748
          },
          {
            "number": 1,
            "time": 62.410000000001325,
            "value": 0.05511811023622047
          },
          {
            "number": 1,
            "time": 62.41500000000133,
            "value": 0.06299212598425197
          },
          {
            "number": 1,
            "time": 62.42000000000133,
            "value": 0.07086614173228346
          },
          {
            "number": 1,
            "time": 62.42500000000133,
            "value": 0.09448818897637795
          },
          {
            "number": 1,
            "time": 62.44000000000133,
            "value": 0.11023622047244094
          },
          {
            "number": 1,
            "time": 62.445000000001336,
            "value": 0.12598425196850394
          },
          {
            "number": 1,
            "time": 62.45000000000134,
            "value": 0.14173228346456693
          },
          {
            "number": 1,
            "time": 62.460000000001344,
            "value": 0.15748031496062992
          },
          {
            "number": 1,
            "time": 62.47000000000135,
            "value": 0.16535433070866143
          },
          {
            "number": 1,
            "time": 62.47500000000135,
            "value": 0.18110236220472442
          },
          {
            "number": 1,
            "time": 62.48500000000135,
            "value": 0.1889763779527559
          },
          {
            "number": 1,
            "time": 62.49000000000135,
            "value": 0.1968503937007874
          },
          {
            "number": 1,
            "time": 62.50000000000136,
            "value": 0.2440944881889764
          },
          {
            "number": 1,
            "time": 62.510000000001355,
            "value": 0.25196850393700787
          },
          {
            "number": 1,
            "time": 62.51500000000136,
            "value": 0.2992125984251969
          },
          {
            "number": 1,
            "time": 62.53000000000136,
            "value": 0.30708661417322836
          },
          {
            "number": 1,
            "time": 62.56500000000136,
            "value": 0.3543307086614173
          },
          {
            "number": 1,
            "time": 62.57500000000137,
            "value": 0.36220472440944884
          },
          {
            "number": 1,
            "time": 62.59000000000137,
            "value": 0.3779527559055118
          },
          {
            "number": 1,
            "time": 62.62500000000137,
            "value": 0.3858267716535433
          },
          {
            "number": 1,
            "time": 62.63500000000137,
            "value": 0.4015748031496063
          },
          {
            "number": 1,
            "time": 62.67000000000137,
            "value": 0.41732283464566927
          },
          {
            "number": 1,
            "time": 62.685000000001374,
            "value": 0.4251968503937008
          },
          {
            "number": 1,
            "time": 62.72000000000138,
            "value": 0.4409448818897638
          },
          {
            "number": 1,
            "time": 62.75500000000138,
            "value": 0.4566929133858268
          },
          {
            "number": 1,
            "time": 62.760000000001384,
            "value": 0.4645669291338583
          },
          {
            "number": 1,
            "time": 62.80000000000138,
            "value": 0.48031496062992124
          },
          {
            "number": 1,
            "time": 62.83500000000138,
            "value": 0.4881889763779528
          },
          {
            "number": 1,
            "time": 62.84000000000138,
            "value": 0.5039370078740157
          },
          {
            "number": 1,
            "time": 62.875000000001386,
            "value": 0.5118110236220472
          },
          {
            "number": 1,
            "time": 62.88000000000139,
            "value": 0.5196850393700787
          },
          {
            "number": 1,
            "time": 62.92000000000139,
            "value": 0.5275590551181102
          },
          {
            "number": 1,
            "time": 62.92500000000139,
            "value": 0.5354330708661418
          },
          {
            "number": 1,
            "time": 62.96000000000139,
            "value": 0.5433070866141733
          },
          {
            "number": 1,
            "time": 62.9700000000014,
            "value": 0.5511811023622047
          },
          {
            "number": 1,
            "time": 62.9850000000014,
            "value": 0.5590551181102362
          },
          {
            "number": 1,
            "time": 62.9950000000014,
            "value": 0.5748031496062992
          },
          {
            "number": 1,
            "time": 63.0300000000014,
            "value": 0.5826771653543307
          },
          {
            "number": 1,
            "time": 63.070000000001414,
            "value": 0.5905511811023622
          },
          {
            "number": 1,
            "time": 63.07500000000142,
            "value": 0.5984251968503937
          },
          {
            "number": 1,
            "time": 63.11000000000142,
            "value": 0.6062992125984252
          },
          {
            "number": 1,
            "time": 63.120000000001426,
            "value": 0.6141732283464567
          },
          {
            "number": 1,
            "time": 63.135000000001426,
            "value": 0.6299212598425197
          },
          {
            "number": 1,
            "time": 63.14000000000143,
            "value": 0.6377952755905512
          },
          {
            "number": 1,
            "time": 63.16500000000143,
            "value": 0.6535433070866141
          },
          {
            "number": 1,
            "time": 63.175000000001425,
            "value": 0.6614173228346457
          },
          {
            "number": 1,
            "time": 63.19000000000143,
            "value": 0.6771653543307087
          },
          {
            "number": 1,
            "time": 63.205000000001434,
            "value": 0.6850393700787402
          },
          {
            "number": 1,
            "time": 63.210000000001436,
            "value": 0.6929133858267716
          },
          {
            "number": 1,
            "time": 63.22500000000144,
            "value": 0.7007874015748031
          },
          {
            "number": 1,
            "time": 63.235000000001435,
            "value": 0.7086614173228346
          },
          {
            "number": 1,
            "time": 63.25500000000144,
            "value": 0.7165354330708661
          },
          {
            "number": 1,
            "time": 63.265000000001436,
            "value": 0.7244094488188977
          },
          {
            "number": 1,
            "time": 63.28500000000144,
            "value": 0.7322834645669292
          },
          {
            "number": 1,
            "time": 63.30000000000144,
            "value": 0.7401574803149606
          },
          {
            "number": 1,
            "time": 63.34000000000144,
            "value": 0.7322834645669292
          },
          {
            "number": 1,
            "time": 63.34500000000144,
            "value": 0.7244094488188977
          },
          {
            "number": 1,
            "time": 63.35500000000144,
            "value": 0.6614173228346457
          },
          {
            "number": 1,
            "time": 63.37000000000144,
            "value": 0.6456692913385826
          },
          {
            "number": 1,
            "time": 63.38000000000144,
            "value": 0.5984251968503937
          },
          {
            "number": 1,
            "time": 63.38500000000144,
            "value": 0.5511811023622047
          },
          {
            "number": 1,
            "time": 63.40000000000144,
            "value": 0.5039370078740157
          },
          {
            "number": 1,
            "time": 63.40500000000144,
            "value": 0.4566929133858268
          },
          {
            "number": 1,
            "time": 63.410000000001446,
            "value": 0.3937007874015748
          },
          {
            "number": 1,
            "time": 63.420000000001444,
            "value": 0.3464566929133858
          },
          {
            "number": 1,
            "time": 63.43000000000144,
            "value": 0.28346456692913385
          },
          {
            "number": 1,
            "time": 63.435000000001445,
            "value": 0.23622047244094488
          },
          {
            "number": 1,
            "time": 63.44500000000144,
            "value": 0.1889763779527559
          },
          {
            "number": 1,
            "time": 63.450000000001445,
            "value": 0.1732283464566929
          },
          {
            "number": 1,
            "time": 63.46000000000144,
            "value": 0.15748031496062992
          },
          {
            "number": 1,
            "time": 63.465000000001446,
            "value": 0.14173228346456693
          },
          {
            "number": 1,
            "time": 63.47000000000145,
            "value": 0.12598425196850394
          },
          {
            "number": 1,
            "time": 63.47500000000145,
            "value": 0.11023622047244094
          },
          {
            "number": 1,
            "time": 63.48000000000145,
            "value": 0.09448818897637795
          },
          {
            "number": 1,
            "time": 63.49000000000145,
            "value": 0.07874015748031496
          },
          {
            "number": 1,
            "time": 63.495000000001454,
            "value": 0.06299212598425197
          },
          {
            "number": 1,
            "time": 63.50000000000146,
            "value": 0.047244094488188976
          },
          {
            "number": 1,
            "time": 63.50500000000146,
            "value": 0.023622047244094488
          },
          {
            "number": 1,
            "time": 63.52000000000146,
            "value": 0.007874015748031496
          },
          {
            "number": 1,
            "time": 63.52500000000146,
            "value": 0
          },
          {
            "number": 1,
            "time": 66.41500000000133,
            "value": 0.05511811023622047
          },
          {
            "number": 1,
            "time": 66.45500000000132,
            "value": 0.07086614173228346
          },
          {
            "number": 1,
            "time": 66.46500000000133,
            "value": 0.07874015748031496
          },
          {
            "number": 1,
            "time": 66.50000000000132,
            "value": 0.08661417322834646
          },
          {
            "number": 1,
            "time": 66.51500000000132,
            "value": 0.10236220472440945
          },
          {
            "number": 1,
            "time": 66.55000000000132,
            "value": 0.11023622047244094
          },
          {
            "number": 1,
            "time": 66.59500000000132,
            "value": 0.11811023622047244
          },
          {
            "number": 1,
            "time": 66.63500000000134,
            "value": 0.12598425196850394
          },
          {
            "number": 1,
            "time": 66.67000000000134,
            "value": 0.13385826771653545
          },
          {
            "number": 1,
            "time": 66.70500000000133,
            "value": 0.14173228346456693
          },
          {
            "number": 1,
            "time": 66.74000000000133,
            "value": 0.14960629921259844
          },
          {
            "number": 1,
            "time": 66.79000000000133,
            "value": 0.16535433070866143
          },
          {
            "number": 1,
            "time": 66.83500000000133,
            "value": 0.1732283464566929
          },
          {
            "number": 1,
            "time": 66.87500000000134,
            "value": 0.18110236220472442
          },
          {
            "number": 1,
            "time": 66.92000000000132,
            "value": 0.1968503937007874
          },
          {
            "number": 1,
            "time": 66.95500000000132,
            "value": 0.2047244094488189
          },
          {
            "number": 1,
            "time": 66.99500000000133,
            "value": 0.2125984251968504
          },
          {
            "number": 1,
            "time": 67.03000000000132,
            "value": 0.2204724409448819
          },
          {
            "number": 1,
            "time": 67.06500000000133,
            "value": 0.2283464566929134
          },
          {
            "number": 1,
            "time": 67.10000000000134,
            "value": 0.23622047244094488
          },
          {
            "number": 1,
            "time": 67.15000000000134,
            "value": 0.2440944881889764
          },
          {
            "number": 1,
            "time": 67.19500000000134,
            "value": 0.25984251968503935
          },
          {
            "number": 1,
            "time": 67.23500000000135,
            "value": 0.2677165354330709
          },
          {
            "number": 1,
            "time": 67.28000000000134,
            "value": 0.2755905511811024
          },
          {
            "number": 1,
            "time": 67.33000000000133,
            "value": 0.29133858267716534
          },
          {
            "number": 1,
            "time": 67.36500000000134,
            "value": 0.2992125984251969
          },
          {
            "number": 1,
            "time": 67.37500000000135,
            "value": 0.30708661417322836
          },
          {
            "number": 1,
            "time": 67.42500000000136,
            "value": 0.3228346456692913
          },
          {
            "number": 1,
            "time": 67.46000000000136,
            "value": 0.33070866141732286
          },
          {
            "number": 1,
            "time": 67.47500000000136,
            "value": 0.33858267716535434
          },
          {
            "number": 1,
            "time": 67.49500000000137,
            "value": 0.3464566929133858
          },
          {
            "number": 1,
            "time": 67.53500000000138,
            "value": 0.3543307086614173
          },
          {
            "number": 1,
            "time": 67.55500000000137,
            "value": 0.36220472440944884
          },
          {
            "number": 1,
            "time": 67.60000000000137,
            "value": 0.3700787401574803
          },
          {
            "number": 1,
            "time": 67.62500000000138,
            "value": 0.3858267716535433
          },
          {
            "number": 1,
            "time": 67.66500000000138,
            "value": 0.3937007874015748
          },
          {
            "number": 1,
            "time": 67.68500000000138,
            "value": 0.4015748031496063
          },
          {
            "number": 1,
            "time": 67.70500000000138,
            "value": 0.4094488188976378
          },
          {
            "number": 1,
            "time": 67.72000000000138,
            "value": 0.41732283464566927
          },
          {
            "number": 1,
            "time": 67.75500000000139,
            "value": 0.4251968503937008
          },
          {
            "number": 1,
            "time": 67.8350000000014,
            "value": 0
          },
          {
            "number": 1,
            "time": 71.71500000000093,
            "value": 0
          },
          {
            "number": 1,
            "time": 71.72000000000092,
            "value": 0.007874015748031496
          },
          {
            "number": 1,
            "time": 71.72500000000092,
            "value": 0.031496062992125984
          },
          {
            "number": 1,
            "time": 71.73000000000091,
            "value": 0.03937007874015748
          },
          {
            "number": 1,
            "time": 71.73500000000091,
            "value": 0.047244094488188976
          },
          {
            "number": 1,
            "time": 71.74500000000091,
            "value": 0.06299212598425197
          },
          {
            "number": 1,
            "time": 71.75500000000092,
            "value": 0.07874015748031496
          },
          {
            "number": 1,
            "time": 71.76000000000091,
            "value": 0.09448818897637795
          },
          {
            "number": 1,
            "time": 71.77500000000092,
            "value": 0.11023622047244094
          },
          {
            "number": 1,
            "time": 71.78000000000091,
            "value": 0.12598425196850394
          },
          {
            "number": 1,
            "time": 71.81500000000091,
            "value": 0.1732283464566929
          },
          {
            "number": 1,
            "time": 71.8200000000009,
            "value": 0.1889763779527559
          },
          {
            "number": 1,
            "time": 71.8350000000009,
            "value": 0.23622047244094488
          },
          {
            "number": 1,
            "time": 71.84500000000091,
            "value": 0.28346456692913385
          },
          {
            "number": 1,
            "time": 71.8550000000009,
            "value": 0.2992125984251969
          },
          {
            "number": 1,
            "time": 71.8700000000009,
            "value": 0.3464566929133858
          },
          {
            "number": 1,
            "time": 71.8750000000009,
            "value": 0.3543307086614173
          },
          {
            "number": 1,
            "time": 71.91000000000089,
            "value": 0.3700787401574803
          },
          {
            "number": 1,
            "time": 71.91500000000089,
            "value": 0.3858267716535433
          },
          {
            "number": 1,
            "time": 71.93000000000089,
            "value": 0.3937007874015748
          },
          {
            "number": 1,
            "time": 71.9400000000009,
            "value": 0.4094488188976378
          },
          {
            "number": 1,
            "time": 71.9550000000009,
            "value": 0.41732283464566927
          },
          {
            "number": 1,
            "time": 71.96500000000088,
            "value": 0.4645669291338583
          },
          {
            "number": 1,
            "time": 72.00000000000088,
            "value": 0.48031496062992124
          },
          {
            "number": 1,
            "time": 72.00000000000088,
            "value": 0.03937007874015748
          },
          {
            "number": 1,
            "time": 72.01000000000087,
            "value": 0.05511811023622047
          },
          {
            "number": 1,
            "time": 72.01500000000087,
            "value": 0.06299212598425197
          },
          {
            "number": 1,
            "time": 72.01500000000087,
            "value": 0.49606299212598426
          },
          {
            "number": 1,
            "time": 72.02000000000086,
            "value": 0.07086614173228346
          },
          {
            "number": 1,
            "time": 72.02500000000086,
            "value": 0.5118110236220472
          },
          {
            "number": 1,
            "time": 72.02500000000086,
            "value": 0.09448818897637795
          },
          {
            "number": 1,
            "time": 72.03500000000086,
            "value": 0.5275590551181102
          },
          {
            "number": 1,
            "time": 72.04000000000086,
            "value": 0.11023622047244094
          },
          {
            "number": 1,
            "time": 72.04500000000085,
            "value": 0.12598425196850394
          },
          {
            "number": 1,
            "time": 72.05000000000085,
            "value": 0.14173228346456693
          },
          {
            "number": 1,
            "time": 72.05000000000085,
            "value": 0.5354330708661418
          },
          {
            "number": 1,
            "time": 72.05500000000085,
            "value": 0.5433070866141733
          },
          {
            "number": 1,
            "time": 72.06000000000084,
            "value": 0.15748031496062992
          },
          {
            "number": 1,
            "time": 72.06500000000084,
            "value": 0.5511811023622047
          },
          {
            "number": 1,
            "time": 72.07000000000083,
            "value": 0.16535433070866143
          },
          {
            "number": 1,
            "time": 72.07500000000083,
            "value": 0.5590551181102362
          },
          {
            "number": 1,
            "time": 72.07500000000083,
            "value": 0.18110236220472442
          },
          {
            "number": 1,
            "time": 72.08500000000083,
            "value": 0.1889763779527559
          },
          {
            "number": 1,
            "time": 72.09000000000083,
            "value": 0.1968503937007874
          },
          {
            "number": 1,
            "time": 72.09000000000083,
            "value": 0.5669291338582677
          },
          {
            "number": 1,
            "time": 72.10000000000082,
            "value": 0.2440944881889764
          },
          {
            "number": 1,
            "time": 72.10500000000081,
            "value": 0.5826771653543307
          },
          {
            "number": 1,
            "time": 72.11000000000081,
            "value": 0.25196850393700787
          },
          {
            "number": 1,
            "time": 72.1150000000008,
            "value": 0.2992125984251969
          },
          {
            "number": 1,
            "time": 72.1300000000008,
            "value": 0.30708661417322836
          },
          {
            "number": 1,
            "time": 72.1400000000008,
            "value": 0.5984251968503937
          },
          {
            "number": 1,
            "time": 72.14500000000079,
            "value": 0.6062992125984252
          },
          {
            "number": 1,
            "time": 72.1550000000008,
            "value": 0.6220472440944882
          },
          {
            "number": 1,
            "time": 72.16500000000079,
            "value": 0.3543307086614173
          },
          {
            "number": 1,
            "time": 72.17000000000078,
            "value": 0.6299212598425197
          },
          {
            "number": 1,
            "time": 72.17500000000078,
            "value": 0.36220472440944884
          },
          {
            "number": 1,
            "time": 72.18500000000078,
            "value": 0.6456692913385826
          },
          {
            "number": 1,
            "time": 72.19000000000078,
            "value": 0.3779527559055118
          },
          {
            "number": 1,
            "time": 72.20000000000077,
            "value": 0.6535433070866141
          },
          {
            "number": 1,
            "time": 72.21000000000078,
            "value": 0.6614173228346457
          },
          {
            "number": 1,
            "time": 72.22500000000078,
            "value": 0.3858267716535433
          },
          {
            "number": 1,
            "time": 72.22500000000078,
            "value": 0.6692913385826772
          },
          {
            "number": 1,
            "time": 72.23500000000077,
            "value": 0.6771653543307087
          },
          {
            "number": 1,
            "time": 72.23500000000077,
            "value": 0.4015748031496063
          },
          {
            "number": 1,
            "time": 72.24500000000076,
            "value": 0.6929133858267716
          },
          {
            "number": 1,
            "time": 72.26000000000076,
            "value": 0.7007874015748031
          },
          {
            "number": 1,
            "time": 72.26500000000075,
            "value": 0.7086614173228346
          },
          {
            "number": 1,
            "time": 72.27000000000075,
            "value": 0.41732283464566927
          },
          {
            "number": 1,
            "time": 72.27500000000074,
            "value": 0.7165354330708661
          },
          {
            "number": 1,
            "time": 72.28500000000075,
            "value": 0.4251968503937008
          },
          {
            "number": 1,
            "time": 72.28500000000075,
            "value": 0.7244094488188977
          },
          {
            "number": 1,
            "time": 72.29000000000075,
            "value": 0.7480314960629921
          },
          {
            "number": 1,
            "time": 72.30500000000075,
            "value": 0.7637795275590551
          },
          {
            "number": 1,
            "time": 72.31500000000075,
            "value": 0.7716535433070866
          },
          {
            "number": 1,
            "time": 72.32000000000075,
            "value": 0.4409448818897638
          },
          {
            "number": 1,
            "time": 72.33000000000074,
            "value": 0.7795275590551181
          },
          {
            "number": 1,
            "time": 72.34500000000074,
            "value": 0.7874015748031497
          },
          {
            "number": 1,
            "time": 72.35500000000073,
            "value": 0.4566929133858268
          },
          {
            "number": 1,
            "time": 72.35500000000073,
            "value": 0.8031496062992126
          },
          {
            "number": 1,
            "time": 72.36000000000072,
            "value": 0.4645669291338583
          },
          {
            "number": 1,
            "time": 72.37500000000072,
            "value": 0.8110236220472441
          },
          {
            "number": 1,
            "time": 72.38500000000073,
            "value": 0.8188976377952756
          },
          {
            "number": 1,
            "time": 72.40000000000073,
            "value": 0.48031496062992124
          },
          {
            "number": 1,
            "time": 72.41000000000074,
            "value": 0.8267716535433071
          },
          {
            "number": 1,
            "time": 72.42000000000074,
            "value": 0.8346456692913385
          },
          {
            "number": 1,
            "time": 72.43500000000074,
            "value": 0.4881889763779528
          },
          {
            "number": 1,
            "time": 72.44000000000074,
            "value": 0.5039370078740157
          },
          {
            "number": 1,
            "time": 72.47500000000073,
            "value": 0.5118110236220472
          },
          {
            "number": 1,
            "time": 72.48000000000073,
            "value": 0.5196850393700787
          },
          {
            "number": 1,
            "time": 72.48500000000072,
            "value": 0.8267716535433071
          },
          {
            "number": 1,
            "time": 72.50000000000072,
            "value": 0.8188976377952756
          },
          {
            "number": 1,
            "time": 72.51000000000072,
            "value": 0.8110236220472441
          },
          {
            "number": 1,
            "time": 72.51500000000071,
            "value": 0.8031496062992126
          },
          {
            "number": 1,
            "time": 72.5200000000007,
            "value": 0.5275590551181102
          },
          {
            "number": 1,
            "time": 72.5250000000007,
            "value": 0.7952755905511811
          },
          {
            "number": 1,
            "time": 72.5250000000007,
            "value": 0.5354330708661418
          },
          {
            "number": 1,
            "time": 72.5350000000007,
            "value": 0.7795275590551181
          },
          {
            "number": 1,
            "time": 72.54000000000069,
            "value": 0.7322834645669292
          },
          {
            "number": 1,
            "time": 72.54500000000068,
            "value": 0.6850393700787402
          },
          {
            "number": 1,
            "time": 72.55500000000069,
            "value": 0.6377952755905512
          },
          {
            "number": 1,
            "time": 72.56000000000068,
            "value": 0.5433070866141733
          },
          {
            "number": 1,
            "time": 72.56000000000068,
            "value": 0.5905511811023622
          },
          {
            "number": 1,
            "time": 72.56500000000068,
            "value": 0.5433070866141733
          },
          {
            "number": 1,
            "time": 72.57000000000068,
            "value": 0.5511811023622047
          },
          {
            "number": 1,
            "time": 72.57000000000068,
            "value": 0.41732283464566927
          },
          {
            "number": 1,
            "time": 72.57500000000067,
            "value": 0.3543307086614173
          },
          {
            "number": 1,
            "time": 72.58500000000066,
            "value": 0.5590551181102362
          },
          {
            "number": 1,
            "time": 72.58500000000066,
            "value": 0.30708661417322836
          },
          {
            "number": 1,
            "time": 72.59000000000066,
            "value": 0.2440944881889764
          },
          {
            "number": 1,
            "time": 72.59500000000065,
            "value": 0.13385826771653545
          },
          {
            "number": 1,
            "time": 72.59500000000065,
            "value": 0.5748031496062992
          },
          {
            "number": 1,
            "time": 72.60000000000065,
            "value": 0.10236220472440945
          },
          {
            "number": 1,
            "time": 72.60500000000064,
            "value": 0.08661417322834646
          },
          {
            "number": 1,
            "time": 72.61500000000063,
            "value": 0.047244094488188976
          },
          {
            "number": 1,
            "time": 72.62000000000063,
            "value": 0.007874015748031496
          },
          {
            "number": 1,
            "time": 72.62500000000063,
            "value": 0
          },
          {
            "number": 1,
            "time": 72.63000000000062,
            "value": 0.5826771653543307
          },
          {
            "number": 1,
            "time": 72.67000000000058,
            "value": 0.5905511811023622
          },
          {
            "number": 1,
            "time": 72.67500000000058,
            "value": 0.5984251968503937
          },
          {
            "number": 1,
            "time": 72.71000000000056,
            "value": 0.6062992125984252
          },
          {
            "number": 1,
            "time": 72.72000000000055,
            "value": 0.6141732283464567
          },
          {
            "number": 1,
            "time": 72.73500000000055,
            "value": 0.6299212598425197
          },
          {
            "number": 1,
            "time": 72.74000000000055,
            "value": 0.6377952755905512
          },
          {
            "number": 1,
            "time": 72.76500000000055,
            "value": 0.6535433070866141
          },
          {
            "number": 1,
            "time": 72.77500000000056,
            "value": 0.6614173228346457
          },
          {
            "number": 1,
            "time": 72.79000000000056,
            "value": 0.6771653543307087
          },
          {
            "number": 1,
            "time": 72.80500000000056,
            "value": 0.6850393700787402
          },
          {
            "number": 1,
            "time": 72.81000000000056,
            "value": 0.6929133858267716
          },
          {
            "number": 1,
            "time": 72.82500000000056,
            "value": 0.7007874015748031
          },
          {
            "number": 1,
            "time": 72.83500000000056,
            "value": 0.7086614173228346
          },
          {
            "number": 1,
            "time": 72.85500000000056,
            "value": 0.7165354330708661
          },
          {
            "number": 1,
            "time": 72.86500000000056,
            "value": 0.7244094488188977
          },
          {
            "number": 1,
            "time": 72.88500000000056,
            "value": 0.7322834645669292
          },
          {
            "number": 1,
            "time": 72.90000000000056,
            "value": 0.7401574803149606
          },
          {
            "number": 1,
            "time": 72.94000000000057,
            "value": 0.7322834645669292
          },
          {
            "number": 1,
            "time": 72.94500000000056,
            "value": 0.7244094488188977
          },
          {
            "number": 1,
            "time": 72.95500000000057,
            "value": 0.6614173228346457
          },
          {
            "number": 1,
            "time": 72.97000000000057,
            "value": 0.6456692913385826
          },
          {
            "number": 1,
            "time": 72.98000000000057,
            "value": 0.5984251968503937
          },
          {
            "number": 1,
            "time": 72.98500000000057,
            "value": 0.5511811023622047
          },
          {
            "number": 1,
            "time": 73.00000000000057,
            "value": 0.5039370078740157
          },
          {
            "number": 1,
            "time": 73.00500000000056,
            "value": 0.4566929133858268
          },
          {
            "number": 1,
            "time": 73.01000000000056,
            "value": 0.3937007874015748
          },
          {
            "number": 1,
            "time": 73.02000000000056,
            "value": 0.3464566929133858
          },
          {
            "number": 1,
            "time": 73.03000000000057,
            "value": 0.28346456692913385
          },
          {
            "number": 1,
            "time": 73.03500000000057,
            "value": 0.23622047244094488
          },
          {
            "number": 1,
            "time": 73.04500000000057,
            "value": 0.1889763779527559
          },
          {
            "number": 1,
            "time": 73.05000000000057,
            "value": 0.1732283464566929
          },
          {
            "number": 1,
            "time": 73.06000000000057,
            "value": 0.15748031496062992
          },
          {
            "number": 1,
            "time": 73.06500000000057,
            "value": 0.14173228346456693
          },
          {
            "number": 1,
            "time": 73.07000000000056,
            "value": 0.12598425196850394
          },
          {
            "number": 1,
            "time": 73.07500000000056,
            "value": 0.11023622047244094
          },
          {
            "number": 1,
            "time": 73.08000000000055,
            "value": 0.09448818897637795
          },
          {
            "number": 1,
            "time": 73.09000000000056,
            "value": 0.07874015748031496
          },
          {
            "number": 1,
            "time": 73.09500000000055,
            "value": 0.06299212598425197
          },
          {
            "number": 1,
            "time": 73.10000000000055,
            "value": 0.047244094488188976
          },
          {
            "number": 1,
            "time": 73.10500000000054,
            "value": 0.023622047244094488
          },
          {
            "number": 1,
            "time": 73.12000000000054,
            "value": 0.007874015748031496
          },
          {
            "number": 1,
            "time": 73.12500000000054,
            "value": 0
          },
          {
            "number": 1,
            "time": 76.01500000000043,
            "value": 0.05511811023622047
          },
          {
            "number": 1,
            "time": 76.05500000000042,
            "value": 0.07086614173228346
          },
          {
            "number": 1,
            "time": 76.06000000000041,
            "value": 0.06299212598425197
          },
          {
            "number": 1,
            "time": 76.08500000000042,
            "value": 0.07086614173228346
          },
          {
            "number": 1,
            "time": 76.12000000000042,
            "value": 0.07874015748031496
          },
          {
            "number": 1,
            "time": 76.18000000000042,
            "value": 0.12598425196850394
          },
          {
            "number": 1,
            "time": 76.23000000000043,
            "value": 0.14173228346456693
          },
          {
            "number": 1,
            "time": 76.29000000000043,
            "value": 0.15748031496062992
          },
          {
            "number": 1,
            "time": 76.34000000000043,
            "value": 0.1732283464566929
          },
          {
            "number": 1,
            "time": 76.37500000000043,
            "value": 0.2204724409448819
          },
          {
            "number": 1,
            "time": 76.41000000000044,
            "value": 0.2677165354330709
          },
          {
            "number": 1,
            "time": 76.46000000000045,
            "value": 0.31496062992125984
          },
          {
            "number": 1,
            "time": 76.49500000000045,
            "value": 0.36220472440944884
          },
          {
            "number": 1,
            "time": 76.50000000000044,
            "value": 0.3779527559055118
          },
          {
            "number": 1,
            "time": 76.53500000000044,
            "value": 0.4251968503937008
          },
          {
            "number": 1,
            "time": 76.55000000000044,
            "value": 0.47244094488188976
          },
          {
            "number": 1,
            "time": 76.58500000000043,
            "value": 0.5196850393700787
          },
          {
            "number": 1,
            "time": 76.62000000000045,
            "value": 0.5826771653543307
          },
          {
            "number": 1,
            "time": 76.63000000000045,
            "value": 0.6299212598425197
          },
          {
            "number": 1,
            "time": 76.67000000000046,
            "value": 0.6456692913385826
          },
          {
            "number": 1,
            "time": 76.70500000000045,
            "value": 0.6929133858267716
          },
          {
            "number": 1,
            "time": 76.71000000000045,
            "value": 0.7401574803149606
          },
          {
            "number": 1,
            "time": 76.74500000000045,
            "value": 0.7874015748031497
          },
          {
            "number": 1,
            "time": 76.76000000000045,
            "value": 0.8346456692913385
          },
          {
            "number": 1,
            "time": 76.79500000000044,
            "value": 0.8818897637795275
          },
          {
            "number": 1,
            "time": 76.80500000000045,
            "value": 0.9291338582677166
          },
          {
            "number": 1,
            "time": 76.82000000000045,
            "value": 0.9763779527559056
          },
          {
            "number": 1,
            "time": 76.82500000000044,
            "value": 0.9921259842519685
          },
          {
            "number": 1,
            "time": 76.83000000000044,
            "value": 1
          },
          {
            "number": 1,
            "time": 77.11000000000045,
            "value": 0.9921259842519685
          },
          {
            "number": 1,
            "time": 77.12500000000045,
            "value": 0.984251968503937
          },
          {
            "number": 1,
            "time": 77.13000000000045,
            "value": 0.9763779527559056
          },
          {
            "number": 1,
            "time": 77.13500000000045,
            "value": 0.968503937007874
          },
          {
            "number": 1,
            "time": 77.14000000000044,
            "value": 0.9606299212598425
          },
          {
            "number": 1,
            "time": 77.15000000000045,
            "value": 0.9448818897637795
          },
          {
            "number": 1,
            "time": 77.15500000000044,
            "value": 0.9291338582677166
          },
          {
            "number": 1,
            "time": 77.16000000000044,
            "value": 0.9133858267716536
          },
          {
            "number": 1,
            "time": 77.16500000000043,
            "value": 0.8976377952755905
          },
          {
            "number": 1,
            "time": 77.17000000000043,
            "value": 0.889763779527559
          },
          {
            "number": 1,
            "time": 77.18000000000043,
            "value": 0.8188976377952756
          },
          {
            "number": 1,
            "time": 77.18500000000043,
            "value": 0.8031496062992126
          },
          {
            "number": 1,
            "time": 77.19500000000043,
            "value": 0.7716535433070866
          },
          {
            "number": 1,
            "time": 77.20000000000043,
            "value": 0.7480314960629921
          },
          {
            "number": 1,
            "time": 77.21000000000043,
            "value": 0.7007874015748031
          },
          {
            "number": 1,
            "time": 77.21500000000043,
            "value": 0.6929133858267716
          },
          {
            "number": 1,
            "time": 77.22000000000043,
            "value": 0.6771653543307087
          },
          {
            "number": 1,
            "time": 77.22500000000042,
            "value": 0.6614173228346457
          },
          {
            "number": 1,
            "time": 77.23000000000042,
            "value": 0.6456692913385826
          },
          {
            "number": 1,
            "time": 77.24000000000042,
            "value": 0.6299212598425197
          },
          {
            "number": 1,
            "time": 77.24500000000042,
            "value": 0.5826771653543307
          },
          {
            "number": 1,
            "time": 77.25000000000041,
            "value": 0.5669291338582677
          },
          {
            "number": 1,
            "time": 77.25500000000041,
            "value": 0.5511811023622047
          },
          {
            "number": 1,
            "time": 77.2600000000004,
            "value": 0.5039370078740157
          },
          {
            "number": 1,
            "time": 77.2750000000004,
            "value": 0.4881889763779528
          },
          {
            "number": 1,
            "time": 77.2800000000004,
            "value": 0.4409448818897638
          },
          {
            "number": 1,
            "time": 77.2900000000004,
            "value": 0.3937007874015748
          },
          {
            "number": 1,
            "time": 77.3050000000004,
            "value": 0.3858267716535433
          },
          {
            "number": 1,
            "time": 77.3100000000004,
            "value": 0.3700787401574803
          },
          {
            "number": 1,
            "time": 77.3150000000004,
            "value": 0.36220472440944884
          },
          {
            "number": 1,
            "time": 77.32000000000039,
            "value": 0.33858267716535434
          },
          {
            "number": 1,
            "time": 77.3300000000004,
            "value": 0.3228346456692913
          },
          {
            "number": 1,
            "time": 77.33500000000039,
            "value": 0.31496062992125984
          },
          {
            "number": 1,
            "time": 77.34000000000039,
            "value": 0.2992125984251969
          },
          {
            "number": 1,
            "time": 77.34500000000038,
            "value": 0.28346456692913385
          },
          {
            "number": 1,
            "time": 77.36000000000038,
            "value": 0.2755905511811024
          },
          {
            "number": 1,
            "time": 77.36500000000038,
            "value": 0.25196850393700787
          },
          {
            "number": 1,
            "time": 77.37000000000037,
            "value": 0.2283464566929134
          },
          {
            "number": 1,
            "time": 77.37500000000037,
            "value": 0.2047244094488189
          },
          {
            "number": 1,
            "time": 77.38000000000036,
            "value": 0.1968503937007874
          },
          {
            "number": 1,
            "time": 77.39000000000037,
            "value": 0.1889763779527559
          },
          {
            "number": 1,
            "time": 77.39500000000037,
            "value": 0.16535433070866143
          },
          {
            "number": 1,
            "time": 77.40000000000036,
            "value": 0.12598425196850394
          },
          {
            "number": 1,
            "time": 77.40500000000036,
            "value": 0.06299212598425197
          },
          {
            "number": 1,
            "time": 77.41000000000035,
            "value": 0.015748031496062992
          },
          {
            "number": 1,
            "time": 77.43500000000034,
            "value": 0
          },
          {
            "number": 1,
            "time": 81.30999999999989,
            "value": 0.023622047244094488
          },
          {
            "number": 1,
            "time": 81.3199999999999,
            "value": 0.031496062992125984
          },
          {
            "number": 1,
            "time": 81.35499999999989,
            "value": 0.03937007874015748
          },
          {
            "number": 1,
            "time": 81.3949999999999,
            "value": 0.05511811023622047
          },
          {
            "number": 1,
            "time": 81.4549999999999,
            "value": 0.10236220472440945
          },
          {
            "number": 1,
            "time": 81.51499999999992,
            "value": 0.14960629921259844
          },
          {
            "number": 1,
            "time": 81.57499999999992,
            "value": 0.1968503937007874
          },
          {
            "number": 1,
            "time": 81.64499999999991,
            "value": 0.25984251968503935
          },
          {
            "number": 1,
            "time": 81.7149999999999,
            "value": 0.3228346456692913
          },
          {
            "number": 1,
            "time": 81.7749999999999,
            "value": 0.3858267716535433
          },
          {
            "number": 1,
            "time": 81.83499999999991,
            "value": 0.4330708661417323
          },
          {
            "number": 1,
            "time": 81.89499999999991,
            "value": 0.49606299212598426
          },
          {
            "number": 1,
            "time": 81.94499999999991,
            "value": 0.5433070866141733
          },
          {
            "number": 1,
            "time": 81.9549999999999,
            "value": 0.5905511811023622
          },
          {
            "number": 1,
            "time": 81.9699999999999,
            "value": 0.6062992125984252
          },
          {
            "number": 1,
            "time": 82.00499999999988,
            "value": 0.6535433070866141
          },
          {
            "number": 1,
            "time": 82.01499999999989,
            "value": 0.7007874015748031
          },
          {
            "number": 1,
            "time": 82.0549999999999,
            "value": 0.7165354330708661
          },
          {
            "number": 1,
            "time": 82.05999999999989,
            "value": 0.7637795275590551
          },
          {
            "number": 1,
            "time": 82.09499999999989,
            "value": 0.7795275590551181
          },
          {
            "number": 1,
            "time": 82.10499999999988,
            "value": 0.7952755905511811
          },
          {
            "number": 1,
            "time": 82.11999999999988,
            "value": 0.8110236220472441
          },
          {
            "number": 1,
            "time": 82.12999999999987,
            "value": 0.8188976377952756
          },
          {
            "number": 1,
            "time": 82.14499999999987,
            "value": 0.8346456692913385
          },
          {
            "number": 1,
            "time": 82.14999999999986,
            "value": 0.84251968503937
          },
          {
            "number": 1,
            "time": 82.18499999999986,
            "value": 0.8582677165354331
          },
          {
            "number": 1,
            "time": 82.18999999999986,
            "value": 0.8661417322834646
          },
          {
            "number": 1,
            "time": 82.20499999999986,
            "value": 0.8818897637795275
          },
          {
            "number": 1,
            "time": 82.21499999999986,
            "value": 0.889763779527559
          },
          {
            "number": 1,
            "time": 82.22499999999985,
            "value": 0.8976377952755905
          },
          {
            "number": 1,
            "time": 82.23499999999986,
            "value": 0.905511811023622
          },
          {
            "number": 1,
            "time": 82.24499999999986,
            "value": 0.9133858267716536
          },
          {
            "number": 1,
            "time": 82.25499999999987,
            "value": 0.9212598425196851
          },
          {
            "number": 1,
            "time": 82.26499999999987,
            "value": 0.9291338582677166
          },
          {
            "number": 1,
            "time": 82.26999999999987,
            "value": 0.937007874015748
          },
          {
            "number": 1,
            "time": 82.27499999999986,
            "value": 0.9448818897637795
          },
          {
            "number": 1,
            "time": 82.35999999999989,
            "value": 0
          },
          {
            "number": 1,
            "time": 114.7149999999994,
            "value": 0.031496062992125984
          },
          {
            "number": 1,
            "time": 114.72999999999941,
            "value": 0.03937007874015748
          },
          {
            "number": 1,
            "time": 114.7349999999994,
            "value": 0.047244094488188976
          },
          {
            "number": 1,
            "time": 114.7399999999994,
            "value": 0.06299212598425197
          },
          {
            "number": 1,
            "time": 114.7449999999994,
            "value": 0.07086614173228346
          },
          {
            "number": 1,
            "time": 114.7599999999994,
            "value": 0.07874015748031496
          },
          {
            "number": 1,
            "time": 114.76499999999939,
            "value": 0.09448818897637795
          },
          {
            "number": 1,
            "time": 114.7749999999994,
            "value": 0.10236220472440945
          },
          {
            "number": 1,
            "time": 114.7899999999994,
            "value": 0.11811023622047244
          },
          {
            "number": 1,
            "time": 114.79499999999939,
            "value": 0.13385826771653545
          },
          {
            "number": 1,
            "time": 114.82999999999939,
            "value": 0.14173228346456693
          },
          {
            "number": 1,
            "time": 114.84499999999937,
            "value": 0.1889763779527559
          },
          {
            "number": 1,
            "time": 114.85499999999936,
            "value": 0.1968503937007874
          },
          {
            "number": 1,
            "time": 114.88999999999935,
            "value": 0.2125984251968504
          },
          {
            "number": 1,
            "time": 114.89499999999934,
            "value": 0.2283464566929134
          },
          {
            "number": 1,
            "time": 114.93499999999932,
            "value": 0.23622047244094488
          },
          {
            "number": 1,
            "time": 114.94499999999931,
            "value": 0.2440944881889764
          },
          {
            "number": 1,
            "time": 114.9549999999993,
            "value": 0.25984251968503935
          },
          {
            "number": 1,
            "time": 114.96499999999929,
            "value": 0.2677165354330709
          },
          {
            "number": 1,
            "time": 114.99999999999928,
            "value": 0.2755905511811024
          },
          {
            "number": 1,
            "time": 115.00999999999928,
            "value": 0.29133858267716534
          },
          {
            "number": 1,
            "time": 115.02499999999928,
            "value": 0.2992125984251969
          },
          {
            "number": 1,
            "time": 115.03499999999929,
            "value": 0.30708661417322836
          },
          {
            "number": 1,
            "time": 115.0699999999993,
            "value": 0.31496062992125984
          },
          {
            "number": 1,
            "time": 115.0849999999993,
            "value": 0.33070866141732286
          },
          {
            "number": 1,
            "time": 115.09499999999929,
            "value": 0.33858267716535434
          },
          {
            "number": 1,
            "time": 115.1049999999993,
            "value": 0.3464566929133858
          },
          {
            "number": 1,
            "time": 115.1199999999993,
            "value": 0.3543307086614173
          },
          {
            "number": 1,
            "time": 115.15499999999929,
            "value": 0.3700787401574803
          },
          {
            "number": 1,
            "time": 115.15999999999929,
            "value": 0.3779527559055118
          },
          {
            "number": 1,
            "time": 115.20499999999929,
            "value": 0.3858267716535433
          },
          {
            "number": 1,
            "time": 115.21499999999928,
            "value": 0.3937007874015748
          },
          {
            "number": 1,
            "time": 115.22499999999928,
            "value": 0.4015748031496063
          },
          {
            "number": 1,
            "time": 115.23999999999928,
            "value": 0.4094488188976378
          },
          {
            "number": 1,
            "time": 115.24999999999929,
            "value": 0.41732283464566927
          },
          {
            "number": 1,
            "time": 115.26499999999929,
            "value": 0.4330708661417323
          },
          {
            "number": 1,
            "time": 115.30999999999929,
            "value": 0.4409448818897638
          },
          {
            "number": 1,
            "time": 115.32499999999929,
            "value": 0.44881889763779526
          },
          {
            "number": 1,
            "time": 115.33499999999928,
            "value": 0.4566929133858268
          },
          {
            "number": 1,
            "time": 115.33999999999928,
            "value": 0.4645669291338583
          },
          {
            "number": 1,
            "time": 115.37499999999928,
            "value": 0.47244094488188976
          },
          {
            "number": 1,
            "time": 115.41999999999928,
            "value": 0.4881889763779528
          },
          {
            "number": 1,
            "time": 115.42499999999927,
            "value": 0.49606299212598426
          },
          {
            "number": 1,
            "time": 115.45999999999927,
            "value": 0.5039370078740157
          },
          {
            "number": 1,
            "time": 115.46499999999926,
            "value": 0.5118110236220472
          },
          {
            "number": 1,
            "time": 115.50499999999927,
            "value": 0.5275590551181102
          },
          {
            "number": 1,
            "time": 115.50999999999927,
            "value": 0.5354330708661418
          },
          {
            "number": 1,
            "time": 115.54499999999928,
            "value": 0.5433070866141733
          },
          {
            "number": 1,
            "time": 115.55499999999928,
            "value": 0.5511811023622047
          },
          {
            "number": 1,
            "time": 115.56999999999928,
            "value": 0.5590551181102362
          },
          {
            "number": 1,
            "time": 115.57499999999928,
            "value": 0.5669291338582677
          },
          {
            "number": 1,
            "time": 115.60999999999927,
            "value": 0.5748031496062992
          },
          {
            "number": 1,
            "time": 115.62499999999928,
            "value": 0.5826771653543307
          },
          {
            "number": 1,
            "time": 115.65999999999926,
            "value": 0.5984251968503937
          },
          {
            "number": 1,
            "time": 115.66999999999925,
            "value": 0.6062992125984252
          },
          {
            "number": 1,
            "time": 115.68499999999925,
            "value": 0.6220472440944882
          },
          {
            "number": 1,
            "time": 115.71999999999925,
            "value": 0.6377952755905512
          },
          {
            "number": 1,
            "time": 115.72499999999924,
            "value": 0.6456692913385826
          },
          {
            "number": 1,
            "time": 115.73499999999923,
            "value": 0.6614173228346457
          },
          {
            "number": 1,
            "time": 115.74999999999923,
            "value": 0.6692913385826772
          },
          {
            "number": 1,
            "time": 115.76499999999923,
            "value": 0.6771653543307087
          },
          {
            "number": 1,
            "time": 115.77499999999924,
            "value": 0.6929133858267716
          },
          {
            "number": 1,
            "time": 115.78999999999924,
            "value": 0.7007874015748031
          },
          {
            "number": 1,
            "time": 115.79499999999923,
            "value": 0.7165354330708661
          },
          {
            "number": 1,
            "time": 115.80499999999924,
            "value": 0.7244094488188977
          },
          {
            "number": 1,
            "time": 115.81499999999923,
            "value": 0.7322834645669292
          },
          {
            "number": 1,
            "time": 115.82499999999922,
            "value": 0.7480314960629921
          },
          {
            "number": 1,
            "time": 115.83999999999922,
            "value": 0.7559055118110236
          },
          {
            "number": 1,
            "time": 115.84499999999922,
            "value": 0.7637795275590551
          },
          {
            "number": 1,
            "time": 115.84999999999921,
            "value": 0.7716535433070866
          },
          {
            "number": 1,
            "time": 115.85499999999921,
            "value": 0.7795275590551181
          },
          {
            "number": 1,
            "time": 115.86999999999921,
            "value": 0.7874015748031497
          },
          {
            "number": 1,
            "time": 115.8749999999992,
            "value": 0.7952755905511811
          },
          {
            "number": 1,
            "time": 115.8949999999992,
            "value": 0.8110236220472441
          },
          {
            "number": 1,
            "time": 115.9099999999992,
            "value": 0.8267716535433071
          },
          {
            "number": 1,
            "time": 115.9249999999992,
            "value": 0.84251968503937
          },
          {
            "number": 1,
            "time": 115.9299999999992,
            "value": 0.8503937007874016
          },
          {
            "number": 1,
            "time": 116.08999999999921,
            "value": 0
          },
          {
            "number": 1,
            "time": 116.64999999999921,
            "value": 0.3779527559055118
          },
          {
            "number": 1,
            "time": 116.6549999999992,
            "value": 0.4409448818897638
          },
          {
            "number": 1,
            "time": 116.66499999999921,
            "value": 0.5039370078740157
          },
          {
            "number": 1,
            "time": 116.67499999999922,
            "value": 0.6220472440944882
          },
          {
            "number": 1,
            "time": 116.67999999999921,
            "value": 0.7637795275590551
          },
          {
            "number": 1,
            "time": 116.6849999999992,
            "value": 0.8110236220472441
          },
          {
            "number": 1,
            "time": 116.6899999999992,
            "value": 0.8346456692913385
          },
          {
            "number": 1,
            "time": 116.6949999999992,
            "value": 0.8582677165354331
          },
          {
            "number": 1,
            "time": 116.70499999999919,
            "value": 0.8661417322834646
          },
          {
            "number": 1,
            "time": 116.70999999999918,
            "value": 0.8740157480314961
          },
          {
            "number": 1,
            "time": 116.71999999999919,
            "value": 0.8818897637795275
          },
          {
            "number": 1,
            "time": 116.72499999999918,
            "value": 0.889763779527559
          },
          {
            "number": 1,
            "time": 116.79999999999919,
            "value": 0.8976377952755905
          },
          {
            "number": 1,
            "time": 116.8399999999992,
            "value": 0.889763779527559
          },
          {
            "number": 1,
            "time": 116.9749999999992,
            "value": 0.8818897637795275
          },
          {
            "number": 1,
            "time": 116.9799999999992,
            "value": 0.4330708661417323
          },
          {
            "number": 1,
            "time": 116.98499999999919,
            "value": 0.2440944881889764
          },
          {
            "number": 1,
            "time": 116.98999999999918,
            "value": 0.16535433070866143
          },
          {
            "number": 1,
            "time": 116.99499999999918,
            "value": 0.14960629921259844
          },
          {
            "number": 1,
            "time": 117.00499999999917,
            "value": 0.13385826771653545
          },
          {
            "number": 1,
            "time": 117.00999999999917,
            "value": 0
          },
          {
            "number": 1,
            "time": 133.91499999999746,
            "value": 0.031496062992125984
          },
          {
            "number": 1,
            "time": 133.92999999999745,
            "value": 0.03937007874015748
          },
          {
            "number": 1,
            "time": 133.93499999999744,
            "value": 0.047244094488188976
          },
          {
            "number": 1,
            "time": 133.93999999999744,
            "value": 0.06299212598425197
          },
          {
            "number": 1,
            "time": 133.94499999999744,
            "value": 0.07086614173228346
          },
          {
            "number": 1,
            "time": 133.95999999999742,
            "value": 0.07874015748031496
          },
          {
            "number": 1,
            "time": 133.96499999999742,
            "value": 0.09448818897637795
          },
          {
            "number": 1,
            "time": 133.9749999999974,
            "value": 0.10236220472440945
          },
          {
            "number": 1,
            "time": 133.9899999999974,
            "value": 0.11811023622047244
          },
          {
            "number": 1,
            "time": 133.9949999999974,
            "value": 0.13385826771653545
          },
          {
            "number": 1,
            "time": 134.0299999999974,
            "value": 0.14173228346456693
          },
          {
            "number": 1,
            "time": 134.04499999999737,
            "value": 0.1889763779527559
          },
          {
            "number": 1,
            "time": 134.05499999999736,
            "value": 0.1968503937007874
          },
          {
            "number": 1,
            "time": 134.08999999999733,
            "value": 0.2125984251968504
          },
          {
            "number": 1,
            "time": 134.09499999999733,
            "value": 0.2283464566929134
          },
          {
            "number": 1,
            "time": 134.1349999999973,
            "value": 0.23622047244094488
          },
          {
            "number": 1,
            "time": 134.14499999999728,
            "value": 0.2440944881889764
          },
          {
            "number": 1,
            "time": 134.15499999999727,
            "value": 0.25984251968503935
          },
          {
            "number": 1,
            "time": 134.16499999999726,
            "value": 0.2677165354330709
          },
          {
            "number": 1,
            "time": 134.19999999999723,
            "value": 0.2755905511811024
          },
          {
            "number": 1,
            "time": 134.20999999999722,
            "value": 0.29133858267716534
          },
          {
            "number": 1,
            "time": 134.2249999999972,
            "value": 0.2992125984251969
          },
          {
            "number": 1,
            "time": 134.2349999999972,
            "value": 0.30708661417322836
          },
          {
            "number": 1,
            "time": 134.2699999999972,
            "value": 0.31496062992125984
          },
          {
            "number": 1,
            "time": 134.28499999999718,
            "value": 0.33070866141732286
          },
          {
            "number": 1,
            "time": 134.29499999999717,
            "value": 0.33858267716535434
          },
          {
            "number": 1,
            "time": 134.30499999999716,
            "value": 0.3464566929133858
          },
          {
            "number": 1,
            "time": 134.31999999999715,
            "value": 0.3543307086614173
          },
          {
            "number": 1,
            "time": 134.35499999999712,
            "value": 0.3700787401574803
          },
          {
            "number": 1,
            "time": 134.35999999999711,
            "value": 0.3779527559055118
          },
          {
            "number": 1,
            "time": 134.4049999999971,
            "value": 0.3858267716535433
          },
          {
            "number": 1,
            "time": 134.4149999999971,
            "value": 0.3937007874015748
          },
          {
            "number": 1,
            "time": 134.42499999999708,
            "value": 0.4015748031496063
          },
          {
            "number": 1,
            "time": 134.43999999999707,
            "value": 0.4094488188976378
          },
          {
            "number": 1,
            "time": 134.44999999999706,
            "value": 0.41732283464566927
          },
          {
            "number": 1,
            "time": 134.46499999999705,
            "value": 0.4330708661417323
          },
          {
            "number": 1,
            "time": 134.509999999997,
            "value": 0.4409448818897638
          },
          {
            "number": 1,
            "time": 134.524999999997,
            "value": 0.44881889763779526
          },
          {
            "number": 1,
            "time": 134.53499999999698,
            "value": 0.4566929133858268
          },
          {
            "number": 1,
            "time": 134.53999999999698,
            "value": 0.4645669291338583
          },
          {
            "number": 1,
            "time": 134.57499999999695,
            "value": 0.47244094488188976
          },
          {
            "number": 1,
            "time": 134.61999999999694,
            "value": 0.4881889763779528
          },
          {
            "number": 1,
            "time": 134.62499999999693,
            "value": 0.49606299212598426
          },
          {
            "number": 1,
            "time": 134.6599999999969,
            "value": 0.5039370078740157
          },
          {
            "number": 1,
            "time": 134.6649999999969,
            "value": 0.5118110236220472
          },
          {
            "number": 1,
            "time": 134.70499999999686,
            "value": 0.5275590551181102
          },
          {
            "number": 1,
            "time": 134.70999999999685,
            "value": 0.5354330708661418
          },
          {
            "number": 1,
            "time": 134.74499999999685,
            "value": 0.5433070866141733
          },
          {
            "number": 1,
            "time": 134.75499999999684,
            "value": 0.5511811023622047
          },
          {
            "number": 1,
            "time": 134.76999999999683,
            "value": 0.5590551181102362
          },
          {
            "number": 1,
            "time": 134.77499999999682,
            "value": 0.5669291338582677
          },
          {
            "number": 1,
            "time": 134.8099999999968,
            "value": 0.5748031496062992
          },
          {
            "number": 1,
            "time": 134.82499999999678,
            "value": 0.5826771653543307
          },
          {
            "number": 1,
            "time": 134.85999999999675,
            "value": 0.5984251968503937
          },
          {
            "number": 1,
            "time": 134.86999999999674,
            "value": 0.6062992125984252
          },
          {
            "number": 1,
            "time": 134.88499999999672,
            "value": 0.6220472440944882
          },
          {
            "number": 1,
            "time": 134.9199999999967,
            "value": 0.6377952755905512
          },
          {
            "number": 1,
            "time": 134.9249999999967,
            "value": 0.6456692913385826
          },
          {
            "number": 1,
            "time": 134.93499999999668,
            "value": 0.6614173228346457
          },
          {
            "number": 1,
            "time": 134.94999999999666,
            "value": 0.6692913385826772
          },
          {
            "number": 1,
            "time": 134.96499999999665,
            "value": 0.6771653543307087
          },
          {
            "number": 1,
            "time": 134.97499999999664,
            "value": 0.6929133858267716
          },
          {
            "number": 1,
            "time": 134.98999999999663,
            "value": 0.7007874015748031
          },
          {
            "number": 1,
            "time": 134.99499999999662,
            "value": 0.7165354330708661
          },
          {
            "number": 1,
            "time": 135.0049999999966,
            "value": 0.7244094488188977
          },
          {
            "number": 1,
            "time": 135.0149999999966,
            "value": 0.7322834645669292
          },
          {
            "number": 1,
            "time": 135.0249999999966,
            "value": 0.7480314960629921
          },
          {
            "number": 1,
            "time": 135.03999999999658,
            "value": 0.7559055118110236
          },
          {
            "number": 1,
            "time": 135.04499999999658,
            "value": 0.7637795275590551
          },
          {
            "number": 1,
            "time": 135.04999999999657,
            "value": 0.7716535433070866
          },
          {
            "number": 1,
            "time": 135.05499999999657,
            "value": 0.7795275590551181
          },
          {
            "number": 1,
            "time": 135.06999999999655,
            "value": 0.7874015748031497
          },
          {
            "number": 1,
            "time": 135.07499999999655,
            "value": 0.7952755905511811
          },
          {
            "number": 1,
            "time": 135.09499999999653,
            "value": 0.8110236220472441
          },
          {
            "number": 1,
            "time": 135.10999999999652,
            "value": 0.8267716535433071
          },
          {
            "number": 1,
            "time": 135.1249999999965,
            "value": 0.84251968503937
          },
          {
            "number": 1,
            "time": 135.1299999999965,
            "value": 0.8503937007874016
          },
          {
            "number": 1,
            "time": 135.2899999999964,
            "value": 0
          },
          {
            "number": 1,
            "time": 143.5149999999949,
            "value": 0.031496062992125984
          },
          {
            "number": 1,
            "time": 143.52999999999489,
            "value": 0.03937007874015748
          },
          {
            "number": 1,
            "time": 143.53499999999488,
            "value": 0.047244094488188976
          },
          {
            "number": 1,
            "time": 143.53999999999488,
            "value": 0.06299212598425197
          },
          {
            "number": 1,
            "time": 143.54499999999487,
            "value": 0.07086614173228346
          },
          {
            "number": 1,
            "time": 143.55999999999486,
            "value": 0.07874015748031496
          },
          {
            "number": 1,
            "time": 143.56499999999485,
            "value": 0.09448818897637795
          },
          {
            "number": 1,
            "time": 143.57499999999484,
            "value": 0.10236220472440945
          },
          {
            "number": 1,
            "time": 143.58999999999483,
            "value": 0.11811023622047244
          },
          {
            "number": 1,
            "time": 143.59499999999483,
            "value": 0.13385826771653545
          },
          {
            "number": 1,
            "time": 143.62999999999482,
            "value": 0.14173228346456693
          },
          {
            "number": 1,
            "time": 143.6449999999948,
            "value": 0.1889763779527559
          },
          {
            "number": 1,
            "time": 143.6549999999948,
            "value": 0.1968503937007874
          },
          {
            "number": 1,
            "time": 143.68999999999477,
            "value": 0.2125984251968504
          },
          {
            "number": 1,
            "time": 143.69499999999476,
            "value": 0.2283464566929134
          },
          {
            "number": 1,
            "time": 143.73499999999473,
            "value": 0.23622047244094488
          },
          {
            "number": 1,
            "time": 143.74499999999472,
            "value": 0.2440944881889764
          },
          {
            "number": 1,
            "time": 143.7549999999947,
            "value": 0.25984251968503935
          },
          {
            "number": 1,
            "time": 143.7649999999947,
            "value": 0.2677165354330709
          },
          {
            "number": 1,
            "time": 143.79999999999467,
            "value": 0.2755905511811024
          },
          {
            "number": 1,
            "time": 143.80999999999466,
            "value": 0.29133858267716534
          },
          {
            "number": 1,
            "time": 143.82499999999465,
            "value": 0.2992125984251969
          },
          {
            "number": 1,
            "time": 143.83499999999464,
            "value": 0.30708661417322836
          },
          {
            "number": 1,
            "time": 143.86999999999463,
            "value": 0.31496062992125984
          },
          {
            "number": 1,
            "time": 143.88499999999462,
            "value": 0.33070866141732286
          },
          {
            "number": 1,
            "time": 143.8949999999946,
            "value": 0.33858267716535434
          },
          {
            "number": 1,
            "time": 143.9049999999946,
            "value": 0.3464566929133858
          },
          {
            "number": 1,
            "time": 143.9199999999946,
            "value": 0.3543307086614173
          },
          {
            "number": 1,
            "time": 143.95499999999456,
            "value": 0.3700787401574803
          },
          {
            "number": 1,
            "time": 143.95999999999455,
            "value": 0.3779527559055118
          },
          {
            "number": 1,
            "time": 143.99999999999454,
            "value": 0.03937007874015748
          },
          {
            "number": 1,
            "time": 144.00999999999453,
            "value": 0.05511811023622047
          },
          {
            "number": 1,
            "time": 144.01499999999453,
            "value": 0.06299212598425197
          },
          {
            "number": 1,
            "time": 144.01999999999452,
            "value": 0.07086614173228346
          },
          {
            "number": 1,
            "time": 144.02499999999452,
            "value": 0.09448818897637795
          },
          {
            "number": 1,
            "time": 144.0399999999945,
            "value": 0.11023622047244094
          },
          {
            "number": 1,
            "time": 144.0449999999945,
            "value": 0.12598425196850394
          },
          {
            "number": 1,
            "time": 144.0499999999945,
            "value": 0.14173228346456693
          },
          {
            "number": 1,
            "time": 144.0599999999945,
            "value": 0.15748031496062992
          },
          {
            "number": 1,
            "time": 144.06999999999448,
            "value": 0.16535433070866143
          },
          {
            "number": 1,
            "time": 144.07499999999447,
            "value": 0.18110236220472442
          },
          {
            "number": 1,
            "time": 144.08499999999447,
            "value": 0.1889763779527559
          },
          {
            "number": 1,
            "time": 144.08999999999446,
            "value": 0.1968503937007874
          },
          {
            "number": 1,
            "time": 144.09999999999445,
            "value": 0.2440944881889764
          },
          {
            "number": 1,
            "time": 144.10999999999444,
            "value": 0.25196850393700787
          },
          {
            "number": 1,
            "time": 144.11499999999444,
            "value": 0.2992125984251969
          },
          {
            "number": 1,
            "time": 144.12999999999442,
            "value": 0.30708661417322836
          },
          {
            "number": 1,
            "time": 144.1649999999944,
            "value": 0.3543307086614173
          },
          {
            "number": 1,
            "time": 144.17499999999438,
            "value": 0.36220472440944884
          },
          {
            "number": 1,
            "time": 144.18999999999437,
            "value": 0.3779527559055118
          },
          {
            "number": 1,
            "time": 144.22499999999434,
            "value": 0.3858267716535433
          },
          {
            "number": 1,
            "time": 144.23499999999433,
            "value": 0.4015748031496063
          },
          {
            "number": 1,
            "time": 144.26999999999433,
            "value": 0.41732283464566927
          },
          {
            "number": 1,
            "time": 144.2849999999943,
            "value": 0.4251968503937008
          },
          {
            "number": 1,
            "time": 144.31999999999428,
            "value": 0.4409448818897638
          },
          {
            "number": 1,
            "time": 144.35499999999428,
            "value": 0.4566929133858268
          },
          {
            "number": 1,
            "time": 144.35999999999427,
            "value": 0.4645669291338583
          },
          {
            "number": 1,
            "time": 144.39999999999426,
            "value": 0.48031496062992124
          },
          {
            "number": 1,
            "time": 144.43499999999423,
            "value": 0.4881889763779528
          },
          {
            "number": 1,
            "time": 144.43999999999423,
            "value": 0.5039370078740157
          },
          {
            "number": 1,
            "time": 144.4749999999942,
            "value": 0.5118110236220472
          },
          {
            "number": 1,
            "time": 144.4799999999942,
            "value": 0.5196850393700787
          },
          {
            "number": 1,
            "time": 144.51999999999416,
            "value": 0.5275590551181102
          },
          {
            "number": 1,
            "time": 144.52499999999415,
            "value": 0.5354330708661418
          },
          {
            "number": 1,
            "time": 144.55999999999412,
            "value": 0.5433070866141733
          },
          {
            "number": 1,
            "time": 144.5699999999941,
            "value": 0.5511811023622047
          },
          {
            "number": 1,
            "time": 144.5849999999941,
            "value": 0.5590551181102362
          },
          {
            "number": 1,
            "time": 144.5949999999941,
            "value": 0.5748031496062992
          },
          {
            "number": 1,
            "time": 144.62999999999406,
            "value": 0.5826771653543307
          },
          {
            "number": 1,
            "time": 144.66999999999402,
            "value": 0.5905511811023622
          },
          {
            "number": 1,
            "time": 144.67499999999401,
            "value": 0.5984251968503937
          },
          {
            "number": 1,
            "time": 144.70999999999398,
            "value": 0.6062992125984252
          },
          {
            "number": 1,
            "time": 144.71999999999397,
            "value": 0.6141732283464567
          },
          {
            "number": 1,
            "time": 144.73499999999396,
            "value": 0.6299212598425197
          },
          {
            "number": 1,
            "time": 144.73999999999396,
            "value": 0.6377952755905512
          },
          {
            "number": 1,
            "time": 144.76499999999393,
            "value": 0.6535433070866141
          },
          {
            "number": 1,
            "time": 144.77499999999392,
            "value": 0.6614173228346457
          },
          {
            "number": 1,
            "time": 144.7899999999939,
            "value": 0.6771653543307087
          },
          {
            "number": 1,
            "time": 144.8049999999939,
            "value": 0.6850393700787402
          },
          {
            "number": 1,
            "time": 144.8099999999939,
            "value": 0.6929133858267716
          },
          {
            "number": 1,
            "time": 144.82499999999388,
            "value": 0.7007874015748031
          },
          {
            "number": 1,
            "time": 144.83499999999387,
            "value": 0.7086614173228346
          },
          {
            "number": 1,
            "time": 144.85499999999385,
            "value": 0.7165354330708661
          },
          {
            "number": 1,
            "time": 144.86499999999384,
            "value": 0.7244094488188977
          },
          {
            "number": 1,
            "time": 144.88499999999385,
            "value": 0.7322834645669292
          },
          {
            "number": 1,
            "time": 144.89999999999384,
            "value": 0.7401574803149606
          },
          {
            "number": 1,
            "time": 144.93999999999383,
            "value": 0.7322834645669292
          },
          {
            "number": 1,
            "time": 144.94499999999383,
            "value": 0.7244094488188977
          },
          {
            "number": 1,
            "time": 144.95499999999382,
            "value": 0.6614173228346457
          },
          {
            "number": 1,
            "time": 144.9699999999938,
            "value": 0.6456692913385826
          },
          {
            "number": 1,
            "time": 144.9799999999938,
            "value": 0.5984251968503937
          },
          {
            "number": 1,
            "time": 144.9849999999938,
            "value": 0.5511811023622047
          },
          {
            "number": 1,
            "time": 144.99999999999378,
            "value": 0.5039370078740157
          },
          {
            "number": 1,
            "time": 145.00499999999377,
            "value": 0.4566929133858268
          },
          {
            "number": 1,
            "time": 145.00999999999377,
            "value": 0.3937007874015748
          },
          {
            "number": 1,
            "time": 145.01999999999376,
            "value": 0.3464566929133858
          },
          {
            "number": 1,
            "time": 145.02999999999375,
            "value": 0.28346456692913385
          },
          {
            "number": 1,
            "time": 145.03499999999374,
            "value": 0.23622047244094488
          },
          {
            "number": 1,
            "time": 145.04499999999373,
            "value": 0.1889763779527559
          },
          {
            "number": 1,
            "time": 145.04999999999373,
            "value": 0.1732283464566929
          },
          {
            "number": 1,
            "time": 145.05999999999372,
            "value": 0.15748031496062992
          },
          {
            "number": 1,
            "time": 145.06499999999372,
            "value": 0.14173228346456693
          },
          {
            "number": 1,
            "time": 145.0699999999937,
            "value": 0.12598425196850394
          },
          {
            "number": 1,
            "time": 145.0749999999937,
            "value": 0.11023622047244094
          },
          {
            "number": 1,
            "time": 145.0799999999937,
            "value": 0.09448818897637795
          },
          {
            "number": 1,
            "time": 145.0899999999937,
            "value": 0.07874015748031496
          },
          {
            "number": 1,
            "time": 145.0949999999937,
            "value": 0.06299212598425197
          },
          {
            "number": 1,
            "time": 145.09999999999368,
            "value": 0.047244094488188976
          },
          {
            "number": 1,
            "time": 145.10499999999368,
            "value": 0.023622047244094488
          },
          {
            "number": 1,
            "time": 145.11999999999367,
            "value": 0.007874015748031496
          },
          {
            "number": 1,
            "time": 145.12499999999366,
            "value": 0
          },
          {
            "number": 1,
            "time": 148.01499999999334,
            "value": 0.05511811023622047
          },
          {
            "number": 1,
            "time": 148.0549999999933,
            "value": 0.07086614173228346
          },
          {
            "number": 1,
            "time": 148.0649999999933,
            "value": 0.07874015748031496
          },
          {
            "number": 1,
            "time": 148.0999999999933,
            "value": 0.08661417322834646
          },
          {
            "number": 1,
            "time": 148.11499999999327,
            "value": 0.10236220472440945
          },
          {
            "number": 1,
            "time": 148.14999999999327,
            "value": 0.11023622047244094
          },
          {
            "number": 1,
            "time": 148.19499999999329,
            "value": 0.11811023622047244
          },
          {
            "number": 1,
            "time": 148.23499999999325,
            "value": 0.12598425196850394
          },
          {
            "number": 1,
            "time": 148.26999999999325,
            "value": 0.13385826771653545
          },
          {
            "number": 1,
            "time": 148.30499999999324,
            "value": 0.14173228346456693
          },
          {
            "number": 1,
            "time": 148.33999999999324,
            "value": 0.14960629921259844
          },
          {
            "number": 1,
            "time": 148.38999999999322,
            "value": 0.16535433070866143
          },
          {
            "number": 1,
            "time": 148.4349999999932,
            "value": 0.1732283464566929
          },
          {
            "number": 1,
            "time": 148.4749999999932,
            "value": 0.18110236220472442
          },
          {
            "number": 1,
            "time": 148.5199999999932,
            "value": 0.1968503937007874
          },
          {
            "number": 1,
            "time": 148.55499999999319,
            "value": 0.2047244094488189
          },
          {
            "number": 1,
            "time": 148.59499999999315,
            "value": 0.2125984251968504
          },
          {
            "number": 1,
            "time": 148.62999999999315,
            "value": 0.2204724409448819
          },
          {
            "number": 1,
            "time": 148.6649999999931,
            "value": 0.2283464566929134
          },
          {
            "number": 1,
            "time": 148.69999999999308,
            "value": 0.23622047244094488
          },
          {
            "number": 1,
            "time": 148.74999999999307,
            "value": 0.2440944881889764
          },
          {
            "number": 1,
            "time": 148.79499999999302,
            "value": 0.25984251968503935
          },
          {
            "number": 1,
            "time": 148.83499999999302,
            "value": 0.2677165354330709
          },
          {
            "number": 1,
            "time": 148.879999999993,
            "value": 0.2755905511811024
          },
          {
            "number": 1,
            "time": 148.929999999993,
            "value": 0.29133858267716534
          },
          {
            "number": 1,
            "time": 148.96499999999295,
            "value": 0.2992125984251969
          },
          {
            "number": 1,
            "time": 148.97499999999295,
            "value": 0.30708661417322836
          },
          {
            "number": 1,
            "time": 149.0249999999929,
            "value": 0.3228346456692913
          },
          {
            "number": 1,
            "time": 149.0599999999929,
            "value": 0.33070866141732286
          },
          {
            "number": 1,
            "time": 149.07499999999288,
            "value": 0.33858267716535434
          },
          {
            "number": 1,
            "time": 149.09499999999287,
            "value": 0.3464566929133858
          },
          {
            "number": 1,
            "time": 149.13499999999286,
            "value": 0.3543307086614173
          },
          {
            "number": 1,
            "time": 149.15499999999284,
            "value": 0.36220472440944884
          },
          {
            "number": 1,
            "time": 149.19999999999283,
            "value": 0.3700787401574803
          },
          {
            "number": 1,
            "time": 149.2249999999928,
            "value": 0.3858267716535433
          },
          {
            "number": 1,
            "time": 149.2649999999928,
            "value": 0.3937007874015748
          },
          {
            "number": 1,
            "time": 149.28499999999278,
            "value": 0.4015748031496063
          },
          {
            "number": 1,
            "time": 149.3049999999928,
            "value": 0.4094488188976378
          },
          {
            "number": 1,
            "time": 149.31999999999277,
            "value": 0.41732283464566927
          },
          {
            "number": 1,
            "time": 149.35499999999277,
            "value": 0.4251968503937008
          },
          {
            "number": 1,
            "time": 149.43499999999275,
            "value": 0
          },
          {
            "number": 1,
            "time": 153.3849999999915,
            "value": 0.08661417322834646
          },
          {
            "number": 1,
            "time": 153.42999999999148,
            "value": 0.10236220472440945
          },
          {
            "number": 1,
            "time": 153.4749999999915,
            "value": 0.14960629921259844
          },
          {
            "number": 1,
            "time": 153.53499999999147,
            "value": 0.16535433070866143
          },
          {
            "number": 1,
            "time": 153.54999999999146,
            "value": 0.2125984251968504
          },
          {
            "number": 1,
            "time": 153.59499999999142,
            "value": 0.2755905511811024
          },
          {
            "number": 1,
            "time": 153.5999999999914,
            "value": 0.03937007874015748
          },
          {
            "number": 1,
            "time": 153.6099999999914,
            "value": 0.05511811023622047
          },
          {
            "number": 1,
            "time": 153.6149999999914,
            "value": 0.06299212598425197
          },
          {
            "number": 1,
            "time": 153.6199999999914,
            "value": 0.07086614173228346
          },
          {
            "number": 1,
            "time": 153.6249999999914,
            "value": 0.09448818897637795
          },
          {
            "number": 1,
            "time": 153.63999999999137,
            "value": 0.11023622047244094
          },
          {
            "number": 1,
            "time": 153.64499999999137,
            "value": 0.12598425196850394
          },
          {
            "number": 1,
            "time": 153.64999999999137,
            "value": 0.14173228346456693
          },
          {
            "number": 1,
            "time": 153.65499999999136,
            "value": 0.33858267716535434
          },
          {
            "number": 1,
            "time": 153.65999999999136,
            "value": 0.15748031496062992
          },
          {
            "number": 1,
            "time": 153.66999999999135,
            "value": 0.16535433070866143
          },
          {
            "number": 1,
            "time": 153.67499999999134,
            "value": 0.18110236220472442
          },
          {
            "number": 1,
            "time": 153.68499999999133,
            "value": 0.1889763779527559
          },
          {
            "number": 1,
            "time": 153.68999999999133,
            "value": 0.1968503937007874
          },
          {
            "number": 1,
            "time": 153.69999999999132,
            "value": 0.2440944881889764
          },
          {
            "number": 1,
            "time": 153.7099999999913,
            "value": 0.25196850393700787
          },
          {
            "number": 1,
            "time": 153.7149999999913,
            "value": 0.3858267716535433
          },
          {
            "number": 1,
            "time": 153.7149999999913,
            "value": 0.2992125984251969
          },
          {
            "number": 1,
            "time": 153.7299999999913,
            "value": 0.30708661417322836
          },
          {
            "number": 1,
            "time": 153.75999999999127,
            "value": 0.44881889763779526
          },
          {
            "number": 1,
            "time": 153.76499999999126,
            "value": 0.3543307086614173
          },
          {
            "number": 1,
            "time": 153.77499999999125,
            "value": 0.36220472440944884
          },
          {
            "number": 1,
            "time": 153.78999999999124,
            "value": 0.3779527559055118
          },
          {
            "number": 1,
            "time": 153.8199999999912,
            "value": 0.5118110236220472
          },
          {
            "number": 1,
            "time": 153.8249999999912,
            "value": 0.3858267716535433
          },
          {
            "number": 1,
            "time": 153.8349999999912,
            "value": 0.5590551181102362
          },
          {
            "number": 1,
            "time": 153.8349999999912,
            "value": 0.4015748031496063
          },
          {
            "number": 1,
            "time": 153.86999999999117,
            "value": 0.41732283464566927
          },
          {
            "number": 1,
            "time": 153.87999999999116,
            "value": 0.6220472440944882
          },
          {
            "number": 1,
            "time": 153.88499999999115,
            "value": 0.4251968503937008
          },
          {
            "number": 1,
            "time": 153.91999999999112,
            "value": 0.4409448818897638
          },
          {
            "number": 1,
            "time": 153.92499999999112,
            "value": 0.6377952755905512
          },
          {
            "number": 1,
            "time": 153.9399999999911,
            "value": 0.6850393700787402
          },
          {
            "number": 1,
            "time": 153.9549999999911,
            "value": 0.7007874015748031
          },
          {
            "number": 1,
            "time": 153.9549999999911,
            "value": 0.4566929133858268
          },
          {
            "number": 1,
            "time": 153.95999999999108,
            "value": 0.4645669291338583
          },
          {
            "number": 1,
            "time": 153.96999999999107,
            "value": 0.7165354330708661
          },
          {
            "number": 1,
            "time": 153.98499999999106,
            "value": 0.7637795275590551
          },
          {
            "number": 1,
            "time": 153.99999999999105,
            "value": 0.48031496062992124
          },
          {
            "number": 1,
            "time": 153.99999999999105,
            "value": 0.7716535433070866
          },
          {
            "number": 1,
            "time": 154.01499999999103,
            "value": 0.8188976377952756
          },
          {
            "number": 1,
            "time": 154.02999999999102,
            "value": 0.8267716535433071
          },
          {
            "number": 1,
            "time": 154.03499999999102,
            "value": 0.4881889763779528
          },
          {
            "number": 1,
            "time": 154.039999999991,
            "value": 0.5039370078740157
          },
          {
            "number": 1,
            "time": 154.044999999991,
            "value": 0.84251968503937
          },
          {
            "number": 1,
            "time": 154.049999999991,
            "value": 0.8582677165354331
          },
          {
            "number": 1,
            "time": 154.064999999991,
            "value": 0.8661417322834646
          },
          {
            "number": 1,
            "time": 154.07499999999098,
            "value": 0.5118110236220472
          },
          {
            "number": 1,
            "time": 154.07999999999097,
            "value": 0.5196850393700787
          },
          {
            "number": 1,
            "time": 154.07999999999097,
            "value": 0.8740157480314961
          },
          {
            "number": 1,
            "time": 154.08999999999097,
            "value": 0.889763779527559
          },
          {
            "number": 1,
            "time": 154.10499999999095,
            "value": 0.8976377952755905
          },
          {
            "number": 1,
            "time": 154.10999999999095,
            "value": 0.9133858267716536
          },
          {
            "number": 1,
            "time": 154.11999999999094,
            "value": 0.5275590551181102
          },
          {
            "number": 1,
            "time": 154.12499999999093,
            "value": 0.5354330708661418
          },
          {
            "number": 1,
            "time": 154.1549999999909,
            "value": 0.9291338582677166
          },
          {
            "number": 1,
            "time": 154.1599999999909,
            "value": 0.5433070866141733
          },
          {
            "number": 1,
            "time": 154.1649999999909,
            "value": 0.952755905511811
          },
          {
            "number": 1,
            "time": 154.1699999999909,
            "value": 0.5511811023622047
          },
          {
            "number": 1,
            "time": 154.17999999999088,
            "value": 0.9606299212598425
          },
          {
            "number": 1,
            "time": 154.18499999999088,
            "value": 0.5590551181102362
          },
          {
            "number": 1,
            "time": 154.18499999999088,
            "value": 0.968503937007874
          },
          {
            "number": 1,
            "time": 154.19499999999087,
            "value": 0.9763779527559056
          },
          {
            "number": 1,
            "time": 154.19499999999087,
            "value": 0.5748031496062992
          },
          {
            "number": 1,
            "time": 154.19999999999087,
            "value": 0.984251968503937
          },
          {
            "number": 1,
            "time": 154.20999999999086,
            "value": 0.9921259842519685
          },
          {
            "number": 1,
            "time": 154.22499999999084,
            "value": 1
          },
          {
            "number": 1,
            "time": 154.22999999999084,
            "value": 0.5826771653543307
          },
          {
            "number": 1,
            "time": 154.2699999999908,
            "value": 0.5905511811023622
          },
          {
            "number": 1,
            "time": 154.2749999999908,
            "value": 0.5984251968503937
          },
          {
            "number": 1,
            "time": 154.30999999999077,
            "value": 0.6062992125984252
          },
          {
            "number": 1,
            "time": 154.31999999999076,
            "value": 0.6141732283464567
          },
          {
            "number": 1,
            "time": 154.33499999999074,
            "value": 0.6299212598425197
          },
          {
            "number": 1,
            "time": 154.33999999999074,
            "value": 0.6377952755905512
          },
          {
            "number": 1,
            "time": 154.36499999999072,
            "value": 0.6535433070866141
          },
          {
            "number": 1,
            "time": 154.3749999999907,
            "value": 0.6614173228346457
          },
          {
            "number": 1,
            "time": 154.3899999999907,
            "value": 0.6771653543307087
          },
          {
            "number": 1,
            "time": 154.40499999999068,
            "value": 0.6850393700787402
          },
          {
            "number": 1,
            "time": 154.40999999999067,
            "value": 0.6929133858267716
          },
          {
            "number": 1,
            "time": 154.41999999999067,
            "value": 0
          },
          {
            "number": 1,
            "time": 154.42499999999066,
            "value": 0.7007874015748031
          },
          {
            "number": 1,
            "time": 154.43499999999065,
            "value": 0.7086614173228346
          },
          {
            "number": 1,
            "time": 154.45499999999063,
            "value": 0.7165354330708661
          },
          {
            "number": 1,
            "time": 154.46499999999062,
            "value": 0.7244094488188977
          },
          {
            "number": 1,
            "time": 154.48499999999063,
            "value": 0.7322834645669292
          },
          {
            "number": 1,
            "time": 154.49999999999062,
            "value": 0.7401574803149606
          },
          {
            "number": 1,
            "time": 154.5399999999906,
            "value": 0.7322834645669292
          },
          {
            "number": 1,
            "time": 154.5449999999906,
            "value": 0.7244094488188977
          },
          {
            "number": 1,
            "time": 154.5549999999906,
            "value": 0.6614173228346457
          },
          {
            "number": 1,
            "time": 154.56999999999059,
            "value": 0.6456692913385826
          },
          {
            "number": 1,
            "time": 154.57999999999058,
            "value": 0.5984251968503937
          },
          {
            "number": 1,
            "time": 154.58499999999057,
            "value": 0.5511811023622047
          },
          {
            "number": 1,
            "time": 154.59999999999056,
            "value": 0.5039370078740157
          },
          {
            "number": 1,
            "time": 154.60499999999055,
            "value": 0.4566929133858268
          },
          {
            "number": 1,
            "time": 154.60999999999055,
            "value": 0.3937007874015748
          },
          {
            "number": 1,
            "time": 154.61999999999054,
            "value": 0.3464566929133858
          },
          {
            "number": 1,
            "time": 154.62999999999053,
            "value": 0.28346456692913385
          },
          {
            "number": 1,
            "time": 154.63499999999053,
            "value": 0.23622047244094488
          },
          {
            "number": 1,
            "time": 154.64499999999052,
            "value": 0.1889763779527559
          },
          {
            "number": 1,
            "time": 154.6499999999905,
            "value": 0.1732283464566929
          },
          {
            "number": 1,
            "time": 154.6599999999905,
            "value": 0.15748031496062992
          },
          {
            "number": 1,
            "time": 154.6649999999905,
            "value": 0.14173228346456693
          },
          {
            "number": 1,
            "time": 154.6699999999905,
            "value": 0.12598425196850394
          },
          {
            "number": 1,
            "time": 154.6749999999905,
            "value": 0.11023622047244094
          },
          {
            "number": 1,
            "time": 154.67999999999049,
            "value": 0.09448818897637795
          },
          {
            "number": 1,
            "time": 154.68999999999048,
            "value": 0.07874015748031496
          },
          {
            "number": 1,
            "time": 154.69499999999047,
            "value": 0.06299212598425197
          },
          {
            "number": 1,
            "time": 154.69999999999047,
            "value": 0.047244094488188976
          },
          {
            "number": 1,
            "time": 154.70499999999046,
            "value": 0.023622047244094488
          },
          {
            "number": 1,
            "time": 154.71999999999045,
            "value": 0.007874015748031496
          },
          {
            "number": 1,
            "time": 154.72499999999044,
            "value": 0
          },
          {
            "number": 1,
            "time": 157.61499999999012,
            "value": 0.05511811023622047
          },
          {
            "number": 1,
            "time": 157.65499999999008,
            "value": 0.07086614173228346
          },
          {
            "number": 1,
            "time": 157.66499999999007,
            "value": 0.07874015748031496
          },
          {
            "number": 1,
            "time": 157.69999999999007,
            "value": 0.08661417322834646
          },
          {
            "number": 1,
            "time": 157.71499999999006,
            "value": 0.10236220472440945
          },
          {
            "number": 1,
            "time": 157.74999999999005,
            "value": 0.11023622047244094
          },
          {
            "number": 1,
            "time": 157.79499999999007,
            "value": 0.11811023622047244
          },
          {
            "number": 1,
            "time": 157.83499999999003,
            "value": 0.12598425196850394
          },
          {
            "number": 1,
            "time": 157.86999999999003,
            "value": 0.13385826771653545
          },
          {
            "number": 1,
            "time": 157.90499999999003,
            "value": 0.14173228346456693
          },
          {
            "number": 1,
            "time": 157.93999999999002,
            "value": 0.14960629921259844
          },
          {
            "number": 1,
            "time": 157.98999999999,
            "value": 0.16535433070866143
          },
          {
            "number": 1,
            "time": 158.03499999999,
            "value": 0.1732283464566929
          },
          {
            "number": 1,
            "time": 158.07499999998998,
            "value": 0.18110236220472442
          },
          {
            "number": 1,
            "time": 158.11999999998997,
            "value": 0.1968503937007874
          },
          {
            "number": 1,
            "time": 158.15499999998997,
            "value": 0.2047244094488189
          },
          {
            "number": 1,
            "time": 158.19499999998993,
            "value": 0.2125984251968504
          },
          {
            "number": 1,
            "time": 158.22999999998993,
            "value": 0.2204724409448819
          },
          {
            "number": 1,
            "time": 158.2649999999899,
            "value": 0.2283464566929134
          },
          {
            "number": 1,
            "time": 158.29999999998986,
            "value": 0.23622047244094488
          },
          {
            "number": 1,
            "time": 158.34999999998985,
            "value": 0.2440944881889764
          },
          {
            "number": 1,
            "time": 158.3949999999898,
            "value": 0.25984251968503935
          },
          {
            "number": 1,
            "time": 158.4349999999898,
            "value": 0.2677165354330709
          },
          {
            "number": 1,
            "time": 158.4799999999898,
            "value": 0.2755905511811024
          },
          {
            "number": 1,
            "time": 158.52999999998977,
            "value": 0.29133858267716534
          },
          {
            "number": 1,
            "time": 158.56499999998974,
            "value": 0.2992125984251969
          },
          {
            "number": 1,
            "time": 158.57499999998973,
            "value": 0.30708661417322836
          },
          {
            "number": 1,
            "time": 158.62499999998968,
            "value": 0.3228346456692913
          },
          {
            "number": 1,
            "time": 158.65999999998968,
            "value": 0.33070866141732286
          },
          {
            "number": 1,
            "time": 158.67499999998967,
            "value": 0.33858267716535434
          },
          {
            "number": 1,
            "time": 158.69499999998965,
            "value": 0.3464566929133858
          },
          {
            "number": 1,
            "time": 158.73499999998964,
            "value": 0.3543307086614173
          },
          {
            "number": 1,
            "time": 158.75499999998962,
            "value": 0.36220472440944884
          },
          {
            "number": 1,
            "time": 158.7999999999896,
            "value": 0.3700787401574803
          },
          {
            "number": 1,
            "time": 158.8249999999896,
            "value": 0.3858267716535433
          },
          {
            "number": 1,
            "time": 158.86499999998958,
            "value": 0.3937007874015748
          },
          {
            "number": 1,
            "time": 158.88499999998956,
            "value": 0.4015748031496063
          },
          {
            "number": 1,
            "time": 158.90499999998957,
            "value": 0.4094488188976378
          },
          {
            "number": 1,
            "time": 158.91999999998956,
            "value": 0.41732283464566927
          },
          {
            "number": 1,
            "time": 158.95499999998955,
            "value": 0.4251968503937008
          },
          {
            "number": 1,
            "time": 159.03499999998954,
            "value": 0
          },
          {
            "number": 1,
            "time": 163.21499999998878,
            "value": 0.06299212598425197
          },
          {
            "number": 1,
            "time": 163.22499999998877,
            "value": 0.07086614173228346
          },
          {
            "number": 1,
            "time": 163.26499999998876,
            "value": 0.11811023622047244
          },
          {
            "number": 1,
            "time": 163.29999999998876,
            "value": 0.13385826771653545
          },
          {
            "number": 1,
            "time": 163.34499999998874,
            "value": 0.18110236220472442
          },
          {
            "number": 1,
            "time": 163.39499999998876,
            "value": 0.2283464566929134
          },
          {
            "number": 1,
            "time": 163.44499999998874,
            "value": 0.2755905511811024
          },
          {
            "number": 1,
            "time": 163.47999999998873,
            "value": 0.3228346456692913
          },
          {
            "number": 1,
            "time": 163.48999999998873,
            "value": 0.3700787401574803
          },
          {
            "number": 1,
            "time": 163.52499999998872,
            "value": 0.3858267716535433
          },
          {
            "number": 1,
            "time": 163.5399999999887,
            "value": 0.4330708661417323
          },
          {
            "number": 1,
            "time": 163.5749999999887,
            "value": 0.44881889763779526
          },
          {
            "number": 1,
            "time": 163.6349999999887,
            "value": 0.4645669291338583
          },
          {
            "number": 1,
            "time": 163.6949999999887,
            "value": 0.48031496062992124
          },
          {
            "number": 1,
            "time": 163.7549999999887,
            "value": 0.5275590551181102
          },
          {
            "number": 1,
            "time": 163.80499999998872,
            "value": 0.5748031496062992
          },
          {
            "number": 1,
            "time": 163.8649999999887,
            "value": 0.6377952755905512
          },
          {
            "number": 1,
            "time": 163.9249999999887,
            "value": 0.7007874015748031
          },
          {
            "number": 1,
            "time": 163.9849999999887,
            "value": 0.7637795275590551
          },
          {
            "number": 1,
            "time": 164.0199999999887,
            "value": 0.7795275590551181
          },
          {
            "number": 1,
            "time": 164.0299999999887,
            "value": 0.7952755905511811
          },
          {
            "number": 1,
            "time": 164.0649999999887,
            "value": 0.8110236220472441
          },
          {
            "number": 1,
            "time": 164.07499999998868,
            "value": 0.8188976377952756
          },
          {
            "number": 1,
            "time": 164.07999999998867,
            "value": 0.8267716535433071
          },
          {
            "number": 1,
            "time": 164.08999999998866,
            "value": 0.8346456692913385
          },
          {
            "number": 1,
            "time": 164.10499999998865,
            "value": 0.84251968503937
          },
          {
            "number": 1,
            "time": 164.12499999998863,
            "value": 0.8582677165354331
          },
          {
            "number": 1,
            "time": 164.1649999999886,
            "value": 0.8661417322834646
          },
          {
            "number": 1,
            "time": 164.19999999998856,
            "value": 0.8740157480314961
          },
          {
            "number": 1,
            "time": 164.20999999998855,
            "value": 0.889763779527559
          },
          {
            "number": 1,
            "time": 164.22499999998854,
            "value": 0.8976377952755905
          },
          {
            "number": 1,
            "time": 164.22999999998854,
            "value": 0.905511811023622
          },
          {
            "number": 1,
            "time": 164.23499999998853,
            "value": 0.9133858267716536
          },
          {
            "number": 1,
            "time": 164.23999999998853,
            "value": 0.9212598425196851
          },
          {
            "number": 1,
            "time": 164.27499999998852,
            "value": 0.9291338582677166
          },
          {
            "number": 1,
            "time": 164.2949999999885,
            "value": 0.937007874015748
          },
          {
            "number": 1,
            "time": 164.2999999999885,
            "value": 0.9448818897637795
          },
          {
            "number": 1,
            "time": 164.3149999999885,
            "value": 0.952755905511811
          },
          {
            "number": 1,
            "time": 164.46499999998846,
            "value": 0.007874015748031496
          },
          {
            "number": 1,
            "time": 168.29999999998788,
            "value": 0.08661417322834646
          },
          {
            "number": 1,
            "time": 168.30999999998787,
            "value": 0.13385826771653545
          },
          {
            "number": 1,
            "time": 168.32499999998785,
            "value": 0.14960629921259844
          },
          {
            "number": 1,
            "time": 168.35999999998782,
            "value": 0.1968503937007874
          },
          {
            "number": 1,
            "time": 168.39499999998782,
            "value": 0.2440944881889764
          },
          {
            "number": 1,
            "time": 168.4099999999878,
            "value": 0.25984251968503935
          },
          {
            "number": 1,
            "time": 168.4199999999878,
            "value": 0.30708661417322836
          },
          {
            "number": 1,
            "time": 168.42999999998779,
            "value": 0.3543307086614173
          },
          {
            "number": 1,
            "time": 168.47999999998777,
            "value": 0.41732283464566927
          },
          {
            "number": 1,
            "time": 168.51499999998777,
            "value": 0.48031496062992124
          },
          {
            "number": 1,
            "time": 168.56499999998775,
            "value": 0.5275590551181102
          },
          {
            "number": 1,
            "time": 168.57499999998774,
            "value": 0.5433070866141733
          },
          {
            "number": 1,
            "time": 168.58999999998773,
            "value": 0.5905511811023622
          },
          {
            "number": 1,
            "time": 168.59999999998772,
            "value": 0.5984251968503937
          },
          {
            "number": 1,
            "time": 168.6049999999877,
            "value": 0.6062992125984252
          },
          {
            "number": 1,
            "time": 168.6099999999877,
            "value": 0.6141732283464567
          },
          {
            "number": 1,
            "time": 168.6199999999877,
            "value": 0.6220472440944882
          },
          {
            "number": 1,
            "time": 168.6249999999877,
            "value": 0.6299212598425197
          },
          {
            "number": 1,
            "time": 168.63499999998768,
            "value": 0.6456692913385826
          },
          {
            "number": 1,
            "time": 168.64999999998767,
            "value": 0.6535433070866141
          },
          {
            "number": 1,
            "time": 168.65499999998767,
            "value": 0.6614173228346457
          },
          {
            "number": 1,
            "time": 168.65999999998766,
            "value": 0.6692913385826772
          },
          {
            "number": 1,
            "time": 168.66499999998766,
            "value": 0.6771653543307087
          },
          {
            "number": 1,
            "time": 168.67999999998764,
            "value": 0.6850393700787402
          },
          {
            "number": 1,
            "time": 168.68499999998764,
            "value": 0.7007874015748031
          },
          {
            "number": 1,
            "time": 168.69499999998763,
            "value": 0.7086614173228346
          },
          {
            "number": 1,
            "time": 168.69999999998763,
            "value": 0.7165354330708661
          },
          {
            "number": 1,
            "time": 168.7149999999876,
            "value": 0.7244094488188977
          },
          {
            "number": 1,
            "time": 168.7249999999876,
            "value": 0.7322834645669292
          },
          {
            "number": 1,
            "time": 168.7299999999876,
            "value": 0.7401574803149606
          },
          {
            "number": 1,
            "time": 168.74999999998758,
            "value": 0.7480314960629921
          },
          {
            "number": 1,
            "time": 168.77499999998756,
            "value": 0.7559055118110236
          },
          {
            "number": 1,
            "time": 168.78999999998754,
            "value": 0.7637795275590551
          },
          {
            "number": 1,
            "time": 168.80499999998753,
            "value": 0.7716535433070866
          },
          {
            "number": 1,
            "time": 168.8299999999875,
            "value": 0.7795275590551181
          },
          {
            "number": 1,
            "time": 168.8449999999875,
            "value": 0.7874015748031497
          },
          {
            "number": 1,
            "time": 168.85999999998748,
            "value": 0.7952755905511811
          },
          {
            "number": 1,
            "time": 168.95499999998745,
            "value": 0
          },
          {
            "number": 1,
            "time": 192.00499999998706,
            "value": 0.03937007874015748
          },
          {
            "number": 1,
            "time": 192.00999999998706,
            "value": 0.05511811023622047
          },
          {
            "number": 1,
            "time": 192.04999999998705,
            "value": 0.06299212598425197
          },
          {
            "number": 1,
            "time": 192.05499999998705,
            "value": 0.07086614173228346
          },
          {
            "number": 1,
            "time": 192.08999999998704,
            "value": 0.07874015748031496
          },
          {
            "number": 1,
            "time": 192.09999999998703,
            "value": 0.08661417322834646
          },
          {
            "number": 1,
            "time": 192.11499999998702,
            "value": 0.09448818897637795
          },
          {
            "number": 1,
            "time": 192.11999999998702,
            "value": 0.10236220472440945
          },
          {
            "number": 1,
            "time": 192.129999999987,
            "value": 0.11023622047244094
          },
          {
            "number": 1,
            "time": 192.139999999987,
            "value": 0.12598425196850394
          },
          {
            "number": 1,
            "time": 192.144999999987,
            "value": 0.13385826771653545
          },
          {
            "number": 1,
            "time": 192.149999999987,
            "value": 0.14173228346456693
          },
          {
            "number": 1,
            "time": 192.15999999998698,
            "value": 0.14960629921259844
          },
          {
            "number": 1,
            "time": 192.16999999998697,
            "value": 0.15748031496062992
          },
          {
            "number": 1,
            "time": 192.17999999998696,
            "value": 0.16535433070866143
          },
          {
            "number": 1,
            "time": 192.18499999998696,
            "value": 0.18110236220472442
          },
          {
            "number": 1,
            "time": 192.21999999998695,
            "value": 0.1889763779527559
          },
          {
            "number": 1,
            "time": 192.22999999998694,
            "value": 0.1968503937007874
          },
          {
            "number": 1,
            "time": 192.23999999998694,
            "value": 0.2125984251968504
          },
          {
            "number": 1,
            "time": 192.24999999998693,
            "value": 0.2204724409448819
          },
          {
            "number": 1,
            "time": 192.25999999998692,
            "value": 0.2283464566929134
          },
          {
            "number": 1,
            "time": 192.2699999999869,
            "value": 0.2440944881889764
          },
          {
            "number": 1,
            "time": 192.2749999999869,
            "value": 0.25984251968503935
          },
          {
            "number": 1,
            "time": 192.2899999999869,
            "value": 0.2755905511811024
          },
          {
            "number": 1,
            "time": 192.29999999998688,
            "value": 0.29133858267716534
          },
          {
            "number": 1,
            "time": 192.30999999998687,
            "value": 0.30708661417322836
          },
          {
            "number": 1,
            "time": 192.32499999998686,
            "value": 0.3228346456692913
          },
          {
            "number": 1,
            "time": 192.33499999998685,
            "value": 0.33858267716535434
          },
          {
            "number": 1,
            "time": 192.34999999998684,
            "value": 0.3464566929133858
          },
          {
            "number": 1,
            "time": 192.35499999998683,
            "value": 0.3543307086614173
          },
          {
            "number": 1,
            "time": 192.35999999998683,
            "value": 0.3700787401574803
          },
          {
            "number": 1,
            "time": 192.36999999998682,
            "value": 0.3779527559055118
          },
          {
            "number": 1,
            "time": 192.3799999999868,
            "value": 0.3858267716535433
          },
          {
            "number": 1,
            "time": 192.3899999999868,
            "value": 0.4015748031496063
          },
          {
            "number": 1,
            "time": 192.3949999999868,
            "value": 0.4094488188976378
          },
          {
            "number": 1,
            "time": 192.40999999998678,
            "value": 0.41732283464566927
          },
          {
            "number": 1,
            "time": 192.41999999998677,
            "value": 0.4645669291338583
          },
          {
            "number": 1,
            "time": 192.45499999998674,
            "value": 0.47244094488188976
          },
          {
            "number": 1,
            "time": 192.46999999998673,
            "value": 0.4881889763779528
          },
          {
            "number": 1,
            "time": 192.50499999998672,
            "value": 0.49606299212598426
          },
          {
            "number": 1,
            "time": 192.5149999999867,
            "value": 0.5039370078740157
          },
          {
            "number": 1,
            "time": 192.5399999999867,
            "value": 0.5196850393700787
          },
          {
            "number": 1,
            "time": 192.56499999998667,
            "value": 0.5275590551181102
          },
          {
            "number": 1,
            "time": 192.57499999998666,
            "value": 0.5354330708661418
          },
          {
            "number": 1,
            "time": 192.57999999998665,
            "value": 0.5511811023622047
          },
          {
            "number": 1,
            "time": 192.61999999998665,
            "value": 0.5590551181102362
          },
          {
            "number": 1,
            "time": 192.62499999998664,
            "value": 0.5669291338582677
          },
          {
            "number": 1,
            "time": 192.63499999998663,
            "value": 0.5826771653543307
          },
          {
            "number": 1,
            "time": 192.63999999998663,
            "value": 0.5905511811023622
          },
          {
            "number": 1,
            "time": 192.64999999998662,
            "value": 0.5984251968503937
          },
          {
            "number": 1,
            "time": 192.6599999999866,
            "value": 0.6062992125984252
          },
          {
            "number": 1,
            "time": 192.6649999999866,
            "value": 0.6141732283464567
          },
          {
            "number": 1,
            "time": 192.68499999998662,
            "value": 0.6220472440944882
          },
          {
            "number": 1,
            "time": 192.6949999999866,
            "value": 0.6299212598425197
          },
          {
            "number": 1,
            "time": 192.7099999999866,
            "value": 0.6456692913385826
          },
          {
            "number": 1,
            "time": 192.71999999998658,
            "value": 0.6535433070866141
          },
          {
            "number": 1,
            "time": 192.75499999998655,
            "value": 0.6614173228346457
          },
          {
            "number": 1,
            "time": 192.76999999998654,
            "value": 0.6692913385826772
          },
          {
            "number": 1,
            "time": 192.8049999999865,
            "value": 0.6771653543307087
          },
          {
            "number": 1,
            "time": 192.8149999999865,
            "value": 0.6850393700787402
          },
          {
            "number": 1,
            "time": 192.82999999998648,
            "value": 0.6929133858267716
          },
          {
            "number": 1,
            "time": 192.87499999998644,
            "value": 0.7086614173228346
          },
          {
            "number": 1,
            "time": 192.89999999998642,
            "value": 0.7165354330708661
          },
          {
            "number": 1,
            "time": 192.9249999999864,
            "value": 0.7244094488188977
          },
          {
            "number": 1,
            "time": 192.9349999999864,
            "value": 0.7322834645669292
          },
          {
            "number": 1,
            "time": 192.96999999998636,
            "value": 0.7401574803149606
          },
          {
            "number": 1,
            "time": 192.98499999998634,
            "value": 0.7480314960629921
          },
          {
            "number": 1,
            "time": 192.99499999998633,
            "value": 0.7559055118110236
          },
          {
            "number": 1,
            "time": 192.99999999998633,
            "value": 0.7637795275590551
          },
          {
            "number": 1,
            "time": 193.00999999998632,
            "value": 0.7716535433070866
          },
          {
            "number": 1,
            "time": 193.0249999999863,
            "value": 0.7795275590551181
          },
          {
            "number": 1,
            "time": 193.0399999999863,
            "value": 0.7874015748031497
          },
          {
            "number": 1,
            "time": 193.0449999999863,
            "value": 0.7952755905511811
          },
          {
            "number": 1,
            "time": 193.04999999998628,
            "value": 0.8031496062992126
          },
          {
            "number": 1,
            "time": 193.08499999998625,
            "value": 0.8110236220472441
          },
          {
            "number": 1,
            "time": 193.08999999998625,
            "value": 0.8188976377952756
          },
          {
            "number": 1,
            "time": 193.10499999998623,
            "value": 0.8267716535433071
          },
          {
            "number": 1,
            "time": 193.10999999998623,
            "value": 0.8346456692913385
          },
          {
            "number": 1,
            "time": 193.11499999998622,
            "value": 0.84251968503937
          },
          {
            "number": 1,
            "time": 193.1399999999862,
            "value": 0.8503937007874016
          },
          {
            "number": 1,
            "time": 193.16499999998618,
            "value": 0.8661417322834646
          },
          {
            "number": 1,
            "time": 193.17499999998617,
            "value": 0.8740157480314961
          },
          {
            "number": 1,
            "time": 193.18999999998616,
            "value": 0.889763779527559
          },
          {
            "number": 1,
            "time": 193.19499999998615,
            "value": 0.8976377952755905
          },
          {
            "number": 1,
            "time": 193.20499999998614,
            "value": 0.905511811023622
          },
          {
            "number": 1,
            "time": 193.29999999998606,
            "value": 0
          },
          {
            "number": 1,
            "time": 201.60499999998535,
            "value": 0.03937007874015748
          },
          {
            "number": 1,
            "time": 201.60999999998535,
            "value": 0.05511811023622047
          },
          {
            "number": 1,
            "time": 201.6499999999853,
            "value": 0.06299212598425197
          },
          {
            "number": 1,
            "time": 201.6549999999853,
            "value": 0.07086614173228346
          },
          {
            "number": 1,
            "time": 201.6899999999853,
            "value": 0.07874015748031496
          },
          {
            "number": 1,
            "time": 201.6999999999853,
            "value": 0.08661417322834646
          },
          {
            "number": 1,
            "time": 201.71499999998528,
            "value": 0.09448818897637795
          },
          {
            "number": 1,
            "time": 201.71999999998528,
            "value": 0.10236220472440945
          },
          {
            "number": 1,
            "time": 201.72999999998527,
            "value": 0.11023622047244094
          },
          {
            "number": 1,
            "time": 201.73999999998526,
            "value": 0.12598425196850394
          },
          {
            "number": 1,
            "time": 201.74499999998525,
            "value": 0.13385826771653545
          },
          {
            "number": 1,
            "time": 201.74999999998525,
            "value": 0.14173228346456693
          },
          {
            "number": 1,
            "time": 201.75999999998524,
            "value": 0.14960629921259844
          },
          {
            "number": 1,
            "time": 201.76999999998523,
            "value": 0.15748031496062992
          },
          {
            "number": 1,
            "time": 201.77999999998522,
            "value": 0.16535433070866143
          },
          {
            "number": 1,
            "time": 201.78499999998522,
            "value": 0.18110236220472442
          },
          {
            "number": 1,
            "time": 201.81999999998519,
            "value": 0.1889763779527559
          },
          {
            "number": 1,
            "time": 201.82999999998518,
            "value": 0.1968503937007874
          },
          {
            "number": 1,
            "time": 201.83999999998517,
            "value": 0.2125984251968504
          },
          {
            "number": 1,
            "time": 201.84999999998516,
            "value": 0.2204724409448819
          },
          {
            "number": 1,
            "time": 201.85999999998515,
            "value": 0.2283464566929134
          },
          {
            "number": 1,
            "time": 201.86999999998514,
            "value": 0.2440944881889764
          },
          {
            "number": 1,
            "time": 201.87499999998514,
            "value": 0.25984251968503935
          },
          {
            "number": 1,
            "time": 201.88999999998512,
            "value": 0.2755905511811024
          },
          {
            "number": 1,
            "time": 201.8999999999851,
            "value": 0.29133858267716534
          },
          {
            "number": 1,
            "time": 201.9099999999851,
            "value": 0.30708661417322836
          },
          {
            "number": 1,
            "time": 201.9249999999851,
            "value": 0.3228346456692913
          },
          {
            "number": 1,
            "time": 201.93499999998508,
            "value": 0.33858267716535434
          },
          {
            "number": 1,
            "time": 201.94999999998507,
            "value": 0.3464566929133858
          },
          {
            "number": 1,
            "time": 201.95499999998506,
            "value": 0.3543307086614173
          },
          {
            "number": 1,
            "time": 201.95999999998506,
            "value": 0.3700787401574803
          },
          {
            "number": 1,
            "time": 201.96999999998505,
            "value": 0.3779527559055118
          },
          {
            "number": 1,
            "time": 201.97999999998504,
            "value": 0.3858267716535433
          },
          {
            "number": 1,
            "time": 201.98999999998503,
            "value": 0.4015748031496063
          },
          {
            "number": 1,
            "time": 201.99499999998503,
            "value": 0.4094488188976378
          },
          {
            "number": 1,
            "time": 202.009999999985,
            "value": 0.41732283464566927
          },
          {
            "number": 1,
            "time": 202.019999999985,
            "value": 0.4645669291338583
          },
          {
            "number": 1,
            "time": 202.05499999998497,
            "value": 0.47244094488188976
          },
          {
            "number": 1,
            "time": 202.06999999998496,
            "value": 0.4881889763779528
          },
          {
            "number": 1,
            "time": 202.10499999998493,
            "value": 0.49606299212598426
          },
          {
            "number": 1,
            "time": 202.11499999998492,
            "value": 0.5039370078740157
          },
          {
            "number": 1,
            "time": 202.13999999998492,
            "value": 0.5196850393700787
          },
          {
            "number": 1,
            "time": 202.1649999999849,
            "value": 0.5275590551181102
          },
          {
            "number": 1,
            "time": 202.1749999999849,
            "value": 0.5354330708661418
          },
          {
            "number": 1,
            "time": 202.1799999999849,
            "value": 0.5511811023622047
          },
          {
            "number": 1,
            "time": 202.21999999998485,
            "value": 0.5590551181102362
          },
          {
            "number": 1,
            "time": 202.22499999998485,
            "value": 0.5669291338582677
          },
          {
            "number": 1,
            "time": 202.23499999998484,
            "value": 0.5826771653543307
          },
          {
            "number": 1,
            "time": 202.23999999998483,
            "value": 0.5905511811023622
          },
          {
            "number": 1,
            "time": 202.24999999998482,
            "value": 0.5984251968503937
          },
          {
            "number": 1,
            "time": 202.2599999999848,
            "value": 0.6062992125984252
          },
          {
            "number": 1,
            "time": 202.2649999999848,
            "value": 0.6141732283464567
          },
          {
            "number": 1,
            "time": 202.2849999999848,
            "value": 0.6220472440944882
          },
          {
            "number": 1,
            "time": 202.29499999998478,
            "value": 0.6299212598425197
          },
          {
            "number": 1,
            "time": 202.30999999998477,
            "value": 0.6456692913385826
          },
          {
            "number": 1,
            "time": 202.31999999998476,
            "value": 0.6535433070866141
          },
          {
            "number": 1,
            "time": 202.35499999998473,
            "value": 0.6614173228346457
          },
          {
            "number": 1,
            "time": 202.3699999999847,
            "value": 0.6692913385826772
          },
          {
            "number": 1,
            "time": 202.40499999998468,
            "value": 0.6771653543307087
          },
          {
            "number": 1,
            "time": 202.41499999998467,
            "value": 0.6850393700787402
          },
          {
            "number": 1,
            "time": 202.42999999998466,
            "value": 0.6929133858267716
          },
          {
            "number": 1,
            "time": 202.47499999998465,
            "value": 0.7086614173228346
          },
          {
            "number": 1,
            "time": 202.49999999998465,
            "value": 0.7165354330708661
          },
          {
            "number": 1,
            "time": 202.52499999998463,
            "value": 0.7244094488188977
          },
          {
            "number": 1,
            "time": 202.53499999998462,
            "value": 0.7322834645669292
          },
          {
            "number": 1,
            "time": 202.56999999998462,
            "value": 0.7401574803149606
          },
          {
            "number": 1,
            "time": 202.5849999999846,
            "value": 0.7480314960629921
          },
          {
            "number": 1,
            "time": 202.5949999999846,
            "value": 0.7559055118110236
          },
          {
            "number": 1,
            "time": 202.5999999999846,
            "value": 0.7637795275590551
          },
          {
            "number": 1,
            "time": 202.60999999998458,
            "value": 0.7716535433070866
          },
          {
            "number": 1,
            "time": 202.62499999998457,
            "value": 0.7795275590551181
          },
          {
            "number": 1,
            "time": 202.63999999998455,
            "value": 0.7874015748031497
          },
          {
            "number": 1,
            "time": 202.64499999998455,
            "value": 0.7952755905511811
          },
          {
            "number": 1,
            "time": 202.64999999998454,
            "value": 0.8031496062992126
          },
          {
            "number": 1,
            "time": 202.6849999999845,
            "value": 0.8110236220472441
          },
          {
            "number": 1,
            "time": 202.6899999999845,
            "value": 0.8188976377952756
          },
          {
            "number": 1,
            "time": 202.7049999999845,
            "value": 0.8267716535433071
          },
          {
            "number": 1,
            "time": 202.7099999999845,
            "value": 0.8346456692913385
          },
          {
            "number": 1,
            "time": 202.71499999998449,
            "value": 0.84251968503937
          },
          {
            "number": 1,
            "time": 202.73999999998446,
            "value": 0.8503937007874016
          },
          {
            "number": 1,
            "time": 202.76499999998444,
            "value": 0.8661417322834646
          },
          {
            "number": 1,
            "time": 202.77499999998443,
            "value": 0.8740157480314961
          },
          {
            "number": 1,
            "time": 202.78999999998442,
            "value": 0.889763779527559
          },
          {
            "number": 1,
            "time": 202.7949999999844,
            "value": 0.8976377952755905
          },
          {
            "number": 1,
            "time": 202.8049999999844,
            "value": 0.905511811023622
          },
          {
            "number": 1,
            "time": 202.89999999998432,
            "value": 0
          },
          {
            "number": 1,
            "time": 211.20499999998316,
            "value": 0.03937007874015748
          },
          {
            "number": 1,
            "time": 211.20999999998315,
            "value": 0.05511811023622047
          },
          {
            "number": 1,
            "time": 211.24999999998312,
            "value": 0.06299212598425197
          },
          {
            "number": 1,
            "time": 211.2549999999831,
            "value": 0.07086614173228346
          },
          {
            "number": 1,
            "time": 211.2899999999831,
            "value": 0.07874015748031496
          },
          {
            "number": 1,
            "time": 211.2999999999831,
            "value": 0.08661417322834646
          },
          {
            "number": 1,
            "time": 211.3149999999831,
            "value": 0.09448818897637795
          },
          {
            "number": 1,
            "time": 211.31999999998308,
            "value": 0.10236220472440945
          },
          {
            "number": 1,
            "time": 211.32999999998307,
            "value": 0.11023622047244094
          },
          {
            "number": 1,
            "time": 211.33999999998306,
            "value": 0.12598425196850394
          },
          {
            "number": 1,
            "time": 211.34499999998306,
            "value": 0.13385826771653545
          },
          {
            "number": 1,
            "time": 211.34999999998305,
            "value": 0.14173228346456693
          },
          {
            "number": 1,
            "time": 211.35999999998305,
            "value": 0.14960629921259844
          },
          {
            "number": 1,
            "time": 211.36999999998304,
            "value": 0.15748031496062992
          },
          {
            "number": 1,
            "time": 211.37999999998303,
            "value": 0.16535433070866143
          },
          {
            "number": 1,
            "time": 211.38499999998302,
            "value": 0.18110236220472442
          },
          {
            "number": 1,
            "time": 211.419999999983,
            "value": 0.1889763779527559
          },
          {
            "number": 1,
            "time": 211.42999999998298,
            "value": 0.1968503937007874
          },
          {
            "number": 1,
            "time": 211.43999999998297,
            "value": 0.2125984251968504
          },
          {
            "number": 1,
            "time": 211.44999999998296,
            "value": 0.2204724409448819
          },
          {
            "number": 1,
            "time": 211.45999999998295,
            "value": 0.2283464566929134
          },
          {
            "number": 1,
            "time": 211.46999999998295,
            "value": 0.2440944881889764
          },
          {
            "number": 1,
            "time": 211.47499999998294,
            "value": 0.25984251968503935
          },
          {
            "number": 1,
            "time": 211.48999999998293,
            "value": 0.2755905511811024
          },
          {
            "number": 1,
            "time": 211.49999999998292,
            "value": 0.29133858267716534
          },
          {
            "number": 1,
            "time": 211.5099999999829,
            "value": 0.30708661417322836
          },
          {
            "number": 1,
            "time": 211.5249999999829,
            "value": 0.3228346456692913
          },
          {
            "number": 1,
            "time": 211.5349999999829,
            "value": 0.33858267716535434
          },
          {
            "number": 1,
            "time": 211.54999999998287,
            "value": 0.3464566929133858
          },
          {
            "number": 1,
            "time": 211.55499999998287,
            "value": 0.3543307086614173
          },
          {
            "number": 1,
            "time": 211.55999999998286,
            "value": 0.3700787401574803
          },
          {
            "number": 1,
            "time": 211.56999999998285,
            "value": 0.3779527559055118
          },
          {
            "number": 1,
            "time": 211.57999999998285,
            "value": 0.3858267716535433
          },
          {
            "number": 1,
            "time": 211.58999999998284,
            "value": 0.4015748031496063
          },
          {
            "number": 1,
            "time": 211.59499999998283,
            "value": 0.4094488188976378
          },
          {
            "number": 1,
            "time": 211.60999999998282,
            "value": 0.41732283464566927
          },
          {
            "number": 1,
            "time": 211.6199999999828,
            "value": 0.4645669291338583
          },
          {
            "number": 1,
            "time": 211.65499999998278,
            "value": 0.47244094488188976
          },
          {
            "number": 1,
            "time": 211.66999999998276,
            "value": 0.4881889763779528
          },
          {
            "number": 1,
            "time": 211.70499999998273,
            "value": 0.49606299212598426
          },
          {
            "number": 1,
            "time": 211.71499999998272,
            "value": 0.5039370078740157
          },
          {
            "number": 1,
            "time": 211.73999999998273,
            "value": 0.5196850393700787
          },
          {
            "number": 1,
            "time": 211.7649999999827,
            "value": 0.5275590551181102
          },
          {
            "number": 1,
            "time": 211.7749999999827,
            "value": 0.5354330708661418
          },
          {
            "number": 1,
            "time": 211.7799999999827,
            "value": 0.5511811023622047
          },
          {
            "number": 1,
            "time": 211.81999999998266,
            "value": 0.5590551181102362
          },
          {
            "number": 1,
            "time": 211.82499999998265,
            "value": 0.5669291338582677
          },
          {
            "number": 1,
            "time": 211.83499999998264,
            "value": 0.5826771653543307
          },
          {
            "number": 1,
            "time": 211.83999999998264,
            "value": 0.5905511811023622
          },
          {
            "number": 1,
            "time": 211.84999999998263,
            "value": 0.5984251968503937
          },
          {
            "number": 1,
            "time": 211.85999999998262,
            "value": 0.6062992125984252
          },
          {
            "number": 1,
            "time": 211.86499999998262,
            "value": 0.6141732283464567
          },
          {
            "number": 1,
            "time": 211.8849999999826,
            "value": 0.6220472440944882
          },
          {
            "number": 1,
            "time": 211.8949999999826,
            "value": 0.6299212598425197
          },
          {
            "number": 1,
            "time": 211.90999999998257,
            "value": 0.6456692913385826
          },
          {
            "number": 1,
            "time": 211.91999999998256,
            "value": 0.6535433070866141
          },
          {
            "number": 1,
            "time": 211.95499999998253,
            "value": 0.6614173228346457
          },
          {
            "number": 1,
            "time": 211.96999999998252,
            "value": 0.6692913385826772
          },
          {
            "number": 1,
            "time": 212.0049999999825,
            "value": 0.6771653543307087
          },
          {
            "number": 1,
            "time": 212.01499999998248,
            "value": 0.6850393700787402
          },
          {
            "number": 1,
            "time": 212.02999999998246,
            "value": 0.6929133858267716
          },
          {
            "number": 1,
            "time": 212.07499999998245,
            "value": 0.7086614173228346
          },
          {
            "number": 1,
            "time": 212.09999999998246,
            "value": 0.7165354330708661
          },
          {
            "number": 1,
            "time": 212.12499999998244,
            "value": 0.7244094488188977
          },
          {
            "number": 1,
            "time": 212.13499999998243,
            "value": 0.7322834645669292
          },
          {
            "number": 1,
            "time": 212.16999999998242,
            "value": 0.7401574803149606
          },
          {
            "number": 1,
            "time": 212.1849999999824,
            "value": 0.7480314960629921
          },
          {
            "number": 1,
            "time": 212.1949999999824,
            "value": 0.7559055118110236
          },
          {
            "number": 1,
            "time": 212.1999999999824,
            "value": 0.7637795275590551
          },
          {
            "number": 1,
            "time": 212.2099999999824,
            "value": 0.7716535433070866
          },
          {
            "number": 1,
            "time": 212.22499999998237,
            "value": 0.7795275590551181
          },
          {
            "number": 1,
            "time": 212.23999999998236,
            "value": 0.7874015748031497
          },
          {
            "number": 1,
            "time": 212.24499999998235,
            "value": 0.7952755905511811
          },
          {
            "number": 1,
            "time": 212.24999999998235,
            "value": 0.8031496062992126
          },
          {
            "number": 1,
            "time": 212.28499999998232,
            "value": 0.8110236220472441
          },
          {
            "number": 1,
            "time": 212.2899999999823,
            "value": 0.8188976377952756
          },
          {
            "number": 1,
            "time": 212.3049999999823,
            "value": 0.8267716535433071
          },
          {
            "number": 1,
            "time": 212.3099999999823,
            "value": 0.8346456692913385
          },
          {
            "number": 1,
            "time": 212.3149999999823,
            "value": 0.84251968503937
          },
          {
            "number": 1,
            "time": 212.33999999998227,
            "value": 0.8503937007874016
          },
          {
            "number": 1,
            "time": 212.36499999998225,
            "value": 0.8661417322834646
          },
          {
            "number": 1,
            "time": 212.37499999998224,
            "value": 0.8740157480314961
          },
          {
            "number": 1,
            "time": 212.38999999998222,
            "value": 0.889763779527559
          },
          {
            "number": 1,
            "time": 212.39499999998222,
            "value": 0.8976377952755905
          },
          {
            "number": 1,
            "time": 212.4049999999822,
            "value": 0.905511811023622
          },
          {
            "number": 1,
            "time": 212.49999999998212,
            "value": 0
          },
          {
            "number": 1,
            "time": 220.80499999998062,
            "value": 0.03937007874015748
          },
          {
            "number": 1,
            "time": 220.80999999998062,
            "value": 0.05511811023622047
          },
          {
            "number": 1,
            "time": 220.84999999998058,
            "value": 0.06299212598425197
          },
          {
            "number": 1,
            "time": 220.85499999998058,
            "value": 0.07086614173228346
          },
          {
            "number": 1,
            "time": 220.88999999998057,
            "value": 0.07874015748031496
          },
          {
            "number": 1,
            "time": 220.89999999998057,
            "value": 0.08661417322834646
          },
          {
            "number": 1,
            "time": 220.91499999998055,
            "value": 0.09448818897637795
          },
          {
            "number": 1,
            "time": 220.91999999998055,
            "value": 0.10236220472440945
          },
          {
            "number": 1,
            "time": 220.92999999998054,
            "value": 0.11023622047244094
          },
          {
            "number": 1,
            "time": 220.93999999998053,
            "value": 0.12598425196850394
          },
          {
            "number": 1,
            "time": 220.94499999998052,
            "value": 0.13385826771653545
          },
          {
            "number": 1,
            "time": 220.94999999998052,
            "value": 0.14173228346456693
          },
          {
            "number": 1,
            "time": 220.9599999999805,
            "value": 0.14960629921259844
          },
          {
            "number": 1,
            "time": 220.9699999999805,
            "value": 0.15748031496062992
          },
          {
            "number": 1,
            "time": 220.9799999999805,
            "value": 0.16535433070866143
          },
          {
            "number": 1,
            "time": 220.9849999999805,
            "value": 0.18110236220472442
          },
          {
            "number": 1,
            "time": 221.01999999998046,
            "value": 0.1889763779527559
          },
          {
            "number": 1,
            "time": 221.02999999998045,
            "value": 0.1968503937007874
          },
          {
            "number": 1,
            "time": 221.03999999998044,
            "value": 0.2125984251968504
          },
          {
            "number": 1,
            "time": 221.04999999998043,
            "value": 0.2204724409448819
          },
          {
            "number": 1,
            "time": 221.05999999998042,
            "value": 0.2283464566929134
          },
          {
            "number": 1,
            "time": 221.0699999999804,
            "value": 0.2440944881889764
          },
          {
            "number": 1,
            "time": 221.0749999999804,
            "value": 0.25984251968503935
          },
          {
            "number": 1,
            "time": 221.0899999999804,
            "value": 0.2755905511811024
          },
          {
            "number": 1,
            "time": 221.09999999998038,
            "value": 0.29133858267716534
          },
          {
            "number": 1,
            "time": 221.10999999998037,
            "value": 0.30708661417322836
          },
          {
            "number": 1,
            "time": 221.12499999998036,
            "value": 0.3228346456692913
          },
          {
            "number": 1,
            "time": 221.13499999998035,
            "value": 0.33858267716535434
          },
          {
            "number": 1,
            "time": 221.14999999998034,
            "value": 0.3464566929133858
          },
          {
            "number": 1,
            "time": 221.15499999998033,
            "value": 0.3543307086614173
          },
          {
            "number": 1,
            "time": 221.15999999998033,
            "value": 0.3700787401574803
          },
          {
            "number": 1,
            "time": 221.16999999998032,
            "value": 0.3779527559055118
          },
          {
            "number": 1,
            "time": 221.1799999999803,
            "value": 0.3858267716535433
          },
          {
            "number": 1,
            "time": 221.1899999999803,
            "value": 0.4015748031496063
          },
          {
            "number": 1,
            "time": 221.1949999999803,
            "value": 0.4094488188976378
          },
          {
            "number": 1,
            "time": 221.20999999998028,
            "value": 0.41732283464566927
          },
          {
            "number": 1,
            "time": 221.21999999998027,
            "value": 0.4645669291338583
          },
          {
            "number": 1,
            "time": 221.25499999998024,
            "value": 0.47244094488188976
          },
          {
            "number": 1,
            "time": 221.26999999998023,
            "value": 0.4881889763779528
          },
          {
            "number": 1,
            "time": 221.3049999999802,
            "value": 0.49606299212598426
          },
          {
            "number": 1,
            "time": 221.3149999999802,
            "value": 0.5039370078740157
          },
          {
            "number": 1,
            "time": 221.3399999999802,
            "value": 0.5196850393700787
          },
          {
            "number": 1,
            "time": 221.36499999998017,
            "value": 0.5275590551181102
          },
          {
            "number": 1,
            "time": 221.37499999998016,
            "value": 0.5354330708661418
          },
          {
            "number": 1,
            "time": 221.37999999998016,
            "value": 0.5511811023622047
          },
          {
            "number": 1,
            "time": 221.41999999998012,
            "value": 0.5590551181102362
          },
          {
            "number": 1,
            "time": 221.42499999998012,
            "value": 0.5669291338582677
          },
          {
            "number": 1,
            "time": 221.4349999999801,
            "value": 0.5826771653543307
          },
          {
            "number": 1,
            "time": 221.4399999999801,
            "value": 0.5905511811023622
          },
          {
            "number": 1,
            "time": 221.4499999999801,
            "value": 0.5984251968503937
          },
          {
            "number": 1,
            "time": 221.45999999998008,
            "value": 0.6062992125984252
          },
          {
            "number": 1,
            "time": 221.46499999998008,
            "value": 0.6141732283464567
          },
          {
            "number": 1,
            "time": 221.48499999998006,
            "value": 0.6220472440944882
          },
          {
            "number": 1,
            "time": 221.49499999998005,
            "value": 0.6299212598425197
          },
          {
            "number": 1,
            "time": 221.50999999998004,
            "value": 0.6456692913385826
          },
          {
            "number": 1,
            "time": 221.51999999998003,
            "value": 0.6535433070866141
          },
          {
            "number": 1,
            "time": 221.55499999998,
            "value": 0.6614173228346457
          },
          {
            "number": 1,
            "time": 221.56999999997998,
            "value": 0.6692913385826772
          },
          {
            "number": 1,
            "time": 221.60499999997995,
            "value": 0.6771653543307087
          },
          {
            "number": 1,
            "time": 221.61499999997994,
            "value": 0.6850393700787402
          },
          {
            "number": 1,
            "time": 221.62999999997993,
            "value": 0.6929133858267716
          },
          {
            "number": 1,
            "time": 221.67499999997992,
            "value": 0.7086614173228346
          },
          {
            "number": 1,
            "time": 221.69999999997992,
            "value": 0.7165354330708661
          },
          {
            "number": 1,
            "time": 221.7249999999799,
            "value": 0.7244094488188977
          },
          {
            "number": 1,
            "time": 221.7349999999799,
            "value": 0.7322834645669292
          },
          {
            "number": 1,
            "time": 221.7699999999799,
            "value": 0.7401574803149606
          },
          {
            "number": 1,
            "time": 221.78499999997987,
            "value": 0.7480314960629921
          },
          {
            "number": 1,
            "time": 221.79499999997986,
            "value": 0.7559055118110236
          },
          {
            "number": 1,
            "time": 221.79999999997986,
            "value": 0.7637795275590551
          },
          {
            "number": 1,
            "time": 221.80999999997985,
            "value": 0.7716535433070866
          },
          {
            "number": 1,
            "time": 221.82499999997984,
            "value": 0.7795275590551181
          },
          {
            "number": 1,
            "time": 221.83999999997982,
            "value": 0.7874015748031497
          },
          {
            "number": 1,
            "time": 221.84499999997982,
            "value": 0.7952755905511811
          },
          {
            "number": 1,
            "time": 221.84999999997981,
            "value": 0.8031496062992126
          },
          {
            "number": 1,
            "time": 221.88499999997978,
            "value": 0.8110236220472441
          },
          {
            "number": 1,
            "time": 221.88999999997978,
            "value": 0.8188976377952756
          },
          {
            "number": 1,
            "time": 221.90499999997976,
            "value": 0.8267716535433071
          },
          {
            "number": 1,
            "time": 221.90999999997976,
            "value": 0.8346456692913385
          },
          {
            "number": 1,
            "time": 221.91499999997976,
            "value": 0.84251968503937
          },
          {
            "number": 1,
            "time": 221.93999999997973,
            "value": 0.8503937007874016
          },
          {
            "number": 1,
            "time": 221.9649999999797,
            "value": 0.8661417322834646
          },
          {
            "number": 1,
            "time": 221.9749999999797,
            "value": 0.8740157480314961
          },
          {
            "number": 1,
            "time": 221.9899999999797,
            "value": 0.889763779527559
          },
          {
            "number": 1,
            "time": 221.99499999997968,
            "value": 0.8976377952755905
          },
          {
            "number": 1,
            "time": 222.00499999997967,
            "value": 0.905511811023622
          },
          {
            "number": 1,
            "time": 222.0999999999796,
            "value": 0
          }
        ],
        "7": [
          {
            "number": 7,
            "time": 0,
            "value": 0.6692913385826772
          }
        ],
        "10": [
          {
            "number": 10,
            "time": 0,
            "value": 0.5039370078740157
          }
        ],
        "11": [
          {
            "number": 11,
            "time": 26.699999999999992,
            "value": 0.9921259842519685
          },
          {
            "number": 11,
            "time": 26.79999999999999,
            "value": 0.984251968503937
          },
          {
            "number": 11,
            "time": 26.82499999999999,
            "value": 0.9763779527559056
          },
          {
            "number": 11,
            "time": 26.829999999999988,
            "value": 0.968503937007874
          },
          {
            "number": 11,
            "time": 26.87999999999999,
            "value": 0.9606299212598425
          },
          {
            "number": 11,
            "time": 26.89499999999999,
            "value": 0.952755905511811
          },
          {
            "number": 11,
            "time": 26.919999999999987,
            "value": 0.937007874015748
          },
          {
            "number": 11,
            "time": 26.944999999999986,
            "value": 0.9291338582677166
          },
          {
            "number": 11,
            "time": 26.954999999999988,
            "value": 0.9212598425196851
          },
          {
            "number": 11,
            "time": 26.969999999999988,
            "value": 0.9133858267716536
          },
          {
            "number": 11,
            "time": 26.97999999999999,
            "value": 0.905511811023622
          },
          {
            "number": 11,
            "time": 26.98499999999999,
            "value": 0.8976377952755905
          },
          {
            "number": 11,
            "time": 27.00499999999999,
            "value": 0.889763779527559
          },
          {
            "number": 11,
            "time": 27.01499999999999,
            "value": 0.8818897637795275
          },
          {
            "number": 11,
            "time": 27.01999999999999,
            "value": 0.8740157480314961
          },
          {
            "number": 11,
            "time": 27.03499999999999,
            "value": 0.8661417322834646
          },
          {
            "number": 11,
            "time": 27.03999999999999,
            "value": 0.8582677165354331
          },
          {
            "number": 11,
            "time": 27.04999999999999,
            "value": 0.84251968503937
          },
          {
            "number": 11,
            "time": 27.06499999999999,
            "value": 0.8346456692913385
          },
          {
            "number": 11,
            "time": 27.07999999999999,
            "value": 0.8267716535433071
          },
          {
            "number": 11,
            "time": 27.089999999999993,
            "value": 0.8031496062992126
          },
          {
            "number": 11,
            "time": 27.104999999999993,
            "value": 0.7952755905511811
          },
          {
            "number": 11,
            "time": 27.109999999999992,
            "value": 0.7716535433070866
          },
          {
            "number": 11,
            "time": 27.119999999999994,
            "value": 0.7637795275590551
          },
          {
            "number": 11,
            "time": 27.124999999999993,
            "value": 0.7480314960629921
          },
          {
            "number": 11,
            "time": 27.129999999999992,
            "value": 0.7401574803149606
          },
          {
            "number": 11,
            "time": 27.13499999999999,
            "value": 0.7322834645669292
          },
          {
            "number": 11,
            "time": 27.13999999999999,
            "value": 0.7165354330708661
          },
          {
            "number": 11,
            "time": 27.14999999999999,
            "value": 0.7086614173228346
          },
          {
            "number": 11,
            "time": 27.15499999999999,
            "value": 0.6929133858267716
          },
          {
            "number": 11,
            "time": 27.15999999999999,
            "value": 0.6692913385826772
          },
          {
            "number": 11,
            "time": 27.16499999999999,
            "value": 0.6535433070866141
          },
          {
            "number": 11,
            "time": 27.169999999999987,
            "value": 0.6456692913385826
          },
          {
            "number": 11,
            "time": 27.17999999999999,
            "value": 0.6299212598425197
          },
          {
            "number": 11,
            "time": 27.184999999999988,
            "value": 0.6062992125984252
          },
          {
            "number": 11,
            "time": 27.189999999999987,
            "value": 0.5905511811023622
          },
          {
            "number": 11,
            "time": 27.19999999999999,
            "value": 0.5748031496062992
          },
          {
            "number": 11,
            "time": 27.20999999999999,
            "value": 0.5590551181102362
          },
          {
            "number": 11,
            "time": 27.21499999999999,
            "value": 0.5433070866141733
          },
          {
            "number": 11,
            "time": 27.22499999999999,
            "value": 0.5275590551181102
          },
          {
            "number": 11,
            "time": 27.22999999999999,
            "value": 0.49606299212598426
          },
          {
            "number": 11,
            "time": 27.23999999999999,
            "value": 0.4881889763779528
          },
          {
            "number": 11,
            "time": 27.249999999999993,
            "value": 0.4566929133858268
          },
          {
            "number": 11,
            "time": 27.254999999999992,
            "value": 0.4330708661417323
          },
          {
            "number": 11,
            "time": 27.25999999999999,
            "value": 0.4251968503937008
          },
          {
            "number": 11,
            "time": 27.269999999999992,
            "value": 0.4094488188976378
          },
          {
            "number": 11,
            "time": 27.27499999999999,
            "value": 0.3937007874015748
          },
          {
            "number": 11,
            "time": 27.27999999999999,
            "value": 0.3543307086614173
          },
          {
            "number": 11,
            "time": 27.28499999999999,
            "value": 0.33858267716535434
          },
          {
            "number": 11,
            "time": 27.28999999999999,
            "value": 0.33070866141732286
          },
          {
            "number": 11,
            "time": 27.41999999999999,
            "value": 1
          },
          {
            "number": 11,
            "time": 29.089999999999975,
            "value": 1
          },
          {
            "number": 11,
            "time": 29.104999999999976,
            "value": 0.9921259842519685
          },
          {
            "number": 11,
            "time": 29.149999999999977,
            "value": 0.984251968503937
          },
          {
            "number": 11,
            "time": 29.164999999999978,
            "value": 0.9763779527559056
          },
          {
            "number": 11,
            "time": 29.189999999999976,
            "value": 0.968503937007874
          },
          {
            "number": 11,
            "time": 29.199999999999978,
            "value": 0.9606299212598425
          },
          {
            "number": 11,
            "time": 29.199999999999978,
            "value": 0.952755905511811
          },
          {
            "number": 11,
            "time": 29.21499999999998,
            "value": 0.9448818897637795
          },
          {
            "number": 11,
            "time": 29.219999999999978,
            "value": 0.9212598425196851
          },
          {
            "number": 11,
            "time": 29.22999999999998,
            "value": 0.9133858267716536
          },
          {
            "number": 11,
            "time": 29.23999999999998,
            "value": 0.905511811023622
          },
          {
            "number": 11,
            "time": 29.24499999999998,
            "value": 0.8976377952755905
          },
          {
            "number": 11,
            "time": 29.24999999999998,
            "value": 0.889763779527559
          },
          {
            "number": 11,
            "time": 29.25999999999998,
            "value": 0.8582677165354331
          },
          {
            "number": 11,
            "time": 29.27499999999998,
            "value": 0.8110236220472441
          },
          {
            "number": 11,
            "time": 29.284999999999982,
            "value": 0.7952755905511811
          },
          {
            "number": 11,
            "time": 29.28999999999998,
            "value": 0.7480314960629921
          },
          {
            "number": 11,
            "time": 29.304999999999982,
            "value": 0.7007874015748031
          },
          {
            "number": 11,
            "time": 29.314999999999984,
            "value": 0.6850393700787402
          },
          {
            "number": 11,
            "time": 29.329999999999984,
            "value": 0.6377952755905512
          },
          {
            "number": 11,
            "time": 29.339999999999986,
            "value": 0.5905511811023622
          },
          {
            "number": 11,
            "time": 29.349999999999987,
            "value": 0.5748031496062992
          },
          {
            "number": 11,
            "time": 29.364999999999988,
            "value": 0.5590551181102362
          },
          {
            "number": 11,
            "time": 29.37499999999999,
            "value": 0.5433070866141733
          },
          {
            "number": 11,
            "time": 29.38999999999999,
            "value": 0.5275590551181102
          },
          {
            "number": 11,
            "time": 29.39499999999999,
            "value": 0.5118110236220472
          },
          {
            "number": 11,
            "time": 29.399999999999988,
            "value": 0.49606299212598426
          },
          {
            "number": 11,
            "time": 29.404999999999987,
            "value": 0.4881889763779528
          },
          {
            "number": 11,
            "time": 29.409999999999986,
            "value": 0.47244094488188976
          },
          {
            "number": 11,
            "time": 29.419999999999987,
            "value": 0.4645669291338583
          },
          {
            "number": 11,
            "time": 29.424999999999986,
            "value": 0.41732283464566927
          },
          {
            "number": 11,
            "time": 29.429999999999986,
            "value": 0.4015748031496063
          },
          {
            "number": 11,
            "time": 29.439999999999987,
            "value": 0.3858267716535433
          },
          {
            "number": 11,
            "time": 29.454999999999988,
            "value": 0.3700787401574803
          },
          {
            "number": 11,
            "time": 29.459999999999987,
            "value": 0.3228346456692913
          },
          {
            "number": 11,
            "time": 29.464999999999986,
            "value": 0.30708661417322836
          },
          {
            "number": 11,
            "time": 29.479999999999986,
            "value": 0.29133858267716534
          },
          {
            "number": 11,
            "time": 29.484999999999985,
            "value": 0.2755905511811024
          },
          {
            "number": 11,
            "time": 29.494999999999987,
            "value": 0.25984251968503935
          },
          {
            "number": 11,
            "time": 29.499999999999986,
            "value": 0.2440944881889764
          },
          {
            "number": 11,
            "time": 29.509999999999987,
            "value": 0.2283464566929134
          },
          {
            "number": 11,
            "time": 29.514999999999986,
            "value": 0.2125984251968504
          },
          {
            "number": 11,
            "time": 29.519999999999985,
            "value": 0.1968503937007874
          },
          {
            "number": 11,
            "time": 29.524999999999984,
            "value": 0.14960629921259844
          },
          {
            "number": 11,
            "time": 29.539999999999985,
            "value": 0.13385826771653545
          },
          {
            "number": 11,
            "time": 29.544999999999984,
            "value": 0.08661417322834646
          },
          {
            "number": 11,
            "time": 29.549999999999983,
            "value": 0.023622047244094488
          },
          {
            "number": 11,
            "time": 29.554999999999982,
            "value": 0.007874015748031496
          },
          {
            "number": 11,
            "time": 29.569999999999983,
            "value": 0
          },
          {
            "number": 11,
            "time": 29.829999999999988,
            "value": 1
          },
          {
            "number": 11,
            "time": 31.499999999999986,
            "value": 1
          },
          {
            "number": 11,
            "time": 31.644999999999985,
            "value": 0.9921259842519685
          },
          {
            "number": 11,
            "time": 31.699999999999985,
            "value": 0.984251968503937
          },
          {
            "number": 11,
            "time": 31.719999999999985,
            "value": 0.9763779527559056
          },
          {
            "number": 11,
            "time": 31.734999999999985,
            "value": 0.968503937007874
          },
          {
            "number": 11,
            "time": 31.744999999999987,
            "value": 0.9606299212598425
          },
          {
            "number": 11,
            "time": 31.764999999999986,
            "value": 0.952755905511811
          },
          {
            "number": 11,
            "time": 31.779999999999987,
            "value": 0.937007874015748
          },
          {
            "number": 11,
            "time": 31.799999999999986,
            "value": 0.9291338582677166
          },
          {
            "number": 11,
            "time": 31.804999999999986,
            "value": 0.9133858267716536
          },
          {
            "number": 11,
            "time": 31.809999999999985,
            "value": 0.905511811023622
          },
          {
            "number": 11,
            "time": 31.824999999999985,
            "value": 0.8976377952755905
          },
          {
            "number": 11,
            "time": 31.829999999999984,
            "value": 0.889763779527559
          },
          {
            "number": 11,
            "time": 31.834999999999983,
            "value": 0.8740157480314961
          },
          {
            "number": 11,
            "time": 31.849999999999984,
            "value": 0.8582677165354331
          },
          {
            "number": 11,
            "time": 31.854999999999983,
            "value": 0.8346456692913385
          },
          {
            "number": 11,
            "time": 31.85999999999998,
            "value": 0.8267716535433071
          },
          {
            "number": 11,
            "time": 31.86499999999998,
            "value": 0.8188976377952756
          },
          {
            "number": 11,
            "time": 31.86999999999998,
            "value": 0.8031496062992126
          },
          {
            "number": 11,
            "time": 31.87999999999998,
            "value": 0.7795275590551181
          },
          {
            "number": 11,
            "time": 31.88499999999998,
            "value": 0.7716535433070866
          },
          {
            "number": 11,
            "time": 31.88999999999998,
            "value": 0.7559055118110236
          },
          {
            "number": 11,
            "time": 31.89499999999998,
            "value": 0.7480314960629921
          },
          {
            "number": 11,
            "time": 31.899999999999977,
            "value": 0.7244094488188977
          },
          {
            "number": 11,
            "time": 31.90999999999998,
            "value": 0.7086614173228346
          },
          {
            "number": 11,
            "time": 31.914999999999978,
            "value": 0.7007874015748031
          },
          {
            "number": 11,
            "time": 31.919999999999977,
            "value": 0.6850393700787402
          },
          {
            "number": 11,
            "time": 31.924999999999976,
            "value": 0.6692913385826772
          },
          {
            "number": 11,
            "time": 31.929999999999975,
            "value": 0.6535433070866141
          },
          {
            "number": 11,
            "time": 31.944999999999975,
            "value": 0.6456692913385826
          },
          {
            "number": 11,
            "time": 31.949999999999974,
            "value": 0.6299212598425197
          },
          {
            "number": 11,
            "time": 31.954999999999973,
            "value": 0.6220472440944882
          },
          {
            "number": 11,
            "time": 31.969999999999974,
            "value": 0.6141732283464567
          },
          {
            "number": 11,
            "time": 32.04499999999997,
            "value": 0.6299212598425197
          },
          {
            "number": 11,
            "time": 32.049999999999976,
            "value": 0.6377952755905512
          },
          {
            "number": 11,
            "time": 32.059999999999974,
            "value": 0.6456692913385826
          },
          {
            "number": 11,
            "time": 32.064999999999976,
            "value": 0.6535433070866141
          },
          {
            "number": 11,
            "time": 32.06999999999998,
            "value": 0.6771653543307087
          },
          {
            "number": 11,
            "time": 32.07499999999998,
            "value": 0.6929133858267716
          },
          {
            "number": 11,
            "time": 32.079999999999984,
            "value": 0.7086614173228346
          },
          {
            "number": 11,
            "time": 32.08999999999998,
            "value": 0.7322834645669292
          },
          {
            "number": 11,
            "time": 32.094999999999985,
            "value": 0.7716535433070866
          },
          {
            "number": 11,
            "time": 32.09999999999999,
            "value": 0.8031496062992126
          },
          {
            "number": 11,
            "time": 32.10499999999999,
            "value": 0.8188976377952756
          },
          {
            "number": 11,
            "time": 32.10999999999999,
            "value": 0.8267716535433071
          },
          {
            "number": 11,
            "time": 32.11999999999999,
            "value": 0.8582677165354331
          },
          {
            "number": 11,
            "time": 32.12499999999999,
            "value": 0.8740157480314961
          },
          {
            "number": 11,
            "time": 32.129999999999995,
            "value": 0.889763779527559
          },
          {
            "number": 11,
            "time": 32.135,
            "value": 0.905511811023622
          },
          {
            "number": 11,
            "time": 32.14,
            "value": 0.9291338582677166
          },
          {
            "number": 11,
            "time": 32.15,
            "value": 0.937007874015748
          },
          {
            "number": 11,
            "time": 32.155,
            "value": 0.952755905511811
          },
          {
            "number": 11,
            "time": 32.160000000000004,
            "value": 0.9606299212598425
          },
          {
            "number": 11,
            "time": 32.17,
            "value": 0.968503937007874
          },
          {
            "number": 11,
            "time": 32.18,
            "value": 0.9763779527559056
          },
          {
            "number": 11,
            "time": 32.19,
            "value": 0.984251968503937
          },
          {
            "number": 11,
            "time": 32.199999999999996,
            "value": 0.9921259842519685
          },
          {
            "number": 11,
            "time": 32.214999999999996,
            "value": 1
          },
          {
            "number": 11,
            "time": 36.300000000000075,
            "value": 0.9921259842519685
          },
          {
            "number": 11,
            "time": 36.40000000000007,
            "value": 0.984251968503937
          },
          {
            "number": 11,
            "time": 36.42500000000007,
            "value": 0.9763779527559056
          },
          {
            "number": 11,
            "time": 36.43000000000007,
            "value": 0.968503937007874
          },
          {
            "number": 11,
            "time": 36.48000000000007,
            "value": 0.9606299212598425
          },
          {
            "number": 11,
            "time": 36.49500000000007,
            "value": 0.952755905511811
          },
          {
            "number": 11,
            "time": 36.52000000000007,
            "value": 0.937007874015748
          },
          {
            "number": 11,
            "time": 36.545000000000066,
            "value": 0.9291338582677166
          },
          {
            "number": 11,
            "time": 36.555000000000064,
            "value": 0.9212598425196851
          },
          {
            "number": 11,
            "time": 36.570000000000064,
            "value": 0.9133858267716536
          },
          {
            "number": 11,
            "time": 36.58000000000006,
            "value": 0.905511811023622
          },
          {
            "number": 11,
            "time": 36.585000000000065,
            "value": 0.8976377952755905
          },
          {
            "number": 11,
            "time": 36.60500000000007,
            "value": 0.889763779527559
          },
          {
            "number": 11,
            "time": 36.615000000000066,
            "value": 0.8818897637795275
          },
          {
            "number": 11,
            "time": 36.62000000000007,
            "value": 0.8740157480314961
          },
          {
            "number": 11,
            "time": 36.63500000000007,
            "value": 0.8661417322834646
          },
          {
            "number": 11,
            "time": 36.64000000000007,
            "value": 0.8582677165354331
          },
          {
            "number": 11,
            "time": 36.65000000000007,
            "value": 0.84251968503937
          },
          {
            "number": 11,
            "time": 36.66500000000007,
            "value": 0.8346456692913385
          },
          {
            "number": 11,
            "time": 36.68000000000007,
            "value": 0.8267716535433071
          },
          {
            "number": 11,
            "time": 36.69000000000007,
            "value": 0.8031496062992126
          },
          {
            "number": 11,
            "time": 36.70500000000007,
            "value": 0.7952755905511811
          },
          {
            "number": 11,
            "time": 36.71000000000007,
            "value": 0.7716535433070866
          },
          {
            "number": 11,
            "time": 36.72000000000007,
            "value": 0.7637795275590551
          },
          {
            "number": 11,
            "time": 36.72500000000007,
            "value": 0.7480314960629921
          },
          {
            "number": 11,
            "time": 36.730000000000075,
            "value": 0.7401574803149606
          },
          {
            "number": 11,
            "time": 36.73500000000008,
            "value": 0.7322834645669292
          },
          {
            "number": 11,
            "time": 36.74000000000008,
            "value": 0.7165354330708661
          },
          {
            "number": 11,
            "time": 36.75000000000008,
            "value": 0.7086614173228346
          },
          {
            "number": 11,
            "time": 36.75500000000008,
            "value": 0.6929133858267716
          },
          {
            "number": 11,
            "time": 36.76000000000008,
            "value": 0.6692913385826772
          },
          {
            "number": 11,
            "time": 36.765000000000086,
            "value": 0.6535433070866141
          },
          {
            "number": 11,
            "time": 36.77000000000009,
            "value": 0.6456692913385826
          },
          {
            "number": 11,
            "time": 36.780000000000086,
            "value": 0.6299212598425197
          },
          {
            "number": 11,
            "time": 36.78500000000009,
            "value": 0.6062992125984252
          },
          {
            "number": 11,
            "time": 36.79000000000009,
            "value": 0.5905511811023622
          },
          {
            "number": 11,
            "time": 36.80000000000009,
            "value": 0.5748031496062992
          },
          {
            "number": 11,
            "time": 36.81000000000009,
            "value": 0.5590551181102362
          },
          {
            "number": 11,
            "time": 36.81500000000009,
            "value": 0.5433070866141733
          },
          {
            "number": 11,
            "time": 36.82500000000009,
            "value": 0.5275590551181102
          },
          {
            "number": 11,
            "time": 36.83000000000009,
            "value": 0.49606299212598426
          },
          {
            "number": 11,
            "time": 36.84000000000009,
            "value": 0.4881889763779528
          },
          {
            "number": 11,
            "time": 36.85000000000009,
            "value": 0.4566929133858268
          },
          {
            "number": 11,
            "time": 36.85500000000009,
            "value": 0.4330708661417323
          },
          {
            "number": 11,
            "time": 36.86000000000009,
            "value": 0.4251968503937008
          },
          {
            "number": 11,
            "time": 36.87000000000009,
            "value": 0.4094488188976378
          },
          {
            "number": 11,
            "time": 36.87500000000009,
            "value": 0.3937007874015748
          },
          {
            "number": 11,
            "time": 36.880000000000095,
            "value": 0.3543307086614173
          },
          {
            "number": 11,
            "time": 36.8850000000001,
            "value": 0.33858267716535434
          },
          {
            "number": 11,
            "time": 36.8900000000001,
            "value": 0.33070866141732286
          },
          {
            "number": 11,
            "time": 37.0200000000001,
            "value": 1
          },
          {
            "number": 11,
            "time": 38.69000000000017,
            "value": 1
          },
          {
            "number": 11,
            "time": 38.70500000000017,
            "value": 0.9921259842519685
          },
          {
            "number": 11,
            "time": 38.75000000000017,
            "value": 0.984251968503937
          },
          {
            "number": 11,
            "time": 38.76500000000017,
            "value": 0.9763779527559056
          },
          {
            "number": 11,
            "time": 38.79000000000017,
            "value": 0.968503937007874
          },
          {
            "number": 11,
            "time": 38.80000000000017,
            "value": 0.9606299212598425
          },
          {
            "number": 11,
            "time": 38.80000000000017,
            "value": 0.952755905511811
          },
          {
            "number": 11,
            "time": 38.81500000000017,
            "value": 0.9448818897637795
          },
          {
            "number": 11,
            "time": 38.82000000000017,
            "value": 0.9212598425196851
          },
          {
            "number": 11,
            "time": 38.83000000000017,
            "value": 0.9133858267716536
          },
          {
            "number": 11,
            "time": 38.84000000000017,
            "value": 0.905511811023622
          },
          {
            "number": 11,
            "time": 38.84500000000017,
            "value": 0.8976377952755905
          },
          {
            "number": 11,
            "time": 38.85000000000017,
            "value": 0.889763779527559
          },
          {
            "number": 11,
            "time": 38.86000000000017,
            "value": 0.8582677165354331
          },
          {
            "number": 11,
            "time": 38.87500000000017,
            "value": 0.8110236220472441
          },
          {
            "number": 11,
            "time": 38.88500000000017,
            "value": 0.7952755905511811
          },
          {
            "number": 11,
            "time": 38.89000000000017,
            "value": 0.7480314960629921
          },
          {
            "number": 11,
            "time": 38.90500000000017,
            "value": 0.7007874015748031
          },
          {
            "number": 11,
            "time": 38.91500000000017,
            "value": 0.6850393700787402
          },
          {
            "number": 11,
            "time": 38.93000000000017,
            "value": 0.6377952755905512
          },
          {
            "number": 11,
            "time": 38.94000000000017,
            "value": 0.5905511811023622
          },
          {
            "number": 11,
            "time": 38.950000000000166,
            "value": 0.5748031496062992
          },
          {
            "number": 11,
            "time": 38.96500000000017,
            "value": 0.5590551181102362
          },
          {
            "number": 11,
            "time": 38.975000000000165,
            "value": 0.5433070866141733
          },
          {
            "number": 11,
            "time": 38.990000000000165,
            "value": 0.5275590551181102
          },
          {
            "number": 11,
            "time": 38.99500000000017,
            "value": 0.5118110236220472
          },
          {
            "number": 11,
            "time": 39.00000000000017,
            "value": 0.49606299212598426
          },
          {
            "number": 11,
            "time": 39.00500000000017,
            "value": 0.4881889763779528
          },
          {
            "number": 11,
            "time": 39.010000000000176,
            "value": 0.47244094488188976
          },
          {
            "number": 11,
            "time": 39.020000000000174,
            "value": 0.4645669291338583
          },
          {
            "number": 11,
            "time": 39.025000000000176,
            "value": 0.41732283464566927
          },
          {
            "number": 11,
            "time": 39.03000000000018,
            "value": 0.4015748031496063
          },
          {
            "number": 11,
            "time": 39.04000000000018,
            "value": 0.3858267716535433
          },
          {
            "number": 11,
            "time": 39.05500000000018,
            "value": 0.3700787401574803
          },
          {
            "number": 11,
            "time": 39.06000000000018,
            "value": 0.3228346456692913
          },
          {
            "number": 11,
            "time": 39.06500000000018,
            "value": 0.30708661417322836
          },
          {
            "number": 11,
            "time": 39.08000000000018,
            "value": 0.29133858267716534
          },
          {
            "number": 11,
            "time": 39.085000000000186,
            "value": 0.2755905511811024
          },
          {
            "number": 11,
            "time": 39.095000000000184,
            "value": 0.25984251968503935
          },
          {
            "number": 11,
            "time": 39.100000000000186,
            "value": 0.2440944881889764
          },
          {
            "number": 11,
            "time": 39.110000000000184,
            "value": 0.2283464566929134
          },
          {
            "number": 11,
            "time": 39.11500000000019,
            "value": 0.2125984251968504
          },
          {
            "number": 11,
            "time": 39.12000000000019,
            "value": 0.1968503937007874
          },
          {
            "number": 11,
            "time": 39.12500000000019,
            "value": 0.14960629921259844
          },
          {
            "number": 11,
            "time": 39.14000000000019,
            "value": 0.13385826771653545
          },
          {
            "number": 11,
            "time": 39.145000000000195,
            "value": 0.08661417322834646
          },
          {
            "number": 11,
            "time": 39.1500000000002,
            "value": 0.023622047244094488
          },
          {
            "number": 11,
            "time": 39.1550000000002,
            "value": 0.007874015748031496
          },
          {
            "number": 11,
            "time": 39.1700000000002,
            "value": 0
          },
          {
            "number": 11,
            "time": 39.43000000000019,
            "value": 1
          },
          {
            "number": 11,
            "time": 41.10000000000023,
            "value": 1
          },
          {
            "number": 11,
            "time": 41.245000000000225,
            "value": 0.9921259842519685
          },
          {
            "number": 11,
            "time": 41.300000000000225,
            "value": 0.984251968503937
          },
          {
            "number": 11,
            "time": 41.32000000000023,
            "value": 0.9763779527559056
          },
          {
            "number": 11,
            "time": 41.33500000000023,
            "value": 0.968503937007874
          },
          {
            "number": 11,
            "time": 41.345000000000226,
            "value": 0.9606299212598425
          },
          {
            "number": 11,
            "time": 41.36500000000023,
            "value": 0.952755905511811
          },
          {
            "number": 11,
            "time": 41.38000000000023,
            "value": 0.937007874015748
          },
          {
            "number": 11,
            "time": 41.40000000000023,
            "value": 0.9291338582677166
          },
          {
            "number": 11,
            "time": 41.405000000000236,
            "value": 0.9133858267716536
          },
          {
            "number": 11,
            "time": 41.41000000000024,
            "value": 0.905511811023622
          },
          {
            "number": 11,
            "time": 41.42500000000024,
            "value": 0.8976377952755905
          },
          {
            "number": 11,
            "time": 41.43000000000024,
            "value": 0.889763779527559
          },
          {
            "number": 11,
            "time": 41.435000000000244,
            "value": 0.8740157480314961
          },
          {
            "number": 11,
            "time": 41.450000000000244,
            "value": 0.8582677165354331
          },
          {
            "number": 11,
            "time": 41.45500000000025,
            "value": 0.8346456692913385
          },
          {
            "number": 11,
            "time": 41.46000000000025,
            "value": 0.8267716535433071
          },
          {
            "number": 11,
            "time": 41.46500000000025,
            "value": 0.8188976377952756
          },
          {
            "number": 11,
            "time": 41.470000000000255,
            "value": 0.8031496062992126
          },
          {
            "number": 11,
            "time": 41.48000000000025,
            "value": 0.7795275590551181
          },
          {
            "number": 11,
            "time": 41.485000000000255,
            "value": 0.7716535433070866
          },
          {
            "number": 11,
            "time": 41.49000000000026,
            "value": 0.7559055118110236
          },
          {
            "number": 11,
            "time": 41.49500000000026,
            "value": 0.7480314960629921
          },
          {
            "number": 11,
            "time": 41.50000000000026,
            "value": 0.7244094488188977
          },
          {
            "number": 11,
            "time": 41.51000000000026,
            "value": 0.7086614173228346
          },
          {
            "number": 11,
            "time": 41.51500000000026,
            "value": 0.7007874015748031
          },
          {
            "number": 11,
            "time": 41.520000000000266,
            "value": 0.6850393700787402
          },
          {
            "number": 11,
            "time": 41.52500000000027,
            "value": 0.6692913385826772
          },
          {
            "number": 11,
            "time": 41.53000000000027,
            "value": 0.6535433070866141
          },
          {
            "number": 11,
            "time": 41.54500000000027,
            "value": 0.6456692913385826
          },
          {
            "number": 11,
            "time": 41.550000000000274,
            "value": 0.6299212598425197
          },
          {
            "number": 11,
            "time": 41.55500000000028,
            "value": 0.6220472440944882
          },
          {
            "number": 11,
            "time": 41.57000000000028,
            "value": 0.6141732283464567
          },
          {
            "number": 11,
            "time": 41.64500000000028,
            "value": 0.6299212598425197
          },
          {
            "number": 11,
            "time": 41.65000000000028,
            "value": 0.6377952755905512
          },
          {
            "number": 11,
            "time": 41.66000000000028,
            "value": 0.6456692913385826
          },
          {
            "number": 11,
            "time": 41.66500000000028,
            "value": 0.6535433070866141
          },
          {
            "number": 11,
            "time": 41.670000000000286,
            "value": 0.6771653543307087
          },
          {
            "number": 11,
            "time": 41.67500000000029,
            "value": 0.6929133858267716
          },
          {
            "number": 11,
            "time": 41.68000000000029,
            "value": 0.7086614173228346
          },
          {
            "number": 11,
            "time": 41.69000000000029,
            "value": 0.7322834645669292
          },
          {
            "number": 11,
            "time": 41.69500000000029,
            "value": 0.7716535433070866
          },
          {
            "number": 11,
            "time": 41.700000000000294,
            "value": 0.8031496062992126
          },
          {
            "number": 11,
            "time": 41.7050000000003,
            "value": 0.8188976377952756
          },
          {
            "number": 11,
            "time": 41.7100000000003,
            "value": 0.8267716535433071
          },
          {
            "number": 11,
            "time": 41.7200000000003,
            "value": 0.8582677165354331
          },
          {
            "number": 11,
            "time": 41.7250000000003,
            "value": 0.8740157480314961
          },
          {
            "number": 11,
            "time": 41.7300000000003,
            "value": 0.889763779527559
          },
          {
            "number": 11,
            "time": 41.735000000000305,
            "value": 0.905511811023622
          },
          {
            "number": 11,
            "time": 41.74000000000031,
            "value": 0.9291338582677166
          },
          {
            "number": 11,
            "time": 41.750000000000306,
            "value": 0.937007874015748
          },
          {
            "number": 11,
            "time": 41.75500000000031,
            "value": 0.952755905511811
          },
          {
            "number": 11,
            "time": 41.76000000000031,
            "value": 0.9606299212598425
          },
          {
            "number": 11,
            "time": 41.77000000000031,
            "value": 0.968503937007874
          },
          {
            "number": 11,
            "time": 41.78000000000031,
            "value": 0.9763779527559056
          },
          {
            "number": 11,
            "time": 41.790000000000305,
            "value": 0.984251968503937
          },
          {
            "number": 11,
            "time": 41.8000000000003,
            "value": 0.9921259842519685
          },
          {
            "number": 11,
            "time": 41.8150000000003,
            "value": 1
          },
          {
            "number": 11,
            "time": 42.86500000000033,
            "value": 1
          },
          {
            "number": 11,
            "time": 42.87000000000033,
            "value": 0.9921259842519685
          },
          {
            "number": 11,
            "time": 42.88000000000034,
            "value": 0.984251968503937
          },
          {
            "number": 11,
            "time": 42.89500000000034,
            "value": 0.9763779527559056
          },
          {
            "number": 11,
            "time": 42.90000000000034,
            "value": 0.968503937007874
          },
          {
            "number": 11,
            "time": 42.92000000000034,
            "value": 0.9606299212598425
          },
          {
            "number": 11,
            "time": 42.925000000000345,
            "value": 0.952755905511811
          },
          {
            "number": 11,
            "time": 42.94000000000035,
            "value": 0.9448818897637795
          },
          {
            "number": 11,
            "time": 42.955000000000354,
            "value": 0.937007874015748
          },
          {
            "number": 11,
            "time": 42.975000000000364,
            "value": 0.9291338582677166
          },
          {
            "number": 11,
            "time": 42.98500000000037,
            "value": 0.9212598425196851
          },
          {
            "number": 11,
            "time": 43.00000000000037,
            "value": 0.9133858267716536
          },
          {
            "number": 11,
            "time": 43.035000000000366,
            "value": 0.905511811023622
          },
          {
            "number": 11,
            "time": 43.045000000000364,
            "value": 0.8976377952755905
          },
          {
            "number": 11,
            "time": 43.08000000000036,
            "value": 0.889763779527559
          },
          {
            "number": 11,
            "time": 43.12000000000036,
            "value": 0.8346456692913385
          },
          {
            "number": 11,
            "time": 43.13000000000036,
            "value": 0.8267716535433071
          },
          {
            "number": 11,
            "time": 43.140000000000356,
            "value": 0.8188976377952756
          },
          {
            "number": 11,
            "time": 43.150000000000354,
            "value": 0.8110236220472441
          },
          {
            "number": 11,
            "time": 43.16000000000035,
            "value": 0.7952755905511811
          },
          {
            "number": 11,
            "time": 43.165000000000354,
            "value": 0.7874015748031497
          },
          {
            "number": 11,
            "time": 43.20000000000035,
            "value": 0.7244094488188977
          },
          {
            "number": 11,
            "time": 43.25000000000035,
            "value": 0.6614173228346457
          },
          {
            "number": 11,
            "time": 43.31000000000035,
            "value": 0.5984251968503937
          },
          {
            "number": 11,
            "time": 43.37000000000035,
            "value": 0.5196850393700787
          },
          {
            "number": 11,
            "time": 43.455000000000354,
            "value": 0.4409448818897638
          },
          {
            "number": 11,
            "time": 43.525000000000354,
            "value": 0.36220472440944884
          },
          {
            "number": 11,
            "time": 43.60000000000036,
            "value": 0.28346456692913385
          },
          {
            "number": 11,
            "time": 43.66000000000036,
            "value": 0.2047244094488189
          },
          {
            "number": 11,
            "time": 43.73000000000036,
            "value": 0.14173228346456693
          },
          {
            "number": 11,
            "time": 43.79000000000036,
            "value": 0.07874015748031496
          },
          {
            "number": 11,
            "time": 43.84000000000036,
            "value": 0.031496062992125984
          },
          {
            "number": 11,
            "time": 43.88500000000036,
            "value": 0
          },
          {
            "number": 11,
            "time": 44.14500000000036,
            "value": 1
          },
          {
            "number": 11,
            "time": 45.12000000000037,
            "value": 0.984251968503937
          },
          {
            "number": 11,
            "time": 45.130000000000365,
            "value": 0.9763779527559056
          },
          {
            "number": 11,
            "time": 45.13500000000037,
            "value": 0.968503937007874
          },
          {
            "number": 11,
            "time": 45.14000000000037,
            "value": 0.9448818897637795
          },
          {
            "number": 11,
            "time": 45.14500000000037,
            "value": 0.9212598425196851
          },
          {
            "number": 11,
            "time": 45.150000000000375,
            "value": 0.9133858267716536
          },
          {
            "number": 11,
            "time": 45.16000000000037,
            "value": 0.889763779527559
          },
          {
            "number": 11,
            "time": 45.165000000000376,
            "value": 0.8661417322834646
          },
          {
            "number": 11,
            "time": 45.17000000000038,
            "value": 0.8188976377952756
          },
          {
            "number": 11,
            "time": 45.180000000000376,
            "value": 0.8031496062992126
          },
          {
            "number": 11,
            "time": 45.190000000000374,
            "value": 0.7401574803149606
          },
          {
            "number": 11,
            "time": 45.19500000000038,
            "value": 0.7244094488188977
          },
          {
            "number": 11,
            "time": 45.20000000000038,
            "value": 0.6771653543307087
          },
          {
            "number": 11,
            "time": 45.20500000000038,
            "value": 0.6614173228346457
          },
          {
            "number": 11,
            "time": 45.210000000000385,
            "value": 0.6141732283464567
          },
          {
            "number": 11,
            "time": 45.22000000000038,
            "value": 0.5905511811023622
          },
          {
            "number": 11,
            "time": 45.225000000000385,
            "value": 0.5748031496062992
          },
          {
            "number": 11,
            "time": 45.23000000000039,
            "value": 0.5433070866141733
          },
          {
            "number": 11,
            "time": 45.23500000000039,
            "value": 0.48031496062992124
          },
          {
            "number": 11,
            "time": 45.24000000000039,
            "value": 0.41732283464566927
          },
          {
            "number": 11,
            "time": 45.25000000000039,
            "value": 0.4094488188976378
          },
          {
            "number": 11,
            "time": 45.25500000000039,
            "value": 0.3464566929133858
          },
          {
            "number": 11,
            "time": 45.260000000000396,
            "value": 0.2755905511811024
          },
          {
            "number": 11,
            "time": 45.2650000000004,
            "value": 0.25196850393700787
          },
          {
            "number": 11,
            "time": 45.2700000000004,
            "value": 0.23622047244094488
          },
          {
            "number": 11,
            "time": 45.2800000000004,
            "value": 0.2125984251968504
          },
          {
            "number": 11,
            "time": 45.2850000000004,
            "value": 0.15748031496062992
          },
          {
            "number": 11,
            "time": 45.290000000000404,
            "value": 0.10236220472440945
          },
          {
            "number": 11,
            "time": 45.29500000000041,
            "value": 0.07086614173228346
          },
          {
            "number": 11,
            "time": 45.30000000000041,
            "value": 0.9921259842519685
          },
          {
            "number": 11,
            "time": 45.96500000000041,
            "value": 0.9921259842519685
          },
          {
            "number": 11,
            "time": 45.98500000000041,
            "value": 0.984251968503937
          },
          {
            "number": 11,
            "time": 46.01000000000042,
            "value": 0.9763779527559056
          },
          {
            "number": 11,
            "time": 46.02500000000042,
            "value": 0.968503937007874
          },
          {
            "number": 11,
            "time": 46.035000000000416,
            "value": 0.9606299212598425
          },
          {
            "number": 11,
            "time": 46.04000000000042,
            "value": 0.952755905511811
          },
          {
            "number": 11,
            "time": 46.05500000000042,
            "value": 0.9448818897637795
          },
          {
            "number": 11,
            "time": 46.06000000000042,
            "value": 0.937007874015748
          },
          {
            "number": 11,
            "time": 46.07000000000042,
            "value": 0.9291338582677166
          },
          {
            "number": 11,
            "time": 46.08500000000042,
            "value": 0.9212598425196851
          },
          {
            "number": 11,
            "time": 46.09500000000042,
            "value": 0.9133858267716536
          },
          {
            "number": 11,
            "time": 46.10000000000042,
            "value": 0.905511811023622
          },
          {
            "number": 11,
            "time": 46.10500000000042,
            "value": 0.8976377952755905
          },
          {
            "number": 11,
            "time": 46.120000000000424,
            "value": 0.889763779527559
          },
          {
            "number": 11,
            "time": 46.13000000000042,
            "value": 0.8740157480314961
          },
          {
            "number": 11,
            "time": 46.14500000000042,
            "value": 0.8661417322834646
          },
          {
            "number": 11,
            "time": 46.150000000000425,
            "value": 0.8582677165354331
          },
          {
            "number": 11,
            "time": 46.15500000000043,
            "value": 0.8503937007874016
          },
          {
            "number": 11,
            "time": 46.16000000000043,
            "value": 0.84251968503937
          },
          {
            "number": 11,
            "time": 46.17500000000043,
            "value": 0.8346456692913385
          },
          {
            "number": 11,
            "time": 46.18000000000043,
            "value": 0.8267716535433071
          },
          {
            "number": 11,
            "time": 46.19000000000044,
            "value": 0.8188976377952756
          },
          {
            "number": 11,
            "time": 46.19500000000044,
            "value": 0.8110236220472441
          },
          {
            "number": 11,
            "time": 46.20500000000044,
            "value": 0.8031496062992126
          },
          {
            "number": 11,
            "time": 46.21500000000044,
            "value": 0.7952755905511811
          },
          {
            "number": 11,
            "time": 46.225000000000435,
            "value": 0.7874015748031497
          },
          {
            "number": 11,
            "time": 46.23500000000043,
            "value": 0.7795275590551181
          },
          {
            "number": 11,
            "time": 46.240000000000435,
            "value": 0.7716535433070866
          },
          {
            "number": 11,
            "time": 46.25000000000043,
            "value": 0.7637795275590551
          },
          {
            "number": 11,
            "time": 46.255000000000436,
            "value": 0.7480314960629921
          },
          {
            "number": 11,
            "time": 46.27000000000044,
            "value": 0.7401574803149606
          },
          {
            "number": 11,
            "time": 46.28000000000044,
            "value": 0.7322834645669292
          },
          {
            "number": 11,
            "time": 46.29500000000044,
            "value": 0.7244094488188977
          },
          {
            "number": 11,
            "time": 46.300000000000445,
            "value": 0.7165354330708661
          },
          {
            "number": 11,
            "time": 46.30500000000045,
            "value": 0.7086614173228346
          },
          {
            "number": 11,
            "time": 46.31000000000045,
            "value": 0.7007874015748031
          },
          {
            "number": 11,
            "time": 46.31500000000045,
            "value": 0.6929133858267716
          },
          {
            "number": 11,
            "time": 46.32500000000045,
            "value": 0.6771653543307087
          },
          {
            "number": 11,
            "time": 46.33000000000045,
            "value": 0.6692913385826772
          },
          {
            "number": 11,
            "time": 46.34000000000045,
            "value": 0.6535433070866141
          },
          {
            "number": 11,
            "time": 46.345000000000454,
            "value": 0.6456692913385826
          },
          {
            "number": 11,
            "time": 46.360000000000454,
            "value": 0.6299212598425197
          },
          {
            "number": 11,
            "time": 46.37000000000046,
            "value": 0.6141732283464567
          },
          {
            "number": 11,
            "time": 46.37500000000046,
            "value": 0.6062992125984252
          },
          {
            "number": 11,
            "time": 46.39000000000046,
            "value": 0.5905511811023622
          },
          {
            "number": 11,
            "time": 46.395000000000465,
            "value": 0.5669291338582677
          },
          {
            "number": 11,
            "time": 46.40000000000047,
            "value": 0.5590551181102362
          },
          {
            "number": 11,
            "time": 46.41500000000047,
            "value": 0.5354330708661418
          },
          {
            "number": 11,
            "time": 46.42000000000047,
            "value": 0.5039370078740157
          },
          {
            "number": 11,
            "time": 46.42500000000047,
            "value": 0.49606299212598426
          },
          {
            "number": 11,
            "time": 46.43500000000048,
            "value": 0.47244094488188976
          },
          {
            "number": 11,
            "time": 46.445000000000476,
            "value": 0.4566929133858268
          },
          {
            "number": 11,
            "time": 46.57000000000048,
            "value": 1
          },
          {
            "number": 11,
            "time": 48.32000000000049,
            "value": 1
          },
          {
            "number": 11,
            "time": 48.33500000000049,
            "value": 0.9921259842519685
          },
          {
            "number": 11,
            "time": 48.35000000000049,
            "value": 0.984251968503937
          },
          {
            "number": 11,
            "time": 48.36500000000049,
            "value": 0.9763779527559056
          },
          {
            "number": 11,
            "time": 48.37500000000049,
            "value": 0.968503937007874
          },
          {
            "number": 11,
            "time": 48.38500000000049,
            "value": 0.9606299212598425
          },
          {
            "number": 11,
            "time": 48.395000000000486,
            "value": 0.952755905511811
          },
          {
            "number": 11,
            "time": 48.405000000000484,
            "value": 0.9448818897637795
          },
          {
            "number": 11,
            "time": 48.420000000000485,
            "value": 0.937007874015748
          },
          {
            "number": 11,
            "time": 48.42500000000049,
            "value": 0.9291338582677166
          },
          {
            "number": 11,
            "time": 48.44000000000049,
            "value": 0.9212598425196851
          },
          {
            "number": 11,
            "time": 48.450000000000486,
            "value": 0.9133858267716536
          },
          {
            "number": 11,
            "time": 48.46500000000049,
            "value": 0.8976377952755905
          },
          {
            "number": 11,
            "time": 48.475000000000485,
            "value": 0.889763779527559
          },
          {
            "number": 11,
            "time": 48.52500000000048,
            "value": 0.8818897637795275
          },
          {
            "number": 11,
            "time": 48.56000000000048,
            "value": 0.8661417322834646
          },
          {
            "number": 11,
            "time": 48.595000000000475,
            "value": 0.8503937007874016
          },
          {
            "number": 11,
            "time": 48.60500000000047,
            "value": 0.8346456692913385
          },
          {
            "number": 11,
            "time": 48.62000000000047,
            "value": 0.8267716535433071
          },
          {
            "number": 11,
            "time": 48.625000000000476,
            "value": 0.8188976377952756
          },
          {
            "number": 11,
            "time": 48.63000000000048,
            "value": 0.8110236220472441
          },
          {
            "number": 11,
            "time": 48.64500000000048,
            "value": 0.8031496062992126
          },
          {
            "number": 11,
            "time": 48.65000000000048,
            "value": 0.7952755905511811
          },
          {
            "number": 11,
            "time": 48.655000000000484,
            "value": 0.7874015748031497
          },
          {
            "number": 11,
            "time": 48.66500000000048,
            "value": 0.7795275590551181
          },
          {
            "number": 11,
            "time": 48.67500000000048,
            "value": 0.7716535433070866
          },
          {
            "number": 11,
            "time": 48.68000000000048,
            "value": 0.7559055118110236
          },
          {
            "number": 11,
            "time": 48.69000000000048,
            "value": 0.7480314960629921
          },
          {
            "number": 11,
            "time": 48.69500000000048,
            "value": 0.7401574803149606
          },
          {
            "number": 11,
            "time": 48.70500000000048,
            "value": 0.7322834645669292
          },
          {
            "number": 11,
            "time": 48.71500000000048,
            "value": 0.7244094488188977
          },
          {
            "number": 11,
            "time": 48.72000000000048,
            "value": 0.7007874015748031
          },
          {
            "number": 11,
            "time": 48.73500000000048,
            "value": 0.6929133858267716
          },
          {
            "number": 11,
            "time": 48.740000000000485,
            "value": 0.6850393700787402
          },
          {
            "number": 11,
            "time": 48.74500000000049,
            "value": 0.6692913385826772
          },
          {
            "number": 11,
            "time": 48.755000000000486,
            "value": 0.6614173228346457
          },
          {
            "number": 11,
            "time": 48.770000000000486,
            "value": 0.6377952755905512
          },
          {
            "number": 11,
            "time": 48.77500000000049,
            "value": 0.6299212598425197
          },
          {
            "number": 11,
            "time": 48.78500000000049,
            "value": 0.6062992125984252
          },
          {
            "number": 11,
            "time": 48.795000000000485,
            "value": 0.5984251968503937
          },
          {
            "number": 11,
            "time": 48.80000000000049,
            "value": 0.5905511811023622
          },
          {
            "number": 11,
            "time": 48.80500000000049,
            "value": 0.5826771653543307
          },
          {
            "number": 11,
            "time": 48.81000000000049,
            "value": 0.5748031496062992
          },
          {
            "number": 11,
            "time": 48.815000000000495,
            "value": 0.5669291338582677
          },
          {
            "number": 11,
            "time": 48.82500000000049,
            "value": 0.5511811023622047
          },
          {
            "number": 11,
            "time": 48.830000000000496,
            "value": 0.5433070866141733
          },
          {
            "number": 11,
            "time": 48.8350000000005,
            "value": 0.5354330708661418
          },
          {
            "number": 11,
            "time": 48.8400000000005,
            "value": 0.5196850393700787
          },
          {
            "number": 11,
            "time": 48.8450000000005,
            "value": 0.5118110236220472
          },
          {
            "number": 11,
            "time": 48.8550000000005,
            "value": 0.5039370078740157
          },
          {
            "number": 11,
            "time": 48.860000000000504,
            "value": 0.4881889763779528
          },
          {
            "number": 11,
            "time": 48.86500000000051,
            "value": 0.44881889763779526
          },
          {
            "number": 11,
            "time": 48.960000000000505,
            "value": 1
          },
          {
            "number": 11,
            "time": 51.01500000000059,
            "value": 1
          },
          {
            "number": 11,
            "time": 51.02000000000059,
            "value": 1
          },
          {
            "number": 11,
            "time": 51.025000000000595,
            "value": 0.9921259842519685
          },
          {
            "number": 11,
            "time": 51.0300000000006,
            "value": 0.9763779527559056
          },
          {
            "number": 11,
            "time": 51.040000000000596,
            "value": 0.9606299212598425
          },
          {
            "number": 11,
            "time": 51.0450000000006,
            "value": 0.9448818897637795
          },
          {
            "number": 11,
            "time": 51.0500000000006,
            "value": 0.937007874015748
          },
          {
            "number": 11,
            "time": 51.055000000000604,
            "value": 0.905511811023622
          },
          {
            "number": 11,
            "time": 51.060000000000606,
            "value": 0.8976377952755905
          },
          {
            "number": 11,
            "time": 51.070000000000604,
            "value": 0.8818897637795275
          },
          {
            "number": 11,
            "time": 51.07500000000061,
            "value": 0.8661417322834646
          },
          {
            "number": 11,
            "time": 51.08000000000061,
            "value": 0.8346456692913385
          },
          {
            "number": 11,
            "time": 51.08500000000061,
            "value": 0.8188976377952756
          },
          {
            "number": 11,
            "time": 51.090000000000614,
            "value": 0.8031496062992126
          },
          {
            "number": 11,
            "time": 51.10000000000061,
            "value": 0.7795275590551181
          },
          {
            "number": 11,
            "time": 51.105000000000615,
            "value": 0.7401574803149606
          },
          {
            "number": 11,
            "time": 51.11000000000062,
            "value": 0.7165354330708661
          },
          {
            "number": 11,
            "time": 51.11500000000062,
            "value": 0.7086614173228346
          },
          {
            "number": 11,
            "time": 51.12000000000062,
            "value": 0.6771653543307087
          },
          {
            "number": 11,
            "time": 51.13000000000062,
            "value": 0.6456692913385826
          },
          {
            "number": 11,
            "time": 51.13500000000062,
            "value": 0.6299212598425197
          },
          {
            "number": 11,
            "time": 51.140000000000626,
            "value": 0.6220472440944882
          },
          {
            "number": 11,
            "time": 51.14500000000063,
            "value": 0.6220472440944882
          },
          {
            "number": 11,
            "time": 51.15000000000063,
            "value": 0.6062992125984252
          },
          {
            "number": 11,
            "time": 51.16000000000063,
            "value": 0.5905511811023622
          },
          {
            "number": 11,
            "time": 51.16500000000063,
            "value": 0.5826771653543307
          },
          {
            "number": 11,
            "time": 51.18000000000063,
            "value": 0.5748031496062992
          },
          {
            "number": 11,
            "time": 51.19000000000063,
            "value": 0.5669291338582677
          },
          {
            "number": 11,
            "time": 51.21000000000063,
            "value": 0.5748031496062992
          },
          {
            "number": 11,
            "time": 51.22000000000063,
            "value": 0.5905511811023622
          },
          {
            "number": 11,
            "time": 51.225000000000634,
            "value": 0.6062992125984252
          },
          {
            "number": 11,
            "time": 51.230000000000636,
            "value": 0.6141732283464567
          },
          {
            "number": 11,
            "time": 51.23500000000064,
            "value": 0.6456692913385826
          },
          {
            "number": 11,
            "time": 51.24000000000064,
            "value": 0.6614173228346457
          },
          {
            "number": 11,
            "time": 51.25000000000064,
            "value": 0.6771653543307087
          },
          {
            "number": 11,
            "time": 51.25500000000064,
            "value": 0.7086614173228346
          },
          {
            "number": 11,
            "time": 51.260000000000645,
            "value": 0.7716535433070866
          },
          {
            "number": 11,
            "time": 51.26500000000065,
            "value": 0.7716535433070866
          },
          {
            "number": 11,
            "time": 51.27000000000065,
            "value": 0.8110236220472441
          },
          {
            "number": 11,
            "time": 51.28000000000065,
            "value": 0.84251968503937
          },
          {
            "number": 11,
            "time": 51.28500000000065,
            "value": 0.8661417322834646
          },
          {
            "number": 11,
            "time": 51.29000000000065,
            "value": 0.8976377952755905
          },
          {
            "number": 11,
            "time": 51.295000000000655,
            "value": 0.952755905511811
          },
          {
            "number": 11,
            "time": 51.30000000000066,
            "value": 0.9763779527559056
          },
          {
            "number": 11,
            "time": 51.310000000000656,
            "value": 1
          },
          {
            "number": 11,
            "time": 52.0750000000007,
            "value": 1
          },
          {
            "number": 11,
            "time": 52.0900000000007,
            "value": 0.9763779527559056
          },
          {
            "number": 11,
            "time": 52.0950000000007,
            "value": 0.9448818897637795
          },
          {
            "number": 11,
            "time": 52.100000000000705,
            "value": 0.9133858267716536
          },
          {
            "number": 11,
            "time": 52.10500000000071,
            "value": 0.8976377952755905
          },
          {
            "number": 11,
            "time": 52.11000000000071,
            "value": 0.8661417322834646
          },
          {
            "number": 11,
            "time": 52.12000000000071,
            "value": 0.7952755905511811
          },
          {
            "number": 11,
            "time": 52.12500000000071,
            "value": 0.7559055118110236
          },
          {
            "number": 11,
            "time": 52.13000000000071,
            "value": 0.7480314960629921
          },
          {
            "number": 11,
            "time": 52.135000000000716,
            "value": 0.7165354330708661
          },
          {
            "number": 11,
            "time": 52.14000000000072,
            "value": 0.6692913385826772
          },
          {
            "number": 11,
            "time": 52.150000000000716,
            "value": 0.6456692913385826
          },
          {
            "number": 11,
            "time": 52.15500000000072,
            "value": 0.6377952755905512
          },
          {
            "number": 11,
            "time": 52.16000000000072,
            "value": 0.6141732283464567
          },
          {
            "number": 11,
            "time": 52.17000000000073,
            "value": 0.6220472440944882
          },
          {
            "number": 11,
            "time": 52.180000000000724,
            "value": 0.6299212598425197
          },
          {
            "number": 11,
            "time": 52.18500000000073,
            "value": 0.6377952755905512
          },
          {
            "number": 11,
            "time": 52.19000000000073,
            "value": 0.6535433070866141
          },
          {
            "number": 11,
            "time": 52.200000000000735,
            "value": 0.6692913385826772
          },
          {
            "number": 11,
            "time": 52.21000000000073,
            "value": 0.6850393700787402
          },
          {
            "number": 11,
            "time": 52.215000000000735,
            "value": 0.7165354330708661
          },
          {
            "number": 11,
            "time": 52.22000000000074,
            "value": 0.7480314960629921
          },
          {
            "number": 11,
            "time": 52.22500000000074,
            "value": 0.7637795275590551
          },
          {
            "number": 11,
            "time": 52.23000000000074,
            "value": 0.8188976377952756
          },
          {
            "number": 11,
            "time": 52.24000000000074,
            "value": 0.8976377952755905
          },
          {
            "number": 11,
            "time": 52.24500000000074,
            "value": 0.9133858267716536
          },
          {
            "number": 11,
            "time": 52.250000000000746,
            "value": 0.937007874015748
          },
          {
            "number": 11,
            "time": 52.25500000000075,
            "value": 0.968503937007874
          },
          {
            "number": 11,
            "time": 52.26000000000075,
            "value": 1
          },
          {
            "number": 11,
            "time": 52.80500000000079,
            "value": 0.9921259842519685
          },
          {
            "number": 11,
            "time": 52.81500000000079,
            "value": 0.984251968503937
          },
          {
            "number": 11,
            "time": 52.820000000000796,
            "value": 0.9763779527559056
          },
          {
            "number": 11,
            "time": 52.8350000000008,
            "value": 0.968503937007874
          },
          {
            "number": 11,
            "time": 52.8400000000008,
            "value": 0.9606299212598425
          },
          {
            "number": 11,
            "time": 52.850000000000804,
            "value": 0.952755905511811
          },
          {
            "number": 11,
            "time": 52.85500000000081,
            "value": 0.9448818897637795
          },
          {
            "number": 11,
            "time": 52.86500000000081,
            "value": 0.937007874015748
          },
          {
            "number": 11,
            "time": 52.87500000000082,
            "value": 0.9291338582677166
          },
          {
            "number": 11,
            "time": 52.885000000000815,
            "value": 0.9212598425196851
          },
          {
            "number": 11,
            "time": 52.89500000000082,
            "value": 0.9133858267716536
          },
          {
            "number": 11,
            "time": 52.930000000000824,
            "value": 0.8976377952755905
          },
          {
            "number": 11,
            "time": 52.93500000000083,
            "value": 0.889763779527559
          },
          {
            "number": 11,
            "time": 52.945000000000825,
            "value": 0.8818897637795275
          },
          {
            "number": 11,
            "time": 52.960000000000825,
            "value": 0.8661417322834646
          },
          {
            "number": 11,
            "time": 52.97000000000083,
            "value": 0.8503937007874016
          },
          {
            "number": 11,
            "time": 52.98500000000083,
            "value": 0.84251968503937
          },
          {
            "number": 11,
            "time": 53.020000000000834,
            "value": 0.8267716535433071
          },
          {
            "number": 11,
            "time": 53.05500000000084,
            "value": 0.8110236220472441
          },
          {
            "number": 11,
            "time": 53.09000000000084,
            "value": 0.7952755905511811
          },
          {
            "number": 11,
            "time": 53.10500000000084,
            "value": 0.7795275590551181
          },
          {
            "number": 11,
            "time": 53.150000000000844,
            "value": 0.7637795275590551
          },
          {
            "number": 11,
            "time": 53.16500000000085,
            "value": 0.7480314960629921
          },
          {
            "number": 11,
            "time": 53.17500000000085,
            "value": 0.7322834645669292
          },
          {
            "number": 11,
            "time": 53.210000000000846,
            "value": 0.7165354330708661
          },
          {
            "number": 11,
            "time": 53.22500000000085,
            "value": 0.6692913385826772
          },
          {
            "number": 11,
            "time": 53.26000000000085,
            "value": 0.6535433070866141
          },
          {
            "number": 11,
            "time": 53.295000000000854,
            "value": 0.6062992125984252
          },
          {
            "number": 11,
            "time": 53.33000000000086,
            "value": 0.5905511811023622
          },
          {
            "number": 11,
            "time": 53.36500000000086,
            "value": 0.5748031496062992
          },
          {
            "number": 11,
            "time": 53.40500000000086,
            "value": 0.5275590551181102
          },
          {
            "number": 11,
            "time": 53.41500000000086,
            "value": 0.5118110236220472
          },
          {
            "number": 11,
            "time": 53.42500000000086,
            "value": 0.49606299212598426
          },
          {
            "number": 11,
            "time": 53.465000000000856,
            "value": 0.48031496062992124
          },
          {
            "number": 11,
            "time": 53.47500000000086,
            "value": 0.4645669291338583
          },
          {
            "number": 11,
            "time": 53.48500000000086,
            "value": 0.44881889763779526
          },
          {
            "number": 11,
            "time": 53.50000000000086,
            "value": 0.4330708661417323
          },
          {
            "number": 11,
            "time": 53.535000000000856,
            "value": 0.4251968503937008
          },
          {
            "number": 11,
            "time": 53.57000000000086,
            "value": 0.3779527559055118
          },
          {
            "number": 11,
            "time": 53.58500000000086,
            "value": 0.3700787401574803
          },
          {
            "number": 11,
            "time": 53.620000000000864,
            "value": 0.3228346456692913
          },
          {
            "number": 11,
            "time": 53.63000000000087,
            "value": 0.31496062992125984
          },
          {
            "number": 11,
            "time": 53.64500000000087,
            "value": 0.2677165354330709
          },
          {
            "number": 11,
            "time": 53.68000000000087,
            "value": 0.25984251968503935
          },
          {
            "number": 11,
            "time": 53.68500000000087,
            "value": 0.2125984251968504
          },
          {
            "number": 11,
            "time": 53.72000000000087,
            "value": 0.2047244094488189
          },
          {
            "number": 11,
            "time": 53.73500000000087,
            "value": 0.1889763779527559
          },
          {
            "number": 11,
            "time": 53.77000000000088,
            "value": 0.1732283464566929
          },
          {
            "number": 11,
            "time": 53.77500000000088,
            "value": 0.16535433070866143
          },
          {
            "number": 11,
            "time": 53.9150000000009,
            "value": 1
          },
          {
            "number": 11,
            "time": 55.615000000001,
            "value": 0.9606299212598425
          },
          {
            "number": 11,
            "time": 55.670000000001,
            "value": 0.9448818897637795
          },
          {
            "number": 11,
            "time": 55.70500000000099,
            "value": 0.9291338582677166
          },
          {
            "number": 11,
            "time": 55.74500000000099,
            "value": 0.9212598425196851
          },
          {
            "number": 11,
            "time": 55.78000000000099,
            "value": 0.905511811023622
          },
          {
            "number": 11,
            "time": 55.82500000000099,
            "value": 0.8582677165354331
          },
          {
            "number": 11,
            "time": 55.86500000000099,
            "value": 0.8110236220472441
          },
          {
            "number": 11,
            "time": 55.875000000000995,
            "value": 0.7637795275590551
          },
          {
            "number": 11,
            "time": 55.91000000000099,
            "value": 0.7007874015748031
          },
          {
            "number": 11,
            "time": 55.94500000000099,
            "value": 0.6377952755905512
          },
          {
            "number": 11,
            "time": 55.96000000000099,
            "value": 0.5748031496062992
          },
          {
            "number": 11,
            "time": 55.995000000000985,
            "value": 0.5118110236220472
          },
          {
            "number": 11,
            "time": 56.00500000000098,
            "value": 0.44881889763779526
          },
          {
            "number": 11,
            "time": 56.020000000000984,
            "value": 0.4015748031496063
          },
          {
            "number": 11,
            "time": 56.05500000000098,
            "value": 0.33858267716535434
          },
          {
            "number": 11,
            "time": 56.06000000000098,
            "value": 0.3228346456692913
          },
          {
            "number": 11,
            "time": 56.09500000000098,
            "value": 0.25984251968503935
          },
          {
            "number": 11,
            "time": 56.105000000000985,
            "value": 0.2440944881889764
          },
          {
            "number": 11,
            "time": 56.11000000000099,
            "value": 0.2283464566929134
          },
          {
            "number": 11,
            "time": 56.12000000000099,
            "value": 0.1968503937007874
          },
          {
            "number": 11,
            "time": 56.125000000000995,
            "value": 0.16535433070866143
          },
          {
            "number": 11,
            "time": 56.13500000000099,
            "value": 0.14960629921259844
          },
          {
            "number": 11,
            "time": 56.140000000000995,
            "value": 0.13385826771653545
          },
          {
            "number": 11,
            "time": 56.145000000001,
            "value": 0.11811023622047244
          },
          {
            "number": 11,
            "time": 56.150000000001,
            "value": 0.10236220472440945
          },
          {
            "number": 11,
            "time": 56.155000000001,
            "value": 0.047244094488188976
          },
          {
            "number": 11,
            "time": 56.170000000001004,
            "value": 0.023622047244094488
          },
          {
            "number": 11,
            "time": 56.175000000001006,
            "value": 1
          },
          {
            "number": 11,
            "time": 58.0150000000011,
            "value": 0.9606299212598425
          },
          {
            "number": 11,
            "time": 58.0700000000011,
            "value": 0.9448818897637795
          },
          {
            "number": 11,
            "time": 58.1050000000011,
            "value": 0.9291338582677166
          },
          {
            "number": 11,
            "time": 58.1450000000011,
            "value": 0.9212598425196851
          },
          {
            "number": 11,
            "time": 58.180000000001094,
            "value": 0.905511811023622
          },
          {
            "number": 11,
            "time": 58.225000000001096,
            "value": 0.8582677165354331
          },
          {
            "number": 11,
            "time": 58.265000000001095,
            "value": 0.8110236220472441
          },
          {
            "number": 11,
            "time": 58.2750000000011,
            "value": 0.7637795275590551
          },
          {
            "number": 11,
            "time": 58.3100000000011,
            "value": 0.7007874015748031
          },
          {
            "number": 11,
            "time": 58.34500000000109,
            "value": 0.6377952755905512
          },
          {
            "number": 11,
            "time": 58.360000000001094,
            "value": 0.5748031496062992
          },
          {
            "number": 11,
            "time": 58.39500000000109,
            "value": 0.5118110236220472
          },
          {
            "number": 11,
            "time": 58.40500000000109,
            "value": 0.44881889763779526
          },
          {
            "number": 11,
            "time": 58.42000000000109,
            "value": 0.4015748031496063
          },
          {
            "number": 11,
            "time": 58.455000000001085,
            "value": 0.33858267716535434
          },
          {
            "number": 11,
            "time": 58.46000000000109,
            "value": 0.3228346456692913
          },
          {
            "number": 11,
            "time": 58.495000000001085,
            "value": 0.25984251968503935
          },
          {
            "number": 11,
            "time": 58.50500000000109,
            "value": 0.2440944881889764
          },
          {
            "number": 11,
            "time": 58.51000000000109,
            "value": 0.2283464566929134
          },
          {
            "number": 11,
            "time": 58.5200000000011,
            "value": 0.1968503937007874
          },
          {
            "number": 11,
            "time": 58.5250000000011,
            "value": 0.16535433070866143
          },
          {
            "number": 11,
            "time": 58.5350000000011,
            "value": 0.14960629921259844
          },
          {
            "number": 11,
            "time": 58.5400000000011,
            "value": 0.13385826771653545
          },
          {
            "number": 11,
            "time": 58.5450000000011,
            "value": 0.11811023622047244
          },
          {
            "number": 11,
            "time": 58.550000000001106,
            "value": 0.10236220472440945
          },
          {
            "number": 11,
            "time": 58.55500000000111,
            "value": 0.047244094488188976
          },
          {
            "number": 11,
            "time": 58.57000000000111,
            "value": 0.023622047244094488
          },
          {
            "number": 11,
            "time": 58.57500000000111,
            "value": 1
          },
          {
            "number": 11,
            "time": 59.97000000000116,
            "value": 1
          },
          {
            "number": 11,
            "time": 59.99000000000116,
            "value": 0.9921259842519685
          },
          {
            "number": 11,
            "time": 60.02500000000116,
            "value": 0.9763779527559056
          },
          {
            "number": 11,
            "time": 60.03000000000116,
            "value": 0.968503937007874
          },
          {
            "number": 11,
            "time": 60.04000000000116,
            "value": 0.9606299212598425
          },
          {
            "number": 11,
            "time": 60.05500000000116,
            "value": 0.952755905511811
          },
          {
            "number": 11,
            "time": 60.065000000001156,
            "value": 0.9448818897637795
          },
          {
            "number": 11,
            "time": 60.07000000000116,
            "value": 0.937007874015748
          },
          {
            "number": 11,
            "time": 60.08000000000116,
            "value": 0.9291338582677166
          },
          {
            "number": 11,
            "time": 60.11500000000115,
            "value": 0.9133858267716536
          },
          {
            "number": 11,
            "time": 60.120000000001156,
            "value": 0.905511811023622
          },
          {
            "number": 11,
            "time": 60.15500000000115,
            "value": 0.889763779527559
          },
          {
            "number": 11,
            "time": 60.17000000000115,
            "value": 0.8740157480314961
          },
          {
            "number": 11,
            "time": 60.18000000000115,
            "value": 0.8661417322834646
          },
          {
            "number": 11,
            "time": 60.19000000000115,
            "value": 0.8503937007874016
          },
          {
            "number": 11,
            "time": 60.20500000000115,
            "value": 0.8346456692913385
          },
          {
            "number": 11,
            "time": 60.240000000001146,
            "value": 0.8188976377952756
          },
          {
            "number": 11,
            "time": 60.250000000001144,
            "value": 0.8031496062992126
          },
          {
            "number": 11,
            "time": 60.29000000000114,
            "value": 0.7874015748031497
          },
          {
            "number": 11,
            "time": 60.32500000000114,
            "value": 0.7795275590551181
          },
          {
            "number": 11,
            "time": 60.33500000000114,
            "value": 0.7322834645669292
          },
          {
            "number": 11,
            "time": 60.35000000000114,
            "value": 0.7244094488188977
          },
          {
            "number": 11,
            "time": 60.35500000000114,
            "value": 0.7086614173228346
          },
          {
            "number": 11,
            "time": 60.39000000000114,
            "value": 0.6929133858267716
          },
          {
            "number": 11,
            "time": 60.39500000000114,
            "value": 0.6771653543307087
          },
          {
            "number": 11,
            "time": 60.43000000000114,
            "value": 0.6614173228346457
          },
          {
            "number": 11,
            "time": 60.44500000000114,
            "value": 0.6141732283464567
          },
          {
            "number": 11,
            "time": 60.455000000001135,
            "value": 0.5984251968503937
          },
          {
            "number": 11,
            "time": 60.470000000001136,
            "value": 0.5826771653543307
          },
          {
            "number": 11,
            "time": 60.50500000000113,
            "value": 0.5354330708661418
          },
          {
            "number": 11,
            "time": 60.51500000000113,
            "value": 0.5196850393700787
          },
          {
            "number": 11,
            "time": 60.53000000000113,
            "value": 0.5039370078740157
          },
          {
            "number": 11,
            "time": 60.53500000000113,
            "value": 0.4881889763779528
          },
          {
            "number": 11,
            "time": 60.54500000000113,
            "value": 0.48031496062992124
          },
          {
            "number": 11,
            "time": 60.56000000000113,
            "value": 0.4330708661417323
          },
          {
            "number": 11,
            "time": 60.57000000000113,
            "value": 0.41732283464566927
          },
          {
            "number": 11,
            "time": 60.58000000000113,
            "value": 0.4015748031496063
          },
          {
            "number": 11,
            "time": 60.59500000000113,
            "value": 0.3937007874015748
          },
          {
            "number": 11,
            "time": 60.60000000000113,
            "value": 0.3779527559055118
          },
          {
            "number": 11,
            "time": 60.605000000001134,
            "value": 0.36220472440944884
          },
          {
            "number": 11,
            "time": 60.620000000001134,
            "value": 0.3464566929133858
          },
          {
            "number": 11,
            "time": 60.62500000000114,
            "value": 0.3228346456692913
          },
          {
            "number": 11,
            "time": 60.63000000000114,
            "value": 0.31496062992125984
          },
          {
            "number": 11,
            "time": 60.63500000000114,
            "value": 0.30708661417322836
          },
          {
            "number": 11,
            "time": 60.640000000001145,
            "value": 0.2992125984251969
          },
          {
            "number": 11,
            "time": 60.65000000000114,
            "value": 0.28346456692913385
          },
          {
            "number": 11,
            "time": 60.655000000001145,
            "value": 0.2755905511811024
          },
          {
            "number": 11,
            "time": 60.66500000000114,
            "value": 0.25984251968503935
          },
          {
            "number": 11,
            "time": 60.670000000001146,
            "value": 0.25196850393700787
          },
          {
            "number": 11,
            "time": 60.680000000001144,
            "value": 0.2440944881889764
          },
          {
            "number": 11,
            "time": 60.695000000001144,
            "value": 0.2283464566929134
          },
          {
            "number": 11,
            "time": 60.70000000000115,
            "value": 0.2204724409448819
          },
          {
            "number": 11,
            "time": 60.91000000000114,
            "value": 0.9921259842519685
          },
          {
            "number": 11,
            "time": 60.91500000000114,
            "value": 0.9763779527559056
          },
          {
            "number": 11,
            "time": 60.960000000001145,
            "value": 0.968503937007874
          },
          {
            "number": 11,
            "time": 60.990000000001146,
            "value": 0.9606299212598425
          },
          {
            "number": 11,
            "time": 61.00500000000115,
            "value": 0.952755905511811
          },
          {
            "number": 11,
            "time": 61.015000000001145,
            "value": 0.9448818897637795
          },
          {
            "number": 11,
            "time": 61.02000000000115,
            "value": 0.937007874015748
          },
          {
            "number": 11,
            "time": 61.030000000001145,
            "value": 0.9291338582677166
          },
          {
            "number": 11,
            "time": 61.03500000000115,
            "value": 0.9212598425196851
          },
          {
            "number": 11,
            "time": 61.045000000001146,
            "value": 0.8976377952755905
          },
          {
            "number": 11,
            "time": 61.05000000000115,
            "value": 0.889763779527559
          },
          {
            "number": 11,
            "time": 61.060000000001146,
            "value": 0.8661417322834646
          },
          {
            "number": 11,
            "time": 61.06500000000115,
            "value": 0.8503937007874016
          },
          {
            "number": 11,
            "time": 61.07000000000115,
            "value": 0.8110236220472441
          },
          {
            "number": 11,
            "time": 61.075000000001154,
            "value": 0.8031496062992126
          },
          {
            "number": 11,
            "time": 61.08000000000116,
            "value": 0.7952755905511811
          },
          {
            "number": 11,
            "time": 61.090000000001154,
            "value": 0.7637795275590551
          },
          {
            "number": 11,
            "time": 61.09500000000116,
            "value": 0.7401574803149606
          },
          {
            "number": 11,
            "time": 61.10000000000116,
            "value": 0.7165354330708661
          },
          {
            "number": 11,
            "time": 61.10500000000116,
            "value": 0.7007874015748031
          },
          {
            "number": 11,
            "time": 61.110000000001165,
            "value": 0.6929133858267716
          },
          {
            "number": 11,
            "time": 61.12000000000116,
            "value": 0.6850393700787402
          },
          {
            "number": 11,
            "time": 61.125000000001165,
            "value": 0.6614173228346457
          },
          {
            "number": 11,
            "time": 61.13000000000117,
            "value": 0.6535433070866141
          },
          {
            "number": 11,
            "time": 61.13500000000117,
            "value": 0.6456692913385826
          },
          {
            "number": 11,
            "time": 61.14000000000117,
            "value": 0.6299212598425197
          },
          {
            "number": 11,
            "time": 61.15000000000117,
            "value": 0.6141732283464567
          },
          {
            "number": 11,
            "time": 61.15500000000117,
            "value": 0.6062992125984252
          },
          {
            "number": 11,
            "time": 61.160000000001176,
            "value": 0.5905511811023622
          },
          {
            "number": 11,
            "time": 61.16500000000118,
            "value": 0.5748031496062992
          },
          {
            "number": 11,
            "time": 61.17000000000118,
            "value": 0.5275590551181102
          },
          {
            "number": 11,
            "time": 61.18000000000118,
            "value": 0.5039370078740157
          },
          {
            "number": 11,
            "time": 61.18500000000118,
            "value": 0.48031496062992124
          },
          {
            "number": 11,
            "time": 61.190000000001184,
            "value": 0.4409448818897638
          },
          {
            "number": 11,
            "time": 61.19500000000119,
            "value": 0.3937007874015748
          },
          {
            "number": 11,
            "time": 61.20000000000119,
            "value": 1
          },
          {
            "number": 11,
            "time": 61.67500000000123,
            "value": 1
          },
          {
            "number": 11,
            "time": 61.690000000001234,
            "value": 0.9763779527559056
          },
          {
            "number": 11,
            "time": 61.69500000000124,
            "value": 0.9448818897637795
          },
          {
            "number": 11,
            "time": 61.70000000000124,
            "value": 0.9133858267716536
          },
          {
            "number": 11,
            "time": 61.70500000000124,
            "value": 0.8976377952755905
          },
          {
            "number": 11,
            "time": 61.710000000001244,
            "value": 0.8661417322834646
          },
          {
            "number": 11,
            "time": 61.72000000000124,
            "value": 0.7952755905511811
          },
          {
            "number": 11,
            "time": 61.725000000001245,
            "value": 0.7559055118110236
          },
          {
            "number": 11,
            "time": 61.73000000000125,
            "value": 0.7480314960629921
          },
          {
            "number": 11,
            "time": 61.73500000000125,
            "value": 0.7165354330708661
          },
          {
            "number": 11,
            "time": 61.74000000000125,
            "value": 0.6692913385826772
          },
          {
            "number": 11,
            "time": 61.75000000000125,
            "value": 0.6456692913385826
          },
          {
            "number": 11,
            "time": 61.75500000000125,
            "value": 0.6377952755905512
          },
          {
            "number": 11,
            "time": 61.760000000001256,
            "value": 0.6141732283464567
          },
          {
            "number": 11,
            "time": 61.77000000000126,
            "value": 0.6220472440944882
          },
          {
            "number": 11,
            "time": 61.78000000000126,
            "value": 0.6299212598425197
          },
          {
            "number": 11,
            "time": 61.78500000000126,
            "value": 0.6377952755905512
          },
          {
            "number": 11,
            "time": 61.790000000001264,
            "value": 0.6535433070866141
          },
          {
            "number": 11,
            "time": 61.80000000000127,
            "value": 0.6692913385826772
          },
          {
            "number": 11,
            "time": 61.81000000000127,
            "value": 0.6850393700787402
          },
          {
            "number": 11,
            "time": 61.81500000000127,
            "value": 0.7165354330708661
          },
          {
            "number": 11,
            "time": 61.82000000000127,
            "value": 0.7480314960629921
          },
          {
            "number": 11,
            "time": 61.825000000001275,
            "value": 0.7637795275590551
          },
          {
            "number": 11,
            "time": 61.83000000000128,
            "value": 0.8188976377952756
          },
          {
            "number": 11,
            "time": 61.840000000001275,
            "value": 0.8976377952755905
          },
          {
            "number": 11,
            "time": 61.84500000000128,
            "value": 0.9133858267716536
          },
          {
            "number": 11,
            "time": 61.85000000000128,
            "value": 0.937007874015748
          },
          {
            "number": 11,
            "time": 61.85500000000128,
            "value": 0.968503937007874
          },
          {
            "number": 11,
            "time": 61.860000000001286,
            "value": 1
          },
          {
            "number": 11,
            "time": 62.40500000000132,
            "value": 0.9921259842519685
          },
          {
            "number": 11,
            "time": 62.41500000000133,
            "value": 0.984251968503937
          },
          {
            "number": 11,
            "time": 62.42000000000133,
            "value": 0.9763779527559056
          },
          {
            "number": 11,
            "time": 62.43500000000133,
            "value": 0.968503937007874
          },
          {
            "number": 11,
            "time": 62.44000000000133,
            "value": 0.9606299212598425
          },
          {
            "number": 11,
            "time": 62.45000000000134,
            "value": 0.952755905511811
          },
          {
            "number": 11,
            "time": 62.45500000000134,
            "value": 0.9448818897637795
          },
          {
            "number": 11,
            "time": 62.465000000001346,
            "value": 0.937007874015748
          },
          {
            "number": 11,
            "time": 62.47500000000135,
            "value": 0.9291338582677166
          },
          {
            "number": 11,
            "time": 62.48500000000135,
            "value": 0.9212598425196851
          },
          {
            "number": 11,
            "time": 62.495000000001355,
            "value": 0.9133858267716536
          },
          {
            "number": 11,
            "time": 62.53000000000136,
            "value": 0.8976377952755905
          },
          {
            "number": 11,
            "time": 62.53500000000136,
            "value": 0.889763779527559
          },
          {
            "number": 11,
            "time": 62.54500000000136,
            "value": 0.8818897637795275
          },
          {
            "number": 11,
            "time": 62.56000000000136,
            "value": 0.8661417322834646
          },
          {
            "number": 11,
            "time": 62.570000000001365,
            "value": 0.8503937007874016
          },
          {
            "number": 11,
            "time": 62.585000000001365,
            "value": 0.84251968503937
          },
          {
            "number": 11,
            "time": 62.62000000000137,
            "value": 0.8267716535433071
          },
          {
            "number": 11,
            "time": 62.65500000000137,
            "value": 0.8110236220472441
          },
          {
            "number": 11,
            "time": 62.690000000001376,
            "value": 0.7952755905511811
          },
          {
            "number": 11,
            "time": 62.70500000000138,
            "value": 0.7795275590551181
          },
          {
            "number": 11,
            "time": 62.75000000000138,
            "value": 0.7637795275590551
          },
          {
            "number": 11,
            "time": 62.765000000001386,
            "value": 0.7480314960629921
          },
          {
            "number": 11,
            "time": 62.775000000001384,
            "value": 0.7322834645669292
          },
          {
            "number": 11,
            "time": 62.81000000000138,
            "value": 0.7165354330708661
          },
          {
            "number": 11,
            "time": 62.82500000000138,
            "value": 0.6692913385826772
          },
          {
            "number": 11,
            "time": 62.860000000001385,
            "value": 0.6535433070866141
          },
          {
            "number": 11,
            "time": 62.89500000000139,
            "value": 0.6062992125984252
          },
          {
            "number": 11,
            "time": 62.93000000000139,
            "value": 0.5905511811023622
          },
          {
            "number": 11,
            "time": 62.965000000001396,
            "value": 0.5511811023622047
          },
          {
            "number": 11,
            "time": 62.9700000000014,
            "value": 0.5039370078740157
          },
          {
            "number": 11,
            "time": 62.9800000000014,
            "value": 0.4881889763779528
          },
          {
            "number": 11,
            "time": 62.9850000000014,
            "value": 0.47244094488188976
          },
          {
            "number": 11,
            "time": 62.9950000000014,
            "value": 0.4566929133858268
          },
          {
            "number": 11,
            "time": 63.0000000000014,
            "value": 0.4409448818897638
          },
          {
            "number": 11,
            "time": 63.0100000000014,
            "value": 0.4251968503937008
          },
          {
            "number": 11,
            "time": 63.0150000000014,
            "value": 0.4094488188976378
          },
          {
            "number": 11,
            "time": 63.0300000000014,
            "value": 0.3937007874015748
          },
          {
            "number": 11,
            "time": 63.0350000000014,
            "value": 0.3779527559055118
          },
          {
            "number": 11,
            "time": 63.040000000001406,
            "value": 0.3700787401574803
          },
          {
            "number": 11,
            "time": 63.05500000000141,
            "value": 0.36220472440944884
          },
          {
            "number": 11,
            "time": 63.06000000000141,
            "value": 0.3464566929133858
          },
          {
            "number": 11,
            "time": 63.06500000000141,
            "value": 0.33070866141732286
          },
          {
            "number": 11,
            "time": 63.07500000000142,
            "value": 0.31496062992125984
          },
          {
            "number": 11,
            "time": 63.085000000001415,
            "value": 0.2992125984251969
          },
          {
            "number": 11,
            "time": 63.09000000000142,
            "value": 0.28346456692913385
          },
          {
            "number": 11,
            "time": 63.100000000001415,
            "value": 0.2677165354330709
          },
          {
            "number": 11,
            "time": 63.10500000000142,
            "value": 0.25196850393700787
          },
          {
            "number": 11,
            "time": 63.11500000000142,
            "value": 0.23622047244094488
          },
          {
            "number": 11,
            "time": 63.15000000000143,
            "value": 0.2204724409448819
          },
          {
            "number": 11,
            "time": 63.15500000000143,
            "value": 0.2047244094488189
          },
          {
            "number": 11,
            "time": 63.16500000000143,
            "value": 0.1889763779527559
          },
          {
            "number": 11,
            "time": 63.175000000001425,
            "value": 0.18110236220472442
          },
          {
            "number": 11,
            "time": 63.18000000000143,
            "value": 0.15748031496062992
          },
          {
            "number": 11,
            "time": 63.250000000001435,
            "value": 1
          },
          {
            "number": 11,
            "time": 66.57500000000132,
            "value": 0.9921259842519685
          },
          {
            "number": 11,
            "time": 66.60500000000133,
            "value": 0.984251968503937
          },
          {
            "number": 11,
            "time": 66.61500000000133,
            "value": 0.9763779527559056
          },
          {
            "number": 11,
            "time": 66.62500000000134,
            "value": 0.968503937007874
          },
          {
            "number": 11,
            "time": 66.67500000000133,
            "value": 0.9606299212598425
          },
          {
            "number": 11,
            "time": 66.71000000000133,
            "value": 0.952755905511811
          },
          {
            "number": 11,
            "time": 66.74500000000133,
            "value": 0.9448818897637795
          },
          {
            "number": 11,
            "time": 66.78500000000133,
            "value": 0.937007874015748
          },
          {
            "number": 11,
            "time": 66.82000000000133,
            "value": 0.9291338582677166
          },
          {
            "number": 11,
            "time": 66.86500000000133,
            "value": 0.9212598425196851
          },
          {
            "number": 11,
            "time": 66.88000000000133,
            "value": 0.9133858267716536
          },
          {
            "number": 11,
            "time": 66.89500000000133,
            "value": 0.905511811023622
          },
          {
            "number": 11,
            "time": 66.91500000000133,
            "value": 0.8976377952755905
          },
          {
            "number": 11,
            "time": 66.93500000000132,
            "value": 0.889763779527559
          },
          {
            "number": 11,
            "time": 66.97000000000132,
            "value": 0.8818897637795275
          },
          {
            "number": 11,
            "time": 66.98000000000133,
            "value": 0.8740157480314961
          },
          {
            "number": 11,
            "time": 66.99500000000133,
            "value": 0.8661417322834646
          },
          {
            "number": 11,
            "time": 67.03000000000132,
            "value": 0.8582677165354331
          },
          {
            "number": 11,
            "time": 67.04000000000133,
            "value": 0.8503937007874016
          },
          {
            "number": 11,
            "time": 67.05500000000133,
            "value": 0.84251968503937
          },
          {
            "number": 11,
            "time": 67.07500000000134,
            "value": 0.8346456692913385
          },
          {
            "number": 11,
            "time": 67.09000000000134,
            "value": 0.8267716535433071
          },
          {
            "number": 11,
            "time": 67.10000000000134,
            "value": 0.8188976377952756
          },
          {
            "number": 11,
            "time": 67.10500000000134,
            "value": 0.8110236220472441
          },
          {
            "number": 11,
            "time": 67.14500000000135,
            "value": 0.8031496062992126
          },
          {
            "number": 11,
            "time": 67.15000000000134,
            "value": 0.7952755905511811
          },
          {
            "number": 11,
            "time": 67.16000000000135,
            "value": 0.7874015748031497
          },
          {
            "number": 11,
            "time": 67.17500000000135,
            "value": 0.7716535433070866
          },
          {
            "number": 11,
            "time": 67.18000000000134,
            "value": 0.7637795275590551
          },
          {
            "number": 11,
            "time": 67.21500000000134,
            "value": 0.7480314960629921
          },
          {
            "number": 11,
            "time": 67.22500000000134,
            "value": 0.7401574803149606
          },
          {
            "number": 11,
            "time": 67.24000000000134,
            "value": 0.7244094488188977
          },
          {
            "number": 11,
            "time": 67.27500000000134,
            "value": 0.7086614173228346
          },
          {
            "number": 11,
            "time": 67.28500000000133,
            "value": 0.6929133858267716
          },
          {
            "number": 11,
            "time": 67.30000000000133,
            "value": 0.6850393700787402
          },
          {
            "number": 11,
            "time": 67.31000000000134,
            "value": 0.6771653543307087
          },
          {
            "number": 11,
            "time": 67.34500000000133,
            "value": 0.6614173228346457
          },
          {
            "number": 11,
            "time": 67.35500000000134,
            "value": 0.6456692913385826
          },
          {
            "number": 11,
            "time": 67.39000000000135,
            "value": 0.6299212598425197
          },
          {
            "number": 11,
            "time": 67.40000000000136,
            "value": 0.6220472440944882
          },
          {
            "number": 11,
            "time": 67.41500000000136,
            "value": 0.6062992125984252
          },
          {
            "number": 11,
            "time": 67.45000000000137,
            "value": 0.5905511811023622
          },
          {
            "number": 11,
            "time": 67.45500000000136,
            "value": 0.5826771653543307
          },
          {
            "number": 11,
            "time": 67.46000000000136,
            "value": 0.5669291338582677
          },
          {
            "number": 11,
            "time": 67.47500000000136,
            "value": 0.5590551181102362
          },
          {
            "number": 11,
            "time": 67.48500000000136,
            "value": 0.5433070866141733
          },
          {
            "number": 11,
            "time": 67.49500000000137,
            "value": 0.5275590551181102
          },
          {
            "number": 11,
            "time": 67.50500000000137,
            "value": 0.5118110236220472
          },
          {
            "number": 11,
            "time": 67.54000000000137,
            "value": 0.4645669291338583
          },
          {
            "number": 11,
            "time": 67.55000000000138,
            "value": 0.44881889763779526
          },
          {
            "number": 11,
            "time": 67.58500000000137,
            "value": 0.4015748031496063
          },
          {
            "number": 11,
            "time": 67.60000000000137,
            "value": 0.3858267716535433
          },
          {
            "number": 11,
            "time": 67.61000000000138,
            "value": 0.33858267716535434
          },
          {
            "number": 11,
            "time": 67.66000000000139,
            "value": 0.29133858267716534
          },
          {
            "number": 11,
            "time": 67.67000000000138,
            "value": 0.2440944881889764
          },
          {
            "number": 11,
            "time": 67.70500000000138,
            "value": 0.1968503937007874
          },
          {
            "number": 11,
            "time": 67.74500000000138,
            "value": 0.14960629921259844
          },
          {
            "number": 11,
            "time": 67.75500000000139,
            "value": 0.13385826771653545
          },
          {
            "number": 11,
            "time": 67.7650000000014,
            "value": 0.07086614173228346
          },
          {
            "number": 11,
            "time": 67.8050000000014,
            "value": 0.023622047244094488
          },
          {
            "number": 11,
            "time": 67.8150000000014,
            "value": 0
          },
          {
            "number": 11,
            "time": 67.8800000000014,
            "value": 0.9921259842519685
          },
          {
            "number": 11,
            "time": 67.8950000000014,
            "value": 1
          },
          {
            "number": 11,
            "time": 69.88000000000113,
            "value": 0.9763779527559056
          },
          {
            "number": 11,
            "time": 69.88500000000113,
            "value": 0.968503937007874
          },
          {
            "number": 11,
            "time": 69.89500000000113,
            "value": 0.952755905511811
          },
          {
            "number": 11,
            "time": 69.90000000000113,
            "value": 0.9448818897637795
          },
          {
            "number": 11,
            "time": 69.90500000000112,
            "value": 0.9291338582677166
          },
          {
            "number": 11,
            "time": 69.91500000000113,
            "value": 0.9212598425196851
          },
          {
            "number": 11,
            "time": 69.92500000000113,
            "value": 0.905511811023622
          },
          {
            "number": 11,
            "time": 69.93000000000113,
            "value": 0.8976377952755905
          },
          {
            "number": 11,
            "time": 69.94000000000113,
            "value": 0.889763779527559
          },
          {
            "number": 11,
            "time": 69.94500000000113,
            "value": 0.8818897637795275
          },
          {
            "number": 11,
            "time": 69.95500000000114,
            "value": 0.8661417322834646
          },
          {
            "number": 11,
            "time": 69.96000000000113,
            "value": 0.8582677165354331
          },
          {
            "number": 11,
            "time": 69.97000000000114,
            "value": 0.8503937007874016
          },
          {
            "number": 11,
            "time": 69.97500000000113,
            "value": 0.84251968503937
          },
          {
            "number": 11,
            "time": 69.98500000000114,
            "value": 0.8346456692913385
          },
          {
            "number": 11,
            "time": 70.01500000000114,
            "value": 0.8267716535433071
          },
          {
            "number": 11,
            "time": 70.09000000000114,
            "value": 0.8346456692913385
          },
          {
            "number": 11,
            "time": 70.11000000000114,
            "value": 0.84251968503937
          },
          {
            "number": 11,
            "time": 70.12000000000114,
            "value": 0.8503937007874016
          },
          {
            "number": 11,
            "time": 70.14000000000114,
            "value": 0.8582677165354331
          },
          {
            "number": 11,
            "time": 70.14500000000113,
            "value": 0.8661417322834646
          },
          {
            "number": 11,
            "time": 70.15000000000113,
            "value": 0.8740157480314961
          },
          {
            "number": 11,
            "time": 70.16500000000113,
            "value": 0.889763779527559
          },
          {
            "number": 11,
            "time": 70.17500000000113,
            "value": 0.905511811023622
          },
          {
            "number": 11,
            "time": 70.18000000000113,
            "value": 0.9133858267716536
          },
          {
            "number": 11,
            "time": 70.18500000000112,
            "value": 0.937007874015748
          },
          {
            "number": 11,
            "time": 70.19500000000113,
            "value": 0.952755905511811
          },
          {
            "number": 11,
            "time": 70.20000000000113,
            "value": 0.9921259842519685
          },
          {
            "number": 11,
            "time": 70.20500000000112,
            "value": 0.9763779527559056
          },
          {
            "number": 11,
            "time": 70.21500000000113,
            "value": 0.952755905511811
          },
          {
            "number": 11,
            "time": 70.23000000000113,
            "value": 0.9291338582677166
          },
          {
            "number": 11,
            "time": 70.23500000000112,
            "value": 0.9133858267716536
          },
          {
            "number": 11,
            "time": 70.24000000000112,
            "value": 0.8976377952755905
          },
          {
            "number": 11,
            "time": 70.24500000000111,
            "value": 0.889763779527559
          },
          {
            "number": 11,
            "time": 70.26000000000111,
            "value": 0.8661417322834646
          },
          {
            "number": 11,
            "time": 70.27000000000112,
            "value": 0.8582677165354331
          },
          {
            "number": 11,
            "time": 70.27500000000111,
            "value": 0.8503937007874016
          },
          {
            "number": 11,
            "time": 70.28500000000112,
            "value": 0.84251968503937
          },
          {
            "number": 11,
            "time": 70.29000000000111,
            "value": 0.8346456692913385
          },
          {
            "number": 11,
            "time": 70.30500000000112,
            "value": 0.8267716535433071
          },
          {
            "number": 11,
            "time": 70.35500000000111,
            "value": 0.8346456692913385
          },
          {
            "number": 11,
            "time": 70.36000000000111,
            "value": 0.84251968503937
          },
          {
            "number": 11,
            "time": 70.3800000000011,
            "value": 0.8582677165354331
          },
          {
            "number": 11,
            "time": 70.3950000000011,
            "value": 0.8740157480314961
          },
          {
            "number": 11,
            "time": 70.40500000000111,
            "value": 0.8818897637795275
          },
          {
            "number": 11,
            "time": 70.4100000000011,
            "value": 0.889763779527559
          },
          {
            "number": 11,
            "time": 70.42000000000111,
            "value": 0.8976377952755905
          },
          {
            "number": 11,
            "time": 70.4250000000011,
            "value": 0.9133858267716536
          },
          {
            "number": 11,
            "time": 70.4400000000011,
            "value": 0.9212598425196851
          },
          {
            "number": 11,
            "time": 70.4450000000011,
            "value": 0.9291338582677166
          },
          {
            "number": 11,
            "time": 70.4500000000011,
            "value": 0.9448818897637795
          },
          {
            "number": 11,
            "time": 70.4650000000011,
            "value": 0.952755905511811
          },
          {
            "number": 11,
            "time": 70.4700000000011,
            "value": 0.9606299212598425
          },
          {
            "number": 11,
            "time": 70.47500000000109,
            "value": 0.968503937007874
          },
          {
            "number": 11,
            "time": 70.48000000000108,
            "value": 0.9763779527559056
          },
          {
            "number": 11,
            "time": 70.48500000000108,
            "value": 0.984251968503937
          },
          {
            "number": 11,
            "time": 70.49500000000108,
            "value": 1
          },
          {
            "number": 11,
            "time": 70.50500000000108,
            "value": 0.984251968503937
          },
          {
            "number": 11,
            "time": 70.51000000000107,
            "value": 0.9763779527559056
          },
          {
            "number": 11,
            "time": 70.51500000000107,
            "value": 0.9606299212598425
          },
          {
            "number": 11,
            "time": 70.52500000000107,
            "value": 0.9448818897637795
          },
          {
            "number": 11,
            "time": 70.53000000000107,
            "value": 0.9291338582677166
          },
          {
            "number": 11,
            "time": 70.54000000000107,
            "value": 0.9212598425196851
          },
          {
            "number": 11,
            "time": 70.54500000000107,
            "value": 0.8976377952755905
          },
          {
            "number": 11,
            "time": 70.55500000000107,
            "value": 0.889763779527559
          },
          {
            "number": 11,
            "time": 70.56500000000108,
            "value": 0.8818897637795275
          },
          {
            "number": 11,
            "time": 70.57000000000107,
            "value": 0.8740157480314961
          },
          {
            "number": 11,
            "time": 70.57500000000107,
            "value": 0.8661417322834646
          },
          {
            "number": 11,
            "time": 70.59500000000106,
            "value": 0.8582677165354331
          },
          {
            "number": 11,
            "time": 70.60500000000107,
            "value": 0.8503937007874016
          },
          {
            "number": 11,
            "time": 70.62000000000107,
            "value": 0.84251968503937
          },
          {
            "number": 11,
            "time": 70.63000000000108,
            "value": 0.8346456692913385
          },
          {
            "number": 11,
            "time": 70.72500000000107,
            "value": 0.8503937007874016
          },
          {
            "number": 11,
            "time": 70.74000000000107,
            "value": 0.8582677165354331
          },
          {
            "number": 11,
            "time": 70.74500000000107,
            "value": 0.8661417322834646
          },
          {
            "number": 11,
            "time": 70.75500000000106,
            "value": 0.8740157480314961
          },
          {
            "number": 11,
            "time": 70.81000000000107,
            "value": 0.8661417322834646
          },
          {
            "number": 11,
            "time": 70.81500000000106,
            "value": 0.8582677165354331
          },
          {
            "number": 11,
            "time": 70.82500000000107,
            "value": 0.8503937007874016
          },
          {
            "number": 11,
            "time": 70.83500000000107,
            "value": 0.84251968503937
          },
          {
            "number": 11,
            "time": 70.84000000000107,
            "value": 0.8267716535433071
          },
          {
            "number": 11,
            "time": 70.84500000000106,
            "value": 0.8188976377952756
          },
          {
            "number": 11,
            "time": 70.91500000000104,
            "value": 0.8267716535433071
          },
          {
            "number": 11,
            "time": 70.92500000000103,
            "value": 0.8346456692913385
          },
          {
            "number": 11,
            "time": 70.93500000000103,
            "value": 0.84251968503937
          },
          {
            "number": 11,
            "time": 70.95000000000103,
            "value": 0.8503937007874016
          },
          {
            "number": 11,
            "time": 70.96000000000102,
            "value": 0.8661417322834646
          },
          {
            "number": 11,
            "time": 70.98000000000101,
            "value": 0.8740157480314961
          },
          {
            "number": 11,
            "time": 70.98500000000101,
            "value": 0.8818897637795275
          },
          {
            "number": 11,
            "time": 70.990000000001,
            "value": 0.889763779527559
          },
          {
            "number": 11,
            "time": 70.995000000001,
            "value": 0.8976377952755905
          },
          {
            "number": 11,
            "time": 71.005000000001,
            "value": 0.905511811023622
          },
          {
            "number": 11,
            "time": 71.010000000001,
            "value": 0.9133858267716536
          },
          {
            "number": 11,
            "time": 71.02000000000099,
            "value": 0.9291338582677166
          },
          {
            "number": 11,
            "time": 71.02500000000099,
            "value": 0.937007874015748
          },
          {
            "number": 11,
            "time": 71.03500000000099,
            "value": 0.9448818897637795
          },
          {
            "number": 11,
            "time": 71.04000000000099,
            "value": 0.952755905511811
          },
          {
            "number": 11,
            "time": 71.04500000000098,
            "value": 0.9606299212598425
          },
          {
            "number": 11,
            "time": 71.05000000000098,
            "value": 0.968503937007874
          },
          {
            "number": 11,
            "time": 71.05500000000097,
            "value": 0.9921259842519685
          },
          {
            "number": 11,
            "time": 71.06500000000098,
            "value": 1
          },
          {
            "number": 11,
            "time": 71.84500000000091,
            "value": 1
          },
          {
            "number": 11,
            "time": 71.8500000000009,
            "value": 0.9921259842519685
          },
          {
            "number": 11,
            "time": 71.8700000000009,
            "value": 0.984251968503937
          },
          {
            "number": 11,
            "time": 71.8750000000009,
            "value": 0.9763779527559056
          },
          {
            "number": 11,
            "time": 71.8850000000009,
            "value": 0.9606299212598425
          },
          {
            "number": 11,
            "time": 71.9000000000009,
            "value": 0.952755905511811
          },
          {
            "number": 11,
            "time": 71.9050000000009,
            "value": 0.9448818897637795
          },
          {
            "number": 11,
            "time": 71.91500000000089,
            "value": 0.937007874015748
          },
          {
            "number": 11,
            "time": 71.92500000000089,
            "value": 0.9291338582677166
          },
          {
            "number": 11,
            "time": 71.96000000000089,
            "value": 0.9133858267716536
          },
          {
            "number": 11,
            "time": 71.96500000000088,
            "value": 0.905511811023622
          },
          {
            "number": 11,
            "time": 72.00000000000088,
            "value": 0.889763779527559
          },
          {
            "number": 11,
            "time": 72.00500000000088,
            "value": 0.9921259842519685
          },
          {
            "number": 11,
            "time": 72.01500000000087,
            "value": 0.984251968503937
          },
          {
            "number": 11,
            "time": 72.02000000000086,
            "value": 0.9763779527559056
          },
          {
            "number": 11,
            "time": 72.03500000000086,
            "value": 0.8740157480314961
          },
          {
            "number": 11,
            "time": 72.03500000000086,
            "value": 0.968503937007874
          },
          {
            "number": 11,
            "time": 72.04000000000086,
            "value": 0.9606299212598425
          },
          {
            "number": 11,
            "time": 72.05000000000085,
            "value": 0.952755905511811
          },
          {
            "number": 11,
            "time": 72.05500000000085,
            "value": 0.9448818897637795
          },
          {
            "number": 11,
            "time": 72.06500000000084,
            "value": 0.937007874015748
          },
          {
            "number": 11,
            "time": 72.07500000000083,
            "value": 0.9291338582677166
          },
          {
            "number": 11,
            "time": 72.07500000000083,
            "value": 0.8661417322834646
          },
          {
            "number": 11,
            "time": 72.08500000000083,
            "value": 0.9212598425196851
          },
          {
            "number": 11,
            "time": 72.09500000000082,
            "value": 0.9133858267716536
          },
          {
            "number": 11,
            "time": 72.11000000000081,
            "value": 0.8503937007874016
          },
          {
            "number": 11,
            "time": 72.1200000000008,
            "value": 0.8346456692913385
          },
          {
            "number": 11,
            "time": 72.1300000000008,
            "value": 0.8976377952755905
          },
          {
            "number": 11,
            "time": 72.1350000000008,
            "value": 0.889763779527559
          },
          {
            "number": 11,
            "time": 72.14500000000079,
            "value": 0.8818897637795275
          },
          {
            "number": 11,
            "time": 72.1550000000008,
            "value": 0.8188976377952756
          },
          {
            "number": 11,
            "time": 72.16000000000079,
            "value": 0.8661417322834646
          },
          {
            "number": 11,
            "time": 72.17000000000078,
            "value": 0.8503937007874016
          },
          {
            "number": 11,
            "time": 72.18500000000078,
            "value": 0.84251968503937
          },
          {
            "number": 11,
            "time": 72.19500000000077,
            "value": 0.8031496062992126
          },
          {
            "number": 11,
            "time": 72.22000000000078,
            "value": 0.8267716535433071
          },
          {
            "number": 11,
            "time": 72.23000000000077,
            "value": 0.7874015748031497
          },
          {
            "number": 11,
            "time": 72.24000000000076,
            "value": 0.7716535433070866
          },
          {
            "number": 11,
            "time": 72.25500000000076,
            "value": 0.8110236220472441
          },
          {
            "number": 11,
            "time": 72.27500000000074,
            "value": 0.7559055118110236
          },
          {
            "number": 11,
            "time": 72.29000000000075,
            "value": 0.7401574803149606
          },
          {
            "number": 11,
            "time": 72.29000000000075,
            "value": 0.7952755905511811
          },
          {
            "number": 11,
            "time": 72.30000000000075,
            "value": 0.7244094488188977
          },
          {
            "number": 11,
            "time": 72.30500000000075,
            "value": 0.7795275590551181
          },
          {
            "number": 11,
            "time": 72.31500000000075,
            "value": 0.7165354330708661
          },
          {
            "number": 11,
            "time": 72.32500000000074,
            "value": 0.7007874015748031
          },
          {
            "number": 11,
            "time": 72.33000000000074,
            "value": 0.6850393700787402
          },
          {
            "number": 11,
            "time": 72.35000000000073,
            "value": 0.7637795275590551
          },
          {
            "number": 11,
            "time": 72.36500000000072,
            "value": 0.6377952755905512
          },
          {
            "number": 11,
            "time": 72.36500000000072,
            "value": 0.7480314960629921
          },
          {
            "number": 11,
            "time": 72.37500000000072,
            "value": 0.6220472440944882
          },
          {
            "number": 11,
            "time": 72.37500000000072,
            "value": 0.7322834645669292
          },
          {
            "number": 11,
            "time": 72.41000000000074,
            "value": 0.7165354330708661
          },
          {
            "number": 11,
            "time": 72.41000000000074,
            "value": 0.6062992125984252
          },
          {
            "number": 11,
            "time": 72.42000000000074,
            "value": 0.5905511811023622
          },
          {
            "number": 11,
            "time": 72.42500000000074,
            "value": 0.6692913385826772
          },
          {
            "number": 11,
            "time": 72.43500000000074,
            "value": 0.5748031496062992
          },
          {
            "number": 11,
            "time": 72.44000000000074,
            "value": 0.5590551181102362
          },
          {
            "number": 11,
            "time": 72.45000000000074,
            "value": 0.5433070866141733
          },
          {
            "number": 11,
            "time": 72.45500000000074,
            "value": 0.5354330708661418
          },
          {
            "number": 11,
            "time": 72.46000000000073,
            "value": 0.6535433070866141
          },
          {
            "number": 11,
            "time": 72.47000000000074,
            "value": 0.5196850393700787
          },
          {
            "number": 11,
            "time": 72.48000000000073,
            "value": 0.5039370078740157
          },
          {
            "number": 11,
            "time": 72.48500000000072,
            "value": 0.4881889763779528
          },
          {
            "number": 11,
            "time": 72.49500000000073,
            "value": 0.6062992125984252
          },
          {
            "number": 11,
            "time": 72.50000000000072,
            "value": 0.47244094488188976
          },
          {
            "number": 11,
            "time": 72.50500000000072,
            "value": 0.4566929133858268
          },
          {
            "number": 11,
            "time": 72.51500000000071,
            "value": 0.4409448818897638
          },
          {
            "number": 11,
            "time": 72.5300000000007,
            "value": 0.5905511811023622
          },
          {
            "number": 11,
            "time": 72.5300000000007,
            "value": 0.4330708661417323
          },
          {
            "number": 11,
            "time": 72.5350000000007,
            "value": 0.41732283464566927
          },
          {
            "number": 11,
            "time": 72.54000000000069,
            "value": 0.4094488188976378
          },
          {
            "number": 11,
            "time": 72.54500000000068,
            "value": 0.4015748031496063
          },
          {
            "number": 11,
            "time": 72.55500000000069,
            "value": 0.3779527559055118
          },
          {
            "number": 11,
            "time": 72.56000000000068,
            "value": 0.3700787401574803
          },
          {
            "number": 11,
            "time": 72.56500000000068,
            "value": 0.3543307086614173
          },
          {
            "number": 11,
            "time": 72.56500000000068,
            "value": 0.5511811023622047
          },
          {
            "number": 11,
            "time": 72.57000000000068,
            "value": 0.5039370078740157
          },
          {
            "number": 11,
            "time": 72.57000000000068,
            "value": 0.33858267716535434
          },
          {
            "number": 11,
            "time": 72.57500000000067,
            "value": 0.30708661417322836
          },
          {
            "number": 11,
            "time": 72.58000000000067,
            "value": 0.4881889763779528
          },
          {
            "number": 11,
            "time": 72.58500000000066,
            "value": 0.47244094488188976
          },
          {
            "number": 11,
            "time": 72.58500000000066,
            "value": 0.29133858267716534
          },
          {
            "number": 11,
            "time": 72.59500000000065,
            "value": 0.2755905511811024
          },
          {
            "number": 11,
            "time": 72.59500000000065,
            "value": 0.4566929133858268
          },
          {
            "number": 11,
            "time": 72.60000000000065,
            "value": 0.4409448818897638
          },
          {
            "number": 11,
            "time": 72.60000000000065,
            "value": 0.25196850393700787
          },
          {
            "number": 11,
            "time": 72.60500000000064,
            "value": 0.23622047244094488
          },
          {
            "number": 11,
            "time": 72.61000000000064,
            "value": 0.4251968503937008
          },
          {
            "number": 11,
            "time": 72.61500000000063,
            "value": 0.2204724409448819
          },
          {
            "number": 11,
            "time": 72.61500000000063,
            "value": 0.4094488188976378
          },
          {
            "number": 11,
            "time": 72.62000000000063,
            "value": 0.2125984251968504
          },
          {
            "number": 11,
            "time": 72.62500000000063,
            "value": 0.1889763779527559
          },
          {
            "number": 11,
            "time": 72.63000000000062,
            "value": 0.16535433070866143
          },
          {
            "number": 11,
            "time": 72.63000000000062,
            "value": 0.3937007874015748
          },
          {
            "number": 11,
            "time": 72.63500000000062,
            "value": 0.3779527559055118
          },
          {
            "number": 11,
            "time": 72.63500000000062,
            "value": 0.15748031496062992
          },
          {
            "number": 11,
            "time": 72.64000000000061,
            "value": 0.3700787401574803
          },
          {
            "number": 11,
            "time": 72.6450000000006,
            "value": 0.14173228346456693
          },
          {
            "number": 11,
            "time": 72.6500000000006,
            "value": 0.11811023622047244
          },
          {
            "number": 11,
            "time": 72.6550000000006,
            "value": 0.10236220472440945
          },
          {
            "number": 11,
            "time": 72.6550000000006,
            "value": 0.36220472440944884
          },
          {
            "number": 11,
            "time": 72.6600000000006,
            "value": 0.3464566929133858
          },
          {
            "number": 11,
            "time": 72.6600000000006,
            "value": 0.09448818897637795
          },
          {
            "number": 11,
            "time": 72.66500000000059,
            "value": 0.08661417322834646
          },
          {
            "number": 11,
            "time": 72.66500000000059,
            "value": 0.33070866141732286
          },
          {
            "number": 11,
            "time": 72.67500000000058,
            "value": 0.31496062992125984
          },
          {
            "number": 11,
            "time": 72.67500000000058,
            "value": 0.03937007874015748
          },
          {
            "number": 11,
            "time": 72.68500000000058,
            "value": 0.2992125984251969
          },
          {
            "number": 11,
            "time": 72.68500000000058,
            "value": 0.031496062992125984
          },
          {
            "number": 11,
            "time": 72.69000000000058,
            "value": 0.015748031496062992
          },
          {
            "number": 11,
            "time": 72.69000000000058,
            "value": 0.28346456692913385
          },
          {
            "number": 11,
            "time": 72.69500000000058,
            "value": 0
          },
          {
            "number": 11,
            "time": 72.70000000000057,
            "value": 0.2677165354330709
          },
          {
            "number": 11,
            "time": 72.70500000000057,
            "value": 0.25196850393700787
          },
          {
            "number": 11,
            "time": 72.71500000000056,
            "value": 0.23622047244094488
          },
          {
            "number": 11,
            "time": 72.75000000000055,
            "value": 0.2204724409448819
          },
          {
            "number": 11,
            "time": 72.75500000000055,
            "value": 0.2047244094488189
          },
          {
            "number": 11,
            "time": 72.76500000000055,
            "value": 1
          },
          {
            "number": 11,
            "time": 72.76500000000055,
            "value": 0.1889763779527559
          },
          {
            "number": 11,
            "time": 72.77500000000056,
            "value": 0.18110236220472442
          },
          {
            "number": 11,
            "time": 72.78000000000056,
            "value": 0.15748031496062992
          },
          {
            "number": 11,
            "time": 72.85000000000056,
            "value": 1
          },
          {
            "number": 11,
            "time": 76.17500000000042,
            "value": 0.9921259842519685
          },
          {
            "number": 11,
            "time": 76.20500000000042,
            "value": 0.984251968503937
          },
          {
            "number": 11,
            "time": 76.21500000000043,
            "value": 0.9763779527559056
          },
          {
            "number": 11,
            "time": 76.22500000000043,
            "value": 0.968503937007874
          },
          {
            "number": 11,
            "time": 76.27500000000043,
            "value": 0.9606299212598425
          },
          {
            "number": 11,
            "time": 76.31000000000043,
            "value": 0.952755905511811
          },
          {
            "number": 11,
            "time": 76.34500000000043,
            "value": 0.9448818897637795
          },
          {
            "number": 11,
            "time": 76.38500000000043,
            "value": 0.937007874015748
          },
          {
            "number": 11,
            "time": 76.42000000000044,
            "value": 0.9291338582677166
          },
          {
            "number": 11,
            "time": 76.46500000000044,
            "value": 0.9212598425196851
          },
          {
            "number": 11,
            "time": 76.48000000000044,
            "value": 0.9133858267716536
          },
          {
            "number": 11,
            "time": 76.49500000000045,
            "value": 0.905511811023622
          },
          {
            "number": 11,
            "time": 76.51500000000044,
            "value": 0.8976377952755905
          },
          {
            "number": 11,
            "time": 76.53500000000044,
            "value": 0.889763779527559
          },
          {
            "number": 11,
            "time": 76.57000000000043,
            "value": 0.8818897637795275
          },
          {
            "number": 11,
            "time": 76.58000000000044,
            "value": 0.8740157480314961
          },
          {
            "number": 11,
            "time": 76.59500000000044,
            "value": 0.8661417322834646
          },
          {
            "number": 11,
            "time": 76.63000000000045,
            "value": 0.8582677165354331
          },
          {
            "number": 11,
            "time": 76.64000000000046,
            "value": 0.8503937007874016
          },
          {
            "number": 11,
            "time": 76.65500000000046,
            "value": 0.84251968503937
          },
          {
            "number": 11,
            "time": 76.67500000000045,
            "value": 0.8346456692913385
          },
          {
            "number": 11,
            "time": 76.69000000000045,
            "value": 0.8267716535433071
          },
          {
            "number": 11,
            "time": 76.70000000000046,
            "value": 0.8188976377952756
          },
          {
            "number": 11,
            "time": 76.70500000000045,
            "value": 0.8110236220472441
          },
          {
            "number": 11,
            "time": 76.74500000000045,
            "value": 0.8031496062992126
          },
          {
            "number": 11,
            "time": 76.75000000000044,
            "value": 0.7952755905511811
          },
          {
            "number": 11,
            "time": 76.76000000000045,
            "value": 0.7874015748031497
          },
          {
            "number": 11,
            "time": 76.77500000000045,
            "value": 0.7716535433070866
          },
          {
            "number": 11,
            "time": 76.78000000000044,
            "value": 0.7637795275590551
          },
          {
            "number": 11,
            "time": 76.81500000000045,
            "value": 0.7480314960629921
          },
          {
            "number": 11,
            "time": 76.82500000000044,
            "value": 0.7401574803149606
          },
          {
            "number": 11,
            "time": 76.84000000000044,
            "value": 0.7244094488188977
          },
          {
            "number": 11,
            "time": 76.87500000000044,
            "value": 0.7086614173228346
          },
          {
            "number": 11,
            "time": 76.88500000000045,
            "value": 0.6929133858267716
          },
          {
            "number": 11,
            "time": 76.90000000000045,
            "value": 0.6850393700787402
          },
          {
            "number": 11,
            "time": 76.91000000000045,
            "value": 0.6771653543307087
          },
          {
            "number": 11,
            "time": 76.94500000000045,
            "value": 0.6614173228346457
          },
          {
            "number": 11,
            "time": 76.95500000000045,
            "value": 0.6456692913385826
          },
          {
            "number": 11,
            "time": 76.99000000000045,
            "value": 0.6299212598425197
          },
          {
            "number": 11,
            "time": 77.00000000000045,
            "value": 0.6220472440944882
          },
          {
            "number": 11,
            "time": 77.01500000000046,
            "value": 0.6062992125984252
          },
          {
            "number": 11,
            "time": 77.05000000000045,
            "value": 0.5905511811023622
          },
          {
            "number": 11,
            "time": 77.05500000000045,
            "value": 0.5826771653543307
          },
          {
            "number": 11,
            "time": 77.06000000000044,
            "value": 0.5669291338582677
          },
          {
            "number": 11,
            "time": 77.07500000000044,
            "value": 0.5590551181102362
          },
          {
            "number": 11,
            "time": 77.08500000000045,
            "value": 0.5433070866141733
          },
          {
            "number": 11,
            "time": 77.09500000000045,
            "value": 0.5275590551181102
          },
          {
            "number": 11,
            "time": 77.10500000000046,
            "value": 0.5118110236220472
          },
          {
            "number": 11,
            "time": 77.14000000000044,
            "value": 0.4645669291338583
          },
          {
            "number": 11,
            "time": 77.15000000000045,
            "value": 0.44881889763779526
          },
          {
            "number": 11,
            "time": 77.18500000000043,
            "value": 0.4015748031496063
          },
          {
            "number": 11,
            "time": 77.20000000000043,
            "value": 0.3858267716535433
          },
          {
            "number": 11,
            "time": 77.21000000000043,
            "value": 0.33858267716535434
          },
          {
            "number": 11,
            "time": 77.2600000000004,
            "value": 0.29133858267716534
          },
          {
            "number": 11,
            "time": 77.27000000000041,
            "value": 0.2440944881889764
          },
          {
            "number": 11,
            "time": 77.3050000000004,
            "value": 0.1968503937007874
          },
          {
            "number": 11,
            "time": 77.34500000000038,
            "value": 0.14960629921259844
          },
          {
            "number": 11,
            "time": 77.35500000000039,
            "value": 0.13385826771653545
          },
          {
            "number": 11,
            "time": 77.36500000000038,
            "value": 0.07086614173228346
          },
          {
            "number": 11,
            "time": 77.40500000000036,
            "value": 0.023622047244094488
          },
          {
            "number": 11,
            "time": 77.41500000000035,
            "value": 0
          },
          {
            "number": 11,
            "time": 77.48000000000035,
            "value": 0.9921259842519685
          },
          {
            "number": 11,
            "time": 77.49500000000035,
            "value": 1
          },
          {
            "number": 11,
            "time": 79.48000000000015,
            "value": 0.9763779527559056
          },
          {
            "number": 11,
            "time": 79.48500000000014,
            "value": 0.968503937007874
          },
          {
            "number": 11,
            "time": 79.49500000000015,
            "value": 0.952755905511811
          },
          {
            "number": 11,
            "time": 79.50000000000014,
            "value": 0.9448818897637795
          },
          {
            "number": 11,
            "time": 79.50500000000014,
            "value": 0.9291338582677166
          },
          {
            "number": 11,
            "time": 79.51500000000014,
            "value": 0.9212598425196851
          },
          {
            "number": 11,
            "time": 79.52500000000015,
            "value": 0.905511811023622
          },
          {
            "number": 11,
            "time": 79.53000000000014,
            "value": 0.8976377952755905
          },
          {
            "number": 11,
            "time": 79.54000000000015,
            "value": 0.889763779527559
          },
          {
            "number": 11,
            "time": 79.54500000000014,
            "value": 0.8818897637795275
          },
          {
            "number": 11,
            "time": 79.55500000000015,
            "value": 0.8661417322834646
          },
          {
            "number": 11,
            "time": 79.56000000000014,
            "value": 0.8582677165354331
          },
          {
            "number": 11,
            "time": 79.57000000000015,
            "value": 0.8503937007874016
          },
          {
            "number": 11,
            "time": 79.57500000000014,
            "value": 0.84251968503937
          },
          {
            "number": 11,
            "time": 79.58500000000015,
            "value": 0.8346456692913385
          },
          {
            "number": 11,
            "time": 79.61500000000015,
            "value": 0.8267716535433071
          },
          {
            "number": 11,
            "time": 79.69000000000015,
            "value": 0.8346456692913385
          },
          {
            "number": 11,
            "time": 79.71000000000015,
            "value": 0.84251968503937
          },
          {
            "number": 11,
            "time": 79.72000000000016,
            "value": 0.8503937007874016
          },
          {
            "number": 11,
            "time": 79.74000000000015,
            "value": 0.8582677165354331
          },
          {
            "number": 11,
            "time": 79.74500000000015,
            "value": 0.8661417322834646
          },
          {
            "number": 11,
            "time": 79.75000000000014,
            "value": 0.8740157480314961
          },
          {
            "number": 11,
            "time": 79.76500000000014,
            "value": 0.889763779527559
          },
          {
            "number": 11,
            "time": 79.77500000000015,
            "value": 0.905511811023622
          },
          {
            "number": 11,
            "time": 79.78000000000014,
            "value": 0.9133858267716536
          },
          {
            "number": 11,
            "time": 79.78500000000014,
            "value": 0.937007874015748
          },
          {
            "number": 11,
            "time": 79.79500000000014,
            "value": 0.952755905511811
          },
          {
            "number": 11,
            "time": 79.80000000000014,
            "value": 0.9921259842519685
          },
          {
            "number": 11,
            "time": 79.80500000000013,
            "value": 0.9763779527559056
          },
          {
            "number": 11,
            "time": 79.81500000000014,
            "value": 0.952755905511811
          },
          {
            "number": 11,
            "time": 79.83000000000013,
            "value": 0.9291338582677166
          },
          {
            "number": 11,
            "time": 79.83500000000012,
            "value": 0.9133858267716536
          },
          {
            "number": 11,
            "time": 79.84000000000012,
            "value": 0.8976377952755905
          },
          {
            "number": 11,
            "time": 79.84500000000011,
            "value": 0.889763779527559
          },
          {
            "number": 11,
            "time": 79.8600000000001,
            "value": 0.8661417322834646
          },
          {
            "number": 11,
            "time": 79.87000000000009,
            "value": 0.8582677165354331
          },
          {
            "number": 11,
            "time": 79.87500000000009,
            "value": 0.8503937007874016
          },
          {
            "number": 11,
            "time": 79.88500000000008,
            "value": 0.84251968503937
          },
          {
            "number": 11,
            "time": 79.89000000000007,
            "value": 0.8346456692913385
          },
          {
            "number": 11,
            "time": 79.90500000000006,
            "value": 0.8267716535433071
          },
          {
            "number": 11,
            "time": 79.95500000000004,
            "value": 0.8346456692913385
          },
          {
            "number": 11,
            "time": 79.96000000000004,
            "value": 0.84251968503937
          },
          {
            "number": 11,
            "time": 79.98000000000003,
            "value": 0.8582677165354331
          },
          {
            "number": 11,
            "time": 79.99500000000003,
            "value": 0.8740157480314961
          },
          {
            "number": 11,
            "time": 80.00500000000004,
            "value": 0.8818897637795275
          },
          {
            "number": 11,
            "time": 80.01000000000003,
            "value": 0.889763779527559
          },
          {
            "number": 11,
            "time": 80.02000000000004,
            "value": 0.8976377952755905
          },
          {
            "number": 11,
            "time": 80.02500000000003,
            "value": 0.9133858267716536
          },
          {
            "number": 11,
            "time": 80.04000000000003,
            "value": 0.9212598425196851
          },
          {
            "number": 11,
            "time": 80.04500000000003,
            "value": 0.9291338582677166
          },
          {
            "number": 11,
            "time": 80.05000000000003,
            "value": 0.9448818897637795
          },
          {
            "number": 11,
            "time": 80.06500000000003,
            "value": 0.952755905511811
          },
          {
            "number": 11,
            "time": 80.07000000000002,
            "value": 0.9606299212598425
          },
          {
            "number": 11,
            "time": 80.07500000000002,
            "value": 0.968503937007874
          },
          {
            "number": 11,
            "time": 80.08000000000001,
            "value": 0.9763779527559056
          },
          {
            "number": 11,
            "time": 80.08500000000001,
            "value": 0.984251968503937
          },
          {
            "number": 11,
            "time": 80.09500000000001,
            "value": 1
          },
          {
            "number": 11,
            "time": 80.105,
            "value": 0.984251968503937
          },
          {
            "number": 11,
            "time": 80.11,
            "value": 0.9763779527559056
          },
          {
            "number": 11,
            "time": 80.115,
            "value": 0.9606299212598425
          },
          {
            "number": 11,
            "time": 80.125,
            "value": 0.9448818897637795
          },
          {
            "number": 11,
            "time": 80.13,
            "value": 0.9291338582677166
          },
          {
            "number": 11,
            "time": 80.14,
            "value": 0.9212598425196851
          },
          {
            "number": 11,
            "time": 80.145,
            "value": 0.8976377952755905
          },
          {
            "number": 11,
            "time": 80.155,
            "value": 0.889763779527559
          },
          {
            "number": 11,
            "time": 80.165,
            "value": 0.8818897637795275
          },
          {
            "number": 11,
            "time": 80.17,
            "value": 0.8740157480314961
          },
          {
            "number": 11,
            "time": 80.175,
            "value": 0.8661417322834646
          },
          {
            "number": 11,
            "time": 80.195,
            "value": 0.8582677165354331
          },
          {
            "number": 11,
            "time": 80.205,
            "value": 0.8503937007874016
          },
          {
            "number": 11,
            "time": 80.22,
            "value": 0.84251968503937
          },
          {
            "number": 11,
            "time": 80.23,
            "value": 0.8346456692913385
          },
          {
            "number": 11,
            "time": 81.4649999999999,
            "value": 1
          },
          {
            "number": 11,
            "time": 81.47499999999991,
            "value": 0.9921259842519685
          },
          {
            "number": 11,
            "time": 81.48499999999991,
            "value": 1
          },
          {
            "number": 11,
            "time": 81.55499999999992,
            "value": 0.9921259842519685
          },
          {
            "number": 11,
            "time": 81.59499999999991,
            "value": 0.984251968503937
          },
          {
            "number": 11,
            "time": 81.62499999999991,
            "value": 0.9763779527559056
          },
          {
            "number": 11,
            "time": 81.6649999999999,
            "value": 0.968503937007874
          },
          {
            "number": 11,
            "time": 81.7349999999999,
            "value": 0.9606299212598425
          },
          {
            "number": 11,
            "time": 81.7949999999999,
            "value": 0.952755905511811
          },
          {
            "number": 11,
            "time": 81.8249999999999,
            "value": 0.937007874015748
          },
          {
            "number": 11,
            "time": 81.85999999999991,
            "value": 0.9291338582677166
          },
          {
            "number": 11,
            "time": 81.90499999999992,
            "value": 0.9212598425196851
          },
          {
            "number": 11,
            "time": 81.90999999999991,
            "value": 0.9133858267716536
          },
          {
            "number": 11,
            "time": 81.92499999999991,
            "value": 0.8976377952755905
          },
          {
            "number": 11,
            "time": 81.94499999999991,
            "value": 0.889763779527559
          },
          {
            "number": 11,
            "time": 81.9499999999999,
            "value": 0.8740157480314961
          },
          {
            "number": 11,
            "time": 81.9649999999999,
            "value": 0.8661417322834646
          },
          {
            "number": 11,
            "time": 81.9749999999999,
            "value": 0.8582677165354331
          },
          {
            "number": 11,
            "time": 81.97999999999989,
            "value": 0.8503937007874016
          },
          {
            "number": 11,
            "time": 81.98499999999989,
            "value": 0.84251968503937
          },
          {
            "number": 11,
            "time": 81.99499999999989,
            "value": 0.8346456692913385
          },
          {
            "number": 11,
            "time": 81.99999999999989,
            "value": 0.8110236220472441
          },
          {
            "number": 11,
            "time": 82.00499999999988,
            "value": 0.8031496062992126
          },
          {
            "number": 11,
            "time": 82.01499999999989,
            "value": 0.7874015748031497
          },
          {
            "number": 11,
            "time": 82.02499999999989,
            "value": 0.7795275590551181
          },
          {
            "number": 11,
            "time": 82.02999999999989,
            "value": 0.7716535433070866
          },
          {
            "number": 11,
            "time": 82.03999999999989,
            "value": 0.7559055118110236
          },
          {
            "number": 11,
            "time": 82.04499999999989,
            "value": 0.7401574803149606
          },
          {
            "number": 11,
            "time": 82.05999999999989,
            "value": 0.7244094488188977
          },
          {
            "number": 11,
            "time": 82.0699999999999,
            "value": 0.7086614173228346
          },
          {
            "number": 11,
            "time": 82.07499999999989,
            "value": 0.7007874015748031
          },
          {
            "number": 11,
            "time": 82.08999999999989,
            "value": 0.6850393700787402
          },
          {
            "number": 11,
            "time": 82.09499999999989,
            "value": 0.6771653543307087
          },
          {
            "number": 11,
            "time": 82.09999999999988,
            "value": 0.6692913385826772
          },
          {
            "number": 11,
            "time": 82.10499999999988,
            "value": 0.6535433070866141
          },
          {
            "number": 11,
            "time": 82.11999999999988,
            "value": 0.6377952755905512
          },
          {
            "number": 11,
            "time": 82.12499999999987,
            "value": 0.6220472440944882
          },
          {
            "number": 11,
            "time": 82.12999999999987,
            "value": 0.6062992125984252
          },
          {
            "number": 11,
            "time": 82.14499999999987,
            "value": 0.5590551181102362
          },
          {
            "number": 11,
            "time": 82.14999999999986,
            "value": 0.5118110236220472
          },
          {
            "number": 11,
            "time": 82.18499999999986,
            "value": 0.4645669291338583
          },
          {
            "number": 11,
            "time": 82.21999999999986,
            "value": 0.41732283464566927
          },
          {
            "number": 11,
            "time": 82.23499999999986,
            "value": 0.3700787401574803
          },
          {
            "number": 11,
            "time": 82.26999999999987,
            "value": 0.3228346456692913
          },
          {
            "number": 11,
            "time": 82.27499999999986,
            "value": 0.30708661417322836
          },
          {
            "number": 11,
            "time": 82.28499999999987,
            "value": 0.29133858267716534
          },
          {
            "number": 11,
            "time": 82.29499999999987,
            "value": 0.28346456692913385
          },
          {
            "number": 11,
            "time": 82.30499999999988,
            "value": 0.2677165354330709
          },
          {
            "number": 11,
            "time": 82.31499999999988,
            "value": 0.25196850393700787
          },
          {
            "number": 11,
            "time": 82.32499999999989,
            "value": 0.2047244094488189
          },
          {
            "number": 11,
            "time": 82.3349999999999,
            "value": 0.1889763779527559
          },
          {
            "number": 11,
            "time": 82.33999999999989,
            "value": 0.14173228346456693
          },
          {
            "number": 11,
            "time": 82.34499999999989,
            "value": 0.12598425196850394
          },
          {
            "number": 11,
            "time": 82.38499999999989,
            "value": 0.07874015748031496
          },
          {
            "number": 11,
            "time": 82.38999999999989,
            "value": 0.06299212598425197
          },
          {
            "number": 11,
            "time": 82.39499999999988,
            "value": 0.047244094488188976
          },
          {
            "number": 11,
            "time": 82.39999999999988,
            "value": 0.031496062992125984
          },
          {
            "number": 11,
            "time": 82.40499999999987,
            "value": 0.015748031496062992
          },
          {
            "number": 11,
            "time": 82.41499999999988,
            "value": 0
          },
          {
            "number": 11,
            "time": 82.49499999999988,
            "value": 1
          },
          {
            "number": 11,
            "time": 86.68999999999969,
            "value": 0.9921259842519685
          },
          {
            "number": 11,
            "time": 86.69999999999969,
            "value": 0.984251968503937
          },
          {
            "number": 11,
            "time": 86.70499999999969,
            "value": 0.9763779527559056
          },
          {
            "number": 11,
            "time": 86.7249999999997,
            "value": 0.968503937007874
          },
          {
            "number": 11,
            "time": 86.7349999999997,
            "value": 0.9606299212598425
          },
          {
            "number": 11,
            "time": 86.77499999999971,
            "value": 0.9133858267716536
          },
          {
            "number": 11,
            "time": 86.81999999999971,
            "value": 0.905511811023622
          },
          {
            "number": 11,
            "time": 86.8699999999997,
            "value": 0.889763779527559
          },
          {
            "number": 11,
            "time": 86.9049999999997,
            "value": 0.8740157480314961
          },
          {
            "number": 11,
            "time": 86.9549999999997,
            "value": 0.8582677165354331
          },
          {
            "number": 11,
            "time": 86.9899999999997,
            "value": 0.8503937007874016
          },
          {
            "number": 11,
            "time": 86.9999999999997,
            "value": 0.8346456692913385
          },
          {
            "number": 11,
            "time": 87.0349999999997,
            "value": 0.8188976377952756
          },
          {
            "number": 11,
            "time": 87.0749999999997,
            "value": 0.8110236220472441
          },
          {
            "number": 11,
            "time": 87.0799999999997,
            "value": 0.7952755905511811
          },
          {
            "number": 11,
            "time": 87.1149999999997,
            "value": 0.7874015748031497
          },
          {
            "number": 11,
            "time": 87.11999999999969,
            "value": 0.7795275590551181
          },
          {
            "number": 11,
            "time": 87.13499999999969,
            "value": 0.7637795275590551
          },
          {
            "number": 11,
            "time": 87.1449999999997,
            "value": 0.7559055118110236
          },
          {
            "number": 11,
            "time": 87.1549999999997,
            "value": 0.7401574803149606
          },
          {
            "number": 11,
            "time": 87.1699999999997,
            "value": 0.7244094488188977
          },
          {
            "number": 11,
            "time": 87.17999999999971,
            "value": 0.7165354330708661
          },
          {
            "number": 11,
            "time": 87.19499999999971,
            "value": 0.7007874015748031
          },
          {
            "number": 11,
            "time": 87.1999999999997,
            "value": 0.6929133858267716
          },
          {
            "number": 11,
            "time": 87.20999999999971,
            "value": 0.6771653543307087
          },
          {
            "number": 11,
            "time": 87.2149999999997,
            "value": 0.6614173228346457
          },
          {
            "number": 11,
            "time": 87.2299999999997,
            "value": 0.6535433070866141
          },
          {
            "number": 11,
            "time": 87.2349999999997,
            "value": 0.6377952755905512
          },
          {
            "number": 11,
            "time": 87.2399999999997,
            "value": 0.6299212598425197
          },
          {
            "number": 11,
            "time": 87.24499999999969,
            "value": 0.6220472440944882
          },
          {
            "number": 11,
            "time": 87.2549999999997,
            "value": 0.6062992125984252
          },
          {
            "number": 11,
            "time": 87.2649999999997,
            "value": 0.5984251968503937
          },
          {
            "number": 11,
            "time": 87.2699999999997,
            "value": 0.5826771653543307
          },
          {
            "number": 11,
            "time": 87.2849999999997,
            "value": 0.5669291338582677
          },
          {
            "number": 11,
            "time": 87.2899999999997,
            "value": 0.5196850393700787
          },
          {
            "number": 11,
            "time": 87.29499999999969,
            "value": 0.5118110236220472
          },
          {
            "number": 11,
            "time": 87.29999999999968,
            "value": 0.49606299212598426
          },
          {
            "number": 11,
            "time": 87.41999999999967,
            "value": 0.9921259842519685
          },
          {
            "number": 11,
            "time": 108.29999999999966,
            "value": 0.9921259842519685
          },
          {
            "number": 11,
            "time": 108.39999999999965,
            "value": 0.984251968503937
          },
          {
            "number": 11,
            "time": 108.42499999999966,
            "value": 0.9763779527559056
          },
          {
            "number": 11,
            "time": 108.42999999999965,
            "value": 0.968503937007874
          },
          {
            "number": 11,
            "time": 108.47999999999965,
            "value": 0.9606299212598425
          },
          {
            "number": 11,
            "time": 108.49499999999965,
            "value": 0.952755905511811
          },
          {
            "number": 11,
            "time": 108.51999999999965,
            "value": 0.937007874015748
          },
          {
            "number": 11,
            "time": 108.54499999999966,
            "value": 0.9291338582677166
          },
          {
            "number": 11,
            "time": 108.55499999999967,
            "value": 0.9212598425196851
          },
          {
            "number": 11,
            "time": 108.56999999999967,
            "value": 0.9133858267716536
          },
          {
            "number": 11,
            "time": 108.57999999999967,
            "value": 0.905511811023622
          },
          {
            "number": 11,
            "time": 108.58499999999967,
            "value": 0.8976377952755905
          },
          {
            "number": 11,
            "time": 108.60499999999966,
            "value": 0.889763779527559
          },
          {
            "number": 11,
            "time": 108.61499999999967,
            "value": 0.8818897637795275
          },
          {
            "number": 11,
            "time": 108.61999999999966,
            "value": 0.8740157480314961
          },
          {
            "number": 11,
            "time": 108.63499999999966,
            "value": 0.8661417322834646
          },
          {
            "number": 11,
            "time": 108.63999999999966,
            "value": 0.8582677165354331
          },
          {
            "number": 11,
            "time": 108.64999999999966,
            "value": 0.84251968503937
          },
          {
            "number": 11,
            "time": 108.66499999999967,
            "value": 0.8346456692913385
          },
          {
            "number": 11,
            "time": 108.67999999999967,
            "value": 0.8267716535433071
          },
          {
            "number": 11,
            "time": 108.68999999999967,
            "value": 0.8031496062992126
          },
          {
            "number": 11,
            "time": 108.70499999999967,
            "value": 0.7952755905511811
          },
          {
            "number": 11,
            "time": 108.70999999999967,
            "value": 0.7716535433070866
          },
          {
            "number": 11,
            "time": 108.71999999999967,
            "value": 0.7637795275590551
          },
          {
            "number": 11,
            "time": 108.72499999999967,
            "value": 0.7480314960629921
          },
          {
            "number": 11,
            "time": 108.72999999999966,
            "value": 0.7401574803149606
          },
          {
            "number": 11,
            "time": 108.73499999999966,
            "value": 0.7322834645669292
          },
          {
            "number": 11,
            "time": 108.73999999999965,
            "value": 0.7165354330708661
          },
          {
            "number": 11,
            "time": 108.74999999999966,
            "value": 0.7086614173228346
          },
          {
            "number": 11,
            "time": 108.75499999999965,
            "value": 0.6929133858267716
          },
          {
            "number": 11,
            "time": 108.75999999999965,
            "value": 0.6692913385826772
          },
          {
            "number": 11,
            "time": 108.76499999999965,
            "value": 0.6535433070866141
          },
          {
            "number": 11,
            "time": 108.76999999999964,
            "value": 0.6456692913385826
          },
          {
            "number": 11,
            "time": 108.77999999999965,
            "value": 0.6299212598425197
          },
          {
            "number": 11,
            "time": 108.78499999999964,
            "value": 0.6062992125984252
          },
          {
            "number": 11,
            "time": 108.78999999999964,
            "value": 0.5905511811023622
          },
          {
            "number": 11,
            "time": 108.79999999999964,
            "value": 0.5748031496062992
          },
          {
            "number": 11,
            "time": 108.80999999999965,
            "value": 0.5590551181102362
          },
          {
            "number": 11,
            "time": 108.81499999999964,
            "value": 0.5433070866141733
          },
          {
            "number": 11,
            "time": 108.82499999999965,
            "value": 0.5275590551181102
          },
          {
            "number": 11,
            "time": 108.82999999999964,
            "value": 0.49606299212598426
          },
          {
            "number": 11,
            "time": 108.89999999999964,
            "value": 1
          },
          {
            "number": 11,
            "time": 110.68999999999957,
            "value": 1
          },
          {
            "number": 11,
            "time": 110.70499999999957,
            "value": 0.9921259842519685
          },
          {
            "number": 11,
            "time": 110.74999999999957,
            "value": 0.984251968503937
          },
          {
            "number": 11,
            "time": 110.76499999999957,
            "value": 0.9763779527559056
          },
          {
            "number": 11,
            "time": 110.78999999999958,
            "value": 0.968503937007874
          },
          {
            "number": 11,
            "time": 110.79999999999959,
            "value": 0.9606299212598425
          },
          {
            "number": 11,
            "time": 110.79999999999959,
            "value": 0.952755905511811
          },
          {
            "number": 11,
            "time": 110.81499999999959,
            "value": 0.9448818897637795
          },
          {
            "number": 11,
            "time": 110.81999999999958,
            "value": 0.9212598425196851
          },
          {
            "number": 11,
            "time": 110.82999999999959,
            "value": 0.9133858267716536
          },
          {
            "number": 11,
            "time": 110.83999999999959,
            "value": 0.905511811023622
          },
          {
            "number": 11,
            "time": 110.84499999999959,
            "value": 0.8976377952755905
          },
          {
            "number": 11,
            "time": 110.84999999999958,
            "value": 0.889763779527559
          },
          {
            "number": 11,
            "time": 110.85999999999959,
            "value": 0.8582677165354331
          },
          {
            "number": 11,
            "time": 110.87499999999959,
            "value": 0.8110236220472441
          },
          {
            "number": 11,
            "time": 110.8849999999996,
            "value": 0.7952755905511811
          },
          {
            "number": 11,
            "time": 110.88999999999959,
            "value": 0.7480314960629921
          },
          {
            "number": 11,
            "time": 110.90499999999959,
            "value": 0.7007874015748031
          },
          {
            "number": 11,
            "time": 110.9149999999996,
            "value": 0.6850393700787402
          },
          {
            "number": 11,
            "time": 110.9299999999996,
            "value": 0.6377952755905512
          },
          {
            "number": 11,
            "time": 110.9399999999996,
            "value": 0.5905511811023622
          },
          {
            "number": 11,
            "time": 110.9499999999996,
            "value": 0.5748031496062992
          },
          {
            "number": 11,
            "time": 110.9649999999996,
            "value": 0.5590551181102362
          },
          {
            "number": 11,
            "time": 110.97499999999961,
            "value": 0.5433070866141733
          },
          {
            "number": 11,
            "time": 110.98999999999961,
            "value": 0.5275590551181102
          },
          {
            "number": 11,
            "time": 110.9949999999996,
            "value": 0.5118110236220472
          },
          {
            "number": 11,
            "time": 110.9999999999996,
            "value": 0.49606299212598426
          },
          {
            "number": 11,
            "time": 111.0049999999996,
            "value": 0.4881889763779528
          },
          {
            "number": 11,
            "time": 111.0099999999996,
            "value": 0.47244094488188976
          },
          {
            "number": 11,
            "time": 111.0199999999996,
            "value": 0.4645669291338583
          },
          {
            "number": 11,
            "time": 111.0249999999996,
            "value": 0.41732283464566927
          },
          {
            "number": 11,
            "time": 111.02999999999959,
            "value": 0.4015748031496063
          },
          {
            "number": 11,
            "time": 111.0399999999996,
            "value": 0.3858267716535433
          },
          {
            "number": 11,
            "time": 111.0549999999996,
            "value": 0.3700787401574803
          },
          {
            "number": 11,
            "time": 111.05999999999959,
            "value": 0.3228346456692913
          },
          {
            "number": 11,
            "time": 111.06499999999959,
            "value": 0.30708661417322836
          },
          {
            "number": 11,
            "time": 111.07999999999959,
            "value": 0.29133858267716534
          },
          {
            "number": 11,
            "time": 111.08499999999958,
            "value": 0.2755905511811024
          },
          {
            "number": 11,
            "time": 111.09499999999959,
            "value": 0.25984251968503935
          },
          {
            "number": 11,
            "time": 111.09999999999958,
            "value": 0.2440944881889764
          },
          {
            "number": 11,
            "time": 111.10999999999959,
            "value": 0.2283464566929134
          },
          {
            "number": 11,
            "time": 111.11499999999958,
            "value": 0.2125984251968504
          },
          {
            "number": 11,
            "time": 111.11999999999958,
            "value": 0.1968503937007874
          },
          {
            "number": 11,
            "time": 111.12499999999957,
            "value": 0.14960629921259844
          },
          {
            "number": 11,
            "time": 111.13999999999957,
            "value": 0.13385826771653545
          },
          {
            "number": 11,
            "time": 111.14499999999957,
            "value": 0.08661417322834646
          },
          {
            "number": 11,
            "time": 111.14999999999957,
            "value": 0.023622047244094488
          },
          {
            "number": 11,
            "time": 111.15499999999956,
            "value": 0.007874015748031496
          },
          {
            "number": 11,
            "time": 111.16999999999956,
            "value": 0
          },
          {
            "number": 11,
            "time": 111.42999999999955,
            "value": 1
          },
          {
            "number": 11,
            "time": 113.09999999999954,
            "value": 1
          },
          {
            "number": 11,
            "time": 113.24499999999954,
            "value": 0.9921259842519685
          },
          {
            "number": 11,
            "time": 113.29999999999954,
            "value": 0.984251968503937
          },
          {
            "number": 11,
            "time": 113.31999999999954,
            "value": 0.9763779527559056
          },
          {
            "number": 11,
            "time": 113.33499999999954,
            "value": 0.968503937007874
          },
          {
            "number": 11,
            "time": 113.34499999999954,
            "value": 0.9606299212598425
          },
          {
            "number": 11,
            "time": 113.36499999999954,
            "value": 0.952755905511811
          },
          {
            "number": 11,
            "time": 113.37999999999954,
            "value": 0.937007874015748
          },
          {
            "number": 11,
            "time": 113.39999999999954,
            "value": 0.9291338582677166
          },
          {
            "number": 11,
            "time": 113.40499999999953,
            "value": 0.9133858267716536
          },
          {
            "number": 11,
            "time": 113.40999999999953,
            "value": 0.905511811023622
          },
          {
            "number": 11,
            "time": 113.42499999999953,
            "value": 0.8976377952755905
          },
          {
            "number": 11,
            "time": 113.42999999999952,
            "value": 0.889763779527559
          },
          {
            "number": 11,
            "time": 113.43499999999952,
            "value": 0.8740157480314961
          },
          {
            "number": 11,
            "time": 113.44999999999952,
            "value": 0.8582677165354331
          },
          {
            "number": 11,
            "time": 113.45499999999952,
            "value": 0.8346456692913385
          },
          {
            "number": 11,
            "time": 113.45999999999951,
            "value": 0.8267716535433071
          },
          {
            "number": 11,
            "time": 113.4649999999995,
            "value": 0.8188976377952756
          },
          {
            "number": 11,
            "time": 113.4699999999995,
            "value": 0.8031496062992126
          },
          {
            "number": 11,
            "time": 113.4799999999995,
            "value": 0.7795275590551181
          },
          {
            "number": 11,
            "time": 113.4849999999995,
            "value": 0.7716535433070866
          },
          {
            "number": 11,
            "time": 113.4899999999995,
            "value": 0.7559055118110236
          },
          {
            "number": 11,
            "time": 113.4949999999995,
            "value": 0.7480314960629921
          },
          {
            "number": 11,
            "time": 113.49999999999949,
            "value": 0.7244094488188977
          },
          {
            "number": 11,
            "time": 113.5099999999995,
            "value": 0.7086614173228346
          },
          {
            "number": 11,
            "time": 113.51499999999949,
            "value": 0.7007874015748031
          },
          {
            "number": 11,
            "time": 113.51999999999948,
            "value": 0.6850393700787402
          },
          {
            "number": 11,
            "time": 113.52499999999948,
            "value": 0.6692913385826772
          },
          {
            "number": 11,
            "time": 113.52999999999948,
            "value": 0.6535433070866141
          },
          {
            "number": 11,
            "time": 113.54499999999948,
            "value": 0.6456692913385826
          },
          {
            "number": 11,
            "time": 113.54999999999947,
            "value": 0.6299212598425197
          },
          {
            "number": 11,
            "time": 113.55499999999947,
            "value": 0.6220472440944882
          },
          {
            "number": 11,
            "time": 113.56999999999947,
            "value": 0.6141732283464567
          },
          {
            "number": 11,
            "time": 113.64499999999947,
            "value": 0.6299212598425197
          },
          {
            "number": 11,
            "time": 113.64999999999947,
            "value": 0.6377952755905512
          },
          {
            "number": 11,
            "time": 113.65999999999947,
            "value": 0.6456692913385826
          },
          {
            "number": 11,
            "time": 113.66499999999947,
            "value": 0.6535433070866141
          },
          {
            "number": 11,
            "time": 113.66999999999946,
            "value": 0.6771653543307087
          },
          {
            "number": 11,
            "time": 113.67499999999946,
            "value": 0.6929133858267716
          },
          {
            "number": 11,
            "time": 113.67999999999945,
            "value": 0.7086614173228346
          },
          {
            "number": 11,
            "time": 113.68999999999946,
            "value": 0.7322834645669292
          },
          {
            "number": 11,
            "time": 113.69499999999945,
            "value": 0.7716535433070866
          },
          {
            "number": 11,
            "time": 113.69999999999945,
            "value": 0.8031496062992126
          },
          {
            "number": 11,
            "time": 113.70499999999944,
            "value": 0.8188976377952756
          },
          {
            "number": 11,
            "time": 113.70999999999944,
            "value": 0.8267716535433071
          },
          {
            "number": 11,
            "time": 113.71999999999944,
            "value": 0.8582677165354331
          },
          {
            "number": 11,
            "time": 113.72499999999944,
            "value": 0.8740157480314961
          },
          {
            "number": 11,
            "time": 113.72999999999944,
            "value": 0.889763779527559
          },
          {
            "number": 11,
            "time": 113.73499999999943,
            "value": 0.905511811023622
          },
          {
            "number": 11,
            "time": 113.73999999999943,
            "value": 0.9291338582677166
          },
          {
            "number": 11,
            "time": 113.74999999999943,
            "value": 0.937007874015748
          },
          {
            "number": 11,
            "time": 113.75499999999943,
            "value": 0.952755905511811
          },
          {
            "number": 11,
            "time": 113.75999999999942,
            "value": 0.9606299212598425
          },
          {
            "number": 11,
            "time": 113.76999999999943,
            "value": 0.968503937007874
          },
          {
            "number": 11,
            "time": 113.77999999999943,
            "value": 0.9763779527559056
          },
          {
            "number": 11,
            "time": 113.78999999999944,
            "value": 0.984251968503937
          },
          {
            "number": 11,
            "time": 113.79999999999944,
            "value": 0.9921259842519685
          },
          {
            "number": 11,
            "time": 113.81499999999944,
            "value": 1
          },
          {
            "number": 11,
            "time": 114.8199999999994,
            "value": 0.9921259842519685
          },
          {
            "number": 11,
            "time": 114.82499999999939,
            "value": 0.984251968503937
          },
          {
            "number": 11,
            "time": 114.83499999999938,
            "value": 0.9763779527559056
          },
          {
            "number": 11,
            "time": 114.84499999999937,
            "value": 0.968503937007874
          },
          {
            "number": 11,
            "time": 114.84999999999937,
            "value": 0.9606299212598425
          },
          {
            "number": 11,
            "time": 114.85499999999936,
            "value": 0.952755905511811
          },
          {
            "number": 11,
            "time": 114.86499999999936,
            "value": 0.9448818897637795
          },
          {
            "number": 11,
            "time": 114.90499999999933,
            "value": 0.937007874015748
          },
          {
            "number": 11,
            "time": 114.93999999999932,
            "value": 0.9291338582677166
          },
          {
            "number": 11,
            "time": 114.97499999999928,
            "value": 0.9212598425196851
          },
          {
            "number": 11,
            "time": 115.00999999999928,
            "value": 0.9133858267716536
          },
          {
            "number": 11,
            "time": 115.05999999999929,
            "value": 0.905511811023622
          },
          {
            "number": 11,
            "time": 115.0699999999993,
            "value": 0.8976377952755905
          },
          {
            "number": 11,
            "time": 115.08999999999929,
            "value": 0.889763779527559
          },
          {
            "number": 11,
            "time": 115.1149999999993,
            "value": 0.8818897637795275
          },
          {
            "number": 11,
            "time": 115.12499999999929,
            "value": 0.8740157480314961
          },
          {
            "number": 11,
            "time": 115.1349999999993,
            "value": 0.8661417322834646
          },
          {
            "number": 11,
            "time": 115.1499999999993,
            "value": 0.8582677165354331
          },
          {
            "number": 11,
            "time": 115.15999999999929,
            "value": 0.8503937007874016
          },
          {
            "number": 11,
            "time": 115.20999999999928,
            "value": 0.8346456692913385
          },
          {
            "number": 11,
            "time": 115.25499999999928,
            "value": 0.8267716535433071
          },
          {
            "number": 11,
            "time": 115.26999999999929,
            "value": 0.8188976377952756
          },
          {
            "number": 11,
            "time": 115.27999999999929,
            "value": 0.8110236220472441
          },
          {
            "number": 11,
            "time": 115.29499999999929,
            "value": 0.8031496062992126
          },
          {
            "number": 11,
            "time": 115.32999999999929,
            "value": 0.7952755905511811
          },
          {
            "number": 11,
            "time": 115.33499999999928,
            "value": 0.7874015748031497
          },
          {
            "number": 11,
            "time": 115.34499999999927,
            "value": 0.7795275590551181
          },
          {
            "number": 11,
            "time": 115.35999999999927,
            "value": 0.7716535433070866
          },
          {
            "number": 11,
            "time": 115.36999999999928,
            "value": 0.7637795275590551
          },
          {
            "number": 11,
            "time": 115.38499999999928,
            "value": 0.7559055118110236
          },
          {
            "number": 11,
            "time": 115.41999999999928,
            "value": 0.7401574803149606
          },
          {
            "number": 11,
            "time": 115.45999999999927,
            "value": 0.7322834645669292
          },
          {
            "number": 11,
            "time": 115.47499999999927,
            "value": 0.7165354330708661
          },
          {
            "number": 11,
            "time": 115.48499999999927,
            "value": 0.7086614173228346
          },
          {
            "number": 11,
            "time": 115.51999999999927,
            "value": 0.7007874015748031
          },
          {
            "number": 11,
            "time": 115.55499999999928,
            "value": 0.6850393700787402
          },
          {
            "number": 11,
            "time": 115.56999999999928,
            "value": 0.6771653543307087
          },
          {
            "number": 11,
            "time": 115.60499999999928,
            "value": 0.6692913385826772
          },
          {
            "number": 11,
            "time": 115.61499999999927,
            "value": 0.6535433070866141
          },
          {
            "number": 11,
            "time": 115.62999999999927,
            "value": 0.6456692913385826
          },
          {
            "number": 11,
            "time": 115.63499999999927,
            "value": 0.6377952755905512
          },
          {
            "number": 11,
            "time": 115.65499999999926,
            "value": 0.6299212598425197
          },
          {
            "number": 11,
            "time": 115.65999999999926,
            "value": 0.6220472440944882
          },
          {
            "number": 11,
            "time": 115.66499999999925,
            "value": 0.6141732283464567
          },
          {
            "number": 11,
            "time": 115.66999999999925,
            "value": 0.6062992125984252
          },
          {
            "number": 11,
            "time": 115.68499999999925,
            "value": 0.5984251968503937
          },
          {
            "number": 11,
            "time": 115.68999999999924,
            "value": 0.5905511811023622
          },
          {
            "number": 11,
            "time": 115.69999999999925,
            "value": 0.5826771653543307
          },
          {
            "number": 11,
            "time": 115.70499999999925,
            "value": 0.5748031496062992
          },
          {
            "number": 11,
            "time": 115.71999999999925,
            "value": 0.5669291338582677
          },
          {
            "number": 11,
            "time": 115.72499999999924,
            "value": 0.5590551181102362
          },
          {
            "number": 11,
            "time": 115.72999999999924,
            "value": 0.5511811023622047
          },
          {
            "number": 11,
            "time": 115.73499999999923,
            "value": 0.5433070866141733
          },
          {
            "number": 11,
            "time": 115.74999999999923,
            "value": 0.5354330708661418
          },
          {
            "number": 11,
            "time": 115.75999999999924,
            "value": 0.5196850393700787
          },
          {
            "number": 11,
            "time": 115.77499999999924,
            "value": 0.5118110236220472
          },
          {
            "number": 11,
            "time": 115.78499999999924,
            "value": 0.5039370078740157
          },
          {
            "number": 11,
            "time": 115.79499999999923,
            "value": 0.49606299212598426
          },
          {
            "number": 11,
            "time": 115.80999999999923,
            "value": 0.4881889763779528
          },
          {
            "number": 11,
            "time": 115.81999999999923,
            "value": 0.48031496062992124
          },
          {
            "number": 11,
            "time": 115.82499999999922,
            "value": 0.47244094488188976
          },
          {
            "number": 11,
            "time": 115.83499999999923,
            "value": 0.4645669291338583
          },
          {
            "number": 11,
            "time": 115.84499999999922,
            "value": 0.4566929133858268
          },
          {
            "number": 11,
            "time": 115.84999999999921,
            "value": 0.44881889763779526
          },
          {
            "number": 11,
            "time": 115.86999999999921,
            "value": 0.4409448818897638
          },
          {
            "number": 11,
            "time": 115.8749999999992,
            "value": 0.4330708661417323
          },
          {
            "number": 11,
            "time": 115.8799999999992,
            "value": 0.4251968503937008
          },
          {
            "number": 11,
            "time": 115.8849999999992,
            "value": 0.41732283464566927
          },
          {
            "number": 11,
            "time": 115.8999999999992,
            "value": 0.4015748031496063
          },
          {
            "number": 11,
            "time": 115.9099999999992,
            "value": 0.3937007874015748
          },
          {
            "number": 11,
            "time": 115.9149999999992,
            "value": 0.3858267716535433
          },
          {
            "number": 11,
            "time": 115.9249999999992,
            "value": 0.3779527559055118
          },
          {
            "number": 11,
            "time": 115.9299999999992,
            "value": 0.36220472440944884
          },
          {
            "number": 11,
            "time": 115.9449999999992,
            "value": 0.3464566929133858
          },
          {
            "number": 11,
            "time": 115.9549999999992,
            "value": 0.33858267716535434
          },
          {
            "number": 11,
            "time": 116.14499999999921,
            "value": 1
          },
          {
            "number": 11,
            "time": 117.89999999999917,
            "value": 0.9921259842519685
          },
          {
            "number": 11,
            "time": 117.99999999999915,
            "value": 0.984251968503937
          },
          {
            "number": 11,
            "time": 118.02499999999915,
            "value": 0.9763779527559056
          },
          {
            "number": 11,
            "time": 118.02999999999915,
            "value": 0.968503937007874
          },
          {
            "number": 11,
            "time": 118.07999999999915,
            "value": 0.9606299212598425
          },
          {
            "number": 11,
            "time": 118.09499999999915,
            "value": 0.952755905511811
          },
          {
            "number": 11,
            "time": 118.11999999999915,
            "value": 0.937007874015748
          },
          {
            "number": 11,
            "time": 118.14499999999916,
            "value": 0.9291338582677166
          },
          {
            "number": 11,
            "time": 118.15499999999916,
            "value": 0.9212598425196851
          },
          {
            "number": 11,
            "time": 118.16999999999916,
            "value": 0.9133858267716536
          },
          {
            "number": 11,
            "time": 118.17999999999917,
            "value": 0.905511811023622
          },
          {
            "number": 11,
            "time": 118.18499999999916,
            "value": 0.8976377952755905
          },
          {
            "number": 11,
            "time": 118.20499999999916,
            "value": 0.889763779527559
          },
          {
            "number": 11,
            "time": 118.21499999999916,
            "value": 0.8818897637795275
          },
          {
            "number": 11,
            "time": 118.21999999999916,
            "value": 0.8740157480314961
          },
          {
            "number": 11,
            "time": 118.23499999999916,
            "value": 0.8661417322834646
          },
          {
            "number": 11,
            "time": 118.23999999999916,
            "value": 0.8582677165354331
          },
          {
            "number": 11,
            "time": 118.24999999999916,
            "value": 0.84251968503937
          },
          {
            "number": 11,
            "time": 118.26499999999916,
            "value": 0.8346456692913385
          },
          {
            "number": 11,
            "time": 118.27999999999916,
            "value": 0.8267716535433071
          },
          {
            "number": 11,
            "time": 118.28999999999917,
            "value": 0.8031496062992126
          },
          {
            "number": 11,
            "time": 118.30499999999917,
            "value": 0.7952755905511811
          },
          {
            "number": 11,
            "time": 118.30999999999916,
            "value": 0.7716535433070866
          },
          {
            "number": 11,
            "time": 118.31999999999917,
            "value": 0.7637795275590551
          },
          {
            "number": 11,
            "time": 118.32499999999916,
            "value": 0.7480314960629921
          },
          {
            "number": 11,
            "time": 118.32999999999916,
            "value": 0.7401574803149606
          },
          {
            "number": 11,
            "time": 118.33499999999916,
            "value": 0.7322834645669292
          },
          {
            "number": 11,
            "time": 118.33999999999915,
            "value": 0.7165354330708661
          },
          {
            "number": 11,
            "time": 118.34999999999916,
            "value": 0.7086614173228346
          },
          {
            "number": 11,
            "time": 118.35499999999915,
            "value": 0.6929133858267716
          },
          {
            "number": 11,
            "time": 118.35999999999915,
            "value": 0.6692913385826772
          },
          {
            "number": 11,
            "time": 118.36499999999914,
            "value": 0.6535433070866141
          },
          {
            "number": 11,
            "time": 118.36999999999914,
            "value": 0.6456692913385826
          },
          {
            "number": 11,
            "time": 118.37999999999914,
            "value": 0.6299212598425197
          },
          {
            "number": 11,
            "time": 118.38499999999914,
            "value": 0.6062992125984252
          },
          {
            "number": 11,
            "time": 118.38999999999913,
            "value": 0.5905511811023622
          },
          {
            "number": 11,
            "time": 118.39999999999914,
            "value": 0.5748031496062992
          },
          {
            "number": 11,
            "time": 118.40999999999914,
            "value": 0.5590551181102362
          },
          {
            "number": 11,
            "time": 118.41499999999914,
            "value": 0.5433070866141733
          },
          {
            "number": 11,
            "time": 118.42499999999914,
            "value": 0.5275590551181102
          },
          {
            "number": 11,
            "time": 118.42999999999914,
            "value": 0.49606299212598426
          },
          {
            "number": 11,
            "time": 118.49999999999913,
            "value": 1
          },
          {
            "number": 11,
            "time": 120.28999999999905,
            "value": 1
          },
          {
            "number": 11,
            "time": 120.30499999999905,
            "value": 0.9921259842519685
          },
          {
            "number": 11,
            "time": 120.34999999999906,
            "value": 0.984251968503937
          },
          {
            "number": 11,
            "time": 120.36499999999906,
            "value": 0.9763779527559056
          },
          {
            "number": 11,
            "time": 120.38999999999906,
            "value": 0.968503937007874
          },
          {
            "number": 11,
            "time": 120.39999999999907,
            "value": 0.9606299212598425
          },
          {
            "number": 11,
            "time": 120.39999999999907,
            "value": 0.952755905511811
          },
          {
            "number": 11,
            "time": 120.41499999999907,
            "value": 0.9448818897637795
          },
          {
            "number": 11,
            "time": 120.41999999999906,
            "value": 0.9212598425196851
          },
          {
            "number": 11,
            "time": 120.42999999999907,
            "value": 0.9133858267716536
          },
          {
            "number": 11,
            "time": 120.43999999999907,
            "value": 0.905511811023622
          },
          {
            "number": 11,
            "time": 120.44499999999907,
            "value": 0.8976377952755905
          },
          {
            "number": 11,
            "time": 120.44999999999906,
            "value": 0.889763779527559
          },
          {
            "number": 11,
            "time": 120.45999999999907,
            "value": 0.8582677165354331
          },
          {
            "number": 11,
            "time": 120.47499999999907,
            "value": 0.8110236220472441
          },
          {
            "number": 11,
            "time": 120.48499999999908,
            "value": 0.7952755905511811
          },
          {
            "number": 11,
            "time": 120.48999999999907,
            "value": 0.7480314960629921
          },
          {
            "number": 11,
            "time": 120.50499999999907,
            "value": 0.7007874015748031
          },
          {
            "number": 11,
            "time": 120.51499999999908,
            "value": 0.6850393700787402
          },
          {
            "number": 11,
            "time": 120.52999999999908,
            "value": 0.6377952755905512
          },
          {
            "number": 11,
            "time": 120.53999999999908,
            "value": 0.5905511811023622
          },
          {
            "number": 11,
            "time": 120.54999999999909,
            "value": 0.5748031496062992
          },
          {
            "number": 11,
            "time": 120.56499999999909,
            "value": 0.5590551181102362
          },
          {
            "number": 11,
            "time": 120.5749999999991,
            "value": 0.5433070866141733
          },
          {
            "number": 11,
            "time": 120.5899999999991,
            "value": 0.5275590551181102
          },
          {
            "number": 11,
            "time": 120.59499999999909,
            "value": 0.5118110236220472
          },
          {
            "number": 11,
            "time": 120.59999999999908,
            "value": 0.49606299212598426
          },
          {
            "number": 11,
            "time": 120.60499999999908,
            "value": 0.4881889763779528
          },
          {
            "number": 11,
            "time": 120.60999999999908,
            "value": 0.47244094488188976
          },
          {
            "number": 11,
            "time": 120.61999999999908,
            "value": 0.4645669291338583
          },
          {
            "number": 11,
            "time": 120.62499999999908,
            "value": 0.41732283464566927
          },
          {
            "number": 11,
            "time": 120.62999999999907,
            "value": 0.4015748031496063
          },
          {
            "number": 11,
            "time": 120.63999999999908,
            "value": 0.3858267716535433
          },
          {
            "number": 11,
            "time": 120.65499999999908,
            "value": 0.3700787401574803
          },
          {
            "number": 11,
            "time": 120.65999999999907,
            "value": 0.3228346456692913
          },
          {
            "number": 11,
            "time": 120.66499999999907,
            "value": 0.30708661417322836
          },
          {
            "number": 11,
            "time": 120.67999999999907,
            "value": 0.29133858267716534
          },
          {
            "number": 11,
            "time": 120.68499999999906,
            "value": 0.2755905511811024
          },
          {
            "number": 11,
            "time": 120.69499999999907,
            "value": 0.25984251968503935
          },
          {
            "number": 11,
            "time": 120.69999999999906,
            "value": 0.2440944881889764
          },
          {
            "number": 11,
            "time": 120.70999999999907,
            "value": 0.2283464566929134
          },
          {
            "number": 11,
            "time": 120.71499999999907,
            "value": 0.2125984251968504
          },
          {
            "number": 11,
            "time": 120.71999999999906,
            "value": 0.1968503937007874
          },
          {
            "number": 11,
            "time": 120.72499999999906,
            "value": 0.14960629921259844
          },
          {
            "number": 11,
            "time": 120.73999999999906,
            "value": 0.13385826771653545
          },
          {
            "number": 11,
            "time": 120.74499999999905,
            "value": 0.08661417322834646
          },
          {
            "number": 11,
            "time": 120.74999999999905,
            "value": 0.023622047244094488
          },
          {
            "number": 11,
            "time": 120.75499999999904,
            "value": 0.007874015748031496
          },
          {
            "number": 11,
            "time": 120.76999999999904,
            "value": 0
          },
          {
            "number": 11,
            "time": 121.02999999999903,
            "value": 1
          },
          {
            "number": 11,
            "time": 122.69999999999901,
            "value": 1
          },
          {
            "number": 11,
            "time": 122.844999999999,
            "value": 0.9921259842519685
          },
          {
            "number": 11,
            "time": 122.89999999999901,
            "value": 0.984251968503937
          },
          {
            "number": 11,
            "time": 122.919999999999,
            "value": 0.9763779527559056
          },
          {
            "number": 11,
            "time": 122.93499999999901,
            "value": 0.968503937007874
          },
          {
            "number": 11,
            "time": 122.94499999999901,
            "value": 0.9606299212598425
          },
          {
            "number": 11,
            "time": 122.96499999999901,
            "value": 0.952755905511811
          },
          {
            "number": 11,
            "time": 122.97999999999901,
            "value": 0.937007874015748
          },
          {
            "number": 11,
            "time": 122.999999999999,
            "value": 0.9291338582677166
          },
          {
            "number": 11,
            "time": 123.004999999999,
            "value": 0.9133858267716536
          },
          {
            "number": 11,
            "time": 123.009999999999,
            "value": 0.905511811023622
          },
          {
            "number": 11,
            "time": 123.024999999999,
            "value": 0.8976377952755905
          },
          {
            "number": 11,
            "time": 123.02999999999899,
            "value": 0.889763779527559
          },
          {
            "number": 11,
            "time": 123.03499999999899,
            "value": 0.8740157480314961
          },
          {
            "number": 11,
            "time": 123.04999999999899,
            "value": 0.8582677165354331
          },
          {
            "number": 11,
            "time": 123.05499999999898,
            "value": 0.8346456692913385
          },
          {
            "number": 11,
            "time": 123.05999999999898,
            "value": 0.8267716535433071
          },
          {
            "number": 11,
            "time": 123.06499999999897,
            "value": 0.8188976377952756
          },
          {
            "number": 11,
            "time": 123.06999999999897,
            "value": 0.8031496062992126
          },
          {
            "number": 11,
            "time": 123.07999999999898,
            "value": 0.7795275590551181
          },
          {
            "number": 11,
            "time": 123.08499999999897,
            "value": 0.7716535433070866
          },
          {
            "number": 11,
            "time": 123.08999999999897,
            "value": 0.7559055118110236
          },
          {
            "number": 11,
            "time": 123.09499999999896,
            "value": 0.7480314960629921
          },
          {
            "number": 11,
            "time": 123.09999999999896,
            "value": 0.7244094488188977
          },
          {
            "number": 11,
            "time": 123.10999999999896,
            "value": 0.7086614173228346
          },
          {
            "number": 11,
            "time": 123.11499999999896,
            "value": 0.7007874015748031
          },
          {
            "number": 11,
            "time": 123.11999999999895,
            "value": 0.6850393700787402
          },
          {
            "number": 11,
            "time": 123.12499999999895,
            "value": 0.6692913385826772
          },
          {
            "number": 11,
            "time": 123.12999999999894,
            "value": 0.6535433070866141
          },
          {
            "number": 11,
            "time": 123.14499999999894,
            "value": 0.6456692913385826
          },
          {
            "number": 11,
            "time": 123.14999999999894,
            "value": 0.6299212598425197
          },
          {
            "number": 11,
            "time": 123.15499999999894,
            "value": 0.6220472440944882
          },
          {
            "number": 11,
            "time": 123.16999999999894,
            "value": 0.6141732283464567
          },
          {
            "number": 11,
            "time": 123.24499999999894,
            "value": 0.6299212598425197
          },
          {
            "number": 11,
            "time": 123.24999999999893,
            "value": 0.6377952755905512
          },
          {
            "number": 11,
            "time": 123.25999999999894,
            "value": 0.6456692913385826
          },
          {
            "number": 11,
            "time": 123.26499999999893,
            "value": 0.6535433070866141
          },
          {
            "number": 11,
            "time": 123.26999999999893,
            "value": 0.6771653543307087
          },
          {
            "number": 11,
            "time": 123.27499999999893,
            "value": 0.6929133858267716
          },
          {
            "number": 11,
            "time": 123.27999999999892,
            "value": 0.7086614173228346
          },
          {
            "number": 11,
            "time": 123.28999999999893,
            "value": 0.7322834645669292
          },
          {
            "number": 11,
            "time": 123.29499999999892,
            "value": 0.7716535433070866
          },
          {
            "number": 11,
            "time": 123.29999999999892,
            "value": 0.8031496062992126
          },
          {
            "number": 11,
            "time": 123.30499999999891,
            "value": 0.8188976377952756
          },
          {
            "number": 11,
            "time": 123.30999999999891,
            "value": 0.8267716535433071
          },
          {
            "number": 11,
            "time": 123.31999999999891,
            "value": 0.8582677165354331
          },
          {
            "number": 11,
            "time": 123.32499999999891,
            "value": 0.8740157480314961
          },
          {
            "number": 11,
            "time": 123.3299999999989,
            "value": 0.889763779527559
          },
          {
            "number": 11,
            "time": 123.3349999999989,
            "value": 0.905511811023622
          },
          {
            "number": 11,
            "time": 123.3399999999989,
            "value": 0.9291338582677166
          },
          {
            "number": 11,
            "time": 123.3499999999989,
            "value": 0.937007874015748
          },
          {
            "number": 11,
            "time": 123.3549999999989,
            "value": 0.952755905511811
          },
          {
            "number": 11,
            "time": 123.35999999999889,
            "value": 0.9606299212598425
          },
          {
            "number": 11,
            "time": 123.3699999999989,
            "value": 0.968503937007874
          },
          {
            "number": 11,
            "time": 123.3799999999989,
            "value": 0.9763779527559056
          },
          {
            "number": 11,
            "time": 123.38999999999889,
            "value": 0.984251968503937
          },
          {
            "number": 11,
            "time": 123.39999999999888,
            "value": 0.9921259842519685
          },
          {
            "number": 11,
            "time": 123.41499999999888,
            "value": 1
          },
          {
            "number": 11,
            "time": 124.73999999999879,
            "value": 1
          },
          {
            "number": 11,
            "time": 124.74499999999878,
            "value": 0.9921259842519685
          },
          {
            "number": 11,
            "time": 124.74999999999878,
            "value": 0.984251968503937
          },
          {
            "number": 11,
            "time": 124.75999999999878,
            "value": 0.9763779527559056
          },
          {
            "number": 11,
            "time": 124.76499999999878,
            "value": 0.968503937007874
          },
          {
            "number": 11,
            "time": 124.76999999999877,
            "value": 0.9606299212598425
          },
          {
            "number": 11,
            "time": 124.77499999999877,
            "value": 0.9448818897637795
          },
          {
            "number": 11,
            "time": 124.78999999999877,
            "value": 0.937007874015748
          },
          {
            "number": 11,
            "time": 124.79499999999877,
            "value": 0.9291338582677166
          },
          {
            "number": 11,
            "time": 124.79999999999876,
            "value": 0.9212598425196851
          },
          {
            "number": 11,
            "time": 124.80999999999877,
            "value": 0.9133858267716536
          },
          {
            "number": 11,
            "time": 124.81999999999877,
            "value": 0.905511811023622
          },
          {
            "number": 11,
            "time": 124.83499999999877,
            "value": 0.889763779527559
          },
          {
            "number": 11,
            "time": 124.83999999999877,
            "value": 0.8818897637795275
          },
          {
            "number": 11,
            "time": 124.85499999999877,
            "value": 0.8740157480314961
          },
          {
            "number": 11,
            "time": 124.85999999999876,
            "value": 0.8661417322834646
          },
          {
            "number": 11,
            "time": 124.89499999999876,
            "value": 0.8582677165354331
          },
          {
            "number": 11,
            "time": 124.89999999999876,
            "value": 0.8503937007874016
          },
          {
            "number": 11,
            "time": 124.91999999999875,
            "value": 0.84251968503937
          },
          {
            "number": 11,
            "time": 124.92499999999875,
            "value": 0.8346456692913385
          },
          {
            "number": 11,
            "time": 124.93999999999875,
            "value": 0.8188976377952756
          },
          {
            "number": 11,
            "time": 124.94999999999875,
            "value": 0.8110236220472441
          },
          {
            "number": 11,
            "time": 124.95499999999875,
            "value": 0.8031496062992126
          },
          {
            "number": 11,
            "time": 124.98999999999874,
            "value": 0.7952755905511811
          },
          {
            "number": 11,
            "time": 124.99999999999875,
            "value": 0.7874015748031497
          },
          {
            "number": 11,
            "time": 125.03499999999875,
            "value": 0.7795275590551181
          },
          {
            "number": 11,
            "time": 125.03999999999874,
            "value": 0.7716535433070866
          },
          {
            "number": 11,
            "time": 125.04999999999875,
            "value": 0.7637795275590551
          },
          {
            "number": 11,
            "time": 125.05999999999875,
            "value": 0.7559055118110236
          },
          {
            "number": 11,
            "time": 125.06499999999875,
            "value": 0.7480314960629921
          },
          {
            "number": 11,
            "time": 125.09999999999874,
            "value": 0.7322834645669292
          },
          {
            "number": 11,
            "time": 125.10999999999875,
            "value": 0.7165354330708661
          },
          {
            "number": 11,
            "time": 125.12499999999875,
            "value": 0.7086614173228346
          },
          {
            "number": 11,
            "time": 125.15999999999875,
            "value": 0.6929133858267716
          },
          {
            "number": 11,
            "time": 125.16999999999875,
            "value": 0.6771653543307087
          },
          {
            "number": 11,
            "time": 125.18499999999875,
            "value": 0.6692913385826772
          },
          {
            "number": 11,
            "time": 125.19499999999876,
            "value": 0.6535433070866141
          },
          {
            "number": 11,
            "time": 125.20999999999876,
            "value": 0.6456692913385826
          },
          {
            "number": 11,
            "time": 125.21499999999875,
            "value": 0.6299212598425197
          },
          {
            "number": 11,
            "time": 125.22499999999876,
            "value": 0.6220472440944882
          },
          {
            "number": 11,
            "time": 125.23999999999876,
            "value": 0.6141732283464567
          },
          {
            "number": 11,
            "time": 125.24999999999876,
            "value": 0.5984251968503937
          },
          {
            "number": 11,
            "time": 125.25999999999877,
            "value": 0.5826771653543307
          },
          {
            "number": 11,
            "time": 125.30999999999877,
            "value": 0.5669291338582677
          },
          {
            "number": 11,
            "time": 125.34499999999876,
            "value": 0.5511811023622047
          },
          {
            "number": 11,
            "time": 125.37499999999876,
            "value": 0.5118110236220472
          },
          {
            "number": 11,
            "time": 125.37999999999876,
            "value": 0.5039370078740157
          },
          {
            "number": 11,
            "time": 125.38499999999875,
            "value": 0.49606299212598426
          },
          {
            "number": 11,
            "time": 125.38999999999875,
            "value": 0.48031496062992124
          },
          {
            "number": 11,
            "time": 125.39999999999876,
            "value": 0.47244094488188976
          },
          {
            "number": 11,
            "time": 125.40999999999876,
            "value": 0.4645669291338583
          },
          {
            "number": 11,
            "time": 125.41499999999876,
            "value": 0.4409448818897638
          },
          {
            "number": 11,
            "time": 125.41999999999875,
            "value": 0.4330708661417323
          },
          {
            "number": 11,
            "time": 125.42999999999876,
            "value": 0.41732283464566927
          },
          {
            "number": 11,
            "time": 125.43999999999876,
            "value": 0.4015748031496063
          },
          {
            "number": 11,
            "time": 125.44999999999877,
            "value": 0.3543307086614173
          },
          {
            "number": 11,
            "time": 125.46499999999877,
            "value": 0.33858267716535434
          },
          {
            "number": 11,
            "time": 125.46999999999876,
            "value": 0.3228346456692913
          },
          {
            "number": 11,
            "time": 125.47999999999877,
            "value": 0.31496062992125984
          },
          {
            "number": 11,
            "time": 125.48999999999877,
            "value": 0.2992125984251969
          },
          {
            "number": 11,
            "time": 125.49499999999877,
            "value": 0.29133858267716534
          },
          {
            "number": 11,
            "time": 125.49999999999876,
            "value": 0.2755905511811024
          },
          {
            "number": 11,
            "time": 125.50999999999877,
            "value": 0.25196850393700787
          },
          {
            "number": 11,
            "time": 125.51999999999877,
            "value": 0.23622047244094488
          },
          {
            "number": 11,
            "time": 125.52499999999877,
            "value": 0.2283464566929134
          },
          {
            "number": 11,
            "time": 125.52999999999876,
            "value": 0.2125984251968504
          },
          {
            "number": 11,
            "time": 125.53499999999876,
            "value": 0.1968503937007874
          },
          {
            "number": 11,
            "time": 125.53999999999876,
            "value": 0.18110236220472442
          },
          {
            "number": 11,
            "time": 125.54999999999876,
            "value": 0.16535433070866143
          },
          {
            "number": 11,
            "time": 125.55499999999876,
            "value": 0.15748031496062992
          },
          {
            "number": 11,
            "time": 125.55999999999875,
            "value": 0.14173228346456693
          },
          {
            "number": 11,
            "time": 125.56499999999875,
            "value": 0.12598425196850394
          },
          {
            "number": 11,
            "time": 125.56999999999874,
            "value": 0.11023622047244094
          },
          {
            "number": 11,
            "time": 125.57999999999875,
            "value": 0.09448818897637795
          },
          {
            "number": 11,
            "time": 125.58499999999874,
            "value": 0.07874015748031496
          },
          {
            "number": 11,
            "time": 125.58999999999874,
            "value": 0.06299212598425197
          },
          {
            "number": 11,
            "time": 125.59499999999873,
            "value": 0.047244094488188976
          },
          {
            "number": 11,
            "time": 125.59999999999873,
            "value": 0.03937007874015748
          },
          {
            "number": 11,
            "time": 125.60999999999873,
            "value": 0.023622047244094488
          },
          {
            "number": 11,
            "time": 125.61499999999873,
            "value": 0.007874015748031496
          },
          {
            "number": 11,
            "time": 125.61999999999873,
            "value": 0
          },
          {
            "number": 11,
            "time": 125.68999999999872,
            "value": 1
          },
          {
            "number": 11,
            "time": 127.59999999999859,
            "value": 0.984251968503937
          },
          {
            "number": 11,
            "time": 127.6249999999986,
            "value": 0.9763779527559056
          },
          {
            "number": 11,
            "time": 127.62999999999859,
            "value": 0.968503937007874
          },
          {
            "number": 11,
            "time": 127.67999999999859,
            "value": 0.9606299212598425
          },
          {
            "number": 11,
            "time": 127.69499999999859,
            "value": 0.952755905511811
          },
          {
            "number": 11,
            "time": 127.71999999999859,
            "value": 0.937007874015748
          },
          {
            "number": 11,
            "time": 127.7449999999986,
            "value": 0.9291338582677166
          },
          {
            "number": 11,
            "time": 127.7549999999986,
            "value": 0.9212598425196851
          },
          {
            "number": 11,
            "time": 127.7699999999986,
            "value": 0.9133858267716536
          },
          {
            "number": 11,
            "time": 127.77999999999861,
            "value": 0.905511811023622
          },
          {
            "number": 11,
            "time": 127.7849999999986,
            "value": 0.8976377952755905
          },
          {
            "number": 11,
            "time": 127.8049999999986,
            "value": 0.889763779527559
          },
          {
            "number": 11,
            "time": 127.8149999999986,
            "value": 0.8818897637795275
          },
          {
            "number": 11,
            "time": 127.8199999999986,
            "value": 0.8740157480314961
          },
          {
            "number": 11,
            "time": 127.8349999999986,
            "value": 0.8661417322834646
          },
          {
            "number": 11,
            "time": 127.8399999999986,
            "value": 0.8582677165354331
          },
          {
            "number": 11,
            "time": 127.8499999999986,
            "value": 0.84251968503937
          },
          {
            "number": 11,
            "time": 127.8649999999986,
            "value": 0.8346456692913385
          },
          {
            "number": 11,
            "time": 127.8799999999986,
            "value": 0.8267716535433071
          },
          {
            "number": 11,
            "time": 127.88999999999861,
            "value": 0.8031496062992126
          },
          {
            "number": 11,
            "time": 127.90499999999861,
            "value": 0.7952755905511811
          },
          {
            "number": 11,
            "time": 127.9099999999986,
            "value": 0.7716535433070866
          },
          {
            "number": 11,
            "time": 127.91999999999861,
            "value": 0.7637795275590551
          },
          {
            "number": 11,
            "time": 127.9249999999986,
            "value": 0.7480314960629921
          },
          {
            "number": 11,
            "time": 127.9299999999986,
            "value": 0.7401574803149606
          },
          {
            "number": 11,
            "time": 127.9349999999986,
            "value": 0.7322834645669292
          },
          {
            "number": 11,
            "time": 127.93999999999859,
            "value": 0.7165354330708661
          },
          {
            "number": 11,
            "time": 127.9499999999986,
            "value": 0.7086614173228346
          },
          {
            "number": 11,
            "time": 127.95499999999859,
            "value": 0.6929133858267716
          },
          {
            "number": 11,
            "time": 127.95999999999859,
            "value": 0.6692913385826772
          },
          {
            "number": 11,
            "time": 127.96499999999858,
            "value": 0.6535433070866141
          },
          {
            "number": 11,
            "time": 127.96999999999858,
            "value": 0.6456692913385826
          },
          {
            "number": 11,
            "time": 127.97999999999858,
            "value": 0.6299212598425197
          },
          {
            "number": 11,
            "time": 127.98499999999858,
            "value": 0.6062992125984252
          },
          {
            "number": 11,
            "time": 127.98999999999857,
            "value": 0.5905511811023622
          },
          {
            "number": 11,
            "time": 127.99999999999858,
            "value": 0.5748031496062992
          },
          {
            "number": 11,
            "time": 128.00999999999857,
            "value": 0.5590551181102362
          },
          {
            "number": 11,
            "time": 128.01499999999857,
            "value": 0.5433070866141733
          },
          {
            "number": 11,
            "time": 128.02499999999856,
            "value": 0.5275590551181102
          },
          {
            "number": 11,
            "time": 128.02999999999855,
            "value": 0.49606299212598426
          },
          {
            "number": 11,
            "time": 128.09999999999854,
            "value": 1
          },
          {
            "number": 11,
            "time": 129.88999999999842,
            "value": 1
          },
          {
            "number": 11,
            "time": 129.9049999999984,
            "value": 0.9921259842519685
          },
          {
            "number": 11,
            "time": 129.9499999999984,
            "value": 0.984251968503937
          },
          {
            "number": 11,
            "time": 129.96499999999838,
            "value": 0.9763779527559056
          },
          {
            "number": 11,
            "time": 129.9899999999984,
            "value": 0.968503937007874
          },
          {
            "number": 11,
            "time": 129.99999999999838,
            "value": 0.9606299212598425
          },
          {
            "number": 11,
            "time": 129.99999999999838,
            "value": 0.952755905511811
          },
          {
            "number": 11,
            "time": 130.01499999999837,
            "value": 0.9448818897637795
          },
          {
            "number": 11,
            "time": 130.01999999999836,
            "value": 0.9212598425196851
          },
          {
            "number": 11,
            "time": 130.02999999999835,
            "value": 0.9133858267716536
          },
          {
            "number": 11,
            "time": 130.03999999999834,
            "value": 0.905511811023622
          },
          {
            "number": 11,
            "time": 130.04499999999834,
            "value": 0.8976377952755905
          },
          {
            "number": 11,
            "time": 130.04999999999833,
            "value": 0.889763779527559
          },
          {
            "number": 11,
            "time": 130.05999999999833,
            "value": 0.8582677165354331
          },
          {
            "number": 11,
            "time": 130.0749999999983,
            "value": 0.8110236220472441
          },
          {
            "number": 11,
            "time": 130.0849999999983,
            "value": 0.7952755905511811
          },
          {
            "number": 11,
            "time": 130.0899999999983,
            "value": 0.7480314960629921
          },
          {
            "number": 11,
            "time": 130.10499999999828,
            "value": 0.7007874015748031
          },
          {
            "number": 11,
            "time": 130.11499999999828,
            "value": 0.6850393700787402
          },
          {
            "number": 11,
            "time": 130.12999999999826,
            "value": 0.6377952755905512
          },
          {
            "number": 11,
            "time": 130.13999999999825,
            "value": 0.5905511811023622
          },
          {
            "number": 11,
            "time": 130.14999999999824,
            "value": 0.5748031496062992
          },
          {
            "number": 11,
            "time": 130.16499999999823,
            "value": 0.5590551181102362
          },
          {
            "number": 11,
            "time": 130.17499999999822,
            "value": 0.5433070866141733
          },
          {
            "number": 11,
            "time": 130.1899999999982,
            "value": 0.5275590551181102
          },
          {
            "number": 11,
            "time": 130.1949999999982,
            "value": 0.5118110236220472
          },
          {
            "number": 11,
            "time": 130.1999999999982,
            "value": 0.49606299212598426
          },
          {
            "number": 11,
            "time": 130.2049999999982,
            "value": 0.4881889763779528
          },
          {
            "number": 11,
            "time": 130.2099999999982,
            "value": 0.47244094488188976
          },
          {
            "number": 11,
            "time": 130.21999999999818,
            "value": 0.4645669291338583
          },
          {
            "number": 11,
            "time": 130.22499999999818,
            "value": 0.41732283464566927
          },
          {
            "number": 11,
            "time": 130.22999999999817,
            "value": 0.4015748031496063
          },
          {
            "number": 11,
            "time": 130.23999999999816,
            "value": 0.3858267716535433
          },
          {
            "number": 11,
            "time": 130.25499999999815,
            "value": 0.3700787401574803
          },
          {
            "number": 11,
            "time": 130.25999999999814,
            "value": 0.3228346456692913
          },
          {
            "number": 11,
            "time": 130.26499999999814,
            "value": 0.30708661417322836
          },
          {
            "number": 11,
            "time": 130.27999999999813,
            "value": 0.29133858267716534
          },
          {
            "number": 11,
            "time": 130.28499999999812,
            "value": 0.2755905511811024
          },
          {
            "number": 11,
            "time": 130.2949999999981,
            "value": 0.25984251968503935
          },
          {
            "number": 11,
            "time": 130.2999999999981,
            "value": 0.2440944881889764
          },
          {
            "number": 11,
            "time": 130.3099999999981,
            "value": 0.2283464566929134
          },
          {
            "number": 11,
            "time": 130.3149999999981,
            "value": 0.2125984251968504
          },
          {
            "number": 11,
            "time": 130.3199999999981,
            "value": 0.1968503937007874
          },
          {
            "number": 11,
            "time": 130.32499999999808,
            "value": 0.14960629921259844
          },
          {
            "number": 11,
            "time": 130.33999999999807,
            "value": 0.13385826771653545
          },
          {
            "number": 11,
            "time": 130.34499999999807,
            "value": 0.08661417322834646
          },
          {
            "number": 11,
            "time": 130.34999999999806,
            "value": 0.023622047244094488
          },
          {
            "number": 11,
            "time": 130.35499999999806,
            "value": 0.007874015748031496
          },
          {
            "number": 11,
            "time": 130.36999999999804,
            "value": 0
          },
          {
            "number": 11,
            "time": 130.62999999999803,
            "value": 1
          },
          {
            "number": 11,
            "time": 132.29999999999782,
            "value": 1
          },
          {
            "number": 11,
            "time": 132.44499999999783,
            "value": 0.9921259842519685
          },
          {
            "number": 11,
            "time": 132.49999999999784,
            "value": 0.984251968503937
          },
          {
            "number": 11,
            "time": 132.51999999999785,
            "value": 0.9763779527559056
          },
          {
            "number": 11,
            "time": 132.53499999999784,
            "value": 0.968503937007874
          },
          {
            "number": 11,
            "time": 132.54499999999783,
            "value": 0.9606299212598425
          },
          {
            "number": 11,
            "time": 132.56499999999784,
            "value": 0.952755905511811
          },
          {
            "number": 11,
            "time": 132.57999999999782,
            "value": 0.937007874015748
          },
          {
            "number": 11,
            "time": 132.59999999999783,
            "value": 0.9291338582677166
          },
          {
            "number": 11,
            "time": 132.60499999999783,
            "value": 0.9133858267716536
          },
          {
            "number": 11,
            "time": 132.60999999999783,
            "value": 0.905511811023622
          },
          {
            "number": 11,
            "time": 132.6249999999978,
            "value": 0.8976377952755905
          },
          {
            "number": 11,
            "time": 132.6299999999978,
            "value": 0.889763779527559
          },
          {
            "number": 11,
            "time": 132.6349999999978,
            "value": 0.8740157480314961
          },
          {
            "number": 11,
            "time": 132.6499999999978,
            "value": 0.8582677165354331
          },
          {
            "number": 11,
            "time": 132.65499999999778,
            "value": 0.8346456692913385
          },
          {
            "number": 11,
            "time": 132.65999999999778,
            "value": 0.8267716535433071
          },
          {
            "number": 11,
            "time": 132.66499999999778,
            "value": 0.8188976377952756
          },
          {
            "number": 11,
            "time": 132.66999999999777,
            "value": 0.8031496062992126
          },
          {
            "number": 11,
            "time": 132.67999999999776,
            "value": 0.7795275590551181
          },
          {
            "number": 11,
            "time": 132.68499999999776,
            "value": 0.7716535433070866
          },
          {
            "number": 11,
            "time": 132.68999999999775,
            "value": 0.7559055118110236
          },
          {
            "number": 11,
            "time": 132.69499999999775,
            "value": 0.7480314960629921
          },
          {
            "number": 11,
            "time": 132.69999999999774,
            "value": 0.7244094488188977
          },
          {
            "number": 11,
            "time": 132.70999999999773,
            "value": 0.7086614173228346
          },
          {
            "number": 11,
            "time": 132.71499999999773,
            "value": 0.7007874015748031
          },
          {
            "number": 11,
            "time": 132.71999999999773,
            "value": 0.6850393700787402
          },
          {
            "number": 11,
            "time": 132.72499999999772,
            "value": 0.6692913385826772
          },
          {
            "number": 11,
            "time": 132.72999999999772,
            "value": 0.6535433070866141
          },
          {
            "number": 11,
            "time": 132.7449999999977,
            "value": 0.6456692913385826
          },
          {
            "number": 11,
            "time": 132.7499999999977,
            "value": 0.6299212598425197
          },
          {
            "number": 11,
            "time": 132.7549999999977,
            "value": 0.6220472440944882
          },
          {
            "number": 11,
            "time": 132.76999999999768,
            "value": 0.6141732283464567
          },
          {
            "number": 11,
            "time": 132.84499999999767,
            "value": 0.6299212598425197
          },
          {
            "number": 11,
            "time": 132.84999999999766,
            "value": 0.6377952755905512
          },
          {
            "number": 11,
            "time": 132.85999999999765,
            "value": 0.6456692913385826
          },
          {
            "number": 11,
            "time": 132.86499999999765,
            "value": 0.6535433070866141
          },
          {
            "number": 11,
            "time": 132.86999999999765,
            "value": 0.6771653543307087
          },
          {
            "number": 11,
            "time": 132.87499999999764,
            "value": 0.6929133858267716
          },
          {
            "number": 11,
            "time": 132.87999999999764,
            "value": 0.7086614173228346
          },
          {
            "number": 11,
            "time": 132.88999999999763,
            "value": 0.7322834645669292
          },
          {
            "number": 11,
            "time": 132.89499999999762,
            "value": 0.7716535433070866
          },
          {
            "number": 11,
            "time": 132.89999999999762,
            "value": 0.8031496062992126
          },
          {
            "number": 11,
            "time": 132.9049999999976,
            "value": 0.8188976377952756
          },
          {
            "number": 11,
            "time": 132.9099999999976,
            "value": 0.8267716535433071
          },
          {
            "number": 11,
            "time": 132.9199999999976,
            "value": 0.8582677165354331
          },
          {
            "number": 11,
            "time": 132.9249999999976,
            "value": 0.8740157480314961
          },
          {
            "number": 11,
            "time": 132.9299999999976,
            "value": 0.889763779527559
          },
          {
            "number": 11,
            "time": 132.9349999999976,
            "value": 0.905511811023622
          },
          {
            "number": 11,
            "time": 132.93999999999758,
            "value": 0.9291338582677166
          },
          {
            "number": 11,
            "time": 132.94999999999757,
            "value": 0.937007874015748
          },
          {
            "number": 11,
            "time": 132.95499999999757,
            "value": 0.952755905511811
          },
          {
            "number": 11,
            "time": 132.95999999999756,
            "value": 0.9606299212598425
          },
          {
            "number": 11,
            "time": 132.96999999999755,
            "value": 0.968503937007874
          },
          {
            "number": 11,
            "time": 132.97999999999755,
            "value": 0.9763779527559056
          },
          {
            "number": 11,
            "time": 132.98999999999754,
            "value": 0.984251968503937
          },
          {
            "number": 11,
            "time": 132.99999999999753,
            "value": 0.9921259842519685
          },
          {
            "number": 11,
            "time": 133.0149999999975,
            "value": 1
          },
          {
            "number": 11,
            "time": 134.0199999999974,
            "value": 0.9921259842519685
          },
          {
            "number": 11,
            "time": 134.0249999999974,
            "value": 0.984251968503937
          },
          {
            "number": 11,
            "time": 134.03499999999738,
            "value": 0.9763779527559056
          },
          {
            "number": 11,
            "time": 134.04499999999737,
            "value": 0.968503937007874
          },
          {
            "number": 11,
            "time": 134.04999999999737,
            "value": 0.9606299212598425
          },
          {
            "number": 11,
            "time": 134.05499999999736,
            "value": 0.952755905511811
          },
          {
            "number": 11,
            "time": 134.06499999999735,
            "value": 0.9448818897637795
          },
          {
            "number": 11,
            "time": 134.10499999999732,
            "value": 0.937007874015748
          },
          {
            "number": 11,
            "time": 134.1399999999973,
            "value": 0.9291338582677166
          },
          {
            "number": 11,
            "time": 134.17499999999725,
            "value": 0.9212598425196851
          },
          {
            "number": 11,
            "time": 134.20999999999722,
            "value": 0.9133858267716536
          },
          {
            "number": 11,
            "time": 134.2599999999972,
            "value": 0.905511811023622
          },
          {
            "number": 11,
            "time": 134.2699999999972,
            "value": 0.8976377952755905
          },
          {
            "number": 11,
            "time": 134.28999999999718,
            "value": 0.889763779527559
          },
          {
            "number": 11,
            "time": 134.31499999999716,
            "value": 0.8818897637795275
          },
          {
            "number": 11,
            "time": 134.32499999999715,
            "value": 0.8740157480314961
          },
          {
            "number": 11,
            "time": 134.33499999999714,
            "value": 0.8661417322834646
          },
          {
            "number": 11,
            "time": 134.34999999999712,
            "value": 0.8582677165354331
          },
          {
            "number": 11,
            "time": 134.35999999999711,
            "value": 0.8503937007874016
          },
          {
            "number": 11,
            "time": 134.3999999999971,
            "value": 0.9212598425196851
          },
          {
            "number": 11,
            "time": 134.4099999999971,
            "value": 0.8346456692913385
          },
          {
            "number": 11,
            "time": 134.4099999999971,
            "value": 0.9133858267716536
          },
          {
            "number": 11,
            "time": 134.4199999999971,
            "value": 0.905511811023622
          },
          {
            "number": 11,
            "time": 134.43499999999707,
            "value": 0.889763779527559
          },
          {
            "number": 11,
            "time": 134.43999999999707,
            "value": 0.8818897637795275
          },
          {
            "number": 11,
            "time": 134.45499999999706,
            "value": 0.8740157480314961
          },
          {
            "number": 11,
            "time": 134.45499999999706,
            "value": 0.8267716535433071
          },
          {
            "number": 11,
            "time": 134.45999999999705,
            "value": 0.8661417322834646
          },
          {
            "number": 11,
            "time": 134.46999999999704,
            "value": 0.8188976377952756
          },
          {
            "number": 11,
            "time": 134.47999999999703,
            "value": 0.8110236220472441
          },
          {
            "number": 11,
            "time": 134.49499999999702,
            "value": 0.8031496062992126
          },
          {
            "number": 11,
            "time": 134.49499999999702,
            "value": 0.8582677165354331
          },
          {
            "number": 11,
            "time": 134.49999999999702,
            "value": 0.8503937007874016
          },
          {
            "number": 11,
            "time": 134.519999999997,
            "value": 0.84251968503937
          },
          {
            "number": 11,
            "time": 134.524999999997,
            "value": 0.8346456692913385
          },
          {
            "number": 11,
            "time": 134.529999999997,
            "value": 0.7952755905511811
          },
          {
            "number": 11,
            "time": 134.53499999999698,
            "value": 0.7874015748031497
          },
          {
            "number": 11,
            "time": 134.53999999999698,
            "value": 0.8188976377952756
          },
          {
            "number": 11,
            "time": 134.54499999999697,
            "value": 0.7795275590551181
          },
          {
            "number": 11,
            "time": 134.54999999999697,
            "value": 0.8110236220472441
          },
          {
            "number": 11,
            "time": 134.55499999999697,
            "value": 0.8031496062992126
          },
          {
            "number": 11,
            "time": 134.55999999999696,
            "value": 0.7716535433070866
          },
          {
            "number": 11,
            "time": 134.56999999999695,
            "value": 0.7637795275590551
          },
          {
            "number": 11,
            "time": 134.58499999999694,
            "value": 0.7559055118110236
          },
          {
            "number": 11,
            "time": 134.58999999999693,
            "value": 0.7952755905511811
          },
          {
            "number": 11,
            "time": 134.59999999999692,
            "value": 0.7874015748031497
          },
          {
            "number": 11,
            "time": 134.61999999999694,
            "value": 0.7401574803149606
          },
          {
            "number": 11,
            "time": 134.63499999999692,
            "value": 0.7795275590551181
          },
          {
            "number": 11,
            "time": 134.63999999999692,
            "value": 0.7716535433070866
          },
          {
            "number": 11,
            "time": 134.6499999999969,
            "value": 0.7637795275590551
          },
          {
            "number": 11,
            "time": 134.6599999999969,
            "value": 0.7322834645669292
          },
          {
            "number": 11,
            "time": 134.6599999999969,
            "value": 0.7559055118110236
          },
          {
            "number": 11,
            "time": 134.6649999999969,
            "value": 0.7480314960629921
          },
          {
            "number": 11,
            "time": 134.67499999999688,
            "value": 0.7165354330708661
          },
          {
            "number": 11,
            "time": 134.68499999999688,
            "value": 0.7086614173228346
          },
          {
            "number": 11,
            "time": 134.69999999999686,
            "value": 0.7322834645669292
          },
          {
            "number": 11,
            "time": 134.70999999999685,
            "value": 0.7165354330708661
          },
          {
            "number": 11,
            "time": 134.71999999999684,
            "value": 0.7007874015748031
          },
          {
            "number": 11,
            "time": 134.72499999999684,
            "value": 0.7086614173228346
          },
          {
            "number": 11,
            "time": 134.75499999999684,
            "value": 0.6850393700787402
          },
          {
            "number": 11,
            "time": 134.75999999999684,
            "value": 0.6929133858267716
          },
          {
            "number": 11,
            "time": 134.76999999999683,
            "value": 0.6771653543307087
          },
          {
            "number": 11,
            "time": 134.76999999999683,
            "value": 0.6771653543307087
          },
          {
            "number": 11,
            "time": 134.7849999999968,
            "value": 0.6692913385826772
          },
          {
            "number": 11,
            "time": 134.7949999999968,
            "value": 0.6535433070866141
          },
          {
            "number": 11,
            "time": 134.8049999999968,
            "value": 0.6692913385826772
          },
          {
            "number": 11,
            "time": 134.8099999999968,
            "value": 0.6456692913385826
          },
          {
            "number": 11,
            "time": 134.8149999999968,
            "value": 0.6535433070866141
          },
          {
            "number": 11,
            "time": 134.8149999999968,
            "value": 0.6299212598425197
          },
          {
            "number": 11,
            "time": 134.82499999999678,
            "value": 0.6220472440944882
          },
          {
            "number": 11,
            "time": 134.82999999999677,
            "value": 0.6456692913385826
          },
          {
            "number": 11,
            "time": 134.83499999999677,
            "value": 0.6377952755905512
          },
          {
            "number": 11,
            "time": 134.83999999999676,
            "value": 0.6141732283464567
          },
          {
            "number": 11,
            "time": 134.84999999999675,
            "value": 0.5984251968503937
          },
          {
            "number": 11,
            "time": 134.85499999999675,
            "value": 0.6299212598425197
          },
          {
            "number": 11,
            "time": 134.85999999999675,
            "value": 0.6220472440944882
          },
          {
            "number": 11,
            "time": 134.85999999999675,
            "value": 0.5826771653543307
          },
          {
            "number": 11,
            "time": 134.86499999999674,
            "value": 0.6141732283464567
          },
          {
            "number": 11,
            "time": 134.86999999999674,
            "value": 0.6062992125984252
          },
          {
            "number": 11,
            "time": 134.88499999999672,
            "value": 0.5984251968503937
          },
          {
            "number": 11,
            "time": 134.88999999999672,
            "value": 0.5905511811023622
          },
          {
            "number": 11,
            "time": 134.8999999999967,
            "value": 0.5826771653543307
          },
          {
            "number": 11,
            "time": 134.9049999999967,
            "value": 0.5748031496062992
          },
          {
            "number": 11,
            "time": 134.9099999999967,
            "value": 0.5669291338582677
          },
          {
            "number": 11,
            "time": 134.9199999999967,
            "value": 0.5669291338582677
          },
          {
            "number": 11,
            "time": 134.9249999999967,
            "value": 0.5590551181102362
          },
          {
            "number": 11,
            "time": 134.92999999999668,
            "value": 0.5511811023622047
          },
          {
            "number": 11,
            "time": 134.93499999999668,
            "value": 0.5433070866141733
          },
          {
            "number": 11,
            "time": 134.94499999999667,
            "value": 0.5511811023622047
          },
          {
            "number": 11,
            "time": 134.94999999999666,
            "value": 0.5354330708661418
          },
          {
            "number": 11,
            "time": 134.95999999999665,
            "value": 0.5196850393700787
          },
          {
            "number": 11,
            "time": 134.97499999999664,
            "value": 0.5118110236220472
          },
          {
            "number": 11,
            "time": 134.97499999999664,
            "value": 0.5118110236220472
          },
          {
            "number": 11,
            "time": 134.97999999999664,
            "value": 0.5039370078740157
          },
          {
            "number": 11,
            "time": 134.98499999999663,
            "value": 0.49606299212598426
          },
          {
            "number": 11,
            "time": 134.98499999999663,
            "value": 0.5039370078740157
          },
          {
            "number": 11,
            "time": 134.98999999999663,
            "value": 0.48031496062992124
          },
          {
            "number": 11,
            "time": 134.99499999999662,
            "value": 0.49606299212598426
          },
          {
            "number": 11,
            "time": 134.99999999999662,
            "value": 0.47244094488188976
          },
          {
            "number": 11,
            "time": 135.0099999999966,
            "value": 0.4881889763779528
          },
          {
            "number": 11,
            "time": 135.0099999999966,
            "value": 0.4645669291338583
          },
          {
            "number": 11,
            "time": 135.0149999999966,
            "value": 0.4409448818897638
          },
          {
            "number": 11,
            "time": 135.0199999999966,
            "value": 0.48031496062992124
          },
          {
            "number": 11,
            "time": 135.0199999999966,
            "value": 0.4330708661417323
          },
          {
            "number": 11,
            "time": 135.0249999999966,
            "value": 0.47244094488188976
          },
          {
            "number": 11,
            "time": 135.0299999999966,
            "value": 0.41732283464566927
          },
          {
            "number": 11,
            "time": 135.0349999999966,
            "value": 0.4645669291338583
          },
          {
            "number": 11,
            "time": 135.03999999999658,
            "value": 0.4015748031496063
          },
          {
            "number": 11,
            "time": 135.04499999999658,
            "value": 0.4566929133858268
          },
          {
            "number": 11,
            "time": 135.04999999999657,
            "value": 0.3543307086614173
          },
          {
            "number": 11,
            "time": 135.04999999999657,
            "value": 0.44881889763779526
          },
          {
            "number": 11,
            "time": 135.06499999999656,
            "value": 0.33858267716535434
          },
          {
            "number": 11,
            "time": 135.06999999999655,
            "value": 0.4409448818897638
          },
          {
            "number": 11,
            "time": 135.06999999999655,
            "value": 0.3228346456692913
          },
          {
            "number": 11,
            "time": 135.07499999999655,
            "value": 0.4330708661417323
          },
          {
            "number": 11,
            "time": 135.07999999999655,
            "value": 0.31496062992125984
          },
          {
            "number": 11,
            "time": 135.07999999999655,
            "value": 0.4251968503937008
          },
          {
            "number": 11,
            "time": 135.08499999999654,
            "value": 0.41732283464566927
          },
          {
            "number": 11,
            "time": 135.08999999999654,
            "value": 0.2992125984251969
          },
          {
            "number": 11,
            "time": 135.09499999999653,
            "value": 0.29133858267716534
          },
          {
            "number": 11,
            "time": 135.09999999999653,
            "value": 0.4015748031496063
          },
          {
            "number": 11,
            "time": 135.09999999999653,
            "value": 0.2755905511811024
          },
          {
            "number": 11,
            "time": 135.10999999999652,
            "value": 0.25196850393700787
          },
          {
            "number": 11,
            "time": 135.10999999999652,
            "value": 0.3937007874015748
          },
          {
            "number": 11,
            "time": 135.1149999999965,
            "value": 0.3858267716535433
          },
          {
            "number": 11,
            "time": 135.1199999999965,
            "value": 0.23622047244094488
          },
          {
            "number": 11,
            "time": 135.1249999999965,
            "value": 0.2283464566929134
          },
          {
            "number": 11,
            "time": 135.1249999999965,
            "value": 0.3779527559055118
          },
          {
            "number": 11,
            "time": 135.1299999999965,
            "value": 0.2125984251968504
          },
          {
            "number": 11,
            "time": 135.1299999999965,
            "value": 0.36220472440944884
          },
          {
            "number": 11,
            "time": 135.1349999999965,
            "value": 0.1968503937007874
          },
          {
            "number": 11,
            "time": 135.1399999999965,
            "value": 0.18110236220472442
          },
          {
            "number": 11,
            "time": 135.1449999999965,
            "value": 0.3464566929133858
          },
          {
            "number": 11,
            "time": 135.14999999999648,
            "value": 0.16535433070866143
          },
          {
            "number": 11,
            "time": 135.15499999999648,
            "value": 0.33858267716535434
          },
          {
            "number": 11,
            "time": 135.15499999999648,
            "value": 0.15748031496062992
          },
          {
            "number": 11,
            "time": 135.15999999999647,
            "value": 0.14173228346456693
          },
          {
            "number": 11,
            "time": 135.16499999999647,
            "value": 0.12598425196850394
          },
          {
            "number": 11,
            "time": 135.16999999999646,
            "value": 0.11023622047244094
          },
          {
            "number": 11,
            "time": 135.17999999999645,
            "value": 0.09448818897637795
          },
          {
            "number": 11,
            "time": 135.18499999999645,
            "value": 0.07874015748031496
          },
          {
            "number": 11,
            "time": 135.18999999999645,
            "value": 0.06299212598425197
          },
          {
            "number": 11,
            "time": 135.19499999999644,
            "value": 0.047244094488188976
          },
          {
            "number": 11,
            "time": 135.19999999999644,
            "value": 0.03937007874015748
          },
          {
            "number": 11,
            "time": 135.20999999999643,
            "value": 0.023622047244094488
          },
          {
            "number": 11,
            "time": 135.21499999999642,
            "value": 0.007874015748031496
          },
          {
            "number": 11,
            "time": 135.21999999999642,
            "value": 0
          },
          {
            "number": 11,
            "time": 135.2899999999964,
            "value": 1
          },
          {
            "number": 11,
            "time": 135.34499999999642,
            "value": 1
          },
          {
            "number": 11,
            "time": 137.1999999999962,
            "value": 0.984251968503937
          },
          {
            "number": 11,
            "time": 137.22499999999621,
            "value": 0.9763779527559056
          },
          {
            "number": 11,
            "time": 137.2299999999962,
            "value": 0.968503937007874
          },
          {
            "number": 11,
            "time": 137.27999999999622,
            "value": 0.9606299212598425
          },
          {
            "number": 11,
            "time": 137.2949999999962,
            "value": 0.952755905511811
          },
          {
            "number": 11,
            "time": 137.3199999999962,
            "value": 0.937007874015748
          },
          {
            "number": 11,
            "time": 137.34499999999622,
            "value": 0.9291338582677166
          },
          {
            "number": 11,
            "time": 137.3549999999962,
            "value": 0.9212598425196851
          },
          {
            "number": 11,
            "time": 137.3699999999962,
            "value": 0.9133858267716536
          },
          {
            "number": 11,
            "time": 137.3799999999962,
            "value": 0.905511811023622
          },
          {
            "number": 11,
            "time": 137.38499999999618,
            "value": 0.8976377952755905
          },
          {
            "number": 11,
            "time": 137.4049999999962,
            "value": 0.889763779527559
          },
          {
            "number": 11,
            "time": 137.41499999999618,
            "value": 0.8818897637795275
          },
          {
            "number": 11,
            "time": 137.41999999999618,
            "value": 0.8740157480314961
          },
          {
            "number": 11,
            "time": 137.43499999999617,
            "value": 0.8661417322834646
          },
          {
            "number": 11,
            "time": 137.43999999999616,
            "value": 0.8582677165354331
          },
          {
            "number": 11,
            "time": 137.44999999999615,
            "value": 0.84251968503937
          },
          {
            "number": 11,
            "time": 137.46499999999614,
            "value": 0.8346456692913385
          },
          {
            "number": 11,
            "time": 137.47999999999612,
            "value": 0.8267716535433071
          },
          {
            "number": 11,
            "time": 137.48999999999612,
            "value": 0.8031496062992126
          },
          {
            "number": 11,
            "time": 137.5049999999961,
            "value": 0.7952755905511811
          },
          {
            "number": 11,
            "time": 137.5099999999961,
            "value": 0.7716535433070866
          },
          {
            "number": 11,
            "time": 137.5199999999961,
            "value": 0.7637795275590551
          },
          {
            "number": 11,
            "time": 137.52499999999608,
            "value": 0.7480314960629921
          },
          {
            "number": 11,
            "time": 137.52999999999608,
            "value": 0.7401574803149606
          },
          {
            "number": 11,
            "time": 137.53499999999607,
            "value": 0.7322834645669292
          },
          {
            "number": 11,
            "time": 137.53999999999607,
            "value": 0.7165354330708661
          },
          {
            "number": 11,
            "time": 137.54999999999606,
            "value": 0.7086614173228346
          },
          {
            "number": 11,
            "time": 137.55499999999606,
            "value": 0.6929133858267716
          },
          {
            "number": 11,
            "time": 137.55999999999605,
            "value": 0.6692913385826772
          },
          {
            "number": 11,
            "time": 137.56499999999605,
            "value": 0.6535433070866141
          },
          {
            "number": 11,
            "time": 137.56999999999604,
            "value": 0.6456692913385826
          },
          {
            "number": 11,
            "time": 137.57999999999603,
            "value": 0.6299212598425197
          },
          {
            "number": 11,
            "time": 137.58499999999603,
            "value": 0.6062992125984252
          },
          {
            "number": 11,
            "time": 137.58999999999602,
            "value": 0.5905511811023622
          },
          {
            "number": 11,
            "time": 137.59999999999602,
            "value": 0.5748031496062992
          },
          {
            "number": 11,
            "time": 137.609999999996,
            "value": 0.5590551181102362
          },
          {
            "number": 11,
            "time": 137.614999999996,
            "value": 0.5433070866141733
          },
          {
            "number": 11,
            "time": 137.624999999996,
            "value": 0.5275590551181102
          },
          {
            "number": 11,
            "time": 137.629999999996,
            "value": 0.49606299212598426
          },
          {
            "number": 11,
            "time": 137.69999999999598,
            "value": 1
          },
          {
            "number": 11,
            "time": 139.48999999999586,
            "value": 1
          },
          {
            "number": 11,
            "time": 139.50499999999585,
            "value": 0.9921259842519685
          },
          {
            "number": 11,
            "time": 139.54999999999583,
            "value": 0.984251968503937
          },
          {
            "number": 11,
            "time": 139.56499999999582,
            "value": 0.9763779527559056
          },
          {
            "number": 11,
            "time": 139.58999999999583,
            "value": 0.968503937007874
          },
          {
            "number": 11,
            "time": 139.59999999999582,
            "value": 0.9606299212598425
          },
          {
            "number": 11,
            "time": 139.59999999999582,
            "value": 0.952755905511811
          },
          {
            "number": 11,
            "time": 139.6149999999958,
            "value": 0.9448818897637795
          },
          {
            "number": 11,
            "time": 139.6199999999958,
            "value": 0.9212598425196851
          },
          {
            "number": 11,
            "time": 139.6299999999958,
            "value": 0.9133858267716536
          },
          {
            "number": 11,
            "time": 139.63999999999578,
            "value": 0.905511811023622
          },
          {
            "number": 11,
            "time": 139.64499999999578,
            "value": 0.8976377952755905
          },
          {
            "number": 11,
            "time": 139.64999999999577,
            "value": 0.889763779527559
          },
          {
            "number": 11,
            "time": 139.65999999999576,
            "value": 0.8582677165354331
          },
          {
            "number": 11,
            "time": 139.67499999999575,
            "value": 0.8110236220472441
          },
          {
            "number": 11,
            "time": 139.68499999999574,
            "value": 0.7952755905511811
          },
          {
            "number": 11,
            "time": 139.68999999999573,
            "value": 0.7480314960629921
          },
          {
            "number": 11,
            "time": 139.70499999999572,
            "value": 0.7007874015748031
          },
          {
            "number": 11,
            "time": 139.7149999999957,
            "value": 0.6850393700787402
          },
          {
            "number": 11,
            "time": 139.7299999999957,
            "value": 0.6377952755905512
          },
          {
            "number": 11,
            "time": 139.7399999999957,
            "value": 0.5905511811023622
          },
          {
            "number": 11,
            "time": 139.74999999999568,
            "value": 0.5748031496062992
          },
          {
            "number": 11,
            "time": 139.76499999999567,
            "value": 0.5590551181102362
          },
          {
            "number": 11,
            "time": 139.77499999999566,
            "value": 0.5433070866141733
          },
          {
            "number": 11,
            "time": 139.78999999999564,
            "value": 0.5275590551181102
          },
          {
            "number": 11,
            "time": 139.79499999999564,
            "value": 0.5118110236220472
          },
          {
            "number": 11,
            "time": 139.79999999999563,
            "value": 0.49606299212598426
          },
          {
            "number": 11,
            "time": 139.80499999999563,
            "value": 0.4881889763779528
          },
          {
            "number": 11,
            "time": 139.80999999999563,
            "value": 0.47244094488188976
          },
          {
            "number": 11,
            "time": 139.81999999999562,
            "value": 0.4645669291338583
          },
          {
            "number": 11,
            "time": 139.8249999999956,
            "value": 0.41732283464566927
          },
          {
            "number": 11,
            "time": 139.8299999999956,
            "value": 0.4015748031496063
          },
          {
            "number": 11,
            "time": 139.8399999999956,
            "value": 0.3858267716535433
          },
          {
            "number": 11,
            "time": 139.85499999999558,
            "value": 0.3700787401574803
          },
          {
            "number": 11,
            "time": 139.85999999999558,
            "value": 0.3228346456692913
          },
          {
            "number": 11,
            "time": 139.86499999999558,
            "value": 0.30708661417322836
          },
          {
            "number": 11,
            "time": 139.87999999999556,
            "value": 0.29133858267716534
          },
          {
            "number": 11,
            "time": 139.88499999999556,
            "value": 0.2755905511811024
          },
          {
            "number": 11,
            "time": 139.89499999999555,
            "value": 0.25984251968503935
          },
          {
            "number": 11,
            "time": 139.89999999999554,
            "value": 0.2440944881889764
          },
          {
            "number": 11,
            "time": 139.90999999999553,
            "value": 0.2283464566929134
          },
          {
            "number": 11,
            "time": 139.91499999999553,
            "value": 0.2125984251968504
          },
          {
            "number": 11,
            "time": 139.91999999999553,
            "value": 0.1968503937007874
          },
          {
            "number": 11,
            "time": 139.92499999999552,
            "value": 0.14960629921259844
          },
          {
            "number": 11,
            "time": 139.9399999999955,
            "value": 0.13385826771653545
          },
          {
            "number": 11,
            "time": 139.9449999999955,
            "value": 0.08661417322834646
          },
          {
            "number": 11,
            "time": 139.9499999999955,
            "value": 0.023622047244094488
          },
          {
            "number": 11,
            "time": 139.9549999999955,
            "value": 0.007874015748031496
          },
          {
            "number": 11,
            "time": 139.96999999999548,
            "value": 0
          },
          {
            "number": 11,
            "time": 140.22999999999547,
            "value": 1
          },
          {
            "number": 11,
            "time": 141.89999999999526,
            "value": 1
          },
          {
            "number": 11,
            "time": 142.04499999999527,
            "value": 0.9921259842519685
          },
          {
            "number": 11,
            "time": 142.09999999999528,
            "value": 0.984251968503937
          },
          {
            "number": 11,
            "time": 142.1199999999953,
            "value": 0.9763779527559056
          },
          {
            "number": 11,
            "time": 142.13499999999527,
            "value": 0.968503937007874
          },
          {
            "number": 11,
            "time": 142.14499999999526,
            "value": 0.9606299212598425
          },
          {
            "number": 11,
            "time": 142.16499999999527,
            "value": 0.952755905511811
          },
          {
            "number": 11,
            "time": 142.17999999999526,
            "value": 0.937007874015748
          },
          {
            "number": 11,
            "time": 142.19999999999527,
            "value": 0.9291338582677166
          },
          {
            "number": 11,
            "time": 142.20499999999527,
            "value": 0.9133858267716536
          },
          {
            "number": 11,
            "time": 142.20999999999526,
            "value": 0.905511811023622
          },
          {
            "number": 11,
            "time": 142.22499999999525,
            "value": 0.8976377952755905
          },
          {
            "number": 11,
            "time": 142.22999999999524,
            "value": 0.889763779527559
          },
          {
            "number": 11,
            "time": 142.23499999999524,
            "value": 0.8740157480314961
          },
          {
            "number": 11,
            "time": 142.24999999999523,
            "value": 0.8582677165354331
          },
          {
            "number": 11,
            "time": 142.25499999999522,
            "value": 0.8346456692913385
          },
          {
            "number": 11,
            "time": 142.25999999999522,
            "value": 0.8267716535433071
          },
          {
            "number": 11,
            "time": 142.2649999999952,
            "value": 0.8188976377952756
          },
          {
            "number": 11,
            "time": 142.2699999999952,
            "value": 0.8031496062992126
          },
          {
            "number": 11,
            "time": 142.2799999999952,
            "value": 0.7795275590551181
          },
          {
            "number": 11,
            "time": 142.2849999999952,
            "value": 0.7716535433070866
          },
          {
            "number": 11,
            "time": 142.2899999999952,
            "value": 0.7559055118110236
          },
          {
            "number": 11,
            "time": 142.29499999999518,
            "value": 0.7480314960629921
          },
          {
            "number": 11,
            "time": 142.29999999999518,
            "value": 0.7244094488188977
          },
          {
            "number": 11,
            "time": 142.30999999999517,
            "value": 0.7086614173228346
          },
          {
            "number": 11,
            "time": 142.31499999999517,
            "value": 0.7007874015748031
          },
          {
            "number": 11,
            "time": 142.31999999999516,
            "value": 0.6850393700787402
          },
          {
            "number": 11,
            "time": 142.32499999999516,
            "value": 0.6692913385826772
          },
          {
            "number": 11,
            "time": 142.32999999999515,
            "value": 0.6535433070866141
          },
          {
            "number": 11,
            "time": 142.34499999999514,
            "value": 0.6456692913385826
          },
          {
            "number": 11,
            "time": 142.34999999999513,
            "value": 0.6299212598425197
          },
          {
            "number": 11,
            "time": 142.35499999999513,
            "value": 0.6220472440944882
          },
          {
            "number": 11,
            "time": 142.36999999999512,
            "value": 0.6141732283464567
          },
          {
            "number": 11,
            "time": 142.4449999999951,
            "value": 0.6299212598425197
          },
          {
            "number": 11,
            "time": 142.4499999999951,
            "value": 0.6377952755905512
          },
          {
            "number": 11,
            "time": 142.4599999999951,
            "value": 0.6456692913385826
          },
          {
            "number": 11,
            "time": 142.4649999999951,
            "value": 0.6535433070866141
          },
          {
            "number": 11,
            "time": 142.46999999999508,
            "value": 0.6771653543307087
          },
          {
            "number": 11,
            "time": 142.47499999999508,
            "value": 0.6929133858267716
          },
          {
            "number": 11,
            "time": 142.47999999999507,
            "value": 0.7086614173228346
          },
          {
            "number": 11,
            "time": 142.48999999999506,
            "value": 0.7322834645669292
          },
          {
            "number": 11,
            "time": 142.49499999999506,
            "value": 0.7716535433070866
          },
          {
            "number": 11,
            "time": 142.49999999999505,
            "value": 0.8031496062992126
          },
          {
            "number": 11,
            "time": 142.50499999999505,
            "value": 0.8188976377952756
          },
          {
            "number": 11,
            "time": 142.50999999999505,
            "value": 0.8267716535433071
          },
          {
            "number": 11,
            "time": 142.51999999999504,
            "value": 0.8582677165354331
          },
          {
            "number": 11,
            "time": 142.52499999999503,
            "value": 0.8740157480314961
          },
          {
            "number": 11,
            "time": 142.52999999999503,
            "value": 0.889763779527559
          },
          {
            "number": 11,
            "time": 142.53499999999502,
            "value": 0.905511811023622
          },
          {
            "number": 11,
            "time": 142.53999999999502,
            "value": 0.9291338582677166
          },
          {
            "number": 11,
            "time": 142.549999999995,
            "value": 0.937007874015748
          },
          {
            "number": 11,
            "time": 142.554999999995,
            "value": 0.952755905511811
          },
          {
            "number": 11,
            "time": 142.559999999995,
            "value": 0.9606299212598425
          },
          {
            "number": 11,
            "time": 142.569999999995,
            "value": 0.968503937007874
          },
          {
            "number": 11,
            "time": 142.57999999999498,
            "value": 0.9763779527559056
          },
          {
            "number": 11,
            "time": 142.58999999999497,
            "value": 0.984251968503937
          },
          {
            "number": 11,
            "time": 142.59999999999496,
            "value": 0.9921259842519685
          },
          {
            "number": 11,
            "time": 142.61499999999495,
            "value": 1
          },
          {
            "number": 11,
            "time": 143.61999999999483,
            "value": 0.9921259842519685
          },
          {
            "number": 11,
            "time": 143.62499999999483,
            "value": 0.984251968503937
          },
          {
            "number": 11,
            "time": 143.63499999999482,
            "value": 0.9763779527559056
          },
          {
            "number": 11,
            "time": 143.6449999999948,
            "value": 0.968503937007874
          },
          {
            "number": 11,
            "time": 143.6499999999948,
            "value": 0.9606299212598425
          },
          {
            "number": 11,
            "time": 143.6549999999948,
            "value": 0.952755905511811
          },
          {
            "number": 11,
            "time": 143.6649999999948,
            "value": 0.9448818897637795
          },
          {
            "number": 11,
            "time": 143.70499999999475,
            "value": 0.937007874015748
          },
          {
            "number": 11,
            "time": 143.73999999999472,
            "value": 0.9291338582677166
          },
          {
            "number": 11,
            "time": 143.7749999999947,
            "value": 0.9212598425196851
          },
          {
            "number": 11,
            "time": 143.80999999999466,
            "value": 0.9133858267716536
          },
          {
            "number": 11,
            "time": 143.85999999999464,
            "value": 0.905511811023622
          },
          {
            "number": 11,
            "time": 143.86999999999463,
            "value": 0.8976377952755905
          },
          {
            "number": 11,
            "time": 143.88999999999461,
            "value": 0.889763779527559
          },
          {
            "number": 11,
            "time": 143.9149999999946,
            "value": 0.8818897637795275
          },
          {
            "number": 11,
            "time": 143.92499999999458,
            "value": 0.8740157480314961
          },
          {
            "number": 11,
            "time": 143.93499999999457,
            "value": 0.8661417322834646
          },
          {
            "number": 11,
            "time": 143.94999999999456,
            "value": 0.8661417322834646
          },
          {
            "number": 11,
            "time": 143.95999999999455,
            "value": 0.8582677165354331
          },
          {
            "number": 11,
            "time": 143.96499999999455,
            "value": 0.8503937007874016
          },
          {
            "number": 11,
            "time": 143.98999999999455,
            "value": 0.84251968503937
          },
          {
            "number": 11,
            "time": 143.99999999999454,
            "value": 0.8346456692913385
          },
          {
            "number": 11,
            "time": 144.00499999999454,
            "value": 0.9921259842519685
          },
          {
            "number": 11,
            "time": 144.01499999999453,
            "value": 0.8267716535433071
          },
          {
            "number": 11,
            "time": 144.01499999999453,
            "value": 0.984251968503937
          },
          {
            "number": 11,
            "time": 144.01999999999452,
            "value": 0.9763779527559056
          },
          {
            "number": 11,
            "time": 144.0349999999945,
            "value": 0.968503937007874
          },
          {
            "number": 11,
            "time": 144.0399999999945,
            "value": 0.9606299212598425
          },
          {
            "number": 11,
            "time": 144.0499999999945,
            "value": 0.952755905511811
          },
          {
            "number": 11,
            "time": 144.0499999999945,
            "value": 0.8110236220472441
          },
          {
            "number": 11,
            "time": 144.0549999999945,
            "value": 0.9448818897637795
          },
          {
            "number": 11,
            "time": 144.06499999999448,
            "value": 0.937007874015748
          },
          {
            "number": 11,
            "time": 144.07499999999447,
            "value": 0.9291338582677166
          },
          {
            "number": 11,
            "time": 144.08499999999447,
            "value": 0.9212598425196851
          },
          {
            "number": 11,
            "time": 144.09499999999446,
            "value": 0.9133858267716536
          },
          {
            "number": 11,
            "time": 144.09999999999445,
            "value": 0.8031496062992126
          },
          {
            "number": 11,
            "time": 144.12999999999442,
            "value": 0.8976377952755905
          },
          {
            "number": 11,
            "time": 144.13499999999442,
            "value": 0.889763779527559
          },
          {
            "number": 11,
            "time": 144.13499999999442,
            "value": 0.7874015748031497
          },
          {
            "number": 11,
            "time": 144.1449999999944,
            "value": 0.8818897637795275
          },
          {
            "number": 11,
            "time": 144.1599999999944,
            "value": 0.8661417322834646
          },
          {
            "number": 11,
            "time": 144.1699999999944,
            "value": 0.8503937007874016
          },
          {
            "number": 11,
            "time": 144.17999999999438,
            "value": 0.7795275590551181
          },
          {
            "number": 11,
            "time": 144.18499999999437,
            "value": 0.84251968503937
          },
          {
            "number": 11,
            "time": 144.19999999999436,
            "value": 0.7716535433070866
          },
          {
            "number": 11,
            "time": 144.20499999999436,
            "value": 0.7559055118110236
          },
          {
            "number": 11,
            "time": 144.21999999999434,
            "value": 0.8267716535433071
          },
          {
            "number": 11,
            "time": 144.22499999999434,
            "value": 0.7480314960629921
          },
          {
            "number": 11,
            "time": 144.23499999999433,
            "value": 0.7007874015748031
          },
          {
            "number": 11,
            "time": 144.25499999999434,
            "value": 0.8110236220472441
          },
          {
            "number": 11,
            "time": 144.2849999999943,
            "value": 0.6850393700787402
          },
          {
            "number": 11,
            "time": 144.2899999999943,
            "value": 0.7952755905511811
          },
          {
            "number": 11,
            "time": 144.3049999999943,
            "value": 0.7795275590551181
          },
          {
            "number": 11,
            "time": 144.3449999999943,
            "value": 0.6692913385826772
          },
          {
            "number": 11,
            "time": 144.34999999999428,
            "value": 0.7637795275590551
          },
          {
            "number": 11,
            "time": 144.36499999999427,
            "value": 0.7480314960629921
          },
          {
            "number": 11,
            "time": 144.37499999999426,
            "value": 0.7322834645669292
          },
          {
            "number": 11,
            "time": 144.40499999999426,
            "value": 0.6535433070866141
          },
          {
            "number": 11,
            "time": 144.40999999999426,
            "value": 0.7165354330708661
          },
          {
            "number": 11,
            "time": 144.41499999999425,
            "value": 0.6141732283464567
          },
          {
            "number": 11,
            "time": 144.42499999999424,
            "value": 0.6692913385826772
          },
          {
            "number": 11,
            "time": 144.42999999999424,
            "value": 0.5905511811023622
          },
          {
            "number": 11,
            "time": 144.43999999999423,
            "value": 0.5826771653543307
          },
          {
            "number": 11,
            "time": 144.44499999999422,
            "value": 0.5669291338582677
          },
          {
            "number": 11,
            "time": 144.44999999999422,
            "value": 0.5511811023622047
          },
          {
            "number": 11,
            "time": 144.4599999999942,
            "value": 0.6535433070866141
          },
          {
            "number": 11,
            "time": 144.4649999999942,
            "value": 0.5433070866141733
          },
          {
            "number": 11,
            "time": 144.4699999999942,
            "value": 0.5354330708661418
          },
          {
            "number": 11,
            "time": 144.4749999999942,
            "value": 0.5275590551181102
          },
          {
            "number": 11,
            "time": 144.48999999999418,
            "value": 0.5196850393700787
          },
          {
            "number": 11,
            "time": 144.49499999999418,
            "value": 0.6062992125984252
          },
          {
            "number": 11,
            "time": 144.49499999999418,
            "value": 0.5039370078740157
          },
          {
            "number": 11,
            "time": 144.50499999999417,
            "value": 0.4881889763779528
          },
          {
            "number": 11,
            "time": 144.52999999999415,
            "value": 0.5905511811023622
          },
          {
            "number": 11,
            "time": 144.53999999999414,
            "value": 0.4409448818897638
          },
          {
            "number": 11,
            "time": 144.54999999999413,
            "value": 0.4251968503937008
          },
          {
            "number": 11,
            "time": 144.56499999999411,
            "value": 0.5511811023622047
          },
          {
            "number": 11,
            "time": 144.5699999999941,
            "value": 0.5039370078740157
          },
          {
            "number": 11,
            "time": 144.5799999999941,
            "value": 0.4881889763779528
          },
          {
            "number": 11,
            "time": 144.5849999999941,
            "value": 0.4094488188976378
          },
          {
            "number": 11,
            "time": 144.5849999999941,
            "value": 0.47244094488188976
          },
          {
            "number": 11,
            "time": 144.5899999999941,
            "value": 0.4015748031496063
          },
          {
            "number": 11,
            "time": 144.5949999999941,
            "value": 0.4566929133858268
          },
          {
            "number": 11,
            "time": 144.5949999999941,
            "value": 0.3937007874015748
          },
          {
            "number": 11,
            "time": 144.59999999999408,
            "value": 0.4409448818897638
          },
          {
            "number": 11,
            "time": 144.60999999999407,
            "value": 0.3700787401574803
          },
          {
            "number": 11,
            "time": 144.60999999999407,
            "value": 0.4251968503937008
          },
          {
            "number": 11,
            "time": 144.61499999999407,
            "value": 0.4094488188976378
          },
          {
            "number": 11,
            "time": 144.61999999999406,
            "value": 0.36220472440944884
          },
          {
            "number": 11,
            "time": 144.62499999999406,
            "value": 0.3464566929133858
          },
          {
            "number": 11,
            "time": 144.62999999999406,
            "value": 0.33858267716535434
          },
          {
            "number": 11,
            "time": 144.62999999999406,
            "value": 0.3937007874015748
          },
          {
            "number": 11,
            "time": 144.63499999999405,
            "value": 0.3779527559055118
          },
          {
            "number": 11,
            "time": 144.63999999999405,
            "value": 0.3700787401574803
          },
          {
            "number": 11,
            "time": 144.64499999999404,
            "value": 0.33070866141732286
          },
          {
            "number": 11,
            "time": 144.65499999999403,
            "value": 0.36220472440944884
          },
          {
            "number": 11,
            "time": 144.65499999999403,
            "value": 0.28346456692913385
          },
          {
            "number": 11,
            "time": 144.65999999999403,
            "value": 0.3464566929133858
          },
          {
            "number": 11,
            "time": 144.66499999999402,
            "value": 0.33070866141732286
          },
          {
            "number": 11,
            "time": 144.66999999999402,
            "value": 0.2677165354330709
          },
          {
            "number": 11,
            "time": 144.67499999999401,
            "value": 0.31496062992125984
          },
          {
            "number": 11,
            "time": 144.679999999994,
            "value": 0.25196850393700787
          },
          {
            "number": 11,
            "time": 144.684999999994,
            "value": 0.2440944881889764
          },
          {
            "number": 11,
            "time": 144.684999999994,
            "value": 0.2992125984251969
          },
          {
            "number": 11,
            "time": 144.689999999994,
            "value": 0.28346456692913385
          },
          {
            "number": 11,
            "time": 144.689999999994,
            "value": 0.23622047244094488
          },
          {
            "number": 11,
            "time": 144.699999999994,
            "value": 0.2677165354330709
          },
          {
            "number": 11,
            "time": 144.699999999994,
            "value": 0.2283464566929134
          },
          {
            "number": 11,
            "time": 144.704999999994,
            "value": 0.25196850393700787
          },
          {
            "number": 11,
            "time": 144.704999999994,
            "value": 0.2204724409448819
          },
          {
            "number": 11,
            "time": 144.70999999999398,
            "value": 0.2125984251968504
          },
          {
            "number": 11,
            "time": 144.71499999999398,
            "value": 0.2047244094488189
          },
          {
            "number": 11,
            "time": 144.71499999999398,
            "value": 0.23622047244094488
          },
          {
            "number": 11,
            "time": 144.71999999999397,
            "value": 0.1968503937007874
          },
          {
            "number": 11,
            "time": 144.72999999999396,
            "value": 0.1889763779527559
          },
          {
            "number": 11,
            "time": 144.73499999999396,
            "value": 0.18110236220472442
          },
          {
            "number": 11,
            "time": 144.73999999999396,
            "value": 0.1732283464566929
          },
          {
            "number": 11,
            "time": 144.74499999999395,
            "value": 0.16535433070866143
          },
          {
            "number": 11,
            "time": 144.74999999999395,
            "value": 0.14960629921259844
          },
          {
            "number": 11,
            "time": 144.74999999999395,
            "value": 0.2204724409448819
          },
          {
            "number": 11,
            "time": 144.75499999999394,
            "value": 0.2047244094488189
          },
          {
            "number": 11,
            "time": 144.75999999999394,
            "value": 0.13385826771653545
          },
          {
            "number": 11,
            "time": 144.76499999999393,
            "value": 0.1889763779527559
          },
          {
            "number": 11,
            "time": 144.76999999999393,
            "value": 0.11811023622047244
          },
          {
            "number": 11,
            "time": 144.77499999999392,
            "value": 0.18110236220472442
          },
          {
            "number": 11,
            "time": 144.77499999999392,
            "value": 0.10236220472440945
          },
          {
            "number": 11,
            "time": 144.77999999999392,
            "value": 0.08661417322834646
          },
          {
            "number": 11,
            "time": 144.77999999999392,
            "value": 0.15748031496062992
          },
          {
            "number": 11,
            "time": 144.7899999999939,
            "value": 0.07086614173228346
          },
          {
            "number": 11,
            "time": 144.7949999999939,
            "value": 0.05511811023622047
          },
          {
            "number": 11,
            "time": 144.7999999999939,
            "value": 0.03937007874015748
          },
          {
            "number": 11,
            "time": 144.8049999999939,
            "value": 0.015748031496062992
          },
          {
            "number": 11,
            "time": 144.8099999999939,
            "value": 0
          },
          {
            "number": 11,
            "time": 144.84999999999386,
            "value": 1
          },
          {
            "number": 11,
            "time": 144.84999999999386,
            "value": 1
          },
          {
            "number": 11,
            "time": 148.17499999999328,
            "value": 0.9921259842519685
          },
          {
            "number": 11,
            "time": 148.20499999999328,
            "value": 0.984251968503937
          },
          {
            "number": 11,
            "time": 148.21499999999327,
            "value": 0.9763779527559056
          },
          {
            "number": 11,
            "time": 148.22499999999326,
            "value": 0.968503937007874
          },
          {
            "number": 11,
            "time": 148.27499999999324,
            "value": 0.9606299212598425
          },
          {
            "number": 11,
            "time": 148.30999999999324,
            "value": 0.952755905511811
          },
          {
            "number": 11,
            "time": 148.34499999999323,
            "value": 0.9448818897637795
          },
          {
            "number": 11,
            "time": 148.38499999999323,
            "value": 0.937007874015748
          },
          {
            "number": 11,
            "time": 148.41999999999322,
            "value": 0.9291338582677166
          },
          {
            "number": 11,
            "time": 148.4649999999932,
            "value": 0.9212598425196851
          },
          {
            "number": 11,
            "time": 148.4799999999932,
            "value": 0.9133858267716536
          },
          {
            "number": 11,
            "time": 148.49499999999318,
            "value": 0.905511811023622
          },
          {
            "number": 11,
            "time": 148.5149999999932,
            "value": 0.8976377952755905
          },
          {
            "number": 11,
            "time": 148.53499999999318,
            "value": 0.889763779527559
          },
          {
            "number": 11,
            "time": 148.56999999999317,
            "value": 0.8818897637795275
          },
          {
            "number": 11,
            "time": 148.57999999999316,
            "value": 0.8740157480314961
          },
          {
            "number": 11,
            "time": 148.59499999999315,
            "value": 0.8661417322834646
          },
          {
            "number": 11,
            "time": 148.62999999999315,
            "value": 0.8582677165354331
          },
          {
            "number": 11,
            "time": 148.63999999999314,
            "value": 0.8503937007874016
          },
          {
            "number": 11,
            "time": 148.65499999999312,
            "value": 0.84251968503937
          },
          {
            "number": 11,
            "time": 148.6749999999931,
            "value": 0.8346456692913385
          },
          {
            "number": 11,
            "time": 148.6899999999931,
            "value": 0.8267716535433071
          },
          {
            "number": 11,
            "time": 148.69999999999308,
            "value": 0.8188976377952756
          },
          {
            "number": 11,
            "time": 148.70499999999308,
            "value": 0.8110236220472441
          },
          {
            "number": 11,
            "time": 148.74499999999307,
            "value": 0.8031496062992126
          },
          {
            "number": 11,
            "time": 148.74999999999307,
            "value": 0.7952755905511811
          },
          {
            "number": 11,
            "time": 148.75999999999306,
            "value": 0.7874015748031497
          },
          {
            "number": 11,
            "time": 148.77499999999304,
            "value": 0.7716535433070866
          },
          {
            "number": 11,
            "time": 148.77999999999304,
            "value": 0.7637795275590551
          },
          {
            "number": 11,
            "time": 148.81499999999303,
            "value": 0.7480314960629921
          },
          {
            "number": 11,
            "time": 148.82499999999303,
            "value": 0.7401574803149606
          },
          {
            "number": 11,
            "time": 148.839999999993,
            "value": 0.7244094488188977
          },
          {
            "number": 11,
            "time": 148.874999999993,
            "value": 0.7086614173228346
          },
          {
            "number": 11,
            "time": 148.884999999993,
            "value": 0.6929133858267716
          },
          {
            "number": 11,
            "time": 148.89999999999299,
            "value": 0.6850393700787402
          },
          {
            "number": 11,
            "time": 148.90999999999298,
            "value": 0.6771653543307087
          },
          {
            "number": 11,
            "time": 148.94499999999297,
            "value": 0.6614173228346457
          },
          {
            "number": 11,
            "time": 148.95499999999296,
            "value": 0.6456692913385826
          },
          {
            "number": 11,
            "time": 148.98999999999293,
            "value": 0.6299212598425197
          },
          {
            "number": 11,
            "time": 148.99999999999292,
            "value": 0.6220472440944882
          },
          {
            "number": 11,
            "time": 149.0149999999929,
            "value": 0.6062992125984252
          },
          {
            "number": 11,
            "time": 149.0499999999929,
            "value": 0.5905511811023622
          },
          {
            "number": 11,
            "time": 149.0549999999929,
            "value": 0.5826771653543307
          },
          {
            "number": 11,
            "time": 149.0599999999929,
            "value": 0.5669291338582677
          },
          {
            "number": 11,
            "time": 149.07499999999288,
            "value": 0.5590551181102362
          },
          {
            "number": 11,
            "time": 149.08499999999287,
            "value": 0.5433070866141733
          },
          {
            "number": 11,
            "time": 149.09499999999287,
            "value": 0.5275590551181102
          },
          {
            "number": 11,
            "time": 149.10499999999286,
            "value": 0.5118110236220472
          },
          {
            "number": 11,
            "time": 149.13999999999285,
            "value": 0.4645669291338583
          },
          {
            "number": 11,
            "time": 149.14999999999284,
            "value": 0.44881889763779526
          },
          {
            "number": 11,
            "time": 149.18499999999284,
            "value": 0.4015748031496063
          },
          {
            "number": 11,
            "time": 149.19999999999283,
            "value": 0.3858267716535433
          },
          {
            "number": 11,
            "time": 149.20999999999282,
            "value": 0.33858267716535434
          },
          {
            "number": 11,
            "time": 149.2599999999928,
            "value": 0.29133858267716534
          },
          {
            "number": 11,
            "time": 149.2699999999928,
            "value": 0.2440944881889764
          },
          {
            "number": 11,
            "time": 149.3049999999928,
            "value": 0.1968503937007874
          },
          {
            "number": 11,
            "time": 149.34499999999278,
            "value": 0.14960629921259844
          },
          {
            "number": 11,
            "time": 149.35499999999277,
            "value": 0.13385826771653545
          },
          {
            "number": 11,
            "time": 149.36499999999276,
            "value": 0.07086614173228346
          },
          {
            "number": 11,
            "time": 149.40499999999275,
            "value": 0.023622047244094488
          },
          {
            "number": 11,
            "time": 149.41499999999274,
            "value": 0
          },
          {
            "number": 11,
            "time": 149.47999999999274,
            "value": 0.9921259842519685
          },
          {
            "number": 11,
            "time": 149.49499999999273,
            "value": 1
          },
          {
            "number": 11,
            "time": 150.0199999999927,
            "value": 0.9921259842519685
          },
          {
            "number": 11,
            "time": 150.03999999999272,
            "value": 0.9763779527559056
          },
          {
            "number": 11,
            "time": 150.0499999999927,
            "value": 0.9606299212598425
          },
          {
            "number": 11,
            "time": 150.0549999999927,
            "value": 0.9448818897637795
          },
          {
            "number": 11,
            "time": 150.0649999999927,
            "value": 0.9291338582677166
          },
          {
            "number": 11,
            "time": 150.0699999999927,
            "value": 0.9133858267716536
          },
          {
            "number": 11,
            "time": 150.07999999999268,
            "value": 0.8976377952755905
          },
          {
            "number": 11,
            "time": 150.08499999999268,
            "value": 0.8818897637795275
          },
          {
            "number": 11,
            "time": 150.09499999999267,
            "value": 0.8740157480314961
          },
          {
            "number": 11,
            "time": 150.09999999999266,
            "value": 0.8503937007874016
          },
          {
            "number": 11,
            "time": 150.10999999999265,
            "value": 0.8110236220472441
          },
          {
            "number": 11,
            "time": 150.11499999999265,
            "value": 0.7795275590551181
          },
          {
            "number": 11,
            "time": 150.12999999999263,
            "value": 0.7165354330708661
          },
          {
            "number": 11,
            "time": 150.13999999999263,
            "value": 0.6692913385826772
          },
          {
            "number": 11,
            "time": 150.14499999999262,
            "value": 0.6062992125984252
          },
          {
            "number": 11,
            "time": 150.1599999999926,
            "value": 0.5433070866141733
          },
          {
            "number": 11,
            "time": 150.1699999999926,
            "value": 0.49606299212598426
          },
          {
            "number": 11,
            "time": 150.1749999999926,
            "value": 0.4645669291338583
          },
          {
            "number": 11,
            "time": 150.18999999999258,
            "value": 0.4015748031496063
          },
          {
            "number": 11,
            "time": 150.3049999999926,
            "value": 1
          },
          {
            "number": 11,
            "time": 150.59499999999258,
            "value": 1
          },
          {
            "number": 11,
            "time": 150.63499999999257,
            "value": 0.9921259842519685
          },
          {
            "number": 11,
            "time": 150.64999999999256,
            "value": 0.984251968503937
          },
          {
            "number": 11,
            "time": 150.66499999999255,
            "value": 0.9763779527559056
          },
          {
            "number": 11,
            "time": 150.67999999999253,
            "value": 0.9606299212598425
          },
          {
            "number": 11,
            "time": 150.69499999999252,
            "value": 0.952755905511811
          },
          {
            "number": 11,
            "time": 150.6999999999925,
            "value": 0.937007874015748
          },
          {
            "number": 11,
            "time": 150.7099999999925,
            "value": 0.9291338582677166
          },
          {
            "number": 11,
            "time": 150.7149999999925,
            "value": 0.9212598425196851
          },
          {
            "number": 11,
            "time": 150.7249999999925,
            "value": 0.9133858267716536
          },
          {
            "number": 11,
            "time": 150.7299999999925,
            "value": 0.8976377952755905
          },
          {
            "number": 11,
            "time": 150.73999999999248,
            "value": 0.889763779527559
          },
          {
            "number": 11,
            "time": 150.74499999999247,
            "value": 0.8818897637795275
          },
          {
            "number": 11,
            "time": 150.75499999999246,
            "value": 0.8582677165354331
          },
          {
            "number": 11,
            "time": 150.75999999999246,
            "value": 0.8346456692913385
          },
          {
            "number": 11,
            "time": 150.76999999999245,
            "value": 0.8267716535433071
          },
          {
            "number": 11,
            "time": 150.77499999999245,
            "value": 0.8188976377952756
          },
          {
            "number": 11,
            "time": 150.78499999999244,
            "value": 0.8031496062992126
          },
          {
            "number": 11,
            "time": 150.78999999999243,
            "value": 0.7795275590551181
          },
          {
            "number": 11,
            "time": 150.79999999999242,
            "value": 0.7637795275590551
          },
          {
            "number": 11,
            "time": 150.80499999999242,
            "value": 0.7480314960629921
          },
          {
            "number": 11,
            "time": 150.8149999999924,
            "value": 0.7086614173228346
          },
          {
            "number": 11,
            "time": 150.8199999999924,
            "value": 0.6141732283464567
          },
          {
            "number": 11,
            "time": 150.8299999999924,
            "value": 0.5669291338582677
          },
          {
            "number": 11,
            "time": 150.8349999999924,
            "value": 0.5511811023622047
          },
          {
            "number": 11,
            "time": 150.84499999999238,
            "value": 0.5275590551181102
          },
          {
            "number": 11,
            "time": 150.84999999999238,
            "value": 0.4566929133858268
          },
          {
            "number": 11,
            "time": 150.90499999999238,
            "value": 1
          },
          {
            "number": 11,
            "time": 151.5049999999922,
            "value": 0.9921259842519685
          },
          {
            "number": 11,
            "time": 151.52499999999222,
            "value": 0.984251968503937
          },
          {
            "number": 11,
            "time": 151.5399999999922,
            "value": 0.9763779527559056
          },
          {
            "number": 11,
            "time": 151.5499999999922,
            "value": 0.9606299212598425
          },
          {
            "number": 11,
            "time": 151.5549999999922,
            "value": 0.952755905511811
          },
          {
            "number": 11,
            "time": 151.56499999999218,
            "value": 0.9448818897637795
          },
          {
            "number": 11,
            "time": 151.56999999999218,
            "value": 0.937007874015748
          },
          {
            "number": 11,
            "time": 151.58499999999216,
            "value": 0.9212598425196851
          },
          {
            "number": 11,
            "time": 151.59499999999215,
            "value": 0.9133858267716536
          },
          {
            "number": 11,
            "time": 151.60999999999214,
            "value": 0.905511811023622
          },
          {
            "number": 11,
            "time": 151.61499999999214,
            "value": 0.889763779527559
          },
          {
            "number": 11,
            "time": 151.62499999999213,
            "value": 0.8818897637795275
          },
          {
            "number": 11,
            "time": 151.62999999999212,
            "value": 0.8740157480314961
          },
          {
            "number": 11,
            "time": 151.6399999999921,
            "value": 0.8582677165354331
          },
          {
            "number": 11,
            "time": 151.6449999999921,
            "value": 0.8503937007874016
          },
          {
            "number": 11,
            "time": 151.6549999999921,
            "value": 0.8267716535433071
          },
          {
            "number": 11,
            "time": 151.6699999999921,
            "value": 0.8110236220472441
          },
          {
            "number": 11,
            "time": 151.67499999999208,
            "value": 0.7952755905511811
          },
          {
            "number": 11,
            "time": 151.68999999999207,
            "value": 0.7874015748031497
          },
          {
            "number": 11,
            "time": 151.69999999999206,
            "value": 0.7716535433070866
          },
          {
            "number": 11,
            "time": 151.70499999999205,
            "value": 0.7559055118110236
          },
          {
            "number": 11,
            "time": 151.71499999999205,
            "value": 0.7480314960629921
          },
          {
            "number": 11,
            "time": 151.71999999999204,
            "value": 0.7401574803149606
          },
          {
            "number": 11,
            "time": 151.72999999999203,
            "value": 0.7322834645669292
          },
          {
            "number": 11,
            "time": 151.73499999999203,
            "value": 0.7244094488188977
          },
          {
            "number": 11,
            "time": 151.74499999999202,
            "value": 0.7165354330708661
          },
          {
            "number": 11,
            "time": 151.749999999992,
            "value": 0.7086614173228346
          },
          {
            "number": 11,
            "time": 151.759999999992,
            "value": 0.7007874015748031
          },
          {
            "number": 11,
            "time": 151.764999999992,
            "value": 0.6929133858267716
          },
          {
            "number": 11,
            "time": 151.779999999992,
            "value": 0.6850393700787402
          },
          {
            "number": 11,
            "time": 151.78999999999198,
            "value": 0.6771653543307087
          },
          {
            "number": 11,
            "time": 151.79499999999197,
            "value": 0.6692913385826772
          },
          {
            "number": 11,
            "time": 151.80499999999196,
            "value": 0.6614173228346457
          },
          {
            "number": 11,
            "time": 151.81999999999195,
            "value": 0.9921259842519685
          },
          {
            "number": 11,
            "time": 151.82499999999195,
            "value": 0.984251968503937
          },
          {
            "number": 11,
            "time": 151.83999999999193,
            "value": 0.9763779527559056
          },
          {
            "number": 11,
            "time": 151.84999999999192,
            "value": 0.968503937007874
          },
          {
            "number": 11,
            "time": 151.85499999999192,
            "value": 0.9606299212598425
          },
          {
            "number": 11,
            "time": 151.8649999999919,
            "value": 0.952755905511811
          },
          {
            "number": 11,
            "time": 151.8699999999919,
            "value": 0.9448818897637795
          },
          {
            "number": 11,
            "time": 151.8799999999919,
            "value": 0.937007874015748
          },
          {
            "number": 11,
            "time": 151.8849999999919,
            "value": 0.9291338582677166
          },
          {
            "number": 11,
            "time": 151.89499999999188,
            "value": 0.9212598425196851
          },
          {
            "number": 11,
            "time": 151.89999999999188,
            "value": 0.905511811023622
          },
          {
            "number": 11,
            "time": 151.90999999999187,
            "value": 0.8976377952755905
          },
          {
            "number": 11,
            "time": 151.92499999999185,
            "value": 0.889763779527559
          },
          {
            "number": 11,
            "time": 151.92999999999185,
            "value": 0.8740157480314961
          },
          {
            "number": 11,
            "time": 151.93999999999184,
            "value": 0.8661417322834646
          },
          {
            "number": 11,
            "time": 151.94499999999184,
            "value": 0.8582677165354331
          },
          {
            "number": 11,
            "time": 151.95499999999183,
            "value": 0.84251968503937
          },
          {
            "number": 11,
            "time": 151.95999999999182,
            "value": 0.8346456692913385
          },
          {
            "number": 11,
            "time": 151.9699999999918,
            "value": 0.8267716535433071
          },
          {
            "number": 11,
            "time": 151.9749999999918,
            "value": 0.8188976377952756
          },
          {
            "number": 11,
            "time": 151.9849999999918,
            "value": 0.8031496062992126
          },
          {
            "number": 11,
            "time": 151.9899999999918,
            "value": 0.7952755905511811
          },
          {
            "number": 11,
            "time": 151.9999999999918,
            "value": 0.7874015748031497
          },
          {
            "number": 11,
            "time": 152.00499999999178,
            "value": 0.7795275590551181
          },
          {
            "number": 11,
            "time": 152.01499999999177,
            "value": 0.7637795275590551
          },
          {
            "number": 11,
            "time": 152.01999999999177,
            "value": 0.7559055118110236
          },
          {
            "number": 11,
            "time": 152.02999999999176,
            "value": 0.7401574803149606
          },
          {
            "number": 11,
            "time": 152.03499999999175,
            "value": 0.7322834645669292
          },
          {
            "number": 11,
            "time": 152.04499999999175,
            "value": 0.7165354330708661
          },
          {
            "number": 11,
            "time": 152.04999999999174,
            "value": 0.7007874015748031
          },
          {
            "number": 11,
            "time": 152.05999999999173,
            "value": 0.6929133858267716
          },
          {
            "number": 11,
            "time": 152.06499999999173,
            "value": 0.6771653543307087
          },
          {
            "number": 11,
            "time": 152.07499999999172,
            "value": 0.6692913385826772
          },
          {
            "number": 11,
            "time": 152.0799999999917,
            "value": 0.6614173228346457
          },
          {
            "number": 11,
            "time": 152.0899999999917,
            "value": 0.6850393700787402
          },
          {
            "number": 11,
            "time": 152.0949999999917,
            "value": 0.7952755905511811
          },
          {
            "number": 11,
            "time": 152.1049999999917,
            "value": 0.968503937007874
          },
          {
            "number": 11,
            "time": 152.1099999999917,
            "value": 1
          },
          {
            "number": 11,
            "time": 153.4049999999915,
            "value": 0.9921259842519685
          },
          {
            "number": 11,
            "time": 153.4199999999915,
            "value": 0.984251968503937
          },
          {
            "number": 11,
            "time": 153.4499999999915,
            "value": 0.9763779527559056
          },
          {
            "number": 11,
            "time": 153.4749999999915,
            "value": 0.968503937007874
          },
          {
            "number": 11,
            "time": 153.48999999999148,
            "value": 0.9606299212598425
          },
          {
            "number": 11,
            "time": 153.49499999999148,
            "value": 0.952755905511811
          },
          {
            "number": 11,
            "time": 153.51999999999148,
            "value": 0.9448818897637795
          },
          {
            "number": 11,
            "time": 153.53499999999147,
            "value": 0.937007874015748
          },
          {
            "number": 11,
            "time": 153.54999999999146,
            "value": 0.9291338582677166
          },
          {
            "number": 11,
            "time": 153.55499999999145,
            "value": 0.9212598425196851
          },
          {
            "number": 11,
            "time": 153.56499999999144,
            "value": 0.9133858267716536
          },
          {
            "number": 11,
            "time": 153.57999999999143,
            "value": 0.905511811023622
          },
          {
            "number": 11,
            "time": 153.58499999999142,
            "value": 0.8976377952755905
          },
          {
            "number": 11,
            "time": 153.59499999999142,
            "value": 0.889763779527559
          },
          {
            "number": 11,
            "time": 153.5999999999914,
            "value": 0.8818897637795275
          },
          {
            "number": 11,
            "time": 153.5999999999914,
            "value": 0.8346456692913385
          },
          {
            "number": 11,
            "time": 153.6049999999914,
            "value": 0.9921259842519685
          },
          {
            "number": 11,
            "time": 153.6149999999914,
            "value": 0.8740157480314961
          },
          {
            "number": 11,
            "time": 153.6149999999914,
            "value": 0.984251968503937
          },
          {
            "number": 11,
            "time": 153.6149999999914,
            "value": 0.8267716535433071
          },
          {
            "number": 11,
            "time": 153.6199999999914,
            "value": 0.9763779527559056
          },
          {
            "number": 11,
            "time": 153.62999999999138,
            "value": 0.8582677165354331
          },
          {
            "number": 11,
            "time": 153.63499999999138,
            "value": 0.968503937007874
          },
          {
            "number": 11,
            "time": 153.63999999999137,
            "value": 0.9606299212598425
          },
          {
            "number": 11,
            "time": 153.64499999999137,
            "value": 0.8503937007874016
          },
          {
            "number": 11,
            "time": 153.64999999999137,
            "value": 0.8110236220472441
          },
          {
            "number": 11,
            "time": 153.64999999999137,
            "value": 0.952755905511811
          },
          {
            "number": 11,
            "time": 153.65499999999136,
            "value": 0.9448818897637795
          },
          {
            "number": 11,
            "time": 153.65499999999136,
            "value": 0.84251968503937
          },
          {
            "number": 11,
            "time": 153.66499999999135,
            "value": 0.937007874015748
          },
          {
            "number": 11,
            "time": 153.66999999999135,
            "value": 0.8346456692913385
          },
          {
            "number": 11,
            "time": 153.67499999999134,
            "value": 0.8267716535433071
          },
          {
            "number": 11,
            "time": 153.67499999999134,
            "value": 0.9291338582677166
          },
          {
            "number": 11,
            "time": 153.68499999999133,
            "value": 0.9212598425196851
          },
          {
            "number": 11,
            "time": 153.68499999999133,
            "value": 0.8188976377952756
          },
          {
            "number": 11,
            "time": 153.68999999999133,
            "value": 0.8110236220472441
          },
          {
            "number": 11,
            "time": 153.69499999999132,
            "value": 0.9133858267716536
          },
          {
            "number": 11,
            "time": 153.69999999999132,
            "value": 0.8031496062992126
          },
          {
            "number": 11,
            "time": 153.69999999999132,
            "value": 0.8031496062992126
          },
          {
            "number": 11,
            "time": 153.70499999999132,
            "value": 0.7952755905511811
          },
          {
            "number": 11,
            "time": 153.7149999999913,
            "value": 0.7874015748031497
          },
          {
            "number": 11,
            "time": 153.7299999999913,
            "value": 0.7795275590551181
          },
          {
            "number": 11,
            "time": 153.7299999999913,
            "value": 0.8976377952755905
          },
          {
            "number": 11,
            "time": 153.7349999999913,
            "value": 0.889763779527559
          },
          {
            "number": 11,
            "time": 153.7349999999913,
            "value": 0.7874015748031497
          },
          {
            "number": 11,
            "time": 153.74499999999128,
            "value": 0.8818897637795275
          },
          {
            "number": 11,
            "time": 153.74499999999128,
            "value": 0.7637795275590551
          },
          {
            "number": 11,
            "time": 153.74999999999127,
            "value": 0.7559055118110236
          },
          {
            "number": 11,
            "time": 153.75999999999127,
            "value": 0.8661417322834646
          },
          {
            "number": 11,
            "time": 153.76499999999126,
            "value": 0.7480314960629921
          },
          {
            "number": 11,
            "time": 153.76999999999126,
            "value": 0.8503937007874016
          },
          {
            "number": 11,
            "time": 153.77499999999125,
            "value": 0.7401574803149606
          },
          {
            "number": 11,
            "time": 153.77999999999125,
            "value": 0.7795275590551181
          },
          {
            "number": 11,
            "time": 153.78499999999124,
            "value": 0.84251968503937
          },
          {
            "number": 11,
            "time": 153.78999999999124,
            "value": 0.7322834645669292
          },
          {
            "number": 11,
            "time": 153.79499999999123,
            "value": 0.7244094488188977
          },
          {
            "number": 11,
            "time": 153.79999999999123,
            "value": 0.7716535433070866
          },
          {
            "number": 11,
            "time": 153.80499999999122,
            "value": 0.7165354330708661
          },
          {
            "number": 11,
            "time": 153.80499999999122,
            "value": 0.7559055118110236
          },
          {
            "number": 11,
            "time": 153.8199999999912,
            "value": 0.8267716535433071
          },
          {
            "number": 11,
            "time": 153.8199999999912,
            "value": 0.7007874015748031
          },
          {
            "number": 11,
            "time": 153.8249999999912,
            "value": 0.6929133858267716
          },
          {
            "number": 11,
            "time": 153.8249999999912,
            "value": 0.7480314960629921
          },
          {
            "number": 11,
            "time": 153.8349999999912,
            "value": 0.7007874015748031
          },
          {
            "number": 11,
            "time": 153.8349999999912,
            "value": 0.6850393700787402
          },
          {
            "number": 11,
            "time": 153.84999999999118,
            "value": 0.6771653543307087
          },
          {
            "number": 11,
            "time": 153.85499999999118,
            "value": 0.6614173228346457
          },
          {
            "number": 11,
            "time": 153.85499999999118,
            "value": 0.8110236220472441
          },
          {
            "number": 11,
            "time": 153.88499999999115,
            "value": 0.6850393700787402
          },
          {
            "number": 11,
            "time": 153.88999999999115,
            "value": 0.7952755905511811
          },
          {
            "number": 11,
            "time": 153.89999999999114,
            "value": 0.6535433070866141
          },
          {
            "number": 11,
            "time": 153.90499999999113,
            "value": 0.7795275590551181
          },
          {
            "number": 11,
            "time": 153.90999999999113,
            "value": 0.6377952755905512
          },
          {
            "number": 11,
            "time": 153.92499999999112,
            "value": 0.6299212598425197
          },
          {
            "number": 11,
            "time": 153.9399999999911,
            "value": 0.6220472440944882
          },
          {
            "number": 11,
            "time": 153.9449999999911,
            "value": 0.6692913385826772
          },
          {
            "number": 11,
            "time": 153.9449999999911,
            "value": 0.6062992125984252
          },
          {
            "number": 11,
            "time": 153.9499999999911,
            "value": 0.7637795275590551
          },
          {
            "number": 11,
            "time": 153.96499999999108,
            "value": 0.7480314960629921
          },
          {
            "number": 11,
            "time": 153.97499999999107,
            "value": 0.7322834645669292
          },
          {
            "number": 11,
            "time": 153.98999999999106,
            "value": 0.5905511811023622
          },
          {
            "number": 11,
            "time": 154.00499999999104,
            "value": 0.6535433070866141
          },
          {
            "number": 11,
            "time": 154.00999999999104,
            "value": 0.7165354330708661
          },
          {
            "number": 11,
            "time": 154.01499999999103,
            "value": 0.6141732283464567
          },
          {
            "number": 11,
            "time": 154.02499999999102,
            "value": 0.6692913385826772
          },
          {
            "number": 11,
            "time": 154.02999999999102,
            "value": 0.5905511811023622
          },
          {
            "number": 11,
            "time": 154.03499999999102,
            "value": 0.5433070866141733
          },
          {
            "number": 11,
            "time": 154.039999999991,
            "value": 0.5826771653543307
          },
          {
            "number": 11,
            "time": 154.044999999991,
            "value": 0.5669291338582677
          },
          {
            "number": 11,
            "time": 154.049999999991,
            "value": 0.5511811023622047
          },
          {
            "number": 11,
            "time": 154.049999999991,
            "value": 0.5275590551181102
          },
          {
            "number": 11,
            "time": 154.059999999991,
            "value": 0.6535433070866141
          },
          {
            "number": 11,
            "time": 154.064999999991,
            "value": 0.5433070866141733
          },
          {
            "number": 11,
            "time": 154.06999999999098,
            "value": 0.5354330708661418
          },
          {
            "number": 11,
            "time": 154.07499999999098,
            "value": 0.5275590551181102
          },
          {
            "number": 11,
            "time": 154.08999999999097,
            "value": 0.5196850393700787
          },
          {
            "number": 11,
            "time": 154.09499999999096,
            "value": 0.6062992125984252
          },
          {
            "number": 11,
            "time": 154.09499999999096,
            "value": 0.5039370078740157
          },
          {
            "number": 11,
            "time": 154.09499999999096,
            "value": 0.5118110236220472
          },
          {
            "number": 11,
            "time": 154.10499999999095,
            "value": 0.4881889763779528
          },
          {
            "number": 11,
            "time": 154.10999999999095,
            "value": 0.49606299212598426
          },
          {
            "number": 11,
            "time": 154.12499999999093,
            "value": 0.44881889763779526
          },
          {
            "number": 11,
            "time": 154.12999999999093,
            "value": 0.5905511811023622
          },
          {
            "number": 11,
            "time": 154.13999999999092,
            "value": 0.4409448818897638
          },
          {
            "number": 11,
            "time": 154.1499999999909,
            "value": 0.4251968503937008
          },
          {
            "number": 11,
            "time": 154.1649999999909,
            "value": 0.5511811023622047
          },
          {
            "number": 11,
            "time": 154.1699999999909,
            "value": 0.4330708661417323
          },
          {
            "number": 11,
            "time": 154.1699999999909,
            "value": 0.5039370078740157
          },
          {
            "number": 11,
            "time": 154.17999999999088,
            "value": 0.4881889763779528
          },
          {
            "number": 11,
            "time": 154.18499999999088,
            "value": 0.41732283464566927
          },
          {
            "number": 11,
            "time": 154.18499999999088,
            "value": 0.47244094488188976
          },
          {
            "number": 11,
            "time": 154.18499999999088,
            "value": 0.4094488188976378
          },
          {
            "number": 11,
            "time": 154.18999999999087,
            "value": 0.4015748031496063
          },
          {
            "number": 11,
            "time": 154.19499999999087,
            "value": 0.4566929133858268
          },
          {
            "number": 11,
            "time": 154.19499999999087,
            "value": 0.3937007874015748
          },
          {
            "number": 11,
            "time": 154.19999999999087,
            "value": 0.4409448818897638
          },
          {
            "number": 11,
            "time": 154.19999999999087,
            "value": 0.4015748031496063
          },
          {
            "number": 11,
            "time": 154.20999999999086,
            "value": 0.4251968503937008
          },
          {
            "number": 11,
            "time": 154.20999999999086,
            "value": 0.3700787401574803
          },
          {
            "number": 11,
            "time": 154.20999999999086,
            "value": 0.3858267716535433
          },
          {
            "number": 11,
            "time": 154.21499999999085,
            "value": 0.3700787401574803
          },
          {
            "number": 11,
            "time": 154.21499999999085,
            "value": 0.4094488188976378
          },
          {
            "number": 11,
            "time": 154.21999999999085,
            "value": 0.36220472440944884
          },
          {
            "number": 11,
            "time": 154.22499999999084,
            "value": 0.3464566929133858
          },
          {
            "number": 11,
            "time": 154.22499999999084,
            "value": 0.36220472440944884
          },
          {
            "number": 11,
            "time": 154.22999999999084,
            "value": 0.3937007874015748
          },
          {
            "number": 11,
            "time": 154.22999999999084,
            "value": 0.33858267716535434
          },
          {
            "number": 11,
            "time": 154.22999999999084,
            "value": 0.31496062992125984
          },
          {
            "number": 11,
            "time": 154.23499999999083,
            "value": 0.3779527559055118
          },
          {
            "number": 11,
            "time": 154.23999999999083,
            "value": 0.30708661417322836
          },
          {
            "number": 11,
            "time": 154.23999999999083,
            "value": 0.3700787401574803
          },
          {
            "number": 11,
            "time": 154.24499999999082,
            "value": 0.33070866141732286
          },
          {
            "number": 11,
            "time": 154.24499999999082,
            "value": 0.25984251968503935
          },
          {
            "number": 11,
            "time": 154.25499999999082,
            "value": 0.28346456692913385
          },
          {
            "number": 11,
            "time": 154.25499999999082,
            "value": 0.36220472440944884
          },
          {
            "number": 11,
            "time": 154.25499999999082,
            "value": 0.25196850393700787
          },
          {
            "number": 11,
            "time": 154.2599999999908,
            "value": 0.3464566929133858
          },
          {
            "number": 11,
            "time": 154.2599999999908,
            "value": 0.2047244094488189
          },
          {
            "number": 11,
            "time": 154.2649999999908,
            "value": 0.33070866141732286
          },
          {
            "number": 11,
            "time": 154.2699999999908,
            "value": 0.2677165354330709
          },
          {
            "number": 11,
            "time": 154.2699999999908,
            "value": 0.1968503937007874
          },
          {
            "number": 11,
            "time": 154.2749999999908,
            "value": 0.31496062992125984
          },
          {
            "number": 11,
            "time": 154.2749999999908,
            "value": 0.18110236220472442
          },
          {
            "number": 11,
            "time": 154.2799999999908,
            "value": 0.25196850393700787
          },
          {
            "number": 11,
            "time": 154.2849999999908,
            "value": 0.1732283464566929
          },
          {
            "number": 11,
            "time": 154.2849999999908,
            "value": 0.2440944881889764
          },
          {
            "number": 11,
            "time": 154.2849999999908,
            "value": 0.2992125984251969
          },
          {
            "number": 11,
            "time": 154.28999999999078,
            "value": 0.28346456692913385
          },
          {
            "number": 11,
            "time": 154.28999999999078,
            "value": 0.16535433070866143
          },
          {
            "number": 11,
            "time": 154.28999999999078,
            "value": 0.23622047244094488
          },
          {
            "number": 11,
            "time": 154.29999999999077,
            "value": 0.14173228346456693
          },
          {
            "number": 11,
            "time": 154.29999999999077,
            "value": 0.2283464566929134
          },
          {
            "number": 11,
            "time": 154.29999999999077,
            "value": 0.2677165354330709
          },
          {
            "number": 11,
            "time": 154.30499999999077,
            "value": 0.12598425196850394
          },
          {
            "number": 11,
            "time": 154.30499999999077,
            "value": 0.25196850393700787
          },
          {
            "number": 11,
            "time": 154.30499999999077,
            "value": 0.2204724409448819
          },
          {
            "number": 11,
            "time": 154.30999999999077,
            "value": 0.2125984251968504
          },
          {
            "number": 11,
            "time": 154.31499999999076,
            "value": 0.2047244094488189
          },
          {
            "number": 11,
            "time": 154.31499999999076,
            "value": 0.23622047244094488
          },
          {
            "number": 11,
            "time": 154.31499999999076,
            "value": 0.11023622047244094
          },
          {
            "number": 11,
            "time": 154.31999999999076,
            "value": 0.10236220472440945
          },
          {
            "number": 11,
            "time": 154.31999999999076,
            "value": 0.1968503937007874
          },
          {
            "number": 11,
            "time": 154.32999999999075,
            "value": 0.07874015748031496
          },
          {
            "number": 11,
            "time": 154.32999999999075,
            "value": 0.1889763779527559
          },
          {
            "number": 11,
            "time": 154.33499999999074,
            "value": 0.07086614173228346
          },
          {
            "number": 11,
            "time": 154.33499999999074,
            "value": 0.18110236220472442
          },
          {
            "number": 11,
            "time": 154.33999999999074,
            "value": 0.1732283464566929
          },
          {
            "number": 11,
            "time": 154.34499999999073,
            "value": 0.16535433070866143
          },
          {
            "number": 11,
            "time": 154.34999999999073,
            "value": 0.06299212598425197
          },
          {
            "number": 11,
            "time": 154.34999999999073,
            "value": 0.14960629921259844
          },
          {
            "number": 11,
            "time": 154.34999999999073,
            "value": 0.2204724409448819
          },
          {
            "number": 11,
            "time": 154.35499999999072,
            "value": 0.2047244094488189
          },
          {
            "number": 11,
            "time": 154.35999999999072,
            "value": 0.13385826771653545
          },
          {
            "number": 11,
            "time": 154.35999999999072,
            "value": 0.03937007874015748
          },
          {
            "number": 11,
            "time": 154.36499999999072,
            "value": 0.031496062992125984
          },
          {
            "number": 11,
            "time": 154.36499999999072,
            "value": 0.1889763779527559
          },
          {
            "number": 11,
            "time": 154.3699999999907,
            "value": 0.11811023622047244
          },
          {
            "number": 11,
            "time": 154.3749999999907,
            "value": 0.10236220472440945
          },
          {
            "number": 11,
            "time": 154.3749999999907,
            "value": 0.18110236220472442
          },
          {
            "number": 11,
            "time": 154.3749999999907,
            "value": 0.023622047244094488
          },
          {
            "number": 11,
            "time": 154.3799999999907,
            "value": 0.08661417322834646
          },
          {
            "number": 11,
            "time": 154.3799999999907,
            "value": 0.015748031496062992
          },
          {
            "number": 11,
            "time": 154.3799999999907,
            "value": 0.15748031496062992
          },
          {
            "number": 11,
            "time": 154.3899999999907,
            "value": 0.07086614173228346
          },
          {
            "number": 11,
            "time": 154.3899999999907,
            "value": 0.007874015748031496
          },
          {
            "number": 11,
            "time": 154.3949999999907,
            "value": 0.05511811023622047
          },
          {
            "number": 11,
            "time": 154.39999999999068,
            "value": 0.03937007874015748
          },
          {
            "number": 11,
            "time": 154.40499999999068,
            "value": 0.015748031496062992
          },
          {
            "number": 11,
            "time": 154.40999999999067,
            "value": 0
          },
          {
            "number": 11,
            "time": 154.41999999999067,
            "value": 1
          },
          {
            "number": 11,
            "time": 154.44999999999064,
            "value": 1
          },
          {
            "number": 11,
            "time": 154.44999999999064,
            "value": 1
          },
          {
            "number": 11,
            "time": 157.77499999999006,
            "value": 0.9921259842519685
          },
          {
            "number": 11,
            "time": 157.80499999999006,
            "value": 0.984251968503937
          },
          {
            "number": 11,
            "time": 157.81499999999005,
            "value": 0.9763779527559056
          },
          {
            "number": 11,
            "time": 157.82499999999004,
            "value": 0.968503937007874
          },
          {
            "number": 11,
            "time": 157.87499999999002,
            "value": 0.9606299212598425
          },
          {
            "number": 11,
            "time": 157.90999999999002,
            "value": 0.952755905511811
          },
          {
            "number": 11,
            "time": 157.94499999999002,
            "value": 0.9448818897637795
          },
          {
            "number": 11,
            "time": 157.98499999999,
            "value": 0.937007874015748
          },
          {
            "number": 11,
            "time": 158.01999999999,
            "value": 0.9291338582677166
          },
          {
            "number": 11,
            "time": 158.06499999999,
            "value": 0.9212598425196851
          },
          {
            "number": 11,
            "time": 158.07999999998998,
            "value": 0.9133858267716536
          },
          {
            "number": 11,
            "time": 158.09499999998997,
            "value": 0.905511811023622
          },
          {
            "number": 11,
            "time": 158.11499999998998,
            "value": 0.8976377952755905
          },
          {
            "number": 11,
            "time": 158.13499999998996,
            "value": 0.889763779527559
          },
          {
            "number": 11,
            "time": 158.16999999998995,
            "value": 0.8818897637795275
          },
          {
            "number": 11,
            "time": 158.17999999998995,
            "value": 0.8740157480314961
          },
          {
            "number": 11,
            "time": 158.19499999998993,
            "value": 0.8661417322834646
          },
          {
            "number": 11,
            "time": 158.22999999998993,
            "value": 0.8582677165354331
          },
          {
            "number": 11,
            "time": 158.23999999998992,
            "value": 0.8503937007874016
          },
          {
            "number": 11,
            "time": 158.2549999999899,
            "value": 0.84251968503937
          },
          {
            "number": 11,
            "time": 158.2749999999899,
            "value": 0.8346456692913385
          },
          {
            "number": 11,
            "time": 158.28999999998987,
            "value": 0.8267716535433071
          },
          {
            "number": 11,
            "time": 158.29999999998986,
            "value": 0.8188976377952756
          },
          {
            "number": 11,
            "time": 158.30499999998986,
            "value": 0.8110236220472441
          },
          {
            "number": 11,
            "time": 158.34499999998985,
            "value": 0.8031496062992126
          },
          {
            "number": 11,
            "time": 158.34999999998985,
            "value": 0.7952755905511811
          },
          {
            "number": 11,
            "time": 158.35999999998984,
            "value": 0.7874015748031497
          },
          {
            "number": 11,
            "time": 158.37499999998983,
            "value": 0.7716535433070866
          },
          {
            "number": 11,
            "time": 158.37999999998982,
            "value": 0.7637795275590551
          },
          {
            "number": 11,
            "time": 158.41499999998982,
            "value": 0.7480314960629921
          },
          {
            "number": 11,
            "time": 158.4249999999898,
            "value": 0.7401574803149606
          },
          {
            "number": 11,
            "time": 158.4399999999898,
            "value": 0.7244094488188977
          },
          {
            "number": 11,
            "time": 158.4749999999898,
            "value": 0.7086614173228346
          },
          {
            "number": 11,
            "time": 158.48499999998978,
            "value": 0.6929133858267716
          },
          {
            "number": 11,
            "time": 158.49999999998977,
            "value": 0.6850393700787402
          },
          {
            "number": 11,
            "time": 158.50999999998976,
            "value": 0.6771653543307087
          },
          {
            "number": 11,
            "time": 158.54499999998976,
            "value": 0.6614173228346457
          },
          {
            "number": 11,
            "time": 158.55499999998975,
            "value": 0.6456692913385826
          },
          {
            "number": 11,
            "time": 158.58999999998971,
            "value": 0.6299212598425197
          },
          {
            "number": 11,
            "time": 158.5999999999897,
            "value": 0.6220472440944882
          },
          {
            "number": 11,
            "time": 158.6149999999897,
            "value": 0.6062992125984252
          },
          {
            "number": 11,
            "time": 158.6499999999897,
            "value": 0.5905511811023622
          },
          {
            "number": 11,
            "time": 158.65499999998968,
            "value": 0.5826771653543307
          },
          {
            "number": 11,
            "time": 158.65999999998968,
            "value": 0.5669291338582677
          },
          {
            "number": 11,
            "time": 158.67499999998967,
            "value": 0.5590551181102362
          },
          {
            "number": 11,
            "time": 158.68499999998966,
            "value": 0.5433070866141733
          },
          {
            "number": 11,
            "time": 158.69499999998965,
            "value": 0.5275590551181102
          },
          {
            "number": 11,
            "time": 158.70499999998964,
            "value": 0.5118110236220472
          },
          {
            "number": 11,
            "time": 158.73999999998964,
            "value": 0.4645669291338583
          },
          {
            "number": 11,
            "time": 158.74999999998963,
            "value": 0.44881889763779526
          },
          {
            "number": 11,
            "time": 158.78499999998962,
            "value": 0.4015748031496063
          },
          {
            "number": 11,
            "time": 158.7999999999896,
            "value": 0.3858267716535433
          },
          {
            "number": 11,
            "time": 158.8099999999896,
            "value": 0.33858267716535434
          },
          {
            "number": 11,
            "time": 158.85999999998958,
            "value": 0.29133858267716534
          },
          {
            "number": 11,
            "time": 158.86999999998957,
            "value": 0.2440944881889764
          },
          {
            "number": 11,
            "time": 158.90499999998957,
            "value": 0.1968503937007874
          },
          {
            "number": 11,
            "time": 158.94499999998956,
            "value": 0.14960629921259844
          },
          {
            "number": 11,
            "time": 158.95499999998955,
            "value": 0.13385826771653545
          },
          {
            "number": 11,
            "time": 158.96499999998954,
            "value": 0.07086614173228346
          },
          {
            "number": 11,
            "time": 159.00499999998954,
            "value": 0.023622047244094488
          },
          {
            "number": 11,
            "time": 159.01499999998953,
            "value": 0
          },
          {
            "number": 11,
            "time": 159.07999999998952,
            "value": 0.9921259842519685
          },
          {
            "number": 11,
            "time": 159.0949999999895,
            "value": 1
          },
          {
            "number": 11,
            "time": 163.20999999998878,
            "value": 0.9921259842519685
          },
          {
            "number": 11,
            "time": 163.21999999998877,
            "value": 0.984251968503937
          },
          {
            "number": 11,
            "time": 163.25499999998877,
            "value": 0.968503937007874
          },
          {
            "number": 11,
            "time": 163.31499999998874,
            "value": 0.905511811023622
          },
          {
            "number": 11,
            "time": 163.39999999998875,
            "value": 0.8582677165354331
          },
          {
            "number": 11,
            "time": 163.49499999998872,
            "value": 0.7952755905511811
          },
          {
            "number": 11,
            "time": 163.6049999999887,
            "value": 0.7480314960629921
          },
          {
            "number": 11,
            "time": 163.6999999999887,
            "value": 0.6850393700787402
          },
          {
            "number": 11,
            "time": 163.8199999999887,
            "value": 0.6220472440944882
          },
          {
            "number": 11,
            "time": 163.9149999999887,
            "value": 0.5748031496062992
          },
          {
            "number": 11,
            "time": 163.9749999999887,
            "value": 0.5275590551181102
          },
          {
            "number": 11,
            "time": 164.0249999999887,
            "value": 0.5118110236220472
          },
          {
            "number": 11,
            "time": 164.07499999998868,
            "value": 0.49606299212598426
          },
          {
            "number": 11,
            "time": 164.07999999998867,
            "value": 0.48031496062992124
          },
          {
            "number": 11,
            "time": 164.11499999998864,
            "value": 0.4645669291338583
          },
          {
            "number": 11,
            "time": 164.11999999998864,
            "value": 0.4566929133858268
          },
          {
            "number": 11,
            "time": 164.13499999998862,
            "value": 0.4094488188976378
          },
          {
            "number": 11,
            "time": 164.13999999998862,
            "value": 0.4015748031496063
          },
          {
            "number": 11,
            "time": 164.1449999999886,
            "value": 0.3937007874015748
          },
          {
            "number": 11,
            "time": 164.1549999999886,
            "value": 0.3779527559055118
          },
          {
            "number": 11,
            "time": 164.1699999999886,
            "value": 0.36220472440944884
          },
          {
            "number": 11,
            "time": 164.17999999998858,
            "value": 0.3464566929133858
          },
          {
            "number": 11,
            "time": 164.18499999998858,
            "value": 0.2992125984251969
          },
          {
            "number": 11,
            "time": 164.22499999998854,
            "value": 0.28346456692913385
          },
          {
            "number": 11,
            "time": 164.22999999998854,
            "value": 0.23622047244094488
          },
          {
            "number": 11,
            "time": 164.26499999998853,
            "value": 0.2204724409448819
          },
          {
            "number": 11,
            "time": 164.27499999998852,
            "value": 0.2047244094488189
          },
          {
            "number": 11,
            "time": 164.2899999999885,
            "value": 0.1889763779527559
          },
          {
            "number": 11,
            "time": 164.2949999999885,
            "value": 0.1732283464566929
          },
          {
            "number": 11,
            "time": 164.2999999999885,
            "value": 0.16535433070866143
          },
          {
            "number": 11,
            "time": 164.3149999999885,
            "value": 0.14960629921259844
          },
          {
            "number": 11,
            "time": 164.31999999998848,
            "value": 0.14173228346456693
          },
          {
            "number": 11,
            "time": 164.32499999998848,
            "value": 0.12598425196850394
          },
          {
            "number": 11,
            "time": 164.33499999998847,
            "value": 0.11811023622047244
          },
          {
            "number": 11,
            "time": 164.34499999998846,
            "value": 0.10236220472440945
          },
          {
            "number": 11,
            "time": 164.46499999998846,
            "value": 1
          },
          {
            "number": 11,
            "time": 165.90499999998846,
            "value": 0.9921259842519685
          },
          {
            "number": 11,
            "time": 165.9649999999884,
            "value": 0.984251968503937
          },
          {
            "number": 11,
            "time": 166.02999999998835,
            "value": 0.9763779527559056
          },
          {
            "number": 11,
            "time": 166.04999999998833,
            "value": 0.968503937007874
          },
          {
            "number": 11,
            "time": 166.05999999998832,
            "value": 0.9606299212598425
          },
          {
            "number": 11,
            "time": 166.0749999999883,
            "value": 0.952755905511811
          },
          {
            "number": 11,
            "time": 166.0899999999883,
            "value": 0.9448818897637795
          },
          {
            "number": 11,
            "time": 166.10499999998828,
            "value": 0.937007874015748
          },
          {
            "number": 11,
            "time": 166.10999999998828,
            "value": 0.9291338582677166
          },
          {
            "number": 11,
            "time": 166.11499999998827,
            "value": 0.9212598425196851
          },
          {
            "number": 11,
            "time": 166.12999999998826,
            "value": 0.9133858267716536
          },
          {
            "number": 11,
            "time": 166.13499999998825,
            "value": 0.905511811023622
          },
          {
            "number": 11,
            "time": 166.13999999998825,
            "value": 0.8976377952755905
          },
          {
            "number": 11,
            "time": 166.14499999998824,
            "value": 0.889763779527559
          },
          {
            "number": 11,
            "time": 166.14999999998824,
            "value": 0.8818897637795275
          },
          {
            "number": 11,
            "time": 166.15999999998823,
            "value": 0.8661417322834646
          },
          {
            "number": 11,
            "time": 166.16499999998823,
            "value": 0.84251968503937
          },
          {
            "number": 11,
            "time": 166.16999999998822,
            "value": 0.8267716535433071
          },
          {
            "number": 11,
            "time": 166.17499999998822,
            "value": 0.8188976377952756
          },
          {
            "number": 11,
            "time": 166.1799999999882,
            "value": 0.8031496062992126
          },
          {
            "number": 11,
            "time": 166.1899999999882,
            "value": 0.7874015748031497
          },
          {
            "number": 11,
            "time": 166.1949999999882,
            "value": 0.7716535433070866
          },
          {
            "number": 11,
            "time": 166.2049999999882,
            "value": 0.8503937007874016
          },
          {
            "number": 11,
            "time": 166.20999999998818,
            "value": 1
          },
          {
            "number": 11,
            "time": 168.28999999998788,
            "value": 0.9921259842519685
          },
          {
            "number": 11,
            "time": 168.29999999998788,
            "value": 0.984251968503937
          },
          {
            "number": 11,
            "time": 168.30499999998787,
            "value": 0.9763779527559056
          },
          {
            "number": 11,
            "time": 168.32499999998785,
            "value": 0.968503937007874
          },
          {
            "number": 11,
            "time": 168.32999999998785,
            "value": 0.952755905511811
          },
          {
            "number": 11,
            "time": 168.33499999998784,
            "value": 0.9448818897637795
          },
          {
            "number": 11,
            "time": 168.33999999998784,
            "value": 0.937007874015748
          },
          {
            "number": 11,
            "time": 168.35499999998783,
            "value": 0.9212598425196851
          },
          {
            "number": 11,
            "time": 168.38999999998782,
            "value": 0.8740157480314961
          },
          {
            "number": 11,
            "time": 168.43999999998778,
            "value": 0.8582677165354331
          },
          {
            "number": 11,
            "time": 168.47499999998777,
            "value": 0.8110236220472441
          },
          {
            "number": 11,
            "time": 168.51999999998776,
            "value": 0.7952755905511811
          },
          {
            "number": 11,
            "time": 168.53499999998775,
            "value": 0.7795275590551181
          },
          {
            "number": 11,
            "time": 168.56999999998774,
            "value": 0.7716535433070866
          },
          {
            "number": 11,
            "time": 168.57999999998773,
            "value": 0.7637795275590551
          },
          {
            "number": 11,
            "time": 168.6199999999877,
            "value": 0.7480314960629921
          },
          {
            "number": 11,
            "time": 168.65499999998767,
            "value": 0.7401574803149606
          },
          {
            "number": 11,
            "time": 168.66499999998766,
            "value": 0.7322834645669292
          },
          {
            "number": 11,
            "time": 168.69999999998763,
            "value": 0.7165354330708661
          },
          {
            "number": 11,
            "time": 168.70999999998762,
            "value": 0.7007874015748031
          },
          {
            "number": 11,
            "time": 168.74499999998758,
            "value": 0.6850393700787402
          },
          {
            "number": 11,
            "time": 168.74999999998758,
            "value": 0.6771653543307087
          },
          {
            "number": 11,
            "time": 168.75999999998757,
            "value": 0.6692913385826772
          },
          {
            "number": 11,
            "time": 168.76999999998756,
            "value": 0.6535433070866141
          },
          {
            "number": 11,
            "time": 168.77499999998756,
            "value": 0.6456692913385826
          },
          {
            "number": 11,
            "time": 168.78499999998755,
            "value": 0.6377952755905512
          },
          {
            "number": 11,
            "time": 168.78999999998754,
            "value": 0.6220472440944882
          },
          {
            "number": 11,
            "time": 168.79999999998753,
            "value": 0.6062992125984252
          },
          {
            "number": 11,
            "time": 168.80499999998753,
            "value": 0.5905511811023622
          },
          {
            "number": 11,
            "time": 168.80999999998753,
            "value": 0.5748031496062992
          },
          {
            "number": 11,
            "time": 168.81499999998752,
            "value": 0.5590551181102362
          },
          {
            "number": 11,
            "time": 168.81999999998752,
            "value": 0.5433070866141733
          },
          {
            "number": 11,
            "time": 168.8349999999875,
            "value": 0.5275590551181102
          },
          {
            "number": 11,
            "time": 168.8449999999875,
            "value": 0.48031496062992124
          },
          {
            "number": 11,
            "time": 168.85999999998748,
            "value": 0.4645669291338583
          },
          {
            "number": 11,
            "time": 168.86499999998748,
            "value": 0.4409448818897638
          },
          {
            "number": 11,
            "time": 168.86999999998747,
            "value": 0.4251968503937008
          },
          {
            "number": 11,
            "time": 168.87499999998747,
            "value": 0.4094488188976378
          },
          {
            "number": 11,
            "time": 168.88999999998745,
            "value": 0.3779527559055118
          },
          {
            "number": 11,
            "time": 168.89999999998744,
            "value": 0.3700787401574803
          },
          {
            "number": 11,
            "time": 168.90499999998744,
            "value": 0.3543307086614173
          },
          {
            "number": 11,
            "time": 169.01499999998745,
            "value": 1
          },
          {
            "number": 11,
            "time": 169.01999999998745,
            "value": 0.9921259842519685
          },
          {
            "number": 11,
            "time": 191.99499999998707,
            "value": 0.984251968503937
          },
          {
            "number": 11,
            "time": 192.00499999998706,
            "value": 0.9921259842519685
          },
          {
            "number": 11,
            "time": 192.23499999998694,
            "value": 0.984251968503937
          },
          {
            "number": 11,
            "time": 192.2799999999869,
            "value": 0.9763779527559056
          },
          {
            "number": 11,
            "time": 192.36499999998682,
            "value": 0.968503937007874
          },
          {
            "number": 11,
            "time": 192.41499999998678,
            "value": 0.9606299212598425
          },
          {
            "number": 11,
            "time": 192.41999999998677,
            "value": 0.952755905511811
          },
          {
            "number": 11,
            "time": 192.42999999998676,
            "value": 0.9448818897637795
          },
          {
            "number": 11,
            "time": 192.44499999998675,
            "value": 0.937007874015748
          },
          {
            "number": 11,
            "time": 192.45499999998674,
            "value": 0.9291338582677166
          },
          {
            "number": 11,
            "time": 192.46999999998673,
            "value": 0.9212598425196851
          },
          {
            "number": 11,
            "time": 192.5149999999867,
            "value": 0.9133858267716536
          },
          {
            "number": 11,
            "time": 192.5299999999867,
            "value": 0.905511811023622
          },
          {
            "number": 11,
            "time": 192.56499999998667,
            "value": 0.8976377952755905
          },
          {
            "number": 11,
            "time": 192.59999999998666,
            "value": 0.8818897637795275
          },
          {
            "number": 11,
            "time": 192.63499999998663,
            "value": 0.8740157480314961
          },
          {
            "number": 11,
            "time": 192.64999999998662,
            "value": 0.8661417322834646
          },
          {
            "number": 11,
            "time": 192.68499999998662,
            "value": 0.8503937007874016
          },
          {
            "number": 11,
            "time": 192.6899999999866,
            "value": 0.84251968503937
          },
          {
            "number": 11,
            "time": 192.72499999998658,
            "value": 0.8346456692913385
          },
          {
            "number": 11,
            "time": 192.72999999998657,
            "value": 0.8188976377952756
          },
          {
            "number": 11,
            "time": 192.74499999998656,
            "value": 0.8110236220472441
          },
          {
            "number": 11,
            "time": 192.74999999998656,
            "value": 0.8031496062992126
          },
          {
            "number": 11,
            "time": 192.75999999998655,
            "value": 0.7874015748031497
          },
          {
            "number": 11,
            "time": 192.77499999998653,
            "value": 0.7795275590551181
          },
          {
            "number": 11,
            "time": 192.77999999998653,
            "value": 0.7716535433070866
          },
          {
            "number": 11,
            "time": 192.78999999998652,
            "value": 0.7559055118110236
          },
          {
            "number": 11,
            "time": 192.7999999999865,
            "value": 0.7480314960629921
          },
          {
            "number": 11,
            "time": 192.8099999999865,
            "value": 0.7401574803149606
          },
          {
            "number": 11,
            "time": 192.8199999999865,
            "value": 0.7244094488188977
          },
          {
            "number": 11,
            "time": 192.82999999998648,
            "value": 0.7165354330708661
          },
          {
            "number": 11,
            "time": 192.83999999998647,
            "value": 0.7007874015748031
          },
          {
            "number": 11,
            "time": 192.84499999998647,
            "value": 0.6850393700787402
          },
          {
            "number": 11,
            "time": 192.85999999998646,
            "value": 0.6771653543307087
          },
          {
            "number": 11,
            "time": 192.86499999998645,
            "value": 0.6614173228346457
          },
          {
            "number": 11,
            "time": 192.87499999998644,
            "value": 0.6456692913385826
          },
          {
            "number": 11,
            "time": 192.88999999998643,
            "value": 0.5984251968503937
          },
          {
            "number": 11,
            "time": 192.89499999998642,
            "value": 0.5905511811023622
          },
          {
            "number": 11,
            "time": 192.90499999998642,
            "value": 0.5748031496062992
          },
          {
            "number": 11,
            "time": 192.9199999999864,
            "value": 0.5590551181102362
          },
          {
            "number": 11,
            "time": 192.9249999999864,
            "value": 0.5433070866141733
          },
          {
            "number": 11,
            "time": 192.9349999999864,
            "value": 0.5275590551181102
          },
          {
            "number": 11,
            "time": 192.93999999998638,
            "value": 0.5118110236220472
          },
          {
            "number": 11,
            "time": 192.95499999998637,
            "value": 0.49606299212598426
          },
          {
            "number": 11,
            "time": 192.96499999998636,
            "value": 0.4409448818897638
          },
          {
            "number": 11,
            "time": 192.97999999998635,
            "value": 0.3937007874015748
          },
          {
            "number": 11,
            "time": 192.98499999998634,
            "value": 0.3779527559055118
          },
          {
            "number": 11,
            "time": 192.98999999998634,
            "value": 0.33070866141732286
          },
          {
            "number": 11,
            "time": 192.99999999998633,
            "value": 0.31496062992125984
          },
          {
            "number": 11,
            "time": 193.00999999998632,
            "value": 0.2992125984251969
          },
          {
            "number": 11,
            "time": 193.01499999998632,
            "value": 0.28346456692913385
          },
          {
            "number": 11,
            "time": 193.0199999999863,
            "value": 0.25196850393700787
          },
          {
            "number": 11,
            "time": 193.0249999999863,
            "value": 0.23622047244094488
          },
          {
            "number": 11,
            "time": 193.0299999999863,
            "value": 0.2125984251968504
          },
          {
            "number": 11,
            "time": 193.0399999999863,
            "value": 0.1889763779527559
          },
          {
            "number": 11,
            "time": 193.0449999999863,
            "value": 0.1732283464566929
          },
          {
            "number": 11,
            "time": 193.05499999998628,
            "value": 0.15748031496062992
          },
          {
            "number": 11,
            "time": 193.05999999998627,
            "value": 0.14173228346456693
          },
          {
            "number": 11,
            "time": 193.06999999998627,
            "value": 0.12598425196850394
          },
          {
            "number": 11,
            "time": 193.07999999998626,
            "value": 0.11811023622047244
          },
          {
            "number": 11,
            "time": 193.08499999998625,
            "value": 0.09448818897637795
          },
          {
            "number": 11,
            "time": 193.08999999998625,
            "value": 0.08661417322834646
          },
          {
            "number": 11,
            "time": 193.10499999998623,
            "value": 0.07874015748031496
          },
          {
            "number": 11,
            "time": 193.10999999998623,
            "value": 0.06299212598425197
          },
          {
            "number": 11,
            "time": 193.11499999998622,
            "value": 0.05511811023622047
          },
          {
            "number": 11,
            "time": 193.1299999999862,
            "value": 0.047244094488188976
          },
          {
            "number": 11,
            "time": 193.1349999999862,
            "value": 0.03937007874015748
          },
          {
            "number": 11,
            "time": 193.1449999999862,
            "value": 0.031496062992125984
          },
          {
            "number": 11,
            "time": 193.15999999998618,
            "value": 0.007874015748031496
          },
          {
            "number": 11,
            "time": 193.16499999998618,
            "value": 0
          },
          {
            "number": 11,
            "time": 198.40999999998604,
            "value": 1
          },
          {
            "number": 11,
            "time": 201.59499999998536,
            "value": 0.984251968503937
          },
          {
            "number": 11,
            "time": 201.60499999998535,
            "value": 0.9921259842519685
          },
          {
            "number": 11,
            "time": 201.83499999998517,
            "value": 0.984251968503937
          },
          {
            "number": 11,
            "time": 201.87999999998513,
            "value": 0.9763779527559056
          },
          {
            "number": 11,
            "time": 201.96499999998505,
            "value": 0.968503937007874
          },
          {
            "number": 11,
            "time": 201.97499999998504,
            "value": 0.968503937007874
          },
          {
            "number": 11,
            "time": 201.99499999998503,
            "value": 0.9606299212598425
          },
          {
            "number": 11,
            "time": 202.00499999998502,
            "value": 0.952755905511811
          },
          {
            "number": 11,
            "time": 202.019999999985,
            "value": 0.9448818897637795
          },
          {
            "number": 11,
            "time": 202.024999999985,
            "value": 0.9291338582677166
          },
          {
            "number": 11,
            "time": 202.07499999998495,
            "value": 0.9133858267716536
          },
          {
            "number": 11,
            "time": 202.10999999998492,
            "value": 0.905511811023622
          },
          {
            "number": 11,
            "time": 202.1549999999849,
            "value": 0.889763779527559
          },
          {
            "number": 11,
            "time": 202.19499999998487,
            "value": 0.8818897637795275
          },
          {
            "number": 11,
            "time": 202.23999999998483,
            "value": 0.8661417322834646
          },
          {
            "number": 11,
            "time": 202.2749999999848,
            "value": 0.8582677165354331
          },
          {
            "number": 11,
            "time": 202.31499999998476,
            "value": 0.8503937007874016
          },
          {
            "number": 11,
            "time": 202.35999999998472,
            "value": 0.8346456692913385
          },
          {
            "number": 11,
            "time": 202.3749999999847,
            "value": 0.8267716535433071
          },
          {
            "number": 11,
            "time": 202.3849999999847,
            "value": 0.8188976377952756
          },
          {
            "number": 11,
            "time": 202.41999999998467,
            "value": 0.8110236220472441
          },
          {
            "number": 11,
            "time": 202.45499999998466,
            "value": 0.8031496062992126
          },
          {
            "number": 11,
            "time": 202.46999999998465,
            "value": 0.7874015748031497
          },
          {
            "number": 11,
            "time": 202.51499999998464,
            "value": 0.7795275590551181
          },
          {
            "number": 11,
            "time": 202.52999999998462,
            "value": 0.7716535433070866
          },
          {
            "number": 11,
            "time": 202.53999999998462,
            "value": 0.7559055118110236
          },
          {
            "number": 11,
            "time": 202.56499999998462,
            "value": 0.7480314960629921
          },
          {
            "number": 11,
            "time": 202.5749999999846,
            "value": 0.7322834645669292
          },
          {
            "number": 11,
            "time": 202.61499999998458,
            "value": 0.7244094488188977
          },
          {
            "number": 11,
            "time": 202.64999999998454,
            "value": 0.7086614173228346
          },
          {
            "number": 11,
            "time": 202.65999999998454,
            "value": 0.6929133858267716
          },
          {
            "number": 11,
            "time": 202.67499999998452,
            "value": 0.6850393700787402
          },
          {
            "number": 11,
            "time": 202.7099999999845,
            "value": 0.6771653543307087
          },
          {
            "number": 11,
            "time": 202.74499999998446,
            "value": 0.6614173228346457
          },
          {
            "number": 11,
            "time": 202.75499999998445,
            "value": 0.6456692913385826
          },
          {
            "number": 11,
            "time": 202.8049999999844,
            "value": 0.6299212598425197
          },
          {
            "number": 11,
            "time": 202.8149999999844,
            "value": 0.6220472440944882
          },
          {
            "number": 11,
            "time": 202.85499999998436,
            "value": 0.6062992125984252
          },
          {
            "number": 11,
            "time": 202.88999999998433,
            "value": 0.5984251968503937
          },
          {
            "number": 11,
            "time": 202.89999999998432,
            "value": 0.5826771653543307
          },
          {
            "number": 11,
            "time": 202.9149999999843,
            "value": 0.5669291338582677
          },
          {
            "number": 11,
            "time": 202.9499999999843,
            "value": 0.5590551181102362
          },
          {
            "number": 11,
            "time": 202.9599999999843,
            "value": 0.5511811023622047
          },
          {
            "number": 11,
            "time": 202.9949999999843,
            "value": 0.5433070866141733
          },
          {
            "number": 11,
            "time": 203.00999999998427,
            "value": 0.5275590551181102
          },
          {
            "number": 11,
            "time": 203.01999999998426,
            "value": 0.5196850393700787
          },
          {
            "number": 11,
            "time": 203.05499999998426,
            "value": 0.5039370078740157
          },
          {
            "number": 11,
            "time": 203.06999999998425,
            "value": 0.49606299212598426
          },
          {
            "number": 11,
            "time": 203.10499999998424,
            "value": 0.4881889763779528
          },
          {
            "number": 11,
            "time": 203.13999999998424,
            "value": 0.47244094488188976
          },
          {
            "number": 11,
            "time": 203.17499999998424,
            "value": 0.4645669291338583
          },
          {
            "number": 11,
            "time": 203.18999999998422,
            "value": 0.4566929133858268
          },
          {
            "number": 11,
            "time": 203.22499999998422,
            "value": 0.4409448818897638
          },
          {
            "number": 11,
            "time": 203.2349999999842,
            "value": 0.4330708661417323
          },
          {
            "number": 11,
            "time": 203.2749999999842,
            "value": 0.4251968503937008
          },
          {
            "number": 11,
            "time": 203.3099999999842,
            "value": 0.4094488188976378
          },
          {
            "number": 11,
            "time": 203.3199999999842,
            "value": 0.4015748031496063
          },
          {
            "number": 11,
            "time": 203.3549999999842,
            "value": 0.3937007874015748
          },
          {
            "number": 11,
            "time": 203.39499999998418,
            "value": 0.3779527559055118
          },
          {
            "number": 11,
            "time": 203.43999999998417,
            "value": 0.3700787401574803
          },
          {
            "number": 11,
            "time": 203.45499999998415,
            "value": 0.3543307086614173
          },
          {
            "number": 11,
            "time": 203.48999999998415,
            "value": 0.3464566929133858
          },
          {
            "number": 11,
            "time": 203.52499999998415,
            "value": 0.33858267716535434
          },
          {
            "number": 11,
            "time": 203.53499999998414,
            "value": 0.33070866141732286
          },
          {
            "number": 11,
            "time": 203.54999999998412,
            "value": 0.3228346456692913
          },
          {
            "number": 11,
            "time": 203.55499999998412,
            "value": 0.31496062992125984
          },
          {
            "number": 11,
            "time": 203.5949999999841,
            "value": 0.30708661417322836
          },
          {
            "number": 11,
            "time": 203.6049999999841,
            "value": 0.2992125984251969
          },
          {
            "number": 11,
            "time": 203.6149999999841,
            "value": 0.29133858267716534
          },
          {
            "number": 11,
            "time": 203.6199999999841,
            "value": 0.28346456692913385
          },
          {
            "number": 11,
            "time": 203.62499999998408,
            "value": 0.2755905511811024
          },
          {
            "number": 11,
            "time": 203.63999999998407,
            "value": 0.2677165354330709
          },
          {
            "number": 11,
            "time": 203.64499999998407,
            "value": 0.25984251968503935
          },
          {
            "number": 11,
            "time": 203.64999999998406,
            "value": 0.25196850393700787
          },
          {
            "number": 11,
            "time": 203.66499999998405,
            "value": 0.2440944881889764
          },
          {
            "number": 11,
            "time": 203.67499999998404,
            "value": 0.23622047244094488
          },
          {
            "number": 11,
            "time": 203.67999999998403,
            "value": 0.2283464566929134
          },
          {
            "number": 11,
            "time": 203.68499999998403,
            "value": 0.2204724409448819
          },
          {
            "number": 11,
            "time": 203.69499999998402,
            "value": 0.2125984251968504
          },
          {
            "number": 11,
            "time": 203.69999999998402,
            "value": 0.2047244094488189
          },
          {
            "number": 11,
            "time": 203.709999999984,
            "value": 0.1889763779527559
          },
          {
            "number": 11,
            "time": 203.714999999984,
            "value": 0.18110236220472442
          },
          {
            "number": 11,
            "time": 203.724999999984,
            "value": 0.1732283464566929
          },
          {
            "number": 11,
            "time": 203.73999999998398,
            "value": 0.15748031496062992
          },
          {
            "number": 11,
            "time": 203.75499999998397,
            "value": 0.14960629921259844
          },
          {
            "number": 11,
            "time": 203.76499999998396,
            "value": 0.14173228346456693
          },
          {
            "number": 11,
            "time": 203.77499999998395,
            "value": 0.13385826771653545
          },
          {
            "number": 11,
            "time": 203.78999999998393,
            "value": 0.12598425196850394
          },
          {
            "number": 11,
            "time": 203.79499999998393,
            "value": 0.11811023622047244
          },
          {
            "number": 11,
            "time": 203.80499999998392,
            "value": 0.11023622047244094
          },
          {
            "number": 11,
            "time": 203.8499999999839,
            "value": 0.09448818897637795
          },
          {
            "number": 11,
            "time": 203.8549999999839,
            "value": 0.08661417322834646
          },
          {
            "number": 11,
            "time": 203.8649999999839,
            "value": 0.07874015748031496
          },
          {
            "number": 11,
            "time": 203.87999999998388,
            "value": 0.07086614173228346
          },
          {
            "number": 11,
            "time": 203.88499999998388,
            "value": 0.06299212598425197
          },
          {
            "number": 11,
            "time": 203.9049999999839,
            "value": 0.05511811023622047
          },
          {
            "number": 11,
            "time": 203.90999999998388,
            "value": 0.047244094488188976
          },
          {
            "number": 11,
            "time": 203.91999999998387,
            "value": 0.03937007874015748
          },
          {
            "number": 11,
            "time": 203.92499999998387,
            "value": 0.031496062992125984
          },
          {
            "number": 11,
            "time": 204.06499999998385,
            "value": 1
          },
          {
            "number": 11,
            "time": 208.00999999998385,
            "value": 1
          },
          {
            "number": 11,
            "time": 211.19499999998317,
            "value": 0.984251968503937
          },
          {
            "number": 11,
            "time": 211.20499999998316,
            "value": 0.9921259842519685
          },
          {
            "number": 11,
            "time": 211.43499999998298,
            "value": 0.984251968503937
          },
          {
            "number": 11,
            "time": 211.47999999998294,
            "value": 0.9763779527559056
          },
          {
            "number": 11,
            "time": 211.56499999998286,
            "value": 0.968503937007874
          },
          {
            "number": 11,
            "time": 211.57499999998285,
            "value": 0.968503937007874
          },
          {
            "number": 11,
            "time": 211.59499999998283,
            "value": 0.9606299212598425
          },
          {
            "number": 11,
            "time": 211.60499999998282,
            "value": 0.952755905511811
          },
          {
            "number": 11,
            "time": 211.6199999999828,
            "value": 0.9448818897637795
          },
          {
            "number": 11,
            "time": 211.6249999999828,
            "value": 0.9291338582677166
          },
          {
            "number": 11,
            "time": 211.67499999998276,
            "value": 0.9133858267716536
          },
          {
            "number": 11,
            "time": 211.70999999998273,
            "value": 0.905511811023622
          },
          {
            "number": 11,
            "time": 211.75499999998272,
            "value": 0.889763779527559
          },
          {
            "number": 11,
            "time": 211.79499999998268,
            "value": 0.8818897637795275
          },
          {
            "number": 11,
            "time": 211.83999999998264,
            "value": 0.8661417322834646
          },
          {
            "number": 11,
            "time": 211.8749999999826,
            "value": 0.8582677165354331
          },
          {
            "number": 11,
            "time": 211.91499999998257,
            "value": 0.8503937007874016
          },
          {
            "number": 11,
            "time": 211.95999999998253,
            "value": 0.8346456692913385
          },
          {
            "number": 11,
            "time": 211.97499999998251,
            "value": 0.8267716535433071
          },
          {
            "number": 11,
            "time": 211.9849999999825,
            "value": 0.8188976377952756
          },
          {
            "number": 11,
            "time": 212.01999999998247,
            "value": 0.8110236220472441
          },
          {
            "number": 11,
            "time": 212.05499999998247,
            "value": 0.8031496062992126
          },
          {
            "number": 11,
            "time": 212.06999999998246,
            "value": 0.7874015748031497
          },
          {
            "number": 11,
            "time": 212.11499999998244,
            "value": 0.7795275590551181
          },
          {
            "number": 11,
            "time": 212.12999999998243,
            "value": 0.7716535433070866
          },
          {
            "number": 11,
            "time": 212.13999999998242,
            "value": 0.7559055118110236
          },
          {
            "number": 11,
            "time": 212.16499999998243,
            "value": 0.7480314960629921
          },
          {
            "number": 11,
            "time": 212.17499999998242,
            "value": 0.7322834645669292
          },
          {
            "number": 11,
            "time": 212.21499999998238,
            "value": 0.7244094488188977
          },
          {
            "number": 11,
            "time": 212.24999999998235,
            "value": 0.7086614173228346
          },
          {
            "number": 11,
            "time": 212.25999999998234,
            "value": 0.6929133858267716
          },
          {
            "number": 11,
            "time": 212.27499999998233,
            "value": 0.6850393700787402
          },
          {
            "number": 11,
            "time": 212.3099999999823,
            "value": 0.6771653543307087
          },
          {
            "number": 11,
            "time": 212.34499999998226,
            "value": 0.6614173228346457
          },
          {
            "number": 11,
            "time": 212.35499999998225,
            "value": 0.6456692913385826
          },
          {
            "number": 11,
            "time": 212.4049999999822,
            "value": 0.6299212598425197
          },
          {
            "number": 11,
            "time": 212.4149999999822,
            "value": 0.6220472440944882
          },
          {
            "number": 11,
            "time": 212.45499999998216,
            "value": 0.6062992125984252
          },
          {
            "number": 11,
            "time": 212.48999999998213,
            "value": 0.5984251968503937
          },
          {
            "number": 11,
            "time": 212.49999999998212,
            "value": 0.5826771653543307
          },
          {
            "number": 11,
            "time": 212.5149999999821,
            "value": 0.5669291338582677
          },
          {
            "number": 11,
            "time": 212.5499999999821,
            "value": 0.5590551181102362
          },
          {
            "number": 11,
            "time": 212.5599999999821,
            "value": 0.5511811023622047
          },
          {
            "number": 11,
            "time": 212.5949999999821,
            "value": 0.5433070866141733
          },
          {
            "number": 11,
            "time": 212.60999999998208,
            "value": 0.5275590551181102
          },
          {
            "number": 11,
            "time": 212.61999999998207,
            "value": 0.5196850393700787
          },
          {
            "number": 11,
            "time": 212.65499999998207,
            "value": 0.5039370078740157
          },
          {
            "number": 11,
            "time": 212.66999999998205,
            "value": 0.49606299212598426
          },
          {
            "number": 11,
            "time": 212.70499999998205,
            "value": 0.4881889763779528
          },
          {
            "number": 11,
            "time": 212.73999999998205,
            "value": 0.47244094488188976
          },
          {
            "number": 11,
            "time": 212.77499999998204,
            "value": 0.4645669291338583
          },
          {
            "number": 11,
            "time": 212.78999999998203,
            "value": 0.4566929133858268
          },
          {
            "number": 11,
            "time": 212.82499999998203,
            "value": 0.4409448818897638
          },
          {
            "number": 11,
            "time": 212.83499999998202,
            "value": 0.4330708661417323
          },
          {
            "number": 11,
            "time": 212.874999999982,
            "value": 0.4251968503937008
          },
          {
            "number": 11,
            "time": 212.909999999982,
            "value": 0.4094488188976378
          },
          {
            "number": 11,
            "time": 212.919999999982,
            "value": 0.4015748031496063
          },
          {
            "number": 11,
            "time": 212.954999999982,
            "value": 0.3937007874015748
          },
          {
            "number": 11,
            "time": 212.99499999998199,
            "value": 0.3779527559055118
          },
          {
            "number": 11,
            "time": 213.03999999998197,
            "value": 0.3700787401574803
          },
          {
            "number": 11,
            "time": 213.05499999998196,
            "value": 0.3543307086614173
          },
          {
            "number": 11,
            "time": 213.08999999998196,
            "value": 0.3464566929133858
          },
          {
            "number": 11,
            "time": 213.12499999998195,
            "value": 0.33858267716535434
          },
          {
            "number": 11,
            "time": 213.13499999998194,
            "value": 0.33070866141732286
          },
          {
            "number": 11,
            "time": 213.14999999998193,
            "value": 0.3228346456692913
          },
          {
            "number": 11,
            "time": 213.15499999998192,
            "value": 0.31496062992125984
          },
          {
            "number": 11,
            "time": 213.19499999998192,
            "value": 0.30708661417322836
          },
          {
            "number": 11,
            "time": 213.2049999999819,
            "value": 0.2992125984251969
          },
          {
            "number": 11,
            "time": 213.2149999999819,
            "value": 0.29133858267716534
          },
          {
            "number": 11,
            "time": 213.2199999999819,
            "value": 0.28346456692913385
          },
          {
            "number": 11,
            "time": 213.2249999999819,
            "value": 0.2755905511811024
          },
          {
            "number": 11,
            "time": 213.23999999998188,
            "value": 0.2677165354330709
          },
          {
            "number": 11,
            "time": 213.24499999998187,
            "value": 0.25984251968503935
          },
          {
            "number": 11,
            "time": 213.24999999998187,
            "value": 0.25196850393700787
          },
          {
            "number": 11,
            "time": 213.26499999998185,
            "value": 0.2440944881889764
          },
          {
            "number": 11,
            "time": 213.27499999998184,
            "value": 0.23622047244094488
          },
          {
            "number": 11,
            "time": 213.27999999998184,
            "value": 0.2283464566929134
          },
          {
            "number": 11,
            "time": 213.28499999998184,
            "value": 0.2204724409448819
          },
          {
            "number": 11,
            "time": 213.29499999998183,
            "value": 0.2125984251968504
          },
          {
            "number": 11,
            "time": 213.29999999998182,
            "value": 0.2047244094488189
          },
          {
            "number": 11,
            "time": 213.3099999999818,
            "value": 0.1889763779527559
          },
          {
            "number": 11,
            "time": 213.3149999999818,
            "value": 0.18110236220472442
          },
          {
            "number": 11,
            "time": 213.3249999999818,
            "value": 0.1732283464566929
          },
          {
            "number": 11,
            "time": 213.33999999998179,
            "value": 0.15748031496062992
          },
          {
            "number": 11,
            "time": 213.35499999998177,
            "value": 0.14960629921259844
          },
          {
            "number": 11,
            "time": 213.36499999998176,
            "value": 0.14173228346456693
          },
          {
            "number": 11,
            "time": 213.37499999998175,
            "value": 0.13385826771653545
          },
          {
            "number": 11,
            "time": 213.38999999998174,
            "value": 0.12598425196850394
          },
          {
            "number": 11,
            "time": 213.39499999998174,
            "value": 0.11811023622047244
          },
          {
            "number": 11,
            "time": 213.40499999998173,
            "value": 0.11023622047244094
          },
          {
            "number": 11,
            "time": 213.4499999999817,
            "value": 0.09448818897637795
          },
          {
            "number": 11,
            "time": 213.4549999999817,
            "value": 0.08661417322834646
          },
          {
            "number": 11,
            "time": 213.4649999999817,
            "value": 0.07874015748031496
          },
          {
            "number": 11,
            "time": 213.4799999999817,
            "value": 0.07086614173228346
          },
          {
            "number": 11,
            "time": 213.48499999998168,
            "value": 0.06299212598425197
          },
          {
            "number": 11,
            "time": 213.5049999999817,
            "value": 0.05511811023622047
          },
          {
            "number": 11,
            "time": 213.5099999999817,
            "value": 0.047244094488188976
          },
          {
            "number": 11,
            "time": 213.51999999998168,
            "value": 0.03937007874015748
          },
          {
            "number": 11,
            "time": 213.52499999998167,
            "value": 0.031496062992125984
          },
          {
            "number": 11,
            "time": 213.66499999998166,
            "value": 1
          },
          {
            "number": 11,
            "time": 217.60999999998157,
            "value": 1
          },
          {
            "number": 11,
            "time": 220.79499999998063,
            "value": 0.984251968503937
          },
          {
            "number": 11,
            "time": 220.80499999998062,
            "value": 0.9921259842519685
          },
          {
            "number": 11,
            "time": 221.03499999998044,
            "value": 0.984251968503937
          },
          {
            "number": 11,
            "time": 221.0799999999804,
            "value": 0.9763779527559056
          },
          {
            "number": 11,
            "time": 221.16499999998032,
            "value": 0.968503937007874
          },
          {
            "number": 11,
            "time": 221.17499999998032,
            "value": 0.968503937007874
          },
          {
            "number": 11,
            "time": 221.1949999999803,
            "value": 0.9606299212598425
          },
          {
            "number": 11,
            "time": 221.2049999999803,
            "value": 0.952755905511811
          },
          {
            "number": 11,
            "time": 221.21999999998027,
            "value": 0.9448818897637795
          },
          {
            "number": 11,
            "time": 221.22499999998027,
            "value": 0.9291338582677166
          },
          {
            "number": 11,
            "time": 221.27499999998022,
            "value": 0.9133858267716536
          },
          {
            "number": 11,
            "time": 221.3099999999802,
            "value": 0.905511811023622
          },
          {
            "number": 11,
            "time": 221.35499999998018,
            "value": 0.889763779527559
          },
          {
            "number": 11,
            "time": 221.39499999998014,
            "value": 0.8818897637795275
          },
          {
            "number": 11,
            "time": 221.4399999999801,
            "value": 0.8661417322834646
          },
          {
            "number": 11,
            "time": 221.47499999998007,
            "value": 0.8582677165354331
          },
          {
            "number": 11,
            "time": 221.51499999998003,
            "value": 0.8503937007874016
          },
          {
            "number": 11,
            "time": 221.55999999998,
            "value": 0.8346456692913385
          },
          {
            "number": 11,
            "time": 221.57499999997998,
            "value": 0.8267716535433071
          },
          {
            "number": 11,
            "time": 221.58499999997997,
            "value": 0.8188976377952756
          },
          {
            "number": 11,
            "time": 221.61999999997994,
            "value": 0.8110236220472441
          },
          {
            "number": 11,
            "time": 221.65499999997994,
            "value": 0.8031496062992126
          },
          {
            "number": 11,
            "time": 221.66999999997992,
            "value": 0.7874015748031497
          },
          {
            "number": 11,
            "time": 221.7149999999799,
            "value": 0.7795275590551181
          },
          {
            "number": 11,
            "time": 221.7299999999799,
            "value": 0.7716535433070866
          },
          {
            "number": 11,
            "time": 221.7399999999799,
            "value": 0.7559055118110236
          },
          {
            "number": 11,
            "time": 221.7649999999799,
            "value": 0.7480314960629921
          },
          {
            "number": 11,
            "time": 221.77499999997988,
            "value": 0.7322834645669292
          },
          {
            "number": 11,
            "time": 221.81499999997985,
            "value": 0.7244094488188977
          },
          {
            "number": 11,
            "time": 221.84999999997981,
            "value": 0.7086614173228346
          },
          {
            "number": 11,
            "time": 221.8599999999798,
            "value": 0.6929133858267716
          },
          {
            "number": 11,
            "time": 221.8749999999798,
            "value": 0.6850393700787402
          },
          {
            "number": 11,
            "time": 221.90999999997976,
            "value": 0.6771653543307087
          },
          {
            "number": 11,
            "time": 221.94499999997973,
            "value": 0.6614173228346457
          },
          {
            "number": 11,
            "time": 221.95499999997972,
            "value": 0.6456692913385826
          },
          {
            "number": 11,
            "time": 222.00499999997967,
            "value": 0.6299212598425197
          },
          {
            "number": 11,
            "time": 222.01499999997966,
            "value": 0.6220472440944882
          },
          {
            "number": 11,
            "time": 222.05499999997963,
            "value": 0.6062992125984252
          },
          {
            "number": 11,
            "time": 222.0899999999796,
            "value": 0.5984251968503937
          },
          {
            "number": 11,
            "time": 222.0999999999796,
            "value": 0.5826771653543307
          },
          {
            "number": 11,
            "time": 222.11499999997957,
            "value": 0.5669291338582677
          },
          {
            "number": 11,
            "time": 222.14999999997957,
            "value": 0.5590551181102362
          },
          {
            "number": 11,
            "time": 222.15999999997956,
            "value": 0.5511811023622047
          },
          {
            "number": 11,
            "time": 222.19499999997956,
            "value": 0.5433070866141733
          },
          {
            "number": 11,
            "time": 222.20999999997954,
            "value": 0.5275590551181102
          },
          {
            "number": 11,
            "time": 222.21999999997954,
            "value": 0.5196850393700787
          },
          {
            "number": 11,
            "time": 222.25499999997953,
            "value": 0.5039370078740157
          },
          {
            "number": 11,
            "time": 222.26999999997952,
            "value": 0.49606299212598426
          },
          {
            "number": 11,
            "time": 222.30499999997951,
            "value": 0.4881889763779528
          },
          {
            "number": 11,
            "time": 222.3399999999795,
            "value": 0.47244094488188976
          },
          {
            "number": 11,
            "time": 222.3749999999795,
            "value": 0.4645669291338583
          },
          {
            "number": 11,
            "time": 222.3899999999795,
            "value": 0.4566929133858268
          },
          {
            "number": 11,
            "time": 222.4249999999795,
            "value": 0.4409448818897638
          },
          {
            "number": 11,
            "time": 222.43499999997948,
            "value": 0.4330708661417323
          },
          {
            "number": 11,
            "time": 222.47499999997947,
            "value": 0.4251968503937008
          },
          {
            "number": 11,
            "time": 222.50999999997947,
            "value": 0.4094488188976378
          },
          {
            "number": 11,
            "time": 222.51999999997946,
            "value": 0.4015748031496063
          },
          {
            "number": 11,
            "time": 222.55499999997946,
            "value": 0.3937007874015748
          },
          {
            "number": 11,
            "time": 222.59499999997945,
            "value": 0.3779527559055118
          },
          {
            "number": 11,
            "time": 222.63999999997944,
            "value": 0.3700787401574803
          },
          {
            "number": 11,
            "time": 222.65499999997942,
            "value": 0.3543307086614173
          },
          {
            "number": 11,
            "time": 222.68999999997942,
            "value": 0.3464566929133858
          },
          {
            "number": 11,
            "time": 222.72499999997942,
            "value": 0.33858267716535434
          },
          {
            "number": 11,
            "time": 222.7349999999794,
            "value": 0.33070866141732286
          },
          {
            "number": 11,
            "time": 222.7499999999794,
            "value": 0.3228346456692913
          },
          {
            "number": 11,
            "time": 222.7549999999794,
            "value": 0.31496062992125984
          },
          {
            "number": 11,
            "time": 222.79499999997938,
            "value": 0.30708661417322836
          },
          {
            "number": 11,
            "time": 222.80499999997937,
            "value": 0.2992125984251969
          },
          {
            "number": 11,
            "time": 222.81499999997936,
            "value": 0.29133858267716534
          },
          {
            "number": 11,
            "time": 222.81999999997936,
            "value": 0.28346456692913385
          },
          {
            "number": 11,
            "time": 222.82499999997935,
            "value": 0.2755905511811024
          },
          {
            "number": 11,
            "time": 222.83999999997934,
            "value": 0.2677165354330709
          },
          {
            "number": 11,
            "time": 222.84499999997934,
            "value": 0.25984251968503935
          },
          {
            "number": 11,
            "time": 222.84999999997933,
            "value": 0.25196850393700787
          },
          {
            "number": 11,
            "time": 222.86499999997932,
            "value": 0.2440944881889764
          },
          {
            "number": 11,
            "time": 222.8749999999793,
            "value": 0.23622047244094488
          },
          {
            "number": 11,
            "time": 222.8799999999793,
            "value": 0.2283464566929134
          },
          {
            "number": 11,
            "time": 222.8849999999793,
            "value": 0.2204724409448819
          },
          {
            "number": 11,
            "time": 222.8949999999793,
            "value": 0.2125984251968504
          },
          {
            "number": 11,
            "time": 222.8999999999793,
            "value": 0.2047244094488189
          },
          {
            "number": 11,
            "time": 222.90999999997928,
            "value": 0.1889763779527559
          },
          {
            "number": 11,
            "time": 222.91499999997927,
            "value": 0.18110236220472442
          },
          {
            "number": 11,
            "time": 222.92499999997926,
            "value": 0.1732283464566929
          },
          {
            "number": 11,
            "time": 222.93999999997925,
            "value": 0.15748031496062992
          },
          {
            "number": 11,
            "time": 222.95499999997924,
            "value": 0.14960629921259844
          },
          {
            "number": 11,
            "time": 222.96499999997923,
            "value": 0.14173228346456693
          },
          {
            "number": 11,
            "time": 222.97499999997922,
            "value": 0.13385826771653545
          },
          {
            "number": 11,
            "time": 222.9899999999792,
            "value": 0.12598425196850394
          },
          {
            "number": 11,
            "time": 222.9949999999792,
            "value": 0.11811023622047244
          },
          {
            "number": 11,
            "time": 223.0049999999792,
            "value": 0.11023622047244094
          },
          {
            "number": 11,
            "time": 223.04999999997918,
            "value": 0.09448818897637795
          },
          {
            "number": 11,
            "time": 223.05499999997917,
            "value": 0.08661417322834646
          },
          {
            "number": 11,
            "time": 223.06499999997916,
            "value": 0.07874015748031496
          },
          {
            "number": 11,
            "time": 223.07999999997915,
            "value": 0.07086614173228346
          },
          {
            "number": 11,
            "time": 223.08499999997915,
            "value": 0.06299212598425197
          },
          {
            "number": 11,
            "time": 223.10499999997916,
            "value": 0.05511811023622047
          },
          {
            "number": 11,
            "time": 223.10999999997915,
            "value": 0.047244094488188976
          },
          {
            "number": 11,
            "time": 223.11999999997914,
            "value": 0.03937007874015748
          },
          {
            "number": 11,
            "time": 223.12499999997914,
            "value": 0.031496062992125984
          },
          {
            "number": 11,
            "time": 223.26499999997912,
            "value": 1
          }
        ],
        "32": [
          {
            "number": 32,
            "time": 0,
            "value": 0
          }
        ],
        "91": [
          {
            "number": 91,
            "time": 22.465,
            "value": 0.3543307086614173
          },
          {
            "number": 91,
            "time": 22.525,
            "value": 0.36220472440944884
          },
          {
            "number": 91,
            "time": 34.57500000000004,
            "value": 0.6456692913385826
          },
          {
            "number": 91,
            "time": 106.57499999999968,
            "value": 0.6456692913385826
          },
          {
            "number": 91,
            "time": 116.17499999999922,
            "value": 0.6456692913385826
          },
          {
            "number": 91,
            "time": 125.77499999999873,
            "value": 0.6456692913385826
          },
          {
            "number": 91,
            "time": 135.37499999999642,
            "value": 0.6456692913385826
          },
          {
            "number": 91,
            "time": 135.37499999999642,
            "value": 0.6456692913385826
          },
          {
            "number": 91,
            "time": 191.96499999998707,
            "value": 0.2125984251968504
          },
          {
            "number": 91,
            "time": 191.97499999998706,
            "value": 0.2283464566929134
          },
          {
            "number": 91,
            "time": 191.99999999998707,
            "value": 0.25984251968503935
          },
          {
            "number": 91,
            "time": 192.00999999998706,
            "value": 0.2755905511811024
          },
          {
            "number": 91,
            "time": 192.01999999998705,
            "value": 0.25984251968503935
          },
          {
            "number": 91,
            "time": 192.02499999998705,
            "value": 0.29133858267716534
          },
          {
            "number": 91,
            "time": 192.05999999998704,
            "value": 0.33858267716535434
          },
          {
            "number": 91,
            "time": 192.10999999998702,
            "value": 0.3543307086614173
          },
          {
            "number": 91,
            "time": 192.16999999998697,
            "value": 0.41732283464566927
          },
          {
            "number": 91,
            "time": 192.23999999998694,
            "value": 0.4645669291338583
          },
          {
            "number": 91,
            "time": 192.29999999998688,
            "value": 0.5275590551181102
          },
          {
            "number": 91,
            "time": 192.3849999999868,
            "value": 0.5905511811023622
          },
          {
            "number": 91,
            "time": 192.42999999998676,
            "value": 0.6062992125984252
          },
          {
            "number": 91,
            "time": 192.48999999998674,
            "value": 0.6220472440944882
          },
          {
            "number": 91,
            "time": 192.54999999998668,
            "value": 0.6692913385826772
          },
          {
            "number": 91,
            "time": 192.60999999998666,
            "value": 0.6850393700787402
          },
          {
            "number": 91,
            "time": 192.6599999999866,
            "value": 0.7007874015748031
          },
          {
            "number": 91,
            "time": 192.7099999999866,
            "value": 0.7165354330708661
          },
          {
            "number": 91,
            "time": 192.74499999998656,
            "value": 0.7637795275590551
          },
          {
            "number": 91,
            "time": 192.77999999998653,
            "value": 0.7795275590551181
          },
          {
            "number": 91,
            "time": 192.8149999999865,
            "value": 0.7952755905511811
          },
          {
            "number": 91,
            "time": 192.86499999998645,
            "value": 0.8031496062992126
          },
          {
            "number": 91,
            "time": 192.89999999998642,
            "value": 0.8188976377952756
          },
          {
            "number": 91,
            "time": 192.9349999999864,
            "value": 0.8267716535433071
          },
          {
            "number": 91,
            "time": 192.96999999998636,
            "value": 0.8346456692913385
          },
          {
            "number": 91,
            "time": 193.00999999998632,
            "value": 0.8503937007874016
          },
          {
            "number": 91,
            "time": 193.0449999999863,
            "value": 0.8582677165354331
          },
          {
            "number": 91,
            "time": 193.08999999998625,
            "value": 0.8661417322834646
          },
          {
            "number": 91,
            "time": 193.10499999998623,
            "value": 0.8740157480314961
          },
          {
            "number": 91,
            "time": 193.11499999998622,
            "value": 0.8818897637795275
          },
          {
            "number": 91,
            "time": 193.1299999999862,
            "value": 0.889763779527559
          },
          {
            "number": 91,
            "time": 193.1399999999862,
            "value": 0.8976377952755905
          },
          {
            "number": 91,
            "time": 193.17499999998617,
            "value": 0.905511811023622
          },
          {
            "number": 91,
            "time": 193.17999999998617,
            "value": 0.9133858267716536
          },
          {
            "number": 91,
            "time": 193.21999999998613,
            "value": 0.9212598425196851
          },
          {
            "number": 91,
            "time": 193.23499999998612,
            "value": 0.9291338582677166
          },
          {
            "number": 91,
            "time": 193.2499999999861,
            "value": 0.9448818897637795
          },
          {
            "number": 91,
            "time": 193.2549999999861,
            "value": 0.952755905511811
          },
          {
            "number": 91,
            "time": 193.2649999999861,
            "value": 0.9606299212598425
          },
          {
            "number": 91,
            "time": 193.26999999998608,
            "value": 0.968503937007874
          },
          {
            "number": 91,
            "time": 193.27999999998607,
            "value": 0.9763779527559056
          },
          {
            "number": 91,
            "time": 193.28499999998607,
            "value": 0.984251968503937
          },
          {
            "number": 91,
            "time": 193.48999999998605,
            "value": 0.2677165354330709
          },
          {
            "number": 91,
            "time": 201.56499999998536,
            "value": 0.2125984251968504
          },
          {
            "number": 91,
            "time": 201.57499999998535,
            "value": 0.2283464566929134
          },
          {
            "number": 91,
            "time": 201.59999999998536,
            "value": 0.25984251968503935
          },
          {
            "number": 91,
            "time": 201.60999999998535,
            "value": 0.2755905511811024
          },
          {
            "number": 91,
            "time": 201.61999999998534,
            "value": 0.25984251968503935
          },
          {
            "number": 91,
            "time": 201.62499999998533,
            "value": 0.29133858267716534
          },
          {
            "number": 91,
            "time": 201.6599999999853,
            "value": 0.33858267716535434
          },
          {
            "number": 91,
            "time": 201.70999999998529,
            "value": 0.3543307086614173
          },
          {
            "number": 91,
            "time": 201.76999999998523,
            "value": 0.41732283464566927
          },
          {
            "number": 91,
            "time": 201.83999999998517,
            "value": 0.4645669291338583
          },
          {
            "number": 91,
            "time": 201.8999999999851,
            "value": 0.5275590551181102
          },
          {
            "number": 91,
            "time": 201.98499999998504,
            "value": 0.5905511811023622
          },
          {
            "number": 91,
            "time": 202.029999999985,
            "value": 0.6062992125984252
          },
          {
            "number": 91,
            "time": 202.08999999998494,
            "value": 0.6220472440944882
          },
          {
            "number": 91,
            "time": 202.1499999999849,
            "value": 0.6692913385826772
          },
          {
            "number": 91,
            "time": 202.20999999998486,
            "value": 0.6850393700787402
          },
          {
            "number": 91,
            "time": 202.2599999999848,
            "value": 0.7007874015748031
          },
          {
            "number": 91,
            "time": 202.30999999998477,
            "value": 0.7165354330708661
          },
          {
            "number": 91,
            "time": 202.34499999998474,
            "value": 0.7637795275590551
          },
          {
            "number": 91,
            "time": 202.3799999999847,
            "value": 0.7795275590551181
          },
          {
            "number": 91,
            "time": 202.41499999998467,
            "value": 0.7952755905511811
          },
          {
            "number": 91,
            "time": 202.46499999998466,
            "value": 0.8031496062992126
          },
          {
            "number": 91,
            "time": 202.49999999998465,
            "value": 0.8188976377952756
          },
          {
            "number": 91,
            "time": 202.53499999998462,
            "value": 0.8267716535433071
          },
          {
            "number": 91,
            "time": 202.56999999998462,
            "value": 0.8346456692913385
          },
          {
            "number": 91,
            "time": 202.60999999998458,
            "value": 0.8503937007874016
          },
          {
            "number": 91,
            "time": 202.64499999998455,
            "value": 0.8582677165354331
          },
          {
            "number": 91,
            "time": 202.6899999999845,
            "value": 0.8661417322834646
          },
          {
            "number": 91,
            "time": 202.7049999999845,
            "value": 0.8740157480314961
          },
          {
            "number": 91,
            "time": 202.71499999998449,
            "value": 0.8818897637795275
          },
          {
            "number": 91,
            "time": 202.72999999998447,
            "value": 0.889763779527559
          },
          {
            "number": 91,
            "time": 202.73999999998446,
            "value": 0.8976377952755905
          },
          {
            "number": 91,
            "time": 202.77499999998443,
            "value": 0.905511811023622
          },
          {
            "number": 91,
            "time": 202.77999999998443,
            "value": 0.9133858267716536
          },
          {
            "number": 91,
            "time": 202.8199999999844,
            "value": 0.9212598425196851
          },
          {
            "number": 91,
            "time": 202.83499999998438,
            "value": 0.9291338582677166
          },
          {
            "number": 91,
            "time": 202.84999999998436,
            "value": 0.9448818897637795
          },
          {
            "number": 91,
            "time": 202.85499999998436,
            "value": 0.952755905511811
          },
          {
            "number": 91,
            "time": 202.86499999998435,
            "value": 0.9606299212598425
          },
          {
            "number": 91,
            "time": 202.86999999998434,
            "value": 0.968503937007874
          },
          {
            "number": 91,
            "time": 202.87999999998434,
            "value": 0.9763779527559056
          },
          {
            "number": 91,
            "time": 202.88499999998433,
            "value": 0.984251968503937
          },
          {
            "number": 91,
            "time": 203.08999999998426,
            "value": 0.2677165354330709
          },
          {
            "number": 91,
            "time": 211.16499999998317,
            "value": 0.2125984251968504
          },
          {
            "number": 91,
            "time": 211.17499999998316,
            "value": 0.2283464566929134
          },
          {
            "number": 91,
            "time": 211.19999999998316,
            "value": 0.25984251968503935
          },
          {
            "number": 91,
            "time": 211.20999999998315,
            "value": 0.2755905511811024
          },
          {
            "number": 91,
            "time": 211.21999999998314,
            "value": 0.25984251968503935
          },
          {
            "number": 91,
            "time": 211.22499999998314,
            "value": 0.29133858267716534
          },
          {
            "number": 91,
            "time": 211.2599999999831,
            "value": 0.33858267716535434
          },
          {
            "number": 91,
            "time": 211.3099999999831,
            "value": 0.3543307086614173
          },
          {
            "number": 91,
            "time": 211.36999999998304,
            "value": 0.41732283464566927
          },
          {
            "number": 91,
            "time": 211.43999999998297,
            "value": 0.4645669291338583
          },
          {
            "number": 91,
            "time": 211.49999999998292,
            "value": 0.5275590551181102
          },
          {
            "number": 91,
            "time": 211.58499999998284,
            "value": 0.5905511811023622
          },
          {
            "number": 91,
            "time": 211.6299999999828,
            "value": 0.6062992125984252
          },
          {
            "number": 91,
            "time": 211.68999999998275,
            "value": 0.6220472440944882
          },
          {
            "number": 91,
            "time": 211.74999999998272,
            "value": 0.6692913385826772
          },
          {
            "number": 91,
            "time": 211.80999999998267,
            "value": 0.6850393700787402
          },
          {
            "number": 91,
            "time": 211.85999999998262,
            "value": 0.7007874015748031
          },
          {
            "number": 91,
            "time": 211.90999999998257,
            "value": 0.7165354330708661
          },
          {
            "number": 91,
            "time": 211.94499999998254,
            "value": 0.7637795275590551
          },
          {
            "number": 91,
            "time": 211.9799999999825,
            "value": 0.7795275590551181
          },
          {
            "number": 91,
            "time": 212.01499999998248,
            "value": 0.7952755905511811
          },
          {
            "number": 91,
            "time": 212.06499999998246,
            "value": 0.8031496062992126
          },
          {
            "number": 91,
            "time": 212.09999999998246,
            "value": 0.8188976377952756
          },
          {
            "number": 91,
            "time": 212.13499999998243,
            "value": 0.8267716535433071
          },
          {
            "number": 91,
            "time": 212.16999999998242,
            "value": 0.8346456692913385
          },
          {
            "number": 91,
            "time": 212.2099999999824,
            "value": 0.8503937007874016
          },
          {
            "number": 91,
            "time": 212.24499999998235,
            "value": 0.8582677165354331
          },
          {
            "number": 91,
            "time": 212.2899999999823,
            "value": 0.8661417322834646
          },
          {
            "number": 91,
            "time": 212.3049999999823,
            "value": 0.8740157480314961
          },
          {
            "number": 91,
            "time": 212.3149999999823,
            "value": 0.8818897637795275
          },
          {
            "number": 91,
            "time": 212.32999999998228,
            "value": 0.889763779527559
          },
          {
            "number": 91,
            "time": 212.33999999998227,
            "value": 0.8976377952755905
          },
          {
            "number": 91,
            "time": 212.37499999998224,
            "value": 0.905511811023622
          },
          {
            "number": 91,
            "time": 212.37999999998223,
            "value": 0.9133858267716536
          },
          {
            "number": 91,
            "time": 212.4199999999822,
            "value": 0.9212598425196851
          },
          {
            "number": 91,
            "time": 212.43499999998218,
            "value": 0.9291338582677166
          },
          {
            "number": 91,
            "time": 212.44999999998217,
            "value": 0.9448818897637795
          },
          {
            "number": 91,
            "time": 212.45499999998216,
            "value": 0.952755905511811
          },
          {
            "number": 91,
            "time": 212.46499999998215,
            "value": 0.9606299212598425
          },
          {
            "number": 91,
            "time": 212.46999999998215,
            "value": 0.968503937007874
          },
          {
            "number": 91,
            "time": 212.47999999998214,
            "value": 0.9763779527559056
          },
          {
            "number": 91,
            "time": 212.48499999998214,
            "value": 0.984251968503937
          },
          {
            "number": 91,
            "time": 212.68999999998206,
            "value": 0.2677165354330709
          },
          {
            "number": 91,
            "time": 220.76499999998063,
            "value": 0.2125984251968504
          },
          {
            "number": 91,
            "time": 220.77499999998062,
            "value": 0.2283464566929134
          },
          {
            "number": 91,
            "time": 220.79999999998063,
            "value": 0.25984251968503935
          },
          {
            "number": 91,
            "time": 220.80999999998062,
            "value": 0.2755905511811024
          },
          {
            "number": 91,
            "time": 220.8199999999806,
            "value": 0.25984251968503935
          },
          {
            "number": 91,
            "time": 220.8249999999806,
            "value": 0.29133858267716534
          },
          {
            "number": 91,
            "time": 220.85999999998057,
            "value": 0.33858267716535434
          },
          {
            "number": 91,
            "time": 220.90999999998056,
            "value": 0.3543307086614173
          },
          {
            "number": 91,
            "time": 220.9699999999805,
            "value": 0.41732283464566927
          },
          {
            "number": 91,
            "time": 221.03999999998044,
            "value": 0.4645669291338583
          },
          {
            "number": 91,
            "time": 221.09999999998038,
            "value": 0.5275590551181102
          },
          {
            "number": 91,
            "time": 221.1849999999803,
            "value": 0.5905511811023622
          },
          {
            "number": 91,
            "time": 221.22999999998027,
            "value": 0.6062992125984252
          },
          {
            "number": 91,
            "time": 221.2899999999802,
            "value": 0.6220472440944882
          },
          {
            "number": 91,
            "time": 221.34999999998018,
            "value": 0.6692913385826772
          },
          {
            "number": 91,
            "time": 221.40999999998013,
            "value": 0.6850393700787402
          },
          {
            "number": 91,
            "time": 221.45999999998008,
            "value": 0.7007874015748031
          },
          {
            "number": 91,
            "time": 221.50999999998004,
            "value": 0.7165354330708661
          },
          {
            "number": 91,
            "time": 221.54499999998,
            "value": 0.7637795275590551
          },
          {
            "number": 91,
            "time": 221.57999999997998,
            "value": 0.7795275590551181
          },
          {
            "number": 91,
            "time": 221.61499999997994,
            "value": 0.7952755905511811
          },
          {
            "number": 91,
            "time": 221.66499999997993,
            "value": 0.8031496062992126
          },
          {
            "number": 91,
            "time": 221.69999999997992,
            "value": 0.8188976377952756
          },
          {
            "number": 91,
            "time": 221.7349999999799,
            "value": 0.8267716535433071
          },
          {
            "number": 91,
            "time": 221.7699999999799,
            "value": 0.8346456692913385
          },
          {
            "number": 91,
            "time": 221.80999999997985,
            "value": 0.8503937007874016
          },
          {
            "number": 91,
            "time": 221.84499999997982,
            "value": 0.8582677165354331
          },
          {
            "number": 91,
            "time": 221.88999999997978,
            "value": 0.8661417322834646
          },
          {
            "number": 91,
            "time": 221.90499999997976,
            "value": 0.8740157480314961
          },
          {
            "number": 91,
            "time": 221.91499999997976,
            "value": 0.8818897637795275
          },
          {
            "number": 91,
            "time": 221.92999999997974,
            "value": 0.889763779527559
          },
          {
            "number": 91,
            "time": 221.93999999997973,
            "value": 0.8976377952755905
          },
          {
            "number": 91,
            "time": 221.9749999999797,
            "value": 0.905511811023622
          },
          {
            "number": 91,
            "time": 221.9799999999797,
            "value": 0.9133858267716536
          },
          {
            "number": 91,
            "time": 222.01999999997966,
            "value": 0.9212598425196851
          },
          {
            "number": 91,
            "time": 222.03499999997965,
            "value": 0.9291338582677166
          },
          {
            "number": 91,
            "time": 222.04999999997963,
            "value": 0.9448818897637795
          },
          {
            "number": 91,
            "time": 222.05499999997963,
            "value": 0.952755905511811
          },
          {
            "number": 91,
            "time": 222.06499999997962,
            "value": 0.9606299212598425
          },
          {
            "number": 91,
            "time": 222.06999999997961,
            "value": 0.968503937007874
          },
          {
            "number": 91,
            "time": 222.0799999999796,
            "value": 0.9763779527559056
          },
          {
            "number": 91,
            "time": 222.0849999999796,
            "value": 0.984251968503937
          },
          {
            "number": 91,
            "time": 222.28999999997953,
            "value": 0.2677165354330709
          }
        ],
        "94": [
          {
            "number": 94,
            "time": 22.52,
            "value": 0.14173228346456693
          },
          {
            "number": 94,
            "time": 34.52000000000004,
            "value": 0.14173228346456693
          },
          {
            "number": 94,
            "time": 106.51999999999967,
            "value": 0.14173228346456693
          },
          {
            "number": 94,
            "time": 116.11999999999921,
            "value": 0.14173228346456693
          },
          {
            "number": 94,
            "time": 125.71999999999872,
            "value": 0.14173228346456693
          },
          {
            "number": 94,
            "time": 135.3199999999964,
            "value": 0.14173228346456693
          },
          {
            "number": 94,
            "time": 135.3199999999964,
            "value": 0.14173228346456693
          }
        ],
        "119": [
          {
            "number": 119,
            "time": 25.2,
            "value": 0.4094488188976378
          },
          {
            "number": 119,
            "time": 25.349999999999998,
            "value": 0.5905511811023622
          },
          {
            "number": 119,
            "time": 25.424999999999997,
            "value": 0
          },
          {
            "number": 119,
            "time": 25.499999999999996,
            "value": 0.952755905511811
          },
          {
            "number": 119,
            "time": 25.594999999999995,
            "value": 0.047244094488188976
          },
          {
            "number": 119,
            "time": 25.644999999999996,
            "value": 0
          },
          {
            "number": 119,
            "time": 25.694999999999997,
            "value": 0.48031496062992124
          },
          {
            "number": 119,
            "time": 25.744999999999997,
            "value": 0.5196850393700787
          },
          {
            "number": 119,
            "time": 25.769999999999996,
            "value": 0
          },
          {
            "number": 119,
            "time": 25.799999999999997,
            "value": 0.03937007874015748
          },
          {
            "number": 119,
            "time": 25.949999999999996,
            "value": 0.9606299212598425
          },
          {
            "number": 119,
            "time": 26.024999999999995,
            "value": 0
          },
          {
            "number": 119,
            "time": 26.099999999999994,
            "value": 0.7322834645669292
          },
          {
            "number": 119,
            "time": 26.399999999999995,
            "value": 0.2677165354330709
          },
          {
            "number": 119,
            "time": 26.549999999999994,
            "value": 0
          },
          {
            "number": 119,
            "time": 26.699999999999992,
            "value": 0.3543307086614173
          },
          {
            "number": 119,
            "time": 26.749999999999993,
            "value": 0.6456692913385826
          },
          {
            "number": 119,
            "time": 26.77499999999999,
            "value": 0
          },
          {
            "number": 119,
            "time": 27.29999999999999,
            "value": 0.8582677165354331
          },
          {
            "number": 119,
            "time": 27.35999999999999,
            "value": 0.14173228346456693
          },
          {
            "number": 119,
            "time": 27.38999999999999,
            "value": 0
          },
          {
            "number": 119,
            "time": 27.41999999999999,
            "value": 0.4566929133858268
          },
          {
            "number": 119,
            "time": 27.50999999999999,
            "value": 0.5433070866141733
          },
          {
            "number": 119,
            "time": 27.554999999999993,
            "value": 0
          },
          {
            "number": 119,
            "time": 27.599999999999994,
            "value": 0.5748031496062992
          },
          {
            "number": 119,
            "time": 27.749999999999993,
            "value": 0.4251968503937008
          },
          {
            "number": 119,
            "time": 27.824999999999992,
            "value": 0
          },
          {
            "number": 119,
            "time": 27.89999999999999,
            "value": 0.9448818897637795
          },
          {
            "number": 119,
            "time": 27.944999999999993,
            "value": 0.05511811023622047
          },
          {
            "number": 119,
            "time": 27.964999999999993,
            "value": 0
          },
          {
            "number": 119,
            "time": 28.199999999999978,
            "value": 0.7874015748031497
          },
          {
            "number": 119,
            "time": 28.349999999999977,
            "value": 0.2125984251968504
          },
          {
            "number": 119,
            "time": 28.424999999999976,
            "value": 0
          },
          {
            "number": 119,
            "time": 28.499999999999975,
            "value": 0.7007874015748031
          },
          {
            "number": 119,
            "time": 28.794999999999977,
            "value": 0.2992125984251969
          },
          {
            "number": 119,
            "time": 28.939999999999976,
            "value": 0
          },
          {
            "number": 119,
            "time": 29.569999999999983,
            "value": 0.2755905511811024
          },
          {
            "number": 119,
            "time": 29.634999999999984,
            "value": 0.7244094488188977
          },
          {
            "number": 119,
            "time": 29.664999999999985,
            "value": 0
          },
          {
            "number": 119,
            "time": 29.699999999999985,
            "value": 0.9212598425196851
          },
          {
            "number": 119,
            "time": 29.764999999999986,
            "value": 0.07874015748031496
          },
          {
            "number": 119,
            "time": 29.794999999999987,
            "value": 0
          },
          {
            "number": 119,
            "time": 29.849999999999987,
            "value": 0.4330708661417323
          },
          {
            "number": 119,
            "time": 29.924999999999986,
            "value": 0.5669291338582677
          },
          {
            "number": 119,
            "time": 29.959999999999987,
            "value": 0
          },
          {
            "number": 119,
            "time": 29.999999999999986,
            "value": 0.937007874015748
          },
          {
            "number": 119,
            "time": 30.149999999999984,
            "value": 0.06299212598425197
          },
          {
            "number": 119,
            "time": 30.224999999999984,
            "value": 0
          },
          {
            "number": 119,
            "time": 30.299999999999983,
            "value": 0.4881889763779528
          },
          {
            "number": 119,
            "time": 30.44999999999998,
            "value": 0.5118110236220472
          },
          {
            "number": 119,
            "time": 30.52499999999998,
            "value": 0
          },
          {
            "number": 119,
            "time": 30.59999999999998,
            "value": 0.06299212598425197
          },
          {
            "number": 119,
            "time": 30.74499999999998,
            "value": 0.937007874015748
          },
          {
            "number": 119,
            "time": 30.81999999999998,
            "value": 0
          },
          {
            "number": 119,
            "time": 31.164999999999985,
            "value": 0.7322834645669292
          },
          {
            "number": 119,
            "time": 31.329999999999984,
            "value": 0.2677165354330709
          },
          {
            "number": 119,
            "time": 31.414999999999985,
            "value": 0
          },
          {
            "number": 119,
            "time": 31.499999999999986,
            "value": 0.6456692913385826
          },
          {
            "number": 119,
            "time": 31.569999999999986,
            "value": 0.3543307086614173
          },
          {
            "number": 119,
            "time": 31.604999999999986,
            "value": 0
          },
          {
            "number": 119,
            "time": 32.214999999999996,
            "value": 0.28346456692913385
          },
          {
            "number": 119,
            "time": 32.305,
            "value": 0.7165354330708661
          },
          {
            "number": 119,
            "time": 32.35,
            "value": 0
          },
          {
            "number": 119,
            "time": 32.4,
            "value": 0.7874015748031497
          },
          {
            "number": 119,
            "time": 32.684999999999995,
            "value": 0.2125984251968504
          },
          {
            "number": 119,
            "time": 32.824999999999996,
            "value": 0
          },
          {
            "number": 119,
            "time": 33.030000000000015,
            "value": 0.49606299212598426
          },
          {
            "number": 119,
            "time": 33.13500000000001,
            "value": 0.5039370078740157
          },
          {
            "number": 119,
            "time": 33.18500000000001,
            "value": 0
          },
          {
            "number": 119,
            "time": 33.39000000000005,
            "value": 0.047244094488188976
          },
          {
            "number": 119,
            "time": 33.49500000000005,
            "value": 0.952755905511811
          },
          {
            "number": 119,
            "time": 33.545000000000044,
            "value": 0
          },
          {
            "number": 119,
            "time": 33.600000000000044,
            "value": 0.6220472440944882
          },
          {
            "number": 119,
            "time": 34.060000000000045,
            "value": 0.3779527559055118
          },
          {
            "number": 119,
            "time": 34.29000000000004,
            "value": 0
          },
          {
            "number": 119,
            "time": 34.57500000000004,
            "value": 0.2047244094488189
          },
          {
            "number": 119,
            "time": 34.68500000000004,
            "value": 0.7952755905511811
          },
          {
            "number": 119,
            "time": 34.74000000000004,
            "value": 0
          },
          {
            "number": 119,
            "time": 34.99500000000009,
            "value": 0.6377952755905512
          },
          {
            "number": 119,
            "time": 35.04500000000009,
            "value": 0.36220472440944884
          },
          {
            "number": 119,
            "time": 35.070000000000086,
            "value": 0
          },
          {
            "number": 119,
            "time": 35.10000000000009,
            "value": 0.7244094488188977
          },
          {
            "number": 119,
            "time": 35.195000000000086,
            "value": 0.2755905511811024
          },
          {
            "number": 119,
            "time": 35.24500000000008,
            "value": 0
          },
          {
            "number": 119,
            "time": 35.29500000000008,
            "value": 0.47244094488188976
          },
          {
            "number": 119,
            "time": 35.34500000000008,
            "value": 0.5275590551181102
          },
          {
            "number": 119,
            "time": 35.370000000000076,
            "value": 0
          },
          {
            "number": 119,
            "time": 35.40000000000008,
            "value": 0.3464566929133858
          },
          {
            "number": 119,
            "time": 35.550000000000075,
            "value": 0.6535433070866141
          },
          {
            "number": 119,
            "time": 35.62500000000008,
            "value": 0
          },
          {
            "number": 119,
            "time": 35.70000000000008,
            "value": 0.29133858267716534
          },
          {
            "number": 119,
            "time": 36.00000000000008,
            "value": 0.7086614173228346
          },
          {
            "number": 119,
            "time": 36.15000000000008,
            "value": 0
          },
          {
            "number": 119,
            "time": 36.300000000000075,
            "value": 1
          },
          {
            "number": 119,
            "time": 36.35000000000007,
            "value": 0
          },
          {
            "number": 119,
            "time": 36.37500000000007,
            "value": 0
          },
          {
            "number": 119,
            "time": 36.9000000000001,
            "value": 0.7244094488188977
          },
          {
            "number": 119,
            "time": 36.9600000000001,
            "value": 0.2755905511811024
          },
          {
            "number": 119,
            "time": 36.9900000000001,
            "value": 0
          },
          {
            "number": 119,
            "time": 37.0200000000001,
            "value": 0.2204724409448819
          },
          {
            "number": 119,
            "time": 37.110000000000106,
            "value": 0.7795275590551181
          },
          {
            "number": 119,
            "time": 37.15500000000011,
            "value": 0
          },
          {
            "number": 119,
            "time": 37.20000000000011,
            "value": 0.1968503937007874
          },
          {
            "number": 119,
            "time": 37.35000000000011,
            "value": 0.8031496062992126
          },
          {
            "number": 119,
            "time": 37.42500000000011,
            "value": 0
          },
          {
            "number": 119,
            "time": 37.500000000000114,
            "value": 0.1968503937007874
          },
          {
            "number": 119,
            "time": 37.545000000000115,
            "value": 0.8031496062992126
          },
          {
            "number": 119,
            "time": 37.56500000000012,
            "value": 0
          },
          {
            "number": 119,
            "time": 37.80000000000016,
            "value": 0.9133858267716536
          },
          {
            "number": 119,
            "time": 37.95000000000016,
            "value": 0.08661417322834646
          },
          {
            "number": 119,
            "time": 38.02500000000016,
            "value": 0
          },
          {
            "number": 119,
            "time": 38.100000000000165,
            "value": 0.5039370078740157
          },
          {
            "number": 119,
            "time": 38.39500000000017,
            "value": 0.49606299212598426
          },
          {
            "number": 119,
            "time": 38.54000000000017,
            "value": 0
          },
          {
            "number": 119,
            "time": 39.1700000000002,
            "value": 0.07086614173228346
          },
          {
            "number": 119,
            "time": 39.2350000000002,
            "value": 0.9291338582677166
          },
          {
            "number": 119,
            "time": 39.2650000000002,
            "value": 0
          },
          {
            "number": 119,
            "time": 39.300000000000196,
            "value": 0.6220472440944882
          },
          {
            "number": 119,
            "time": 39.365000000000194,
            "value": 0.3779527559055118
          },
          {
            "number": 119,
            "time": 39.395000000000195,
            "value": 0
          },
          {
            "number": 119,
            "time": 39.450000000000195,
            "value": 0.12598425196850394
          },
          {
            "number": 119,
            "time": 39.5250000000002,
            "value": 0.8740157480314961
          },
          {
            "number": 119,
            "time": 39.560000000000194,
            "value": 0
          },
          {
            "number": 119,
            "time": 39.60000000000019,
            "value": 0.7952755905511811
          },
          {
            "number": 119,
            "time": 39.75000000000019,
            "value": 0.2047244094488189
          },
          {
            "number": 119,
            "time": 39.825000000000195,
            "value": 0
          },
          {
            "number": 119,
            "time": 39.9000000000002,
            "value": 0.4094488188976378
          },
          {
            "number": 119,
            "time": 40.050000000000196,
            "value": 0.5905511811023622
          },
          {
            "number": 119,
            "time": 40.1250000000002,
            "value": 0
          },
          {
            "number": 119,
            "time": 40.2000000000002,
            "value": 0.952755905511811
          },
          {
            "number": 119,
            "time": 40.345000000000205,
            "value": 0.047244094488188976
          },
          {
            "number": 119,
            "time": 40.42000000000021,
            "value": 0
          },
          {
            "number": 119,
            "time": 40.76500000000023,
            "value": 0.5118110236220472
          },
          {
            "number": 119,
            "time": 40.93000000000023,
            "value": 0.4881889763779528
          },
          {
            "number": 119,
            "time": 41.01500000000023,
            "value": 0
          },
          {
            "number": 119,
            "time": 41.10000000000023,
            "value": 0.2283464566929134
          },
          {
            "number": 119,
            "time": 41.17000000000023,
            "value": 0.7716535433070866
          },
          {
            "number": 119,
            "time": 41.205000000000226,
            "value": 0
          }
        ]
      },
      "id": 16,
      "instrumentNumber": 66,
      "instrument": "tenor sax",
      "instrumentFamily": "reed",
      "channelNumber": 14,
      "isPercussion": false
    },
    {
      "startTime": 88.505,
      "duration": 220.85500000000013,
      "length": 6,
      "notes": [
        {
          "name": "A3",
          "midi": 57,
          "time": 88.505,
          "velocity": 0.4566929133858268,
          "duration": 0.3499999999999943
        },
        {
          "name": "A3",
          "midi": 57,
          "time": 95.70500000000001,
          "velocity": 0.4566929133858268,
          "duration": 0.3499999999999943
        },
        {
          "name": "A3",
          "midi": 57,
          "time": 153.30500000000018,
          "velocity": 0.4566929133858268,
          "duration": 0.3499999999999943
        },
        {
          "name": "A3",
          "midi": 57,
          "time": 162.90500000000017,
          "velocity": 0.4566929133858268,
          "duration": 0.3499999999999943
        },
        {
          "name": "A3",
          "midi": 57,
          "time": 215.70500000000015,
          "velocity": 0.4566929133858268,
          "duration": 0.3499999999999943
        },
        {
          "name": "A3",
          "midi": 57,
          "time": 220.50500000000014,
          "velocity": 0.4566929133858268,
          "duration": 0.3499999999999943
        }
      ],
      "controlChanges": {
        "7": [
          {
            "number": 7,
            "time": 0,
            "value": 1
          }
        ],
        "10": [
          {
            "number": 10,
            "time": 0,
            "value": 0.5039370078740157
          }
        ],
        "32": [
          {
            "number": 32,
            "time": 0,
            "value": 0
          }
        ],
        "119": [
          {
            "number": 119,
            "time": 88.505,
            "value": 0.984251968503937
          },
          {
            "number": 119,
            "time": 88.67999999999999,
            "value": 0.015748031496062992
          },
          {
            "number": 119,
            "time": 88.76499999999999,
            "value": 0
          },
          {
            "number": 119,
            "time": 88.85499999999999,
            "value": 0.5196850393700787
          },
          {
            "number": 119,
            "time": 89.35,
            "value": 0.48031496062992124
          },
          {
            "number": 119,
            "time": 89.6,
            "value": 0
          },
          {
            "number": 119,
            "time": 89.85,
            "value": 0.047244094488188976
          },
          {
            "number": 119,
            "time": 90.345,
            "value": 0.952755905511811
          },
          {
            "number": 119,
            "time": 90.595,
            "value": 0
          },
          {
            "number": 119,
            "time": 90.845,
            "value": 0.6141732283464567
          },
          {
            "number": 119,
            "time": 91.34,
            "value": 0.3858267716535433
          },
          {
            "number": 119,
            "time": 91.59,
            "value": 0
          },
          {
            "number": 119,
            "time": 91.84,
            "value": 0.2992125984251969
          },
          {
            "number": 119,
            "time": 92.33500000000001,
            "value": 0.7007874015748031
          },
          {
            "number": 119,
            "time": 92.58500000000001,
            "value": 0
          },
          {
            "number": 119,
            "time": 92.83500000000001,
            "value": 0.9291338582677166
          },
          {
            "number": 119,
            "time": 93.33000000000001,
            "value": 0.07086614173228346
          },
          {
            "number": 119,
            "time": 93.58000000000001,
            "value": 0
          },
          {
            "number": 119,
            "time": 93.83000000000001,
            "value": 0.4251968503937008
          },
          {
            "number": 119,
            "time": 94.32500000000002,
            "value": 0.5748031496062992
          },
          {
            "number": 119,
            "time": 94.57500000000002,
            "value": 0
          },
          {
            "number": 119,
            "time": 94.82500000000002,
            "value": 0.023622047244094488
          },
          {
            "number": 119,
            "time": 95.26500000000001,
            "value": 0.9763779527559056
          },
          {
            "number": 119,
            "time": 95.48500000000001,
            "value": 0
          },
          {
            "number": 119,
            "time": 95.70500000000001,
            "value": 0.14173228346456693
          },
          {
            "number": 119,
            "time": 95.88000000000001,
            "value": 0.8582677165354331
          },
          {
            "number": 119,
            "time": 95.965,
            "value": 0
          },
          {
            "number": 119,
            "time": 96.055,
            "value": 0.5118110236220472
          },
          {
            "number": 119,
            "time": 96.55000000000001,
            "value": 0.4881889763779528
          },
          {
            "number": 119,
            "time": 96.80000000000001,
            "value": 0
          },
          {
            "number": 119,
            "time": 97.05000000000001,
            "value": 0.3543307086614173
          },
          {
            "number": 119,
            "time": 97.54500000000002,
            "value": 0.6456692913385826
          },
          {
            "number": 119,
            "time": 97.79500000000002,
            "value": 0
          },
          {
            "number": 119,
            "time": 98.04500000000002,
            "value": 0.2677165354330709
          },
          {
            "number": 119,
            "time": 98.54000000000002,
            "value": 0.7322834645669292
          },
          {
            "number": 119,
            "time": 98.79000000000002,
            "value": 0
          },
          {
            "number": 119,
            "time": 99.04000000000002,
            "value": 0.8503937007874016
          },
          {
            "number": 119,
            "time": 99.53500000000003,
            "value": 0.14960629921259844
          },
          {
            "number": 119,
            "time": 99.78500000000003,
            "value": 0
          },
          {
            "number": 119,
            "time": 100.03500000000003,
            "value": 0.4881889763779528
          },
          {
            "number": 119,
            "time": 100.53000000000003,
            "value": 0.5118110236220472
          },
          {
            "number": 119,
            "time": 100.78000000000003,
            "value": 0
          },
          {
            "number": 119,
            "time": 101.03000000000003,
            "value": 0
          },
          {
            "number": 119,
            "time": 101.52500000000003,
            "value": 1
          },
          {
            "number": 119,
            "time": 101.77500000000003,
            "value": 0
          },
          {
            "number": 119,
            "time": 102.02500000000003,
            "value": 0.5039370078740157
          },
          {
            "number": 119,
            "time": 102.52000000000004,
            "value": 0.49606299212598426
          },
          {
            "number": 119,
            "time": 102.77000000000004,
            "value": 0
          },
          {
            "number": 119,
            "time": 103.02000000000004,
            "value": 0.05511811023622047
          },
          {
            "number": 119,
            "time": 103.51500000000004,
            "value": 0.9448818897637795
          },
          {
            "number": 119,
            "time": 103.76500000000004,
            "value": 0
          },
          {
            "number": 119,
            "time": 104.01500000000004,
            "value": 0.6377952755905512
          },
          {
            "number": 119,
            "time": 104.51000000000005,
            "value": 0.36220472440944884
          },
          {
            "number": 119,
            "time": 104.76000000000005,
            "value": 0
          },
          {
            "number": 119,
            "time": 105.01000000000005,
            "value": 0.2992125984251969
          },
          {
            "number": 119,
            "time": 105.50500000000005,
            "value": 0.7007874015748031
          },
          {
            "number": 119,
            "time": 105.75500000000005,
            "value": 0
          },
          {
            "number": 119,
            "time": 106.00500000000005,
            "value": 0.2125984251968504
          },
          {
            "number": 119,
            "time": 106.50000000000006,
            "value": 0.7874015748031497
          },
          {
            "number": 119,
            "time": 106.75000000000006,
            "value": 0
          },
          {
            "number": 119,
            "time": 107.00000000000006,
            "value": 0.8582677165354331
          },
          {
            "number": 119,
            "time": 107.49500000000006,
            "value": 0.14173228346456693
          },
          {
            "number": 119,
            "time": 107.74500000000006,
            "value": 0
          },
          {
            "number": 119,
            "time": 107.99500000000006,
            "value": 0.3543307086614173
          },
          {
            "number": 119,
            "time": 108.49000000000007,
            "value": 0.6456692913385826
          },
          {
            "number": 119,
            "time": 108.74000000000007,
            "value": 0
          },
          {
            "number": 119,
            "time": 108.99000000000007,
            "value": 0.06299212598425197
          },
          {
            "number": 119,
            "time": 109.48500000000007,
            "value": 0.937007874015748
          },
          {
            "number": 119,
            "time": 109.73500000000007,
            "value": 0
          },
          {
            "number": 119,
            "time": 109.98500000000007,
            "value": 0.6220472440944882
          },
          {
            "number": 119,
            "time": 110.48000000000008,
            "value": 0.3779527559055118
          },
          {
            "number": 119,
            "time": 110.73000000000008,
            "value": 0
          },
          {
            "number": 119,
            "time": 110.98000000000008,
            "value": 0.1889763779527559
          },
          {
            "number": 119,
            "time": 111.47500000000008,
            "value": 0.8110236220472441
          },
          {
            "number": 119,
            "time": 111.72500000000008,
            "value": 0
          },
          {
            "number": 119,
            "time": 111.97500000000008,
            "value": 0.7795275590551181
          },
          {
            "number": 119,
            "time": 112.47000000000008,
            "value": 0.2204724409448819
          },
          {
            "number": 119,
            "time": 112.72000000000008,
            "value": 0
          },
          {
            "number": 119,
            "time": 112.97000000000008,
            "value": 0.2047244094488189
          },
          {
            "number": 119,
            "time": 113.46500000000009,
            "value": 0.7952755905511811
          },
          {
            "number": 119,
            "time": 113.71500000000009,
            "value": 0
          },
          {
            "number": 119,
            "time": 113.96500000000009,
            "value": 0.29133858267716534
          },
          {
            "number": 119,
            "time": 114.4600000000001,
            "value": 0.7086614173228346
          },
          {
            "number": 119,
            "time": 114.7100000000001,
            "value": 0
          },
          {
            "number": 119,
            "time": 114.9600000000001,
            "value": 0.03937007874015748
          },
          {
            "number": 119,
            "time": 115.4550000000001,
            "value": 0.9606299212598425
          },
          {
            "number": 119,
            "time": 115.7050000000001,
            "value": 0
          },
          {
            "number": 119,
            "time": 115.9550000000001,
            "value": 0.9212598425196851
          },
          {
            "number": 119,
            "time": 116.4500000000001,
            "value": 0.07874015748031496
          },
          {
            "number": 119,
            "time": 116.7000000000001,
            "value": 0
          },
          {
            "number": 119,
            "time": 116.9500000000001,
            "value": 0.8661417322834646
          },
          {
            "number": 119,
            "time": 117.4450000000001,
            "value": 0.13385826771653545
          },
          {
            "number": 119,
            "time": 117.6950000000001,
            "value": 0
          },
          {
            "number": 119,
            "time": 117.9450000000001,
            "value": 0.5669291338582677
          },
          {
            "number": 119,
            "time": 118.44000000000011,
            "value": 0.4330708661417323
          },
          {
            "number": 119,
            "time": 118.69000000000011,
            "value": 0
          },
          {
            "number": 119,
            "time": 118.94000000000011,
            "value": 0.29133858267716534
          },
          {
            "number": 119,
            "time": 119.43500000000012,
            "value": 0.7086614173228346
          },
          {
            "number": 119,
            "time": 119.68500000000012,
            "value": 0
          },
          {
            "number": 119,
            "time": 119.93500000000012,
            "value": 0.7952755905511811
          },
          {
            "number": 119,
            "time": 120.43000000000012,
            "value": 0.2047244094488189
          },
          {
            "number": 119,
            "time": 120.68000000000012,
            "value": 0
          },
          {
            "number": 119,
            "time": 120.93000000000012,
            "value": 0.7716535433070866
          },
          {
            "number": 119,
            "time": 121.42500000000013,
            "value": 0.2283464566929134
          },
          {
            "number": 119,
            "time": 121.67500000000013,
            "value": 0
          },
          {
            "number": 119,
            "time": 121.92500000000013,
            "value": 0.7716535433070866
          },
          {
            "number": 119,
            "time": 122.42000000000013,
            "value": 0.2283464566929134
          },
          {
            "number": 119,
            "time": 122.67000000000013,
            "value": 0
          },
          {
            "number": 119,
            "time": 122.92000000000013,
            "value": 0.48031496062992124
          },
          {
            "number": 119,
            "time": 123.41500000000013,
            "value": 0.5196850393700787
          },
          {
            "number": 119,
            "time": 123.66500000000013,
            "value": 0
          },
          {
            "number": 119,
            "time": 123.91500000000013,
            "value": 0.07086614173228346
          },
          {
            "number": 119,
            "time": 124.41000000000014,
            "value": 0.9291338582677166
          },
          {
            "number": 119,
            "time": 124.66000000000014,
            "value": 0
          },
          {
            "number": 119,
            "time": 124.91000000000014,
            "value": 0.6456692913385826
          },
          {
            "number": 119,
            "time": 125.40500000000014,
            "value": 0.3543307086614173
          },
          {
            "number": 119,
            "time": 125.65500000000014,
            "value": 0
          },
          {
            "number": 119,
            "time": 125.90500000000014,
            "value": 0.1889763779527559
          },
          {
            "number": 119,
            "time": 126.40000000000015,
            "value": 0.8110236220472441
          },
          {
            "number": 119,
            "time": 126.65000000000015,
            "value": 0
          },
          {
            "number": 119,
            "time": 126.90000000000015,
            "value": 0.7007874015748031
          },
          {
            "number": 119,
            "time": 127.39500000000015,
            "value": 0.2992125984251969
          },
          {
            "number": 119,
            "time": 127.64500000000015,
            "value": 0
          },
          {
            "number": 119,
            "time": 127.89500000000015,
            "value": 0.36220472440944884
          },
          {
            "number": 119,
            "time": 128.39000000000016,
            "value": 0.6377952755905512
          },
          {
            "number": 119,
            "time": 128.64000000000016,
            "value": 0
          },
          {
            "number": 119,
            "time": 128.89000000000016,
            "value": 0.984251968503937
          },
          {
            "number": 119,
            "time": 129.38500000000016,
            "value": 0.015748031496062992
          },
          {
            "number": 119,
            "time": 129.63500000000016,
            "value": 0
          },
          {
            "number": 119,
            "time": 129.88500000000016,
            "value": 0.5196850393700787
          },
          {
            "number": 119,
            "time": 130.38000000000017,
            "value": 0.48031496062992124
          },
          {
            "number": 119,
            "time": 130.63000000000017,
            "value": 0
          },
          {
            "number": 119,
            "time": 130.88000000000017,
            "value": 0.07874015748031496
          },
          {
            "number": 119,
            "time": 131.37500000000017,
            "value": 0.9212598425196851
          },
          {
            "number": 119,
            "time": 131.62500000000017,
            "value": 0
          },
          {
            "number": 119,
            "time": 131.87500000000017,
            "value": 0.8031496062992126
          },
          {
            "number": 119,
            "time": 132.37000000000018,
            "value": 0.1968503937007874
          },
          {
            "number": 119,
            "time": 132.62000000000018,
            "value": 0
          }
        ]
      },
      "id": 17,
      "instrumentNumber": 120,
      "instrument": "guitar fret noise",
      "instrumentFamily": "sound effects",
      "channelNumber": 15,
      "isPercussion": false
    }
  ]
}
