{"notes": [
	{
		"name": "F3",
		"midi": 53,
		"time": 25.2,
		"velocity": 0.7244094488188977,
		"duration": 0.29999999999999716
	},
	{
		"name": "G3",
		"midi": 55,
		"time": 25.499999999999996,
		"velocity": 0.7244094488188977,
		"duration": 0.19500000000000028
	},
	{
		"name": "F3",
		"midi": 53,
		"time": 25.799999999999997,
		"velocity": 0.7244094488188977,
		"duration": 0.29999999999999716
	},
	{
		"name": "C4",
		"midi": 60,
		"time": 26.099999999999994,
		"velocity": 0.7244094488188977,
		"duration": 0.5999999999999979
	},
	{
		"name": "A3",
		"midi": 57,
		"time": 26.699999999999992,
		"velocity": 0.7244094488188977,
		"duration": 0.5999999999999979
	},
	{
		"name": "F3",
		"midi": 53,
		"time": 27.599999999999994,
		"velocity": 0.7244094488188977,
		"duration": 0.29999999999999716
	},
	{
		"name": "G3",
		"midi": 55,
		"time": 27.89999999999999,
		"velocity": 0.7244094488188977,
		"duration": 0.2999999999999865
	},
	{
		"name": "F3",
		"midi": 53,
		"time": 28.199999999999978,
		"velocity": 0.7244094488188977,
		"duration": 0.29999999999999716
	},
	{
		"name": "C4",
		"midi": 60,
		"time": 28.499999999999975,
		"velocity": 0.7322834645669292,
		"duration": 0.6000000000000014
	},
	{
		"name": "A3",
		"midi": 57,
		"time": 29.099999999999977,
		"velocity": 0.7322834645669292,
		"duration": 0.6000000000000085
	},
	{
		"name": "C3",
		"midi": 48,
		"time": 29.849999999999987,
		"velocity": 0.7322834645669292,
		"duration": 0.14999999999999858
	},
	{
		"name": "F3",
		"midi": 53,
		"time": 29.999999999999986,
		"velocity": 0.7322834645669292,
		"duration": 0.29999999999999716
	},
	{
		"name": "G3",
		"midi": 55,
		"time": 30.299999999999983,
		"velocity": 0.7322834645669292,
		"duration": 0.29999999999999716
	},
	{
		"name": "F3",
		"midi": 53,
		"time": 30.59999999999998,
		"velocity": 0.7322834645669292,
		"duration": 0.29999999999999716
	},
	{
		"name": "G3",
		"midi": 55,
		"time": 30.899999999999977,
		"velocity": 0.7322834645669292,
		"duration": 0.6000000000000085
	},
	{
		"name": "A3",
		"midi": 57,
		"time": 31.499999999999986,
		"velocity": 0.7322834645669292,
		"duration": 0.6000000000000014
	},
	{
		"name": "A3",
		"midi": 57,
		"time": 32.09999999999999,
		"velocity": 0.7322834645669292,
		"duration": 0.30000000000001137
	},
	{
		"name": "G3",
		"midi": 55,
		"time": 32.4,
		"velocity": 0.7322834645669292,
		"duration": 0.6000000000000085
	},
	{
		"name": "G3",
		"midi": 55,
		"time": 33.00000000000001,
		"velocity": 0.7322834645669292,
		"duration": 0.600000000000037
	},
	{
		"name": "F3",
		"midi": 53,
		"time": 34.80000000000004,
		"velocity": 0.7244094488188977,
		"duration": 0.3000000000000469
	},
	{
		"name": "G3",
		"midi": 55,
		"time": 35.10000000000009,
		"velocity": 0.7244094488188977,
		"duration": 0.19499999999999318
	},
	{
		"name": "F3",
		"midi": 53,
		"time": 35.40000000000008,
		"velocity": 0.7244094488188977,
		"duration": 0.30000000000000426
	},
	{
		"name": "C4",
		"midi": 60,
		"time": 35.70000000000008,
		"velocity": 0.7244094488188977,
		"duration": 0.5999999999999943
	},
	{
		"name": "A3",
		"midi": 57,
		"time": 36.300000000000075,
		"velocity": 0.7244094488188977,
		"duration": 0.6000000000000227
	},
	{
		"name": "F3",
		"midi": 53,
		"time": 37.20000000000011,
		"velocity": 0.7244094488188977,
		"duration": 0.30000000000000426
	},
	{
		"name": "G3",
		"midi": 55,
		"time": 37.500000000000114,
		"velocity": 0.7244094488188977,
		"duration": 0.3000000000000469
	},
	{
		"name": "F3",
		"midi": 53,
		"time": 37.80000000000016,
		"velocity": 0.7244094488188977,
		"duration": 0.30000000000000426
	},
	{
		"name": "C4",
		"midi": 60,
		"time": 38.100000000000165,
		"velocity": 0.7322834645669292,
		"duration": 0.6000000000000014
	},
	{
		"name": "A3",
		"midi": 57,
		"time": 38.700000000000166,
		"velocity": 0.7322834645669292,
		"duration": 0.6000000000000298
	},
	{
		"name": "C3",
		"midi": 48,
		"time": 39.450000000000195,
		"velocity": 0.7322834645669292,
		"duration": 0.14999999999999858
	},
	{
		"name": "F3",
		"midi": 53,
		"time": 39.60000000000019,
		"velocity": 0.7322834645669292,
		"duration": 0.30000000000000426
	},
	{
		"name": "G3",
		"midi": 55,
		"time": 39.9000000000002,
		"velocity": 0.7322834645669292,
		"duration": 0.30000000000000426
	},
	{
		"name": "F3",
		"midi": 53,
		"time": 40.2000000000002,
		"velocity": 0.7322834645669292,
		"duration": 0.30000000000001137
	},
	{
		"name": "G3",
		"midi": 55,
		"time": 40.50000000000021,
		"velocity": 0.7322834645669292,
		"duration": 0.6000000000000156
	},
	{
		"name": "A3",
		"midi": 57,
		"time": 41.10000000000023,
		"velocity": 0.7322834645669292,
		"duration": 0.6000000000000654
	},
	{
		"name": "A3",
		"midi": 57,
		"time": 41.700000000000294,
		"velocity": 0.7322834645669292,
		"duration": 0.30000000000001137
	},
	{
		"name": "G3",
		"midi": 55,
		"time": 42.000000000000306,
		"velocity": 0.7322834645669292,
		"duration": 0.6000000000000085
	},
	{
		"name": "G3",
		"midi": 55,
		"time": 42.600000000000314,
		"velocity": 0.7322834645669292,
		"duration": 1.2000000000000455
	},
	{
		"name": "F3",
		"midi": 53,
		"time": 44.39500000000036,
		"velocity": 0.7322834645669292,
		"duration": 0.3049999999999997
	},
	{
		"name": "G3",
		"midi": 55,
		"time": 44.70000000000036,
		"velocity": 0.7322834645669292,
		"duration": 0.6000000000000512
	},
	{
		"name": "C4",
		"midi": 60,
		"time": 45.30000000000041,
		"velocity": 0.7322834645669292,
		"duration": 0.6000000000000014
	},
	{
		"name": "A3",
		"midi": 57,
		"time": 45.90000000000041,
		"velocity": 0.7322834645669292,
		"duration": 0.6000000000000725
	},
	{
		"name": "C3",
		"midi": 48,
		"time": 46.65000000000048,
		"velocity": 0.7322834645669292,
		"duration": 0.14999999999999858
	},
	{
		"name": "F3",
		"midi": 53,
		"time": 46.80000000000048,
		"velocity": 0.7322834645669292,
		"duration": 0.3049999999999997
	},
	{
		"name": "G3",
		"midi": 55,
		"time": 47.10000000000048,
		"velocity": 0.7322834645669292,
		"duration": 0.3050000000000068
	},
	{
		"name": "F3",
		"midi": 53,
		"time": 47.40000000000048,
		"velocity": 0.7322834645669292,
		"duration": 0.3050000000000068
	},
	{
		"name": "C4",
		"midi": 60,
		"time": 47.700000000000486,
		"velocity": 0.7322834645669292,
		"duration": 0.6000000000000014
	},
	{
		"name": "A3",
		"midi": 57,
		"time": 48.30000000000049,
		"velocity": 0.7322834645669292,
		"duration": 0.6000000000000156
	},
	{
		"name": "F3",
		"midi": 53,
		"time": 49.20000000000051,
		"velocity": 0.7322834645669292,
		"duration": 0.29999999999999716
	},
	{
		"name": "G3",
		"midi": 55,
		"time": 49.500000000000504,
		"velocity": 0.7322834645669292,
		"duration": 0.3000000000000256
	},
	{
		"name": "F3",
		"midi": 53,
		"time": 49.80000000000053,
		"velocity": 0.7322834645669292,
		"duration": 0.30000000000000426
	},
	{
		"name": "A3",
		"midi": 57,
		"time": 50.100000000000534,
		"velocity": 0.7322834645669292,
		"duration": 0.30000000000001137
	},
	{
		"name": "A3",
		"midi": 57,
		"time": 50.70000000000054,
		"velocity": 0.7322834645669292,
		"duration": 0.6000000000001151
	},
	{
		"name": "A3",
		"midi": 57,
		"time": 51.30000000000066,
		"velocity": 0.7322834645669292,
		"duration": 0.29999999999999716
	},
	{
		"name": "G3",
		"midi": 55,
		"time": 51.600000000000655,
		"velocity": 0.7322834645669292,
		"duration": 2.2500000000002345
	},
	{
		"name": "F3",
		"midi": 53,
		"time": 54.00000000000091,
		"velocity": 0.6771653543307087,
		"duration": 0.29999999999999716
	},
	{
		"name": "G3",
		"midi": 55,
		"time": 54.30000000000091,
		"velocity": 0.6771653543307087,
		"duration": 0.600000000000044
	},
	{
		"name": "C4",
		"midi": 60,
		"time": 54.90000000000095,
		"velocity": 0.6771653543307087,
		"duration": 0.600000000000044
	},
	{
		"name": "G3",
		"midi": 55,
		"time": 55.500000000000995,
		"velocity": 0.6771653543307087,
		"duration": 0.5999999999999872
	},
	{
		"name": "F3",
		"midi": 53,
		"time": 56.400000000001015,
		"velocity": 0.6771653543307087,
		"duration": 0.29999999999999716
	},
	{
		"name": "G3",
		"midi": 55,
		"time": 56.70000000000101,
		"velocity": 0.6771653543307087,
		"duration": 0.600000000000044
	},
	{
		"name": "C4",
		"midi": 60,
		"time": 57.300000000001056,
		"velocity": 0.6771653543307087,
		"duration": 0.600000000000044
	},
	{
		"name": "G3",
		"midi": 55,
		"time": 57.9000000000011,
		"velocity": 0.6771653543307087,
		"duration": 0.5999999999999872
	},
	{
		"name": "F3",
		"midi": 53,
		"time": 58.80000000000111,
		"velocity": 0.7244094488188977,
		"duration": 0.29999999999999716
	},
	{
		"name": "G3",
		"midi": 55,
		"time": 59.10000000000111,
		"velocity": 0.7165354330708661,
		"duration": 0.29999999999999716
	},
	{
		"name": "F3",
		"midi": 53,
		"time": 59.40000000000111,
		"velocity": 0.7165354330708661,
		"duration": 0.29999999999999716
	},
	{
		"name": "A3",
		"midi": 57,
		"time": 59.700000000001104,
		"velocity": 0.6771653543307087,
		"duration": 1.0500000000000398
	},
	{
		"name": "A3",
		"midi": 57,
		"time": 60.90000000000114,
		"velocity": 0.6771653543307087,
		"duration": 0.3000000000000469
	},
	{
		"name": "G3",
		"midi": 55,
		"time": 61.20000000000119,
		"velocity": 0.7322834645669292,
		"duration": 1.985000000000241
	},
	{
		"name": "F4",
		"midi": 65,
		"time": 63.30000000000144,
		"velocity": 0.7322834645669292,
		"duration": 0.6000000000000156
	},
	{
		"name": "D4",
		"midi": 62,
		"time": 63.90500000000146,
		"velocity": 0.7007874015748031,
		"duration": 0.2949999999999946
	},
	{
		"name": "C4",
		"midi": 60,
		"time": 64.20000000000145,
		"velocity": 0.7007874015748031,
		"duration": 0.2950000000000017
	},
	{
		"name": "F4",
		"midi": 65,
		"time": 64.50000000000145,
		"velocity": 0.7322834645669292,
		"duration": 0.5999999999999943
	},
	{
		"name": "D4",
		"midi": 62,
		"time": 65.10000000000144,
		"velocity": 0.7007874015748031,
		"duration": 0.2950000000000017
	},
	{
		"name": "C4",
		"midi": 60,
		"time": 65.40000000000144,
		"velocity": 0.7007874015748031,
		"duration": 0.2950000000000017
	},
	{
		"name": "F4",
		"midi": 65,
		"time": 65.70000000000144,
		"velocity": 0.7322834645669292,
		"duration": 0.5999999999999233
	},
	{
		"name": "C4",
		"midi": 60,
		"time": 66.30000000000136,
		"velocity": 0.7322834645669292,
		"duration": 1.3500000000000227
	},
	{
		"name": "A3",
		"midi": 57,
		"time": 68.1000000000014,
		"velocity": 0.7322834645669292,
		"duration": 0.5999999999998664
	},
	{
		"name": "C4",
		"midi": 60,
		"time": 68.70000000000127,
		"velocity": 0.7322834645669292,
		"duration": 0.29999999999999716
	},
	{
		"name": "A3",
		"midi": 57,
		"time": 69.00000000000126,
		"velocity": 0.7322834645669292,
		"duration": 0.29999999999999716
	},
	{
		"name": "D4",
		"midi": 62,
		"time": 69.30000000000126,
		"velocity": 0.7322834645669292,
		"duration": 0.5999999999998664
	},
	{
		"name": "A3",
		"midi": 57,
		"time": 69.90000000000113,
		"velocity": 0.7322834645669292,
		"duration": 0.29999999999999716
	},
	{
		"name": "A3",
		"midi": 57,
		"time": 70.20000000000113,
		"velocity": 0.7322834645669292,
		"duration": 0.2999999999999545
	},
	{
		"name": "A3",
		"midi": 57,
		"time": 70.50000000000108,
		"velocity": 0.7322834645669292,
		"duration": 0.29999999999998295
	},
	{
		"name": "G3",
		"midi": 55,
		"time": 70.80000000000106,
		"velocity": 0.7322834645669292,
		"duration": 1.799999999999585
	},
	{
		"name": "F4",
		"midi": 65,
		"time": 72.90000000000056,
		"velocity": 0.7322834645669292,
		"duration": 0.5999999999999943
	},
	{
		"name": "D4",
		"midi": 62,
		"time": 73.50500000000055,
		"velocity": 0.7007874015748031,
		"duration": 0.2950000000000017
	},
	{
		"name": "C4",
		"midi": 60,
		"time": 73.80000000000055,
		"velocity": 0.7007874015748031,
		"duration": 0.2950000000000017
	},
	{
		"name": "F4",
		"midi": 65,
		"time": 74.10000000000055,
		"velocity": 0.7322834645669292,
		"duration": 0.5999999999999943
	},
	{
		"name": "D4",
		"midi": 62,
		"time": 74.70000000000054,
		"velocity": 0.7007874015748031,
		"duration": 0.2950000000000017
	},
	{
		"name": "C4",
		"midi": 60,
		"time": 75.00000000000054,
		"velocity": 0.7007874015748031,
		"duration": 0.2950000000000017
	},
	{
		"name": "F4",
		"midi": 65,
		"time": 75.30000000000054,
		"velocity": 0.7322834645669292,
		"duration": 0.5999999999999233
	},
	{
		"name": "C4",
		"midi": 60,
		"time": 75.90000000000046,
		"velocity": 0.7322834645669292,
		"duration": 1.3499999999999517
	},
	{
		"name": "A3",
		"midi": 57,
		"time": 77.70000000000034,
		"velocity": 0.7322834645669292,
		"duration": 0.5999999999998664
	},
	{
		"name": "C4",
		"midi": 60,
		"time": 78.30000000000021,
		"velocity": 0.7322834645669292,
		"duration": 0.29999999999999716
	},
	{
		"name": "C4",
		"midi": 60,
		"time": 78.60000000000021,
		"velocity": 0.7322834645669292,
		"duration": 0.29999999999999716
	},
	{
		"name": "A3",
		"midi": 57,
		"time": 78.9000000000002,
		"velocity": 0.7322834645669292,
		"duration": 0.29999999999999716
	},
	{
		"name": "A#3",
		"midi": 58,
		"time": 79.2000000000002,
		"velocity": 0.7322834645669292,
		"duration": 0.5999999999999375
	},
	{
		"name": "A3",
		"midi": 57,
		"time": 79.80000000000014,
		"velocity": 0.7322834645669292,
		"duration": 0.29999999999986926
	},
	{
		"name": "A3",
		"midi": 57,
		"time": 80.10000000000001,
		"velocity": 0.7322834645669292,
		"duration": 0.29999999999999716
	},
	{
		"name": "A3",
		"midi": 57,
		"time": 80.4,
		"velocity": 0.7322834645669292,
		"duration": 0.2999999999999403
	},
	{
		"name": "G3",
		"midi": 55,
		"time": 80.69999999999995,
		"velocity": 0.7322834645669292,
		"duration": 0.5999999999999517
	},
	{
		"name": "E3",
		"midi": 52,
		"time": 81.2999999999999,
		"velocity": 0.7322834645669292,
		"duration": 1.049999999999983
	},
	{
		"name": "A#3",
		"midi": 58,
		"time": 84.29999999999988,
		"velocity": 0.8031496062992126,
		"duration": 0.2999999999998977
	},
	{
		"name": "A#3",
		"midi": 58,
		"time": 84.59999999999978,
		"velocity": 0.8031496062992126,
		"duration": 0.29999999999999716
	},
	{
		"name": "E3",
		"midi": 52,
		"time": 84.89999999999978,
		"velocity": 0.8031496062992126,
		"duration": 0.29999999999999716
	},
	{
		"name": "A#3",
		"midi": 58,
		"time": 85.19999999999978,
		"velocity": 0.8031496062992126,
		"duration": 0.29999999999999716
	},
	{
		"name": "A#3",
		"midi": 58,
		"time": 85.49999999999977,
		"velocity": 0.8031496062992126,
		"duration": 0.29999999999999716
	},
	{
		"name": "A#3",
		"midi": 58,
		"time": 85.79999999999977,
		"velocity": 0.8031496062992126,
		"duration": 0.29999999999999716
	},
	{
		"name": "A#3",
		"midi": 58,
		"time": 86.09999999999977,
		"velocity": 0.8031496062992126,
		"duration": 0.2999999999999403
	},
	{
		"name": "A#3",
		"midi": 58,
		"time": 86.41499999999971,
		"velocity": 0.8031496062992126,
		"duration": 0.29999999999998295
	},
	{
		"name": "F#3",
		"midi": 54,
		"time": 86.70499999999969,
		"velocity": 0.6535433070866141,
		"duration": 0.6299999999999955
	},
	{
		"name": "F3",
		"midi": 53,
		"time": 106.79999999999967,
		"velocity": 0.8110236220472441,
		"duration": 0.29999999999999716
	},
	{
		"name": "G3",
		"midi": 55,
		"time": 107.09999999999967,
		"velocity": 0.8110236220472441,
		"duration": 0.19499999999999318
	},
	{
		"name": "F3",
		"midi": 53,
		"time": 107.39999999999966,
		"velocity": 0.8110236220472441,
		"duration": 0.29999999999999716
	},
	{
		"name": "C4",
		"midi": 60,
		"time": 107.69999999999966,
		"velocity": 0.8188976377952756,
		"duration": 0.5999999999999943
	},
	{
		"name": "A3",
		"midi": 57,
		"time": 108.29999999999966,
		"velocity": 0.8188976377952756,
		"duration": 0.5999999999999801
	},
	{
		"name": "C3",
		"midi": 48,
		"time": 109.04999999999964,
		"velocity": 0.8503937007874016,
		"duration": 0.15000000000000568
	},
	{
		"name": "F3",
		"midi": 53,
		"time": 109.19999999999965,
		"velocity": 0.8110236220472441,
		"duration": 0.29999999999999716
	},
	{
		"name": "G3",
		"midi": 55,
		"time": 109.49999999999964,
		"velocity": 0.8110236220472441,
		"duration": 0.2999999999999261
	},
	{
		"name": "F3",
		"midi": 53,
		"time": 109.79999999999957,
		"velocity": 0.8110236220472441,
		"duration": 0.29999999999999716
	},
	{
		"name": "C4",
		"midi": 60,
		"time": 110.09999999999957,
		"velocity": 0.8110236220472441,
		"duration": 0.6000000000000085
	},
	{
		"name": "A3",
		"midi": 57,
		"time": 110.69999999999958,
		"velocity": 0.8110236220472441,
		"duration": 0.5999999999999801
	},
	{
		"name": "F3",
		"midi": 53,
		"time": 111.59999999999955,
		"velocity": 0.8267716535433071,
		"duration": 0.29999999999999716
	},
	{
		"name": "G3",
		"midi": 55,
		"time": 111.89999999999955,
		"velocity": 0.8267716535433071,
		"duration": 0.29999999999999716
	},
	{
		"name": "F3",
		"midi": 53,
		"time": 112.19999999999955,
		"velocity": 0.8267716535433071,
		"duration": 0.29999999999999716
	},
	{
		"name": "G3",
		"midi": 55,
		"time": 112.49999999999955,
		"velocity": 0.8267716535433071,
		"duration": 0.5999999999999943
	},
	{
		"name": "A3",
		"midi": 57,
		"time": 113.09999999999954,
		"velocity": 0.8267716535433071,
		"duration": 0.599999999999909
	},
	{
		"name": "A3",
		"midi": 57,
		"time": 113.69999999999945,
		"velocity": 0.8267716535433071,
		"duration": 0.29999999999999716
	},
	{
		"name": "G3",
		"midi": 55,
		"time": 113.99999999999945,
		"velocity": 0.8267716535433071,
		"duration": 0.5999999999999801
	},
	{
		"name": "G3",
		"midi": 55,
		"time": 114.59999999999943,
		"velocity": 0.8267716535433071,
		"duration": 1.3649999999997817
	},
	{
		"name": "F3",
		"midi": 53,
		"time": 116.39999999999921,
		"velocity": 0.8188976377952756,
		"duration": 0.29999999999998295
	},
	{
		"name": "G3",
		"midi": 55,
		"time": 116.69999999999919,
		"velocity": 0.8267716535433071,
		"duration": 0.30999999999997385
	},
	{
		"name": "F3",
		"midi": 53,
		"time": 116.99999999999918,
		"velocity": 0.8267716535433071,
		"duration": 0.29999999999999716
	},
	{
		"name": "B3",
		"midi": 59,
		"time": 117.29999999999917,
		"velocity": 0.8267716535433071,
		"duration": 1.1249999999999716
	},
	{
		"name": "F3",
		"midi": 53,
		"time": 118.79999999999913,
		"velocity": 0.7244094488188977,
		"duration": 0.29999999999999716
	},
	{
		"name": "G3",
		"midi": 55,
		"time": 119.09999999999913,
		"velocity": 0.8661417322834646,
		"duration": 0.2999999999999261
	},
	{
		"name": "F3",
		"midi": 53,
		"time": 119.39999999999905,
		"velocity": 0.8661417322834646,
		"duration": 0.29999999999999716
	},
	{
		"name": "C4",
		"midi": 60,
		"time": 119.69999999999905,
		"velocity": 0.8661417322834646,
		"duration": 0.6000000000000085
	},
	{
		"name": "A3",
		"midi": 57,
		"time": 120.29999999999906,
		"velocity": 0.8661417322834646,
		"duration": 0.5999999999999801
	},
	{
		"name": "C3",
		"midi": 48,
		"time": 121.04999999999903,
		"velocity": 0.8267716535433071,
		"duration": 0.12000000000000455
	},
	{
		"name": "F3",
		"midi": 53,
		"time": 121.19999999999904,
		"velocity": 0.8267716535433071,
		"duration": 0.29999999999999716
	},
	{
		"name": "G3",
		"midi": 55,
		"time": 121.49999999999903,
		"velocity": 0.8582677165354331,
		"duration": 0.29999999999998295
	},
	{
		"name": "F3",
		"midi": 53,
		"time": 121.79999999999902,
		"velocity": 0.8582677165354331,
		"duration": 0.29999999999999716
	},
	{
		"name": "G3",
		"midi": 55,
		"time": 122.09999999999901,
		"velocity": 0.8582677165354331,
		"duration": 0.5999999999999943
	},
	{
		"name": "A3",
		"midi": 57,
		"time": 122.69999999999901,
		"velocity": 0.8582677165354331,
		"duration": 0.599999999999909
	},
	{
		"name": "A3",
		"midi": 57,
		"time": 123.29999999999892,
		"velocity": 0.8582677165354331,
		"duration": 0.29999999999996874
	},
	{
		"name": "G3",
		"midi": 55,
		"time": 123.59999999999889,
		"velocity": 0.8582677165354331,
		"duration": 0.5999999999999801
	},
	{
		"name": "G3",
		"midi": 55,
		"time": 124.19999999999887,
		"velocity": 0.8582677165354331,
		"duration": 1.499999999999858
	},
	{
		"name": "F3",
		"midi": 53,
		"time": 125.69999999999872,
		"velocity": 0.5511811023622047,
		"duration": 0.29999999999999716
	},
	{
		"name": "F3",
		"midi": 53,
		"time": 125.99999999999872,
		"velocity": 0.905511811023622,
		"duration": 0.29999999999999716
	},
	{
		"name": "G3",
		"midi": 55,
		"time": 126.29999999999872,
		"velocity": 0.905511811023622,
		"duration": 0.29999999999999716
	},
	{
		"name": "F3",
		"midi": 53,
		"time": 126.59999999999872,
		"velocity": 0.905511811023622,
		"duration": 0.29999999999999716
	},
	{
		"name": "C4",
		"midi": 60,
		"time": 126.89999999999871,
		"velocity": 0.905511811023622,
		"duration": 0.5999999999998806
	},
	{
		"name": "A3",
		"midi": 57,
		"time": 127.4999999999986,
		"velocity": 0.905511811023622,
		"duration": 0.5999999999999517
	},
	{
		"name": "F3",
		"midi": 53,
		"time": 128.39999999999856,
		"velocity": 0.8346456692913385,
		"duration": 0.30000000000001137
	},
	{
		"name": "G3",
		"midi": 55,
		"time": 128.69999999999857,
		"velocity": 0.8346456692913385,
		"duration": 0.29999999999984084
	},
	{
		"name": "F3",
		"midi": 53,
		"time": 128.9999999999984,
		"velocity": 0.8346456692913385,
		"duration": 0.30000000000001137
	},
	{
		"name": "C4",
		"midi": 60,
		"time": 129.29999999999842,
		"velocity": 0.84251968503937,
		"duration": 0.5999999999999943
	},
	{
		"name": "A3",
		"midi": 57,
		"time": 129.8999999999984,
		"velocity": 0.8582677165354331,
		"duration": 0.5999999999996248
	},
	{
		"name": "F3",
		"midi": 53,
		"time": 130.79999999999802,
		"velocity": 0.8110236220472441,
		"duration": 0.30000000000001137
	},
	{
		"name": "G3",
		"midi": 55,
		"time": 131.09999999999803,
		"velocity": 0.8110236220472441,
		"duration": 0.30000000000001137
	},
	{
		"name": "F3",
		"midi": 53,
		"time": 131.39999999999804,
		"velocity": 0.8110236220472441,
		"duration": 0.29999999999998295
	},
	{
		"name": "G3",
		"midi": 55,
		"time": 131.69999999999803,
		"velocity": 0.8110236220472441,
		"duration": 0.5999999999997954
	},
	{
		"name": "A3",
		"midi": 57,
		"time": 132.29999999999782,
		"velocity": 0.8031496062992126,
		"duration": 0.5999999999997954
	},
	{
		"name": "A3",
		"midi": 57,
		"time": 132.89999999999762,
		"velocity": 0.8031496062992126,
		"duration": 0.2999999999998977
	},
	{
		"name": "G3",
		"midi": 55,
		"time": 133.19999999999752,
		"velocity": 0.7952755905511811,
		"duration": 0.5999999999999659
	},
	{
		"name": "G3",
		"midi": 55,
		"time": 133.79999999999748,
		"velocity": 0.7952755905511811,
		"duration": 1.364999999998986
	},
	{
		"name": "F3",
		"midi": 53,
		"time": 135.5999999999964,
		"velocity": 0.905511811023622,
		"duration": 0.30000000000001137
	},
	{
		"name": "G3",
		"midi": 55,
		"time": 135.89999999999642,
		"velocity": 0.905511811023622,
		"duration": 0.30000000000001137
	},
	{
		"name": "F3",
		"midi": 53,
		"time": 136.19999999999644,
		"velocity": 0.905511811023622,
		"duration": 0.30000000000001137
	},
	{
		"name": "C4",
		"midi": 60,
		"time": 136.49999999999645,
		"velocity": 0.905511811023622,
		"duration": 0.5999999999997669
	},
	{
		"name": "A3",
		"midi": 57,
		"time": 137.09999999999621,
		"velocity": 0.905511811023622,
		"duration": 0.5999999999997669
	},
	{
		"name": "F3",
		"midi": 53,
		"time": 137.999999999996,
		"velocity": 0.8346456692913385,
		"duration": 0.30000000000001137
	},
	{
		"name": "G3",
		"midi": 55,
		"time": 138.299999999996,
		"velocity": 0.8346456692913385,
		"duration": 0.29999999999984084
	},
	{
		"name": "F3",
		"midi": 53,
		"time": 138.59999999999584,
		"velocity": 0.8346456692913385,
		"duration": 0.30000000000001137
	},
	{
		"name": "C4",
		"midi": 60,
		"time": 138.89999999999586,
		"velocity": 0.84251968503937,
		"duration": 0.5999999999999943
	},
	{
		"name": "A3",
		"midi": 57,
		"time": 139.49999999999585,
		"velocity": 0.8582677165354331,
		"duration": 0.5999999999996248
	},
	{
		"name": "F3",
		"midi": 53,
		"time": 140.39999999999546,
		"velocity": 0.8110236220472441,
		"duration": 0.30000000000001137
	},
	{
		"name": "G3",
		"midi": 55,
		"time": 140.69999999999547,
		"velocity": 0.8110236220472441,
		"duration": 0.30000000000001137
	},
	{
		"name": "F3",
		"midi": 53,
		"time": 140.99999999999548,
		"velocity": 0.8110236220472441,
		"duration": 0.29999999999998295
	},
	{
		"name": "G3",
		"midi": 55,
		"time": 141.29999999999546,
		"velocity": 0.8110236220472441,
		"duration": 0.5999999999997954
	},
	{
		"name": "A3",
		"midi": 57,
		"time": 141.89999999999526,
		"velocity": 0.8031496062992126,
		"duration": 0.5999999999997954
	},
	{
		"name": "A3",
		"midi": 57,
		"time": 142.49999999999505,
		"velocity": 0.8031496062992126,
		"duration": 0.2999999999998977
	},
	{
		"name": "G3",
		"midi": 55,
		"time": 142.79999999999495,
		"velocity": 0.7952755905511811,
		"duration": 0.5999999999999659
	},
	{
		"name": "G3",
		"midi": 55,
		"time": 143.39999999999492,
		"velocity": 0.7952755905511811,
		"duration": 1.3649999999990143
	},
	{
		"name": "A#3",
		"midi": 58,
		"time": 144.89999999999384,
		"velocity": 0.5354330708661418,
		"duration": 0.5999999999998522
	},
	{
		"name": "F4",
		"midi": 65,
		"time": 144.89999999999384,
		"velocity": 0.7322834645669292,
		"duration": 0.5999999999998522
	},
	{
		"name": "A3",
		"midi": 57,
		"time": 145.4999999999937,
		"velocity": 0.5354330708661418,
		"duration": 0.29999999999998295
	},
	{
		"name": "D4",
		"midi": 62,
		"time": 145.5049999999937,
		"velocity": 0.7007874015748031,
		"duration": 0.2949999999999875
	},
	{
		"name": "A3",
		"midi": 57,
		"time": 145.79999999999367,
		"velocity": 0.5354330708661418,
		"duration": 0.29999999999998295
	},
	{
		"name": "C4",
		"midi": 60,
		"time": 145.79999999999367,
		"velocity": 0.7007874015748031,
		"duration": 0.2949999999999875
	},
	{
		"name": "A#3",
		"midi": 58,
		"time": 146.09999999999366,
		"velocity": 0.5354330708661418,
		"duration": 0.5999999999999943
	},
	{
		"name": "F4",
		"midi": 65,
		"time": 146.09999999999366,
		"velocity": 0.7322834645669292,
		"duration": 0.5999999999999943
	},
	{
		"name": "A3",
		"midi": 57,
		"time": 146.69999999999365,
		"velocity": 0.5354330708661418,
		"duration": 0.29999999999998295
	},
	{
		"name": "D4",
		"midi": 62,
		"time": 146.69999999999365,
		"velocity": 0.7007874015748031,
		"duration": 0.2949999999999875
	},
	{
		"name": "A3",
		"midi": 57,
		"time": 146.99999999999363,
		"velocity": 0.5354330708661418,
		"duration": 0.29999999999998295
	},
	{
		"name": "C4",
		"midi": 60,
		"time": 146.99999999999363,
		"velocity": 0.7007874015748031,
		"duration": 0.2949999999999875
	},
	{
		"name": "A#3",
		"midi": 58,
		"time": 147.29999999999362,
		"velocity": 0.5354330708661418,
		"duration": 0.5999999999998238
	},
	{
		"name": "F4",
		"midi": 65,
		"time": 147.29999999999362,
		"velocity": 0.7322834645669292,
		"duration": 0.5999999999998238
	},
	{
		"name": "A3",
		"midi": 57,
		"time": 147.89999999999344,
		"velocity": 0.5354330708661418,
		"duration": 1.349999999999369
	},
	{
		"name": "C4",
		"midi": 60,
		"time": 147.89999999999344,
		"velocity": 0.7322834645669292,
		"duration": 1.349999999999369
	},
	{
		"name": "A3",
		"midi": 57,
		"time": 149.70499999999274,
		"velocity": 0.84251968503937,
		"duration": 0.3049999999999784
	},
	{
		"name": "A3",
		"midi": 57,
		"time": 149.99999999999272,
		"velocity": 0.84251968503937,
		"duration": 0.3049999999998647
	},
	{
		"name": "C4",
		"midi": 60,
		"time": 150.2999999999926,
		"velocity": 0.8346456692913385,
		"duration": 0.3049999999999784
	},
	{
		"name": "C4",
		"midi": 60,
		"time": 150.59999999999258,
		"velocity": 0.8346456692913385,
		"duration": 0.30499999999980787
	},
	{
		"name": "D4",
		"midi": 62,
		"time": 150.8999999999924,
		"velocity": 0.8503937007874016,
		"duration": 0.5999999999998238
	},
	{
		"name": "A3",
		"midi": 57,
		"time": 151.4999999999922,
		"velocity": 0.8503937007874016,
		"duration": 0.2999999999997556
	},
	{
		"name": "A3",
		"midi": 57,
		"time": 151.79999999999197,
		"velocity": 0.84251968503937,
		"duration": 0.29999999999972715
	},
	{
		"name": "A3",
		"midi": 57,
		"time": 152.0999999999917,
		"velocity": 0.8346456692913385,
		"duration": 0.29999999999998295
	},
	{
		"name": "G3",
		"midi": 55,
		"time": 152.39999999999168,
		"velocity": 0.8267716535433071,
		"duration": 1.9499999999990507
	},
	{
		"name": "A#3",
		"midi": 58,
		"time": 154.49999999999062,
		"velocity": 0.5354330708661418,
		"duration": 0.5999999999998522
	},
	{
		"name": "F4",
		"midi": 65,
		"time": 154.49999999999062,
		"velocity": 0.8267716535433071,
		"duration": 0.5999999999998522
	},
	{
		"name": "A3",
		"midi": 57,
		"time": 155.09999999999047,
		"velocity": 0.5354330708661418,
		"duration": 0.29999999999998295
	},
	{
		"name": "D4",
		"midi": 62,
		"time": 155.10499999999047,
		"velocity": 0.8110236220472441,
		"duration": 0.2949999999999875
	},
	{
		"name": "A3",
		"midi": 57,
		"time": 155.39999999999046,
		"velocity": 0.5354330708661418,
		"duration": 0.29999999999998295
	},
	{
		"name": "C4",
		"midi": 60,
		"time": 155.39999999999046,
		"velocity": 0.8110236220472441,
		"duration": 0.2949999999999875
	},
	{
		"name": "A#3",
		"midi": 58,
		"time": 155.69999999999044,
		"velocity": 0.5354330708661418,
		"duration": 0.5999999999999943
	},
	{
		"name": "F4",
		"midi": 65,
		"time": 155.69999999999044,
		"velocity": 0.8110236220472441,
		"duration": 0.5999999999999943
	},
	{
		"name": "A3",
		"midi": 57,
		"time": 156.29999999999043,
		"velocity": 0.5354330708661418,
		"duration": 0.29999999999998295
	},
	{
		"name": "D4",
		"midi": 62,
		"time": 156.29999999999043,
		"velocity": 0.8110236220472441,
		"duration": 0.2949999999999875
	},
	{
		"name": "A3",
		"midi": 57,
		"time": 156.59999999999042,
		"velocity": 0.5354330708661418,
		"duration": 0.29999999999998295
	},
	{
		"name": "C4",
		"midi": 60,
		"time": 156.59999999999042,
		"velocity": 0.8110236220472441,
		"duration": 0.2949999999999875
	},
	{
		"name": "A#3",
		"midi": 58,
		"time": 156.8999999999904,
		"velocity": 0.5354330708661418,
		"duration": 0.5999999999998238
	},
	{
		"name": "F4",
		"midi": 65,
		"time": 156.8999999999904,
		"velocity": 0.8110236220472441,
		"duration": 0.5999999999998238
	},
	{
		"name": "A3",
		"midi": 57,
		"time": 157.49999999999022,
		"velocity": 0.5354330708661418,
		"duration": 1.349999999999369
	},
	{
		"name": "C4",
		"midi": 60,
		"time": 157.49999999999022,
		"velocity": 0.8110236220472441,
		"duration": 1.349999999999369
	},
	{
		"name": "A3",
		"midi": 57,
		"time": 159.29999999998952,
		"velocity": 0.8740157480314961,
		"duration": 0.5999999999997101
	},
	{
		"name": "C4",
		"midi": 60,
		"time": 159.89999999998923,
		"velocity": 0.8740157480314961,
		"duration": 0.30000000000001137
	},
	{
		"name": "C4",
		"midi": 60,
		"time": 160.19999999998925,
		"velocity": 0.8740157480314961,
		"duration": 0.30000000000001137
	},
	{
		"name": "A3",
		"midi": 57,
		"time": 160.49999999998926,
		"velocity": 0.8661417322834646,
		"duration": 0.30000000000001137
	},
	{
		"name": "D4",
		"midi": 62,
		"time": 160.79999999998927,
		"velocity": 0.8661417322834646,
		"duration": 0.299999999999784
	},
	{
		"name": "A3",
		"midi": 57,
		"time": 161.09999999998905,
		"velocity": 0.8661417322834646,
		"duration": 0.30000000000001137
	},
	{
		"name": "A3",
		"midi": 57,
		"time": 161.39999999998906,
		"velocity": 0.8661417322834646,
		"duration": 0.30000000000001137
	},
	{
		"name": "A3",
		"midi": 57,
		"time": 161.69999999998907,
		"velocity": 0.8661417322834646,
		"duration": 0.30000000000001137
	},
	{
		"name": "G3",
		"midi": 55,
		"time": 161.9999999999891,
		"velocity": 0.8661417322834646,
		"duration": 1.2199999999996862
	},
	{
		"name": "F#3",
		"midi": 54,
		"time": 163.1999999999888,
		"velocity": 0.7322834645669292,
		"duration": 1.199999999999676
	},
	{
		"name": "A#3",
		"midi": 58,
		"time": 165.89999999998847,
		"velocity": 0.8031496062992126,
		"duration": 0.29999999999972715
	},
	{
		"name": "A#3",
		"midi": 58,
		"time": 166.1999999999882,
		"velocity": 0.8031496062992126,
		"duration": 0.29999999999998295
	},
	{
		"name": "A#3",
		"midi": 58,
		"time": 166.49999999998818,
		"velocity": 0.8031496062992126,
		"duration": 0.29999999999998295
	},
	{
		"name": "A#3",
		"midi": 58,
		"time": 166.79999999998816,
		"velocity": 0.8031496062992126,
		"duration": 0.30000000000001137
	},
	{
		"name": "A#3",
		"midi": 58,
		"time": 167.09999999998817,
		"velocity": 0.8031496062992126,
		"duration": 0.30000000000001137
	},
	{
		"name": "A#3",
		"midi": 58,
		"time": 167.39999999998818,
		"velocity": 0.8031496062992126,
		"duration": 0.29999999999998295
	},
	{
		"name": "A#3",
		"midi": 58,
		"time": 167.69999999998817,
		"velocity": 0.8031496062992126,
		"duration": 0.299999999999784
	},
	{
		"name": "A#3",
		"midi": 58,
		"time": 168.01499999998794,
		"velocity": 0.8031496062992126,
		"duration": 0.2999999999999261
	},
	{
		"name": "F#3",
		"midi": 54,
		"time": 168.30499999998787,
		"velocity": 0.6535433070866141,
		"duration": 0.6299999999995691
	},
	{
		"name": "C4",
		"midi": 60,
		"time": 188.99999999998744,
		"velocity": 0.7874015748031497,
		"duration": 0.299999999999784
	},
	{
		"name": "A4",
		"midi": 69,
		"time": 189.29999999998722,
		"velocity": 0.7874015748031497,
		"duration": 1.7999999999998408
	},
	{
		"name": "G4",
		"midi": 67,
		"time": 191.09999999998706,
		"velocity": 0.7874015748031497,
		"duration": 0.30000000000001137
	},
	{
		"name": "F4",
		"midi": 65,
		"time": 191.39999999998707,
		"velocity": 0.7874015748031497,
		"duration": 0.30000000000001137
	},
	{
		"name": "D4",
		"midi": 62,
		"time": 191.69999999998709,
		"velocity": 0.7874015748031497,
		"duration": 0.29999999999998295
	},
	{
		"name": "C4",
		"midi": 60,
		"time": 191.99999999998707,
		"velocity": 0.8267716535433071,
		"duration": 1.1999999999990791
	},
	{
		"name": "C4",
		"midi": 60,
		"time": 198.59999999998604,
		"velocity": 0.7874015748031497,
		"duration": 0.299999999999784
	},
	{
		"name": "A4",
		"midi": 69,
		"time": 198.89999999998582,
		"velocity": 0.7874015748031497,
		"duration": 1.7999999999996419
	},
	{
		"name": "G4",
		"midi": 67,
		"time": 200.69999999998547,
		"velocity": 0.7874015748031497,
		"duration": 0.30000000000001137
	},
	{
		"name": "F4",
		"midi": 65,
		"time": 200.99999999998548,
		"velocity": 0.7874015748031497,
		"duration": 0.29999999999998295
	},
	{
		"name": "D4",
		"midi": 62,
		"time": 201.29999999998546,
		"velocity": 0.7874015748031497,
		"duration": 0.2999999999998977
	},
	{
		"name": "C4",
		"midi": 60,
		"time": 201.59999999998536,
		"velocity": 0.8267716535433071,
		"duration": 2.0749999999986812
	},
	{
		"name": "C4",
		"midi": 60,
		"time": 208.19999999998385,
		"velocity": 0.7874015748031497,
		"duration": 0.299999999999784
	},
	{
		"name": "A4",
		"midi": 69,
		"time": 208.49999999998363,
		"velocity": 0.7874015748031497,
		"duration": 1.7999999999996419
	},
	{
		"name": "G4",
		"midi": 67,
		"time": 210.29999999998327,
		"velocity": 0.7874015748031497,
		"duration": 0.30000000000001137
	},
	{
		"name": "F4",
		"midi": 65,
		"time": 210.59999999998328,
		"velocity": 0.7874015748031497,
		"duration": 0.29999999999998295
	},
	{
		"name": "D4",
		"midi": 62,
		"time": 210.89999999998327,
		"velocity": 0.7874015748031497,
		"duration": 0.2999999999998977
	},
	{
		"name": "C4",
		"midi": 60,
		"time": 211.19999999998316,
		"velocity": 0.8267716535433071,
		"duration": 2.0749999999986812
	},
	{
		"name": "C4",
		"midi": 60,
		"time": 217.4999999999816,
		"velocity": 0.6850393700787402,
		"duration": 0.5999999999998522
	},
	{
		"name": "A4",
		"midi": 69,
		"time": 218.09999999998146,
		"velocity": 0.6771653543307087,
		"duration": 1.7999999999992724
	},
	{
		"name": "G4",
		"midi": 67,
		"time": 219.89999999998074,
		"velocity": 0.6850393700787402,
		"duration": 0.30000000000001137
	},
	{
		"name": "F4",
		"midi": 65,
		"time": 220.19999999998075,
		"velocity": 0.6850393700787402,
		"duration": 0.29999999999998295
	},
	{
		"name": "D4",
		"midi": 62,
		"time": 220.49999999998073,
		"velocity": 0.6692913385826772,
		"duration": 0.2999999999998977
	},
	{
		"name": "C4",
		"midi": 60,
		"time": 220.79999999998063,
		"velocity": 0.6692913385826772,
		"duration": 2.0749999999986812
	}]
}
