{"bpm":80,"duration":523.5,"tracks":[{"instrumentFamily":"piano","notes":[{"name":"A4","midi":69,"time":0,"velocity":0.7480314960629921,"duration":0.3375},{"name":"A4","midi":69,"time":0.375,"velocity":0.7480314960629921,"duration":0.675},{"name":"A4","midi":69,"time":1.125,"velocity":0.7480314960629921,"duration":0.3374999999999999},{"name":"A4","midi":69,"time":1.5,"velocity":0.7480314960629921,"duration":0.3374999999999999},{"name":"A4","midi":69,"time":1.875,"velocity":0.7480314960629921,"duration":0.6749999999999998},{"name":"A4","midi":69,"time":2.625,"velocity":0.7480314960629921,"duration":0.3374999999999999},{"name":"A4","midi":69,"time":3,"velocity":0.7480314960629921,"duration":0.3374999999999999},{"name":"A4","midi":69,"time":3.375,"velocity":0.7480314960629921,"duration":0.6749999999999998},{"name":"A4","midi":69,"time":4.125,"velocity":0.7480314960629921,"duration":0.33750000000000036},{"name":"A4","midi":69,"time":4.5,"velocity":0.7480314960629921,"duration":0.33750000000000036},{"name":"A4","midi":69,"time":4.875,"velocity":0.7480314960629921,"duration":0.6749999999999998},{"name":"A4","midi":69,"time":5.625,"velocity":0.7480314960629921,"duration":0.33750000000000036},{"name":"E4","midi":64,"time":6,"velocity":0.7480314960629921,"duration":0.33750000000000036},{"name":"E4","midi":64,"time":6.375,"velocity":0.7480314960629921,"duration":0.6749999999999998},{"name":"E4","midi":64,"time":7.125,"velocity":0.7480314960629921,"duration":0.33750000000000036},{"name":"E4","midi":64,"time":7.5,"velocity":0.7480314960629921,"duration":0.33750000000000036},{"name":"E4","midi":64,"time":7.875,"velocity":0.7480314960629921,"duration":0.6750000000000007},{"name":"E4","midi":64,"time":8.625,"velocity":0.7480314960629921,"duration":0.33750000000000036},{"name":"E4","midi":64,"time":9,"velocity":0.7480314960629921,"duration":0.33750000000000036},{"name":"E4","midi":64,"time":9.375,"velocity":0.7480314960629921,"duration":0.6750000000000007},{"name":"E4","midi":64,"time":10.125,"velocity":0.7480314960629921,"duration":0.33750000000000036},{"name":"E4","midi":64,"time":10.5,"velocity":0.7480314960629921,"duration":0.33750000000000036},{"name":"E4","midi":64,"time":10.875,"velocity":0.7480314960629921,"duration":0.6750000000000007},{"name":"E4","midi":64,"time":11.625,"velocity":0.7480314960629921,"duration":0.33750000000000036},{"name":"D4","midi":62,"time":12,"velocity":0.7480314960629921,"duration":0.33750000000000036},{"name":"D4","midi":62,"time":12.375,"velocity":0.7480314960629921,"duration":0.6750000000000007},{"name":"D4","midi":62,"time":13.125,"velocity":0.7480314960629921,"duration":0.33750000000000036},{"name":"D4","midi":62,"time":13.5,"velocity":0.7480314960629921,"duration":0.33750000000000036},{"name":"D4","midi":62,"time":13.875,"velocity":0.7480314960629921,"duration":0.6750000000000007},{"name":"D4","midi":62,"time":14.625,"velocity":0.7480314960629921,"duration":0.33750000000000036},{"name":"D4","midi":62,"time":15,"velocity":0.7480314960629921,"duration":0.33750000000000036},{"name":"D4","midi":62,"time":15.375,"velocity":0.7480314960629921,"duration":0.6750000000000007},{"name":"D4","midi":62,"time":16.125,"velocity":0.7480314960629921,"duration":0.3374999999999986},{"name":"D4","midi":62,"time":16.5,"velocity":0.7480314960629921,"duration":0.3374999999999986},{"name":"D4","midi":62,"time":16.875,"velocity":0.7480314960629921,"duration":0.6750000000000007},{"name":"D4","midi":62,"time":17.625,"velocity":0.7480314960629921,"duration":0.3374999999999986},{"name":"A4","midi":69,"time":18,"velocity":0.7480314960629921,"duration":0.3374999999999986},{"name":"A4","midi":69,"time":18.375,"velocity":0.7480314960629921,"duration":0.6750000000000007},{"name":"A4","midi":69,"time":19.125,"velocity":0.7480314960629921,"duration":0.3374999999999986},{"name":"A4","midi":69,"time":19.5,"velocity":0.7480314960629921,"duration":0.3374999999999986},{"name":"A4","midi":69,"time":19.875,"velocity":0.7480314960629921,"duration":0.6750000000000007},{"name":"A4","midi":69,"time":20.625,"velocity":0.7480314960629921,"duration":0.3374999999999986},{"name":"A4","midi":69,"time":21,"velocity":0.7480314960629921,"duration":0.3374999999999986},{"name":"A4","midi":69,"time":21.375,"velocity":0.7480314960629921,"duration":0.6750000000000007},{"name":"A4","midi":69,"time":22.125,"velocity":0.7480314960629921,"duration":0.3374999999999986},{"name":"A4","midi":69,"time":22.5,"velocity":0.7480314960629921,"duration":0.3374999999999986},{"name":"A4","midi":69,"time":22.875,"velocity":0.7480314960629921,"duration":0.6750000000000007},{"name":"A4","midi":69,"time":23.625,"velocity":0.7480314960629921,"duration":0.3374999999999986},{"name":"E4","midi":64,"time":24,"velocity":0.7480314960629921,"duration":0.3374999999999986},{"name":"E4","midi":64,"time":24.375,"velocity":0.7480314960629921,"duration":0.6750000000000007},{"name":"E4","midi":64,"time":25.125,"velocity":0.7480314960629921,"duration":0.3374999999999986},{"name":"E4","midi":64,"time":25.5,"velocity":0.7480314960629921,"duration":0.3374999999999986},{"name":"E4","midi":64,"time":25.875,"velocity":0.7480314960629921,"duration":0.6750000000000007},{"name":"E4","midi":64,"time":26.625,"velocity":0.7480314960629921,"duration":0.3374999999999986},{"name":"E4","midi":64,"time":27,"velocity":0.7480314960629921,"duration":0.3374999999999986},{"name":"E4","midi":64,"time":27.375,"velocity":0.7480314960629921,"duration":0.6750000000000007},{"name":"E4","midi":64,"time":28.125,"velocity":0.7480314960629921,"duration":0.3374999999999986},{"name":"E4","midi":64,"time":28.5,"velocity":0.7480314960629921,"duration":0.3374999999999986},{"name":"E4","midi":64,"time":28.875,"velocity":0.7480314960629921,"duration":0.6750000000000007},{"name":"E4","midi":64,"time":29.625,"velocity":0.7480314960629921,"duration":0.3374999999999986},{"name":"D4","midi":62,"time":30,"velocity":0.7480314960629921,"duration":0.3374999999999986},{"name":"D4","midi":62,"time":30.375,"velocity":0.7480314960629921,"duration":0.6750000000000007},{"name":"D5","midi":74,"time":30.75,"velocity":0.7480314960629921,"duration":0.33750000000000213},{"name":"D4","midi":62,"time":31.125000000000004,"velocity":0.7480314960629921,"duration":0.3374999999999986},{"name":"D4","midi":62,"time":31.500000000000004,"velocity":0.7480314960629921,"duration":0.3374999999999986},{"name":"D4","midi":62,"time":31.875000000000004,"velocity":0.7480314960629921,"duration":0.6750000000000007},{"name":"D5","midi":74,"time":31.875000000000004,"velocity":0.7480314960629921,"duration":0.33750000000000213},{"name":"D5","midi":74,"time":32.25000000000001,"velocity":0.7480314960629921,"duration":0.3374999999999986},{"name":"D4","midi":62,"time":32.62500000000001,"velocity":0.7480314960629921,"duration":0.3374999999999986},{"name":"D4","midi":62,"time":33.00000000000001,"velocity":0.7480314960629921,"duration":0.3374999999999986},{"name":"D5","midi":74,"time":33.37500000000001,"velocity":0.7480314960629921,"duration":0.3374999999999986},{"name":"D4","midi":62,"time":33.37500000000001,"velocity":0.7480314960629921,"duration":0.6749999999999972},{"name":"D5","midi":74,"time":33.75000000000001,"velocity":0.7480314960629921,"duration":0.3374999999999986},{"name":"D4","midi":62,"time":34.12500000000001,"velocity":0.7480314960629921,"duration":0.3374999999999986},{"name":"D4","midi":62,"time":34.50000000000001,"velocity":0.7480314960629921,"duration":0.3374999999999986},{"name":"D5","midi":74,"time":34.87500000000001,"velocity":0.7480314960629921,"duration":0.3374999999999986},{"name":"D4","midi":62,"time":34.87500000000001,"velocity":0.7480314960629921,"duration":0.6749999999999972},{"name":"D5","midi":74,"time":35.25000000000001,"velocity":0.7480314960629921,"duration":0.3374999999999986},{"name":"D4","midi":62,"time":35.62500000000001,"velocity":0.7480314960629921,"duration":0.3374999999999986},{"name":"E4","midi":64,"time":36.00000000000001,"velocity":0.7480314960629921,"duration":0.3374999999999986},{"name":"E4","midi":64,"time":36.37500000000001,"velocity":0.7480314960629921,"duration":0.6749999999999972},{"name":"D5","midi":74,"time":36.37500000000001,"velocity":0.7480314960629921,"duration":0.3374999999999986},{"name":"G#5","midi":80,"time":36.75000000000001,"velocity":0.7480314960629921,"duration":0.3374999999999986},{"name":"E4","midi":64,"time":37.12500000000001,"velocity":0.7480314960629921,"duration":0.3374999999999986},{"name":"E4","midi":64,"time":37.50000000000001,"velocity":0.7480314960629921,"duration":0.3374999999999986},{"name":"G#5","midi":80,"time":37.87500000000001,"velocity":0.7480314960629921,"duration":0.3374999999999986},{"name":"E4","midi":64,"time":37.87500000000001,"velocity":0.7480314960629921,"duration":0.6749999999999972},{"name":"G#5","midi":80,"time":38.25000000000001,"velocity":0.7480314960629921,"duration":0.3374999999999986},{"name":"E4","midi":64,"time":38.62500000000001,"velocity":0.7480314960629921,"duration":0.3374999999999986},{"name":"E4","midi":64,"time":39.00000000000001,"velocity":0.7480314960629921,"duration":0.3374999999999986},{"name":"G#5","midi":80,"time":39.37500000000001,"velocity":0.7480314960629921,"duration":0.3374999999999986},{"name":"E4","midi":64,"time":39.37500000000001,"velocity":0.7480314960629921,"duration":0.6749999999999972},{"name":"G#5","midi":80,"time":39.75000000000001,"velocity":0.7480314960629921,"duration":0.3374999999999986},{"name":"E4","midi":64,"time":40.12500000000001,"velocity":0.7480314960629921,"duration":0.3374999999999986},{"name":"E4","midi":64,"time":40.50000000000001,"velocity":0.7480314960629921,"duration":0.3374999999999986},{"name":"E4","midi":64,"time":40.87500000000001,"velocity":0.7480314960629921,"duration":0.6749999999999972},{"name":"G#5","midi":80,"time":40.87500000000001,"velocity":0.7480314960629921,"duration":0.3374999999999986},{"name":"G#5","midi":80,"time":41.25000000000001,"velocity":0.7480314960629921,"duration":0.3374999999999986},{"name":"E4","midi":64,"time":41.62500000000001,"velocity":0.7480314960629921,"duration":0.3374999999999986},{"name":"A4","midi":69,"time":42.00000000000001,"velocity":0.7480314960629921,"duration":0.3374999999999986},{"name":"A4","midi":69,"time":42.37500000000001,"velocity":0.7480314960629921,"duration":0.6749999999999972},{"name":"G#5","midi":80,"time":42.37500000000001,"velocity":0.7480314960629921,"duration":0.3374999999999986},{"name":"A5","midi":81,"time":42.75000000000001,"velocity":0.7480314960629921,"duration":0.3374999999999986},{"name":"A4","midi":69,"time":43.12500000000001,"velocity":0.7480314960629921,"duration":0.3374999999999986},{"name":"A4","midi":69,"time":43.50000000000001,"velocity":0.7480314960629921,"duration":0.3374999999999986},{"name":"A5","midi":81,"time":43.87500000000001,"velocity":0.7480314960629921,"duration":0.3374999999999986},{"name":"A4","midi":69,"time":43.87500000000001,"velocity":0.7480314960629921,"duration":0.6749999999999972},{"name":"A5","midi":81,"time":44.25000000000001,"velocity":0.7480314960629921,"duration":0.3374999999999986},{"name":"A4","midi":69,"time":44.62500000000001,"velocity":0.7480314960629921,"duration":0.3374999999999986},{"name":"A4","midi":69,"time":45.00000000000001,"velocity":0.7480314960629921,"duration":0.3374999999999986},{"name":"A5","midi":81,"time":45.37500000000001,"velocity":0.7480314960629921,"duration":0.3374999999999986},{"name":"A4","midi":69,"time":45.37500000000001,"velocity":0.7480314960629921,"duration":0.6749999999999972},{"name":"A5","midi":81,"time":45.75000000000001,"velocity":0.7480314960629921,"duration":0.3374999999999986},{"name":"A4","midi":69,"time":46.12500000000001,"velocity":0.7480314960629921,"duration":0.3374999999999986},{"name":"A4","midi":69,"time":46.50000000000001,"velocity":0.7480314960629921,"duration":0.3374999999999986},{"name":"A5","midi":81,"time":46.87500000000001,"velocity":0.7480314960629921,"duration":0.3374999999999986},{"name":"A4","midi":69,"time":46.87500000000001,"velocity":0.7480314960629921,"duration":0.6749999999999972},{"name":"A5","midi":81,"time":47.25000000000001,"velocity":0.7480314960629921,"duration":0.3374999999999986},{"name":"A4","midi":69,"time":47.62500000000001,"velocity":0.7480314960629921,"duration":0.3374999999999986},{"name":"E4","midi":64,"time":48.00000000000001,"velocity":0.7480314960629921,"duration":0.3374999999999986},{"name":"E4","midi":64,"time":48.37500000000001,"velocity":0.7480314960629921,"duration":0.6749999999999972},{"name":"A5","midi":81,"time":48.37500000000001,"velocity":0.7480314960629921,"duration":0.3374999999999986},{"name":"E5","midi":76,"time":48.75000000000001,"velocity":0.7480314960629921,"duration":0.3374999999999986},{"name":"E4","midi":64,"time":49.12500000000001,"velocity":0.7480314960629921,"duration":0.3374999999999986},{"name":"E4","midi":64,"time":49.50000000000001,"velocity":0.7480314960629921,"duration":0.3374999999999986},{"name":"E5","midi":76,"time":49.87500000000001,"velocity":0.7480314960629921,"duration":0.3374999999999986},{"name":"E4","midi":64,"time":49.87500000000001,"velocity":0.7480314960629921,"duration":0.6749999999999972},{"name":"E5","midi":76,"time":50.25000000000001,"velocity":0.7480314960629921,"duration":0.3374999999999986},{"name":"E4","midi":64,"time":50.62500000000001,"velocity":0.7480314960629921,"duration":0.3374999999999986},{"name":"E4","midi":64,"time":51.00000000000001,"velocity":0.7480314960629921,"duration":0.3374999999999986},{"name":"E5","midi":76,"time":51.37500000000001,"velocity":0.7480314960629921,"duration":0.3374999999999986},{"name":"E4","midi":64,"time":51.37500000000001,"velocity":0.7480314960629921,"duration":0.6749999999999972},{"name":"E5","midi":76,"time":51.75000000000001,"velocity":0.7480314960629921,"duration":0.3374999999999986},{"name":"E4","midi":64,"time":52.12500000000001,"velocity":0.7480314960629921,"duration":0.3374999999999986},{"name":"E4","midi":64,"time":52.50000000000001,"velocity":0.7480314960629921,"duration":0.3374999999999986},{"name":"E4","midi":64,"time":52.87500000000001,"velocity":0.7480314960629921,"duration":0.6749999999999972},{"name":"E5","midi":76,"time":52.87500000000001,"velocity":0.7480314960629921,"duration":0.3374999999999986},{"name":"E5","midi":76,"time":53.25000000000001,"velocity":0.7480314960629921,"duration":0.3374999999999986},{"name":"E4","midi":64,"time":53.62500000000001,"velocity":0.7480314960629921,"duration":0.3374999999999986},{"name":"D4","midi":62,"time":54.00000000000001,"velocity":0.7480314960629921,"duration":0.3374999999999986},{"name":"D4","midi":62,"time":54.37500000000001,"velocity":0.7480314960629921,"duration":0.6749999999999972},{"name":"E5","midi":76,"time":54.37500000000001,"velocity":0.7480314960629921,"duration":0.3374999999999986},{"name":"D5","midi":74,"time":54.75000000000001,"velocity":0.7480314960629921,"duration":0.3374999999999986},{"name":"D4","midi":62,"time":55.12500000000001,"velocity":0.7480314960629921,"duration":0.3374999999999986},{"name":"D4","midi":62,"time":55.50000000000001,"velocity":0.7480314960629921,"duration":0.3374999999999986},{"name":"D4","midi":62,"time":55.87500000000001,"velocity":0.7480314960629921,"duration":0.6749999999999972},{"name":"D5","midi":74,"time":55.87500000000001,"velocity":0.7480314960629921,"duration":0.3374999999999986},{"name":"D5","midi":74,"time":56.25000000000001,"velocity":0.7480314960629921,"duration":0.3374999999999986},{"name":"D4","midi":62,"time":56.62500000000001,"velocity":0.7480314960629921,"duration":0.3374999999999986},{"name":"D4","midi":62,"time":57.00000000000001,"velocity":0.7480314960629921,"duration":0.3374999999999986},{"name":"D4","midi":62,"time":57.37500000000001,"velocity":0.7480314960629921,"duration":0.6749999999999972},{"name":"D5","midi":74,"time":57.37500000000001,"velocity":0.7480314960629921,"duration":0.3374999999999986},{"name":"D5","midi":74,"time":57.75000000000001,"velocity":0.7480314960629921,"duration":0.3374999999999986},{"name":"D4","midi":62,"time":58.12500000000001,"velocity":0.7480314960629921,"duration":0.3374999999999986},{"name":"D4","midi":62,"time":58.50000000000001,"velocity":0.7480314960629921,"duration":0.3374999999999986},{"name":"D4","midi":62,"time":58.87500000000001,"velocity":0.7480314960629921,"duration":0.6749999999999972},{"name":"D5","midi":74,"time":58.87500000000001,"velocity":0.7480314960629921,"duration":0.3374999999999986},{"name":"D5","midi":74,"time":59.25000000000001,"velocity":0.7480314960629921,"duration":0.3374999999999986},{"name":"D4","midi":62,"time":59.62500000000001,"velocity":0.7480314960629921,"duration":0.3374999999999986},{"name":"A4","midi":69,"time":60.00000000000001,"velocity":0.7480314960629921,"duration":0.3374999999999986},{"name":"A4","midi":69,"time":60.37500000000001,"velocity":0.7480314960629921,"duration":0.6749999999999972},{"name":"G#5","midi":80,"time":60.37500000000001,"velocity":0.7480314960629921,"duration":0.3374999999999986},{"name":"A5","midi":81,"time":60.75000000000001,"velocity":0.7480314960629921,"duration":0.3374999999999986},{"name":"A4","midi":69,"time":61.12500000000001,"velocity":0.7480314960629921,"duration":0.3374999999999986},{"name":"A4","midi":69,"time":61.50000000000001,"velocity":0.7480314960629921,"duration":0.3374999999999986},{"name":"A4","midi":69,"time":61.87500000000001,"velocity":0.7480314960629921,"duration":0.6749999999999972},{"name":"A5","midi":81,"time":61.87500000000001,"velocity":0.7480314960629921,"duration":0.3374999999999986},{"name":"A5","midi":81,"time":62.25000000000001,"velocity":0.7480314960629921,"duration":0.3374999999999986},{"name":"A4","midi":69,"time":62.62500000000001,"velocity":0.7480314960629921,"duration":0.3374999999999986},{"name":"A4","midi":69,"time":63.00000000000001,"velocity":0.7480314960629921,"duration":0.3374999999999986},{"name":"A4","midi":69,"time":63.37500000000001,"velocity":0.7480314960629921,"duration":0.6750000000000043},{"name":"A5","midi":81,"time":63.37500000000001,"velocity":0.7480314960629921,"duration":0.3374999999999986},{"name":"A5","midi":81,"time":63.75000000000001,"velocity":0.7480314960629921,"duration":0.3374999999999986},{"name":"A4","midi":69,"time":64.125,"velocity":0.7480314960629921,"duration":0.3375000000000057},{"name":"A4","midi":69,"time":64.5,"velocity":0.7480314960629921,"duration":0.3375000000000057},{"name":"A5","midi":81,"time":64.875,"velocity":0.7480314960629921,"duration":0.3375000000000057},{"name":"A4","midi":69,"time":64.875,"velocity":0.7480314960629921,"duration":0.6749999999999972},{"name":"A5","midi":81,"time":65.25,"velocity":0.7480314960629921,"duration":0.3374999999999915},{"name":"A4","midi":69,"time":65.62499999999999,"velocity":0.7480314960629921,"duration":0.3375000000000057},{"name":"E4","midi":64,"time":65.99999999999999,"velocity":0.7480314960629921,"duration":0.3375000000000057},{"name":"A5","midi":81,"time":66.37499999999999,"velocity":0.7480314960629921,"duration":0.3375000000000057},{"name":"E4","midi":64,"time":66.37499999999999,"velocity":0.7480314960629921,"duration":0.6749999999999972},{"name":"E5","midi":76,"time":66.74999999999999,"velocity":0.7480314960629921,"duration":0.3374999999999915},{"name":"E4","midi":64,"time":67.12499999999997,"velocity":0.7480314960629921,"duration":0.3375000000000057},{"name":"E4","midi":64,"time":67.49999999999997,"velocity":0.7480314960629921,"duration":0.3375000000000057},{"name":"E5","midi":76,"time":67.87499999999997,"velocity":0.7480314960629921,"duration":0.3375000000000057},{"name":"E4","midi":64,"time":67.87499999999997,"velocity":0.7480314960629921,"duration":0.6749999999999972},{"name":"E5","midi":76,"time":68.24999999999997,"velocity":0.7480314960629921,"duration":0.3374999999999915},{"name":"E4","midi":64,"time":68.62499999999996,"velocity":0.7480314960629921,"duration":0.3375000000000057},{"name":"E4","midi":64,"time":68.99999999999996,"velocity":0.7480314960629921,"duration":0.3375000000000057},{"name":"E4","midi":64,"time":69.37499999999996,"velocity":0.7480314960629921,"duration":0.6749999999999972},{"name":"E5","midi":76,"time":69.37499999999996,"velocity":0.7480314960629921,"duration":0.3375000000000057},{"name":"E5","midi":76,"time":69.74999999999996,"velocity":0.7480314960629921,"duration":0.3374999999999915},{"name":"E4","midi":64,"time":70.12499999999994,"velocity":0.7480314960629921,"duration":0.3375000000000057},{"name":"E4","midi":64,"time":70.49999999999994,"velocity":0.7480314960629921,"duration":0.3375000000000057},{"name":"E5","midi":76,"time":70.87499999999994,"velocity":0.7480314960629921,"duration":0.3375000000000057},{"name":"E4","midi":64,"time":70.87499999999994,"velocity":0.7480314960629921,"duration":0.6749999999999972},{"name":"E5","midi":76,"time":71.24999999999994,"velocity":0.7480314960629921,"duration":0.3374999999999915},{"name":"E4","midi":64,"time":71.62499999999993,"velocity":0.7480314960629921,"duration":0.3375000000000057},{"name":"D4","midi":62,"time":71.99999999999993,"velocity":0.7480314960629921,"duration":0.3375000000000057},{"name":"E5","midi":76,"time":72.37499999999993,"velocity":0.7480314960629921,"duration":0.3375000000000057},{"name":"D4","midi":62,"time":72.37499999999993,"velocity":0.7480314960629921,"duration":0.6749999999999972},{"name":"D5","midi":74,"time":72.74999999999993,"velocity":0.7480314960629921,"duration":0.3374999999999915},{"name":"D4","midi":62,"time":73.12499999999991,"velocity":0.7480314960629921,"duration":0.3375000000000057},{"name":"D4","midi":62,"time":73.49999999999991,"velocity":0.7480314960629921,"duration":0.3375000000000057},{"name":"D4","midi":62,"time":73.87499999999991,"velocity":0.7480314960629921,"duration":0.6749999999999972},{"name":"D5","midi":74,"time":73.87499999999991,"velocity":0.7480314960629921,"duration":0.3375000000000057},{"name":"D5","midi":74,"time":74.24999999999991,"velocity":0.7480314960629921,"duration":0.3374999999999915},{"name":"D4","midi":62,"time":74.6249999999999,"velocity":0.7480314960629921,"duration":0.3375000000000057},{"name":"D4","midi":62,"time":74.9999999999999,"velocity":0.7480314960629921,"duration":0.3375000000000057},{"name":"D4","midi":62,"time":75.3749999999999,"velocity":0.7480314960629921,"duration":0.6749999999999972},{"name":"D5","midi":74,"time":75.3749999999999,"velocity":0.7480314960629921,"duration":0.3375000000000057},{"name":"D5","midi":74,"time":75.7499999999999,"velocity":0.7480314960629921,"duration":0.3374999999999915},{"name":"D4","midi":62,"time":76.12499999999989,"velocity":0.7480314960629921,"duration":0.3375000000000057},{"name":"D4","midi":62,"time":76.49999999999989,"velocity":0.7480314960629921,"duration":0.3375000000000057},{"name":"D4","midi":62,"time":76.87499999999989,"velocity":0.7480314960629921,"duration":0.6749999999999972},{"name":"D5","midi":74,"time":76.87499999999989,"velocity":0.7480314960629921,"duration":0.3375000000000057},{"name":"D5","midi":74,"time":77.24999999999989,"velocity":0.7480314960629921,"duration":0.3374999999999915},{"name":"D4","midi":62,"time":77.62499999999987,"velocity":0.7480314960629921,"duration":0.3375000000000057},{"name":"A4","midi":69,"time":77.99999999999987,"velocity":0.7480314960629921,"duration":0.3375000000000057},{"name":"A4","midi":69,"time":78.37499999999987,"velocity":0.7480314960629921,"duration":0.3375000000000057},{"name":"E5","midi":76,"time":78.74999999999987,"velocity":0.7480314960629921,"duration":0.3375000000000057},{"name":"A4","midi":69,"time":78.74999999999987,"velocity":0.7480314960629921,"duration":0.3375000000000057},{"name":"E4","midi":64,"time":78.74999999999987,"velocity":0.7480314960629921,"duration":0.3375000000000057},{"name":"A4","midi":69,"time":79.12499999999987,"velocity":0.7480314960629921,"duration":0.3375000000000057},{"name":"A4","midi":69,"time":79.49999999999987,"velocity":0.7480314960629921,"duration":0.3375000000000057},{"name":"A4","midi":69,"time":79.87499999999987,"velocity":0.7480314960629921,"duration":0.3375000000000057},{"name":"E5","midi":76,"time":79.87499999999987,"velocity":0.7480314960629921,"duration":0.3375000000000057},{"name":"E4","midi":64,"time":79.87499999999987,"velocity":0.7480314960629921,"duration":0.3375000000000057},{"name":"E5","midi":76,"time":80.24999999999987,"velocity":0.7480314960629921,"duration":0.3375000000000057},{"name":"A4","midi":69,"time":80.24999999999987,"velocity":0.7480314960629921,"duration":0.3375000000000057},{"name":"E4","midi":64,"time":80.24999999999987,"velocity":0.7480314960629921,"duration":0.3375000000000057},{"name":"A4","midi":69,"time":80.62499999999987,"velocity":0.7480314960629921,"duration":0.3375000000000057},{"name":"A4","midi":69,"time":80.99999999999987,"velocity":0.7480314960629921,"duration":0.3375000000000057},{"name":"E4","midi":64,"time":81.37499999999987,"velocity":0.7480314960629921,"duration":0.3375000000000057},{"name":"A4","midi":69,"time":81.37499999999987,"velocity":0.7480314960629921,"duration":0.3375000000000057},{"name":"E5","midi":76,"time":81.37499999999987,"velocity":0.7480314960629921,"duration":0.3375000000000057},{"name":"E4","midi":64,"time":81.74999999999987,"velocity":0.7480314960629921,"duration":0.3375000000000057},{"name":"A4","midi":69,"time":81.74999999999987,"velocity":0.7480314960629921,"duration":0.3375000000000057},{"name":"E5","midi":76,"time":81.74999999999987,"velocity":0.7480314960629921,"duration":0.3375000000000057},{"name":"A4","midi":69,"time":82.12499999999987,"velocity":0.7480314960629921,"duration":0.3375000000000057},{"name":"A4","midi":69,"time":82.49999999999987,"velocity":0.7480314960629921,"duration":0.3375000000000057},{"name":"A4","midi":69,"time":82.87499999999987,"velocity":0.7480314960629921,"duration":0.3375000000000057},{"name":"E5","midi":76,"time":82.87499999999987,"velocity":0.7480314960629921,"duration":0.3375000000000057},{"name":"E4","midi":64,"time":82.87499999999987,"velocity":0.7480314960629921,"duration":0.3375000000000057},{"name":"A4","midi":69,"time":83.24999999999987,"velocity":0.7480314960629921,"duration":0.3375000000000057},{"name":"E5","midi":76,"time":83.24999999999987,"velocity":0.7480314960629921,"duration":0.3375000000000057},{"name":"E4","midi":64,"time":83.24999999999987,"velocity":0.7480314960629921,"duration":0.3375000000000057},{"name":"C#4","midi":61,"time":83.62499999999987,"velocity":0.7480314960629921,"duration":0.16875000000000284},{"name":"E4","midi":64,"time":83.81249999999987,"velocity":0.7480314960629921,"duration":0.16875000000000284},{"name":"C#4","midi":61,"time":83.99999999999987,"velocity":0.7480314960629921,"duration":0.3375000000000057},{"name":"A4","midi":69,"time":84.37499999999987,"velocity":0.7480314960629921,"duration":0.3375000000000057},{"name":"E4","midi":64,"time":84.37499999999987,"velocity":0.7480314960629921,"duration":0.3375000000000057},{"name":"C#4","midi":61,"time":84.37499999999987,"velocity":0.7480314960629921,"duration":0.6749999999999972},{"name":"E5","midi":76,"time":84.37499999999987,"velocity":0.7480314960629921,"duration":0.3375000000000057},{"name":"E5","midi":76,"time":84.74999999999987,"velocity":0.7480314960629921,"duration":0.3374999999999915},{"name":"G#5","midi":80,"time":84.74999999999987,"velocity":0.7480314960629921,"duration":0.3374999999999915},{"name":"C#4","midi":61,"time":85.12499999999986,"velocity":0.7480314960629921,"duration":0.3375000000000057},{"name":"C#4","midi":61,"time":85.49999999999986,"velocity":0.7480314960629921,"duration":0.3375000000000057},{"name":"E5","midi":76,"time":85.87499999999986,"velocity":0.7480314960629921,"duration":0.3375000000000057},{"name":"G#5","midi":80,"time":85.87499999999986,"velocity":0.7480314960629921,"duration":0.3375000000000057},{"name":"C#4","midi":61,"time":85.87499999999986,"velocity":0.7480314960629921,"duration":0.6749999999999972},{"name":"E5","midi":76,"time":86.24999999999986,"velocity":0.7480314960629921,"duration":0.3374999999999915},{"name":"G#5","midi":80,"time":86.24999999999986,"velocity":0.7480314960629921,"duration":0.3374999999999915},{"name":"C#4","midi":61,"time":86.62499999999984,"velocity":0.7480314960629921,"duration":0.3375000000000057},{"name":"C#4","midi":61,"time":86.99999999999984,"velocity":0.7480314960629921,"duration":0.3375000000000057},{"name":"C#4","midi":61,"time":87.37499999999984,"velocity":0.7480314960629921,"duration":0.6749999999999972},{"name":"G#5","midi":80,"time":87.37499999999984,"velocity":0.7480314960629921,"duration":0.3375000000000057},{"name":"E5","midi":76,"time":87.37499999999984,"velocity":0.7480314960629921,"duration":0.3375000000000057},{"name":"E5","midi":76,"time":87.74999999999984,"velocity":0.7480314960629921,"duration":0.3374999999999915},{"name":"G#5","midi":80,"time":87.74999999999984,"velocity":0.7480314960629921,"duration":0.3374999999999915},{"name":"C#4","midi":61,"time":88.12499999999983,"velocity":0.7480314960629921,"duration":0.3375000000000057},{"name":"C#4","midi":61,"time":88.49999999999983,"velocity":0.7480314960629921,"duration":0.3375000000000057},{"name":"C#4","midi":61,"time":88.87499999999983,"velocity":0.7480314960629921,"duration":0.6749999999999972},{"name":"G#5","midi":80,"time":88.87499999999983,"velocity":0.7480314960629921,"duration":0.3375000000000057},{"name":"E5","midi":76,"time":88.87499999999983,"velocity":0.7480314960629921,"duration":0.3375000000000057},{"name":"E5","midi":76,"time":89.24999999999983,"velocity":0.7480314960629921,"duration":0.3374999999999915},{"name":"G#5","midi":80,"time":89.24999999999983,"velocity":0.7480314960629921,"duration":0.3374999999999915},{"name":"F#4","midi":66,"time":89.62499999999982,"velocity":0.7480314960629921,"duration":0.16875000000000284},{"name":"G#4","midi":68,"time":89.81249999999982,"velocity":0.7480314960629921,"duration":0.16875000000000284},{"name":"F#4","midi":66,"time":89.99999999999982,"velocity":0.7480314960629921,"duration":0.3375000000000057},{"name":"G#5","midi":80,"time":90.37499999999982,"velocity":0.7480314960629921,"duration":0.3375000000000057},{"name":"E5","midi":76,"time":90.37499999999982,"velocity":0.7480314960629921,"duration":0.3375000000000057},{"name":"F#4","midi":66,"time":90.37499999999982,"velocity":0.7480314960629921,"duration":0.3375000000000057},{"name":"A4","midi":69,"time":90.74999999999982,"velocity":0.7480314960629921,"duration":0.3375000000000057},{"name":"F#5","midi":78,"time":90.74999999999982,"velocity":0.7480314960629921,"duration":0.3375000000000057},{"name":"C#5","midi":73,"time":90.74999999999982,"velocity":0.7480314960629921,"duration":0.3375000000000057},{"name":"A4","midi":69,"time":91.12499999999982,"velocity":0.7480314960629921,"duration":0.3375000000000057},{"name":"A4","midi":69,"time":91.49999999999982,"velocity":0.7480314960629921,"duration":0.3375000000000057},{"name":"C#5","midi":73,"time":91.87499999999982,"velocity":0.7480314960629921,"duration":0.3375000000000057},{"name":"A4","midi":69,"time":91.87499999999982,"velocity":0.7480314960629921,"duration":0.3375000000000057},{"name":"F#5","midi":78,"time":91.87499999999982,"velocity":0.7480314960629921,"duration":0.3375000000000057},{"name":"A4","midi":69,"time":92.24999999999982,"velocity":0.7480314960629921,"duration":0.3375000000000057},{"name":"C#5","midi":73,"time":92.24999999999982,"velocity":0.7480314960629921,"duration":0.3375000000000057},{"name":"F#5","midi":78,"time":92.24999999999982,"velocity":0.7480314960629921,"duration":0.3375000000000057},{"name":"F#5","midi":78,"time":92.62499999999982,"velocity":0.7480314960629921,"duration":0.16875000000000284},{"name":"C#5","midi":73,"time":92.62499999999982,"velocity":0.7480314960629921,"duration":0.16875000000000284},{"name":"F#5","midi":78,"time":92.81249999999982,"velocity":0.7480314960629921,"duration":0.16875000000000284},{"name":"D4","midi":62,"time":92.99999999999982,"velocity":0.7480314960629921,"duration":0.3375000000000057},{"name":"D4","midi":62,"time":93.37499999999982,"velocity":0.7480314960629921,"duration":0.6749999999999972},{"name":"F#5","midi":78,"time":93.37499999999982,"velocity":0.7480314960629921,"duration":0.3375000000000057},{"name":"C#5","midi":73,"time":93.37499999999982,"velocity":0.7480314960629921,"duration":0.3375000000000057},{"name":"A4","midi":69,"time":93.37499999999982,"velocity":0.7480314960629921,"duration":0.3375000000000057},{"name":"F#4","midi":66,"time":93.74999999999982,"velocity":0.7480314960629921,"duration":0.3374999999999915},{"name":"D4","midi":62,"time":94.1249999999998,"velocity":0.7480314960629921,"duration":0.3375000000000057},{"name":"D4","midi":62,"time":94.4999999999998,"velocity":0.7480314960629921,"duration":0.3375000000000057},{"name":"F#4","midi":66,"time":94.8749999999998,"velocity":0.7480314960629921,"duration":0.3375000000000057},{"name":"D4","midi":62,"time":94.8749999999998,"velocity":0.7480314960629921,"duration":0.6749999999999972},{"name":"F#4","midi":66,"time":95.2499999999998,"velocity":0.7480314960629921,"duration":0.3374999999999915},{"name":"D4","midi":62,"time":95.62499999999979,"velocity":0.7480314960629921,"duration":0.3375000000000057},{"name":"D4","midi":62,"time":95.99999999999979,"velocity":0.7480314960629921,"duration":0.3375000000000057},{"name":"D4","midi":62,"time":96.37499999999979,"velocity":0.7480314960629921,"duration":0.6749999999999972},{"name":"F#4","midi":66,"time":96.37499999999979,"velocity":0.7480314960629921,"duration":0.3375000000000057},{"name":"F#4","midi":66,"time":96.74999999999979,"velocity":0.7480314960629921,"duration":0.3374999999999915},{"name":"D4","midi":62,"time":97.12499999999977,"velocity":0.7480314960629921,"duration":0.3375000000000057},{"name":"D4","midi":62,"time":97.49999999999977,"velocity":0.7480314960629921,"duration":0.3375000000000057},{"name":"F#4","midi":66,"time":97.87499999999977,"velocity":0.7480314960629921,"duration":0.3375000000000057},{"name":"D4","midi":62,"time":97.87499999999977,"velocity":0.7480314960629921,"duration":0.6749999999999972},{"name":"F#4","midi":66,"time":98.24999999999977,"velocity":0.7480314960629921,"duration":0.3374999999999915},{"name":"D4","midi":62,"time":98.62499999999976,"velocity":0.7480314960629921,"duration":0.3375000000000057},{"name":"A4","midi":69,"time":98.99999999999976,"velocity":0.7480314960629921,"duration":0.3375000000000057},{"name":"A4","midi":69,"time":99.37499999999976,"velocity":0.7480314960629921,"duration":0.3375000000000057},{"name":"F#4","midi":66,"time":99.37499999999976,"velocity":0.7480314960629921,"duration":0.3375000000000057},{"name":"D4","midi":62,"time":99.37499999999976,"velocity":0.7480314960629921,"duration":0.3375000000000057},{"name":"E4","midi":64,"time":99.74999999999976,"velocity":0.7480314960629921,"duration":0.3375000000000057},{"name":"E5","midi":76,"time":99.74999999999976,"velocity":0.7480314960629921,"duration":0.3375000000000057},{"name":"A4","midi":69,"time":99.74999999999976,"velocity":0.7480314960629921,"duration":0.3375000000000057},{"name":"A4","midi":69,"time":100.12499999999976,"velocity":0.7480314960629921,"duration":0.3375000000000057},{"name":"A4","midi":69,"time":100.49999999999976,"velocity":0.7480314960629921,"duration":0.3375000000000057},{"name":"E4","midi":64,"time":100.87499999999976,"velocity":0.7480314960629921,"duration":0.3375000000000057},{"name":"E5","midi":76,"time":100.87499999999976,"velocity":0.7480314960629921,"duration":0.3375000000000057},{"name":"A4","midi":69,"time":100.87499999999976,"velocity":0.7480314960629921,"duration":0.3375000000000057},{"name":"E5","midi":76,"time":101.24999999999976,"velocity":0.7480314960629921,"duration":0.3375000000000057},{"name":"A4","midi":69,"time":101.24999999999976,"velocity":0.7480314960629921,"duration":0.3375000000000057},{"name":"E4","midi":64,"time":101.24999999999976,"velocity":0.7480314960629921,"duration":0.3375000000000057},{"name":"A4","midi":69,"time":101.62499999999976,"velocity":0.7480314960629921,"duration":0.3375000000000057},{"name":"A4","midi":69,"time":101.99999999999976,"velocity":0.7480314960629921,"duration":0.3375000000000057},{"name":"E4","midi":64,"time":102.37499999999976,"velocity":0.7480314960629921,"duration":0.3375000000000057},{"name":"A4","midi":69,"time":102.37499999999976,"velocity":0.7480314960629921,"duration":0.3375000000000057},{"name":"E5","midi":76,"time":102.37499999999976,"velocity":0.7480314960629921,"duration":0.3375000000000057},{"name":"E5","midi":76,"time":102.74999999999976,"velocity":0.7480314960629921,"duration":0.3375000000000057},{"name":"E4","midi":64,"time":102.74999999999976,"velocity":0.7480314960629921,"duration":0.3375000000000057},{"name":"A4","midi":69,"time":102.74999999999976,"velocity":0.7480314960629921,"duration":0.3375000000000057},{"name":"A4","midi":69,"time":103.12499999999976,"velocity":0.7480314960629921,"duration":0.3375000000000057},{"name":"A4","midi":69,"time":103.49999999999976,"velocity":0.7480314960629921,"duration":0.3375000000000057},{"name":"A4","midi":69,"time":103.87499999999976,"velocity":0.7480314960629921,"duration":0.3375000000000057},{"name":"E5","midi":76,"time":103.87499999999976,"velocity":0.7480314960629921,"duration":0.3375000000000057},{"name":"E4","midi":64,"time":103.87499999999976,"velocity":0.7480314960629921,"duration":0.3375000000000057},{"name":"E4","midi":64,"time":104.24999999999976,"velocity":0.7480314960629921,"duration":0.3375000000000057},{"name":"A4","midi":69,"time":104.24999999999976,"velocity":0.7480314960629921,"duration":0.3375000000000057},{"name":"E5","midi":76,"time":104.24999999999976,"velocity":0.7480314960629921,"duration":0.3375000000000057},{"name":"C#4","midi":61,"time":104.62499999999976,"velocity":0.7480314960629921,"duration":0.16875000000000284},{"name":"E4","midi":64,"time":104.81249999999976,"velocity":0.7480314960629921,"duration":0.16875000000000284},{"name":"C#4","midi":61,"time":104.99999999999976,"velocity":0.7480314960629921,"duration":0.3375000000000057},{"name":"C#4","midi":61,"time":105.37499999999976,"velocity":0.7480314960629921,"duration":0.6749999999999972},{"name":"E4","midi":64,"time":105.37499999999976,"velocity":0.7480314960629921,"duration":0.3375000000000057},{"name":"A4","midi":69,"time":105.37499999999976,"velocity":0.7480314960629921,"duration":0.3375000000000057},{"name":"E5","midi":76,"time":105.37499999999976,"velocity":0.7480314960629921,"duration":0.3375000000000057},{"name":"E5","midi":76,"time":105.74999999999976,"velocity":0.7480314960629921,"duration":0.3374999999999915},{"name":"G#5","midi":80,"time":105.74999999999976,"velocity":0.7480314960629921,"duration":0.3374999999999915},{"name":"C#4","midi":61,"time":106.12499999999974,"velocity":0.7480314960629921,"duration":0.3375000000000057},{"name":"C#4","midi":61,"time":106.49999999999974,"velocity":0.7480314960629921,"duration":0.3375000000000057},{"name":"G#5","midi":80,"time":106.87499999999974,"velocity":0.7480314960629921,"duration":0.3375000000000057},{"name":"E5","midi":76,"time":106.87499999999974,"velocity":0.7480314960629921,"duration":0.3375000000000057},{"name":"C#4","midi":61,"time":106.87499999999974,"velocity":0.7480314960629921,"duration":0.6749999999999972},{"name":"E5","midi":76,"time":107.24999999999974,"velocity":0.7480314960629921,"duration":0.3374999999999915},{"name":"G#5","midi":80,"time":107.24999999999974,"velocity":0.7480314960629921,"duration":0.3374999999999915},{"name":"C#4","midi":61,"time":107.62499999999973,"velocity":0.7480314960629921,"duration":0.3375000000000057},{"name":"C#4","midi":61,"time":107.99999999999973,"velocity":0.7480314960629921,"duration":0.3375000000000057},{"name":"E5","midi":76,"time":108.37499999999973,"velocity":0.7480314960629921,"duration":0.3375000000000057},{"name":"G#5","midi":80,"time":108.37499999999973,"velocity":0.7480314960629921,"duration":0.3375000000000057},{"name":"C#4","midi":61,"time":108.37499999999973,"velocity":0.7480314960629921,"duration":0.6749999999999972},{"name":"E5","midi":76,"time":108.74999999999973,"velocity":0.7480314960629921,"duration":0.3374999999999915},{"name":"G#5","midi":80,"time":108.74999999999973,"velocity":0.7480314960629921,"duration":0.3374999999999915},{"name":"C#4","midi":61,"time":109.12499999999972,"velocity":0.7480314960629921,"duration":0.3375000000000057},{"name":"C#4","midi":61,"time":109.49999999999972,"velocity":0.7480314960629921,"duration":0.3375000000000057},{"name":"C#4","midi":61,"time":109.87499999999972,"velocity":0.7480314960629921,"duration":0.6749999999999972},{"name":"G#5","midi":80,"time":109.87499999999972,"velocity":0.7480314960629921,"duration":0.3375000000000057},{"name":"E5","midi":76,"time":109.87499999999972,"velocity":0.7480314960629921,"duration":0.3375000000000057},{"name":"G#5","midi":80,"time":110.24999999999972,"velocity":0.7480314960629921,"duration":0.3374999999999915},{"name":"E5","midi":76,"time":110.24999999999972,"velocity":0.7480314960629921,"duration":0.3374999999999915},{"name":"F#4","midi":66,"time":110.6249999999997,"velocity":0.7480314960629921,"duration":0.16875000000000284},{"name":"G#4","midi":68,"time":110.8124999999997,"velocity":0.7480314960629921,"duration":0.16875000000000284},{"name":"F#4","midi":66,"time":110.9999999999997,"velocity":0.7480314960629921,"duration":0.3375000000000057},{"name":"E5","midi":76,"time":111.3749999999997,"velocity":0.7480314960629921,"duration":0.3375000000000057},{"name":"G#5","midi":80,"time":111.3749999999997,"velocity":0.7480314960629921,"duration":0.3375000000000057},{"name":"F#4","midi":66,"time":111.3749999999997,"velocity":0.7480314960629921,"duration":0.3375000000000057},{"name":"A4","midi":69,"time":111.7499999999997,"velocity":0.7480314960629921,"duration":0.3375000000000057},{"name":"C#5","midi":73,"time":111.7499999999997,"velocity":0.7480314960629921,"duration":0.3375000000000057},{"name":"F#5","midi":78,"time":111.7499999999997,"velocity":0.7480314960629921,"duration":0.3375000000000057},{"name":"A4","midi":69,"time":112.1249999999997,"velocity":0.7480314960629921,"duration":0.3375000000000057},{"name":"A4","midi":69,"time":112.4999999999997,"velocity":0.7480314960629921,"duration":0.3375000000000057},{"name":"C#5","midi":73,"time":112.8749999999997,"velocity":0.7480314960629921,"duration":0.3375000000000057},{"name":"A4","midi":69,"time":112.8749999999997,"velocity":0.7480314960629921,"duration":0.3375000000000057},{"name":"F#5","midi":78,"time":112.8749999999997,"velocity":0.7480314960629921,"duration":0.3375000000000057},{"name":"F#5","midi":78,"time":113.2499999999997,"velocity":0.7480314960629921,"duration":0.5062499999999943},{"name":"A4","midi":69,"time":113.2499999999997,"velocity":0.7480314960629921,"duration":0.3375000000000057},{"name":"C#5","midi":73,"time":113.2499999999997,"velocity":0.7480314960629921,"duration":0.3375000000000057},{"name":"C#5","midi":73,"time":113.6249999999997,"velocity":0.7480314960629921,"duration":0.16874999999998863},{"name":"F#5","midi":78,"time":113.81249999999969,"velocity":0.7480314960629921,"duration":0.16875000000000284},{"name":"D4","midi":62,"time":113.99999999999969,"velocity":0.7480314960629921,"duration":0.3375000000000057},{"name":"A4","midi":69,"time":114.37499999999969,"velocity":0.7480314960629921,"duration":0.3375000000000057},{"name":"C#5","midi":73,"time":114.37499999999969,"velocity":0.7480314960629921,"duration":0.3375000000000057},{"name":"F#5","midi":78,"time":114.37499999999969,"velocity":0.7480314960629921,"duration":0.3375000000000057},{"name":"D4","midi":62,"time":114.37499999999969,"velocity":0.7480314960629921,"duration":0.6749999999999972},{"name":"F#4","midi":66,"time":114.74999999999969,"velocity":0.7480314960629921,"duration":0.3374999999999915},{"name":"D4","midi":62,"time":115.12499999999967,"velocity":0.7480314960629921,"duration":0.3375000000000057},{"name":"D4","midi":62,"time":115.49999999999967,"velocity":0.7480314960629921,"duration":0.3375000000000057},{"name":"F#4","midi":66,"time":115.87499999999967,"velocity":0.7480314960629921,"duration":0.3375000000000057},{"name":"D4","midi":62,"time":115.87499999999967,"velocity":0.7480314960629921,"duration":0.6749999999999972},{"name":"F#4","midi":66,"time":116.24999999999967,"velocity":0.7480314960629921,"duration":0.3374999999999915},{"name":"D4","midi":62,"time":116.62499999999966,"velocity":0.7480314960629921,"duration":0.3375000000000057},{"name":"D4","midi":62,"time":116.99999999999966,"velocity":0.7480314960629921,"duration":0.3375000000000057},{"name":"F#4","midi":66,"time":117.37499999999966,"velocity":0.7480314960629921,"duration":0.3375000000000057},{"name":"D4","midi":62,"time":117.37499999999966,"velocity":0.7480314960629921,"duration":0.6749999999999972},{"name":"F#4","midi":66,"time":117.74999999999966,"velocity":0.7480314960629921,"duration":0.3374999999999915},{"name":"D4","midi":62,"time":118.12499999999964,"velocity":0.7480314960629921,"duration":0.3375000000000057},{"name":"D4","midi":62,"time":118.49999999999964,"velocity":0.7480314960629921,"duration":0.3375000000000057},{"name":"D4","midi":62,"time":118.87499999999964,"velocity":0.7480314960629921,"duration":0.6749999999999972},{"name":"F#4","midi":66,"time":118.87499999999964,"velocity":0.7480314960629921,"duration":0.3375000000000057},{"name":"F#4","midi":66,"time":119.24999999999964,"velocity":0.7480314960629921,"duration":0.3374999999999915},{"name":"D4","midi":62,"time":119.62499999999963,"velocity":0.7480314960629921,"duration":0.3375000000000057},{"name":"A4","midi":69,"time":119.99999999999963,"velocity":0.7480314960629921,"duration":0.3375000000000057},{"name":"A4","midi":69,"time":120.37499999999963,"velocity":0.7480314960629921,"duration":0.6749999999999972},{"name":"D4","midi":62,"time":120.37499999999963,"velocity":0.7480314960629921,"duration":0.3375000000000057},{"name":"F#5","midi":78,"time":120.37499999999963,"velocity":0.7480314960629921,"duration":0.3375000000000057},{"name":"A5","midi":81,"time":120.74999999999963,"velocity":0.7480314960629921,"duration":0.3374999999999915},{"name":"A4","midi":69,"time":121.12499999999962,"velocity":0.7480314960629921,"duration":0.3375000000000057},{"name":"A4","midi":69,"time":121.49999999999962,"velocity":0.7480314960629921,"duration":0.3375000000000057},{"name":"A4","midi":69,"time":121.87499999999962,"velocity":0.7480314960629921,"duration":0.6749999999999972},{"name":"A5","midi":81,"time":121.87499999999962,"velocity":0.7480314960629921,"duration":0.3375000000000057},{"name":"A5","midi":81,"time":122.24999999999962,"velocity":0.7480314960629921,"duration":0.3374999999999915},{"name":"A4","midi":69,"time":122.6249999999996,"velocity":0.7480314960629921,"duration":0.3375000000000057},{"name":"A4","midi":69,"time":122.9999999999996,"velocity":0.7480314960629921,"duration":0.3375000000000057},{"name":"A5","midi":81,"time":123.3749999999996,"velocity":0.7480314960629921,"duration":0.3375000000000057},{"name":"A4","midi":69,"time":123.3749999999996,"velocity":0.7480314960629921,"duration":0.6749999999999972},{"name":"A5","midi":81,"time":123.7499999999996,"velocity":0.7480314960629921,"duration":0.3374999999999915},{"name":"A4","midi":69,"time":124.12499999999959,"velocity":0.7480314960629921,"duration":0.3375000000000057},{"name":"A4","midi":69,"time":124.49999999999959,"velocity":0.7480314960629921,"duration":0.3375000000000057},{"name":"A4","midi":69,"time":124.87499999999959,"velocity":0.7480314960629921,"duration":0.6749999999999972},{"name":"A5","midi":81,"time":124.87499999999959,"velocity":0.7480314960629921,"duration":0.3375000000000057},{"name":"A5","midi":81,"time":125.24999999999959,"velocity":0.7480314960629921,"duration":0.3374999999999915},{"name":"A4","midi":69,"time":125.62499999999957,"velocity":0.7480314960629921,"duration":0.3375000000000057},{"name":"E4","midi":64,"time":125.99999999999957,"velocity":0.7480314960629921,"duration":0.3375000000000057},{"name":"E4","midi":64,"time":126.37499999999957,"velocity":0.7480314960629921,"duration":0.6749999999999972},{"name":"A5","midi":81,"time":126.37499999999957,"velocity":0.7480314960629921,"duration":0.3375000000000057},{"name":"E5","midi":76,"time":126.74999999999957,"velocity":0.7480314960629921,"duration":0.3374999999999915},{"name":"E4","midi":64,"time":127.12499999999956,"velocity":0.7480314960629921,"duration":0.3375000000000057},{"name":"E4","midi":64,"time":127.49999999999956,"velocity":0.7480314960629921,"duration":0.3375000000000057},{"name":"E5","midi":76,"time":127.87499999999956,"velocity":0.7480314960629921,"duration":0.3374999999999915},{"name":"E4","midi":64,"time":127.87499999999956,"velocity":0.7480314960629921,"duration":0.6749999999999972},{"name":"E5","midi":76,"time":128.24999999999955,"velocity":0.7480314960629921,"duration":0.3375000000000057},{"name":"E4","midi":64,"time":128.62499999999955,"velocity":0.7480314960629921,"duration":0.3375000000000057},{"name":"E4","midi":64,"time":128.99999999999955,"velocity":0.7480314960629921,"duration":0.3375000000000057},{"name":"E4","midi":64,"time":129.37499999999955,"velocity":0.7480314960629921,"duration":0.6750000000000114},{"name":"E5","midi":76,"time":129.37499999999955,"velocity":0.7480314960629921,"duration":0.3375000000000057},{"name":"E5","midi":76,"time":129.74999999999955,"velocity":0.7480314960629921,"duration":0.3375000000000057},{"name":"E4","midi":64,"time":130.12499999999955,"velocity":0.7480314960629921,"duration":0.3375000000000057},{"name":"E4","midi":64,"time":130.49999999999955,"velocity":0.7480314960629921,"duration":0.3375000000000057},{"name":"E4","midi":64,"time":130.87499999999955,"velocity":0.7480314960629921,"duration":0.6750000000000114},{"name":"E5","midi":76,"time":130.87499999999955,"velocity":0.7480314960629921,"duration":0.3375000000000057},{"name":"E5","midi":76,"time":131.24999999999955,"velocity":0.7480314960629921,"duration":0.3375000000000057},{"name":"E4","midi":64,"time":131.62499999999955,"velocity":0.7480314960629921,"duration":0.3375000000000057},{"name":"D4","midi":62,"time":131.99999999999955,"velocity":0.7480314960629921,"duration":0.3375000000000057},{"name":"E5","midi":76,"time":132.37499999999955,"velocity":0.7480314960629921,"duration":0.3375000000000057},{"name":"D4","midi":62,"time":132.37499999999955,"velocity":0.7480314960629921,"duration":0.6750000000000114},{"name":"D5","midi":74,"time":132.74999999999955,"velocity":0.7480314960629921,"duration":0.3375000000000057},{"name":"D4","midi":62,"time":133.12499999999955,"velocity":0.7480314960629921,"duration":0.3375000000000057},{"name":"D4","midi":62,"time":133.49999999999955,"velocity":0.7480314960629921,"duration":0.3375000000000057},{"name":"D4","midi":62,"time":133.87499999999955,"velocity":0.7480314960629921,"duration":0.6750000000000114},{"name":"D5","midi":74,"time":133.87499999999955,"velocity":0.7480314960629921,"duration":0.3375000000000057},{"name":"D5","midi":74,"time":134.24999999999955,"velocity":0.7480314960629921,"duration":0.3375000000000057},{"name":"D4","midi":62,"time":134.62499999999955,"velocity":0.7480314960629921,"duration":0.3375000000000057},{"name":"D4","midi":62,"time":134.99999999999955,"velocity":0.7480314960629921,"duration":0.3375000000000057},{"name":"D4","midi":62,"time":135.37499999999955,"velocity":0.7480314960629921,"duration":0.6750000000000114},{"name":"D5","midi":74,"time":135.37499999999955,"velocity":0.7480314960629921,"duration":0.3375000000000057},{"name":"D5","midi":74,"time":135.74999999999955,"velocity":0.7480314960629921,"duration":0.3375000000000057},{"name":"D4","midi":62,"time":136.12499999999955,"velocity":0.7480314960629921,"duration":0.3375000000000057},{"name":"D4","midi":62,"time":136.49999999999955,"velocity":0.7480314960629921,"duration":0.3375000000000057},{"name":"D4","midi":62,"time":136.87499999999955,"velocity":0.7480314960629921,"duration":0.6750000000000114},{"name":"D5","midi":74,"time":136.87499999999955,"velocity":0.7480314960629921,"duration":0.3375000000000057},{"name":"D5","midi":74,"time":137.24999999999955,"velocity":0.7480314960629921,"duration":0.3375000000000057},{"name":"D4","midi":62,"time":137.62499999999955,"velocity":0.7480314960629921,"duration":0.3375000000000057},{"name":"A4","midi":69,"time":137.99999999999955,"velocity":0.7480314960629921,"duration":0.3375000000000057},{"name":"G#5","midi":80,"time":138.37499999999955,"velocity":0.7480314960629921,"duration":0.3375000000000057},{"name":"A4","midi":69,"time":138.37499999999955,"velocity":0.7480314960629921,"duration":0.6750000000000114},{"name":"A5","midi":81,"time":138.74999999999955,"velocity":0.7480314960629921,"duration":0.3375000000000057},{"name":"A4","midi":69,"time":139.12499999999955,"velocity":0.7480314960629921,"duration":0.3375000000000057},{"name":"A4","midi":69,"time":139.49999999999955,"velocity":0.7480314960629921,"duration":0.3375000000000057},{"name":"A5","midi":81,"time":139.87499999999955,"velocity":0.7480314960629921,"duration":0.3375000000000057},{"name":"A4","midi":69,"time":139.87499999999955,"velocity":0.7480314960629921,"duration":0.6750000000000114},{"name":"A5","midi":81,"time":140.24999999999955,"velocity":0.7480314960629921,"duration":0.3375000000000057},{"name":"A4","midi":69,"time":140.62499999999955,"velocity":0.7480314960629921,"duration":0.3375000000000057},{"name":"A4","midi":69,"time":140.99999999999955,"velocity":0.7480314960629921,"duration":0.3375000000000057},{"name":"A5","midi":81,"time":141.37499999999955,"velocity":0.7480314960629921,"duration":0.3375000000000057},{"name":"A4","midi":69,"time":141.37499999999955,"velocity":0.7480314960629921,"duration":0.6750000000000114},{"name":"A5","midi":81,"time":141.74999999999955,"velocity":0.7480314960629921,"duration":0.3375000000000057},{"name":"A4","midi":69,"time":142.12499999999955,"velocity":0.7480314960629921,"duration":0.3375000000000057},{"name":"A4","midi":69,"time":142.49999999999955,"velocity":0.7480314960629921,"duration":0.3375000000000057},{"name":"A5","midi":81,"time":142.87499999999955,"velocity":0.7480314960629921,"duration":0.3375000000000057},{"name":"A4","midi":69,"time":142.87499999999955,"velocity":0.7480314960629921,"duration":0.6750000000000114},{"name":"A5","midi":81,"time":143.24999999999955,"velocity":0.7480314960629921,"duration":0.3375000000000057},{"name":"A4","midi":69,"time":143.62499999999955,"velocity":0.7480314960629921,"duration":0.3375000000000057},{"name":"E4","midi":64,"time":143.99999999999955,"velocity":0.7480314960629921,"duration":0.3375000000000057},{"name":"E4","midi":64,"time":144.37499999999955,"velocity":0.7480314960629921,"duration":0.6750000000000114},{"name":"A5","midi":81,"time":144.37499999999955,"velocity":0.7480314960629921,"duration":0.3375000000000057},{"name":"E5","midi":76,"time":144.74999999999955,"velocity":0.7480314960629921,"duration":0.3375000000000057},{"name":"E4","midi":64,"time":145.12499999999955,"velocity":0.7480314960629921,"duration":0.3375000000000057},{"name":"E4","midi":64,"time":145.49999999999955,"velocity":0.7480314960629921,"duration":0.3375000000000057},{"name":"E5","midi":76,"time":145.87499999999955,"velocity":0.7480314960629921,"duration":0.3375000000000057},{"name":"E4","midi":64,"time":145.87499999999955,"velocity":0.7480314960629921,"duration":0.6750000000000114},{"name":"E5","midi":76,"time":146.24999999999955,"velocity":0.7480314960629921,"duration":0.3375000000000057},{"name":"E4","midi":64,"time":146.62499999999955,"velocity":0.7480314960629921,"duration":0.3375000000000057},{"name":"E4","midi":64,"time":146.99999999999955,"velocity":0.7480314960629921,"duration":0.3375000000000057},{"name":"E5","midi":76,"time":147.37499999999955,"velocity":0.7480314960629921,"duration":0.3375000000000057},{"name":"E4","midi":64,"time":147.37499999999955,"velocity":0.7480314960629921,"duration":0.6750000000000114},{"name":"E5","midi":76,"time":147.74999999999955,"velocity":0.7480314960629921,"duration":0.3375000000000057},{"name":"E4","midi":64,"time":148.12499999999955,"velocity":0.7480314960629921,"duration":0.3375000000000057},{"name":"E4","midi":64,"time":148.49999999999955,"velocity":0.7480314960629921,"duration":0.3375000000000057},{"name":"E5","midi":76,"time":148.87499999999955,"velocity":0.7480314960629921,"duration":0.3375000000000057},{"name":"E4","midi":64,"time":148.87499999999955,"velocity":0.7480314960629921,"duration":0.6750000000000114},{"name":"E5","midi":76,"time":149.24999999999955,"velocity":0.7480314960629921,"duration":0.3375000000000057},{"name":"E4","midi":64,"time":149.62499999999955,"velocity":0.7480314960629921,"duration":0.3375000000000057},{"name":"D4","midi":62,"time":149.99999999999955,"velocity":0.7480314960629921,"duration":0.3375000000000057},{"name":"D4","midi":62,"time":150.37499999999955,"velocity":0.7480314960629921,"duration":0.6750000000000114},{"name":"E5","midi":76,"time":150.37499999999955,"velocity":0.7480314960629921,"duration":0.3375000000000057},{"name":"D5","midi":74,"time":150.74999999999955,"velocity":0.7480314960629921,"duration":0.3375000000000057},{"name":"D4","midi":62,"time":151.12499999999955,"velocity":0.7480314960629921,"duration":0.3375000000000057},{"name":"D4","midi":62,"time":151.49999999999955,"velocity":0.7480314960629921,"duration":0.3375000000000057},{"name":"D5","midi":74,"time":151.87499999999955,"velocity":0.7480314960629921,"duration":0.3375000000000057},{"name":"D4","midi":62,"time":151.87499999999955,"velocity":0.7480314960629921,"duration":0.6750000000000114},{"name":"D5","midi":74,"time":152.24999999999955,"velocity":0.7480314960629921,"duration":0.3375000000000057},{"name":"D4","midi":62,"time":152.62499999999955,"velocity":0.7480314960629921,"duration":0.3375000000000057},{"name":"D4","midi":62,"time":152.99999999999955,"velocity":0.7480314960629921,"duration":0.3375000000000057},{"name":"D4","midi":62,"time":153.37499999999955,"velocity":0.7480314960629921,"duration":0.6750000000000114},{"name":"D5","midi":74,"time":153.37499999999955,"velocity":0.7480314960629921,"duration":0.3375000000000057},{"name":"D5","midi":74,"time":153.74999999999955,"velocity":0.7480314960629921,"duration":0.3375000000000057},{"name":"D4","midi":62,"time":154.12499999999955,"velocity":0.7480314960629921,"duration":0.3375000000000057},{"name":"D4","midi":62,"time":154.49999999999955,"velocity":0.7480314960629921,"duration":0.3375000000000057},{"name":"D4","midi":62,"time":154.87499999999955,"velocity":0.7480314960629921,"duration":0.6750000000000114},{"name":"D5","midi":74,"time":154.87499999999955,"velocity":0.7480314960629921,"duration":0.3375000000000057},{"name":"D5","midi":74,"time":155.24999999999955,"velocity":0.7480314960629921,"duration":0.3375000000000057},{"name":"D4","midi":62,"time":155.62499999999955,"velocity":0.7480314960629921,"duration":0.3375000000000057},{"name":"A4","midi":69,"time":155.99999999999955,"velocity":0.7480314960629921,"duration":0.3375000000000057},{"name":"A4","midi":69,"time":156.37499999999955,"velocity":0.7480314960629921,"duration":0.3375000000000057},{"name":"E5","midi":76,"time":156.74999999999955,"velocity":0.7480314960629921,"duration":0.3375000000000057},{"name":"E4","midi":64,"time":156.74999999999955,"velocity":0.7480314960629921,"duration":0.3375000000000057},{"name":"A4","midi":69,"time":156.74999999999955,"velocity":0.7480314960629921,"duration":0.3375000000000057},{"name":"A4","midi":69,"time":157.12499999999955,"velocity":0.7480314960629921,"duration":0.3375000000000057},{"name":"A4","midi":69,"time":157.49999999999955,"velocity":0.7480314960629921,"duration":0.3375000000000057},{"name":"A4","midi":69,"time":157.87499999999955,"velocity":0.7480314960629921,"duration":0.3375000000000057},{"name":"E4","midi":64,"time":157.87499999999955,"velocity":0.7480314960629921,"duration":0.3375000000000057},{"name":"E5","midi":76,"time":157.87499999999955,"velocity":0.7480314960629921,"duration":0.3375000000000057},{"name":"E4","midi":64,"time":158.24999999999955,"velocity":0.7480314960629921,"duration":0.3375000000000057},{"name":"A4","midi":69,"time":158.24999999999955,"velocity":0.7480314960629921,"duration":0.3375000000000057},{"name":"E5","midi":76,"time":158.24999999999955,"velocity":0.7480314960629921,"duration":0.3375000000000057},{"name":"A4","midi":69,"time":158.62499999999955,"velocity":0.7480314960629921,"duration":0.3375000000000057},{"name":"A4","midi":69,"time":158.99999999999955,"velocity":0.7480314960629921,"duration":0.3375000000000057},{"name":"A4","midi":69,"time":159.37499999999955,"velocity":0.7480314960629921,"duration":0.3375000000000057},{"name":"E4","midi":64,"time":159.37499999999955,"velocity":0.7480314960629921,"duration":0.3375000000000057},{"name":"E5","midi":76,"time":159.37499999999955,"velocity":0.7480314960629921,"duration":0.3375000000000057},{"name":"A4","midi":69,"time":159.74999999999955,"velocity":0.7480314960629921,"duration":0.3375000000000057},{"name":"E4","midi":64,"time":159.74999999999955,"velocity":0.7480314960629921,"duration":0.3375000000000057},{"name":"E5","midi":76,"time":159.74999999999955,"velocity":0.7480314960629921,"duration":0.3375000000000057},{"name":"A4","midi":69,"time":160.12499999999955,"velocity":0.7480314960629921,"duration":0.3375000000000057},{"name":"A4","midi":69,"time":160.49999999999955,"velocity":0.7480314960629921,"duration":0.3375000000000057},{"name":"A4","midi":69,"time":160.87499999999955,"velocity":0.7480314960629921,"duration":0.3375000000000057},{"name":"E4","midi":64,"time":160.87499999999955,"velocity":0.7480314960629921,"duration":0.3375000000000057},{"name":"E5","midi":76,"time":160.87499999999955,"velocity":0.7480314960629921,"duration":0.3375000000000057},{"name":"E4","midi":64,"time":161.24999999999955,"velocity":0.7480314960629921,"duration":0.3375000000000057},{"name":"A4","midi":69,"time":161.24999999999955,"velocity":0.7480314960629921,"duration":0.3375000000000057},{"name":"E5","midi":76,"time":161.24999999999955,"velocity":0.7480314960629921,"duration":0.3375000000000057},{"name":"C#4","midi":61,"time":161.62499999999955,"velocity":0.7480314960629921,"duration":0.16874999999998863},{"name":"E4","midi":64,"time":161.81249999999955,"velocity":0.7480314960629921,"duration":0.16874999999998863},{"name":"C#4","midi":61,"time":161.99999999999955,"velocity":0.7480314960629921,"duration":0.3375000000000057},{"name":"A4","midi":69,"time":162.37499999999955,"velocity":0.7480314960629921,"duration":0.3375000000000057},{"name":"E4","midi":64,"time":162.37499999999955,"velocity":0.7480314960629921,"duration":0.3375000000000057},{"name":"E5","midi":76,"time":162.37499999999955,"velocity":0.7480314960629921,"duration":0.3375000000000057},{"name":"C#4","midi":61,"time":162.37499999999955,"velocity":0.7480314960629921,"duration":0.6750000000000114},{"name":"E5","midi":76,"time":162.74999999999955,"velocity":0.7480314960629921,"duration":0.3375000000000057},{"name":"G#5","midi":80,"time":162.74999999999955,"velocity":0.7480314960629921,"duration":0.3375000000000057},{"name":"C#4","midi":61,"time":163.12499999999955,"velocity":0.7480314960629921,"duration":0.3375000000000057},{"name":"C#4","midi":61,"time":163.49999999999955,"velocity":0.7480314960629921,"duration":0.3375000000000057},{"name":"E5","midi":76,"time":163.87499999999955,"velocity":0.7480314960629921,"duration":0.3375000000000057},{"name":"G#5","midi":80,"time":163.87499999999955,"velocity":0.7480314960629921,"duration":0.3375000000000057},{"name":"C#4","midi":61,"time":163.87499999999955,"velocity":0.7480314960629921,"duration":0.6750000000000114},{"name":"E5","midi":76,"time":164.24999999999955,"velocity":0.7480314960629921,"duration":0.3375000000000057},{"name":"G#5","midi":80,"time":164.24999999999955,"velocity":0.7480314960629921,"duration":0.3375000000000057},{"name":"C#4","midi":61,"time":164.62499999999955,"velocity":0.7480314960629921,"duration":0.3375000000000057},{"name":"C#4","midi":61,"time":164.99999999999955,"velocity":0.7480314960629921,"duration":0.3375000000000057},{"name":"E5","midi":76,"time":165.37499999999955,"velocity":0.7480314960629921,"duration":0.3375000000000057},{"name":"G#5","midi":80,"time":165.37499999999955,"velocity":0.7480314960629921,"duration":0.3375000000000057},{"name":"C#4","midi":61,"time":165.37499999999955,"velocity":0.7480314960629921,"duration":0.6750000000000114},{"name":"G#5","midi":80,"time":165.74999999999955,"velocity":0.7480314960629921,"duration":0.3375000000000057},{"name":"E5","midi":76,"time":165.74999999999955,"velocity":0.7480314960629921,"duration":0.3375000000000057},{"name":"C#4","midi":61,"time":166.12499999999955,"velocity":0.7480314960629921,"duration":0.3375000000000057},{"name":"C#4","midi":61,"time":166.49999999999955,"velocity":0.7480314960629921,"duration":0.3375000000000057},{"name":"E5","midi":76,"time":166.87499999999955,"velocity":0.7480314960629921,"duration":0.3375000000000057},{"name":"G#5","midi":80,"time":166.87499999999955,"velocity":0.7480314960629921,"duration":0.3375000000000057},{"name":"C#4","midi":61,"time":166.87499999999955,"velocity":0.7480314960629921,"duration":0.6750000000000114},{"name":"G#5","midi":80,"time":167.24999999999955,"velocity":0.7480314960629921,"duration":0.3375000000000057},{"name":"E5","midi":76,"time":167.24999999999955,"velocity":0.7480314960629921,"duration":0.3375000000000057},{"name":"F#4","midi":66,"time":167.62499999999955,"velocity":0.7480314960629921,"duration":0.16874999999998863},{"name":"G#4","midi":68,"time":167.81249999999955,"velocity":0.7480314960629921,"duration":0.16874999999998863},{"name":"F#4","midi":66,"time":167.99999999999955,"velocity":0.7480314960629921,"duration":0.3375000000000057},{"name":"F#4","midi":66,"time":168.37499999999955,"velocity":0.7480314960629921,"duration":0.3375000000000057},{"name":"E5","midi":76,"time":168.37499999999955,"velocity":0.7480314960629921,"duration":0.3375000000000057},{"name":"G#5","midi":80,"time":168.37499999999955,"velocity":0.7480314960629921,"duration":0.3375000000000057},{"name":"A4","midi":69,"time":168.74999999999955,"velocity":0.7480314960629921,"duration":0.3375000000000057},{"name":"F#5","midi":78,"time":168.74999999999955,"velocity":0.7480314960629921,"duration":0.3375000000000057},{"name":"C#5","midi":73,"time":168.74999999999955,"velocity":0.7480314960629921,"duration":0.3375000000000057},{"name":"A4","midi":69,"time":169.12499999999955,"velocity":0.7480314960629921,"duration":0.3375000000000057},{"name":"A4","midi":69,"time":169.49999999999955,"velocity":0.7480314960629921,"duration":0.3375000000000057},{"name":"A4","midi":69,"time":169.87499999999955,"velocity":0.7480314960629921,"duration":0.3375000000000057},{"name":"F#5","midi":78,"time":169.87499999999955,"velocity":0.7480314960629921,"duration":0.3375000000000057},{"name":"C#5","midi":73,"time":169.87499999999955,"velocity":0.7480314960629921,"duration":0.3375000000000057},{"name":"C#5","midi":73,"time":170.24999999999955,"velocity":0.7480314960629921,"duration":0.3375000000000057},{"name":"F#5","midi":78,"time":170.24999999999955,"velocity":0.7480314960629921,"duration":0.5062499999999943},{"name":"A4","midi":69,"time":170.24999999999955,"velocity":0.7480314960629921,"duration":0.3375000000000057},{"name":"C#5","midi":73,"time":170.62499999999955,"velocity":0.7480314960629921,"duration":0.16874999999998863},{"name":"F#5","midi":78,"time":170.81249999999955,"velocity":0.7480314960629921,"duration":0.16874999999998863},{"name":"D4","midi":62,"time":170.99999999999955,"velocity":0.7480314960629921,"duration":0.3375000000000057},{"name":"D4","midi":62,"time":171.37499999999955,"velocity":0.7480314960629921,"duration":0.6750000000000114},{"name":"F#5","midi":78,"time":171.37499999999955,"velocity":0.7480314960629921,"duration":0.3375000000000057},{"name":"C#5","midi":73,"time":171.37499999999955,"velocity":0.7480314960629921,"duration":0.3375000000000057},{"name":"A4","midi":69,"time":171.37499999999955,"velocity":0.7480314960629921,"duration":0.3375000000000057},{"name":"F#4","midi":66,"time":171.74999999999955,"velocity":0.7480314960629921,"duration":0.3375000000000057},{"name":"D4","midi":62,"time":172.12499999999955,"velocity":0.7480314960629921,"duration":0.3375000000000057},{"name":"D4","midi":62,"time":172.49999999999955,"velocity":0.7480314960629921,"duration":0.3375000000000057},{"name":"D4","midi":62,"time":172.87499999999955,"velocity":0.7480314960629921,"duration":0.6750000000000114},{"name":"F#4","midi":66,"time":172.87499999999955,"velocity":0.7480314960629921,"duration":0.3375000000000057},{"name":"F#4","midi":66,"time":173.24999999999955,"velocity":0.7480314960629921,"duration":0.3375000000000057},{"name":"D4","midi":62,"time":173.62499999999955,"velocity":0.7480314960629921,"duration":0.3375000000000057},{"name":"D4","midi":62,"time":173.99999999999955,"velocity":0.7480314960629921,"duration":0.3375000000000057},{"name":"F#4","midi":66,"time":174.37499999999955,"velocity":0.7480314960629921,"duration":0.3375000000000057},{"name":"D4","midi":62,"time":174.37499999999955,"velocity":0.7480314960629921,"duration":0.6750000000000114},{"name":"F#4","midi":66,"time":174.74999999999955,"velocity":0.7480314960629921,"duration":0.3375000000000057},{"name":"D4","midi":62,"time":175.12499999999955,"velocity":0.7480314960629921,"duration":0.3375000000000057},{"name":"D4","midi":62,"time":175.49999999999955,"velocity":0.7480314960629921,"duration":0.3375000000000057},{"name":"F#4","midi":66,"time":175.87499999999955,"velocity":0.7480314960629921,"duration":0.3375000000000057},{"name":"D4","midi":62,"time":175.87499999999955,"velocity":0.7480314960629921,"duration":0.6750000000000114},{"name":"F#4","midi":66,"time":176.24999999999955,"velocity":0.7480314960629921,"duration":0.3375000000000057},{"name":"D4","midi":62,"time":176.62499999999955,"velocity":0.7480314960629921,"duration":0.3375000000000057},{"name":"C#5","midi":73,"time":176.99999999999955,"velocity":0.7480314960629921,"duration":0.3375000000000057},{"name":"A4","midi":69,"time":176.99999999999955,"velocity":0.7480314960629921,"duration":0.3375000000000057},{"name":"A4","midi":69,"time":177.37499999999955,"velocity":0.7480314960629921,"duration":0.6750000000000114},{"name":"C#5","midi":73,"time":177.37499999999955,"velocity":0.7480314960629921,"duration":0.6750000000000114},{"name":"C#5","midi":73,"time":178.12499999999955,"velocity":0.7480314960629921,"duration":0.3375000000000057},{"name":"A4","midi":69,"time":178.12499999999955,"velocity":0.7480314960629921,"duration":0.3375000000000057},{"name":"C#5","midi":73,"time":178.49999999999955,"velocity":0.7480314960629921,"duration":0.3375000000000057},{"name":"A4","midi":69,"time":178.49999999999955,"velocity":0.7480314960629921,"duration":0.3375000000000057},{"name":"C#5","midi":73,"time":178.87499999999955,"velocity":0.7480314960629921,"duration":0.6750000000000114},{"name":"A4","midi":69,"time":178.87499999999955,"velocity":0.7480314960629921,"duration":0.6750000000000114},{"name":"A4","midi":69,"time":179.62499999999955,"velocity":0.7480314960629921,"duration":0.3375000000000057},{"name":"C#5","midi":73,"time":179.62499999999955,"velocity":0.7480314960629921,"duration":0.3375000000000057},{"name":"A4","midi":69,"time":179.99999999999955,"velocity":0.7480314960629921,"duration":0.3375000000000057},{"name":"C#5","midi":73,"time":179.99999999999955,"velocity":0.7480314960629921,"duration":0.3375000000000057},{"name":"C#5","midi":73,"time":180.37499999999955,"velocity":0.7480314960629921,"duration":0.6750000000000114},{"name":"A4","midi":69,"time":180.37499999999955,"velocity":0.7480314960629921,"duration":0.6750000000000114},{"name":"A4","midi":69,"time":181.12499999999955,"velocity":0.7480314960629921,"duration":0.3375000000000057},{"name":"C#5","midi":73,"time":181.12499999999955,"velocity":0.7480314960629921,"duration":0.3375000000000057},{"name":"C#5","midi":73,"time":181.49999999999955,"velocity":0.7480314960629921,"duration":0.3375000000000057},{"name":"A4","midi":69,"time":181.49999999999955,"velocity":0.7480314960629921,"duration":0.3375000000000057},{"name":"A4","midi":69,"time":181.87499999999955,"velocity":0.7480314960629921,"duration":0.6750000000000114},{"name":"C#5","midi":73,"time":181.87499999999955,"velocity":0.7480314960629921,"duration":0.6750000000000114},{"name":"A4","midi":69,"time":182.62499999999955,"velocity":0.7480314960629921,"duration":0.3375000000000057},{"name":"C#5","midi":73,"time":182.62499999999955,"velocity":0.7480314960629921,"duration":0.3375000000000057},{"name":"E4","midi":64,"time":182.99999999999955,"velocity":0.7480314960629921,"duration":0.3375000000000057},{"name":"G#4","midi":68,"time":182.99999999999955,"velocity":0.7480314960629921,"duration":0.3375000000000057},{"name":"E4","midi":64,"time":183.37499999999955,"velocity":0.7480314960629921,"duration":0.6750000000000114},{"name":"G#4","midi":68,"time":183.37499999999955,"velocity":0.7480314960629921,"duration":0.6750000000000114},{"name":"G#4","midi":68,"time":184.12499999999955,"velocity":0.7480314960629921,"duration":0.3375000000000057},{"name":"E4","midi":64,"time":184.12499999999955,"velocity":0.7480314960629921,"duration":0.3375000000000057},{"name":"E4","midi":64,"time":184.49999999999955,"velocity":0.7480314960629921,"duration":0.3375000000000057},{"name":"G#4","midi":68,"time":184.49999999999955,"velocity":0.7480314960629921,"duration":0.3375000000000057},{"name":"G#4","midi":68,"time":184.87499999999955,"velocity":0.7480314960629921,"duration":0.6750000000000114},{"name":"E4","midi":64,"time":184.87499999999955,"velocity":0.7480314960629921,"duration":0.6750000000000114},{"name":"G#4","midi":68,"time":185.62499999999955,"velocity":0.7480314960629921,"duration":0.3375000000000057},{"name":"E4","midi":64,"time":185.62499999999955,"velocity":0.7480314960629921,"duration":0.3375000000000057},{"name":"G#4","midi":68,"time":185.99999999999955,"velocity":0.7480314960629921,"duration":0.3375000000000057},{"name":"E4","midi":64,"time":185.99999999999955,"velocity":0.7480314960629921,"duration":0.3375000000000057},{"name":"E4","midi":64,"time":186.37499999999955,"velocity":0.7480314960629921,"duration":0.6750000000000114},{"name":"G#4","midi":68,"time":186.37499999999955,"velocity":0.7480314960629921,"duration":0.6750000000000114},{"name":"E4","midi":64,"time":187.12499999999955,"velocity":0.7480314960629921,"duration":0.3375000000000057},{"name":"G#4","midi":68,"time":187.12499999999955,"velocity":0.7480314960629921,"duration":0.3375000000000057},{"name":"E4","midi":64,"time":187.49999999999955,"velocity":0.7480314960629921,"duration":0.3375000000000057},{"name":"G#4","midi":68,"time":187.49999999999955,"velocity":0.7480314960629921,"duration":0.3375000000000057},{"name":"E4","midi":64,"time":187.87499999999955,"velocity":0.7480314960629921,"duration":0.6750000000000114},{"name":"G#4","midi":68,"time":187.87499999999955,"velocity":0.7480314960629921,"duration":0.6750000000000114},{"name":"E4","midi":64,"time":188.62499999999955,"velocity":0.7480314960629921,"duration":0.3375000000000057},{"name":"G#4","midi":68,"time":188.62499999999955,"velocity":0.7480314960629921,"duration":0.3375000000000057},{"name":"D4","midi":62,"time":188.99999999999955,"velocity":0.7480314960629921,"duration":0.3375000000000057},{"name":"F#4","midi":66,"time":188.99999999999955,"velocity":0.7480314960629921,"duration":0.3375000000000057},{"name":"D4","midi":62,"time":189.37499999999955,"velocity":0.7480314960629921,"duration":0.6750000000000114},{"name":"F#4","midi":66,"time":189.37499999999955,"velocity":0.7480314960629921,"duration":0.6750000000000114},{"name":"D4","midi":62,"time":190.12499999999955,"velocity":0.7480314960629921,"duration":0.3375000000000057},{"name":"F#4","midi":66,"time":190.12499999999955,"velocity":0.7480314960629921,"duration":0.3375000000000057},{"name":"F#4","midi":66,"time":190.49999999999955,"velocity":0.7480314960629921,"duration":0.3375000000000057},{"name":"D4","midi":62,"time":190.49999999999955,"velocity":0.7480314960629921,"duration":0.3375000000000057},{"name":"F#4","midi":66,"time":190.87499999999955,"velocity":0.7480314960629921,"duration":0.6750000000000114},{"name":"D4","midi":62,"time":190.87499999999955,"velocity":0.7480314960629921,"duration":0.6750000000000114},{"name":"D4","midi":62,"time":191.62499999999955,"velocity":0.7480314960629921,"duration":0.3375000000000057},{"name":"F#4","midi":66,"time":191.62499999999955,"velocity":0.7480314960629921,"duration":0.3375000000000057},{"name":"F#4","midi":66,"time":191.99999999999955,"velocity":0.7480314960629921,"duration":0.3375000000000057},{"name":"D4","midi":62,"time":191.99999999999955,"velocity":0.7480314960629921,"duration":0.3375000000000057},{"name":"D4","midi":62,"time":192.37499999999955,"velocity":0.7480314960629921,"duration":0.6750000000000114},{"name":"F#4","midi":66,"time":192.37499999999955,"velocity":0.7480314960629921,"duration":0.6750000000000114},{"name":"D4","midi":62,"time":193.12499999999955,"velocity":0.7480314960629921,"duration":0.3375000000000057},{"name":"F#4","midi":66,"time":193.12499999999955,"velocity":0.7480314960629921,"duration":0.3375000000000057},{"name":"D4","midi":62,"time":193.49999999999955,"velocity":0.7480314960629921,"duration":0.3375000000000057},{"name":"F#4","midi":66,"time":193.49999999999955,"velocity":0.7480314960629921,"duration":0.3375000000000057},{"name":"D4","midi":62,"time":193.87499999999955,"velocity":0.7480314960629921,"duration":0.6750000000000114},{"name":"F#4","midi":66,"time":193.87499999999955,"velocity":0.7480314960629921,"duration":0.6750000000000114},{"name":"D4","midi":62,"time":194.62499999999955,"velocity":0.7480314960629921,"duration":0.3375000000000057},{"name":"F#4","midi":66,"time":194.62499999999955,"velocity":0.7480314960629921,"duration":0.3375000000000057},{"name":"A4","midi":69,"time":194.99999999999955,"velocity":0.7480314960629921,"duration":0.3375000000000057},{"name":"C#5","midi":73,"time":194.99999999999955,"velocity":0.7480314960629921,"duration":0.3375000000000057},{"name":"A4","midi":69,"time":195.37499999999955,"velocity":0.7480314960629921,"duration":0.6750000000000114},{"name":"C#5","midi":73,"time":195.37499999999955,"velocity":0.7480314960629921,"duration":0.6750000000000114},{"name":"A4","midi":69,"time":196.12499999999955,"velocity":0.7480314960629921,"duration":0.3375000000000057},{"name":"C#5","midi":73,"time":196.12499999999955,"velocity":0.7480314960629921,"duration":0.3375000000000057},{"name":"C#5","midi":73,"time":196.49999999999955,"velocity":0.7480314960629921,"duration":0.3375000000000057},{"name":"A4","midi":69,"time":196.49999999999955,"velocity":0.7480314960629921,"duration":0.3375000000000057},{"name":"C#5","midi":73,"time":196.87499999999955,"velocity":0.7480314960629921,"duration":0.6750000000000114},{"name":"A4","midi":69,"time":196.87499999999955,"velocity":0.7480314960629921,"duration":0.6750000000000114},{"name":"C#5","midi":73,"time":197.62499999999955,"velocity":0.7480314960629921,"duration":0.3375000000000057},{"name":"A4","midi":69,"time":197.62499999999955,"velocity":0.7480314960629921,"duration":0.3375000000000057},{"name":"C#5","midi":73,"time":197.99999999999955,"velocity":0.7480314960629921,"duration":0.3375000000000057},{"name":"A4","midi":69,"time":197.99999999999955,"velocity":0.7480314960629921,"duration":0.3375000000000057},{"name":"A4","midi":69,"time":198.37499999999955,"velocity":0.7480314960629921,"duration":0.6750000000000114},{"name":"C#5","midi":73,"time":198.37499999999955,"velocity":0.7480314960629921,"duration":0.6750000000000114},{"name":"A4","midi":69,"time":199.12499999999955,"velocity":0.7480314960629921,"duration":0.3375000000000057},{"name":"C#5","midi":73,"time":199.12499999999955,"velocity":0.7480314960629921,"duration":0.3375000000000057},{"name":"A4","midi":69,"time":199.49999999999955,"velocity":0.7480314960629921,"duration":0.3375000000000057},{"name":"C#5","midi":73,"time":199.49999999999955,"velocity":0.7480314960629921,"duration":0.3375000000000057},{"name":"C#5","midi":73,"time":199.87499999999955,"velocity":0.7480314960629921,"duration":0.6750000000000114},{"name":"A4","midi":69,"time":199.87499999999955,"velocity":0.7480314960629921,"duration":0.6750000000000114},{"name":"A4","midi":69,"time":200.62499999999955,"velocity":0.7480314960629921,"duration":0.3375000000000057},{"name":"C#5","midi":73,"time":200.62499999999955,"velocity":0.7480314960629921,"duration":0.3375000000000057},{"name":"E4","midi":64,"time":200.99999999999955,"velocity":0.7480314960629921,"duration":0.3375000000000057},{"name":"G#4","midi":68,"time":200.99999999999955,"velocity":0.7480314960629921,"duration":0.3375000000000057},{"name":"E4","midi":64,"time":201.37499999999955,"velocity":0.7480314960629921,"duration":0.6750000000000114},{"name":"G#4","midi":68,"time":201.37499999999955,"velocity":0.7480314960629921,"duration":0.6750000000000114},{"name":"E4","midi":64,"time":202.12499999999955,"velocity":0.7480314960629921,"duration":0.3375000000000057},{"name":"G#4","midi":68,"time":202.12499999999955,"velocity":0.7480314960629921,"duration":0.3375000000000057},{"name":"E4","midi":64,"time":202.49999999999955,"velocity":0.7480314960629921,"duration":0.3375000000000057},{"name":"G#4","midi":68,"time":202.49999999999955,"velocity":0.7480314960629921,"duration":0.3375000000000057},{"name":"G#4","midi":68,"time":202.87499999999955,"velocity":0.7480314960629921,"duration":0.6750000000000114},{"name":"E4","midi":64,"time":202.87499999999955,"velocity":0.7480314960629921,"duration":0.6750000000000114},{"name":"G#4","midi":68,"time":203.62499999999955,"velocity":0.7480314960629921,"duration":0.3375000000000057},{"name":"E4","midi":64,"time":203.62499999999955,"velocity":0.7480314960629921,"duration":0.3375000000000057},{"name":"G#4","midi":68,"time":203.99999999999955,"velocity":0.7480314960629921,"duration":0.3375000000000057},{"name":"E4","midi":64,"time":203.99999999999955,"velocity":0.7480314960629921,"duration":0.3375000000000057},{"name":"G#4","midi":68,"time":204.37499999999955,"velocity":0.7480314960629921,"duration":0.6750000000000114},{"name":"E4","midi":64,"time":204.37499999999955,"velocity":0.7480314960629921,"duration":0.6750000000000114},{"name":"G#4","midi":68,"time":205.12499999999955,"velocity":0.7480314960629921,"duration":0.3375000000000057},{"name":"E4","midi":64,"time":205.12499999999955,"velocity":0.7480314960629921,"duration":0.3375000000000057},{"name":"E4","midi":64,"time":205.49999999999955,"velocity":0.7480314960629921,"duration":0.3375000000000057},{"name":"G#4","midi":68,"time":205.49999999999955,"velocity":0.7480314960629921,"duration":0.3375000000000057},{"name":"E4","midi":64,"time":205.87499999999955,"velocity":0.7480314960629921,"duration":0.6750000000000114},{"name":"G#4","midi":68,"time":205.87499999999955,"velocity":0.7480314960629921,"duration":0.6750000000000114},{"name":"G#4","midi":68,"time":206.62499999999955,"velocity":0.7480314960629921,"duration":0.3375000000000057},{"name":"E4","midi":64,"time":206.62499999999955,"velocity":0.7480314960629921,"duration":0.3375000000000057},{"name":"D4","midi":62,"time":206.99999999999955,"velocity":0.7480314960629921,"duration":0.3375000000000057},{"name":"F#4","midi":66,"time":206.99999999999955,"velocity":0.7480314960629921,"duration":0.3375000000000057},{"name":"F#4","midi":66,"time":207.37499999999955,"velocity":0.7480314960629921,"duration":0.6750000000000114},{"name":"D4","midi":62,"time":207.37499999999955,"velocity":0.7480314960629921,"duration":0.6750000000000114},{"name":"D4","midi":62,"time":208.12499999999955,"velocity":0.7480314960629921,"duration":0.3375000000000057},{"name":"F#4","midi":66,"time":208.12499999999955,"velocity":0.7480314960629921,"duration":0.3375000000000057},{"name":"F#4","midi":66,"time":208.49999999999955,"velocity":0.7480314960629921,"duration":0.3375000000000057},{"name":"D4","midi":62,"time":208.49999999999955,"velocity":0.7480314960629921,"duration":0.3375000000000057},{"name":"F#4","midi":66,"time":208.87499999999955,"velocity":0.7480314960629921,"duration":0.6750000000000114},{"name":"D4","midi":62,"time":208.87499999999955,"velocity":0.7480314960629921,"duration":0.6750000000000114},{"name":"F#4","midi":66,"time":209.62499999999955,"velocity":0.7480314960629921,"duration":0.3375000000000057},{"name":"D4","midi":62,"time":209.62499999999955,"velocity":0.7480314960629921,"duration":0.3375000000000057},{"name":"F#4","midi":66,"time":209.99999999999955,"velocity":0.7480314960629921,"duration":0.3375000000000057},{"name":"D4","midi":62,"time":209.99999999999955,"velocity":0.7480314960629921,"duration":0.3375000000000057},{"name":"F#4","midi":66,"time":210.37499999999955,"velocity":0.7480314960629921,"duration":0.6750000000000114},{"name":"D4","midi":62,"time":210.37499999999955,"velocity":0.7480314960629921,"duration":0.6750000000000114},{"name":"F#4","midi":66,"time":211.12499999999955,"velocity":0.7480314960629921,"duration":0.3375000000000057},{"name":"D4","midi":62,"time":211.12499999999955,"velocity":0.7480314960629921,"duration":0.3375000000000057},{"name":"F#4","midi":66,"time":211.49999999999955,"velocity":0.7480314960629921,"duration":0.3375000000000057},{"name":"D4","midi":62,"time":211.49999999999955,"velocity":0.7480314960629921,"duration":0.3375000000000057},{"name":"F#4","midi":66,"time":211.87499999999955,"velocity":0.7480314960629921,"duration":0.6750000000000114},{"name":"D4","midi":62,"time":211.87499999999955,"velocity":0.7480314960629921,"duration":0.6750000000000114},{"name":"F#4","midi":66,"time":212.62499999999955,"velocity":0.7480314960629921,"duration":0.3375000000000057},{"name":"D4","midi":62,"time":212.62499999999955,"velocity":0.7480314960629921,"duration":0.3375000000000057},{"name":"C#5","midi":73,"time":212.99999999999955,"velocity":0.7480314960629921,"duration":0.3375000000000057},{"name":"A4","midi":69,"time":212.99999999999955,"velocity":0.7480314960629921,"duration":0.3375000000000057},{"name":"A4","midi":69,"time":213.37499999999955,"velocity":0.7480314960629921,"duration":0.3375000000000057},{"name":"C#5","midi":73,"time":213.37499999999955,"velocity":0.7480314960629921,"duration":0.3375000000000057},{"name":"A4","midi":69,"time":213.74999999999955,"velocity":0.7480314960629921,"duration":0.3375000000000057},{"name":"C#5","midi":73,"time":213.74999999999955,"velocity":0.7480314960629921,"duration":0.3375000000000057},{"name":"A4","midi":69,"time":214.12499999999955,"velocity":0.7480314960629921,"duration":0.3375000000000057},{"name":"C#5","midi":73,"time":214.12499999999955,"velocity":0.7480314960629921,"duration":0.3375000000000057},{"name":"A4","midi":69,"time":214.49999999999955,"velocity":0.7480314960629921,"duration":0.3375000000000057},{"name":"C#5","midi":73,"time":214.49999999999955,"velocity":0.7480314960629921,"duration":0.3375000000000057},{"name":"A4","midi":69,"time":214.87499999999955,"velocity":0.7480314960629921,"duration":0.3375000000000057},{"name":"C#5","midi":73,"time":214.87499999999955,"velocity":0.7480314960629921,"duration":0.3375000000000057},{"name":"A4","midi":69,"time":215.24999999999955,"velocity":0.7480314960629921,"duration":0.3375000000000057},{"name":"C#5","midi":73,"time":215.24999999999955,"velocity":0.7480314960629921,"duration":0.3375000000000057},{"name":"A4","midi":69,"time":215.62499999999955,"velocity":0.7480314960629921,"duration":0.3375000000000057},{"name":"C#5","midi":73,"time":215.62499999999955,"velocity":0.7480314960629921,"duration":0.3375000000000057},{"name":"A4","midi":69,"time":215.99999999999955,"velocity":0.7480314960629921,"duration":0.3375000000000057},{"name":"C#5","midi":73,"time":215.99999999999955,"velocity":0.7480314960629921,"duration":0.3375000000000057},{"name":"C#5","midi":73,"time":216.37499999999955,"velocity":0.7480314960629921,"duration":0.3375000000000057},{"name":"A4","midi":69,"time":216.37499999999955,"velocity":0.7480314960629921,"duration":0.3375000000000057},{"name":"C#5","midi":73,"time":216.74999999999955,"velocity":0.7480314960629921,"duration":0.3375000000000057},{"name":"A4","midi":69,"time":216.74999999999955,"velocity":0.7480314960629921,"duration":0.3375000000000057},{"name":"C#5","midi":73,"time":217.12499999999955,"velocity":0.7480314960629921,"duration":0.3375000000000057},{"name":"A4","midi":69,"time":217.12499999999955,"velocity":0.7480314960629921,"duration":0.3375000000000057},{"name":"A4","midi":69,"time":217.49999999999955,"velocity":0.7480314960629921,"duration":0.3375000000000057},{"name":"C#5","midi":73,"time":217.49999999999955,"velocity":0.7480314960629921,"duration":0.3375000000000057},{"name":"C#5","midi":73,"time":217.87499999999955,"velocity":0.7480314960629921,"duration":0.3375000000000057},{"name":"A4","midi":69,"time":217.87499999999955,"velocity":0.7480314960629921,"duration":0.3375000000000057},{"name":"C#5","midi":73,"time":218.24999999999955,"velocity":0.7480314960629921,"duration":0.3375000000000057},{"name":"A4","midi":69,"time":218.24999999999955,"velocity":0.7480314960629921,"duration":0.3375000000000057},{"name":"C#5","midi":73,"time":218.62499999999955,"velocity":0.7480314960629921,"duration":0.3375000000000057},{"name":"A4","midi":69,"time":218.62499999999955,"velocity":0.7480314960629921,"duration":0.3375000000000057},{"name":"G#4","midi":68,"time":218.99999999999955,"velocity":0.7480314960629921,"duration":0.3375000000000057},{"name":"E4","midi":64,"time":218.99999999999955,"velocity":0.7480314960629921,"duration":0.3375000000000057},{"name":"E4","midi":64,"time":219.37499999999955,"velocity":0.7480314960629921,"duration":0.3375000000000057},{"name":"G#4","midi":68,"time":219.37499999999955,"velocity":0.7480314960629921,"duration":0.3375000000000057},{"name":"E4","midi":64,"time":219.74999999999955,"velocity":0.7480314960629921,"duration":0.3375000000000057},{"name":"G#4","midi":68,"time":219.74999999999955,"velocity":0.7480314960629921,"duration":0.3375000000000057},{"name":"G#4","midi":68,"time":220.12499999999955,"velocity":0.7480314960629921,"duration":0.3375000000000057},{"name":"E4","midi":64,"time":220.12499999999955,"velocity":0.7480314960629921,"duration":0.3375000000000057},{"name":"E4","midi":64,"time":220.49999999999955,"velocity":0.7480314960629921,"duration":0.3375000000000057},{"name":"G#4","midi":68,"time":220.49999999999955,"velocity":0.7480314960629921,"duration":0.3375000000000057},{"name":"E4","midi":64,"time":220.87499999999955,"velocity":0.7480314960629921,"duration":0.3375000000000057},{"name":"G#4","midi":68,"time":220.87499999999955,"velocity":0.7480314960629921,"duration":0.3375000000000057},{"name":"G#4","midi":68,"time":221.24999999999955,"velocity":0.7480314960629921,"duration":0.3375000000000057},{"name":"E4","midi":64,"time":221.24999999999955,"velocity":0.7480314960629921,"duration":0.3375000000000057},{"name":"E4","midi":64,"time":221.62499999999955,"velocity":0.7480314960629921,"duration":0.3375000000000057},{"name":"G#4","midi":68,"time":221.62499999999955,"velocity":0.7480314960629921,"duration":0.3375000000000057},{"name":"E4","midi":64,"time":221.99999999999955,"velocity":0.7480314960629921,"duration":0.3375000000000057},{"name":"G#4","midi":68,"time":221.99999999999955,"velocity":0.7480314960629921,"duration":0.3375000000000057},{"name":"G#4","midi":68,"time":222.37499999999955,"velocity":0.7480314960629921,"duration":0.3375000000000057},{"name":"E4","midi":64,"time":222.37499999999955,"velocity":0.7480314960629921,"duration":0.3375000000000057},{"name":"G#4","midi":68,"time":222.74999999999955,"velocity":0.7480314960629921,"duration":0.3375000000000057},{"name":"E4","midi":64,"time":222.74999999999955,"velocity":0.7480314960629921,"duration":0.3375000000000057},{"name":"G#4","midi":68,"time":223.12499999999955,"velocity":0.7480314960629921,"duration":0.3375000000000057},{"name":"E4","midi":64,"time":223.12499999999955,"velocity":0.7480314960629921,"duration":0.3375000000000057},{"name":"E4","midi":64,"time":223.49999999999955,"velocity":0.7480314960629921,"duration":0.3375000000000057},{"name":"G#4","midi":68,"time":223.49999999999955,"velocity":0.7480314960629921,"duration":0.3375000000000057},{"name":"E4","midi":64,"time":223.87499999999955,"velocity":0.7480314960629921,"duration":0.3375000000000057},{"name":"G#4","midi":68,"time":223.87499999999955,"velocity":0.7480314960629921,"duration":0.3375000000000057},{"name":"E4","midi":64,"time":224.24999999999955,"velocity":0.7480314960629921,"duration":0.3375000000000057},{"name":"G#4","midi":68,"time":224.24999999999955,"velocity":0.7480314960629921,"duration":0.3375000000000057},{"name":"G#4","midi":68,"time":224.62499999999955,"velocity":0.7480314960629921,"duration":0.3375000000000057},{"name":"E4","midi":64,"time":224.62499999999955,"velocity":0.7480314960629921,"duration":0.3375000000000057},{"name":"F#4","midi":66,"time":224.99999999999955,"velocity":0.7480314960629921,"duration":0.3375000000000057},{"name":"D4","midi":62,"time":224.99999999999955,"velocity":0.7480314960629921,"duration":0.3375000000000057},{"name":"D4","midi":62,"time":225.37499999999955,"velocity":0.7480314960629921,"duration":0.3375000000000057},{"name":"F#4","midi":66,"time":225.37499999999955,"velocity":0.7480314960629921,"duration":0.3375000000000057},{"name":"F#4","midi":66,"time":225.74999999999955,"velocity":0.7480314960629921,"duration":0.3375000000000057},{"name":"D4","midi":62,"time":225.74999999999955,"velocity":0.7480314960629921,"duration":0.3375000000000057},{"name":"F#4","midi":66,"time":226.12499999999955,"velocity":0.7480314960629921,"duration":0.3375000000000057},{"name":"D4","midi":62,"time":226.12499999999955,"velocity":0.7480314960629921,"duration":0.3375000000000057},{"name":"D4","midi":62,"time":226.49999999999955,"velocity":0.7480314960629921,"duration":0.3375000000000057},{"name":"F#4","midi":66,"time":226.49999999999955,"velocity":0.7480314960629921,"duration":0.3375000000000057},{"name":"D4","midi":62,"time":226.87499999999955,"velocity":0.7480314960629921,"duration":0.3375000000000057},{"name":"F#4","midi":66,"time":226.87499999999955,"velocity":0.7480314960629921,"duration":0.3375000000000057},{"name":"F#4","midi":66,"time":227.24999999999955,"velocity":0.7480314960629921,"duration":0.3375000000000057},{"name":"D4","midi":62,"time":227.24999999999955,"velocity":0.7480314960629921,"duration":0.3375000000000057},{"name":"F#4","midi":66,"time":227.62499999999955,"velocity":0.7480314960629921,"duration":0.3375000000000057},{"name":"D4","midi":62,"time":227.62499999999955,"velocity":0.7480314960629921,"duration":0.3375000000000057},{"name":"G#4","midi":68,"time":227.99999999999955,"velocity":0.7480314960629921,"duration":0.3375000000000057},{"name":"E4","midi":64,"time":227.99999999999955,"velocity":0.7480314960629921,"duration":0.3375000000000057},{"name":"E4","midi":64,"time":228.37499999999955,"velocity":0.7480314960629921,"duration":0.3375000000000057},{"name":"G#4","midi":68,"time":228.37499999999955,"velocity":0.7480314960629921,"duration":0.3375000000000057},{"name":"E4","midi":64,"time":228.74999999999955,"velocity":0.7480314960629921,"duration":0.3375000000000057},{"name":"G#4","midi":68,"time":228.74999999999955,"velocity":0.7480314960629921,"duration":0.3375000000000057},{"name":"G#4","midi":68,"time":229.12499999999955,"velocity":0.7480314960629921,"duration":0.3375000000000057},{"name":"E4","midi":64,"time":229.12499999999955,"velocity":0.7480314960629921,"duration":0.3375000000000057},{"name":"E4","midi":64,"time":229.49999999999955,"velocity":0.7480314960629921,"duration":0.3375000000000057},{"name":"G#4","midi":68,"time":229.49999999999955,"velocity":0.7480314960629921,"duration":0.3375000000000057},{"name":"E4","midi":64,"time":229.87499999999955,"velocity":0.7480314960629921,"duration":0.3375000000000057},{"name":"G#4","midi":68,"time":229.87499999999955,"velocity":0.7480314960629921,"duration":0.3375000000000057},{"name":"E4","midi":64,"time":230.24999999999955,"velocity":0.7480314960629921,"duration":0.3375000000000057},{"name":"G#4","midi":68,"time":230.24999999999955,"velocity":0.7480314960629921,"duration":0.3375000000000057},{"name":"E4","midi":64,"time":230.62499999999955,"velocity":0.7480314960629921,"duration":0.3375000000000057},{"name":"G#4","midi":68,"time":230.62499999999955,"velocity":0.7480314960629921,"duration":0.3375000000000057},{"name":"F#4","midi":66,"time":230.99999999999955,"velocity":0.7480314960629921,"duration":0.3375000000000057},{"name":"D4","midi":62,"time":230.99999999999955,"velocity":0.7480314960629921,"duration":0.3375000000000057},{"name":"F#4","midi":66,"time":231.37499999999955,"velocity":0.7480314960629921,"duration":0.3375000000000057},{"name":"D4","midi":62,"time":231.37499999999955,"velocity":0.7480314960629921,"duration":0.3375000000000057},{"name":"F#4","midi":66,"time":231.74999999999955,"velocity":0.7480314960629921,"duration":0.3375000000000057},{"name":"D4","midi":62,"time":231.74999999999955,"velocity":0.7480314960629921,"duration":0.3375000000000057},{"name":"D4","midi":62,"time":232.12499999999955,"velocity":0.7480314960629921,"duration":0.3375000000000057},{"name":"F#4","midi":66,"time":232.12499999999955,"velocity":0.7480314960629921,"duration":0.3375000000000057},{"name":"D4","midi":62,"time":232.49999999999955,"velocity":0.7480314960629921,"duration":0.3375000000000057},{"name":"F#4","midi":66,"time":232.49999999999955,"velocity":0.7480314960629921,"duration":0.3375000000000057},{"name":"D4","midi":62,"time":232.87499999999955,"velocity":0.7480314960629921,"duration":0.3375000000000057},{"name":"F#4","midi":66,"time":232.87499999999955,"velocity":0.7480314960629921,"duration":0.3375000000000057},{"name":"D4","midi":62,"time":233.24999999999955,"velocity":0.7480314960629921,"duration":0.3375000000000057},{"name":"F#4","midi":66,"time":233.24999999999955,"velocity":0.7480314960629921,"duration":0.3375000000000057},{"name":"D4","midi":62,"time":233.62499999999955,"velocity":0.7480314960629921,"duration":0.3375000000000057},{"name":"F#4","midi":66,"time":233.62499999999955,"velocity":0.7480314960629921,"duration":0.3375000000000057},{"name":"F#4","midi":66,"time":233.99999999999955,"velocity":0.7480314960629921,"duration":0.3375000000000057},{"name":"D4","midi":62,"time":233.99999999999955,"velocity":0.7480314960629921,"duration":0.3375000000000057},{"name":"F#4","midi":66,"time":234.37499999999955,"velocity":0.7480314960629921,"duration":0.3375000000000057},{"name":"D4","midi":62,"time":234.37499999999955,"velocity":0.7480314960629921,"duration":0.3375000000000057},{"name":"D4","midi":62,"time":234.74999999999955,"velocity":0.7480314960629921,"duration":0.3375000000000057},{"name":"F#4","midi":66,"time":234.74999999999955,"velocity":0.7480314960629921,"duration":0.3375000000000057},{"name":"F#4","midi":66,"time":235.12499999999955,"velocity":0.7480314960629921,"duration":0.3375000000000057},{"name":"D4","midi":62,"time":235.12499999999955,"velocity":0.7480314960629921,"duration":0.3375000000000057},{"name":"F#4","midi":66,"time":235.49999999999955,"velocity":0.7480314960629921,"duration":0.3375000000000057},{"name":"D4","midi":62,"time":235.49999999999955,"velocity":0.7480314960629921,"duration":0.3375000000000057},{"name":"F#4","midi":66,"time":235.87499999999955,"velocity":0.7480314960629921,"duration":0.3375000000000057},{"name":"D4","midi":62,"time":235.87499999999955,"velocity":0.7480314960629921,"duration":0.3375000000000057},{"name":"D4","midi":62,"time":236.24999999999955,"velocity":0.7480314960629921,"duration":0.3375000000000057},{"name":"F#4","midi":66,"time":236.24999999999955,"velocity":0.7480314960629921,"duration":0.3375000000000057},{"name":"D4","midi":62,"time":236.62499999999955,"velocity":0.7480314960629921,"duration":0.3375000000000057},{"name":"F#4","midi":66,"time":236.62499999999955,"velocity":0.7480314960629921,"duration":0.3375000000000057},{"name":"A4","midi":69,"time":236.99999999999955,"velocity":0.7480314960629921,"duration":0.3375000000000057},{"name":"C#5","midi":73,"time":236.99999999999955,"velocity":0.7480314960629921,"duration":0.3375000000000057},{"name":"C#5","midi":73,"time":237.37499999999955,"velocity":0.7480314960629921,"duration":0.3375000000000057},{"name":"A4","midi":69,"time":237.37499999999955,"velocity":0.7480314960629921,"duration":0.3375000000000057},{"name":"C#5","midi":73,"time":237.74999999999955,"velocity":0.7480314960629921,"duration":0.3375000000000057},{"name":"A4","midi":69,"time":237.74999999999955,"velocity":0.7480314960629921,"duration":0.3375000000000057},{"name":"A4","midi":69,"time":238.12499999999955,"velocity":0.7480314960629921,"duration":0.3375000000000057},{"name":"C#5","midi":73,"time":238.12499999999955,"velocity":0.7480314960629921,"duration":0.3375000000000057},{"name":"A4","midi":69,"time":238.49999999999955,"velocity":0.7480314960629921,"duration":0.3375000000000057},{"name":"C#5","midi":73,"time":238.49999999999955,"velocity":0.7480314960629921,"duration":0.3375000000000057},{"name":"C#5","midi":73,"time":238.87499999999955,"velocity":0.7480314960629921,"duration":0.3375000000000057},{"name":"A4","midi":69,"time":238.87499999999955,"velocity":0.7480314960629921,"duration":0.3375000000000057},{"name":"A4","midi":69,"time":239.24999999999955,"velocity":0.7480314960629921,"duration":0.3375000000000057},{"name":"C#5","midi":73,"time":239.24999999999955,"velocity":0.7480314960629921,"duration":0.3375000000000057},{"name":"C#5","midi":73,"time":239.62499999999955,"velocity":0.7480314960629921,"duration":0.3375000000000057},{"name":"A4","midi":69,"time":239.62499999999955,"velocity":0.7480314960629921,"duration":0.3375000000000057},{"name":"A4","midi":69,"time":239.99999999999955,"velocity":0.7480314960629921,"duration":0.3375000000000057},{"name":"C#5","midi":73,"time":239.99999999999955,"velocity":0.7480314960629921,"duration":0.3375000000000057},{"name":"A4","midi":69,"time":240.37499999999955,"velocity":0.7480314960629921,"duration":0.3375000000000057},{"name":"C#5","midi":73,"time":240.37499999999955,"velocity":0.7480314960629921,"duration":0.3375000000000057},{"name":"C#5","midi":73,"time":240.74999999999955,"velocity":0.7480314960629921,"duration":0.3375000000000057},{"name":"A4","midi":69,"time":240.74999999999955,"velocity":0.7480314960629921,"duration":0.3375000000000057},{"name":"C#5","midi":73,"time":241.12499999999955,"velocity":0.7480314960629921,"duration":0.3375000000000057},{"name":"A4","midi":69,"time":241.12499999999955,"velocity":0.7480314960629921,"duration":0.3375000000000057},{"name":"C#5","midi":73,"time":241.49999999999955,"velocity":0.7480314960629921,"duration":0.3375000000000057},{"name":"A4","midi":69,"time":241.49999999999955,"velocity":0.7480314960629921,"duration":0.3375000000000057},{"name":"C#5","midi":73,"time":241.87499999999955,"velocity":0.7480314960629921,"duration":0.3375000000000057},{"name":"A4","midi":69,"time":241.87499999999955,"velocity":0.7480314960629921,"duration":0.3375000000000057},{"name":"C#5","midi":73,"time":242.24999999999955,"velocity":0.7480314960629921,"duration":0.3375000000000057},{"name":"A4","midi":69,"time":242.24999999999955,"velocity":0.7480314960629921,"duration":0.3375000000000057},{"name":"A4","midi":69,"time":242.62499999999955,"velocity":0.7480314960629921,"duration":0.3375000000000057},{"name":"C#5","midi":73,"time":242.62499999999955,"velocity":0.7480314960629921,"duration":0.3375000000000057},{"name":"G#4","midi":68,"time":242.99999999999955,"velocity":0.7480314960629921,"duration":0.3375000000000057},{"name":"E4","midi":64,"time":242.99999999999955,"velocity":0.7480314960629921,"duration":0.3375000000000057},{"name":"E4","midi":64,"time":243.37499999999955,"velocity":0.7480314960629921,"duration":0.3375000000000057},{"name":"G#4","midi":68,"time":243.37499999999955,"velocity":0.7480314960629921,"duration":0.3375000000000057},{"name":"E4","midi":64,"time":243.74999999999955,"velocity":0.7480314960629921,"duration":0.3375000000000057},{"name":"G#4","midi":68,"time":243.74999999999955,"velocity":0.7480314960629921,"duration":0.3375000000000057},{"name":"E4","midi":64,"time":244.12499999999955,"velocity":0.7480314960629921,"duration":0.3375000000000057},{"name":"G#4","midi":68,"time":244.12499999999955,"velocity":0.7480314960629921,"duration":0.3375000000000057},{"name":"E4","midi":64,"time":244.49999999999955,"velocity":0.7480314960629921,"duration":0.3375000000000057},{"name":"G#4","midi":68,"time":244.49999999999955,"velocity":0.7480314960629921,"duration":0.3375000000000057},{"name":"G#4","midi":68,"time":244.87499999999955,"velocity":0.7480314960629921,"duration":0.3375000000000057},{"name":"E4","midi":64,"time":244.87499999999955,"velocity":0.7480314960629921,"duration":0.3375000000000057},{"name":"E4","midi":64,"time":245.24999999999955,"velocity":0.7480314960629921,"duration":0.3375000000000057},{"name":"G#4","midi":68,"time":245.24999999999955,"velocity":0.7480314960629921,"duration":0.3375000000000057},{"name":"E4","midi":64,"time":245.62499999999955,"velocity":0.7480314960629921,"duration":0.3375000000000057},{"name":"G#4","midi":68,"time":245.62499999999955,"velocity":0.7480314960629921,"duration":0.3375000000000057},{"name":"E4","midi":64,"time":245.99999999999955,"velocity":0.7480314960629921,"duration":0.3375000000000057},{"name":"G#4","midi":68,"time":245.99999999999955,"velocity":0.7480314960629921,"duration":0.3375000000000057},{"name":"E4","midi":64,"time":246.37499999999955,"velocity":0.7480314960629921,"duration":0.3375000000000057},{"name":"G#4","midi":68,"time":246.37499999999955,"velocity":0.7480314960629921,"duration":0.3375000000000057},{"name":"E4","midi":64,"time":246.74999999999955,"velocity":0.7480314960629921,"duration":0.3375000000000057},{"name":"G#4","midi":68,"time":246.74999999999955,"velocity":0.7480314960629921,"duration":0.3375000000000057},{"name":"E4","midi":64,"time":247.12499999999955,"velocity":0.7480314960629921,"duration":0.3375000000000057},{"name":"G#4","midi":68,"time":247.12499999999955,"velocity":0.7480314960629921,"duration":0.3375000000000057},{"name":"E4","midi":64,"time":247.49999999999955,"velocity":0.7480314960629921,"duration":0.3375000000000057},{"name":"G#4","midi":68,"time":247.49999999999955,"velocity":0.7480314960629921,"duration":0.3375000000000057},{"name":"G#4","midi":68,"time":247.87499999999955,"velocity":0.7480314960629921,"duration":0.3375000000000057},{"name":"E4","midi":64,"time":247.87499999999955,"velocity":0.7480314960629921,"duration":0.3375000000000057},{"name":"G#4","midi":68,"time":248.24999999999955,"velocity":0.7480314960629921,"duration":0.3375000000000057},{"name":"E4","midi":64,"time":248.24999999999955,"velocity":0.7480314960629921,"duration":0.3375000000000057},{"name":"G#4","midi":68,"time":248.62499999999955,"velocity":0.7480314960629921,"duration":0.3375000000000057},{"name":"E4","midi":64,"time":248.62499999999955,"velocity":0.7480314960629921,"duration":0.3375000000000057},{"name":"D4","midi":62,"time":248.99999999999955,"velocity":0.7480314960629921,"duration":0.3375000000000057},{"name":"F#4","midi":66,"time":248.99999999999955,"velocity":0.7480314960629921,"duration":0.3375000000000057},{"name":"D4","midi":62,"time":249.37499999999955,"velocity":0.7480314960629921,"duration":0.3375000000000057},{"name":"F#4","midi":66,"time":249.37499999999955,"velocity":0.7480314960629921,"duration":0.3375000000000057},{"name":"F#4","midi":66,"time":249.74999999999955,"velocity":0.7480314960629921,"duration":0.3375000000000057},{"name":"D4","midi":62,"time":249.74999999999955,"velocity":0.7480314960629921,"duration":0.3375000000000057},{"name":"D4","midi":62,"time":250.12499999999955,"velocity":0.7480314960629921,"duration":0.3375000000000057},{"name":"F#4","midi":66,"time":250.12499999999955,"velocity":0.7480314960629921,"duration":0.3375000000000057},{"name":"D4","midi":62,"time":250.49999999999955,"velocity":0.7480314960629921,"duration":0.3375000000000057},{"name":"F#4","midi":66,"time":250.49999999999955,"velocity":0.7480314960629921,"duration":0.3375000000000057},{"name":"D4","midi":62,"time":250.87499999999955,"velocity":0.7480314960629921,"duration":0.3375000000000057},{"name":"F#4","midi":66,"time":250.87499999999955,"velocity":0.7480314960629921,"duration":0.3375000000000057},{"name":"D4","midi":62,"time":251.24999999999955,"velocity":0.7480314960629921,"duration":0.3375000000000057},{"name":"F#4","midi":66,"time":251.24999999999955,"velocity":0.7480314960629921,"duration":0.3375000000000057},{"name":"D4","midi":62,"time":251.62499999999955,"velocity":0.7480314960629921,"duration":0.3375000000000057},{"name":"F#4","midi":66,"time":251.62499999999955,"velocity":0.7480314960629921,"duration":0.3375000000000057},{"name":"G#4","midi":68,"time":251.99999999999955,"velocity":0.7480314960629921,"duration":0.3375000000000057},{"name":"E4","midi":64,"time":251.99999999999955,"velocity":0.7480314960629921,"duration":0.3375000000000057},{"name":"E4","midi":64,"time":252.37499999999955,"velocity":0.7480314960629921,"duration":0.3375000000000057},{"name":"G#4","midi":68,"time":252.37499999999955,"velocity":0.7480314960629921,"duration":0.3375000000000057},{"name":"G#4","midi":68,"time":252.74999999999955,"velocity":0.7480314960629921,"duration":0.3375000000000057},{"name":"E4","midi":64,"time":252.74999999999955,"velocity":0.7480314960629921,"duration":0.3375000000000057},{"name":"G#4","midi":68,"time":253.12499999999955,"velocity":0.7480314960629921,"duration":0.3375000000000057},{"name":"E4","midi":64,"time":253.12499999999955,"velocity":0.7480314960629921,"duration":0.3375000000000057},{"name":"E4","midi":64,"time":253.49999999999955,"velocity":0.7480314960629921,"duration":0.3375000000000057},{"name":"G#4","midi":68,"time":253.49999999999955,"velocity":0.7480314960629921,"duration":0.3375000000000057},{"name":"E4","midi":64,"time":253.87499999999955,"velocity":0.7480314960629921,"duration":0.3375000000000057},{"name":"G#4","midi":68,"time":253.87499999999955,"velocity":0.7480314960629921,"duration":0.3375000000000057},{"name":"E4","midi":64,"time":254.24999999999955,"velocity":0.7480314960629921,"duration":0.3375000000000057},{"name":"G#4","midi":68,"time":254.24999999999955,"velocity":0.7480314960629921,"duration":0.3375000000000057},{"name":"G#4","midi":68,"time":254.62499999999955,"velocity":0.7480314960629921,"duration":0.3375000000000057},{"name":"E4","midi":64,"time":254.62499999999955,"velocity":0.7480314960629921,"duration":0.3375000000000057},{"name":"F#4","midi":66,"time":254.99999999999955,"velocity":0.7480314960629921,"duration":0.3375000000000057},{"name":"D4","midi":62,"time":254.99999999999955,"velocity":0.7480314960629921,"duration":0.3375000000000057},{"name":"F#4","midi":66,"time":255.37499999999955,"velocity":0.7480314960629921,"duration":0.3375000000000057},{"name":"D4","midi":62,"time":255.37499999999955,"velocity":0.7480314960629921,"duration":0.3375000000000057},{"name":"D4","midi":62,"time":255.74999999999955,"velocity":0.7480314960629921,"duration":0.33749999999997726},{"name":"F#4","midi":66,"time":255.74999999999955,"velocity":0.7480314960629921,"duration":0.33749999999997726},{"name":"F#4","midi":66,"time":256.12499999999955,"velocity":0.7480314960629921,"duration":0.33749999999997726},{"name":"D4","midi":62,"time":256.12499999999955,"velocity":0.7480314960629921,"duration":0.33749999999997726},{"name":"F#4","midi":66,"time":256.49999999999955,"velocity":0.7480314960629921,"duration":0.33749999999997726},{"name":"D4","midi":62,"time":256.49999999999955,"velocity":0.7480314960629921,"duration":0.33749999999997726},{"name":"F#4","midi":66,"time":256.87499999999955,"velocity":0.7480314960629921,"duration":0.33749999999997726},{"name":"D4","midi":62,"time":256.87499999999955,"velocity":0.7480314960629921,"duration":0.33749999999997726},{"name":"F#4","midi":66,"time":257.24999999999955,"velocity":0.7480314960629921,"duration":0.33749999999997726},{"name":"D4","midi":62,"time":257.24999999999955,"velocity":0.7480314960629921,"duration":0.33749999999997726},{"name":"F#4","midi":66,"time":257.62499999999955,"velocity":0.7480314960629921,"duration":0.33749999999997726},{"name":"D4","midi":62,"time":257.62499999999955,"velocity":0.7480314960629921,"duration":0.33749999999997726},{"name":"F#4","midi":66,"time":257.99999999999955,"velocity":0.7480314960629921,"duration":0.33749999999997726},{"name":"D4","midi":62,"time":257.99999999999955,"velocity":0.7480314960629921,"duration":0.33749999999997726},{"name":"D4","midi":62,"time":258.37499999999955,"velocity":0.7480314960629921,"duration":0.33749999999997726},{"name":"F#4","midi":66,"time":258.37499999999955,"velocity":0.7480314960629921,"duration":0.33749999999997726},{"name":"F#4","midi":66,"time":258.74999999999955,"velocity":0.7480314960629921,"duration":0.33749999999997726},{"name":"D4","midi":62,"time":258.74999999999955,"velocity":0.7480314960629921,"duration":0.33749999999997726},{"name":"F#4","midi":66,"time":259.12499999999955,"velocity":0.7480314960629921,"duration":0.33749999999997726},{"name":"D4","midi":62,"time":259.12499999999955,"velocity":0.7480314960629921,"duration":0.33749999999997726},{"name":"F#4","midi":66,"time":259.49999999999955,"velocity":0.7480314960629921,"duration":0.33749999999997726},{"name":"D4","midi":62,"time":259.49999999999955,"velocity":0.7480314960629921,"duration":0.33749999999997726},{"name":"F#4","midi":66,"time":259.87499999999955,"velocity":0.7480314960629921,"duration":0.33749999999997726},{"name":"D4","midi":62,"time":259.87499999999955,"velocity":0.7480314960629921,"duration":0.33749999999997726},{"name":"F#4","midi":66,"time":260.24999999999955,"velocity":0.7480314960629921,"duration":0.33749999999997726},{"name":"D4","midi":62,"time":260.24999999999955,"velocity":0.7480314960629921,"duration":0.33749999999997726},{"name":"F#4","midi":66,"time":260.62499999999955,"velocity":0.7480314960629921,"duration":0.33749999999997726},{"name":"D4","midi":62,"time":260.62499999999955,"velocity":0.7480314960629921,"duration":0.33749999999997726},{"name":"C#5","midi":73,"time":260.99999999999955,"velocity":0.7480314960629921,"duration":0.33749999999997726},{"name":"A4","midi":69,"time":260.99999999999955,"velocity":0.7480314960629921,"duration":0.33749999999997726},{"name":"E4","midi":64,"time":260.99999999999955,"velocity":0.7480314960629921,"duration":0.33749999999997726},{"name":"A3","midi":57,"time":260.99999999999955,"velocity":0.7480314960629921,"duration":0.33749999999997726},{"name":"C#5","midi":73,"time":261.37499999999955,"velocity":0.7480314960629921,"duration":0.33749999999997726},{"name":"A4","midi":69,"time":261.37499999999955,"velocity":0.7480314960629921,"duration":0.33749999999997726},{"name":"E4","midi":64,"time":261.37499999999955,"velocity":0.7480314960629921,"duration":0.33749999999997726},{"name":"A3","midi":57,"time":261.37499999999955,"velocity":0.7480314960629921,"duration":0.33749999999997726},{"name":"A5","midi":81,"time":261.74999999999955,"velocity":0.7480314960629921,"duration":0.33749999999997726},{"name":"E5","midi":76,"time":261.74999999999955,"velocity":0.7480314960629921,"duration":0.33749999999997726},{"name":"A4","midi":69,"time":261.74999999999955,"velocity":0.7480314960629921,"duration":0.33749999999997726},{"name":"E4","midi":64,"time":261.74999999999955,"velocity":0.7480314960629921,"duration":0.33749999999997726},{"name":"A3","midi":57,"time":261.74999999999955,"velocity":0.7480314960629921,"duration":0.33749999999997726},{"name":"C#5","midi":73,"time":261.74999999999955,"velocity":0.7480314960629921,"duration":0.33749999999997726},{"name":"C#5","midi":73,"time":262.12499999999955,"velocity":0.7480314960629921,"duration":0.33749999999997726},{"name":"A4","midi":69,"time":262.12499999999955,"velocity":0.7480314960629921,"duration":0.33749999999997726},{"name":"E4","midi":64,"time":262.12499999999955,"velocity":0.7480314960629921,"duration":0.33749999999997726},{"name":"A3","midi":57,"time":262.12499999999955,"velocity":0.7480314960629921,"duration":0.33749999999997726},{"name":"E4","midi":64,"time":262.49999999999955,"velocity":0.7480314960629921,"duration":0.33749999999997726},{"name":"A4","midi":69,"time":262.49999999999955,"velocity":0.7480314960629921,"duration":0.33749999999997726},{"name":"C#5","midi":73,"time":262.49999999999955,"velocity":0.7480314960629921,"duration":0.33749999999997726},{"name":"A3","midi":57,"time":262.49999999999955,"velocity":0.7480314960629921,"duration":0.33749999999997726},{"name":"E4","midi":64,"time":262.87499999999955,"velocity":0.7480314960629921,"duration":0.33749999999997726},{"name":"A4","midi":69,"time":262.87499999999955,"velocity":0.7480314960629921,"duration":0.33749999999997726},{"name":"C#5","midi":73,"time":262.87499999999955,"velocity":0.7480314960629921,"duration":0.33749999999997726},{"name":"E5","midi":76,"time":262.87499999999955,"velocity":0.7480314960629921,"duration":0.33749999999997726},{"name":"A5","midi":81,"time":262.87499999999955,"velocity":0.7480314960629921,"duration":0.33749999999997726},{"name":"A3","midi":57,"time":262.87499999999955,"velocity":0.7480314960629921,"duration":0.33749999999997726},{"name":"A3","midi":57,"time":263.24999999999955,"velocity":0.7480314960629921,"duration":0.33749999999997726},{"name":"E4","midi":64,"time":263.24999999999955,"velocity":0.7480314960629921,"duration":0.33749999999997726},{"name":"A4","midi":69,"time":263.24999999999955,"velocity":0.7480314960629921,"duration":0.33749999999997726},{"name":"C#5","midi":73,"time":263.24999999999955,"velocity":0.7480314960629921,"duration":0.33749999999997726},{"name":"E5","midi":76,"time":263.24999999999955,"velocity":0.7480314960629921,"duration":0.33749999999997726},{"name":"A5","midi":81,"time":263.24999999999955,"velocity":0.7480314960629921,"duration":0.33749999999997726},{"name":"A3","midi":57,"time":263.62499999999955,"velocity":0.7480314960629921,"duration":0.33749999999997726},{"name":"C#5","midi":73,"time":263.62499999999955,"velocity":0.7480314960629921,"duration":0.33749999999997726},{"name":"A4","midi":69,"time":263.62499999999955,"velocity":0.7480314960629921,"duration":0.33749999999997726},{"name":"E4","midi":64,"time":263.62499999999955,"velocity":0.7480314960629921,"duration":0.33749999999997726},{"name":"A3","midi":57,"time":263.99999999999955,"velocity":0.7480314960629921,"duration":0.33749999999997726},{"name":"E4","midi":64,"time":263.99999999999955,"velocity":0.7480314960629921,"duration":0.33749999999997726},{"name":"C#5","midi":73,"time":263.99999999999955,"velocity":0.7480314960629921,"duration":0.33749999999997726},{"name":"A4","midi":69,"time":263.99999999999955,"velocity":0.7480314960629921,"duration":0.33749999999997726},{"name":"A5","midi":81,"time":264.37499999999955,"velocity":0.7480314960629921,"duration":0.33749999999997726},{"name":"C#5","midi":73,"time":264.37499999999955,"velocity":0.7480314960629921,"duration":0.33749999999997726},{"name":"E5","midi":76,"time":264.37499999999955,"velocity":0.7480314960629921,"duration":0.33749999999997726},{"name":"A4","midi":69,"time":264.37499999999955,"velocity":0.7480314960629921,"duration":0.33749999999997726},{"name":"E4","midi":64,"time":264.37499999999955,"velocity":0.7480314960629921,"duration":0.33749999999997726},{"name":"A3","midi":57,"time":264.37499999999955,"velocity":0.7480314960629921,"duration":0.33749999999997726},{"name":"A5","midi":81,"time":264.74999999999955,"velocity":0.7480314960629921,"duration":0.33749999999997726},{"name":"E5","midi":76,"time":264.74999999999955,"velocity":0.7480314960629921,"duration":0.33749999999997726},{"name":"C#5","midi":73,"time":264.74999999999955,"velocity":0.7480314960629921,"duration":0.33749999999997726},{"name":"A4","midi":69,"time":264.74999999999955,"velocity":0.7480314960629921,"duration":0.33749999999997726},{"name":"E4","midi":64,"time":264.74999999999955,"velocity":0.7480314960629921,"duration":0.33749999999997726},{"name":"A3","midi":57,"time":264.74999999999955,"velocity":0.7480314960629921,"duration":0.33749999999997726},{"name":"E4","midi":64,"time":265.12499999999955,"velocity":0.7480314960629921,"duration":0.33749999999997726},{"name":"A4","midi":69,"time":265.12499999999955,"velocity":0.7480314960629921,"duration":0.33749999999997726},{"name":"C#5","midi":73,"time":265.12499999999955,"velocity":0.7480314960629921,"duration":0.33749999999997726},{"name":"A3","midi":57,"time":265.12499999999955,"velocity":0.7480314960629921,"duration":0.33749999999997726},{"name":"A3","midi":57,"time":265.49999999999955,"velocity":0.7480314960629921,"duration":0.33749999999997726},{"name":"E4","midi":64,"time":265.49999999999955,"velocity":0.7480314960629921,"duration":0.33749999999997726},{"name":"A4","midi":69,"time":265.49999999999955,"velocity":0.7480314960629921,"duration":0.33749999999997726},{"name":"C#5","midi":73,"time":265.49999999999955,"velocity":0.7480314960629921,"duration":0.33749999999997726},{"name":"E4","midi":64,"time":265.87499999999955,"velocity":0.7480314960629921,"duration":0.33749999999997726},{"name":"A4","midi":69,"time":265.87499999999955,"velocity":0.7480314960629921,"duration":0.33749999999997726},{"name":"C#5","midi":73,"time":265.87499999999955,"velocity":0.7480314960629921,"duration":0.33749999999997726},{"name":"E5","midi":76,"time":265.87499999999955,"velocity":0.7480314960629921,"duration":0.33749999999997726},{"name":"A5","midi":81,"time":265.87499999999955,"velocity":0.7480314960629921,"duration":0.33749999999997726},{"name":"A3","midi":57,"time":265.87499999999955,"velocity":0.7480314960629921,"duration":0.33749999999997726},{"name":"A3","midi":57,"time":266.24999999999955,"velocity":0.7480314960629921,"duration":0.33749999999997726},{"name":"E4","midi":64,"time":266.24999999999955,"velocity":0.7480314960629921,"duration":0.33749999999997726},{"name":"A4","midi":69,"time":266.24999999999955,"velocity":0.7480314960629921,"duration":0.33749999999997726},{"name":"C#5","midi":73,"time":266.24999999999955,"velocity":0.7480314960629921,"duration":0.33749999999997726},{"name":"E5","midi":76,"time":266.24999999999955,"velocity":0.7480314960629921,"duration":0.33749999999997726},{"name":"A5","midi":81,"time":266.24999999999955,"velocity":0.7480314960629921,"duration":0.33749999999997726},{"name":"C#5","midi":73,"time":266.62499999999955,"velocity":0.7480314960629921,"duration":0.33749999999997726},{"name":"A3","midi":57,"time":266.62499999999955,"velocity":0.7480314960629921,"duration":0.33749999999997726},{"name":"E4","midi":64,"time":266.62499999999955,"velocity":0.7480314960629921,"duration":0.33749999999997726},{"name":"A4","midi":69,"time":266.62499999999955,"velocity":0.7480314960629921,"duration":0.33749999999997726},{"name":"E5","midi":76,"time":266.99999999999955,"velocity":0.7480314960629921,"duration":0.33749999999997726},{"name":"E4","midi":64,"time":266.99999999999955,"velocity":0.7480314960629921,"duration":0.33749999999997726},{"name":"B4","midi":71,"time":266.99999999999955,"velocity":0.7480314960629921,"duration":0.33749999999997726},{"name":"E5","midi":76,"time":267.37499999999955,"velocity":0.7480314960629921,"duration":0.33749999999997726},{"name":"A5","midi":81,"time":267.37499999999955,"velocity":0.7480314960629921,"duration":0.33749999999997726},{"name":"E4","midi":64,"time":267.37499999999955,"velocity":0.7480314960629921,"duration":0.33749999999997726},{"name":"B4","midi":71,"time":267.37499999999955,"velocity":0.7480314960629921,"duration":0.33749999999997726},{"name":"E5","midi":76,"time":267.37499999999955,"velocity":0.7480314960629921,"duration":0.33749999999997726},{"name":"G#5","midi":80,"time":267.74999999999955,"velocity":0.7480314960629921,"duration":0.33749999999997726},{"name":"E5","midi":76,"time":267.74999999999955,"velocity":0.7480314960629921,"duration":0.33749999999997726},{"name":"E4","midi":64,"time":267.74999999999955,"velocity":0.7480314960629921,"duration":0.33749999999997726},{"name":"B4","midi":71,"time":267.74999999999955,"velocity":0.7480314960629921,"duration":0.33749999999997726},{"name":"B4","midi":71,"time":268.12499999999955,"velocity":0.7480314960629921,"duration":0.33749999999997726},{"name":"E4","midi":64,"time":268.12499999999955,"velocity":0.7480314960629921,"duration":0.33749999999997726},{"name":"E5","midi":76,"time":268.12499999999955,"velocity":0.7480314960629921,"duration":0.33749999999997726},{"name":"E4","midi":64,"time":268.49999999999955,"velocity":0.7480314960629921,"duration":0.33749999999997726},{"name":"B4","midi":71,"time":268.49999999999955,"velocity":0.7480314960629921,"duration":0.33749999999997726},{"name":"E5","midi":76,"time":268.49999999999955,"velocity":0.7480314960629921,"duration":0.33749999999997726},{"name":"E4","midi":64,"time":268.87499999999955,"velocity":0.7480314960629921,"duration":0.33749999999997726},{"name":"B4","midi":71,"time":268.87499999999955,"velocity":0.7480314960629921,"duration":0.33749999999997726},{"name":"E5","midi":76,"time":268.87499999999955,"velocity":0.7480314960629921,"duration":0.33749999999997726},{"name":"G#5","midi":80,"time":268.87499999999955,"velocity":0.7480314960629921,"duration":0.33749999999997726},{"name":"G#5","midi":80,"time":269.24999999999955,"velocity":0.7480314960629921,"duration":0.33749999999997726},{"name":"E5","midi":76,"time":269.24999999999955,"velocity":0.7480314960629921,"duration":0.33749999999997726},{"name":"B4","midi":71,"time":269.24999999999955,"velocity":0.7480314960629921,"duration":0.33749999999997726},{"name":"E4","midi":64,"time":269.24999999999955,"velocity":0.7480314960629921,"duration":0.33749999999997726},{"name":"E4","midi":64,"time":269.62499999999955,"velocity":0.7480314960629921,"duration":0.33749999999997726},{"name":"E5","midi":76,"time":269.62499999999955,"velocity":0.7480314960629921,"duration":0.33749999999997726},{"name":"B4","midi":71,"time":269.62499999999955,"velocity":0.7480314960629921,"duration":0.33749999999997726},{"name":"E5","midi":76,"time":269.99999999999955,"velocity":0.7480314960629921,"duration":0.33749999999997726},{"name":"E4","midi":64,"time":269.99999999999955,"velocity":0.7480314960629921,"duration":0.33749999999997726},{"name":"B4","midi":71,"time":269.99999999999955,"velocity":0.7480314960629921,"duration":0.33749999999997726},{"name":"G#5","midi":80,"time":270.37499999999955,"velocity":0.7480314960629921,"duration":0.33749999999997726},{"name":"B4","midi":71,"time":270.37499999999955,"velocity":0.7480314960629921,"duration":0.33749999999997726},{"name":"E4","midi":64,"time":270.37499999999955,"velocity":0.7480314960629921,"duration":0.33749999999997726},{"name":"E5","midi":76,"time":270.37499999999955,"velocity":0.7480314960629921,"duration":0.33749999999997726},{"name":"G#5","midi":80,"time":270.74999999999955,"velocity":0.7480314960629921,"duration":0.33749999999997726},{"name":"E4","midi":64,"time":270.74999999999955,"velocity":0.7480314960629921,"duration":0.33749999999997726},{"name":"B4","midi":71,"time":270.74999999999955,"velocity":0.7480314960629921,"duration":0.33749999999997726},{"name":"E5","midi":76,"time":270.74999999999955,"velocity":0.7480314960629921,"duration":0.33749999999997726},{"name":"E4","midi":64,"time":271.12499999999955,"velocity":0.7480314960629921,"duration":0.33749999999997726},{"name":"B4","midi":71,"time":271.12499999999955,"velocity":0.7480314960629921,"duration":0.33749999999997726},{"name":"E5","midi":76,"time":271.12499999999955,"velocity":0.7480314960629921,"duration":0.33749999999997726},{"name":"E4","midi":64,"time":271.49999999999955,"velocity":0.7480314960629921,"duration":0.33749999999997726},{"name":"B4","midi":71,"time":271.49999999999955,"velocity":0.7480314960629921,"duration":0.33749999999997726},{"name":"E5","midi":76,"time":271.49999999999955,"velocity":0.7480314960629921,"duration":0.33749999999997726},{"name":"B4","midi":71,"time":271.87499999999955,"velocity":0.7480314960629921,"duration":0.33749999999997726},{"name":"E5","midi":76,"time":271.87499999999955,"velocity":0.7480314960629921,"duration":0.33749999999997726},{"name":"G#5","midi":80,"time":271.87499999999955,"velocity":0.7480314960629921,"duration":0.33749999999997726},{"name":"E4","midi":64,"time":271.87499999999955,"velocity":0.7480314960629921,"duration":0.33749999999997726},{"name":"G#5","midi":80,"time":272.24999999999955,"velocity":0.7480314960629921,"duration":0.33749999999997726},{"name":"E5","midi":76,"time":272.24999999999955,"velocity":0.7480314960629921,"duration":0.33749999999997726},{"name":"E4","midi":64,"time":272.24999999999955,"velocity":0.7480314960629921,"duration":0.33749999999997726},{"name":"B4","midi":71,"time":272.24999999999955,"velocity":0.7480314960629921,"duration":0.33749999999997726},{"name":"E4","midi":64,"time":272.62499999999955,"velocity":0.7480314960629921,"duration":0.33749999999997726},{"name":"B4","midi":71,"time":272.62499999999955,"velocity":0.7480314960629921,"duration":0.33749999999997726},{"name":"E5","midi":76,"time":272.62499999999955,"velocity":0.7480314960629921,"duration":0.33749999999997726},{"name":"D5","midi":74,"time":272.99999999999955,"velocity":0.7480314960629921,"duration":0.33749999999997726},{"name":"B3","midi":59,"time":272.99999999999955,"velocity":0.7480314960629921,"duration":0.33749999999997726},{"name":"F#4","midi":66,"time":272.99999999999955,"velocity":0.7480314960629921,"duration":0.33749999999997726},{"name":"A4","midi":69,"time":272.99999999999955,"velocity":0.7480314960629921,"duration":0.33749999999997726},{"name":"D5","midi":74,"time":273.37499999999955,"velocity":0.7480314960629921,"duration":0.33749999999997726},{"name":"B3","midi":59,"time":273.37499999999955,"velocity":0.7480314960629921,"duration":0.33749999999997726},{"name":"F#4","midi":66,"time":273.37499999999955,"velocity":0.7480314960629921,"duration":0.33749999999997726},{"name":"A4","midi":69,"time":273.37499999999955,"velocity":0.7480314960629921,"duration":0.33749999999997726},{"name":"D5","midi":74,"time":273.74999999999955,"velocity":0.7480314960629921,"duration":0.33749999999997726},{"name":"F#5","midi":78,"time":273.74999999999955,"velocity":0.7480314960629921,"duration":0.33749999999997726},{"name":"A4","midi":69,"time":273.74999999999955,"velocity":0.7480314960629921,"duration":0.33749999999997726},{"name":"F#4","midi":66,"time":273.74999999999955,"velocity":0.7480314960629921,"duration":0.33749999999997726},{"name":"B3","midi":59,"time":273.74999999999955,"velocity":0.7480314960629921,"duration":0.33749999999997726},{"name":"D5","midi":74,"time":274.12499999999955,"velocity":0.7480314960629921,"duration":0.33749999999997726},{"name":"A4","midi":69,"time":274.12499999999955,"velocity":0.7480314960629921,"duration":0.33749999999997726},{"name":"F#4","midi":66,"time":274.12499999999955,"velocity":0.7480314960629921,"duration":0.33749999999997726},{"name":"B3","midi":59,"time":274.12499999999955,"velocity":0.7480314960629921,"duration":0.33749999999997726},{"name":"B3","midi":59,"time":274.49999999999955,"velocity":0.7480314960629921,"duration":0.33749999999997726},{"name":"A4","midi":69,"time":274.49999999999955,"velocity":0.7480314960629921,"duration":0.33749999999997726},{"name":"F#4","midi":66,"time":274.49999999999955,"velocity":0.7480314960629921,"duration":0.33749999999997726},{"name":"D5","midi":74,"time":274.49999999999955,"velocity":0.7480314960629921,"duration":0.33749999999997726},{"name":"F#5","midi":78,"time":274.87499999999955,"velocity":0.7480314960629921,"duration":0.33749999999997726},{"name":"D5","midi":74,"time":274.87499999999955,"velocity":0.7480314960629921,"duration":0.33749999999997726},{"name":"A4","midi":69,"time":274.87499999999955,"velocity":0.7480314960629921,"duration":0.33749999999997726},{"name":"F#4","midi":66,"time":274.87499999999955,"velocity":0.7480314960629921,"duration":0.33749999999997726},{"name":"B3","midi":59,"time":274.87499999999955,"velocity":0.7480314960629921,"duration":0.33749999999997726},{"name":"A4","midi":69,"time":275.24999999999955,"velocity":0.7480314960629921,"duration":0.33749999999997726},{"name":"F#4","midi":66,"time":275.24999999999955,"velocity":0.7480314960629921,"duration":0.33749999999997726},{"name":"B3","midi":59,"time":275.24999999999955,"velocity":0.7480314960629921,"duration":0.33749999999997726},{"name":"F#5","midi":78,"time":275.24999999999955,"velocity":0.7480314960629921,"duration":0.33749999999997726},{"name":"D5","midi":74,"time":275.24999999999955,"velocity":0.7480314960629921,"duration":0.33749999999997726},{"name":"D5","midi":74,"time":275.62499999999955,"velocity":0.7480314960629921,"duration":0.33749999999997726},{"name":"A4","midi":69,"time":275.62499999999955,"velocity":0.7480314960629921,"duration":0.33749999999997726},{"name":"F#4","midi":66,"time":275.62499999999955,"velocity":0.7480314960629921,"duration":0.33749999999997726},{"name":"B3","midi":59,"time":275.62499999999955,"velocity":0.7480314960629921,"duration":0.33749999999997726},{"name":"B3","midi":59,"time":275.99999999999955,"velocity":0.7480314960629921,"duration":0.33749999999997726},{"name":"F#4","midi":66,"time":275.99999999999955,"velocity":0.7480314960629921,"duration":0.33749999999997726},{"name":"A4","midi":69,"time":275.99999999999955,"velocity":0.7480314960629921,"duration":0.33749999999997726},{"name":"D5","midi":74,"time":275.99999999999955,"velocity":0.7480314960629921,"duration":0.33749999999997726},{"name":"F#5","midi":78,"time":276.37499999999955,"velocity":0.7480314960629921,"duration":0.33749999999997726},{"name":"D5","midi":74,"time":276.37499999999955,"velocity":0.7480314960629921,"duration":0.33749999999997726},{"name":"F#4","midi":66,"time":276.37499999999955,"velocity":0.7480314960629921,"duration":0.33749999999997726},{"name":"B3","midi":59,"time":276.37499999999955,"velocity":0.7480314960629921,"duration":0.33749999999997726},{"name":"A4","midi":69,"time":276.37499999999955,"velocity":0.7480314960629921,"duration":0.33749999999997726},{"name":"B3","midi":59,"time":276.74999999999955,"velocity":0.7480314960629921,"duration":0.33749999999997726},{"name":"F#4","midi":66,"time":276.74999999999955,"velocity":0.7480314960629921,"duration":0.33749999999997726},{"name":"A4","midi":69,"time":276.74999999999955,"velocity":0.7480314960629921,"duration":0.33749999999997726},{"name":"D5","midi":74,"time":276.74999999999955,"velocity":0.7480314960629921,"duration":0.33749999999997726},{"name":"F#5","midi":78,"time":276.74999999999955,"velocity":0.7480314960629921,"duration":0.33749999999997726},{"name":"B3","midi":59,"time":277.12499999999955,"velocity":0.7480314960629921,"duration":0.33749999999997726},{"name":"D5","midi":74,"time":277.12499999999955,"velocity":0.7480314960629921,"duration":0.33749999999997726},{"name":"A4","midi":69,"time":277.12499999999955,"velocity":0.7480314960629921,"duration":0.33749999999997726},{"name":"F#4","midi":66,"time":277.12499999999955,"velocity":0.7480314960629921,"duration":0.33749999999997726},{"name":"B3","midi":59,"time":277.49999999999955,"velocity":0.7480314960629921,"duration":0.33749999999997726},{"name":"F#4","midi":66,"time":277.49999999999955,"velocity":0.7480314960629921,"duration":0.33749999999997726},{"name":"A4","midi":69,"time":277.49999999999955,"velocity":0.7480314960629921,"duration":0.33749999999997726},{"name":"D5","midi":74,"time":277.49999999999955,"velocity":0.7480314960629921,"duration":0.33749999999997726},{"name":"B3","midi":59,"time":277.87499999999955,"velocity":0.7480314960629921,"duration":0.33749999999997726},{"name":"F#4","midi":66,"time":277.87499999999955,"velocity":0.7480314960629921,"duration":0.33749999999997726},{"name":"A4","midi":69,"time":277.87499999999955,"velocity":0.7480314960629921,"duration":0.33749999999997726},{"name":"D5","midi":74,"time":277.87499999999955,"velocity":0.7480314960629921,"duration":0.33749999999997726},{"name":"F#5","midi":78,"time":277.87499999999955,"velocity":0.7480314960629921,"duration":0.33749999999997726},{"name":"B3","midi":59,"time":278.24999999999955,"velocity":0.7480314960629921,"duration":0.33749999999997726},{"name":"F#4","midi":66,"time":278.24999999999955,"velocity":0.7480314960629921,"duration":0.33749999999997726},{"name":"A4","midi":69,"time":278.24999999999955,"velocity":0.7480314960629921,"duration":0.33749999999997726},{"name":"D5","midi":74,"time":278.24999999999955,"velocity":0.7480314960629921,"duration":0.33749999999997726},{"name":"F#5","midi":78,"time":278.24999999999955,"velocity":0.7480314960629921,"duration":0.33749999999997726},{"name":"A4","midi":69,"time":278.62499999999955,"velocity":0.7480314960629921,"duration":0.33749999999997726},{"name":"B3","midi":59,"time":278.62499999999955,"velocity":0.7480314960629921,"duration":0.33749999999997726},{"name":"F#4","midi":66,"time":278.62499999999955,"velocity":0.7480314960629921,"duration":0.33749999999997726},{"name":"D5","midi":74,"time":278.62499999999955,"velocity":0.7480314960629921,"duration":0.33749999999997726},{"name":"D4","midi":62,"time":278.99999999999955,"velocity":0.7480314960629921,"duration":0.33749999999997726},{"name":"C#5","midi":73,"time":278.99999999999955,"velocity":0.7480314960629921,"duration":0.33749999999997726},{"name":"A4","midi":69,"time":278.99999999999955,"velocity":0.7480314960629921,"duration":0.33749999999997726},{"name":"C#5","midi":73,"time":279.37499999999955,"velocity":0.7480314960629921,"duration":0.33749999999997726},{"name":"A4","midi":69,"time":279.37499999999955,"velocity":0.7480314960629921,"duration":0.33749999999997726},{"name":"D4","midi":62,"time":279.37499999999955,"velocity":0.7480314960629921,"duration":0.33749999999997726},{"name":"F#5","midi":78,"time":279.37499999999955,"velocity":0.7480314960629921,"duration":0.33749999999997726},{"name":"D5","midi":74,"time":279.37499999999955,"velocity":0.7480314960629921,"duration":0.33749999999997726},{"name":"C#5","midi":73,"time":279.74999999999955,"velocity":0.7480314960629921,"duration":0.33749999999997726},{"name":"D4","midi":62,"time":279.74999999999955,"velocity":0.7480314960629921,"duration":0.33749999999997726},{"name":"A4","midi":69,"time":279.74999999999955,"velocity":0.7480314960629921,"duration":0.33749999999997726},{"name":"F#5","midi":78,"time":279.74999999999955,"velocity":0.7480314960629921,"duration":0.33749999999997726},{"name":"D4","midi":62,"time":280.12499999999955,"velocity":0.7480314960629921,"duration":0.33749999999997726},{"name":"C#5","midi":73,"time":280.12499999999955,"velocity":0.7480314960629921,"duration":0.33749999999997726},{"name":"A4","midi":69,"time":280.12499999999955,"velocity":0.7480314960629921,"duration":0.33749999999997726},{"name":"A4","midi":69,"time":280.49999999999955,"velocity":0.7480314960629921,"duration":0.33749999999997726},{"name":"D4","midi":62,"time":280.49999999999955,"velocity":0.7480314960629921,"duration":0.33749999999997726},{"name":"C#5","midi":73,"time":280.49999999999955,"velocity":0.7480314960629921,"duration":0.33749999999997726},{"name":"D4","midi":62,"time":280.87499999999955,"velocity":0.7480314960629921,"duration":0.33749999999997726},{"name":"A4","midi":69,"time":280.87499999999955,"velocity":0.7480314960629921,"duration":0.33749999999997726},{"name":"C#5","midi":73,"time":280.87499999999955,"velocity":0.7480314960629921,"duration":0.33749999999997726},{"name":"F#5","midi":78,"time":280.87499999999955,"velocity":0.7480314960629921,"duration":0.33749999999997726},{"name":"D4","midi":62,"time":281.24999999999955,"velocity":0.7480314960629921,"duration":0.33749999999997726},{"name":"A4","midi":69,"time":281.24999999999955,"velocity":0.7480314960629921,"duration":0.33749999999997726},{"name":"C#5","midi":73,"time":281.24999999999955,"velocity":0.7480314960629921,"duration":0.33749999999997726},{"name":"F#5","midi":78,"time":281.24999999999955,"velocity":0.7480314960629921,"duration":0.33749999999997726},{"name":"C#5","midi":73,"time":281.62499999999955,"velocity":0.7480314960629921,"duration":0.33749999999997726},{"name":"A4","midi":69,"time":281.62499999999955,"velocity":0.7480314960629921,"duration":0.33749999999997726},{"name":"D4","midi":62,"time":281.62499999999955,"velocity":0.7480314960629921,"duration":0.33749999999997726},{"name":"C#5","midi":73,"time":281.99999999999955,"velocity":0.7480314960629921,"duration":0.33749999999997726},{"name":"D4","midi":62,"time":281.99999999999955,"velocity":0.7480314960629921,"duration":0.33749999999997726},{"name":"A4","midi":69,"time":281.99999999999955,"velocity":0.7480314960629921,"duration":0.33749999999997726},{"name":"D4","midi":62,"time":282.37499999999955,"velocity":0.7480314960629921,"duration":0.33749999999997726},{"name":"A4","midi":69,"time":282.37499999999955,"velocity":0.7480314960629921,"duration":0.33749999999997726},{"name":"C#5","midi":73,"time":282.37499999999955,"velocity":0.7480314960629921,"duration":0.33749999999997726},{"name":"F#5","midi":78,"time":282.37499999999955,"velocity":0.7480314960629921,"duration":0.33749999999997726},{"name":"D4","midi":62,"time":282.74999999999955,"velocity":0.7480314960629921,"duration":0.33749999999997726},{"name":"A4","midi":69,"time":282.74999999999955,"velocity":0.7480314960629921,"duration":0.33749999999997726},{"name":"C#5","midi":73,"time":282.74999999999955,"velocity":0.7480314960629921,"duration":0.33749999999997726},{"name":"F#5","midi":78,"time":282.74999999999955,"velocity":0.7480314960629921,"duration":0.33749999999997726},{"name":"C#5","midi":73,"time":283.12499999999955,"velocity":0.7480314960629921,"duration":0.33749999999997726},{"name":"D4","midi":62,"time":283.12499999999955,"velocity":0.7480314960629921,"duration":0.33749999999997726},{"name":"A4","midi":69,"time":283.12499999999955,"velocity":0.7480314960629921,"duration":0.33749999999997726},{"name":"D4","midi":62,"time":283.49999999999955,"velocity":0.7480314960629921,"duration":0.33749999999997726},{"name":"A4","midi":69,"time":283.49999999999955,"velocity":0.7480314960629921,"duration":0.33749999999997726},{"name":"C#5","midi":73,"time":283.49999999999955,"velocity":0.7480314960629921,"duration":0.33749999999997726},{"name":"D4","midi":62,"time":283.87499999999955,"velocity":0.7480314960629921,"duration":0.33749999999997726},{"name":"A4","midi":69,"time":283.87499999999955,"velocity":0.7480314960629921,"duration":0.33749999999997726},{"name":"F#5","midi":78,"time":283.87499999999955,"velocity":0.7480314960629921,"duration":0.33749999999997726},{"name":"C#5","midi":73,"time":283.87499999999955,"velocity":0.7480314960629921,"duration":0.33749999999997726},{"name":"F#5","midi":78,"time":284.24999999999955,"velocity":0.7480314960629921,"duration":0.33749999999997726},{"name":"C#5","midi":73,"time":284.24999999999955,"velocity":0.7480314960629921,"duration":0.33749999999997726},{"name":"D4","midi":62,"time":284.24999999999955,"velocity":0.7480314960629921,"duration":0.33749999999997726},{"name":"A4","midi":69,"time":284.24999999999955,"velocity":0.7480314960629921,"duration":0.33749999999997726},{"name":"A4","midi":69,"time":284.62499999999955,"velocity":0.7480314960629921,"duration":0.33749999999997726},{"name":"C#5","midi":73,"time":284.62499999999955,"velocity":0.7480314960629921,"duration":0.33749999999997726},{"name":"D4","midi":62,"time":284.62499999999955,"velocity":0.7480314960629921,"duration":0.33749999999997726},{"name":"E4","midi":64,"time":284.99999999999955,"velocity":0.7480314960629921,"duration":0.33749999999997726},{"name":"A3","midi":57,"time":284.99999999999955,"velocity":0.7480314960629921,"duration":0.33749999999997726},{"name":"C#5","midi":73,"time":284.99999999999955,"velocity":0.7480314960629921,"duration":0.33749999999997726},{"name":"A4","midi":69,"time":284.99999999999955,"velocity":0.7480314960629921,"duration":0.33749999999997726},{"name":"A4","midi":69,"time":285.37499999999955,"velocity":0.7480314960629921,"duration":0.33749999999997726},{"name":"C#5","midi":73,"time":285.37499999999955,"velocity":0.7480314960629921,"duration":0.33749999999997726},{"name":"A3","midi":57,"time":285.37499999999955,"velocity":0.7480314960629921,"duration":0.33749999999997726},{"name":"E4","midi":64,"time":285.37499999999955,"velocity":0.7480314960629921,"duration":0.33749999999997726},{"name":"A5","midi":81,"time":285.74999999999955,"velocity":0.7480314960629921,"duration":0.33749999999997726},{"name":"A3","midi":57,"time":285.74999999999955,"velocity":0.7480314960629921,"duration":0.33749999999997726},{"name":"E5","midi":76,"time":285.74999999999955,"velocity":0.7480314960629921,"duration":0.33749999999997726},{"name":"C#5","midi":73,"time":285.74999999999955,"velocity":0.7480314960629921,"duration":0.33749999999997726},{"name":"A4","midi":69,"time":285.74999999999955,"velocity":0.7480314960629921,"duration":0.33749999999997726},{"name":"E4","midi":64,"time":285.74999999999955,"velocity":0.7480314960629921,"duration":0.33749999999997726},{"name":"A4","midi":69,"time":286.12499999999955,"velocity":0.7480314960629921,"duration":0.33749999999997726},{"name":"C#5","midi":73,"time":286.12499999999955,"velocity":0.7480314960629921,"duration":0.33749999999997726},{"name":"E4","midi":64,"time":286.12499999999955,"velocity":0.7480314960629921,"duration":0.33749999999997726},{"name":"A3","midi":57,"time":286.12499999999955,"velocity":0.7480314960629921,"duration":0.33749999999997726},{"name":"E4","midi":64,"time":286.49999999999955,"velocity":0.7480314960629921,"duration":0.33749999999997726},{"name":"C#5","midi":73,"time":286.49999999999955,"velocity":0.7480314960629921,"duration":0.33749999999997726},{"name":"A3","midi":57,"time":286.49999999999955,"velocity":0.7480314960629921,"duration":0.33749999999997726},{"name":"A4","midi":69,"time":286.49999999999955,"velocity":0.7480314960629921,"duration":0.33749999999997726},{"name":"C#5","midi":73,"time":286.87499999999955,"velocity":0.7480314960629921,"duration":0.33749999999997726},{"name":"A5","midi":81,"time":286.87499999999955,"velocity":0.7480314960629921,"duration":0.33749999999997726},{"name":"E5","midi":76,"time":286.87499999999955,"velocity":0.7480314960629921,"duration":0.33749999999997726},{"name":"A4","midi":69,"time":286.87499999999955,"velocity":0.7480314960629921,"duration":0.33749999999997726},{"name":"E4","midi":64,"time":286.87499999999955,"velocity":0.7480314960629921,"duration":0.33749999999997726},{"name":"A3","midi":57,"time":286.87499999999955,"velocity":0.7480314960629921,"duration":0.33749999999997726},{"name":"A5","midi":81,"time":287.24999999999955,"velocity":0.7480314960629921,"duration":0.33749999999997726},{"name":"C#5","midi":73,"time":287.24999999999955,"velocity":0.7480314960629921,"duration":0.33749999999997726},{"name":"A4","midi":69,"time":287.24999999999955,"velocity":0.7480314960629921,"duration":0.33749999999997726},{"name":"E4","midi":64,"time":287.24999999999955,"velocity":0.7480314960629921,"duration":0.33749999999997726},{"name":"E5","midi":76,"time":287.24999999999955,"velocity":0.7480314960629921,"duration":0.33749999999997726},{"name":"A3","midi":57,"time":287.24999999999955,"velocity":0.7480314960629921,"duration":0.33749999999997726},{"name":"C#5","midi":73,"time":287.62499999999955,"velocity":0.7480314960629921,"duration":0.33749999999997726},{"name":"A3","midi":57,"time":287.62499999999955,"velocity":0.7480314960629921,"duration":0.33749999999997726},{"name":"E4","midi":64,"time":287.62499999999955,"velocity":0.7480314960629921,"duration":0.33749999999997726},{"name":"A4","midi":69,"time":287.62499999999955,"velocity":0.7480314960629921,"duration":0.33749999999997726},{"name":"A3","midi":57,"time":287.99999999999955,"velocity":0.7480314960629921,"duration":0.33749999999997726},{"name":"E4","midi":64,"time":287.99999999999955,"velocity":0.7480314960629921,"duration":0.33749999999997726},{"name":"A4","midi":69,"time":287.99999999999955,"velocity":0.7480314960629921,"duration":0.33749999999997726},{"name":"C#5","midi":73,"time":287.99999999999955,"velocity":0.7480314960629921,"duration":0.33749999999997726},{"name":"E5","midi":76,"time":288.37499999999955,"velocity":0.7480314960629921,"duration":0.33749999999997726},{"name":"A5","midi":81,"time":288.37499999999955,"velocity":0.7480314960629921,"duration":0.33749999999997726},{"name":"C#5","midi":73,"time":288.37499999999955,"velocity":0.7480314960629921,"duration":0.33749999999997726},{"name":"A4","midi":69,"time":288.37499999999955,"velocity":0.7480314960629921,"duration":0.33749999999997726},{"name":"E4","midi":64,"time":288.37499999999955,"velocity":0.7480314960629921,"duration":0.33749999999997726},{"name":"A3","midi":57,"time":288.37499999999955,"velocity":0.7480314960629921,"duration":0.33749999999997726},{"name":"C#5","midi":73,"time":288.74999999999955,"velocity":0.7480314960629921,"duration":0.33749999999997726},{"name":"E5","midi":76,"time":288.74999999999955,"velocity":0.7480314960629921,"duration":0.33749999999997726},{"name":"A5","midi":81,"time":288.74999999999955,"velocity":0.7480314960629921,"duration":0.33749999999997726},{"name":"A4","midi":69,"time":288.74999999999955,"velocity":0.7480314960629921,"duration":0.33749999999997726},{"name":"E4","midi":64,"time":288.74999999999955,"velocity":0.7480314960629921,"duration":0.33749999999997726},{"name":"A3","midi":57,"time":288.74999999999955,"velocity":0.7480314960629921,"duration":0.33749999999997726},{"name":"C#5","midi":73,"time":289.12499999999955,"velocity":0.7480314960629921,"duration":0.33749999999997726},{"name":"A3","midi":57,"time":289.12499999999955,"velocity":0.7480314960629921,"duration":0.33749999999997726},{"name":"E4","midi":64,"time":289.12499999999955,"velocity":0.7480314960629921,"duration":0.33749999999997726},{"name":"A4","midi":69,"time":289.12499999999955,"velocity":0.7480314960629921,"duration":0.33749999999997726},{"name":"C#5","midi":73,"time":289.49999999999955,"velocity":0.7480314960629921,"duration":0.33749999999997726},{"name":"A3","midi":57,"time":289.49999999999955,"velocity":0.7480314960629921,"duration":0.33749999999997726},{"name":"E4","midi":64,"time":289.49999999999955,"velocity":0.7480314960629921,"duration":0.33749999999997726},{"name":"A4","midi":69,"time":289.49999999999955,"velocity":0.7480314960629921,"duration":0.33749999999997726},{"name":"A5","midi":81,"time":289.87499999999955,"velocity":0.7480314960629921,"duration":0.33749999999997726},{"name":"C#5","midi":73,"time":289.87499999999955,"velocity":0.7480314960629921,"duration":0.33749999999997726},{"name":"A4","midi":69,"time":289.87499999999955,"velocity":0.7480314960629921,"duration":0.33749999999997726},{"name":"E4","midi":64,"time":289.87499999999955,"velocity":0.7480314960629921,"duration":0.33749999999997726},{"name":"A3","midi":57,"time":289.87499999999955,"velocity":0.7480314960629921,"duration":0.33749999999997726},{"name":"E5","midi":76,"time":289.87499999999955,"velocity":0.7480314960629921,"duration":0.33749999999997726},{"name":"A5","midi":81,"time":290.24999999999955,"velocity":0.7480314960629921,"duration":0.33749999999997726},{"name":"A3","midi":57,"time":290.24999999999955,"velocity":0.7480314960629921,"duration":0.33749999999997726},{"name":"E4","midi":64,"time":290.24999999999955,"velocity":0.7480314960629921,"duration":0.33749999999997726},{"name":"A4","midi":69,"time":290.24999999999955,"velocity":0.7480314960629921,"duration":0.33749999999997726},{"name":"E5","midi":76,"time":290.24999999999955,"velocity":0.7480314960629921,"duration":0.33749999999997726},{"name":"C#5","midi":73,"time":290.24999999999955,"velocity":0.7480314960629921,"duration":0.33749999999997726},{"name":"A3","midi":57,"time":290.62499999999955,"velocity":0.7480314960629921,"duration":0.33749999999997726},{"name":"E4","midi":64,"time":290.62499999999955,"velocity":0.7480314960629921,"duration":0.33749999999997726},{"name":"A4","midi":69,"time":290.62499999999955,"velocity":0.7480314960629921,"duration":0.33749999999997726},{"name":"C#5","midi":73,"time":290.62499999999955,"velocity":0.7480314960629921,"duration":0.33749999999997726},{"name":"E4","midi":64,"time":290.99999999999955,"velocity":0.7480314960629921,"duration":0.33749999999997726},{"name":"B4","midi":71,"time":290.99999999999955,"velocity":0.7480314960629921,"duration":0.33749999999997726},{"name":"E5","midi":76,"time":290.99999999999955,"velocity":0.7480314960629921,"duration":0.33749999999997726},{"name":"B4","midi":71,"time":291.37499999999955,"velocity":0.7480314960629921,"duration":0.33749999999997726},{"name":"E5","midi":76,"time":291.37499999999955,"velocity":0.7480314960629921,"duration":0.33749999999997726},{"name":"A5","midi":81,"time":291.37499999999955,"velocity":0.7480314960629921,"duration":0.33749999999997726},{"name":"E4","midi":64,"time":291.37499999999955,"velocity":0.7480314960629921,"duration":0.33749999999997726},{"name":"E5","midi":76,"time":291.37499999999955,"velocity":0.7480314960629921,"duration":0.33749999999997726},{"name":"B4","midi":71,"time":291.74999999999955,"velocity":0.7480314960629921,"duration":0.33749999999997726},{"name":"E5","midi":76,"time":291.74999999999955,"velocity":0.7480314960629921,"duration":0.33749999999997726},{"name":"G#5","midi":80,"time":291.74999999999955,"velocity":0.7480314960629921,"duration":0.33749999999997726},{"name":"E4","midi":64,"time":291.74999999999955,"velocity":0.7480314960629921,"duration":0.33749999999997726},{"name":"E4","midi":64,"time":292.12499999999955,"velocity":0.7480314960629921,"duration":0.33749999999997726},{"name":"B4","midi":71,"time":292.12499999999955,"velocity":0.7480314960629921,"duration":0.33749999999997726},{"name":"E5","midi":76,"time":292.12499999999955,"velocity":0.7480314960629921,"duration":0.33749999999997726},{"name":"E4","midi":64,"time":292.49999999999955,"velocity":0.7480314960629921,"duration":0.33749999999997726},{"name":"B4","midi":71,"time":292.49999999999955,"velocity":0.7480314960629921,"duration":0.33749999999997726},{"name":"E5","midi":76,"time":292.49999999999955,"velocity":0.7480314960629921,"duration":0.33749999999997726},{"name":"G#5","midi":80,"time":292.87499999999955,"velocity":0.7480314960629921,"duration":0.33749999999997726},{"name":"E4","midi":64,"time":292.87499999999955,"velocity":0.7480314960629921,"duration":0.33749999999997726},{"name":"B4","midi":71,"time":292.87499999999955,"velocity":0.7480314960629921,"duration":0.33749999999997726},{"name":"E5","midi":76,"time":292.87499999999955,"velocity":0.7480314960629921,"duration":0.33749999999997726},{"name":"E5","midi":76,"time":293.24999999999955,"velocity":0.7480314960629921,"duration":0.33749999999997726},{"name":"E4","midi":64,"time":293.24999999999955,"velocity":0.7480314960629921,"duration":0.33749999999997726},{"name":"G#5","midi":80,"time":293.24999999999955,"velocity":0.7480314960629921,"duration":0.33749999999997726},{"name":"B4","midi":71,"time":293.24999999999955,"velocity":0.7480314960629921,"duration":0.33749999999997726},{"name":"E4","midi":64,"time":293.62499999999955,"velocity":0.7480314960629921,"duration":0.33749999999997726},{"name":"E5","midi":76,"time":293.62499999999955,"velocity":0.7480314960629921,"duration":0.33749999999997726},{"name":"B4","midi":71,"time":293.62499999999955,"velocity":0.7480314960629921,"duration":0.33749999999997726},{"name":"B4","midi":71,"time":293.99999999999955,"velocity":0.7480314960629921,"duration":0.33749999999997726},{"name":"E4","midi":64,"time":293.99999999999955,"velocity":0.7480314960629921,"duration":0.33749999999997726},{"name":"E5","midi":76,"time":293.99999999999955,"velocity":0.7480314960629921,"duration":0.33749999999997726},{"name":"G#5","midi":80,"time":294.37499999999955,"velocity":0.7480314960629921,"duration":0.33749999999997726},{"name":"E5","midi":76,"time":294.37499999999955,"velocity":0.7480314960629921,"duration":0.33749999999997726},{"name":"B4","midi":71,"time":294.37499999999955,"velocity":0.7480314960629921,"duration":0.33749999999997726},{"name":"E4","midi":64,"time":294.37499999999955,"velocity":0.7480314960629921,"duration":0.33749999999997726},{"name":"B4","midi":71,"time":294.74999999999955,"velocity":0.7480314960629921,"duration":0.33749999999997726},{"name":"E5","midi":76,"time":294.74999999999955,"velocity":0.7480314960629921,"duration":0.33749999999997726},{"name":"G#5","midi":80,"time":294.74999999999955,"velocity":0.7480314960629921,"duration":0.33749999999997726},{"name":"E4","midi":64,"time":294.74999999999955,"velocity":0.7480314960629921,"duration":0.33749999999997726},{"name":"E4","midi":64,"time":295.12499999999955,"velocity":0.7480314960629921,"duration":0.33749999999997726},{"name":"B4","midi":71,"time":295.12499999999955,"velocity":0.7480314960629921,"duration":0.33749999999997726},{"name":"E5","midi":76,"time":295.12499999999955,"velocity":0.7480314960629921,"duration":0.33749999999997726},{"name":"E4","midi":64,"time":295.49999999999955,"velocity":0.7480314960629921,"duration":0.33749999999997726},{"name":"B4","midi":71,"time":295.49999999999955,"velocity":0.7480314960629921,"duration":0.33749999999997726},{"name":"E5","midi":76,"time":295.49999999999955,"velocity":0.7480314960629921,"duration":0.33749999999997726},{"name":"E4","midi":64,"time":295.87499999999955,"velocity":0.7480314960629921,"duration":0.33749999999997726},{"name":"G#5","midi":80,"time":295.87499999999955,"velocity":0.7480314960629921,"duration":0.33749999999997726},{"name":"B4","midi":71,"time":295.87499999999955,"velocity":0.7480314960629921,"duration":0.33749999999997726},{"name":"E5","midi":76,"time":295.87499999999955,"velocity":0.7480314960629921,"duration":0.33749999999997726},{"name":"E4","midi":64,"time":296.24999999999955,"velocity":0.7480314960629921,"duration":0.33749999999997726},{"name":"G#5","midi":80,"time":296.24999999999955,"velocity":0.7480314960629921,"duration":0.33749999999997726},{"name":"E5","midi":76,"time":296.24999999999955,"velocity":0.7480314960629921,"duration":0.33749999999997726},{"name":"B4","midi":71,"time":296.24999999999955,"velocity":0.7480314960629921,"duration":0.33749999999997726},{"name":"B4","midi":71,"time":296.62499999999955,"velocity":0.7480314960629921,"duration":0.33749999999997726},{"name":"E5","midi":76,"time":296.62499999999955,"velocity":0.7480314960629921,"duration":0.33749999999997726},{"name":"E4","midi":64,"time":296.62499999999955,"velocity":0.7480314960629921,"duration":0.33749999999997726},{"name":"D5","midi":74,"time":296.99999999999955,"velocity":0.7480314960629921,"duration":0.33749999999997726},{"name":"A4","midi":69,"time":296.99999999999955,"velocity":0.7480314960629921,"duration":0.33749999999997726},{"name":"F#4","midi":66,"time":296.99999999999955,"velocity":0.7480314960629921,"duration":0.33749999999997726},{"name":"B3","midi":59,"time":296.99999999999955,"velocity":0.7480314960629921,"duration":0.33749999999997726},{"name":"F#4","midi":66,"time":297.37499999999955,"velocity":0.7480314960629921,"duration":0.33749999999997726},{"name":"A4","midi":69,"time":297.37499999999955,"velocity":0.7480314960629921,"duration":0.33749999999997726},{"name":"D5","midi":74,"time":297.37499999999955,"velocity":0.7480314960629921,"duration":0.33749999999997726},{"name":"B3","midi":59,"time":297.37499999999955,"velocity":0.7480314960629921,"duration":0.33749999999997726},{"name":"D5","midi":74,"time":297.74999999999955,"velocity":0.7480314960629921,"duration":0.33749999999997726},{"name":"B3","midi":59,"time":297.74999999999955,"velocity":0.7480314960629921,"duration":0.33749999999997726},{"name":"F#4","midi":66,"time":297.74999999999955,"velocity":0.7480314960629921,"duration":0.33749999999997726},{"name":"A4","midi":69,"time":297.74999999999955,"velocity":0.7480314960629921,"duration":0.33749999999997726},{"name":"F#5","midi":78,"time":297.74999999999955,"velocity":0.7480314960629921,"duration":0.33749999999997726},{"name":"A4","midi":69,"time":298.12499999999955,"velocity":0.7480314960629921,"duration":0.33749999999997726},{"name":"D5","midi":74,"time":298.12499999999955,"velocity":0.7480314960629921,"duration":0.33749999999997726},{"name":"B3","midi":59,"time":298.12499999999955,"velocity":0.7480314960629921,"duration":0.33749999999997726},{"name":"F#4","midi":66,"time":298.12499999999955,"velocity":0.7480314960629921,"duration":0.33749999999997726},{"name":"B3","midi":59,"time":298.49999999999955,"velocity":0.7480314960629921,"duration":0.33749999999997726},{"name":"D5","midi":74,"time":298.49999999999955,"velocity":0.7480314960629921,"duration":0.33749999999997726},{"name":"A4","midi":69,"time":298.49999999999955,"velocity":0.7480314960629921,"duration":0.33749999999997726},{"name":"F#4","midi":66,"time":298.49999999999955,"velocity":0.7480314960629921,"duration":0.33749999999997726},{"name":"F#4","midi":66,"time":298.87499999999955,"velocity":0.7480314960629921,"duration":0.33749999999997726},{"name":"A4","midi":69,"time":298.87499999999955,"velocity":0.7480314960629921,"duration":0.33749999999997726},{"name":"D5","midi":74,"time":298.87499999999955,"velocity":0.7480314960629921,"duration":0.33749999999997726},{"name":"B3","midi":59,"time":298.87499999999955,"velocity":0.7480314960629921,"duration":0.33749999999997726},{"name":"F#5","midi":78,"time":298.87499999999955,"velocity":0.7480314960629921,"duration":0.33749999999997726},{"name":"F#5","midi":78,"time":299.24999999999955,"velocity":0.7480314960629921,"duration":0.33749999999997726},{"name":"D5","midi":74,"time":299.24999999999955,"velocity":0.7480314960629921,"duration":0.33749999999997726},{"name":"A4","midi":69,"time":299.24999999999955,"velocity":0.7480314960629921,"duration":0.33749999999997726},{"name":"F#4","midi":66,"time":299.24999999999955,"velocity":0.7480314960629921,"duration":0.33749999999997726},{"name":"B3","midi":59,"time":299.24999999999955,"velocity":0.7480314960629921,"duration":0.33749999999997726},{"name":"B3","midi":59,"time":299.62499999999955,"velocity":0.7480314960629921,"duration":0.33749999999997726},{"name":"A4","midi":69,"time":299.62499999999955,"velocity":0.7480314960629921,"duration":0.33749999999997726},{"name":"D5","midi":74,"time":299.62499999999955,"velocity":0.7480314960629921,"duration":0.33749999999997726},{"name":"F#4","midi":66,"time":299.62499999999955,"velocity":0.7480314960629921,"duration":0.33749999999997726},{"name":"A4","midi":69,"time":299.99999999999955,"velocity":0.7480314960629921,"duration":0.33749999999997726},{"name":"B3","midi":59,"time":299.99999999999955,"velocity":0.7480314960629921,"duration":0.33749999999997726},{"name":"F#4","midi":66,"time":299.99999999999955,"velocity":0.7480314960629921,"duration":0.33749999999997726},{"name":"D5","midi":74,"time":299.99999999999955,"velocity":0.7480314960629921,"duration":0.33749999999997726},{"name":"F#5","midi":78,"time":300.37499999999955,"velocity":0.7480314960629921,"duration":0.33749999999997726},{"name":"B3","midi":59,"time":300.37499999999955,"velocity":0.7480314960629921,"duration":0.33749999999997726},{"name":"F#4","midi":66,"time":300.37499999999955,"velocity":0.7480314960629921,"duration":0.33749999999997726},{"name":"A4","midi":69,"time":300.37499999999955,"velocity":0.7480314960629921,"duration":0.33749999999997726},{"name":"D5","midi":74,"time":300.37499999999955,"velocity":0.7480314960629921,"duration":0.33749999999997726},{"name":"F#5","midi":78,"time":300.74999999999955,"velocity":0.7480314960629921,"duration":0.33749999999997726},{"name":"B3","midi":59,"time":300.74999999999955,"velocity":0.7480314960629921,"duration":0.33749999999997726},{"name":"F#4","midi":66,"time":300.74999999999955,"velocity":0.7480314960629921,"duration":0.33749999999997726},{"name":"A4","midi":69,"time":300.74999999999955,"velocity":0.7480314960629921,"duration":0.33749999999997726},{"name":"D5","midi":74,"time":300.74999999999955,"velocity":0.7480314960629921,"duration":0.33749999999997726},{"name":"D5","midi":74,"time":301.12499999999955,"velocity":0.7480314960629921,"duration":0.33749999999997726},{"name":"B3","midi":59,"time":301.12499999999955,"velocity":0.7480314960629921,"duration":0.33749999999997726},{"name":"F#4","midi":66,"time":301.12499999999955,"velocity":0.7480314960629921,"duration":0.33749999999997726},{"name":"A4","midi":69,"time":301.12499999999955,"velocity":0.7480314960629921,"duration":0.33749999999997726},{"name":"D5","midi":74,"time":301.49999999999955,"velocity":0.7480314960629921,"duration":0.33749999999997726},{"name":"B3","midi":59,"time":301.49999999999955,"velocity":0.7480314960629921,"duration":0.33749999999997726},{"name":"F#4","midi":66,"time":301.49999999999955,"velocity":0.7480314960629921,"duration":0.33749999999997726},{"name":"A4","midi":69,"time":301.49999999999955,"velocity":0.7480314960629921,"duration":0.33749999999997726},{"name":"A4","midi":69,"time":301.87499999999955,"velocity":0.7480314960629921,"duration":0.33749999999997726},{"name":"F#4","midi":66,"time":301.87499999999955,"velocity":0.7480314960629921,"duration":0.33749999999997726},{"name":"B3","midi":59,"time":301.87499999999955,"velocity":0.7480314960629921,"duration":0.33749999999997726},{"name":"F#5","midi":78,"time":301.87499999999955,"velocity":0.7480314960629921,"duration":0.33749999999997726},{"name":"D5","midi":74,"time":301.87499999999955,"velocity":0.7480314960629921,"duration":0.33749999999997726},{"name":"B3","midi":59,"time":302.24999999999955,"velocity":0.7480314960629921,"duration":0.33749999999997726},{"name":"F#4","midi":66,"time":302.24999999999955,"velocity":0.7480314960629921,"duration":0.33749999999997726},{"name":"A4","midi":69,"time":302.24999999999955,"velocity":0.7480314960629921,"duration":0.33749999999997726},{"name":"D5","midi":74,"time":302.24999999999955,"velocity":0.7480314960629921,"duration":0.33749999999997726},{"name":"F#5","midi":78,"time":302.24999999999955,"velocity":0.7480314960629921,"duration":0.33749999999997726},{"name":"B3","midi":59,"time":302.62499999999955,"velocity":0.7480314960629921,"duration":0.33749999999997726},{"name":"F#4","midi":66,"time":302.62499999999955,"velocity":0.7480314960629921,"duration":0.33749999999997726},{"name":"A4","midi":69,"time":302.62499999999955,"velocity":0.7480314960629921,"duration":0.33749999999997726},{"name":"D5","midi":74,"time":302.62499999999955,"velocity":0.7480314960629921,"duration":0.33749999999997726},{"name":"A4","midi":69,"time":302.99999999999955,"velocity":0.7480314960629921,"duration":0.33749999999997726},{"name":"D4","midi":62,"time":302.99999999999955,"velocity":0.7480314960629921,"duration":0.33749999999997726},{"name":"C#5","midi":73,"time":302.99999999999955,"velocity":0.7480314960629921,"duration":0.33749999999997726},{"name":"F#5","midi":78,"time":303.37499999999955,"velocity":0.7480314960629921,"duration":0.33749999999997726},{"name":"D4","midi":62,"time":303.37499999999955,"velocity":0.7480314960629921,"duration":0.33749999999997726},{"name":"A4","midi":69,"time":303.37499999999955,"velocity":0.7480314960629921,"duration":0.33749999999997726},{"name":"C#5","midi":73,"time":303.37499999999955,"velocity":0.7480314960629921,"duration":0.33749999999997726},{"name":"D5","midi":74,"time":303.37499999999955,"velocity":0.7480314960629921,"duration":0.33749999999997726},{"name":"D4","midi":62,"time":303.74999999999955,"velocity":0.7480314960629921,"duration":0.33749999999997726},{"name":"A4","midi":69,"time":303.74999999999955,"velocity":0.7480314960629921,"duration":0.33749999999997726},{"name":"C#5","midi":73,"time":303.74999999999955,"velocity":0.7480314960629921,"duration":0.33749999999997726},{"name":"F#5","midi":78,"time":303.74999999999955,"velocity":0.7480314960629921,"duration":0.33749999999997726},{"name":"A4","midi":69,"time":304.12499999999955,"velocity":0.7480314960629921,"duration":0.33749999999997726},{"name":"D4","midi":62,"time":304.12499999999955,"velocity":0.7480314960629921,"duration":0.33749999999997726},{"name":"C#5","midi":73,"time":304.12499999999955,"velocity":0.7480314960629921,"duration":0.33749999999997726},{"name":"C#5","midi":73,"time":304.49999999999955,"velocity":0.7480314960629921,"duration":0.33749999999997726},{"name":"A4","midi":69,"time":304.49999999999955,"velocity":0.7480314960629921,"duration":0.33749999999997726},{"name":"D4","midi":62,"time":304.49999999999955,"velocity":0.7480314960629921,"duration":0.33749999999997726},{"name":"F#5","midi":78,"time":304.87499999999955,"velocity":0.7480314960629921,"duration":0.33749999999997726},{"name":"D4","midi":62,"time":304.87499999999955,"velocity":0.7480314960629921,"duration":0.33749999999997726},{"name":"C#5","midi":73,"time":304.87499999999955,"velocity":0.7480314960629921,"duration":0.33749999999997726},{"name":"A4","midi":69,"time":304.87499999999955,"velocity":0.7480314960629921,"duration":0.33749999999997726},{"name":"F#5","midi":78,"time":305.24999999999955,"velocity":0.7480314960629921,"duration":0.33749999999997726},{"name":"C#5","midi":73,"time":305.24999999999955,"velocity":0.7480314960629921,"duration":0.33749999999997726},{"name":"A4","midi":69,"time":305.24999999999955,"velocity":0.7480314960629921,"duration":0.33749999999997726},{"name":"D4","midi":62,"time":305.24999999999955,"velocity":0.7480314960629921,"duration":0.33749999999997726},{"name":"C#5","midi":73,"time":305.62499999999955,"velocity":0.7480314960629921,"duration":0.33749999999997726},{"name":"A4","midi":69,"time":305.62499999999955,"velocity":0.7480314960629921,"duration":0.33749999999997726},{"name":"D4","midi":62,"time":305.62499999999955,"velocity":0.7480314960629921,"duration":0.33749999999997726},{"name":"A4","midi":69,"time":305.99999999999955,"velocity":0.7480314960629921,"duration":0.33749999999997726},{"name":"D4","midi":62,"time":305.99999999999955,"velocity":0.7480314960629921,"duration":0.33749999999997726},{"name":"C#5","midi":73,"time":305.99999999999955,"velocity":0.7480314960629921,"duration":0.33749999999997726},{"name":"A4","midi":69,"time":306.37499999999955,"velocity":0.7480314960629921,"duration":0.33749999999997726},{"name":"C#5","midi":73,"time":306.37499999999955,"velocity":0.7480314960629921,"duration":0.33749999999997726},{"name":"F#5","midi":78,"time":306.37499999999955,"velocity":0.7480314960629921,"duration":0.33749999999997726},{"name":"D4","midi":62,"time":306.37499999999955,"velocity":0.7480314960629921,"duration":0.33749999999997726},{"name":"F#5","midi":78,"time":306.74999999999955,"velocity":0.7480314960629921,"duration":0.33749999999997726},{"name":"C#5","midi":73,"time":306.74999999999955,"velocity":0.7480314960629921,"duration":0.33749999999997726},{"name":"A4","midi":69,"time":306.74999999999955,"velocity":0.7480314960629921,"duration":0.33749999999997726},{"name":"D4","midi":62,"time":306.74999999999955,"velocity":0.7480314960629921,"duration":0.33749999999997726},{"name":"D4","midi":62,"time":307.12499999999955,"velocity":0.7480314960629921,"duration":0.33749999999997726},{"name":"A4","midi":69,"time":307.12499999999955,"velocity":0.7480314960629921,"duration":0.33749999999997726},{"name":"C#5","midi":73,"time":307.12499999999955,"velocity":0.7480314960629921,"duration":0.33749999999997726},{"name":"D4","midi":62,"time":307.49999999999955,"velocity":0.7480314960629921,"duration":0.33749999999997726},{"name":"A4","midi":69,"time":307.49999999999955,"velocity":0.7480314960629921,"duration":0.33749999999997726},{"name":"C#5","midi":73,"time":307.49999999999955,"velocity":0.7480314960629921,"duration":0.33749999999997726},{"name":"C#5","midi":73,"time":307.87499999999955,"velocity":0.7480314960629921,"duration":0.33749999999997726},{"name":"D4","midi":62,"time":307.87499999999955,"velocity":0.7480314960629921,"duration":0.33749999999997726},{"name":"F#5","midi":78,"time":307.87499999999955,"velocity":0.7480314960629921,"duration":0.33749999999997726},{"name":"A4","midi":69,"time":307.87499999999955,"velocity":0.7480314960629921,"duration":0.33749999999997726},{"name":"A4","midi":69,"time":308.24999999999955,"velocity":0.7480314960629921,"duration":0.33749999999997726},{"name":"D4","midi":62,"time":308.24999999999955,"velocity":0.7480314960629921,"duration":0.33749999999997726},{"name":"F#5","midi":78,"time":308.24999999999955,"velocity":0.7480314960629921,"duration":0.33749999999997726},{"name":"C#5","midi":73,"time":308.24999999999955,"velocity":0.7480314960629921,"duration":0.33749999999997726},{"name":"D4","midi":62,"time":308.62499999999955,"velocity":0.7480314960629921,"duration":0.33749999999997726},{"name":"C#5","midi":73,"time":308.62499999999955,"velocity":0.7480314960629921,"duration":0.33749999999997726},{"name":"A4","midi":69,"time":308.62499999999955,"velocity":0.7480314960629921,"duration":0.33749999999997726},{"name":"F#5","midi":78,"time":308.99999999999955,"velocity":0.7480314960629921,"duration":0.33749999999997726},{"name":"A3","midi":57,"time":308.99999999999955,"velocity":0.7480314960629921,"duration":0.33749999999997726},{"name":"E4","midi":64,"time":308.99999999999955,"velocity":0.7480314960629921,"duration":0.33749999999997726},{"name":"A4","midi":69,"time":308.99999999999955,"velocity":0.7480314960629921,"duration":0.33749999999997726},{"name":"C#5","midi":73,"time":308.99999999999955,"velocity":0.7480314960629921,"duration":0.33749999999997726},{"name":"A4","midi":69,"time":309.37499999999955,"velocity":0.7480314960629921,"duration":0.33749999999997726},{"name":"C#5","midi":73,"time":309.37499999999955,"velocity":0.7480314960629921,"duration":0.33749999999997726},{"name":"E4","midi":64,"time":309.37499999999955,"velocity":0.7480314960629921,"duration":0.33749999999997726},{"name":"F#5","midi":78,"time":309.37499999999955,"velocity":0.7480314960629921,"duration":0.33749999999997726},{"name":"A3","midi":57,"time":309.37499999999955,"velocity":0.7480314960629921,"duration":0.33749999999997726},{"name":"A3","midi":57,"time":309.74999999999955,"velocity":0.7480314960629921,"duration":0.5062500000000227},{"name":"E4","midi":64,"time":309.74999999999955,"velocity":0.7480314960629921,"duration":0.5062500000000227},{"name":"E5","midi":76,"time":309.74999999999955,"velocity":0.7480314960629921,"duration":0.5062500000000227},{"name":"C#5","midi":73,"time":309.74999999999955,"velocity":0.7480314960629921,"duration":0.5062500000000227},{"name":"A4","midi":69,"time":309.74999999999955,"velocity":0.7480314960629921,"duration":0.5062500000000227},{"name":"C#5","midi":73,"time":310.31249999999955,"velocity":0.7480314960629921,"duration":0.16874999999998863},{"name":"E5","midi":76,"time":310.31249999999955,"velocity":0.7480314960629921,"duration":0.16874999999998863},{"name":"A3","midi":57,"time":310.31249999999955,"velocity":0.7480314960629921,"duration":0.16874999999998863},{"name":"E4","midi":64,"time":310.31249999999955,"velocity":0.7480314960629921,"duration":0.16874999999998863},{"name":"A4","midi":69,"time":310.31249999999955,"velocity":0.7480314960629921,"duration":0.16874999999998863},{"name":"A4","midi":69,"time":310.49999999999955,"velocity":0.7480314960629921,"duration":0.33749999999997726},{"name":"C#5","midi":73,"time":310.49999999999955,"velocity":0.7480314960629921,"duration":0.33749999999997726},{"name":"F#5","midi":78,"time":310.49999999999955,"velocity":0.7480314960629921,"duration":0.33749999999997726},{"name":"E4","midi":64,"time":310.49999999999955,"velocity":0.7480314960629921,"duration":0.33749999999997726},{"name":"A3","midi":57,"time":310.49999999999955,"velocity":0.7480314960629921,"duration":0.33749999999997726},{"name":"C#5","midi":73,"time":310.87499999999955,"velocity":0.7480314960629921,"duration":0.33749999999997726},{"name":"A4","midi":69,"time":310.87499999999955,"velocity":0.7480314960629921,"duration":0.33749999999997726},{"name":"E4","midi":64,"time":310.87499999999955,"velocity":0.7480314960629921,"duration":0.33749999999997726},{"name":"A3","midi":57,"time":310.87499999999955,"velocity":0.7480314960629921,"duration":0.33749999999997726},{"name":"F#5","midi":78,"time":310.87499999999955,"velocity":0.7480314960629921,"duration":0.33749999999997726},{"name":"A4","midi":69,"time":311.24999999999955,"velocity":0.7480314960629921,"duration":0.5062500000000227},{"name":"E4","midi":64,"time":311.24999999999955,"velocity":0.7480314960629921,"duration":0.5062500000000227},{"name":"A3","midi":57,"time":311.24999999999955,"velocity":0.7480314960629921,"duration":0.5062500000000227},{"name":"E5","midi":76,"time":311.24999999999955,"velocity":0.7480314960629921,"duration":0.5062500000000227},{"name":"C#5","midi":73,"time":311.24999999999955,"velocity":0.7480314960629921,"duration":0.5062500000000227},{"name":"A4","midi":69,"time":311.81249999999955,"velocity":0.7480314960629921,"duration":0.16874999999998863},{"name":"E4","midi":64,"time":311.81249999999955,"velocity":0.7480314960629921,"duration":0.16874999999998863},{"name":"A3","midi":57,"time":311.81249999999955,"velocity":0.7480314960629921,"duration":0.16874999999998863},{"name":"E5","midi":76,"time":311.81249999999955,"velocity":0.7480314960629921,"duration":0.16874999999998863},{"name":"C#5","midi":73,"time":311.81249999999955,"velocity":0.7480314960629921,"duration":0.16874999999998863},{"name":"C#5","midi":73,"time":311.99999999999955,"velocity":0.7480314960629921,"duration":0.33749999999997726},{"name":"A3","midi":57,"time":311.99999999999955,"velocity":0.7480314960629921,"duration":0.33749999999997726},{"name":"E4","midi":64,"time":311.99999999999955,"velocity":0.7480314960629921,"duration":0.33749999999997726},{"name":"A4","midi":69,"time":311.99999999999955,"velocity":0.7480314960629921,"duration":0.33749999999997726},{"name":"F#5","midi":78,"time":311.99999999999955,"velocity":0.7480314960629921,"duration":0.33749999999997726},{"name":"E4","midi":64,"time":312.37499999999955,"velocity":0.7480314960629921,"duration":0.33749999999997726},{"name":"A4","midi":69,"time":312.37499999999955,"velocity":0.7480314960629921,"duration":0.33749999999997726},{"name":"C#5","midi":73,"time":312.37499999999955,"velocity":0.7480314960629921,"duration":0.33749999999997726},{"name":"F#5","midi":78,"time":312.37499999999955,"velocity":0.7480314960629921,"duration":0.33749999999997726},{"name":"A3","midi":57,"time":312.37499999999955,"velocity":0.7480314960629921,"duration":0.33749999999997726},{"name":"E4","midi":64,"time":312.74999999999955,"velocity":0.7480314960629921,"duration":0.5062500000000227},{"name":"A4","midi":69,"time":312.74999999999955,"velocity":0.7480314960629921,"duration":0.5062500000000227},{"name":"C#5","midi":73,"time":312.74999999999955,"velocity":0.7480314960629921,"duration":0.5062500000000227},{"name":"E5","midi":76,"time":312.74999999999955,"velocity":0.7480314960629921,"duration":0.5062500000000227},{"name":"A3","midi":57,"time":312.74999999999955,"velocity":0.7480314960629921,"duration":0.5062500000000227},{"name":"A3","midi":57,"time":313.31249999999955,"velocity":0.7480314960629921,"duration":0.16874999999998863},{"name":"E4","midi":64,"time":313.31249999999955,"velocity":0.7480314960629921,"duration":0.16874999999998863},{"name":"A4","midi":69,"time":313.31249999999955,"velocity":0.7480314960629921,"duration":0.16874999999998863},{"name":"C#5","midi":73,"time":313.31249999999955,"velocity":0.7480314960629921,"duration":0.16874999999998863},{"name":"E5","midi":76,"time":313.31249999999955,"velocity":0.7480314960629921,"duration":0.16874999999998863},{"name":"A3","midi":57,"time":313.49999999999955,"velocity":0.7480314960629921,"duration":0.33749999999997726},{"name":"F#5","midi":78,"time":313.49999999999955,"velocity":0.7480314960629921,"duration":0.33749999999997726},{"name":"C#5","midi":73,"time":313.49999999999955,"velocity":0.7480314960629921,"duration":0.33749999999997726},{"name":"A4","midi":69,"time":313.49999999999955,"velocity":0.7480314960629921,"duration":0.33749999999997726},{"name":"E4","midi":64,"time":313.49999999999955,"velocity":0.7480314960629921,"duration":0.33749999999997726},{"name":"A4","midi":69,"time":313.87499999999955,"velocity":0.7480314960629921,"duration":0.33749999999997726},{"name":"A3","midi":57,"time":313.87499999999955,"velocity":0.7480314960629921,"duration":0.33749999999997726},{"name":"F#5","midi":78,"time":313.87499999999955,"velocity":0.7480314960629921,"duration":0.33749999999997726},{"name":"E4","midi":64,"time":313.87499999999955,"velocity":0.7480314960629921,"duration":0.33749999999997726},{"name":"C#5","midi":73,"time":313.87499999999955,"velocity":0.7480314960629921,"duration":0.33749999999997726},{"name":"A4","midi":69,"time":314.24999999999955,"velocity":0.7480314960629921,"duration":0.5062500000000227},{"name":"E5","midi":76,"time":314.24999999999955,"velocity":0.7480314960629921,"duration":0.5062500000000227},{"name":"C#5","midi":73,"time":314.24999999999955,"velocity":0.7480314960629921,"duration":0.5062500000000227},{"name":"E4","midi":64,"time":314.24999999999955,"velocity":0.7480314960629921,"duration":0.5062500000000227},{"name":"A3","midi":57,"time":314.24999999999955,"velocity":0.7480314960629921,"duration":0.5062500000000227},{"name":"C#5","midi":73,"time":314.81249999999955,"velocity":0.7480314960629921,"duration":0.16874999999998863},{"name":"E5","midi":76,"time":314.81249999999955,"velocity":0.7480314960629921,"duration":0.16874999999998863},{"name":"A4","midi":69,"time":314.81249999999955,"velocity":0.7480314960629921,"duration":0.16874999999998863},{"name":"A3","midi":57,"time":314.81249999999955,"velocity":0.7480314960629921,"duration":0.16874999999998863},{"name":"E4","midi":64,"time":314.81249999999955,"velocity":0.7480314960629921,"duration":0.16874999999998863},{"name":"F#5","midi":78,"time":314.99999999999955,"velocity":0.7480314960629921,"duration":0.33749999999997726},{"name":"D5","midi":74,"time":314.99999999999955,"velocity":0.7480314960629921,"duration":0.33749999999997726},{"name":"A4","midi":69,"time":314.99999999999955,"velocity":0.7480314960629921,"duration":0.33749999999997726},{"name":"D4","midi":62,"time":314.99999999999955,"velocity":0.7480314960629921,"duration":0.33749999999997726},{"name":"F#5","midi":78,"time":315.37499999999955,"velocity":0.7480314960629921,"duration":0.33749999999997726},{"name":"D4","midi":62,"time":315.37499999999955,"velocity":0.7480314960629921,"duration":0.33749999999997726},{"name":"A4","midi":69,"time":315.37499999999955,"velocity":0.7480314960629921,"duration":0.33749999999997726},{"name":"D5","midi":74,"time":315.37499999999955,"velocity":0.7480314960629921,"duration":0.33749999999997726},{"name":"D5","midi":74,"time":315.74999999999955,"velocity":0.7480314960629921,"duration":0.5062500000000227},{"name":"E5","midi":76,"time":315.74999999999955,"velocity":0.7480314960629921,"duration":0.5062500000000227},{"name":"D4","midi":62,"time":315.74999999999955,"velocity":0.7480314960629921,"duration":0.5062500000000227},{"name":"A4","midi":69,"time":315.74999999999955,"velocity":0.7480314960629921,"duration":0.5062500000000227},{"name":"E5","midi":76,"time":316.31249999999955,"velocity":0.7480314960629921,"duration":0.16874999999998863},{"name":"D4","midi":62,"time":316.31249999999955,"velocity":0.7480314960629921,"duration":0.16874999999998863},{"name":"A4","midi":69,"time":316.31249999999955,"velocity":0.7480314960629921,"duration":0.16874999999998863},{"name":"D5","midi":74,"time":316.31249999999955,"velocity":0.7480314960629921,"duration":0.16874999999998863},{"name":"D4","midi":62,"time":316.49999999999955,"velocity":0.7480314960629921,"duration":0.33749999999997726},{"name":"A4","midi":69,"time":316.49999999999955,"velocity":0.7480314960629921,"duration":0.33749999999997726},{"name":"D5","midi":74,"time":316.49999999999955,"velocity":0.7480314960629921,"duration":0.33749999999997726},{"name":"F#5","midi":78,"time":316.49999999999955,"velocity":0.7480314960629921,"duration":0.33749999999997726},{"name":"D4","midi":62,"time":316.87499999999955,"velocity":0.7480314960629921,"duration":0.33749999999997726},{"name":"A4","midi":69,"time":316.87499999999955,"velocity":0.7480314960629921,"duration":0.33749999999997726},{"name":"D5","midi":74,"time":316.87499999999955,"velocity":0.7480314960629921,"duration":0.33749999999997726},{"name":"F#5","midi":78,"time":316.87499999999955,"velocity":0.7480314960629921,"duration":0.33749999999997726},{"name":"A4","midi":69,"time":317.24999999999955,"velocity":0.7480314960629921,"duration":0.5062500000000227},{"name":"D5","midi":74,"time":317.24999999999955,"velocity":0.7480314960629921,"duration":0.5062500000000227},{"name":"D4","midi":62,"time":317.24999999999955,"velocity":0.7480314960629921,"duration":0.5062500000000227},{"name":"E5","midi":76,"time":317.24999999999955,"velocity":0.7480314960629921,"duration":0.5062500000000227},{"name":"D4","midi":62,"time":317.81249999999955,"velocity":0.7480314960629921,"duration":0.16874999999998863},{"name":"A4","midi":69,"time":317.81249999999955,"velocity":0.7480314960629921,"duration":0.16874999999998863},{"name":"D5","midi":74,"time":317.81249999999955,"velocity":0.7480314960629921,"duration":0.16874999999998863},{"name":"E5","midi":76,"time":317.81249999999955,"velocity":0.7480314960629921,"duration":0.16874999999998863},{"name":"E5","midi":76,"time":317.99999999999955,"velocity":0.7480314960629921,"duration":0.33749999999997726},{"name":"D4","midi":62,"time":317.99999999999955,"velocity":0.7480314960629921,"duration":0.33749999999997726},{"name":"A4","midi":69,"time":317.99999999999955,"velocity":0.7480314960629921,"duration":0.33749999999997726},{"name":"D5","midi":74,"time":317.99999999999955,"velocity":0.7480314960629921,"duration":0.33749999999997726},{"name":"D4","midi":62,"time":318.37499999999955,"velocity":0.7480314960629921,"duration":0.33749999999997726},{"name":"A4","midi":69,"time":318.37499999999955,"velocity":0.7480314960629921,"duration":0.33749999999997726},{"name":"D5","midi":74,"time":318.37499999999955,"velocity":0.7480314960629921,"duration":0.33749999999997726},{"name":"E5","midi":76,"time":318.37499999999955,"velocity":0.7480314960629921,"duration":0.33749999999997726},{"name":"D4","midi":62,"time":318.74999999999955,"velocity":0.7480314960629921,"duration":0.5062500000000227},{"name":"A4","midi":69,"time":318.74999999999955,"velocity":0.7480314960629921,"duration":0.5062500000000227},{"name":"D5","midi":74,"time":318.74999999999955,"velocity":0.7480314960629921,"duration":0.5062500000000227},{"name":"E5","midi":76,"time":318.74999999999955,"velocity":0.7480314960629921,"duration":0.5062500000000227},{"name":"E5","midi":76,"time":319.31249999999955,"velocity":0.7480314960629921,"duration":0.16874999999998863},{"name":"D5","midi":74,"time":319.31249999999955,"velocity":0.7480314960629921,"duration":0.16874999999998863},{"name":"A4","midi":69,"time":319.31249999999955,"velocity":0.7480314960629921,"duration":0.16874999999998863},{"name":"D4","midi":62,"time":319.31249999999955,"velocity":0.7480314960629921,"duration":0.16874999999998863},{"name":"A4","midi":69,"time":319.49999999999955,"velocity":0.7480314960629921,"duration":0.33749999999997726},{"name":"D4","midi":62,"time":319.49999999999955,"velocity":0.7480314960629921,"duration":0.33749999999997726},{"name":"F#5","midi":78,"time":319.49999999999955,"velocity":0.7480314960629921,"duration":0.33749999999997726},{"name":"D5","midi":74,"time":319.49999999999955,"velocity":0.7480314960629921,"duration":0.33749999999997726},{"name":"D5","midi":74,"time":319.87499999999955,"velocity":0.7480314960629921,"duration":0.33749999999997726},{"name":"F#5","midi":78,"time":319.87499999999955,"velocity":0.7480314960629921,"duration":0.33749999999997726},{"name":"A4","midi":69,"time":319.87499999999955,"velocity":0.7480314960629921,"duration":0.33749999999997726},{"name":"D4","midi":62,"time":319.87499999999955,"velocity":0.7480314960629921,"duration":0.33749999999997726},{"name":"D4","midi":62,"time":320.24999999999955,"velocity":0.7480314960629921,"duration":0.5062500000000227},{"name":"D5","midi":74,"time":320.24999999999955,"velocity":0.7480314960629921,"duration":0.5062500000000227},{"name":"E5","midi":76,"time":320.24999999999955,"velocity":0.7480314960629921,"duration":0.5062500000000227},{"name":"A4","midi":69,"time":320.24999999999955,"velocity":0.7480314960629921,"duration":0.5062500000000227},{"name":"D5","midi":74,"time":320.81249999999955,"velocity":0.7480314960629921,"duration":0.16874999999998863},{"name":"A4","midi":69,"time":320.81249999999955,"velocity":0.7480314960629921,"duration":0.16874999999998863},{"name":"E5","midi":76,"time":320.81249999999955,"velocity":0.7480314960629921,"duration":0.16874999999998863},{"name":"D4","midi":62,"time":320.81249999999955,"velocity":0.7480314960629921,"duration":0.16874999999998863},{"name":"B4","midi":71,"time":320.99999999999955,"velocity":0.7480314960629921,"duration":0.33749999999997726},{"name":"B3","midi":59,"time":320.99999999999955,"velocity":0.7480314960629921,"duration":0.33749999999997726},{"name":"F#4","midi":66,"time":320.99999999999955,"velocity":0.7480314960629921,"duration":0.33749999999997726},{"name":"D5","midi":74,"time":320.99999999999955,"velocity":0.7480314960629921,"duration":0.33749999999997726},{"name":"F#5","midi":78,"time":320.99999999999955,"velocity":0.7480314960629921,"duration":0.33749999999997726},{"name":"B4","midi":71,"time":321.37499999999955,"velocity":0.7480314960629921,"duration":0.33749999999997726},{"name":"F#5","midi":78,"time":321.37499999999955,"velocity":0.7480314960629921,"duration":0.33749999999997726},{"name":"D5","midi":74,"time":321.37499999999955,"velocity":0.7480314960629921,"duration":0.33749999999997726},{"name":"F#4","midi":66,"time":321.37499999999955,"velocity":0.7480314960629921,"duration":0.33749999999997726},{"name":"B3","midi":59,"time":321.37499999999955,"velocity":0.7480314960629921,"duration":0.33749999999997726},{"name":"E5","midi":76,"time":321.74999999999955,"velocity":0.7480314960629921,"duration":0.5062500000000227},{"name":"D5","midi":74,"time":321.74999999999955,"velocity":0.7480314960629921,"duration":0.5062500000000227},{"name":"B3","midi":59,"time":321.74999999999955,"velocity":0.7480314960629921,"duration":0.5062500000000227},{"name":"F#4","midi":66,"time":321.74999999999955,"velocity":0.7480314960629921,"duration":0.5062500000000227},{"name":"B4","midi":71,"time":321.74999999999955,"velocity":0.7480314960629921,"duration":0.5062500000000227},{"name":"E5","midi":76,"time":322.31249999999955,"velocity":0.7480314960629921,"duration":0.16874999999998863},{"name":"B3","midi":59,"time":322.31249999999955,"velocity":0.7480314960629921,"duration":0.16874999999998863},{"name":"F#4","midi":66,"time":322.31249999999955,"velocity":0.7480314960629921,"duration":0.16874999999998863},{"name":"B4","midi":71,"time":322.31249999999955,"velocity":0.7480314960629921,"duration":0.16874999999998863},{"name":"D5","midi":74,"time":322.31249999999955,"velocity":0.7480314960629921,"duration":0.16874999999998863},{"name":"B3","midi":59,"time":322.49999999999955,"velocity":0.7480314960629921,"duration":0.33749999999997726},{"name":"F#4","midi":66,"time":322.49999999999955,"velocity":0.7480314960629921,"duration":0.33749999999997726},{"name":"B4","midi":71,"time":322.49999999999955,"velocity":0.7480314960629921,"duration":0.33749999999997726},{"name":"D5","midi":74,"time":322.49999999999955,"velocity":0.7480314960629921,"duration":0.33749999999997726},{"name":"F#5","midi":78,"time":322.49999999999955,"velocity":0.7480314960629921,"duration":0.33749999999997726},{"name":"B3","midi":59,"time":322.87499999999955,"velocity":0.7480314960629921,"duration":0.33749999999997726},{"name":"F#4","midi":66,"time":322.87499999999955,"velocity":0.7480314960629921,"duration":0.33749999999997726},{"name":"B4","midi":71,"time":322.87499999999955,"velocity":0.7480314960629921,"duration":0.33749999999997726},{"name":"D5","midi":74,"time":322.87499999999955,"velocity":0.7480314960629921,"duration":0.33749999999997726},{"name":"F#5","midi":78,"time":322.87499999999955,"velocity":0.7480314960629921,"duration":0.33749999999997726},{"name":"D5","midi":74,"time":323.24999999999955,"velocity":0.7480314960629921,"duration":0.5062500000000227},{"name":"B3","midi":59,"time":323.24999999999955,"velocity":0.7480314960629921,"duration":0.5062500000000227},{"name":"F#4","midi":66,"time":323.24999999999955,"velocity":0.7480314960629921,"duration":0.5062500000000227},{"name":"B4","midi":71,"time":323.24999999999955,"velocity":0.7480314960629921,"duration":0.5062500000000227},{"name":"E5","midi":76,"time":323.24999999999955,"velocity":0.7480314960629921,"duration":0.5062500000000227},{"name":"B3","midi":59,"time":323.81249999999955,"velocity":0.7480314960629921,"duration":0.16874999999998863},{"name":"B4","midi":71,"time":323.81249999999955,"velocity":0.7480314960629921,"duration":0.16874999999998863},{"name":"D5","midi":74,"time":323.81249999999955,"velocity":0.7480314960629921,"duration":0.16874999999998863},{"name":"E5","midi":76,"time":323.81249999999955,"velocity":0.7480314960629921,"duration":0.16874999999998863},{"name":"F#4","midi":66,"time":323.81249999999955,"velocity":0.7480314960629921,"duration":0.16874999999998863},{"name":"B4","midi":71,"time":323.99999999999955,"velocity":0.7480314960629921,"duration":0.33749999999997726},{"name":"G#4","midi":68,"time":323.99999999999955,"velocity":0.7480314960629921,"duration":0.33749999999997726},{"name":"C#4","midi":61,"time":323.99999999999955,"velocity":0.7480314960629921,"duration":0.33749999999997726},{"name":"F#5","midi":78,"time":323.99999999999955,"velocity":0.7480314960629921,"duration":0.33749999999997726},{"name":"C#4","midi":61,"time":324.37499999999955,"velocity":0.7480314960629921,"duration":0.33749999999997726},{"name":"G#4","midi":68,"time":324.37499999999955,"velocity":0.7480314960629921,"duration":0.33749999999997726},{"name":"B4","midi":71,"time":324.37499999999955,"velocity":0.7480314960629921,"duration":0.33749999999997726},{"name":"F#5","midi":78,"time":324.37499999999955,"velocity":0.7480314960629921,"duration":0.33749999999997726},{"name":"E5","midi":76,"time":324.74999999999955,"velocity":0.7480314960629921,"duration":0.5062500000000227},{"name":"B4","midi":71,"time":324.74999999999955,"velocity":0.7480314960629921,"duration":0.5062500000000227},{"name":"G#4","midi":68,"time":324.74999999999955,"velocity":0.7480314960629921,"duration":0.5062500000000227},{"name":"C#4","midi":61,"time":324.74999999999955,"velocity":0.7480314960629921,"duration":0.5062500000000227},{"name":"E5","midi":76,"time":325.31249999999955,"velocity":0.7480314960629921,"duration":0.16874999999998863},{"name":"B4","midi":71,"time":325.31249999999955,"velocity":0.7480314960629921,"duration":0.16874999999998863},{"name":"G#4","midi":68,"time":325.31249999999955,"velocity":0.7480314960629921,"duration":0.16874999999998863},{"name":"C#4","midi":61,"time":325.31249999999955,"velocity":0.7480314960629921,"duration":0.16874999999998863},{"name":"G#4","midi":68,"time":325.49999999999955,"velocity":0.7480314960629921,"duration":0.33749999999997726},{"name":"C#4","midi":61,"time":325.49999999999955,"velocity":0.7480314960629921,"duration":0.33749999999997726},{"name":"B4","midi":71,"time":325.49999999999955,"velocity":0.7480314960629921,"duration":0.33749999999997726},{"name":"F#5","midi":78,"time":325.49999999999955,"velocity":0.7480314960629921,"duration":0.33749999999997726},{"name":"F#5","midi":78,"time":325.87499999999955,"velocity":0.7480314960629921,"duration":0.33749999999997726},{"name":"B4","midi":71,"time":325.87499999999955,"velocity":0.7480314960629921,"duration":0.33749999999997726},{"name":"G#4","midi":68,"time":325.87499999999955,"velocity":0.7480314960629921,"duration":0.33749999999997726},{"name":"C#4","midi":61,"time":325.87499999999955,"velocity":0.7480314960629921,"duration":0.33749999999997726},{"name":"E5","midi":76,"time":326.24999999999955,"velocity":0.7480314960629921,"duration":0.5062500000000227},{"name":"C#4","midi":61,"time":326.24999999999955,"velocity":0.7480314960629921,"duration":0.5062500000000227},{"name":"G#4","midi":68,"time":326.24999999999955,"velocity":0.7480314960629921,"duration":0.5062500000000227},{"name":"B4","midi":71,"time":326.24999999999955,"velocity":0.7480314960629921,"duration":0.5062500000000227},{"name":"C#4","midi":61,"time":326.81249999999955,"velocity":0.7480314960629921,"duration":0.16874999999998863},{"name":"G#4","midi":68,"time":326.81249999999955,"velocity":0.7480314960629921,"duration":0.16874999999998863},{"name":"B4","midi":71,"time":326.81249999999955,"velocity":0.7480314960629921,"duration":0.16874999999998863},{"name":"E5","midi":76,"time":326.81249999999955,"velocity":0.7480314960629921,"duration":0.16874999999998863},{"name":"D5","midi":74,"time":326.99999999999955,"velocity":0.7480314960629921,"duration":0.33749999999997726},{"name":"A4","midi":69,"time":326.99999999999955,"velocity":0.7480314960629921,"duration":0.33749999999997726},{"name":"D4","midi":62,"time":326.99999999999955,"velocity":0.7480314960629921,"duration":0.33749999999997726},{"name":"A5","midi":81,"time":326.99999999999955,"velocity":0.7480314960629921,"duration":0.33749999999997726},{"name":"F#5","midi":78,"time":326.99999999999955,"velocity":0.7480314960629921,"duration":0.33749999999997726},{"name":"D4","midi":62,"time":327.37499999999955,"velocity":0.7480314960629921,"duration":0.33749999999997726},{"name":"A5","midi":81,"time":327.37499999999955,"velocity":0.7480314960629921,"duration":0.33749999999997726},{"name":"F#5","midi":78,"time":327.37499999999955,"velocity":0.7480314960629921,"duration":0.33749999999997726},{"name":"D5","midi":74,"time":327.37499999999955,"velocity":0.7480314960629921,"duration":0.33749999999997726},{"name":"A4","midi":69,"time":327.37499999999955,"velocity":0.7480314960629921,"duration":0.33749999999997726},{"name":"F#5","midi":78,"time":327.74999999999955,"velocity":0.7480314960629921,"duration":0.5062500000000227},{"name":"A5","midi":81,"time":327.74999999999955,"velocity":0.7480314960629921,"duration":0.5062500000000227},{"name":"D5","midi":74,"time":327.74999999999955,"velocity":0.7480314960629921,"duration":0.5062500000000227},{"name":"A4","midi":69,"time":327.74999999999955,"velocity":0.7480314960629921,"duration":0.5062500000000227},{"name":"D4","midi":62,"time":327.74999999999955,"velocity":0.7480314960629921,"duration":0.5062500000000227},{"name":"A5","midi":81,"time":328.31249999999955,"velocity":0.7480314960629921,"duration":0.16874999999998863},{"name":"F#5","midi":78,"time":328.31249999999955,"velocity":0.7480314960629921,"duration":0.16874999999998863},{"name":"D5","midi":74,"time":328.31249999999955,"velocity":0.7480314960629921,"duration":0.16874999999998863},{"name":"A4","midi":69,"time":328.31249999999955,"velocity":0.7480314960629921,"duration":0.16874999999998863},{"name":"D4","midi":62,"time":328.31249999999955,"velocity":0.7480314960629921,"duration":0.16874999999998863},{"name":"A5","midi":81,"time":328.49999999999955,"velocity":0.7480314960629921,"duration":0.33749999999997726},{"name":"F#5","midi":78,"time":328.49999999999955,"velocity":0.7480314960629921,"duration":0.33749999999997726},{"name":"D5","midi":74,"time":328.49999999999955,"velocity":0.7480314960629921,"duration":0.33749999999997726},{"name":"A4","midi":69,"time":328.49999999999955,"velocity":0.7480314960629921,"duration":0.33749999999997726},{"name":"D4","midi":62,"time":328.49999999999955,"velocity":0.7480314960629921,"duration":0.33749999999997726},{"name":"A5","midi":81,"time":328.87499999999955,"velocity":0.7480314960629921,"duration":0.33749999999997726},{"name":"D4","midi":62,"time":328.87499999999955,"velocity":0.7480314960629921,"duration":0.33749999999997726},{"name":"A4","midi":69,"time":328.87499999999955,"velocity":0.7480314960629921,"duration":0.33749999999997726},{"name":"D5","midi":74,"time":328.87499999999955,"velocity":0.7480314960629921,"duration":0.33749999999997726},{"name":"F#5","midi":78,"time":328.87499999999955,"velocity":0.7480314960629921,"duration":0.33749999999997726},{"name":"D4","midi":62,"time":329.24999999999955,"velocity":0.7480314960629921,"duration":0.5062500000000227},{"name":"A5","midi":81,"time":329.24999999999955,"velocity":0.7480314960629921,"duration":0.5062500000000227},{"name":"F#5","midi":78,"time":329.24999999999955,"velocity":0.7480314960629921,"duration":0.5062500000000227},{"name":"D5","midi":74,"time":329.24999999999955,"velocity":0.7480314960629921,"duration":0.5062500000000227},{"name":"A4","midi":69,"time":329.24999999999955,"velocity":0.7480314960629921,"duration":0.5062500000000227},{"name":"D4","midi":62,"time":329.81249999999955,"velocity":0.7480314960629921,"duration":0.16874999999998863},{"name":"A4","midi":69,"time":329.81249999999955,"velocity":0.7480314960629921,"duration":0.16874999999998863},{"name":"D5","midi":74,"time":329.81249999999955,"velocity":0.7480314960629921,"duration":0.16874999999998863},{"name":"F#5","midi":78,"time":329.81249999999955,"velocity":0.7480314960629921,"duration":0.16874999999998863},{"name":"A5","midi":81,"time":329.81249999999955,"velocity":0.7480314960629921,"duration":0.16874999999998863},{"name":"D4","midi":62,"time":329.99999999999955,"velocity":0.7480314960629921,"duration":0.33749999999997726},{"name":"A4","midi":69,"time":329.99999999999955,"velocity":0.7480314960629921,"duration":0.33749999999997726},{"name":"A5","midi":81,"time":329.99999999999955,"velocity":0.7480314960629921,"duration":0.33749999999997726},{"name":"D5","midi":74,"time":329.99999999999955,"velocity":0.7480314960629921,"duration":0.33749999999997726},{"name":"F#5","midi":78,"time":329.99999999999955,"velocity":0.7480314960629921,"duration":0.33749999999997726},{"name":"D4","midi":62,"time":330.37499999999955,"velocity":0.7480314960629921,"duration":0.33749999999997726},{"name":"A4","midi":69,"time":330.37499999999955,"velocity":0.7480314960629921,"duration":0.33749999999997726},{"name":"A5","midi":81,"time":330.37499999999955,"velocity":0.7480314960629921,"duration":0.33749999999997726},{"name":"F#5","midi":78,"time":330.37499999999955,"velocity":0.7480314960629921,"duration":0.33749999999997726},{"name":"D5","midi":74,"time":330.37499999999955,"velocity":0.7480314960629921,"duration":0.33749999999997726},{"name":"D4","midi":62,"time":330.74999999999955,"velocity":0.7480314960629921,"duration":0.5062500000000227},{"name":"D5","midi":74,"time":330.74999999999955,"velocity":0.7480314960629921,"duration":0.5062500000000227},{"name":"F#5","midi":78,"time":330.74999999999955,"velocity":0.7480314960629921,"duration":0.5062500000000227},{"name":"A5","midi":81,"time":330.74999999999955,"velocity":0.7480314960629921,"duration":0.5062500000000227},{"name":"A4","midi":69,"time":330.74999999999955,"velocity":0.7480314960629921,"duration":0.5062500000000227},{"name":"A4","midi":69,"time":331.31249999999955,"velocity":0.7480314960629921,"duration":0.16874999999998863},{"name":"D4","midi":62,"time":331.31249999999955,"velocity":0.7480314960629921,"duration":0.16874999999998863},{"name":"A5","midi":81,"time":331.31249999999955,"velocity":0.7480314960629921,"duration":0.16874999999998863},{"name":"F#5","midi":78,"time":331.31249999999955,"velocity":0.7480314960629921,"duration":0.16874999999998863},{"name":"D5","midi":74,"time":331.31249999999955,"velocity":0.7480314960629921,"duration":0.16874999999998863},{"name":"A4","midi":69,"time":331.49999999999955,"velocity":0.7480314960629921,"duration":0.33749999999997726},{"name":"D4","midi":62,"time":331.49999999999955,"velocity":0.7480314960629921,"duration":0.33749999999997726},{"name":"D5","midi":74,"time":331.49999999999955,"velocity":0.7480314960629921,"duration":0.33749999999997726},{"name":"F#5","midi":78,"time":331.49999999999955,"velocity":0.7480314960629921,"duration":0.33749999999997726},{"name":"A5","midi":81,"time":331.49999999999955,"velocity":0.7480314960629921,"duration":0.33749999999997726},{"name":"D4","midi":62,"time":331.87499999999955,"velocity":0.7480314960629921,"duration":0.33749999999997726},{"name":"D5","midi":74,"time":331.87499999999955,"velocity":0.7480314960629921,"duration":0.33749999999997726},{"name":"F#5","midi":78,"time":331.87499999999955,"velocity":0.7480314960629921,"duration":0.33749999999997726},{"name":"A5","midi":81,"time":331.87499999999955,"velocity":0.7480314960629921,"duration":0.33749999999997726},{"name":"A4","midi":69,"time":331.87499999999955,"velocity":0.7480314960629921,"duration":0.33749999999997726},{"name":"A4","midi":69,"time":332.24999999999955,"velocity":0.7480314960629921,"duration":0.5062500000000227},{"name":"D4","midi":62,"time":332.24999999999955,"velocity":0.7480314960629921,"duration":0.5062500000000227},{"name":"A5","midi":81,"time":332.24999999999955,"velocity":0.7480314960629921,"duration":0.5062500000000227},{"name":"F#5","midi":78,"time":332.24999999999955,"velocity":0.7480314960629921,"duration":0.5062500000000227},{"name":"D5","midi":74,"time":332.24999999999955,"velocity":0.7480314960629921,"duration":0.5062500000000227},{"name":"D4","midi":62,"time":332.81249999999955,"velocity":0.7480314960629921,"duration":0.16874999999998863},{"name":"A4","midi":69,"time":332.81249999999955,"velocity":0.7480314960629921,"duration":0.16874999999998863},{"name":"F#5","midi":78,"time":332.81249999999955,"velocity":0.7480314960629921,"duration":0.16874999999998863},{"name":"A5","midi":81,"time":332.81249999999955,"velocity":0.7480314960629921,"duration":0.16874999999998863},{"name":"D5","midi":74,"time":332.81249999999955,"velocity":0.7480314960629921,"duration":0.16874999999998863},{"name":"C#5","midi":73,"time":332.99999999999955,"velocity":0.7480314960629921,"duration":0.33749999999997726},{"name":"E4","midi":64,"time":332.99999999999955,"velocity":0.7480314960629921,"duration":0.33749999999997726},{"name":"A3","midi":57,"time":332.99999999999955,"velocity":0.7480314960629921,"duration":0.33749999999997726},{"name":"A4","midi":69,"time":332.99999999999955,"velocity":0.7480314960629921,"duration":0.33749999999997726},{"name":"A3","midi":57,"time":333.37499999999955,"velocity":0.7480314960629921,"duration":0.33749999999997726},{"name":"A4","midi":69,"time":333.37499999999955,"velocity":0.7480314960629921,"duration":0.33749999999997726},{"name":"C#5","midi":73,"time":333.37499999999955,"velocity":0.7480314960629921,"duration":0.33749999999997726},{"name":"E4","midi":64,"time":333.37499999999955,"velocity":0.7480314960629921,"duration":0.33749999999997726},{"name":"E4","midi":64,"time":333.74999999999955,"velocity":0.7480314960629921,"duration":0.33749999999997726},{"name":"A5","midi":81,"time":333.74999999999955,"velocity":0.7480314960629921,"duration":0.33749999999997726},{"name":"E5","midi":76,"time":333.74999999999955,"velocity":0.7480314960629921,"duration":0.33749999999997726},{"name":"C#5","midi":73,"time":333.74999999999955,"velocity":0.7480314960629921,"duration":0.33749999999997726},{"name":"A4","midi":69,"time":333.74999999999955,"velocity":0.7480314960629921,"duration":0.33749999999997726},{"name":"A3","midi":57,"time":333.74999999999955,"velocity":0.7480314960629921,"duration":0.33749999999997726},{"name":"C#5","midi":73,"time":334.12499999999955,"velocity":0.7480314960629921,"duration":0.33749999999997726},{"name":"A3","midi":57,"time":334.12499999999955,"velocity":0.7480314960629921,"duration":0.33749999999997726},{"name":"E4","midi":64,"time":334.12499999999955,"velocity":0.7480314960629921,"duration":0.33749999999997726},{"name":"A4","midi":69,"time":334.12499999999955,"velocity":0.7480314960629921,"duration":0.33749999999997726},{"name":"A3","midi":57,"time":334.49999999999955,"velocity":0.7480314960629921,"duration":0.33749999999997726},{"name":"E4","midi":64,"time":334.49999999999955,"velocity":0.7480314960629921,"duration":0.33749999999997726},{"name":"A4","midi":69,"time":334.49999999999955,"velocity":0.7480314960629921,"duration":0.33749999999997726},{"name":"C#5","midi":73,"time":334.49999999999955,"velocity":0.7480314960629921,"duration":0.33749999999997726},{"name":"A5","midi":81,"time":334.87499999999955,"velocity":0.7480314960629921,"duration":0.33749999999997726},{"name":"E5","midi":76,"time":334.87499999999955,"velocity":0.7480314960629921,"duration":0.33749999999997726},{"name":"A3","midi":57,"time":334.87499999999955,"velocity":0.7480314960629921,"duration":0.33749999999997726},{"name":"E4","midi":64,"time":334.87499999999955,"velocity":0.7480314960629921,"duration":0.33749999999997726},{"name":"C#5","midi":73,"time":334.87499999999955,"velocity":0.7480314960629921,"duration":0.33749999999997726},{"name":"A4","midi":69,"time":334.87499999999955,"velocity":0.7480314960629921,"duration":0.33749999999997726},{"name":"A3","midi":57,"time":335.24999999999955,"velocity":0.7480314960629921,"duration":0.33749999999997726},{"name":"E4","midi":64,"time":335.24999999999955,"velocity":0.7480314960629921,"duration":0.33749999999997726},{"name":"A4","midi":69,"time":335.24999999999955,"velocity":0.7480314960629921,"duration":0.33749999999997726},{"name":"C#5","midi":73,"time":335.24999999999955,"velocity":0.7480314960629921,"duration":0.33749999999997726},{"name":"E5","midi":76,"time":335.24999999999955,"velocity":0.7480314960629921,"duration":0.33749999999997726},{"name":"A5","midi":81,"time":335.24999999999955,"velocity":0.7480314960629921,"duration":0.33749999999997726},{"name":"C#5","midi":73,"time":335.62499999999955,"velocity":0.7480314960629921,"duration":0.33749999999997726},{"name":"A4","midi":69,"time":335.62499999999955,"velocity":0.7480314960629921,"duration":0.33749999999997726},{"name":"E4","midi":64,"time":335.62499999999955,"velocity":0.7480314960629921,"duration":0.33749999999997726},{"name":"A3","midi":57,"time":335.62499999999955,"velocity":0.7480314960629921,"duration":0.33749999999997726},{"name":"A3","midi":57,"time":335.99999999999955,"velocity":0.7480314960629921,"duration":0.33749999999997726},{"name":"C#5","midi":73,"time":335.99999999999955,"velocity":0.7480314960629921,"duration":0.33749999999997726},{"name":"A4","midi":69,"time":335.99999999999955,"velocity":0.7480314960629921,"duration":0.33749999999997726},{"name":"E4","midi":64,"time":335.99999999999955,"velocity":0.7480314960629921,"duration":0.33749999999997726},{"name":"C#5","midi":73,"time":336.37499999999955,"velocity":0.7480314960629921,"duration":0.33749999999997726},{"name":"A5","midi":81,"time":336.37499999999955,"velocity":0.7480314960629921,"duration":0.33749999999997726},{"name":"E5","midi":76,"time":336.37499999999955,"velocity":0.7480314960629921,"duration":0.33749999999997726},{"name":"A3","midi":57,"time":336.37499999999955,"velocity":0.7480314960629921,"duration":0.33749999999997726},{"name":"E4","midi":64,"time":336.37499999999955,"velocity":0.7480314960629921,"duration":0.33749999999997726},{"name":"A4","midi":69,"time":336.37499999999955,"velocity":0.7480314960629921,"duration":0.33749999999997726},{"name":"C#5","midi":73,"time":336.74999999999955,"velocity":0.7480314960629921,"duration":0.33749999999997726},{"name":"A3","midi":57,"time":336.74999999999955,"velocity":0.7480314960629921,"duration":0.33749999999997726},{"name":"E4","midi":64,"time":336.74999999999955,"velocity":0.7480314960629921,"duration":0.33749999999997726},{"name":"A4","midi":69,"time":336.74999999999955,"velocity":0.7480314960629921,"duration":0.33749999999997726},{"name":"E5","midi":76,"time":336.74999999999955,"velocity":0.7480314960629921,"duration":0.33749999999997726},{"name":"A5","midi":81,"time":336.74999999999955,"velocity":0.7480314960629921,"duration":0.33749999999997726},{"name":"E4","midi":64,"time":337.12499999999955,"velocity":0.7480314960629921,"duration":0.33749999999997726},{"name":"A4","midi":69,"time":337.12499999999955,"velocity":0.7480314960629921,"duration":0.33749999999997726},{"name":"C#5","midi":73,"time":337.12499999999955,"velocity":0.7480314960629921,"duration":0.33749999999997726},{"name":"A3","midi":57,"time":337.12499999999955,"velocity":0.7480314960629921,"duration":0.33749999999997726},{"name":"C#5","midi":73,"time":337.49999999999955,"velocity":0.7480314960629921,"duration":0.33749999999997726},{"name":"A4","midi":69,"time":337.49999999999955,"velocity":0.7480314960629921,"duration":0.33749999999997726},{"name":"E4","midi":64,"time":337.49999999999955,"velocity":0.7480314960629921,"duration":0.33749999999997726},{"name":"A3","midi":57,"time":337.49999999999955,"velocity":0.7480314960629921,"duration":0.33749999999997726},{"name":"A5","midi":81,"time":337.87499999999955,"velocity":0.7480314960629921,"duration":0.33749999999997726},{"name":"A3","midi":57,"time":337.87499999999955,"velocity":0.7480314960629921,"duration":0.33749999999997726},{"name":"E4","midi":64,"time":337.87499999999955,"velocity":0.7480314960629921,"duration":0.33749999999997726},{"name":"A4","midi":69,"time":337.87499999999955,"velocity":0.7480314960629921,"duration":0.33749999999997726},{"name":"C#5","midi":73,"time":337.87499999999955,"velocity":0.7480314960629921,"duration":0.33749999999997726},{"name":"E5","midi":76,"time":337.87499999999955,"velocity":0.7480314960629921,"duration":0.33749999999997726},{"name":"E5","midi":76,"time":338.24999999999955,"velocity":0.7480314960629921,"duration":0.33749999999997726},{"name":"A5","midi":81,"time":338.24999999999955,"velocity":0.7480314960629921,"duration":0.33749999999997726},{"name":"A4","midi":69,"time":338.24999999999955,"velocity":0.7480314960629921,"duration":0.33749999999997726},{"name":"A3","midi":57,"time":338.24999999999955,"velocity":0.7480314960629921,"duration":0.33749999999997726},{"name":"E4","midi":64,"time":338.24999999999955,"velocity":0.7480314960629921,"duration":0.33749999999997726},{"name":"C#5","midi":73,"time":338.24999999999955,"velocity":0.7480314960629921,"duration":0.33749999999997726},{"name":"A4","midi":69,"time":338.62499999999955,"velocity":0.7480314960629921,"duration":0.33749999999997726},{"name":"A3","midi":57,"time":338.62499999999955,"velocity":0.7480314960629921,"duration":0.33749999999997726},{"name":"E4","midi":64,"time":338.62499999999955,"velocity":0.7480314960629921,"duration":0.33749999999997726},{"name":"C#5","midi":73,"time":338.62499999999955,"velocity":0.7480314960629921,"duration":0.33749999999997726},{"name":"B4","midi":71,"time":338.99999999999955,"velocity":0.7480314960629921,"duration":0.33749999999997726},{"name":"E5","midi":76,"time":338.99999999999955,"velocity":0.7480314960629921,"duration":0.33749999999997726},{"name":"E4","midi":64,"time":338.99999999999955,"velocity":0.7480314960629921,"duration":0.33749999999997726},{"name":"A5","midi":81,"time":339.37499999999955,"velocity":0.7480314960629921,"duration":0.33749999999997726},{"name":"E5","midi":76,"time":339.37499999999955,"velocity":0.7480314960629921,"duration":0.33749999999997726},{"name":"E5","midi":76,"time":339.37499999999955,"velocity":0.7480314960629921,"duration":0.33749999999997726},{"name":"B4","midi":71,"time":339.37499999999955,"velocity":0.7480314960629921,"duration":0.33749999999997726},{"name":"E4","midi":64,"time":339.37499999999955,"velocity":0.7480314960629921,"duration":0.33749999999997726},{"name":"E4","midi":64,"time":339.74999999999955,"velocity":0.7480314960629921,"duration":0.33749999999997726},{"name":"B4","midi":71,"time":339.74999999999955,"velocity":0.7480314960629921,"duration":0.33749999999997726},{"name":"E5","midi":76,"time":339.74999999999955,"velocity":0.7480314960629921,"duration":0.33749999999997726},{"name":"G#5","midi":80,"time":339.74999999999955,"velocity":0.7480314960629921,"duration":0.33749999999997726},{"name":"E4","midi":64,"time":340.12499999999955,"velocity":0.7480314960629921,"duration":0.33749999999997726},{"name":"B4","midi":71,"time":340.12499999999955,"velocity":0.7480314960629921,"duration":0.33749999999997726},{"name":"E5","midi":76,"time":340.12499999999955,"velocity":0.7480314960629921,"duration":0.33749999999997726},{"name":"E5","midi":76,"time":340.49999999999955,"velocity":0.7480314960629921,"duration":0.33749999999997726},{"name":"E4","midi":64,"time":340.49999999999955,"velocity":0.7480314960629921,"duration":0.33749999999997726},{"name":"B4","midi":71,"time":340.49999999999955,"velocity":0.7480314960629921,"duration":0.33749999999997726},{"name":"G#5","midi":80,"time":340.87499999999955,"velocity":0.7480314960629921,"duration":0.33749999999997726},{"name":"B4","midi":71,"time":340.87499999999955,"velocity":0.7480314960629921,"duration":0.33749999999997726},{"name":"E4","midi":64,"time":340.87499999999955,"velocity":0.7480314960629921,"duration":0.33749999999997726},{"name":"E5","midi":76,"time":340.87499999999955,"velocity":0.7480314960629921,"duration":0.33749999999997726},{"name":"G#5","midi":80,"time":341.24999999999955,"velocity":0.7480314960629921,"duration":0.33749999999997726},{"name":"E5","midi":76,"time":341.24999999999955,"velocity":0.7480314960629921,"duration":0.33749999999997726},{"name":"B4","midi":71,"time":341.24999999999955,"velocity":0.7480314960629921,"duration":0.33749999999997726},{"name":"E4","midi":64,"time":341.24999999999955,"velocity":0.7480314960629921,"duration":0.33749999999997726},{"name":"E4","midi":64,"time":341.62499999999955,"velocity":0.7480314960629921,"duration":0.33749999999997726},{"name":"B4","midi":71,"time":341.62499999999955,"velocity":0.7480314960629921,"duration":0.33749999999997726},{"name":"E5","midi":76,"time":341.62499999999955,"velocity":0.7480314960629921,"duration":0.33749999999997726},{"name":"E5","midi":76,"time":341.99999999999955,"velocity":0.7480314960629921,"duration":0.33749999999997726},{"name":"B4","midi":71,"time":341.99999999999955,"velocity":0.7480314960629921,"duration":0.33749999999997726},{"name":"E4","midi":64,"time":341.99999999999955,"velocity":0.7480314960629921,"duration":0.33749999999997726},{"name":"B4","midi":71,"time":342.37499999999955,"velocity":0.7480314960629921,"duration":0.33749999999997726},{"name":"E4","midi":64,"time":342.37499999999955,"velocity":0.7480314960629921,"duration":0.33749999999997726},{"name":"E5","midi":76,"time":342.37499999999955,"velocity":0.7480314960629921,"duration":0.33749999999997726},{"name":"G#5","midi":80,"time":342.37499999999955,"velocity":0.7480314960629921,"duration":0.33749999999997726},{"name":"E4","midi":64,"time":342.74999999999955,"velocity":0.7480314960629921,"duration":0.33749999999997726},{"name":"B4","midi":71,"time":342.74999999999955,"velocity":0.7480314960629921,"duration":0.33749999999997726},{"name":"E5","midi":76,"time":342.74999999999955,"velocity":0.7480314960629921,"duration":0.33749999999997726},{"name":"G#5","midi":80,"time":342.74999999999955,"velocity":0.7480314960629921,"duration":0.33749999999997726},{"name":"B4","midi":71,"time":343.12499999999955,"velocity":0.7480314960629921,"duration":0.33749999999997726},{"name":"E4","midi":64,"time":343.12499999999955,"velocity":0.7480314960629921,"duration":0.33749999999997726},{"name":"E5","midi":76,"time":343.12499999999955,"velocity":0.7480314960629921,"duration":0.33749999999997726},{"name":"E5","midi":76,"time":343.49999999999955,"velocity":0.7480314960629921,"duration":0.33749999999997726},{"name":"B4","midi":71,"time":343.49999999999955,"velocity":0.7480314960629921,"duration":0.33749999999997726},{"name":"E4","midi":64,"time":343.49999999999955,"velocity":0.7480314960629921,"duration":0.33749999999997726},{"name":"B4","midi":71,"time":343.87499999999955,"velocity":0.7480314960629921,"duration":0.33749999999997726},{"name":"E4","midi":64,"time":343.87499999999955,"velocity":0.7480314960629921,"duration":0.33749999999997726},{"name":"E5","midi":76,"time":343.87499999999955,"velocity":0.7480314960629921,"duration":0.33749999999997726},{"name":"G#5","midi":80,"time":343.87499999999955,"velocity":0.7480314960629921,"duration":0.33749999999997726},{"name":"E4","midi":64,"time":344.24999999999955,"velocity":0.7480314960629921,"duration":0.33749999999997726},{"name":"B4","midi":71,"time":344.24999999999955,"velocity":0.7480314960629921,"duration":0.33749999999997726},{"name":"E5","midi":76,"time":344.24999999999955,"velocity":0.7480314960629921,"duration":0.33749999999997726},{"name":"G#5","midi":80,"time":344.24999999999955,"velocity":0.7480314960629921,"duration":0.33749999999997726},{"name":"B4","midi":71,"time":344.62499999999955,"velocity":0.7480314960629921,"duration":0.33749999999997726},{"name":"E5","midi":76,"time":344.62499999999955,"velocity":0.7480314960629921,"duration":0.33749999999997726},{"name":"E4","midi":64,"time":344.62499999999955,"velocity":0.7480314960629921,"duration":0.33749999999997726},{"name":"D5","midi":74,"time":344.99999999999955,"velocity":0.7480314960629921,"duration":0.33749999999997726},{"name":"A4","midi":69,"time":344.99999999999955,"velocity":0.7480314960629921,"duration":0.33749999999997726},{"name":"F#4","midi":66,"time":344.99999999999955,"velocity":0.7480314960629921,"duration":0.33749999999997726},{"name":"B3","midi":59,"time":344.99999999999955,"velocity":0.7480314960629921,"duration":0.33749999999997726},{"name":"B3","midi":59,"time":345.37499999999955,"velocity":0.7480314960629921,"duration":0.33749999999997726},{"name":"F#4","midi":66,"time":345.37499999999955,"velocity":0.7480314960629921,"duration":0.33749999999997726},{"name":"A4","midi":69,"time":345.37499999999955,"velocity":0.7480314960629921,"duration":0.33749999999997726},{"name":"D5","midi":74,"time":345.37499999999955,"velocity":0.7480314960629921,"duration":0.33749999999997726},{"name":"B3","midi":59,"time":345.74999999999955,"velocity":0.7480314960629921,"duration":0.33749999999997726},{"name":"F#4","midi":66,"time":345.74999999999955,"velocity":0.7480314960629921,"duration":0.33749999999997726},{"name":"A4","midi":69,"time":345.74999999999955,"velocity":0.7480314960629921,"duration":0.33749999999997726},{"name":"D5","midi":74,"time":345.74999999999955,"velocity":0.7480314960629921,"duration":0.33749999999997726},{"name":"F#5","midi":78,"time":345.74999999999955,"velocity":0.7480314960629921,"duration":0.33749999999997726},{"name":"B3","midi":59,"time":346.12499999999955,"velocity":0.7480314960629921,"duration":0.33749999999997726},{"name":"F#4","midi":66,"time":346.12499999999955,"velocity":0.7480314960629921,"duration":0.33749999999997726},{"name":"A4","midi":69,"time":346.12499999999955,"velocity":0.7480314960629921,"duration":0.33749999999997726},{"name":"D5","midi":74,"time":346.12499999999955,"velocity":0.7480314960629921,"duration":0.33749999999997726},{"name":"B3","midi":59,"time":346.49999999999955,"velocity":0.7480314960629921,"duration":0.33749999999997726},{"name":"F#4","midi":66,"time":346.49999999999955,"velocity":0.7480314960629921,"duration":0.33749999999997726},{"name":"A4","midi":69,"time":346.49999999999955,"velocity":0.7480314960629921,"duration":0.33749999999997726},{"name":"D5","midi":74,"time":346.49999999999955,"velocity":0.7480314960629921,"duration":0.33749999999997726},{"name":"A4","midi":69,"time":346.87499999999955,"velocity":0.7480314960629921,"duration":0.33749999999997726},{"name":"B3","midi":59,"time":346.87499999999955,"velocity":0.7480314960629921,"duration":0.33749999999997726},{"name":"D5","midi":74,"time":346.87499999999955,"velocity":0.7480314960629921,"duration":0.33749999999997726},{"name":"F#5","midi":78,"time":346.87499999999955,"velocity":0.7480314960629921,"duration":0.33749999999997726},{"name":"F#4","midi":66,"time":346.87499999999955,"velocity":0.7480314960629921,"duration":0.33749999999997726},{"name":"B3","midi":59,"time":347.24999999999955,"velocity":0.7480314960629921,"duration":0.33749999999997726},{"name":"F#4","midi":66,"time":347.24999999999955,"velocity":0.7480314960629921,"duration":0.33749999999997726},{"name":"A4","midi":69,"time":347.24999999999955,"velocity":0.7480314960629921,"duration":0.33749999999997726},{"name":"D5","midi":74,"time":347.24999999999955,"velocity":0.7480314960629921,"duration":0.33749999999997726},{"name":"F#5","midi":78,"time":347.24999999999955,"velocity":0.7480314960629921,"duration":0.33749999999997726},{"name":"B3","midi":59,"time":347.62499999999955,"velocity":0.7480314960629921,"duration":0.33749999999997726},{"name":"F#4","midi":66,"time":347.62499999999955,"velocity":0.7480314960629921,"duration":0.33749999999997726},{"name":"A4","midi":69,"time":347.62499999999955,"velocity":0.7480314960629921,"duration":0.33749999999997726},{"name":"D5","midi":74,"time":347.62499999999955,"velocity":0.7480314960629921,"duration":0.33749999999997726},{"name":"F#4","midi":66,"time":347.99999999999955,"velocity":0.7480314960629921,"duration":0.33749999999997726},{"name":"B3","midi":59,"time":347.99999999999955,"velocity":0.7480314960629921,"duration":0.33749999999997726},{"name":"D5","midi":74,"time":347.99999999999955,"velocity":0.7480314960629921,"duration":0.33749999999997726},{"name":"A4","midi":69,"time":347.99999999999955,"velocity":0.7480314960629921,"duration":0.33749999999997726},{"name":"A4","midi":69,"time":348.37499999999955,"velocity":0.7480314960629921,"duration":0.33749999999997726},{"name":"B3","midi":59,"time":348.37499999999955,"velocity":0.7480314960629921,"duration":0.33749999999997726},{"name":"F#4","midi":66,"time":348.37499999999955,"velocity":0.7480314960629921,"duration":0.33749999999997726},{"name":"F#5","midi":78,"time":348.37499999999955,"velocity":0.7480314960629921,"duration":0.33749999999997726},{"name":"D5","midi":74,"time":348.37499999999955,"velocity":0.7480314960629921,"duration":0.33749999999997726},{"name":"F#5","midi":78,"time":348.74999999999955,"velocity":0.7480314960629921,"duration":0.33749999999997726},{"name":"D5","midi":74,"time":348.74999999999955,"velocity":0.7480314960629921,"duration":0.33749999999997726},{"name":"A4","midi":69,"time":348.74999999999955,"velocity":0.7480314960629921,"duration":0.33749999999997726},{"name":"F#4","midi":66,"time":348.74999999999955,"velocity":0.7480314960629921,"duration":0.33749999999997726},{"name":"B3","midi":59,"time":348.74999999999955,"velocity":0.7480314960629921,"duration":0.33749999999997726},{"name":"A4","midi":69,"time":349.12499999999955,"velocity":0.7480314960629921,"duration":0.33749999999997726},{"name":"F#4","midi":66,"time":349.12499999999955,"velocity":0.7480314960629921,"duration":0.33749999999997726},{"name":"B3","midi":59,"time":349.12499999999955,"velocity":0.7480314960629921,"duration":0.33749999999997726},{"name":"D5","midi":74,"time":349.12499999999955,"velocity":0.7480314960629921,"duration":0.33749999999997726},{"name":"B3","midi":59,"time":349.49999999999955,"velocity":0.7480314960629921,"duration":0.33749999999997726},{"name":"D5","midi":74,"time":349.49999999999955,"velocity":0.7480314960629921,"duration":0.33749999999997726},{"name":"F#4","midi":66,"time":349.49999999999955,"velocity":0.7480314960629921,"duration":0.33749999999997726},{"name":"A4","midi":69,"time":349.49999999999955,"velocity":0.7480314960629921,"duration":0.33749999999997726},{"name":"D5","midi":74,"time":349.87499999999955,"velocity":0.7480314960629921,"duration":0.33749999999997726},{"name":"A4","midi":69,"time":349.87499999999955,"velocity":0.7480314960629921,"duration":0.33749999999997726},{"name":"F#4","midi":66,"time":349.87499999999955,"velocity":0.7480314960629921,"duration":0.33749999999997726},{"name":"B3","midi":59,"time":349.87499999999955,"velocity":0.7480314960629921,"duration":0.33749999999997726},{"name":"F#5","midi":78,"time":349.87499999999955,"velocity":0.7480314960629921,"duration":0.33749999999997726},{"name":"D5","midi":74,"time":350.24999999999955,"velocity":0.7480314960629921,"duration":0.33749999999997726},{"name":"B3","midi":59,"time":350.24999999999955,"velocity":0.7480314960629921,"duration":0.33749999999997726},{"name":"F#4","midi":66,"time":350.24999999999955,"velocity":0.7480314960629921,"duration":0.33749999999997726},{"name":"A4","midi":69,"time":350.24999999999955,"velocity":0.7480314960629921,"duration":0.33749999999997726},{"name":"F#5","midi":78,"time":350.24999999999955,"velocity":0.7480314960629921,"duration":0.33749999999997726},{"name":"F#4","midi":66,"time":350.62499999999955,"velocity":0.7480314960629921,"duration":0.33749999999997726},{"name":"D5","midi":74,"time":350.62499999999955,"velocity":0.7480314960629921,"duration":0.33749999999997726},{"name":"B3","midi":59,"time":350.62499999999955,"velocity":0.7480314960629921,"duration":0.33749999999997726},{"name":"A4","midi":69,"time":350.62499999999955,"velocity":0.7480314960629921,"duration":0.33749999999997726},{"name":"D4","midi":62,"time":350.99999999999955,"velocity":0.7480314960629921,"duration":0.33749999999997726},{"name":"C#5","midi":73,"time":350.99999999999955,"velocity":0.7480314960629921,"duration":0.33749999999997726},{"name":"A4","midi":69,"time":350.99999999999955,"velocity":0.7480314960629921,"duration":0.33749999999997726},{"name":"D5","midi":74,"time":351.37499999999955,"velocity":0.7480314960629921,"duration":0.33749999999997726},{"name":"D4","midi":62,"time":351.37499999999955,"velocity":0.7480314960629921,"duration":0.33749999999997726},{"name":"A4","midi":69,"time":351.37499999999955,"velocity":0.7480314960629921,"duration":0.33749999999997726},{"name":"C#5","midi":73,"time":351.37499999999955,"velocity":0.7480314960629921,"duration":0.33749999999997726},{"name":"F#5","midi":78,"time":351.37499999999955,"velocity":0.7480314960629921,"duration":0.33749999999997726},{"name":"D4","midi":62,"time":351.74999999999955,"velocity":0.7480314960629921,"duration":0.33749999999997726},{"name":"F#5","midi":78,"time":351.74999999999955,"velocity":0.7480314960629921,"duration":0.33749999999997726},{"name":"C#5","midi":73,"time":351.74999999999955,"velocity":0.7480314960629921,"duration":0.33749999999997726},{"name":"A4","midi":69,"time":351.74999999999955,"velocity":0.7480314960629921,"duration":0.33749999999997726},{"name":"C#5","midi":73,"time":352.12499999999955,"velocity":0.7480314960629921,"duration":0.33749999999997726},{"name":"D4","midi":62,"time":352.12499999999955,"velocity":0.7480314960629921,"duration":0.33749999999997726},{"name":"A4","midi":69,"time":352.12499999999955,"velocity":0.7480314960629921,"duration":0.33749999999997726},{"name":"D4","midi":62,"time":352.49999999999955,"velocity":0.7480314960629921,"duration":0.33749999999997726},{"name":"A4","midi":69,"time":352.49999999999955,"velocity":0.7480314960629921,"duration":0.33749999999997726},{"name":"C#5","midi":73,"time":352.49999999999955,"velocity":0.7480314960629921,"duration":0.33749999999997726},{"name":"D4","midi":62,"time":352.87499999999955,"velocity":0.7480314960629921,"duration":0.33749999999997726},{"name":"F#5","midi":78,"time":352.87499999999955,"velocity":0.7480314960629921,"duration":0.33749999999997726},{"name":"C#5","midi":73,"time":352.87499999999955,"velocity":0.7480314960629921,"duration":0.33749999999997726},{"name":"A4","midi":69,"time":352.87499999999955,"velocity":0.7480314960629921,"duration":0.33749999999997726},{"name":"F#5","midi":78,"time":353.24999999999955,"velocity":0.7480314960629921,"duration":0.33749999999997726},{"name":"C#5","midi":73,"time":353.24999999999955,"velocity":0.7480314960629921,"duration":0.33749999999997726},{"name":"A4","midi":69,"time":353.24999999999955,"velocity":0.7480314960629921,"duration":0.33749999999997726},{"name":"D4","midi":62,"time":353.24999999999955,"velocity":0.7480314960629921,"duration":0.33749999999997726},{"name":"C#5","midi":73,"time":353.62499999999955,"velocity":0.7480314960629921,"duration":0.33749999999997726},{"name":"A4","midi":69,"time":353.62499999999955,"velocity":0.7480314960629921,"duration":0.33749999999997726},{"name":"D4","midi":62,"time":353.62499999999955,"velocity":0.7480314960629921,"duration":0.33749999999997726},{"name":"C#5","midi":73,"time":353.99999999999955,"velocity":0.7480314960629921,"duration":0.33749999999997726},{"name":"D4","midi":62,"time":353.99999999999955,"velocity":0.7480314960629921,"duration":0.33749999999997726},{"name":"A4","midi":69,"time":353.99999999999955,"velocity":0.7480314960629921,"duration":0.33749999999997726},{"name":"A4","midi":69,"time":354.37499999999955,"velocity":0.7480314960629921,"duration":0.33749999999997726},{"name":"D4","midi":62,"time":354.37499999999955,"velocity":0.7480314960629921,"duration":0.33749999999997726},{"name":"F#5","midi":78,"time":354.37499999999955,"velocity":0.7480314960629921,"duration":0.33749999999997726},{"name":"C#5","midi":73,"time":354.37499999999955,"velocity":0.7480314960629921,"duration":0.33749999999997726},{"name":"D4","midi":62,"time":354.74999999999955,"velocity":0.7480314960629921,"duration":0.33749999999997726},{"name":"C#5","midi":73,"time":354.74999999999955,"velocity":0.7480314960629921,"duration":0.33749999999997726},{"name":"F#5","midi":78,"time":354.74999999999955,"velocity":0.7480314960629921,"duration":0.33749999999997726},{"name":"A4","midi":69,"time":354.74999999999955,"velocity":0.7480314960629921,"duration":0.33749999999997726},{"name":"A4","midi":69,"time":355.12499999999955,"velocity":0.7480314960629921,"duration":0.33749999999997726},{"name":"D4","midi":62,"time":355.12499999999955,"velocity":0.7480314960629921,"duration":0.33749999999997726},{"name":"C#5","midi":73,"time":355.12499999999955,"velocity":0.7480314960629921,"duration":0.33749999999997726},{"name":"D4","midi":62,"time":355.49999999999955,"velocity":0.7480314960629921,"duration":0.33749999999997726},{"name":"A4","midi":69,"time":355.49999999999955,"velocity":0.7480314960629921,"duration":0.33749999999997726},{"name":"C#5","midi":73,"time":355.49999999999955,"velocity":0.7480314960629921,"duration":0.33749999999997726},{"name":"D4","midi":62,"time":355.87499999999955,"velocity":0.7480314960629921,"duration":0.33749999999997726},{"name":"A4","midi":69,"time":355.87499999999955,"velocity":0.7480314960629921,"duration":0.33749999999997726},{"name":"C#5","midi":73,"time":355.87499999999955,"velocity":0.7480314960629921,"duration":0.33749999999997726},{"name":"F#5","midi":78,"time":355.87499999999955,"velocity":0.7480314960629921,"duration":0.33749999999997726},{"name":"F#5","midi":78,"time":356.24999999999955,"velocity":0.7480314960629921,"duration":0.33749999999997726},{"name":"C#5","midi":73,"time":356.24999999999955,"velocity":0.7480314960629921,"duration":0.33749999999997726},{"name":"A4","midi":69,"time":356.24999999999955,"velocity":0.7480314960629921,"duration":0.33749999999997726},{"name":"D4","midi":62,"time":356.24999999999955,"velocity":0.7480314960629921,"duration":0.33749999999997726},{"name":"D4","midi":62,"time":356.62499999999955,"velocity":0.7480314960629921,"duration":0.33749999999997726},{"name":"A4","midi":69,"time":356.62499999999955,"velocity":0.7480314960629921,"duration":0.33749999999997726},{"name":"C#5","midi":73,"time":356.62499999999955,"velocity":0.7480314960629921,"duration":0.33749999999997726},{"name":"A4","midi":69,"time":356.99999999999955,"velocity":0.7480314960629921,"duration":0.33749999999997726},{"name":"E4","midi":64,"time":356.99999999999955,"velocity":0.7480314960629921,"duration":0.33749999999997726},{"name":"A3","midi":57,"time":356.99999999999955,"velocity":0.7480314960629921,"duration":0.33749999999997726},{"name":"F#5","midi":78,"time":356.99999999999955,"velocity":0.7480314960629921,"duration":0.33749999999997726},{"name":"C#5","midi":73,"time":356.99999999999955,"velocity":0.7480314960629921,"duration":0.33749999999997726},{"name":"E4","midi":64,"time":357.37499999999955,"velocity":0.7480314960629921,"duration":0.33749999999997726},{"name":"F#5","midi":78,"time":357.37499999999955,"velocity":0.7480314960629921,"duration":0.33749999999997726},{"name":"C#5","midi":73,"time":357.37499999999955,"velocity":0.7480314960629921,"duration":0.33749999999997726},{"name":"A4","midi":69,"time":357.37499999999955,"velocity":0.7480314960629921,"duration":0.33749999999997726},{"name":"A3","midi":57,"time":357.37499999999955,"velocity":0.7480314960629921,"duration":0.33749999999997726},{"name":"A4","midi":69,"time":357.74999999999955,"velocity":0.7480314960629921,"duration":0.5062500000000227},{"name":"A3","midi":57,"time":357.74999999999955,"velocity":0.7480314960629921,"duration":0.5062500000000227},{"name":"E4","midi":64,"time":357.74999999999955,"velocity":0.7480314960629921,"duration":0.5062500000000227},{"name":"C#5","midi":73,"time":357.74999999999955,"velocity":0.7480314960629921,"duration":0.5062500000000227},{"name":"E5","midi":76,"time":357.74999999999955,"velocity":0.7480314960629921,"duration":0.5062500000000227},{"name":"E5","midi":76,"time":358.31249999999955,"velocity":0.7480314960629921,"duration":0.16874999999998863},{"name":"A3","midi":57,"time":358.31249999999955,"velocity":0.7480314960629921,"duration":0.16874999999998863},{"name":"E4","midi":64,"time":358.31249999999955,"velocity":0.7480314960629921,"duration":0.16874999999998863},{"name":"A4","midi":69,"time":358.31249999999955,"velocity":0.7480314960629921,"duration":0.16874999999998863},{"name":"C#5","midi":73,"time":358.31249999999955,"velocity":0.7480314960629921,"duration":0.16874999999998863},{"name":"A3","midi":57,"time":358.49999999999955,"velocity":0.7480314960629921,"duration":0.33749999999997726},{"name":"E4","midi":64,"time":358.49999999999955,"velocity":0.7480314960629921,"duration":0.33749999999997726},{"name":"A4","midi":69,"time":358.49999999999955,"velocity":0.7480314960629921,"duration":0.33749999999997726},{"name":"C#5","midi":73,"time":358.49999999999955,"velocity":0.7480314960629921,"duration":0.33749999999997726},{"name":"F#5","midi":78,"time":358.49999999999955,"velocity":0.7480314960629921,"duration":0.33749999999997726},{"name":"F#5","midi":78,"time":358.87499999999955,"velocity":0.7480314960629921,"duration":0.33749999999997726},{"name":"A3","midi":57,"time":358.87499999999955,"velocity":0.7480314960629921,"duration":0.33749999999997726},{"name":"E4","midi":64,"time":358.87499999999955,"velocity":0.7480314960629921,"duration":0.33749999999997726},{"name":"A4","midi":69,"time":358.87499999999955,"velocity":0.7480314960629921,"duration":0.33749999999997726},{"name":"C#5","midi":73,"time":358.87499999999955,"velocity":0.7480314960629921,"duration":0.33749999999997726},{"name":"A3","midi":57,"time":359.24999999999955,"velocity":0.7480314960629921,"duration":0.5062500000000227},{"name":"E4","midi":64,"time":359.24999999999955,"velocity":0.7480314960629921,"duration":0.5062500000000227},{"name":"A4","midi":69,"time":359.24999999999955,"velocity":0.7480314960629921,"duration":0.5062500000000227},{"name":"C#5","midi":73,"time":359.24999999999955,"velocity":0.7480314960629921,"duration":0.5062500000000227},{"name":"E5","midi":76,"time":359.24999999999955,"velocity":0.7480314960629921,"duration":0.5062500000000227},{"name":"E5","midi":76,"time":359.81249999999955,"velocity":0.7480314960629921,"duration":0.16874999999998863},{"name":"A3","midi":57,"time":359.81249999999955,"velocity":0.7480314960629921,"duration":0.16874999999998863},{"name":"E4","midi":64,"time":359.81249999999955,"velocity":0.7480314960629921,"duration":0.16874999999998863},{"name":"A4","midi":69,"time":359.81249999999955,"velocity":0.7480314960629921,"duration":0.16874999999998863},{"name":"C#5","midi":73,"time":359.81249999999955,"velocity":0.7480314960629921,"duration":0.16874999999998863},{"name":"A3","midi":57,"time":359.99999999999955,"velocity":0.7480314960629921,"duration":0.33749999999997726},{"name":"E4","midi":64,"time":359.99999999999955,"velocity":0.7480314960629921,"duration":0.33749999999997726},{"name":"A4","midi":69,"time":359.99999999999955,"velocity":0.7480314960629921,"duration":0.33749999999997726},{"name":"C#5","midi":73,"time":359.99999999999955,"velocity":0.7480314960629921,"duration":0.33749999999997726},{"name":"F#5","midi":78,"time":359.99999999999955,"velocity":0.7480314960629921,"duration":0.33749999999997726},{"name":"A4","midi":69,"time":360.37499999999955,"velocity":0.7480314960629921,"duration":0.33749999999997726},{"name":"E4","midi":64,"time":360.37499999999955,"velocity":0.7480314960629921,"duration":0.33749999999997726},{"name":"A3","midi":57,"time":360.37499999999955,"velocity":0.7480314960629921,"duration":0.33749999999997726},{"name":"F#5","midi":78,"time":360.37499999999955,"velocity":0.7480314960629921,"duration":0.33749999999997726},{"name":"C#5","midi":73,"time":360.37499999999955,"velocity":0.7480314960629921,"duration":0.33749999999997726},{"name":"A3","midi":57,"time":360.74999999999955,"velocity":0.7480314960629921,"duration":0.5062500000000227},{"name":"E4","midi":64,"time":360.74999999999955,"velocity":0.7480314960629921,"duration":0.5062500000000227},{"name":"E5","midi":76,"time":360.74999999999955,"velocity":0.7480314960629921,"duration":0.5062500000000227},{"name":"C#5","midi":73,"time":360.74999999999955,"velocity":0.7480314960629921,"duration":0.5062500000000227},{"name":"A4","midi":69,"time":360.74999999999955,"velocity":0.7480314960629921,"duration":0.5062500000000227},{"name":"E5","midi":76,"time":361.31249999999955,"velocity":0.7480314960629921,"duration":0.16874999999998863},{"name":"C#5","midi":73,"time":361.31249999999955,"velocity":0.7480314960629921,"duration":0.16874999999998863},{"name":"A4","midi":69,"time":361.31249999999955,"velocity":0.7480314960629921,"duration":0.16874999999998863},{"name":"E4","midi":64,"time":361.31249999999955,"velocity":0.7480314960629921,"duration":0.16874999999998863},{"name":"A3","midi":57,"time":361.31249999999955,"velocity":0.7480314960629921,"duration":0.16874999999998863},{"name":"A4","midi":69,"time":361.49999999999955,"velocity":0.7480314960629921,"duration":0.33749999999997726},{"name":"C#5","midi":73,"time":361.49999999999955,"velocity":0.7480314960629921,"duration":0.33749999999997726},{"name":"F#5","midi":78,"time":361.49999999999955,"velocity":0.7480314960629921,"duration":0.33749999999997726},{"name":"A3","midi":57,"time":361.49999999999955,"velocity":0.7480314960629921,"duration":0.33749999999997726},{"name":"E4","midi":64,"time":361.49999999999955,"velocity":0.7480314960629921,"duration":0.33749999999997726},{"name":"C#5","midi":73,"time":361.87499999999955,"velocity":0.7480314960629921,"duration":0.33749999999997726},{"name":"F#5","midi":78,"time":361.87499999999955,"velocity":0.7480314960629921,"duration":0.33749999999997726},{"name":"E4","midi":64,"time":361.87499999999955,"velocity":0.7480314960629921,"duration":0.33749999999997726},{"name":"A3","midi":57,"time":361.87499999999955,"velocity":0.7480314960629921,"duration":0.33749999999997726},{"name":"A4","midi":69,"time":361.87499999999955,"velocity":0.7480314960629921,"duration":0.33749999999997726},{"name":"E5","midi":76,"time":362.24999999999955,"velocity":0.7480314960629921,"duration":0.5062500000000227},{"name":"C#5","midi":73,"time":362.24999999999955,"velocity":0.7480314960629921,"duration":0.5062500000000227},{"name":"A4","midi":69,"time":362.24999999999955,"velocity":0.7480314960629921,"duration":0.5062500000000227},{"name":"E4","midi":64,"time":362.24999999999955,"velocity":0.7480314960629921,"duration":0.5062500000000227},{"name":"A3","midi":57,"time":362.24999999999955,"velocity":0.7480314960629921,"duration":0.5062500000000227},{"name":"E5","midi":76,"time":362.81249999999955,"velocity":0.7480314960629921,"duration":0.16874999999998863},{"name":"C#5","midi":73,"time":362.81249999999955,"velocity":0.7480314960629921,"duration":0.16874999999998863},{"name":"A4","midi":69,"time":362.81249999999955,"velocity":0.7480314960629921,"duration":0.16874999999998863},{"name":"E4","midi":64,"time":362.81249999999955,"velocity":0.7480314960629921,"duration":0.16874999999998863},{"name":"A3","midi":57,"time":362.81249999999955,"velocity":0.7480314960629921,"duration":0.16874999999998863},{"name":"F#5","midi":78,"time":362.99999999999955,"velocity":0.7480314960629921,"duration":0.33749999999997726},{"name":"D4","midi":62,"time":362.99999999999955,"velocity":0.7480314960629921,"duration":0.33749999999997726},{"name":"A4","midi":69,"time":362.99999999999955,"velocity":0.7480314960629921,"duration":0.33749999999997726},{"name":"D5","midi":74,"time":362.99999999999955,"velocity":0.7480314960629921,"duration":0.33749999999997726},{"name":"D5","midi":74,"time":363.37499999999955,"velocity":0.7480314960629921,"duration":0.33749999999997726},{"name":"F#5","midi":78,"time":363.37499999999955,"velocity":0.7480314960629921,"duration":0.33749999999997726},{"name":"A4","midi":69,"time":363.37499999999955,"velocity":0.7480314960629921,"duration":0.33749999999997726},{"name":"D4","midi":62,"time":363.37499999999955,"velocity":0.7480314960629921,"duration":0.33749999999997726},{"name":"D4","midi":62,"time":363.74999999999955,"velocity":0.7480314960629921,"duration":0.5062500000000227},{"name":"E5","midi":76,"time":363.74999999999955,"velocity":0.7480314960629921,"duration":0.5062500000000227},{"name":"D5","midi":74,"time":363.74999999999955,"velocity":0.7480314960629921,"duration":0.5062500000000227},{"name":"A4","midi":69,"time":363.74999999999955,"velocity":0.7480314960629921,"duration":0.5062500000000227},{"name":"E5","midi":76,"time":364.31249999999955,"velocity":0.7480314960629921,"duration":0.16874999999998863},{"name":"D5","midi":74,"time":364.31249999999955,"velocity":0.7480314960629921,"duration":0.16874999999998863},{"name":"A4","midi":69,"time":364.31249999999955,"velocity":0.7480314960629921,"duration":0.16874999999998863},{"name":"D4","midi":62,"time":364.31249999999955,"velocity":0.7480314960629921,"duration":0.16874999999998863},{"name":"D4","midi":62,"time":364.49999999999955,"velocity":0.7480314960629921,"duration":0.33749999999997726},{"name":"D5","midi":74,"time":364.49999999999955,"velocity":0.7480314960629921,"duration":0.33749999999997726},{"name":"F#5","midi":78,"time":364.49999999999955,"velocity":0.7480314960629921,"duration":0.33749999999997726},{"name":"A4","midi":69,"time":364.49999999999955,"velocity":0.7480314960629921,"duration":0.33749999999997726},{"name":"A4","midi":69,"time":364.87499999999955,"velocity":0.7480314960629921,"duration":0.33749999999997726},{"name":"D4","midi":62,"time":364.87499999999955,"velocity":0.7480314960629921,"duration":0.33749999999997726},{"name":"F#5","midi":78,"time":364.87499999999955,"velocity":0.7480314960629921,"duration":0.33749999999997726},{"name":"D5","midi":74,"time":364.87499999999955,"velocity":0.7480314960629921,"duration":0.33749999999997726},{"name":"D4","midi":62,"time":365.24999999999955,"velocity":0.7480314960629921,"duration":0.5062500000000227},{"name":"A4","midi":69,"time":365.24999999999955,"velocity":0.7480314960629921,"duration":0.5062500000000227},{"name":"D5","midi":74,"time":365.24999999999955,"velocity":0.7480314960629921,"duration":0.5062500000000227},{"name":"E5","midi":76,"time":365.24999999999955,"velocity":0.7480314960629921,"duration":0.5062500000000227},{"name":"E5","midi":76,"time":365.81249999999955,"velocity":0.7480314960629921,"duration":0.16874999999998863},{"name":"D5","midi":74,"time":365.81249999999955,"velocity":0.7480314960629921,"duration":0.16874999999998863},{"name":"A4","midi":69,"time":365.81249999999955,"velocity":0.7480314960629921,"duration":0.16874999999998863},{"name":"D4","midi":62,"time":365.81249999999955,"velocity":0.7480314960629921,"duration":0.16874999999998863},{"name":"E5","midi":76,"time":365.99999999999955,"velocity":0.7480314960629921,"duration":0.33749999999997726},{"name":"D4","midi":62,"time":365.99999999999955,"velocity":0.7480314960629921,"duration":0.33749999999997726},{"name":"A4","midi":69,"time":365.99999999999955,"velocity":0.7480314960629921,"duration":0.33749999999997726},{"name":"D5","midi":74,"time":365.99999999999955,"velocity":0.7480314960629921,"duration":0.33749999999997726},{"name":"D5","midi":74,"time":366.37499999999955,"velocity":0.7480314960629921,"duration":0.33749999999997726},{"name":"D4","midi":62,"time":366.37499999999955,"velocity":0.7480314960629921,"duration":0.33749999999997726},{"name":"A4","midi":69,"time":366.37499999999955,"velocity":0.7480314960629921,"duration":0.33749999999997726},{"name":"E5","midi":76,"time":366.37499999999955,"velocity":0.7480314960629921,"duration":0.33749999999997726},{"name":"D4","midi":62,"time":366.74999999999955,"velocity":0.7480314960629921,"duration":0.5062500000000227},{"name":"A4","midi":69,"time":366.74999999999955,"velocity":0.7480314960629921,"duration":0.5062500000000227},{"name":"D5","midi":74,"time":366.74999999999955,"velocity":0.7480314960629921,"duration":0.5062500000000227},{"name":"E5","midi":76,"time":366.74999999999955,"velocity":0.7480314960629921,"duration":0.5062500000000227},{"name":"D4","midi":62,"time":367.31249999999955,"velocity":0.7480314960629921,"duration":0.16874999999998863},{"name":"A4","midi":69,"time":367.31249999999955,"velocity":0.7480314960629921,"duration":0.16874999999998863},{"name":"D5","midi":74,"time":367.31249999999955,"velocity":0.7480314960629921,"duration":0.16874999999998863},{"name":"E5","midi":76,"time":367.31249999999955,"velocity":0.7480314960629921,"duration":0.16874999999998863},{"name":"F#5","midi":78,"time":367.49999999999955,"velocity":0.7480314960629921,"duration":0.33749999999997726},{"name":"D5","midi":74,"time":367.49999999999955,"velocity":0.7480314960629921,"duration":0.33749999999997726},{"name":"A4","midi":69,"time":367.49999999999955,"velocity":0.7480314960629921,"duration":0.33749999999997726},{"name":"D4","midi":62,"time":367.49999999999955,"velocity":0.7480314960629921,"duration":0.33749999999997726},{"name":"D4","midi":62,"time":367.87499999999955,"velocity":0.7480314960629921,"duration":0.33749999999997726},{"name":"A4","midi":69,"time":367.87499999999955,"velocity":0.7480314960629921,"duration":0.33749999999997726},{"name":"F#5","midi":78,"time":367.87499999999955,"velocity":0.7480314960629921,"duration":0.33749999999997726},{"name":"D5","midi":74,"time":367.87499999999955,"velocity":0.7480314960629921,"duration":0.33749999999997726},{"name":"D5","midi":74,"time":368.24999999999955,"velocity":0.7480314960629921,"duration":0.5062500000000227},{"name":"E5","midi":76,"time":368.24999999999955,"velocity":0.7480314960629921,"duration":0.5062500000000227},{"name":"D4","midi":62,"time":368.24999999999955,"velocity":0.7480314960629921,"duration":0.5062500000000227},{"name":"A4","midi":69,"time":368.24999999999955,"velocity":0.7480314960629921,"duration":0.5062500000000227},{"name":"A4","midi":69,"time":368.81249999999955,"velocity":0.7480314960629921,"duration":0.16874999999998863},{"name":"D5","midi":74,"time":368.81249999999955,"velocity":0.7480314960629921,"duration":0.16874999999998863},{"name":"E5","midi":76,"time":368.81249999999955,"velocity":0.7480314960629921,"duration":0.16874999999998863},{"name":"D4","midi":62,"time":368.81249999999955,"velocity":0.7480314960629921,"duration":0.16874999999998863},{"name":"F#5","midi":78,"time":368.99999999999955,"velocity":0.7480314960629921,"duration":0.33749999999997726},{"name":"F#4","midi":66,"time":368.99999999999955,"velocity":0.7480314960629921,"duration":0.33749999999997726},{"name":"D5","midi":74,"time":368.99999999999955,"velocity":0.7480314960629921,"duration":0.33749999999997726},{"name":"B4","midi":71,"time":368.99999999999955,"velocity":0.7480314960629921,"duration":0.33749999999997726},{"name":"B3","midi":59,"time":368.99999999999955,"velocity":0.7480314960629921,"duration":0.33749999999997726},{"name":"B4","midi":71,"time":369.37499999999955,"velocity":0.7480314960629921,"duration":0.33749999999997726},{"name":"F#4","midi":66,"time":369.37499999999955,"velocity":0.7480314960629921,"duration":0.33749999999997726},{"name":"B3","midi":59,"time":369.37499999999955,"velocity":0.7480314960629921,"duration":0.33749999999997726},{"name":"D5","midi":74,"time":369.37499999999955,"velocity":0.7480314960629921,"duration":0.33749999999997726},{"name":"F#5","midi":78,"time":369.37499999999955,"velocity":0.7480314960629921,"duration":0.33749999999997726},{"name":"E5","midi":76,"time":369.74999999999955,"velocity":0.7480314960629921,"duration":0.5062500000000227},{"name":"D5","midi":74,"time":369.74999999999955,"velocity":0.7480314960629921,"duration":0.5062500000000227},{"name":"B4","midi":71,"time":369.74999999999955,"velocity":0.7480314960629921,"duration":0.5062500000000227},{"name":"F#4","midi":66,"time":369.74999999999955,"velocity":0.7480314960629921,"duration":0.5062500000000227},{"name":"B3","midi":59,"time":369.74999999999955,"velocity":0.7480314960629921,"duration":0.5062500000000227},{"name":"B3","midi":59,"time":370.31249999999955,"velocity":0.7480314960629921,"duration":0.16874999999998863},{"name":"B4","midi":71,"time":370.31249999999955,"velocity":0.7480314960629921,"duration":0.16874999999998863},{"name":"D5","midi":74,"time":370.31249999999955,"velocity":0.7480314960629921,"duration":0.16874999999998863},{"name":"E5","midi":76,"time":370.31249999999955,"velocity":0.7480314960629921,"duration":0.16874999999998863},{"name":"F#4","midi":66,"time":370.31249999999955,"velocity":0.7480314960629921,"duration":0.16874999999998863},{"name":"D5","midi":74,"time":370.49999999999955,"velocity":0.7480314960629921,"duration":0.33749999999997726},{"name":"F#5","midi":78,"time":370.49999999999955,"velocity":0.7480314960629921,"duration":0.33749999999997726},{"name":"B3","midi":59,"time":370.49999999999955,"velocity":0.7480314960629921,"duration":0.33749999999997726},{"name":"F#4","midi":66,"time":370.49999999999955,"velocity":0.7480314960629921,"duration":0.33749999999997726},{"name":"B4","midi":71,"time":370.49999999999955,"velocity":0.7480314960629921,"duration":0.33749999999997726},{"name":"B3","midi":59,"time":370.87499999999955,"velocity":0.7480314960629921,"duration":0.33749999999997726},{"name":"F#4","midi":66,"time":370.87499999999955,"velocity":0.7480314960629921,"duration":0.33749999999997726},{"name":"B4","midi":71,"time":370.87499999999955,"velocity":0.7480314960629921,"duration":0.33749999999997726},{"name":"D5","midi":74,"time":370.87499999999955,"velocity":0.7480314960629921,"duration":0.33749999999997726},{"name":"F#5","midi":78,"time":370.87499999999955,"velocity":0.7480314960629921,"duration":0.33749999999997726},{"name":"E5","midi":76,"time":371.24999999999955,"velocity":0.7480314960629921,"duration":0.5062500000000227},{"name":"B4","midi":71,"time":371.24999999999955,"velocity":0.7480314960629921,"duration":0.5062500000000227},{"name":"F#4","midi":66,"time":371.24999999999955,"velocity":0.7480314960629921,"duration":0.5062500000000227},{"name":"B3","midi":59,"time":371.24999999999955,"velocity":0.7480314960629921,"duration":0.5062500000000227},{"name":"D5","midi":74,"time":371.24999999999955,"velocity":0.7480314960629921,"duration":0.5062500000000227},{"name":"F#4","midi":66,"time":371.81249999999955,"velocity":0.7480314960629921,"duration":0.16874999999998863},{"name":"B4","midi":71,"time":371.81249999999955,"velocity":0.7480314960629921,"duration":0.16874999999998863},{"name":"D5","midi":74,"time":371.81249999999955,"velocity":0.7480314960629921,"duration":0.16874999999998863},{"name":"E5","midi":76,"time":371.81249999999955,"velocity":0.7480314960629921,"duration":0.16874999999998863},{"name":"B3","midi":59,"time":371.81249999999955,"velocity":0.7480314960629921,"duration":0.16874999999998863},{"name":"C#4","midi":61,"time":371.99999999999955,"velocity":0.7480314960629921,"duration":0.33749999999997726},{"name":"G#4","midi":68,"time":371.99999999999955,"velocity":0.7480314960629921,"duration":0.33749999999997726},{"name":"B4","midi":71,"time":371.99999999999955,"velocity":0.7480314960629921,"duration":0.33749999999997726},{"name":"F#5","midi":78,"time":371.99999999999955,"velocity":0.7480314960629921,"duration":0.33749999999997726},{"name":"C#4","midi":61,"time":372.37499999999955,"velocity":0.7480314960629921,"duration":0.33749999999997726},{"name":"F#5","midi":78,"time":372.37499999999955,"velocity":0.7480314960629921,"duration":0.33749999999997726},{"name":"B4","midi":71,"time":372.37499999999955,"velocity":0.7480314960629921,"duration":0.33749999999997726},{"name":"G#4","midi":68,"time":372.37499999999955,"velocity":0.7480314960629921,"duration":0.33749999999997726},{"name":"G#4","midi":68,"time":372.74999999999955,"velocity":0.7480314960629921,"duration":0.5062500000000227},{"name":"B4","midi":71,"time":372.74999999999955,"velocity":0.7480314960629921,"duration":0.5062500000000227},{"name":"E5","midi":76,"time":372.74999999999955,"velocity":0.7480314960629921,"duration":0.5062500000000227},{"name":"C#4","midi":61,"time":372.74999999999955,"velocity":0.7480314960629921,"duration":0.5062500000000227},{"name":"B4","midi":71,"time":373.31249999999955,"velocity":0.7480314960629921,"duration":0.16874999999998863},{"name":"G#4","midi":68,"time":373.31249999999955,"velocity":0.7480314960629921,"duration":0.16874999999998863},{"name":"C#4","midi":61,"time":373.31249999999955,"velocity":0.7480314960629921,"duration":0.16874999999998863},{"name":"E5","midi":76,"time":373.31249999999955,"velocity":0.7480314960629921,"duration":0.16874999999998863},{"name":"C#4","midi":61,"time":373.49999999999955,"velocity":0.7480314960629921,"duration":0.33749999999997726},{"name":"F#5","midi":78,"time":373.49999999999955,"velocity":0.7480314960629921,"duration":0.33749999999997726},{"name":"B4","midi":71,"time":373.49999999999955,"velocity":0.7480314960629921,"duration":0.33749999999997726},{"name":"G#4","midi":68,"time":373.49999999999955,"velocity":0.7480314960629921,"duration":0.33749999999997726},{"name":"B4","midi":71,"time":373.87499999999955,"velocity":0.7480314960629921,"duration":0.33749999999997726},{"name":"G#4","midi":68,"time":373.87499999999955,"velocity":0.7480314960629921,"duration":0.33749999999997726},{"name":"C#4","midi":61,"time":373.87499999999955,"velocity":0.7480314960629921,"duration":0.33749999999997726},{"name":"F#5","midi":78,"time":373.87499999999955,"velocity":0.7480314960629921,"duration":0.33749999999997726},{"name":"C#4","midi":61,"time":374.24999999999955,"velocity":0.7480314960629921,"duration":0.5062500000000227},{"name":"G#4","midi":68,"time":374.24999999999955,"velocity":0.7480314960629921,"duration":0.5062500000000227},{"name":"B4","midi":71,"time":374.24999999999955,"velocity":0.7480314960629921,"duration":0.5062500000000227},{"name":"E5","midi":76,"time":374.24999999999955,"velocity":0.7480314960629921,"duration":0.5062500000000227},{"name":"B4","midi":71,"time":374.81249999999955,"velocity":0.7480314960629921,"duration":0.16874999999998863},{"name":"G#4","midi":68,"time":374.81249999999955,"velocity":0.7480314960629921,"duration":0.16874999999998863},{"name":"C#4","midi":61,"time":374.81249999999955,"velocity":0.7480314960629921,"duration":0.16874999999998863},{"name":"E5","midi":76,"time":374.81249999999955,"velocity":0.7480314960629921,"duration":0.16874999999998863},{"name":"A5","midi":81,"time":374.99999999999955,"velocity":0.7480314960629921,"duration":0.33749999999997726},{"name":"F#5","midi":78,"time":374.99999999999955,"velocity":0.7480314960629921,"duration":0.33749999999997726},{"name":"D5","midi":74,"time":374.99999999999955,"velocity":0.7480314960629921,"duration":0.33749999999997726},{"name":"D4","midi":62,"time":374.99999999999955,"velocity":0.7480314960629921,"duration":0.33749999999997726},{"name":"A4","midi":69,"time":374.99999999999955,"velocity":0.7480314960629921,"duration":0.33749999999997726},{"name":"A4","midi":69,"time":375.37499999999955,"velocity":0.7480314960629921,"duration":0.33749999999997726},{"name":"D5","midi":74,"time":375.37499999999955,"velocity":0.7480314960629921,"duration":0.33749999999997726},{"name":"F#5","midi":78,"time":375.37499999999955,"velocity":0.7480314960629921,"duration":0.33749999999997726},{"name":"A5","midi":81,"time":375.37499999999955,"velocity":0.7480314960629921,"duration":0.33749999999997726},{"name":"D4","midi":62,"time":375.37499999999955,"velocity":0.7480314960629921,"duration":0.33749999999997726},{"name":"D5","midi":74,"time":375.74999999999955,"velocity":0.7480314960629921,"duration":0.5062500000000227},{"name":"A4","midi":69,"time":375.74999999999955,"velocity":0.7480314960629921,"duration":0.5062500000000227},{"name":"D4","midi":62,"time":375.74999999999955,"velocity":0.7480314960629921,"duration":0.5062500000000227},{"name":"A5","midi":81,"time":375.74999999999955,"velocity":0.7480314960629921,"duration":0.5062500000000227},{"name":"F#5","midi":78,"time":375.74999999999955,"velocity":0.7480314960629921,"duration":0.5062500000000227},{"name":"A4","midi":69,"time":376.31249999999955,"velocity":0.7480314960629921,"duration":0.16874999999998863},{"name":"D4","midi":62,"time":376.31249999999955,"velocity":0.7480314960629921,"duration":0.16874999999998863},{"name":"A5","midi":81,"time":376.31249999999955,"velocity":0.7480314960629921,"duration":0.16874999999998863},{"name":"F#5","midi":78,"time":376.31249999999955,"velocity":0.7480314960629921,"duration":0.16874999999998863},{"name":"D5","midi":74,"time":376.31249999999955,"velocity":0.7480314960629921,"duration":0.16874999999998863},{"name":"D4","midi":62,"time":376.49999999999955,"velocity":0.7480314960629921,"duration":0.33749999999997726},{"name":"D5","midi":74,"time":376.49999999999955,"velocity":0.7480314960629921,"duration":0.33749999999997726},{"name":"F#5","midi":78,"time":376.49999999999955,"velocity":0.7480314960629921,"duration":0.33749999999997726},{"name":"A5","midi":81,"time":376.49999999999955,"velocity":0.7480314960629921,"duration":0.33749999999997726},{"name":"A4","midi":69,"time":376.49999999999955,"velocity":0.7480314960629921,"duration":0.33749999999997726},{"name":"A4","midi":69,"time":376.87499999999955,"velocity":0.7480314960629921,"duration":0.33749999999997726},{"name":"D4","midi":62,"time":376.87499999999955,"velocity":0.7480314960629921,"duration":0.33749999999997726},{"name":"D5","midi":74,"time":376.87499999999955,"velocity":0.7480314960629921,"duration":0.33749999999997726},{"name":"A5","midi":81,"time":376.87499999999955,"velocity":0.7480314960629921,"duration":0.33749999999997726},{"name":"F#5","midi":78,"time":376.87499999999955,"velocity":0.7480314960629921,"duration":0.33749999999997726},{"name":"A5","midi":81,"time":377.24999999999955,"velocity":0.7480314960629921,"duration":0.5062500000000227},{"name":"F#5","midi":78,"time":377.24999999999955,"velocity":0.7480314960629921,"duration":0.5062500000000227},{"name":"D5","midi":74,"time":377.24999999999955,"velocity":0.7480314960629921,"duration":0.5062500000000227},{"name":"A4","midi":69,"time":377.24999999999955,"velocity":0.7480314960629921,"duration":0.5062500000000227},{"name":"D4","midi":62,"time":377.24999999999955,"velocity":0.7480314960629921,"duration":0.5062500000000227},{"name":"D4","midi":62,"time":377.81249999999955,"velocity":0.7480314960629921,"duration":0.16874999999998863},{"name":"A4","midi":69,"time":377.81249999999955,"velocity":0.7480314960629921,"duration":0.16874999999998863},{"name":"F#5","midi":78,"time":377.81249999999955,"velocity":0.7480314960629921,"duration":0.16874999999998863},{"name":"A5","midi":81,"time":377.81249999999955,"velocity":0.7480314960629921,"duration":0.16874999999998863},{"name":"D5","midi":74,"time":377.81249999999955,"velocity":0.7480314960629921,"duration":0.16874999999998863},{"name":"D4","midi":62,"time":377.99999999999955,"velocity":0.7480314960629921,"duration":0.33749999999997726},{"name":"A4","midi":69,"time":377.99999999999955,"velocity":0.7480314960629921,"duration":0.33749999999997726},{"name":"D5","midi":74,"time":377.99999999999955,"velocity":0.7480314960629921,"duration":0.33749999999997726},{"name":"F#5","midi":78,"time":377.99999999999955,"velocity":0.7480314960629921,"duration":0.33749999999997726},{"name":"A5","midi":81,"time":377.99999999999955,"velocity":0.7480314960629921,"duration":0.33749999999997726},{"name":"D4","midi":62,"time":378.37499999999955,"velocity":0.7480314960629921,"duration":0.33749999999997726},{"name":"F#5","midi":78,"time":378.37499999999955,"velocity":0.7480314960629921,"duration":0.33749999999997726},{"name":"A4","midi":69,"time":378.37499999999955,"velocity":0.7480314960629921,"duration":0.33749999999997726},{"name":"A5","midi":81,"time":378.37499999999955,"velocity":0.7480314960629921,"duration":0.33749999999997726},{"name":"D5","midi":74,"time":378.37499999999955,"velocity":0.7480314960629921,"duration":0.33749999999997726},{"name":"A5","midi":81,"time":378.74999999999955,"velocity":0.7480314960629921,"duration":0.5062500000000227},{"name":"D4","midi":62,"time":378.74999999999955,"velocity":0.7480314960629921,"duration":0.5062500000000227},{"name":"A4","midi":69,"time":378.74999999999955,"velocity":0.7480314960629921,"duration":0.5062500000000227},{"name":"F#5","midi":78,"time":378.74999999999955,"velocity":0.7480314960629921,"duration":0.5062500000000227},{"name":"D5","midi":74,"time":378.74999999999955,"velocity":0.7480314960629921,"duration":0.5062500000000227},{"name":"A5","midi":81,"time":379.31249999999955,"velocity":0.7480314960629921,"duration":0.16874999999998863},{"name":"F#5","midi":78,"time":379.31249999999955,"velocity":0.7480314960629921,"duration":0.16874999999998863},{"name":"D5","midi":74,"time":379.31249999999955,"velocity":0.7480314960629921,"duration":0.16874999999998863},{"name":"A4","midi":69,"time":379.31249999999955,"velocity":0.7480314960629921,"duration":0.16874999999998863},{"name":"D4","midi":62,"time":379.31249999999955,"velocity":0.7480314960629921,"duration":0.16874999999998863},{"name":"F#5","midi":78,"time":379.49999999999955,"velocity":0.7480314960629921,"duration":0.33749999999997726},{"name":"A5","midi":81,"time":379.49999999999955,"velocity":0.7480314960629921,"duration":0.33749999999997726},{"name":"D4","midi":62,"time":379.49999999999955,"velocity":0.7480314960629921,"duration":0.33749999999997726},{"name":"A4","midi":69,"time":379.49999999999955,"velocity":0.7480314960629921,"duration":0.33749999999997726},{"name":"D5","midi":74,"time":379.49999999999955,"velocity":0.7480314960629921,"duration":0.33749999999997726},{"name":"F#5","midi":78,"time":379.87499999999955,"velocity":0.7480314960629921,"duration":0.33749999999997726},{"name":"D4","midi":62,"time":379.87499999999955,"velocity":0.7480314960629921,"duration":0.33749999999997726},{"name":"A4","midi":69,"time":379.87499999999955,"velocity":0.7480314960629921,"duration":0.33749999999997726},{"name":"D5","midi":74,"time":379.87499999999955,"velocity":0.7480314960629921,"duration":0.33749999999997726},{"name":"A5","midi":81,"time":379.87499999999955,"velocity":0.7480314960629921,"duration":0.33749999999997726},{"name":"A5","midi":81,"time":380.24999999999955,"velocity":0.7480314960629921,"duration":0.5062500000000227},{"name":"F#5","midi":78,"time":380.24999999999955,"velocity":0.7480314960629921,"duration":0.5062500000000227},{"name":"D5","midi":74,"time":380.24999999999955,"velocity":0.7480314960629921,"duration":0.5062500000000227},{"name":"A4","midi":69,"time":380.24999999999955,"velocity":0.7480314960629921,"duration":0.5062500000000227},{"name":"D4","midi":62,"time":380.24999999999955,"velocity":0.7480314960629921,"duration":0.5062500000000227},{"name":"A5","midi":81,"time":380.81249999999955,"velocity":0.7480314960629921,"duration":0.16874999999998863},{"name":"D5","midi":74,"time":380.81249999999955,"velocity":0.7480314960629921,"duration":0.16874999999998863},{"name":"A4","midi":69,"time":380.81249999999955,"velocity":0.7480314960629921,"duration":0.16874999999998863},{"name":"F#5","midi":78,"time":380.81249999999955,"velocity":0.7480314960629921,"duration":0.16874999999998863},{"name":"D4","midi":62,"time":380.81249999999955,"velocity":0.7480314960629921,"duration":0.16874999999998863},{"name":"E4","midi":64,"time":380.99999999999955,"velocity":0.7480314960629921,"duration":0.33749999999997726},{"name":"A4","midi":69,"time":380.99999999999955,"velocity":0.7480314960629921,"duration":0.33749999999997726},{"name":"C#5","midi":73,"time":380.99999999999955,"velocity":0.7480314960629921,"duration":0.33749999999997726},{"name":"A3","midi":57,"time":380.99999999999955,"velocity":0.7480314960629921,"duration":0.33749999999997726},{"name":"A4","midi":69,"time":381.37499999999955,"velocity":0.7480314960629921,"duration":0.33749999999997726},{"name":"E4","midi":64,"time":381.37499999999955,"velocity":0.7480314960629921,"duration":0.33749999999997726},{"name":"A3","midi":57,"time":381.37499999999955,"velocity":0.7480314960629921,"duration":0.33749999999997726},{"name":"C#5","midi":73,"time":381.37499999999955,"velocity":0.7480314960629921,"duration":0.33749999999997726},{"name":"A3","midi":57,"time":381.74999999999955,"velocity":0.7480314960629921,"duration":0.33749999999997726},{"name":"E4","midi":64,"time":381.74999999999955,"velocity":0.7480314960629921,"duration":0.33749999999997726},{"name":"A4","midi":69,"time":381.74999999999955,"velocity":0.7480314960629921,"duration":0.33749999999997726},{"name":"C#5","midi":73,"time":381.74999999999955,"velocity":0.7480314960629921,"duration":0.33749999999997726},{"name":"E5","midi":76,"time":381.74999999999955,"velocity":0.7480314960629921,"duration":0.33749999999997726},{"name":"A5","midi":81,"time":381.74999999999955,"velocity":0.7480314960629921,"duration":0.33749999999997726},{"name":"C#5","midi":73,"time":382.12499999999955,"velocity":0.7480314960629921,"duration":0.33749999999997726},{"name":"A4","midi":69,"time":382.12499999999955,"velocity":0.7480314960629921,"duration":0.33749999999997726},{"name":"E4","midi":64,"time":382.12499999999955,"velocity":0.7480314960629921,"duration":0.33749999999997726},{"name":"A3","midi":57,"time":382.12499999999955,"velocity":0.7480314960629921,"duration":0.33749999999997726},{"name":"A4","midi":69,"time":382.49999999999955,"velocity":0.7480314960629921,"duration":0.33749999999997726},{"name":"A3","midi":57,"time":382.49999999999955,"velocity":0.7480314960629921,"duration":0.33749999999997726},{"name":"E4","midi":64,"time":382.49999999999955,"velocity":0.7480314960629921,"duration":0.33749999999997726},{"name":"C#5","midi":73,"time":382.49999999999955,"velocity":0.7480314960629921,"duration":0.33749999999997726},{"name":"E4","midi":64,"time":382.87499999999955,"velocity":0.7480314960629921,"duration":0.33749999999997726},{"name":"A4","midi":69,"time":382.87499999999955,"velocity":0.7480314960629921,"duration":0.33749999999997726},{"name":"C#5","midi":73,"time":382.87499999999955,"velocity":0.7480314960629921,"duration":0.33749999999997726},{"name":"E5","midi":76,"time":382.87499999999955,"velocity":0.7480314960629921,"duration":0.33749999999997726},{"name":"A5","midi":81,"time":382.87499999999955,"velocity":0.7480314960629921,"duration":0.33749999999997726},{"name":"A3","midi":57,"time":382.87499999999955,"velocity":0.7480314960629921,"duration":0.33749999999997726},{"name":"A3","midi":57,"time":383.24999999999955,"velocity":0.7480314960629921,"duration":0.33749999999997726},{"name":"E4","midi":64,"time":383.24999999999955,"velocity":0.7480314960629921,"duration":0.33749999999997726},{"name":"A5","midi":81,"time":383.24999999999955,"velocity":0.7480314960629921,"duration":0.33749999999997726},{"name":"A4","midi":69,"time":383.24999999999955,"velocity":0.7480314960629921,"duration":0.33749999999997726},{"name":"E5","midi":76,"time":383.24999999999955,"velocity":0.7480314960629921,"duration":0.33749999999997726},{"name":"C#5","midi":73,"time":383.24999999999955,"velocity":0.7480314960629921,"duration":0.33749999999997726},{"name":"A3","midi":57,"time":383.62499999999955,"velocity":0.7480314960629921,"duration":0.33749999999997726},{"name":"E4","midi":64,"time":383.62499999999955,"velocity":0.7480314960629921,"duration":0.33749999999997726},{"name":"C#5","midi":73,"time":383.62499999999955,"velocity":0.7480314960629921,"duration":0.33749999999997726},{"name":"A4","midi":69,"time":383.62499999999955,"velocity":0.7480314960629921,"duration":0.33749999999997726},{"name":"E4","midi":64,"time":383.99999999999955,"velocity":0.7480314960629921,"duration":0.33749999999997726},{"name":"A4","midi":69,"time":383.99999999999955,"velocity":0.7480314960629921,"duration":0.33749999999997726},{"name":"A3","midi":57,"time":383.99999999999955,"velocity":0.7480314960629921,"duration":0.33749999999997726},{"name":"C#5","midi":73,"time":383.99999999999955,"velocity":0.7480314960629921,"duration":0.33749999999997726},{"name":"E4","midi":64,"time":384.37499999999955,"velocity":0.7480314960629921,"duration":0.33749999999997726},{"name":"A4","midi":69,"time":384.37499999999955,"velocity":0.7480314960629921,"duration":0.33749999999997726},{"name":"C#5","midi":73,"time":384.37499999999955,"velocity":0.7480314960629921,"duration":0.33749999999997726},{"name":"E5","midi":76,"time":384.37499999999955,"velocity":0.7480314960629921,"duration":0.33749999999997726},{"name":"A3","midi":57,"time":384.37499999999955,"velocity":0.7480314960629921,"duration":0.33749999999997726},{"name":"A5","midi":81,"time":384.37499999999955,"velocity":0.7480314960629921,"duration":0.33749999999997726},{"name":"A4","midi":69,"time":384.74999999999955,"velocity":0.7480314960629921,"duration":0.33749999999997726},{"name":"C#5","midi":73,"time":384.74999999999955,"velocity":0.7480314960629921,"duration":0.33749999999997726},{"name":"E5","midi":76,"time":384.74999999999955,"velocity":0.7480314960629921,"duration":0.33749999999997726},{"name":"A5","midi":81,"time":384.74999999999955,"velocity":0.7480314960629921,"duration":0.33749999999997726},{"name":"A3","midi":57,"time":384.74999999999955,"velocity":0.7480314960629921,"duration":0.33749999999997726},{"name":"E4","midi":64,"time":384.74999999999955,"velocity":0.7480314960629921,"duration":0.33749999999997726},{"name":"A4","midi":69,"time":385.12499999999955,"velocity":0.7480314960629921,"duration":0.33749999999997726},{"name":"A3","midi":57,"time":385.12499999999955,"velocity":0.7480314960629921,"duration":0.33749999999997726},{"name":"E4","midi":64,"time":385.12499999999955,"velocity":0.7480314960629921,"duration":0.33749999999997726},{"name":"C#5","midi":73,"time":385.12499999999955,"velocity":0.7480314960629921,"duration":0.33749999999997726},{"name":"C#5","midi":73,"time":385.49999999999955,"velocity":0.7480314960629921,"duration":0.33749999999997726},{"name":"A3","midi":57,"time":385.49999999999955,"velocity":0.7480314960629921,"duration":0.33749999999997726},{"name":"E4","midi":64,"time":385.49999999999955,"velocity":0.7480314960629921,"duration":0.33749999999997726},{"name":"A4","midi":69,"time":385.49999999999955,"velocity":0.7480314960629921,"duration":0.33749999999997726},{"name":"E5","midi":76,"time":385.87499999999955,"velocity":0.7480314960629921,"duration":0.33749999999997726},{"name":"A3","midi":57,"time":385.87499999999955,"velocity":0.7480314960629921,"duration":0.33749999999997726},{"name":"E4","midi":64,"time":385.87499999999955,"velocity":0.7480314960629921,"duration":0.33749999999997726},{"name":"A4","midi":69,"time":385.87499999999955,"velocity":0.7480314960629921,"duration":0.33749999999997726},{"name":"A5","midi":81,"time":385.87499999999955,"velocity":0.7480314960629921,"duration":0.33749999999997726},{"name":"C#5","midi":73,"time":385.87499999999955,"velocity":0.7480314960629921,"duration":0.33749999999997726},{"name":"E5","midi":76,"time":386.24999999999955,"velocity":0.7480314960629921,"duration":0.33749999999997726},{"name":"E4","midi":64,"time":386.24999999999955,"velocity":0.7480314960629921,"duration":0.33749999999997726},{"name":"A4","midi":69,"time":386.24999999999955,"velocity":0.7480314960629921,"duration":0.33749999999997726},{"name":"C#5","midi":73,"time":386.24999999999955,"velocity":0.7480314960629921,"duration":0.33749999999997726},{"name":"A3","midi":57,"time":386.24999999999955,"velocity":0.7480314960629921,"duration":0.33749999999997726},{"name":"A5","midi":81,"time":386.24999999999955,"velocity":0.7480314960629921,"duration":0.33749999999997726},{"name":"E4","midi":64,"time":386.62499999999955,"velocity":0.7480314960629921,"duration":0.33749999999997726},{"name":"A4","midi":69,"time":386.62499999999955,"velocity":0.7480314960629921,"duration":0.33749999999997726},{"name":"C#5","midi":73,"time":386.62499999999955,"velocity":0.7480314960629921,"duration":0.33749999999997726},{"name":"A3","midi":57,"time":386.62499999999955,"velocity":0.7480314960629921,"duration":0.33749999999997726},{"name":"D4","midi":62,"time":386.99999999999955,"velocity":0.7480314960629921,"duration":0.33749999999997726},{"name":"A4","midi":69,"time":386.99999999999955,"velocity":0.7480314960629921,"duration":0.33749999999997726},{"name":"D5","midi":74,"time":386.99999999999955,"velocity":0.7480314960629921,"duration":0.33749999999997726},{"name":"F#5","midi":78,"time":386.99999999999955,"velocity":0.7480314960629921,"duration":0.33749999999997726},{"name":"D5","midi":74,"time":387.37499999999955,"velocity":0.7480314960629921,"duration":0.33749999999997726},{"name":"F#5","midi":78,"time":387.37499999999955,"velocity":0.7480314960629921,"duration":0.33749999999997726},{"name":"D4","midi":62,"time":387.37499999999955,"velocity":0.7480314960629921,"duration":0.33749999999997726},{"name":"A4","midi":69,"time":387.37499999999955,"velocity":0.7480314960629921,"duration":0.33749999999997726},{"name":"E5","midi":76,"time":387.74999999999955,"velocity":0.7480314960629921,"duration":0.5062500000000227},{"name":"D5","midi":74,"time":387.74999999999955,"velocity":0.7480314960629921,"duration":0.5062500000000227},{"name":"A4","midi":69,"time":387.74999999999955,"velocity":0.7480314960629921,"duration":0.5062500000000227},{"name":"D4","midi":62,"time":387.74999999999955,"velocity":0.7480314960629921,"duration":0.5062500000000227},{"name":"D5","midi":74,"time":388.31249999999955,"velocity":0.7480314960629921,"duration":0.16874999999998863},{"name":"A4","midi":69,"time":388.31249999999955,"velocity":0.7480314960629921,"duration":0.16874999999998863},{"name":"E5","midi":76,"time":388.31249999999955,"velocity":0.7480314960629921,"duration":0.16874999999998863},{"name":"D4","midi":62,"time":388.31249999999955,"velocity":0.7480314960629921,"duration":0.16874999999998863},{"name":"A4","midi":69,"time":388.49999999999955,"velocity":0.7480314960629921,"duration":0.33749999999997726},{"name":"F#5","midi":78,"time":388.49999999999955,"velocity":0.7480314960629921,"duration":0.33749999999997726},{"name":"D5","midi":74,"time":388.49999999999955,"velocity":0.7480314960629921,"duration":0.33749999999997726},{"name":"D4","midi":62,"time":388.49999999999955,"velocity":0.7480314960629921,"duration":0.33749999999997726},{"name":"A4","midi":69,"time":388.87499999999955,"velocity":0.7480314960629921,"duration":0.33749999999997726},{"name":"D4","midi":62,"time":388.87499999999955,"velocity":0.7480314960629921,"duration":0.33749999999997726},{"name":"D5","midi":74,"time":388.87499999999955,"velocity":0.7480314960629921,"duration":0.33749999999997726},{"name":"F#5","midi":78,"time":388.87499999999955,"velocity":0.7480314960629921,"duration":0.33749999999997726},{"name":"D5","midi":74,"time":389.24999999999955,"velocity":0.7480314960629921,"duration":0.5062500000000227},{"name":"E5","midi":76,"time":389.24999999999955,"velocity":0.7480314960629921,"duration":0.5062500000000227},{"name":"D4","midi":62,"time":389.24999999999955,"velocity":0.7480314960629921,"duration":0.5062500000000227},{"name":"A4","midi":69,"time":389.24999999999955,"velocity":0.7480314960629921,"duration":0.5062500000000227},{"name":"E5","midi":76,"time":389.81249999999955,"velocity":0.7480314960629921,"duration":0.16874999999998863},{"name":"D5","midi":74,"time":389.81249999999955,"velocity":0.7480314960629921,"duration":0.16874999999998863},{"name":"A4","midi":69,"time":389.81249999999955,"velocity":0.7480314960629921,"duration":0.16874999999998863},{"name":"D4","midi":62,"time":389.81249999999955,"velocity":0.7480314960629921,"duration":0.16874999999998863},{"name":"D4","midi":62,"time":389.99999999999955,"velocity":0.7480314960629921,"duration":0.33749999999997726},{"name":"D5","midi":74,"time":389.99999999999955,"velocity":0.7480314960629921,"duration":0.33749999999997726},{"name":"E5","midi":76,"time":389.99999999999955,"velocity":0.7480314960629921,"duration":0.33749999999997726},{"name":"A4","midi":69,"time":389.99999999999955,"velocity":0.7480314960629921,"duration":0.33749999999997726},{"name":"D4","midi":62,"time":390.37499999999955,"velocity":0.7480314960629921,"duration":0.33749999999997726},{"name":"A4","midi":69,"time":390.37499999999955,"velocity":0.7480314960629921,"duration":0.33749999999997726},{"name":"D5","midi":74,"time":390.37499999999955,"velocity":0.7480314960629921,"duration":0.33749999999997726},{"name":"E5","midi":76,"time":390.37499999999955,"velocity":0.7480314960629921,"duration":0.33749999999997726},{"name":"D4","midi":62,"time":390.74999999999955,"velocity":0.7480314960629921,"duration":0.5062500000000227},{"name":"E5","midi":76,"time":390.74999999999955,"velocity":0.7480314960629921,"duration":0.5062500000000227},{"name":"A4","midi":69,"time":390.74999999999955,"velocity":0.7480314960629921,"duration":0.5062500000000227},{"name":"D5","midi":74,"time":390.74999999999955,"velocity":0.7480314960629921,"duration":0.5062500000000227},{"name":"D4","midi":62,"time":391.31249999999955,"velocity":0.7480314960629921,"duration":0.16874999999998863},{"name":"A4","midi":69,"time":391.31249999999955,"velocity":0.7480314960629921,"duration":0.16874999999998863},{"name":"D5","midi":74,"time":391.31249999999955,"velocity":0.7480314960629921,"duration":0.16874999999998863},{"name":"E5","midi":76,"time":391.31249999999955,"velocity":0.7480314960629921,"duration":0.16874999999998863},{"name":"D4","midi":62,"time":391.49999999999955,"velocity":0.7480314960629921,"duration":0.33749999999997726},{"name":"D5","midi":74,"time":391.49999999999955,"velocity":0.7480314960629921,"duration":0.33749999999997726},{"name":"A4","midi":69,"time":391.49999999999955,"velocity":0.7480314960629921,"duration":0.33749999999997726},{"name":"F#5","midi":78,"time":391.49999999999955,"velocity":0.7480314960629921,"duration":0.33749999999997726},{"name":"A4","midi":69,"time":391.87499999999955,"velocity":0.7480314960629921,"duration":0.33749999999997726},{"name":"D5","midi":74,"time":391.87499999999955,"velocity":0.7480314960629921,"duration":0.33749999999997726},{"name":"F#5","midi":78,"time":391.87499999999955,"velocity":0.7480314960629921,"duration":0.33749999999997726},{"name":"D4","midi":62,"time":391.87499999999955,"velocity":0.7480314960629921,"duration":0.33749999999997726},{"name":"E5","midi":76,"time":392.24999999999955,"velocity":0.7480314960629921,"duration":0.5062500000000227},{"name":"D5","midi":74,"time":392.24999999999955,"velocity":0.7480314960629921,"duration":0.5062500000000227},{"name":"D4","midi":62,"time":392.24999999999955,"velocity":0.7480314960629921,"duration":0.5062500000000227},{"name":"A4","midi":69,"time":392.24999999999955,"velocity":0.7480314960629921,"duration":0.5062500000000227},{"name":"E5","midi":76,"time":392.81249999999955,"velocity":0.7480314960629921,"duration":0.16874999999998863},{"name":"D4","midi":62,"time":392.81249999999955,"velocity":0.7480314960629921,"duration":0.16874999999998863},{"name":"A4","midi":69,"time":392.81249999999955,"velocity":0.7480314960629921,"duration":0.16874999999998863},{"name":"D5","midi":74,"time":392.81249999999955,"velocity":0.7480314960629921,"duration":0.16874999999998863},{"name":"B3","midi":59,"time":392.99999999999955,"velocity":0.7480314960629921,"duration":0.33749999999997726},{"name":"A4","midi":69,"time":392.99999999999955,"velocity":0.7480314960629921,"duration":0.33749999999997726},{"name":"F#4","midi":66,"time":392.99999999999955,"velocity":0.7480314960629921,"duration":0.33749999999997726},{"name":"D5","midi":74,"time":392.99999999999955,"velocity":0.7480314960629921,"duration":0.33749999999997726},{"name":"D5","midi":74,"time":393.37499999999955,"velocity":0.7480314960629921,"duration":0.33749999999997726},{"name":"B3","midi":59,"time":393.37499999999955,"velocity":0.7480314960629921,"duration":0.33749999999997726},{"name":"F#4","midi":66,"time":393.37499999999955,"velocity":0.7480314960629921,"duration":0.33749999999997726},{"name":"A4","midi":69,"time":393.37499999999955,"velocity":0.7480314960629921,"duration":0.33749999999997726},{"name":"F#5","midi":78,"time":393.74999999999955,"velocity":0.7480314960629921,"duration":0.33749999999997726},{"name":"D5","midi":74,"time":393.74999999999955,"velocity":0.7480314960629921,"duration":0.33749999999997726},{"name":"A4","midi":69,"time":393.74999999999955,"velocity":0.7480314960629921,"duration":0.33749999999997726},{"name":"F#4","midi":66,"time":393.74999999999955,"velocity":0.7480314960629921,"duration":0.33749999999997726},{"name":"B3","midi":59,"time":393.74999999999955,"velocity":0.7480314960629921,"duration":0.33749999999997726},{"name":"D5","midi":74,"time":394.12499999999955,"velocity":0.7480314960629921,"duration":0.33749999999997726},{"name":"A4","midi":69,"time":394.12499999999955,"velocity":0.7480314960629921,"duration":0.33749999999997726},{"name":"B3","midi":59,"time":394.12499999999955,"velocity":0.7480314960629921,"duration":0.33749999999997726},{"name":"F#4","midi":66,"time":394.12499999999955,"velocity":0.7480314960629921,"duration":0.33749999999997726},{"name":"D5","midi":74,"time":394.49999999999955,"velocity":0.7480314960629921,"duration":0.33749999999997726},{"name":"A4","midi":69,"time":394.49999999999955,"velocity":0.7480314960629921,"duration":0.33749999999997726},{"name":"F#4","midi":66,"time":394.49999999999955,"velocity":0.7480314960629921,"duration":0.33749999999997726},{"name":"B3","midi":59,"time":394.49999999999955,"velocity":0.7480314960629921,"duration":0.33749999999997726},{"name":"D5","midi":74,"time":394.87499999999955,"velocity":0.7480314960629921,"duration":0.33749999999997726},{"name":"F#5","midi":78,"time":394.87499999999955,"velocity":0.7480314960629921,"duration":0.33749999999997726},{"name":"A4","midi":69,"time":394.87499999999955,"velocity":0.7480314960629921,"duration":0.33749999999997726},{"name":"F#4","midi":66,"time":394.87499999999955,"velocity":0.7480314960629921,"duration":0.33749999999997726},{"name":"B3","midi":59,"time":394.87499999999955,"velocity":0.7480314960629921,"duration":0.33749999999997726},{"name":"A4","midi":69,"time":395.24999999999955,"velocity":0.7480314960629921,"duration":0.33749999999997726},{"name":"F#4","midi":66,"time":395.24999999999955,"velocity":0.7480314960629921,"duration":0.33749999999997726},{"name":"B3","midi":59,"time":395.24999999999955,"velocity":0.7480314960629921,"duration":0.33749999999997726},{"name":"F#5","midi":78,"time":395.24999999999955,"velocity":0.7480314960629921,"duration":0.33749999999997726},{"name":"D5","midi":74,"time":395.24999999999955,"velocity":0.7480314960629921,"duration":0.33749999999997726},{"name":"B3","midi":59,"time":395.62499999999955,"velocity":0.7480314960629921,"duration":0.33749999999997726},{"name":"D5","midi":74,"time":395.62499999999955,"velocity":0.7480314960629921,"duration":0.33749999999997726},{"name":"A4","midi":69,"time":395.62499999999955,"velocity":0.7480314960629921,"duration":0.33749999999997726},{"name":"F#4","midi":66,"time":395.62499999999955,"velocity":0.7480314960629921,"duration":0.33749999999997726},{"name":"A4","midi":69,"time":395.99999999999955,"velocity":0.7480314960629921,"duration":0.33749999999997726},{"name":"F#4","midi":66,"time":395.99999999999955,"velocity":0.7480314960629921,"duration":0.33749999999997726},{"name":"B3","midi":59,"time":395.99999999999955,"velocity":0.7480314960629921,"duration":0.33749999999997726},{"name":"D5","midi":74,"time":395.99999999999955,"velocity":0.7480314960629921,"duration":0.33749999999997726},{"name":"F#5","midi":78,"time":396.37499999999955,"velocity":0.7480314960629921,"duration":0.33749999999997726},{"name":"B3","midi":59,"time":396.37499999999955,"velocity":0.7480314960629921,"duration":0.33749999999997726},{"name":"F#4","midi":66,"time":396.37499999999955,"velocity":0.7480314960629921,"duration":0.33749999999997726},{"name":"A4","midi":69,"time":396.37499999999955,"velocity":0.7480314960629921,"duration":0.33749999999997726},{"name":"D5","midi":74,"time":396.37499999999955,"velocity":0.7480314960629921,"duration":0.33749999999997726},{"name":"A4","midi":69,"time":396.74999999999955,"velocity":0.7480314960629921,"duration":0.33749999999997726},{"name":"F#4","midi":66,"time":396.74999999999955,"velocity":0.7480314960629921,"duration":0.33749999999997726},{"name":"B3","midi":59,"time":396.74999999999955,"velocity":0.7480314960629921,"duration":0.33749999999997726},{"name":"F#5","midi":78,"time":396.74999999999955,"velocity":0.7480314960629921,"duration":0.33749999999997726},{"name":"D5","midi":74,"time":396.74999999999955,"velocity":0.7480314960629921,"duration":0.33749999999997726},{"name":"B3","midi":59,"time":397.12499999999955,"velocity":0.7480314960629921,"duration":0.33749999999997726},{"name":"F#4","midi":66,"time":397.12499999999955,"velocity":0.7480314960629921,"duration":0.33749999999997726},{"name":"A4","midi":69,"time":397.12499999999955,"velocity":0.7480314960629921,"duration":0.33749999999997726},{"name":"D5","midi":74,"time":397.12499999999955,"velocity":0.7480314960629921,"duration":0.33749999999997726},{"name":"B3","midi":59,"time":397.49999999999955,"velocity":0.7480314960629921,"duration":0.33749999999997726},{"name":"F#4","midi":66,"time":397.49999999999955,"velocity":0.7480314960629921,"duration":0.33749999999997726},{"name":"A4","midi":69,"time":397.49999999999955,"velocity":0.7480314960629921,"duration":0.33749999999997726},{"name":"D5","midi":74,"time":397.49999999999955,"velocity":0.7480314960629921,"duration":0.33749999999997726},{"name":"F#4","midi":66,"time":397.87499999999955,"velocity":0.7480314960629921,"duration":0.33749999999997726},{"name":"B3","midi":59,"time":397.87499999999955,"velocity":0.7480314960629921,"duration":0.33749999999997726},{"name":"F#5","midi":78,"time":397.87499999999955,"velocity":0.7480314960629921,"duration":0.33749999999997726},{"name":"D5","midi":74,"time":397.87499999999955,"velocity":0.7480314960629921,"duration":0.33749999999997726},{"name":"A4","midi":69,"time":397.87499999999955,"velocity":0.7480314960629921,"duration":0.33749999999997726},{"name":"F#4","midi":66,"time":398.24999999999955,"velocity":0.7480314960629921,"duration":0.33749999999997726},{"name":"A4","midi":69,"time":398.24999999999955,"velocity":0.7480314960629921,"duration":0.33749999999997726},{"name":"D5","midi":74,"time":398.24999999999955,"velocity":0.7480314960629921,"duration":0.33749999999997726},{"name":"F#5","midi":78,"time":398.24999999999955,"velocity":0.7480314960629921,"duration":0.33749999999997726},{"name":"B3","midi":59,"time":398.24999999999955,"velocity":0.7480314960629921,"duration":0.33749999999997726},{"name":"D5","midi":74,"time":398.62499999999955,"velocity":0.7480314960629921,"duration":0.33749999999997726},{"name":"A4","midi":69,"time":398.62499999999955,"velocity":0.7480314960629921,"duration":0.33749999999997726},{"name":"F#4","midi":66,"time":398.62499999999955,"velocity":0.7480314960629921,"duration":0.33749999999997726},{"name":"B3","midi":59,"time":398.62499999999955,"velocity":0.7480314960629921,"duration":0.33749999999997726},{"name":"C#5","midi":73,"time":398.99999999999955,"velocity":0.7480314960629921,"duration":0.33749999999997726},{"name":"D4","midi":62,"time":398.99999999999955,"velocity":0.7480314960629921,"duration":0.33749999999997726},{"name":"A4","midi":69,"time":398.99999999999955,"velocity":0.7480314960629921,"duration":0.33749999999997726},{"name":"D5","midi":74,"time":399.37499999999955,"velocity":0.7480314960629921,"duration":0.33749999999997726},{"name":"C#5","midi":73,"time":399.37499999999955,"velocity":0.7480314960629921,"duration":0.33749999999997726},{"name":"A4","midi":69,"time":399.37499999999955,"velocity":0.7480314960629921,"duration":0.33749999999997726},{"name":"F#5","midi":78,"time":399.37499999999955,"velocity":0.7480314960629921,"duration":0.33749999999997726},{"name":"D4","midi":62,"time":399.37499999999955,"velocity":0.7480314960629921,"duration":0.33749999999997726},{"name":"A4","midi":69,"time":399.74999999999955,"velocity":0.7480314960629921,"duration":0.33749999999997726},{"name":"D4","midi":62,"time":399.74999999999955,"velocity":0.7480314960629921,"duration":0.33749999999997726},{"name":"C#5","midi":73,"time":399.74999999999955,"velocity":0.7480314960629921,"duration":0.33749999999997726},{"name":"F#5","midi":78,"time":399.74999999999955,"velocity":0.7480314960629921,"duration":0.33749999999997726},{"name":"C#5","midi":73,"time":400.12499999999955,"velocity":0.7480314960629921,"duration":0.33749999999997726},{"name":"A4","midi":69,"time":400.12499999999955,"velocity":0.7480314960629921,"duration":0.33749999999997726},{"name":"D4","midi":62,"time":400.12499999999955,"velocity":0.7480314960629921,"duration":0.33749999999997726},{"name":"C#5","midi":73,"time":400.49999999999955,"velocity":0.7480314960629921,"duration":0.33749999999997726},{"name":"A4","midi":69,"time":400.49999999999955,"velocity":0.7480314960629921,"duration":0.33749999999997726},{"name":"D4","midi":62,"time":400.49999999999955,"velocity":0.7480314960629921,"duration":0.33749999999997726},{"name":"C#5","midi":73,"time":400.87499999999955,"velocity":0.7480314960629921,"duration":0.33749999999997726},{"name":"F#5","midi":78,"time":400.87499999999955,"velocity":0.7480314960629921,"duration":0.33749999999997726},{"name":"D4","midi":62,"time":400.87499999999955,"velocity":0.7480314960629921,"duration":0.33749999999997726},{"name":"A4","midi":69,"time":400.87499999999955,"velocity":0.7480314960629921,"duration":0.33749999999997726},{"name":"F#5","midi":78,"time":401.24999999999955,"velocity":0.7480314960629921,"duration":0.33749999999997726},{"name":"C#5","midi":73,"time":401.24999999999955,"velocity":0.7480314960629921,"duration":0.33749999999997726},{"name":"A4","midi":69,"time":401.24999999999955,"velocity":0.7480314960629921,"duration":0.33749999999997726},{"name":"D4","midi":62,"time":401.24999999999955,"velocity":0.7480314960629921,"duration":0.33749999999997726},{"name":"D4","midi":62,"time":401.62499999999955,"velocity":0.7480314960629921,"duration":0.33749999999997726},{"name":"A4","midi":69,"time":401.62499999999955,"velocity":0.7480314960629921,"duration":0.33749999999997726},{"name":"C#5","midi":73,"time":401.62499999999955,"velocity":0.7480314960629921,"duration":0.33749999999997726},{"name":"A4","midi":69,"time":401.99999999999955,"velocity":0.7480314960629921,"duration":0.33749999999997726},{"name":"D4","midi":62,"time":401.99999999999955,"velocity":0.7480314960629921,"duration":0.33749999999997726},{"name":"C#5","midi":73,"time":401.99999999999955,"velocity":0.7480314960629921,"duration":0.33749999999997726},{"name":"F#5","midi":78,"time":402.37499999999955,"velocity":0.7480314960629921,"duration":0.33749999999997726},{"name":"C#5","midi":73,"time":402.37499999999955,"velocity":0.7480314960629921,"duration":0.33749999999997726},{"name":"A4","midi":69,"time":402.37499999999955,"velocity":0.7480314960629921,"duration":0.33749999999997726},{"name":"D4","midi":62,"time":402.37499999999955,"velocity":0.7480314960629921,"duration":0.33749999999997726},{"name":"A4","midi":69,"time":402.74999999999955,"velocity":0.7480314960629921,"duration":0.33749999999997726},{"name":"D4","midi":62,"time":402.74999999999955,"velocity":0.7480314960629921,"duration":0.33749999999997726},{"name":"C#5","midi":73,"time":402.74999999999955,"velocity":0.7480314960629921,"duration":0.33749999999997726},{"name":"F#5","midi":78,"time":402.74999999999955,"velocity":0.7480314960629921,"duration":0.33749999999997726},{"name":"C#5","midi":73,"time":403.12499999999955,"velocity":0.7480314960629921,"duration":0.33749999999997726},{"name":"A4","midi":69,"time":403.12499999999955,"velocity":0.7480314960629921,"duration":0.33749999999997726},{"name":"D4","midi":62,"time":403.12499999999955,"velocity":0.7480314960629921,"duration":0.33749999999997726},{"name":"D4","midi":62,"time":403.49999999999955,"velocity":0.7480314960629921,"duration":0.33749999999997726},{"name":"C#5","midi":73,"time":403.49999999999955,"velocity":0.7480314960629921,"duration":0.33749999999997726},{"name":"A4","midi":69,"time":403.49999999999955,"velocity":0.7480314960629921,"duration":0.33749999999997726},{"name":"C#5","midi":73,"time":403.87499999999955,"velocity":0.7480314960629921,"duration":0.33749999999997726},{"name":"A4","midi":69,"time":403.87499999999955,"velocity":0.7480314960629921,"duration":0.33749999999997726},{"name":"D4","midi":62,"time":403.87499999999955,"velocity":0.7480314960629921,"duration":0.33749999999997726},{"name":"F#5","midi":78,"time":403.87499999999955,"velocity":0.7480314960629921,"duration":0.33749999999997726},{"name":"F#5","midi":78,"time":404.24999999999955,"velocity":0.7480314960629921,"duration":0.33749999999997726},{"name":"C#5","midi":73,"time":404.24999999999955,"velocity":0.7480314960629921,"duration":0.33749999999997726},{"name":"A4","midi":69,"time":404.24999999999955,"velocity":0.7480314960629921,"duration":0.33749999999997726},{"name":"D4","midi":62,"time":404.24999999999955,"velocity":0.7480314960629921,"duration":0.33749999999997726},{"name":"C#5","midi":73,"time":404.62499999999955,"velocity":0.7480314960629921,"duration":0.33749999999997726},{"name":"A4","midi":69,"time":404.62499999999955,"velocity":0.7480314960629921,"duration":0.33749999999997726},{"name":"D4","midi":62,"time":404.62499999999955,"velocity":0.7480314960629921,"duration":0.33749999999997726},{"name":"A3","midi":57,"time":404.99999999999955,"velocity":0.7480314960629921,"duration":0.33749999999997726},{"name":"E4","midi":64,"time":404.99999999999955,"velocity":0.7480314960629921,"duration":0.33749999999997726},{"name":"A4","midi":69,"time":404.99999999999955,"velocity":0.7480314960629921,"duration":0.33749999999997726},{"name":"C#5","midi":73,"time":404.99999999999955,"velocity":0.7480314960629921,"duration":0.33749999999997726},{"name":"F#5","midi":78,"time":404.99999999999955,"velocity":0.7480314960629921,"duration":0.33749999999997726},{"name":"C#5","midi":73,"time":405.37499999999955,"velocity":0.7480314960629921,"duration":0.33749999999997726},{"name":"E4","midi":64,"time":405.37499999999955,"velocity":0.7480314960629921,"duration":0.33749999999997726},{"name":"A3","midi":57,"time":405.37499999999955,"velocity":0.7480314960629921,"duration":0.33749999999997726},{"name":"A4","midi":69,"time":405.37499999999955,"velocity":0.7480314960629921,"duration":0.33749999999997726},{"name":"F#5","midi":78,"time":405.37499999999955,"velocity":0.7480314960629921,"duration":0.33749999999997726},{"name":"E5","midi":76,"time":405.74999999999955,"velocity":0.7480314960629921,"duration":0.5062500000000227},{"name":"A3","midi":57,"time":405.74999999999955,"velocity":0.7480314960629921,"duration":0.5062500000000227},{"name":"E4","midi":64,"time":405.74999999999955,"velocity":0.7480314960629921,"duration":0.5062500000000227},{"name":"A4","midi":69,"time":405.74999999999955,"velocity":0.7480314960629921,"duration":0.5062500000000227},{"name":"C#5","midi":73,"time":405.74999999999955,"velocity":0.7480314960629921,"duration":0.5062500000000227},{"name":"A3","midi":57,"time":406.31249999999955,"velocity":0.7480314960629921,"duration":0.16874999999998863},{"name":"E4","midi":64,"time":406.31249999999955,"velocity":0.7480314960629921,"duration":0.16874999999998863},{"name":"A4","midi":69,"time":406.31249999999955,"velocity":0.7480314960629921,"duration":0.16874999999998863},{"name":"E5","midi":76,"time":406.31249999999955,"velocity":0.7480314960629921,"duration":0.16874999999998863},{"name":"C#5","midi":73,"time":406.31249999999955,"velocity":0.7480314960629921,"duration":0.16874999999998863},{"name":"E4","midi":64,"time":406.49999999999955,"velocity":0.7480314960629921,"duration":0.33749999999997726},{"name":"C#5","midi":73,"time":406.49999999999955,"velocity":0.7480314960629921,"duration":0.33749999999997726},{"name":"F#5","midi":78,"time":406.49999999999955,"velocity":0.7480314960629921,"duration":0.33749999999997726},{"name":"A3","midi":57,"time":406.49999999999955,"velocity":0.7480314960629921,"duration":0.33749999999997726},{"name":"A4","midi":69,"time":406.49999999999955,"velocity":0.7480314960629921,"duration":0.33749999999997726},{"name":"E4","midi":64,"time":406.87499999999955,"velocity":0.7480314960629921,"duration":0.33749999999997726},{"name":"A4","midi":69,"time":406.87499999999955,"velocity":0.7480314960629921,"duration":0.33749999999997726},{"name":"C#5","midi":73,"time":406.87499999999955,"velocity":0.7480314960629921,"duration":0.33749999999997726},{"name":"F#5","midi":78,"time":406.87499999999955,"velocity":0.7480314960629921,"duration":0.33749999999997726},{"name":"A3","midi":57,"time":406.87499999999955,"velocity":0.7480314960629921,"duration":0.33749999999997726},{"name":"E4","midi":64,"time":407.24999999999955,"velocity":0.7480314960629921,"duration":0.5062500000000227},{"name":"A4","midi":69,"time":407.24999999999955,"velocity":0.7480314960629921,"duration":0.5062500000000227},{"name":"C#5","midi":73,"time":407.24999999999955,"velocity":0.7480314960629921,"duration":0.5062500000000227},{"name":"A3","midi":57,"time":407.24999999999955,"velocity":0.7480314960629921,"duration":0.5062500000000227},{"name":"E5","midi":76,"time":407.24999999999955,"velocity":0.7480314960629921,"duration":0.5062500000000227},{"name":"E4","midi":64,"time":407.81249999999955,"velocity":0.7480314960629921,"duration":0.16874999999998863},{"name":"C#5","midi":73,"time":407.81249999999955,"velocity":0.7480314960629921,"duration":0.16874999999998863},{"name":"E5","midi":76,"time":407.81249999999955,"velocity":0.7480314960629921,"duration":0.16874999999998863},{"name":"A4","midi":69,"time":407.81249999999955,"velocity":0.7480314960629921,"duration":0.16874999999998863},{"name":"A3","midi":57,"time":407.81249999999955,"velocity":0.7480314960629921,"duration":0.16874999999998863},{"name":"F#5","midi":78,"time":407.99999999999955,"velocity":0.7480314960629921,"duration":0.33749999999997726},{"name":"C#5","midi":73,"time":407.99999999999955,"velocity":0.7480314960629921,"duration":0.33749999999997726},{"name":"A4","midi":69,"time":407.99999999999955,"velocity":0.7480314960629921,"duration":0.33749999999997726},{"name":"E4","midi":64,"time":407.99999999999955,"velocity":0.7480314960629921,"duration":0.33749999999997726},{"name":"A3","midi":57,"time":407.99999999999955,"velocity":0.7480314960629921,"duration":0.33749999999997726},{"name":"E4","midi":64,"time":408.37499999999955,"velocity":0.7480314960629921,"duration":0.33749999999997726},{"name":"A4","midi":69,"time":408.37499999999955,"velocity":0.7480314960629921,"duration":0.33749999999997726},{"name":"C#5","midi":73,"time":408.37499999999955,"velocity":0.7480314960629921,"duration":0.33749999999997726},{"name":"F#5","midi":78,"time":408.37499999999955,"velocity":0.7480314960629921,"duration":0.33749999999997726},{"name":"A3","midi":57,"time":408.37499999999955,"velocity":0.7480314960629921,"duration":0.33749999999997726},{"name":"A3","midi":57,"time":408.74999999999955,"velocity":0.7480314960629921,"duration":0.5062500000000227},{"name":"E5","midi":76,"time":408.74999999999955,"velocity":0.7480314960629921,"duration":0.5062500000000227},{"name":"A4","midi":69,"time":408.74999999999955,"velocity":0.7480314960629921,"duration":0.5062500000000227},{"name":"E4","midi":64,"time":408.74999999999955,"velocity":0.7480314960629921,"duration":0.5062500000000227},{"name":"C#5","midi":73,"time":408.74999999999955,"velocity":0.7480314960629921,"duration":0.5062500000000227},{"name":"E5","midi":76,"time":409.31249999999955,"velocity":0.7480314960629921,"duration":0.16874999999998863},{"name":"C#5","midi":73,"time":409.31249999999955,"velocity":0.7480314960629921,"duration":0.16874999999998863},{"name":"A4","midi":69,"time":409.31249999999955,"velocity":0.7480314960629921,"duration":0.16874999999998863},{"name":"E4","midi":64,"time":409.31249999999955,"velocity":0.7480314960629921,"duration":0.16874999999998863},{"name":"A3","midi":57,"time":409.31249999999955,"velocity":0.7480314960629921,"duration":0.16874999999998863},{"name":"A4","midi":69,"time":409.49999999999955,"velocity":0.7480314960629921,"duration":0.33749999999997726},{"name":"F#5","midi":78,"time":409.49999999999955,"velocity":0.7480314960629921,"duration":0.33749999999997726},{"name":"C#5","midi":73,"time":409.49999999999955,"velocity":0.7480314960629921,"duration":0.33749999999997726},{"name":"E4","midi":64,"time":409.49999999999955,"velocity":0.7480314960629921,"duration":0.33749999999997726},{"name":"A3","midi":57,"time":409.49999999999955,"velocity":0.7480314960629921,"duration":0.33749999999997726},{"name":"F#5","midi":78,"time":409.87499999999955,"velocity":0.7480314960629921,"duration":0.33749999999997726},{"name":"C#5","midi":73,"time":409.87499999999955,"velocity":0.7480314960629921,"duration":0.33749999999997726},{"name":"E4","midi":64,"time":409.87499999999955,"velocity":0.7480314960629921,"duration":0.33749999999997726},{"name":"A3","midi":57,"time":409.87499999999955,"velocity":0.7480314960629921,"duration":0.33749999999997726},{"name":"A4","midi":69,"time":409.87499999999955,"velocity":0.7480314960629921,"duration":0.33749999999997726},{"name":"A4","midi":69,"time":410.24999999999955,"velocity":0.7480314960629921,"duration":0.5062500000000227},{"name":"A3","midi":57,"time":410.24999999999955,"velocity":0.7480314960629921,"duration":0.5062500000000227},{"name":"C#5","midi":73,"time":410.24999999999955,"velocity":0.7480314960629921,"duration":0.5062500000000227},{"name":"E5","midi":76,"time":410.24999999999955,"velocity":0.7480314960629921,"duration":0.5062500000000227},{"name":"E4","midi":64,"time":410.24999999999955,"velocity":0.7480314960629921,"duration":0.5062500000000227},{"name":"E5","midi":76,"time":410.81249999999955,"velocity":0.7480314960629921,"duration":0.16874999999998863},{"name":"C#5","midi":73,"time":410.81249999999955,"velocity":0.7480314960629921,"duration":0.16874999999998863},{"name":"E4","midi":64,"time":410.81249999999955,"velocity":0.7480314960629921,"duration":0.16874999999998863},{"name":"A3","midi":57,"time":410.81249999999955,"velocity":0.7480314960629921,"duration":0.16874999999998863},{"name":"A4","midi":69,"time":410.81249999999955,"velocity":0.7480314960629921,"duration":0.16874999999998863},{"name":"D5","midi":74,"time":410.99999999999955,"velocity":0.7480314960629921,"duration":0.33749999999997726},{"name":"A4","midi":69,"time":410.99999999999955,"velocity":0.7480314960629921,"duration":0.33749999999997726},{"name":"D4","midi":62,"time":410.99999999999955,"velocity":0.7480314960629921,"duration":0.33749999999997726},{"name":"F#5","midi":78,"time":410.99999999999955,"velocity":0.7480314960629921,"duration":0.33749999999997726},{"name":"D4","midi":62,"time":411.37499999999955,"velocity":0.7480314960629921,"duration":0.33749999999997726},{"name":"F#5","midi":78,"time":411.37499999999955,"velocity":0.7480314960629921,"duration":0.33749999999997726},{"name":"D5","midi":74,"time":411.37499999999955,"velocity":0.7480314960629921,"duration":0.33749999999997726},{"name":"A4","midi":69,"time":411.37499999999955,"velocity":0.7480314960629921,"duration":0.33749999999997726},{"name":"D4","midi":62,"time":411.74999999999955,"velocity":0.7480314960629921,"duration":0.5062500000000227},{"name":"D5","midi":74,"time":411.74999999999955,"velocity":0.7480314960629921,"duration":0.5062500000000227},{"name":"E5","midi":76,"time":411.74999999999955,"velocity":0.7480314960629921,"duration":0.5062500000000227},{"name":"A4","midi":69,"time":411.74999999999955,"velocity":0.7480314960629921,"duration":0.5062500000000227},{"name":"E5","midi":76,"time":412.31249999999955,"velocity":0.7480314960629921,"duration":0.16874999999998863},{"name":"A4","midi":69,"time":412.31249999999955,"velocity":0.7480314960629921,"duration":0.16874999999998863},{"name":"D4","midi":62,"time":412.31249999999955,"velocity":0.7480314960629921,"duration":0.16874999999998863},{"name":"D5","midi":74,"time":412.31249999999955,"velocity":0.7480314960629921,"duration":0.16874999999998863},{"name":"D4","midi":62,"time":412.49999999999955,"velocity":0.7480314960629921,"duration":0.33749999999997726},{"name":"A4","midi":69,"time":412.49999999999955,"velocity":0.7480314960629921,"duration":0.33749999999997726},{"name":"F#5","midi":78,"time":412.49999999999955,"velocity":0.7480314960629921,"duration":0.33749999999997726},{"name":"D5","midi":74,"time":412.49999999999955,"velocity":0.7480314960629921,"duration":0.33749999999997726},{"name":"A4","midi":69,"time":412.87499999999955,"velocity":0.7480314960629921,"duration":0.33749999999997726},{"name":"D5","midi":74,"time":412.87499999999955,"velocity":0.7480314960629921,"duration":0.33749999999997726},{"name":"F#5","midi":78,"time":412.87499999999955,"velocity":0.7480314960629921,"duration":0.33749999999997726},{"name":"D4","midi":62,"time":412.87499999999955,"velocity":0.7480314960629921,"duration":0.33749999999997726},{"name":"A4","midi":69,"time":413.24999999999955,"velocity":0.7480314960629921,"duration":0.5062500000000227},{"name":"D4","midi":62,"time":413.24999999999955,"velocity":0.7480314960629921,"duration":0.5062500000000227},{"name":"E5","midi":76,"time":413.24999999999955,"velocity":0.7480314960629921,"duration":0.5062500000000227},{"name":"D5","midi":74,"time":413.24999999999955,"velocity":0.7480314960629921,"duration":0.5062500000000227},{"name":"D5","midi":74,"time":413.81249999999955,"velocity":0.7480314960629921,"duration":0.16874999999998863},{"name":"E5","midi":76,"time":413.81249999999955,"velocity":0.7480314960629921,"duration":0.16874999999998863},{"name":"D4","midi":62,"time":413.81249999999955,"velocity":0.7480314960629921,"duration":0.16874999999998863},{"name":"A4","midi":69,"time":413.81249999999955,"velocity":0.7480314960629921,"duration":0.16874999999998863},{"name":"D4","midi":62,"time":413.99999999999955,"velocity":0.7480314960629921,"duration":0.33749999999997726},{"name":"E5","midi":76,"time":413.99999999999955,"velocity":0.7480314960629921,"duration":0.33749999999997726},{"name":"D5","midi":74,"time":413.99999999999955,"velocity":0.7480314960629921,"duration":0.33749999999997726},{"name":"A4","midi":69,"time":413.99999999999955,"velocity":0.7480314960629921,"duration":0.33749999999997726},{"name":"D4","midi":62,"time":414.37499999999955,"velocity":0.7480314960629921,"duration":0.33749999999997726},{"name":"A4","midi":69,"time":414.37499999999955,"velocity":0.7480314960629921,"duration":0.33749999999997726},{"name":"D5","midi":74,"time":414.37499999999955,"velocity":0.7480314960629921,"duration":0.33749999999997726},{"name":"E5","midi":76,"time":414.37499999999955,"velocity":0.7480314960629921,"duration":0.33749999999997726},{"name":"D4","midi":62,"time":414.74999999999955,"velocity":0.7480314960629921,"duration":0.5062500000000227},{"name":"A4","midi":69,"time":414.74999999999955,"velocity":0.7480314960629921,"duration":0.5062500000000227},{"name":"D5","midi":74,"time":414.74999999999955,"velocity":0.7480314960629921,"duration":0.5062500000000227},{"name":"E5","midi":76,"time":414.74999999999955,"velocity":0.7480314960629921,"duration":0.5062500000000227},{"name":"D5","midi":74,"time":415.31249999999955,"velocity":0.7480314960629921,"duration":0.16874999999998863},{"name":"A4","midi":69,"time":415.31249999999955,"velocity":0.7480314960629921,"duration":0.16874999999998863},{"name":"D4","midi":62,"time":415.31249999999955,"velocity":0.7480314960629921,"duration":0.16874999999998863},{"name":"E5","midi":76,"time":415.31249999999955,"velocity":0.7480314960629921,"duration":0.16874999999998863},{"name":"D5","midi":74,"time":415.49999999999955,"velocity":0.7480314960629921,"duration":0.33749999999997726},{"name":"A4","midi":69,"time":415.49999999999955,"velocity":0.7480314960629921,"duration":0.33749999999997726},{"name":"D4","midi":62,"time":415.49999999999955,"velocity":0.7480314960629921,"duration":0.33749999999997726},{"name":"F#5","midi":78,"time":415.49999999999955,"velocity":0.7480314960629921,"duration":0.33749999999997726},{"name":"D4","midi":62,"time":415.87499999999955,"velocity":0.7480314960629921,"duration":0.33749999999997726},{"name":"F#5","midi":78,"time":415.87499999999955,"velocity":0.7480314960629921,"duration":0.33749999999997726},{"name":"D5","midi":74,"time":415.87499999999955,"velocity":0.7480314960629921,"duration":0.33749999999997726},{"name":"A4","midi":69,"time":415.87499999999955,"velocity":0.7480314960629921,"duration":0.33749999999997726},{"name":"D5","midi":74,"time":416.24999999999955,"velocity":0.7480314960629921,"duration":0.5062500000000227},{"name":"A4","midi":69,"time":416.24999999999955,"velocity":0.7480314960629921,"duration":0.5062500000000227},{"name":"D4","midi":62,"time":416.24999999999955,"velocity":0.7480314960629921,"duration":0.5062500000000227},{"name":"E5","midi":76,"time":416.24999999999955,"velocity":0.7480314960629921,"duration":0.5062500000000227},{"name":"D4","midi":62,"time":416.81249999999955,"velocity":0.7480314960629921,"duration":0.16874999999998863},{"name":"D5","midi":74,"time":416.81249999999955,"velocity":0.7480314960629921,"duration":0.16874999999998863},{"name":"E5","midi":76,"time":416.81249999999955,"velocity":0.7480314960629921,"duration":0.16874999999998863},{"name":"A4","midi":69,"time":416.81249999999955,"velocity":0.7480314960629921,"duration":0.16874999999998863},{"name":"B3","midi":59,"time":416.99999999999955,"velocity":0.7480314960629921,"duration":0.33749999999997726},{"name":"F#4","midi":66,"time":416.99999999999955,"velocity":0.7480314960629921,"duration":0.33749999999997726},{"name":"B4","midi":71,"time":416.99999999999955,"velocity":0.7480314960629921,"duration":0.33749999999997726},{"name":"D5","midi":74,"time":416.99999999999955,"velocity":0.7480314960629921,"duration":0.33749999999997726},{"name":"F#5","midi":78,"time":416.99999999999955,"velocity":0.7480314960629921,"duration":0.33749999999997726},{"name":"F#4","midi":66,"time":417.37499999999955,"velocity":0.7480314960629921,"duration":0.33749999999997726},{"name":"B4","midi":71,"time":417.37499999999955,"velocity":0.7480314960629921,"duration":0.33749999999997726},{"name":"D5","midi":74,"time":417.37499999999955,"velocity":0.7480314960629921,"duration":0.33749999999997726},{"name":"B3","midi":59,"time":417.37499999999955,"velocity":0.7480314960629921,"duration":0.33749999999997726},{"name":"F#5","midi":78,"time":417.37499999999955,"velocity":0.7480314960629921,"duration":0.33749999999997726},{"name":"E5","midi":76,"time":417.74999999999955,"velocity":0.7480314960629921,"duration":0.5062500000000227},{"name":"D5","midi":74,"time":417.74999999999955,"velocity":0.7480314960629921,"duration":0.5062500000000227},{"name":"B4","midi":71,"time":417.74999999999955,"velocity":0.7480314960629921,"duration":0.5062500000000227},{"name":"F#4","midi":66,"time":417.74999999999955,"velocity":0.7480314960629921,"duration":0.5062500000000227},{"name":"B3","midi":59,"time":417.74999999999955,"velocity":0.7480314960629921,"duration":0.5062500000000227},{"name":"E5","midi":76,"time":418.31249999999955,"velocity":0.7480314960629921,"duration":0.16874999999998863},{"name":"D5","midi":74,"time":418.31249999999955,"velocity":0.7480314960629921,"duration":0.16874999999998863},{"name":"B4","midi":71,"time":418.31249999999955,"velocity":0.7480314960629921,"duration":0.16874999999998863},{"name":"F#4","midi":66,"time":418.31249999999955,"velocity":0.7480314960629921,"duration":0.16874999999998863},{"name":"B3","midi":59,"time":418.31249999999955,"velocity":0.7480314960629921,"duration":0.16874999999998863},{"name":"F#4","midi":66,"time":418.49999999999955,"velocity":0.7480314960629921,"duration":0.33749999999997726},{"name":"B4","midi":71,"time":418.49999999999955,"velocity":0.7480314960629921,"duration":0.33749999999997726},{"name":"D5","midi":74,"time":418.49999999999955,"velocity":0.7480314960629921,"duration":0.33749999999997726},{"name":"F#5","midi":78,"time":418.49999999999955,"velocity":0.7480314960629921,"duration":0.33749999999997726},{"name":"B3","midi":59,"time":418.49999999999955,"velocity":0.7480314960629921,"duration":0.33749999999997726},{"name":"B3","midi":59,"time":418.87499999999955,"velocity":0.7480314960629921,"duration":0.33749999999997726},{"name":"F#4","midi":66,"time":418.87499999999955,"velocity":0.7480314960629921,"duration":0.33749999999997726},{"name":"B4","midi":71,"time":418.87499999999955,"velocity":0.7480314960629921,"duration":0.33749999999997726},{"name":"D5","midi":74,"time":418.87499999999955,"velocity":0.7480314960629921,"duration":0.33749999999997726},{"name":"F#5","midi":78,"time":418.87499999999955,"velocity":0.7480314960629921,"duration":0.33749999999997726},{"name":"F#4","midi":66,"time":419.24999999999955,"velocity":0.7480314960629921,"duration":0.5062500000000227},{"name":"B3","midi":59,"time":419.24999999999955,"velocity":0.7480314960629921,"duration":0.5062500000000227},{"name":"B4","midi":71,"time":419.24999999999955,"velocity":0.7480314960629921,"duration":0.5062500000000227},{"name":"D5","midi":74,"time":419.24999999999955,"velocity":0.7480314960629921,"duration":0.5062500000000227},{"name":"E5","midi":76,"time":419.24999999999955,"velocity":0.7480314960629921,"duration":0.5062500000000227},{"name":"D5","midi":74,"time":419.81249999999955,"velocity":0.7480314960629921,"duration":0.16874999999998863},{"name":"B4","midi":71,"time":419.81249999999955,"velocity":0.7480314960629921,"duration":0.16874999999998863},{"name":"E5","midi":76,"time":419.81249999999955,"velocity":0.7480314960629921,"duration":0.16874999999998863},{"name":"F#4","midi":66,"time":419.81249999999955,"velocity":0.7480314960629921,"duration":0.16874999999998863},{"name":"B3","midi":59,"time":419.81249999999955,"velocity":0.7480314960629921,"duration":0.16874999999998863},{"name":"B4","midi":71,"time":419.99999999999955,"velocity":0.7480314960629921,"duration":0.33749999999997726},{"name":"C#4","midi":61,"time":419.99999999999955,"velocity":0.7480314960629921,"duration":0.33749999999997726},{"name":"F#5","midi":78,"time":419.99999999999955,"velocity":0.7480314960629921,"duration":0.33749999999997726},{"name":"G#4","midi":68,"time":419.99999999999955,"velocity":0.7480314960629921,"duration":0.33749999999997726},{"name":"C#4","midi":61,"time":420.37499999999955,"velocity":0.7480314960629921,"duration":0.33749999999997726},{"name":"G#4","midi":68,"time":420.37499999999955,"velocity":0.7480314960629921,"duration":0.33749999999997726},{"name":"B4","midi":71,"time":420.37499999999955,"velocity":0.7480314960629921,"duration":0.33749999999997726},{"name":"F#5","midi":78,"time":420.37499999999955,"velocity":0.7480314960629921,"duration":0.33749999999997726},{"name":"G#4","midi":68,"time":420.74999999999955,"velocity":0.7480314960629921,"duration":0.5062500000000227},{"name":"B4","midi":71,"time":420.74999999999955,"velocity":0.7480314960629921,"duration":0.5062500000000227},{"name":"E5","midi":76,"time":420.74999999999955,"velocity":0.7480314960629921,"duration":0.5062500000000227},{"name":"C#4","midi":61,"time":420.74999999999955,"velocity":0.7480314960629921,"duration":0.5062500000000227},{"name":"E5","midi":76,"time":421.31249999999955,"velocity":0.7480314960629921,"duration":0.16874999999998863},{"name":"B4","midi":71,"time":421.31249999999955,"velocity":0.7480314960629921,"duration":0.16874999999998863},{"name":"G#4","midi":68,"time":421.31249999999955,"velocity":0.7480314960629921,"duration":0.16874999999998863},{"name":"C#4","midi":61,"time":421.31249999999955,"velocity":0.7480314960629921,"duration":0.16874999999998863},{"name":"F#5","midi":78,"time":421.49999999999955,"velocity":0.7480314960629921,"duration":0.33749999999997726},{"name":"B4","midi":71,"time":421.49999999999955,"velocity":0.7480314960629921,"duration":0.33749999999997726},{"name":"G#4","midi":68,"time":421.49999999999955,"velocity":0.7480314960629921,"duration":0.33749999999997726},{"name":"C#4","midi":61,"time":421.49999999999955,"velocity":0.7480314960629921,"duration":0.33749999999997726},{"name":"C#4","midi":61,"time":421.87499999999955,"velocity":0.7480314960629921,"duration":0.33749999999997726},{"name":"G#4","midi":68,"time":421.87499999999955,"velocity":0.7480314960629921,"duration":0.33749999999997726},{"name":"B4","midi":71,"time":421.87499999999955,"velocity":0.7480314960629921,"duration":0.33749999999997726},{"name":"F#5","midi":78,"time":421.87499999999955,"velocity":0.7480314960629921,"duration":0.33749999999997726},{"name":"B4","midi":71,"time":422.24999999999955,"velocity":0.7480314960629921,"duration":0.5062500000000227},{"name":"E5","midi":76,"time":422.24999999999955,"velocity":0.7480314960629921,"duration":0.5062500000000227},{"name":"C#4","midi":61,"time":422.24999999999955,"velocity":0.7480314960629921,"duration":0.5062500000000227},{"name":"G#4","midi":68,"time":422.24999999999955,"velocity":0.7480314960629921,"duration":0.5062500000000227},{"name":"C#4","midi":61,"time":422.81249999999955,"velocity":0.7480314960629921,"duration":0.16874999999998863},{"name":"G#4","midi":68,"time":422.81249999999955,"velocity":0.7480314960629921,"duration":0.16874999999998863},{"name":"B4","midi":71,"time":422.81249999999955,"velocity":0.7480314960629921,"duration":0.16874999999998863},{"name":"E5","midi":76,"time":422.81249999999955,"velocity":0.7480314960629921,"duration":0.16874999999998863},{"name":"A4","midi":69,"time":422.99999999999955,"velocity":0.7480314960629921,"duration":0.33749999999997726},{"name":"D4","midi":62,"time":422.99999999999955,"velocity":0.7480314960629921,"duration":0.33749999999997726},{"name":"D5","midi":74,"time":422.99999999999955,"velocity":0.7480314960629921,"duration":0.33749999999997726},{"name":"F#5","midi":78,"time":422.99999999999955,"velocity":0.7480314960629921,"duration":0.33749999999997726},{"name":"A5","midi":81,"time":422.99999999999955,"velocity":0.7480314960629921,"duration":0.33749999999997726},{"name":"F#5","midi":78,"time":423.37499999999955,"velocity":0.7480314960629921,"duration":0.33749999999997726},{"name":"D5","midi":74,"time":423.37499999999955,"velocity":0.7480314960629921,"duration":0.33749999999997726},{"name":"A4","midi":69,"time":423.37499999999955,"velocity":0.7480314960629921,"duration":0.33749999999997726},{"name":"D4","midi":62,"time":423.37499999999955,"velocity":0.7480314960629921,"duration":0.33749999999997726},{"name":"A5","midi":81,"time":423.37499999999955,"velocity":0.7480314960629921,"duration":0.33749999999997726},{"name":"F#5","midi":78,"time":423.74999999999955,"velocity":0.7480314960629921,"duration":0.5062500000000227},{"name":"A5","midi":81,"time":423.74999999999955,"velocity":0.7480314960629921,"duration":0.5062500000000227},{"name":"A4","midi":69,"time":423.74999999999955,"velocity":0.7480314960629921,"duration":0.5062500000000227},{"name":"D4","midi":62,"time":423.74999999999955,"velocity":0.7480314960629921,"duration":0.5062500000000227},{"name":"D5","midi":74,"time":423.74999999999955,"velocity":0.7480314960629921,"duration":0.5062500000000227},{"name":"D4","midi":62,"time":424.31249999999955,"velocity":0.7480314960629921,"duration":0.16874999999998863},{"name":"A4","midi":69,"time":424.31249999999955,"velocity":0.7480314960629921,"duration":0.16874999999998863},{"name":"D5","midi":74,"time":424.31249999999955,"velocity":0.7480314960629921,"duration":0.16874999999998863},{"name":"F#5","midi":78,"time":424.31249999999955,"velocity":0.7480314960629921,"duration":0.16874999999998863},{"name":"A5","midi":81,"time":424.31249999999955,"velocity":0.7480314960629921,"duration":0.16874999999998863},{"name":"A4","midi":69,"time":424.49999999999955,"velocity":0.7480314960629921,"duration":0.33749999999997726},{"name":"D5","midi":74,"time":424.49999999999955,"velocity":0.7480314960629921,"duration":0.33749999999997726},{"name":"F#5","midi":78,"time":424.49999999999955,"velocity":0.7480314960629921,"duration":0.33749999999997726},{"name":"A5","midi":81,"time":424.49999999999955,"velocity":0.7480314960629921,"duration":0.33749999999997726},{"name":"D4","midi":62,"time":424.49999999999955,"velocity":0.7480314960629921,"duration":0.33749999999997726},{"name":"A4","midi":69,"time":424.87499999999955,"velocity":0.7480314960629921,"duration":0.33749999999997726},{"name":"D4","midi":62,"time":424.87499999999955,"velocity":0.7480314960629921,"duration":0.33749999999997726},{"name":"D5","midi":74,"time":424.87499999999955,"velocity":0.7480314960629921,"duration":0.33749999999997726},{"name":"F#5","midi":78,"time":424.87499999999955,"velocity":0.7480314960629921,"duration":0.33749999999997726},{"name":"A5","midi":81,"time":424.87499999999955,"velocity":0.7480314960629921,"duration":0.33749999999997726},{"name":"D4","midi":62,"time":425.24999999999955,"velocity":0.7480314960629921,"duration":0.5062500000000227},{"name":"A4","midi":69,"time":425.24999999999955,"velocity":0.7480314960629921,"duration":0.5062500000000227},{"name":"D5","midi":74,"time":425.24999999999955,"velocity":0.7480314960629921,"duration":0.5062500000000227},{"name":"F#5","midi":78,"time":425.24999999999955,"velocity":0.7480314960629921,"duration":0.5062500000000227},{"name":"A5","midi":81,"time":425.24999999999955,"velocity":0.7480314960629921,"duration":0.5062500000000227},{"name":"F#5","midi":78,"time":425.81249999999955,"velocity":0.7480314960629921,"duration":0.16874999999998863},{"name":"D5","midi":74,"time":425.81249999999955,"velocity":0.7480314960629921,"duration":0.16874999999998863},{"name":"A4","midi":69,"time":425.81249999999955,"velocity":0.7480314960629921,"duration":0.16874999999998863},{"name":"A5","midi":81,"time":425.81249999999955,"velocity":0.7480314960629921,"duration":0.16874999999998863},{"name":"D4","midi":62,"time":425.81249999999955,"velocity":0.7480314960629921,"duration":0.16874999999998863},{"name":"A4","midi":69,"time":425.99999999999955,"velocity":0.7480314960629921,"duration":0.33749999999997726},{"name":"A5","midi":81,"time":425.99999999999955,"velocity":0.7480314960629921,"duration":0.33749999999997726},{"name":"F#5","midi":78,"time":425.99999999999955,"velocity":0.7480314960629921,"duration":0.33749999999997726},{"name":"D5","midi":74,"time":425.99999999999955,"velocity":0.7480314960629921,"duration":0.33749999999997726},{"name":"D4","midi":62,"time":425.99999999999955,"velocity":0.7480314960629921,"duration":0.33749999999997726},{"name":"D4","midi":62,"time":426.37499999999955,"velocity":0.7480314960629921,"duration":0.33749999999997726},{"name":"A4","midi":69,"time":426.37499999999955,"velocity":0.7480314960629921,"duration":0.33749999999997726},{"name":"D5","midi":74,"time":426.37499999999955,"velocity":0.7480314960629921,"duration":0.33749999999997726},{"name":"F#5","midi":78,"time":426.37499999999955,"velocity":0.7480314960629921,"duration":0.33749999999997726},{"name":"A5","midi":81,"time":426.37499999999955,"velocity":0.7480314960629921,"duration":0.33749999999997726},{"name":"F#5","midi":78,"time":426.74999999999955,"velocity":0.7480314960629921,"duration":0.5062500000000227},{"name":"D4","midi":62,"time":426.74999999999955,"velocity":0.7480314960629921,"duration":0.5062500000000227},{"name":"A4","midi":69,"time":426.74999999999955,"velocity":0.7480314960629921,"duration":0.5062500000000227},{"name":"D5","midi":74,"time":426.74999999999955,"velocity":0.7480314960629921,"duration":0.5062500000000227},{"name":"A5","midi":81,"time":426.74999999999955,"velocity":0.7480314960629921,"duration":0.5062500000000227},{"name":"F#5","midi":78,"time":427.31249999999955,"velocity":0.7480314960629921,"duration":0.16874999999998863},{"name":"D5","midi":74,"time":427.31249999999955,"velocity":0.7480314960629921,"duration":0.16874999999998863},{"name":"A4","midi":69,"time":427.31249999999955,"velocity":0.7480314960629921,"duration":0.16874999999998863},{"name":"D4","midi":62,"time":427.31249999999955,"velocity":0.7480314960629921,"duration":0.16874999999998863},{"name":"A5","midi":81,"time":427.31249999999955,"velocity":0.7480314960629921,"duration":0.16874999999998863},{"name":"F#5","midi":78,"time":427.49999999999955,"velocity":0.7480314960629921,"duration":0.33749999999997726},{"name":"A5","midi":81,"time":427.49999999999955,"velocity":0.7480314960629921,"duration":0.33749999999997726},{"name":"D5","midi":74,"time":427.49999999999955,"velocity":0.7480314960629921,"duration":0.33749999999997726},{"name":"A4","midi":69,"time":427.49999999999955,"velocity":0.7480314960629921,"duration":0.33749999999997726},{"name":"D4","midi":62,"time":427.49999999999955,"velocity":0.7480314960629921,"duration":0.33749999999997726},{"name":"D5","midi":74,"time":427.87499999999955,"velocity":0.7480314960629921,"duration":0.33749999999997726},{"name":"A4","midi":69,"time":427.87499999999955,"velocity":0.7480314960629921,"duration":0.33749999999997726},{"name":"D4","midi":62,"time":427.87499999999955,"velocity":0.7480314960629921,"duration":0.33749999999997726},{"name":"A5","midi":81,"time":427.87499999999955,"velocity":0.7480314960629921,"duration":0.33749999999997726},{"name":"F#5","midi":78,"time":427.87499999999955,"velocity":0.7480314960629921,"duration":0.33749999999997726},{"name":"D4","midi":62,"time":428.24999999999955,"velocity":0.7480314960629921,"duration":0.5062500000000227},{"name":"A5","midi":81,"time":428.24999999999955,"velocity":0.7480314960629921,"duration":0.5062500000000227},{"name":"A4","midi":69,"time":428.24999999999955,"velocity":0.7480314960629921,"duration":0.5062500000000227},{"name":"D5","midi":74,"time":428.24999999999955,"velocity":0.7480314960629921,"duration":0.5062500000000227},{"name":"F#5","midi":78,"time":428.24999999999955,"velocity":0.7480314960629921,"duration":0.5062500000000227},{"name":"A4","midi":69,"time":428.81249999999955,"velocity":0.7480314960629921,"duration":0.16874999999998863},{"name":"A5","midi":81,"time":428.81249999999955,"velocity":0.7480314960629921,"duration":0.16874999999998863},{"name":"D4","midi":62,"time":428.81249999999955,"velocity":0.7480314960629921,"duration":0.16874999999998863},{"name":"D5","midi":74,"time":428.81249999999955,"velocity":0.7480314960629921,"duration":0.16874999999998863},{"name":"F#5","midi":78,"time":428.81249999999955,"velocity":0.7480314960629921,"duration":0.16874999999998863},{"name":"A3","midi":57,"time":428.99999999999955,"velocity":0.7480314960629921,"duration":0.33749999999997726},{"name":"E4","midi":64,"time":428.99999999999955,"velocity":0.7480314960629921,"duration":0.33749999999997726},{"name":"A4","midi":69,"time":428.99999999999955,"velocity":0.7480314960629921,"duration":0.33749999999997726},{"name":"C#5","midi":73,"time":428.99999999999955,"velocity":0.7480314960629921,"duration":0.33749999999997726},{"name":"A3","midi":57,"time":429.37499999999955,"velocity":0.7480314960629921,"duration":0.33749999999997726},{"name":"E4","midi":64,"time":429.37499999999955,"velocity":0.7480314960629921,"duration":0.33749999999997726},{"name":"A4","midi":69,"time":429.37499999999955,"velocity":0.7480314960629921,"duration":0.33749999999997726},{"name":"C#5","midi":73,"time":429.37499999999955,"velocity":0.7480314960629921,"duration":0.33749999999997726},{"name":"E4","midi":64,"time":429.74999999999955,"velocity":0.7480314960629921,"duration":0.33749999999997726},{"name":"A3","midi":57,"time":429.74999999999955,"velocity":0.7480314960629921,"duration":0.33749999999997726},{"name":"A5","midi":81,"time":429.74999999999955,"velocity":0.7480314960629921,"duration":0.33749999999997726},{"name":"E5","midi":76,"time":429.74999999999955,"velocity":0.7480314960629921,"duration":0.33749999999997726},{"name":"C#5","midi":73,"time":429.74999999999955,"velocity":0.7480314960629921,"duration":0.33749999999997726},{"name":"A4","midi":69,"time":429.74999999999955,"velocity":0.7480314960629921,"duration":0.33749999999997726},{"name":"A3","midi":57,"time":430.12499999999955,"velocity":0.7480314960629921,"duration":0.33749999999997726},{"name":"E4","midi":64,"time":430.12499999999955,"velocity":0.7480314960629921,"duration":0.33749999999997726},{"name":"A4","midi":69,"time":430.12499999999955,"velocity":0.7480314960629921,"duration":0.33749999999997726},{"name":"C#5","midi":73,"time":430.12499999999955,"velocity":0.7480314960629921,"duration":0.33749999999997726},{"name":"C#5","midi":73,"time":430.49999999999955,"velocity":0.7480314960629921,"duration":0.33749999999997726},{"name":"A3","midi":57,"time":430.49999999999955,"velocity":0.7480314960629921,"duration":0.33749999999997726},{"name":"E4","midi":64,"time":430.49999999999955,"velocity":0.7480314960629921,"duration":0.33749999999997726},{"name":"A4","midi":69,"time":430.49999999999955,"velocity":0.7480314960629921,"duration":0.33749999999997726},{"name":"A5","midi":81,"time":430.87499999999955,"velocity":0.7480314960629921,"duration":0.33749999999997726},{"name":"A3","midi":57,"time":430.87499999999955,"velocity":0.7480314960629921,"duration":0.33749999999997726},{"name":"E4","midi":64,"time":430.87499999999955,"velocity":0.7480314960629921,"duration":0.33749999999997726},{"name":"A4","midi":69,"time":430.87499999999955,"velocity":0.7480314960629921,"duration":0.33749999999997726},{"name":"C#5","midi":73,"time":430.87499999999955,"velocity":0.7480314960629921,"duration":0.33749999999997726},{"name":"E5","midi":76,"time":430.87499999999955,"velocity":0.7480314960629921,"duration":0.33749999999997726},{"name":"A5","midi":81,"time":431.24999999999955,"velocity":0.7480314960629921,"duration":0.33749999999997726},{"name":"E5","midi":76,"time":431.24999999999955,"velocity":0.7480314960629921,"duration":0.33749999999997726},{"name":"C#5","midi":73,"time":431.24999999999955,"velocity":0.7480314960629921,"duration":0.33749999999997726},{"name":"A4","midi":69,"time":431.24999999999955,"velocity":0.7480314960629921,"duration":0.33749999999997726},{"name":"E4","midi":64,"time":431.24999999999955,"velocity":0.7480314960629921,"duration":0.33749999999997726},{"name":"A3","midi":57,"time":431.24999999999955,"velocity":0.7480314960629921,"duration":0.33749999999997726},{"name":"C#5","midi":73,"time":431.62499999999955,"velocity":0.7480314960629921,"duration":0.33749999999997726},{"name":"A4","midi":69,"time":431.62499999999955,"velocity":0.7480314960629921,"duration":0.33749999999997726},{"name":"A3","midi":57,"time":431.62499999999955,"velocity":0.7480314960629921,"duration":0.33749999999997726},{"name":"E4","midi":64,"time":431.62499999999955,"velocity":0.7480314960629921,"duration":0.33749999999997726},{"name":"E4","midi":64,"time":431.99999999999955,"velocity":0.7480314960629921,"duration":0.33749999999997726},{"name":"C#5","midi":73,"time":431.99999999999955,"velocity":0.7480314960629921,"duration":0.33749999999997726},{"name":"A4","midi":69,"time":431.99999999999955,"velocity":0.7480314960629921,"duration":0.33749999999997726},{"name":"A3","midi":57,"time":431.99999999999955,"velocity":0.7480314960629921,"duration":0.33749999999997726},{"name":"E5","midi":76,"time":432.37499999999955,"velocity":0.7480314960629921,"duration":0.33749999999997726},{"name":"C#5","midi":73,"time":432.37499999999955,"velocity":0.7480314960629921,"duration":0.33749999999997726},{"name":"A4","midi":69,"time":432.37499999999955,"velocity":0.7480314960629921,"duration":0.33749999999997726},{"name":"E4","midi":64,"time":432.37499999999955,"velocity":0.7480314960629921,"duration":0.33749999999997726},{"name":"A3","midi":57,"time":432.37499999999955,"velocity":0.7480314960629921,"duration":0.33749999999997726},{"name":"A5","midi":81,"time":432.37499999999955,"velocity":0.7480314960629921,"duration":0.33749999999997726},{"name":"A5","midi":81,"time":432.74999999999955,"velocity":0.7480314960629921,"duration":0.33749999999997726},{"name":"E5","midi":76,"time":432.74999999999955,"velocity":0.7480314960629921,"duration":0.33749999999997726},{"name":"C#5","midi":73,"time":432.74999999999955,"velocity":0.7480314960629921,"duration":0.33749999999997726},{"name":"A4","midi":69,"time":432.74999999999955,"velocity":0.7480314960629921,"duration":0.33749999999997726},{"name":"E4","midi":64,"time":432.74999999999955,"velocity":0.7480314960629921,"duration":0.33749999999997726},{"name":"A3","midi":57,"time":432.74999999999955,"velocity":0.7480314960629921,"duration":0.33749999999997726},{"name":"E4","midi":64,"time":433.12499999999955,"velocity":0.7480314960629921,"duration":0.33749999999997726},{"name":"A4","midi":69,"time":433.12499999999955,"velocity":0.7480314960629921,"duration":0.33749999999997726},{"name":"A3","midi":57,"time":433.12499999999955,"velocity":0.7480314960629921,"duration":0.33749999999997726},{"name":"C#5","midi":73,"time":433.12499999999955,"velocity":0.7480314960629921,"duration":0.33749999999997726},{"name":"A3","midi":57,"time":433.49999999999955,"velocity":0.7480314960629921,"duration":0.33749999999997726},{"name":"E4","midi":64,"time":433.49999999999955,"velocity":0.7480314960629921,"duration":0.33749999999997726},{"name":"A4","midi":69,"time":433.49999999999955,"velocity":0.7480314960629921,"duration":0.33749999999997726},{"name":"C#5","midi":73,"time":433.49999999999955,"velocity":0.7480314960629921,"duration":0.33749999999997726},{"name":"A5","midi":81,"time":433.87499999999955,"velocity":0.7480314960629921,"duration":0.33749999999997726},{"name":"A4","midi":69,"time":433.87499999999955,"velocity":0.7480314960629921,"duration":0.33749999999997726},{"name":"A3","midi":57,"time":433.87499999999955,"velocity":0.7480314960629921,"duration":0.33749999999997726},{"name":"C#5","midi":73,"time":433.87499999999955,"velocity":0.7480314960629921,"duration":0.33749999999997726},{"name":"E5","midi":76,"time":433.87499999999955,"velocity":0.7480314960629921,"duration":0.33749999999997726},{"name":"E4","midi":64,"time":433.87499999999955,"velocity":0.7480314960629921,"duration":0.33749999999997726},{"name":"A3","midi":57,"time":434.24999999999955,"velocity":0.7480314960629921,"duration":0.33749999999997726},{"name":"C#5","midi":73,"time":434.24999999999955,"velocity":0.7480314960629921,"duration":0.33749999999997726},{"name":"E4","midi":64,"time":434.24999999999955,"velocity":0.7480314960629921,"duration":0.33749999999997726},{"name":"A4","midi":69,"time":434.24999999999955,"velocity":0.7480314960629921,"duration":0.33749999999997726},{"name":"E5","midi":76,"time":434.24999999999955,"velocity":0.7480314960629921,"duration":0.33749999999997726},{"name":"A5","midi":81,"time":434.24999999999955,"velocity":0.7480314960629921,"duration":0.33749999999997726},{"name":"A4","midi":69,"time":434.62499999999955,"velocity":0.7480314960629921,"duration":0.33749999999997726},{"name":"C#5","midi":73,"time":434.62499999999955,"velocity":0.7480314960629921,"duration":0.33749999999997726},{"name":"E4","midi":64,"time":434.62499999999955,"velocity":0.7480314960629921,"duration":0.33749999999997726},{"name":"A3","midi":57,"time":434.62499999999955,"velocity":0.7480314960629921,"duration":0.33749999999997726},{"name":"D4","midi":62,"time":434.99999999999955,"velocity":0.7480314960629921,"duration":0.33749999999997726},{"name":"F#5","midi":78,"time":434.99999999999955,"velocity":0.7480314960629921,"duration":0.33749999999997726},{"name":"D5","midi":74,"time":434.99999999999955,"velocity":0.7480314960629921,"duration":0.33749999999997726},{"name":"A4","midi":69,"time":434.99999999999955,"velocity":0.7480314960629921,"duration":0.33749999999997726},{"name":"D4","midi":62,"time":435.37499999999955,"velocity":0.7480314960629921,"duration":0.33749999999997726},{"name":"A4","midi":69,"time":435.37499999999955,"velocity":0.7480314960629921,"duration":0.33749999999997726},{"name":"D5","midi":74,"time":435.37499999999955,"velocity":0.7480314960629921,"duration":0.33749999999997726},{"name":"F#5","midi":78,"time":435.37499999999955,"velocity":0.7480314960629921,"duration":0.33749999999997726},{"name":"D4","midi":62,"time":435.74999999999955,"velocity":0.7480314960629921,"duration":0.5062500000000227},{"name":"A4","midi":69,"time":435.74999999999955,"velocity":0.7480314960629921,"duration":0.5062500000000227},{"name":"D5","midi":74,"time":435.74999999999955,"velocity":0.7480314960629921,"duration":0.5062500000000227},{"name":"E5","midi":76,"time":435.74999999999955,"velocity":0.7480314960629921,"duration":0.5062500000000227},{"name":"E5","midi":76,"time":436.31249999999955,"velocity":0.7480314960629921,"duration":0.16874999999998863},{"name":"D4","midi":62,"time":436.31249999999955,"velocity":0.7480314960629921,"duration":0.16874999999998863},{"name":"A4","midi":69,"time":436.31249999999955,"velocity":0.7480314960629921,"duration":0.16874999999998863},{"name":"D5","midi":74,"time":436.31249999999955,"velocity":0.7480314960629921,"duration":0.16874999999998863},{"name":"F#5","midi":78,"time":436.49999999999955,"velocity":0.7480314960629921,"duration":0.33749999999997726},{"name":"D5","midi":74,"time":436.49999999999955,"velocity":0.7480314960629921,"duration":0.33749999999997726},{"name":"A4","midi":69,"time":436.49999999999955,"velocity":0.7480314960629921,"duration":0.33749999999997726},{"name":"D4","midi":62,"time":436.49999999999955,"velocity":0.7480314960629921,"duration":0.33749999999997726},{"name":"D4","midi":62,"time":436.87499999999955,"velocity":0.7480314960629921,"duration":0.33749999999997726},{"name":"D5","midi":74,"time":436.87499999999955,"velocity":0.7480314960629921,"duration":0.33749999999997726},{"name":"F#5","midi":78,"time":436.87499999999955,"velocity":0.7480314960629921,"duration":0.33749999999997726},{"name":"A4","midi":69,"time":436.87499999999955,"velocity":0.7480314960629921,"duration":0.33749999999997726},{"name":"D4","midi":62,"time":437.24999999999955,"velocity":0.7480314960629921,"duration":0.5062500000000227},{"name":"A4","midi":69,"time":437.24999999999955,"velocity":0.7480314960629921,"duration":0.5062500000000227},{"name":"D5","midi":74,"time":437.24999999999955,"velocity":0.7480314960629921,"duration":0.5062500000000227},{"name":"E5","midi":76,"time":437.24999999999955,"velocity":0.7480314960629921,"duration":0.5062500000000227},{"name":"D5","midi":74,"time":437.81249999999955,"velocity":0.7480314960629921,"duration":0.16874999999998863},{"name":"D4","midi":62,"time":437.81249999999955,"velocity":0.7480314960629921,"duration":0.16874999999998863},{"name":"E5","midi":76,"time":437.81249999999955,"velocity":0.7480314960629921,"duration":0.16874999999998863},{"name":"A4","midi":69,"time":437.81249999999955,"velocity":0.7480314960629921,"duration":0.16874999999998863},{"name":"D5","midi":74,"time":437.99999999999955,"velocity":0.7480314960629921,"duration":0.33749999999997726},{"name":"D4","midi":62,"time":437.99999999999955,"velocity":0.7480314960629921,"duration":0.33749999999997726},{"name":"A4","midi":69,"time":437.99999999999955,"velocity":0.7480314960629921,"duration":0.33749999999997726},{"name":"E5","midi":76,"time":437.99999999999955,"velocity":0.7480314960629921,"duration":0.33749999999997726},{"name":"A4","midi":69,"time":438.37499999999955,"velocity":0.7480314960629921,"duration":0.33749999999997726},{"name":"D5","midi":74,"time":438.37499999999955,"velocity":0.7480314960629921,"duration":0.33749999999997726},{"name":"E5","midi":76,"time":438.37499999999955,"velocity":0.7480314960629921,"duration":0.33749999999997726},{"name":"D4","midi":62,"time":438.37499999999955,"velocity":0.7480314960629921,"duration":0.33749999999997726},{"name":"E5","midi":76,"time":438.74999999999955,"velocity":0.7480314960629921,"duration":0.5062500000000227},{"name":"D4","midi":62,"time":438.74999999999955,"velocity":0.7480314960629921,"duration":0.5062500000000227},{"name":"A4","midi":69,"time":438.74999999999955,"velocity":0.7480314960629921,"duration":0.5062500000000227},{"name":"D5","midi":74,"time":438.74999999999955,"velocity":0.7480314960629921,"duration":0.5062500000000227},{"name":"A4","midi":69,"time":439.31249999999955,"velocity":0.7480314960629921,"duration":0.16874999999998863},{"name":"D4","midi":62,"time":439.31249999999955,"velocity":0.7480314960629921,"duration":0.16874999999998863},{"name":"D5","midi":74,"time":439.31249999999955,"velocity":0.7480314960629921,"duration":0.16874999999998863},{"name":"E5","midi":76,"time":439.31249999999955,"velocity":0.7480314960629921,"duration":0.16874999999998863},{"name":"F#5","midi":78,"time":439.49999999999955,"velocity":0.7480314960629921,"duration":0.33749999999997726},{"name":"D5","midi":74,"time":439.49999999999955,"velocity":0.7480314960629921,"duration":0.33749999999997726},{"name":"A4","midi":69,"time":439.49999999999955,"velocity":0.7480314960629921,"duration":0.33749999999997726},{"name":"D4","midi":62,"time":439.49999999999955,"velocity":0.7480314960629921,"duration":0.33749999999997726},{"name":"A4","midi":69,"time":439.87499999999955,"velocity":0.7480314960629921,"duration":0.33749999999997726},{"name":"D4","midi":62,"time":439.87499999999955,"velocity":0.7480314960629921,"duration":0.33749999999997726},{"name":"D5","midi":74,"time":439.87499999999955,"velocity":0.7480314960629921,"duration":0.33749999999997726},{"name":"F#5","midi":78,"time":439.87499999999955,"velocity":0.7480314960629921,"duration":0.33749999999997726},{"name":"E5","midi":76,"time":440.24999999999955,"velocity":0.7480314960629921,"duration":0.5062500000000227},{"name":"D5","midi":74,"time":440.24999999999955,"velocity":0.7480314960629921,"duration":0.5062500000000227},{"name":"D4","midi":62,"time":440.24999999999955,"velocity":0.7480314960629921,"duration":0.5062500000000227},{"name":"A4","midi":69,"time":440.24999999999955,"velocity":0.7480314960629921,"duration":0.5062500000000227},{"name":"E5","midi":76,"time":440.81249999999955,"velocity":0.7480314960629921,"duration":0.16874999999998863},{"name":"D5","midi":74,"time":440.81249999999955,"velocity":0.7480314960629921,"duration":0.16874999999998863},{"name":"A4","midi":69,"time":440.81249999999955,"velocity":0.7480314960629921,"duration":0.16874999999998863},{"name":"D4","midi":62,"time":440.81249999999955,"velocity":0.7480314960629921,"duration":0.16874999999998863},{"name":"F#4","midi":66,"time":440.99999999999955,"velocity":0.7480314960629921,"duration":0.33749999999997726},{"name":"B3","midi":59,"time":440.99999999999955,"velocity":0.7480314960629921,"duration":0.33749999999997726},{"name":"D5","midi":74,"time":440.99999999999955,"velocity":0.7480314960629921,"duration":0.33749999999997726},{"name":"A4","midi":69,"time":440.99999999999955,"velocity":0.7480314960629921,"duration":0.33749999999997726},{"name":"B3","midi":59,"time":441.37499999999955,"velocity":0.7480314960629921,"duration":0.33749999999997726},{"name":"D5","midi":74,"time":441.37499999999955,"velocity":0.7480314960629921,"duration":0.33749999999997726},{"name":"A4","midi":69,"time":441.37499999999955,"velocity":0.7480314960629921,"duration":0.33749999999997726},{"name":"F#4","midi":66,"time":441.37499999999955,"velocity":0.7480314960629921,"duration":0.33749999999997726},{"name":"A4","midi":69,"time":441.74999999999955,"velocity":0.7480314960629921,"duration":0.33749999999997726},{"name":"F#5","midi":78,"time":441.74999999999955,"velocity":0.7480314960629921,"duration":0.33749999999997726},{"name":"D5","midi":74,"time":441.74999999999955,"velocity":0.7480314960629921,"duration":0.33749999999997726},{"name":"B3","midi":59,"time":441.74999999999955,"velocity":0.7480314960629921,"duration":0.33749999999997726},{"name":"F#4","midi":66,"time":441.74999999999955,"velocity":0.7480314960629921,"duration":0.33749999999997726},{"name":"A4","midi":69,"time":442.12499999999955,"velocity":0.7480314960629921,"duration":0.33749999999997726},{"name":"B3","midi":59,"time":442.12499999999955,"velocity":0.7480314960629921,"duration":0.33749999999997726},{"name":"F#4","midi":66,"time":442.12499999999955,"velocity":0.7480314960629921,"duration":0.33749999999997726},{"name":"D5","midi":74,"time":442.12499999999955,"velocity":0.7480314960629921,"duration":0.33749999999997726},{"name":"A4","midi":69,"time":442.49999999999955,"velocity":0.7480314960629921,"duration":0.33749999999997726},{"name":"F#4","midi":66,"time":442.49999999999955,"velocity":0.7480314960629921,"duration":0.33749999999997726},{"name":"B3","midi":59,"time":442.49999999999955,"velocity":0.7480314960629921,"duration":0.33749999999997726},{"name":"D5","midi":74,"time":442.49999999999955,"velocity":0.7480314960629921,"duration":0.33749999999997726},{"name":"A4","midi":69,"time":442.87499999999955,"velocity":0.7480314960629921,"duration":0.33749999999997726},{"name":"F#5","midi":78,"time":442.87499999999955,"velocity":0.7480314960629921,"duration":0.33749999999997726},{"name":"D5","midi":74,"time":442.87499999999955,"velocity":0.7480314960629921,"duration":0.33749999999997726},{"name":"F#4","midi":66,"time":442.87499999999955,"velocity":0.7480314960629921,"duration":0.33749999999997726},{"name":"B3","midi":59,"time":442.87499999999955,"velocity":0.7480314960629921,"duration":0.33749999999997726},{"name":"F#5","midi":78,"time":443.24999999999955,"velocity":0.7480314960629921,"duration":0.33749999999997726},{"name":"D5","midi":74,"time":443.24999999999955,"velocity":0.7480314960629921,"duration":0.33749999999997726},{"name":"A4","midi":69,"time":443.24999999999955,"velocity":0.7480314960629921,"duration":0.33749999999997726},{"name":"F#4","midi":66,"time":443.24999999999955,"velocity":0.7480314960629921,"duration":0.33749999999997726},{"name":"B3","midi":59,"time":443.24999999999955,"velocity":0.7480314960629921,"duration":0.33749999999997726},{"name":"B3","midi":59,"time":443.62499999999955,"velocity":0.7480314960629921,"duration":0.33749999999997726},{"name":"F#4","midi":66,"time":443.62499999999955,"velocity":0.7480314960629921,"duration":0.33749999999997726},{"name":"A4","midi":69,"time":443.62499999999955,"velocity":0.7480314960629921,"duration":0.33749999999997726},{"name":"D5","midi":74,"time":443.62499999999955,"velocity":0.7480314960629921,"duration":0.33749999999997726},{"name":"D5","midi":74,"time":443.99999999999955,"velocity":0.7480314960629921,"duration":0.33749999999997726},{"name":"A4","midi":69,"time":443.99999999999955,"velocity":0.7480314960629921,"duration":0.33749999999997726},{"name":"F#4","midi":66,"time":443.99999999999955,"velocity":0.7480314960629921,"duration":0.33749999999997726},{"name":"B3","midi":59,"time":443.99999999999955,"velocity":0.7480314960629921,"duration":0.33749999999997726},{"name":"F#5","midi":78,"time":444.37499999999955,"velocity":0.7480314960629921,"duration":0.33749999999997726},{"name":"D5","midi":74,"time":444.37499999999955,"velocity":0.7480314960629921,"duration":0.33749999999997726},{"name":"A4","midi":69,"time":444.37499999999955,"velocity":0.7480314960629921,"duration":0.33749999999997726},{"name":"F#4","midi":66,"time":444.37499999999955,"velocity":0.7480314960629921,"duration":0.33749999999997726},{"name":"B3","midi":59,"time":444.37499999999955,"velocity":0.7480314960629921,"duration":0.33749999999997726},{"name":"D5","midi":74,"time":444.74999999999955,"velocity":0.7480314960629921,"duration":0.33749999999997726},{"name":"F#5","midi":78,"time":444.74999999999955,"velocity":0.7480314960629921,"duration":0.33749999999997726},{"name":"A4","midi":69,"time":444.74999999999955,"velocity":0.7480314960629921,"duration":0.33749999999997726},{"name":"B3","midi":59,"time":444.74999999999955,"velocity":0.7480314960629921,"duration":0.33749999999997726},{"name":"F#4","midi":66,"time":444.74999999999955,"velocity":0.7480314960629921,"duration":0.33749999999997726},{"name":"B3","midi":59,"time":445.12499999999955,"velocity":0.7480314960629921,"duration":0.33749999999997726},{"name":"F#4","midi":66,"time":445.12499999999955,"velocity":0.7480314960629921,"duration":0.33749999999997726},{"name":"A4","midi":69,"time":445.12499999999955,"velocity":0.7480314960629921,"duration":0.33749999999997726},{"name":"D5","midi":74,"time":445.12499999999955,"velocity":0.7480314960629921,"duration":0.33749999999997726},{"name":"B3","midi":59,"time":445.49999999999955,"velocity":0.7480314960629921,"duration":0.33749999999997726},{"name":"F#4","midi":66,"time":445.49999999999955,"velocity":0.7480314960629921,"duration":0.33749999999997726},{"name":"A4","midi":69,"time":445.49999999999955,"velocity":0.7480314960629921,"duration":0.33749999999997726},{"name":"D5","midi":74,"time":445.49999999999955,"velocity":0.7480314960629921,"duration":0.33749999999997726},{"name":"F#5","midi":78,"time":445.87499999999955,"velocity":0.7480314960629921,"duration":0.33749999999997726},{"name":"D5","midi":74,"time":445.87499999999955,"velocity":0.7480314960629921,"duration":0.33749999999997726},{"name":"A4","midi":69,"time":445.87499999999955,"velocity":0.7480314960629921,"duration":0.33749999999997726},{"name":"F#4","midi":66,"time":445.87499999999955,"velocity":0.7480314960629921,"duration":0.33749999999997726},{"name":"B3","midi":59,"time":445.87499999999955,"velocity":0.7480314960629921,"duration":0.33749999999997726},{"name":"F#5","midi":78,"time":446.24999999999955,"velocity":0.7480314960629921,"duration":0.33749999999997726},{"name":"B3","midi":59,"time":446.24999999999955,"velocity":0.7480314960629921,"duration":0.33749999999997726},{"name":"D5","midi":74,"time":446.24999999999955,"velocity":0.7480314960629921,"duration":0.33749999999997726},{"name":"A4","midi":69,"time":446.24999999999955,"velocity":0.7480314960629921,"duration":0.33749999999997726},{"name":"F#4","midi":66,"time":446.24999999999955,"velocity":0.7480314960629921,"duration":0.33749999999997726},{"name":"D5","midi":74,"time":446.62499999999955,"velocity":0.7480314960629921,"duration":0.33749999999997726},{"name":"A4","midi":69,"time":446.62499999999955,"velocity":0.7480314960629921,"duration":0.33749999999997726},{"name":"F#4","midi":66,"time":446.62499999999955,"velocity":0.7480314960629921,"duration":0.33749999999997726},{"name":"B3","midi":59,"time":446.62499999999955,"velocity":0.7480314960629921,"duration":0.33749999999997726},{"name":"C#5","midi":73,"time":446.99999999999955,"velocity":0.7480314960629921,"duration":0.33749999999997726},{"name":"D4","midi":62,"time":446.99999999999955,"velocity":0.7480314960629921,"duration":0.33749999999997726},{"name":"A4","midi":69,"time":446.99999999999955,"velocity":0.7480314960629921,"duration":0.33749999999997726},{"name":"D4","midi":62,"time":447.37499999999955,"velocity":0.7480314960629921,"duration":0.33749999999997726},{"name":"A4","midi":69,"time":447.37499999999955,"velocity":0.7480314960629921,"duration":0.33749999999997726},{"name":"F#5","midi":78,"time":447.37499999999955,"velocity":0.7480314960629921,"duration":0.33749999999997726},{"name":"D5","midi":74,"time":447.37499999999955,"velocity":0.7480314960629921,"duration":0.33749999999997726},{"name":"C#5","midi":73,"time":447.37499999999955,"velocity":0.7480314960629921,"duration":0.33749999999997726},{"name":"A4","midi":69,"time":447.74999999999955,"velocity":0.7480314960629921,"duration":0.33749999999997726},{"name":"F#5","midi":78,"time":447.74999999999955,"velocity":0.7480314960629921,"duration":0.33749999999997726},{"name":"C#5","midi":73,"time":447.74999999999955,"velocity":0.7480314960629921,"duration":0.33749999999997726},{"name":"D4","midi":62,"time":447.74999999999955,"velocity":0.7480314960629921,"duration":0.33749999999997726},{"name":"C#5","midi":73,"time":448.12499999999955,"velocity":0.7480314960629921,"duration":0.33749999999997726},{"name":"A4","midi":69,"time":448.12499999999955,"velocity":0.7480314960629921,"duration":0.33749999999997726},{"name":"D4","midi":62,"time":448.12499999999955,"velocity":0.7480314960629921,"duration":0.33749999999997726},{"name":"D4","midi":62,"time":448.49999999999955,"velocity":0.7480314960629921,"duration":0.33749999999997726},{"name":"C#5","midi":73,"time":448.49999999999955,"velocity":0.7480314960629921,"duration":0.33749999999997726},{"name":"A4","midi":69,"time":448.49999999999955,"velocity":0.7480314960629921,"duration":0.33749999999997726},{"name":"F#5","midi":78,"time":448.87499999999955,"velocity":0.7480314960629921,"duration":0.33749999999997726},{"name":"C#5","midi":73,"time":448.87499999999955,"velocity":0.7480314960629921,"duration":0.33749999999997726},{"name":"A4","midi":69,"time":448.87499999999955,"velocity":0.7480314960629921,"duration":0.33749999999997726},{"name":"D4","midi":62,"time":448.87499999999955,"velocity":0.7480314960629921,"duration":0.33749999999997726},{"name":"D4","midi":62,"time":449.24999999999955,"velocity":0.7480314960629921,"duration":0.33749999999997726},{"name":"F#5","midi":78,"time":449.24999999999955,"velocity":0.7480314960629921,"duration":0.33749999999997726},{"name":"C#5","midi":73,"time":449.24999999999955,"velocity":0.7480314960629921,"duration":0.33749999999997726},{"name":"A4","midi":69,"time":449.24999999999955,"velocity":0.7480314960629921,"duration":0.33749999999997726},{"name":"C#5","midi":73,"time":449.62499999999955,"velocity":0.7480314960629921,"duration":0.33749999999997726},{"name":"D4","midi":62,"time":449.62499999999955,"velocity":0.7480314960629921,"duration":0.33749999999997726},{"name":"A4","midi":69,"time":449.62499999999955,"velocity":0.7480314960629921,"duration":0.33749999999997726},{"name":"C#5","midi":73,"time":449.99999999999955,"velocity":0.7480314960629921,"duration":0.33749999999997726},{"name":"A4","midi":69,"time":449.99999999999955,"velocity":0.7480314960629921,"duration":0.33749999999997726},{"name":"D4","midi":62,"time":449.99999999999955,"velocity":0.7480314960629921,"duration":0.33749999999997726},{"name":"F#5","midi":78,"time":450.37499999999955,"velocity":0.7480314960629921,"duration":0.33749999999997726},{"name":"C#5","midi":73,"time":450.37499999999955,"velocity":0.7480314960629921,"duration":0.33749999999997726},{"name":"A4","midi":69,"time":450.37499999999955,"velocity":0.7480314960629921,"duration":0.33749999999997726},{"name":"D4","midi":62,"time":450.37499999999955,"velocity":0.7480314960629921,"duration":0.33749999999997726},{"name":"D4","midi":62,"time":450.74999999999955,"velocity":0.7480314960629921,"duration":0.33749999999997726},{"name":"F#5","midi":78,"time":450.74999999999955,"velocity":0.7480314960629921,"duration":0.33749999999997726},{"name":"C#5","midi":73,"time":450.74999999999955,"velocity":0.7480314960629921,"duration":0.33749999999997726},{"name":"A4","midi":69,"time":450.74999999999955,"velocity":0.7480314960629921,"duration":0.33749999999997726},{"name":"D4","midi":62,"time":451.12499999999955,"velocity":0.7480314960629921,"duration":0.33749999999997726},{"name":"C#5","midi":73,"time":451.12499999999955,"velocity":0.7480314960629921,"duration":0.33749999999997726},{"name":"A4","midi":69,"time":451.12499999999955,"velocity":0.7480314960629921,"duration":0.33749999999997726},{"name":"D4","midi":62,"time":451.49999999999955,"velocity":0.7480314960629921,"duration":0.33749999999997726},{"name":"A4","midi":69,"time":451.49999999999955,"velocity":0.7480314960629921,"duration":0.33749999999997726},{"name":"C#5","midi":73,"time":451.49999999999955,"velocity":0.7480314960629921,"duration":0.33749999999997726},{"name":"A4","midi":69,"time":451.87499999999955,"velocity":0.7480314960629921,"duration":0.33749999999997726},{"name":"C#5","midi":73,"time":451.87499999999955,"velocity":0.7480314960629921,"duration":0.33749999999997726},{"name":"F#5","midi":78,"time":451.87499999999955,"velocity":0.7480314960629921,"duration":0.33749999999997726},{"name":"D4","midi":62,"time":451.87499999999955,"velocity":0.7480314960629921,"duration":0.33749999999997726},{"name":"D4","midi":62,"time":452.24999999999955,"velocity":0.7480314960629921,"duration":0.33749999999997726},{"name":"F#5","midi":78,"time":452.24999999999955,"velocity":0.7480314960629921,"duration":0.33749999999997726},{"name":"A4","midi":69,"time":452.24999999999955,"velocity":0.7480314960629921,"duration":0.33749999999997726},{"name":"C#5","midi":73,"time":452.24999999999955,"velocity":0.7480314960629921,"duration":0.33749999999997726},{"name":"A4","midi":69,"time":452.62499999999955,"velocity":0.7480314960629921,"duration":0.33749999999997726},{"name":"C#5","midi":73,"time":452.62499999999955,"velocity":0.7480314960629921,"duration":0.33749999999997726},{"name":"D4","midi":62,"time":452.62499999999955,"velocity":0.7480314960629921,"duration":0.33749999999997726},{"name":"A3","midi":57,"time":452.99999999999955,"velocity":0.7480314960629921,"duration":0.33749999999997726},{"name":"E4","midi":64,"time":452.99999999999955,"velocity":0.7480314960629921,"duration":0.33749999999997726},{"name":"A4","midi":69,"time":452.99999999999955,"velocity":0.7480314960629921,"duration":0.33749999999997726},{"name":"C#5","midi":73,"time":452.99999999999955,"velocity":0.7480314960629921,"duration":0.33749999999997726},{"name":"F#5","midi":78,"time":452.99999999999955,"velocity":0.7480314960629921,"duration":0.33749999999997726},{"name":"A3","midi":57,"time":453.37499999999955,"velocity":0.7480314960629921,"duration":0.33749999999997726},{"name":"C#5","midi":73,"time":453.37499999999955,"velocity":0.7480314960629921,"duration":0.33749999999997726},{"name":"F#5","midi":78,"time":453.37499999999955,"velocity":0.7480314960629921,"duration":0.33749999999997726},{"name":"E4","midi":64,"time":453.37499999999955,"velocity":0.7480314960629921,"duration":0.33749999999997726},{"name":"A4","midi":69,"time":453.37499999999955,"velocity":0.7480314960629921,"duration":0.33749999999997726},{"name":"E5","midi":76,"time":453.74999999999955,"velocity":0.7480314960629921,"duration":0.5062500000000227},{"name":"C#5","midi":73,"time":453.74999999999955,"velocity":0.7480314960629921,"duration":0.5062500000000227},{"name":"A4","midi":69,"time":453.74999999999955,"velocity":0.7480314960629921,"duration":0.5062500000000227},{"name":"E4","midi":64,"time":453.74999999999955,"velocity":0.7480314960629921,"duration":0.5062500000000227},{"name":"A3","midi":57,"time":453.74999999999955,"velocity":0.7480314960629921,"duration":0.5062500000000227},{"name":"E5","midi":76,"time":454.31249999999955,"velocity":0.7480314960629921,"duration":0.16874999999998863},{"name":"C#5","midi":73,"time":454.31249999999955,"velocity":0.7480314960629921,"duration":0.16874999999998863},{"name":"A4","midi":69,"time":454.31249999999955,"velocity":0.7480314960629921,"duration":0.16874999999998863},{"name":"E4","midi":64,"time":454.31249999999955,"velocity":0.7480314960629921,"duration":0.16874999999998863},{"name":"A3","midi":57,"time":454.31249999999955,"velocity":0.7480314960629921,"duration":0.16874999999998863},{"name":"A3","midi":57,"time":454.49999999999955,"velocity":0.7480314960629921,"duration":0.33749999999997726},{"name":"E4","midi":64,"time":454.49999999999955,"velocity":0.7480314960629921,"duration":0.33749999999997726},{"name":"A4","midi":69,"time":454.49999999999955,"velocity":0.7480314960629921,"duration":0.33749999999997726},{"name":"C#5","midi":73,"time":454.49999999999955,"velocity":0.7480314960629921,"duration":0.33749999999997726},{"name":"F#5","midi":78,"time":454.49999999999955,"velocity":0.7480314960629921,"duration":0.33749999999997726},{"name":"A3","midi":57,"time":454.87499999999955,"velocity":0.7480314960629921,"duration":0.33749999999997726},{"name":"E4","midi":64,"time":454.87499999999955,"velocity":0.7480314960629921,"duration":0.33749999999997726},{"name":"A4","midi":69,"time":454.87499999999955,"velocity":0.7480314960629921,"duration":0.33749999999997726},{"name":"C#5","midi":73,"time":454.87499999999955,"velocity":0.7480314960629921,"duration":0.33749999999997726},{"name":"F#5","midi":78,"time":454.87499999999955,"velocity":0.7480314960629921,"duration":0.33749999999997726},{"name":"A4","midi":69,"time":455.24999999999955,"velocity":0.7480314960629921,"duration":0.5062500000000227},{"name":"A3","midi":57,"time":455.24999999999955,"velocity":0.7480314960629921,"duration":0.5062500000000227},{"name":"E5","midi":76,"time":455.24999999999955,"velocity":0.7480314960629921,"duration":0.5062500000000227},{"name":"C#5","midi":73,"time":455.24999999999955,"velocity":0.7480314960629921,"duration":0.5062500000000227},{"name":"E4","midi":64,"time":455.24999999999955,"velocity":0.7480314960629921,"duration":0.5062500000000227},{"name":"E4","midi":64,"time":455.81249999999955,"velocity":0.7480314960629921,"duration":0.16874999999998863},{"name":"A3","midi":57,"time":455.81249999999955,"velocity":0.7480314960629921,"duration":0.16874999999998863},{"name":"E5","midi":76,"time":455.81249999999955,"velocity":0.7480314960629921,"duration":0.16874999999998863},{"name":"C#5","midi":73,"time":455.81249999999955,"velocity":0.7480314960629921,"duration":0.16874999999998863},{"name":"A4","midi":69,"time":455.81249999999955,"velocity":0.7480314960629921,"duration":0.16874999999998863},{"name":"F#5","midi":78,"time":455.99999999999955,"velocity":0.7480314960629921,"duration":0.33749999999997726},{"name":"A3","midi":57,"time":455.99999999999955,"velocity":0.7480314960629921,"duration":0.33749999999997726},{"name":"E4","midi":64,"time":455.99999999999955,"velocity":0.7480314960629921,"duration":0.33749999999997726},{"name":"A4","midi":69,"time":455.99999999999955,"velocity":0.7480314960629921,"duration":0.33749999999997726},{"name":"C#5","midi":73,"time":455.99999999999955,"velocity":0.7480314960629921,"duration":0.33749999999997726},{"name":"A3","midi":57,"time":456.37499999999955,"velocity":0.7480314960629921,"duration":0.33749999999997726},{"name":"F#5","midi":78,"time":456.37499999999955,"velocity":0.7480314960629921,"duration":0.33749999999997726},{"name":"C#5","midi":73,"time":456.37499999999955,"velocity":0.7480314960629921,"duration":0.33749999999997726},{"name":"A4","midi":69,"time":456.37499999999955,"velocity":0.7480314960629921,"duration":0.33749999999997726},{"name":"E4","midi":64,"time":456.37499999999955,"velocity":0.7480314960629921,"duration":0.33749999999997726},{"name":"E5","midi":76,"time":456.74999999999955,"velocity":0.7480314960629921,"duration":0.5062500000000227},{"name":"C#5","midi":73,"time":456.74999999999955,"velocity":0.7480314960629921,"duration":0.5062500000000227},{"name":"A4","midi":69,"time":456.74999999999955,"velocity":0.7480314960629921,"duration":0.5062500000000227},{"name":"E4","midi":64,"time":456.74999999999955,"velocity":0.7480314960629921,"duration":0.5062500000000227},{"name":"A3","midi":57,"time":456.74999999999955,"velocity":0.7480314960629921,"duration":0.5062500000000227},{"name":"E5","midi":76,"time":457.31249999999955,"velocity":0.7480314960629921,"duration":0.16874999999998863},{"name":"E4","midi":64,"time":457.31249999999955,"velocity":0.7480314960629921,"duration":0.16874999999998863},{"name":"A3","midi":57,"time":457.31249999999955,"velocity":0.7480314960629921,"duration":0.16874999999998863},{"name":"A4","midi":69,"time":457.31249999999955,"velocity":0.7480314960629921,"duration":0.16874999999998863},{"name":"C#5","midi":73,"time":457.31249999999955,"velocity":0.7480314960629921,"duration":0.16874999999998863},{"name":"E4","midi":64,"time":457.49999999999955,"velocity":0.7480314960629921,"duration":0.33749999999997726},{"name":"A3","midi":57,"time":457.49999999999955,"velocity":0.7480314960629921,"duration":0.33749999999997726},{"name":"A4","midi":69,"time":457.49999999999955,"velocity":0.7480314960629921,"duration":0.33749999999997726},{"name":"C#5","midi":73,"time":457.49999999999955,"velocity":0.7480314960629921,"duration":0.33749999999997726},{"name":"F#5","midi":78,"time":457.49999999999955,"velocity":0.7480314960629921,"duration":0.33749999999997726},{"name":"A3","midi":57,"time":457.87499999999955,"velocity":0.7480314960629921,"duration":0.33749999999997726},{"name":"F#5","midi":78,"time":457.87499999999955,"velocity":0.7480314960629921,"duration":0.33749999999997726},{"name":"C#5","midi":73,"time":457.87499999999955,"velocity":0.7480314960629921,"duration":0.33749999999997726},{"name":"A4","midi":69,"time":457.87499999999955,"velocity":0.7480314960629921,"duration":0.33749999999997726},{"name":"E4","midi":64,"time":457.87499999999955,"velocity":0.7480314960629921,"duration":0.33749999999997726},{"name":"C#5","midi":73,"time":458.24999999999955,"velocity":0.7480314960629921,"duration":0.5062500000000227},{"name":"A3","midi":57,"time":458.24999999999955,"velocity":0.7480314960629921,"duration":0.5062500000000227},{"name":"E4","midi":64,"time":458.24999999999955,"velocity":0.7480314960629921,"duration":0.5062500000000227},{"name":"A4","midi":69,"time":458.24999999999955,"velocity":0.7480314960629921,"duration":0.5062500000000227},{"name":"E5","midi":76,"time":458.24999999999955,"velocity":0.7480314960629921,"duration":0.5062500000000227},{"name":"E4","midi":64,"time":458.81249999999955,"velocity":0.7480314960629921,"duration":0.16874999999998863},{"name":"A3","midi":57,"time":458.81249999999955,"velocity":0.7480314960629921,"duration":0.16874999999998863},{"name":"E5","midi":76,"time":458.81249999999955,"velocity":0.7480314960629921,"duration":0.16874999999998863},{"name":"C#5","midi":73,"time":458.81249999999955,"velocity":0.7480314960629921,"duration":0.16874999999998863},{"name":"A4","midi":69,"time":458.81249999999955,"velocity":0.7480314960629921,"duration":0.16874999999998863},{"name":"F#5","midi":78,"time":458.99999999999955,"velocity":0.7480314960629921,"duration":0.33749999999997726},{"name":"D5","midi":74,"time":458.99999999999955,"velocity":0.7480314960629921,"duration":0.33749999999997726},{"name":"A4","midi":69,"time":458.99999999999955,"velocity":0.7480314960629921,"duration":0.33749999999997726},{"name":"D4","midi":62,"time":458.99999999999955,"velocity":0.7480314960629921,"duration":0.33749999999997726},{"name":"A4","midi":69,"time":459.37499999999955,"velocity":0.7480314960629921,"duration":0.33749999999997726},{"name":"F#5","midi":78,"time":459.37499999999955,"velocity":0.7480314960629921,"duration":0.33749999999997726},{"name":"D5","midi":74,"time":459.37499999999955,"velocity":0.7480314960629921,"duration":0.33749999999997726},{"name":"D4","midi":62,"time":459.37499999999955,"velocity":0.7480314960629921,"duration":0.33749999999997726},{"name":"D4","midi":62,"time":459.74999999999955,"velocity":0.7480314960629921,"duration":0.5062500000000227},{"name":"A4","midi":69,"time":459.74999999999955,"velocity":0.7480314960629921,"duration":0.5062500000000227},{"name":"D5","midi":74,"time":459.74999999999955,"velocity":0.7480314960629921,"duration":0.5062500000000227},{"name":"E5","midi":76,"time":459.74999999999955,"velocity":0.7480314960629921,"duration":0.5062500000000227},{"name":"A4","midi":69,"time":460.31249999999955,"velocity":0.7480314960629921,"duration":0.16874999999998863},{"name":"D4","midi":62,"time":460.31249999999955,"velocity":0.7480314960629921,"duration":0.16874999999998863},{"name":"E5","midi":76,"time":460.31249999999955,"velocity":0.7480314960629921,"duration":0.16874999999998863},{"name":"D5","midi":74,"time":460.31249999999955,"velocity":0.7480314960629921,"duration":0.16874999999998863},{"name":"A4","midi":69,"time":460.49999999999955,"velocity":0.7480314960629921,"duration":0.33749999999997726},{"name":"F#5","midi":78,"time":460.49999999999955,"velocity":0.7480314960629921,"duration":0.33749999999997726},{"name":"D5","midi":74,"time":460.49999999999955,"velocity":0.7480314960629921,"duration":0.33749999999997726},{"name":"D4","midi":62,"time":460.49999999999955,"velocity":0.7480314960629921,"duration":0.33749999999997726},{"name":"D4","midi":62,"time":460.87499999999955,"velocity":0.7480314960629921,"duration":0.33749999999997726},{"name":"F#5","midi":78,"time":460.87499999999955,"velocity":0.7480314960629921,"duration":0.33749999999997726},{"name":"D5","midi":74,"time":460.87499999999955,"velocity":0.7480314960629921,"duration":0.33749999999997726},{"name":"A4","midi":69,"time":460.87499999999955,"velocity":0.7480314960629921,"duration":0.33749999999997726},{"name":"D4","midi":62,"time":461.24999999999955,"velocity":0.7480314960629921,"duration":0.5062500000000227},{"name":"A4","midi":69,"time":461.24999999999955,"velocity":0.7480314960629921,"duration":0.5062500000000227},{"name":"D5","midi":74,"time":461.24999999999955,"velocity":0.7480314960629921,"duration":0.5062500000000227},{"name":"E5","midi":76,"time":461.24999999999955,"velocity":0.7480314960629921,"duration":0.5062500000000227},{"name":"E5","midi":76,"time":461.81249999999955,"velocity":0.7480314960629921,"duration":0.16874999999998863},{"name":"D5","midi":74,"time":461.81249999999955,"velocity":0.7480314960629921,"duration":0.16874999999998863},{"name":"A4","midi":69,"time":461.81249999999955,"velocity":0.7480314960629921,"duration":0.16874999999998863},{"name":"D4","midi":62,"time":461.81249999999955,"velocity":0.7480314960629921,"duration":0.16874999999998863},{"name":"E5","midi":76,"time":461.99999999999955,"velocity":0.7480314960629921,"duration":0.33749999999997726},{"name":"D4","midi":62,"time":461.99999999999955,"velocity":0.7480314960629921,"duration":0.33749999999997726},{"name":"A4","midi":69,"time":461.99999999999955,"velocity":0.7480314960629921,"duration":0.33749999999997726},{"name":"D5","midi":74,"time":461.99999999999955,"velocity":0.7480314960629921,"duration":0.33749999999997726},{"name":"D4","midi":62,"time":462.37499999999955,"velocity":0.7480314960629921,"duration":0.33749999999997726},{"name":"A4","midi":69,"time":462.37499999999955,"velocity":0.7480314960629921,"duration":0.33749999999997726},{"name":"D5","midi":74,"time":462.37499999999955,"velocity":0.7480314960629921,"duration":0.33749999999997726},{"name":"E5","midi":76,"time":462.37499999999955,"velocity":0.7480314960629921,"duration":0.33749999999997726},{"name":"D4","midi":62,"time":462.74999999999955,"velocity":0.7480314960629921,"duration":0.5062500000000227},{"name":"A4","midi":69,"time":462.74999999999955,"velocity":0.7480314960629921,"duration":0.5062500000000227},{"name":"D5","midi":74,"time":462.74999999999955,"velocity":0.7480314960629921,"duration":0.5062500000000227},{"name":"E5","midi":76,"time":462.74999999999955,"velocity":0.7480314960629921,"duration":0.5062500000000227},{"name":"E5","midi":76,"time":463.31249999999955,"velocity":0.7480314960629921,"duration":0.16874999999998863},{"name":"D4","midi":62,"time":463.31249999999955,"velocity":0.7480314960629921,"duration":0.16874999999998863},{"name":"A4","midi":69,"time":463.31249999999955,"velocity":0.7480314960629921,"duration":0.16874999999998863},{"name":"D5","midi":74,"time":463.31249999999955,"velocity":0.7480314960629921,"duration":0.16874999999998863},{"name":"A4","midi":69,"time":463.49999999999955,"velocity":0.7480314960629921,"duration":0.33749999999997726},{"name":"D4","midi":62,"time":463.49999999999955,"velocity":0.7480314960629921,"duration":0.33749999999997726},{"name":"D5","midi":74,"time":463.49999999999955,"velocity":0.7480314960629921,"duration":0.33749999999997726},{"name":"F#5","midi":78,"time":463.49999999999955,"velocity":0.7480314960629921,"duration":0.33749999999997726},{"name":"D5","midi":74,"time":463.87499999999955,"velocity":0.7480314960629921,"duration":0.33749999999997726},{"name":"A4","midi":69,"time":463.87499999999955,"velocity":0.7480314960629921,"duration":0.33749999999997726},{"name":"D4","midi":62,"time":463.87499999999955,"velocity":0.7480314960629921,"duration":0.33749999999997726},{"name":"F#5","midi":78,"time":463.87499999999955,"velocity":0.7480314960629921,"duration":0.33749999999997726},{"name":"D4","midi":62,"time":464.24999999999955,"velocity":0.7480314960629921,"duration":0.5062500000000227},{"name":"A4","midi":69,"time":464.24999999999955,"velocity":0.7480314960629921,"duration":0.5062500000000227},{"name":"D5","midi":74,"time":464.24999999999955,"velocity":0.7480314960629921,"duration":0.5062500000000227},{"name":"E5","midi":76,"time":464.24999999999955,"velocity":0.7480314960629921,"duration":0.5062500000000227},{"name":"D5","midi":74,"time":464.81249999999955,"velocity":0.7480314960629921,"duration":0.16874999999998863},{"name":"A4","midi":69,"time":464.81249999999955,"velocity":0.7480314960629921,"duration":0.16874999999998863},{"name":"E5","midi":76,"time":464.81249999999955,"velocity":0.7480314960629921,"duration":0.16874999999998863},{"name":"D4","midi":62,"time":464.81249999999955,"velocity":0.7480314960629921,"duration":0.16874999999998863},{"name":"B3","midi":59,"time":464.99999999999955,"velocity":0.7480314960629921,"duration":0.33749999999997726},{"name":"F#5","midi":78,"time":464.99999999999955,"velocity":0.7480314960629921,"duration":0.33749999999997726},{"name":"D5","midi":74,"time":464.99999999999955,"velocity":0.7480314960629921,"duration":0.33749999999997726},{"name":"B4","midi":71,"time":464.99999999999955,"velocity":0.7480314960629921,"duration":0.33749999999997726},{"name":"F#4","midi":66,"time":464.99999999999955,"velocity":0.7480314960629921,"duration":0.33749999999997726},{"name":"D5","midi":74,"time":465.37499999999955,"velocity":0.7480314960629921,"duration":0.33749999999997726},{"name":"F#5","midi":78,"time":465.37499999999955,"velocity":0.7480314960629921,"duration":0.33749999999997726},{"name":"B4","midi":71,"time":465.37499999999955,"velocity":0.7480314960629921,"duration":0.33749999999997726},{"name":"F#4","midi":66,"time":465.37499999999955,"velocity":0.7480314960629921,"duration":0.33749999999997726},{"name":"B3","midi":59,"time":465.37499999999955,"velocity":0.7480314960629921,"duration":0.33749999999997726},{"name":"B3","midi":59,"time":465.74999999999955,"velocity":0.7480314960629921,"duration":0.5062500000000227},{"name":"F#4","midi":66,"time":465.74999999999955,"velocity":0.7480314960629921,"duration":0.5062500000000227},{"name":"B4","midi":71,"time":465.74999999999955,"velocity":0.7480314960629921,"duration":0.5062500000000227},{"name":"D5","midi":74,"time":465.74999999999955,"velocity":0.7480314960629921,"duration":0.5062500000000227},{"name":"E5","midi":76,"time":465.74999999999955,"velocity":0.7480314960629921,"duration":0.5062500000000227},{"name":"B3","midi":59,"time":466.31249999999955,"velocity":0.7480314960629921,"duration":0.16874999999998863},{"name":"B4","midi":71,"time":466.31249999999955,"velocity":0.7480314960629921,"duration":0.16874999999998863},{"name":"F#4","midi":66,"time":466.31249999999955,"velocity":0.7480314960629921,"duration":0.16874999999998863},{"name":"E5","midi":76,"time":466.31249999999955,"velocity":0.7480314960629921,"duration":0.16874999999998863},{"name":"D5","midi":74,"time":466.31249999999955,"velocity":0.7480314960629921,"duration":0.16874999999998863},{"name":"B3","midi":59,"time":466.49999999999955,"velocity":0.7480314960629921,"duration":0.33749999999997726},{"name":"F#4","midi":66,"time":466.49999999999955,"velocity":0.7480314960629921,"duration":0.33749999999997726},{"name":"B4","midi":71,"time":466.49999999999955,"velocity":0.7480314960629921,"duration":0.33749999999997726},{"name":"F#5","midi":78,"time":466.49999999999955,"velocity":0.7480314960629921,"duration":0.33749999999997726},{"name":"D5","midi":74,"time":466.49999999999955,"velocity":0.7480314960629921,"duration":0.33749999999997726},{"name":"F#5","midi":78,"time":466.87499999999955,"velocity":0.7480314960629921,"duration":0.33749999999997726},{"name":"B4","midi":71,"time":466.87499999999955,"velocity":0.7480314960629921,"duration":0.33749999999997726},{"name":"F#4","midi":66,"time":466.87499999999955,"velocity":0.7480314960629921,"duration":0.33749999999997726},{"name":"B3","midi":59,"time":466.87499999999955,"velocity":0.7480314960629921,"duration":0.33749999999997726},{"name":"D5","midi":74,"time":466.87499999999955,"velocity":0.7480314960629921,"duration":0.33749999999997726},{"name":"B3","midi":59,"time":467.24999999999955,"velocity":0.7480314960629921,"duration":0.5062500000000227},{"name":"F#4","midi":66,"time":467.24999999999955,"velocity":0.7480314960629921,"duration":0.5062500000000227},{"name":"B4","midi":71,"time":467.24999999999955,"velocity":0.7480314960629921,"duration":0.5062500000000227},{"name":"D5","midi":74,"time":467.24999999999955,"velocity":0.7480314960629921,"duration":0.5062500000000227},{"name":"E5","midi":76,"time":467.24999999999955,"velocity":0.7480314960629921,"duration":0.5062500000000227},{"name":"B4","midi":71,"time":467.81249999999955,"velocity":0.7480314960629921,"duration":0.16874999999998863},{"name":"F#4","midi":66,"time":467.81249999999955,"velocity":0.7480314960629921,"duration":0.16874999999998863},{"name":"B3","midi":59,"time":467.81249999999955,"velocity":0.7480314960629921,"duration":0.16874999999998863},{"name":"E5","midi":76,"time":467.81249999999955,"velocity":0.7480314960629921,"duration":0.16874999999998863},{"name":"D5","midi":74,"time":467.81249999999955,"velocity":0.7480314960629921,"duration":0.16874999999998863},{"name":"G#4","midi":68,"time":467.99999999999955,"velocity":0.7480314960629921,"duration":0.33749999999997726},{"name":"C#4","midi":61,"time":467.99999999999955,"velocity":0.7480314960629921,"duration":0.33749999999997726},{"name":"F#5","midi":78,"time":467.99999999999955,"velocity":0.7480314960629921,"duration":0.33749999999997726},{"name":"B4","midi":71,"time":467.99999999999955,"velocity":0.7480314960629921,"duration":0.33749999999997726},{"name":"C#4","midi":61,"time":468.37499999999955,"velocity":0.7480314960629921,"duration":0.33749999999997726},{"name":"G#4","midi":68,"time":468.37499999999955,"velocity":0.7480314960629921,"duration":0.33749999999997726},{"name":"B4","midi":71,"time":468.37499999999955,"velocity":0.7480314960629921,"duration":0.33749999999997726},{"name":"F#5","midi":78,"time":468.37499999999955,"velocity":0.7480314960629921,"duration":0.33749999999997726},{"name":"E5","midi":76,"time":468.74999999999955,"velocity":0.7480314960629921,"duration":0.5062500000000227},{"name":"B4","midi":71,"time":468.74999999999955,"velocity":0.7480314960629921,"duration":0.5062500000000227},{"name":"G#4","midi":68,"time":468.74999999999955,"velocity":0.7480314960629921,"duration":0.5062500000000227},{"name":"C#4","midi":61,"time":468.74999999999955,"velocity":0.7480314960629921,"duration":0.5062500000000227},{"name":"E5","midi":76,"time":469.31249999999955,"velocity":0.7480314960629921,"duration":0.16874999999998863},{"name":"B4","midi":71,"time":469.31249999999955,"velocity":0.7480314960629921,"duration":0.16874999999998863},{"name":"G#4","midi":68,"time":469.31249999999955,"velocity":0.7480314960629921,"duration":0.16874999999998863},{"name":"C#4","midi":61,"time":469.31249999999955,"velocity":0.7480314960629921,"duration":0.16874999999998863},{"name":"C#4","midi":61,"time":469.49999999999955,"velocity":0.7480314960629921,"duration":0.33749999999997726},{"name":"F#5","midi":78,"time":469.49999999999955,"velocity":0.7480314960629921,"duration":0.33749999999997726},{"name":"B4","midi":71,"time":469.49999999999955,"velocity":0.7480314960629921,"duration":0.33749999999997726},{"name":"G#4","midi":68,"time":469.49999999999955,"velocity":0.7480314960629921,"duration":0.33749999999997726},{"name":"B4","midi":71,"time":469.87499999999955,"velocity":0.7480314960629921,"duration":0.33749999999997726},{"name":"G#4","midi":68,"time":469.87499999999955,"velocity":0.7480314960629921,"duration":0.33749999999997726},{"name":"C#4","midi":61,"time":469.87499999999955,"velocity":0.7480314960629921,"duration":0.33749999999997726},{"name":"F#5","midi":78,"time":469.87499999999955,"velocity":0.7480314960629921,"duration":0.33749999999997726},{"name":"B4","midi":71,"time":470.24999999999955,"velocity":0.7480314960629921,"duration":0.5062500000000227},{"name":"G#4","midi":68,"time":470.24999999999955,"velocity":0.7480314960629921,"duration":0.5062500000000227},{"name":"E5","midi":76,"time":470.24999999999955,"velocity":0.7480314960629921,"duration":0.5062500000000227},{"name":"C#4","midi":61,"time":470.24999999999955,"velocity":0.7480314960629921,"duration":0.5062500000000227},{"name":"C#4","midi":61,"time":470.81249999999955,"velocity":0.7480314960629921,"duration":0.16874999999998863},{"name":"G#4","midi":68,"time":470.81249999999955,"velocity":0.7480314960629921,"duration":0.16874999999998863},{"name":"B4","midi":71,"time":470.81249999999955,"velocity":0.7480314960629921,"duration":0.16874999999998863},{"name":"E5","midi":76,"time":470.81249999999955,"velocity":0.7480314960629921,"duration":0.16874999999998863},{"name":"D4","midi":62,"time":470.99999999999955,"velocity":0.7480314960629921,"duration":0.33749999999997726},{"name":"F#5","midi":78,"time":470.99999999999955,"velocity":0.7480314960629921,"duration":0.33749999999997726},{"name":"A5","midi":81,"time":470.99999999999955,"velocity":0.7480314960629921,"duration":0.33749999999997726},{"name":"A4","midi":69,"time":470.99999999999955,"velocity":0.7480314960629921,"duration":0.33749999999997726},{"name":"D5","midi":74,"time":470.99999999999955,"velocity":0.7480314960629921,"duration":0.33749999999997726},{"name":"A4","midi":69,"time":471.37499999999955,"velocity":0.7480314960629921,"duration":0.33749999999997726},{"name":"D5","midi":74,"time":471.37499999999955,"velocity":0.7480314960629921,"duration":0.33749999999997726},{"name":"F#5","midi":78,"time":471.37499999999955,"velocity":0.7480314960629921,"duration":0.33749999999997726},{"name":"D4","midi":62,"time":471.37499999999955,"velocity":0.7480314960629921,"duration":0.33749999999997726},{"name":"A5","midi":81,"time":471.37499999999955,"velocity":0.7480314960629921,"duration":0.33749999999997726},{"name":"D4","midi":62,"time":471.74999999999955,"velocity":0.7480314960629921,"duration":0.5062500000000227},{"name":"A4","midi":69,"time":471.74999999999955,"velocity":0.7480314960629921,"duration":0.5062500000000227},{"name":"D5","midi":74,"time":471.74999999999955,"velocity":0.7480314960629921,"duration":0.5062500000000227},{"name":"F#5","midi":78,"time":471.74999999999955,"velocity":0.7480314960629921,"duration":0.5062500000000227},{"name":"A5","midi":81,"time":471.74999999999955,"velocity":0.7480314960629921,"duration":0.5062500000000227},{"name":"A4","midi":69,"time":472.31249999999955,"velocity":0.7480314960629921,"duration":0.16874999999998863},{"name":"D4","midi":62,"time":472.31249999999955,"velocity":0.7480314960629921,"duration":0.16874999999998863},{"name":"A5","midi":81,"time":472.31249999999955,"velocity":0.7480314960629921,"duration":0.16874999999998863},{"name":"D5","midi":74,"time":472.31249999999955,"velocity":0.7480314960629921,"duration":0.16874999999998863},{"name":"F#5","midi":78,"time":472.31249999999955,"velocity":0.7480314960629921,"duration":0.16874999999998863},{"name":"F#5","midi":78,"time":472.49999999999955,"velocity":0.7480314960629921,"duration":0.33749999999997726},{"name":"A5","midi":81,"time":472.49999999999955,"velocity":0.7480314960629921,"duration":0.33749999999997726},{"name":"D4","midi":62,"time":472.49999999999955,"velocity":0.7480314960629921,"duration":0.33749999999997726},{"name":"A4","midi":69,"time":472.49999999999955,"velocity":0.7480314960629921,"duration":0.33749999999997726},{"name":"D5","midi":74,"time":472.49999999999955,"velocity":0.7480314960629921,"duration":0.33749999999997726},{"name":"F#5","midi":78,"time":472.87499999999955,"velocity":0.7480314960629921,"duration":0.33749999999997726},{"name":"D5","midi":74,"time":472.87499999999955,"velocity":0.7480314960629921,"duration":0.33749999999997726},{"name":"A4","midi":69,"time":472.87499999999955,"velocity":0.7480314960629921,"duration":0.33749999999997726},{"name":"D4","midi":62,"time":472.87499999999955,"velocity":0.7480314960629921,"duration":0.33749999999997726},{"name":"A5","midi":81,"time":472.87499999999955,"velocity":0.7480314960629921,"duration":0.33749999999997726},{"name":"D4","midi":62,"time":473.24999999999955,"velocity":0.7480314960629921,"duration":0.5062500000000227},{"name":"A5","midi":81,"time":473.24999999999955,"velocity":0.7480314960629921,"duration":0.5062500000000227},{"name":"F#5","midi":78,"time":473.24999999999955,"velocity":0.7480314960629921,"duration":0.5062500000000227},{"name":"D5","midi":74,"time":473.24999999999955,"velocity":0.7480314960629921,"duration":0.5062500000000227},{"name":"A4","midi":69,"time":473.24999999999955,"velocity":0.7480314960629921,"duration":0.5062500000000227},{"name":"A5","midi":81,"time":473.81249999999955,"velocity":0.7480314960629921,"duration":0.16874999999998863},{"name":"F#5","midi":78,"time":473.81249999999955,"velocity":0.7480314960629921,"duration":0.16874999999998863},{"name":"D5","midi":74,"time":473.81249999999955,"velocity":0.7480314960629921,"duration":0.16874999999998863},{"name":"A4","midi":69,"time":473.81249999999955,"velocity":0.7480314960629921,"duration":0.16874999999998863},{"name":"D4","midi":62,"time":473.81249999999955,"velocity":0.7480314960629921,"duration":0.16874999999998863},{"name":"D4","midi":62,"time":473.99999999999955,"velocity":0.7480314960629921,"duration":0.33749999999997726},{"name":"D5","midi":74,"time":473.99999999999955,"velocity":0.7480314960629921,"duration":0.33749999999997726},{"name":"F#5","midi":78,"time":473.99999999999955,"velocity":0.7480314960629921,"duration":0.33749999999997726},{"name":"A5","midi":81,"time":473.99999999999955,"velocity":0.7480314960629921,"duration":0.33749999999997726},{"name":"A4","midi":69,"time":473.99999999999955,"velocity":0.7480314960629921,"duration":0.33749999999997726},{"name":"A5","midi":81,"time":474.37499999999955,"velocity":0.7480314960629921,"duration":0.33749999999997726},{"name":"F#5","midi":78,"time":474.37499999999955,"velocity":0.7480314960629921,"duration":0.33749999999997726},{"name":"D5","midi":74,"time":474.37499999999955,"velocity":0.7480314960629921,"duration":0.33749999999997726},{"name":"A4","midi":69,"time":474.37499999999955,"velocity":0.7480314960629921,"duration":0.33749999999997726},{"name":"D4","midi":62,"time":474.37499999999955,"velocity":0.7480314960629921,"duration":0.33749999999997726},{"name":"F#5","midi":78,"time":474.74999999999955,"velocity":0.7480314960629921,"duration":0.5062500000000227},{"name":"D5","midi":74,"time":474.74999999999955,"velocity":0.7480314960629921,"duration":0.5062500000000227},{"name":"A4","midi":69,"time":474.74999999999955,"velocity":0.7480314960629921,"duration":0.5062500000000227},{"name":"D4","midi":62,"time":474.74999999999955,"velocity":0.7480314960629921,"duration":0.5062500000000227},{"name":"A5","midi":81,"time":474.74999999999955,"velocity":0.7480314960629921,"duration":0.5062500000000227},{"name":"F#5","midi":78,"time":475.31249999999955,"velocity":0.7480314960629921,"duration":0.16874999999998863},{"name":"D4","midi":62,"time":475.31249999999955,"velocity":0.7480314960629921,"duration":0.16874999999998863},{"name":"A4","midi":69,"time":475.31249999999955,"velocity":0.7480314960629921,"duration":0.16874999999998863},{"name":"A5","midi":81,"time":475.31249999999955,"velocity":0.7480314960629921,"duration":0.16874999999998863},{"name":"D5","midi":74,"time":475.31249999999955,"velocity":0.7480314960629921,"duration":0.16874999999998863},{"name":"A4","midi":69,"time":475.49999999999955,"velocity":0.7480314960629921,"duration":0.33749999999997726},{"name":"A5","midi":81,"time":475.49999999999955,"velocity":0.7480314960629921,"duration":0.33749999999997726},{"name":"D4","midi":62,"time":475.49999999999955,"velocity":0.7480314960629921,"duration":0.33749999999997726},{"name":"D5","midi":74,"time":475.49999999999955,"velocity":0.7480314960629921,"duration":0.33749999999997726},{"name":"F#5","midi":78,"time":475.49999999999955,"velocity":0.7480314960629921,"duration":0.33749999999997726},{"name":"A5","midi":81,"time":475.87499999999955,"velocity":0.7480314960629921,"duration":0.33749999999997726},{"name":"D4","midi":62,"time":475.87499999999955,"velocity":0.7480314960629921,"duration":0.33749999999997726},{"name":"D5","midi":74,"time":475.87499999999955,"velocity":0.7480314960629921,"duration":0.33749999999997726},{"name":"A4","midi":69,"time":475.87499999999955,"velocity":0.7480314960629921,"duration":0.33749999999997726},{"name":"F#5","midi":78,"time":475.87499999999955,"velocity":0.7480314960629921,"duration":0.33749999999997726},{"name":"A5","midi":81,"time":476.24999999999955,"velocity":0.7480314960629921,"duration":0.5062500000000227},{"name":"F#5","midi":78,"time":476.24999999999955,"velocity":0.7480314960629921,"duration":0.5062500000000227},{"name":"D5","midi":74,"time":476.24999999999955,"velocity":0.7480314960629921,"duration":0.5062500000000227},{"name":"A4","midi":69,"time":476.24999999999955,"velocity":0.7480314960629921,"duration":0.5062500000000227},{"name":"D4","midi":62,"time":476.24999999999955,"velocity":0.7480314960629921,"duration":0.5062500000000227},{"name":"D4","midi":62,"time":476.81249999999955,"velocity":0.7480314960629921,"duration":0.16874999999998863},{"name":"A4","midi":69,"time":476.81249999999955,"velocity":0.7480314960629921,"duration":0.16874999999998863},{"name":"D5","midi":74,"time":476.81249999999955,"velocity":0.7480314960629921,"duration":0.16874999999998863},{"name":"F#5","midi":78,"time":476.81249999999955,"velocity":0.7480314960629921,"duration":0.16874999999998863},{"name":"A5","midi":81,"time":476.81249999999955,"velocity":0.7480314960629921,"duration":0.16874999999998863},{"name":"A4","midi":69,"time":476.99999999999955,"velocity":0.7480314960629921,"duration":0.33749999999997726},{"name":"F#5","midi":78,"time":476.99999999999955,"velocity":0.7480314960629921,"duration":0.33749999999997726},{"name":"C#5","midi":73,"time":476.99999999999955,"velocity":0.7480314960629921,"duration":0.33749999999997726},{"name":"A3","midi":57,"time":476.99999999999955,"velocity":0.7480314960629921,"duration":0.33749999999997726},{"name":"E4","midi":64,"time":476.99999999999955,"velocity":0.7480314960629921,"duration":0.33749999999997726},{"name":"F#5","midi":78,"time":477.37499999999955,"velocity":0.7480314960629921,"duration":0.33749999999997726},{"name":"C#5","midi":73,"time":477.37499999999955,"velocity":0.7480314960629921,"duration":0.33749999999997726},{"name":"A4","midi":69,"time":477.37499999999955,"velocity":0.7480314960629921,"duration":0.33749999999997726},{"name":"E4","midi":64,"time":477.37499999999955,"velocity":0.7480314960629921,"duration":0.33749999999997726},{"name":"A3","midi":57,"time":477.37499999999955,"velocity":0.7480314960629921,"duration":0.33749999999997726},{"name":"E5","midi":76,"time":477.74999999999955,"velocity":0.7480314960629921,"duration":0.5062500000000227},{"name":"C#5","midi":73,"time":477.74999999999955,"velocity":0.7480314960629921,"duration":0.5062500000000227},{"name":"A4","midi":69,"time":477.74999999999955,"velocity":0.7480314960629921,"duration":0.5062500000000227},{"name":"E4","midi":64,"time":477.74999999999955,"velocity":0.7480314960629921,"duration":0.5062500000000227},{"name":"A3","midi":57,"time":477.74999999999955,"velocity":0.7480314960629921,"duration":0.5062500000000227},{"name":"E5","midi":76,"time":478.31249999999955,"velocity":0.7480314960629921,"duration":0.16874999999998863},{"name":"C#5","midi":73,"time":478.31249999999955,"velocity":0.7480314960629921,"duration":0.16874999999998863},{"name":"A4","midi":69,"time":478.31249999999955,"velocity":0.7480314960629921,"duration":0.16874999999998863},{"name":"E4","midi":64,"time":478.31249999999955,"velocity":0.7480314960629921,"duration":0.16874999999998863},{"name":"A3","midi":57,"time":478.31249999999955,"velocity":0.7480314960629921,"duration":0.16874999999998863},{"name":"F#5","midi":78,"time":478.49999999999955,"velocity":0.7480314960629921,"duration":0.33749999999997726},{"name":"A3","midi":57,"time":478.49999999999955,"velocity":0.7480314960629921,"duration":0.33749999999997726},{"name":"E4","midi":64,"time":478.49999999999955,"velocity":0.7480314960629921,"duration":0.33749999999997726},{"name":"A4","midi":69,"time":478.49999999999955,"velocity":0.7480314960629921,"duration":0.33749999999997726},{"name":"C#5","midi":73,"time":478.49999999999955,"velocity":0.7480314960629921,"duration":0.33749999999997726},{"name":"A3","midi":57,"time":478.87499999999955,"velocity":0.7480314960629921,"duration":0.33749999999997726},{"name":"E4","midi":64,"time":478.87499999999955,"velocity":0.7480314960629921,"duration":0.33749999999997726},{"name":"A4","midi":69,"time":478.87499999999955,"velocity":0.7480314960629921,"duration":0.33749999999997726},{"name":"C#5","midi":73,"time":478.87499999999955,"velocity":0.7480314960629921,"duration":0.33749999999997726},{"name":"F#5","midi":78,"time":478.87499999999955,"velocity":0.7480314960629921,"duration":0.33749999999997726},{"name":"A4","midi":69,"time":479.24999999999955,"velocity":0.7480314960629921,"duration":0.5062500000000227},{"name":"C#5","midi":73,"time":479.24999999999955,"velocity":0.7480314960629921,"duration":0.5062500000000227},{"name":"E4","midi":64,"time":479.24999999999955,"velocity":0.7480314960629921,"duration":0.5062500000000227},{"name":"E5","midi":76,"time":479.24999999999955,"velocity":0.7480314960629921,"duration":0.5062500000000227},{"name":"A3","midi":57,"time":479.24999999999955,"velocity":0.7480314960629921,"duration":0.5062500000000227},{"name":"E5","midi":76,"time":479.81249999999955,"velocity":0.7480314960629921,"duration":0.16874999999998863},{"name":"C#5","midi":73,"time":479.81249999999955,"velocity":0.7480314960629921,"duration":0.16874999999998863},{"name":"A4","midi":69,"time":479.81249999999955,"velocity":0.7480314960629921,"duration":0.16874999999998863},{"name":"E4","midi":64,"time":479.81249999999955,"velocity":0.7480314960629921,"duration":0.16874999999998863},{"name":"A3","midi":57,"time":479.81249999999955,"velocity":0.7480314960629921,"duration":0.16874999999998863},{"name":"A3","midi":57,"time":479.99999999999955,"velocity":0.7480314960629921,"duration":0.33749999999997726},{"name":"E4","midi":64,"time":479.99999999999955,"velocity":0.7480314960629921,"duration":0.33749999999997726},{"name":"A4","midi":69,"time":479.99999999999955,"velocity":0.7480314960629921,"duration":0.33749999999997726},{"name":"C#5","midi":73,"time":479.99999999999955,"velocity":0.7480314960629921,"duration":0.33749999999997726},{"name":"F#5","midi":78,"time":479.99999999999955,"velocity":0.7480314960629921,"duration":0.33749999999997726},{"name":"A3","midi":57,"time":480.37499999999955,"velocity":0.7480314960629921,"duration":0.33749999999997726},{"name":"F#5","midi":78,"time":480.37499999999955,"velocity":0.7480314960629921,"duration":0.33749999999997726},{"name":"C#5","midi":73,"time":480.37499999999955,"velocity":0.7480314960629921,"duration":0.33749999999997726},{"name":"A4","midi":69,"time":480.37499999999955,"velocity":0.7480314960629921,"duration":0.33749999999997726},{"name":"E4","midi":64,"time":480.37499999999955,"velocity":0.7480314960629921,"duration":0.33749999999997726},{"name":"A4","midi":69,"time":480.74999999999955,"velocity":0.7480314960629921,"duration":0.5062500000000227},{"name":"A3","midi":57,"time":480.74999999999955,"velocity":0.7480314960629921,"duration":0.5062500000000227},{"name":"E5","midi":76,"time":480.74999999999955,"velocity":0.7480314960629921,"duration":0.5062500000000227},{"name":"C#5","midi":73,"time":480.74999999999955,"velocity":0.7480314960629921,"duration":0.5062500000000227},{"name":"E4","midi":64,"time":480.74999999999955,"velocity":0.7480314960629921,"duration":0.5062500000000227},{"name":"E5","midi":76,"time":481.31249999999955,"velocity":0.7480314960629921,"duration":0.16874999999998863},{"name":"C#5","midi":73,"time":481.31249999999955,"velocity":0.7480314960629921,"duration":0.16874999999998863},{"name":"A4","midi":69,"time":481.31249999999955,"velocity":0.7480314960629921,"duration":0.16874999999998863},{"name":"A3","midi":57,"time":481.31249999999955,"velocity":0.7480314960629921,"duration":0.16874999999998863},{"name":"E4","midi":64,"time":481.31249999999955,"velocity":0.7480314960629921,"duration":0.16874999999998863},{"name":"F#5","midi":78,"time":481.49999999999955,"velocity":0.7480314960629921,"duration":0.33749999999997726},{"name":"C#5","midi":73,"time":481.49999999999955,"velocity":0.7480314960629921,"duration":0.33749999999997726},{"name":"A3","midi":57,"time":481.49999999999955,"velocity":0.7480314960629921,"duration":0.33749999999997726},{"name":"E4","midi":64,"time":481.49999999999955,"velocity":0.7480314960629921,"duration":0.33749999999997726},{"name":"A4","midi":69,"time":481.49999999999955,"velocity":0.7480314960629921,"duration":0.33749999999997726},{"name":"E4","midi":64,"time":481.87499999999955,"velocity":0.7480314960629921,"duration":0.33749999999997726},{"name":"F#5","midi":78,"time":481.87499999999955,"velocity":0.7480314960629921,"duration":0.33749999999997726},{"name":"C#5","midi":73,"time":481.87499999999955,"velocity":0.7480314960629921,"duration":0.33749999999997726},{"name":"A4","midi":69,"time":481.87499999999955,"velocity":0.7480314960629921,"duration":0.33749999999997726},{"name":"A3","midi":57,"time":481.87499999999955,"velocity":0.7480314960629921,"duration":0.33749999999997726},{"name":"E5","midi":76,"time":482.24999999999955,"velocity":0.7480314960629921,"duration":0.5062500000000227},{"name":"C#5","midi":73,"time":482.24999999999955,"velocity":0.7480314960629921,"duration":0.5062500000000227},{"name":"A3","midi":57,"time":482.24999999999955,"velocity":0.7480314960629921,"duration":0.5062500000000227},{"name":"E4","midi":64,"time":482.24999999999955,"velocity":0.7480314960629921,"duration":0.5062500000000227},{"name":"A4","midi":69,"time":482.24999999999955,"velocity":0.7480314960629921,"duration":0.5062500000000227},{"name":"E5","midi":76,"time":482.81249999999955,"velocity":0.7480314960629921,"duration":0.16874999999998863},{"name":"A4","midi":69,"time":482.81249999999955,"velocity":0.7480314960629921,"duration":0.16874999999998863},{"name":"E4","midi":64,"time":482.81249999999955,"velocity":0.7480314960629921,"duration":0.16874999999998863},{"name":"A3","midi":57,"time":482.81249999999955,"velocity":0.7480314960629921,"duration":0.16874999999998863},{"name":"C#5","midi":73,"time":482.81249999999955,"velocity":0.7480314960629921,"duration":0.16874999999998863},{"name":"A3","midi":57,"time":482.99999999999955,"velocity":0.7480314960629921,"duration":0.33749999999997726},{"name":"A4","midi":69,"time":482.99999999999955,"velocity":0.7480314960629921,"duration":0.33749999999997726},{"name":"C#5","midi":73,"time":482.99999999999955,"velocity":0.7480314960629921,"duration":0.33749999999997726},{"name":"F#5","midi":78,"time":482.99999999999955,"velocity":0.7480314960629921,"duration":0.33749999999997726},{"name":"E4","midi":64,"time":482.99999999999955,"velocity":0.7480314960629921,"duration":0.33749999999997726},{"name":"A4","midi":69,"time":483.37499999999955,"velocity":0.7480314960629921,"duration":0.33749999999997726},{"name":"A3","midi":57,"time":483.37499999999955,"velocity":0.7480314960629921,"duration":0.33749999999997726},{"name":"E4","midi":64,"time":483.37499999999955,"velocity":0.7480314960629921,"duration":0.33749999999997726},{"name":"C#5","midi":73,"time":483.37499999999955,"velocity":0.7480314960629921,"duration":0.33749999999997726},{"name":"F#5","midi":78,"time":483.37499999999955,"velocity":0.7480314960629921,"duration":0.33749999999997726},{"name":"E4","midi":64,"time":483.74999999999955,"velocity":0.7480314960629921,"duration":0.5062500000000227},{"name":"A3","midi":57,"time":483.74999999999955,"velocity":0.7480314960629921,"duration":0.5062500000000227},{"name":"E5","midi":76,"time":483.74999999999955,"velocity":0.7480314960629921,"duration":0.5062500000000227},{"name":"A4","midi":69,"time":483.74999999999955,"velocity":0.7480314960629921,"duration":0.5062500000000227},{"name":"C#5","midi":73,"time":483.74999999999955,"velocity":0.7480314960629921,"duration":0.5062500000000227},{"name":"E5","midi":76,"time":484.31249999999955,"velocity":0.7480314960629921,"duration":0.16874999999998863},{"name":"A4","midi":69,"time":484.31249999999955,"velocity":0.7480314960629921,"duration":0.16874999999998863},{"name":"E4","midi":64,"time":484.31249999999955,"velocity":0.7480314960629921,"duration":0.16874999999998863},{"name":"A3","midi":57,"time":484.31249999999955,"velocity":0.7480314960629921,"duration":0.16874999999998863},{"name":"C#5","midi":73,"time":484.31249999999955,"velocity":0.7480314960629921,"duration":0.16874999999998863},{"name":"F#5","midi":78,"time":484.49999999999955,"velocity":0.7480314960629921,"duration":0.33749999999997726},{"name":"C#5","midi":73,"time":484.49999999999955,"velocity":0.7480314960629921,"duration":0.33749999999997726},{"name":"A4","midi":69,"time":484.49999999999955,"velocity":0.7480314960629921,"duration":0.33749999999997726},{"name":"E4","midi":64,"time":484.49999999999955,"velocity":0.7480314960629921,"duration":0.33749999999997726},{"name":"A3","midi":57,"time":484.49999999999955,"velocity":0.7480314960629921,"duration":0.33749999999997726},{"name":"A3","midi":57,"time":484.87499999999955,"velocity":0.7480314960629921,"duration":0.33749999999997726},{"name":"E4","midi":64,"time":484.87499999999955,"velocity":0.7480314960629921,"duration":0.33749999999997726},{"name":"A4","midi":69,"time":484.87499999999955,"velocity":0.7480314960629921,"duration":0.33749999999997726},{"name":"C#5","midi":73,"time":484.87499999999955,"velocity":0.7480314960629921,"duration":0.33749999999997726},{"name":"F#5","midi":78,"time":484.87499999999955,"velocity":0.7480314960629921,"duration":0.33749999999997726},{"name":"E5","midi":76,"time":485.24999999999955,"velocity":0.7480314960629921,"duration":0.5062500000000227},{"name":"C#5","midi":73,"time":485.24999999999955,"velocity":0.7480314960629921,"duration":0.5062500000000227},{"name":"A4","midi":69,"time":485.24999999999955,"velocity":0.7480314960629921,"duration":0.5062500000000227},{"name":"E4","midi":64,"time":485.24999999999955,"velocity":0.7480314960629921,"duration":0.5062500000000227},{"name":"A3","midi":57,"time":485.24999999999955,"velocity":0.7480314960629921,"duration":0.5062500000000227},{"name":"A4","midi":69,"time":485.81249999999955,"velocity":0.7480314960629921,"duration":0.16874999999998863},{"name":"E5","midi":76,"time":485.81249999999955,"velocity":0.7480314960629921,"duration":0.16874999999998863},{"name":"C#5","midi":73,"time":485.81249999999955,"velocity":0.7480314960629921,"duration":0.16874999999998863},{"name":"A3","midi":57,"time":485.81249999999955,"velocity":0.7480314960629921,"duration":0.16874999999998863},{"name":"E4","midi":64,"time":485.81249999999955,"velocity":0.7480314960629921,"duration":0.16874999999998863},{"name":"D4","midi":62,"time":485.99999999999955,"velocity":0.7480314960629921,"duration":0.33749999999997726},{"name":"F#5","midi":78,"time":485.99999999999955,"velocity":0.7480314960629921,"duration":0.33749999999997726},{"name":"D5","midi":74,"time":485.99999999999955,"velocity":0.7480314960629921,"duration":0.33749999999997726},{"name":"A4","midi":69,"time":485.99999999999955,"velocity":0.7480314960629921,"duration":0.33749999999997726},{"name":"F#5","midi":78,"time":486.37499999999955,"velocity":0.7480314960629921,"duration":0.33749999999997726},{"name":"D5","midi":74,"time":486.37499999999955,"velocity":0.7480314960629921,"duration":0.33749999999997726},{"name":"A4","midi":69,"time":486.37499999999955,"velocity":0.7480314960629921,"duration":0.33749999999997726},{"name":"D4","midi":62,"time":486.37499999999955,"velocity":0.7480314960629921,"duration":0.33749999999997726},{"name":"E5","midi":76,"time":486.74999999999955,"velocity":0.7480314960629921,"duration":0.5062500000000227},{"name":"D5","midi":74,"time":486.74999999999955,"velocity":0.7480314960629921,"duration":0.5062500000000227},{"name":"A4","midi":69,"time":486.74999999999955,"velocity":0.7480314960629921,"duration":0.5062500000000227},{"name":"D4","midi":62,"time":486.74999999999955,"velocity":0.7480314960629921,"duration":0.5062500000000227},{"name":"D5","midi":74,"time":487.31249999999955,"velocity":0.7480314960629921,"duration":0.16874999999998863},{"name":"A4","midi":69,"time":487.31249999999955,"velocity":0.7480314960629921,"duration":0.16874999999998863},{"name":"D4","midi":62,"time":487.31249999999955,"velocity":0.7480314960629921,"duration":0.16874999999998863},{"name":"E5","midi":76,"time":487.31249999999955,"velocity":0.7480314960629921,"duration":0.16874999999998863},{"name":"D4","midi":62,"time":487.49999999999955,"velocity":0.7480314960629921,"duration":0.33749999999997726},{"name":"A4","midi":69,"time":487.49999999999955,"velocity":0.7480314960629921,"duration":0.33749999999997726},{"name":"D5","midi":74,"time":487.49999999999955,"velocity":0.7480314960629921,"duration":0.33749999999997726},{"name":"F#5","midi":78,"time":487.49999999999955,"velocity":0.7480314960629921,"duration":0.33749999999997726},{"name":"D4","midi":62,"time":487.87499999999955,"velocity":0.7480314960629921,"duration":0.33749999999997726},{"name":"A4","midi":69,"time":487.87499999999955,"velocity":0.7480314960629921,"duration":0.33749999999997726},{"name":"D5","midi":74,"time":487.87499999999955,"velocity":0.7480314960629921,"duration":0.33749999999997726},{"name":"F#5","midi":78,"time":487.87499999999955,"velocity":0.7480314960629921,"duration":0.33749999999997726},{"name":"D4","midi":62,"time":488.24999999999955,"velocity":0.7480314960629921,"duration":0.5062500000000227},{"name":"A4","midi":69,"time":488.24999999999955,"velocity":0.7480314960629921,"duration":0.5062500000000227},{"name":"D5","midi":74,"time":488.24999999999955,"velocity":0.7480314960629921,"duration":0.5062500000000227},{"name":"E5","midi":76,"time":488.24999999999955,"velocity":0.7480314960629921,"duration":0.5062500000000227},{"name":"D4","midi":62,"time":488.81249999999955,"velocity":0.7480314960629921,"duration":0.16874999999998863},{"name":"A4","midi":69,"time":488.81249999999955,"velocity":0.7480314960629921,"duration":0.16874999999998863},{"name":"D5","midi":74,"time":488.81249999999955,"velocity":0.7480314960629921,"duration":0.16874999999998863},{"name":"E5","midi":76,"time":488.81249999999955,"velocity":0.7480314960629921,"duration":0.16874999999998863},{"name":"E5","midi":76,"time":488.99999999999955,"velocity":0.7480314960629921,"duration":0.33749999999997726},{"name":"D5","midi":74,"time":488.99999999999955,"velocity":0.7480314960629921,"duration":0.33749999999997726},{"name":"A4","midi":69,"time":488.99999999999955,"velocity":0.7480314960629921,"duration":0.33749999999997726},{"name":"D4","midi":62,"time":488.99999999999955,"velocity":0.7480314960629921,"duration":0.33749999999997726},{"name":"D4","midi":62,"time":489.37499999999955,"velocity":0.7480314960629921,"duration":0.33749999999997726},{"name":"A4","midi":69,"time":489.37499999999955,"velocity":0.7480314960629921,"duration":0.33749999999997726},{"name":"D5","midi":74,"time":489.37499999999955,"velocity":0.7480314960629921,"duration":0.33749999999997726},{"name":"E5","midi":76,"time":489.37499999999955,"velocity":0.7480314960629921,"duration":0.33749999999997726},{"name":"D4","midi":62,"time":489.74999999999955,"velocity":0.7480314960629921,"duration":0.5062500000000227},{"name":"A4","midi":69,"time":489.74999999999955,"velocity":0.7480314960629921,"duration":0.5062500000000227},{"name":"E5","midi":76,"time":489.74999999999955,"velocity":0.7480314960629921,"duration":0.5062500000000227},{"name":"D5","midi":74,"time":489.74999999999955,"velocity":0.7480314960629921,"duration":0.5062500000000227},{"name":"D5","midi":74,"time":490.31249999999955,"velocity":0.7480314960629921,"duration":0.16874999999998863},{"name":"E5","midi":76,"time":490.31249999999955,"velocity":0.7480314960629921,"duration":0.16874999999998863},{"name":"A4","midi":69,"time":490.31249999999955,"velocity":0.7480314960629921,"duration":0.16874999999998863},{"name":"D4","midi":62,"time":490.31249999999955,"velocity":0.7480314960629921,"duration":0.16874999999998863},{"name":"D5","midi":74,"time":490.49999999999955,"velocity":0.7480314960629921,"duration":0.33749999999997726},{"name":"A4","midi":69,"time":490.49999999999955,"velocity":0.7480314960629921,"duration":0.33749999999997726},{"name":"D4","midi":62,"time":490.49999999999955,"velocity":0.7480314960629921,"duration":0.33749999999997726},{"name":"F#5","midi":78,"time":490.49999999999955,"velocity":0.7480314960629921,"duration":0.33749999999997726},{"name":"F#5","midi":78,"time":490.87499999999955,"velocity":0.7480314960629921,"duration":0.33749999999997726},{"name":"D5","midi":74,"time":490.87499999999955,"velocity":0.7480314960629921,"duration":0.33749999999997726},{"name":"A4","midi":69,"time":490.87499999999955,"velocity":0.7480314960629921,"duration":0.33749999999997726},{"name":"D4","midi":62,"time":490.87499999999955,"velocity":0.7480314960629921,"duration":0.33749999999997726},{"name":"E5","midi":76,"time":491.24999999999955,"velocity":0.7480314960629921,"duration":0.5062500000000227},{"name":"D5","midi":74,"time":491.24999999999955,"velocity":0.7480314960629921,"duration":0.5062500000000227},{"name":"A4","midi":69,"time":491.24999999999955,"velocity":0.7480314960629921,"duration":0.5062500000000227},{"name":"D4","midi":62,"time":491.24999999999955,"velocity":0.7480314960629921,"duration":0.5062500000000227},{"name":"E5","midi":76,"time":491.81249999999955,"velocity":0.7480314960629921,"duration":0.16874999999998863},{"name":"D5","midi":74,"time":491.81249999999955,"velocity":0.7480314960629921,"duration":0.16874999999998863},{"name":"A4","midi":69,"time":491.81249999999955,"velocity":0.7480314960629921,"duration":0.16874999999998863},{"name":"D4","midi":62,"time":491.81249999999955,"velocity":0.7480314960629921,"duration":0.16874999999998863},{"name":"F#4","midi":66,"time":491.99999999999955,"velocity":0.7480314960629921,"duration":0.33749999999997726},{"name":"F#5","midi":78,"time":491.99999999999955,"velocity":0.7480314960629921,"duration":0.33749999999997726},{"name":"B4","midi":71,"time":491.99999999999955,"velocity":0.7480314960629921,"duration":0.33749999999997726},{"name":"B3","midi":59,"time":491.99999999999955,"velocity":0.7480314960629921,"duration":0.33749999999997726},{"name":"D5","midi":74,"time":491.99999999999955,"velocity":0.7480314960629921,"duration":0.33749999999997726},{"name":"F#4","midi":66,"time":492.37499999999955,"velocity":0.7480314960629921,"duration":0.33749999999997726},{"name":"B3","midi":59,"time":492.37499999999955,"velocity":0.7480314960629921,"duration":0.33749999999997726},{"name":"F#5","midi":78,"time":492.37499999999955,"velocity":0.7480314960629921,"duration":0.33749999999997726},{"name":"D5","midi":74,"time":492.37499999999955,"velocity":0.7480314960629921,"duration":0.33749999999997726},{"name":"B4","midi":71,"time":492.37499999999955,"velocity":0.7480314960629921,"duration":0.33749999999997726},{"name":"B3","midi":59,"time":492.74999999999955,"velocity":0.7480314960629921,"duration":0.5062500000000227},{"name":"F#4","midi":66,"time":492.74999999999955,"velocity":0.7480314960629921,"duration":0.5062500000000227},{"name":"B4","midi":71,"time":492.74999999999955,"velocity":0.7480314960629921,"duration":0.5062500000000227},{"name":"D5","midi":74,"time":492.74999999999955,"velocity":0.7480314960629921,"duration":0.5062500000000227},{"name":"E5","midi":76,"time":492.74999999999955,"velocity":0.7480314960629921,"duration":0.5062500000000227},{"name":"E5","midi":76,"time":493.31249999999955,"velocity":0.7480314960629921,"duration":0.16874999999998863},{"name":"B3","midi":59,"time":493.31249999999955,"velocity":0.7480314960629921,"duration":0.16874999999998863},{"name":"D5","midi":74,"time":493.31249999999955,"velocity":0.7480314960629921,"duration":0.16874999999998863},{"name":"B4","midi":71,"time":493.31249999999955,"velocity":0.7480314960629921,"duration":0.16874999999998863},{"name":"F#4","midi":66,"time":493.31249999999955,"velocity":0.7480314960629921,"duration":0.16874999999998863},{"name":"F#5","midi":78,"time":493.49999999999955,"velocity":0.7480314960629921,"duration":0.33749999999997726},{"name":"D5","midi":74,"time":493.49999999999955,"velocity":0.7480314960629921,"duration":0.33749999999997726},{"name":"B3","midi":59,"time":493.49999999999955,"velocity":0.7480314960629921,"duration":0.33749999999997726},{"name":"F#4","midi":66,"time":493.49999999999955,"velocity":0.7480314960629921,"duration":0.33749999999997726},{"name":"B4","midi":71,"time":493.49999999999955,"velocity":0.7480314960629921,"duration":0.33749999999997726},{"name":"F#5","midi":78,"time":493.87499999999955,"velocity":0.7480314960629921,"duration":0.33749999999997726},{"name":"D5","midi":74,"time":493.87499999999955,"velocity":0.7480314960629921,"duration":0.33749999999997726},{"name":"B4","midi":71,"time":493.87499999999955,"velocity":0.7480314960629921,"duration":0.33749999999997726},{"name":"F#4","midi":66,"time":493.87499999999955,"velocity":0.7480314960629921,"duration":0.33749999999997726},{"name":"B3","midi":59,"time":493.87499999999955,"velocity":0.7480314960629921,"duration":0.33749999999997726},{"name":"B4","midi":71,"time":494.24999999999955,"velocity":0.7480314960629921,"duration":0.5062500000000227},{"name":"F#4","midi":66,"time":494.24999999999955,"velocity":0.7480314960629921,"duration":0.5062500000000227},{"name":"B3","midi":59,"time":494.24999999999955,"velocity":0.7480314960629921,"duration":0.5062500000000227},{"name":"E5","midi":76,"time":494.24999999999955,"velocity":0.7480314960629921,"duration":0.5062500000000227},{"name":"D5","midi":74,"time":494.24999999999955,"velocity":0.7480314960629921,"duration":0.5062500000000227},{"name":"D5","midi":74,"time":494.81249999999955,"velocity":0.7480314960629921,"duration":0.16874999999998863},{"name":"B4","midi":71,"time":494.81249999999955,"velocity":0.7480314960629921,"duration":0.16874999999998863},{"name":"F#4","midi":66,"time":494.81249999999955,"velocity":0.7480314960629921,"duration":0.16874999999998863},{"name":"B3","midi":59,"time":494.81249999999955,"velocity":0.7480314960629921,"duration":0.16874999999998863},{"name":"E5","midi":76,"time":494.81249999999955,"velocity":0.7480314960629921,"duration":0.16874999999998863},{"name":"C#4","midi":61,"time":494.99999999999955,"velocity":0.7480314960629921,"duration":0.33749999999997726},{"name":"G#4","midi":68,"time":494.99999999999955,"velocity":0.7480314960629921,"duration":0.33749999999997726},{"name":"B4","midi":71,"time":494.99999999999955,"velocity":0.7480314960629921,"duration":0.33749999999997726},{"name":"F#5","midi":78,"time":494.99999999999955,"velocity":0.7480314960629921,"duration":0.33749999999997726},{"name":"B4","midi":71,"time":495.37499999999955,"velocity":0.7480314960629921,"duration":0.33749999999997726},{"name":"F#5","midi":78,"time":495.37499999999955,"velocity":0.7480314960629921,"duration":0.33749999999997726},{"name":"C#4","midi":61,"time":495.37499999999955,"velocity":0.7480314960629921,"duration":0.33749999999997726},{"name":"G#4","midi":68,"time":495.37499999999955,"velocity":0.7480314960629921,"duration":0.33749999999997726},{"name":"C#4","midi":61,"time":495.74999999999955,"velocity":0.7480314960629921,"duration":0.5062500000000227},{"name":"G#4","midi":68,"time":495.74999999999955,"velocity":0.7480314960629921,"duration":0.5062500000000227},{"name":"B4","midi":71,"time":495.74999999999955,"velocity":0.7480314960629921,"duration":0.5062500000000227},{"name":"E5","midi":76,"time":495.74999999999955,"velocity":0.7480314960629921,"duration":0.5062500000000227},{"name":"B4","midi":71,"time":496.31249999999955,"velocity":0.7480314960629921,"duration":0.16874999999998863},{"name":"C#4","midi":61,"time":496.31249999999955,"velocity":0.7480314960629921,"duration":0.16874999999998863},{"name":"E5","midi":76,"time":496.31249999999955,"velocity":0.7480314960629921,"duration":0.16874999999998863},{"name":"G#4","midi":68,"time":496.31249999999955,"velocity":0.7480314960629921,"duration":0.16874999999998863},{"name":"C#4","midi":61,"time":496.49999999999955,"velocity":0.7480314960629921,"duration":0.33749999999997726},{"name":"F#5","midi":78,"time":496.49999999999955,"velocity":0.7480314960629921,"duration":0.33749999999997726},{"name":"G#4","midi":68,"time":496.49999999999955,"velocity":0.7480314960629921,"duration":0.33749999999997726},{"name":"B4","midi":71,"time":496.49999999999955,"velocity":0.7480314960629921,"duration":0.33749999999997726},{"name":"C#4","midi":61,"time":496.87499999999955,"velocity":0.7480314960629921,"duration":0.33749999999997726},{"name":"G#4","midi":68,"time":496.87499999999955,"velocity":0.7480314960629921,"duration":0.33749999999997726},{"name":"B4","midi":71,"time":496.87499999999955,"velocity":0.7480314960629921,"duration":0.33749999999997726},{"name":"F#5","midi":78,"time":496.87499999999955,"velocity":0.7480314960629921,"duration":0.33749999999997726},{"name":"C#4","midi":61,"time":497.24999999999955,"velocity":0.7480314960629921,"duration":0.5062500000000227},{"name":"G#4","midi":68,"time":497.24999999999955,"velocity":0.7480314960629921,"duration":0.5062500000000227},{"name":"B4","midi":71,"time":497.24999999999955,"velocity":0.7480314960629921,"duration":0.5062500000000227},{"name":"E5","midi":76,"time":497.24999999999955,"velocity":0.7480314960629921,"duration":0.5062500000000227},{"name":"G#4","midi":68,"time":497.81249999999955,"velocity":0.7480314960629921,"duration":0.16874999999998863},{"name":"E5","midi":76,"time":497.81249999999955,"velocity":0.7480314960629921,"duration":0.16874999999998863},{"name":"C#4","midi":61,"time":497.81249999999955,"velocity":0.7480314960629921,"duration":0.16874999999998863},{"name":"B4","midi":71,"time":497.81249999999955,"velocity":0.7480314960629921,"duration":0.16874999999998863},{"name":"F#5","midi":78,"time":497.99999999999955,"velocity":0.7480314960629921,"duration":0.33749999999997726},{"name":"D5","midi":74,"time":497.99999999999955,"velocity":0.7480314960629921,"duration":0.33749999999997726},{"name":"A4","midi":69,"time":497.99999999999955,"velocity":0.7480314960629921,"duration":0.33749999999997726},{"name":"D4","midi":62,"time":497.99999999999955,"velocity":0.7480314960629921,"duration":0.33749999999997726},{"name":"A5","midi":81,"time":497.99999999999955,"velocity":0.7480314960629921,"duration":0.33749999999997726},{"name":"A5","midi":81,"time":498.37499999999955,"velocity":0.7480314960629921,"duration":0.33749999999997726},{"name":"F#5","midi":78,"time":498.37499999999955,"velocity":0.7480314960629921,"duration":0.33749999999997726},{"name":"D5","midi":74,"time":498.37499999999955,"velocity":0.7480314960629921,"duration":0.33749999999997726},{"name":"D4","midi":62,"time":498.37499999999955,"velocity":0.7480314960629921,"duration":0.33749999999997726},{"name":"A4","midi":69,"time":498.37499999999955,"velocity":0.7480314960629921,"duration":0.33749999999997726},{"name":"D4","midi":62,"time":498.74999999999955,"velocity":0.7480314960629921,"duration":0.5062500000000227},{"name":"A5","midi":81,"time":498.74999999999955,"velocity":0.7480314960629921,"duration":0.5062500000000227},{"name":"F#5","midi":78,"time":498.74999999999955,"velocity":0.7480314960629921,"duration":0.5062500000000227},{"name":"D5","midi":74,"time":498.74999999999955,"velocity":0.7480314960629921,"duration":0.5062500000000227},{"name":"A4","midi":69,"time":498.74999999999955,"velocity":0.7480314960629921,"duration":0.5062500000000227},{"name":"D4","midi":62,"time":499.31249999999955,"velocity":0.7480314960629921,"duration":0.16874999999998863},{"name":"A5","midi":81,"time":499.31249999999955,"velocity":0.7480314960629921,"duration":0.16874999999998863},{"name":"F#5","midi":78,"time":499.31249999999955,"velocity":0.7480314960629921,"duration":0.16874999999998863},{"name":"D5","midi":74,"time":499.31249999999955,"velocity":0.7480314960629921,"duration":0.16874999999998863},{"name":"A4","midi":69,"time":499.31249999999955,"velocity":0.7480314960629921,"duration":0.16874999999998863},{"name":"A5","midi":81,"time":499.49999999999955,"velocity":0.7480314960629921,"duration":0.33749999999997726},{"name":"F#5","midi":78,"time":499.49999999999955,"velocity":0.7480314960629921,"duration":0.33749999999997726},{"name":"D5","midi":74,"time":499.49999999999955,"velocity":0.7480314960629921,"duration":0.33749999999997726},{"name":"A4","midi":69,"time":499.49999999999955,"velocity":0.7480314960629921,"duration":0.33749999999997726},{"name":"D4","midi":62,"time":499.49999999999955,"velocity":0.7480314960629921,"duration":0.33749999999997726},{"name":"A4","midi":69,"time":499.87499999999955,"velocity":0.7480314960629921,"duration":0.33749999999997726},{"name":"D5","midi":74,"time":499.87499999999955,"velocity":0.7480314960629921,"duration":0.33749999999997726},{"name":"D4","midi":62,"time":499.87499999999955,"velocity":0.7480314960629921,"duration":0.33749999999997726},{"name":"F#5","midi":78,"time":499.87499999999955,"velocity":0.7480314960629921,"duration":0.33749999999997726},{"name":"A5","midi":81,"time":499.87499999999955,"velocity":0.7480314960629921,"duration":0.33749999999997726},{"name":"A5","midi":81,"time":500.24999999999955,"velocity":0.7480314960629921,"duration":0.5062500000000227},{"name":"D4","midi":62,"time":500.24999999999955,"velocity":0.7480314960629921,"duration":0.5062500000000227},{"name":"F#5","midi":78,"time":500.24999999999955,"velocity":0.7480314960629921,"duration":0.5062500000000227},{"name":"D5","midi":74,"time":500.24999999999955,"velocity":0.7480314960629921,"duration":0.5062500000000227},{"name":"A4","midi":69,"time":500.24999999999955,"velocity":0.7480314960629921,"duration":0.5062500000000227},{"name":"A5","midi":81,"time":500.81249999999955,"velocity":0.7480314960629921,"duration":1.5874999999999773},{"name":"F#5","midi":78,"time":500.81249999999955,"velocity":0.7480314960629921,"duration":1.5874999999999773},{"name":"D4","midi":62,"time":500.81249999999955,"velocity":0.7480314960629921,"duration":1.5874999999999773},{"name":"D5","midi":74,"time":500.81249999999955,"velocity":0.7480314960629921,"duration":1.5874999999999773},{"name":"A4","midi":69,"time":500.81249999999955,"velocity":0.7480314960629921,"duration":1.5874999999999773},{"name":"A5","midi":81,"time":502.49999999999955,"velocity":0.7480314960629921,"duration":0.16874999999998863},{"name":"A3","midi":57,"time":502.49999999999955,"velocity":0.7480314960629921,"duration":0.16874999999998863},{"name":"E4","midi":64,"time":502.49999999999955,"velocity":0.7480314960629921,"duration":0.16874999999998863},{"name":"A4","midi":69,"time":502.49999999999955,"velocity":0.7480314960629921,"duration":0.16874999999998863},{"name":"C5","midi":72,"time":502.49999999999955,"velocity":0.7480314960629921,"duration":0.16874999999998863},{"name":"F5","midi":77,"time":502.49999999999955,"velocity":0.7480314960629921,"duration":0.16874999999998863},{"name":"A5","midi":81,"time":502.68749999999955,"velocity":0.7480314960629921,"duration":0.16874999999998863},{"name":"F5","midi":77,"time":502.68749999999955,"velocity":0.7480314960629921,"duration":0.16874999999998863},{"name":"C5","midi":72,"time":502.68749999999955,"velocity":0.7480314960629921,"duration":0.16874999999998863},{"name":"A4","midi":69,"time":502.68749999999955,"velocity":0.7480314960629921,"duration":0.16874999999998863},{"name":"E4","midi":64,"time":502.68749999999955,"velocity":0.7480314960629921,"duration":0.16874999999998863},{"name":"A3","midi":57,"time":502.68749999999955,"velocity":0.7480314960629921,"duration":0.16874999999998863},{"name":"E4","midi":64,"time":502.87499999999955,"velocity":0.7480314960629921,"duration":0.16874999999998863},{"name":"A5","midi":81,"time":502.87499999999955,"velocity":0.7480314960629921,"duration":0.16874999999998863},{"name":"A4","midi":69,"time":502.87499999999955,"velocity":0.7480314960629921,"duration":0.16874999999998863},{"name":"F5","midi":77,"time":502.87499999999955,"velocity":0.7480314960629921,"duration":0.16874999999998863},{"name":"A3","midi":57,"time":502.87499999999955,"velocity":0.7480314960629921,"duration":0.16874999999998863},{"name":"C5","midi":72,"time":502.87499999999955,"velocity":0.7480314960629921,"duration":0.16874999999998863},{"name":"A5","midi":81,"time":503.06249999999955,"velocity":0.7480314960629921,"duration":0.16874999999998863},{"name":"F5","midi":77,"time":503.06249999999955,"velocity":0.7480314960629921,"duration":0.16874999999998863},{"name":"A4","midi":69,"time":503.06249999999955,"velocity":0.7480314960629921,"duration":0.16874999999998863},{"name":"E4","midi":64,"time":503.06249999999955,"velocity":0.7480314960629921,"duration":0.16874999999998863},{"name":"A3","midi":57,"time":503.06249999999955,"velocity":0.7480314960629921,"duration":0.16874999999998863},{"name":"C5","midi":72,"time":503.06249999999955,"velocity":0.7480314960629921,"duration":0.16874999999998863},{"name":"A5","midi":81,"time":503.24999999999955,"velocity":0.7480314960629921,"duration":0.16874999999998863},{"name":"F5","midi":77,"time":503.24999999999955,"velocity":0.7480314960629921,"duration":0.16874999999998863},{"name":"A3","midi":57,"time":503.24999999999955,"velocity":0.7480314960629921,"duration":0.16874999999998863},{"name":"E4","midi":64,"time":503.24999999999955,"velocity":0.7480314960629921,"duration":0.16874999999998863},{"name":"A4","midi":69,"time":503.24999999999955,"velocity":0.7480314960629921,"duration":0.16874999999998863},{"name":"C5","midi":72,"time":503.24999999999955,"velocity":0.7480314960629921,"duration":0.16874999999998863},{"name":"A5","midi":81,"time":503.43749999999955,"velocity":0.7480314960629921,"duration":0.16874999999998863},{"name":"F5","midi":77,"time":503.43749999999955,"velocity":0.7480314960629921,"duration":0.16874999999998863},{"name":"C5","midi":72,"time":503.43749999999955,"velocity":0.7480314960629921,"duration":0.16874999999998863},{"name":"A4","midi":69,"time":503.43749999999955,"velocity":0.7480314960629921,"duration":0.16874999999998863},{"name":"E4","midi":64,"time":503.43749999999955,"velocity":0.7480314960629921,"duration":0.16874999999998863},{"name":"A3","midi":57,"time":503.43749999999955,"velocity":0.7480314960629921,"duration":0.16874999999998863},{"name":"A4","midi":69,"time":503.62499999999955,"velocity":0.7480314960629921,"duration":0.16874999999998863},{"name":"A5","midi":81,"time":503.62499999999955,"velocity":0.7480314960629921,"duration":0.16874999999998863},{"name":"F5","midi":77,"time":503.62499999999955,"velocity":0.7480314960629921,"duration":0.16874999999998863},{"name":"E4","midi":64,"time":503.62499999999955,"velocity":0.7480314960629921,"duration":0.16874999999998863},{"name":"A3","midi":57,"time":503.62499999999955,"velocity":0.7480314960629921,"duration":0.16874999999998863},{"name":"C5","midi":72,"time":503.62499999999955,"velocity":0.7480314960629921,"duration":0.16874999999998863},{"name":"A5","midi":81,"time":503.81249999999955,"velocity":0.7480314960629921,"duration":0.16874999999998863},{"name":"F5","midi":77,"time":503.81249999999955,"velocity":0.7480314960629921,"duration":0.16874999999998863},{"name":"C5","midi":72,"time":503.81249999999955,"velocity":0.7480314960629921,"duration":0.16874999999998863},{"name":"A4","midi":69,"time":503.81249999999955,"velocity":0.7480314960629921,"duration":0.16874999999998863},{"name":"E4","midi":64,"time":503.81249999999955,"velocity":0.7480314960629921,"duration":0.16874999999998863},{"name":"A3","midi":57,"time":503.81249999999955,"velocity":0.7480314960629921,"duration":0.16874999999998863},{"name":"A5","midi":81,"time":503.99999999999955,"velocity":0.7480314960629921,"duration":0.16874999999998863},{"name":"F5","midi":77,"time":503.99999999999955,"velocity":0.7480314960629921,"duration":0.16874999999998863},{"name":"C5","midi":72,"time":503.99999999999955,"velocity":0.7480314960629921,"duration":0.16874999999998863},{"name":"A4","midi":69,"time":503.99999999999955,"velocity":0.7480314960629921,"duration":0.16874999999998863},{"name":"E4","midi":64,"time":503.99999999999955,"velocity":0.7480314960629921,"duration":0.16874999999998863},{"name":"A3","midi":57,"time":503.99999999999955,"velocity":0.7480314960629921,"duration":0.16874999999998863},{"name":"A5","midi":81,"time":504.18749999999955,"velocity":0.7480314960629921,"duration":0.16874999999998863},{"name":"C5","midi":72,"time":504.18749999999955,"velocity":0.7480314960629921,"duration":0.16874999999998863},{"name":"A4","midi":69,"time":504.18749999999955,"velocity":0.7480314960629921,"duration":0.16874999999998863},{"name":"E4","midi":64,"time":504.18749999999955,"velocity":0.7480314960629921,"duration":0.16874999999998863},{"name":"A3","midi":57,"time":504.18749999999955,"velocity":0.7480314960629921,"duration":0.16874999999998863},{"name":"F5","midi":77,"time":504.18749999999955,"velocity":0.7480314960629921,"duration":0.16874999999998863},{"name":"A4","midi":69,"time":504.37499999999955,"velocity":0.7480314960629921,"duration":0.16874999999998863},{"name":"A3","midi":57,"time":504.37499999999955,"velocity":0.7480314960629921,"duration":0.16874999999998863},{"name":"E4","midi":64,"time":504.37499999999955,"velocity":0.7480314960629921,"duration":0.16874999999998863},{"name":"C5","midi":72,"time":504.37499999999955,"velocity":0.7480314960629921,"duration":0.16874999999998863},{"name":"F5","midi":77,"time":504.37499999999955,"velocity":0.7480314960629921,"duration":0.16874999999998863},{"name":"A5","midi":81,"time":504.37499999999955,"velocity":0.7480314960629921,"duration":0.16874999999998863},{"name":"F5","midi":77,"time":504.56249999999955,"velocity":0.7480314960629921,"duration":0.16874999999998863},{"name":"C5","midi":72,"time":504.56249999999955,"velocity":0.7480314960629921,"duration":0.16874999999998863},{"name":"A4","midi":69,"time":504.56249999999955,"velocity":0.7480314960629921,"duration":0.16874999999998863},{"name":"E4","midi":64,"time":504.56249999999955,"velocity":0.7480314960629921,"duration":0.16874999999998863},{"name":"A3","midi":57,"time":504.56249999999955,"velocity":0.7480314960629921,"duration":0.16874999999998863},{"name":"A5","midi":81,"time":504.56249999999955,"velocity":0.7480314960629921,"duration":0.16874999999998863},{"name":"F5","midi":77,"time":504.74999999999955,"velocity":0.7480314960629921,"duration":0.16874999999998863},{"name":"A3","midi":57,"time":504.74999999999955,"velocity":0.7480314960629921,"duration":0.16874999999998863},{"name":"E4","midi":64,"time":504.74999999999955,"velocity":0.7480314960629921,"duration":0.16874999999998863},{"name":"A4","midi":69,"time":504.74999999999955,"velocity":0.7480314960629921,"duration":0.16874999999998863},{"name":"C5","midi":72,"time":504.74999999999955,"velocity":0.7480314960629921,"duration":0.16874999999998863},{"name":"A5","midi":81,"time":504.74999999999955,"velocity":0.7480314960629921,"duration":0.16874999999998863},{"name":"F5","midi":77,"time":504.93749999999955,"velocity":0.7480314960629921,"duration":0.16874999999998863},{"name":"A3","midi":57,"time":504.93749999999955,"velocity":0.7480314960629921,"duration":0.16874999999998863},{"name":"E4","midi":64,"time":504.93749999999955,"velocity":0.7480314960629921,"duration":0.16874999999998863},{"name":"A4","midi":69,"time":504.93749999999955,"velocity":0.7480314960629921,"duration":0.16874999999998863},{"name":"C5","midi":72,"time":504.93749999999955,"velocity":0.7480314960629921,"duration":0.16874999999998863},{"name":"A5","midi":81,"time":504.93749999999955,"velocity":0.7480314960629921,"duration":0.16874999999998863},{"name":"F5","midi":77,"time":505.12499999999955,"velocity":0.7480314960629921,"duration":0.16874999999998863},{"name":"A5","midi":81,"time":505.12499999999955,"velocity":0.7480314960629921,"duration":0.16874999999998863},{"name":"A3","midi":57,"time":505.12499999999955,"velocity":0.7480314960629921,"duration":0.16874999999998863},{"name":"E4","midi":64,"time":505.12499999999955,"velocity":0.7480314960629921,"duration":0.16874999999998863},{"name":"A4","midi":69,"time":505.12499999999955,"velocity":0.7480314960629921,"duration":0.16874999999998863},{"name":"C5","midi":72,"time":505.12499999999955,"velocity":0.7480314960629921,"duration":0.16874999999998863},{"name":"A5","midi":81,"time":505.31249999999955,"velocity":0.7480314960629921,"duration":0.16874999999998863},{"name":"F5","midi":77,"time":505.31249999999955,"velocity":0.7480314960629921,"duration":0.16874999999998863},{"name":"A3","midi":57,"time":505.31249999999955,"velocity":0.7480314960629921,"duration":0.16874999999998863},{"name":"E4","midi":64,"time":505.31249999999955,"velocity":0.7480314960629921,"duration":0.16874999999998863},{"name":"A4","midi":69,"time":505.31249999999955,"velocity":0.7480314960629921,"duration":0.16874999999998863},{"name":"C5","midi":72,"time":505.31249999999955,"velocity":0.7480314960629921,"duration":0.16874999999998863},{"name":"A5","midi":81,"time":505.49999999999955,"velocity":0.7480314960629921,"duration":0.16874999999998863},{"name":"F5","midi":77,"time":505.49999999999955,"velocity":0.7480314960629921,"duration":0.16874999999998863},{"name":"C5","midi":72,"time":505.49999999999955,"velocity":0.7480314960629921,"duration":0.16874999999998863},{"name":"A4","midi":69,"time":505.49999999999955,"velocity":0.7480314960629921,"duration":0.16874999999998863},{"name":"E4","midi":64,"time":505.49999999999955,"velocity":0.7480314960629921,"duration":0.16874999999998863},{"name":"A3","midi":57,"time":505.49999999999955,"velocity":0.7480314960629921,"duration":0.16874999999998863},{"name":"A3","midi":57,"time":505.68749999999955,"velocity":0.7480314960629921,"duration":0.16874999999998863},{"name":"E4","midi":64,"time":505.68749999999955,"velocity":0.7480314960629921,"duration":0.16874999999998863},{"name":"A4","midi":69,"time":505.68749999999955,"velocity":0.7480314960629921,"duration":0.16874999999998863},{"name":"C5","midi":72,"time":505.68749999999955,"velocity":0.7480314960629921,"duration":0.16874999999998863},{"name":"F5","midi":77,"time":505.68749999999955,"velocity":0.7480314960629921,"duration":0.16874999999998863},{"name":"A5","midi":81,"time":505.68749999999955,"velocity":0.7480314960629921,"duration":0.16874999999998863},{"name":"A5","midi":81,"time":505.87499999999955,"velocity":0.7480314960629921,"duration":0.16874999999998863},{"name":"A3","midi":57,"time":505.87499999999955,"velocity":0.7480314960629921,"duration":0.16874999999998863},{"name":"E4","midi":64,"time":505.87499999999955,"velocity":0.7480314960629921,"duration":0.16874999999998863},{"name":"C5","midi":72,"time":505.87499999999955,"velocity":0.7480314960629921,"duration":0.16874999999998863},{"name":"F5","midi":77,"time":505.87499999999955,"velocity":0.7480314960629921,"duration":0.16874999999998863},{"name":"A4","midi":69,"time":505.87499999999955,"velocity":0.7480314960629921,"duration":0.16874999999998863},{"name":"C5","midi":72,"time":506.06249999999955,"velocity":0.7480314960629921,"duration":0.16874999999998863},{"name":"F5","midi":77,"time":506.06249999999955,"velocity":0.7480314960629921,"duration":0.16874999999998863},{"name":"A4","midi":69,"time":506.06249999999955,"velocity":0.7480314960629921,"duration":0.16874999999998863},{"name":"E4","midi":64,"time":506.06249999999955,"velocity":0.7480314960629921,"duration":0.16874999999998863},{"name":"A3","midi":57,"time":506.06249999999955,"velocity":0.7480314960629921,"duration":0.16874999999998863},{"name":"A5","midi":81,"time":506.06249999999955,"velocity":0.7480314960629921,"duration":0.16874999999998863},{"name":"A3","midi":57,"time":506.24999999999955,"velocity":0.7480314960629921,"duration":0.16874999999998863},{"name":"E4","midi":64,"time":506.24999999999955,"velocity":0.7480314960629921,"duration":0.16874999999998863},{"name":"A4","midi":69,"time":506.24999999999955,"velocity":0.7480314960629921,"duration":0.16874999999998863},{"name":"C5","midi":72,"time":506.24999999999955,"velocity":0.7480314960629921,"duration":0.16874999999998863},{"name":"F5","midi":77,"time":506.24999999999955,"velocity":0.7480314960629921,"duration":0.16874999999998863},{"name":"A5","midi":81,"time":506.24999999999955,"velocity":0.7480314960629921,"duration":0.16874999999998863},{"name":"A5","midi":81,"time":506.43749999999955,"velocity":0.7480314960629921,"duration":0.16874999999998863},{"name":"F5","midi":77,"time":506.43749999999955,"velocity":0.7480314960629921,"duration":0.16874999999998863},{"name":"C5","midi":72,"time":506.43749999999955,"velocity":0.7480314960629921,"duration":0.16874999999998863},{"name":"E4","midi":64,"time":506.43749999999955,"velocity":0.7480314960629921,"duration":0.16874999999998863},{"name":"A3","midi":57,"time":506.43749999999955,"velocity":0.7480314960629921,"duration":0.16874999999998863},{"name":"A4","midi":69,"time":506.43749999999955,"velocity":0.7480314960629921,"duration":0.16874999999998863},{"name":"A3","midi":57,"time":506.62499999999955,"velocity":0.7480314960629921,"duration":0.16874999999998863},{"name":"E4","midi":64,"time":506.62499999999955,"velocity":0.7480314960629921,"duration":0.16874999999998863},{"name":"A4","midi":69,"time":506.62499999999955,"velocity":0.7480314960629921,"duration":0.16874999999998863},{"name":"C5","midi":72,"time":506.62499999999955,"velocity":0.7480314960629921,"duration":0.16874999999998863},{"name":"F5","midi":77,"time":506.62499999999955,"velocity":0.7480314960629921,"duration":0.16874999999998863},{"name":"A5","midi":81,"time":506.62499999999955,"velocity":0.7480314960629921,"duration":0.16874999999998863},{"name":"A4","midi":69,"time":506.81249999999955,"velocity":0.7480314960629921,"duration":0.16874999999998863},{"name":"A5","midi":81,"time":506.81249999999955,"velocity":0.7480314960629921,"duration":0.16874999999998863},{"name":"F5","midi":77,"time":506.81249999999955,"velocity":0.7480314960629921,"duration":0.16874999999998863},{"name":"C5","midi":72,"time":506.81249999999955,"velocity":0.7480314960629921,"duration":0.16874999999998863},{"name":"E4","midi":64,"time":506.81249999999955,"velocity":0.7480314960629921,"duration":0.16874999999998863},{"name":"A3","midi":57,"time":506.81249999999955,"velocity":0.7480314960629921,"duration":0.16874999999998863},{"name":"A5","midi":81,"time":506.99999999999955,"velocity":0.7480314960629921,"duration":0.16874999999998863},{"name":"A3","midi":57,"time":506.99999999999955,"velocity":0.7480314960629921,"duration":0.16874999999998863},{"name":"E4","midi":64,"time":506.99999999999955,"velocity":0.7480314960629921,"duration":0.16874999999998863},{"name":"A4","midi":69,"time":506.99999999999955,"velocity":0.7480314960629921,"duration":0.16874999999998863},{"name":"C5","midi":72,"time":506.99999999999955,"velocity":0.7480314960629921,"duration":0.16874999999998863},{"name":"F5","midi":77,"time":506.99999999999955,"velocity":0.7480314960629921,"duration":0.16874999999998863},{"name":"A3","midi":57,"time":507.18749999999955,"velocity":0.7480314960629921,"duration":0.16874999999998863},{"name":"E4","midi":64,"time":507.18749999999955,"velocity":0.7480314960629921,"duration":0.16874999999998863},{"name":"A4","midi":69,"time":507.18749999999955,"velocity":0.7480314960629921,"duration":0.16874999999998863},{"name":"C5","midi":72,"time":507.18749999999955,"velocity":0.7480314960629921,"duration":0.16874999999998863},{"name":"F5","midi":77,"time":507.18749999999955,"velocity":0.7480314960629921,"duration":0.16874999999998863},{"name":"A5","midi":81,"time":507.18749999999955,"velocity":0.7480314960629921,"duration":0.16874999999998863},{"name":"A4","midi":69,"time":507.37499999999955,"velocity":0.7480314960629921,"duration":0.16874999999998863},{"name":"A3","midi":57,"time":507.37499999999955,"velocity":0.7480314960629921,"duration":0.16874999999998863},{"name":"E4","midi":64,"time":507.37499999999955,"velocity":0.7480314960629921,"duration":0.16874999999998863},{"name":"C5","midi":72,"time":507.37499999999955,"velocity":0.7480314960629921,"duration":0.16874999999998863},{"name":"F5","midi":77,"time":507.37499999999955,"velocity":0.7480314960629921,"duration":0.16874999999998863},{"name":"A5","midi":81,"time":507.37499999999955,"velocity":0.7480314960629921,"duration":0.16874999999998863},{"name":"A5","midi":81,"time":507.56249999999955,"velocity":0.7480314960629921,"duration":0.16874999999998863},{"name":"F5","midi":77,"time":507.56249999999955,"velocity":0.7480314960629921,"duration":0.16874999999998863},{"name":"A4","midi":69,"time":507.56249999999955,"velocity":0.7480314960629921,"duration":0.16874999999998863},{"name":"E4","midi":64,"time":507.56249999999955,"velocity":0.7480314960629921,"duration":0.16874999999998863},{"name":"A3","midi":57,"time":507.56249999999955,"velocity":0.7480314960629921,"duration":0.16874999999998863},{"name":"C5","midi":72,"time":507.56249999999955,"velocity":0.7480314960629921,"duration":0.16874999999998863},{"name":"A5","midi":81,"time":507.74999999999955,"velocity":0.7480314960629921,"duration":0.16874999999998863},{"name":"F5","midi":77,"time":507.74999999999955,"velocity":0.7480314960629921,"duration":0.16874999999998863},{"name":"C5","midi":72,"time":507.74999999999955,"velocity":0.7480314960629921,"duration":0.16874999999998863},{"name":"A4","midi":69,"time":507.74999999999955,"velocity":0.7480314960629921,"duration":0.16874999999998863},{"name":"E4","midi":64,"time":507.74999999999955,"velocity":0.7480314960629921,"duration":0.16874999999998863},{"name":"A3","midi":57,"time":507.74999999999955,"velocity":0.7480314960629921,"duration":0.16874999999998863},{"name":"A5","midi":81,"time":507.93749999999955,"velocity":0.7480314960629921,"duration":0.16874999999998863},{"name":"F5","midi":77,"time":507.93749999999955,"velocity":0.7480314960629921,"duration":0.16874999999998863},{"name":"C5","midi":72,"time":507.93749999999955,"velocity":0.7480314960629921,"duration":0.16874999999998863},{"name":"A4","midi":69,"time":507.93749999999955,"velocity":0.7480314960629921,"duration":0.16874999999998863},{"name":"E4","midi":64,"time":507.93749999999955,"velocity":0.7480314960629921,"duration":0.16874999999998863},{"name":"A3","midi":57,"time":507.93749999999955,"velocity":0.7480314960629921,"duration":0.16874999999998863},{"name":"A3","midi":57,"time":508.12499999999955,"velocity":0.7480314960629921,"duration":0.16874999999998863},{"name":"E4","midi":64,"time":508.12499999999955,"velocity":0.7480314960629921,"duration":0.16874999999998863},{"name":"A4","midi":69,"time":508.12499999999955,"velocity":0.7480314960629921,"duration":0.16874999999998863},{"name":"C5","midi":72,"time":508.12499999999955,"velocity":0.7480314960629921,"duration":0.16874999999998863},{"name":"F5","midi":77,"time":508.12499999999955,"velocity":0.7480314960629921,"duration":0.16874999999998863},{"name":"A5","midi":81,"time":508.12499999999955,"velocity":0.7480314960629921,"duration":0.16874999999998863},{"name":"A3","midi":57,"time":508.31249999999955,"velocity":0.7480314960629921,"duration":0.16874999999998863},{"name":"E4","midi":64,"time":508.31249999999955,"velocity":0.7480314960629921,"duration":0.16874999999998863},{"name":"A4","midi":69,"time":508.31249999999955,"velocity":0.7480314960629921,"duration":0.16874999999998863},{"name":"C5","midi":72,"time":508.31249999999955,"velocity":0.7480314960629921,"duration":0.16874999999998863},{"name":"F5","midi":77,"time":508.31249999999955,"velocity":0.7480314960629921,"duration":0.16874999999998863},{"name":"A5","midi":81,"time":508.31249999999955,"velocity":0.7480314960629921,"duration":0.16874999999998863},{"name":"E4","midi":64,"time":508.49999999999955,"velocity":0.7480314960629921,"duration":14.899999999999977},{"name":"A3","midi":57,"time":508.49999999999955,"velocity":0.7480314960629921,"duration":14.899999999999977},{"name":"A5","midi":81,"time":508.49999999999955,"velocity":0.7480314960629921,"duration":14.899999999999977},{"name":"F5","midi":77,"time":508.49999999999955,"velocity":0.7480314960629921,"duration":14.899999999999977},{"name":"C5","midi":72,"time":508.49999999999955,"velocity":0.7480314960629921,"duration":14.899999999999977},{"name":"A4","midi":69,"time":508.49999999999955,"velocity":0.7480314960629921,"duration":14.899999999999977}]},{"instrumentFamily":"piano","notes":[{"name":"C#5","midi":73,"time":0.75,"velocity":0.7480314960629921,"duration":1.4},{"name":"C#5","midi":73,"time":2.25,"velocity":0.7480314960629921,"duration":1.4},{"name":"C#5","midi":73,"time":3.75,"velocity":0.7480314960629921,"duration":1.4000000000000004},{"name":"C#5","midi":73,"time":5.25,"velocity":0.7480314960629921,"duration":1.4000000000000004},{"name":"G#4","midi":68,"time":6.75,"velocity":0.7480314960629921,"duration":1.4000000000000004},{"name":"G#4","midi":68,"time":8.25,"velocity":0.7480314960629921,"duration":1.4000000000000004},{"name":"G#4","midi":68,"time":9.75,"velocity":0.7480314960629921,"duration":1.4000000000000004},{"name":"G#4","midi":68,"time":11.25,"velocity":0.7480314960629921,"duration":1.4000000000000004},{"name":"F#4","midi":66,"time":12.75,"velocity":0.7480314960629921,"duration":1.4000000000000004},{"name":"F#4","midi":66,"time":14.25,"velocity":0.7480314960629921,"duration":1.4000000000000004},{"name":"F#4","midi":66,"time":15.75,"velocity":0.7480314960629921,"duration":1.3999999999999986},{"name":"F#4","midi":66,"time":17.25,"velocity":0.7480314960629921,"duration":0.3374999999999986},{"name":"F#4","midi":66,"time":17.625,"velocity":0.7480314960629921,"duration":0.3374999999999986},{"name":"A4","midi":69,"time":18,"velocity":0.7480314960629921,"duration":0.3374999999999986},{"name":"C#5","midi":73,"time":18,"velocity":0.7480314960629921,"duration":0.3374999999999986},{"name":"A4","midi":69,"time":18.375,"velocity":0.7480314960629921,"duration":0.6750000000000007},{"name":"C#5","midi":73,"time":18.375,"velocity":0.7480314960629921,"duration":0.6750000000000007},{"name":"A4","midi":69,"time":19.125,"velocity":0.7480314960629921,"duration":0.3374999999999986},{"name":"C#5","midi":73,"time":19.125,"velocity":0.7480314960629921,"duration":0.3374999999999986},{"name":"C#5","midi":73,"time":19.5,"velocity":0.7480314960629921,"duration":0.3374999999999986},{"name":"A4","midi":69,"time":19.5,"velocity":0.7480314960629921,"duration":0.3374999999999986},{"name":"A4","midi":69,"time":19.875,"velocity":0.7480314960629921,"duration":0.6750000000000007},{"name":"C#5","midi":73,"time":19.875,"velocity":0.7480314960629921,"duration":0.6750000000000007},{"name":"A4","midi":69,"time":20.625,"velocity":0.7480314960629921,"duration":0.3374999999999986},{"name":"C#5","midi":73,"time":20.625,"velocity":0.7480314960629921,"duration":0.3374999999999986},{"name":"C#5","midi":73,"time":21,"velocity":0.7480314960629921,"duration":0.3374999999999986},{"name":"A4","midi":69,"time":21,"velocity":0.7480314960629921,"duration":0.3374999999999986},{"name":"C#5","midi":73,"time":21.375,"velocity":0.7480314960629921,"duration":0.6750000000000007},{"name":"A4","midi":69,"time":21.375,"velocity":0.7480314960629921,"duration":0.6750000000000007},{"name":"C#5","midi":73,"time":22.125,"velocity":0.7480314960629921,"duration":0.3374999999999986},{"name":"A4","midi":69,"time":22.125,"velocity":0.7480314960629921,"duration":0.3374999999999986},{"name":"A4","midi":69,"time":22.5,"velocity":0.7480314960629921,"duration":0.3374999999999986},{"name":"C#5","midi":73,"time":22.5,"velocity":0.7480314960629921,"duration":0.3374999999999986},{"name":"A4","midi":69,"time":22.875,"velocity":0.7480314960629921,"duration":0.6750000000000007},{"name":"C#5","midi":73,"time":22.875,"velocity":0.7480314960629921,"duration":0.6750000000000007},{"name":"A4","midi":69,"time":23.625,"velocity":0.7480314960629921,"duration":0.3374999999999986},{"name":"C#5","midi":73,"time":23.625,"velocity":0.7480314960629921,"duration":0.3374999999999986},{"name":"E4","midi":64,"time":24,"velocity":0.7480314960629921,"duration":0.3374999999999986},{"name":"G#4","midi":68,"time":24,"velocity":0.7480314960629921,"duration":0.3374999999999986},{"name":"G#4","midi":68,"time":24.375,"velocity":0.7480314960629921,"duration":0.6750000000000007},{"name":"E4","midi":64,"time":24.375,"velocity":0.7480314960629921,"duration":0.6750000000000007},{"name":"G#4","midi":68,"time":25.125,"velocity":0.7480314960629921,"duration":0.3374999999999986},{"name":"E4","midi":64,"time":25.125,"velocity":0.7480314960629921,"duration":0.3374999999999986},{"name":"G#4","midi":68,"time":25.5,"velocity":0.7480314960629921,"duration":0.3374999999999986},{"name":"E4","midi":64,"time":25.5,"velocity":0.7480314960629921,"duration":0.3374999999999986},{"name":"E4","midi":64,"time":25.875,"velocity":0.7480314960629921,"duration":0.6750000000000007},{"name":"G#4","midi":68,"time":25.875,"velocity":0.7480314960629921,"duration":0.6750000000000007},{"name":"G#4","midi":68,"time":26.625,"velocity":0.7480314960629921,"duration":0.3374999999999986},{"name":"E4","midi":64,"time":26.625,"velocity":0.7480314960629921,"duration":0.3374999999999986},{"name":"G#4","midi":68,"time":27,"velocity":0.7480314960629921,"duration":0.3374999999999986},{"name":"E4","midi":64,"time":27,"velocity":0.7480314960629921,"duration":0.3374999999999986},{"name":"E4","midi":64,"time":27.375,"velocity":0.7480314960629921,"duration":0.6750000000000007},{"name":"G#4","midi":68,"time":27.375,"velocity":0.7480314960629921,"duration":0.6750000000000007},{"name":"G#4","midi":68,"time":28.125,"velocity":0.7480314960629921,"duration":0.3374999999999986},{"name":"E4","midi":64,"time":28.125,"velocity":0.7480314960629921,"duration":0.3374999999999986},{"name":"E4","midi":64,"time":28.5,"velocity":0.7480314960629921,"duration":0.3374999999999986},{"name":"G#4","midi":68,"time":28.5,"velocity":0.7480314960629921,"duration":0.3374999999999986},{"name":"G#4","midi":68,"time":28.875,"velocity":0.7480314960629921,"duration":0.6750000000000007},{"name":"E4","midi":64,"time":28.875,"velocity":0.7480314960629921,"duration":0.6750000000000007},{"name":"E4","midi":64,"time":29.625,"velocity":0.7480314960629921,"duration":0.3374999999999986},{"name":"G#4","midi":68,"time":29.625,"velocity":0.7480314960629921,"duration":0.3374999999999986},{"name":"D4","midi":62,"time":30,"velocity":0.7480314960629921,"duration":0.3374999999999986},{"name":"F#4","midi":66,"time":30,"velocity":0.7480314960629921,"duration":0.3374999999999986},{"name":"F#4","midi":66,"time":30.375,"velocity":0.7480314960629921,"duration":0.6750000000000007},{"name":"D4","midi":62,"time":30.375,"velocity":0.7480314960629921,"duration":0.6750000000000007},{"name":"D4","midi":62,"time":31.125,"velocity":0.7480314960629921,"duration":0.3374999999999986},{"name":"F#4","midi":66,"time":31.125,"velocity":0.7480314960629921,"duration":0.3374999999999986},{"name":"F#4","midi":66,"time":31.5,"velocity":0.7480314960629921,"duration":0.3374999999999986},{"name":"D4","midi":62,"time":31.5,"velocity":0.7480314960629921,"duration":0.3374999999999986},{"name":"D4","midi":62,"time":31.875,"velocity":0.7480314960629921,"duration":0.6749999999999972},{"name":"F#4","midi":66,"time":31.875,"velocity":0.7480314960629921,"duration":0.6749999999999972},{"name":"D4","midi":62,"time":32.625,"velocity":0.7480314960629921,"duration":0.3374999999999986},{"name":"F#4","midi":66,"time":32.625,"velocity":0.7480314960629921,"duration":0.3374999999999986},{"name":"D4","midi":62,"time":33,"velocity":0.7480314960629921,"duration":0.3374999999999986},{"name":"F#4","midi":66,"time":33,"velocity":0.7480314960629921,"duration":0.3374999999999986},{"name":"D4","midi":62,"time":33.375,"velocity":0.7480314960629921,"duration":0.6749999999999972},{"name":"F#4","midi":66,"time":33.375,"velocity":0.7480314960629921,"duration":0.6749999999999972},{"name":"D4","midi":62,"time":34.125,"velocity":0.7480314960629921,"duration":0.3374999999999986},{"name":"F#4","midi":66,"time":34.125,"velocity":0.7480314960629921,"duration":0.3374999999999986},{"name":"F#4","midi":66,"time":34.5,"velocity":0.7480314960629921,"duration":0.3374999999999986},{"name":"D4","midi":62,"time":34.5,"velocity":0.7480314960629921,"duration":0.3374999999999986},{"name":"D4","midi":62,"time":34.875,"velocity":0.7480314960629921,"duration":0.6749999999999972},{"name":"F#4","midi":66,"time":34.875,"velocity":0.7480314960629921,"duration":0.6749999999999972},{"name":"F#4","midi":66,"time":35.625,"velocity":0.7480314960629921,"duration":0.3374999999999986},{"name":"D4","midi":62,"time":35.625,"velocity":0.7480314960629921,"duration":0.3374999999999986},{"name":"G#4","midi":68,"time":36,"velocity":0.7480314960629921,"duration":0.3374999999999986},{"name":"E4","midi":64,"time":36,"velocity":0.7480314960629921,"duration":0.3374999999999986},{"name":"G#4","midi":68,"time":36.375,"velocity":0.7480314960629921,"duration":0.6749999999999972},{"name":"E4","midi":64,"time":36.375,"velocity":0.7480314960629921,"duration":0.6749999999999972},{"name":"G#4","midi":68,"time":37.125,"velocity":0.7480314960629921,"duration":0.3374999999999986},{"name":"E4","midi":64,"time":37.125,"velocity":0.7480314960629921,"duration":0.3374999999999986},{"name":"E4","midi":64,"time":37.5,"velocity":0.7480314960629921,"duration":0.3374999999999986},{"name":"G#4","midi":68,"time":37.5,"velocity":0.7480314960629921,"duration":0.3374999999999986},{"name":"G#4","midi":68,"time":37.875,"velocity":0.7480314960629921,"duration":0.6749999999999972},{"name":"E4","midi":64,"time":37.875,"velocity":0.7480314960629921,"duration":0.6749999999999972},{"name":"E4","midi":64,"time":38.625,"velocity":0.7480314960629921,"duration":0.3374999999999986},{"name":"G#4","midi":68,"time":38.625,"velocity":0.7480314960629921,"duration":0.3374999999999986},{"name":"G#4","midi":68,"time":39,"velocity":0.7480314960629921,"duration":0.3374999999999986},{"name":"E4","midi":64,"time":39,"velocity":0.7480314960629921,"duration":0.3374999999999986},{"name":"E4","midi":64,"time":39.375,"velocity":0.7480314960629921,"duration":0.6749999999999972},{"name":"G#4","midi":68,"time":39.375,"velocity":0.7480314960629921,"duration":0.6749999999999972},{"name":"G#4","midi":68,"time":40.125,"velocity":0.7480314960629921,"duration":0.3374999999999986},{"name":"E4","midi":64,"time":40.125,"velocity":0.7480314960629921,"duration":0.3374999999999986},{"name":"G#4","midi":68,"time":40.5,"velocity":0.7480314960629921,"duration":0.3374999999999986},{"name":"E4","midi":64,"time":40.5,"velocity":0.7480314960629921,"duration":0.3374999999999986},{"name":"G#4","midi":68,"time":40.875,"velocity":0.7480314960629921,"duration":0.6749999999999972},{"name":"E4","midi":64,"time":40.875,"velocity":0.7480314960629921,"duration":0.6749999999999972},{"name":"E4","midi":64,"time":41.625,"velocity":0.7480314960629921,"duration":0.3374999999999986},{"name":"G#4","midi":68,"time":41.625,"velocity":0.7480314960629921,"duration":0.3374999999999986},{"name":"A4","midi":69,"time":42,"velocity":0.7480314960629921,"duration":0.3374999999999986},{"name":"C#5","midi":73,"time":42,"velocity":0.7480314960629921,"duration":0.3374999999999986},{"name":"A4","midi":69,"time":42.375,"velocity":0.7480314960629921,"duration":0.6749999999999972},{"name":"C#5","midi":73,"time":42.375,"velocity":0.7480314960629921,"duration":0.6749999999999972},{"name":"A4","midi":69,"time":43.125,"velocity":0.7480314960629921,"duration":0.3374999999999986},{"name":"C#5","midi":73,"time":43.125,"velocity":0.7480314960629921,"duration":0.3374999999999986},{"name":"C#5","midi":73,"time":43.5,"velocity":0.7480314960629921,"duration":0.3374999999999986},{"name":"A4","midi":69,"time":43.5,"velocity":0.7480314960629921,"duration":0.3374999999999986},{"name":"C#5","midi":73,"time":43.875,"velocity":0.7480314960629921,"duration":0.6749999999999972},{"name":"A4","midi":69,"time":43.875,"velocity":0.7480314960629921,"duration":0.6749999999999972},{"name":"A4","midi":69,"time":44.625,"velocity":0.7480314960629921,"duration":0.3374999999999986},{"name":"C#5","midi":73,"time":44.625,"velocity":0.7480314960629921,"duration":0.3374999999999986},{"name":"C#5","midi":73,"time":45,"velocity":0.7480314960629921,"duration":0.3374999999999986},{"name":"A4","midi":69,"time":45,"velocity":0.7480314960629921,"duration":0.3374999999999986},{"name":"C#5","midi":73,"time":45.375,"velocity":0.7480314960629921,"duration":0.6749999999999972},{"name":"A4","midi":69,"time":45.375,"velocity":0.7480314960629921,"duration":0.6749999999999972},{"name":"A4","midi":69,"time":46.125,"velocity":0.7480314960629921,"duration":0.3374999999999986},{"name":"C#5","midi":73,"time":46.125,"velocity":0.7480314960629921,"duration":0.3374999999999986},{"name":"C#5","midi":73,"time":46.5,"velocity":0.7480314960629921,"duration":0.3374999999999986},{"name":"A4","midi":69,"time":46.5,"velocity":0.7480314960629921,"duration":0.3374999999999986},{"name":"A4","midi":69,"time":46.875,"velocity":0.7480314960629921,"duration":0.6749999999999972},{"name":"C#5","midi":73,"time":46.875,"velocity":0.7480314960629921,"duration":0.6749999999999972},{"name":"A4","midi":69,"time":47.625,"velocity":0.7480314960629921,"duration":0.3374999999999986},{"name":"C#5","midi":73,"time":47.625,"velocity":0.7480314960629921,"duration":0.3374999999999986},{"name":"E4","midi":64,"time":48,"velocity":0.7480314960629921,"duration":0.3374999999999986},{"name":"G#4","midi":68,"time":48,"velocity":0.7480314960629921,"duration":0.3374999999999986},{"name":"E4","midi":64,"time":48.375,"velocity":0.7480314960629921,"duration":0.6749999999999972},{"name":"G#4","midi":68,"time":48.375,"velocity":0.7480314960629921,"duration":0.6749999999999972},{"name":"E4","midi":64,"time":49.125,"velocity":0.7480314960629921,"duration":0.3374999999999986},{"name":"G#4","midi":68,"time":49.125,"velocity":0.7480314960629921,"duration":0.3374999999999986},{"name":"E4","midi":64,"time":49.5,"velocity":0.7480314960629921,"duration":0.3374999999999986},{"name":"G#4","midi":68,"time":49.5,"velocity":0.7480314960629921,"duration":0.3374999999999986},{"name":"E4","midi":64,"time":49.875,"velocity":0.7480314960629921,"duration":0.6749999999999972},{"name":"G#4","midi":68,"time":49.875,"velocity":0.7480314960629921,"duration":0.6749999999999972},{"name":"E4","midi":64,"time":50.625,"velocity":0.7480314960629921,"duration":0.3374999999999986},{"name":"G#4","midi":68,"time":50.625,"velocity":0.7480314960629921,"duration":0.3374999999999986},{"name":"E4","midi":64,"time":51,"velocity":0.7480314960629921,"duration":0.3374999999999986},{"name":"G#4","midi":68,"time":51,"velocity":0.7480314960629921,"duration":0.3374999999999986},{"name":"E4","midi":64,"time":51.375,"velocity":0.7480314960629921,"duration":0.6749999999999972},{"name":"G#4","midi":68,"time":51.375,"velocity":0.7480314960629921,"duration":0.6749999999999972},{"name":"E4","midi":64,"time":52.125,"velocity":0.7480314960629921,"duration":0.3374999999999986},{"name":"G#4","midi":68,"time":52.125,"velocity":0.7480314960629921,"duration":0.3374999999999986},{"name":"E4","midi":64,"time":52.5,"velocity":0.7480314960629921,"duration":0.3374999999999986},{"name":"G#4","midi":68,"time":52.5,"velocity":0.7480314960629921,"duration":0.3374999999999986},{"name":"E4","midi":64,"time":52.875,"velocity":0.7480314960629921,"duration":0.6749999999999972},{"name":"G#4","midi":68,"time":52.875,"velocity":0.7480314960629921,"duration":0.6749999999999972},{"name":"G#4","midi":68,"time":53.625,"velocity":0.7480314960629921,"duration":0.3374999999999986},{"name":"E4","midi":64,"time":53.625,"velocity":0.7480314960629921,"duration":0.3374999999999986},{"name":"F#4","midi":66,"time":54,"velocity":0.7480314960629921,"duration":0.3374999999999986},{"name":"D4","midi":62,"time":54,"velocity":0.7480314960629921,"duration":0.3374999999999986},{"name":"F#4","midi":66,"time":54.375,"velocity":0.7480314960629921,"duration":0.6749999999999972},{"name":"D4","midi":62,"time":54.375,"velocity":0.7480314960629921,"duration":0.6749999999999972},{"name":"D4","midi":62,"time":55.125,"velocity":0.7480314960629921,"duration":0.3374999999999986},{"name":"F#4","midi":66,"time":55.125,"velocity":0.7480314960629921,"duration":0.3374999999999986},{"name":"F#4","midi":66,"time":55.5,"velocity":0.7480314960629921,"duration":0.3374999999999986},{"name":"D4","midi":62,"time":55.5,"velocity":0.7480314960629921,"duration":0.3374999999999986},{"name":"F#4","midi":66,"time":55.875,"velocity":0.7480314960629921,"duration":0.6749999999999972},{"name":"D4","midi":62,"time":55.875,"velocity":0.7480314960629921,"duration":0.6749999999999972},{"name":"D4","midi":62,"time":56.625,"velocity":0.7480314960629921,"duration":0.3374999999999986},{"name":"F#4","midi":66,"time":56.625,"velocity":0.7480314960629921,"duration":0.3374999999999986},{"name":"D4","midi":62,"time":57,"velocity":0.7480314960629921,"duration":0.3374999999999986},{"name":"F#4","midi":66,"time":57,"velocity":0.7480314960629921,"duration":0.3374999999999986},{"name":"F#4","midi":66,"time":57.375,"velocity":0.7480314960629921,"duration":0.6749999999999972},{"name":"D4","midi":62,"time":57.375,"velocity":0.7480314960629921,"duration":0.6749999999999972},{"name":"D4","midi":62,"time":58.125,"velocity":0.7480314960629921,"duration":0.3374999999999986},{"name":"F#4","midi":66,"time":58.125,"velocity":0.7480314960629921,"duration":0.3374999999999986},{"name":"F#4","midi":66,"time":58.5,"velocity":0.7480314960629921,"duration":0.3374999999999986},{"name":"D4","midi":62,"time":58.5,"velocity":0.7480314960629921,"duration":0.3374999999999986},{"name":"D4","midi":62,"time":58.875,"velocity":0.7480314960629921,"duration":0.6749999999999972},{"name":"F#4","midi":66,"time":58.875,"velocity":0.7480314960629921,"duration":0.6749999999999972},{"name":"F#4","midi":66,"time":59.625,"velocity":0.7480314960629921,"duration":0.3374999999999986},{"name":"D4","midi":62,"time":59.625,"velocity":0.7480314960629921,"duration":0.3374999999999986},{"name":"A4","midi":69,"time":60,"velocity":0.7480314960629921,"duration":0.3374999999999986},{"name":"C#5","midi":73,"time":60,"velocity":0.7480314960629921,"duration":0.3374999999999986},{"name":"A4","midi":69,"time":60.375,"velocity":0.7480314960629921,"duration":0.6749999999999972},{"name":"C#5","midi":73,"time":60.375,"velocity":0.7480314960629921,"duration":0.6749999999999972},{"name":"A4","midi":69,"time":61.125,"velocity":0.7480314960629921,"duration":0.3374999999999986},{"name":"C#5","midi":73,"time":61.125,"velocity":0.7480314960629921,"duration":0.3374999999999986},{"name":"A4","midi":69,"time":61.5,"velocity":0.7480314960629921,"duration":0.3374999999999986},{"name":"C#5","midi":73,"time":61.5,"velocity":0.7480314960629921,"duration":0.3374999999999986},{"name":"A4","midi":69,"time":61.875,"velocity":0.7480314960629921,"duration":0.6749999999999972},{"name":"C#5","midi":73,"time":61.875,"velocity":0.7480314960629921,"duration":0.6749999999999972},{"name":"C#5","midi":73,"time":62.625,"velocity":0.7480314960629921,"duration":0.3374999999999986},{"name":"A4","midi":69,"time":62.625,"velocity":0.7480314960629921,"duration":0.3374999999999986},{"name":"A4","midi":69,"time":63,"velocity":0.7480314960629921,"duration":0.3374999999999986},{"name":"C#5","midi":73,"time":63,"velocity":0.7480314960629921,"duration":0.3374999999999986},{"name":"A4","midi":69,"time":63.375,"velocity":0.7480314960629921,"duration":0.6749999999999972},{"name":"C#5","midi":73,"time":63.375,"velocity":0.7480314960629921,"duration":0.6749999999999972},{"name":"C#5","midi":73,"time":64.125,"velocity":0.7480314960629921,"duration":0.3375000000000057},{"name":"A4","midi":69,"time":64.125,"velocity":0.7480314960629921,"duration":0.3375000000000057},{"name":"A4","midi":69,"time":64.5,"velocity":0.7480314960629921,"duration":0.3375000000000057},{"name":"C#5","midi":73,"time":64.5,"velocity":0.7480314960629921,"duration":0.3375000000000057},{"name":"A4","midi":69,"time":64.875,"velocity":0.7480314960629921,"duration":0.6749999999999972},{"name":"C#5","midi":73,"time":64.875,"velocity":0.7480314960629921,"duration":0.6749999999999972},{"name":"A4","midi":69,"time":65.625,"velocity":0.7480314960629921,"duration":0.3375000000000057},{"name":"C#5","midi":73,"time":65.625,"velocity":0.7480314960629921,"duration":0.3375000000000057},{"name":"E4","midi":64,"time":66,"velocity":0.7480314960629921,"duration":0.3375000000000057},{"name":"G#4","midi":68,"time":66,"velocity":0.7480314960629921,"duration":0.3375000000000057},{"name":"E4","midi":64,"time":66.375,"velocity":0.7480314960629921,"duration":0.6749999999999972},{"name":"G#4","midi":68,"time":66.375,"velocity":0.7480314960629921,"duration":0.6749999999999972},{"name":"G#4","midi":68,"time":67.125,"velocity":0.7480314960629921,"duration":0.3375000000000057},{"name":"E4","midi":64,"time":67.125,"velocity":0.7480314960629921,"duration":0.3375000000000057},{"name":"E4","midi":64,"time":67.5,"velocity":0.7480314960629921,"duration":0.3375000000000057},{"name":"G#4","midi":68,"time":67.5,"velocity":0.7480314960629921,"duration":0.3375000000000057},{"name":"E4","midi":64,"time":67.875,"velocity":0.7480314960629921,"duration":0.6749999999999972},{"name":"G#4","midi":68,"time":67.875,"velocity":0.7480314960629921,"duration":0.6749999999999972},{"name":"G#4","midi":68,"time":68.625,"velocity":0.7480314960629921,"duration":0.3375000000000057},{"name":"E4","midi":64,"time":68.625,"velocity":0.7480314960629921,"duration":0.3375000000000057},{"name":"G#4","midi":68,"time":69,"velocity":0.7480314960629921,"duration":0.3375000000000057},{"name":"E4","midi":64,"time":69,"velocity":0.7480314960629921,"duration":0.3375000000000057},{"name":"E4","midi":64,"time":69.375,"velocity":0.7480314960629921,"duration":0.6749999999999972},{"name":"G#4","midi":68,"time":69.375,"velocity":0.7480314960629921,"duration":0.6749999999999972},{"name":"G#4","midi":68,"time":70.125,"velocity":0.7480314960629921,"duration":0.3375000000000057},{"name":"E4","midi":64,"time":70.125,"velocity":0.7480314960629921,"duration":0.3375000000000057},{"name":"G#4","midi":68,"time":70.5,"velocity":0.7480314960629921,"duration":0.3375000000000057},{"name":"E4","midi":64,"time":70.5,"velocity":0.7480314960629921,"duration":0.3375000000000057},{"name":"E4","midi":64,"time":70.875,"velocity":0.7480314960629921,"duration":0.6749999999999972},{"name":"G#4","midi":68,"time":70.875,"velocity":0.7480314960629921,"duration":0.6749999999999972},{"name":"G#4","midi":68,"time":71.625,"velocity":0.7480314960629921,"duration":0.3375000000000057},{"name":"E4","midi":64,"time":71.625,"velocity":0.7480314960629921,"duration":0.3375000000000057},{"name":"F#4","midi":66,"time":72,"velocity":0.7480314960629921,"duration":0.3375000000000057},{"name":"D4","midi":62,"time":72,"velocity":0.7480314960629921,"duration":0.3375000000000057},{"name":"F#4","midi":66,"time":72.375,"velocity":0.7480314960629921,"duration":0.6749999999999972},{"name":"D4","midi":62,"time":72.375,"velocity":0.7480314960629921,"duration":0.6749999999999972},{"name":"F#4","midi":66,"time":73.125,"velocity":0.7480314960629921,"duration":0.3375000000000057},{"name":"D4","midi":62,"time":73.125,"velocity":0.7480314960629921,"duration":0.3375000000000057},{"name":"D4","midi":62,"time":73.5,"velocity":0.7480314960629921,"duration":0.3375000000000057},{"name":"F#4","midi":66,"time":73.5,"velocity":0.7480314960629921,"duration":0.3375000000000057},{"name":"F#4","midi":66,"time":73.875,"velocity":0.7480314960629921,"duration":0.6749999999999972},{"name":"D4","midi":62,"time":73.875,"velocity":0.7480314960629921,"duration":0.6749999999999972},{"name":"F#4","midi":66,"time":74.625,"velocity":0.7480314960629921,"duration":0.3375000000000057},{"name":"D4","midi":62,"time":74.625,"velocity":0.7480314960629921,"duration":0.3375000000000057},{"name":"D4","midi":62,"time":75,"velocity":0.7480314960629921,"duration":0.3375000000000057},{"name":"F#4","midi":66,"time":75,"velocity":0.7480314960629921,"duration":0.3375000000000057},{"name":"D4","midi":62,"time":75.375,"velocity":0.7480314960629921,"duration":0.6749999999999972},{"name":"F#4","midi":66,"time":75.375,"velocity":0.7480314960629921,"duration":0.6749999999999972},{"name":"D4","midi":62,"time":76.125,"velocity":0.7480314960629921,"duration":0.3375000000000057},{"name":"F#4","midi":66,"time":76.125,"velocity":0.7480314960629921,"duration":0.3375000000000057},{"name":"F#4","midi":66,"time":76.5,"velocity":0.7480314960629921,"duration":0.3375000000000057},{"name":"D4","midi":62,"time":76.5,"velocity":0.7480314960629921,"duration":0.3375000000000057},{"name":"D4","midi":62,"time":76.875,"velocity":0.7480314960629921,"duration":0.6749999999999972},{"name":"F#4","midi":66,"time":76.875,"velocity":0.7480314960629921,"duration":0.6749999999999972},{"name":"F#4","midi":66,"time":77.625,"velocity":0.7480314960629921,"duration":0.3375000000000057},{"name":"D4","midi":62,"time":77.625,"velocity":0.7480314960629921,"duration":0.3375000000000057},{"name":"A4","midi":69,"time":78,"velocity":0.7480314960629921,"duration":0.3375000000000057},{"name":"A4","midi":69,"time":78.375,"velocity":0.7480314960629921,"duration":0.3375000000000057},{"name":"E5","midi":76,"time":78.75,"velocity":0.7480314960629921,"duration":0.3375000000000057},{"name":"A4","midi":69,"time":78.75,"velocity":0.7480314960629921,"duration":0.3375000000000057},{"name":"E4","midi":64,"time":78.75,"velocity":0.7480314960629921,"duration":0.3375000000000057},{"name":"A4","midi":69,"time":79.125,"velocity":0.7480314960629921,"duration":0.3375000000000057},{"name":"A4","midi":69,"time":79.5,"velocity":0.7480314960629921,"duration":0.3375000000000057},{"name":"A4","midi":69,"time":79.875,"velocity":0.7480314960629921,"duration":0.3375000000000057},{"name":"E4","midi":64,"time":79.875,"velocity":0.7480314960629921,"duration":0.3375000000000057},{"name":"E5","midi":76,"time":79.875,"velocity":0.7480314960629921,"duration":0.3375000000000057},{"name":"E4","midi":64,"time":80.25,"velocity":0.7480314960629921,"duration":0.3375000000000057},{"name":"A4","midi":69,"time":80.25,"velocity":0.7480314960629921,"duration":0.3375000000000057},{"name":"E5","midi":76,"time":80.25,"velocity":0.7480314960629921,"duration":0.3375000000000057},{"name":"A4","midi":69,"time":80.625,"velocity":0.7480314960629921,"duration":0.3375000000000057},{"name":"A4","midi":69,"time":81,"velocity":0.7480314960629921,"duration":0.3375000000000057},{"name":"E4","midi":64,"time":81.375,"velocity":0.7480314960629921,"duration":0.3375000000000057},{"name":"A4","midi":69,"time":81.375,"velocity":0.7480314960629921,"duration":0.3375000000000057},{"name":"E5","midi":76,"time":81.375,"velocity":0.7480314960629921,"duration":0.3375000000000057},{"name":"E4","midi":64,"time":81.75,"velocity":0.7480314960629921,"duration":0.3375000000000057},{"name":"A4","midi":69,"time":81.75,"velocity":0.7480314960629921,"duration":0.3375000000000057},{"name":"E5","midi":76,"time":81.75,"velocity":0.7480314960629921,"duration":0.3375000000000057},{"name":"A4","midi":69,"time":82.125,"velocity":0.7480314960629921,"duration":0.3375000000000057},{"name":"A4","midi":69,"time":82.5,"velocity":0.7480314960629921,"duration":0.3375000000000057},{"name":"E5","midi":76,"time":82.875,"velocity":0.7480314960629921,"duration":0.3375000000000057},{"name":"E4","midi":64,"time":82.875,"velocity":0.7480314960629921,"duration":0.3375000000000057},{"name":"A4","midi":69,"time":82.875,"velocity":0.7480314960629921,"duration":0.3375000000000057},{"name":"E5","midi":76,"time":83.25,"velocity":0.7480314960629921,"duration":0.3375000000000057},{"name":"A4","midi":69,"time":83.25,"velocity":0.7480314960629921,"duration":0.3375000000000057},{"name":"E4","midi":64,"time":83.25,"velocity":0.7480314960629921,"duration":0.3375000000000057},{"name":"A4","midi":69,"time":83.625,"velocity":0.7480314960629921,"duration":0.3375000000000057},{"name":"C#4","midi":61,"time":84,"velocity":0.7480314960629921,"duration":0.3375000000000057},{"name":"E5","midi":76,"time":84.375,"velocity":0.7480314960629921,"duration":0.3375000000000057},{"name":"E4","midi":64,"time":84.375,"velocity":0.7480314960629921,"duration":0.3375000000000057},{"name":"A4","midi":69,"time":84.375,"velocity":0.7480314960629921,"duration":0.3375000000000057},{"name":"C#4","midi":61,"time":84.375,"velocity":0.7480314960629921,"duration":0.6749999999999972},{"name":"E5","midi":76,"time":84.75,"velocity":0.7480314960629921,"duration":0.3374999999999915},{"name":"G#5","midi":80,"time":84.75,"velocity":0.7480314960629921,"duration":0.3374999999999915},{"name":"C#4","midi":61,"time":85.12499999999999,"velocity":0.7480314960629921,"duration":0.3375000000000057},{"name":"C#4","midi":61,"time":85.49999999999999,"velocity":0.7480314960629921,"duration":0.3375000000000057},{"name":"G#5","midi":80,"time":85.87499999999999,"velocity":0.7480314960629921,"duration":0.3375000000000057},{"name":"C#4","midi":61,"time":85.87499999999999,"velocity":0.7480314960629921,"duration":0.6749999999999972},{"name":"E5","midi":76,"time":85.87499999999999,"velocity":0.7480314960629921,"duration":0.3375000000000057},{"name":"G#5","midi":80,"time":86.24999999999999,"velocity":0.7480314960629921,"duration":0.3374999999999915},{"name":"E5","midi":76,"time":86.24999999999999,"velocity":0.7480314960629921,"duration":0.3374999999999915},{"name":"C#4","midi":61,"time":86.62499999999997,"velocity":0.7480314960629921,"duration":0.3375000000000057},{"name":"C#4","midi":61,"time":86.99999999999997,"velocity":0.7480314960629921,"duration":0.3375000000000057},{"name":"E5","midi":76,"time":87.37499999999997,"velocity":0.7480314960629921,"duration":0.3375000000000057},{"name":"C#4","midi":61,"time":87.37499999999997,"velocity":0.7480314960629921,"duration":0.6749999999999972},{"name":"G#5","midi":80,"time":87.37499999999997,"velocity":0.7480314960629921,"duration":0.3375000000000057},{"name":"E5","midi":76,"time":87.74999999999997,"velocity":0.7480314960629921,"duration":0.3374999999999915},{"name":"G#5","midi":80,"time":87.74999999999997,"velocity":0.7480314960629921,"duration":0.3374999999999915},{"name":"C#4","midi":61,"time":88.12499999999996,"velocity":0.7480314960629921,"duration":0.3375000000000057},{"name":"C#4","midi":61,"time":88.49999999999996,"velocity":0.7480314960629921,"duration":0.3375000000000057},{"name":"E5","midi":76,"time":88.87499999999996,"velocity":0.7480314960629921,"duration":0.3375000000000057},{"name":"C#4","midi":61,"time":88.87499999999996,"velocity":0.7480314960629921,"duration":0.6749999999999972},{"name":"G#5","midi":80,"time":88.87499999999996,"velocity":0.7480314960629921,"duration":0.3375000000000057},{"name":"E5","midi":76,"time":89.24999999999996,"velocity":0.7480314960629921,"duration":0.3374999999999915},{"name":"G#5","midi":80,"time":89.24999999999996,"velocity":0.7480314960629921,"duration":0.3374999999999915},{"name":"C#4","midi":61,"time":89.62499999999994,"velocity":0.7480314960629921,"duration":0.3375000000000057},{"name":"F#4","midi":66,"time":89.99999999999994,"velocity":0.7480314960629921,"duration":0.3375000000000057},{"name":"F#4","midi":66,"time":90.37499999999994,"velocity":0.7480314960629921,"duration":0.3375000000000057},{"name":"E5","midi":76,"time":90.37499999999994,"velocity":0.7480314960629921,"duration":0.3375000000000057},{"name":"G#5","midi":80,"time":90.37499999999994,"velocity":0.7480314960629921,"duration":0.3375000000000057},{"name":"A4","midi":69,"time":90.74999999999994,"velocity":0.7480314960629921,"duration":0.3375000000000057},{"name":"C#5","midi":73,"time":90.74999999999994,"velocity":0.7480314960629921,"duration":0.3375000000000057},{"name":"F#5","midi":78,"time":90.74999999999994,"velocity":0.7480314960629921,"duration":0.3375000000000057},{"name":"A4","midi":69,"time":91.12499999999994,"velocity":0.7480314960629921,"duration":0.3375000000000057},{"name":"A4","midi":69,"time":91.49999999999994,"velocity":0.7480314960629921,"duration":0.3375000000000057},{"name":"F#5","midi":78,"time":91.87499999999994,"velocity":0.7480314960629921,"duration":0.3375000000000057},{"name":"C#5","midi":73,"time":91.87499999999994,"velocity":0.7480314960629921,"duration":0.3375000000000057},{"name":"A4","midi":69,"time":91.87499999999994,"velocity":0.7480314960629921,"duration":0.3375000000000057},{"name":"C#5","midi":73,"time":92.24999999999994,"velocity":0.7480314960629921,"duration":0.3375000000000057},{"name":"A4","midi":69,"time":92.24999999999994,"velocity":0.7480314960629921,"duration":0.3375000000000057},{"name":"F#5","midi":78,"time":92.24999999999994,"velocity":0.7480314960629921,"duration":0.6749999999999972},{"name":"A4","midi":69,"time":92.62499999999994,"velocity":0.7480314960629921,"duration":0.6749999999999972},{"name":"D4","midi":62,"time":92.99999999999994,"velocity":0.7480314960629921,"duration":0.3374999999999915},{"name":"A4","midi":69,"time":93.37499999999993,"velocity":0.7480314960629921,"duration":0.3375000000000057},{"name":"A4","midi":69,"time":93.37499999999993,"velocity":0.7480314960629921,"duration":0.6749999999999972},{"name":"D4","midi":62,"time":93.37499999999993,"velocity":0.7480314960629921,"duration":0.6749999999999972},{"name":"F#5","midi":78,"time":93.37499999999993,"velocity":0.7480314960629921,"duration":0.3375000000000057},{"name":"C#5","midi":73,"time":93.37499999999993,"velocity":0.7480314960629921,"duration":0.3375000000000057},{"name":"F#5","midi":78,"time":93.74999999999993,"velocity":0.7480314960629921,"duration":0.3374999999999915},{"name":"A5","midi":81,"time":93.74999999999993,"velocity":0.7480314960629921,"duration":0.3374999999999915},{"name":"D5","midi":74,"time":93.74999999999993,"velocity":0.7480314960629921,"duration":0.3374999999999915},{"name":"D4","midi":62,"time":94.12499999999991,"velocity":0.7480314960629921,"duration":0.3375000000000057},{"name":"A4","midi":69,"time":94.12499999999991,"velocity":0.7480314960629921,"duration":0.3375000000000057},{"name":"D4","midi":62,"time":94.49999999999991,"velocity":0.7480314960629921,"duration":0.3375000000000057},{"name":"A4","midi":69,"time":94.49999999999991,"velocity":0.7480314960629921,"duration":0.3375000000000057},{"name":"D5","midi":74,"time":94.87499999999991,"velocity":0.7480314960629921,"duration":0.3375000000000057},{"name":"D4","midi":62,"time":94.87499999999991,"velocity":0.7480314960629921,"duration":0.3375000000000057},{"name":"F#5","midi":78,"time":94.87499999999991,"velocity":0.7480314960629921,"duration":0.3375000000000057},{"name":"A5","midi":81,"time":94.87499999999991,"velocity":0.7480314960629921,"duration":0.3375000000000057},{"name":"A4","midi":69,"time":94.87499999999991,"velocity":0.7480314960629921,"duration":0.3375000000000057},{"name":"F#5","midi":78,"time":95.24999999999991,"velocity":0.7480314960629921,"duration":0.3375000000000057},{"name":"A5","midi":81,"time":95.24999999999991,"velocity":0.7480314960629921,"duration":0.3375000000000057},{"name":"D5","midi":74,"time":95.24999999999991,"velocity":0.7480314960629921,"duration":0.3375000000000057},{"name":"D4","midi":62,"time":95.62499999999991,"velocity":0.7480314960629921,"duration":0.3375000000000057},{"name":"A4","midi":69,"time":95.62499999999991,"velocity":0.7480314960629921,"duration":0.3375000000000057},{"name":"A4","midi":69,"time":95.99999999999991,"velocity":0.7480314960629921,"duration":0.3375000000000057},{"name":"D4","midi":62,"time":95.99999999999991,"velocity":0.7480314960629921,"duration":0.3375000000000057},{"name":"A5","midi":81,"time":96.37499999999991,"velocity":0.7480314960629921,"duration":0.3375000000000057},{"name":"A4","midi":69,"time":96.37499999999991,"velocity":0.7480314960629921,"duration":0.6749999999999972},{"name":"D4","midi":62,"time":96.37499999999991,"velocity":0.7480314960629921,"duration":0.3375000000000057},{"name":"D5","midi":74,"time":96.37499999999991,"velocity":0.7480314960629921,"duration":0.3375000000000057},{"name":"F#5","midi":78,"time":96.37499999999991,"velocity":0.7480314960629921,"duration":0.3375000000000057},{"name":"A5","midi":81,"time":96.74999999999991,"velocity":0.7480314960629921,"duration":0.3374999999999915},{"name":"D5","midi":74,"time":96.74999999999991,"velocity":0.7480314960629921,"duration":0.3374999999999915},{"name":"F#5","midi":78,"time":96.74999999999991,"velocity":0.7480314960629921,"duration":0.3374999999999915},{"name":"A4","midi":69,"time":97.1249999999999,"velocity":0.7480314960629921,"duration":0.3375000000000057},{"name":"D4","midi":62,"time":97.1249999999999,"velocity":0.7480314960629921,"duration":0.3375000000000057},{"name":"D4","midi":62,"time":97.4999999999999,"velocity":0.7480314960629921,"duration":0.3375000000000057},{"name":"A4","midi":69,"time":97.4999999999999,"velocity":0.7480314960629921,"duration":0.3375000000000057},{"name":"F#5","midi":78,"time":97.8749999999999,"velocity":0.7480314960629921,"duration":0.3375000000000057},{"name":"A5","midi":81,"time":97.8749999999999,"velocity":0.7480314960629921,"duration":0.3375000000000057},{"name":"D5","midi":74,"time":97.8749999999999,"velocity":0.7480314960629921,"duration":0.3375000000000057},{"name":"D4","midi":62,"time":97.8749999999999,"velocity":0.7480314960629921,"duration":0.3375000000000057},{"name":"A4","midi":69,"time":97.8749999999999,"velocity":0.7480314960629921,"duration":0.6749999999999972},{"name":"D5","midi":74,"time":98.2499999999999,"velocity":0.7480314960629921,"duration":0.3374999999999915},{"name":"F#5","midi":78,"time":98.2499999999999,"velocity":0.7480314960629921,"duration":0.3374999999999915},{"name":"A5","midi":81,"time":98.2499999999999,"velocity":0.7480314960629921,"duration":0.3374999999999915},{"name":"A4","midi":69,"time":98.62499999999989,"velocity":0.7480314960629921,"duration":0.6750000000000114},{"name":"D4","midi":62,"time":98.62499999999989,"velocity":0.7480314960629921,"duration":0.3375000000000057},{"name":"A4","midi":69,"time":99.3749999999999,"velocity":0.7480314960629921,"duration":0.3375000000000057},{"name":"A4","midi":69,"time":99.3749999999999,"velocity":0.7480314960629921,"duration":0.3375000000000057},{"name":"D4","midi":62,"time":99.3749999999999,"velocity":0.7480314960629921,"duration":0.3375000000000057},{"name":"E4","midi":64,"time":99.7499999999999,"velocity":0.7480314960629921,"duration":0.3375000000000057},{"name":"A4","midi":69,"time":99.7499999999999,"velocity":0.7480314960629921,"duration":0.3375000000000057},{"name":"E5","midi":76,"time":99.7499999999999,"velocity":0.7480314960629921,"duration":0.3375000000000057},{"name":"A4","midi":69,"time":100.1249999999999,"velocity":0.7480314960629921,"duration":0.3375000000000057},{"name":"A4","midi":69,"time":100.4999999999999,"velocity":0.7480314960629921,"duration":0.3375000000000057},{"name":"E4","midi":64,"time":100.8749999999999,"velocity":0.7480314960629921,"duration":0.3375000000000057},{"name":"A4","midi":69,"time":100.8749999999999,"velocity":0.7480314960629921,"duration":0.3375000000000057},{"name":"E5","midi":76,"time":100.8749999999999,"velocity":0.7480314960629921,"duration":0.3375000000000057},{"name":"E5","midi":76,"time":101.2499999999999,"velocity":0.7480314960629921,"duration":0.3375000000000057},{"name":"A4","midi":69,"time":101.2499999999999,"velocity":0.7480314960629921,"duration":0.3375000000000057},{"name":"E4","midi":64,"time":101.2499999999999,"velocity":0.7480314960629921,"duration":0.3375000000000057},{"name":"A4","midi":69,"time":101.6249999999999,"velocity":0.7480314960629921,"duration":0.3375000000000057},{"name":"A4","midi":69,"time":101.9999999999999,"velocity":0.7480314960629921,"duration":0.3375000000000057},{"name":"E4","midi":64,"time":102.3749999999999,"velocity":0.7480314960629921,"duration":0.3375000000000057},{"name":"A4","midi":69,"time":102.3749999999999,"velocity":0.7480314960629921,"duration":0.3375000000000057},{"name":"E5","midi":76,"time":102.3749999999999,"velocity":0.7480314960629921,"duration":0.3375000000000057},{"name":"E5","midi":76,"time":102.7499999999999,"velocity":0.7480314960629921,"duration":0.3375000000000057},{"name":"A4","midi":69,"time":102.7499999999999,"velocity":0.7480314960629921,"duration":0.3375000000000057},{"name":"E4","midi":64,"time":102.7499999999999,"velocity":0.7480314960629921,"duration":0.3375000000000057},{"name":"A4","midi":69,"time":103.1249999999999,"velocity":0.7480314960629921,"duration":0.3375000000000057},{"name":"A4","midi":69,"time":103.4999999999999,"velocity":0.7480314960629921,"duration":0.3375000000000057},{"name":"E4","midi":64,"time":103.8749999999999,"velocity":0.7480314960629921,"duration":0.3375000000000057},{"name":"E5","midi":76,"time":103.8749999999999,"velocity":0.7480314960629921,"duration":0.3375000000000057},{"name":"A4","midi":69,"time":103.8749999999999,"velocity":0.7480314960629921,"duration":0.3375000000000057},{"name":"E4","midi":64,"time":104.2499999999999,"velocity":0.7480314960629921,"duration":0.3375000000000057},{"name":"E5","midi":76,"time":104.2499999999999,"velocity":0.7480314960629921,"duration":0.3375000000000057},{"name":"A4","midi":69,"time":104.2499999999999,"velocity":0.7480314960629921,"duration":0.3375000000000057},{"name":"A4","midi":69,"time":104.6249999999999,"velocity":0.7480314960629921,"duration":0.3375000000000057},{"name":"C#4","midi":61,"time":104.9999999999999,"velocity":0.7480314960629921,"duration":0.3375000000000057},{"name":"C#4","midi":61,"time":105.3749999999999,"velocity":0.7480314960629921,"duration":0.6749999999999972},{"name":"E4","midi":64,"time":105.3749999999999,"velocity":0.7480314960629921,"duration":0.3375000000000057},{"name":"A4","midi":69,"time":105.3749999999999,"velocity":0.7480314960629921,"duration":0.3375000000000057},{"name":"E5","midi":76,"time":105.3749999999999,"velocity":0.7480314960629921,"duration":0.3375000000000057},{"name":"G#5","midi":80,"time":105.7499999999999,"velocity":0.7480314960629921,"duration":0.3374999999999915},{"name":"E5","midi":76,"time":105.7499999999999,"velocity":0.7480314960629921,"duration":0.3374999999999915},{"name":"C#4","midi":61,"time":106.12499999999989,"velocity":0.7480314960629921,"duration":0.3375000000000057},{"name":"C#4","midi":61,"time":106.49999999999989,"velocity":0.7480314960629921,"duration":0.3375000000000057},{"name":"E5","midi":76,"time":106.87499999999989,"velocity":0.7480314960629921,"duration":0.3375000000000057},{"name":"G#5","midi":80,"time":106.87499999999989,"velocity":0.7480314960629921,"duration":0.3375000000000057},{"name":"C#4","midi":61,"time":106.87499999999989,"velocity":0.7480314960629921,"duration":0.6749999999999972},{"name":"G#5","midi":80,"time":107.24999999999989,"velocity":0.7480314960629921,"duration":0.3374999999999915},{"name":"E5","midi":76,"time":107.24999999999989,"velocity":0.7480314960629921,"duration":0.3374999999999915},{"name":"C#4","midi":61,"time":107.62499999999987,"velocity":0.7480314960629921,"duration":0.3375000000000057},{"name":"C#4","midi":61,"time":107.99999999999987,"velocity":0.7480314960629921,"duration":0.3375000000000057},{"name":"C#4","midi":61,"time":108.37499999999987,"velocity":0.7480314960629921,"duration":0.6749999999999972},{"name":"G#5","midi":80,"time":108.37499999999987,"velocity":0.7480314960629921,"duration":0.3375000000000057},{"name":"E5","midi":76,"time":108.37499999999987,"velocity":0.7480314960629921,"duration":0.3375000000000057},{"name":"G#5","midi":80,"time":108.74999999999987,"velocity":0.7480314960629921,"duration":0.3374999999999915},{"name":"E5","midi":76,"time":108.74999999999987,"velocity":0.7480314960629921,"duration":0.3374999999999915},{"name":"C#4","midi":61,"time":109.12499999999986,"velocity":0.7480314960629921,"duration":0.3375000000000057},{"name":"C#4","midi":61,"time":109.49999999999986,"velocity":0.7480314960629921,"duration":0.3375000000000057},{"name":"G#5","midi":80,"time":109.87499999999986,"velocity":0.7480314960629921,"duration":0.3375000000000057},{"name":"C#4","midi":61,"time":109.87499999999986,"velocity":0.7480314960629921,"duration":0.6749999999999972},{"name":"E5","midi":76,"time":109.87499999999986,"velocity":0.7480314960629921,"duration":0.3375000000000057},{"name":"E5","midi":76,"time":110.24999999999986,"velocity":0.7480314960629921,"duration":0.3374999999999915},{"name":"G#5","midi":80,"time":110.24999999999986,"velocity":0.7480314960629921,"duration":0.3374999999999915},{"name":"C#4","midi":61,"time":110.62499999999984,"velocity":0.7480314960629921,"duration":0.3375000000000057},{"name":"F#4","midi":66,"time":110.99999999999984,"velocity":0.7480314960629921,"duration":0.3375000000000057},{"name":"F#4","midi":66,"time":111.37499999999984,"velocity":0.7480314960629921,"duration":0.3375000000000057},{"name":"G#5","midi":80,"time":111.37499999999984,"velocity":0.7480314960629921,"duration":0.3375000000000057},{"name":"E5","midi":76,"time":111.37499999999984,"velocity":0.7480314960629921,"duration":0.3375000000000057},{"name":"C#5","midi":73,"time":111.74999999999984,"velocity":0.7480314960629921,"duration":0.3375000000000057},{"name":"F#5","midi":78,"time":111.74999999999984,"velocity":0.7480314960629921,"duration":0.3375000000000057},{"name":"A4","midi":69,"time":111.74999999999984,"velocity":0.7480314960629921,"duration":0.3375000000000057},{"name":"A4","midi":69,"time":112.12499999999984,"velocity":0.7480314960629921,"duration":0.3375000000000057},{"name":"A4","midi":69,"time":112.49999999999984,"velocity":0.7480314960629921,"duration":0.3375000000000057},{"name":"A4","midi":69,"time":112.87499999999984,"velocity":0.7480314960629921,"duration":0.3375000000000057},{"name":"F#5","midi":78,"time":112.87499999999984,"velocity":0.7480314960629921,"duration":0.3375000000000057},{"name":"C#5","midi":73,"time":112.87499999999984,"velocity":0.7480314960629921,"duration":0.3375000000000057},{"name":"C#5","midi":73,"time":113.24999999999984,"velocity":0.7480314960629921,"duration":0.3375000000000057},{"name":"F#5","midi":78,"time":113.24999999999984,"velocity":0.7480314960629921,"duration":0.6749999999999972},{"name":"A4","midi":69,"time":113.24999999999984,"velocity":0.7480314960629921,"duration":0.3375000000000057},{"name":"A4","midi":69,"time":113.62499999999984,"velocity":0.7480314960629921,"duration":0.6749999999999972},{"name":"D4","midi":62,"time":113.99999999999984,"velocity":0.7480314960629921,"duration":0.3374999999999915},{"name":"A4","midi":69,"time":114.37499999999983,"velocity":0.7480314960629921,"duration":0.3375000000000057},{"name":"D4","midi":62,"time":114.37499999999983,"velocity":0.7480314960629921,"duration":0.6749999999999972},{"name":"C#5","midi":73,"time":114.37499999999983,"velocity":0.7480314960629921,"duration":0.3375000000000057},{"name":"A4","midi":69,"time":114.37499999999983,"velocity":0.7480314960629921,"duration":0.6749999999999972},{"name":"F#5","midi":78,"time":114.37499999999983,"velocity":0.7480314960629921,"duration":0.3375000000000057},{"name":"D5","midi":74,"time":114.74999999999983,"velocity":0.7480314960629921,"duration":0.3374999999999915},{"name":"F#5","midi":78,"time":114.74999999999983,"velocity":0.7480314960629921,"duration":0.3374999999999915},{"name":"A5","midi":81,"time":114.74999999999983,"velocity":0.7480314960629921,"duration":0.3374999999999915},{"name":"A4","midi":69,"time":115.12499999999982,"velocity":0.7480314960629921,"duration":0.3375000000000057},{"name":"D4","midi":62,"time":115.12499999999982,"velocity":0.7480314960629921,"duration":0.3375000000000057},{"name":"D4","midi":62,"time":115.49999999999982,"velocity":0.7480314960629921,"duration":0.3375000000000057},{"name":"A4","midi":69,"time":115.49999999999982,"velocity":0.7480314960629921,"duration":0.3375000000000057},{"name":"D4","midi":62,"time":115.87499999999982,"velocity":0.7480314960629921,"duration":0.3375000000000057},{"name":"A4","midi":69,"time":115.87499999999982,"velocity":0.7480314960629921,"duration":0.3375000000000057},{"name":"F#5","midi":78,"time":115.87499999999982,"velocity":0.7480314960629921,"duration":0.3375000000000057},{"name":"A5","midi":81,"time":115.87499999999982,"velocity":0.7480314960629921,"duration":0.3375000000000057},{"name":"D5","midi":74,"time":115.87499999999982,"velocity":0.7480314960629921,"duration":0.3375000000000057},{"name":"F#5","midi":78,"time":116.24999999999982,"velocity":0.7480314960629921,"duration":0.3375000000000057},{"name":"A5","midi":81,"time":116.24999999999982,"velocity":0.7480314960629921,"duration":0.3375000000000057},{"name":"D5","midi":74,"time":116.24999999999982,"velocity":0.7480314960629921,"duration":0.3375000000000057},{"name":"D4","midi":62,"time":116.62499999999982,"velocity":0.7480314960629921,"duration":0.3375000000000057},{"name":"A4","midi":69,"time":116.62499999999982,"velocity":0.7480314960629921,"duration":0.3375000000000057},{"name":"A4","midi":69,"time":116.99999999999982,"velocity":0.7480314960629921,"duration":0.3375000000000057},{"name":"D4","midi":62,"time":116.99999999999982,"velocity":0.7480314960629921,"duration":0.3375000000000057},{"name":"D4","midi":62,"time":117.37499999999982,"velocity":0.7480314960629921,"duration":0.3375000000000057},{"name":"F#5","midi":78,"time":117.37499999999982,"velocity":0.7480314960629921,"duration":0.3375000000000057},{"name":"D5","midi":74,"time":117.37499999999982,"velocity":0.7480314960629921,"duration":0.3375000000000057},{"name":"A5","midi":81,"time":117.37499999999982,"velocity":0.7480314960629921,"duration":0.3375000000000057},{"name":"A4","midi":69,"time":117.37499999999982,"velocity":0.7480314960629921,"duration":0.6749999999999972},{"name":"D5","midi":74,"time":117.74999999999982,"velocity":0.7480314960629921,"duration":0.3374999999999915},{"name":"A5","midi":81,"time":117.74999999999982,"velocity":0.7480314960629921,"duration":0.3374999999999915},{"name":"F#5","midi":78,"time":117.74999999999982,"velocity":0.7480314960629921,"duration":0.3374999999999915},{"name":"A4","midi":69,"time":118.1249999999998,"velocity":0.7480314960629921,"duration":0.3375000000000057},{"name":"D4","midi":62,"time":118.1249999999998,"velocity":0.7480314960629921,"duration":0.3375000000000057},{"name":"A4","midi":69,"time":118.4999999999998,"velocity":0.7480314960629921,"duration":0.3375000000000057},{"name":"D4","midi":62,"time":118.4999999999998,"velocity":0.7480314960629921,"duration":0.3375000000000057},{"name":"D5","midi":74,"time":118.8749999999998,"velocity":0.7480314960629921,"duration":0.3375000000000057},{"name":"F#5","midi":78,"time":118.8749999999998,"velocity":0.7480314960629921,"duration":0.3375000000000057},{"name":"A5","midi":81,"time":118.8749999999998,"velocity":0.7480314960629921,"duration":0.3375000000000057},{"name":"A4","midi":69,"time":118.8749999999998,"velocity":0.7480314960629921,"duration":0.6749999999999972},{"name":"D4","midi":62,"time":118.8749999999998,"velocity":0.7480314960629921,"duration":0.3375000000000057},{"name":"D5","midi":74,"time":119.2499999999998,"velocity":0.7480314960629921,"duration":0.3374999999999915},{"name":"A5","midi":81,"time":119.2499999999998,"velocity":0.7480314960629921,"duration":0.3374999999999915},{"name":"F#5","midi":78,"time":119.2499999999998,"velocity":0.7480314960629921,"duration":0.3374999999999915},{"name":"A4","midi":69,"time":119.62499999999979,"velocity":0.7480314960629921,"duration":0.3375000000000057},{"name":"D4","midi":62,"time":119.62499999999979,"velocity":0.7480314960629921,"duration":0.3375000000000057},{"name":"C#5","midi":73,"time":120.74999999999979,"velocity":0.7480314960629921,"duration":1.4000000000000057},{"name":"C#5","midi":73,"time":122.24999999999979,"velocity":0.7480314960629921,"duration":1.4000000000000057},{"name":"C#5","midi":73,"time":123.74999999999979,"velocity":0.7480314960629921,"duration":1.4000000000000057},{"name":"C#5","midi":73,"time":125.24999999999979,"velocity":0.7480314960629921,"duration":1.4000000000000057},{"name":"G#4","midi":68,"time":126.74999999999979,"velocity":0.7480314960629921,"duration":1.3999999999999915},{"name":"G#4","midi":68,"time":128.24999999999977,"velocity":0.7480314960629921,"duration":1.4000000000000057},{"name":"G#4","midi":68,"time":129.74999999999977,"velocity":0.7480314960629921,"duration":1.4000000000000057},{"name":"G#4","midi":68,"time":131.24999999999977,"velocity":0.7480314960629921,"duration":1.4000000000000057},{"name":"F#4","midi":66,"time":132.74999999999977,"velocity":0.7480314960629921,"duration":1.4000000000000057},{"name":"F#4","midi":66,"time":134.24999999999977,"velocity":0.7480314960629921,"duration":1.4000000000000057},{"name":"F#4","midi":66,"time":135.74999999999977,"velocity":0.7480314960629921,"duration":1.4000000000000057},{"name":"F#4","midi":66,"time":137.24999999999977,"velocity":0.7480314960629921,"duration":1.4000000000000057},{"name":"C#5","midi":73,"time":138.74999999999977,"velocity":0.7480314960629921,"duration":1.4000000000000057},{"name":"C#5","midi":73,"time":140.24999999999977,"velocity":0.7480314960629921,"duration":1.4000000000000057},{"name":"C#5","midi":73,"time":141.74999999999977,"velocity":0.7480314960629921,"duration":1.4000000000000057},{"name":"C#5","midi":73,"time":143.24999999999977,"velocity":0.7480314960629921,"duration":1.4000000000000057},{"name":"G#4","midi":68,"time":144.74999999999977,"velocity":0.7480314960629921,"duration":1.4000000000000057},{"name":"G#4","midi":68,"time":146.24999999999977,"velocity":0.7480314960629921,"duration":1.4000000000000057},{"name":"G#4","midi":68,"time":147.74999999999977,"velocity":0.7480314960629921,"duration":1.4000000000000057},{"name":"G#4","midi":68,"time":149.24999999999977,"velocity":0.7480314960629921,"duration":1.4000000000000057},{"name":"F#4","midi":66,"time":150.74999999999977,"velocity":0.7480314960629921,"duration":1.4000000000000057},{"name":"F#4","midi":66,"time":152.24999999999977,"velocity":0.7480314960629921,"duration":1.4000000000000057},{"name":"F#4","midi":66,"time":153.74999999999977,"velocity":0.7480314960629921,"duration":1.4000000000000057},{"name":"F#4","midi":66,"time":155.24999999999977,"velocity":0.7480314960629921,"duration":0.3375000000000057},{"name":"F#4","midi":66,"time":155.62499999999977,"velocity":0.7480314960629921,"duration":0.3375000000000057},{"name":"A4","midi":69,"time":155.99999999999977,"velocity":0.7480314960629921,"duration":0.3375000000000057},{"name":"A4","midi":69,"time":156.37499999999977,"velocity":0.7480314960629921,"duration":0.3375000000000057},{"name":"E5","midi":76,"time":156.74999999999977,"velocity":0.7480314960629921,"duration":0.3375000000000057},{"name":"A4","midi":69,"time":156.74999999999977,"velocity":0.7480314960629921,"duration":0.3375000000000057},{"name":"E4","midi":64,"time":156.74999999999977,"velocity":0.7480314960629921,"duration":0.3375000000000057},{"name":"A4","midi":69,"time":157.12499999999977,"velocity":0.7480314960629921,"duration":0.3375000000000057},{"name":"A4","midi":69,"time":157.49999999999977,"velocity":0.7480314960629921,"duration":0.3375000000000057},{"name":"E5","midi":76,"time":157.87499999999977,"velocity":0.7480314960629921,"duration":0.3375000000000057},{"name":"E4","midi":64,"time":157.87499999999977,"velocity":0.7480314960629921,"duration":0.3375000000000057},{"name":"A4","midi":69,"time":157.87499999999977,"velocity":0.7480314960629921,"duration":0.3375000000000057},{"name":"E5","midi":76,"time":158.24999999999977,"velocity":0.7480314960629921,"duration":0.3375000000000057},{"name":"E4","midi":64,"time":158.24999999999977,"velocity":0.7480314960629921,"duration":0.3375000000000057},{"name":"A4","midi":69,"time":158.24999999999977,"velocity":0.7480314960629921,"duration":0.3375000000000057},{"name":"A4","midi":69,"time":158.62499999999977,"velocity":0.7480314960629921,"duration":0.3375000000000057},{"name":"A4","midi":69,"time":158.99999999999977,"velocity":0.7480314960629921,"duration":0.3375000000000057},{"name":"E4","midi":64,"time":159.37499999999977,"velocity":0.7480314960629921,"duration":0.3375000000000057},{"name":"E5","midi":76,"time":159.37499999999977,"velocity":0.7480314960629921,"duration":0.3375000000000057},{"name":"A4","midi":69,"time":159.37499999999977,"velocity":0.7480314960629921,"duration":0.3375000000000057},{"name":"E4","midi":64,"time":159.74999999999977,"velocity":0.7480314960629921,"duration":0.3375000000000057},{"name":"A4","midi":69,"time":159.74999999999977,"velocity":0.7480314960629921,"duration":0.3375000000000057},{"name":"E5","midi":76,"time":159.74999999999977,"velocity":0.7480314960629921,"duration":0.3375000000000057},{"name":"A4","midi":69,"time":160.12499999999977,"velocity":0.7480314960629921,"duration":0.3375000000000057},{"name":"A4","midi":69,"time":160.49999999999977,"velocity":0.7480314960629921,"duration":0.3375000000000057},{"name":"E4","midi":64,"time":160.87499999999977,"velocity":0.7480314960629921,"duration":0.3375000000000057},{"name":"E5","midi":76,"time":160.87499999999977,"velocity":0.7480314960629921,"duration":0.3375000000000057},{"name":"A4","midi":69,"time":160.87499999999977,"velocity":0.7480314960629921,"duration":0.3375000000000057},{"name":"E4","midi":64,"time":161.24999999999977,"velocity":0.7480314960629921,"duration":0.3375000000000057},{"name":"A4","midi":69,"time":161.24999999999977,"velocity":0.7480314960629921,"duration":0.3375000000000057},{"name":"E5","midi":76,"time":161.24999999999977,"velocity":0.7480314960629921,"duration":0.3375000000000057},{"name":"A4","midi":69,"time":161.62499999999977,"velocity":0.7480314960629921,"duration":0.3375000000000057},{"name":"C#4","midi":61,"time":161.99999999999977,"velocity":0.7480314960629921,"duration":0.3375000000000057},{"name":"E4","midi":64,"time":162.37499999999977,"velocity":0.7480314960629921,"duration":0.3375000000000057},{"name":"C#4","midi":61,"time":162.37499999999977,"velocity":0.7480314960629921,"duration":0.6750000000000114},{"name":"E5","midi":76,"time":162.37499999999977,"velocity":0.7480314960629921,"duration":0.3375000000000057},{"name":"A4","midi":69,"time":162.37499999999977,"velocity":0.7480314960629921,"duration":0.3375000000000057},{"name":"G#5","midi":80,"time":162.74999999999977,"velocity":0.7480314960629921,"duration":0.3375000000000057},{"name":"E5","midi":76,"time":162.74999999999977,"velocity":0.7480314960629921,"duration":0.3375000000000057},{"name":"C#4","midi":61,"time":163.12499999999977,"velocity":0.7480314960629921,"duration":0.3375000000000057},{"name":"C#4","midi":61,"time":163.49999999999977,"velocity":0.7480314960629921,"duration":0.3375000000000057},{"name":"E5","midi":76,"time":163.87499999999977,"velocity":0.7480314960629921,"duration":0.3375000000000057},{"name":"G#5","midi":80,"time":163.87499999999977,"velocity":0.7480314960629921,"duration":0.3375000000000057},{"name":"C#4","midi":61,"time":163.87499999999977,"velocity":0.7480314960629921,"duration":0.6750000000000114},{"name":"G#5","midi":80,"time":164.24999999999977,"velocity":0.7480314960629921,"duration":0.3375000000000057},{"name":"E5","midi":76,"time":164.24999999999977,"velocity":0.7480314960629921,"duration":0.3375000000000057},{"name":"C#4","midi":61,"time":164.62499999999977,"velocity":0.7480314960629921,"duration":0.3375000000000057},{"name":"C#4","midi":61,"time":164.99999999999977,"velocity":0.7480314960629921,"duration":0.3375000000000057},{"name":"E5","midi":76,"time":165.37499999999977,"velocity":0.7480314960629921,"duration":0.3375000000000057},{"name":"C#4","midi":61,"time":165.37499999999977,"velocity":0.7480314960629921,"duration":0.6750000000000114},{"name":"G#5","midi":80,"time":165.37499999999977,"velocity":0.7480314960629921,"duration":0.3375000000000057},{"name":"G#5","midi":80,"time":165.74999999999977,"velocity":0.7480314960629921,"duration":0.3375000000000057},{"name":"E5","midi":76,"time":165.74999999999977,"velocity":0.7480314960629921,"duration":0.3375000000000057},{"name":"C#4","midi":61,"time":166.12499999999977,"velocity":0.7480314960629921,"duration":0.3375000000000057},{"name":"C#4","midi":61,"time":166.49999999999977,"velocity":0.7480314960629921,"duration":0.3375000000000057},{"name":"G#5","midi":80,"time":166.87499999999977,"velocity":0.7480314960629921,"duration":0.3375000000000057},{"name":"C#4","midi":61,"time":166.87499999999977,"velocity":0.7480314960629921,"duration":0.6750000000000114},{"name":"E5","midi":76,"time":166.87499999999977,"velocity":0.7480314960629921,"duration":0.3375000000000057},{"name":"E5","midi":76,"time":167.24999999999977,"velocity":0.7480314960629921,"duration":0.3375000000000057},{"name":"G#5","midi":80,"time":167.24999999999977,"velocity":0.7480314960629921,"duration":0.3375000000000057},{"name":"C#4","midi":61,"time":167.62499999999977,"velocity":0.7480314960629921,"duration":0.3375000000000057},{"name":"F#4","midi":66,"time":167.99999999999977,"velocity":0.7480314960629921,"duration":0.3375000000000057},{"name":"F#4","midi":66,"time":168.37499999999977,"velocity":0.7480314960629921,"duration":0.3375000000000057},{"name":"E5","midi":76,"time":168.37499999999977,"velocity":0.7480314960629921,"duration":0.3375000000000057},{"name":"G#5","midi":80,"time":168.37499999999977,"velocity":0.7480314960629921,"duration":0.3375000000000057},{"name":"A4","midi":69,"time":168.74999999999977,"velocity":0.7480314960629921,"duration":0.3375000000000057},{"name":"F#5","midi":78,"time":168.74999999999977,"velocity":0.7480314960629921,"duration":0.3375000000000057},{"name":"C#5","midi":73,"time":168.74999999999977,"velocity":0.7480314960629921,"duration":0.3375000000000057},{"name":"A4","midi":69,"time":169.12499999999977,"velocity":0.7480314960629921,"duration":0.3375000000000057},{"name":"A4","midi":69,"time":169.49999999999977,"velocity":0.7480314960629921,"duration":0.3375000000000057},{"name":"C#5","midi":73,"time":169.87499999999977,"velocity":0.7480314960629921,"duration":0.3375000000000057},{"name":"F#5","midi":78,"time":169.87499999999977,"velocity":0.7480314960629921,"duration":0.3375000000000057},{"name":"A4","midi":69,"time":169.87499999999977,"velocity":0.7480314960629921,"duration":0.3375000000000057},{"name":"A4","midi":69,"time":170.24999999999977,"velocity":0.7480314960629921,"duration":0.3375000000000057},{"name":"C#5","midi":73,"time":170.24999999999977,"velocity":0.7480314960629921,"duration":0.3375000000000057},{"name":"F#5","midi":78,"time":170.24999999999977,"velocity":0.7480314960629921,"duration":0.6750000000000114},{"name":"A4","midi":69,"time":170.62499999999977,"velocity":0.7480314960629921,"duration":0.6750000000000114},{"name":"D4","midi":62,"time":170.99999999999977,"velocity":0.7480314960629921,"duration":0.3375000000000057},{"name":"F#5","midi":78,"time":171.37499999999977,"velocity":0.7480314960629921,"duration":0.3375000000000057},{"name":"C#5","midi":73,"time":171.37499999999977,"velocity":0.7480314960629921,"duration":0.3375000000000057},{"name":"A4","midi":69,"time":171.37499999999977,"velocity":0.7480314960629921,"duration":0.3375000000000057},{"name":"D4","midi":62,"time":171.37499999999977,"velocity":0.7480314960629921,"duration":0.6750000000000114},{"name":"A4","midi":69,"time":171.37499999999977,"velocity":0.7480314960629921,"duration":0.6750000000000114},{"name":"D5","midi":74,"time":171.74999999999977,"velocity":0.7480314960629921,"duration":0.3375000000000057},{"name":"F#5","midi":78,"time":171.74999999999977,"velocity":0.7480314960629921,"duration":0.3375000000000057},{"name":"A5","midi":81,"time":171.74999999999977,"velocity":0.7480314960629921,"duration":0.3375000000000057},{"name":"A4","midi":69,"time":172.12499999999977,"velocity":0.7480314960629921,"duration":0.3375000000000057},{"name":"D4","midi":62,"time":172.12499999999977,"velocity":0.7480314960629921,"duration":0.3375000000000057},{"name":"D4","midi":62,"time":172.49999999999977,"velocity":0.7480314960629921,"duration":0.3375000000000057},{"name":"A4","midi":69,"time":172.49999999999977,"velocity":0.7480314960629921,"duration":0.3375000000000057},{"name":"D4","midi":62,"time":172.87499999999977,"velocity":0.7480314960629921,"duration":0.3375000000000057},{"name":"A4","midi":69,"time":172.87499999999977,"velocity":0.7480314960629921,"duration":0.3375000000000057},{"name":"D5","midi":74,"time":172.87499999999977,"velocity":0.7480314960629921,"duration":0.3375000000000057},{"name":"F#5","midi":78,"time":172.87499999999977,"velocity":0.7480314960629921,"duration":0.3375000000000057},{"name":"A5","midi":81,"time":172.87499999999977,"velocity":0.7480314960629921,"duration":0.3375000000000057},{"name":"D5","midi":74,"time":173.24999999999977,"velocity":0.7480314960629921,"duration":0.3375000000000057},{"name":"F#5","midi":78,"time":173.24999999999977,"velocity":0.7480314960629921,"duration":0.3375000000000057},{"name":"A5","midi":81,"time":173.24999999999977,"velocity":0.7480314960629921,"duration":0.3375000000000057},{"name":"D4","midi":62,"time":173.62499999999977,"velocity":0.7480314960629921,"duration":0.3375000000000057},{"name":"A4","midi":69,"time":173.62499999999977,"velocity":0.7480314960629921,"duration":0.3375000000000057},{"name":"D4","midi":62,"time":173.99999999999977,"velocity":0.7480314960629921,"duration":0.3375000000000057},{"name":"A4","midi":69,"time":173.99999999999977,"velocity":0.7480314960629921,"duration":0.3375000000000057},{"name":"A4","midi":69,"time":174.37499999999977,"velocity":0.7480314960629921,"duration":0.6750000000000114},{"name":"A5","midi":81,"time":174.37499999999977,"velocity":0.7480314960629921,"duration":0.3375000000000057},{"name":"D5","midi":74,"time":174.37499999999977,"velocity":0.7480314960629921,"duration":0.3375000000000057},{"name":"F#5","midi":78,"time":174.37499999999977,"velocity":0.7480314960629921,"duration":0.3375000000000057},{"name":"D4","midi":62,"time":174.37499999999977,"velocity":0.7480314960629921,"duration":0.3375000000000057},{"name":"D5","midi":74,"time":174.74999999999977,"velocity":0.7480314960629921,"duration":0.3375000000000057},{"name":"F#5","midi":78,"time":174.74999999999977,"velocity":0.7480314960629921,"duration":0.3375000000000057},{"name":"A5","midi":81,"time":174.74999999999977,"velocity":0.7480314960629921,"duration":0.3375000000000057},{"name":"A4","midi":69,"time":175.12499999999977,"velocity":0.7480314960629921,"duration":0.3375000000000057},{"name":"D4","midi":62,"time":175.12499999999977,"velocity":0.7480314960629921,"duration":0.3375000000000057},{"name":"A4","midi":69,"time":175.49999999999977,"velocity":0.7480314960629921,"duration":0.3375000000000057},{"name":"D4","midi":62,"time":175.49999999999977,"velocity":0.7480314960629921,"duration":0.3375000000000057},{"name":"D4","midi":62,"time":175.87499999999977,"velocity":0.7480314960629921,"duration":0.3375000000000057},{"name":"D5","midi":74,"time":175.87499999999977,"velocity":0.7480314960629921,"duration":0.3375000000000057},{"name":"A5","midi":81,"time":175.87499999999977,"velocity":0.7480314960629921,"duration":0.3375000000000057},{"name":"A4","midi":69,"time":175.87499999999977,"velocity":0.7480314960629921,"duration":0.6750000000000114},{"name":"F#5","midi":78,"time":175.87499999999977,"velocity":0.7480314960629921,"duration":0.3375000000000057},{"name":"A5","midi":81,"time":176.24999999999977,"velocity":0.7480314960629921,"duration":0.3375000000000057},{"name":"F#5","midi":78,"time":176.24999999999977,"velocity":0.7480314960629921,"duration":0.3375000000000057},{"name":"D5","midi":74,"time":176.24999999999977,"velocity":0.7480314960629921,"duration":0.3375000000000057},{"name":"A4","midi":69,"time":176.62499999999977,"velocity":0.7480314960629921,"duration":0.3375000000000057},{"name":"D4","midi":62,"time":176.62499999999977,"velocity":0.7480314960629921,"duration":0.3375000000000057},{"name":"C#5","midi":73,"time":176.99999999999977,"velocity":0.7480314960629921,"duration":0.3375000000000057},{"name":"A4","midi":69,"time":176.99999999999977,"velocity":0.7480314960629921,"duration":0.3375000000000057},{"name":"A4","midi":69,"time":177.37499999999977,"velocity":0.7480314960629921,"duration":0.6750000000000114},{"name":"C#5","midi":73,"time":177.37499999999977,"velocity":0.7480314960629921,"duration":0.6750000000000114},{"name":"A4","midi":69,"time":178.12499999999977,"velocity":0.7480314960629921,"duration":0.3375000000000057},{"name":"C#5","midi":73,"time":178.12499999999977,"velocity":0.7480314960629921,"duration":0.3375000000000057},{"name":"C#5","midi":73,"time":178.49999999999977,"velocity":0.7480314960629921,"duration":0.3375000000000057},{"name":"A4","midi":69,"time":178.49999999999977,"velocity":0.7480314960629921,"duration":0.3375000000000057},{"name":"A4","midi":69,"time":178.87499999999977,"velocity":0.7480314960629921,"duration":0.6750000000000114},{"name":"C#5","midi":73,"time":178.87499999999977,"velocity":0.7480314960629921,"duration":0.6750000000000114},{"name":"A4","midi":69,"time":179.62499999999977,"velocity":0.7480314960629921,"duration":0.3375000000000057},{"name":"C#5","midi":73,"time":179.62499999999977,"velocity":0.7480314960629921,"duration":0.3375000000000057},{"name":"A4","midi":69,"time":179.99999999999977,"velocity":0.7480314960629921,"duration":0.3375000000000057},{"name":"C#5","midi":73,"time":179.99999999999977,"velocity":0.7480314960629921,"duration":0.3375000000000057},{"name":"C#5","midi":73,"time":180.37499999999977,"velocity":0.7480314960629921,"duration":0.6750000000000114},{"name":"A4","midi":69,"time":180.37499999999977,"velocity":0.7480314960629921,"duration":0.6750000000000114},{"name":"C#5","midi":73,"time":181.12499999999977,"velocity":0.7480314960629921,"duration":0.3375000000000057},{"name":"A4","midi":69,"time":181.12499999999977,"velocity":0.7480314960629921,"duration":0.3375000000000057},{"name":"A4","midi":69,"time":181.49999999999977,"velocity":0.7480314960629921,"duration":0.3375000000000057},{"name":"C#5","midi":73,"time":181.49999999999977,"velocity":0.7480314960629921,"duration":0.3375000000000057},{"name":"C#5","midi":73,"time":181.87499999999977,"velocity":0.7480314960629921,"duration":0.6750000000000114},{"name":"A4","midi":69,"time":181.87499999999977,"velocity":0.7480314960629921,"duration":0.6750000000000114},{"name":"C#5","midi":73,"time":182.62499999999977,"velocity":0.7480314960629921,"duration":0.3375000000000057},{"name":"A4","midi":69,"time":182.62499999999977,"velocity":0.7480314960629921,"duration":0.3375000000000057},{"name":"E4","midi":64,"time":182.99999999999977,"velocity":0.7480314960629921,"duration":0.3375000000000057},{"name":"G#4","midi":68,"time":182.99999999999977,"velocity":0.7480314960629921,"duration":0.3375000000000057},{"name":"E4","midi":64,"time":183.37499999999977,"velocity":0.7480314960629921,"duration":0.6750000000000114},{"name":"G#4","midi":68,"time":183.37499999999977,"velocity":0.7480314960629921,"duration":0.6750000000000114},{"name":"E4","midi":64,"time":184.12499999999977,"velocity":0.7480314960629921,"duration":0.3375000000000057},{"name":"G#4","midi":68,"time":184.12499999999977,"velocity":0.7480314960629921,"duration":0.3375000000000057},{"name":"E4","midi":64,"time":184.49999999999977,"velocity":0.7480314960629921,"duration":0.3375000000000057},{"name":"G#4","midi":68,"time":184.49999999999977,"velocity":0.7480314960629921,"duration":0.3375000000000057},{"name":"G#4","midi":68,"time":184.87499999999977,"velocity":0.7480314960629921,"duration":0.6750000000000114},{"name":"E4","midi":64,"time":184.87499999999977,"velocity":0.7480314960629921,"duration":0.6750000000000114},{"name":"G#4","midi":68,"time":185.62499999999977,"velocity":0.7480314960629921,"duration":0.3375000000000057},{"name":"E4","midi":64,"time":185.62499999999977,"velocity":0.7480314960629921,"duration":0.3375000000000057},{"name":"E4","midi":64,"time":185.99999999999977,"velocity":0.7480314960629921,"duration":0.3375000000000057},{"name":"G#4","midi":68,"time":185.99999999999977,"velocity":0.7480314960629921,"duration":0.3375000000000057},{"name":"G#4","midi":68,"time":186.37499999999977,"velocity":0.7480314960629921,"duration":0.6750000000000114},{"name":"E4","midi":64,"time":186.37499999999977,"velocity":0.7480314960629921,"duration":0.6750000000000114},{"name":"G#4","midi":68,"time":187.12499999999977,"velocity":0.7480314960629921,"duration":0.3375000000000057},{"name":"E4","midi":64,"time":187.12499999999977,"velocity":0.7480314960629921,"duration":0.3375000000000057},{"name":"G#4","midi":68,"time":187.49999999999977,"velocity":0.7480314960629921,"duration":0.3375000000000057},{"name":"E4","midi":64,"time":187.49999999999977,"velocity":0.7480314960629921,"duration":0.3375000000000057},{"name":"E4","midi":64,"time":187.87499999999977,"velocity":0.7480314960629921,"duration":0.6750000000000114},{"name":"G#4","midi":68,"time":187.87499999999977,"velocity":0.7480314960629921,"duration":0.6750000000000114},{"name":"E4","midi":64,"time":188.62499999999977,"velocity":0.7480314960629921,"duration":0.3375000000000057},{"name":"G#4","midi":68,"time":188.62499999999977,"velocity":0.7480314960629921,"duration":0.3375000000000057},{"name":"F#4","midi":66,"time":188.99999999999977,"velocity":0.7480314960629921,"duration":0.3375000000000057},{"name":"D4","midi":62,"time":188.99999999999977,"velocity":0.7480314960629921,"duration":0.3375000000000057},{"name":"D4","midi":62,"time":189.37499999999977,"velocity":0.7480314960629921,"duration":0.6750000000000114},{"name":"F#4","midi":66,"time":189.37499999999977,"velocity":0.7480314960629921,"duration":0.6750000000000114},{"name":"D4","midi":62,"time":190.12499999999977,"velocity":0.7480314960629921,"duration":0.3375000000000057},{"name":"F#4","midi":66,"time":190.12499999999977,"velocity":0.7480314960629921,"duration":0.3375000000000057},{"name":"F#4","midi":66,"time":190.49999999999977,"velocity":0.7480314960629921,"duration":0.3375000000000057},{"name":"D4","midi":62,"time":190.49999999999977,"velocity":0.7480314960629921,"duration":0.3375000000000057},{"name":"F#4","midi":66,"time":190.87499999999977,"velocity":0.7480314960629921,"duration":0.6750000000000114},{"name":"D4","midi":62,"time":190.87499999999977,"velocity":0.7480314960629921,"duration":0.6750000000000114},{"name":"D4","midi":62,"time":191.62499999999977,"velocity":0.7480314960629921,"duration":0.3375000000000057},{"name":"F#4","midi":66,"time":191.62499999999977,"velocity":0.7480314960629921,"duration":0.3375000000000057},{"name":"F#4","midi":66,"time":191.99999999999977,"velocity":0.7480314960629921,"duration":0.3375000000000057},{"name":"D4","midi":62,"time":191.99999999999977,"velocity":0.7480314960629921,"duration":0.3375000000000057},{"name":"D4","midi":62,"time":192.37499999999977,"velocity":0.7480314960629921,"duration":0.6750000000000114},{"name":"F#4","midi":66,"time":192.37499999999977,"velocity":0.7480314960629921,"duration":0.6750000000000114},{"name":"D4","midi":62,"time":193.12499999999977,"velocity":0.7480314960629921,"duration":0.3375000000000057},{"name":"F#4","midi":66,"time":193.12499999999977,"velocity":0.7480314960629921,"duration":0.3375000000000057},{"name":"F#4","midi":66,"time":193.49999999999977,"velocity":0.7480314960629921,"duration":0.3375000000000057},{"name":"D4","midi":62,"time":193.49999999999977,"velocity":0.7480314960629921,"duration":0.3375000000000057},{"name":"D4","midi":62,"time":193.87499999999977,"velocity":0.7480314960629921,"duration":0.6750000000000114},{"name":"F#4","midi":66,"time":193.87499999999977,"velocity":0.7480314960629921,"duration":0.6750000000000114},{"name":"F#4","midi":66,"time":194.62499999999977,"velocity":0.7480314960629921,"duration":0.3375000000000057},{"name":"D4","midi":62,"time":194.62499999999977,"velocity":0.7480314960629921,"duration":0.3375000000000057},{"name":"C#5","midi":73,"time":194.99999999999977,"velocity":0.7480314960629921,"duration":0.3375000000000057},{"name":"A4","midi":69,"time":194.99999999999977,"velocity":0.7480314960629921,"duration":0.3375000000000057},{"name":"A4","midi":69,"time":195.37499999999977,"velocity":0.7480314960629921,"duration":0.6750000000000114},{"name":"C#5","midi":73,"time":195.37499999999977,"velocity":0.7480314960629921,"duration":0.6750000000000114},{"name":"A4","midi":69,"time":196.12499999999977,"velocity":0.7480314960629921,"duration":0.3375000000000057},{"name":"C#5","midi":73,"time":196.12499999999977,"velocity":0.7480314960629921,"duration":0.3375000000000057},{"name":"C#5","midi":73,"time":196.49999999999977,"velocity":0.7480314960629921,"duration":0.3375000000000057},{"name":"A4","midi":69,"time":196.49999999999977,"velocity":0.7480314960629921,"duration":0.3375000000000057},{"name":"A4","midi":69,"time":196.87499999999977,"velocity":0.7480314960629921,"duration":0.6750000000000114},{"name":"C#5","midi":73,"time":196.87499999999977,"velocity":0.7480314960629921,"duration":0.6750000000000114},{"name":"A4","midi":69,"time":197.62499999999977,"velocity":0.7480314960629921,"duration":0.3375000000000057},{"name":"C#5","midi":73,"time":197.62499999999977,"velocity":0.7480314960629921,"duration":0.3375000000000057},{"name":"A4","midi":69,"time":197.99999999999977,"velocity":0.7480314960629921,"duration":0.3375000000000057},{"name":"C#5","midi":73,"time":197.99999999999977,"velocity":0.7480314960629921,"duration":0.3375000000000057},{"name":"C#5","midi":73,"time":198.37499999999977,"velocity":0.7480314960629921,"duration":0.6750000000000114},{"name":"A4","midi":69,"time":198.37499999999977,"velocity":0.7480314960629921,"duration":0.6750000000000114},{"name":"A4","midi":69,"time":199.12499999999977,"velocity":0.7480314960629921,"duration":0.3375000000000057},{"name":"C#5","midi":73,"time":199.12499999999977,"velocity":0.7480314960629921,"duration":0.3375000000000057},{"name":"C#5","midi":73,"time":199.49999999999977,"velocity":0.7480314960629921,"duration":0.3375000000000057},{"name":"A4","midi":69,"time":199.49999999999977,"velocity":0.7480314960629921,"duration":0.3375000000000057},{"name":"C#5","midi":73,"time":199.87499999999977,"velocity":0.7480314960629921,"duration":0.6750000000000114},{"name":"A4","midi":69,"time":199.87499999999977,"velocity":0.7480314960629921,"duration":0.6750000000000114},{"name":"C#5","midi":73,"time":200.62499999999977,"velocity":0.7480314960629921,"duration":0.3375000000000057},{"name":"A4","midi":69,"time":200.62499999999977,"velocity":0.7480314960629921,"duration":0.3375000000000057},{"name":"G#4","midi":68,"time":200.99999999999977,"velocity":0.7480314960629921,"duration":0.3375000000000057},{"name":"E4","midi":64,"time":200.99999999999977,"velocity":0.7480314960629921,"duration":0.3375000000000057},{"name":"E4","midi":64,"time":201.37499999999977,"velocity":0.7480314960629921,"duration":0.6750000000000114},{"name":"G#4","midi":68,"time":201.37499999999977,"velocity":0.7480314960629921,"duration":0.6750000000000114},{"name":"E4","midi":64,"time":202.12499999999977,"velocity":0.7480314960629921,"duration":0.3375000000000057},{"name":"G#4","midi":68,"time":202.12499999999977,"velocity":0.7480314960629921,"duration":0.3375000000000057},{"name":"E4","midi":64,"time":202.49999999999977,"velocity":0.7480314960629921,"duration":0.3375000000000057},{"name":"G#4","midi":68,"time":202.49999999999977,"velocity":0.7480314960629921,"duration":0.3375000000000057},{"name":"G#4","midi":68,"time":202.87499999999977,"velocity":0.7480314960629921,"duration":0.6750000000000114},{"name":"E4","midi":64,"time":202.87499999999977,"velocity":0.7480314960629921,"duration":0.6750000000000114},{"name":"G#4","midi":68,"time":203.62499999999977,"velocity":0.7480314960629921,"duration":0.3375000000000057},{"name":"E4","midi":64,"time":203.62499999999977,"velocity":0.7480314960629921,"duration":0.3375000000000057},{"name":"G#4","midi":68,"time":203.99999999999977,"velocity":0.7480314960629921,"duration":0.3375000000000057},{"name":"E4","midi":64,"time":203.99999999999977,"velocity":0.7480314960629921,"duration":0.3375000000000057},{"name":"G#4","midi":68,"time":204.37499999999977,"velocity":0.7480314960629921,"duration":0.6750000000000114},{"name":"E4","midi":64,"time":204.37499999999977,"velocity":0.7480314960629921,"duration":0.6750000000000114},{"name":"E4","midi":64,"time":205.12499999999977,"velocity":0.7480314960629921,"duration":0.3375000000000057},{"name":"G#4","midi":68,"time":205.12499999999977,"velocity":0.7480314960629921,"duration":0.3375000000000057},{"name":"G#4","midi":68,"time":205.49999999999977,"velocity":0.7480314960629921,"duration":0.3375000000000057},{"name":"E4","midi":64,"time":205.49999999999977,"velocity":0.7480314960629921,"duration":0.3375000000000057},{"name":"E4","midi":64,"time":205.87499999999977,"velocity":0.7480314960629921,"duration":0.6750000000000114},{"name":"G#4","midi":68,"time":205.87499999999977,"velocity":0.7480314960629921,"duration":0.6750000000000114},{"name":"E4","midi":64,"time":206.62499999999977,"velocity":0.7480314960629921,"duration":0.3375000000000057},{"name":"G#4","midi":68,"time":206.62499999999977,"velocity":0.7480314960629921,"duration":0.3375000000000057},{"name":"F#4","midi":66,"time":206.99999999999977,"velocity":0.7480314960629921,"duration":0.3375000000000057},{"name":"D4","midi":62,"time":206.99999999999977,"velocity":0.7480314960629921,"duration":0.3375000000000057},{"name":"F#4","midi":66,"time":207.37499999999977,"velocity":0.7480314960629921,"duration":0.6750000000000114},{"name":"D4","midi":62,"time":207.37499999999977,"velocity":0.7480314960629921,"duration":0.6750000000000114},{"name":"D4","midi":62,"time":208.12499999999977,"velocity":0.7480314960629921,"duration":0.3375000000000057},{"name":"F#4","midi":66,"time":208.12499999999977,"velocity":0.7480314960629921,"duration":0.3375000000000057},{"name":"D4","midi":62,"time":208.49999999999977,"velocity":0.7480314960629921,"duration":0.3375000000000057},{"name":"F#4","midi":66,"time":208.49999999999977,"velocity":0.7480314960629921,"duration":0.3375000000000057},{"name":"F#4","midi":66,"time":208.87499999999977,"velocity":0.7480314960629921,"duration":0.6750000000000114},{"name":"D4","midi":62,"time":208.87499999999977,"velocity":0.7480314960629921,"duration":0.6750000000000114},{"name":"D4","midi":62,"time":209.62499999999977,"velocity":0.7480314960629921,"duration":0.3375000000000057},{"name":"F#4","midi":66,"time":209.62499999999977,"velocity":0.7480314960629921,"duration":0.3375000000000057},{"name":"D4","midi":62,"time":209.99999999999977,"velocity":0.7480314960629921,"duration":0.3375000000000057},{"name":"F#4","midi":66,"time":209.99999999999977,"velocity":0.7480314960629921,"duration":0.3375000000000057},{"name":"D4","midi":62,"time":210.37499999999977,"velocity":0.7480314960629921,"duration":0.6750000000000114},{"name":"F#4","midi":66,"time":210.37499999999977,"velocity":0.7480314960629921,"duration":0.6750000000000114},{"name":"F#4","midi":66,"time":211.12499999999977,"velocity":0.7480314960629921,"duration":0.3375000000000057},{"name":"D4","midi":62,"time":211.12499999999977,"velocity":0.7480314960629921,"duration":0.3375000000000057},{"name":"D4","midi":62,"time":211.49999999999977,"velocity":0.7480314960629921,"duration":0.3375000000000057},{"name":"F#4","midi":66,"time":211.49999999999977,"velocity":0.7480314960629921,"duration":0.3375000000000057},{"name":"D4","midi":62,"time":211.87499999999977,"velocity":0.7480314960629921,"duration":0.6750000000000114},{"name":"F#4","midi":66,"time":211.87499999999977,"velocity":0.7480314960629921,"duration":0.6750000000000114},{"name":"D4","midi":62,"time":212.62499999999977,"velocity":0.7480314960629921,"duration":0.3375000000000057},{"name":"F#4","midi":66,"time":212.62499999999977,"velocity":0.7480314960629921,"duration":0.3375000000000057},{"name":"C#5","midi":73,"time":212.99999999999977,"velocity":0.7480314960629921,"duration":0.3375000000000057},{"name":"A4","midi":69,"time":212.99999999999977,"velocity":0.7480314960629921,"duration":0.3375000000000057},{"name":"A4","midi":69,"time":213.37499999999977,"velocity":0.7480314960629921,"duration":0.3375000000000057},{"name":"C#5","midi":73,"time":213.37499999999977,"velocity":0.7480314960629921,"duration":0.3375000000000057},{"name":"A4","midi":69,"time":213.74999999999977,"velocity":0.7480314960629921,"duration":0.3375000000000057},{"name":"C#5","midi":73,"time":213.74999999999977,"velocity":0.7480314960629921,"duration":0.3375000000000057},{"name":"A4","midi":69,"time":214.12499999999977,"velocity":0.7480314960629921,"duration":0.3375000000000057},{"name":"C#5","midi":73,"time":214.12499999999977,"velocity":0.7480314960629921,"duration":0.3375000000000057},{"name":"C#5","midi":73,"time":214.49999999999977,"velocity":0.7480314960629921,"duration":0.3375000000000057},{"name":"A4","midi":69,"time":214.49999999999977,"velocity":0.7480314960629921,"duration":0.3375000000000057},{"name":"C#5","midi":73,"time":214.87499999999977,"velocity":0.7480314960629921,"duration":0.3375000000000057},{"name":"A4","midi":69,"time":214.87499999999977,"velocity":0.7480314960629921,"duration":0.3375000000000057},{"name":"C#5","midi":73,"time":215.24999999999977,"velocity":0.7480314960629921,"duration":0.3375000000000057},{"name":"A4","midi":69,"time":215.24999999999977,"velocity":0.7480314960629921,"duration":0.3375000000000057},{"name":"A4","midi":69,"time":215.62499999999977,"velocity":0.7480314960629921,"duration":0.3375000000000057},{"name":"C#5","midi":73,"time":215.62499999999977,"velocity":0.7480314960629921,"duration":0.3375000000000057},{"name":"C#5","midi":73,"time":215.99999999999977,"velocity":0.7480314960629921,"duration":0.3375000000000057},{"name":"A4","midi":69,"time":215.99999999999977,"velocity":0.7480314960629921,"duration":0.3375000000000057},{"name":"C#5","midi":73,"time":216.37499999999977,"velocity":0.7480314960629921,"duration":0.3375000000000057},{"name":"A4","midi":69,"time":216.37499999999977,"velocity":0.7480314960629921,"duration":0.3375000000000057},{"name":"C#5","midi":73,"time":216.74999999999977,"velocity":0.7480314960629921,"duration":0.3375000000000057},{"name":"A4","midi":69,"time":216.74999999999977,"velocity":0.7480314960629921,"duration":0.3375000000000057},{"name":"C#5","midi":73,"time":217.12499999999977,"velocity":0.7480314960629921,"duration":0.3375000000000057},{"name":"A4","midi":69,"time":217.12499999999977,"velocity":0.7480314960629921,"duration":0.3375000000000057},{"name":"A4","midi":69,"time":217.49999999999977,"velocity":0.7480314960629921,"duration":0.3375000000000057},{"name":"C#5","midi":73,"time":217.49999999999977,"velocity":0.7480314960629921,"duration":0.3375000000000057},{"name":"C#5","midi":73,"time":217.87499999999977,"velocity":0.7480314960629921,"duration":0.3375000000000057},{"name":"A4","midi":69,"time":217.87499999999977,"velocity":0.7480314960629921,"duration":0.3375000000000057},{"name":"C#5","midi":73,"time":218.24999999999977,"velocity":0.7480314960629921,"duration":0.3375000000000057},{"name":"A4","midi":69,"time":218.24999999999977,"velocity":0.7480314960629921,"duration":0.3375000000000057},{"name":"A4","midi":69,"time":218.62499999999977,"velocity":0.7480314960629921,"duration":0.3375000000000057},{"name":"C#5","midi":73,"time":218.62499999999977,"velocity":0.7480314960629921,"duration":0.3375000000000057},{"name":"E4","midi":64,"time":218.99999999999977,"velocity":0.7480314960629921,"duration":0.3375000000000057},{"name":"G#4","midi":68,"time":218.99999999999977,"velocity":0.7480314960629921,"duration":0.3375000000000057},{"name":"G#4","midi":68,"time":219.37499999999977,"velocity":0.7480314960629921,"duration":0.3375000000000057},{"name":"E4","midi":64,"time":219.37499999999977,"velocity":0.7480314960629921,"duration":0.3375000000000057},{"name":"E4","midi":64,"time":219.74999999999977,"velocity":0.7480314960629921,"duration":0.3375000000000057},{"name":"G#4","midi":68,"time":219.74999999999977,"velocity":0.7480314960629921,"duration":0.3375000000000057},{"name":"G#4","midi":68,"time":220.12499999999977,"velocity":0.7480314960629921,"duration":0.3375000000000057},{"name":"E4","midi":64,"time":220.12499999999977,"velocity":0.7480314960629921,"duration":0.3375000000000057},{"name":"G#4","midi":68,"time":220.49999999999977,"velocity":0.7480314960629921,"duration":0.3375000000000057},{"name":"E4","midi":64,"time":220.49999999999977,"velocity":0.7480314960629921,"duration":0.3375000000000057},{"name":"E4","midi":64,"time":220.87499999999977,"velocity":0.7480314960629921,"duration":0.3375000000000057},{"name":"G#4","midi":68,"time":220.87499999999977,"velocity":0.7480314960629921,"duration":0.3375000000000057},{"name":"G#4","midi":68,"time":221.24999999999977,"velocity":0.7480314960629921,"duration":0.3375000000000057},{"name":"E4","midi":64,"time":221.24999999999977,"velocity":0.7480314960629921,"duration":0.3375000000000057},{"name":"G#4","midi":68,"time":221.62499999999977,"velocity":0.7480314960629921,"duration":0.3375000000000057},{"name":"E4","midi":64,"time":221.62499999999977,"velocity":0.7480314960629921,"duration":0.3375000000000057},{"name":"E4","midi":64,"time":221.99999999999977,"velocity":0.7480314960629921,"duration":0.3375000000000057},{"name":"G#4","midi":68,"time":221.99999999999977,"velocity":0.7480314960629921,"duration":0.3375000000000057},{"name":"G#4","midi":68,"time":222.37499999999977,"velocity":0.7480314960629921,"duration":0.3375000000000057},{"name":"E4","midi":64,"time":222.37499999999977,"velocity":0.7480314960629921,"duration":0.3375000000000057},{"name":"E4","midi":64,"time":222.74999999999977,"velocity":0.7480314960629921,"duration":0.3375000000000057},{"name":"G#4","midi":68,"time":222.74999999999977,"velocity":0.7480314960629921,"duration":0.3375000000000057},{"name":"G#4","midi":68,"time":223.12499999999977,"velocity":0.7480314960629921,"duration":0.3375000000000057},{"name":"E4","midi":64,"time":223.12499999999977,"velocity":0.7480314960629921,"duration":0.3375000000000057},{"name":"E4","midi":64,"time":223.49999999999977,"velocity":0.7480314960629921,"duration":0.3375000000000057},{"name":"G#4","midi":68,"time":223.49999999999977,"velocity":0.7480314960629921,"duration":0.3375000000000057},{"name":"E4","midi":64,"time":223.87499999999977,"velocity":0.7480314960629921,"duration":0.3375000000000057},{"name":"G#4","midi":68,"time":223.87499999999977,"velocity":0.7480314960629921,"duration":0.3375000000000057},{"name":"E4","midi":64,"time":224.24999999999977,"velocity":0.7480314960629921,"duration":0.3375000000000057},{"name":"G#4","midi":68,"time":224.24999999999977,"velocity":0.7480314960629921,"duration":0.3375000000000057},{"name":"G#4","midi":68,"time":224.62499999999977,"velocity":0.7480314960629921,"duration":0.3375000000000057},{"name":"E4","midi":64,"time":224.62499999999977,"velocity":0.7480314960629921,"duration":0.3375000000000057},{"name":"F#4","midi":66,"time":224.99999999999977,"velocity":0.7480314960629921,"duration":0.3375000000000057},{"name":"D4","midi":62,"time":224.99999999999977,"velocity":0.7480314960629921,"duration":0.3375000000000057},{"name":"F#4","midi":66,"time":225.37499999999977,"velocity":0.7480314960629921,"duration":0.3375000000000057},{"name":"D4","midi":62,"time":225.37499999999977,"velocity":0.7480314960629921,"duration":0.3375000000000057},{"name":"D4","midi":62,"time":225.74999999999977,"velocity":0.7480314960629921,"duration":0.3375000000000057},{"name":"F#4","midi":66,"time":225.74999999999977,"velocity":0.7480314960629921,"duration":0.3375000000000057},{"name":"D4","midi":62,"time":226.12499999999977,"velocity":0.7480314960629921,"duration":0.3375000000000057},{"name":"F#4","midi":66,"time":226.12499999999977,"velocity":0.7480314960629921,"duration":0.3375000000000057},{"name":"F#4","midi":66,"time":226.49999999999977,"velocity":0.7480314960629921,"duration":0.3375000000000057},{"name":"D4","midi":62,"time":226.49999999999977,"velocity":0.7480314960629921,"duration":0.3375000000000057},{"name":"D4","midi":62,"time":226.87499999999977,"velocity":0.7480314960629921,"duration":0.3375000000000057},{"name":"F#4","midi":66,"time":226.87499999999977,"velocity":0.7480314960629921,"duration":0.3375000000000057},{"name":"F#4","midi":66,"time":227.24999999999977,"velocity":0.7480314960629921,"duration":0.3375000000000057},{"name":"D4","midi":62,"time":227.24999999999977,"velocity":0.7480314960629921,"duration":0.3375000000000057},{"name":"D4","midi":62,"time":227.62499999999977,"velocity":0.7480314960629921,"duration":0.3375000000000057},{"name":"F#4","midi":66,"time":227.62499999999977,"velocity":0.7480314960629921,"duration":0.3375000000000057},{"name":"E4","midi":64,"time":227.99999999999977,"velocity":0.7480314960629921,"duration":0.3375000000000057},{"name":"G#4","midi":68,"time":227.99999999999977,"velocity":0.7480314960629921,"duration":0.3375000000000057},{"name":"G#4","midi":68,"time":228.37499999999977,"velocity":0.7480314960629921,"duration":0.3375000000000057},{"name":"E4","midi":64,"time":228.37499999999977,"velocity":0.7480314960629921,"duration":0.3375000000000057},{"name":"E4","midi":64,"time":228.74999999999977,"velocity":0.7480314960629921,"duration":0.3375000000000057},{"name":"G#4","midi":68,"time":228.74999999999977,"velocity":0.7480314960629921,"duration":0.3375000000000057},{"name":"E4","midi":64,"time":229.12499999999977,"velocity":0.7480314960629921,"duration":0.3375000000000057},{"name":"G#4","midi":68,"time":229.12499999999977,"velocity":0.7480314960629921,"duration":0.3375000000000057},{"name":"E4","midi":64,"time":229.49999999999977,"velocity":0.7480314960629921,"duration":0.3375000000000057},{"name":"G#4","midi":68,"time":229.49999999999977,"velocity":0.7480314960629921,"duration":0.3375000000000057},{"name":"G#4","midi":68,"time":229.87499999999977,"velocity":0.7480314960629921,"duration":0.3375000000000057},{"name":"E4","midi":64,"time":229.87499999999977,"velocity":0.7480314960629921,"duration":0.3375000000000057},{"name":"G#4","midi":68,"time":230.24999999999977,"velocity":0.7480314960629921,"duration":0.3375000000000057},{"name":"E4","midi":64,"time":230.24999999999977,"velocity":0.7480314960629921,"duration":0.3375000000000057},{"name":"G#4","midi":68,"time":230.62499999999977,"velocity":0.7480314960629921,"duration":0.3375000000000057},{"name":"E4","midi":64,"time":230.62499999999977,"velocity":0.7480314960629921,"duration":0.3375000000000057},{"name":"D4","midi":62,"time":230.99999999999977,"velocity":0.7480314960629921,"duration":0.3375000000000057},{"name":"F#4","midi":66,"time":230.99999999999977,"velocity":0.7480314960629921,"duration":0.3375000000000057},{"name":"F#4","midi":66,"time":231.37499999999977,"velocity":0.7480314960629921,"duration":0.3375000000000057},{"name":"D4","midi":62,"time":231.37499999999977,"velocity":0.7480314960629921,"duration":0.3375000000000057},{"name":"F#4","midi":66,"time":231.74999999999977,"velocity":0.7480314960629921,"duration":0.3375000000000057},{"name":"D4","midi":62,"time":231.74999999999977,"velocity":0.7480314960629921,"duration":0.3375000000000057},{"name":"D4","midi":62,"time":232.12499999999977,"velocity":0.7480314960629921,"duration":0.3375000000000057},{"name":"F#4","midi":66,"time":232.12499999999977,"velocity":0.7480314960629921,"duration":0.3375000000000057},{"name":"F#4","midi":66,"time":232.49999999999977,"velocity":0.7480314960629921,"duration":0.3375000000000057},{"name":"D4","midi":62,"time":232.49999999999977,"velocity":0.7480314960629921,"duration":0.3375000000000057},{"name":"D4","midi":62,"time":232.87499999999977,"velocity":0.7480314960629921,"duration":0.3375000000000057},{"name":"F#4","midi":66,"time":232.87499999999977,"velocity":0.7480314960629921,"duration":0.3375000000000057},{"name":"F#4","midi":66,"time":233.24999999999977,"velocity":0.7480314960629921,"duration":0.3375000000000057},{"name":"D4","midi":62,"time":233.24999999999977,"velocity":0.7480314960629921,"duration":0.3375000000000057},{"name":"F#4","midi":66,"time":233.62499999999977,"velocity":0.7480314960629921,"duration":0.3375000000000057},{"name":"D4","midi":62,"time":233.62499999999977,"velocity":0.7480314960629921,"duration":0.3375000000000057},{"name":"D4","midi":62,"time":233.99999999999977,"velocity":0.7480314960629921,"duration":0.3375000000000057},{"name":"F#4","midi":66,"time":233.99999999999977,"velocity":0.7480314960629921,"duration":0.3375000000000057},{"name":"F#4","midi":66,"time":234.37499999999977,"velocity":0.7480314960629921,"duration":0.3375000000000057},{"name":"D4","midi":62,"time":234.37499999999977,"velocity":0.7480314960629921,"duration":0.3375000000000057},{"name":"F#4","midi":66,"time":234.74999999999977,"velocity":0.7480314960629921,"duration":0.3375000000000057},{"name":"D4","midi":62,"time":234.74999999999977,"velocity":0.7480314960629921,"duration":0.3375000000000057},{"name":"D4","midi":62,"time":235.12499999999977,"velocity":0.7480314960629921,"duration":0.3375000000000057},{"name":"F#4","midi":66,"time":235.12499999999977,"velocity":0.7480314960629921,"duration":0.3375000000000057},{"name":"D4","midi":62,"time":235.49999999999977,"velocity":0.7480314960629921,"duration":0.3375000000000057},{"name":"F#4","midi":66,"time":235.49999999999977,"velocity":0.7480314960629921,"duration":0.3375000000000057},{"name":"F#4","midi":66,"time":235.87499999999977,"velocity":0.7480314960629921,"duration":0.3375000000000057},{"name":"D4","midi":62,"time":235.87499999999977,"velocity":0.7480314960629921,"duration":0.3375000000000057},{"name":"D4","midi":62,"time":236.24999999999977,"velocity":0.7480314960629921,"duration":0.3375000000000057},{"name":"F#4","midi":66,"time":236.24999999999977,"velocity":0.7480314960629921,"duration":0.3375000000000057},{"name":"D4","midi":62,"time":236.62499999999977,"velocity":0.7480314960629921,"duration":0.3375000000000057},{"name":"F#4","midi":66,"time":236.62499999999977,"velocity":0.7480314960629921,"duration":0.3375000000000057},{"name":"C#5","midi":73,"time":236.99999999999977,"velocity":0.7480314960629921,"duration":0.3375000000000057},{"name":"A4","midi":69,"time":236.99999999999977,"velocity":0.7480314960629921,"duration":0.3375000000000057},{"name":"C#5","midi":73,"time":237.37499999999977,"velocity":0.7480314960629921,"duration":0.3375000000000057},{"name":"A4","midi":69,"time":237.37499999999977,"velocity":0.7480314960629921,"duration":0.3375000000000057},{"name":"A4","midi":69,"time":237.74999999999977,"velocity":0.7480314960629921,"duration":0.3375000000000057},{"name":"C#5","midi":73,"time":237.74999999999977,"velocity":0.7480314960629921,"duration":0.3375000000000057},{"name":"C#5","midi":73,"time":238.12499999999977,"velocity":0.7480314960629921,"duration":0.3375000000000057},{"name":"A4","midi":69,"time":238.12499999999977,"velocity":0.7480314960629921,"duration":0.3375000000000057},{"name":"A4","midi":69,"time":238.49999999999977,"velocity":0.7480314960629921,"duration":0.3375000000000057},{"name":"C#5","midi":73,"time":238.49999999999977,"velocity":0.7480314960629921,"duration":0.3375000000000057},{"name":"A4","midi":69,"time":238.87499999999977,"velocity":0.7480314960629921,"duration":0.3375000000000057},{"name":"C#5","midi":73,"time":238.87499999999977,"velocity":0.7480314960629921,"duration":0.3375000000000057},{"name":"A4","midi":69,"time":239.24999999999977,"velocity":0.7480314960629921,"duration":0.3375000000000057},{"name":"C#5","midi":73,"time":239.24999999999977,"velocity":0.7480314960629921,"duration":0.3375000000000057},{"name":"C#5","midi":73,"time":239.62499999999977,"velocity":0.7480314960629921,"duration":0.3375000000000057},{"name":"A4","midi":69,"time":239.62499999999977,"velocity":0.7480314960629921,"duration":0.3375000000000057},{"name":"C#5","midi":73,"time":239.99999999999977,"velocity":0.7480314960629921,"duration":0.3375000000000057},{"name":"A4","midi":69,"time":239.99999999999977,"velocity":0.7480314960629921,"duration":0.3375000000000057},{"name":"C#5","midi":73,"time":240.37499999999977,"velocity":0.7480314960629921,"duration":0.3375000000000057},{"name":"A4","midi":69,"time":240.37499999999977,"velocity":0.7480314960629921,"duration":0.3375000000000057},{"name":"A4","midi":69,"time":240.74999999999977,"velocity":0.7480314960629921,"duration":0.3375000000000057},{"name":"C#5","midi":73,"time":240.74999999999977,"velocity":0.7480314960629921,"duration":0.3375000000000057},{"name":"C#5","midi":73,"time":241.12499999999977,"velocity":0.7480314960629921,"duration":0.3375000000000057},{"name":"A4","midi":69,"time":241.12499999999977,"velocity":0.7480314960629921,"duration":0.3375000000000057},{"name":"A4","midi":69,"time":241.49999999999977,"velocity":0.7480314960629921,"duration":0.3375000000000057},{"name":"C#5","midi":73,"time":241.49999999999977,"velocity":0.7480314960629921,"duration":0.3375000000000057},{"name":"C#5","midi":73,"time":241.87499999999977,"velocity":0.7480314960629921,"duration":0.3375000000000057},{"name":"A4","midi":69,"time":241.87499999999977,"velocity":0.7480314960629921,"duration":0.3375000000000057},{"name":"A4","midi":69,"time":242.24999999999977,"velocity":0.7480314960629921,"duration":0.3375000000000057},{"name":"C#5","midi":73,"time":242.24999999999977,"velocity":0.7480314960629921,"duration":0.3375000000000057},{"name":"C#5","midi":73,"time":242.62499999999977,"velocity":0.7480314960629921,"duration":0.3375000000000057},{"name":"A4","midi":69,"time":242.62499999999977,"velocity":0.7480314960629921,"duration":0.3375000000000057},{"name":"G#4","midi":68,"time":242.99999999999977,"velocity":0.7480314960629921,"duration":0.3375000000000057},{"name":"E4","midi":64,"time":242.99999999999977,"velocity":0.7480314960629921,"duration":0.3375000000000057},{"name":"G#4","midi":68,"time":243.37499999999977,"velocity":0.7480314960629921,"duration":0.3375000000000057},{"name":"E4","midi":64,"time":243.37499999999977,"velocity":0.7480314960629921,"duration":0.3375000000000057},{"name":"E4","midi":64,"time":243.74999999999977,"velocity":0.7480314960629921,"duration":0.3375000000000057},{"name":"G#4","midi":68,"time":243.74999999999977,"velocity":0.7480314960629921,"duration":0.3375000000000057},{"name":"G#4","midi":68,"time":244.12499999999977,"velocity":0.7480314960629921,"duration":0.3375000000000057},{"name":"E4","midi":64,"time":244.12499999999977,"velocity":0.7480314960629921,"duration":0.3375000000000057},{"name":"E4","midi":64,"time":244.49999999999977,"velocity":0.7480314960629921,"duration":0.3375000000000057},{"name":"G#4","midi":68,"time":244.49999999999977,"velocity":0.7480314960629921,"duration":0.3375000000000057},{"name":"G#4","midi":68,"time":244.87499999999977,"velocity":0.7480314960629921,"duration":0.3375000000000057},{"name":"E4","midi":64,"time":244.87499999999977,"velocity":0.7480314960629921,"duration":0.3375000000000057},{"name":"G#4","midi":68,"time":245.24999999999977,"velocity":0.7480314960629921,"duration":0.3375000000000057},{"name":"E4","midi":64,"time":245.24999999999977,"velocity":0.7480314960629921,"duration":0.3375000000000057},{"name":"G#4","midi":68,"time":245.62499999999977,"velocity":0.7480314960629921,"duration":0.3375000000000057},{"name":"E4","midi":64,"time":245.62499999999977,"velocity":0.7480314960629921,"duration":0.3375000000000057},{"name":"G#4","midi":68,"time":245.99999999999977,"velocity":0.7480314960629921,"duration":0.3375000000000057},{"name":"E4","midi":64,"time":245.99999999999977,"velocity":0.7480314960629921,"duration":0.3375000000000057},{"name":"G#4","midi":68,"time":246.37499999999977,"velocity":0.7480314960629921,"duration":0.3375000000000057},{"name":"E4","midi":64,"time":246.37499999999977,"velocity":0.7480314960629921,"duration":0.3375000000000057},{"name":"G#4","midi":68,"time":246.74999999999977,"velocity":0.7480314960629921,"duration":0.3375000000000057},{"name":"E4","midi":64,"time":246.74999999999977,"velocity":0.7480314960629921,"duration":0.3375000000000057},{"name":"E4","midi":64,"time":247.12499999999977,"velocity":0.7480314960629921,"duration":0.3375000000000057},{"name":"G#4","midi":68,"time":247.12499999999977,"velocity":0.7480314960629921,"duration":0.3375000000000057},{"name":"G#4","midi":68,"time":247.49999999999977,"velocity":0.7480314960629921,"duration":0.3375000000000057},{"name":"E4","midi":64,"time":247.49999999999977,"velocity":0.7480314960629921,"duration":0.3375000000000057},{"name":"G#4","midi":68,"time":247.87499999999977,"velocity":0.7480314960629921,"duration":0.3375000000000057},{"name":"E4","midi":64,"time":247.87499999999977,"velocity":0.7480314960629921,"duration":0.3375000000000057},{"name":"E4","midi":64,"time":248.24999999999977,"velocity":0.7480314960629921,"duration":0.3375000000000057},{"name":"G#4","midi":68,"time":248.24999999999977,"velocity":0.7480314960629921,"duration":0.3375000000000057},{"name":"G#4","midi":68,"time":248.62499999999977,"velocity":0.7480314960629921,"duration":0.3375000000000057},{"name":"E4","midi":64,"time":248.62499999999977,"velocity":0.7480314960629921,"duration":0.3375000000000057},{"name":"F#4","midi":66,"time":248.99999999999977,"velocity":0.7480314960629921,"duration":0.3375000000000057},{"name":"D4","midi":62,"time":248.99999999999977,"velocity":0.7480314960629921,"duration":0.3375000000000057},{"name":"D4","midi":62,"time":249.37499999999977,"velocity":0.7480314960629921,"duration":0.3375000000000057},{"name":"F#4","midi":66,"time":249.37499999999977,"velocity":0.7480314960629921,"duration":0.3375000000000057},{"name":"F#4","midi":66,"time":249.74999999999977,"velocity":0.7480314960629921,"duration":0.3375000000000057},{"name":"D4","midi":62,"time":249.74999999999977,"velocity":0.7480314960629921,"duration":0.3375000000000057},{"name":"F#4","midi":66,"time":250.12499999999977,"velocity":0.7480314960629921,"duration":0.3375000000000057},{"name":"D4","midi":62,"time":250.12499999999977,"velocity":0.7480314960629921,"duration":0.3375000000000057},{"name":"F#4","midi":66,"time":250.49999999999977,"velocity":0.7480314960629921,"duration":0.3375000000000057},{"name":"D4","midi":62,"time":250.49999999999977,"velocity":0.7480314960629921,"duration":0.3375000000000057},{"name":"D4","midi":62,"time":250.87499999999977,"velocity":0.7480314960629921,"duration":0.3375000000000057},{"name":"F#4","midi":66,"time":250.87499999999977,"velocity":0.7480314960629921,"duration":0.3375000000000057},{"name":"D4","midi":62,"time":251.24999999999977,"velocity":0.7480314960629921,"duration":0.3375000000000057},{"name":"F#4","midi":66,"time":251.24999999999977,"velocity":0.7480314960629921,"duration":0.3375000000000057},{"name":"F#4","midi":66,"time":251.62499999999977,"velocity":0.7480314960629921,"duration":0.3375000000000057},{"name":"D4","midi":62,"time":251.62499999999977,"velocity":0.7480314960629921,"duration":0.3375000000000057},{"name":"E4","midi":64,"time":251.99999999999977,"velocity":0.7480314960629921,"duration":0.3375000000000057},{"name":"G#4","midi":68,"time":251.99999999999977,"velocity":0.7480314960629921,"duration":0.3375000000000057},{"name":"G#4","midi":68,"time":252.37499999999977,"velocity":0.7480314960629921,"duration":0.3375000000000057},{"name":"E4","midi":64,"time":252.37499999999977,"velocity":0.7480314960629921,"duration":0.3375000000000057},{"name":"E4","midi":64,"time":252.74999999999977,"velocity":0.7480314960629921,"duration":0.3375000000000057},{"name":"G#4","midi":68,"time":252.74999999999977,"velocity":0.7480314960629921,"duration":0.3375000000000057},{"name":"E4","midi":64,"time":253.12499999999977,"velocity":0.7480314960629921,"duration":0.3375000000000057},{"name":"G#4","midi":68,"time":253.12499999999977,"velocity":0.7480314960629921,"duration":0.3375000000000057},{"name":"E4","midi":64,"time":253.49999999999977,"velocity":0.7480314960629921,"duration":0.3375000000000057},{"name":"G#4","midi":68,"time":253.49999999999977,"velocity":0.7480314960629921,"duration":0.3375000000000057},{"name":"E4","midi":64,"time":253.87499999999977,"velocity":0.7480314960629921,"duration":0.3375000000000057},{"name":"G#4","midi":68,"time":253.87499999999977,"velocity":0.7480314960629921,"duration":0.3375000000000057},{"name":"E4","midi":64,"time":254.24999999999977,"velocity":0.7480314960629921,"duration":0.3375000000000057},{"name":"G#4","midi":68,"time":254.24999999999977,"velocity":0.7480314960629921,"duration":0.3375000000000057},{"name":"E4","midi":64,"time":254.62499999999977,"velocity":0.7480314960629921,"duration":0.3375000000000057},{"name":"G#4","midi":68,"time":254.62499999999977,"velocity":0.7480314960629921,"duration":0.3375000000000057},{"name":"F#4","midi":66,"time":254.99999999999977,"velocity":0.7480314960629921,"duration":0.3375000000000057},{"name":"D4","midi":62,"time":254.99999999999977,"velocity":0.7480314960629921,"duration":0.3375000000000057},{"name":"D4","midi":62,"time":255.37499999999977,"velocity":0.7480314960629921,"duration":0.3375000000000057},{"name":"F#4","midi":66,"time":255.37499999999977,"velocity":0.7480314960629921,"duration":0.3375000000000057},{"name":"F#4","midi":66,"time":255.74999999999977,"velocity":0.7480314960629921,"duration":0.33749999999997726},{"name":"D4","midi":62,"time":255.74999999999977,"velocity":0.7480314960629921,"duration":0.33749999999997726},{"name":"F#4","midi":66,"time":256.1249999999998,"velocity":0.7480314960629921,"duration":0.33749999999997726},{"name":"D4","midi":62,"time":256.1249999999998,"velocity":0.7480314960629921,"duration":0.33749999999997726},{"name":"F#4","midi":66,"time":256.4999999999998,"velocity":0.7480314960629921,"duration":0.33749999999997726},{"name":"D4","midi":62,"time":256.4999999999998,"velocity":0.7480314960629921,"duration":0.33749999999997726},{"name":"D4","midi":62,"time":256.8749999999998,"velocity":0.7480314960629921,"duration":0.33749999999997726},{"name":"F#4","midi":66,"time":256.8749999999998,"velocity":0.7480314960629921,"duration":0.33749999999997726},{"name":"D4","midi":62,"time":257.2499999999998,"velocity":0.7480314960629921,"duration":0.33749999999997726},{"name":"F#4","midi":66,"time":257.2499999999998,"velocity":0.7480314960629921,"duration":0.33749999999997726},{"name":"D4","midi":62,"time":257.6249999999998,"velocity":0.7480314960629921,"duration":0.33749999999997726},{"name":"F#4","midi":66,"time":257.6249999999998,"velocity":0.7480314960629921,"duration":0.33749999999997726},{"name":"F#4","midi":66,"time":257.9999999999998,"velocity":0.7480314960629921,"duration":0.33749999999997726},{"name":"D4","midi":62,"time":257.9999999999998,"velocity":0.7480314960629921,"duration":0.33749999999997726},{"name":"D4","midi":62,"time":258.3749999999998,"velocity":0.7480314960629921,"duration":0.33749999999997726},{"name":"F#4","midi":66,"time":258.3749999999998,"velocity":0.7480314960629921,"duration":0.33749999999997726},{"name":"D4","midi":62,"time":258.7499999999998,"velocity":0.7480314960629921,"duration":0.33749999999997726},{"name":"F#4","midi":66,"time":258.7499999999998,"velocity":0.7480314960629921,"duration":0.33749999999997726},{"name":"F#4","midi":66,"time":259.1249999999998,"velocity":0.7480314960629921,"duration":0.33749999999997726},{"name":"D4","midi":62,"time":259.1249999999998,"velocity":0.7480314960629921,"duration":0.33749999999997726},{"name":"D4","midi":62,"time":259.4999999999998,"velocity":0.7480314960629921,"duration":0.33749999999997726},{"name":"F#4","midi":66,"time":259.4999999999998,"velocity":0.7480314960629921,"duration":0.33749999999997726},{"name":"D4","midi":62,"time":259.8749999999998,"velocity":0.7480314960629921,"duration":0.33749999999997726},{"name":"F#4","midi":66,"time":259.8749999999998,"velocity":0.7480314960629921,"duration":0.33749999999997726},{"name":"F#4","midi":66,"time":260.2499999999998,"velocity":0.7480314960629921,"duration":0.33749999999997726},{"name":"D4","midi":62,"time":260.2499999999998,"velocity":0.7480314960629921,"duration":0.33749999999997726},{"name":"D4","midi":62,"time":260.6249999999998,"velocity":0.7480314960629921,"duration":0.33749999999997726},{"name":"F#4","midi":66,"time":260.6249999999998,"velocity":0.7480314960629921,"duration":0.33749999999997726},{"name":"A4","midi":69,"time":260.9999999999998,"velocity":0.7480314960629921,"duration":0.33749999999997726},{"name":"C#5","midi":73,"time":260.9999999999998,"velocity":0.7480314960629921,"duration":0.33749999999997726},{"name":"E5","midi":76,"time":260.9999999999998,"velocity":0.7480314960629921,"duration":0.33749999999997726},{"name":"A5","midi":81,"time":260.9999999999998,"velocity":0.7480314960629921,"duration":0.33749999999997726},{"name":"E5","midi":76,"time":261.3749999999998,"velocity":0.7480314960629921,"duration":0.33749999999997726},{"name":"A5","midi":81,"time":261.3749999999998,"velocity":0.7480314960629921,"duration":0.33749999999997726},{"name":"C#5","midi":73,"time":261.3749999999998,"velocity":0.7480314960629921,"duration":0.33749999999997726},{"name":"A4","midi":69,"time":261.3749999999998,"velocity":0.7480314960629921,"duration":0.33749999999997726},{"name":"A5","midi":81,"time":261.7499999999998,"velocity":0.7480314960629921,"duration":0.33749999999997726},{"name":"E5","midi":76,"time":261.7499999999998,"velocity":0.7480314960629921,"duration":0.33749999999997726},{"name":"C#5","midi":73,"time":261.7499999999998,"velocity":0.7480314960629921,"duration":0.33749999999997726},{"name":"A4","midi":69,"time":261.7499999999998,"velocity":0.7480314960629921,"duration":0.33749999999997726},{"name":"A4","midi":69,"time":262.1249999999998,"velocity":0.7480314960629921,"duration":0.33749999999997726},{"name":"E5","midi":76,"time":262.1249999999998,"velocity":0.7480314960629921,"duration":0.33749999999997726},{"name":"A5","midi":81,"time":262.1249999999998,"velocity":0.7480314960629921,"duration":0.33749999999997726},{"name":"C#5","midi":73,"time":262.1249999999998,"velocity":0.7480314960629921,"duration":0.33749999999997726},{"name":"A5","midi":81,"time":262.4999999999998,"velocity":0.7480314960629921,"duration":0.33749999999997726},{"name":"E5","midi":76,"time":262.4999999999998,"velocity":0.7480314960629921,"duration":0.33749999999997726},{"name":"C#5","midi":73,"time":262.4999999999998,"velocity":0.7480314960629921,"duration":0.33749999999997726},{"name":"A4","midi":69,"time":262.4999999999998,"velocity":0.7480314960629921,"duration":0.33749999999997726},{"name":"C#5","midi":73,"time":262.8749999999998,"velocity":0.7480314960629921,"duration":0.33749999999997726},{"name":"E5","midi":76,"time":262.8749999999998,"velocity":0.7480314960629921,"duration":0.33749999999997726},{"name":"A5","midi":81,"time":262.8749999999998,"velocity":0.7480314960629921,"duration":0.33749999999997726},{"name":"A4","midi":69,"time":262.8749999999998,"velocity":0.7480314960629921,"duration":0.33749999999997726},{"name":"A5","midi":81,"time":263.2499999999998,"velocity":0.7480314960629921,"duration":0.33749999999997726},{"name":"E5","midi":76,"time":263.2499999999998,"velocity":0.7480314960629921,"duration":0.33749999999997726},{"name":"C#5","midi":73,"time":263.2499999999998,"velocity":0.7480314960629921,"duration":0.33749999999997726},{"name":"A4","midi":69,"time":263.2499999999998,"velocity":0.7480314960629921,"duration":0.33749999999997726},{"name":"C#5","midi":73,"time":263.6249999999998,"velocity":0.7480314960629921,"duration":0.33749999999997726},{"name":"A5","midi":81,"time":263.6249999999998,"velocity":0.7480314960629921,"duration":0.33749999999997726},{"name":"E5","midi":76,"time":263.6249999999998,"velocity":0.7480314960629921,"duration":0.33749999999997726},{"name":"A4","midi":69,"time":263.6249999999998,"velocity":0.7480314960629921,"duration":0.33749999999997726},{"name":"E5","midi":76,"time":263.9999999999998,"velocity":0.7480314960629921,"duration":0.33749999999997726},{"name":"A4","midi":69,"time":263.9999999999998,"velocity":0.7480314960629921,"duration":0.33749999999997726},{"name":"C#5","midi":73,"time":263.9999999999998,"velocity":0.7480314960629921,"duration":0.33749999999997726},{"name":"A5","midi":81,"time":263.9999999999998,"velocity":0.7480314960629921,"duration":0.33749999999997726},{"name":"A4","midi":69,"time":264.3749999999998,"velocity":0.7480314960629921,"duration":0.33749999999997726},{"name":"C#5","midi":73,"time":264.3749999999998,"velocity":0.7480314960629921,"duration":0.33749999999997726},{"name":"E5","midi":76,"time":264.3749999999998,"velocity":0.7480314960629921,"duration":0.33749999999997726},{"name":"A5","midi":81,"time":264.3749999999998,"velocity":0.7480314960629921,"duration":0.33749999999997726},{"name":"A4","midi":69,"time":264.7499999999998,"velocity":0.7480314960629921,"duration":0.33749999999997726},{"name":"C#5","midi":73,"time":264.7499999999998,"velocity":0.7480314960629921,"duration":0.33749999999997726},{"name":"A5","midi":81,"time":264.7499999999998,"velocity":0.7480314960629921,"duration":0.33749999999997726},{"name":"E5","midi":76,"time":264.7499999999998,"velocity":0.7480314960629921,"duration":0.33749999999997726},{"name":"A5","midi":81,"time":265.1249999999998,"velocity":0.7480314960629921,"duration":0.33749999999997726},{"name":"E5","midi":76,"time":265.1249999999998,"velocity":0.7480314960629921,"duration":0.33749999999997726},{"name":"C#5","midi":73,"time":265.1249999999998,"velocity":0.7480314960629921,"duration":0.33749999999997726},{"name":"A4","midi":69,"time":265.1249999999998,"velocity":0.7480314960629921,"duration":0.33749999999997726},{"name":"A5","midi":81,"time":265.4999999999998,"velocity":0.7480314960629921,"duration":0.33749999999997726},{"name":"E5","midi":76,"time":265.4999999999998,"velocity":0.7480314960629921,"duration":0.33749999999997726},{"name":"C#5","midi":73,"time":265.4999999999998,"velocity":0.7480314960629921,"duration":0.33749999999997726},{"name":"A4","midi":69,"time":265.4999999999998,"velocity":0.7480314960629921,"duration":0.33749999999997726},{"name":"E5","midi":76,"time":265.8749999999998,"velocity":0.7480314960629921,"duration":0.33749999999997726},{"name":"C#5","midi":73,"time":265.8749999999998,"velocity":0.7480314960629921,"duration":0.33749999999997726},{"name":"A4","midi":69,"time":265.8749999999998,"velocity":0.7480314960629921,"duration":0.33749999999997726},{"name":"A5","midi":81,"time":265.8749999999998,"velocity":0.7480314960629921,"duration":0.33749999999997726},{"name":"A5","midi":81,"time":266.2499999999998,"velocity":0.7480314960629921,"duration":0.33749999999997726},{"name":"E5","midi":76,"time":266.2499999999998,"velocity":0.7480314960629921,"duration":0.33749999999997726},{"name":"C#5","midi":73,"time":266.2499999999998,"velocity":0.7480314960629921,"duration":0.33749999999997726},{"name":"A4","midi":69,"time":266.2499999999998,"velocity":0.7480314960629921,"duration":0.33749999999997726},{"name":"C#5","midi":73,"time":266.6249999999998,"velocity":0.7480314960629921,"duration":0.33749999999997726},{"name":"A4","midi":69,"time":266.6249999999998,"velocity":0.7480314960629921,"duration":0.33749999999997726},{"name":"E5","midi":76,"time":266.6249999999998,"velocity":0.7480314960629921,"duration":0.6750000000000114},{"name":"A5","midi":81,"time":266.6249999999998,"velocity":0.7480314960629921,"duration":0.33749999999997726},{"name":"B4","midi":71,"time":266.9999999999998,"velocity":0.7480314960629921,"duration":0.3375000000000341},{"name":"E4","midi":64,"time":266.9999999999998,"velocity":0.7480314960629921,"duration":0.3375000000000341},{"name":"A5","midi":81,"time":267.37499999999983,"velocity":0.7480314960629921,"duration":0.33749999999997726},{"name":"E5","midi":76,"time":267.37499999999983,"velocity":0.7480314960629921,"duration":0.33749999999997726},{"name":"E5","midi":76,"time":267.37499999999983,"velocity":0.7480314960629921,"duration":0.33749999999997726},{"name":"B4","midi":71,"time":267.37499999999983,"velocity":0.7480314960629921,"duration":0.33749999999997726},{"name":"E4","midi":64,"time":267.37499999999983,"velocity":0.7480314960629921,"duration":0.33749999999997726},{"name":"E5","midi":76,"time":267.74999999999983,"velocity":0.7480314960629921,"duration":0.33749999999997726},{"name":"B4","midi":71,"time":267.74999999999983,"velocity":0.7480314960629921,"duration":0.33749999999997726},{"name":"G#5","midi":80,"time":267.74999999999983,"velocity":0.7480314960629921,"duration":0.33749999999997726},{"name":"E4","midi":64,"time":267.74999999999983,"velocity":0.7480314960629921,"duration":0.33749999999997726},{"name":"E4","midi":64,"time":268.12499999999983,"velocity":0.7480314960629921,"duration":0.33749999999997726},{"name":"E5","midi":76,"time":268.12499999999983,"velocity":0.7480314960629921,"duration":0.33749999999997726},{"name":"B4","midi":71,"time":268.12499999999983,"velocity":0.7480314960629921,"duration":0.33749999999997726},{"name":"E4","midi":64,"time":268.49999999999983,"velocity":0.7480314960629921,"duration":0.33749999999997726},{"name":"B4","midi":71,"time":268.49999999999983,"velocity":0.7480314960629921,"duration":0.33749999999997726},{"name":"E5","midi":76,"time":268.49999999999983,"velocity":0.7480314960629921,"duration":0.33749999999997726},{"name":"G#5","midi":80,"time":268.87499999999983,"velocity":0.7480314960629921,"duration":0.33749999999997726},{"name":"B4","midi":71,"time":268.87499999999983,"velocity":0.7480314960629921,"duration":0.33749999999997726},{"name":"E4","midi":64,"time":268.87499999999983,"velocity":0.7480314960629921,"duration":0.33749999999997726},{"name":"E5","midi":76,"time":268.87499999999983,"velocity":0.7480314960629921,"duration":0.33749999999997726},{"name":"G#5","midi":80,"time":269.24999999999983,"velocity":0.7480314960629921,"duration":0.33749999999997726},{"name":"E5","midi":76,"time":269.24999999999983,"velocity":0.7480314960629921,"duration":0.33749999999997726},{"name":"B4","midi":71,"time":269.24999999999983,"velocity":0.7480314960629921,"duration":0.33749999999997726},{"name":"E4","midi":64,"time":269.24999999999983,"velocity":0.7480314960629921,"duration":0.33749999999997726},{"name":"E4","midi":64,"time":269.62499999999983,"velocity":0.7480314960629921,"duration":0.33749999999997726},{"name":"B4","midi":71,"time":269.62499999999983,"velocity":0.7480314960629921,"duration":0.33749999999997726},{"name":"E5","midi":76,"time":269.62499999999983,"velocity":0.7480314960629921,"duration":0.33749999999997726},{"name":"B4","midi":71,"time":269.99999999999983,"velocity":0.7480314960629921,"duration":0.33749999999997726},{"name":"E4","midi":64,"time":269.99999999999983,"velocity":0.7480314960629921,"duration":0.33749999999997726},{"name":"E5","midi":76,"time":269.99999999999983,"velocity":0.7480314960629921,"duration":0.33749999999997726},{"name":"E4","midi":64,"time":270.37499999999983,"velocity":0.7480314960629921,"duration":0.33749999999997726},{"name":"B4","midi":71,"time":270.37499999999983,"velocity":0.7480314960629921,"duration":0.33749999999997726},{"name":"E5","midi":76,"time":270.37499999999983,"velocity":0.7480314960629921,"duration":0.33749999999997726},{"name":"G#5","midi":80,"time":270.37499999999983,"velocity":0.7480314960629921,"duration":0.33749999999997726},{"name":"G#5","midi":80,"time":270.74999999999983,"velocity":0.7480314960629921,"duration":0.33749999999997726},{"name":"E5","midi":76,"time":270.74999999999983,"velocity":0.7480314960629921,"duration":0.33749999999997726},{"name":"B4","midi":71,"time":270.74999999999983,"velocity":0.7480314960629921,"duration":0.33749999999997726},{"name":"E4","midi":64,"time":270.74999999999983,"velocity":0.7480314960629921,"duration":0.33749999999997726},{"name":"E5","midi":76,"time":271.12499999999983,"velocity":0.7480314960629921,"duration":0.33749999999997726},{"name":"E4","midi":64,"time":271.12499999999983,"velocity":0.7480314960629921,"duration":0.33749999999997726},{"name":"B4","midi":71,"time":271.12499999999983,"velocity":0.7480314960629921,"duration":0.33749999999997726},{"name":"B4","midi":71,"time":271.49999999999983,"velocity":0.7480314960629921,"duration":0.33749999999997726},{"name":"E4","midi":64,"time":271.49999999999983,"velocity":0.7480314960629921,"duration":0.33749999999997726},{"name":"E5","midi":76,"time":271.49999999999983,"velocity":0.7480314960629921,"duration":0.33749999999997726},{"name":"B4","midi":71,"time":271.87499999999983,"velocity":0.7480314960629921,"duration":0.33749999999997726},{"name":"E5","midi":76,"time":271.87499999999983,"velocity":0.7480314960629921,"duration":0.33749999999997726},{"name":"G#5","midi":80,"time":271.87499999999983,"velocity":0.7480314960629921,"duration":0.33749999999997726},{"name":"E4","midi":64,"time":271.87499999999983,"velocity":0.7480314960629921,"duration":0.33749999999997726},{"name":"G#5","midi":80,"time":272.24999999999983,"velocity":0.7480314960629921,"duration":0.33749999999997726},{"name":"E5","midi":76,"time":272.24999999999983,"velocity":0.7480314960629921,"duration":0.33749999999997726},{"name":"B4","midi":71,"time":272.24999999999983,"velocity":0.7480314960629921,"duration":0.33749999999997726},{"name":"E4","midi":64,"time":272.24999999999983,"velocity":0.7480314960629921,"duration":0.33749999999997726},{"name":"E5","midi":76,"time":272.62499999999983,"velocity":0.7480314960629921,"duration":0.33749999999997726},{"name":"E4","midi":64,"time":272.62499999999983,"velocity":0.7480314960629921,"duration":0.33749999999997726},{"name":"B4","midi":71,"time":272.62499999999983,"velocity":0.7480314960629921,"duration":0.33749999999997726},{"name":"B3","midi":59,"time":272.99999999999983,"velocity":0.7480314960629921,"duration":0.33749999999997726},{"name":"F#4","midi":66,"time":272.99999999999983,"velocity":0.7480314960629921,"duration":0.33749999999997726},{"name":"A4","midi":69,"time":272.99999999999983,"velocity":0.7480314960629921,"duration":0.33749999999997726},{"name":"D5","midi":74,"time":272.99999999999983,"velocity":0.7480314960629921,"duration":0.33749999999997726},{"name":"D5","midi":74,"time":273.37499999999983,"velocity":0.7480314960629921,"duration":0.33749999999997726},{"name":"B3","midi":59,"time":273.37499999999983,"velocity":0.7480314960629921,"duration":0.33749999999997726},{"name":"F#4","midi":66,"time":273.37499999999983,"velocity":0.7480314960629921,"duration":0.33749999999997726},{"name":"A4","midi":69,"time":273.37499999999983,"velocity":0.7480314960629921,"duration":0.33749999999997726},{"name":"A4","midi":69,"time":273.74999999999983,"velocity":0.7480314960629921,"duration":0.33749999999997726},{"name":"D5","midi":74,"time":273.74999999999983,"velocity":0.7480314960629921,"duration":0.33749999999997726},{"name":"F#5","midi":78,"time":273.74999999999983,"velocity":0.7480314960629921,"duration":0.33749999999997726},{"name":"B3","midi":59,"time":273.74999999999983,"velocity":0.7480314960629921,"duration":0.33749999999997726},{"name":"F#4","midi":66,"time":273.74999999999983,"velocity":0.7480314960629921,"duration":0.33749999999997726},{"name":"D5","midi":74,"time":274.12499999999983,"velocity":0.7480314960629921,"duration":0.33749999999997726},{"name":"A4","midi":69,"time":274.12499999999983,"velocity":0.7480314960629921,"duration":0.33749999999997726},{"name":"F#4","midi":66,"time":274.12499999999983,"velocity":0.7480314960629921,"duration":0.33749999999997726},{"name":"B3","midi":59,"time":274.12499999999983,"velocity":0.7480314960629921,"duration":0.33749999999997726},{"name":"B3","midi":59,"time":274.49999999999983,"velocity":0.7480314960629921,"duration":0.33749999999997726},{"name":"A4","midi":69,"time":274.49999999999983,"velocity":0.7480314960629921,"duration":0.33749999999997726},{"name":"D5","midi":74,"time":274.49999999999983,"velocity":0.7480314960629921,"duration":0.33749999999997726},{"name":"F#4","midi":66,"time":274.49999999999983,"velocity":0.7480314960629921,"duration":0.33749999999997726},{"name":"B3","midi":59,"time":274.87499999999983,"velocity":0.7480314960629921,"duration":0.33749999999997726},{"name":"F#4","midi":66,"time":274.87499999999983,"velocity":0.7480314960629921,"duration":0.33749999999997726},{"name":"A4","midi":69,"time":274.87499999999983,"velocity":0.7480314960629921,"duration":0.33749999999997726},{"name":"F#5","midi":78,"time":274.87499999999983,"velocity":0.7480314960629921,"duration":0.33749999999997726},{"name":"D5","midi":74,"time":274.87499999999983,"velocity":0.7480314960629921,"duration":0.33749999999997726},{"name":"B3","midi":59,"time":275.24999999999983,"velocity":0.7480314960629921,"duration":0.33749999999997726},{"name":"F#4","midi":66,"time":275.24999999999983,"velocity":0.7480314960629921,"duration":0.33749999999997726},{"name":"A4","midi":69,"time":275.24999999999983,"velocity":0.7480314960629921,"duration":0.33749999999997726},{"name":"D5","midi":74,"time":275.24999999999983,"velocity":0.7480314960629921,"duration":0.33749999999997726},{"name":"F#5","midi":78,"time":275.24999999999983,"velocity":0.7480314960629921,"duration":0.33749999999997726},{"name":"A4","midi":69,"time":275.62499999999983,"velocity":0.7480314960629921,"duration":0.33749999999997726},{"name":"D5","midi":74,"time":275.62499999999983,"velocity":0.7480314960629921,"duration":0.33749999999997726},{"name":"B3","midi":59,"time":275.62499999999983,"velocity":0.7480314960629921,"duration":0.33749999999997726},{"name":"F#4","midi":66,"time":275.62499999999983,"velocity":0.7480314960629921,"duration":0.33749999999997726},{"name":"B3","midi":59,"time":275.99999999999983,"velocity":0.7480314960629921,"duration":0.33749999999997726},{"name":"F#4","midi":66,"time":275.99999999999983,"velocity":0.7480314960629921,"duration":0.33749999999997726},{"name":"A4","midi":69,"time":275.99999999999983,"velocity":0.7480314960629921,"duration":0.33749999999997726},{"name":"D5","midi":74,"time":275.99999999999983,"velocity":0.7480314960629921,"duration":0.33749999999997726},{"name":"F#4","midi":66,"time":276.37499999999983,"velocity":0.7480314960629921,"duration":0.33749999999997726},{"name":"F#5","midi":78,"time":276.37499999999983,"velocity":0.7480314960629921,"duration":0.33749999999997726},{"name":"B3","midi":59,"time":276.37499999999983,"velocity":0.7480314960629921,"duration":0.33749999999997726},{"name":"D5","midi":74,"time":276.37499999999983,"velocity":0.7480314960629921,"duration":0.33749999999997726},{"name":"A4","midi":69,"time":276.37499999999983,"velocity":0.7480314960629921,"duration":0.33749999999997726},{"name":"F#5","midi":78,"time":276.74999999999983,"velocity":0.7480314960629921,"duration":0.33749999999997726},{"name":"D5","midi":74,"time":276.74999999999983,"velocity":0.7480314960629921,"duration":0.33749999999997726},{"name":"A4","midi":69,"time":276.74999999999983,"velocity":0.7480314960629921,"duration":0.33749999999997726},{"name":"F#4","midi":66,"time":276.74999999999983,"velocity":0.7480314960629921,"duration":0.33749999999997726},{"name":"B3","midi":59,"time":276.74999999999983,"velocity":0.7480314960629921,"duration":0.33749999999997726},{"name":"B3","midi":59,"time":277.12499999999983,"velocity":0.7480314960629921,"duration":0.33749999999997726},{"name":"F#4","midi":66,"time":277.12499999999983,"velocity":0.7480314960629921,"duration":0.33749999999997726},{"name":"A4","midi":69,"time":277.12499999999983,"velocity":0.7480314960629921,"duration":0.33749999999997726},{"name":"D5","midi":74,"time":277.12499999999983,"velocity":0.7480314960629921,"duration":0.33749999999997726},{"name":"F#4","midi":66,"time":277.49999999999983,"velocity":0.7480314960629921,"duration":0.33749999999997726},{"name":"D5","midi":74,"time":277.49999999999983,"velocity":0.7480314960629921,"duration":0.33749999999997726},{"name":"A4","midi":69,"time":277.49999999999983,"velocity":0.7480314960629921,"duration":0.33749999999997726},{"name":"B3","midi":59,"time":277.49999999999983,"velocity":0.7480314960629921,"duration":0.33749999999997726},{"name":"B3","midi":59,"time":277.87499999999983,"velocity":0.7480314960629921,"duration":0.33749999999997726},{"name":"F#5","midi":78,"time":277.87499999999983,"velocity":0.7480314960629921,"duration":0.33749999999997726},{"name":"D5","midi":74,"time":277.87499999999983,"velocity":0.7480314960629921,"duration":0.33749999999997726},{"name":"A4","midi":69,"time":277.87499999999983,"velocity":0.7480314960629921,"duration":0.33749999999997726},{"name":"F#4","midi":66,"time":277.87499999999983,"velocity":0.7480314960629921,"duration":0.33749999999997726},{"name":"F#4","midi":66,"time":278.24999999999983,"velocity":0.7480314960629921,"duration":0.33749999999997726},{"name":"B3","midi":59,"time":278.24999999999983,"velocity":0.7480314960629921,"duration":0.33749999999997726},{"name":"D5","midi":74,"time":278.24999999999983,"velocity":0.7480314960629921,"duration":0.33749999999997726},{"name":"F#5","midi":78,"time":278.24999999999983,"velocity":0.7480314960629921,"duration":0.33749999999997726},{"name":"A4","midi":69,"time":278.24999999999983,"velocity":0.7480314960629921,"duration":0.33749999999997726},{"name":"F#4","midi":66,"time":278.62499999999983,"velocity":0.7480314960629921,"duration":0.33749999999997726},{"name":"B3","midi":59,"time":278.62499999999983,"velocity":0.7480314960629921,"duration":0.33749999999997726},{"name":"D5","midi":74,"time":278.62499999999983,"velocity":0.7480314960629921,"duration":0.33749999999997726},{"name":"A4","midi":69,"time":278.62499999999983,"velocity":0.7480314960629921,"duration":0.33749999999997726},{"name":"D4","midi":62,"time":278.99999999999983,"velocity":0.7480314960629921,"duration":0.33749999999997726},{"name":"A4","midi":69,"time":278.99999999999983,"velocity":0.7480314960629921,"duration":0.33749999999997726},{"name":"D4","midi":62,"time":279.37499999999983,"velocity":0.7480314960629921,"duration":0.33749999999997726},{"name":"D5","midi":74,"time":279.37499999999983,"velocity":0.7480314960629921,"duration":0.33749999999997726},{"name":"F#5","midi":78,"time":279.37499999999983,"velocity":0.7480314960629921,"duration":0.33749999999997726},{"name":"A4","midi":69,"time":279.37499999999983,"velocity":0.7480314960629921,"duration":0.33749999999997726},{"name":"C#5","midi":73,"time":279.74999999999983,"velocity":0.7480314960629921,"duration":0.33749999999997726},{"name":"A4","midi":69,"time":279.74999999999983,"velocity":0.7480314960629921,"duration":0.33749999999997726},{"name":"D4","midi":62,"time":279.74999999999983,"velocity":0.7480314960629921,"duration":0.33749999999997726},{"name":"D4","midi":62,"time":280.12499999999983,"velocity":0.7480314960629921,"duration":0.33749999999997726},{"name":"A4","midi":69,"time":280.12499999999983,"velocity":0.7480314960629921,"duration":0.33749999999997726},{"name":"D4","midi":62,"time":280.49999999999983,"velocity":0.7480314960629921,"duration":0.33749999999997726},{"name":"A4","midi":69,"time":280.49999999999983,"velocity":0.7480314960629921,"duration":0.33749999999997726},{"name":"A4","midi":69,"time":280.87499999999983,"velocity":0.7480314960629921,"duration":0.33749999999997726},{"name":"D4","midi":62,"time":280.87499999999983,"velocity":0.7480314960629921,"duration":0.33749999999997726},{"name":"D5","midi":74,"time":280.87499999999983,"velocity":0.7480314960629921,"duration":0.33749999999997726},{"name":"C#5","midi":73,"time":281.24999999999983,"velocity":0.7480314960629921,"duration":0.33749999999997726},{"name":"D4","midi":62,"time":281.24999999999983,"velocity":0.7480314960629921,"duration":0.33749999999997726},{"name":"A4","midi":69,"time":281.24999999999983,"velocity":0.7480314960629921,"duration":0.33749999999997726},{"name":"D4","midi":62,"time":281.62499999999983,"velocity":0.7480314960629921,"duration":0.33749999999997726},{"name":"A4","midi":69,"time":281.62499999999983,"velocity":0.7480314960629921,"duration":0.33749999999997726},{"name":"A4","midi":69,"time":281.99999999999983,"velocity":0.7480314960629921,"duration":0.33749999999997726},{"name":"D4","midi":62,"time":281.99999999999983,"velocity":0.7480314960629921,"duration":0.33749999999997726},{"name":"D5","midi":74,"time":282.37499999999983,"velocity":0.7480314960629921,"duration":0.33749999999997726},{"name":"D4","midi":62,"time":282.37499999999983,"velocity":0.7480314960629921,"duration":0.33749999999997726},{"name":"A4","midi":69,"time":282.37499999999983,"velocity":0.7480314960629921,"duration":0.33749999999997726},{"name":"D4","midi":62,"time":282.74999999999983,"velocity":0.7480314960629921,"duration":0.33749999999997726},{"name":"A4","midi":69,"time":282.74999999999983,"velocity":0.7480314960629921,"duration":0.33749999999997726},{"name":"C#5","midi":73,"time":282.74999999999983,"velocity":0.7480314960629921,"duration":0.33749999999997726},{"name":"A4","midi":69,"time":283.12499999999983,"velocity":0.7480314960629921,"duration":0.33749999999997726},{"name":"D4","midi":62,"time":283.12499999999983,"velocity":0.7480314960629921,"duration":0.33749999999997726},{"name":"A4","midi":69,"time":283.49999999999983,"velocity":0.7480314960629921,"duration":0.33749999999997726},{"name":"D4","midi":62,"time":283.49999999999983,"velocity":0.7480314960629921,"duration":0.33749999999997726},{"name":"A4","midi":69,"time":283.87499999999983,"velocity":0.7480314960629921,"duration":0.33749999999997726},{"name":"D4","midi":62,"time":283.87499999999983,"velocity":0.7480314960629921,"duration":0.33749999999997726},{"name":"D5","midi":74,"time":283.87499999999983,"velocity":0.7480314960629921,"duration":0.33749999999997726},{"name":"A4","midi":69,"time":284.24999999999983,"velocity":0.7480314960629921,"duration":0.33749999999997726},{"name":"D4","midi":62,"time":284.24999999999983,"velocity":0.7480314960629921,"duration":0.33749999999997726},{"name":"C#5","midi":73,"time":284.24999999999983,"velocity":0.7480314960629921,"duration":0.33749999999997726},{"name":"D4","midi":62,"time":284.62499999999983,"velocity":0.7480314960629921,"duration":0.33749999999997726},{"name":"A4","midi":69,"time":284.62499999999983,"velocity":0.7480314960629921,"duration":0.33749999999997726},{"name":"A4","midi":69,"time":284.99999999999983,"velocity":0.7480314960629921,"duration":0.33749999999997726},{"name":"A5","midi":81,"time":284.99999999999983,"velocity":0.7480314960629921,"duration":0.33749999999997726},{"name":"E5","midi":76,"time":284.99999999999983,"velocity":0.7480314960629921,"duration":0.33749999999997726},{"name":"C#5","midi":73,"time":284.99999999999983,"velocity":0.7480314960629921,"duration":0.33749999999997726},{"name":"C#5","midi":73,"time":285.37499999999983,"velocity":0.7480314960629921,"duration":0.33749999999997726},{"name":"A5","midi":81,"time":285.37499999999983,"velocity":0.7480314960629921,"duration":0.33749999999997726},{"name":"E5","midi":76,"time":285.37499999999983,"velocity":0.7480314960629921,"duration":0.33749999999997726},{"name":"A4","midi":69,"time":285.37499999999983,"velocity":0.7480314960629921,"duration":0.33749999999997726},{"name":"E5","midi":76,"time":285.74999999999983,"velocity":0.7480314960629921,"duration":0.33749999999997726},{"name":"A4","midi":69,"time":285.74999999999983,"velocity":0.7480314960629921,"duration":0.33749999999997726},{"name":"C#5","midi":73,"time":285.74999999999983,"velocity":0.7480314960629921,"duration":0.33749999999997726},{"name":"A5","midi":81,"time":285.74999999999983,"velocity":0.7480314960629921,"duration":0.33749999999997726},{"name":"A5","midi":81,"time":286.12499999999983,"velocity":0.7480314960629921,"duration":0.33749999999997726},{"name":"E5","midi":76,"time":286.12499999999983,"velocity":0.7480314960629921,"duration":0.33749999999997726},{"name":"C#5","midi":73,"time":286.12499999999983,"velocity":0.7480314960629921,"duration":0.33749999999997726},{"name":"A4","midi":69,"time":286.12499999999983,"velocity":0.7480314960629921,"duration":0.33749999999997726},{"name":"A5","midi":81,"time":286.49999999999983,"velocity":0.7480314960629921,"duration":0.33749999999997726},{"name":"E5","midi":76,"time":286.49999999999983,"velocity":0.7480314960629921,"duration":0.33749999999997726},{"name":"C#5","midi":73,"time":286.49999999999983,"velocity":0.7480314960629921,"duration":0.33749999999997726},{"name":"A4","midi":69,"time":286.49999999999983,"velocity":0.7480314960629921,"duration":0.33749999999997726},{"name":"C#5","midi":73,"time":286.87499999999983,"velocity":0.7480314960629921,"duration":0.33749999999997726},{"name":"E5","midi":76,"time":286.87499999999983,"velocity":0.7480314960629921,"duration":0.33749999999997726},{"name":"A5","midi":81,"time":286.87499999999983,"velocity":0.7480314960629921,"duration":0.33749999999997726},{"name":"A4","midi":69,"time":286.87499999999983,"velocity":0.7480314960629921,"duration":0.33749999999997726},{"name":"A5","midi":81,"time":287.24999999999983,"velocity":0.7480314960629921,"duration":0.33749999999997726},{"name":"A4","midi":69,"time":287.24999999999983,"velocity":0.7480314960629921,"duration":0.33749999999997726},{"name":"C#5","midi":73,"time":287.24999999999983,"velocity":0.7480314960629921,"duration":0.33749999999997726},{"name":"E5","midi":76,"time":287.24999999999983,"velocity":0.7480314960629921,"duration":0.33749999999997726},{"name":"C#5","midi":73,"time":287.62499999999983,"velocity":0.7480314960629921,"duration":0.33749999999997726},{"name":"E5","midi":76,"time":287.62499999999983,"velocity":0.7480314960629921,"duration":0.33749999999997726},{"name":"A5","midi":81,"time":287.62499999999983,"velocity":0.7480314960629921,"duration":0.33749999999997726},{"name":"A4","midi":69,"time":287.62499999999983,"velocity":0.7480314960629921,"duration":0.33749999999997726},{"name":"E5","midi":76,"time":287.99999999999983,"velocity":0.7480314960629921,"duration":0.33749999999997726},{"name":"A4","midi":69,"time":287.99999999999983,"velocity":0.7480314960629921,"duration":0.33749999999997726},{"name":"C#5","midi":73,"time":287.99999999999983,"velocity":0.7480314960629921,"duration":0.33749999999997726},{"name":"A5","midi":81,"time":287.99999999999983,"velocity":0.7480314960629921,"duration":0.33749999999997726},{"name":"A5","midi":81,"time":288.37499999999983,"velocity":0.7480314960629921,"duration":0.33749999999997726},{"name":"E5","midi":76,"time":288.37499999999983,"velocity":0.7480314960629921,"duration":0.33749999999997726},{"name":"C#5","midi":73,"time":288.37499999999983,"velocity":0.7480314960629921,"duration":0.33749999999997726},{"name":"A4","midi":69,"time":288.37499999999983,"velocity":0.7480314960629921,"duration":0.33749999999997726},{"name":"A5","midi":81,"time":288.74999999999983,"velocity":0.7480314960629921,"duration":0.33749999999997726},{"name":"E5","midi":76,"time":288.74999999999983,"velocity":0.7480314960629921,"duration":0.33749999999997726},{"name":"A4","midi":69,"time":288.74999999999983,"velocity":0.7480314960629921,"duration":0.33749999999997726},{"name":"C#5","midi":73,"time":288.74999999999983,"velocity":0.7480314960629921,"duration":0.33749999999997726},{"name":"C#5","midi":73,"time":289.12499999999983,"velocity":0.7480314960629921,"duration":0.33749999999997726},{"name":"A5","midi":81,"time":289.12499999999983,"velocity":0.7480314960629921,"duration":0.33749999999997726},{"name":"E5","midi":76,"time":289.12499999999983,"velocity":0.7480314960629921,"duration":0.33749999999997726},{"name":"A4","midi":69,"time":289.12499999999983,"velocity":0.7480314960629921,"duration":0.33749999999997726},{"name":"A5","midi":81,"time":289.49999999999983,"velocity":0.7480314960629921,"duration":0.33749999999997726},{"name":"C#5","midi":73,"time":289.49999999999983,"velocity":0.7480314960629921,"duration":0.33749999999997726},{"name":"A4","midi":69,"time":289.49999999999983,"velocity":0.7480314960629921,"duration":0.33749999999997726},{"name":"E5","midi":76,"time":289.49999999999983,"velocity":0.7480314960629921,"duration":0.33749999999997726},{"name":"A4","midi":69,"time":289.87499999999983,"velocity":0.7480314960629921,"duration":0.33749999999997726},{"name":"E5","midi":76,"time":289.87499999999983,"velocity":0.7480314960629921,"duration":0.33749999999997726},{"name":"A5","midi":81,"time":289.87499999999983,"velocity":0.7480314960629921,"duration":0.33749999999997726},{"name":"C#5","midi":73,"time":289.87499999999983,"velocity":0.7480314960629921,"duration":0.33749999999997726},{"name":"A5","midi":81,"time":290.24999999999983,"velocity":0.7480314960629921,"duration":0.33749999999997726},{"name":"E5","midi":76,"time":290.24999999999983,"velocity":0.7480314960629921,"duration":0.33749999999997726},{"name":"C#5","midi":73,"time":290.24999999999983,"velocity":0.7480314960629921,"duration":0.33749999999997726},{"name":"A4","midi":69,"time":290.24999999999983,"velocity":0.7480314960629921,"duration":0.33749999999997726},{"name":"E5","midi":76,"time":290.62499999999983,"velocity":0.7480314960629921,"duration":0.6750000000000114},{"name":"A5","midi":81,"time":290.62499999999983,"velocity":0.7480314960629921,"duration":0.33749999999997726},{"name":"C#5","midi":73,"time":290.62499999999983,"velocity":0.7480314960629921,"duration":0.33749999999997726},{"name":"A4","midi":69,"time":290.62499999999983,"velocity":0.7480314960629921,"duration":0.33749999999997726},{"name":"B4","midi":71,"time":290.99999999999983,"velocity":0.7480314960629921,"duration":0.3375000000000341},{"name":"E4","midi":64,"time":290.99999999999983,"velocity":0.7480314960629921,"duration":0.3375000000000341},{"name":"E5","midi":76,"time":291.3749999999999,"velocity":0.7480314960629921,"duration":0.33749999999997726},{"name":"E5","midi":76,"time":291.3749999999999,"velocity":0.7480314960629921,"duration":0.33749999999997726},{"name":"B4","midi":71,"time":291.3749999999999,"velocity":0.7480314960629921,"duration":0.33749999999997726},{"name":"E4","midi":64,"time":291.3749999999999,"velocity":0.7480314960629921,"duration":0.33749999999997726},{"name":"A5","midi":81,"time":291.3749999999999,"velocity":0.7480314960629921,"duration":0.33749999999997726},{"name":"G#5","midi":80,"time":291.7499999999999,"velocity":0.7480314960629921,"duration":0.33749999999997726},{"name":"E5","midi":76,"time":291.7499999999999,"velocity":0.7480314960629921,"duration":0.33749999999997726},{"name":"B4","midi":71,"time":291.7499999999999,"velocity":0.7480314960629921,"duration":0.33749999999997726},{"name":"E4","midi":64,"time":291.7499999999999,"velocity":0.7480314960629921,"duration":0.33749999999997726},{"name":"E4","midi":64,"time":292.1249999999999,"velocity":0.7480314960629921,"duration":0.33749999999997726},{"name":"E5","midi":76,"time":292.1249999999999,"velocity":0.7480314960629921,"duration":0.33749999999997726},{"name":"B4","midi":71,"time":292.1249999999999,"velocity":0.7480314960629921,"duration":0.33749999999997726},{"name":"E5","midi":76,"time":292.4999999999999,"velocity":0.7480314960629921,"duration":0.33749999999997726},{"name":"B4","midi":71,"time":292.4999999999999,"velocity":0.7480314960629921,"duration":0.33749999999997726},{"name":"E4","midi":64,"time":292.4999999999999,"velocity":0.7480314960629921,"duration":0.33749999999997726},{"name":"G#5","midi":80,"time":292.8749999999999,"velocity":0.7480314960629921,"duration":0.33749999999997726},{"name":"E5","midi":76,"time":292.8749999999999,"velocity":0.7480314960629921,"duration":0.33749999999997726},{"name":"B4","midi":71,"time":292.8749999999999,"velocity":0.7480314960629921,"duration":0.33749999999997726},{"name":"E4","midi":64,"time":292.8749999999999,"velocity":0.7480314960629921,"duration":0.33749999999997726},{"name":"G#5","midi":80,"time":293.2499999999999,"velocity":0.7480314960629921,"duration":0.33749999999997726},{"name":"E5","midi":76,"time":293.2499999999999,"velocity":0.7480314960629921,"duration":0.33749999999997726},{"name":"B4","midi":71,"time":293.2499999999999,"velocity":0.7480314960629921,"duration":0.33749999999997726},{"name":"E4","midi":64,"time":293.2499999999999,"velocity":0.7480314960629921,"duration":0.33749999999997726},{"name":"E4","midi":64,"time":293.6249999999999,"velocity":0.7480314960629921,"duration":0.33749999999997726},{"name":"B4","midi":71,"time":293.6249999999999,"velocity":0.7480314960629921,"duration":0.33749999999997726},{"name":"E5","midi":76,"time":293.6249999999999,"velocity":0.7480314960629921,"duration":0.33749999999997726},{"name":"E4","midi":64,"time":293.9999999999999,"velocity":0.7480314960629921,"duration":0.33749999999997726},{"name":"B4","midi":71,"time":293.9999999999999,"velocity":0.7480314960629921,"duration":0.33749999999997726},{"name":"E5","midi":76,"time":293.9999999999999,"velocity":0.7480314960629921,"duration":0.33749999999997726},{"name":"E4","midi":64,"time":294.3749999999999,"velocity":0.7480314960629921,"duration":0.33749999999997726},{"name":"B4","midi":71,"time":294.3749999999999,"velocity":0.7480314960629921,"duration":0.33749999999997726},{"name":"E5","midi":76,"time":294.3749999999999,"velocity":0.7480314960629921,"duration":0.33749999999997726},{"name":"G#5","midi":80,"time":294.3749999999999,"velocity":0.7480314960629921,"duration":0.33749999999997726},{"name":"E5","midi":76,"time":294.7499999999999,"velocity":0.7480314960629921,"duration":0.33749999999997726},{"name":"E4","midi":64,"time":294.7499999999999,"velocity":0.7480314960629921,"duration":0.33749999999997726},{"name":"G#5","midi":80,"time":294.7499999999999,"velocity":0.7480314960629921,"duration":0.33749999999997726},{"name":"B4","midi":71,"time":294.7499999999999,"velocity":0.7480314960629921,"duration":0.33749999999997726},{"name":"E4","midi":64,"time":295.1249999999999,"velocity":0.7480314960629921,"duration":0.33749999999997726},{"name":"B4","midi":71,"time":295.1249999999999,"velocity":0.7480314960629921,"duration":0.33749999999997726},{"name":"E5","midi":76,"time":295.1249999999999,"velocity":0.7480314960629921,"duration":0.33749999999997726},{"name":"E4","midi":64,"time":295.4999999999999,"velocity":0.7480314960629921,"duration":0.33749999999997726},{"name":"E5","midi":76,"time":295.4999999999999,"velocity":0.7480314960629921,"duration":0.33749999999997726},{"name":"B4","midi":71,"time":295.4999999999999,"velocity":0.7480314960629921,"duration":0.33749999999997726},{"name":"B4","midi":71,"time":295.8749999999999,"velocity":0.7480314960629921,"duration":0.33749999999997726},{"name":"E4","midi":64,"time":295.8749999999999,"velocity":0.7480314960629921,"duration":0.33749999999997726},{"name":"E5","midi":76,"time":295.8749999999999,"velocity":0.7480314960629921,"duration":0.33749999999997726},{"name":"G#5","midi":80,"time":295.8749999999999,"velocity":0.7480314960629921,"duration":0.33749999999997726},{"name":"E4","midi":64,"time":296.2499999999999,"velocity":0.7480314960629921,"duration":0.33749999999997726},{"name":"E5","midi":76,"time":296.2499999999999,"velocity":0.7480314960629921,"duration":0.33749999999997726},{"name":"G#5","midi":80,"time":296.2499999999999,"velocity":0.7480314960629921,"duration":0.33749999999997726},{"name":"B4","midi":71,"time":296.2499999999999,"velocity":0.7480314960629921,"duration":0.33749999999997726},{"name":"E5","midi":76,"time":296.6249999999999,"velocity":0.7480314960629921,"duration":0.33749999999997726},{"name":"B4","midi":71,"time":296.6249999999999,"velocity":0.7480314960629921,"duration":0.33749999999997726},{"name":"E4","midi":64,"time":296.6249999999999,"velocity":0.7480314960629921,"duration":0.33749999999997726},{"name":"B3","midi":59,"time":296.9999999999999,"velocity":0.7480314960629921,"duration":0.33749999999997726},{"name":"D5","midi":74,"time":296.9999999999999,"velocity":0.7480314960629921,"duration":0.33749999999997726},{"name":"A4","midi":69,"time":296.9999999999999,"velocity":0.7480314960629921,"duration":0.33749999999997726},{"name":"F#4","midi":66,"time":296.9999999999999,"velocity":0.7480314960629921,"duration":0.33749999999997726},{"name":"D5","midi":74,"time":297.3749999999999,"velocity":0.7480314960629921,"duration":0.33749999999997726},{"name":"B3","midi":59,"time":297.3749999999999,"velocity":0.7480314960629921,"duration":0.33749999999997726},{"name":"F#4","midi":66,"time":297.3749999999999,"velocity":0.7480314960629921,"duration":0.33749999999997726},{"name":"A4","midi":69,"time":297.3749999999999,"velocity":0.7480314960629921,"duration":0.33749999999997726},{"name":"A4","midi":69,"time":297.7499999999999,"velocity":0.7480314960629921,"duration":0.33749999999997726},{"name":"F#5","midi":78,"time":297.7499999999999,"velocity":0.7480314960629921,"duration":0.33749999999997726},{"name":"D5","midi":74,"time":297.7499999999999,"velocity":0.7480314960629921,"duration":0.33749999999997726},{"name":"B3","midi":59,"time":297.7499999999999,"velocity":0.7480314960629921,"duration":0.33749999999997726},{"name":"F#4","midi":66,"time":297.7499999999999,"velocity":0.7480314960629921,"duration":0.33749999999997726},{"name":"D5","midi":74,"time":298.1249999999999,"velocity":0.7480314960629921,"duration":0.33749999999997726},{"name":"A4","midi":69,"time":298.1249999999999,"velocity":0.7480314960629921,"duration":0.33749999999997726},{"name":"F#4","midi":66,"time":298.1249999999999,"velocity":0.7480314960629921,"duration":0.33749999999997726},{"name":"B3","midi":59,"time":298.1249999999999,"velocity":0.7480314960629921,"duration":0.33749999999997726},{"name":"A4","midi":69,"time":298.4999999999999,"velocity":0.7480314960629921,"duration":0.33749999999997726},{"name":"B3","midi":59,"time":298.4999999999999,"velocity":0.7480314960629921,"duration":0.33749999999997726},{"name":"F#4","midi":66,"time":298.4999999999999,"velocity":0.7480314960629921,"duration":0.33749999999997726},{"name":"D5","midi":74,"time":298.4999999999999,"velocity":0.7480314960629921,"duration":0.33749999999997726},{"name":"D5","midi":74,"time":298.8749999999999,"velocity":0.7480314960629921,"duration":0.33749999999997726},{"name":"F#5","midi":78,"time":298.8749999999999,"velocity":0.7480314960629921,"duration":0.33749999999997726},{"name":"B3","midi":59,"time":298.8749999999999,"velocity":0.7480314960629921,"duration":0.33749999999997726},{"name":"F#4","midi":66,"time":298.8749999999999,"velocity":0.7480314960629921,"duration":0.33749999999997726},{"name":"A4","midi":69,"time":298.8749999999999,"velocity":0.7480314960629921,"duration":0.33749999999997726},{"name":"F#5","midi":78,"time":299.2499999999999,"velocity":0.7480314960629921,"duration":0.33749999999997726},{"name":"B3","midi":59,"time":299.2499999999999,"velocity":0.7480314960629921,"duration":0.33749999999997726},{"name":"F#4","midi":66,"time":299.2499999999999,"velocity":0.7480314960629921,"duration":0.33749999999997726},{"name":"D5","midi":74,"time":299.2499999999999,"velocity":0.7480314960629921,"duration":0.33749999999997726},{"name":"A4","midi":69,"time":299.2499999999999,"velocity":0.7480314960629921,"duration":0.33749999999997726},{"name":"B3","midi":59,"time":299.6249999999999,"velocity":0.7480314960629921,"duration":0.33749999999997726},{"name":"F#4","midi":66,"time":299.6249999999999,"velocity":0.7480314960629921,"duration":0.33749999999997726},{"name":"A4","midi":69,"time":299.6249999999999,"velocity":0.7480314960629921,"duration":0.33749999999997726},{"name":"D5","midi":74,"time":299.6249999999999,"velocity":0.7480314960629921,"duration":0.33749999999997726},{"name":"D5","midi":74,"time":299.9999999999999,"velocity":0.7480314960629921,"duration":0.33749999999997726},{"name":"F#4","midi":66,"time":299.9999999999999,"velocity":0.7480314960629921,"duration":0.33749999999997726},{"name":"B3","midi":59,"time":299.9999999999999,"velocity":0.7480314960629921,"duration":0.33749999999997726},{"name":"A4","midi":69,"time":299.9999999999999,"velocity":0.7480314960629921,"duration":0.33749999999997726},{"name":"F#5","midi":78,"time":300.3749999999999,"velocity":0.7480314960629921,"duration":0.33749999999997726},{"name":"B3","midi":59,"time":300.3749999999999,"velocity":0.7480314960629921,"duration":0.33749999999997726},{"name":"F#4","midi":66,"time":300.3749999999999,"velocity":0.7480314960629921,"duration":0.33749999999997726},{"name":"A4","midi":69,"time":300.3749999999999,"velocity":0.7480314960629921,"duration":0.33749999999997726},{"name":"D5","midi":74,"time":300.3749999999999,"velocity":0.7480314960629921,"duration":0.33749999999997726},{"name":"F#4","midi":66,"time":300.7499999999999,"velocity":0.7480314960629921,"duration":0.33749999999997726},{"name":"A4","midi":69,"time":300.7499999999999,"velocity":0.7480314960629921,"duration":0.33749999999997726},{"name":"D5","midi":74,"time":300.7499999999999,"velocity":0.7480314960629921,"duration":0.33749999999997726},{"name":"F#5","midi":78,"time":300.7499999999999,"velocity":0.7480314960629921,"duration":0.33749999999997726},{"name":"B3","midi":59,"time":300.7499999999999,"velocity":0.7480314960629921,"duration":0.33749999999997726},{"name":"D5","midi":74,"time":301.1249999999999,"velocity":0.7480314960629921,"duration":0.33749999999997726},{"name":"B3","midi":59,"time":301.1249999999999,"velocity":0.7480314960629921,"duration":0.33749999999997726},{"name":"F#4","midi":66,"time":301.1249999999999,"velocity":0.7480314960629921,"duration":0.33749999999997726},{"name":"A4","midi":69,"time":301.1249999999999,"velocity":0.7480314960629921,"duration":0.33749999999997726},{"name":"D5","midi":74,"time":301.4999999999999,"velocity":0.7480314960629921,"duration":0.33749999999997726},{"name":"B3","midi":59,"time":301.4999999999999,"velocity":0.7480314960629921,"duration":0.33749999999997726},{"name":"F#4","midi":66,"time":301.4999999999999,"velocity":0.7480314960629921,"duration":0.33749999999997726},{"name":"A4","midi":69,"time":301.4999999999999,"velocity":0.7480314960629921,"duration":0.33749999999997726},{"name":"F#4","midi":66,"time":301.8749999999999,"velocity":0.7480314960629921,"duration":0.33749999999997726},{"name":"A4","midi":69,"time":301.8749999999999,"velocity":0.7480314960629921,"duration":0.33749999999997726},{"name":"D5","midi":74,"time":301.8749999999999,"velocity":0.7480314960629921,"duration":0.33749999999997726},{"name":"F#5","midi":78,"time":301.8749999999999,"velocity":0.7480314960629921,"duration":0.33749999999997726},{"name":"B3","midi":59,"time":301.8749999999999,"velocity":0.7480314960629921,"duration":0.33749999999997726},{"name":"B3","midi":59,"time":302.2499999999999,"velocity":0.7480314960629921,"duration":0.33749999999997726},{"name":"F#5","midi":78,"time":302.2499999999999,"velocity":0.7480314960629921,"duration":0.33749999999997726},{"name":"D5","midi":74,"time":302.2499999999999,"velocity":0.7480314960629921,"duration":0.33749999999997726},{"name":"A4","midi":69,"time":302.2499999999999,"velocity":0.7480314960629921,"duration":0.33749999999997726},{"name":"F#4","midi":66,"time":302.2499999999999,"velocity":0.7480314960629921,"duration":0.33749999999997726},{"name":"D5","midi":74,"time":302.6249999999999,"velocity":0.7480314960629921,"duration":0.33749999999997726},{"name":"F#4","midi":66,"time":302.6249999999999,"velocity":0.7480314960629921,"duration":0.33749999999997726},{"name":"B3","midi":59,"time":302.6249999999999,"velocity":0.7480314960629921,"duration":0.33749999999997726},{"name":"A4","midi":69,"time":302.6249999999999,"velocity":0.7480314960629921,"duration":0.33749999999997726},{"name":"D4","midi":62,"time":302.9999999999999,"velocity":0.7480314960629921,"duration":0.33749999999997726},{"name":"A4","midi":69,"time":302.9999999999999,"velocity":0.7480314960629921,"duration":0.33749999999997726},{"name":"F#5","midi":78,"time":303.3749999999999,"velocity":0.7480314960629921,"duration":0.33749999999997726},{"name":"D4","midi":62,"time":303.3749999999999,"velocity":0.7480314960629921,"duration":0.33749999999997726},{"name":"A4","midi":69,"time":303.3749999999999,"velocity":0.7480314960629921,"duration":0.33749999999997726},{"name":"D5","midi":74,"time":303.3749999999999,"velocity":0.7480314960629921,"duration":0.33749999999997726},{"name":"D4","midi":62,"time":303.7499999999999,"velocity":0.7480314960629921,"duration":0.33749999999997726},{"name":"A4","midi":69,"time":303.7499999999999,"velocity":0.7480314960629921,"duration":0.33749999999997726},{"name":"C#5","midi":73,"time":303.7499999999999,"velocity":0.7480314960629921,"duration":0.33749999999997726},{"name":"A4","midi":69,"time":304.1249999999999,"velocity":0.7480314960629921,"duration":0.33749999999997726},{"name":"D4","midi":62,"time":304.1249999999999,"velocity":0.7480314960629921,"duration":0.33749999999997726},{"name":"D4","midi":62,"time":304.4999999999999,"velocity":0.7480314960629921,"duration":0.33749999999997726},{"name":"A4","midi":69,"time":304.4999999999999,"velocity":0.7480314960629921,"duration":0.33749999999997726},{"name":"D5","midi":74,"time":304.8749999999999,"velocity":0.7480314960629921,"duration":0.33749999999997726},{"name":"D4","midi":62,"time":304.8749999999999,"velocity":0.7480314960629921,"duration":0.33749999999997726},{"name":"A4","midi":69,"time":304.8749999999999,"velocity":0.7480314960629921,"duration":0.33749999999997726},{"name":"C#5","midi":73,"time":305.2499999999999,"velocity":0.7480314960629921,"duration":0.33749999999997726},{"name":"A4","midi":69,"time":305.2499999999999,"velocity":0.7480314960629921,"duration":0.33749999999997726},{"name":"D4","midi":62,"time":305.2499999999999,"velocity":0.7480314960629921,"duration":0.33749999999997726},{"name":"A4","midi":69,"time":305.6249999999999,"velocity":0.7480314960629921,"duration":0.33749999999997726},{"name":"D4","midi":62,"time":305.6249999999999,"velocity":0.7480314960629921,"duration":0.33749999999997726},{"name":"A4","midi":69,"time":305.9999999999999,"velocity":0.7480314960629921,"duration":0.33749999999997726},{"name":"D4","midi":62,"time":305.9999999999999,"velocity":0.7480314960629921,"duration":0.33749999999997726},{"name":"C#5","midi":73,"time":306.3749999999999,"velocity":0.7480314960629921,"duration":0.33749999999997726},{"name":"A4","midi":69,"time":306.3749999999999,"velocity":0.7480314960629921,"duration":0.33749999999997726},{"name":"D4","midi":62,"time":306.3749999999999,"velocity":0.7480314960629921,"duration":0.33749999999997726},{"name":"C#5","midi":73,"time":306.7499999999999,"velocity":0.7480314960629921,"duration":0.33749999999997726},{"name":"D4","midi":62,"time":306.7499999999999,"velocity":0.7480314960629921,"duration":0.33749999999997726},{"name":"A4","midi":69,"time":306.7499999999999,"velocity":0.7480314960629921,"duration":0.33749999999997726},{"name":"A4","midi":69,"time":307.1249999999999,"velocity":0.7480314960629921,"duration":0.33749999999997726},{"name":"D4","midi":62,"time":307.1249999999999,"velocity":0.7480314960629921,"duration":0.33749999999997726},{"name":"A4","midi":69,"time":307.4999999999999,"velocity":0.7480314960629921,"duration":0.33749999999997726},{"name":"D4","midi":62,"time":307.4999999999999,"velocity":0.7480314960629921,"duration":0.33749999999997726},{"name":"A4","midi":69,"time":307.8749999999999,"velocity":0.7480314960629921,"duration":0.33749999999997726},{"name":"D4","midi":62,"time":307.8749999999999,"velocity":0.7480314960629921,"duration":0.33749999999997726},{"name":"C#5","midi":73,"time":307.8749999999999,"velocity":0.7480314960629921,"duration":0.33749999999997726},{"name":"D4","midi":62,"time":308.2499999999999,"velocity":0.7480314960629921,"duration":0.33749999999997726},{"name":"C#5","midi":73,"time":308.2499999999999,"velocity":0.7480314960629921,"duration":0.33749999999997726},{"name":"A4","midi":69,"time":308.2499999999999,"velocity":0.7480314960629921,"duration":0.33749999999997726},{"name":"D4","midi":62,"time":308.6249999999999,"velocity":0.7480314960629921,"duration":0.33749999999997726},{"name":"A4","midi":69,"time":308.6249999999999,"velocity":0.7480314960629921,"duration":0.33749999999997726},{"name":"A3","midi":57,"time":308.9999999999999,"velocity":0.7480314960629921,"duration":0.33749999999997726},{"name":"F#5","midi":78,"time":308.9999999999999,"velocity":0.7480314960629921,"duration":0.33749999999997726},{"name":"A4","midi":69,"time":308.9999999999999,"velocity":0.7480314960629921,"duration":0.33749999999997726},{"name":"E4","midi":64,"time":308.9999999999999,"velocity":0.7480314960629921,"duration":0.33749999999997726},{"name":"C#5","midi":73,"time":308.9999999999999,"velocity":0.7480314960629921,"duration":0.33749999999997726},{"name":"F#5","midi":78,"time":309.3749999999999,"velocity":0.7480314960629921,"duration":0.33749999999997726},{"name":"C#5","midi":73,"time":309.3749999999999,"velocity":0.7480314960629921,"duration":0.33749999999997726},{"name":"A4","midi":69,"time":309.3749999999999,"velocity":0.7480314960629921,"duration":0.33749999999997726},{"name":"E4","midi":64,"time":309.3749999999999,"velocity":0.7480314960629921,"duration":0.33749999999997726},{"name":"A3","midi":57,"time":309.3749999999999,"velocity":0.7480314960629921,"duration":0.33749999999997726},{"name":"E5","midi":76,"time":309.7499999999999,"velocity":0.7480314960629921,"duration":0.5062500000000227},{"name":"A3","midi":57,"time":309.7499999999999,"velocity":0.7480314960629921,"duration":0.5062500000000227},{"name":"E4","midi":64,"time":309.7499999999999,"velocity":0.7480314960629921,"duration":0.5062500000000227},{"name":"A4","midi":69,"time":309.7499999999999,"velocity":0.7480314960629921,"duration":0.5062500000000227},{"name":"C#5","midi":73,"time":309.7499999999999,"velocity":0.7480314960629921,"duration":0.5062500000000227},{"name":"E5","midi":76,"time":310.3124999999999,"velocity":0.7480314960629921,"duration":0.16874999999998863},{"name":"A3","midi":57,"time":310.3124999999999,"velocity":0.7480314960629921,"duration":0.16874999999998863},{"name":"E4","midi":64,"time":310.3124999999999,"velocity":0.7480314960629921,"duration":0.16874999999998863},{"name":"A4","midi":69,"time":310.3124999999999,"velocity":0.7480314960629921,"duration":0.16874999999998863},{"name":"C#5","midi":73,"time":310.3124999999999,"velocity":0.7480314960629921,"duration":0.16874999999998863},{"name":"F#5","midi":78,"time":310.4999999999999,"velocity":0.7480314960629921,"duration":0.33749999999997726},{"name":"A3","midi":57,"time":310.4999999999999,"velocity":0.7480314960629921,"duration":0.33749999999997726},{"name":"E4","midi":64,"time":310.4999999999999,"velocity":0.7480314960629921,"duration":0.33749999999997726},{"name":"A4","midi":69,"time":310.4999999999999,"velocity":0.7480314960629921,"duration":0.33749999999997726},{"name":"C#5","midi":73,"time":310.4999999999999,"velocity":0.7480314960629921,"duration":0.33749999999997726},{"name":"E4","midi":64,"time":310.8749999999999,"velocity":0.7480314960629921,"duration":0.33749999999997726},{"name":"A4","midi":69,"time":310.8749999999999,"velocity":0.7480314960629921,"duration":0.33749999999997726},{"name":"C#5","midi":73,"time":310.8749999999999,"velocity":0.7480314960629921,"duration":0.33749999999997726},{"name":"F#5","midi":78,"time":310.8749999999999,"velocity":0.7480314960629921,"duration":0.33749999999997726},{"name":"A3","midi":57,"time":310.8749999999999,"velocity":0.7480314960629921,"duration":0.33749999999997726},{"name":"E5","midi":76,"time":311.2499999999999,"velocity":0.7480314960629921,"duration":0.5062500000000227},{"name":"C#5","midi":73,"time":311.2499999999999,"velocity":0.7480314960629921,"duration":0.5062500000000227},{"name":"A3","midi":57,"time":311.2499999999999,"velocity":0.7480314960629921,"duration":0.5062500000000227},{"name":"E4","midi":64,"time":311.2499999999999,"velocity":0.7480314960629921,"duration":0.5062500000000227},{"name":"A4","midi":69,"time":311.2499999999999,"velocity":0.7480314960629921,"duration":0.5062500000000227},{"name":"A4","midi":69,"time":311.8124999999999,"velocity":0.7480314960629921,"duration":0.16874999999998863},{"name":"C#5","midi":73,"time":311.8124999999999,"velocity":0.7480314960629921,"duration":0.16874999999998863},{"name":"E5","midi":76,"time":311.8124999999999,"velocity":0.7480314960629921,"duration":0.16874999999998863},{"name":"A3","midi":57,"time":311.8124999999999,"velocity":0.7480314960629921,"duration":0.16874999999998863},{"name":"E4","midi":64,"time":311.8124999999999,"velocity":0.7480314960629921,"duration":0.16874999999998863},{"name":"A4","midi":69,"time":311.9999999999999,"velocity":0.7480314960629921,"duration":0.33749999999997726},{"name":"C#5","midi":73,"time":311.9999999999999,"velocity":0.7480314960629921,"duration":0.33749999999997726},{"name":"E4","midi":64,"time":311.9999999999999,"velocity":0.7480314960629921,"duration":0.33749999999997726},{"name":"A3","midi":57,"time":311.9999999999999,"velocity":0.7480314960629921,"duration":0.33749999999997726},{"name":"F#5","midi":78,"time":311.9999999999999,"velocity":0.7480314960629921,"duration":0.33749999999997726},{"name":"F#5","midi":78,"time":312.3749999999999,"velocity":0.7480314960629921,"duration":0.33749999999997726},{"name":"A3","midi":57,"time":312.3749999999999,"velocity":0.7480314960629921,"duration":0.33749999999997726},{"name":"C#5","midi":73,"time":312.3749999999999,"velocity":0.7480314960629921,"duration":0.33749999999997726},{"name":"A4","midi":69,"time":312.3749999999999,"velocity":0.7480314960629921,"duration":0.33749999999997726},{"name":"E4","midi":64,"time":312.3749999999999,"velocity":0.7480314960629921,"duration":0.33749999999997726},{"name":"A3","midi":57,"time":312.7499999999999,"velocity":0.7480314960629921,"duration":0.5062500000000227},{"name":"E4","midi":64,"time":312.7499999999999,"velocity":0.7480314960629921,"duration":0.5062500000000227},{"name":"A4","midi":69,"time":312.7499999999999,"velocity":0.7480314960629921,"duration":0.5062500000000227},{"name":"C#5","midi":73,"time":312.7499999999999,"velocity":0.7480314960629921,"duration":0.5062500000000227},{"name":"E5","midi":76,"time":312.7499999999999,"velocity":0.7480314960629921,"duration":0.5062500000000227},{"name":"A3","midi":57,"time":313.3124999999999,"velocity":0.7480314960629921,"duration":0.16874999999998863},{"name":"E4","midi":64,"time":313.3124999999999,"velocity":0.7480314960629921,"duration":0.16874999999998863},{"name":"A4","midi":69,"time":313.3124999999999,"velocity":0.7480314960629921,"duration":0.16874999999998863},{"name":"C#5","midi":73,"time":313.3124999999999,"velocity":0.7480314960629921,"duration":0.16874999999998863},{"name":"E5","midi":76,"time":313.3124999999999,"velocity":0.7480314960629921,"duration":0.16874999999998863},{"name":"F#5","midi":78,"time":313.4999999999999,"velocity":0.7480314960629921,"duration":0.33749999999997726},{"name":"A3","midi":57,"time":313.4999999999999,"velocity":0.7480314960629921,"duration":0.33749999999997726},{"name":"E4","midi":64,"time":313.4999999999999,"velocity":0.7480314960629921,"duration":0.33749999999997726},{"name":"A4","midi":69,"time":313.4999999999999,"velocity":0.7480314960629921,"duration":0.33749999999997726},{"name":"C#5","midi":73,"time":313.4999999999999,"velocity":0.7480314960629921,"duration":0.33749999999997726},{"name":"A3","midi":57,"time":313.8749999999999,"velocity":0.7480314960629921,"duration":0.33749999999997726},{"name":"E4","midi":64,"time":313.8749999999999,"velocity":0.7480314960629921,"duration":0.33749999999997726},{"name":"A4","midi":69,"time":313.8749999999999,"velocity":0.7480314960629921,"duration":0.33749999999997726},{"name":"C#5","midi":73,"time":313.8749999999999,"velocity":0.7480314960629921,"duration":0.33749999999997726},{"name":"F#5","midi":78,"time":313.8749999999999,"velocity":0.7480314960629921,"duration":0.33749999999997726},{"name":"C#5","midi":73,"time":314.2499999999999,"velocity":0.7480314960629921,"duration":0.5062500000000227},{"name":"A4","midi":69,"time":314.2499999999999,"velocity":0.7480314960629921,"duration":0.5062500000000227},{"name":"E4","midi":64,"time":314.2499999999999,"velocity":0.7480314960629921,"duration":0.5062500000000227},{"name":"A3","midi":57,"time":314.2499999999999,"velocity":0.7480314960629921,"duration":0.5062500000000227},{"name":"E5","midi":76,"time":314.2499999999999,"velocity":0.7480314960629921,"duration":0.5062500000000227},{"name":"E4","midi":64,"time":314.8124999999999,"velocity":0.7480314960629921,"duration":0.16874999999998863},{"name":"A3","midi":57,"time":314.8124999999999,"velocity":0.7480314960629921,"duration":0.16874999999998863},{"name":"E5","midi":76,"time":314.8124999999999,"velocity":0.7480314960629921,"duration":0.16874999999998863},{"name":"C#5","midi":73,"time":314.8124999999999,"velocity":0.7480314960629921,"duration":0.16874999999998863},{"name":"A4","midi":69,"time":314.8124999999999,"velocity":0.7480314960629921,"duration":0.16874999999998863},{"name":"D4","midi":62,"time":314.9999999999999,"velocity":0.7480314960629921,"duration":0.33749999999997726},{"name":"A4","midi":69,"time":314.9999999999999,"velocity":0.7480314960629921,"duration":0.33749999999997726},{"name":"D5","midi":74,"time":314.9999999999999,"velocity":0.7480314960629921,"duration":0.33749999999997726},{"name":"F#5","midi":78,"time":314.9999999999999,"velocity":0.7480314960629921,"duration":0.33749999999997726},{"name":"D5","midi":74,"time":315.3749999999999,"velocity":0.7480314960629921,"duration":0.33749999999997726},{"name":"A4","midi":69,"time":315.3749999999999,"velocity":0.7480314960629921,"duration":0.33749999999997726},{"name":"D4","midi":62,"time":315.3749999999999,"velocity":0.7480314960629921,"duration":0.33749999999997726},{"name":"F#5","midi":78,"time":315.3749999999999,"velocity":0.7480314960629921,"duration":0.33749999999997726},{"name":"E5","midi":76,"time":315.7499999999999,"velocity":0.7480314960629921,"duration":0.5062500000000227},{"name":"D5","midi":74,"time":315.7499999999999,"velocity":0.7480314960629921,"duration":0.5062500000000227},{"name":"A4","midi":69,"time":315.7499999999999,"velocity":0.7480314960629921,"duration":0.5062500000000227},{"name":"D4","midi":62,"time":315.7499999999999,"velocity":0.7480314960629921,"duration":0.5062500000000227},{"name":"D5","midi":74,"time":316.3124999999999,"velocity":0.7480314960629921,"duration":0.16874999999998863},{"name":"A4","midi":69,"time":316.3124999999999,"velocity":0.7480314960629921,"duration":0.16874999999998863},{"name":"E5","midi":76,"time":316.3124999999999,"velocity":0.7480314960629921,"duration":0.16874999999998863},{"name":"D4","midi":62,"time":316.3124999999999,"velocity":0.7480314960629921,"duration":0.16874999999998863},{"name":"D5","midi":74,"time":316.4999999999999,"velocity":0.7480314960629921,"duration":0.33749999999997726},{"name":"A4","midi":69,"time":316.4999999999999,"velocity":0.7480314960629921,"duration":0.33749999999997726},{"name":"D4","midi":62,"time":316.4999999999999,"velocity":0.7480314960629921,"duration":0.33749999999997726},{"name":"F#5","midi":78,"time":316.4999999999999,"velocity":0.7480314960629921,"duration":0.33749999999997726},{"name":"F#5","midi":78,"time":316.8749999999999,"velocity":0.7480314960629921,"duration":0.33749999999997726},{"name":"A4","midi":69,"time":316.8749999999999,"velocity":0.7480314960629921,"duration":0.33749999999997726},{"name":"D4","midi":62,"time":316.8749999999999,"velocity":0.7480314960629921,"duration":0.33749999999997726},{"name":"D5","midi":74,"time":316.8749999999999,"velocity":0.7480314960629921,"duration":0.33749999999997726},{"name":"E5","midi":76,"time":317.2499999999999,"velocity":0.7480314960629921,"duration":0.5062500000000227},{"name":"D4","midi":62,"time":317.2499999999999,"velocity":0.7480314960629921,"duration":0.5062500000000227},{"name":"D5","midi":74,"time":317.2499999999999,"velocity":0.7480314960629921,"duration":0.5062500000000227},{"name":"A4","midi":69,"time":317.2499999999999,"velocity":0.7480314960629921,"duration":0.5062500000000227},{"name":"A4","midi":69,"time":317.8124999999999,"velocity":0.7480314960629921,"duration":0.16874999999998863},{"name":"D5","midi":74,"time":317.8124999999999,"velocity":0.7480314960629921,"duration":0.16874999999998863},{"name":"D4","midi":62,"time":317.8124999999999,"velocity":0.7480314960629921,"duration":0.16874999999998863},{"name":"E5","midi":76,"time":317.8124999999999,"velocity":0.7480314960629921,"duration":0.16874999999998863},{"name":"D5","midi":74,"time":317.9999999999999,"velocity":0.7480314960629921,"duration":0.33749999999997726},{"name":"E5","midi":76,"time":317.9999999999999,"velocity":0.7480314960629921,"duration":0.33749999999997726},{"name":"D4","midi":62,"time":317.9999999999999,"velocity":0.7480314960629921,"duration":0.33749999999997726},{"name":"A4","midi":69,"time":317.9999999999999,"velocity":0.7480314960629921,"duration":0.33749999999997726},{"name":"D4","midi":62,"time":318.3749999999999,"velocity":0.7480314960629921,"duration":0.33749999999997726},{"name":"A4","midi":69,"time":318.3749999999999,"velocity":0.7480314960629921,"duration":0.33749999999997726},{"name":"D5","midi":74,"time":318.3749999999999,"velocity":0.7480314960629921,"duration":0.33749999999997726},{"name":"E5","midi":76,"time":318.3749999999999,"velocity":0.7480314960629921,"duration":0.33749999999997726},{"name":"E5","midi":76,"time":318.7499999999999,"velocity":0.7480314960629921,"duration":0.5062500000000227},{"name":"D5","midi":74,"time":318.7499999999999,"velocity":0.7480314960629921,"duration":0.5062500000000227},{"name":"A4","midi":69,"time":318.7499999999999,"velocity":0.7480314960629921,"duration":0.5062500000000227},{"name":"D4","midi":62,"time":318.7499999999999,"velocity":0.7480314960629921,"duration":0.5062500000000227},{"name":"D4","midi":62,"time":319.3124999999999,"velocity":0.7480314960629921,"duration":0.16874999999998863},{"name":"A4","midi":69,"time":319.3124999999999,"velocity":0.7480314960629921,"duration":0.16874999999998863},{"name":"D5","midi":74,"time":319.3124999999999,"velocity":0.7480314960629921,"duration":0.16874999999998863},{"name":"E5","midi":76,"time":319.3124999999999,"velocity":0.7480314960629921,"duration":0.16874999999998863},{"name":"D5","midi":74,"time":319.4999999999999,"velocity":0.7480314960629921,"duration":0.33749999999997726},{"name":"D4","midi":62,"time":319.4999999999999,"velocity":0.7480314960629921,"duration":0.33749999999997726},{"name":"A4","midi":69,"time":319.4999999999999,"velocity":0.7480314960629921,"duration":0.33749999999997726},{"name":"F#5","midi":78,"time":319.4999999999999,"velocity":0.7480314960629921,"duration":0.33749999999997726},{"name":"F#5","midi":78,"time":319.8749999999999,"velocity":0.7480314960629921,"duration":0.33749999999997726},{"name":"D5","midi":74,"time":319.8749999999999,"velocity":0.7480314960629921,"duration":0.33749999999997726},{"name":"A4","midi":69,"time":319.8749999999999,"velocity":0.7480314960629921,"duration":0.33749999999997726},{"name":"D4","midi":62,"time":319.8749999999999,"velocity":0.7480314960629921,"duration":0.33749999999997726},{"name":"A4","midi":69,"time":320.2499999999999,"velocity":0.7480314960629921,"duration":0.5062500000000227},{"name":"D4","midi":62,"time":320.2499999999999,"velocity":0.7480314960629921,"duration":0.5062500000000227},{"name":"E5","midi":76,"time":320.2499999999999,"velocity":0.7480314960629921,"duration":0.5062500000000227},{"name":"D5","midi":74,"time":320.2499999999999,"velocity":0.7480314960629921,"duration":0.5062500000000227},{"name":"A4","midi":69,"time":320.8124999999999,"velocity":0.7480314960629921,"duration":0.16874999999998863},{"name":"E5","midi":76,"time":320.8124999999999,"velocity":0.7480314960629921,"duration":0.16874999999998863},{"name":"D4","midi":62,"time":320.8124999999999,"velocity":0.7480314960629921,"duration":0.16874999999998863},{"name":"D5","midi":74,"time":320.8124999999999,"velocity":0.7480314960629921,"duration":0.16874999999998863},{"name":"D5","midi":74,"time":320.9999999999999,"velocity":0.7480314960629921,"duration":0.33749999999997726},{"name":"F#5","midi":78,"time":320.9999999999999,"velocity":0.7480314960629921,"duration":0.33749999999997726},{"name":"F#4","midi":66,"time":320.9999999999999,"velocity":0.7480314960629921,"duration":0.33749999999997726},{"name":"B3","midi":59,"time":320.9999999999999,"velocity":0.7480314960629921,"duration":0.33749999999997726},{"name":"B4","midi":71,"time":320.9999999999999,"velocity":0.7480314960629921,"duration":0.33749999999997726},{"name":"B3","midi":59,"time":321.3749999999999,"velocity":0.7480314960629921,"duration":0.33749999999997726},{"name":"F#5","midi":78,"time":321.3749999999999,"velocity":0.7480314960629921,"duration":0.33749999999997726},{"name":"D5","midi":74,"time":321.3749999999999,"velocity":0.7480314960629921,"duration":0.33749999999997726},{"name":"B4","midi":71,"time":321.3749999999999,"velocity":0.7480314960629921,"duration":0.33749999999997726},{"name":"F#4","midi":66,"time":321.3749999999999,"velocity":0.7480314960629921,"duration":0.33749999999997726},{"name":"D5","midi":74,"time":321.7499999999999,"velocity":0.7480314960629921,"duration":0.5062500000000227},{"name":"B3","midi":59,"time":321.7499999999999,"velocity":0.7480314960629921,"duration":0.5062500000000227},{"name":"F#4","midi":66,"time":321.7499999999999,"velocity":0.7480314960629921,"duration":0.5062500000000227},{"name":"B4","midi":71,"time":321.7499999999999,"velocity":0.7480314960629921,"duration":0.5062500000000227},{"name":"E5","midi":76,"time":321.7499999999999,"velocity":0.7480314960629921,"duration":0.5062500000000227},{"name":"B3","midi":59,"time":322.3124999999999,"velocity":0.7480314960629921,"duration":0.16874999999998863},{"name":"E5","midi":76,"time":322.3124999999999,"velocity":0.7480314960629921,"duration":0.16874999999998863},{"name":"B4","midi":71,"time":322.3124999999999,"velocity":0.7480314960629921,"duration":0.16874999999998863},{"name":"D5","midi":74,"time":322.3124999999999,"velocity":0.7480314960629921,"duration":0.16874999999998863},{"name":"F#4","midi":66,"time":322.3124999999999,"velocity":0.7480314960629921,"duration":0.16874999999998863},{"name":"F#4","midi":66,"time":322.4999999999999,"velocity":0.7480314960629921,"duration":0.33749999999997726},{"name":"B3","midi":59,"time":322.4999999999999,"velocity":0.7480314960629921,"duration":0.33749999999997726},{"name":"D5","midi":74,"time":322.4999999999999,"velocity":0.7480314960629921,"duration":0.33749999999997726},{"name":"F#5","midi":78,"time":322.4999999999999,"velocity":0.7480314960629921,"duration":0.33749999999997726},{"name":"B4","midi":71,"time":322.4999999999999,"velocity":0.7480314960629921,"duration":0.33749999999997726},{"name":"D5","midi":74,"time":322.8749999999999,"velocity":0.7480314960629921,"duration":0.33749999999997726},{"name":"B4","midi":71,"time":322.8749999999999,"velocity":0.7480314960629921,"duration":0.33749999999997726},{"name":"F#4","midi":66,"time":322.8749999999999,"velocity":0.7480314960629921,"duration":0.33749999999997726},{"name":"F#5","midi":78,"time":322.8749999999999,"velocity":0.7480314960629921,"duration":0.33749999999997726},{"name":"B3","midi":59,"time":322.8749999999999,"velocity":0.7480314960629921,"duration":0.33749999999997726},{"name":"D5","midi":74,"time":323.2499999999999,"velocity":0.7480314960629921,"duration":0.5062500000000227},{"name":"B3","midi":59,"time":323.2499999999999,"velocity":0.7480314960629921,"duration":0.5062500000000227},{"name":"F#4","midi":66,"time":323.2499999999999,"velocity":0.7480314960629921,"duration":0.5062500000000227},{"name":"B4","midi":71,"time":323.2499999999999,"velocity":0.7480314960629921,"duration":0.5062500000000227},{"name":"E5","midi":76,"time":323.2499999999999,"velocity":0.7480314960629921,"duration":0.5062500000000227},{"name":"B3","midi":59,"time":323.8124999999999,"velocity":0.7480314960629921,"duration":0.16874999999998863},{"name":"E5","midi":76,"time":323.8124999999999,"velocity":0.7480314960629921,"duration":0.16874999999998863},{"name":"D5","midi":74,"time":323.8124999999999,"velocity":0.7480314960629921,"duration":0.16874999999998863},{"name":"B4","midi":71,"time":323.8124999999999,"velocity":0.7480314960629921,"duration":0.16874999999998863},{"name":"F#4","midi":66,"time":323.8124999999999,"velocity":0.7480314960629921,"duration":0.16874999999998863},{"name":"C#4","midi":61,"time":323.9999999999999,"velocity":0.7480314960629921,"duration":0.33749999999997726},{"name":"F#5","midi":78,"time":323.9999999999999,"velocity":0.7480314960629921,"duration":0.33749999999997726},{"name":"B4","midi":71,"time":323.9999999999999,"velocity":0.7480314960629921,"duration":0.33749999999997726},{"name":"G#4","midi":68,"time":323.9999999999999,"velocity":0.7480314960629921,"duration":0.33749999999997726},{"name":"C#4","midi":61,"time":324.3749999999999,"velocity":0.7480314960629921,"duration":0.33749999999997726},{"name":"G#4","midi":68,"time":324.3749999999999,"velocity":0.7480314960629921,"duration":0.33749999999997726},{"name":"B4","midi":71,"time":324.3749999999999,"velocity":0.7480314960629921,"duration":0.33749999999997726},{"name":"F#5","midi":78,"time":324.3749999999999,"velocity":0.7480314960629921,"duration":0.33749999999997726},{"name":"E5","midi":76,"time":324.7499999999999,"velocity":0.7480314960629921,"duration":0.5062500000000227},{"name":"C#4","midi":61,"time":324.7499999999999,"velocity":0.7480314960629921,"duration":0.5062500000000227},{"name":"B4","midi":71,"time":324.7499999999999,"velocity":0.7480314960629921,"duration":0.5062500000000227},{"name":"G#4","midi":68,"time":324.7499999999999,"velocity":0.7480314960629921,"duration":0.5062500000000227},{"name":"C#4","midi":61,"time":325.3124999999999,"velocity":0.7480314960629921,"duration":0.16874999999998863},{"name":"G#4","midi":68,"time":325.3124999999999,"velocity":0.7480314960629921,"duration":0.16874999999998863},{"name":"B4","midi":71,"time":325.3124999999999,"velocity":0.7480314960629921,"duration":0.16874999999998863},{"name":"E5","midi":76,"time":325.3124999999999,"velocity":0.7480314960629921,"duration":0.16874999999998863},{"name":"B4","midi":71,"time":325.4999999999999,"velocity":0.7480314960629921,"duration":0.33749999999997726},{"name":"G#4","midi":68,"time":325.4999999999999,"velocity":0.7480314960629921,"duration":0.33749999999997726},{"name":"C#4","midi":61,"time":325.4999999999999,"velocity":0.7480314960629921,"duration":0.33749999999997726},{"name":"F#5","midi":78,"time":325.4999999999999,"velocity":0.7480314960629921,"duration":0.33749999999997726},{"name":"C#4","midi":61,"time":325.8749999999999,"velocity":0.7480314960629921,"duration":0.33749999999997726},{"name":"B4","midi":71,"time":325.8749999999999,"velocity":0.7480314960629921,"duration":0.33749999999997726},{"name":"F#5","midi":78,"time":325.8749999999999,"velocity":0.7480314960629921,"duration":0.33749999999997726},{"name":"G#4","midi":68,"time":325.8749999999999,"velocity":0.7480314960629921,"duration":0.33749999999997726},{"name":"E5","midi":76,"time":326.2499999999999,"velocity":0.7480314960629921,"duration":0.5062500000000227},{"name":"C#4","midi":61,"time":326.2499999999999,"velocity":0.7480314960629921,"duration":0.5062500000000227},{"name":"B4","midi":71,"time":326.2499999999999,"velocity":0.7480314960629921,"duration":0.5062500000000227},{"name":"G#4","midi":68,"time":326.2499999999999,"velocity":0.7480314960629921,"duration":0.5062500000000227},{"name":"C#4","midi":61,"time":326.8124999999999,"velocity":0.7480314960629921,"duration":0.16874999999998863},{"name":"G#4","midi":68,"time":326.8124999999999,"velocity":0.7480314960629921,"duration":0.16874999999998863},{"name":"B4","midi":71,"time":326.8124999999999,"velocity":0.7480314960629921,"duration":0.16874999999998863},{"name":"E5","midi":76,"time":326.8124999999999,"velocity":0.7480314960629921,"duration":0.16874999999998863},{"name":"A4","midi":69,"time":326.9999999999999,"velocity":0.7480314960629921,"duration":0.33749999999997726},{"name":"D4","midi":62,"time":326.9999999999999,"velocity":0.7480314960629921,"duration":0.33749999999997726},{"name":"A5","midi":81,"time":326.9999999999999,"velocity":0.7480314960629921,"duration":0.33749999999997726},{"name":"F#5","midi":78,"time":326.9999999999999,"velocity":0.7480314960629921,"duration":0.33749999999997726},{"name":"D5","midi":74,"time":326.9999999999999,"velocity":0.7480314960629921,"duration":0.33749999999997726},{"name":"A4","midi":69,"time":327.3749999999999,"velocity":0.7480314960629921,"duration":0.33749999999997726},{"name":"D5","midi":74,"time":327.3749999999999,"velocity":0.7480314960629921,"duration":0.33749999999997726},{"name":"F#5","midi":78,"time":327.3749999999999,"velocity":0.7480314960629921,"duration":0.33749999999997726},{"name":"A5","midi":81,"time":327.3749999999999,"velocity":0.7480314960629921,"duration":0.33749999999997726},{"name":"D4","midi":62,"time":327.3749999999999,"velocity":0.7480314960629921,"duration":0.33749999999997726},{"name":"D4","midi":62,"time":327.7499999999999,"velocity":0.7480314960629921,"duration":0.5062500000000227},{"name":"A4","midi":69,"time":327.7499999999999,"velocity":0.7480314960629921,"duration":0.5062500000000227},{"name":"D5","midi":74,"time":327.7499999999999,"velocity":0.7480314960629921,"duration":0.5062500000000227},{"name":"F#5","midi":78,"time":327.7499999999999,"velocity":0.7480314960629921,"duration":0.5062500000000227},{"name":"A5","midi":81,"time":327.7499999999999,"velocity":0.7480314960629921,"duration":0.5062500000000227},{"name":"A4","midi":69,"time":328.3124999999999,"velocity":0.7480314960629921,"duration":0.16874999999998863},{"name":"D4","midi":62,"time":328.3124999999999,"velocity":0.7480314960629921,"duration":0.16874999999998863},{"name":"D5","midi":74,"time":328.3124999999999,"velocity":0.7480314960629921,"duration":0.16874999999998863},{"name":"F#5","midi":78,"time":328.3124999999999,"velocity":0.7480314960629921,"duration":0.16874999999998863},{"name":"A5","midi":81,"time":328.3124999999999,"velocity":0.7480314960629921,"duration":0.16874999999998863},{"name":"D4","midi":62,"time":328.4999999999999,"velocity":0.7480314960629921,"duration":0.33749999999997726},{"name":"A4","midi":69,"time":328.4999999999999,"velocity":0.7480314960629921,"duration":0.33749999999997726},{"name":"D5","midi":74,"time":328.4999999999999,"velocity":0.7480314960629921,"duration":0.33749999999997726},{"name":"F#5","midi":78,"time":328.4999999999999,"velocity":0.7480314960629921,"duration":0.33749999999997726},{"name":"A5","midi":81,"time":328.4999999999999,"velocity":0.7480314960629921,"duration":0.33749999999997726},{"name":"F#5","midi":78,"time":328.8749999999999,"velocity":0.7480314960629921,"duration":0.33749999999997726},{"name":"D5","midi":74,"time":328.8749999999999,"velocity":0.7480314960629921,"duration":0.33749999999997726},{"name":"A4","midi":69,"time":328.8749999999999,"velocity":0.7480314960629921,"duration":0.33749999999997726},{"name":"D4","midi":62,"time":328.8749999999999,"velocity":0.7480314960629921,"duration":0.33749999999997726},{"name":"A5","midi":81,"time":328.8749999999999,"velocity":0.7480314960629921,"duration":0.33749999999997726},{"name":"D5","midi":74,"time":329.2499999999999,"velocity":0.7480314960629921,"duration":0.5062500000000227},{"name":"F#5","midi":78,"time":329.2499999999999,"velocity":0.7480314960629921,"duration":0.5062500000000227},{"name":"A5","midi":81,"time":329.2499999999999,"velocity":0.7480314960629921,"duration":0.5062500000000227},{"name":"D4","midi":62,"time":329.2499999999999,"velocity":0.7480314960629921,"duration":0.5062500000000227},{"name":"A4","midi":69,"time":329.2499999999999,"velocity":0.7480314960629921,"duration":0.5062500000000227},{"name":"D4","midi":62,"time":329.8124999999999,"velocity":0.7480314960629921,"duration":0.16874999999998863},{"name":"F#5","midi":78,"time":329.8124999999999,"velocity":0.7480314960629921,"duration":0.16874999999998863},{"name":"A5","midi":81,"time":329.8124999999999,"velocity":0.7480314960629921,"duration":0.16874999999998863},{"name":"D5","midi":74,"time":329.8124999999999,"velocity":0.7480314960629921,"duration":0.16874999999998863},{"name":"A4","midi":69,"time":329.8124999999999,"velocity":0.7480314960629921,"duration":0.16874999999998863},{"name":"D4","midi":62,"time":329.9999999999999,"velocity":0.7480314960629921,"duration":0.33749999999997726},{"name":"A4","midi":69,"time":329.9999999999999,"velocity":0.7480314960629921,"duration":0.33749999999997726},{"name":"D5","midi":74,"time":329.9999999999999,"velocity":0.7480314960629921,"duration":0.33749999999997726},{"name":"F#5","midi":78,"time":329.9999999999999,"velocity":0.7480314960629921,"duration":0.33749999999997726},{"name":"A5","midi":81,"time":329.9999999999999,"velocity":0.7480314960629921,"duration":0.33749999999997726},{"name":"D5","midi":74,"time":330.3749999999999,"velocity":0.7480314960629921,"duration":0.33749999999997726},{"name":"F#5","midi":78,"time":330.3749999999999,"velocity":0.7480314960629921,"duration":0.33749999999997726},{"name":"A5","midi":81,"time":330.3749999999999,"velocity":0.7480314960629921,"duration":0.33749999999997726},{"name":"D4","midi":62,"time":330.3749999999999,"velocity":0.7480314960629921,"duration":0.33749999999997726},{"name":"A4","midi":69,"time":330.3749999999999,"velocity":0.7480314960629921,"duration":0.33749999999997726},{"name":"D4","midi":62,"time":330.7499999999999,"velocity":0.7480314960629921,"duration":0.5062500000000227},{"name":"A5","midi":81,"time":330.7499999999999,"velocity":0.7480314960629921,"duration":0.5062500000000227},{"name":"F#5","midi":78,"time":330.7499999999999,"velocity":0.7480314960629921,"duration":0.5062500000000227},{"name":"D5","midi":74,"time":330.7499999999999,"velocity":0.7480314960629921,"duration":0.5062500000000227},{"name":"A4","midi":69,"time":330.7499999999999,"velocity":0.7480314960629921,"duration":0.5062500000000227},{"name":"A5","midi":81,"time":331.3124999999999,"velocity":0.7480314960629921,"duration":0.16874999999998863},{"name":"F#5","midi":78,"time":331.3124999999999,"velocity":0.7480314960629921,"duration":0.16874999999998863},{"name":"A4","midi":69,"time":331.3124999999999,"velocity":0.7480314960629921,"duration":0.16874999999998863},{"name":"D4","midi":62,"time":331.3124999999999,"velocity":0.7480314960629921,"duration":0.16874999999998863},{"name":"D5","midi":74,"time":331.3124999999999,"velocity":0.7480314960629921,"duration":0.16874999999998863},{"name":"A5","midi":81,"time":331.4999999999999,"velocity":0.7480314960629921,"duration":0.33749999999997726},{"name":"D4","midi":62,"time":331.4999999999999,"velocity":0.7480314960629921,"duration":0.33749999999997726},{"name":"A4","midi":69,"time":331.4999999999999,"velocity":0.7480314960629921,"duration":0.33749999999997726},{"name":"D5","midi":74,"time":331.4999999999999,"velocity":0.7480314960629921,"duration":0.33749999999997726},{"name":"F#5","midi":78,"time":331.4999999999999,"velocity":0.7480314960629921,"duration":0.33749999999997726},{"name":"A5","midi":81,"time":331.8749999999999,"velocity":0.7480314960629921,"duration":0.33749999999997726},{"name":"F#5","midi":78,"time":331.8749999999999,"velocity":0.7480314960629921,"duration":0.33749999999997726},{"name":"D5","midi":74,"time":331.8749999999999,"velocity":0.7480314960629921,"duration":0.33749999999997726},{"name":"A4","midi":69,"time":331.8749999999999,"velocity":0.7480314960629921,"duration":0.33749999999997726},{"name":"D4","midi":62,"time":331.8749999999999,"velocity":0.7480314960629921,"duration":0.33749999999997726},{"name":"D4","midi":62,"time":332.2499999999999,"velocity":0.7480314960629921,"duration":0.5062500000000227},{"name":"A4","midi":69,"time":332.2499999999999,"velocity":0.7480314960629921,"duration":0.5062500000000227},{"name":"D5","midi":74,"time":332.2499999999999,"velocity":0.7480314960629921,"duration":0.5062500000000227},{"name":"F#5","midi":78,"time":332.2499999999999,"velocity":0.7480314960629921,"duration":0.5062500000000227},{"name":"A5","midi":81,"time":332.2499999999999,"velocity":0.7480314960629921,"duration":0.5062500000000227},{"name":"A5","midi":81,"time":332.8124999999999,"velocity":0.7480314960629921,"duration":0.16874999999998863},{"name":"F#5","midi":78,"time":332.8124999999999,"velocity":0.7480314960629921,"duration":0.16874999999998863},{"name":"D5","midi":74,"time":332.8124999999999,"velocity":0.7480314960629921,"duration":0.16874999999998863},{"name":"A4","midi":69,"time":332.8124999999999,"velocity":0.7480314960629921,"duration":0.16874999999998863},{"name":"D4","midi":62,"time":332.8124999999999,"velocity":0.7480314960629921,"duration":0.16874999999998863},{"name":"E5","midi":76,"time":332.9999999999999,"velocity":0.7480314960629921,"duration":0.33749999999997726},{"name":"A5","midi":81,"time":332.9999999999999,"velocity":0.7480314960629921,"duration":0.33749999999997726},{"name":"A4","midi":69,"time":332.9999999999999,"velocity":0.7480314960629921,"duration":0.33749999999997726},{"name":"C#5","midi":73,"time":332.9999999999999,"velocity":0.7480314960629921,"duration":0.33749999999997726},{"name":"A5","midi":81,"time":333.3749999999999,"velocity":0.7480314960629921,"duration":0.33749999999997726},{"name":"E5","midi":76,"time":333.3749999999999,"velocity":0.7480314960629921,"duration":0.33749999999997726},{"name":"C#5","midi":73,"time":333.3749999999999,"velocity":0.7480314960629921,"duration":0.33749999999997726},{"name":"A4","midi":69,"time":333.3749999999999,"velocity":0.7480314960629921,"duration":0.33749999999997726},{"name":"A5","midi":81,"time":333.7499999999999,"velocity":0.7480314960629921,"duration":0.33749999999997726},{"name":"A4","midi":69,"time":333.7499999999999,"velocity":0.7480314960629921,"duration":0.33749999999997726},{"name":"C#5","midi":73,"time":333.7499999999999,"velocity":0.7480314960629921,"duration":0.33749999999997726},{"name":"E5","midi":76,"time":333.7499999999999,"velocity":0.7480314960629921,"duration":0.33749999999997726},{"name":"C#5","midi":73,"time":334.1249999999999,"velocity":0.7480314960629921,"duration":0.33749999999997726},{"name":"E5","midi":76,"time":334.1249999999999,"velocity":0.7480314960629921,"duration":0.33749999999997726},{"name":"A5","midi":81,"time":334.1249999999999,"velocity":0.7480314960629921,"duration":0.33749999999997726},{"name":"A4","midi":69,"time":334.1249999999999,"velocity":0.7480314960629921,"duration":0.33749999999997726},{"name":"E5","midi":76,"time":334.4999999999999,"velocity":0.7480314960629921,"duration":0.33749999999997726},{"name":"A4","midi":69,"time":334.4999999999999,"velocity":0.7480314960629921,"duration":0.33749999999997726},{"name":"A5","midi":81,"time":334.4999999999999,"velocity":0.7480314960629921,"duration":0.33749999999997726},{"name":"C#5","midi":73,"time":334.4999999999999,"velocity":0.7480314960629921,"duration":0.33749999999997726},{"name":"E5","midi":76,"time":334.8749999999999,"velocity":0.7480314960629921,"duration":0.33749999999997726},{"name":"A4","midi":69,"time":334.8749999999999,"velocity":0.7480314960629921,"duration":0.33749999999997726},{"name":"C#5","midi":73,"time":334.8749999999999,"velocity":0.7480314960629921,"duration":0.33749999999997726},{"name":"A5","midi":81,"time":334.8749999999999,"velocity":0.7480314960629921,"duration":0.33749999999997726},{"name":"A5","midi":81,"time":335.2499999999999,"velocity":0.7480314960629921,"duration":0.33749999999997726},{"name":"E5","midi":76,"time":335.2499999999999,"velocity":0.7480314960629921,"duration":0.33749999999997726},{"name":"C#5","midi":73,"time":335.2499999999999,"velocity":0.7480314960629921,"duration":0.33749999999997726},{"name":"A4","midi":69,"time":335.2499999999999,"velocity":0.7480314960629921,"duration":0.33749999999997726},{"name":"E5","midi":76,"time":335.6249999999999,"velocity":0.7480314960629921,"duration":0.33749999999997726},{"name":"C#5","midi":73,"time":335.6249999999999,"velocity":0.7480314960629921,"duration":0.33749999999997726},{"name":"A4","midi":69,"time":335.6249999999999,"velocity":0.7480314960629921,"duration":0.33749999999997726},{"name":"A5","midi":81,"time":335.6249999999999,"velocity":0.7480314960629921,"duration":0.33749999999997726},{"name":"A4","midi":69,"time":335.9999999999999,"velocity":0.7480314960629921,"duration":0.33749999999997726},{"name":"C#5","midi":73,"time":335.9999999999999,"velocity":0.7480314960629921,"duration":0.33749999999997726},{"name":"E5","midi":76,"time":335.9999999999999,"velocity":0.7480314960629921,"duration":0.33749999999997726},{"name":"A5","midi":81,"time":335.9999999999999,"velocity":0.7480314960629921,"duration":0.33749999999997726},{"name":"C#5","midi":73,"time":336.3749999999999,"velocity":0.7480314960629921,"duration":0.33749999999997726},{"name":"A5","midi":81,"time":336.3749999999999,"velocity":0.7480314960629921,"duration":0.33749999999997726},{"name":"E5","midi":76,"time":336.3749999999999,"velocity":0.7480314960629921,"duration":0.33749999999997726},{"name":"A4","midi":69,"time":336.3749999999999,"velocity":0.7480314960629921,"duration":0.33749999999997726},{"name":"C#5","midi":73,"time":336.7499999999999,"velocity":0.7480314960629921,"duration":0.33749999999997726},{"name":"E5","midi":76,"time":336.7499999999999,"velocity":0.7480314960629921,"duration":0.33749999999997726},{"name":"A4","midi":69,"time":336.7499999999999,"velocity":0.7480314960629921,"duration":0.33749999999997726},{"name":"A5","midi":81,"time":336.7499999999999,"velocity":0.7480314960629921,"duration":0.33749999999997726},{"name":"E5","midi":76,"time":337.1249999999999,"velocity":0.7480314960629921,"duration":0.33749999999997726},{"name":"A4","midi":69,"time":337.1249999999999,"velocity":0.7480314960629921,"duration":0.33749999999997726},{"name":"C#5","midi":73,"time":337.1249999999999,"velocity":0.7480314960629921,"duration":0.33749999999997726},{"name":"A5","midi":81,"time":337.1249999999999,"velocity":0.7480314960629921,"duration":0.33749999999997726},{"name":"A5","midi":81,"time":337.4999999999999,"velocity":0.7480314960629921,"duration":0.33749999999997726},{"name":"C#5","midi":73,"time":337.4999999999999,"velocity":0.7480314960629921,"duration":0.33749999999997726},{"name":"A4","midi":69,"time":337.4999999999999,"velocity":0.7480314960629921,"duration":0.33749999999997726},{"name":"E5","midi":76,"time":337.4999999999999,"velocity":0.7480314960629921,"duration":0.33749999999997726},{"name":"A5","midi":81,"time":337.8749999999999,"velocity":0.7480314960629921,"duration":0.33749999999997726},{"name":"E5","midi":76,"time":337.8749999999999,"velocity":0.7480314960629921,"duration":0.33749999999997726},{"name":"C#5","midi":73,"time":337.8749999999999,"velocity":0.7480314960629921,"duration":0.33749999999997726},{"name":"A4","midi":69,"time":337.8749999999999,"velocity":0.7480314960629921,"duration":0.33749999999997726},{"name":"A4","midi":69,"time":338.2499999999999,"velocity":0.7480314960629921,"duration":0.33749999999997726},{"name":"C#5","midi":73,"time":338.2499999999999,"velocity":0.7480314960629921,"duration":0.33749999999997726},{"name":"E5","midi":76,"time":338.2499999999999,"velocity":0.7480314960629921,"duration":0.33749999999997726},{"name":"A5","midi":81,"time":338.2499999999999,"velocity":0.7480314960629921,"duration":0.33749999999997726},{"name":"E5","midi":76,"time":338.6249999999999,"velocity":0.7480314960629921,"duration":0.6750000000000114},{"name":"A5","midi":81,"time":338.6249999999999,"velocity":0.7480314960629921,"duration":0.33749999999997726},{"name":"C#5","midi":73,"time":338.6249999999999,"velocity":0.7480314960629921,"duration":0.33749999999997726},{"name":"A4","midi":69,"time":338.6249999999999,"velocity":0.7480314960629921,"duration":0.33749999999997726},{"name":"B4","midi":71,"time":338.9999999999999,"velocity":0.7480314960629921,"duration":0.3375000000000341},{"name":"E4","midi":64,"time":338.9999999999999,"velocity":0.7480314960629921,"duration":0.3375000000000341},{"name":"E4","midi":64,"time":339.37499999999994,"velocity":0.7480314960629921,"duration":0.33749999999997726},{"name":"E5","midi":76,"time":339.37499999999994,"velocity":0.7480314960629921,"duration":0.33749999999997726},{"name":"E5","midi":76,"time":339.37499999999994,"velocity":0.7480314960629921,"duration":0.33749999999997726},{"name":"A5","midi":81,"time":339.37499999999994,"velocity":0.7480314960629921,"duration":0.33749999999997726},{"name":"B4","midi":71,"time":339.37499999999994,"velocity":0.7480314960629921,"duration":0.33749999999997726},{"name":"E4","midi":64,"time":339.74999999999994,"velocity":0.7480314960629921,"duration":0.33749999999997726},{"name":"B4","midi":71,"time":339.74999999999994,"velocity":0.7480314960629921,"duration":0.33749999999997726},{"name":"E5","midi":76,"time":339.74999999999994,"velocity":0.7480314960629921,"duration":0.33749999999997726},{"name":"G#5","midi":80,"time":339.74999999999994,"velocity":0.7480314960629921,"duration":0.33749999999997726},{"name":"E4","midi":64,"time":340.12499999999994,"velocity":0.7480314960629921,"duration":0.33749999999997726},{"name":"B4","midi":71,"time":340.12499999999994,"velocity":0.7480314960629921,"duration":0.33749999999997726},{"name":"E5","midi":76,"time":340.12499999999994,"velocity":0.7480314960629921,"duration":0.33749999999997726},{"name":"E4","midi":64,"time":340.49999999999994,"velocity":0.7480314960629921,"duration":0.33749999999997726},{"name":"E5","midi":76,"time":340.49999999999994,"velocity":0.7480314960629921,"duration":0.33749999999997726},{"name":"B4","midi":71,"time":340.49999999999994,"velocity":0.7480314960629921,"duration":0.33749999999997726},{"name":"E5","midi":76,"time":340.87499999999994,"velocity":0.7480314960629921,"duration":0.33749999999997726},{"name":"B4","midi":71,"time":340.87499999999994,"velocity":0.7480314960629921,"duration":0.33749999999997726},{"name":"E4","midi":64,"time":340.87499999999994,"velocity":0.7480314960629921,"duration":0.33749999999997726},{"name":"G#5","midi":80,"time":340.87499999999994,"velocity":0.7480314960629921,"duration":0.33749999999997726},{"name":"E5","midi":76,"time":341.24999999999994,"velocity":0.7480314960629921,"duration":0.33749999999997726},{"name":"E4","midi":64,"time":341.24999999999994,"velocity":0.7480314960629921,"duration":0.33749999999997726},{"name":"G#5","midi":80,"time":341.24999999999994,"velocity":0.7480314960629921,"duration":0.33749999999997726},{"name":"B4","midi":71,"time":341.24999999999994,"velocity":0.7480314960629921,"duration":0.33749999999997726},{"name":"E4","midi":64,"time":341.62499999999994,"velocity":0.7480314960629921,"duration":0.33749999999997726},{"name":"E5","midi":76,"time":341.62499999999994,"velocity":0.7480314960629921,"duration":0.33749999999997726},{"name":"B4","midi":71,"time":341.62499999999994,"velocity":0.7480314960629921,"duration":0.33749999999997726},{"name":"E4","midi":64,"time":341.99999999999994,"velocity":0.7480314960629921,"duration":0.33749999999997726},{"name":"B4","midi":71,"time":341.99999999999994,"velocity":0.7480314960629921,"duration":0.33749999999997726},{"name":"E5","midi":76,"time":341.99999999999994,"velocity":0.7480314960629921,"duration":0.33749999999997726},{"name":"G#5","midi":80,"time":342.37499999999994,"velocity":0.7480314960629921,"duration":0.33749999999997726},{"name":"E5","midi":76,"time":342.37499999999994,"velocity":0.7480314960629921,"duration":0.33749999999997726},{"name":"B4","midi":71,"time":342.37499999999994,"velocity":0.7480314960629921,"duration":0.33749999999997726},{"name":"E4","midi":64,"time":342.37499999999994,"velocity":0.7480314960629921,"duration":0.33749999999997726},{"name":"E4","midi":64,"time":342.74999999999994,"velocity":0.7480314960629921,"duration":0.33749999999997726},{"name":"B4","midi":71,"time":342.74999999999994,"velocity":0.7480314960629921,"duration":0.33749999999997726},{"name":"E5","midi":76,"time":342.74999999999994,"velocity":0.7480314960629921,"duration":0.33749999999997726},{"name":"G#5","midi":80,"time":342.74999999999994,"velocity":0.7480314960629921,"duration":0.33749999999997726},{"name":"B4","midi":71,"time":343.12499999999994,"velocity":0.7480314960629921,"duration":0.33749999999997726},{"name":"E4","midi":64,"time":343.12499999999994,"velocity":0.7480314960629921,"duration":0.33749999999997726},{"name":"E5","midi":76,"time":343.12499999999994,"velocity":0.7480314960629921,"duration":0.33749999999997726},{"name":"B4","midi":71,"time":343.49999999999994,"velocity":0.7480314960629921,"duration":0.33749999999997726},{"name":"E4","midi":64,"time":343.49999999999994,"velocity":0.7480314960629921,"duration":0.33749999999997726},{"name":"E5","midi":76,"time":343.49999999999994,"velocity":0.7480314960629921,"duration":0.33749999999997726},{"name":"E4","midi":64,"time":343.87499999999994,"velocity":0.7480314960629921,"duration":0.33749999999997726},{"name":"B4","midi":71,"time":343.87499999999994,"velocity":0.7480314960629921,"duration":0.33749999999997726},{"name":"E5","midi":76,"time":343.87499999999994,"velocity":0.7480314960629921,"duration":0.33749999999997726},{"name":"G#5","midi":80,"time":343.87499999999994,"velocity":0.7480314960629921,"duration":0.33749999999997726},{"name":"G#5","midi":80,"time":344.24999999999994,"velocity":0.7480314960629921,"duration":0.33749999999997726},{"name":"E4","midi":64,"time":344.24999999999994,"velocity":0.7480314960629921,"duration":0.33749999999997726},{"name":"B4","midi":71,"time":344.24999999999994,"velocity":0.7480314960629921,"duration":0.33749999999997726},{"name":"E5","midi":76,"time":344.24999999999994,"velocity":0.7480314960629921,"duration":0.33749999999997726},{"name":"E5","midi":76,"time":344.62499999999994,"velocity":0.7480314960629921,"duration":0.33749999999997726},{"name":"B4","midi":71,"time":344.62499999999994,"velocity":0.7480314960629921,"duration":0.33749999999997726},{"name":"E4","midi":64,"time":344.62499999999994,"velocity":0.7480314960629921,"duration":0.33749999999997726},{"name":"A4","midi":69,"time":344.99999999999994,"velocity":0.7480314960629921,"duration":0.33749999999997726},{"name":"F#4","midi":66,"time":344.99999999999994,"velocity":0.7480314960629921,"duration":0.33749999999997726},{"name":"B3","midi":59,"time":344.99999999999994,"velocity":0.7480314960629921,"duration":0.33749999999997726},{"name":"D5","midi":74,"time":344.99999999999994,"velocity":0.7480314960629921,"duration":0.33749999999997726},{"name":"B3","midi":59,"time":345.37499999999994,"velocity":0.7480314960629921,"duration":0.33749999999997726},{"name":"F#4","midi":66,"time":345.37499999999994,"velocity":0.7480314960629921,"duration":0.33749999999997726},{"name":"A4","midi":69,"time":345.37499999999994,"velocity":0.7480314960629921,"duration":0.33749999999997726},{"name":"D5","midi":74,"time":345.37499999999994,"velocity":0.7480314960629921,"duration":0.33749999999997726},{"name":"F#4","midi":66,"time":345.74999999999994,"velocity":0.7480314960629921,"duration":0.33749999999997726},{"name":"B3","midi":59,"time":345.74999999999994,"velocity":0.7480314960629921,"duration":0.33749999999997726},{"name":"A4","midi":69,"time":345.74999999999994,"velocity":0.7480314960629921,"duration":0.33749999999997726},{"name":"D5","midi":74,"time":345.74999999999994,"velocity":0.7480314960629921,"duration":0.33749999999997726},{"name":"F#5","midi":78,"time":345.74999999999994,"velocity":0.7480314960629921,"duration":0.33749999999997726},{"name":"B3","midi":59,"time":346.12499999999994,"velocity":0.7480314960629921,"duration":0.33749999999997726},{"name":"A4","midi":69,"time":346.12499999999994,"velocity":0.7480314960629921,"duration":0.33749999999997726},{"name":"D5","midi":74,"time":346.12499999999994,"velocity":0.7480314960629921,"duration":0.33749999999997726},{"name":"F#4","midi":66,"time":346.12499999999994,"velocity":0.7480314960629921,"duration":0.33749999999997726},{"name":"B3","midi":59,"time":346.49999999999994,"velocity":0.7480314960629921,"duration":0.33749999999997726},{"name":"F#4","midi":66,"time":346.49999999999994,"velocity":0.7480314960629921,"duration":0.33749999999997726},{"name":"A4","midi":69,"time":346.49999999999994,"velocity":0.7480314960629921,"duration":0.33749999999997726},{"name":"D5","midi":74,"time":346.49999999999994,"velocity":0.7480314960629921,"duration":0.33749999999997726},{"name":"F#5","midi":78,"time":346.87499999999994,"velocity":0.7480314960629921,"duration":0.33749999999997726},{"name":"D5","midi":74,"time":346.87499999999994,"velocity":0.7480314960629921,"duration":0.33749999999997726},{"name":"A4","midi":69,"time":346.87499999999994,"velocity":0.7480314960629921,"duration":0.33749999999997726},{"name":"F#4","midi":66,"time":346.87499999999994,"velocity":0.7480314960629921,"duration":0.33749999999997726},{"name":"B3","midi":59,"time":346.87499999999994,"velocity":0.7480314960629921,"duration":0.33749999999997726},{"name":"F#5","midi":78,"time":347.24999999999994,"velocity":0.7480314960629921,"duration":0.33749999999997726},{"name":"B3","midi":59,"time":347.24999999999994,"velocity":0.7480314960629921,"duration":0.33749999999997726},{"name":"F#4","midi":66,"time":347.24999999999994,"velocity":0.7480314960629921,"duration":0.33749999999997726},{"name":"A4","midi":69,"time":347.24999999999994,"velocity":0.7480314960629921,"duration":0.33749999999997726},{"name":"D5","midi":74,"time":347.24999999999994,"velocity":0.7480314960629921,"duration":0.33749999999997726},{"name":"B3","midi":59,"time":347.62499999999994,"velocity":0.7480314960629921,"duration":0.33749999999997726},{"name":"D5","midi":74,"time":347.62499999999994,"velocity":0.7480314960629921,"duration":0.33749999999997726},{"name":"A4","midi":69,"time":347.62499999999994,"velocity":0.7480314960629921,"duration":0.33749999999997726},{"name":"F#4","midi":66,"time":347.62499999999994,"velocity":0.7480314960629921,"duration":0.33749999999997726},{"name":"A4","midi":69,"time":347.99999999999994,"velocity":0.7480314960629921,"duration":0.33749999999997726},{"name":"B3","midi":59,"time":347.99999999999994,"velocity":0.7480314960629921,"duration":0.33749999999997726},{"name":"F#4","midi":66,"time":347.99999999999994,"velocity":0.7480314960629921,"duration":0.33749999999997726},{"name":"D5","midi":74,"time":347.99999999999994,"velocity":0.7480314960629921,"duration":0.33749999999997726},{"name":"F#5","midi":78,"time":348.37499999999994,"velocity":0.7480314960629921,"duration":0.33749999999997726},{"name":"B3","midi":59,"time":348.37499999999994,"velocity":0.7480314960629921,"duration":0.33749999999997726},{"name":"F#4","midi":66,"time":348.37499999999994,"velocity":0.7480314960629921,"duration":0.33749999999997726},{"name":"A4","midi":69,"time":348.37499999999994,"velocity":0.7480314960629921,"duration":0.33749999999997726},{"name":"D5","midi":74,"time":348.37499999999994,"velocity":0.7480314960629921,"duration":0.33749999999997726},{"name":"F#5","midi":78,"time":348.74999999999994,"velocity":0.7480314960629921,"duration":0.33749999999997726},{"name":"F#4","midi":66,"time":348.74999999999994,"velocity":0.7480314960629921,"duration":0.33749999999997726},{"name":"B3","midi":59,"time":348.74999999999994,"velocity":0.7480314960629921,"duration":0.33749999999997726},{"name":"D5","midi":74,"time":348.74999999999994,"velocity":0.7480314960629921,"duration":0.33749999999997726},{"name":"A4","midi":69,"time":348.74999999999994,"velocity":0.7480314960629921,"duration":0.33749999999997726},{"name":"D5","midi":74,"time":349.12499999999994,"velocity":0.7480314960629921,"duration":0.33749999999997726},{"name":"A4","midi":69,"time":349.12499999999994,"velocity":0.7480314960629921,"duration":0.33749999999997726},{"name":"B3","midi":59,"time":349.12499999999994,"velocity":0.7480314960629921,"duration":0.33749999999997726},{"name":"F#4","midi":66,"time":349.12499999999994,"velocity":0.7480314960629921,"duration":0.33749999999997726},{"name":"A4","midi":69,"time":349.49999999999994,"velocity":0.7480314960629921,"duration":0.33749999999997726},{"name":"F#4","midi":66,"time":349.49999999999994,"velocity":0.7480314960629921,"duration":0.33749999999997726},{"name":"B3","midi":59,"time":349.49999999999994,"velocity":0.7480314960629921,"duration":0.33749999999997726},{"name":"D5","midi":74,"time":349.49999999999994,"velocity":0.7480314960629921,"duration":0.33749999999997726},{"name":"B3","midi":59,"time":349.87499999999994,"velocity":0.7480314960629921,"duration":0.33749999999997726},{"name":"F#4","midi":66,"time":349.87499999999994,"velocity":0.7480314960629921,"duration":0.33749999999997726},{"name":"A4","midi":69,"time":349.87499999999994,"velocity":0.7480314960629921,"duration":0.33749999999997726},{"name":"D5","midi":74,"time":349.87499999999994,"velocity":0.7480314960629921,"duration":0.33749999999997726},{"name":"F#5","midi":78,"time":349.87499999999994,"velocity":0.7480314960629921,"duration":0.33749999999997726},{"name":"B3","midi":59,"time":350.24999999999994,"velocity":0.7480314960629921,"duration":0.33749999999997726},{"name":"F#4","midi":66,"time":350.24999999999994,"velocity":0.7480314960629921,"duration":0.33749999999997726},{"name":"A4","midi":69,"time":350.24999999999994,"velocity":0.7480314960629921,"duration":0.33749999999997726},{"name":"D5","midi":74,"time":350.24999999999994,"velocity":0.7480314960629921,"duration":0.33749999999997726},{"name":"F#5","midi":78,"time":350.24999999999994,"velocity":0.7480314960629921,"duration":0.33749999999997726},{"name":"B3","midi":59,"time":350.62499999999994,"velocity":0.7480314960629921,"duration":0.33749999999997726},{"name":"D5","midi":74,"time":350.62499999999994,"velocity":0.7480314960629921,"duration":0.33749999999997726},{"name":"A4","midi":69,"time":350.62499999999994,"velocity":0.7480314960629921,"duration":0.33749999999997726},{"name":"F#4","midi":66,"time":350.62499999999994,"velocity":0.7480314960629921,"duration":0.33749999999997726},{"name":"D4","midi":62,"time":350.99999999999994,"velocity":0.7480314960629921,"duration":0.33749999999997726},{"name":"A4","midi":69,"time":350.99999999999994,"velocity":0.7480314960629921,"duration":0.33749999999997726},{"name":"D4","midi":62,"time":351.37499999999994,"velocity":0.7480314960629921,"duration":0.33749999999997726},{"name":"D5","midi":74,"time":351.37499999999994,"velocity":0.7480314960629921,"duration":0.33749999999997726},{"name":"A4","midi":69,"time":351.37499999999994,"velocity":0.7480314960629921,"duration":0.33749999999997726},{"name":"F#5","midi":78,"time":351.37499999999994,"velocity":0.7480314960629921,"duration":0.33749999999997726},{"name":"A4","midi":69,"time":351.74999999999994,"velocity":0.7480314960629921,"duration":0.33749999999997726},{"name":"D4","midi":62,"time":351.74999999999994,"velocity":0.7480314960629921,"duration":0.33749999999997726},{"name":"C#5","midi":73,"time":351.74999999999994,"velocity":0.7480314960629921,"duration":0.33749999999997726},{"name":"D4","midi":62,"time":352.12499999999994,"velocity":0.7480314960629921,"duration":0.33749999999997726},{"name":"A4","midi":69,"time":352.12499999999994,"velocity":0.7480314960629921,"duration":0.33749999999997726},{"name":"D4","midi":62,"time":352.49999999999994,"velocity":0.7480314960629921,"duration":0.33749999999997726},{"name":"A4","midi":69,"time":352.49999999999994,"velocity":0.7480314960629921,"duration":0.33749999999997726},{"name":"D4","midi":62,"time":352.87499999999994,"velocity":0.7480314960629921,"duration":0.33749999999997726},{"name":"A4","midi":69,"time":352.87499999999994,"velocity":0.7480314960629921,"duration":0.33749999999997726},{"name":"D5","midi":74,"time":352.87499999999994,"velocity":0.7480314960629921,"duration":0.33749999999997726},{"name":"D4","midi":62,"time":353.24999999999994,"velocity":0.7480314960629921,"duration":0.33749999999997726},{"name":"A4","midi":69,"time":353.24999999999994,"velocity":0.7480314960629921,"duration":0.33749999999997726},{"name":"C#5","midi":73,"time":353.24999999999994,"velocity":0.7480314960629921,"duration":0.33749999999997726},{"name":"A4","midi":69,"time":353.62499999999994,"velocity":0.7480314960629921,"duration":0.33749999999997726},{"name":"D4","midi":62,"time":353.62499999999994,"velocity":0.7480314960629921,"duration":0.33749999999997726},{"name":"A4","midi":69,"time":353.99999999999994,"velocity":0.7480314960629921,"duration":0.33749999999997726},{"name":"D4","midi":62,"time":353.99999999999994,"velocity":0.7480314960629921,"duration":0.33749999999997726},{"name":"C#5","midi":73,"time":354.37499999999994,"velocity":0.7480314960629921,"duration":0.33749999999997726},{"name":"A4","midi":69,"time":354.37499999999994,"velocity":0.7480314960629921,"duration":0.33749999999997726},{"name":"D4","midi":62,"time":354.37499999999994,"velocity":0.7480314960629921,"duration":0.33749999999997726},{"name":"D4","midi":62,"time":354.74999999999994,"velocity":0.7480314960629921,"duration":0.33749999999997726},{"name":"A4","midi":69,"time":354.74999999999994,"velocity":0.7480314960629921,"duration":0.33749999999997726},{"name":"C#5","midi":73,"time":354.74999999999994,"velocity":0.7480314960629921,"duration":0.33749999999997726},{"name":"A4","midi":69,"time":355.12499999999994,"velocity":0.7480314960629921,"duration":0.33749999999997726},{"name":"D4","midi":62,"time":355.12499999999994,"velocity":0.7480314960629921,"duration":0.33749999999997726},{"name":"D4","midi":62,"time":355.49999999999994,"velocity":0.7480314960629921,"duration":0.33749999999997726},{"name":"A4","midi":69,"time":355.49999999999994,"velocity":0.7480314960629921,"duration":0.33749999999997726},{"name":"C#5","midi":73,"time":355.87499999999994,"velocity":0.7480314960629921,"duration":0.33749999999997726},{"name":"D4","midi":62,"time":355.87499999999994,"velocity":0.7480314960629921,"duration":0.33749999999997726},{"name":"A4","midi":69,"time":355.87499999999994,"velocity":0.7480314960629921,"duration":0.33749999999997726},{"name":"C#5","midi":73,"time":356.24999999999994,"velocity":0.7480314960629921,"duration":0.33749999999997726},{"name":"A4","midi":69,"time":356.24999999999994,"velocity":0.7480314960629921,"duration":0.33749999999997726},{"name":"D4","midi":62,"time":356.24999999999994,"velocity":0.7480314960629921,"duration":0.33749999999997726},{"name":"D4","midi":62,"time":356.62499999999994,"velocity":0.7480314960629921,"duration":0.33749999999997726},{"name":"A4","midi":69,"time":356.62499999999994,"velocity":0.7480314960629921,"duration":0.33749999999997726},{"name":"E4","midi":64,"time":356.99999999999994,"velocity":0.7480314960629921,"duration":0.33749999999997726},{"name":"A3","midi":57,"time":356.99999999999994,"velocity":0.7480314960629921,"duration":0.33749999999997726},{"name":"F#5","midi":78,"time":356.99999999999994,"velocity":0.7480314960629921,"duration":0.33749999999997726},{"name":"C#5","midi":73,"time":356.99999999999994,"velocity":0.7480314960629921,"duration":0.33749999999997726},{"name":"A4","midi":69,"time":356.99999999999994,"velocity":0.7480314960629921,"duration":0.33749999999997726},{"name":"A3","midi":57,"time":357.37499999999994,"velocity":0.7480314960629921,"duration":0.33749999999997726},{"name":"A4","midi":69,"time":357.37499999999994,"velocity":0.7480314960629921,"duration":0.33749999999997726},{"name":"C#5","midi":73,"time":357.37499999999994,"velocity":0.7480314960629921,"duration":0.33749999999997726},{"name":"F#5","midi":78,"time":357.37499999999994,"velocity":0.7480314960629921,"duration":0.33749999999997726},{"name":"E4","midi":64,"time":357.37499999999994,"velocity":0.7480314960629921,"duration":0.33749999999997726},{"name":"E4","midi":64,"time":357.74999999999994,"velocity":0.7480314960629921,"duration":0.5062500000000227},{"name":"A3","midi":57,"time":357.74999999999994,"velocity":0.7480314960629921,"duration":0.5062500000000227},{"name":"A4","midi":69,"time":357.74999999999994,"velocity":0.7480314960629921,"duration":0.5062500000000227},{"name":"C#5","midi":73,"time":357.74999999999994,"velocity":0.7480314960629921,"duration":0.5062500000000227},{"name":"E5","midi":76,"time":357.74999999999994,"velocity":0.7480314960629921,"duration":0.5062500000000227},{"name":"A3","midi":57,"time":358.31249999999994,"velocity":0.7480314960629921,"duration":0.16874999999998863},{"name":"C#5","midi":73,"time":358.31249999999994,"velocity":0.7480314960629921,"duration":0.16874999999998863},{"name":"A4","midi":69,"time":358.31249999999994,"velocity":0.7480314960629921,"duration":0.16874999999998863},{"name":"E4","midi":64,"time":358.31249999999994,"velocity":0.7480314960629921,"duration":0.16874999999998863},{"name":"E5","midi":76,"time":358.31249999999994,"velocity":0.7480314960629921,"duration":0.16874999999998863},{"name":"F#5","midi":78,"time":358.49999999999994,"velocity":0.7480314960629921,"duration":0.33749999999997726},{"name":"C#5","midi":73,"time":358.49999999999994,"velocity":0.7480314960629921,"duration":0.33749999999997726},{"name":"A4","midi":69,"time":358.49999999999994,"velocity":0.7480314960629921,"duration":0.33749999999997726},{"name":"E4","midi":64,"time":358.49999999999994,"velocity":0.7480314960629921,"duration":0.33749999999997726},{"name":"A3","midi":57,"time":358.49999999999994,"velocity":0.7480314960629921,"duration":0.33749999999997726},{"name":"A3","midi":57,"time":358.87499999999994,"velocity":0.7480314960629921,"duration":0.33749999999997726},{"name":"F#5","midi":78,"time":358.87499999999994,"velocity":0.7480314960629921,"duration":0.33749999999997726},{"name":"C#5","midi":73,"time":358.87499999999994,"velocity":0.7480314960629921,"duration":0.33749999999997726},{"name":"A4","midi":69,"time":358.87499999999994,"velocity":0.7480314960629921,"duration":0.33749999999997726},{"name":"E4","midi":64,"time":358.87499999999994,"velocity":0.7480314960629921,"duration":0.33749999999997726},{"name":"E4","midi":64,"time":359.24999999999994,"velocity":0.7480314960629921,"duration":0.5062500000000227},{"name":"A4","midi":69,"time":359.24999999999994,"velocity":0.7480314960629921,"duration":0.5062500000000227},{"name":"E5","midi":76,"time":359.24999999999994,"velocity":0.7480314960629921,"duration":0.5062500000000227},{"name":"C#5","midi":73,"time":359.24999999999994,"velocity":0.7480314960629921,"duration":0.5062500000000227},{"name":"A3","midi":57,"time":359.24999999999994,"velocity":0.7480314960629921,"duration":0.5062500000000227},{"name":"A3","midi":57,"time":359.81249999999994,"velocity":0.7480314960629921,"duration":0.16874999999998863},{"name":"C#5","midi":73,"time":359.81249999999994,"velocity":0.7480314960629921,"duration":0.16874999999998863},{"name":"A4","midi":69,"time":359.81249999999994,"velocity":0.7480314960629921,"duration":0.16874999999998863},{"name":"E4","midi":64,"time":359.81249999999994,"velocity":0.7480314960629921,"duration":0.16874999999998863},{"name":"E5","midi":76,"time":359.81249999999994,"velocity":0.7480314960629921,"duration":0.16874999999998863},{"name":"A4","midi":69,"time":359.99999999999994,"velocity":0.7480314960629921,"duration":0.33749999999997726},{"name":"E4","midi":64,"time":359.99999999999994,"velocity":0.7480314960629921,"duration":0.33749999999997726},{"name":"A3","midi":57,"time":359.99999999999994,"velocity":0.7480314960629921,"duration":0.33749999999997726},{"name":"F#5","midi":78,"time":359.99999999999994,"velocity":0.7480314960629921,"duration":0.33749999999997726},{"name":"C#5","midi":73,"time":359.99999999999994,"velocity":0.7480314960629921,"duration":0.33749999999997726},{"name":"F#5","midi":78,"time":360.37499999999994,"velocity":0.7480314960629921,"duration":0.33749999999997726},{"name":"C#5","midi":73,"time":360.37499999999994,"velocity":0.7480314960629921,"duration":0.33749999999997726},{"name":"A4","midi":69,"time":360.37499999999994,"velocity":0.7480314960629921,"duration":0.33749999999997726},{"name":"E4","midi":64,"time":360.37499999999994,"velocity":0.7480314960629921,"duration":0.33749999999997726},{"name":"A3","midi":57,"time":360.37499999999994,"velocity":0.7480314960629921,"duration":0.33749999999997726},{"name":"A3","midi":57,"time":360.74999999999994,"velocity":0.7480314960629921,"duration":0.5062500000000227},{"name":"E4","midi":64,"time":360.74999999999994,"velocity":0.7480314960629921,"duration":0.5062500000000227},{"name":"A4","midi":69,"time":360.74999999999994,"velocity":0.7480314960629921,"duration":0.5062500000000227},{"name":"C#5","midi":73,"time":360.74999999999994,"velocity":0.7480314960629921,"duration":0.5062500000000227},{"name":"E5","midi":76,"time":360.74999999999994,"velocity":0.7480314960629921,"duration":0.5062500000000227},{"name":"A3","midi":57,"time":361.31249999999994,"velocity":0.7480314960629921,"duration":0.16874999999998863},{"name":"E4","midi":64,"time":361.31249999999994,"velocity":0.7480314960629921,"duration":0.16874999999998863},{"name":"A4","midi":69,"time":361.31249999999994,"velocity":0.7480314960629921,"duration":0.16874999999998863},{"name":"C#5","midi":73,"time":361.31249999999994,"velocity":0.7480314960629921,"duration":0.16874999999998863},{"name":"E5","midi":76,"time":361.31249999999994,"velocity":0.7480314960629921,"duration":0.16874999999998863},{"name":"F#5","midi":78,"time":361.49999999999994,"velocity":0.7480314960629921,"duration":0.33749999999997726},{"name":"A3","midi":57,"time":361.49999999999994,"velocity":0.7480314960629921,"duration":0.33749999999997726},{"name":"E4","midi":64,"time":361.49999999999994,"velocity":0.7480314960629921,"duration":0.33749999999997726},{"name":"A4","midi":69,"time":361.49999999999994,"velocity":0.7480314960629921,"duration":0.33749999999997726},{"name":"C#5","midi":73,"time":361.49999999999994,"velocity":0.7480314960629921,"duration":0.33749999999997726},{"name":"F#5","midi":78,"time":361.87499999999994,"velocity":0.7480314960629921,"duration":0.33749999999997726},{"name":"A3","midi":57,"time":361.87499999999994,"velocity":0.7480314960629921,"duration":0.33749999999997726},{"name":"E4","midi":64,"time":361.87499999999994,"velocity":0.7480314960629921,"duration":0.33749999999997726},{"name":"A4","midi":69,"time":361.87499999999994,"velocity":0.7480314960629921,"duration":0.33749999999997726},{"name":"C#5","midi":73,"time":361.87499999999994,"velocity":0.7480314960629921,"duration":0.33749999999997726},{"name":"A3","midi":57,"time":362.24999999999994,"velocity":0.7480314960629921,"duration":0.5062500000000227},{"name":"E4","midi":64,"time":362.24999999999994,"velocity":0.7480314960629921,"duration":0.5062500000000227},{"name":"A4","midi":69,"time":362.24999999999994,"velocity":0.7480314960629921,"duration":0.5062500000000227},{"name":"C#5","midi":73,"time":362.24999999999994,"velocity":0.7480314960629921,"duration":0.5062500000000227},{"name":"E5","midi":76,"time":362.24999999999994,"velocity":0.7480314960629921,"duration":0.5062500000000227},{"name":"E4","midi":64,"time":362.81249999999994,"velocity":0.7480314960629921,"duration":0.16874999999998863},{"name":"E5","midi":76,"time":362.81249999999994,"velocity":0.7480314960629921,"duration":0.16874999999998863},{"name":"C#5","midi":73,"time":362.81249999999994,"velocity":0.7480314960629921,"duration":0.16874999999998863},{"name":"A3","midi":57,"time":362.81249999999994,"velocity":0.7480314960629921,"duration":0.16874999999998863},{"name":"A4","midi":69,"time":362.81249999999994,"velocity":0.7480314960629921,"duration":0.16874999999998863},{"name":"D5","midi":74,"time":362.99999999999994,"velocity":0.7480314960629921,"duration":0.33749999999997726},{"name":"D4","midi":62,"time":362.99999999999994,"velocity":0.7480314960629921,"duration":0.33749999999997726},{"name":"A4","midi":69,"time":362.99999999999994,"velocity":0.7480314960629921,"duration":0.33749999999997726},{"name":"F#5","midi":78,"time":362.99999999999994,"velocity":0.7480314960629921,"duration":0.33749999999997726},{"name":"D4","midi":62,"time":363.37499999999994,"velocity":0.7480314960629921,"duration":0.33749999999997726},{"name":"A4","midi":69,"time":363.37499999999994,"velocity":0.7480314960629921,"duration":0.33749999999997726},{"name":"D5","midi":74,"time":363.37499999999994,"velocity":0.7480314960629921,"duration":0.33749999999997726},{"name":"F#5","midi":78,"time":363.37499999999994,"velocity":0.7480314960629921,"duration":0.33749999999997726},{"name":"D4","midi":62,"time":363.74999999999994,"velocity":0.7480314960629921,"duration":0.5062500000000227},{"name":"A4","midi":69,"time":363.74999999999994,"velocity":0.7480314960629921,"duration":0.5062500000000227},{"name":"D5","midi":74,"time":363.74999999999994,"velocity":0.7480314960629921,"duration":0.5062500000000227},{"name":"E5","midi":76,"time":363.74999999999994,"velocity":0.7480314960629921,"duration":0.5062500000000227},{"name":"D4","midi":62,"time":364.31249999999994,"velocity":0.7480314960629921,"duration":0.16874999999998863},{"name":"D5","midi":74,"time":364.31249999999994,"velocity":0.7480314960629921,"duration":0.16874999999998863},{"name":"E5","midi":76,"time":364.31249999999994,"velocity":0.7480314960629921,"duration":0.16874999999998863},{"name":"A4","midi":69,"time":364.31249999999994,"velocity":0.7480314960629921,"duration":0.16874999999998863},{"name":"F#5","midi":78,"time":364.49999999999994,"velocity":0.7480314960629921,"duration":0.33749999999997726},{"name":"D5","midi":74,"time":364.49999999999994,"velocity":0.7480314960629921,"duration":0.33749999999997726},{"name":"D4","midi":62,"time":364.49999999999994,"velocity":0.7480314960629921,"duration":0.33749999999997726},{"name":"A4","midi":69,"time":364.49999999999994,"velocity":0.7480314960629921,"duration":0.33749999999997726},{"name":"F#5","midi":78,"time":364.87499999999994,"velocity":0.7480314960629921,"duration":0.33749999999997726},{"name":"D4","midi":62,"time":364.87499999999994,"velocity":0.7480314960629921,"duration":0.33749999999997726},{"name":"A4","midi":69,"time":364.87499999999994,"velocity":0.7480314960629921,"duration":0.33749999999997726},{"name":"D5","midi":74,"time":364.87499999999994,"velocity":0.7480314960629921,"duration":0.33749999999997726},{"name":"D5","midi":74,"time":365.24999999999994,"velocity":0.7480314960629921,"duration":0.5062500000000227},{"name":"A4","midi":69,"time":365.24999999999994,"velocity":0.7480314960629921,"duration":0.5062500000000227},{"name":"E5","midi":76,"time":365.24999999999994,"velocity":0.7480314960629921,"duration":0.5062500000000227},{"name":"D4","midi":62,"time":365.24999999999994,"velocity":0.7480314960629921,"duration":0.5062500000000227},{"name":"E5","midi":76,"time":365.81249999999994,"velocity":0.7480314960629921,"duration":0.16874999999998863},{"name":"D5","midi":74,"time":365.81249999999994,"velocity":0.7480314960629921,"duration":0.16874999999998863},{"name":"D4","midi":62,"time":365.81249999999994,"velocity":0.7480314960629921,"duration":0.16874999999998863},{"name":"A4","midi":69,"time":365.81249999999994,"velocity":0.7480314960629921,"duration":0.16874999999998863},{"name":"A4","midi":69,"time":365.99999999999994,"velocity":0.7480314960629921,"duration":0.33749999999997726},{"name":"E5","midi":76,"time":365.99999999999994,"velocity":0.7480314960629921,"duration":0.33749999999997726},{"name":"D5","midi":74,"time":365.99999999999994,"velocity":0.7480314960629921,"duration":0.33749999999997726},{"name":"D4","midi":62,"time":365.99999999999994,"velocity":0.7480314960629921,"duration":0.33749999999997726},{"name":"D4","midi":62,"time":366.37499999999994,"velocity":0.7480314960629921,"duration":0.33749999999997726},{"name":"A4","midi":69,"time":366.37499999999994,"velocity":0.7480314960629921,"duration":0.33749999999997726},{"name":"D5","midi":74,"time":366.37499999999994,"velocity":0.7480314960629921,"duration":0.33749999999997726},{"name":"E5","midi":76,"time":366.37499999999994,"velocity":0.7480314960629921,"duration":0.33749999999997726},{"name":"D4","midi":62,"time":366.74999999999994,"velocity":0.7480314960629921,"duration":0.5062500000000227},{"name":"A4","midi":69,"time":366.74999999999994,"velocity":0.7480314960629921,"duration":0.5062500000000227},{"name":"D5","midi":74,"time":366.74999999999994,"velocity":0.7480314960629921,"duration":0.5062500000000227},{"name":"E5","midi":76,"time":366.74999999999994,"velocity":0.7480314960629921,"duration":0.5062500000000227},{"name":"E5","midi":76,"time":367.31249999999994,"velocity":0.7480314960629921,"duration":0.16874999999998863},{"name":"A4","midi":69,"time":367.31249999999994,"velocity":0.7480314960629921,"duration":0.16874999999998863},{"name":"D5","midi":74,"time":367.31249999999994,"velocity":0.7480314960629921,"duration":0.16874999999998863},{"name":"D4","midi":62,"time":367.31249999999994,"velocity":0.7480314960629921,"duration":0.16874999999998863},{"name":"D4","midi":62,"time":367.49999999999994,"velocity":0.7480314960629921,"duration":0.33749999999997726},{"name":"A4","midi":69,"time":367.49999999999994,"velocity":0.7480314960629921,"duration":0.33749999999997726},{"name":"D5","midi":74,"time":367.49999999999994,"velocity":0.7480314960629921,"duration":0.33749999999997726},{"name":"F#5","midi":78,"time":367.49999999999994,"velocity":0.7480314960629921,"duration":0.33749999999997726},{"name":"D4","midi":62,"time":367.87499999999994,"velocity":0.7480314960629921,"duration":0.33749999999997726},{"name":"A4","midi":69,"time":367.87499999999994,"velocity":0.7480314960629921,"duration":0.33749999999997726},{"name":"D5","midi":74,"time":367.87499999999994,"velocity":0.7480314960629921,"duration":0.33749999999997726},{"name":"F#5","midi":78,"time":367.87499999999994,"velocity":0.7480314960629921,"duration":0.33749999999997726},{"name":"E5","midi":76,"time":368.24999999999994,"velocity":0.7480314960629921,"duration":0.5062500000000227},{"name":"D5","midi":74,"time":368.24999999999994,"velocity":0.7480314960629921,"duration":0.5062500000000227},{"name":"A4","midi":69,"time":368.24999999999994,"velocity":0.7480314960629921,"duration":0.5062500000000227},{"name":"D4","midi":62,"time":368.24999999999994,"velocity":0.7480314960629921,"duration":0.5062500000000227},{"name":"A4","midi":69,"time":368.81249999999994,"velocity":0.7480314960629921,"duration":0.16874999999998863},{"name":"D4","midi":62,"time":368.81249999999994,"velocity":0.7480314960629921,"duration":0.16874999999998863},{"name":"D5","midi":74,"time":368.81249999999994,"velocity":0.7480314960629921,"duration":0.16874999999998863},{"name":"E5","midi":76,"time":368.81249999999994,"velocity":0.7480314960629921,"duration":0.16874999999998863},{"name":"D5","midi":74,"time":368.99999999999994,"velocity":0.7480314960629921,"duration":0.33749999999997726},{"name":"B4","midi":71,"time":368.99999999999994,"velocity":0.7480314960629921,"duration":0.33749999999997726},{"name":"F#4","midi":66,"time":368.99999999999994,"velocity":0.7480314960629921,"duration":0.33749999999997726},{"name":"B3","midi":59,"time":368.99999999999994,"velocity":0.7480314960629921,"duration":0.33749999999997726},{"name":"F#5","midi":78,"time":368.99999999999994,"velocity":0.7480314960629921,"duration":0.33749999999997726},{"name":"D5","midi":74,"time":369.37499999999994,"velocity":0.7480314960629921,"duration":0.33749999999997726},{"name":"F#4","midi":66,"time":369.37499999999994,"velocity":0.7480314960629921,"duration":0.33749999999997726},{"name":"F#5","midi":78,"time":369.37499999999994,"velocity":0.7480314960629921,"duration":0.33749999999997726},{"name":"B4","midi":71,"time":369.37499999999994,"velocity":0.7480314960629921,"duration":0.33749999999997726},{"name":"B3","midi":59,"time":369.37499999999994,"velocity":0.7480314960629921,"duration":0.33749999999997726},{"name":"B3","midi":59,"time":369.74999999999994,"velocity":0.7480314960629921,"duration":0.5062500000000227},{"name":"F#4","midi":66,"time":369.74999999999994,"velocity":0.7480314960629921,"duration":0.5062500000000227},{"name":"E5","midi":76,"time":369.74999999999994,"velocity":0.7480314960629921,"duration":0.5062500000000227},{"name":"D5","midi":74,"time":369.74999999999994,"velocity":0.7480314960629921,"duration":0.5062500000000227},{"name":"B4","midi":71,"time":369.74999999999994,"velocity":0.7480314960629921,"duration":0.5062500000000227},{"name":"E5","midi":76,"time":370.31249999999994,"velocity":0.7480314960629921,"duration":0.16874999999998863},{"name":"B3","midi":59,"time":370.31249999999994,"velocity":0.7480314960629921,"duration":0.16874999999998863},{"name":"F#4","midi":66,"time":370.31249999999994,"velocity":0.7480314960629921,"duration":0.16874999999998863},{"name":"B4","midi":71,"time":370.31249999999994,"velocity":0.7480314960629921,"duration":0.16874999999998863},{"name":"D5","midi":74,"time":370.31249999999994,"velocity":0.7480314960629921,"duration":0.16874999999998863},{"name":"F#5","midi":78,"time":370.49999999999994,"velocity":0.7480314960629921,"duration":0.33749999999997726},{"name":"B3","midi":59,"time":370.49999999999994,"velocity":0.7480314960629921,"duration":0.33749999999997726},{"name":"F#4","midi":66,"time":370.49999999999994,"velocity":0.7480314960629921,"duration":0.33749999999997726},{"name":"B4","midi":71,"time":370.49999999999994,"velocity":0.7480314960629921,"duration":0.33749999999997726},{"name":"D5","midi":74,"time":370.49999999999994,"velocity":0.7480314960629921,"duration":0.33749999999997726},{"name":"B3","midi":59,"time":370.87499999999994,"velocity":0.7480314960629921,"duration":0.33749999999997726},{"name":"F#4","midi":66,"time":370.87499999999994,"velocity":0.7480314960629921,"duration":0.33749999999997726},{"name":"B4","midi":71,"time":370.87499999999994,"velocity":0.7480314960629921,"duration":0.33749999999997726},{"name":"D5","midi":74,"time":370.87499999999994,"velocity":0.7480314960629921,"duration":0.33749999999997726},{"name":"F#5","midi":78,"time":370.87499999999994,"velocity":0.7480314960629921,"duration":0.33749999999997726},{"name":"B3","midi":59,"time":371.24999999999994,"velocity":0.7480314960629921,"duration":0.5062500000000227},{"name":"F#4","midi":66,"time":371.24999999999994,"velocity":0.7480314960629921,"duration":0.5062500000000227},{"name":"B4","midi":71,"time":371.24999999999994,"velocity":0.7480314960629921,"duration":0.5062500000000227},{"name":"D5","midi":74,"time":371.24999999999994,"velocity":0.7480314960629921,"duration":0.5062500000000227},{"name":"E5","midi":76,"time":371.24999999999994,"velocity":0.7480314960629921,"duration":0.5062500000000227},{"name":"B4","midi":71,"time":371.81249999999994,"velocity":0.7480314960629921,"duration":0.16874999999998863},{"name":"F#4","midi":66,"time":371.81249999999994,"velocity":0.7480314960629921,"duration":0.16874999999998863},{"name":"B3","midi":59,"time":371.81249999999994,"velocity":0.7480314960629921,"duration":0.16874999999998863},{"name":"E5","midi":76,"time":371.81249999999994,"velocity":0.7480314960629921,"duration":0.16874999999998863},{"name":"D5","midi":74,"time":371.81249999999994,"velocity":0.7480314960629921,"duration":0.16874999999998863},{"name":"G#4","midi":68,"time":371.99999999999994,"velocity":0.7480314960629921,"duration":0.33749999999997726},{"name":"B4","midi":71,"time":371.99999999999994,"velocity":0.7480314960629921,"duration":0.33749999999997726},{"name":"F#5","midi":78,"time":371.99999999999994,"velocity":0.7480314960629921,"duration":0.33749999999997726},{"name":"C#4","midi":61,"time":371.99999999999994,"velocity":0.7480314960629921,"duration":0.33749999999997726},{"name":"F#5","midi":78,"time":372.37499999999994,"velocity":0.7480314960629921,"duration":0.33749999999997726},{"name":"C#4","midi":61,"time":372.37499999999994,"velocity":0.7480314960629921,"duration":0.33749999999997726},{"name":"G#4","midi":68,"time":372.37499999999994,"velocity":0.7480314960629921,"duration":0.33749999999997726},{"name":"B4","midi":71,"time":372.37499999999994,"velocity":0.7480314960629921,"duration":0.33749999999997726},{"name":"E5","midi":76,"time":372.74999999999994,"velocity":0.7480314960629921,"duration":0.5062500000000227},{"name":"B4","midi":71,"time":372.74999999999994,"velocity":0.7480314960629921,"duration":0.5062500000000227},{"name":"G#4","midi":68,"time":372.74999999999994,"velocity":0.7480314960629921,"duration":0.5062500000000227},{"name":"C#4","midi":61,"time":372.74999999999994,"velocity":0.7480314960629921,"duration":0.5062500000000227},{"name":"E5","midi":76,"time":373.31249999999994,"velocity":0.7480314960629921,"duration":0.16874999999998863},{"name":"C#4","midi":61,"time":373.31249999999994,"velocity":0.7480314960629921,"duration":0.16874999999998863},{"name":"G#4","midi":68,"time":373.31249999999994,"velocity":0.7480314960629921,"duration":0.16874999999998863},{"name":"B4","midi":71,"time":373.31249999999994,"velocity":0.7480314960629921,"duration":0.16874999999998863},{"name":"C#4","midi":61,"time":373.49999999999994,"velocity":0.7480314960629921,"duration":0.33749999999997726},{"name":"G#4","midi":68,"time":373.49999999999994,"velocity":0.7480314960629921,"duration":0.33749999999997726},{"name":"B4","midi":71,"time":373.49999999999994,"velocity":0.7480314960629921,"duration":0.33749999999997726},{"name":"F#5","midi":78,"time":373.49999999999994,"velocity":0.7480314960629921,"duration":0.33749999999997726},{"name":"C#4","midi":61,"time":373.87499999999994,"velocity":0.7480314960629921,"duration":0.33749999999997726},{"name":"G#4","midi":68,"time":373.87499999999994,"velocity":0.7480314960629921,"duration":0.33749999999997726},{"name":"F#5","midi":78,"time":373.87499999999994,"velocity":0.7480314960629921,"duration":0.33749999999997726},{"name":"B4","midi":71,"time":373.87499999999994,"velocity":0.7480314960629921,"duration":0.33749999999997726},{"name":"C#4","midi":61,"time":374.24999999999994,"velocity":0.7480314960629921,"duration":0.5062500000000227},{"name":"G#4","midi":68,"time":374.24999999999994,"velocity":0.7480314960629921,"duration":0.5062500000000227},{"name":"B4","midi":71,"time":374.24999999999994,"velocity":0.7480314960629921,"duration":0.5062500000000227},{"name":"E5","midi":76,"time":374.24999999999994,"velocity":0.7480314960629921,"duration":0.5062500000000227},{"name":"E5","midi":76,"time":374.81249999999994,"velocity":0.7480314960629921,"duration":0.16874999999998863},{"name":"B4","midi":71,"time":374.81249999999994,"velocity":0.7480314960629921,"duration":0.16874999999998863},{"name":"C#4","midi":61,"time":374.81249999999994,"velocity":0.7480314960629921,"duration":0.16874999999998863},{"name":"G#4","midi":68,"time":374.81249999999994,"velocity":0.7480314960629921,"duration":0.16874999999998863},{"name":"A5","midi":81,"time":374.99999999999994,"velocity":0.7480314960629921,"duration":0.33749999999997726},{"name":"A4","midi":69,"time":374.99999999999994,"velocity":0.7480314960629921,"duration":0.33749999999997726},{"name":"D5","midi":74,"time":374.99999999999994,"velocity":0.7480314960629921,"duration":0.33749999999997726},{"name":"F#5","midi":78,"time":374.99999999999994,"velocity":0.7480314960629921,"duration":0.33749999999997726},{"name":"D4","midi":62,"time":374.99999999999994,"velocity":0.7480314960629921,"duration":0.33749999999997726},{"name":"F#5","midi":78,"time":375.37499999999994,"velocity":0.7480314960629921,"duration":0.33749999999997726},{"name":"D5","midi":74,"time":375.37499999999994,"velocity":0.7480314960629921,"duration":0.33749999999997726},{"name":"A4","midi":69,"time":375.37499999999994,"velocity":0.7480314960629921,"duration":0.33749999999997726},{"name":"D4","midi":62,"time":375.37499999999994,"velocity":0.7480314960629921,"duration":0.33749999999997726},{"name":"A5","midi":81,"time":375.37499999999994,"velocity":0.7480314960629921,"duration":0.33749999999997726},{"name":"D4","midi":62,"time":375.74999999999994,"velocity":0.7480314960629921,"duration":0.5062500000000227},{"name":"A4","midi":69,"time":375.74999999999994,"velocity":0.7480314960629921,"duration":0.5062500000000227},{"name":"D5","midi":74,"time":375.74999999999994,"velocity":0.7480314960629921,"duration":0.5062500000000227},{"name":"F#5","midi":78,"time":375.74999999999994,"velocity":0.7480314960629921,"duration":0.5062500000000227},{"name":"A5","midi":81,"time":375.74999999999994,"velocity":0.7480314960629921,"duration":0.5062500000000227},{"name":"A5","midi":81,"time":376.31249999999994,"velocity":0.7480314960629921,"duration":0.16874999999998863},{"name":"F#5","midi":78,"time":376.31249999999994,"velocity":0.7480314960629921,"duration":0.16874999999998863},{"name":"D5","midi":74,"time":376.31249999999994,"velocity":0.7480314960629921,"duration":0.16874999999998863},{"name":"D4","midi":62,"time":376.31249999999994,"velocity":0.7480314960629921,"duration":0.16874999999998863},{"name":"A4","midi":69,"time":376.31249999999994,"velocity":0.7480314960629921,"duration":0.16874999999998863},{"name":"D5","midi":74,"time":376.49999999999994,"velocity":0.7480314960629921,"duration":0.33749999999997726},{"name":"D4","midi":62,"time":376.49999999999994,"velocity":0.7480314960629921,"duration":0.33749999999997726},{"name":"A5","midi":81,"time":376.49999999999994,"velocity":0.7480314960629921,"duration":0.33749999999997726},{"name":"F#5","midi":78,"time":376.49999999999994,"velocity":0.7480314960629921,"duration":0.33749999999997726},{"name":"A4","midi":69,"time":376.49999999999994,"velocity":0.7480314960629921,"duration":0.33749999999997726},{"name":"A4","midi":69,"time":376.87499999999994,"velocity":0.7480314960629921,"duration":0.33749999999997726},{"name":"D4","midi":62,"time":376.87499999999994,"velocity":0.7480314960629921,"duration":0.33749999999997726},{"name":"A5","midi":81,"time":376.87499999999994,"velocity":0.7480314960629921,"duration":0.33749999999997726},{"name":"F#5","midi":78,"time":376.87499999999994,"velocity":0.7480314960629921,"duration":0.33749999999997726},{"name":"D5","midi":74,"time":376.87499999999994,"velocity":0.7480314960629921,"duration":0.33749999999997726},{"name":"A5","midi":81,"time":377.24999999999994,"velocity":0.7480314960629921,"duration":0.5062500000000227},{"name":"F#5","midi":78,"time":377.24999999999994,"velocity":0.7480314960629921,"duration":0.5062500000000227},{"name":"D5","midi":74,"time":377.24999999999994,"velocity":0.7480314960629921,"duration":0.5062500000000227},{"name":"A4","midi":69,"time":377.24999999999994,"velocity":0.7480314960629921,"duration":0.5062500000000227},{"name":"D4","midi":62,"time":377.24999999999994,"velocity":0.7480314960629921,"duration":0.5062500000000227},{"name":"A4","midi":69,"time":377.81249999999994,"velocity":0.7480314960629921,"duration":0.16874999999998863},{"name":"D5","midi":74,"time":377.81249999999994,"velocity":0.7480314960629921,"duration":0.16874999999998863},{"name":"D4","midi":62,"time":377.81249999999994,"velocity":0.7480314960629921,"duration":0.16874999999998863},{"name":"A5","midi":81,"time":377.81249999999994,"velocity":0.7480314960629921,"duration":0.16874999999998863},{"name":"F#5","midi":78,"time":377.81249999999994,"velocity":0.7480314960629921,"duration":0.16874999999998863},{"name":"A4","midi":69,"time":377.99999999999994,"velocity":0.7480314960629921,"duration":0.33749999999997726},{"name":"D4","midi":62,"time":377.99999999999994,"velocity":0.7480314960629921,"duration":0.33749999999997726},{"name":"A5","midi":81,"time":377.99999999999994,"velocity":0.7480314960629921,"duration":0.33749999999997726},{"name":"F#5","midi":78,"time":377.99999999999994,"velocity":0.7480314960629921,"duration":0.33749999999997726},{"name":"D5","midi":74,"time":377.99999999999994,"velocity":0.7480314960629921,"duration":0.33749999999997726},{"name":"A5","midi":81,"time":378.37499999999994,"velocity":0.7480314960629921,"duration":0.33749999999997726},{"name":"D5","midi":74,"time":378.37499999999994,"velocity":0.7480314960629921,"duration":0.33749999999997726},{"name":"D4","midi":62,"time":378.37499999999994,"velocity":0.7480314960629921,"duration":0.33749999999997726},{"name":"A4","midi":69,"time":378.37499999999994,"velocity":0.7480314960629921,"duration":0.33749999999997726},{"name":"F#5","midi":78,"time":378.37499999999994,"velocity":0.7480314960629921,"duration":0.33749999999997726},{"name":"A5","midi":81,"time":378.74999999999994,"velocity":0.7480314960629921,"duration":0.5062500000000227},{"name":"D5","midi":74,"time":378.74999999999994,"velocity":0.7480314960629921,"duration":0.5062500000000227},{"name":"A4","midi":69,"time":378.74999999999994,"velocity":0.7480314960629921,"duration":0.5062500000000227},{"name":"D4","midi":62,"time":378.74999999999994,"velocity":0.7480314960629921,"duration":0.5062500000000227},{"name":"F#5","midi":78,"time":378.74999999999994,"velocity":0.7480314960629921,"duration":0.5062500000000227},{"name":"A4","midi":69,"time":379.31249999999994,"velocity":0.7480314960629921,"duration":0.16874999999998863},{"name":"D5","midi":74,"time":379.31249999999994,"velocity":0.7480314960629921,"duration":0.16874999999998863},{"name":"F#5","midi":78,"time":379.31249999999994,"velocity":0.7480314960629921,"duration":0.16874999999998863},{"name":"A5","midi":81,"time":379.31249999999994,"velocity":0.7480314960629921,"duration":0.16874999999998863},{"name":"D4","midi":62,"time":379.31249999999994,"velocity":0.7480314960629921,"duration":0.16874999999998863},{"name":"A5","midi":81,"time":379.49999999999994,"velocity":0.7480314960629921,"duration":0.33749999999997726},{"name":"F#5","midi":78,"time":379.49999999999994,"velocity":0.7480314960629921,"duration":0.33749999999997726},{"name":"D5","midi":74,"time":379.49999999999994,"velocity":0.7480314960629921,"duration":0.33749999999997726},{"name":"A4","midi":69,"time":379.49999999999994,"velocity":0.7480314960629921,"duration":0.33749999999997726},{"name":"D4","midi":62,"time":379.49999999999994,"velocity":0.7480314960629921,"duration":0.33749999999997726},{"name":"D5","midi":74,"time":379.87499999999994,"velocity":0.7480314960629921,"duration":0.33749999999997726},{"name":"A5","midi":81,"time":379.87499999999994,"velocity":0.7480314960629921,"duration":0.33749999999997726},{"name":"F#5","midi":78,"time":379.87499999999994,"velocity":0.7480314960629921,"duration":0.33749999999997726},{"name":"A4","midi":69,"time":379.87499999999994,"velocity":0.7480314960629921,"duration":0.33749999999997726},{"name":"D4","midi":62,"time":379.87499999999994,"velocity":0.7480314960629921,"duration":0.33749999999997726},{"name":"A5","midi":81,"time":380.24999999999994,"velocity":0.7480314960629921,"duration":0.5062500000000227},{"name":"D4","midi":62,"time":380.24999999999994,"velocity":0.7480314960629921,"duration":0.5062500000000227},{"name":"F#5","midi":78,"time":380.24999999999994,"velocity":0.7480314960629921,"duration":0.5062500000000227},{"name":"D5","midi":74,"time":380.24999999999994,"velocity":0.7480314960629921,"duration":0.5062500000000227},{"name":"A4","midi":69,"time":380.24999999999994,"velocity":0.7480314960629921,"duration":0.5062500000000227},{"name":"D5","midi":74,"time":380.81249999999994,"velocity":0.7480314960629921,"duration":0.16874999999998863},{"name":"A5","midi":81,"time":380.81249999999994,"velocity":0.7480314960629921,"duration":0.16874999999998863},{"name":"F#5","midi":78,"time":380.81249999999994,"velocity":0.7480314960629921,"duration":0.16874999999998863},{"name":"A4","midi":69,"time":380.81249999999994,"velocity":0.7480314960629921,"duration":0.16874999999998863},{"name":"D4","midi":62,"time":380.81249999999994,"velocity":0.7480314960629921,"duration":0.16874999999998863},{"name":"F#5","midi":78,"time":380.99999999999994,"velocity":0.7480314960629921,"duration":0.33749999999997726},{"name":"C#5","midi":73,"time":380.99999999999994,"velocity":0.7480314960629921,"duration":0.33749999999997726},{"name":"A4","midi":69,"time":380.99999999999994,"velocity":0.7480314960629921,"duration":0.33749999999997726},{"name":"E4","midi":64,"time":380.99999999999994,"velocity":0.7480314960629921,"duration":0.33749999999997726},{"name":"A3","midi":57,"time":380.99999999999994,"velocity":0.7480314960629921,"duration":0.33749999999997726},{"name":"E4","midi":64,"time":381.37499999999994,"velocity":0.7480314960629921,"duration":0.33749999999997726},{"name":"A3","midi":57,"time":381.37499999999994,"velocity":0.7480314960629921,"duration":0.33749999999997726},{"name":"A4","midi":69,"time":381.37499999999994,"velocity":0.7480314960629921,"duration":0.33749999999997726},{"name":"C#5","midi":73,"time":381.37499999999994,"velocity":0.7480314960629921,"duration":0.33749999999997726},{"name":"F#5","midi":78,"time":381.37499999999994,"velocity":0.7480314960629921,"duration":0.33749999999997726},{"name":"A3","midi":57,"time":381.74999999999994,"velocity":0.7480314960629921,"duration":0.5062500000000227},{"name":"E4","midi":64,"time":381.74999999999994,"velocity":0.7480314960629921,"duration":0.5062500000000227},{"name":"A4","midi":69,"time":381.74999999999994,"velocity":0.7480314960629921,"duration":0.5062500000000227},{"name":"C#5","midi":73,"time":381.74999999999994,"velocity":0.7480314960629921,"duration":0.5062500000000227},{"name":"E5","midi":76,"time":381.74999999999994,"velocity":0.7480314960629921,"duration":0.5062500000000227},{"name":"E5","midi":76,"time":382.31249999999994,"velocity":0.7480314960629921,"duration":0.16874999999998863},{"name":"C#5","midi":73,"time":382.31249999999994,"velocity":0.7480314960629921,"duration":0.16874999999998863},{"name":"A4","midi":69,"time":382.31249999999994,"velocity":0.7480314960629921,"duration":0.16874999999998863},{"name":"E4","midi":64,"time":382.31249999999994,"velocity":0.7480314960629921,"duration":0.16874999999998863},{"name":"A3","midi":57,"time":382.31249999999994,"velocity":0.7480314960629921,"duration":0.16874999999998863},{"name":"E4","midi":64,"time":382.49999999999994,"velocity":0.7480314960629921,"duration":0.33749999999997726},{"name":"C#5","midi":73,"time":382.49999999999994,"velocity":0.7480314960629921,"duration":0.33749999999997726},{"name":"F#5","midi":78,"time":382.49999999999994,"velocity":0.7480314960629921,"duration":0.33749999999997726},{"name":"A4","midi":69,"time":382.49999999999994,"velocity":0.7480314960629921,"duration":0.33749999999997726},{"name":"A3","midi":57,"time":382.49999999999994,"velocity":0.7480314960629921,"duration":0.33749999999997726},{"name":"A4","midi":69,"time":382.87499999999994,"velocity":0.7480314960629921,"duration":0.33749999999997726},{"name":"C#5","midi":73,"time":382.87499999999994,"velocity":0.7480314960629921,"duration":0.33749999999997726},{"name":"F#5","midi":78,"time":382.87499999999994,"velocity":0.7480314960629921,"duration":0.33749999999997726},{"name":"A3","midi":57,"time":382.87499999999994,"velocity":0.7480314960629921,"duration":0.33749999999997726},{"name":"E4","midi":64,"time":382.87499999999994,"velocity":0.7480314960629921,"duration":0.33749999999997726},{"name":"E4","midi":64,"time":383.24999999999994,"velocity":0.7480314960629921,"duration":0.5062500000000227},{"name":"A4","midi":69,"time":383.24999999999994,"velocity":0.7480314960629921,"duration":0.5062500000000227},{"name":"C#5","midi":73,"time":383.24999999999994,"velocity":0.7480314960629921,"duration":0.5062500000000227},{"name":"E5","midi":76,"time":383.24999999999994,"velocity":0.7480314960629921,"duration":0.5062500000000227},{"name":"A3","midi":57,"time":383.24999999999994,"velocity":0.7480314960629921,"duration":0.5062500000000227},{"name":"A3","midi":57,"time":383.81249999999994,"velocity":0.7480314960629921,"duration":0.16874999999998863},{"name":"E5","midi":76,"time":383.81249999999994,"velocity":0.7480314960629921,"duration":0.16874999999998863},{"name":"C#5","midi":73,"time":383.81249999999994,"velocity":0.7480314960629921,"duration":0.16874999999998863},{"name":"A4","midi":69,"time":383.81249999999994,"velocity":0.7480314960629921,"duration":0.16874999999998863},{"name":"E4","midi":64,"time":383.81249999999994,"velocity":0.7480314960629921,"duration":0.16874999999998863},{"name":"F#5","midi":78,"time":383.99999999999994,"velocity":0.7480314960629921,"duration":0.33749999999997726},{"name":"C#5","midi":73,"time":383.99999999999994,"velocity":0.7480314960629921,"duration":0.33749999999997726},{"name":"A4","midi":69,"time":383.99999999999994,"velocity":0.7480314960629921,"duration":0.33749999999997726},{"name":"A3","midi":57,"time":383.99999999999994,"velocity":0.7480314960629921,"duration":0.33749999999997726},{"name":"E4","midi":64,"time":383.99999999999994,"velocity":0.7480314960629921,"duration":0.33749999999997726},{"name":"F#5","midi":78,"time":384.37499999999994,"velocity":0.7480314960629921,"duration":0.33749999999997726},{"name":"C#5","midi":73,"time":384.37499999999994,"velocity":0.7480314960629921,"duration":0.33749999999997726},{"name":"A4","midi":69,"time":384.37499999999994,"velocity":0.7480314960629921,"duration":0.33749999999997726},{"name":"A3","midi":57,"time":384.37499999999994,"velocity":0.7480314960629921,"duration":0.33749999999997726},{"name":"E4","midi":64,"time":384.37499999999994,"velocity":0.7480314960629921,"duration":0.33749999999997726},{"name":"A3","midi":57,"time":384.74999999999994,"velocity":0.7480314960629921,"duration":0.5062500000000227},{"name":"E4","midi":64,"time":384.74999999999994,"velocity":0.7480314960629921,"duration":0.5062500000000227},{"name":"A4","midi":69,"time":384.74999999999994,"velocity":0.7480314960629921,"duration":0.5062500000000227},{"name":"C#5","midi":73,"time":384.74999999999994,"velocity":0.7480314960629921,"duration":0.5062500000000227},{"name":"E5","midi":76,"time":384.74999999999994,"velocity":0.7480314960629921,"duration":0.5062500000000227},{"name":"A4","midi":69,"time":385.31249999999994,"velocity":0.7480314960629921,"duration":0.16874999999998863},{"name":"A3","midi":57,"time":385.31249999999994,"velocity":0.7480314960629921,"duration":0.16874999999998863},{"name":"E5","midi":76,"time":385.31249999999994,"velocity":0.7480314960629921,"duration":0.16874999999998863},{"name":"C#5","midi":73,"time":385.31249999999994,"velocity":0.7480314960629921,"duration":0.16874999999998863},{"name":"E4","midi":64,"time":385.31249999999994,"velocity":0.7480314960629921,"duration":0.16874999999998863},{"name":"F#5","midi":78,"time":385.49999999999994,"velocity":0.7480314960629921,"duration":0.33749999999997726},{"name":"C#5","midi":73,"time":385.49999999999994,"velocity":0.7480314960629921,"duration":0.33749999999997726},{"name":"A4","midi":69,"time":385.49999999999994,"velocity":0.7480314960629921,"duration":0.33749999999997726},{"name":"E4","midi":64,"time":385.49999999999994,"velocity":0.7480314960629921,"duration":0.33749999999997726},{"name":"A3","midi":57,"time":385.49999999999994,"velocity":0.7480314960629921,"duration":0.33749999999997726},{"name":"F#5","midi":78,"time":385.87499999999994,"velocity":0.7480314960629921,"duration":0.33749999999997726},{"name":"C#5","midi":73,"time":385.87499999999994,"velocity":0.7480314960629921,"duration":0.33749999999997726},{"name":"A4","midi":69,"time":385.87499999999994,"velocity":0.7480314960629921,"duration":0.33749999999997726},{"name":"E4","midi":64,"time":385.87499999999994,"velocity":0.7480314960629921,"duration":0.33749999999997726},{"name":"A3","midi":57,"time":385.87499999999994,"velocity":0.7480314960629921,"duration":0.33749999999997726},{"name":"E4","midi":64,"time":386.24999999999994,"velocity":0.7480314960629921,"duration":0.5062500000000227},{"name":"A4","midi":69,"time":386.24999999999994,"velocity":0.7480314960629921,"duration":0.5062500000000227},{"name":"C#5","midi":73,"time":386.24999999999994,"velocity":0.7480314960629921,"duration":0.5062500000000227},{"name":"E5","midi":76,"time":386.24999999999994,"velocity":0.7480314960629921,"duration":0.5062500000000227},{"name":"A3","midi":57,"time":386.24999999999994,"velocity":0.7480314960629921,"duration":0.5062500000000227},{"name":"E4","midi":64,"time":386.81249999999994,"velocity":0.7480314960629921,"duration":0.16874999999998863},{"name":"C#5","midi":73,"time":386.81249999999994,"velocity":0.7480314960629921,"duration":0.16874999999998863},{"name":"E5","midi":76,"time":386.81249999999994,"velocity":0.7480314960629921,"duration":0.16874999999998863},{"name":"A3","midi":57,"time":386.81249999999994,"velocity":0.7480314960629921,"duration":0.16874999999998863},{"name":"A4","midi":69,"time":386.81249999999994,"velocity":0.7480314960629921,"duration":0.16874999999998863},{"name":"A4","midi":69,"time":386.99999999999994,"velocity":0.7480314960629921,"duration":0.33749999999997726},{"name":"D5","midi":74,"time":386.99999999999994,"velocity":0.7480314960629921,"duration":0.33749999999997726},{"name":"F#5","midi":78,"time":386.99999999999994,"velocity":0.7480314960629921,"duration":0.33749999999997726},{"name":"D4","midi":62,"time":386.99999999999994,"velocity":0.7480314960629921,"duration":0.33749999999997726},{"name":"D5","midi":74,"time":387.37499999999994,"velocity":0.7480314960629921,"duration":0.33749999999997726},{"name":"D4","midi":62,"time":387.37499999999994,"velocity":0.7480314960629921,"duration":0.33749999999997726},{"name":"A4","midi":69,"time":387.37499999999994,"velocity":0.7480314960629921,"duration":0.33749999999997726},{"name":"F#5","midi":78,"time":387.37499999999994,"velocity":0.7480314960629921,"duration":0.33749999999997726},{"name":"E5","midi":76,"time":387.74999999999994,"velocity":0.7480314960629921,"duration":0.5062500000000227},{"name":"A4","midi":69,"time":387.74999999999994,"velocity":0.7480314960629921,"duration":0.5062500000000227},{"name":"D4","midi":62,"time":387.74999999999994,"velocity":0.7480314960629921,"duration":0.5062500000000227},{"name":"D5","midi":74,"time":387.74999999999994,"velocity":0.7480314960629921,"duration":0.5062500000000227},{"name":"E5","midi":76,"time":388.31249999999994,"velocity":0.7480314960629921,"duration":0.16874999999998863},{"name":"D5","midi":74,"time":388.31249999999994,"velocity":0.7480314960629921,"duration":0.16874999999998863},{"name":"A4","midi":69,"time":388.31249999999994,"velocity":0.7480314960629921,"duration":0.16874999999998863},{"name":"D4","midi":62,"time":388.31249999999994,"velocity":0.7480314960629921,"duration":0.16874999999998863},{"name":"D5","midi":74,"time":388.49999999999994,"velocity":0.7480314960629921,"duration":0.33749999999997726},{"name":"A4","midi":69,"time":388.49999999999994,"velocity":0.7480314960629921,"duration":0.33749999999997726},{"name":"D4","midi":62,"time":388.49999999999994,"velocity":0.7480314960629921,"duration":0.33749999999997726},{"name":"F#5","midi":78,"time":388.49999999999994,"velocity":0.7480314960629921,"duration":0.33749999999997726},{"name":"D5","midi":74,"time":388.87499999999994,"velocity":0.7480314960629921,"duration":0.33749999999997726},{"name":"F#5","midi":78,"time":388.87499999999994,"velocity":0.7480314960629921,"duration":0.33749999999997726},{"name":"A4","midi":69,"time":388.87499999999994,"velocity":0.7480314960629921,"duration":0.33749999999997726},{"name":"D4","midi":62,"time":388.87499999999994,"velocity":0.7480314960629921,"duration":0.33749999999997726},{"name":"D4","midi":62,"time":389.24999999999994,"velocity":0.7480314960629921,"duration":0.5062500000000227},{"name":"A4","midi":69,"time":389.24999999999994,"velocity":0.7480314960629921,"duration":0.5062500000000227},{"name":"D5","midi":74,"time":389.24999999999994,"velocity":0.7480314960629921,"duration":0.5062500000000227},{"name":"E5","midi":76,"time":389.24999999999994,"velocity":0.7480314960629921,"duration":0.5062500000000227},{"name":"D5","midi":74,"time":389.81249999999994,"velocity":0.7480314960629921,"duration":0.16874999999998863},{"name":"A4","midi":69,"time":389.81249999999994,"velocity":0.7480314960629921,"duration":0.16874999999998863},{"name":"D4","midi":62,"time":389.81249999999994,"velocity":0.7480314960629921,"duration":0.16874999999998863},{"name":"E5","midi":76,"time":389.81249999999994,"velocity":0.7480314960629921,"duration":0.16874999999998863},{"name":"D4","midi":62,"time":389.99999999999994,"velocity":0.7480314960629921,"duration":0.33749999999997726},{"name":"E5","midi":76,"time":389.99999999999994,"velocity":0.7480314960629921,"duration":0.33749999999997726},{"name":"D5","midi":74,"time":389.99999999999994,"velocity":0.7480314960629921,"duration":0.33749999999997726},{"name":"A4","midi":69,"time":389.99999999999994,"velocity":0.7480314960629921,"duration":0.33749999999997726},{"name":"A4","midi":69,"time":390.37499999999994,"velocity":0.7480314960629921,"duration":0.33749999999997726},{"name":"D5","midi":74,"time":390.37499999999994,"velocity":0.7480314960629921,"duration":0.33749999999997726},{"name":"E5","midi":76,"time":390.37499999999994,"velocity":0.7480314960629921,"duration":0.33749999999997726},{"name":"D4","midi":62,"time":390.37499999999994,"velocity":0.7480314960629921,"duration":0.33749999999997726},{"name":"D5","midi":74,"time":390.74999999999994,"velocity":0.7480314960629921,"duration":0.5062500000000227},{"name":"A4","midi":69,"time":390.74999999999994,"velocity":0.7480314960629921,"duration":0.5062500000000227},{"name":"D4","midi":62,"time":390.74999999999994,"velocity":0.7480314960629921,"duration":0.5062500000000227},{"name":"E5","midi":76,"time":390.74999999999994,"velocity":0.7480314960629921,"duration":0.5062500000000227},{"name":"D4","midi":62,"time":391.31249999999994,"velocity":0.7480314960629921,"duration":0.16874999999998863},{"name":"A4","midi":69,"time":391.31249999999994,"velocity":0.7480314960629921,"duration":0.16874999999998863},{"name":"D5","midi":74,"time":391.31249999999994,"velocity":0.7480314960629921,"duration":0.16874999999998863},{"name":"E5","midi":76,"time":391.31249999999994,"velocity":0.7480314960629921,"duration":0.16874999999998863},{"name":"D5","midi":74,"time":391.49999999999994,"velocity":0.7480314960629921,"duration":0.33749999999997726},{"name":"F#5","midi":78,"time":391.49999999999994,"velocity":0.7480314960629921,"duration":0.33749999999997726},{"name":"D4","midi":62,"time":391.49999999999994,"velocity":0.7480314960629921,"duration":0.33749999999997726},{"name":"A4","midi":69,"time":391.49999999999994,"velocity":0.7480314960629921,"duration":0.33749999999997726},{"name":"D4","midi":62,"time":391.87499999999994,"velocity":0.7480314960629921,"duration":0.33749999999997726},{"name":"A4","midi":69,"time":391.87499999999994,"velocity":0.7480314960629921,"duration":0.33749999999997726},{"name":"D5","midi":74,"time":391.87499999999994,"velocity":0.7480314960629921,"duration":0.33749999999997726},{"name":"F#5","midi":78,"time":391.87499999999994,"velocity":0.7480314960629921,"duration":0.33749999999997726},{"name":"D4","midi":62,"time":392.24999999999994,"velocity":0.7480314960629921,"duration":0.5062500000000227},{"name":"A4","midi":69,"time":392.24999999999994,"velocity":0.7480314960629921,"duration":0.5062500000000227},{"name":"D5","midi":74,"time":392.24999999999994,"velocity":0.7480314960629921,"duration":0.5062500000000227},{"name":"E5","midi":76,"time":392.24999999999994,"velocity":0.7480314960629921,"duration":0.5062500000000227},{"name":"E5","midi":76,"time":392.81249999999994,"velocity":0.7480314960629921,"duration":0.16874999999998863},{"name":"D5","midi":74,"time":392.81249999999994,"velocity":0.7480314960629921,"duration":0.16874999999998863},{"name":"A4","midi":69,"time":392.81249999999994,"velocity":0.7480314960629921,"duration":0.16874999999998863},{"name":"D4","midi":62,"time":392.81249999999994,"velocity":0.7480314960629921,"duration":0.16874999999998863},{"name":"A4","midi":69,"time":392.99999999999994,"velocity":0.7480314960629921,"duration":0.33749999999997726},{"name":"D4","midi":62,"time":392.99999999999994,"velocity":0.7480314960629921,"duration":0.33749999999997726},{"name":"F#5","midi":78,"time":392.99999999999994,"velocity":0.7480314960629921,"duration":0.33749999999997726},{"name":"D5","midi":74,"time":392.99999999999994,"velocity":0.7480314960629921,"duration":0.33749999999997726},{"name":"F#5","midi":78,"time":393.37499999999994,"velocity":0.7480314960629921,"duration":0.33749999999997726},{"name":"D4","midi":62,"time":393.37499999999994,"velocity":0.7480314960629921,"duration":0.33749999999997726},{"name":"A4","midi":69,"time":393.37499999999994,"velocity":0.7480314960629921,"duration":0.33749999999997726},{"name":"D5","midi":74,"time":393.37499999999994,"velocity":0.7480314960629921,"duration":0.33749999999997726},{"name":"E5","midi":76,"time":393.74999999999994,"velocity":0.7480314960629921,"duration":0.5062500000000227},{"name":"D5","midi":74,"time":393.74999999999994,"velocity":0.7480314960629921,"duration":0.5062500000000227},{"name":"A4","midi":69,"time":393.74999999999994,"velocity":0.7480314960629921,"duration":0.5062500000000227},{"name":"D4","midi":62,"time":393.74999999999994,"velocity":0.7480314960629921,"duration":0.5062500000000227},{"name":"E5","midi":76,"time":394.31249999999994,"velocity":0.7480314960629921,"duration":0.16874999999998863},{"name":"D4","midi":62,"time":394.31249999999994,"velocity":0.7480314960629921,"duration":0.16874999999998863},{"name":"A4","midi":69,"time":394.31249999999994,"velocity":0.7480314960629921,"duration":0.16874999999998863},{"name":"D5","midi":74,"time":394.31249999999994,"velocity":0.7480314960629921,"duration":0.16874999999998863},{"name":"F#5","midi":78,"time":394.49999999999994,"velocity":0.7480314960629921,"duration":0.33749999999997726},{"name":"D5","midi":74,"time":394.49999999999994,"velocity":0.7480314960629921,"duration":0.33749999999997726},{"name":"A4","midi":69,"time":394.49999999999994,"velocity":0.7480314960629921,"duration":0.33749999999997726},{"name":"D4","midi":62,"time":394.49999999999994,"velocity":0.7480314960629921,"duration":0.33749999999997726},{"name":"A4","midi":69,"time":394.87499999999994,"velocity":0.7480314960629921,"duration":0.33749999999997726},{"name":"D5","midi":74,"time":394.87499999999994,"velocity":0.7480314960629921,"duration":0.33749999999997726},{"name":"F#5","midi":78,"time":394.87499999999994,"velocity":0.7480314960629921,"duration":0.33749999999997726},{"name":"D4","midi":62,"time":394.87499999999994,"velocity":0.7480314960629921,"duration":0.33749999999997726},{"name":"E5","midi":76,"time":395.24999999999994,"velocity":0.7480314960629921,"duration":0.5062500000000227},{"name":"D5","midi":74,"time":395.24999999999994,"velocity":0.7480314960629921,"duration":0.5062500000000227},{"name":"A4","midi":69,"time":395.24999999999994,"velocity":0.7480314960629921,"duration":0.5062500000000227},{"name":"D4","midi":62,"time":395.24999999999994,"velocity":0.7480314960629921,"duration":0.5062500000000227},{"name":"E5","midi":76,"time":395.81249999999994,"velocity":0.7480314960629921,"duration":0.16874999999998863},{"name":"D5","midi":74,"time":395.81249999999994,"velocity":0.7480314960629921,"duration":0.16874999999998863},{"name":"A4","midi":69,"time":395.81249999999994,"velocity":0.7480314960629921,"duration":0.16874999999998863},{"name":"D4","midi":62,"time":395.81249999999994,"velocity":0.7480314960629921,"duration":0.16874999999998863},{"name":"D4","midi":62,"time":395.99999999999994,"velocity":0.7480314960629921,"duration":0.33749999999997726},{"name":"D5","midi":74,"time":395.99999999999994,"velocity":0.7480314960629921,"duration":0.33749999999997726},{"name":"A4","midi":69,"time":395.99999999999994,"velocity":0.7480314960629921,"duration":0.33749999999997726},{"name":"E5","midi":76,"time":395.99999999999994,"velocity":0.7480314960629921,"duration":0.33749999999997726},{"name":"D5","midi":74,"time":396.37499999999994,"velocity":0.7480314960629921,"duration":0.33749999999997726},{"name":"A4","midi":69,"time":396.37499999999994,"velocity":0.7480314960629921,"duration":0.33749999999997726},{"name":"D4","midi":62,"time":396.37499999999994,"velocity":0.7480314960629921,"duration":0.33749999999997726},{"name":"E5","midi":76,"time":396.37499999999994,"velocity":0.7480314960629921,"duration":0.33749999999997726},{"name":"A4","midi":69,"time":396.74999999999994,"velocity":0.7480314960629921,"duration":0.5062500000000227},{"name":"E5","midi":76,"time":396.74999999999994,"velocity":0.7480314960629921,"duration":0.5062500000000227},{"name":"D5","midi":74,"time":396.74999999999994,"velocity":0.7480314960629921,"duration":0.5062500000000227},{"name":"D4","midi":62,"time":396.74999999999994,"velocity":0.7480314960629921,"duration":0.5062500000000227},{"name":"D5","midi":74,"time":397.31249999999994,"velocity":0.7480314960629921,"duration":0.16874999999998863},{"name":"D4","midi":62,"time":397.31249999999994,"velocity":0.7480314960629921,"duration":0.16874999999998863},{"name":"A4","midi":69,"time":397.31249999999994,"velocity":0.7480314960629921,"duration":0.16874999999998863},{"name":"E5","midi":76,"time":397.31249999999994,"velocity":0.7480314960629921,"duration":0.16874999999998863},{"name":"A4","midi":69,"time":397.49999999999994,"velocity":0.7480314960629921,"duration":0.33749999999997726},{"name":"D4","midi":62,"time":397.49999999999994,"velocity":0.7480314960629921,"duration":0.33749999999997726},{"name":"D5","midi":74,"time":397.49999999999994,"velocity":0.7480314960629921,"duration":0.33749999999997726},{"name":"F#5","midi":78,"time":397.49999999999994,"velocity":0.7480314960629921,"duration":0.33749999999997726},{"name":"F#5","midi":78,"time":397.87499999999994,"velocity":0.7480314960629921,"duration":0.33749999999997726},{"name":"D5","midi":74,"time":397.87499999999994,"velocity":0.7480314960629921,"duration":0.33749999999997726},{"name":"A4","midi":69,"time":397.87499999999994,"velocity":0.7480314960629921,"duration":0.33749999999997726},{"name":"D4","midi":62,"time":397.87499999999994,"velocity":0.7480314960629921,"duration":0.33749999999997726},{"name":"D5","midi":74,"time":398.24999999999994,"velocity":0.7480314960629921,"duration":0.5062500000000227},{"name":"A4","midi":69,"time":398.24999999999994,"velocity":0.7480314960629921,"duration":0.5062500000000227},{"name":"D4","midi":62,"time":398.24999999999994,"velocity":0.7480314960629921,"duration":0.5062500000000227},{"name":"E5","midi":76,"time":398.24999999999994,"velocity":0.7480314960629921,"duration":0.5062500000000227},{"name":"D4","midi":62,"time":398.81249999999994,"velocity":0.7480314960629921,"duration":0.16874999999998863},{"name":"A4","midi":69,"time":398.81249999999994,"velocity":0.7480314960629921,"duration":0.16874999999998863},{"name":"D5","midi":74,"time":398.81249999999994,"velocity":0.7480314960629921,"duration":0.16874999999998863},{"name":"E5","midi":76,"time":398.81249999999994,"velocity":0.7480314960629921,"duration":0.16874999999998863},{"name":"A5","midi":81,"time":398.99999999999994,"velocity":0.7480314960629921,"duration":0.33749999999997726},{"name":"F#5","midi":78,"time":398.99999999999994,"velocity":0.7480314960629921,"duration":0.33749999999997726},{"name":"D5","midi":74,"time":398.99999999999994,"velocity":0.7480314960629921,"duration":0.33749999999997726},{"name":"A4","midi":69,"time":398.99999999999994,"velocity":0.7480314960629921,"duration":0.33749999999997726},{"name":"D4","midi":62,"time":398.99999999999994,"velocity":0.7480314960629921,"duration":0.33749999999997726},{"name":"A5","midi":81,"time":399.37499999999994,"velocity":0.7480314960629921,"duration":0.33749999999997726},{"name":"F#5","midi":78,"time":399.37499999999994,"velocity":0.7480314960629921,"duration":0.33749999999997726},{"name":"D5","midi":74,"time":399.37499999999994,"velocity":0.7480314960629921,"duration":0.33749999999997726},{"name":"A4","midi":69,"time":399.37499999999994,"velocity":0.7480314960629921,"duration":0.33749999999997726},{"name":"D4","midi":62,"time":399.37499999999994,"velocity":0.7480314960629921,"duration":0.33749999999997726},{"name":"D5","midi":74,"time":399.74999999999994,"velocity":0.7480314960629921,"duration":0.5062500000000227},{"name":"A4","midi":69,"time":399.74999999999994,"velocity":0.7480314960629921,"duration":0.5062500000000227},{"name":"D4","midi":62,"time":399.74999999999994,"velocity":0.7480314960629921,"duration":0.5062500000000227},{"name":"A5","midi":81,"time":399.74999999999994,"velocity":0.7480314960629921,"duration":0.5062500000000227},{"name":"F#5","midi":78,"time":399.74999999999994,"velocity":0.7480314960629921,"duration":0.5062500000000227},{"name":"D4","midi":62,"time":400.31249999999994,"velocity":0.7480314960629921,"duration":0.16874999999998863},{"name":"A4","midi":69,"time":400.31249999999994,"velocity":0.7480314960629921,"duration":0.16874999999998863},{"name":"D5","midi":74,"time":400.31249999999994,"velocity":0.7480314960629921,"duration":0.16874999999998863},{"name":"F#5","midi":78,"time":400.31249999999994,"velocity":0.7480314960629921,"duration":0.16874999999998863},{"name":"A5","midi":81,"time":400.31249999999994,"velocity":0.7480314960629921,"duration":0.16874999999998863},{"name":"F#5","midi":78,"time":400.49999999999994,"velocity":0.7480314960629921,"duration":0.33749999999997726},{"name":"A5","midi":81,"time":400.49999999999994,"velocity":0.7480314960629921,"duration":0.33749999999997726},{"name":"A4","midi":69,"time":400.49999999999994,"velocity":0.7480314960629921,"duration":0.33749999999997726},{"name":"D4","midi":62,"time":400.49999999999994,"velocity":0.7480314960629921,"duration":0.33749999999997726},{"name":"D5","midi":74,"time":400.49999999999994,"velocity":0.7480314960629921,"duration":0.33749999999997726},{"name":"F#5","midi":78,"time":400.87499999999994,"velocity":0.7480314960629921,"duration":0.33749999999997726},{"name":"A5","midi":81,"time":400.87499999999994,"velocity":0.7480314960629921,"duration":0.33749999999997726},{"name":"D5","midi":74,"time":400.87499999999994,"velocity":0.7480314960629921,"duration":0.33749999999997726},{"name":"A4","midi":69,"time":400.87499999999994,"velocity":0.7480314960629921,"duration":0.33749999999997726},{"name":"D4","midi":62,"time":400.87499999999994,"velocity":0.7480314960629921,"duration":0.33749999999997726},{"name":"A5","midi":81,"time":401.24999999999994,"velocity":0.7480314960629921,"duration":0.5062500000000227},{"name":"F#5","midi":78,"time":401.24999999999994,"velocity":0.7480314960629921,"duration":0.5062500000000227},{"name":"D5","midi":74,"time":401.24999999999994,"velocity":0.7480314960629921,"duration":0.5062500000000227},{"name":"A4","midi":69,"time":401.24999999999994,"velocity":0.7480314960629921,"duration":0.5062500000000227},{"name":"D4","midi":62,"time":401.24999999999994,"velocity":0.7480314960629921,"duration":0.5062500000000227},{"name":"D4","midi":62,"time":401.81249999999994,"velocity":0.7480314960629921,"duration":0.16874999999998863},{"name":"A4","midi":69,"time":401.81249999999994,"velocity":0.7480314960629921,"duration":0.16874999999998863},{"name":"D5","midi":74,"time":401.81249999999994,"velocity":0.7480314960629921,"duration":0.16874999999998863},{"name":"F#5","midi":78,"time":401.81249999999994,"velocity":0.7480314960629921,"duration":0.16874999999998863},{"name":"A5","midi":81,"time":401.81249999999994,"velocity":0.7480314960629921,"duration":0.16874999999998863},{"name":"D4","midi":62,"time":401.99999999999994,"velocity":0.7480314960629921,"duration":0.33749999999997726},{"name":"A5","midi":81,"time":401.99999999999994,"velocity":0.7480314960629921,"duration":0.33749999999997726},{"name":"F#5","midi":78,"time":401.99999999999994,"velocity":0.7480314960629921,"duration":0.33749999999997726},{"name":"D5","midi":74,"time":401.99999999999994,"velocity":0.7480314960629921,"duration":0.33749999999997726},{"name":"A4","midi":69,"time":401.99999999999994,"velocity":0.7480314960629921,"duration":0.33749999999997726},{"name":"A4","midi":69,"time":402.37499999999994,"velocity":0.7480314960629921,"duration":0.33749999999997726},{"name":"F#5","midi":78,"time":402.37499999999994,"velocity":0.7480314960629921,"duration":0.33749999999997726},{"name":"A5","midi":81,"time":402.37499999999994,"velocity":0.7480314960629921,"duration":0.33749999999997726},{"name":"D4","midi":62,"time":402.37499999999994,"velocity":0.7480314960629921,"duration":0.33749999999997726},{"name":"D5","midi":74,"time":402.37499999999994,"velocity":0.7480314960629921,"duration":0.33749999999997726},{"name":"A4","midi":69,"time":402.74999999999994,"velocity":0.7480314960629921,"duration":0.5062500000000227},{"name":"D5","midi":74,"time":402.74999999999994,"velocity":0.7480314960629921,"duration":0.5062500000000227},{"name":"F#5","midi":78,"time":402.74999999999994,"velocity":0.7480314960629921,"duration":0.5062500000000227},{"name":"A5","midi":81,"time":402.74999999999994,"velocity":0.7480314960629921,"duration":0.5062500000000227},{"name":"D4","midi":62,"time":402.74999999999994,"velocity":0.7480314960629921,"duration":0.5062500000000227},{"name":"D5","midi":74,"time":403.31249999999994,"velocity":0.7480314960629921,"duration":0.16874999999998863},{"name":"A5","midi":81,"time":403.31249999999994,"velocity":0.7480314960629921,"duration":0.16874999999998863},{"name":"A4","midi":69,"time":403.31249999999994,"velocity":0.7480314960629921,"duration":0.16874999999998863},{"name":"F#5","midi":78,"time":403.31249999999994,"velocity":0.7480314960629921,"duration":0.16874999999998863},{"name":"D4","midi":62,"time":403.31249999999994,"velocity":0.7480314960629921,"duration":0.16874999999998863},{"name":"A5","midi":81,"time":403.49999999999994,"velocity":0.7480314960629921,"duration":0.33749999999997726},{"name":"F#5","midi":78,"time":403.49999999999994,"velocity":0.7480314960629921,"duration":0.33749999999997726},{"name":"D5","midi":74,"time":403.49999999999994,"velocity":0.7480314960629921,"duration":0.33749999999997726},{"name":"A4","midi":69,"time":403.49999999999994,"velocity":0.7480314960629921,"duration":0.33749999999997726},{"name":"D4","midi":62,"time":403.49999999999994,"velocity":0.7480314960629921,"duration":0.33749999999997726},{"name":"A4","midi":69,"time":403.87499999999994,"velocity":0.7480314960629921,"duration":0.33749999999997726},{"name":"D5","midi":74,"time":403.87499999999994,"velocity":0.7480314960629921,"duration":0.33749999999997726},{"name":"F#5","midi":78,"time":403.87499999999994,"velocity":0.7480314960629921,"duration":0.33749999999997726},{"name":"A5","midi":81,"time":403.87499999999994,"velocity":0.7480314960629921,"duration":0.33749999999997726},{"name":"D4","midi":62,"time":403.87499999999994,"velocity":0.7480314960629921,"duration":0.33749999999997726},{"name":"D5","midi":74,"time":404.24999999999994,"velocity":0.7480314960629921,"duration":0.5062500000000227},{"name":"D4","midi":62,"time":404.24999999999994,"velocity":0.7480314960629921,"duration":0.5062500000000227},{"name":"A4","midi":69,"time":404.24999999999994,"velocity":0.7480314960629921,"duration":0.5062500000000227},{"name":"A5","midi":81,"time":404.24999999999994,"velocity":0.7480314960629921,"duration":0.5062500000000227},{"name":"F#5","midi":78,"time":404.24999999999994,"velocity":0.7480314960629921,"duration":0.5062500000000227},{"name":"D4","midi":62,"time":404.81249999999994,"velocity":0.7480314960629921,"duration":0.16874999999998863},{"name":"F#5","midi":78,"time":404.81249999999994,"velocity":0.7480314960629921,"duration":0.16874999999998863},{"name":"D5","midi":74,"time":404.81249999999994,"velocity":0.7480314960629921,"duration":0.16874999999998863},{"name":"A5","midi":81,"time":404.81249999999994,"velocity":0.7480314960629921,"duration":0.16874999999998863},{"name":"A4","midi":69,"time":404.81249999999994,"velocity":0.7480314960629921,"duration":0.16874999999998863},{"name":"E4","midi":64,"time":404.99999999999994,"velocity":0.7480314960629921,"duration":0.33749999999997726},{"name":"A4","midi":69,"time":404.99999999999994,"velocity":0.7480314960629921,"duration":0.33749999999997726},{"name":"C#5","midi":73,"time":404.99999999999994,"velocity":0.7480314960629921,"duration":0.33749999999997726},{"name":"F#5","midi":78,"time":404.99999999999994,"velocity":0.7480314960629921,"duration":0.33749999999997726},{"name":"A3","midi":57,"time":404.99999999999994,"velocity":0.7480314960629921,"duration":0.33749999999997726},{"name":"A3","midi":57,"time":405.37499999999994,"velocity":0.7480314960629921,"duration":0.33749999999997726},{"name":"E4","midi":64,"time":405.37499999999994,"velocity":0.7480314960629921,"duration":0.33749999999997726},{"name":"A4","midi":69,"time":405.37499999999994,"velocity":0.7480314960629921,"duration":0.33749999999997726},{"name":"C#5","midi":73,"time":405.37499999999994,"velocity":0.7480314960629921,"duration":0.33749999999997726},{"name":"F#5","midi":78,"time":405.37499999999994,"velocity":0.7480314960629921,"duration":0.33749999999997726},{"name":"A3","midi":57,"time":405.74999999999994,"velocity":0.7480314960629921,"duration":0.5062500000000227},{"name":"E4","midi":64,"time":405.74999999999994,"velocity":0.7480314960629921,"duration":0.5062500000000227},{"name":"A4","midi":69,"time":405.74999999999994,"velocity":0.7480314960629921,"duration":0.5062500000000227},{"name":"C#5","midi":73,"time":405.74999999999994,"velocity":0.7480314960629921,"duration":0.5062500000000227},{"name":"E5","midi":76,"time":405.74999999999994,"velocity":0.7480314960629921,"duration":0.5062500000000227},{"name":"E5","midi":76,"time":406.31249999999994,"velocity":0.7480314960629921,"duration":0.16874999999998863},{"name":"C#5","midi":73,"time":406.31249999999994,"velocity":0.7480314960629921,"duration":0.16874999999998863},{"name":"A4","midi":69,"time":406.31249999999994,"velocity":0.7480314960629921,"duration":0.16874999999998863},{"name":"E4","midi":64,"time":406.31249999999994,"velocity":0.7480314960629921,"duration":0.16874999999998863},{"name":"A3","midi":57,"time":406.31249999999994,"velocity":0.7480314960629921,"duration":0.16874999999998863},{"name":"F#5","midi":78,"time":406.49999999999994,"velocity":0.7480314960629921,"duration":0.33749999999997726},{"name":"C#5","midi":73,"time":406.49999999999994,"velocity":0.7480314960629921,"duration":0.33749999999997726},{"name":"A4","midi":69,"time":406.49999999999994,"velocity":0.7480314960629921,"duration":0.33749999999997726},{"name":"E4","midi":64,"time":406.49999999999994,"velocity":0.7480314960629921,"duration":0.33749999999997726},{"name":"A3","midi":57,"time":406.49999999999994,"velocity":0.7480314960629921,"duration":0.33749999999997726},{"name":"F#5","midi":78,"time":406.87499999999994,"velocity":0.7480314960629921,"duration":0.33749999999997726},{"name":"C#5","midi":73,"time":406.87499999999994,"velocity":0.7480314960629921,"duration":0.33749999999997726},{"name":"E4","midi":64,"time":406.87499999999994,"velocity":0.7480314960629921,"duration":0.33749999999997726},{"name":"A3","midi":57,"time":406.87499999999994,"velocity":0.7480314960629921,"duration":0.33749999999997726},{"name":"A4","midi":69,"time":406.87499999999994,"velocity":0.7480314960629921,"duration":0.33749999999997726},{"name":"E4","midi":64,"time":407.24999999999994,"velocity":0.7480314960629921,"duration":0.5062500000000227},{"name":"A3","midi":57,"time":407.24999999999994,"velocity":0.7480314960629921,"duration":0.5062500000000227},{"name":"C#5","midi":73,"time":407.24999999999994,"velocity":0.7480314960629921,"duration":0.5062500000000227},{"name":"E5","midi":76,"time":407.24999999999994,"velocity":0.7480314960629921,"duration":0.5062500000000227},{"name":"A4","midi":69,"time":407.24999999999994,"velocity":0.7480314960629921,"duration":0.5062500000000227},{"name":"A3","midi":57,"time":407.81249999999994,"velocity":0.7480314960629921,"duration":0.16874999999998863},{"name":"E4","midi":64,"time":407.81249999999994,"velocity":0.7480314960629921,"duration":0.16874999999998863},{"name":"A4","midi":69,"time":407.81249999999994,"velocity":0.7480314960629921,"duration":0.16874999999998863},{"name":"C#5","midi":73,"time":407.81249999999994,"velocity":0.7480314960629921,"duration":0.16874999999998863},{"name":"E5","midi":76,"time":407.81249999999994,"velocity":0.7480314960629921,"duration":0.16874999999998863},{"name":"F#5","midi":78,"time":407.99999999999994,"velocity":0.7480314960629921,"duration":0.33749999999997726},{"name":"A4","midi":69,"time":407.99999999999994,"velocity":0.7480314960629921,"duration":0.33749999999997726},{"name":"E4","midi":64,"time":407.99999999999994,"velocity":0.7480314960629921,"duration":0.33749999999997726},{"name":"C#5","midi":73,"time":407.99999999999994,"velocity":0.7480314960629921,"duration":0.33749999999997726},{"name":"A3","midi":57,"time":407.99999999999994,"velocity":0.7480314960629921,"duration":0.33749999999997726},{"name":"E4","midi":64,"time":408.37499999999994,"velocity":0.7480314960629921,"duration":0.33749999999997726},{"name":"A4","midi":69,"time":408.37499999999994,"velocity":0.7480314960629921,"duration":0.33749999999997726},{"name":"A3","midi":57,"time":408.37499999999994,"velocity":0.7480314960629921,"duration":0.33749999999997726},{"name":"F#5","midi":78,"time":408.37499999999994,"velocity":0.7480314960629921,"duration":0.33749999999997726},{"name":"C#5","midi":73,"time":408.37499999999994,"velocity":0.7480314960629921,"duration":0.33749999999997726},{"name":"A3","midi":57,"time":408.74999999999994,"velocity":0.7480314960629921,"duration":0.5062500000000227},{"name":"E4","midi":64,"time":408.74999999999994,"velocity":0.7480314960629921,"duration":0.5062500000000227},{"name":"A4","midi":69,"time":408.74999999999994,"velocity":0.7480314960629921,"duration":0.5062500000000227},{"name":"C#5","midi":73,"time":408.74999999999994,"velocity":0.7480314960629921,"duration":0.5062500000000227},{"name":"E5","midi":76,"time":408.74999999999994,"velocity":0.7480314960629921,"duration":0.5062500000000227},{"name":"A3","midi":57,"time":409.31249999999994,"velocity":0.7480314960629921,"duration":0.16874999999998863},{"name":"E4","midi":64,"time":409.31249999999994,"velocity":0.7480314960629921,"duration":0.16874999999998863},{"name":"A4","midi":69,"time":409.31249999999994,"velocity":0.7480314960629921,"duration":0.16874999999998863},{"name":"E5","midi":76,"time":409.31249999999994,"velocity":0.7480314960629921,"duration":0.16874999999998863},{"name":"C#5","midi":73,"time":409.31249999999994,"velocity":0.7480314960629921,"duration":0.16874999999998863},{"name":"A3","midi":57,"time":409.49999999999994,"velocity":0.7480314960629921,"duration":0.33749999999997726},{"name":"E4","midi":64,"time":409.49999999999994,"velocity":0.7480314960629921,"duration":0.33749999999997726},{"name":"A4","midi":69,"time":409.49999999999994,"velocity":0.7480314960629921,"duration":0.33749999999997726},{"name":"C#5","midi":73,"time":409.49999999999994,"velocity":0.7480314960629921,"duration":0.33749999999997726},{"name":"F#5","midi":78,"time":409.49999999999994,"velocity":0.7480314960629921,"duration":0.33749999999997726},{"name":"A3","midi":57,"time":409.87499999999994,"velocity":0.7480314960629921,"duration":0.33749999999997726},{"name":"E4","midi":64,"time":409.87499999999994,"velocity":0.7480314960629921,"duration":0.33749999999997726},{"name":"A4","midi":69,"time":409.87499999999994,"velocity":0.7480314960629921,"duration":0.33749999999997726},{"name":"C#5","midi":73,"time":409.87499999999994,"velocity":0.7480314960629921,"duration":0.33749999999997726},{"name":"F#5","midi":78,"time":409.87499999999994,"velocity":0.7480314960629921,"duration":0.33749999999997726},{"name":"A3","midi":57,"time":410.24999999999994,"velocity":0.7480314960629921,"duration":0.5062500000000227},{"name":"E5","midi":76,"time":410.24999999999994,"velocity":0.7480314960629921,"duration":0.5062500000000227},{"name":"C#5","midi":73,"time":410.24999999999994,"velocity":0.7480314960629921,"duration":0.5062500000000227},{"name":"A4","midi":69,"time":410.24999999999994,"velocity":0.7480314960629921,"duration":0.5062500000000227},{"name":"E4","midi":64,"time":410.24999999999994,"velocity":0.7480314960629921,"duration":0.5062500000000227},{"name":"E4","midi":64,"time":410.81249999999994,"velocity":0.7480314960629921,"duration":0.16874999999998863},{"name":"A3","midi":57,"time":410.81249999999994,"velocity":0.7480314960629921,"duration":0.16874999999998863},{"name":"A4","midi":69,"time":410.81249999999994,"velocity":0.7480314960629921,"duration":0.16874999999998863},{"name":"C#5","midi":73,"time":410.81249999999994,"velocity":0.7480314960629921,"duration":0.16874999999998863},{"name":"E5","midi":76,"time":410.81249999999994,"velocity":0.7480314960629921,"duration":0.16874999999998863},{"name":"F#5","midi":78,"time":410.99999999999994,"velocity":0.7480314960629921,"duration":0.33749999999997726},{"name":"D5","midi":74,"time":410.99999999999994,"velocity":0.7480314960629921,"duration":0.33749999999997726},{"name":"A4","midi":69,"time":410.99999999999994,"velocity":0.7480314960629921,"duration":0.33749999999997726},{"name":"D4","midi":62,"time":410.99999999999994,"velocity":0.7480314960629921,"duration":0.33749999999997726},{"name":"D5","midi":74,"time":411.37499999999994,"velocity":0.7480314960629921,"duration":0.33749999999997726},{"name":"A4","midi":69,"time":411.37499999999994,"velocity":0.7480314960629921,"duration":0.33749999999997726},{"name":"D4","midi":62,"time":411.37499999999994,"velocity":0.7480314960629921,"duration":0.33749999999997726},{"name":"F#5","midi":78,"time":411.37499999999994,"velocity":0.7480314960629921,"duration":0.33749999999997726},{"name":"E5","midi":76,"time":411.74999999999994,"velocity":0.7480314960629921,"duration":0.5062500000000227},{"name":"D5","midi":74,"time":411.74999999999994,"velocity":0.7480314960629921,"duration":0.5062500000000227},{"name":"A4","midi":69,"time":411.74999999999994,"velocity":0.7480314960629921,"duration":0.5062500000000227},{"name":"D4","midi":62,"time":411.74999999999994,"velocity":0.7480314960629921,"duration":0.5062500000000227},{"name":"D4","midi":62,"time":412.31249999999994,"velocity":0.7480314960629921,"duration":0.16874999999998863},{"name":"A4","midi":69,"time":412.31249999999994,"velocity":0.7480314960629921,"duration":0.16874999999998863},{"name":"E5","midi":76,"time":412.31249999999994,"velocity":0.7480314960629921,"duration":0.16874999999998863},{"name":"D5","midi":74,"time":412.31249999999994,"velocity":0.7480314960629921,"duration":0.16874999999998863},{"name":"D4","midi":62,"time":412.49999999999994,"velocity":0.7480314960629921,"duration":0.33749999999997726},{"name":"F#5","midi":78,"time":412.49999999999994,"velocity":0.7480314960629921,"duration":0.33749999999997726},{"name":"D5","midi":74,"time":412.49999999999994,"velocity":0.7480314960629921,"duration":0.33749999999997726},{"name":"A4","midi":69,"time":412.49999999999994,"velocity":0.7480314960629921,"duration":0.33749999999997726},{"name":"F#5","midi":78,"time":412.87499999999994,"velocity":0.7480314960629921,"duration":0.33749999999997726},{"name":"D5","midi":74,"time":412.87499999999994,"velocity":0.7480314960629921,"duration":0.33749999999997726},{"name":"D4","midi":62,"time":412.87499999999994,"velocity":0.7480314960629921,"duration":0.33749999999997726},{"name":"A4","midi":69,"time":412.87499999999994,"velocity":0.7480314960629921,"duration":0.33749999999997726},{"name":"A4","midi":69,"time":413.24999999999994,"velocity":0.7480314960629921,"duration":0.5062500000000227},{"name":"D5","midi":74,"time":413.24999999999994,"velocity":0.7480314960629921,"duration":0.5062500000000227},{"name":"E5","midi":76,"time":413.24999999999994,"velocity":0.7480314960629921,"duration":0.5062500000000227},{"name":"D4","midi":62,"time":413.24999999999994,"velocity":0.7480314960629921,"duration":0.5062500000000227},{"name":"D4","midi":62,"time":413.81249999999994,"velocity":0.7480314960629921,"duration":0.16874999999998863},{"name":"D5","midi":74,"time":413.81249999999994,"velocity":0.7480314960629921,"duration":0.16874999999998863},{"name":"E5","midi":76,"time":413.81249999999994,"velocity":0.7480314960629921,"duration":0.16874999999998863},{"name":"A4","midi":69,"time":413.81249999999994,"velocity":0.7480314960629921,"duration":0.16874999999998863},{"name":"D4","midi":62,"time":413.99999999999994,"velocity":0.7480314960629921,"duration":0.33749999999997726},{"name":"D5","midi":74,"time":413.99999999999994,"velocity":0.7480314960629921,"duration":0.33749999999997726},{"name":"E5","midi":76,"time":413.99999999999994,"velocity":0.7480314960629921,"duration":0.33749999999997726},{"name":"A4","midi":69,"time":413.99999999999994,"velocity":0.7480314960629921,"duration":0.33749999999997726},{"name":"A4","midi":69,"time":414.37499999999994,"velocity":0.7480314960629921,"duration":0.33749999999997726},{"name":"D5","midi":74,"time":414.37499999999994,"velocity":0.7480314960629921,"duration":0.33749999999997726},{"name":"D4","midi":62,"time":414.37499999999994,"velocity":0.7480314960629921,"duration":0.33749999999997726},{"name":"E5","midi":76,"time":414.37499999999994,"velocity":0.7480314960629921,"duration":0.33749999999997726},{"name":"A4","midi":69,"time":414.74999999999994,"velocity":0.7480314960629921,"duration":0.5062500000000227},{"name":"D4","midi":62,"time":414.74999999999994,"velocity":0.7480314960629921,"duration":0.5062500000000227},{"name":"E5","midi":76,"time":414.74999999999994,"velocity":0.7480314960629921,"duration":0.5062500000000227},{"name":"D5","midi":74,"time":414.74999999999994,"velocity":0.7480314960629921,"duration":0.5062500000000227},{"name":"E5","midi":76,"time":415.31249999999994,"velocity":0.7480314960629921,"duration":0.16874999999998863},{"name":"D4","midi":62,"time":415.31249999999994,"velocity":0.7480314960629921,"duration":0.16874999999998863},{"name":"A4","midi":69,"time":415.31249999999994,"velocity":0.7480314960629921,"duration":0.16874999999998863},{"name":"D5","midi":74,"time":415.31249999999994,"velocity":0.7480314960629921,"duration":0.16874999999998863},{"name":"D4","midi":62,"time":415.49999999999994,"velocity":0.7480314960629921,"duration":0.33749999999997726},{"name":"A4","midi":69,"time":415.49999999999994,"velocity":0.7480314960629921,"duration":0.33749999999997726},{"name":"D5","midi":74,"time":415.49999999999994,"velocity":0.7480314960629921,"duration":0.33749999999997726},{"name":"F#5","midi":78,"time":415.49999999999994,"velocity":0.7480314960629921,"duration":0.33749999999997726},{"name":"D5","midi":74,"time":415.87499999999994,"velocity":0.7480314960629921,"duration":0.33749999999997726},{"name":"D4","midi":62,"time":415.87499999999994,"velocity":0.7480314960629921,"duration":0.33749999999997726},{"name":"A4","midi":69,"time":415.87499999999994,"velocity":0.7480314960629921,"duration":0.33749999999997726},{"name":"F#5","midi":78,"time":415.87499999999994,"velocity":0.7480314960629921,"duration":0.33749999999997726},{"name":"D4","midi":62,"time":416.24999999999994,"velocity":0.7480314960629921,"duration":0.5062500000000227},{"name":"A4","midi":69,"time":416.24999999999994,"velocity":0.7480314960629921,"duration":0.5062500000000227},{"name":"D5","midi":74,"time":416.24999999999994,"velocity":0.7480314960629921,"duration":0.5062500000000227},{"name":"E5","midi":76,"time":416.24999999999994,"velocity":0.7480314960629921,"duration":0.5062500000000227},{"name":"E5","midi":76,"time":416.81249999999994,"velocity":0.7480314960629921,"duration":0.16874999999998863},{"name":"A4","midi":69,"time":416.81249999999994,"velocity":0.7480314960629921,"duration":0.16874999999998863},{"name":"D4","midi":62,"time":416.81249999999994,"velocity":0.7480314960629921,"duration":0.16874999999998863},{"name":"D5","midi":74,"time":416.81249999999994,"velocity":0.7480314960629921,"duration":0.16874999999998863},{"name":"F#4","midi":66,"time":416.99999999999994,"velocity":0.7480314960629921,"duration":0.33749999999997726},{"name":"B3","midi":59,"time":416.99999999999994,"velocity":0.7480314960629921,"duration":0.33749999999997726},{"name":"F#5","midi":78,"time":416.99999999999994,"velocity":0.7480314960629921,"duration":0.33749999999997726},{"name":"D5","midi":74,"time":416.99999999999994,"velocity":0.7480314960629921,"duration":0.33749999999997726},{"name":"B4","midi":71,"time":416.99999999999994,"velocity":0.7480314960629921,"duration":0.33749999999997726},{"name":"B3","midi":59,"time":417.37499999999994,"velocity":0.7480314960629921,"duration":0.33749999999997726},{"name":"F#4","midi":66,"time":417.37499999999994,"velocity":0.7480314960629921,"duration":0.33749999999997726},{"name":"B4","midi":71,"time":417.37499999999994,"velocity":0.7480314960629921,"duration":0.33749999999997726},{"name":"D5","midi":74,"time":417.37499999999994,"velocity":0.7480314960629921,"duration":0.33749999999997726},{"name":"F#5","midi":78,"time":417.37499999999994,"velocity":0.7480314960629921,"duration":0.33749999999997726},{"name":"E5","midi":76,"time":417.74999999999994,"velocity":0.7480314960629921,"duration":0.5062500000000227},{"name":"D5","midi":74,"time":417.74999999999994,"velocity":0.7480314960629921,"duration":0.5062500000000227},{"name":"B4","midi":71,"time":417.74999999999994,"velocity":0.7480314960629921,"duration":0.5062500000000227},{"name":"F#4","midi":66,"time":417.74999999999994,"velocity":0.7480314960629921,"duration":0.5062500000000227},{"name":"B3","midi":59,"time":417.74999999999994,"velocity":0.7480314960629921,"duration":0.5062500000000227},{"name":"F#4","midi":66,"time":418.31249999999994,"velocity":0.7480314960629921,"duration":0.16874999999998863},{"name":"E5","midi":76,"time":418.31249999999994,"velocity":0.7480314960629921,"duration":0.16874999999998863},{"name":"D5","midi":74,"time":418.31249999999994,"velocity":0.7480314960629921,"duration":0.16874999999998863},{"name":"B4","midi":71,"time":418.31249999999994,"velocity":0.7480314960629921,"duration":0.16874999999998863},{"name":"B3","midi":59,"time":418.31249999999994,"velocity":0.7480314960629921,"duration":0.16874999999998863},{"name":"F#4","midi":66,"time":418.49999999999994,"velocity":0.7480314960629921,"duration":0.33749999999997726},{"name":"B4","midi":71,"time":418.49999999999994,"velocity":0.7480314960629921,"duration":0.33749999999997726},{"name":"D5","midi":74,"time":418.49999999999994,"velocity":0.7480314960629921,"duration":0.33749999999997726},{"name":"F#5","midi":78,"time":418.49999999999994,"velocity":0.7480314960629921,"duration":0.33749999999997726},{"name":"B3","midi":59,"time":418.49999999999994,"velocity":0.7480314960629921,"duration":0.33749999999997726},{"name":"F#5","midi":78,"time":418.87499999999994,"velocity":0.7480314960629921,"duration":0.33749999999997726},{"name":"D5","midi":74,"time":418.87499999999994,"velocity":0.7480314960629921,"duration":0.33749999999997726},{"name":"B4","midi":71,"time":418.87499999999994,"velocity":0.7480314960629921,"duration":0.33749999999997726},{"name":"F#4","midi":66,"time":418.87499999999994,"velocity":0.7480314960629921,"duration":0.33749999999997726},{"name":"B3","midi":59,"time":418.87499999999994,"velocity":0.7480314960629921,"duration":0.33749999999997726},{"name":"E5","midi":76,"time":419.24999999999994,"velocity":0.7480314960629921,"duration":0.5062500000000227},{"name":"D5","midi":74,"time":419.24999999999994,"velocity":0.7480314960629921,"duration":0.5062500000000227},{"name":"B4","midi":71,"time":419.24999999999994,"velocity":0.7480314960629921,"duration":0.5062500000000227},{"name":"F#4","midi":66,"time":419.24999999999994,"velocity":0.7480314960629921,"duration":0.5062500000000227},{"name":"B3","midi":59,"time":419.24999999999994,"velocity":0.7480314960629921,"duration":0.5062500000000227},{"name":"D5","midi":74,"time":419.81249999999994,"velocity":0.7480314960629921,"duration":0.16874999999998863},{"name":"F#4","midi":66,"time":419.81249999999994,"velocity":0.7480314960629921,"duration":0.16874999999998863},{"name":"B4","midi":71,"time":419.81249999999994,"velocity":0.7480314960629921,"duration":0.16874999999998863},{"name":"E5","midi":76,"time":419.81249999999994,"velocity":0.7480314960629921,"duration":0.16874999999998863},{"name":"B3","midi":59,"time":419.81249999999994,"velocity":0.7480314960629921,"duration":0.16874999999998863},{"name":"C#4","midi":61,"time":419.99999999999994,"velocity":0.7480314960629921,"duration":0.33749999999997726},{"name":"G#4","midi":68,"time":419.99999999999994,"velocity":0.7480314960629921,"duration":0.33749999999997726},{"name":"B4","midi":71,"time":419.99999999999994,"velocity":0.7480314960629921,"duration":0.33749999999997726},{"name":"F#5","midi":78,"time":419.99999999999994,"velocity":0.7480314960629921,"duration":0.33749999999997726},{"name":"C#4","midi":61,"time":420.37499999999994,"velocity":0.7480314960629921,"duration":0.33749999999997726},{"name":"F#5","midi":78,"time":420.37499999999994,"velocity":0.7480314960629921,"duration":0.33749999999997726},{"name":"B4","midi":71,"time":420.37499999999994,"velocity":0.7480314960629921,"duration":0.33749999999997726},{"name":"G#4","midi":68,"time":420.37499999999994,"velocity":0.7480314960629921,"duration":0.33749999999997726},{"name":"C#4","midi":61,"time":420.74999999999994,"velocity":0.7480314960629921,"duration":0.5062500000000227},{"name":"G#4","midi":68,"time":420.74999999999994,"velocity":0.7480314960629921,"duration":0.5062500000000227},{"name":"B4","midi":71,"time":420.74999999999994,"velocity":0.7480314960629921,"duration":0.5062500000000227},{"name":"E5","midi":76,"time":420.74999999999994,"velocity":0.7480314960629921,"duration":0.5062500000000227},{"name":"E5","midi":76,"time":421.31249999999994,"velocity":0.7480314960629921,"duration":0.16874999999998863},{"name":"B4","midi":71,"time":421.31249999999994,"velocity":0.7480314960629921,"duration":0.16874999999998863},{"name":"G#4","midi":68,"time":421.31249999999994,"velocity":0.7480314960629921,"duration":0.16874999999998863},{"name":"C#4","midi":61,"time":421.31249999999994,"velocity":0.7480314960629921,"duration":0.16874999999998863},{"name":"C#4","midi":61,"time":421.49999999999994,"velocity":0.7480314960629921,"duration":0.33749999999997726},{"name":"G#4","midi":68,"time":421.49999999999994,"velocity":0.7480314960629921,"duration":0.33749999999997726},{"name":"B4","midi":71,"time":421.49999999999994,"velocity":0.7480314960629921,"duration":0.33749999999997726},{"name":"F#5","midi":78,"time":421.49999999999994,"velocity":0.7480314960629921,"duration":0.33749999999997726},{"name":"G#4","midi":68,"time":421.87499999999994,"velocity":0.7480314960629921,"duration":0.33749999999997726},{"name":"C#4","midi":61,"time":421.87499999999994,"velocity":0.7480314960629921,"duration":0.33749999999997726},{"name":"B4","midi":71,"time":421.87499999999994,"velocity":0.7480314960629921,"duration":0.33749999999997726},{"name":"F#5","midi":78,"time":421.87499999999994,"velocity":0.7480314960629921,"duration":0.33749999999997726},{"name":"E5","midi":76,"time":422.24999999999994,"velocity":0.7480314960629921,"duration":0.5062500000000227},{"name":"G#4","midi":68,"time":422.24999999999994,"velocity":0.7480314960629921,"duration":0.5062500000000227},{"name":"B4","midi":71,"time":422.24999999999994,"velocity":0.7480314960629921,"duration":0.5062500000000227},{"name":"C#4","midi":61,"time":422.24999999999994,"velocity":0.7480314960629921,"duration":0.5062500000000227},{"name":"G#4","midi":68,"time":422.81249999999994,"velocity":0.7480314960629921,"duration":0.16874999999998863},{"name":"B4","midi":71,"time":422.81249999999994,"velocity":0.7480314960629921,"duration":0.16874999999998863},{"name":"C#4","midi":61,"time":422.81249999999994,"velocity":0.7480314960629921,"duration":0.16874999999998863},{"name":"E5","midi":76,"time":422.81249999999994,"velocity":0.7480314960629921,"duration":0.16874999999998863},{"name":"A5","midi":81,"time":422.99999999999994,"velocity":0.7480314960629921,"duration":0.33749999999997726},{"name":"F#5","midi":78,"time":422.99999999999994,"velocity":0.7480314960629921,"duration":0.33749999999997726},{"name":"D5","midi":74,"time":422.99999999999994,"velocity":0.7480314960629921,"duration":0.33749999999997726},{"name":"A4","midi":69,"time":422.99999999999994,"velocity":0.7480314960629921,"duration":0.33749999999997726},{"name":"D4","midi":62,"time":422.99999999999994,"velocity":0.7480314960629921,"duration":0.33749999999997726},{"name":"D4","midi":62,"time":423.37499999999994,"velocity":0.7480314960629921,"duration":0.33749999999997726},{"name":"F#5","midi":78,"time":423.37499999999994,"velocity":0.7480314960629921,"duration":0.33749999999997726},{"name":"A4","midi":69,"time":423.37499999999994,"velocity":0.7480314960629921,"duration":0.33749999999997726},{"name":"D5","midi":74,"time":423.37499999999994,"velocity":0.7480314960629921,"duration":0.33749999999997726},{"name":"A5","midi":81,"time":423.37499999999994,"velocity":0.7480314960629921,"duration":0.33749999999997726},{"name":"D4","midi":62,"time":423.74999999999994,"velocity":0.7480314960629921,"duration":0.5062500000000227},{"name":"A4","midi":69,"time":423.74999999999994,"velocity":0.7480314960629921,"duration":0.5062500000000227},{"name":"D5","midi":74,"time":423.74999999999994,"velocity":0.7480314960629921,"duration":0.5062500000000227},{"name":"A5","midi":81,"time":423.74999999999994,"velocity":0.7480314960629921,"duration":0.5062500000000227},{"name":"F#5","midi":78,"time":423.74999999999994,"velocity":0.7480314960629921,"duration":0.5062500000000227},{"name":"A5","midi":81,"time":424.31249999999994,"velocity":0.7480314960629921,"duration":0.16874999999998863},{"name":"D4","midi":62,"time":424.31249999999994,"velocity":0.7480314960629921,"duration":0.16874999999998863},{"name":"A4","midi":69,"time":424.31249999999994,"velocity":0.7480314960629921,"duration":0.16874999999998863},{"name":"D5","midi":74,"time":424.31249999999994,"velocity":0.7480314960629921,"duration":0.16874999999998863},{"name":"F#5","midi":78,"time":424.31249999999994,"velocity":0.7480314960629921,"duration":0.16874999999998863},{"name":"F#5","midi":78,"time":424.49999999999994,"velocity":0.7480314960629921,"duration":0.33749999999997726},{"name":"D5","midi":74,"time":424.49999999999994,"velocity":0.7480314960629921,"duration":0.33749999999997726},{"name":"A4","midi":69,"time":424.49999999999994,"velocity":0.7480314960629921,"duration":0.33749999999997726},{"name":"D4","midi":62,"time":424.49999999999994,"velocity":0.7480314960629921,"duration":0.33749999999997726},{"name":"A5","midi":81,"time":424.49999999999994,"velocity":0.7480314960629921,"duration":0.33749999999997726},{"name":"A5","midi":81,"time":424.87499999999994,"velocity":0.7480314960629921,"duration":0.33749999999997726},{"name":"F#5","midi":78,"time":424.87499999999994,"velocity":0.7480314960629921,"duration":0.33749999999997726},{"name":"D5","midi":74,"time":424.87499999999994,"velocity":0.7480314960629921,"duration":0.33749999999997726},{"name":"D4","midi":62,"time":424.87499999999994,"velocity":0.7480314960629921,"duration":0.33749999999997726},{"name":"A4","midi":69,"time":424.87499999999994,"velocity":0.7480314960629921,"duration":0.33749999999997726},{"name":"A5","midi":81,"time":425.24999999999994,"velocity":0.7480314960629921,"duration":0.5062500000000227},{"name":"D5","midi":74,"time":425.24999999999994,"velocity":0.7480314960629921,"duration":0.5062500000000227},{"name":"D4","midi":62,"time":425.24999999999994,"velocity":0.7480314960629921,"duration":0.5062500000000227},{"name":"A4","midi":69,"time":425.24999999999994,"velocity":0.7480314960629921,"duration":0.5062500000000227},{"name":"F#5","midi":78,"time":425.24999999999994,"velocity":0.7480314960629921,"duration":0.5062500000000227},{"name":"A5","midi":81,"time":425.81249999999994,"velocity":0.7480314960629921,"duration":0.16874999999998863},{"name":"D5","midi":74,"time":425.81249999999994,"velocity":0.7480314960629921,"duration":0.16874999999998863},{"name":"A4","midi":69,"time":425.81249999999994,"velocity":0.7480314960629921,"duration":0.16874999999998863},{"name":"F#5","midi":78,"time":425.81249999999994,"velocity":0.7480314960629921,"duration":0.16874999999998863},{"name":"D4","midi":62,"time":425.81249999999994,"velocity":0.7480314960629921,"duration":0.16874999999998863},{"name":"D4","midi":62,"time":425.99999999999994,"velocity":0.7480314960629921,"duration":0.33749999999997726},{"name":"A4","midi":69,"time":425.99999999999994,"velocity":0.7480314960629921,"duration":0.33749999999997726},{"name":"D5","midi":74,"time":425.99999999999994,"velocity":0.7480314960629921,"duration":0.33749999999997726},{"name":"F#5","midi":78,"time":425.99999999999994,"velocity":0.7480314960629921,"duration":0.33749999999997726},{"name":"A5","midi":81,"time":425.99999999999994,"velocity":0.7480314960629921,"duration":0.33749999999997726},{"name":"A4","midi":69,"time":426.37499999999994,"velocity":0.7480314960629921,"duration":0.33749999999997726},{"name":"D5","midi":74,"time":426.37499999999994,"velocity":0.7480314960629921,"duration":0.33749999999997726},{"name":"F#5","midi":78,"time":426.37499999999994,"velocity":0.7480314960629921,"duration":0.33749999999997726},{"name":"A5","midi":81,"time":426.37499999999994,"velocity":0.7480314960629921,"duration":0.33749999999997726},{"name":"D4","midi":62,"time":426.37499999999994,"velocity":0.7480314960629921,"duration":0.33749999999997726},{"name":"D4","midi":62,"time":426.74999999999994,"velocity":0.7480314960629921,"duration":0.5062500000000227},{"name":"A4","midi":69,"time":426.74999999999994,"velocity":0.7480314960629921,"duration":0.5062500000000227},{"name":"D5","midi":74,"time":426.74999999999994,"velocity":0.7480314960629921,"duration":0.5062500000000227},{"name":"F#5","midi":78,"time":426.74999999999994,"velocity":0.7480314960629921,"duration":0.5062500000000227},{"name":"A5","midi":81,"time":426.74999999999994,"velocity":0.7480314960629921,"duration":0.5062500000000227},{"name":"A4","midi":69,"time":427.31249999999994,"velocity":0.7480314960629921,"duration":0.16874999999998863},{"name":"D4","midi":62,"time":427.31249999999994,"velocity":0.7480314960629921,"duration":0.16874999999998863},{"name":"D5","midi":74,"time":427.31249999999994,"velocity":0.7480314960629921,"duration":0.16874999999998863},{"name":"F#5","midi":78,"time":427.31249999999994,"velocity":0.7480314960629921,"duration":0.16874999999998863},{"name":"A5","midi":81,"time":427.31249999999994,"velocity":0.7480314960629921,"duration":0.16874999999998863},{"name":"F#5","midi":78,"time":427.49999999999994,"velocity":0.7480314960629921,"duration":0.33749999999997726},{"name":"A5","midi":81,"time":427.49999999999994,"velocity":0.7480314960629921,"duration":0.33749999999997726},{"name":"D4","midi":62,"time":427.49999999999994,"velocity":0.7480314960629921,"duration":0.33749999999997726},{"name":"A4","midi":69,"time":427.49999999999994,"velocity":0.7480314960629921,"duration":0.33749999999997726},{"name":"D5","midi":74,"time":427.49999999999994,"velocity":0.7480314960629921,"duration":0.33749999999997726},{"name":"D4","midi":62,"time":427.87499999999994,"velocity":0.7480314960629921,"duration":0.33749999999997726},{"name":"A5","midi":81,"time":427.87499999999994,"velocity":0.7480314960629921,"duration":0.33749999999997726},{"name":"F#5","midi":78,"time":427.87499999999994,"velocity":0.7480314960629921,"duration":0.33749999999997726},{"name":"D5","midi":74,"time":427.87499999999994,"velocity":0.7480314960629921,"duration":0.33749999999997726},{"name":"A4","midi":69,"time":427.87499999999994,"velocity":0.7480314960629921,"duration":0.33749999999997726},{"name":"A5","midi":81,"time":428.24999999999994,"velocity":0.7480314960629921,"duration":0.5062500000000227},{"name":"D5","midi":74,"time":428.24999999999994,"velocity":0.7480314960629921,"duration":0.5062500000000227},{"name":"A4","midi":69,"time":428.24999999999994,"velocity":0.7480314960629921,"duration":0.5062500000000227},{"name":"D4","midi":62,"time":428.24999999999994,"velocity":0.7480314960629921,"duration":0.5062500000000227},{"name":"F#5","midi":78,"time":428.24999999999994,"velocity":0.7480314960629921,"duration":0.5062500000000227},{"name":"A5","midi":81,"time":428.81249999999994,"velocity":0.7480314960629921,"duration":0.16874999999998863},{"name":"F#5","midi":78,"time":428.81249999999994,"velocity":0.7480314960629921,"duration":0.16874999999998863},{"name":"D5","midi":74,"time":428.81249999999994,"velocity":0.7480314960629921,"duration":0.16874999999998863},{"name":"A4","midi":69,"time":428.81249999999994,"velocity":0.7480314960629921,"duration":0.16874999999998863},{"name":"D4","midi":62,"time":428.81249999999994,"velocity":0.7480314960629921,"duration":0.16874999999998863},{"name":"A3","midi":57,"time":428.99999999999994,"velocity":0.7480314960629921,"duration":0.33749999999997726},{"name":"A4","midi":69,"time":428.99999999999994,"velocity":0.7480314960629921,"duration":0.33749999999997726},{"name":"C#5","midi":73,"time":428.99999999999994,"velocity":0.7480314960629921,"duration":0.33749999999997726},{"name":"F#5","midi":78,"time":428.99999999999994,"velocity":0.7480314960629921,"duration":0.33749999999997726},{"name":"E4","midi":64,"time":428.99999999999994,"velocity":0.7480314960629921,"duration":0.33749999999997726},{"name":"C#5","midi":73,"time":429.37499999999994,"velocity":0.7480314960629921,"duration":0.33749999999997726},{"name":"A4","midi":69,"time":429.37499999999994,"velocity":0.7480314960629921,"duration":0.33749999999997726},{"name":"E4","midi":64,"time":429.37499999999994,"velocity":0.7480314960629921,"duration":0.33749999999997726},{"name":"A3","midi":57,"time":429.37499999999994,"velocity":0.7480314960629921,"duration":0.33749999999997726},{"name":"F#5","midi":78,"time":429.37499999999994,"velocity":0.7480314960629921,"duration":0.33749999999997726},{"name":"A3","midi":57,"time":429.74999999999994,"velocity":0.7480314960629921,"duration":0.5062500000000227},{"name":"E5","midi":76,"time":429.74999999999994,"velocity":0.7480314960629921,"duration":0.5062500000000227},{"name":"C#5","midi":73,"time":429.74999999999994,"velocity":0.7480314960629921,"duration":0.5062500000000227},{"name":"A4","midi":69,"time":429.74999999999994,"velocity":0.7480314960629921,"duration":0.5062500000000227},{"name":"E4","midi":64,"time":429.74999999999994,"velocity":0.7480314960629921,"duration":0.5062500000000227},{"name":"E5","midi":76,"time":430.31249999999994,"velocity":0.7480314960629921,"duration":0.16874999999998863},{"name":"E4","midi":64,"time":430.31249999999994,"velocity":0.7480314960629921,"duration":0.16874999999998863},{"name":"A3","midi":57,"time":430.31249999999994,"velocity":0.7480314960629921,"duration":0.16874999999998863},{"name":"C#5","midi":73,"time":430.31249999999994,"velocity":0.7480314960629921,"duration":0.16874999999998863},{"name":"A4","midi":69,"time":430.31249999999994,"velocity":0.7480314960629921,"duration":0.16874999999998863},{"name":"A3","midi":57,"time":430.49999999999994,"velocity":0.7480314960629921,"duration":0.33749999999997726},{"name":"E4","midi":64,"time":430.49999999999994,"velocity":0.7480314960629921,"duration":0.33749999999997726},{"name":"A4","midi":69,"time":430.49999999999994,"velocity":0.7480314960629921,"duration":0.33749999999997726},{"name":"C#5","midi":73,"time":430.49999999999994,"velocity":0.7480314960629921,"duration":0.33749999999997726},{"name":"F#5","midi":78,"time":430.49999999999994,"velocity":0.7480314960629921,"duration":0.33749999999997726},{"name":"A3","midi":57,"time":430.87499999999994,"velocity":0.7480314960629921,"duration":0.33749999999997726},{"name":"E4","midi":64,"time":430.87499999999994,"velocity":0.7480314960629921,"duration":0.33749999999997726},{"name":"C#5","midi":73,"time":430.87499999999994,"velocity":0.7480314960629921,"duration":0.33749999999997726},{"name":"F#5","midi":78,"time":430.87499999999994,"velocity":0.7480314960629921,"duration":0.33749999999997726},{"name":"A4","midi":69,"time":430.87499999999994,"velocity":0.7480314960629921,"duration":0.33749999999997726},{"name":"E5","midi":76,"time":431.24999999999994,"velocity":0.7480314960629921,"duration":0.5062500000000227},{"name":"A3","midi":57,"time":431.24999999999994,"velocity":0.7480314960629921,"duration":0.5062500000000227},{"name":"E4","midi":64,"time":431.24999999999994,"velocity":0.7480314960629921,"duration":0.5062500000000227},{"name":"C#5","midi":73,"time":431.24999999999994,"velocity":0.7480314960629921,"duration":0.5062500000000227},{"name":"A4","midi":69,"time":431.24999999999994,"velocity":0.7480314960629921,"duration":0.5062500000000227},{"name":"A4","midi":69,"time":431.81249999999994,"velocity":0.7480314960629921,"duration":0.16874999999998863},{"name":"C#5","midi":73,"time":431.81249999999994,"velocity":0.7480314960629921,"duration":0.16874999999998863},{"name":"E5","midi":76,"time":431.81249999999994,"velocity":0.7480314960629921,"duration":0.16874999999998863},{"name":"E4","midi":64,"time":431.81249999999994,"velocity":0.7480314960629921,"duration":0.16874999999998863},{"name":"A3","midi":57,"time":431.81249999999994,"velocity":0.7480314960629921,"duration":0.16874999999998863},{"name":"A3","midi":57,"time":431.99999999999994,"velocity":0.7480314960629921,"duration":0.33749999999997726},{"name":"F#5","midi":78,"time":431.99999999999994,"velocity":0.7480314960629921,"duration":0.33749999999997726},{"name":"C#5","midi":73,"time":431.99999999999994,"velocity":0.7480314960629921,"duration":0.33749999999997726},{"name":"A4","midi":69,"time":431.99999999999994,"velocity":0.7480314960629921,"duration":0.33749999999997726},{"name":"E4","midi":64,"time":431.99999999999994,"velocity":0.7480314960629921,"duration":0.33749999999997726},{"name":"A3","midi":57,"time":432.37499999999994,"velocity":0.7480314960629921,"duration":0.33749999999997726},{"name":"E4","midi":64,"time":432.37499999999994,"velocity":0.7480314960629921,"duration":0.33749999999997726},{"name":"A4","midi":69,"time":432.37499999999994,"velocity":0.7480314960629921,"duration":0.33749999999997726},{"name":"C#5","midi":73,"time":432.37499999999994,"velocity":0.7480314960629921,"duration":0.33749999999997726},{"name":"F#5","midi":78,"time":432.37499999999994,"velocity":0.7480314960629921,"duration":0.33749999999997726},{"name":"A3","midi":57,"time":432.74999999999994,"velocity":0.7480314960629921,"duration":0.5062500000000227},{"name":"E4","midi":64,"time":432.74999999999994,"velocity":0.7480314960629921,"duration":0.5062500000000227},{"name":"A4","midi":69,"time":432.74999999999994,"velocity":0.7480314960629921,"duration":0.5062500000000227},{"name":"C#5","midi":73,"time":432.74999999999994,"velocity":0.7480314960629921,"duration":0.5062500000000227},{"name":"E5","midi":76,"time":432.74999999999994,"velocity":0.7480314960629921,"duration":0.5062500000000227},{"name":"E4","midi":64,"time":433.31249999999994,"velocity":0.7480314960629921,"duration":0.16874999999998863},{"name":"E5","midi":76,"time":433.31249999999994,"velocity":0.7480314960629921,"duration":0.16874999999998863},{"name":"A3","midi":57,"time":433.31249999999994,"velocity":0.7480314960629921,"duration":0.16874999999998863},{"name":"C#5","midi":73,"time":433.31249999999994,"velocity":0.7480314960629921,"duration":0.16874999999998863},{"name":"A4","midi":69,"time":433.31249999999994,"velocity":0.7480314960629921,"duration":0.16874999999998863},{"name":"A3","midi":57,"time":433.49999999999994,"velocity":0.7480314960629921,"duration":0.33749999999997726},{"name":"E4","midi":64,"time":433.49999999999994,"velocity":0.7480314960629921,"duration":0.33749999999997726},{"name":"A4","midi":69,"time":433.49999999999994,"velocity":0.7480314960629921,"duration":0.33749999999997726},{"name":"C#5","midi":73,"time":433.49999999999994,"velocity":0.7480314960629921,"duration":0.33749999999997726},{"name":"F#5","midi":78,"time":433.49999999999994,"velocity":0.7480314960629921,"duration":0.33749999999997726},{"name":"F#5","midi":78,"time":433.87499999999994,"velocity":0.7480314960629921,"duration":0.33749999999997726},{"name":"C#5","midi":73,"time":433.87499999999994,"velocity":0.7480314960629921,"duration":0.33749999999997726},{"name":"A4","midi":69,"time":433.87499999999994,"velocity":0.7480314960629921,"duration":0.33749999999997726},{"name":"E4","midi":64,"time":433.87499999999994,"velocity":0.7480314960629921,"duration":0.33749999999997726},{"name":"A3","midi":57,"time":433.87499999999994,"velocity":0.7480314960629921,"duration":0.33749999999997726},{"name":"A3","midi":57,"time":434.24999999999994,"velocity":0.7480314960629921,"duration":0.5062500000000227},{"name":"E4","midi":64,"time":434.24999999999994,"velocity":0.7480314960629921,"duration":0.5062500000000227},{"name":"A4","midi":69,"time":434.24999999999994,"velocity":0.7480314960629921,"duration":0.5062500000000227},{"name":"C#5","midi":73,"time":434.24999999999994,"velocity":0.7480314960629921,"duration":0.5062500000000227},{"name":"E5","midi":76,"time":434.24999999999994,"velocity":0.7480314960629921,"duration":0.5062500000000227},{"name":"E5","midi":76,"time":434.81249999999994,"velocity":0.7480314960629921,"duration":0.16874999999998863},{"name":"A3","midi":57,"time":434.81249999999994,"velocity":0.7480314960629921,"duration":0.16874999999998863},{"name":"E4","midi":64,"time":434.81249999999994,"velocity":0.7480314960629921,"duration":0.16874999999998863},{"name":"C#5","midi":73,"time":434.81249999999994,"velocity":0.7480314960629921,"duration":0.16874999999998863},{"name":"A4","midi":69,"time":434.81249999999994,"velocity":0.7480314960629921,"duration":0.16874999999998863},{"name":"D4","midi":62,"time":434.99999999999994,"velocity":0.7480314960629921,"duration":0.33749999999997726},{"name":"F#5","midi":78,"time":434.99999999999994,"velocity":0.7480314960629921,"duration":0.33749999999997726},{"name":"D5","midi":74,"time":434.99999999999994,"velocity":0.7480314960629921,"duration":0.33749999999997726},{"name":"A4","midi":69,"time":434.99999999999994,"velocity":0.7480314960629921,"duration":0.33749999999997726},{"name":"D4","midi":62,"time":435.37499999999994,"velocity":0.7480314960629921,"duration":0.33749999999997726},{"name":"A4","midi":69,"time":435.37499999999994,"velocity":0.7480314960629921,"duration":0.33749999999997726},{"name":"D5","midi":74,"time":435.37499999999994,"velocity":0.7480314960629921,"duration":0.33749999999997726},{"name":"F#5","midi":78,"time":435.37499999999994,"velocity":0.7480314960629921,"duration":0.33749999999997726},{"name":"E5","midi":76,"time":435.74999999999994,"velocity":0.7480314960629921,"duration":0.5062500000000227},{"name":"D4","midi":62,"time":435.74999999999994,"velocity":0.7480314960629921,"duration":0.5062500000000227},{"name":"A4","midi":69,"time":435.74999999999994,"velocity":0.7480314960629921,"duration":0.5062500000000227},{"name":"D5","midi":74,"time":435.74999999999994,"velocity":0.7480314960629921,"duration":0.5062500000000227},{"name":"A4","midi":69,"time":436.31249999999994,"velocity":0.7480314960629921,"duration":0.16874999999998863},{"name":"D4","midi":62,"time":436.31249999999994,"velocity":0.7480314960629921,"duration":0.16874999999998863},{"name":"E5","midi":76,"time":436.31249999999994,"velocity":0.7480314960629921,"duration":0.16874999999998863},{"name":"D5","midi":74,"time":436.31249999999994,"velocity":0.7480314960629921,"duration":0.16874999999998863},{"name":"A4","midi":69,"time":436.49999999999994,"velocity":0.7480314960629921,"duration":0.33749999999997726},{"name":"D4","midi":62,"time":436.49999999999994,"velocity":0.7480314960629921,"duration":0.33749999999997726},{"name":"D5","midi":74,"time":436.49999999999994,"velocity":0.7480314960629921,"duration":0.33749999999997726},{"name":"F#5","midi":78,"time":436.49999999999994,"velocity":0.7480314960629921,"duration":0.33749999999997726},{"name":"A4","midi":69,"time":436.87499999999994,"velocity":0.7480314960629921,"duration":0.33749999999997726},{"name":"D5","midi":74,"time":436.87499999999994,"velocity":0.7480314960629921,"duration":0.33749999999997726},{"name":"F#5","midi":78,"time":436.87499999999994,"velocity":0.7480314960629921,"duration":0.33749999999997726},{"name":"D4","midi":62,"time":436.87499999999994,"velocity":0.7480314960629921,"duration":0.33749999999997726},{"name":"D5","midi":74,"time":437.24999999999994,"velocity":0.7480314960629921,"duration":0.5062500000000227},{"name":"D4","midi":62,"time":437.24999999999994,"velocity":0.7480314960629921,"duration":0.5062500000000227},{"name":"E5","midi":76,"time":437.24999999999994,"velocity":0.7480314960629921,"duration":0.5062500000000227},{"name":"A4","midi":69,"time":437.24999999999994,"velocity":0.7480314960629921,"duration":0.5062500000000227},{"name":"E5","midi":76,"time":437.81249999999994,"velocity":0.7480314960629921,"duration":0.16874999999998863},{"name":"D5","midi":74,"time":437.81249999999994,"velocity":0.7480314960629921,"duration":0.16874999999998863},{"name":"D4","midi":62,"time":437.81249999999994,"velocity":0.7480314960629921,"duration":0.16874999999998863},{"name":"A4","midi":69,"time":437.81249999999994,"velocity":0.7480314960629921,"duration":0.16874999999998863},{"name":"E5","midi":76,"time":437.99999999999994,"velocity":0.7480314960629921,"duration":0.33749999999997726},{"name":"D5","midi":74,"time":437.99999999999994,"velocity":0.7480314960629921,"duration":0.33749999999997726},{"name":"A4","midi":69,"time":437.99999999999994,"velocity":0.7480314960629921,"duration":0.33749999999997726},{"name":"D4","midi":62,"time":437.99999999999994,"velocity":0.7480314960629921,"duration":0.33749999999997726},{"name":"A4","midi":69,"time":438.37499999999994,"velocity":0.7480314960629921,"duration":0.33749999999997726},{"name":"D4","midi":62,"time":438.37499999999994,"velocity":0.7480314960629921,"duration":0.33749999999997726},{"name":"D5","midi":74,"time":438.37499999999994,"velocity":0.7480314960629921,"duration":0.33749999999997726},{"name":"E5","midi":76,"time":438.37499999999994,"velocity":0.7480314960629921,"duration":0.33749999999997726},{"name":"E5","midi":76,"time":438.74999999999994,"velocity":0.7480314960629921,"duration":0.5062500000000227},{"name":"D4","midi":62,"time":438.74999999999994,"velocity":0.7480314960629921,"duration":0.5062500000000227},{"name":"A4","midi":69,"time":438.74999999999994,"velocity":0.7480314960629921,"duration":0.5062500000000227},{"name":"D5","midi":74,"time":438.74999999999994,"velocity":0.7480314960629921,"duration":0.5062500000000227},{"name":"E5","midi":76,"time":439.31249999999994,"velocity":0.7480314960629921,"duration":0.16874999999998863},{"name":"D4","midi":62,"time":439.31249999999994,"velocity":0.7480314960629921,"duration":0.16874999999998863},{"name":"A4","midi":69,"time":439.31249999999994,"velocity":0.7480314960629921,"duration":0.16874999999998863},{"name":"D5","midi":74,"time":439.31249999999994,"velocity":0.7480314960629921,"duration":0.16874999999998863},{"name":"F#5","midi":78,"time":439.49999999999994,"velocity":0.7480314960629921,"duration":0.33749999999997726},{"name":"D4","midi":62,"time":439.49999999999994,"velocity":0.7480314960629921,"duration":0.33749999999997726},{"name":"A4","midi":69,"time":439.49999999999994,"velocity":0.7480314960629921,"duration":0.33749999999997726},{"name":"D5","midi":74,"time":439.49999999999994,"velocity":0.7480314960629921,"duration":0.33749999999997726},{"name":"F#5","midi":78,"time":439.87499999999994,"velocity":0.7480314960629921,"duration":0.33749999999997726},{"name":"D5","midi":74,"time":439.87499999999994,"velocity":0.7480314960629921,"duration":0.33749999999997726},{"name":"A4","midi":69,"time":439.87499999999994,"velocity":0.7480314960629921,"duration":0.33749999999997726},{"name":"D4","midi":62,"time":439.87499999999994,"velocity":0.7480314960629921,"duration":0.33749999999997726},{"name":"D4","midi":62,"time":440.24999999999994,"velocity":0.7480314960629921,"duration":0.5062500000000227},{"name":"D5","midi":74,"time":440.24999999999994,"velocity":0.7480314960629921,"duration":0.5062500000000227},{"name":"E5","midi":76,"time":440.24999999999994,"velocity":0.7480314960629921,"duration":0.5062500000000227},{"name":"A4","midi":69,"time":440.24999999999994,"velocity":0.7480314960629921,"duration":0.5062500000000227},{"name":"E5","midi":76,"time":440.81249999999994,"velocity":0.7480314960629921,"duration":0.16874999999998863},{"name":"A4","midi":69,"time":440.81249999999994,"velocity":0.7480314960629921,"duration":0.16874999999998863},{"name":"D5","midi":74,"time":440.81249999999994,"velocity":0.7480314960629921,"duration":0.16874999999998863},{"name":"D4","midi":62,"time":440.81249999999994,"velocity":0.7480314960629921,"duration":0.16874999999998863},{"name":"B3","midi":59,"time":440.99999999999994,"velocity":0.7480314960629921,"duration":0.33749999999997726},{"name":"F#4","midi":66,"time":440.99999999999994,"velocity":0.7480314960629921,"duration":0.33749999999997726},{"name":"B4","midi":71,"time":440.99999999999994,"velocity":0.7480314960629921,"duration":0.33749999999997726},{"name":"D5","midi":74,"time":440.99999999999994,"velocity":0.7480314960629921,"duration":0.33749999999997726},{"name":"F#5","midi":78,"time":440.99999999999994,"velocity":0.7480314960629921,"duration":0.33749999999997726},{"name":"B3","midi":59,"time":441.37499999999994,"velocity":0.7480314960629921,"duration":0.33749999999997726},{"name":"F#4","midi":66,"time":441.37499999999994,"velocity":0.7480314960629921,"duration":0.33749999999997726},{"name":"B4","midi":71,"time":441.37499999999994,"velocity":0.7480314960629921,"duration":0.33749999999997726},{"name":"D5","midi":74,"time":441.37499999999994,"velocity":0.7480314960629921,"duration":0.33749999999997726},{"name":"F#5","midi":78,"time":441.37499999999994,"velocity":0.7480314960629921,"duration":0.33749999999997726},{"name":"F#4","midi":66,"time":441.74999999999994,"velocity":0.7480314960629921,"duration":0.5062500000000227},{"name":"B4","midi":71,"time":441.74999999999994,"velocity":0.7480314960629921,"duration":0.5062500000000227},{"name":"D5","midi":74,"time":441.74999999999994,"velocity":0.7480314960629921,"duration":0.5062500000000227},{"name":"E5","midi":76,"time":441.74999999999994,"velocity":0.7480314960629921,"duration":0.5062500000000227},{"name":"B3","midi":59,"time":441.74999999999994,"velocity":0.7480314960629921,"duration":0.5062500000000227},{"name":"E5","midi":76,"time":442.31249999999994,"velocity":0.7480314960629921,"duration":0.16874999999998863},{"name":"F#4","midi":66,"time":442.31249999999994,"velocity":0.7480314960629921,"duration":0.16874999999998863},{"name":"B3","midi":59,"time":442.31249999999994,"velocity":0.7480314960629921,"duration":0.16874999999998863},{"name":"D5","midi":74,"time":442.31249999999994,"velocity":0.7480314960629921,"duration":0.16874999999998863},{"name":"B4","midi":71,"time":442.31249999999994,"velocity":0.7480314960629921,"duration":0.16874999999998863},{"name":"B3","midi":59,"time":442.49999999999994,"velocity":0.7480314960629921,"duration":0.33749999999997726},{"name":"F#4","midi":66,"time":442.49999999999994,"velocity":0.7480314960629921,"duration":0.33749999999997726},{"name":"B4","midi":71,"time":442.49999999999994,"velocity":0.7480314960629921,"duration":0.33749999999997726},{"name":"D5","midi":74,"time":442.49999999999994,"velocity":0.7480314960629921,"duration":0.33749999999997726},{"name":"F#5","midi":78,"time":442.49999999999994,"velocity":0.7480314960629921,"duration":0.33749999999997726},{"name":"F#5","midi":78,"time":442.87499999999994,"velocity":0.7480314960629921,"duration":0.33749999999997726},{"name":"D5","midi":74,"time":442.87499999999994,"velocity":0.7480314960629921,"duration":0.33749999999997726},{"name":"B4","midi":71,"time":442.87499999999994,"velocity":0.7480314960629921,"duration":0.33749999999997726},{"name":"F#4","midi":66,"time":442.87499999999994,"velocity":0.7480314960629921,"duration":0.33749999999997726},{"name":"B3","midi":59,"time":442.87499999999994,"velocity":0.7480314960629921,"duration":0.33749999999997726},{"name":"E5","midi":76,"time":443.24999999999994,"velocity":0.7480314960629921,"duration":0.5062500000000227},{"name":"D5","midi":74,"time":443.24999999999994,"velocity":0.7480314960629921,"duration":0.5062500000000227},{"name":"B4","midi":71,"time":443.24999999999994,"velocity":0.7480314960629921,"duration":0.5062500000000227},{"name":"F#4","midi":66,"time":443.24999999999994,"velocity":0.7480314960629921,"duration":0.5062500000000227},{"name":"B3","midi":59,"time":443.24999999999994,"velocity":0.7480314960629921,"duration":0.5062500000000227},{"name":"E5","midi":76,"time":443.81249999999994,"velocity":0.7480314960629921,"duration":0.16874999999998863},{"name":"B3","midi":59,"time":443.81249999999994,"velocity":0.7480314960629921,"duration":0.16874999999998863},{"name":"D5","midi":74,"time":443.81249999999994,"velocity":0.7480314960629921,"duration":0.16874999999998863},{"name":"B4","midi":71,"time":443.81249999999994,"velocity":0.7480314960629921,"duration":0.16874999999998863},{"name":"F#4","midi":66,"time":443.81249999999994,"velocity":0.7480314960629921,"duration":0.16874999999998863},{"name":"C#4","midi":61,"time":443.99999999999994,"velocity":0.7480314960629921,"duration":0.33749999999997726},{"name":"G#4","midi":68,"time":443.99999999999994,"velocity":0.7480314960629921,"duration":0.33749999999997726},{"name":"B4","midi":71,"time":443.99999999999994,"velocity":0.7480314960629921,"duration":0.33749999999997726},{"name":"F#5","midi":78,"time":443.99999999999994,"velocity":0.7480314960629921,"duration":0.33749999999997726},{"name":"C#4","midi":61,"time":444.37499999999994,"velocity":0.7480314960629921,"duration":0.33749999999997726},{"name":"G#4","midi":68,"time":444.37499999999994,"velocity":0.7480314960629921,"duration":0.33749999999997726},{"name":"B4","midi":71,"time":444.37499999999994,"velocity":0.7480314960629921,"duration":0.33749999999997726},{"name":"F#5","midi":78,"time":444.37499999999994,"velocity":0.7480314960629921,"duration":0.33749999999997726},{"name":"E5","midi":76,"time":444.74999999999994,"velocity":0.7480314960629921,"duration":0.5062500000000227},{"name":"G#4","midi":68,"time":444.74999999999994,"velocity":0.7480314960629921,"duration":0.5062500000000227},{"name":"B4","midi":71,"time":444.74999999999994,"velocity":0.7480314960629921,"duration":0.5062500000000227},{"name":"C#4","midi":61,"time":444.74999999999994,"velocity":0.7480314960629921,"duration":0.5062500000000227},{"name":"C#4","midi":61,"time":445.31249999999994,"velocity":0.7480314960629921,"duration":0.16874999999998863},{"name":"G#4","midi":68,"time":445.31249999999994,"velocity":0.7480314960629921,"duration":0.16874999999998863},{"name":"E5","midi":76,"time":445.31249999999994,"velocity":0.7480314960629921,"duration":0.16874999999998863},{"name":"B4","midi":71,"time":445.31249999999994,"velocity":0.7480314960629921,"duration":0.16874999999998863},{"name":"B4","midi":71,"time":445.49999999999994,"velocity":0.7480314960629921,"duration":0.33749999999997726},{"name":"F#5","midi":78,"time":445.49999999999994,"velocity":0.7480314960629921,"duration":0.33749999999997726},{"name":"G#4","midi":68,"time":445.49999999999994,"velocity":0.7480314960629921,"duration":0.33749999999997726},{"name":"C#4","midi":61,"time":445.49999999999994,"velocity":0.7480314960629921,"duration":0.33749999999997726},{"name":"G#4","midi":68,"time":445.87499999999994,"velocity":0.7480314960629921,"duration":0.33749999999997726},{"name":"C#4","midi":61,"time":445.87499999999994,"velocity":0.7480314960629921,"duration":0.33749999999997726},{"name":"F#5","midi":78,"time":445.87499999999994,"velocity":0.7480314960629921,"duration":0.33749999999997726},{"name":"B4","midi":71,"time":445.87499999999994,"velocity":0.7480314960629921,"duration":0.33749999999997726},{"name":"E5","midi":76,"time":446.24999999999994,"velocity":0.7480314960629921,"duration":0.5062500000000227},{"name":"B4","midi":71,"time":446.24999999999994,"velocity":0.7480314960629921,"duration":0.5062500000000227},{"name":"G#4","midi":68,"time":446.24999999999994,"velocity":0.7480314960629921,"duration":0.5062500000000227},{"name":"C#4","midi":61,"time":446.24999999999994,"velocity":0.7480314960629921,"duration":0.5062500000000227},{"name":"C#4","midi":61,"time":446.81249999999994,"velocity":0.7480314960629921,"duration":0.16874999999998863},{"name":"G#4","midi":68,"time":446.81249999999994,"velocity":0.7480314960629921,"duration":0.16874999999998863},{"name":"B4","midi":71,"time":446.81249999999994,"velocity":0.7480314960629921,"duration":0.16874999999998863},{"name":"E5","midi":76,"time":446.81249999999994,"velocity":0.7480314960629921,"duration":0.16874999999998863},{"name":"D5","midi":74,"time":446.99999999999994,"velocity":0.7480314960629921,"duration":0.33749999999997726},{"name":"A5","midi":81,"time":446.99999999999994,"velocity":0.7480314960629921,"duration":0.33749999999997726},{"name":"F#5","midi":78,"time":446.99999999999994,"velocity":0.7480314960629921,"duration":0.33749999999997726},{"name":"A4","midi":69,"time":446.99999999999994,"velocity":0.7480314960629921,"duration":0.33749999999997726},{"name":"D4","midi":62,"time":446.99999999999994,"velocity":0.7480314960629921,"duration":0.33749999999997726},{"name":"D4","midi":62,"time":447.37499999999994,"velocity":0.7480314960629921,"duration":0.33749999999997726},{"name":"D5","midi":74,"time":447.37499999999994,"velocity":0.7480314960629921,"duration":0.33749999999997726},{"name":"A5","midi":81,"time":447.37499999999994,"velocity":0.7480314960629921,"duration":0.33749999999997726},{"name":"A4","midi":69,"time":447.37499999999994,"velocity":0.7480314960629921,"duration":0.33749999999997726},{"name":"F#5","midi":78,"time":447.37499999999994,"velocity":0.7480314960629921,"duration":0.33749999999997726},{"name":"D4","midi":62,"time":447.74999999999994,"velocity":0.7480314960629921,"duration":0.5062500000000227},{"name":"A5","midi":81,"time":447.74999999999994,"velocity":0.7480314960629921,"duration":0.5062500000000227},{"name":"A4","midi":69,"time":447.74999999999994,"velocity":0.7480314960629921,"duration":0.5062500000000227},{"name":"D5","midi":74,"time":447.74999999999994,"velocity":0.7480314960629921,"duration":0.5062500000000227},{"name":"F#5","midi":78,"time":447.74999999999994,"velocity":0.7480314960629921,"duration":0.5062500000000227},{"name":"F#5","midi":78,"time":448.31249999999994,"velocity":0.7480314960629921,"duration":0.16874999999998863},{"name":"D4","midi":62,"time":448.31249999999994,"velocity":0.7480314960629921,"duration":0.16874999999998863},{"name":"A4","midi":69,"time":448.31249999999994,"velocity":0.7480314960629921,"duration":0.16874999999998863},{"name":"D5","midi":74,"time":448.31249999999994,"velocity":0.7480314960629921,"duration":0.16874999999998863},{"name":"A5","midi":81,"time":448.31249999999994,"velocity":0.7480314960629921,"duration":0.16874999999998863},{"name":"D4","midi":62,"time":448.49999999999994,"velocity":0.7480314960629921,"duration":0.33749999999997726},{"name":"A4","midi":69,"time":448.49999999999994,"velocity":0.7480314960629921,"duration":0.33749999999997726},{"name":"D5","midi":74,"time":448.49999999999994,"velocity":0.7480314960629921,"duration":0.33749999999997726},{"name":"F#5","midi":78,"time":448.49999999999994,"velocity":0.7480314960629921,"duration":0.33749999999997726},{"name":"A5","midi":81,"time":448.49999999999994,"velocity":0.7480314960629921,"duration":0.33749999999997726},{"name":"A4","midi":69,"time":448.87499999999994,"velocity":0.7480314960629921,"duration":0.33749999999997726},{"name":"D4","midi":62,"time":448.87499999999994,"velocity":0.7480314960629921,"duration":0.33749999999997726},{"name":"A5","midi":81,"time":448.87499999999994,"velocity":0.7480314960629921,"duration":0.33749999999997726},{"name":"F#5","midi":78,"time":448.87499999999994,"velocity":0.7480314960629921,"duration":0.33749999999997726},{"name":"D5","midi":74,"time":448.87499999999994,"velocity":0.7480314960629921,"duration":0.33749999999997726},{"name":"A5","midi":81,"time":449.24999999999994,"velocity":0.7480314960629921,"duration":0.5062500000000227},{"name":"F#5","midi":78,"time":449.24999999999994,"velocity":0.7480314960629921,"duration":0.5062500000000227},{"name":"D5","midi":74,"time":449.24999999999994,"velocity":0.7480314960629921,"duration":0.5062500000000227},{"name":"A4","midi":69,"time":449.24999999999994,"velocity":0.7480314960629921,"duration":0.5062500000000227},{"name":"D4","midi":62,"time":449.24999999999994,"velocity":0.7480314960629921,"duration":0.5062500000000227},{"name":"D5","midi":74,"time":449.81249999999994,"velocity":0.7480314960629921,"duration":0.16874999999998863},{"name":"A5","midi":81,"time":449.81249999999994,"velocity":0.7480314960629921,"duration":0.16874999999998863},{"name":"F#5","midi":78,"time":449.81249999999994,"velocity":0.7480314960629921,"duration":0.16874999999998863},{"name":"A4","midi":69,"time":449.81249999999994,"velocity":0.7480314960629921,"duration":0.16874999999998863},{"name":"D4","midi":62,"time":449.81249999999994,"velocity":0.7480314960629921,"duration":0.16874999999998863},{"name":"D5","midi":74,"time":449.99999999999994,"velocity":0.7480314960629921,"duration":0.33749999999997726},{"name":"A4","midi":69,"time":449.99999999999994,"velocity":0.7480314960629921,"duration":0.33749999999997726},{"name":"D4","midi":62,"time":449.99999999999994,"velocity":0.7480314960629921,"duration":0.33749999999997726},{"name":"A5","midi":81,"time":449.99999999999994,"velocity":0.7480314960629921,"duration":0.33749999999997726},{"name":"F#5","midi":78,"time":449.99999999999994,"velocity":0.7480314960629921,"duration":0.33749999999997726},{"name":"A5","midi":81,"time":450.37499999999994,"velocity":0.7480314960629921,"duration":0.33749999999997726},{"name":"D4","midi":62,"time":450.37499999999994,"velocity":0.7480314960629921,"duration":0.33749999999997726},{"name":"A4","midi":69,"time":450.37499999999994,"velocity":0.7480314960629921,"duration":0.33749999999997726},{"name":"D5","midi":74,"time":450.37499999999994,"velocity":0.7480314960629921,"duration":0.33749999999997726},{"name":"F#5","midi":78,"time":450.37499999999994,"velocity":0.7480314960629921,"duration":0.33749999999997726},{"name":"D4","midi":62,"time":450.74999999999994,"velocity":0.7480314960629921,"duration":0.5062500000000227},{"name":"A4","midi":69,"time":450.74999999999994,"velocity":0.7480314960629921,"duration":0.5062500000000227},{"name":"D5","midi":74,"time":450.74999999999994,"velocity":0.7480314960629921,"duration":0.5062500000000227},{"name":"F#5","midi":78,"time":450.74999999999994,"velocity":0.7480314960629921,"duration":0.5062500000000227},{"name":"A5","midi":81,"time":450.74999999999994,"velocity":0.7480314960629921,"duration":0.5062500000000227},{"name":"A4","midi":69,"time":451.31249999999994,"velocity":0.7480314960629921,"duration":0.16874999999998863},{"name":"D5","midi":74,"time":451.31249999999994,"velocity":0.7480314960629921,"duration":0.16874999999998863},{"name":"F#5","midi":78,"time":451.31249999999994,"velocity":0.7480314960629921,"duration":0.16874999999998863},{"name":"A5","midi":81,"time":451.31249999999994,"velocity":0.7480314960629921,"duration":0.16874999999998863},{"name":"D4","midi":62,"time":451.31249999999994,"velocity":0.7480314960629921,"duration":0.16874999999998863},{"name":"A4","midi":69,"time":451.49999999999994,"velocity":0.7480314960629921,"duration":0.33749999999997726},{"name":"D4","midi":62,"time":451.49999999999994,"velocity":0.7480314960629921,"duration":0.33749999999997726},{"name":"D5","midi":74,"time":451.49999999999994,"velocity":0.7480314960629921,"duration":0.33749999999997726},{"name":"F#5","midi":78,"time":451.49999999999994,"velocity":0.7480314960629921,"duration":0.33749999999997726},{"name":"A5","midi":81,"time":451.49999999999994,"velocity":0.7480314960629921,"duration":0.33749999999997726},{"name":"A5","midi":81,"time":451.87499999999994,"velocity":0.7480314960629921,"duration":0.33749999999997726},{"name":"F#5","midi":78,"time":451.87499999999994,"velocity":0.7480314960629921,"duration":0.33749999999997726},{"name":"D5","midi":74,"time":451.87499999999994,"velocity":0.7480314960629921,"duration":0.33749999999997726},{"name":"A4","midi":69,"time":451.87499999999994,"velocity":0.7480314960629921,"duration":0.33749999999997726},{"name":"D4","midi":62,"time":451.87499999999994,"velocity":0.7480314960629921,"duration":0.33749999999997726},{"name":"A5","midi":81,"time":452.24999999999994,"velocity":0.7480314960629921,"duration":0.5062500000000227},{"name":"F#5","midi":78,"time":452.24999999999994,"velocity":0.7480314960629921,"duration":0.5062500000000227},{"name":"D5","midi":74,"time":452.24999999999994,"velocity":0.7480314960629921,"duration":0.5062500000000227},{"name":"A4","midi":69,"time":452.24999999999994,"velocity":0.7480314960629921,"duration":0.5062500000000227},{"name":"D4","midi":62,"time":452.24999999999994,"velocity":0.7480314960629921,"duration":0.5062500000000227},{"name":"D5","midi":74,"time":452.81249999999994,"velocity":0.7480314960629921,"duration":0.16874999999998863},{"name":"F#5","midi":78,"time":452.81249999999994,"velocity":0.7480314960629921,"duration":0.16874999999998863},{"name":"A5","midi":81,"time":452.81249999999994,"velocity":0.7480314960629921,"duration":0.16874999999998863},{"name":"A4","midi":69,"time":452.81249999999994,"velocity":0.7480314960629921,"duration":0.16874999999998863},{"name":"D4","midi":62,"time":452.81249999999994,"velocity":0.7480314960629921,"duration":0.16874999999998863},{"name":"A4","midi":69,"time":452.99999999999994,"velocity":0.7480314960629921,"duration":0.33749999999997726},{"name":"E4","midi":64,"time":452.99999999999994,"velocity":0.7480314960629921,"duration":0.33749999999997726},{"name":"A3","midi":57,"time":452.99999999999994,"velocity":0.7480314960629921,"duration":0.33749999999997726},{"name":"F#5","midi":78,"time":452.99999999999994,"velocity":0.7480314960629921,"duration":0.33749999999997726},{"name":"C#5","midi":73,"time":452.99999999999994,"velocity":0.7480314960629921,"duration":0.33749999999997726},{"name":"F#5","midi":78,"time":453.37499999999994,"velocity":0.7480314960629921,"duration":0.33749999999997726},{"name":"C#5","midi":73,"time":453.37499999999994,"velocity":0.7480314960629921,"duration":0.33749999999997726},{"name":"A3","midi":57,"time":453.37499999999994,"velocity":0.7480314960629921,"duration":0.33749999999997726},{"name":"E4","midi":64,"time":453.37499999999994,"velocity":0.7480314960629921,"duration":0.33749999999997726},{"name":"A4","midi":69,"time":453.37499999999994,"velocity":0.7480314960629921,"duration":0.33749999999997726},{"name":"C#5","midi":73,"time":453.74999999999994,"velocity":0.7480314960629921,"duration":0.5062500000000227},{"name":"A4","midi":69,"time":453.74999999999994,"velocity":0.7480314960629921,"duration":0.5062500000000227},{"name":"E4","midi":64,"time":453.74999999999994,"velocity":0.7480314960629921,"duration":0.5062500000000227},{"name":"A3","midi":57,"time":453.74999999999994,"velocity":0.7480314960629921,"duration":0.5062500000000227},{"name":"E5","midi":76,"time":453.74999999999994,"velocity":0.7480314960629921,"duration":0.5062500000000227},{"name":"E4","midi":64,"time":454.31249999999994,"velocity":0.7480314960629921,"duration":0.16874999999998863},{"name":"A3","midi":57,"time":454.31249999999994,"velocity":0.7480314960629921,"duration":0.16874999999998863},{"name":"C#5","midi":73,"time":454.31249999999994,"velocity":0.7480314960629921,"duration":0.16874999999998863},{"name":"A4","midi":69,"time":454.31249999999994,"velocity":0.7480314960629921,"duration":0.16874999999998863},{"name":"E5","midi":76,"time":454.31249999999994,"velocity":0.7480314960629921,"duration":0.16874999999998863},{"name":"E4","midi":64,"time":454.49999999999994,"velocity":0.7480314960629921,"duration":0.33749999999997726},{"name":"F#5","midi":78,"time":454.49999999999994,"velocity":0.7480314960629921,"duration":0.33749999999997726},{"name":"C#5","midi":73,"time":454.49999999999994,"velocity":0.7480314960629921,"duration":0.33749999999997726},{"name":"A4","midi":69,"time":454.49999999999994,"velocity":0.7480314960629921,"duration":0.33749999999997726},{"name":"A3","midi":57,"time":454.49999999999994,"velocity":0.7480314960629921,"duration":0.33749999999997726},{"name":"A3","midi":57,"time":454.87499999999994,"velocity":0.7480314960629921,"duration":0.33749999999997726},{"name":"E4","midi":64,"time":454.87499999999994,"velocity":0.7480314960629921,"duration":0.33749999999997726},{"name":"A4","midi":69,"time":454.87499999999994,"velocity":0.7480314960629921,"duration":0.33749999999997726},{"name":"C#5","midi":73,"time":454.87499999999994,"velocity":0.7480314960629921,"duration":0.33749999999997726},{"name":"F#5","midi":78,"time":454.87499999999994,"velocity":0.7480314960629921,"duration":0.33749999999997726},{"name":"E5","midi":76,"time":455.24999999999994,"velocity":0.7480314960629921,"duration":0.5062500000000227},{"name":"C#5","midi":73,"time":455.24999999999994,"velocity":0.7480314960629921,"duration":0.5062500000000227},{"name":"A3","midi":57,"time":455.24999999999994,"velocity":0.7480314960629921,"duration":0.5062500000000227},{"name":"A4","midi":69,"time":455.24999999999994,"velocity":0.7480314960629921,"duration":0.5062500000000227},{"name":"E4","midi":64,"time":455.24999999999994,"velocity":0.7480314960629921,"duration":0.5062500000000227},{"name":"E5","midi":76,"time":455.81249999999994,"velocity":0.7480314960629921,"duration":0.16874999999998863},{"name":"E4","midi":64,"time":455.81249999999994,"velocity":0.7480314960629921,"duration":0.16874999999998863},{"name":"A3","midi":57,"time":455.81249999999994,"velocity":0.7480314960629921,"duration":0.16874999999998863},{"name":"A4","midi":69,"time":455.81249999999994,"velocity":0.7480314960629921,"duration":0.16874999999998863},{"name":"C#5","midi":73,"time":455.81249999999994,"velocity":0.7480314960629921,"duration":0.16874999999998863},{"name":"A3","midi":57,"time":455.99999999999994,"velocity":0.7480314960629921,"duration":0.33749999999997726},{"name":"A4","midi":69,"time":455.99999999999994,"velocity":0.7480314960629921,"duration":0.33749999999997726},{"name":"C#5","midi":73,"time":455.99999999999994,"velocity":0.7480314960629921,"duration":0.33749999999997726},{"name":"F#5","midi":78,"time":455.99999999999994,"velocity":0.7480314960629921,"duration":0.33749999999997726},{"name":"E4","midi":64,"time":455.99999999999994,"velocity":0.7480314960629921,"duration":0.33749999999997726},{"name":"F#5","midi":78,"time":456.37499999999994,"velocity":0.7480314960629921,"duration":0.33749999999997726},{"name":"A3","midi":57,"time":456.37499999999994,"velocity":0.7480314960629921,"duration":0.33749999999997726},{"name":"E4","midi":64,"time":456.37499999999994,"velocity":0.7480314960629921,"duration":0.33749999999997726},{"name":"A4","midi":69,"time":456.37499999999994,"velocity":0.7480314960629921,"duration":0.33749999999997726},{"name":"C#5","midi":73,"time":456.37499999999994,"velocity":0.7480314960629921,"duration":0.33749999999997726},{"name":"C#5","midi":73,"time":456.74999999999994,"velocity":0.7480314960629921,"duration":0.5062500000000227},{"name":"A4","midi":69,"time":456.74999999999994,"velocity":0.7480314960629921,"duration":0.5062500000000227},{"name":"E4","midi":64,"time":456.74999999999994,"velocity":0.7480314960629921,"duration":0.5062500000000227},{"name":"A3","midi":57,"time":456.74999999999994,"velocity":0.7480314960629921,"duration":0.5062500000000227},{"name":"E5","midi":76,"time":456.74999999999994,"velocity":0.7480314960629921,"duration":0.5062500000000227},{"name":"A3","midi":57,"time":457.31249999999994,"velocity":0.7480314960629921,"duration":0.16874999999998863},{"name":"E4","midi":64,"time":457.31249999999994,"velocity":0.7480314960629921,"duration":0.16874999999998863},{"name":"A4","midi":69,"time":457.31249999999994,"velocity":0.7480314960629921,"duration":0.16874999999998863},{"name":"C#5","midi":73,"time":457.31249999999994,"velocity":0.7480314960629921,"duration":0.16874999999998863},{"name":"E5","midi":76,"time":457.31249999999994,"velocity":0.7480314960629921,"duration":0.16874999999998863},{"name":"F#5","midi":78,"time":457.49999999999994,"velocity":0.7480314960629921,"duration":0.33749999999997726},{"name":"C#5","midi":73,"time":457.49999999999994,"velocity":0.7480314960629921,"duration":0.33749999999997726},{"name":"A3","midi":57,"time":457.49999999999994,"velocity":0.7480314960629921,"duration":0.33749999999997726},{"name":"E4","midi":64,"time":457.49999999999994,"velocity":0.7480314960629921,"duration":0.33749999999997726},{"name":"A4","midi":69,"time":457.49999999999994,"velocity":0.7480314960629921,"duration":0.33749999999997726},{"name":"A4","midi":69,"time":457.87499999999994,"velocity":0.7480314960629921,"duration":0.33749999999997726},{"name":"A3","midi":57,"time":457.87499999999994,"velocity":0.7480314960629921,"duration":0.33749999999997726},{"name":"E4","midi":64,"time":457.87499999999994,"velocity":0.7480314960629921,"duration":0.33749999999997726},{"name":"C#5","midi":73,"time":457.87499999999994,"velocity":0.7480314960629921,"duration":0.33749999999997726},{"name":"F#5","midi":78,"time":457.87499999999994,"velocity":0.7480314960629921,"duration":0.33749999999997726},{"name":"E5","midi":76,"time":458.24999999999994,"velocity":0.7480314960629921,"duration":0.5062500000000227},{"name":"A4","midi":69,"time":458.24999999999994,"velocity":0.7480314960629921,"duration":0.5062500000000227},{"name":"E4","midi":64,"time":458.24999999999994,"velocity":0.7480314960629921,"duration":0.5062500000000227},{"name":"A3","midi":57,"time":458.24999999999994,"velocity":0.7480314960629921,"duration":0.5062500000000227},{"name":"C#5","midi":73,"time":458.24999999999994,"velocity":0.7480314960629921,"duration":0.5062500000000227},{"name":"E4","midi":64,"time":458.81249999999994,"velocity":0.7480314960629921,"duration":0.16874999999998863},{"name":"A4","midi":69,"time":458.81249999999994,"velocity":0.7480314960629921,"duration":0.16874999999998863},{"name":"E5","midi":76,"time":458.81249999999994,"velocity":0.7480314960629921,"duration":0.16874999999998863},{"name":"C#5","midi":73,"time":458.81249999999994,"velocity":0.7480314960629921,"duration":0.16874999999998863},{"name":"A3","midi":57,"time":458.81249999999994,"velocity":0.7480314960629921,"duration":0.16874999999998863},{"name":"D5","midi":74,"time":458.99999999999994,"velocity":0.7480314960629921,"duration":0.33749999999997726},{"name":"D4","midi":62,"time":458.99999999999994,"velocity":0.7480314960629921,"duration":0.33749999999997726},{"name":"A4","midi":69,"time":458.99999999999994,"velocity":0.7480314960629921,"duration":0.33749999999997726},{"name":"F#5","midi":78,"time":458.99999999999994,"velocity":0.7480314960629921,"duration":0.33749999999997726},{"name":"F#5","midi":78,"time":459.37499999999994,"velocity":0.7480314960629921,"duration":0.33749999999997726},{"name":"D5","midi":74,"time":459.37499999999994,"velocity":0.7480314960629921,"duration":0.33749999999997726},{"name":"A4","midi":69,"time":459.37499999999994,"velocity":0.7480314960629921,"duration":0.33749999999997726},{"name":"D4","midi":62,"time":459.37499999999994,"velocity":0.7480314960629921,"duration":0.33749999999997726},{"name":"D4","midi":62,"time":459.74999999999994,"velocity":0.7480314960629921,"duration":0.5062500000000227},{"name":"A4","midi":69,"time":459.74999999999994,"velocity":0.7480314960629921,"duration":0.5062500000000227},{"name":"D5","midi":74,"time":459.74999999999994,"velocity":0.7480314960629921,"duration":0.5062500000000227},{"name":"E5","midi":76,"time":459.74999999999994,"velocity":0.7480314960629921,"duration":0.5062500000000227},{"name":"D5","midi":74,"time":460.31249999999994,"velocity":0.7480314960629921,"duration":0.16874999999998863},{"name":"E5","midi":76,"time":460.31249999999994,"velocity":0.7480314960629921,"duration":0.16874999999998863},{"name":"A4","midi":69,"time":460.31249999999994,"velocity":0.7480314960629921,"duration":0.16874999999998863},{"name":"D4","midi":62,"time":460.31249999999994,"velocity":0.7480314960629921,"duration":0.16874999999998863},{"name":"F#5","midi":78,"time":460.49999999999994,"velocity":0.7480314960629921,"duration":0.33749999999997726},{"name":"D5","midi":74,"time":460.49999999999994,"velocity":0.7480314960629921,"duration":0.33749999999997726},{"name":"A4","midi":69,"time":460.49999999999994,"velocity":0.7480314960629921,"duration":0.33749999999997726},{"name":"D4","midi":62,"time":460.49999999999994,"velocity":0.7480314960629921,"duration":0.33749999999997726},{"name":"F#5","midi":78,"time":460.87499999999994,"velocity":0.7480314960629921,"duration":0.33749999999997726},{"name":"D5","midi":74,"time":460.87499999999994,"velocity":0.7480314960629921,"duration":0.33749999999997726},{"name":"A4","midi":69,"time":460.87499999999994,"velocity":0.7480314960629921,"duration":0.33749999999997726},{"name":"D4","midi":62,"time":460.87499999999994,"velocity":0.7480314960629921,"duration":0.33749999999997726},{"name":"A4","midi":69,"time":461.24999999999994,"velocity":0.7480314960629921,"duration":0.5062500000000227},{"name":"D5","midi":74,"time":461.24999999999994,"velocity":0.7480314960629921,"duration":0.5062500000000227},{"name":"E5","midi":76,"time":461.24999999999994,"velocity":0.7480314960629921,"duration":0.5062500000000227},{"name":"D4","midi":62,"time":461.24999999999994,"velocity":0.7480314960629921,"duration":0.5062500000000227},{"name":"D4","midi":62,"time":461.81249999999994,"velocity":0.7480314960629921,"duration":0.16874999999998863},{"name":"A4","midi":69,"time":461.81249999999994,"velocity":0.7480314960629921,"duration":0.16874999999998863},{"name":"D5","midi":74,"time":461.81249999999994,"velocity":0.7480314960629921,"duration":0.16874999999998863},{"name":"E5","midi":76,"time":461.81249999999994,"velocity":0.7480314960629921,"duration":0.16874999999998863},{"name":"A4","midi":69,"time":461.99999999999994,"velocity":0.7480314960629921,"duration":0.33749999999997726},{"name":"D4","midi":62,"time":461.99999999999994,"velocity":0.7480314960629921,"duration":0.33749999999997726},{"name":"D5","midi":74,"time":461.99999999999994,"velocity":0.7480314960629921,"duration":0.33749999999997726},{"name":"E5","midi":76,"time":461.99999999999994,"velocity":0.7480314960629921,"duration":0.33749999999997726},{"name":"A4","midi":69,"time":462.37499999999994,"velocity":0.7480314960629921,"duration":0.33749999999997726},{"name":"D4","midi":62,"time":462.37499999999994,"velocity":0.7480314960629921,"duration":0.33749999999997726},{"name":"E5","midi":76,"time":462.37499999999994,"velocity":0.7480314960629921,"duration":0.33749999999997726},{"name":"D5","midi":74,"time":462.37499999999994,"velocity":0.7480314960629921,"duration":0.33749999999997726},{"name":"D4","midi":62,"time":462.74999999999994,"velocity":0.7480314960629921,"duration":0.5062500000000227},{"name":"D5","midi":74,"time":462.74999999999994,"velocity":0.7480314960629921,"duration":0.5062500000000227},{"name":"A4","midi":69,"time":462.74999999999994,"velocity":0.7480314960629921,"duration":0.5062500000000227},{"name":"E5","midi":76,"time":462.74999999999994,"velocity":0.7480314960629921,"duration":0.5062500000000227},{"name":"D4","midi":62,"time":463.31249999999994,"velocity":0.7480314960629921,"duration":0.16874999999998863},{"name":"A4","midi":69,"time":463.31249999999994,"velocity":0.7480314960629921,"duration":0.16874999999998863},{"name":"D5","midi":74,"time":463.31249999999994,"velocity":0.7480314960629921,"duration":0.16874999999998863},{"name":"E5","midi":76,"time":463.31249999999994,"velocity":0.7480314960629921,"duration":0.16874999999998863},{"name":"F#5","midi":78,"time":463.49999999999994,"velocity":0.7480314960629921,"duration":0.33749999999997726},{"name":"D5","midi":74,"time":463.49999999999994,"velocity":0.7480314960629921,"duration":0.33749999999997726},{"name":"A4","midi":69,"time":463.49999999999994,"velocity":0.7480314960629921,"duration":0.33749999999997726},{"name":"D4","midi":62,"time":463.49999999999994,"velocity":0.7480314960629921,"duration":0.33749999999997726},{"name":"F#5","midi":78,"time":463.87499999999994,"velocity":0.7480314960629921,"duration":0.33749999999997726},{"name":"D4","midi":62,"time":463.87499999999994,"velocity":0.7480314960629921,"duration":0.33749999999997726},{"name":"D5","midi":74,"time":463.87499999999994,"velocity":0.7480314960629921,"duration":0.33749999999997726},{"name":"A4","midi":69,"time":463.87499999999994,"velocity":0.7480314960629921,"duration":0.33749999999997726},{"name":"E5","midi":76,"time":464.24999999999994,"velocity":0.7480314960629921,"duration":0.5062500000000227},{"name":"D5","midi":74,"time":464.24999999999994,"velocity":0.7480314960629921,"duration":0.5062500000000227},{"name":"D4","midi":62,"time":464.24999999999994,"velocity":0.7480314960629921,"duration":0.5062500000000227},{"name":"A4","midi":69,"time":464.24999999999994,"velocity":0.7480314960629921,"duration":0.5062500000000227},{"name":"A4","midi":69,"time":464.81249999999994,"velocity":0.7480314960629921,"duration":0.16874999999998863},{"name":"D5","midi":74,"time":464.81249999999994,"velocity":0.7480314960629921,"duration":0.16874999999998863},{"name":"E5","midi":76,"time":464.81249999999994,"velocity":0.7480314960629921,"duration":0.16874999999998863},{"name":"D4","midi":62,"time":464.81249999999994,"velocity":0.7480314960629921,"duration":0.16874999999998863},{"name":"B3","midi":59,"time":464.99999999999994,"velocity":0.7480314960629921,"duration":0.33749999999997726},{"name":"F#4","midi":66,"time":464.99999999999994,"velocity":0.7480314960629921,"duration":0.33749999999997726},{"name":"B4","midi":71,"time":464.99999999999994,"velocity":0.7480314960629921,"duration":0.33749999999997726},{"name":"D5","midi":74,"time":464.99999999999994,"velocity":0.7480314960629921,"duration":0.33749999999997726},{"name":"F#5","midi":78,"time":464.99999999999994,"velocity":0.7480314960629921,"duration":0.33749999999997726},{"name":"F#4","midi":66,"time":465.37499999999994,"velocity":0.7480314960629921,"duration":0.33749999999997726},{"name":"D5","midi":74,"time":465.37499999999994,"velocity":0.7480314960629921,"duration":0.33749999999997726},{"name":"B4","midi":71,"time":465.37499999999994,"velocity":0.7480314960629921,"duration":0.33749999999997726},{"name":"F#5","midi":78,"time":465.37499999999994,"velocity":0.7480314960629921,"duration":0.33749999999997726},{"name":"B3","midi":59,"time":465.37499999999994,"velocity":0.7480314960629921,"duration":0.33749999999997726},{"name":"B3","midi":59,"time":465.74999999999994,"velocity":0.7480314960629921,"duration":0.5062500000000227},{"name":"D5","midi":74,"time":465.74999999999994,"velocity":0.7480314960629921,"duration":0.5062500000000227},{"name":"E5","midi":76,"time":465.74999999999994,"velocity":0.7480314960629921,"duration":0.5062500000000227},{"name":"B4","midi":71,"time":465.74999999999994,"velocity":0.7480314960629921,"duration":0.5062500000000227},{"name":"F#4","midi":66,"time":465.74999999999994,"velocity":0.7480314960629921,"duration":0.5062500000000227},{"name":"E5","midi":76,"time":466.31249999999994,"velocity":0.7480314960629921,"duration":0.16874999999998863},{"name":"B4","midi":71,"time":466.31249999999994,"velocity":0.7480314960629921,"duration":0.16874999999998863},{"name":"F#4","midi":66,"time":466.31249999999994,"velocity":0.7480314960629921,"duration":0.16874999999998863},{"name":"B3","midi":59,"time":466.31249999999994,"velocity":0.7480314960629921,"duration":0.16874999999998863},{"name":"D5","midi":74,"time":466.31249999999994,"velocity":0.7480314960629921,"duration":0.16874999999998863},{"name":"B3","midi":59,"time":466.49999999999994,"velocity":0.7480314960629921,"duration":0.33749999999997726},{"name":"F#4","midi":66,"time":466.49999999999994,"velocity":0.7480314960629921,"duration":0.33749999999997726},{"name":"F#5","midi":78,"time":466.49999999999994,"velocity":0.7480314960629921,"duration":0.33749999999997726},{"name":"D5","midi":74,"time":466.49999999999994,"velocity":0.7480314960629921,"duration":0.33749999999997726},{"name":"B4","midi":71,"time":466.49999999999994,"velocity":0.7480314960629921,"duration":0.33749999999997726},{"name":"B3","midi":59,"time":466.87499999999994,"velocity":0.7480314960629921,"duration":0.33749999999997726},{"name":"F#4","midi":66,"time":466.87499999999994,"velocity":0.7480314960629921,"duration":0.33749999999997726},{"name":"B4","midi":71,"time":466.87499999999994,"velocity":0.7480314960629921,"duration":0.33749999999997726},{"name":"D5","midi":74,"time":466.87499999999994,"velocity":0.7480314960629921,"duration":0.33749999999997726},{"name":"F#5","midi":78,"time":466.87499999999994,"velocity":0.7480314960629921,"duration":0.33749999999997726},{"name":"E5","midi":76,"time":467.24999999999994,"velocity":0.7480314960629921,"duration":0.5062500000000227},{"name":"D5","midi":74,"time":467.24999999999994,"velocity":0.7480314960629921,"duration":0.5062500000000227},{"name":"B4","midi":71,"time":467.24999999999994,"velocity":0.7480314960629921,"duration":0.5062500000000227},{"name":"F#4","midi":66,"time":467.24999999999994,"velocity":0.7480314960629921,"duration":0.5062500000000227},{"name":"B3","midi":59,"time":467.24999999999994,"velocity":0.7480314960629921,"duration":0.5062500000000227},{"name":"F#4","midi":66,"time":467.81249999999994,"velocity":0.7480314960629921,"duration":0.16874999999998863},{"name":"B4","midi":71,"time":467.81249999999994,"velocity":0.7480314960629921,"duration":0.16874999999998863},{"name":"D5","midi":74,"time":467.81249999999994,"velocity":0.7480314960629921,"duration":0.16874999999998863},{"name":"E5","midi":76,"time":467.81249999999994,"velocity":0.7480314960629921,"duration":0.16874999999998863},{"name":"B3","midi":59,"time":467.81249999999994,"velocity":0.7480314960629921,"duration":0.16874999999998863},{"name":"C#4","midi":61,"time":467.99999999999994,"velocity":0.7480314960629921,"duration":0.33749999999997726},{"name":"G#4","midi":68,"time":467.99999999999994,"velocity":0.7480314960629921,"duration":0.33749999999997726},{"name":"B4","midi":71,"time":467.99999999999994,"velocity":0.7480314960629921,"duration":0.33749999999997726},{"name":"F#5","midi":78,"time":467.99999999999994,"velocity":0.7480314960629921,"duration":0.33749999999997726},{"name":"C#4","midi":61,"time":468.37499999999994,"velocity":0.7480314960629921,"duration":0.33749999999997726},{"name":"G#4","midi":68,"time":468.37499999999994,"velocity":0.7480314960629921,"duration":0.33749999999997726},{"name":"B4","midi":71,"time":468.37499999999994,"velocity":0.7480314960629921,"duration":0.33749999999997726},{"name":"F#5","midi":78,"time":468.37499999999994,"velocity":0.7480314960629921,"duration":0.33749999999997726},{"name":"C#4","midi":61,"time":468.74999999999994,"velocity":0.7480314960629921,"duration":0.5062500000000227},{"name":"G#4","midi":68,"time":468.74999999999994,"velocity":0.7480314960629921,"duration":0.5062500000000227},{"name":"B4","midi":71,"time":468.74999999999994,"velocity":0.7480314960629921,"duration":0.5062500000000227},{"name":"E5","midi":76,"time":468.74999999999994,"velocity":0.7480314960629921,"duration":0.5062500000000227},{"name":"C#4","midi":61,"time":469.31249999999994,"velocity":0.7480314960629921,"duration":0.16874999999998863},{"name":"G#4","midi":68,"time":469.31249999999994,"velocity":0.7480314960629921,"duration":0.16874999999998863},{"name":"B4","midi":71,"time":469.31249999999994,"velocity":0.7480314960629921,"duration":0.16874999999998863},{"name":"E5","midi":76,"time":469.31249999999994,"velocity":0.7480314960629921,"duration":0.16874999999998863},{"name":"G#4","midi":68,"time":469.49999999999994,"velocity":0.7480314960629921,"duration":0.33749999999997726},{"name":"F#5","midi":78,"time":469.49999999999994,"velocity":0.7480314960629921,"duration":0.33749999999997726},{"name":"B4","midi":71,"time":469.49999999999994,"velocity":0.7480314960629921,"duration":0.33749999999997726},{"name":"C#4","midi":61,"time":469.49999999999994,"velocity":0.7480314960629921,"duration":0.33749999999997726},{"name":"B4","midi":71,"time":469.87499999999994,"velocity":0.7480314960629921,"duration":0.33749999999997726},{"name":"C#4","midi":61,"time":469.87499999999994,"velocity":0.7480314960629921,"duration":0.33749999999997726},{"name":"G#4","midi":68,"time":469.87499999999994,"velocity":0.7480314960629921,"duration":0.33749999999997726},{"name":"F#5","midi":78,"time":469.87499999999994,"velocity":0.7480314960629921,"duration":0.33749999999997726},{"name":"B4","midi":71,"time":470.24999999999994,"velocity":0.7480314960629921,"duration":0.5062500000000227},{"name":"E5","midi":76,"time":470.24999999999994,"velocity":0.7480314960629921,"duration":0.5062500000000227},{"name":"C#4","midi":61,"time":470.24999999999994,"velocity":0.7480314960629921,"duration":0.5062500000000227},{"name":"G#4","midi":68,"time":470.24999999999994,"velocity":0.7480314960629921,"duration":0.5062500000000227},{"name":"E5","midi":76,"time":470.81249999999994,"velocity":0.7480314960629921,"duration":0.16874999999998863},{"name":"B4","midi":71,"time":470.81249999999994,"velocity":0.7480314960629921,"duration":0.16874999999998863},{"name":"G#4","midi":68,"time":470.81249999999994,"velocity":0.7480314960629921,"duration":0.16874999999998863},{"name":"C#4","midi":61,"time":470.81249999999994,"velocity":0.7480314960629921,"duration":0.16874999999998863},{"name":"D4","midi":62,"time":470.99999999999994,"velocity":0.7480314960629921,"duration":0.33749999999997726},{"name":"A4","midi":69,"time":470.99999999999994,"velocity":0.7480314960629921,"duration":0.33749999999997726},{"name":"D5","midi":74,"time":470.99999999999994,"velocity":0.7480314960629921,"duration":0.33749999999997726},{"name":"F#5","midi":78,"time":470.99999999999994,"velocity":0.7480314960629921,"duration":0.33749999999997726},{"name":"A5","midi":81,"time":470.99999999999994,"velocity":0.7480314960629921,"duration":0.33749999999997726},{"name":"D4","midi":62,"time":471.37499999999994,"velocity":0.7480314960629921,"duration":0.33749999999997726},{"name":"A4","midi":69,"time":471.37499999999994,"velocity":0.7480314960629921,"duration":0.33749999999997726},{"name":"D5","midi":74,"time":471.37499999999994,"velocity":0.7480314960629921,"duration":0.33749999999997726},{"name":"F#5","midi":78,"time":471.37499999999994,"velocity":0.7480314960629921,"duration":0.33749999999997726},{"name":"A5","midi":81,"time":471.37499999999994,"velocity":0.7480314960629921,"duration":0.33749999999997726},{"name":"D4","midi":62,"time":471.74999999999994,"velocity":0.7480314960629921,"duration":0.5062500000000227},{"name":"A4","midi":69,"time":471.74999999999994,"velocity":0.7480314960629921,"duration":0.5062500000000227},{"name":"A5","midi":81,"time":471.74999999999994,"velocity":0.7480314960629921,"duration":0.5062500000000227},{"name":"D5","midi":74,"time":471.74999999999994,"velocity":0.7480314960629921,"duration":0.5062500000000227},{"name":"F#5","midi":78,"time":471.74999999999994,"velocity":0.7480314960629921,"duration":0.5062500000000227},{"name":"D4","midi":62,"time":472.31249999999994,"velocity":0.7480314960629921,"duration":0.16874999999998863},{"name":"A4","midi":69,"time":472.31249999999994,"velocity":0.7480314960629921,"duration":0.16874999999998863},{"name":"D5","midi":74,"time":472.31249999999994,"velocity":0.7480314960629921,"duration":0.16874999999998863},{"name":"F#5","midi":78,"time":472.31249999999994,"velocity":0.7480314960629921,"duration":0.16874999999998863},{"name":"A5","midi":81,"time":472.31249999999994,"velocity":0.7480314960629921,"duration":0.16874999999998863},{"name":"A5","midi":81,"time":472.49999999999994,"velocity":0.7480314960629921,"duration":0.33749999999997726},{"name":"F#5","midi":78,"time":472.49999999999994,"velocity":0.7480314960629921,"duration":0.33749999999997726},{"name":"D5","midi":74,"time":472.49999999999994,"velocity":0.7480314960629921,"duration":0.33749999999997726},{"name":"A4","midi":69,"time":472.49999999999994,"velocity":0.7480314960629921,"duration":0.33749999999997726},{"name":"D4","midi":62,"time":472.49999999999994,"velocity":0.7480314960629921,"duration":0.33749999999997726},{"name":"A4","midi":69,"time":472.87499999999994,"velocity":0.7480314960629921,"duration":0.33749999999997726},{"name":"D4","midi":62,"time":472.87499999999994,"velocity":0.7480314960629921,"duration":0.33749999999997726},{"name":"D5","midi":74,"time":472.87499999999994,"velocity":0.7480314960629921,"duration":0.33749999999997726},{"name":"F#5","midi":78,"time":472.87499999999994,"velocity":0.7480314960629921,"duration":0.33749999999997726},{"name":"A5","midi":81,"time":472.87499999999994,"velocity":0.7480314960629921,"duration":0.33749999999997726},{"name":"A4","midi":69,"time":473.24999999999994,"velocity":0.7480314960629921,"duration":0.5062500000000227},{"name":"D4","midi":62,"time":473.24999999999994,"velocity":0.7480314960629921,"duration":0.5062500000000227},{"name":"D5","midi":74,"time":473.24999999999994,"velocity":0.7480314960629921,"duration":0.5062500000000227},{"name":"F#5","midi":78,"time":473.24999999999994,"velocity":0.7480314960629921,"duration":0.5062500000000227},{"name":"A5","midi":81,"time":473.24999999999994,"velocity":0.7480314960629921,"duration":0.5062500000000227},{"name":"D4","midi":62,"time":473.81249999999994,"velocity":0.7480314960629921,"duration":0.16874999999998863},{"name":"A5","midi":81,"time":473.81249999999994,"velocity":0.7480314960629921,"duration":0.16874999999998863},{"name":"F#5","midi":78,"time":473.81249999999994,"velocity":0.7480314960629921,"duration":0.16874999999998863},{"name":"D5","midi":74,"time":473.81249999999994,"velocity":0.7480314960629921,"duration":0.16874999999998863},{"name":"A4","midi":69,"time":473.81249999999994,"velocity":0.7480314960629921,"duration":0.16874999999998863},{"name":"D5","midi":74,"time":473.99999999999994,"velocity":0.7480314960629921,"duration":0.33749999999997726},{"name":"A5","midi":81,"time":473.99999999999994,"velocity":0.7480314960629921,"duration":0.33749999999997726},{"name":"D4","midi":62,"time":473.99999999999994,"velocity":0.7480314960629921,"duration":0.33749999999997726},{"name":"A4","midi":69,"time":473.99999999999994,"velocity":0.7480314960629921,"duration":0.33749999999997726},{"name":"F#5","midi":78,"time":473.99999999999994,"velocity":0.7480314960629921,"duration":0.33749999999997726},{"name":"A4","midi":69,"time":474.37499999999994,"velocity":0.7480314960629921,"duration":0.33749999999997726},{"name":"D5","midi":74,"time":474.37499999999994,"velocity":0.7480314960629921,"duration":0.33749999999997726},{"name":"D4","midi":62,"time":474.37499999999994,"velocity":0.7480314960629921,"duration":0.33749999999997726},{"name":"A5","midi":81,"time":474.37499999999994,"velocity":0.7480314960629921,"duration":0.33749999999997726},{"name":"F#5","midi":78,"time":474.37499999999994,"velocity":0.7480314960629921,"duration":0.33749999999997726},{"name":"A5","midi":81,"time":474.74999999999994,"velocity":0.7480314960629921,"duration":0.5062500000000227},{"name":"F#5","midi":78,"time":474.74999999999994,"velocity":0.7480314960629921,"duration":0.5062500000000227},{"name":"D5","midi":74,"time":474.74999999999994,"velocity":0.7480314960629921,"duration":0.5062500000000227},{"name":"A4","midi":69,"time":474.74999999999994,"velocity":0.7480314960629921,"duration":0.5062500000000227},{"name":"D4","midi":62,"time":474.74999999999994,"velocity":0.7480314960629921,"duration":0.5062500000000227},{"name":"D5","midi":74,"time":475.31249999999994,"velocity":0.7480314960629921,"duration":0.16874999999998863},{"name":"A4","midi":69,"time":475.31249999999994,"velocity":0.7480314960629921,"duration":0.16874999999998863},{"name":"D4","midi":62,"time":475.31249999999994,"velocity":0.7480314960629921,"duration":0.16874999999998863},{"name":"A5","midi":81,"time":475.31249999999994,"velocity":0.7480314960629921,"duration":0.16874999999998863},{"name":"F#5","midi":78,"time":475.31249999999994,"velocity":0.7480314960629921,"duration":0.16874999999998863},{"name":"A5","midi":81,"time":475.49999999999994,"velocity":0.7480314960629921,"duration":0.33749999999997726},{"name":"F#5","midi":78,"time":475.49999999999994,"velocity":0.7480314960629921,"duration":0.33749999999997726},{"name":"D5","midi":74,"time":475.49999999999994,"velocity":0.7480314960629921,"duration":0.33749999999997726},{"name":"A4","midi":69,"time":475.49999999999994,"velocity":0.7480314960629921,"duration":0.33749999999997726},{"name":"D4","midi":62,"time":475.49999999999994,"velocity":0.7480314960629921,"duration":0.33749999999997726},{"name":"A5","midi":81,"time":475.87499999999994,"velocity":0.7480314960629921,"duration":0.33749999999997726},{"name":"F#5","midi":78,"time":475.87499999999994,"velocity":0.7480314960629921,"duration":0.33749999999997726},{"name":"D5","midi":74,"time":475.87499999999994,"velocity":0.7480314960629921,"duration":0.33749999999997726},{"name":"A4","midi":69,"time":475.87499999999994,"velocity":0.7480314960629921,"duration":0.33749999999997726},{"name":"D4","midi":62,"time":475.87499999999994,"velocity":0.7480314960629921,"duration":0.33749999999997726},{"name":"A4","midi":69,"time":476.24999999999994,"velocity":0.7480314960629921,"duration":0.5062500000000227},{"name":"D4","midi":62,"time":476.24999999999994,"velocity":0.7480314960629921,"duration":0.5062500000000227},{"name":"F#5","midi":78,"time":476.24999999999994,"velocity":0.7480314960629921,"duration":0.5062500000000227},{"name":"D5","midi":74,"time":476.24999999999994,"velocity":0.7480314960629921,"duration":0.5062500000000227},{"name":"A5","midi":81,"time":476.24999999999994,"velocity":0.7480314960629921,"duration":0.5062500000000227},{"name":"D4","midi":62,"time":476.81249999999994,"velocity":0.7480314960629921,"duration":0.16874999999998863},{"name":"D5","midi":74,"time":476.81249999999994,"velocity":0.7480314960629921,"duration":0.16874999999998863},{"name":"A4","midi":69,"time":476.81249999999994,"velocity":0.7480314960629921,"duration":0.16874999999998863},{"name":"F#5","midi":78,"time":476.81249999999994,"velocity":0.7480314960629921,"duration":0.16874999999998863},{"name":"A5","midi":81,"time":476.81249999999994,"velocity":0.7480314960629921,"duration":0.16874999999998863},{"name":"A3","midi":57,"time":476.99999999999994,"velocity":0.7480314960629921,"duration":0.33749999999997726},{"name":"E4","midi":64,"time":476.99999999999994,"velocity":0.7480314960629921,"duration":0.33749999999997726},{"name":"A4","midi":69,"time":476.99999999999994,"velocity":0.7480314960629921,"duration":0.33749999999997726},{"name":"C#5","midi":73,"time":476.99999999999994,"velocity":0.7480314960629921,"duration":0.33749999999997726},{"name":"F#5","midi":78,"time":476.99999999999994,"velocity":0.7480314960629921,"duration":0.33749999999997726},{"name":"A4","midi":69,"time":477.37499999999994,"velocity":0.7480314960629921,"duration":0.33749999999997726},{"name":"C#5","midi":73,"time":477.37499999999994,"velocity":0.7480314960629921,"duration":0.33749999999997726},{"name":"F#5","midi":78,"time":477.37499999999994,"velocity":0.7480314960629921,"duration":0.33749999999997726},{"name":"E4","midi":64,"time":477.37499999999994,"velocity":0.7480314960629921,"duration":0.33749999999997726},{"name":"A3","midi":57,"time":477.37499999999994,"velocity":0.7480314960629921,"duration":0.33749999999997726},{"name":"C#5","midi":73,"time":477.74999999999994,"velocity":0.7480314960629921,"duration":0.5062500000000227},{"name":"A4","midi":69,"time":477.74999999999994,"velocity":0.7480314960629921,"duration":0.5062500000000227},{"name":"A3","midi":57,"time":477.74999999999994,"velocity":0.7480314960629921,"duration":0.5062500000000227},{"name":"E5","midi":76,"time":477.74999999999994,"velocity":0.7480314960629921,"duration":0.5062500000000227},{"name":"E4","midi":64,"time":477.74999999999994,"velocity":0.7480314960629921,"duration":0.5062500000000227},{"name":"C#5","midi":73,"time":478.31249999999994,"velocity":0.7480314960629921,"duration":0.16874999999998863},{"name":"E5","midi":76,"time":478.31249999999994,"velocity":0.7480314960629921,"duration":0.16874999999998863},{"name":"A3","midi":57,"time":478.31249999999994,"velocity":0.7480314960629921,"duration":0.16874999999998863},{"name":"E4","midi":64,"time":478.31249999999994,"velocity":0.7480314960629921,"duration":0.16874999999998863},{"name":"A4","midi":69,"time":478.31249999999994,"velocity":0.7480314960629921,"duration":0.16874999999998863},{"name":"A3","midi":57,"time":478.49999999999994,"velocity":0.7480314960629921,"duration":0.33749999999997726},{"name":"E4","midi":64,"time":478.49999999999994,"velocity":0.7480314960629921,"duration":0.33749999999997726},{"name":"F#5","midi":78,"time":478.49999999999994,"velocity":0.7480314960629921,"duration":0.33749999999997726},{"name":"C#5","midi":73,"time":478.49999999999994,"velocity":0.7480314960629921,"duration":0.33749999999997726},{"name":"A4","midi":69,"time":478.49999999999994,"velocity":0.7480314960629921,"duration":0.33749999999997726},{"name":"E4","midi":64,"time":478.87499999999994,"velocity":0.7480314960629921,"duration":0.33749999999997726},{"name":"F#5","midi":78,"time":478.87499999999994,"velocity":0.7480314960629921,"duration":0.33749999999997726},{"name":"C#5","midi":73,"time":478.87499999999994,"velocity":0.7480314960629921,"duration":0.33749999999997726},{"name":"A4","midi":69,"time":478.87499999999994,"velocity":0.7480314960629921,"duration":0.33749999999997726},{"name":"A3","midi":57,"time":478.87499999999994,"velocity":0.7480314960629921,"duration":0.33749999999997726},{"name":"A3","midi":57,"time":479.24999999999994,"velocity":0.7480314960629921,"duration":0.5062500000000227},{"name":"E4","midi":64,"time":479.24999999999994,"velocity":0.7480314960629921,"duration":0.5062500000000227},{"name":"A4","midi":69,"time":479.24999999999994,"velocity":0.7480314960629921,"duration":0.5062500000000227},{"name":"C#5","midi":73,"time":479.24999999999994,"velocity":0.7480314960629921,"duration":0.5062500000000227},{"name":"E5","midi":76,"time":479.24999999999994,"velocity":0.7480314960629921,"duration":0.5062500000000227},{"name":"E5","midi":76,"time":479.81249999999994,"velocity":0.7480314960629921,"duration":0.16874999999998863},{"name":"C#5","midi":73,"time":479.81249999999994,"velocity":0.7480314960629921,"duration":0.16874999999998863},{"name":"A4","midi":69,"time":479.81249999999994,"velocity":0.7480314960629921,"duration":0.16874999999998863},{"name":"A3","midi":57,"time":479.81249999999994,"velocity":0.7480314960629921,"duration":0.16874999999998863},{"name":"E4","midi":64,"time":479.81249999999994,"velocity":0.7480314960629921,"duration":0.16874999999998863},{"name":"A3","midi":57,"time":479.99999999999994,"velocity":0.7480314960629921,"duration":0.33749999999997726},{"name":"E4","midi":64,"time":479.99999999999994,"velocity":0.7480314960629921,"duration":0.33749999999997726},{"name":"A4","midi":69,"time":479.99999999999994,"velocity":0.7480314960629921,"duration":0.33749999999997726},{"name":"C#5","midi":73,"time":479.99999999999994,"velocity":0.7480314960629921,"duration":0.33749999999997726},{"name":"F#5","midi":78,"time":479.99999999999994,"velocity":0.7480314960629921,"duration":0.33749999999997726},{"name":"A3","midi":57,"time":480.37499999999994,"velocity":0.7480314960629921,"duration":0.33749999999997726},{"name":"A4","midi":69,"time":480.37499999999994,"velocity":0.7480314960629921,"duration":0.33749999999997726},{"name":"E4","midi":64,"time":480.37499999999994,"velocity":0.7480314960629921,"duration":0.33749999999997726},{"name":"F#5","midi":78,"time":480.37499999999994,"velocity":0.7480314960629921,"duration":0.33749999999997726},{"name":"C#5","midi":73,"time":480.37499999999994,"velocity":0.7480314960629921,"duration":0.33749999999997726},{"name":"C#5","midi":73,"time":480.74999999999994,"velocity":0.7480314960629921,"duration":0.5062500000000227},{"name":"E4","midi":64,"time":480.74999999999994,"velocity":0.7480314960629921,"duration":0.5062500000000227},{"name":"A3","midi":57,"time":480.74999999999994,"velocity":0.7480314960629921,"duration":0.5062500000000227},{"name":"A4","midi":69,"time":480.74999999999994,"velocity":0.7480314960629921,"duration":0.5062500000000227},{"name":"E5","midi":76,"time":480.74999999999994,"velocity":0.7480314960629921,"duration":0.5062500000000227},{"name":"A4","midi":69,"time":481.31249999999994,"velocity":0.7480314960629921,"duration":0.16874999999998863},{"name":"A3","midi":57,"time":481.31249999999994,"velocity":0.7480314960629921,"duration":0.16874999999998863},{"name":"E4","midi":64,"time":481.31249999999994,"velocity":0.7480314960629921,"duration":0.16874999999998863},{"name":"C#5","midi":73,"time":481.31249999999994,"velocity":0.7480314960629921,"duration":0.16874999999998863},{"name":"E5","midi":76,"time":481.31249999999994,"velocity":0.7480314960629921,"duration":0.16874999999998863},{"name":"A3","midi":57,"time":481.49999999999994,"velocity":0.7480314960629921,"duration":0.33749999999997726},{"name":"E4","midi":64,"time":481.49999999999994,"velocity":0.7480314960629921,"duration":0.33749999999997726},{"name":"A4","midi":69,"time":481.49999999999994,"velocity":0.7480314960629921,"duration":0.33749999999997726},{"name":"C#5","midi":73,"time":481.49999999999994,"velocity":0.7480314960629921,"duration":0.33749999999997726},{"name":"F#5","midi":78,"time":481.49999999999994,"velocity":0.7480314960629921,"duration":0.33749999999997726},{"name":"A4","midi":69,"time":481.87499999999994,"velocity":0.7480314960629921,"duration":0.33749999999997726},{"name":"E4","midi":64,"time":481.87499999999994,"velocity":0.7480314960629921,"duration":0.33749999999997726},{"name":"A3","midi":57,"time":481.87499999999994,"velocity":0.7480314960629921,"duration":0.33749999999997726},{"name":"F#5","midi":78,"time":481.87499999999994,"velocity":0.7480314960629921,"duration":0.33749999999997726},{"name":"C#5","midi":73,"time":481.87499999999994,"velocity":0.7480314960629921,"duration":0.33749999999997726},{"name":"E4","midi":64,"time":482.24999999999994,"velocity":0.7480314960629921,"duration":0.5062500000000227},{"name":"A4","midi":69,"time":482.24999999999994,"velocity":0.7480314960629921,"duration":0.5062500000000227},{"name":"A3","midi":57,"time":482.24999999999994,"velocity":0.7480314960629921,"duration":0.5062500000000227},{"name":"C#5","midi":73,"time":482.24999999999994,"velocity":0.7480314960629921,"duration":0.5062500000000227},{"name":"E5","midi":76,"time":482.24999999999994,"velocity":0.7480314960629921,"duration":0.5062500000000227},{"name":"E4","midi":64,"time":482.81249999999994,"velocity":0.7480314960629921,"duration":0.16874999999998863},{"name":"E5","midi":76,"time":482.81249999999994,"velocity":0.7480314960629921,"duration":0.16874999999998863},{"name":"A3","midi":57,"time":482.81249999999994,"velocity":0.7480314960629921,"duration":0.16874999999998863},{"name":"A4","midi":69,"time":482.81249999999994,"velocity":0.7480314960629921,"duration":0.16874999999998863},{"name":"C#5","midi":73,"time":482.81249999999994,"velocity":0.7480314960629921,"duration":0.16874999999998863},{"name":"F#5","midi":78,"time":482.99999999999994,"velocity":0.7480314960629921,"duration":0.33749999999997726},{"name":"C#5","midi":73,"time":482.99999999999994,"velocity":0.7480314960629921,"duration":0.33749999999997726},{"name":"A4","midi":69,"time":482.99999999999994,"velocity":0.7480314960629921,"duration":0.33749999999997726},{"name":"E4","midi":64,"time":482.99999999999994,"velocity":0.7480314960629921,"duration":0.33749999999997726},{"name":"A3","midi":57,"time":482.99999999999994,"velocity":0.7480314960629921,"duration":0.33749999999997726},{"name":"F#5","midi":78,"time":483.37499999999994,"velocity":0.7480314960629921,"duration":0.33749999999997726},{"name":"A3","midi":57,"time":483.37499999999994,"velocity":0.7480314960629921,"duration":0.33749999999997726},{"name":"E4","midi":64,"time":483.37499999999994,"velocity":0.7480314960629921,"duration":0.33749999999997726},{"name":"A4","midi":69,"time":483.37499999999994,"velocity":0.7480314960629921,"duration":0.33749999999997726},{"name":"C#5","midi":73,"time":483.37499999999994,"velocity":0.7480314960629921,"duration":0.33749999999997726},{"name":"A3","midi":57,"time":483.74999999999994,"velocity":0.7480314960629921,"duration":0.5062500000000227},{"name":"E5","midi":76,"time":483.74999999999994,"velocity":0.7480314960629921,"duration":0.5062500000000227},{"name":"E4","midi":64,"time":483.74999999999994,"velocity":0.7480314960629921,"duration":0.5062500000000227},{"name":"C#5","midi":73,"time":483.74999999999994,"velocity":0.7480314960629921,"duration":0.5062500000000227},{"name":"A4","midi":69,"time":483.74999999999994,"velocity":0.7480314960629921,"duration":0.5062500000000227},{"name":"A4","midi":69,"time":484.31249999999994,"velocity":0.7480314960629921,"duration":0.16874999999998863},{"name":"A3","midi":57,"time":484.31249999999994,"velocity":0.7480314960629921,"duration":0.16874999999998863},{"name":"E4","midi":64,"time":484.31249999999994,"velocity":0.7480314960629921,"duration":0.16874999999998863},{"name":"C#5","midi":73,"time":484.31249999999994,"velocity":0.7480314960629921,"duration":0.16874999999998863},{"name":"E5","midi":76,"time":484.31249999999994,"velocity":0.7480314960629921,"duration":0.16874999999998863},{"name":"E4","midi":64,"time":484.49999999999994,"velocity":0.7480314960629921,"duration":0.33749999999997726},{"name":"F#5","midi":78,"time":484.49999999999994,"velocity":0.7480314960629921,"duration":0.33749999999997726},{"name":"C#5","midi":73,"time":484.49999999999994,"velocity":0.7480314960629921,"duration":0.33749999999997726},{"name":"A4","midi":69,"time":484.49999999999994,"velocity":0.7480314960629921,"duration":0.33749999999997726},{"name":"A3","midi":57,"time":484.49999999999994,"velocity":0.7480314960629921,"duration":0.33749999999997726},{"name":"A3","midi":57,"time":484.87499999999994,"velocity":0.7480314960629921,"duration":0.33749999999997726},{"name":"A4","midi":69,"time":484.87499999999994,"velocity":0.7480314960629921,"duration":0.33749999999997726},{"name":"C#5","midi":73,"time":484.87499999999994,"velocity":0.7480314960629921,"duration":0.33749999999997726},{"name":"F#5","midi":78,"time":484.87499999999994,"velocity":0.7480314960629921,"duration":0.33749999999997726},{"name":"E4","midi":64,"time":484.87499999999994,"velocity":0.7480314960629921,"duration":0.33749999999997726},{"name":"E4","midi":64,"time":485.24999999999994,"velocity":0.7480314960629921,"duration":0.5062500000000227},{"name":"A4","midi":69,"time":485.24999999999994,"velocity":0.7480314960629921,"duration":0.5062500000000227},{"name":"C#5","midi":73,"time":485.24999999999994,"velocity":0.7480314960629921,"duration":0.5062500000000227},{"name":"E5","midi":76,"time":485.24999999999994,"velocity":0.7480314960629921,"duration":0.5062500000000227},{"name":"A3","midi":57,"time":485.24999999999994,"velocity":0.7480314960629921,"duration":0.5062500000000227},{"name":"A4","midi":69,"time":485.81249999999994,"velocity":0.7480314960629921,"duration":0.16874999999998863},{"name":"C#5","midi":73,"time":485.81249999999994,"velocity":0.7480314960629921,"duration":0.16874999999998863},{"name":"E5","midi":76,"time":485.81249999999994,"velocity":0.7480314960629921,"duration":0.16874999999998863},{"name":"A3","midi":57,"time":485.81249999999994,"velocity":0.7480314960629921,"duration":0.16874999999998863},{"name":"E4","midi":64,"time":485.81249999999994,"velocity":0.7480314960629921,"duration":0.16874999999998863},{"name":"D4","midi":62,"time":485.99999999999994,"velocity":0.7480314960629921,"duration":0.33749999999997726},{"name":"A4","midi":69,"time":485.99999999999994,"velocity":0.7480314960629921,"duration":0.33749999999997726},{"name":"D5","midi":74,"time":485.99999999999994,"velocity":0.7480314960629921,"duration":0.33749999999997726},{"name":"F#5","midi":78,"time":485.99999999999994,"velocity":0.7480314960629921,"duration":0.33749999999997726},{"name":"D4","midi":62,"time":486.37499999999994,"velocity":0.7480314960629921,"duration":0.33749999999997726},{"name":"A4","midi":69,"time":486.37499999999994,"velocity":0.7480314960629921,"duration":0.33749999999997726},{"name":"D5","midi":74,"time":486.37499999999994,"velocity":0.7480314960629921,"duration":0.33749999999997726},{"name":"F#5","midi":78,"time":486.37499999999994,"velocity":0.7480314960629921,"duration":0.33749999999997726},{"name":"D4","midi":62,"time":486.74999999999994,"velocity":0.7480314960629921,"duration":0.5062500000000227},{"name":"A4","midi":69,"time":486.74999999999994,"velocity":0.7480314960629921,"duration":0.5062500000000227},{"name":"D5","midi":74,"time":486.74999999999994,"velocity":0.7480314960629921,"duration":0.5062500000000227},{"name":"E5","midi":76,"time":486.74999999999994,"velocity":0.7480314960629921,"duration":0.5062500000000227},{"name":"D4","midi":62,"time":487.31249999999994,"velocity":0.7480314960629921,"duration":0.16874999999998863},{"name":"A4","midi":69,"time":487.31249999999994,"velocity":0.7480314960629921,"duration":0.16874999999998863},{"name":"E5","midi":76,"time":487.31249999999994,"velocity":0.7480314960629921,"duration":0.16874999999998863},{"name":"D5","midi":74,"time":487.31249999999994,"velocity":0.7480314960629921,"duration":0.16874999999998863},{"name":"D4","midi":62,"time":487.49999999999994,"velocity":0.7480314960629921,"duration":0.33749999999997726},{"name":"D5","midi":74,"time":487.49999999999994,"velocity":0.7480314960629921,"duration":0.33749999999997726},{"name":"F#5","midi":78,"time":487.49999999999994,"velocity":0.7480314960629921,"duration":0.33749999999997726},{"name":"A4","midi":69,"time":487.49999999999994,"velocity":0.7480314960629921,"duration":0.33749999999997726},{"name":"F#5","midi":78,"time":487.87499999999994,"velocity":0.7480314960629921,"duration":0.33749999999997726},{"name":"D5","midi":74,"time":487.87499999999994,"velocity":0.7480314960629921,"duration":0.33749999999997726},{"name":"A4","midi":69,"time":487.87499999999994,"velocity":0.7480314960629921,"duration":0.33749999999997726},{"name":"D4","midi":62,"time":487.87499999999994,"velocity":0.7480314960629921,"duration":0.33749999999997726},{"name":"D4","midi":62,"time":488.24999999999994,"velocity":0.7480314960629921,"duration":0.5062500000000227},{"name":"D5","midi":74,"time":488.24999999999994,"velocity":0.7480314960629921,"duration":0.5062500000000227},{"name":"A4","midi":69,"time":488.24999999999994,"velocity":0.7480314960629921,"duration":0.5062500000000227},{"name":"E5","midi":76,"time":488.24999999999994,"velocity":0.7480314960629921,"duration":0.5062500000000227},{"name":"E5","midi":76,"time":488.81249999999994,"velocity":0.7480314960629921,"duration":0.16874999999998863},{"name":"D5","midi":74,"time":488.81249999999994,"velocity":0.7480314960629921,"duration":0.16874999999998863},{"name":"D4","midi":62,"time":488.81249999999994,"velocity":0.7480314960629921,"duration":0.16874999999998863},{"name":"A4","midi":69,"time":488.81249999999994,"velocity":0.7480314960629921,"duration":0.16874999999998863},{"name":"D5","midi":74,"time":488.99999999999994,"velocity":0.7480314960629921,"duration":0.33749999999997726},{"name":"D4","midi":62,"time":488.99999999999994,"velocity":0.7480314960629921,"duration":0.33749999999997726},{"name":"A4","midi":69,"time":488.99999999999994,"velocity":0.7480314960629921,"duration":0.33749999999997726},{"name":"E5","midi":76,"time":488.99999999999994,"velocity":0.7480314960629921,"duration":0.33749999999997726},{"name":"D4","midi":62,"time":489.37499999999994,"velocity":0.7480314960629921,"duration":0.33749999999997726},{"name":"A4","midi":69,"time":489.37499999999994,"velocity":0.7480314960629921,"duration":0.33749999999997726},{"name":"D5","midi":74,"time":489.37499999999994,"velocity":0.7480314960629921,"duration":0.33749999999997726},{"name":"E5","midi":76,"time":489.37499999999994,"velocity":0.7480314960629921,"duration":0.33749999999997726},{"name":"D4","midi":62,"time":489.74999999999994,"velocity":0.7480314960629921,"duration":0.5062500000000227},{"name":"A4","midi":69,"time":489.74999999999994,"velocity":0.7480314960629921,"duration":0.5062500000000227},{"name":"D5","midi":74,"time":489.74999999999994,"velocity":0.7480314960629921,"duration":0.5062500000000227},{"name":"E5","midi":76,"time":489.74999999999994,"velocity":0.7480314960629921,"duration":0.5062500000000227},{"name":"E5","midi":76,"time":490.31249999999994,"velocity":0.7480314960629921,"duration":0.16874999999998863},{"name":"D5","midi":74,"time":490.31249999999994,"velocity":0.7480314960629921,"duration":0.16874999999998863},{"name":"A4","midi":69,"time":490.31249999999994,"velocity":0.7480314960629921,"duration":0.16874999999998863},{"name":"D4","midi":62,"time":490.31249999999994,"velocity":0.7480314960629921,"duration":0.16874999999998863},{"name":"D4","midi":62,"time":490.49999999999994,"velocity":0.7480314960629921,"duration":0.33749999999997726},{"name":"A4","midi":69,"time":490.49999999999994,"velocity":0.7480314960629921,"duration":0.33749999999997726},{"name":"D5","midi":74,"time":490.49999999999994,"velocity":0.7480314960629921,"duration":0.33749999999997726},{"name":"F#5","midi":78,"time":490.49999999999994,"velocity":0.7480314960629921,"duration":0.33749999999997726},{"name":"A4","midi":69,"time":490.87499999999994,"velocity":0.7480314960629921,"duration":0.33749999999997726},{"name":"D4","midi":62,"time":490.87499999999994,"velocity":0.7480314960629921,"duration":0.33749999999997726},{"name":"F#5","midi":78,"time":490.87499999999994,"velocity":0.7480314960629921,"duration":0.33749999999997726},{"name":"D5","midi":74,"time":490.87499999999994,"velocity":0.7480314960629921,"duration":0.33749999999997726},{"name":"D4","midi":62,"time":491.24999999999994,"velocity":0.7480314960629921,"duration":0.5062500000000227},{"name":"A4","midi":69,"time":491.24999999999994,"velocity":0.7480314960629921,"duration":0.5062500000000227},{"name":"D5","midi":74,"time":491.24999999999994,"velocity":0.7480314960629921,"duration":0.5062500000000227},{"name":"E5","midi":76,"time":491.24999999999994,"velocity":0.7480314960629921,"duration":0.5062500000000227},{"name":"D4","midi":62,"time":491.81249999999994,"velocity":0.7480314960629921,"duration":0.16874999999998863},{"name":"A4","midi":69,"time":491.81249999999994,"velocity":0.7480314960629921,"duration":0.16874999999998863},{"name":"D5","midi":74,"time":491.81249999999994,"velocity":0.7480314960629921,"duration":0.16874999999998863},{"name":"E5","midi":76,"time":491.81249999999994,"velocity":0.7480314960629921,"duration":0.16874999999998863},{"name":"F#4","midi":66,"time":491.99999999999994,"velocity":0.7480314960629921,"duration":0.33749999999997726},{"name":"B4","midi":71,"time":491.99999999999994,"velocity":0.7480314960629921,"duration":0.33749999999997726},{"name":"D5","midi":74,"time":491.99999999999994,"velocity":0.7480314960629921,"duration":0.33749999999997726},{"name":"F#5","midi":78,"time":491.99999999999994,"velocity":0.7480314960629921,"duration":0.33749999999997726},{"name":"B3","midi":59,"time":491.99999999999994,"velocity":0.7480314960629921,"duration":0.33749999999997726},{"name":"F#5","midi":78,"time":492.37499999999994,"velocity":0.7480314960629921,"duration":0.33749999999997726},{"name":"D5","midi":74,"time":492.37499999999994,"velocity":0.7480314960629921,"duration":0.33749999999997726},{"name":"B4","midi":71,"time":492.37499999999994,"velocity":0.7480314960629921,"duration":0.33749999999997726},{"name":"F#4","midi":66,"time":492.37499999999994,"velocity":0.7480314960629921,"duration":0.33749999999997726},{"name":"B3","midi":59,"time":492.37499999999994,"velocity":0.7480314960629921,"duration":0.33749999999997726},{"name":"B3","midi":59,"time":492.74999999999994,"velocity":0.7480314960629921,"duration":0.5062500000000227},{"name":"E5","midi":76,"time":492.74999999999994,"velocity":0.7480314960629921,"duration":0.5062500000000227},{"name":"F#4","midi":66,"time":492.74999999999994,"velocity":0.7480314960629921,"duration":0.5062500000000227},{"name":"B4","midi":71,"time":492.74999999999994,"velocity":0.7480314960629921,"duration":0.5062500000000227},{"name":"D5","midi":74,"time":492.74999999999994,"velocity":0.7480314960629921,"duration":0.5062500000000227},{"name":"D5","midi":74,"time":493.31249999999994,"velocity":0.7480314960629921,"duration":0.16874999999998863},{"name":"B4","midi":71,"time":493.31249999999994,"velocity":0.7480314960629921,"duration":0.16874999999998863},{"name":"F#4","midi":66,"time":493.31249999999994,"velocity":0.7480314960629921,"duration":0.16874999999998863},{"name":"B3","midi":59,"time":493.31249999999994,"velocity":0.7480314960629921,"duration":0.16874999999998863},{"name":"E5","midi":76,"time":493.31249999999994,"velocity":0.7480314960629921,"duration":0.16874999999998863},{"name":"F#5","midi":78,"time":493.49999999999994,"velocity":0.7480314960629921,"duration":0.33749999999997726},{"name":"D5","midi":74,"time":493.49999999999994,"velocity":0.7480314960629921,"duration":0.33749999999997726},{"name":"B3","midi":59,"time":493.49999999999994,"velocity":0.7480314960629921,"duration":0.33749999999997726},{"name":"B4","midi":71,"time":493.49999999999994,"velocity":0.7480314960629921,"duration":0.33749999999997726},{"name":"F#4","midi":66,"time":493.49999999999994,"velocity":0.7480314960629921,"duration":0.33749999999997726},{"name":"B4","midi":71,"time":493.87499999999994,"velocity":0.7480314960629921,"duration":0.33749999999997726},{"name":"F#5","midi":78,"time":493.87499999999994,"velocity":0.7480314960629921,"duration":0.33749999999997726},{"name":"F#4","midi":66,"time":493.87499999999994,"velocity":0.7480314960629921,"duration":0.33749999999997726},{"name":"B3","midi":59,"time":493.87499999999994,"velocity":0.7480314960629921,"duration":0.33749999999997726},{"name":"D5","midi":74,"time":493.87499999999994,"velocity":0.7480314960629921,"duration":0.33749999999997726},{"name":"B3","midi":59,"time":494.24999999999994,"velocity":0.7480314960629921,"duration":0.5062500000000227},{"name":"F#4","midi":66,"time":494.24999999999994,"velocity":0.7480314960629921,"duration":0.5062500000000227},{"name":"B4","midi":71,"time":494.24999999999994,"velocity":0.7480314960629921,"duration":0.5062500000000227},{"name":"E5","midi":76,"time":494.24999999999994,"velocity":0.7480314960629921,"duration":0.5062500000000227},{"name":"D5","midi":74,"time":494.24999999999994,"velocity":0.7480314960629921,"duration":0.5062500000000227},{"name":"B3","midi":59,"time":494.81249999999994,"velocity":0.7480314960629921,"duration":0.16874999999998863},{"name":"F#4","midi":66,"time":494.81249999999994,"velocity":0.7480314960629921,"duration":0.16874999999998863},{"name":"B4","midi":71,"time":494.81249999999994,"velocity":0.7480314960629921,"duration":0.16874999999998863},{"name":"D5","midi":74,"time":494.81249999999994,"velocity":0.7480314960629921,"duration":0.16874999999998863},{"name":"E5","midi":76,"time":494.81249999999994,"velocity":0.7480314960629921,"duration":0.16874999999998863},{"name":"C#4","midi":61,"time":494.99999999999994,"velocity":0.7480314960629921,"duration":0.33749999999997726},{"name":"G#4","midi":68,"time":494.99999999999994,"velocity":0.7480314960629921,"duration":0.33749999999997726},{"name":"B4","midi":71,"time":494.99999999999994,"velocity":0.7480314960629921,"duration":0.33749999999997726},{"name":"F#5","midi":78,"time":494.99999999999994,"velocity":0.7480314960629921,"duration":0.33749999999997726},{"name":"F#5","midi":78,"time":495.37499999999994,"velocity":0.7480314960629921,"duration":0.33749999999997726},{"name":"B4","midi":71,"time":495.37499999999994,"velocity":0.7480314960629921,"duration":0.33749999999997726},{"name":"G#4","midi":68,"time":495.37499999999994,"velocity":0.7480314960629921,"duration":0.33749999999997726},{"name":"C#4","midi":61,"time":495.37499999999994,"velocity":0.7480314960629921,"duration":0.33749999999997726},{"name":"G#4","midi":68,"time":495.74999999999994,"velocity":0.7480314960629921,"duration":0.5062500000000227},{"name":"B4","midi":71,"time":495.74999999999994,"velocity":0.7480314960629921,"duration":0.5062500000000227},{"name":"E5","midi":76,"time":495.74999999999994,"velocity":0.7480314960629921,"duration":0.5062500000000227},{"name":"C#4","midi":61,"time":495.74999999999994,"velocity":0.7480314960629921,"duration":0.5062500000000227},{"name":"B4","midi":71,"time":496.31249999999994,"velocity":0.7480314960629921,"duration":0.16874999999998863},{"name":"E5","midi":76,"time":496.31249999999994,"velocity":0.7480314960629921,"duration":0.16874999999998863},{"name":"C#4","midi":61,"time":496.31249999999994,"velocity":0.7480314960629921,"duration":0.16874999999998863},{"name":"G#4","midi":68,"time":496.31249999999994,"velocity":0.7480314960629921,"duration":0.16874999999998863},{"name":"G#4","midi":68,"time":496.49999999999994,"velocity":0.7480314960629921,"duration":0.33749999999997726},{"name":"C#4","midi":61,"time":496.49999999999994,"velocity":0.7480314960629921,"duration":0.33749999999997726},{"name":"F#5","midi":78,"time":496.49999999999994,"velocity":0.7480314960629921,"duration":0.33749999999997726},{"name":"B4","midi":71,"time":496.49999999999994,"velocity":0.7480314960629921,"duration":0.33749999999997726},{"name":"C#4","midi":61,"time":496.87499999999994,"velocity":0.7480314960629921,"duration":0.33749999999997726},{"name":"G#4","midi":68,"time":496.87499999999994,"velocity":0.7480314960629921,"duration":0.33749999999997726},{"name":"B4","midi":71,"time":496.87499999999994,"velocity":0.7480314960629921,"duration":0.33749999999997726},{"name":"F#5","midi":78,"time":496.87499999999994,"velocity":0.7480314960629921,"duration":0.33749999999997726},{"name":"E5","midi":76,"time":497.24999999999994,"velocity":0.7480314960629921,"duration":0.5062500000000227},{"name":"B4","midi":71,"time":497.24999999999994,"velocity":0.7480314960629921,"duration":0.5062500000000227},{"name":"G#4","midi":68,"time":497.24999999999994,"velocity":0.7480314960629921,"duration":0.5062500000000227},{"name":"C#4","midi":61,"time":497.24999999999994,"velocity":0.7480314960629921,"duration":0.5062500000000227},{"name":"E5","midi":76,"time":497.81249999999994,"velocity":0.7480314960629921,"duration":0.16874999999998863},{"name":"C#4","midi":61,"time":497.81249999999994,"velocity":0.7480314960629921,"duration":0.16874999999998863},{"name":"B4","midi":71,"time":497.81249999999994,"velocity":0.7480314960629921,"duration":0.16874999999998863},{"name":"G#4","midi":68,"time":497.81249999999994,"velocity":0.7480314960629921,"duration":0.16874999999998863},{"name":"A4","midi":69,"time":497.99999999999994,"velocity":0.7480314960629921,"duration":0.33749999999997726},{"name":"D4","midi":62,"time":497.99999999999994,"velocity":0.7480314960629921,"duration":0.33749999999997726},{"name":"A5","midi":81,"time":497.99999999999994,"velocity":0.7480314960629921,"duration":0.33749999999997726},{"name":"F#5","midi":78,"time":497.99999999999994,"velocity":0.7480314960629921,"duration":0.33749999999997726},{"name":"D5","midi":74,"time":497.99999999999994,"velocity":0.7480314960629921,"duration":0.33749999999997726},{"name":"D4","midi":62,"time":498.37499999999994,"velocity":0.7480314960629921,"duration":0.33749999999997726},{"name":"D5","midi":74,"time":498.37499999999994,"velocity":0.7480314960629921,"duration":0.33749999999997726},{"name":"A4","midi":69,"time":498.37499999999994,"velocity":0.7480314960629921,"duration":0.33749999999997726},{"name":"A5","midi":81,"time":498.37499999999994,"velocity":0.7480314960629921,"duration":0.33749999999997726},{"name":"F#5","midi":78,"time":498.37499999999994,"velocity":0.7480314960629921,"duration":0.33749999999997726},{"name":"F#5","midi":78,"time":498.74999999999994,"velocity":0.7480314960629921,"duration":0.5062500000000227},{"name":"D4","midi":62,"time":498.74999999999994,"velocity":0.7480314960629921,"duration":0.5062500000000227},{"name":"A4","midi":69,"time":498.74999999999994,"velocity":0.7480314960629921,"duration":0.5062500000000227},{"name":"A5","midi":81,"time":498.74999999999994,"velocity":0.7480314960629921,"duration":0.5062500000000227},{"name":"D5","midi":74,"time":498.74999999999994,"velocity":0.7480314960629921,"duration":0.5062500000000227},{"name":"A4","midi":69,"time":499.31249999999994,"velocity":0.7480314960629921,"duration":0.16874999999998863},{"name":"D4","midi":62,"time":499.31249999999994,"velocity":0.7480314960629921,"duration":0.16874999999998863},{"name":"A5","midi":81,"time":499.31249999999994,"velocity":0.7480314960629921,"duration":0.16874999999998863},{"name":"F#5","midi":78,"time":499.31249999999994,"velocity":0.7480314960629921,"duration":0.16874999999998863},{"name":"D5","midi":74,"time":499.31249999999994,"velocity":0.7480314960629921,"duration":0.16874999999998863},{"name":"D4","midi":62,"time":499.49999999999994,"velocity":0.7480314960629921,"duration":0.33749999999997726},{"name":"A4","midi":69,"time":499.49999999999994,"velocity":0.7480314960629921,"duration":0.33749999999997726},{"name":"A5","midi":81,"time":499.49999999999994,"velocity":0.7480314960629921,"duration":0.33749999999997726},{"name":"F#5","midi":78,"time":499.49999999999994,"velocity":0.7480314960629921,"duration":0.33749999999997726},{"name":"D5","midi":74,"time":499.49999999999994,"velocity":0.7480314960629921,"duration":0.33749999999997726},{"name":"D4","midi":62,"time":499.87499999999994,"velocity":0.7480314960629921,"duration":0.33749999999997726},{"name":"A4","midi":69,"time":499.87499999999994,"velocity":0.7480314960629921,"duration":0.33749999999997726},{"name":"D5","midi":74,"time":499.87499999999994,"velocity":0.7480314960629921,"duration":0.33749999999997726},{"name":"F#5","midi":78,"time":499.87499999999994,"velocity":0.7480314960629921,"duration":0.33749999999997726},{"name":"A5","midi":81,"time":499.87499999999994,"velocity":0.7480314960629921,"duration":0.33749999999997726},{"name":"A4","midi":69,"time":500.24999999999994,"velocity":0.7480314960629921,"duration":0.5062500000000227},{"name":"A5","midi":81,"time":500.24999999999994,"velocity":0.7480314960629921,"duration":0.5062500000000227},{"name":"F#5","midi":78,"time":500.24999999999994,"velocity":0.7480314960629921,"duration":0.5062500000000227},{"name":"D5","midi":74,"time":500.24999999999994,"velocity":0.7480314960629921,"duration":0.5062500000000227},{"name":"D4","midi":62,"time":500.24999999999994,"velocity":0.7480314960629921,"duration":0.5062500000000227},{"name":"A4","midi":69,"time":500.81249999999994,"velocity":0.7480314960629921,"duration":1.5874999999999773},{"name":"A5","midi":81,"time":500.81249999999994,"velocity":0.7480314960629921,"duration":1.5874999999999773},{"name":"D4","midi":62,"time":500.81249999999994,"velocity":0.7480314960629921,"duration":1.5874999999999773},{"name":"F#5","midi":78,"time":500.81249999999994,"velocity":0.7480314960629921,"duration":1.5874999999999773},{"name":"D5","midi":74,"time":500.81249999999994,"velocity":0.7480314960629921,"duration":1.5874999999999773},{"name":"A4","midi":69,"time":502.49999999999994,"velocity":0.7480314960629921,"duration":0.16874999999998863},{"name":"A3","midi":57,"time":502.49999999999994,"velocity":0.7480314960629921,"duration":0.16874999999998863},{"name":"E4","midi":64,"time":502.49999999999994,"velocity":0.7480314960629921,"duration":0.16874999999998863},{"name":"C5","midi":72,"time":502.49999999999994,"velocity":0.7480314960629921,"duration":0.16874999999998863},{"name":"F5","midi":77,"time":502.49999999999994,"velocity":0.7480314960629921,"duration":0.16874999999998863},{"name":"A5","midi":81,"time":502.49999999999994,"velocity":0.7480314960629921,"duration":0.16874999999998863},{"name":"F5","midi":77,"time":502.68749999999994,"velocity":0.7480314960629921,"duration":0.16874999999998863},{"name":"A5","midi":81,"time":502.68749999999994,"velocity":0.7480314960629921,"duration":0.16874999999998863},{"name":"A3","midi":57,"time":502.68749999999994,"velocity":0.7480314960629921,"duration":0.16874999999998863},{"name":"E4","midi":64,"time":502.68749999999994,"velocity":0.7480314960629921,"duration":0.16874999999998863},{"name":"A4","midi":69,"time":502.68749999999994,"velocity":0.7480314960629921,"duration":0.16874999999998863},{"name":"C5","midi":72,"time":502.68749999999994,"velocity":0.7480314960629921,"duration":0.16874999999998863},{"name":"A5","midi":81,"time":502.87499999999994,"velocity":0.7480314960629921,"duration":0.16874999999998863},{"name":"F5","midi":77,"time":502.87499999999994,"velocity":0.7480314960629921,"duration":0.16874999999998863},{"name":"C5","midi":72,"time":502.87499999999994,"velocity":0.7480314960629921,"duration":0.16874999999998863},{"name":"E4","midi":64,"time":502.87499999999994,"velocity":0.7480314960629921,"duration":0.16874999999998863},{"name":"A3","midi":57,"time":502.87499999999994,"velocity":0.7480314960629921,"duration":0.16874999999998863},{"name":"A4","midi":69,"time":502.87499999999994,"velocity":0.7480314960629921,"duration":0.16874999999998863},{"name":"A3","midi":57,"time":503.06249999999994,"velocity":0.7480314960629921,"duration":0.16874999999998863},{"name":"E4","midi":64,"time":503.06249999999994,"velocity":0.7480314960629921,"duration":0.16874999999998863},{"name":"A4","midi":69,"time":503.06249999999994,"velocity":0.7480314960629921,"duration":0.16874999999998863},{"name":"C5","midi":72,"time":503.06249999999994,"velocity":0.7480314960629921,"duration":0.16874999999998863},{"name":"F5","midi":77,"time":503.06249999999994,"velocity":0.7480314960629921,"duration":0.16874999999998863},{"name":"A5","midi":81,"time":503.06249999999994,"velocity":0.7480314960629921,"duration":0.16874999999998863},{"name":"A3","midi":57,"time":503.24999999999994,"velocity":0.7480314960629921,"duration":0.16874999999998863},{"name":"A5","midi":81,"time":503.24999999999994,"velocity":0.7480314960629921,"duration":0.16874999999998863},{"name":"C5","midi":72,"time":503.24999999999994,"velocity":0.7480314960629921,"duration":0.16874999999998863},{"name":"A4","midi":69,"time":503.24999999999994,"velocity":0.7480314960629921,"duration":0.16874999999998863},{"name":"E4","midi":64,"time":503.24999999999994,"velocity":0.7480314960629921,"duration":0.16874999999998863},{"name":"F5","midi":77,"time":503.24999999999994,"velocity":0.7480314960629921,"duration":0.16874999999998863},{"name":"C5","midi":72,"time":503.43749999999994,"velocity":0.7480314960629921,"duration":0.16874999999998863},{"name":"F5","midi":77,"time":503.43749999999994,"velocity":0.7480314960629921,"duration":0.16874999999998863},{"name":"A5","midi":81,"time":503.43749999999994,"velocity":0.7480314960629921,"duration":0.16874999999998863},{"name":"A3","midi":57,"time":503.43749999999994,"velocity":0.7480314960629921,"duration":0.16874999999998863},{"name":"E4","midi":64,"time":503.43749999999994,"velocity":0.7480314960629921,"duration":0.16874999999998863},{"name":"A4","midi":69,"time":503.43749999999994,"velocity":0.7480314960629921,"duration":0.16874999999998863},{"name":"F5","midi":77,"time":503.62499999999994,"velocity":0.7480314960629921,"duration":0.16874999999998863},{"name":"C5","midi":72,"time":503.62499999999994,"velocity":0.7480314960629921,"duration":0.16874999999998863},{"name":"A4","midi":69,"time":503.62499999999994,"velocity":0.7480314960629921,"duration":0.16874999999998863},{"name":"E4","midi":64,"time":503.62499999999994,"velocity":0.7480314960629921,"duration":0.16874999999998863},{"name":"A3","midi":57,"time":503.62499999999994,"velocity":0.7480314960629921,"duration":0.16874999999998863},{"name":"A5","midi":81,"time":503.62499999999994,"velocity":0.7480314960629921,"duration":0.16874999999998863},{"name":"A3","midi":57,"time":503.81249999999994,"velocity":0.7480314960629921,"duration":0.16874999999998863},{"name":"A5","midi":81,"time":503.81249999999994,"velocity":0.7480314960629921,"duration":0.16874999999998863},{"name":"C5","midi":72,"time":503.81249999999994,"velocity":0.7480314960629921,"duration":0.16874999999998863},{"name":"F5","midi":77,"time":503.81249999999994,"velocity":0.7480314960629921,"duration":0.16874999999998863},{"name":"E4","midi":64,"time":503.81249999999994,"velocity":0.7480314960629921,"duration":0.16874999999998863},{"name":"A4","midi":69,"time":503.81249999999994,"velocity":0.7480314960629921,"duration":0.16874999999998863},{"name":"C5","midi":72,"time":503.99999999999994,"velocity":0.7480314960629921,"duration":0.16874999999998863},{"name":"F5","midi":77,"time":503.99999999999994,"velocity":0.7480314960629921,"duration":0.16874999999998863},{"name":"A5","midi":81,"time":503.99999999999994,"velocity":0.7480314960629921,"duration":0.16874999999998863},{"name":"A3","midi":57,"time":503.99999999999994,"velocity":0.7480314960629921,"duration":0.16874999999998863},{"name":"E4","midi":64,"time":503.99999999999994,"velocity":0.7480314960629921,"duration":0.16874999999998863},{"name":"A4","midi":69,"time":503.99999999999994,"velocity":0.7480314960629921,"duration":0.16874999999998863},{"name":"A3","midi":57,"time":504.18749999999994,"velocity":0.7480314960629921,"duration":0.16874999999998863},{"name":"E4","midi":64,"time":504.18749999999994,"velocity":0.7480314960629921,"duration":0.16874999999998863},{"name":"A4","midi":69,"time":504.18749999999994,"velocity":0.7480314960629921,"duration":0.16874999999998863},{"name":"C5","midi":72,"time":504.18749999999994,"velocity":0.7480314960629921,"duration":0.16874999999998863},{"name":"F5","midi":77,"time":504.18749999999994,"velocity":0.7480314960629921,"duration":0.16874999999998863},{"name":"A5","midi":81,"time":504.18749999999994,"velocity":0.7480314960629921,"duration":0.16874999999998863},{"name":"A5","midi":81,"time":504.37499999999994,"velocity":0.7480314960629921,"duration":0.16874999999998863},{"name":"F5","midi":77,"time":504.37499999999994,"velocity":0.7480314960629921,"duration":0.16874999999998863},{"name":"C5","midi":72,"time":504.37499999999994,"velocity":0.7480314960629921,"duration":0.16874999999998863},{"name":"A4","midi":69,"time":504.37499999999994,"velocity":0.7480314960629921,"duration":0.16874999999998863},{"name":"E4","midi":64,"time":504.37499999999994,"velocity":0.7480314960629921,"duration":0.16874999999998863},{"name":"A3","midi":57,"time":504.37499999999994,"velocity":0.7480314960629921,"duration":0.16874999999998863},{"name":"A3","midi":57,"time":504.56249999999994,"velocity":0.7480314960629921,"duration":0.16874999999998863},{"name":"C5","midi":72,"time":504.56249999999994,"velocity":0.7480314960629921,"duration":0.16874999999998863},{"name":"A5","midi":81,"time":504.56249999999994,"velocity":0.7480314960629921,"duration":0.16874999999998863},{"name":"F5","midi":77,"time":504.56249999999994,"velocity":0.7480314960629921,"duration":0.16874999999998863},{"name":"A4","midi":69,"time":504.56249999999994,"velocity":0.7480314960629921,"duration":0.16874999999998863},{"name":"E4","midi":64,"time":504.56249999999994,"velocity":0.7480314960629921,"duration":0.16874999999998863},{"name":"A5","midi":81,"time":504.74999999999994,"velocity":0.7480314960629921,"duration":0.16874999999998863},{"name":"A4","midi":69,"time":504.74999999999994,"velocity":0.7480314960629921,"duration":0.16874999999998863},{"name":"C5","midi":72,"time":504.74999999999994,"velocity":0.7480314960629921,"duration":0.16874999999998863},{"name":"A3","midi":57,"time":504.74999999999994,"velocity":0.7480314960629921,"duration":0.16874999999998863},{"name":"F5","midi":77,"time":504.74999999999994,"velocity":0.7480314960629921,"duration":0.16874999999998863},{"name":"E4","midi":64,"time":504.74999999999994,"velocity":0.7480314960629921,"duration":0.16874999999998863},{"name":"A4","midi":69,"time":504.93749999999994,"velocity":0.7480314960629921,"duration":0.16874999999998863},{"name":"E4","midi":64,"time":504.93749999999994,"velocity":0.7480314960629921,"duration":0.16874999999998863},{"name":"A3","midi":57,"time":504.93749999999994,"velocity":0.7480314960629921,"duration":0.16874999999998863},{"name":"A5","midi":81,"time":504.93749999999994,"velocity":0.7480314960629921,"duration":0.16874999999998863},{"name":"C5","midi":72,"time":504.93749999999994,"velocity":0.7480314960629921,"duration":0.16874999999998863},{"name":"F5","midi":77,"time":504.93749999999994,"velocity":0.7480314960629921,"duration":0.16874999999998863},{"name":"E4","midi":64,"time":505.12499999999994,"velocity":0.7480314960629921,"duration":0.16874999999998863},{"name":"A4","midi":69,"time":505.12499999999994,"velocity":0.7480314960629921,"duration":0.16874999999998863},{"name":"C5","midi":72,"time":505.12499999999994,"velocity":0.7480314960629921,"duration":0.16874999999998863},{"name":"F5","midi":77,"time":505.12499999999994,"velocity":0.7480314960629921,"duration":0.16874999999998863},{"name":"A5","midi":81,"time":505.12499999999994,"velocity":0.7480314960629921,"duration":0.16874999999998863},{"name":"A3","midi":57,"time":505.12499999999994,"velocity":0.7480314960629921,"duration":0.16874999999998863},{"name":"E4","midi":64,"time":505.31249999999994,"velocity":0.7480314960629921,"duration":0.16874999999998863},{"name":"A4","midi":69,"time":505.31249999999994,"velocity":0.7480314960629921,"duration":0.16874999999998863},{"name":"C5","midi":72,"time":505.31249999999994,"velocity":0.7480314960629921,"duration":0.16874999999998863},{"name":"F5","midi":77,"time":505.31249999999994,"velocity":0.7480314960629921,"duration":0.16874999999998863},{"name":"A5","midi":81,"time":505.31249999999994,"velocity":0.7480314960629921,"duration":0.16874999999998863},{"name":"A3","midi":57,"time":505.31249999999994,"velocity":0.7480314960629921,"duration":0.16874999999998863},{"name":"A5","midi":81,"time":505.49999999999994,"velocity":0.7480314960629921,"duration":0.16874999999998863},{"name":"C5","midi":72,"time":505.49999999999994,"velocity":0.7480314960629921,"duration":0.16874999999998863},{"name":"A4","midi":69,"time":505.49999999999994,"velocity":0.7480314960629921,"duration":0.16874999999998863},{"name":"E4","midi":64,"time":505.49999999999994,"velocity":0.7480314960629921,"duration":0.16874999999998863},{"name":"A3","midi":57,"time":505.49999999999994,"velocity":0.7480314960629921,"duration":0.16874999999998863},{"name":"F5","midi":77,"time":505.49999999999994,"velocity":0.7480314960629921,"duration":0.16874999999998863},{"name":"A3","midi":57,"time":505.68749999999994,"velocity":0.7480314960629921,"duration":0.16874999999998863},{"name":"C5","midi":72,"time":505.68749999999994,"velocity":0.7480314960629921,"duration":0.16874999999998863},{"name":"F5","midi":77,"time":505.68749999999994,"velocity":0.7480314960629921,"duration":0.16874999999998863},{"name":"E4","midi":64,"time":505.68749999999994,"velocity":0.7480314960629921,"duration":0.16874999999998863},{"name":"A5","midi":81,"time":505.68749999999994,"velocity":0.7480314960629921,"duration":0.16874999999998863},{"name":"A4","midi":69,"time":505.68749999999994,"velocity":0.7480314960629921,"duration":0.16874999999998863},{"name":"F5","midi":77,"time":505.87499999999994,"velocity":0.7480314960629921,"duration":0.16874999999998863},{"name":"C5","midi":72,"time":505.87499999999994,"velocity":0.7480314960629921,"duration":0.16874999999998863},{"name":"A4","midi":69,"time":505.87499999999994,"velocity":0.7480314960629921,"duration":0.16874999999998863},{"name":"E4","midi":64,"time":505.87499999999994,"velocity":0.7480314960629921,"duration":0.16874999999998863},{"name":"A3","midi":57,"time":505.87499999999994,"velocity":0.7480314960629921,"duration":0.16874999999998863},{"name":"A5","midi":81,"time":505.87499999999994,"velocity":0.7480314960629921,"duration":0.16874999999998863},{"name":"A5","midi":81,"time":506.06249999999994,"velocity":0.7480314960629921,"duration":0.16874999999998863},{"name":"F5","midi":77,"time":506.06249999999994,"velocity":0.7480314960629921,"duration":0.16874999999998863},{"name":"C5","midi":72,"time":506.06249999999994,"velocity":0.7480314960629921,"duration":0.16874999999998863},{"name":"A4","midi":69,"time":506.06249999999994,"velocity":0.7480314960629921,"duration":0.16874999999998863},{"name":"E4","midi":64,"time":506.06249999999994,"velocity":0.7480314960629921,"duration":0.16874999999998863},{"name":"A3","midi":57,"time":506.06249999999994,"velocity":0.7480314960629921,"duration":0.16874999999998863},{"name":"E4","midi":64,"time":506.24999999999994,"velocity":0.7480314960629921,"duration":0.16874999999998863},{"name":"A5","midi":81,"time":506.24999999999994,"velocity":0.7480314960629921,"duration":0.16874999999998863},{"name":"F5","midi":77,"time":506.24999999999994,"velocity":0.7480314960629921,"duration":0.16874999999998863},{"name":"C5","midi":72,"time":506.24999999999994,"velocity":0.7480314960629921,"duration":0.16874999999998863},{"name":"A4","midi":69,"time":506.24999999999994,"velocity":0.7480314960629921,"duration":0.16874999999998863},{"name":"A3","midi":57,"time":506.24999999999994,"velocity":0.7480314960629921,"duration":0.16874999999998863},{"name":"E4","midi":64,"time":506.43749999999994,"velocity":0.7480314960629921,"duration":0.16874999999998863},{"name":"A4","midi":69,"time":506.43749999999994,"velocity":0.7480314960629921,"duration":0.16874999999998863},{"name":"C5","midi":72,"time":506.43749999999994,"velocity":0.7480314960629921,"duration":0.16874999999998863},{"name":"A3","midi":57,"time":506.43749999999994,"velocity":0.7480314960629921,"duration":0.16874999999998863},{"name":"A5","midi":81,"time":506.43749999999994,"velocity":0.7480314960629921,"duration":0.16874999999998863},{"name":"F5","midi":77,"time":506.43749999999994,"velocity":0.7480314960629921,"duration":0.16874999999998863},{"name":"A3","midi":57,"time":506.62499999999994,"velocity":0.7480314960629921,"duration":0.16874999999998863},{"name":"E4","midi":64,"time":506.62499999999994,"velocity":0.7480314960629921,"duration":0.16874999999998863},{"name":"A4","midi":69,"time":506.62499999999994,"velocity":0.7480314960629921,"duration":0.16874999999998863},{"name":"C5","midi":72,"time":506.62499999999994,"velocity":0.7480314960629921,"duration":0.16874999999998863},{"name":"F5","midi":77,"time":506.62499999999994,"velocity":0.7480314960629921,"duration":0.16874999999998863},{"name":"A5","midi":81,"time":506.62499999999994,"velocity":0.7480314960629921,"duration":0.16874999999998863},{"name":"A4","midi":69,"time":506.81249999999994,"velocity":0.7480314960629921,"duration":0.16874999999998863},{"name":"C5","midi":72,"time":506.81249999999994,"velocity":0.7480314960629921,"duration":0.16874999999998863},{"name":"F5","midi":77,"time":506.81249999999994,"velocity":0.7480314960629921,"duration":0.16874999999998863},{"name":"A5","midi":81,"time":506.81249999999994,"velocity":0.7480314960629921,"duration":0.16874999999998863},{"name":"A3","midi":57,"time":506.81249999999994,"velocity":0.7480314960629921,"duration":0.16874999999998863},{"name":"E4","midi":64,"time":506.81249999999994,"velocity":0.7480314960629921,"duration":0.16874999999998863},{"name":"E4","midi":64,"time":506.99999999999994,"velocity":0.7480314960629921,"duration":0.16874999999998863},{"name":"A4","midi":69,"time":506.99999999999994,"velocity":0.7480314960629921,"duration":0.16874999999998863},{"name":"C5","midi":72,"time":506.99999999999994,"velocity":0.7480314960629921,"duration":0.16874999999998863},{"name":"F5","midi":77,"time":506.99999999999994,"velocity":0.7480314960629921,"duration":0.16874999999998863},{"name":"A5","midi":81,"time":506.99999999999994,"velocity":0.7480314960629921,"duration":0.16874999999998863},{"name":"A3","midi":57,"time":506.99999999999994,"velocity":0.7480314960629921,"duration":0.16874999999998863},{"name":"A5","midi":81,"time":507.18749999999994,"velocity":0.7480314960629921,"duration":0.16874999999998863},{"name":"C5","midi":72,"time":507.18749999999994,"velocity":0.7480314960629921,"duration":0.16874999999998863},{"name":"A4","midi":69,"time":507.18749999999994,"velocity":0.7480314960629921,"duration":0.16874999999998863},{"name":"E4","midi":64,"time":507.18749999999994,"velocity":0.7480314960629921,"duration":0.16874999999998863},{"name":"A3","midi":57,"time":507.18749999999994,"velocity":0.7480314960629921,"duration":0.16874999999998863},{"name":"F5","midi":77,"time":507.18749999999994,"velocity":0.7480314960629921,"duration":0.16874999999998863},{"name":"A3","midi":57,"time":507.37499999999994,"velocity":0.7480314960629921,"duration":0.16874999999998863},{"name":"A4","midi":69,"time":507.37499999999994,"velocity":0.7480314960629921,"duration":0.16874999999998863},{"name":"E4","midi":64,"time":507.37499999999994,"velocity":0.7480314960629921,"duration":0.16874999999998863},{"name":"C5","midi":72,"time":507.37499999999994,"velocity":0.7480314960629921,"duration":0.16874999999998863},{"name":"F5","midi":77,"time":507.37499999999994,"velocity":0.7480314960629921,"duration":0.16874999999998863},{"name":"A5","midi":81,"time":507.37499999999994,"velocity":0.7480314960629921,"duration":0.16874999999998863},{"name":"A3","midi":57,"time":507.56249999999994,"velocity":0.7480314960629921,"duration":0.16874999999998863},{"name":"A5","midi":81,"time":507.56249999999994,"velocity":0.7480314960629921,"duration":0.16874999999998863},{"name":"F5","midi":77,"time":507.56249999999994,"velocity":0.7480314960629921,"duration":0.16874999999998863},{"name":"C5","midi":72,"time":507.56249999999994,"velocity":0.7480314960629921,"duration":0.16874999999998863},{"name":"A4","midi":69,"time":507.56249999999994,"velocity":0.7480314960629921,"duration":0.16874999999998863},{"name":"E4","midi":64,"time":507.56249999999994,"velocity":0.7480314960629921,"duration":0.16874999999998863},{"name":"A3","midi":57,"time":507.74999999999994,"velocity":0.7480314960629921,"duration":0.16874999999998863},{"name":"A4","midi":69,"time":507.74999999999994,"velocity":0.7480314960629921,"duration":0.16874999999998863},{"name":"C5","midi":72,"time":507.74999999999994,"velocity":0.7480314960629921,"duration":0.16874999999998863},{"name":"F5","midi":77,"time":507.74999999999994,"velocity":0.7480314960629921,"duration":0.16874999999998863},{"name":"A5","midi":81,"time":507.74999999999994,"velocity":0.7480314960629921,"duration":0.16874999999998863},{"name":"E4","midi":64,"time":507.74999999999994,"velocity":0.7480314960629921,"duration":0.16874999999998863},{"name":"A5","midi":81,"time":507.93749999999994,"velocity":0.7480314960629921,"duration":0.16874999999998863},{"name":"F5","midi":77,"time":507.93749999999994,"velocity":0.7480314960629921,"duration":0.16874999999998863},{"name":"C5","midi":72,"time":507.93749999999994,"velocity":0.7480314960629921,"duration":0.16874999999998863},{"name":"A4","midi":69,"time":507.93749999999994,"velocity":0.7480314960629921,"duration":0.16874999999998863},{"name":"E4","midi":64,"time":507.93749999999994,"velocity":0.7480314960629921,"duration":0.16874999999998863},{"name":"A3","midi":57,"time":507.93749999999994,"velocity":0.7480314960629921,"duration":0.16874999999998863},{"name":"A3","midi":57,"time":508.12499999999994,"velocity":0.7480314960629921,"duration":0.16874999999998863},{"name":"E4","midi":64,"time":508.12499999999994,"velocity":0.7480314960629921,"duration":0.16874999999998863},{"name":"A4","midi":69,"time":508.12499999999994,"velocity":0.7480314960629921,"duration":0.16874999999998863},{"name":"C5","midi":72,"time":508.12499999999994,"velocity":0.7480314960629921,"duration":0.16874999999998863},{"name":"F5","midi":77,"time":508.12499999999994,"velocity":0.7480314960629921,"duration":0.16874999999998863},{"name":"A5","midi":81,"time":508.12499999999994,"velocity":0.7480314960629921,"duration":0.16874999999998863},{"name":"A5","midi":81,"time":508.31249999999994,"velocity":0.7480314960629921,"duration":0.16874999999998863},{"name":"F5","midi":77,"time":508.31249999999994,"velocity":0.7480314960629921,"duration":0.16874999999998863},{"name":"C5","midi":72,"time":508.31249999999994,"velocity":0.7480314960629921,"duration":0.16874999999998863},{"name":"A4","midi":69,"time":508.31249999999994,"velocity":0.7480314960629921,"duration":0.16874999999998863},{"name":"E4","midi":64,"time":508.31249999999994,"velocity":0.7480314960629921,"duration":0.16874999999998863},{"name":"A3","midi":57,"time":508.31249999999994,"velocity":0.7480314960629921,"duration":0.16874999999998863},{"name":"A3","midi":57,"time":508.49999999999994,"velocity":0.7480314960629921,"duration":14.900000000000034},{"name":"E4","midi":64,"time":508.49999999999994,"velocity":0.7480314960629921,"duration":14.900000000000034},{"name":"A4","midi":69,"time":508.49999999999994,"velocity":0.7480314960629921,"duration":14.900000000000034},{"name":"C5","midi":72,"time":508.49999999999994,"velocity":0.7480314960629921,"duration":14.900000000000034},{"name":"F5","midi":77,"time":508.49999999999994,"velocity":0.7480314960629921,"duration":14.900000000000034},{"name":"A5","midi":81,"time":508.49999999999994,"velocity":0.7480314960629921,"duration":14.900000000000034}]},{"instrumentFamily":"guitar","notes":[{"name":"G#5","midi":80,"time":45,"velocity":0.7480314960629921,"duration":1.0249999999999986},{"name":"E5","midi":76,"time":46.125,"velocity":0.7480314960629921,"duration":0.6749999999999972},{"name":"C#5","midi":73,"time":46.875,"velocity":0.7480314960629921,"duration":0.3374999999999986},{"name":"E5","midi":76,"time":47.25,"velocity":0.7480314960629921,"duration":0.6749999999999972},{"name":"C#5","midi":73,"time":48,"velocity":0.7480314960629921,"duration":1.0249999999999986},{"name":"G#4","midi":68,"time":51,"velocity":0.7480314960629921,"duration":0.3374999999999986},{"name":"G#4","midi":68,"time":51.375,"velocity":0.7480314960629921,"duration":0.6749999999999972},{"name":"A4","midi":69,"time":52.125,"velocity":0.7480314960629921,"duration":1.0249999999999986},{"name":"B4","midi":71,"time":53.25,"velocity":0.7480314960629921,"duration":0.6749999999999972},{"name":"B4","midi":71,"time":54,"velocity":0.7480314960629921,"duration":0.3374999999999986},{"name":"C#5","midi":73,"time":54.375,"velocity":0.7480314960629921,"duration":0.6749999999999972},{"name":"A4","midi":69,"time":55.125,"velocity":0.7480314960629921,"duration":1.0249999999999986},{"name":"G#4","midi":68,"time":57,"velocity":0.7480314960629921,"duration":1.0249999999999986},{"name":"F#4","midi":66,"time":58.125,"velocity":0.7480314960629921,"duration":1.0249999999999986},{"name":"C#5","midi":73,"time":59.25,"velocity":0.7480314960629921,"duration":0.6749999999999972},{"name":"G#5","midi":80,"time":63,"velocity":0.7480314960629921,"duration":1.0250000000000057},{"name":"E5","midi":76,"time":64.125,"velocity":0.7480314960629921,"duration":0.6749999999999972},{"name":"C#5","midi":73,"time":64.875,"velocity":0.7480314960629921,"duration":0.3375000000000057},{"name":"E5","midi":76,"time":65.25,"velocity":0.7480314960629921,"duration":0.6749999999999972},{"name":"C#5","midi":73,"time":66,"velocity":0.7480314960629921,"duration":1.0250000000000057},{"name":"G#4","midi":68,"time":69,"velocity":0.7480314960629921,"duration":0.3375000000000057},{"name":"G#4","midi":68,"time":69.375,"velocity":0.7480314960629921,"duration":0.6749999999999972},{"name":"A4","midi":69,"time":70.125,"velocity":0.7480314960629921,"duration":1.0250000000000057},{"name":"B4","midi":71,"time":71.25,"velocity":0.7480314960629921,"duration":0.6749999999999972},{"name":"B4","midi":71,"time":72,"velocity":0.7480314960629921,"duration":0.3375000000000057},{"name":"C#5","midi":73,"time":72.375,"velocity":0.7480314960629921,"duration":0.6749999999999972},{"name":"A4","midi":69,"time":73.125,"velocity":0.7480314960629921,"duration":1.0250000000000057},{"name":"G#4","midi":68,"time":75,"velocity":0.7480314960629921,"duration":1.0250000000000057},{"name":"F#4","midi":66,"time":76.125,"velocity":0.7480314960629921,"duration":1.0250000000000057},{"name":"C#5","midi":73,"time":77.25,"velocity":0.7480314960629921,"duration":0.6749999999999972},{"name":"A4","midi":69,"time":81,"velocity":0.7480314960629921,"duration":1.0250000000000057},{"name":"B4","midi":71,"time":82.125,"velocity":0.7480314960629921,"duration":1.0250000000000057},{"name":"C#5","midi":73,"time":83.25,"velocity":0.7480314960629921,"duration":0.6749999999999972},{"name":"G#5","midi":80,"time":84,"velocity":0.7480314960629921,"duration":1.0250000000000057},{"name":"A5","midi":81,"time":88.5,"velocity":0.7480314960629921,"duration":0.5062499999999943},{"name":"G#5","midi":80,"time":89.0625,"velocity":0.7480314960629921,"duration":0.5062499999999943},{"name":"E5","midi":76,"time":89.625,"velocity":0.7480314960629921,"duration":0.3375000000000057},{"name":"C#5","midi":73,"time":90,"velocity":0.7480314960629921,"duration":1.0250000000000057},{"name":"C#5","midi":73,"time":92.625,"velocity":0.7480314960629921,"duration":0.3375000000000057},{"name":"D5","midi":74,"time":93,"velocity":0.7480314960629921,"duration":1.0250000000000057},{"name":"E5","midi":76,"time":94.125,"velocity":0.7480314960629921,"duration":1.0250000000000057},{"name":"C#5","midi":73,"time":95.25,"velocity":0.7480314960629921,"duration":1.4000000000000057},{"name":"A4","midi":69,"time":102,"velocity":0.7480314960629921,"duration":1.0250000000000057},{"name":"B4","midi":71,"time":103.125,"velocity":0.7480314960629921,"duration":1.0250000000000057},{"name":"C#5","midi":73,"time":104.25,"velocity":0.7480314960629921,"duration":0.6749999999999972},{"name":"G#5","midi":80,"time":105,"velocity":0.7480314960629921,"duration":1.0250000000000057},{"name":"A5","midi":81,"time":109.5,"velocity":0.7480314960629921,"duration":0.5062499999999943},{"name":"G#5","midi":80,"time":110.0625,"velocity":0.7480314960629921,"duration":0.5062499999999943},{"name":"E5","midi":76,"time":110.625,"velocity":0.7480314960629921,"duration":0.3375000000000057},{"name":"C#5","midi":73,"time":111,"velocity":0.7480314960629921,"duration":1.0250000000000057},{"name":"C#5","midi":73,"time":113.625,"velocity":0.7480314960629921,"duration":0.3375000000000057},{"name":"D5","midi":74,"time":114,"velocity":0.7480314960629921,"duration":1.0250000000000057},{"name":"E5","midi":76,"time":115.125,"velocity":0.7480314960629921,"duration":1.0250000000000057},{"name":"A4","midi":69,"time":116.25,"velocity":0.7480314960629921,"duration":1.4000000000000057},{"name":"G#5","midi":80,"time":123,"velocity":0.7480314960629921,"duration":1.0250000000000057},{"name":"E5","midi":76,"time":124.125,"velocity":0.7480314960629921,"duration":0.6749999999999972},{"name":"C#5","midi":73,"time":124.875,"velocity":0.7480314960629921,"duration":0.3375000000000057},{"name":"E5","midi":76,"time":125.25,"velocity":0.7480314960629921,"duration":0.6749999999999972},{"name":"C#5","midi":73,"time":126,"velocity":0.7480314960629921,"duration":1.0250000000000057},{"name":"G#4","midi":68,"time":129,"velocity":0.7480314960629921,"duration":0.3375000000000057},{"name":"G#4","midi":68,"time":129.375,"velocity":0.7480314960629921,"duration":0.6750000000000114},{"name":"A4","midi":69,"time":130.125,"velocity":0.7480314960629921,"duration":1.0250000000000057},{"name":"B4","midi":71,"time":131.25,"velocity":0.7480314960629921,"duration":0.6750000000000114},{"name":"B4","midi":71,"time":132,"velocity":0.7480314960629921,"duration":0.3375000000000057},{"name":"C#5","midi":73,"time":132.375,"velocity":0.7480314960629921,"duration":0.6750000000000114},{"name":"A4","midi":69,"time":133.125,"velocity":0.7480314960629921,"duration":1.0250000000000057},{"name":"G#4","midi":68,"time":135,"velocity":0.7480314960629921,"duration":1.0250000000000057},{"name":"F#4","midi":66,"time":136.125,"velocity":0.7480314960629921,"duration":1.0250000000000057},{"name":"C#5","midi":73,"time":137.25,"velocity":0.7480314960629921,"duration":0.6750000000000114},{"name":"G#5","midi":80,"time":141,"velocity":0.7480314960629921,"duration":1.0250000000000057},{"name":"E5","midi":76,"time":142.125,"velocity":0.7480314960629921,"duration":0.6750000000000114},{"name":"C#5","midi":73,"time":142.875,"velocity":0.7480314960629921,"duration":0.3375000000000057},{"name":"E5","midi":76,"time":143.25,"velocity":0.7480314960629921,"duration":0.6750000000000114},{"name":"C#5","midi":73,"time":144,"velocity":0.7480314960629921,"duration":1.0250000000000057},{"name":"G#4","midi":68,"time":147,"velocity":0.7480314960629921,"duration":0.3375000000000057},{"name":"G#4","midi":68,"time":147.375,"velocity":0.7480314960629921,"duration":0.6750000000000114},{"name":"A4","midi":69,"time":148.125,"velocity":0.7480314960629921,"duration":1.0250000000000057},{"name":"B4","midi":71,"time":149.25,"velocity":0.7480314960629921,"duration":0.6750000000000114},{"name":"B4","midi":71,"time":150,"velocity":0.7480314960629921,"duration":0.3375000000000057},{"name":"C#5","midi":73,"time":150.375,"velocity":0.7480314960629921,"duration":0.6750000000000114},{"name":"A4","midi":69,"time":151.125,"velocity":0.7480314960629921,"duration":1.0250000000000057},{"name":"G#4","midi":68,"time":153,"velocity":0.7480314960629921,"duration":1.0250000000000057},{"name":"F#4","midi":66,"time":154.125,"velocity":0.7480314960629921,"duration":1.0250000000000057},{"name":"C#5","midi":73,"time":155.25,"velocity":0.7480314960629921,"duration":0.6750000000000114},{"name":"A4","midi":69,"time":159,"velocity":0.7480314960629921,"duration":1.0250000000000057},{"name":"B4","midi":71,"time":160.125,"velocity":0.7480314960629921,"duration":1.0250000000000057},{"name":"C#5","midi":73,"time":161.25,"velocity":0.7480314960629921,"duration":0.6750000000000114},{"name":"G#5","midi":80,"time":162,"velocity":0.7480314960629921,"duration":1.0250000000000057},{"name":"A5","midi":81,"time":166.5,"velocity":0.7480314960629921,"duration":0.5062499999999943},{"name":"G#5","midi":80,"time":167.0625,"velocity":0.7480314960629921,"duration":0.5062499999999943},{"name":"E5","midi":76,"time":167.625,"velocity":0.7480314960629921,"duration":0.3375000000000057},{"name":"C#5","midi":73,"time":168,"velocity":0.7480314960629921,"duration":1.0250000000000057},{"name":"C#5","midi":73,"time":170.625,"velocity":0.7480314960629921,"duration":0.3375000000000057},{"name":"D5","midi":74,"time":171,"velocity":0.7480314960629921,"duration":1.0250000000000057},{"name":"E5","midi":76,"time":172.125,"velocity":0.7480314960629921,"duration":1.0250000000000057},{"name":"A4","midi":69,"time":173.25,"velocity":0.7480314960629921,"duration":1.4000000000000057},{"name":"B4","midi":71,"time":176.8125,"velocity":0.7480314960629921,"duration":0.16874999999998863},{"name":"C#5","midi":73,"time":177,"velocity":0.7480314960629921,"duration":0.16874999999998863},{"name":"B4","midi":71,"time":177.1875,"velocity":0.7480314960629921,"duration":0.16874999999998863},{"name":"C#5","midi":73,"time":177.375,"velocity":0.7480314960629921,"duration":0.16874999999998863},{"name":"B4","midi":71,"time":177.5625,"velocity":0.7480314960629921,"duration":0.16874999999998863},{"name":"C#5","midi":73,"time":177.75,"velocity":0.7480314960629921,"duration":0.3375000000000057},{"name":"C#5","midi":73,"time":178.125,"velocity":0.7480314960629921,"duration":0.16874999999998863},{"name":"B4","midi":71,"time":178.3125,"velocity":0.7480314960629921,"duration":0.16874999999998863},{"name":"C#5","midi":73,"time":178.5,"velocity":0.7480314960629921,"duration":0.16874999999998863},{"name":"B4","midi":71,"time":178.6875,"velocity":0.7480314960629921,"duration":0.16874999999998863},{"name":"C#5","midi":73,"time":178.875,"velocity":0.7480314960629921,"duration":0.3375000000000057},{"name":"C#5","midi":73,"time":179.25,"velocity":0.7480314960629921,"duration":0.3375000000000057},{"name":"E5","midi":76,"time":179.625,"velocity":0.7480314960629921,"duration":0.3375000000000057},{"name":"C#5","midi":73,"time":180,"velocity":0.7480314960629921,"duration":0.6750000000000114},{"name":"C#5","midi":73,"time":181.5,"velocity":0.7480314960629921,"duration":0.16874999999998863},{"name":"B4","midi":71,"time":181.6875,"velocity":0.7480314960629921,"duration":0.16874999999998863},{"name":"C#5","midi":73,"time":181.875,"velocity":0.7480314960629921,"duration":0.16874999999998863},{"name":"B4","midi":71,"time":182.0625,"velocity":0.7480314960629921,"duration":0.16874999999998863},{"name":"C#5","midi":73,"time":182.25,"velocity":0.7480314960629921,"duration":0.3375000000000057},{"name":"C#5","midi":73,"time":182.625,"velocity":0.7480314960629921,"duration":0.16874999999998863},{"name":"B4","midi":71,"time":182.8125,"velocity":0.7480314960629921,"duration":0.16874999999998863},{"name":"C#5","midi":73,"time":183,"velocity":0.7480314960629921,"duration":0.16874999999998863},{"name":"B4","midi":71,"time":183.1875,"velocity":0.7480314960629921,"duration":0.16874999999998863},{"name":"B4","midi":71,"time":183.375,"velocity":0.7480314960629921,"duration":0.6750000000000114},{"name":"C#5","midi":73,"time":187.5,"velocity":0.7480314960629921,"duration":0.16874999999998863},{"name":"B4","midi":71,"time":187.6875,"velocity":0.7480314960629921,"duration":0.16874999999998863},{"name":"C#5","midi":73,"time":187.875,"velocity":0.7480314960629921,"duration":0.16874999999998863},{"name":"B4","midi":71,"time":188.0625,"velocity":0.7480314960629921,"duration":0.16874999999998863},{"name":"C#5","midi":73,"time":188.25,"velocity":0.7480314960629921,"duration":0.3375000000000057},{"name":"C#5","midi":73,"time":188.625,"velocity":0.7480314960629921,"duration":0.16874999999998863},{"name":"B4","midi":71,"time":188.8125,"velocity":0.7480314960629921,"duration":0.16874999999998863},{"name":"C#5","midi":73,"time":189,"velocity":0.7480314960629921,"duration":0.3375000000000057},{"name":"A4","midi":69,"time":189.375,"velocity":0.7480314960629921,"duration":0.6750000000000114},{"name":"G#4","midi":68,"time":192,"velocity":0.7480314960629921,"duration":1.0250000000000057},{"name":"F#4","midi":66,"time":193.125,"velocity":0.7480314960629921,"duration":1.0250000000000057},{"name":"C#5","midi":73,"time":194.25,"velocity":0.7480314960629921,"duration":0.6750000000000114},{"name":"C#5","midi":73,"time":195,"velocity":0.7480314960629921,"duration":0.16874999999998863},{"name":"B4","midi":71,"time":195.1875,"velocity":0.7480314960629921,"duration":0.16874999999998863},{"name":"C#5","midi":73,"time":195.375,"velocity":0.7480314960629921,"duration":0.16874999999998863},{"name":"B4","midi":71,"time":195.5625,"velocity":0.7480314960629921,"duration":0.16874999999998863},{"name":"C#5","midi":73,"time":195.75,"velocity":0.7480314960629921,"duration":0.3375000000000057},{"name":"C#5","midi":73,"time":196.125,"velocity":0.7480314960629921,"duration":0.16874999999998863},{"name":"B4","midi":71,"time":196.3125,"velocity":0.7480314960629921,"duration":0.16874999999998863},{"name":"C#5","midi":73,"time":196.5,"velocity":0.7480314960629921,"duration":0.16874999999998863},{"name":"B4","midi":71,"time":196.6875,"velocity":0.7480314960629921,"duration":0.16874999999998863},{"name":"C#5","midi":73,"time":196.875,"velocity":0.7480314960629921,"duration":0.3375000000000057},{"name":"C#5","midi":73,"time":197.25,"velocity":0.7480314960629921,"duration":0.3375000000000057},{"name":"E5","midi":76,"time":197.625,"velocity":0.7480314960629921,"duration":0.3375000000000057},{"name":"C#5","midi":73,"time":198,"velocity":0.7480314960629921,"duration":0.6750000000000114},{"name":"C#5","midi":73,"time":199.5,"velocity":0.7480314960629921,"duration":0.16874999999998863},{"name":"B4","midi":71,"time":199.6875,"velocity":0.7480314960629921,"duration":0.16874999999998863},{"name":"C#5","midi":73,"time":199.875,"velocity":0.7480314960629921,"duration":0.16874999999998863},{"name":"B4","midi":71,"time":200.0625,"velocity":0.7480314960629921,"duration":0.16874999999998863},{"name":"C#5","midi":73,"time":200.25,"velocity":0.7480314960629921,"duration":0.3375000000000057},{"name":"C#5","midi":73,"time":200.625,"velocity":0.7480314960629921,"duration":0.16874999999998863},{"name":"B4","midi":71,"time":200.8125,"velocity":0.7480314960629921,"duration":0.16874999999998863},{"name":"C#5","midi":73,"time":201,"velocity":0.7480314960629921,"duration":0.16874999999998863},{"name":"B4","midi":71,"time":201.1875,"velocity":0.7480314960629921,"duration":0.16874999999998863},{"name":"B4","midi":71,"time":201.375,"velocity":0.7480314960629921,"duration":0.6750000000000114},{"name":"C#5","midi":73,"time":205.5,"velocity":0.7480314960629921,"duration":0.16874999999998863},{"name":"B4","midi":71,"time":205.6875,"velocity":0.7480314960629921,"duration":0.16874999999998863},{"name":"C#5","midi":73,"time":205.875,"velocity":0.7480314960629921,"duration":0.16874999999998863},{"name":"B4","midi":71,"time":206.0625,"velocity":0.7480314960629921,"duration":0.16874999999998863},{"name":"C#5","midi":73,"time":206.25,"velocity":0.7480314960629921,"duration":0.3375000000000057},{"name":"C#5","midi":73,"time":206.625,"velocity":0.7480314960629921,"duration":0.16874999999998863},{"name":"B4","midi":71,"time":206.8125,"velocity":0.7480314960629921,"duration":0.16874999999998863},{"name":"C#5","midi":73,"time":207,"velocity":0.7480314960629921,"duration":0.3375000000000057},{"name":"A4","midi":69,"time":207.375,"velocity":0.7480314960629921,"duration":0.6750000000000114},{"name":"G#4","midi":68,"time":210,"velocity":0.7480314960629921,"duration":1.0250000000000057},{"name":"F#4","midi":66,"time":211.125,"velocity":0.7480314960629921,"duration":1.0250000000000057},{"name":"C#5","midi":73,"time":212.25,"velocity":0.7480314960629921,"duration":0.6750000000000114}]},{"instrumentFamily":"bass","notes":[{"name":"A3","midi":57,"time":78,"velocity":0.7480314960629921,"duration":0.3375000000000057},{"name":"A2","midi":45,"time":78,"velocity":0.7480314960629921,"duration":0.3375000000000057},{"name":"A3","midi":57,"time":78.375,"velocity":0.7480314960629921,"duration":0.6749999999999972},{"name":"A2","midi":45,"time":78.375,"velocity":0.7480314960629921,"duration":0.6749999999999972},{"name":"A3","midi":57,"time":81,"velocity":0.7480314960629921,"duration":0.3375000000000057},{"name":"A2","midi":45,"time":81,"velocity":0.7480314960629921,"duration":0.3375000000000057},{"name":"A2","midi":45,"time":81.375,"velocity":0.7480314960629921,"duration":0.6749999999999972},{"name":"A3","midi":57,"time":81.375,"velocity":0.7480314960629921,"duration":0.6749999999999972},{"name":"C#3","midi":49,"time":84,"velocity":0.7480314960629921,"duration":0.3375000000000057},{"name":"C#4","midi":61,"time":84,"velocity":0.7480314960629921,"duration":0.3375000000000057},{"name":"C#3","midi":49,"time":84.375,"velocity":0.7480314960629921,"duration":0.6749999999999972},{"name":"C#4","midi":61,"time":84.375,"velocity":0.7480314960629921,"duration":0.6749999999999972},{"name":"C#3","midi":49,"time":87,"velocity":0.7480314960629921,"duration":0.3375000000000057},{"name":"C#4","midi":61,"time":87,"velocity":0.7480314960629921,"duration":0.3375000000000057},{"name":"C#3","midi":49,"time":87.375,"velocity":0.7480314960629921,"duration":0.6749999999999972},{"name":"C#4","midi":61,"time":87.375,"velocity":0.7480314960629921,"duration":0.6749999999999972},{"name":"F#4","midi":66,"time":90,"velocity":0.7480314960629921,"duration":0.3375000000000057},{"name":"F#3","midi":54,"time":90,"velocity":0.7480314960629921,"duration":0.3375000000000057},{"name":"F#4","midi":66,"time":90.375,"velocity":0.7480314960629921,"duration":0.6749999999999972},{"name":"F#3","midi":54,"time":90.375,"velocity":0.7480314960629921,"duration":0.6749999999999972},{"name":"D3","midi":50,"time":93,"velocity":0.7480314960629921,"duration":0.3375000000000057},{"name":"D4","midi":62,"time":93,"velocity":0.7480314960629921,"duration":0.3375000000000057},{"name":"D4","midi":62,"time":93.375,"velocity":0.7480314960629921,"duration":0.6749999999999972},{"name":"D3","midi":50,"time":93.375,"velocity":0.7480314960629921,"duration":0.6749999999999972},{"name":"D4","midi":62,"time":96,"velocity":0.7480314960629921,"duration":0.3375000000000057},{"name":"D3","midi":50,"time":96,"velocity":0.7480314960629921,"duration":0.3375000000000057},{"name":"D4","midi":62,"time":96.375,"velocity":0.7480314960629921,"duration":0.6749999999999972},{"name":"D3","midi":50,"time":96.375,"velocity":0.7480314960629921,"duration":0.6749999999999972},{"name":"A3","midi":57,"time":99,"velocity":0.7480314960629921,"duration":0.3375000000000057},{"name":"A2","midi":45,"time":99,"velocity":0.7480314960629921,"duration":0.3375000000000057},{"name":"A2","midi":45,"time":99.375,"velocity":0.7480314960629921,"duration":0.6749999999999972},{"name":"A3","midi":57,"time":99.375,"velocity":0.7480314960629921,"duration":0.6749999999999972},{"name":"A2","midi":45,"time":102,"velocity":0.7480314960629921,"duration":0.3375000000000057},{"name":"A3","midi":57,"time":102,"velocity":0.7480314960629921,"duration":0.3375000000000057},{"name":"A2","midi":45,"time":102.375,"velocity":0.7480314960629921,"duration":0.6749999999999972},{"name":"A3","midi":57,"time":102.375,"velocity":0.7480314960629921,"duration":0.6749999999999972},{"name":"C#3","midi":49,"time":105,"velocity":0.7480314960629921,"duration":0.3375000000000057},{"name":"C#4","midi":61,"time":105,"velocity":0.7480314960629921,"duration":0.3375000000000057},{"name":"C#4","midi":61,"time":105.375,"velocity":0.7480314960629921,"duration":0.6749999999999972},{"name":"C#3","midi":49,"time":105.375,"velocity":0.7480314960629921,"duration":0.6749999999999972},{"name":"C#3","midi":49,"time":108,"velocity":0.7480314960629921,"duration":0.3375000000000057},{"name":"C#4","midi":61,"time":108,"velocity":0.7480314960629921,"duration":0.3375000000000057},{"name":"C#3","midi":49,"time":108.375,"velocity":0.7480314960629921,"duration":0.6749999999999972},{"name":"C#4","midi":61,"time":108.375,"velocity":0.7480314960629921,"duration":0.6749999999999972},{"name":"F#3","midi":54,"time":111,"velocity":0.7480314960629921,"duration":0.3375000000000057},{"name":"F#4","midi":66,"time":111,"velocity":0.7480314960629921,"duration":0.3375000000000057},{"name":"F#4","midi":66,"time":111.375,"velocity":0.7480314960629921,"duration":0.6749999999999972},{"name":"F#3","midi":54,"time":111.375,"velocity":0.7480314960629921,"duration":0.6749999999999972},{"name":"D3","midi":50,"time":114,"velocity":0.7480314960629921,"duration":0.3375000000000057},{"name":"D4","midi":62,"time":114,"velocity":0.7480314960629921,"duration":0.3375000000000057},{"name":"D4","midi":62,"time":114.375,"velocity":0.7480314960629921,"duration":0.6749999999999972},{"name":"D3","midi":50,"time":114.375,"velocity":0.7480314960629921,"duration":0.6749999999999972},{"name":"D4","midi":62,"time":117,"velocity":0.7480314960629921,"duration":0.3375000000000057},{"name":"D3","midi":50,"time":117,"velocity":0.7480314960629921,"duration":0.3375000000000057},{"name":"D4","midi":62,"time":117.375,"velocity":0.7480314960629921,"duration":0.6749999999999972},{"name":"D3","midi":50,"time":117.375,"velocity":0.7480314960629921,"duration":0.6749999999999972},{"name":"E4","midi":64,"time":120,"velocity":0.7480314960629921,"duration":0.3375000000000057},{"name":"C#4","midi":61,"time":120.375,"velocity":0.7480314960629921,"duration":0.3375000000000057},{"name":"E4","midi":64,"time":120.75,"velocity":0.7480314960629921,"duration":0.3375000000000057},{"name":"C#4","midi":61,"time":121.125,"velocity":0.7480314960629921,"duration":0.3375000000000057},{"name":"E4","midi":64,"time":121.5,"velocity":0.7480314960629921,"duration":0.3375000000000057},{"name":"C#4","midi":61,"time":121.875,"velocity":0.7480314960629921,"duration":0.3375000000000057},{"name":"E4","midi":64,"time":122.25,"velocity":0.7480314960629921,"duration":0.3375000000000057},{"name":"C#4","midi":61,"time":122.625,"velocity":0.7480314960629921,"duration":0.3375000000000057},{"name":"E4","midi":64,"time":123,"velocity":0.7480314960629921,"duration":0.3375000000000057},{"name":"C#4","midi":61,"time":123.375,"velocity":0.7480314960629921,"duration":0.3375000000000057},{"name":"E4","midi":64,"time":123.75,"velocity":0.7480314960629921,"duration":0.3375000000000057},{"name":"C#4","midi":61,"time":124.125,"velocity":0.7480314960629921,"duration":0.3375000000000057},{"name":"E4","midi":64,"time":124.5,"velocity":0.7480314960629921,"duration":0.3375000000000057},{"name":"C#4","midi":61,"time":124.875,"velocity":0.7480314960629921,"duration":0.3375000000000057},{"name":"E4","midi":64,"time":125.25,"velocity":0.7480314960629921,"duration":0.3375000000000057},{"name":"C#4","midi":61,"time":125.625,"velocity":0.7480314960629921,"duration":0.3375000000000057},{"name":"E4","midi":64,"time":126,"velocity":0.7480314960629921,"duration":0.3375000000000057},{"name":"C#5","midi":73,"time":126.375,"velocity":0.7480314960629921,"duration":0.3375000000000057},{"name":"E4","midi":64,"time":126.75,"velocity":0.7480314960629921,"duration":0.3375000000000057},{"name":"C#5","midi":73,"time":127.125,"velocity":0.7480314960629921,"duration":0.3375000000000057},{"name":"E4","midi":64,"time":127.5,"velocity":0.7480314960629921,"duration":0.3375000000000057},{"name":"C#5","midi":73,"time":127.875,"velocity":0.7480314960629921,"duration":0.3375000000000057},{"name":"E4","midi":64,"time":128.25,"velocity":0.7480314960629921,"duration":0.3375000000000057},{"name":"C#5","midi":73,"time":128.625,"velocity":0.7480314960629921,"duration":0.3375000000000057},{"name":"E4","midi":64,"time":129,"velocity":0.7480314960629921,"duration":0.3375000000000057},{"name":"C#5","midi":73,"time":129.375,"velocity":0.7480314960629921,"duration":0.3375000000000057},{"name":"E4","midi":64,"time":129.75,"velocity":0.7480314960629921,"duration":0.3375000000000057},{"name":"C#5","midi":73,"time":130.125,"velocity":0.7480314960629921,"duration":0.3375000000000057},{"name":"E4","midi":64,"time":130.5,"velocity":0.7480314960629921,"duration":0.3375000000000057},{"name":"C#5","midi":73,"time":130.875,"velocity":0.7480314960629921,"duration":0.3375000000000057},{"name":"E4","midi":64,"time":131.25,"velocity":0.7480314960629921,"duration":0.3375000000000057},{"name":"C#5","midi":73,"time":131.625,"velocity":0.7480314960629921,"duration":0.3375000000000057},{"name":"F#4","midi":66,"time":132,"velocity":0.7480314960629921,"duration":0.3375000000000057},{"name":"D5","midi":74,"time":132.375,"velocity":0.7480314960629921,"duration":0.3375000000000057},{"name":"A4","midi":69,"time":132.375,"velocity":0.7480314960629921,"duration":0.3375000000000057},{"name":"F#4","midi":66,"time":132.75,"velocity":0.7480314960629921,"duration":0.3375000000000057},{"name":"A4","midi":69,"time":133.125,"velocity":0.7480314960629921,"duration":0.3375000000000057},{"name":"D5","midi":74,"time":133.125,"velocity":0.7480314960629921,"duration":0.3375000000000057},{"name":"F#4","midi":66,"time":133.5,"velocity":0.7480314960629921,"duration":0.3375000000000057},{"name":"D5","midi":74,"time":133.875,"velocity":0.7480314960629921,"duration":0.3375000000000057},{"name":"A4","midi":69,"time":133.875,"velocity":0.7480314960629921,"duration":0.3375000000000057},{"name":"F#4","midi":66,"time":134.25,"velocity":0.7480314960629921,"duration":0.3375000000000057},{"name":"A4","midi":69,"time":134.625,"velocity":0.7480314960629921,"duration":0.3375000000000057},{"name":"D5","midi":74,"time":134.625,"velocity":0.7480314960629921,"duration":0.3375000000000057},{"name":"F#4","midi":66,"time":135,"velocity":0.7480314960629921,"duration":0.3375000000000057},{"name":"D5","midi":74,"time":135.375,"velocity":0.7480314960629921,"duration":0.3375000000000057},{"name":"A4","midi":69,"time":135.375,"velocity":0.7480314960629921,"duration":0.3375000000000057},{"name":"F#4","midi":66,"time":135.75,"velocity":0.7480314960629921,"duration":0.3375000000000057},{"name":"D5","midi":74,"time":136.125,"velocity":0.7480314960629921,"duration":0.3375000000000057},{"name":"A4","midi":69,"time":136.125,"velocity":0.7480314960629921,"duration":0.3375000000000057},{"name":"F#4","midi":66,"time":136.5,"velocity":0.7480314960629921,"duration":0.3375000000000057},{"name":"D5","midi":74,"time":136.875,"velocity":0.7480314960629921,"duration":0.3375000000000057},{"name":"A4","midi":69,"time":136.875,"velocity":0.7480314960629921,"duration":0.3375000000000057},{"name":"F#4","midi":66,"time":137.25,"velocity":0.7480314960629921,"duration":0.3375000000000057},{"name":"A4","midi":69,"time":137.625,"velocity":0.7480314960629921,"duration":0.3375000000000057},{"name":"D5","midi":74,"time":137.625,"velocity":0.7480314960629921,"duration":0.3375000000000057},{"name":"E4","midi":64,"time":138,"velocity":0.7480314960629921,"duration":0.3375000000000057},{"name":"C#4","midi":61,"time":138.375,"velocity":0.7480314960629921,"duration":0.3375000000000057},{"name":"E4","midi":64,"time":138.75,"velocity":0.7480314960629921,"duration":0.3375000000000057},{"name":"C#4","midi":61,"time":139.125,"velocity":0.7480314960629921,"duration":0.3375000000000057},{"name":"E4","midi":64,"time":139.5,"velocity":0.7480314960629921,"duration":0.3375000000000057},{"name":"C#4","midi":61,"time":139.875,"velocity":0.7480314960629921,"duration":0.3375000000000057},{"name":"E4","midi":64,"time":140.25,"velocity":0.7480314960629921,"duration":0.3375000000000057},{"name":"C#4","midi":61,"time":140.625,"velocity":0.7480314960629921,"duration":0.3375000000000057},{"name":"E4","midi":64,"time":141,"velocity":0.7480314960629921,"duration":0.3375000000000057},{"name":"C#4","midi":61,"time":141.375,"velocity":0.7480314960629921,"duration":0.3375000000000057},{"name":"E4","midi":64,"time":141.75,"velocity":0.7480314960629921,"duration":0.3375000000000057},{"name":"C#4","midi":61,"time":142.125,"velocity":0.7480314960629921,"duration":0.3375000000000057},{"name":"E4","midi":64,"time":142.5,"velocity":0.7480314960629921,"duration":0.3375000000000057},{"name":"C#4","midi":61,"time":142.875,"velocity":0.7480314960629921,"duration":0.3375000000000057},{"name":"E4","midi":64,"time":143.25,"velocity":0.7480314960629921,"duration":0.3375000000000057},{"name":"C#4","midi":61,"time":143.625,"velocity":0.7480314960629921,"duration":0.3375000000000057},{"name":"E4","midi":64,"time":144,"velocity":0.7480314960629921,"duration":0.3375000000000057},{"name":"C#5","midi":73,"time":144.375,"velocity":0.7480314960629921,"duration":0.3375000000000057},{"name":"E4","midi":64,"time":144.75,"velocity":0.7480314960629921,"duration":0.3375000000000057},{"name":"C#5","midi":73,"time":145.125,"velocity":0.7480314960629921,"duration":0.3375000000000057},{"name":"E4","midi":64,"time":145.5,"velocity":0.7480314960629921,"duration":0.3375000000000057},{"name":"C#5","midi":73,"time":145.875,"velocity":0.7480314960629921,"duration":0.3375000000000057},{"name":"E4","midi":64,"time":146.25,"velocity":0.7480314960629921,"duration":0.3375000000000057},{"name":"C#5","midi":73,"time":146.625,"velocity":0.7480314960629921,"duration":0.3375000000000057},{"name":"E4","midi":64,"time":147,"velocity":0.7480314960629921,"duration":0.3375000000000057},{"name":"C#5","midi":73,"time":147.375,"velocity":0.7480314960629921,"duration":0.3375000000000057},{"name":"E4","midi":64,"time":147.75,"velocity":0.7480314960629921,"duration":0.3375000000000057},{"name":"C#5","midi":73,"time":148.125,"velocity":0.7480314960629921,"duration":0.3375000000000057},{"name":"E4","midi":64,"time":148.5,"velocity":0.7480314960629921,"duration":0.3375000000000057},{"name":"C#5","midi":73,"time":148.875,"velocity":0.7480314960629921,"duration":0.3375000000000057},{"name":"E4","midi":64,"time":149.25,"velocity":0.7480314960629921,"duration":0.3375000000000057},{"name":"C#5","midi":73,"time":149.625,"velocity":0.7480314960629921,"duration":0.3375000000000057},{"name":"F#4","midi":66,"time":150,"velocity":0.7480314960629921,"duration":0.3375000000000057},{"name":"D5","midi":74,"time":150.375,"velocity":0.7480314960629921,"duration":0.3375000000000057},{"name":"A4","midi":69,"time":150.375,"velocity":0.7480314960629921,"duration":0.3375000000000057},{"name":"F#4","midi":66,"time":150.75,"velocity":0.7480314960629921,"duration":0.3375000000000057},{"name":"D5","midi":74,"time":151.125,"velocity":0.7480314960629921,"duration":0.3375000000000057},{"name":"A4","midi":69,"time":151.125,"velocity":0.7480314960629921,"duration":0.3375000000000057},{"name":"F#4","midi":66,"time":151.5,"velocity":0.7480314960629921,"duration":0.3375000000000057},{"name":"A4","midi":69,"time":151.875,"velocity":0.7480314960629921,"duration":0.3375000000000057},{"name":"D5","midi":74,"time":151.875,"velocity":0.7480314960629921,"duration":0.3375000000000057},{"name":"F#4","midi":66,"time":152.25,"velocity":0.7480314960629921,"duration":0.3375000000000057},{"name":"A4","midi":69,"time":152.625,"velocity":0.7480314960629921,"duration":0.3375000000000057},{"name":"D5","midi":74,"time":152.625,"velocity":0.7480314960629921,"duration":0.3375000000000057},{"name":"F#4","midi":66,"time":153,"velocity":0.7480314960629921,"duration":0.3375000000000057},{"name":"D5","midi":74,"time":153.375,"velocity":0.7480314960629921,"duration":0.3375000000000057},{"name":"A4","midi":69,"time":153.375,"velocity":0.7480314960629921,"duration":0.3375000000000057},{"name":"F#4","midi":66,"time":153.75,"velocity":0.7480314960629921,"duration":0.3375000000000057},{"name":"D5","midi":74,"time":154.125,"velocity":0.7480314960629921,"duration":0.3375000000000057},{"name":"A4","midi":69,"time":154.125,"velocity":0.7480314960629921,"duration":0.3375000000000057},{"name":"F#4","midi":66,"time":154.5,"velocity":0.7480314960629921,"duration":0.3375000000000057},{"name":"A4","midi":69,"time":154.875,"velocity":0.7480314960629921,"duration":0.3375000000000057},{"name":"D5","midi":74,"time":154.875,"velocity":0.7480314960629921,"duration":0.3375000000000057},{"name":"F#4","midi":66,"time":155.25,"velocity":0.7480314960629921,"duration":0.3375000000000057},{"name":"D5","midi":74,"time":155.625,"velocity":0.7480314960629921,"duration":0.3375000000000057},{"name":"A4","midi":69,"time":155.625,"velocity":0.7480314960629921,"duration":0.3375000000000057},{"name":"A2","midi":45,"time":156,"velocity":0.7480314960629921,"duration":0.3375000000000057},{"name":"A3","midi":57,"time":156,"velocity":0.7480314960629921,"duration":0.3375000000000057},{"name":"A2","midi":45,"time":156.375,"velocity":0.7480314960629921,"duration":0.6750000000000114},{"name":"A3","midi":57,"time":156.375,"velocity":0.7480314960629921,"duration":0.6750000000000114},{"name":"A2","midi":45,"time":159,"velocity":0.7480314960629921,"duration":0.3375000000000057},{"name":"A3","midi":57,"time":159,"velocity":0.7480314960629921,"duration":0.3375000000000057},{"name":"A2","midi":45,"time":159.375,"velocity":0.7480314960629921,"duration":0.6750000000000114},{"name":"A3","midi":57,"time":159.375,"velocity":0.7480314960629921,"duration":0.6750000000000114},{"name":"C#3","midi":49,"time":162,"velocity":0.7480314960629921,"duration":0.3375000000000057},{"name":"C#4","midi":61,"time":162,"velocity":0.7480314960629921,"duration":0.3375000000000057},{"name":"C#4","midi":61,"time":162.375,"velocity":0.7480314960629921,"duration":0.6750000000000114},{"name":"C#3","midi":49,"time":162.375,"velocity":0.7480314960629921,"duration":0.6750000000000114},{"name":"C#4","midi":61,"time":165,"velocity":0.7480314960629921,"duration":0.3375000000000057},{"name":"C#3","midi":49,"time":165,"velocity":0.7480314960629921,"duration":0.3375000000000057},{"name":"C#4","midi":61,"time":165.375,"velocity":0.7480314960629921,"duration":0.6750000000000114},{"name":"C#3","midi":49,"time":165.375,"velocity":0.7480314960629921,"duration":0.6750000000000114},{"name":"F#4","midi":66,"time":168,"velocity":0.7480314960629921,"duration":0.3375000000000057},{"name":"F#3","midi":54,"time":168,"velocity":0.7480314960629921,"duration":0.3375000000000057},{"name":"F#4","midi":66,"time":168.375,"velocity":0.7480314960629921,"duration":0.6750000000000114},{"name":"F#3","midi":54,"time":168.375,"velocity":0.7480314960629921,"duration":0.6750000000000114},{"name":"D3","midi":50,"time":171,"velocity":0.7480314960629921,"duration":0.3375000000000057},{"name":"D4","midi":62,"time":171,"velocity":0.7480314960629921,"duration":0.3375000000000057},{"name":"D3","midi":50,"time":171.375,"velocity":0.7480314960629921,"duration":0.6750000000000114},{"name":"D4","midi":62,"time":171.375,"velocity":0.7480314960629921,"duration":0.6750000000000114},{"name":"D4","midi":62,"time":174,"velocity":0.7480314960629921,"duration":0.3375000000000057},{"name":"D3","midi":50,"time":174,"velocity":0.7480314960629921,"duration":0.3375000000000057},{"name":"D3","midi":50,"time":174.375,"velocity":0.7480314960629921,"duration":0.6750000000000114},{"name":"D4","midi":62,"time":174.375,"velocity":0.7480314960629921,"duration":0.6750000000000114},{"name":"D4","midi":62,"time":231,"velocity":0.7480314960629921,"duration":1.4000000000000057},{"name":"C#4","midi":61,"time":232.5,"velocity":0.7480314960629921,"duration":1.4000000000000057},{"name":"A3","midi":57,"time":234,"velocity":0.7480314960629921,"duration":5.900000000000006},{"name":"B3","midi":59,"time":252,"velocity":0.7480314960629921,"duration":2.9000000000000057},{"name":"F#3","midi":54,"time":255,"velocity":0.7480314960629921,"duration":1.3999999999999773},{"name":"D5","midi":74,"time":255,"velocity":0.7480314960629921,"duration":1.3999999999999773},{"name":"D4","midi":62,"time":255,"velocity":0.7480314960629921,"duration":1.3999999999999773},{"name":"C#4","midi":61,"time":256.5,"velocity":0.7480314960629921,"duration":1.3999999999999773},{"name":"C#5","midi":73,"time":256.5,"velocity":0.7480314960629921,"duration":1.3999999999999773},{"name":"A4","midi":69,"time":258,"velocity":0.7480314960629921,"duration":1.3999999999999773},{"name":"A3","midi":57,"time":258,"velocity":0.7480314960629921,"duration":1.3999999999999773},{"name":"F#3","midi":54,"time":259.5,"velocity":0.7480314960629921,"duration":1.3999999999999773},{"name":"B3","midi":59,"time":259.5,"velocity":0.7480314960629921,"duration":1.3999999999999773},{"name":"B4","midi":71,"time":259.5,"velocity":0.7480314960629921,"duration":1.3999999999999773},{"name":"C#4","midi":61,"time":261,"velocity":0.7480314960629921,"duration":4.399999999999977},{"name":"C#5","midi":73,"time":261,"velocity":0.7480314960629921,"duration":4.399999999999977},{"name":"F#5","midi":78,"time":265.5,"velocity":0.7480314960629921,"duration":1.3999999999999773},{"name":"F#4","midi":66,"time":265.5,"velocity":0.7480314960629921,"duration":1.3999999999999773},{"name":"B3","midi":59,"time":267,"velocity":0.7480314960629921,"duration":4.399999999999977},{"name":"B4","midi":71,"time":267,"velocity":0.7480314960629921,"duration":4.399999999999977},{"name":"C#5","midi":73,"time":271.5,"velocity":0.7480314960629921,"duration":1.3999999999999773},{"name":"C#4","midi":61,"time":271.5,"velocity":0.7480314960629921,"duration":1.3999999999999773},{"name":"B4","midi":71,"time":273,"velocity":0.7480314960629921,"duration":2.1499999999999773},{"name":"B3","midi":59,"time":273,"velocity":0.7480314960629921,"duration":2.1499999999999773},{"name":"G#4","midi":68,"time":275.25,"velocity":0.7480314960629921,"duration":3.6499999999999773},{"name":"G#3","midi":56,"time":275.25,"velocity":0.7480314960629921,"duration":3.6499999999999773},{"name":"F#3","midi":54,"time":279,"velocity":0.7480314960629921,"duration":2.1499999999999773},{"name":"F#4","midi":66,"time":279,"velocity":0.7480314960629921,"duration":2.1499999999999773},{"name":"A4","midi":69,"time":281.25,"velocity":0.7480314960629921,"duration":0.6750000000000114},{"name":"A3","midi":57,"time":281.25,"velocity":0.7480314960629921,"duration":0.6750000000000114},{"name":"A4","midi":69,"time":282,"velocity":0.7480314960629921,"duration":1.3999999999999773},{"name":"A3","midi":57,"time":282,"velocity":0.7480314960629921,"duration":1.3999999999999773},{"name":"B4","midi":71,"time":283.5,"velocity":0.7480314960629921,"duration":1.3999999999999773},{"name":"B3","midi":59,"time":283.5,"velocity":0.7480314960629921,"duration":1.3999999999999773},{"name":"C#5","midi":73,"time":285,"velocity":0.7480314960629921,"duration":4.399999999999977},{"name":"C#4","midi":61,"time":285,"velocity":0.7480314960629921,"duration":4.399999999999977},{"name":"F#4","midi":66,"time":289.5,"velocity":0.7480314960629921,"duration":1.3999999999999773},{"name":"F#5","midi":78,"time":289.5,"velocity":0.7480314960629921,"duration":1.3999999999999773},{"name":"B3","midi":59,"time":291,"velocity":0.7480314960629921,"duration":4.399999999999977},{"name":"B4","midi":71,"time":291,"velocity":0.7480314960629921,"duration":4.399999999999977},{"name":"C#4","midi":61,"time":295.5,"velocity":0.7480314960629921,"duration":1.3999999999999773},{"name":"C#5","midi":73,"time":295.5,"velocity":0.7480314960629921,"duration":1.3999999999999773},{"name":"B4","midi":71,"time":297,"velocity":0.7480314960629921,"duration":2.1499999999999773},{"name":"B3","midi":59,"time":297,"velocity":0.7480314960629921,"duration":2.1499999999999773},{"name":"G#3","midi":56,"time":299.25,"velocity":0.7480314960629921,"duration":3.6499999999999773},{"name":"G#4","midi":68,"time":299.25,"velocity":0.7480314960629921,"duration":3.6499999999999773},{"name":"F#4","midi":66,"time":303,"velocity":0.7480314960629921,"duration":2.1499999999999773},{"name":"F#3","midi":54,"time":303,"velocity":0.7480314960629921,"duration":2.1499999999999773},{"name":"A4","midi":69,"time":305.25,"velocity":0.7480314960629921,"duration":0.6750000000000114},{"name":"A3","midi":57,"time":305.25,"velocity":0.7480314960629921,"duration":0.6750000000000114},{"name":"A4","midi":69,"time":306,"velocity":0.7480314960629921,"duration":1.3999999999999773},{"name":"A3","midi":57,"time":306,"velocity":0.7480314960629921,"duration":1.3999999999999773},{"name":"B3","midi":59,"time":307.5,"velocity":0.7480314960629921,"duration":1.3999999999999773},{"name":"B4","midi":71,"time":307.5,"velocity":0.7480314960629921,"duration":1.3999999999999773},{"name":"C#4","midi":61,"time":309,"velocity":0.7480314960629921,"duration":4.399999999999977},{"name":"C#5","midi":73,"time":309,"velocity":0.7480314960629921,"duration":4.399999999999977},{"name":"F#4","midi":66,"time":313.5,"velocity":0.7480314960629921,"duration":1.3999999999999773},{"name":"F#5","midi":78,"time":313.5,"velocity":0.7480314960629921,"duration":1.3999999999999773},{"name":"F#3","midi":54,"time":315,"velocity":0.7480314960629921,"duration":4.399999999999977},{"name":"F#4","midi":66,"time":315,"velocity":0.7480314960629921,"duration":4.399999999999977},{"name":"B3","midi":59,"time":319.5,"velocity":0.7480314960629921,"duration":1.3999999999999773},{"name":"B4","midi":71,"time":319.5,"velocity":0.7480314960629921,"duration":1.3999999999999773},{"name":"A3","midi":57,"time":321,"velocity":0.7480314960629921,"duration":2.1499999999999773},{"name":"A4","midi":69,"time":321,"velocity":0.7480314960629921,"duration":2.1499999999999773},{"name":"G#3","midi":56,"time":323.25,"velocity":0.7480314960629921,"duration":3.6499999999999773},{"name":"G#4","midi":68,"time":323.25,"velocity":0.7480314960629921,"duration":3.6499999999999773},{"name":"F#3","midi":54,"time":327,"velocity":0.7480314960629921,"duration":2.1499999999999773},{"name":"F#4","midi":66,"time":327,"velocity":0.7480314960629921,"duration":2.1499999999999773},{"name":"A3","midi":57,"time":329.25,"velocity":0.7480314960629921,"duration":0.6750000000000114},{"name":"A4","midi":69,"time":329.25,"velocity":0.7480314960629921,"duration":0.6750000000000114},{"name":"A3","midi":57,"time":330,"velocity":0.7480314960629921,"duration":1.3999999999999773},{"name":"A4","midi":69,"time":330,"velocity":0.7480314960629921,"duration":1.3999999999999773},{"name":"B4","midi":71,"time":331.5,"velocity":0.7480314960629921,"duration":1.3999999999999773},{"name":"B3","midi":59,"time":331.5,"velocity":0.7480314960629921,"duration":1.3999999999999773},{"name":"C#4","midi":61,"time":333,"velocity":0.7480314960629921,"duration":4.399999999999977},{"name":"C#5","midi":73,"time":333,"velocity":0.7480314960629921,"duration":4.399999999999977},{"name":"F#5","midi":78,"time":337.5,"velocity":0.7480314960629921,"duration":1.3999999999999773},{"name":"F#4","midi":66,"time":337.5,"velocity":0.7480314960629921,"duration":1.3999999999999773},{"name":"B4","midi":71,"time":339,"velocity":0.7480314960629921,"duration":4.399999999999977},{"name":"B3","midi":59,"time":339,"velocity":0.7480314960629921,"duration":4.399999999999977},{"name":"C#5","midi":73,"time":343.5,"velocity":0.7480314960629921,"duration":1.3999999999999773},{"name":"C#4","midi":61,"time":343.5,"velocity":0.7480314960629921,"duration":1.3999999999999773},{"name":"B3","midi":59,"time":345,"velocity":0.7480314960629921,"duration":2.1499999999999773},{"name":"B4","midi":71,"time":345,"velocity":0.7480314960629921,"duration":2.1499999999999773},{"name":"G#4","midi":68,"time":347.25,"velocity":0.7480314960629921,"duration":3.6499999999999773},{"name":"G#3","midi":56,"time":347.25,"velocity":0.7480314960629921,"duration":3.6499999999999773},{"name":"F#3","midi":54,"time":351,"velocity":0.7480314960629921,"duration":2.1499999999999773},{"name":"F#4","midi":66,"time":351,"velocity":0.7480314960629921,"duration":2.1499999999999773},{"name":"A3","midi":57,"time":353.25,"velocity":0.7480314960629921,"duration":0.6750000000000114},{"name":"A4","midi":69,"time":353.25,"velocity":0.7480314960629921,"duration":0.6750000000000114},{"name":"A3","midi":57,"time":354,"velocity":0.7480314960629921,"duration":1.3999999999999773},{"name":"A4","midi":69,"time":354,"velocity":0.7480314960629921,"duration":1.3999999999999773},{"name":"B4","midi":71,"time":355.5,"velocity":0.7480314960629921,"duration":1.3999999999999773},{"name":"B3","midi":59,"time":355.5,"velocity":0.7480314960629921,"duration":1.3999999999999773},{"name":"C#4","midi":61,"time":357,"velocity":0.7480314960629921,"duration":4.399999999999977},{"name":"C#5","midi":73,"time":357,"velocity":0.7480314960629921,"duration":4.399999999999977},{"name":"F#4","midi":66,"time":361.5,"velocity":0.7480314960629921,"duration":1.3999999999999773},{"name":"F#5","midi":78,"time":361.5,"velocity":0.7480314960629921,"duration":1.3999999999999773},{"name":"F#3","midi":54,"time":363,"velocity":0.7480314960629921,"duration":4.399999999999977},{"name":"F#4","midi":66,"time":363,"velocity":0.7480314960629921,"duration":4.399999999999977},{"name":"B3","midi":59,"time":367.5,"velocity":0.7480314960629921,"duration":1.3999999999999773},{"name":"B4","midi":71,"time":367.5,"velocity":0.7480314960629921,"duration":1.3999999999999773},{"name":"A3","midi":57,"time":369,"velocity":0.7480314960629921,"duration":2.1499999999999773},{"name":"A4","midi":69,"time":369,"velocity":0.7480314960629921,"duration":2.1499999999999773},{"name":"G#3","midi":56,"time":371.25,"velocity":0.7480314960629921,"duration":3.6499999999999773},{"name":"G#4","midi":68,"time":371.25,"velocity":0.7480314960629921,"duration":3.6499999999999773},{"name":"F#3","midi":54,"time":375,"velocity":0.7480314960629921,"duration":2.1499999999999773},{"name":"F#4","midi":66,"time":375,"velocity":0.7480314960629921,"duration":2.1499999999999773},{"name":"A3","midi":57,"time":377.25,"velocity":0.7480314960629921,"duration":0.6750000000000114},{"name":"A4","midi":69,"time":377.25,"velocity":0.7480314960629921,"duration":0.6750000000000114},{"name":"A3","midi":57,"time":378,"velocity":0.7480314960629921,"duration":1.3999999999999773},{"name":"A4","midi":69,"time":378,"velocity":0.7480314960629921,"duration":1.3999999999999773},{"name":"B4","midi":71,"time":379.5,"velocity":0.7480314960629921,"duration":1.3999999999999773},{"name":"B3","midi":59,"time":379.5,"velocity":0.7480314960629921,"duration":1.3999999999999773},{"name":"C#5","midi":73,"time":381,"velocity":0.7480314960629921,"duration":4.399999999999977},{"name":"C#4","midi":61,"time":381,"velocity":0.7480314960629921,"duration":4.399999999999977},{"name":"F#4","midi":66,"time":385.5,"velocity":0.7480314960629921,"duration":1.3999999999999773},{"name":"F#5","midi":78,"time":385.5,"velocity":0.7480314960629921,"duration":1.3999999999999773},{"name":"F#3","midi":54,"time":387,"velocity":0.7480314960629921,"duration":4.399999999999977},{"name":"F#4","midi":66,"time":387,"velocity":0.7480314960629921,"duration":4.399999999999977},{"name":"B3","midi":59,"time":391.5,"velocity":0.7480314960629921,"duration":1.3999999999999773},{"name":"B4","midi":71,"time":391.5,"velocity":0.7480314960629921,"duration":1.3999999999999773},{"name":"A4","midi":69,"time":393,"velocity":0.7480314960629921,"duration":2.1499999999999773},{"name":"A3","midi":57,"time":393,"velocity":0.7480314960629921,"duration":2.1499999999999773},{"name":"G#4","midi":68,"time":395.25,"velocity":0.7480314960629921,"duration":3.6499999999999773},{"name":"G#3","midi":56,"time":395.25,"velocity":0.7480314960629921,"duration":3.6499999999999773},{"name":"F#3","midi":54,"time":399,"velocity":0.7480314960629921,"duration":2.1499999999999773},{"name":"F#4","midi":66,"time":399,"velocity":0.7480314960629921,"duration":2.1499999999999773},{"name":"A3","midi":57,"time":401.25,"velocity":0.7480314960629921,"duration":0.6750000000000114},{"name":"A4","midi":69,"time":401.25,"velocity":0.7480314960629921,"duration":0.6750000000000114},{"name":"A4","midi":69,"time":402,"velocity":0.7480314960629921,"duration":1.3999999999999773},{"name":"A3","midi":57,"time":402,"velocity":0.7480314960629921,"duration":1.3999999999999773},{"name":"B3","midi":59,"time":403.5,"velocity":0.7480314960629921,"duration":1.3999999999999773},{"name":"B4","midi":71,"time":403.5,"velocity":0.7480314960629921,"duration":1.3999999999999773},{"name":"C#4","midi":61,"time":405,"velocity":0.7480314960629921,"duration":4.399999999999977},{"name":"C#5","midi":73,"time":405,"velocity":0.7480314960629921,"duration":4.399999999999977},{"name":"F#4","midi":66,"time":409.5,"velocity":0.7480314960629921,"duration":1.3999999999999773},{"name":"F#5","midi":78,"time":409.5,"velocity":0.7480314960629921,"duration":1.3999999999999773},{"name":"F#4","midi":66,"time":411,"velocity":0.7480314960629921,"duration":4.399999999999977},{"name":"F#3","midi":54,"time":411,"velocity":0.7480314960629921,"duration":4.399999999999977},{"name":"B3","midi":59,"time":415.5,"velocity":0.7480314960629921,"duration":1.3999999999999773},{"name":"B4","midi":71,"time":415.5,"velocity":0.7480314960629921,"duration":1.3999999999999773},{"name":"A4","midi":69,"time":417,"velocity":0.7480314960629921,"duration":2.1499999999999773},{"name":"A3","midi":57,"time":417,"velocity":0.7480314960629921,"duration":2.1499999999999773},{"name":"G#4","midi":68,"time":419.25,"velocity":0.7480314960629921,"duration":3.6499999999999773},{"name":"G#3","midi":56,"time":419.25,"velocity":0.7480314960629921,"duration":3.6499999999999773},{"name":"F#3","midi":54,"time":423,"velocity":0.7480314960629921,"duration":2.1499999999999773},{"name":"F#4","midi":66,"time":423,"velocity":0.7480314960629921,"duration":2.1499999999999773},{"name":"A4","midi":69,"time":425.25,"velocity":0.7480314960629921,"duration":0.6750000000000114},{"name":"A3","midi":57,"time":425.25,"velocity":0.7480314960629921,"duration":0.6750000000000114},{"name":"A3","midi":57,"time":426,"velocity":0.7480314960629921,"duration":1.3999999999999773},{"name":"A4","midi":69,"time":426,"velocity":0.7480314960629921,"duration":1.3999999999999773},{"name":"B4","midi":71,"time":427.5,"velocity":0.7480314960629921,"duration":1.3999999999999773},{"name":"B3","midi":59,"time":427.5,"velocity":0.7480314960629921,"duration":1.3999999999999773},{"name":"C#4","midi":61,"time":429,"velocity":0.7480314960629921,"duration":4.399999999999977},{"name":"C#5","midi":73,"time":429,"velocity":0.7480314960629921,"duration":4.399999999999977},{"name":"F#5","midi":78,"time":433.5,"velocity":0.7480314960629921,"duration":1.3999999999999773},{"name":"F#4","midi":66,"time":433.5,"velocity":0.7480314960629921,"duration":1.3999999999999773},{"name":"F#3","midi":54,"time":435,"velocity":0.7480314960629921,"duration":4.399999999999977},{"name":"F#4","midi":66,"time":435,"velocity":0.7480314960629921,"duration":4.399999999999977},{"name":"B4","midi":71,"time":439.5,"velocity":0.7480314960629921,"duration":1.3999999999999773},{"name":"B3","midi":59,"time":439.5,"velocity":0.7480314960629921,"duration":1.3999999999999773},{"name":"A4","midi":69,"time":441,"velocity":0.7480314960629921,"duration":2.1499999999999773},{"name":"A3","midi":57,"time":441,"velocity":0.7480314960629921,"duration":2.1499999999999773},{"name":"G#4","midi":68,"time":443.25,"velocity":0.7480314960629921,"duration":3.6499999999999773},{"name":"G#3","midi":56,"time":443.25,"velocity":0.7480314960629921,"duration":3.6499999999999773},{"name":"F#3","midi":54,"time":447,"velocity":0.7480314960629921,"duration":2.1499999999999773},{"name":"F#4","midi":66,"time":447,"velocity":0.7480314960629921,"duration":2.1499999999999773},{"name":"A3","midi":57,"time":449.25,"velocity":0.7480314960629921,"duration":0.6750000000000114},{"name":"A4","midi":69,"time":449.25,"velocity":0.7480314960629921,"duration":0.6750000000000114},{"name":"A4","midi":69,"time":450,"velocity":0.7480314960629921,"duration":1.3999999999999773},{"name":"A3","midi":57,"time":450,"velocity":0.7480314960629921,"duration":1.3999999999999773},{"name":"B3","midi":59,"time":451.5,"velocity":0.7480314960629921,"duration":1.3999999999999773},{"name":"B4","midi":71,"time":451.5,"velocity":0.7480314960629921,"duration":1.3999999999999773},{"name":"C#5","midi":73,"time":453,"velocity":0.7480314960629921,"duration":4.399999999999977},{"name":"C#4","midi":61,"time":453,"velocity":0.7480314960629921,"duration":4.399999999999977},{"name":"F#5","midi":78,"time":457.5,"velocity":0.7480314960629921,"duration":1.3999999999999773},{"name":"F#4","midi":66,"time":457.5,"velocity":0.7480314960629921,"duration":1.3999999999999773},{"name":"F#4","midi":66,"time":459,"velocity":0.7480314960629921,"duration":4.399999999999977},{"name":"F#3","midi":54,"time":459,"velocity":0.7480314960629921,"duration":4.399999999999977},{"name":"B3","midi":59,"time":463.5,"velocity":0.7480314960629921,"duration":1.3999999999999773},{"name":"B4","midi":71,"time":463.5,"velocity":0.7480314960629921,"duration":1.3999999999999773},{"name":"A4","midi":69,"time":465,"velocity":0.7480314960629921,"duration":2.1499999999999773},{"name":"A3","midi":57,"time":465,"velocity":0.7480314960629921,"duration":2.1499999999999773},{"name":"G#4","midi":68,"time":467.25,"velocity":0.7480314960629921,"duration":3.6499999999999773},{"name":"G#3","midi":56,"time":467.25,"velocity":0.7480314960629921,"duration":3.6499999999999773},{"name":"F#4","midi":66,"time":471,"velocity":0.7480314960629921,"duration":2.1499999999999773},{"name":"F#3","midi":54,"time":471,"velocity":0.7480314960629921,"duration":2.1499999999999773},{"name":"A4","midi":69,"time":473.25,"velocity":0.7480314960629921,"duration":0.6750000000000114},{"name":"A3","midi":57,"time":473.25,"velocity":0.7480314960629921,"duration":0.6750000000000114},{"name":"A4","midi":69,"time":474,"velocity":0.7480314960629921,"duration":1.3999999999999773},{"name":"A3","midi":57,"time":474,"velocity":0.7480314960629921,"duration":1.3999999999999773},{"name":"B3","midi":59,"time":475.5,"velocity":0.7480314960629921,"duration":1.3999999999999773},{"name":"B4","midi":71,"time":475.5,"velocity":0.7480314960629921,"duration":1.3999999999999773},{"name":"A5","midi":81,"time":477,"velocity":0.7480314960629921,"duration":2.8999999999999773},{"name":"C#5","midi":73,"time":477,"velocity":0.7480314960629921,"duration":4.399999999999977},{"name":"C#4","midi":61,"time":477,"velocity":0.7480314960629921,"duration":4.399999999999977},{"name":"A5","midi":81,"time":481.5,"velocity":0.7480314960629921,"duration":0.6750000000000114},{"name":"F#4","midi":66,"time":481.5,"velocity":0.7480314960629921,"duration":0.6750000000000114},{"name":"F#5","midi":78,"time":481.5,"velocity":0.7480314960629921,"duration":0.6750000000000114},{"name":"G#5","midi":80,"time":482.25,"velocity":0.7480314960629921,"duration":0.33749999999997726},{"name":"F#4","midi":66,"time":482.625,"velocity":0.7480314960629921,"duration":0.33749999999997726},{"name":"E5","midi":76,"time":482.625,"velocity":0.7480314960629921,"duration":0.33749999999997726},{"name":"F#3","midi":54,"time":483,"velocity":0.7480314960629921,"duration":1.0249999999999773},{"name":"F#4","midi":66,"time":483,"velocity":0.7480314960629921,"duration":1.0249999999999773},{"name":"E5","midi":76,"time":483,"velocity":0.7480314960629921,"duration":1.0249999999999773},{"name":"F#5","midi":78,"time":484.125,"velocity":0.7480314960629921,"duration":0.33749999999997726},{"name":"F#5","midi":78,"time":484.5,"velocity":0.7480314960629921,"duration":0.6750000000000114},{"name":"A4","midi":69,"time":485.25,"velocity":0.7480314960629921,"duration":0.6750000000000114},{"name":"F#3","midi":54,"time":486,"velocity":0.7480314960629921,"duration":0.6750000000000114},{"name":"F#4","midi":66,"time":486,"velocity":0.7480314960629921,"duration":0.6750000000000114},{"name":"A4","midi":69,"time":486,"velocity":0.7480314960629921,"duration":0.6750000000000114},{"name":"B4","midi":71,"time":486.75,"velocity":0.7480314960629921,"duration":0.6750000000000114},{"name":"D4","midi":62,"time":487.5,"velocity":0.7480314960629921,"duration":0.6750000000000114},{"name":"B4","midi":71,"time":487.5,"velocity":0.7480314960629921,"duration":0.6750000000000114},{"name":"C#5","midi":73,"time":487.5,"velocity":0.7480314960629921,"duration":0.6750000000000114},{"name":"D5","midi":74,"time":488.25,"velocity":0.7480314960629921,"duration":0.6750000000000114},{"name":"A3","midi":57,"time":489,"velocity":0.7480314960629921,"duration":0.6750000000000114},{"name":"A4","midi":69,"time":489,"velocity":0.7480314960629921,"duration":0.6750000000000114},{"name":"C#5","midi":73,"time":489,"velocity":0.7480314960629921,"duration":0.6750000000000114},{"name":"B4","midi":71,"time":489.75,"velocity":0.7480314960629921,"duration":0.6750000000000114},{"name":"E5","midi":76,"time":490.5,"velocity":0.7480314960629921,"duration":0.6750000000000114},{"name":"A3","midi":57,"time":490.5,"velocity":0.7480314960629921,"duration":0.6750000000000114},{"name":"A4","midi":69,"time":490.5,"velocity":0.7480314960629921,"duration":0.6750000000000114},{"name":"G#3","midi":56,"time":491.25,"velocity":0.7480314960629921,"duration":0.6750000000000114},{"name":"G#4","midi":68,"time":491.25,"velocity":0.7480314960629921,"duration":0.6750000000000114},{"name":"D5","midi":74,"time":491.25,"velocity":0.7480314960629921,"duration":0.6750000000000114},{"name":"C#5","midi":73,"time":492,"velocity":0.7480314960629921,"duration":0.6750000000000114},{"name":"B4","midi":71,"time":492.75,"velocity":0.7480314960629921,"duration":0.6750000000000114},{"name":"A4","midi":69,"time":493.5,"velocity":0.7480314960629921,"duration":0.6750000000000114},{"name":"G#4","midi":68,"time":494.25,"velocity":0.7480314960629921,"duration":0.6750000000000114},{"name":"B4","midi":71,"time":494.25,"velocity":0.7480314960629921,"duration":0.6750000000000114},{"name":"G#3","midi":56,"time":494.25,"velocity":0.7480314960629921,"duration":0.6750000000000114},{"name":"F#3","midi":54,"time":495,"velocity":0.7480314960629921,"duration":2.1499999999999773},{"name":"F#4","midi":66,"time":495,"velocity":0.7480314960629921,"duration":2.1499999999999773},{"name":"A4","midi":69,"time":497.25,"velocity":0.7480314960629921,"duration":0.6750000000000114},{"name":"A3","midi":57,"time":497.25,"velocity":0.7480314960629921,"duration":0.6750000000000114},{"name":"A4","midi":69,"time":498,"velocity":0.7480314960629921,"duration":1.3999999999999773},{"name":"A3","midi":57,"time":498,"velocity":0.7480314960629921,"duration":1.3999999999999773},{"name":"B3","midi":59,"time":499.5,"velocity":0.7480314960629921,"duration":2.8999999999999773},{"name":"B4","midi":71,"time":499.5,"velocity":0.7480314960629921,"duration":2.8999999999999773},{"name":"A5","midi":81,"time":502.5,"velocity":0.7480314960629921,"duration":5.899999999999977},{"name":"A4","midi":69,"time":502.5,"velocity":0.7480314960629921,"duration":5.899999999999977},{"name":"A2","midi":45,"time":508.5,"velocity":0.7480314960629921,"duration":14.899999999999977},{"name":"C#3","midi":49,"time":508.5,"velocity":0.7480314960629921,"duration":14.899999999999977},{"name":"A4","midi":69,"time":508.5,"velocity":0.7480314960629921,"duration":14.899999999999977},{"name":"A5","midi":81,"time":508.5,"velocity":0.7480314960629921,"duration":14.899999999999977}]},{"instrumentFamily":"piano","notes":[{"name":"F#6","midi":90,"time":213,"velocity":0.7480314960629921,"duration":0.3375000000000057},{"name":"F#6","midi":90,"time":213.375,"velocity":0.7480314960629921,"duration":0.3375000000000057},{"name":"F#6","midi":90,"time":213.75,"velocity":0.7480314960629921,"duration":0.3375000000000057},{"name":"F#6","midi":90,"time":214.125,"velocity":0.7480314960629921,"duration":0.3375000000000057},{"name":"F#6","midi":90,"time":214.5,"velocity":0.7480314960629921,"duration":0.3375000000000057},{"name":"F#6","midi":90,"time":214.875,"velocity":0.7480314960629921,"duration":0.3375000000000057},{"name":"F#6","midi":90,"time":215.25,"velocity":0.7480314960629921,"duration":0.3375000000000057},{"name":"E6","midi":88,"time":215.625,"velocity":0.7480314960629921,"duration":0.3375000000000057},{"name":"E6","midi":88,"time":216,"velocity":0.7480314960629921,"duration":0.3375000000000057},{"name":"E6","midi":88,"time":216.375,"velocity":0.7480314960629921,"duration":0.3375000000000057},{"name":"E6","midi":88,"time":216.75,"velocity":0.7480314960629921,"duration":0.3375000000000057},{"name":"E6","midi":88,"time":217.125,"velocity":0.7480314960629921,"duration":0.3375000000000057},{"name":"E6","midi":88,"time":217.5,"velocity":0.7480314960629921,"duration":0.3375000000000057},{"name":"F#6","midi":90,"time":217.875,"velocity":0.7480314960629921,"duration":0.3375000000000057},{"name":"E6","midi":88,"time":218.25,"velocity":0.7480314960629921,"duration":0.3375000000000057},{"name":"F#6","midi":90,"time":218.625,"velocity":0.7480314960629921,"duration":0.1875},{"name":"E6","midi":88,"time":218.8125,"velocity":0.7480314960629921,"duration":0.16874999999998863},{"name":"C#6","midi":85,"time":219,"velocity":0.7480314960629921,"duration":0.3375000000000057},{"name":"C#6","midi":85,"time":219.375,"velocity":0.7480314960629921,"duration":0.3375000000000057},{"name":"C#6","midi":85,"time":219.75,"velocity":0.7480314960629921,"duration":0.3375000000000057},{"name":"C#6","midi":85,"time":220.125,"velocity":0.7480314960629921,"duration":0.3375000000000057},{"name":"C#6","midi":85,"time":220.5,"velocity":0.7480314960629921,"duration":0.3375000000000057},{"name":"C#6","midi":85,"time":220.875,"velocity":0.7480314960629921,"duration":0.3375000000000057},{"name":"C#6","midi":85,"time":221.25,"velocity":0.7480314960629921,"duration":0.3375000000000057},{"name":"B5","midi":83,"time":221.625,"velocity":0.7480314960629921,"duration":0.3375000000000057},{"name":"B5","midi":83,"time":222,"velocity":0.7480314960629921,"duration":0.3375000000000057},{"name":"B5","midi":83,"time":222.375,"velocity":0.7480314960629921,"duration":0.3375000000000057},{"name":"B5","midi":83,"time":222.75,"velocity":0.7480314960629921,"duration":0.3375000000000057},{"name":"B5","midi":83,"time":223.125,"velocity":0.7480314960629921,"duration":0.3375000000000057},{"name":"B5","midi":83,"time":223.5,"velocity":0.7480314960629921,"duration":0.3375000000000057},{"name":"B5","midi":83,"time":223.875,"velocity":0.7480314960629921,"duration":0.3375000000000057},{"name":"B5","midi":83,"time":224.25,"velocity":0.7480314960629921,"duration":0.3375000000000057},{"name":"F#5","midi":78,"time":224.625,"velocity":0.7480314960629921,"duration":0.3375000000000057},{"name":"C#6","midi":85,"time":225,"velocity":0.7480314960629921,"duration":0.3375000000000057},{"name":"C#6","midi":85,"time":225.375,"velocity":0.7480314960629921,"duration":0.3375000000000057},{"name":"C#6","midi":85,"time":225.75,"velocity":0.7480314960629921,"duration":0.3375000000000057},{"name":"C#6","midi":85,"time":226.125,"velocity":0.7480314960629921,"duration":0.3375000000000057},{"name":"C#6","midi":85,"time":226.5,"velocity":0.7480314960629921,"duration":0.3375000000000057},{"name":"C#6","midi":85,"time":226.875,"velocity":0.7480314960629921,"duration":0.3375000000000057},{"name":"C#6","midi":85,"time":227.25,"velocity":0.7480314960629921,"duration":0.3375000000000057},{"name":"F#5","midi":78,"time":227.625,"velocity":0.7480314960629921,"duration":0.3375000000000057},{"name":"B5","midi":83,"time":228,"velocity":0.7480314960629921,"duration":0.3375000000000057},{"name":"B5","midi":83,"time":228.375,"velocity":0.7480314960629921,"duration":0.3375000000000057},{"name":"B5","midi":83,"time":228.75,"velocity":0.7480314960629921,"duration":0.3375000000000057},{"name":"B5","midi":83,"time":229.125,"velocity":0.7480314960629921,"duration":0.3375000000000057},{"name":"B5","midi":83,"time":229.5,"velocity":0.7480314960629921,"duration":0.3375000000000057},{"name":"B5","midi":83,"time":229.875,"velocity":0.7480314960629921,"duration":0.3375000000000057},{"name":"B5","midi":83,"time":230.25,"velocity":0.7480314960629921,"duration":0.3375000000000057},{"name":"B5","midi":83,"time":230.625,"velocity":0.7480314960629921,"duration":0.3375000000000057},{"name":"B5","midi":83,"time":231,"velocity":0.7480314960629921,"duration":0.3375000000000057},{"name":"F#5","midi":78,"time":231.375,"velocity":0.7480314960629921,"duration":0.3375000000000057},{"name":"F#5","midi":78,"time":231.75,"velocity":0.7480314960629921,"duration":0.3375000000000057},{"name":"F#5","midi":78,"time":232.125,"velocity":0.7480314960629921,"duration":0.3375000000000057},{"name":"F#5","midi":78,"time":232.5,"velocity":0.7480314960629921,"duration":0.3375000000000057},{"name":"F#5","midi":78,"time":232.875,"velocity":0.7480314960629921,"duration":0.3375000000000057},{"name":"F#5","midi":78,"time":233.25,"velocity":0.7480314960629921,"duration":0.3375000000000057},{"name":"F#5","midi":78,"time":233.625,"velocity":0.7480314960629921,"duration":0.3375000000000057},{"name":"F#5","midi":78,"time":234,"velocity":0.7480314960629921,"duration":0.3375000000000057},{"name":"F#5","midi":78,"time":234.375,"velocity":0.7480314960629921,"duration":0.3375000000000057},{"name":"F#5","midi":78,"time":234.75,"velocity":0.7480314960629921,"duration":0.3375000000000057},{"name":"F#5","midi":78,"time":235.125,"velocity":0.7480314960629921,"duration":0.3375000000000057},{"name":"F#5","midi":78,"time":235.5,"velocity":0.7480314960629921,"duration":0.3375000000000057},{"name":"F#5","midi":78,"time":235.875,"velocity":0.7480314960629921,"duration":0.3375000000000057},{"name":"F#5","midi":78,"time":236.25,"velocity":0.7480314960629921,"duration":0.3375000000000057},{"name":"F#5","midi":78,"time":236.625,"velocity":0.7480314960629921,"duration":0.3375000000000057},{"name":"F#6","midi":90,"time":237,"velocity":0.7480314960629921,"duration":0.3375000000000057},{"name":"F#6","midi":90,"time":237.375,"velocity":0.7480314960629921,"duration":0.3375000000000057},{"name":"F#6","midi":90,"time":237.75,"velocity":0.7480314960629921,"duration":0.3375000000000057},{"name":"F#6","midi":90,"time":238.125,"velocity":0.7480314960629921,"duration":0.3375000000000057},{"name":"F#6","midi":90,"time":238.5,"velocity":0.7480314960629921,"duration":0.3375000000000057},{"name":"F#6","midi":90,"time":238.875,"velocity":0.7480314960629921,"duration":0.3375000000000057},{"name":"F#6","midi":90,"time":239.25,"velocity":0.7480314960629921,"duration":0.3375000000000057},{"name":"E6","midi":88,"time":239.625,"velocity":0.7480314960629921,"duration":0.3375000000000057},{"name":"E6","midi":88,"time":240,"velocity":0.7480314960629921,"duration":0.3375000000000057},{"name":"E6","midi":88,"time":240.375,"velocity":0.7480314960629921,"duration":0.3375000000000057},{"name":"E6","midi":88,"time":240.75,"velocity":0.7480314960629921,"duration":0.3375000000000057},{"name":"E6","midi":88,"time":241.125,"velocity":0.7480314960629921,"duration":0.3375000000000057},{"name":"E6","midi":88,"time":241.5,"velocity":0.7480314960629921,"duration":0.3375000000000057},{"name":"F#6","midi":90,"time":241.875,"velocity":0.7480314960629921,"duration":0.3375000000000057},{"name":"E6","midi":88,"time":242.25,"velocity":0.7480314960629921,"duration":0.3375000000000057},{"name":"F#6","midi":90,"time":242.625,"velocity":0.7480314960629921,"duration":0.1875},{"name":"E6","midi":88,"time":242.8125,"velocity":0.7480314960629921,"duration":0.16874999999998863},{"name":"C#6","midi":85,"time":243,"velocity":0.7480314960629921,"duration":0.3375000000000057},{"name":"C#6","midi":85,"time":243.375,"velocity":0.7480314960629921,"duration":0.3375000000000057},{"name":"C#6","midi":85,"time":243.75,"velocity":0.7480314960629921,"duration":0.3375000000000057},{"name":"C#6","midi":85,"time":244.125,"velocity":0.7480314960629921,"duration":0.3375000000000057},{"name":"C#6","midi":85,"time":244.5,"velocity":0.7480314960629921,"duration":0.3375000000000057},{"name":"C#6","midi":85,"time":244.875,"velocity":0.7480314960629921,"duration":0.3375000000000057},{"name":"C#6","midi":85,"time":245.25,"velocity":0.7480314960629921,"duration":0.3375000000000057},{"name":"B5","midi":83,"time":245.625,"velocity":0.7480314960629921,"duration":0.3375000000000057},{"name":"B5","midi":83,"time":246,"velocity":0.7480314960629921,"duration":0.3375000000000057},{"name":"B5","midi":83,"time":246.375,"velocity":0.7480314960629921,"duration":0.3375000000000057},{"name":"B5","midi":83,"time":246.75,"velocity":0.7480314960629921,"duration":0.3375000000000057},{"name":"B5","midi":83,"time":247.125,"velocity":0.7480314960629921,"duration":0.3375000000000057},{"name":"B5","midi":83,"time":247.5,"velocity":0.7480314960629921,"duration":0.3375000000000057},{"name":"B5","midi":83,"time":247.875,"velocity":0.7480314960629921,"duration":0.3375000000000057},{"name":"B5","midi":83,"time":248.25,"velocity":0.7480314960629921,"duration":0.3375000000000057},{"name":"F#5","midi":78,"time":248.625,"velocity":0.7480314960629921,"duration":0.3375000000000057},{"name":"C#6","midi":85,"time":249,"velocity":0.7480314960629921,"duration":0.3375000000000057},{"name":"C#6","midi":85,"time":249.375,"velocity":0.7480314960629921,"duration":0.3375000000000057},{"name":"C#6","midi":85,"time":249.75,"velocity":0.7480314960629921,"duration":0.3375000000000057},{"name":"C#6","midi":85,"time":250.125,"velocity":0.7480314960629921,"duration":0.3375000000000057},{"name":"C#6","midi":85,"time":250.5,"velocity":0.7480314960629921,"duration":0.3375000000000057},{"name":"C#6","midi":85,"time":250.875,"velocity":0.7480314960629921,"duration":0.3375000000000057},{"name":"C#6","midi":85,"time":251.25,"velocity":0.7480314960629921,"duration":0.3375000000000057},{"name":"F#5","midi":78,"time":251.625,"velocity":0.7480314960629921,"duration":0.3375000000000057},{"name":"B5","midi":83,"time":252,"velocity":0.7480314960629921,"duration":0.3375000000000057},{"name":"B5","midi":83,"time":252.375,"velocity":0.7480314960629921,"duration":0.3375000000000057},{"name":"B5","midi":83,"time":252.75,"velocity":0.7480314960629921,"duration":0.3375000000000057},{"name":"B5","midi":83,"time":253.125,"velocity":0.7480314960629921,"duration":0.3375000000000057},{"name":"B5","midi":83,"time":253.5,"velocity":0.7480314960629921,"duration":0.3375000000000057},{"name":"B5","midi":83,"time":253.875,"velocity":0.7480314960629921,"duration":0.3375000000000057},{"name":"B5","midi":83,"time":254.25,"velocity":0.7480314960629921,"duration":0.3375000000000057},{"name":"B5","midi":83,"time":254.625,"velocity":0.7480314960629921,"duration":0.3375000000000057},{"name":"B5","midi":83,"time":255,"velocity":0.7480314960629921,"duration":0.3375000000000057},{"name":"F#5","midi":78,"time":255.375,"velocity":0.7480314960629921,"duration":0.3375000000000057},{"name":"F#5","midi":78,"time":255.75,"velocity":0.7480314960629921,"duration":0.33749999999997726},{"name":"F#5","midi":78,"time":256.125,"velocity":0.7480314960629921,"duration":0.33749999999997726},{"name":"F#5","midi":78,"time":256.5,"velocity":0.7480314960629921,"duration":0.33749999999997726},{"name":"F#5","midi":78,"time":256.875,"velocity":0.7480314960629921,"duration":0.33749999999997726},{"name":"F#5","midi":78,"time":257.25,"velocity":0.7480314960629921,"duration":0.33749999999997726},{"name":"F#5","midi":78,"time":257.625,"velocity":0.7480314960629921,"duration":0.33749999999997726},{"name":"F#5","midi":78,"time":258,"velocity":0.7480314960629921,"duration":0.33749999999997726},{"name":"F#5","midi":78,"time":258.375,"velocity":0.7480314960629921,"duration":0.33749999999997726},{"name":"F#5","midi":78,"time":258.75,"velocity":0.7480314960629921,"duration":0.33749999999997726},{"name":"F#5","midi":78,"time":259.125,"velocity":0.7480314960629921,"duration":0.33749999999997726},{"name":"F#5","midi":78,"time":259.5,"velocity":0.7480314960629921,"duration":0.33749999999997726},{"name":"F#5","midi":78,"time":259.875,"velocity":0.7480314960629921,"duration":0.33749999999997726},{"name":"F#5","midi":78,"time":260.25,"velocity":0.7480314960629921,"duration":0.33749999999997726},{"name":"F#5","midi":78,"time":260.625,"velocity":0.7480314960629921,"duration":0.33749999999997726},{"name":"A5","midi":81,"time":477,"velocity":0.7480314960629921,"duration":0.08437500000002274},{"name":"A6","midi":93,"time":477,"velocity":0.7480314960629921,"duration":0.08437500000002274},{"name":"A6","midi":93,"time":477.09375,"velocity":0.7480314960629921,"duration":0.08437500000002274},{"name":"A5","midi":81,"time":477.09375,"velocity":0.7480314960629921,"duration":0.08437500000002274},{"name":"A6","midi":93,"time":477.1875,"velocity":0.7480314960629921,"duration":0.08437500000002274},{"name":"A5","midi":81,"time":477.1875,"velocity":0.7480314960629921,"duration":0.08437500000002274},{"name":"A6","midi":93,"time":477.28125,"velocity":0.7480314960629921,"duration":0.08437500000002274},{"name":"A5","midi":81,"time":477.28125,"velocity":0.7480314960629921,"duration":0.08437500000002274},{"name":"A6","midi":93,"time":477.375,"velocity":0.7480314960629921,"duration":0.08437500000002274},{"name":"A5","midi":81,"time":477.375,"velocity":0.7480314960629921,"duration":0.08437500000002274},{"name":"A6","midi":93,"time":477.46875,"velocity":0.7480314960629921,"duration":0.08437500000002274},{"name":"A5","midi":81,"time":477.46875,"velocity":0.7480314960629921,"duration":0.08437500000002274},{"name":"A6","midi":93,"time":477.5625,"velocity":0.7480314960629921,"duration":0.08437500000002274},{"name":"A5","midi":81,"time":477.5625,"velocity":0.7480314960629921,"duration":0.08437500000002274},{"name":"A5","midi":81,"time":477.65625,"velocity":0.7480314960629921,"duration":0.08437500000002274},{"name":"A6","midi":93,"time":477.65625,"velocity":0.7480314960629921,"duration":0.08437500000002274},{"name":"A5","midi":81,"time":477.75,"velocity":0.7480314960629921,"duration":0.08437500000002274},{"name":"A6","midi":93,"time":477.75,"velocity":0.7480314960629921,"duration":0.08437500000002274},{"name":"A6","midi":93,"time":477.84375,"velocity":0.7480314960629921,"duration":0.08437500000002274},{"name":"A5","midi":81,"time":477.84375,"velocity":0.7480314960629921,"duration":0.08437500000002274},{"name":"A5","midi":81,"time":477.9375,"velocity":0.7480314960629921,"duration":0.08437500000002274},{"name":"A6","midi":93,"time":477.9375,"velocity":0.7480314960629921,"duration":0.08437500000002274},{"name":"A6","midi":93,"time":478.03125,"velocity":0.7480314960629921,"duration":0.08437500000002274},{"name":"A5","midi":81,"time":478.03125,"velocity":0.7480314960629921,"duration":0.08437500000002274},{"name":"A6","midi":93,"time":478.125,"velocity":0.7480314960629921,"duration":0.08437500000002274},{"name":"A5","midi":81,"time":478.125,"velocity":0.7480314960629921,"duration":0.08437500000002274},{"name":"A5","midi":81,"time":478.21875,"velocity":0.7480314960629921,"duration":0.08437500000002274},{"name":"A6","midi":93,"time":478.21875,"velocity":0.7480314960629921,"duration":0.08437500000002274},{"name":"A6","midi":93,"time":478.3125,"velocity":0.7480314960629921,"duration":0.08437500000002274},{"name":"A5","midi":81,"time":478.3125,"velocity":0.7480314960629921,"duration":0.08437500000002274},{"name":"A5","midi":81,"time":478.40625,"velocity":0.7480314960629921,"duration":0.08437500000002274},{"name":"A6","midi":93,"time":478.40625,"velocity":0.7480314960629921,"duration":0.08437500000002274},{"name":"A6","midi":93,"time":478.5,"velocity":0.7480314960629921,"duration":0.08437500000002274},{"name":"A5","midi":81,"time":478.5,"velocity":0.7480314960629921,"duration":0.08437500000002274},{"name":"A5","midi":81,"time":478.59375,"velocity":0.7480314960629921,"duration":0.08437500000002274},{"name":"A6","midi":93,"time":478.59375,"velocity":0.7480314960629921,"duration":0.08437500000002274},{"name":"A5","midi":81,"time":478.6875,"velocity":0.7480314960629921,"duration":0.08437500000002274},{"name":"A6","midi":93,"time":478.6875,"velocity":0.7480314960629921,"duration":0.08437500000002274},{"name":"A5","midi":81,"time":478.78125,"velocity":0.7480314960629921,"duration":0.08437500000002274},{"name":"A6","midi":93,"time":478.78125,"velocity":0.7480314960629921,"duration":0.08437500000002274},{"name":"A5","midi":81,"time":478.875,"velocity":0.7480314960629921,"duration":0.08437500000002274},{"name":"A6","midi":93,"time":478.875,"velocity":0.7480314960629921,"duration":0.08437500000002274},{"name":"A6","midi":93,"time":478.96875,"velocity":0.7480314960629921,"duration":0.08437500000002274},{"name":"A5","midi":81,"time":478.96875,"velocity":0.7480314960629921,"duration":0.08437500000002274},{"name":"A6","midi":93,"time":479.0625,"velocity":0.7480314960629921,"duration":0.08437500000002274},{"name":"A5","midi":81,"time":479.0625,"velocity":0.7480314960629921,"duration":0.08437500000002274},{"name":"A5","midi":81,"time":479.15625,"velocity":0.7480314960629921,"duration":0.08437500000002274},{"name":"A6","midi":93,"time":479.15625,"velocity":0.7480314960629921,"duration":0.08437500000002274},{"name":"A5","midi":81,"time":479.25,"velocity":0.7480314960629921,"duration":0.08437500000002274},{"name":"A6","midi":93,"time":479.25,"velocity":0.7480314960629921,"duration":0.08437500000002274},{"name":"A6","midi":93,"time":479.34375,"velocity":0.7480314960629921,"duration":0.08437500000002274},{"name":"A5","midi":81,"time":479.34375,"velocity":0.7480314960629921,"duration":0.08437500000002274},{"name":"A5","midi":81,"time":479.4375,"velocity":0.7480314960629921,"duration":0.08437500000002274},{"name":"A6","midi":93,"time":479.4375,"velocity":0.7480314960629921,"duration":0.08437500000002274},{"name":"A6","midi":93,"time":479.53125,"velocity":0.7480314960629921,"duration":0.08437500000002274},{"name":"A5","midi":81,"time":479.53125,"velocity":0.7480314960629921,"duration":0.08437500000002274},{"name":"A5","midi":81,"time":479.625,"velocity":0.7480314960629921,"duration":0.08437500000002274},{"name":"A6","midi":93,"time":479.625,"velocity":0.7480314960629921,"duration":0.08437500000002274},{"name":"A5","midi":81,"time":479.71875,"velocity":0.7480314960629921,"duration":0.08437500000002274},{"name":"A6","midi":93,"time":479.71875,"velocity":0.7480314960629921,"duration":0.08437500000002274},{"name":"A6","midi":93,"time":479.8125,"velocity":0.7480314960629921,"duration":0.08437500000002274},{"name":"A5","midi":81,"time":479.8125,"velocity":0.7480314960629921,"duration":0.08437500000002274},{"name":"A6","midi":93,"time":479.90625,"velocity":0.7480314960629921,"duration":0.08437500000002274},{"name":"A5","midi":81,"time":479.90625,"velocity":0.7480314960629921,"duration":0.08437500000002274},{"name":"A6","midi":93,"time":480,"velocity":0.7480314960629921,"duration":0.08437500000002274},{"name":"A5","midi":81,"time":480,"velocity":0.7480314960629921,"duration":0.08437500000002274},{"name":"A6","midi":93,"time":480.09375,"velocity":0.7480314960629921,"duration":0.08437500000002274},{"name":"A5","midi":81,"time":480.09375,"velocity":0.7480314960629921,"duration":0.08437500000002274},{"name":"A5","midi":81,"time":480.1875,"velocity":0.7480314960629921,"duration":0.08437500000002274},{"name":"A6","midi":93,"time":480.1875,"velocity":0.7480314960629921,"duration":0.08437500000002274},{"name":"A5","midi":81,"time":480.28125,"velocity":0.7480314960629921,"duration":0.08437500000002274},{"name":"A6","midi":93,"time":480.28125,"velocity":0.7480314960629921,"duration":0.08437500000002274},{"name":"A5","midi":81,"time":480.375,"velocity":0.7480314960629921,"duration":0.08437500000002274},{"name":"A6","midi":93,"time":480.375,"velocity":0.7480314960629921,"duration":0.08437500000002274},{"name":"A6","midi":93,"time":480.46875,"velocity":0.7480314960629921,"duration":0.08437500000002274},{"name":"A5","midi":81,"time":480.46875,"velocity":0.7480314960629921,"duration":0.08437500000002274},{"name":"A6","midi":93,"time":480.5625,"velocity":0.7480314960629921,"duration":0.08437500000002274},{"name":"A5","midi":81,"time":480.5625,"velocity":0.7480314960629921,"duration":0.08437500000002274},{"name":"A5","midi":81,"time":480.65625,"velocity":0.7480314960629921,"duration":0.08437500000002274},{"name":"A6","midi":93,"time":480.65625,"velocity":0.7480314960629921,"duration":0.08437500000002274},{"name":"A6","midi":93,"time":480.75,"velocity":0.7480314960629921,"duration":0.08437500000002274},{"name":"A5","midi":81,"time":480.75,"velocity":0.7480314960629921,"duration":0.08437500000002274},{"name":"A5","midi":81,"time":480.84375,"velocity":0.7480314960629921,"duration":0.08437500000002274},{"name":"A6","midi":93,"time":480.84375,"velocity":0.7480314960629921,"duration":0.08437500000002274},{"name":"A5","midi":81,"time":480.9375,"velocity":0.7480314960629921,"duration":0.08437500000002274},{"name":"A6","midi":93,"time":480.9375,"velocity":0.7480314960629921,"duration":0.08437500000002274},{"name":"A6","midi":93,"time":481.03125,"velocity":0.7480314960629921,"duration":0.08437500000002274},{"name":"A5","midi":81,"time":481.03125,"velocity":0.7480314960629921,"duration":0.08437500000002274},{"name":"A5","midi":81,"time":481.125,"velocity":0.7480314960629921,"duration":0.08437500000002274},{"name":"A6","midi":93,"time":481.125,"velocity":0.7480314960629921,"duration":0.08437500000002274},{"name":"A6","midi":93,"time":481.21875,"velocity":0.7480314960629921,"duration":0.08437500000002274},{"name":"A5","midi":81,"time":481.21875,"velocity":0.7480314960629921,"duration":0.08437500000002274},{"name":"A6","midi":93,"time":481.3125,"velocity":0.7480314960629921,"duration":0.08437500000002274},{"name":"A5","midi":81,"time":481.3125,"velocity":0.7480314960629921,"duration":0.08437500000002274},{"name":"A6","midi":93,"time":481.40625,"velocity":0.7480314960629921,"duration":0.08437500000002274},{"name":"A5","midi":81,"time":481.40625,"velocity":0.7480314960629921,"duration":0.08437500000002274},{"name":"A6","midi":93,"time":481.5,"velocity":0.7480314960629921,"duration":0.08437500000002274},{"name":"A5","midi":81,"time":481.5,"velocity":0.7480314960629921,"duration":0.08437500000002274},{"name":"A6","midi":93,"time":481.59375,"velocity":0.7480314960629921,"duration":0.08437500000002274},{"name":"A5","midi":81,"time":481.59375,"velocity":0.7480314960629921,"duration":0.08437500000002274},{"name":"A5","midi":81,"time":481.6875,"velocity":0.7480314960629921,"duration":0.08437500000002274},{"name":"A6","midi":93,"time":481.6875,"velocity":0.7480314960629921,"duration":0.08437500000002274},{"name":"A5","midi":81,"time":481.78125,"velocity":0.7480314960629921,"duration":0.08437500000002274},{"name":"A6","midi":93,"time":481.78125,"velocity":0.7480314960629921,"duration":0.08437500000002274},{"name":"A5","midi":81,"time":481.875,"velocity":0.7480314960629921,"duration":0.08437500000002274},{"name":"A6","midi":93,"time":481.875,"velocity":0.7480314960629921,"duration":0.08437500000002274},{"name":"A6","midi":93,"time":481.96875,"velocity":0.7480314960629921,"duration":0.08437500000002274},{"name":"A5","midi":81,"time":481.96875,"velocity":0.7480314960629921,"duration":0.08437500000002274},{"name":"A6","midi":93,"time":482.0625,"velocity":0.7480314960629921,"duration":0.08437500000002274},{"name":"A5","midi":81,"time":482.0625,"velocity":0.7480314960629921,"duration":0.08437500000002274},{"name":"A6","midi":93,"time":482.15625,"velocity":0.7480314960629921,"duration":0.08437500000002274},{"name":"A5","midi":81,"time":482.15625,"velocity":0.7480314960629921,"duration":0.08437500000002274},{"name":"G#5","midi":80,"time":482.25,"velocity":0.7480314960629921,"duration":0.08437500000002274},{"name":"G#6","midi":92,"time":482.25,"velocity":0.7480314960629921,"duration":0.08437500000002274},{"name":"G#5","midi":80,"time":482.34375,"velocity":0.7480314960629921,"duration":0.08437500000002274},{"name":"G#6","midi":92,"time":482.34375,"velocity":0.7480314960629921,"duration":0.08437500000002274},{"name":"G#6","midi":92,"time":482.4375,"velocity":0.7480314960629921,"duration":0.08437500000002274},{"name":"G#5","midi":80,"time":482.4375,"velocity":0.7480314960629921,"duration":0.08437500000002274},{"name":"G#5","midi":80,"time":482.53125,"velocity":0.7480314960629921,"duration":0.08437500000002274},{"name":"G#6","midi":92,"time":482.53125,"velocity":0.7480314960629921,"duration":0.08437500000002274},{"name":"E6","midi":88,"time":482.625,"velocity":0.7480314960629921,"duration":0.08437500000002274},{"name":"E5","midi":76,"time":482.625,"velocity":0.7480314960629921,"duration":0.08437500000002274},{"name":"E6","midi":88,"time":482.71875,"velocity":0.7480314960629921,"duration":0.08437500000002274},{"name":"E5","midi":76,"time":482.71875,"velocity":0.7480314960629921,"duration":0.08437500000002274},{"name":"E5","midi":76,"time":482.8125,"velocity":0.7480314960629921,"duration":0.08437500000002274},{"name":"E6","midi":88,"time":482.8125,"velocity":0.7480314960629921,"duration":0.08437500000002274},{"name":"E5","midi":76,"time":482.90625,"velocity":0.7480314960629921,"duration":0.08437500000002274},{"name":"E6","midi":88,"time":482.90625,"velocity":0.7480314960629921,"duration":0.08437500000002274},{"name":"E5","midi":76,"time":483,"velocity":0.7480314960629921,"duration":0.08437500000002274},{"name":"E6","midi":88,"time":483,"velocity":0.7480314960629921,"duration":0.08437500000002274},{"name":"E5","midi":76,"time":483.09375,"velocity":0.7480314960629921,"duration":0.08437500000002274},{"name":"E6","midi":88,"time":483.09375,"velocity":0.7480314960629921,"duration":0.08437500000002274},{"name":"E5","midi":76,"time":483.1875,"velocity":0.7480314960629921,"duration":0.08437500000002274},{"name":"E6","midi":88,"time":483.1875,"velocity":0.7480314960629921,"duration":0.08437500000002274},{"name":"E5","midi":76,"time":483.28125,"velocity":0.7480314960629921,"duration":0.08437500000002274},{"name":"E6","midi":88,"time":483.28125,"velocity":0.7480314960629921,"duration":0.08437500000002274},{"name":"E5","midi":76,"time":483.375,"velocity":0.7480314960629921,"duration":0.08437500000002274},{"name":"E6","midi":88,"time":483.375,"velocity":0.7480314960629921,"duration":0.08437500000002274},{"name":"E6","midi":88,"time":483.46875,"velocity":0.7480314960629921,"duration":0.08437500000002274},{"name":"E5","midi":76,"time":483.46875,"velocity":0.7480314960629921,"duration":0.08437500000002274},{"name":"E6","midi":88,"time":483.5625,"velocity":0.7480314960629921,"duration":0.08437500000002274},{"name":"E5","midi":76,"time":483.5625,"velocity":0.7480314960629921,"duration":0.08437500000002274},{"name":"E5","midi":76,"time":483.65625,"velocity":0.7480314960629921,"duration":0.08437500000002274},{"name":"E6","midi":88,"time":483.65625,"velocity":0.7480314960629921,"duration":0.08437500000002274},{"name":"E5","midi":76,"time":483.75,"velocity":0.7480314960629921,"duration":0.08437500000002274},{"name":"E6","midi":88,"time":483.75,"velocity":0.7480314960629921,"duration":0.08437500000002274},{"name":"E5","midi":76,"time":483.84375,"velocity":0.7480314960629921,"duration":0.08437500000002274},{"name":"E6","midi":88,"time":483.84375,"velocity":0.7480314960629921,"duration":0.08437500000002274},{"name":"E5","midi":76,"time":483.9375,"velocity":0.7480314960629921,"duration":0.08437500000002274},{"name":"E6","midi":88,"time":483.9375,"velocity":0.7480314960629921,"duration":0.08437500000002274},{"name":"E5","midi":76,"time":484.03125,"velocity":0.7480314960629921,"duration":0.08437500000002274},{"name":"E6","midi":88,"time":484.03125,"velocity":0.7480314960629921,"duration":0.08437500000002274},{"name":"F#5","midi":78,"time":484.125,"velocity":0.7480314960629921,"duration":0.08437500000002274},{"name":"F#6","midi":90,"time":484.125,"velocity":0.7480314960629921,"duration":0.08437500000002274},{"name":"F#6","midi":90,"time":484.21875,"velocity":0.7480314960629921,"duration":0.08437500000002274},{"name":"F#5","midi":78,"time":484.21875,"velocity":0.7480314960629921,"duration":0.08437500000002274},{"name":"F#5","midi":78,"time":484.3125,"velocity":0.7480314960629921,"duration":0.08437500000002274},{"name":"F#6","midi":90,"time":484.3125,"velocity":0.7480314960629921,"duration":0.08437500000002274},{"name":"F#6","midi":90,"time":484.40625,"velocity":0.7480314960629921,"duration":0.08437500000002274},{"name":"F#5","midi":78,"time":484.40625,"velocity":0.7480314960629921,"duration":0.08437500000002274},{"name":"F#6","midi":90,"time":484.5,"velocity":0.7480314960629921,"duration":0.08437500000002274},{"name":"F#5","midi":78,"time":484.5,"velocity":0.7480314960629921,"duration":0.08437500000002274},{"name":"F#5","midi":78,"time":484.59375,"velocity":0.7480314960629921,"duration":0.08437500000002274},{"name":"F#6","midi":90,"time":484.59375,"velocity":0.7480314960629921,"duration":0.08437500000002274},{"name":"F#5","midi":78,"time":484.6875,"velocity":0.7480314960629921,"duration":0.08437500000002274},{"name":"F#6","midi":90,"time":484.6875,"velocity":0.7480314960629921,"duration":0.08437500000002274},{"name":"F#5","midi":78,"time":484.78125,"velocity":0.7480314960629921,"duration":0.08437500000002274},{"name":"F#6","midi":90,"time":484.78125,"velocity":0.7480314960629921,"duration":0.08437500000002274},{"name":"F#5","midi":78,"time":484.875,"velocity":0.7480314960629921,"duration":0.08437500000002274},{"name":"F#6","midi":90,"time":484.875,"velocity":0.7480314960629921,"duration":0.08437500000002274},{"name":"F#6","midi":90,"time":484.96875,"velocity":0.7480314960629921,"duration":0.08437500000002274},{"name":"F#5","midi":78,"time":484.96875,"velocity":0.7480314960629921,"duration":0.08437500000002274},{"name":"F#6","midi":90,"time":485.0625,"velocity":0.7480314960629921,"duration":0.08437500000002274},{"name":"F#5","midi":78,"time":485.0625,"velocity":0.7480314960629921,"duration":0.08437500000002274},{"name":"F#6","midi":90,"time":485.15625,"velocity":0.7480314960629921,"duration":0.08437500000002274},{"name":"F#5","midi":78,"time":485.15625,"velocity":0.7480314960629921,"duration":0.08437500000002274},{"name":"A4","midi":69,"time":485.25,"velocity":0.7480314960629921,"duration":0.08437500000002274},{"name":"A5","midi":81,"time":485.25,"velocity":0.7480314960629921,"duration":0.08437500000002274},{"name":"A5","midi":81,"time":485.34375,"velocity":0.7480314960629921,"duration":0.08437500000002274},{"name":"A4","midi":69,"time":485.34375,"velocity":0.7480314960629921,"duration":0.08437500000002274},{"name":"A4","midi":69,"time":485.4375,"velocity":0.7480314960629921,"duration":0.08437500000002274},{"name":"A5","midi":81,"time":485.4375,"velocity":0.7480314960629921,"duration":0.08437500000002274},{"name":"A5","midi":81,"time":485.53125,"velocity":0.7480314960629921,"duration":0.08437500000002274},{"name":"A4","midi":69,"time":485.53125,"velocity":0.7480314960629921,"duration":0.08437500000002274},{"name":"A5","midi":81,"time":485.625,"velocity":0.7480314960629921,"duration":0.08437500000002274},{"name":"A4","midi":69,"time":485.625,"velocity":0.7480314960629921,"duration":0.08437500000002274},{"name":"A4","midi":69,"time":485.71875,"velocity":0.7480314960629921,"duration":0.08437500000002274},{"name":"A5","midi":81,"time":485.71875,"velocity":0.7480314960629921,"duration":0.08437500000002274},{"name":"A4","midi":69,"time":485.8125,"velocity":0.7480314960629921,"duration":0.08437500000002274},{"name":"A5","midi":81,"time":485.8125,"velocity":0.7480314960629921,"duration":0.08437500000002274},{"name":"A4","midi":69,"time":485.90625,"velocity":0.7480314960629921,"duration":0.08437500000002274},{"name":"A5","midi":81,"time":485.90625,"velocity":0.7480314960629921,"duration":0.08437500000002274},{"name":"A4","midi":69,"time":486,"velocity":0.7480314960629921,"duration":0.08437500000002274},{"name":"A5","midi":81,"time":486,"velocity":0.7480314960629921,"duration":0.08437500000002274},{"name":"A4","midi":69,"time":486.09375,"velocity":0.7480314960629921,"duration":0.08437500000002274},{"name":"A5","midi":81,"time":486.09375,"velocity":0.7480314960629921,"duration":0.08437500000002274},{"name":"A4","midi":69,"time":486.1875,"velocity":0.7480314960629921,"duration":0.08437500000002274},{"name":"A5","midi":81,"time":486.1875,"velocity":0.7480314960629921,"duration":0.08437500000002274},{"name":"A4","midi":69,"time":486.28125,"velocity":0.7480314960629921,"duration":0.08437500000002274},{"name":"A5","midi":81,"time":486.28125,"velocity":0.7480314960629921,"duration":0.08437500000002274},{"name":"A4","midi":69,"time":486.375,"velocity":0.7480314960629921,"duration":0.08437500000002274},{"name":"A5","midi":81,"time":486.375,"velocity":0.7480314960629921,"duration":0.08437500000002274},{"name":"A4","midi":69,"time":486.46875,"velocity":0.7480314960629921,"duration":0.08437500000002274},{"name":"A5","midi":81,"time":486.46875,"velocity":0.7480314960629921,"duration":0.08437500000002274},{"name":"A4","midi":69,"time":486.5625,"velocity":0.7480314960629921,"duration":0.08437500000002274},{"name":"A5","midi":81,"time":486.5625,"velocity":0.7480314960629921,"duration":0.08437500000002274},{"name":"A4","midi":69,"time":486.65625,"velocity":0.7480314960629921,"duration":0.08437500000002274},{"name":"A5","midi":81,"time":486.65625,"velocity":0.7480314960629921,"duration":0.08437500000002274},{"name":"B4","midi":71,"time":486.75,"velocity":0.7480314960629921,"duration":0.08437500000002274},{"name":"B5","midi":83,"time":486.75,"velocity":0.7480314960629921,"duration":0.08437500000002274},{"name":"B4","midi":71,"time":486.84375,"velocity":0.7480314960629921,"duration":0.08437500000002274},{"name":"B5","midi":83,"time":486.84375,"velocity":0.7480314960629921,"duration":0.08437500000002274},{"name":"B4","midi":71,"time":486.9375,"velocity":0.7480314960629921,"duration":0.08437500000002274},{"name":"B5","midi":83,"time":486.9375,"velocity":0.7480314960629921,"duration":0.08437500000002274},{"name":"B5","midi":83,"time":487.03125,"velocity":0.7480314960629921,"duration":0.08437500000002274},{"name":"B4","midi":71,"time":487.03125,"velocity":0.7480314960629921,"duration":0.08437500000002274},{"name":"B4","midi":71,"time":487.125,"velocity":0.7480314960629921,"duration":0.08437500000002274},{"name":"B5","midi":83,"time":487.125,"velocity":0.7480314960629921,"duration":0.08437500000002274},{"name":"B4","midi":71,"time":487.21875,"velocity":0.7480314960629921,"duration":0.08437500000002274},{"name":"B5","midi":83,"time":487.21875,"velocity":0.7480314960629921,"duration":0.08437500000002274},{"name":"B5","midi":83,"time":487.3125,"velocity":0.7480314960629921,"duration":0.08437500000002274},{"name":"B4","midi":71,"time":487.3125,"velocity":0.7480314960629921,"duration":0.08437500000002274},{"name":"B4","midi":71,"time":487.40625,"velocity":0.7480314960629921,"duration":0.08437500000002274},{"name":"B5","midi":83,"time":487.40625,"velocity":0.7480314960629921,"duration":0.08437500000002274},{"name":"C#5","midi":73,"time":487.5,"velocity":0.7480314960629921,"duration":0.08437500000002274},{"name":"C#6","midi":85,"time":487.5,"velocity":0.7480314960629921,"duration":0.08437500000002274},{"name":"C#6","midi":85,"time":487.59375,"velocity":0.7480314960629921,"duration":0.08437500000002274},{"name":"C#5","midi":73,"time":487.59375,"velocity":0.7480314960629921,"duration":0.08437500000002274},{"name":"C#6","midi":85,"time":487.6875,"velocity":0.7480314960629921,"duration":0.08437500000002274},{"name":"C#5","midi":73,"time":487.6875,"velocity":0.7480314960629921,"duration":0.08437500000002274},{"name":"C#6","midi":85,"time":487.78125,"velocity":0.7480314960629921,"duration":0.08437500000002274},{"name":"C#5","midi":73,"time":487.78125,"velocity":0.7480314960629921,"duration":0.08437500000002274},{"name":"C#5","midi":73,"time":487.875,"velocity":0.7480314960629921,"duration":0.08437500000002274},{"name":"C#6","midi":85,"time":487.875,"velocity":0.7480314960629921,"duration":0.08437500000002274},{"name":"C#6","midi":85,"time":487.96875,"velocity":0.7480314960629921,"duration":0.08437500000002274},{"name":"C#5","midi":73,"time":487.96875,"velocity":0.7480314960629921,"duration":0.08437500000002274},{"name":"C#6","midi":85,"time":488.0625,"velocity":0.7480314960629921,"duration":0.08437500000002274},{"name":"C#5","midi":73,"time":488.0625,"velocity":0.7480314960629921,"duration":0.08437500000002274},{"name":"C#6","midi":85,"time":488.15625,"velocity":0.7480314960629921,"duration":0.08437500000002274},{"name":"C#5","midi":73,"time":488.15625,"velocity":0.7480314960629921,"duration":0.08437500000002274},{"name":"D6","midi":86,"time":488.25,"velocity":0.7480314960629921,"duration":0.08437500000002274},{"name":"D5","midi":74,"time":488.25,"velocity":0.7480314960629921,"duration":0.08437500000002274},{"name":"D5","midi":74,"time":488.34375,"velocity":0.7480314960629921,"duration":0.08437500000002274},{"name":"D6","midi":86,"time":488.34375,"velocity":0.7480314960629921,"duration":0.08437500000002274},{"name":"D5","midi":74,"time":488.4375,"velocity":0.7480314960629921,"duration":0.08437500000002274},{"name":"D6","midi":86,"time":488.4375,"velocity":0.7480314960629921,"duration":0.08437500000002274},{"name":"D5","midi":74,"time":488.53125,"velocity":0.7480314960629921,"duration":0.08437500000002274},{"name":"D6","midi":86,"time":488.53125,"velocity":0.7480314960629921,"duration":0.08437500000002274},{"name":"D5","midi":74,"time":488.625,"velocity":0.7480314960629921,"duration":0.08437500000002274},{"name":"D6","midi":86,"time":488.625,"velocity":0.7480314960629921,"duration":0.08437500000002274},{"name":"D5","midi":74,"time":488.71875,"velocity":0.7480314960629921,"duration":0.08437500000002274},{"name":"D6","midi":86,"time":488.71875,"velocity":0.7480314960629921,"duration":0.08437500000002274},{"name":"D5","midi":74,"time":488.8125,"velocity":0.7480314960629921,"duration":0.08437500000002274},{"name":"D6","midi":86,"time":488.8125,"velocity":0.7480314960629921,"duration":0.08437500000002274},{"name":"D5","midi":74,"time":488.90625,"velocity":0.7480314960629921,"duration":0.08437500000002274},{"name":"D6","midi":86,"time":488.90625,"velocity":0.7480314960629921,"duration":0.08437500000002274},{"name":"C#6","midi":85,"time":489,"velocity":0.7480314960629921,"duration":0.08437500000002274},{"name":"C#5","midi":73,"time":489,"velocity":0.7480314960629921,"duration":0.08437500000002274},{"name":"C#6","midi":85,"time":489.09375,"velocity":0.7480314960629921,"duration":0.08437500000002274},{"name":"C#5","midi":73,"time":489.09375,"velocity":0.7480314960629921,"duration":0.08437500000002274},{"name":"C#5","midi":73,"time":489.1875,"velocity":0.7480314960629921,"duration":0.08437500000002274},{"name":"C#6","midi":85,"time":489.1875,"velocity":0.7480314960629921,"duration":0.08437500000002274},{"name":"C#5","midi":73,"time":489.28125,"velocity":0.7480314960629921,"duration":0.08437500000002274},{"name":"C#6","midi":85,"time":489.28125,"velocity":0.7480314960629921,"duration":0.08437500000002274},{"name":"C#6","midi":85,"time":489.375,"velocity":0.7480314960629921,"duration":0.08437500000002274},{"name":"C#5","midi":73,"time":489.375,"velocity":0.7480314960629921,"duration":0.08437500000002274},{"name":"C#5","midi":73,"time":489.46875,"velocity":0.7480314960629921,"duration":0.08437500000002274},{"name":"C#6","midi":85,"time":489.46875,"velocity":0.7480314960629921,"duration":0.08437500000002274},{"name":"C#5","midi":73,"time":489.5625,"velocity":0.7480314960629921,"duration":0.08437500000002274},{"name":"C#6","midi":85,"time":489.5625,"velocity":0.7480314960629921,"duration":0.08437500000002274},{"name":"C#6","midi":85,"time":489.65625,"velocity":0.7480314960629921,"duration":0.08437500000002274},{"name":"C#5","midi":73,"time":489.65625,"velocity":0.7480314960629921,"duration":0.08437500000002274},{"name":"B5","midi":83,"time":489.75,"velocity":0.7480314960629921,"duration":0.08437500000002274},{"name":"B4","midi":71,"time":489.75,"velocity":0.7480314960629921,"duration":0.08437500000002274},{"name":"B4","midi":71,"time":489.84375,"velocity":0.7480314960629921,"duration":0.08437500000002274},{"name":"B5","midi":83,"time":489.84375,"velocity":0.7480314960629921,"duration":0.08437500000002274},{"name":"B4","midi":71,"time":489.9375,"velocity":0.7480314960629921,"duration":0.08437500000002274},{"name":"B5","midi":83,"time":489.9375,"velocity":0.7480314960629921,"duration":0.08437500000002274},{"name":"B4","midi":71,"time":490.03125,"velocity":0.7480314960629921,"duration":0.08437500000002274},{"name":"B5","midi":83,"time":490.03125,"velocity":0.7480314960629921,"duration":0.08437500000002274},{"name":"B4","midi":71,"time":490.125,"velocity":0.7480314960629921,"duration":0.08437500000002274},{"name":"B5","midi":83,"time":490.125,"velocity":0.7480314960629921,"duration":0.08437500000002274},{"name":"B4","midi":71,"time":490.21875,"velocity":0.7480314960629921,"duration":0.08437500000002274},{"name":"B5","midi":83,"time":490.21875,"velocity":0.7480314960629921,"duration":0.08437500000002274},{"name":"B4","midi":71,"time":490.3125,"velocity":0.7480314960629921,"duration":0.08437500000002274},{"name":"B5","midi":83,"time":490.3125,"velocity":0.7480314960629921,"duration":0.08437500000002274},{"name":"B4","midi":71,"time":490.40625,"velocity":0.7480314960629921,"duration":0.08437500000002274},{"name":"B5","midi":83,"time":490.40625,"velocity":0.7480314960629921,"duration":0.08437500000002274},{"name":"E6","midi":88,"time":490.5,"velocity":0.7480314960629921,"duration":0.08437500000002274},{"name":"E5","midi":76,"time":490.5,"velocity":0.7480314960629921,"duration":0.08437500000002274},{"name":"E6","midi":88,"time":490.59375,"velocity":0.7480314960629921,"duration":0.08437500000002274},{"name":"E5","midi":76,"time":490.59375,"velocity":0.7480314960629921,"duration":0.08437500000002274},{"name":"E5","midi":76,"time":490.6875,"velocity":0.7480314960629921,"duration":0.08437500000002274},{"name":"E6","midi":88,"time":490.6875,"velocity":0.7480314960629921,"duration":0.08437500000002274},{"name":"E5","midi":76,"time":490.78125,"velocity":0.7480314960629921,"duration":0.08437500000002274},{"name":"E6","midi":88,"time":490.78125,"velocity":0.7480314960629921,"duration":0.08437500000002274},{"name":"E6","midi":88,"time":490.875,"velocity":0.7480314960629921,"duration":0.08437500000002274},{"name":"E5","midi":76,"time":490.875,"velocity":0.7480314960629921,"duration":0.08437500000002274},{"name":"E6","midi":88,"time":490.96875,"velocity":0.7480314960629921,"duration":0.08437500000002274},{"name":"E5","midi":76,"time":490.96875,"velocity":0.7480314960629921,"duration":0.08437500000002274},{"name":"E6","midi":88,"time":491.0625,"velocity":0.7480314960629921,"duration":0.08437500000002274},{"name":"E5","midi":76,"time":491.0625,"velocity":0.7480314960629921,"duration":0.08437500000002274},{"name":"E5","midi":76,"time":491.15625,"velocity":0.7480314960629921,"duration":0.08437500000002274},{"name":"E6","midi":88,"time":491.15625,"velocity":0.7480314960629921,"duration":0.08437500000002274},{"name":"D6","midi":86,"time":491.25,"velocity":0.7480314960629921,"duration":0.08437500000002274},{"name":"D5","midi":74,"time":491.25,"velocity":0.7480314960629921,"duration":0.08437500000002274},{"name":"D6","midi":86,"time":491.34375,"velocity":0.7480314960629921,"duration":0.08437500000002274},{"name":"D5","midi":74,"time":491.34375,"velocity":0.7480314960629921,"duration":0.08437500000002274},{"name":"D6","midi":86,"time":491.4375,"velocity":0.7480314960629921,"duration":0.08437500000002274},{"name":"D5","midi":74,"time":491.4375,"velocity":0.7480314960629921,"duration":0.08437500000002274},{"name":"D6","midi":86,"time":491.53125,"velocity":0.7480314960629921,"duration":0.08437500000002274},{"name":"D5","midi":74,"time":491.53125,"velocity":0.7480314960629921,"duration":0.08437500000002274},{"name":"D6","midi":86,"time":491.625,"velocity":0.7480314960629921,"duration":0.08437500000002274},{"name":"D5","midi":74,"time":491.625,"velocity":0.7480314960629921,"duration":0.08437500000002274},{"name":"D6","midi":86,"time":491.71875,"velocity":0.7480314960629921,"duration":0.08437500000002274},{"name":"D5","midi":74,"time":491.71875,"velocity":0.7480314960629921,"duration":0.08437500000002274},{"name":"D6","midi":86,"time":491.8125,"velocity":0.7480314960629921,"duration":0.08437500000002274},{"name":"D5","midi":74,"time":491.8125,"velocity":0.7480314960629921,"duration":0.08437500000002274},{"name":"D6","midi":86,"time":491.90625,"velocity":0.7480314960629921,"duration":0.08437500000002274},{"name":"D5","midi":74,"time":491.90625,"velocity":0.7480314960629921,"duration":0.08437500000002274},{"name":"C#5","midi":73,"time":492,"velocity":0.7480314960629921,"duration":0.08437500000002274},{"name":"C#6","midi":85,"time":492,"velocity":0.7480314960629921,"duration":0.08437500000002274},{"name":"C#6","midi":85,"time":492.09375,"velocity":0.7480314960629921,"duration":0.08437500000002274},{"name":"C#5","midi":73,"time":492.09375,"velocity":0.7480314960629921,"duration":0.08437500000002274},{"name":"C#6","midi":85,"time":492.1875,"velocity":0.7480314960629921,"duration":0.08437500000002274},{"name":"C#5","midi":73,"time":492.1875,"velocity":0.7480314960629921,"duration":0.08437500000002274},{"name":"C#6","midi":85,"time":492.28125,"velocity":0.7480314960629921,"duration":0.08437500000002274},{"name":"C#5","midi":73,"time":492.28125,"velocity":0.7480314960629921,"duration":0.08437500000002274},{"name":"C#5","midi":73,"time":492.375,"velocity":0.7480314960629921,"duration":0.08437500000002274},{"name":"C#6","midi":85,"time":492.375,"velocity":0.7480314960629921,"duration":0.08437500000002274},{"name":"C#6","midi":85,"time":492.46875,"velocity":0.7480314960629921,"duration":0.08437500000002274},{"name":"C#5","midi":73,"time":492.46875,"velocity":0.7480314960629921,"duration":0.08437500000002274},{"name":"C#6","midi":85,"time":492.5625,"velocity":0.7480314960629921,"duration":0.08437500000002274},{"name":"C#5","midi":73,"time":492.5625,"velocity":0.7480314960629921,"duration":0.08437500000002274},{"name":"C#5","midi":73,"time":492.65625,"velocity":0.7480314960629921,"duration":0.08437500000002274},{"name":"C#6","midi":85,"time":492.65625,"velocity":0.7480314960629921,"duration":0.08437500000002274},{"name":"B4","midi":71,"time":492.75,"velocity":0.7480314960629921,"duration":0.08437500000002274},{"name":"B5","midi":83,"time":492.75,"velocity":0.7480314960629921,"duration":0.08437500000002274},{"name":"B4","midi":71,"time":492.84375,"velocity":0.7480314960629921,"duration":0.08437500000002274},{"name":"B5","midi":83,"time":492.84375,"velocity":0.7480314960629921,"duration":0.08437500000002274},{"name":"B5","midi":83,"time":492.9375,"velocity":0.7480314960629921,"duration":0.08437500000002274},{"name":"B4","midi":71,"time":492.9375,"velocity":0.7480314960629921,"duration":0.08437500000002274},{"name":"B4","midi":71,"time":493.03125,"velocity":0.7480314960629921,"duration":0.08437500000002274},{"name":"B5","midi":83,"time":493.03125,"velocity":0.7480314960629921,"duration":0.08437500000002274},{"name":"B4","midi":71,"time":493.125,"velocity":0.7480314960629921,"duration":0.08437500000002274},{"name":"B5","midi":83,"time":493.125,"velocity":0.7480314960629921,"duration":0.08437500000002274},{"name":"B4","midi":71,"time":493.21875,"velocity":0.7480314960629921,"duration":0.08437500000002274},{"name":"B5","midi":83,"time":493.21875,"velocity":0.7480314960629921,"duration":0.08437500000002274},{"name":"B4","midi":71,"time":493.3125,"velocity":0.7480314960629921,"duration":0.08437500000002274},{"name":"B5","midi":83,"time":493.3125,"velocity":0.7480314960629921,"duration":0.08437500000002274},{"name":"B4","midi":71,"time":493.40625,"velocity":0.7480314960629921,"duration":0.08437500000002274},{"name":"B5","midi":83,"time":493.40625,"velocity":0.7480314960629921,"duration":0.08437500000002274},{"name":"A4","midi":69,"time":493.5,"velocity":0.7480314960629921,"duration":0.08437500000002274},{"name":"A5","midi":81,"time":493.5,"velocity":0.7480314960629921,"duration":0.08437500000002274},{"name":"A4","midi":69,"time":493.59375,"velocity":0.7480314960629921,"duration":0.08437500000002274},{"name":"A5","midi":81,"time":493.59375,"velocity":0.7480314960629921,"duration":0.08437500000002274},{"name":"A5","midi":81,"time":493.6875,"velocity":0.7480314960629921,"duration":0.08437500000002274},{"name":"A4","midi":69,"time":493.6875,"velocity":0.7480314960629921,"duration":0.08437500000002274},{"name":"A4","midi":69,"time":493.78125,"velocity":0.7480314960629921,"duration":0.08437500000002274},{"name":"A5","midi":81,"time":493.78125,"velocity":0.7480314960629921,"duration":0.08437500000002274},{"name":"A4","midi":69,"time":493.875,"velocity":0.7480314960629921,"duration":0.08437500000002274},{"name":"A5","midi":81,"time":493.875,"velocity":0.7480314960629921,"duration":0.08437500000002274},{"name":"A5","midi":81,"time":493.96875,"velocity":0.7480314960629921,"duration":0.08437500000002274},{"name":"A4","midi":69,"time":493.96875,"velocity":0.7480314960629921,"duration":0.08437500000002274},{"name":"A5","midi":81,"time":494.0625,"velocity":0.7480314960629921,"duration":0.08437500000002274},{"name":"A4","midi":69,"time":494.0625,"velocity":0.7480314960629921,"duration":0.08437500000002274},{"name":"A5","midi":81,"time":494.15625,"velocity":0.7480314960629921,"duration":0.08437500000002274},{"name":"A4","midi":69,"time":494.15625,"velocity":0.7480314960629921,"duration":0.08437500000002274},{"name":"B5","midi":83,"time":494.25,"velocity":0.7480314960629921,"duration":0.08437500000002274},{"name":"B4","midi":71,"time":494.25,"velocity":0.7480314960629921,"duration":0.08437500000002274},{"name":"B5","midi":83,"time":494.34375,"velocity":0.7480314960629921,"duration":0.08437500000002274},{"name":"B4","midi":71,"time":494.34375,"velocity":0.7480314960629921,"duration":0.08437500000002274},{"name":"B5","midi":83,"time":494.4375,"velocity":0.7480314960629921,"duration":0.08437500000002274},{"name":"B4","midi":71,"time":494.4375,"velocity":0.7480314960629921,"duration":0.08437500000002274},{"name":"B5","midi":83,"time":494.53125,"velocity":0.7480314960629921,"duration":0.08437500000002274},{"name":"B4","midi":71,"time":494.53125,"velocity":0.7480314960629921,"duration":0.08437500000002274},{"name":"B4","midi":71,"time":494.625,"velocity":0.7480314960629921,"duration":0.08437500000002274},{"name":"B5","midi":83,"time":494.625,"velocity":0.7480314960629921,"duration":0.08437500000002274},{"name":"B4","midi":71,"time":494.71875,"velocity":0.7480314960629921,"duration":0.08437500000002274},{"name":"B5","midi":83,"time":494.71875,"velocity":0.7480314960629921,"duration":0.08437500000002274},{"name":"B5","midi":83,"time":494.8125,"velocity":0.7480314960629921,"duration":0.08437500000002274},{"name":"B4","midi":71,"time":494.8125,"velocity":0.7480314960629921,"duration":0.08437500000002274},{"name":"B4","midi":71,"time":494.90625,"velocity":0.7480314960629921,"duration":0.08437500000002274},{"name":"B5","midi":83,"time":494.90625,"velocity":0.7480314960629921,"duration":0.08437500000002274},{"name":"F#4","midi":66,"time":495,"velocity":0.7480314960629921,"duration":0.08437500000002274},{"name":"A4","midi":69,"time":495,"velocity":0.7480314960629921,"duration":0.08437500000002274},{"name":"F#5","midi":78,"time":495,"velocity":0.7480314960629921,"duration":0.08437500000002274},{"name":"F#4","midi":66,"time":495.09375,"velocity":0.7480314960629921,"duration":0.08437500000002274},{"name":"A4","midi":69,"time":495.09375,"velocity":0.7480314960629921,"duration":0.08437500000002274},{"name":"F#5","midi":78,"time":495.09375,"velocity":0.7480314960629921,"duration":0.08437500000002274},{"name":"F#4","midi":66,"time":495.1875,"velocity":0.7480314960629921,"duration":0.08437500000002274},{"name":"F#5","midi":78,"time":495.1875,"velocity":0.7480314960629921,"duration":0.08437500000002274},{"name":"A4","midi":69,"time":495.1875,"velocity":0.7480314960629921,"duration":0.08437500000002274},{"name":"F#4","midi":66,"time":495.28125,"velocity":0.7480314960629921,"duration":0.08437500000002274},{"name":"A4","midi":69,"time":495.28125,"velocity":0.7480314960629921,"duration":0.08437500000002274},{"name":"F#5","midi":78,"time":495.28125,"velocity":0.7480314960629921,"duration":0.08437500000002274},{"name":"F#4","midi":66,"time":495.375,"velocity":0.7480314960629921,"duration":0.08437500000002274},{"name":"F#5","midi":78,"time":495.375,"velocity":0.7480314960629921,"duration":0.08437500000002274},{"name":"A4","midi":69,"time":495.375,"velocity":0.7480314960629921,"duration":0.08437500000002274},{"name":"F#5","midi":78,"time":495.46875,"velocity":0.7480314960629921,"duration":0.08437500000002274},{"name":"A4","midi":69,"time":495.46875,"velocity":0.7480314960629921,"duration":0.08437500000002274},{"name":"F#4","midi":66,"time":495.46875,"velocity":0.7480314960629921,"duration":0.08437500000002274},{"name":"F#5","midi":78,"time":495.5625,"velocity":0.7480314960629921,"duration":0.08437500000002274},{"name":"A4","midi":69,"time":495.5625,"velocity":0.7480314960629921,"duration":0.08437500000002274},{"name":"F#4","midi":66,"time":495.5625,"velocity":0.7480314960629921,"duration":0.08437500000002274},{"name":"F#5","midi":78,"time":495.65625,"velocity":0.7480314960629921,"duration":0.08437500000002274},{"name":"A4","midi":69,"time":495.65625,"velocity":0.7480314960629921,"duration":0.08437500000002274},{"name":"F#4","midi":66,"time":495.65625,"velocity":0.7480314960629921,"duration":0.08437500000002274},{"name":"A4","midi":69,"time":495.75,"velocity":0.7480314960629921,"duration":0.08437500000002274},{"name":"F#4","midi":66,"time":495.75,"velocity":0.7480314960629921,"duration":0.08437500000002274},{"name":"F#5","midi":78,"time":495.75,"velocity":0.7480314960629921,"duration":0.08437500000002274},{"name":"A4","midi":69,"time":495.84375,"velocity":0.7480314960629921,"duration":0.08437500000002274},{"name":"F#4","midi":66,"time":495.84375,"velocity":0.7480314960629921,"duration":0.08437500000002274},{"name":"F#5","midi":78,"time":495.84375,"velocity":0.7480314960629921,"duration":0.08437500000002274},{"name":"F#4","midi":66,"time":495.9375,"velocity":0.7480314960629921,"duration":0.08437500000002274},{"name":"A4","midi":69,"time":495.9375,"velocity":0.7480314960629921,"duration":0.08437500000002274},{"name":"F#5","midi":78,"time":495.9375,"velocity":0.7480314960629921,"duration":0.08437500000002274},{"name":"F#5","midi":78,"time":496.03125,"velocity":0.7480314960629921,"duration":0.08437500000002274},{"name":"F#4","midi":66,"time":496.03125,"velocity":0.7480314960629921,"duration":0.08437500000002274},{"name":"A4","midi":69,"time":496.03125,"velocity":0.7480314960629921,"duration":0.08437500000002274},{"name":"F#5","midi":78,"time":496.125,"velocity":0.7480314960629921,"duration":0.08437500000002274},{"name":"A4","midi":69,"time":496.125,"velocity":0.7480314960629921,"duration":0.08437500000002274},{"name":"F#4","midi":66,"time":496.125,"velocity":0.7480314960629921,"duration":0.08437500000002274},{"name":"F#4","midi":66,"time":496.21875,"velocity":0.7480314960629921,"duration":0.08437500000002274},{"name":"A4","midi":69,"time":496.21875,"velocity":0.7480314960629921,"duration":0.08437500000002274},{"name":"F#5","midi":78,"time":496.21875,"velocity":0.7480314960629921,"duration":0.08437500000002274},{"name":"A4","midi":69,"time":496.3125,"velocity":0.7480314960629921,"duration":0.08437500000002274},{"name":"F#4","midi":66,"time":496.3125,"velocity":0.7480314960629921,"duration":0.08437500000002274},{"name":"F#5","midi":78,"time":496.3125,"velocity":0.7480314960629921,"duration":0.08437500000002274},{"name":"F#4","midi":66,"time":496.40625,"velocity":0.7480314960629921,"duration":0.08437500000002274},{"name":"A4","midi":69,"time":496.40625,"velocity":0.7480314960629921,"duration":0.08437500000002274},{"name":"F#5","midi":78,"time":496.40625,"velocity":0.7480314960629921,"duration":0.08437500000002274},{"name":"F#5","midi":78,"time":496.5,"velocity":0.7480314960629921,"duration":0.08437500000002274},{"name":"A4","midi":69,"time":496.5,"velocity":0.7480314960629921,"duration":0.08437500000002274},{"name":"F#4","midi":66,"time":496.5,"velocity":0.7480314960629921,"duration":0.08437500000002274},{"name":"F#4","midi":66,"time":496.59375,"velocity":0.7480314960629921,"duration":0.08437500000002274},{"name":"A4","midi":69,"time":496.59375,"velocity":0.7480314960629921,"duration":0.08437500000002274},{"name":"F#5","midi":78,"time":496.59375,"velocity":0.7480314960629921,"duration":0.08437500000002274},{"name":"F#4","midi":66,"time":496.6875,"velocity":0.7480314960629921,"duration":0.08437500000002274},{"name":"A4","midi":69,"time":496.6875,"velocity":0.7480314960629921,"duration":0.08437500000002274},{"name":"F#5","midi":78,"time":496.6875,"velocity":0.7480314960629921,"duration":0.08437500000002274},{"name":"F#5","midi":78,"time":496.78125,"velocity":0.7480314960629921,"duration":0.08437500000002274},{"name":"F#4","midi":66,"time":496.78125,"velocity":0.7480314960629921,"duration":0.08437500000002274},{"name":"A4","midi":69,"time":496.78125,"velocity":0.7480314960629921,"duration":0.08437500000002274},{"name":"F#4","midi":66,"time":496.875,"velocity":0.7480314960629921,"duration":0.08437500000002274},{"name":"F#5","midi":78,"time":496.875,"velocity":0.7480314960629921,"duration":0.08437500000002274},{"name":"A4","midi":69,"time":496.875,"velocity":0.7480314960629921,"duration":0.08437500000002274},{"name":"F#4","midi":66,"time":496.96875,"velocity":0.7480314960629921,"duration":0.08437500000002274},{"name":"A4","midi":69,"time":496.96875,"velocity":0.7480314960629921,"duration":0.08437500000002274},{"name":"F#5","midi":78,"time":496.96875,"velocity":0.7480314960629921,"duration":0.08437500000002274},{"name":"F#4","midi":66,"time":497.0625,"velocity":0.7480314960629921,"duration":0.08437500000002274},{"name":"A4","midi":69,"time":497.0625,"velocity":0.7480314960629921,"duration":0.08437500000002274},{"name":"F#5","midi":78,"time":497.0625,"velocity":0.7480314960629921,"duration":0.08437500000002274},{"name":"F#4","midi":66,"time":497.15625,"velocity":0.7480314960629921,"duration":0.08437500000002274},{"name":"A4","midi":69,"time":497.15625,"velocity":0.7480314960629921,"duration":0.08437500000002274},{"name":"F#5","midi":78,"time":497.15625,"velocity":0.7480314960629921,"duration":0.08437500000002274},{"name":"F#4","midi":66,"time":497.25,"velocity":0.7480314960629921,"duration":0.08437500000002274},{"name":"A4","midi":69,"time":497.25,"velocity":0.7480314960629921,"duration":0.08437500000002274},{"name":"F#5","midi":78,"time":497.25,"velocity":0.7480314960629921,"duration":0.08437500000002274},{"name":"A4","midi":69,"time":497.34375,"velocity":0.7480314960629921,"duration":0.08437500000002274},{"name":"F#5","midi":78,"time":497.34375,"velocity":0.7480314960629921,"duration":0.08437500000002274},{"name":"F#4","midi":66,"time":497.34375,"velocity":0.7480314960629921,"duration":0.08437500000002274},{"name":"F#5","midi":78,"time":497.4375,"velocity":0.7480314960629921,"duration":0.08437500000002274},{"name":"A4","midi":69,"time":497.4375,"velocity":0.7480314960629921,"duration":0.08437500000002274},{"name":"F#4","midi":66,"time":497.4375,"velocity":0.7480314960629921,"duration":0.08437500000002274},{"name":"A4","midi":69,"time":497.53125,"velocity":0.7480314960629921,"duration":0.08437500000002274},{"name":"F#4","midi":66,"time":497.53125,"velocity":0.7480314960629921,"duration":0.08437500000002274},{"name":"F#5","midi":78,"time":497.53125,"velocity":0.7480314960629921,"duration":0.08437500000002274},{"name":"F#4","midi":66,"time":497.625,"velocity":0.7480314960629921,"duration":0.08437500000002274},{"name":"A4","midi":69,"time":497.625,"velocity":0.7480314960629921,"duration":0.08437500000002274},{"name":"F#5","midi":78,"time":497.625,"velocity":0.7480314960629921,"duration":0.08437500000002274},{"name":"F#4","midi":66,"time":497.71875,"velocity":0.7480314960629921,"duration":0.08437500000002274},{"name":"F#5","midi":78,"time":497.71875,"velocity":0.7480314960629921,"duration":0.08437500000002274},{"name":"A4","midi":69,"time":497.71875,"velocity":0.7480314960629921,"duration":0.08437500000002274},{"name":"F#5","midi":78,"time":497.8125,"velocity":0.7480314960629921,"duration":0.08437500000002274},{"name":"A4","midi":69,"time":497.8125,"velocity":0.7480314960629921,"duration":0.08437500000002274},{"name":"F#4","midi":66,"time":497.8125,"velocity":0.7480314960629921,"duration":0.08437500000002274},{"name":"F#4","midi":66,"time":497.90625,"velocity":0.7480314960629921,"duration":0.08437500000002274},{"name":"A4","midi":69,"time":497.90625,"velocity":0.7480314960629921,"duration":0.08437500000002274},{"name":"F#5","midi":78,"time":497.90625,"velocity":0.7480314960629921,"duration":0.08437500000002274},{"name":"F#5","midi":78,"time":498,"velocity":0.7480314960629921,"duration":0.08437500000002274},{"name":"A4","midi":69,"time":498,"velocity":0.7480314960629921,"duration":0.08437500000002274},{"name":"F#4","midi":66,"time":498,"velocity":0.7480314960629921,"duration":0.08437500000002274},{"name":"F#4","midi":66,"time":498.09375,"velocity":0.7480314960629921,"duration":0.08437500000002274},{"name":"A4","midi":69,"time":498.09375,"velocity":0.7480314960629921,"duration":0.08437500000002274},{"name":"F#5","midi":78,"time":498.09375,"velocity":0.7480314960629921,"duration":0.08437500000002274},{"name":"F#5","midi":78,"time":498.1875,"velocity":0.7480314960629921,"duration":0.08437500000002274},{"name":"F#4","midi":66,"time":498.1875,"velocity":0.7480314960629921,"duration":0.08437500000002274},{"name":"A4","midi":69,"time":498.1875,"velocity":0.7480314960629921,"duration":0.08437500000002274},{"name":"F#4","midi":66,"time":498.28125,"velocity":0.7480314960629921,"duration":0.08437500000002274},{"name":"A4","midi":69,"time":498.28125,"velocity":0.7480314960629921,"duration":0.08437500000002274},{"name":"F#5","midi":78,"time":498.28125,"velocity":0.7480314960629921,"duration":0.08437500000002274},{"name":"F#4","midi":66,"time":498.375,"velocity":0.7480314960629921,"duration":0.08437500000002274},{"name":"A4","midi":69,"time":498.375,"velocity":0.7480314960629921,"duration":0.08437500000002274},{"name":"F#5","midi":78,"time":498.375,"velocity":0.7480314960629921,"duration":0.08437500000002274},{"name":"F#5","midi":78,"time":498.46875,"velocity":0.7480314960629921,"duration":0.08437500000002274},{"name":"F#4","midi":66,"time":498.46875,"velocity":0.7480314960629921,"duration":0.08437500000002274},{"name":"A4","midi":69,"time":498.46875,"velocity":0.7480314960629921,"duration":0.08437500000002274},{"name":"F#5","midi":78,"time":498.5625,"velocity":0.7480314960629921,"duration":0.08437500000002274},{"name":"A4","midi":69,"time":498.5625,"velocity":0.7480314960629921,"duration":0.08437500000002274},{"name":"F#4","midi":66,"time":498.5625,"velocity":0.7480314960629921,"duration":0.08437500000002274},{"name":"F#4","midi":66,"time":498.65625,"velocity":0.7480314960629921,"duration":0.08437500000002274},{"name":"A4","midi":69,"time":498.65625,"velocity":0.7480314960629921,"duration":0.08437500000002274},{"name":"F#5","midi":78,"time":498.65625,"velocity":0.7480314960629921,"duration":0.08437500000002274},{"name":"F#4","midi":66,"time":498.75,"velocity":0.7480314960629921,"duration":0.08437500000002274},{"name":"F#5","midi":78,"time":498.75,"velocity":0.7480314960629921,"duration":0.08437500000002274},{"name":"A4","midi":69,"time":498.75,"velocity":0.7480314960629921,"duration":0.08437500000002274},{"name":"F#4","midi":66,"time":498.84375,"velocity":0.7480314960629921,"duration":0.08437500000002274},{"name":"F#5","midi":78,"time":498.84375,"velocity":0.7480314960629921,"duration":0.08437500000002274},{"name":"A4","midi":69,"time":498.84375,"velocity":0.7480314960629921,"duration":0.08437500000002274},{"name":"F#4","midi":66,"time":498.9375,"velocity":0.7480314960629921,"duration":0.08437500000002274},{"name":"F#5","midi":78,"time":498.9375,"velocity":0.7480314960629921,"duration":0.08437500000002274},{"name":"A4","midi":69,"time":498.9375,"velocity":0.7480314960629921,"duration":0.08437500000002274},{"name":"A4","midi":69,"time":499.03125,"velocity":0.7480314960629921,"duration":0.08437500000002274},{"name":"F#4","midi":66,"time":499.03125,"velocity":0.7480314960629921,"duration":0.08437500000002274},{"name":"F#5","midi":78,"time":499.03125,"velocity":0.7480314960629921,"duration":0.08437500000002274},{"name":"A4","midi":69,"time":499.125,"velocity":0.7480314960629921,"duration":0.08437500000002274},{"name":"F#5","midi":78,"time":499.125,"velocity":0.7480314960629921,"duration":0.08437500000002274},{"name":"F#4","midi":66,"time":499.125,"velocity":0.7480314960629921,"duration":0.08437500000002274},{"name":"F#5","midi":78,"time":499.21875,"velocity":0.7480314960629921,"duration":0.08437500000002274},{"name":"A4","midi":69,"time":499.21875,"velocity":0.7480314960629921,"duration":0.08437500000002274},{"name":"F#4","midi":66,"time":499.21875,"velocity":0.7480314960629921,"duration":0.08437500000002274},{"name":"F#5","midi":78,"time":499.3125,"velocity":0.7480314960629921,"duration":0.08437500000002274},{"name":"A4","midi":69,"time":499.3125,"velocity":0.7480314960629921,"duration":0.08437500000002274},{"name":"F#4","midi":66,"time":499.3125,"velocity":0.7480314960629921,"duration":0.08437500000002274},{"name":"A4","midi":69,"time":499.40625,"velocity":0.7480314960629921,"duration":0.08437500000002274},{"name":"F#5","midi":78,"time":499.40625,"velocity":0.7480314960629921,"duration":0.08437500000002274},{"name":"F#4","midi":66,"time":499.40625,"velocity":0.7480314960629921,"duration":0.08437500000002274},{"name":"F#4","midi":66,"time":499.5,"velocity":0.7480314960629921,"duration":0.08437500000002274},{"name":"F#5","midi":78,"time":499.5,"velocity":0.7480314960629921,"duration":0.08437500000002274},{"name":"A4","midi":69,"time":499.5,"velocity":0.7480314960629921,"duration":0.08437500000002274},{"name":"F#5","midi":78,"time":499.59375,"velocity":0.7480314960629921,"duration":0.08437500000002274},{"name":"A4","midi":69,"time":499.59375,"velocity":0.7480314960629921,"duration":0.08437500000002274},{"name":"F#4","midi":66,"time":499.59375,"velocity":0.7480314960629921,"duration":0.08437500000002274},{"name":"F#5","midi":78,"time":499.6875,"velocity":0.7480314960629921,"duration":0.08437500000002274},{"name":"A4","midi":69,"time":499.6875,"velocity":0.7480314960629921,"duration":0.08437500000002274},{"name":"F#4","midi":66,"time":499.6875,"velocity":0.7480314960629921,"duration":0.08437500000002274},{"name":"F#5","midi":78,"time":499.78125,"velocity":0.7480314960629921,"duration":0.08437500000002274},{"name":"A4","midi":69,"time":499.78125,"velocity":0.7480314960629921,"duration":0.08437500000002274},{"name":"F#4","midi":66,"time":499.78125,"velocity":0.7480314960629921,"duration":0.08437500000002274},{"name":"A4","midi":69,"time":499.875,"velocity":0.7480314960629921,"duration":0.08437500000002274},{"name":"F#4","midi":66,"time":499.875,"velocity":0.7480314960629921,"duration":0.08437500000002274},{"name":"F#5","midi":78,"time":499.875,"velocity":0.7480314960629921,"duration":0.08437500000002274},{"name":"F#4","midi":66,"time":499.96875,"velocity":0.7480314960629921,"duration":0.08437500000002274},{"name":"A4","midi":69,"time":499.96875,"velocity":0.7480314960629921,"duration":0.08437500000002274},{"name":"F#5","midi":78,"time":499.96875,"velocity":0.7480314960629921,"duration":0.08437500000002274},{"name":"F#4","midi":66,"time":500.0625,"velocity":0.7480314960629921,"duration":0.08437500000002274},{"name":"A4","midi":69,"time":500.0625,"velocity":0.7480314960629921,"duration":0.08437500000002274},{"name":"F#5","midi":78,"time":500.0625,"velocity":0.7480314960629921,"duration":0.08437500000002274},{"name":"F#4","midi":66,"time":500.15625,"velocity":0.7480314960629921,"duration":0.08437500000002274},{"name":"A4","midi":69,"time":500.15625,"velocity":0.7480314960629921,"duration":0.08437500000002274},{"name":"F#5","midi":78,"time":500.15625,"velocity":0.7480314960629921,"duration":0.08437500000002274},{"name":"F#4","midi":66,"time":500.25,"velocity":0.7480314960629921,"duration":0.08437500000002274},{"name":"A4","midi":69,"time":500.25,"velocity":0.7480314960629921,"duration":0.08437500000002274},{"name":"F#5","midi":78,"time":500.25,"velocity":0.7480314960629921,"duration":0.08437500000002274},{"name":"F#5","midi":78,"time":500.34375,"velocity":0.7480314960629921,"duration":0.08437500000002274},{"name":"A4","midi":69,"time":500.34375,"velocity":0.7480314960629921,"duration":0.08437500000002274},{"name":"F#4","midi":66,"time":500.34375,"velocity":0.7480314960629921,"duration":0.08437500000002274},{"name":"F#4","midi":66,"time":500.4375,"velocity":0.7480314960629921,"duration":0.08437500000002274},{"name":"F#5","midi":78,"time":500.4375,"velocity":0.7480314960629921,"duration":0.08437500000002274},{"name":"A4","midi":69,"time":500.4375,"velocity":0.7480314960629921,"duration":0.08437500000002274},{"name":"F#4","midi":66,"time":500.53125,"velocity":0.7480314960629921,"duration":0.08437500000002274},{"name":"A4","midi":69,"time":500.53125,"velocity":0.7480314960629921,"duration":0.08437500000002274},{"name":"F#5","midi":78,"time":500.53125,"velocity":0.7480314960629921,"duration":0.08437500000002274},{"name":"F#5","midi":78,"time":500.625,"velocity":0.7480314960629921,"duration":0.08437500000002274},{"name":"A4","midi":69,"time":500.625,"velocity":0.7480314960629921,"duration":0.08437500000002274},{"name":"F#4","midi":66,"time":500.625,"velocity":0.7480314960629921,"duration":0.08437500000002274},{"name":"F#5","midi":78,"time":500.71875,"velocity":0.7480314960629921,"duration":0.08437500000002274},{"name":"A4","midi":69,"time":500.71875,"velocity":0.7480314960629921,"duration":0.08437500000002274},{"name":"F#4","midi":66,"time":500.71875,"velocity":0.7480314960629921,"duration":0.08437500000002274},{"name":"F#5","midi":78,"time":500.8125,"velocity":0.7480314960629921,"duration":0.08437500000002274},{"name":"A4","midi":69,"time":500.8125,"velocity":0.7480314960629921,"duration":0.08437500000002274},{"name":"F#4","midi":66,"time":500.8125,"velocity":0.7480314960629921,"duration":0.08437500000002274},{"name":"F#5","midi":78,"time":500.90625,"velocity":0.7480314960629921,"duration":1.4937499999999773},{"name":"A4","midi":69,"time":500.90625,"velocity":0.7480314960629921,"duration":0.09375},{"name":"F#4","midi":66,"time":500.90625,"velocity":0.7480314960629921,"duration":1.4937499999999773},{"name":"A4","midi":69,"time":502.5,"velocity":0.7480314960629921,"duration":0.16874999999998863},{"name":"E4","midi":64,"time":502.5,"velocity":0.7480314960629921,"duration":0.16874999999998863},{"name":"A3","midi":57,"time":502.5,"velocity":0.7480314960629921,"duration":0.16874999999998863},{"name":"A4","midi":69,"time":502.6875,"velocity":0.7480314960629921,"duration":0.16874999999998863},{"name":"E4","midi":64,"time":502.6875,"velocity":0.7480314960629921,"duration":0.16874999999998863},{"name":"A3","midi":57,"time":502.6875,"velocity":0.7480314960629921,"duration":0.16874999999998863},{"name":"A3","midi":57,"time":502.875,"velocity":0.7480314960629921,"duration":0.16874999999998863},{"name":"E4","midi":64,"time":502.875,"velocity":0.7480314960629921,"duration":0.16874999999998863},{"name":"A4","midi":69,"time":502.875,"velocity":0.7480314960629921,"duration":0.16874999999998863},{"name":"A3","midi":57,"time":503.0625,"velocity":0.7480314960629921,"duration":0.16874999999998863},{"name":"E4","midi":64,"time":503.0625,"velocity":0.7480314960629921,"duration":0.16874999999998863},{"name":"A4","midi":69,"time":503.0625,"velocity":0.7480314960629921,"duration":0.16874999999998863},{"name":"E4","midi":64,"time":503.25,"velocity":0.7480314960629921,"duration":0.16874999999998863},{"name":"A3","midi":57,"time":503.25,"velocity":0.7480314960629921,"duration":0.16874999999998863},{"name":"A4","midi":69,"time":503.25,"velocity":0.7480314960629921,"duration":0.16874999999998863},{"name":"A4","midi":69,"time":503.4375,"velocity":0.7480314960629921,"duration":0.16874999999998863},{"name":"E4","midi":64,"time":503.4375,"velocity":0.7480314960629921,"duration":0.16874999999998863},{"name":"A3","midi":57,"time":503.4375,"velocity":0.7480314960629921,"duration":0.16874999999998863},{"name":"E4","midi":64,"time":503.625,"velocity":0.7480314960629921,"duration":0.16874999999998863},{"name":"A3","midi":57,"time":503.625,"velocity":0.7480314960629921,"duration":0.16874999999998863},{"name":"A4","midi":69,"time":503.625,"velocity":0.7480314960629921,"duration":0.16874999999998863},{"name":"E4","midi":64,"time":503.8125,"velocity":0.7480314960629921,"duration":0.16874999999998863},{"name":"A3","midi":57,"time":503.8125,"velocity":0.7480314960629921,"duration":0.16874999999998863},{"name":"A4","midi":69,"time":503.8125,"velocity":0.7480314960629921,"duration":0.16874999999998863},{"name":"A4","midi":69,"time":504,"velocity":0.7480314960629921,"duration":0.16874999999998863},{"name":"E4","midi":64,"time":504,"velocity":0.7480314960629921,"duration":0.16874999999998863},{"name":"A3","midi":57,"time":504,"velocity":0.7480314960629921,"duration":0.16874999999998863},{"name":"A4","midi":69,"time":504.1875,"velocity":0.7480314960629921,"duration":0.16874999999998863},{"name":"A3","midi":57,"time":504.1875,"velocity":0.7480314960629921,"duration":0.16874999999998863},{"name":"E4","midi":64,"time":504.1875,"velocity":0.7480314960629921,"duration":0.16874999999998863},{"name":"A3","midi":57,"time":504.375,"velocity":0.7480314960629921,"duration":0.16874999999998863},{"name":"A4","midi":69,"time":504.375,"velocity":0.7480314960629921,"duration":0.16874999999998863},{"name":"E4","midi":64,"time":504.375,"velocity":0.7480314960629921,"duration":0.16874999999998863},{"name":"A3","midi":57,"time":504.5625,"velocity":0.7480314960629921,"duration":0.16874999999998863},{"name":"E4","midi":64,"time":504.5625,"velocity":0.7480314960629921,"duration":0.16874999999998863},{"name":"A4","midi":69,"time":504.5625,"velocity":0.7480314960629921,"duration":0.16874999999998863},{"name":"A4","midi":69,"time":504.75,"velocity":0.7480314960629921,"duration":0.16874999999998863},{"name":"E4","midi":64,"time":504.75,"velocity":0.7480314960629921,"duration":0.16874999999998863},{"name":"A3","midi":57,"time":504.75,"velocity":0.7480314960629921,"duration":0.16874999999998863},{"name":"A3","midi":57,"time":504.9375,"velocity":0.7480314960629921,"duration":0.16874999999998863},{"name":"E4","midi":64,"time":504.9375,"velocity":0.7480314960629921,"duration":0.16874999999998863},{"name":"A4","midi":69,"time":504.9375,"velocity":0.7480314960629921,"duration":0.16874999999998863},{"name":"A3","midi":57,"time":505.125,"velocity":0.7480314960629921,"duration":0.16874999999998863},{"name":"E4","midi":64,"time":505.125,"velocity":0.7480314960629921,"duration":0.16874999999998863},{"name":"A4","midi":69,"time":505.125,"velocity":0.7480314960629921,"duration":0.16874999999998863},{"name":"A3","midi":57,"time":505.3125,"velocity":0.7480314960629921,"duration":0.16874999999998863},{"name":"A4","midi":69,"time":505.3125,"velocity":0.7480314960629921,"duration":0.16874999999998863},{"name":"E4","midi":64,"time":505.3125,"velocity":0.7480314960629921,"duration":0.16874999999998863},{"name":"E4","midi":64,"time":505.5,"velocity":0.7480314960629921,"duration":0.16874999999998863},{"name":"A3","midi":57,"time":505.5,"velocity":0.7480314960629921,"duration":0.16874999999998863},{"name":"A4","midi":69,"time":505.5,"velocity":0.7480314960629921,"duration":0.16874999999998863},{"name":"E4","midi":64,"time":505.6875,"velocity":0.7480314960629921,"duration":0.16874999999998863},{"name":"A4","midi":69,"time":505.6875,"velocity":0.7480314960629921,"duration":0.16874999999998863},{"name":"A3","midi":57,"time":505.6875,"velocity":0.7480314960629921,"duration":0.16874999999998863},{"name":"E4","midi":64,"time":505.875,"velocity":0.7480314960629921,"duration":0.16874999999998863},{"name":"A4","midi":69,"time":505.875,"velocity":0.7480314960629921,"duration":0.16874999999998863},{"name":"A3","midi":57,"time":505.875,"velocity":0.7480314960629921,"duration":0.16874999999998863},{"name":"A3","midi":57,"time":506.0625,"velocity":0.7480314960629921,"duration":0.16874999999998863},{"name":"E4","midi":64,"time":506.0625,"velocity":0.7480314960629921,"duration":0.16874999999998863},{"name":"A4","midi":69,"time":506.0625,"velocity":0.7480314960629921,"duration":0.16874999999998863},{"name":"A4","midi":69,"time":506.25,"velocity":0.7480314960629921,"duration":0.16874999999998863},{"name":"A3","midi":57,"time":506.25,"velocity":0.7480314960629921,"duration":0.16874999999998863},{"name":"E4","midi":64,"time":506.25,"velocity":0.7480314960629921,"duration":0.16874999999998863},{"name":"A4","midi":69,"time":506.4375,"velocity":0.7480314960629921,"duration":0.16874999999998863},{"name":"E4","midi":64,"time":506.4375,"velocity":0.7480314960629921,"duration":0.16874999999998863},{"name":"A3","midi":57,"time":506.4375,"velocity":0.7480314960629921,"duration":0.16874999999998863},{"name":"A3","midi":57,"time":506.625,"velocity":0.7480314960629921,"duration":0.16874999999998863},{"name":"E4","midi":64,"time":506.625,"velocity":0.7480314960629921,"duration":0.16874999999998863},{"name":"A4","midi":69,"time":506.625,"velocity":0.7480314960629921,"duration":0.16874999999998863},{"name":"A3","midi":57,"time":506.8125,"velocity":0.7480314960629921,"duration":0.16874999999998863},{"name":"A4","midi":69,"time":506.8125,"velocity":0.7480314960629921,"duration":0.16874999999998863},{"name":"E4","midi":64,"time":506.8125,"velocity":0.7480314960629921,"duration":0.16874999999998863},{"name":"A3","midi":57,"time":507,"velocity":0.7480314960629921,"duration":0.16874999999998863},{"name":"A4","midi":69,"time":507,"velocity":0.7480314960629921,"duration":0.16874999999998863},{"name":"E4","midi":64,"time":507,"velocity":0.7480314960629921,"duration":0.16874999999998863},{"name":"E4","midi":64,"time":507.1875,"velocity":0.7480314960629921,"duration":0.16874999999998863},{"name":"A4","midi":69,"time":507.1875,"velocity":0.7480314960629921,"duration":0.16874999999998863},{"name":"A3","midi":57,"time":507.1875,"velocity":0.7480314960629921,"duration":0.16874999999998863},{"name":"A3","midi":57,"time":507.375,"velocity":0.7480314960629921,"duration":0.16874999999998863},{"name":"A4","midi":69,"time":507.375,"velocity":0.7480314960629921,"duration":0.16874999999998863},{"name":"E4","midi":64,"time":507.375,"velocity":0.7480314960629921,"duration":0.16874999999998863},{"name":"A3","midi":57,"time":507.5625,"velocity":0.7480314960629921,"duration":0.16874999999998863},{"name":"E4","midi":64,"time":507.5625,"velocity":0.7480314960629921,"duration":0.16874999999998863},{"name":"A4","midi":69,"time":507.5625,"velocity":0.7480314960629921,"duration":0.16874999999998863},{"name":"A4","midi":69,"time":507.75,"velocity":0.7480314960629921,"duration":0.16874999999998863},{"name":"A3","midi":57,"time":507.75,"velocity":0.7480314960629921,"duration":0.16874999999998863},{"name":"E4","midi":64,"time":507.75,"velocity":0.7480314960629921,"duration":0.16874999999998863},{"name":"A3","midi":57,"time":507.9375,"velocity":0.7480314960629921,"duration":0.16874999999998863},{"name":"E4","midi":64,"time":507.9375,"velocity":0.7480314960629921,"duration":0.16874999999998863},{"name":"A4","midi":69,"time":507.9375,"velocity":0.7480314960629921,"duration":0.16874999999998863},{"name":"E4","midi":64,"time":508.125,"velocity":0.7480314960629921,"duration":0.16874999999998863},{"name":"A4","midi":69,"time":508.125,"velocity":0.7480314960629921,"duration":0.16874999999998863},{"name":"A3","midi":57,"time":508.125,"velocity":0.7480314960629921,"duration":0.16874999999998863},{"name":"A4","midi":69,"time":508.3125,"velocity":0.7480314960629921,"duration":0.16874999999998863},{"name":"A3","midi":57,"time":508.3125,"velocity":0.7480314960629921,"duration":0.16874999999998863},{"name":"E4","midi":64,"time":508.3125,"velocity":0.7480314960629921,"duration":0.16874999999998863},{"name":"A3","midi":57,"time":508.5,"velocity":0.7480314960629921,"duration":15},{"name":"E4","midi":64,"time":508.5,"velocity":0.7480314960629921,"duration":15},{"name":"A4","midi":69,"time":508.5,"velocity":0.7480314960629921,"duration":15}]},{"instrumentFamily":"drums","notes":[{"name":"C#3","midi":49,"time":261,"velocity":0.7480314960629921,"duration":0.33749999999997726},{"name":"G2","midi":43,"time":261,"velocity":0.7480314960629921,"duration":0.33749999999997726},{"name":"B1","midi":35,"time":261,"velocity":0.7480314960629921,"duration":0.33749999999997726},{"name":"G#2","midi":44,"time":261,"velocity":0.7480314960629921,"duration":0.33749999999997726},{"name":"G#2","midi":44,"time":261.375,"velocity":0.7480314960629921,"duration":0.33749999999997726},{"name":"G#2","midi":44,"time":261.75,"velocity":0.7480314960629921,"duration":0.33749999999997726},{"name":"D2","midi":38,"time":261.75,"velocity":0.7480314960629921,"duration":0.33749999999997726},{"name":"G#2","midi":44,"time":262.125,"velocity":0.7480314960629921,"duration":0.33749999999997726},{"name":"G2","midi":43,"time":262.5,"velocity":0.7480314960629921,"duration":0.33749999999997726},{"name":"G#2","midi":44,"time":262.5,"velocity":0.7480314960629921,"duration":0.33749999999997726},{"name":"B1","midi":35,"time":262.5,"velocity":0.7480314960629921,"duration":0.33749999999997726},{"name":"G2","midi":43,"time":262.875,"velocity":0.7480314960629921,"duration":0.33749999999997726},{"name":"G#2","midi":44,"time":262.875,"velocity":0.7480314960629921,"duration":0.33749999999997726},{"name":"B1","midi":35,"time":262.875,"velocity":0.7480314960629921,"duration":0.33749999999997726},{"name":"G#2","midi":44,"time":263.25,"velocity":0.7480314960629921,"duration":0.33749999999997726},{"name":"D2","midi":38,"time":263.25,"velocity":0.7480314960629921,"duration":0.33749999999997726},{"name":"G#2","midi":44,"time":263.625,"velocity":0.7480314960629921,"duration":0.33749999999997726},{"name":"G#2","midi":44,"time":264,"velocity":0.7480314960629921,"duration":0.33749999999997726},{"name":"B1","midi":35,"time":264,"velocity":0.7480314960629921,"duration":0.33749999999997726},{"name":"G2","midi":43,"time":264,"velocity":0.7480314960629921,"duration":0.33749999999997726},{"name":"G#2","midi":44,"time":264.375,"velocity":0.7480314960629921,"duration":0.33749999999997726},{"name":"G#2","midi":44,"time":264.75,"velocity":0.7480314960629921,"duration":0.33749999999997726},{"name":"D2","midi":38,"time":264.75,"velocity":0.7480314960629921,"duration":0.33749999999997726},{"name":"G#2","midi":44,"time":265.125,"velocity":0.7480314960629921,"duration":0.33749999999997726},{"name":"G#2","midi":44,"time":265.5,"velocity":0.7480314960629921,"duration":0.33749999999997726},{"name":"B1","midi":35,"time":265.5,"velocity":0.7480314960629921,"duration":0.33749999999997726},{"name":"G2","midi":43,"time":265.5,"velocity":0.7480314960629921,"duration":0.33749999999997726},{"name":"G2","midi":43,"time":265.875,"velocity":0.7480314960629921,"duration":0.33749999999997726},{"name":"G#2","midi":44,"time":265.875,"velocity":0.7480314960629921,"duration":0.33749999999997726},{"name":"B1","midi":35,"time":265.875,"velocity":0.7480314960629921,"duration":0.33749999999997726},{"name":"D2","midi":38,"time":266.25,"velocity":0.7480314960629921,"duration":0.33749999999997726},{"name":"G#2","midi":44,"time":266.25,"velocity":0.7480314960629921,"duration":0.33749999999997726},{"name":"G#2","midi":44,"time":266.625,"velocity":0.7480314960629921,"duration":0.33749999999997726},{"name":"G#2","midi":44,"time":267,"velocity":0.7480314960629921,"duration":0.33749999999997726},{"name":"B1","midi":35,"time":267,"velocity":0.7480314960629921,"duration":0.33749999999997726},{"name":"G2","midi":43,"time":267,"velocity":0.7480314960629921,"duration":0.33749999999997726},{"name":"G#2","midi":44,"time":267.375,"velocity":0.7480314960629921,"duration":0.33749999999997726},{"name":"G#2","midi":44,"time":267.75,"velocity":0.7480314960629921,"duration":0.33749999999997726},{"name":"D2","midi":38,"time":267.75,"velocity":0.7480314960629921,"duration":0.33749999999997726},{"name":"G#2","midi":44,"time":268.125,"velocity":0.7480314960629921,"duration":0.33749999999997726},{"name":"G2","midi":43,"time":268.5,"velocity":0.7480314960629921,"duration":0.33749999999997726},{"name":"B1","midi":35,"time":268.5,"velocity":0.7480314960629921,"duration":0.33749999999997726},{"name":"G#2","midi":44,"time":268.5,"velocity":0.7480314960629921,"duration":0.33749999999997726},{"name":"G#2","midi":44,"time":268.875,"velocity":0.7480314960629921,"duration":0.33749999999997726},{"name":"B1","midi":35,"time":268.875,"velocity":0.7480314960629921,"duration":0.33749999999997726},{"name":"G2","midi":43,"time":268.875,"velocity":0.7480314960629921,"duration":0.33749999999997726},{"name":"D2","midi":38,"time":269.25,"velocity":0.7480314960629921,"duration":0.33749999999997726},{"name":"G#2","midi":44,"time":269.25,"velocity":0.7480314960629921,"duration":0.33749999999997726},{"name":"G#2","midi":44,"time":269.625,"velocity":0.7480314960629921,"duration":0.33749999999997726},{"name":"G2","midi":43,"time":270,"velocity":0.7480314960629921,"duration":0.33749999999997726},{"name":"G#2","midi":44,"time":270,"velocity":0.7480314960629921,"duration":0.33749999999997726},{"name":"B1","midi":35,"time":270,"velocity":0.7480314960629921,"duration":0.33749999999997726},{"name":"G#2","midi":44,"time":270.375,"velocity":0.7480314960629921,"duration":0.33749999999997726},{"name":"G#2","midi":44,"time":270.75,"velocity":0.7480314960629921,"duration":0.33749999999997726},{"name":"D2","midi":38,"time":270.75,"velocity":0.7480314960629921,"duration":0.33749999999997726},{"name":"G#2","midi":44,"time":271.125,"velocity":0.7480314960629921,"duration":0.33749999999997726},{"name":"G2","midi":43,"time":271.5,"velocity":0.7480314960629921,"duration":0.33749999999997726},{"name":"B1","midi":35,"time":271.5,"velocity":0.7480314960629921,"duration":0.33749999999997726},{"name":"G#2","midi":44,"time":271.5,"velocity":0.7480314960629921,"duration":0.33749999999997726},{"name":"G2","midi":43,"time":271.875,"velocity":0.7480314960629921,"duration":0.33749999999997726},{"name":"B1","midi":35,"time":271.875,"velocity":0.7480314960629921,"duration":0.33749999999997726},{"name":"G#2","midi":44,"time":271.875,"velocity":0.7480314960629921,"duration":0.33749999999997726},{"name":"G#2","midi":44,"time":272.25,"velocity":0.7480314960629921,"duration":0.33749999999997726},{"name":"D2","midi":38,"time":272.25,"velocity":0.7480314960629921,"duration":0.33749999999997726},{"name":"G#2","midi":44,"time":272.625,"velocity":0.7480314960629921,"duration":0.33749999999997726},{"name":"B1","midi":35,"time":273,"velocity":0.7480314960629921,"duration":0.33749999999997726},{"name":"G2","midi":43,"time":273,"velocity":0.7480314960629921,"duration":0.33749999999997726},{"name":"G#2","midi":44,"time":273,"velocity":0.7480314960629921,"duration":0.33749999999997726},{"name":"G#2","midi":44,"time":273.375,"velocity":0.7480314960629921,"duration":0.33749999999997726},{"name":"G#2","midi":44,"time":273.75,"velocity":0.7480314960629921,"duration":0.33749999999997726},{"name":"D2","midi":38,"time":273.75,"velocity":0.7480314960629921,"duration":0.33749999999997726},{"name":"G#2","midi":44,"time":274.125,"velocity":0.7480314960629921,"duration":0.33749999999997726},{"name":"G2","midi":43,"time":274.5,"velocity":0.7480314960629921,"duration":0.33749999999997726},{"name":"B1","midi":35,"time":274.5,"velocity":0.7480314960629921,"duration":0.33749999999997726},{"name":"G#2","midi":44,"time":274.5,"velocity":0.7480314960629921,"duration":0.33749999999997726},{"name":"G2","midi":43,"time":274.875,"velocity":0.7480314960629921,"duration":0.33749999999997726},{"name":"B1","midi":35,"time":274.875,"velocity":0.7480314960629921,"duration":0.33749999999997726},{"name":"G#2","midi":44,"time":274.875,"velocity":0.7480314960629921,"duration":0.33749999999997726},{"name":"D2","midi":38,"time":275.25,"velocity":0.7480314960629921,"duration":0.33749999999997726},{"name":"G#2","midi":44,"time":275.25,"velocity":0.7480314960629921,"duration":0.33749999999997726},{"name":"G#2","midi":44,"time":275.625,"velocity":0.7480314960629921,"duration":0.33749999999997726},{"name":"G2","midi":43,"time":276,"velocity":0.7480314960629921,"duration":0.33749999999997726},{"name":"B1","midi":35,"time":276,"velocity":0.7480314960629921,"duration":0.33749999999997726},{"name":"G#2","midi":44,"time":276,"velocity":0.7480314960629921,"duration":0.33749999999997726},{"name":"G#2","midi":44,"time":276.375,"velocity":0.7480314960629921,"duration":0.33749999999997726},{"name":"G#2","midi":44,"time":276.75,"velocity":0.7480314960629921,"duration":0.33749999999997726},{"name":"D2","midi":38,"time":276.75,"velocity":0.7480314960629921,"duration":0.33749999999997726},{"name":"G#2","midi":44,"time":277.125,"velocity":0.7480314960629921,"duration":0.33749999999997726},{"name":"B1","midi":35,"time":277.5,"velocity":0.7480314960629921,"duration":0.33749999999997726},{"name":"G#2","midi":44,"time":277.5,"velocity":0.7480314960629921,"duration":0.33749999999997726},{"name":"G2","midi":43,"time":277.5,"velocity":0.7480314960629921,"duration":0.33749999999997726},{"name":"B1","midi":35,"time":277.875,"velocity":0.7480314960629921,"duration":0.33749999999997726},{"name":"G#2","midi":44,"time":277.875,"velocity":0.7480314960629921,"duration":0.33749999999997726},{"name":"G2","midi":43,"time":277.875,"velocity":0.7480314960629921,"duration":0.33749999999997726},{"name":"D2","midi":38,"time":278.25,"velocity":0.7480314960629921,"duration":0.33749999999997726},{"name":"G#2","midi":44,"time":278.25,"velocity":0.7480314960629921,"duration":0.33749999999997726},{"name":"G#2","midi":44,"time":278.625,"velocity":0.7480314960629921,"duration":0.33749999999997726},{"name":"G#2","midi":44,"time":279,"velocity":0.7480314960629921,"duration":0.33749999999997726},{"name":"B1","midi":35,"time":279,"velocity":0.7480314960629921,"duration":0.33749999999997726},{"name":"G2","midi":43,"time":279,"velocity":0.7480314960629921,"duration":0.33749999999997726},{"name":"G#2","midi":44,"time":279.375,"velocity":0.7480314960629921,"duration":0.33749999999997726},{"name":"G#2","midi":44,"time":279.75,"velocity":0.7480314960629921,"duration":0.33749999999997726},{"name":"D2","midi":38,"time":279.75,"velocity":0.7480314960629921,"duration":0.33749999999997726},{"name":"G#2","midi":44,"time":280.125,"velocity":0.7480314960629921,"duration":0.33749999999997726},{"name":"B1","midi":35,"time":280.5,"velocity":0.7480314960629921,"duration":0.33749999999997726},{"name":"G#2","midi":44,"time":280.5,"velocity":0.7480314960629921,"duration":0.33749999999997726},{"name":"G2","midi":43,"time":280.5,"velocity":0.7480314960629921,"duration":0.33749999999997726},{"name":"G2","midi":43,"time":280.875,"velocity":0.7480314960629921,"duration":0.33749999999997726},{"name":"G#2","midi":44,"time":280.875,"velocity":0.7480314960629921,"duration":0.33749999999997726},{"name":"B1","midi":35,"time":280.875,"velocity":0.7480314960629921,"duration":0.33749999999997726},{"name":"G#2","midi":44,"time":281.25,"velocity":0.7480314960629921,"duration":0.33749999999997726},{"name":"D2","midi":38,"time":281.25,"velocity":0.7480314960629921,"duration":0.33749999999997726},{"name":"G#2","midi":44,"time":281.625,"velocity":0.7480314960629921,"duration":0.33749999999997726},{"name":"B1","midi":35,"time":282,"velocity":0.7480314960629921,"duration":0.33749999999997726},{"name":"G#2","midi":44,"time":282,"velocity":0.7480314960629921,"duration":0.33749999999997726},{"name":"G2","midi":43,"time":282,"velocity":0.7480314960629921,"duration":0.33749999999997726},{"name":"G#2","midi":44,"time":282.375,"velocity":0.7480314960629921,"duration":0.33749999999997726},{"name":"G#2","midi":44,"time":282.75,"velocity":0.7480314960629921,"duration":0.33749999999997726},{"name":"D2","midi":38,"time":282.75,"velocity":0.7480314960629921,"duration":0.33749999999997726},{"name":"G#2","midi":44,"time":283.125,"velocity":0.7480314960629921,"duration":0.33749999999997726},{"name":"G#2","midi":44,"time":283.5,"velocity":0.7480314960629921,"duration":0.33749999999997726},{"name":"B1","midi":35,"time":283.5,"velocity":0.7480314960629921,"duration":0.33749999999997726},{"name":"G2","midi":43,"time":283.5,"velocity":0.7480314960629921,"duration":0.33749999999997726},{"name":"G2","midi":43,"time":283.875,"velocity":0.7480314960629921,"duration":0.33749999999997726},{"name":"G#2","midi":44,"time":283.875,"velocity":0.7480314960629921,"duration":0.33749999999997726},{"name":"B1","midi":35,"time":283.875,"velocity":0.7480314960629921,"duration":0.33749999999997726},{"name":"G#2","midi":44,"time":284.25,"velocity":0.7480314960629921,"duration":0.33749999999997726},{"name":"D2","midi":38,"time":284.25,"velocity":0.7480314960629921,"duration":0.33749999999997726},{"name":"G#2","midi":44,"time":284.625,"velocity":0.7480314960629921,"duration":0.33749999999997726},{"name":"G#2","midi":44,"time":285,"velocity":0.7480314960629921,"duration":0.33749999999997726},{"name":"B1","midi":35,"time":285,"velocity":0.7480314960629921,"duration":0.33749999999997726},{"name":"G2","midi":43,"time":285,"velocity":0.7480314960629921,"duration":0.33749999999997726},{"name":"G#2","midi":44,"time":285.375,"velocity":0.7480314960629921,"duration":0.33749999999997726},{"name":"G#2","midi":44,"time":285.75,"velocity":0.7480314960629921,"duration":0.33749999999997726},{"name":"D2","midi":38,"time":285.75,"velocity":0.7480314960629921,"duration":0.33749999999997726},{"name":"G#2","midi":44,"time":286.125,"velocity":0.7480314960629921,"duration":0.33749999999997726},{"name":"G#2","midi":44,"time":286.5,"velocity":0.7480314960629921,"duration":0.33749999999997726},{"name":"G2","midi":43,"time":286.5,"velocity":0.7480314960629921,"duration":0.33749999999997726},{"name":"B1","midi":35,"time":286.5,"velocity":0.7480314960629921,"duration":0.33749999999997726},{"name":"G#2","midi":44,"time":286.875,"velocity":0.7480314960629921,"duration":0.33749999999997726},{"name":"B1","midi":35,"time":286.875,"velocity":0.7480314960629921,"duration":0.33749999999997726},{"name":"G2","midi":43,"time":286.875,"velocity":0.7480314960629921,"duration":0.33749999999997726},{"name":"G#2","midi":44,"time":287.25,"velocity":0.7480314960629921,"duration":0.33749999999997726},{"name":"D2","midi":38,"time":287.25,"velocity":0.7480314960629921,"duration":0.33749999999997726},{"name":"G#2","midi":44,"time":287.625,"velocity":0.7480314960629921,"duration":0.33749999999997726},{"name":"G#2","midi":44,"time":288,"velocity":0.7480314960629921,"duration":0.33749999999997726},{"name":"B1","midi":35,"time":288,"velocity":0.7480314960629921,"duration":0.33749999999997726},{"name":"G2","midi":43,"time":288,"velocity":0.7480314960629921,"duration":0.33749999999997726},{"name":"G#2","midi":44,"time":288.375,"velocity":0.7480314960629921,"duration":0.33749999999997726},{"name":"D2","midi":38,"time":288.75,"velocity":0.7480314960629921,"duration":0.33749999999997726},{"name":"G#2","midi":44,"time":288.75,"velocity":0.7480314960629921,"duration":0.33749999999997726},{"name":"G#2","midi":44,"time":289.125,"velocity":0.7480314960629921,"duration":0.33749999999997726},{"name":"G2","midi":43,"time":289.5,"velocity":0.7480314960629921,"duration":0.33749999999997726},{"name":"B1","midi":35,"time":289.5,"velocity":0.7480314960629921,"duration":0.33749999999997726},{"name":"G#2","midi":44,"time":289.5,"velocity":0.7480314960629921,"duration":0.33749999999997726},{"name":"G#2","midi":44,"time":289.875,"velocity":0.7480314960629921,"duration":0.33749999999997726},{"name":"B1","midi":35,"time":289.875,"velocity":0.7480314960629921,"duration":0.33749999999997726},{"name":"G2","midi":43,"time":289.875,"velocity":0.7480314960629921,"duration":0.33749999999997726},{"name":"G#2","midi":44,"time":290.25,"velocity":0.7480314960629921,"duration":0.33749999999997726},{"name":"D2","midi":38,"time":290.25,"velocity":0.7480314960629921,"duration":0.33749999999997726},{"name":"G#2","midi":44,"time":290.625,"velocity":0.7480314960629921,"duration":0.33749999999997726},{"name":"B1","midi":35,"time":291,"velocity":0.7480314960629921,"duration":0.33749999999997726},{"name":"G#2","midi":44,"time":291,"velocity":0.7480314960629921,"duration":0.33749999999997726},{"name":"G2","midi":43,"time":291,"velocity":0.7480314960629921,"duration":0.33749999999997726},{"name":"G#2","midi":44,"time":291.375,"velocity":0.7480314960629921,"duration":0.33749999999997726},{"name":"D2","midi":38,"time":291.75,"velocity":0.7480314960629921,"duration":0.33749999999997726},{"name":"G#2","midi":44,"time":291.75,"velocity":0.7480314960629921,"duration":0.33749999999997726},{"name":"G#2","midi":44,"time":292.125,"velocity":0.7480314960629921,"duration":0.33749999999997726},{"name":"G#2","midi":44,"time":292.5,"velocity":0.7480314960629921,"duration":0.33749999999997726},{"name":"B1","midi":35,"time":292.5,"velocity":0.7480314960629921,"duration":0.33749999999997726},{"name":"G2","midi":43,"time":292.5,"velocity":0.7480314960629921,"duration":0.33749999999997726},{"name":"G2","midi":43,"time":292.875,"velocity":0.7480314960629921,"duration":0.33749999999997726},{"name":"G#2","midi":44,"time":292.875,"velocity":0.7480314960629921,"duration":0.33749999999997726},{"name":"B1","midi":35,"time":292.875,"velocity":0.7480314960629921,"duration":0.33749999999997726},{"name":"G#2","midi":44,"time":293.25,"velocity":0.7480314960629921,"duration":0.33749999999997726},{"name":"D2","midi":38,"time":293.25,"velocity":0.7480314960629921,"duration":0.33749999999997726},{"name":"G#2","midi":44,"time":293.625,"velocity":0.7480314960629921,"duration":0.33749999999997726},{"name":"G#2","midi":44,"time":294,"velocity":0.7480314960629921,"duration":0.33749999999997726},{"name":"G2","midi":43,"time":294,"velocity":0.7480314960629921,"duration":0.33749999999997726},{"name":"B1","midi":35,"time":294,"velocity":0.7480314960629921,"duration":0.33749999999997726},{"name":"G#2","midi":44,"time":294.375,"velocity":0.7480314960629921,"duration":0.33749999999997726},{"name":"G#2","midi":44,"time":294.75,"velocity":0.7480314960629921,"duration":0.33749999999997726},{"name":"D2","midi":38,"time":294.75,"velocity":0.7480314960629921,"duration":0.33749999999997726},{"name":"G#2","midi":44,"time":295.125,"velocity":0.7480314960629921,"duration":0.33749999999997726},{"name":"G2","midi":43,"time":295.5,"velocity":0.7480314960629921,"duration":0.33749999999997726},{"name":"B1","midi":35,"time":295.5,"velocity":0.7480314960629921,"duration":0.33749999999997726},{"name":"G#2","midi":44,"time":295.5,"velocity":0.7480314960629921,"duration":0.33749999999997726},{"name":"G2","midi":43,"time":295.875,"velocity":0.7480314960629921,"duration":0.33749999999997726},{"name":"G#2","midi":44,"time":295.875,"velocity":0.7480314960629921,"duration":0.33749999999997726},{"name":"B1","midi":35,"time":295.875,"velocity":0.7480314960629921,"duration":0.33749999999997726},{"name":"G#2","midi":44,"time":296.25,"velocity":0.7480314960629921,"duration":0.33749999999997726},{"name":"D2","midi":38,"time":296.25,"velocity":0.7480314960629921,"duration":0.33749999999997726},{"name":"G#2","midi":44,"time":296.625,"velocity":0.7480314960629921,"duration":0.33749999999997726},{"name":"G#2","midi":44,"time":297,"velocity":0.7480314960629921,"duration":0.33749999999997726},{"name":"G2","midi":43,"time":297,"velocity":0.7480314960629921,"duration":0.33749999999997726},{"name":"B1","midi":35,"time":297,"velocity":0.7480314960629921,"duration":0.33749999999997726},{"name":"G#2","midi":44,"time":297.375,"velocity":0.7480314960629921,"duration":0.33749999999997726},{"name":"G#2","midi":44,"time":297.75,"velocity":0.7480314960629921,"duration":0.33749999999997726},{"name":"D2","midi":38,"time":297.75,"velocity":0.7480314960629921,"duration":0.33749999999997726},{"name":"G#2","midi":44,"time":298.125,"velocity":0.7480314960629921,"duration":0.33749999999997726},{"name":"G2","midi":43,"time":298.5,"velocity":0.7480314960629921,"duration":0.33749999999997726},{"name":"B1","midi":35,"time":298.5,"velocity":0.7480314960629921,"duration":0.33749999999997726},{"name":"G#2","midi":44,"time":298.5,"velocity":0.7480314960629921,"duration":0.33749999999997726},{"name":"B1","midi":35,"time":298.875,"velocity":0.7480314960629921,"duration":0.33749999999997726},{"name":"G#2","midi":44,"time":298.875,"velocity":0.7480314960629921,"duration":0.33749999999997726},{"name":"G2","midi":43,"time":298.875,"velocity":0.7480314960629921,"duration":0.33749999999997726},{"name":"G#2","midi":44,"time":299.25,"velocity":0.7480314960629921,"duration":0.33749999999997726},{"name":"D2","midi":38,"time":299.25,"velocity":0.7480314960629921,"duration":0.33749999999997726},{"name":"G#2","midi":44,"time":299.625,"velocity":0.7480314960629921,"duration":0.33749999999997726},{"name":"G2","midi":43,"time":300,"velocity":0.7480314960629921,"duration":0.33749999999997726},{"name":"B1","midi":35,"time":300,"velocity":0.7480314960629921,"duration":0.33749999999997726},{"name":"G#2","midi":44,"time":300,"velocity":0.7480314960629921,"duration":0.33749999999997726},{"name":"G#2","midi":44,"time":300.375,"velocity":0.7480314960629921,"duration":0.33749999999997726},{"name":"D2","midi":38,"time":300.75,"velocity":0.7480314960629921,"duration":0.33749999999997726},{"name":"G#2","midi":44,"time":300.75,"velocity":0.7480314960629921,"duration":0.33749999999997726},{"name":"G#2","midi":44,"time":301.125,"velocity":0.7480314960629921,"duration":0.33749999999997726},{"name":"G2","midi":43,"time":301.5,"velocity":0.7480314960629921,"duration":0.33749999999997726},{"name":"B1","midi":35,"time":301.5,"velocity":0.7480314960629921,"duration":0.33749999999997726},{"name":"G#2","midi":44,"time":301.5,"velocity":0.7480314960629921,"duration":0.33749999999997726},{"name":"B1","midi":35,"time":301.875,"velocity":0.7480314960629921,"duration":0.33749999999997726},{"name":"G2","midi":43,"time":301.875,"velocity":0.7480314960629921,"duration":0.33749999999997726},{"name":"G#2","midi":44,"time":301.875,"velocity":0.7480314960629921,"duration":0.33749999999997726},{"name":"G#2","midi":44,"time":302.25,"velocity":0.7480314960629921,"duration":0.33749999999997726},{"name":"D2","midi":38,"time":302.25,"velocity":0.7480314960629921,"duration":0.33749999999997726},{"name":"G#2","midi":44,"time":302.625,"velocity":0.7480314960629921,"duration":0.33749999999997726},{"name":"G2","midi":43,"time":303,"velocity":0.7480314960629921,"duration":0.33749999999997726},{"name":"G#2","midi":44,"time":303,"velocity":0.7480314960629921,"duration":0.33749999999997726},{"name":"B1","midi":35,"time":303,"velocity":0.7480314960629921,"duration":0.33749999999997726},{"name":"G#2","midi":44,"time":303.375,"velocity":0.7480314960629921,"duration":0.33749999999997726},{"name":"G#2","midi":44,"time":303.75,"velocity":0.7480314960629921,"duration":0.33749999999997726},{"name":"D2","midi":38,"time":303.75,"velocity":0.7480314960629921,"duration":0.33749999999997726},{"name":"G#2","midi":44,"time":304.125,"velocity":0.7480314960629921,"duration":0.33749999999997726},{"name":"G2","midi":43,"time":304.5,"velocity":0.7480314960629921,"duration":0.33749999999997726},{"name":"B1","midi":35,"time":304.5,"velocity":0.7480314960629921,"duration":0.33749999999997726},{"name":"G#2","midi":44,"time":304.5,"velocity":0.7480314960629921,"duration":0.33749999999997726},{"name":"G2","midi":43,"time":304.875,"velocity":0.7480314960629921,"duration":0.33749999999997726},{"name":"B1","midi":35,"time":304.875,"velocity":0.7480314960629921,"duration":0.33749999999997726},{"name":"G#2","midi":44,"time":304.875,"velocity":0.7480314960629921,"duration":0.33749999999997726},{"name":"D2","midi":38,"time":305.25,"velocity":0.7480314960629921,"duration":0.33749999999997726},{"name":"G#2","midi":44,"time":305.25,"velocity":0.7480314960629921,"duration":0.33749999999997726},{"name":"G#2","midi":44,"time":305.625,"velocity":0.7480314960629921,"duration":0.33749999999997726},{"name":"G#2","midi":44,"time":306,"velocity":0.7480314960629921,"duration":0.33749999999997726},{"name":"G2","midi":43,"time":306,"velocity":0.7480314960629921,"duration":0.33749999999997726},{"name":"B1","midi":35,"time":306,"velocity":0.7480314960629921,"duration":0.33749999999997726},{"name":"G#2","midi":44,"time":306.375,"velocity":0.7480314960629921,"duration":0.33749999999997726},{"name":"D2","midi":38,"time":306.75,"velocity":0.7480314960629921,"duration":0.33749999999997726},{"name":"G#2","midi":44,"time":306.75,"velocity":0.7480314960629921,"duration":0.33749999999997726},{"name":"G#2","midi":44,"time":307.125,"velocity":0.7480314960629921,"duration":0.33749999999997726},{"name":"G2","midi":43,"time":307.5,"velocity":0.7480314960629921,"duration":0.33749999999997726},{"name":"B1","midi":35,"time":307.5,"velocity":0.7480314960629921,"duration":0.33749999999997726},{"name":"G#2","midi":44,"time":307.5,"velocity":0.7480314960629921,"duration":0.33749999999997726},{"name":"G#2","midi":44,"time":307.875,"velocity":0.7480314960629921,"duration":0.33749999999997726},{"name":"B1","midi":35,"time":307.875,"velocity":0.7480314960629921,"duration":0.33749999999997726},{"name":"G2","midi":43,"time":307.875,"velocity":0.7480314960629921,"duration":0.33749999999997726},{"name":"D2","midi":38,"time":308.25,"velocity":0.7480314960629921,"duration":0.33749999999997726},{"name":"G#2","midi":44,"time":308.25,"velocity":0.7480314960629921,"duration":0.33749999999997726},{"name":"G#2","midi":44,"time":308.625,"velocity":0.7480314960629921,"duration":0.33749999999997726},{"name":"C#3","midi":49,"time":309,"velocity":0.7480314960629921,"duration":0.33749999999997726},{"name":"G2","midi":43,"time":309,"velocity":0.7480314960629921,"duration":0.33749999999997726},{"name":"B1","midi":35,"time":309,"velocity":0.7480314960629921,"duration":0.33749999999997726},{"name":"G#2","midi":44,"time":309,"velocity":0.7480314960629921,"duration":0.33749999999997726},{"name":"G#2","midi":44,"time":309.375,"velocity":0.7480314960629921,"duration":0.33749999999997726},{"name":"G#2","midi":44,"time":309.75,"velocity":0.7480314960629921,"duration":0.33749999999997726},{"name":"D2","midi":38,"time":309.75,"velocity":0.7480314960629921,"duration":0.33749999999997726},{"name":"G#2","midi":44,"time":310.125,"velocity":0.7480314960629921,"duration":0.33749999999997726},{"name":"B1","midi":35,"time":310.5,"velocity":0.7480314960629921,"duration":0.33749999999997726},{"name":"G#2","midi":44,"time":310.5,"velocity":0.7480314960629921,"duration":0.33749999999997726},{"name":"G2","midi":43,"time":310.5,"velocity":0.7480314960629921,"duration":0.33749999999997726},{"name":"G2","midi":43,"time":310.875,"velocity":0.7480314960629921,"duration":0.33749999999997726},{"name":"G#2","midi":44,"time":310.875,"velocity":0.7480314960629921,"duration":0.33749999999997726},{"name":"B1","midi":35,"time":310.875,"velocity":0.7480314960629921,"duration":0.33749999999997726},{"name":"G#2","midi":44,"time":311.25,"velocity":0.7480314960629921,"duration":0.33749999999997726},{"name":"D2","midi":38,"time":311.25,"velocity":0.7480314960629921,"duration":0.33749999999997726},{"name":"G#2","midi":44,"time":311.625,"velocity":0.7480314960629921,"duration":0.33749999999997726},{"name":"G#2","midi":44,"time":312,"velocity":0.7480314960629921,"duration":0.33749999999997726},{"name":"B1","midi":35,"time":312,"velocity":0.7480314960629921,"duration":0.33749999999997726},{"name":"G2","midi":43,"time":312,"velocity":0.7480314960629921,"duration":0.33749999999997726},{"name":"G#2","midi":44,"time":312.375,"velocity":0.7480314960629921,"duration":0.33749999999997726},{"name":"G#2","midi":44,"time":312.75,"velocity":0.7480314960629921,"duration":0.33749999999997726},{"name":"D2","midi":38,"time":312.75,"velocity":0.7480314960629921,"duration":0.33749999999997726},{"name":"G#2","midi":44,"time":313.125,"velocity":0.7480314960629921,"duration":0.33749999999997726},{"name":"G#2","midi":44,"time":313.5,"velocity":0.7480314960629921,"duration":0.33749999999997726},{"name":"G2","midi":43,"time":313.5,"velocity":0.7480314960629921,"duration":0.33749999999997726},{"name":"B1","midi":35,"time":313.5,"velocity":0.7480314960629921,"duration":0.33749999999997726},{"name":"G2","midi":43,"time":313.875,"velocity":0.7480314960629921,"duration":0.33749999999997726},{"name":"B1","midi":35,"time":313.875,"velocity":0.7480314960629921,"duration":0.33749999999997726},{"name":"G#2","midi":44,"time":313.875,"velocity":0.7480314960629921,"duration":0.33749999999997726},{"name":"D2","midi":38,"time":314.25,"velocity":0.7480314960629921,"duration":0.33749999999997726},{"name":"G#2","midi":44,"time":314.25,"velocity":0.7480314960629921,"duration":0.33749999999997726},{"name":"G#2","midi":44,"time":314.625,"velocity":0.7480314960629921,"duration":0.33749999999997726},{"name":"G2","midi":43,"time":315,"velocity":0.7480314960629921,"duration":0.33749999999997726},{"name":"B1","midi":35,"time":315,"velocity":0.7480314960629921,"duration":0.33749999999997726},{"name":"G#2","midi":44,"time":315,"velocity":0.7480314960629921,"duration":0.33749999999997726},{"name":"G#2","midi":44,"time":315.375,"velocity":0.7480314960629921,"duration":0.33749999999997726},{"name":"D2","midi":38,"time":315.75,"velocity":0.7480314960629921,"duration":0.33749999999997726},{"name":"G#2","midi":44,"time":315.75,"velocity":0.7480314960629921,"duration":0.33749999999997726},{"name":"G#2","midi":44,"time":316.125,"velocity":0.7480314960629921,"duration":0.33749999999997726},{"name":"G#2","midi":44,"time":316.5,"velocity":0.7480314960629921,"duration":0.33749999999997726},{"name":"B1","midi":35,"time":316.5,"velocity":0.7480314960629921,"duration":0.33749999999997726},{"name":"G2","midi":43,"time":316.5,"velocity":0.7480314960629921,"duration":0.33749999999997726},{"name":"G#2","midi":44,"time":316.875,"velocity":0.7480314960629921,"duration":0.33749999999997726},{"name":"B1","midi":35,"time":316.875,"velocity":0.7480314960629921,"duration":0.33749999999997726},{"name":"G2","midi":43,"time":316.875,"velocity":0.7480314960629921,"duration":0.33749999999997726},{"name":"G#2","midi":44,"time":317.25,"velocity":0.7480314960629921,"duration":0.33749999999997726},{"name":"D2","midi":38,"time":317.25,"velocity":0.7480314960629921,"duration":0.33749999999997726},{"name":"G#2","midi":44,"time":317.625,"velocity":0.7480314960629921,"duration":0.33749999999997726},{"name":"G#2","midi":44,"time":318,"velocity":0.7480314960629921,"duration":0.33749999999997726},{"name":"B1","midi":35,"time":318,"velocity":0.7480314960629921,"duration":0.33749999999997726},{"name":"G2","midi":43,"time":318,"velocity":0.7480314960629921,"duration":0.33749999999997726},{"name":"G#2","midi":44,"time":318.375,"velocity":0.7480314960629921,"duration":0.33749999999997726},{"name":"G#2","midi":44,"time":318.75,"velocity":0.7480314960629921,"duration":0.33749999999997726},{"name":"D2","midi":38,"time":318.75,"velocity":0.7480314960629921,"duration":0.33749999999997726},{"name":"G#2","midi":44,"time":319.125,"velocity":0.7480314960629921,"duration":0.33749999999997726},{"name":"G2","midi":43,"time":319.5,"velocity":0.7480314960629921,"duration":0.33749999999997726},{"name":"G#2","midi":44,"time":319.5,"velocity":0.7480314960629921,"duration":0.33749999999997726},{"name":"B1","midi":35,"time":319.5,"velocity":0.7480314960629921,"duration":0.33749999999997726},{"name":"B1","midi":35,"time":319.875,"velocity":0.7480314960629921,"duration":0.33749999999997726},{"name":"G2","midi":43,"time":319.875,"velocity":0.7480314960629921,"duration":0.33749999999997726},{"name":"G#2","midi":44,"time":319.875,"velocity":0.7480314960629921,"duration":0.33749999999997726},{"name":"D2","midi":38,"time":320.25,"velocity":0.7480314960629921,"duration":0.33749999999997726},{"name":"G#2","midi":44,"time":320.25,"velocity":0.7480314960629921,"duration":0.33749999999997726},{"name":"G#2","midi":44,"time":320.625,"velocity":0.7480314960629921,"duration":0.33749999999997726},{"name":"G2","midi":43,"time":321,"velocity":0.7480314960629921,"duration":0.33749999999997726},{"name":"B1","midi":35,"time":321,"velocity":0.7480314960629921,"duration":0.33749999999997726},{"name":"G#2","midi":44,"time":321,"velocity":0.7480314960629921,"duration":0.33749999999997726},{"name":"G#2","midi":44,"time":321.375,"velocity":0.7480314960629921,"duration":0.33749999999997726},{"name":"G#2","midi":44,"time":321.75,"velocity":0.7480314960629921,"duration":0.33749999999997726},{"name":"D2","midi":38,"time":321.75,"velocity":0.7480314960629921,"duration":0.33749999999997726},{"name":"G#2","midi":44,"time":322.125,"velocity":0.7480314960629921,"duration":0.33749999999997726},{"name":"G#2","midi":44,"time":322.5,"velocity":0.7480314960629921,"duration":0.33749999999997726},{"name":"B1","midi":35,"time":322.5,"velocity":0.7480314960629921,"duration":0.33749999999997726},{"name":"G2","midi":43,"time":322.5,"velocity":0.7480314960629921,"duration":0.33749999999997726},{"name":"B1","midi":35,"time":322.875,"velocity":0.7480314960629921,"duration":0.33749999999997726},{"name":"G#2","midi":44,"time":322.875,"velocity":0.7480314960629921,"duration":0.33749999999997726},{"name":"G2","midi":43,"time":322.875,"velocity":0.7480314960629921,"duration":0.33749999999997726},{"name":"G#2","midi":44,"time":323.25,"velocity":0.7480314960629921,"duration":0.33749999999997726},{"name":"D2","midi":38,"time":323.25,"velocity":0.7480314960629921,"duration":0.33749999999997726},{"name":"G#2","midi":44,"time":323.625,"velocity":0.7480314960629921,"duration":0.33749999999997726},{"name":"B1","midi":35,"time":324,"velocity":0.7480314960629921,"duration":0.33749999999997726},{"name":"G#2","midi":44,"time":324,"velocity":0.7480314960629921,"duration":0.33749999999997726},{"name":"G2","midi":43,"time":324,"velocity":0.7480314960629921,"duration":0.33749999999997726},{"name":"G#2","midi":44,"time":324.375,"velocity":0.7480314960629921,"duration":0.33749999999997726},{"name":"D2","midi":38,"time":324.75,"velocity":0.7480314960629921,"duration":0.33749999999997726},{"name":"G#2","midi":44,"time":324.75,"velocity":0.7480314960629921,"duration":0.33749999999997726},{"name":"G#2","midi":44,"time":325.125,"velocity":0.7480314960629921,"duration":0.33749999999997726},{"name":"G2","midi":43,"time":325.5,"velocity":0.7480314960629921,"duration":0.33749999999997726},{"name":"G#2","midi":44,"time":325.5,"velocity":0.7480314960629921,"duration":0.33749999999997726},{"name":"B1","midi":35,"time":325.5,"velocity":0.7480314960629921,"duration":0.33749999999997726},{"name":"G2","midi":43,"time":325.875,"velocity":0.7480314960629921,"duration":0.33749999999997726},{"name":"B1","midi":35,"time":325.875,"velocity":0.7480314960629921,"duration":0.33749999999997726},{"name":"G#2","midi":44,"time":325.875,"velocity":0.7480314960629921,"duration":0.33749999999997726},{"name":"G#2","midi":44,"time":326.25,"velocity":0.7480314960629921,"duration":0.33749999999997726},{"name":"D2","midi":38,"time":326.25,"velocity":0.7480314960629921,"duration":0.33749999999997726},{"name":"G#2","midi":44,"time":326.625,"velocity":0.7480314960629921,"duration":0.33749999999997726},{"name":"G#2","midi":44,"time":327,"velocity":0.7480314960629921,"duration":0.33749999999997726},{"name":"B1","midi":35,"time":327,"velocity":0.7480314960629921,"duration":0.33749999999997726},{"name":"G2","midi":43,"time":327,"velocity":0.7480314960629921,"duration":0.33749999999997726},{"name":"G#2","midi":44,"time":327.375,"velocity":0.7480314960629921,"duration":0.33749999999997726},{"name":"G#2","midi":44,"time":327.75,"velocity":0.7480314960629921,"duration":0.33749999999997726},{"name":"D2","midi":38,"time":327.75,"velocity":0.7480314960629921,"duration":0.33749999999997726},{"name":"G#2","midi":44,"time":328.125,"velocity":0.7480314960629921,"duration":0.33749999999997726},{"name":"B1","midi":35,"time":328.5,"velocity":0.7480314960629921,"duration":0.33749999999997726},{"name":"G#2","midi":44,"time":328.5,"velocity":0.7480314960629921,"duration":0.33749999999997726},{"name":"G2","midi":43,"time":328.5,"velocity":0.7480314960629921,"duration":0.33749999999997726},{"name":"G2","midi":43,"time":328.875,"velocity":0.7480314960629921,"duration":0.33749999999997726},{"name":"G#2","midi":44,"time":328.875,"velocity":0.7480314960629921,"duration":0.33749999999997726},{"name":"B1","midi":35,"time":328.875,"velocity":0.7480314960629921,"duration":0.33749999999997726},{"name":"D2","midi":38,"time":329.25,"velocity":0.7480314960629921,"duration":0.33749999999997726},{"name":"G#2","midi":44,"time":329.25,"velocity":0.7480314960629921,"duration":0.33749999999997726},{"name":"G#2","midi":44,"time":329.625,"velocity":0.7480314960629921,"duration":0.33749999999997726},{"name":"G2","midi":43,"time":330,"velocity":0.7480314960629921,"duration":0.33749999999997726},{"name":"B1","midi":35,"time":330,"velocity":0.7480314960629921,"duration":0.33749999999997726},{"name":"G#2","midi":44,"time":330,"velocity":0.7480314960629921,"duration":0.33749999999997726},{"name":"G#2","midi":44,"time":330.375,"velocity":0.7480314960629921,"duration":0.33749999999997726},{"name":"G#2","midi":44,"time":330.75,"velocity":0.7480314960629921,"duration":0.33749999999997726},{"name":"D2","midi":38,"time":330.75,"velocity":0.7480314960629921,"duration":0.33749999999997726},{"name":"G#2","midi":44,"time":331.125,"velocity":0.7480314960629921,"duration":0.33749999999997726},{"name":"G#2","midi":44,"time":331.5,"velocity":0.7480314960629921,"duration":0.33749999999997726},{"name":"B1","midi":35,"time":331.5,"velocity":0.7480314960629921,"duration":0.33749999999997726},{"name":"G2","midi":43,"time":331.5,"velocity":0.7480314960629921,"duration":0.33749999999997726},{"name":"B1","midi":35,"time":331.875,"velocity":0.7480314960629921,"duration":0.33749999999997726},{"name":"G2","midi":43,"time":331.875,"velocity":0.7480314960629921,"duration":0.33749999999997726},{"name":"G#2","midi":44,"time":331.875,"velocity":0.7480314960629921,"duration":0.33749999999997726},{"name":"G#2","midi":44,"time":332.25,"velocity":0.7480314960629921,"duration":0.33749999999997726},{"name":"D2","midi":38,"time":332.25,"velocity":0.7480314960629921,"duration":0.33749999999997726},{"name":"G#2","midi":44,"time":332.625,"velocity":0.7480314960629921,"duration":0.33749999999997726},{"name":"B1","midi":35,"time":333,"velocity":0.7480314960629921,"duration":0.33749999999997726},{"name":"C#3","midi":49,"time":333,"velocity":0.7480314960629921,"duration":0.33749999999997726},{"name":"G2","midi":43,"time":333,"velocity":0.7480314960629921,"duration":0.33749999999997726},{"name":"D#3","midi":51,"time":333,"velocity":0.7480314960629921,"duration":0.33749999999997726},{"name":"D#3","midi":51,"time":333.375,"velocity":0.7480314960629921,"duration":0.33749999999997726},{"name":"D#3","midi":51,"time":333.75,"velocity":0.7480314960629921,"duration":0.33749999999997726},{"name":"D2","midi":38,"time":333.75,"velocity":0.7480314960629921,"duration":0.33749999999997726},{"name":"D#3","midi":51,"time":334.125,"velocity":0.7480314960629921,"duration":0.33749999999997726},{"name":"G2","midi":43,"time":334.5,"velocity":0.7480314960629921,"duration":0.33749999999997726},{"name":"B1","midi":35,"time":334.5,"velocity":0.7480314960629921,"duration":0.33749999999997726},{"name":"D#3","midi":51,"time":334.5,"velocity":0.7480314960629921,"duration":0.33749999999997726},{"name":"B1","midi":35,"time":334.875,"velocity":0.7480314960629921,"duration":0.33749999999997726},{"name":"G2","midi":43,"time":334.875,"velocity":0.7480314960629921,"duration":0.33749999999997726},{"name":"D#3","midi":51,"time":334.875,"velocity":0.7480314960629921,"duration":0.33749999999997726},{"name":"D#3","midi":51,"time":335.25,"velocity":0.7480314960629921,"duration":0.33749999999997726},{"name":"D2","midi":38,"time":335.25,"velocity":0.7480314960629921,"duration":0.33749999999997726},{"name":"D#3","midi":51,"time":335.625,"velocity":0.7480314960629921,"duration":0.33749999999997726},{"name":"D#3","midi":51,"time":336,"velocity":0.7480314960629921,"duration":0.33749999999997726},{"name":"G2","midi":43,"time":336,"velocity":0.7480314960629921,"duration":0.33749999999997726},{"name":"B1","midi":35,"time":336,"velocity":0.7480314960629921,"duration":0.33749999999997726},{"name":"D#3","midi":51,"time":336.375,"velocity":0.7480314960629921,"duration":0.33749999999997726},{"name":"D#3","midi":51,"time":336.75,"velocity":0.7480314960629921,"duration":0.33749999999997726},{"name":"D2","midi":38,"time":336.75,"velocity":0.7480314960629921,"duration":0.33749999999997726},{"name":"D#3","midi":51,"time":337.125,"velocity":0.7480314960629921,"duration":0.33749999999997726},{"name":"B1","midi":35,"time":337.5,"velocity":0.7480314960629921,"duration":0.33749999999997726},{"name":"G2","midi":43,"time":337.5,"velocity":0.7480314960629921,"duration":0.33749999999997726},{"name":"D#3","midi":51,"time":337.5,"velocity":0.7480314960629921,"duration":0.33749999999997726},{"name":"D#3","midi":51,"time":337.875,"velocity":0.7480314960629921,"duration":0.33749999999997726},{"name":"B1","midi":35,"time":337.875,"velocity":0.7480314960629921,"duration":0.33749999999997726},{"name":"G2","midi":43,"time":337.875,"velocity":0.7480314960629921,"duration":0.33749999999997726},{"name":"D2","midi":38,"time":338.25,"velocity":0.7480314960629921,"duration":0.33749999999997726},{"name":"D#3","midi":51,"time":338.25,"velocity":0.7480314960629921,"duration":0.33749999999997726},{"name":"D#3","midi":51,"time":338.625,"velocity":0.7480314960629921,"duration":0.33749999999997726},{"name":"D#3","midi":51,"time":339,"velocity":0.7480314960629921,"duration":0.33749999999997726},{"name":"G2","midi":43,"time":339,"velocity":0.7480314960629921,"duration":0.33749999999997726},{"name":"B1","midi":35,"time":339,"velocity":0.7480314960629921,"duration":0.33749999999997726},{"name":"D#3","midi":51,"time":339.375,"velocity":0.7480314960629921,"duration":0.33749999999997726},{"name":"D2","midi":38,"time":339.75,"velocity":0.7480314960629921,"duration":0.33749999999997726},{"name":"D#3","midi":51,"time":339.75,"velocity":0.7480314960629921,"duration":0.33749999999997726},{"name":"D#3","midi":51,"time":340.125,"velocity":0.7480314960629921,"duration":0.33749999999997726},{"name":"D#3","midi":51,"time":340.5,"velocity":0.7480314960629921,"duration":0.33749999999997726},{"name":"G2","midi":43,"time":340.5,"velocity":0.7480314960629921,"duration":0.33749999999997726},{"name":"B1","midi":35,"time":340.5,"velocity":0.7480314960629921,"duration":0.33749999999997726},{"name":"B1","midi":35,"time":340.875,"velocity":0.7480314960629921,"duration":0.33749999999997726},{"name":"G2","midi":43,"time":340.875,"velocity":0.7480314960629921,"duration":0.33749999999997726},{"name":"D#3","midi":51,"time":340.875,"velocity":0.7480314960629921,"duration":0.33749999999997726},{"name":"D2","midi":38,"time":341.25,"velocity":0.7480314960629921,"duration":0.33749999999997726},{"name":"D#3","midi":51,"time":341.25,"velocity":0.7480314960629921,"duration":0.33749999999997726},{"name":"D#3","midi":51,"time":341.625,"velocity":0.7480314960629921,"duration":0.33749999999997726},{"name":"B1","midi":35,"time":342,"velocity":0.7480314960629921,"duration":0.33749999999997726},{"name":"G2","midi":43,"time":342,"velocity":0.7480314960629921,"duration":0.33749999999997726},{"name":"D#3","midi":51,"time":342,"velocity":0.7480314960629921,"duration":0.33749999999997726},{"name":"D#3","midi":51,"time":342.375,"velocity":0.7480314960629921,"duration":0.33749999999997726},{"name":"D#3","midi":51,"time":342.75,"velocity":0.7480314960629921,"duration":0.33749999999997726},{"name":"D2","midi":38,"time":342.75,"velocity":0.7480314960629921,"duration":0.33749999999997726},{"name":"D#3","midi":51,"time":343.125,"velocity":0.7480314960629921,"duration":0.33749999999997726},{"name":"B1","midi":35,"time":343.5,"velocity":0.7480314960629921,"duration":0.33749999999997726},{"name":"G2","midi":43,"time":343.5,"velocity":0.7480314960629921,"duration":0.33749999999997726},{"name":"D#3","midi":51,"time":343.5,"velocity":0.7480314960629921,"duration":0.33749999999997726},{"name":"D#3","midi":51,"time":343.875,"velocity":0.7480314960629921,"duration":0.33749999999997726},{"name":"G2","midi":43,"time":343.875,"velocity":0.7480314960629921,"duration":0.33749999999997726},{"name":"B1","midi":35,"time":343.875,"velocity":0.7480314960629921,"duration":0.33749999999997726},{"name":"D#3","midi":51,"time":344.25,"velocity":0.7480314960629921,"duration":0.33749999999997726},{"name":"D2","midi":38,"time":344.25,"velocity":0.7480314960629921,"duration":0.33749999999997726},{"name":"D#3","midi":51,"time":344.625,"velocity":0.7480314960629921,"duration":0.33749999999997726},{"name":"B1","midi":35,"time":345,"velocity":0.7480314960629921,"duration":0.33749999999997726},{"name":"G2","midi":43,"time":345,"velocity":0.7480314960629921,"duration":0.33749999999997726},{"name":"D#3","midi":51,"time":345,"velocity":0.7480314960629921,"duration":0.33749999999997726},{"name":"D#3","midi":51,"time":345.375,"velocity":0.7480314960629921,"duration":0.33749999999997726},{"name":"D2","midi":38,"time":345.75,"velocity":0.7480314960629921,"duration":0.33749999999997726},{"name":"D#3","midi":51,"time":345.75,"velocity":0.7480314960629921,"duration":0.33749999999997726},{"name":"D#3","midi":51,"time":346.125,"velocity":0.7480314960629921,"duration":0.33749999999997726},{"name":"D#3","midi":51,"time":346.5,"velocity":0.7480314960629921,"duration":0.33749999999997726},{"name":"G2","midi":43,"time":346.5,"velocity":0.7480314960629921,"duration":0.33749999999997726},{"name":"B1","midi":35,"time":346.5,"velocity":0.7480314960629921,"duration":0.33749999999997726},{"name":"D#3","midi":51,"time":346.875,"velocity":0.7480314960629921,"duration":0.33749999999997726},{"name":"B1","midi":35,"time":346.875,"velocity":0.7480314960629921,"duration":0.33749999999997726},{"name":"G2","midi":43,"time":346.875,"velocity":0.7480314960629921,"duration":0.33749999999997726},{"name":"D2","midi":38,"time":347.25,"velocity":0.7480314960629921,"duration":0.33749999999997726},{"name":"D#3","midi":51,"time":347.25,"velocity":0.7480314960629921,"duration":0.33749999999997726},{"name":"D#3","midi":51,"time":347.625,"velocity":0.7480314960629921,"duration":0.33749999999997726},{"name":"D#3","midi":51,"time":348,"velocity":0.7480314960629921,"duration":0.33749999999997726},{"name":"G2","midi":43,"time":348,"velocity":0.7480314960629921,"duration":0.33749999999997726},{"name":"B1","midi":35,"time":348,"velocity":0.7480314960629921,"duration":0.33749999999997726},{"name":"D#3","midi":51,"time":348.375,"velocity":0.7480314960629921,"duration":0.33749999999997726},{"name":"D#3","midi":51,"time":348.75,"velocity":0.7480314960629921,"duration":0.33749999999997726},{"name":"D2","midi":38,"time":348.75,"velocity":0.7480314960629921,"duration":0.33749999999997726},{"name":"D#3","midi":51,"time":349.125,"velocity":0.7480314960629921,"duration":0.33749999999997726},{"name":"B1","midi":35,"time":349.5,"velocity":0.7480314960629921,"duration":0.33749999999997726},{"name":"G2","midi":43,"time":349.5,"velocity":0.7480314960629921,"duration":0.33749999999997726},{"name":"D#3","midi":51,"time":349.5,"velocity":0.7480314960629921,"duration":0.33749999999997726},{"name":"B1","midi":35,"time":349.875,"velocity":0.7480314960629921,"duration":0.33749999999997726},{"name":"G2","midi":43,"time":349.875,"velocity":0.7480314960629921,"duration":0.33749999999997726},{"name":"D#3","midi":51,"time":349.875,"velocity":0.7480314960629921,"duration":0.33749999999997726},{"name":"D#3","midi":51,"time":350.25,"velocity":0.7480314960629921,"duration":0.33749999999997726},{"name":"D2","midi":38,"time":350.25,"velocity":0.7480314960629921,"duration":0.33749999999997726},{"name":"D#3","midi":51,"time":350.625,"velocity":0.7480314960629921,"duration":0.33749999999997726},{"name":"B1","midi":35,"time":351,"velocity":0.7480314960629921,"duration":0.33749999999997726},{"name":"G2","midi":43,"time":351,"velocity":0.7480314960629921,"duration":0.33749999999997726},{"name":"D#3","midi":51,"time":351,"velocity":0.7480314960629921,"duration":0.33749999999997726},{"name":"D#3","midi":51,"time":351.375,"velocity":0.7480314960629921,"duration":0.33749999999997726},{"name":"D#3","midi":51,"time":351.75,"velocity":0.7480314960629921,"duration":0.33749999999997726},{"name":"D2","midi":38,"time":351.75,"velocity":0.7480314960629921,"duration":0.33749999999997726},{"name":"D#3","midi":51,"time":352.125,"velocity":0.7480314960629921,"duration":0.33749999999997726},{"name":"B1","midi":35,"time":352.5,"velocity":0.7480314960629921,"duration":0.33749999999997726},{"name":"G2","midi":43,"time":352.5,"velocity":0.7480314960629921,"duration":0.33749999999997726},{"name":"D#3","midi":51,"time":352.5,"velocity":0.7480314960629921,"duration":0.33749999999997726},{"name":"D#3","midi":51,"time":352.875,"velocity":0.7480314960629921,"duration":0.33749999999997726},{"name":"B1","midi":35,"time":352.875,"velocity":0.7480314960629921,"duration":0.33749999999997726},{"name":"G2","midi":43,"time":352.875,"velocity":0.7480314960629921,"duration":0.33749999999997726},{"name":"D#3","midi":51,"time":353.25,"velocity":0.7480314960629921,"duration":0.33749999999997726},{"name":"D2","midi":38,"time":353.25,"velocity":0.7480314960629921,"duration":0.33749999999997726},{"name":"D#3","midi":51,"time":353.625,"velocity":0.7480314960629921,"duration":0.33749999999997726},{"name":"B1","midi":35,"time":354,"velocity":0.7480314960629921,"duration":0.33749999999997726},{"name":"G2","midi":43,"time":354,"velocity":0.7480314960629921,"duration":0.33749999999997726},{"name":"D#3","midi":51,"time":354,"velocity":0.7480314960629921,"duration":0.33749999999997726},{"name":"D#3","midi":51,"time":354.375,"velocity":0.7480314960629921,"duration":0.33749999999997726},{"name":"D2","midi":38,"time":354.75,"velocity":0.7480314960629921,"duration":0.33749999999997726},{"name":"D#3","midi":51,"time":354.75,"velocity":0.7480314960629921,"duration":0.33749999999997726},{"name":"D#3","midi":51,"time":355.125,"velocity":0.7480314960629921,"duration":0.33749999999997726},{"name":"D#3","midi":51,"time":355.5,"velocity":0.7480314960629921,"duration":0.33749999999997726},{"name":"B1","midi":35,"time":355.5,"velocity":0.7480314960629921,"duration":0.33749999999997726},{"name":"G2","midi":43,"time":355.5,"velocity":0.7480314960629921,"duration":0.33749999999997726},{"name":"D#3","midi":51,"time":355.875,"velocity":0.7480314960629921,"duration":0.33749999999997726},{"name":"B1","midi":35,"time":355.875,"velocity":0.7480314960629921,"duration":0.33749999999997726},{"name":"G2","midi":43,"time":355.875,"velocity":0.7480314960629921,"duration":0.33749999999997726},{"name":"D2","midi":38,"time":356.25,"velocity":0.7480314960629921,"duration":0.33749999999997726},{"name":"D#3","midi":51,"time":356.25,"velocity":0.7480314960629921,"duration":0.33749999999997726},{"name":"D#3","midi":51,"time":356.625,"velocity":0.7480314960629921,"duration":0.33749999999997726},{"name":"B1","midi":35,"time":357,"velocity":0.7480314960629921,"duration":0.33749999999997726},{"name":"G2","midi":43,"time":357,"velocity":0.7480314960629921,"duration":0.33749999999997726},{"name":"D#3","midi":51,"time":357,"velocity":0.7480314960629921,"duration":0.33749999999997726},{"name":"D#3","midi":51,"time":357.375,"velocity":0.7480314960629921,"duration":0.33749999999997726},{"name":"D2","midi":38,"time":357.75,"velocity":0.7480314960629921,"duration":0.33749999999997726},{"name":"D#3","midi":51,"time":357.75,"velocity":0.7480314960629921,"duration":0.33749999999997726},{"name":"D#3","midi":51,"time":358.125,"velocity":0.7480314960629921,"duration":0.33749999999997726},{"name":"G2","midi":43,"time":358.5,"velocity":0.7480314960629921,"duration":0.33749999999997726},{"name":"D#3","midi":51,"time":358.5,"velocity":0.7480314960629921,"duration":0.33749999999997726},{"name":"B1","midi":35,"time":358.5,"velocity":0.7480314960629921,"duration":0.33749999999997726},{"name":"D#3","midi":51,"time":358.875,"velocity":0.7480314960629921,"duration":0.33749999999997726},{"name":"G2","midi":43,"time":358.875,"velocity":0.7480314960629921,"duration":0.33749999999997726},{"name":"B1","midi":35,"time":358.875,"velocity":0.7480314960629921,"duration":0.33749999999997726},{"name":"D2","midi":38,"time":359.25,"velocity":0.7480314960629921,"duration":0.33749999999997726},{"name":"D#3","midi":51,"time":359.25,"velocity":0.7480314960629921,"duration":0.33749999999997726},{"name":"D#3","midi":51,"time":359.625,"velocity":0.7480314960629921,"duration":0.33749999999997726},{"name":"B1","midi":35,"time":360,"velocity":0.7480314960629921,"duration":0.33749999999997726},{"name":"G2","midi":43,"time":360,"velocity":0.7480314960629921,"duration":0.33749999999997726},{"name":"D#3","midi":51,"time":360,"velocity":0.7480314960629921,"duration":0.33749999999997726},{"name":"D#3","midi":51,"time":360.375,"velocity":0.7480314960629921,"duration":0.33749999999997726},{"name":"D2","midi":38,"time":360.75,"velocity":0.7480314960629921,"duration":0.33749999999997726},{"name":"D#3","midi":51,"time":360.75,"velocity":0.7480314960629921,"duration":0.33749999999997726},{"name":"D#3","midi":51,"time":361.125,"velocity":0.7480314960629921,"duration":0.33749999999997726},{"name":"B1","midi":35,"time":361.5,"velocity":0.7480314960629921,"duration":0.33749999999997726},{"name":"G2","midi":43,"time":361.5,"velocity":0.7480314960629921,"duration":0.33749999999997726},{"name":"D#3","midi":51,"time":361.5,"velocity":0.7480314960629921,"duration":0.33749999999997726},{"name":"B1","midi":35,"time":361.875,"velocity":0.7480314960629921,"duration":0.33749999999997726},{"name":"G2","midi":43,"time":361.875,"velocity":0.7480314960629921,"duration":0.33749999999997726},{"name":"D#3","midi":51,"time":361.875,"velocity":0.7480314960629921,"duration":0.33749999999997726},{"name":"D#3","midi":51,"time":362.25,"velocity":0.7480314960629921,"duration":0.33749999999997726},{"name":"D2","midi":38,"time":362.25,"velocity":0.7480314960629921,"duration":0.33749999999997726},{"name":"D#3","midi":51,"time":362.625,"velocity":0.7480314960629921,"duration":0.33749999999997726},{"name":"D#3","midi":51,"time":363,"velocity":0.7480314960629921,"duration":0.33749999999997726},{"name":"G2","midi":43,"time":363,"velocity":0.7480314960629921,"duration":0.33749999999997726},{"name":"B1","midi":35,"time":363,"velocity":0.7480314960629921,"duration":0.33749999999997726},{"name":"D#3","midi":51,"time":363.375,"velocity":0.7480314960629921,"duration":0.33749999999997726},{"name":"D#3","midi":51,"time":363.75,"velocity":0.7480314960629921,"duration":0.33749999999997726},{"name":"D2","midi":38,"time":363.75,"velocity":0.7480314960629921,"duration":0.33749999999997726},{"name":"D#3","midi":51,"time":364.125,"velocity":0.7480314960629921,"duration":0.33749999999997726},{"name":"B1","midi":35,"time":364.5,"velocity":0.7480314960629921,"duration":0.33749999999997726},{"name":"G2","midi":43,"time":364.5,"velocity":0.7480314960629921,"duration":0.33749999999997726},{"name":"D#3","midi":51,"time":364.5,"velocity":0.7480314960629921,"duration":0.33749999999997726},{"name":"B1","midi":35,"time":364.875,"velocity":0.7480314960629921,"duration":0.33749999999997726},{"name":"G2","midi":43,"time":364.875,"velocity":0.7480314960629921,"duration":0.33749999999997726},{"name":"D#3","midi":51,"time":364.875,"velocity":0.7480314960629921,"duration":0.33749999999997726},{"name":"D#3","midi":51,"time":365.25,"velocity":0.7480314960629921,"duration":0.33749999999997726},{"name":"D2","midi":38,"time":365.25,"velocity":0.7480314960629921,"duration":0.33749999999997726},{"name":"D#3","midi":51,"time":365.625,"velocity":0.7480314960629921,"duration":0.33749999999997726},{"name":"G2","midi":43,"time":366,"velocity":0.7480314960629921,"duration":0.33749999999997726},{"name":"D#3","midi":51,"time":366,"velocity":0.7480314960629921,"duration":0.33749999999997726},{"name":"B1","midi":35,"time":366,"velocity":0.7480314960629921,"duration":0.33749999999997726},{"name":"D#3","midi":51,"time":366.375,"velocity":0.7480314960629921,"duration":0.33749999999997726},{"name":"D2","midi":38,"time":366.75,"velocity":0.7480314960629921,"duration":0.33749999999997726},{"name":"D#3","midi":51,"time":366.75,"velocity":0.7480314960629921,"duration":0.33749999999997726},{"name":"D#3","midi":51,"time":367.125,"velocity":0.7480314960629921,"duration":0.33749999999997726},{"name":"B1","midi":35,"time":367.5,"velocity":0.7480314960629921,"duration":0.33749999999997726},{"name":"G2","midi":43,"time":367.5,"velocity":0.7480314960629921,"duration":0.33749999999997726},{"name":"D#3","midi":51,"time":367.5,"velocity":0.7480314960629921,"duration":0.33749999999997726},{"name":"D#3","midi":51,"time":367.875,"velocity":0.7480314960629921,"duration":0.33749999999997726},{"name":"B1","midi":35,"time":367.875,"velocity":0.7480314960629921,"duration":0.33749999999997726},{"name":"G2","midi":43,"time":367.875,"velocity":0.7480314960629921,"duration":0.33749999999997726},{"name":"D#3","midi":51,"time":368.25,"velocity":0.7480314960629921,"duration":0.33749999999997726},{"name":"D2","midi":38,"time":368.25,"velocity":0.7480314960629921,"duration":0.33749999999997726},{"name":"D#3","midi":51,"time":368.625,"velocity":0.7480314960629921,"duration":0.33749999999997726},{"name":"D#3","midi":51,"time":369,"velocity":0.7480314960629921,"duration":0.33749999999997726},{"name":"G2","midi":43,"time":369,"velocity":0.7480314960629921,"duration":0.33749999999997726},{"name":"B1","midi":35,"time":369,"velocity":0.7480314960629921,"duration":0.33749999999997726},{"name":"D#3","midi":51,"time":369.375,"velocity":0.7480314960629921,"duration":0.33749999999997726},{"name":"D2","midi":38,"time":369.75,"velocity":0.7480314960629921,"duration":0.33749999999997726},{"name":"D#3","midi":51,"time":369.75,"velocity":0.7480314960629921,"duration":0.33749999999997726},{"name":"D#3","midi":51,"time":370.125,"velocity":0.7480314960629921,"duration":0.33749999999997726},{"name":"B1","midi":35,"time":370.5,"velocity":0.7480314960629921,"duration":0.33749999999997726},{"name":"D#3","midi":51,"time":370.5,"velocity":0.7480314960629921,"duration":0.33749999999997726},{"name":"G2","midi":43,"time":370.5,"velocity":0.7480314960629921,"duration":0.33749999999997726},{"name":"B1","midi":35,"time":370.875,"velocity":0.7480314960629921,"duration":0.33749999999997726},{"name":"G2","midi":43,"time":370.875,"velocity":0.7480314960629921,"duration":0.33749999999997726},{"name":"D#3","midi":51,"time":370.875,"velocity":0.7480314960629921,"duration":0.33749999999997726},{"name":"D2","midi":38,"time":371.25,"velocity":0.7480314960629921,"duration":0.33749999999997726},{"name":"D#3","midi":51,"time":371.25,"velocity":0.7480314960629921,"duration":0.33749999999997726},{"name":"D#3","midi":51,"time":371.625,"velocity":0.7480314960629921,"duration":0.33749999999997726},{"name":"B1","midi":35,"time":372,"velocity":0.7480314960629921,"duration":0.33749999999997726},{"name":"D#3","midi":51,"time":372,"velocity":0.7480314960629921,"duration":0.33749999999997726},{"name":"G2","midi":43,"time":372,"velocity":0.7480314960629921,"duration":0.33749999999997726},{"name":"D#3","midi":51,"time":372.375,"velocity":0.7480314960629921,"duration":0.33749999999997726},{"name":"D#3","midi":51,"time":372.75,"velocity":0.7480314960629921,"duration":0.33749999999997726},{"name":"D2","midi":38,"time":372.75,"velocity":0.7480314960629921,"duration":0.33749999999997726},{"name":"D#3","midi":51,"time":373.125,"velocity":0.7480314960629921,"duration":0.33749999999997726},{"name":"D#3","midi":51,"time":373.5,"velocity":0.7480314960629921,"duration":0.33749999999997726},{"name":"B1","midi":35,"time":373.5,"velocity":0.7480314960629921,"duration":0.33749999999997726},{"name":"G2","midi":43,"time":373.5,"velocity":0.7480314960629921,"duration":0.33749999999997726},{"name":"D#3","midi":51,"time":373.875,"velocity":0.7480314960629921,"duration":0.33749999999997726},{"name":"G2","midi":43,"time":373.875,"velocity":0.7480314960629921,"duration":0.33749999999997726},{"name":"B1","midi":35,"time":373.875,"velocity":0.7480314960629921,"duration":0.33749999999997726},{"name":"D2","midi":38,"time":374.25,"velocity":0.7480314960629921,"duration":0.33749999999997726},{"name":"D#3","midi":51,"time":374.25,"velocity":0.7480314960629921,"duration":0.33749999999997726},{"name":"D#3","midi":51,"time":374.625,"velocity":0.7480314960629921,"duration":0.33749999999997726},{"name":"G2","midi":43,"time":375,"velocity":0.7480314960629921,"duration":0.33749999999997726},{"name":"D#3","midi":51,"time":375,"velocity":0.7480314960629921,"duration":0.33749999999997726},{"name":"B1","midi":35,"time":375,"velocity":0.7480314960629921,"duration":0.33749999999997726},{"name":"D#3","midi":51,"time":375.375,"velocity":0.7480314960629921,"duration":0.33749999999997726},{"name":"D#3","midi":51,"time":375.75,"velocity":0.7480314960629921,"duration":0.33749999999997726},{"name":"D2","midi":38,"time":375.75,"velocity":0.7480314960629921,"duration":0.33749999999997726},{"name":"D#3","midi":51,"time":376.125,"velocity":0.7480314960629921,"duration":0.33749999999997726},{"name":"D#3","midi":51,"time":376.5,"velocity":0.7480314960629921,"duration":0.33749999999997726},{"name":"G2","midi":43,"time":376.5,"velocity":0.7480314960629921,"duration":0.33749999999997726},{"name":"B1","midi":35,"time":376.5,"velocity":0.7480314960629921,"duration":0.33749999999997726},{"name":"B1","midi":35,"time":376.875,"velocity":0.7480314960629921,"duration":0.33749999999997726},{"name":"G2","midi":43,"time":376.875,"velocity":0.7480314960629921,"duration":0.33749999999997726},{"name":"D#3","midi":51,"time":376.875,"velocity":0.7480314960629921,"duration":0.33749999999997726},{"name":"D2","midi":38,"time":377.25,"velocity":0.7480314960629921,"duration":0.33749999999997726},{"name":"D#3","midi":51,"time":377.25,"velocity":0.7480314960629921,"duration":0.33749999999997726},{"name":"D#3","midi":51,"time":377.625,"velocity":0.7480314960629921,"duration":0.33749999999997726},{"name":"D#3","midi":51,"time":378,"velocity":0.7480314960629921,"duration":0.33749999999997726},{"name":"G2","midi":43,"time":378,"velocity":0.7480314960629921,"duration":0.33749999999997726},{"name":"B1","midi":35,"time":378,"velocity":0.7480314960629921,"duration":0.33749999999997726},{"name":"D#3","midi":51,"time":378.375,"velocity":0.7480314960629921,"duration":0.33749999999997726},{"name":"D#3","midi":51,"time":378.75,"velocity":0.7480314960629921,"duration":0.33749999999997726},{"name":"D2","midi":38,"time":378.75,"velocity":0.7480314960629921,"duration":0.33749999999997726},{"name":"D#3","midi":51,"time":379.125,"velocity":0.7480314960629921,"duration":0.33749999999997726},{"name":"B1","midi":35,"time":379.5,"velocity":0.7480314960629921,"duration":0.33749999999997726},{"name":"G2","midi":43,"time":379.5,"velocity":0.7480314960629921,"duration":0.33749999999997726},{"name":"D#3","midi":51,"time":379.5,"velocity":0.7480314960629921,"duration":0.33749999999997726},{"name":"D#3","midi":51,"time":379.875,"velocity":0.7480314960629921,"duration":0.33749999999997726},{"name":"G2","midi":43,"time":379.875,"velocity":0.7480314960629921,"duration":0.33749999999997726},{"name":"B1","midi":35,"time":379.875,"velocity":0.7480314960629921,"duration":0.33749999999997726},{"name":"D2","midi":38,"time":380.25,"velocity":0.7480314960629921,"duration":0.33749999999997726},{"name":"D#3","midi":51,"time":380.25,"velocity":0.7480314960629921,"duration":0.33749999999997726},{"name":"D#3","midi":51,"time":380.625,"velocity":0.7480314960629921,"duration":0.33749999999997726},{"name":"B1","midi":35,"time":381,"velocity":0.7480314960629921,"duration":0.33749999999997726},{"name":"D#3","midi":51,"time":381,"velocity":0.7480314960629921,"duration":0.33749999999997726},{"name":"G2","midi":43,"time":381,"velocity":0.7480314960629921,"duration":0.33749999999997726},{"name":"D#3","midi":51,"time":381.375,"velocity":0.7480314960629921,"duration":0.33749999999997726},{"name":"D2","midi":38,"time":381.75,"velocity":0.7480314960629921,"duration":0.33749999999997726},{"name":"D#3","midi":51,"time":381.75,"velocity":0.7480314960629921,"duration":0.33749999999997726},{"name":"D#3","midi":51,"time":382.125,"velocity":0.7480314960629921,"duration":0.33749999999997726},{"name":"D#3","midi":51,"time":382.5,"velocity":0.7480314960629921,"duration":0.33749999999997726},{"name":"G2","midi":43,"time":382.5,"velocity":0.7480314960629921,"duration":0.33749999999997726},{"name":"B1","midi":35,"time":382.5,"velocity":0.7480314960629921,"duration":0.33749999999997726},{"name":"D#3","midi":51,"time":382.875,"velocity":0.7480314960629921,"duration":0.33749999999997726},{"name":"G2","midi":43,"time":382.875,"velocity":0.7480314960629921,"duration":0.33749999999997726},{"name":"B1","midi":35,"time":382.875,"velocity":0.7480314960629921,"duration":0.33749999999997726},{"name":"D#3","midi":51,"time":383.25,"velocity":0.7480314960629921,"duration":0.33749999999997726},{"name":"D2","midi":38,"time":383.25,"velocity":0.7480314960629921,"duration":0.33749999999997726},{"name":"D#3","midi":51,"time":383.625,"velocity":0.7480314960629921,"duration":0.33749999999997726},{"name":"B1","midi":35,"time":384,"velocity":0.7480314960629921,"duration":0.33749999999997726},{"name":"G2","midi":43,"time":384,"velocity":0.7480314960629921,"duration":0.33749999999997726},{"name":"D#3","midi":51,"time":384,"velocity":0.7480314960629921,"duration":0.33749999999997726},{"name":"D#3","midi":51,"time":384.375,"velocity":0.7480314960629921,"duration":0.33749999999997726},{"name":"D2","midi":38,"time":384.75,"velocity":0.7480314960629921,"duration":0.33749999999997726},{"name":"D#3","midi":51,"time":384.75,"velocity":0.7480314960629921,"duration":0.33749999999997726},{"name":"D#3","midi":51,"time":385.125,"velocity":0.7480314960629921,"duration":0.33749999999997726},{"name":"D#3","midi":51,"time":385.5,"velocity":0.7480314960629921,"duration":0.33749999999997726},{"name":"G2","midi":43,"time":385.5,"velocity":0.7480314960629921,"duration":0.33749999999997726},{"name":"B1","midi":35,"time":385.5,"velocity":0.7480314960629921,"duration":0.33749999999997726},{"name":"B1","midi":35,"time":385.875,"velocity":0.7480314960629921,"duration":0.33749999999997726},{"name":"G2","midi":43,"time":385.875,"velocity":0.7480314960629921,"duration":0.33749999999997726},{"name":"D#3","midi":51,"time":385.875,"velocity":0.7480314960629921,"duration":0.33749999999997726},{"name":"D#3","midi":51,"time":386.25,"velocity":0.7480314960629921,"duration":0.33749999999997726},{"name":"D2","midi":38,"time":386.25,"velocity":0.7480314960629921,"duration":0.33749999999997726},{"name":"D#3","midi":51,"time":386.625,"velocity":0.7480314960629921,"duration":0.33749999999997726},{"name":"D#3","midi":51,"time":387,"velocity":0.7480314960629921,"duration":0.33749999999997726},{"name":"G2","midi":43,"time":387,"velocity":0.7480314960629921,"duration":0.33749999999997726},{"name":"B1","midi":35,"time":387,"velocity":0.7480314960629921,"duration":0.33749999999997726},{"name":"D#3","midi":51,"time":387.375,"velocity":0.7480314960629921,"duration":0.33749999999997726},{"name":"D#3","midi":51,"time":387.75,"velocity":0.7480314960629921,"duration":0.33749999999997726},{"name":"D2","midi":38,"time":387.75,"velocity":0.7480314960629921,"duration":0.33749999999997726},{"name":"D#3","midi":51,"time":388.125,"velocity":0.7480314960629921,"duration":0.33749999999997726},{"name":"B1","midi":35,"time":388.5,"velocity":0.7480314960629921,"duration":0.33749999999997726},{"name":"D#3","midi":51,"time":388.5,"velocity":0.7480314960629921,"duration":0.33749999999997726},{"name":"G2","midi":43,"time":388.5,"velocity":0.7480314960629921,"duration":0.33749999999997726},{"name":"G2","midi":43,"time":388.875,"velocity":0.7480314960629921,"duration":0.33749999999997726},{"name":"B1","midi":35,"time":388.875,"velocity":0.7480314960629921,"duration":0.33749999999997726},{"name":"D#3","midi":51,"time":388.875,"velocity":0.7480314960629921,"duration":0.33749999999997726},{"name":"D2","midi":38,"time":389.25,"velocity":0.7480314960629921,"duration":0.33749999999997726},{"name":"D#3","midi":51,"time":389.25,"velocity":0.7480314960629921,"duration":0.33749999999997726},{"name":"D#3","midi":51,"time":389.625,"velocity":0.7480314960629921,"duration":0.33749999999997726},{"name":"G2","midi":43,"time":390,"velocity":0.7480314960629921,"duration":0.33749999999997726},{"name":"B1","midi":35,"time":390,"velocity":0.7480314960629921,"duration":0.33749999999997726},{"name":"D#3","midi":51,"time":390,"velocity":0.7480314960629921,"duration":0.33749999999997726},{"name":"D#3","midi":51,"time":390.375,"velocity":0.7480314960629921,"duration":0.33749999999997726},{"name":"D#3","midi":51,"time":390.75,"velocity":0.7480314960629921,"duration":0.33749999999997726},{"name":"D2","midi":38,"time":390.75,"velocity":0.7480314960629921,"duration":0.33749999999997726},{"name":"D#3","midi":51,"time":391.125,"velocity":0.7480314960629921,"duration":0.33749999999997726},{"name":"B1","midi":35,"time":391.5,"velocity":0.7480314960629921,"duration":0.33749999999997726},{"name":"G2","midi":43,"time":391.5,"velocity":0.7480314960629921,"duration":0.33749999999997726},{"name":"D#3","midi":51,"time":391.5,"velocity":0.7480314960629921,"duration":0.33749999999997726},{"name":"B1","midi":35,"time":391.875,"velocity":0.7480314960629921,"duration":0.33749999999997726},{"name":"G2","midi":43,"time":391.875,"velocity":0.7480314960629921,"duration":0.33749999999997726},{"name":"D#3","midi":51,"time":391.875,"velocity":0.7480314960629921,"duration":0.33749999999997726},{"name":"D2","midi":38,"time":392.25,"velocity":0.7480314960629921,"duration":0.33749999999997726},{"name":"D#3","midi":51,"time":392.25,"velocity":0.7480314960629921,"duration":0.33749999999997726},{"name":"D#3","midi":51,"time":392.625,"velocity":0.7480314960629921,"duration":0.33749999999997726},{"name":"B1","midi":35,"time":393,"velocity":0.7480314960629921,"duration":0.33749999999997726},{"name":"G2","midi":43,"time":393,"velocity":0.7480314960629921,"duration":0.33749999999997726},{"name":"D#3","midi":51,"time":393,"velocity":0.7480314960629921,"duration":0.33749999999997726},{"name":"D#3","midi":51,"time":393.375,"velocity":0.7480314960629921,"duration":0.33749999999997726},{"name":"D#3","midi":51,"time":393.75,"velocity":0.7480314960629921,"duration":0.33749999999997726},{"name":"D2","midi":38,"time":393.75,"velocity":0.7480314960629921,"duration":0.33749999999997726},{"name":"D#3","midi":51,"time":394.125,"velocity":0.7480314960629921,"duration":0.33749999999997726},{"name":"D#3","midi":51,"time":394.5,"velocity":0.7480314960629921,"duration":0.33749999999997726},{"name":"G2","midi":43,"time":394.5,"velocity":0.7480314960629921,"duration":0.33749999999997726},{"name":"B1","midi":35,"time":394.5,"velocity":0.7480314960629921,"duration":0.33749999999997726},{"name":"G2","midi":43,"time":394.875,"velocity":0.7480314960629921,"duration":0.33749999999997726},{"name":"B1","midi":35,"time":394.875,"velocity":0.7480314960629921,"duration":0.33749999999997726},{"name":"D#3","midi":51,"time":394.875,"velocity":0.7480314960629921,"duration":0.33749999999997726},{"name":"D2","midi":38,"time":395.25,"velocity":0.7480314960629921,"duration":0.33749999999997726},{"name":"D#3","midi":51,"time":395.25,"velocity":0.7480314960629921,"duration":0.33749999999997726},{"name":"D#3","midi":51,"time":395.625,"velocity":0.7480314960629921,"duration":0.33749999999997726},{"name":"D#3","midi":51,"time":396,"velocity":0.7480314960629921,"duration":0.33749999999997726},{"name":"G2","midi":43,"time":396,"velocity":0.7480314960629921,"duration":0.33749999999997726},{"name":"B1","midi":35,"time":396,"velocity":0.7480314960629921,"duration":0.33749999999997726},{"name":"D#3","midi":51,"time":396.375,"velocity":0.7480314960629921,"duration":0.33749999999997726},{"name":"D#3","midi":51,"time":396.75,"velocity":0.7480314960629921,"duration":0.33749999999997726},{"name":"D2","midi":38,"time":396.75,"velocity":0.7480314960629921,"duration":0.33749999999997726},{"name":"D#3","midi":51,"time":397.125,"velocity":0.7480314960629921,"duration":0.33749999999997726},{"name":"B1","midi":35,"time":397.5,"velocity":0.7480314960629921,"duration":0.33749999999997726},{"name":"D#3","midi":51,"time":397.5,"velocity":0.7480314960629921,"duration":0.33749999999997726},{"name":"G2","midi":43,"time":397.5,"velocity":0.7480314960629921,"duration":0.33749999999997726},{"name":"D#3","midi":51,"time":397.875,"velocity":0.7480314960629921,"duration":0.33749999999997726},{"name":"G2","midi":43,"time":397.875,"velocity":0.7480314960629921,"duration":0.33749999999997726},{"name":"B1","midi":35,"time":397.875,"velocity":0.7480314960629921,"duration":0.33749999999997726},{"name":"D#3","midi":51,"time":398.25,"velocity":0.7480314960629921,"duration":0.33749999999997726},{"name":"D2","midi":38,"time":398.25,"velocity":0.7480314960629921,"duration":0.33749999999997726},{"name":"D#3","midi":51,"time":398.625,"velocity":0.7480314960629921,"duration":0.33749999999997726},{"name":"D#3","midi":51,"time":399,"velocity":0.7480314960629921,"duration":0.33749999999997726},{"name":"G2","midi":43,"time":399,"velocity":0.7480314960629921,"duration":0.33749999999997726},{"name":"B1","midi":35,"time":399,"velocity":0.7480314960629921,"duration":0.33749999999997726},{"name":"D#3","midi":51,"time":399.375,"velocity":0.7480314960629921,"duration":0.33749999999997726},{"name":"D2","midi":38,"time":399.75,"velocity":0.7480314960629921,"duration":0.33749999999997726},{"name":"D#3","midi":51,"time":399.75,"velocity":0.7480314960629921,"duration":0.33749999999997726},{"name":"D#3","midi":51,"time":400.125,"velocity":0.7480314960629921,"duration":0.33749999999997726},{"name":"B1","midi":35,"time":400.5,"velocity":0.7480314960629921,"duration":0.33749999999997726},{"name":"G2","midi":43,"time":400.5,"velocity":0.7480314960629921,"duration":0.33749999999997726},{"name":"D#3","midi":51,"time":400.5,"velocity":0.7480314960629921,"duration":0.33749999999997726},{"name":"D#3","midi":51,"time":400.875,"velocity":0.7480314960629921,"duration":0.33749999999997726},{"name":"G2","midi":43,"time":400.875,"velocity":0.7480314960629921,"duration":0.33749999999997726},{"name":"B1","midi":35,"time":400.875,"velocity":0.7480314960629921,"duration":0.33749999999997726},{"name":"D#3","midi":51,"time":401.25,"velocity":0.7480314960629921,"duration":0.33749999999997726},{"name":"D2","midi":38,"time":401.25,"velocity":0.7480314960629921,"duration":0.33749999999997726},{"name":"D#3","midi":51,"time":401.625,"velocity":0.7480314960629921,"duration":0.33749999999997726},{"name":"D#3","midi":51,"time":402,"velocity":0.7480314960629921,"duration":0.33749999999997726},{"name":"G2","midi":43,"time":402,"velocity":0.7480314960629921,"duration":0.33749999999997726},{"name":"B1","midi":35,"time":402,"velocity":0.7480314960629921,"duration":0.33749999999997726},{"name":"D#3","midi":51,"time":402.375,"velocity":0.7480314960629921,"duration":0.33749999999997726},{"name":"D2","midi":38,"time":402.75,"velocity":0.7480314960629921,"duration":0.33749999999997726},{"name":"D#3","midi":51,"time":402.75,"velocity":0.7480314960629921,"duration":0.33749999999997726},{"name":"D#3","midi":51,"time":403.125,"velocity":0.7480314960629921,"duration":0.33749999999997726},{"name":"D#3","midi":51,"time":403.5,"velocity":0.7480314960629921,"duration":0.33749999999997726},{"name":"G2","midi":43,"time":403.5,"velocity":0.7480314960629921,"duration":0.33749999999997726},{"name":"B1","midi":35,"time":403.5,"velocity":0.7480314960629921,"duration":0.33749999999997726},{"name":"G2","midi":43,"time":403.875,"velocity":0.7480314960629921,"duration":0.33749999999997726},{"name":"B1","midi":35,"time":403.875,"velocity":0.7480314960629921,"duration":0.33749999999997726},{"name":"D#3","midi":51,"time":403.875,"velocity":0.7480314960629921,"duration":0.33749999999997726},{"name":"D2","midi":38,"time":404.25,"velocity":0.7480314960629921,"duration":0.33749999999997726},{"name":"D#3","midi":51,"time":404.25,"velocity":0.7480314960629921,"duration":0.33749999999997726},{"name":"D#3","midi":51,"time":404.625,"velocity":0.7480314960629921,"duration":0.33749999999997726},{"name":"D#3","midi":51,"time":405,"velocity":0.7480314960629921,"duration":0.33749999999997726},{"name":"G2","midi":43,"time":405,"velocity":0.7480314960629921,"duration":0.33749999999997726},{"name":"B1","midi":35,"time":405,"velocity":0.7480314960629921,"duration":0.33749999999997726},{"name":"D#3","midi":51,"time":405.375,"velocity":0.7480314960629921,"duration":0.33749999999997726},{"name":"D2","midi":38,"time":405.75,"velocity":0.7480314960629921,"duration":0.33749999999997726},{"name":"D#3","midi":51,"time":405.75,"velocity":0.7480314960629921,"duration":0.33749999999997726},{"name":"D#3","midi":51,"time":406.125,"velocity":0.7480314960629921,"duration":0.33749999999997726},{"name":"G2","midi":43,"time":406.5,"velocity":0.7480314960629921,"duration":0.33749999999997726},{"name":"D#3","midi":51,"time":406.5,"velocity":0.7480314960629921,"duration":0.33749999999997726},{"name":"B1","midi":35,"time":406.5,"velocity":0.7480314960629921,"duration":0.33749999999997726},{"name":"B1","midi":35,"time":406.875,"velocity":0.7480314960629921,"duration":0.33749999999997726},{"name":"G2","midi":43,"time":406.875,"velocity":0.7480314960629921,"duration":0.33749999999997726},{"name":"D#3","midi":51,"time":406.875,"velocity":0.7480314960629921,"duration":0.33749999999997726},{"name":"D2","midi":38,"time":407.25,"velocity":0.7480314960629921,"duration":0.33749999999997726},{"name":"D#3","midi":51,"time":407.25,"velocity":0.7480314960629921,"duration":0.33749999999997726},{"name":"D#3","midi":51,"time":407.625,"velocity":0.7480314960629921,"duration":0.33749999999997726},{"name":"D#3","midi":51,"time":408,"velocity":0.7480314960629921,"duration":0.33749999999997726},{"name":"G2","midi":43,"time":408,"velocity":0.7480314960629921,"duration":0.33749999999997726},{"name":"B1","midi":35,"time":408,"velocity":0.7480314960629921,"duration":0.33749999999997726},{"name":"D#3","midi":51,"time":408.375,"velocity":0.7480314960629921,"duration":0.33749999999997726},{"name":"D2","midi":38,"time":408.75,"velocity":0.7480314960629921,"duration":0.33749999999997726},{"name":"D#3","midi":51,"time":408.75,"velocity":0.7480314960629921,"duration":0.33749999999997726},{"name":"D#3","midi":51,"time":409.125,"velocity":0.7480314960629921,"duration":0.33749999999997726},{"name":"D#3","midi":51,"time":409.5,"velocity":0.7480314960629921,"duration":0.33749999999997726},{"name":"G2","midi":43,"time":409.5,"velocity":0.7480314960629921,"duration":0.33749999999997726},{"name":"B1","midi":35,"time":409.5,"velocity":0.7480314960629921,"duration":0.33749999999997726},{"name":"B1","midi":35,"time":409.875,"velocity":0.7480314960629921,"duration":0.33749999999997726},{"name":"D#3","midi":51,"time":409.875,"velocity":0.7480314960629921,"duration":0.33749999999997726},{"name":"G2","midi":43,"time":409.875,"velocity":0.7480314960629921,"duration":0.33749999999997726},{"name":"D#3","midi":51,"time":410.25,"velocity":0.7480314960629921,"duration":0.33749999999997726},{"name":"D2","midi":38,"time":410.25,"velocity":0.7480314960629921,"duration":0.33749999999997726},{"name":"D#3","midi":51,"time":410.625,"velocity":0.7480314960629921,"duration":0.33749999999997726},{"name":"B1","midi":35,"time":411,"velocity":0.7480314960629921,"duration":0.33749999999997726},{"name":"D#3","midi":51,"time":411,"velocity":0.7480314960629921,"duration":0.33749999999997726},{"name":"G2","midi":43,"time":411,"velocity":0.7480314960629921,"duration":0.33749999999997726},{"name":"D#3","midi":51,"time":411.375,"velocity":0.7480314960629921,"duration":0.33749999999997726},{"name":"D#3","midi":51,"time":411.75,"velocity":0.7480314960629921,"duration":0.33749999999997726},{"name":"D2","midi":38,"time":411.75,"velocity":0.7480314960629921,"duration":0.33749999999997726},{"name":"D#3","midi":51,"time":412.125,"velocity":0.7480314960629921,"duration":0.33749999999997726},{"name":"D#3","midi":51,"time":412.5,"velocity":0.7480314960629921,"duration":0.33749999999997726},{"name":"B1","midi":35,"time":412.5,"velocity":0.7480314960629921,"duration":0.33749999999997726},{"name":"G2","midi":43,"time":412.5,"velocity":0.7480314960629921,"duration":0.33749999999997726},{"name":"G2","midi":43,"time":412.875,"velocity":0.7480314960629921,"duration":0.33749999999997726},{"name":"B1","midi":35,"time":412.875,"velocity":0.7480314960629921,"duration":0.33749999999997726},{"name":"D#3","midi":51,"time":412.875,"velocity":0.7480314960629921,"duration":0.33749999999997726},{"name":"D#3","midi":51,"time":413.25,"velocity":0.7480314960629921,"duration":0.33749999999997726},{"name":"D2","midi":38,"time":413.25,"velocity":0.7480314960629921,"duration":0.33749999999997726},{"name":"D#3","midi":51,"time":413.625,"velocity":0.7480314960629921,"duration":0.33749999999997726},{"name":"B1","midi":35,"time":414,"velocity":0.7480314960629921,"duration":0.33749999999997726},{"name":"G2","midi":43,"time":414,"velocity":0.7480314960629921,"duration":0.33749999999997726},{"name":"D#3","midi":51,"time":414,"velocity":0.7480314960629921,"duration":0.33749999999997726},{"name":"D#3","midi":51,"time":414.375,"velocity":0.7480314960629921,"duration":0.33749999999997726},{"name":"D2","midi":38,"time":414.75,"velocity":0.7480314960629921,"duration":0.33749999999997726},{"name":"D#3","midi":51,"time":414.75,"velocity":0.7480314960629921,"duration":0.33749999999997726},{"name":"D#3","midi":51,"time":415.125,"velocity":0.7480314960629921,"duration":0.33749999999997726},{"name":"B1","midi":35,"time":415.5,"velocity":0.7480314960629921,"duration":0.33749999999997726},{"name":"G2","midi":43,"time":415.5,"velocity":0.7480314960629921,"duration":0.33749999999997726},{"name":"D#3","midi":51,"time":415.5,"velocity":0.7480314960629921,"duration":0.33749999999997726},{"name":"B1","midi":35,"time":415.875,"velocity":0.7480314960629921,"duration":0.33749999999997726},{"name":"G2","midi":43,"time":415.875,"velocity":0.7480314960629921,"duration":0.33749999999997726},{"name":"D#3","midi":51,"time":415.875,"velocity":0.7480314960629921,"duration":0.33749999999997726},{"name":"D2","midi":38,"time":416.25,"velocity":0.7480314960629921,"duration":0.33749999999997726},{"name":"D#3","midi":51,"time":416.25,"velocity":0.7480314960629921,"duration":0.33749999999997726},{"name":"D#3","midi":51,"time":416.625,"velocity":0.7480314960629921,"duration":0.33749999999997726},{"name":"G2","midi":43,"time":417,"velocity":0.7480314960629921,"duration":0.33749999999997726},{"name":"D#3","midi":51,"time":417,"velocity":0.7480314960629921,"duration":0.33749999999997726},{"name":"B1","midi":35,"time":417,"velocity":0.7480314960629921,"duration":0.33749999999997726},{"name":"D#3","midi":51,"time":417.375,"velocity":0.7480314960629921,"duration":0.33749999999997726},{"name":"D#3","midi":51,"time":417.75,"velocity":0.7480314960629921,"duration":0.33749999999997726},{"name":"D2","midi":38,"time":417.75,"velocity":0.7480314960629921,"duration":0.33749999999997726},{"name":"D#3","midi":51,"time":418.125,"velocity":0.7480314960629921,"duration":0.33749999999997726},{"name":"D#3","midi":51,"time":418.5,"velocity":0.7480314960629921,"duration":0.33749999999997726},{"name":"B1","midi":35,"time":418.5,"velocity":0.7480314960629921,"duration":0.33749999999997726},{"name":"G2","midi":43,"time":418.5,"velocity":0.7480314960629921,"duration":0.33749999999997726},{"name":"B1","midi":35,"time":418.875,"velocity":0.7480314960629921,"duration":0.33749999999997726},{"name":"D#3","midi":51,"time":418.875,"velocity":0.7480314960629921,"duration":0.33749999999997726},{"name":"G2","midi":43,"time":418.875,"velocity":0.7480314960629921,"duration":0.33749999999997726},{"name":"D#3","midi":51,"time":419.25,"velocity":0.7480314960629921,"duration":0.33749999999997726},{"name":"D2","midi":38,"time":419.25,"velocity":0.7480314960629921,"duration":0.33749999999997726},{"name":"D#3","midi":51,"time":419.625,"velocity":0.7480314960629921,"duration":0.33749999999997726},{"name":"B1","midi":35,"time":420,"velocity":0.7480314960629921,"duration":0.33749999999997726},{"name":"G2","midi":43,"time":420,"velocity":0.7480314960629921,"duration":0.33749999999997726},{"name":"D#3","midi":51,"time":420,"velocity":0.7480314960629921,"duration":0.33749999999997726},{"name":"D#3","midi":51,"time":420.375,"velocity":0.7480314960629921,"duration":0.33749999999997726},{"name":"D#3","midi":51,"time":420.75,"velocity":0.7480314960629921,"duration":0.33749999999997726},{"name":"D2","midi":38,"time":420.75,"velocity":0.7480314960629921,"duration":0.33749999999997726},{"name":"D#3","midi":51,"time":421.125,"velocity":0.7480314960629921,"duration":0.33749999999997726},{"name":"B1","midi":35,"time":421.5,"velocity":0.7480314960629921,"duration":0.33749999999997726},{"name":"G2","midi":43,"time":421.5,"velocity":0.7480314960629921,"duration":0.33749999999997726},{"name":"D#3","midi":51,"time":421.5,"velocity":0.7480314960629921,"duration":0.33749999999997726},{"name":"B1","midi":35,"time":421.875,"velocity":0.7480314960629921,"duration":0.33749999999997726},{"name":"G2","midi":43,"time":421.875,"velocity":0.7480314960629921,"duration":0.33749999999997726},{"name":"D#3","midi":51,"time":421.875,"velocity":0.7480314960629921,"duration":0.33749999999997726},{"name":"D2","midi":38,"time":422.25,"velocity":0.7480314960629921,"duration":0.33749999999997726},{"name":"D#3","midi":51,"time":422.25,"velocity":0.7480314960629921,"duration":0.33749999999997726},{"name":"D#3","midi":51,"time":422.625,"velocity":0.7480314960629921,"duration":0.33749999999997726},{"name":"B1","midi":35,"time":423,"velocity":0.7480314960629921,"duration":0.33749999999997726},{"name":"G2","midi":43,"time":423,"velocity":0.7480314960629921,"duration":0.33749999999997726},{"name":"D#3","midi":51,"time":423,"velocity":0.7480314960629921,"duration":0.33749999999997726},{"name":"D#3","midi":51,"time":423.375,"velocity":0.7480314960629921,"duration":0.33749999999997726},{"name":"D#3","midi":51,"time":423.75,"velocity":0.7480314960629921,"duration":0.33749999999997726},{"name":"D2","midi":38,"time":423.75,"velocity":0.7480314960629921,"duration":0.33749999999997726},{"name":"D#3","midi":51,"time":424.125,"velocity":0.7480314960629921,"duration":0.33749999999997726},{"name":"D#3","midi":51,"time":424.5,"velocity":0.7480314960629921,"duration":0.33749999999997726},{"name":"G2","midi":43,"time":424.5,"velocity":0.7480314960629921,"duration":0.33749999999997726},{"name":"B1","midi":35,"time":424.5,"velocity":0.7480314960629921,"duration":0.33749999999997726},{"name":"D#3","midi":51,"time":424.875,"velocity":0.7480314960629921,"duration":0.33749999999997726},{"name":"G2","midi":43,"time":424.875,"velocity":0.7480314960629921,"duration":0.33749999999997726},{"name":"B1","midi":35,"time":424.875,"velocity":0.7480314960629921,"duration":0.33749999999997726},{"name":"D2","midi":38,"time":425.25,"velocity":0.7480314960629921,"duration":0.33749999999997726},{"name":"D#3","midi":51,"time":425.25,"velocity":0.7480314960629921,"duration":0.33749999999997726},{"name":"D#3","midi":51,"time":425.625,"velocity":0.7480314960629921,"duration":0.33749999999997726},{"name":"D#3","midi":51,"time":426,"velocity":0.7480314960629921,"duration":0.33749999999997726},{"name":"B1","midi":35,"time":426,"velocity":0.7480314960629921,"duration":0.33749999999997726},{"name":"G2","midi":43,"time":426,"velocity":0.7480314960629921,"duration":0.33749999999997726},{"name":"D#3","midi":51,"time":426.375,"velocity":0.7480314960629921,"duration":0.33749999999997726},{"name":"D2","midi":38,"time":426.75,"velocity":0.7480314960629921,"duration":0.33749999999997726},{"name":"D#3","midi":51,"time":426.75,"velocity":0.7480314960629921,"duration":0.33749999999997726},{"name":"D#3","midi":51,"time":427.125,"velocity":0.7480314960629921,"duration":0.33749999999997726},{"name":"B1","midi":35,"time":427.5,"velocity":0.7480314960629921,"duration":0.33749999999997726},{"name":"G2","midi":43,"time":427.5,"velocity":0.7480314960629921,"duration":0.33749999999997726},{"name":"D#3","midi":51,"time":427.5,"velocity":0.7480314960629921,"duration":0.33749999999997726},{"name":"D#3","midi":51,"time":427.875,"velocity":0.7480314960629921,"duration":0.33749999999997726},{"name":"B1","midi":35,"time":427.875,"velocity":0.7480314960629921,"duration":0.33749999999997726},{"name":"G2","midi":43,"time":427.875,"velocity":0.7480314960629921,"duration":0.33749999999997726},{"name":"D2","midi":38,"time":428.25,"velocity":0.7480314960629921,"duration":0.33749999999997726},{"name":"D#3","midi":51,"time":428.25,"velocity":0.7480314960629921,"duration":0.33749999999997726},{"name":"D#3","midi":51,"time":428.625,"velocity":0.7480314960629921,"duration":0.33749999999997726},{"name":"G2","midi":43,"time":429,"velocity":0.7480314960629921,"duration":0.33749999999997726},{"name":"D#3","midi":51,"time":429,"velocity":0.7480314960629921,"duration":0.33749999999997726},{"name":"B1","midi":35,"time":429,"velocity":0.7480314960629921,"duration":0.33749999999997726},{"name":"D#3","midi":51,"time":429.375,"velocity":0.7480314960629921,"duration":0.33749999999997726},{"name":"D#3","midi":51,"time":429.75,"velocity":0.7480314960629921,"duration":0.33749999999997726},{"name":"D2","midi":38,"time":429.75,"velocity":0.7480314960629921,"duration":0.33749999999997726},{"name":"D#3","midi":51,"time":430.125,"velocity":0.7480314960629921,"duration":0.33749999999997726},{"name":"B1","midi":35,"time":430.5,"velocity":0.7480314960629921,"duration":0.33749999999997726},{"name":"G2","midi":43,"time":430.5,"velocity":0.7480314960629921,"duration":0.33749999999997726},{"name":"D#3","midi":51,"time":430.5,"velocity":0.7480314960629921,"duration":0.33749999999997726},{"name":"G2","midi":43,"time":430.875,"velocity":0.7480314960629921,"duration":0.33749999999997726},{"name":"D#3","midi":51,"time":430.875,"velocity":0.7480314960629921,"duration":0.33749999999997726},{"name":"B1","midi":35,"time":430.875,"velocity":0.7480314960629921,"duration":0.33749999999997726},{"name":"D2","midi":38,"time":431.25,"velocity":0.7480314960629921,"duration":0.33749999999997726},{"name":"D#3","midi":51,"time":431.25,"velocity":0.7480314960629921,"duration":0.33749999999997726},{"name":"D#3","midi":51,"time":431.625,"velocity":0.7480314960629921,"duration":0.33749999999997726},{"name":"D#3","midi":51,"time":432,"velocity":0.7480314960629921,"duration":0.33749999999997726},{"name":"G2","midi":43,"time":432,"velocity":0.7480314960629921,"duration":0.33749999999997726},{"name":"B1","midi":35,"time":432,"velocity":0.7480314960629921,"duration":0.33749999999997726},{"name":"D#3","midi":51,"time":432.375,"velocity":0.7480314960629921,"duration":0.33749999999997726},{"name":"D#3","midi":51,"time":432.75,"velocity":0.7480314960629921,"duration":0.33749999999997726},{"name":"D2","midi":38,"time":432.75,"velocity":0.7480314960629921,"duration":0.33749999999997726},{"name":"D#3","midi":51,"time":433.125,"velocity":0.7480314960629921,"duration":0.33749999999997726},{"name":"D#3","midi":51,"time":433.5,"velocity":0.7480314960629921,"duration":0.33749999999997726},{"name":"G2","midi":43,"time":433.5,"velocity":0.7480314960629921,"duration":0.33749999999997726},{"name":"B1","midi":35,"time":433.5,"velocity":0.7480314960629921,"duration":0.33749999999997726},{"name":"D#3","midi":51,"time":433.875,"velocity":0.7480314960629921,"duration":0.33749999999997726},{"name":"B1","midi":35,"time":433.875,"velocity":0.7480314960629921,"duration":0.33749999999997726},{"name":"G2","midi":43,"time":433.875,"velocity":0.7480314960629921,"duration":0.33749999999997726},{"name":"D2","midi":38,"time":434.25,"velocity":0.7480314960629921,"duration":0.33749999999997726},{"name":"D#3","midi":51,"time":434.25,"velocity":0.7480314960629921,"duration":0.33749999999997726},{"name":"D#3","midi":51,"time":434.625,"velocity":0.7480314960629921,"duration":0.33749999999997726},{"name":"B1","midi":35,"time":435,"velocity":0.7480314960629921,"duration":0.33749999999997726},{"name":"D#3","midi":51,"time":435,"velocity":0.7480314960629921,"duration":0.33749999999997726},{"name":"G2","midi":43,"time":435,"velocity":0.7480314960629921,"duration":0.33749999999997726},{"name":"D#3","midi":51,"time":435.375,"velocity":0.7480314960629921,"duration":0.33749999999997726},{"name":"D#3","midi":51,"time":435.75,"velocity":0.7480314960629921,"duration":0.33749999999997726},{"name":"D2","midi":38,"time":435.75,"velocity":0.7480314960629921,"duration":0.33749999999997726},{"name":"D#3","midi":51,"time":436.125,"velocity":0.7480314960629921,"duration":0.33749999999997726},{"name":"B1","midi":35,"time":436.5,"velocity":0.7480314960629921,"duration":0.33749999999997726},{"name":"D#3","midi":51,"time":436.5,"velocity":0.7480314960629921,"duration":0.33749999999997726},{"name":"G2","midi":43,"time":436.5,"velocity":0.7480314960629921,"duration":0.33749999999997726},{"name":"G2","midi":43,"time":436.875,"velocity":0.7480314960629921,"duration":0.33749999999997726},{"name":"D#3","midi":51,"time":436.875,"velocity":0.7480314960629921,"duration":0.33749999999997726},{"name":"B1","midi":35,"time":436.875,"velocity":0.7480314960629921,"duration":0.33749999999997726},{"name":"D#3","midi":51,"time":437.25,"velocity":0.7480314960629921,"duration":0.33749999999997726},{"name":"D2","midi":38,"time":437.25,"velocity":0.7480314960629921,"duration":0.33749999999997726},{"name":"D#3","midi":51,"time":437.625,"velocity":0.7480314960629921,"duration":0.33749999999997726},{"name":"B1","midi":35,"time":438,"velocity":0.7480314960629921,"duration":0.33749999999997726},{"name":"D#3","midi":51,"time":438,"velocity":0.7480314960629921,"duration":0.33749999999997726},{"name":"G2","midi":43,"time":438,"velocity":0.7480314960629921,"duration":0.33749999999997726},{"name":"D#3","midi":51,"time":438.375,"velocity":0.7480314960629921,"duration":0.33749999999997726},{"name":"D#3","midi":51,"time":438.75,"velocity":0.7480314960629921,"duration":0.33749999999997726},{"name":"D2","midi":38,"time":438.75,"velocity":0.7480314960629921,"duration":0.33749999999997726},{"name":"D#3","midi":51,"time":439.125,"velocity":0.7480314960629921,"duration":0.33749999999997726},{"name":"B1","midi":35,"time":439.5,"velocity":0.7480314960629921,"duration":0.33749999999997726},{"name":"G2","midi":43,"time":439.5,"velocity":0.7480314960629921,"duration":0.33749999999997726},{"name":"D#3","midi":51,"time":439.5,"velocity":0.7480314960629921,"duration":0.33749999999997726},{"name":"D#3","midi":51,"time":439.875,"velocity":0.7480314960629921,"duration":0.33749999999997726},{"name":"G2","midi":43,"time":439.875,"velocity":0.7480314960629921,"duration":0.33749999999997726},{"name":"B1","midi":35,"time":439.875,"velocity":0.7480314960629921,"duration":0.33749999999997726},{"name":"D#3","midi":51,"time":440.25,"velocity":0.7480314960629921,"duration":0.33749999999997726},{"name":"D2","midi":38,"time":440.25,"velocity":0.7480314960629921,"duration":0.33749999999997726},{"name":"D#3","midi":51,"time":440.625,"velocity":0.7480314960629921,"duration":0.33749999999997726},{"name":"D#3","midi":51,"time":441,"velocity":0.7480314960629921,"duration":0.33749999999997726},{"name":"B1","midi":35,"time":441,"velocity":0.7480314960629921,"duration":0.33749999999997726},{"name":"G2","midi":43,"time":441,"velocity":0.7480314960629921,"duration":0.33749999999997726},{"name":"D#3","midi":51,"time":441.375,"velocity":0.7480314960629921,"duration":0.33749999999997726},{"name":"D2","midi":38,"time":441.75,"velocity":0.7480314960629921,"duration":0.33749999999997726},{"name":"D#3","midi":51,"time":441.75,"velocity":0.7480314960629921,"duration":0.33749999999997726},{"name":"D#3","midi":51,"time":442.125,"velocity":0.7480314960629921,"duration":0.33749999999997726},{"name":"D#3","midi":51,"time":442.5,"velocity":0.7480314960629921,"duration":0.33749999999997726},{"name":"G2","midi":43,"time":442.5,"velocity":0.7480314960629921,"duration":0.33749999999997726},{"name":"B1","midi":35,"time":442.5,"velocity":0.7480314960629921,"duration":0.33749999999997726},{"name":"B1","midi":35,"time":442.875,"velocity":0.7480314960629921,"duration":0.33749999999997726},{"name":"G2","midi":43,"time":442.875,"velocity":0.7480314960629921,"duration":0.33749999999997726},{"name":"D#3","midi":51,"time":442.875,"velocity":0.7480314960629921,"duration":0.33749999999997726},{"name":"D#3","midi":51,"time":443.25,"velocity":0.7480314960629921,"duration":0.33749999999997726},{"name":"D2","midi":38,"time":443.25,"velocity":0.7480314960629921,"duration":0.33749999999997726},{"name":"D#3","midi":51,"time":443.625,"velocity":0.7480314960629921,"duration":0.33749999999997726},{"name":"G2","midi":43,"time":444,"velocity":0.7480314960629921,"duration":0.33749999999997726},{"name":"D#3","midi":51,"time":444,"velocity":0.7480314960629921,"duration":0.33749999999997726},{"name":"B1","midi":35,"time":444,"velocity":0.7480314960629921,"duration":0.33749999999997726},{"name":"D#3","midi":51,"time":444.375,"velocity":0.7480314960629921,"duration":0.33749999999997726},{"name":"D2","midi":38,"time":444.75,"velocity":0.7480314960629921,"duration":0.33749999999997726},{"name":"D#3","midi":51,"time":444.75,"velocity":0.7480314960629921,"duration":0.33749999999997726},{"name":"D#3","midi":51,"time":445.125,"velocity":0.7480314960629921,"duration":0.33749999999997726},{"name":"D#3","midi":51,"time":445.5,"velocity":0.7480314960629921,"duration":0.33749999999997726},{"name":"G2","midi":43,"time":445.5,"velocity":0.7480314960629921,"duration":0.33749999999997726},{"name":"B1","midi":35,"time":445.5,"velocity":0.7480314960629921,"duration":0.33749999999997726},{"name":"G2","midi":43,"time":445.875,"velocity":0.7480314960629921,"duration":0.33749999999997726},{"name":"B1","midi":35,"time":445.875,"velocity":0.7480314960629921,"duration":0.33749999999997726},{"name":"D#3","midi":51,"time":445.875,"velocity":0.7480314960629921,"duration":0.33749999999997726},{"name":"D2","midi":38,"time":446.25,"velocity":0.7480314960629921,"duration":0.33749999999997726},{"name":"D#3","midi":51,"time":446.25,"velocity":0.7480314960629921,"duration":0.33749999999997726},{"name":"D#3","midi":51,"time":446.625,"velocity":0.7480314960629921,"duration":0.33749999999997726},{"name":"D#3","midi":51,"time":447,"velocity":0.7480314960629921,"duration":0.33749999999997726},{"name":"G2","midi":43,"time":447,"velocity":0.7480314960629921,"duration":0.33749999999997726},{"name":"B1","midi":35,"time":447,"velocity":0.7480314960629921,"duration":0.33749999999997726},{"name":"D#3","midi":51,"time":447.375,"velocity":0.7480314960629921,"duration":0.33749999999997726},{"name":"D#3","midi":51,"time":447.75,"velocity":0.7480314960629921,"duration":0.33749999999997726},{"name":"D2","midi":38,"time":447.75,"velocity":0.7480314960629921,"duration":0.33749999999997726},{"name":"D#3","midi":51,"time":448.125,"velocity":0.7480314960629921,"duration":0.33749999999997726},{"name":"B1","midi":35,"time":448.5,"velocity":0.7480314960629921,"duration":0.33749999999997726},{"name":"D#3","midi":51,"time":448.5,"velocity":0.7480314960629921,"duration":0.33749999999997726},{"name":"G2","midi":43,"time":448.5,"velocity":0.7480314960629921,"duration":0.33749999999997726},{"name":"D#3","midi":51,"time":448.875,"velocity":0.7480314960629921,"duration":0.33749999999997726},{"name":"B1","midi":35,"time":448.875,"velocity":0.7480314960629921,"duration":0.33749999999997726},{"name":"G2","midi":43,"time":448.875,"velocity":0.7480314960629921,"duration":0.33749999999997726},{"name":"D2","midi":38,"time":449.25,"velocity":0.7480314960629921,"duration":0.33749999999997726},{"name":"D#3","midi":51,"time":449.25,"velocity":0.7480314960629921,"duration":0.33749999999997726},{"name":"D#3","midi":51,"time":449.625,"velocity":0.7480314960629921,"duration":0.33749999999997726},{"name":"D#3","midi":51,"time":450,"velocity":0.7480314960629921,"duration":0.33749999999997726},{"name":"B1","midi":35,"time":450,"velocity":0.7480314960629921,"duration":0.33749999999997726},{"name":"G2","midi":43,"time":450,"velocity":0.7480314960629921,"duration":0.33749999999997726},{"name":"D#3","midi":51,"time":450.375,"velocity":0.7480314960629921,"duration":0.33749999999997726},{"name":"D2","midi":38,"time":450.75,"velocity":0.7480314960629921,"duration":0.33749999999997726},{"name":"D#3","midi":51,"time":450.75,"velocity":0.7480314960629921,"duration":0.33749999999997726},{"name":"D#3","midi":51,"time":451.125,"velocity":0.7480314960629921,"duration":0.33749999999997726},{"name":"B1","midi":35,"time":451.5,"velocity":0.7480314960629921,"duration":0.33749999999997726},{"name":"G2","midi":43,"time":451.5,"velocity":0.7480314960629921,"duration":0.33749999999997726},{"name":"D#3","midi":51,"time":451.5,"velocity":0.7480314960629921,"duration":0.33749999999997726},{"name":"G2","midi":43,"time":451.875,"velocity":0.7480314960629921,"duration":0.33749999999997726},{"name":"D#3","midi":51,"time":451.875,"velocity":0.7480314960629921,"duration":0.33749999999997726},{"name":"B1","midi":35,"time":451.875,"velocity":0.7480314960629921,"duration":0.33749999999997726},{"name":"D#3","midi":51,"time":452.25,"velocity":0.7480314960629921,"duration":0.33749999999997726},{"name":"D2","midi":38,"time":452.25,"velocity":0.7480314960629921,"duration":0.33749999999997726},{"name":"D#3","midi":51,"time":452.625,"velocity":0.7480314960629921,"duration":0.33749999999997726},{"name":"B1","midi":35,"time":453,"velocity":0.7480314960629921,"duration":0.33749999999997726},{"name":"G2","midi":43,"time":453,"velocity":0.7480314960629921,"duration":0.33749999999997726},{"name":"D#3","midi":51,"time":453,"velocity":0.7480314960629921,"duration":0.33749999999997726},{"name":"D#3","midi":51,"time":453.375,"velocity":0.7480314960629921,"duration":0.33749999999997726},{"name":"D#3","midi":51,"time":453.75,"velocity":0.7480314960629921,"duration":0.33749999999997726},{"name":"D2","midi":38,"time":453.75,"velocity":0.7480314960629921,"duration":0.33749999999997726},{"name":"D#3","midi":51,"time":454.125,"velocity":0.7480314960629921,"duration":0.33749999999997726},{"name":"D#3","midi":51,"time":454.5,"velocity":0.7480314960629921,"duration":0.33749999999997726},{"name":"B1","midi":35,"time":454.5,"velocity":0.7480314960629921,"duration":0.33749999999997726},{"name":"G2","midi":43,"time":454.5,"velocity":0.7480314960629921,"duration":0.33749999999997726},{"name":"B1","midi":35,"time":454.875,"velocity":0.7480314960629921,"duration":0.33749999999997726},{"name":"G2","midi":43,"time":454.875,"velocity":0.7480314960629921,"duration":0.33749999999997726},{"name":"D#3","midi":51,"time":454.875,"velocity":0.7480314960629921,"duration":0.33749999999997726},{"name":"D2","midi":38,"time":455.25,"velocity":0.7480314960629921,"duration":0.33749999999997726},{"name":"D#3","midi":51,"time":455.25,"velocity":0.7480314960629921,"duration":0.33749999999997726},{"name":"D#3","midi":51,"time":455.625,"velocity":0.7480314960629921,"duration":0.33749999999997726},{"name":"G2","midi":43,"time":456,"velocity":0.7480314960629921,"duration":0.33749999999997726},{"name":"B1","midi":35,"time":456,"velocity":0.7480314960629921,"duration":0.33749999999997726},{"name":"D#3","midi":51,"time":456,"velocity":0.7480314960629921,"duration":0.33749999999997726},{"name":"D#3","midi":51,"time":456.375,"velocity":0.7480314960629921,"duration":0.33749999999997726},{"name":"D2","midi":38,"time":456.75,"velocity":0.7480314960629921,"duration":0.33749999999997726},{"name":"D#3","midi":51,"time":456.75,"velocity":0.7480314960629921,"duration":0.33749999999997726},{"name":"D#3","midi":51,"time":457.125,"velocity":0.7480314960629921,"duration":0.33749999999997726},{"name":"D#3","midi":51,"time":457.5,"velocity":0.7480314960629921,"duration":0.33749999999997726},{"name":"G2","midi":43,"time":457.5,"velocity":0.7480314960629921,"duration":0.33749999999997726},{"name":"B1","midi":35,"time":457.5,"velocity":0.7480314960629921,"duration":0.33749999999997726},{"name":"B1","midi":35,"time":457.875,"velocity":0.7480314960629921,"duration":0.33749999999997726},{"name":"G2","midi":43,"time":457.875,"velocity":0.7480314960629921,"duration":0.33749999999997726},{"name":"D#3","midi":51,"time":457.875,"velocity":0.7480314960629921,"duration":0.33749999999997726},{"name":"D2","midi":38,"time":458.25,"velocity":0.7480314960629921,"duration":0.33749999999997726},{"name":"D#3","midi":51,"time":458.25,"velocity":0.7480314960629921,"duration":0.33749999999997726},{"name":"D#3","midi":51,"time":458.625,"velocity":0.7480314960629921,"duration":0.33749999999997726},{"name":"B1","midi":35,"time":459,"velocity":0.7480314960629921,"duration":0.33749999999997726},{"name":"G2","midi":43,"time":459,"velocity":0.7480314960629921,"duration":0.33749999999997726},{"name":"D#3","midi":51,"time":459,"velocity":0.7480314960629921,"duration":0.33749999999997726},{"name":"D#3","midi":51,"time":459.375,"velocity":0.7480314960629921,"duration":0.33749999999997726},{"name":"D#3","midi":51,"time":459.75,"velocity":0.7480314960629921,"duration":0.33749999999997726},{"name":"D2","midi":38,"time":459.75,"velocity":0.7480314960629921,"duration":0.33749999999997726},{"name":"D#3","midi":51,"time":460.125,"velocity":0.7480314960629921,"duration":0.33749999999997726},{"name":"G2","midi":43,"time":460.5,"velocity":0.7480314960629921,"duration":0.33749999999997726},{"name":"B1","midi":35,"time":460.5,"velocity":0.7480314960629921,"duration":0.33749999999997726},{"name":"D#3","midi":51,"time":460.5,"velocity":0.7480314960629921,"duration":0.33749999999997726},{"name":"B1","midi":35,"time":460.875,"velocity":0.7480314960629921,"duration":0.33749999999997726},{"name":"D#3","midi":51,"time":460.875,"velocity":0.7480314960629921,"duration":0.33749999999997726},{"name":"G2","midi":43,"time":460.875,"velocity":0.7480314960629921,"duration":0.33749999999997726},{"name":"D#3","midi":51,"time":461.25,"velocity":0.7480314960629921,"duration":0.33749999999997726},{"name":"D2","midi":38,"time":461.25,"velocity":0.7480314960629921,"duration":0.33749999999997726},{"name":"D#3","midi":51,"time":461.625,"velocity":0.7480314960629921,"duration":0.33749999999997726},{"name":"D#3","midi":51,"time":462,"velocity":0.7480314960629921,"duration":0.33749999999997726},{"name":"B1","midi":35,"time":462,"velocity":0.7480314960629921,"duration":0.33749999999997726},{"name":"G2","midi":43,"time":462,"velocity":0.7480314960629921,"duration":0.33749999999997726},{"name":"D#3","midi":51,"time":462.375,"velocity":0.7480314960629921,"duration":0.33749999999997726},{"name":"D2","midi":38,"time":462.75,"velocity":0.7480314960629921,"duration":0.33749999999997726},{"name":"D#3","midi":51,"time":462.75,"velocity":0.7480314960629921,"duration":0.33749999999997726},{"name":"D#3","midi":51,"time":463.125,"velocity":0.7480314960629921,"duration":0.33749999999997726},{"name":"D#3","midi":51,"time":463.5,"velocity":0.7480314960629921,"duration":0.33749999999997726},{"name":"B1","midi":35,"time":463.5,"velocity":0.7480314960629921,"duration":0.33749999999997726},{"name":"G2","midi":43,"time":463.5,"velocity":0.7480314960629921,"duration":0.33749999999997726},{"name":"G2","midi":43,"time":463.875,"velocity":0.7480314960629921,"duration":0.33749999999997726},{"name":"B1","midi":35,"time":463.875,"velocity":0.7480314960629921,"duration":0.33749999999997726},{"name":"D#3","midi":51,"time":463.875,"velocity":0.7480314960629921,"duration":0.33749999999997726},{"name":"D#3","midi":51,"time":464.25,"velocity":0.7480314960629921,"duration":0.33749999999997726},{"name":"D2","midi":38,"time":464.25,"velocity":0.7480314960629921,"duration":0.33749999999997726},{"name":"D#3","midi":51,"time":464.625,"velocity":0.7480314960629921,"duration":0.33749999999997726},{"name":"D#3","midi":51,"time":465,"velocity":0.7480314960629921,"duration":0.33749999999997726},{"name":"B1","midi":35,"time":465,"velocity":0.7480314960629921,"duration":0.33749999999997726},{"name":"G2","midi":43,"time":465,"velocity":0.7480314960629921,"duration":0.33749999999997726},{"name":"D#3","midi":51,"time":465.375,"velocity":0.7480314960629921,"duration":0.33749999999997726},{"name":"D2","midi":38,"time":465.75,"velocity":0.7480314960629921,"duration":0.33749999999997726},{"name":"D#3","midi":51,"time":465.75,"velocity":0.7480314960629921,"duration":0.33749999999997726},{"name":"D#3","midi":51,"time":466.125,"velocity":0.7480314960629921,"duration":0.33749999999997726},{"name":"D#3","midi":51,"time":466.5,"velocity":0.7480314960629921,"duration":0.33749999999997726},{"name":"G2","midi":43,"time":466.5,"velocity":0.7480314960629921,"duration":0.33749999999997726},{"name":"B1","midi":35,"time":466.5,"velocity":0.7480314960629921,"duration":0.33749999999997726},{"name":"D#3","midi":51,"time":466.875,"velocity":0.7480314960629921,"duration":0.33749999999997726},{"name":"G2","midi":43,"time":466.875,"velocity":0.7480314960629921,"duration":0.33749999999997726},{"name":"B1","midi":35,"time":466.875,"velocity":0.7480314960629921,"duration":0.33749999999997726},{"name":"D2","midi":38,"time":467.25,"velocity":0.7480314960629921,"duration":0.33749999999997726},{"name":"D#3","midi":51,"time":467.25,"velocity":0.7480314960629921,"duration":0.33749999999997726},{"name":"D#3","midi":51,"time":467.625,"velocity":0.7480314960629921,"duration":0.33749999999997726},{"name":"B1","midi":35,"time":468,"velocity":0.7480314960629921,"duration":0.33749999999997726},{"name":"G2","midi":43,"time":468,"velocity":0.7480314960629921,"duration":0.33749999999997726},{"name":"D#3","midi":51,"time":468,"velocity":0.7480314960629921,"duration":0.33749999999997726},{"name":"D#3","midi":51,"time":468.375,"velocity":0.7480314960629921,"duration":0.33749999999997726},{"name":"D2","midi":38,"time":468.75,"velocity":0.7480314960629921,"duration":0.33749999999997726},{"name":"D#3","midi":51,"time":468.75,"velocity":0.7480314960629921,"duration":0.33749999999997726},{"name":"D#3","midi":51,"time":469.125,"velocity":0.7480314960629921,"duration":0.33749999999997726},{"name":"B1","midi":35,"time":469.5,"velocity":0.7480314960629921,"duration":0.33749999999997726},{"name":"G2","midi":43,"time":469.5,"velocity":0.7480314960629921,"duration":0.33749999999997726},{"name":"D#3","midi":51,"time":469.5,"velocity":0.7480314960629921,"duration":0.33749999999997726},{"name":"B1","midi":35,"time":469.875,"velocity":0.7480314960629921,"duration":0.33749999999997726},{"name":"G2","midi":43,"time":469.875,"velocity":0.7480314960629921,"duration":0.33749999999997726},{"name":"D#3","midi":51,"time":469.875,"velocity":0.7480314960629921,"duration":0.33749999999997726},{"name":"D#3","midi":51,"time":470.25,"velocity":0.7480314960629921,"duration":0.33749999999997726},{"name":"D2","midi":38,"time":470.25,"velocity":0.7480314960629921,"duration":0.33749999999997726},{"name":"D#3","midi":51,"time":470.625,"velocity":0.7480314960629921,"duration":0.33749999999997726},{"name":"B1","midi":35,"time":471,"velocity":0.7480314960629921,"duration":0.33749999999997726},{"name":"G2","midi":43,"time":471,"velocity":0.7480314960629921,"duration":0.33749999999997726},{"name":"D#3","midi":51,"time":471,"velocity":0.7480314960629921,"duration":0.33749999999997726},{"name":"D#3","midi":51,"time":471.375,"velocity":0.7480314960629921,"duration":0.33749999999997726},{"name":"D2","midi":38,"time":471.75,"velocity":0.7480314960629921,"duration":0.33749999999997726},{"name":"D#3","midi":51,"time":471.75,"velocity":0.7480314960629921,"duration":0.33749999999997726},{"name":"D#3","midi":51,"time":472.125,"velocity":0.7480314960629921,"duration":0.33749999999997726},{"name":"G2","midi":43,"time":472.5,"velocity":0.7480314960629921,"duration":0.33749999999997726},{"name":"B1","midi":35,"time":472.5,"velocity":0.7480314960629921,"duration":0.33749999999997726},{"name":"D#3","midi":51,"time":472.5,"velocity":0.7480314960629921,"duration":0.33749999999997726},{"name":"D#3","midi":51,"time":472.875,"velocity":0.7480314960629921,"duration":0.33749999999997726},{"name":"B1","midi":35,"time":472.875,"velocity":0.7480314960629921,"duration":0.33749999999997726},{"name":"G2","midi":43,"time":472.875,"velocity":0.7480314960629921,"duration":0.33749999999997726},{"name":"D#3","midi":51,"time":473.25,"velocity":0.7480314960629921,"duration":0.33749999999997726},{"name":"D2","midi":38,"time":473.25,"velocity":0.7480314960629921,"duration":0.33749999999997726},{"name":"D#3","midi":51,"time":473.625,"velocity":0.7480314960629921,"duration":0.33749999999997726},{"name":"B1","midi":35,"time":474,"velocity":0.7480314960629921,"duration":0.33749999999997726},{"name":"G2","midi":43,"time":474,"velocity":0.7480314960629921,"duration":0.33749999999997726},{"name":"D#3","midi":51,"time":474,"velocity":0.7480314960629921,"duration":0.33749999999997726},{"name":"D#3","midi":51,"time":474.375,"velocity":0.7480314960629921,"duration":0.33749999999997726},{"name":"D#3","midi":51,"time":474.75,"velocity":0.7480314960629921,"duration":0.33749999999997726},{"name":"D2","midi":38,"time":474.75,"velocity":0.7480314960629921,"duration":0.33749999999997726},{"name":"D#3","midi":51,"time":475.125,"velocity":0.7480314960629921,"duration":0.33749999999997726},{"name":"D#3","midi":51,"time":475.5,"velocity":0.7480314960629921,"duration":0.33749999999997726},{"name":"B1","midi":35,"time":475.5,"velocity":0.7480314960629921,"duration":0.33749999999997726},{"name":"G2","midi":43,"time":475.5,"velocity":0.7480314960629921,"duration":0.33749999999997726},{"name":"D#3","midi":51,"time":475.875,"velocity":0.7480314960629921,"duration":0.33749999999997726},{"name":"B1","midi":35,"time":475.875,"velocity":0.7480314960629921,"duration":0.33749999999997726},{"name":"G2","midi":43,"time":475.875,"velocity":0.7480314960629921,"duration":0.33749999999997726},{"name":"D2","midi":38,"time":476.25,"velocity":0.7480314960629921,"duration":0.33749999999997726},{"name":"D#3","midi":51,"time":476.25,"velocity":0.7480314960629921,"duration":0.33749999999997726},{"name":"D#3","midi":51,"time":476.625,"velocity":0.7480314960629921,"duration":0.33749999999997726},{"name":"D#3","midi":51,"time":477,"velocity":0.7480314960629921,"duration":0.33749999999997726},{"name":"B1","midi":35,"time":477,"velocity":0.7480314960629921,"duration":0.33749999999997726},{"name":"G2","midi":43,"time":477,"velocity":0.7480314960629921,"duration":0.33749999999997726},{"name":"D#3","midi":51,"time":477.375,"velocity":0.7480314960629921,"duration":0.33749999999997726},{"name":"D#3","midi":51,"time":477.75,"velocity":0.7480314960629921,"duration":0.33749999999997726},{"name":"D2","midi":38,"time":477.75,"velocity":0.7480314960629921,"duration":0.33749999999997726},{"name":"D#3","midi":51,"time":478.125,"velocity":0.7480314960629921,"duration":0.33749999999997726},{"name":"D#3","midi":51,"time":478.5,"velocity":0.7480314960629921,"duration":0.33749999999997726},{"name":"B1","midi":35,"time":478.5,"velocity":0.7480314960629921,"duration":0.33749999999997726},{"name":"G2","midi":43,"time":478.5,"velocity":0.7480314960629921,"duration":0.33749999999997726},{"name":"D#3","midi":51,"time":478.875,"velocity":0.7480314960629921,"duration":0.33749999999997726},{"name":"G2","midi":43,"time":478.875,"velocity":0.7480314960629921,"duration":0.33749999999997726},{"name":"B1","midi":35,"time":478.875,"velocity":0.7480314960629921,"duration":0.33749999999997726},{"name":"D2","midi":38,"time":479.25,"velocity":0.7480314960629921,"duration":0.33749999999997726},{"name":"D#3","midi":51,"time":479.25,"velocity":0.7480314960629921,"duration":0.33749999999997726},{"name":"D#3","midi":51,"time":479.625,"velocity":0.7480314960629921,"duration":0.33749999999997726},{"name":"B1","midi":35,"time":480,"velocity":0.7480314960629921,"duration":0.33749999999997726},{"name":"D#3","midi":51,"time":480,"velocity":0.7480314960629921,"duration":0.33749999999997726},{"name":"G2","midi":43,"time":480,"velocity":0.7480314960629921,"duration":0.33749999999997726},{"name":"D#3","midi":51,"time":480.375,"velocity":0.7480314960629921,"duration":0.33749999999997726},{"name":"D#3","midi":51,"time":480.75,"velocity":0.7480314960629921,"duration":0.33749999999997726},{"name":"D2","midi":38,"time":480.75,"velocity":0.7480314960629921,"duration":0.33749999999997726},{"name":"D#3","midi":51,"time":481.125,"velocity":0.7480314960629921,"duration":0.33749999999997726},{"name":"B1","midi":35,"time":481.5,"velocity":0.7480314960629921,"duration":0.33749999999997726},{"name":"G2","midi":43,"time":481.5,"velocity":0.7480314960629921,"duration":0.33749999999997726},{"name":"D#3","midi":51,"time":481.5,"velocity":0.7480314960629921,"duration":0.33749999999997726},{"name":"B1","midi":35,"time":481.875,"velocity":0.7480314960629921,"duration":0.33749999999997726},{"name":"G2","midi":43,"time":481.875,"velocity":0.7480314960629921,"duration":0.33749999999997726},{"name":"D#3","midi":51,"time":481.875,"velocity":0.7480314960629921,"duration":0.33749999999997726},{"name":"D2","midi":38,"time":482.25,"velocity":0.7480314960629921,"duration":0.33749999999997726},{"name":"D#3","midi":51,"time":482.25,"velocity":0.7480314960629921,"duration":0.33749999999997726},{"name":"D#3","midi":51,"time":482.625,"velocity":0.7480314960629921,"duration":0.33749999999997726},{"name":"B1","midi":35,"time":483,"velocity":0.7480314960629921,"duration":0.33749999999997726},{"name":"D#3","midi":51,"time":483,"velocity":0.7480314960629921,"duration":0.33749999999997726},{"name":"G2","midi":43,"time":483,"velocity":0.7480314960629921,"duration":0.33749999999997726},{"name":"D#3","midi":51,"time":483.375,"velocity":0.7480314960629921,"duration":0.33749999999997726},{"name":"D#3","midi":51,"time":483.75,"velocity":0.7480314960629921,"duration":0.33749999999997726},{"name":"D2","midi":38,"time":483.75,"velocity":0.7480314960629921,"duration":0.33749999999997726},{"name":"D#3","midi":51,"time":484.125,"velocity":0.7480314960629921,"duration":0.33749999999997726},{"name":"B1","midi":35,"time":484.5,"velocity":0.7480314960629921,"duration":0.33749999999997726},{"name":"G2","midi":43,"time":484.5,"velocity":0.7480314960629921,"duration":0.33749999999997726},{"name":"D#3","midi":51,"time":484.5,"velocity":0.7480314960629921,"duration":0.33749999999997726},{"name":"D#3","midi":51,"time":484.875,"velocity":0.7480314960629921,"duration":0.33749999999997726},{"name":"G2","midi":43,"time":484.875,"velocity":0.7480314960629921,"duration":0.33749999999997726},{"name":"B1","midi":35,"time":484.875,"velocity":0.7480314960629921,"duration":0.33749999999997726},{"name":"D2","midi":38,"time":485.25,"velocity":0.7480314960629921,"duration":0.33749999999997726},{"name":"D#3","midi":51,"time":485.25,"velocity":0.7480314960629921,"duration":0.33749999999997726},{"name":"D#3","midi":51,"time":485.625,"velocity":0.7480314960629921,"duration":0.33749999999997726},{"name":"G2","midi":43,"time":486,"velocity":0.7480314960629921,"duration":0.33749999999997726},{"name":"D#3","midi":51,"time":486,"velocity":0.7480314960629921,"duration":0.33749999999997726},{"name":"B1","midi":35,"time":486,"velocity":0.7480314960629921,"duration":0.33749999999997726},{"name":"D#3","midi":51,"time":486.375,"velocity":0.7480314960629921,"duration":0.33749999999997726},{"name":"D2","midi":38,"time":486.75,"velocity":0.7480314960629921,"duration":0.33749999999997726},{"name":"D#3","midi":51,"time":486.75,"velocity":0.7480314960629921,"duration":0.33749999999997726},{"name":"D#3","midi":51,"time":487.125,"velocity":0.7480314960629921,"duration":0.33749999999997726},{"name":"D#3","midi":51,"time":487.5,"velocity":0.7480314960629921,"duration":0.33749999999997726},{"name":"G2","midi":43,"time":487.5,"velocity":0.7480314960629921,"duration":0.33749999999997726},{"name":"B1","midi":35,"time":487.5,"velocity":0.7480314960629921,"duration":0.33749999999997726},{"name":"D#3","midi":51,"time":487.875,"velocity":0.7480314960629921,"duration":0.33749999999997726},{"name":"B1","midi":35,"time":487.875,"velocity":0.7480314960629921,"duration":0.33749999999997726},{"name":"G2","midi":43,"time":487.875,"velocity":0.7480314960629921,"duration":0.33749999999997726},{"name":"D2","midi":38,"time":488.25,"velocity":0.7480314960629921,"duration":0.33749999999997726},{"name":"D#3","midi":51,"time":488.25,"velocity":0.7480314960629921,"duration":0.33749999999997726},{"name":"D#3","midi":51,"time":488.625,"velocity":0.7480314960629921,"duration":0.33749999999997726},{"name":"D#3","midi":51,"time":489,"velocity":0.7480314960629921,"duration":0.33749999999997726},{"name":"G2","midi":43,"time":489,"velocity":0.7480314960629921,"duration":0.33749999999997726},{"name":"B1","midi":35,"time":489,"velocity":0.7480314960629921,"duration":0.33749999999997726},{"name":"D#3","midi":51,"time":489.375,"velocity":0.7480314960629921,"duration":0.33749999999997726},{"name":"D2","midi":38,"time":489.75,"velocity":0.7480314960629921,"duration":0.33749999999997726},{"name":"D#3","midi":51,"time":489.75,"velocity":0.7480314960629921,"duration":0.33749999999997726},{"name":"D#3","midi":51,"time":490.125,"velocity":0.7480314960629921,"duration":0.33749999999997726},{"name":"D#3","midi":51,"time":490.5,"velocity":0.7480314960629921,"duration":0.33749999999997726},{"name":"G2","midi":43,"time":490.5,"velocity":0.7480314960629921,"duration":0.33749999999997726},{"name":"B1","midi":35,"time":490.5,"velocity":0.7480314960629921,"duration":0.33749999999997726},{"name":"G2","midi":43,"time":490.875,"velocity":0.7480314960629921,"duration":0.33749999999997726},{"name":"D#3","midi":51,"time":490.875,"velocity":0.7480314960629921,"duration":0.33749999999997726},{"name":"B1","midi":35,"time":490.875,"velocity":0.7480314960629921,"duration":0.33749999999997726},{"name":"D#3","midi":51,"time":491.25,"velocity":0.7480314960629921,"duration":0.33749999999997726},{"name":"D2","midi":38,"time":491.25,"velocity":0.7480314960629921,"duration":0.33749999999997726},{"name":"D#3","midi":51,"time":491.625,"velocity":0.7480314960629921,"duration":0.33749999999997726},{"name":"B1","midi":35,"time":492,"velocity":0.7480314960629921,"duration":0.33749999999997726},{"name":"G2","midi":43,"time":492,"velocity":0.7480314960629921,"duration":0.33749999999997726},{"name":"D#3","midi":51,"time":492,"velocity":0.7480314960629921,"duration":0.33749999999997726},{"name":"D#3","midi":51,"time":492.375,"velocity":0.7480314960629921,"duration":0.33749999999997726},{"name":"D#3","midi":51,"time":492.75,"velocity":0.7480314960629921,"duration":0.33749999999997726},{"name":"D2","midi":38,"time":492.75,"velocity":0.7480314960629921,"duration":0.33749999999997726},{"name":"D#3","midi":51,"time":493.125,"velocity":0.7480314960629921,"duration":0.33749999999997726},{"name":"D#3","midi":51,"time":493.5,"velocity":0.7480314960629921,"duration":0.33749999999997726},{"name":"G2","midi":43,"time":493.5,"velocity":0.7480314960629921,"duration":0.33749999999997726},{"name":"B1","midi":35,"time":493.5,"velocity":0.7480314960629921,"duration":0.33749999999997726},{"name":"B1","midi":35,"time":493.875,"velocity":0.7480314960629921,"duration":0.33749999999997726},{"name":"G2","midi":43,"time":493.875,"velocity":0.7480314960629921,"duration":0.33749999999997726},{"name":"D#3","midi":51,"time":493.875,"velocity":0.7480314960629921,"duration":0.33749999999997726},{"name":"D2","midi":38,"time":494.25,"velocity":0.7480314960629921,"duration":0.33749999999997726},{"name":"D#3","midi":51,"time":494.25,"velocity":0.7480314960629921,"duration":0.33749999999997726},{"name":"D#3","midi":51,"time":494.625,"velocity":0.7480314960629921,"duration":0.33749999999997726},{"name":"D#3","midi":51,"time":495,"velocity":0.7480314960629921,"duration":0.33749999999997726},{"name":"G2","midi":43,"time":495,"velocity":0.7480314960629921,"duration":0.33749999999997726},{"name":"B1","midi":35,"time":495,"velocity":0.7480314960629921,"duration":0.33749999999997726},{"name":"D#3","midi":51,"time":495.375,"velocity":0.7480314960629921,"duration":0.33749999999997726},{"name":"D#3","midi":51,"time":495.75,"velocity":0.7480314960629921,"duration":0.33749999999997726},{"name":"D2","midi":38,"time":495.75,"velocity":0.7480314960629921,"duration":0.33749999999997726},{"name":"D#3","midi":51,"time":496.125,"velocity":0.7480314960629921,"duration":0.33749999999997726},{"name":"D#3","midi":51,"time":496.5,"velocity":0.7480314960629921,"duration":0.33749999999997726},{"name":"G2","midi":43,"time":496.5,"velocity":0.7480314960629921,"duration":0.33749999999997726},{"name":"B1","midi":35,"time":496.5,"velocity":0.7480314960629921,"duration":0.33749999999997726},{"name":"B1","midi":35,"time":496.875,"velocity":0.7480314960629921,"duration":0.33749999999997726},{"name":"G2","midi":43,"time":496.875,"velocity":0.7480314960629921,"duration":0.33749999999997726},{"name":"D#3","midi":51,"time":496.875,"velocity":0.7480314960629921,"duration":0.33749999999997726},{"name":"D#3","midi":51,"time":497.25,"velocity":0.7480314960629921,"duration":0.33749999999997726},{"name":"D2","midi":38,"time":497.25,"velocity":0.7480314960629921,"duration":0.33749999999997726},{"name":"D#3","midi":51,"time":497.625,"velocity":0.7480314960629921,"duration":0.33749999999997726},{"name":"D#3","midi":51,"time":498,"velocity":0.7480314960629921,"duration":0.33749999999997726},{"name":"G2","midi":43,"time":498,"velocity":0.7480314960629921,"duration":0.33749999999997726},{"name":"B1","midi":35,"time":498,"velocity":0.7480314960629921,"duration":0.33749999999997726},{"name":"D#3","midi":51,"time":498.375,"velocity":0.7480314960629921,"duration":0.33749999999997726},{"name":"D2","midi":38,"time":498.75,"velocity":0.7480314960629921,"duration":0.33749999999997726},{"name":"D#3","midi":51,"time":498.75,"velocity":0.7480314960629921,"duration":0.33749999999997726},{"name":"D#3","midi":51,"time":499.125,"velocity":0.7480314960629921,"duration":0.33749999999997726},{"name":"D#3","midi":51,"time":499.5,"velocity":0.7480314960629921,"duration":0.33749999999997726},{"name":"G2","midi":43,"time":499.5,"velocity":0.7480314960629921,"duration":0.33749999999997726},{"name":"B1","midi":35,"time":499.5,"velocity":0.7480314960629921,"duration":0.33749999999997726},{"name":"B1","midi":35,"time":499.875,"velocity":0.7480314960629921,"duration":0.33749999999997726},{"name":"D#3","midi":51,"time":499.875,"velocity":0.7480314960629921,"duration":0.33749999999997726},{"name":"G2","midi":43,"time":499.875,"velocity":0.7480314960629921,"duration":0.33749999999997726},{"name":"D#3","midi":51,"time":500.25,"velocity":0.7480314960629921,"duration":0.33749999999997726},{"name":"D2","midi":38,"time":500.25,"velocity":0.7480314960629921,"duration":0.33749999999997726},{"name":"D#3","midi":51,"time":500.625,"velocity":0.7480314960629921,"duration":0.33749999999997726},{"name":"D2","midi":38,"time":502.5,"velocity":0.7480314960629921,"duration":0.08437500000002274},{"name":"G2","midi":43,"time":502.5,"velocity":0.7480314960629921,"duration":0.08437500000002274},{"name":"B1","midi":35,"time":502.5,"velocity":0.7480314960629921,"duration":0.08437500000002274},{"name":"D#3","midi":51,"time":502.5,"velocity":0.7480314960629921,"duration":0.08437500000002274},{"name":"D#3","midi":51,"time":502.59375,"velocity":0.7480314960629921,"duration":0.08437500000002274},{"name":"D#3","midi":51,"time":502.6875,"velocity":0.7480314960629921,"duration":0.08437500000002274},{"name":"D#3","midi":51,"time":502.78125,"velocity":0.7480314960629921,"duration":0.08437500000002274},{"name":"D#3","midi":51,"time":502.875,"velocity":0.7480314960629921,"duration":0.08437500000002274},{"name":"D#3","midi":51,"time":502.96875,"velocity":0.7480314960629921,"duration":0.08437500000002274},{"name":"D#3","midi":51,"time":503.0625,"velocity":0.7480314960629921,"duration":0.08437500000002274},{"name":"D#3","midi":51,"time":503.15625,"velocity":0.7480314960629921,"duration":0.08437500000002274},{"name":"D#3","midi":51,"time":503.25,"velocity":0.7480314960629921,"duration":0.08437500000002274},{"name":"D#3","midi":51,"time":503.34375,"velocity":0.7480314960629921,"duration":0.08437500000002274},{"name":"D#3","midi":51,"time":503.4375,"velocity":0.7480314960629921,"duration":0.08437500000002274},{"name":"D#3","midi":51,"time":503.53125,"velocity":0.7480314960629921,"duration":0.08437500000002274},{"name":"D#3","midi":51,"time":503.625,"velocity":0.7480314960629921,"duration":0.08437500000002274},{"name":"D#3","midi":51,"time":503.71875,"velocity":0.7480314960629921,"duration":0.08437500000002274},{"name":"D#3","midi":51,"time":503.8125,"velocity":0.7480314960629921,"duration":0.08437500000002274},{"name":"D#3","midi":51,"time":503.90625,"velocity":0.7480314960629921,"duration":0.08437500000002274},{"name":"D#3","midi":51,"time":504,"velocity":0.7480314960629921,"duration":0.08437500000002274},{"name":"D#3","midi":51,"time":504.09375,"velocity":0.7480314960629921,"duration":0.08437500000002274},{"name":"D#3","midi":51,"time":504.1875,"velocity":0.7480314960629921,"duration":0.08437500000002274},{"name":"D#3","midi":51,"time":504.28125,"velocity":0.7480314960629921,"duration":0.08437500000002274},{"name":"D#3","midi":51,"time":504.375,"velocity":0.7480314960629921,"duration":0.08437500000002274},{"name":"D#3","midi":51,"time":504.46875,"velocity":0.7480314960629921,"duration":0.08437500000002274},{"name":"D#3","midi":51,"time":504.5625,"velocity":0.7480314960629921,"duration":0.08437500000002274},{"name":"D#3","midi":51,"time":504.65625,"velocity":0.7480314960629921,"duration":0.08437500000002274},{"name":"D#3","midi":51,"time":504.75,"velocity":0.7480314960629921,"duration":0.08437500000002274},{"name":"D#3","midi":51,"time":504.84375,"velocity":0.7480314960629921,"duration":0.08437500000002274},{"name":"D#3","midi":51,"time":504.9375,"velocity":0.7480314960629921,"duration":0.08437500000002274},{"name":"D#3","midi":51,"time":505.03125,"velocity":0.7480314960629921,"duration":0.08437500000002274},{"name":"D#3","midi":51,"time":505.125,"velocity":0.7480314960629921,"duration":0.08437500000002274},{"name":"D#3","midi":51,"time":505.21875,"velocity":0.7480314960629921,"duration":0.08437500000002274},{"name":"D#3","midi":51,"time":505.3125,"velocity":0.7480314960629921,"duration":0.08437500000002274},{"name":"D#3","midi":51,"time":505.40625,"velocity":0.7480314960629921,"duration":0.08437500000002274},{"name":"D#3","midi":51,"time":505.5,"velocity":0.7480314960629921,"duration":0.08437500000002274},{"name":"D#3","midi":51,"time":505.59375,"velocity":0.7480314960629921,"duration":0.08437500000002274},{"name":"D#3","midi":51,"time":505.6875,"velocity":0.7480314960629921,"duration":0.08437500000002274},{"name":"D#3","midi":51,"time":505.78125,"velocity":0.7480314960629921,"duration":0.08437500000002274},{"name":"D#3","midi":51,"time":505.875,"velocity":0.7480314960629921,"duration":0.08437500000002274},{"name":"D#3","midi":51,"time":505.96875,"velocity":0.7480314960629921,"duration":0.08437500000002274},{"name":"D#3","midi":51,"time":506.0625,"velocity":0.7480314960629921,"duration":0.08437500000002274},{"name":"D#3","midi":51,"time":506.15625,"velocity":0.7480314960629921,"duration":0.08437500000002274},{"name":"D#3","midi":51,"time":506.25,"velocity":0.7480314960629921,"duration":0.08437500000002274},{"name":"D#3","midi":51,"time":506.34375,"velocity":0.7480314960629921,"duration":0.08437500000002274},{"name":"D#3","midi":51,"time":506.4375,"velocity":0.7480314960629921,"duration":0.08437500000002274},{"name":"D#3","midi":51,"time":506.53125,"velocity":0.7480314960629921,"duration":0.08437500000002274},{"name":"D#3","midi":51,"time":506.625,"velocity":0.7480314960629921,"duration":0.08437500000002274},{"name":"D#3","midi":51,"time":506.71875,"velocity":0.7480314960629921,"duration":0.08437500000002274},{"name":"D#3","midi":51,"time":506.8125,"velocity":0.7480314960629921,"duration":0.08437500000002274},{"name":"D#3","midi":51,"time":506.90625,"velocity":0.7480314960629921,"duration":0.08437500000002274},{"name":"D#3","midi":51,"time":507,"velocity":0.7480314960629921,"duration":0.08437500000002274},{"name":"D#3","midi":51,"time":507.09375,"velocity":0.7480314960629921,"duration":0.08437500000002274},{"name":"D#3","midi":51,"time":507.1875,"velocity":0.7480314960629921,"duration":0.08437500000002274},{"name":"D#3","midi":51,"time":507.28125,"velocity":0.7480314960629921,"duration":0.08437500000002274},{"name":"D#3","midi":51,"time":507.375,"velocity":0.7480314960629921,"duration":0.08437500000002274},{"name":"D#3","midi":51,"time":507.46875,"velocity":0.7480314960629921,"duration":0.08437500000002274},{"name":"D#3","midi":51,"time":507.5625,"velocity":0.7480314960629921,"duration":0.08437500000002274},{"name":"D#3","midi":51,"time":507.65625,"velocity":0.7480314960629921,"duration":0.08437500000002274},{"name":"D#3","midi":51,"time":507.75,"velocity":0.7480314960629921,"duration":0.08437500000002274},{"name":"D#3","midi":51,"time":507.84375,"velocity":0.7480314960629921,"duration":0.08437500000002274},{"name":"D#3","midi":51,"time":507.9375,"velocity":0.7480314960629921,"duration":0.08437500000002274},{"name":"D#3","midi":51,"time":508.03125,"velocity":0.7480314960629921,"duration":0.08437500000002274},{"name":"D#3","midi":51,"time":508.125,"velocity":0.7480314960629921,"duration":0.08437500000002274},{"name":"D#3","midi":51,"time":508.21875,"velocity":0.7480314960629921,"duration":0.08437500000002274},{"name":"D#3","midi":51,"time":508.3125,"velocity":0.7480314960629921,"duration":0.08437500000002274},{"name":"D#3","midi":51,"time":508.40625,"velocity":0.7480314960629921,"duration":0.08437500000002274},{"name":"B1","midi":35,"time":508.5,"velocity":0.7480314960629921,"duration":0.6750000000000114},{"name":"G2","midi":43,"time":508.5,"velocity":0.7480314960629921,"duration":0.6750000000000114},{"name":"D2","midi":38,"time":508.5,"velocity":0.7480314960629921,"duration":0.6750000000000114},{"name":"D#3","midi":51,"time":508.5,"velocity":0.7480314960629921,"duration":0.6750000000000114}]},{"instrumentFamily":"piano","notes":[{"name":"C#6","midi":85,"time":405,"velocity":0.7480314960629921,"duration":0.6750000000000114},{"name":"C#6","midi":85,"time":405.75,"velocity":0.7480314960629921,"duration":0.33749999999997726},{"name":"B5","midi":83,"time":406.125,"velocity":0.7480314960629921,"duration":0.33749999999997726},{"name":"C#6","midi":85,"time":406.5,"velocity":0.7480314960629921,"duration":0.6750000000000114},{"name":"C#6","midi":85,"time":407.25,"velocity":0.7480314960629921,"duration":0.33749999999997726},{"name":"B5","midi":83,"time":407.625,"velocity":0.7480314960629921,"duration":0.33749999999997726},{"name":"C#6","midi":85,"time":408,"velocity":0.7480314960629921,"duration":0.33749999999997726},{"name":"B5","midi":83,"time":408.375,"velocity":0.7480314960629921,"duration":0.33749999999997726},{"name":"C#6","midi":85,"time":408.75,"velocity":0.7480314960629921,"duration":0.6750000000000114},{"name":"C#6","midi":85,"time":409.5,"velocity":0.7480314960629921,"duration":0.33749999999997726},{"name":"B5","midi":83,"time":409.875,"velocity":0.7480314960629921,"duration":0.33749999999997726},{"name":"C#6","midi":85,"time":410.25,"velocity":0.7480314960629921,"duration":0.33749999999997726},{"name":"B5","midi":83,"time":410.625,"velocity":0.7480314960629921,"duration":0.33749999999997726},{"name":"C#6","midi":85,"time":411,"velocity":0.7480314960629921,"duration":0.6750000000000114},{"name":"C#6","midi":85,"time":411.75,"velocity":0.7480314960629921,"duration":0.33749999999997726},{"name":"B5","midi":83,"time":412.125,"velocity":0.7480314960629921,"duration":0.33749999999997726},{"name":"C#6","midi":85,"time":412.5,"velocity":0.7480314960629921,"duration":0.6750000000000114},{"name":"C#6","midi":85,"time":413.25,"velocity":0.7480314960629921,"duration":0.33749999999997726},{"name":"B5","midi":83,"time":413.625,"velocity":0.7480314960629921,"duration":0.33749999999997726},{"name":"C#6","midi":85,"time":414,"velocity":0.7480314960629921,"duration":0.33749999999997726},{"name":"B5","midi":83,"time":414.375,"velocity":0.7480314960629921,"duration":0.33749999999997726},{"name":"C#6","midi":85,"time":414.75,"velocity":0.7480314960629921,"duration":0.6750000000000114},{"name":"C#6","midi":85,"time":415.5,"velocity":0.7480314960629921,"duration":0.33749999999997726},{"name":"B5","midi":83,"time":415.875,"velocity":0.7480314960629921,"duration":0.33749999999997726},{"name":"C#6","midi":85,"time":416.25,"velocity":0.7480314960629921,"duration":0.33749999999997726},{"name":"B5","midi":83,"time":416.625,"velocity":0.7480314960629921,"duration":0.33749999999997726},{"name":"A5","midi":81,"time":417,"velocity":0.7480314960629921,"duration":0.6750000000000114},{"name":"A5","midi":81,"time":417.75,"velocity":0.7480314960629921,"duration":0.33749999999997726},{"name":"B5","midi":83,"time":418.125,"velocity":0.7480314960629921,"duration":0.33749999999997726},{"name":"A5","midi":81,"time":418.5,"velocity":0.7480314960629921,"duration":0.6750000000000114},{"name":"G#5","midi":80,"time":419.25,"velocity":0.7480314960629921,"duration":0.33749999999997726},{"name":"A5","midi":81,"time":419.625,"velocity":0.7480314960629921,"duration":0.33749999999997726},{"name":"G#5","midi":80,"time":420,"velocity":0.7480314960629921,"duration":0.33749999999997726},{"name":"A5","midi":81,"time":420.375,"velocity":0.7480314960629921,"duration":0.33749999999997726},{"name":"G#5","midi":80,"time":420.75,"velocity":0.7480314960629921,"duration":0.6750000000000114},{"name":"G#5","midi":80,"time":421.5,"velocity":0.7480314960629921,"duration":0.33749999999997726},{"name":"A5","midi":81,"time":421.875,"velocity":0.7480314960629921,"duration":0.33749999999997726},{"name":"G#5","midi":80,"time":422.25,"velocity":0.7480314960629921,"duration":0.33749999999997726},{"name":"E5","midi":76,"time":422.625,"velocity":0.7480314960629921,"duration":0.33749999999997726},{"name":"F#5","midi":78,"time":423,"velocity":0.7480314960629921,"duration":0.6750000000000114},{"name":"F#5","midi":78,"time":423.75,"velocity":0.7480314960629921,"duration":0.33749999999997726},{"name":"E5","midi":76,"time":424.125,"velocity":0.7480314960629921,"duration":0.33749999999997726},{"name":"F#5","midi":78,"time":424.5,"velocity":0.7480314960629921,"duration":0.6750000000000114},{"name":"F#5","midi":78,"time":425.25,"velocity":0.7480314960629921,"duration":0.33749999999997726},{"name":"E5","midi":76,"time":425.625,"velocity":0.7480314960629921,"duration":0.33749999999997726},{"name":"F#5","midi":78,"time":426,"velocity":0.7480314960629921,"duration":0.6750000000000114},{"name":"G#5","midi":80,"time":426.75,"velocity":0.7480314960629921,"duration":0.6750000000000114},{"name":"A5","midi":81,"time":427.5,"velocity":0.7480314960629921,"duration":0.6750000000000114},{"name":"C#6","midi":85,"time":428.25,"velocity":0.7480314960629921,"duration":0.33749999999997726},{"name":"B5","midi":83,"time":428.625,"velocity":0.7480314960629921,"duration":0.33749999999997726},{"name":"C#6","midi":85,"time":429,"velocity":0.7480314960629921,"duration":0.6750000000000114},{"name":"C#6","midi":85,"time":429.75,"velocity":0.7480314960629921,"duration":0.33749999999997726},{"name":"B5","midi":83,"time":430.125,"velocity":0.7480314960629921,"duration":0.33749999999997726},{"name":"C#6","midi":85,"time":430.5,"velocity":0.7480314960629921,"duration":0.6750000000000114},{"name":"C#6","midi":85,"time":431.25,"velocity":0.7480314960629921,"duration":0.33749999999997726},{"name":"B5","midi":83,"time":431.625,"velocity":0.7480314960629921,"duration":0.33749999999997726},{"name":"C#6","midi":85,"time":432,"velocity":0.7480314960629921,"duration":0.33749999999997726},{"name":"B5","midi":83,"time":432.375,"velocity":0.7480314960629921,"duration":0.33749999999997726},{"name":"C#6","midi":85,"time":432.75,"velocity":0.7480314960629921,"duration":0.6750000000000114},{"name":"C#6","midi":85,"time":433.5,"velocity":0.7480314960629921,"duration":0.33749999999997726},{"name":"B5","midi":83,"time":433.875,"velocity":0.7480314960629921,"duration":0.33749999999997726},{"name":"C#6","midi":85,"time":434.25,"velocity":0.7480314960629921,"duration":0.33749999999997726},{"name":"B5","midi":83,"time":434.625,"velocity":0.7480314960629921,"duration":0.33749999999997726},{"name":"C#6","midi":85,"time":435,"velocity":0.7480314960629921,"duration":0.6750000000000114},{"name":"C#6","midi":85,"time":435.75,"velocity":0.7480314960629921,"duration":0.33749999999997726},{"name":"B5","midi":83,"time":436.125,"velocity":0.7480314960629921,"duration":0.33749999999997726},{"name":"C#6","midi":85,"time":436.5,"velocity":0.7480314960629921,"duration":0.6750000000000114},{"name":"C#6","midi":85,"time":437.25,"velocity":0.7480314960629921,"duration":0.33749999999997726},{"name":"B5","midi":83,"time":437.625,"velocity":0.7480314960629921,"duration":0.33749999999997726},{"name":"C#6","midi":85,"time":438,"velocity":0.7480314960629921,"duration":0.33749999999997726},{"name":"B5","midi":83,"time":438.375,"velocity":0.7480314960629921,"duration":0.33749999999997726},{"name":"C#6","midi":85,"time":438.75,"velocity":0.7480314960629921,"duration":0.6750000000000114},{"name":"C#6","midi":85,"time":439.5,"velocity":0.7480314960629921,"duration":0.33749999999997726},{"name":"B5","midi":83,"time":439.875,"velocity":0.7480314960629921,"duration":0.33749999999997726},{"name":"C#6","midi":85,"time":440.25,"velocity":0.7480314960629921,"duration":0.33749999999997726},{"name":"B5","midi":83,"time":440.625,"velocity":0.7480314960629921,"duration":0.33749999999997726},{"name":"A5","midi":81,"time":441,"velocity":0.7480314960629921,"duration":0.6750000000000114},{"name":"A5","midi":81,"time":441.75,"velocity":0.7480314960629921,"duration":0.33749999999997726},{"name":"B5","midi":83,"time":442.125,"velocity":0.7480314960629921,"duration":0.33749999999997726},{"name":"A5","midi":81,"time":442.5,"velocity":0.7480314960629921,"duration":0.6750000000000114},{"name":"G#5","midi":80,"time":443.25,"velocity":0.7480314960629921,"duration":0.33749999999997726},{"name":"A5","midi":81,"time":443.625,"velocity":0.7480314960629921,"duration":0.33749999999997726},{"name":"G#5","midi":80,"time":444,"velocity":0.7480314960629921,"duration":0.33749999999997726},{"name":"A5","midi":81,"time":444.375,"velocity":0.7480314960629921,"duration":0.33749999999997726},{"name":"G#5","midi":80,"time":444.75,"velocity":0.7480314960629921,"duration":0.6750000000000114},{"name":"G#5","midi":80,"time":445.5,"velocity":0.7480314960629921,"duration":0.33749999999997726},{"name":"A5","midi":81,"time":445.875,"velocity":0.7480314960629921,"duration":0.33749999999997726},{"name":"G#5","midi":80,"time":446.25,"velocity":0.7480314960629921,"duration":0.33749999999997726},{"name":"E5","midi":76,"time":446.625,"velocity":0.7480314960629921,"duration":0.33749999999997726},{"name":"F#5","midi":78,"time":447,"velocity":0.7480314960629921,"duration":0.6750000000000114},{"name":"F#5","midi":78,"time":447.75,"velocity":0.7480314960629921,"duration":0.33749999999997726},{"name":"E5","midi":76,"time":448.125,"velocity":0.7480314960629921,"duration":0.33749999999997726},{"name":"F#5","midi":78,"time":448.5,"velocity":0.7480314960629921,"duration":0.6750000000000114},{"name":"F#5","midi":78,"time":449.25,"velocity":0.7480314960629921,"duration":0.33749999999997726},{"name":"E5","midi":76,"time":449.625,"velocity":0.7480314960629921,"duration":0.33749999999997726},{"name":"F#5","midi":78,"time":450,"velocity":0.7480314960629921,"duration":0.6750000000000114},{"name":"G#5","midi":80,"time":450.75,"velocity":0.7480314960629921,"duration":0.6750000000000114},{"name":"A5","midi":81,"time":451.5,"velocity":0.7480314960629921,"duration":0.6750000000000114},{"name":"C#6","midi":85,"time":452.25,"velocity":0.7480314960629921,"duration":0.33749999999997726},{"name":"B5","midi":83,"time":452.625,"velocity":0.7480314960629921,"duration":0.33749999999997726},{"name":"C#6","midi":85,"time":453,"velocity":0.7480314960629921,"duration":0.6750000000000114},{"name":"C#6","midi":85,"time":453.75,"velocity":0.7480314960629921,"duration":0.33749999999997726},{"name":"B5","midi":83,"time":454.125,"velocity":0.7480314960629921,"duration":0.33749999999997726},{"name":"C#6","midi":85,"time":454.5,"velocity":0.7480314960629921,"duration":0.6750000000000114},{"name":"C#6","midi":85,"time":455.25,"velocity":0.7480314960629921,"duration":0.33749999999997726},{"name":"B5","midi":83,"time":455.625,"velocity":0.7480314960629921,"duration":0.33749999999997726},{"name":"C#6","midi":85,"time":456,"velocity":0.7480314960629921,"duration":0.33749999999997726},{"name":"B5","midi":83,"time":456.375,"velocity":0.7480314960629921,"duration":0.33749999999997726},{"name":"C#6","midi":85,"time":456.75,"velocity":0.7480314960629921,"duration":0.6750000000000114},{"name":"C#6","midi":85,"time":457.5,"velocity":0.7480314960629921,"duration":0.33749999999997726},{"name":"B5","midi":83,"time":457.875,"velocity":0.7480314960629921,"duration":0.33749999999997726},{"name":"C#6","midi":85,"time":458.25,"velocity":0.7480314960629921,"duration":0.33749999999997726},{"name":"B5","midi":83,"time":458.625,"velocity":0.7480314960629921,"duration":0.33749999999997726},{"name":"C#6","midi":85,"time":459,"velocity":0.7480314960629921,"duration":0.6750000000000114},{"name":"C#6","midi":85,"time":459.75,"velocity":0.7480314960629921,"duration":0.33749999999997726},{"name":"B5","midi":83,"time":460.125,"velocity":0.7480314960629921,"duration":0.33749999999997726},{"name":"C#6","midi":85,"time":460.5,"velocity":0.7480314960629921,"duration":0.6750000000000114},{"name":"C#6","midi":85,"time":461.25,"velocity":0.7480314960629921,"duration":0.33749999999997726},{"name":"B5","midi":83,"time":461.625,"velocity":0.7480314960629921,"duration":0.33749999999997726},{"name":"C#6","midi":85,"time":462,"velocity":0.7480314960629921,"duration":0.33749999999997726},{"name":"B5","midi":83,"time":462.375,"velocity":0.7480314960629921,"duration":0.33749999999997726},{"name":"C#6","midi":85,"time":462.75,"velocity":0.7480314960629921,"duration":0.6750000000000114},{"name":"C#6","midi":85,"time":463.5,"velocity":0.7480314960629921,"duration":0.33749999999997726},{"name":"B5","midi":83,"time":463.875,"velocity":0.7480314960629921,"duration":0.33749999999997726},{"name":"C#6","midi":85,"time":464.25,"velocity":0.7480314960629921,"duration":0.33749999999997726},{"name":"B5","midi":83,"time":464.625,"velocity":0.7480314960629921,"duration":0.33749999999997726},{"name":"A5","midi":81,"time":465,"velocity":0.7480314960629921,"duration":0.6750000000000114},{"name":"A5","midi":81,"time":465.75,"velocity":0.7480314960629921,"duration":0.33749999999997726},{"name":"B5","midi":83,"time":466.125,"velocity":0.7480314960629921,"duration":0.33749999999997726},{"name":"A5","midi":81,"time":466.5,"velocity":0.7480314960629921,"duration":0.6750000000000114},{"name":"G#5","midi":80,"time":467.25,"velocity":0.7480314960629921,"duration":0.33749999999997726},{"name":"A5","midi":81,"time":467.625,"velocity":0.7480314960629921,"duration":0.33749999999997726},{"name":"G#5","midi":80,"time":468,"velocity":0.7480314960629921,"duration":0.33749999999997726},{"name":"A5","midi":81,"time":468.375,"velocity":0.7480314960629921,"duration":0.33749999999997726},{"name":"G#5","midi":80,"time":468.75,"velocity":0.7480314960629921,"duration":0.6750000000000114},{"name":"G#5","midi":80,"time":469.5,"velocity":0.7480314960629921,"duration":0.33749999999997726},{"name":"A5","midi":81,"time":469.875,"velocity":0.7480314960629921,"duration":0.33749999999997726},{"name":"G#5","midi":80,"time":470.25,"velocity":0.7480314960629921,"duration":0.33749999999997726},{"name":"E5","midi":76,"time":470.625,"velocity":0.7480314960629921,"duration":0.33749999999997726},{"name":"F#5","midi":78,"time":471,"velocity":0.7480314960629921,"duration":0.6750000000000114},{"name":"F#5","midi":78,"time":471.75,"velocity":0.7480314960629921,"duration":0.33749999999997726},{"name":"E5","midi":76,"time":472.125,"velocity":0.7480314960629921,"duration":0.33749999999997726},{"name":"F#5","midi":78,"time":472.5,"velocity":0.7480314960629921,"duration":0.6750000000000114},{"name":"F#5","midi":78,"time":473.25,"velocity":0.7480314960629921,"duration":0.33749999999997726},{"name":"E5","midi":76,"time":473.625,"velocity":0.7480314960629921,"duration":0.33749999999997726},{"name":"F#5","midi":78,"time":474,"velocity":0.7480314960629921,"duration":0.6750000000000114},{"name":"G#5","midi":80,"time":474.75,"velocity":0.7480314960629921,"duration":0.6750000000000114},{"name":"A5","midi":81,"time":475.5,"velocity":0.7480314960629921,"duration":0.6750000000000114},{"name":"C#6","midi":85,"time":476.25,"velocity":0.7480314960629921,"duration":0.33749999999997726},{"name":"B5","midi":83,"time":476.625,"velocity":0.7480314960629921,"duration":0.33749999999997726},{"name":"C#6","midi":85,"time":477,"velocity":0.7480314960629921,"duration":0.6750000000000114},{"name":"C#6","midi":85,"time":477.75,"velocity":0.7480314960629921,"duration":0.33749999999997726},{"name":"B5","midi":83,"time":478.125,"velocity":0.7480314960629921,"duration":0.33749999999997726},{"name":"C#6","midi":85,"time":478.5,"velocity":0.7480314960629921,"duration":0.6750000000000114},{"name":"C#6","midi":85,"time":479.25,"velocity":0.7480314960629921,"duration":0.33749999999997726},{"name":"B5","midi":83,"time":479.625,"velocity":0.7480314960629921,"duration":0.33749999999997726},{"name":"C#6","midi":85,"time":480,"velocity":0.7480314960629921,"duration":0.33749999999997726},{"name":"B5","midi":83,"time":480.375,"velocity":0.7480314960629921,"duration":0.33749999999997726},{"name":"C#6","midi":85,"time":480.75,"velocity":0.7480314960629921,"duration":0.6750000000000114},{"name":"C#6","midi":85,"time":481.5,"velocity":0.7480314960629921,"duration":0.33749999999997726},{"name":"B5","midi":83,"time":481.875,"velocity":0.7480314960629921,"duration":0.33749999999997726},{"name":"C#6","midi":85,"time":482.25,"velocity":0.7480314960629921,"duration":0.33749999999997726},{"name":"B5","midi":83,"time":482.625,"velocity":0.7480314960629921,"duration":0.33749999999997726},{"name":"C#6","midi":85,"time":483,"velocity":0.7480314960629921,"duration":0.6750000000000114},{"name":"C#6","midi":85,"time":483.75,"velocity":0.7480314960629921,"duration":0.33749999999997726},{"name":"B5","midi":83,"time":484.125,"velocity":0.7480314960629921,"duration":0.33749999999997726},{"name":"C#6","midi":85,"time":484.5,"velocity":0.7480314960629921,"duration":0.6750000000000114},{"name":"C#6","midi":85,"time":485.25,"velocity":0.7480314960629921,"duration":0.33749999999997726},{"name":"B5","midi":83,"time":485.625,"velocity":0.7480314960629921,"duration":0.33749999999997726},{"name":"C#6","midi":85,"time":486,"velocity":0.7480314960629921,"duration":0.33749999999997726},{"name":"B5","midi":83,"time":486.375,"velocity":0.7480314960629921,"duration":0.33749999999997726},{"name":"C#6","midi":85,"time":486.75,"velocity":0.7480314960629921,"duration":0.6750000000000114},{"name":"C#6","midi":85,"time":487.5,"velocity":0.7480314960629921,"duration":0.33749999999997726},{"name":"B5","midi":83,"time":487.875,"velocity":0.7480314960629921,"duration":0.33749999999997726},{"name":"C#6","midi":85,"time":488.25,"velocity":0.7480314960629921,"duration":0.33749999999997726},{"name":"B5","midi":83,"time":488.625,"velocity":0.7480314960629921,"duration":0.33749999999997726},{"name":"A5","midi":81,"time":489,"velocity":0.7480314960629921,"duration":0.6750000000000114},{"name":"A5","midi":81,"time":489.75,"velocity":0.7480314960629921,"duration":0.33749999999997726},{"name":"B5","midi":83,"time":490.125,"velocity":0.7480314960629921,"duration":0.33749999999997726},{"name":"A5","midi":81,"time":490.5,"velocity":0.7480314960629921,"duration":0.6750000000000114},{"name":"G#5","midi":80,"time":491.25,"velocity":0.7480314960629921,"duration":0.33749999999997726},{"name":"A5","midi":81,"time":491.625,"velocity":0.7480314960629921,"duration":0.33749999999997726},{"name":"G#5","midi":80,"time":492,"velocity":0.7480314960629921,"duration":0.33749999999997726},{"name":"A5","midi":81,"time":492.375,"velocity":0.7480314960629921,"duration":0.33749999999997726},{"name":"G#5","midi":80,"time":492.75,"velocity":0.7480314960629921,"duration":0.6750000000000114},{"name":"G#5","midi":80,"time":493.5,"velocity":0.7480314960629921,"duration":0.33749999999997726},{"name":"A5","midi":81,"time":493.875,"velocity":0.7480314960629921,"duration":0.33749999999997726},{"name":"G#5","midi":80,"time":494.25,"velocity":0.7480314960629921,"duration":0.33749999999997726},{"name":"E5","midi":76,"time":494.625,"velocity":0.7480314960629921,"duration":0.33749999999997726},{"name":"F#5","midi":78,"time":495,"velocity":0.7480314960629921,"duration":0.6750000000000114},{"name":"F#5","midi":78,"time":495.75,"velocity":0.7480314960629921,"duration":0.33749999999997726},{"name":"E5","midi":76,"time":496.125,"velocity":0.7480314960629921,"duration":0.33749999999997726},{"name":"F#5","midi":78,"time":496.5,"velocity":0.7480314960629921,"duration":0.6750000000000114},{"name":"F#5","midi":78,"time":497.25,"velocity":0.7480314960629921,"duration":0.33749999999997726},{"name":"E5","midi":76,"time":497.625,"velocity":0.7480314960629921,"duration":0.33749999999997726},{"name":"F#5","midi":78,"time":498,"velocity":0.7480314960629921,"duration":0.6750000000000114},{"name":"G#5","midi":80,"time":498.75,"velocity":0.7480314960629921,"duration":0.6750000000000114},{"name":"A5","midi":81,"time":499.5,"velocity":0.7480314960629921,"duration":0.6750000000000114},{"name":"B5","midi":83,"time":500.25,"velocity":0.7480314960629921,"duration":2.1499999999999773},{"name":"A5","midi":81,"time":502.5,"velocity":0.7480314960629921,"duration":20.899999999999977}]},{"instrumentFamily":"strings","notes":[{"name":"A4","midi":69,"time":377.25,"velocity":0.7480314960629921,"duration":2.1499999999999773},{"name":"B4","midi":71,"time":379.5,"velocity":0.7480314960629921,"duration":1.3999999999999773},{"name":"C#5","midi":73,"time":381,"velocity":0.7480314960629921,"duration":4.399999999999977},{"name":"F#5","midi":78,"time":385.5,"velocity":0.7480314960629921,"duration":1.3999999999999773},{"name":"F#4","midi":66,"time":387,"velocity":0.7480314960629921,"duration":4.399999999999977},{"name":"B4","midi":71,"time":391.5,"velocity":0.7480314960629921,"duration":1.3999999999999773},{"name":"A4","midi":69,"time":393,"velocity":0.7480314960629921,"duration":2.1499999999999773},{"name":"G#4","midi":68,"time":395.25,"velocity":0.7480314960629921,"duration":3.6499999999999773},{"name":"F#4","midi":66,"time":399,"velocity":0.7480314960629921,"duration":2.1499999999999773},{"name":"A4","midi":69,"time":401.25,"velocity":0.7480314960629921,"duration":0.6750000000000114},{"name":"A4","midi":69,"time":402,"velocity":0.7480314960629921,"duration":1.3999999999999773},{"name":"B4","midi":71,"time":403.5,"velocity":0.7480314960629921,"duration":1.3999999999999773},{"name":"C#5","midi":73,"time":405,"velocity":0.7480314960629921,"duration":4.399999999999977},{"name":"F#5","midi":78,"time":409.5,"velocity":0.7480314960629921,"duration":1.3999999999999773},{"name":"F#4","midi":66,"time":411,"velocity":0.7480314960629921,"duration":4.399999999999977},{"name":"B4","midi":71,"time":415.5,"velocity":0.7480314960629921,"duration":1.3999999999999773},{"name":"A4","midi":69,"time":417,"velocity":0.7480314960629921,"duration":2.1499999999999773},{"name":"G#4","midi":68,"time":419.25,"velocity":0.7480314960629921,"duration":3.6499999999999773},{"name":"F#4","midi":66,"time":423,"velocity":0.7480314960629921,"duration":2.1499999999999773},{"name":"A4","midi":69,"time":425.25,"velocity":0.7480314960629921,"duration":0.6750000000000114},{"name":"A4","midi":69,"time":426,"velocity":0.7480314960629921,"duration":1.3999999999999773},{"name":"B4","midi":71,"time":427.5,"velocity":0.7480314960629921,"duration":1.3999999999999773},{"name":"C#4","midi":61,"time":427.875,"velocity":0.7480314960629921,"duration":1.0249999999999773},{"name":"C#5","midi":73,"time":429,"velocity":0.7480314960629921,"duration":4.399999999999977},{"name":"F#5","midi":78,"time":433.5,"velocity":0.7480314960629921,"duration":1.3999999999999773},{"name":"F#4","midi":66,"time":435,"velocity":0.7480314960629921,"duration":4.399999999999977},{"name":"B4","midi":71,"time":439.5,"velocity":0.7480314960629921,"duration":1.3999999999999773},{"name":"A4","midi":69,"time":441,"velocity":0.7480314960629921,"duration":2.1499999999999773},{"name":"G#4","midi":68,"time":443.25,"velocity":0.7480314960629921,"duration":3.6499999999999773},{"name":"F#4","midi":66,"time":447,"velocity":0.7480314960629921,"duration":2.1499999999999773},{"name":"A4","midi":69,"time":449.25,"velocity":0.7480314960629921,"duration":0.6750000000000114},{"name":"A4","midi":69,"time":450,"velocity":0.7480314960629921,"duration":1.3999999999999773},{"name":"B4","midi":71,"time":451.5,"velocity":0.7480314960629921,"duration":1.3999999999999773},{"name":"C#4","midi":61,"time":451.875,"velocity":0.7480314960629921,"duration":1.0249999999999773},{"name":"C#5","midi":73,"time":453,"velocity":0.7480314960629921,"duration":4.399999999999977},{"name":"F#5","midi":78,"time":457.5,"velocity":0.7480314960629921,"duration":1.3999999999999773},{"name":"F#4","midi":66,"time":459,"velocity":0.7480314960629921,"duration":4.399999999999977},{"name":"B4","midi":71,"time":463.5,"velocity":0.7480314960629921,"duration":1.3999999999999773},{"name":"A4","midi":69,"time":465,"velocity":0.7480314960629921,"duration":2.1499999999999773},{"name":"G#4","midi":68,"time":467.25,"velocity":0.7480314960629921,"duration":3.6499999999999773},{"name":"F#4","midi":66,"time":471,"velocity":0.7480314960629921,"duration":2.1499999999999773},{"name":"A4","midi":69,"time":473.25,"velocity":0.7480314960629921,"duration":0.6750000000000114},{"name":"A4","midi":69,"time":474,"velocity":0.7480314960629921,"duration":1.3999999999999773},{"name":"B4","midi":71,"time":475.5,"velocity":0.7480314960629921,"duration":1.3999999999999773},{"name":"C#5","midi":73,"time":477,"velocity":0.7480314960629921,"duration":4.399999999999977},{"name":"F#5","midi":78,"time":481.5,"velocity":0.7480314960629921,"duration":1.3999999999999773},{"name":"F#4","midi":66,"time":483,"velocity":0.7480314960629921,"duration":4.399999999999977},{"name":"B4","midi":71,"time":487.5,"velocity":0.7480314960629921,"duration":1.3999999999999773},{"name":"A4","midi":69,"time":489,"velocity":0.7480314960629921,"duration":2.1499999999999773},{"name":"G#4","midi":68,"time":491.25,"velocity":0.7480314960629921,"duration":3.6499999999999773},{"name":"F#4","midi":66,"time":495,"velocity":0.7480314960629921,"duration":2.1499999999999773},{"name":"A4","midi":69,"time":497.25,"velocity":0.7480314960629921,"duration":0.6750000000000114},{"name":"A4","midi":69,"time":498,"velocity":0.7480314960629921,"duration":1.3999999999999773},{"name":"B4","midi":71,"time":499.5,"velocity":0.7480314960629921,"duration":2.8999999999999773},{"name":"A4","midi":69,"time":502.5,"velocity":0.7480314960629921,"duration":20.899999999999977}]},{"instrumentFamily":"bass","notes":[{"name":"A1","midi":33,"time":261,"velocity":0.7480314960629921,"duration":0.33749999999997726},{"name":"A1","midi":33,"time":261.375,"velocity":0.7480314960629921,"duration":0.33749999999997726},{"name":"A1","midi":33,"time":261.75,"velocity":0.7480314960629921,"duration":0.33749999999997726},{"name":"A1","midi":33,"time":262.125,"velocity":0.7480314960629921,"duration":0.33749999999997726},{"name":"A1","midi":33,"time":262.5,"velocity":0.7480314960629921,"duration":0.33749999999997726},{"name":"A1","midi":33,"time":262.875,"velocity":0.7480314960629921,"duration":0.33749999999997726},{"name":"A1","midi":33,"time":263.25,"velocity":0.7480314960629921,"duration":0.33749999999997726},{"name":"A1","midi":33,"time":263.625,"velocity":0.7480314960629921,"duration":0.33749999999997726},{"name":"A1","midi":33,"time":264,"velocity":0.7480314960629921,"duration":0.33749999999997726},{"name":"A1","midi":33,"time":264.375,"velocity":0.7480314960629921,"duration":0.33749999999997726},{"name":"A1","midi":33,"time":264.75,"velocity":0.7480314960629921,"duration":0.33749999999997726},{"name":"A1","midi":33,"time":265.125,"velocity":0.7480314960629921,"duration":0.33749999999997726},{"name":"A1","midi":33,"time":265.5,"velocity":0.7480314960629921,"duration":0.33749999999997726},{"name":"A1","midi":33,"time":265.875,"velocity":0.7480314960629921,"duration":0.33749999999997726},{"name":"A1","midi":33,"time":266.25,"velocity":0.7480314960629921,"duration":0.33749999999997726},{"name":"A1","midi":33,"time":266.625,"velocity":0.7480314960629921,"duration":0.33749999999997726},{"name":"E2","midi":40,"time":267,"velocity":0.7480314960629921,"duration":0.33749999999997726},{"name":"E2","midi":40,"time":267.375,"velocity":0.7480314960629921,"duration":0.33749999999997726},{"name":"E2","midi":40,"time":267.75,"velocity":0.7480314960629921,"duration":0.33749999999997726},{"name":"E2","midi":40,"time":268.125,"velocity":0.7480314960629921,"duration":0.33749999999997726},{"name":"E2","midi":40,"time":268.5,"velocity":0.7480314960629921,"duration":0.33749999999997726},{"name":"E2","midi":40,"time":268.875,"velocity":0.7480314960629921,"duration":0.33749999999997726},{"name":"E2","midi":40,"time":269.25,"velocity":0.7480314960629921,"duration":0.33749999999997726},{"name":"E2","midi":40,"time":269.625,"velocity":0.7480314960629921,"duration":0.33749999999997726},{"name":"E2","midi":40,"time":270,"velocity":0.7480314960629921,"duration":0.33749999999997726},{"name":"E2","midi":40,"time":270.375,"velocity":0.7480314960629921,"duration":0.33749999999997726},{"name":"E2","midi":40,"time":270.75,"velocity":0.7480314960629921,"duration":0.33749999999997726},{"name":"E2","midi":40,"time":271.125,"velocity":0.7480314960629921,"duration":0.33749999999997726},{"name":"E2","midi":40,"time":271.5,"velocity":0.7480314960629921,"duration":0.33749999999997726},{"name":"F#2","midi":42,"time":271.875,"velocity":0.7480314960629921,"duration":0.33749999999997726},{"name":"F#2","midi":42,"time":272.25,"velocity":0.7480314960629921,"duration":0.33749999999997726},{"name":"F#2","midi":42,"time":272.625,"velocity":0.7480314960629921,"duration":0.33749999999997726},{"name":"B1","midi":35,"time":273,"velocity":0.7480314960629921,"duration":0.33749999999997726},{"name":"B1","midi":35,"time":273.375,"velocity":0.7480314960629921,"duration":0.33749999999997726},{"name":"B1","midi":35,"time":273.75,"velocity":0.7480314960629921,"duration":0.33749999999997726},{"name":"B1","midi":35,"time":274.125,"velocity":0.7480314960629921,"duration":0.33749999999997726},{"name":"B1","midi":35,"time":274.5,"velocity":0.7480314960629921,"duration":0.33749999999997726},{"name":"B1","midi":35,"time":274.875,"velocity":0.7480314960629921,"duration":0.33749999999997726},{"name":"B1","midi":35,"time":275.25,"velocity":0.7480314960629921,"duration":0.33749999999997726},{"name":"B1","midi":35,"time":275.625,"velocity":0.7480314960629921,"duration":0.33749999999997726},{"name":"B1","midi":35,"time":276,"velocity":0.7480314960629921,"duration":0.33749999999997726},{"name":"B1","midi":35,"time":276.375,"velocity":0.7480314960629921,"duration":0.33749999999997726},{"name":"B1","midi":35,"time":276.75,"velocity":0.7480314960629921,"duration":0.33749999999997726},{"name":"B1","midi":35,"time":277.125,"velocity":0.7480314960629921,"duration":0.33749999999997726},{"name":"B1","midi":35,"time":277.5,"velocity":0.7480314960629921,"duration":0.33749999999997726},{"name":"C#2","midi":37,"time":277.875,"velocity":0.7480314960629921,"duration":0.33749999999997726},{"name":"C#2","midi":37,"time":278.25,"velocity":0.7480314960629921,"duration":0.33749999999997726},{"name":"C#2","midi":37,"time":278.625,"velocity":0.7480314960629921,"duration":0.33749999999997726},{"name":"D2","midi":38,"time":279,"velocity":0.7480314960629921,"duration":0.33749999999997726},{"name":"D2","midi":38,"time":279.375,"velocity":0.7480314960629921,"duration":0.33749999999997726},{"name":"D2","midi":38,"time":279.75,"velocity":0.7480314960629921,"duration":0.33749999999997726},{"name":"D2","midi":38,"time":280.125,"velocity":0.7480314960629921,"duration":0.33749999999997726},{"name":"D2","midi":38,"time":280.5,"velocity":0.7480314960629921,"duration":0.33749999999997726},{"name":"D2","midi":38,"time":280.875,"velocity":0.7480314960629921,"duration":0.33749999999997726},{"name":"D2","midi":38,"time":281.25,"velocity":0.7480314960629921,"duration":0.33749999999997726},{"name":"D2","midi":38,"time":281.625,"velocity":0.7480314960629921,"duration":0.33749999999997726},{"name":"D2","midi":38,"time":282,"velocity":0.7480314960629921,"duration":0.33749999999997726},{"name":"D2","midi":38,"time":282.375,"velocity":0.7480314960629921,"duration":0.33749999999997726},{"name":"D2","midi":38,"time":282.75,"velocity":0.7480314960629921,"duration":0.33749999999997726},{"name":"D2","midi":38,"time":283.125,"velocity":0.7480314960629921,"duration":0.33749999999997726},{"name":"D2","midi":38,"time":283.5,"velocity":0.7480314960629921,"duration":0.33749999999997726},{"name":"E2","midi":40,"time":283.875,"velocity":0.7480314960629921,"duration":0.33749999999997726},{"name":"E2","midi":40,"time":284.25,"velocity":0.7480314960629921,"duration":0.33749999999997726},{"name":"E2","midi":40,"time":284.625,"velocity":0.7480314960629921,"duration":0.33749999999997726},{"name":"A2","midi":45,"time":285,"velocity":0.7480314960629921,"duration":0.33749999999997726},{"name":"A2","midi":45,"time":285.375,"velocity":0.7480314960629921,"duration":0.33749999999997726},{"name":"A2","midi":45,"time":285.75,"velocity":0.7480314960629921,"duration":0.33749999999997726},{"name":"A2","midi":45,"time":286.125,"velocity":0.7480314960629921,"duration":0.33749999999997726},{"name":"A2","midi":45,"time":286.5,"velocity":0.7480314960629921,"duration":0.33749999999997726},{"name":"A2","midi":45,"time":286.875,"velocity":0.7480314960629921,"duration":0.33749999999997726},{"name":"A2","midi":45,"time":287.25,"velocity":0.7480314960629921,"duration":0.33749999999997726},{"name":"A2","midi":45,"time":287.625,"velocity":0.7480314960629921,"duration":0.33749999999997726},{"name":"A2","midi":45,"time":288,"velocity":0.7480314960629921,"duration":0.33749999999997726},{"name":"A2","midi":45,"time":288.375,"velocity":0.7480314960629921,"duration":0.33749999999997726},{"name":"A2","midi":45,"time":288.75,"velocity":0.7480314960629921,"duration":0.33749999999997726},{"name":"A2","midi":45,"time":289.125,"velocity":0.7480314960629921,"duration":0.33749999999997726},{"name":"A2","midi":45,"time":289.5,"velocity":0.7480314960629921,"duration":0.33749999999997726},{"name":"A2","midi":45,"time":289.875,"velocity":0.7480314960629921,"duration":0.33749999999997726},{"name":"A2","midi":45,"time":290.25,"velocity":0.7480314960629921,"duration":0.33749999999997726},{"name":"A2","midi":45,"time":290.625,"velocity":0.7480314960629921,"duration":0.33749999999997726},{"name":"E2","midi":40,"time":291,"velocity":0.7480314960629921,"duration":0.33749999999997726},{"name":"E2","midi":40,"time":291.375,"velocity":0.7480314960629921,"duration":0.33749999999997726},{"name":"E2","midi":40,"time":291.75,"velocity":0.7480314960629921,"duration":0.33749999999997726},{"name":"E2","midi":40,"time":292.125,"velocity":0.7480314960629921,"duration":0.33749999999997726},{"name":"E2","midi":40,"time":292.5,"velocity":0.7480314960629921,"duration":0.33749999999997726},{"name":"E2","midi":40,"time":292.875,"velocity":0.7480314960629921,"duration":0.33749999999997726},{"name":"E2","midi":40,"time":293.25,"velocity":0.7480314960629921,"duration":0.33749999999997726},{"name":"E2","midi":40,"time":293.625,"velocity":0.7480314960629921,"duration":0.33749999999997726},{"name":"E2","midi":40,"time":294,"velocity":0.7480314960629921,"duration":0.33749999999997726},{"name":"E2","midi":40,"time":294.375,"velocity":0.7480314960629921,"duration":0.33749999999997726},{"name":"E2","midi":40,"time":294.75,"velocity":0.7480314960629921,"duration":0.33749999999997726},{"name":"E2","midi":40,"time":295.125,"velocity":0.7480314960629921,"duration":0.33749999999997726},{"name":"E2","midi":40,"time":295.5,"velocity":0.7480314960629921,"duration":0.33749999999997726},{"name":"F#2","midi":42,"time":295.875,"velocity":0.7480314960629921,"duration":0.33749999999997726},{"name":"F#2","midi":42,"time":296.25,"velocity":0.7480314960629921,"duration":0.33749999999997726},{"name":"F#2","midi":42,"time":296.625,"velocity":0.7480314960629921,"duration":0.33749999999997726},{"name":"B1","midi":35,"time":297,"velocity":0.7480314960629921,"duration":0.33749999999997726},{"name":"B1","midi":35,"time":297.375,"velocity":0.7480314960629921,"duration":0.33749999999997726},{"name":"B1","midi":35,"time":297.75,"velocity":0.7480314960629921,"duration":0.33749999999997726},{"name":"B1","midi":35,"time":298.125,"velocity":0.7480314960629921,"duration":0.33749999999997726},{"name":"B1","midi":35,"time":298.5,"velocity":0.7480314960629921,"duration":0.33749999999997726},{"name":"B1","midi":35,"time":298.875,"velocity":0.7480314960629921,"duration":0.33749999999997726},{"name":"B1","midi":35,"time":299.25,"velocity":0.7480314960629921,"duration":0.33749999999997726},{"name":"B1","midi":35,"time":299.625,"velocity":0.7480314960629921,"duration":0.33749999999997726},{"name":"B1","midi":35,"time":300,"velocity":0.7480314960629921,"duration":0.33749999999997726},{"name":"B1","midi":35,"time":300.375,"velocity":0.7480314960629921,"duration":0.33749999999997726},{"name":"B1","midi":35,"time":300.75,"velocity":0.7480314960629921,"duration":0.33749999999997726},{"name":"B1","midi":35,"time":301.125,"velocity":0.7480314960629921,"duration":0.33749999999997726},{"name":"B1","midi":35,"time":301.5,"velocity":0.7480314960629921,"duration":0.33749999999997726},{"name":"C#2","midi":37,"time":301.875,"velocity":0.7480314960629921,"duration":0.33749999999997726},{"name":"C#2","midi":37,"time":302.25,"velocity":0.7480314960629921,"duration":0.33749999999997726},{"name":"C#2","midi":37,"time":302.625,"velocity":0.7480314960629921,"duration":0.33749999999997726},{"name":"D2","midi":38,"time":303,"velocity":0.7480314960629921,"duration":0.33749999999997726},{"name":"D2","midi":38,"time":303.375,"velocity":0.7480314960629921,"duration":0.33749999999997726},{"name":"D2","midi":38,"time":303.75,"velocity":0.7480314960629921,"duration":0.33749999999997726},{"name":"D2","midi":38,"time":304.125,"velocity":0.7480314960629921,"duration":0.33749999999997726},{"name":"D2","midi":38,"time":304.5,"velocity":0.7480314960629921,"duration":0.33749999999997726},{"name":"D2","midi":38,"time":304.875,"velocity":0.7480314960629921,"duration":0.33749999999997726},{"name":"D2","midi":38,"time":305.25,"velocity":0.7480314960629921,"duration":0.33749999999997726},{"name":"D2","midi":38,"time":305.625,"velocity":0.7480314960629921,"duration":0.33749999999997726},{"name":"D2","midi":38,"time":306,"velocity":0.7480314960629921,"duration":0.33749999999997726},{"name":"D2","midi":38,"time":306.375,"velocity":0.7480314960629921,"duration":0.33749999999997726},{"name":"D2","midi":38,"time":306.75,"velocity":0.7480314960629921,"duration":0.33749999999997726},{"name":"D2","midi":38,"time":307.125,"velocity":0.7480314960629921,"duration":0.33749999999997726},{"name":"D2","midi":38,"time":307.5,"velocity":0.7480314960629921,"duration":0.33749999999997726},{"name":"C#2","midi":37,"time":307.875,"velocity":0.7480314960629921,"duration":0.33749999999997726},{"name":"D2","midi":38,"time":308.25,"velocity":0.7480314960629921,"duration":0.33749999999997726},{"name":"E2","midi":40,"time":308.625,"velocity":0.7480314960629921,"duration":0.33749999999997726},{"name":"A2","midi":45,"time":309,"velocity":0.7480314960629921,"duration":0.33749999999997726},{"name":"A2","midi":45,"time":309.375,"velocity":0.7480314960629921,"duration":0.33749999999997726},{"name":"A2","midi":45,"time":309.75,"velocity":0.7480314960629921,"duration":0.33749999999997726},{"name":"A2","midi":45,"time":310.125,"velocity":0.7480314960629921,"duration":0.33749999999997726},{"name":"A2","midi":45,"time":310.5,"velocity":0.7480314960629921,"duration":0.33749999999997726},{"name":"A2","midi":45,"time":310.875,"velocity":0.7480314960629921,"duration":0.33749999999997726},{"name":"A2","midi":45,"time":311.25,"velocity":0.7480314960629921,"duration":0.33749999999997726},{"name":"A2","midi":45,"time":311.625,"velocity":0.7480314960629921,"duration":0.33749999999997726},{"name":"A2","midi":45,"time":312,"velocity":0.7480314960629921,"duration":0.33749999999997726},{"name":"A2","midi":45,"time":312.375,"velocity":0.7480314960629921,"duration":0.33749999999997726},{"name":"A2","midi":45,"time":312.75,"velocity":0.7480314960629921,"duration":0.33749999999997726},{"name":"A2","midi":45,"time":313.125,"velocity":0.7480314960629921,"duration":0.33749999999997726},{"name":"A2","midi":45,"time":313.5,"velocity":0.7480314960629921,"duration":0.33749999999997726},{"name":"A2","midi":45,"time":313.875,"velocity":0.7480314960629921,"duration":0.33749999999997726},{"name":"A2","midi":45,"time":314.25,"velocity":0.7480314960629921,"duration":0.33749999999997726},{"name":"A2","midi":45,"time":314.625,"velocity":0.7480314960629921,"duration":0.33749999999997726},{"name":"D2","midi":38,"time":315,"velocity":0.7480314960629921,"duration":0.33749999999997726},{"name":"D2","midi":38,"time":315.375,"velocity":0.7480314960629921,"duration":0.33749999999997726},{"name":"D2","midi":38,"time":315.75,"velocity":0.7480314960629921,"duration":0.33749999999997726},{"name":"D2","midi":38,"time":316.125,"velocity":0.7480314960629921,"duration":0.33749999999997726},{"name":"D2","midi":38,"time":316.5,"velocity":0.7480314960629921,"duration":0.33749999999997726},{"name":"D2","midi":38,"time":316.875,"velocity":0.7480314960629921,"duration":0.33749999999997726},{"name":"D2","midi":38,"time":317.25,"velocity":0.7480314960629921,"duration":0.33749999999997726},{"name":"D2","midi":38,"time":317.625,"velocity":0.7480314960629921,"duration":0.33749999999997726},{"name":"D2","midi":38,"time":318,"velocity":0.7480314960629921,"duration":0.33749999999997726},{"name":"D2","midi":38,"time":318.375,"velocity":0.7480314960629921,"duration":0.33749999999997726},{"name":"D2","midi":38,"time":318.75,"velocity":0.7480314960629921,"duration":0.33749999999997726},{"name":"D2","midi":38,"time":319.125,"velocity":0.7480314960629921,"duration":0.33749999999997726},{"name":"D2","midi":38,"time":319.5,"velocity":0.7480314960629921,"duration":0.33749999999997726},{"name":"D2","midi":38,"time":319.875,"velocity":0.7480314960629921,"duration":0.33749999999997726},{"name":"D2","midi":38,"time":320.25,"velocity":0.7480314960629921,"duration":0.33749999999997726},{"name":"D2","midi":38,"time":320.625,"velocity":0.7480314960629921,"duration":0.33749999999997726},{"name":"B1","midi":35,"time":321,"velocity":0.7480314960629921,"duration":0.33749999999997726},{"name":"B1","midi":35,"time":321.375,"velocity":0.7480314960629921,"duration":0.33749999999997726},{"name":"B1","midi":35,"time":321.75,"velocity":0.7480314960629921,"duration":0.33749999999997726},{"name":"B1","midi":35,"time":322.125,"velocity":0.7480314960629921,"duration":0.33749999999997726},{"name":"B1","midi":35,"time":322.5,"velocity":0.7480314960629921,"duration":0.33749999999997726},{"name":"B1","midi":35,"time":322.875,"velocity":0.7480314960629921,"duration":0.33749999999997726},{"name":"B1","midi":35,"time":323.25,"velocity":0.7480314960629921,"duration":0.33749999999997726},{"name":"B1","midi":35,"time":323.625,"velocity":0.7480314960629921,"duration":0.33749999999997726},{"name":"C#2","midi":37,"time":324,"velocity":0.7480314960629921,"duration":0.33749999999997726},{"name":"C#2","midi":37,"time":324.375,"velocity":0.7480314960629921,"duration":0.33749999999997726},{"name":"C#2","midi":37,"time":324.75,"velocity":0.7480314960629921,"duration":0.33749999999997726},{"name":"C#2","midi":37,"time":325.125,"velocity":0.7480314960629921,"duration":0.33749999999997726},{"name":"C#2","midi":37,"time":325.5,"velocity":0.7480314960629921,"duration":0.33749999999997726},{"name":"C#2","midi":37,"time":325.875,"velocity":0.7480314960629921,"duration":0.33749999999997726},{"name":"C#2","midi":37,"time":326.25,"velocity":0.7480314960629921,"duration":0.33749999999997726},{"name":"C#2","midi":37,"time":326.625,"velocity":0.7480314960629921,"duration":0.33749999999997726},{"name":"D2","midi":38,"time":327,"velocity":0.7480314960629921,"duration":0.33749999999997726},{"name":"D2","midi":38,"time":327.375,"velocity":0.7480314960629921,"duration":0.33749999999997726},{"name":"D2","midi":38,"time":327.75,"velocity":0.7480314960629921,"duration":0.33749999999997726},{"name":"D2","midi":38,"time":328.125,"velocity":0.7480314960629921,"duration":0.33749999999997726},{"name":"D2","midi":38,"time":328.5,"velocity":0.7480314960629921,"duration":0.33749999999997726},{"name":"D2","midi":38,"time":328.875,"velocity":0.7480314960629921,"duration":0.33749999999997726},{"name":"D2","midi":38,"time":329.25,"velocity":0.7480314960629921,"duration":0.33749999999997726},{"name":"D2","midi":38,"time":329.625,"velocity":0.7480314960629921,"duration":0.33749999999997726},{"name":"D2","midi":38,"time":330,"velocity":0.7480314960629921,"duration":0.33749999999997726},{"name":"D2","midi":38,"time":330.375,"velocity":0.7480314960629921,"duration":0.33749999999997726},{"name":"D2","midi":38,"time":330.75,"velocity":0.7480314960629921,"duration":0.33749999999997726},{"name":"D2","midi":38,"time":331.125,"velocity":0.7480314960629921,"duration":0.33749999999997726},{"name":"E2","midi":40,"time":331.5,"velocity":0.7480314960629921,"duration":0.33749999999997726},{"name":"E2","midi":40,"time":331.875,"velocity":0.7480314960629921,"duration":0.33749999999997726},{"name":"E2","midi":40,"time":332.25,"velocity":0.7480314960629921,"duration":0.33749999999997726},{"name":"E2","midi":40,"time":332.625,"velocity":0.7480314960629921,"duration":0.33749999999997726},{"name":"A1","midi":33,"time":333,"velocity":0.7480314960629921,"duration":0.33749999999997726},{"name":"A1","midi":33,"time":333.375,"velocity":0.7480314960629921,"duration":0.33749999999997726},{"name":"A1","midi":33,"time":333.75,"velocity":0.7480314960629921,"duration":0.33749999999997726},{"name":"A1","midi":33,"time":334.125,"velocity":0.7480314960629921,"duration":0.33749999999997726},{"name":"A1","midi":33,"time":334.5,"velocity":0.7480314960629921,"duration":0.33749999999997726},{"name":"A1","midi":33,"time":334.875,"velocity":0.7480314960629921,"duration":0.33749999999997726},{"name":"A1","midi":33,"time":335.25,"velocity":0.7480314960629921,"duration":0.33749999999997726},{"name":"A1","midi":33,"time":335.625,"velocity":0.7480314960629921,"duration":0.33749999999997726},{"name":"A1","midi":33,"time":336,"velocity":0.7480314960629921,"duration":0.33749999999997726},{"name":"A1","midi":33,"time":336.375,"velocity":0.7480314960629921,"duration":0.33749999999997726},{"name":"A1","midi":33,"time":336.75,"velocity":0.7480314960629921,"duration":0.33749999999997726},{"name":"A1","midi":33,"time":337.125,"velocity":0.7480314960629921,"duration":0.33749999999997726},{"name":"A1","midi":33,"time":337.5,"velocity":0.7480314960629921,"duration":0.33749999999997726},{"name":"A1","midi":33,"time":337.875,"velocity":0.7480314960629921,"duration":0.33749999999997726},{"name":"A1","midi":33,"time":338.25,"velocity":0.7480314960629921,"duration":0.33749999999997726},{"name":"A1","midi":33,"time":338.625,"velocity":0.7480314960629921,"duration":0.33749999999997726},{"name":"E2","midi":40,"time":339,"velocity":0.7480314960629921,"duration":0.33749999999997726},{"name":"E2","midi":40,"time":339.375,"velocity":0.7480314960629921,"duration":0.33749999999997726},{"name":"E2","midi":40,"time":339.75,"velocity":0.7480314960629921,"duration":0.33749999999997726},{"name":"E2","midi":40,"time":340.125,"velocity":0.7480314960629921,"duration":0.33749999999997726},{"name":"E2","midi":40,"time":340.5,"velocity":0.7480314960629921,"duration":0.33749999999997726},{"name":"E2","midi":40,"time":340.875,"velocity":0.7480314960629921,"duration":0.33749999999997726},{"name":"E2","midi":40,"time":341.25,"velocity":0.7480314960629921,"duration":0.33749999999997726},{"name":"E2","midi":40,"time":341.625,"velocity":0.7480314960629921,"duration":0.33749999999997726},{"name":"E2","midi":40,"time":342,"velocity":0.7480314960629921,"duration":0.33749999999997726},{"name":"E2","midi":40,"time":342.375,"velocity":0.7480314960629921,"duration":0.33749999999997726},{"name":"E2","midi":40,"time":342.75,"velocity":0.7480314960629921,"duration":0.33749999999997726},{"name":"E2","midi":40,"time":343.125,"velocity":0.7480314960629921,"duration":0.33749999999997726},{"name":"E2","midi":40,"time":343.5,"velocity":0.7480314960629921,"duration":0.33749999999997726},{"name":"F#2","midi":42,"time":343.875,"velocity":0.7480314960629921,"duration":0.33749999999997726},{"name":"F#2","midi":42,"time":344.25,"velocity":0.7480314960629921,"duration":0.33749999999997726},{"name":"F#2","midi":42,"time":344.625,"velocity":0.7480314960629921,"duration":0.33749999999997726},{"name":"B1","midi":35,"time":345,"velocity":0.7480314960629921,"duration":0.33749999999997726},{"name":"B1","midi":35,"time":345.375,"velocity":0.7480314960629921,"duration":0.33749999999997726},{"name":"B1","midi":35,"time":345.75,"velocity":0.7480314960629921,"duration":0.33749999999997726},{"name":"B1","midi":35,"time":346.125,"velocity":0.7480314960629921,"duration":0.33749999999997726},{"name":"B1","midi":35,"time":346.5,"velocity":0.7480314960629921,"duration":0.33749999999997726},{"name":"B1","midi":35,"time":346.875,"velocity":0.7480314960629921,"duration":0.33749999999997726},{"name":"B1","midi":35,"time":347.25,"velocity":0.7480314960629921,"duration":0.33749999999997726},{"name":"B1","midi":35,"time":347.625,"velocity":0.7480314960629921,"duration":0.33749999999997726},{"name":"B1","midi":35,"time":348,"velocity":0.7480314960629921,"duration":0.33749999999997726},{"name":"B1","midi":35,"time":348.375,"velocity":0.7480314960629921,"duration":0.33749999999997726},{"name":"B1","midi":35,"time":348.75,"velocity":0.7480314960629921,"duration":0.33749999999997726},{"name":"B1","midi":35,"time":349.125,"velocity":0.7480314960629921,"duration":0.33749999999997726},{"name":"B1","midi":35,"time":349.5,"velocity":0.7480314960629921,"duration":0.33749999999997726},{"name":"C#2","midi":37,"time":349.875,"velocity":0.7480314960629921,"duration":0.33749999999997726},{"name":"C#2","midi":37,"time":350.25,"velocity":0.7480314960629921,"duration":0.33749999999997726},{"name":"C#2","midi":37,"time":350.625,"velocity":0.7480314960629921,"duration":0.33749999999997726},{"name":"D2","midi":38,"time":351,"velocity":0.7480314960629921,"duration":0.33749999999997726},{"name":"D2","midi":38,"time":351.375,"velocity":0.7480314960629921,"duration":0.33749999999997726},{"name":"D2","midi":38,"time":351.75,"velocity":0.7480314960629921,"duration":0.33749999999997726},{"name":"D2","midi":38,"time":352.125,"velocity":0.7480314960629921,"duration":0.33749999999997726},{"name":"D2","midi":38,"time":352.5,"velocity":0.7480314960629921,"duration":0.33749999999997726},{"name":"D2","midi":38,"time":352.875,"velocity":0.7480314960629921,"duration":0.33749999999997726},{"name":"D2","midi":38,"time":353.25,"velocity":0.7480314960629921,"duration":0.33749999999997726},{"name":"D2","midi":38,"time":353.625,"velocity":0.7480314960629921,"duration":0.33749999999997726},{"name":"D2","midi":38,"time":354,"velocity":0.7480314960629921,"duration":0.33749999999997726},{"name":"D2","midi":38,"time":354.375,"velocity":0.7480314960629921,"duration":0.33749999999997726},{"name":"D2","midi":38,"time":354.75,"velocity":0.7480314960629921,"duration":0.33749999999997726},{"name":"D2","midi":38,"time":355.125,"velocity":0.7480314960629921,"duration":0.33749999999997726},{"name":"D2","midi":38,"time":355.5,"velocity":0.7480314960629921,"duration":0.33749999999997726},{"name":"E2","midi":40,"time":355.875,"velocity":0.7480314960629921,"duration":0.33749999999997726},{"name":"E2","midi":40,"time":356.25,"velocity":0.7480314960629921,"duration":0.33749999999997726},{"name":"E2","midi":40,"time":356.625,"velocity":0.7480314960629921,"duration":0.33749999999997726},{"name":"A2","midi":45,"time":357,"velocity":0.7480314960629921,"duration":0.33749999999997726},{"name":"A2","midi":45,"time":357.375,"velocity":0.7480314960629921,"duration":0.33749999999997726},{"name":"A2","midi":45,"time":357.75,"velocity":0.7480314960629921,"duration":0.33749999999997726},{"name":"A2","midi":45,"time":358.125,"velocity":0.7480314960629921,"duration":0.33749999999997726},{"name":"A2","midi":45,"time":358.5,"velocity":0.7480314960629921,"duration":0.33749999999997726},{"name":"A2","midi":45,"time":358.875,"velocity":0.7480314960629921,"duration":0.33749999999997726},{"name":"A2","midi":45,"time":359.25,"velocity":0.7480314960629921,"duration":0.33749999999997726},{"name":"A2","midi":45,"time":359.625,"velocity":0.7480314960629921,"duration":0.33749999999997726},{"name":"A2","midi":45,"time":360,"velocity":0.7480314960629921,"duration":0.33749999999997726},{"name":"A2","midi":45,"time":360.375,"velocity":0.7480314960629921,"duration":0.33749999999997726},{"name":"A2","midi":45,"time":360.75,"velocity":0.7480314960629921,"duration":0.33749999999997726},{"name":"A2","midi":45,"time":361.125,"velocity":0.7480314960629921,"duration":0.33749999999997726},{"name":"A2","midi":45,"time":361.5,"velocity":0.7480314960629921,"duration":0.33749999999997726},{"name":"A2","midi":45,"time":361.875,"velocity":0.7480314960629921,"duration":0.33749999999997726},{"name":"A2","midi":45,"time":362.25,"velocity":0.7480314960629921,"duration":0.33749999999997726},{"name":"A2","midi":45,"time":362.625,"velocity":0.7480314960629921,"duration":0.33749999999997726},{"name":"D2","midi":38,"time":363,"velocity":0.7480314960629921,"duration":0.33749999999997726},{"name":"D2","midi":38,"time":363.375,"velocity":0.7480314960629921,"duration":0.33749999999997726},{"name":"D2","midi":38,"time":363.75,"velocity":0.7480314960629921,"duration":0.33749999999997726},{"name":"D2","midi":38,"time":364.125,"velocity":0.7480314960629921,"duration":0.33749999999997726},{"name":"D2","midi":38,"time":364.5,"velocity":0.7480314960629921,"duration":0.33749999999997726},{"name":"D2","midi":38,"time":364.875,"velocity":0.7480314960629921,"duration":0.33749999999997726},{"name":"D2","midi":38,"time":365.25,"velocity":0.7480314960629921,"duration":0.33749999999997726},{"name":"D2","midi":38,"time":365.625,"velocity":0.7480314960629921,"duration":0.33749999999997726},{"name":"D2","midi":38,"time":366,"velocity":0.7480314960629921,"duration":0.33749999999997726},{"name":"D2","midi":38,"time":366.375,"velocity":0.7480314960629921,"duration":0.33749999999997726},{"name":"D2","midi":38,"time":366.75,"velocity":0.7480314960629921,"duration":0.33749999999997726},{"name":"D2","midi":38,"time":367.125,"velocity":0.7480314960629921,"duration":0.33749999999997726},{"name":"D2","midi":38,"time":367.5,"velocity":0.7480314960629921,"duration":0.33749999999997726},{"name":"D2","midi":38,"time":367.875,"velocity":0.7480314960629921,"duration":0.33749999999997726},{"name":"D2","midi":38,"time":368.25,"velocity":0.7480314960629921,"duration":0.33749999999997726},{"name":"D2","midi":38,"time":368.625,"velocity":0.7480314960629921,"duration":0.33749999999997726},{"name":"B1","midi":35,"time":369,"velocity":0.7480314960629921,"duration":0.33749999999997726},{"name":"B1","midi":35,"time":369.375,"velocity":0.7480314960629921,"duration":0.33749999999997726},{"name":"B1","midi":35,"time":369.75,"velocity":0.7480314960629921,"duration":0.33749999999997726},{"name":"B1","midi":35,"time":370.125,"velocity":0.7480314960629921,"duration":0.33749999999997726},{"name":"B1","midi":35,"time":370.5,"velocity":0.7480314960629921,"duration":0.33749999999997726},{"name":"B1","midi":35,"time":370.875,"velocity":0.7480314960629921,"duration":0.33749999999997726},{"name":"B1","midi":35,"time":371.25,"velocity":0.7480314960629921,"duration":0.33749999999997726},{"name":"B1","midi":35,"time":371.625,"velocity":0.7480314960629921,"duration":0.33749999999997726},{"name":"C#2","midi":37,"time":372,"velocity":0.7480314960629921,"duration":0.33749999999997726},{"name":"C#2","midi":37,"time":372.375,"velocity":0.7480314960629921,"duration":0.33749999999997726},{"name":"C#2","midi":37,"time":372.75,"velocity":0.7480314960629921,"duration":0.33749999999997726},{"name":"C#2","midi":37,"time":373.125,"velocity":0.7480314960629921,"duration":0.33749999999997726},{"name":"C#2","midi":37,"time":373.5,"velocity":0.7480314960629921,"duration":0.33749999999997726},{"name":"C#2","midi":37,"time":373.875,"velocity":0.7480314960629921,"duration":0.33749999999997726},{"name":"C#2","midi":37,"time":374.25,"velocity":0.7480314960629921,"duration":0.33749999999997726},{"name":"C#2","midi":37,"time":374.625,"velocity":0.7480314960629921,"duration":0.33749999999997726},{"name":"D2","midi":38,"time":375,"velocity":0.7480314960629921,"duration":0.33749999999997726},{"name":"D2","midi":38,"time":375.375,"velocity":0.7480314960629921,"duration":0.33749999999997726},{"name":"D2","midi":38,"time":375.75,"velocity":0.7480314960629921,"duration":0.33749999999997726},{"name":"D2","midi":38,"time":376.125,"velocity":0.7480314960629921,"duration":0.33749999999997726},{"name":"D2","midi":38,"time":376.5,"velocity":0.7480314960629921,"duration":0.33749999999997726},{"name":"D2","midi":38,"time":376.875,"velocity":0.7480314960629921,"duration":0.33749999999997726},{"name":"D2","midi":38,"time":377.25,"velocity":0.7480314960629921,"duration":0.33749999999997726},{"name":"D2","midi":38,"time":377.625,"velocity":0.7480314960629921,"duration":0.33749999999997726},{"name":"D2","midi":38,"time":378,"velocity":0.7480314960629921,"duration":0.33749999999997726},{"name":"D2","midi":38,"time":378.375,"velocity":0.7480314960629921,"duration":0.33749999999997726},{"name":"D2","midi":38,"time":378.75,"velocity":0.7480314960629921,"duration":0.33749999999997726},{"name":"D2","midi":38,"time":379.125,"velocity":0.7480314960629921,"duration":0.33749999999997726},{"name":"E2","midi":40,"time":379.5,"velocity":0.7480314960629921,"duration":0.33749999999997726},{"name":"E2","midi":40,"time":379.875,"velocity":0.7480314960629921,"duration":0.33749999999997726},{"name":"E2","midi":40,"time":380.25,"velocity":0.7480314960629921,"duration":0.33749999999997726},{"name":"E2","midi":40,"time":380.625,"velocity":0.7480314960629921,"duration":0.33749999999997726},{"name":"A2","midi":45,"time":381,"velocity":0.7480314960629921,"duration":0.33749999999997726},{"name":"A2","midi":45,"time":381.375,"velocity":0.7480314960629921,"duration":0.33749999999997726},{"name":"A2","midi":45,"time":381.75,"velocity":0.7480314960629921,"duration":0.33749999999997726},{"name":"A2","midi":45,"time":382.125,"velocity":0.7480314960629921,"duration":0.33749999999997726},{"name":"A2","midi":45,"time":382.5,"velocity":0.7480314960629921,"duration":0.33749999999997726},{"name":"A2","midi":45,"time":382.875,"velocity":0.7480314960629921,"duration":0.33749999999997726},{"name":"A2","midi":45,"time":383.25,"velocity":0.7480314960629921,"duration":0.33749999999997726},{"name":"A2","midi":45,"time":383.625,"velocity":0.7480314960629921,"duration":0.33749999999997726},{"name":"A2","midi":45,"time":384,"velocity":0.7480314960629921,"duration":0.33749999999997726},{"name":"A2","midi":45,"time":384.375,"velocity":0.7480314960629921,"duration":0.33749999999997726},{"name":"A2","midi":45,"time":384.75,"velocity":0.7480314960629921,"duration":0.33749999999997726},{"name":"A2","midi":45,"time":385.125,"velocity":0.7480314960629921,"duration":0.33749999999997726},{"name":"A2","midi":45,"time":385.5,"velocity":0.7480314960629921,"duration":0.33749999999997726},{"name":"A2","midi":45,"time":385.875,"velocity":0.7480314960629921,"duration":0.33749999999997726},{"name":"A2","midi":45,"time":386.25,"velocity":0.7480314960629921,"duration":0.33749999999997726},{"name":"A2","midi":45,"time":386.625,"velocity":0.7480314960629921,"duration":0.33749999999997726},{"name":"D2","midi":38,"time":387,"velocity":0.7480314960629921,"duration":0.33749999999997726},{"name":"D2","midi":38,"time":387.375,"velocity":0.7480314960629921,"duration":0.33749999999997726},{"name":"D2","midi":38,"time":387.75,"velocity":0.7480314960629921,"duration":0.33749999999997726},{"name":"D2","midi":38,"time":388.125,"velocity":0.7480314960629921,"duration":0.33749999999997726},{"name":"D2","midi":38,"time":388.5,"velocity":0.7480314960629921,"duration":0.33749999999997726},{"name":"D2","midi":38,"time":388.875,"velocity":0.7480314960629921,"duration":0.33749999999997726},{"name":"D2","midi":38,"time":389.25,"velocity":0.7480314960629921,"duration":0.33749999999997726},{"name":"D2","midi":38,"time":389.625,"velocity":0.7480314960629921,"duration":0.33749999999997726},{"name":"D2","midi":38,"time":390,"velocity":0.7480314960629921,"duration":0.33749999999997726},{"name":"D2","midi":38,"time":390.375,"velocity":0.7480314960629921,"duration":0.33749999999997726},{"name":"D2","midi":38,"time":390.75,"velocity":0.7480314960629921,"duration":0.33749999999997726},{"name":"D2","midi":38,"time":391.125,"velocity":0.7480314960629921,"duration":0.33749999999997726},{"name":"D2","midi":38,"time":391.5,"velocity":0.7480314960629921,"duration":0.33749999999997726},{"name":"D2","midi":38,"time":391.875,"velocity":0.7480314960629921,"duration":0.33749999999997726},{"name":"D2","midi":38,"time":392.25,"velocity":0.7480314960629921,"duration":0.33749999999997726},{"name":"D2","midi":38,"time":392.625,"velocity":0.7480314960629921,"duration":0.33749999999997726},{"name":"B1","midi":35,"time":393,"velocity":0.7480314960629921,"duration":0.33749999999997726},{"name":"B1","midi":35,"time":393.375,"velocity":0.7480314960629921,"duration":0.33749999999997726},{"name":"B1","midi":35,"time":393.75,"velocity":0.7480314960629921,"duration":0.33749999999997726},{"name":"B1","midi":35,"time":394.125,"velocity":0.7480314960629921,"duration":0.33749999999997726},{"name":"B1","midi":35,"time":394.5,"velocity":0.7480314960629921,"duration":0.33749999999997726},{"name":"B1","midi":35,"time":394.875,"velocity":0.7480314960629921,"duration":0.33749999999997726},{"name":"B1","midi":35,"time":395.25,"velocity":0.7480314960629921,"duration":0.33749999999997726},{"name":"B1","midi":35,"time":395.625,"velocity":0.7480314960629921,"duration":0.33749999999997726},{"name":"C#2","midi":37,"time":396,"velocity":0.7480314960629921,"duration":0.33749999999997726},{"name":"C#2","midi":37,"time":396.375,"velocity":0.7480314960629921,"duration":0.33749999999997726},{"name":"C#2","midi":37,"time":396.75,"velocity":0.7480314960629921,"duration":0.33749999999997726},{"name":"C#2","midi":37,"time":397.125,"velocity":0.7480314960629921,"duration":0.33749999999997726},{"name":"C#2","midi":37,"time":397.5,"velocity":0.7480314960629921,"duration":0.33749999999997726},{"name":"C#2","midi":37,"time":397.875,"velocity":0.7480314960629921,"duration":0.33749999999997726},{"name":"C#2","midi":37,"time":398.25,"velocity":0.7480314960629921,"duration":0.33749999999997726},{"name":"C#2","midi":37,"time":398.625,"velocity":0.7480314960629921,"duration":0.33749999999997726},{"name":"D2","midi":38,"time":399,"velocity":0.7480314960629921,"duration":0.33749999999997726},{"name":"D2","midi":38,"time":399.375,"velocity":0.7480314960629921,"duration":0.33749999999997726},{"name":"D2","midi":38,"time":399.75,"velocity":0.7480314960629921,"duration":0.33749999999997726},{"name":"D2","midi":38,"time":400.125,"velocity":0.7480314960629921,"duration":0.33749999999997726},{"name":"D2","midi":38,"time":400.5,"velocity":0.7480314960629921,"duration":0.33749999999997726},{"name":"D2","midi":38,"time":400.875,"velocity":0.7480314960629921,"duration":0.33749999999997726},{"name":"D2","midi":38,"time":401.25,"velocity":0.7480314960629921,"duration":0.33749999999997726},{"name":"D2","midi":38,"time":401.625,"velocity":0.7480314960629921,"duration":0.33749999999997726},{"name":"D2","midi":38,"time":402,"velocity":0.7480314960629921,"duration":0.33749999999997726},{"name":"D2","midi":38,"time":402.375,"velocity":0.7480314960629921,"duration":0.33749999999997726},{"name":"D2","midi":38,"time":402.75,"velocity":0.7480314960629921,"duration":0.33749999999997726},{"name":"D2","midi":38,"time":403.125,"velocity":0.7480314960629921,"duration":0.33749999999997726},{"name":"E2","midi":40,"time":403.5,"velocity":0.7480314960629921,"duration":0.33749999999997726},{"name":"E2","midi":40,"time":403.875,"velocity":0.7480314960629921,"duration":0.33749999999997726},{"name":"E2","midi":40,"time":404.25,"velocity":0.7480314960629921,"duration":0.33749999999997726},{"name":"E2","midi":40,"time":404.625,"velocity":0.7480314960629921,"duration":0.33749999999997726},{"name":"A2","midi":45,"time":405,"velocity":0.7480314960629921,"duration":0.33749999999997726},{"name":"A2","midi":45,"time":405.375,"velocity":0.7480314960629921,"duration":0.33749999999997726},{"name":"A2","midi":45,"time":405.75,"velocity":0.7480314960629921,"duration":0.33749999999997726},{"name":"A2","midi":45,"time":406.125,"velocity":0.7480314960629921,"duration":0.33749999999997726},{"name":"A2","midi":45,"time":406.5,"velocity":0.7480314960629921,"duration":0.33749999999997726},{"name":"A2","midi":45,"time":406.875,"velocity":0.7480314960629921,"duration":0.33749999999997726},{"name":"A2","midi":45,"time":407.25,"velocity":0.7480314960629921,"duration":0.33749999999997726},{"name":"A2","midi":45,"time":407.625,"velocity":0.7480314960629921,"duration":0.33749999999997726},{"name":"A2","midi":45,"time":408,"velocity":0.7480314960629921,"duration":0.33749999999997726},{"name":"A2","midi":45,"time":408.375,"velocity":0.7480314960629921,"duration":0.33749999999997726},{"name":"A2","midi":45,"time":408.75,"velocity":0.7480314960629921,"duration":0.33749999999997726},{"name":"A2","midi":45,"time":409.125,"velocity":0.7480314960629921,"duration":0.33749999999997726},{"name":"A2","midi":45,"time":409.5,"velocity":0.7480314960629921,"duration":0.33749999999997726},{"name":"A2","midi":45,"time":409.875,"velocity":0.7480314960629921,"duration":0.33749999999997726},{"name":"A2","midi":45,"time":410.25,"velocity":0.7480314960629921,"duration":0.33749999999997726},{"name":"A2","midi":45,"time":410.625,"velocity":0.7480314960629921,"duration":0.33749999999997726},{"name":"D2","midi":38,"time":411,"velocity":0.7480314960629921,"duration":0.33749999999997726},{"name":"D2","midi":38,"time":411.375,"velocity":0.7480314960629921,"duration":0.33749999999997726},{"name":"D2","midi":38,"time":411.75,"velocity":0.7480314960629921,"duration":0.33749999999997726},{"name":"D2","midi":38,"time":412.125,"velocity":0.7480314960629921,"duration":0.33749999999997726},{"name":"D2","midi":38,"time":412.5,"velocity":0.7480314960629921,"duration":0.33749999999997726},{"name":"D2","midi":38,"time":412.875,"velocity":0.7480314960629921,"duration":0.33749999999997726},{"name":"D2","midi":38,"time":413.25,"velocity":0.7480314960629921,"duration":0.33749999999997726},{"name":"D2","midi":38,"time":413.625,"velocity":0.7480314960629921,"duration":0.33749999999997726},{"name":"D2","midi":38,"time":414,"velocity":0.7480314960629921,"duration":0.33749999999997726},{"name":"D2","midi":38,"time":414.375,"velocity":0.7480314960629921,"duration":0.33749999999997726},{"name":"D2","midi":38,"time":414.75,"velocity":0.7480314960629921,"duration":0.33749999999997726},{"name":"D2","midi":38,"time":415.125,"velocity":0.7480314960629921,"duration":0.33749999999997726},{"name":"D2","midi":38,"time":415.5,"velocity":0.7480314960629921,"duration":0.33749999999997726},{"name":"D2","midi":38,"time":415.875,"velocity":0.7480314960629921,"duration":0.33749999999997726},{"name":"D2","midi":38,"time":416.25,"velocity":0.7480314960629921,"duration":0.33749999999997726},{"name":"D2","midi":38,"time":416.625,"velocity":0.7480314960629921,"duration":0.33749999999997726},{"name":"B1","midi":35,"time":417,"velocity":0.7480314960629921,"duration":0.33749999999997726},{"name":"B1","midi":35,"time":417.375,"velocity":0.7480314960629921,"duration":0.33749999999997726},{"name":"B1","midi":35,"time":417.75,"velocity":0.7480314960629921,"duration":0.33749999999997726},{"name":"B1","midi":35,"time":418.125,"velocity":0.7480314960629921,"duration":0.33749999999997726},{"name":"B1","midi":35,"time":418.5,"velocity":0.7480314960629921,"duration":0.33749999999997726},{"name":"B1","midi":35,"time":418.875,"velocity":0.7480314960629921,"duration":0.33749999999997726},{"name":"B1","midi":35,"time":419.25,"velocity":0.7480314960629921,"duration":0.33749999999997726},{"name":"B1","midi":35,"time":419.625,"velocity":0.7480314960629921,"duration":0.33749999999997726},{"name":"C#2","midi":37,"time":420,"velocity":0.7480314960629921,"duration":0.33749999999997726},{"name":"C#2","midi":37,"time":420.375,"velocity":0.7480314960629921,"duration":0.33749999999997726},{"name":"C#2","midi":37,"time":420.75,"velocity":0.7480314960629921,"duration":0.33749999999997726},{"name":"C#2","midi":37,"time":421.125,"velocity":0.7480314960629921,"duration":0.33749999999997726},{"name":"C#2","midi":37,"time":421.5,"velocity":0.7480314960629921,"duration":0.33749999999997726},{"name":"C#2","midi":37,"time":421.875,"velocity":0.7480314960629921,"duration":0.33749999999997726},{"name":"C#2","midi":37,"time":422.25,"velocity":0.7480314960629921,"duration":0.33749999999997726},{"name":"C#2","midi":37,"time":422.625,"velocity":0.7480314960629921,"duration":0.33749999999997726},{"name":"D2","midi":38,"time":423,"velocity":0.7480314960629921,"duration":0.33749999999997726},{"name":"D2","midi":38,"time":423.375,"velocity":0.7480314960629921,"duration":0.33749999999997726},{"name":"D2","midi":38,"time":423.75,"velocity":0.7480314960629921,"duration":0.33749999999997726},{"name":"D2","midi":38,"time":424.125,"velocity":0.7480314960629921,"duration":0.33749999999997726},{"name":"D2","midi":38,"time":424.5,"velocity":0.7480314960629921,"duration":0.33749999999997726},{"name":"D2","midi":38,"time":424.875,"velocity":0.7480314960629921,"duration":0.33749999999997726},{"name":"D2","midi":38,"time":425.25,"velocity":0.7480314960629921,"duration":0.33749999999997726},{"name":"D2","midi":38,"time":425.625,"velocity":0.7480314960629921,"duration":0.33749999999997726},{"name":"D2","midi":38,"time":426,"velocity":0.7480314960629921,"duration":0.33749999999997726},{"name":"D2","midi":38,"time":426.375,"velocity":0.7480314960629921,"duration":0.33749999999997726},{"name":"D2","midi":38,"time":426.75,"velocity":0.7480314960629921,"duration":0.33749999999997726},{"name":"D2","midi":38,"time":427.125,"velocity":0.7480314960629921,"duration":0.33749999999997726},{"name":"E2","midi":40,"time":427.5,"velocity":0.7480314960629921,"duration":0.33749999999997726},{"name":"E2","midi":40,"time":427.875,"velocity":0.7480314960629921,"duration":0.33749999999997726},{"name":"E2","midi":40,"time":428.25,"velocity":0.7480314960629921,"duration":0.33749999999997726},{"name":"E2","midi":40,"time":428.625,"velocity":0.7480314960629921,"duration":0.33749999999997726},{"name":"A2","midi":45,"time":429,"velocity":0.7480314960629921,"duration":0.33749999999997726},{"name":"A2","midi":45,"time":429.375,"velocity":0.7480314960629921,"duration":0.33749999999997726},{"name":"A2","midi":45,"time":429.75,"velocity":0.7480314960629921,"duration":0.33749999999997726},{"name":"A2","midi":45,"time":430.125,"velocity":0.7480314960629921,"duration":0.33749999999997726},{"name":"A2","midi":45,"time":430.5,"velocity":0.7480314960629921,"duration":0.33749999999997726},{"name":"A2","midi":45,"time":430.875,"velocity":0.7480314960629921,"duration":0.33749999999997726},{"name":"A2","midi":45,"time":431.25,"velocity":0.7480314960629921,"duration":0.33749999999997726},{"name":"A2","midi":45,"time":431.625,"velocity":0.7480314960629921,"duration":0.33749999999997726},{"name":"A2","midi":45,"time":432,"velocity":0.7480314960629921,"duration":0.33749999999997726},{"name":"A2","midi":45,"time":432.375,"velocity":0.7480314960629921,"duration":0.33749999999997726},{"name":"A2","midi":45,"time":432.75,"velocity":0.7480314960629921,"duration":0.33749999999997726},{"name":"A2","midi":45,"time":433.125,"velocity":0.7480314960629921,"duration":0.33749999999997726},{"name":"A2","midi":45,"time":433.5,"velocity":0.7480314960629921,"duration":0.33749999999997726},{"name":"A2","midi":45,"time":433.875,"velocity":0.7480314960629921,"duration":0.33749999999997726},{"name":"A2","midi":45,"time":434.25,"velocity":0.7480314960629921,"duration":0.33749999999997726},{"name":"A2","midi":45,"time":434.625,"velocity":0.7480314960629921,"duration":0.33749999999997726},{"name":"D2","midi":38,"time":435,"velocity":0.7480314960629921,"duration":0.33749999999997726},{"name":"D2","midi":38,"time":435.375,"velocity":0.7480314960629921,"duration":0.33749999999997726},{"name":"D2","midi":38,"time":435.75,"velocity":0.7480314960629921,"duration":0.33749999999997726},{"name":"D2","midi":38,"time":436.125,"velocity":0.7480314960629921,"duration":0.33749999999997726},{"name":"D2","midi":38,"time":436.5,"velocity":0.7480314960629921,"duration":0.33749999999997726},{"name":"D2","midi":38,"time":436.875,"velocity":0.7480314960629921,"duration":0.33749999999997726},{"name":"D2","midi":38,"time":437.25,"velocity":0.7480314960629921,"duration":0.33749999999997726},{"name":"D2","midi":38,"time":437.625,"velocity":0.7480314960629921,"duration":0.33749999999997726},{"name":"D2","midi":38,"time":438,"velocity":0.7480314960629921,"duration":0.33749999999997726},{"name":"D2","midi":38,"time":438.375,"velocity":0.7480314960629921,"duration":0.33749999999997726},{"name":"D2","midi":38,"time":438.75,"velocity":0.7480314960629921,"duration":0.33749999999997726},{"name":"D2","midi":38,"time":439.125,"velocity":0.7480314960629921,"duration":0.33749999999997726},{"name":"D2","midi":38,"time":439.5,"velocity":0.7480314960629921,"duration":0.33749999999997726},{"name":"D2","midi":38,"time":439.875,"velocity":0.7480314960629921,"duration":0.33749999999997726},{"name":"D2","midi":38,"time":440.25,"velocity":0.7480314960629921,"duration":0.33749999999997726},{"name":"D2","midi":38,"time":440.625,"velocity":0.7480314960629921,"duration":0.33749999999997726},{"name":"B1","midi":35,"time":441,"velocity":0.7480314960629921,"duration":0.33749999999997726},{"name":"B1","midi":35,"time":441.375,"velocity":0.7480314960629921,"duration":0.33749999999997726},{"name":"B1","midi":35,"time":441.75,"velocity":0.7480314960629921,"duration":0.33749999999997726},{"name":"B1","midi":35,"time":442.125,"velocity":0.7480314960629921,"duration":0.33749999999997726},{"name":"B1","midi":35,"time":442.5,"velocity":0.7480314960629921,"duration":0.33749999999997726},{"name":"B1","midi":35,"time":442.875,"velocity":0.7480314960629921,"duration":0.33749999999997726},{"name":"B1","midi":35,"time":443.25,"velocity":0.7480314960629921,"duration":0.33749999999997726},{"name":"B1","midi":35,"time":443.625,"velocity":0.7480314960629921,"duration":0.33749999999997726},{"name":"C#2","midi":37,"time":444,"velocity":0.7480314960629921,"duration":0.33749999999997726},{"name":"C#2","midi":37,"time":444.375,"velocity":0.7480314960629921,"duration":0.33749999999997726},{"name":"C#2","midi":37,"time":444.75,"velocity":0.7480314960629921,"duration":0.33749999999997726},{"name":"C#2","midi":37,"time":445.125,"velocity":0.7480314960629921,"duration":0.33749999999997726},{"name":"C#2","midi":37,"time":445.5,"velocity":0.7480314960629921,"duration":0.33749999999997726},{"name":"C#2","midi":37,"time":445.875,"velocity":0.7480314960629921,"duration":0.33749999999997726},{"name":"C#2","midi":37,"time":446.25,"velocity":0.7480314960629921,"duration":0.33749999999997726},{"name":"C#2","midi":37,"time":446.625,"velocity":0.7480314960629921,"duration":0.33749999999997726},{"name":"D2","midi":38,"time":447,"velocity":0.7480314960629921,"duration":0.33749999999997726},{"name":"D2","midi":38,"time":447.375,"velocity":0.7480314960629921,"duration":0.33749999999997726},{"name":"D2","midi":38,"time":447.75,"velocity":0.7480314960629921,"duration":0.33749999999997726},{"name":"D2","midi":38,"time":448.125,"velocity":0.7480314960629921,"duration":0.33749999999997726},{"name":"D2","midi":38,"time":448.5,"velocity":0.7480314960629921,"duration":0.33749999999997726},{"name":"D2","midi":38,"time":448.875,"velocity":0.7480314960629921,"duration":0.33749999999997726},{"name":"D2","midi":38,"time":449.25,"velocity":0.7480314960629921,"duration":0.33749999999997726},{"name":"D2","midi":38,"time":449.625,"velocity":0.7480314960629921,"duration":0.33749999999997726},{"name":"D2","midi":38,"time":450,"velocity":0.7480314960629921,"duration":0.33749999999997726},{"name":"D2","midi":38,"time":450.375,"velocity":0.7480314960629921,"duration":0.33749999999997726},{"name":"D2","midi":38,"time":450.75,"velocity":0.7480314960629921,"duration":0.33749999999997726},{"name":"D2","midi":38,"time":451.125,"velocity":0.7480314960629921,"duration":0.33749999999997726},{"name":"E2","midi":40,"time":451.5,"velocity":0.7480314960629921,"duration":0.33749999999997726},{"name":"E2","midi":40,"time":451.875,"velocity":0.7480314960629921,"duration":0.33749999999997726},{"name":"E2","midi":40,"time":452.25,"velocity":0.7480314960629921,"duration":0.33749999999997726},{"name":"E2","midi":40,"time":452.625,"velocity":0.7480314960629921,"duration":0.33749999999997726},{"name":"A2","midi":45,"time":453,"velocity":0.7480314960629921,"duration":0.33749999999997726},{"name":"A2","midi":45,"time":453.375,"velocity":0.7480314960629921,"duration":0.33749999999997726},{"name":"A2","midi":45,"time":453.75,"velocity":0.7480314960629921,"duration":0.33749999999997726},{"name":"A2","midi":45,"time":454.125,"velocity":0.7480314960629921,"duration":0.33749999999997726},{"name":"A2","midi":45,"time":454.5,"velocity":0.7480314960629921,"duration":0.33749999999997726},{"name":"A2","midi":45,"time":454.875,"velocity":0.7480314960629921,"duration":0.33749999999997726},{"name":"A2","midi":45,"time":455.25,"velocity":0.7480314960629921,"duration":0.33749999999997726},{"name":"A2","midi":45,"time":455.625,"velocity":0.7480314960629921,"duration":0.33749999999997726},{"name":"A2","midi":45,"time":456,"velocity":0.7480314960629921,"duration":0.33749999999997726},{"name":"A2","midi":45,"time":456.375,"velocity":0.7480314960629921,"duration":0.33749999999997726},{"name":"A2","midi":45,"time":456.75,"velocity":0.7480314960629921,"duration":0.33749999999997726},{"name":"A2","midi":45,"time":457.125,"velocity":0.7480314960629921,"duration":0.33749999999997726},{"name":"A2","midi":45,"time":457.5,"velocity":0.7480314960629921,"duration":0.33749999999997726},{"name":"A2","midi":45,"time":457.875,"velocity":0.7480314960629921,"duration":0.33749999999997726},{"name":"A2","midi":45,"time":458.25,"velocity":0.7480314960629921,"duration":0.33749999999997726},{"name":"A2","midi":45,"time":458.625,"velocity":0.7480314960629921,"duration":0.33749999999997726},{"name":"D2","midi":38,"time":459,"velocity":0.7480314960629921,"duration":0.33749999999997726},{"name":"D2","midi":38,"time":459.375,"velocity":0.7480314960629921,"duration":0.33749999999997726},{"name":"D2","midi":38,"time":459.75,"velocity":0.7480314960629921,"duration":0.33749999999997726},{"name":"D2","midi":38,"time":460.125,"velocity":0.7480314960629921,"duration":0.33749999999997726},{"name":"D2","midi":38,"time":460.5,"velocity":0.7480314960629921,"duration":0.33749999999997726},{"name":"D2","midi":38,"time":460.875,"velocity":0.7480314960629921,"duration":0.33749999999997726},{"name":"D2","midi":38,"time":461.25,"velocity":0.7480314960629921,"duration":0.33749999999997726},{"name":"D2","midi":38,"time":461.625,"velocity":0.7480314960629921,"duration":0.33749999999997726},{"name":"D2","midi":38,"time":462,"velocity":0.7480314960629921,"duration":0.33749999999997726},{"name":"D2","midi":38,"time":462.375,"velocity":0.7480314960629921,"duration":0.33749999999997726},{"name":"D2","midi":38,"time":462.75,"velocity":0.7480314960629921,"duration":0.33749999999997726},{"name":"D2","midi":38,"time":463.125,"velocity":0.7480314960629921,"duration":0.33749999999997726},{"name":"D2","midi":38,"time":463.5,"velocity":0.7480314960629921,"duration":0.33749999999997726},{"name":"D2","midi":38,"time":463.875,"velocity":0.7480314960629921,"duration":0.33749999999997726},{"name":"D2","midi":38,"time":464.25,"velocity":0.7480314960629921,"duration":0.33749999999997726},{"name":"D2","midi":38,"time":464.625,"velocity":0.7480314960629921,"duration":0.33749999999997726},{"name":"B1","midi":35,"time":465,"velocity":0.7480314960629921,"duration":0.33749999999997726},{"name":"B1","midi":35,"time":465.375,"velocity":0.7480314960629921,"duration":0.33749999999997726},{"name":"B1","midi":35,"time":465.75,"velocity":0.7480314960629921,"duration":0.33749999999997726},{"name":"B1","midi":35,"time":466.125,"velocity":0.7480314960629921,"duration":0.33749999999997726},{"name":"B1","midi":35,"time":466.5,"velocity":0.7480314960629921,"duration":0.33749999999997726},{"name":"B1","midi":35,"time":466.875,"velocity":0.7480314960629921,"duration":0.33749999999997726},{"name":"B1","midi":35,"time":467.25,"velocity":0.7480314960629921,"duration":0.33749999999997726},{"name":"B1","midi":35,"time":467.625,"velocity":0.7480314960629921,"duration":0.33749999999997726},{"name":"C#2","midi":37,"time":468,"velocity":0.7480314960629921,"duration":0.33749999999997726},{"name":"C#2","midi":37,"time":468.375,"velocity":0.7480314960629921,"duration":0.33749999999997726},{"name":"C#2","midi":37,"time":468.75,"velocity":0.7480314960629921,"duration":0.33749999999997726},{"name":"C#2","midi":37,"time":469.125,"velocity":0.7480314960629921,"duration":0.33749999999997726},{"name":"C#2","midi":37,"time":469.5,"velocity":0.7480314960629921,"duration":0.33749999999997726},{"name":"C#2","midi":37,"time":469.875,"velocity":0.7480314960629921,"duration":0.33749999999997726},{"name":"C#2","midi":37,"time":470.25,"velocity":0.7480314960629921,"duration":0.33749999999997726},{"name":"C#2","midi":37,"time":470.625,"velocity":0.7480314960629921,"duration":0.33749999999997726},{"name":"D2","midi":38,"time":471,"velocity":0.7480314960629921,"duration":0.33749999999997726},{"name":"D2","midi":38,"time":471.375,"velocity":0.7480314960629921,"duration":0.33749999999997726},{"name":"D2","midi":38,"time":471.75,"velocity":0.7480314960629921,"duration":0.33749999999997726},{"name":"D2","midi":38,"time":472.125,"velocity":0.7480314960629921,"duration":0.33749999999997726},{"name":"D2","midi":38,"time":472.5,"velocity":0.7480314960629921,"duration":0.33749999999997726},{"name":"D2","midi":38,"time":472.875,"velocity":0.7480314960629921,"duration":0.33749999999997726},{"name":"D2","midi":38,"time":473.25,"velocity":0.7480314960629921,"duration":0.33749999999997726},{"name":"D2","midi":38,"time":473.625,"velocity":0.7480314960629921,"duration":0.33749999999997726},{"name":"D2","midi":38,"time":474,"velocity":0.7480314960629921,"duration":0.33749999999997726},{"name":"D2","midi":38,"time":474.375,"velocity":0.7480314960629921,"duration":0.33749999999997726},{"name":"D2","midi":38,"time":474.75,"velocity":0.7480314960629921,"duration":0.33749999999997726},{"name":"D2","midi":38,"time":475.125,"velocity":0.7480314960629921,"duration":0.33749999999997726},{"name":"E2","midi":40,"time":475.5,"velocity":0.7480314960629921,"duration":0.33749999999997726},{"name":"E2","midi":40,"time":475.875,"velocity":0.7480314960629921,"duration":0.33749999999997726},{"name":"E2","midi":40,"time":476.25,"velocity":0.7480314960629921,"duration":0.33749999999997726},{"name":"E2","midi":40,"time":476.625,"velocity":0.7480314960629921,"duration":0.33749999999997726},{"name":"A2","midi":45,"time":477,"velocity":0.7480314960629921,"duration":0.33749999999997726},{"name":"A2","midi":45,"time":477.375,"velocity":0.7480314960629921,"duration":0.33749999999997726},{"name":"A2","midi":45,"time":477.75,"velocity":0.7480314960629921,"duration":0.33749999999997726},{"name":"A2","midi":45,"time":478.125,"velocity":0.7480314960629921,"duration":0.33749999999997726},{"name":"A2","midi":45,"time":478.5,"velocity":0.7480314960629921,"duration":0.33749999999997726},{"name":"A2","midi":45,"time":478.875,"velocity":0.7480314960629921,"duration":0.33749999999997726},{"name":"A2","midi":45,"time":479.25,"velocity":0.7480314960629921,"duration":0.33749999999997726},{"name":"A2","midi":45,"time":479.625,"velocity":0.7480314960629921,"duration":0.33749999999997726},{"name":"A2","midi":45,"time":480,"velocity":0.7480314960629921,"duration":0.33749999999997726},{"name":"A2","midi":45,"time":480.375,"velocity":0.7480314960629921,"duration":0.33749999999997726},{"name":"A2","midi":45,"time":480.75,"velocity":0.7480314960629921,"duration":0.33749999999997726},{"name":"A2","midi":45,"time":481.125,"velocity":0.7480314960629921,"duration":0.33749999999997726},{"name":"A2","midi":45,"time":481.5,"velocity":0.7480314960629921,"duration":0.33749999999997726},{"name":"A2","midi":45,"time":481.875,"velocity":0.7480314960629921,"duration":0.33749999999997726},{"name":"A2","midi":45,"time":482.25,"velocity":0.7480314960629921,"duration":0.33749999999997726},{"name":"A2","midi":45,"time":482.625,"velocity":0.7480314960629921,"duration":0.33749999999997726},{"name":"D2","midi":38,"time":483,"velocity":0.7480314960629921,"duration":0.33749999999997726},{"name":"D2","midi":38,"time":483.375,"velocity":0.7480314960629921,"duration":0.33749999999997726},{"name":"D2","midi":38,"time":483.75,"velocity":0.7480314960629921,"duration":0.33749999999997726},{"name":"D2","midi":38,"time":484.125,"velocity":0.7480314960629921,"duration":0.33749999999997726},{"name":"D2","midi":38,"time":484.5,"velocity":0.7480314960629921,"duration":0.33749999999997726},{"name":"D2","midi":38,"time":484.875,"velocity":0.7480314960629921,"duration":0.33749999999997726},{"name":"D2","midi":38,"time":485.25,"velocity":0.7480314960629921,"duration":0.33749999999997726},{"name":"D2","midi":38,"time":485.625,"velocity":0.7480314960629921,"duration":0.33749999999997726},{"name":"D2","midi":38,"time":486,"velocity":0.7480314960629921,"duration":0.33749999999997726},{"name":"D2","midi":38,"time":486.375,"velocity":0.7480314960629921,"duration":0.33749999999997726},{"name":"D2","midi":38,"time":486.75,"velocity":0.7480314960629921,"duration":0.33749999999997726},{"name":"D2","midi":38,"time":487.125,"velocity":0.7480314960629921,"duration":0.33749999999997726},{"name":"D2","midi":38,"time":487.5,"velocity":0.7480314960629921,"duration":0.33749999999997726},{"name":"D2","midi":38,"time":487.875,"velocity":0.7480314960629921,"duration":0.33749999999997726},{"name":"D2","midi":38,"time":488.25,"velocity":0.7480314960629921,"duration":0.33749999999997726},{"name":"D2","midi":38,"time":488.625,"velocity":0.7480314960629921,"duration":0.33749999999997726},{"name":"B1","midi":35,"time":489,"velocity":0.7480314960629921,"duration":0.33749999999997726},{"name":"B1","midi":35,"time":489.375,"velocity":0.7480314960629921,"duration":0.33749999999997726},{"name":"B1","midi":35,"time":489.75,"velocity":0.7480314960629921,"duration":0.33749999999997726},{"name":"B1","midi":35,"time":490.125,"velocity":0.7480314960629921,"duration":0.33749999999997726},{"name":"B1","midi":35,"time":490.5,"velocity":0.7480314960629921,"duration":0.33749999999997726},{"name":"B1","midi":35,"time":490.875,"velocity":0.7480314960629921,"duration":0.33749999999997726},{"name":"B1","midi":35,"time":491.25,"velocity":0.7480314960629921,"duration":0.33749999999997726},{"name":"B1","midi":35,"time":491.625,"velocity":0.7480314960629921,"duration":0.33749999999997726},{"name":"C#2","midi":37,"time":492,"velocity":0.7480314960629921,"duration":0.33749999999997726},{"name":"C#2","midi":37,"time":492.375,"velocity":0.7480314960629921,"duration":0.33749999999997726},{"name":"C#2","midi":37,"time":492.75,"velocity":0.7480314960629921,"duration":0.33749999999997726},{"name":"C#2","midi":37,"time":493.125,"velocity":0.7480314960629921,"duration":0.33749999999997726},{"name":"C#2","midi":37,"time":493.5,"velocity":0.7480314960629921,"duration":0.33749999999997726},{"name":"C#2","midi":37,"time":493.875,"velocity":0.7480314960629921,"duration":0.33749999999997726},{"name":"C#2","midi":37,"time":494.25,"velocity":0.7480314960629921,"duration":0.33749999999997726},{"name":"C#2","midi":37,"time":494.625,"velocity":0.7480314960629921,"duration":0.33749999999997726},{"name":"D2","midi":38,"time":495,"velocity":0.7480314960629921,"duration":0.33749999999997726},{"name":"D2","midi":38,"time":495.375,"velocity":0.7480314960629921,"duration":0.33749999999997726},{"name":"D2","midi":38,"time":495.75,"velocity":0.7480314960629921,"duration":0.33749999999997726},{"name":"D2","midi":38,"time":496.125,"velocity":0.7480314960629921,"duration":0.33749999999997726},{"name":"D2","midi":38,"time":496.5,"velocity":0.7480314960629921,"duration":0.33749999999997726},{"name":"D2","midi":38,"time":496.875,"velocity":0.7480314960629921,"duration":0.33749999999997726},{"name":"D2","midi":38,"time":497.25,"velocity":0.7480314960629921,"duration":0.33749999999997726},{"name":"D2","midi":38,"time":497.625,"velocity":0.7480314960629921,"duration":0.33749999999997726},{"name":"D2","midi":38,"time":498,"velocity":0.7480314960629921,"duration":0.33749999999997726},{"name":"D2","midi":38,"time":498.375,"velocity":0.7480314960629921,"duration":0.33749999999997726},{"name":"D2","midi":38,"time":498.75,"velocity":0.7480314960629921,"duration":0.33749999999997726},{"name":"D2","midi":38,"time":499.125,"velocity":0.7480314960629921,"duration":0.33749999999997726},{"name":"E2","midi":40,"time":499.5,"velocity":0.7480314960629921,"duration":0.33749999999997726},{"name":"E2","midi":40,"time":499.875,"velocity":0.7480314960629921,"duration":0.33749999999997726},{"name":"E2","midi":40,"time":500.25,"velocity":0.7480314960629921,"duration":0.33749999999997726},{"name":"E2","midi":40,"time":500.625,"velocity":0.7480314960629921,"duration":1.7749999999999773},{"name":"A1","midi":33,"time":502.5,"velocity":0.7480314960629921,"duration":0.16874999999998863},{"name":"A1","midi":33,"time":502.6875,"velocity":0.7480314960629921,"duration":0.16874999999998863},{"name":"A1","midi":33,"time":502.875,"velocity":0.7480314960629921,"duration":0.16874999999998863},{"name":"A1","midi":33,"time":503.0625,"velocity":0.7480314960629921,"duration":0.16874999999998863},{"name":"A1","midi":33,"time":503.25,"velocity":0.7480314960629921,"duration":0.16874999999998863},{"name":"A1","midi":33,"time":503.4375,"velocity":0.7480314960629921,"duration":0.16874999999998863},{"name":"A1","midi":33,"time":503.625,"velocity":0.7480314960629921,"duration":0.16874999999998863},{"name":"A1","midi":33,"time":503.8125,"velocity":0.7480314960629921,"duration":0.16874999999998863},{"name":"A1","midi":33,"time":504,"velocity":0.7480314960629921,"duration":0.16874999999998863},{"name":"A1","midi":33,"time":504.1875,"velocity":0.7480314960629921,"duration":0.16874999999998863},{"name":"A1","midi":33,"time":504.375,"velocity":0.7480314960629921,"duration":0.16874999999998863},{"name":"A1","midi":33,"time":504.5625,"velocity":0.7480314960629921,"duration":0.16874999999998863},{"name":"A1","midi":33,"time":504.75,"velocity":0.7480314960629921,"duration":0.16874999999998863},{"name":"A1","midi":33,"time":504.9375,"velocity":0.7480314960629921,"duration":0.16874999999998863},{"name":"A1","midi":33,"time":505.125,"velocity":0.7480314960629921,"duration":0.16874999999998863},{"name":"A1","midi":33,"time":505.3125,"velocity":0.7480314960629921,"duration":0.16874999999998863},{"name":"A1","midi":33,"time":505.5,"velocity":0.7480314960629921,"duration":0.16874999999998863},{"name":"A1","midi":33,"time":505.6875,"velocity":0.7480314960629921,"duration":0.16874999999998863},{"name":"A1","midi":33,"time":505.875,"velocity":0.7480314960629921,"duration":0.16874999999998863},{"name":"A1","midi":33,"time":506.0625,"velocity":0.7480314960629921,"duration":0.16874999999998863},{"name":"A1","midi":33,"time":506.25,"velocity":0.7480314960629921,"duration":0.16874999999998863},{"name":"A1","midi":33,"time":506.4375,"velocity":0.7480314960629921,"duration":0.16874999999998863},{"name":"A1","midi":33,"time":506.625,"velocity":0.7480314960629921,"duration":0.16874999999998863},{"name":"A1","midi":33,"time":506.8125,"velocity":0.7480314960629921,"duration":0.16874999999998863},{"name":"A1","midi":33,"time":507,"velocity":0.7480314960629921,"duration":0.16874999999998863},{"name":"A1","midi":33,"time":507.1875,"velocity":0.7480314960629921,"duration":0.16874999999998863},{"name":"A1","midi":33,"time":507.375,"velocity":0.7480314960629921,"duration":0.16874999999998863},{"name":"A1","midi":33,"time":507.5625,"velocity":0.7480314960629921,"duration":0.16874999999998863},{"name":"A1","midi":33,"time":507.75,"velocity":0.7480314960629921,"duration":0.16874999999998863},{"name":"A1","midi":33,"time":507.9375,"velocity":0.7480314960629921,"duration":0.16874999999998863},{"name":"A1","midi":33,"time":508.125,"velocity":0.7480314960629921,"duration":0.16874999999998863},{"name":"A1","midi":33,"time":508.3125,"velocity":0.7480314960629921,"duration":0.16874999999998863},{"name":"A1","midi":33,"time":508.5,"velocity":0.7480314960629921,"duration":15}]}]}
