{"bpm":80,"duration":553.5,"tracks":[{"instrumentFamily":"piano","notes":[{"name":"D4","midi":62,"time":0,"velocity":0.7480314960629921,"duration":0.3375},{"name":"D4","midi":62,"time":0.375,"velocity":0.7480314960629921,"duration":0.3375},{"name":"E4","midi":64,"time":0.75,"velocity":0.7480314960629921,"duration":0.675},{"name":"D4","midi":62,"time":1.5,"velocity":0.7480314960629921,"duration":0.6749999999999998},{"name":"G4","midi":67,"time":2.25,"velocity":0.7480314960629921,"duration":0.6749999999999998},{"name":"F#4","midi":66,"time":3,"velocity":0.7480314960629921,"duration":1.4000000000000004},{"name":"D4","midi":62,"time":4.5,"velocity":0.7480314960629921,"duration":0.33750000000000036},{"name":"D4","midi":62,"time":4.875,"velocity":0.7480314960629921,"duration":0.33750000000000036},{"name":"E4","midi":64,"time":5.25,"velocity":0.7480314960629921,"duration":0.6749999999999998},{"name":"D4","midi":62,"time":6,"velocity":0.7480314960629921,"duration":0.6749999999999998},{"name":"A4","midi":69,"time":6.75,"velocity":0.7480314960629921,"duration":0.6749999999999998},{"name":"G4","midi":67,"time":7.5,"velocity":0.7480314960629921,"duration":1.4000000000000004},{"name":"D4","midi":62,"time":9,"velocity":0.7480314960629921,"duration":0.33750000000000036},{"name":"D4","midi":62,"time":9.375,"velocity":0.7480314960629921,"duration":0.33750000000000036},{"name":"D5","midi":74,"time":9.75,"velocity":0.7480314960629921,"duration":0.6750000000000007},{"name":"B4","midi":71,"time":10.5,"velocity":0.7480314960629921,"duration":0.6750000000000007},{"name":"G4","midi":67,"time":11.25,"velocity":0.7480314960629921,"duration":0.6750000000000007},{"name":"F#4","midi":66,"time":12,"velocity":0.7480314960629921,"duration":0.6750000000000007},{"name":"E4","midi":64,"time":12.75,"velocity":0.7480314960629921,"duration":0.6750000000000007},{"name":"C5","midi":72,"time":13.5,"velocity":0.7480314960629921,"duration":0.33750000000000036},{"name":"C5","midi":72,"time":13.875,"velocity":0.7480314960629921,"duration":0.33750000000000036},{"name":"B4","midi":71,"time":14.25,"velocity":0.7480314960629921,"duration":0.6750000000000007},{"name":"G4","midi":67,"time":15,"velocity":0.7480314960629921,"duration":0.6750000000000007},{"name":"A4","midi":69,"time":15.75,"velocity":0.7480314960629921,"duration":0.6750000000000007},{"name":"G4","midi":67,"time":16.5,"velocity":0.7480314960629921,"duration":1.3999999999999986},{"name":"A4","midi":69,"time":18,"velocity":0.7480314960629921,"duration":1.3999999999999986},{"name":"G4","midi":67,"time":19.5,"velocity":0.7480314960629921,"duration":1.3999999999999986},{"name":"A4","midi":69,"time":21,"velocity":0.7480314960629921,"duration":2.8999999999999986},{"name":"A4","midi":69,"time":24,"velocity":0.7480314960629921,"duration":0.3374999999999986},{"name":"A4","midi":69,"time":24.375,"velocity":0.7480314960629921,"duration":0.6750000000000007},{"name":"A4","midi":69,"time":25.125,"velocity":0.7480314960629921,"duration":0.3374999999999986},{"name":"A4","midi":69,"time":25.5,"velocity":0.7480314960629921,"duration":0.3374999999999986},{"name":"A4","midi":69,"time":25.875,"velocity":0.7480314960629921,"duration":0.6750000000000007},{"name":"A4","midi":69,"time":26.625,"velocity":0.7480314960629921,"duration":0.3374999999999986},{"name":"A4","midi":69,"time":27,"velocity":0.7480314960629921,"duration":0.3374999999999986},{"name":"A4","midi":69,"time":27.375,"velocity":0.7480314960629921,"duration":0.6750000000000007},{"name":"A4","midi":69,"time":28.125,"velocity":0.7480314960629921,"duration":0.3374999999999986},{"name":"A4","midi":69,"time":28.5,"velocity":0.7480314960629921,"duration":0.3374999999999986},{"name":"A4","midi":69,"time":28.875,"velocity":0.7480314960629921,"duration":0.6750000000000007},{"name":"A4","midi":69,"time":29.625,"velocity":0.7480314960629921,"duration":0.3374999999999986},{"name":"A4","midi":69,"time":30,"velocity":0.7480314960629921,"duration":0.3374999999999986},{"name":"A4","midi":69,"time":30.375,"velocity":0.7480314960629921,"duration":0.6750000000000007},{"name":"A4","midi":69,"time":31.125,"velocity":0.7480314960629921,"duration":0.3374999999999986},{"name":"A4","midi":69,"time":31.5,"velocity":0.7480314960629921,"duration":0.3374999999999986},{"name":"A4","midi":69,"time":31.875,"velocity":0.7480314960629921,"duration":0.6749999999999972},{"name":"A4","midi":69,"time":32.625,"velocity":0.7480314960629921,"duration":0.3374999999999986},{"name":"A4","midi":69,"time":33,"velocity":0.7480314960629921,"duration":0.3374999999999986},{"name":"A4","midi":69,"time":33.375,"velocity":0.7480314960629921,"duration":0.6749999999999972},{"name":"A4","midi":69,"time":34.125,"velocity":0.7480314960629921,"duration":0.3374999999999986},{"name":"A4","midi":69,"time":34.5,"velocity":0.7480314960629921,"duration":0.3374999999999986},{"name":"A4","midi":69,"time":34.875,"velocity":0.7480314960629921,"duration":0.6749999999999972},{"name":"A4","midi":69,"time":35.625,"velocity":0.7480314960629921,"duration":0.3374999999999986},{"name":"E4","midi":64,"time":36,"velocity":0.7480314960629921,"duration":0.3374999999999986},{"name":"E4","midi":64,"time":36.375,"velocity":0.7480314960629921,"duration":0.6749999999999972},{"name":"E4","midi":64,"time":37.125,"velocity":0.7480314960629921,"duration":0.3374999999999986},{"name":"E4","midi":64,"time":37.5,"velocity":0.7480314960629921,"duration":0.3374999999999986},{"name":"E4","midi":64,"time":37.875,"velocity":0.7480314960629921,"duration":0.6749999999999972},{"name":"E4","midi":64,"time":38.625,"velocity":0.7480314960629921,"duration":0.3374999999999986},{"name":"E4","midi":64,"time":39,"velocity":0.7480314960629921,"duration":0.3374999999999986},{"name":"E4","midi":64,"time":39.375,"velocity":0.7480314960629921,"duration":0.6749999999999972},{"name":"E4","midi":64,"time":40.125,"velocity":0.7480314960629921,"duration":0.3374999999999986},{"name":"E4","midi":64,"time":40.5,"velocity":0.7480314960629921,"duration":0.3374999999999986},{"name":"E4","midi":64,"time":40.875,"velocity":0.7480314960629921,"duration":0.6749999999999972},{"name":"E4","midi":64,"time":41.625,"velocity":0.7480314960629921,"duration":0.3374999999999986},{"name":"D4","midi":62,"time":42,"velocity":0.7480314960629921,"duration":0.3374999999999986},{"name":"D4","midi":62,"time":42.375,"velocity":0.7480314960629921,"duration":0.6749999999999972},{"name":"D4","midi":62,"time":43.125,"velocity":0.7480314960629921,"duration":0.3374999999999986},{"name":"D4","midi":62,"time":43.5,"velocity":0.7480314960629921,"duration":0.3374999999999986},{"name":"D4","midi":62,"time":43.875,"velocity":0.7480314960629921,"duration":0.6749999999999972},{"name":"D4","midi":62,"time":44.625,"velocity":0.7480314960629921,"duration":0.3374999999999986},{"name":"D4","midi":62,"time":45,"velocity":0.7480314960629921,"duration":0.3374999999999986},{"name":"D4","midi":62,"time":45.375,"velocity":0.7480314960629921,"duration":0.6749999999999972},{"name":"D4","midi":62,"time":46.125,"velocity":0.7480314960629921,"duration":0.3374999999999986},{"name":"D4","midi":62,"time":46.5,"velocity":0.7480314960629921,"duration":0.3374999999999986},{"name":"D4","midi":62,"time":46.875,"velocity":0.7480314960629921,"duration":0.6749999999999972},{"name":"D4","midi":62,"time":47.625,"velocity":0.7480314960629921,"duration":0.3374999999999986},{"name":"A4","midi":69,"time":48,"velocity":0.7480314960629921,"duration":0.3374999999999986},{"name":"A4","midi":69,"time":48.375,"velocity":0.7480314960629921,"duration":0.6749999999999972},{"name":"A4","midi":69,"time":49.125,"velocity":0.7480314960629921,"duration":0.3374999999999986},{"name":"A4","midi":69,"time":49.5,"velocity":0.7480314960629921,"duration":0.3374999999999986},{"name":"A4","midi":69,"time":49.875,"velocity":0.7480314960629921,"duration":0.6749999999999972},{"name":"A4","midi":69,"time":50.625,"velocity":0.7480314960629921,"duration":0.3374999999999986},{"name":"A4","midi":69,"time":51,"velocity":0.7480314960629921,"duration":0.3374999999999986},{"name":"A4","midi":69,"time":51.375,"velocity":0.7480314960629921,"duration":0.6749999999999972},{"name":"A4","midi":69,"time":52.125,"velocity":0.7480314960629921,"duration":0.3374999999999986},{"name":"A4","midi":69,"time":52.5,"velocity":0.7480314960629921,"duration":0.3374999999999986},{"name":"A4","midi":69,"time":52.875,"velocity":0.7480314960629921,"duration":0.6749999999999972},{"name":"A4","midi":69,"time":53.625,"velocity":0.7480314960629921,"duration":0.3374999999999986},{"name":"E4","midi":64,"time":54,"velocity":0.7480314960629921,"duration":0.3374999999999986},{"name":"E4","midi":64,"time":54.375,"velocity":0.7480314960629921,"duration":0.6749999999999972},{"name":"E4","midi":64,"time":55.125,"velocity":0.7480314960629921,"duration":0.3374999999999986},{"name":"E4","midi":64,"time":55.5,"velocity":0.7480314960629921,"duration":0.3374999999999986},{"name":"E4","midi":64,"time":55.875,"velocity":0.7480314960629921,"duration":0.6749999999999972},{"name":"E4","midi":64,"time":56.625,"velocity":0.7480314960629921,"duration":0.3374999999999986},{"name":"E4","midi":64,"time":57,"velocity":0.7480314960629921,"duration":0.3374999999999986},{"name":"E4","midi":64,"time":57.375,"velocity":0.7480314960629921,"duration":0.6749999999999972},{"name":"E4","midi":64,"time":58.125,"velocity":0.7480314960629921,"duration":0.3374999999999986},{"name":"E4","midi":64,"time":58.5,"velocity":0.7480314960629921,"duration":0.3374999999999986},{"name":"E4","midi":64,"time":58.875,"velocity":0.7480314960629921,"duration":0.6749999999999972},{"name":"E4","midi":64,"time":59.625,"velocity":0.7480314960629921,"duration":0.3374999999999986},{"name":"D4","midi":62,"time":60,"velocity":0.7480314960629921,"duration":0.3374999999999986},{"name":"D4","midi":62,"time":60.375,"velocity":0.7480314960629921,"duration":0.6749999999999972},{"name":"D5","midi":74,"time":60.75,"velocity":0.7480314960629921,"duration":0.3374999999999986},{"name":"D4","midi":62,"time":61.125,"velocity":0.7480314960629921,"duration":0.3374999999999986},{"name":"D4","midi":62,"time":61.5,"velocity":0.7480314960629921,"duration":0.3374999999999986},{"name":"D5","midi":74,"time":61.875,"velocity":0.7480314960629921,"duration":0.3374999999999986},{"name":"D4","midi":62,"time":61.875,"velocity":0.7480314960629921,"duration":0.6749999999999972},{"name":"D5","midi":74,"time":62.25,"velocity":0.7480314960629921,"duration":0.3374999999999986},{"name":"D4","midi":62,"time":62.625,"velocity":0.7480314960629921,"duration":0.3374999999999986},{"name":"D4","midi":62,"time":63,"velocity":0.7480314960629921,"duration":0.3374999999999986},{"name":"D5","midi":74,"time":63.375,"velocity":0.7480314960629921,"duration":0.3374999999999986},{"name":"D4","midi":62,"time":63.375,"velocity":0.7480314960629921,"duration":0.6749999999999972},{"name":"D5","midi":74,"time":63.75,"velocity":0.7480314960629921,"duration":0.3374999999999915},{"name":"D4","midi":62,"time":64.12499999999999,"velocity":0.7480314960629921,"duration":0.3375000000000057},{"name":"D4","midi":62,"time":64.49999999999999,"velocity":0.7480314960629921,"duration":0.3375000000000057},{"name":"D5","midi":74,"time":64.87499999999999,"velocity":0.7480314960629921,"duration":0.3375000000000057},{"name":"D4","midi":62,"time":64.87499999999999,"velocity":0.7480314960629921,"duration":0.6749999999999972},{"name":"D5","midi":74,"time":65.24999999999999,"velocity":0.7480314960629921,"duration":0.3374999999999915},{"name":"D4","midi":62,"time":65.62499999999997,"velocity":0.7480314960629921,"duration":0.3375000000000057},{"name":"E4","midi":64,"time":65.99999999999997,"velocity":0.7480314960629921,"duration":0.3375000000000057},{"name":"E4","midi":64,"time":66.37499999999997,"velocity":0.7480314960629921,"duration":0.6749999999999972},{"name":"D5","midi":74,"time":66.37499999999997,"velocity":0.7480314960629921,"duration":0.3375000000000057},{"name":"G#5","midi":80,"time":66.74999999999997,"velocity":0.7480314960629921,"duration":0.3374999999999915},{"name":"E4","midi":64,"time":67.12499999999996,"velocity":0.7480314960629921,"duration":0.3375000000000057},{"name":"E4","midi":64,"time":67.49999999999996,"velocity":0.7480314960629921,"duration":0.3375000000000057},{"name":"E4","midi":64,"time":67.87499999999996,"velocity":0.7480314960629921,"duration":0.6749999999999972},{"name":"G#5","midi":80,"time":67.87499999999996,"velocity":0.7480314960629921,"duration":0.3375000000000057},{"name":"G#5","midi":80,"time":68.24999999999996,"velocity":0.7480314960629921,"duration":0.3374999999999915},{"name":"E4","midi":64,"time":68.62499999999994,"velocity":0.7480314960629921,"duration":0.3375000000000057},{"name":"E4","midi":64,"time":68.99999999999994,"velocity":0.7480314960629921,"duration":0.3375000000000057},{"name":"E4","midi":64,"time":69.37499999999994,"velocity":0.7480314960629921,"duration":0.6749999999999972},{"name":"G#5","midi":80,"time":69.37499999999994,"velocity":0.7480314960629921,"duration":0.3375000000000057},{"name":"G#5","midi":80,"time":69.74999999999994,"velocity":0.7480314960629921,"duration":0.3374999999999915},{"name":"E4","midi":64,"time":70.12499999999993,"velocity":0.7480314960629921,"duration":0.3375000000000057},{"name":"E4","midi":64,"time":70.49999999999993,"velocity":0.7480314960629921,"duration":0.3375000000000057},{"name":"E4","midi":64,"time":70.87499999999993,"velocity":0.7480314960629921,"duration":0.6749999999999972},{"name":"G#5","midi":80,"time":70.87499999999993,"velocity":0.7480314960629921,"duration":0.3375000000000057},{"name":"G#5","midi":80,"time":71.24999999999993,"velocity":0.7480314960629921,"duration":0.3374999999999915},{"name":"E4","midi":64,"time":71.62499999999991,"velocity":0.7480314960629921,"duration":0.3375000000000057},{"name":"A4","midi":69,"time":71.99999999999991,"velocity":0.7480314960629921,"duration":0.3375000000000057},{"name":"G#5","midi":80,"time":72.37499999999991,"velocity":0.7480314960629921,"duration":0.3375000000000057},{"name":"A4","midi":69,"time":72.37499999999991,"velocity":0.7480314960629921,"duration":0.6749999999999972},{"name":"A5","midi":81,"time":72.74999999999991,"velocity":0.7480314960629921,"duration":0.3374999999999915},{"name":"A4","midi":69,"time":73.1249999999999,"velocity":0.7480314960629921,"duration":0.3375000000000057},{"name":"A4","midi":69,"time":73.4999999999999,"velocity":0.7480314960629921,"duration":0.3375000000000057},{"name":"A4","midi":69,"time":73.8749999999999,"velocity":0.7480314960629921,"duration":0.6749999999999972},{"name":"A5","midi":81,"time":73.8749999999999,"velocity":0.7480314960629921,"duration":0.3375000000000057},{"name":"A5","midi":81,"time":74.2499999999999,"velocity":0.7480314960629921,"duration":0.3374999999999915},{"name":"A4","midi":69,"time":74.62499999999989,"velocity":0.7480314960629921,"duration":0.3375000000000057},{"name":"A4","midi":69,"time":74.99999999999989,"velocity":0.7480314960629921,"duration":0.3375000000000057},{"name":"A4","midi":69,"time":75.37499999999989,"velocity":0.7480314960629921,"duration":0.6749999999999972},{"name":"A5","midi":81,"time":75.37499999999989,"velocity":0.7480314960629921,"duration":0.3375000000000057},{"name":"A5","midi":81,"time":75.74999999999989,"velocity":0.7480314960629921,"duration":0.3374999999999915},{"name":"A4","midi":69,"time":76.12499999999987,"velocity":0.7480314960629921,"duration":0.3375000000000057},{"name":"A4","midi":69,"time":76.49999999999987,"velocity":0.7480314960629921,"duration":0.3375000000000057},{"name":"A4","midi":69,"time":76.87499999999987,"velocity":0.7480314960629921,"duration":0.6749999999999972},{"name":"A5","midi":81,"time":76.87499999999987,"velocity":0.7480314960629921,"duration":0.3375000000000057},{"name":"A5","midi":81,"time":77.24999999999987,"velocity":0.7480314960629921,"duration":0.3374999999999915},{"name":"A4","midi":69,"time":77.62499999999986,"velocity":0.7480314960629921,"duration":0.3375000000000057},{"name":"E4","midi":64,"time":77.99999999999986,"velocity":0.7480314960629921,"duration":0.3375000000000057},{"name":"E4","midi":64,"time":78.37499999999986,"velocity":0.7480314960629921,"duration":0.6749999999999972},{"name":"A5","midi":81,"time":78.37499999999986,"velocity":0.7480314960629921,"duration":0.3375000000000057},{"name":"E5","midi":76,"time":78.74999999999986,"velocity":0.7480314960629921,"duration":0.3374999999999915},{"name":"E4","midi":64,"time":79.12499999999984,"velocity":0.7480314960629921,"duration":0.3375000000000057},{"name":"E4","midi":64,"time":79.49999999999984,"velocity":0.7480314960629921,"duration":0.3375000000000057},{"name":"E5","midi":76,"time":79.87499999999984,"velocity":0.7480314960629921,"duration":0.3375000000000057},{"name":"E4","midi":64,"time":79.87499999999984,"velocity":0.7480314960629921,"duration":0.6749999999999972},{"name":"E5","midi":76,"time":80.24999999999984,"velocity":0.7480314960629921,"duration":0.3374999999999915},{"name":"E4","midi":64,"time":80.62499999999983,"velocity":0.7480314960629921,"duration":0.3375000000000057},{"name":"E4","midi":64,"time":80.99999999999983,"velocity":0.7480314960629921,"duration":0.3375000000000057},{"name":"E4","midi":64,"time":81.37499999999983,"velocity":0.7480314960629921,"duration":0.6749999999999972},{"name":"E5","midi":76,"time":81.37499999999983,"velocity":0.7480314960629921,"duration":0.3375000000000057},{"name":"E5","midi":76,"time":81.74999999999983,"velocity":0.7480314960629921,"duration":0.3374999999999915},{"name":"E4","midi":64,"time":82.12499999999982,"velocity":0.7480314960629921,"duration":0.3375000000000057},{"name":"E4","midi":64,"time":82.49999999999982,"velocity":0.7480314960629921,"duration":0.3375000000000057},{"name":"E5","midi":76,"time":82.87499999999982,"velocity":0.7480314960629921,"duration":0.3375000000000057},{"name":"E4","midi":64,"time":82.87499999999982,"velocity":0.7480314960629921,"duration":0.6749999999999972},{"name":"E5","midi":76,"time":83.24999999999982,"velocity":0.7480314960629921,"duration":0.3374999999999915},{"name":"E4","midi":64,"time":83.6249999999998,"velocity":0.7480314960629921,"duration":0.3375000000000057},{"name":"D4","midi":62,"time":83.9999999999998,"velocity":0.7480314960629921,"duration":0.3375000000000057},{"name":"D4","midi":62,"time":84.3749999999998,"velocity":0.7480314960629921,"duration":0.6749999999999972},{"name":"E5","midi":76,"time":84.3749999999998,"velocity":0.7480314960629921,"duration":0.3375000000000057},{"name":"D5","midi":74,"time":84.7499999999998,"velocity":0.7480314960629921,"duration":0.3374999999999915},{"name":"D4","midi":62,"time":85.12499999999979,"velocity":0.7480314960629921,"duration":0.3375000000000057},{"name":"D4","midi":62,"time":85.49999999999979,"velocity":0.7480314960629921,"duration":0.3375000000000057},{"name":"D5","midi":74,"time":85.87499999999979,"velocity":0.7480314960629921,"duration":0.3375000000000057},{"name":"D4","midi":62,"time":85.87499999999979,"velocity":0.7480314960629921,"duration":0.6749999999999972},{"name":"D5","midi":74,"time":86.24999999999979,"velocity":0.7480314960629921,"duration":0.3374999999999915},{"name":"D4","midi":62,"time":86.62499999999977,"velocity":0.7480314960629921,"duration":0.3375000000000057},{"name":"D4","midi":62,"time":86.99999999999977,"velocity":0.7480314960629921,"duration":0.3375000000000057},{"name":"D5","midi":74,"time":87.37499999999977,"velocity":0.7480314960629921,"duration":0.3375000000000057},{"name":"D4","midi":62,"time":87.37499999999977,"velocity":0.7480314960629921,"duration":0.6749999999999972},{"name":"D5","midi":74,"time":87.74999999999977,"velocity":0.7480314960629921,"duration":0.3374999999999915},{"name":"D4","midi":62,"time":88.12499999999976,"velocity":0.7480314960629921,"duration":0.3375000000000057},{"name":"D4","midi":62,"time":88.49999999999976,"velocity":0.7480314960629921,"duration":0.3375000000000057},{"name":"D5","midi":74,"time":88.87499999999976,"velocity":0.7480314960629921,"duration":0.3375000000000057},{"name":"D4","midi":62,"time":88.87499999999976,"velocity":0.7480314960629921,"duration":0.6749999999999972},{"name":"D5","midi":74,"time":89.24999999999976,"velocity":0.7480314960629921,"duration":0.3374999999999915},{"name":"D4","midi":62,"time":89.62499999999974,"velocity":0.7480314960629921,"duration":0.3375000000000057},{"name":"A4","midi":69,"time":89.99999999999974,"velocity":0.7480314960629921,"duration":0.3375000000000057},{"name":"G#5","midi":80,"time":90.37499999999974,"velocity":0.7480314960629921,"duration":0.3375000000000057},{"name":"A4","midi":69,"time":90.37499999999974,"velocity":0.7480314960629921,"duration":0.6749999999999972},{"name":"A5","midi":81,"time":90.74999999999974,"velocity":0.7480314960629921,"duration":0.3374999999999915},{"name":"A4","midi":69,"time":91.12499999999973,"velocity":0.7480314960629921,"duration":0.3375000000000057},{"name":"A4","midi":69,"time":91.49999999999973,"velocity":0.7480314960629921,"duration":0.3375000000000057},{"name":"A4","midi":69,"time":91.87499999999973,"velocity":0.7480314960629921,"duration":0.6749999999999972},{"name":"A5","midi":81,"time":91.87499999999973,"velocity":0.7480314960629921,"duration":0.3375000000000057},{"name":"A5","midi":81,"time":92.24999999999973,"velocity":0.7480314960629921,"duration":0.3374999999999915},{"name":"A4","midi":69,"time":92.62499999999972,"velocity":0.7480314960629921,"duration":0.3375000000000057},{"name":"A4","midi":69,"time":92.99999999999972,"velocity":0.7480314960629921,"duration":0.3375000000000057},{"name":"A5","midi":81,"time":93.37499999999972,"velocity":0.7480314960629921,"duration":0.3375000000000057},{"name":"A4","midi":69,"time":93.37499999999972,"velocity":0.7480314960629921,"duration":0.6749999999999972},{"name":"A5","midi":81,"time":93.74999999999972,"velocity":0.7480314960629921,"duration":0.3374999999999915},{"name":"A4","midi":69,"time":94.1249999999997,"velocity":0.7480314960629921,"duration":0.3375000000000057},{"name":"A4","midi":69,"time":94.4999999999997,"velocity":0.7480314960629921,"duration":0.3375000000000057},{"name":"A5","midi":81,"time":94.8749999999997,"velocity":0.7480314960629921,"duration":0.3375000000000057},{"name":"A4","midi":69,"time":94.8749999999997,"velocity":0.7480314960629921,"duration":0.6749999999999972},{"name":"A5","midi":81,"time":95.2499999999997,"velocity":0.7480314960629921,"duration":0.3374999999999915},{"name":"A4","midi":69,"time":95.62499999999969,"velocity":0.7480314960629921,"duration":0.3375000000000057},{"name":"E4","midi":64,"time":95.99999999999969,"velocity":0.7480314960629921,"duration":0.3375000000000057},{"name":"E4","midi":64,"time":96.37499999999969,"velocity":0.7480314960629921,"duration":0.6749999999999972},{"name":"A5","midi":81,"time":96.37499999999969,"velocity":0.7480314960629921,"duration":0.3375000000000057},{"name":"E5","midi":76,"time":96.74999999999969,"velocity":0.7480314960629921,"duration":0.3374999999999915},{"name":"E4","midi":64,"time":97.12499999999967,"velocity":0.7480314960629921,"duration":0.3375000000000057},{"name":"E4","midi":64,"time":97.49999999999967,"velocity":0.7480314960629921,"duration":0.3375000000000057},{"name":"E5","midi":76,"time":97.87499999999967,"velocity":0.7480314960629921,"duration":0.3375000000000057},{"name":"E4","midi":64,"time":97.87499999999967,"velocity":0.7480314960629921,"duration":0.6749999999999972},{"name":"E5","midi":76,"time":98.24999999999967,"velocity":0.7480314960629921,"duration":0.3374999999999915},{"name":"E4","midi":64,"time":98.62499999999966,"velocity":0.7480314960629921,"duration":0.3375000000000057},{"name":"E4","midi":64,"time":98.99999999999966,"velocity":0.7480314960629921,"duration":0.3375000000000057},{"name":"E4","midi":64,"time":99.37499999999966,"velocity":0.7480314960629921,"duration":0.6749999999999972},{"name":"E5","midi":76,"time":99.37499999999966,"velocity":0.7480314960629921,"duration":0.3375000000000057},{"name":"E5","midi":76,"time":99.74999999999966,"velocity":0.7480314960629921,"duration":0.3374999999999915},{"name":"E4","midi":64,"time":100.12499999999964,"velocity":0.7480314960629921,"duration":0.3375000000000057},{"name":"E4","midi":64,"time":100.49999999999964,"velocity":0.7480314960629921,"duration":0.3375000000000057},{"name":"E5","midi":76,"time":100.87499999999964,"velocity":0.7480314960629921,"duration":0.3375000000000057},{"name":"E4","midi":64,"time":100.87499999999964,"velocity":0.7480314960629921,"duration":0.6749999999999972},{"name":"E5","midi":76,"time":101.24999999999964,"velocity":0.7480314960629921,"duration":0.3374999999999915},{"name":"E4","midi":64,"time":101.62499999999963,"velocity":0.7480314960629921,"duration":0.3375000000000057},{"name":"D4","midi":62,"time":101.99999999999963,"velocity":0.7480314960629921,"duration":0.3375000000000057},{"name":"E5","midi":76,"time":102.37499999999963,"velocity":0.7480314960629921,"duration":0.3375000000000057},{"name":"D4","midi":62,"time":102.37499999999963,"velocity":0.7480314960629921,"duration":0.6749999999999972},{"name":"D5","midi":74,"time":102.74999999999963,"velocity":0.7480314960629921,"duration":0.3374999999999915},{"name":"D4","midi":62,"time":103.12499999999962,"velocity":0.7480314960629921,"duration":0.3375000000000057},{"name":"D4","midi":62,"time":103.49999999999962,"velocity":0.7480314960629921,"duration":0.3375000000000057},{"name":"D4","midi":62,"time":103.87499999999962,"velocity":0.7480314960629921,"duration":0.6749999999999972},{"name":"D5","midi":74,"time":103.87499999999962,"velocity":0.7480314960629921,"duration":0.3375000000000057},{"name":"D5","midi":74,"time":104.24999999999962,"velocity":0.7480314960629921,"duration":0.3374999999999915},{"name":"D4","midi":62,"time":104.6249999999996,"velocity":0.7480314960629921,"duration":0.3375000000000057},{"name":"D4","midi":62,"time":104.9999999999996,"velocity":0.7480314960629921,"duration":0.3375000000000057},{"name":"D4","midi":62,"time":105.3749999999996,"velocity":0.7480314960629921,"duration":0.6749999999999972},{"name":"D5","midi":74,"time":105.3749999999996,"velocity":0.7480314960629921,"duration":0.3375000000000057},{"name":"D5","midi":74,"time":105.7499999999996,"velocity":0.7480314960629921,"duration":0.3374999999999915},{"name":"D4","midi":62,"time":106.12499999999959,"velocity":0.7480314960629921,"duration":0.3375000000000057},{"name":"D4","midi":62,"time":106.49999999999959,"velocity":0.7480314960629921,"duration":0.3375000000000057},{"name":"D5","midi":74,"time":106.87499999999959,"velocity":0.7480314960629921,"duration":0.3375000000000057},{"name":"D4","midi":62,"time":106.87499999999959,"velocity":0.7480314960629921,"duration":0.6749999999999972},{"name":"D5","midi":74,"time":107.24999999999959,"velocity":0.7480314960629921,"duration":0.3374999999999915},{"name":"D4","midi":62,"time":107.62499999999957,"velocity":0.7480314960629921,"duration":0.3375000000000057},{"name":"A4","midi":69,"time":107.99999999999957,"velocity":0.7480314960629921,"duration":0.3375000000000057},{"name":"A4","midi":69,"time":108.37499999999957,"velocity":0.7480314960629921,"duration":0.3375000000000057},{"name":"E5","midi":76,"time":108.74999999999957,"velocity":0.7480314960629921,"duration":0.3375000000000057},{"name":"E4","midi":64,"time":108.74999999999957,"velocity":0.7480314960629921,"duration":0.3375000000000057},{"name":"A4","midi":69,"time":108.74999999999957,"velocity":0.7480314960629921,"duration":0.3375000000000057},{"name":"A4","midi":69,"time":109.12499999999957,"velocity":0.7480314960629921,"duration":0.3375000000000057},{"name":"A4","midi":69,"time":109.49999999999957,"velocity":0.7480314960629921,"duration":0.3375000000000057},{"name":"A4","midi":69,"time":109.87499999999957,"velocity":0.7480314960629921,"duration":0.3375000000000057},{"name":"E5","midi":76,"time":109.87499999999957,"velocity":0.7480314960629921,"duration":0.3375000000000057},{"name":"E4","midi":64,"time":109.87499999999957,"velocity":0.7480314960629921,"duration":0.3375000000000057},{"name":"E5","midi":76,"time":110.24999999999957,"velocity":0.7480314960629921,"duration":0.3375000000000057},{"name":"A4","midi":69,"time":110.24999999999957,"velocity":0.7480314960629921,"duration":0.3375000000000057},{"name":"E4","midi":64,"time":110.24999999999957,"velocity":0.7480314960629921,"duration":0.3375000000000057},{"name":"A4","midi":69,"time":110.62499999999957,"velocity":0.7480314960629921,"duration":0.3375000000000057},{"name":"A4","midi":69,"time":110.99999999999957,"velocity":0.7480314960629921,"duration":0.3375000000000057},{"name":"E4","midi":64,"time":111.37499999999957,"velocity":0.7480314960629921,"duration":0.3375000000000057},{"name":"A4","midi":69,"time":111.37499999999957,"velocity":0.7480314960629921,"duration":0.3375000000000057},{"name":"E5","midi":76,"time":111.37499999999957,"velocity":0.7480314960629921,"duration":0.3375000000000057},{"name":"E5","midi":76,"time":111.74999999999957,"velocity":0.7480314960629921,"duration":0.3375000000000057},{"name":"A4","midi":69,"time":111.74999999999957,"velocity":0.7480314960629921,"duration":0.3375000000000057},{"name":"E4","midi":64,"time":111.74999999999957,"velocity":0.7480314960629921,"duration":0.3375000000000057},{"name":"A4","midi":69,"time":112.12499999999957,"velocity":0.7480314960629921,"duration":0.3375000000000057},{"name":"A4","midi":69,"time":112.49999999999957,"velocity":0.7480314960629921,"duration":0.3375000000000057},{"name":"E4","midi":64,"time":112.87499999999957,"velocity":0.7480314960629921,"duration":0.3375000000000057},{"name":"E5","midi":76,"time":112.87499999999957,"velocity":0.7480314960629921,"duration":0.3375000000000057},{"name":"A4","midi":69,"time":112.87499999999957,"velocity":0.7480314960629921,"duration":0.3375000000000057},{"name":"A4","midi":69,"time":113.24999999999957,"velocity":0.7480314960629921,"duration":0.3375000000000057},{"name":"E4","midi":64,"time":113.24999999999957,"velocity":0.7480314960629921,"duration":0.3375000000000057},{"name":"E5","midi":76,"time":113.24999999999957,"velocity":0.7480314960629921,"duration":0.3375000000000057},{"name":"C#4","midi":61,"time":113.62499999999957,"velocity":0.7480314960629921,"duration":0.16875000000000284},{"name":"E4","midi":64,"time":113.81249999999957,"velocity":0.7480314960629921,"duration":0.16875000000000284},{"name":"C#4","midi":61,"time":113.99999999999957,"velocity":0.7480314960629921,"duration":0.3375000000000057},{"name":"E4","midi":64,"time":114.37499999999957,"velocity":0.7480314960629921,"duration":0.3375000000000057},{"name":"A4","midi":69,"time":114.37499999999957,"velocity":0.7480314960629921,"duration":0.3375000000000057},{"name":"E5","midi":76,"time":114.37499999999957,"velocity":0.7480314960629921,"duration":0.3375000000000057},{"name":"C#4","midi":61,"time":114.37499999999957,"velocity":0.7480314960629921,"duration":0.6749999999999972},{"name":"E5","midi":76,"time":114.74999999999957,"velocity":0.7480314960629921,"duration":0.3374999999999915},{"name":"G#5","midi":80,"time":114.74999999999957,"velocity":0.7480314960629921,"duration":0.3374999999999915},{"name":"C#4","midi":61,"time":115.12499999999956,"velocity":0.7480314960629921,"duration":0.3375000000000057},{"name":"C#4","midi":61,"time":115.49999999999956,"velocity":0.7480314960629921,"duration":0.3375000000000057},{"name":"E5","midi":76,"time":115.87499999999956,"velocity":0.7480314960629921,"duration":0.3375000000000057},{"name":"G#5","midi":80,"time":115.87499999999956,"velocity":0.7480314960629921,"duration":0.3375000000000057},{"name":"C#4","midi":61,"time":115.87499999999956,"velocity":0.7480314960629921,"duration":0.6749999999999972},{"name":"E5","midi":76,"time":116.24999999999956,"velocity":0.7480314960629921,"duration":0.3374999999999915},{"name":"G#5","midi":80,"time":116.24999999999956,"velocity":0.7480314960629921,"duration":0.3374999999999915},{"name":"C#4","midi":61,"time":116.62499999999955,"velocity":0.7480314960629921,"duration":0.3375000000000057},{"name":"C#4","midi":61,"time":116.99999999999955,"velocity":0.7480314960629921,"duration":0.3375000000000057},{"name":"E5","midi":76,"time":117.37499999999955,"velocity":0.7480314960629921,"duration":0.3375000000000057},{"name":"G#5","midi":80,"time":117.37499999999955,"velocity":0.7480314960629921,"duration":0.3375000000000057},{"name":"C#4","midi":61,"time":117.37499999999955,"velocity":0.7480314960629921,"duration":0.6749999999999972},{"name":"E5","midi":76,"time":117.74999999999955,"velocity":0.7480314960629921,"duration":0.3374999999999915},{"name":"G#5","midi":80,"time":117.74999999999955,"velocity":0.7480314960629921,"duration":0.3374999999999915},{"name":"C#4","midi":61,"time":118.12499999999953,"velocity":0.7480314960629921,"duration":0.3375000000000057},{"name":"C#4","midi":61,"time":118.49999999999953,"velocity":0.7480314960629921,"duration":0.3375000000000057},{"name":"C#4","midi":61,"time":118.87499999999953,"velocity":0.7480314960629921,"duration":0.6749999999999972},{"name":"E5","midi":76,"time":118.87499999999953,"velocity":0.7480314960629921,"duration":0.3375000000000057},{"name":"G#5","midi":80,"time":118.87499999999953,"velocity":0.7480314960629921,"duration":0.3375000000000057},{"name":"G#5","midi":80,"time":119.24999999999953,"velocity":0.7480314960629921,"duration":0.3374999999999915},{"name":"E5","midi":76,"time":119.24999999999953,"velocity":0.7480314960629921,"duration":0.3374999999999915},{"name":"F#4","midi":66,"time":119.62499999999952,"velocity":0.7480314960629921,"duration":0.16875000000000284},{"name":"G#4","midi":68,"time":119.81249999999952,"velocity":0.7480314960629921,"duration":0.16875000000000284},{"name":"F#4","midi":66,"time":119.99999999999952,"velocity":0.7480314960629921,"duration":0.3375000000000057},{"name":"F#4","midi":66,"time":120.37499999999952,"velocity":0.7480314960629921,"duration":0.3375000000000057},{"name":"G#5","midi":80,"time":120.37499999999952,"velocity":0.7480314960629921,"duration":0.3375000000000057},{"name":"E5","midi":76,"time":120.37499999999952,"velocity":0.7480314960629921,"duration":0.3375000000000057},{"name":"F#5","midi":78,"time":120.74999999999952,"velocity":0.7480314960629921,"duration":0.3375000000000057},{"name":"C#5","midi":73,"time":120.74999999999952,"velocity":0.7480314960629921,"duration":0.3375000000000057},{"name":"A4","midi":69,"time":120.74999999999952,"velocity":0.7480314960629921,"duration":0.3375000000000057},{"name":"A4","midi":69,"time":121.12499999999952,"velocity":0.7480314960629921,"duration":0.3375000000000057},{"name":"A4","midi":69,"time":121.49999999999952,"velocity":0.7480314960629921,"duration":0.3375000000000057},{"name":"F#5","midi":78,"time":121.87499999999952,"velocity":0.7480314960629921,"duration":0.3375000000000057},{"name":"C#5","midi":73,"time":121.87499999999952,"velocity":0.7480314960629921,"duration":0.3375000000000057},{"name":"A4","midi":69,"time":121.87499999999952,"velocity":0.7480314960629921,"duration":0.3375000000000057},{"name":"F#5","midi":78,"time":122.24999999999952,"velocity":0.7480314960629921,"duration":0.3375000000000057},{"name":"A4","midi":69,"time":122.24999999999952,"velocity":0.7480314960629921,"duration":0.3375000000000057},{"name":"C#5","midi":73,"time":122.24999999999952,"velocity":0.7480314960629921,"duration":0.3375000000000057},{"name":"F#5","midi":78,"time":122.62499999999952,"velocity":0.7480314960629921,"duration":0.16875000000000284},{"name":"C#5","midi":73,"time":122.62499999999952,"velocity":0.7480314960629921,"duration":0.16875000000000284},{"name":"F#5","midi":78,"time":122.81249999999952,"velocity":0.7480314960629921,"duration":0.16875000000000284},{"name":"D4","midi":62,"time":122.99999999999952,"velocity":0.7480314960629921,"duration":0.3375000000000057},{"name":"D4","midi":62,"time":123.37499999999952,"velocity":0.7480314960629921,"duration":0.6749999999999972},{"name":"F#5","midi":78,"time":123.37499999999952,"velocity":0.7480314960629921,"duration":0.3375000000000057},{"name":"C#5","midi":73,"time":123.37499999999952,"velocity":0.7480314960629921,"duration":0.3375000000000057},{"name":"A4","midi":69,"time":123.37499999999952,"velocity":0.7480314960629921,"duration":0.3375000000000057},{"name":"F#4","midi":66,"time":123.74999999999952,"velocity":0.7480314960629921,"duration":0.3374999999999915},{"name":"D4","midi":62,"time":124.1249999999995,"velocity":0.7480314960629921,"duration":0.3375000000000057},{"name":"D4","midi":62,"time":124.4999999999995,"velocity":0.7480314960629921,"duration":0.3375000000000057},{"name":"F#4","midi":66,"time":124.8749999999995,"velocity":0.7480314960629921,"duration":0.3375000000000057},{"name":"D4","midi":62,"time":124.8749999999995,"velocity":0.7480314960629921,"duration":0.6749999999999972},{"name":"F#4","midi":66,"time":125.2499999999995,"velocity":0.7480314960629921,"duration":0.3374999999999915},{"name":"D4","midi":62,"time":125.62499999999949,"velocity":0.7480314960629921,"duration":0.3375000000000057},{"name":"D4","midi":62,"time":125.99999999999949,"velocity":0.7480314960629921,"duration":0.3375000000000057},{"name":"F#4","midi":66,"time":126.37499999999949,"velocity":0.7480314960629921,"duration":0.3375000000000057},{"name":"D4","midi":62,"time":126.37499999999949,"velocity":0.7480314960629921,"duration":0.6749999999999972},{"name":"F#4","midi":66,"time":126.74999999999949,"velocity":0.7480314960629921,"duration":0.3374999999999915},{"name":"D4","midi":62,"time":127.12499999999947,"velocity":0.7480314960629921,"duration":0.3375000000000057},{"name":"D4","midi":62,"time":127.49999999999947,"velocity":0.7480314960629921,"duration":0.3375000000000057},{"name":"D4","midi":62,"time":127.87499999999947,"velocity":0.7480314960629921,"duration":0.6749999999999972},{"name":"F#4","midi":66,"time":127.87499999999947,"velocity":0.7480314960629921,"duration":0.3374999999999915},{"name":"F#4","midi":66,"time":128.24999999999946,"velocity":0.7480314960629921,"duration":0.3375000000000057},{"name":"D4","midi":62,"time":128.62499999999946,"velocity":0.7480314960629921,"duration":0.3375000000000057},{"name":"A4","midi":69,"time":128.99999999999946,"velocity":0.7480314960629921,"duration":0.3375000000000057},{"name":"D4","midi":62,"time":129.37499999999946,"velocity":0.7480314960629921,"duration":0.3375000000000057},{"name":"F#4","midi":66,"time":129.37499999999946,"velocity":0.7480314960629921,"duration":0.3375000000000057},{"name":"A4","midi":69,"time":129.37499999999946,"velocity":0.7480314960629921,"duration":0.3375000000000057},{"name":"E4","midi":64,"time":129.74999999999946,"velocity":0.7480314960629921,"duration":0.3375000000000057},{"name":"E5","midi":76,"time":129.74999999999946,"velocity":0.7480314960629921,"duration":0.3375000000000057},{"name":"A4","midi":69,"time":129.74999999999946,"velocity":0.7480314960629921,"duration":0.3375000000000057},{"name":"A4","midi":69,"time":130.12499999999946,"velocity":0.7480314960629921,"duration":0.3375000000000057},{"name":"A4","midi":69,"time":130.49999999999946,"velocity":0.7480314960629921,"duration":0.3375000000000057},{"name":"E4","midi":64,"time":130.87499999999946,"velocity":0.7480314960629921,"duration":0.3375000000000057},{"name":"A4","midi":69,"time":130.87499999999946,"velocity":0.7480314960629921,"duration":0.3375000000000057},{"name":"E5","midi":76,"time":130.87499999999946,"velocity":0.7480314960629921,"duration":0.3375000000000057},{"name":"E5","midi":76,"time":131.24999999999946,"velocity":0.7480314960629921,"duration":0.3375000000000057},{"name":"A4","midi":69,"time":131.24999999999946,"velocity":0.7480314960629921,"duration":0.3375000000000057},{"name":"E4","midi":64,"time":131.24999999999946,"velocity":0.7480314960629921,"duration":0.3375000000000057},{"name":"A4","midi":69,"time":131.62499999999946,"velocity":0.7480314960629921,"duration":0.3375000000000057},{"name":"A4","midi":69,"time":131.99999999999946,"velocity":0.7480314960629921,"duration":0.3375000000000057},{"name":"E5","midi":76,"time":132.37499999999946,"velocity":0.7480314960629921,"duration":0.3375000000000057},{"name":"A4","midi":69,"time":132.37499999999946,"velocity":0.7480314960629921,"duration":0.3375000000000057},{"name":"E4","midi":64,"time":132.37499999999946,"velocity":0.7480314960629921,"duration":0.3375000000000057},{"name":"E5","midi":76,"time":132.74999999999946,"velocity":0.7480314960629921,"duration":0.3375000000000057},{"name":"E4","midi":64,"time":132.74999999999946,"velocity":0.7480314960629921,"duration":0.3375000000000057},{"name":"A4","midi":69,"time":132.74999999999946,"velocity":0.7480314960629921,"duration":0.3375000000000057},{"name":"A4","midi":69,"time":133.12499999999946,"velocity":0.7480314960629921,"duration":0.3375000000000057},{"name":"A4","midi":69,"time":133.49999999999946,"velocity":0.7480314960629921,"duration":0.3375000000000057},{"name":"E4","midi":64,"time":133.87499999999946,"velocity":0.7480314960629921,"duration":0.3375000000000057},{"name":"A4","midi":69,"time":133.87499999999946,"velocity":0.7480314960629921,"duration":0.3375000000000057},{"name":"E5","midi":76,"time":133.87499999999946,"velocity":0.7480314960629921,"duration":0.3375000000000057},{"name":"E4","midi":64,"time":134.24999999999946,"velocity":0.7480314960629921,"duration":0.3375000000000057},{"name":"E5","midi":76,"time":134.24999999999946,"velocity":0.7480314960629921,"duration":0.3375000000000057},{"name":"A4","midi":69,"time":134.24999999999946,"velocity":0.7480314960629921,"duration":0.3375000000000057},{"name":"C#4","midi":61,"time":134.62499999999946,"velocity":0.7480314960629921,"duration":0.16874999999998863},{"name":"E4","midi":64,"time":134.81249999999946,"velocity":0.7480314960629921,"duration":0.16874999999998863},{"name":"C#4","midi":61,"time":134.99999999999946,"velocity":0.7480314960629921,"duration":0.3375000000000057},{"name":"E5","midi":76,"time":135.37499999999946,"velocity":0.7480314960629921,"duration":0.3375000000000057},{"name":"C#4","midi":61,"time":135.37499999999946,"velocity":0.7480314960629921,"duration":0.6750000000000114},{"name":"E4","midi":64,"time":135.37499999999946,"velocity":0.7480314960629921,"duration":0.3375000000000057},{"name":"A4","midi":69,"time":135.37499999999946,"velocity":0.7480314960629921,"duration":0.3375000000000057},{"name":"G#5","midi":80,"time":135.74999999999946,"velocity":0.7480314960629921,"duration":0.3375000000000057},{"name":"E5","midi":76,"time":135.74999999999946,"velocity":0.7480314960629921,"duration":0.3375000000000057},{"name":"C#4","midi":61,"time":136.12499999999946,"velocity":0.7480314960629921,"duration":0.3375000000000057},{"name":"C#4","midi":61,"time":136.49999999999946,"velocity":0.7480314960629921,"duration":0.3375000000000057},{"name":"E5","midi":76,"time":136.87499999999946,"velocity":0.7480314960629921,"duration":0.3375000000000057},{"name":"G#5","midi":80,"time":136.87499999999946,"velocity":0.7480314960629921,"duration":0.3375000000000057},{"name":"C#4","midi":61,"time":136.87499999999946,"velocity":0.7480314960629921,"duration":0.6750000000000114},{"name":"G#5","midi":80,"time":137.24999999999946,"velocity":0.7480314960629921,"duration":0.3375000000000057},{"name":"E5","midi":76,"time":137.24999999999946,"velocity":0.7480314960629921,"duration":0.3375000000000057},{"name":"C#4","midi":61,"time":137.62499999999946,"velocity":0.7480314960629921,"duration":0.3375000000000057},{"name":"C#4","midi":61,"time":137.99999999999946,"velocity":0.7480314960629921,"duration":0.3375000000000057},{"name":"E5","midi":76,"time":138.37499999999946,"velocity":0.7480314960629921,"duration":0.3375000000000057},{"name":"C#4","midi":61,"time":138.37499999999946,"velocity":0.7480314960629921,"duration":0.6750000000000114},{"name":"G#5","midi":80,"time":138.37499999999946,"velocity":0.7480314960629921,"duration":0.3375000000000057},{"name":"E5","midi":76,"time":138.74999999999946,"velocity":0.7480314960629921,"duration":0.3375000000000057},{"name":"G#5","midi":80,"time":138.74999999999946,"velocity":0.7480314960629921,"duration":0.3375000000000057},{"name":"C#4","midi":61,"time":139.12499999999946,"velocity":0.7480314960629921,"duration":0.3375000000000057},{"name":"C#4","midi":61,"time":139.49999999999946,"velocity":0.7480314960629921,"duration":0.3375000000000057},{"name":"E5","midi":76,"time":139.87499999999946,"velocity":0.7480314960629921,"duration":0.3375000000000057},{"name":"G#5","midi":80,"time":139.87499999999946,"velocity":0.7480314960629921,"duration":0.3375000000000057},{"name":"C#4","midi":61,"time":139.87499999999946,"velocity":0.7480314960629921,"duration":0.6750000000000114},{"name":"E5","midi":76,"time":140.24999999999946,"velocity":0.7480314960629921,"duration":0.3375000000000057},{"name":"G#5","midi":80,"time":140.24999999999946,"velocity":0.7480314960629921,"duration":0.3375000000000057},{"name":"F#4","midi":66,"time":140.62499999999946,"velocity":0.7480314960629921,"duration":0.16874999999998863},{"name":"G#4","midi":68,"time":140.81249999999946,"velocity":0.7480314960629921,"duration":0.16874999999998863},{"name":"F#4","midi":66,"time":140.99999999999946,"velocity":0.7480314960629921,"duration":0.3375000000000057},{"name":"F#4","midi":66,"time":141.37499999999946,"velocity":0.7480314960629921,"duration":0.3375000000000057},{"name":"G#5","midi":80,"time":141.37499999999946,"velocity":0.7480314960629921,"duration":0.3375000000000057},{"name":"E5","midi":76,"time":141.37499999999946,"velocity":0.7480314960629921,"duration":0.3375000000000057},{"name":"F#5","midi":78,"time":141.74999999999946,"velocity":0.7480314960629921,"duration":0.3375000000000057},{"name":"C#5","midi":73,"time":141.74999999999946,"velocity":0.7480314960629921,"duration":0.3375000000000057},{"name":"A4","midi":69,"time":141.74999999999946,"velocity":0.7480314960629921,"duration":0.3375000000000057},{"name":"A4","midi":69,"time":142.12499999999946,"velocity":0.7480314960629921,"duration":0.3375000000000057},{"name":"A4","midi":69,"time":142.49999999999946,"velocity":0.7480314960629921,"duration":0.3375000000000057},{"name":"A4","midi":69,"time":142.87499999999946,"velocity":0.7480314960629921,"duration":0.3375000000000057},{"name":"F#5","midi":78,"time":142.87499999999946,"velocity":0.7480314960629921,"duration":0.3375000000000057},{"name":"C#5","midi":73,"time":142.87499999999946,"velocity":0.7480314960629921,"duration":0.3375000000000057},{"name":"C#5","midi":73,"time":143.24999999999946,"velocity":0.7480314960629921,"duration":0.3375000000000057},{"name":"A4","midi":69,"time":143.24999999999946,"velocity":0.7480314960629921,"duration":0.3375000000000057},{"name":"F#5","midi":78,"time":143.24999999999946,"velocity":0.7480314960629921,"duration":0.5062499999999943},{"name":"C#5","midi":73,"time":143.62499999999946,"velocity":0.7480314960629921,"duration":0.16874999999998863},{"name":"F#5","midi":78,"time":143.81249999999946,"velocity":0.7480314960629921,"duration":0.16874999999998863},{"name":"D4","midi":62,"time":143.99999999999946,"velocity":0.7480314960629921,"duration":0.3375000000000057},{"name":"A4","midi":69,"time":144.37499999999946,"velocity":0.7480314960629921,"duration":0.3375000000000057},{"name":"C#5","midi":73,"time":144.37499999999946,"velocity":0.7480314960629921,"duration":0.3375000000000057},{"name":"F#5","midi":78,"time":144.37499999999946,"velocity":0.7480314960629921,"duration":0.3375000000000057},{"name":"D4","midi":62,"time":144.37499999999946,"velocity":0.7480314960629921,"duration":0.6750000000000114},{"name":"F#4","midi":66,"time":144.74999999999946,"velocity":0.7480314960629921,"duration":0.3375000000000057},{"name":"D4","midi":62,"time":145.12499999999946,"velocity":0.7480314960629921,"duration":0.3375000000000057},{"name":"D4","midi":62,"time":145.49999999999946,"velocity":0.7480314960629921,"duration":0.3375000000000057},{"name":"D4","midi":62,"time":145.87499999999946,"velocity":0.7480314960629921,"duration":0.6750000000000114},{"name":"F#4","midi":66,"time":145.87499999999946,"velocity":0.7480314960629921,"duration":0.3375000000000057},{"name":"F#4","midi":66,"time":146.24999999999946,"velocity":0.7480314960629921,"duration":0.3375000000000057},{"name":"D4","midi":62,"time":146.62499999999946,"velocity":0.7480314960629921,"duration":0.3375000000000057},{"name":"D4","midi":62,"time":146.99999999999946,"velocity":0.7480314960629921,"duration":0.3375000000000057},{"name":"F#4","midi":66,"time":147.37499999999946,"velocity":0.7480314960629921,"duration":0.3375000000000057},{"name":"D4","midi":62,"time":147.37499999999946,"velocity":0.7480314960629921,"duration":0.6750000000000114},{"name":"F#4","midi":66,"time":147.74999999999946,"velocity":0.7480314960629921,"duration":0.3375000000000057},{"name":"D4","midi":62,"time":148.12499999999946,"velocity":0.7480314960629921,"duration":0.3375000000000057},{"name":"D4","midi":62,"time":148.49999999999946,"velocity":0.7480314960629921,"duration":0.3375000000000057},{"name":"F#4","midi":66,"time":148.87499999999946,"velocity":0.7480314960629921,"duration":0.3375000000000057},{"name":"D4","midi":62,"time":148.87499999999946,"velocity":0.7480314960629921,"duration":0.6750000000000114},{"name":"F#4","midi":66,"time":149.24999999999946,"velocity":0.7480314960629921,"duration":0.3375000000000057},{"name":"D4","midi":62,"time":149.62499999999946,"velocity":0.7480314960629921,"duration":0.3375000000000057},{"name":"A4","midi":69,"time":149.99999999999946,"velocity":0.7480314960629921,"duration":0.3375000000000057},{"name":"A4","midi":69,"time":150.37499999999946,"velocity":0.7480314960629921,"duration":0.6750000000000114},{"name":"F#5","midi":78,"time":150.37499999999946,"velocity":0.7480314960629921,"duration":0.3375000000000057},{"name":"D4","midi":62,"time":150.37499999999946,"velocity":0.7480314960629921,"duration":0.3375000000000057},{"name":"A5","midi":81,"time":150.74999999999946,"velocity":0.7480314960629921,"duration":0.3375000000000057},{"name":"A4","midi":69,"time":151.12499999999946,"velocity":0.7480314960629921,"duration":0.3375000000000057},{"name":"A4","midi":69,"time":151.49999999999946,"velocity":0.7480314960629921,"duration":0.3375000000000057},{"name":"A5","midi":81,"time":151.87499999999946,"velocity":0.7480314960629921,"duration":0.3375000000000057},{"name":"A4","midi":69,"time":151.87499999999946,"velocity":0.7480314960629921,"duration":0.6750000000000114},{"name":"A5","midi":81,"time":152.24999999999946,"velocity":0.7480314960629921,"duration":0.3375000000000057},{"name":"A4","midi":69,"time":152.62499999999946,"velocity":0.7480314960629921,"duration":0.3375000000000057},{"name":"A4","midi":69,"time":152.99999999999946,"velocity":0.7480314960629921,"duration":0.3375000000000057},{"name":"A5","midi":81,"time":153.37499999999946,"velocity":0.7480314960629921,"duration":0.3375000000000057},{"name":"A4","midi":69,"time":153.37499999999946,"velocity":0.7480314960629921,"duration":0.6750000000000114},{"name":"A5","midi":81,"time":153.74999999999946,"velocity":0.7480314960629921,"duration":0.3375000000000057},{"name":"A4","midi":69,"time":154.12499999999946,"velocity":0.7480314960629921,"duration":0.3375000000000057},{"name":"A4","midi":69,"time":154.49999999999946,"velocity":0.7480314960629921,"duration":0.3375000000000057},{"name":"A5","midi":81,"time":154.87499999999946,"velocity":0.7480314960629921,"duration":0.3375000000000057},{"name":"A4","midi":69,"time":154.87499999999946,"velocity":0.7480314960629921,"duration":0.6750000000000114},{"name":"A5","midi":81,"time":155.24999999999946,"velocity":0.7480314960629921,"duration":0.3375000000000057},{"name":"A4","midi":69,"time":155.62499999999946,"velocity":0.7480314960629921,"duration":0.3375000000000057},{"name":"E4","midi":64,"time":155.99999999999946,"velocity":0.7480314960629921,"duration":0.3375000000000057},{"name":"E4","midi":64,"time":156.37499999999946,"velocity":0.7480314960629921,"duration":0.6750000000000114},{"name":"A5","midi":81,"time":156.37499999999946,"velocity":0.7480314960629921,"duration":0.3375000000000057},{"name":"E5","midi":76,"time":156.74999999999946,"velocity":0.7480314960629921,"duration":0.3375000000000057},{"name":"E4","midi":64,"time":157.12499999999946,"velocity":0.7480314960629921,"duration":0.3375000000000057},{"name":"E4","midi":64,"time":157.49999999999946,"velocity":0.7480314960629921,"duration":0.3375000000000057},{"name":"E4","midi":64,"time":157.87499999999946,"velocity":0.7480314960629921,"duration":0.6750000000000114},{"name":"E5","midi":76,"time":157.87499999999946,"velocity":0.7480314960629921,"duration":0.3375000000000057},{"name":"E5","midi":76,"time":158.24999999999946,"velocity":0.7480314960629921,"duration":0.3375000000000057},{"name":"E4","midi":64,"time":158.62499999999946,"velocity":0.7480314960629921,"duration":0.3375000000000057},{"name":"E4","midi":64,"time":158.99999999999946,"velocity":0.7480314960629921,"duration":0.3375000000000057},{"name":"E5","midi":76,"time":159.37499999999946,"velocity":0.7480314960629921,"duration":0.3375000000000057},{"name":"E4","midi":64,"time":159.37499999999946,"velocity":0.7480314960629921,"duration":0.6750000000000114},{"name":"E5","midi":76,"time":159.74999999999946,"velocity":0.7480314960629921,"duration":0.3375000000000057},{"name":"E4","midi":64,"time":160.12499999999946,"velocity":0.7480314960629921,"duration":0.3375000000000057},{"name":"E4","midi":64,"time":160.49999999999946,"velocity":0.7480314960629921,"duration":0.3375000000000057},{"name":"E5","midi":76,"time":160.87499999999946,"velocity":0.7480314960629921,"duration":0.3375000000000057},{"name":"E4","midi":64,"time":160.87499999999946,"velocity":0.7480314960629921,"duration":0.6750000000000114},{"name":"E5","midi":76,"time":161.24999999999946,"velocity":0.7480314960629921,"duration":0.3375000000000057},{"name":"E4","midi":64,"time":161.62499999999946,"velocity":0.7480314960629921,"duration":0.3375000000000057},{"name":"D4","midi":62,"time":161.99999999999946,"velocity":0.7480314960629921,"duration":0.3375000000000057},{"name":"E5","midi":76,"time":162.37499999999946,"velocity":0.7480314960629921,"duration":0.3375000000000057},{"name":"D4","midi":62,"time":162.37499999999946,"velocity":0.7480314960629921,"duration":0.6750000000000114},{"name":"D5","midi":74,"time":162.74999999999946,"velocity":0.7480314960629921,"duration":0.3375000000000057},{"name":"D4","midi":62,"time":163.12499999999946,"velocity":0.7480314960629921,"duration":0.3375000000000057},{"name":"D4","midi":62,"time":163.49999999999946,"velocity":0.7480314960629921,"duration":0.3375000000000057},{"name":"D4","midi":62,"time":163.87499999999946,"velocity":0.7480314960629921,"duration":0.6750000000000114},{"name":"D5","midi":74,"time":163.87499999999946,"velocity":0.7480314960629921,"duration":0.3375000000000057},{"name":"D5","midi":74,"time":164.24999999999946,"velocity":0.7480314960629921,"duration":0.3375000000000057},{"name":"D4","midi":62,"time":164.62499999999946,"velocity":0.7480314960629921,"duration":0.3375000000000057},{"name":"D4","midi":62,"time":164.99999999999946,"velocity":0.7480314960629921,"duration":0.3375000000000057},{"name":"D5","midi":74,"time":165.37499999999946,"velocity":0.7480314960629921,"duration":0.3375000000000057},{"name":"D4","midi":62,"time":165.37499999999946,"velocity":0.7480314960629921,"duration":0.6750000000000114},{"name":"D5","midi":74,"time":165.74999999999946,"velocity":0.7480314960629921,"duration":0.3375000000000057},{"name":"D4","midi":62,"time":166.12499999999946,"velocity":0.7480314960629921,"duration":0.3375000000000057},{"name":"D4","midi":62,"time":166.49999999999946,"velocity":0.7480314960629921,"duration":0.3375000000000057},{"name":"D4","midi":62,"time":166.87499999999946,"velocity":0.7480314960629921,"duration":0.6750000000000114},{"name":"D5","midi":74,"time":166.87499999999946,"velocity":0.7480314960629921,"duration":0.3375000000000057},{"name":"D5","midi":74,"time":167.24999999999946,"velocity":0.7480314960629921,"duration":0.3375000000000057},{"name":"D4","midi":62,"time":167.62499999999946,"velocity":0.7480314960629921,"duration":0.3375000000000057},{"name":"A4","midi":69,"time":167.99999999999946,"velocity":0.7480314960629921,"duration":0.3375000000000057},{"name":"G#5","midi":80,"time":168.37499999999946,"velocity":0.7480314960629921,"duration":0.3375000000000057},{"name":"A4","midi":69,"time":168.37499999999946,"velocity":0.7480314960629921,"duration":0.6750000000000114},{"name":"A5","midi":81,"time":168.74999999999946,"velocity":0.7480314960629921,"duration":0.3375000000000057},{"name":"A4","midi":69,"time":169.12499999999946,"velocity":0.7480314960629921,"duration":0.3375000000000057},{"name":"A4","midi":69,"time":169.49999999999946,"velocity":0.7480314960629921,"duration":0.3375000000000057},{"name":"A5","midi":81,"time":169.87499999999946,"velocity":0.7480314960629921,"duration":0.3375000000000057},{"name":"A4","midi":69,"time":169.87499999999946,"velocity":0.7480314960629921,"duration":0.6750000000000114},{"name":"A5","midi":81,"time":170.24999999999946,"velocity":0.7480314960629921,"duration":0.3375000000000057},{"name":"A4","midi":69,"time":170.62499999999946,"velocity":0.7480314960629921,"duration":0.3375000000000057},{"name":"A4","midi":69,"time":170.99999999999946,"velocity":0.7480314960629921,"duration":0.3375000000000057},{"name":"A4","midi":69,"time":171.37499999999946,"velocity":0.7480314960629921,"duration":0.6750000000000114},{"name":"A5","midi":81,"time":171.37499999999946,"velocity":0.7480314960629921,"duration":0.3375000000000057},{"name":"A5","midi":81,"time":171.74999999999946,"velocity":0.7480314960629921,"duration":0.3375000000000057},{"name":"A4","midi":69,"time":172.12499999999946,"velocity":0.7480314960629921,"duration":0.3375000000000057},{"name":"A4","midi":69,"time":172.49999999999946,"velocity":0.7480314960629921,"duration":0.3375000000000057},{"name":"A4","midi":69,"time":172.87499999999946,"velocity":0.7480314960629921,"duration":0.6750000000000114},{"name":"A5","midi":81,"time":172.87499999999946,"velocity":0.7480314960629921,"duration":0.3375000000000057},{"name":"A5","midi":81,"time":173.24999999999946,"velocity":0.7480314960629921,"duration":0.3375000000000057},{"name":"A4","midi":69,"time":173.62499999999946,"velocity":0.7480314960629921,"duration":0.3375000000000057},{"name":"E4","midi":64,"time":173.99999999999946,"velocity":0.7480314960629921,"duration":0.3375000000000057},{"name":"A5","midi":81,"time":174.37499999999946,"velocity":0.7480314960629921,"duration":0.3375000000000057},{"name":"E4","midi":64,"time":174.37499999999946,"velocity":0.7480314960629921,"duration":0.6750000000000114},{"name":"E5","midi":76,"time":174.74999999999946,"velocity":0.7480314960629921,"duration":0.3375000000000057},{"name":"E4","midi":64,"time":175.12499999999946,"velocity":0.7480314960629921,"duration":0.3375000000000057},{"name":"E4","midi":64,"time":175.49999999999946,"velocity":0.7480314960629921,"duration":0.3375000000000057},{"name":"E4","midi":64,"time":175.87499999999946,"velocity":0.7480314960629921,"duration":0.6750000000000114},{"name":"E5","midi":76,"time":175.87499999999946,"velocity":0.7480314960629921,"duration":0.3375000000000057},{"name":"E5","midi":76,"time":176.24999999999946,"velocity":0.7480314960629921,"duration":0.3375000000000057},{"name":"E4","midi":64,"time":176.62499999999946,"velocity":0.7480314960629921,"duration":0.3375000000000057},{"name":"E4","midi":64,"time":176.99999999999946,"velocity":0.7480314960629921,"duration":0.3375000000000057},{"name":"E4","midi":64,"time":177.37499999999946,"velocity":0.7480314960629921,"duration":0.6750000000000114},{"name":"E5","midi":76,"time":177.37499999999946,"velocity":0.7480314960629921,"duration":0.3375000000000057},{"name":"E5","midi":76,"time":177.74999999999946,"velocity":0.7480314960629921,"duration":0.3375000000000057},{"name":"E4","midi":64,"time":178.12499999999946,"velocity":0.7480314960629921,"duration":0.3375000000000057},{"name":"E4","midi":64,"time":178.49999999999946,"velocity":0.7480314960629921,"duration":0.3375000000000057},{"name":"E5","midi":76,"time":178.87499999999946,"velocity":0.7480314960629921,"duration":0.3375000000000057},{"name":"E4","midi":64,"time":178.87499999999946,"velocity":0.7480314960629921,"duration":0.6750000000000114},{"name":"E5","midi":76,"time":179.24999999999946,"velocity":0.7480314960629921,"duration":0.3375000000000057},{"name":"E4","midi":64,"time":179.62499999999946,"velocity":0.7480314960629921,"duration":0.3375000000000057},{"name":"D4","midi":62,"time":179.99999999999946,"velocity":0.7480314960629921,"duration":0.3375000000000057},{"name":"D4","midi":62,"time":180.37499999999946,"velocity":0.7480314960629921,"duration":0.6750000000000114},{"name":"E5","midi":76,"time":180.37499999999946,"velocity":0.7480314960629921,"duration":0.3375000000000057},{"name":"D5","midi":74,"time":180.74999999999946,"velocity":0.7480314960629921,"duration":0.3375000000000057},{"name":"D4","midi":62,"time":181.12499999999946,"velocity":0.7480314960629921,"duration":0.3375000000000057},{"name":"D4","midi":62,"time":181.49999999999946,"velocity":0.7480314960629921,"duration":0.3375000000000057},{"name":"D4","midi":62,"time":181.87499999999946,"velocity":0.7480314960629921,"duration":0.6750000000000114},{"name":"D5","midi":74,"time":181.87499999999946,"velocity":0.7480314960629921,"duration":0.3375000000000057},{"name":"D5","midi":74,"time":182.24999999999946,"velocity":0.7480314960629921,"duration":0.3375000000000057},{"name":"D4","midi":62,"time":182.62499999999946,"velocity":0.7480314960629921,"duration":0.3375000000000057},{"name":"D4","midi":62,"time":182.99999999999946,"velocity":0.7480314960629921,"duration":0.3375000000000057},{"name":"D4","midi":62,"time":183.37499999999946,"velocity":0.7480314960629921,"duration":0.6750000000000114},{"name":"D5","midi":74,"time":183.37499999999946,"velocity":0.7480314960629921,"duration":0.3375000000000057},{"name":"D5","midi":74,"time":183.74999999999946,"velocity":0.7480314960629921,"duration":0.3375000000000057},{"name":"D4","midi":62,"time":184.12499999999946,"velocity":0.7480314960629921,"duration":0.3375000000000057},{"name":"D4","midi":62,"time":184.49999999999946,"velocity":0.7480314960629921,"duration":0.3375000000000057},{"name":"D5","midi":74,"time":184.87499999999946,"velocity":0.7480314960629921,"duration":0.3375000000000057},{"name":"D4","midi":62,"time":184.87499999999946,"velocity":0.7480314960629921,"duration":0.6750000000000114},{"name":"D5","midi":74,"time":185.24999999999946,"velocity":0.7480314960629921,"duration":0.3375000000000057},{"name":"D4","midi":62,"time":185.62499999999946,"velocity":0.7480314960629921,"duration":0.3375000000000057},{"name":"A4","midi":69,"time":185.99999999999946,"velocity":0.7480314960629921,"duration":0.3375000000000057},{"name":"A4","midi":69,"time":186.37499999999946,"velocity":0.7480314960629921,"duration":0.3375000000000057},{"name":"E5","midi":76,"time":186.74999999999946,"velocity":0.7480314960629921,"duration":0.3375000000000057},{"name":"A4","midi":69,"time":186.74999999999946,"velocity":0.7480314960629921,"duration":0.3375000000000057},{"name":"E4","midi":64,"time":186.74999999999946,"velocity":0.7480314960629921,"duration":0.3375000000000057},{"name":"A4","midi":69,"time":187.12499999999946,"velocity":0.7480314960629921,"duration":0.3375000000000057},{"name":"A4","midi":69,"time":187.49999999999946,"velocity":0.7480314960629921,"duration":0.3375000000000057},{"name":"A4","midi":69,"time":187.87499999999946,"velocity":0.7480314960629921,"duration":0.3375000000000057},{"name":"E5","midi":76,"time":187.87499999999946,"velocity":0.7480314960629921,"duration":0.3375000000000057},{"name":"E4","midi":64,"time":187.87499999999946,"velocity":0.7480314960629921,"duration":0.3375000000000057},{"name":"E5","midi":76,"time":188.24999999999946,"velocity":0.7480314960629921,"duration":0.3375000000000057},{"name":"A4","midi":69,"time":188.24999999999946,"velocity":0.7480314960629921,"duration":0.3375000000000057},{"name":"E4","midi":64,"time":188.24999999999946,"velocity":0.7480314960629921,"duration":0.3375000000000057},{"name":"A4","midi":69,"time":188.62499999999946,"velocity":0.7480314960629921,"duration":0.3375000000000057},{"name":"A4","midi":69,"time":188.99999999999946,"velocity":0.7480314960629921,"duration":0.3375000000000057},{"name":"E4","midi":64,"time":189.37499999999946,"velocity":0.7480314960629921,"duration":0.3375000000000057},{"name":"E5","midi":76,"time":189.37499999999946,"velocity":0.7480314960629921,"duration":0.3375000000000057},{"name":"A4","midi":69,"time":189.37499999999946,"velocity":0.7480314960629921,"duration":0.3375000000000057},{"name":"E4","midi":64,"time":189.74999999999946,"velocity":0.7480314960629921,"duration":0.3375000000000057},{"name":"E5","midi":76,"time":189.74999999999946,"velocity":0.7480314960629921,"duration":0.3375000000000057},{"name":"A4","midi":69,"time":189.74999999999946,"velocity":0.7480314960629921,"duration":0.3375000000000057},{"name":"A4","midi":69,"time":190.12499999999946,"velocity":0.7480314960629921,"duration":0.3375000000000057},{"name":"A4","midi":69,"time":190.49999999999946,"velocity":0.7480314960629921,"duration":0.3375000000000057},{"name":"A4","midi":69,"time":190.87499999999946,"velocity":0.7480314960629921,"duration":0.3375000000000057},{"name":"E5","midi":76,"time":190.87499999999946,"velocity":0.7480314960629921,"duration":0.3375000000000057},{"name":"E4","midi":64,"time":190.87499999999946,"velocity":0.7480314960629921,"duration":0.3375000000000057},{"name":"E5","midi":76,"time":191.24999999999946,"velocity":0.7480314960629921,"duration":0.3375000000000057},{"name":"A4","midi":69,"time":191.24999999999946,"velocity":0.7480314960629921,"duration":0.3375000000000057},{"name":"E4","midi":64,"time":191.24999999999946,"velocity":0.7480314960629921,"duration":0.3375000000000057},{"name":"C#4","midi":61,"time":191.62499999999946,"velocity":0.7480314960629921,"duration":0.16874999999998863},{"name":"E4","midi":64,"time":191.81249999999946,"velocity":0.7480314960629921,"duration":0.16874999999998863},{"name":"C#4","midi":61,"time":191.99999999999946,"velocity":0.7480314960629921,"duration":0.3375000000000057},{"name":"C#4","midi":61,"time":192.37499999999946,"velocity":0.7480314960629921,"duration":0.6750000000000114},{"name":"E5","midi":76,"time":192.37499999999946,"velocity":0.7480314960629921,"duration":0.3375000000000057},{"name":"A4","midi":69,"time":192.37499999999946,"velocity":0.7480314960629921,"duration":0.3375000000000057},{"name":"E4","midi":64,"time":192.37499999999946,"velocity":0.7480314960629921,"duration":0.3375000000000057},{"name":"E5","midi":76,"time":192.74999999999946,"velocity":0.7480314960629921,"duration":0.3375000000000057},{"name":"G#5","midi":80,"time":192.74999999999946,"velocity":0.7480314960629921,"duration":0.3375000000000057},{"name":"C#4","midi":61,"time":193.12499999999946,"velocity":0.7480314960629921,"duration":0.3375000000000057},{"name":"C#4","midi":61,"time":193.49999999999946,"velocity":0.7480314960629921,"duration":0.3375000000000057},{"name":"E5","midi":76,"time":193.87499999999946,"velocity":0.7480314960629921,"duration":0.3375000000000057},{"name":"G#5","midi":80,"time":193.87499999999946,"velocity":0.7480314960629921,"duration":0.3375000000000057},{"name":"C#4","midi":61,"time":193.87499999999946,"velocity":0.7480314960629921,"duration":0.6750000000000114},{"name":"G#5","midi":80,"time":194.24999999999946,"velocity":0.7480314960629921,"duration":0.3375000000000057},{"name":"E5","midi":76,"time":194.24999999999946,"velocity":0.7480314960629921,"duration":0.3375000000000057},{"name":"C#4","midi":61,"time":194.62499999999946,"velocity":0.7480314960629921,"duration":0.3375000000000057},{"name":"C#4","midi":61,"time":194.99999999999946,"velocity":0.7480314960629921,"duration":0.3375000000000057},{"name":"E5","midi":76,"time":195.37499999999946,"velocity":0.7480314960629921,"duration":0.3375000000000057},{"name":"C#4","midi":61,"time":195.37499999999946,"velocity":0.7480314960629921,"duration":0.6750000000000114},{"name":"G#5","midi":80,"time":195.37499999999946,"velocity":0.7480314960629921,"duration":0.3375000000000057},{"name":"G#5","midi":80,"time":195.74999999999946,"velocity":0.7480314960629921,"duration":0.3375000000000057},{"name":"E5","midi":76,"time":195.74999999999946,"velocity":0.7480314960629921,"duration":0.3375000000000057},{"name":"C#4","midi":61,"time":196.12499999999946,"velocity":0.7480314960629921,"duration":0.3375000000000057},{"name":"C#4","midi":61,"time":196.49999999999946,"velocity":0.7480314960629921,"duration":0.3375000000000057},{"name":"E5","midi":76,"time":196.87499999999946,"velocity":0.7480314960629921,"duration":0.3375000000000057},{"name":"C#4","midi":61,"time":196.87499999999946,"velocity":0.7480314960629921,"duration":0.6750000000000114},{"name":"G#5","midi":80,"time":196.87499999999946,"velocity":0.7480314960629921,"duration":0.3375000000000057},{"name":"G#5","midi":80,"time":197.24999999999946,"velocity":0.7480314960629921,"duration":0.3375000000000057},{"name":"E5","midi":76,"time":197.24999999999946,"velocity":0.7480314960629921,"duration":0.3375000000000057},{"name":"F#4","midi":66,"time":197.62499999999946,"velocity":0.7480314960629921,"duration":0.16874999999998863},{"name":"G#4","midi":68,"time":197.81249999999946,"velocity":0.7480314960629921,"duration":0.16874999999998863},{"name":"F#4","midi":66,"time":197.99999999999946,"velocity":0.7480314960629921,"duration":0.3375000000000057},{"name":"G#5","midi":80,"time":198.37499999999946,"velocity":0.7480314960629921,"duration":0.3375000000000057},{"name":"F#4","midi":66,"time":198.37499999999946,"velocity":0.7480314960629921,"duration":0.3375000000000057},{"name":"E5","midi":76,"time":198.37499999999946,"velocity":0.7480314960629921,"duration":0.3375000000000057},{"name":"F#5","midi":78,"time":198.74999999999946,"velocity":0.7480314960629921,"duration":0.3375000000000057},{"name":"C#5","midi":73,"time":198.74999999999946,"velocity":0.7480314960629921,"duration":0.3375000000000057},{"name":"A4","midi":69,"time":198.74999999999946,"velocity":0.7480314960629921,"duration":0.3375000000000057},{"name":"A4","midi":69,"time":199.12499999999946,"velocity":0.7480314960629921,"duration":0.3375000000000057},{"name":"A4","midi":69,"time":199.49999999999946,"velocity":0.7480314960629921,"duration":0.3375000000000057},{"name":"F#5","midi":78,"time":199.87499999999946,"velocity":0.7480314960629921,"duration":0.3375000000000057},{"name":"C#5","midi":73,"time":199.87499999999946,"velocity":0.7480314960629921,"duration":0.3375000000000057},{"name":"A4","midi":69,"time":199.87499999999946,"velocity":0.7480314960629921,"duration":0.3375000000000057},{"name":"A4","midi":69,"time":200.24999999999946,"velocity":0.7480314960629921,"duration":0.3375000000000057},{"name":"C#5","midi":73,"time":200.24999999999946,"velocity":0.7480314960629921,"duration":0.3375000000000057},{"name":"F#5","midi":78,"time":200.24999999999946,"velocity":0.7480314960629921,"duration":0.5062499999999943},{"name":"C#5","midi":73,"time":200.62499999999946,"velocity":0.7480314960629921,"duration":0.16874999999998863},{"name":"F#5","midi":78,"time":200.81249999999946,"velocity":0.7480314960629921,"duration":0.16874999999998863},{"name":"D4","midi":62,"time":200.99999999999946,"velocity":0.7480314960629921,"duration":0.3375000000000057},{"name":"A4","midi":69,"time":201.37499999999946,"velocity":0.7480314960629921,"duration":0.3375000000000057},{"name":"C#5","midi":73,"time":201.37499999999946,"velocity":0.7480314960629921,"duration":0.3375000000000057},{"name":"F#5","midi":78,"time":201.37499999999946,"velocity":0.7480314960629921,"duration":0.3375000000000057},{"name":"D4","midi":62,"time":201.37499999999946,"velocity":0.7480314960629921,"duration":0.6750000000000114},{"name":"F#4","midi":66,"time":201.74999999999946,"velocity":0.7480314960629921,"duration":0.3375000000000057},{"name":"D4","midi":62,"time":202.12499999999946,"velocity":0.7480314960629921,"duration":0.3375000000000057},{"name":"D4","midi":62,"time":202.49999999999946,"velocity":0.7480314960629921,"duration":0.3375000000000057},{"name":"D4","midi":62,"time":202.87499999999946,"velocity":0.7480314960629921,"duration":0.6750000000000114},{"name":"F#4","midi":66,"time":202.87499999999946,"velocity":0.7480314960629921,"duration":0.3375000000000057},{"name":"F#4","midi":66,"time":203.24999999999946,"velocity":0.7480314960629921,"duration":0.3375000000000057},{"name":"D4","midi":62,"time":203.62499999999946,"velocity":0.7480314960629921,"duration":0.3375000000000057},{"name":"D4","midi":62,"time":203.99999999999946,"velocity":0.7480314960629921,"duration":0.3375000000000057},{"name":"D4","midi":62,"time":204.37499999999946,"velocity":0.7480314960629921,"duration":0.6750000000000114},{"name":"F#4","midi":66,"time":204.37499999999946,"velocity":0.7480314960629921,"duration":0.3375000000000057},{"name":"F#4","midi":66,"time":204.74999999999946,"velocity":0.7480314960629921,"duration":0.3375000000000057},{"name":"D4","midi":62,"time":205.12499999999946,"velocity":0.7480314960629921,"duration":0.3375000000000057},{"name":"D4","midi":62,"time":205.49999999999946,"velocity":0.7480314960629921,"duration":0.3375000000000057},{"name":"F#4","midi":66,"time":205.87499999999946,"velocity":0.7480314960629921,"duration":0.3375000000000057},{"name":"D4","midi":62,"time":205.87499999999946,"velocity":0.7480314960629921,"duration":0.6750000000000114},{"name":"F#4","midi":66,"time":206.24999999999946,"velocity":0.7480314960629921,"duration":0.3375000000000057},{"name":"D4","midi":62,"time":206.62499999999946,"velocity":0.7480314960629921,"duration":0.3375000000000057},{"name":"A4","midi":69,"time":206.99999999999946,"velocity":0.7480314960629921,"duration":0.3375000000000057},{"name":"C#5","midi":73,"time":206.99999999999946,"velocity":0.7480314960629921,"duration":0.3375000000000057},{"name":"C#5","midi":73,"time":207.37499999999946,"velocity":0.7480314960629921,"duration":0.6750000000000114},{"name":"A4","midi":69,"time":207.37499999999946,"velocity":0.7480314960629921,"duration":0.6750000000000114},{"name":"A4","midi":69,"time":208.12499999999946,"velocity":0.7480314960629921,"duration":0.3375000000000057},{"name":"C#5","midi":73,"time":208.12499999999946,"velocity":0.7480314960629921,"duration":0.3375000000000057},{"name":"A4","midi":69,"time":208.49999999999946,"velocity":0.7480314960629921,"duration":0.3375000000000057},{"name":"C#5","midi":73,"time":208.49999999999946,"velocity":0.7480314960629921,"duration":0.3375000000000057},{"name":"A4","midi":69,"time":208.87499999999946,"velocity":0.7480314960629921,"duration":0.6750000000000114},{"name":"C#5","midi":73,"time":208.87499999999946,"velocity":0.7480314960629921,"duration":0.6750000000000114},{"name":"C#5","midi":73,"time":209.62499999999946,"velocity":0.7480314960629921,"duration":0.3375000000000057},{"name":"A4","midi":69,"time":209.62499999999946,"velocity":0.7480314960629921,"duration":0.3375000000000057},{"name":"A4","midi":69,"time":209.99999999999946,"velocity":0.7480314960629921,"duration":0.3375000000000057},{"name":"C#5","midi":73,"time":209.99999999999946,"velocity":0.7480314960629921,"duration":0.3375000000000057},{"name":"C#5","midi":73,"time":210.37499999999946,"velocity":0.7480314960629921,"duration":0.6750000000000114},{"name":"A4","midi":69,"time":210.37499999999946,"velocity":0.7480314960629921,"duration":0.6750000000000114},{"name":"C#5","midi":73,"time":211.12499999999946,"velocity":0.7480314960629921,"duration":0.3375000000000057},{"name":"A4","midi":69,"time":211.12499999999946,"velocity":0.7480314960629921,"duration":0.3375000000000057},{"name":"A4","midi":69,"time":211.49999999999946,"velocity":0.7480314960629921,"duration":0.3375000000000057},{"name":"C#5","midi":73,"time":211.49999999999946,"velocity":0.7480314960629921,"duration":0.3375000000000057},{"name":"C#5","midi":73,"time":211.87499999999946,"velocity":0.7480314960629921,"duration":0.6750000000000114},{"name":"A4","midi":69,"time":211.87499999999946,"velocity":0.7480314960629921,"duration":0.6750000000000114},{"name":"C#5","midi":73,"time":212.62499999999946,"velocity":0.7480314960629921,"duration":0.3375000000000057},{"name":"A4","midi":69,"time":212.62499999999946,"velocity":0.7480314960629921,"duration":0.3375000000000057},{"name":"G#4","midi":68,"time":212.99999999999946,"velocity":0.7480314960629921,"duration":0.3375000000000057},{"name":"E4","midi":64,"time":212.99999999999946,"velocity":0.7480314960629921,"duration":0.3375000000000057},{"name":"E4","midi":64,"time":213.37499999999946,"velocity":0.7480314960629921,"duration":0.6750000000000114},{"name":"G#4","midi":68,"time":213.37499999999946,"velocity":0.7480314960629921,"duration":0.6750000000000114},{"name":"G#4","midi":68,"time":214.12499999999946,"velocity":0.7480314960629921,"duration":0.3375000000000057},{"name":"E4","midi":64,"time":214.12499999999946,"velocity":0.7480314960629921,"duration":0.3375000000000057},{"name":"E4","midi":64,"time":214.49999999999946,"velocity":0.7480314960629921,"duration":0.3375000000000057},{"name":"G#4","midi":68,"time":214.49999999999946,"velocity":0.7480314960629921,"duration":0.3375000000000057},{"name":"E4","midi":64,"time":214.87499999999946,"velocity":0.7480314960629921,"duration":0.6750000000000114},{"name":"G#4","midi":68,"time":214.87499999999946,"velocity":0.7480314960629921,"duration":0.6750000000000114},{"name":"E4","midi":64,"time":215.62499999999946,"velocity":0.7480314960629921,"duration":0.3375000000000057},{"name":"G#4","midi":68,"time":215.62499999999946,"velocity":0.7480314960629921,"duration":0.3375000000000057},{"name":"E4","midi":64,"time":215.99999999999946,"velocity":0.7480314960629921,"duration":0.3375000000000057},{"name":"G#4","midi":68,"time":215.99999999999946,"velocity":0.7480314960629921,"duration":0.3375000000000057},{"name":"E4","midi":64,"time":216.37499999999946,"velocity":0.7480314960629921,"duration":0.6750000000000114},{"name":"G#4","midi":68,"time":216.37499999999946,"velocity":0.7480314960629921,"duration":0.6750000000000114},{"name":"E4","midi":64,"time":217.12499999999946,"velocity":0.7480314960629921,"duration":0.3375000000000057},{"name":"G#4","midi":68,"time":217.12499999999946,"velocity":0.7480314960629921,"duration":0.3375000000000057},{"name":"E4","midi":64,"time":217.49999999999946,"velocity":0.7480314960629921,"duration":0.3375000000000057},{"name":"G#4","midi":68,"time":217.49999999999946,"velocity":0.7480314960629921,"duration":0.3375000000000057},{"name":"E4","midi":64,"time":217.87499999999946,"velocity":0.7480314960629921,"duration":0.6750000000000114},{"name":"G#4","midi":68,"time":217.87499999999946,"velocity":0.7480314960629921,"duration":0.6750000000000114},{"name":"G#4","midi":68,"time":218.62499999999946,"velocity":0.7480314960629921,"duration":0.3375000000000057},{"name":"E4","midi":64,"time":218.62499999999946,"velocity":0.7480314960629921,"duration":0.3375000000000057},{"name":"F#4","midi":66,"time":218.99999999999946,"velocity":0.7480314960629921,"duration":0.3375000000000057},{"name":"D4","midi":62,"time":218.99999999999946,"velocity":0.7480314960629921,"duration":0.3375000000000057},{"name":"F#4","midi":66,"time":219.37499999999946,"velocity":0.7480314960629921,"duration":0.6750000000000114},{"name":"D4","midi":62,"time":219.37499999999946,"velocity":0.7480314960629921,"duration":0.6750000000000114},{"name":"D4","midi":62,"time":220.12499999999946,"velocity":0.7480314960629921,"duration":0.3375000000000057},{"name":"F#4","midi":66,"time":220.12499999999946,"velocity":0.7480314960629921,"duration":0.3375000000000057},{"name":"D4","midi":62,"time":220.49999999999946,"velocity":0.7480314960629921,"duration":0.3375000000000057},{"name":"F#4","midi":66,"time":220.49999999999946,"velocity":0.7480314960629921,"duration":0.3375000000000057},{"name":"F#4","midi":66,"time":220.87499999999946,"velocity":0.7480314960629921,"duration":0.6750000000000114},{"name":"D4","midi":62,"time":220.87499999999946,"velocity":0.7480314960629921,"duration":0.6750000000000114},{"name":"D4","midi":62,"time":221.62499999999946,"velocity":0.7480314960629921,"duration":0.3375000000000057},{"name":"F#4","midi":66,"time":221.62499999999946,"velocity":0.7480314960629921,"duration":0.3375000000000057},{"name":"F#4","midi":66,"time":221.99999999999946,"velocity":0.7480314960629921,"duration":0.3375000000000057},{"name":"D4","midi":62,"time":221.99999999999946,"velocity":0.7480314960629921,"duration":0.3375000000000057},{"name":"F#4","midi":66,"time":222.37499999999946,"velocity":0.7480314960629921,"duration":0.6750000000000114},{"name":"D4","midi":62,"time":222.37499999999946,"velocity":0.7480314960629921,"duration":0.6750000000000114},{"name":"D4","midi":62,"time":223.12499999999946,"velocity":0.7480314960629921,"duration":0.3375000000000057},{"name":"F#4","midi":66,"time":223.12499999999946,"velocity":0.7480314960629921,"duration":0.3375000000000057},{"name":"F#4","midi":66,"time":223.49999999999946,"velocity":0.7480314960629921,"duration":0.3375000000000057},{"name":"D4","midi":62,"time":223.49999999999946,"velocity":0.7480314960629921,"duration":0.3375000000000057},{"name":"F#4","midi":66,"time":223.87499999999946,"velocity":0.7480314960629921,"duration":0.6750000000000114},{"name":"D4","midi":62,"time":223.87499999999946,"velocity":0.7480314960629921,"duration":0.6750000000000114},{"name":"F#4","midi":66,"time":224.62499999999946,"velocity":0.7480314960629921,"duration":0.3375000000000057},{"name":"D4","midi":62,"time":224.62499999999946,"velocity":0.7480314960629921,"duration":0.3375000000000057},{"name":"A4","midi":69,"time":224.99999999999946,"velocity":0.7480314960629921,"duration":0.3375000000000057},{"name":"C#5","midi":73,"time":224.99999999999946,"velocity":0.7480314960629921,"duration":0.3375000000000057},{"name":"A4","midi":69,"time":225.37499999999946,"velocity":0.7480314960629921,"duration":0.6750000000000114},{"name":"C#5","midi":73,"time":225.37499999999946,"velocity":0.7480314960629921,"duration":0.6750000000000114},{"name":"C#5","midi":73,"time":226.12499999999946,"velocity":0.7480314960629921,"duration":0.3375000000000057},{"name":"A4","midi":69,"time":226.12499999999946,"velocity":0.7480314960629921,"duration":0.3375000000000057},{"name":"A4","midi":69,"time":226.49999999999946,"velocity":0.7480314960629921,"duration":0.3375000000000057},{"name":"C#5","midi":73,"time":226.49999999999946,"velocity":0.7480314960629921,"duration":0.3375000000000057},{"name":"A4","midi":69,"time":226.87499999999946,"velocity":0.7480314960629921,"duration":0.6750000000000114},{"name":"C#5","midi":73,"time":226.87499999999946,"velocity":0.7480314960629921,"duration":0.6750000000000114},{"name":"A4","midi":69,"time":227.62499999999946,"velocity":0.7480314960629921,"duration":0.3375000000000057},{"name":"C#5","midi":73,"time":227.62499999999946,"velocity":0.7480314960629921,"duration":0.3375000000000057},{"name":"C#5","midi":73,"time":227.99999999999946,"velocity":0.7480314960629921,"duration":0.3375000000000057},{"name":"A4","midi":69,"time":227.99999999999946,"velocity":0.7480314960629921,"duration":0.3375000000000057},{"name":"C#5","midi":73,"time":228.37499999999946,"velocity":0.7480314960629921,"duration":0.6750000000000114},{"name":"A4","midi":69,"time":228.37499999999946,"velocity":0.7480314960629921,"duration":0.6750000000000114},{"name":"C#5","midi":73,"time":229.12499999999946,"velocity":0.7480314960629921,"duration":0.3375000000000057},{"name":"A4","midi":69,"time":229.12499999999946,"velocity":0.7480314960629921,"duration":0.3375000000000057},{"name":"A4","midi":69,"time":229.49999999999946,"velocity":0.7480314960629921,"duration":0.3375000000000057},{"name":"C#5","midi":73,"time":229.49999999999946,"velocity":0.7480314960629921,"duration":0.3375000000000057},{"name":"A4","midi":69,"time":229.87499999999946,"velocity":0.7480314960629921,"duration":0.6750000000000114},{"name":"C#5","midi":73,"time":229.87499999999946,"velocity":0.7480314960629921,"duration":0.6750000000000114},{"name":"A4","midi":69,"time":230.62499999999946,"velocity":0.7480314960629921,"duration":0.3375000000000057},{"name":"C#5","midi":73,"time":230.62499999999946,"velocity":0.7480314960629921,"duration":0.3375000000000057},{"name":"G#4","midi":68,"time":230.99999999999946,"velocity":0.7480314960629921,"duration":0.3375000000000057},{"name":"E4","midi":64,"time":230.99999999999946,"velocity":0.7480314960629921,"duration":0.3375000000000057},{"name":"E4","midi":64,"time":231.37499999999946,"velocity":0.7480314960629921,"duration":0.6750000000000114},{"name":"G#4","midi":68,"time":231.37499999999946,"velocity":0.7480314960629921,"duration":0.6750000000000114},{"name":"E4","midi":64,"time":232.12499999999946,"velocity":0.7480314960629921,"duration":0.3375000000000057},{"name":"G#4","midi":68,"time":232.12499999999946,"velocity":0.7480314960629921,"duration":0.3375000000000057},{"name":"E4","midi":64,"time":232.49999999999946,"velocity":0.7480314960629921,"duration":0.3375000000000057},{"name":"G#4","midi":68,"time":232.49999999999946,"velocity":0.7480314960629921,"duration":0.3375000000000057},{"name":"E4","midi":64,"time":232.87499999999946,"velocity":0.7480314960629921,"duration":0.6750000000000114},{"name":"G#4","midi":68,"time":232.87499999999946,"velocity":0.7480314960629921,"duration":0.6750000000000114},{"name":"G#4","midi":68,"time":233.62499999999946,"velocity":0.7480314960629921,"duration":0.3375000000000057},{"name":"E4","midi":64,"time":233.62499999999946,"velocity":0.7480314960629921,"duration":0.3375000000000057},{"name":"E4","midi":64,"time":233.99999999999946,"velocity":0.7480314960629921,"duration":0.3375000000000057},{"name":"G#4","midi":68,"time":233.99999999999946,"velocity":0.7480314960629921,"duration":0.3375000000000057},{"name":"G#4","midi":68,"time":234.37499999999946,"velocity":0.7480314960629921,"duration":0.6750000000000114},{"name":"E4","midi":64,"time":234.37499999999946,"velocity":0.7480314960629921,"duration":0.6750000000000114},{"name":"G#4","midi":68,"time":235.12499999999946,"velocity":0.7480314960629921,"duration":0.3375000000000057},{"name":"E4","midi":64,"time":235.12499999999946,"velocity":0.7480314960629921,"duration":0.3375000000000057},{"name":"G#4","midi":68,"time":235.49999999999946,"velocity":0.7480314960629921,"duration":0.3375000000000057},{"name":"E4","midi":64,"time":235.49999999999946,"velocity":0.7480314960629921,"duration":0.3375000000000057},{"name":"G#4","midi":68,"time":235.87499999999946,"velocity":0.7480314960629921,"duration":0.6750000000000114},{"name":"E4","midi":64,"time":235.87499999999946,"velocity":0.7480314960629921,"duration":0.6750000000000114},{"name":"G#4","midi":68,"time":236.62499999999946,"velocity":0.7480314960629921,"duration":0.3375000000000057},{"name":"E4","midi":64,"time":236.62499999999946,"velocity":0.7480314960629921,"duration":0.3375000000000057},{"name":"F#4","midi":66,"time":236.99999999999946,"velocity":0.7480314960629921,"duration":0.3375000000000057},{"name":"D4","midi":62,"time":236.99999999999946,"velocity":0.7480314960629921,"duration":0.3375000000000057},{"name":"D4","midi":62,"time":237.37499999999946,"velocity":0.7480314960629921,"duration":0.6750000000000114},{"name":"F#4","midi":66,"time":237.37499999999946,"velocity":0.7480314960629921,"duration":0.6750000000000114},{"name":"F#4","midi":66,"time":238.12499999999946,"velocity":0.7480314960629921,"duration":0.3375000000000057},{"name":"D4","midi":62,"time":238.12499999999946,"velocity":0.7480314960629921,"duration":0.3375000000000057},{"name":"F#4","midi":66,"time":238.49999999999946,"velocity":0.7480314960629921,"duration":0.3375000000000057},{"name":"D4","midi":62,"time":238.49999999999946,"velocity":0.7480314960629921,"duration":0.3375000000000057},{"name":"D4","midi":62,"time":238.87499999999946,"velocity":0.7480314960629921,"duration":0.6750000000000114},{"name":"F#4","midi":66,"time":238.87499999999946,"velocity":0.7480314960629921,"duration":0.6750000000000114},{"name":"F#4","midi":66,"time":239.62499999999946,"velocity":0.7480314960629921,"duration":0.3375000000000057},{"name":"D4","midi":62,"time":239.62499999999946,"velocity":0.7480314960629921,"duration":0.3375000000000057},{"name":"F#4","midi":66,"time":239.99999999999946,"velocity":0.7480314960629921,"duration":0.3375000000000057},{"name":"D4","midi":62,"time":239.99999999999946,"velocity":0.7480314960629921,"duration":0.3375000000000057},{"name":"F#4","midi":66,"time":240.37499999999946,"velocity":0.7480314960629921,"duration":0.6750000000000114},{"name":"D4","midi":62,"time":240.37499999999946,"velocity":0.7480314960629921,"duration":0.6750000000000114},{"name":"F#4","midi":66,"time":241.12499999999946,"velocity":0.7480314960629921,"duration":0.3375000000000057},{"name":"D4","midi":62,"time":241.12499999999946,"velocity":0.7480314960629921,"duration":0.3375000000000057},{"name":"F#4","midi":66,"time":241.49999999999946,"velocity":0.7480314960629921,"duration":0.3375000000000057},{"name":"D4","midi":62,"time":241.49999999999946,"velocity":0.7480314960629921,"duration":0.3375000000000057},{"name":"F#4","midi":66,"time":241.87499999999946,"velocity":0.7480314960629921,"duration":0.6750000000000114},{"name":"D4","midi":62,"time":241.87499999999946,"velocity":0.7480314960629921,"duration":0.6750000000000114},{"name":"F#4","midi":66,"time":242.62499999999946,"velocity":0.7480314960629921,"duration":0.3375000000000057},{"name":"D4","midi":62,"time":242.62499999999946,"velocity":0.7480314960629921,"duration":0.3375000000000057},{"name":"A4","midi":69,"time":242.99999999999946,"velocity":0.7480314960629921,"duration":0.3375000000000057},{"name":"C#5","midi":73,"time":242.99999999999946,"velocity":0.7480314960629921,"duration":0.3375000000000057},{"name":"A4","midi":69,"time":243.37499999999946,"velocity":0.7480314960629921,"duration":0.3375000000000057},{"name":"C#5","midi":73,"time":243.37499999999946,"velocity":0.7480314960629921,"duration":0.3375000000000057},{"name":"C#5","midi":73,"time":243.74999999999946,"velocity":0.7480314960629921,"duration":0.3375000000000057},{"name":"A4","midi":69,"time":243.74999999999946,"velocity":0.7480314960629921,"duration":0.3375000000000057},{"name":"C#5","midi":73,"time":244.12499999999946,"velocity":0.7480314960629921,"duration":0.3375000000000057},{"name":"A4","midi":69,"time":244.12499999999946,"velocity":0.7480314960629921,"duration":0.3375000000000057},{"name":"C#5","midi":73,"time":244.49999999999946,"velocity":0.7480314960629921,"duration":0.3375000000000057},{"name":"A4","midi":69,"time":244.49999999999946,"velocity":0.7480314960629921,"duration":0.3375000000000057},{"name":"A4","midi":69,"time":244.87499999999946,"velocity":0.7480314960629921,"duration":0.3375000000000057},{"name":"C#5","midi":73,"time":244.87499999999946,"velocity":0.7480314960629921,"duration":0.3375000000000057},{"name":"C#5","midi":73,"time":245.24999999999946,"velocity":0.7480314960629921,"duration":0.3375000000000057},{"name":"A4","midi":69,"time":245.24999999999946,"velocity":0.7480314960629921,"duration":0.3375000000000057},{"name":"A4","midi":69,"time":245.62499999999946,"velocity":0.7480314960629921,"duration":0.3375000000000057},{"name":"C#5","midi":73,"time":245.62499999999946,"velocity":0.7480314960629921,"duration":0.3375000000000057},{"name":"A4","midi":69,"time":245.99999999999946,"velocity":0.7480314960629921,"duration":0.3375000000000057},{"name":"C#5","midi":73,"time":245.99999999999946,"velocity":0.7480314960629921,"duration":0.3375000000000057},{"name":"A4","midi":69,"time":246.37499999999946,"velocity":0.7480314960629921,"duration":0.3375000000000057},{"name":"C#5","midi":73,"time":246.37499999999946,"velocity":0.7480314960629921,"duration":0.3375000000000057},{"name":"A4","midi":69,"time":246.74999999999946,"velocity":0.7480314960629921,"duration":0.3375000000000057},{"name":"C#5","midi":73,"time":246.74999999999946,"velocity":0.7480314960629921,"duration":0.3375000000000057},{"name":"C#5","midi":73,"time":247.12499999999946,"velocity":0.7480314960629921,"duration":0.3375000000000057},{"name":"A4","midi":69,"time":247.12499999999946,"velocity":0.7480314960629921,"duration":0.3375000000000057},{"name":"C#5","midi":73,"time":247.49999999999946,"velocity":0.7480314960629921,"duration":0.3375000000000057},{"name":"A4","midi":69,"time":247.49999999999946,"velocity":0.7480314960629921,"duration":0.3375000000000057},{"name":"A4","midi":69,"time":247.87499999999946,"velocity":0.7480314960629921,"duration":0.3375000000000057},{"name":"C#5","midi":73,"time":247.87499999999946,"velocity":0.7480314960629921,"duration":0.3375000000000057},{"name":"A4","midi":69,"time":248.24999999999946,"velocity":0.7480314960629921,"duration":0.3375000000000057},{"name":"C#5","midi":73,"time":248.24999999999946,"velocity":0.7480314960629921,"duration":0.3375000000000057},{"name":"C#5","midi":73,"time":248.62499999999946,"velocity":0.7480314960629921,"duration":0.3375000000000057},{"name":"A4","midi":69,"time":248.62499999999946,"velocity":0.7480314960629921,"duration":0.3375000000000057},{"name":"E4","midi":64,"time":248.99999999999946,"velocity":0.7480314960629921,"duration":0.3375000000000057},{"name":"G#4","midi":68,"time":248.99999999999946,"velocity":0.7480314960629921,"duration":0.3375000000000057},{"name":"G#4","midi":68,"time":249.37499999999946,"velocity":0.7480314960629921,"duration":0.3375000000000057},{"name":"E4","midi":64,"time":249.37499999999946,"velocity":0.7480314960629921,"duration":0.3375000000000057},{"name":"G#4","midi":68,"time":249.74999999999946,"velocity":0.7480314960629921,"duration":0.3375000000000057},{"name":"E4","midi":64,"time":249.74999999999946,"velocity":0.7480314960629921,"duration":0.3375000000000057},{"name":"E4","midi":64,"time":250.12499999999946,"velocity":0.7480314960629921,"duration":0.3375000000000057},{"name":"G#4","midi":68,"time":250.12499999999946,"velocity":0.7480314960629921,"duration":0.3375000000000057},{"name":"E4","midi":64,"time":250.49999999999946,"velocity":0.7480314960629921,"duration":0.3375000000000057},{"name":"G#4","midi":68,"time":250.49999999999946,"velocity":0.7480314960629921,"duration":0.3375000000000057},{"name":"G#4","midi":68,"time":250.87499999999946,"velocity":0.7480314960629921,"duration":0.3375000000000057},{"name":"E4","midi":64,"time":250.87499999999946,"velocity":0.7480314960629921,"duration":0.3375000000000057},{"name":"E4","midi":64,"time":251.24999999999946,"velocity":0.7480314960629921,"duration":0.3375000000000057},{"name":"G#4","midi":68,"time":251.24999999999946,"velocity":0.7480314960629921,"duration":0.3375000000000057},{"name":"E4","midi":64,"time":251.62499999999946,"velocity":0.7480314960629921,"duration":0.3375000000000057},{"name":"G#4","midi":68,"time":251.62499999999946,"velocity":0.7480314960629921,"duration":0.3375000000000057},{"name":"G#4","midi":68,"time":251.99999999999946,"velocity":0.7480314960629921,"duration":0.3375000000000057},{"name":"E4","midi":64,"time":251.99999999999946,"velocity":0.7480314960629921,"duration":0.3375000000000057},{"name":"E4","midi":64,"time":252.37499999999946,"velocity":0.7480314960629921,"duration":0.3375000000000057},{"name":"G#4","midi":68,"time":252.37499999999946,"velocity":0.7480314960629921,"duration":0.3375000000000057},{"name":"E4","midi":64,"time":252.74999999999946,"velocity":0.7480314960629921,"duration":0.3375000000000057},{"name":"G#4","midi":68,"time":252.74999999999946,"velocity":0.7480314960629921,"duration":0.3375000000000057},{"name":"G#4","midi":68,"time":253.12499999999946,"velocity":0.7480314960629921,"duration":0.3375000000000057},{"name":"E4","midi":64,"time":253.12499999999946,"velocity":0.7480314960629921,"duration":0.3375000000000057},{"name":"G#4","midi":68,"time":253.49999999999946,"velocity":0.7480314960629921,"duration":0.3375000000000057},{"name":"E4","midi":64,"time":253.49999999999946,"velocity":0.7480314960629921,"duration":0.3375000000000057},{"name":"E4","midi":64,"time":253.87499999999946,"velocity":0.7480314960629921,"duration":0.3375000000000057},{"name":"G#4","midi":68,"time":253.87499999999946,"velocity":0.7480314960629921,"duration":0.3375000000000057},{"name":"E4","midi":64,"time":254.24999999999946,"velocity":0.7480314960629921,"duration":0.3375000000000057},{"name":"G#4","midi":68,"time":254.24999999999946,"velocity":0.7480314960629921,"duration":0.3375000000000057},{"name":"E4","midi":64,"time":254.62499999999946,"velocity":0.7480314960629921,"duration":0.3375000000000057},{"name":"G#4","midi":68,"time":254.62499999999946,"velocity":0.7480314960629921,"duration":0.3375000000000057},{"name":"D4","midi":62,"time":254.99999999999946,"velocity":0.7480314960629921,"duration":0.3375000000000057},{"name":"F#4","midi":66,"time":254.99999999999946,"velocity":0.7480314960629921,"duration":0.3375000000000057},{"name":"D4","midi":62,"time":255.37499999999946,"velocity":0.7480314960629921,"duration":0.3375000000000057},{"name":"F#4","midi":66,"time":255.37499999999946,"velocity":0.7480314960629921,"duration":0.3375000000000057},{"name":"D4","midi":62,"time":255.74999999999946,"velocity":0.7480314960629921,"duration":0.3375000000000057},{"name":"F#4","midi":66,"time":255.74999999999946,"velocity":0.7480314960629921,"duration":0.3375000000000057},{"name":"F#4","midi":66,"time":256.1249999999995,"velocity":0.7480314960629921,"duration":0.33749999999997726},{"name":"D4","midi":62,"time":256.1249999999995,"velocity":0.7480314960629921,"duration":0.33749999999997726},{"name":"F#4","midi":66,"time":256.4999999999995,"velocity":0.7480314960629921,"duration":0.33749999999997726},{"name":"D4","midi":62,"time":256.4999999999995,"velocity":0.7480314960629921,"duration":0.33749999999997726},{"name":"D4","midi":62,"time":256.8749999999995,"velocity":0.7480314960629921,"duration":0.33749999999997726},{"name":"F#4","midi":66,"time":256.8749999999995,"velocity":0.7480314960629921,"duration":0.33749999999997726},{"name":"D4","midi":62,"time":257.2499999999995,"velocity":0.7480314960629921,"duration":0.33749999999997726},{"name":"F#4","midi":66,"time":257.2499999999995,"velocity":0.7480314960629921,"duration":0.33749999999997726},{"name":"D4","midi":62,"time":257.6249999999995,"velocity":0.7480314960629921,"duration":0.33749999999997726},{"name":"F#4","midi":66,"time":257.6249999999995,"velocity":0.7480314960629921,"duration":0.33749999999997726},{"name":"G#4","midi":68,"time":257.9999999999995,"velocity":0.7480314960629921,"duration":0.33749999999997726},{"name":"E4","midi":64,"time":257.9999999999995,"velocity":0.7480314960629921,"duration":0.33749999999997726},{"name":"G#4","midi":68,"time":258.3749999999995,"velocity":0.7480314960629921,"duration":0.33749999999997726},{"name":"E4","midi":64,"time":258.3749999999995,"velocity":0.7480314960629921,"duration":0.33749999999997726},{"name":"E4","midi":64,"time":258.7499999999995,"velocity":0.7480314960629921,"duration":0.33749999999997726},{"name":"G#4","midi":68,"time":258.7499999999995,"velocity":0.7480314960629921,"duration":0.33749999999997726},{"name":"E4","midi":64,"time":259.1249999999995,"velocity":0.7480314960629921,"duration":0.33749999999997726},{"name":"G#4","midi":68,"time":259.1249999999995,"velocity":0.7480314960629921,"duration":0.33749999999997726},{"name":"E4","midi":64,"time":259.4999999999995,"velocity":0.7480314960629921,"duration":0.33749999999997726},{"name":"G#4","midi":68,"time":259.4999999999995,"velocity":0.7480314960629921,"duration":0.33749999999997726},{"name":"E4","midi":64,"time":259.8749999999995,"velocity":0.7480314960629921,"duration":0.33749999999997726},{"name":"G#4","midi":68,"time":259.8749999999995,"velocity":0.7480314960629921,"duration":0.33749999999997726},{"name":"E4","midi":64,"time":260.2499999999995,"velocity":0.7480314960629921,"duration":0.33749999999997726},{"name":"G#4","midi":68,"time":260.2499999999995,"velocity":0.7480314960629921,"duration":0.33749999999997726},{"name":"G#4","midi":68,"time":260.6249999999995,"velocity":0.7480314960629921,"duration":0.33749999999997726},{"name":"E4","midi":64,"time":260.6249999999995,"velocity":0.7480314960629921,"duration":0.33749999999997726},{"name":"F#4","midi":66,"time":260.9999999999995,"velocity":0.7480314960629921,"duration":0.33749999999997726},{"name":"D4","midi":62,"time":260.9999999999995,"velocity":0.7480314960629921,"duration":0.33749999999997726},{"name":"D4","midi":62,"time":261.3749999999995,"velocity":0.7480314960629921,"duration":0.33749999999997726},{"name":"F#4","midi":66,"time":261.3749999999995,"velocity":0.7480314960629921,"duration":0.33749999999997726},{"name":"D4","midi":62,"time":261.7499999999995,"velocity":0.7480314960629921,"duration":0.33749999999997726},{"name":"F#4","midi":66,"time":261.7499999999995,"velocity":0.7480314960629921,"duration":0.33749999999997726},{"name":"F#4","midi":66,"time":262.1249999999995,"velocity":0.7480314960629921,"duration":0.33749999999997726},{"name":"D4","midi":62,"time":262.1249999999995,"velocity":0.7480314960629921,"duration":0.33749999999997726},{"name":"F#4","midi":66,"time":262.4999999999995,"velocity":0.7480314960629921,"duration":0.33749999999997726},{"name":"D4","midi":62,"time":262.4999999999995,"velocity":0.7480314960629921,"duration":0.33749999999997726},{"name":"F#4","midi":66,"time":262.8749999999995,"velocity":0.7480314960629921,"duration":0.33749999999997726},{"name":"D4","midi":62,"time":262.8749999999995,"velocity":0.7480314960629921,"duration":0.33749999999997726},{"name":"F#4","midi":66,"time":263.2499999999995,"velocity":0.7480314960629921,"duration":0.33749999999997726},{"name":"D4","midi":62,"time":263.2499999999995,"velocity":0.7480314960629921,"duration":0.33749999999997726},{"name":"F#4","midi":66,"time":263.6249999999995,"velocity":0.7480314960629921,"duration":0.33749999999997726},{"name":"D4","midi":62,"time":263.6249999999995,"velocity":0.7480314960629921,"duration":0.33749999999997726},{"name":"D4","midi":62,"time":263.9999999999995,"velocity":0.7480314960629921,"duration":0.33749999999997726},{"name":"F#4","midi":66,"time":263.9999999999995,"velocity":0.7480314960629921,"duration":0.33749999999997726},{"name":"F#4","midi":66,"time":264.3749999999995,"velocity":0.7480314960629921,"duration":0.33749999999997726},{"name":"D4","midi":62,"time":264.3749999999995,"velocity":0.7480314960629921,"duration":0.33749999999997726},{"name":"F#4","midi":66,"time":264.7499999999995,"velocity":0.7480314960629921,"duration":0.33749999999997726},{"name":"D4","midi":62,"time":264.7499999999995,"velocity":0.7480314960629921,"duration":0.33749999999997726},{"name":"D4","midi":62,"time":265.1249999999995,"velocity":0.7480314960629921,"duration":0.33749999999997726},{"name":"F#4","midi":66,"time":265.1249999999995,"velocity":0.7480314960629921,"duration":0.33749999999997726},{"name":"D4","midi":62,"time":265.4999999999995,"velocity":0.7480314960629921,"duration":0.33749999999997726},{"name":"F#4","midi":66,"time":265.4999999999995,"velocity":0.7480314960629921,"duration":0.33749999999997726},{"name":"D4","midi":62,"time":265.8749999999995,"velocity":0.7480314960629921,"duration":0.33749999999997726},{"name":"F#4","midi":66,"time":265.8749999999995,"velocity":0.7480314960629921,"duration":0.33749999999997726},{"name":"F#4","midi":66,"time":266.2499999999995,"velocity":0.7480314960629921,"duration":0.33749999999997726},{"name":"D4","midi":62,"time":266.2499999999995,"velocity":0.7480314960629921,"duration":0.33749999999997726},{"name":"F#4","midi":66,"time":266.6249999999995,"velocity":0.7480314960629921,"duration":0.33749999999997726},{"name":"D4","midi":62,"time":266.6249999999995,"velocity":0.7480314960629921,"duration":0.33749999999997726},{"name":"C#5","midi":73,"time":266.9999999999995,"velocity":0.7480314960629921,"duration":0.33749999999997726},{"name":"A4","midi":69,"time":266.9999999999995,"velocity":0.7480314960629921,"duration":0.33749999999997726},{"name":"C#5","midi":73,"time":267.3749999999995,"velocity":0.7480314960629921,"duration":0.33749999999997726},{"name":"A4","midi":69,"time":267.3749999999995,"velocity":0.7480314960629921,"duration":0.33749999999997726},{"name":"A4","midi":69,"time":267.7499999999995,"velocity":0.7480314960629921,"duration":0.33749999999997726},{"name":"C#5","midi":73,"time":267.7499999999995,"velocity":0.7480314960629921,"duration":0.33749999999997726},{"name":"C#5","midi":73,"time":268.1249999999995,"velocity":0.7480314960629921,"duration":0.33749999999997726},{"name":"A4","midi":69,"time":268.1249999999995,"velocity":0.7480314960629921,"duration":0.33749999999997726},{"name":"C#5","midi":73,"time":268.4999999999995,"velocity":0.7480314960629921,"duration":0.33749999999997726},{"name":"A4","midi":69,"time":268.4999999999995,"velocity":0.7480314960629921,"duration":0.33749999999997726},{"name":"C#5","midi":73,"time":268.8749999999995,"velocity":0.7480314960629921,"duration":0.33749999999997726},{"name":"A4","midi":69,"time":268.8749999999995,"velocity":0.7480314960629921,"duration":0.33749999999997726},{"name":"C#5","midi":73,"time":269.2499999999995,"velocity":0.7480314960629921,"duration":0.33749999999997726},{"name":"A4","midi":69,"time":269.2499999999995,"velocity":0.7480314960629921,"duration":0.33749999999997726},{"name":"A4","midi":69,"time":269.6249999999995,"velocity":0.7480314960629921,"duration":0.33749999999997726},{"name":"C#5","midi":73,"time":269.6249999999995,"velocity":0.7480314960629921,"duration":0.33749999999997726},{"name":"A4","midi":69,"time":269.9999999999995,"velocity":0.7480314960629921,"duration":0.33749999999997726},{"name":"C#5","midi":73,"time":269.9999999999995,"velocity":0.7480314960629921,"duration":0.33749999999997726},{"name":"A4","midi":69,"time":270.3749999999995,"velocity":0.7480314960629921,"duration":0.33749999999997726},{"name":"C#5","midi":73,"time":270.3749999999995,"velocity":0.7480314960629921,"duration":0.33749999999997726},{"name":"A4","midi":69,"time":270.7499999999995,"velocity":0.7480314960629921,"duration":0.33749999999997726},{"name":"C#5","midi":73,"time":270.7499999999995,"velocity":0.7480314960629921,"duration":0.33749999999997726},{"name":"A4","midi":69,"time":271.1249999999995,"velocity":0.7480314960629921,"duration":0.33749999999997726},{"name":"C#5","midi":73,"time":271.1249999999995,"velocity":0.7480314960629921,"duration":0.33749999999997726},{"name":"A4","midi":69,"time":271.4999999999995,"velocity":0.7480314960629921,"duration":0.33749999999997726},{"name":"C#5","midi":73,"time":271.4999999999995,"velocity":0.7480314960629921,"duration":0.33749999999997726},{"name":"C#5","midi":73,"time":271.8749999999995,"velocity":0.7480314960629921,"duration":0.33749999999997726},{"name":"A4","midi":69,"time":271.8749999999995,"velocity":0.7480314960629921,"duration":0.33749999999997726},{"name":"A4","midi":69,"time":272.2499999999995,"velocity":0.7480314960629921,"duration":0.33749999999997726},{"name":"C#5","midi":73,"time":272.2499999999995,"velocity":0.7480314960629921,"duration":0.33749999999997726},{"name":"C#5","midi":73,"time":272.6249999999995,"velocity":0.7480314960629921,"duration":0.33749999999997726},{"name":"A4","midi":69,"time":272.6249999999995,"velocity":0.7480314960629921,"duration":0.33749999999997726},{"name":"E4","midi":64,"time":272.9999999999995,"velocity":0.7480314960629921,"duration":0.33749999999997726},{"name":"G#4","midi":68,"time":272.9999999999995,"velocity":0.7480314960629921,"duration":0.33749999999997726},{"name":"E4","midi":64,"time":273.3749999999995,"velocity":0.7480314960629921,"duration":0.33749999999997726},{"name":"G#4","midi":68,"time":273.3749999999995,"velocity":0.7480314960629921,"duration":0.33749999999997726},{"name":"E4","midi":64,"time":273.7499999999995,"velocity":0.7480314960629921,"duration":0.33749999999997726},{"name":"G#4","midi":68,"time":273.7499999999995,"velocity":0.7480314960629921,"duration":0.33749999999997726},{"name":"G#4","midi":68,"time":274.1249999999995,"velocity":0.7480314960629921,"duration":0.33749999999997726},{"name":"E4","midi":64,"time":274.1249999999995,"velocity":0.7480314960629921,"duration":0.33749999999997726},{"name":"G#4","midi":68,"time":274.4999999999995,"velocity":0.7480314960629921,"duration":0.33749999999997726},{"name":"E4","midi":64,"time":274.4999999999995,"velocity":0.7480314960629921,"duration":0.33749999999997726},{"name":"E4","midi":64,"time":274.8749999999995,"velocity":0.7480314960629921,"duration":0.33749999999997726},{"name":"G#4","midi":68,"time":274.8749999999995,"velocity":0.7480314960629921,"duration":0.33749999999997726},{"name":"E4","midi":64,"time":275.2499999999995,"velocity":0.7480314960629921,"duration":0.33749999999997726},{"name":"G#4","midi":68,"time":275.2499999999995,"velocity":0.7480314960629921,"duration":0.33749999999997726},{"name":"E4","midi":64,"time":275.6249999999995,"velocity":0.7480314960629921,"duration":0.33749999999997726},{"name":"G#4","midi":68,"time":275.6249999999995,"velocity":0.7480314960629921,"duration":0.33749999999997726},{"name":"E4","midi":64,"time":275.9999999999995,"velocity":0.7480314960629921,"duration":0.33749999999997726},{"name":"G#4","midi":68,"time":275.9999999999995,"velocity":0.7480314960629921,"duration":0.33749999999997726},{"name":"G#4","midi":68,"time":276.3749999999995,"velocity":0.7480314960629921,"duration":0.33749999999997726},{"name":"E4","midi":64,"time":276.3749999999995,"velocity":0.7480314960629921,"duration":0.33749999999997726},{"name":"G#4","midi":68,"time":276.7499999999995,"velocity":0.7480314960629921,"duration":0.33749999999997726},{"name":"E4","midi":64,"time":276.7499999999995,"velocity":0.7480314960629921,"duration":0.33749999999997726},{"name":"E4","midi":64,"time":277.1249999999995,"velocity":0.7480314960629921,"duration":0.33749999999997726},{"name":"G#4","midi":68,"time":277.1249999999995,"velocity":0.7480314960629921,"duration":0.33749999999997726},{"name":"E4","midi":64,"time":277.4999999999995,"velocity":0.7480314960629921,"duration":0.33749999999997726},{"name":"G#4","midi":68,"time":277.4999999999995,"velocity":0.7480314960629921,"duration":0.33749999999997726},{"name":"E4","midi":64,"time":277.8749999999995,"velocity":0.7480314960629921,"duration":0.33749999999997726},{"name":"G#4","midi":68,"time":277.8749999999995,"velocity":0.7480314960629921,"duration":0.33749999999997726},{"name":"E4","midi":64,"time":278.2499999999995,"velocity":0.7480314960629921,"duration":0.33749999999997726},{"name":"G#4","midi":68,"time":278.2499999999995,"velocity":0.7480314960629921,"duration":0.33749999999997726},{"name":"G#4","midi":68,"time":278.6249999999995,"velocity":0.7480314960629921,"duration":0.33749999999997726},{"name":"E4","midi":64,"time":278.6249999999995,"velocity":0.7480314960629921,"duration":0.33749999999997726},{"name":"D4","midi":62,"time":278.9999999999995,"velocity":0.7480314960629921,"duration":0.33749999999997726},{"name":"F#4","midi":66,"time":278.9999999999995,"velocity":0.7480314960629921,"duration":0.33749999999997726},{"name":"F#4","midi":66,"time":279.3749999999995,"velocity":0.7480314960629921,"duration":0.33749999999997726},{"name":"D4","midi":62,"time":279.3749999999995,"velocity":0.7480314960629921,"duration":0.33749999999997726},{"name":"F#4","midi":66,"time":279.7499999999995,"velocity":0.7480314960629921,"duration":0.33749999999997726},{"name":"D4","midi":62,"time":279.7499999999995,"velocity":0.7480314960629921,"duration":0.33749999999997726},{"name":"D4","midi":62,"time":280.1249999999995,"velocity":0.7480314960629921,"duration":0.33749999999997726},{"name":"F#4","midi":66,"time":280.1249999999995,"velocity":0.7480314960629921,"duration":0.33749999999997726},{"name":"F#4","midi":66,"time":280.4999999999995,"velocity":0.7480314960629921,"duration":0.33749999999997726},{"name":"D4","midi":62,"time":280.4999999999995,"velocity":0.7480314960629921,"duration":0.33749999999997726},{"name":"D4","midi":62,"time":280.8749999999995,"velocity":0.7480314960629921,"duration":0.33749999999997726},{"name":"F#4","midi":66,"time":280.8749999999995,"velocity":0.7480314960629921,"duration":0.33749999999997726},{"name":"F#4","midi":66,"time":281.2499999999995,"velocity":0.7480314960629921,"duration":0.33749999999997726},{"name":"D4","midi":62,"time":281.2499999999995,"velocity":0.7480314960629921,"duration":0.33749999999997726},{"name":"D4","midi":62,"time":281.6249999999995,"velocity":0.7480314960629921,"duration":0.33749999999997726},{"name":"F#4","midi":66,"time":281.6249999999995,"velocity":0.7480314960629921,"duration":0.33749999999997726},{"name":"E4","midi":64,"time":281.9999999999995,"velocity":0.7480314960629921,"duration":0.33749999999997726},{"name":"G#4","midi":68,"time":281.9999999999995,"velocity":0.7480314960629921,"duration":0.33749999999997726},{"name":"G#4","midi":68,"time":282.3749999999995,"velocity":0.7480314960629921,"duration":0.33749999999997726},{"name":"E4","midi":64,"time":282.3749999999995,"velocity":0.7480314960629921,"duration":0.33749999999997726},{"name":"G#4","midi":68,"time":282.7499999999995,"velocity":0.7480314960629921,"duration":0.33749999999997726},{"name":"E4","midi":64,"time":282.7499999999995,"velocity":0.7480314960629921,"duration":0.33749999999997726},{"name":"E4","midi":64,"time":283.1249999999995,"velocity":0.7480314960629921,"duration":0.33749999999997726},{"name":"G#4","midi":68,"time":283.1249999999995,"velocity":0.7480314960629921,"duration":0.33749999999997726},{"name":"G#4","midi":68,"time":283.4999999999995,"velocity":0.7480314960629921,"duration":0.33749999999997726},{"name":"E4","midi":64,"time":283.4999999999995,"velocity":0.7480314960629921,"duration":0.33749999999997726},{"name":"E4","midi":64,"time":283.8749999999995,"velocity":0.7480314960629921,"duration":0.33749999999997726},{"name":"G#4","midi":68,"time":283.8749999999995,"velocity":0.7480314960629921,"duration":0.33749999999997726},{"name":"G#4","midi":68,"time":284.2499999999995,"velocity":0.7480314960629921,"duration":0.33749999999997726},{"name":"E4","midi":64,"time":284.2499999999995,"velocity":0.7480314960629921,"duration":0.33749999999997726},{"name":"G#4","midi":68,"time":284.6249999999995,"velocity":0.7480314960629921,"duration":0.33749999999997726},{"name":"E4","midi":64,"time":284.6249999999995,"velocity":0.7480314960629921,"duration":0.33749999999997726},{"name":"D4","midi":62,"time":284.9999999999995,"velocity":0.7480314960629921,"duration":0.33749999999997726},{"name":"F#4","midi":66,"time":284.9999999999995,"velocity":0.7480314960629921,"duration":0.33749999999997726},{"name":"D4","midi":62,"time":285.3749999999995,"velocity":0.7480314960629921,"duration":0.33749999999997726},{"name":"F#4","midi":66,"time":285.3749999999995,"velocity":0.7480314960629921,"duration":0.33749999999997726},{"name":"D4","midi":62,"time":285.7499999999995,"velocity":0.7480314960629921,"duration":0.33749999999997726},{"name":"F#4","midi":66,"time":285.7499999999995,"velocity":0.7480314960629921,"duration":0.33749999999997726},{"name":"F#4","midi":66,"time":286.1249999999995,"velocity":0.7480314960629921,"duration":0.33749999999997726},{"name":"D4","midi":62,"time":286.1249999999995,"velocity":0.7480314960629921,"duration":0.33749999999997726},{"name":"F#4","midi":66,"time":286.4999999999995,"velocity":0.7480314960629921,"duration":0.33749999999997726},{"name":"D4","midi":62,"time":286.4999999999995,"velocity":0.7480314960629921,"duration":0.33749999999997726},{"name":"F#4","midi":66,"time":286.8749999999995,"velocity":0.7480314960629921,"duration":0.33749999999997726},{"name":"D4","midi":62,"time":286.8749999999995,"velocity":0.7480314960629921,"duration":0.33749999999997726},{"name":"F#4","midi":66,"time":287.2499999999995,"velocity":0.7480314960629921,"duration":0.33749999999997726},{"name":"D4","midi":62,"time":287.2499999999995,"velocity":0.7480314960629921,"duration":0.33749999999997726},{"name":"D4","midi":62,"time":287.6249999999995,"velocity":0.7480314960629921,"duration":0.33749999999997726},{"name":"F#4","midi":66,"time":287.6249999999995,"velocity":0.7480314960629921,"duration":0.33749999999997726},{"name":"D4","midi":62,"time":287.9999999999995,"velocity":0.7480314960629921,"duration":0.33749999999997726},{"name":"F#4","midi":66,"time":287.9999999999995,"velocity":0.7480314960629921,"duration":0.33749999999997726},{"name":"F#4","midi":66,"time":288.3749999999995,"velocity":0.7480314960629921,"duration":0.33749999999997726},{"name":"D4","midi":62,"time":288.3749999999995,"velocity":0.7480314960629921,"duration":0.33749999999997726},{"name":"F#4","midi":66,"time":288.7499999999995,"velocity":0.7480314960629921,"duration":0.33749999999997726},{"name":"D4","midi":62,"time":288.7499999999995,"velocity":0.7480314960629921,"duration":0.33749999999997726},{"name":"F#4","midi":66,"time":289.1249999999995,"velocity":0.7480314960629921,"duration":0.33749999999997726},{"name":"D4","midi":62,"time":289.1249999999995,"velocity":0.7480314960629921,"duration":0.33749999999997726},{"name":"F#4","midi":66,"time":289.4999999999995,"velocity":0.7480314960629921,"duration":0.33749999999997726},{"name":"D4","midi":62,"time":289.4999999999995,"velocity":0.7480314960629921,"duration":0.33749999999997726},{"name":"D4","midi":62,"time":289.8749999999995,"velocity":0.7480314960629921,"duration":0.33749999999997726},{"name":"F#4","midi":66,"time":289.8749999999995,"velocity":0.7480314960629921,"duration":0.33749999999997726},{"name":"F#4","midi":66,"time":290.2499999999995,"velocity":0.7480314960629921,"duration":0.33749999999997726},{"name":"D4","midi":62,"time":290.2499999999995,"velocity":0.7480314960629921,"duration":0.33749999999997726},{"name":"F#4","midi":66,"time":290.6249999999995,"velocity":0.7480314960629921,"duration":0.33749999999997726},{"name":"D4","midi":62,"time":290.6249999999995,"velocity":0.7480314960629921,"duration":0.33749999999997726},{"name":"C#5","midi":73,"time":290.9999999999995,"velocity":0.7480314960629921,"duration":0.33749999999997726},{"name":"A4","midi":69,"time":290.9999999999995,"velocity":0.7480314960629921,"duration":0.33749999999997726},{"name":"E4","midi":64,"time":290.9999999999995,"velocity":0.7480314960629921,"duration":0.33749999999997726},{"name":"A3","midi":57,"time":290.9999999999995,"velocity":0.7480314960629921,"duration":0.33749999999997726},{"name":"C#5","midi":73,"time":291.3749999999995,"velocity":0.7480314960629921,"duration":0.33749999999997726},{"name":"A3","midi":57,"time":291.3749999999995,"velocity":0.7480314960629921,"duration":0.33749999999997726},{"name":"E4","midi":64,"time":291.3749999999995,"velocity":0.7480314960629921,"duration":0.33749999999997726},{"name":"A4","midi":69,"time":291.3749999999995,"velocity":0.7480314960629921,"duration":0.33749999999997726},{"name":"E4","midi":64,"time":291.7499999999995,"velocity":0.7480314960629921,"duration":0.33749999999997726},{"name":"A3","midi":57,"time":291.7499999999995,"velocity":0.7480314960629921,"duration":0.33749999999997726},{"name":"A4","midi":69,"time":291.7499999999995,"velocity":0.7480314960629921,"duration":0.33749999999997726},{"name":"C#5","midi":73,"time":291.7499999999995,"velocity":0.7480314960629921,"duration":0.33749999999997726},{"name":"E5","midi":76,"time":291.7499999999995,"velocity":0.7480314960629921,"duration":0.33749999999997726},{"name":"A5","midi":81,"time":291.7499999999995,"velocity":0.7480314960629921,"duration":0.33749999999997726},{"name":"C#5","midi":73,"time":292.1249999999995,"velocity":0.7480314960629921,"duration":0.33749999999997726},{"name":"A3","midi":57,"time":292.1249999999995,"velocity":0.7480314960629921,"duration":0.33749999999997726},{"name":"E4","midi":64,"time":292.1249999999995,"velocity":0.7480314960629921,"duration":0.33749999999997726},{"name":"A4","midi":69,"time":292.1249999999995,"velocity":0.7480314960629921,"duration":0.33749999999997726},{"name":"C#5","midi":73,"time":292.4999999999995,"velocity":0.7480314960629921,"duration":0.33749999999997726},{"name":"A3","midi":57,"time":292.4999999999995,"velocity":0.7480314960629921,"duration":0.33749999999997726},{"name":"E4","midi":64,"time":292.4999999999995,"velocity":0.7480314960629921,"duration":0.33749999999997726},{"name":"A4","midi":69,"time":292.4999999999995,"velocity":0.7480314960629921,"duration":0.33749999999997726},{"name":"C#5","midi":73,"time":292.8749999999995,"velocity":0.7480314960629921,"duration":0.33749999999997726},{"name":"A4","midi":69,"time":292.8749999999995,"velocity":0.7480314960629921,"duration":0.33749999999997726},{"name":"E4","midi":64,"time":292.8749999999995,"velocity":0.7480314960629921,"duration":0.33749999999997726},{"name":"A3","midi":57,"time":292.8749999999995,"velocity":0.7480314960629921,"duration":0.33749999999997726},{"name":"E5","midi":76,"time":292.8749999999995,"velocity":0.7480314960629921,"duration":0.33749999999997726},{"name":"A5","midi":81,"time":292.8749999999995,"velocity":0.7480314960629921,"duration":0.33749999999997726},{"name":"E4","midi":64,"time":293.2499999999995,"velocity":0.7480314960629921,"duration":0.33749999999997726},{"name":"A4","midi":69,"time":293.2499999999995,"velocity":0.7480314960629921,"duration":0.33749999999997726},{"name":"C#5","midi":73,"time":293.2499999999995,"velocity":0.7480314960629921,"duration":0.33749999999997726},{"name":"E5","midi":76,"time":293.2499999999995,"velocity":0.7480314960629921,"duration":0.33749999999997726},{"name":"A5","midi":81,"time":293.2499999999995,"velocity":0.7480314960629921,"duration":0.33749999999997726},{"name":"A3","midi":57,"time":293.2499999999995,"velocity":0.7480314960629921,"duration":0.33749999999997726},{"name":"A4","midi":69,"time":293.6249999999995,"velocity":0.7480314960629921,"duration":0.33749999999997726},{"name":"C#5","midi":73,"time":293.6249999999995,"velocity":0.7480314960629921,"duration":0.33749999999997726},{"name":"E4","midi":64,"time":293.6249999999995,"velocity":0.7480314960629921,"duration":0.33749999999997726},{"name":"A3","midi":57,"time":293.6249999999995,"velocity":0.7480314960629921,"duration":0.33749999999997726},{"name":"C#5","midi":73,"time":293.9999999999995,"velocity":0.7480314960629921,"duration":0.33749999999997726},{"name":"A4","midi":69,"time":293.9999999999995,"velocity":0.7480314960629921,"duration":0.33749999999997726},{"name":"E4","midi":64,"time":293.9999999999995,"velocity":0.7480314960629921,"duration":0.33749999999997726},{"name":"A3","midi":57,"time":293.9999999999995,"velocity":0.7480314960629921,"duration":0.33749999999997726},{"name":"A4","midi":69,"time":294.3749999999995,"velocity":0.7480314960629921,"duration":0.33749999999997726},{"name":"E4","midi":64,"time":294.3749999999995,"velocity":0.7480314960629921,"duration":0.33749999999997726},{"name":"A3","midi":57,"time":294.3749999999995,"velocity":0.7480314960629921,"duration":0.33749999999997726},{"name":"A5","midi":81,"time":294.3749999999995,"velocity":0.7480314960629921,"duration":0.33749999999997726},{"name":"E5","midi":76,"time":294.3749999999995,"velocity":0.7480314960629921,"duration":0.33749999999997726},{"name":"C#5","midi":73,"time":294.3749999999995,"velocity":0.7480314960629921,"duration":0.33749999999997726},{"name":"A4","midi":69,"time":294.7499999999995,"velocity":0.7480314960629921,"duration":0.33749999999997726},{"name":"C#5","midi":73,"time":294.7499999999995,"velocity":0.7480314960629921,"duration":0.33749999999997726},{"name":"E4","midi":64,"time":294.7499999999995,"velocity":0.7480314960629921,"duration":0.33749999999997726},{"name":"A3","midi":57,"time":294.7499999999995,"velocity":0.7480314960629921,"duration":0.33749999999997726},{"name":"E5","midi":76,"time":294.7499999999995,"velocity":0.7480314960629921,"duration":0.33749999999997726},{"name":"A5","midi":81,"time":294.7499999999995,"velocity":0.7480314960629921,"duration":0.33749999999997726},{"name":"C#5","midi":73,"time":295.1249999999995,"velocity":0.7480314960629921,"duration":0.33749999999997726},{"name":"A4","midi":69,"time":295.1249999999995,"velocity":0.7480314960629921,"duration":0.33749999999997726},{"name":"E4","midi":64,"time":295.1249999999995,"velocity":0.7480314960629921,"duration":0.33749999999997726},{"name":"A3","midi":57,"time":295.1249999999995,"velocity":0.7480314960629921,"duration":0.33749999999997726},{"name":"E4","midi":64,"time":295.4999999999995,"velocity":0.7480314960629921,"duration":0.33749999999997726},{"name":"A4","midi":69,"time":295.4999999999995,"velocity":0.7480314960629921,"duration":0.33749999999997726},{"name":"C#5","midi":73,"time":295.4999999999995,"velocity":0.7480314960629921,"duration":0.33749999999997726},{"name":"A3","midi":57,"time":295.4999999999995,"velocity":0.7480314960629921,"duration":0.33749999999997726},{"name":"A3","midi":57,"time":295.8749999999995,"velocity":0.7480314960629921,"duration":0.33749999999997726},{"name":"E4","midi":64,"time":295.8749999999995,"velocity":0.7480314960629921,"duration":0.33749999999997726},{"name":"A4","midi":69,"time":295.8749999999995,"velocity":0.7480314960629921,"duration":0.33749999999997726},{"name":"C#5","midi":73,"time":295.8749999999995,"velocity":0.7480314960629921,"duration":0.33749999999997726},{"name":"E5","midi":76,"time":295.8749999999995,"velocity":0.7480314960629921,"duration":0.33749999999997726},{"name":"A5","midi":81,"time":295.8749999999995,"velocity":0.7480314960629921,"duration":0.33749999999997726},{"name":"A4","midi":69,"time":296.2499999999995,"velocity":0.7480314960629921,"duration":0.33749999999997726},{"name":"A5","midi":81,"time":296.2499999999995,"velocity":0.7480314960629921,"duration":0.33749999999997726},{"name":"E5","midi":76,"time":296.2499999999995,"velocity":0.7480314960629921,"duration":0.33749999999997726},{"name":"C#5","midi":73,"time":296.2499999999995,"velocity":0.7480314960629921,"duration":0.33749999999997726},{"name":"E4","midi":64,"time":296.2499999999995,"velocity":0.7480314960629921,"duration":0.33749999999997726},{"name":"A3","midi":57,"time":296.2499999999995,"velocity":0.7480314960629921,"duration":0.33749999999997726},{"name":"A3","midi":57,"time":296.6249999999995,"velocity":0.7480314960629921,"duration":0.33749999999997726},{"name":"C#5","midi":73,"time":296.6249999999995,"velocity":0.7480314960629921,"duration":0.33749999999997726},{"name":"A4","midi":69,"time":296.6249999999995,"velocity":0.7480314960629921,"duration":0.33749999999997726},{"name":"E4","midi":64,"time":296.6249999999995,"velocity":0.7480314960629921,"duration":0.33749999999997726},{"name":"B4","midi":71,"time":296.9999999999995,"velocity":0.7480314960629921,"duration":0.33749999999997726},{"name":"E5","midi":76,"time":296.9999999999995,"velocity":0.7480314960629921,"duration":0.33749999999997726},{"name":"E4","midi":64,"time":296.9999999999995,"velocity":0.7480314960629921,"duration":0.33749999999997726},{"name":"E4","midi":64,"time":297.3749999999995,"velocity":0.7480314960629921,"duration":0.33749999999997726},{"name":"A5","midi":81,"time":297.3749999999995,"velocity":0.7480314960629921,"duration":0.33749999999997726},{"name":"E5","midi":76,"time":297.3749999999995,"velocity":0.7480314960629921,"duration":0.33749999999997726},{"name":"E5","midi":76,"time":297.3749999999995,"velocity":0.7480314960629921,"duration":0.33749999999997726},{"name":"B4","midi":71,"time":297.3749999999995,"velocity":0.7480314960629921,"duration":0.33749999999997726},{"name":"B4","midi":71,"time":297.7499999999995,"velocity":0.7480314960629921,"duration":0.33749999999997726},{"name":"E5","midi":76,"time":297.7499999999995,"velocity":0.7480314960629921,"duration":0.33749999999997726},{"name":"G#5","midi":80,"time":297.7499999999995,"velocity":0.7480314960629921,"duration":0.33749999999997726},{"name":"E4","midi":64,"time":297.7499999999995,"velocity":0.7480314960629921,"duration":0.33749999999997726},{"name":"E5","midi":76,"time":298.1249999999995,"velocity":0.7480314960629921,"duration":0.33749999999997726},{"name":"B4","midi":71,"time":298.1249999999995,"velocity":0.7480314960629921,"duration":0.33749999999997726},{"name":"E4","midi":64,"time":298.1249999999995,"velocity":0.7480314960629921,"duration":0.33749999999997726},{"name":"E5","midi":76,"time":298.4999999999995,"velocity":0.7480314960629921,"duration":0.33749999999997726},{"name":"E4","midi":64,"time":298.4999999999995,"velocity":0.7480314960629921,"duration":0.33749999999997726},{"name":"B4","midi":71,"time":298.4999999999995,"velocity":0.7480314960629921,"duration":0.33749999999997726},{"name":"E5","midi":76,"time":298.8749999999995,"velocity":0.7480314960629921,"duration":0.33749999999997726},{"name":"B4","midi":71,"time":298.8749999999995,"velocity":0.7480314960629921,"duration":0.33749999999997726},{"name":"E4","midi":64,"time":298.8749999999995,"velocity":0.7480314960629921,"duration":0.33749999999997726},{"name":"G#5","midi":80,"time":298.8749999999995,"velocity":0.7480314960629921,"duration":0.33749999999997726},{"name":"E4","midi":64,"time":299.2499999999995,"velocity":0.7480314960629921,"duration":0.33749999999997726},{"name":"B4","midi":71,"time":299.2499999999995,"velocity":0.7480314960629921,"duration":0.33749999999997726},{"name":"E5","midi":76,"time":299.2499999999995,"velocity":0.7480314960629921,"duration":0.33749999999997726},{"name":"G#5","midi":80,"time":299.2499999999995,"velocity":0.7480314960629921,"duration":0.33749999999997726},{"name":"E4","midi":64,"time":299.6249999999995,"velocity":0.7480314960629921,"duration":0.33749999999997726},{"name":"B4","midi":71,"time":299.6249999999995,"velocity":0.7480314960629921,"duration":0.33749999999997726},{"name":"E5","midi":76,"time":299.6249999999995,"velocity":0.7480314960629921,"duration":0.33749999999997726},{"name":"E5","midi":76,"time":299.9999999999995,"velocity":0.7480314960629921,"duration":0.33749999999997726},{"name":"B4","midi":71,"time":299.9999999999995,"velocity":0.7480314960629921,"duration":0.33749999999997726},{"name":"E4","midi":64,"time":299.9999999999995,"velocity":0.7480314960629921,"duration":0.33749999999997726},{"name":"E4","midi":64,"time":300.3749999999995,"velocity":0.7480314960629921,"duration":0.33749999999997726},{"name":"B4","midi":71,"time":300.3749999999995,"velocity":0.7480314960629921,"duration":0.33749999999997726},{"name":"E5","midi":76,"time":300.3749999999995,"velocity":0.7480314960629921,"duration":0.33749999999997726},{"name":"G#5","midi":80,"time":300.3749999999995,"velocity":0.7480314960629921,"duration":0.33749999999997726},{"name":"G#5","midi":80,"time":300.7499999999995,"velocity":0.7480314960629921,"duration":0.33749999999997726},{"name":"E5","midi":76,"time":300.7499999999995,"velocity":0.7480314960629921,"duration":0.33749999999997726},{"name":"B4","midi":71,"time":300.7499999999995,"velocity":0.7480314960629921,"duration":0.33749999999997726},{"name":"E4","midi":64,"time":300.7499999999995,"velocity":0.7480314960629921,"duration":0.33749999999997726},{"name":"E5","midi":76,"time":301.1249999999995,"velocity":0.7480314960629921,"duration":0.33749999999997726},{"name":"E4","midi":64,"time":301.1249999999995,"velocity":0.7480314960629921,"duration":0.33749999999997726},{"name":"B4","midi":71,"time":301.1249999999995,"velocity":0.7480314960629921,"duration":0.33749999999997726},{"name":"E5","midi":76,"time":301.4999999999995,"velocity":0.7480314960629921,"duration":0.33749999999997726},{"name":"E4","midi":64,"time":301.4999999999995,"velocity":0.7480314960629921,"duration":0.33749999999997726},{"name":"B4","midi":71,"time":301.4999999999995,"velocity":0.7480314960629921,"duration":0.33749999999997726},{"name":"E4","midi":64,"time":301.8749999999995,"velocity":0.7480314960629921,"duration":0.33749999999997726},{"name":"G#5","midi":80,"time":301.8749999999995,"velocity":0.7480314960629921,"duration":0.33749999999997726},{"name":"E5","midi":76,"time":301.8749999999995,"velocity":0.7480314960629921,"duration":0.33749999999997726},{"name":"B4","midi":71,"time":301.8749999999995,"velocity":0.7480314960629921,"duration":0.33749999999997726},{"name":"G#5","midi":80,"time":302.2499999999995,"velocity":0.7480314960629921,"duration":0.33749999999997726},{"name":"E5","midi":76,"time":302.2499999999995,"velocity":0.7480314960629921,"duration":0.33749999999997726},{"name":"B4","midi":71,"time":302.2499999999995,"velocity":0.7480314960629921,"duration":0.33749999999997726},{"name":"E4","midi":64,"time":302.2499999999995,"velocity":0.7480314960629921,"duration":0.33749999999997726},{"name":"E5","midi":76,"time":302.6249999999995,"velocity":0.7480314960629921,"duration":0.33749999999997726},{"name":"B4","midi":71,"time":302.6249999999995,"velocity":0.7480314960629921,"duration":0.33749999999997726},{"name":"E4","midi":64,"time":302.6249999999995,"velocity":0.7480314960629921,"duration":0.33749999999997726},{"name":"B3","midi":59,"time":302.9999999999995,"velocity":0.7480314960629921,"duration":0.33749999999997726},{"name":"A4","midi":69,"time":302.9999999999995,"velocity":0.7480314960629921,"duration":0.33749999999997726},{"name":"F#4","midi":66,"time":302.9999999999995,"velocity":0.7480314960629921,"duration":0.33749999999997726},{"name":"D5","midi":74,"time":302.9999999999995,"velocity":0.7480314960629921,"duration":0.33749999999997726},{"name":"A4","midi":69,"time":303.3749999999995,"velocity":0.7480314960629921,"duration":0.33749999999997726},{"name":"D5","midi":74,"time":303.3749999999995,"velocity":0.7480314960629921,"duration":0.33749999999997726},{"name":"F#4","midi":66,"time":303.3749999999995,"velocity":0.7480314960629921,"duration":0.33749999999997726},{"name":"B3","midi":59,"time":303.3749999999995,"velocity":0.7480314960629921,"duration":0.33749999999997726},{"name":"B3","midi":59,"time":303.7499999999995,"velocity":0.7480314960629921,"duration":0.33749999999997726},{"name":"F#5","midi":78,"time":303.7499999999995,"velocity":0.7480314960629921,"duration":0.33749999999997726},{"name":"D5","midi":74,"time":303.7499999999995,"velocity":0.7480314960629921,"duration":0.33749999999997726},{"name":"A4","midi":69,"time":303.7499999999995,"velocity":0.7480314960629921,"duration":0.33749999999997726},{"name":"F#4","midi":66,"time":303.7499999999995,"velocity":0.7480314960629921,"duration":0.33749999999997726},{"name":"D5","midi":74,"time":304.1249999999995,"velocity":0.7480314960629921,"duration":0.33749999999997726},{"name":"A4","midi":69,"time":304.1249999999995,"velocity":0.7480314960629921,"duration":0.33749999999997726},{"name":"F#4","midi":66,"time":304.1249999999995,"velocity":0.7480314960629921,"duration":0.33749999999997726},{"name":"B3","midi":59,"time":304.1249999999995,"velocity":0.7480314960629921,"duration":0.33749999999997726},{"name":"B3","midi":59,"time":304.4999999999995,"velocity":0.7480314960629921,"duration":0.33749999999997726},{"name":"F#4","midi":66,"time":304.4999999999995,"velocity":0.7480314960629921,"duration":0.33749999999997726},{"name":"A4","midi":69,"time":304.4999999999995,"velocity":0.7480314960629921,"duration":0.33749999999997726},{"name":"D5","midi":74,"time":304.4999999999995,"velocity":0.7480314960629921,"duration":0.33749999999997726},{"name":"F#4","midi":66,"time":304.8749999999995,"velocity":0.7480314960629921,"duration":0.33749999999997726},{"name":"A4","midi":69,"time":304.8749999999995,"velocity":0.7480314960629921,"duration":0.33749999999997726},{"name":"D5","midi":74,"time":304.8749999999995,"velocity":0.7480314960629921,"duration":0.33749999999997726},{"name":"F#5","midi":78,"time":304.8749999999995,"velocity":0.7480314960629921,"duration":0.33749999999997726},{"name":"B3","midi":59,"time":304.8749999999995,"velocity":0.7480314960629921,"duration":0.33749999999997726},{"name":"F#5","midi":78,"time":305.2499999999995,"velocity":0.7480314960629921,"duration":0.33749999999997726},{"name":"D5","midi":74,"time":305.2499999999995,"velocity":0.7480314960629921,"duration":0.33749999999997726},{"name":"A4","midi":69,"time":305.2499999999995,"velocity":0.7480314960629921,"duration":0.33749999999997726},{"name":"F#4","midi":66,"time":305.2499999999995,"velocity":0.7480314960629921,"duration":0.33749999999997726},{"name":"B3","midi":59,"time":305.2499999999995,"velocity":0.7480314960629921,"duration":0.33749999999997726},{"name":"B3","midi":59,"time":305.6249999999995,"velocity":0.7480314960629921,"duration":0.33749999999997726},{"name":"F#4","midi":66,"time":305.6249999999995,"velocity":0.7480314960629921,"duration":0.33749999999997726},{"name":"A4","midi":69,"time":305.6249999999995,"velocity":0.7480314960629921,"duration":0.33749999999997726},{"name":"D5","midi":74,"time":305.6249999999995,"velocity":0.7480314960629921,"duration":0.33749999999997726},{"name":"D5","midi":74,"time":305.9999999999995,"velocity":0.7480314960629921,"duration":0.33749999999997726},{"name":"F#4","midi":66,"time":305.9999999999995,"velocity":0.7480314960629921,"duration":0.33749999999997726},{"name":"A4","midi":69,"time":305.9999999999995,"velocity":0.7480314960629921,"duration":0.33749999999997726},{"name":"B3","midi":59,"time":305.9999999999995,"velocity":0.7480314960629921,"duration":0.33749999999997726},{"name":"D5","midi":74,"time":306.3749999999995,"velocity":0.7480314960629921,"duration":0.33749999999997726},{"name":"F#4","midi":66,"time":306.3749999999995,"velocity":0.7480314960629921,"duration":0.33749999999997726},{"name":"F#5","midi":78,"time":306.3749999999995,"velocity":0.7480314960629921,"duration":0.33749999999997726},{"name":"A4","midi":69,"time":306.3749999999995,"velocity":0.7480314960629921,"duration":0.33749999999997726},{"name":"B3","midi":59,"time":306.3749999999995,"velocity":0.7480314960629921,"duration":0.33749999999997726},{"name":"F#5","midi":78,"time":306.7499999999995,"velocity":0.7480314960629921,"duration":0.33749999999997726},{"name":"D5","midi":74,"time":306.7499999999995,"velocity":0.7480314960629921,"duration":0.33749999999997726},{"name":"A4","midi":69,"time":306.7499999999995,"velocity":0.7480314960629921,"duration":0.33749999999997726},{"name":"F#4","midi":66,"time":306.7499999999995,"velocity":0.7480314960629921,"duration":0.33749999999997726},{"name":"B3","midi":59,"time":306.7499999999995,"velocity":0.7480314960629921,"duration":0.33749999999997726},{"name":"B3","midi":59,"time":307.1249999999995,"velocity":0.7480314960629921,"duration":0.33749999999997726},{"name":"F#4","midi":66,"time":307.1249999999995,"velocity":0.7480314960629921,"duration":0.33749999999997726},{"name":"A4","midi":69,"time":307.1249999999995,"velocity":0.7480314960629921,"duration":0.33749999999997726},{"name":"D5","midi":74,"time":307.1249999999995,"velocity":0.7480314960629921,"duration":0.33749999999997726},{"name":"D5","midi":74,"time":307.4999999999995,"velocity":0.7480314960629921,"duration":0.33749999999997726},{"name":"F#4","midi":66,"time":307.4999999999995,"velocity":0.7480314960629921,"duration":0.33749999999997726},{"name":"B3","midi":59,"time":307.4999999999995,"velocity":0.7480314960629921,"duration":0.33749999999997726},{"name":"A4","midi":69,"time":307.4999999999995,"velocity":0.7480314960629921,"duration":0.33749999999997726},{"name":"F#5","midi":78,"time":307.8749999999995,"velocity":0.7480314960629921,"duration":0.33749999999997726},{"name":"A4","midi":69,"time":307.8749999999995,"velocity":0.7480314960629921,"duration":0.33749999999997726},{"name":"F#4","midi":66,"time":307.8749999999995,"velocity":0.7480314960629921,"duration":0.33749999999997726},{"name":"B3","midi":59,"time":307.8749999999995,"velocity":0.7480314960629921,"duration":0.33749999999997726},{"name":"D5","midi":74,"time":307.8749999999995,"velocity":0.7480314960629921,"duration":0.33749999999997726},{"name":"F#5","midi":78,"time":308.2499999999995,"velocity":0.7480314960629921,"duration":0.33749999999997726},{"name":"D5","midi":74,"time":308.2499999999995,"velocity":0.7480314960629921,"duration":0.33749999999997726},{"name":"A4","midi":69,"time":308.2499999999995,"velocity":0.7480314960629921,"duration":0.33749999999997726},{"name":"F#4","midi":66,"time":308.2499999999995,"velocity":0.7480314960629921,"duration":0.33749999999997726},{"name":"B3","midi":59,"time":308.2499999999995,"velocity":0.7480314960629921,"duration":0.33749999999997726},{"name":"D5","midi":74,"time":308.6249999999995,"velocity":0.7480314960629921,"duration":0.33749999999997726},{"name":"A4","midi":69,"time":308.6249999999995,"velocity":0.7480314960629921,"duration":0.33749999999997726},{"name":"F#4","midi":66,"time":308.6249999999995,"velocity":0.7480314960629921,"duration":0.33749999999997726},{"name":"B3","midi":59,"time":308.6249999999995,"velocity":0.7480314960629921,"duration":0.33749999999997726},{"name":"D4","midi":62,"time":308.9999999999995,"velocity":0.7480314960629921,"duration":0.33749999999997726},{"name":"A4","midi":69,"time":308.9999999999995,"velocity":0.7480314960629921,"duration":0.33749999999997726},{"name":"C#5","midi":73,"time":308.9999999999995,"velocity":0.7480314960629921,"duration":0.33749999999997726},{"name":"F#5","midi":78,"time":309.3749999999995,"velocity":0.7480314960629921,"duration":0.33749999999997726},{"name":"D4","midi":62,"time":309.3749999999995,"velocity":0.7480314960629921,"duration":0.33749999999997726},{"name":"A4","midi":69,"time":309.3749999999995,"velocity":0.7480314960629921,"duration":0.33749999999997726},{"name":"C#5","midi":73,"time":309.3749999999995,"velocity":0.7480314960629921,"duration":0.33749999999997726},{"name":"D5","midi":74,"time":309.3749999999995,"velocity":0.7480314960629921,"duration":0.33749999999997726},{"name":"C#5","midi":73,"time":309.7499999999995,"velocity":0.7480314960629921,"duration":0.33749999999997726},{"name":"A4","midi":69,"time":309.7499999999995,"velocity":0.7480314960629921,"duration":0.33749999999997726},{"name":"F#5","midi":78,"time":309.7499999999995,"velocity":0.7480314960629921,"duration":0.33749999999997726},{"name":"D4","midi":62,"time":309.7499999999995,"velocity":0.7480314960629921,"duration":0.33749999999997726},{"name":"A4","midi":69,"time":310.1249999999995,"velocity":0.7480314960629921,"duration":0.33749999999997726},{"name":"D4","midi":62,"time":310.1249999999995,"velocity":0.7480314960629921,"duration":0.33749999999997726},{"name":"C#5","midi":73,"time":310.1249999999995,"velocity":0.7480314960629921,"duration":0.33749999999997726},{"name":"C#5","midi":73,"time":310.4999999999995,"velocity":0.7480314960629921,"duration":0.33749999999997726},{"name":"A4","midi":69,"time":310.4999999999995,"velocity":0.7480314960629921,"duration":0.33749999999997726},{"name":"D4","midi":62,"time":310.4999999999995,"velocity":0.7480314960629921,"duration":0.33749999999997726},{"name":"C#5","midi":73,"time":310.8749999999995,"velocity":0.7480314960629921,"duration":0.33749999999997726},{"name":"A4","midi":69,"time":310.8749999999995,"velocity":0.7480314960629921,"duration":0.33749999999997726},{"name":"D4","midi":62,"time":310.8749999999995,"velocity":0.7480314960629921,"duration":0.33749999999997726},{"name":"F#5","midi":78,"time":310.8749999999995,"velocity":0.7480314960629921,"duration":0.33749999999997726},{"name":"D4","midi":62,"time":311.2499999999995,"velocity":0.7480314960629921,"duration":0.33749999999997726},{"name":"A4","midi":69,"time":311.2499999999995,"velocity":0.7480314960629921,"duration":0.33749999999997726},{"name":"C#5","midi":73,"time":311.2499999999995,"velocity":0.7480314960629921,"duration":0.33749999999997726},{"name":"F#5","midi":78,"time":311.2499999999995,"velocity":0.7480314960629921,"duration":0.33749999999997726},{"name":"C#5","midi":73,"time":311.6249999999995,"velocity":0.7480314960629921,"duration":0.33749999999997726},{"name":"D4","midi":62,"time":311.6249999999995,"velocity":0.7480314960629921,"duration":0.33749999999997726},{"name":"A4","midi":69,"time":311.6249999999995,"velocity":0.7480314960629921,"duration":0.33749999999997726},{"name":"D4","midi":62,"time":311.9999999999995,"velocity":0.7480314960629921,"duration":0.33749999999997726},{"name":"A4","midi":69,"time":311.9999999999995,"velocity":0.7480314960629921,"duration":0.33749999999997726},{"name":"C#5","midi":73,"time":311.9999999999995,"velocity":0.7480314960629921,"duration":0.33749999999997726},{"name":"A4","midi":69,"time":312.3749999999995,"velocity":0.7480314960629921,"duration":0.33749999999997726},{"name":"F#5","midi":78,"time":312.3749999999995,"velocity":0.7480314960629921,"duration":0.33749999999997726},{"name":"D4","midi":62,"time":312.3749999999995,"velocity":0.7480314960629921,"duration":0.33749999999997726},{"name":"C#5","midi":73,"time":312.3749999999995,"velocity":0.7480314960629921,"duration":0.33749999999997726},{"name":"A4","midi":69,"time":312.7499999999995,"velocity":0.7480314960629921,"duration":0.33749999999997726},{"name":"D4","midi":62,"time":312.7499999999995,"velocity":0.7480314960629921,"duration":0.33749999999997726},{"name":"F#5","midi":78,"time":312.7499999999995,"velocity":0.7480314960629921,"duration":0.33749999999997726},{"name":"C#5","midi":73,"time":312.7499999999995,"velocity":0.7480314960629921,"duration":0.33749999999997726},{"name":"C#5","midi":73,"time":313.1249999999995,"velocity":0.7480314960629921,"duration":0.33749999999997726},{"name":"A4","midi":69,"time":313.1249999999995,"velocity":0.7480314960629921,"duration":0.33749999999997726},{"name":"D4","midi":62,"time":313.1249999999995,"velocity":0.7480314960629921,"duration":0.33749999999997726},{"name":"D4","midi":62,"time":313.4999999999995,"velocity":0.7480314960629921,"duration":0.33749999999997726},{"name":"A4","midi":69,"time":313.4999999999995,"velocity":0.7480314960629921,"duration":0.33749999999997726},{"name":"C#5","midi":73,"time":313.4999999999995,"velocity":0.7480314960629921,"duration":0.33749999999997726},{"name":"F#5","midi":78,"time":313.8749999999995,"velocity":0.7480314960629921,"duration":0.33749999999997726},{"name":"C#5","midi":73,"time":313.8749999999995,"velocity":0.7480314960629921,"duration":0.33749999999997726},{"name":"A4","midi":69,"time":313.8749999999995,"velocity":0.7480314960629921,"duration":0.33749999999997726},{"name":"D4","midi":62,"time":313.8749999999995,"velocity":0.7480314960629921,"duration":0.33749999999997726},{"name":"D4","midi":62,"time":314.2499999999995,"velocity":0.7480314960629921,"duration":0.33749999999997726},{"name":"A4","midi":69,"time":314.2499999999995,"velocity":0.7480314960629921,"duration":0.33749999999997726},{"name":"C#5","midi":73,"time":314.2499999999995,"velocity":0.7480314960629921,"duration":0.33749999999997726},{"name":"F#5","midi":78,"time":314.2499999999995,"velocity":0.7480314960629921,"duration":0.33749999999997726},{"name":"C#5","midi":73,"time":314.6249999999995,"velocity":0.7480314960629921,"duration":0.33749999999997726},{"name":"A4","midi":69,"time":314.6249999999995,"velocity":0.7480314960629921,"duration":0.33749999999997726},{"name":"D4","midi":62,"time":314.6249999999995,"velocity":0.7480314960629921,"duration":0.33749999999997726},{"name":"C#5","midi":73,"time":314.9999999999995,"velocity":0.7480314960629921,"duration":0.33749999999997726},{"name":"A4","midi":69,"time":314.9999999999995,"velocity":0.7480314960629921,"duration":0.33749999999997726},{"name":"E4","midi":64,"time":314.9999999999995,"velocity":0.7480314960629921,"duration":0.33749999999997726},{"name":"A3","midi":57,"time":314.9999999999995,"velocity":0.7480314960629921,"duration":0.33749999999997726},{"name":"A3","midi":57,"time":315.3749999999995,"velocity":0.7480314960629921,"duration":0.33749999999997726},{"name":"E4","midi":64,"time":315.3749999999995,"velocity":0.7480314960629921,"duration":0.33749999999997726},{"name":"C#5","midi":73,"time":315.3749999999995,"velocity":0.7480314960629921,"duration":0.33749999999997726},{"name":"A4","midi":69,"time":315.3749999999995,"velocity":0.7480314960629921,"duration":0.33749999999997726},{"name":"A3","midi":57,"time":315.7499999999995,"velocity":0.7480314960629921,"duration":0.33749999999997726},{"name":"E4","midi":64,"time":315.7499999999995,"velocity":0.7480314960629921,"duration":0.33749999999997726},{"name":"A4","midi":69,"time":315.7499999999995,"velocity":0.7480314960629921,"duration":0.33749999999997726},{"name":"C#5","midi":73,"time":315.7499999999995,"velocity":0.7480314960629921,"duration":0.33749999999997726},{"name":"E5","midi":76,"time":315.7499999999995,"velocity":0.7480314960629921,"duration":0.33749999999997726},{"name":"A5","midi":81,"time":315.7499999999995,"velocity":0.7480314960629921,"duration":0.33749999999997726},{"name":"A3","midi":57,"time":316.1249999999995,"velocity":0.7480314960629921,"duration":0.33749999999997726},{"name":"E4","midi":64,"time":316.1249999999995,"velocity":0.7480314960629921,"duration":0.33749999999997726},{"name":"C#5","midi":73,"time":316.1249999999995,"velocity":0.7480314960629921,"duration":0.33749999999997726},{"name":"A4","midi":69,"time":316.1249999999995,"velocity":0.7480314960629921,"duration":0.33749999999997726},{"name":"A3","midi":57,"time":316.4999999999995,"velocity":0.7480314960629921,"duration":0.33749999999997726},{"name":"E4","midi":64,"time":316.4999999999995,"velocity":0.7480314960629921,"duration":0.33749999999997726},{"name":"A4","midi":69,"time":316.4999999999995,"velocity":0.7480314960629921,"duration":0.33749999999997726},{"name":"C#5","midi":73,"time":316.4999999999995,"velocity":0.7480314960629921,"duration":0.33749999999997726},{"name":"E4","midi":64,"time":316.8749999999995,"velocity":0.7480314960629921,"duration":0.33749999999997726},{"name":"A3","midi":57,"time":316.8749999999995,"velocity":0.7480314960629921,"duration":0.33749999999997726},{"name":"A4","midi":69,"time":316.8749999999995,"velocity":0.7480314960629921,"duration":0.33749999999997726},{"name":"A5","midi":81,"time":316.8749999999995,"velocity":0.7480314960629921,"duration":0.33749999999997726},{"name":"E5","midi":76,"time":316.8749999999995,"velocity":0.7480314960629921,"duration":0.33749999999997726},{"name":"C#5","midi":73,"time":316.8749999999995,"velocity":0.7480314960629921,"duration":0.33749999999997726},{"name":"A5","midi":81,"time":317.2499999999995,"velocity":0.7480314960629921,"duration":0.33749999999997726},{"name":"A4","midi":69,"time":317.2499999999995,"velocity":0.7480314960629921,"duration":0.33749999999997726},{"name":"E5","midi":76,"time":317.2499999999995,"velocity":0.7480314960629921,"duration":0.33749999999997726},{"name":"C#5","midi":73,"time":317.2499999999995,"velocity":0.7480314960629921,"duration":0.33749999999997726},{"name":"A3","midi":57,"time":317.2499999999995,"velocity":0.7480314960629921,"duration":0.33749999999997726},{"name":"E4","midi":64,"time":317.2499999999995,"velocity":0.7480314960629921,"duration":0.33749999999997726},{"name":"A3","midi":57,"time":317.6249999999995,"velocity":0.7480314960629921,"duration":0.33749999999997726},{"name":"C#5","midi":73,"time":317.6249999999995,"velocity":0.7480314960629921,"duration":0.33749999999997726},{"name":"A4","midi":69,"time":317.6249999999995,"velocity":0.7480314960629921,"duration":0.33749999999997726},{"name":"E4","midi":64,"time":317.6249999999995,"velocity":0.7480314960629921,"duration":0.33749999999997726},{"name":"C#5","midi":73,"time":317.9999999999995,"velocity":0.7480314960629921,"duration":0.33749999999997726},{"name":"A3","midi":57,"time":317.9999999999995,"velocity":0.7480314960629921,"duration":0.33749999999997726},{"name":"E4","midi":64,"time":317.9999999999995,"velocity":0.7480314960629921,"duration":0.33749999999997726},{"name":"A4","midi":69,"time":317.9999999999995,"velocity":0.7480314960629921,"duration":0.33749999999997726},{"name":"E4","midi":64,"time":318.3749999999995,"velocity":0.7480314960629921,"duration":0.33749999999997726},{"name":"A4","midi":69,"time":318.3749999999995,"velocity":0.7480314960629921,"duration":0.33749999999997726},{"name":"C#5","midi":73,"time":318.3749999999995,"velocity":0.7480314960629921,"duration":0.33749999999997726},{"name":"E5","midi":76,"time":318.3749999999995,"velocity":0.7480314960629921,"duration":0.33749999999997726},{"name":"A5","midi":81,"time":318.3749999999995,"velocity":0.7480314960629921,"duration":0.33749999999997726},{"name":"A3","midi":57,"time":318.3749999999995,"velocity":0.7480314960629921,"duration":0.33749999999997726},{"name":"A3","midi":57,"time":318.7499999999995,"velocity":0.7480314960629921,"duration":0.33749999999997726},{"name":"A4","midi":69,"time":318.7499999999995,"velocity":0.7480314960629921,"duration":0.33749999999997726},{"name":"C#5","midi":73,"time":318.7499999999995,"velocity":0.7480314960629921,"duration":0.33749999999997726},{"name":"E5","midi":76,"time":318.7499999999995,"velocity":0.7480314960629921,"duration":0.33749999999997726},{"name":"A5","midi":81,"time":318.7499999999995,"velocity":0.7480314960629921,"duration":0.33749999999997726},{"name":"E4","midi":64,"time":318.7499999999995,"velocity":0.7480314960629921,"duration":0.33749999999997726},{"name":"C#5","midi":73,"time":319.1249999999995,"velocity":0.7480314960629921,"duration":0.33749999999997726},{"name":"A4","midi":69,"time":319.1249999999995,"velocity":0.7480314960629921,"duration":0.33749999999997726},{"name":"E4","midi":64,"time":319.1249999999995,"velocity":0.7480314960629921,"duration":0.33749999999997726},{"name":"A3","midi":57,"time":319.1249999999995,"velocity":0.7480314960629921,"duration":0.33749999999997726},{"name":"C#5","midi":73,"time":319.4999999999995,"velocity":0.7480314960629921,"duration":0.33749999999997726},{"name":"A3","midi":57,"time":319.4999999999995,"velocity":0.7480314960629921,"duration":0.33749999999997726},{"name":"E4","midi":64,"time":319.4999999999995,"velocity":0.7480314960629921,"duration":0.33749999999997726},{"name":"A4","midi":69,"time":319.4999999999995,"velocity":0.7480314960629921,"duration":0.33749999999997726},{"name":"A5","midi":81,"time":319.8749999999995,"velocity":0.7480314960629921,"duration":0.33749999999997726},{"name":"E5","midi":76,"time":319.8749999999995,"velocity":0.7480314960629921,"duration":0.33749999999997726},{"name":"C#5","midi":73,"time":319.8749999999995,"velocity":0.7480314960629921,"duration":0.33749999999997726},{"name":"A4","midi":69,"time":319.8749999999995,"velocity":0.7480314960629921,"duration":0.33749999999997726},{"name":"E4","midi":64,"time":319.8749999999995,"velocity":0.7480314960629921,"duration":0.33749999999997726},{"name":"A3","midi":57,"time":319.8749999999995,"velocity":0.7480314960629921,"duration":0.33749999999997726},{"name":"A3","midi":57,"time":320.2499999999995,"velocity":0.7480314960629921,"duration":0.33749999999997726},{"name":"E4","midi":64,"time":320.2499999999995,"velocity":0.7480314960629921,"duration":0.33749999999997726},{"name":"A4","midi":69,"time":320.2499999999995,"velocity":0.7480314960629921,"duration":0.33749999999997726},{"name":"C#5","midi":73,"time":320.2499999999995,"velocity":0.7480314960629921,"duration":0.33749999999997726},{"name":"E5","midi":76,"time":320.2499999999995,"velocity":0.7480314960629921,"duration":0.33749999999997726},{"name":"A5","midi":81,"time":320.2499999999995,"velocity":0.7480314960629921,"duration":0.33749999999997726},{"name":"E4","midi":64,"time":320.6249999999995,"velocity":0.7480314960629921,"duration":0.33749999999997726},{"name":"C#5","midi":73,"time":320.6249999999995,"velocity":0.7480314960629921,"duration":0.33749999999997726},{"name":"A4","midi":69,"time":320.6249999999995,"velocity":0.7480314960629921,"duration":0.33749999999997726},{"name":"A3","midi":57,"time":320.6249999999995,"velocity":0.7480314960629921,"duration":0.33749999999997726},{"name":"E5","midi":76,"time":320.9999999999995,"velocity":0.7480314960629921,"duration":0.33749999999997726},{"name":"B4","midi":71,"time":320.9999999999995,"velocity":0.7480314960629921,"duration":0.33749999999997726},{"name":"E4","midi":64,"time":320.9999999999995,"velocity":0.7480314960629921,"duration":0.33749999999997726},{"name":"E5","midi":76,"time":321.3749999999995,"velocity":0.7480314960629921,"duration":0.33749999999997726},{"name":"E4","midi":64,"time":321.3749999999995,"velocity":0.7480314960629921,"duration":0.33749999999997726},{"name":"A5","midi":81,"time":321.3749999999995,"velocity":0.7480314960629921,"duration":0.33749999999997726},{"name":"E5","midi":76,"time":321.3749999999995,"velocity":0.7480314960629921,"duration":0.33749999999997726},{"name":"B4","midi":71,"time":321.3749999999995,"velocity":0.7480314960629921,"duration":0.33749999999997726},{"name":"E4","midi":64,"time":321.7499999999995,"velocity":0.7480314960629921,"duration":0.33749999999997726},{"name":"E5","midi":76,"time":321.7499999999995,"velocity":0.7480314960629921,"duration":0.33749999999997726},{"name":"B4","midi":71,"time":321.7499999999995,"velocity":0.7480314960629921,"duration":0.33749999999997726},{"name":"G#5","midi":80,"time":321.7499999999995,"velocity":0.7480314960629921,"duration":0.33749999999997726},{"name":"E5","midi":76,"time":322.1249999999995,"velocity":0.7480314960629921,"duration":0.33749999999997726},{"name":"B4","midi":71,"time":322.1249999999995,"velocity":0.7480314960629921,"duration":0.33749999999997726},{"name":"E4","midi":64,"time":322.1249999999995,"velocity":0.7480314960629921,"duration":0.33749999999997726},{"name":"E5","midi":76,"time":322.4999999999995,"velocity":0.7480314960629921,"duration":0.33749999999997726},{"name":"B4","midi":71,"time":322.4999999999995,"velocity":0.7480314960629921,"duration":0.33749999999997726},{"name":"E4","midi":64,"time":322.4999999999995,"velocity":0.7480314960629921,"duration":0.33749999999997726},{"name":"E4","midi":64,"time":322.8749999999995,"velocity":0.7480314960629921,"duration":0.33749999999997726},{"name":"B4","midi":71,"time":322.8749999999995,"velocity":0.7480314960629921,"duration":0.33749999999997726},{"name":"E5","midi":76,"time":322.8749999999995,"velocity":0.7480314960629921,"duration":0.33749999999997726},{"name":"G#5","midi":80,"time":322.8749999999995,"velocity":0.7480314960629921,"duration":0.33749999999997726},{"name":"E4","midi":64,"time":323.2499999999995,"velocity":0.7480314960629921,"duration":0.33749999999997726},{"name":"B4","midi":71,"time":323.2499999999995,"velocity":0.7480314960629921,"duration":0.33749999999997726},{"name":"E5","midi":76,"time":323.2499999999995,"velocity":0.7480314960629921,"duration":0.33749999999997726},{"name":"G#5","midi":80,"time":323.2499999999995,"velocity":0.7480314960629921,"duration":0.33749999999997726},{"name":"B4","midi":71,"time":323.6249999999995,"velocity":0.7480314960629921,"duration":0.33749999999997726},{"name":"E5","midi":76,"time":323.6249999999995,"velocity":0.7480314960629921,"duration":0.33749999999997726},{"name":"E4","midi":64,"time":323.6249999999995,"velocity":0.7480314960629921,"duration":0.33749999999997726},{"name":"E5","midi":76,"time":323.9999999999995,"velocity":0.7480314960629921,"duration":0.33749999999997726},{"name":"E4","midi":64,"time":323.9999999999995,"velocity":0.7480314960629921,"duration":0.33749999999997726},{"name":"B4","midi":71,"time":323.9999999999995,"velocity":0.7480314960629921,"duration":0.33749999999997726},{"name":"E5","midi":76,"time":324.3749999999995,"velocity":0.7480314960629921,"duration":0.33749999999997726},{"name":"E4","midi":64,"time":324.3749999999995,"velocity":0.7480314960629921,"duration":0.33749999999997726},{"name":"B4","midi":71,"time":324.3749999999995,"velocity":0.7480314960629921,"duration":0.33749999999997726},{"name":"G#5","midi":80,"time":324.3749999999995,"velocity":0.7480314960629921,"duration":0.33749999999997726},{"name":"B4","midi":71,"time":324.7499999999995,"velocity":0.7480314960629921,"duration":0.33749999999997726},{"name":"E5","midi":76,"time":324.7499999999995,"velocity":0.7480314960629921,"duration":0.33749999999997726},{"name":"E4","midi":64,"time":324.7499999999995,"velocity":0.7480314960629921,"duration":0.33749999999997726},{"name":"G#5","midi":80,"time":324.7499999999995,"velocity":0.7480314960629921,"duration":0.33749999999997726},{"name":"B4","midi":71,"time":325.1249999999995,"velocity":0.7480314960629921,"duration":0.33749999999997726},{"name":"E5","midi":76,"time":325.1249999999995,"velocity":0.7480314960629921,"duration":0.33749999999997726},{"name":"E4","midi":64,"time":325.1249999999995,"velocity":0.7480314960629921,"duration":0.33749999999997726},{"name":"E5","midi":76,"time":325.4999999999995,"velocity":0.7480314960629921,"duration":0.33749999999997726},{"name":"E4","midi":64,"time":325.4999999999995,"velocity":0.7480314960629921,"duration":0.33749999999997726},{"name":"B4","midi":71,"time":325.4999999999995,"velocity":0.7480314960629921,"duration":0.33749999999997726},{"name":"B4","midi":71,"time":325.8749999999995,"velocity":0.7480314960629921,"duration":0.33749999999997726},{"name":"E5","midi":76,"time":325.8749999999995,"velocity":0.7480314960629921,"duration":0.33749999999997726},{"name":"G#5","midi":80,"time":325.8749999999995,"velocity":0.7480314960629921,"duration":0.33749999999997726},{"name":"E4","midi":64,"time":325.8749999999995,"velocity":0.7480314960629921,"duration":0.33749999999997726},{"name":"B4","midi":71,"time":326.2499999999995,"velocity":0.7480314960629921,"duration":0.33749999999997726},{"name":"E5","midi":76,"time":326.2499999999995,"velocity":0.7480314960629921,"duration":0.33749999999997726},{"name":"G#5","midi":80,"time":326.2499999999995,"velocity":0.7480314960629921,"duration":0.33749999999997726},{"name":"E4","midi":64,"time":326.2499999999995,"velocity":0.7480314960629921,"duration":0.33749999999997726},{"name":"E5","midi":76,"time":326.6249999999995,"velocity":0.7480314960629921,"duration":0.33749999999997726},{"name":"B4","midi":71,"time":326.6249999999995,"velocity":0.7480314960629921,"duration":0.33749999999997726},{"name":"E4","midi":64,"time":326.6249999999995,"velocity":0.7480314960629921,"duration":0.33749999999997726},{"name":"B3","midi":59,"time":326.9999999999995,"velocity":0.7480314960629921,"duration":0.33749999999997726},{"name":"A4","midi":69,"time":326.9999999999995,"velocity":0.7480314960629921,"duration":0.33749999999997726},{"name":"D5","midi":74,"time":326.9999999999995,"velocity":0.7480314960629921,"duration":0.33749999999997726},{"name":"F#4","midi":66,"time":326.9999999999995,"velocity":0.7480314960629921,"duration":0.33749999999997726},{"name":"F#4","midi":66,"time":327.3749999999995,"velocity":0.7480314960629921,"duration":0.33749999999997726},{"name":"B3","midi":59,"time":327.3749999999995,"velocity":0.7480314960629921,"duration":0.33749999999997726},{"name":"A4","midi":69,"time":327.3749999999995,"velocity":0.7480314960629921,"duration":0.33749999999997726},{"name":"D5","midi":74,"time":327.3749999999995,"velocity":0.7480314960629921,"duration":0.33749999999997726},{"name":"B3","midi":59,"time":327.7499999999995,"velocity":0.7480314960629921,"duration":0.33749999999997726},{"name":"A4","midi":69,"time":327.7499999999995,"velocity":0.7480314960629921,"duration":0.33749999999997726},{"name":"D5","midi":74,"time":327.7499999999995,"velocity":0.7480314960629921,"duration":0.33749999999997726},{"name":"F#5","midi":78,"time":327.7499999999995,"velocity":0.7480314960629921,"duration":0.33749999999997726},{"name":"F#4","midi":66,"time":327.7499999999995,"velocity":0.7480314960629921,"duration":0.33749999999997726},{"name":"D5","midi":74,"time":328.1249999999995,"velocity":0.7480314960629921,"duration":0.33749999999997726},{"name":"A4","midi":69,"time":328.1249999999995,"velocity":0.7480314960629921,"duration":0.33749999999997726},{"name":"F#4","midi":66,"time":328.1249999999995,"velocity":0.7480314960629921,"duration":0.33749999999997726},{"name":"B3","midi":59,"time":328.1249999999995,"velocity":0.7480314960629921,"duration":0.33749999999997726},{"name":"B3","midi":59,"time":328.4999999999995,"velocity":0.7480314960629921,"duration":0.33749999999997726},{"name":"D5","midi":74,"time":328.4999999999995,"velocity":0.7480314960629921,"duration":0.33749999999997726},{"name":"A4","midi":69,"time":328.4999999999995,"velocity":0.7480314960629921,"duration":0.33749999999997726},{"name":"F#4","midi":66,"time":328.4999999999995,"velocity":0.7480314960629921,"duration":0.33749999999997726},{"name":"F#5","midi":78,"time":328.8749999999995,"velocity":0.7480314960629921,"duration":0.33749999999997726},{"name":"D5","midi":74,"time":328.8749999999995,"velocity":0.7480314960629921,"duration":0.33749999999997726},{"name":"A4","midi":69,"time":328.8749999999995,"velocity":0.7480314960629921,"duration":0.33749999999997726},{"name":"F#4","midi":66,"time":328.8749999999995,"velocity":0.7480314960629921,"duration":0.33749999999997726},{"name":"B3","midi":59,"time":328.8749999999995,"velocity":0.7480314960629921,"duration":0.33749999999997726},{"name":"F#4","midi":66,"time":329.2499999999995,"velocity":0.7480314960629921,"duration":0.33749999999997726},{"name":"F#5","midi":78,"time":329.2499999999995,"velocity":0.7480314960629921,"duration":0.33749999999997726},{"name":"D5","midi":74,"time":329.2499999999995,"velocity":0.7480314960629921,"duration":0.33749999999997726},{"name":"A4","midi":69,"time":329.2499999999995,"velocity":0.7480314960629921,"duration":0.33749999999997726},{"name":"B3","midi":59,"time":329.2499999999995,"velocity":0.7480314960629921,"duration":0.33749999999997726},{"name":"D5","midi":74,"time":329.6249999999995,"velocity":0.7480314960629921,"duration":0.33749999999997726},{"name":"A4","midi":69,"time":329.6249999999995,"velocity":0.7480314960629921,"duration":0.33749999999997726},{"name":"B3","midi":59,"time":329.6249999999995,"velocity":0.7480314960629921,"duration":0.33749999999997726},{"name":"F#4","midi":66,"time":329.6249999999995,"velocity":0.7480314960629921,"duration":0.33749999999997726},{"name":"A4","midi":69,"time":329.9999999999995,"velocity":0.7480314960629921,"duration":0.33749999999997726},{"name":"F#4","midi":66,"time":329.9999999999995,"velocity":0.7480314960629921,"duration":0.33749999999997726},{"name":"B3","midi":59,"time":329.9999999999995,"velocity":0.7480314960629921,"duration":0.33749999999997726},{"name":"D5","midi":74,"time":329.9999999999995,"velocity":0.7480314960629921,"duration":0.33749999999997726},{"name":"F#4","midi":66,"time":330.3749999999995,"velocity":0.7480314960629921,"duration":0.33749999999997726},{"name":"B3","midi":59,"time":330.3749999999995,"velocity":0.7480314960629921,"duration":0.33749999999997726},{"name":"A4","midi":69,"time":330.3749999999995,"velocity":0.7480314960629921,"duration":0.33749999999997726},{"name":"D5","midi":74,"time":330.3749999999995,"velocity":0.7480314960629921,"duration":0.33749999999997726},{"name":"F#5","midi":78,"time":330.3749999999995,"velocity":0.7480314960629921,"duration":0.33749999999997726},{"name":"B3","midi":59,"time":330.7499999999995,"velocity":0.7480314960629921,"duration":0.33749999999997726},{"name":"F#4","midi":66,"time":330.7499999999995,"velocity":0.7480314960629921,"duration":0.33749999999997726},{"name":"A4","midi":69,"time":330.7499999999995,"velocity":0.7480314960629921,"duration":0.33749999999997726},{"name":"D5","midi":74,"time":330.7499999999995,"velocity":0.7480314960629921,"duration":0.33749999999997726},{"name":"F#5","midi":78,"time":330.7499999999995,"velocity":0.7480314960629921,"duration":0.33749999999997726},{"name":"A4","midi":69,"time":331.1249999999995,"velocity":0.7480314960629921,"duration":0.33749999999997726},{"name":"B3","midi":59,"time":331.1249999999995,"velocity":0.7480314960629921,"duration":0.33749999999997726},{"name":"D5","midi":74,"time":331.1249999999995,"velocity":0.7480314960629921,"duration":0.33749999999997726},{"name":"F#4","midi":66,"time":331.1249999999995,"velocity":0.7480314960629921,"duration":0.33749999999997726},{"name":"A4","midi":69,"time":331.4999999999995,"velocity":0.7480314960629921,"duration":0.33749999999997726},{"name":"F#4","midi":66,"time":331.4999999999995,"velocity":0.7480314960629921,"duration":0.33749999999997726},{"name":"D5","midi":74,"time":331.4999999999995,"velocity":0.7480314960629921,"duration":0.33749999999997726},{"name":"B3","midi":59,"time":331.4999999999995,"velocity":0.7480314960629921,"duration":0.33749999999997726},{"name":"A4","midi":69,"time":331.8749999999995,"velocity":0.7480314960629921,"duration":0.33749999999997726},{"name":"D5","midi":74,"time":331.8749999999995,"velocity":0.7480314960629921,"duration":0.33749999999997726},{"name":"F#5","midi":78,"time":331.8749999999995,"velocity":0.7480314960629921,"duration":0.33749999999997726},{"name":"B3","midi":59,"time":331.8749999999995,"velocity":0.7480314960629921,"duration":0.33749999999997726},{"name":"F#4","midi":66,"time":331.8749999999995,"velocity":0.7480314960629921,"duration":0.33749999999997726},{"name":"F#5","midi":78,"time":332.2499999999995,"velocity":0.7480314960629921,"duration":0.33749999999997726},{"name":"D5","midi":74,"time":332.2499999999995,"velocity":0.7480314960629921,"duration":0.33749999999997726},{"name":"A4","midi":69,"time":332.2499999999995,"velocity":0.7480314960629921,"duration":0.33749999999997726},{"name":"F#4","midi":66,"time":332.2499999999995,"velocity":0.7480314960629921,"duration":0.33749999999997726},{"name":"B3","midi":59,"time":332.2499999999995,"velocity":0.7480314960629921,"duration":0.33749999999997726},{"name":"D5","midi":74,"time":332.6249999999995,"velocity":0.7480314960629921,"duration":0.33749999999997726},{"name":"A4","midi":69,"time":332.6249999999995,"velocity":0.7480314960629921,"duration":0.33749999999997726},{"name":"F#4","midi":66,"time":332.6249999999995,"velocity":0.7480314960629921,"duration":0.33749999999997726},{"name":"B3","midi":59,"time":332.6249999999995,"velocity":0.7480314960629921,"duration":0.33749999999997726},{"name":"C#5","midi":73,"time":332.9999999999995,"velocity":0.7480314960629921,"duration":0.33749999999997726},{"name":"A4","midi":69,"time":332.9999999999995,"velocity":0.7480314960629921,"duration":0.33749999999997726},{"name":"D4","midi":62,"time":332.9999999999995,"velocity":0.7480314960629921,"duration":0.33749999999997726},{"name":"F#5","midi":78,"time":333.3749999999995,"velocity":0.7480314960629921,"duration":0.33749999999997726},{"name":"D5","midi":74,"time":333.3749999999995,"velocity":0.7480314960629921,"duration":0.33749999999997726},{"name":"C#5","midi":73,"time":333.3749999999995,"velocity":0.7480314960629921,"duration":0.33749999999997726},{"name":"A4","midi":69,"time":333.3749999999995,"velocity":0.7480314960629921,"duration":0.33749999999997726},{"name":"D4","midi":62,"time":333.3749999999995,"velocity":0.7480314960629921,"duration":0.33749999999997726},{"name":"D4","midi":62,"time":333.7499999999995,"velocity":0.7480314960629921,"duration":0.33749999999997726},{"name":"A4","midi":69,"time":333.7499999999995,"velocity":0.7480314960629921,"duration":0.33749999999997726},{"name":"C#5","midi":73,"time":333.7499999999995,"velocity":0.7480314960629921,"duration":0.33749999999997726},{"name":"F#5","midi":78,"time":333.7499999999995,"velocity":0.7480314960629921,"duration":0.33749999999997726},{"name":"A4","midi":69,"time":334.1249999999995,"velocity":0.7480314960629921,"duration":0.33749999999997726},{"name":"D4","midi":62,"time":334.1249999999995,"velocity":0.7480314960629921,"duration":0.33749999999997726},{"name":"C#5","midi":73,"time":334.1249999999995,"velocity":0.7480314960629921,"duration":0.33749999999997726},{"name":"A4","midi":69,"time":334.4999999999995,"velocity":0.7480314960629921,"duration":0.33749999999997726},{"name":"C#5","midi":73,"time":334.4999999999995,"velocity":0.7480314960629921,"duration":0.33749999999997726},{"name":"D4","midi":62,"time":334.4999999999995,"velocity":0.7480314960629921,"duration":0.33749999999997726},{"name":"C#5","midi":73,"time":334.8749999999995,"velocity":0.7480314960629921,"duration":0.33749999999997726},{"name":"A4","midi":69,"time":334.8749999999995,"velocity":0.7480314960629921,"duration":0.33749999999997726},{"name":"F#5","midi":78,"time":334.8749999999995,"velocity":0.7480314960629921,"duration":0.33749999999997726},{"name":"D4","midi":62,"time":334.8749999999995,"velocity":0.7480314960629921,"duration":0.33749999999997726},{"name":"F#5","midi":78,"time":335.2499999999995,"velocity":0.7480314960629921,"duration":0.33749999999997726},{"name":"C#5","midi":73,"time":335.2499999999995,"velocity":0.7480314960629921,"duration":0.33749999999997726},{"name":"A4","midi":69,"time":335.2499999999995,"velocity":0.7480314960629921,"duration":0.33749999999997726},{"name":"D4","midi":62,"time":335.2499999999995,"velocity":0.7480314960629921,"duration":0.33749999999997726},{"name":"D4","midi":62,"time":335.6249999999995,"velocity":0.7480314960629921,"duration":0.33749999999997726},{"name":"A4","midi":69,"time":335.6249999999995,"velocity":0.7480314960629921,"duration":0.33749999999997726},{"name":"C#5","midi":73,"time":335.6249999999995,"velocity":0.7480314960629921,"duration":0.33749999999997726},{"name":"A4","midi":69,"time":335.9999999999995,"velocity":0.7480314960629921,"duration":0.33749999999997726},{"name":"D4","midi":62,"time":335.9999999999995,"velocity":0.7480314960629921,"duration":0.33749999999997726},{"name":"C#5","midi":73,"time":335.9999999999995,"velocity":0.7480314960629921,"duration":0.33749999999997726},{"name":"F#5","midi":78,"time":336.3749999999995,"velocity":0.7480314960629921,"duration":0.33749999999997726},{"name":"C#5","midi":73,"time":336.3749999999995,"velocity":0.7480314960629921,"duration":0.33749999999997726},{"name":"A4","midi":69,"time":336.3749999999995,"velocity":0.7480314960629921,"duration":0.33749999999997726},{"name":"D4","midi":62,"time":336.3749999999995,"velocity":0.7480314960629921,"duration":0.33749999999997726},{"name":"F#5","midi":78,"time":336.7499999999995,"velocity":0.7480314960629921,"duration":0.33749999999997726},{"name":"C#5","midi":73,"time":336.7499999999995,"velocity":0.7480314960629921,"duration":0.33749999999997726},{"name":"A4","midi":69,"time":336.7499999999995,"velocity":0.7480314960629921,"duration":0.33749999999997726},{"name":"D4","midi":62,"time":336.7499999999995,"velocity":0.7480314960629921,"duration":0.33749999999997726},{"name":"D4","midi":62,"time":337.1249999999995,"velocity":0.7480314960629921,"duration":0.33749999999997726},{"name":"A4","midi":69,"time":337.1249999999995,"velocity":0.7480314960629921,"duration":0.33749999999997726},{"name":"C#5","midi":73,"time":337.1249999999995,"velocity":0.7480314960629921,"duration":0.33749999999997726},{"name":"A4","midi":69,"time":337.4999999999995,"velocity":0.7480314960629921,"duration":0.33749999999997726},{"name":"D4","midi":62,"time":337.4999999999995,"velocity":0.7480314960629921,"duration":0.33749999999997726},{"name":"C#5","midi":73,"time":337.4999999999995,"velocity":0.7480314960629921,"duration":0.33749999999997726},{"name":"A4","midi":69,"time":337.8749999999995,"velocity":0.7480314960629921,"duration":0.33749999999997726},{"name":"D4","midi":62,"time":337.8749999999995,"velocity":0.7480314960629921,"duration":0.33749999999997726},{"name":"F#5","midi":78,"time":337.8749999999995,"velocity":0.7480314960629921,"duration":0.33749999999997726},{"name":"C#5","midi":73,"time":337.8749999999995,"velocity":0.7480314960629921,"duration":0.33749999999997726},{"name":"C#5","midi":73,"time":338.2499999999995,"velocity":0.7480314960629921,"duration":0.33749999999997726},{"name":"A4","midi":69,"time":338.2499999999995,"velocity":0.7480314960629921,"duration":0.33749999999997726},{"name":"D4","midi":62,"time":338.2499999999995,"velocity":0.7480314960629921,"duration":0.33749999999997726},{"name":"F#5","midi":78,"time":338.2499999999995,"velocity":0.7480314960629921,"duration":0.33749999999997726},{"name":"C#5","midi":73,"time":338.6249999999995,"velocity":0.7480314960629921,"duration":0.33749999999997726},{"name":"A4","midi":69,"time":338.6249999999995,"velocity":0.7480314960629921,"duration":0.33749999999997726},{"name":"D4","midi":62,"time":338.6249999999995,"velocity":0.7480314960629921,"duration":0.33749999999997726},{"name":"A4","midi":69,"time":338.9999999999995,"velocity":0.7480314960629921,"duration":0.33749999999997726},{"name":"E4","midi":64,"time":338.9999999999995,"velocity":0.7480314960629921,"duration":0.33749999999997726},{"name":"A3","midi":57,"time":338.9999999999995,"velocity":0.7480314960629921,"duration":0.33749999999997726},{"name":"F#5","midi":78,"time":338.9999999999995,"velocity":0.7480314960629921,"duration":0.33749999999997726},{"name":"C#5","midi":73,"time":338.9999999999995,"velocity":0.7480314960629921,"duration":0.33749999999997726},{"name":"C#5","midi":73,"time":339.3749999999995,"velocity":0.7480314960629921,"duration":0.33749999999997726},{"name":"A4","midi":69,"time":339.3749999999995,"velocity":0.7480314960629921,"duration":0.33749999999997726},{"name":"E4","midi":64,"time":339.3749999999995,"velocity":0.7480314960629921,"duration":0.33749999999997726},{"name":"A3","midi":57,"time":339.3749999999995,"velocity":0.7480314960629921,"duration":0.33749999999997726},{"name":"F#5","midi":78,"time":339.3749999999995,"velocity":0.7480314960629921,"duration":0.33749999999997726},{"name":"E5","midi":76,"time":339.7499999999995,"velocity":0.7480314960629921,"duration":0.5062500000000227},{"name":"C#5","midi":73,"time":339.7499999999995,"velocity":0.7480314960629921,"duration":0.5062500000000227},{"name":"A4","midi":69,"time":339.7499999999995,"velocity":0.7480314960629921,"duration":0.5062500000000227},{"name":"E4","midi":64,"time":339.7499999999995,"velocity":0.7480314960629921,"duration":0.5062500000000227},{"name":"A3","midi":57,"time":339.7499999999995,"velocity":0.7480314960629921,"duration":0.5062500000000227},{"name":"A3","midi":57,"time":340.3124999999995,"velocity":0.7480314960629921,"duration":0.16874999999998863},{"name":"C#5","midi":73,"time":340.3124999999995,"velocity":0.7480314960629921,"duration":0.16874999999998863},{"name":"E5","midi":76,"time":340.3124999999995,"velocity":0.7480314960629921,"duration":0.16874999999998863},{"name":"A4","midi":69,"time":340.3124999999995,"velocity":0.7480314960629921,"duration":0.16874999999998863},{"name":"E4","midi":64,"time":340.3124999999995,"velocity":0.7480314960629921,"duration":0.16874999999998863},{"name":"A3","midi":57,"time":340.4999999999995,"velocity":0.7480314960629921,"duration":0.33749999999997726},{"name":"C#5","midi":73,"time":340.4999999999995,"velocity":0.7480314960629921,"duration":0.33749999999997726},{"name":"A4","midi":69,"time":340.4999999999995,"velocity":0.7480314960629921,"duration":0.33749999999997726},{"name":"E4","midi":64,"time":340.4999999999995,"velocity":0.7480314960629921,"duration":0.33749999999997726},{"name":"F#5","midi":78,"time":340.4999999999995,"velocity":0.7480314960629921,"duration":0.33749999999997726},{"name":"F#5","midi":78,"time":340.8749999999995,"velocity":0.7480314960629921,"duration":0.33749999999997726},{"name":"C#5","midi":73,"time":340.8749999999995,"velocity":0.7480314960629921,"duration":0.33749999999997726},{"name":"A4","midi":69,"time":340.8749999999995,"velocity":0.7480314960629921,"duration":0.33749999999997726},{"name":"E4","midi":64,"time":340.8749999999995,"velocity":0.7480314960629921,"duration":0.33749999999997726},{"name":"A3","midi":57,"time":340.8749999999995,"velocity":0.7480314960629921,"duration":0.33749999999997726},{"name":"A3","midi":57,"time":341.2499999999995,"velocity":0.7480314960629921,"duration":0.5062500000000227},{"name":"E5","midi":76,"time":341.2499999999995,"velocity":0.7480314960629921,"duration":0.5062500000000227},{"name":"C#5","midi":73,"time":341.2499999999995,"velocity":0.7480314960629921,"duration":0.5062500000000227},{"name":"E4","midi":64,"time":341.2499999999995,"velocity":0.7480314960629921,"duration":0.5062500000000227},{"name":"A4","midi":69,"time":341.2499999999995,"velocity":0.7480314960629921,"duration":0.5062500000000227},{"name":"C#5","midi":73,"time":341.8124999999995,"velocity":0.7480314960629921,"duration":0.16874999999998863},{"name":"A4","midi":69,"time":341.8124999999995,"velocity":0.7480314960629921,"duration":0.16874999999998863},{"name":"E4","midi":64,"time":341.8124999999995,"velocity":0.7480314960629921,"duration":0.16874999999998863},{"name":"A3","midi":57,"time":341.8124999999995,"velocity":0.7480314960629921,"duration":0.16874999999998863},{"name":"E5","midi":76,"time":341.8124999999995,"velocity":0.7480314960629921,"duration":0.16874999999998863},{"name":"F#5","midi":78,"time":341.9999999999995,"velocity":0.7480314960629921,"duration":0.33749999999997726},{"name":"C#5","midi":73,"time":341.9999999999995,"velocity":0.7480314960629921,"duration":0.33749999999997726},{"name":"A4","midi":69,"time":341.9999999999995,"velocity":0.7480314960629921,"duration":0.33749999999997726},{"name":"E4","midi":64,"time":341.9999999999995,"velocity":0.7480314960629921,"duration":0.33749999999997726},{"name":"A3","midi":57,"time":341.9999999999995,"velocity":0.7480314960629921,"duration":0.33749999999997726},{"name":"A4","midi":69,"time":342.3749999999995,"velocity":0.7480314960629921,"duration":0.33749999999997726},{"name":"E4","midi":64,"time":342.3749999999995,"velocity":0.7480314960629921,"duration":0.33749999999997726},{"name":"A3","midi":57,"time":342.3749999999995,"velocity":0.7480314960629921,"duration":0.33749999999997726},{"name":"F#5","midi":78,"time":342.3749999999995,"velocity":0.7480314960629921,"duration":0.33749999999997726},{"name":"C#5","midi":73,"time":342.3749999999995,"velocity":0.7480314960629921,"duration":0.33749999999997726},{"name":"A4","midi":69,"time":342.7499999999995,"velocity":0.7480314960629921,"duration":0.5062500000000227},{"name":"A3","midi":57,"time":342.7499999999995,"velocity":0.7480314960629921,"duration":0.5062500000000227},{"name":"E5","midi":76,"time":342.7499999999995,"velocity":0.7480314960629921,"duration":0.5062500000000227},{"name":"C#5","midi":73,"time":342.7499999999995,"velocity":0.7480314960629921,"duration":0.5062500000000227},{"name":"E4","midi":64,"time":342.7499999999995,"velocity":0.7480314960629921,"duration":0.5062500000000227},{"name":"A3","midi":57,"time":343.3124999999995,"velocity":0.7480314960629921,"duration":0.16874999999998863},{"name":"E4","midi":64,"time":343.3124999999995,"velocity":0.7480314960629921,"duration":0.16874999999998863},{"name":"A4","midi":69,"time":343.3124999999995,"velocity":0.7480314960629921,"duration":0.16874999999998863},{"name":"E5","midi":76,"time":343.3124999999995,"velocity":0.7480314960629921,"duration":0.16874999999998863},{"name":"C#5","midi":73,"time":343.3124999999995,"velocity":0.7480314960629921,"duration":0.16874999999998863},{"name":"A4","midi":69,"time":343.4999999999995,"velocity":0.7480314960629921,"duration":0.33749999999997726},{"name":"E4","midi":64,"time":343.4999999999995,"velocity":0.7480314960629921,"duration":0.33749999999997726},{"name":"A3","midi":57,"time":343.4999999999995,"velocity":0.7480314960629921,"duration":0.33749999999997726},{"name":"F#5","midi":78,"time":343.4999999999995,"velocity":0.7480314960629921,"duration":0.33749999999997726},{"name":"C#5","midi":73,"time":343.4999999999995,"velocity":0.7480314960629921,"duration":0.33749999999997726},{"name":"E4","midi":64,"time":343.8749999999995,"velocity":0.7480314960629921,"duration":0.33749999999997726},{"name":"A4","midi":69,"time":343.8749999999995,"velocity":0.7480314960629921,"duration":0.33749999999997726},{"name":"C#5","midi":73,"time":343.8749999999995,"velocity":0.7480314960629921,"duration":0.33749999999997726},{"name":"F#5","midi":78,"time":343.8749999999995,"velocity":0.7480314960629921,"duration":0.33749999999997726},{"name":"A3","midi":57,"time":343.8749999999995,"velocity":0.7480314960629921,"duration":0.33749999999997726},{"name":"E5","midi":76,"time":344.2499999999995,"velocity":0.7480314960629921,"duration":0.5062500000000227},{"name":"C#5","midi":73,"time":344.2499999999995,"velocity":0.7480314960629921,"duration":0.5062500000000227},{"name":"E4","midi":64,"time":344.2499999999995,"velocity":0.7480314960629921,"duration":0.5062500000000227},{"name":"A3","midi":57,"time":344.2499999999995,"velocity":0.7480314960629921,"duration":0.5062500000000227},{"name":"A4","midi":69,"time":344.2499999999995,"velocity":0.7480314960629921,"duration":0.5062500000000227},{"name":"A3","midi":57,"time":344.8124999999995,"velocity":0.7480314960629921,"duration":0.16874999999998863},{"name":"E5","midi":76,"time":344.8124999999995,"velocity":0.7480314960629921,"duration":0.16874999999998863},{"name":"C#5","midi":73,"time":344.8124999999995,"velocity":0.7480314960629921,"duration":0.16874999999998863},{"name":"A4","midi":69,"time":344.8124999999995,"velocity":0.7480314960629921,"duration":0.16874999999998863},{"name":"E4","midi":64,"time":344.8124999999995,"velocity":0.7480314960629921,"duration":0.16874999999998863},{"name":"F#5","midi":78,"time":344.9999999999995,"velocity":0.7480314960629921,"duration":0.33749999999997726},{"name":"D5","midi":74,"time":344.9999999999995,"velocity":0.7480314960629921,"duration":0.33749999999997726},{"name":"A4","midi":69,"time":344.9999999999995,"velocity":0.7480314960629921,"duration":0.33749999999997726},{"name":"D4","midi":62,"time":344.9999999999995,"velocity":0.7480314960629921,"duration":0.33749999999997726},{"name":"D4","midi":62,"time":345.3749999999995,"velocity":0.7480314960629921,"duration":0.33749999999997726},{"name":"A4","midi":69,"time":345.3749999999995,"velocity":0.7480314960629921,"duration":0.33749999999997726},{"name":"D5","midi":74,"time":345.3749999999995,"velocity":0.7480314960629921,"duration":0.33749999999997726},{"name":"F#5","midi":78,"time":345.3749999999995,"velocity":0.7480314960629921,"duration":0.33749999999997726},{"name":"E5","midi":76,"time":345.7499999999995,"velocity":0.7480314960629921,"duration":0.5062500000000227},{"name":"D5","midi":74,"time":345.7499999999995,"velocity":0.7480314960629921,"duration":0.5062500000000227},{"name":"A4","midi":69,"time":345.7499999999995,"velocity":0.7480314960629921,"duration":0.5062500000000227},{"name":"D4","midi":62,"time":345.7499999999995,"velocity":0.7480314960629921,"duration":0.5062500000000227},{"name":"E5","midi":76,"time":346.3124999999995,"velocity":0.7480314960629921,"duration":0.16874999999998863},{"name":"D4","midi":62,"time":346.3124999999995,"velocity":0.7480314960629921,"duration":0.16874999999998863},{"name":"A4","midi":69,"time":346.3124999999995,"velocity":0.7480314960629921,"duration":0.16874999999998863},{"name":"D5","midi":74,"time":346.3124999999995,"velocity":0.7480314960629921,"duration":0.16874999999998863},{"name":"D4","midi":62,"time":346.4999999999995,"velocity":0.7480314960629921,"duration":0.33749999999997726},{"name":"A4","midi":69,"time":346.4999999999995,"velocity":0.7480314960629921,"duration":0.33749999999997726},{"name":"D5","midi":74,"time":346.4999999999995,"velocity":0.7480314960629921,"duration":0.33749999999997726},{"name":"F#5","midi":78,"time":346.4999999999995,"velocity":0.7480314960629921,"duration":0.33749999999997726},{"name":"F#5","midi":78,"time":346.8749999999995,"velocity":0.7480314960629921,"duration":0.33749999999997726},{"name":"D4","midi":62,"time":346.8749999999995,"velocity":0.7480314960629921,"duration":0.33749999999997726},{"name":"A4","midi":69,"time":346.8749999999995,"velocity":0.7480314960629921,"duration":0.33749999999997726},{"name":"D5","midi":74,"time":346.8749999999995,"velocity":0.7480314960629921,"duration":0.33749999999997726},{"name":"D4","midi":62,"time":347.2499999999995,"velocity":0.7480314960629921,"duration":0.5062500000000227},{"name":"D5","midi":74,"time":347.2499999999995,"velocity":0.7480314960629921,"duration":0.5062500000000227},{"name":"E5","midi":76,"time":347.2499999999995,"velocity":0.7480314960629921,"duration":0.5062500000000227},{"name":"A4","midi":69,"time":347.2499999999995,"velocity":0.7480314960629921,"duration":0.5062500000000227},{"name":"E5","midi":76,"time":347.8124999999995,"velocity":0.7480314960629921,"duration":0.16874999999998863},{"name":"A4","midi":69,"time":347.8124999999995,"velocity":0.7480314960629921,"duration":0.16874999999998863},{"name":"D4","midi":62,"time":347.8124999999995,"velocity":0.7480314960629921,"duration":0.16874999999998863},{"name":"D5","midi":74,"time":347.8124999999995,"velocity":0.7480314960629921,"duration":0.16874999999998863},{"name":"A4","midi":69,"time":347.9999999999995,"velocity":0.7480314960629921,"duration":0.33749999999997726},{"name":"D5","midi":74,"time":347.9999999999995,"velocity":0.7480314960629921,"duration":0.33749999999997726},{"name":"E5","midi":76,"time":347.9999999999995,"velocity":0.7480314960629921,"duration":0.33749999999997726},{"name":"D4","midi":62,"time":347.9999999999995,"velocity":0.7480314960629921,"duration":0.33749999999997726},{"name":"E5","midi":76,"time":348.3749999999995,"velocity":0.7480314960629921,"duration":0.33749999999997726},{"name":"D5","midi":74,"time":348.3749999999995,"velocity":0.7480314960629921,"duration":0.33749999999997726},{"name":"A4","midi":69,"time":348.3749999999995,"velocity":0.7480314960629921,"duration":0.33749999999997726},{"name":"D4","midi":62,"time":348.3749999999995,"velocity":0.7480314960629921,"duration":0.33749999999997726},{"name":"D4","midi":62,"time":348.7499999999995,"velocity":0.7480314960629921,"duration":0.5062500000000227},{"name":"E5","midi":76,"time":348.7499999999995,"velocity":0.7480314960629921,"duration":0.5062500000000227},{"name":"D5","midi":74,"time":348.7499999999995,"velocity":0.7480314960629921,"duration":0.5062500000000227},{"name":"A4","midi":69,"time":348.7499999999995,"velocity":0.7480314960629921,"duration":0.5062500000000227},{"name":"A4","midi":69,"time":349.3124999999995,"velocity":0.7480314960629921,"duration":0.16874999999998863},{"name":"E5","midi":76,"time":349.3124999999995,"velocity":0.7480314960629921,"duration":0.16874999999998863},{"name":"D5","midi":74,"time":349.3124999999995,"velocity":0.7480314960629921,"duration":0.16874999999998863},{"name":"D4","midi":62,"time":349.3124999999995,"velocity":0.7480314960629921,"duration":0.16874999999998863},{"name":"F#5","midi":78,"time":349.4999999999995,"velocity":0.7480314960629921,"duration":0.33749999999997726},{"name":"D5","midi":74,"time":349.4999999999995,"velocity":0.7480314960629921,"duration":0.33749999999997726},{"name":"D4","midi":62,"time":349.4999999999995,"velocity":0.7480314960629921,"duration":0.33749999999997726},{"name":"A4","midi":69,"time":349.4999999999995,"velocity":0.7480314960629921,"duration":0.33749999999997726},{"name":"F#5","midi":78,"time":349.8749999999995,"velocity":0.7480314960629921,"duration":0.33749999999997726},{"name":"D5","midi":74,"time":349.8749999999995,"velocity":0.7480314960629921,"duration":0.33749999999997726},{"name":"A4","midi":69,"time":349.8749999999995,"velocity":0.7480314960629921,"duration":0.33749999999997726},{"name":"D4","midi":62,"time":349.8749999999995,"velocity":0.7480314960629921,"duration":0.33749999999997726},{"name":"D4","midi":62,"time":350.2499999999995,"velocity":0.7480314960629921,"duration":0.5062500000000227},{"name":"E5","midi":76,"time":350.2499999999995,"velocity":0.7480314960629921,"duration":0.5062500000000227},{"name":"A4","midi":69,"time":350.2499999999995,"velocity":0.7480314960629921,"duration":0.5062500000000227},{"name":"D5","midi":74,"time":350.2499999999995,"velocity":0.7480314960629921,"duration":0.5062500000000227},{"name":"D4","midi":62,"time":350.8124999999995,"velocity":0.7480314960629921,"duration":0.16874999999998863},{"name":"A4","midi":69,"time":350.8124999999995,"velocity":0.7480314960629921,"duration":0.16874999999998863},{"name":"D5","midi":74,"time":350.8124999999995,"velocity":0.7480314960629921,"duration":0.16874999999998863},{"name":"E5","midi":76,"time":350.8124999999995,"velocity":0.7480314960629921,"duration":0.16874999999998863},{"name":"F#5","midi":78,"time":350.9999999999995,"velocity":0.7480314960629921,"duration":0.33749999999997726},{"name":"B3","midi":59,"time":350.9999999999995,"velocity":0.7480314960629921,"duration":0.33749999999997726},{"name":"F#4","midi":66,"time":350.9999999999995,"velocity":0.7480314960629921,"duration":0.33749999999997726},{"name":"B4","midi":71,"time":350.9999999999995,"velocity":0.7480314960629921,"duration":0.33749999999997726},{"name":"D5","midi":74,"time":350.9999999999995,"velocity":0.7480314960629921,"duration":0.33749999999997726},{"name":"B4","midi":71,"time":351.3749999999995,"velocity":0.7480314960629921,"duration":0.33749999999997726},{"name":"B3","midi":59,"time":351.3749999999995,"velocity":0.7480314960629921,"duration":0.33749999999997726},{"name":"F#4","midi":66,"time":351.3749999999995,"velocity":0.7480314960629921,"duration":0.33749999999997726},{"name":"D5","midi":74,"time":351.3749999999995,"velocity":0.7480314960629921,"duration":0.33749999999997726},{"name":"F#5","midi":78,"time":351.3749999999995,"velocity":0.7480314960629921,"duration":0.33749999999997726},{"name":"D5","midi":74,"time":351.7499999999995,"velocity":0.7480314960629921,"duration":0.5062500000000227},{"name":"F#4","midi":66,"time":351.7499999999995,"velocity":0.7480314960629921,"duration":0.5062500000000227},{"name":"E5","midi":76,"time":351.7499999999995,"velocity":0.7480314960629921,"duration":0.5062500000000227},{"name":"B3","midi":59,"time":351.7499999999995,"velocity":0.7480314960629921,"duration":0.5062500000000227},{"name":"B4","midi":71,"time":351.7499999999995,"velocity":0.7480314960629921,"duration":0.5062500000000227},{"name":"E5","midi":76,"time":352.3124999999995,"velocity":0.7480314960629921,"duration":0.16874999999998863},{"name":"D5","midi":74,"time":352.3124999999995,"velocity":0.7480314960629921,"duration":0.16874999999998863},{"name":"B4","midi":71,"time":352.3124999999995,"velocity":0.7480314960629921,"duration":0.16874999999998863},{"name":"F#4","midi":66,"time":352.3124999999995,"velocity":0.7480314960629921,"duration":0.16874999999998863},{"name":"B3","midi":59,"time":352.3124999999995,"velocity":0.7480314960629921,"duration":0.16874999999998863},{"name":"B3","midi":59,"time":352.4999999999995,"velocity":0.7480314960629921,"duration":0.33749999999997726},{"name":"F#4","midi":66,"time":352.4999999999995,"velocity":0.7480314960629921,"duration":0.33749999999997726},{"name":"B4","midi":71,"time":352.4999999999995,"velocity":0.7480314960629921,"duration":0.33749999999997726},{"name":"D5","midi":74,"time":352.4999999999995,"velocity":0.7480314960629921,"duration":0.33749999999997726},{"name":"F#5","midi":78,"time":352.4999999999995,"velocity":0.7480314960629921,"duration":0.33749999999997726},{"name":"B3","midi":59,"time":352.8749999999995,"velocity":0.7480314960629921,"duration":0.33749999999997726},{"name":"F#4","midi":66,"time":352.8749999999995,"velocity":0.7480314960629921,"duration":0.33749999999997726},{"name":"B4","midi":71,"time":352.8749999999995,"velocity":0.7480314960629921,"duration":0.33749999999997726},{"name":"D5","midi":74,"time":352.8749999999995,"velocity":0.7480314960629921,"duration":0.33749999999997726},{"name":"F#5","midi":78,"time":352.8749999999995,"velocity":0.7480314960629921,"duration":0.33749999999997726},{"name":"F#4","midi":66,"time":353.2499999999995,"velocity":0.7480314960629921,"duration":0.5062500000000227},{"name":"B4","midi":71,"time":353.2499999999995,"velocity":0.7480314960629921,"duration":0.5062500000000227},{"name":"D5","midi":74,"time":353.2499999999995,"velocity":0.7480314960629921,"duration":0.5062500000000227},{"name":"E5","midi":76,"time":353.2499999999995,"velocity":0.7480314960629921,"duration":0.5062500000000227},{"name":"B3","midi":59,"time":353.2499999999995,"velocity":0.7480314960629921,"duration":0.5062500000000227},{"name":"E5","midi":76,"time":353.8124999999995,"velocity":0.7480314960629921,"duration":0.16874999999998863},{"name":"B3","midi":59,"time":353.8124999999995,"velocity":0.7480314960629921,"duration":0.16874999999998863},{"name":"F#4","midi":66,"time":353.8124999999995,"velocity":0.7480314960629921,"duration":0.16874999999998863},{"name":"B4","midi":71,"time":353.8124999999995,"velocity":0.7480314960629921,"duration":0.16874999999998863},{"name":"D5","midi":74,"time":353.8124999999995,"velocity":0.7480314960629921,"duration":0.16874999999998863},{"name":"C#4","midi":61,"time":353.9999999999995,"velocity":0.7480314960629921,"duration":0.33749999999997726},{"name":"G#4","midi":68,"time":353.9999999999995,"velocity":0.7480314960629921,"duration":0.33749999999997726},{"name":"B4","midi":71,"time":353.9999999999995,"velocity":0.7480314960629921,"duration":0.33749999999997726},{"name":"F#5","midi":78,"time":353.9999999999995,"velocity":0.7480314960629921,"duration":0.33749999999997726},{"name":"B4","midi":71,"time":354.3749999999995,"velocity":0.7480314960629921,"duration":0.33749999999997726},{"name":"C#4","midi":61,"time":354.3749999999995,"velocity":0.7480314960629921,"duration":0.33749999999997726},{"name":"F#5","midi":78,"time":354.3749999999995,"velocity":0.7480314960629921,"duration":0.33749999999997726},{"name":"G#4","midi":68,"time":354.3749999999995,"velocity":0.7480314960629921,"duration":0.33749999999997726},{"name":"C#4","midi":61,"time":354.7499999999995,"velocity":0.7480314960629921,"duration":0.5062500000000227},{"name":"G#4","midi":68,"time":354.7499999999995,"velocity":0.7480314960629921,"duration":0.5062500000000227},{"name":"B4","midi":71,"time":354.7499999999995,"velocity":0.7480314960629921,"duration":0.5062500000000227},{"name":"E5","midi":76,"time":354.7499999999995,"velocity":0.7480314960629921,"duration":0.5062500000000227},{"name":"G#4","midi":68,"time":355.3124999999995,"velocity":0.7480314960629921,"duration":0.16874999999998863},{"name":"E5","midi":76,"time":355.3124999999995,"velocity":0.7480314960629921,"duration":0.16874999999998863},{"name":"B4","midi":71,"time":355.3124999999995,"velocity":0.7480314960629921,"duration":0.16874999999998863},{"name":"C#4","midi":61,"time":355.3124999999995,"velocity":0.7480314960629921,"duration":0.16874999999998863},{"name":"G#4","midi":68,"time":355.4999999999995,"velocity":0.7480314960629921,"duration":0.33749999999997726},{"name":"C#4","midi":61,"time":355.4999999999995,"velocity":0.7480314960629921,"duration":0.33749999999997726},{"name":"F#5","midi":78,"time":355.4999999999995,"velocity":0.7480314960629921,"duration":0.33749999999997726},{"name":"B4","midi":71,"time":355.4999999999995,"velocity":0.7480314960629921,"duration":0.33749999999997726},{"name":"C#4","midi":61,"time":355.8749999999995,"velocity":0.7480314960629921,"duration":0.33749999999997726},{"name":"B4","midi":71,"time":355.8749999999995,"velocity":0.7480314960629921,"duration":0.33749999999997726},{"name":"G#4","midi":68,"time":355.8749999999995,"velocity":0.7480314960629921,"duration":0.33749999999997726},{"name":"F#5","midi":78,"time":355.8749999999995,"velocity":0.7480314960629921,"duration":0.33749999999997726},{"name":"G#4","midi":68,"time":356.2499999999995,"velocity":0.7480314960629921,"duration":0.5062500000000227},{"name":"B4","midi":71,"time":356.2499999999995,"velocity":0.7480314960629921,"duration":0.5062500000000227},{"name":"E5","midi":76,"time":356.2499999999995,"velocity":0.7480314960629921,"duration":0.5062500000000227},{"name":"C#4","midi":61,"time":356.2499999999995,"velocity":0.7480314960629921,"duration":0.5062500000000227},{"name":"G#4","midi":68,"time":356.8124999999995,"velocity":0.7480314960629921,"duration":0.16874999999998863},{"name":"B4","midi":71,"time":356.8124999999995,"velocity":0.7480314960629921,"duration":0.16874999999998863},{"name":"E5","midi":76,"time":356.8124999999995,"velocity":0.7480314960629921,"duration":0.16874999999998863},{"name":"C#4","midi":61,"time":356.8124999999995,"velocity":0.7480314960629921,"duration":0.16874999999998863},{"name":"D4","midi":62,"time":356.9999999999995,"velocity":0.7480314960629921,"duration":0.33749999999997726},{"name":"A4","midi":69,"time":356.9999999999995,"velocity":0.7480314960629921,"duration":0.33749999999997726},{"name":"D5","midi":74,"time":356.9999999999995,"velocity":0.7480314960629921,"duration":0.33749999999997726},{"name":"F#5","midi":78,"time":356.9999999999995,"velocity":0.7480314960629921,"duration":0.33749999999997726},{"name":"A5","midi":81,"time":356.9999999999995,"velocity":0.7480314960629921,"duration":0.33749999999997726},{"name":"D5","midi":74,"time":357.3749999999995,"velocity":0.7480314960629921,"duration":0.33749999999997726},{"name":"F#5","midi":78,"time":357.3749999999995,"velocity":0.7480314960629921,"duration":0.33749999999997726},{"name":"A5","midi":81,"time":357.3749999999995,"velocity":0.7480314960629921,"duration":0.33749999999997726},{"name":"A4","midi":69,"time":357.3749999999995,"velocity":0.7480314960629921,"duration":0.33749999999997726},{"name":"D4","midi":62,"time":357.3749999999995,"velocity":0.7480314960629921,"duration":0.33749999999997726},{"name":"F#5","midi":78,"time":357.7499999999995,"velocity":0.7480314960629921,"duration":0.5062500000000227},{"name":"A5","midi":81,"time":357.7499999999995,"velocity":0.7480314960629921,"duration":0.5062500000000227},{"name":"D4","midi":62,"time":357.7499999999995,"velocity":0.7480314960629921,"duration":0.5062500000000227},{"name":"A4","midi":69,"time":357.7499999999995,"velocity":0.7480314960629921,"duration":0.5062500000000227},{"name":"D5","midi":74,"time":357.7499999999995,"velocity":0.7480314960629921,"duration":0.5062500000000227},{"name":"F#5","midi":78,"time":358.3124999999995,"velocity":0.7480314960629921,"duration":0.16874999999998863},{"name":"D4","midi":62,"time":358.3124999999995,"velocity":0.7480314960629921,"duration":0.16874999999998863},{"name":"A4","midi":69,"time":358.3124999999995,"velocity":0.7480314960629921,"duration":0.16874999999998863},{"name":"A5","midi":81,"time":358.3124999999995,"velocity":0.7480314960629921,"duration":0.16874999999998863},{"name":"D5","midi":74,"time":358.3124999999995,"velocity":0.7480314960629921,"duration":0.16874999999998863},{"name":"A5","midi":81,"time":358.4999999999995,"velocity":0.7480314960629921,"duration":0.33749999999997726},{"name":"D4","midi":62,"time":358.4999999999995,"velocity":0.7480314960629921,"duration":0.33749999999997726},{"name":"A4","midi":69,"time":358.4999999999995,"velocity":0.7480314960629921,"duration":0.33749999999997726},{"name":"D5","midi":74,"time":358.4999999999995,"velocity":0.7480314960629921,"duration":0.33749999999997726},{"name":"F#5","midi":78,"time":358.4999999999995,"velocity":0.7480314960629921,"duration":0.33749999999997726},{"name":"A4","midi":69,"time":358.8749999999995,"velocity":0.7480314960629921,"duration":0.33749999999997726},{"name":"D5","midi":74,"time":358.8749999999995,"velocity":0.7480314960629921,"duration":0.33749999999997726},{"name":"A5","midi":81,"time":358.8749999999995,"velocity":0.7480314960629921,"duration":0.33749999999997726},{"name":"F#5","midi":78,"time":358.8749999999995,"velocity":0.7480314960629921,"duration":0.33749999999997726},{"name":"D4","midi":62,"time":358.8749999999995,"velocity":0.7480314960629921,"duration":0.33749999999997726},{"name":"F#5","midi":78,"time":359.2499999999995,"velocity":0.7480314960629921,"duration":0.5062500000000227},{"name":"A5","midi":81,"time":359.2499999999995,"velocity":0.7480314960629921,"duration":0.5062500000000227},{"name":"D5","midi":74,"time":359.2499999999995,"velocity":0.7480314960629921,"duration":0.5062500000000227},{"name":"A4","midi":69,"time":359.2499999999995,"velocity":0.7480314960629921,"duration":0.5062500000000227},{"name":"D4","midi":62,"time":359.2499999999995,"velocity":0.7480314960629921,"duration":0.5062500000000227},{"name":"A4","midi":69,"time":359.8124999999995,"velocity":0.7480314960629921,"duration":0.16874999999998863},{"name":"D4","midi":62,"time":359.8124999999995,"velocity":0.7480314960629921,"duration":0.16874999999998863},{"name":"D5","midi":74,"time":359.8124999999995,"velocity":0.7480314960629921,"duration":0.16874999999998863},{"name":"A5","midi":81,"time":359.8124999999995,"velocity":0.7480314960629921,"duration":0.16874999999998863},{"name":"F#5","midi":78,"time":359.8124999999995,"velocity":0.7480314960629921,"duration":0.16874999999998863},{"name":"A4","midi":69,"time":359.9999999999995,"velocity":0.7480314960629921,"duration":0.33749999999997726},{"name":"D4","midi":62,"time":359.9999999999995,"velocity":0.7480314960629921,"duration":0.33749999999997726},{"name":"A5","midi":81,"time":359.9999999999995,"velocity":0.7480314960629921,"duration":0.33749999999997726},{"name":"F#5","midi":78,"time":359.9999999999995,"velocity":0.7480314960629921,"duration":0.33749999999997726},{"name":"D5","midi":74,"time":359.9999999999995,"velocity":0.7480314960629921,"duration":0.33749999999997726},{"name":"D4","midi":62,"time":360.3749999999995,"velocity":0.7480314960629921,"duration":0.33749999999997726},{"name":"A4","midi":69,"time":360.3749999999995,"velocity":0.7480314960629921,"duration":0.33749999999997726},{"name":"D5","midi":74,"time":360.3749999999995,"velocity":0.7480314960629921,"duration":0.33749999999997726},{"name":"F#5","midi":78,"time":360.3749999999995,"velocity":0.7480314960629921,"duration":0.33749999999997726},{"name":"A5","midi":81,"time":360.3749999999995,"velocity":0.7480314960629921,"duration":0.33749999999997726},{"name":"A4","midi":69,"time":360.7499999999995,"velocity":0.7480314960629921,"duration":0.5062500000000227},{"name":"A5","midi":81,"time":360.7499999999995,"velocity":0.7480314960629921,"duration":0.5062500000000227},{"name":"F#5","midi":78,"time":360.7499999999995,"velocity":0.7480314960629921,"duration":0.5062500000000227},{"name":"D5","midi":74,"time":360.7499999999995,"velocity":0.7480314960629921,"duration":0.5062500000000227},{"name":"D4","midi":62,"time":360.7499999999995,"velocity":0.7480314960629921,"duration":0.5062500000000227},{"name":"F#5","midi":78,"time":361.3124999999995,"velocity":0.7480314960629921,"duration":0.16874999999998863},{"name":"A5","midi":81,"time":361.3124999999995,"velocity":0.7480314960629921,"duration":0.16874999999998863},{"name":"D5","midi":74,"time":361.3124999999995,"velocity":0.7480314960629921,"duration":0.16874999999998863},{"name":"D4","midi":62,"time":361.3124999999995,"velocity":0.7480314960629921,"duration":0.16874999999998863},{"name":"A4","midi":69,"time":361.3124999999995,"velocity":0.7480314960629921,"duration":0.16874999999998863},{"name":"A5","midi":81,"time":361.4999999999995,"velocity":0.7480314960629921,"duration":0.33749999999997726},{"name":"D4","midi":62,"time":361.4999999999995,"velocity":0.7480314960629921,"duration":0.33749999999997726},{"name":"A4","midi":69,"time":361.4999999999995,"velocity":0.7480314960629921,"duration":0.33749999999997726},{"name":"D5","midi":74,"time":361.4999999999995,"velocity":0.7480314960629921,"duration":0.33749999999997726},{"name":"F#5","midi":78,"time":361.4999999999995,"velocity":0.7480314960629921,"duration":0.33749999999997726},{"name":"F#5","midi":78,"time":361.8749999999995,"velocity":0.7480314960629921,"duration":0.33749999999997726},{"name":"D5","midi":74,"time":361.8749999999995,"velocity":0.7480314960629921,"duration":0.33749999999997726},{"name":"D4","midi":62,"time":361.8749999999995,"velocity":0.7480314960629921,"duration":0.33749999999997726},{"name":"A4","midi":69,"time":361.8749999999995,"velocity":0.7480314960629921,"duration":0.33749999999997726},{"name":"A5","midi":81,"time":361.8749999999995,"velocity":0.7480314960629921,"duration":0.33749999999997726},{"name":"D5","midi":74,"time":362.2499999999995,"velocity":0.7480314960629921,"duration":0.5062500000000227},{"name":"F#5","midi":78,"time":362.2499999999995,"velocity":0.7480314960629921,"duration":0.5062500000000227},{"name":"A5","midi":81,"time":362.2499999999995,"velocity":0.7480314960629921,"duration":0.5062500000000227},{"name":"D4","midi":62,"time":362.2499999999995,"velocity":0.7480314960629921,"duration":0.5062500000000227},{"name":"A4","midi":69,"time":362.2499999999995,"velocity":0.7480314960629921,"duration":0.5062500000000227},{"name":"F#5","midi":78,"time":362.8124999999995,"velocity":0.7480314960629921,"duration":0.16874999999998863},{"name":"A5","midi":81,"time":362.8124999999995,"velocity":0.7480314960629921,"duration":0.16874999999998863},{"name":"A4","midi":69,"time":362.8124999999995,"velocity":0.7480314960629921,"duration":0.16874999999998863},{"name":"D5","midi":74,"time":362.8124999999995,"velocity":0.7480314960629921,"duration":0.16874999999998863},{"name":"D4","midi":62,"time":362.8124999999995,"velocity":0.7480314960629921,"duration":0.16874999999998863},{"name":"A3","midi":57,"time":362.9999999999995,"velocity":0.7480314960629921,"duration":0.33749999999997726},{"name":"A4","midi":69,"time":362.9999999999995,"velocity":0.7480314960629921,"duration":0.33749999999997726},{"name":"C#5","midi":73,"time":362.9999999999995,"velocity":0.7480314960629921,"duration":0.33749999999997726},{"name":"E4","midi":64,"time":362.9999999999995,"velocity":0.7480314960629921,"duration":0.33749999999997726},{"name":"C#5","midi":73,"time":363.3749999999995,"velocity":0.7480314960629921,"duration":0.33749999999997726},{"name":"A4","midi":69,"time":363.3749999999995,"velocity":0.7480314960629921,"duration":0.33749999999997726},{"name":"E4","midi":64,"time":363.3749999999995,"velocity":0.7480314960629921,"duration":0.33749999999997726},{"name":"A3","midi":57,"time":363.3749999999995,"velocity":0.7480314960629921,"duration":0.33749999999997726},{"name":"E4","midi":64,"time":363.7499999999995,"velocity":0.7480314960629921,"duration":0.33749999999997726},{"name":"A4","midi":69,"time":363.7499999999995,"velocity":0.7480314960629921,"duration":0.33749999999997726},{"name":"C#5","midi":73,"time":363.7499999999995,"velocity":0.7480314960629921,"duration":0.33749999999997726},{"name":"E5","midi":76,"time":363.7499999999995,"velocity":0.7480314960629921,"duration":0.33749999999997726},{"name":"A5","midi":81,"time":363.7499999999995,"velocity":0.7480314960629921,"duration":0.33749999999997726},{"name":"A3","midi":57,"time":363.7499999999995,"velocity":0.7480314960629921,"duration":0.33749999999997726},{"name":"C#5","midi":73,"time":364.1249999999995,"velocity":0.7480314960629921,"duration":0.33749999999997726},{"name":"A4","midi":69,"time":364.1249999999995,"velocity":0.7480314960629921,"duration":0.33749999999997726},{"name":"E4","midi":64,"time":364.1249999999995,"velocity":0.7480314960629921,"duration":0.33749999999997726},{"name":"A3","midi":57,"time":364.1249999999995,"velocity":0.7480314960629921,"duration":0.33749999999997726},{"name":"A4","midi":69,"time":364.4999999999995,"velocity":0.7480314960629921,"duration":0.33749999999997726},{"name":"E4","midi":64,"time":364.4999999999995,"velocity":0.7480314960629921,"duration":0.33749999999997726},{"name":"A3","midi":57,"time":364.4999999999995,"velocity":0.7480314960629921,"duration":0.33749999999997726},{"name":"C#5","midi":73,"time":364.4999999999995,"velocity":0.7480314960629921,"duration":0.33749999999997726},{"name":"A3","midi":57,"time":364.8749999999995,"velocity":0.7480314960629921,"duration":0.33749999999997726},{"name":"E4","midi":64,"time":364.8749999999995,"velocity":0.7480314960629921,"duration":0.33749999999997726},{"name":"A4","midi":69,"time":364.8749999999995,"velocity":0.7480314960629921,"duration":0.33749999999997726},{"name":"C#5","midi":73,"time":364.8749999999995,"velocity":0.7480314960629921,"duration":0.33749999999997726},{"name":"E5","midi":76,"time":364.8749999999995,"velocity":0.7480314960629921,"duration":0.33749999999997726},{"name":"A5","midi":81,"time":364.8749999999995,"velocity":0.7480314960629921,"duration":0.33749999999997726},{"name":"A3","midi":57,"time":365.2499999999995,"velocity":0.7480314960629921,"duration":0.33749999999997726},{"name":"E4","midi":64,"time":365.2499999999995,"velocity":0.7480314960629921,"duration":0.33749999999997726},{"name":"A4","midi":69,"time":365.2499999999995,"velocity":0.7480314960629921,"duration":0.33749999999997726},{"name":"A5","midi":81,"time":365.2499999999995,"velocity":0.7480314960629921,"duration":0.33749999999997726},{"name":"E5","midi":76,"time":365.2499999999995,"velocity":0.7480314960629921,"duration":0.33749999999997726},{"name":"C#5","midi":73,"time":365.2499999999995,"velocity":0.7480314960629921,"duration":0.33749999999997726},{"name":"A3","midi":57,"time":365.6249999999995,"velocity":0.7480314960629921,"duration":0.33749999999997726},{"name":"A4","midi":69,"time":365.6249999999995,"velocity":0.7480314960629921,"duration":0.33749999999997726},{"name":"C#5","midi":73,"time":365.6249999999995,"velocity":0.7480314960629921,"duration":0.33749999999997726},{"name":"E4","midi":64,"time":365.6249999999995,"velocity":0.7480314960629921,"duration":0.33749999999997726},{"name":"A4","midi":69,"time":365.9999999999995,"velocity":0.7480314960629921,"duration":0.33749999999997726},{"name":"A3","midi":57,"time":365.9999999999995,"velocity":0.7480314960629921,"duration":0.33749999999997726},{"name":"E4","midi":64,"time":365.9999999999995,"velocity":0.7480314960629921,"duration":0.33749999999997726},{"name":"C#5","midi":73,"time":365.9999999999995,"velocity":0.7480314960629921,"duration":0.33749999999997726},{"name":"C#5","midi":73,"time":366.3749999999995,"velocity":0.7480314960629921,"duration":0.33749999999997726},{"name":"E5","midi":76,"time":366.3749999999995,"velocity":0.7480314960629921,"duration":0.33749999999997726},{"name":"A5","midi":81,"time":366.3749999999995,"velocity":0.7480314960629921,"duration":0.33749999999997726},{"name":"A3","midi":57,"time":366.3749999999995,"velocity":0.7480314960629921,"duration":0.33749999999997726},{"name":"E4","midi":64,"time":366.3749999999995,"velocity":0.7480314960629921,"duration":0.33749999999997726},{"name":"A4","midi":69,"time":366.3749999999995,"velocity":0.7480314960629921,"duration":0.33749999999997726},{"name":"A4","midi":69,"time":366.7499999999995,"velocity":0.7480314960629921,"duration":0.33749999999997726},{"name":"A3","midi":57,"time":366.7499999999995,"velocity":0.7480314960629921,"duration":0.33749999999997726},{"name":"E4","midi":64,"time":366.7499999999995,"velocity":0.7480314960629921,"duration":0.33749999999997726},{"name":"C#5","midi":73,"time":366.7499999999995,"velocity":0.7480314960629921,"duration":0.33749999999997726},{"name":"E5","midi":76,"time":366.7499999999995,"velocity":0.7480314960629921,"duration":0.33749999999997726},{"name":"A5","midi":81,"time":366.7499999999995,"velocity":0.7480314960629921,"duration":0.33749999999997726},{"name":"A3","midi":57,"time":367.1249999999995,"velocity":0.7480314960629921,"duration":0.33749999999997726},{"name":"E4","midi":64,"time":367.1249999999995,"velocity":0.7480314960629921,"duration":0.33749999999997726},{"name":"A4","midi":69,"time":367.1249999999995,"velocity":0.7480314960629921,"duration":0.33749999999997726},{"name":"C#5","midi":73,"time":367.1249999999995,"velocity":0.7480314960629921,"duration":0.33749999999997726},{"name":"A3","midi":57,"time":367.4999999999995,"velocity":0.7480314960629921,"duration":0.33749999999997726},{"name":"E4","midi":64,"time":367.4999999999995,"velocity":0.7480314960629921,"duration":0.33749999999997726},{"name":"A4","midi":69,"time":367.4999999999995,"velocity":0.7480314960629921,"duration":0.33749999999997726},{"name":"C#5","midi":73,"time":367.4999999999995,"velocity":0.7480314960629921,"duration":0.33749999999997726},{"name":"E4","midi":64,"time":367.8749999999995,"velocity":0.7480314960629921,"duration":0.33749999999997726},{"name":"A5","midi":81,"time":367.8749999999995,"velocity":0.7480314960629921,"duration":0.33749999999997726},{"name":"E5","midi":76,"time":367.8749999999995,"velocity":0.7480314960629921,"duration":0.33749999999997726},{"name":"C#5","midi":73,"time":367.8749999999995,"velocity":0.7480314960629921,"duration":0.33749999999997726},{"name":"A4","midi":69,"time":367.8749999999995,"velocity":0.7480314960629921,"duration":0.33749999999997726},{"name":"A3","midi":57,"time":367.8749999999995,"velocity":0.7480314960629921,"duration":0.33749999999997726},{"name":"C#5","midi":73,"time":368.2499999999995,"velocity":0.7480314960629921,"duration":0.33749999999997726},{"name":"A3","midi":57,"time":368.2499999999995,"velocity":0.7480314960629921,"duration":0.33749999999997726},{"name":"E4","midi":64,"time":368.2499999999995,"velocity":0.7480314960629921,"duration":0.33749999999997726},{"name":"A4","midi":69,"time":368.2499999999995,"velocity":0.7480314960629921,"duration":0.33749999999997726},{"name":"E5","midi":76,"time":368.2499999999995,"velocity":0.7480314960629921,"duration":0.33749999999997726},{"name":"A5","midi":81,"time":368.2499999999995,"velocity":0.7480314960629921,"duration":0.33749999999997726},{"name":"C#5","midi":73,"time":368.6249999999995,"velocity":0.7480314960629921,"duration":0.33749999999997726},{"name":"E4","midi":64,"time":368.6249999999995,"velocity":0.7480314960629921,"duration":0.33749999999997726},{"name":"A3","midi":57,"time":368.6249999999995,"velocity":0.7480314960629921,"duration":0.33749999999997726},{"name":"A4","midi":69,"time":368.6249999999995,"velocity":0.7480314960629921,"duration":0.33749999999997726},{"name":"E5","midi":76,"time":368.9999999999995,"velocity":0.7480314960629921,"duration":0.33749999999997726},{"name":"E4","midi":64,"time":368.9999999999995,"velocity":0.7480314960629921,"duration":0.33749999999997726},{"name":"B4","midi":71,"time":368.9999999999995,"velocity":0.7480314960629921,"duration":0.33749999999997726},{"name":"A5","midi":81,"time":369.3749999999995,"velocity":0.7480314960629921,"duration":0.33749999999997726},{"name":"E4","midi":64,"time":369.3749999999995,"velocity":0.7480314960629921,"duration":0.33749999999997726},{"name":"B4","midi":71,"time":369.3749999999995,"velocity":0.7480314960629921,"duration":0.33749999999997726},{"name":"E5","midi":76,"time":369.3749999999995,"velocity":0.7480314960629921,"duration":0.33749999999997726},{"name":"E5","midi":76,"time":369.3749999999995,"velocity":0.7480314960629921,"duration":0.33749999999997726},{"name":"G#5","midi":80,"time":369.7499999999995,"velocity":0.7480314960629921,"duration":0.33749999999997726},{"name":"E4","midi":64,"time":369.7499999999995,"velocity":0.7480314960629921,"duration":0.33749999999997726},{"name":"E5","midi":76,"time":369.7499999999995,"velocity":0.7480314960629921,"duration":0.33749999999997726},{"name":"B4","midi":71,"time":369.7499999999995,"velocity":0.7480314960629921,"duration":0.33749999999997726},{"name":"E5","midi":76,"time":370.1249999999995,"velocity":0.7480314960629921,"duration":0.33749999999997726},{"name":"B4","midi":71,"time":370.1249999999995,"velocity":0.7480314960629921,"duration":0.33749999999997726},{"name":"E4","midi":64,"time":370.1249999999995,"velocity":0.7480314960629921,"duration":0.33749999999997726},{"name":"E4","midi":64,"time":370.4999999999995,"velocity":0.7480314960629921,"duration":0.33749999999997726},{"name":"B4","midi":71,"time":370.4999999999995,"velocity":0.7480314960629921,"duration":0.33749999999997726},{"name":"E5","midi":76,"time":370.4999999999995,"velocity":0.7480314960629921,"duration":0.33749999999997726},{"name":"B4","midi":71,"time":370.8749999999995,"velocity":0.7480314960629921,"duration":0.33749999999997726},{"name":"E4","midi":64,"time":370.8749999999995,"velocity":0.7480314960629921,"duration":0.33749999999997726},{"name":"G#5","midi":80,"time":370.8749999999995,"velocity":0.7480314960629921,"duration":0.33749999999997726},{"name":"E5","midi":76,"time":370.8749999999995,"velocity":0.7480314960629921,"duration":0.33749999999997726},{"name":"G#5","midi":80,"time":371.2499999999995,"velocity":0.7480314960629921,"duration":0.33749999999997726},{"name":"E5","midi":76,"time":371.2499999999995,"velocity":0.7480314960629921,"duration":0.33749999999997726},{"name":"B4","midi":71,"time":371.2499999999995,"velocity":0.7480314960629921,"duration":0.33749999999997726},{"name":"E4","midi":64,"time":371.2499999999995,"velocity":0.7480314960629921,"duration":0.33749999999997726},{"name":"E4","midi":64,"time":371.6249999999995,"velocity":0.7480314960629921,"duration":0.33749999999997726},{"name":"E5","midi":76,"time":371.6249999999995,"velocity":0.7480314960629921,"duration":0.33749999999997726},{"name":"B4","midi":71,"time":371.6249999999995,"velocity":0.7480314960629921,"duration":0.33749999999997726},{"name":"E4","midi":64,"time":371.9999999999995,"velocity":0.7480314960629921,"duration":0.33749999999997726},{"name":"B4","midi":71,"time":371.9999999999995,"velocity":0.7480314960629921,"duration":0.33749999999997726},{"name":"E5","midi":76,"time":371.9999999999995,"velocity":0.7480314960629921,"duration":0.33749999999997726},{"name":"B4","midi":71,"time":372.3749999999995,"velocity":0.7480314960629921,"duration":0.33749999999997726},{"name":"E5","midi":76,"time":372.3749999999995,"velocity":0.7480314960629921,"duration":0.33749999999997726},{"name":"G#5","midi":80,"time":372.3749999999995,"velocity":0.7480314960629921,"duration":0.33749999999997726},{"name":"E4","midi":64,"time":372.3749999999995,"velocity":0.7480314960629921,"duration":0.33749999999997726},{"name":"E5","midi":76,"time":372.7499999999995,"velocity":0.7480314960629921,"duration":0.33749999999997726},{"name":"G#5","midi":80,"time":372.7499999999995,"velocity":0.7480314960629921,"duration":0.33749999999997726},{"name":"B4","midi":71,"time":372.7499999999995,"velocity":0.7480314960629921,"duration":0.33749999999997726},{"name":"E4","midi":64,"time":372.7499999999995,"velocity":0.7480314960629921,"duration":0.33749999999997726},{"name":"E5","midi":76,"time":373.1249999999995,"velocity":0.7480314960629921,"duration":0.33749999999997726},{"name":"B4","midi":71,"time":373.1249999999995,"velocity":0.7480314960629921,"duration":0.33749999999997726},{"name":"E4","midi":64,"time":373.1249999999995,"velocity":0.7480314960629921,"duration":0.33749999999997726},{"name":"E4","midi":64,"time":373.4999999999995,"velocity":0.7480314960629921,"duration":0.33749999999997726},{"name":"B4","midi":71,"time":373.4999999999995,"velocity":0.7480314960629921,"duration":0.33749999999997726},{"name":"E5","midi":76,"time":373.4999999999995,"velocity":0.7480314960629921,"duration":0.33749999999997726},{"name":"E5","midi":76,"time":373.8749999999995,"velocity":0.7480314960629921,"duration":0.33749999999997726},{"name":"E4","midi":64,"time":373.8749999999995,"velocity":0.7480314960629921,"duration":0.33749999999997726},{"name":"B4","midi":71,"time":373.8749999999995,"velocity":0.7480314960629921,"duration":0.33749999999997726},{"name":"G#5","midi":80,"time":373.8749999999995,"velocity":0.7480314960629921,"duration":0.33749999999997726},{"name":"E4","midi":64,"time":374.2499999999995,"velocity":0.7480314960629921,"duration":0.33749999999997726},{"name":"B4","midi":71,"time":374.2499999999995,"velocity":0.7480314960629921,"duration":0.33749999999997726},{"name":"E5","midi":76,"time":374.2499999999995,"velocity":0.7480314960629921,"duration":0.33749999999997726},{"name":"G#5","midi":80,"time":374.2499999999995,"velocity":0.7480314960629921,"duration":0.33749999999997726},{"name":"E5","midi":76,"time":374.6249999999995,"velocity":0.7480314960629921,"duration":0.33749999999997726},{"name":"B4","midi":71,"time":374.6249999999995,"velocity":0.7480314960629921,"duration":0.33749999999997726},{"name":"E4","midi":64,"time":374.6249999999995,"velocity":0.7480314960629921,"duration":0.33749999999997726},{"name":"A4","midi":69,"time":374.9999999999995,"velocity":0.7480314960629921,"duration":0.33749999999997726},{"name":"D5","midi":74,"time":374.9999999999995,"velocity":0.7480314960629921,"duration":0.33749999999997726},{"name":"B3","midi":59,"time":374.9999999999995,"velocity":0.7480314960629921,"duration":0.33749999999997726},{"name":"F#4","midi":66,"time":374.9999999999995,"velocity":0.7480314960629921,"duration":0.33749999999997726},{"name":"D5","midi":74,"time":375.3749999999995,"velocity":0.7480314960629921,"duration":0.33749999999997726},{"name":"A4","midi":69,"time":375.3749999999995,"velocity":0.7480314960629921,"duration":0.33749999999997726},{"name":"F#4","midi":66,"time":375.3749999999995,"velocity":0.7480314960629921,"duration":0.33749999999997726},{"name":"B3","midi":59,"time":375.3749999999995,"velocity":0.7480314960629921,"duration":0.33749999999997726},{"name":"B3","midi":59,"time":375.7499999999995,"velocity":0.7480314960629921,"duration":0.33749999999997726},{"name":"A4","midi":69,"time":375.7499999999995,"velocity":0.7480314960629921,"duration":0.33749999999997726},{"name":"F#4","midi":66,"time":375.7499999999995,"velocity":0.7480314960629921,"duration":0.33749999999997726},{"name":"F#5","midi":78,"time":375.7499999999995,"velocity":0.7480314960629921,"duration":0.33749999999997726},{"name":"D5","midi":74,"time":375.7499999999995,"velocity":0.7480314960629921,"duration":0.33749999999997726},{"name":"F#4","midi":66,"time":376.1249999999995,"velocity":0.7480314960629921,"duration":0.33749999999997726},{"name":"A4","midi":69,"time":376.1249999999995,"velocity":0.7480314960629921,"duration":0.33749999999997726},{"name":"D5","midi":74,"time":376.1249999999995,"velocity":0.7480314960629921,"duration":0.33749999999997726},{"name":"B3","midi":59,"time":376.1249999999995,"velocity":0.7480314960629921,"duration":0.33749999999997726},{"name":"B3","midi":59,"time":376.4999999999995,"velocity":0.7480314960629921,"duration":0.33749999999997726},{"name":"F#4","midi":66,"time":376.4999999999995,"velocity":0.7480314960629921,"duration":0.33749999999997726},{"name":"D5","midi":74,"time":376.4999999999995,"velocity":0.7480314960629921,"duration":0.33749999999997726},{"name":"A4","midi":69,"time":376.4999999999995,"velocity":0.7480314960629921,"duration":0.33749999999997726},{"name":"F#5","midi":78,"time":376.8749999999995,"velocity":0.7480314960629921,"duration":0.33749999999997726},{"name":"B3","midi":59,"time":376.8749999999995,"velocity":0.7480314960629921,"duration":0.33749999999997726},{"name":"F#4","midi":66,"time":376.8749999999995,"velocity":0.7480314960629921,"duration":0.33749999999997726},{"name":"A4","midi":69,"time":376.8749999999995,"velocity":0.7480314960629921,"duration":0.33749999999997726},{"name":"D5","midi":74,"time":376.8749999999995,"velocity":0.7480314960629921,"duration":0.33749999999997726},{"name":"B3","midi":59,"time":377.2499999999995,"velocity":0.7480314960629921,"duration":0.33749999999997726},{"name":"F#4","midi":66,"time":377.2499999999995,"velocity":0.7480314960629921,"duration":0.33749999999997726},{"name":"A4","midi":69,"time":377.2499999999995,"velocity":0.7480314960629921,"duration":0.33749999999997726},{"name":"D5","midi":74,"time":377.2499999999995,"velocity":0.7480314960629921,"duration":0.33749999999997726},{"name":"F#5","midi":78,"time":377.2499999999995,"velocity":0.7480314960629921,"duration":0.33749999999997726},{"name":"D5","midi":74,"time":377.6249999999995,"velocity":0.7480314960629921,"duration":0.33749999999997726},{"name":"B3","midi":59,"time":377.6249999999995,"velocity":0.7480314960629921,"duration":0.33749999999997726},{"name":"F#4","midi":66,"time":377.6249999999995,"velocity":0.7480314960629921,"duration":0.33749999999997726},{"name":"A4","midi":69,"time":377.6249999999995,"velocity":0.7480314960629921,"duration":0.33749999999997726},{"name":"D5","midi":74,"time":377.9999999999995,"velocity":0.7480314960629921,"duration":0.33749999999997726},{"name":"B3","midi":59,"time":377.9999999999995,"velocity":0.7480314960629921,"duration":0.33749999999997726},{"name":"F#4","midi":66,"time":377.9999999999995,"velocity":0.7480314960629921,"duration":0.33749999999997726},{"name":"A4","midi":69,"time":377.9999999999995,"velocity":0.7480314960629921,"duration":0.33749999999997726},{"name":"F#5","midi":78,"time":378.3749999999995,"velocity":0.7480314960629921,"duration":0.33749999999997726},{"name":"B3","midi":59,"time":378.3749999999995,"velocity":0.7480314960629921,"duration":0.33749999999997726},{"name":"F#4","midi":66,"time":378.3749999999995,"velocity":0.7480314960629921,"duration":0.33749999999997726},{"name":"A4","midi":69,"time":378.3749999999995,"velocity":0.7480314960629921,"duration":0.33749999999997726},{"name":"D5","midi":74,"time":378.3749999999995,"velocity":0.7480314960629921,"duration":0.33749999999997726},{"name":"D5","midi":74,"time":378.7499999999995,"velocity":0.7480314960629921,"duration":0.33749999999997726},{"name":"B3","midi":59,"time":378.7499999999995,"velocity":0.7480314960629921,"duration":0.33749999999997726},{"name":"F#4","midi":66,"time":378.7499999999995,"velocity":0.7480314960629921,"duration":0.33749999999997726},{"name":"A4","midi":69,"time":378.7499999999995,"velocity":0.7480314960629921,"duration":0.33749999999997726},{"name":"F#5","midi":78,"time":378.7499999999995,"velocity":0.7480314960629921,"duration":0.33749999999997726},{"name":"A4","midi":69,"time":379.1249999999995,"velocity":0.7480314960629921,"duration":0.33749999999997726},{"name":"F#4","midi":66,"time":379.1249999999995,"velocity":0.7480314960629921,"duration":0.33749999999997726},{"name":"B3","midi":59,"time":379.1249999999995,"velocity":0.7480314960629921,"duration":0.33749999999997726},{"name":"D5","midi":74,"time":379.1249999999995,"velocity":0.7480314960629921,"duration":0.33749999999997726},{"name":"B3","midi":59,"time":379.4999999999995,"velocity":0.7480314960629921,"duration":0.33749999999997726},{"name":"F#4","midi":66,"time":379.4999999999995,"velocity":0.7480314960629921,"duration":0.33749999999997726},{"name":"A4","midi":69,"time":379.4999999999995,"velocity":0.7480314960629921,"duration":0.33749999999997726},{"name":"D5","midi":74,"time":379.4999999999995,"velocity":0.7480314960629921,"duration":0.33749999999997726},{"name":"F#5","midi":78,"time":379.8749999999995,"velocity":0.7480314960629921,"duration":0.33749999999997726},{"name":"D5","midi":74,"time":379.8749999999995,"velocity":0.7480314960629921,"duration":0.33749999999997726},{"name":"A4","midi":69,"time":379.8749999999995,"velocity":0.7480314960629921,"duration":0.33749999999997726},{"name":"F#4","midi":66,"time":379.8749999999995,"velocity":0.7480314960629921,"duration":0.33749999999997726},{"name":"B3","midi":59,"time":379.8749999999995,"velocity":0.7480314960629921,"duration":0.33749999999997726},{"name":"B3","midi":59,"time":380.2499999999995,"velocity":0.7480314960629921,"duration":0.33749999999997726},{"name":"F#5","midi":78,"time":380.2499999999995,"velocity":0.7480314960629921,"duration":0.33749999999997726},{"name":"D5","midi":74,"time":380.2499999999995,"velocity":0.7480314960629921,"duration":0.33749999999997726},{"name":"A4","midi":69,"time":380.2499999999995,"velocity":0.7480314960629921,"duration":0.33749999999997726},{"name":"F#4","midi":66,"time":380.2499999999995,"velocity":0.7480314960629921,"duration":0.33749999999997726},{"name":"F#4","midi":66,"time":380.6249999999995,"velocity":0.7480314960629921,"duration":0.33749999999997726},{"name":"A4","midi":69,"time":380.6249999999995,"velocity":0.7480314960629921,"duration":0.33749999999997726},{"name":"D5","midi":74,"time":380.6249999999995,"velocity":0.7480314960629921,"duration":0.33749999999997726},{"name":"B3","midi":59,"time":380.6249999999995,"velocity":0.7480314960629921,"duration":0.33749999999997726},{"name":"A4","midi":69,"time":380.9999999999995,"velocity":0.7480314960629921,"duration":0.33749999999997726},{"name":"D4","midi":62,"time":380.9999999999995,"velocity":0.7480314960629921,"duration":0.33749999999997726},{"name":"C#5","midi":73,"time":380.9999999999995,"velocity":0.7480314960629921,"duration":0.33749999999997726},{"name":"D4","midi":62,"time":381.3749999999995,"velocity":0.7480314960629921,"duration":0.33749999999997726},{"name":"A4","midi":69,"time":381.3749999999995,"velocity":0.7480314960629921,"duration":0.33749999999997726},{"name":"C#5","midi":73,"time":381.3749999999995,"velocity":0.7480314960629921,"duration":0.33749999999997726},{"name":"F#5","midi":78,"time":381.3749999999995,"velocity":0.7480314960629921,"duration":0.33749999999997726},{"name":"D5","midi":74,"time":381.3749999999995,"velocity":0.7480314960629921,"duration":0.33749999999997726},{"name":"D4","midi":62,"time":381.7499999999995,"velocity":0.7480314960629921,"duration":0.33749999999997726},{"name":"A4","midi":69,"time":381.7499999999995,"velocity":0.7480314960629921,"duration":0.33749999999997726},{"name":"C#5","midi":73,"time":381.7499999999995,"velocity":0.7480314960629921,"duration":0.33749999999997726},{"name":"F#5","midi":78,"time":381.7499999999995,"velocity":0.7480314960629921,"duration":0.33749999999997726},{"name":"C#5","midi":73,"time":382.1249999999995,"velocity":0.7480314960629921,"duration":0.33749999999997726},{"name":"A4","midi":69,"time":382.1249999999995,"velocity":0.7480314960629921,"duration":0.33749999999997726},{"name":"D4","midi":62,"time":382.1249999999995,"velocity":0.7480314960629921,"duration":0.33749999999997726},{"name":"D4","midi":62,"time":382.4999999999995,"velocity":0.7480314960629921,"duration":0.33749999999997726},{"name":"C#5","midi":73,"time":382.4999999999995,"velocity":0.7480314960629921,"duration":0.33749999999997726},{"name":"A4","midi":69,"time":382.4999999999995,"velocity":0.7480314960629921,"duration":0.33749999999997726},{"name":"C#5","midi":73,"time":382.8749999999995,"velocity":0.7480314960629921,"duration":0.33749999999997726},{"name":"D4","midi":62,"time":382.8749999999995,"velocity":0.7480314960629921,"duration":0.33749999999997726},{"name":"A4","midi":69,"time":382.8749999999995,"velocity":0.7480314960629921,"duration":0.33749999999997726},{"name":"F#5","midi":78,"time":382.8749999999995,"velocity":0.7480314960629921,"duration":0.33749999999997726},{"name":"C#5","midi":73,"time":383.2499999999995,"velocity":0.7480314960629921,"duration":0.33749999999997726},{"name":"F#5","midi":78,"time":383.2499999999995,"velocity":0.7480314960629921,"duration":0.33749999999997726},{"name":"A4","midi":69,"time":383.2499999999995,"velocity":0.7480314960629921,"duration":0.33749999999997726},{"name":"D4","midi":62,"time":383.2499999999995,"velocity":0.7480314960629921,"duration":0.33749999999997726},{"name":"A4","midi":69,"time":383.6249999999995,"velocity":0.7480314960629921,"duration":0.33749999999997726},{"name":"D4","midi":62,"time":383.6249999999995,"velocity":0.7480314960629921,"duration":0.33749999999997726},{"name":"C#5","midi":73,"time":383.6249999999995,"velocity":0.7480314960629921,"duration":0.33749999999997726},{"name":"C#5","midi":73,"time":383.9999999999995,"velocity":0.7480314960629921,"duration":0.33749999999997726},{"name":"A4","midi":69,"time":383.9999999999995,"velocity":0.7480314960629921,"duration":0.33749999999997726},{"name":"D4","midi":62,"time":383.9999999999995,"velocity":0.7480314960629921,"duration":0.33749999999997726},{"name":"C#5","midi":73,"time":384.3749999999995,"velocity":0.7480314960629921,"duration":0.33749999999997726},{"name":"D4","midi":62,"time":384.3749999999995,"velocity":0.7480314960629921,"duration":0.33749999999997726},{"name":"A4","midi":69,"time":384.3749999999995,"velocity":0.7480314960629921,"duration":0.33749999999997726},{"name":"F#5","midi":78,"time":384.3749999999995,"velocity":0.7480314960629921,"duration":0.33749999999997726},{"name":"F#5","midi":78,"time":384.7499999999995,"velocity":0.7480314960629921,"duration":0.33749999999997726},{"name":"A4","midi":69,"time":384.7499999999995,"velocity":0.7480314960629921,"duration":0.33749999999997726},{"name":"C#5","midi":73,"time":384.7499999999995,"velocity":0.7480314960629921,"duration":0.33749999999997726},{"name":"D4","midi":62,"time":384.7499999999995,"velocity":0.7480314960629921,"duration":0.33749999999997726},{"name":"A4","midi":69,"time":385.1249999999995,"velocity":0.7480314960629921,"duration":0.33749999999997726},{"name":"C#5","midi":73,"time":385.1249999999995,"velocity":0.7480314960629921,"duration":0.33749999999997726},{"name":"D4","midi":62,"time":385.1249999999995,"velocity":0.7480314960629921,"duration":0.33749999999997726},{"name":"C#5","midi":73,"time":385.4999999999995,"velocity":0.7480314960629921,"duration":0.33749999999997726},{"name":"D4","midi":62,"time":385.4999999999995,"velocity":0.7480314960629921,"duration":0.33749999999997726},{"name":"A4","midi":69,"time":385.4999999999995,"velocity":0.7480314960629921,"duration":0.33749999999997726},{"name":"D4","midi":62,"time":385.8749999999995,"velocity":0.7480314960629921,"duration":0.33749999999997726},{"name":"F#5","midi":78,"time":385.8749999999995,"velocity":0.7480314960629921,"duration":0.33749999999997726},{"name":"C#5","midi":73,"time":385.8749999999995,"velocity":0.7480314960629921,"duration":0.33749999999997726},{"name":"A4","midi":69,"time":385.8749999999995,"velocity":0.7480314960629921,"duration":0.33749999999997726},{"name":"A4","midi":69,"time":386.2499999999995,"velocity":0.7480314960629921,"duration":0.33749999999997726},{"name":"C#5","midi":73,"time":386.2499999999995,"velocity":0.7480314960629921,"duration":0.33749999999997726},{"name":"F#5","midi":78,"time":386.2499999999995,"velocity":0.7480314960629921,"duration":0.33749999999997726},{"name":"D4","midi":62,"time":386.2499999999995,"velocity":0.7480314960629921,"duration":0.33749999999997726},{"name":"C#5","midi":73,"time":386.6249999999995,"velocity":0.7480314960629921,"duration":0.33749999999997726},{"name":"A4","midi":69,"time":386.6249999999995,"velocity":0.7480314960629921,"duration":0.33749999999997726},{"name":"D4","midi":62,"time":386.6249999999995,"velocity":0.7480314960629921,"duration":0.33749999999997726},{"name":"A3","midi":57,"time":386.9999999999995,"velocity":0.7480314960629921,"duration":0.33749999999997726},{"name":"F#5","midi":78,"time":386.9999999999995,"velocity":0.7480314960629921,"duration":0.33749999999997726},{"name":"C#5","midi":73,"time":386.9999999999995,"velocity":0.7480314960629921,"duration":0.33749999999997726},{"name":"A4","midi":69,"time":386.9999999999995,"velocity":0.7480314960629921,"duration":0.33749999999997726},{"name":"E4","midi":64,"time":386.9999999999995,"velocity":0.7480314960629921,"duration":0.33749999999997726},{"name":"A3","midi":57,"time":387.3749999999995,"velocity":0.7480314960629921,"duration":0.33749999999997726},{"name":"E4","midi":64,"time":387.3749999999995,"velocity":0.7480314960629921,"duration":0.33749999999997726},{"name":"A4","midi":69,"time":387.3749999999995,"velocity":0.7480314960629921,"duration":0.33749999999997726},{"name":"C#5","midi":73,"time":387.3749999999995,"velocity":0.7480314960629921,"duration":0.33749999999997726},{"name":"F#5","midi":78,"time":387.3749999999995,"velocity":0.7480314960629921,"duration":0.33749999999997726},{"name":"C#5","midi":73,"time":387.7499999999995,"velocity":0.7480314960629921,"duration":0.5062500000000227},{"name":"E4","midi":64,"time":387.7499999999995,"velocity":0.7480314960629921,"duration":0.5062500000000227},{"name":"A4","midi":69,"time":387.7499999999995,"velocity":0.7480314960629921,"duration":0.5062500000000227},{"name":"A3","midi":57,"time":387.7499999999995,"velocity":0.7480314960629921,"duration":0.5062500000000227},{"name":"E5","midi":76,"time":387.7499999999995,"velocity":0.7480314960629921,"duration":0.5062500000000227},{"name":"E5","midi":76,"time":388.3124999999995,"velocity":0.7480314960629921,"duration":0.16874999999998863},{"name":"E4","midi":64,"time":388.3124999999995,"velocity":0.7480314960629921,"duration":0.16874999999998863},{"name":"A4","midi":69,"time":388.3124999999995,"velocity":0.7480314960629921,"duration":0.16874999999998863},{"name":"C#5","midi":73,"time":388.3124999999995,"velocity":0.7480314960629921,"duration":0.16874999999998863},{"name":"A3","midi":57,"time":388.3124999999995,"velocity":0.7480314960629921,"duration":0.16874999999998863},{"name":"A4","midi":69,"time":388.4999999999995,"velocity":0.7480314960629921,"duration":0.33749999999997726},{"name":"C#5","midi":73,"time":388.4999999999995,"velocity":0.7480314960629921,"duration":0.33749999999997726},{"name":"F#5","midi":78,"time":388.4999999999995,"velocity":0.7480314960629921,"duration":0.33749999999997726},{"name":"E4","midi":64,"time":388.4999999999995,"velocity":0.7480314960629921,"duration":0.33749999999997726},{"name":"A3","midi":57,"time":388.4999999999995,"velocity":0.7480314960629921,"duration":0.33749999999997726},{"name":"A3","midi":57,"time":388.8749999999995,"velocity":0.7480314960629921,"duration":0.33749999999997726},{"name":"E4","midi":64,"time":388.8749999999995,"velocity":0.7480314960629921,"duration":0.33749999999997726},{"name":"A4","midi":69,"time":388.8749999999995,"velocity":0.7480314960629921,"duration":0.33749999999997726},{"name":"C#5","midi":73,"time":388.8749999999995,"velocity":0.7480314960629921,"duration":0.33749999999997726},{"name":"F#5","midi":78,"time":388.8749999999995,"velocity":0.7480314960629921,"duration":0.33749999999997726},{"name":"A4","midi":69,"time":389.2499999999995,"velocity":0.7480314960629921,"duration":0.5062500000000227},{"name":"A3","midi":57,"time":389.2499999999995,"velocity":0.7480314960629921,"duration":0.5062500000000227},{"name":"E4","midi":64,"time":389.2499999999995,"velocity":0.7480314960629921,"duration":0.5062500000000227},{"name":"C#5","midi":73,"time":389.2499999999995,"velocity":0.7480314960629921,"duration":0.5062500000000227},{"name":"E5","midi":76,"time":389.2499999999995,"velocity":0.7480314960629921,"duration":0.5062500000000227},{"name":"A4","midi":69,"time":389.8124999999995,"velocity":0.7480314960629921,"duration":0.16874999999998863},{"name":"C#5","midi":73,"time":389.8124999999995,"velocity":0.7480314960629921,"duration":0.16874999999998863},{"name":"E5","midi":76,"time":389.8124999999995,"velocity":0.7480314960629921,"duration":0.16874999999998863},{"name":"A3","midi":57,"time":389.8124999999995,"velocity":0.7480314960629921,"duration":0.16874999999998863},{"name":"E4","midi":64,"time":389.8124999999995,"velocity":0.7480314960629921,"duration":0.16874999999998863},{"name":"E4","midi":64,"time":389.9999999999995,"velocity":0.7480314960629921,"duration":0.33749999999997726},{"name":"A4","midi":69,"time":389.9999999999995,"velocity":0.7480314960629921,"duration":0.33749999999997726},{"name":"F#5","midi":78,"time":389.9999999999995,"velocity":0.7480314960629921,"duration":0.33749999999997726},{"name":"C#5","midi":73,"time":389.9999999999995,"velocity":0.7480314960629921,"duration":0.33749999999997726},{"name":"A3","midi":57,"time":389.9999999999995,"velocity":0.7480314960629921,"duration":0.33749999999997726},{"name":"A4","midi":69,"time":390.3749999999995,"velocity":0.7480314960629921,"duration":0.33749999999997726},{"name":"C#5","midi":73,"time":390.3749999999995,"velocity":0.7480314960629921,"duration":0.33749999999997726},{"name":"E4","midi":64,"time":390.3749999999995,"velocity":0.7480314960629921,"duration":0.33749999999997726},{"name":"A3","midi":57,"time":390.3749999999995,"velocity":0.7480314960629921,"duration":0.33749999999997726},{"name":"F#5","midi":78,"time":390.3749999999995,"velocity":0.7480314960629921,"duration":0.33749999999997726},{"name":"E5","midi":76,"time":390.7499999999995,"velocity":0.7480314960629921,"duration":0.5062500000000227},{"name":"C#5","midi":73,"time":390.7499999999995,"velocity":0.7480314960629921,"duration":0.5062500000000227},{"name":"A4","midi":69,"time":390.7499999999995,"velocity":0.7480314960629921,"duration":0.5062500000000227},{"name":"E4","midi":64,"time":390.7499999999995,"velocity":0.7480314960629921,"duration":0.5062500000000227},{"name":"A3","midi":57,"time":390.7499999999995,"velocity":0.7480314960629921,"duration":0.5062500000000227},{"name":"C#5","midi":73,"time":391.3124999999995,"velocity":0.7480314960629921,"duration":0.16874999999998863},{"name":"E5","midi":76,"time":391.3124999999995,"velocity":0.7480314960629921,"duration":0.16874999999998863},{"name":"A4","midi":69,"time":391.3124999999995,"velocity":0.7480314960629921,"duration":0.16874999999998863},{"name":"E4","midi":64,"time":391.3124999999995,"velocity":0.7480314960629921,"duration":0.16874999999998863},{"name":"A3","midi":57,"time":391.3124999999995,"velocity":0.7480314960629921,"duration":0.16874999999998863},{"name":"A3","midi":57,"time":391.4999999999995,"velocity":0.7480314960629921,"duration":0.33749999999997726},{"name":"E4","midi":64,"time":391.4999999999995,"velocity":0.7480314960629921,"duration":0.33749999999997726},{"name":"A4","midi":69,"time":391.4999999999995,"velocity":0.7480314960629921,"duration":0.33749999999997726},{"name":"C#5","midi":73,"time":391.4999999999995,"velocity":0.7480314960629921,"duration":0.33749999999997726},{"name":"F#5","midi":78,"time":391.4999999999995,"velocity":0.7480314960629921,"duration":0.33749999999997726},{"name":"A3","midi":57,"time":391.8749999999995,"velocity":0.7480314960629921,"duration":0.33749999999997726},{"name":"E4","midi":64,"time":391.8749999999995,"velocity":0.7480314960629921,"duration":0.33749999999997726},{"name":"A4","midi":69,"time":391.8749999999995,"velocity":0.7480314960629921,"duration":0.33749999999997726},{"name":"C#5","midi":73,"time":391.8749999999995,"velocity":0.7480314960629921,"duration":0.33749999999997726},{"name":"F#5","midi":78,"time":391.8749999999995,"velocity":0.7480314960629921,"duration":0.33749999999997726},{"name":"E4","midi":64,"time":392.2499999999995,"velocity":0.7480314960629921,"duration":0.5062500000000227},{"name":"E5","midi":76,"time":392.2499999999995,"velocity":0.7480314960629921,"duration":0.5062500000000227},{"name":"C#5","midi":73,"time":392.2499999999995,"velocity":0.7480314960629921,"duration":0.5062500000000227},{"name":"A4","midi":69,"time":392.2499999999995,"velocity":0.7480314960629921,"duration":0.5062500000000227},{"name":"A3","midi":57,"time":392.2499999999995,"velocity":0.7480314960629921,"duration":0.5062500000000227},{"name":"A4","midi":69,"time":392.8124999999995,"velocity":0.7480314960629921,"duration":0.16874999999998863},{"name":"C#5","midi":73,"time":392.8124999999995,"velocity":0.7480314960629921,"duration":0.16874999999998863},{"name":"E5","midi":76,"time":392.8124999999995,"velocity":0.7480314960629921,"duration":0.16874999999998863},{"name":"A3","midi":57,"time":392.8124999999995,"velocity":0.7480314960629921,"duration":0.16874999999998863},{"name":"E4","midi":64,"time":392.8124999999995,"velocity":0.7480314960629921,"duration":0.16874999999998863},{"name":"F#5","midi":78,"time":392.9999999999995,"velocity":0.7480314960629921,"duration":0.33749999999997726},{"name":"D4","midi":62,"time":392.9999999999995,"velocity":0.7480314960629921,"duration":0.33749999999997726},{"name":"A4","midi":69,"time":392.9999999999995,"velocity":0.7480314960629921,"duration":0.33749999999997726},{"name":"D5","midi":74,"time":392.9999999999995,"velocity":0.7480314960629921,"duration":0.33749999999997726},{"name":"D4","midi":62,"time":393.3749999999995,"velocity":0.7480314960629921,"duration":0.33749999999997726},{"name":"D5","midi":74,"time":393.3749999999995,"velocity":0.7480314960629921,"duration":0.33749999999997726},{"name":"F#5","midi":78,"time":393.3749999999995,"velocity":0.7480314960629921,"duration":0.33749999999997726},{"name":"A4","midi":69,"time":393.3749999999995,"velocity":0.7480314960629921,"duration":0.33749999999997726},{"name":"D5","midi":74,"time":393.7499999999995,"velocity":0.7480314960629921,"duration":0.5062500000000227},{"name":"E5","midi":76,"time":393.7499999999995,"velocity":0.7480314960629921,"duration":0.5062500000000227},{"name":"D4","midi":62,"time":393.7499999999995,"velocity":0.7480314960629921,"duration":0.5062500000000227},{"name":"A4","midi":69,"time":393.7499999999995,"velocity":0.7480314960629921,"duration":0.5062500000000227},{"name":"E5","midi":76,"time":394.3124999999995,"velocity":0.7480314960629921,"duration":0.16874999999998863},{"name":"D5","midi":74,"time":394.3124999999995,"velocity":0.7480314960629921,"duration":0.16874999999998863},{"name":"A4","midi":69,"time":394.3124999999995,"velocity":0.7480314960629921,"duration":0.16874999999998863},{"name":"D4","midi":62,"time":394.3124999999995,"velocity":0.7480314960629921,"duration":0.16874999999998863},{"name":"D4","midi":62,"time":394.4999999999995,"velocity":0.7480314960629921,"duration":0.33749999999997726},{"name":"A4","midi":69,"time":394.4999999999995,"velocity":0.7480314960629921,"duration":0.33749999999997726},{"name":"D5","midi":74,"time":394.4999999999995,"velocity":0.7480314960629921,"duration":0.33749999999997726},{"name":"F#5","midi":78,"time":394.4999999999995,"velocity":0.7480314960629921,"duration":0.33749999999997726},{"name":"A4","midi":69,"time":394.8749999999995,"velocity":0.7480314960629921,"duration":0.33749999999997726},{"name":"F#5","midi":78,"time":394.8749999999995,"velocity":0.7480314960629921,"duration":0.33749999999997726},{"name":"D5","midi":74,"time":394.8749999999995,"velocity":0.7480314960629921,"duration":0.33749999999997726},{"name":"D4","midi":62,"time":394.8749999999995,"velocity":0.7480314960629921,"duration":0.33749999999997726},{"name":"D4","midi":62,"time":395.2499999999995,"velocity":0.7480314960629921,"duration":0.5062500000000227},{"name":"A4","midi":69,"time":395.2499999999995,"velocity":0.7480314960629921,"duration":0.5062500000000227},{"name":"D5","midi":74,"time":395.2499999999995,"velocity":0.7480314960629921,"duration":0.5062500000000227},{"name":"E5","midi":76,"time":395.2499999999995,"velocity":0.7480314960629921,"duration":0.5062500000000227},{"name":"E5","midi":76,"time":395.8124999999995,"velocity":0.7480314960629921,"duration":0.16874999999998863},{"name":"D5","midi":74,"time":395.8124999999995,"velocity":0.7480314960629921,"duration":0.16874999999998863},{"name":"D4","midi":62,"time":395.8124999999995,"velocity":0.7480314960629921,"duration":0.16874999999998863},{"name":"A4","midi":69,"time":395.8124999999995,"velocity":0.7480314960629921,"duration":0.16874999999998863},{"name":"E5","midi":76,"time":395.9999999999995,"velocity":0.7480314960629921,"duration":0.33749999999997726},{"name":"D5","midi":74,"time":395.9999999999995,"velocity":0.7480314960629921,"duration":0.33749999999997726},{"name":"A4","midi":69,"time":395.9999999999995,"velocity":0.7480314960629921,"duration":0.33749999999997726},{"name":"D4","midi":62,"time":395.9999999999995,"velocity":0.7480314960629921,"duration":0.33749999999997726},{"name":"E5","midi":76,"time":396.3749999999995,"velocity":0.7480314960629921,"duration":0.33749999999997726},{"name":"D4","midi":62,"time":396.3749999999995,"velocity":0.7480314960629921,"duration":0.33749999999997726},{"name":"A4","midi":69,"time":396.3749999999995,"velocity":0.7480314960629921,"duration":0.33749999999997726},{"name":"D5","midi":74,"time":396.3749999999995,"velocity":0.7480314960629921,"duration":0.33749999999997726},{"name":"A4","midi":69,"time":396.7499999999995,"velocity":0.7480314960629921,"duration":0.5062500000000227},{"name":"D4","midi":62,"time":396.7499999999995,"velocity":0.7480314960629921,"duration":0.5062500000000227},{"name":"E5","midi":76,"time":396.7499999999995,"velocity":0.7480314960629921,"duration":0.5062500000000227},{"name":"D5","midi":74,"time":396.7499999999995,"velocity":0.7480314960629921,"duration":0.5062500000000227},{"name":"D4","midi":62,"time":397.3124999999995,"velocity":0.7480314960629921,"duration":0.16874999999998863},{"name":"A4","midi":69,"time":397.3124999999995,"velocity":0.7480314960629921,"duration":0.16874999999998863},{"name":"D5","midi":74,"time":397.3124999999995,"velocity":0.7480314960629921,"duration":0.16874999999998863},{"name":"E5","midi":76,"time":397.3124999999995,"velocity":0.7480314960629921,"duration":0.16874999999998863},{"name":"F#5","midi":78,"time":397.4999999999995,"velocity":0.7480314960629921,"duration":0.33749999999997726},{"name":"D4","midi":62,"time":397.4999999999995,"velocity":0.7480314960629921,"duration":0.33749999999997726},{"name":"A4","midi":69,"time":397.4999999999995,"velocity":0.7480314960629921,"duration":0.33749999999997726},{"name":"D5","midi":74,"time":397.4999999999995,"velocity":0.7480314960629921,"duration":0.33749999999997726},{"name":"D5","midi":74,"time":397.8749999999995,"velocity":0.7480314960629921,"duration":0.33749999999997726},{"name":"F#5","midi":78,"time":397.8749999999995,"velocity":0.7480314960629921,"duration":0.33749999999997726},{"name":"A4","midi":69,"time":397.8749999999995,"velocity":0.7480314960629921,"duration":0.33749999999997726},{"name":"D4","midi":62,"time":397.8749999999995,"velocity":0.7480314960629921,"duration":0.33749999999997726},{"name":"A4","midi":69,"time":398.2499999999995,"velocity":0.7480314960629921,"duration":0.5062500000000227},{"name":"D5","midi":74,"time":398.2499999999995,"velocity":0.7480314960629921,"duration":0.5062500000000227},{"name":"E5","midi":76,"time":398.2499999999995,"velocity":0.7480314960629921,"duration":0.5062500000000227},{"name":"D4","midi":62,"time":398.2499999999995,"velocity":0.7480314960629921,"duration":0.5062500000000227},{"name":"E5","midi":76,"time":398.8124999999995,"velocity":0.7480314960629921,"duration":0.16874999999998863},{"name":"D5","midi":74,"time":398.8124999999995,"velocity":0.7480314960629921,"duration":0.16874999999998863},{"name":"A4","midi":69,"time":398.8124999999995,"velocity":0.7480314960629921,"duration":0.16874999999998863},{"name":"D4","midi":62,"time":398.8124999999995,"velocity":0.7480314960629921,"duration":0.16874999999998863},{"name":"B3","midi":59,"time":398.9999999999995,"velocity":0.7480314960629921,"duration":0.33749999999997726},{"name":"F#4","midi":66,"time":398.9999999999995,"velocity":0.7480314960629921,"duration":0.33749999999997726},{"name":"B4","midi":71,"time":398.9999999999995,"velocity":0.7480314960629921,"duration":0.33749999999997726},{"name":"D5","midi":74,"time":398.9999999999995,"velocity":0.7480314960629921,"duration":0.33749999999997726},{"name":"F#5","midi":78,"time":398.9999999999995,"velocity":0.7480314960629921,"duration":0.33749999999997726},{"name":"F#5","midi":78,"time":399.3749999999995,"velocity":0.7480314960629921,"duration":0.33749999999997726},{"name":"B3","midi":59,"time":399.3749999999995,"velocity":0.7480314960629921,"duration":0.33749999999997726},{"name":"F#4","midi":66,"time":399.3749999999995,"velocity":0.7480314960629921,"duration":0.33749999999997726},{"name":"B4","midi":71,"time":399.3749999999995,"velocity":0.7480314960629921,"duration":0.33749999999997726},{"name":"D5","midi":74,"time":399.3749999999995,"velocity":0.7480314960629921,"duration":0.33749999999997726},{"name":"E5","midi":76,"time":399.7499999999995,"velocity":0.7480314960629921,"duration":0.5062500000000227},{"name":"D5","midi":74,"time":399.7499999999995,"velocity":0.7480314960629921,"duration":0.5062500000000227},{"name":"B4","midi":71,"time":399.7499999999995,"velocity":0.7480314960629921,"duration":0.5062500000000227},{"name":"F#4","midi":66,"time":399.7499999999995,"velocity":0.7480314960629921,"duration":0.5062500000000227},{"name":"B3","midi":59,"time":399.7499999999995,"velocity":0.7480314960629921,"duration":0.5062500000000227},{"name":"D5","midi":74,"time":400.3124999999995,"velocity":0.7480314960629921,"duration":0.16874999999998863},{"name":"E5","midi":76,"time":400.3124999999995,"velocity":0.7480314960629921,"duration":0.16874999999998863},{"name":"F#4","midi":66,"time":400.3124999999995,"velocity":0.7480314960629921,"duration":0.16874999999998863},{"name":"B4","midi":71,"time":400.3124999999995,"velocity":0.7480314960629921,"duration":0.16874999999998863},{"name":"B3","midi":59,"time":400.3124999999995,"velocity":0.7480314960629921,"duration":0.16874999999998863},{"name":"B3","midi":59,"time":400.4999999999995,"velocity":0.7480314960629921,"duration":0.33749999999997726},{"name":"F#4","midi":66,"time":400.4999999999995,"velocity":0.7480314960629921,"duration":0.33749999999997726},{"name":"B4","midi":71,"time":400.4999999999995,"velocity":0.7480314960629921,"duration":0.33749999999997726},{"name":"D5","midi":74,"time":400.4999999999995,"velocity":0.7480314960629921,"duration":0.33749999999997726},{"name":"F#5","midi":78,"time":400.4999999999995,"velocity":0.7480314960629921,"duration":0.33749999999997726},{"name":"D5","midi":74,"time":400.8749999999995,"velocity":0.7480314960629921,"duration":0.33749999999997726},{"name":"B3","midi":59,"time":400.8749999999995,"velocity":0.7480314960629921,"duration":0.33749999999997726},{"name":"F#5","midi":78,"time":400.8749999999995,"velocity":0.7480314960629921,"duration":0.33749999999997726},{"name":"F#4","midi":66,"time":400.8749999999995,"velocity":0.7480314960629921,"duration":0.33749999999997726},{"name":"B4","midi":71,"time":400.8749999999995,"velocity":0.7480314960629921,"duration":0.33749999999997726},{"name":"E5","midi":76,"time":401.2499999999995,"velocity":0.7480314960629921,"duration":0.5062500000000227},{"name":"D5","midi":74,"time":401.2499999999995,"velocity":0.7480314960629921,"duration":0.5062500000000227},{"name":"B4","midi":71,"time":401.2499999999995,"velocity":0.7480314960629921,"duration":0.5062500000000227},{"name":"F#4","midi":66,"time":401.2499999999995,"velocity":0.7480314960629921,"duration":0.5062500000000227},{"name":"B3","midi":59,"time":401.2499999999995,"velocity":0.7480314960629921,"duration":0.5062500000000227},{"name":"F#4","midi":66,"time":401.8124999999995,"velocity":0.7480314960629921,"duration":0.16874999999998863},{"name":"B4","midi":71,"time":401.8124999999995,"velocity":0.7480314960629921,"duration":0.16874999999998863},{"name":"D5","midi":74,"time":401.8124999999995,"velocity":0.7480314960629921,"duration":0.16874999999998863},{"name":"E5","midi":76,"time":401.8124999999995,"velocity":0.7480314960629921,"duration":0.16874999999998863},{"name":"B3","midi":59,"time":401.8124999999995,"velocity":0.7480314960629921,"duration":0.16874999999998863},{"name":"F#5","midi":78,"time":401.9999999999995,"velocity":0.7480314960629921,"duration":0.33749999999997726},{"name":"C#4","midi":61,"time":401.9999999999995,"velocity":0.7480314960629921,"duration":0.33749999999997726},{"name":"G#4","midi":68,"time":401.9999999999995,"velocity":0.7480314960629921,"duration":0.33749999999997726},{"name":"B4","midi":71,"time":401.9999999999995,"velocity":0.7480314960629921,"duration":0.33749999999997726},{"name":"F#5","midi":78,"time":402.3749999999995,"velocity":0.7480314960629921,"duration":0.33749999999997726},{"name":"B4","midi":71,"time":402.3749999999995,"velocity":0.7480314960629921,"duration":0.33749999999997726},{"name":"G#4","midi":68,"time":402.3749999999995,"velocity":0.7480314960629921,"duration":0.33749999999997726},{"name":"C#4","midi":61,"time":402.3749999999995,"velocity":0.7480314960629921,"duration":0.33749999999997726},{"name":"G#4","midi":68,"time":402.7499999999995,"velocity":0.7480314960629921,"duration":0.5062500000000227},{"name":"B4","midi":71,"time":402.7499999999995,"velocity":0.7480314960629921,"duration":0.5062500000000227},{"name":"E5","midi":76,"time":402.7499999999995,"velocity":0.7480314960629921,"duration":0.5062500000000227},{"name":"C#4","midi":61,"time":402.7499999999995,"velocity":0.7480314960629921,"duration":0.5062500000000227},{"name":"G#4","midi":68,"time":403.3124999999995,"velocity":0.7480314960629921,"duration":0.16874999999998863},{"name":"E5","midi":76,"time":403.3124999999995,"velocity":0.7480314960629921,"duration":0.16874999999998863},{"name":"B4","midi":71,"time":403.3124999999995,"velocity":0.7480314960629921,"duration":0.16874999999998863},{"name":"C#4","midi":61,"time":403.3124999999995,"velocity":0.7480314960629921,"duration":0.16874999999998863},{"name":"B4","midi":71,"time":403.4999999999995,"velocity":0.7480314960629921,"duration":0.33749999999997726},{"name":"G#4","midi":68,"time":403.4999999999995,"velocity":0.7480314960629921,"duration":0.33749999999997726},{"name":"C#4","midi":61,"time":403.4999999999995,"velocity":0.7480314960629921,"duration":0.33749999999997726},{"name":"F#5","midi":78,"time":403.4999999999995,"velocity":0.7480314960629921,"duration":0.33749999999997726},{"name":"G#4","midi":68,"time":403.8749999999995,"velocity":0.7480314960629921,"duration":0.33749999999997726},{"name":"B4","midi":71,"time":403.8749999999995,"velocity":0.7480314960629921,"duration":0.33749999999997726},{"name":"F#5","midi":78,"time":403.8749999999995,"velocity":0.7480314960629921,"duration":0.33749999999997726},{"name":"C#4","midi":61,"time":403.8749999999995,"velocity":0.7480314960629921,"duration":0.33749999999997726},{"name":"G#4","midi":68,"time":404.2499999999995,"velocity":0.7480314960629921,"duration":0.5062500000000227},{"name":"B4","midi":71,"time":404.2499999999995,"velocity":0.7480314960629921,"duration":0.5062500000000227},{"name":"E5","midi":76,"time":404.2499999999995,"velocity":0.7480314960629921,"duration":0.5062500000000227},{"name":"C#4","midi":61,"time":404.2499999999995,"velocity":0.7480314960629921,"duration":0.5062500000000227},{"name":"E5","midi":76,"time":404.8124999999995,"velocity":0.7480314960629921,"duration":0.16874999999998863},{"name":"B4","midi":71,"time":404.8124999999995,"velocity":0.7480314960629921,"duration":0.16874999999998863},{"name":"G#4","midi":68,"time":404.8124999999995,"velocity":0.7480314960629921,"duration":0.16874999999998863},{"name":"C#4","midi":61,"time":404.8124999999995,"velocity":0.7480314960629921,"duration":0.16874999999998863},{"name":"A5","midi":81,"time":404.9999999999995,"velocity":0.7480314960629921,"duration":0.33749999999997726},{"name":"D4","midi":62,"time":404.9999999999995,"velocity":0.7480314960629921,"duration":0.33749999999997726},{"name":"F#5","midi":78,"time":404.9999999999995,"velocity":0.7480314960629921,"duration":0.33749999999997726},{"name":"D5","midi":74,"time":404.9999999999995,"velocity":0.7480314960629921,"duration":0.33749999999997726},{"name":"A4","midi":69,"time":404.9999999999995,"velocity":0.7480314960629921,"duration":0.33749999999997726},{"name":"A4","midi":69,"time":405.3749999999995,"velocity":0.7480314960629921,"duration":0.33749999999997726},{"name":"D4","midi":62,"time":405.3749999999995,"velocity":0.7480314960629921,"duration":0.33749999999997726},{"name":"A5","midi":81,"time":405.3749999999995,"velocity":0.7480314960629921,"duration":0.33749999999997726},{"name":"F#5","midi":78,"time":405.3749999999995,"velocity":0.7480314960629921,"duration":0.33749999999997726},{"name":"D5","midi":74,"time":405.3749999999995,"velocity":0.7480314960629921,"duration":0.33749999999997726},{"name":"D4","midi":62,"time":405.7499999999995,"velocity":0.7480314960629921,"duration":0.5062500000000227},{"name":"A4","midi":69,"time":405.7499999999995,"velocity":0.7480314960629921,"duration":0.5062500000000227},{"name":"D5","midi":74,"time":405.7499999999995,"velocity":0.7480314960629921,"duration":0.5062500000000227},{"name":"A5","midi":81,"time":405.7499999999995,"velocity":0.7480314960629921,"duration":0.5062500000000227},{"name":"F#5","midi":78,"time":405.7499999999995,"velocity":0.7480314960629921,"duration":0.5062500000000227},{"name":"D5","midi":74,"time":406.3124999999995,"velocity":0.7480314960629921,"duration":0.16874999999998863},{"name":"F#5","midi":78,"time":406.3124999999995,"velocity":0.7480314960629921,"duration":0.16874999999998863},{"name":"A5","midi":81,"time":406.3124999999995,"velocity":0.7480314960629921,"duration":0.16874999999998863},{"name":"D4","midi":62,"time":406.3124999999995,"velocity":0.7480314960629921,"duration":0.16874999999998863},{"name":"A4","midi":69,"time":406.3124999999995,"velocity":0.7480314960629921,"duration":0.16874999999998863},{"name":"D4","midi":62,"time":406.4999999999995,"velocity":0.7480314960629921,"duration":0.33749999999997726},{"name":"A5","midi":81,"time":406.4999999999995,"velocity":0.7480314960629921,"duration":0.33749999999997726},{"name":"A4","midi":69,"time":406.4999999999995,"velocity":0.7480314960629921,"duration":0.33749999999997726},{"name":"D5","midi":74,"time":406.4999999999995,"velocity":0.7480314960629921,"duration":0.33749999999997726},{"name":"F#5","midi":78,"time":406.4999999999995,"velocity":0.7480314960629921,"duration":0.33749999999997726},{"name":"D5","midi":74,"time":406.8749999999995,"velocity":0.7480314960629921,"duration":0.33749999999997726},{"name":"A4","midi":69,"time":406.8749999999995,"velocity":0.7480314960629921,"duration":0.33749999999997726},{"name":"D4","midi":62,"time":406.8749999999995,"velocity":0.7480314960629921,"duration":0.33749999999997726},{"name":"A5","midi":81,"time":406.8749999999995,"velocity":0.7480314960629921,"duration":0.33749999999997726},{"name":"F#5","midi":78,"time":406.8749999999995,"velocity":0.7480314960629921,"duration":0.33749999999997726},{"name":"A4","midi":69,"time":407.2499999999995,"velocity":0.7480314960629921,"duration":0.5062500000000227},{"name":"D5","midi":74,"time":407.2499999999995,"velocity":0.7480314960629921,"duration":0.5062500000000227},{"name":"A5","midi":81,"time":407.2499999999995,"velocity":0.7480314960629921,"duration":0.5062500000000227},{"name":"F#5","midi":78,"time":407.2499999999995,"velocity":0.7480314960629921,"duration":0.5062500000000227},{"name":"D4","midi":62,"time":407.2499999999995,"velocity":0.7480314960629921,"duration":0.5062500000000227},{"name":"A5","midi":81,"time":407.8124999999995,"velocity":0.7480314960629921,"duration":0.16874999999998863},{"name":"F#5","midi":78,"time":407.8124999999995,"velocity":0.7480314960629921,"duration":0.16874999999998863},{"name":"D5","midi":74,"time":407.8124999999995,"velocity":0.7480314960629921,"duration":0.16874999999998863},{"name":"A4","midi":69,"time":407.8124999999995,"velocity":0.7480314960629921,"duration":0.16874999999998863},{"name":"D4","midi":62,"time":407.8124999999995,"velocity":0.7480314960629921,"duration":0.16874999999998863},{"name":"A5","midi":81,"time":407.9999999999995,"velocity":0.7480314960629921,"duration":0.33749999999997726},{"name":"F#5","midi":78,"time":407.9999999999995,"velocity":0.7480314960629921,"duration":0.33749999999997726},{"name":"D5","midi":74,"time":407.9999999999995,"velocity":0.7480314960629921,"duration":0.33749999999997726},{"name":"D4","midi":62,"time":407.9999999999995,"velocity":0.7480314960629921,"duration":0.33749999999997726},{"name":"A4","midi":69,"time":407.9999999999995,"velocity":0.7480314960629921,"duration":0.33749999999997726},{"name":"A5","midi":81,"time":408.3749999999995,"velocity":0.7480314960629921,"duration":0.33749999999997726},{"name":"D4","midi":62,"time":408.3749999999995,"velocity":0.7480314960629921,"duration":0.33749999999997726},{"name":"F#5","midi":78,"time":408.3749999999995,"velocity":0.7480314960629921,"duration":0.33749999999997726},{"name":"D5","midi":74,"time":408.3749999999995,"velocity":0.7480314960629921,"duration":0.33749999999997726},{"name":"A4","midi":69,"time":408.3749999999995,"velocity":0.7480314960629921,"duration":0.33749999999997726},{"name":"D4","midi":62,"time":408.7499999999995,"velocity":0.7480314960629921,"duration":0.5062500000000227},{"name":"D5","midi":74,"time":408.7499999999995,"velocity":0.7480314960629921,"duration":0.5062500000000227},{"name":"F#5","midi":78,"time":408.7499999999995,"velocity":0.7480314960629921,"duration":0.5062500000000227},{"name":"A5","midi":81,"time":408.7499999999995,"velocity":0.7480314960629921,"duration":0.5062500000000227},{"name":"A4","midi":69,"time":408.7499999999995,"velocity":0.7480314960629921,"duration":0.5062500000000227},{"name":"D4","midi":62,"time":409.3124999999995,"velocity":0.7480314960629921,"duration":0.16874999999998863},{"name":"A4","midi":69,"time":409.3124999999995,"velocity":0.7480314960629921,"duration":0.16874999999998863},{"name":"D5","midi":74,"time":409.3124999999995,"velocity":0.7480314960629921,"duration":0.16874999999998863},{"name":"F#5","midi":78,"time":409.3124999999995,"velocity":0.7480314960629921,"duration":0.16874999999998863},{"name":"A5","midi":81,"time":409.3124999999995,"velocity":0.7480314960629921,"duration":0.16874999999998863},{"name":"D4","midi":62,"time":409.4999999999995,"velocity":0.7480314960629921,"duration":0.33749999999997726},{"name":"A4","midi":69,"time":409.4999999999995,"velocity":0.7480314960629921,"duration":0.33749999999997726},{"name":"D5","midi":74,"time":409.4999999999995,"velocity":0.7480314960629921,"duration":0.33749999999997726},{"name":"A5","midi":81,"time":409.4999999999995,"velocity":0.7480314960629921,"duration":0.33749999999997726},{"name":"F#5","midi":78,"time":409.4999999999995,"velocity":0.7480314960629921,"duration":0.33749999999997726},{"name":"D4","midi":62,"time":409.8749999999995,"velocity":0.7480314960629921,"duration":0.33749999999997726},{"name":"A4","midi":69,"time":409.8749999999995,"velocity":0.7480314960629921,"duration":0.33749999999997726},{"name":"D5","midi":74,"time":409.8749999999995,"velocity":0.7480314960629921,"duration":0.33749999999997726},{"name":"F#5","midi":78,"time":409.8749999999995,"velocity":0.7480314960629921,"duration":0.33749999999997726},{"name":"A5","midi":81,"time":409.8749999999995,"velocity":0.7480314960629921,"duration":0.33749999999997726},{"name":"A5","midi":81,"time":410.2499999999995,"velocity":0.7480314960629921,"duration":0.5062500000000227},{"name":"F#5","midi":78,"time":410.2499999999995,"velocity":0.7480314960629921,"duration":0.5062500000000227},{"name":"D5","midi":74,"time":410.2499999999995,"velocity":0.7480314960629921,"duration":0.5062500000000227},{"name":"A4","midi":69,"time":410.2499999999995,"velocity":0.7480314960629921,"duration":0.5062500000000227},{"name":"D4","midi":62,"time":410.2499999999995,"velocity":0.7480314960629921,"duration":0.5062500000000227},{"name":"A5","midi":81,"time":410.8124999999995,"velocity":0.7480314960629921,"duration":0.16874999999998863},{"name":"D4","midi":62,"time":410.8124999999995,"velocity":0.7480314960629921,"duration":0.16874999999998863},{"name":"A4","midi":69,"time":410.8124999999995,"velocity":0.7480314960629921,"duration":0.16874999999998863},{"name":"D5","midi":74,"time":410.8124999999995,"velocity":0.7480314960629921,"duration":0.16874999999998863},{"name":"F#5","midi":78,"time":410.8124999999995,"velocity":0.7480314960629921,"duration":0.16874999999998863},{"name":"A3","midi":57,"time":410.9999999999995,"velocity":0.7480314960629921,"duration":0.33749999999997726},{"name":"C#5","midi":73,"time":410.9999999999995,"velocity":0.7480314960629921,"duration":0.33749999999997726},{"name":"A4","midi":69,"time":410.9999999999995,"velocity":0.7480314960629921,"duration":0.33749999999997726},{"name":"E4","midi":64,"time":410.9999999999995,"velocity":0.7480314960629921,"duration":0.33749999999997726},{"name":"E4","midi":64,"time":411.3749999999995,"velocity":0.7480314960629921,"duration":0.33749999999997726},{"name":"A3","midi":57,"time":411.3749999999995,"velocity":0.7480314960629921,"duration":0.33749999999997726},{"name":"A4","midi":69,"time":411.3749999999995,"velocity":0.7480314960629921,"duration":0.33749999999997726},{"name":"C#5","midi":73,"time":411.3749999999995,"velocity":0.7480314960629921,"duration":0.33749999999997726},{"name":"A3","midi":57,"time":411.7499999999995,"velocity":0.7480314960629921,"duration":0.33749999999997726},{"name":"E4","midi":64,"time":411.7499999999995,"velocity":0.7480314960629921,"duration":0.33749999999997726},{"name":"A4","midi":69,"time":411.7499999999995,"velocity":0.7480314960629921,"duration":0.33749999999997726},{"name":"C#5","midi":73,"time":411.7499999999995,"velocity":0.7480314960629921,"duration":0.33749999999997726},{"name":"E5","midi":76,"time":411.7499999999995,"velocity":0.7480314960629921,"duration":0.33749999999997726},{"name":"A5","midi":81,"time":411.7499999999995,"velocity":0.7480314960629921,"duration":0.33749999999997726},{"name":"A4","midi":69,"time":412.1249999999995,"velocity":0.7480314960629921,"duration":0.33749999999997726},{"name":"C#5","midi":73,"time":412.1249999999995,"velocity":0.7480314960629921,"duration":0.33749999999997726},{"name":"E4","midi":64,"time":412.1249999999995,"velocity":0.7480314960629921,"duration":0.33749999999997726},{"name":"A3","midi":57,"time":412.1249999999995,"velocity":0.7480314960629921,"duration":0.33749999999997726},{"name":"A4","midi":69,"time":412.4999999999995,"velocity":0.7480314960629921,"duration":0.33749999999997726},{"name":"C#5","midi":73,"time":412.4999999999995,"velocity":0.7480314960629921,"duration":0.33749999999997726},{"name":"E4","midi":64,"time":412.4999999999995,"velocity":0.7480314960629921,"duration":0.33749999999997726},{"name":"A3","midi":57,"time":412.4999999999995,"velocity":0.7480314960629921,"duration":0.33749999999997726},{"name":"E4","midi":64,"time":412.8749999999995,"velocity":0.7480314960629921,"duration":0.33749999999997726},{"name":"C#5","midi":73,"time":412.8749999999995,"velocity":0.7480314960629921,"duration":0.33749999999997726},{"name":"E5","midi":76,"time":412.8749999999995,"velocity":0.7480314960629921,"duration":0.33749999999997726},{"name":"A5","midi":81,"time":412.8749999999995,"velocity":0.7480314960629921,"duration":0.33749999999997726},{"name":"A3","midi":57,"time":412.8749999999995,"velocity":0.7480314960629921,"duration":0.33749999999997726},{"name":"A4","midi":69,"time":412.8749999999995,"velocity":0.7480314960629921,"duration":0.33749999999997726},{"name":"A3","midi":57,"time":413.2499999999995,"velocity":0.7480314960629921,"duration":0.33749999999997726},{"name":"A5","midi":81,"time":413.2499999999995,"velocity":0.7480314960629921,"duration":0.33749999999997726},{"name":"E5","midi":76,"time":413.2499999999995,"velocity":0.7480314960629921,"duration":0.33749999999997726},{"name":"C#5","midi":73,"time":413.2499999999995,"velocity":0.7480314960629921,"duration":0.33749999999997726},{"name":"A4","midi":69,"time":413.2499999999995,"velocity":0.7480314960629921,"duration":0.33749999999997726},{"name":"E4","midi":64,"time":413.2499999999995,"velocity":0.7480314960629921,"duration":0.33749999999997726},{"name":"A3","midi":57,"time":413.6249999999995,"velocity":0.7480314960629921,"duration":0.33749999999997726},{"name":"E4","midi":64,"time":413.6249999999995,"velocity":0.7480314960629921,"duration":0.33749999999997726},{"name":"A4","midi":69,"time":413.6249999999995,"velocity":0.7480314960629921,"duration":0.33749999999997726},{"name":"C#5","midi":73,"time":413.6249999999995,"velocity":0.7480314960629921,"duration":0.33749999999997726},{"name":"C#5","midi":73,"time":413.9999999999995,"velocity":0.7480314960629921,"duration":0.33749999999997726},{"name":"A4","midi":69,"time":413.9999999999995,"velocity":0.7480314960629921,"duration":0.33749999999997726},{"name":"E4","midi":64,"time":413.9999999999995,"velocity":0.7480314960629921,"duration":0.33749999999997726},{"name":"A3","midi":57,"time":413.9999999999995,"velocity":0.7480314960629921,"duration":0.33749999999997726},{"name":"C#5","midi":73,"time":414.3749999999995,"velocity":0.7480314960629921,"duration":0.33749999999997726},{"name":"A3","midi":57,"time":414.3749999999995,"velocity":0.7480314960629921,"duration":0.33749999999997726},{"name":"E4","midi":64,"time":414.3749999999995,"velocity":0.7480314960629921,"duration":0.33749999999997726},{"name":"A4","midi":69,"time":414.3749999999995,"velocity":0.7480314960629921,"duration":0.33749999999997726},{"name":"E5","midi":76,"time":414.3749999999995,"velocity":0.7480314960629921,"duration":0.33749999999997726},{"name":"A5","midi":81,"time":414.3749999999995,"velocity":0.7480314960629921,"duration":0.33749999999997726},{"name":"A3","midi":57,"time":414.7499999999995,"velocity":0.7480314960629921,"duration":0.33749999999997726},{"name":"E4","midi":64,"time":414.7499999999995,"velocity":0.7480314960629921,"duration":0.33749999999997726},{"name":"A4","midi":69,"time":414.7499999999995,"velocity":0.7480314960629921,"duration":0.33749999999997726},{"name":"C#5","midi":73,"time":414.7499999999995,"velocity":0.7480314960629921,"duration":0.33749999999997726},{"name":"E5","midi":76,"time":414.7499999999995,"velocity":0.7480314960629921,"duration":0.33749999999997726},{"name":"A5","midi":81,"time":414.7499999999995,"velocity":0.7480314960629921,"duration":0.33749999999997726},{"name":"E4","midi":64,"time":415.1249999999995,"velocity":0.7480314960629921,"duration":0.33749999999997726},{"name":"C#5","midi":73,"time":415.1249999999995,"velocity":0.7480314960629921,"duration":0.33749999999997726},{"name":"A4","midi":69,"time":415.1249999999995,"velocity":0.7480314960629921,"duration":0.33749999999997726},{"name":"A3","midi":57,"time":415.1249999999995,"velocity":0.7480314960629921,"duration":0.33749999999997726},{"name":"A3","midi":57,"time":415.4999999999995,"velocity":0.7480314960629921,"duration":0.33749999999997726},{"name":"E4","midi":64,"time":415.4999999999995,"velocity":0.7480314960629921,"duration":0.33749999999997726},{"name":"A4","midi":69,"time":415.4999999999995,"velocity":0.7480314960629921,"duration":0.33749999999997726},{"name":"C#5","midi":73,"time":415.4999999999995,"velocity":0.7480314960629921,"duration":0.33749999999997726},{"name":"C#5","midi":73,"time":415.8749999999995,"velocity":0.7480314960629921,"duration":0.33749999999997726},{"name":"A4","midi":69,"time":415.8749999999995,"velocity":0.7480314960629921,"duration":0.33749999999997726},{"name":"E4","midi":64,"time":415.8749999999995,"velocity":0.7480314960629921,"duration":0.33749999999997726},{"name":"A3","midi":57,"time":415.8749999999995,"velocity":0.7480314960629921,"duration":0.33749999999997726},{"name":"A5","midi":81,"time":415.8749999999995,"velocity":0.7480314960629921,"duration":0.33749999999997726},{"name":"E5","midi":76,"time":415.8749999999995,"velocity":0.7480314960629921,"duration":0.33749999999997726},{"name":"A4","midi":69,"time":416.2499999999995,"velocity":0.7480314960629921,"duration":0.33749999999997726},{"name":"A5","midi":81,"time":416.2499999999995,"velocity":0.7480314960629921,"duration":0.33749999999997726},{"name":"E5","midi":76,"time":416.2499999999995,"velocity":0.7480314960629921,"duration":0.33749999999997726},{"name":"A3","midi":57,"time":416.2499999999995,"velocity":0.7480314960629921,"duration":0.33749999999997726},{"name":"E4","midi":64,"time":416.2499999999995,"velocity":0.7480314960629921,"duration":0.33749999999997726},{"name":"C#5","midi":73,"time":416.2499999999995,"velocity":0.7480314960629921,"duration":0.33749999999997726},{"name":"A4","midi":69,"time":416.6249999999995,"velocity":0.7480314960629921,"duration":0.33749999999997726},{"name":"A3","midi":57,"time":416.6249999999995,"velocity":0.7480314960629921,"duration":0.33749999999997726},{"name":"E4","midi":64,"time":416.6249999999995,"velocity":0.7480314960629921,"duration":0.33749999999997726},{"name":"C#5","midi":73,"time":416.6249999999995,"velocity":0.7480314960629921,"duration":0.33749999999997726},{"name":"A4","midi":69,"time":416.9999999999995,"velocity":0.7480314960629921,"duration":0.33749999999997726},{"name":"D5","midi":74,"time":416.9999999999995,"velocity":0.7480314960629921,"duration":0.33749999999997726},{"name":"F#5","midi":78,"time":416.9999999999995,"velocity":0.7480314960629921,"duration":0.33749999999997726},{"name":"D4","midi":62,"time":416.9999999999995,"velocity":0.7480314960629921,"duration":0.33749999999997726},{"name":"D4","midi":62,"time":417.3749999999995,"velocity":0.7480314960629921,"duration":0.33749999999997726},{"name":"F#5","midi":78,"time":417.3749999999995,"velocity":0.7480314960629921,"duration":0.33749999999997726},{"name":"D5","midi":74,"time":417.3749999999995,"velocity":0.7480314960629921,"duration":0.33749999999997726},{"name":"A4","midi":69,"time":417.3749999999995,"velocity":0.7480314960629921,"duration":0.33749999999997726},{"name":"E5","midi":76,"time":417.7499999999995,"velocity":0.7480314960629921,"duration":0.5062500000000227},{"name":"A4","midi":69,"time":417.7499999999995,"velocity":0.7480314960629921,"duration":0.5062500000000227},{"name":"D4","midi":62,"time":417.7499999999995,"velocity":0.7480314960629921,"duration":0.5062500000000227},{"name":"D5","midi":74,"time":417.7499999999995,"velocity":0.7480314960629921,"duration":0.5062500000000227},{"name":"D5","midi":74,"time":418.3124999999995,"velocity":0.7480314960629921,"duration":0.16874999999998863},{"name":"A4","midi":69,"time":418.3124999999995,"velocity":0.7480314960629921,"duration":0.16874999999998863},{"name":"E5","midi":76,"time":418.3124999999995,"velocity":0.7480314960629921,"duration":0.16874999999998863},{"name":"D4","midi":62,"time":418.3124999999995,"velocity":0.7480314960629921,"duration":0.16874999999998863},{"name":"A4","midi":69,"time":418.4999999999995,"velocity":0.7480314960629921,"duration":0.33749999999997726},{"name":"F#5","midi":78,"time":418.4999999999995,"velocity":0.7480314960629921,"duration":0.33749999999997726},{"name":"D5","midi":74,"time":418.4999999999995,"velocity":0.7480314960629921,"duration":0.33749999999997726},{"name":"D4","midi":62,"time":418.4999999999995,"velocity":0.7480314960629921,"duration":0.33749999999997726},{"name":"A4","midi":69,"time":418.8749999999995,"velocity":0.7480314960629921,"duration":0.33749999999997726},{"name":"F#5","midi":78,"time":418.8749999999995,"velocity":0.7480314960629921,"duration":0.33749999999997726},{"name":"D5","midi":74,"time":418.8749999999995,"velocity":0.7480314960629921,"duration":0.33749999999997726},{"name":"D4","midi":62,"time":418.8749999999995,"velocity":0.7480314960629921,"duration":0.33749999999997726},{"name":"D4","midi":62,"time":419.2499999999995,"velocity":0.7480314960629921,"duration":0.5062500000000227},{"name":"E5","midi":76,"time":419.2499999999995,"velocity":0.7480314960629921,"duration":0.5062500000000227},{"name":"D5","midi":74,"time":419.2499999999995,"velocity":0.7480314960629921,"duration":0.5062500000000227},{"name":"A4","midi":69,"time":419.2499999999995,"velocity":0.7480314960629921,"duration":0.5062500000000227},{"name":"D4","midi":62,"time":419.8124999999995,"velocity":0.7480314960629921,"duration":0.16874999999998863},{"name":"A4","midi":69,"time":419.8124999999995,"velocity":0.7480314960629921,"duration":0.16874999999998863},{"name":"D5","midi":74,"time":419.8124999999995,"velocity":0.7480314960629921,"duration":0.16874999999998863},{"name":"E5","midi":76,"time":419.8124999999995,"velocity":0.7480314960629921,"duration":0.16874999999998863},{"name":"E5","midi":76,"time":419.9999999999995,"velocity":0.7480314960629921,"duration":0.33749999999997726},{"name":"D5","midi":74,"time":419.9999999999995,"velocity":0.7480314960629921,"duration":0.33749999999997726},{"name":"A4","midi":69,"time":419.9999999999995,"velocity":0.7480314960629921,"duration":0.33749999999997726},{"name":"D4","midi":62,"time":419.9999999999995,"velocity":0.7480314960629921,"duration":0.33749999999997726},{"name":"D4","midi":62,"time":420.3749999999995,"velocity":0.7480314960629921,"duration":0.33749999999997726},{"name":"A4","midi":69,"time":420.3749999999995,"velocity":0.7480314960629921,"duration":0.33749999999997726},{"name":"D5","midi":74,"time":420.3749999999995,"velocity":0.7480314960629921,"duration":0.33749999999997726},{"name":"E5","midi":76,"time":420.3749999999995,"velocity":0.7480314960629921,"duration":0.33749999999997726},{"name":"E5","midi":76,"time":420.7499999999995,"velocity":0.7480314960629921,"duration":0.5062500000000227},{"name":"D5","midi":74,"time":420.7499999999995,"velocity":0.7480314960629921,"duration":0.5062500000000227},{"name":"A4","midi":69,"time":420.7499999999995,"velocity":0.7480314960629921,"duration":0.5062500000000227},{"name":"D4","midi":62,"time":420.7499999999995,"velocity":0.7480314960629921,"duration":0.5062500000000227},{"name":"E5","midi":76,"time":421.3124999999995,"velocity":0.7480314960629921,"duration":0.16874999999998863},{"name":"D5","midi":74,"time":421.3124999999995,"velocity":0.7480314960629921,"duration":0.16874999999998863},{"name":"A4","midi":69,"time":421.3124999999995,"velocity":0.7480314960629921,"duration":0.16874999999998863},{"name":"D4","midi":62,"time":421.3124999999995,"velocity":0.7480314960629921,"duration":0.16874999999998863},{"name":"D4","midi":62,"time":421.4999999999995,"velocity":0.7480314960629921,"duration":0.33749999999997726},{"name":"A4","midi":69,"time":421.4999999999995,"velocity":0.7480314960629921,"duration":0.33749999999997726},{"name":"D5","midi":74,"time":421.4999999999995,"velocity":0.7480314960629921,"duration":0.33749999999997726},{"name":"F#5","midi":78,"time":421.4999999999995,"velocity":0.7480314960629921,"duration":0.33749999999997726},{"name":"F#5","midi":78,"time":421.8749999999995,"velocity":0.7480314960629921,"duration":0.33749999999997726},{"name":"D5","midi":74,"time":421.8749999999995,"velocity":0.7480314960629921,"duration":0.33749999999997726},{"name":"A4","midi":69,"time":421.8749999999995,"velocity":0.7480314960629921,"duration":0.33749999999997726},{"name":"D4","midi":62,"time":421.8749999999995,"velocity":0.7480314960629921,"duration":0.33749999999997726},{"name":"E5","midi":76,"time":422.2499999999995,"velocity":0.7480314960629921,"duration":0.5062500000000227},{"name":"D5","midi":74,"time":422.2499999999995,"velocity":0.7480314960629921,"duration":0.5062500000000227},{"name":"A4","midi":69,"time":422.2499999999995,"velocity":0.7480314960629921,"duration":0.5062500000000227},{"name":"D4","midi":62,"time":422.2499999999995,"velocity":0.7480314960629921,"duration":0.5062500000000227},{"name":"D4","midi":62,"time":422.8124999999995,"velocity":0.7480314960629921,"duration":0.16874999999998863},{"name":"A4","midi":69,"time":422.8124999999995,"velocity":0.7480314960629921,"duration":0.16874999999998863},{"name":"D5","midi":74,"time":422.8124999999995,"velocity":0.7480314960629921,"duration":0.16874999999998863},{"name":"E5","midi":76,"time":422.8124999999995,"velocity":0.7480314960629921,"duration":0.16874999999998863},{"name":"D5","midi":74,"time":422.9999999999995,"velocity":0.7480314960629921,"duration":0.33749999999997726},{"name":"B3","midi":59,"time":422.9999999999995,"velocity":0.7480314960629921,"duration":0.33749999999997726},{"name":"F#4","midi":66,"time":422.9999999999995,"velocity":0.7480314960629921,"duration":0.33749999999997726},{"name":"A4","midi":69,"time":422.9999999999995,"velocity":0.7480314960629921,"duration":0.33749999999997726},{"name":"A4","midi":69,"time":423.3749999999995,"velocity":0.7480314960629921,"duration":0.33749999999997726},{"name":"F#4","midi":66,"time":423.3749999999995,"velocity":0.7480314960629921,"duration":0.33749999999997726},{"name":"B3","midi":59,"time":423.3749999999995,"velocity":0.7480314960629921,"duration":0.33749999999997726},{"name":"D5","midi":74,"time":423.3749999999995,"velocity":0.7480314960629921,"duration":0.33749999999997726},{"name":"A4","midi":69,"time":423.7499999999995,"velocity":0.7480314960629921,"duration":0.33749999999997726},{"name":"D5","midi":74,"time":423.7499999999995,"velocity":0.7480314960629921,"duration":0.33749999999997726},{"name":"F#5","midi":78,"time":423.7499999999995,"velocity":0.7480314960629921,"duration":0.33749999999997726},{"name":"B3","midi":59,"time":423.7499999999995,"velocity":0.7480314960629921,"duration":0.33749999999997726},{"name":"F#4","midi":66,"time":423.7499999999995,"velocity":0.7480314960629921,"duration":0.33749999999997726},{"name":"D5","midi":74,"time":424.1249999999995,"velocity":0.7480314960629921,"duration":0.33749999999997726},{"name":"F#4","midi":66,"time":424.1249999999995,"velocity":0.7480314960629921,"duration":0.33749999999997726},{"name":"B3","midi":59,"time":424.1249999999995,"velocity":0.7480314960629921,"duration":0.33749999999997726},{"name":"A4","midi":69,"time":424.1249999999995,"velocity":0.7480314960629921,"duration":0.33749999999997726},{"name":"B3","midi":59,"time":424.4999999999995,"velocity":0.7480314960629921,"duration":0.33749999999997726},{"name":"F#4","midi":66,"time":424.4999999999995,"velocity":0.7480314960629921,"duration":0.33749999999997726},{"name":"A4","midi":69,"time":424.4999999999995,"velocity":0.7480314960629921,"duration":0.33749999999997726},{"name":"D5","midi":74,"time":424.4999999999995,"velocity":0.7480314960629921,"duration":0.33749999999997726},{"name":"A4","midi":69,"time":424.8749999999995,"velocity":0.7480314960629921,"duration":0.33749999999997726},{"name":"F#5","midi":78,"time":424.8749999999995,"velocity":0.7480314960629921,"duration":0.33749999999997726},{"name":"D5","midi":74,"time":424.8749999999995,"velocity":0.7480314960629921,"duration":0.33749999999997726},{"name":"B3","midi":59,"time":424.8749999999995,"velocity":0.7480314960629921,"duration":0.33749999999997726},{"name":"F#4","midi":66,"time":424.8749999999995,"velocity":0.7480314960629921,"duration":0.33749999999997726},{"name":"F#4","midi":66,"time":425.2499999999995,"velocity":0.7480314960629921,"duration":0.33749999999997726},{"name":"F#5","midi":78,"time":425.2499999999995,"velocity":0.7480314960629921,"duration":0.33749999999997726},{"name":"B3","midi":59,"time":425.2499999999995,"velocity":0.7480314960629921,"duration":0.33749999999997726},{"name":"D5","midi":74,"time":425.2499999999995,"velocity":0.7480314960629921,"duration":0.33749999999997726},{"name":"A4","midi":69,"time":425.2499999999995,"velocity":0.7480314960629921,"duration":0.33749999999997726},{"name":"D5","midi":74,"time":425.6249999999995,"velocity":0.7480314960629921,"duration":0.33749999999997726},{"name":"A4","midi":69,"time":425.6249999999995,"velocity":0.7480314960629921,"duration":0.33749999999997726},{"name":"B3","midi":59,"time":425.6249999999995,"velocity":0.7480314960629921,"duration":0.33749999999997726},{"name":"F#4","midi":66,"time":425.6249999999995,"velocity":0.7480314960629921,"duration":0.33749999999997726},{"name":"B3","midi":59,"time":425.9999999999995,"velocity":0.7480314960629921,"duration":0.33749999999997726},{"name":"F#4","midi":66,"time":425.9999999999995,"velocity":0.7480314960629921,"duration":0.33749999999997726},{"name":"A4","midi":69,"time":425.9999999999995,"velocity":0.7480314960629921,"duration":0.33749999999997726},{"name":"D5","midi":74,"time":425.9999999999995,"velocity":0.7480314960629921,"duration":0.33749999999997726},{"name":"A4","midi":69,"time":426.3749999999995,"velocity":0.7480314960629921,"duration":0.33749999999997726},{"name":"F#5","midi":78,"time":426.3749999999995,"velocity":0.7480314960629921,"duration":0.33749999999997726},{"name":"D5","midi":74,"time":426.3749999999995,"velocity":0.7480314960629921,"duration":0.33749999999997726},{"name":"F#4","midi":66,"time":426.3749999999995,"velocity":0.7480314960629921,"duration":0.33749999999997726},{"name":"B3","midi":59,"time":426.3749999999995,"velocity":0.7480314960629921,"duration":0.33749999999997726},{"name":"F#5","midi":78,"time":426.7499999999995,"velocity":0.7480314960629921,"duration":0.33749999999997726},{"name":"B3","midi":59,"time":426.7499999999995,"velocity":0.7480314960629921,"duration":0.33749999999997726},{"name":"D5","midi":74,"time":426.7499999999995,"velocity":0.7480314960629921,"duration":0.33749999999997726},{"name":"A4","midi":69,"time":426.7499999999995,"velocity":0.7480314960629921,"duration":0.33749999999997726},{"name":"F#4","midi":66,"time":426.7499999999995,"velocity":0.7480314960629921,"duration":0.33749999999997726},{"name":"A4","midi":69,"time":427.1249999999995,"velocity":0.7480314960629921,"duration":0.33749999999997726},{"name":"D5","midi":74,"time":427.1249999999995,"velocity":0.7480314960629921,"duration":0.33749999999997726},{"name":"B3","midi":59,"time":427.1249999999995,"velocity":0.7480314960629921,"duration":0.33749999999997726},{"name":"F#4","midi":66,"time":427.1249999999995,"velocity":0.7480314960629921,"duration":0.33749999999997726},{"name":"A4","midi":69,"time":427.4999999999995,"velocity":0.7480314960629921,"duration":0.33749999999997726},{"name":"D5","midi":74,"time":427.4999999999995,"velocity":0.7480314960629921,"duration":0.33749999999997726},{"name":"B3","midi":59,"time":427.4999999999995,"velocity":0.7480314960629921,"duration":0.33749999999997726},{"name":"F#4","midi":66,"time":427.4999999999995,"velocity":0.7480314960629921,"duration":0.33749999999997726},{"name":"A4","midi":69,"time":427.8749999999995,"velocity":0.7480314960629921,"duration":0.33749999999997726},{"name":"D5","midi":74,"time":427.8749999999995,"velocity":0.7480314960629921,"duration":0.33749999999997726},{"name":"B3","midi":59,"time":427.8749999999995,"velocity":0.7480314960629921,"duration":0.33749999999997726},{"name":"F#5","midi":78,"time":427.8749999999995,"velocity":0.7480314960629921,"duration":0.33749999999997726},{"name":"F#4","midi":66,"time":427.8749999999995,"velocity":0.7480314960629921,"duration":0.33749999999997726},{"name":"D5","midi":74,"time":428.2499999999995,"velocity":0.7480314960629921,"duration":0.33749999999997726},{"name":"F#5","midi":78,"time":428.2499999999995,"velocity":0.7480314960629921,"duration":0.33749999999997726},{"name":"B3","midi":59,"time":428.2499999999995,"velocity":0.7480314960629921,"duration":0.33749999999997726},{"name":"A4","midi":69,"time":428.2499999999995,"velocity":0.7480314960629921,"duration":0.33749999999997726},{"name":"F#4","midi":66,"time":428.2499999999995,"velocity":0.7480314960629921,"duration":0.33749999999997726},{"name":"D5","midi":74,"time":428.6249999999995,"velocity":0.7480314960629921,"duration":0.33749999999997726},{"name":"A4","midi":69,"time":428.6249999999995,"velocity":0.7480314960629921,"duration":0.33749999999997726},{"name":"F#4","midi":66,"time":428.6249999999995,"velocity":0.7480314960629921,"duration":0.33749999999997726},{"name":"B3","midi":59,"time":428.6249999999995,"velocity":0.7480314960629921,"duration":0.33749999999997726},{"name":"A4","midi":69,"time":428.9999999999995,"velocity":0.7480314960629921,"duration":0.33749999999997726},{"name":"D4","midi":62,"time":428.9999999999995,"velocity":0.7480314960629921,"duration":0.33749999999997726},{"name":"C#5","midi":73,"time":428.9999999999995,"velocity":0.7480314960629921,"duration":0.33749999999997726},{"name":"D5","midi":74,"time":429.3749999999995,"velocity":0.7480314960629921,"duration":0.33749999999997726},{"name":"F#5","midi":78,"time":429.3749999999995,"velocity":0.7480314960629921,"duration":0.33749999999997726},{"name":"C#5","midi":73,"time":429.3749999999995,"velocity":0.7480314960629921,"duration":0.33749999999997726},{"name":"A4","midi":69,"time":429.3749999999995,"velocity":0.7480314960629921,"duration":0.33749999999997726},{"name":"D4","midi":62,"time":429.3749999999995,"velocity":0.7480314960629921,"duration":0.33749999999997726},{"name":"F#5","midi":78,"time":429.7499999999995,"velocity":0.7480314960629921,"duration":0.33749999999997726},{"name":"C#5","midi":73,"time":429.7499999999995,"velocity":0.7480314960629921,"duration":0.33749999999997726},{"name":"A4","midi":69,"time":429.7499999999995,"velocity":0.7480314960629921,"duration":0.33749999999997726},{"name":"D4","midi":62,"time":429.7499999999995,"velocity":0.7480314960629921,"duration":0.33749999999997726},{"name":"D4","midi":62,"time":430.1249999999995,"velocity":0.7480314960629921,"duration":0.33749999999997726},{"name":"C#5","midi":73,"time":430.1249999999995,"velocity":0.7480314960629921,"duration":0.33749999999997726},{"name":"A4","midi":69,"time":430.1249999999995,"velocity":0.7480314960629921,"duration":0.33749999999997726},{"name":"D4","midi":62,"time":430.4999999999995,"velocity":0.7480314960629921,"duration":0.33749999999997726},{"name":"A4","midi":69,"time":430.4999999999995,"velocity":0.7480314960629921,"duration":0.33749999999997726},{"name":"C#5","midi":73,"time":430.4999999999995,"velocity":0.7480314960629921,"duration":0.33749999999997726},{"name":"F#5","midi":78,"time":430.8749999999995,"velocity":0.7480314960629921,"duration":0.33749999999997726},{"name":"C#5","midi":73,"time":430.8749999999995,"velocity":0.7480314960629921,"duration":0.33749999999997726},{"name":"A4","midi":69,"time":430.8749999999995,"velocity":0.7480314960629921,"duration":0.33749999999997726},{"name":"D4","midi":62,"time":430.8749999999995,"velocity":0.7480314960629921,"duration":0.33749999999997726},{"name":"D4","midi":62,"time":431.2499999999995,"velocity":0.7480314960629921,"duration":0.33749999999997726},{"name":"C#5","midi":73,"time":431.2499999999995,"velocity":0.7480314960629921,"duration":0.33749999999997726},{"name":"F#5","midi":78,"time":431.2499999999995,"velocity":0.7480314960629921,"duration":0.33749999999997726},{"name":"A4","midi":69,"time":431.2499999999995,"velocity":0.7480314960629921,"duration":0.33749999999997726},{"name":"D4","midi":62,"time":431.6249999999995,"velocity":0.7480314960629921,"duration":0.33749999999997726},{"name":"A4","midi":69,"time":431.6249999999995,"velocity":0.7480314960629921,"duration":0.33749999999997726},{"name":"C#5","midi":73,"time":431.6249999999995,"velocity":0.7480314960629921,"duration":0.33749999999997726},{"name":"D4","midi":62,"time":431.9999999999995,"velocity":0.7480314960629921,"duration":0.33749999999997726},{"name":"C#5","midi":73,"time":431.9999999999995,"velocity":0.7480314960629921,"duration":0.33749999999997726},{"name":"A4","midi":69,"time":431.9999999999995,"velocity":0.7480314960629921,"duration":0.33749999999997726},{"name":"F#5","midi":78,"time":432.3749999999995,"velocity":0.7480314960629921,"duration":0.33749999999997726},{"name":"D4","midi":62,"time":432.3749999999995,"velocity":0.7480314960629921,"duration":0.33749999999997726},{"name":"A4","midi":69,"time":432.3749999999995,"velocity":0.7480314960629921,"duration":0.33749999999997726},{"name":"C#5","midi":73,"time":432.3749999999995,"velocity":0.7480314960629921,"duration":0.33749999999997726},{"name":"F#5","midi":78,"time":432.7499999999995,"velocity":0.7480314960629921,"duration":0.33749999999997726},{"name":"A4","midi":69,"time":432.7499999999995,"velocity":0.7480314960629921,"duration":0.33749999999997726},{"name":"D4","midi":62,"time":432.7499999999995,"velocity":0.7480314960629921,"duration":0.33749999999997726},{"name":"C#5","midi":73,"time":432.7499999999995,"velocity":0.7480314960629921,"duration":0.33749999999997726},{"name":"C#5","midi":73,"time":433.1249999999995,"velocity":0.7480314960629921,"duration":0.33749999999997726},{"name":"D4","midi":62,"time":433.1249999999995,"velocity":0.7480314960629921,"duration":0.33749999999997726},{"name":"A4","midi":69,"time":433.1249999999995,"velocity":0.7480314960629921,"duration":0.33749999999997726},{"name":"D4","midi":62,"time":433.4999999999995,"velocity":0.7480314960629921,"duration":0.33749999999997726},{"name":"A4","midi":69,"time":433.4999999999995,"velocity":0.7480314960629921,"duration":0.33749999999997726},{"name":"C#5","midi":73,"time":433.4999999999995,"velocity":0.7480314960629921,"duration":0.33749999999997726},{"name":"C#5","midi":73,"time":433.8749999999995,"velocity":0.7480314960629921,"duration":0.33749999999997726},{"name":"F#5","midi":78,"time":433.8749999999995,"velocity":0.7480314960629921,"duration":0.33749999999997726},{"name":"A4","midi":69,"time":433.8749999999995,"velocity":0.7480314960629921,"duration":0.33749999999997726},{"name":"D4","midi":62,"time":433.8749999999995,"velocity":0.7480314960629921,"duration":0.33749999999997726},{"name":"F#5","midi":78,"time":434.2499999999995,"velocity":0.7480314960629921,"duration":0.33749999999997726},{"name":"C#5","midi":73,"time":434.2499999999995,"velocity":0.7480314960629921,"duration":0.33749999999997726},{"name":"A4","midi":69,"time":434.2499999999995,"velocity":0.7480314960629921,"duration":0.33749999999997726},{"name":"D4","midi":62,"time":434.2499999999995,"velocity":0.7480314960629921,"duration":0.33749999999997726},{"name":"D4","midi":62,"time":434.6249999999995,"velocity":0.7480314960629921,"duration":0.33749999999997726},{"name":"A4","midi":69,"time":434.6249999999995,"velocity":0.7480314960629921,"duration":0.33749999999997726},{"name":"C#5","midi":73,"time":434.6249999999995,"velocity":0.7480314960629921,"duration":0.33749999999997726},{"name":"C#5","midi":73,"time":434.9999999999995,"velocity":0.7480314960629921,"duration":0.33749999999997726},{"name":"A3","midi":57,"time":434.9999999999995,"velocity":0.7480314960629921,"duration":0.33749999999997726},{"name":"E4","midi":64,"time":434.9999999999995,"velocity":0.7480314960629921,"duration":0.33749999999997726},{"name":"A4","midi":69,"time":434.9999999999995,"velocity":0.7480314960629921,"duration":0.33749999999997726},{"name":"F#5","midi":78,"time":434.9999999999995,"velocity":0.7480314960629921,"duration":0.33749999999997726},{"name":"F#5","midi":78,"time":435.3749999999995,"velocity":0.7480314960629921,"duration":0.33749999999997726},{"name":"C#5","midi":73,"time":435.3749999999995,"velocity":0.7480314960629921,"duration":0.33749999999997726},{"name":"A4","midi":69,"time":435.3749999999995,"velocity":0.7480314960629921,"duration":0.33749999999997726},{"name":"E4","midi":64,"time":435.3749999999995,"velocity":0.7480314960629921,"duration":0.33749999999997726},{"name":"A3","midi":57,"time":435.3749999999995,"velocity":0.7480314960629921,"duration":0.33749999999997726},{"name":"E5","midi":76,"time":435.7499999999995,"velocity":0.7480314960629921,"duration":0.5062500000000227},{"name":"A3","midi":57,"time":435.7499999999995,"velocity":0.7480314960629921,"duration":0.5062500000000227},{"name":"C#5","midi":73,"time":435.7499999999995,"velocity":0.7480314960629921,"duration":0.5062500000000227},{"name":"A4","midi":69,"time":435.7499999999995,"velocity":0.7480314960629921,"duration":0.5062500000000227},{"name":"E4","midi":64,"time":435.7499999999995,"velocity":0.7480314960629921,"duration":0.5062500000000227},{"name":"C#5","midi":73,"time":436.3124999999995,"velocity":0.7480314960629921,"duration":0.16874999999998863},{"name":"A4","midi":69,"time":436.3124999999995,"velocity":0.7480314960629921,"duration":0.16874999999998863},{"name":"E4","midi":64,"time":436.3124999999995,"velocity":0.7480314960629921,"duration":0.16874999999998863},{"name":"A3","midi":57,"time":436.3124999999995,"velocity":0.7480314960629921,"duration":0.16874999999998863},{"name":"E5","midi":76,"time":436.3124999999995,"velocity":0.7480314960629921,"duration":0.16874999999998863},{"name":"E4","midi":64,"time":436.4999999999995,"velocity":0.7480314960629921,"duration":0.33749999999997726},{"name":"A3","midi":57,"time":436.4999999999995,"velocity":0.7480314960629921,"duration":0.33749999999997726},{"name":"A4","midi":69,"time":436.4999999999995,"velocity":0.7480314960629921,"duration":0.33749999999997726},{"name":"C#5","midi":73,"time":436.4999999999995,"velocity":0.7480314960629921,"duration":0.33749999999997726},{"name":"F#5","midi":78,"time":436.4999999999995,"velocity":0.7480314960629921,"duration":0.33749999999997726},{"name":"A3","midi":57,"time":436.8749999999995,"velocity":0.7480314960629921,"duration":0.33749999999997726},{"name":"E4","midi":64,"time":436.8749999999995,"velocity":0.7480314960629921,"duration":0.33749999999997726},{"name":"F#5","midi":78,"time":436.8749999999995,"velocity":0.7480314960629921,"duration":0.33749999999997726},{"name":"C#5","midi":73,"time":436.8749999999995,"velocity":0.7480314960629921,"duration":0.33749999999997726},{"name":"A4","midi":69,"time":436.8749999999995,"velocity":0.7480314960629921,"duration":0.33749999999997726},{"name":"A3","midi":57,"time":437.2499999999995,"velocity":0.7480314960629921,"duration":0.5062500000000227},{"name":"A4","midi":69,"time":437.2499999999995,"velocity":0.7480314960629921,"duration":0.5062500000000227},{"name":"C#5","midi":73,"time":437.2499999999995,"velocity":0.7480314960629921,"duration":0.5062500000000227},{"name":"E5","midi":76,"time":437.2499999999995,"velocity":0.7480314960629921,"duration":0.5062500000000227},{"name":"E4","midi":64,"time":437.2499999999995,"velocity":0.7480314960629921,"duration":0.5062500000000227},{"name":"A3","midi":57,"time":437.8124999999995,"velocity":0.7480314960629921,"duration":0.16874999999998863},{"name":"A4","midi":69,"time":437.8124999999995,"velocity":0.7480314960629921,"duration":0.16874999999998863},{"name":"E5","midi":76,"time":437.8124999999995,"velocity":0.7480314960629921,"duration":0.16874999999998863},{"name":"C#5","midi":73,"time":437.8124999999995,"velocity":0.7480314960629921,"duration":0.16874999999998863},{"name":"E4","midi":64,"time":437.8124999999995,"velocity":0.7480314960629921,"duration":0.16874999999998863},{"name":"F#5","midi":78,"time":437.9999999999995,"velocity":0.7480314960629921,"duration":0.33749999999997726},{"name":"C#5","midi":73,"time":437.9999999999995,"velocity":0.7480314960629921,"duration":0.33749999999997726},{"name":"A4","midi":69,"time":437.9999999999995,"velocity":0.7480314960629921,"duration":0.33749999999997726},{"name":"E4","midi":64,"time":437.9999999999995,"velocity":0.7480314960629921,"duration":0.33749999999997726},{"name":"A3","midi":57,"time":437.9999999999995,"velocity":0.7480314960629921,"duration":0.33749999999997726},{"name":"F#5","midi":78,"time":438.3749999999995,"velocity":0.7480314960629921,"duration":0.33749999999997726},{"name":"C#5","midi":73,"time":438.3749999999995,"velocity":0.7480314960629921,"duration":0.33749999999997726},{"name":"A4","midi":69,"time":438.3749999999995,"velocity":0.7480314960629921,"duration":0.33749999999997726},{"name":"E4","midi":64,"time":438.3749999999995,"velocity":0.7480314960629921,"duration":0.33749999999997726},{"name":"A3","midi":57,"time":438.3749999999995,"velocity":0.7480314960629921,"duration":0.33749999999997726},{"name":"E5","midi":76,"time":438.7499999999995,"velocity":0.7480314960629921,"duration":0.5062500000000227},{"name":"C#5","midi":73,"time":438.7499999999995,"velocity":0.7480314960629921,"duration":0.5062500000000227},{"name":"A4","midi":69,"time":438.7499999999995,"velocity":0.7480314960629921,"duration":0.5062500000000227},{"name":"E4","midi":64,"time":438.7499999999995,"velocity":0.7480314960629921,"duration":0.5062500000000227},{"name":"A3","midi":57,"time":438.7499999999995,"velocity":0.7480314960629921,"duration":0.5062500000000227},{"name":"A3","midi":57,"time":439.3124999999995,"velocity":0.7480314960629921,"duration":0.16874999999998863},{"name":"E5","midi":76,"time":439.3124999999995,"velocity":0.7480314960629921,"duration":0.16874999999998863},{"name":"C#5","midi":73,"time":439.3124999999995,"velocity":0.7480314960629921,"duration":0.16874999999998863},{"name":"A4","midi":69,"time":439.3124999999995,"velocity":0.7480314960629921,"duration":0.16874999999998863},{"name":"E4","midi":64,"time":439.3124999999995,"velocity":0.7480314960629921,"duration":0.16874999999998863},{"name":"A3","midi":57,"time":439.4999999999995,"velocity":0.7480314960629921,"duration":0.33749999999997726},{"name":"E4","midi":64,"time":439.4999999999995,"velocity":0.7480314960629921,"duration":0.33749999999997726},{"name":"A4","midi":69,"time":439.4999999999995,"velocity":0.7480314960629921,"duration":0.33749999999997726},{"name":"C#5","midi":73,"time":439.4999999999995,"velocity":0.7480314960629921,"duration":0.33749999999997726},{"name":"F#5","midi":78,"time":439.4999999999995,"velocity":0.7480314960629921,"duration":0.33749999999997726},{"name":"A3","midi":57,"time":439.8749999999995,"velocity":0.7480314960629921,"duration":0.33749999999997726},{"name":"E4","midi":64,"time":439.8749999999995,"velocity":0.7480314960629921,"duration":0.33749999999997726},{"name":"A4","midi":69,"time":439.8749999999995,"velocity":0.7480314960629921,"duration":0.33749999999997726},{"name":"C#5","midi":73,"time":439.8749999999995,"velocity":0.7480314960629921,"duration":0.33749999999997726},{"name":"F#5","midi":78,"time":439.8749999999995,"velocity":0.7480314960629921,"duration":0.33749999999997726},{"name":"E5","midi":76,"time":440.2499999999995,"velocity":0.7480314960629921,"duration":0.5062500000000227},{"name":"A3","midi":57,"time":440.2499999999995,"velocity":0.7480314960629921,"duration":0.5062500000000227},{"name":"E4","midi":64,"time":440.2499999999995,"velocity":0.7480314960629921,"duration":0.5062500000000227},{"name":"A4","midi":69,"time":440.2499999999995,"velocity":0.7480314960629921,"duration":0.5062500000000227},{"name":"C#5","midi":73,"time":440.2499999999995,"velocity":0.7480314960629921,"duration":0.5062500000000227},{"name":"A4","midi":69,"time":440.8124999999995,"velocity":0.7480314960629921,"duration":0.16874999999998863},{"name":"C#5","midi":73,"time":440.8124999999995,"velocity":0.7480314960629921,"duration":0.16874999999998863},{"name":"E5","midi":76,"time":440.8124999999995,"velocity":0.7480314960629921,"duration":0.16874999999998863},{"name":"E4","midi":64,"time":440.8124999999995,"velocity":0.7480314960629921,"duration":0.16874999999998863},{"name":"A3","midi":57,"time":440.8124999999995,"velocity":0.7480314960629921,"duration":0.16874999999998863},{"name":"F#5","midi":78,"time":440.9999999999995,"velocity":0.7480314960629921,"duration":0.33749999999997726},{"name":"D5","midi":74,"time":440.9999999999995,"velocity":0.7480314960629921,"duration":0.33749999999997726},{"name":"A4","midi":69,"time":440.9999999999995,"velocity":0.7480314960629921,"duration":0.33749999999997726},{"name":"D4","midi":62,"time":440.9999999999995,"velocity":0.7480314960629921,"duration":0.33749999999997726},{"name":"D4","midi":62,"time":441.3749999999995,"velocity":0.7480314960629921,"duration":0.33749999999997726},{"name":"A4","midi":69,"time":441.3749999999995,"velocity":0.7480314960629921,"duration":0.33749999999997726},{"name":"D5","midi":74,"time":441.3749999999995,"velocity":0.7480314960629921,"duration":0.33749999999997726},{"name":"F#5","midi":78,"time":441.3749999999995,"velocity":0.7480314960629921,"duration":0.33749999999997726},{"name":"D4","midi":62,"time":441.7499999999995,"velocity":0.7480314960629921,"duration":0.5062500000000227},{"name":"A4","midi":69,"time":441.7499999999995,"velocity":0.7480314960629921,"duration":0.5062500000000227},{"name":"D5","midi":74,"time":441.7499999999995,"velocity":0.7480314960629921,"duration":0.5062500000000227},{"name":"E5","midi":76,"time":441.7499999999995,"velocity":0.7480314960629921,"duration":0.5062500000000227},{"name":"D4","midi":62,"time":442.3124999999995,"velocity":0.7480314960629921,"duration":0.16874999999998863},{"name":"A4","midi":69,"time":442.3124999999995,"velocity":0.7480314960629921,"duration":0.16874999999998863},{"name":"E5","midi":76,"time":442.3124999999995,"velocity":0.7480314960629921,"duration":0.16874999999998863},{"name":"D5","midi":74,"time":442.3124999999995,"velocity":0.7480314960629921,"duration":0.16874999999998863},{"name":"D4","midi":62,"time":442.4999999999995,"velocity":0.7480314960629921,"duration":0.33749999999997726},{"name":"A4","midi":69,"time":442.4999999999995,"velocity":0.7480314960629921,"duration":0.33749999999997726},{"name":"D5","midi":74,"time":442.4999999999995,"velocity":0.7480314960629921,"duration":0.33749999999997726},{"name":"F#5","midi":78,"time":442.4999999999995,"velocity":0.7480314960629921,"duration":0.33749999999997726},{"name":"D4","midi":62,"time":442.8749999999995,"velocity":0.7480314960629921,"duration":0.33749999999997726},{"name":"A4","midi":69,"time":442.8749999999995,"velocity":0.7480314960629921,"duration":0.33749999999997726},{"name":"D5","midi":74,"time":442.8749999999995,"velocity":0.7480314960629921,"duration":0.33749999999997726},{"name":"F#5","midi":78,"time":442.8749999999995,"velocity":0.7480314960629921,"duration":0.33749999999997726},{"name":"E5","midi":76,"time":443.2499999999995,"velocity":0.7480314960629921,"duration":0.5062500000000227},{"name":"D4","midi":62,"time":443.2499999999995,"velocity":0.7480314960629921,"duration":0.5062500000000227},{"name":"D5","midi":74,"time":443.2499999999995,"velocity":0.7480314960629921,"duration":0.5062500000000227},{"name":"A4","midi":69,"time":443.2499999999995,"velocity":0.7480314960629921,"duration":0.5062500000000227},{"name":"E5","midi":76,"time":443.8124999999995,"velocity":0.7480314960629921,"duration":0.16874999999998863},{"name":"D5","midi":74,"time":443.8124999999995,"velocity":0.7480314960629921,"duration":0.16874999999998863},{"name":"A4","midi":69,"time":443.8124999999995,"velocity":0.7480314960629921,"duration":0.16874999999998863},{"name":"D4","midi":62,"time":443.8124999999995,"velocity":0.7480314960629921,"duration":0.16874999999998863},{"name":"A4","midi":69,"time":443.9999999999995,"velocity":0.7480314960629921,"duration":0.33749999999997726},{"name":"D5","midi":74,"time":443.9999999999995,"velocity":0.7480314960629921,"duration":0.33749999999997726},{"name":"E5","midi":76,"time":443.9999999999995,"velocity":0.7480314960629921,"duration":0.33749999999997726},{"name":"D4","midi":62,"time":443.9999999999995,"velocity":0.7480314960629921,"duration":0.33749999999997726},{"name":"A4","midi":69,"time":444.3749999999995,"velocity":0.7480314960629921,"duration":0.33749999999997726},{"name":"E5","midi":76,"time":444.3749999999995,"velocity":0.7480314960629921,"duration":0.33749999999997726},{"name":"D5","midi":74,"time":444.3749999999995,"velocity":0.7480314960629921,"duration":0.33749999999997726},{"name":"D4","midi":62,"time":444.3749999999995,"velocity":0.7480314960629921,"duration":0.33749999999997726},{"name":"A4","midi":69,"time":444.7499999999995,"velocity":0.7480314960629921,"duration":0.5062500000000227},{"name":"D4","midi":62,"time":444.7499999999995,"velocity":0.7480314960629921,"duration":0.5062500000000227},{"name":"E5","midi":76,"time":444.7499999999995,"velocity":0.7480314960629921,"duration":0.5062500000000227},{"name":"D5","midi":74,"time":444.7499999999995,"velocity":0.7480314960629921,"duration":0.5062500000000227},{"name":"D5","midi":74,"time":445.3124999999995,"velocity":0.7480314960629921,"duration":0.16874999999998863},{"name":"D4","midi":62,"time":445.3124999999995,"velocity":0.7480314960629921,"duration":0.16874999999998863},{"name":"A4","midi":69,"time":445.3124999999995,"velocity":0.7480314960629921,"duration":0.16874999999998863},{"name":"E5","midi":76,"time":445.3124999999995,"velocity":0.7480314960629921,"duration":0.16874999999998863},{"name":"F#5","midi":78,"time":445.4999999999995,"velocity":0.7480314960629921,"duration":0.33749999999997726},{"name":"D5","midi":74,"time":445.4999999999995,"velocity":0.7480314960629921,"duration":0.33749999999997726},{"name":"A4","midi":69,"time":445.4999999999995,"velocity":0.7480314960629921,"duration":0.33749999999997726},{"name":"D4","midi":62,"time":445.4999999999995,"velocity":0.7480314960629921,"duration":0.33749999999997726},{"name":"D5","midi":74,"time":445.8749999999995,"velocity":0.7480314960629921,"duration":0.33749999999997726},{"name":"A4","midi":69,"time":445.8749999999995,"velocity":0.7480314960629921,"duration":0.33749999999997726},{"name":"D4","midi":62,"time":445.8749999999995,"velocity":0.7480314960629921,"duration":0.33749999999997726},{"name":"F#5","midi":78,"time":445.8749999999995,"velocity":0.7480314960629921,"duration":0.33749999999997726},{"name":"D5","midi":74,"time":446.2499999999995,"velocity":0.7480314960629921,"duration":0.5062500000000227},{"name":"A4","midi":69,"time":446.2499999999995,"velocity":0.7480314960629921,"duration":0.5062500000000227},{"name":"D4","midi":62,"time":446.2499999999995,"velocity":0.7480314960629921,"duration":0.5062500000000227},{"name":"E5","midi":76,"time":446.2499999999995,"velocity":0.7480314960629921,"duration":0.5062500000000227},{"name":"E5","midi":76,"time":446.8124999999995,"velocity":0.7480314960629921,"duration":0.16874999999998863},{"name":"D5","midi":74,"time":446.8124999999995,"velocity":0.7480314960629921,"duration":0.16874999999998863},{"name":"A4","midi":69,"time":446.8124999999995,"velocity":0.7480314960629921,"duration":0.16874999999998863},{"name":"D4","midi":62,"time":446.8124999999995,"velocity":0.7480314960629921,"duration":0.16874999999998863},{"name":"F#4","midi":66,"time":446.9999999999995,"velocity":0.7480314960629921,"duration":0.33749999999997726},{"name":"B3","midi":59,"time":446.9999999999995,"velocity":0.7480314960629921,"duration":0.33749999999997726},{"name":"D5","midi":74,"time":446.9999999999995,"velocity":0.7480314960629921,"duration":0.33749999999997726},{"name":"B4","midi":71,"time":446.9999999999995,"velocity":0.7480314960629921,"duration":0.33749999999997726},{"name":"F#5","midi":78,"time":446.9999999999995,"velocity":0.7480314960629921,"duration":0.33749999999997726},{"name":"B4","midi":71,"time":447.3749999999995,"velocity":0.7480314960629921,"duration":0.33749999999997726},{"name":"F#4","midi":66,"time":447.3749999999995,"velocity":0.7480314960629921,"duration":0.33749999999997726},{"name":"B3","midi":59,"time":447.3749999999995,"velocity":0.7480314960629921,"duration":0.33749999999997726},{"name":"D5","midi":74,"time":447.3749999999995,"velocity":0.7480314960629921,"duration":0.33749999999997726},{"name":"F#5","midi":78,"time":447.3749999999995,"velocity":0.7480314960629921,"duration":0.33749999999997726},{"name":"D5","midi":74,"time":447.7499999999995,"velocity":0.7480314960629921,"duration":0.5062500000000227},{"name":"B3","midi":59,"time":447.7499999999995,"velocity":0.7480314960629921,"duration":0.5062500000000227},{"name":"F#4","midi":66,"time":447.7499999999995,"velocity":0.7480314960629921,"duration":0.5062500000000227},{"name":"B4","midi":71,"time":447.7499999999995,"velocity":0.7480314960629921,"duration":0.5062500000000227},{"name":"E5","midi":76,"time":447.7499999999995,"velocity":0.7480314960629921,"duration":0.5062500000000227},{"name":"E5","midi":76,"time":448.3124999999995,"velocity":0.7480314960629921,"duration":0.16874999999998863},{"name":"B3","midi":59,"time":448.3124999999995,"velocity":0.7480314960629921,"duration":0.16874999999998863},{"name":"D5","midi":74,"time":448.3124999999995,"velocity":0.7480314960629921,"duration":0.16874999999998863},{"name":"B4","midi":71,"time":448.3124999999995,"velocity":0.7480314960629921,"duration":0.16874999999998863},{"name":"F#4","midi":66,"time":448.3124999999995,"velocity":0.7480314960629921,"duration":0.16874999999998863},{"name":"F#4","midi":66,"time":448.4999999999995,"velocity":0.7480314960629921,"duration":0.33749999999997726},{"name":"B3","midi":59,"time":448.4999999999995,"velocity":0.7480314960629921,"duration":0.33749999999997726},{"name":"F#5","midi":78,"time":448.4999999999995,"velocity":0.7480314960629921,"duration":0.33749999999997726},{"name":"D5","midi":74,"time":448.4999999999995,"velocity":0.7480314960629921,"duration":0.33749999999997726},{"name":"B4","midi":71,"time":448.4999999999995,"velocity":0.7480314960629921,"duration":0.33749999999997726},{"name":"D5","midi":74,"time":448.8749999999995,"velocity":0.7480314960629921,"duration":0.33749999999997726},{"name":"F#5","midi":78,"time":448.8749999999995,"velocity":0.7480314960629921,"duration":0.33749999999997726},{"name":"B3","midi":59,"time":448.8749999999995,"velocity":0.7480314960629921,"duration":0.33749999999997726},{"name":"F#4","midi":66,"time":448.8749999999995,"velocity":0.7480314960629921,"duration":0.33749999999997726},{"name":"B4","midi":71,"time":448.8749999999995,"velocity":0.7480314960629921,"duration":0.33749999999997726},{"name":"B4","midi":71,"time":449.2499999999995,"velocity":0.7480314960629921,"duration":0.5062500000000227},{"name":"F#4","midi":66,"time":449.2499999999995,"velocity":0.7480314960629921,"duration":0.5062500000000227},{"name":"B3","midi":59,"time":449.2499999999995,"velocity":0.7480314960629921,"duration":0.5062500000000227},{"name":"E5","midi":76,"time":449.2499999999995,"velocity":0.7480314960629921,"duration":0.5062500000000227},{"name":"D5","midi":74,"time":449.2499999999995,"velocity":0.7480314960629921,"duration":0.5062500000000227},{"name":"B4","midi":71,"time":449.8124999999995,"velocity":0.7480314960629921,"duration":0.16874999999998863},{"name":"F#4","midi":66,"time":449.8124999999995,"velocity":0.7480314960629921,"duration":0.16874999999998863},{"name":"D5","midi":74,"time":449.8124999999995,"velocity":0.7480314960629921,"duration":0.16874999999998863},{"name":"B3","midi":59,"time":449.8124999999995,"velocity":0.7480314960629921,"duration":0.16874999999998863},{"name":"E5","midi":76,"time":449.8124999999995,"velocity":0.7480314960629921,"duration":0.16874999999998863},{"name":"B4","midi":71,"time":449.9999999999995,"velocity":0.7480314960629921,"duration":0.33749999999997726},{"name":"G#4","midi":68,"time":449.9999999999995,"velocity":0.7480314960629921,"duration":0.33749999999997726},{"name":"C#4","midi":61,"time":449.9999999999995,"velocity":0.7480314960629921,"duration":0.33749999999997726},{"name":"F#5","midi":78,"time":449.9999999999995,"velocity":0.7480314960629921,"duration":0.33749999999997726},{"name":"F#5","midi":78,"time":450.3749999999995,"velocity":0.7480314960629921,"duration":0.33749999999997726},{"name":"C#4","midi":61,"time":450.3749999999995,"velocity":0.7480314960629921,"duration":0.33749999999997726},{"name":"G#4","midi":68,"time":450.3749999999995,"velocity":0.7480314960629921,"duration":0.33749999999997726},{"name":"B4","midi":71,"time":450.3749999999995,"velocity":0.7480314960629921,"duration":0.33749999999997726},{"name":"E5","midi":76,"time":450.7499999999995,"velocity":0.7480314960629921,"duration":0.5062500000000227},{"name":"C#4","midi":61,"time":450.7499999999995,"velocity":0.7480314960629921,"duration":0.5062500000000227},{"name":"B4","midi":71,"time":450.7499999999995,"velocity":0.7480314960629921,"duration":0.5062500000000227},{"name":"G#4","midi":68,"time":450.7499999999995,"velocity":0.7480314960629921,"duration":0.5062500000000227},{"name":"C#4","midi":61,"time":451.3124999999995,"velocity":0.7480314960629921,"duration":0.16874999999998863},{"name":"B4","midi":71,"time":451.3124999999995,"velocity":0.7480314960629921,"duration":0.16874999999998863},{"name":"G#4","midi":68,"time":451.3124999999995,"velocity":0.7480314960629921,"duration":0.16874999999998863},{"name":"E5","midi":76,"time":451.3124999999995,"velocity":0.7480314960629921,"duration":0.16874999999998863},{"name":"F#5","midi":78,"time":451.4999999999995,"velocity":0.7480314960629921,"duration":0.33749999999997726},{"name":"C#4","midi":61,"time":451.4999999999995,"velocity":0.7480314960629921,"duration":0.33749999999997726},{"name":"G#4","midi":68,"time":451.4999999999995,"velocity":0.7480314960629921,"duration":0.33749999999997726},{"name":"B4","midi":71,"time":451.4999999999995,"velocity":0.7480314960629921,"duration":0.33749999999997726},{"name":"G#4","midi":68,"time":451.8749999999995,"velocity":0.7480314960629921,"duration":0.33749999999997726},{"name":"C#4","midi":61,"time":451.8749999999995,"velocity":0.7480314960629921,"duration":0.33749999999997726},{"name":"B4","midi":71,"time":451.8749999999995,"velocity":0.7480314960629921,"duration":0.33749999999997726},{"name":"F#5","midi":78,"time":451.8749999999995,"velocity":0.7480314960629921,"duration":0.33749999999997726},{"name":"E5","midi":76,"time":452.2499999999995,"velocity":0.7480314960629921,"duration":0.5062500000000227},{"name":"B4","midi":71,"time":452.2499999999995,"velocity":0.7480314960629921,"duration":0.5062500000000227},{"name":"G#4","midi":68,"time":452.2499999999995,"velocity":0.7480314960629921,"duration":0.5062500000000227},{"name":"C#4","midi":61,"time":452.2499999999995,"velocity":0.7480314960629921,"duration":0.5062500000000227},{"name":"C#4","midi":61,"time":452.8124999999995,"velocity":0.7480314960629921,"duration":0.16874999999998863},{"name":"G#4","midi":68,"time":452.8124999999995,"velocity":0.7480314960629921,"duration":0.16874999999998863},{"name":"B4","midi":71,"time":452.8124999999995,"velocity":0.7480314960629921,"duration":0.16874999999998863},{"name":"E5","midi":76,"time":452.8124999999995,"velocity":0.7480314960629921,"duration":0.16874999999998863},{"name":"F#5","midi":78,"time":452.9999999999995,"velocity":0.7480314960629921,"duration":0.33749999999997726},{"name":"D4","midi":62,"time":452.9999999999995,"velocity":0.7480314960629921,"duration":0.33749999999997726},{"name":"A5","midi":81,"time":452.9999999999995,"velocity":0.7480314960629921,"duration":0.33749999999997726},{"name":"D5","midi":74,"time":452.9999999999995,"velocity":0.7480314960629921,"duration":0.33749999999997726},{"name":"A4","midi":69,"time":452.9999999999995,"velocity":0.7480314960629921,"duration":0.33749999999997726},{"name":"A5","midi":81,"time":453.3749999999995,"velocity":0.7480314960629921,"duration":0.33749999999997726},{"name":"F#5","midi":78,"time":453.3749999999995,"velocity":0.7480314960629921,"duration":0.33749999999997726},{"name":"D5","midi":74,"time":453.3749999999995,"velocity":0.7480314960629921,"duration":0.33749999999997726},{"name":"A4","midi":69,"time":453.3749999999995,"velocity":0.7480314960629921,"duration":0.33749999999997726},{"name":"D4","midi":62,"time":453.3749999999995,"velocity":0.7480314960629921,"duration":0.33749999999997726},{"name":"D5","midi":74,"time":453.7499999999995,"velocity":0.7480314960629921,"duration":0.5062500000000227},{"name":"F#5","midi":78,"time":453.7499999999995,"velocity":0.7480314960629921,"duration":0.5062500000000227},{"name":"A4","midi":69,"time":453.7499999999995,"velocity":0.7480314960629921,"duration":0.5062500000000227},{"name":"D4","midi":62,"time":453.7499999999995,"velocity":0.7480314960629921,"duration":0.5062500000000227},{"name":"A5","midi":81,"time":453.7499999999995,"velocity":0.7480314960629921,"duration":0.5062500000000227},{"name":"D4","midi":62,"time":454.3124999999995,"velocity":0.7480314960629921,"duration":0.16874999999998863},{"name":"A5","midi":81,"time":454.3124999999995,"velocity":0.7480314960629921,"duration":0.16874999999998863},{"name":"F#5","midi":78,"time":454.3124999999995,"velocity":0.7480314960629921,"duration":0.16874999999998863},{"name":"D5","midi":74,"time":454.3124999999995,"velocity":0.7480314960629921,"duration":0.16874999999998863},{"name":"A4","midi":69,"time":454.3124999999995,"velocity":0.7480314960629921,"duration":0.16874999999998863},{"name":"A5","midi":81,"time":454.4999999999995,"velocity":0.7480314960629921,"duration":0.33749999999997726},{"name":"D4","midi":62,"time":454.4999999999995,"velocity":0.7480314960629921,"duration":0.33749999999997726},{"name":"A4","midi":69,"time":454.4999999999995,"velocity":0.7480314960629921,"duration":0.33749999999997726},{"name":"D5","midi":74,"time":454.4999999999995,"velocity":0.7480314960629921,"duration":0.33749999999997726},{"name":"F#5","midi":78,"time":454.4999999999995,"velocity":0.7480314960629921,"duration":0.33749999999997726},{"name":"A5","midi":81,"time":454.8749999999995,"velocity":0.7480314960629921,"duration":0.33749999999997726},{"name":"D5","midi":74,"time":454.8749999999995,"velocity":0.7480314960629921,"duration":0.33749999999997726},{"name":"A4","midi":69,"time":454.8749999999995,"velocity":0.7480314960629921,"duration":0.33749999999997726},{"name":"F#5","midi":78,"time":454.8749999999995,"velocity":0.7480314960629921,"duration":0.33749999999997726},{"name":"D4","midi":62,"time":454.8749999999995,"velocity":0.7480314960629921,"duration":0.33749999999997726},{"name":"F#5","midi":78,"time":455.2499999999995,"velocity":0.7480314960629921,"duration":0.5062500000000227},{"name":"D5","midi":74,"time":455.2499999999995,"velocity":0.7480314960629921,"duration":0.5062500000000227},{"name":"A4","midi":69,"time":455.2499999999995,"velocity":0.7480314960629921,"duration":0.5062500000000227},{"name":"A5","midi":81,"time":455.2499999999995,"velocity":0.7480314960629921,"duration":0.5062500000000227},{"name":"D4","midi":62,"time":455.2499999999995,"velocity":0.7480314960629921,"duration":0.5062500000000227},{"name":"D5","midi":74,"time":455.8124999999995,"velocity":0.7480314960629921,"duration":0.16874999999998863},{"name":"F#5","midi":78,"time":455.8124999999995,"velocity":0.7480314960629921,"duration":0.16874999999998863},{"name":"A5","midi":81,"time":455.8124999999995,"velocity":0.7480314960629921,"duration":0.16874999999998863},{"name":"D4","midi":62,"time":455.8124999999995,"velocity":0.7480314960629921,"duration":0.16874999999998863},{"name":"A4","midi":69,"time":455.8124999999995,"velocity":0.7480314960629921,"duration":0.16874999999998863},{"name":"D5","midi":74,"time":455.9999999999995,"velocity":0.7480314960629921,"duration":0.33749999999997726},{"name":"A4","midi":69,"time":455.9999999999995,"velocity":0.7480314960629921,"duration":0.33749999999997726},{"name":"D4","midi":62,"time":455.9999999999995,"velocity":0.7480314960629921,"duration":0.33749999999997726},{"name":"A5","midi":81,"time":455.9999999999995,"velocity":0.7480314960629921,"duration":0.33749999999997726},{"name":"F#5","midi":78,"time":455.9999999999995,"velocity":0.7480314960629921,"duration":0.33749999999997726},{"name":"D4","midi":62,"time":456.3749999999995,"velocity":0.7480314960629921,"duration":0.33749999999997726},{"name":"A4","midi":69,"time":456.3749999999995,"velocity":0.7480314960629921,"duration":0.33749999999997726},{"name":"D5","midi":74,"time":456.3749999999995,"velocity":0.7480314960629921,"duration":0.33749999999997726},{"name":"F#5","midi":78,"time":456.3749999999995,"velocity":0.7480314960629921,"duration":0.33749999999997726},{"name":"A5","midi":81,"time":456.3749999999995,"velocity":0.7480314960629921,"duration":0.33749999999997726},{"name":"A5","midi":81,"time":456.7499999999995,"velocity":0.7480314960629921,"duration":0.5062500000000227},{"name":"F#5","midi":78,"time":456.7499999999995,"velocity":0.7480314960629921,"duration":0.5062500000000227},{"name":"D5","midi":74,"time":456.7499999999995,"velocity":0.7480314960629921,"duration":0.5062500000000227},{"name":"A4","midi":69,"time":456.7499999999995,"velocity":0.7480314960629921,"duration":0.5062500000000227},{"name":"D4","midi":62,"time":456.7499999999995,"velocity":0.7480314960629921,"duration":0.5062500000000227},{"name":"D4","midi":62,"time":457.3124999999995,"velocity":0.7480314960629921,"duration":0.16874999999998863},{"name":"A4","midi":69,"time":457.3124999999995,"velocity":0.7480314960629921,"duration":0.16874999999998863},{"name":"D5","midi":74,"time":457.3124999999995,"velocity":0.7480314960629921,"duration":0.16874999999998863},{"name":"F#5","midi":78,"time":457.3124999999995,"velocity":0.7480314960629921,"duration":0.16874999999998863},{"name":"A5","midi":81,"time":457.3124999999995,"velocity":0.7480314960629921,"duration":0.16874999999998863},{"name":"D4","midi":62,"time":457.4999999999995,"velocity":0.7480314960629921,"duration":0.33749999999997726},{"name":"A4","midi":69,"time":457.4999999999995,"velocity":0.7480314960629921,"duration":0.33749999999997726},{"name":"D5","midi":74,"time":457.4999999999995,"velocity":0.7480314960629921,"duration":0.33749999999997726},{"name":"F#5","midi":78,"time":457.4999999999995,"velocity":0.7480314960629921,"duration":0.33749999999997726},{"name":"A5","midi":81,"time":457.4999999999995,"velocity":0.7480314960629921,"duration":0.33749999999997726},{"name":"A5","midi":81,"time":457.8749999999995,"velocity":0.7480314960629921,"duration":0.33749999999997726},{"name":"D4","midi":62,"time":457.8749999999995,"velocity":0.7480314960629921,"duration":0.33749999999997726},{"name":"F#5","midi":78,"time":457.8749999999995,"velocity":0.7480314960629921,"duration":0.33749999999997726},{"name":"D5","midi":74,"time":457.8749999999995,"velocity":0.7480314960629921,"duration":0.33749999999997726},{"name":"A4","midi":69,"time":457.8749999999995,"velocity":0.7480314960629921,"duration":0.33749999999997726},{"name":"A4","midi":69,"time":458.2499999999995,"velocity":0.7480314960629921,"duration":0.5062500000000227},{"name":"D4","midi":62,"time":458.2499999999995,"velocity":0.7480314960629921,"duration":0.5062500000000227},{"name":"A5","midi":81,"time":458.2499999999995,"velocity":0.7480314960629921,"duration":0.5062500000000227},{"name":"F#5","midi":78,"time":458.2499999999995,"velocity":0.7480314960629921,"duration":0.5062500000000227},{"name":"D5","midi":74,"time":458.2499999999995,"velocity":0.7480314960629921,"duration":0.5062500000000227},{"name":"F#5","midi":78,"time":458.8124999999995,"velocity":0.7480314960629921,"duration":0.16874999999998863},{"name":"A4","midi":69,"time":458.8124999999995,"velocity":0.7480314960629921,"duration":0.16874999999998863},{"name":"D5","midi":74,"time":458.8124999999995,"velocity":0.7480314960629921,"duration":0.16874999999998863},{"name":"A5","midi":81,"time":458.8124999999995,"velocity":0.7480314960629921,"duration":0.16874999999998863},{"name":"D4","midi":62,"time":458.8124999999995,"velocity":0.7480314960629921,"duration":0.16874999999998863},{"name":"A4","midi":69,"time":458.9999999999995,"velocity":0.7480314960629921,"duration":0.33749999999997726},{"name":"E4","midi":64,"time":458.9999999999995,"velocity":0.7480314960629921,"duration":0.33749999999997726},{"name":"A3","midi":57,"time":458.9999999999995,"velocity":0.7480314960629921,"duration":0.33749999999997726},{"name":"C#5","midi":73,"time":458.9999999999995,"velocity":0.7480314960629921,"duration":0.33749999999997726},{"name":"A3","midi":57,"time":459.3749999999995,"velocity":0.7480314960629921,"duration":0.33749999999997726},{"name":"E4","midi":64,"time":459.3749999999995,"velocity":0.7480314960629921,"duration":0.33749999999997726},{"name":"A4","midi":69,"time":459.3749999999995,"velocity":0.7480314960629921,"duration":0.33749999999997726},{"name":"C#5","midi":73,"time":459.3749999999995,"velocity":0.7480314960629921,"duration":0.33749999999997726},{"name":"E4","midi":64,"time":459.7499999999995,"velocity":0.7480314960629921,"duration":0.33749999999997726},{"name":"A3","midi":57,"time":459.7499999999995,"velocity":0.7480314960629921,"duration":0.33749999999997726},{"name":"A5","midi":81,"time":459.7499999999995,"velocity":0.7480314960629921,"duration":0.33749999999997726},{"name":"E5","midi":76,"time":459.7499999999995,"velocity":0.7480314960629921,"duration":0.33749999999997726},{"name":"C#5","midi":73,"time":459.7499999999995,"velocity":0.7480314960629921,"duration":0.33749999999997726},{"name":"A4","midi":69,"time":459.7499999999995,"velocity":0.7480314960629921,"duration":0.33749999999997726},{"name":"A3","midi":57,"time":460.1249999999995,"velocity":0.7480314960629921,"duration":0.33749999999997726},{"name":"E4","midi":64,"time":460.1249999999995,"velocity":0.7480314960629921,"duration":0.33749999999997726},{"name":"A4","midi":69,"time":460.1249999999995,"velocity":0.7480314960629921,"duration":0.33749999999997726},{"name":"C#5","midi":73,"time":460.1249999999995,"velocity":0.7480314960629921,"duration":0.33749999999997726},{"name":"A4","midi":69,"time":460.4999999999995,"velocity":0.7480314960629921,"duration":0.33749999999997726},{"name":"E4","midi":64,"time":460.4999999999995,"velocity":0.7480314960629921,"duration":0.33749999999997726},{"name":"A3","midi":57,"time":460.4999999999995,"velocity":0.7480314960629921,"duration":0.33749999999997726},{"name":"C#5","midi":73,"time":460.4999999999995,"velocity":0.7480314960629921,"duration":0.33749999999997726},{"name":"A3","midi":57,"time":460.8749999999995,"velocity":0.7480314960629921,"duration":0.33749999999997726},{"name":"A5","midi":81,"time":460.8749999999995,"velocity":0.7480314960629921,"duration":0.33749999999997726},{"name":"E5","midi":76,"time":460.8749999999995,"velocity":0.7480314960629921,"duration":0.33749999999997726},{"name":"C#5","midi":73,"time":460.8749999999995,"velocity":0.7480314960629921,"duration":0.33749999999997726},{"name":"A4","midi":69,"time":460.8749999999995,"velocity":0.7480314960629921,"duration":0.33749999999997726},{"name":"E4","midi":64,"time":460.8749999999995,"velocity":0.7480314960629921,"duration":0.33749999999997726},{"name":"C#5","midi":73,"time":461.2499999999995,"velocity":0.7480314960629921,"duration":0.33749999999997726},{"name":"A3","midi":57,"time":461.2499999999995,"velocity":0.7480314960629921,"duration":0.33749999999997726},{"name":"E4","midi":64,"time":461.2499999999995,"velocity":0.7480314960629921,"duration":0.33749999999997726},{"name":"A4","midi":69,"time":461.2499999999995,"velocity":0.7480314960629921,"duration":0.33749999999997726},{"name":"E5","midi":76,"time":461.2499999999995,"velocity":0.7480314960629921,"duration":0.33749999999997726},{"name":"A5","midi":81,"time":461.2499999999995,"velocity":0.7480314960629921,"duration":0.33749999999997726},{"name":"E4","midi":64,"time":461.6249999999995,"velocity":0.7480314960629921,"duration":0.33749999999997726},{"name":"A4","midi":69,"time":461.6249999999995,"velocity":0.7480314960629921,"duration":0.33749999999997726},{"name":"C#5","midi":73,"time":461.6249999999995,"velocity":0.7480314960629921,"duration":0.33749999999997726},{"name":"A3","midi":57,"time":461.6249999999995,"velocity":0.7480314960629921,"duration":0.33749999999997726},{"name":"A3","midi":57,"time":461.9999999999995,"velocity":0.7480314960629921,"duration":0.33749999999997726},{"name":"E4","midi":64,"time":461.9999999999995,"velocity":0.7480314960629921,"duration":0.33749999999997726},{"name":"A4","midi":69,"time":461.9999999999995,"velocity":0.7480314960629921,"duration":0.33749999999997726},{"name":"C#5","midi":73,"time":461.9999999999995,"velocity":0.7480314960629921,"duration":0.33749999999997726},{"name":"A4","midi":69,"time":462.3749999999995,"velocity":0.7480314960629921,"duration":0.33749999999997726},{"name":"A5","midi":81,"time":462.3749999999995,"velocity":0.7480314960629921,"duration":0.33749999999997726},{"name":"E5","midi":76,"time":462.3749999999995,"velocity":0.7480314960629921,"duration":0.33749999999997726},{"name":"C#5","midi":73,"time":462.3749999999995,"velocity":0.7480314960629921,"duration":0.33749999999997726},{"name":"E4","midi":64,"time":462.3749999999995,"velocity":0.7480314960629921,"duration":0.33749999999997726},{"name":"A3","midi":57,"time":462.3749999999995,"velocity":0.7480314960629921,"duration":0.33749999999997726},{"name":"A5","midi":81,"time":462.7499999999995,"velocity":0.7480314960629921,"duration":0.33749999999997726},{"name":"E5","midi":76,"time":462.7499999999995,"velocity":0.7480314960629921,"duration":0.33749999999997726},{"name":"C#5","midi":73,"time":462.7499999999995,"velocity":0.7480314960629921,"duration":0.33749999999997726},{"name":"A4","midi":69,"time":462.7499999999995,"velocity":0.7480314960629921,"duration":0.33749999999997726},{"name":"E4","midi":64,"time":462.7499999999995,"velocity":0.7480314960629921,"duration":0.33749999999997726},{"name":"A3","midi":57,"time":462.7499999999995,"velocity":0.7480314960629921,"duration":0.33749999999997726},{"name":"A3","midi":57,"time":463.1249999999995,"velocity":0.7480314960629921,"duration":0.33749999999997726},{"name":"E4","midi":64,"time":463.1249999999995,"velocity":0.7480314960629921,"duration":0.33749999999997726},{"name":"A4","midi":69,"time":463.1249999999995,"velocity":0.7480314960629921,"duration":0.33749999999997726},{"name":"C#5","midi":73,"time":463.1249999999995,"velocity":0.7480314960629921,"duration":0.33749999999997726},{"name":"A3","midi":57,"time":463.4999999999995,"velocity":0.7480314960629921,"duration":0.33749999999997726},{"name":"C#5","midi":73,"time":463.4999999999995,"velocity":0.7480314960629921,"duration":0.33749999999997726},{"name":"A4","midi":69,"time":463.4999999999995,"velocity":0.7480314960629921,"duration":0.33749999999997726},{"name":"E4","midi":64,"time":463.4999999999995,"velocity":0.7480314960629921,"duration":0.33749999999997726},{"name":"E5","midi":76,"time":463.8749999999995,"velocity":0.7480314960629921,"duration":0.33749999999997726},{"name":"C#5","midi":73,"time":463.8749999999995,"velocity":0.7480314960629921,"duration":0.33749999999997726},{"name":"A4","midi":69,"time":463.8749999999995,"velocity":0.7480314960629921,"duration":0.33749999999997726},{"name":"E4","midi":64,"time":463.8749999999995,"velocity":0.7480314960629921,"duration":0.33749999999997726},{"name":"A3","midi":57,"time":463.8749999999995,"velocity":0.7480314960629921,"duration":0.33749999999997726},{"name":"A5","midi":81,"time":463.8749999999995,"velocity":0.7480314960629921,"duration":0.33749999999997726},{"name":"E5","midi":76,"time":464.2499999999995,"velocity":0.7480314960629921,"duration":0.33749999999997726},{"name":"A5","midi":81,"time":464.2499999999995,"velocity":0.7480314960629921,"duration":0.33749999999997726},{"name":"E4","midi":64,"time":464.2499999999995,"velocity":0.7480314960629921,"duration":0.33749999999997726},{"name":"A3","midi":57,"time":464.2499999999995,"velocity":0.7480314960629921,"duration":0.33749999999997726},{"name":"C#5","midi":73,"time":464.2499999999995,"velocity":0.7480314960629921,"duration":0.33749999999997726},{"name":"A4","midi":69,"time":464.2499999999995,"velocity":0.7480314960629921,"duration":0.33749999999997726},{"name":"C#5","midi":73,"time":464.6249999999995,"velocity":0.7480314960629921,"duration":0.33749999999997726},{"name":"A3","midi":57,"time":464.6249999999995,"velocity":0.7480314960629921,"duration":0.33749999999997726},{"name":"E4","midi":64,"time":464.6249999999995,"velocity":0.7480314960629921,"duration":0.33749999999997726},{"name":"A4","midi":69,"time":464.6249999999995,"velocity":0.7480314960629921,"duration":0.33749999999997726},{"name":"D4","midi":62,"time":464.9999999999995,"velocity":0.7480314960629921,"duration":0.33749999999997726},{"name":"A4","midi":69,"time":464.9999999999995,"velocity":0.7480314960629921,"duration":0.33749999999997726},{"name":"D5","midi":74,"time":464.9999999999995,"velocity":0.7480314960629921,"duration":0.33749999999997726},{"name":"F#5","midi":78,"time":464.9999999999995,"velocity":0.7480314960629921,"duration":0.33749999999997726},{"name":"D4","midi":62,"time":465.3749999999995,"velocity":0.7480314960629921,"duration":0.33749999999997726},{"name":"A4","midi":69,"time":465.3749999999995,"velocity":0.7480314960629921,"duration":0.33749999999997726},{"name":"D5","midi":74,"time":465.3749999999995,"velocity":0.7480314960629921,"duration":0.33749999999997726},{"name":"F#5","midi":78,"time":465.3749999999995,"velocity":0.7480314960629921,"duration":0.33749999999997726},{"name":"D4","midi":62,"time":465.7499999999995,"velocity":0.7480314960629921,"duration":0.5062500000000227},{"name":"A4","midi":69,"time":465.7499999999995,"velocity":0.7480314960629921,"duration":0.5062500000000227},{"name":"D5","midi":74,"time":465.7499999999995,"velocity":0.7480314960629921,"duration":0.5062500000000227},{"name":"E5","midi":76,"time":465.7499999999995,"velocity":0.7480314960629921,"duration":0.5062500000000227},{"name":"D5","midi":74,"time":466.3124999999995,"velocity":0.7480314960629921,"duration":0.16874999999998863},{"name":"E5","midi":76,"time":466.3124999999995,"velocity":0.7480314960629921,"duration":0.16874999999998863},{"name":"A4","midi":69,"time":466.3124999999995,"velocity":0.7480314960629921,"duration":0.16874999999998863},{"name":"D4","midi":62,"time":466.3124999999995,"velocity":0.7480314960629921,"duration":0.16874999999998863},{"name":"A4","midi":69,"time":466.4999999999995,"velocity":0.7480314960629921,"duration":0.33749999999997726},{"name":"D5","midi":74,"time":466.4999999999995,"velocity":0.7480314960629921,"duration":0.33749999999997726},{"name":"F#5","midi":78,"time":466.4999999999995,"velocity":0.7480314960629921,"duration":0.33749999999997726},{"name":"D4","midi":62,"time":466.4999999999995,"velocity":0.7480314960629921,"duration":0.33749999999997726},{"name":"F#5","midi":78,"time":466.8749999999995,"velocity":0.7480314960629921,"duration":0.33749999999997726},{"name":"D4","midi":62,"time":466.8749999999995,"velocity":0.7480314960629921,"duration":0.33749999999997726},{"name":"A4","midi":69,"time":466.8749999999995,"velocity":0.7480314960629921,"duration":0.33749999999997726},{"name":"D5","midi":74,"time":466.8749999999995,"velocity":0.7480314960629921,"duration":0.33749999999997726},{"name":"D4","midi":62,"time":467.2499999999995,"velocity":0.7480314960629921,"duration":0.5062500000000227},{"name":"D5","midi":74,"time":467.2499999999995,"velocity":0.7480314960629921,"duration":0.5062500000000227},{"name":"E5","midi":76,"time":467.2499999999995,"velocity":0.7480314960629921,"duration":0.5062500000000227},{"name":"A4","midi":69,"time":467.2499999999995,"velocity":0.7480314960629921,"duration":0.5062500000000227},{"name":"D4","midi":62,"time":467.8124999999995,"velocity":0.7480314960629921,"duration":0.16874999999998863},{"name":"A4","midi":69,"time":467.8124999999995,"velocity":0.7480314960629921,"duration":0.16874999999998863},{"name":"D5","midi":74,"time":467.8124999999995,"velocity":0.7480314960629921,"duration":0.16874999999998863},{"name":"E5","midi":76,"time":467.8124999999995,"velocity":0.7480314960629921,"duration":0.16874999999998863},{"name":"E5","midi":76,"time":467.9999999999995,"velocity":0.7480314960629921,"duration":0.33749999999997726},{"name":"D4","midi":62,"time":467.9999999999995,"velocity":0.7480314960629921,"duration":0.33749999999997726},{"name":"D5","midi":74,"time":467.9999999999995,"velocity":0.7480314960629921,"duration":0.33749999999997726},{"name":"A4","midi":69,"time":467.9999999999995,"velocity":0.7480314960629921,"duration":0.33749999999997726},{"name":"A4","midi":69,"time":468.3749999999995,"velocity":0.7480314960629921,"duration":0.33749999999997726},{"name":"D5","midi":74,"time":468.3749999999995,"velocity":0.7480314960629921,"duration":0.33749999999997726},{"name":"E5","midi":76,"time":468.3749999999995,"velocity":0.7480314960629921,"duration":0.33749999999997726},{"name":"D4","midi":62,"time":468.3749999999995,"velocity":0.7480314960629921,"duration":0.33749999999997726},{"name":"E5","midi":76,"time":468.7499999999995,"velocity":0.7480314960629921,"duration":0.5062500000000227},{"name":"D4","midi":62,"time":468.7499999999995,"velocity":0.7480314960629921,"duration":0.5062500000000227},{"name":"A4","midi":69,"time":468.7499999999995,"velocity":0.7480314960629921,"duration":0.5062500000000227},{"name":"D5","midi":74,"time":468.7499999999995,"velocity":0.7480314960629921,"duration":0.5062500000000227},{"name":"D4","midi":62,"time":469.3124999999995,"velocity":0.7480314960629921,"duration":0.16874999999998863},{"name":"D5","midi":74,"time":469.3124999999995,"velocity":0.7480314960629921,"duration":0.16874999999998863},{"name":"A4","midi":69,"time":469.3124999999995,"velocity":0.7480314960629921,"duration":0.16874999999998863},{"name":"E5","midi":76,"time":469.3124999999995,"velocity":0.7480314960629921,"duration":0.16874999999998863},{"name":"A4","midi":69,"time":469.4999999999995,"velocity":0.7480314960629921,"duration":0.33749999999997726},{"name":"D5","midi":74,"time":469.4999999999995,"velocity":0.7480314960629921,"duration":0.33749999999997726},{"name":"D4","midi":62,"time":469.4999999999995,"velocity":0.7480314960629921,"duration":0.33749999999997726},{"name":"F#5","midi":78,"time":469.4999999999995,"velocity":0.7480314960629921,"duration":0.33749999999997726},{"name":"D4","midi":62,"time":469.8749999999995,"velocity":0.7480314960629921,"duration":0.33749999999997726},{"name":"A4","midi":69,"time":469.8749999999995,"velocity":0.7480314960629921,"duration":0.33749999999997726},{"name":"D5","midi":74,"time":469.8749999999995,"velocity":0.7480314960629921,"duration":0.33749999999997726},{"name":"F#5","midi":78,"time":469.8749999999995,"velocity":0.7480314960629921,"duration":0.33749999999997726},{"name":"E5","midi":76,"time":470.2499999999995,"velocity":0.7480314960629921,"duration":0.5062500000000227},{"name":"D5","midi":74,"time":470.2499999999995,"velocity":0.7480314960629921,"duration":0.5062500000000227},{"name":"A4","midi":69,"time":470.2499999999995,"velocity":0.7480314960629921,"duration":0.5062500000000227},{"name":"D4","midi":62,"time":470.2499999999995,"velocity":0.7480314960629921,"duration":0.5062500000000227},{"name":"D4","midi":62,"time":470.8124999999995,"velocity":0.7480314960629921,"duration":0.16874999999998863},{"name":"A4","midi":69,"time":470.8124999999995,"velocity":0.7480314960629921,"duration":0.16874999999998863},{"name":"E5","midi":76,"time":470.8124999999995,"velocity":0.7480314960629921,"duration":0.16874999999998863},{"name":"D5","midi":74,"time":470.8124999999995,"velocity":0.7480314960629921,"duration":0.16874999999998863},{"name":"D5","midi":74,"time":470.9999999999995,"velocity":0.7480314960629921,"duration":0.33749999999997726},{"name":"A4","midi":69,"time":470.9999999999995,"velocity":0.7480314960629921,"duration":0.33749999999997726},{"name":"F#4","midi":66,"time":470.9999999999995,"velocity":0.7480314960629921,"duration":0.33749999999997726},{"name":"B3","midi":59,"time":470.9999999999995,"velocity":0.7480314960629921,"duration":0.33749999999997726},{"name":"D5","midi":74,"time":471.3749999999995,"velocity":0.7480314960629921,"duration":0.33749999999997726},{"name":"A4","midi":69,"time":471.3749999999995,"velocity":0.7480314960629921,"duration":0.33749999999997726},{"name":"F#4","midi":66,"time":471.3749999999995,"velocity":0.7480314960629921,"duration":0.33749999999997726},{"name":"B3","midi":59,"time":471.3749999999995,"velocity":0.7480314960629921,"duration":0.33749999999997726},{"name":"F#5","midi":78,"time":471.7499999999995,"velocity":0.7480314960629921,"duration":0.33749999999997726},{"name":"B3","midi":59,"time":471.7499999999995,"velocity":0.7480314960629921,"duration":0.33749999999997726},{"name":"F#4","midi":66,"time":471.7499999999995,"velocity":0.7480314960629921,"duration":0.33749999999997726},{"name":"A4","midi":69,"time":471.7499999999995,"velocity":0.7480314960629921,"duration":0.33749999999997726},{"name":"D5","midi":74,"time":471.7499999999995,"velocity":0.7480314960629921,"duration":0.33749999999997726},{"name":"B3","midi":59,"time":472.1249999999995,"velocity":0.7480314960629921,"duration":0.33749999999997726},{"name":"D5","midi":74,"time":472.1249999999995,"velocity":0.7480314960629921,"duration":0.33749999999997726},{"name":"F#4","midi":66,"time":472.1249999999995,"velocity":0.7480314960629921,"duration":0.33749999999997726},{"name":"A4","midi":69,"time":472.1249999999995,"velocity":0.7480314960629921,"duration":0.33749999999997726},{"name":"B3","midi":59,"time":472.4999999999995,"velocity":0.7480314960629921,"duration":0.33749999999997726},{"name":"F#4","midi":66,"time":472.4999999999995,"velocity":0.7480314960629921,"duration":0.33749999999997726},{"name":"A4","midi":69,"time":472.4999999999995,"velocity":0.7480314960629921,"duration":0.33749999999997726},{"name":"D5","midi":74,"time":472.4999999999995,"velocity":0.7480314960629921,"duration":0.33749999999997726},{"name":"F#5","midi":78,"time":472.8749999999995,"velocity":0.7480314960629921,"duration":0.33749999999997726},{"name":"B3","midi":59,"time":472.8749999999995,"velocity":0.7480314960629921,"duration":0.33749999999997726},{"name":"F#4","midi":66,"time":472.8749999999995,"velocity":0.7480314960629921,"duration":0.33749999999997726},{"name":"A4","midi":69,"time":472.8749999999995,"velocity":0.7480314960629921,"duration":0.33749999999997726},{"name":"D5","midi":74,"time":472.8749999999995,"velocity":0.7480314960629921,"duration":0.33749999999997726},{"name":"D5","midi":74,"time":473.2499999999995,"velocity":0.7480314960629921,"duration":0.33749999999997726},{"name":"A4","midi":69,"time":473.2499999999995,"velocity":0.7480314960629921,"duration":0.33749999999997726},{"name":"F#4","midi":66,"time":473.2499999999995,"velocity":0.7480314960629921,"duration":0.33749999999997726},{"name":"B3","midi":59,"time":473.2499999999995,"velocity":0.7480314960629921,"duration":0.33749999999997726},{"name":"F#5","midi":78,"time":473.2499999999995,"velocity":0.7480314960629921,"duration":0.33749999999997726},{"name":"F#4","midi":66,"time":473.6249999999995,"velocity":0.7480314960629921,"duration":0.33749999999997726},{"name":"B3","midi":59,"time":473.6249999999995,"velocity":0.7480314960629921,"duration":0.33749999999997726},{"name":"A4","midi":69,"time":473.6249999999995,"velocity":0.7480314960629921,"duration":0.33749999999997726},{"name":"D5","midi":74,"time":473.6249999999995,"velocity":0.7480314960629921,"duration":0.33749999999997726},{"name":"D5","midi":74,"time":473.9999999999995,"velocity":0.7480314960629921,"duration":0.33749999999997726},{"name":"A4","midi":69,"time":473.9999999999995,"velocity":0.7480314960629921,"duration":0.33749999999997726},{"name":"F#4","midi":66,"time":473.9999999999995,"velocity":0.7480314960629921,"duration":0.33749999999997726},{"name":"B3","midi":59,"time":473.9999999999995,"velocity":0.7480314960629921,"duration":0.33749999999997726},{"name":"F#4","midi":66,"time":474.3749999999995,"velocity":0.7480314960629921,"duration":0.33749999999997726},{"name":"B3","midi":59,"time":474.3749999999995,"velocity":0.7480314960629921,"duration":0.33749999999997726},{"name":"D5","midi":74,"time":474.3749999999995,"velocity":0.7480314960629921,"duration":0.33749999999997726},{"name":"A4","midi":69,"time":474.3749999999995,"velocity":0.7480314960629921,"duration":0.33749999999997726},{"name":"F#5","midi":78,"time":474.3749999999995,"velocity":0.7480314960629921,"duration":0.33749999999997726},{"name":"F#5","midi":78,"time":474.7499999999995,"velocity":0.7480314960629921,"duration":0.33749999999997726},{"name":"F#4","midi":66,"time":474.7499999999995,"velocity":0.7480314960629921,"duration":0.33749999999997726},{"name":"B3","midi":59,"time":474.7499999999995,"velocity":0.7480314960629921,"duration":0.33749999999997726},{"name":"A4","midi":69,"time":474.7499999999995,"velocity":0.7480314960629921,"duration":0.33749999999997726},{"name":"D5","midi":74,"time":474.7499999999995,"velocity":0.7480314960629921,"duration":0.33749999999997726},{"name":"B3","midi":59,"time":475.1249999999995,"velocity":0.7480314960629921,"duration":0.33749999999997726},{"name":"F#4","midi":66,"time":475.1249999999995,"velocity":0.7480314960629921,"duration":0.33749999999997726},{"name":"D5","midi":74,"time":475.1249999999995,"velocity":0.7480314960629921,"duration":0.33749999999997726},{"name":"A4","midi":69,"time":475.1249999999995,"velocity":0.7480314960629921,"duration":0.33749999999997726},{"name":"D5","midi":74,"time":475.4999999999995,"velocity":0.7480314960629921,"duration":0.33749999999997726},{"name":"A4","midi":69,"time":475.4999999999995,"velocity":0.7480314960629921,"duration":0.33749999999997726},{"name":"F#4","midi":66,"time":475.4999999999995,"velocity":0.7480314960629921,"duration":0.33749999999997726},{"name":"B3","midi":59,"time":475.4999999999995,"velocity":0.7480314960629921,"duration":0.33749999999997726},{"name":"F#5","midi":78,"time":475.8749999999995,"velocity":0.7480314960629921,"duration":0.33749999999997726},{"name":"D5","midi":74,"time":475.8749999999995,"velocity":0.7480314960629921,"duration":0.33749999999997726},{"name":"A4","midi":69,"time":475.8749999999995,"velocity":0.7480314960629921,"duration":0.33749999999997726},{"name":"F#4","midi":66,"time":475.8749999999995,"velocity":0.7480314960629921,"duration":0.33749999999997726},{"name":"B3","midi":59,"time":475.8749999999995,"velocity":0.7480314960629921,"duration":0.33749999999997726},{"name":"B3","midi":59,"time":476.2499999999995,"velocity":0.7480314960629921,"duration":0.33749999999997726},{"name":"F#5","midi":78,"time":476.2499999999995,"velocity":0.7480314960629921,"duration":0.33749999999997726},{"name":"D5","midi":74,"time":476.2499999999995,"velocity":0.7480314960629921,"duration":0.33749999999997726},{"name":"A4","midi":69,"time":476.2499999999995,"velocity":0.7480314960629921,"duration":0.33749999999997726},{"name":"F#4","midi":66,"time":476.2499999999995,"velocity":0.7480314960629921,"duration":0.33749999999997726},{"name":"F#4","midi":66,"time":476.6249999999995,"velocity":0.7480314960629921,"duration":0.33749999999997726},{"name":"A4","midi":69,"time":476.6249999999995,"velocity":0.7480314960629921,"duration":0.33749999999997726},{"name":"D5","midi":74,"time":476.6249999999995,"velocity":0.7480314960629921,"duration":0.33749999999997726},{"name":"B3","midi":59,"time":476.6249999999995,"velocity":0.7480314960629921,"duration":0.33749999999997726},{"name":"A4","midi":69,"time":476.9999999999995,"velocity":0.7480314960629921,"duration":0.33749999999997726},{"name":"D4","midi":62,"time":476.9999999999995,"velocity":0.7480314960629921,"duration":0.33749999999997726},{"name":"C#5","midi":73,"time":476.9999999999995,"velocity":0.7480314960629921,"duration":0.33749999999997726},{"name":"F#5","midi":78,"time":477.3749999999995,"velocity":0.7480314960629921,"duration":0.33749999999997726},{"name":"D5","midi":74,"time":477.3749999999995,"velocity":0.7480314960629921,"duration":0.33749999999997726},{"name":"C#5","midi":73,"time":477.3749999999995,"velocity":0.7480314960629921,"duration":0.33749999999997726},{"name":"A4","midi":69,"time":477.3749999999995,"velocity":0.7480314960629921,"duration":0.33749999999997726},{"name":"D4","midi":62,"time":477.3749999999995,"velocity":0.7480314960629921,"duration":0.33749999999997726},{"name":"A4","midi":69,"time":477.7499999999995,"velocity":0.7480314960629921,"duration":0.33749999999997726},{"name":"F#5","midi":78,"time":477.7499999999995,"velocity":0.7480314960629921,"duration":0.33749999999997726},{"name":"D4","midi":62,"time":477.7499999999995,"velocity":0.7480314960629921,"duration":0.33749999999997726},{"name":"C#5","midi":73,"time":477.7499999999995,"velocity":0.7480314960629921,"duration":0.33749999999997726},{"name":"D4","midi":62,"time":478.1249999999995,"velocity":0.7480314960629921,"duration":0.33749999999997726},{"name":"A4","midi":69,"time":478.1249999999995,"velocity":0.7480314960629921,"duration":0.33749999999997726},{"name":"C#5","midi":73,"time":478.1249999999995,"velocity":0.7480314960629921,"duration":0.33749999999997726},{"name":"A4","midi":69,"time":478.4999999999995,"velocity":0.7480314960629921,"duration":0.33749999999997726},{"name":"D4","midi":62,"time":478.4999999999995,"velocity":0.7480314960629921,"duration":0.33749999999997726},{"name":"C#5","midi":73,"time":478.4999999999995,"velocity":0.7480314960629921,"duration":0.33749999999997726},{"name":"C#5","midi":73,"time":478.8749999999995,"velocity":0.7480314960629921,"duration":0.33749999999997726},{"name":"F#5","midi":78,"time":478.8749999999995,"velocity":0.7480314960629921,"duration":0.33749999999997726},{"name":"D4","midi":62,"time":478.8749999999995,"velocity":0.7480314960629921,"duration":0.33749999999997726},{"name":"A4","midi":69,"time":478.8749999999995,"velocity":0.7480314960629921,"duration":0.33749999999997726},{"name":"F#5","midi":78,"time":479.2499999999995,"velocity":0.7480314960629921,"duration":0.33749999999997726},{"name":"C#5","midi":73,"time":479.2499999999995,"velocity":0.7480314960629921,"duration":0.33749999999997726},{"name":"A4","midi":69,"time":479.2499999999995,"velocity":0.7480314960629921,"duration":0.33749999999997726},{"name":"D4","midi":62,"time":479.2499999999995,"velocity":0.7480314960629921,"duration":0.33749999999997726},{"name":"C#5","midi":73,"time":479.6249999999995,"velocity":0.7480314960629921,"duration":0.33749999999997726},{"name":"A4","midi":69,"time":479.6249999999995,"velocity":0.7480314960629921,"duration":0.33749999999997726},{"name":"D4","midi":62,"time":479.6249999999995,"velocity":0.7480314960629921,"duration":0.33749999999997726},{"name":"D4","midi":62,"time":479.9999999999995,"velocity":0.7480314960629921,"duration":0.33749999999997726},{"name":"C#5","midi":73,"time":479.9999999999995,"velocity":0.7480314960629921,"duration":0.33749999999997726},{"name":"A4","midi":69,"time":479.9999999999995,"velocity":0.7480314960629921,"duration":0.33749999999997726},{"name":"F#5","midi":78,"time":480.3749999999995,"velocity":0.7480314960629921,"duration":0.33749999999997726},{"name":"D4","midi":62,"time":480.3749999999995,"velocity":0.7480314960629921,"duration":0.33749999999997726},{"name":"A4","midi":69,"time":480.3749999999995,"velocity":0.7480314960629921,"duration":0.33749999999997726},{"name":"C#5","midi":73,"time":480.3749999999995,"velocity":0.7480314960629921,"duration":0.33749999999997726},{"name":"F#5","midi":78,"time":480.7499999999995,"velocity":0.7480314960629921,"duration":0.33749999999997726},{"name":"C#5","midi":73,"time":480.7499999999995,"velocity":0.7480314960629921,"duration":0.33749999999997726},{"name":"A4","midi":69,"time":480.7499999999995,"velocity":0.7480314960629921,"duration":0.33749999999997726},{"name":"D4","midi":62,"time":480.7499999999995,"velocity":0.7480314960629921,"duration":0.33749999999997726},{"name":"D4","midi":62,"time":481.1249999999995,"velocity":0.7480314960629921,"duration":0.33749999999997726},{"name":"C#5","midi":73,"time":481.1249999999995,"velocity":0.7480314960629921,"duration":0.33749999999997726},{"name":"A4","midi":69,"time":481.1249999999995,"velocity":0.7480314960629921,"duration":0.33749999999997726},{"name":"A4","midi":69,"time":481.4999999999995,"velocity":0.7480314960629921,"duration":0.33749999999997726},{"name":"D4","midi":62,"time":481.4999999999995,"velocity":0.7480314960629921,"duration":0.33749999999997726},{"name":"C#5","midi":73,"time":481.4999999999995,"velocity":0.7480314960629921,"duration":0.33749999999997726},{"name":"D4","midi":62,"time":481.8749999999995,"velocity":0.7480314960629921,"duration":0.33749999999997726},{"name":"A4","midi":69,"time":481.8749999999995,"velocity":0.7480314960629921,"duration":0.33749999999997726},{"name":"C#5","midi":73,"time":481.8749999999995,"velocity":0.7480314960629921,"duration":0.33749999999997726},{"name":"F#5","midi":78,"time":481.8749999999995,"velocity":0.7480314960629921,"duration":0.33749999999997726},{"name":"A4","midi":69,"time":482.2499999999995,"velocity":0.7480314960629921,"duration":0.33749999999997726},{"name":"C#5","midi":73,"time":482.2499999999995,"velocity":0.7480314960629921,"duration":0.33749999999997726},{"name":"F#5","midi":78,"time":482.2499999999995,"velocity":0.7480314960629921,"duration":0.33749999999997726},{"name":"D4","midi":62,"time":482.2499999999995,"velocity":0.7480314960629921,"duration":0.33749999999997726},{"name":"D4","midi":62,"time":482.6249999999995,"velocity":0.7480314960629921,"duration":0.33749999999997726},{"name":"A4","midi":69,"time":482.6249999999995,"velocity":0.7480314960629921,"duration":0.33749999999997726},{"name":"C#5","midi":73,"time":482.6249999999995,"velocity":0.7480314960629921,"duration":0.33749999999997726},{"name":"F#5","midi":78,"time":482.9999999999995,"velocity":0.7480314960629921,"duration":0.33749999999997726},{"name":"A4","midi":69,"time":482.9999999999995,"velocity":0.7480314960629921,"duration":0.33749999999997726},{"name":"E4","midi":64,"time":482.9999999999995,"velocity":0.7480314960629921,"duration":0.33749999999997726},{"name":"C#5","midi":73,"time":482.9999999999995,"velocity":0.7480314960629921,"duration":0.33749999999997726},{"name":"A3","midi":57,"time":482.9999999999995,"velocity":0.7480314960629921,"duration":0.33749999999997726},{"name":"E4","midi":64,"time":483.3749999999995,"velocity":0.7480314960629921,"duration":0.33749999999997726},{"name":"A4","midi":69,"time":483.3749999999995,"velocity":0.7480314960629921,"duration":0.33749999999997726},{"name":"C#5","midi":73,"time":483.3749999999995,"velocity":0.7480314960629921,"duration":0.33749999999997726},{"name":"F#5","midi":78,"time":483.3749999999995,"velocity":0.7480314960629921,"duration":0.33749999999997726},{"name":"A3","midi":57,"time":483.3749999999995,"velocity":0.7480314960629921,"duration":0.33749999999997726},{"name":"A3","midi":57,"time":483.7499999999995,"velocity":0.7480314960629921,"duration":0.5062500000000227},{"name":"E4","midi":64,"time":483.7499999999995,"velocity":0.7480314960629921,"duration":0.5062500000000227},{"name":"A4","midi":69,"time":483.7499999999995,"velocity":0.7480314960629921,"duration":0.5062500000000227},{"name":"C#5","midi":73,"time":483.7499999999995,"velocity":0.7480314960629921,"duration":0.5062500000000227},{"name":"E5","midi":76,"time":483.7499999999995,"velocity":0.7480314960629921,"duration":0.5062500000000227},{"name":"A4","midi":69,"time":484.3124999999995,"velocity":0.7480314960629921,"duration":0.16874999999998863},{"name":"E4","midi":64,"time":484.3124999999995,"velocity":0.7480314960629921,"duration":0.16874999999998863},{"name":"A3","midi":57,"time":484.3124999999995,"velocity":0.7480314960629921,"duration":0.16874999999998863},{"name":"C#5","midi":73,"time":484.3124999999995,"velocity":0.7480314960629921,"duration":0.16874999999998863},{"name":"E5","midi":76,"time":484.3124999999995,"velocity":0.7480314960629921,"duration":0.16874999999998863},{"name":"C#5","midi":73,"time":484.4999999999995,"velocity":0.7480314960629921,"duration":0.33749999999997726},{"name":"F#5","midi":78,"time":484.4999999999995,"velocity":0.7480314960629921,"duration":0.33749999999997726},{"name":"A4","midi":69,"time":484.4999999999995,"velocity":0.7480314960629921,"duration":0.33749999999997726},{"name":"E4","midi":64,"time":484.4999999999995,"velocity":0.7480314960629921,"duration":0.33749999999997726},{"name":"A3","midi":57,"time":484.4999999999995,"velocity":0.7480314960629921,"duration":0.33749999999997726},{"name":"C#5","midi":73,"time":484.8749999999995,"velocity":0.7480314960629921,"duration":0.33749999999997726},{"name":"E4","midi":64,"time":484.8749999999995,"velocity":0.7480314960629921,"duration":0.33749999999997726},{"name":"A4","midi":69,"time":484.8749999999995,"velocity":0.7480314960629921,"duration":0.33749999999997726},{"name":"A3","midi":57,"time":484.8749999999995,"velocity":0.7480314960629921,"duration":0.33749999999997726},{"name":"F#5","midi":78,"time":484.8749999999995,"velocity":0.7480314960629921,"duration":0.33749999999997726},{"name":"E4","midi":64,"time":485.2499999999995,"velocity":0.7480314960629921,"duration":0.5062500000000227},{"name":"A4","midi":69,"time":485.2499999999995,"velocity":0.7480314960629921,"duration":0.5062500000000227},{"name":"C#5","midi":73,"time":485.2499999999995,"velocity":0.7480314960629921,"duration":0.5062500000000227},{"name":"E5","midi":76,"time":485.2499999999995,"velocity":0.7480314960629921,"duration":0.5062500000000227},{"name":"A3","midi":57,"time":485.2499999999995,"velocity":0.7480314960629921,"duration":0.5062500000000227},{"name":"E5","midi":76,"time":485.8124999999995,"velocity":0.7480314960629921,"duration":0.16874999999998863},{"name":"C#5","midi":73,"time":485.8124999999995,"velocity":0.7480314960629921,"duration":0.16874999999998863},{"name":"A4","midi":69,"time":485.8124999999995,"velocity":0.7480314960629921,"duration":0.16874999999998863},{"name":"E4","midi":64,"time":485.8124999999995,"velocity":0.7480314960629921,"duration":0.16874999999998863},{"name":"A3","midi":57,"time":485.8124999999995,"velocity":0.7480314960629921,"duration":0.16874999999998863},{"name":"E4","midi":64,"time":485.9999999999995,"velocity":0.7480314960629921,"duration":0.33749999999997726},{"name":"F#5","midi":78,"time":485.9999999999995,"velocity":0.7480314960629921,"duration":0.33749999999997726},{"name":"C#5","midi":73,"time":485.9999999999995,"velocity":0.7480314960629921,"duration":0.33749999999997726},{"name":"A4","midi":69,"time":485.9999999999995,"velocity":0.7480314960629921,"duration":0.33749999999997726},{"name":"A3","midi":57,"time":485.9999999999995,"velocity":0.7480314960629921,"duration":0.33749999999997726},{"name":"C#5","midi":73,"time":486.3749999999995,"velocity":0.7480314960629921,"duration":0.33749999999997726},{"name":"A4","midi":69,"time":486.3749999999995,"velocity":0.7480314960629921,"duration":0.33749999999997726},{"name":"E4","midi":64,"time":486.3749999999995,"velocity":0.7480314960629921,"duration":0.33749999999997726},{"name":"F#5","midi":78,"time":486.3749999999995,"velocity":0.7480314960629921,"duration":0.33749999999997726},{"name":"A3","midi":57,"time":486.3749999999995,"velocity":0.7480314960629921,"duration":0.33749999999997726},{"name":"E4","midi":64,"time":486.7499999999995,"velocity":0.7480314960629921,"duration":0.5062500000000227},{"name":"A3","midi":57,"time":486.7499999999995,"velocity":0.7480314960629921,"duration":0.5062500000000227},{"name":"E5","midi":76,"time":486.7499999999995,"velocity":0.7480314960629921,"duration":0.5062500000000227},{"name":"C#5","midi":73,"time":486.7499999999995,"velocity":0.7480314960629921,"duration":0.5062500000000227},{"name":"A4","midi":69,"time":486.7499999999995,"velocity":0.7480314960629921,"duration":0.5062500000000227},{"name":"E4","midi":64,"time":487.3124999999995,"velocity":0.7480314960629921,"duration":0.16874999999998863},{"name":"A4","midi":69,"time":487.3124999999995,"velocity":0.7480314960629921,"duration":0.16874999999998863},{"name":"C#5","midi":73,"time":487.3124999999995,"velocity":0.7480314960629921,"duration":0.16874999999998863},{"name":"E5","midi":76,"time":487.3124999999995,"velocity":0.7480314960629921,"duration":0.16874999999998863},{"name":"A3","midi":57,"time":487.3124999999995,"velocity":0.7480314960629921,"duration":0.16874999999998863},{"name":"A3","midi":57,"time":487.4999999999995,"velocity":0.7480314960629921,"duration":0.33749999999997726},{"name":"E4","midi":64,"time":487.4999999999995,"velocity":0.7480314960629921,"duration":0.33749999999997726},{"name":"C#5","midi":73,"time":487.4999999999995,"velocity":0.7480314960629921,"duration":0.33749999999997726},{"name":"F#5","midi":78,"time":487.4999999999995,"velocity":0.7480314960629921,"duration":0.33749999999997726},{"name":"A4","midi":69,"time":487.4999999999995,"velocity":0.7480314960629921,"duration":0.33749999999997726},{"name":"C#5","midi":73,"time":487.8749999999995,"velocity":0.7480314960629921,"duration":0.33749999999997726},{"name":"A4","midi":69,"time":487.8749999999995,"velocity":0.7480314960629921,"duration":0.33749999999997726},{"name":"E4","midi":64,"time":487.8749999999995,"velocity":0.7480314960629921,"duration":0.33749999999997726},{"name":"F#5","midi":78,"time":487.8749999999995,"velocity":0.7480314960629921,"duration":0.33749999999997726},{"name":"A3","midi":57,"time":487.8749999999995,"velocity":0.7480314960629921,"duration":0.33749999999997726},{"name":"C#5","midi":73,"time":488.2499999999995,"velocity":0.7480314960629921,"duration":0.5062500000000227},{"name":"A4","midi":69,"time":488.2499999999995,"velocity":0.7480314960629921,"duration":0.5062500000000227},{"name":"E4","midi":64,"time":488.2499999999995,"velocity":0.7480314960629921,"duration":0.5062500000000227},{"name":"A3","midi":57,"time":488.2499999999995,"velocity":0.7480314960629921,"duration":0.5062500000000227},{"name":"E5","midi":76,"time":488.2499999999995,"velocity":0.7480314960629921,"duration":0.5062500000000227},{"name":"E5","midi":76,"time":488.8124999999995,"velocity":0.7480314960629921,"duration":0.16874999999998863},{"name":"A3","midi":57,"time":488.8124999999995,"velocity":0.7480314960629921,"duration":0.16874999999998863},{"name":"E4","midi":64,"time":488.8124999999995,"velocity":0.7480314960629921,"duration":0.16874999999998863},{"name":"A4","midi":69,"time":488.8124999999995,"velocity":0.7480314960629921,"duration":0.16874999999998863},{"name":"C#5","midi":73,"time":488.8124999999995,"velocity":0.7480314960629921,"duration":0.16874999999998863},{"name":"F#5","midi":78,"time":488.9999999999995,"velocity":0.7480314960629921,"duration":0.33749999999997726},{"name":"D5","midi":74,"time":488.9999999999995,"velocity":0.7480314960629921,"duration":0.33749999999997726},{"name":"A4","midi":69,"time":488.9999999999995,"velocity":0.7480314960629921,"duration":0.33749999999997726},{"name":"D4","midi":62,"time":488.9999999999995,"velocity":0.7480314960629921,"duration":0.33749999999997726},{"name":"D4","midi":62,"time":489.3749999999995,"velocity":0.7480314960629921,"duration":0.33749999999997726},{"name":"A4","midi":69,"time":489.3749999999995,"velocity":0.7480314960629921,"duration":0.33749999999997726},{"name":"D5","midi":74,"time":489.3749999999995,"velocity":0.7480314960629921,"duration":0.33749999999997726},{"name":"F#5","midi":78,"time":489.3749999999995,"velocity":0.7480314960629921,"duration":0.33749999999997726},{"name":"A4","midi":69,"time":489.7499999999995,"velocity":0.7480314960629921,"duration":0.5062500000000227},{"name":"D5","midi":74,"time":489.7499999999995,"velocity":0.7480314960629921,"duration":0.5062500000000227},{"name":"E5","midi":76,"time":489.7499999999995,"velocity":0.7480314960629921,"duration":0.5062500000000227},{"name":"D4","midi":62,"time":489.7499999999995,"velocity":0.7480314960629921,"duration":0.5062500000000227},{"name":"D4","midi":62,"time":490.3124999999995,"velocity":0.7480314960629921,"duration":0.16874999999998863},{"name":"A4","midi":69,"time":490.3124999999995,"velocity":0.7480314960629921,"duration":0.16874999999998863},{"name":"D5","midi":74,"time":490.3124999999995,"velocity":0.7480314960629921,"duration":0.16874999999998863},{"name":"E5","midi":76,"time":490.3124999999995,"velocity":0.7480314960629921,"duration":0.16874999999998863},{"name":"D4","midi":62,"time":490.4999999999995,"velocity":0.7480314960629921,"duration":0.33749999999997726},{"name":"D5","midi":74,"time":490.4999999999995,"velocity":0.7480314960629921,"duration":0.33749999999997726},{"name":"A4","midi":69,"time":490.4999999999995,"velocity":0.7480314960629921,"duration":0.33749999999997726},{"name":"F#5","midi":78,"time":490.4999999999995,"velocity":0.7480314960629921,"duration":0.33749999999997726},{"name":"F#5","midi":78,"time":490.8749999999995,"velocity":0.7480314960629921,"duration":0.33749999999997726},{"name":"D5","midi":74,"time":490.8749999999995,"velocity":0.7480314960629921,"duration":0.33749999999997726},{"name":"D4","midi":62,"time":490.8749999999995,"velocity":0.7480314960629921,"duration":0.33749999999997726},{"name":"A4","midi":69,"time":490.8749999999995,"velocity":0.7480314960629921,"duration":0.33749999999997726},{"name":"D5","midi":74,"time":491.2499999999995,"velocity":0.7480314960629921,"duration":0.5062500000000227},{"name":"E5","midi":76,"time":491.2499999999995,"velocity":0.7480314960629921,"duration":0.5062500000000227},{"name":"A4","midi":69,"time":491.2499999999995,"velocity":0.7480314960629921,"duration":0.5062500000000227},{"name":"D4","midi":62,"time":491.2499999999995,"velocity":0.7480314960629921,"duration":0.5062500000000227},{"name":"A4","midi":69,"time":491.8124999999995,"velocity":0.7480314960629921,"duration":0.16874999999998863},{"name":"D4","midi":62,"time":491.8124999999995,"velocity":0.7480314960629921,"duration":0.16874999999998863},{"name":"D5","midi":74,"time":491.8124999999995,"velocity":0.7480314960629921,"duration":0.16874999999998863},{"name":"E5","midi":76,"time":491.8124999999995,"velocity":0.7480314960629921,"duration":0.16874999999998863},{"name":"D5","midi":74,"time":491.9999999999995,"velocity":0.7480314960629921,"duration":0.33749999999997726},{"name":"A4","midi":69,"time":491.9999999999995,"velocity":0.7480314960629921,"duration":0.33749999999997726},{"name":"D4","midi":62,"time":491.9999999999995,"velocity":0.7480314960629921,"duration":0.33749999999997726},{"name":"E5","midi":76,"time":491.9999999999995,"velocity":0.7480314960629921,"duration":0.33749999999997726},{"name":"D4","midi":62,"time":492.3749999999995,"velocity":0.7480314960629921,"duration":0.33749999999997726},{"name":"A4","midi":69,"time":492.3749999999995,"velocity":0.7480314960629921,"duration":0.33749999999997726},{"name":"D5","midi":74,"time":492.3749999999995,"velocity":0.7480314960629921,"duration":0.33749999999997726},{"name":"E5","midi":76,"time":492.3749999999995,"velocity":0.7480314960629921,"duration":0.33749999999997726},{"name":"E5","midi":76,"time":492.7499999999995,"velocity":0.7480314960629921,"duration":0.5062500000000227},{"name":"D5","midi":74,"time":492.7499999999995,"velocity":0.7480314960629921,"duration":0.5062500000000227},{"name":"D4","midi":62,"time":492.7499999999995,"velocity":0.7480314960629921,"duration":0.5062500000000227},{"name":"A4","midi":69,"time":492.7499999999995,"velocity":0.7480314960629921,"duration":0.5062500000000227},{"name":"D5","midi":74,"time":493.3124999999995,"velocity":0.7480314960629921,"duration":0.16874999999998863},{"name":"D4","midi":62,"time":493.3124999999995,"velocity":0.7480314960629921,"duration":0.16874999999998863},{"name":"A4","midi":69,"time":493.3124999999995,"velocity":0.7480314960629921,"duration":0.16874999999998863},{"name":"E5","midi":76,"time":493.3124999999995,"velocity":0.7480314960629921,"duration":0.16874999999998863},{"name":"D5","midi":74,"time":493.4999999999995,"velocity":0.7480314960629921,"duration":0.33749999999997726},{"name":"A4","midi":69,"time":493.4999999999995,"velocity":0.7480314960629921,"duration":0.33749999999997726},{"name":"D4","midi":62,"time":493.4999999999995,"velocity":0.7480314960629921,"duration":0.33749999999997726},{"name":"F#5","midi":78,"time":493.4999999999995,"velocity":0.7480314960629921,"duration":0.33749999999997726},{"name":"D5","midi":74,"time":493.8749999999995,"velocity":0.7480314960629921,"duration":0.33749999999997726},{"name":"A4","midi":69,"time":493.8749999999995,"velocity":0.7480314960629921,"duration":0.33749999999997726},{"name":"D4","midi":62,"time":493.8749999999995,"velocity":0.7480314960629921,"duration":0.33749999999997726},{"name":"F#5","midi":78,"time":493.8749999999995,"velocity":0.7480314960629921,"duration":0.33749999999997726},{"name":"D4","midi":62,"time":494.2499999999995,"velocity":0.7480314960629921,"duration":0.5062500000000227},{"name":"E5","midi":76,"time":494.2499999999995,"velocity":0.7480314960629921,"duration":0.5062500000000227},{"name":"D5","midi":74,"time":494.2499999999995,"velocity":0.7480314960629921,"duration":0.5062500000000227},{"name":"A4","midi":69,"time":494.2499999999995,"velocity":0.7480314960629921,"duration":0.5062500000000227},{"name":"A4","midi":69,"time":494.8124999999995,"velocity":0.7480314960629921,"duration":0.16874999999998863},{"name":"D4","midi":62,"time":494.8124999999995,"velocity":0.7480314960629921,"duration":0.16874999999998863},{"name":"E5","midi":76,"time":494.8124999999995,"velocity":0.7480314960629921,"duration":0.16874999999998863},{"name":"D5","midi":74,"time":494.8124999999995,"velocity":0.7480314960629921,"duration":0.16874999999998863},{"name":"F#5","midi":78,"time":494.9999999999995,"velocity":0.7480314960629921,"duration":0.33749999999997726},{"name":"B4","midi":71,"time":494.9999999999995,"velocity":0.7480314960629921,"duration":0.33749999999997726},{"name":"F#4","midi":66,"time":494.9999999999995,"velocity":0.7480314960629921,"duration":0.33749999999997726},{"name":"B3","midi":59,"time":494.9999999999995,"velocity":0.7480314960629921,"duration":0.33749999999997726},{"name":"D5","midi":74,"time":494.9999999999995,"velocity":0.7480314960629921,"duration":0.33749999999997726},{"name":"F#5","midi":78,"time":495.3749999999995,"velocity":0.7480314960629921,"duration":0.33749999999997726},{"name":"D5","midi":74,"time":495.3749999999995,"velocity":0.7480314960629921,"duration":0.33749999999997726},{"name":"B4","midi":71,"time":495.3749999999995,"velocity":0.7480314960629921,"duration":0.33749999999997726},{"name":"F#4","midi":66,"time":495.3749999999995,"velocity":0.7480314960629921,"duration":0.33749999999997726},{"name":"B3","midi":59,"time":495.3749999999995,"velocity":0.7480314960629921,"duration":0.33749999999997726},{"name":"B3","midi":59,"time":495.7499999999995,"velocity":0.7480314960629921,"duration":0.5062500000000227},{"name":"E5","midi":76,"time":495.7499999999995,"velocity":0.7480314960629921,"duration":0.5062500000000227},{"name":"F#4","midi":66,"time":495.7499999999995,"velocity":0.7480314960629921,"duration":0.5062500000000227},{"name":"B4","midi":71,"time":495.7499999999995,"velocity":0.7480314960629921,"duration":0.5062500000000227},{"name":"D5","midi":74,"time":495.7499999999995,"velocity":0.7480314960629921,"duration":0.5062500000000227},{"name":"D5","midi":74,"time":496.3124999999995,"velocity":0.7480314960629921,"duration":0.16874999999998863},{"name":"B4","midi":71,"time":496.3124999999995,"velocity":0.7480314960629921,"duration":0.16874999999998863},{"name":"F#4","midi":66,"time":496.3124999999995,"velocity":0.7480314960629921,"duration":0.16874999999998863},{"name":"E5","midi":76,"time":496.3124999999995,"velocity":0.7480314960629921,"duration":0.16874999999998863},{"name":"B3","midi":59,"time":496.3124999999995,"velocity":0.7480314960629921,"duration":0.16874999999998863},{"name":"D5","midi":74,"time":496.4999999999995,"velocity":0.7480314960629921,"duration":0.33749999999997726},{"name":"F#4","midi":66,"time":496.4999999999995,"velocity":0.7480314960629921,"duration":0.33749999999997726},{"name":"B4","midi":71,"time":496.4999999999995,"velocity":0.7480314960629921,"duration":0.33749999999997726},{"name":"B3","midi":59,"time":496.4999999999995,"velocity":0.7480314960629921,"duration":0.33749999999997726},{"name":"F#5","midi":78,"time":496.4999999999995,"velocity":0.7480314960629921,"duration":0.33749999999997726},{"name":"B3","midi":59,"time":496.8749999999995,"velocity":0.7480314960629921,"duration":0.33749999999997726},{"name":"F#5","midi":78,"time":496.8749999999995,"velocity":0.7480314960629921,"duration":0.33749999999997726},{"name":"D5","midi":74,"time":496.8749999999995,"velocity":0.7480314960629921,"duration":0.33749999999997726},{"name":"B4","midi":71,"time":496.8749999999995,"velocity":0.7480314960629921,"duration":0.33749999999997726},{"name":"F#4","midi":66,"time":496.8749999999995,"velocity":0.7480314960629921,"duration":0.33749999999997726},{"name":"B3","midi":59,"time":497.2499999999995,"velocity":0.7480314960629921,"duration":0.5062500000000227},{"name":"E5","midi":76,"time":497.2499999999995,"velocity":0.7480314960629921,"duration":0.5062500000000227},{"name":"D5","midi":74,"time":497.2499999999995,"velocity":0.7480314960629921,"duration":0.5062500000000227},{"name":"B4","midi":71,"time":497.2499999999995,"velocity":0.7480314960629921,"duration":0.5062500000000227},{"name":"F#4","midi":66,"time":497.2499999999995,"velocity":0.7480314960629921,"duration":0.5062500000000227},{"name":"E5","midi":76,"time":497.8124999999995,"velocity":0.7480314960629921,"duration":0.16874999999998863},{"name":"F#4","midi":66,"time":497.8124999999995,"velocity":0.7480314960629921,"duration":0.16874999999998863},{"name":"B4","midi":71,"time":497.8124999999995,"velocity":0.7480314960629921,"duration":0.16874999999998863},{"name":"D5","midi":74,"time":497.8124999999995,"velocity":0.7480314960629921,"duration":0.16874999999998863},{"name":"B3","midi":59,"time":497.8124999999995,"velocity":0.7480314960629921,"duration":0.16874999999998863},{"name":"B4","midi":71,"time":497.9999999999995,"velocity":0.7480314960629921,"duration":0.33749999999997726},{"name":"C#4","midi":61,"time":497.9999999999995,"velocity":0.7480314960629921,"duration":0.33749999999997726},{"name":"F#5","midi":78,"time":497.9999999999995,"velocity":0.7480314960629921,"duration":0.33749999999997726},{"name":"G#4","midi":68,"time":497.9999999999995,"velocity":0.7480314960629921,"duration":0.33749999999997726},{"name":"C#4","midi":61,"time":498.3749999999995,"velocity":0.7480314960629921,"duration":0.33749999999997726},{"name":"G#4","midi":68,"time":498.3749999999995,"velocity":0.7480314960629921,"duration":0.33749999999997726},{"name":"B4","midi":71,"time":498.3749999999995,"velocity":0.7480314960629921,"duration":0.33749999999997726},{"name":"F#5","midi":78,"time":498.3749999999995,"velocity":0.7480314960629921,"duration":0.33749999999997726},{"name":"E5","midi":76,"time":498.7499999999995,"velocity":0.7480314960629921,"duration":0.5062500000000227},{"name":"B4","midi":71,"time":498.7499999999995,"velocity":0.7480314960629921,"duration":0.5062500000000227},{"name":"G#4","midi":68,"time":498.7499999999995,"velocity":0.7480314960629921,"duration":0.5062500000000227},{"name":"C#4","midi":61,"time":498.7499999999995,"velocity":0.7480314960629921,"duration":0.5062500000000227},{"name":"C#4","midi":61,"time":499.3124999999995,"velocity":0.7480314960629921,"duration":0.16874999999998863},{"name":"G#4","midi":68,"time":499.3124999999995,"velocity":0.7480314960629921,"duration":0.16874999999998863},{"name":"B4","midi":71,"time":499.3124999999995,"velocity":0.7480314960629921,"duration":0.16874999999998863},{"name":"E5","midi":76,"time":499.3124999999995,"velocity":0.7480314960629921,"duration":0.16874999999998863},{"name":"F#5","midi":78,"time":499.4999999999995,"velocity":0.7480314960629921,"duration":0.33749999999997726},{"name":"C#4","midi":61,"time":499.4999999999995,"velocity":0.7480314960629921,"duration":0.33749999999997726},{"name":"G#4","midi":68,"time":499.4999999999995,"velocity":0.7480314960629921,"duration":0.33749999999997726},{"name":"B4","midi":71,"time":499.4999999999995,"velocity":0.7480314960629921,"duration":0.33749999999997726},{"name":"F#5","midi":78,"time":499.8749999999995,"velocity":0.7480314960629921,"duration":0.33749999999997726},{"name":"G#4","midi":68,"time":499.8749999999995,"velocity":0.7480314960629921,"duration":0.33749999999997726},{"name":"C#4","midi":61,"time":499.8749999999995,"velocity":0.7480314960629921,"duration":0.33749999999997726},{"name":"B4","midi":71,"time":499.8749999999995,"velocity":0.7480314960629921,"duration":0.33749999999997726},{"name":"B4","midi":71,"time":500.2499999999995,"velocity":0.7480314960629921,"duration":0.5062500000000227},{"name":"G#4","midi":68,"time":500.2499999999995,"velocity":0.7480314960629921,"duration":0.5062500000000227},{"name":"E5","midi":76,"time":500.2499999999995,"velocity":0.7480314960629921,"duration":0.5062500000000227},{"name":"C#4","midi":61,"time":500.2499999999995,"velocity":0.7480314960629921,"duration":0.5062500000000227},{"name":"B4","midi":71,"time":500.8124999999995,"velocity":0.7480314960629921,"duration":0.16874999999998863},{"name":"E5","midi":76,"time":500.8124999999995,"velocity":0.7480314960629921,"duration":0.16874999999998863},{"name":"G#4","midi":68,"time":500.8124999999995,"velocity":0.7480314960629921,"duration":0.16874999999998863},{"name":"C#4","midi":61,"time":500.8124999999995,"velocity":0.7480314960629921,"duration":0.16874999999998863},{"name":"A5","midi":81,"time":500.9999999999995,"velocity":0.7480314960629921,"duration":0.33749999999997726},{"name":"D4","midi":62,"time":500.9999999999995,"velocity":0.7480314960629921,"duration":0.33749999999997726},{"name":"A4","midi":69,"time":500.9999999999995,"velocity":0.7480314960629921,"duration":0.33749999999997726},{"name":"D5","midi":74,"time":500.9999999999995,"velocity":0.7480314960629921,"duration":0.33749999999997726},{"name":"F#5","midi":78,"time":500.9999999999995,"velocity":0.7480314960629921,"duration":0.33749999999997726},{"name":"F#5","midi":78,"time":501.3749999999995,"velocity":0.7480314960629921,"duration":0.33749999999997726},{"name":"D5","midi":74,"time":501.3749999999995,"velocity":0.7480314960629921,"duration":0.33749999999997726},{"name":"D4","midi":62,"time":501.3749999999995,"velocity":0.7480314960629921,"duration":0.33749999999997726},{"name":"A4","midi":69,"time":501.3749999999995,"velocity":0.7480314960629921,"duration":0.33749999999997726},{"name":"A5","midi":81,"time":501.3749999999995,"velocity":0.7480314960629921,"duration":0.33749999999997726},{"name":"A5","midi":81,"time":501.7499999999995,"velocity":0.7480314960629921,"duration":0.5062500000000227},{"name":"A4","midi":69,"time":501.7499999999995,"velocity":0.7480314960629921,"duration":0.5062500000000227},{"name":"D5","midi":74,"time":501.7499999999995,"velocity":0.7480314960629921,"duration":0.5062500000000227},{"name":"D4","midi":62,"time":501.7499999999995,"velocity":0.7480314960629921,"duration":0.5062500000000227},{"name":"F#5","midi":78,"time":501.7499999999995,"velocity":0.7480314960629921,"duration":0.5062500000000227},{"name":"D4","midi":62,"time":502.3124999999995,"velocity":0.7480314960629921,"duration":0.16874999999998863},{"name":"D5","midi":74,"time":502.3124999999995,"velocity":0.7480314960629921,"duration":0.16874999999998863},{"name":"F#5","midi":78,"time":502.3124999999995,"velocity":0.7480314960629921,"duration":0.16874999999998863},{"name":"A5","midi":81,"time":502.3124999999995,"velocity":0.7480314960629921,"duration":0.16874999999998863},{"name":"A4","midi":69,"time":502.3124999999995,"velocity":0.7480314960629921,"duration":0.16874999999998863},{"name":"D5","midi":74,"time":502.4999999999995,"velocity":0.7480314960629921,"duration":0.33749999999997726},{"name":"D4","midi":62,"time":502.4999999999995,"velocity":0.7480314960629921,"duration":0.33749999999997726},{"name":"A4","midi":69,"time":502.4999999999995,"velocity":0.7480314960629921,"duration":0.33749999999997726},{"name":"F#5","midi":78,"time":502.4999999999995,"velocity":0.7480314960629921,"duration":0.33749999999997726},{"name":"A5","midi":81,"time":502.4999999999995,"velocity":0.7480314960629921,"duration":0.33749999999997726},{"name":"A5","midi":81,"time":502.8749999999995,"velocity":0.7480314960629921,"duration":0.33749999999997726},{"name":"D5","midi":74,"time":502.8749999999995,"velocity":0.7480314960629921,"duration":0.33749999999997726},{"name":"A4","midi":69,"time":502.8749999999995,"velocity":0.7480314960629921,"duration":0.33749999999997726},{"name":"D4","midi":62,"time":502.8749999999995,"velocity":0.7480314960629921,"duration":0.33749999999997726},{"name":"F#5","midi":78,"time":502.8749999999995,"velocity":0.7480314960629921,"duration":0.33749999999997726},{"name":"D5","midi":74,"time":503.2499999999995,"velocity":0.7480314960629921,"duration":0.5062500000000227},{"name":"A4","midi":69,"time":503.2499999999995,"velocity":0.7480314960629921,"duration":0.5062500000000227},{"name":"D4","midi":62,"time":503.2499999999995,"velocity":0.7480314960629921,"duration":0.5062500000000227},{"name":"A5","midi":81,"time":503.2499999999995,"velocity":0.7480314960629921,"duration":0.5062500000000227},{"name":"F#5","midi":78,"time":503.2499999999995,"velocity":0.7480314960629921,"duration":0.5062500000000227},{"name":"F#5","midi":78,"time":503.8124999999995,"velocity":0.7480314960629921,"duration":0.16874999999998863},{"name":"A5","midi":81,"time":503.8124999999995,"velocity":0.7480314960629921,"duration":0.16874999999998863},{"name":"D4","midi":62,"time":503.8124999999995,"velocity":0.7480314960629921,"duration":0.16874999999998863},{"name":"D5","midi":74,"time":503.8124999999995,"velocity":0.7480314960629921,"duration":0.16874999999998863},{"name":"A4","midi":69,"time":503.8124999999995,"velocity":0.7480314960629921,"duration":0.16874999999998863},{"name":"D4","midi":62,"time":503.9999999999995,"velocity":0.7480314960629921,"duration":0.33749999999997726},{"name":"A5","midi":81,"time":503.9999999999995,"velocity":0.7480314960629921,"duration":0.33749999999997726},{"name":"F#5","midi":78,"time":503.9999999999995,"velocity":0.7480314960629921,"duration":0.33749999999997726},{"name":"D5","midi":74,"time":503.9999999999995,"velocity":0.7480314960629921,"duration":0.33749999999997726},{"name":"A4","midi":69,"time":503.9999999999995,"velocity":0.7480314960629921,"duration":0.33749999999997726},{"name":"F#5","midi":78,"time":504.3749999999995,"velocity":0.7480314960629921,"duration":0.33749999999997726},{"name":"D4","midi":62,"time":504.3749999999995,"velocity":0.7480314960629921,"duration":0.33749999999997726},{"name":"A4","midi":69,"time":504.3749999999995,"velocity":0.7480314960629921,"duration":0.33749999999997726},{"name":"A5","midi":81,"time":504.3749999999995,"velocity":0.7480314960629921,"duration":0.33749999999997726},{"name":"D5","midi":74,"time":504.3749999999995,"velocity":0.7480314960629921,"duration":0.33749999999997726},{"name":"A5","midi":81,"time":504.7499999999995,"velocity":0.7480314960629921,"duration":0.5062500000000227},{"name":"F#5","midi":78,"time":504.7499999999995,"velocity":0.7480314960629921,"duration":0.5062500000000227},{"name":"D5","midi":74,"time":504.7499999999995,"velocity":0.7480314960629921,"duration":0.5062500000000227},{"name":"A4","midi":69,"time":504.7499999999995,"velocity":0.7480314960629921,"duration":0.5062500000000227},{"name":"D4","midi":62,"time":504.7499999999995,"velocity":0.7480314960629921,"duration":0.5062500000000227},{"name":"A5","midi":81,"time":505.3124999999995,"velocity":0.7480314960629921,"duration":0.16874999999998863},{"name":"D4","midi":62,"time":505.3124999999995,"velocity":0.7480314960629921,"duration":0.16874999999998863},{"name":"A4","midi":69,"time":505.3124999999995,"velocity":0.7480314960629921,"duration":0.16874999999998863},{"name":"D5","midi":74,"time":505.3124999999995,"velocity":0.7480314960629921,"duration":0.16874999999998863},{"name":"F#5","midi":78,"time":505.3124999999995,"velocity":0.7480314960629921,"duration":0.16874999999998863},{"name":"D4","midi":62,"time":505.4999999999995,"velocity":0.7480314960629921,"duration":0.33749999999997726},{"name":"A4","midi":69,"time":505.4999999999995,"velocity":0.7480314960629921,"duration":0.33749999999997726},{"name":"D5","midi":74,"time":505.4999999999995,"velocity":0.7480314960629921,"duration":0.33749999999997726},{"name":"F#5","midi":78,"time":505.4999999999995,"velocity":0.7480314960629921,"duration":0.33749999999997726},{"name":"A5","midi":81,"time":505.4999999999995,"velocity":0.7480314960629921,"duration":0.33749999999997726},{"name":"D4","midi":62,"time":505.8749999999995,"velocity":0.7480314960629921,"duration":0.33749999999997726},{"name":"A4","midi":69,"time":505.8749999999995,"velocity":0.7480314960629921,"duration":0.33749999999997726},{"name":"D5","midi":74,"time":505.8749999999995,"velocity":0.7480314960629921,"duration":0.33749999999997726},{"name":"F#5","midi":78,"time":505.8749999999995,"velocity":0.7480314960629921,"duration":0.33749999999997726},{"name":"A5","midi":81,"time":505.8749999999995,"velocity":0.7480314960629921,"duration":0.33749999999997726},{"name":"F#5","midi":78,"time":506.2499999999995,"velocity":0.7480314960629921,"duration":0.5062500000000227},{"name":"A5","midi":81,"time":506.2499999999995,"velocity":0.7480314960629921,"duration":0.5062500000000227},{"name":"D4","midi":62,"time":506.2499999999995,"velocity":0.7480314960629921,"duration":0.5062500000000227},{"name":"D5","midi":74,"time":506.2499999999995,"velocity":0.7480314960629921,"duration":0.5062500000000227},{"name":"A4","midi":69,"time":506.2499999999995,"velocity":0.7480314960629921,"duration":0.5062500000000227},{"name":"D4","midi":62,"time":506.8124999999995,"velocity":0.7480314960629921,"duration":0.16874999999998863},{"name":"A4","midi":69,"time":506.8124999999995,"velocity":0.7480314960629921,"duration":0.16874999999998863},{"name":"A5","midi":81,"time":506.8124999999995,"velocity":0.7480314960629921,"duration":0.16874999999998863},{"name":"F#5","midi":78,"time":506.8124999999995,"velocity":0.7480314960629921,"duration":0.16874999999998863},{"name":"D5","midi":74,"time":506.8124999999995,"velocity":0.7480314960629921,"duration":0.16874999999998863},{"name":"E4","midi":64,"time":506.9999999999995,"velocity":0.7480314960629921,"duration":0.33749999999997726},{"name":"F#5","midi":78,"time":506.9999999999995,"velocity":0.7480314960629921,"duration":0.33749999999997726},{"name":"C#5","midi":73,"time":506.9999999999995,"velocity":0.7480314960629921,"duration":0.33749999999997726},{"name":"A4","midi":69,"time":506.9999999999995,"velocity":0.7480314960629921,"duration":0.33749999999997726},{"name":"A3","midi":57,"time":506.9999999999995,"velocity":0.7480314960629921,"duration":0.33749999999997726},{"name":"A4","midi":69,"time":507.3749999999995,"velocity":0.7480314960629921,"duration":0.33749999999997726},{"name":"C#5","midi":73,"time":507.3749999999995,"velocity":0.7480314960629921,"duration":0.33749999999997726},{"name":"F#5","midi":78,"time":507.3749999999995,"velocity":0.7480314960629921,"duration":0.33749999999997726},{"name":"A3","midi":57,"time":507.3749999999995,"velocity":0.7480314960629921,"duration":0.33749999999997726},{"name":"E4","midi":64,"time":507.3749999999995,"velocity":0.7480314960629921,"duration":0.33749999999997726},{"name":"E5","midi":76,"time":507.7499999999995,"velocity":0.7480314960629921,"duration":0.5062500000000227},{"name":"C#5","midi":73,"time":507.7499999999995,"velocity":0.7480314960629921,"duration":0.5062500000000227},{"name":"A4","midi":69,"time":507.7499999999995,"velocity":0.7480314960629921,"duration":0.5062500000000227},{"name":"E4","midi":64,"time":507.7499999999995,"velocity":0.7480314960629921,"duration":0.5062500000000227},{"name":"A3","midi":57,"time":507.7499999999995,"velocity":0.7480314960629921,"duration":0.5062500000000227},{"name":"A3","midi":57,"time":508.3124999999995,"velocity":0.7480314960629921,"duration":0.16874999999998863},{"name":"E4","midi":64,"time":508.3124999999995,"velocity":0.7480314960629921,"duration":0.16874999999998863},{"name":"A4","midi":69,"time":508.3124999999995,"velocity":0.7480314960629921,"duration":0.16874999999998863},{"name":"C#5","midi":73,"time":508.3124999999995,"velocity":0.7480314960629921,"duration":0.16874999999998863},{"name":"E5","midi":76,"time":508.3124999999995,"velocity":0.7480314960629921,"duration":0.16874999999998863},{"name":"E4","midi":64,"time":508.4999999999995,"velocity":0.7480314960629921,"duration":0.33749999999997726},{"name":"A3","midi":57,"time":508.4999999999995,"velocity":0.7480314960629921,"duration":0.33749999999997726},{"name":"F#5","midi":78,"time":508.4999999999995,"velocity":0.7480314960629921,"duration":0.33749999999997726},{"name":"C#5","midi":73,"time":508.4999999999995,"velocity":0.7480314960629921,"duration":0.33749999999997726},{"name":"A4","midi":69,"time":508.4999999999995,"velocity":0.7480314960629921,"duration":0.33749999999997726},{"name":"A3","midi":57,"time":508.8749999999995,"velocity":0.7480314960629921,"duration":0.33749999999997726},{"name":"E4","midi":64,"time":508.8749999999995,"velocity":0.7480314960629921,"duration":0.33749999999997726},{"name":"A4","midi":69,"time":508.8749999999995,"velocity":0.7480314960629921,"duration":0.33749999999997726},{"name":"C#5","midi":73,"time":508.8749999999995,"velocity":0.7480314960629921,"duration":0.33749999999997726},{"name":"F#5","midi":78,"time":508.8749999999995,"velocity":0.7480314960629921,"duration":0.33749999999997726},{"name":"A3","midi":57,"time":509.2499999999995,"velocity":0.7480314960629921,"duration":0.5062500000000227},{"name":"E4","midi":64,"time":509.2499999999995,"velocity":0.7480314960629921,"duration":0.5062500000000227},{"name":"A4","midi":69,"time":509.2499999999995,"velocity":0.7480314960629921,"duration":0.5062500000000227},{"name":"C#5","midi":73,"time":509.2499999999995,"velocity":0.7480314960629921,"duration":0.5062500000000227},{"name":"E5","midi":76,"time":509.2499999999995,"velocity":0.7480314960629921,"duration":0.5062500000000227},{"name":"E5","midi":76,"time":509.8124999999995,"velocity":0.7480314960629921,"duration":0.16874999999998863},{"name":"A3","midi":57,"time":509.8124999999995,"velocity":0.7480314960629921,"duration":0.16874999999998863},{"name":"E4","midi":64,"time":509.8124999999995,"velocity":0.7480314960629921,"duration":0.16874999999998863},{"name":"A4","midi":69,"time":509.8124999999995,"velocity":0.7480314960629921,"duration":0.16874999999998863},{"name":"C#5","midi":73,"time":509.8124999999995,"velocity":0.7480314960629921,"duration":0.16874999999998863},{"name":"C#5","midi":73,"time":509.9999999999995,"velocity":0.7480314960629921,"duration":0.33749999999997726},{"name":"A4","midi":69,"time":509.9999999999995,"velocity":0.7480314960629921,"duration":0.33749999999997726},{"name":"E4","midi":64,"time":509.9999999999995,"velocity":0.7480314960629921,"duration":0.33749999999997726},{"name":"A3","midi":57,"time":509.9999999999995,"velocity":0.7480314960629921,"duration":0.33749999999997726},{"name":"F#5","midi":78,"time":509.9999999999995,"velocity":0.7480314960629921,"duration":0.33749999999997726},{"name":"F#5","midi":78,"time":510.3749999999995,"velocity":0.7480314960629921,"duration":0.33749999999997726},{"name":"A3","midi":57,"time":510.3749999999995,"velocity":0.7480314960629921,"duration":0.33749999999997726},{"name":"E4","midi":64,"time":510.3749999999995,"velocity":0.7480314960629921,"duration":0.33749999999997726},{"name":"A4","midi":69,"time":510.3749999999995,"velocity":0.7480314960629921,"duration":0.33749999999997726},{"name":"C#5","midi":73,"time":510.3749999999995,"velocity":0.7480314960629921,"duration":0.33749999999997726},{"name":"A3","midi":57,"time":510.7499999999995,"velocity":0.7480314960629921,"duration":0.5062500000000227},{"name":"E4","midi":64,"time":510.7499999999995,"velocity":0.7480314960629921,"duration":0.5062500000000227},{"name":"A4","midi":69,"time":510.7499999999995,"velocity":0.7480314960629921,"duration":0.5062500000000227},{"name":"C#5","midi":73,"time":510.7499999999995,"velocity":0.7480314960629921,"duration":0.5062500000000227},{"name":"E5","midi":76,"time":510.7499999999995,"velocity":0.7480314960629921,"duration":0.5062500000000227},{"name":"A3","midi":57,"time":511.3124999999995,"velocity":0.7480314960629921,"duration":0.16874999999998863},{"name":"E4","midi":64,"time":511.3124999999995,"velocity":0.7480314960629921,"duration":0.16874999999998863},{"name":"A4","midi":69,"time":511.3124999999995,"velocity":0.7480314960629921,"duration":0.16874999999998863},{"name":"C#5","midi":73,"time":511.3124999999995,"velocity":0.7480314960629921,"duration":0.16874999999998863},{"name":"E5","midi":76,"time":511.3124999999995,"velocity":0.7480314960629921,"duration":0.16874999999998863},{"name":"F#5","midi":78,"time":511.4999999999995,"velocity":0.7480314960629921,"duration":0.33749999999997726},{"name":"C#5","midi":73,"time":511.4999999999995,"velocity":0.7480314960629921,"duration":0.33749999999997726},{"name":"A4","midi":69,"time":511.4999999999995,"velocity":0.7480314960629921,"duration":0.33749999999997726},{"name":"A3","midi":57,"time":511.4999999999995,"velocity":0.7480314960629921,"duration":0.33749999999997726},{"name":"E4","midi":64,"time":511.4999999999995,"velocity":0.7480314960629921,"duration":0.33749999999997726},{"name":"A3","midi":57,"time":511.8749999999995,"velocity":0.7480314960629921,"duration":0.3375000000000341},{"name":"E4","midi":64,"time":511.8749999999995,"velocity":0.7480314960629921,"duration":0.3375000000000341},{"name":"A4","midi":69,"time":511.8749999999995,"velocity":0.7480314960629921,"duration":0.3375000000000341},{"name":"C#5","midi":73,"time":511.8749999999995,"velocity":0.7480314960629921,"duration":0.3375000000000341},{"name":"F#5","midi":78,"time":511.8749999999995,"velocity":0.7480314960629921,"duration":0.3375000000000341},{"name":"E4","midi":64,"time":512.2499999999995,"velocity":0.7480314960629921,"duration":0.5062500000000227},{"name":"A3","midi":57,"time":512.2499999999995,"velocity":0.7480314960629921,"duration":0.5062500000000227},{"name":"E5","midi":76,"time":512.2499999999995,"velocity":0.7480314960629921,"duration":0.5062500000000227},{"name":"C#5","midi":73,"time":512.2499999999995,"velocity":0.7480314960629921,"duration":0.5062500000000227},{"name":"A4","midi":69,"time":512.2499999999995,"velocity":0.7480314960629921,"duration":0.5062500000000227},{"name":"C#5","midi":73,"time":512.8124999999995,"velocity":0.7480314960629921,"duration":0.16875000000004547},{"name":"A4","midi":69,"time":512.8124999999995,"velocity":0.7480314960629921,"duration":0.16875000000004547},{"name":"E4","midi":64,"time":512.8124999999995,"velocity":0.7480314960629921,"duration":0.16875000000004547},{"name":"A3","midi":57,"time":512.8124999999995,"velocity":0.7480314960629921,"duration":0.16875000000004547},{"name":"E5","midi":76,"time":512.8124999999995,"velocity":0.7480314960629921,"duration":0.16875000000004547},{"name":"F#5","midi":78,"time":512.9999999999995,"velocity":0.7480314960629921,"duration":0.33749999999997726},{"name":"C#5","midi":73,"time":512.9999999999995,"velocity":0.7480314960629921,"duration":0.33749999999997726},{"name":"A4","midi":69,"time":512.9999999999995,"velocity":0.7480314960629921,"duration":0.33749999999997726},{"name":"E4","midi":64,"time":512.9999999999995,"velocity":0.7480314960629921,"duration":0.33749999999997726},{"name":"A3","midi":57,"time":512.9999999999995,"velocity":0.7480314960629921,"duration":0.33749999999997726},{"name":"E4","midi":64,"time":513.3749999999995,"velocity":0.7480314960629921,"duration":0.33749999999997726},{"name":"A3","midi":57,"time":513.3749999999995,"velocity":0.7480314960629921,"duration":0.33749999999997726},{"name":"F#5","midi":78,"time":513.3749999999995,"velocity":0.7480314960629921,"duration":0.33749999999997726},{"name":"C#5","midi":73,"time":513.3749999999995,"velocity":0.7480314960629921,"duration":0.33749999999997726},{"name":"A4","midi":69,"time":513.3749999999995,"velocity":0.7480314960629921,"duration":0.33749999999997726},{"name":"C#5","midi":73,"time":513.7499999999995,"velocity":0.7480314960629921,"duration":0.5062500000000227},{"name":"E4","midi":64,"time":513.7499999999995,"velocity":0.7480314960629921,"duration":0.5062500000000227},{"name":"E5","midi":76,"time":513.7499999999995,"velocity":0.7480314960629921,"duration":0.5062500000000227},{"name":"A3","midi":57,"time":513.7499999999995,"velocity":0.7480314960629921,"duration":0.5062500000000227},{"name":"A4","midi":69,"time":513.7499999999995,"velocity":0.7480314960629921,"duration":0.5062500000000227},{"name":"A3","midi":57,"time":514.3124999999995,"velocity":0.7480314960629921,"duration":0.16875000000004547},{"name":"E4","midi":64,"time":514.3124999999995,"velocity":0.7480314960629921,"duration":0.16875000000004547},{"name":"A4","midi":69,"time":514.3124999999995,"velocity":0.7480314960629921,"duration":0.16875000000004547},{"name":"C#5","midi":73,"time":514.3124999999995,"velocity":0.7480314960629921,"duration":0.16875000000004547},{"name":"E5","midi":76,"time":514.3124999999995,"velocity":0.7480314960629921,"duration":0.16875000000004547},{"name":"A4","midi":69,"time":514.4999999999995,"velocity":0.7480314960629921,"duration":0.33749999999997726},{"name":"C#5","midi":73,"time":514.4999999999995,"velocity":0.7480314960629921,"duration":0.33749999999997726},{"name":"F#5","midi":78,"time":514.4999999999995,"velocity":0.7480314960629921,"duration":0.33749999999997726},{"name":"E4","midi":64,"time":514.4999999999995,"velocity":0.7480314960629921,"duration":0.33749999999997726},{"name":"A3","midi":57,"time":514.4999999999995,"velocity":0.7480314960629921,"duration":0.33749999999997726},{"name":"F#5","midi":78,"time":514.8749999999995,"velocity":0.7480314960629921,"duration":0.33749999999997726},{"name":"C#5","midi":73,"time":514.8749999999995,"velocity":0.7480314960629921,"duration":0.33749999999997726},{"name":"A4","midi":69,"time":514.8749999999995,"velocity":0.7480314960629921,"duration":0.33749999999997726},{"name":"E4","midi":64,"time":514.8749999999995,"velocity":0.7480314960629921,"duration":0.33749999999997726},{"name":"A3","midi":57,"time":514.8749999999995,"velocity":0.7480314960629921,"duration":0.33749999999997726},{"name":"C#5","midi":73,"time":515.2499999999995,"velocity":0.7480314960629921,"duration":0.5062500000000227},{"name":"A4","midi":69,"time":515.2499999999995,"velocity":0.7480314960629921,"duration":0.5062500000000227},{"name":"E4","midi":64,"time":515.2499999999995,"velocity":0.7480314960629921,"duration":0.5062500000000227},{"name":"A3","midi":57,"time":515.2499999999995,"velocity":0.7480314960629921,"duration":0.5062500000000227},{"name":"E5","midi":76,"time":515.2499999999995,"velocity":0.7480314960629921,"duration":0.5062500000000227},{"name":"C#5","midi":73,"time":515.8124999999995,"velocity":0.7480314960629921,"duration":0.16875000000004547},{"name":"E5","midi":76,"time":515.8124999999995,"velocity":0.7480314960629921,"duration":0.16875000000004547},{"name":"A4","midi":69,"time":515.8124999999995,"velocity":0.7480314960629921,"duration":0.16875000000004547},{"name":"E4","midi":64,"time":515.8124999999995,"velocity":0.7480314960629921,"duration":0.16875000000004547},{"name":"A3","midi":57,"time":515.8124999999995,"velocity":0.7480314960629921,"duration":0.16875000000004547},{"name":"D4","midi":62,"time":515.9999999999995,"velocity":0.7480314960629921,"duration":0.33749999999997726},{"name":"A4","midi":69,"time":515.9999999999995,"velocity":0.7480314960629921,"duration":0.33749999999997726},{"name":"D5","midi":74,"time":515.9999999999995,"velocity":0.7480314960629921,"duration":0.33749999999997726},{"name":"F#5","midi":78,"time":515.9999999999995,"velocity":0.7480314960629921,"duration":0.33749999999997726},{"name":"D4","midi":62,"time":516.3749999999995,"velocity":0.7480314960629921,"duration":0.33749999999997726},{"name":"A4","midi":69,"time":516.3749999999995,"velocity":0.7480314960629921,"duration":0.33749999999997726},{"name":"D5","midi":74,"time":516.3749999999995,"velocity":0.7480314960629921,"duration":0.33749999999997726},{"name":"F#5","midi":78,"time":516.3749999999995,"velocity":0.7480314960629921,"duration":0.33749999999997726},{"name":"A4","midi":69,"time":516.7499999999995,"velocity":0.7480314960629921,"duration":0.5062500000000227},{"name":"D4","midi":62,"time":516.7499999999995,"velocity":0.7480314960629921,"duration":0.5062500000000227},{"name":"E5","midi":76,"time":516.7499999999995,"velocity":0.7480314960629921,"duration":0.5062500000000227},{"name":"D5","midi":74,"time":516.7499999999995,"velocity":0.7480314960629921,"duration":0.5062500000000227},{"name":"E5","midi":76,"time":517.3124999999995,"velocity":0.7480314960629921,"duration":0.16875000000004547},{"name":"D5","midi":74,"time":517.3124999999995,"velocity":0.7480314960629921,"duration":0.16875000000004547},{"name":"A4","midi":69,"time":517.3124999999995,"velocity":0.7480314960629921,"duration":0.16875000000004547},{"name":"D4","midi":62,"time":517.3124999999995,"velocity":0.7480314960629921,"duration":0.16875000000004547},{"name":"D4","midi":62,"time":517.4999999999995,"velocity":0.7480314960629921,"duration":0.33749999999997726},{"name":"A4","midi":69,"time":517.4999999999995,"velocity":0.7480314960629921,"duration":0.33749999999997726},{"name":"F#5","midi":78,"time":517.4999999999995,"velocity":0.7480314960629921,"duration":0.33749999999997726},{"name":"D5","midi":74,"time":517.4999999999995,"velocity":0.7480314960629921,"duration":0.33749999999997726},{"name":"D4","midi":62,"time":517.8749999999995,"velocity":0.7480314960629921,"duration":0.33749999999997726},{"name":"F#5","midi":78,"time":517.8749999999995,"velocity":0.7480314960629921,"duration":0.33749999999997726},{"name":"D5","midi":74,"time":517.8749999999995,"velocity":0.7480314960629921,"duration":0.33749999999997726},{"name":"A4","midi":69,"time":517.8749999999995,"velocity":0.7480314960629921,"duration":0.33749999999997726},{"name":"E5","midi":76,"time":518.2499999999995,"velocity":0.7480314960629921,"duration":0.5062500000000227},{"name":"D4","midi":62,"time":518.2499999999995,"velocity":0.7480314960629921,"duration":0.5062500000000227},{"name":"A4","midi":69,"time":518.2499999999995,"velocity":0.7480314960629921,"duration":0.5062500000000227},{"name":"D5","midi":74,"time":518.2499999999995,"velocity":0.7480314960629921,"duration":0.5062500000000227},{"name":"E5","midi":76,"time":518.8124999999995,"velocity":0.7480314960629921,"duration":0.16875000000004547},{"name":"D4","midi":62,"time":518.8124999999995,"velocity":0.7480314960629921,"duration":0.16875000000004547},{"name":"D5","midi":74,"time":518.8124999999995,"velocity":0.7480314960629921,"duration":0.16875000000004547},{"name":"A4","midi":69,"time":518.8124999999995,"velocity":0.7480314960629921,"duration":0.16875000000004547},{"name":"D4","midi":62,"time":518.9999999999995,"velocity":0.7480314960629921,"duration":0.33749999999997726},{"name":"A4","midi":69,"time":518.9999999999995,"velocity":0.7480314960629921,"duration":0.33749999999997726},{"name":"D5","midi":74,"time":518.9999999999995,"velocity":0.7480314960629921,"duration":0.33749999999997726},{"name":"E5","midi":76,"time":518.9999999999995,"velocity":0.7480314960629921,"duration":0.33749999999997726},{"name":"E5","midi":76,"time":519.3749999999995,"velocity":0.7480314960629921,"duration":0.33749999999997726},{"name":"D4","midi":62,"time":519.3749999999995,"velocity":0.7480314960629921,"duration":0.33749999999997726},{"name":"A4","midi":69,"time":519.3749999999995,"velocity":0.7480314960629921,"duration":0.33749999999997726},{"name":"D5","midi":74,"time":519.3749999999995,"velocity":0.7480314960629921,"duration":0.33749999999997726},{"name":"E5","midi":76,"time":519.7499999999995,"velocity":0.7480314960629921,"duration":0.5062500000000227},{"name":"D5","midi":74,"time":519.7499999999995,"velocity":0.7480314960629921,"duration":0.5062500000000227},{"name":"A4","midi":69,"time":519.7499999999995,"velocity":0.7480314960629921,"duration":0.5062500000000227},{"name":"D4","midi":62,"time":519.7499999999995,"velocity":0.7480314960629921,"duration":0.5062500000000227},{"name":"A4","midi":69,"time":520.3124999999995,"velocity":0.7480314960629921,"duration":0.16875000000004547},{"name":"D4","midi":62,"time":520.3124999999995,"velocity":0.7480314960629921,"duration":0.16875000000004547},{"name":"E5","midi":76,"time":520.3124999999995,"velocity":0.7480314960629921,"duration":0.16875000000004547},{"name":"D5","midi":74,"time":520.3124999999995,"velocity":0.7480314960629921,"duration":0.16875000000004547},{"name":"F#5","midi":78,"time":520.4999999999995,"velocity":0.7480314960629921,"duration":0.33749999999997726},{"name":"D5","midi":74,"time":520.4999999999995,"velocity":0.7480314960629921,"duration":0.33749999999997726},{"name":"A4","midi":69,"time":520.4999999999995,"velocity":0.7480314960629921,"duration":0.33749999999997726},{"name":"D4","midi":62,"time":520.4999999999995,"velocity":0.7480314960629921,"duration":0.33749999999997726},{"name":"D5","midi":74,"time":520.8749999999995,"velocity":0.7480314960629921,"duration":0.33749999999997726},{"name":"F#5","midi":78,"time":520.8749999999995,"velocity":0.7480314960629921,"duration":0.33749999999997726},{"name":"A4","midi":69,"time":520.8749999999995,"velocity":0.7480314960629921,"duration":0.33749999999997726},{"name":"D4","midi":62,"time":520.8749999999995,"velocity":0.7480314960629921,"duration":0.33749999999997726},{"name":"E5","midi":76,"time":521.2499999999995,"velocity":0.7480314960629921,"duration":0.5062500000000227},{"name":"D5","midi":74,"time":521.2499999999995,"velocity":0.7480314960629921,"duration":0.5062500000000227},{"name":"A4","midi":69,"time":521.2499999999995,"velocity":0.7480314960629921,"duration":0.5062500000000227},{"name":"D4","midi":62,"time":521.2499999999995,"velocity":0.7480314960629921,"duration":0.5062500000000227},{"name":"E5","midi":76,"time":521.8124999999995,"velocity":0.7480314960629921,"duration":0.16875000000004547},{"name":"D5","midi":74,"time":521.8124999999995,"velocity":0.7480314960629921,"duration":0.16875000000004547},{"name":"A4","midi":69,"time":521.8124999999995,"velocity":0.7480314960629921,"duration":0.16875000000004547},{"name":"D4","midi":62,"time":521.8124999999995,"velocity":0.7480314960629921,"duration":0.16875000000004547},{"name":"F#5","midi":78,"time":521.9999999999995,"velocity":0.7480314960629921,"duration":0.33749999999997726},{"name":"D5","midi":74,"time":521.9999999999995,"velocity":0.7480314960629921,"duration":0.33749999999997726},{"name":"B4","midi":71,"time":521.9999999999995,"velocity":0.7480314960629921,"duration":0.33749999999997726},{"name":"F#4","midi":66,"time":521.9999999999995,"velocity":0.7480314960629921,"duration":0.33749999999997726},{"name":"B3","midi":59,"time":521.9999999999995,"velocity":0.7480314960629921,"duration":0.33749999999997726},{"name":"B3","midi":59,"time":522.3749999999995,"velocity":0.7480314960629921,"duration":0.33749999999997726},{"name":"F#5","midi":78,"time":522.3749999999995,"velocity":0.7480314960629921,"duration":0.33749999999997726},{"name":"D5","midi":74,"time":522.3749999999995,"velocity":0.7480314960629921,"duration":0.33749999999997726},{"name":"B4","midi":71,"time":522.3749999999995,"velocity":0.7480314960629921,"duration":0.33749999999997726},{"name":"F#4","midi":66,"time":522.3749999999995,"velocity":0.7480314960629921,"duration":0.33749999999997726},{"name":"D5","midi":74,"time":522.7499999999995,"velocity":0.7480314960629921,"duration":0.5062500000000227},{"name":"B4","midi":71,"time":522.7499999999995,"velocity":0.7480314960629921,"duration":0.5062500000000227},{"name":"F#4","midi":66,"time":522.7499999999995,"velocity":0.7480314960629921,"duration":0.5062500000000227},{"name":"B3","midi":59,"time":522.7499999999995,"velocity":0.7480314960629921,"duration":0.5062500000000227},{"name":"E5","midi":76,"time":522.7499999999995,"velocity":0.7480314960629921,"duration":0.5062500000000227},{"name":"E5","midi":76,"time":523.3124999999995,"velocity":0.7480314960629921,"duration":0.16875000000004547},{"name":"D5","midi":74,"time":523.3124999999995,"velocity":0.7480314960629921,"duration":0.16875000000004547},{"name":"B4","midi":71,"time":523.3124999999995,"velocity":0.7480314960629921,"duration":0.16875000000004547},{"name":"F#4","midi":66,"time":523.3124999999995,"velocity":0.7480314960629921,"duration":0.16875000000004547},{"name":"B3","midi":59,"time":523.3124999999995,"velocity":0.7480314960629921,"duration":0.16875000000004547},{"name":"F#5","midi":78,"time":523.4999999999995,"velocity":0.7480314960629921,"duration":0.33749999999997726},{"name":"D5","midi":74,"time":523.4999999999995,"velocity":0.7480314960629921,"duration":0.33749999999997726},{"name":"B4","midi":71,"time":523.4999999999995,"velocity":0.7480314960629921,"duration":0.33749999999997726},{"name":"F#4","midi":66,"time":523.4999999999995,"velocity":0.7480314960629921,"duration":0.33749999999997726},{"name":"B3","midi":59,"time":523.4999999999995,"velocity":0.7480314960629921,"duration":0.33749999999997726},{"name":"F#5","midi":78,"time":523.8749999999995,"velocity":0.7480314960629921,"duration":0.33749999999997726},{"name":"D5","midi":74,"time":523.8749999999995,"velocity":0.7480314960629921,"duration":0.33749999999997726},{"name":"B4","midi":71,"time":523.8749999999995,"velocity":0.7480314960629921,"duration":0.33749999999997726},{"name":"F#4","midi":66,"time":523.8749999999995,"velocity":0.7480314960629921,"duration":0.33749999999997726},{"name":"B3","midi":59,"time":523.8749999999995,"velocity":0.7480314960629921,"duration":0.33749999999997726},{"name":"E5","midi":76,"time":524.2499999999995,"velocity":0.7480314960629921,"duration":0.5062500000000227},{"name":"D5","midi":74,"time":524.2499999999995,"velocity":0.7480314960629921,"duration":0.5062500000000227},{"name":"B4","midi":71,"time":524.2499999999995,"velocity":0.7480314960629921,"duration":0.5062500000000227},{"name":"F#4","midi":66,"time":524.2499999999995,"velocity":0.7480314960629921,"duration":0.5062500000000227},{"name":"B3","midi":59,"time":524.2499999999995,"velocity":0.7480314960629921,"duration":0.5062500000000227},{"name":"D5","midi":74,"time":524.8124999999995,"velocity":0.7480314960629921,"duration":0.16875000000004547},{"name":"B4","midi":71,"time":524.8124999999995,"velocity":0.7480314960629921,"duration":0.16875000000004547},{"name":"F#4","midi":66,"time":524.8124999999995,"velocity":0.7480314960629921,"duration":0.16875000000004547},{"name":"B3","midi":59,"time":524.8124999999995,"velocity":0.7480314960629921,"duration":0.16875000000004547},{"name":"E5","midi":76,"time":524.8124999999995,"velocity":0.7480314960629921,"duration":0.16875000000004547},{"name":"F#5","midi":78,"time":524.9999999999995,"velocity":0.7480314960629921,"duration":0.33749999999997726},{"name":"B4","midi":71,"time":524.9999999999995,"velocity":0.7480314960629921,"duration":0.33749999999997726},{"name":"C#4","midi":61,"time":524.9999999999995,"velocity":0.7480314960629921,"duration":0.33749999999997726},{"name":"G#4","midi":68,"time":524.9999999999995,"velocity":0.7480314960629921,"duration":0.33749999999997726},{"name":"B4","midi":71,"time":525.3749999999995,"velocity":0.7480314960629921,"duration":0.33749999999997726},{"name":"F#5","midi":78,"time":525.3749999999995,"velocity":0.7480314960629921,"duration":0.33749999999997726},{"name":"C#4","midi":61,"time":525.3749999999995,"velocity":0.7480314960629921,"duration":0.33749999999997726},{"name":"G#4","midi":68,"time":525.3749999999995,"velocity":0.7480314960629921,"duration":0.33749999999997726},{"name":"B4","midi":71,"time":525.7499999999995,"velocity":0.7480314960629921,"duration":0.5062500000000227},{"name":"E5","midi":76,"time":525.7499999999995,"velocity":0.7480314960629921,"duration":0.5062500000000227},{"name":"G#4","midi":68,"time":525.7499999999995,"velocity":0.7480314960629921,"duration":0.5062500000000227},{"name":"C#4","midi":61,"time":525.7499999999995,"velocity":0.7480314960629921,"duration":0.5062500000000227},{"name":"B4","midi":71,"time":526.3124999999995,"velocity":0.7480314960629921,"duration":0.16875000000004547},{"name":"G#4","midi":68,"time":526.3124999999995,"velocity":0.7480314960629921,"duration":0.16875000000004547},{"name":"C#4","midi":61,"time":526.3124999999995,"velocity":0.7480314960629921,"duration":0.16875000000004547},{"name":"E5","midi":76,"time":526.3124999999995,"velocity":0.7480314960629921,"duration":0.16875000000004547},{"name":"C#4","midi":61,"time":526.4999999999995,"velocity":0.7480314960629921,"duration":0.33749999999997726},{"name":"G#4","midi":68,"time":526.4999999999995,"velocity":0.7480314960629921,"duration":0.33749999999997726},{"name":"B4","midi":71,"time":526.4999999999995,"velocity":0.7480314960629921,"duration":0.33749999999997726},{"name":"F#5","midi":78,"time":526.4999999999995,"velocity":0.7480314960629921,"duration":0.33749999999997726},{"name":"C#4","midi":61,"time":526.8749999999995,"velocity":0.7480314960629921,"duration":0.33749999999997726},{"name":"G#4","midi":68,"time":526.8749999999995,"velocity":0.7480314960629921,"duration":0.33749999999997726},{"name":"F#5","midi":78,"time":526.8749999999995,"velocity":0.7480314960629921,"duration":0.33749999999997726},{"name":"B4","midi":71,"time":526.8749999999995,"velocity":0.7480314960629921,"duration":0.33749999999997726},{"name":"G#4","midi":68,"time":527.2499999999995,"velocity":0.7480314960629921,"duration":0.5062500000000227},{"name":"B4","midi":71,"time":527.2499999999995,"velocity":0.7480314960629921,"duration":0.5062500000000227},{"name":"C#4","midi":61,"time":527.2499999999995,"velocity":0.7480314960629921,"duration":0.5062500000000227},{"name":"E5","midi":76,"time":527.2499999999995,"velocity":0.7480314960629921,"duration":0.5062500000000227},{"name":"G#4","midi":68,"time":527.8124999999995,"velocity":0.7480314960629921,"duration":0.16875000000004547},{"name":"B4","midi":71,"time":527.8124999999995,"velocity":0.7480314960629921,"duration":0.16875000000004547},{"name":"E5","midi":76,"time":527.8124999999995,"velocity":0.7480314960629921,"duration":0.16875000000004547},{"name":"C#4","midi":61,"time":527.8124999999995,"velocity":0.7480314960629921,"duration":0.16875000000004547},{"name":"D4","midi":62,"time":527.9999999999995,"velocity":0.7480314960629921,"duration":0.33749999999997726},{"name":"A5","midi":81,"time":527.9999999999995,"velocity":0.7480314960629921,"duration":0.33749999999997726},{"name":"F#5","midi":78,"time":527.9999999999995,"velocity":0.7480314960629921,"duration":0.33749999999997726},{"name":"D5","midi":74,"time":527.9999999999995,"velocity":0.7480314960629921,"duration":0.33749999999997726},{"name":"A4","midi":69,"time":527.9999999999995,"velocity":0.7480314960629921,"duration":0.33749999999997726},{"name":"D4","midi":62,"time":528.3749999999995,"velocity":0.7480314960629921,"duration":0.33749999999997726},{"name":"A4","midi":69,"time":528.3749999999995,"velocity":0.7480314960629921,"duration":0.33749999999997726},{"name":"D5","midi":74,"time":528.3749999999995,"velocity":0.7480314960629921,"duration":0.33749999999997726},{"name":"F#5","midi":78,"time":528.3749999999995,"velocity":0.7480314960629921,"duration":0.33749999999997726},{"name":"A5","midi":81,"time":528.3749999999995,"velocity":0.7480314960629921,"duration":0.33749999999997726},{"name":"F#5","midi":78,"time":528.7499999999995,"velocity":0.7480314960629921,"duration":0.5062500000000227},{"name":"D5","midi":74,"time":528.7499999999995,"velocity":0.7480314960629921,"duration":0.5062500000000227},{"name":"A5","midi":81,"time":528.7499999999995,"velocity":0.7480314960629921,"duration":0.5062500000000227},{"name":"A4","midi":69,"time":528.7499999999995,"velocity":0.7480314960629921,"duration":0.5062500000000227},{"name":"D4","midi":62,"time":528.7499999999995,"velocity":0.7480314960629921,"duration":0.5062500000000227},{"name":"D5","midi":74,"time":529.3124999999995,"velocity":0.7480314960629921,"duration":0.16875000000004547},{"name":"A4","midi":69,"time":529.3124999999995,"velocity":0.7480314960629921,"duration":0.16875000000004547},{"name":"D4","midi":62,"time":529.3124999999995,"velocity":0.7480314960629921,"duration":0.16875000000004547},{"name":"A5","midi":81,"time":529.3124999999995,"velocity":0.7480314960629921,"duration":0.16875000000004547},{"name":"F#5","midi":78,"time":529.3124999999995,"velocity":0.7480314960629921,"duration":0.16875000000004547},{"name":"A5","midi":81,"time":529.4999999999995,"velocity":0.7480314960629921,"duration":0.33749999999997726},{"name":"F#5","midi":78,"time":529.4999999999995,"velocity":0.7480314960629921,"duration":0.33749999999997726},{"name":"D5","midi":74,"time":529.4999999999995,"velocity":0.7480314960629921,"duration":0.33749999999997726},{"name":"A4","midi":69,"time":529.4999999999995,"velocity":0.7480314960629921,"duration":0.33749999999997726},{"name":"D4","midi":62,"time":529.4999999999995,"velocity":0.7480314960629921,"duration":0.33749999999997726},{"name":"A5","midi":81,"time":529.8749999999995,"velocity":0.7480314960629921,"duration":0.33749999999997726},{"name":"F#5","midi":78,"time":529.8749999999995,"velocity":0.7480314960629921,"duration":0.33749999999997726},{"name":"D5","midi":74,"time":529.8749999999995,"velocity":0.7480314960629921,"duration":0.33749999999997726},{"name":"A4","midi":69,"time":529.8749999999995,"velocity":0.7480314960629921,"duration":0.33749999999997726},{"name":"D4","midi":62,"time":529.8749999999995,"velocity":0.7480314960629921,"duration":0.33749999999997726},{"name":"A5","midi":81,"time":530.2499999999995,"velocity":0.7480314960629921,"duration":0.5062500000000227},{"name":"D4","midi":62,"time":530.2499999999995,"velocity":0.7480314960629921,"duration":0.5062500000000227},{"name":"A4","midi":69,"time":530.2499999999995,"velocity":0.7480314960629921,"duration":0.5062500000000227},{"name":"D5","midi":74,"time":530.2499999999995,"velocity":0.7480314960629921,"duration":0.5062500000000227},{"name":"F#5","midi":78,"time":530.2499999999995,"velocity":0.7480314960629921,"duration":0.5062500000000227},{"name":"A5","midi":81,"time":530.8124999999995,"velocity":0.7480314960629921,"duration":0.16875000000004547},{"name":"F#5","midi":78,"time":530.8124999999995,"velocity":0.7480314960629921,"duration":0.16875000000004547},{"name":"D5","midi":74,"time":530.8124999999995,"velocity":0.7480314960629921,"duration":0.16875000000004547},{"name":"A4","midi":69,"time":530.8124999999995,"velocity":0.7480314960629921,"duration":0.16875000000004547},{"name":"D4","midi":62,"time":530.8124999999995,"velocity":0.7480314960629921,"duration":0.16875000000004547}]},{"instrumentFamily":"piano","notes":[{"name":"C#5","midi":73,"time":30.75,"velocity":0.7480314960629921,"duration":1.3999999999999986},{"name":"C#5","midi":73,"time":32.25,"velocity":0.7480314960629921,"duration":1.3999999999999986},{"name":"C#5","midi":73,"time":33.75,"velocity":0.7480314960629921,"duration":1.3999999999999986},{"name":"C#5","midi":73,"time":35.25,"velocity":0.7480314960629921,"duration":1.3999999999999986},{"name":"G#4","midi":68,"time":36.75,"velocity":0.7480314960629921,"duration":1.3999999999999986},{"name":"G#4","midi":68,"time":38.25,"velocity":0.7480314960629921,"duration":1.3999999999999986},{"name":"G#4","midi":68,"time":39.75,"velocity":0.7480314960629921,"duration":1.3999999999999986},{"name":"G#4","midi":68,"time":41.25,"velocity":0.7480314960629921,"duration":1.3999999999999986},{"name":"F#4","midi":66,"time":42.75,"velocity":0.7480314960629921,"duration":1.3999999999999986},{"name":"F#4","midi":66,"time":44.25,"velocity":0.7480314960629921,"duration":1.3999999999999986},{"name":"F#4","midi":66,"time":45.75,"velocity":0.7480314960629921,"duration":1.3999999999999986},{"name":"F#4","midi":66,"time":47.25,"velocity":0.7480314960629921,"duration":0.3374999999999986},{"name":"F#4","midi":66,"time":47.625,"velocity":0.7480314960629921,"duration":0.3374999999999986},{"name":"A4","midi":69,"time":48,"velocity":0.7480314960629921,"duration":0.3374999999999986},{"name":"C#5","midi":73,"time":48,"velocity":0.7480314960629921,"duration":0.3374999999999986},{"name":"A4","midi":69,"time":48.375,"velocity":0.7480314960629921,"duration":0.6749999999999972},{"name":"C#5","midi":73,"time":48.375,"velocity":0.7480314960629921,"duration":0.6749999999999972},{"name":"A4","midi":69,"time":49.125,"velocity":0.7480314960629921,"duration":0.3374999999999986},{"name":"C#5","midi":73,"time":49.125,"velocity":0.7480314960629921,"duration":0.3374999999999986},{"name":"C#5","midi":73,"time":49.5,"velocity":0.7480314960629921,"duration":0.3374999999999986},{"name":"A4","midi":69,"time":49.5,"velocity":0.7480314960629921,"duration":0.3374999999999986},{"name":"A4","midi":69,"time":49.875,"velocity":0.7480314960629921,"duration":0.6749999999999972},{"name":"C#5","midi":73,"time":49.875,"velocity":0.7480314960629921,"duration":0.6749999999999972},{"name":"A4","midi":69,"time":50.625,"velocity":0.7480314960629921,"duration":0.3374999999999986},{"name":"C#5","midi":73,"time":50.625,"velocity":0.7480314960629921,"duration":0.3374999999999986},{"name":"C#5","midi":73,"time":51,"velocity":0.7480314960629921,"duration":0.3374999999999986},{"name":"A4","midi":69,"time":51,"velocity":0.7480314960629921,"duration":0.3374999999999986},{"name":"C#5","midi":73,"time":51.375,"velocity":0.7480314960629921,"duration":0.6749999999999972},{"name":"A4","midi":69,"time":51.375,"velocity":0.7480314960629921,"duration":0.6749999999999972},{"name":"A4","midi":69,"time":52.125,"velocity":0.7480314960629921,"duration":0.3374999999999986},{"name":"C#5","midi":73,"time":52.125,"velocity":0.7480314960629921,"duration":0.3374999999999986},{"name":"A4","midi":69,"time":52.5,"velocity":0.7480314960629921,"duration":0.3374999999999986},{"name":"C#5","midi":73,"time":52.5,"velocity":0.7480314960629921,"duration":0.3374999999999986},{"name":"C#5","midi":73,"time":52.875,"velocity":0.7480314960629921,"duration":0.6749999999999972},{"name":"A4","midi":69,"time":52.875,"velocity":0.7480314960629921,"duration":0.6749999999999972},{"name":"A4","midi":69,"time":53.625,"velocity":0.7480314960629921,"duration":0.3374999999999986},{"name":"C#5","midi":73,"time":53.625,"velocity":0.7480314960629921,"duration":0.3374999999999986},{"name":"G#4","midi":68,"time":54,"velocity":0.7480314960629921,"duration":0.3374999999999986},{"name":"E4","midi":64,"time":54,"velocity":0.7480314960629921,"duration":0.3374999999999986},{"name":"E4","midi":64,"time":54.375,"velocity":0.7480314960629921,"duration":0.6749999999999972},{"name":"G#4","midi":68,"time":54.375,"velocity":0.7480314960629921,"duration":0.6749999999999972},{"name":"G#4","midi":68,"time":55.125,"velocity":0.7480314960629921,"duration":0.3374999999999986},{"name":"E4","midi":64,"time":55.125,"velocity":0.7480314960629921,"duration":0.3374999999999986},{"name":"E4","midi":64,"time":55.5,"velocity":0.7480314960629921,"duration":0.3374999999999986},{"name":"G#4","midi":68,"time":55.5,"velocity":0.7480314960629921,"duration":0.3374999999999986},{"name":"G#4","midi":68,"time":55.875,"velocity":0.7480314960629921,"duration":0.6749999999999972},{"name":"E4","midi":64,"time":55.875,"velocity":0.7480314960629921,"duration":0.6749999999999972},{"name":"E4","midi":64,"time":56.625,"velocity":0.7480314960629921,"duration":0.3374999999999986},{"name":"G#4","midi":68,"time":56.625,"velocity":0.7480314960629921,"duration":0.3374999999999986},{"name":"E4","midi":64,"time":57,"velocity":0.7480314960629921,"duration":0.3374999999999986},{"name":"G#4","midi":68,"time":57,"velocity":0.7480314960629921,"duration":0.3374999999999986},{"name":"E4","midi":64,"time":57.375,"velocity":0.7480314960629921,"duration":0.6749999999999972},{"name":"G#4","midi":68,"time":57.375,"velocity":0.7480314960629921,"duration":0.6749999999999972},{"name":"G#4","midi":68,"time":58.125,"velocity":0.7480314960629921,"duration":0.3374999999999986},{"name":"E4","midi":64,"time":58.125,"velocity":0.7480314960629921,"duration":0.3374999999999986},{"name":"E4","midi":64,"time":58.5,"velocity":0.7480314960629921,"duration":0.3374999999999986},{"name":"G#4","midi":68,"time":58.5,"velocity":0.7480314960629921,"duration":0.3374999999999986},{"name":"G#4","midi":68,"time":58.875,"velocity":0.7480314960629921,"duration":0.6749999999999972},{"name":"E4","midi":64,"time":58.875,"velocity":0.7480314960629921,"duration":0.6749999999999972},{"name":"G#4","midi":68,"time":59.625,"velocity":0.7480314960629921,"duration":0.3374999999999986},{"name":"E4","midi":64,"time":59.625,"velocity":0.7480314960629921,"duration":0.3374999999999986},{"name":"D4","midi":62,"time":60,"velocity":0.7480314960629921,"duration":0.3374999999999986},{"name":"F#4","midi":66,"time":60,"velocity":0.7480314960629921,"duration":0.3374999999999986},{"name":"D4","midi":62,"time":60.375,"velocity":0.7480314960629921,"duration":0.6749999999999972},{"name":"F#4","midi":66,"time":60.375,"velocity":0.7480314960629921,"duration":0.6749999999999972},{"name":"D4","midi":62,"time":61.125,"velocity":0.7480314960629921,"duration":0.3374999999999986},{"name":"F#4","midi":66,"time":61.125,"velocity":0.7480314960629921,"duration":0.3374999999999986},{"name":"D4","midi":62,"time":61.5,"velocity":0.7480314960629921,"duration":0.3374999999999986},{"name":"F#4","midi":66,"time":61.5,"velocity":0.7480314960629921,"duration":0.3374999999999986},{"name":"D4","midi":62,"time":61.875,"velocity":0.7480314960629921,"duration":0.6749999999999972},{"name":"F#4","midi":66,"time":61.875,"velocity":0.7480314960629921,"duration":0.6749999999999972},{"name":"F#4","midi":66,"time":62.625,"velocity":0.7480314960629921,"duration":0.3374999999999986},{"name":"D4","midi":62,"time":62.625,"velocity":0.7480314960629921,"duration":0.3374999999999986},{"name":"D4","midi":62,"time":63,"velocity":0.7480314960629921,"duration":0.3374999999999986},{"name":"F#4","midi":66,"time":63,"velocity":0.7480314960629921,"duration":0.3374999999999986},{"name":"F#4","midi":66,"time":63.375,"velocity":0.7480314960629921,"duration":0.6749999999999972},{"name":"D4","midi":62,"time":63.375,"velocity":0.7480314960629921,"duration":0.6749999999999972},{"name":"D4","midi":62,"time":64.125,"velocity":0.7480314960629921,"duration":0.3375000000000057},{"name":"F#4","midi":66,"time":64.125,"velocity":0.7480314960629921,"duration":0.3375000000000057},{"name":"F#4","midi":66,"time":64.5,"velocity":0.7480314960629921,"duration":0.3375000000000057},{"name":"D4","midi":62,"time":64.5,"velocity":0.7480314960629921,"duration":0.3375000000000057},{"name":"D4","midi":62,"time":64.875,"velocity":0.7480314960629921,"duration":0.6749999999999972},{"name":"F#4","midi":66,"time":64.875,"velocity":0.7480314960629921,"duration":0.6749999999999972},{"name":"D4","midi":62,"time":65.625,"velocity":0.7480314960629921,"duration":0.3375000000000057},{"name":"F#4","midi":66,"time":65.625,"velocity":0.7480314960629921,"duration":0.3375000000000057},{"name":"G#4","midi":68,"time":66,"velocity":0.7480314960629921,"duration":0.3375000000000057},{"name":"E4","midi":64,"time":66,"velocity":0.7480314960629921,"duration":0.3375000000000057},{"name":"E4","midi":64,"time":66.375,"velocity":0.7480314960629921,"duration":0.6749999999999972},{"name":"G#4","midi":68,"time":66.375,"velocity":0.7480314960629921,"duration":0.6749999999999972},{"name":"E4","midi":64,"time":67.125,"velocity":0.7480314960629921,"duration":0.3375000000000057},{"name":"G#4","midi":68,"time":67.125,"velocity":0.7480314960629921,"duration":0.3375000000000057},{"name":"E4","midi":64,"time":67.5,"velocity":0.7480314960629921,"duration":0.3375000000000057},{"name":"G#4","midi":68,"time":67.5,"velocity":0.7480314960629921,"duration":0.3375000000000057},{"name":"G#4","midi":68,"time":67.875,"velocity":0.7480314960629921,"duration":0.6749999999999972},{"name":"E4","midi":64,"time":67.875,"velocity":0.7480314960629921,"duration":0.6749999999999972},{"name":"E4","midi":64,"time":68.625,"velocity":0.7480314960629921,"duration":0.3375000000000057},{"name":"G#4","midi":68,"time":68.625,"velocity":0.7480314960629921,"duration":0.3375000000000057},{"name":"E4","midi":64,"time":69,"velocity":0.7480314960629921,"duration":0.3375000000000057},{"name":"G#4","midi":68,"time":69,"velocity":0.7480314960629921,"duration":0.3375000000000057},{"name":"E4","midi":64,"time":69.375,"velocity":0.7480314960629921,"duration":0.6749999999999972},{"name":"G#4","midi":68,"time":69.375,"velocity":0.7480314960629921,"duration":0.6749999999999972},{"name":"E4","midi":64,"time":70.125,"velocity":0.7480314960629921,"duration":0.3375000000000057},{"name":"G#4","midi":68,"time":70.125,"velocity":0.7480314960629921,"duration":0.3375000000000057},{"name":"G#4","midi":68,"time":70.5,"velocity":0.7480314960629921,"duration":0.3375000000000057},{"name":"E4","midi":64,"time":70.5,"velocity":0.7480314960629921,"duration":0.3375000000000057},{"name":"G#4","midi":68,"time":70.875,"velocity":0.7480314960629921,"duration":0.6749999999999972},{"name":"E4","midi":64,"time":70.875,"velocity":0.7480314960629921,"duration":0.6749999999999972},{"name":"E4","midi":64,"time":71.625,"velocity":0.7480314960629921,"duration":0.3375000000000057},{"name":"G#4","midi":68,"time":71.625,"velocity":0.7480314960629921,"duration":0.3375000000000057},{"name":"C#5","midi":73,"time":72,"velocity":0.7480314960629921,"duration":0.3375000000000057},{"name":"A4","midi":69,"time":72,"velocity":0.7480314960629921,"duration":0.3375000000000057},{"name":"A4","midi":69,"time":72.375,"velocity":0.7480314960629921,"duration":0.6749999999999972},{"name":"C#5","midi":73,"time":72.375,"velocity":0.7480314960629921,"duration":0.6749999999999972},{"name":"A4","midi":69,"time":73.125,"velocity":0.7480314960629921,"duration":0.3375000000000057},{"name":"C#5","midi":73,"time":73.125,"velocity":0.7480314960629921,"duration":0.3375000000000057},{"name":"A4","midi":69,"time":73.5,"velocity":0.7480314960629921,"duration":0.3375000000000057},{"name":"C#5","midi":73,"time":73.5,"velocity":0.7480314960629921,"duration":0.3375000000000057},{"name":"C#5","midi":73,"time":73.875,"velocity":0.7480314960629921,"duration":0.6749999999999972},{"name":"A4","midi":69,"time":73.875,"velocity":0.7480314960629921,"duration":0.6749999999999972},{"name":"A4","midi":69,"time":74.625,"velocity":0.7480314960629921,"duration":0.3375000000000057},{"name":"C#5","midi":73,"time":74.625,"velocity":0.7480314960629921,"duration":0.3375000000000057},{"name":"C#5","midi":73,"time":75,"velocity":0.7480314960629921,"duration":0.3375000000000057},{"name":"A4","midi":69,"time":75,"velocity":0.7480314960629921,"duration":0.3375000000000057},{"name":"A4","midi":69,"time":75.375,"velocity":0.7480314960629921,"duration":0.6749999999999972},{"name":"C#5","midi":73,"time":75.375,"velocity":0.7480314960629921,"duration":0.6749999999999972},{"name":"A4","midi":69,"time":76.125,"velocity":0.7480314960629921,"duration":0.3375000000000057},{"name":"C#5","midi":73,"time":76.125,"velocity":0.7480314960629921,"duration":0.3375000000000057},{"name":"A4","midi":69,"time":76.5,"velocity":0.7480314960629921,"duration":0.3375000000000057},{"name":"C#5","midi":73,"time":76.5,"velocity":0.7480314960629921,"duration":0.3375000000000057},{"name":"A4","midi":69,"time":76.875,"velocity":0.7480314960629921,"duration":0.6749999999999972},{"name":"C#5","midi":73,"time":76.875,"velocity":0.7480314960629921,"duration":0.6749999999999972},{"name":"A4","midi":69,"time":77.625,"velocity":0.7480314960629921,"duration":0.3375000000000057},{"name":"C#5","midi":73,"time":77.625,"velocity":0.7480314960629921,"duration":0.3375000000000057},{"name":"G#4","midi":68,"time":78,"velocity":0.7480314960629921,"duration":0.3375000000000057},{"name":"E4","midi":64,"time":78,"velocity":0.7480314960629921,"duration":0.3375000000000057},{"name":"G#4","midi":68,"time":78.375,"velocity":0.7480314960629921,"duration":0.6749999999999972},{"name":"E4","midi":64,"time":78.375,"velocity":0.7480314960629921,"duration":0.6749999999999972},{"name":"G#4","midi":68,"time":79.125,"velocity":0.7480314960629921,"duration":0.3375000000000057},{"name":"E4","midi":64,"time":79.125,"velocity":0.7480314960629921,"duration":0.3375000000000057},{"name":"G#4","midi":68,"time":79.5,"velocity":0.7480314960629921,"duration":0.3375000000000057},{"name":"E4","midi":64,"time":79.5,"velocity":0.7480314960629921,"duration":0.3375000000000057},{"name":"G#4","midi":68,"time":79.875,"velocity":0.7480314960629921,"duration":0.6749999999999972},{"name":"E4","midi":64,"time":79.875,"velocity":0.7480314960629921,"duration":0.6749999999999972},{"name":"E4","midi":64,"time":80.625,"velocity":0.7480314960629921,"duration":0.3375000000000057},{"name":"G#4","midi":68,"time":80.625,"velocity":0.7480314960629921,"duration":0.3375000000000057},{"name":"G#4","midi":68,"time":81,"velocity":0.7480314960629921,"duration":0.3375000000000057},{"name":"E4","midi":64,"time":81,"velocity":0.7480314960629921,"duration":0.3375000000000057},{"name":"G#4","midi":68,"time":81.375,"velocity":0.7480314960629921,"duration":0.6749999999999972},{"name":"E4","midi":64,"time":81.375,"velocity":0.7480314960629921,"duration":0.6749999999999972},{"name":"E4","midi":64,"time":82.125,"velocity":0.7480314960629921,"duration":0.3375000000000057},{"name":"G#4","midi":68,"time":82.125,"velocity":0.7480314960629921,"duration":0.3375000000000057},{"name":"E4","midi":64,"time":82.5,"velocity":0.7480314960629921,"duration":0.3375000000000057},{"name":"G#4","midi":68,"time":82.5,"velocity":0.7480314960629921,"duration":0.3375000000000057},{"name":"G#4","midi":68,"time":82.875,"velocity":0.7480314960629921,"duration":0.6749999999999972},{"name":"E4","midi":64,"time":82.875,"velocity":0.7480314960629921,"duration":0.6749999999999972},{"name":"G#4","midi":68,"time":83.625,"velocity":0.7480314960629921,"duration":0.3375000000000057},{"name":"E4","midi":64,"time":83.625,"velocity":0.7480314960629921,"duration":0.3375000000000057},{"name":"F#4","midi":66,"time":84,"velocity":0.7480314960629921,"duration":0.3375000000000057},{"name":"D4","midi":62,"time":84,"velocity":0.7480314960629921,"duration":0.3375000000000057},{"name":"D4","midi":62,"time":84.375,"velocity":0.7480314960629921,"duration":0.6749999999999972},{"name":"F#4","midi":66,"time":84.375,"velocity":0.7480314960629921,"duration":0.6749999999999972},{"name":"F#4","midi":66,"time":85.125,"velocity":0.7480314960629921,"duration":0.3375000000000057},{"name":"D4","midi":62,"time":85.125,"velocity":0.7480314960629921,"duration":0.3375000000000057},{"name":"D4","midi":62,"time":85.5,"velocity":0.7480314960629921,"duration":0.3375000000000057},{"name":"F#4","midi":66,"time":85.5,"velocity":0.7480314960629921,"duration":0.3375000000000057},{"name":"F#4","midi":66,"time":85.875,"velocity":0.7480314960629921,"duration":0.6749999999999972},{"name":"D4","midi":62,"time":85.875,"velocity":0.7480314960629921,"duration":0.6749999999999972},{"name":"D4","midi":62,"time":86.625,"velocity":0.7480314960629921,"duration":0.3375000000000057},{"name":"F#4","midi":66,"time":86.625,"velocity":0.7480314960629921,"duration":0.3375000000000057},{"name":"F#4","midi":66,"time":87,"velocity":0.7480314960629921,"duration":0.3375000000000057},{"name":"D4","midi":62,"time":87,"velocity":0.7480314960629921,"duration":0.3375000000000057},{"name":"D4","midi":62,"time":87.375,"velocity":0.7480314960629921,"duration":0.6749999999999972},{"name":"F#4","midi":66,"time":87.375,"velocity":0.7480314960629921,"duration":0.6749999999999972},{"name":"D4","midi":62,"time":88.125,"velocity":0.7480314960629921,"duration":0.3375000000000057},{"name":"F#4","midi":66,"time":88.125,"velocity":0.7480314960629921,"duration":0.3375000000000057},{"name":"D4","midi":62,"time":88.5,"velocity":0.7480314960629921,"duration":0.3375000000000057},{"name":"F#4","midi":66,"time":88.5,"velocity":0.7480314960629921,"duration":0.3375000000000057},{"name":"F#4","midi":66,"time":88.875,"velocity":0.7480314960629921,"duration":0.6749999999999972},{"name":"D4","midi":62,"time":88.875,"velocity":0.7480314960629921,"duration":0.6749999999999972},{"name":"D4","midi":62,"time":89.625,"velocity":0.7480314960629921,"duration":0.3375000000000057},{"name":"F#4","midi":66,"time":89.625,"velocity":0.7480314960629921,"duration":0.3375000000000057},{"name":"C#5","midi":73,"time":90,"velocity":0.7480314960629921,"duration":0.3375000000000057},{"name":"A4","midi":69,"time":90,"velocity":0.7480314960629921,"duration":0.3375000000000057},{"name":"A4","midi":69,"time":90.375,"velocity":0.7480314960629921,"duration":0.6749999999999972},{"name":"C#5","midi":73,"time":90.375,"velocity":0.7480314960629921,"duration":0.6749999999999972},{"name":"A4","midi":69,"time":91.125,"velocity":0.7480314960629921,"duration":0.3375000000000057},{"name":"C#5","midi":73,"time":91.125,"velocity":0.7480314960629921,"duration":0.3375000000000057},{"name":"C#5","midi":73,"time":91.5,"velocity":0.7480314960629921,"duration":0.3375000000000057},{"name":"A4","midi":69,"time":91.5,"velocity":0.7480314960629921,"duration":0.3375000000000057},{"name":"C#5","midi":73,"time":91.875,"velocity":0.7480314960629921,"duration":0.6749999999999972},{"name":"A4","midi":69,"time":91.875,"velocity":0.7480314960629921,"duration":0.6749999999999972},{"name":"A4","midi":69,"time":92.625,"velocity":0.7480314960629921,"duration":0.3375000000000057},{"name":"C#5","midi":73,"time":92.625,"velocity":0.7480314960629921,"duration":0.3375000000000057},{"name":"A4","midi":69,"time":93,"velocity":0.7480314960629921,"duration":0.3375000000000057},{"name":"C#5","midi":73,"time":93,"velocity":0.7480314960629921,"duration":0.3375000000000057},{"name":"A4","midi":69,"time":93.375,"velocity":0.7480314960629921,"duration":0.6749999999999972},{"name":"C#5","midi":73,"time":93.375,"velocity":0.7480314960629921,"duration":0.6749999999999972},{"name":"C#5","midi":73,"time":94.125,"velocity":0.7480314960629921,"duration":0.3375000000000057},{"name":"A4","midi":69,"time":94.125,"velocity":0.7480314960629921,"duration":0.3375000000000057},{"name":"C#5","midi":73,"time":94.5,"velocity":0.7480314960629921,"duration":0.3375000000000057},{"name":"A4","midi":69,"time":94.5,"velocity":0.7480314960629921,"duration":0.3375000000000057},{"name":"A4","midi":69,"time":94.875,"velocity":0.7480314960629921,"duration":0.6749999999999972},{"name":"C#5","midi":73,"time":94.875,"velocity":0.7480314960629921,"duration":0.6749999999999972},{"name":"A4","midi":69,"time":95.625,"velocity":0.7480314960629921,"duration":0.3375000000000057},{"name":"C#5","midi":73,"time":95.625,"velocity":0.7480314960629921,"duration":0.3375000000000057},{"name":"E4","midi":64,"time":96,"velocity":0.7480314960629921,"duration":0.3375000000000057},{"name":"G#4","midi":68,"time":96,"velocity":0.7480314960629921,"duration":0.3375000000000057},{"name":"E4","midi":64,"time":96.375,"velocity":0.7480314960629921,"duration":0.6749999999999972},{"name":"G#4","midi":68,"time":96.375,"velocity":0.7480314960629921,"duration":0.6749999999999972},{"name":"E4","midi":64,"time":97.125,"velocity":0.7480314960629921,"duration":0.3375000000000057},{"name":"G#4","midi":68,"time":97.125,"velocity":0.7480314960629921,"duration":0.3375000000000057},{"name":"E4","midi":64,"time":97.5,"velocity":0.7480314960629921,"duration":0.3375000000000057},{"name":"G#4","midi":68,"time":97.5,"velocity":0.7480314960629921,"duration":0.3375000000000057},{"name":"G#4","midi":68,"time":97.875,"velocity":0.7480314960629921,"duration":0.6749999999999972},{"name":"E4","midi":64,"time":97.875,"velocity":0.7480314960629921,"duration":0.6749999999999972},{"name":"G#4","midi":68,"time":98.625,"velocity":0.7480314960629921,"duration":0.3375000000000057},{"name":"E4","midi":64,"time":98.625,"velocity":0.7480314960629921,"duration":0.3375000000000057},{"name":"G#4","midi":68,"time":99,"velocity":0.7480314960629921,"duration":0.3375000000000057},{"name":"E4","midi":64,"time":99,"velocity":0.7480314960629921,"duration":0.3375000000000057},{"name":"E4","midi":64,"time":99.375,"velocity":0.7480314960629921,"duration":0.6749999999999972},{"name":"G#4","midi":68,"time":99.375,"velocity":0.7480314960629921,"duration":0.6749999999999972},{"name":"G#4","midi":68,"time":100.125,"velocity":0.7480314960629921,"duration":0.3375000000000057},{"name":"E4","midi":64,"time":100.125,"velocity":0.7480314960629921,"duration":0.3375000000000057},{"name":"G#4","midi":68,"time":100.5,"velocity":0.7480314960629921,"duration":0.3375000000000057},{"name":"E4","midi":64,"time":100.5,"velocity":0.7480314960629921,"duration":0.3375000000000057},{"name":"G#4","midi":68,"time":100.875,"velocity":0.7480314960629921,"duration":0.6749999999999972},{"name":"E4","midi":64,"time":100.875,"velocity":0.7480314960629921,"duration":0.6749999999999972},{"name":"G#4","midi":68,"time":101.625,"velocity":0.7480314960629921,"duration":0.3375000000000057},{"name":"E4","midi":64,"time":101.625,"velocity":0.7480314960629921,"duration":0.3375000000000057},{"name":"D4","midi":62,"time":102,"velocity":0.7480314960629921,"duration":0.3375000000000057},{"name":"F#4","midi":66,"time":102,"velocity":0.7480314960629921,"duration":0.3375000000000057},{"name":"F#4","midi":66,"time":102.375,"velocity":0.7480314960629921,"duration":0.6749999999999972},{"name":"D4","midi":62,"time":102.375,"velocity":0.7480314960629921,"duration":0.6749999999999972},{"name":"F#4","midi":66,"time":103.125,"velocity":0.7480314960629921,"duration":0.3375000000000057},{"name":"D4","midi":62,"time":103.125,"velocity":0.7480314960629921,"duration":0.3375000000000057},{"name":"D4","midi":62,"time":103.5,"velocity":0.7480314960629921,"duration":0.3375000000000057},{"name":"F#4","midi":66,"time":103.5,"velocity":0.7480314960629921,"duration":0.3375000000000057},{"name":"D4","midi":62,"time":103.875,"velocity":0.7480314960629921,"duration":0.6749999999999972},{"name":"F#4","midi":66,"time":103.875,"velocity":0.7480314960629921,"duration":0.6749999999999972},{"name":"F#4","midi":66,"time":104.625,"velocity":0.7480314960629921,"duration":0.3375000000000057},{"name":"D4","midi":62,"time":104.625,"velocity":0.7480314960629921,"duration":0.3375000000000057},{"name":"F#4","midi":66,"time":105,"velocity":0.7480314960629921,"duration":0.3375000000000057},{"name":"D4","midi":62,"time":105,"velocity":0.7480314960629921,"duration":0.3375000000000057},{"name":"F#4","midi":66,"time":105.375,"velocity":0.7480314960629921,"duration":0.6749999999999972},{"name":"D4","midi":62,"time":105.375,"velocity":0.7480314960629921,"duration":0.6749999999999972},{"name":"F#4","midi":66,"time":106.125,"velocity":0.7480314960629921,"duration":0.3375000000000057},{"name":"D4","midi":62,"time":106.125,"velocity":0.7480314960629921,"duration":0.3375000000000057},{"name":"D4","midi":62,"time":106.5,"velocity":0.7480314960629921,"duration":0.3375000000000057},{"name":"F#4","midi":66,"time":106.5,"velocity":0.7480314960629921,"duration":0.3375000000000057},{"name":"F#4","midi":66,"time":106.875,"velocity":0.7480314960629921,"duration":0.6749999999999972},{"name":"D4","midi":62,"time":106.875,"velocity":0.7480314960629921,"duration":0.6749999999999972},{"name":"D4","midi":62,"time":107.625,"velocity":0.7480314960629921,"duration":0.3375000000000057},{"name":"F#4","midi":66,"time":107.625,"velocity":0.7480314960629921,"duration":0.3375000000000057},{"name":"A4","midi":69,"time":108,"velocity":0.7480314960629921,"duration":0.3375000000000057},{"name":"A4","midi":69,"time":108.375,"velocity":0.7480314960629921,"duration":0.3375000000000057},{"name":"E5","midi":76,"time":108.75,"velocity":0.7480314960629921,"duration":0.3375000000000057},{"name":"E4","midi":64,"time":108.75,"velocity":0.7480314960629921,"duration":0.3375000000000057},{"name":"A4","midi":69,"time":108.75,"velocity":0.7480314960629921,"duration":0.3375000000000057},{"name":"A4","midi":69,"time":109.125,"velocity":0.7480314960629921,"duration":0.3375000000000057},{"name":"A4","midi":69,"time":109.5,"velocity":0.7480314960629921,"duration":0.3375000000000057},{"name":"E5","midi":76,"time":109.875,"velocity":0.7480314960629921,"duration":0.3375000000000057},{"name":"A4","midi":69,"time":109.875,"velocity":0.7480314960629921,"duration":0.3375000000000057},{"name":"E4","midi":64,"time":109.875,"velocity":0.7480314960629921,"duration":0.3375000000000057},{"name":"E5","midi":76,"time":110.25,"velocity":0.7480314960629921,"duration":0.3375000000000057},{"name":"A4","midi":69,"time":110.25,"velocity":0.7480314960629921,"duration":0.3375000000000057},{"name":"E4","midi":64,"time":110.25,"velocity":0.7480314960629921,"duration":0.3375000000000057},{"name":"A4","midi":69,"time":110.625,"velocity":0.7480314960629921,"duration":0.3375000000000057},{"name":"A4","midi":69,"time":111,"velocity":0.7480314960629921,"duration":0.3375000000000057},{"name":"E5","midi":76,"time":111.375,"velocity":0.7480314960629921,"duration":0.3375000000000057},{"name":"A4","midi":69,"time":111.375,"velocity":0.7480314960629921,"duration":0.3375000000000057},{"name":"E4","midi":64,"time":111.375,"velocity":0.7480314960629921,"duration":0.3375000000000057},{"name":"E5","midi":76,"time":111.75,"velocity":0.7480314960629921,"duration":0.3375000000000057},{"name":"A4","midi":69,"time":111.75,"velocity":0.7480314960629921,"duration":0.3375000000000057},{"name":"E4","midi":64,"time":111.75,"velocity":0.7480314960629921,"duration":0.3375000000000057},{"name":"A4","midi":69,"time":112.125,"velocity":0.7480314960629921,"duration":0.3375000000000057},{"name":"A4","midi":69,"time":112.5,"velocity":0.7480314960629921,"duration":0.3375000000000057},{"name":"E5","midi":76,"time":112.875,"velocity":0.7480314960629921,"duration":0.3375000000000057},{"name":"A4","midi":69,"time":112.875,"velocity":0.7480314960629921,"duration":0.3375000000000057},{"name":"E4","midi":64,"time":112.875,"velocity":0.7480314960629921,"duration":0.3375000000000057},{"name":"A4","midi":69,"time":113.25,"velocity":0.7480314960629921,"duration":0.3375000000000057},{"name":"E5","midi":76,"time":113.25,"velocity":0.7480314960629921,"duration":0.3375000000000057},{"name":"E4","midi":64,"time":113.25,"velocity":0.7480314960629921,"duration":0.3375000000000057},{"name":"A4","midi":69,"time":113.625,"velocity":0.7480314960629921,"duration":0.3375000000000057},{"name":"C#4","midi":61,"time":114,"velocity":0.7480314960629921,"duration":0.3375000000000057},{"name":"C#4","midi":61,"time":114.375,"velocity":0.7480314960629921,"duration":0.6749999999999972},{"name":"E5","midi":76,"time":114.375,"velocity":0.7480314960629921,"duration":0.3375000000000057},{"name":"E4","midi":64,"time":114.375,"velocity":0.7480314960629921,"duration":0.3375000000000057},{"name":"A4","midi":69,"time":114.375,"velocity":0.7480314960629921,"duration":0.3375000000000057},{"name":"G#5","midi":80,"time":114.75,"velocity":0.7480314960629921,"duration":0.3374999999999915},{"name":"E5","midi":76,"time":114.75,"velocity":0.7480314960629921,"duration":0.3374999999999915},{"name":"C#4","midi":61,"time":115.12499999999999,"velocity":0.7480314960629921,"duration":0.3375000000000057},{"name":"C#4","midi":61,"time":115.49999999999999,"velocity":0.7480314960629921,"duration":0.3375000000000057},{"name":"E5","midi":76,"time":115.87499999999999,"velocity":0.7480314960629921,"duration":0.3375000000000057},{"name":"C#4","midi":61,"time":115.87499999999999,"velocity":0.7480314960629921,"duration":0.6749999999999972},{"name":"G#5","midi":80,"time":115.87499999999999,"velocity":0.7480314960629921,"duration":0.3375000000000057},{"name":"G#5","midi":80,"time":116.24999999999999,"velocity":0.7480314960629921,"duration":0.3374999999999915},{"name":"E5","midi":76,"time":116.24999999999999,"velocity":0.7480314960629921,"duration":0.3374999999999915},{"name":"C#4","midi":61,"time":116.62499999999997,"velocity":0.7480314960629921,"duration":0.3375000000000057},{"name":"C#4","midi":61,"time":116.99999999999997,"velocity":0.7480314960629921,"duration":0.3375000000000057},{"name":"E5","midi":76,"time":117.37499999999997,"velocity":0.7480314960629921,"duration":0.3375000000000057},{"name":"G#5","midi":80,"time":117.37499999999997,"velocity":0.7480314960629921,"duration":0.3375000000000057},{"name":"C#4","midi":61,"time":117.37499999999997,"velocity":0.7480314960629921,"duration":0.6749999999999972},{"name":"G#5","midi":80,"time":117.74999999999997,"velocity":0.7480314960629921,"duration":0.3374999999999915},{"name":"E5","midi":76,"time":117.74999999999997,"velocity":0.7480314960629921,"duration":0.3374999999999915},{"name":"C#4","midi":61,"time":118.12499999999996,"velocity":0.7480314960629921,"duration":0.3375000000000057},{"name":"C#4","midi":61,"time":118.49999999999996,"velocity":0.7480314960629921,"duration":0.3375000000000057},{"name":"E5","midi":76,"time":118.87499999999996,"velocity":0.7480314960629921,"duration":0.3375000000000057},{"name":"G#5","midi":80,"time":118.87499999999996,"velocity":0.7480314960629921,"duration":0.3375000000000057},{"name":"C#4","midi":61,"time":118.87499999999996,"velocity":0.7480314960629921,"duration":0.6749999999999972},{"name":"E5","midi":76,"time":119.24999999999996,"velocity":0.7480314960629921,"duration":0.3374999999999915},{"name":"G#5","midi":80,"time":119.24999999999996,"velocity":0.7480314960629921,"duration":0.3374999999999915},{"name":"C#4","midi":61,"time":119.62499999999994,"velocity":0.7480314960629921,"duration":0.3375000000000057},{"name":"F#4","midi":66,"time":119.99999999999994,"velocity":0.7480314960629921,"duration":0.3375000000000057},{"name":"F#4","midi":66,"time":120.37499999999994,"velocity":0.7480314960629921,"duration":0.3375000000000057},{"name":"G#5","midi":80,"time":120.37499999999994,"velocity":0.7480314960629921,"duration":0.3375000000000057},{"name":"E5","midi":76,"time":120.37499999999994,"velocity":0.7480314960629921,"duration":0.3375000000000057},{"name":"C#5","midi":73,"time":120.74999999999994,"velocity":0.7480314960629921,"duration":0.3375000000000057},{"name":"A4","midi":69,"time":120.74999999999994,"velocity":0.7480314960629921,"duration":0.3375000000000057},{"name":"F#5","midi":78,"time":120.74999999999994,"velocity":0.7480314960629921,"duration":0.3375000000000057},{"name":"A4","midi":69,"time":121.12499999999994,"velocity":0.7480314960629921,"duration":0.3375000000000057},{"name":"A4","midi":69,"time":121.49999999999994,"velocity":0.7480314960629921,"duration":0.3375000000000057},{"name":"F#5","midi":78,"time":121.87499999999994,"velocity":0.7480314960629921,"duration":0.3375000000000057},{"name":"A4","midi":69,"time":121.87499999999994,"velocity":0.7480314960629921,"duration":0.3375000000000057},{"name":"C#5","midi":73,"time":121.87499999999994,"velocity":0.7480314960629921,"duration":0.3375000000000057},{"name":"F#5","midi":78,"time":122.24999999999994,"velocity":0.7480314960629921,"duration":0.6749999999999972},{"name":"C#5","midi":73,"time":122.24999999999994,"velocity":0.7480314960629921,"duration":0.3375000000000057},{"name":"A4","midi":69,"time":122.24999999999994,"velocity":0.7480314960629921,"duration":0.3375000000000057},{"name":"A4","midi":69,"time":122.62499999999994,"velocity":0.7480314960629921,"duration":0.6749999999999972},{"name":"D4","midi":62,"time":122.99999999999994,"velocity":0.7480314960629921,"duration":0.3374999999999915},{"name":"F#5","midi":78,"time":123.37499999999993,"velocity":0.7480314960629921,"duration":0.3375000000000057},{"name":"A4","midi":69,"time":123.37499999999993,"velocity":0.7480314960629921,"duration":0.3375000000000057},{"name":"C#5","midi":73,"time":123.37499999999993,"velocity":0.7480314960629921,"duration":0.3375000000000057},{"name":"D4","midi":62,"time":123.37499999999993,"velocity":0.7480314960629921,"duration":0.6749999999999972},{"name":"A4","midi":69,"time":123.37499999999993,"velocity":0.7480314960629921,"duration":0.6749999999999972},{"name":"A5","midi":81,"time":123.74999999999993,"velocity":0.7480314960629921,"duration":0.3374999999999915},{"name":"F#5","midi":78,"time":123.74999999999993,"velocity":0.7480314960629921,"duration":0.3374999999999915},{"name":"D5","midi":74,"time":123.74999999999993,"velocity":0.7480314960629921,"duration":0.3374999999999915},{"name":"A4","midi":69,"time":124.12499999999991,"velocity":0.7480314960629921,"duration":0.3375000000000057},{"name":"D4","midi":62,"time":124.12499999999991,"velocity":0.7480314960629921,"duration":0.3375000000000057},{"name":"A4","midi":69,"time":124.49999999999991,"velocity":0.7480314960629921,"duration":0.3375000000000057},{"name":"D4","midi":62,"time":124.49999999999991,"velocity":0.7480314960629921,"duration":0.3375000000000057},{"name":"F#5","midi":78,"time":124.87499999999991,"velocity":0.7480314960629921,"duration":0.3375000000000057},{"name":"D4","midi":62,"time":124.87499999999991,"velocity":0.7480314960629921,"duration":0.3375000000000057},{"name":"A4","midi":69,"time":124.87499999999991,"velocity":0.7480314960629921,"duration":0.3375000000000057},{"name":"D5","midi":74,"time":124.87499999999991,"velocity":0.7480314960629921,"duration":0.3375000000000057},{"name":"A5","midi":81,"time":124.87499999999991,"velocity":0.7480314960629921,"duration":0.3375000000000057},{"name":"D5","midi":74,"time":125.24999999999991,"velocity":0.7480314960629921,"duration":0.3375000000000057},{"name":"F#5","midi":78,"time":125.24999999999991,"velocity":0.7480314960629921,"duration":0.3375000000000057},{"name":"A5","midi":81,"time":125.24999999999991,"velocity":0.7480314960629921,"duration":0.3375000000000057},{"name":"D4","midi":62,"time":125.62499999999991,"velocity":0.7480314960629921,"duration":0.3375000000000057},{"name":"A4","midi":69,"time":125.62499999999991,"velocity":0.7480314960629921,"duration":0.3375000000000057},{"name":"D4","midi":62,"time":125.99999999999991,"velocity":0.7480314960629921,"duration":0.3375000000000057},{"name":"A4","midi":69,"time":125.99999999999991,"velocity":0.7480314960629921,"duration":0.3375000000000057},{"name":"A5","midi":81,"time":126.37499999999991,"velocity":0.7480314960629921,"duration":0.3375000000000057},{"name":"A4","midi":69,"time":126.37499999999991,"velocity":0.7480314960629921,"duration":0.6749999999999972},{"name":"D4","midi":62,"time":126.37499999999991,"velocity":0.7480314960629921,"duration":0.3375000000000057},{"name":"D5","midi":74,"time":126.37499999999991,"velocity":0.7480314960629921,"duration":0.3375000000000057},{"name":"F#5","midi":78,"time":126.37499999999991,"velocity":0.7480314960629921,"duration":0.3375000000000057},{"name":"A5","midi":81,"time":126.74999999999991,"velocity":0.7480314960629921,"duration":0.3374999999999915},{"name":"D5","midi":74,"time":126.74999999999991,"velocity":0.7480314960629921,"duration":0.3374999999999915},{"name":"F#5","midi":78,"time":126.74999999999991,"velocity":0.7480314960629921,"duration":0.3374999999999915},{"name":"A4","midi":69,"time":127.1249999999999,"velocity":0.7480314960629921,"duration":0.3375000000000057},{"name":"D4","midi":62,"time":127.1249999999999,"velocity":0.7480314960629921,"duration":0.3375000000000057},{"name":"A4","midi":69,"time":127.4999999999999,"velocity":0.7480314960629921,"duration":0.3375000000000057},{"name":"D4","midi":62,"time":127.4999999999999,"velocity":0.7480314960629921,"duration":0.3375000000000057},{"name":"F#5","midi":78,"time":127.8749999999999,"velocity":0.7480314960629921,"duration":0.3374999999999915},{"name":"D4","midi":62,"time":127.8749999999999,"velocity":0.7480314960629921,"duration":0.3374999999999915},{"name":"D5","midi":74,"time":127.8749999999999,"velocity":0.7480314960629921,"duration":0.3374999999999915},{"name":"A4","midi":69,"time":127.8749999999999,"velocity":0.7480314960629921,"duration":0.6749999999999972},{"name":"A5","midi":81,"time":127.8749999999999,"velocity":0.7480314960629921,"duration":0.3374999999999915},{"name":"D5","midi":74,"time":128.2499999999999,"velocity":0.7480314960629921,"duration":0.3375000000000057},{"name":"F#5","midi":78,"time":128.2499999999999,"velocity":0.7480314960629921,"duration":0.3375000000000057},{"name":"A5","midi":81,"time":128.2499999999999,"velocity":0.7480314960629921,"duration":0.3375000000000057},{"name":"D4","midi":62,"time":128.6249999999999,"velocity":0.7480314960629921,"duration":0.3375000000000057},{"name":"A4","midi":69,"time":128.6249999999999,"velocity":0.7480314960629921,"duration":0.6750000000000114},{"name":"D4","midi":62,"time":129.3749999999999,"velocity":0.7480314960629921,"duration":0.3375000000000057},{"name":"A4","midi":69,"time":129.3749999999999,"velocity":0.7480314960629921,"duration":0.3375000000000057},{"name":"A4","midi":69,"time":129.3749999999999,"velocity":0.7480314960629921,"duration":0.3375000000000057},{"name":"E5","midi":76,"time":129.7499999999999,"velocity":0.7480314960629921,"duration":0.3375000000000057},{"name":"A4","midi":69,"time":129.7499999999999,"velocity":0.7480314960629921,"duration":0.3375000000000057},{"name":"E4","midi":64,"time":129.7499999999999,"velocity":0.7480314960629921,"duration":0.3375000000000057},{"name":"A4","midi":69,"time":130.1249999999999,"velocity":0.7480314960629921,"duration":0.3375000000000057},{"name":"A4","midi":69,"time":130.4999999999999,"velocity":0.7480314960629921,"duration":0.3375000000000057},{"name":"A4","midi":69,"time":130.8749999999999,"velocity":0.7480314960629921,"duration":0.3375000000000057},{"name":"E4","midi":64,"time":130.8749999999999,"velocity":0.7480314960629921,"duration":0.3375000000000057},{"name":"E5","midi":76,"time":130.8749999999999,"velocity":0.7480314960629921,"duration":0.3375000000000057},{"name":"A4","midi":69,"time":131.2499999999999,"velocity":0.7480314960629921,"duration":0.3375000000000057},{"name":"E5","midi":76,"time":131.2499999999999,"velocity":0.7480314960629921,"duration":0.3375000000000057},{"name":"E4","midi":64,"time":131.2499999999999,"velocity":0.7480314960629921,"duration":0.3375000000000057},{"name":"A4","midi":69,"time":131.6249999999999,"velocity":0.7480314960629921,"duration":0.3375000000000057},{"name":"A4","midi":69,"time":131.9999999999999,"velocity":0.7480314960629921,"duration":0.3375000000000057},{"name":"A4","midi":69,"time":132.3749999999999,"velocity":0.7480314960629921,"duration":0.3375000000000057},{"name":"E4","midi":64,"time":132.3749999999999,"velocity":0.7480314960629921,"duration":0.3375000000000057},{"name":"E5","midi":76,"time":132.3749999999999,"velocity":0.7480314960629921,"duration":0.3375000000000057},{"name":"A4","midi":69,"time":132.7499999999999,"velocity":0.7480314960629921,"duration":0.3375000000000057},{"name":"E5","midi":76,"time":132.7499999999999,"velocity":0.7480314960629921,"duration":0.3375000000000057},{"name":"E4","midi":64,"time":132.7499999999999,"velocity":0.7480314960629921,"duration":0.3375000000000057},{"name":"A4","midi":69,"time":133.1249999999999,"velocity":0.7480314960629921,"duration":0.3375000000000057},{"name":"A4","midi":69,"time":133.4999999999999,"velocity":0.7480314960629921,"duration":0.3375000000000057},{"name":"E5","midi":76,"time":133.8749999999999,"velocity":0.7480314960629921,"duration":0.3375000000000057},{"name":"E4","midi":64,"time":133.8749999999999,"velocity":0.7480314960629921,"duration":0.3375000000000057},{"name":"A4","midi":69,"time":133.8749999999999,"velocity":0.7480314960629921,"duration":0.3375000000000057},{"name":"E5","midi":76,"time":134.2499999999999,"velocity":0.7480314960629921,"duration":0.3375000000000057},{"name":"A4","midi":69,"time":134.2499999999999,"velocity":0.7480314960629921,"duration":0.3375000000000057},{"name":"E4","midi":64,"time":134.2499999999999,"velocity":0.7480314960629921,"duration":0.3375000000000057},{"name":"A4","midi":69,"time":134.6249999999999,"velocity":0.7480314960629921,"duration":0.3375000000000057},{"name":"C#4","midi":61,"time":134.9999999999999,"velocity":0.7480314960629921,"duration":0.3375000000000057},{"name":"C#4","midi":61,"time":135.3749999999999,"velocity":0.7480314960629921,"duration":0.6750000000000114},{"name":"E5","midi":76,"time":135.3749999999999,"velocity":0.7480314960629921,"duration":0.3375000000000057},{"name":"A4","midi":69,"time":135.3749999999999,"velocity":0.7480314960629921,"duration":0.3375000000000057},{"name":"E4","midi":64,"time":135.3749999999999,"velocity":0.7480314960629921,"duration":0.3375000000000057},{"name":"G#5","midi":80,"time":135.7499999999999,"velocity":0.7480314960629921,"duration":0.3375000000000057},{"name":"E5","midi":76,"time":135.7499999999999,"velocity":0.7480314960629921,"duration":0.3375000000000057},{"name":"C#4","midi":61,"time":136.1249999999999,"velocity":0.7480314960629921,"duration":0.3375000000000057},{"name":"C#4","midi":61,"time":136.4999999999999,"velocity":0.7480314960629921,"duration":0.3375000000000057},{"name":"C#4","midi":61,"time":136.8749999999999,"velocity":0.7480314960629921,"duration":0.6750000000000114},{"name":"G#5","midi":80,"time":136.8749999999999,"velocity":0.7480314960629921,"duration":0.3375000000000057},{"name":"E5","midi":76,"time":136.8749999999999,"velocity":0.7480314960629921,"duration":0.3375000000000057},{"name":"G#5","midi":80,"time":137.2499999999999,"velocity":0.7480314960629921,"duration":0.3375000000000057},{"name":"E5","midi":76,"time":137.2499999999999,"velocity":0.7480314960629921,"duration":0.3375000000000057},{"name":"C#4","midi":61,"time":137.6249999999999,"velocity":0.7480314960629921,"duration":0.3375000000000057},{"name":"C#4","midi":61,"time":137.9999999999999,"velocity":0.7480314960629921,"duration":0.3375000000000057},{"name":"G#5","midi":80,"time":138.3749999999999,"velocity":0.7480314960629921,"duration":0.3375000000000057},{"name":"E5","midi":76,"time":138.3749999999999,"velocity":0.7480314960629921,"duration":0.3375000000000057},{"name":"C#4","midi":61,"time":138.3749999999999,"velocity":0.7480314960629921,"duration":0.6750000000000114},{"name":"G#5","midi":80,"time":138.7499999999999,"velocity":0.7480314960629921,"duration":0.3375000000000057},{"name":"E5","midi":76,"time":138.7499999999999,"velocity":0.7480314960629921,"duration":0.3375000000000057},{"name":"C#4","midi":61,"time":139.1249999999999,"velocity":0.7480314960629921,"duration":0.3375000000000057},{"name":"C#4","midi":61,"time":139.4999999999999,"velocity":0.7480314960629921,"duration":0.3375000000000057},{"name":"C#4","midi":61,"time":139.8749999999999,"velocity":0.7480314960629921,"duration":0.6750000000000114},{"name":"E5","midi":76,"time":139.8749999999999,"velocity":0.7480314960629921,"duration":0.3375000000000057},{"name":"G#5","midi":80,"time":139.8749999999999,"velocity":0.7480314960629921,"duration":0.3375000000000057},{"name":"G#5","midi":80,"time":140.2499999999999,"velocity":0.7480314960629921,"duration":0.3375000000000057},{"name":"E5","midi":76,"time":140.2499999999999,"velocity":0.7480314960629921,"duration":0.3375000000000057},{"name":"C#4","midi":61,"time":140.6249999999999,"velocity":0.7480314960629921,"duration":0.3375000000000057},{"name":"F#4","midi":66,"time":140.9999999999999,"velocity":0.7480314960629921,"duration":0.3375000000000057},{"name":"G#5","midi":80,"time":141.3749999999999,"velocity":0.7480314960629921,"duration":0.3375000000000057},{"name":"E5","midi":76,"time":141.3749999999999,"velocity":0.7480314960629921,"duration":0.3375000000000057},{"name":"F#4","midi":66,"time":141.3749999999999,"velocity":0.7480314960629921,"duration":0.3375000000000057},{"name":"A4","midi":69,"time":141.7499999999999,"velocity":0.7480314960629921,"duration":0.3375000000000057},{"name":"C#5","midi":73,"time":141.7499999999999,"velocity":0.7480314960629921,"duration":0.3375000000000057},{"name":"F#5","midi":78,"time":141.7499999999999,"velocity":0.7480314960629921,"duration":0.3375000000000057},{"name":"A4","midi":69,"time":142.1249999999999,"velocity":0.7480314960629921,"duration":0.3375000000000057},{"name":"A4","midi":69,"time":142.4999999999999,"velocity":0.7480314960629921,"duration":0.3375000000000057},{"name":"C#5","midi":73,"time":142.8749999999999,"velocity":0.7480314960629921,"duration":0.3375000000000057},{"name":"A4","midi":69,"time":142.8749999999999,"velocity":0.7480314960629921,"duration":0.3375000000000057},{"name":"F#5","midi":78,"time":142.8749999999999,"velocity":0.7480314960629921,"duration":0.3375000000000057},{"name":"F#5","midi":78,"time":143.2499999999999,"velocity":0.7480314960629921,"duration":0.6750000000000114},{"name":"C#5","midi":73,"time":143.2499999999999,"velocity":0.7480314960629921,"duration":0.3375000000000057},{"name":"A4","midi":69,"time":143.2499999999999,"velocity":0.7480314960629921,"duration":0.3375000000000057},{"name":"A4","midi":69,"time":143.6249999999999,"velocity":0.7480314960629921,"duration":0.6750000000000114},{"name":"D4","midi":62,"time":143.9999999999999,"velocity":0.7480314960629921,"duration":0.3375000000000057},{"name":"A4","midi":69,"time":144.3749999999999,"velocity":0.7480314960629921,"duration":0.3375000000000057},{"name":"C#5","midi":73,"time":144.3749999999999,"velocity":0.7480314960629921,"duration":0.3375000000000057},{"name":"F#5","midi":78,"time":144.3749999999999,"velocity":0.7480314960629921,"duration":0.3375000000000057},{"name":"D4","midi":62,"time":144.3749999999999,"velocity":0.7480314960629921,"duration":0.6750000000000114},{"name":"A4","midi":69,"time":144.3749999999999,"velocity":0.7480314960629921,"duration":0.6750000000000114},{"name":"A5","midi":81,"time":144.7499999999999,"velocity":0.7480314960629921,"duration":0.3375000000000057},{"name":"D5","midi":74,"time":144.7499999999999,"velocity":0.7480314960629921,"duration":0.3375000000000057},{"name":"F#5","midi":78,"time":144.7499999999999,"velocity":0.7480314960629921,"duration":0.3375000000000057},{"name":"A4","midi":69,"time":145.1249999999999,"velocity":0.7480314960629921,"duration":0.3375000000000057},{"name":"D4","midi":62,"time":145.1249999999999,"velocity":0.7480314960629921,"duration":0.3375000000000057},{"name":"D4","midi":62,"time":145.4999999999999,"velocity":0.7480314960629921,"duration":0.3375000000000057},{"name":"A4","midi":69,"time":145.4999999999999,"velocity":0.7480314960629921,"duration":0.3375000000000057},{"name":"D4","midi":62,"time":145.8749999999999,"velocity":0.7480314960629921,"duration":0.3375000000000057},{"name":"A4","midi":69,"time":145.8749999999999,"velocity":0.7480314960629921,"duration":0.3375000000000057},{"name":"A5","midi":81,"time":145.8749999999999,"velocity":0.7480314960629921,"duration":0.3375000000000057},{"name":"F#5","midi":78,"time":145.8749999999999,"velocity":0.7480314960629921,"duration":0.3375000000000057},{"name":"D5","midi":74,"time":145.8749999999999,"velocity":0.7480314960629921,"duration":0.3375000000000057},{"name":"D5","midi":74,"time":146.2499999999999,"velocity":0.7480314960629921,"duration":0.3375000000000057},{"name":"A5","midi":81,"time":146.2499999999999,"velocity":0.7480314960629921,"duration":0.3375000000000057},{"name":"F#5","midi":78,"time":146.2499999999999,"velocity":0.7480314960629921,"duration":0.3375000000000057},{"name":"D4","midi":62,"time":146.6249999999999,"velocity":0.7480314960629921,"duration":0.3375000000000057},{"name":"A4","midi":69,"time":146.6249999999999,"velocity":0.7480314960629921,"duration":0.3375000000000057},{"name":"A4","midi":69,"time":146.9999999999999,"velocity":0.7480314960629921,"duration":0.3375000000000057},{"name":"D4","midi":62,"time":146.9999999999999,"velocity":0.7480314960629921,"duration":0.3375000000000057},{"name":"A4","midi":69,"time":147.3749999999999,"velocity":0.7480314960629921,"duration":0.6750000000000114},{"name":"A5","midi":81,"time":147.3749999999999,"velocity":0.7480314960629921,"duration":0.3375000000000057},{"name":"F#5","midi":78,"time":147.3749999999999,"velocity":0.7480314960629921,"duration":0.3375000000000057},{"name":"D5","midi":74,"time":147.3749999999999,"velocity":0.7480314960629921,"duration":0.3375000000000057},{"name":"D4","midi":62,"time":147.3749999999999,"velocity":0.7480314960629921,"duration":0.3375000000000057},{"name":"D5","midi":74,"time":147.7499999999999,"velocity":0.7480314960629921,"duration":0.3375000000000057},{"name":"F#5","midi":78,"time":147.7499999999999,"velocity":0.7480314960629921,"duration":0.3375000000000057},{"name":"A5","midi":81,"time":147.7499999999999,"velocity":0.7480314960629921,"duration":0.3375000000000057},{"name":"D4","midi":62,"time":148.1249999999999,"velocity":0.7480314960629921,"duration":0.3375000000000057},{"name":"A4","midi":69,"time":148.1249999999999,"velocity":0.7480314960629921,"duration":0.3375000000000057},{"name":"A4","midi":69,"time":148.4999999999999,"velocity":0.7480314960629921,"duration":0.3375000000000057},{"name":"D4","midi":62,"time":148.4999999999999,"velocity":0.7480314960629921,"duration":0.3375000000000057},{"name":"A4","midi":69,"time":148.8749999999999,"velocity":0.7480314960629921,"duration":0.6750000000000114},{"name":"D4","midi":62,"time":148.8749999999999,"velocity":0.7480314960629921,"duration":0.3375000000000057},{"name":"A5","midi":81,"time":148.8749999999999,"velocity":0.7480314960629921,"duration":0.3375000000000057},{"name":"F#5","midi":78,"time":148.8749999999999,"velocity":0.7480314960629921,"duration":0.3375000000000057},{"name":"D5","midi":74,"time":148.8749999999999,"velocity":0.7480314960629921,"duration":0.3375000000000057},{"name":"D5","midi":74,"time":149.2499999999999,"velocity":0.7480314960629921,"duration":0.3375000000000057},{"name":"F#5","midi":78,"time":149.2499999999999,"velocity":0.7480314960629921,"duration":0.3375000000000057},{"name":"A5","midi":81,"time":149.2499999999999,"velocity":0.7480314960629921,"duration":0.3375000000000057},{"name":"D4","midi":62,"time":149.6249999999999,"velocity":0.7480314960629921,"duration":0.3375000000000057},{"name":"A4","midi":69,"time":149.6249999999999,"velocity":0.7480314960629921,"duration":0.3375000000000057},{"name":"C#5","midi":73,"time":150.7499999999999,"velocity":0.7480314960629921,"duration":1.4000000000000057},{"name":"C#5","midi":73,"time":152.2499999999999,"velocity":0.7480314960629921,"duration":1.4000000000000057},{"name":"C#5","midi":73,"time":153.7499999999999,"velocity":0.7480314960629921,"duration":1.4000000000000057},{"name":"C#5","midi":73,"time":155.2499999999999,"velocity":0.7480314960629921,"duration":1.4000000000000057},{"name":"G#4","midi":68,"time":156.7499999999999,"velocity":0.7480314960629921,"duration":1.4000000000000057},{"name":"G#4","midi":68,"time":158.2499999999999,"velocity":0.7480314960629921,"duration":1.4000000000000057},{"name":"G#4","midi":68,"time":159.7499999999999,"velocity":0.7480314960629921,"duration":1.4000000000000057},{"name":"G#4","midi":68,"time":161.2499999999999,"velocity":0.7480314960629921,"duration":1.4000000000000057},{"name":"F#4","midi":66,"time":162.7499999999999,"velocity":0.7480314960629921,"duration":1.4000000000000057},{"name":"F#4","midi":66,"time":164.2499999999999,"velocity":0.7480314960629921,"duration":1.4000000000000057},{"name":"F#4","midi":66,"time":165.7499999999999,"velocity":0.7480314960629921,"duration":1.4000000000000057},{"name":"F#4","midi":66,"time":167.2499999999999,"velocity":0.7480314960629921,"duration":1.4000000000000057},{"name":"C#5","midi":73,"time":168.7499999999999,"velocity":0.7480314960629921,"duration":1.4000000000000057},{"name":"C#5","midi":73,"time":170.2499999999999,"velocity":0.7480314960629921,"duration":1.4000000000000057},{"name":"C#5","midi":73,"time":171.7499999999999,"velocity":0.7480314960629921,"duration":1.4000000000000057},{"name":"C#5","midi":73,"time":173.2499999999999,"velocity":0.7480314960629921,"duration":1.4000000000000057},{"name":"G#4","midi":68,"time":174.7499999999999,"velocity":0.7480314960629921,"duration":1.4000000000000057},{"name":"G#4","midi":68,"time":176.2499999999999,"velocity":0.7480314960629921,"duration":1.4000000000000057},{"name":"G#4","midi":68,"time":177.7499999999999,"velocity":0.7480314960629921,"duration":1.4000000000000057},{"name":"G#4","midi":68,"time":179.2499999999999,"velocity":0.7480314960629921,"duration":1.4000000000000057},{"name":"F#4","midi":66,"time":180.7499999999999,"velocity":0.7480314960629921,"duration":1.4000000000000057},{"name":"F#4","midi":66,"time":182.2499999999999,"velocity":0.7480314960629921,"duration":1.4000000000000057},{"name":"F#4","midi":66,"time":183.7499999999999,"velocity":0.7480314960629921,"duration":1.4000000000000057},{"name":"F#4","midi":66,"time":185.2499999999999,"velocity":0.7480314960629921,"duration":0.3375000000000057},{"name":"F#4","midi":66,"time":185.6249999999999,"velocity":0.7480314960629921,"duration":0.3375000000000057},{"name":"A4","midi":69,"time":185.9999999999999,"velocity":0.7480314960629921,"duration":0.3375000000000057},{"name":"A4","midi":69,"time":186.3749999999999,"velocity":0.7480314960629921,"duration":0.3375000000000057},{"name":"E4","midi":64,"time":186.7499999999999,"velocity":0.7480314960629921,"duration":0.3375000000000057},{"name":"A4","midi":69,"time":186.7499999999999,"velocity":0.7480314960629921,"duration":0.3375000000000057},{"name":"E5","midi":76,"time":186.7499999999999,"velocity":0.7480314960629921,"duration":0.3375000000000057},{"name":"A4","midi":69,"time":187.1249999999999,"velocity":0.7480314960629921,"duration":0.3375000000000057},{"name":"A4","midi":69,"time":187.4999999999999,"velocity":0.7480314960629921,"duration":0.3375000000000057},{"name":"A4","midi":69,"time":187.8749999999999,"velocity":0.7480314960629921,"duration":0.3375000000000057},{"name":"E4","midi":64,"time":187.8749999999999,"velocity":0.7480314960629921,"duration":0.3375000000000057},{"name":"E5","midi":76,"time":187.8749999999999,"velocity":0.7480314960629921,"duration":0.3375000000000057},{"name":"E4","midi":64,"time":188.2499999999999,"velocity":0.7480314960629921,"duration":0.3375000000000057},{"name":"A4","midi":69,"time":188.2499999999999,"velocity":0.7480314960629921,"duration":0.3375000000000057},{"name":"E5","midi":76,"time":188.2499999999999,"velocity":0.7480314960629921,"duration":0.3375000000000057},{"name":"A4","midi":69,"time":188.6249999999999,"velocity":0.7480314960629921,"duration":0.3375000000000057},{"name":"A4","midi":69,"time":188.9999999999999,"velocity":0.7480314960629921,"duration":0.3375000000000057},{"name":"A4","midi":69,"time":189.3749999999999,"velocity":0.7480314960629921,"duration":0.3375000000000057},{"name":"E5","midi":76,"time":189.3749999999999,"velocity":0.7480314960629921,"duration":0.3375000000000057},{"name":"E4","midi":64,"time":189.3749999999999,"velocity":0.7480314960629921,"duration":0.3375000000000057},{"name":"E5","midi":76,"time":189.7499999999999,"velocity":0.7480314960629921,"duration":0.3375000000000057},{"name":"E4","midi":64,"time":189.7499999999999,"velocity":0.7480314960629921,"duration":0.3375000000000057},{"name":"A4","midi":69,"time":189.7499999999999,"velocity":0.7480314960629921,"duration":0.3375000000000057},{"name":"A4","midi":69,"time":190.1249999999999,"velocity":0.7480314960629921,"duration":0.3375000000000057},{"name":"A4","midi":69,"time":190.4999999999999,"velocity":0.7480314960629921,"duration":0.3375000000000057},{"name":"E5","midi":76,"time":190.8749999999999,"velocity":0.7480314960629921,"duration":0.3375000000000057},{"name":"E4","midi":64,"time":190.8749999999999,"velocity":0.7480314960629921,"duration":0.3375000000000057},{"name":"A4","midi":69,"time":190.8749999999999,"velocity":0.7480314960629921,"duration":0.3375000000000057},{"name":"E5","midi":76,"time":191.2499999999999,"velocity":0.7480314960629921,"duration":0.3375000000000057},{"name":"E4","midi":64,"time":191.2499999999999,"velocity":0.7480314960629921,"duration":0.3375000000000057},{"name":"A4","midi":69,"time":191.2499999999999,"velocity":0.7480314960629921,"duration":0.3375000000000057},{"name":"A4","midi":69,"time":191.6249999999999,"velocity":0.7480314960629921,"duration":0.3375000000000057},{"name":"C#4","midi":61,"time":191.9999999999999,"velocity":0.7480314960629921,"duration":0.3375000000000057},{"name":"C#4","midi":61,"time":192.3749999999999,"velocity":0.7480314960629921,"duration":0.6750000000000114},{"name":"A4","midi":69,"time":192.3749999999999,"velocity":0.7480314960629921,"duration":0.3375000000000057},{"name":"E5","midi":76,"time":192.3749999999999,"velocity":0.7480314960629921,"duration":0.3375000000000057},{"name":"E4","midi":64,"time":192.3749999999999,"velocity":0.7480314960629921,"duration":0.3375000000000057},{"name":"G#5","midi":80,"time":192.7499999999999,"velocity":0.7480314960629921,"duration":0.3375000000000057},{"name":"E5","midi":76,"time":192.7499999999999,"velocity":0.7480314960629921,"duration":0.3375000000000057},{"name":"C#4","midi":61,"time":193.1249999999999,"velocity":0.7480314960629921,"duration":0.3375000000000057},{"name":"C#4","midi":61,"time":193.4999999999999,"velocity":0.7480314960629921,"duration":0.3375000000000057},{"name":"C#4","midi":61,"time":193.8749999999999,"velocity":0.7480314960629921,"duration":0.6750000000000114},{"name":"E5","midi":76,"time":193.8749999999999,"velocity":0.7480314960629921,"duration":0.3375000000000057},{"name":"G#5","midi":80,"time":193.8749999999999,"velocity":0.7480314960629921,"duration":0.3375000000000057},{"name":"E5","midi":76,"time":194.2499999999999,"velocity":0.7480314960629921,"duration":0.3375000000000057},{"name":"G#5","midi":80,"time":194.2499999999999,"velocity":0.7480314960629921,"duration":0.3375000000000057},{"name":"C#4","midi":61,"time":194.6249999999999,"velocity":0.7480314960629921,"duration":0.3375000000000057},{"name":"C#4","midi":61,"time":194.9999999999999,"velocity":0.7480314960629921,"duration":0.3375000000000057},{"name":"G#5","midi":80,"time":195.3749999999999,"velocity":0.7480314960629921,"duration":0.3375000000000057},{"name":"E5","midi":76,"time":195.3749999999999,"velocity":0.7480314960629921,"duration":0.3375000000000057},{"name":"C#4","midi":61,"time":195.3749999999999,"velocity":0.7480314960629921,"duration":0.6750000000000114},{"name":"G#5","midi":80,"time":195.7499999999999,"velocity":0.7480314960629921,"duration":0.3375000000000057},{"name":"E5","midi":76,"time":195.7499999999999,"velocity":0.7480314960629921,"duration":0.3375000000000057},{"name":"C#4","midi":61,"time":196.1249999999999,"velocity":0.7480314960629921,"duration":0.3375000000000057},{"name":"C#4","midi":61,"time":196.4999999999999,"velocity":0.7480314960629921,"duration":0.3375000000000057},{"name":"C#4","midi":61,"time":196.8749999999999,"velocity":0.7480314960629921,"duration":0.6750000000000114},{"name":"G#5","midi":80,"time":196.8749999999999,"velocity":0.7480314960629921,"duration":0.3375000000000057},{"name":"E5","midi":76,"time":196.8749999999999,"velocity":0.7480314960629921,"duration":0.3375000000000057},{"name":"E5","midi":76,"time":197.2499999999999,"velocity":0.7480314960629921,"duration":0.3375000000000057},{"name":"G#5","midi":80,"time":197.2499999999999,"velocity":0.7480314960629921,"duration":0.3375000000000057},{"name":"C#4","midi":61,"time":197.6249999999999,"velocity":0.7480314960629921,"duration":0.3375000000000057},{"name":"F#4","midi":66,"time":197.9999999999999,"velocity":0.7480314960629921,"duration":0.3375000000000057},{"name":"E5","midi":76,"time":198.3749999999999,"velocity":0.7480314960629921,"duration":0.3375000000000057},{"name":"G#5","midi":80,"time":198.3749999999999,"velocity":0.7480314960629921,"duration":0.3375000000000057},{"name":"F#4","midi":66,"time":198.3749999999999,"velocity":0.7480314960629921,"duration":0.3375000000000057},{"name":"C#5","midi":73,"time":198.7499999999999,"velocity":0.7480314960629921,"duration":0.3375000000000057},{"name":"F#5","midi":78,"time":198.7499999999999,"velocity":0.7480314960629921,"duration":0.3375000000000057},{"name":"A4","midi":69,"time":198.7499999999999,"velocity":0.7480314960629921,"duration":0.3375000000000057},{"name":"A4","midi":69,"time":199.1249999999999,"velocity":0.7480314960629921,"duration":0.3375000000000057},{"name":"A4","midi":69,"time":199.4999999999999,"velocity":0.7480314960629921,"duration":0.3375000000000057},{"name":"C#5","midi":73,"time":199.8749999999999,"velocity":0.7480314960629921,"duration":0.3375000000000057},{"name":"F#5","midi":78,"time":199.8749999999999,"velocity":0.7480314960629921,"duration":0.3375000000000057},{"name":"A4","midi":69,"time":199.8749999999999,"velocity":0.7480314960629921,"duration":0.3375000000000057},{"name":"F#5","midi":78,"time":200.2499999999999,"velocity":0.7480314960629921,"duration":0.6750000000000114},{"name":"C#5","midi":73,"time":200.2499999999999,"velocity":0.7480314960629921,"duration":0.3375000000000057},{"name":"A4","midi":69,"time":200.2499999999999,"velocity":0.7480314960629921,"duration":0.3375000000000057},{"name":"A4","midi":69,"time":200.6249999999999,"velocity":0.7480314960629921,"duration":0.6750000000000114},{"name":"D4","midi":62,"time":200.9999999999999,"velocity":0.7480314960629921,"duration":0.3375000000000057},{"name":"F#5","midi":78,"time":201.3749999999999,"velocity":0.7480314960629921,"duration":0.3375000000000057},{"name":"C#5","midi":73,"time":201.3749999999999,"velocity":0.7480314960629921,"duration":0.3375000000000057},{"name":"A4","midi":69,"time":201.3749999999999,"velocity":0.7480314960629921,"duration":0.3375000000000057},{"name":"D4","midi":62,"time":201.3749999999999,"velocity":0.7480314960629921,"duration":0.6750000000000114},{"name":"A4","midi":69,"time":201.3749999999999,"velocity":0.7480314960629921,"duration":0.6750000000000114},{"name":"A5","midi":81,"time":201.7499999999999,"velocity":0.7480314960629921,"duration":0.3375000000000057},{"name":"D5","midi":74,"time":201.7499999999999,"velocity":0.7480314960629921,"duration":0.3375000000000057},{"name":"F#5","midi":78,"time":201.7499999999999,"velocity":0.7480314960629921,"duration":0.3375000000000057},{"name":"D4","midi":62,"time":202.1249999999999,"velocity":0.7480314960629921,"duration":0.3375000000000057},{"name":"A4","midi":69,"time":202.1249999999999,"velocity":0.7480314960629921,"duration":0.3375000000000057},{"name":"D4","midi":62,"time":202.4999999999999,"velocity":0.7480314960629921,"duration":0.3375000000000057},{"name":"A4","midi":69,"time":202.4999999999999,"velocity":0.7480314960629921,"duration":0.3375000000000057},{"name":"D4","midi":62,"time":202.8749999999999,"velocity":0.7480314960629921,"duration":0.3375000000000057},{"name":"A4","midi":69,"time":202.8749999999999,"velocity":0.7480314960629921,"duration":0.3375000000000057},{"name":"D5","midi":74,"time":202.8749999999999,"velocity":0.7480314960629921,"duration":0.3375000000000057},{"name":"F#5","midi":78,"time":202.8749999999999,"velocity":0.7480314960629921,"duration":0.3375000000000057},{"name":"A5","midi":81,"time":202.8749999999999,"velocity":0.7480314960629921,"duration":0.3375000000000057},{"name":"F#5","midi":78,"time":203.2499999999999,"velocity":0.7480314960629921,"duration":0.3375000000000057},{"name":"D5","midi":74,"time":203.2499999999999,"velocity":0.7480314960629921,"duration":0.3375000000000057},{"name":"A5","midi":81,"time":203.2499999999999,"velocity":0.7480314960629921,"duration":0.3375000000000057},{"name":"A4","midi":69,"time":203.6249999999999,"velocity":0.7480314960629921,"duration":0.3375000000000057},{"name":"D4","midi":62,"time":203.6249999999999,"velocity":0.7480314960629921,"duration":0.3375000000000057},{"name":"A4","midi":69,"time":203.9999999999999,"velocity":0.7480314960629921,"duration":0.3375000000000057},{"name":"D4","midi":62,"time":203.9999999999999,"velocity":0.7480314960629921,"duration":0.3375000000000057},{"name":"F#5","midi":78,"time":204.3749999999999,"velocity":0.7480314960629921,"duration":0.3375000000000057},{"name":"A5","midi":81,"time":204.3749999999999,"velocity":0.7480314960629921,"duration":0.3375000000000057},{"name":"A4","midi":69,"time":204.3749999999999,"velocity":0.7480314960629921,"duration":0.6750000000000114},{"name":"D4","midi":62,"time":204.3749999999999,"velocity":0.7480314960629921,"duration":0.3375000000000057},{"name":"D5","midi":74,"time":204.3749999999999,"velocity":0.7480314960629921,"duration":0.3375000000000057},{"name":"A5","midi":81,"time":204.7499999999999,"velocity":0.7480314960629921,"duration":0.3375000000000057},{"name":"F#5","midi":78,"time":204.7499999999999,"velocity":0.7480314960629921,"duration":0.3375000000000057},{"name":"D5","midi":74,"time":204.7499999999999,"velocity":0.7480314960629921,"duration":0.3375000000000057},{"name":"A4","midi":69,"time":205.1249999999999,"velocity":0.7480314960629921,"duration":0.3375000000000057},{"name":"D4","midi":62,"time":205.1249999999999,"velocity":0.7480314960629921,"duration":0.3375000000000057},{"name":"A4","midi":69,"time":205.4999999999999,"velocity":0.7480314960629921,"duration":0.3375000000000057},{"name":"D4","midi":62,"time":205.4999999999999,"velocity":0.7480314960629921,"duration":0.3375000000000057},{"name":"A5","midi":81,"time":205.8749999999999,"velocity":0.7480314960629921,"duration":0.3375000000000057},{"name":"D4","midi":62,"time":205.8749999999999,"velocity":0.7480314960629921,"duration":0.3375000000000057},{"name":"D5","midi":74,"time":205.8749999999999,"velocity":0.7480314960629921,"duration":0.3375000000000057},{"name":"F#5","midi":78,"time":205.8749999999999,"velocity":0.7480314960629921,"duration":0.3375000000000057},{"name":"A4","midi":69,"time":205.8749999999999,"velocity":0.7480314960629921,"duration":0.6750000000000114},{"name":"D5","midi":74,"time":206.2499999999999,"velocity":0.7480314960629921,"duration":0.3375000000000057},{"name":"F#5","midi":78,"time":206.2499999999999,"velocity":0.7480314960629921,"duration":0.3375000000000057},{"name":"A5","midi":81,"time":206.2499999999999,"velocity":0.7480314960629921,"duration":0.3375000000000057},{"name":"D4","midi":62,"time":206.6249999999999,"velocity":0.7480314960629921,"duration":0.3375000000000057},{"name":"A4","midi":69,"time":206.6249999999999,"velocity":0.7480314960629921,"duration":0.3375000000000057},{"name":"C#5","midi":73,"time":206.9999999999999,"velocity":0.7480314960629921,"duration":0.3375000000000057},{"name":"A4","midi":69,"time":206.9999999999999,"velocity":0.7480314960629921,"duration":0.3375000000000057},{"name":"A4","midi":69,"time":207.3749999999999,"velocity":0.7480314960629921,"duration":0.6750000000000114},{"name":"C#5","midi":73,"time":207.3749999999999,"velocity":0.7480314960629921,"duration":0.6750000000000114},{"name":"A4","midi":69,"time":208.1249999999999,"velocity":0.7480314960629921,"duration":0.3375000000000057},{"name":"C#5","midi":73,"time":208.1249999999999,"velocity":0.7480314960629921,"duration":0.3375000000000057},{"name":"C#5","midi":73,"time":208.4999999999999,"velocity":0.7480314960629921,"duration":0.3375000000000057},{"name":"A4","midi":69,"time":208.4999999999999,"velocity":0.7480314960629921,"duration":0.3375000000000057},{"name":"C#5","midi":73,"time":208.8749999999999,"velocity":0.7480314960629921,"duration":0.6750000000000114},{"name":"A4","midi":69,"time":208.8749999999999,"velocity":0.7480314960629921,"duration":0.6750000000000114},{"name":"A4","midi":69,"time":209.6249999999999,"velocity":0.7480314960629921,"duration":0.3375000000000057},{"name":"C#5","midi":73,"time":209.6249999999999,"velocity":0.7480314960629921,"duration":0.3375000000000057},{"name":"A4","midi":69,"time":209.9999999999999,"velocity":0.7480314960629921,"duration":0.3375000000000057},{"name":"C#5","midi":73,"time":209.9999999999999,"velocity":0.7480314960629921,"duration":0.3375000000000057},{"name":"A4","midi":69,"time":210.3749999999999,"velocity":0.7480314960629921,"duration":0.6750000000000114},{"name":"C#5","midi":73,"time":210.3749999999999,"velocity":0.7480314960629921,"duration":0.6750000000000114},{"name":"A4","midi":69,"time":211.1249999999999,"velocity":0.7480314960629921,"duration":0.3375000000000057},{"name":"C#5","midi":73,"time":211.1249999999999,"velocity":0.7480314960629921,"duration":0.3375000000000057},{"name":"A4","midi":69,"time":211.4999999999999,"velocity":0.7480314960629921,"duration":0.3375000000000057},{"name":"C#5","midi":73,"time":211.4999999999999,"velocity":0.7480314960629921,"duration":0.3375000000000057},{"name":"A4","midi":69,"time":211.8749999999999,"velocity":0.7480314960629921,"duration":0.6750000000000114},{"name":"C#5","midi":73,"time":211.8749999999999,"velocity":0.7480314960629921,"duration":0.6750000000000114},{"name":"A4","midi":69,"time":212.6249999999999,"velocity":0.7480314960629921,"duration":0.3375000000000057},{"name":"C#5","midi":73,"time":212.6249999999999,"velocity":0.7480314960629921,"duration":0.3375000000000057},{"name":"G#4","midi":68,"time":212.9999999999999,"velocity":0.7480314960629921,"duration":0.3375000000000057},{"name":"E4","midi":64,"time":212.9999999999999,"velocity":0.7480314960629921,"duration":0.3375000000000057},{"name":"E4","midi":64,"time":213.3749999999999,"velocity":0.7480314960629921,"duration":0.6750000000000114},{"name":"G#4","midi":68,"time":213.3749999999999,"velocity":0.7480314960629921,"duration":0.6750000000000114},{"name":"G#4","midi":68,"time":214.1249999999999,"velocity":0.7480314960629921,"duration":0.3375000000000057},{"name":"E4","midi":64,"time":214.1249999999999,"velocity":0.7480314960629921,"duration":0.3375000000000057},{"name":"G#4","midi":68,"time":214.4999999999999,"velocity":0.7480314960629921,"duration":0.3375000000000057},{"name":"E4","midi":64,"time":214.4999999999999,"velocity":0.7480314960629921,"duration":0.3375000000000057},{"name":"G#4","midi":68,"time":214.8749999999999,"velocity":0.7480314960629921,"duration":0.6750000000000114},{"name":"E4","midi":64,"time":214.8749999999999,"velocity":0.7480314960629921,"duration":0.6750000000000114},{"name":"E4","midi":64,"time":215.6249999999999,"velocity":0.7480314960629921,"duration":0.3375000000000057},{"name":"G#4","midi":68,"time":215.6249999999999,"velocity":0.7480314960629921,"duration":0.3375000000000057},{"name":"G#4","midi":68,"time":215.9999999999999,"velocity":0.7480314960629921,"duration":0.3375000000000057},{"name":"E4","midi":64,"time":215.9999999999999,"velocity":0.7480314960629921,"duration":0.3375000000000057},{"name":"G#4","midi":68,"time":216.3749999999999,"velocity":0.7480314960629921,"duration":0.6750000000000114},{"name":"E4","midi":64,"time":216.3749999999999,"velocity":0.7480314960629921,"duration":0.6750000000000114},{"name":"G#4","midi":68,"time":217.1249999999999,"velocity":0.7480314960629921,"duration":0.3375000000000057},{"name":"E4","midi":64,"time":217.1249999999999,"velocity":0.7480314960629921,"duration":0.3375000000000057},{"name":"E4","midi":64,"time":217.4999999999999,"velocity":0.7480314960629921,"duration":0.3375000000000057},{"name":"G#4","midi":68,"time":217.4999999999999,"velocity":0.7480314960629921,"duration":0.3375000000000057},{"name":"E4","midi":64,"time":217.8749999999999,"velocity":0.7480314960629921,"duration":0.6750000000000114},{"name":"G#4","midi":68,"time":217.8749999999999,"velocity":0.7480314960629921,"duration":0.6750000000000114},{"name":"G#4","midi":68,"time":218.6249999999999,"velocity":0.7480314960629921,"duration":0.3375000000000057},{"name":"E4","midi":64,"time":218.6249999999999,"velocity":0.7480314960629921,"duration":0.3375000000000057},{"name":"F#4","midi":66,"time":218.9999999999999,"velocity":0.7480314960629921,"duration":0.3375000000000057},{"name":"D4","midi":62,"time":218.9999999999999,"velocity":0.7480314960629921,"duration":0.3375000000000057},{"name":"D4","midi":62,"time":219.3749999999999,"velocity":0.7480314960629921,"duration":0.6750000000000114},{"name":"F#4","midi":66,"time":219.3749999999999,"velocity":0.7480314960629921,"duration":0.6750000000000114},{"name":"D4","midi":62,"time":220.1249999999999,"velocity":0.7480314960629921,"duration":0.3375000000000057},{"name":"F#4","midi":66,"time":220.1249999999999,"velocity":0.7480314960629921,"duration":0.3375000000000057},{"name":"F#4","midi":66,"time":220.4999999999999,"velocity":0.7480314960629921,"duration":0.3375000000000057},{"name":"D4","midi":62,"time":220.4999999999999,"velocity":0.7480314960629921,"duration":0.3375000000000057},{"name":"D4","midi":62,"time":220.8749999999999,"velocity":0.7480314960629921,"duration":0.6750000000000114},{"name":"F#4","midi":66,"time":220.8749999999999,"velocity":0.7480314960629921,"duration":0.6750000000000114},{"name":"D4","midi":62,"time":221.6249999999999,"velocity":0.7480314960629921,"duration":0.3375000000000057},{"name":"F#4","midi":66,"time":221.6249999999999,"velocity":0.7480314960629921,"duration":0.3375000000000057},{"name":"D4","midi":62,"time":221.9999999999999,"velocity":0.7480314960629921,"duration":0.3375000000000057},{"name":"F#4","midi":66,"time":221.9999999999999,"velocity":0.7480314960629921,"duration":0.3375000000000057},{"name":"F#4","midi":66,"time":222.3749999999999,"velocity":0.7480314960629921,"duration":0.6750000000000114},{"name":"D4","midi":62,"time":222.3749999999999,"velocity":0.7480314960629921,"duration":0.6750000000000114},{"name":"D4","midi":62,"time":223.1249999999999,"velocity":0.7480314960629921,"duration":0.3375000000000057},{"name":"F#4","midi":66,"time":223.1249999999999,"velocity":0.7480314960629921,"duration":0.3375000000000057},{"name":"D4","midi":62,"time":223.4999999999999,"velocity":0.7480314960629921,"duration":0.3375000000000057},{"name":"F#4","midi":66,"time":223.4999999999999,"velocity":0.7480314960629921,"duration":0.3375000000000057},{"name":"D4","midi":62,"time":223.8749999999999,"velocity":0.7480314960629921,"duration":0.6750000000000114},{"name":"F#4","midi":66,"time":223.8749999999999,"velocity":0.7480314960629921,"duration":0.6750000000000114},{"name":"F#4","midi":66,"time":224.6249999999999,"velocity":0.7480314960629921,"duration":0.3375000000000057},{"name":"D4","midi":62,"time":224.6249999999999,"velocity":0.7480314960629921,"duration":0.3375000000000057},{"name":"A4","midi":69,"time":224.9999999999999,"velocity":0.7480314960629921,"duration":0.3375000000000057},{"name":"C#5","midi":73,"time":224.9999999999999,"velocity":0.7480314960629921,"duration":0.3375000000000057},{"name":"C#5","midi":73,"time":225.3749999999999,"velocity":0.7480314960629921,"duration":0.6750000000000114},{"name":"A4","midi":69,"time":225.3749999999999,"velocity":0.7480314960629921,"duration":0.6750000000000114},{"name":"A4","midi":69,"time":226.1249999999999,"velocity":0.7480314960629921,"duration":0.3375000000000057},{"name":"C#5","midi":73,"time":226.1249999999999,"velocity":0.7480314960629921,"duration":0.3375000000000057},{"name":"A4","midi":69,"time":226.4999999999999,"velocity":0.7480314960629921,"duration":0.3375000000000057},{"name":"C#5","midi":73,"time":226.4999999999999,"velocity":0.7480314960629921,"duration":0.3375000000000057},{"name":"A4","midi":69,"time":226.8749999999999,"velocity":0.7480314960629921,"duration":0.6750000000000114},{"name":"C#5","midi":73,"time":226.8749999999999,"velocity":0.7480314960629921,"duration":0.6750000000000114},{"name":"A4","midi":69,"time":227.6249999999999,"velocity":0.7480314960629921,"duration":0.3375000000000057},{"name":"C#5","midi":73,"time":227.6249999999999,"velocity":0.7480314960629921,"duration":0.3375000000000057},{"name":"C#5","midi":73,"time":227.9999999999999,"velocity":0.7480314960629921,"duration":0.3375000000000057},{"name":"A4","midi":69,"time":227.9999999999999,"velocity":0.7480314960629921,"duration":0.3375000000000057},{"name":"A4","midi":69,"time":228.3749999999999,"velocity":0.7480314960629921,"duration":0.6750000000000114},{"name":"C#5","midi":73,"time":228.3749999999999,"velocity":0.7480314960629921,"duration":0.6750000000000114},{"name":"C#5","midi":73,"time":229.1249999999999,"velocity":0.7480314960629921,"duration":0.3375000000000057},{"name":"A4","midi":69,"time":229.1249999999999,"velocity":0.7480314960629921,"duration":0.3375000000000057},{"name":"A4","midi":69,"time":229.4999999999999,"velocity":0.7480314960629921,"duration":0.3375000000000057},{"name":"C#5","midi":73,"time":229.4999999999999,"velocity":0.7480314960629921,"duration":0.3375000000000057},{"name":"A4","midi":69,"time":229.8749999999999,"velocity":0.7480314960629921,"duration":0.6750000000000114},{"name":"C#5","midi":73,"time":229.8749999999999,"velocity":0.7480314960629921,"duration":0.6750000000000114},{"name":"A4","midi":69,"time":230.6249999999999,"velocity":0.7480314960629921,"duration":0.3375000000000057},{"name":"C#5","midi":73,"time":230.6249999999999,"velocity":0.7480314960629921,"duration":0.3375000000000057},{"name":"G#4","midi":68,"time":230.9999999999999,"velocity":0.7480314960629921,"duration":0.3375000000000057},{"name":"E4","midi":64,"time":230.9999999999999,"velocity":0.7480314960629921,"duration":0.3375000000000057},{"name":"E4","midi":64,"time":231.3749999999999,"velocity":0.7480314960629921,"duration":0.6750000000000114},{"name":"G#4","midi":68,"time":231.3749999999999,"velocity":0.7480314960629921,"duration":0.6750000000000114},{"name":"G#4","midi":68,"time":232.1249999999999,"velocity":0.7480314960629921,"duration":0.3375000000000057},{"name":"E4","midi":64,"time":232.1249999999999,"velocity":0.7480314960629921,"duration":0.3375000000000057},{"name":"E4","midi":64,"time":232.4999999999999,"velocity":0.7480314960629921,"duration":0.3375000000000057},{"name":"G#4","midi":68,"time":232.4999999999999,"velocity":0.7480314960629921,"duration":0.3375000000000057},{"name":"G#4","midi":68,"time":232.8749999999999,"velocity":0.7480314960629921,"duration":0.6750000000000114},{"name":"E4","midi":64,"time":232.8749999999999,"velocity":0.7480314960629921,"duration":0.6750000000000114},{"name":"G#4","midi":68,"time":233.6249999999999,"velocity":0.7480314960629921,"duration":0.3375000000000057},{"name":"E4","midi":64,"time":233.6249999999999,"velocity":0.7480314960629921,"duration":0.3375000000000057},{"name":"G#4","midi":68,"time":233.9999999999999,"velocity":0.7480314960629921,"duration":0.3375000000000057},{"name":"E4","midi":64,"time":233.9999999999999,"velocity":0.7480314960629921,"duration":0.3375000000000057},{"name":"G#4","midi":68,"time":234.3749999999999,"velocity":0.7480314960629921,"duration":0.6750000000000114},{"name":"E4","midi":64,"time":234.3749999999999,"velocity":0.7480314960629921,"duration":0.6750000000000114},{"name":"G#4","midi":68,"time":235.1249999999999,"velocity":0.7480314960629921,"duration":0.3375000000000057},{"name":"E4","midi":64,"time":235.1249999999999,"velocity":0.7480314960629921,"duration":0.3375000000000057},{"name":"E4","midi":64,"time":235.4999999999999,"velocity":0.7480314960629921,"duration":0.3375000000000057},{"name":"G#4","midi":68,"time":235.4999999999999,"velocity":0.7480314960629921,"duration":0.3375000000000057},{"name":"G#4","midi":68,"time":235.8749999999999,"velocity":0.7480314960629921,"duration":0.6750000000000114},{"name":"E4","midi":64,"time":235.8749999999999,"velocity":0.7480314960629921,"duration":0.6750000000000114},{"name":"G#4","midi":68,"time":236.6249999999999,"velocity":0.7480314960629921,"duration":0.3375000000000057},{"name":"E4","midi":64,"time":236.6249999999999,"velocity":0.7480314960629921,"duration":0.3375000000000057},{"name":"D4","midi":62,"time":236.9999999999999,"velocity":0.7480314960629921,"duration":0.3375000000000057},{"name":"F#4","midi":66,"time":236.9999999999999,"velocity":0.7480314960629921,"duration":0.3375000000000057},{"name":"F#4","midi":66,"time":237.3749999999999,"velocity":0.7480314960629921,"duration":0.6750000000000114},{"name":"D4","midi":62,"time":237.3749999999999,"velocity":0.7480314960629921,"duration":0.6750000000000114},{"name":"F#4","midi":66,"time":238.1249999999999,"velocity":0.7480314960629921,"duration":0.3375000000000057},{"name":"D4","midi":62,"time":238.1249999999999,"velocity":0.7480314960629921,"duration":0.3375000000000057},{"name":"F#4","midi":66,"time":238.4999999999999,"velocity":0.7480314960629921,"duration":0.3375000000000057},{"name":"D4","midi":62,"time":238.4999999999999,"velocity":0.7480314960629921,"duration":0.3375000000000057},{"name":"F#4","midi":66,"time":238.8749999999999,"velocity":0.7480314960629921,"duration":0.6750000000000114},{"name":"D4","midi":62,"time":238.8749999999999,"velocity":0.7480314960629921,"duration":0.6750000000000114},{"name":"D4","midi":62,"time":239.6249999999999,"velocity":0.7480314960629921,"duration":0.3375000000000057},{"name":"F#4","midi":66,"time":239.6249999999999,"velocity":0.7480314960629921,"duration":0.3375000000000057},{"name":"D4","midi":62,"time":239.9999999999999,"velocity":0.7480314960629921,"duration":0.3375000000000057},{"name":"F#4","midi":66,"time":239.9999999999999,"velocity":0.7480314960629921,"duration":0.3375000000000057},{"name":"D4","midi":62,"time":240.3749999999999,"velocity":0.7480314960629921,"duration":0.6750000000000114},{"name":"F#4","midi":66,"time":240.3749999999999,"velocity":0.7480314960629921,"duration":0.6750000000000114},{"name":"D4","midi":62,"time":241.1249999999999,"velocity":0.7480314960629921,"duration":0.3375000000000057},{"name":"F#4","midi":66,"time":241.1249999999999,"velocity":0.7480314960629921,"duration":0.3375000000000057},{"name":"D4","midi":62,"time":241.4999999999999,"velocity":0.7480314960629921,"duration":0.3375000000000057},{"name":"F#4","midi":66,"time":241.4999999999999,"velocity":0.7480314960629921,"duration":0.3375000000000057},{"name":"F#4","midi":66,"time":241.8749999999999,"velocity":0.7480314960629921,"duration":0.6750000000000114},{"name":"D4","midi":62,"time":241.8749999999999,"velocity":0.7480314960629921,"duration":0.6750000000000114},{"name":"F#4","midi":66,"time":242.6249999999999,"velocity":0.7480314960629921,"duration":0.3375000000000057},{"name":"D4","midi":62,"time":242.6249999999999,"velocity":0.7480314960629921,"duration":0.3375000000000057},{"name":"C#5","midi":73,"time":242.9999999999999,"velocity":0.7480314960629921,"duration":0.3375000000000057},{"name":"A4","midi":69,"time":242.9999999999999,"velocity":0.7480314960629921,"duration":0.3375000000000057},{"name":"A4","midi":69,"time":243.3749999999999,"velocity":0.7480314960629921,"duration":0.3375000000000057},{"name":"C#5","midi":73,"time":243.3749999999999,"velocity":0.7480314960629921,"duration":0.3375000000000057},{"name":"C#5","midi":73,"time":243.7499999999999,"velocity":0.7480314960629921,"duration":0.3375000000000057},{"name":"A4","midi":69,"time":243.7499999999999,"velocity":0.7480314960629921,"duration":0.3375000000000057},{"name":"C#5","midi":73,"time":244.1249999999999,"velocity":0.7480314960629921,"duration":0.3375000000000057},{"name":"A4","midi":69,"time":244.1249999999999,"velocity":0.7480314960629921,"duration":0.3375000000000057},{"name":"A4","midi":69,"time":244.4999999999999,"velocity":0.7480314960629921,"duration":0.3375000000000057},{"name":"C#5","midi":73,"time":244.4999999999999,"velocity":0.7480314960629921,"duration":0.3375000000000057},{"name":"C#5","midi":73,"time":244.8749999999999,"velocity":0.7480314960629921,"duration":0.3375000000000057},{"name":"A4","midi":69,"time":244.8749999999999,"velocity":0.7480314960629921,"duration":0.3375000000000057},{"name":"A4","midi":69,"time":245.2499999999999,"velocity":0.7480314960629921,"duration":0.3375000000000057},{"name":"C#5","midi":73,"time":245.2499999999999,"velocity":0.7480314960629921,"duration":0.3375000000000057},{"name":"C#5","midi":73,"time":245.6249999999999,"velocity":0.7480314960629921,"duration":0.3375000000000057},{"name":"A4","midi":69,"time":245.6249999999999,"velocity":0.7480314960629921,"duration":0.3375000000000057},{"name":"A4","midi":69,"time":245.9999999999999,"velocity":0.7480314960629921,"duration":0.3375000000000057},{"name":"C#5","midi":73,"time":245.9999999999999,"velocity":0.7480314960629921,"duration":0.3375000000000057},{"name":"A4","midi":69,"time":246.3749999999999,"velocity":0.7480314960629921,"duration":0.3375000000000057},{"name":"C#5","midi":73,"time":246.3749999999999,"velocity":0.7480314960629921,"duration":0.3375000000000057},{"name":"C#5","midi":73,"time":246.7499999999999,"velocity":0.7480314960629921,"duration":0.3375000000000057},{"name":"A4","midi":69,"time":246.7499999999999,"velocity":0.7480314960629921,"duration":0.3375000000000057},{"name":"C#5","midi":73,"time":247.1249999999999,"velocity":0.7480314960629921,"duration":0.3375000000000057},{"name":"A4","midi":69,"time":247.1249999999999,"velocity":0.7480314960629921,"duration":0.3375000000000057},{"name":"A4","midi":69,"time":247.4999999999999,"velocity":0.7480314960629921,"duration":0.3375000000000057},{"name":"C#5","midi":73,"time":247.4999999999999,"velocity":0.7480314960629921,"duration":0.3375000000000057},{"name":"A4","midi":69,"time":247.8749999999999,"velocity":0.7480314960629921,"duration":0.3375000000000057},{"name":"C#5","midi":73,"time":247.8749999999999,"velocity":0.7480314960629921,"duration":0.3375000000000057},{"name":"C#5","midi":73,"time":248.2499999999999,"velocity":0.7480314960629921,"duration":0.3375000000000057},{"name":"A4","midi":69,"time":248.2499999999999,"velocity":0.7480314960629921,"duration":0.3375000000000057},{"name":"C#5","midi":73,"time":248.6249999999999,"velocity":0.7480314960629921,"duration":0.3375000000000057},{"name":"A4","midi":69,"time":248.6249999999999,"velocity":0.7480314960629921,"duration":0.3375000000000057},{"name":"G#4","midi":68,"time":248.9999999999999,"velocity":0.7480314960629921,"duration":0.3375000000000057},{"name":"E4","midi":64,"time":248.9999999999999,"velocity":0.7480314960629921,"duration":0.3375000000000057},{"name":"G#4","midi":68,"time":249.3749999999999,"velocity":0.7480314960629921,"duration":0.3375000000000057},{"name":"E4","midi":64,"time":249.3749999999999,"velocity":0.7480314960629921,"duration":0.3375000000000057},{"name":"G#4","midi":68,"time":249.7499999999999,"velocity":0.7480314960629921,"duration":0.3375000000000057},{"name":"E4","midi":64,"time":249.7499999999999,"velocity":0.7480314960629921,"duration":0.3375000000000057},{"name":"G#4","midi":68,"time":250.1249999999999,"velocity":0.7480314960629921,"duration":0.3375000000000057},{"name":"E4","midi":64,"time":250.1249999999999,"velocity":0.7480314960629921,"duration":0.3375000000000057},{"name":"E4","midi":64,"time":250.4999999999999,"velocity":0.7480314960629921,"duration":0.3375000000000057},{"name":"G#4","midi":68,"time":250.4999999999999,"velocity":0.7480314960629921,"duration":0.3375000000000057},{"name":"G#4","midi":68,"time":250.8749999999999,"velocity":0.7480314960629921,"duration":0.3375000000000057},{"name":"E4","midi":64,"time":250.8749999999999,"velocity":0.7480314960629921,"duration":0.3375000000000057},{"name":"E4","midi":64,"time":251.2499999999999,"velocity":0.7480314960629921,"duration":0.3375000000000057},{"name":"G#4","midi":68,"time":251.2499999999999,"velocity":0.7480314960629921,"duration":0.3375000000000057},{"name":"G#4","midi":68,"time":251.6249999999999,"velocity":0.7480314960629921,"duration":0.3375000000000057},{"name":"E4","midi":64,"time":251.6249999999999,"velocity":0.7480314960629921,"duration":0.3375000000000057},{"name":"E4","midi":64,"time":251.9999999999999,"velocity":0.7480314960629921,"duration":0.3375000000000057},{"name":"G#4","midi":68,"time":251.9999999999999,"velocity":0.7480314960629921,"duration":0.3375000000000057},{"name":"E4","midi":64,"time":252.3749999999999,"velocity":0.7480314960629921,"duration":0.3375000000000057},{"name":"G#4","midi":68,"time":252.3749999999999,"velocity":0.7480314960629921,"duration":0.3375000000000057},{"name":"E4","midi":64,"time":252.7499999999999,"velocity":0.7480314960629921,"duration":0.3375000000000057},{"name":"G#4","midi":68,"time":252.7499999999999,"velocity":0.7480314960629921,"duration":0.3375000000000057},{"name":"E4","midi":64,"time":253.1249999999999,"velocity":0.7480314960629921,"duration":0.3375000000000057},{"name":"G#4","midi":68,"time":253.1249999999999,"velocity":0.7480314960629921,"duration":0.3375000000000057},{"name":"G#4","midi":68,"time":253.4999999999999,"velocity":0.7480314960629921,"duration":0.3375000000000057},{"name":"E4","midi":64,"time":253.4999999999999,"velocity":0.7480314960629921,"duration":0.3375000000000057},{"name":"G#4","midi":68,"time":253.8749999999999,"velocity":0.7480314960629921,"duration":0.3375000000000057},{"name":"E4","midi":64,"time":253.8749999999999,"velocity":0.7480314960629921,"duration":0.3375000000000057},{"name":"G#4","midi":68,"time":254.2499999999999,"velocity":0.7480314960629921,"duration":0.3375000000000057},{"name":"E4","midi":64,"time":254.2499999999999,"velocity":0.7480314960629921,"duration":0.3375000000000057},{"name":"E4","midi":64,"time":254.6249999999999,"velocity":0.7480314960629921,"duration":0.3375000000000057},{"name":"G#4","midi":68,"time":254.6249999999999,"velocity":0.7480314960629921,"duration":0.3375000000000057},{"name":"D4","midi":62,"time":254.9999999999999,"velocity":0.7480314960629921,"duration":0.3375000000000057},{"name":"F#4","midi":66,"time":254.9999999999999,"velocity":0.7480314960629921,"duration":0.3375000000000057},{"name":"D4","midi":62,"time":255.3749999999999,"velocity":0.7480314960629921,"duration":0.3375000000000057},{"name":"F#4","midi":66,"time":255.3749999999999,"velocity":0.7480314960629921,"duration":0.3375000000000057},{"name":"D4","midi":62,"time":255.7499999999999,"velocity":0.7480314960629921,"duration":0.33749999999997726},{"name":"F#4","midi":66,"time":255.7499999999999,"velocity":0.7480314960629921,"duration":0.33749999999997726},{"name":"D4","midi":62,"time":256.1249999999999,"velocity":0.7480314960629921,"duration":0.33749999999997726},{"name":"F#4","midi":66,"time":256.1249999999999,"velocity":0.7480314960629921,"duration":0.33749999999997726},{"name":"F#4","midi":66,"time":256.4999999999999,"velocity":0.7480314960629921,"duration":0.33749999999997726},{"name":"D4","midi":62,"time":256.4999999999999,"velocity":0.7480314960629921,"duration":0.33749999999997726},{"name":"F#4","midi":66,"time":256.8749999999999,"velocity":0.7480314960629921,"duration":0.33749999999997726},{"name":"D4","midi":62,"time":256.8749999999999,"velocity":0.7480314960629921,"duration":0.33749999999997726},{"name":"F#4","midi":66,"time":257.2499999999999,"velocity":0.7480314960629921,"duration":0.33749999999997726},{"name":"D4","midi":62,"time":257.2499999999999,"velocity":0.7480314960629921,"duration":0.33749999999997726},{"name":"D4","midi":62,"time":257.6249999999999,"velocity":0.7480314960629921,"duration":0.33749999999997726},{"name":"F#4","midi":66,"time":257.6249999999999,"velocity":0.7480314960629921,"duration":0.33749999999997726},{"name":"G#4","midi":68,"time":257.9999999999999,"velocity":0.7480314960629921,"duration":0.33749999999997726},{"name":"E4","midi":64,"time":257.9999999999999,"velocity":0.7480314960629921,"duration":0.33749999999997726},{"name":"E4","midi":64,"time":258.3749999999999,"velocity":0.7480314960629921,"duration":0.33749999999997726},{"name":"G#4","midi":68,"time":258.3749999999999,"velocity":0.7480314960629921,"duration":0.33749999999997726},{"name":"E4","midi":64,"time":258.7499999999999,"velocity":0.7480314960629921,"duration":0.33749999999997726},{"name":"G#4","midi":68,"time":258.7499999999999,"velocity":0.7480314960629921,"duration":0.33749999999997726},{"name":"G#4","midi":68,"time":259.1249999999999,"velocity":0.7480314960629921,"duration":0.33749999999997726},{"name":"E4","midi":64,"time":259.1249999999999,"velocity":0.7480314960629921,"duration":0.33749999999997726},{"name":"G#4","midi":68,"time":259.4999999999999,"velocity":0.7480314960629921,"duration":0.33749999999997726},{"name":"E4","midi":64,"time":259.4999999999999,"velocity":0.7480314960629921,"duration":0.33749999999997726},{"name":"E4","midi":64,"time":259.8749999999999,"velocity":0.7480314960629921,"duration":0.33749999999997726},{"name":"G#4","midi":68,"time":259.8749999999999,"velocity":0.7480314960629921,"duration":0.33749999999997726},{"name":"G#4","midi":68,"time":260.2499999999999,"velocity":0.7480314960629921,"duration":0.33749999999997726},{"name":"E4","midi":64,"time":260.2499999999999,"velocity":0.7480314960629921,"duration":0.33749999999997726},{"name":"G#4","midi":68,"time":260.6249999999999,"velocity":0.7480314960629921,"duration":0.33749999999997726},{"name":"E4","midi":64,"time":260.6249999999999,"velocity":0.7480314960629921,"duration":0.33749999999997726},{"name":"D4","midi":62,"time":260.9999999999999,"velocity":0.7480314960629921,"duration":0.33749999999997726},{"name":"F#4","midi":66,"time":260.9999999999999,"velocity":0.7480314960629921,"duration":0.33749999999997726},{"name":"D4","midi":62,"time":261.3749999999999,"velocity":0.7480314960629921,"duration":0.33749999999997726},{"name":"F#4","midi":66,"time":261.3749999999999,"velocity":0.7480314960629921,"duration":0.33749999999997726},{"name":"D4","midi":62,"time":261.7499999999999,"velocity":0.7480314960629921,"duration":0.33749999999997726},{"name":"F#4","midi":66,"time":261.7499999999999,"velocity":0.7480314960629921,"duration":0.33749999999997726},{"name":"F#4","midi":66,"time":262.1249999999999,"velocity":0.7480314960629921,"duration":0.33749999999997726},{"name":"D4","midi":62,"time":262.1249999999999,"velocity":0.7480314960629921,"duration":0.33749999999997726},{"name":"F#4","midi":66,"time":262.4999999999999,"velocity":0.7480314960629921,"duration":0.33749999999997726},{"name":"D4","midi":62,"time":262.4999999999999,"velocity":0.7480314960629921,"duration":0.33749999999997726},{"name":"F#4","midi":66,"time":262.8749999999999,"velocity":0.7480314960629921,"duration":0.33749999999997726},{"name":"D4","midi":62,"time":262.8749999999999,"velocity":0.7480314960629921,"duration":0.33749999999997726},{"name":"D4","midi":62,"time":263.2499999999999,"velocity":0.7480314960629921,"duration":0.33749999999997726},{"name":"F#4","midi":66,"time":263.2499999999999,"velocity":0.7480314960629921,"duration":0.33749999999997726},{"name":"F#4","midi":66,"time":263.6249999999999,"velocity":0.7480314960629921,"duration":0.33749999999997726},{"name":"D4","midi":62,"time":263.6249999999999,"velocity":0.7480314960629921,"duration":0.33749999999997726},{"name":"F#4","midi":66,"time":263.9999999999999,"velocity":0.7480314960629921,"duration":0.33749999999997726},{"name":"D4","midi":62,"time":263.9999999999999,"velocity":0.7480314960629921,"duration":0.33749999999997726},{"name":"D4","midi":62,"time":264.3749999999999,"velocity":0.7480314960629921,"duration":0.33749999999997726},{"name":"F#4","midi":66,"time":264.3749999999999,"velocity":0.7480314960629921,"duration":0.33749999999997726},{"name":"D4","midi":62,"time":264.7499999999999,"velocity":0.7480314960629921,"duration":0.33749999999997726},{"name":"F#4","midi":66,"time":264.7499999999999,"velocity":0.7480314960629921,"duration":0.33749999999997726},{"name":"F#4","midi":66,"time":265.1249999999999,"velocity":0.7480314960629921,"duration":0.33749999999997726},{"name":"D4","midi":62,"time":265.1249999999999,"velocity":0.7480314960629921,"duration":0.33749999999997726},{"name":"D4","midi":62,"time":265.4999999999999,"velocity":0.7480314960629921,"duration":0.33749999999997726},{"name":"F#4","midi":66,"time":265.4999999999999,"velocity":0.7480314960629921,"duration":0.33749999999997726},{"name":"D4","midi":62,"time":265.8749999999999,"velocity":0.7480314960629921,"duration":0.33749999999997726},{"name":"F#4","midi":66,"time":265.8749999999999,"velocity":0.7480314960629921,"duration":0.33749999999997726},{"name":"D4","midi":62,"time":266.2499999999999,"velocity":0.7480314960629921,"duration":0.33749999999997726},{"name":"F#4","midi":66,"time":266.2499999999999,"velocity":0.7480314960629921,"duration":0.33749999999997726},{"name":"F#4","midi":66,"time":266.6249999999999,"velocity":0.7480314960629921,"duration":0.33749999999997726},{"name":"D4","midi":62,"time":266.6249999999999,"velocity":0.7480314960629921,"duration":0.33749999999997726},{"name":"C#5","midi":73,"time":266.9999999999999,"velocity":0.7480314960629921,"duration":0.33749999999997726},{"name":"A4","midi":69,"time":266.9999999999999,"velocity":0.7480314960629921,"duration":0.33749999999997726},{"name":"A4","midi":69,"time":267.3749999999999,"velocity":0.7480314960629921,"duration":0.33749999999997726},{"name":"C#5","midi":73,"time":267.3749999999999,"velocity":0.7480314960629921,"duration":0.33749999999997726},{"name":"A4","midi":69,"time":267.7499999999999,"velocity":0.7480314960629921,"duration":0.33749999999997726},{"name":"C#5","midi":73,"time":267.7499999999999,"velocity":0.7480314960629921,"duration":0.33749999999997726},{"name":"A4","midi":69,"time":268.1249999999999,"velocity":0.7480314960629921,"duration":0.33749999999997726},{"name":"C#5","midi":73,"time":268.1249999999999,"velocity":0.7480314960629921,"duration":0.33749999999997726},{"name":"A4","midi":69,"time":268.4999999999999,"velocity":0.7480314960629921,"duration":0.33749999999997726},{"name":"C#5","midi":73,"time":268.4999999999999,"velocity":0.7480314960629921,"duration":0.33749999999997726},{"name":"A4","midi":69,"time":268.8749999999999,"velocity":0.7480314960629921,"duration":0.33749999999997726},{"name":"C#5","midi":73,"time":268.8749999999999,"velocity":0.7480314960629921,"duration":0.33749999999997726},{"name":"C#5","midi":73,"time":269.2499999999999,"velocity":0.7480314960629921,"duration":0.33749999999997726},{"name":"A4","midi":69,"time":269.2499999999999,"velocity":0.7480314960629921,"duration":0.33749999999997726},{"name":"A4","midi":69,"time":269.6249999999999,"velocity":0.7480314960629921,"duration":0.33749999999997726},{"name":"C#5","midi":73,"time":269.6249999999999,"velocity":0.7480314960629921,"duration":0.33749999999997726},{"name":"A4","midi":69,"time":269.9999999999999,"velocity":0.7480314960629921,"duration":0.33749999999997726},{"name":"C#5","midi":73,"time":269.9999999999999,"velocity":0.7480314960629921,"duration":0.33749999999997726},{"name":"A4","midi":69,"time":270.3749999999999,"velocity":0.7480314960629921,"duration":0.33749999999997726},{"name":"C#5","midi":73,"time":270.3749999999999,"velocity":0.7480314960629921,"duration":0.33749999999997726},{"name":"C#5","midi":73,"time":270.7499999999999,"velocity":0.7480314960629921,"duration":0.33749999999997726},{"name":"A4","midi":69,"time":270.7499999999999,"velocity":0.7480314960629921,"duration":0.33749999999997726},{"name":"C#5","midi":73,"time":271.1249999999999,"velocity":0.7480314960629921,"duration":0.33749999999997726},{"name":"A4","midi":69,"time":271.1249999999999,"velocity":0.7480314960629921,"duration":0.33749999999997726},{"name":"C#5","midi":73,"time":271.4999999999999,"velocity":0.7480314960629921,"duration":0.33749999999997726},{"name":"A4","midi":69,"time":271.4999999999999,"velocity":0.7480314960629921,"duration":0.33749999999997726},{"name":"C#5","midi":73,"time":271.8749999999999,"velocity":0.7480314960629921,"duration":0.33749999999997726},{"name":"A4","midi":69,"time":271.8749999999999,"velocity":0.7480314960629921,"duration":0.33749999999997726},{"name":"A4","midi":69,"time":272.2499999999999,"velocity":0.7480314960629921,"duration":0.33749999999997726},{"name":"C#5","midi":73,"time":272.2499999999999,"velocity":0.7480314960629921,"duration":0.33749999999997726},{"name":"C#5","midi":73,"time":272.6249999999999,"velocity":0.7480314960629921,"duration":0.33749999999997726},{"name":"A4","midi":69,"time":272.6249999999999,"velocity":0.7480314960629921,"duration":0.33749999999997726},{"name":"G#4","midi":68,"time":272.9999999999999,"velocity":0.7480314960629921,"duration":0.33749999999997726},{"name":"E4","midi":64,"time":272.9999999999999,"velocity":0.7480314960629921,"duration":0.33749999999997726},{"name":"E4","midi":64,"time":273.3749999999999,"velocity":0.7480314960629921,"duration":0.33749999999997726},{"name":"G#4","midi":68,"time":273.3749999999999,"velocity":0.7480314960629921,"duration":0.33749999999997726},{"name":"E4","midi":64,"time":273.7499999999999,"velocity":0.7480314960629921,"duration":0.33749999999997726},{"name":"G#4","midi":68,"time":273.7499999999999,"velocity":0.7480314960629921,"duration":0.33749999999997726},{"name":"E4","midi":64,"time":274.1249999999999,"velocity":0.7480314960629921,"duration":0.33749999999997726},{"name":"G#4","midi":68,"time":274.1249999999999,"velocity":0.7480314960629921,"duration":0.33749999999997726},{"name":"G#4","midi":68,"time":274.4999999999999,"velocity":0.7480314960629921,"duration":0.33749999999997726},{"name":"E4","midi":64,"time":274.4999999999999,"velocity":0.7480314960629921,"duration":0.33749999999997726},{"name":"E4","midi":64,"time":274.8749999999999,"velocity":0.7480314960629921,"duration":0.33749999999997726},{"name":"G#4","midi":68,"time":274.8749999999999,"velocity":0.7480314960629921,"duration":0.33749999999997726},{"name":"G#4","midi":68,"time":275.2499999999999,"velocity":0.7480314960629921,"duration":0.33749999999997726},{"name":"E4","midi":64,"time":275.2499999999999,"velocity":0.7480314960629921,"duration":0.33749999999997726},{"name":"E4","midi":64,"time":275.6249999999999,"velocity":0.7480314960629921,"duration":0.33749999999997726},{"name":"G#4","midi":68,"time":275.6249999999999,"velocity":0.7480314960629921,"duration":0.33749999999997726},{"name":"G#4","midi":68,"time":275.9999999999999,"velocity":0.7480314960629921,"duration":0.33749999999997726},{"name":"E4","midi":64,"time":275.9999999999999,"velocity":0.7480314960629921,"duration":0.33749999999997726},{"name":"E4","midi":64,"time":276.3749999999999,"velocity":0.7480314960629921,"duration":0.33749999999997726},{"name":"G#4","midi":68,"time":276.3749999999999,"velocity":0.7480314960629921,"duration":0.33749999999997726},{"name":"E4","midi":64,"time":276.7499999999999,"velocity":0.7480314960629921,"duration":0.33749999999997726},{"name":"G#4","midi":68,"time":276.7499999999999,"velocity":0.7480314960629921,"duration":0.33749999999997726},{"name":"E4","midi":64,"time":277.1249999999999,"velocity":0.7480314960629921,"duration":0.33749999999997726},{"name":"G#4","midi":68,"time":277.1249999999999,"velocity":0.7480314960629921,"duration":0.33749999999997726},{"name":"G#4","midi":68,"time":277.4999999999999,"velocity":0.7480314960629921,"duration":0.33749999999997726},{"name":"E4","midi":64,"time":277.4999999999999,"velocity":0.7480314960629921,"duration":0.33749999999997726},{"name":"G#4","midi":68,"time":277.8749999999999,"velocity":0.7480314960629921,"duration":0.33749999999997726},{"name":"E4","midi":64,"time":277.8749999999999,"velocity":0.7480314960629921,"duration":0.33749999999997726},{"name":"E4","midi":64,"time":278.2499999999999,"velocity":0.7480314960629921,"duration":0.33749999999997726},{"name":"G#4","midi":68,"time":278.2499999999999,"velocity":0.7480314960629921,"duration":0.33749999999997726},{"name":"G#4","midi":68,"time":278.6249999999999,"velocity":0.7480314960629921,"duration":0.33749999999997726},{"name":"E4","midi":64,"time":278.6249999999999,"velocity":0.7480314960629921,"duration":0.33749999999997726},{"name":"F#4","midi":66,"time":278.9999999999999,"velocity":0.7480314960629921,"duration":0.33749999999997726},{"name":"D4","midi":62,"time":278.9999999999999,"velocity":0.7480314960629921,"duration":0.33749999999997726},{"name":"F#4","midi":66,"time":279.3749999999999,"velocity":0.7480314960629921,"duration":0.33749999999997726},{"name":"D4","midi":62,"time":279.3749999999999,"velocity":0.7480314960629921,"duration":0.33749999999997726},{"name":"D4","midi":62,"time":279.7499999999999,"velocity":0.7480314960629921,"duration":0.33749999999997726},{"name":"F#4","midi":66,"time":279.7499999999999,"velocity":0.7480314960629921,"duration":0.33749999999997726},{"name":"F#4","midi":66,"time":280.1249999999999,"velocity":0.7480314960629921,"duration":0.33749999999997726},{"name":"D4","midi":62,"time":280.1249999999999,"velocity":0.7480314960629921,"duration":0.33749999999997726},{"name":"F#4","midi":66,"time":280.4999999999999,"velocity":0.7480314960629921,"duration":0.33749999999997726},{"name":"D4","midi":62,"time":280.4999999999999,"velocity":0.7480314960629921,"duration":0.33749999999997726},{"name":"D4","midi":62,"time":280.8749999999999,"velocity":0.7480314960629921,"duration":0.33749999999997726},{"name":"F#4","midi":66,"time":280.8749999999999,"velocity":0.7480314960629921,"duration":0.33749999999997726},{"name":"D4","midi":62,"time":281.2499999999999,"velocity":0.7480314960629921,"duration":0.33749999999997726},{"name":"F#4","midi":66,"time":281.2499999999999,"velocity":0.7480314960629921,"duration":0.33749999999997726},{"name":"D4","midi":62,"time":281.6249999999999,"velocity":0.7480314960629921,"duration":0.33749999999997726},{"name":"F#4","midi":66,"time":281.6249999999999,"velocity":0.7480314960629921,"duration":0.33749999999997726},{"name":"E4","midi":64,"time":281.9999999999999,"velocity":0.7480314960629921,"duration":0.33749999999997726},{"name":"G#4","midi":68,"time":281.9999999999999,"velocity":0.7480314960629921,"duration":0.33749999999997726},{"name":"E4","midi":64,"time":282.3749999999999,"velocity":0.7480314960629921,"duration":0.33749999999997726},{"name":"G#4","midi":68,"time":282.3749999999999,"velocity":0.7480314960629921,"duration":0.33749999999997726},{"name":"E4","midi":64,"time":282.7499999999999,"velocity":0.7480314960629921,"duration":0.33749999999997726},{"name":"G#4","midi":68,"time":282.7499999999999,"velocity":0.7480314960629921,"duration":0.33749999999997726},{"name":"E4","midi":64,"time":283.1249999999999,"velocity":0.7480314960629921,"duration":0.33749999999997726},{"name":"G#4","midi":68,"time":283.1249999999999,"velocity":0.7480314960629921,"duration":0.33749999999997726},{"name":"G#4","midi":68,"time":283.4999999999999,"velocity":0.7480314960629921,"duration":0.33749999999997726},{"name":"E4","midi":64,"time":283.4999999999999,"velocity":0.7480314960629921,"duration":0.33749999999997726},{"name":"E4","midi":64,"time":283.8749999999999,"velocity":0.7480314960629921,"duration":0.33749999999997726},{"name":"G#4","midi":68,"time":283.8749999999999,"velocity":0.7480314960629921,"duration":0.33749999999997726},{"name":"E4","midi":64,"time":284.2499999999999,"velocity":0.7480314960629921,"duration":0.33749999999997726},{"name":"G#4","midi":68,"time":284.2499999999999,"velocity":0.7480314960629921,"duration":0.33749999999997726},{"name":"E4","midi":64,"time":284.6249999999999,"velocity":0.7480314960629921,"duration":0.33749999999997726},{"name":"G#4","midi":68,"time":284.6249999999999,"velocity":0.7480314960629921,"duration":0.33749999999997726},{"name":"D4","midi":62,"time":284.9999999999999,"velocity":0.7480314960629921,"duration":0.33749999999997726},{"name":"F#4","midi":66,"time":284.9999999999999,"velocity":0.7480314960629921,"duration":0.33749999999997726},{"name":"D4","midi":62,"time":285.3749999999999,"velocity":0.7480314960629921,"duration":0.33749999999997726},{"name":"F#4","midi":66,"time":285.3749999999999,"velocity":0.7480314960629921,"duration":0.33749999999997726},{"name":"D4","midi":62,"time":285.7499999999999,"velocity":0.7480314960629921,"duration":0.33749999999997726},{"name":"F#4","midi":66,"time":285.7499999999999,"velocity":0.7480314960629921,"duration":0.33749999999997726},{"name":"D4","midi":62,"time":286.1249999999999,"velocity":0.7480314960629921,"duration":0.33749999999997726},{"name":"F#4","midi":66,"time":286.1249999999999,"velocity":0.7480314960629921,"duration":0.33749999999997726},{"name":"F#4","midi":66,"time":286.4999999999999,"velocity":0.7480314960629921,"duration":0.33749999999997726},{"name":"D4","midi":62,"time":286.4999999999999,"velocity":0.7480314960629921,"duration":0.33749999999997726},{"name":"F#4","midi":66,"time":286.8749999999999,"velocity":0.7480314960629921,"duration":0.33749999999997726},{"name":"D4","midi":62,"time":286.8749999999999,"velocity":0.7480314960629921,"duration":0.33749999999997726},{"name":"D4","midi":62,"time":287.2499999999999,"velocity":0.7480314960629921,"duration":0.33749999999997726},{"name":"F#4","midi":66,"time":287.2499999999999,"velocity":0.7480314960629921,"duration":0.33749999999997726},{"name":"D4","midi":62,"time":287.6249999999999,"velocity":0.7480314960629921,"duration":0.33749999999997726},{"name":"F#4","midi":66,"time":287.6249999999999,"velocity":0.7480314960629921,"duration":0.33749999999997726},{"name":"D4","midi":62,"time":287.9999999999999,"velocity":0.7480314960629921,"duration":0.33749999999997726},{"name":"F#4","midi":66,"time":287.9999999999999,"velocity":0.7480314960629921,"duration":0.33749999999997726},{"name":"F#4","midi":66,"time":288.3749999999999,"velocity":0.7480314960629921,"duration":0.33749999999997726},{"name":"D4","midi":62,"time":288.3749999999999,"velocity":0.7480314960629921,"duration":0.33749999999997726},{"name":"F#4","midi":66,"time":288.7499999999999,"velocity":0.7480314960629921,"duration":0.33749999999997726},{"name":"D4","midi":62,"time":288.7499999999999,"velocity":0.7480314960629921,"duration":0.33749999999997726},{"name":"F#4","midi":66,"time":289.1249999999999,"velocity":0.7480314960629921,"duration":0.33749999999997726},{"name":"D4","midi":62,"time":289.1249999999999,"velocity":0.7480314960629921,"duration":0.33749999999997726},{"name":"D4","midi":62,"time":289.4999999999999,"velocity":0.7480314960629921,"duration":0.33749999999997726},{"name":"F#4","midi":66,"time":289.4999999999999,"velocity":0.7480314960629921,"duration":0.33749999999997726},{"name":"F#4","midi":66,"time":289.8749999999999,"velocity":0.7480314960629921,"duration":0.33749999999997726},{"name":"D4","midi":62,"time":289.8749999999999,"velocity":0.7480314960629921,"duration":0.33749999999997726},{"name":"D4","midi":62,"time":290.2499999999999,"velocity":0.7480314960629921,"duration":0.33749999999997726},{"name":"F#4","midi":66,"time":290.2499999999999,"velocity":0.7480314960629921,"duration":0.33749999999997726},{"name":"D4","midi":62,"time":290.6249999999999,"velocity":0.7480314960629921,"duration":0.33749999999997726},{"name":"F#4","midi":66,"time":290.6249999999999,"velocity":0.7480314960629921,"duration":0.33749999999997726},{"name":"A4","midi":69,"time":290.9999999999999,"velocity":0.7480314960629921,"duration":0.33749999999997726},{"name":"C#5","midi":73,"time":290.9999999999999,"velocity":0.7480314960629921,"duration":0.33749999999997726},{"name":"E5","midi":76,"time":290.9999999999999,"velocity":0.7480314960629921,"duration":0.33749999999997726},{"name":"A5","midi":81,"time":290.9999999999999,"velocity":0.7480314960629921,"duration":0.33749999999997726},{"name":"E5","midi":76,"time":291.3749999999999,"velocity":0.7480314960629921,"duration":0.33749999999997726},{"name":"A4","midi":69,"time":291.3749999999999,"velocity":0.7480314960629921,"duration":0.33749999999997726},{"name":"C#5","midi":73,"time":291.3749999999999,"velocity":0.7480314960629921,"duration":0.33749999999997726},{"name":"A5","midi":81,"time":291.3749999999999,"velocity":0.7480314960629921,"duration":0.33749999999997726},{"name":"C#5","midi":73,"time":291.7499999999999,"velocity":0.7480314960629921,"duration":0.33749999999997726},{"name":"E5","midi":76,"time":291.7499999999999,"velocity":0.7480314960629921,"duration":0.33749999999997726},{"name":"A5","midi":81,"time":291.7499999999999,"velocity":0.7480314960629921,"duration":0.33749999999997726},{"name":"A4","midi":69,"time":291.7499999999999,"velocity":0.7480314960629921,"duration":0.33749999999997726},{"name":"C#5","midi":73,"time":292.1249999999999,"velocity":0.7480314960629921,"duration":0.33749999999997726},{"name":"E5","midi":76,"time":292.1249999999999,"velocity":0.7480314960629921,"duration":0.33749999999997726},{"name":"A5","midi":81,"time":292.1249999999999,"velocity":0.7480314960629921,"duration":0.33749999999997726},{"name":"A4","midi":69,"time":292.1249999999999,"velocity":0.7480314960629921,"duration":0.33749999999997726},{"name":"C#5","midi":73,"time":292.4999999999999,"velocity":0.7480314960629921,"duration":0.33749999999997726},{"name":"E5","midi":76,"time":292.4999999999999,"velocity":0.7480314960629921,"duration":0.33749999999997726},{"name":"A5","midi":81,"time":292.4999999999999,"velocity":0.7480314960629921,"duration":0.33749999999997726},{"name":"A4","midi":69,"time":292.4999999999999,"velocity":0.7480314960629921,"duration":0.33749999999997726},{"name":"A4","midi":69,"time":292.8749999999999,"velocity":0.7480314960629921,"duration":0.33749999999997726},{"name":"C#5","midi":73,"time":292.8749999999999,"velocity":0.7480314960629921,"duration":0.33749999999997726},{"name":"E5","midi":76,"time":292.8749999999999,"velocity":0.7480314960629921,"duration":0.33749999999997726},{"name":"A5","midi":81,"time":292.8749999999999,"velocity":0.7480314960629921,"duration":0.33749999999997726},{"name":"A4","midi":69,"time":293.2499999999999,"velocity":0.7480314960629921,"duration":0.33749999999997726},{"name":"C#5","midi":73,"time":293.2499999999999,"velocity":0.7480314960629921,"duration":0.33749999999997726},{"name":"E5","midi":76,"time":293.2499999999999,"velocity":0.7480314960629921,"duration":0.33749999999997726},{"name":"A5","midi":81,"time":293.2499999999999,"velocity":0.7480314960629921,"duration":0.33749999999997726},{"name":"A5","midi":81,"time":293.6249999999999,"velocity":0.7480314960629921,"duration":0.33749999999997726},{"name":"A4","midi":69,"time":293.6249999999999,"velocity":0.7480314960629921,"duration":0.33749999999997726},{"name":"C#5","midi":73,"time":293.6249999999999,"velocity":0.7480314960629921,"duration":0.33749999999997726},{"name":"E5","midi":76,"time":293.6249999999999,"velocity":0.7480314960629921,"duration":0.33749999999997726},{"name":"A4","midi":69,"time":293.9999999999999,"velocity":0.7480314960629921,"duration":0.33749999999997726},{"name":"A5","midi":81,"time":293.9999999999999,"velocity":0.7480314960629921,"duration":0.33749999999997726},{"name":"C#5","midi":73,"time":293.9999999999999,"velocity":0.7480314960629921,"duration":0.33749999999997726},{"name":"E5","midi":76,"time":293.9999999999999,"velocity":0.7480314960629921,"duration":0.33749999999997726},{"name":"A4","midi":69,"time":294.3749999999999,"velocity":0.7480314960629921,"duration":0.33749999999997726},{"name":"C#5","midi":73,"time":294.3749999999999,"velocity":0.7480314960629921,"duration":0.33749999999997726},{"name":"A5","midi":81,"time":294.3749999999999,"velocity":0.7480314960629921,"duration":0.33749999999997726},{"name":"E5","midi":76,"time":294.3749999999999,"velocity":0.7480314960629921,"duration":0.33749999999997726},{"name":"C#5","midi":73,"time":294.7499999999999,"velocity":0.7480314960629921,"duration":0.33749999999997726},{"name":"A4","midi":69,"time":294.7499999999999,"velocity":0.7480314960629921,"duration":0.33749999999997726},{"name":"A5","midi":81,"time":294.7499999999999,"velocity":0.7480314960629921,"duration":0.33749999999997726},{"name":"E5","midi":76,"time":294.7499999999999,"velocity":0.7480314960629921,"duration":0.33749999999997726},{"name":"C#5","midi":73,"time":295.1249999999999,"velocity":0.7480314960629921,"duration":0.33749999999997726},{"name":"A5","midi":81,"time":295.1249999999999,"velocity":0.7480314960629921,"duration":0.33749999999997726},{"name":"A4","midi":69,"time":295.1249999999999,"velocity":0.7480314960629921,"duration":0.33749999999997726},{"name":"E5","midi":76,"time":295.1249999999999,"velocity":0.7480314960629921,"duration":0.33749999999997726},{"name":"A5","midi":81,"time":295.4999999999999,"velocity":0.7480314960629921,"duration":0.33749999999997726},{"name":"E5","midi":76,"time":295.4999999999999,"velocity":0.7480314960629921,"duration":0.33749999999997726},{"name":"C#5","midi":73,"time":295.4999999999999,"velocity":0.7480314960629921,"duration":0.33749999999997726},{"name":"A4","midi":69,"time":295.4999999999999,"velocity":0.7480314960629921,"duration":0.33749999999997726},{"name":"A4","midi":69,"time":295.8749999999999,"velocity":0.7480314960629921,"duration":0.33749999999997726},{"name":"E5","midi":76,"time":295.8749999999999,"velocity":0.7480314960629921,"duration":0.33749999999997726},{"name":"A5","midi":81,"time":295.8749999999999,"velocity":0.7480314960629921,"duration":0.33749999999997726},{"name":"C#5","midi":73,"time":295.8749999999999,"velocity":0.7480314960629921,"duration":0.33749999999997726},{"name":"A4","midi":69,"time":296.2499999999999,"velocity":0.7480314960629921,"duration":0.33749999999997726},{"name":"C#5","midi":73,"time":296.2499999999999,"velocity":0.7480314960629921,"duration":0.33749999999997726},{"name":"A5","midi":81,"time":296.2499999999999,"velocity":0.7480314960629921,"duration":0.33749999999997726},{"name":"E5","midi":76,"time":296.2499999999999,"velocity":0.7480314960629921,"duration":0.33749999999997726},{"name":"A5","midi":81,"time":296.6249999999999,"velocity":0.7480314960629921,"duration":0.33749999999997726},{"name":"E5","midi":76,"time":296.6249999999999,"velocity":0.7480314960629921,"duration":0.6750000000000114},{"name":"A4","midi":69,"time":296.6249999999999,"velocity":0.7480314960629921,"duration":0.33749999999997726},{"name":"C#5","midi":73,"time":296.6249999999999,"velocity":0.7480314960629921,"duration":0.33749999999997726},{"name":"E4","midi":64,"time":296.9999999999999,"velocity":0.7480314960629921,"duration":0.3375000000000341},{"name":"B4","midi":71,"time":296.9999999999999,"velocity":0.7480314960629921,"duration":0.3375000000000341},{"name":"E5","midi":76,"time":297.37499999999994,"velocity":0.7480314960629921,"duration":0.33749999999997726},{"name":"E5","midi":76,"time":297.37499999999994,"velocity":0.7480314960629921,"duration":0.33749999999997726},{"name":"A5","midi":81,"time":297.37499999999994,"velocity":0.7480314960629921,"duration":0.33749999999997726},{"name":"B4","midi":71,"time":297.37499999999994,"velocity":0.7480314960629921,"duration":0.33749999999997726},{"name":"E4","midi":64,"time":297.37499999999994,"velocity":0.7480314960629921,"duration":0.33749999999997726},{"name":"G#5","midi":80,"time":297.74999999999994,"velocity":0.7480314960629921,"duration":0.33749999999997726},{"name":"E5","midi":76,"time":297.74999999999994,"velocity":0.7480314960629921,"duration":0.33749999999997726},{"name":"B4","midi":71,"time":297.74999999999994,"velocity":0.7480314960629921,"duration":0.33749999999997726},{"name":"E4","midi":64,"time":297.74999999999994,"velocity":0.7480314960629921,"duration":0.33749999999997726},{"name":"E4","midi":64,"time":298.12499999999994,"velocity":0.7480314960629921,"duration":0.33749999999997726},{"name":"B4","midi":71,"time":298.12499999999994,"velocity":0.7480314960629921,"duration":0.33749999999997726},{"name":"E5","midi":76,"time":298.12499999999994,"velocity":0.7480314960629921,"duration":0.33749999999997726},{"name":"E4","midi":64,"time":298.49999999999994,"velocity":0.7480314960629921,"duration":0.33749999999997726},{"name":"B4","midi":71,"time":298.49999999999994,"velocity":0.7480314960629921,"duration":0.33749999999997726},{"name":"E5","midi":76,"time":298.49999999999994,"velocity":0.7480314960629921,"duration":0.33749999999997726},{"name":"E4","midi":64,"time":298.87499999999994,"velocity":0.7480314960629921,"duration":0.33749999999997726},{"name":"B4","midi":71,"time":298.87499999999994,"velocity":0.7480314960629921,"duration":0.33749999999997726},{"name":"E5","midi":76,"time":298.87499999999994,"velocity":0.7480314960629921,"duration":0.33749999999997726},{"name":"G#5","midi":80,"time":298.87499999999994,"velocity":0.7480314960629921,"duration":0.33749999999997726},{"name":"E5","midi":76,"time":299.24999999999994,"velocity":0.7480314960629921,"duration":0.33749999999997726},{"name":"E4","midi":64,"time":299.24999999999994,"velocity":0.7480314960629921,"duration":0.33749999999997726},{"name":"B4","midi":71,"time":299.24999999999994,"velocity":0.7480314960629921,"duration":0.33749999999997726},{"name":"G#5","midi":80,"time":299.24999999999994,"velocity":0.7480314960629921,"duration":0.33749999999997726},{"name":"E5","midi":76,"time":299.62499999999994,"velocity":0.7480314960629921,"duration":0.33749999999997726},{"name":"B4","midi":71,"time":299.62499999999994,"velocity":0.7480314960629921,"duration":0.33749999999997726},{"name":"E4","midi":64,"time":299.62499999999994,"velocity":0.7480314960629921,"duration":0.33749999999997726},{"name":"B4","midi":71,"time":299.99999999999994,"velocity":0.7480314960629921,"duration":0.33749999999997726},{"name":"E5","midi":76,"time":299.99999999999994,"velocity":0.7480314960629921,"duration":0.33749999999997726},{"name":"E4","midi":64,"time":299.99999999999994,"velocity":0.7480314960629921,"duration":0.33749999999997726},{"name":"G#5","midi":80,"time":300.37499999999994,"velocity":0.7480314960629921,"duration":0.33749999999997726},{"name":"E4","midi":64,"time":300.37499999999994,"velocity":0.7480314960629921,"duration":0.33749999999997726},{"name":"B4","midi":71,"time":300.37499999999994,"velocity":0.7480314960629921,"duration":0.33749999999997726},{"name":"E5","midi":76,"time":300.37499999999994,"velocity":0.7480314960629921,"duration":0.33749999999997726},{"name":"G#5","midi":80,"time":300.74999999999994,"velocity":0.7480314960629921,"duration":0.33749999999997726},{"name":"E4","midi":64,"time":300.74999999999994,"velocity":0.7480314960629921,"duration":0.33749999999997726},{"name":"B4","midi":71,"time":300.74999999999994,"velocity":0.7480314960629921,"duration":0.33749999999997726},{"name":"E5","midi":76,"time":300.74999999999994,"velocity":0.7480314960629921,"duration":0.33749999999997726},{"name":"E4","midi":64,"time":301.12499999999994,"velocity":0.7480314960629921,"duration":0.33749999999997726},{"name":"E5","midi":76,"time":301.12499999999994,"velocity":0.7480314960629921,"duration":0.33749999999997726},{"name":"B4","midi":71,"time":301.12499999999994,"velocity":0.7480314960629921,"duration":0.33749999999997726},{"name":"E4","midi":64,"time":301.49999999999994,"velocity":0.7480314960629921,"duration":0.33749999999997726},{"name":"E5","midi":76,"time":301.49999999999994,"velocity":0.7480314960629921,"duration":0.33749999999997726},{"name":"B4","midi":71,"time":301.49999999999994,"velocity":0.7480314960629921,"duration":0.33749999999997726},{"name":"E4","midi":64,"time":301.87499999999994,"velocity":0.7480314960629921,"duration":0.33749999999997726},{"name":"G#5","midi":80,"time":301.87499999999994,"velocity":0.7480314960629921,"duration":0.33749999999997726},{"name":"E5","midi":76,"time":301.87499999999994,"velocity":0.7480314960629921,"duration":0.33749999999997726},{"name":"B4","midi":71,"time":301.87499999999994,"velocity":0.7480314960629921,"duration":0.33749999999997726},{"name":"G#5","midi":80,"time":302.24999999999994,"velocity":0.7480314960629921,"duration":0.33749999999997726},{"name":"E5","midi":76,"time":302.24999999999994,"velocity":0.7480314960629921,"duration":0.33749999999997726},{"name":"B4","midi":71,"time":302.24999999999994,"velocity":0.7480314960629921,"duration":0.33749999999997726},{"name":"E4","midi":64,"time":302.24999999999994,"velocity":0.7480314960629921,"duration":0.33749999999997726},{"name":"B4","midi":71,"time":302.62499999999994,"velocity":0.7480314960629921,"duration":0.33749999999997726},{"name":"E5","midi":76,"time":302.62499999999994,"velocity":0.7480314960629921,"duration":0.33749999999997726},{"name":"E4","midi":64,"time":302.62499999999994,"velocity":0.7480314960629921,"duration":0.33749999999997726},{"name":"D5","midi":74,"time":302.99999999999994,"velocity":0.7480314960629921,"duration":0.33749999999997726},{"name":"A4","midi":69,"time":302.99999999999994,"velocity":0.7480314960629921,"duration":0.33749999999997726},{"name":"F#4","midi":66,"time":302.99999999999994,"velocity":0.7480314960629921,"duration":0.33749999999997726},{"name":"B3","midi":59,"time":302.99999999999994,"velocity":0.7480314960629921,"duration":0.33749999999997726},{"name":"B3","midi":59,"time":303.37499999999994,"velocity":0.7480314960629921,"duration":0.33749999999997726},{"name":"F#4","midi":66,"time":303.37499999999994,"velocity":0.7480314960629921,"duration":0.33749999999997726},{"name":"D5","midi":74,"time":303.37499999999994,"velocity":0.7480314960629921,"duration":0.33749999999997726},{"name":"A4","midi":69,"time":303.37499999999994,"velocity":0.7480314960629921,"duration":0.33749999999997726},{"name":"B3","midi":59,"time":303.74999999999994,"velocity":0.7480314960629921,"duration":0.33749999999997726},{"name":"F#5","midi":78,"time":303.74999999999994,"velocity":0.7480314960629921,"duration":0.33749999999997726},{"name":"D5","midi":74,"time":303.74999999999994,"velocity":0.7480314960629921,"duration":0.33749999999997726},{"name":"A4","midi":69,"time":303.74999999999994,"velocity":0.7480314960629921,"duration":0.33749999999997726},{"name":"F#4","midi":66,"time":303.74999999999994,"velocity":0.7480314960629921,"duration":0.33749999999997726},{"name":"D5","midi":74,"time":304.12499999999994,"velocity":0.7480314960629921,"duration":0.33749999999997726},{"name":"B3","midi":59,"time":304.12499999999994,"velocity":0.7480314960629921,"duration":0.33749999999997726},{"name":"F#4","midi":66,"time":304.12499999999994,"velocity":0.7480314960629921,"duration":0.33749999999997726},{"name":"A4","midi":69,"time":304.12499999999994,"velocity":0.7480314960629921,"duration":0.33749999999997726},{"name":"F#4","midi":66,"time":304.49999999999994,"velocity":0.7480314960629921,"duration":0.33749999999997726},{"name":"B3","midi":59,"time":304.49999999999994,"velocity":0.7480314960629921,"duration":0.33749999999997726},{"name":"D5","midi":74,"time":304.49999999999994,"velocity":0.7480314960629921,"duration":0.33749999999997726},{"name":"A4","midi":69,"time":304.49999999999994,"velocity":0.7480314960629921,"duration":0.33749999999997726},{"name":"F#5","midi":78,"time":304.87499999999994,"velocity":0.7480314960629921,"duration":0.33749999999997726},{"name":"D5","midi":74,"time":304.87499999999994,"velocity":0.7480314960629921,"duration":0.33749999999997726},{"name":"A4","midi":69,"time":304.87499999999994,"velocity":0.7480314960629921,"duration":0.33749999999997726},{"name":"F#4","midi":66,"time":304.87499999999994,"velocity":0.7480314960629921,"duration":0.33749999999997726},{"name":"B3","midi":59,"time":304.87499999999994,"velocity":0.7480314960629921,"duration":0.33749999999997726},{"name":"F#5","midi":78,"time":305.24999999999994,"velocity":0.7480314960629921,"duration":0.33749999999997726},{"name":"D5","midi":74,"time":305.24999999999994,"velocity":0.7480314960629921,"duration":0.33749999999997726},{"name":"A4","midi":69,"time":305.24999999999994,"velocity":0.7480314960629921,"duration":0.33749999999997726},{"name":"F#4","midi":66,"time":305.24999999999994,"velocity":0.7480314960629921,"duration":0.33749999999997726},{"name":"B3","midi":59,"time":305.24999999999994,"velocity":0.7480314960629921,"duration":0.33749999999997726},{"name":"B3","midi":59,"time":305.62499999999994,"velocity":0.7480314960629921,"duration":0.33749999999997726},{"name":"F#4","midi":66,"time":305.62499999999994,"velocity":0.7480314960629921,"duration":0.33749999999997726},{"name":"A4","midi":69,"time":305.62499999999994,"velocity":0.7480314960629921,"duration":0.33749999999997726},{"name":"D5","midi":74,"time":305.62499999999994,"velocity":0.7480314960629921,"duration":0.33749999999997726},{"name":"D5","midi":74,"time":305.99999999999994,"velocity":0.7480314960629921,"duration":0.33749999999997726},{"name":"B3","midi":59,"time":305.99999999999994,"velocity":0.7480314960629921,"duration":0.33749999999997726},{"name":"F#4","midi":66,"time":305.99999999999994,"velocity":0.7480314960629921,"duration":0.33749999999997726},{"name":"A4","midi":69,"time":305.99999999999994,"velocity":0.7480314960629921,"duration":0.33749999999997726},{"name":"A4","midi":69,"time":306.37499999999994,"velocity":0.7480314960629921,"duration":0.33749999999997726},{"name":"D5","midi":74,"time":306.37499999999994,"velocity":0.7480314960629921,"duration":0.33749999999997726},{"name":"F#5","midi":78,"time":306.37499999999994,"velocity":0.7480314960629921,"duration":0.33749999999997726},{"name":"B3","midi":59,"time":306.37499999999994,"velocity":0.7480314960629921,"duration":0.33749999999997726},{"name":"F#4","midi":66,"time":306.37499999999994,"velocity":0.7480314960629921,"duration":0.33749999999997726},{"name":"A4","midi":69,"time":306.74999999999994,"velocity":0.7480314960629921,"duration":0.33749999999997726},{"name":"F#4","midi":66,"time":306.74999999999994,"velocity":0.7480314960629921,"duration":0.33749999999997726},{"name":"B3","midi":59,"time":306.74999999999994,"velocity":0.7480314960629921,"duration":0.33749999999997726},{"name":"F#5","midi":78,"time":306.74999999999994,"velocity":0.7480314960629921,"duration":0.33749999999997726},{"name":"D5","midi":74,"time":306.74999999999994,"velocity":0.7480314960629921,"duration":0.33749999999997726},{"name":"D5","midi":74,"time":307.12499999999994,"velocity":0.7480314960629921,"duration":0.33749999999997726},{"name":"A4","midi":69,"time":307.12499999999994,"velocity":0.7480314960629921,"duration":0.33749999999997726},{"name":"F#4","midi":66,"time":307.12499999999994,"velocity":0.7480314960629921,"duration":0.33749999999997726},{"name":"B3","midi":59,"time":307.12499999999994,"velocity":0.7480314960629921,"duration":0.33749999999997726},{"name":"B3","midi":59,"time":307.49999999999994,"velocity":0.7480314960629921,"duration":0.33749999999997726},{"name":"F#4","midi":66,"time":307.49999999999994,"velocity":0.7480314960629921,"duration":0.33749999999997726},{"name":"A4","midi":69,"time":307.49999999999994,"velocity":0.7480314960629921,"duration":0.33749999999997726},{"name":"D5","midi":74,"time":307.49999999999994,"velocity":0.7480314960629921,"duration":0.33749999999997726},{"name":"F#5","midi":78,"time":307.87499999999994,"velocity":0.7480314960629921,"duration":0.33749999999997726},{"name":"D5","midi":74,"time":307.87499999999994,"velocity":0.7480314960629921,"duration":0.33749999999997726},{"name":"A4","midi":69,"time":307.87499999999994,"velocity":0.7480314960629921,"duration":0.33749999999997726},{"name":"F#4","midi":66,"time":307.87499999999994,"velocity":0.7480314960629921,"duration":0.33749999999997726},{"name":"B3","midi":59,"time":307.87499999999994,"velocity":0.7480314960629921,"duration":0.33749999999997726},{"name":"B3","midi":59,"time":308.24999999999994,"velocity":0.7480314960629921,"duration":0.33749999999997726},{"name":"F#4","midi":66,"time":308.24999999999994,"velocity":0.7480314960629921,"duration":0.33749999999997726},{"name":"A4","midi":69,"time":308.24999999999994,"velocity":0.7480314960629921,"duration":0.33749999999997726},{"name":"D5","midi":74,"time":308.24999999999994,"velocity":0.7480314960629921,"duration":0.33749999999997726},{"name":"F#5","midi":78,"time":308.24999999999994,"velocity":0.7480314960629921,"duration":0.33749999999997726},{"name":"D5","midi":74,"time":308.62499999999994,"velocity":0.7480314960629921,"duration":0.33749999999997726},{"name":"B3","midi":59,"time":308.62499999999994,"velocity":0.7480314960629921,"duration":0.33749999999997726},{"name":"F#4","midi":66,"time":308.62499999999994,"velocity":0.7480314960629921,"duration":0.33749999999997726},{"name":"A4","midi":69,"time":308.62499999999994,"velocity":0.7480314960629921,"duration":0.33749999999997726},{"name":"A4","midi":69,"time":308.99999999999994,"velocity":0.7480314960629921,"duration":0.33749999999997726},{"name":"D4","midi":62,"time":308.99999999999994,"velocity":0.7480314960629921,"duration":0.33749999999997726},{"name":"D4","midi":62,"time":309.37499999999994,"velocity":0.7480314960629921,"duration":0.33749999999997726},{"name":"D5","midi":74,"time":309.37499999999994,"velocity":0.7480314960629921,"duration":0.33749999999997726},{"name":"F#5","midi":78,"time":309.37499999999994,"velocity":0.7480314960629921,"duration":0.33749999999997726},{"name":"A4","midi":69,"time":309.37499999999994,"velocity":0.7480314960629921,"duration":0.33749999999997726},{"name":"A4","midi":69,"time":309.74999999999994,"velocity":0.7480314960629921,"duration":0.33749999999997726},{"name":"C#5","midi":73,"time":309.74999999999994,"velocity":0.7480314960629921,"duration":0.33749999999997726},{"name":"D4","midi":62,"time":309.74999999999994,"velocity":0.7480314960629921,"duration":0.33749999999997726},{"name":"D4","midi":62,"time":310.12499999999994,"velocity":0.7480314960629921,"duration":0.33749999999997726},{"name":"A4","midi":69,"time":310.12499999999994,"velocity":0.7480314960629921,"duration":0.33749999999997726},{"name":"A4","midi":69,"time":310.49999999999994,"velocity":0.7480314960629921,"duration":0.33749999999997726},{"name":"D4","midi":62,"time":310.49999999999994,"velocity":0.7480314960629921,"duration":0.33749999999997726},{"name":"D4","midi":62,"time":310.87499999999994,"velocity":0.7480314960629921,"duration":0.33749999999997726},{"name":"A4","midi":69,"time":310.87499999999994,"velocity":0.7480314960629921,"duration":0.33749999999997726},{"name":"D5","midi":74,"time":310.87499999999994,"velocity":0.7480314960629921,"duration":0.33749999999997726},{"name":"D4","midi":62,"time":311.24999999999994,"velocity":0.7480314960629921,"duration":0.33749999999997726},{"name":"A4","midi":69,"time":311.24999999999994,"velocity":0.7480314960629921,"duration":0.33749999999997726},{"name":"C#5","midi":73,"time":311.24999999999994,"velocity":0.7480314960629921,"duration":0.33749999999997726},{"name":"A4","midi":69,"time":311.62499999999994,"velocity":0.7480314960629921,"duration":0.33749999999997726},{"name":"D4","midi":62,"time":311.62499999999994,"velocity":0.7480314960629921,"duration":0.33749999999997726},{"name":"A4","midi":69,"time":311.99999999999994,"velocity":0.7480314960629921,"duration":0.33749999999997726},{"name":"D4","midi":62,"time":311.99999999999994,"velocity":0.7480314960629921,"duration":0.33749999999997726},{"name":"D5","midi":74,"time":312.37499999999994,"velocity":0.7480314960629921,"duration":0.33749999999997726},{"name":"A4","midi":69,"time":312.37499999999994,"velocity":0.7480314960629921,"duration":0.33749999999997726},{"name":"D4","midi":62,"time":312.37499999999994,"velocity":0.7480314960629921,"duration":0.33749999999997726},{"name":"D4","midi":62,"time":312.74999999999994,"velocity":0.7480314960629921,"duration":0.33749999999997726},{"name":"A4","midi":69,"time":312.74999999999994,"velocity":0.7480314960629921,"duration":0.33749999999997726},{"name":"C#5","midi":73,"time":312.74999999999994,"velocity":0.7480314960629921,"duration":0.33749999999997726},{"name":"D4","midi":62,"time":313.12499999999994,"velocity":0.7480314960629921,"duration":0.33749999999997726},{"name":"A4","midi":69,"time":313.12499999999994,"velocity":0.7480314960629921,"duration":0.33749999999997726},{"name":"A4","midi":69,"time":313.49999999999994,"velocity":0.7480314960629921,"duration":0.33749999999997726},{"name":"D4","midi":62,"time":313.49999999999994,"velocity":0.7480314960629921,"duration":0.33749999999997726},{"name":"D4","midi":62,"time":313.87499999999994,"velocity":0.7480314960629921,"duration":0.33749999999997726},{"name":"A4","midi":69,"time":313.87499999999994,"velocity":0.7480314960629921,"duration":0.33749999999997726},{"name":"D5","midi":74,"time":313.87499999999994,"velocity":0.7480314960629921,"duration":0.33749999999997726},{"name":"C#5","midi":73,"time":314.24999999999994,"velocity":0.7480314960629921,"duration":0.33749999999997726},{"name":"A4","midi":69,"time":314.24999999999994,"velocity":0.7480314960629921,"duration":0.33749999999997726},{"name":"D4","midi":62,"time":314.24999999999994,"velocity":0.7480314960629921,"duration":0.33749999999997726},{"name":"A4","midi":69,"time":314.62499999999994,"velocity":0.7480314960629921,"duration":0.33749999999997726},{"name":"D4","midi":62,"time":314.62499999999994,"velocity":0.7480314960629921,"duration":0.33749999999997726},{"name":"C#5","midi":73,"time":314.99999999999994,"velocity":0.7480314960629921,"duration":0.33749999999997726},{"name":"A4","midi":69,"time":314.99999999999994,"velocity":0.7480314960629921,"duration":0.33749999999997726},{"name":"E5","midi":76,"time":314.99999999999994,"velocity":0.7480314960629921,"duration":0.33749999999997726},{"name":"A5","midi":81,"time":314.99999999999994,"velocity":0.7480314960629921,"duration":0.33749999999997726},{"name":"A4","midi":69,"time":315.37499999999994,"velocity":0.7480314960629921,"duration":0.33749999999997726},{"name":"A5","midi":81,"time":315.37499999999994,"velocity":0.7480314960629921,"duration":0.33749999999997726},{"name":"C#5","midi":73,"time":315.37499999999994,"velocity":0.7480314960629921,"duration":0.33749999999997726},{"name":"E5","midi":76,"time":315.37499999999994,"velocity":0.7480314960629921,"duration":0.33749999999997726},{"name":"C#5","midi":73,"time":315.74999999999994,"velocity":0.7480314960629921,"duration":0.33749999999997726},{"name":"A4","midi":69,"time":315.74999999999994,"velocity":0.7480314960629921,"duration":0.33749999999997726},{"name":"E5","midi":76,"time":315.74999999999994,"velocity":0.7480314960629921,"duration":0.33749999999997726},{"name":"A5","midi":81,"time":315.74999999999994,"velocity":0.7480314960629921,"duration":0.33749999999997726},{"name":"A4","midi":69,"time":316.12499999999994,"velocity":0.7480314960629921,"duration":0.33749999999997726},{"name":"C#5","midi":73,"time":316.12499999999994,"velocity":0.7480314960629921,"duration":0.33749999999997726},{"name":"E5","midi":76,"time":316.12499999999994,"velocity":0.7480314960629921,"duration":0.33749999999997726},{"name":"A5","midi":81,"time":316.12499999999994,"velocity":0.7480314960629921,"duration":0.33749999999997726},{"name":"A4","midi":69,"time":316.49999999999994,"velocity":0.7480314960629921,"duration":0.33749999999997726},{"name":"E5","midi":76,"time":316.49999999999994,"velocity":0.7480314960629921,"duration":0.33749999999997726},{"name":"C#5","midi":73,"time":316.49999999999994,"velocity":0.7480314960629921,"duration":0.33749999999997726},{"name":"A5","midi":81,"time":316.49999999999994,"velocity":0.7480314960629921,"duration":0.33749999999997726},{"name":"A4","midi":69,"time":316.87499999999994,"velocity":0.7480314960629921,"duration":0.33749999999997726},{"name":"C#5","midi":73,"time":316.87499999999994,"velocity":0.7480314960629921,"duration":0.33749999999997726},{"name":"E5","midi":76,"time":316.87499999999994,"velocity":0.7480314960629921,"duration":0.33749999999997726},{"name":"A5","midi":81,"time":316.87499999999994,"velocity":0.7480314960629921,"duration":0.33749999999997726},{"name":"A4","midi":69,"time":317.24999999999994,"velocity":0.7480314960629921,"duration":0.33749999999997726},{"name":"A5","midi":81,"time":317.24999999999994,"velocity":0.7480314960629921,"duration":0.33749999999997726},{"name":"C#5","midi":73,"time":317.24999999999994,"velocity":0.7480314960629921,"duration":0.33749999999997726},{"name":"E5","midi":76,"time":317.24999999999994,"velocity":0.7480314960629921,"duration":0.33749999999997726},{"name":"E5","midi":76,"time":317.62499999999994,"velocity":0.7480314960629921,"duration":0.33749999999997726},{"name":"A5","midi":81,"time":317.62499999999994,"velocity":0.7480314960629921,"duration":0.33749999999997726},{"name":"A4","midi":69,"time":317.62499999999994,"velocity":0.7480314960629921,"duration":0.33749999999997726},{"name":"C#5","midi":73,"time":317.62499999999994,"velocity":0.7480314960629921,"duration":0.33749999999997726},{"name":"A5","midi":81,"time":317.99999999999994,"velocity":0.7480314960629921,"duration":0.33749999999997726},{"name":"E5","midi":76,"time":317.99999999999994,"velocity":0.7480314960629921,"duration":0.33749999999997726},{"name":"C#5","midi":73,"time":317.99999999999994,"velocity":0.7480314960629921,"duration":0.33749999999997726},{"name":"A4","midi":69,"time":317.99999999999994,"velocity":0.7480314960629921,"duration":0.33749999999997726},{"name":"A5","midi":81,"time":318.37499999999994,"velocity":0.7480314960629921,"duration":0.33749999999997726},{"name":"E5","midi":76,"time":318.37499999999994,"velocity":0.7480314960629921,"duration":0.33749999999997726},{"name":"C#5","midi":73,"time":318.37499999999994,"velocity":0.7480314960629921,"duration":0.33749999999997726},{"name":"A4","midi":69,"time":318.37499999999994,"velocity":0.7480314960629921,"duration":0.33749999999997726},{"name":"E5","midi":76,"time":318.74999999999994,"velocity":0.7480314960629921,"duration":0.33749999999997726},{"name":"A5","midi":81,"time":318.74999999999994,"velocity":0.7480314960629921,"duration":0.33749999999997726},{"name":"A4","midi":69,"time":318.74999999999994,"velocity":0.7480314960629921,"duration":0.33749999999997726},{"name":"C#5","midi":73,"time":318.74999999999994,"velocity":0.7480314960629921,"duration":0.33749999999997726},{"name":"A4","midi":69,"time":319.12499999999994,"velocity":0.7480314960629921,"duration":0.33749999999997726},{"name":"C#5","midi":73,"time":319.12499999999994,"velocity":0.7480314960629921,"duration":0.33749999999997726},{"name":"E5","midi":76,"time":319.12499999999994,"velocity":0.7480314960629921,"duration":0.33749999999997726},{"name":"A5","midi":81,"time":319.12499999999994,"velocity":0.7480314960629921,"duration":0.33749999999997726},{"name":"A4","midi":69,"time":319.49999999999994,"velocity":0.7480314960629921,"duration":0.33749999999997726},{"name":"E5","midi":76,"time":319.49999999999994,"velocity":0.7480314960629921,"duration":0.33749999999997726},{"name":"C#5","midi":73,"time":319.49999999999994,"velocity":0.7480314960629921,"duration":0.33749999999997726},{"name":"A5","midi":81,"time":319.49999999999994,"velocity":0.7480314960629921,"duration":0.33749999999997726},{"name":"A4","midi":69,"time":319.87499999999994,"velocity":0.7480314960629921,"duration":0.33749999999997726},{"name":"C#5","midi":73,"time":319.87499999999994,"velocity":0.7480314960629921,"duration":0.33749999999997726},{"name":"E5","midi":76,"time":319.87499999999994,"velocity":0.7480314960629921,"duration":0.33749999999997726},{"name":"A5","midi":81,"time":319.87499999999994,"velocity":0.7480314960629921,"duration":0.33749999999997726},{"name":"A4","midi":69,"time":320.24999999999994,"velocity":0.7480314960629921,"duration":0.33749999999997726},{"name":"E5","midi":76,"time":320.24999999999994,"velocity":0.7480314960629921,"duration":0.33749999999997726},{"name":"C#5","midi":73,"time":320.24999999999994,"velocity":0.7480314960629921,"duration":0.33749999999997726},{"name":"A5","midi":81,"time":320.24999999999994,"velocity":0.7480314960629921,"duration":0.33749999999997726},{"name":"E5","midi":76,"time":320.62499999999994,"velocity":0.7480314960629921,"duration":0.6750000000000114},{"name":"A5","midi":81,"time":320.62499999999994,"velocity":0.7480314960629921,"duration":0.33749999999997726},{"name":"A4","midi":69,"time":320.62499999999994,"velocity":0.7480314960629921,"duration":0.33749999999997726},{"name":"C#5","midi":73,"time":320.62499999999994,"velocity":0.7480314960629921,"duration":0.33749999999997726},{"name":"E4","midi":64,"time":320.99999999999994,"velocity":0.7480314960629921,"duration":0.3375000000000341},{"name":"B4","midi":71,"time":320.99999999999994,"velocity":0.7480314960629921,"duration":0.3375000000000341},{"name":"B4","midi":71,"time":321.375,"velocity":0.7480314960629921,"duration":0.33749999999997726},{"name":"E5","midi":76,"time":321.375,"velocity":0.7480314960629921,"duration":0.33749999999997726},{"name":"E5","midi":76,"time":321.375,"velocity":0.7480314960629921,"duration":0.33749999999997726},{"name":"A5","midi":81,"time":321.375,"velocity":0.7480314960629921,"duration":0.33749999999997726},{"name":"E4","midi":64,"time":321.375,"velocity":0.7480314960629921,"duration":0.33749999999997726},{"name":"G#5","midi":80,"time":321.75,"velocity":0.7480314960629921,"duration":0.33749999999997726},{"name":"E5","midi":76,"time":321.75,"velocity":0.7480314960629921,"duration":0.33749999999997726},{"name":"B4","midi":71,"time":321.75,"velocity":0.7480314960629921,"duration":0.33749999999997726},{"name":"E4","midi":64,"time":321.75,"velocity":0.7480314960629921,"duration":0.33749999999997726},{"name":"E4","midi":64,"time":322.125,"velocity":0.7480314960629921,"duration":0.33749999999997726},{"name":"B4","midi":71,"time":322.125,"velocity":0.7480314960629921,"duration":0.33749999999997726},{"name":"E5","midi":76,"time":322.125,"velocity":0.7480314960629921,"duration":0.33749999999997726},{"name":"B4","midi":71,"time":322.5,"velocity":0.7480314960629921,"duration":0.33749999999997726},{"name":"E5","midi":76,"time":322.5,"velocity":0.7480314960629921,"duration":0.33749999999997726},{"name":"E4","midi":64,"time":322.5,"velocity":0.7480314960629921,"duration":0.33749999999997726},{"name":"B4","midi":71,"time":322.875,"velocity":0.7480314960629921,"duration":0.33749999999997726},{"name":"G#5","midi":80,"time":322.875,"velocity":0.7480314960629921,"duration":0.33749999999997726},{"name":"E5","midi":76,"time":322.875,"velocity":0.7480314960629921,"duration":0.33749999999997726},{"name":"E4","midi":64,"time":322.875,"velocity":0.7480314960629921,"duration":0.33749999999997726},{"name":"G#5","midi":80,"time":323.25,"velocity":0.7480314960629921,"duration":0.33749999999997726},{"name":"E5","midi":76,"time":323.25,"velocity":0.7480314960629921,"duration":0.33749999999997726},{"name":"B4","midi":71,"time":323.25,"velocity":0.7480314960629921,"duration":0.33749999999997726},{"name":"E4","midi":64,"time":323.25,"velocity":0.7480314960629921,"duration":0.33749999999997726},{"name":"B4","midi":71,"time":323.625,"velocity":0.7480314960629921,"duration":0.33749999999997726},{"name":"E5","midi":76,"time":323.625,"velocity":0.7480314960629921,"duration":0.33749999999997726},{"name":"E4","midi":64,"time":323.625,"velocity":0.7480314960629921,"duration":0.33749999999997726},{"name":"E5","midi":76,"time":324,"velocity":0.7480314960629921,"duration":0.33749999999997726},{"name":"B4","midi":71,"time":324,"velocity":0.7480314960629921,"duration":0.33749999999997726},{"name":"E4","midi":64,"time":324,"velocity":0.7480314960629921,"duration":0.33749999999997726},{"name":"G#5","midi":80,"time":324.375,"velocity":0.7480314960629921,"duration":0.33749999999997726},{"name":"E5","midi":76,"time":324.375,"velocity":0.7480314960629921,"duration":0.33749999999997726},{"name":"B4","midi":71,"time":324.375,"velocity":0.7480314960629921,"duration":0.33749999999997726},{"name":"E4","midi":64,"time":324.375,"velocity":0.7480314960629921,"duration":0.33749999999997726},{"name":"E4","midi":64,"time":324.75,"velocity":0.7480314960629921,"duration":0.33749999999997726},{"name":"B4","midi":71,"time":324.75,"velocity":0.7480314960629921,"duration":0.33749999999997726},{"name":"E5","midi":76,"time":324.75,"velocity":0.7480314960629921,"duration":0.33749999999997726},{"name":"G#5","midi":80,"time":324.75,"velocity":0.7480314960629921,"duration":0.33749999999997726},{"name":"E4","midi":64,"time":325.125,"velocity":0.7480314960629921,"duration":0.33749999999997726},{"name":"B4","midi":71,"time":325.125,"velocity":0.7480314960629921,"duration":0.33749999999997726},{"name":"E5","midi":76,"time":325.125,"velocity":0.7480314960629921,"duration":0.33749999999997726},{"name":"E4","midi":64,"time":325.5,"velocity":0.7480314960629921,"duration":0.33749999999997726},{"name":"B4","midi":71,"time":325.5,"velocity":0.7480314960629921,"duration":0.33749999999997726},{"name":"E5","midi":76,"time":325.5,"velocity":0.7480314960629921,"duration":0.33749999999997726},{"name":"B4","midi":71,"time":325.875,"velocity":0.7480314960629921,"duration":0.33749999999997726},{"name":"E4","midi":64,"time":325.875,"velocity":0.7480314960629921,"duration":0.33749999999997726},{"name":"E5","midi":76,"time":325.875,"velocity":0.7480314960629921,"duration":0.33749999999997726},{"name":"G#5","midi":80,"time":325.875,"velocity":0.7480314960629921,"duration":0.33749999999997726},{"name":"B4","midi":71,"time":326.25,"velocity":0.7480314960629921,"duration":0.33749999999997726},{"name":"E5","midi":76,"time":326.25,"velocity":0.7480314960629921,"duration":0.33749999999997726},{"name":"G#5","midi":80,"time":326.25,"velocity":0.7480314960629921,"duration":0.33749999999997726},{"name":"E4","midi":64,"time":326.25,"velocity":0.7480314960629921,"duration":0.33749999999997726},{"name":"E5","midi":76,"time":326.625,"velocity":0.7480314960629921,"duration":0.33749999999997726},{"name":"B4","midi":71,"time":326.625,"velocity":0.7480314960629921,"duration":0.33749999999997726},{"name":"E4","midi":64,"time":326.625,"velocity":0.7480314960629921,"duration":0.33749999999997726},{"name":"B3","midi":59,"time":327,"velocity":0.7480314960629921,"duration":0.33749999999997726},{"name":"F#4","midi":66,"time":327,"velocity":0.7480314960629921,"duration":0.33749999999997726},{"name":"A4","midi":69,"time":327,"velocity":0.7480314960629921,"duration":0.33749999999997726},{"name":"D5","midi":74,"time":327,"velocity":0.7480314960629921,"duration":0.33749999999997726},{"name":"D5","midi":74,"time":327.375,"velocity":0.7480314960629921,"duration":0.33749999999997726},{"name":"A4","midi":69,"time":327.375,"velocity":0.7480314960629921,"duration":0.33749999999997726},{"name":"B3","midi":59,"time":327.375,"velocity":0.7480314960629921,"duration":0.33749999999997726},{"name":"F#4","midi":66,"time":327.375,"velocity":0.7480314960629921,"duration":0.33749999999997726},{"name":"B3","midi":59,"time":327.75,"velocity":0.7480314960629921,"duration":0.33749999999997726},{"name":"F#4","midi":66,"time":327.75,"velocity":0.7480314960629921,"duration":0.33749999999997726},{"name":"A4","midi":69,"time":327.75,"velocity":0.7480314960629921,"duration":0.33749999999997726},{"name":"D5","midi":74,"time":327.75,"velocity":0.7480314960629921,"duration":0.33749999999997726},{"name":"F#5","midi":78,"time":327.75,"velocity":0.7480314960629921,"duration":0.33749999999997726},{"name":"B3","midi":59,"time":328.125,"velocity":0.7480314960629921,"duration":0.33749999999997726},{"name":"F#4","midi":66,"time":328.125,"velocity":0.7480314960629921,"duration":0.33749999999997726},{"name":"A4","midi":69,"time":328.125,"velocity":0.7480314960629921,"duration":0.33749999999997726},{"name":"D5","midi":74,"time":328.125,"velocity":0.7480314960629921,"duration":0.33749999999997726},{"name":"A4","midi":69,"time":328.5,"velocity":0.7480314960629921,"duration":0.33749999999997726},{"name":"D5","midi":74,"time":328.5,"velocity":0.7480314960629921,"duration":0.33749999999997726},{"name":"F#4","midi":66,"time":328.5,"velocity":0.7480314960629921,"duration":0.33749999999997726},{"name":"B3","midi":59,"time":328.5,"velocity":0.7480314960629921,"duration":0.33749999999997726},{"name":"D5","midi":74,"time":328.875,"velocity":0.7480314960629921,"duration":0.33749999999997726},{"name":"F#4","midi":66,"time":328.875,"velocity":0.7480314960629921,"duration":0.33749999999997726},{"name":"B3","midi":59,"time":328.875,"velocity":0.7480314960629921,"duration":0.33749999999997726},{"name":"A4","midi":69,"time":328.875,"velocity":0.7480314960629921,"duration":0.33749999999997726},{"name":"F#5","midi":78,"time":328.875,"velocity":0.7480314960629921,"duration":0.33749999999997726},{"name":"F#5","midi":78,"time":329.25,"velocity":0.7480314960629921,"duration":0.33749999999997726},{"name":"D5","midi":74,"time":329.25,"velocity":0.7480314960629921,"duration":0.33749999999997726},{"name":"A4","midi":69,"time":329.25,"velocity":0.7480314960629921,"duration":0.33749999999997726},{"name":"F#4","midi":66,"time":329.25,"velocity":0.7480314960629921,"duration":0.33749999999997726},{"name":"B3","midi":59,"time":329.25,"velocity":0.7480314960629921,"duration":0.33749999999997726},{"name":"B3","midi":59,"time":329.625,"velocity":0.7480314960629921,"duration":0.33749999999997726},{"name":"F#4","midi":66,"time":329.625,"velocity":0.7480314960629921,"duration":0.33749999999997726},{"name":"A4","midi":69,"time":329.625,"velocity":0.7480314960629921,"duration":0.33749999999997726},{"name":"D5","midi":74,"time":329.625,"velocity":0.7480314960629921,"duration":0.33749999999997726},{"name":"B3","midi":59,"time":330,"velocity":0.7480314960629921,"duration":0.33749999999997726},{"name":"F#4","midi":66,"time":330,"velocity":0.7480314960629921,"duration":0.33749999999997726},{"name":"A4","midi":69,"time":330,"velocity":0.7480314960629921,"duration":0.33749999999997726},{"name":"D5","midi":74,"time":330,"velocity":0.7480314960629921,"duration":0.33749999999997726},{"name":"A4","midi":69,"time":330.375,"velocity":0.7480314960629921,"duration":0.33749999999997726},{"name":"F#5","midi":78,"time":330.375,"velocity":0.7480314960629921,"duration":0.33749999999997726},{"name":"B3","midi":59,"time":330.375,"velocity":0.7480314960629921,"duration":0.33749999999997726},{"name":"F#4","midi":66,"time":330.375,"velocity":0.7480314960629921,"duration":0.33749999999997726},{"name":"D5","midi":74,"time":330.375,"velocity":0.7480314960629921,"duration":0.33749999999997726},{"name":"F#5","midi":78,"time":330.75,"velocity":0.7480314960629921,"duration":0.33749999999997726},{"name":"D5","midi":74,"time":330.75,"velocity":0.7480314960629921,"duration":0.33749999999997726},{"name":"A4","midi":69,"time":330.75,"velocity":0.7480314960629921,"duration":0.33749999999997726},{"name":"F#4","midi":66,"time":330.75,"velocity":0.7480314960629921,"duration":0.33749999999997726},{"name":"B3","midi":59,"time":330.75,"velocity":0.7480314960629921,"duration":0.33749999999997726},{"name":"B3","midi":59,"time":331.125,"velocity":0.7480314960629921,"duration":0.33749999999997726},{"name":"F#4","midi":66,"time":331.125,"velocity":0.7480314960629921,"duration":0.33749999999997726},{"name":"D5","midi":74,"time":331.125,"velocity":0.7480314960629921,"duration":0.33749999999997726},{"name":"A4","midi":69,"time":331.125,"velocity":0.7480314960629921,"duration":0.33749999999997726},{"name":"D5","midi":74,"time":331.5,"velocity":0.7480314960629921,"duration":0.33749999999997726},{"name":"B3","midi":59,"time":331.5,"velocity":0.7480314960629921,"duration":0.33749999999997726},{"name":"F#4","midi":66,"time":331.5,"velocity":0.7480314960629921,"duration":0.33749999999997726},{"name":"A4","midi":69,"time":331.5,"velocity":0.7480314960629921,"duration":0.33749999999997726},{"name":"F#5","midi":78,"time":331.875,"velocity":0.7480314960629921,"duration":0.33749999999997726},{"name":"D5","midi":74,"time":331.875,"velocity":0.7480314960629921,"duration":0.33749999999997726},{"name":"A4","midi":69,"time":331.875,"velocity":0.7480314960629921,"duration":0.33749999999997726},{"name":"F#4","midi":66,"time":331.875,"velocity":0.7480314960629921,"duration":0.33749999999997726},{"name":"B3","midi":59,"time":331.875,"velocity":0.7480314960629921,"duration":0.33749999999997726},{"name":"B3","midi":59,"time":332.25,"velocity":0.7480314960629921,"duration":0.33749999999997726},{"name":"F#4","midi":66,"time":332.25,"velocity":0.7480314960629921,"duration":0.33749999999997726},{"name":"D5","midi":74,"time":332.25,"velocity":0.7480314960629921,"duration":0.33749999999997726},{"name":"F#5","midi":78,"time":332.25,"velocity":0.7480314960629921,"duration":0.33749999999997726},{"name":"A4","midi":69,"time":332.25,"velocity":0.7480314960629921,"duration":0.33749999999997726},{"name":"A4","midi":69,"time":332.625,"velocity":0.7480314960629921,"duration":0.33749999999997726},{"name":"B3","midi":59,"time":332.625,"velocity":0.7480314960629921,"duration":0.33749999999997726},{"name":"F#4","midi":66,"time":332.625,"velocity":0.7480314960629921,"duration":0.33749999999997726},{"name":"D5","midi":74,"time":332.625,"velocity":0.7480314960629921,"duration":0.33749999999997726},{"name":"D4","midi":62,"time":333,"velocity":0.7480314960629921,"duration":0.33749999999997726},{"name":"A4","midi":69,"time":333,"velocity":0.7480314960629921,"duration":0.33749999999997726},{"name":"D4","midi":62,"time":333.375,"velocity":0.7480314960629921,"duration":0.33749999999997726},{"name":"A4","midi":69,"time":333.375,"velocity":0.7480314960629921,"duration":0.33749999999997726},{"name":"D5","midi":74,"time":333.375,"velocity":0.7480314960629921,"duration":0.33749999999997726},{"name":"F#5","midi":78,"time":333.375,"velocity":0.7480314960629921,"duration":0.33749999999997726},{"name":"D4","midi":62,"time":333.75,"velocity":0.7480314960629921,"duration":0.33749999999997726},{"name":"C#5","midi":73,"time":333.75,"velocity":0.7480314960629921,"duration":0.33749999999997726},{"name":"A4","midi":69,"time":333.75,"velocity":0.7480314960629921,"duration":0.33749999999997726},{"name":"A4","midi":69,"time":334.125,"velocity":0.7480314960629921,"duration":0.33749999999997726},{"name":"D4","midi":62,"time":334.125,"velocity":0.7480314960629921,"duration":0.33749999999997726},{"name":"A4","midi":69,"time":334.5,"velocity":0.7480314960629921,"duration":0.33749999999997726},{"name":"D4","midi":62,"time":334.5,"velocity":0.7480314960629921,"duration":0.33749999999997726},{"name":"D4","midi":62,"time":334.875,"velocity":0.7480314960629921,"duration":0.33749999999997726},{"name":"A4","midi":69,"time":334.875,"velocity":0.7480314960629921,"duration":0.33749999999997726},{"name":"D5","midi":74,"time":334.875,"velocity":0.7480314960629921,"duration":0.33749999999997726},{"name":"D4","midi":62,"time":335.25,"velocity":0.7480314960629921,"duration":0.33749999999997726},{"name":"A4","midi":69,"time":335.25,"velocity":0.7480314960629921,"duration":0.33749999999997726},{"name":"C#5","midi":73,"time":335.25,"velocity":0.7480314960629921,"duration":0.33749999999997726},{"name":"A4","midi":69,"time":335.625,"velocity":0.7480314960629921,"duration":0.33749999999997726},{"name":"D4","midi":62,"time":335.625,"velocity":0.7480314960629921,"duration":0.33749999999997726},{"name":"A4","midi":69,"time":336,"velocity":0.7480314960629921,"duration":0.33749999999997726},{"name":"D4","midi":62,"time":336,"velocity":0.7480314960629921,"duration":0.33749999999997726},{"name":"A4","midi":69,"time":336.375,"velocity":0.7480314960629921,"duration":0.33749999999997726},{"name":"D4","midi":62,"time":336.375,"velocity":0.7480314960629921,"duration":0.33749999999997726},{"name":"C#5","midi":73,"time":336.375,"velocity":0.7480314960629921,"duration":0.33749999999997726},{"name":"A4","midi":69,"time":336.75,"velocity":0.7480314960629921,"duration":0.33749999999997726},{"name":"D4","midi":62,"time":336.75,"velocity":0.7480314960629921,"duration":0.33749999999997726},{"name":"C#5","midi":73,"time":336.75,"velocity":0.7480314960629921,"duration":0.33749999999997726},{"name":"A4","midi":69,"time":337.125,"velocity":0.7480314960629921,"duration":0.33749999999997726},{"name":"D4","midi":62,"time":337.125,"velocity":0.7480314960629921,"duration":0.33749999999997726},{"name":"D4","midi":62,"time":337.5,"velocity":0.7480314960629921,"duration":0.33749999999997726},{"name":"A4","midi":69,"time":337.5,"velocity":0.7480314960629921,"duration":0.33749999999997726},{"name":"D4","midi":62,"time":337.875,"velocity":0.7480314960629921,"duration":0.33749999999997726},{"name":"A4","midi":69,"time":337.875,"velocity":0.7480314960629921,"duration":0.33749999999997726},{"name":"C#5","midi":73,"time":337.875,"velocity":0.7480314960629921,"duration":0.33749999999997726},{"name":"C#5","midi":73,"time":338.25,"velocity":0.7480314960629921,"duration":0.33749999999997726},{"name":"A4","midi":69,"time":338.25,"velocity":0.7480314960629921,"duration":0.33749999999997726},{"name":"D4","midi":62,"time":338.25,"velocity":0.7480314960629921,"duration":0.33749999999997726},{"name":"D4","midi":62,"time":338.625,"velocity":0.7480314960629921,"duration":0.33749999999997726},{"name":"A4","midi":69,"time":338.625,"velocity":0.7480314960629921,"duration":0.33749999999997726},{"name":"A3","midi":57,"time":339,"velocity":0.7480314960629921,"duration":0.33749999999997726},{"name":"E4","midi":64,"time":339,"velocity":0.7480314960629921,"duration":0.33749999999997726},{"name":"A4","midi":69,"time":339,"velocity":0.7480314960629921,"duration":0.33749999999997726},{"name":"C#5","midi":73,"time":339,"velocity":0.7480314960629921,"duration":0.33749999999997726},{"name":"F#5","midi":78,"time":339,"velocity":0.7480314960629921,"duration":0.33749999999997726},{"name":"F#5","midi":78,"time":339.375,"velocity":0.7480314960629921,"duration":0.33749999999997726},{"name":"A3","midi":57,"time":339.375,"velocity":0.7480314960629921,"duration":0.33749999999997726},{"name":"E4","midi":64,"time":339.375,"velocity":0.7480314960629921,"duration":0.33749999999997726},{"name":"A4","midi":69,"time":339.375,"velocity":0.7480314960629921,"duration":0.33749999999997726},{"name":"C#5","midi":73,"time":339.375,"velocity":0.7480314960629921,"duration":0.33749999999997726},{"name":"C#5","midi":73,"time":339.75,"velocity":0.7480314960629921,"duration":0.5062500000000227},{"name":"E5","midi":76,"time":339.75,"velocity":0.7480314960629921,"duration":0.5062500000000227},{"name":"A3","midi":57,"time":339.75,"velocity":0.7480314960629921,"duration":0.5062500000000227},{"name":"E4","midi":64,"time":339.75,"velocity":0.7480314960629921,"duration":0.5062500000000227},{"name":"A4","midi":69,"time":339.75,"velocity":0.7480314960629921,"duration":0.5062500000000227},{"name":"A3","midi":57,"time":340.3125,"velocity":0.7480314960629921,"duration":0.16874999999998863},{"name":"E4","midi":64,"time":340.3125,"velocity":0.7480314960629921,"duration":0.16874999999998863},{"name":"A4","midi":69,"time":340.3125,"velocity":0.7480314960629921,"duration":0.16874999999998863},{"name":"C#5","midi":73,"time":340.3125,"velocity":0.7480314960629921,"duration":0.16874999999998863},{"name":"E5","midi":76,"time":340.3125,"velocity":0.7480314960629921,"duration":0.16874999999998863},{"name":"F#5","midi":78,"time":340.5,"velocity":0.7480314960629921,"duration":0.33749999999997726},{"name":"A3","midi":57,"time":340.5,"velocity":0.7480314960629921,"duration":0.33749999999997726},{"name":"E4","midi":64,"time":340.5,"velocity":0.7480314960629921,"duration":0.33749999999997726},{"name":"A4","midi":69,"time":340.5,"velocity":0.7480314960629921,"duration":0.33749999999997726},{"name":"C#5","midi":73,"time":340.5,"velocity":0.7480314960629921,"duration":0.33749999999997726},{"name":"A4","midi":69,"time":340.875,"velocity":0.7480314960629921,"duration":0.33749999999997726},{"name":"A3","midi":57,"time":340.875,"velocity":0.7480314960629921,"duration":0.33749999999997726},{"name":"E4","midi":64,"time":340.875,"velocity":0.7480314960629921,"duration":0.33749999999997726},{"name":"C#5","midi":73,"time":340.875,"velocity":0.7480314960629921,"duration":0.33749999999997726},{"name":"F#5","midi":78,"time":340.875,"velocity":0.7480314960629921,"duration":0.33749999999997726},{"name":"A3","midi":57,"time":341.25,"velocity":0.7480314960629921,"duration":0.5062500000000227},{"name":"E5","midi":76,"time":341.25,"velocity":0.7480314960629921,"duration":0.5062500000000227},{"name":"C#5","midi":73,"time":341.25,"velocity":0.7480314960629921,"duration":0.5062500000000227},{"name":"A4","midi":69,"time":341.25,"velocity":0.7480314960629921,"duration":0.5062500000000227},{"name":"E4","midi":64,"time":341.25,"velocity":0.7480314960629921,"duration":0.5062500000000227},{"name":"A4","midi":69,"time":341.8125,"velocity":0.7480314960629921,"duration":0.16874999999998863},{"name":"E4","midi":64,"time":341.8125,"velocity":0.7480314960629921,"duration":0.16874999999998863},{"name":"A3","midi":57,"time":341.8125,"velocity":0.7480314960629921,"duration":0.16874999999998863},{"name":"E5","midi":76,"time":341.8125,"velocity":0.7480314960629921,"duration":0.16874999999998863},{"name":"C#5","midi":73,"time":341.8125,"velocity":0.7480314960629921,"duration":0.16874999999998863},{"name":"A4","midi":69,"time":342,"velocity":0.7480314960629921,"duration":0.33749999999997726},{"name":"C#5","midi":73,"time":342,"velocity":0.7480314960629921,"duration":0.33749999999997726},{"name":"F#5","midi":78,"time":342,"velocity":0.7480314960629921,"duration":0.33749999999997726},{"name":"E4","midi":64,"time":342,"velocity":0.7480314960629921,"duration":0.33749999999997726},{"name":"A3","midi":57,"time":342,"velocity":0.7480314960629921,"duration":0.33749999999997726},{"name":"A4","midi":69,"time":342.375,"velocity":0.7480314960629921,"duration":0.33749999999997726},{"name":"C#5","midi":73,"time":342.375,"velocity":0.7480314960629921,"duration":0.33749999999997726},{"name":"F#5","midi":78,"time":342.375,"velocity":0.7480314960629921,"duration":0.33749999999997726},{"name":"A3","midi":57,"time":342.375,"velocity":0.7480314960629921,"duration":0.33749999999997726},{"name":"E4","midi":64,"time":342.375,"velocity":0.7480314960629921,"duration":0.33749999999997726},{"name":"A3","midi":57,"time":342.75,"velocity":0.7480314960629921,"duration":0.5062500000000227},{"name":"E5","midi":76,"time":342.75,"velocity":0.7480314960629921,"duration":0.5062500000000227},{"name":"C#5","midi":73,"time":342.75,"velocity":0.7480314960629921,"duration":0.5062500000000227},{"name":"A4","midi":69,"time":342.75,"velocity":0.7480314960629921,"duration":0.5062500000000227},{"name":"E4","midi":64,"time":342.75,"velocity":0.7480314960629921,"duration":0.5062500000000227},{"name":"C#5","midi":73,"time":343.3125,"velocity":0.7480314960629921,"duration":0.16874999999998863},{"name":"E5","midi":76,"time":343.3125,"velocity":0.7480314960629921,"duration":0.16874999999998863},{"name":"A3","midi":57,"time":343.3125,"velocity":0.7480314960629921,"duration":0.16874999999998863},{"name":"E4","midi":64,"time":343.3125,"velocity":0.7480314960629921,"duration":0.16874999999998863},{"name":"A4","midi":69,"time":343.3125,"velocity":0.7480314960629921,"duration":0.16874999999998863},{"name":"A4","midi":69,"time":343.5,"velocity":0.7480314960629921,"duration":0.33749999999997726},{"name":"C#5","midi":73,"time":343.5,"velocity":0.7480314960629921,"duration":0.33749999999997726},{"name":"F#5","midi":78,"time":343.5,"velocity":0.7480314960629921,"duration":0.33749999999997726},{"name":"E4","midi":64,"time":343.5,"velocity":0.7480314960629921,"duration":0.33749999999997726},{"name":"A3","midi":57,"time":343.5,"velocity":0.7480314960629921,"duration":0.33749999999997726},{"name":"E4","midi":64,"time":343.875,"velocity":0.7480314960629921,"duration":0.33749999999997726},{"name":"A3","midi":57,"time":343.875,"velocity":0.7480314960629921,"duration":0.33749999999997726},{"name":"A4","midi":69,"time":343.875,"velocity":0.7480314960629921,"duration":0.33749999999997726},{"name":"F#5","midi":78,"time":343.875,"velocity":0.7480314960629921,"duration":0.33749999999997726},{"name":"C#5","midi":73,"time":343.875,"velocity":0.7480314960629921,"duration":0.33749999999997726},{"name":"A3","midi":57,"time":344.25,"velocity":0.7480314960629921,"duration":0.5062500000000227},{"name":"A4","midi":69,"time":344.25,"velocity":0.7480314960629921,"duration":0.5062500000000227},{"name":"C#5","midi":73,"time":344.25,"velocity":0.7480314960629921,"duration":0.5062500000000227},{"name":"E4","midi":64,"time":344.25,"velocity":0.7480314960629921,"duration":0.5062500000000227},{"name":"E5","midi":76,"time":344.25,"velocity":0.7480314960629921,"duration":0.5062500000000227},{"name":"A3","midi":57,"time":344.8125,"velocity":0.7480314960629921,"duration":0.16874999999998863},{"name":"E5","midi":76,"time":344.8125,"velocity":0.7480314960629921,"duration":0.16874999999998863},{"name":"C#5","midi":73,"time":344.8125,"velocity":0.7480314960629921,"duration":0.16874999999998863},{"name":"A4","midi":69,"time":344.8125,"velocity":0.7480314960629921,"duration":0.16874999999998863},{"name":"E4","midi":64,"time":344.8125,"velocity":0.7480314960629921,"duration":0.16874999999998863},{"name":"D4","midi":62,"time":345,"velocity":0.7480314960629921,"duration":0.33749999999997726},{"name":"D5","midi":74,"time":345,"velocity":0.7480314960629921,"duration":0.33749999999997726},{"name":"A4","midi":69,"time":345,"velocity":0.7480314960629921,"duration":0.33749999999997726},{"name":"F#5","midi":78,"time":345,"velocity":0.7480314960629921,"duration":0.33749999999997726},{"name":"F#5","midi":78,"time":345.375,"velocity":0.7480314960629921,"duration":0.33749999999997726},{"name":"D5","midi":74,"time":345.375,"velocity":0.7480314960629921,"duration":0.33749999999997726},{"name":"A4","midi":69,"time":345.375,"velocity":0.7480314960629921,"duration":0.33749999999997726},{"name":"D4","midi":62,"time":345.375,"velocity":0.7480314960629921,"duration":0.33749999999997726},{"name":"D4","midi":62,"time":345.75,"velocity":0.7480314960629921,"duration":0.5062500000000227},{"name":"E5","midi":76,"time":345.75,"velocity":0.7480314960629921,"duration":0.5062500000000227},{"name":"D5","midi":74,"time":345.75,"velocity":0.7480314960629921,"duration":0.5062500000000227},{"name":"A4","midi":69,"time":345.75,"velocity":0.7480314960629921,"duration":0.5062500000000227},{"name":"E5","midi":76,"time":346.3125,"velocity":0.7480314960629921,"duration":0.16874999999998863},{"name":"D5","midi":74,"time":346.3125,"velocity":0.7480314960629921,"duration":0.16874999999998863},{"name":"A4","midi":69,"time":346.3125,"velocity":0.7480314960629921,"duration":0.16874999999998863},{"name":"D4","midi":62,"time":346.3125,"velocity":0.7480314960629921,"duration":0.16874999999998863},{"name":"F#5","midi":78,"time":346.5,"velocity":0.7480314960629921,"duration":0.33749999999997726},{"name":"D5","midi":74,"time":346.5,"velocity":0.7480314960629921,"duration":0.33749999999997726},{"name":"A4","midi":69,"time":346.5,"velocity":0.7480314960629921,"duration":0.33749999999997726},{"name":"D4","midi":62,"time":346.5,"velocity":0.7480314960629921,"duration":0.33749999999997726},{"name":"F#5","midi":78,"time":346.875,"velocity":0.7480314960629921,"duration":0.33749999999997726},{"name":"D5","midi":74,"time":346.875,"velocity":0.7480314960629921,"duration":0.33749999999997726},{"name":"A4","midi":69,"time":346.875,"velocity":0.7480314960629921,"duration":0.33749999999997726},{"name":"D4","midi":62,"time":346.875,"velocity":0.7480314960629921,"duration":0.33749999999997726},{"name":"D5","midi":74,"time":347.25,"velocity":0.7480314960629921,"duration":0.5062500000000227},{"name":"D4","midi":62,"time":347.25,"velocity":0.7480314960629921,"duration":0.5062500000000227},{"name":"A4","midi":69,"time":347.25,"velocity":0.7480314960629921,"duration":0.5062500000000227},{"name":"E5","midi":76,"time":347.25,"velocity":0.7480314960629921,"duration":0.5062500000000227},{"name":"E5","midi":76,"time":347.8125,"velocity":0.7480314960629921,"duration":0.16874999999998863},{"name":"A4","midi":69,"time":347.8125,"velocity":0.7480314960629921,"duration":0.16874999999998863},{"name":"D4","midi":62,"time":347.8125,"velocity":0.7480314960629921,"duration":0.16874999999998863},{"name":"D5","midi":74,"time":347.8125,"velocity":0.7480314960629921,"duration":0.16874999999998863},{"name":"E5","midi":76,"time":348,"velocity":0.7480314960629921,"duration":0.33749999999997726},{"name":"D5","midi":74,"time":348,"velocity":0.7480314960629921,"duration":0.33749999999997726},{"name":"A4","midi":69,"time":348,"velocity":0.7480314960629921,"duration":0.33749999999997726},{"name":"D4","midi":62,"time":348,"velocity":0.7480314960629921,"duration":0.33749999999997726},{"name":"D4","midi":62,"time":348.375,"velocity":0.7480314960629921,"duration":0.33749999999997726},{"name":"A4","midi":69,"time":348.375,"velocity":0.7480314960629921,"duration":0.33749999999997726},{"name":"D5","midi":74,"time":348.375,"velocity":0.7480314960629921,"duration":0.33749999999997726},{"name":"E5","midi":76,"time":348.375,"velocity":0.7480314960629921,"duration":0.33749999999997726},{"name":"E5","midi":76,"time":348.75,"velocity":0.7480314960629921,"duration":0.5062500000000227},{"name":"D5","midi":74,"time":348.75,"velocity":0.7480314960629921,"duration":0.5062500000000227},{"name":"A4","midi":69,"time":348.75,"velocity":0.7480314960629921,"duration":0.5062500000000227},{"name":"D4","midi":62,"time":348.75,"velocity":0.7480314960629921,"duration":0.5062500000000227},{"name":"E5","midi":76,"time":349.3125,"velocity":0.7480314960629921,"duration":0.16874999999998863},{"name":"D4","midi":62,"time":349.3125,"velocity":0.7480314960629921,"duration":0.16874999999998863},{"name":"A4","midi":69,"time":349.3125,"velocity":0.7480314960629921,"duration":0.16874999999998863},{"name":"D5","midi":74,"time":349.3125,"velocity":0.7480314960629921,"duration":0.16874999999998863},{"name":"F#5","midi":78,"time":349.5,"velocity":0.7480314960629921,"duration":0.33749999999997726},{"name":"D5","midi":74,"time":349.5,"velocity":0.7480314960629921,"duration":0.33749999999997726},{"name":"A4","midi":69,"time":349.5,"velocity":0.7480314960629921,"duration":0.33749999999997726},{"name":"D4","midi":62,"time":349.5,"velocity":0.7480314960629921,"duration":0.33749999999997726},{"name":"D4","midi":62,"time":349.875,"velocity":0.7480314960629921,"duration":0.33749999999997726},{"name":"A4","midi":69,"time":349.875,"velocity":0.7480314960629921,"duration":0.33749999999997726},{"name":"D5","midi":74,"time":349.875,"velocity":0.7480314960629921,"duration":0.33749999999997726},{"name":"F#5","midi":78,"time":349.875,"velocity":0.7480314960629921,"duration":0.33749999999997726},{"name":"E5","midi":76,"time":350.25,"velocity":0.7480314960629921,"duration":0.5062500000000227},{"name":"D4","midi":62,"time":350.25,"velocity":0.7480314960629921,"duration":0.5062500000000227},{"name":"D5","midi":74,"time":350.25,"velocity":0.7480314960629921,"duration":0.5062500000000227},{"name":"A4","midi":69,"time":350.25,"velocity":0.7480314960629921,"duration":0.5062500000000227},{"name":"E5","midi":76,"time":350.8125,"velocity":0.7480314960629921,"duration":0.16874999999998863},{"name":"D4","midi":62,"time":350.8125,"velocity":0.7480314960629921,"duration":0.16874999999998863},{"name":"A4","midi":69,"time":350.8125,"velocity":0.7480314960629921,"duration":0.16874999999998863},{"name":"D5","midi":74,"time":350.8125,"velocity":0.7480314960629921,"duration":0.16874999999998863},{"name":"F#5","midi":78,"time":351,"velocity":0.7480314960629921,"duration":0.33749999999997726},{"name":"D5","midi":74,"time":351,"velocity":0.7480314960629921,"duration":0.33749999999997726},{"name":"B4","midi":71,"time":351,"velocity":0.7480314960629921,"duration":0.33749999999997726},{"name":"F#4","midi":66,"time":351,"velocity":0.7480314960629921,"duration":0.33749999999997726},{"name":"B3","midi":59,"time":351,"velocity":0.7480314960629921,"duration":0.33749999999997726},{"name":"F#5","midi":78,"time":351.375,"velocity":0.7480314960629921,"duration":0.33749999999997726},{"name":"D5","midi":74,"time":351.375,"velocity":0.7480314960629921,"duration":0.33749999999997726},{"name":"B4","midi":71,"time":351.375,"velocity":0.7480314960629921,"duration":0.33749999999997726},{"name":"F#4","midi":66,"time":351.375,"velocity":0.7480314960629921,"duration":0.33749999999997726},{"name":"B3","midi":59,"time":351.375,"velocity":0.7480314960629921,"duration":0.33749999999997726},{"name":"E5","midi":76,"time":351.75,"velocity":0.7480314960629921,"duration":0.5062500000000227},{"name":"D5","midi":74,"time":351.75,"velocity":0.7480314960629921,"duration":0.5062500000000227},{"name":"B4","midi":71,"time":351.75,"velocity":0.7480314960629921,"duration":0.5062500000000227},{"name":"F#4","midi":66,"time":351.75,"velocity":0.7480314960629921,"duration":0.5062500000000227},{"name":"B3","midi":59,"time":351.75,"velocity":0.7480314960629921,"duration":0.5062500000000227},{"name":"E5","midi":76,"time":352.3125,"velocity":0.7480314960629921,"duration":0.16874999999998863},{"name":"B3","midi":59,"time":352.3125,"velocity":0.7480314960629921,"duration":0.16874999999998863},{"name":"F#4","midi":66,"time":352.3125,"velocity":0.7480314960629921,"duration":0.16874999999998863},{"name":"B4","midi":71,"time":352.3125,"velocity":0.7480314960629921,"duration":0.16874999999998863},{"name":"D5","midi":74,"time":352.3125,"velocity":0.7480314960629921,"duration":0.16874999999998863},{"name":"F#5","midi":78,"time":352.5,"velocity":0.7480314960629921,"duration":0.33749999999997726},{"name":"B3","midi":59,"time":352.5,"velocity":0.7480314960629921,"duration":0.33749999999997726},{"name":"F#4","midi":66,"time":352.5,"velocity":0.7480314960629921,"duration":0.33749999999997726},{"name":"B4","midi":71,"time":352.5,"velocity":0.7480314960629921,"duration":0.33749999999997726},{"name":"D5","midi":74,"time":352.5,"velocity":0.7480314960629921,"duration":0.33749999999997726},{"name":"F#5","midi":78,"time":352.875,"velocity":0.7480314960629921,"duration":0.33749999999997726},{"name":"B3","midi":59,"time":352.875,"velocity":0.7480314960629921,"duration":0.33749999999997726},{"name":"F#4","midi":66,"time":352.875,"velocity":0.7480314960629921,"duration":0.33749999999997726},{"name":"B4","midi":71,"time":352.875,"velocity":0.7480314960629921,"duration":0.33749999999997726},{"name":"D5","midi":74,"time":352.875,"velocity":0.7480314960629921,"duration":0.33749999999997726},{"name":"F#4","midi":66,"time":353.25,"velocity":0.7480314960629921,"duration":0.5062500000000227},{"name":"D5","midi":74,"time":353.25,"velocity":0.7480314960629921,"duration":0.5062500000000227},{"name":"E5","midi":76,"time":353.25,"velocity":0.7480314960629921,"duration":0.5062500000000227},{"name":"B4","midi":71,"time":353.25,"velocity":0.7480314960629921,"duration":0.5062500000000227},{"name":"B3","midi":59,"time":353.25,"velocity":0.7480314960629921,"duration":0.5062500000000227},{"name":"F#4","midi":66,"time":353.8125,"velocity":0.7480314960629921,"duration":0.16874999999998863},{"name":"B3","midi":59,"time":353.8125,"velocity":0.7480314960629921,"duration":0.16874999999998863},{"name":"B4","midi":71,"time":353.8125,"velocity":0.7480314960629921,"duration":0.16874999999998863},{"name":"E5","midi":76,"time":353.8125,"velocity":0.7480314960629921,"duration":0.16874999999998863},{"name":"D5","midi":74,"time":353.8125,"velocity":0.7480314960629921,"duration":0.16874999999998863},{"name":"B4","midi":71,"time":354,"velocity":0.7480314960629921,"duration":0.33749999999997726},{"name":"F#5","midi":78,"time":354,"velocity":0.7480314960629921,"duration":0.33749999999997726},{"name":"C#4","midi":61,"time":354,"velocity":0.7480314960629921,"duration":0.33749999999997726},{"name":"G#4","midi":68,"time":354,"velocity":0.7480314960629921,"duration":0.33749999999997726},{"name":"F#5","midi":78,"time":354.375,"velocity":0.7480314960629921,"duration":0.33749999999997726},{"name":"B4","midi":71,"time":354.375,"velocity":0.7480314960629921,"duration":0.33749999999997726},{"name":"G#4","midi":68,"time":354.375,"velocity":0.7480314960629921,"duration":0.33749999999997726},{"name":"C#4","midi":61,"time":354.375,"velocity":0.7480314960629921,"duration":0.33749999999997726},{"name":"B4","midi":71,"time":354.75,"velocity":0.7480314960629921,"duration":0.5062500000000227},{"name":"C#4","midi":61,"time":354.75,"velocity":0.7480314960629921,"duration":0.5062500000000227},{"name":"G#4","midi":68,"time":354.75,"velocity":0.7480314960629921,"duration":0.5062500000000227},{"name":"E5","midi":76,"time":354.75,"velocity":0.7480314960629921,"duration":0.5062500000000227},{"name":"C#4","midi":61,"time":355.3125,"velocity":0.7480314960629921,"duration":0.16874999999998863},{"name":"G#4","midi":68,"time":355.3125,"velocity":0.7480314960629921,"duration":0.16874999999998863},{"name":"B4","midi":71,"time":355.3125,"velocity":0.7480314960629921,"duration":0.16874999999998863},{"name":"E5","midi":76,"time":355.3125,"velocity":0.7480314960629921,"duration":0.16874999999998863},{"name":"C#4","midi":61,"time":355.5,"velocity":0.7480314960629921,"duration":0.33749999999997726},{"name":"G#4","midi":68,"time":355.5,"velocity":0.7480314960629921,"duration":0.33749999999997726},{"name":"B4","midi":71,"time":355.5,"velocity":0.7480314960629921,"duration":0.33749999999997726},{"name":"F#5","midi":78,"time":355.5,"velocity":0.7480314960629921,"duration":0.33749999999997726},{"name":"C#4","midi":61,"time":355.875,"velocity":0.7480314960629921,"duration":0.33749999999997726},{"name":"B4","midi":71,"time":355.875,"velocity":0.7480314960629921,"duration":0.33749999999997726},{"name":"F#5","midi":78,"time":355.875,"velocity":0.7480314960629921,"duration":0.33749999999997726},{"name":"G#4","midi":68,"time":355.875,"velocity":0.7480314960629921,"duration":0.33749999999997726},{"name":"C#4","midi":61,"time":356.25,"velocity":0.7480314960629921,"duration":0.5062500000000227},{"name":"G#4","midi":68,"time":356.25,"velocity":0.7480314960629921,"duration":0.5062500000000227},{"name":"B4","midi":71,"time":356.25,"velocity":0.7480314960629921,"duration":0.5062500000000227},{"name":"E5","midi":76,"time":356.25,"velocity":0.7480314960629921,"duration":0.5062500000000227},{"name":"G#4","midi":68,"time":356.8125,"velocity":0.7480314960629921,"duration":0.16874999999998863},{"name":"B4","midi":71,"time":356.8125,"velocity":0.7480314960629921,"duration":0.16874999999998863},{"name":"E5","midi":76,"time":356.8125,"velocity":0.7480314960629921,"duration":0.16874999999998863},{"name":"C#4","midi":61,"time":356.8125,"velocity":0.7480314960629921,"duration":0.16874999999998863},{"name":"D4","midi":62,"time":357,"velocity":0.7480314960629921,"duration":0.33749999999997726},{"name":"A4","midi":69,"time":357,"velocity":0.7480314960629921,"duration":0.33749999999997726},{"name":"D5","midi":74,"time":357,"velocity":0.7480314960629921,"duration":0.33749999999997726},{"name":"F#5","midi":78,"time":357,"velocity":0.7480314960629921,"duration":0.33749999999997726},{"name":"A5","midi":81,"time":357,"velocity":0.7480314960629921,"duration":0.33749999999997726},{"name":"D4","midi":62,"time":357.375,"velocity":0.7480314960629921,"duration":0.33749999999997726},{"name":"A4","midi":69,"time":357.375,"velocity":0.7480314960629921,"duration":0.33749999999997726},{"name":"D5","midi":74,"time":357.375,"velocity":0.7480314960629921,"duration":0.33749999999997726},{"name":"F#5","midi":78,"time":357.375,"velocity":0.7480314960629921,"duration":0.33749999999997726},{"name":"A5","midi":81,"time":357.375,"velocity":0.7480314960629921,"duration":0.33749999999997726},{"name":"D4","midi":62,"time":357.75,"velocity":0.7480314960629921,"duration":0.5062500000000227},{"name":"A4","midi":69,"time":357.75,"velocity":0.7480314960629921,"duration":0.5062500000000227},{"name":"D5","midi":74,"time":357.75,"velocity":0.7480314960629921,"duration":0.5062500000000227},{"name":"F#5","midi":78,"time":357.75,"velocity":0.7480314960629921,"duration":0.5062500000000227},{"name":"A5","midi":81,"time":357.75,"velocity":0.7480314960629921,"duration":0.5062500000000227},{"name":"D5","midi":74,"time":358.3125,"velocity":0.7480314960629921,"duration":0.16874999999998863},{"name":"F#5","midi":78,"time":358.3125,"velocity":0.7480314960629921,"duration":0.16874999999998863},{"name":"A5","midi":81,"time":358.3125,"velocity":0.7480314960629921,"duration":0.16874999999998863},{"name":"D4","midi":62,"time":358.3125,"velocity":0.7480314960629921,"duration":0.16874999999998863},{"name":"A4","midi":69,"time":358.3125,"velocity":0.7480314960629921,"duration":0.16874999999998863},{"name":"A5","midi":81,"time":358.5,"velocity":0.7480314960629921,"duration":0.33749999999997726},{"name":"F#5","midi":78,"time":358.5,"velocity":0.7480314960629921,"duration":0.33749999999997726},{"name":"D5","midi":74,"time":358.5,"velocity":0.7480314960629921,"duration":0.33749999999997726},{"name":"A4","midi":69,"time":358.5,"velocity":0.7480314960629921,"duration":0.33749999999997726},{"name":"D4","midi":62,"time":358.5,"velocity":0.7480314960629921,"duration":0.33749999999997726},{"name":"F#5","midi":78,"time":358.875,"velocity":0.7480314960629921,"duration":0.33749999999997726},{"name":"D5","midi":74,"time":358.875,"velocity":0.7480314960629921,"duration":0.33749999999997726},{"name":"A4","midi":69,"time":358.875,"velocity":0.7480314960629921,"duration":0.33749999999997726},{"name":"D4","midi":62,"time":358.875,"velocity":0.7480314960629921,"duration":0.33749999999997726},{"name":"A5","midi":81,"time":358.875,"velocity":0.7480314960629921,"duration":0.33749999999997726},{"name":"D4","midi":62,"time":359.25,"velocity":0.7480314960629921,"duration":0.5062500000000227},{"name":"A5","midi":81,"time":359.25,"velocity":0.7480314960629921,"duration":0.5062500000000227},{"name":"F#5","midi":78,"time":359.25,"velocity":0.7480314960629921,"duration":0.5062500000000227},{"name":"D5","midi":74,"time":359.25,"velocity":0.7480314960629921,"duration":0.5062500000000227},{"name":"A4","midi":69,"time":359.25,"velocity":0.7480314960629921,"duration":0.5062500000000227},{"name":"D4","midi":62,"time":359.8125,"velocity":0.7480314960629921,"duration":0.16874999999998863},{"name":"A4","midi":69,"time":359.8125,"velocity":0.7480314960629921,"duration":0.16874999999998863},{"name":"D5","midi":74,"time":359.8125,"velocity":0.7480314960629921,"duration":0.16874999999998863},{"name":"A5","midi":81,"time":359.8125,"velocity":0.7480314960629921,"duration":0.16874999999998863},{"name":"F#5","midi":78,"time":359.8125,"velocity":0.7480314960629921,"duration":0.16874999999998863},{"name":"D4","midi":62,"time":360,"velocity":0.7480314960629921,"duration":0.33749999999997726},{"name":"A4","midi":69,"time":360,"velocity":0.7480314960629921,"duration":0.33749999999997726},{"name":"D5","midi":74,"time":360,"velocity":0.7480314960629921,"duration":0.33749999999997726},{"name":"F#5","midi":78,"time":360,"velocity":0.7480314960629921,"duration":0.33749999999997726},{"name":"A5","midi":81,"time":360,"velocity":0.7480314960629921,"duration":0.33749999999997726},{"name":"D4","midi":62,"time":360.375,"velocity":0.7480314960629921,"duration":0.33749999999997726},{"name":"A5","midi":81,"time":360.375,"velocity":0.7480314960629921,"duration":0.33749999999997726},{"name":"F#5","midi":78,"time":360.375,"velocity":0.7480314960629921,"duration":0.33749999999997726},{"name":"D5","midi":74,"time":360.375,"velocity":0.7480314960629921,"duration":0.33749999999997726},{"name":"A4","midi":69,"time":360.375,"velocity":0.7480314960629921,"duration":0.33749999999997726},{"name":"F#5","midi":78,"time":360.75,"velocity":0.7480314960629921,"duration":0.5062500000000227},{"name":"A5","midi":81,"time":360.75,"velocity":0.7480314960629921,"duration":0.5062500000000227},{"name":"D4","midi":62,"time":360.75,"velocity":0.7480314960629921,"duration":0.5062500000000227},{"name":"A4","midi":69,"time":360.75,"velocity":0.7480314960629921,"duration":0.5062500000000227},{"name":"D5","midi":74,"time":360.75,"velocity":0.7480314960629921,"duration":0.5062500000000227},{"name":"A5","midi":81,"time":361.3125,"velocity":0.7480314960629921,"duration":0.16874999999998863},{"name":"F#5","midi":78,"time":361.3125,"velocity":0.7480314960629921,"duration":0.16874999999998863},{"name":"D5","midi":74,"time":361.3125,"velocity":0.7480314960629921,"duration":0.16874999999998863},{"name":"A4","midi":69,"time":361.3125,"velocity":0.7480314960629921,"duration":0.16874999999998863},{"name":"D4","midi":62,"time":361.3125,"velocity":0.7480314960629921,"duration":0.16874999999998863},{"name":"D4","midi":62,"time":361.5,"velocity":0.7480314960629921,"duration":0.33749999999997726},{"name":"A4","midi":69,"time":361.5,"velocity":0.7480314960629921,"duration":0.33749999999997726},{"name":"D5","midi":74,"time":361.5,"velocity":0.7480314960629921,"duration":0.33749999999997726},{"name":"F#5","midi":78,"time":361.5,"velocity":0.7480314960629921,"duration":0.33749999999997726},{"name":"A5","midi":81,"time":361.5,"velocity":0.7480314960629921,"duration":0.33749999999997726},{"name":"D4","midi":62,"time":361.875,"velocity":0.7480314960629921,"duration":0.33749999999997726},{"name":"A4","midi":69,"time":361.875,"velocity":0.7480314960629921,"duration":0.33749999999997726},{"name":"D5","midi":74,"time":361.875,"velocity":0.7480314960629921,"duration":0.33749999999997726},{"name":"F#5","midi":78,"time":361.875,"velocity":0.7480314960629921,"duration":0.33749999999997726},{"name":"A5","midi":81,"time":361.875,"velocity":0.7480314960629921,"duration":0.33749999999997726},{"name":"D5","midi":74,"time":362.25,"velocity":0.7480314960629921,"duration":0.5062500000000227},{"name":"A5","midi":81,"time":362.25,"velocity":0.7480314960629921,"duration":0.5062500000000227},{"name":"F#5","midi":78,"time":362.25,"velocity":0.7480314960629921,"duration":0.5062500000000227},{"name":"D4","midi":62,"time":362.25,"velocity":0.7480314960629921,"duration":0.5062500000000227},{"name":"A4","midi":69,"time":362.25,"velocity":0.7480314960629921,"duration":0.5062500000000227},{"name":"A5","midi":81,"time":362.8125,"velocity":0.7480314960629921,"duration":0.16874999999998863},{"name":"F#5","midi":78,"time":362.8125,"velocity":0.7480314960629921,"duration":0.16874999999998863},{"name":"D5","midi":74,"time":362.8125,"velocity":0.7480314960629921,"duration":0.16874999999998863},{"name":"D4","midi":62,"time":362.8125,"velocity":0.7480314960629921,"duration":0.16874999999998863},{"name":"A4","midi":69,"time":362.8125,"velocity":0.7480314960629921,"duration":0.16874999999998863},{"name":"A5","midi":81,"time":363,"velocity":0.7480314960629921,"duration":0.33749999999997726},{"name":"E5","midi":76,"time":363,"velocity":0.7480314960629921,"duration":0.33749999999997726},{"name":"C#5","midi":73,"time":363,"velocity":0.7480314960629921,"duration":0.33749999999997726},{"name":"A4","midi":69,"time":363,"velocity":0.7480314960629921,"duration":0.33749999999997726},{"name":"A4","midi":69,"time":363.375,"velocity":0.7480314960629921,"duration":0.33749999999997726},{"name":"C#5","midi":73,"time":363.375,"velocity":0.7480314960629921,"duration":0.33749999999997726},{"name":"E5","midi":76,"time":363.375,"velocity":0.7480314960629921,"duration":0.33749999999997726},{"name":"A5","midi":81,"time":363.375,"velocity":0.7480314960629921,"duration":0.33749999999997726},{"name":"A5","midi":81,"time":363.75,"velocity":0.7480314960629921,"duration":0.33749999999997726},{"name":"C#5","midi":73,"time":363.75,"velocity":0.7480314960629921,"duration":0.33749999999997726},{"name":"E5","midi":76,"time":363.75,"velocity":0.7480314960629921,"duration":0.33749999999997726},{"name":"A4","midi":69,"time":363.75,"velocity":0.7480314960629921,"duration":0.33749999999997726},{"name":"C#5","midi":73,"time":364.125,"velocity":0.7480314960629921,"duration":0.33749999999997726},{"name":"E5","midi":76,"time":364.125,"velocity":0.7480314960629921,"duration":0.33749999999997726},{"name":"A4","midi":69,"time":364.125,"velocity":0.7480314960629921,"duration":0.33749999999997726},{"name":"A5","midi":81,"time":364.125,"velocity":0.7480314960629921,"duration":0.33749999999997726},{"name":"A4","midi":69,"time":364.5,"velocity":0.7480314960629921,"duration":0.33749999999997726},{"name":"C#5","midi":73,"time":364.5,"velocity":0.7480314960629921,"duration":0.33749999999997726},{"name":"E5","midi":76,"time":364.5,"velocity":0.7480314960629921,"duration":0.33749999999997726},{"name":"A5","midi":81,"time":364.5,"velocity":0.7480314960629921,"duration":0.33749999999997726},{"name":"E5","midi":76,"time":364.875,"velocity":0.7480314960629921,"duration":0.33749999999997726},{"name":"C#5","midi":73,"time":364.875,"velocity":0.7480314960629921,"duration":0.33749999999997726},{"name":"A4","midi":69,"time":364.875,"velocity":0.7480314960629921,"duration":0.33749999999997726},{"name":"A5","midi":81,"time":364.875,"velocity":0.7480314960629921,"duration":0.33749999999997726},{"name":"C#5","midi":73,"time":365.25,"velocity":0.7480314960629921,"duration":0.33749999999997726},{"name":"E5","midi":76,"time":365.25,"velocity":0.7480314960629921,"duration":0.33749999999997726},{"name":"A5","midi":81,"time":365.25,"velocity":0.7480314960629921,"duration":0.33749999999997726},{"name":"A4","midi":69,"time":365.25,"velocity":0.7480314960629921,"duration":0.33749999999997726},{"name":"A4","midi":69,"time":365.625,"velocity":0.7480314960629921,"duration":0.33749999999997726},{"name":"C#5","midi":73,"time":365.625,"velocity":0.7480314960629921,"duration":0.33749999999997726},{"name":"E5","midi":76,"time":365.625,"velocity":0.7480314960629921,"duration":0.33749999999997726},{"name":"A5","midi":81,"time":365.625,"velocity":0.7480314960629921,"duration":0.33749999999997726},{"name":"A5","midi":81,"time":366,"velocity":0.7480314960629921,"duration":0.33749999999997726},{"name":"E5","midi":76,"time":366,"velocity":0.7480314960629921,"duration":0.33749999999997726},{"name":"C#5","midi":73,"time":366,"velocity":0.7480314960629921,"duration":0.33749999999997726},{"name":"A4","midi":69,"time":366,"velocity":0.7480314960629921,"duration":0.33749999999997726},{"name":"A5","midi":81,"time":366.375,"velocity":0.7480314960629921,"duration":0.33749999999997726},{"name":"E5","midi":76,"time":366.375,"velocity":0.7480314960629921,"duration":0.33749999999997726},{"name":"C#5","midi":73,"time":366.375,"velocity":0.7480314960629921,"duration":0.33749999999997726},{"name":"A4","midi":69,"time":366.375,"velocity":0.7480314960629921,"duration":0.33749999999997726},{"name":"C#5","midi":73,"time":366.75,"velocity":0.7480314960629921,"duration":0.33749999999997726},{"name":"A4","midi":69,"time":366.75,"velocity":0.7480314960629921,"duration":0.33749999999997726},{"name":"A5","midi":81,"time":366.75,"velocity":0.7480314960629921,"duration":0.33749999999997726},{"name":"E5","midi":76,"time":366.75,"velocity":0.7480314960629921,"duration":0.33749999999997726},{"name":"A5","midi":81,"time":367.125,"velocity":0.7480314960629921,"duration":0.33749999999997726},{"name":"E5","midi":76,"time":367.125,"velocity":0.7480314960629921,"duration":0.33749999999997726},{"name":"C#5","midi":73,"time":367.125,"velocity":0.7480314960629921,"duration":0.33749999999997726},{"name":"A4","midi":69,"time":367.125,"velocity":0.7480314960629921,"duration":0.33749999999997726},{"name":"A5","midi":81,"time":367.5,"velocity":0.7480314960629921,"duration":0.33749999999997726},{"name":"E5","midi":76,"time":367.5,"velocity":0.7480314960629921,"duration":0.33749999999997726},{"name":"C#5","midi":73,"time":367.5,"velocity":0.7480314960629921,"duration":0.33749999999997726},{"name":"A4","midi":69,"time":367.5,"velocity":0.7480314960629921,"duration":0.33749999999997726},{"name":"A5","midi":81,"time":367.875,"velocity":0.7480314960629921,"duration":0.33749999999997726},{"name":"E5","midi":76,"time":367.875,"velocity":0.7480314960629921,"duration":0.33749999999997726},{"name":"A4","midi":69,"time":367.875,"velocity":0.7480314960629921,"duration":0.33749999999997726},{"name":"C#5","midi":73,"time":367.875,"velocity":0.7480314960629921,"duration":0.33749999999997726},{"name":"A4","midi":69,"time":368.25,"velocity":0.7480314960629921,"duration":0.33749999999997726},{"name":"C#5","midi":73,"time":368.25,"velocity":0.7480314960629921,"duration":0.33749999999997726},{"name":"E5","midi":76,"time":368.25,"velocity":0.7480314960629921,"duration":0.33749999999997726},{"name":"A5","midi":81,"time":368.25,"velocity":0.7480314960629921,"duration":0.33749999999997726},{"name":"A4","midi":69,"time":368.625,"velocity":0.7480314960629921,"duration":0.33749999999997726},{"name":"C#5","midi":73,"time":368.625,"velocity":0.7480314960629921,"duration":0.33749999999997726},{"name":"A5","midi":81,"time":368.625,"velocity":0.7480314960629921,"duration":0.33749999999997726},{"name":"E5","midi":76,"time":368.625,"velocity":0.7480314960629921,"duration":0.6750000000000114},{"name":"B4","midi":71,"time":369,"velocity":0.7480314960629921,"duration":0.3375000000000341},{"name":"E4","midi":64,"time":369,"velocity":0.7480314960629921,"duration":0.3375000000000341},{"name":"E4","midi":64,"time":369.37500000000006,"velocity":0.7480314960629921,"duration":0.33749999999997726},{"name":"B4","midi":71,"time":369.37500000000006,"velocity":0.7480314960629921,"duration":0.33749999999997726},{"name":"A5","midi":81,"time":369.37500000000006,"velocity":0.7480314960629921,"duration":0.33749999999997726},{"name":"E5","midi":76,"time":369.37500000000006,"velocity":0.7480314960629921,"duration":0.33749999999997726},{"name":"E5","midi":76,"time":369.37500000000006,"velocity":0.7480314960629921,"duration":0.33749999999997726},{"name":"G#5","midi":80,"time":369.75000000000006,"velocity":0.7480314960629921,"duration":0.33749999999997726},{"name":"E4","midi":64,"time":369.75000000000006,"velocity":0.7480314960629921,"duration":0.33749999999997726},{"name":"B4","midi":71,"time":369.75000000000006,"velocity":0.7480314960629921,"duration":0.33749999999997726},{"name":"E5","midi":76,"time":369.75000000000006,"velocity":0.7480314960629921,"duration":0.33749999999997726},{"name":"B4","midi":71,"time":370.12500000000006,"velocity":0.7480314960629921,"duration":0.33749999999997726},{"name":"E4","midi":64,"time":370.12500000000006,"velocity":0.7480314960629921,"duration":0.33749999999997726},{"name":"E5","midi":76,"time":370.12500000000006,"velocity":0.7480314960629921,"duration":0.33749999999997726},{"name":"B4","midi":71,"time":370.50000000000006,"velocity":0.7480314960629921,"duration":0.33749999999997726},{"name":"E5","midi":76,"time":370.50000000000006,"velocity":0.7480314960629921,"duration":0.33749999999997726},{"name":"E4","midi":64,"time":370.50000000000006,"velocity":0.7480314960629921,"duration":0.33749999999997726},{"name":"G#5","midi":80,"time":370.87500000000006,"velocity":0.7480314960629921,"duration":0.33749999999997726},{"name":"E4","midi":64,"time":370.87500000000006,"velocity":0.7480314960629921,"duration":0.33749999999997726},{"name":"B4","midi":71,"time":370.87500000000006,"velocity":0.7480314960629921,"duration":0.33749999999997726},{"name":"E5","midi":76,"time":370.87500000000006,"velocity":0.7480314960629921,"duration":0.33749999999997726},{"name":"E4","midi":64,"time":371.25000000000006,"velocity":0.7480314960629921,"duration":0.33749999999997726},{"name":"G#5","midi":80,"time":371.25000000000006,"velocity":0.7480314960629921,"duration":0.33749999999997726},{"name":"E5","midi":76,"time":371.25000000000006,"velocity":0.7480314960629921,"duration":0.33749999999997726},{"name":"B4","midi":71,"time":371.25000000000006,"velocity":0.7480314960629921,"duration":0.33749999999997726},{"name":"E4","midi":64,"time":371.62500000000006,"velocity":0.7480314960629921,"duration":0.33749999999997726},{"name":"B4","midi":71,"time":371.62500000000006,"velocity":0.7480314960629921,"duration":0.33749999999997726},{"name":"E5","midi":76,"time":371.62500000000006,"velocity":0.7480314960629921,"duration":0.33749999999997726},{"name":"E5","midi":76,"time":372.00000000000006,"velocity":0.7480314960629921,"duration":0.33749999999997726},{"name":"B4","midi":71,"time":372.00000000000006,"velocity":0.7480314960629921,"duration":0.33749999999997726},{"name":"E4","midi":64,"time":372.00000000000006,"velocity":0.7480314960629921,"duration":0.33749999999997726},{"name":"E4","midi":64,"time":372.37500000000006,"velocity":0.7480314960629921,"duration":0.33749999999997726},{"name":"B4","midi":71,"time":372.37500000000006,"velocity":0.7480314960629921,"duration":0.33749999999997726},{"name":"E5","midi":76,"time":372.37500000000006,"velocity":0.7480314960629921,"duration":0.33749999999997726},{"name":"G#5","midi":80,"time":372.37500000000006,"velocity":0.7480314960629921,"duration":0.33749999999997726},{"name":"G#5","midi":80,"time":372.75000000000006,"velocity":0.7480314960629921,"duration":0.33749999999997726},{"name":"E5","midi":76,"time":372.75000000000006,"velocity":0.7480314960629921,"duration":0.33749999999997726},{"name":"B4","midi":71,"time":372.75000000000006,"velocity":0.7480314960629921,"duration":0.33749999999997726},{"name":"E4","midi":64,"time":372.75000000000006,"velocity":0.7480314960629921,"duration":0.33749999999997726},{"name":"B4","midi":71,"time":373.12500000000006,"velocity":0.7480314960629921,"duration":0.33749999999997726},{"name":"E5","midi":76,"time":373.12500000000006,"velocity":0.7480314960629921,"duration":0.33749999999997726},{"name":"E4","midi":64,"time":373.12500000000006,"velocity":0.7480314960629921,"duration":0.33749999999997726},{"name":"B4","midi":71,"time":373.50000000000006,"velocity":0.7480314960629921,"duration":0.33749999999997726},{"name":"E4","midi":64,"time":373.50000000000006,"velocity":0.7480314960629921,"duration":0.33749999999997726},{"name":"E5","midi":76,"time":373.50000000000006,"velocity":0.7480314960629921,"duration":0.33749999999997726},{"name":"G#5","midi":80,"time":373.87500000000006,"velocity":0.7480314960629921,"duration":0.33749999999997726},{"name":"E5","midi":76,"time":373.87500000000006,"velocity":0.7480314960629921,"duration":0.33749999999997726},{"name":"B4","midi":71,"time":373.87500000000006,"velocity":0.7480314960629921,"duration":0.33749999999997726},{"name":"E4","midi":64,"time":373.87500000000006,"velocity":0.7480314960629921,"duration":0.33749999999997726},{"name":"B4","midi":71,"time":374.25000000000006,"velocity":0.7480314960629921,"duration":0.33749999999997726},{"name":"G#5","midi":80,"time":374.25000000000006,"velocity":0.7480314960629921,"duration":0.33749999999997726},{"name":"E4","midi":64,"time":374.25000000000006,"velocity":0.7480314960629921,"duration":0.33749999999997726},{"name":"E5","midi":76,"time":374.25000000000006,"velocity":0.7480314960629921,"duration":0.33749999999997726},{"name":"E4","midi":64,"time":374.62500000000006,"velocity":0.7480314960629921,"duration":0.33749999999997726},{"name":"B4","midi":71,"time":374.62500000000006,"velocity":0.7480314960629921,"duration":0.33749999999997726},{"name":"E5","midi":76,"time":374.62500000000006,"velocity":0.7480314960629921,"duration":0.33749999999997726},{"name":"A4","midi":69,"time":375.00000000000006,"velocity":0.7480314960629921,"duration":0.33749999999997726},{"name":"B3","midi":59,"time":375.00000000000006,"velocity":0.7480314960629921,"duration":0.33749999999997726},{"name":"F#4","midi":66,"time":375.00000000000006,"velocity":0.7480314960629921,"duration":0.33749999999997726},{"name":"D5","midi":74,"time":375.00000000000006,"velocity":0.7480314960629921,"duration":0.33749999999997726},{"name":"D5","midi":74,"time":375.37500000000006,"velocity":0.7480314960629921,"duration":0.33749999999997726},{"name":"F#4","midi":66,"time":375.37500000000006,"velocity":0.7480314960629921,"duration":0.33749999999997726},{"name":"B3","midi":59,"time":375.37500000000006,"velocity":0.7480314960629921,"duration":0.33749999999997726},{"name":"A4","midi":69,"time":375.37500000000006,"velocity":0.7480314960629921,"duration":0.33749999999997726},{"name":"B3","midi":59,"time":375.75000000000006,"velocity":0.7480314960629921,"duration":0.33749999999997726},{"name":"F#5","midi":78,"time":375.75000000000006,"velocity":0.7480314960629921,"duration":0.33749999999997726},{"name":"D5","midi":74,"time":375.75000000000006,"velocity":0.7480314960629921,"duration":0.33749999999997726},{"name":"A4","midi":69,"time":375.75000000000006,"velocity":0.7480314960629921,"duration":0.33749999999997726},{"name":"F#4","midi":66,"time":375.75000000000006,"velocity":0.7480314960629921,"duration":0.33749999999997726},{"name":"B3","midi":59,"time":376.12500000000006,"velocity":0.7480314960629921,"duration":0.33749999999997726},{"name":"F#4","midi":66,"time":376.12500000000006,"velocity":0.7480314960629921,"duration":0.33749999999997726},{"name":"A4","midi":69,"time":376.12500000000006,"velocity":0.7480314960629921,"duration":0.33749999999997726},{"name":"D5","midi":74,"time":376.12500000000006,"velocity":0.7480314960629921,"duration":0.33749999999997726},{"name":"B3","midi":59,"time":376.50000000000006,"velocity":0.7480314960629921,"duration":0.33749999999997726},{"name":"F#4","midi":66,"time":376.50000000000006,"velocity":0.7480314960629921,"duration":0.33749999999997726},{"name":"A4","midi":69,"time":376.50000000000006,"velocity":0.7480314960629921,"duration":0.33749999999997726},{"name":"D5","midi":74,"time":376.50000000000006,"velocity":0.7480314960629921,"duration":0.33749999999997726},{"name":"F#5","midi":78,"time":376.87500000000006,"velocity":0.7480314960629921,"duration":0.33749999999997726},{"name":"A4","midi":69,"time":376.87500000000006,"velocity":0.7480314960629921,"duration":0.33749999999997726},{"name":"D5","midi":74,"time":376.87500000000006,"velocity":0.7480314960629921,"duration":0.33749999999997726},{"name":"B3","midi":59,"time":376.87500000000006,"velocity":0.7480314960629921,"duration":0.33749999999997726},{"name":"F#4","midi":66,"time":376.87500000000006,"velocity":0.7480314960629921,"duration":0.33749999999997726},{"name":"F#4","midi":66,"time":377.25000000000006,"velocity":0.7480314960629921,"duration":0.33749999999997726},{"name":"A4","midi":69,"time":377.25000000000006,"velocity":0.7480314960629921,"duration":0.33749999999997726},{"name":"F#5","midi":78,"time":377.25000000000006,"velocity":0.7480314960629921,"duration":0.33749999999997726},{"name":"D5","midi":74,"time":377.25000000000006,"velocity":0.7480314960629921,"duration":0.33749999999997726},{"name":"B3","midi":59,"time":377.25000000000006,"velocity":0.7480314960629921,"duration":0.33749999999997726},{"name":"A4","midi":69,"time":377.62500000000006,"velocity":0.7480314960629921,"duration":0.33749999999997726},{"name":"B3","midi":59,"time":377.62500000000006,"velocity":0.7480314960629921,"duration":0.33749999999997726},{"name":"F#4","midi":66,"time":377.62500000000006,"velocity":0.7480314960629921,"duration":0.33749999999997726},{"name":"D5","midi":74,"time":377.62500000000006,"velocity":0.7480314960629921,"duration":0.33749999999997726},{"name":"D5","midi":74,"time":378.00000000000006,"velocity":0.7480314960629921,"duration":0.33749999999997726},{"name":"B3","midi":59,"time":378.00000000000006,"velocity":0.7480314960629921,"duration":0.33749999999997726},{"name":"F#4","midi":66,"time":378.00000000000006,"velocity":0.7480314960629921,"duration":0.33749999999997726},{"name":"A4","midi":69,"time":378.00000000000006,"velocity":0.7480314960629921,"duration":0.33749999999997726},{"name":"D5","midi":74,"time":378.37500000000006,"velocity":0.7480314960629921,"duration":0.33749999999997726},{"name":"A4","midi":69,"time":378.37500000000006,"velocity":0.7480314960629921,"duration":0.33749999999997726},{"name":"F#5","midi":78,"time":378.37500000000006,"velocity":0.7480314960629921,"duration":0.33749999999997726},{"name":"B3","midi":59,"time":378.37500000000006,"velocity":0.7480314960629921,"duration":0.33749999999997726},{"name":"F#4","midi":66,"time":378.37500000000006,"velocity":0.7480314960629921,"duration":0.33749999999997726},{"name":"D5","midi":74,"time":378.75000000000006,"velocity":0.7480314960629921,"duration":0.33749999999997726},{"name":"F#5","midi":78,"time":378.75000000000006,"velocity":0.7480314960629921,"duration":0.33749999999997726},{"name":"F#4","midi":66,"time":378.75000000000006,"velocity":0.7480314960629921,"duration":0.33749999999997726},{"name":"B3","midi":59,"time":378.75000000000006,"velocity":0.7480314960629921,"duration":0.33749999999997726},{"name":"A4","midi":69,"time":378.75000000000006,"velocity":0.7480314960629921,"duration":0.33749999999997726},{"name":"B3","midi":59,"time":379.12500000000006,"velocity":0.7480314960629921,"duration":0.33749999999997726},{"name":"F#4","midi":66,"time":379.12500000000006,"velocity":0.7480314960629921,"duration":0.33749999999997726},{"name":"A4","midi":69,"time":379.12500000000006,"velocity":0.7480314960629921,"duration":0.33749999999997726},{"name":"D5","midi":74,"time":379.12500000000006,"velocity":0.7480314960629921,"duration":0.33749999999997726},{"name":"B3","midi":59,"time":379.50000000000006,"velocity":0.7480314960629921,"duration":0.33749999999997726},{"name":"A4","midi":69,"time":379.50000000000006,"velocity":0.7480314960629921,"duration":0.33749999999997726},{"name":"D5","midi":74,"time":379.50000000000006,"velocity":0.7480314960629921,"duration":0.33749999999997726},{"name":"F#4","midi":66,"time":379.50000000000006,"velocity":0.7480314960629921,"duration":0.33749999999997726},{"name":"D5","midi":74,"time":379.87500000000006,"velocity":0.7480314960629921,"duration":0.33749999999997726},{"name":"F#5","midi":78,"time":379.87500000000006,"velocity":0.7480314960629921,"duration":0.33749999999997726},{"name":"A4","midi":69,"time":379.87500000000006,"velocity":0.7480314960629921,"duration":0.33749999999997726},{"name":"F#4","midi":66,"time":379.87500000000006,"velocity":0.7480314960629921,"duration":0.33749999999997726},{"name":"B3","midi":59,"time":379.87500000000006,"velocity":0.7480314960629921,"duration":0.33749999999997726},{"name":"A4","midi":69,"time":380.25000000000006,"velocity":0.7480314960629921,"duration":0.33749999999997726},{"name":"F#4","midi":66,"time":380.25000000000006,"velocity":0.7480314960629921,"duration":0.33749999999997726},{"name":"B3","midi":59,"time":380.25000000000006,"velocity":0.7480314960629921,"duration":0.33749999999997726},{"name":"F#5","midi":78,"time":380.25000000000006,"velocity":0.7480314960629921,"duration":0.33749999999997726},{"name":"D5","midi":74,"time":380.25000000000006,"velocity":0.7480314960629921,"duration":0.33749999999997726},{"name":"B3","midi":59,"time":380.62500000000006,"velocity":0.7480314960629921,"duration":0.33749999999997726},{"name":"F#4","midi":66,"time":380.62500000000006,"velocity":0.7480314960629921,"duration":0.33749999999997726},{"name":"A4","midi":69,"time":380.62500000000006,"velocity":0.7480314960629921,"duration":0.33749999999997726},{"name":"D5","midi":74,"time":380.62500000000006,"velocity":0.7480314960629921,"duration":0.33749999999997726},{"name":"A4","midi":69,"time":381.00000000000006,"velocity":0.7480314960629921,"duration":0.33749999999997726},{"name":"D4","midi":62,"time":381.00000000000006,"velocity":0.7480314960629921,"duration":0.33749999999997726},{"name":"A4","midi":69,"time":381.37500000000006,"velocity":0.7480314960629921,"duration":0.33749999999997726},{"name":"D5","midi":74,"time":381.37500000000006,"velocity":0.7480314960629921,"duration":0.33749999999997726},{"name":"F#5","midi":78,"time":381.37500000000006,"velocity":0.7480314960629921,"duration":0.33749999999997726},{"name":"D4","midi":62,"time":381.37500000000006,"velocity":0.7480314960629921,"duration":0.33749999999997726},{"name":"D4","midi":62,"time":381.75000000000006,"velocity":0.7480314960629921,"duration":0.33749999999997726},{"name":"C#5","midi":73,"time":381.75000000000006,"velocity":0.7480314960629921,"duration":0.33749999999997726},{"name":"A4","midi":69,"time":381.75000000000006,"velocity":0.7480314960629921,"duration":0.33749999999997726},{"name":"A4","midi":69,"time":382.12500000000006,"velocity":0.7480314960629921,"duration":0.33749999999997726},{"name":"D4","midi":62,"time":382.12500000000006,"velocity":0.7480314960629921,"duration":0.33749999999997726},{"name":"D4","midi":62,"time":382.50000000000006,"velocity":0.7480314960629921,"duration":0.33749999999997726},{"name":"A4","midi":69,"time":382.50000000000006,"velocity":0.7480314960629921,"duration":0.33749999999997726},{"name":"A4","midi":69,"time":382.87500000000006,"velocity":0.7480314960629921,"duration":0.33749999999997726},{"name":"D5","midi":74,"time":382.87500000000006,"velocity":0.7480314960629921,"duration":0.33749999999997726},{"name":"D4","midi":62,"time":382.87500000000006,"velocity":0.7480314960629921,"duration":0.33749999999997726},{"name":"D4","midi":62,"time":383.25000000000006,"velocity":0.7480314960629921,"duration":0.33749999999997726},{"name":"A4","midi":69,"time":383.25000000000006,"velocity":0.7480314960629921,"duration":0.33749999999997726},{"name":"C#5","midi":73,"time":383.25000000000006,"velocity":0.7480314960629921,"duration":0.33749999999997726},{"name":"D4","midi":62,"time":383.62500000000006,"velocity":0.7480314960629921,"duration":0.33749999999997726},{"name":"A4","midi":69,"time":383.62500000000006,"velocity":0.7480314960629921,"duration":0.33749999999997726},{"name":"D4","midi":62,"time":384.00000000000006,"velocity":0.7480314960629921,"duration":0.33749999999997726},{"name":"A4","midi":69,"time":384.00000000000006,"velocity":0.7480314960629921,"duration":0.33749999999997726},{"name":"A4","midi":69,"time":384.37500000000006,"velocity":0.7480314960629921,"duration":0.33749999999997726},{"name":"D4","midi":62,"time":384.37500000000006,"velocity":0.7480314960629921,"duration":0.33749999999997726},{"name":"C#5","midi":73,"time":384.37500000000006,"velocity":0.7480314960629921,"duration":0.33749999999997726},{"name":"D4","midi":62,"time":384.75000000000006,"velocity":0.7480314960629921,"duration":0.33749999999997726},{"name":"A4","midi":69,"time":384.75000000000006,"velocity":0.7480314960629921,"duration":0.33749999999997726},{"name":"C#5","midi":73,"time":384.75000000000006,"velocity":0.7480314960629921,"duration":0.33749999999997726},{"name":"A4","midi":69,"time":385.12500000000006,"velocity":0.7480314960629921,"duration":0.33749999999997726},{"name":"D4","midi":62,"time":385.12500000000006,"velocity":0.7480314960629921,"duration":0.33749999999997726},{"name":"A4","midi":69,"time":385.50000000000006,"velocity":0.7480314960629921,"duration":0.33749999999997726},{"name":"D4","midi":62,"time":385.50000000000006,"velocity":0.7480314960629921,"duration":0.33749999999997726},{"name":"C#5","midi":73,"time":385.87500000000006,"velocity":0.7480314960629921,"duration":0.33749999999997726},{"name":"A4","midi":69,"time":385.87500000000006,"velocity":0.7480314960629921,"duration":0.33749999999997726},{"name":"D4","midi":62,"time":385.87500000000006,"velocity":0.7480314960629921,"duration":0.33749999999997726},{"name":"D4","midi":62,"time":386.25000000000006,"velocity":0.7480314960629921,"duration":0.33749999999997726},{"name":"C#5","midi":73,"time":386.25000000000006,"velocity":0.7480314960629921,"duration":0.33749999999997726},{"name":"A4","midi":69,"time":386.25000000000006,"velocity":0.7480314960629921,"duration":0.33749999999997726},{"name":"D4","midi":62,"time":386.62500000000006,"velocity":0.7480314960629921,"duration":0.33749999999997726},{"name":"A4","midi":69,"time":386.62500000000006,"velocity":0.7480314960629921,"duration":0.33749999999997726},{"name":"F#5","midi":78,"time":387.00000000000006,"velocity":0.7480314960629921,"duration":0.33749999999997726},{"name":"A4","midi":69,"time":387.00000000000006,"velocity":0.7480314960629921,"duration":0.33749999999997726},{"name":"E4","midi":64,"time":387.00000000000006,"velocity":0.7480314960629921,"duration":0.33749999999997726},{"name":"A3","midi":57,"time":387.00000000000006,"velocity":0.7480314960629921,"duration":0.33749999999997726},{"name":"C#5","midi":73,"time":387.00000000000006,"velocity":0.7480314960629921,"duration":0.33749999999997726},{"name":"E4","midi":64,"time":387.37500000000006,"velocity":0.7480314960629921,"duration":0.33749999999997726},{"name":"A4","midi":69,"time":387.37500000000006,"velocity":0.7480314960629921,"duration":0.33749999999997726},{"name":"A3","midi":57,"time":387.37500000000006,"velocity":0.7480314960629921,"duration":0.33749999999997726},{"name":"C#5","midi":73,"time":387.37500000000006,"velocity":0.7480314960629921,"duration":0.33749999999997726},{"name":"F#5","midi":78,"time":387.37500000000006,"velocity":0.7480314960629921,"duration":0.33749999999997726},{"name":"A4","midi":69,"time":387.75000000000006,"velocity":0.7480314960629921,"duration":0.5062500000000227},{"name":"E5","midi":76,"time":387.75000000000006,"velocity":0.7480314960629921,"duration":0.5062500000000227},{"name":"C#5","midi":73,"time":387.75000000000006,"velocity":0.7480314960629921,"duration":0.5062500000000227},{"name":"E4","midi":64,"time":387.75000000000006,"velocity":0.7480314960629921,"duration":0.5062500000000227},{"name":"A3","midi":57,"time":387.75000000000006,"velocity":0.7480314960629921,"duration":0.5062500000000227},{"name":"A3","midi":57,"time":388.31250000000006,"velocity":0.7480314960629921,"duration":0.16874999999998863},{"name":"E4","midi":64,"time":388.31250000000006,"velocity":0.7480314960629921,"duration":0.16874999999998863},{"name":"A4","midi":69,"time":388.31250000000006,"velocity":0.7480314960629921,"duration":0.16874999999998863},{"name":"C#5","midi":73,"time":388.31250000000006,"velocity":0.7480314960629921,"duration":0.16874999999998863},{"name":"E5","midi":76,"time":388.31250000000006,"velocity":0.7480314960629921,"duration":0.16874999999998863},{"name":"E4","midi":64,"time":388.50000000000006,"velocity":0.7480314960629921,"duration":0.33749999999997726},{"name":"A3","midi":57,"time":388.50000000000006,"velocity":0.7480314960629921,"duration":0.33749999999997726},{"name":"A4","midi":69,"time":388.50000000000006,"velocity":0.7480314960629921,"duration":0.33749999999997726},{"name":"C#5","midi":73,"time":388.50000000000006,"velocity":0.7480314960629921,"duration":0.33749999999997726},{"name":"F#5","midi":78,"time":388.50000000000006,"velocity":0.7480314960629921,"duration":0.33749999999997726},{"name":"A3","midi":57,"time":388.87500000000006,"velocity":0.7480314960629921,"duration":0.33749999999997726},{"name":"F#5","midi":78,"time":388.87500000000006,"velocity":0.7480314960629921,"duration":0.33749999999997726},{"name":"E4","midi":64,"time":388.87500000000006,"velocity":0.7480314960629921,"duration":0.33749999999997726},{"name":"A4","midi":69,"time":388.87500000000006,"velocity":0.7480314960629921,"duration":0.33749999999997726},{"name":"C#5","midi":73,"time":388.87500000000006,"velocity":0.7480314960629921,"duration":0.33749999999997726},{"name":"A3","midi":57,"time":389.25000000000006,"velocity":0.7480314960629921,"duration":0.5062500000000227},{"name":"E4","midi":64,"time":389.25000000000006,"velocity":0.7480314960629921,"duration":0.5062500000000227},{"name":"A4","midi":69,"time":389.25000000000006,"velocity":0.7480314960629921,"duration":0.5062500000000227},{"name":"C#5","midi":73,"time":389.25000000000006,"velocity":0.7480314960629921,"duration":0.5062500000000227},{"name":"E5","midi":76,"time":389.25000000000006,"velocity":0.7480314960629921,"duration":0.5062500000000227},{"name":"C#5","midi":73,"time":389.81250000000006,"velocity":0.7480314960629921,"duration":0.16874999999998863},{"name":"A4","midi":69,"time":389.81250000000006,"velocity":0.7480314960629921,"duration":0.16874999999998863},{"name":"E4","midi":64,"time":389.81250000000006,"velocity":0.7480314960629921,"duration":0.16874999999998863},{"name":"A3","midi":57,"time":389.81250000000006,"velocity":0.7480314960629921,"duration":0.16874999999998863},{"name":"E5","midi":76,"time":389.81250000000006,"velocity":0.7480314960629921,"duration":0.16874999999998863},{"name":"A3","midi":57,"time":390.00000000000006,"velocity":0.7480314960629921,"duration":0.33749999999997726},{"name":"A4","midi":69,"time":390.00000000000006,"velocity":0.7480314960629921,"duration":0.33749999999997726},{"name":"F#5","midi":78,"time":390.00000000000006,"velocity":0.7480314960629921,"duration":0.33749999999997726},{"name":"E4","midi":64,"time":390.00000000000006,"velocity":0.7480314960629921,"duration":0.33749999999997726},{"name":"C#5","midi":73,"time":390.00000000000006,"velocity":0.7480314960629921,"duration":0.33749999999997726},{"name":"E4","midi":64,"time":390.37500000000006,"velocity":0.7480314960629921,"duration":0.33749999999997726},{"name":"A3","midi":57,"time":390.37500000000006,"velocity":0.7480314960629921,"duration":0.33749999999997726},{"name":"C#5","midi":73,"time":390.37500000000006,"velocity":0.7480314960629921,"duration":0.33749999999997726},{"name":"F#5","midi":78,"time":390.37500000000006,"velocity":0.7480314960629921,"duration":0.33749999999997726},{"name":"A4","midi":69,"time":390.37500000000006,"velocity":0.7480314960629921,"duration":0.33749999999997726},{"name":"E4","midi":64,"time":390.75000000000006,"velocity":0.7480314960629921,"duration":0.5062500000000227},{"name":"A4","midi":69,"time":390.75000000000006,"velocity":0.7480314960629921,"duration":0.5062500000000227},{"name":"A3","midi":57,"time":390.75000000000006,"velocity":0.7480314960629921,"duration":0.5062500000000227},{"name":"C#5","midi":73,"time":390.75000000000006,"velocity":0.7480314960629921,"duration":0.5062500000000227},{"name":"E5","midi":76,"time":390.75000000000006,"velocity":0.7480314960629921,"duration":0.5062500000000227},{"name":"E5","midi":76,"time":391.31250000000006,"velocity":0.7480314960629921,"duration":0.16874999999998863},{"name":"C#5","midi":73,"time":391.31250000000006,"velocity":0.7480314960629921,"duration":0.16874999999998863},{"name":"A4","midi":69,"time":391.31250000000006,"velocity":0.7480314960629921,"duration":0.16874999999998863},{"name":"E4","midi":64,"time":391.31250000000006,"velocity":0.7480314960629921,"duration":0.16874999999998863},{"name":"A3","midi":57,"time":391.31250000000006,"velocity":0.7480314960629921,"duration":0.16874999999998863},{"name":"F#5","midi":78,"time":391.50000000000006,"velocity":0.7480314960629921,"duration":0.33749999999997726},{"name":"C#5","midi":73,"time":391.50000000000006,"velocity":0.7480314960629921,"duration":0.33749999999997726},{"name":"E4","midi":64,"time":391.50000000000006,"velocity":0.7480314960629921,"duration":0.33749999999997726},{"name":"A3","midi":57,"time":391.50000000000006,"velocity":0.7480314960629921,"duration":0.33749999999997726},{"name":"A4","midi":69,"time":391.50000000000006,"velocity":0.7480314960629921,"duration":0.33749999999997726},{"name":"A3","midi":57,"time":391.87500000000006,"velocity":0.7480314960629921,"duration":0.33749999999997726},{"name":"E4","midi":64,"time":391.87500000000006,"velocity":0.7480314960629921,"duration":0.33749999999997726},{"name":"A4","midi":69,"time":391.87500000000006,"velocity":0.7480314960629921,"duration":0.33749999999997726},{"name":"C#5","midi":73,"time":391.87500000000006,"velocity":0.7480314960629921,"duration":0.33749999999997726},{"name":"F#5","midi":78,"time":391.87500000000006,"velocity":0.7480314960629921,"duration":0.33749999999997726},{"name":"C#5","midi":73,"time":392.25000000000006,"velocity":0.7480314960629921,"duration":0.5062500000000227},{"name":"A4","midi":69,"time":392.25000000000006,"velocity":0.7480314960629921,"duration":0.5062500000000227},{"name":"E4","midi":64,"time":392.25000000000006,"velocity":0.7480314960629921,"duration":0.5062500000000227},{"name":"A3","midi":57,"time":392.25000000000006,"velocity":0.7480314960629921,"duration":0.5062500000000227},{"name":"E5","midi":76,"time":392.25000000000006,"velocity":0.7480314960629921,"duration":0.5062500000000227},{"name":"E5","midi":76,"time":392.81250000000006,"velocity":0.7480314960629921,"duration":0.16874999999998863},{"name":"C#5","midi":73,"time":392.81250000000006,"velocity":0.7480314960629921,"duration":0.16874999999998863},{"name":"A4","midi":69,"time":392.81250000000006,"velocity":0.7480314960629921,"duration":0.16874999999998863},{"name":"E4","midi":64,"time":392.81250000000006,"velocity":0.7480314960629921,"duration":0.16874999999998863},{"name":"A3","midi":57,"time":392.81250000000006,"velocity":0.7480314960629921,"duration":0.16874999999998863},{"name":"D4","midi":62,"time":393.00000000000006,"velocity":0.7480314960629921,"duration":0.33749999999997726},{"name":"F#5","midi":78,"time":393.00000000000006,"velocity":0.7480314960629921,"duration":0.33749999999997726},{"name":"A4","midi":69,"time":393.00000000000006,"velocity":0.7480314960629921,"duration":0.33749999999997726},{"name":"D5","midi":74,"time":393.00000000000006,"velocity":0.7480314960629921,"duration":0.33749999999997726},{"name":"F#5","midi":78,"time":393.37500000000006,"velocity":0.7480314960629921,"duration":0.33749999999997726},{"name":"D5","midi":74,"time":393.37500000000006,"velocity":0.7480314960629921,"duration":0.33749999999997726},{"name":"A4","midi":69,"time":393.37500000000006,"velocity":0.7480314960629921,"duration":0.33749999999997726},{"name":"D4","midi":62,"time":393.37500000000006,"velocity":0.7480314960629921,"duration":0.33749999999997726},{"name":"D4","midi":62,"time":393.75000000000006,"velocity":0.7480314960629921,"duration":0.5062500000000227},{"name":"A4","midi":69,"time":393.75000000000006,"velocity":0.7480314960629921,"duration":0.5062500000000227},{"name":"D5","midi":74,"time":393.75000000000006,"velocity":0.7480314960629921,"duration":0.5062500000000227},{"name":"E5","midi":76,"time":393.75000000000006,"velocity":0.7480314960629921,"duration":0.5062500000000227},{"name":"E5","midi":76,"time":394.31250000000006,"velocity":0.7480314960629921,"duration":0.16874999999998863},{"name":"D5","midi":74,"time":394.31250000000006,"velocity":0.7480314960629921,"duration":0.16874999999998863},{"name":"A4","midi":69,"time":394.31250000000006,"velocity":0.7480314960629921,"duration":0.16874999999998863},{"name":"D4","midi":62,"time":394.31250000000006,"velocity":0.7480314960629921,"duration":0.16874999999998863},{"name":"F#5","midi":78,"time":394.50000000000006,"velocity":0.7480314960629921,"duration":0.33749999999997726},{"name":"D4","midi":62,"time":394.50000000000006,"velocity":0.7480314960629921,"duration":0.33749999999997726},{"name":"A4","midi":69,"time":394.50000000000006,"velocity":0.7480314960629921,"duration":0.33749999999997726},{"name":"D5","midi":74,"time":394.50000000000006,"velocity":0.7480314960629921,"duration":0.33749999999997726},{"name":"A4","midi":69,"time":394.87500000000006,"velocity":0.7480314960629921,"duration":0.33749999999997726},{"name":"D5","midi":74,"time":394.87500000000006,"velocity":0.7480314960629921,"duration":0.33749999999997726},{"name":"F#5","midi":78,"time":394.87500000000006,"velocity":0.7480314960629921,"duration":0.33749999999997726},{"name":"D4","midi":62,"time":394.87500000000006,"velocity":0.7480314960629921,"duration":0.33749999999997726},{"name":"D5","midi":74,"time":395.25000000000006,"velocity":0.7480314960629921,"duration":0.5062500000000227},{"name":"E5","midi":76,"time":395.25000000000006,"velocity":0.7480314960629921,"duration":0.5062500000000227},{"name":"A4","midi":69,"time":395.25000000000006,"velocity":0.7480314960629921,"duration":0.5062500000000227},{"name":"D4","midi":62,"time":395.25000000000006,"velocity":0.7480314960629921,"duration":0.5062500000000227},{"name":"D4","midi":62,"time":395.81250000000006,"velocity":0.7480314960629921,"duration":0.16874999999998863},{"name":"A4","midi":69,"time":395.81250000000006,"velocity":0.7480314960629921,"duration":0.16874999999998863},{"name":"D5","midi":74,"time":395.81250000000006,"velocity":0.7480314960629921,"duration":0.16874999999998863},{"name":"E5","midi":76,"time":395.81250000000006,"velocity":0.7480314960629921,"duration":0.16874999999998863},{"name":"D4","midi":62,"time":396.00000000000006,"velocity":0.7480314960629921,"duration":0.33749999999997726},{"name":"A4","midi":69,"time":396.00000000000006,"velocity":0.7480314960629921,"duration":0.33749999999997726},{"name":"D5","midi":74,"time":396.00000000000006,"velocity":0.7480314960629921,"duration":0.33749999999997726},{"name":"E5","midi":76,"time":396.00000000000006,"velocity":0.7480314960629921,"duration":0.33749999999997726},{"name":"D4","midi":62,"time":396.37500000000006,"velocity":0.7480314960629921,"duration":0.33749999999997726},{"name":"D5","midi":74,"time":396.37500000000006,"velocity":0.7480314960629921,"duration":0.33749999999997726},{"name":"E5","midi":76,"time":396.37500000000006,"velocity":0.7480314960629921,"duration":0.33749999999997726},{"name":"A4","midi":69,"time":396.37500000000006,"velocity":0.7480314960629921,"duration":0.33749999999997726},{"name":"D4","midi":62,"time":396.75000000000006,"velocity":0.7480314960629921,"duration":0.5062500000000227},{"name":"A4","midi":69,"time":396.75000000000006,"velocity":0.7480314960629921,"duration":0.5062500000000227},{"name":"D5","midi":74,"time":396.75000000000006,"velocity":0.7480314960629921,"duration":0.5062500000000227},{"name":"E5","midi":76,"time":396.75000000000006,"velocity":0.7480314960629921,"duration":0.5062500000000227},{"name":"D4","midi":62,"time":397.31250000000006,"velocity":0.7480314960629921,"duration":0.16874999999998863},{"name":"A4","midi":69,"time":397.31250000000006,"velocity":0.7480314960629921,"duration":0.16874999999998863},{"name":"D5","midi":74,"time":397.31250000000006,"velocity":0.7480314960629921,"duration":0.16874999999998863},{"name":"E5","midi":76,"time":397.31250000000006,"velocity":0.7480314960629921,"duration":0.16874999999998863},{"name":"D4","midi":62,"time":397.50000000000006,"velocity":0.7480314960629921,"duration":0.33749999999997726},{"name":"F#5","midi":78,"time":397.50000000000006,"velocity":0.7480314960629921,"duration":0.33749999999997726},{"name":"D5","midi":74,"time":397.50000000000006,"velocity":0.7480314960629921,"duration":0.33749999999997726},{"name":"A4","midi":69,"time":397.50000000000006,"velocity":0.7480314960629921,"duration":0.33749999999997726},{"name":"D4","midi":62,"time":397.87500000000006,"velocity":0.7480314960629921,"duration":0.33749999999997726},{"name":"A4","midi":69,"time":397.87500000000006,"velocity":0.7480314960629921,"duration":0.33749999999997726},{"name":"D5","midi":74,"time":397.87500000000006,"velocity":0.7480314960629921,"duration":0.33749999999997726},{"name":"F#5","midi":78,"time":397.87500000000006,"velocity":0.7480314960629921,"duration":0.33749999999997726},{"name":"D5","midi":74,"time":398.25000000000006,"velocity":0.7480314960629921,"duration":0.5062500000000227},{"name":"E5","midi":76,"time":398.25000000000006,"velocity":0.7480314960629921,"duration":0.5062500000000227},{"name":"D4","midi":62,"time":398.25000000000006,"velocity":0.7480314960629921,"duration":0.5062500000000227},{"name":"A4","midi":69,"time":398.25000000000006,"velocity":0.7480314960629921,"duration":0.5062500000000227},{"name":"D4","midi":62,"time":398.81250000000006,"velocity":0.7480314960629921,"duration":0.16874999999998863},{"name":"A4","midi":69,"time":398.81250000000006,"velocity":0.7480314960629921,"duration":0.16874999999998863},{"name":"D5","midi":74,"time":398.81250000000006,"velocity":0.7480314960629921,"duration":0.16874999999998863},{"name":"E5","midi":76,"time":398.81250000000006,"velocity":0.7480314960629921,"duration":0.16874999999998863},{"name":"B3","midi":59,"time":399.00000000000006,"velocity":0.7480314960629921,"duration":0.33749999999997726},{"name":"F#5","midi":78,"time":399.00000000000006,"velocity":0.7480314960629921,"duration":0.33749999999997726},{"name":"D5","midi":74,"time":399.00000000000006,"velocity":0.7480314960629921,"duration":0.33749999999997726},{"name":"B4","midi":71,"time":399.00000000000006,"velocity":0.7480314960629921,"duration":0.33749999999997726},{"name":"F#4","midi":66,"time":399.00000000000006,"velocity":0.7480314960629921,"duration":0.33749999999997726},{"name":"D5","midi":74,"time":399.37500000000006,"velocity":0.7480314960629921,"duration":0.33749999999997726},{"name":"B4","midi":71,"time":399.37500000000006,"velocity":0.7480314960629921,"duration":0.33749999999997726},{"name":"F#4","midi":66,"time":399.37500000000006,"velocity":0.7480314960629921,"duration":0.33749999999997726},{"name":"B3","midi":59,"time":399.37500000000006,"velocity":0.7480314960629921,"duration":0.33749999999997726},{"name":"F#5","midi":78,"time":399.37500000000006,"velocity":0.7480314960629921,"duration":0.33749999999997726},{"name":"B3","midi":59,"time":399.75000000000006,"velocity":0.7480314960629921,"duration":0.5062500000000227},{"name":"E5","midi":76,"time":399.75000000000006,"velocity":0.7480314960629921,"duration":0.5062500000000227},{"name":"D5","midi":74,"time":399.75000000000006,"velocity":0.7480314960629921,"duration":0.5062500000000227},{"name":"B4","midi":71,"time":399.75000000000006,"velocity":0.7480314960629921,"duration":0.5062500000000227},{"name":"F#4","midi":66,"time":399.75000000000006,"velocity":0.7480314960629921,"duration":0.5062500000000227},{"name":"F#4","midi":66,"time":400.31250000000006,"velocity":0.7480314960629921,"duration":0.16874999999998863},{"name":"B4","midi":71,"time":400.31250000000006,"velocity":0.7480314960629921,"duration":0.16874999999998863},{"name":"B3","midi":59,"time":400.31250000000006,"velocity":0.7480314960629921,"duration":0.16874999999998863},{"name":"E5","midi":76,"time":400.31250000000006,"velocity":0.7480314960629921,"duration":0.16874999999998863},{"name":"D5","midi":74,"time":400.31250000000006,"velocity":0.7480314960629921,"duration":0.16874999999998863},{"name":"B3","midi":59,"time":400.50000000000006,"velocity":0.7480314960629921,"duration":0.33749999999997726},{"name":"F#4","midi":66,"time":400.50000000000006,"velocity":0.7480314960629921,"duration":0.33749999999997726},{"name":"B4","midi":71,"time":400.50000000000006,"velocity":0.7480314960629921,"duration":0.33749999999997726},{"name":"D5","midi":74,"time":400.50000000000006,"velocity":0.7480314960629921,"duration":0.33749999999997726},{"name":"F#5","midi":78,"time":400.50000000000006,"velocity":0.7480314960629921,"duration":0.33749999999997726},{"name":"D5","midi":74,"time":400.87500000000006,"velocity":0.7480314960629921,"duration":0.33749999999997726},{"name":"B3","midi":59,"time":400.87500000000006,"velocity":0.7480314960629921,"duration":0.33749999999997726},{"name":"F#4","midi":66,"time":400.87500000000006,"velocity":0.7480314960629921,"duration":0.33749999999997726},{"name":"B4","midi":71,"time":400.87500000000006,"velocity":0.7480314960629921,"duration":0.33749999999997726},{"name":"F#5","midi":78,"time":400.87500000000006,"velocity":0.7480314960629921,"duration":0.33749999999997726},{"name":"B3","midi":59,"time":401.25000000000006,"velocity":0.7480314960629921,"duration":0.5062500000000227},{"name":"B4","midi":71,"time":401.25000000000006,"velocity":0.7480314960629921,"duration":0.5062500000000227},{"name":"D5","midi":74,"time":401.25000000000006,"velocity":0.7480314960629921,"duration":0.5062500000000227},{"name":"E5","midi":76,"time":401.25000000000006,"velocity":0.7480314960629921,"duration":0.5062500000000227},{"name":"F#4","midi":66,"time":401.25000000000006,"velocity":0.7480314960629921,"duration":0.5062500000000227},{"name":"E5","midi":76,"time":401.81250000000006,"velocity":0.7480314960629921,"duration":0.16874999999998863},{"name":"D5","midi":74,"time":401.81250000000006,"velocity":0.7480314960629921,"duration":0.16874999999998863},{"name":"F#4","midi":66,"time":401.81250000000006,"velocity":0.7480314960629921,"duration":0.16874999999998863},{"name":"B3","midi":59,"time":401.81250000000006,"velocity":0.7480314960629921,"duration":0.16874999999998863},{"name":"B4","midi":71,"time":401.81250000000006,"velocity":0.7480314960629921,"duration":0.16874999999998863},{"name":"C#4","midi":61,"time":402.00000000000006,"velocity":0.7480314960629921,"duration":0.33749999999997726},{"name":"G#4","midi":68,"time":402.00000000000006,"velocity":0.7480314960629921,"duration":0.33749999999997726},{"name":"B4","midi":71,"time":402.00000000000006,"velocity":0.7480314960629921,"duration":0.33749999999997726},{"name":"F#5","midi":78,"time":402.00000000000006,"velocity":0.7480314960629921,"duration":0.33749999999997726},{"name":"G#4","midi":68,"time":402.37500000000006,"velocity":0.7480314960629921,"duration":0.33749999999997726},{"name":"B4","midi":71,"time":402.37500000000006,"velocity":0.7480314960629921,"duration":0.33749999999997726},{"name":"F#5","midi":78,"time":402.37500000000006,"velocity":0.7480314960629921,"duration":0.33749999999997726},{"name":"C#4","midi":61,"time":402.37500000000006,"velocity":0.7480314960629921,"duration":0.33749999999997726},{"name":"E5","midi":76,"time":402.75000000000006,"velocity":0.7480314960629921,"duration":0.5062500000000227},{"name":"C#4","midi":61,"time":402.75000000000006,"velocity":0.7480314960629921,"duration":0.5062500000000227},{"name":"G#4","midi":68,"time":402.75000000000006,"velocity":0.7480314960629921,"duration":0.5062500000000227},{"name":"B4","midi":71,"time":402.75000000000006,"velocity":0.7480314960629921,"duration":0.5062500000000227},{"name":"E5","midi":76,"time":403.31250000000006,"velocity":0.7480314960629921,"duration":0.16874999999998863},{"name":"B4","midi":71,"time":403.31250000000006,"velocity":0.7480314960629921,"duration":0.16874999999998863},{"name":"G#4","midi":68,"time":403.31250000000006,"velocity":0.7480314960629921,"duration":0.16874999999998863},{"name":"C#4","midi":61,"time":403.31250000000006,"velocity":0.7480314960629921,"duration":0.16874999999998863},{"name":"F#5","midi":78,"time":403.50000000000006,"velocity":0.7480314960629921,"duration":0.33749999999997726},{"name":"B4","midi":71,"time":403.50000000000006,"velocity":0.7480314960629921,"duration":0.33749999999997726},{"name":"G#4","midi":68,"time":403.50000000000006,"velocity":0.7480314960629921,"duration":0.33749999999997726},{"name":"C#4","midi":61,"time":403.50000000000006,"velocity":0.7480314960629921,"duration":0.33749999999997726},{"name":"F#5","midi":78,"time":403.87500000000006,"velocity":0.7480314960629921,"duration":0.33749999999997726},{"name":"C#4","midi":61,"time":403.87500000000006,"velocity":0.7480314960629921,"duration":0.33749999999997726},{"name":"G#4","midi":68,"time":403.87500000000006,"velocity":0.7480314960629921,"duration":0.33749999999997726},{"name":"B4","midi":71,"time":403.87500000000006,"velocity":0.7480314960629921,"duration":0.33749999999997726},{"name":"E5","midi":76,"time":404.25000000000006,"velocity":0.7480314960629921,"duration":0.5062500000000227},{"name":"B4","midi":71,"time":404.25000000000006,"velocity":0.7480314960629921,"duration":0.5062500000000227},{"name":"G#4","midi":68,"time":404.25000000000006,"velocity":0.7480314960629921,"duration":0.5062500000000227},{"name":"C#4","midi":61,"time":404.25000000000006,"velocity":0.7480314960629921,"duration":0.5062500000000227},{"name":"C#4","midi":61,"time":404.81250000000006,"velocity":0.7480314960629921,"duration":0.16874999999998863},{"name":"G#4","midi":68,"time":404.81250000000006,"velocity":0.7480314960629921,"duration":0.16874999999998863},{"name":"B4","midi":71,"time":404.81250000000006,"velocity":0.7480314960629921,"duration":0.16874999999998863},{"name":"E5","midi":76,"time":404.81250000000006,"velocity":0.7480314960629921,"duration":0.16874999999998863},{"name":"F#5","midi":78,"time":405.00000000000006,"velocity":0.7480314960629921,"duration":0.33749999999997726},{"name":"D5","midi":74,"time":405.00000000000006,"velocity":0.7480314960629921,"duration":0.33749999999997726},{"name":"A4","midi":69,"time":405.00000000000006,"velocity":0.7480314960629921,"duration":0.33749999999997726},{"name":"A5","midi":81,"time":405.00000000000006,"velocity":0.7480314960629921,"duration":0.33749999999997726},{"name":"D4","midi":62,"time":405.00000000000006,"velocity":0.7480314960629921,"duration":0.33749999999997726},{"name":"F#5","midi":78,"time":405.37500000000006,"velocity":0.7480314960629921,"duration":0.33749999999997726},{"name":"A5","midi":81,"time":405.37500000000006,"velocity":0.7480314960629921,"duration":0.33749999999997726},{"name":"D4","midi":62,"time":405.37500000000006,"velocity":0.7480314960629921,"duration":0.33749999999997726},{"name":"A4","midi":69,"time":405.37500000000006,"velocity":0.7480314960629921,"duration":0.33749999999997726},{"name":"D5","midi":74,"time":405.37500000000006,"velocity":0.7480314960629921,"duration":0.33749999999997726},{"name":"A4","midi":69,"time":405.75000000000006,"velocity":0.7480314960629921,"duration":0.5062500000000227},{"name":"D5","midi":74,"time":405.75000000000006,"velocity":0.7480314960629921,"duration":0.5062500000000227},{"name":"F#5","midi":78,"time":405.75000000000006,"velocity":0.7480314960629921,"duration":0.5062500000000227},{"name":"A5","midi":81,"time":405.75000000000006,"velocity":0.7480314960629921,"duration":0.5062500000000227},{"name":"D4","midi":62,"time":405.75000000000006,"velocity":0.7480314960629921,"duration":0.5062500000000227},{"name":"D4","midi":62,"time":406.31250000000006,"velocity":0.7480314960629921,"duration":0.16874999999998863},{"name":"A4","midi":69,"time":406.31250000000006,"velocity":0.7480314960629921,"duration":0.16874999999998863},{"name":"D5","midi":74,"time":406.31250000000006,"velocity":0.7480314960629921,"duration":0.16874999999998863},{"name":"F#5","midi":78,"time":406.31250000000006,"velocity":0.7480314960629921,"duration":0.16874999999998863},{"name":"A5","midi":81,"time":406.31250000000006,"velocity":0.7480314960629921,"duration":0.16874999999998863},{"name":"A5","midi":81,"time":406.50000000000006,"velocity":0.7480314960629921,"duration":0.33749999999997726},{"name":"D5","midi":74,"time":406.50000000000006,"velocity":0.7480314960629921,"duration":0.33749999999997726},{"name":"A4","midi":69,"time":406.50000000000006,"velocity":0.7480314960629921,"duration":0.33749999999997726},{"name":"D4","midi":62,"time":406.50000000000006,"velocity":0.7480314960629921,"duration":0.33749999999997726},{"name":"F#5","midi":78,"time":406.50000000000006,"velocity":0.7480314960629921,"duration":0.33749999999997726},{"name":"D5","midi":74,"time":406.87500000000006,"velocity":0.7480314960629921,"duration":0.33749999999997726},{"name":"A5","midi":81,"time":406.87500000000006,"velocity":0.7480314960629921,"duration":0.33749999999997726},{"name":"F#5","midi":78,"time":406.87500000000006,"velocity":0.7480314960629921,"duration":0.33749999999997726},{"name":"A4","midi":69,"time":406.87500000000006,"velocity":0.7480314960629921,"duration":0.33749999999997726},{"name":"D4","midi":62,"time":406.87500000000006,"velocity":0.7480314960629921,"duration":0.33749999999997726},{"name":"D4","midi":62,"time":407.25000000000006,"velocity":0.7480314960629921,"duration":0.5062500000000227},{"name":"F#5","midi":78,"time":407.25000000000006,"velocity":0.7480314960629921,"duration":0.5062500000000227},{"name":"A5","midi":81,"time":407.25000000000006,"velocity":0.7480314960629921,"duration":0.5062500000000227},{"name":"D5","midi":74,"time":407.25000000000006,"velocity":0.7480314960629921,"duration":0.5062500000000227},{"name":"A4","midi":69,"time":407.25000000000006,"velocity":0.7480314960629921,"duration":0.5062500000000227},{"name":"D4","midi":62,"time":407.81250000000006,"velocity":0.7480314960629921,"duration":0.16874999999998863},{"name":"A4","midi":69,"time":407.81250000000006,"velocity":0.7480314960629921,"duration":0.16874999999998863},{"name":"D5","midi":74,"time":407.81250000000006,"velocity":0.7480314960629921,"duration":0.16874999999998863},{"name":"F#5","midi":78,"time":407.81250000000006,"velocity":0.7480314960629921,"duration":0.16874999999998863},{"name":"A5","midi":81,"time":407.81250000000006,"velocity":0.7480314960629921,"duration":0.16874999999998863},{"name":"A4","midi":69,"time":408.00000000000006,"velocity":0.7480314960629921,"duration":0.33749999999997726},{"name":"A5","midi":81,"time":408.00000000000006,"velocity":0.7480314960629921,"duration":0.33749999999997726},{"name":"F#5","midi":78,"time":408.00000000000006,"velocity":0.7480314960629921,"duration":0.33749999999997726},{"name":"D5","midi":74,"time":408.00000000000006,"velocity":0.7480314960629921,"duration":0.33749999999997726},{"name":"D4","midi":62,"time":408.00000000000006,"velocity":0.7480314960629921,"duration":0.33749999999997726},{"name":"A4","midi":69,"time":408.37500000000006,"velocity":0.7480314960629921,"duration":0.33749999999997726},{"name":"D5","midi":74,"time":408.37500000000006,"velocity":0.7480314960629921,"duration":0.33749999999997726},{"name":"F#5","midi":78,"time":408.37500000000006,"velocity":0.7480314960629921,"duration":0.33749999999997726},{"name":"A5","midi":81,"time":408.37500000000006,"velocity":0.7480314960629921,"duration":0.33749999999997726},{"name":"D4","midi":62,"time":408.37500000000006,"velocity":0.7480314960629921,"duration":0.33749999999997726},{"name":"A5","midi":81,"time":408.75000000000006,"velocity":0.7480314960629921,"duration":0.5062500000000227},{"name":"F#5","midi":78,"time":408.75000000000006,"velocity":0.7480314960629921,"duration":0.5062500000000227},{"name":"D5","midi":74,"time":408.75000000000006,"velocity":0.7480314960629921,"duration":0.5062500000000227},{"name":"A4","midi":69,"time":408.75000000000006,"velocity":0.7480314960629921,"duration":0.5062500000000227},{"name":"D4","midi":62,"time":408.75000000000006,"velocity":0.7480314960629921,"duration":0.5062500000000227},{"name":"F#5","midi":78,"time":409.31250000000006,"velocity":0.7480314960629921,"duration":0.16874999999998863},{"name":"D4","midi":62,"time":409.31250000000006,"velocity":0.7480314960629921,"duration":0.16874999999998863},{"name":"D5","midi":74,"time":409.31250000000006,"velocity":0.7480314960629921,"duration":0.16874999999998863},{"name":"A4","midi":69,"time":409.31250000000006,"velocity":0.7480314960629921,"duration":0.16874999999998863},{"name":"A5","midi":81,"time":409.31250000000006,"velocity":0.7480314960629921,"duration":0.16874999999998863},{"name":"D4","midi":62,"time":409.50000000000006,"velocity":0.7480314960629921,"duration":0.33749999999997726},{"name":"A4","midi":69,"time":409.50000000000006,"velocity":0.7480314960629921,"duration":0.33749999999997726},{"name":"D5","midi":74,"time":409.50000000000006,"velocity":0.7480314960629921,"duration":0.33749999999997726},{"name":"F#5","midi":78,"time":409.50000000000006,"velocity":0.7480314960629921,"duration":0.33749999999997726},{"name":"A5","midi":81,"time":409.50000000000006,"velocity":0.7480314960629921,"duration":0.33749999999997726},{"name":"D4","midi":62,"time":409.87500000000006,"velocity":0.7480314960629921,"duration":0.33749999999997726},{"name":"A4","midi":69,"time":409.87500000000006,"velocity":0.7480314960629921,"duration":0.33749999999997726},{"name":"D5","midi":74,"time":409.87500000000006,"velocity":0.7480314960629921,"duration":0.33749999999997726},{"name":"F#5","midi":78,"time":409.87500000000006,"velocity":0.7480314960629921,"duration":0.33749999999997726},{"name":"A5","midi":81,"time":409.87500000000006,"velocity":0.7480314960629921,"duration":0.33749999999997726},{"name":"D4","midi":62,"time":410.25000000000006,"velocity":0.7480314960629921,"duration":0.5062500000000227},{"name":"A5","midi":81,"time":410.25000000000006,"velocity":0.7480314960629921,"duration":0.5062500000000227},{"name":"F#5","midi":78,"time":410.25000000000006,"velocity":0.7480314960629921,"duration":0.5062500000000227},{"name":"D5","midi":74,"time":410.25000000000006,"velocity":0.7480314960629921,"duration":0.5062500000000227},{"name":"A4","midi":69,"time":410.25000000000006,"velocity":0.7480314960629921,"duration":0.5062500000000227},{"name":"D4","midi":62,"time":410.81250000000006,"velocity":0.7480314960629921,"duration":0.16874999999998863},{"name":"A4","midi":69,"time":410.81250000000006,"velocity":0.7480314960629921,"duration":0.16874999999998863},{"name":"D5","midi":74,"time":410.81250000000006,"velocity":0.7480314960629921,"duration":0.16874999999998863},{"name":"F#5","midi":78,"time":410.81250000000006,"velocity":0.7480314960629921,"duration":0.16874999999998863},{"name":"A5","midi":81,"time":410.81250000000006,"velocity":0.7480314960629921,"duration":0.16874999999998863},{"name":"C#5","midi":73,"time":411.00000000000006,"velocity":0.7480314960629921,"duration":0.33749999999997726},{"name":"A4","midi":69,"time":411.00000000000006,"velocity":0.7480314960629921,"duration":0.33749999999997726},{"name":"E4","midi":64,"time":411.00000000000006,"velocity":0.7480314960629921,"duration":0.33749999999997726},{"name":"A3","midi":57,"time":411.00000000000006,"velocity":0.7480314960629921,"duration":0.33749999999997726},{"name":"F#5","midi":78,"time":411.00000000000006,"velocity":0.7480314960629921,"duration":0.33749999999997726},{"name":"A3","midi":57,"time":411.37500000000006,"velocity":0.7480314960629921,"duration":0.33749999999997726},{"name":"E4","midi":64,"time":411.37500000000006,"velocity":0.7480314960629921,"duration":0.33749999999997726},{"name":"A4","midi":69,"time":411.37500000000006,"velocity":0.7480314960629921,"duration":0.33749999999997726},{"name":"C#5","midi":73,"time":411.37500000000006,"velocity":0.7480314960629921,"duration":0.33749999999997726},{"name":"F#5","midi":78,"time":411.37500000000006,"velocity":0.7480314960629921,"duration":0.33749999999997726},{"name":"A3","midi":57,"time":411.75000000000006,"velocity":0.7480314960629921,"duration":0.5062500000000227},{"name":"E5","midi":76,"time":411.75000000000006,"velocity":0.7480314960629921,"duration":0.5062500000000227},{"name":"C#5","midi":73,"time":411.75000000000006,"velocity":0.7480314960629921,"duration":0.5062500000000227},{"name":"A4","midi":69,"time":411.75000000000006,"velocity":0.7480314960629921,"duration":0.5062500000000227},{"name":"E4","midi":64,"time":411.75000000000006,"velocity":0.7480314960629921,"duration":0.5062500000000227},{"name":"A3","midi":57,"time":412.31250000000006,"velocity":0.7480314960629921,"duration":0.16874999999998863},{"name":"E5","midi":76,"time":412.31250000000006,"velocity":0.7480314960629921,"duration":0.16874999999998863},{"name":"A4","midi":69,"time":412.31250000000006,"velocity":0.7480314960629921,"duration":0.16874999999998863},{"name":"C#5","midi":73,"time":412.31250000000006,"velocity":0.7480314960629921,"duration":0.16874999999998863},{"name":"E4","midi":64,"time":412.31250000000006,"velocity":0.7480314960629921,"duration":0.16874999999998863},{"name":"F#5","midi":78,"time":412.50000000000006,"velocity":0.7480314960629921,"duration":0.33749999999997726},{"name":"C#5","midi":73,"time":412.50000000000006,"velocity":0.7480314960629921,"duration":0.33749999999997726},{"name":"A4","midi":69,"time":412.50000000000006,"velocity":0.7480314960629921,"duration":0.33749999999997726},{"name":"E4","midi":64,"time":412.50000000000006,"velocity":0.7480314960629921,"duration":0.33749999999997726},{"name":"A3","midi":57,"time":412.50000000000006,"velocity":0.7480314960629921,"duration":0.33749999999997726},{"name":"A3","midi":57,"time":412.87500000000006,"velocity":0.7480314960629921,"duration":0.33749999999997726},{"name":"F#5","midi":78,"time":412.87500000000006,"velocity":0.7480314960629921,"duration":0.33749999999997726},{"name":"E4","midi":64,"time":412.87500000000006,"velocity":0.7480314960629921,"duration":0.33749999999997726},{"name":"A4","midi":69,"time":412.87500000000006,"velocity":0.7480314960629921,"duration":0.33749999999997726},{"name":"C#5","midi":73,"time":412.87500000000006,"velocity":0.7480314960629921,"duration":0.33749999999997726},{"name":"A4","midi":69,"time":413.25000000000006,"velocity":0.7480314960629921,"duration":0.5062500000000227},{"name":"E4","midi":64,"time":413.25000000000006,"velocity":0.7480314960629921,"duration":0.5062500000000227},{"name":"A3","midi":57,"time":413.25000000000006,"velocity":0.7480314960629921,"duration":0.5062500000000227},{"name":"E5","midi":76,"time":413.25000000000006,"velocity":0.7480314960629921,"duration":0.5062500000000227},{"name":"C#5","midi":73,"time":413.25000000000006,"velocity":0.7480314960629921,"duration":0.5062500000000227},{"name":"E4","midi":64,"time":413.81250000000006,"velocity":0.7480314960629921,"duration":0.16874999999998863},{"name":"A3","midi":57,"time":413.81250000000006,"velocity":0.7480314960629921,"duration":0.16874999999998863},{"name":"E5","midi":76,"time":413.81250000000006,"velocity":0.7480314960629921,"duration":0.16874999999998863},{"name":"C#5","midi":73,"time":413.81250000000006,"velocity":0.7480314960629921,"duration":0.16874999999998863},{"name":"A4","midi":69,"time":413.81250000000006,"velocity":0.7480314960629921,"duration":0.16874999999998863},{"name":"A3","midi":57,"time":414.00000000000006,"velocity":0.7480314960629921,"duration":0.33749999999997726},{"name":"E4","midi":64,"time":414.00000000000006,"velocity":0.7480314960629921,"duration":0.33749999999997726},{"name":"A4","midi":69,"time":414.00000000000006,"velocity":0.7480314960629921,"duration":0.33749999999997726},{"name":"C#5","midi":73,"time":414.00000000000006,"velocity":0.7480314960629921,"duration":0.33749999999997726},{"name":"F#5","midi":78,"time":414.00000000000006,"velocity":0.7480314960629921,"duration":0.33749999999997726},{"name":"C#5","midi":73,"time":414.37500000000006,"velocity":0.7480314960629921,"duration":0.33749999999997726},{"name":"A3","midi":57,"time":414.37500000000006,"velocity":0.7480314960629921,"duration":0.33749999999997726},{"name":"E4","midi":64,"time":414.37500000000006,"velocity":0.7480314960629921,"duration":0.33749999999997726},{"name":"A4","midi":69,"time":414.37500000000006,"velocity":0.7480314960629921,"duration":0.33749999999997726},{"name":"F#5","midi":78,"time":414.37500000000006,"velocity":0.7480314960629921,"duration":0.33749999999997726},{"name":"A3","midi":57,"time":414.75000000000006,"velocity":0.7480314960629921,"duration":0.5062500000000227},{"name":"E4","midi":64,"time":414.75000000000006,"velocity":0.7480314960629921,"duration":0.5062500000000227},{"name":"A4","midi":69,"time":414.75000000000006,"velocity":0.7480314960629921,"duration":0.5062500000000227},{"name":"C#5","midi":73,"time":414.75000000000006,"velocity":0.7480314960629921,"duration":0.5062500000000227},{"name":"E5","midi":76,"time":414.75000000000006,"velocity":0.7480314960629921,"duration":0.5062500000000227},{"name":"C#5","midi":73,"time":415.31250000000006,"velocity":0.7480314960629921,"duration":0.16874999999998863},{"name":"A4","midi":69,"time":415.31250000000006,"velocity":0.7480314960629921,"duration":0.16874999999998863},{"name":"E4","midi":64,"time":415.31250000000006,"velocity":0.7480314960629921,"duration":0.16874999999998863},{"name":"A3","midi":57,"time":415.31250000000006,"velocity":0.7480314960629921,"duration":0.16874999999998863},{"name":"E5","midi":76,"time":415.31250000000006,"velocity":0.7480314960629921,"duration":0.16874999999998863},{"name":"E4","midi":64,"time":415.50000000000006,"velocity":0.7480314960629921,"duration":0.33749999999997726},{"name":"A4","midi":69,"time":415.50000000000006,"velocity":0.7480314960629921,"duration":0.33749999999997726},{"name":"C#5","midi":73,"time":415.50000000000006,"velocity":0.7480314960629921,"duration":0.33749999999997726},{"name":"F#5","midi":78,"time":415.50000000000006,"velocity":0.7480314960629921,"duration":0.33749999999997726},{"name":"A3","midi":57,"time":415.50000000000006,"velocity":0.7480314960629921,"duration":0.33749999999997726},{"name":"F#5","midi":78,"time":415.87500000000006,"velocity":0.7480314960629921,"duration":0.33749999999997726},{"name":"C#5","midi":73,"time":415.87500000000006,"velocity":0.7480314960629921,"duration":0.33749999999997726},{"name":"A4","midi":69,"time":415.87500000000006,"velocity":0.7480314960629921,"duration":0.33749999999997726},{"name":"E4","midi":64,"time":415.87500000000006,"velocity":0.7480314960629921,"duration":0.33749999999997726},{"name":"A3","midi":57,"time":415.87500000000006,"velocity":0.7480314960629921,"duration":0.33749999999997726},{"name":"A3","midi":57,"time":416.25000000000006,"velocity":0.7480314960629921,"duration":0.5062500000000227},{"name":"A4","midi":69,"time":416.25000000000006,"velocity":0.7480314960629921,"duration":0.5062500000000227},{"name":"C#5","midi":73,"time":416.25000000000006,"velocity":0.7480314960629921,"duration":0.5062500000000227},{"name":"E5","midi":76,"time":416.25000000000006,"velocity":0.7480314960629921,"duration":0.5062500000000227},{"name":"E4","midi":64,"time":416.25000000000006,"velocity":0.7480314960629921,"duration":0.5062500000000227},{"name":"E4","midi":64,"time":416.81250000000006,"velocity":0.7480314960629921,"duration":0.16874999999998863},{"name":"E5","midi":76,"time":416.81250000000006,"velocity":0.7480314960629921,"duration":0.16874999999998863},{"name":"C#5","midi":73,"time":416.81250000000006,"velocity":0.7480314960629921,"duration":0.16874999999998863},{"name":"A3","midi":57,"time":416.81250000000006,"velocity":0.7480314960629921,"duration":0.16874999999998863},{"name":"A4","midi":69,"time":416.81250000000006,"velocity":0.7480314960629921,"duration":0.16874999999998863},{"name":"F#5","midi":78,"time":417.00000000000006,"velocity":0.7480314960629921,"duration":0.33749999999997726},{"name":"D5","midi":74,"time":417.00000000000006,"velocity":0.7480314960629921,"duration":0.33749999999997726},{"name":"D4","midi":62,"time":417.00000000000006,"velocity":0.7480314960629921,"duration":0.33749999999997726},{"name":"A4","midi":69,"time":417.00000000000006,"velocity":0.7480314960629921,"duration":0.33749999999997726},{"name":"D5","midi":74,"time":417.37500000000006,"velocity":0.7480314960629921,"duration":0.33749999999997726},{"name":"A4","midi":69,"time":417.37500000000006,"velocity":0.7480314960629921,"duration":0.33749999999997726},{"name":"D4","midi":62,"time":417.37500000000006,"velocity":0.7480314960629921,"duration":0.33749999999997726},{"name":"F#5","midi":78,"time":417.37500000000006,"velocity":0.7480314960629921,"duration":0.33749999999997726},{"name":"A4","midi":69,"time":417.75000000000006,"velocity":0.7480314960629921,"duration":0.5062500000000227},{"name":"D5","midi":74,"time":417.75000000000006,"velocity":0.7480314960629921,"duration":0.5062500000000227},{"name":"E5","midi":76,"time":417.75000000000006,"velocity":0.7480314960629921,"duration":0.5062500000000227},{"name":"D4","midi":62,"time":417.75000000000006,"velocity":0.7480314960629921,"duration":0.5062500000000227},{"name":"A4","midi":69,"time":418.31250000000006,"velocity":0.7480314960629921,"duration":0.16874999999998863},{"name":"D4","midi":62,"time":418.31250000000006,"velocity":0.7480314960629921,"duration":0.16874999999998863},{"name":"D5","midi":74,"time":418.31250000000006,"velocity":0.7480314960629921,"duration":0.16874999999998863},{"name":"E5","midi":76,"time":418.31250000000006,"velocity":0.7480314960629921,"duration":0.16874999999998863},{"name":"D5","midi":74,"time":418.50000000000006,"velocity":0.7480314960629921,"duration":0.33749999999997726},{"name":"D4","midi":62,"time":418.50000000000006,"velocity":0.7480314960629921,"duration":0.33749999999997726},{"name":"F#5","midi":78,"time":418.50000000000006,"velocity":0.7480314960629921,"duration":0.33749999999997726},{"name":"A4","midi":69,"time":418.50000000000006,"velocity":0.7480314960629921,"duration":0.33749999999997726},{"name":"A4","midi":69,"time":418.87500000000006,"velocity":0.7480314960629921,"duration":0.33749999999997726},{"name":"D4","midi":62,"time":418.87500000000006,"velocity":0.7480314960629921,"duration":0.33749999999997726},{"name":"F#5","midi":78,"time":418.87500000000006,"velocity":0.7480314960629921,"duration":0.33749999999997726},{"name":"D5","midi":74,"time":418.87500000000006,"velocity":0.7480314960629921,"duration":0.33749999999997726},{"name":"E5","midi":76,"time":419.25000000000006,"velocity":0.7480314960629921,"duration":0.5062500000000227},{"name":"D5","midi":74,"time":419.25000000000006,"velocity":0.7480314960629921,"duration":0.5062500000000227},{"name":"A4","midi":69,"time":419.25000000000006,"velocity":0.7480314960629921,"duration":0.5062500000000227},{"name":"D4","midi":62,"time":419.25000000000006,"velocity":0.7480314960629921,"duration":0.5062500000000227},{"name":"E5","midi":76,"time":419.81250000000006,"velocity":0.7480314960629921,"duration":0.16874999999998863},{"name":"D5","midi":74,"time":419.81250000000006,"velocity":0.7480314960629921,"duration":0.16874999999998863},{"name":"A4","midi":69,"time":419.81250000000006,"velocity":0.7480314960629921,"duration":0.16874999999998863},{"name":"D4","midi":62,"time":419.81250000000006,"velocity":0.7480314960629921,"duration":0.16874999999998863},{"name":"E5","midi":76,"time":420.00000000000006,"velocity":0.7480314960629921,"duration":0.33749999999997726},{"name":"D4","midi":62,"time":420.00000000000006,"velocity":0.7480314960629921,"duration":0.33749999999997726},{"name":"A4","midi":69,"time":420.00000000000006,"velocity":0.7480314960629921,"duration":0.33749999999997726},{"name":"D5","midi":74,"time":420.00000000000006,"velocity":0.7480314960629921,"duration":0.33749999999997726},{"name":"E5","midi":76,"time":420.37500000000006,"velocity":0.7480314960629921,"duration":0.33749999999997726},{"name":"D5","midi":74,"time":420.37500000000006,"velocity":0.7480314960629921,"duration":0.33749999999997726},{"name":"A4","midi":69,"time":420.37500000000006,"velocity":0.7480314960629921,"duration":0.33749999999997726},{"name":"D4","midi":62,"time":420.37500000000006,"velocity":0.7480314960629921,"duration":0.33749999999997726},{"name":"E5","midi":76,"time":420.75000000000006,"velocity":0.7480314960629921,"duration":0.5062500000000227},{"name":"D5","midi":74,"time":420.75000000000006,"velocity":0.7480314960629921,"duration":0.5062500000000227},{"name":"D4","midi":62,"time":420.75000000000006,"velocity":0.7480314960629921,"duration":0.5062500000000227},{"name":"A4","midi":69,"time":420.75000000000006,"velocity":0.7480314960629921,"duration":0.5062500000000227},{"name":"D5","midi":74,"time":421.31250000000006,"velocity":0.7480314960629921,"duration":0.16874999999998863},{"name":"D4","midi":62,"time":421.31250000000006,"velocity":0.7480314960629921,"duration":0.16874999999998863},{"name":"A4","midi":69,"time":421.31250000000006,"velocity":0.7480314960629921,"duration":0.16874999999998863},{"name":"E5","midi":76,"time":421.31250000000006,"velocity":0.7480314960629921,"duration":0.16874999999998863},{"name":"D4","midi":62,"time":421.50000000000006,"velocity":0.7480314960629921,"duration":0.33749999999997726},{"name":"A4","midi":69,"time":421.50000000000006,"velocity":0.7480314960629921,"duration":0.33749999999997726},{"name":"D5","midi":74,"time":421.50000000000006,"velocity":0.7480314960629921,"duration":0.33749999999997726},{"name":"F#5","midi":78,"time":421.50000000000006,"velocity":0.7480314960629921,"duration":0.33749999999997726},{"name":"A4","midi":69,"time":421.87500000000006,"velocity":0.7480314960629921,"duration":0.33749999999997726},{"name":"D4","midi":62,"time":421.87500000000006,"velocity":0.7480314960629921,"duration":0.33749999999997726},{"name":"D5","midi":74,"time":421.87500000000006,"velocity":0.7480314960629921,"duration":0.33749999999997726},{"name":"F#5","midi":78,"time":421.87500000000006,"velocity":0.7480314960629921,"duration":0.33749999999997726},{"name":"D5","midi":74,"time":422.25000000000006,"velocity":0.7480314960629921,"duration":0.5062500000000227},{"name":"D4","midi":62,"time":422.25000000000006,"velocity":0.7480314960629921,"duration":0.5062500000000227},{"name":"A4","midi":69,"time":422.25000000000006,"velocity":0.7480314960629921,"duration":0.5062500000000227},{"name":"E5","midi":76,"time":422.25000000000006,"velocity":0.7480314960629921,"duration":0.5062500000000227},{"name":"D4","midi":62,"time":422.81250000000006,"velocity":0.7480314960629921,"duration":0.16874999999998863},{"name":"A4","midi":69,"time":422.81250000000006,"velocity":0.7480314960629921,"duration":0.16874999999998863},{"name":"D5","midi":74,"time":422.81250000000006,"velocity":0.7480314960629921,"duration":0.16874999999998863},{"name":"E5","midi":76,"time":422.81250000000006,"velocity":0.7480314960629921,"duration":0.16874999999998863},{"name":"D5","midi":74,"time":423.00000000000006,"velocity":0.7480314960629921,"duration":0.33749999999997726},{"name":"F#5","midi":78,"time":423.00000000000006,"velocity":0.7480314960629921,"duration":0.33749999999997726},{"name":"D4","midi":62,"time":423.00000000000006,"velocity":0.7480314960629921,"duration":0.33749999999997726},{"name":"A4","midi":69,"time":423.00000000000006,"velocity":0.7480314960629921,"duration":0.33749999999997726},{"name":"F#5","midi":78,"time":423.37500000000006,"velocity":0.7480314960629921,"duration":0.33749999999997726},{"name":"A4","midi":69,"time":423.37500000000006,"velocity":0.7480314960629921,"duration":0.33749999999997726},{"name":"D5","midi":74,"time":423.37500000000006,"velocity":0.7480314960629921,"duration":0.33749999999997726},{"name":"D4","midi":62,"time":423.37500000000006,"velocity":0.7480314960629921,"duration":0.33749999999997726},{"name":"D4","midi":62,"time":423.75000000000006,"velocity":0.7480314960629921,"duration":0.5062500000000227},{"name":"A4","midi":69,"time":423.75000000000006,"velocity":0.7480314960629921,"duration":0.5062500000000227},{"name":"D5","midi":74,"time":423.75000000000006,"velocity":0.7480314960629921,"duration":0.5062500000000227},{"name":"E5","midi":76,"time":423.75000000000006,"velocity":0.7480314960629921,"duration":0.5062500000000227},{"name":"E5","midi":76,"time":424.31250000000006,"velocity":0.7480314960629921,"duration":0.16874999999998863},{"name":"D5","midi":74,"time":424.31250000000006,"velocity":0.7480314960629921,"duration":0.16874999999998863},{"name":"A4","midi":69,"time":424.31250000000006,"velocity":0.7480314960629921,"duration":0.16874999999998863},{"name":"D4","midi":62,"time":424.31250000000006,"velocity":0.7480314960629921,"duration":0.16874999999998863},{"name":"F#5","midi":78,"time":424.50000000000006,"velocity":0.7480314960629921,"duration":0.33749999999997726},{"name":"D5","midi":74,"time":424.50000000000006,"velocity":0.7480314960629921,"duration":0.33749999999997726},{"name":"A4","midi":69,"time":424.50000000000006,"velocity":0.7480314960629921,"duration":0.33749999999997726},{"name":"D4","midi":62,"time":424.50000000000006,"velocity":0.7480314960629921,"duration":0.33749999999997726},{"name":"F#5","midi":78,"time":424.87500000000006,"velocity":0.7480314960629921,"duration":0.33749999999997726},{"name":"D4","midi":62,"time":424.87500000000006,"velocity":0.7480314960629921,"duration":0.33749999999997726},{"name":"A4","midi":69,"time":424.87500000000006,"velocity":0.7480314960629921,"duration":0.33749999999997726},{"name":"D5","midi":74,"time":424.87500000000006,"velocity":0.7480314960629921,"duration":0.33749999999997726},{"name":"E5","midi":76,"time":425.25000000000006,"velocity":0.7480314960629921,"duration":0.5062500000000227},{"name":"D4","midi":62,"time":425.25000000000006,"velocity":0.7480314960629921,"duration":0.5062500000000227},{"name":"A4","midi":69,"time":425.25000000000006,"velocity":0.7480314960629921,"duration":0.5062500000000227},{"name":"D5","midi":74,"time":425.25000000000006,"velocity":0.7480314960629921,"duration":0.5062500000000227},{"name":"E5","midi":76,"time":425.81250000000006,"velocity":0.7480314960629921,"duration":0.16874999999998863},{"name":"D4","midi":62,"time":425.81250000000006,"velocity":0.7480314960629921,"duration":0.16874999999998863},{"name":"A4","midi":69,"time":425.81250000000006,"velocity":0.7480314960629921,"duration":0.16874999999998863},{"name":"D5","midi":74,"time":425.81250000000006,"velocity":0.7480314960629921,"duration":0.16874999999998863},{"name":"D4","midi":62,"time":426.00000000000006,"velocity":0.7480314960629921,"duration":0.33749999999997726},{"name":"A4","midi":69,"time":426.00000000000006,"velocity":0.7480314960629921,"duration":0.33749999999997726},{"name":"D5","midi":74,"time":426.00000000000006,"velocity":0.7480314960629921,"duration":0.33749999999997726},{"name":"E5","midi":76,"time":426.00000000000006,"velocity":0.7480314960629921,"duration":0.33749999999997726},{"name":"D4","midi":62,"time":426.37500000000006,"velocity":0.7480314960629921,"duration":0.33749999999997726},{"name":"A4","midi":69,"time":426.37500000000006,"velocity":0.7480314960629921,"duration":0.33749999999997726},{"name":"E5","midi":76,"time":426.37500000000006,"velocity":0.7480314960629921,"duration":0.33749999999997726},{"name":"D5","midi":74,"time":426.37500000000006,"velocity":0.7480314960629921,"duration":0.33749999999997726},{"name":"D4","midi":62,"time":426.75000000000006,"velocity":0.7480314960629921,"duration":0.5062500000000227},{"name":"A4","midi":69,"time":426.75000000000006,"velocity":0.7480314960629921,"duration":0.5062500000000227},{"name":"E5","midi":76,"time":426.75000000000006,"velocity":0.7480314960629921,"duration":0.5062500000000227},{"name":"D5","midi":74,"time":426.75000000000006,"velocity":0.7480314960629921,"duration":0.5062500000000227},{"name":"A4","midi":69,"time":427.31250000000006,"velocity":0.7480314960629921,"duration":0.16874999999998863},{"name":"D4","midi":62,"time":427.31250000000006,"velocity":0.7480314960629921,"duration":0.16874999999998863},{"name":"D5","midi":74,"time":427.31250000000006,"velocity":0.7480314960629921,"duration":0.16874999999998863},{"name":"E5","midi":76,"time":427.31250000000006,"velocity":0.7480314960629921,"duration":0.16874999999998863},{"name":"D4","midi":62,"time":427.50000000000006,"velocity":0.7480314960629921,"duration":0.33749999999997726},{"name":"A4","midi":69,"time":427.50000000000006,"velocity":0.7480314960629921,"duration":0.33749999999997726},{"name":"D5","midi":74,"time":427.50000000000006,"velocity":0.7480314960629921,"duration":0.33749999999997726},{"name":"F#5","midi":78,"time":427.50000000000006,"velocity":0.7480314960629921,"duration":0.33749999999997726},{"name":"D5","midi":74,"time":427.87500000000006,"velocity":0.7480314960629921,"duration":0.33749999999997726},{"name":"A4","midi":69,"time":427.87500000000006,"velocity":0.7480314960629921,"duration":0.33749999999997726},{"name":"D4","midi":62,"time":427.87500000000006,"velocity":0.7480314960629921,"duration":0.33749999999997726},{"name":"F#5","midi":78,"time":427.87500000000006,"velocity":0.7480314960629921,"duration":0.33749999999997726},{"name":"D4","midi":62,"time":428.25000000000006,"velocity":0.7480314960629921,"duration":0.5062500000000227},{"name":"D5","midi":74,"time":428.25000000000006,"velocity":0.7480314960629921,"duration":0.5062500000000227},{"name":"E5","midi":76,"time":428.25000000000006,"velocity":0.7480314960629921,"duration":0.5062500000000227},{"name":"A4","midi":69,"time":428.25000000000006,"velocity":0.7480314960629921,"duration":0.5062500000000227},{"name":"E5","midi":76,"time":428.81250000000006,"velocity":0.7480314960629921,"duration":0.16874999999998863},{"name":"D5","midi":74,"time":428.81250000000006,"velocity":0.7480314960629921,"duration":0.16874999999998863},{"name":"A4","midi":69,"time":428.81250000000006,"velocity":0.7480314960629921,"duration":0.16874999999998863},{"name":"D4","midi":62,"time":428.81250000000006,"velocity":0.7480314960629921,"duration":0.16874999999998863},{"name":"A4","midi":69,"time":429.00000000000006,"velocity":0.7480314960629921,"duration":0.33749999999997726},{"name":"D5","midi":74,"time":429.00000000000006,"velocity":0.7480314960629921,"duration":0.33749999999997726},{"name":"F#5","midi":78,"time":429.00000000000006,"velocity":0.7480314960629921,"duration":0.33749999999997726},{"name":"D4","midi":62,"time":429.00000000000006,"velocity":0.7480314960629921,"duration":0.33749999999997726},{"name":"A5","midi":81,"time":429.00000000000006,"velocity":0.7480314960629921,"duration":0.33749999999997726},{"name":"A5","midi":81,"time":429.37500000000006,"velocity":0.7480314960629921,"duration":0.33749999999997726},{"name":"D5","midi":74,"time":429.37500000000006,"velocity":0.7480314960629921,"duration":0.33749999999997726},{"name":"A4","midi":69,"time":429.37500000000006,"velocity":0.7480314960629921,"duration":0.33749999999997726},{"name":"F#5","midi":78,"time":429.37500000000006,"velocity":0.7480314960629921,"duration":0.33749999999997726},{"name":"D4","midi":62,"time":429.37500000000006,"velocity":0.7480314960629921,"duration":0.33749999999997726},{"name":"F#5","midi":78,"time":429.75000000000006,"velocity":0.7480314960629921,"duration":0.5062500000000227},{"name":"D5","midi":74,"time":429.75000000000006,"velocity":0.7480314960629921,"duration":0.5062500000000227},{"name":"A5","midi":81,"time":429.75000000000006,"velocity":0.7480314960629921,"duration":0.5062500000000227},{"name":"A4","midi":69,"time":429.75000000000006,"velocity":0.7480314960629921,"duration":0.5062500000000227},{"name":"D4","midi":62,"time":429.75000000000006,"velocity":0.7480314960629921,"duration":0.5062500000000227},{"name":"A5","midi":81,"time":430.31250000000006,"velocity":0.7480314960629921,"duration":0.16874999999998863},{"name":"F#5","midi":78,"time":430.31250000000006,"velocity":0.7480314960629921,"duration":0.16874999999998863},{"name":"D5","midi":74,"time":430.31250000000006,"velocity":0.7480314960629921,"duration":0.16874999999998863},{"name":"A4","midi":69,"time":430.31250000000006,"velocity":0.7480314960629921,"duration":0.16874999999998863},{"name":"D4","midi":62,"time":430.31250000000006,"velocity":0.7480314960629921,"duration":0.16874999999998863},{"name":"F#5","midi":78,"time":430.50000000000006,"velocity":0.7480314960629921,"duration":0.33749999999997726},{"name":"D5","midi":74,"time":430.50000000000006,"velocity":0.7480314960629921,"duration":0.33749999999997726},{"name":"A4","midi":69,"time":430.50000000000006,"velocity":0.7480314960629921,"duration":0.33749999999997726},{"name":"D4","midi":62,"time":430.50000000000006,"velocity":0.7480314960629921,"duration":0.33749999999997726},{"name":"A5","midi":81,"time":430.50000000000006,"velocity":0.7480314960629921,"duration":0.33749999999997726},{"name":"A5","midi":81,"time":430.87500000000006,"velocity":0.7480314960629921,"duration":0.33749999999997726},{"name":"F#5","midi":78,"time":430.87500000000006,"velocity":0.7480314960629921,"duration":0.33749999999997726},{"name":"D4","midi":62,"time":430.87500000000006,"velocity":0.7480314960629921,"duration":0.33749999999997726},{"name":"A4","midi":69,"time":430.87500000000006,"velocity":0.7480314960629921,"duration":0.33749999999997726},{"name":"D5","midi":74,"time":430.87500000000006,"velocity":0.7480314960629921,"duration":0.33749999999997726},{"name":"D4","midi":62,"time":431.25000000000006,"velocity":0.7480314960629921,"duration":0.5062500000000227},{"name":"A4","midi":69,"time":431.25000000000006,"velocity":0.7480314960629921,"duration":0.5062500000000227},{"name":"D5","midi":74,"time":431.25000000000006,"velocity":0.7480314960629921,"duration":0.5062500000000227},{"name":"F#5","midi":78,"time":431.25000000000006,"velocity":0.7480314960629921,"duration":0.5062500000000227},{"name":"A5","midi":81,"time":431.25000000000006,"velocity":0.7480314960629921,"duration":0.5062500000000227},{"name":"A5","midi":81,"time":431.81250000000006,"velocity":0.7480314960629921,"duration":0.16874999999998863},{"name":"F#5","midi":78,"time":431.81250000000006,"velocity":0.7480314960629921,"duration":0.16874999999998863},{"name":"D5","midi":74,"time":431.81250000000006,"velocity":0.7480314960629921,"duration":0.16874999999998863},{"name":"A4","midi":69,"time":431.81250000000006,"velocity":0.7480314960629921,"duration":0.16874999999998863},{"name":"D4","midi":62,"time":431.81250000000006,"velocity":0.7480314960629921,"duration":0.16874999999998863},{"name":"A5","midi":81,"time":432.00000000000006,"velocity":0.7480314960629921,"duration":0.33749999999997726},{"name":"F#5","midi":78,"time":432.00000000000006,"velocity":0.7480314960629921,"duration":0.33749999999997726},{"name":"D5","midi":74,"time":432.00000000000006,"velocity":0.7480314960629921,"duration":0.33749999999997726},{"name":"A4","midi":69,"time":432.00000000000006,"velocity":0.7480314960629921,"duration":0.33749999999997726},{"name":"D4","midi":62,"time":432.00000000000006,"velocity":0.7480314960629921,"duration":0.33749999999997726},{"name":"D4","midi":62,"time":432.37500000000006,"velocity":0.7480314960629921,"duration":0.33749999999997726},{"name":"A4","midi":69,"time":432.37500000000006,"velocity":0.7480314960629921,"duration":0.33749999999997726},{"name":"D5","midi":74,"time":432.37500000000006,"velocity":0.7480314960629921,"duration":0.33749999999997726},{"name":"F#5","midi":78,"time":432.37500000000006,"velocity":0.7480314960629921,"duration":0.33749999999997726},{"name":"A5","midi":81,"time":432.37500000000006,"velocity":0.7480314960629921,"duration":0.33749999999997726},{"name":"D4","midi":62,"time":432.75000000000006,"velocity":0.7480314960629921,"duration":0.5062500000000227},{"name":"A4","midi":69,"time":432.75000000000006,"velocity":0.7480314960629921,"duration":0.5062500000000227},{"name":"D5","midi":74,"time":432.75000000000006,"velocity":0.7480314960629921,"duration":0.5062500000000227},{"name":"F#5","midi":78,"time":432.75000000000006,"velocity":0.7480314960629921,"duration":0.5062500000000227},{"name":"A5","midi":81,"time":432.75000000000006,"velocity":0.7480314960629921,"duration":0.5062500000000227},{"name":"A4","midi":69,"time":433.31250000000006,"velocity":0.7480314960629921,"duration":0.16874999999998863},{"name":"D5","midi":74,"time":433.31250000000006,"velocity":0.7480314960629921,"duration":0.16874999999998863},{"name":"F#5","midi":78,"time":433.31250000000006,"velocity":0.7480314960629921,"duration":0.16874999999998863},{"name":"A5","midi":81,"time":433.31250000000006,"velocity":0.7480314960629921,"duration":0.16874999999998863},{"name":"D4","midi":62,"time":433.31250000000006,"velocity":0.7480314960629921,"duration":0.16874999999998863},{"name":"D4","midi":62,"time":433.50000000000006,"velocity":0.7480314960629921,"duration":0.33749999999997726},{"name":"A4","midi":69,"time":433.50000000000006,"velocity":0.7480314960629921,"duration":0.33749999999997726},{"name":"D5","midi":74,"time":433.50000000000006,"velocity":0.7480314960629921,"duration":0.33749999999997726},{"name":"F#5","midi":78,"time":433.50000000000006,"velocity":0.7480314960629921,"duration":0.33749999999997726},{"name":"A5","midi":81,"time":433.50000000000006,"velocity":0.7480314960629921,"duration":0.33749999999997726},{"name":"D4","midi":62,"time":433.87500000000006,"velocity":0.7480314960629921,"duration":0.33749999999997726},{"name":"A4","midi":69,"time":433.87500000000006,"velocity":0.7480314960629921,"duration":0.33749999999997726},{"name":"D5","midi":74,"time":433.87500000000006,"velocity":0.7480314960629921,"duration":0.33749999999997726},{"name":"F#5","midi":78,"time":433.87500000000006,"velocity":0.7480314960629921,"duration":0.33749999999997726},{"name":"A5","midi":81,"time":433.87500000000006,"velocity":0.7480314960629921,"duration":0.33749999999997726},{"name":"D5","midi":74,"time":434.25000000000006,"velocity":0.7480314960629921,"duration":0.5062500000000227},{"name":"F#5","midi":78,"time":434.25000000000006,"velocity":0.7480314960629921,"duration":0.5062500000000227},{"name":"D4","midi":62,"time":434.25000000000006,"velocity":0.7480314960629921,"duration":0.5062500000000227},{"name":"A4","midi":69,"time":434.25000000000006,"velocity":0.7480314960629921,"duration":0.5062500000000227},{"name":"A5","midi":81,"time":434.25000000000006,"velocity":0.7480314960629921,"duration":0.5062500000000227},{"name":"A4","midi":69,"time":434.81250000000006,"velocity":0.7480314960629921,"duration":0.16874999999998863},{"name":"A5","midi":81,"time":434.81250000000006,"velocity":0.7480314960629921,"duration":0.16874999999998863},{"name":"F#5","midi":78,"time":434.81250000000006,"velocity":0.7480314960629921,"duration":0.16874999999998863},{"name":"D4","midi":62,"time":434.81250000000006,"velocity":0.7480314960629921,"duration":0.16874999999998863},{"name":"D5","midi":74,"time":434.81250000000006,"velocity":0.7480314960629921,"duration":0.16874999999998863},{"name":"A3","midi":57,"time":435.00000000000006,"velocity":0.7480314960629921,"duration":0.33749999999997726},{"name":"E4","midi":64,"time":435.00000000000006,"velocity":0.7480314960629921,"duration":0.33749999999997726},{"name":"A4","midi":69,"time":435.00000000000006,"velocity":0.7480314960629921,"duration":0.33749999999997726},{"name":"C#5","midi":73,"time":435.00000000000006,"velocity":0.7480314960629921,"duration":0.33749999999997726},{"name":"F#5","midi":78,"time":435.00000000000006,"velocity":0.7480314960629921,"duration":0.33749999999997726},{"name":"F#5","midi":78,"time":435.37500000000006,"velocity":0.7480314960629921,"duration":0.33749999999997726},{"name":"C#5","midi":73,"time":435.37500000000006,"velocity":0.7480314960629921,"duration":0.33749999999997726},{"name":"A3","midi":57,"time":435.37500000000006,"velocity":0.7480314960629921,"duration":0.33749999999997726},{"name":"E4","midi":64,"time":435.37500000000006,"velocity":0.7480314960629921,"duration":0.33749999999997726},{"name":"A4","midi":69,"time":435.37500000000006,"velocity":0.7480314960629921,"duration":0.33749999999997726},{"name":"C#5","midi":73,"time":435.75000000000006,"velocity":0.7480314960629921,"duration":0.5062500000000227},{"name":"A4","midi":69,"time":435.75000000000006,"velocity":0.7480314960629921,"duration":0.5062500000000227},{"name":"E4","midi":64,"time":435.75000000000006,"velocity":0.7480314960629921,"duration":0.5062500000000227},{"name":"A3","midi":57,"time":435.75000000000006,"velocity":0.7480314960629921,"duration":0.5062500000000227},{"name":"E5","midi":76,"time":435.75000000000006,"velocity":0.7480314960629921,"duration":0.5062500000000227},{"name":"A3","midi":57,"time":436.31250000000006,"velocity":0.7480314960629921,"duration":0.16874999999998863},{"name":"E4","midi":64,"time":436.31250000000006,"velocity":0.7480314960629921,"duration":0.16874999999998863},{"name":"A4","midi":69,"time":436.31250000000006,"velocity":0.7480314960629921,"duration":0.16874999999998863},{"name":"C#5","midi":73,"time":436.31250000000006,"velocity":0.7480314960629921,"duration":0.16874999999998863},{"name":"E5","midi":76,"time":436.31250000000006,"velocity":0.7480314960629921,"duration":0.16874999999998863},{"name":"A3","midi":57,"time":436.50000000000006,"velocity":0.7480314960629921,"duration":0.33749999999997726},{"name":"E4","midi":64,"time":436.50000000000006,"velocity":0.7480314960629921,"duration":0.33749999999997726},{"name":"A4","midi":69,"time":436.50000000000006,"velocity":0.7480314960629921,"duration":0.33749999999997726},{"name":"C#5","midi":73,"time":436.50000000000006,"velocity":0.7480314960629921,"duration":0.33749999999997726},{"name":"F#5","midi":78,"time":436.50000000000006,"velocity":0.7480314960629921,"duration":0.33749999999997726},{"name":"C#5","midi":73,"time":436.87500000000006,"velocity":0.7480314960629921,"duration":0.33749999999997726},{"name":"F#5","midi":78,"time":436.87500000000006,"velocity":0.7480314960629921,"duration":0.33749999999997726},{"name":"A4","midi":69,"time":436.87500000000006,"velocity":0.7480314960629921,"duration":0.33749999999997726},{"name":"E4","midi":64,"time":436.87500000000006,"velocity":0.7480314960629921,"duration":0.33749999999997726},{"name":"A3","midi":57,"time":436.87500000000006,"velocity":0.7480314960629921,"duration":0.33749999999997726},{"name":"A3","midi":57,"time":437.25000000000006,"velocity":0.7480314960629921,"duration":0.5062500000000227},{"name":"E4","midi":64,"time":437.25000000000006,"velocity":0.7480314960629921,"duration":0.5062500000000227},{"name":"A4","midi":69,"time":437.25000000000006,"velocity":0.7480314960629921,"duration":0.5062500000000227},{"name":"C#5","midi":73,"time":437.25000000000006,"velocity":0.7480314960629921,"duration":0.5062500000000227},{"name":"E5","midi":76,"time":437.25000000000006,"velocity":0.7480314960629921,"duration":0.5062500000000227},{"name":"E4","midi":64,"time":437.81250000000006,"velocity":0.7480314960629921,"duration":0.16874999999998863},{"name":"A3","midi":57,"time":437.81250000000006,"velocity":0.7480314960629921,"duration":0.16874999999998863},{"name":"E5","midi":76,"time":437.81250000000006,"velocity":0.7480314960629921,"duration":0.16874999999998863},{"name":"C#5","midi":73,"time":437.81250000000006,"velocity":0.7480314960629921,"duration":0.16874999999998863},{"name":"A4","midi":69,"time":437.81250000000006,"velocity":0.7480314960629921,"duration":0.16874999999998863},{"name":"A4","midi":69,"time":438.00000000000006,"velocity":0.7480314960629921,"duration":0.33749999999997726},{"name":"E4","midi":64,"time":438.00000000000006,"velocity":0.7480314960629921,"duration":0.33749999999997726},{"name":"A3","midi":57,"time":438.00000000000006,"velocity":0.7480314960629921,"duration":0.33749999999997726},{"name":"F#5","midi":78,"time":438.00000000000006,"velocity":0.7480314960629921,"duration":0.33749999999997726},{"name":"C#5","midi":73,"time":438.00000000000006,"velocity":0.7480314960629921,"duration":0.33749999999997726},{"name":"A3","midi":57,"time":438.37500000000006,"velocity":0.7480314960629921,"duration":0.33749999999997726},{"name":"A4","midi":69,"time":438.37500000000006,"velocity":0.7480314960629921,"duration":0.33749999999997726},{"name":"C#5","midi":73,"time":438.37500000000006,"velocity":0.7480314960629921,"duration":0.33749999999997726},{"name":"E4","midi":64,"time":438.37500000000006,"velocity":0.7480314960629921,"duration":0.33749999999997726},{"name":"F#5","midi":78,"time":438.37500000000006,"velocity":0.7480314960629921,"duration":0.33749999999997726},{"name":"E5","midi":76,"time":438.75000000000006,"velocity":0.7480314960629921,"duration":0.5062500000000227},{"name":"C#5","midi":73,"time":438.75000000000006,"velocity":0.7480314960629921,"duration":0.5062500000000227},{"name":"A4","midi":69,"time":438.75000000000006,"velocity":0.7480314960629921,"duration":0.5062500000000227},{"name":"E4","midi":64,"time":438.75000000000006,"velocity":0.7480314960629921,"duration":0.5062500000000227},{"name":"A3","midi":57,"time":438.75000000000006,"velocity":0.7480314960629921,"duration":0.5062500000000227},{"name":"C#5","midi":73,"time":439.31250000000006,"velocity":0.7480314960629921,"duration":0.16874999999998863},{"name":"E5","midi":76,"time":439.31250000000006,"velocity":0.7480314960629921,"duration":0.16874999999998863},{"name":"A3","midi":57,"time":439.31250000000006,"velocity":0.7480314960629921,"duration":0.16874999999998863},{"name":"E4","midi":64,"time":439.31250000000006,"velocity":0.7480314960629921,"duration":0.16874999999998863},{"name":"A4","midi":69,"time":439.31250000000006,"velocity":0.7480314960629921,"duration":0.16874999999998863},{"name":"E4","midi":64,"time":439.50000000000006,"velocity":0.7480314960629921,"duration":0.33749999999997726},{"name":"A4","midi":69,"time":439.50000000000006,"velocity":0.7480314960629921,"duration":0.33749999999997726},{"name":"C#5","midi":73,"time":439.50000000000006,"velocity":0.7480314960629921,"duration":0.33749999999997726},{"name":"A3","midi":57,"time":439.50000000000006,"velocity":0.7480314960629921,"duration":0.33749999999997726},{"name":"F#5","midi":78,"time":439.50000000000006,"velocity":0.7480314960629921,"duration":0.33749999999997726},{"name":"A3","midi":57,"time":439.87500000000006,"velocity":0.7480314960629921,"duration":0.33749999999997726},{"name":"E4","midi":64,"time":439.87500000000006,"velocity":0.7480314960629921,"duration":0.33749999999997726},{"name":"A4","midi":69,"time":439.87500000000006,"velocity":0.7480314960629921,"duration":0.33749999999997726},{"name":"C#5","midi":73,"time":439.87500000000006,"velocity":0.7480314960629921,"duration":0.33749999999997726},{"name":"F#5","midi":78,"time":439.87500000000006,"velocity":0.7480314960629921,"duration":0.33749999999997726},{"name":"E4","midi":64,"time":440.25000000000006,"velocity":0.7480314960629921,"duration":0.5062500000000227},{"name":"C#5","midi":73,"time":440.25000000000006,"velocity":0.7480314960629921,"duration":0.5062500000000227},{"name":"E5","midi":76,"time":440.25000000000006,"velocity":0.7480314960629921,"duration":0.5062500000000227},{"name":"A3","midi":57,"time":440.25000000000006,"velocity":0.7480314960629921,"duration":0.5062500000000227},{"name":"A4","midi":69,"time":440.25000000000006,"velocity":0.7480314960629921,"duration":0.5062500000000227},{"name":"E5","midi":76,"time":440.81250000000006,"velocity":0.7480314960629921,"duration":0.16874999999998863},{"name":"A4","midi":69,"time":440.81250000000006,"velocity":0.7480314960629921,"duration":0.16874999999998863},{"name":"E4","midi":64,"time":440.81250000000006,"velocity":0.7480314960629921,"duration":0.16874999999998863},{"name":"A3","midi":57,"time":440.81250000000006,"velocity":0.7480314960629921,"duration":0.16874999999998863},{"name":"C#5","midi":73,"time":440.81250000000006,"velocity":0.7480314960629921,"duration":0.16874999999998863},{"name":"D4","midi":62,"time":441.00000000000006,"velocity":0.7480314960629921,"duration":0.33749999999997726},{"name":"A4","midi":69,"time":441.00000000000006,"velocity":0.7480314960629921,"duration":0.33749999999997726},{"name":"D5","midi":74,"time":441.00000000000006,"velocity":0.7480314960629921,"duration":0.33749999999997726},{"name":"F#5","midi":78,"time":441.00000000000006,"velocity":0.7480314960629921,"duration":0.33749999999997726},{"name":"F#5","midi":78,"time":441.37500000000006,"velocity":0.7480314960629921,"duration":0.33749999999997726},{"name":"D4","midi":62,"time":441.37500000000006,"velocity":0.7480314960629921,"duration":0.33749999999997726},{"name":"A4","midi":69,"time":441.37500000000006,"velocity":0.7480314960629921,"duration":0.33749999999997726},{"name":"D5","midi":74,"time":441.37500000000006,"velocity":0.7480314960629921,"duration":0.33749999999997726},{"name":"D4","midi":62,"time":441.75000000000006,"velocity":0.7480314960629921,"duration":0.5062500000000227},{"name":"A4","midi":69,"time":441.75000000000006,"velocity":0.7480314960629921,"duration":0.5062500000000227},{"name":"D5","midi":74,"time":441.75000000000006,"velocity":0.7480314960629921,"duration":0.5062500000000227},{"name":"E5","midi":76,"time":441.75000000000006,"velocity":0.7480314960629921,"duration":0.5062500000000227},{"name":"E5","midi":76,"time":442.31250000000006,"velocity":0.7480314960629921,"duration":0.16874999999998863},{"name":"D4","midi":62,"time":442.31250000000006,"velocity":0.7480314960629921,"duration":0.16874999999998863},{"name":"A4","midi":69,"time":442.31250000000006,"velocity":0.7480314960629921,"duration":0.16874999999998863},{"name":"D5","midi":74,"time":442.31250000000006,"velocity":0.7480314960629921,"duration":0.16874999999998863},{"name":"F#5","midi":78,"time":442.50000000000006,"velocity":0.7480314960629921,"duration":0.33749999999997726},{"name":"D4","midi":62,"time":442.50000000000006,"velocity":0.7480314960629921,"duration":0.33749999999997726},{"name":"A4","midi":69,"time":442.50000000000006,"velocity":0.7480314960629921,"duration":0.33749999999997726},{"name":"D5","midi":74,"time":442.50000000000006,"velocity":0.7480314960629921,"duration":0.33749999999997726},{"name":"D4","midi":62,"time":442.87500000000006,"velocity":0.7480314960629921,"duration":0.33749999999997726},{"name":"F#5","midi":78,"time":442.87500000000006,"velocity":0.7480314960629921,"duration":0.33749999999997726},{"name":"D5","midi":74,"time":442.87500000000006,"velocity":0.7480314960629921,"duration":0.33749999999997726},{"name":"A4","midi":69,"time":442.87500000000006,"velocity":0.7480314960629921,"duration":0.33749999999997726},{"name":"D4","midi":62,"time":443.25000000000006,"velocity":0.7480314960629921,"duration":0.5062500000000227},{"name":"A4","midi":69,"time":443.25000000000006,"velocity":0.7480314960629921,"duration":0.5062500000000227},{"name":"D5","midi":74,"time":443.25000000000006,"velocity":0.7480314960629921,"duration":0.5062500000000227},{"name":"E5","midi":76,"time":443.25000000000006,"velocity":0.7480314960629921,"duration":0.5062500000000227},{"name":"D4","midi":62,"time":443.81250000000006,"velocity":0.7480314960629921,"duration":0.16874999999998863},{"name":"E5","midi":76,"time":443.81250000000006,"velocity":0.7480314960629921,"duration":0.16874999999998863},{"name":"D5","midi":74,"time":443.81250000000006,"velocity":0.7480314960629921,"duration":0.16874999999998863},{"name":"A4","midi":69,"time":443.81250000000006,"velocity":0.7480314960629921,"duration":0.16874999999998863},{"name":"E5","midi":76,"time":444.00000000000006,"velocity":0.7480314960629921,"duration":0.33749999999997726},{"name":"A4","midi":69,"time":444.00000000000006,"velocity":0.7480314960629921,"duration":0.33749999999997726},{"name":"D4","midi":62,"time":444.00000000000006,"velocity":0.7480314960629921,"duration":0.33749999999997726},{"name":"D5","midi":74,"time":444.00000000000006,"velocity":0.7480314960629921,"duration":0.33749999999997726},{"name":"A4","midi":69,"time":444.37500000000006,"velocity":0.7480314960629921,"duration":0.33749999999997726},{"name":"D4","midi":62,"time":444.37500000000006,"velocity":0.7480314960629921,"duration":0.33749999999997726},{"name":"D5","midi":74,"time":444.37500000000006,"velocity":0.7480314960629921,"duration":0.33749999999997726},{"name":"E5","midi":76,"time":444.37500000000006,"velocity":0.7480314960629921,"duration":0.33749999999997726},{"name":"D4","midi":62,"time":444.75000000000006,"velocity":0.7480314960629921,"duration":0.5062500000000227},{"name":"A4","midi":69,"time":444.75000000000006,"velocity":0.7480314960629921,"duration":0.5062500000000227},{"name":"D5","midi":74,"time":444.75000000000006,"velocity":0.7480314960629921,"duration":0.5062500000000227},{"name":"E5","midi":76,"time":444.75000000000006,"velocity":0.7480314960629921,"duration":0.5062500000000227},{"name":"D4","midi":62,"time":445.31250000000006,"velocity":0.7480314960629921,"duration":0.16874999999998863},{"name":"A4","midi":69,"time":445.31250000000006,"velocity":0.7480314960629921,"duration":0.16874999999998863},{"name":"D5","midi":74,"time":445.31250000000006,"velocity":0.7480314960629921,"duration":0.16874999999998863},{"name":"E5","midi":76,"time":445.31250000000006,"velocity":0.7480314960629921,"duration":0.16874999999998863},{"name":"D4","midi":62,"time":445.50000000000006,"velocity":0.7480314960629921,"duration":0.33749999999997726},{"name":"A4","midi":69,"time":445.50000000000006,"velocity":0.7480314960629921,"duration":0.33749999999997726},{"name":"F#5","midi":78,"time":445.50000000000006,"velocity":0.7480314960629921,"duration":0.33749999999997726},{"name":"D5","midi":74,"time":445.50000000000006,"velocity":0.7480314960629921,"duration":0.33749999999997726},{"name":"F#5","midi":78,"time":445.87500000000006,"velocity":0.7480314960629921,"duration":0.33749999999997726},{"name":"D5","midi":74,"time":445.87500000000006,"velocity":0.7480314960629921,"duration":0.33749999999997726},{"name":"A4","midi":69,"time":445.87500000000006,"velocity":0.7480314960629921,"duration":0.33749999999997726},{"name":"D4","midi":62,"time":445.87500000000006,"velocity":0.7480314960629921,"duration":0.33749999999997726},{"name":"E5","midi":76,"time":446.25000000000006,"velocity":0.7480314960629921,"duration":0.5062500000000227},{"name":"D5","midi":74,"time":446.25000000000006,"velocity":0.7480314960629921,"duration":0.5062500000000227},{"name":"A4","midi":69,"time":446.25000000000006,"velocity":0.7480314960629921,"duration":0.5062500000000227},{"name":"D4","midi":62,"time":446.25000000000006,"velocity":0.7480314960629921,"duration":0.5062500000000227},{"name":"D4","midi":62,"time":446.81250000000006,"velocity":0.7480314960629921,"duration":0.16874999999998863},{"name":"A4","midi":69,"time":446.81250000000006,"velocity":0.7480314960629921,"duration":0.16874999999998863},{"name":"D5","midi":74,"time":446.81250000000006,"velocity":0.7480314960629921,"duration":0.16874999999998863},{"name":"E5","midi":76,"time":446.81250000000006,"velocity":0.7480314960629921,"duration":0.16874999999998863},{"name":"B3","midi":59,"time":447.00000000000006,"velocity":0.7480314960629921,"duration":0.33749999999997726},{"name":"F#4","midi":66,"time":447.00000000000006,"velocity":0.7480314960629921,"duration":0.33749999999997726},{"name":"B4","midi":71,"time":447.00000000000006,"velocity":0.7480314960629921,"duration":0.33749999999997726},{"name":"D5","midi":74,"time":447.00000000000006,"velocity":0.7480314960629921,"duration":0.33749999999997726},{"name":"F#5","midi":78,"time":447.00000000000006,"velocity":0.7480314960629921,"duration":0.33749999999997726},{"name":"F#4","midi":66,"time":447.37500000000006,"velocity":0.7480314960629921,"duration":0.33749999999997726},{"name":"B3","midi":59,"time":447.37500000000006,"velocity":0.7480314960629921,"duration":0.33749999999997726},{"name":"B4","midi":71,"time":447.37500000000006,"velocity":0.7480314960629921,"duration":0.33749999999997726},{"name":"D5","midi":74,"time":447.37500000000006,"velocity":0.7480314960629921,"duration":0.33749999999997726},{"name":"F#5","midi":78,"time":447.37500000000006,"velocity":0.7480314960629921,"duration":0.33749999999997726},{"name":"F#4","midi":66,"time":447.75000000000006,"velocity":0.7480314960629921,"duration":0.5062500000000227},{"name":"B3","midi":59,"time":447.75000000000006,"velocity":0.7480314960629921,"duration":0.5062500000000227},{"name":"E5","midi":76,"time":447.75000000000006,"velocity":0.7480314960629921,"duration":0.5062500000000227},{"name":"D5","midi":74,"time":447.75000000000006,"velocity":0.7480314960629921,"duration":0.5062500000000227},{"name":"B4","midi":71,"time":447.75000000000006,"velocity":0.7480314960629921,"duration":0.5062500000000227},{"name":"B3","midi":59,"time":448.31250000000006,"velocity":0.7480314960629921,"duration":0.16874999999998863},{"name":"B4","midi":71,"time":448.31250000000006,"velocity":0.7480314960629921,"duration":0.16874999999998863},{"name":"E5","midi":76,"time":448.31250000000006,"velocity":0.7480314960629921,"duration":0.16874999999998863},{"name":"D5","midi":74,"time":448.31250000000006,"velocity":0.7480314960629921,"duration":0.16874999999998863},{"name":"F#4","midi":66,"time":448.31250000000006,"velocity":0.7480314960629921,"duration":0.16874999999998863},{"name":"B4","midi":71,"time":448.50000000000006,"velocity":0.7480314960629921,"duration":0.33749999999997726},{"name":"D5","midi":74,"time":448.50000000000006,"velocity":0.7480314960629921,"duration":0.33749999999997726},{"name":"F#5","midi":78,"time":448.50000000000006,"velocity":0.7480314960629921,"duration":0.33749999999997726},{"name":"B3","midi":59,"time":448.50000000000006,"velocity":0.7480314960629921,"duration":0.33749999999997726},{"name":"F#4","midi":66,"time":448.50000000000006,"velocity":0.7480314960629921,"duration":0.33749999999997726},{"name":"B4","midi":71,"time":448.87500000000006,"velocity":0.7480314960629921,"duration":0.33749999999997726},{"name":"B3","midi":59,"time":448.87500000000006,"velocity":0.7480314960629921,"duration":0.33749999999997726},{"name":"F#4","midi":66,"time":448.87500000000006,"velocity":0.7480314960629921,"duration":0.33749999999997726},{"name":"D5","midi":74,"time":448.87500000000006,"velocity":0.7480314960629921,"duration":0.33749999999997726},{"name":"F#5","midi":78,"time":448.87500000000006,"velocity":0.7480314960629921,"duration":0.33749999999997726},{"name":"D5","midi":74,"time":449.25000000000006,"velocity":0.7480314960629921,"duration":0.5062500000000227},{"name":"F#4","midi":66,"time":449.25000000000006,"velocity":0.7480314960629921,"duration":0.5062500000000227},{"name":"B3","midi":59,"time":449.25000000000006,"velocity":0.7480314960629921,"duration":0.5062500000000227},{"name":"E5","midi":76,"time":449.25000000000006,"velocity":0.7480314960629921,"duration":0.5062500000000227},{"name":"B4","midi":71,"time":449.25000000000006,"velocity":0.7480314960629921,"duration":0.5062500000000227},{"name":"B3","midi":59,"time":449.81250000000006,"velocity":0.7480314960629921,"duration":0.16874999999998863},{"name":"F#4","midi":66,"time":449.81250000000006,"velocity":0.7480314960629921,"duration":0.16874999999998863},{"name":"B4","midi":71,"time":449.81250000000006,"velocity":0.7480314960629921,"duration":0.16874999999998863},{"name":"D5","midi":74,"time":449.81250000000006,"velocity":0.7480314960629921,"duration":0.16874999999998863},{"name":"E5","midi":76,"time":449.81250000000006,"velocity":0.7480314960629921,"duration":0.16874999999998863},{"name":"F#5","midi":78,"time":450.00000000000006,"velocity":0.7480314960629921,"duration":0.33749999999997726},{"name":"B4","midi":71,"time":450.00000000000006,"velocity":0.7480314960629921,"duration":0.33749999999997726},{"name":"G#4","midi":68,"time":450.00000000000006,"velocity":0.7480314960629921,"duration":0.33749999999997726},{"name":"C#4","midi":61,"time":450.00000000000006,"velocity":0.7480314960629921,"duration":0.33749999999997726},{"name":"C#4","midi":61,"time":450.37500000000006,"velocity":0.7480314960629921,"duration":0.33749999999997726},{"name":"G#4","midi":68,"time":450.37500000000006,"velocity":0.7480314960629921,"duration":0.33749999999997726},{"name":"B4","midi":71,"time":450.37500000000006,"velocity":0.7480314960629921,"duration":0.33749999999997726},{"name":"F#5","midi":78,"time":450.37500000000006,"velocity":0.7480314960629921,"duration":0.33749999999997726},{"name":"E5","midi":76,"time":450.75000000000006,"velocity":0.7480314960629921,"duration":0.5062500000000227},{"name":"C#4","midi":61,"time":450.75000000000006,"velocity":0.7480314960629921,"duration":0.5062500000000227},{"name":"G#4","midi":68,"time":450.75000000000006,"velocity":0.7480314960629921,"duration":0.5062500000000227},{"name":"B4","midi":71,"time":450.75000000000006,"velocity":0.7480314960629921,"duration":0.5062500000000227},{"name":"C#4","midi":61,"time":451.31250000000006,"velocity":0.7480314960629921,"duration":0.16874999999998863},{"name":"G#4","midi":68,"time":451.31250000000006,"velocity":0.7480314960629921,"duration":0.16874999999998863},{"name":"B4","midi":71,"time":451.31250000000006,"velocity":0.7480314960629921,"duration":0.16874999999998863},{"name":"E5","midi":76,"time":451.31250000000006,"velocity":0.7480314960629921,"duration":0.16874999999998863},{"name":"C#4","midi":61,"time":451.50000000000006,"velocity":0.7480314960629921,"duration":0.33749999999997726},{"name":"F#5","midi":78,"time":451.50000000000006,"velocity":0.7480314960629921,"duration":0.33749999999997726},{"name":"G#4","midi":68,"time":451.50000000000006,"velocity":0.7480314960629921,"duration":0.33749999999997726},{"name":"B4","midi":71,"time":451.50000000000006,"velocity":0.7480314960629921,"duration":0.33749999999997726},{"name":"F#5","midi":78,"time":451.87500000000006,"velocity":0.7480314960629921,"duration":0.33749999999997726},{"name":"C#4","midi":61,"time":451.87500000000006,"velocity":0.7480314960629921,"duration":0.33749999999997726},{"name":"G#4","midi":68,"time":451.87500000000006,"velocity":0.7480314960629921,"duration":0.33749999999997726},{"name":"B4","midi":71,"time":451.87500000000006,"velocity":0.7480314960629921,"duration":0.33749999999997726},{"name":"E5","midi":76,"time":452.25000000000006,"velocity":0.7480314960629921,"duration":0.5062500000000227},{"name":"B4","midi":71,"time":452.25000000000006,"velocity":0.7480314960629921,"duration":0.5062500000000227},{"name":"G#4","midi":68,"time":452.25000000000006,"velocity":0.7480314960629921,"duration":0.5062500000000227},{"name":"C#4","midi":61,"time":452.25000000000006,"velocity":0.7480314960629921,"duration":0.5062500000000227},{"name":"C#4","midi":61,"time":452.81250000000006,"velocity":0.7480314960629921,"duration":0.16874999999998863},{"name":"B4","midi":71,"time":452.81250000000006,"velocity":0.7480314960629921,"duration":0.16874999999998863},{"name":"E5","midi":76,"time":452.81250000000006,"velocity":0.7480314960629921,"duration":0.16874999999998863},{"name":"G#4","midi":68,"time":452.81250000000006,"velocity":0.7480314960629921,"duration":0.16874999999998863},{"name":"D4","midi":62,"time":453.00000000000006,"velocity":0.7480314960629921,"duration":0.33749999999997726},{"name":"A4","midi":69,"time":453.00000000000006,"velocity":0.7480314960629921,"duration":0.33749999999997726},{"name":"D5","midi":74,"time":453.00000000000006,"velocity":0.7480314960629921,"duration":0.33749999999997726},{"name":"F#5","midi":78,"time":453.00000000000006,"velocity":0.7480314960629921,"duration":0.33749999999997726},{"name":"A5","midi":81,"time":453.00000000000006,"velocity":0.7480314960629921,"duration":0.33749999999997726},{"name":"F#5","midi":78,"time":453.37500000000006,"velocity":0.7480314960629921,"duration":0.33749999999997726},{"name":"D5","midi":74,"time":453.37500000000006,"velocity":0.7480314960629921,"duration":0.33749999999997726},{"name":"A4","midi":69,"time":453.37500000000006,"velocity":0.7480314960629921,"duration":0.33749999999997726},{"name":"D4","midi":62,"time":453.37500000000006,"velocity":0.7480314960629921,"duration":0.33749999999997726},{"name":"A5","midi":81,"time":453.37500000000006,"velocity":0.7480314960629921,"duration":0.33749999999997726},{"name":"A4","midi":69,"time":453.75000000000006,"velocity":0.7480314960629921,"duration":0.5062500000000227},{"name":"A5","midi":81,"time":453.75000000000006,"velocity":0.7480314960629921,"duration":0.5062500000000227},{"name":"D4","midi":62,"time":453.75000000000006,"velocity":0.7480314960629921,"duration":0.5062500000000227},{"name":"F#5","midi":78,"time":453.75000000000006,"velocity":0.7480314960629921,"duration":0.5062500000000227},{"name":"D5","midi":74,"time":453.75000000000006,"velocity":0.7480314960629921,"duration":0.5062500000000227},{"name":"D4","midi":62,"time":454.31250000000006,"velocity":0.7480314960629921,"duration":0.16874999999998863},{"name":"A4","midi":69,"time":454.31250000000006,"velocity":0.7480314960629921,"duration":0.16874999999998863},{"name":"D5","midi":74,"time":454.31250000000006,"velocity":0.7480314960629921,"duration":0.16874999999998863},{"name":"F#5","midi":78,"time":454.31250000000006,"velocity":0.7480314960629921,"duration":0.16874999999998863},{"name":"A5","midi":81,"time":454.31250000000006,"velocity":0.7480314960629921,"duration":0.16874999999998863},{"name":"F#5","midi":78,"time":454.50000000000006,"velocity":0.7480314960629921,"duration":0.33749999999997726},{"name":"D5","midi":74,"time":454.50000000000006,"velocity":0.7480314960629921,"duration":0.33749999999997726},{"name":"A4","midi":69,"time":454.50000000000006,"velocity":0.7480314960629921,"duration":0.33749999999997726},{"name":"D4","midi":62,"time":454.50000000000006,"velocity":0.7480314960629921,"duration":0.33749999999997726},{"name":"A5","midi":81,"time":454.50000000000006,"velocity":0.7480314960629921,"duration":0.33749999999997726},{"name":"D5","midi":74,"time":454.87500000000006,"velocity":0.7480314960629921,"duration":0.33749999999997726},{"name":"A4","midi":69,"time":454.87500000000006,"velocity":0.7480314960629921,"duration":0.33749999999997726},{"name":"D4","midi":62,"time":454.87500000000006,"velocity":0.7480314960629921,"duration":0.33749999999997726},{"name":"F#5","midi":78,"time":454.87500000000006,"velocity":0.7480314960629921,"duration":0.33749999999997726},{"name":"A5","midi":81,"time":454.87500000000006,"velocity":0.7480314960629921,"duration":0.33749999999997726},{"name":"A4","midi":69,"time":455.25000000000006,"velocity":0.7480314960629921,"duration":0.5062500000000227},{"name":"D4","midi":62,"time":455.25000000000006,"velocity":0.7480314960629921,"duration":0.5062500000000227},{"name":"A5","midi":81,"time":455.25000000000006,"velocity":0.7480314960629921,"duration":0.5062500000000227},{"name":"F#5","midi":78,"time":455.25000000000006,"velocity":0.7480314960629921,"duration":0.5062500000000227},{"name":"D5","midi":74,"time":455.25000000000006,"velocity":0.7480314960629921,"duration":0.5062500000000227},{"name":"A5","midi":81,"time":455.81250000000006,"velocity":0.7480314960629921,"duration":0.16874999999998863},{"name":"F#5","midi":78,"time":455.81250000000006,"velocity":0.7480314960629921,"duration":0.16874999999998863},{"name":"D4","midi":62,"time":455.81250000000006,"velocity":0.7480314960629921,"duration":0.16874999999998863},{"name":"A4","midi":69,"time":455.81250000000006,"velocity":0.7480314960629921,"duration":0.16874999999998863},{"name":"D5","midi":74,"time":455.81250000000006,"velocity":0.7480314960629921,"duration":0.16874999999998863},{"name":"D5","midi":74,"time":456.00000000000006,"velocity":0.7480314960629921,"duration":0.33749999999997726},{"name":"F#5","midi":78,"time":456.00000000000006,"velocity":0.7480314960629921,"duration":0.33749999999997726},{"name":"A5","midi":81,"time":456.00000000000006,"velocity":0.7480314960629921,"duration":0.33749999999997726},{"name":"D4","midi":62,"time":456.00000000000006,"velocity":0.7480314960629921,"duration":0.33749999999997726},{"name":"A4","midi":69,"time":456.00000000000006,"velocity":0.7480314960629921,"duration":0.33749999999997726},{"name":"A5","midi":81,"time":456.37500000000006,"velocity":0.7480314960629921,"duration":0.33749999999997726},{"name":"F#5","midi":78,"time":456.37500000000006,"velocity":0.7480314960629921,"duration":0.33749999999997726},{"name":"D5","midi":74,"time":456.37500000000006,"velocity":0.7480314960629921,"duration":0.33749999999997726},{"name":"A4","midi":69,"time":456.37500000000006,"velocity":0.7480314960629921,"duration":0.33749999999997726},{"name":"D4","midi":62,"time":456.37500000000006,"velocity":0.7480314960629921,"duration":0.33749999999997726},{"name":"A4","midi":69,"time":456.75000000000006,"velocity":0.7480314960629921,"duration":0.5062500000000227},{"name":"D4","midi":62,"time":456.75000000000006,"velocity":0.7480314960629921,"duration":0.5062500000000227},{"name":"D5","midi":74,"time":456.75000000000006,"velocity":0.7480314960629921,"duration":0.5062500000000227},{"name":"F#5","midi":78,"time":456.75000000000006,"velocity":0.7480314960629921,"duration":0.5062500000000227},{"name":"A5","midi":81,"time":456.75000000000006,"velocity":0.7480314960629921,"duration":0.5062500000000227},{"name":"F#5","midi":78,"time":457.31250000000006,"velocity":0.7480314960629921,"duration":0.16874999999998863},{"name":"D5","midi":74,"time":457.31250000000006,"velocity":0.7480314960629921,"duration":0.16874999999998863},{"name":"A4","midi":69,"time":457.31250000000006,"velocity":0.7480314960629921,"duration":0.16874999999998863},{"name":"D4","midi":62,"time":457.31250000000006,"velocity":0.7480314960629921,"duration":0.16874999999998863},{"name":"A5","midi":81,"time":457.31250000000006,"velocity":0.7480314960629921,"duration":0.16874999999998863},{"name":"A5","midi":81,"time":457.50000000000006,"velocity":0.7480314960629921,"duration":0.33749999999997726},{"name":"F#5","midi":78,"time":457.50000000000006,"velocity":0.7480314960629921,"duration":0.33749999999997726},{"name":"D5","midi":74,"time":457.50000000000006,"velocity":0.7480314960629921,"duration":0.33749999999997726},{"name":"A4","midi":69,"time":457.50000000000006,"velocity":0.7480314960629921,"duration":0.33749999999997726},{"name":"D4","midi":62,"time":457.50000000000006,"velocity":0.7480314960629921,"duration":0.33749999999997726},{"name":"F#5","midi":78,"time":457.87500000000006,"velocity":0.7480314960629921,"duration":0.33749999999997726},{"name":"D5","midi":74,"time":457.87500000000006,"velocity":0.7480314960629921,"duration":0.33749999999997726},{"name":"A4","midi":69,"time":457.87500000000006,"velocity":0.7480314960629921,"duration":0.33749999999997726},{"name":"D4","midi":62,"time":457.87500000000006,"velocity":0.7480314960629921,"duration":0.33749999999997726},{"name":"A5","midi":81,"time":457.87500000000006,"velocity":0.7480314960629921,"duration":0.33749999999997726},{"name":"A4","midi":69,"time":458.25000000000006,"velocity":0.7480314960629921,"duration":0.5062500000000227},{"name":"D5","midi":74,"time":458.25000000000006,"velocity":0.7480314960629921,"duration":0.5062500000000227},{"name":"D4","midi":62,"time":458.25000000000006,"velocity":0.7480314960629921,"duration":0.5062500000000227},{"name":"F#5","midi":78,"time":458.25000000000006,"velocity":0.7480314960629921,"duration":0.5062500000000227},{"name":"A5","midi":81,"time":458.25000000000006,"velocity":0.7480314960629921,"duration":0.5062500000000227},{"name":"D4","midi":62,"time":458.81250000000006,"velocity":0.7480314960629921,"duration":0.16874999999998863},{"name":"A4","midi":69,"time":458.81250000000006,"velocity":0.7480314960629921,"duration":0.16874999999998863},{"name":"D5","midi":74,"time":458.81250000000006,"velocity":0.7480314960629921,"duration":0.16874999999998863},{"name":"F#5","midi":78,"time":458.81250000000006,"velocity":0.7480314960629921,"duration":0.16874999999998863},{"name":"A5","midi":81,"time":458.81250000000006,"velocity":0.7480314960629921,"duration":0.16874999999998863},{"name":"F#5","midi":78,"time":459.00000000000006,"velocity":0.7480314960629921,"duration":0.33749999999997726},{"name":"C#5","midi":73,"time":459.00000000000006,"velocity":0.7480314960629921,"duration":0.33749999999997726},{"name":"E4","midi":64,"time":459.00000000000006,"velocity":0.7480314960629921,"duration":0.33749999999997726},{"name":"A3","midi":57,"time":459.00000000000006,"velocity":0.7480314960629921,"duration":0.33749999999997726},{"name":"A4","midi":69,"time":459.00000000000006,"velocity":0.7480314960629921,"duration":0.33749999999997726},{"name":"A3","midi":57,"time":459.37500000000006,"velocity":0.7480314960629921,"duration":0.33749999999997726},{"name":"E4","midi":64,"time":459.37500000000006,"velocity":0.7480314960629921,"duration":0.33749999999997726},{"name":"A4","midi":69,"time":459.37500000000006,"velocity":0.7480314960629921,"duration":0.33749999999997726},{"name":"F#5","midi":78,"time":459.37500000000006,"velocity":0.7480314960629921,"duration":0.33749999999997726},{"name":"C#5","midi":73,"time":459.37500000000006,"velocity":0.7480314960629921,"duration":0.33749999999997726},{"name":"C#5","midi":73,"time":459.75000000000006,"velocity":0.7480314960629921,"duration":0.5062500000000227},{"name":"A4","midi":69,"time":459.75000000000006,"velocity":0.7480314960629921,"duration":0.5062500000000227},{"name":"E4","midi":64,"time":459.75000000000006,"velocity":0.7480314960629921,"duration":0.5062500000000227},{"name":"A3","midi":57,"time":459.75000000000006,"velocity":0.7480314960629921,"duration":0.5062500000000227},{"name":"E5","midi":76,"time":459.75000000000006,"velocity":0.7480314960629921,"duration":0.5062500000000227},{"name":"E4","midi":64,"time":460.31250000000006,"velocity":0.7480314960629921,"duration":0.16874999999998863},{"name":"A4","midi":69,"time":460.31250000000006,"velocity":0.7480314960629921,"duration":0.16874999999998863},{"name":"E5","midi":76,"time":460.31250000000006,"velocity":0.7480314960629921,"duration":0.16874999999998863},{"name":"A3","midi":57,"time":460.31250000000006,"velocity":0.7480314960629921,"duration":0.16874999999998863},{"name":"C#5","midi":73,"time":460.31250000000006,"velocity":0.7480314960629921,"duration":0.16874999999998863},{"name":"F#5","midi":78,"time":460.50000000000006,"velocity":0.7480314960629921,"duration":0.33749999999997726},{"name":"C#5","midi":73,"time":460.50000000000006,"velocity":0.7480314960629921,"duration":0.33749999999997726},{"name":"A4","midi":69,"time":460.50000000000006,"velocity":0.7480314960629921,"duration":0.33749999999997726},{"name":"E4","midi":64,"time":460.50000000000006,"velocity":0.7480314960629921,"duration":0.33749999999997726},{"name":"A3","midi":57,"time":460.50000000000006,"velocity":0.7480314960629921,"duration":0.33749999999997726},{"name":"F#5","midi":78,"time":460.87500000000006,"velocity":0.7480314960629921,"duration":0.33749999999997726},{"name":"A3","midi":57,"time":460.87500000000006,"velocity":0.7480314960629921,"duration":0.33749999999997726},{"name":"E4","midi":64,"time":460.87500000000006,"velocity":0.7480314960629921,"duration":0.33749999999997726},{"name":"A4","midi":69,"time":460.87500000000006,"velocity":0.7480314960629921,"duration":0.33749999999997726},{"name":"C#5","midi":73,"time":460.87500000000006,"velocity":0.7480314960629921,"duration":0.33749999999997726},{"name":"E4","midi":64,"time":461.25000000000006,"velocity":0.7480314960629921,"duration":0.5062500000000227},{"name":"A4","midi":69,"time":461.25000000000006,"velocity":0.7480314960629921,"duration":0.5062500000000227},{"name":"C#5","midi":73,"time":461.25000000000006,"velocity":0.7480314960629921,"duration":0.5062500000000227},{"name":"E5","midi":76,"time":461.25000000000006,"velocity":0.7480314960629921,"duration":0.5062500000000227},{"name":"A3","midi":57,"time":461.25000000000006,"velocity":0.7480314960629921,"duration":0.5062500000000227},{"name":"A4","midi":69,"time":461.81250000000006,"velocity":0.7480314960629921,"duration":0.16874999999998863},{"name":"A3","midi":57,"time":461.81250000000006,"velocity":0.7480314960629921,"duration":0.16874999999998863},{"name":"E5","midi":76,"time":461.81250000000006,"velocity":0.7480314960629921,"duration":0.16874999999998863},{"name":"E4","midi":64,"time":461.81250000000006,"velocity":0.7480314960629921,"duration":0.16874999999998863},{"name":"C#5","midi":73,"time":461.81250000000006,"velocity":0.7480314960629921,"duration":0.16874999999998863},{"name":"A3","midi":57,"time":462.00000000000006,"velocity":0.7480314960629921,"duration":0.33749999999997726},{"name":"E4","midi":64,"time":462.00000000000006,"velocity":0.7480314960629921,"duration":0.33749999999997726},{"name":"A4","midi":69,"time":462.00000000000006,"velocity":0.7480314960629921,"duration":0.33749999999997726},{"name":"C#5","midi":73,"time":462.00000000000006,"velocity":0.7480314960629921,"duration":0.33749999999997726},{"name":"F#5","midi":78,"time":462.00000000000006,"velocity":0.7480314960629921,"duration":0.33749999999997726},{"name":"E4","midi":64,"time":462.37500000000006,"velocity":0.7480314960629921,"duration":0.33749999999997726},{"name":"A3","midi":57,"time":462.37500000000006,"velocity":0.7480314960629921,"duration":0.33749999999997726},{"name":"A4","midi":69,"time":462.37500000000006,"velocity":0.7480314960629921,"duration":0.33749999999997726},{"name":"C#5","midi":73,"time":462.37500000000006,"velocity":0.7480314960629921,"duration":0.33749999999997726},{"name":"F#5","midi":78,"time":462.37500000000006,"velocity":0.7480314960629921,"duration":0.33749999999997726},{"name":"A4","midi":69,"time":462.75000000000006,"velocity":0.7480314960629921,"duration":0.5062500000000227},{"name":"A3","midi":57,"time":462.75000000000006,"velocity":0.7480314960629921,"duration":0.5062500000000227},{"name":"E4","midi":64,"time":462.75000000000006,"velocity":0.7480314960629921,"duration":0.5062500000000227},{"name":"C#5","midi":73,"time":462.75000000000006,"velocity":0.7480314960629921,"duration":0.5062500000000227},{"name":"E5","midi":76,"time":462.75000000000006,"velocity":0.7480314960629921,"duration":0.5062500000000227},{"name":"E4","midi":64,"time":463.31250000000006,"velocity":0.7480314960629921,"duration":0.16874999999998863},{"name":"A4","midi":69,"time":463.31250000000006,"velocity":0.7480314960629921,"duration":0.16874999999998863},{"name":"E5","midi":76,"time":463.31250000000006,"velocity":0.7480314960629921,"duration":0.16874999999998863},{"name":"C#5","midi":73,"time":463.31250000000006,"velocity":0.7480314960629921,"duration":0.16874999999998863},{"name":"A3","midi":57,"time":463.31250000000006,"velocity":0.7480314960629921,"duration":0.16874999999998863},{"name":"E4","midi":64,"time":463.50000000000006,"velocity":0.7480314960629921,"duration":0.33749999999997726},{"name":"F#5","midi":78,"time":463.50000000000006,"velocity":0.7480314960629921,"duration":0.33749999999997726},{"name":"A3","midi":57,"time":463.50000000000006,"velocity":0.7480314960629921,"duration":0.33749999999997726},{"name":"A4","midi":69,"time":463.50000000000006,"velocity":0.7480314960629921,"duration":0.33749999999997726},{"name":"C#5","midi":73,"time":463.50000000000006,"velocity":0.7480314960629921,"duration":0.33749999999997726},{"name":"A4","midi":69,"time":463.87500000000006,"velocity":0.7480314960629921,"duration":0.33749999999997726},{"name":"F#5","midi":78,"time":463.87500000000006,"velocity":0.7480314960629921,"duration":0.33749999999997726},{"name":"E4","midi":64,"time":463.87500000000006,"velocity":0.7480314960629921,"duration":0.33749999999997726},{"name":"A3","midi":57,"time":463.87500000000006,"velocity":0.7480314960629921,"duration":0.33749999999997726},{"name":"C#5","midi":73,"time":463.87500000000006,"velocity":0.7480314960629921,"duration":0.33749999999997726},{"name":"E5","midi":76,"time":464.25000000000006,"velocity":0.7480314960629921,"duration":0.5062500000000227},{"name":"A4","midi":69,"time":464.25000000000006,"velocity":0.7480314960629921,"duration":0.5062500000000227},{"name":"E4","midi":64,"time":464.25000000000006,"velocity":0.7480314960629921,"duration":0.5062500000000227},{"name":"A3","midi":57,"time":464.25000000000006,"velocity":0.7480314960629921,"duration":0.5062500000000227},{"name":"C#5","midi":73,"time":464.25000000000006,"velocity":0.7480314960629921,"duration":0.5062500000000227},{"name":"E5","midi":76,"time":464.81250000000006,"velocity":0.7480314960629921,"duration":0.16874999999998863},{"name":"A3","midi":57,"time":464.81250000000006,"velocity":0.7480314960629921,"duration":0.16874999999998863},{"name":"C#5","midi":73,"time":464.81250000000006,"velocity":0.7480314960629921,"duration":0.16874999999998863},{"name":"A4","midi":69,"time":464.81250000000006,"velocity":0.7480314960629921,"duration":0.16874999999998863},{"name":"E4","midi":64,"time":464.81250000000006,"velocity":0.7480314960629921,"duration":0.16874999999998863},{"name":"F#5","midi":78,"time":465.00000000000006,"velocity":0.7480314960629921,"duration":0.33749999999997726},{"name":"D5","midi":74,"time":465.00000000000006,"velocity":0.7480314960629921,"duration":0.33749999999997726},{"name":"D4","midi":62,"time":465.00000000000006,"velocity":0.7480314960629921,"duration":0.33749999999997726},{"name":"A4","midi":69,"time":465.00000000000006,"velocity":0.7480314960629921,"duration":0.33749999999997726},{"name":"A4","midi":69,"time":465.37500000000006,"velocity":0.7480314960629921,"duration":0.33749999999997726},{"name":"D4","midi":62,"time":465.37500000000006,"velocity":0.7480314960629921,"duration":0.33749999999997726},{"name":"F#5","midi":78,"time":465.37500000000006,"velocity":0.7480314960629921,"duration":0.33749999999997726},{"name":"D5","midi":74,"time":465.37500000000006,"velocity":0.7480314960629921,"duration":0.33749999999997726},{"name":"A4","midi":69,"time":465.75000000000006,"velocity":0.7480314960629921,"duration":0.5062500000000227},{"name":"D5","midi":74,"time":465.75000000000006,"velocity":0.7480314960629921,"duration":0.5062500000000227},{"name":"E5","midi":76,"time":465.75000000000006,"velocity":0.7480314960629921,"duration":0.5062500000000227},{"name":"D4","midi":62,"time":465.75000000000006,"velocity":0.7480314960629921,"duration":0.5062500000000227},{"name":"D4","midi":62,"time":466.31250000000006,"velocity":0.7480314960629921,"duration":0.16874999999998863},{"name":"A4","midi":69,"time":466.31250000000006,"velocity":0.7480314960629921,"duration":0.16874999999998863},{"name":"D5","midi":74,"time":466.31250000000006,"velocity":0.7480314960629921,"duration":0.16874999999998863},{"name":"E5","midi":76,"time":466.31250000000006,"velocity":0.7480314960629921,"duration":0.16874999999998863},{"name":"A4","midi":69,"time":466.50000000000006,"velocity":0.7480314960629921,"duration":0.33749999999997726},{"name":"D4","midi":62,"time":466.50000000000006,"velocity":0.7480314960629921,"duration":0.33749999999997726},{"name":"F#5","midi":78,"time":466.50000000000006,"velocity":0.7480314960629921,"duration":0.33749999999997726},{"name":"D5","midi":74,"time":466.50000000000006,"velocity":0.7480314960629921,"duration":0.33749999999997726},{"name":"D4","midi":62,"time":466.87500000000006,"velocity":0.7480314960629921,"duration":0.33749999999997726},{"name":"D5","midi":74,"time":466.87500000000006,"velocity":0.7480314960629921,"duration":0.33749999999997726},{"name":"F#5","midi":78,"time":466.87500000000006,"velocity":0.7480314960629921,"duration":0.33749999999997726},{"name":"A4","midi":69,"time":466.87500000000006,"velocity":0.7480314960629921,"duration":0.33749999999997726},{"name":"E5","midi":76,"time":467.25000000000006,"velocity":0.7480314960629921,"duration":0.5062500000000227},{"name":"D5","midi":74,"time":467.25000000000006,"velocity":0.7480314960629921,"duration":0.5062500000000227},{"name":"D4","midi":62,"time":467.25000000000006,"velocity":0.7480314960629921,"duration":0.5062500000000227},{"name":"A4","midi":69,"time":467.25000000000006,"velocity":0.7480314960629921,"duration":0.5062500000000227},{"name":"A4","midi":69,"time":467.81250000000006,"velocity":0.7480314960629921,"duration":0.16874999999998863},{"name":"E5","midi":76,"time":467.81250000000006,"velocity":0.7480314960629921,"duration":0.16874999999998863},{"name":"D5","midi":74,"time":467.81250000000006,"velocity":0.7480314960629921,"duration":0.16874999999998863},{"name":"D4","midi":62,"time":467.81250000000006,"velocity":0.7480314960629921,"duration":0.16874999999998863},{"name":"E5","midi":76,"time":468.00000000000006,"velocity":0.7480314960629921,"duration":0.33749999999997726},{"name":"D5","midi":74,"time":468.00000000000006,"velocity":0.7480314960629921,"duration":0.33749999999997726},{"name":"A4","midi":69,"time":468.00000000000006,"velocity":0.7480314960629921,"duration":0.33749999999997726},{"name":"D4","midi":62,"time":468.00000000000006,"velocity":0.7480314960629921,"duration":0.33749999999997726},{"name":"A4","midi":69,"time":468.37500000000006,"velocity":0.7480314960629921,"duration":0.33749999999997726},{"name":"D4","midi":62,"time":468.37500000000006,"velocity":0.7480314960629921,"duration":0.33749999999997726},{"name":"D5","midi":74,"time":468.37500000000006,"velocity":0.7480314960629921,"duration":0.33749999999997726},{"name":"E5","midi":76,"time":468.37500000000006,"velocity":0.7480314960629921,"duration":0.33749999999997726},{"name":"E5","midi":76,"time":468.75000000000006,"velocity":0.7480314960629921,"duration":0.5062500000000227},{"name":"A4","midi":69,"time":468.75000000000006,"velocity":0.7480314960629921,"duration":0.5062500000000227},{"name":"D4","midi":62,"time":468.75000000000006,"velocity":0.7480314960629921,"duration":0.5062500000000227},{"name":"D5","midi":74,"time":468.75000000000006,"velocity":0.7480314960629921,"duration":0.5062500000000227},{"name":"D5","midi":74,"time":469.31250000000006,"velocity":0.7480314960629921,"duration":0.16874999999998863},{"name":"E5","midi":76,"time":469.31250000000006,"velocity":0.7480314960629921,"duration":0.16874999999998863},{"name":"D4","midi":62,"time":469.31250000000006,"velocity":0.7480314960629921,"duration":0.16874999999998863},{"name":"A4","midi":69,"time":469.31250000000006,"velocity":0.7480314960629921,"duration":0.16874999999998863},{"name":"D5","midi":74,"time":469.50000000000006,"velocity":0.7480314960629921,"duration":0.33749999999997726},{"name":"D4","midi":62,"time":469.50000000000006,"velocity":0.7480314960629921,"duration":0.33749999999997726},{"name":"A4","midi":69,"time":469.50000000000006,"velocity":0.7480314960629921,"duration":0.33749999999997726},{"name":"F#5","midi":78,"time":469.50000000000006,"velocity":0.7480314960629921,"duration":0.33749999999997726},{"name":"A4","midi":69,"time":469.87500000000006,"velocity":0.7480314960629921,"duration":0.33749999999997726},{"name":"D5","midi":74,"time":469.87500000000006,"velocity":0.7480314960629921,"duration":0.33749999999997726},{"name":"F#5","midi":78,"time":469.87500000000006,"velocity":0.7480314960629921,"duration":0.33749999999997726},{"name":"D4","midi":62,"time":469.87500000000006,"velocity":0.7480314960629921,"duration":0.33749999999997726},{"name":"E5","midi":76,"time":470.25000000000006,"velocity":0.7480314960629921,"duration":0.5062500000000227},{"name":"D5","midi":74,"time":470.25000000000006,"velocity":0.7480314960629921,"duration":0.5062500000000227},{"name":"A4","midi":69,"time":470.25000000000006,"velocity":0.7480314960629921,"duration":0.5062500000000227},{"name":"D4","midi":62,"time":470.25000000000006,"velocity":0.7480314960629921,"duration":0.5062500000000227},{"name":"E5","midi":76,"time":470.81250000000006,"velocity":0.7480314960629921,"duration":0.16874999999998863},{"name":"D4","midi":62,"time":470.81250000000006,"velocity":0.7480314960629921,"duration":0.16874999999998863},{"name":"A4","midi":69,"time":470.81250000000006,"velocity":0.7480314960629921,"duration":0.16874999999998863},{"name":"D5","midi":74,"time":470.81250000000006,"velocity":0.7480314960629921,"duration":0.16874999999998863},{"name":"B3","midi":59,"time":471.00000000000006,"velocity":0.7480314960629921,"duration":0.33749999999997726},{"name":"F#4","midi":66,"time":471.00000000000006,"velocity":0.7480314960629921,"duration":0.33749999999997726},{"name":"B4","midi":71,"time":471.00000000000006,"velocity":0.7480314960629921,"duration":0.33749999999997726},{"name":"D5","midi":74,"time":471.00000000000006,"velocity":0.7480314960629921,"duration":0.33749999999997726},{"name":"F#5","midi":78,"time":471.00000000000006,"velocity":0.7480314960629921,"duration":0.33749999999997726},{"name":"B3","midi":59,"time":471.37500000000006,"velocity":0.7480314960629921,"duration":0.33749999999997726},{"name":"B4","midi":71,"time":471.37500000000006,"velocity":0.7480314960629921,"duration":0.33749999999997726},{"name":"D5","midi":74,"time":471.37500000000006,"velocity":0.7480314960629921,"duration":0.33749999999997726},{"name":"F#5","midi":78,"time":471.37500000000006,"velocity":0.7480314960629921,"duration":0.33749999999997726},{"name":"F#4","midi":66,"time":471.37500000000006,"velocity":0.7480314960629921,"duration":0.33749999999997726},{"name":"F#4","midi":66,"time":471.75000000000006,"velocity":0.7480314960629921,"duration":0.5062500000000227},{"name":"E5","midi":76,"time":471.75000000000006,"velocity":0.7480314960629921,"duration":0.5062500000000227},{"name":"D5","midi":74,"time":471.75000000000006,"velocity":0.7480314960629921,"duration":0.5062500000000227},{"name":"B4","midi":71,"time":471.75000000000006,"velocity":0.7480314960629921,"duration":0.5062500000000227},{"name":"B3","midi":59,"time":471.75000000000006,"velocity":0.7480314960629921,"duration":0.5062500000000227},{"name":"B3","midi":59,"time":472.31250000000006,"velocity":0.7480314960629921,"duration":0.16874999999998863},{"name":"F#4","midi":66,"time":472.31250000000006,"velocity":0.7480314960629921,"duration":0.16874999999998863},{"name":"B4","midi":71,"time":472.31250000000006,"velocity":0.7480314960629921,"duration":0.16874999999998863},{"name":"D5","midi":74,"time":472.31250000000006,"velocity":0.7480314960629921,"duration":0.16874999999998863},{"name":"E5","midi":76,"time":472.31250000000006,"velocity":0.7480314960629921,"duration":0.16874999999998863},{"name":"F#5","midi":78,"time":472.50000000000006,"velocity":0.7480314960629921,"duration":0.33749999999997726},{"name":"B3","midi":59,"time":472.50000000000006,"velocity":0.7480314960629921,"duration":0.33749999999997726},{"name":"F#4","midi":66,"time":472.50000000000006,"velocity":0.7480314960629921,"duration":0.33749999999997726},{"name":"B4","midi":71,"time":472.50000000000006,"velocity":0.7480314960629921,"duration":0.33749999999997726},{"name":"D5","midi":74,"time":472.50000000000006,"velocity":0.7480314960629921,"duration":0.33749999999997726},{"name":"F#5","midi":78,"time":472.87500000000006,"velocity":0.7480314960629921,"duration":0.33749999999997726},{"name":"B3","midi":59,"time":472.87500000000006,"velocity":0.7480314960629921,"duration":0.33749999999997726},{"name":"F#4","midi":66,"time":472.87500000000006,"velocity":0.7480314960629921,"duration":0.33749999999997726},{"name":"B4","midi":71,"time":472.87500000000006,"velocity":0.7480314960629921,"duration":0.33749999999997726},{"name":"D5","midi":74,"time":472.87500000000006,"velocity":0.7480314960629921,"duration":0.33749999999997726},{"name":"B3","midi":59,"time":473.25000000000006,"velocity":0.7480314960629921,"duration":0.5062500000000227},{"name":"F#4","midi":66,"time":473.25000000000006,"velocity":0.7480314960629921,"duration":0.5062500000000227},{"name":"B4","midi":71,"time":473.25000000000006,"velocity":0.7480314960629921,"duration":0.5062500000000227},{"name":"D5","midi":74,"time":473.25000000000006,"velocity":0.7480314960629921,"duration":0.5062500000000227},{"name":"E5","midi":76,"time":473.25000000000006,"velocity":0.7480314960629921,"duration":0.5062500000000227},{"name":"F#4","midi":66,"time":473.81250000000006,"velocity":0.7480314960629921,"duration":0.16874999999998863},{"name":"B4","midi":71,"time":473.81250000000006,"velocity":0.7480314960629921,"duration":0.16874999999998863},{"name":"D5","midi":74,"time":473.81250000000006,"velocity":0.7480314960629921,"duration":0.16874999999998863},{"name":"E5","midi":76,"time":473.81250000000006,"velocity":0.7480314960629921,"duration":0.16874999999998863},{"name":"B3","midi":59,"time":473.81250000000006,"velocity":0.7480314960629921,"duration":0.16874999999998863},{"name":"F#5","midi":78,"time":474.00000000000006,"velocity":0.7480314960629921,"duration":0.33749999999997726},{"name":"B4","midi":71,"time":474.00000000000006,"velocity":0.7480314960629921,"duration":0.33749999999997726},{"name":"G#4","midi":68,"time":474.00000000000006,"velocity":0.7480314960629921,"duration":0.33749999999997726},{"name":"C#4","midi":61,"time":474.00000000000006,"velocity":0.7480314960629921,"duration":0.33749999999997726},{"name":"C#4","midi":61,"time":474.37500000000006,"velocity":0.7480314960629921,"duration":0.33749999999997726},{"name":"G#4","midi":68,"time":474.37500000000006,"velocity":0.7480314960629921,"duration":0.33749999999997726},{"name":"B4","midi":71,"time":474.37500000000006,"velocity":0.7480314960629921,"duration":0.33749999999997726},{"name":"F#5","midi":78,"time":474.37500000000006,"velocity":0.7480314960629921,"duration":0.33749999999997726},{"name":"B4","midi":71,"time":474.75000000000006,"velocity":0.7480314960629921,"duration":0.5062500000000227},{"name":"E5","midi":76,"time":474.75000000000006,"velocity":0.7480314960629921,"duration":0.5062500000000227},{"name":"C#4","midi":61,"time":474.75000000000006,"velocity":0.7480314960629921,"duration":0.5062500000000227},{"name":"G#4","midi":68,"time":474.75000000000006,"velocity":0.7480314960629921,"duration":0.5062500000000227},{"name":"B4","midi":71,"time":475.31250000000006,"velocity":0.7480314960629921,"duration":0.16874999999998863},{"name":"E5","midi":76,"time":475.31250000000006,"velocity":0.7480314960629921,"duration":0.16874999999998863},{"name":"C#4","midi":61,"time":475.31250000000006,"velocity":0.7480314960629921,"duration":0.16874999999998863},{"name":"G#4","midi":68,"time":475.31250000000006,"velocity":0.7480314960629921,"duration":0.16874999999998863},{"name":"F#5","midi":78,"time":475.50000000000006,"velocity":0.7480314960629921,"duration":0.33749999999997726},{"name":"B4","midi":71,"time":475.50000000000006,"velocity":0.7480314960629921,"duration":0.33749999999997726},{"name":"G#4","midi":68,"time":475.50000000000006,"velocity":0.7480314960629921,"duration":0.33749999999997726},{"name":"C#4","midi":61,"time":475.50000000000006,"velocity":0.7480314960629921,"duration":0.33749999999997726},{"name":"F#5","midi":78,"time":475.87500000000006,"velocity":0.7480314960629921,"duration":0.33749999999997726},{"name":"B4","midi":71,"time":475.87500000000006,"velocity":0.7480314960629921,"duration":0.33749999999997726},{"name":"G#4","midi":68,"time":475.87500000000006,"velocity":0.7480314960629921,"duration":0.33749999999997726},{"name":"C#4","midi":61,"time":475.87500000000006,"velocity":0.7480314960629921,"duration":0.33749999999997726},{"name":"E5","midi":76,"time":476.25000000000006,"velocity":0.7480314960629921,"duration":0.5062500000000227},{"name":"G#4","midi":68,"time":476.25000000000006,"velocity":0.7480314960629921,"duration":0.5062500000000227},{"name":"C#4","midi":61,"time":476.25000000000006,"velocity":0.7480314960629921,"duration":0.5062500000000227},{"name":"B4","midi":71,"time":476.25000000000006,"velocity":0.7480314960629921,"duration":0.5062500000000227},{"name":"B4","midi":71,"time":476.81250000000006,"velocity":0.7480314960629921,"duration":0.16874999999998863},{"name":"E5","midi":76,"time":476.81250000000006,"velocity":0.7480314960629921,"duration":0.16874999999998863},{"name":"G#4","midi":68,"time":476.81250000000006,"velocity":0.7480314960629921,"duration":0.16874999999998863},{"name":"C#4","midi":61,"time":476.81250000000006,"velocity":0.7480314960629921,"duration":0.16874999999998863},{"name":"A5","midi":81,"time":477.00000000000006,"velocity":0.7480314960629921,"duration":0.33749999999997726},{"name":"F#5","midi":78,"time":477.00000000000006,"velocity":0.7480314960629921,"duration":0.33749999999997726},{"name":"D5","midi":74,"time":477.00000000000006,"velocity":0.7480314960629921,"duration":0.33749999999997726},{"name":"A4","midi":69,"time":477.00000000000006,"velocity":0.7480314960629921,"duration":0.33749999999997726},{"name":"D4","midi":62,"time":477.00000000000006,"velocity":0.7480314960629921,"duration":0.33749999999997726},{"name":"D4","midi":62,"time":477.37500000000006,"velocity":0.7480314960629921,"duration":0.33749999999997726},{"name":"D5","midi":74,"time":477.37500000000006,"velocity":0.7480314960629921,"duration":0.33749999999997726},{"name":"F#5","midi":78,"time":477.37500000000006,"velocity":0.7480314960629921,"duration":0.33749999999997726},{"name":"A5","midi":81,"time":477.37500000000006,"velocity":0.7480314960629921,"duration":0.33749999999997726},{"name":"A4","midi":69,"time":477.37500000000006,"velocity":0.7480314960629921,"duration":0.33749999999997726},{"name":"F#5","midi":78,"time":477.75000000000006,"velocity":0.7480314960629921,"duration":0.5062500000000227},{"name":"A5","midi":81,"time":477.75000000000006,"velocity":0.7480314960629921,"duration":0.5062500000000227},{"name":"D5","midi":74,"time":477.75000000000006,"velocity":0.7480314960629921,"duration":0.5062500000000227},{"name":"D4","midi":62,"time":477.75000000000006,"velocity":0.7480314960629921,"duration":0.5062500000000227},{"name":"A4","midi":69,"time":477.75000000000006,"velocity":0.7480314960629921,"duration":0.5062500000000227},{"name":"A4","midi":69,"time":478.31250000000006,"velocity":0.7480314960629921,"duration":0.16874999999998863},{"name":"D5","midi":74,"time":478.31250000000006,"velocity":0.7480314960629921,"duration":0.16874999999998863},{"name":"F#5","midi":78,"time":478.31250000000006,"velocity":0.7480314960629921,"duration":0.16874999999998863},{"name":"D4","midi":62,"time":478.31250000000006,"velocity":0.7480314960629921,"duration":0.16874999999998863},{"name":"A5","midi":81,"time":478.31250000000006,"velocity":0.7480314960629921,"duration":0.16874999999998863},{"name":"A4","midi":69,"time":478.50000000000006,"velocity":0.7480314960629921,"duration":0.33749999999997726},{"name":"D5","midi":74,"time":478.50000000000006,"velocity":0.7480314960629921,"duration":0.33749999999997726},{"name":"D4","midi":62,"time":478.50000000000006,"velocity":0.7480314960629921,"duration":0.33749999999997726},{"name":"A5","midi":81,"time":478.50000000000006,"velocity":0.7480314960629921,"duration":0.33749999999997726},{"name":"F#5","midi":78,"time":478.50000000000006,"velocity":0.7480314960629921,"duration":0.33749999999997726},{"name":"A5","midi":81,"time":478.87500000000006,"velocity":0.7480314960629921,"duration":0.33749999999997726},{"name":"F#5","midi":78,"time":478.87500000000006,"velocity":0.7480314960629921,"duration":0.33749999999997726},{"name":"D5","midi":74,"time":478.87500000000006,"velocity":0.7480314960629921,"duration":0.33749999999997726},{"name":"A4","midi":69,"time":478.87500000000006,"velocity":0.7480314960629921,"duration":0.33749999999997726},{"name":"D4","midi":62,"time":478.87500000000006,"velocity":0.7480314960629921,"duration":0.33749999999997726},{"name":"F#5","midi":78,"time":479.25000000000006,"velocity":0.7480314960629921,"duration":0.5062500000000227},{"name":"A5","midi":81,"time":479.25000000000006,"velocity":0.7480314960629921,"duration":0.5062500000000227},{"name":"D4","midi":62,"time":479.25000000000006,"velocity":0.7480314960629921,"duration":0.5062500000000227},{"name":"A4","midi":69,"time":479.25000000000006,"velocity":0.7480314960629921,"duration":0.5062500000000227},{"name":"D5","midi":74,"time":479.25000000000006,"velocity":0.7480314960629921,"duration":0.5062500000000227},{"name":"A5","midi":81,"time":479.81250000000006,"velocity":0.7480314960629921,"duration":0.16874999999998863},{"name":"D5","midi":74,"time":479.81250000000006,"velocity":0.7480314960629921,"duration":0.16874999999998863},{"name":"A4","midi":69,"time":479.81250000000006,"velocity":0.7480314960629921,"duration":0.16874999999998863},{"name":"D4","midi":62,"time":479.81250000000006,"velocity":0.7480314960629921,"duration":0.16874999999998863},{"name":"F#5","midi":78,"time":479.81250000000006,"velocity":0.7480314960629921,"duration":0.16874999999998863},{"name":"D4","midi":62,"time":480.00000000000006,"velocity":0.7480314960629921,"duration":0.33749999999997726},{"name":"A4","midi":69,"time":480.00000000000006,"velocity":0.7480314960629921,"duration":0.33749999999997726},{"name":"D5","midi":74,"time":480.00000000000006,"velocity":0.7480314960629921,"duration":0.33749999999997726},{"name":"F#5","midi":78,"time":480.00000000000006,"velocity":0.7480314960629921,"duration":0.33749999999997726},{"name":"A5","midi":81,"time":480.00000000000006,"velocity":0.7480314960629921,"duration":0.33749999999997726},{"name":"D5","midi":74,"time":480.37500000000006,"velocity":0.7480314960629921,"duration":0.33749999999997726},{"name":"F#5","midi":78,"time":480.37500000000006,"velocity":0.7480314960629921,"duration":0.33749999999997726},{"name":"A4","midi":69,"time":480.37500000000006,"velocity":0.7480314960629921,"duration":0.33749999999997726},{"name":"A5","midi":81,"time":480.37500000000006,"velocity":0.7480314960629921,"duration":0.33749999999997726},{"name":"D4","midi":62,"time":480.37500000000006,"velocity":0.7480314960629921,"duration":0.33749999999997726},{"name":"F#5","midi":78,"time":480.75000000000006,"velocity":0.7480314960629921,"duration":0.5062500000000227},{"name":"D4","midi":62,"time":480.75000000000006,"velocity":0.7480314960629921,"duration":0.5062500000000227},{"name":"D5","midi":74,"time":480.75000000000006,"velocity":0.7480314960629921,"duration":0.5062500000000227},{"name":"A4","midi":69,"time":480.75000000000006,"velocity":0.7480314960629921,"duration":0.5062500000000227},{"name":"A5","midi":81,"time":480.75000000000006,"velocity":0.7480314960629921,"duration":0.5062500000000227},{"name":"A4","midi":69,"time":481.31250000000006,"velocity":0.7480314960629921,"duration":0.16874999999998863},{"name":"D5","midi":74,"time":481.31250000000006,"velocity":0.7480314960629921,"duration":0.16874999999998863},{"name":"F#5","midi":78,"time":481.31250000000006,"velocity":0.7480314960629921,"duration":0.16874999999998863},{"name":"A5","midi":81,"time":481.31250000000006,"velocity":0.7480314960629921,"duration":0.16874999999998863},{"name":"D4","midi":62,"time":481.31250000000006,"velocity":0.7480314960629921,"duration":0.16874999999998863},{"name":"A5","midi":81,"time":481.50000000000006,"velocity":0.7480314960629921,"duration":0.33749999999997726},{"name":"D4","midi":62,"time":481.50000000000006,"velocity":0.7480314960629921,"duration":0.33749999999997726},{"name":"A4","midi":69,"time":481.50000000000006,"velocity":0.7480314960629921,"duration":0.33749999999997726},{"name":"D5","midi":74,"time":481.50000000000006,"velocity":0.7480314960629921,"duration":0.33749999999997726},{"name":"F#5","midi":78,"time":481.50000000000006,"velocity":0.7480314960629921,"duration":0.33749999999997726},{"name":"A5","midi":81,"time":481.87500000000006,"velocity":0.7480314960629921,"duration":0.33749999999997726},{"name":"D5","midi":74,"time":481.87500000000006,"velocity":0.7480314960629921,"duration":0.33749999999997726},{"name":"A4","midi":69,"time":481.87500000000006,"velocity":0.7480314960629921,"duration":0.33749999999997726},{"name":"D4","midi":62,"time":481.87500000000006,"velocity":0.7480314960629921,"duration":0.33749999999997726},{"name":"F#5","midi":78,"time":481.87500000000006,"velocity":0.7480314960629921,"duration":0.33749999999997726},{"name":"D4","midi":62,"time":482.25000000000006,"velocity":0.7480314960629921,"duration":0.5062500000000227},{"name":"A4","midi":69,"time":482.25000000000006,"velocity":0.7480314960629921,"duration":0.5062500000000227},{"name":"D5","midi":74,"time":482.25000000000006,"velocity":0.7480314960629921,"duration":0.5062500000000227},{"name":"F#5","midi":78,"time":482.25000000000006,"velocity":0.7480314960629921,"duration":0.5062500000000227},{"name":"A5","midi":81,"time":482.25000000000006,"velocity":0.7480314960629921,"duration":0.5062500000000227},{"name":"A5","midi":81,"time":482.81250000000006,"velocity":0.7480314960629921,"duration":0.16874999999998863},{"name":"D4","midi":62,"time":482.81250000000006,"velocity":0.7480314960629921,"duration":0.16874999999998863},{"name":"F#5","midi":78,"time":482.81250000000006,"velocity":0.7480314960629921,"duration":0.16874999999998863},{"name":"D5","midi":74,"time":482.81250000000006,"velocity":0.7480314960629921,"duration":0.16874999999998863},{"name":"A4","midi":69,"time":482.81250000000006,"velocity":0.7480314960629921,"duration":0.16874999999998863},{"name":"A3","midi":57,"time":483.00000000000006,"velocity":0.7480314960629921,"duration":0.33749999999997726},{"name":"E4","midi":64,"time":483.00000000000006,"velocity":0.7480314960629921,"duration":0.33749999999997726},{"name":"A4","midi":69,"time":483.00000000000006,"velocity":0.7480314960629921,"duration":0.33749999999997726},{"name":"C#5","midi":73,"time":483.00000000000006,"velocity":0.7480314960629921,"duration":0.33749999999997726},{"name":"F#5","midi":78,"time":483.00000000000006,"velocity":0.7480314960629921,"duration":0.33749999999997726},{"name":"A4","midi":69,"time":483.37500000000006,"velocity":0.7480314960629921,"duration":0.33749999999997726},{"name":"C#5","midi":73,"time":483.37500000000006,"velocity":0.7480314960629921,"duration":0.33749999999997726},{"name":"E4","midi":64,"time":483.37500000000006,"velocity":0.7480314960629921,"duration":0.33749999999997726},{"name":"F#5","midi":78,"time":483.37500000000006,"velocity":0.7480314960629921,"duration":0.33749999999997726},{"name":"A3","midi":57,"time":483.37500000000006,"velocity":0.7480314960629921,"duration":0.33749999999997726},{"name":"E4","midi":64,"time":483.75000000000006,"velocity":0.7480314960629921,"duration":0.5062500000000227},{"name":"E5","midi":76,"time":483.75000000000006,"velocity":0.7480314960629921,"duration":0.5062500000000227},{"name":"C#5","midi":73,"time":483.75000000000006,"velocity":0.7480314960629921,"duration":0.5062500000000227},{"name":"A4","midi":69,"time":483.75000000000006,"velocity":0.7480314960629921,"duration":0.5062500000000227},{"name":"A3","midi":57,"time":483.75000000000006,"velocity":0.7480314960629921,"duration":0.5062500000000227},{"name":"A4","midi":69,"time":484.31250000000006,"velocity":0.7480314960629921,"duration":0.16874999999998863},{"name":"E5","midi":76,"time":484.31250000000006,"velocity":0.7480314960629921,"duration":0.16874999999998863},{"name":"A3","midi":57,"time":484.31250000000006,"velocity":0.7480314960629921,"duration":0.16874999999998863},{"name":"E4","midi":64,"time":484.31250000000006,"velocity":0.7480314960629921,"duration":0.16874999999998863},{"name":"C#5","midi":73,"time":484.31250000000006,"velocity":0.7480314960629921,"duration":0.16874999999998863},{"name":"E4","midi":64,"time":484.50000000000006,"velocity":0.7480314960629921,"duration":0.33749999999997726},{"name":"A4","midi":69,"time":484.50000000000006,"velocity":0.7480314960629921,"duration":0.33749999999997726},{"name":"C#5","midi":73,"time":484.50000000000006,"velocity":0.7480314960629921,"duration":0.33749999999997726},{"name":"F#5","midi":78,"time":484.50000000000006,"velocity":0.7480314960629921,"duration":0.33749999999997726},{"name":"A3","midi":57,"time":484.50000000000006,"velocity":0.7480314960629921,"duration":0.33749999999997726},{"name":"A3","midi":57,"time":484.87500000000006,"velocity":0.7480314960629921,"duration":0.33749999999997726},{"name":"E4","midi":64,"time":484.87500000000006,"velocity":0.7480314960629921,"duration":0.33749999999997726},{"name":"A4","midi":69,"time":484.87500000000006,"velocity":0.7480314960629921,"duration":0.33749999999997726},{"name":"C#5","midi":73,"time":484.87500000000006,"velocity":0.7480314960629921,"duration":0.33749999999997726},{"name":"F#5","midi":78,"time":484.87500000000006,"velocity":0.7480314960629921,"duration":0.33749999999997726},{"name":"E5","midi":76,"time":485.25000000000006,"velocity":0.7480314960629921,"duration":0.5062500000000227},{"name":"C#5","midi":73,"time":485.25000000000006,"velocity":0.7480314960629921,"duration":0.5062500000000227},{"name":"A3","midi":57,"time":485.25000000000006,"velocity":0.7480314960629921,"duration":0.5062500000000227},{"name":"E4","midi":64,"time":485.25000000000006,"velocity":0.7480314960629921,"duration":0.5062500000000227},{"name":"A4","midi":69,"time":485.25000000000006,"velocity":0.7480314960629921,"duration":0.5062500000000227},{"name":"A4","midi":69,"time":485.81250000000006,"velocity":0.7480314960629921,"duration":0.16874999999998863},{"name":"C#5","midi":73,"time":485.81250000000006,"velocity":0.7480314960629921,"duration":0.16874999999998863},{"name":"E5","midi":76,"time":485.81250000000006,"velocity":0.7480314960629921,"duration":0.16874999999998863},{"name":"A3","midi":57,"time":485.81250000000006,"velocity":0.7480314960629921,"duration":0.16874999999998863},{"name":"E4","midi":64,"time":485.81250000000006,"velocity":0.7480314960629921,"duration":0.16874999999998863},{"name":"A3","midi":57,"time":486.00000000000006,"velocity":0.7480314960629921,"duration":0.33749999999997726},{"name":"E4","midi":64,"time":486.00000000000006,"velocity":0.7480314960629921,"duration":0.33749999999997726},{"name":"A4","midi":69,"time":486.00000000000006,"velocity":0.7480314960629921,"duration":0.33749999999997726},{"name":"C#5","midi":73,"time":486.00000000000006,"velocity":0.7480314960629921,"duration":0.33749999999997726},{"name":"F#5","midi":78,"time":486.00000000000006,"velocity":0.7480314960629921,"duration":0.33749999999997726},{"name":"C#5","midi":73,"time":486.37500000000006,"velocity":0.7480314960629921,"duration":0.33749999999997726},{"name":"F#5","midi":78,"time":486.37500000000006,"velocity":0.7480314960629921,"duration":0.33749999999997726},{"name":"A4","midi":69,"time":486.37500000000006,"velocity":0.7480314960629921,"duration":0.33749999999997726},{"name":"E4","midi":64,"time":486.37500000000006,"velocity":0.7480314960629921,"duration":0.33749999999997726},{"name":"A3","midi":57,"time":486.37500000000006,"velocity":0.7480314960629921,"duration":0.33749999999997726},{"name":"A3","midi":57,"time":486.75000000000006,"velocity":0.7480314960629921,"duration":0.5062500000000227},{"name":"E4","midi":64,"time":486.75000000000006,"velocity":0.7480314960629921,"duration":0.5062500000000227},{"name":"A4","midi":69,"time":486.75000000000006,"velocity":0.7480314960629921,"duration":0.5062500000000227},{"name":"C#5","midi":73,"time":486.75000000000006,"velocity":0.7480314960629921,"duration":0.5062500000000227},{"name":"E5","midi":76,"time":486.75000000000006,"velocity":0.7480314960629921,"duration":0.5062500000000227},{"name":"C#5","midi":73,"time":487.31250000000006,"velocity":0.7480314960629921,"duration":0.16874999999998863},{"name":"A4","midi":69,"time":487.31250000000006,"velocity":0.7480314960629921,"duration":0.16874999999998863},{"name":"E4","midi":64,"time":487.31250000000006,"velocity":0.7480314960629921,"duration":0.16874999999998863},{"name":"A3","midi":57,"time":487.31250000000006,"velocity":0.7480314960629921,"duration":0.16874999999998863},{"name":"E5","midi":76,"time":487.31250000000006,"velocity":0.7480314960629921,"duration":0.16874999999998863},{"name":"F#5","midi":78,"time":487.50000000000006,"velocity":0.7480314960629921,"duration":0.33749999999997726},{"name":"C#5","midi":73,"time":487.50000000000006,"velocity":0.7480314960629921,"duration":0.33749999999997726},{"name":"A4","midi":69,"time":487.50000000000006,"velocity":0.7480314960629921,"duration":0.33749999999997726},{"name":"A3","midi":57,"time":487.50000000000006,"velocity":0.7480314960629921,"duration":0.33749999999997726},{"name":"E4","midi":64,"time":487.50000000000006,"velocity":0.7480314960629921,"duration":0.33749999999997726},{"name":"A3","midi":57,"time":487.87500000000006,"velocity":0.7480314960629921,"duration":0.33749999999997726},{"name":"E4","midi":64,"time":487.87500000000006,"velocity":0.7480314960629921,"duration":0.33749999999997726},{"name":"A4","midi":69,"time":487.87500000000006,"velocity":0.7480314960629921,"duration":0.33749999999997726},{"name":"C#5","midi":73,"time":487.87500000000006,"velocity":0.7480314960629921,"duration":0.33749999999997726},{"name":"F#5","midi":78,"time":487.87500000000006,"velocity":0.7480314960629921,"duration":0.33749999999997726},{"name":"C#5","midi":73,"time":488.25000000000006,"velocity":0.7480314960629921,"duration":0.5062500000000227},{"name":"A4","midi":69,"time":488.25000000000006,"velocity":0.7480314960629921,"duration":0.5062500000000227},{"name":"E4","midi":64,"time":488.25000000000006,"velocity":0.7480314960629921,"duration":0.5062500000000227},{"name":"A3","midi":57,"time":488.25000000000006,"velocity":0.7480314960629921,"duration":0.5062500000000227},{"name":"E5","midi":76,"time":488.25000000000006,"velocity":0.7480314960629921,"duration":0.5062500000000227},{"name":"A4","midi":69,"time":488.81250000000006,"velocity":0.7480314960629921,"duration":0.16874999999998863},{"name":"E4","midi":64,"time":488.81250000000006,"velocity":0.7480314960629921,"duration":0.16874999999998863},{"name":"C#5","midi":73,"time":488.81250000000006,"velocity":0.7480314960629921,"duration":0.16874999999998863},{"name":"A3","midi":57,"time":488.81250000000006,"velocity":0.7480314960629921,"duration":0.16874999999998863},{"name":"E5","midi":76,"time":488.81250000000006,"velocity":0.7480314960629921,"duration":0.16874999999998863},{"name":"D4","midi":62,"time":489.00000000000006,"velocity":0.7480314960629921,"duration":0.33749999999997726},{"name":"A4","midi":69,"time":489.00000000000006,"velocity":0.7480314960629921,"duration":0.33749999999997726},{"name":"D5","midi":74,"time":489.00000000000006,"velocity":0.7480314960629921,"duration":0.33749999999997726},{"name":"F#5","midi":78,"time":489.00000000000006,"velocity":0.7480314960629921,"duration":0.33749999999997726},{"name":"A4","midi":69,"time":489.37500000000006,"velocity":0.7480314960629921,"duration":0.33749999999997726},{"name":"D4","midi":62,"time":489.37500000000006,"velocity":0.7480314960629921,"duration":0.33749999999997726},{"name":"D5","midi":74,"time":489.37500000000006,"velocity":0.7480314960629921,"duration":0.33749999999997726},{"name":"F#5","midi":78,"time":489.37500000000006,"velocity":0.7480314960629921,"duration":0.33749999999997726},{"name":"E5","midi":76,"time":489.75000000000006,"velocity":0.7480314960629921,"duration":0.5062500000000227},{"name":"A4","midi":69,"time":489.75000000000006,"velocity":0.7480314960629921,"duration":0.5062500000000227},{"name":"D4","midi":62,"time":489.75000000000006,"velocity":0.7480314960629921,"duration":0.5062500000000227},{"name":"D5","midi":74,"time":489.75000000000006,"velocity":0.7480314960629921,"duration":0.5062500000000227},{"name":"D4","midi":62,"time":490.31250000000006,"velocity":0.7480314960629921,"duration":0.16874999999998863},{"name":"E5","midi":76,"time":490.31250000000006,"velocity":0.7480314960629921,"duration":0.16874999999998863},{"name":"D5","midi":74,"time":490.31250000000006,"velocity":0.7480314960629921,"duration":0.16874999999998863},{"name":"A4","midi":69,"time":490.31250000000006,"velocity":0.7480314960629921,"duration":0.16874999999998863},{"name":"F#5","midi":78,"time":490.50000000000006,"velocity":0.7480314960629921,"duration":0.33749999999997726},{"name":"D4","midi":62,"time":490.50000000000006,"velocity":0.7480314960629921,"duration":0.33749999999997726},{"name":"A4","midi":69,"time":490.50000000000006,"velocity":0.7480314960629921,"duration":0.33749999999997726},{"name":"D5","midi":74,"time":490.50000000000006,"velocity":0.7480314960629921,"duration":0.33749999999997726},{"name":"D4","midi":62,"time":490.87500000000006,"velocity":0.7480314960629921,"duration":0.33749999999997726},{"name":"A4","midi":69,"time":490.87500000000006,"velocity":0.7480314960629921,"duration":0.33749999999997726},{"name":"D5","midi":74,"time":490.87500000000006,"velocity":0.7480314960629921,"duration":0.33749999999997726},{"name":"F#5","midi":78,"time":490.87500000000006,"velocity":0.7480314960629921,"duration":0.33749999999997726},{"name":"E5","midi":76,"time":491.25000000000006,"velocity":0.7480314960629921,"duration":0.5062500000000227},{"name":"D5","midi":74,"time":491.25000000000006,"velocity":0.7480314960629921,"duration":0.5062500000000227},{"name":"A4","midi":69,"time":491.25000000000006,"velocity":0.7480314960629921,"duration":0.5062500000000227},{"name":"D4","midi":62,"time":491.25000000000006,"velocity":0.7480314960629921,"duration":0.5062500000000227},{"name":"D5","midi":74,"time":491.81250000000006,"velocity":0.7480314960629921,"duration":0.16874999999998863},{"name":"A4","midi":69,"time":491.81250000000006,"velocity":0.7480314960629921,"duration":0.16874999999998863},{"name":"D4","midi":62,"time":491.81250000000006,"velocity":0.7480314960629921,"duration":0.16874999999998863},{"name":"E5","midi":76,"time":491.81250000000006,"velocity":0.7480314960629921,"duration":0.16874999999998863},{"name":"D4","midi":62,"time":492.00000000000006,"velocity":0.7480314960629921,"duration":0.33749999999997726},{"name":"A4","midi":69,"time":492.00000000000006,"velocity":0.7480314960629921,"duration":0.33749999999997726},{"name":"D5","midi":74,"time":492.00000000000006,"velocity":0.7480314960629921,"duration":0.33749999999997726},{"name":"E5","midi":76,"time":492.00000000000006,"velocity":0.7480314960629921,"duration":0.33749999999997726},{"name":"D5","midi":74,"time":492.37500000000006,"velocity":0.7480314960629921,"duration":0.33749999999997726},{"name":"A4","midi":69,"time":492.37500000000006,"velocity":0.7480314960629921,"duration":0.33749999999997726},{"name":"D4","midi":62,"time":492.37500000000006,"velocity":0.7480314960629921,"duration":0.33749999999997726},{"name":"E5","midi":76,"time":492.37500000000006,"velocity":0.7480314960629921,"duration":0.33749999999997726},{"name":"D4","midi":62,"time":492.75000000000006,"velocity":0.7480314960629921,"duration":0.5062500000000227},{"name":"E5","midi":76,"time":492.75000000000006,"velocity":0.7480314960629921,"duration":0.5062500000000227},{"name":"D5","midi":74,"time":492.75000000000006,"velocity":0.7480314960629921,"duration":0.5062500000000227},{"name":"A4","midi":69,"time":492.75000000000006,"velocity":0.7480314960629921,"duration":0.5062500000000227},{"name":"A4","midi":69,"time":493.31250000000006,"velocity":0.7480314960629921,"duration":0.16874999999998863},{"name":"D4","midi":62,"time":493.31250000000006,"velocity":0.7480314960629921,"duration":0.16874999999998863},{"name":"E5","midi":76,"time":493.31250000000006,"velocity":0.7480314960629921,"duration":0.16874999999998863},{"name":"D5","midi":74,"time":493.31250000000006,"velocity":0.7480314960629921,"duration":0.16874999999998863},{"name":"D4","midi":62,"time":493.50000000000006,"velocity":0.7480314960629921,"duration":0.33749999999997726},{"name":"A4","midi":69,"time":493.50000000000006,"velocity":0.7480314960629921,"duration":0.33749999999997726},{"name":"D5","midi":74,"time":493.50000000000006,"velocity":0.7480314960629921,"duration":0.33749999999997726},{"name":"F#5","midi":78,"time":493.50000000000006,"velocity":0.7480314960629921,"duration":0.33749999999997726},{"name":"F#5","midi":78,"time":493.87500000000006,"velocity":0.7480314960629921,"duration":0.33749999999997726},{"name":"D4","midi":62,"time":493.87500000000006,"velocity":0.7480314960629921,"duration":0.33749999999997726},{"name":"A4","midi":69,"time":493.87500000000006,"velocity":0.7480314960629921,"duration":0.33749999999997726},{"name":"D5","midi":74,"time":493.87500000000006,"velocity":0.7480314960629921,"duration":0.33749999999997726},{"name":"D5","midi":74,"time":494.25000000000006,"velocity":0.7480314960629921,"duration":0.5062500000000227},{"name":"A4","midi":69,"time":494.25000000000006,"velocity":0.7480314960629921,"duration":0.5062500000000227},{"name":"D4","midi":62,"time":494.25000000000006,"velocity":0.7480314960629921,"duration":0.5062500000000227},{"name":"E5","midi":76,"time":494.25000000000006,"velocity":0.7480314960629921,"duration":0.5062500000000227},{"name":"E5","midi":76,"time":494.81250000000006,"velocity":0.7480314960629921,"duration":0.16874999999998863},{"name":"A4","midi":69,"time":494.81250000000006,"velocity":0.7480314960629921,"duration":0.16874999999998863},{"name":"D5","midi":74,"time":494.81250000000006,"velocity":0.7480314960629921,"duration":0.16874999999998863},{"name":"D4","midi":62,"time":494.81250000000006,"velocity":0.7480314960629921,"duration":0.16874999999998863},{"name":"B3","midi":59,"time":495.00000000000006,"velocity":0.7480314960629921,"duration":0.33749999999997726},{"name":"F#5","midi":78,"time":495.00000000000006,"velocity":0.7480314960629921,"duration":0.33749999999997726},{"name":"D5","midi":74,"time":495.00000000000006,"velocity":0.7480314960629921,"duration":0.33749999999997726},{"name":"B4","midi":71,"time":495.00000000000006,"velocity":0.7480314960629921,"duration":0.33749999999997726},{"name":"F#4","midi":66,"time":495.00000000000006,"velocity":0.7480314960629921,"duration":0.33749999999997726},{"name":"F#4","midi":66,"time":495.37500000000006,"velocity":0.7480314960629921,"duration":0.33749999999997726},{"name":"B3","midi":59,"time":495.37500000000006,"velocity":0.7480314960629921,"duration":0.33749999999997726},{"name":"F#5","midi":78,"time":495.37500000000006,"velocity":0.7480314960629921,"duration":0.33749999999997726},{"name":"D5","midi":74,"time":495.37500000000006,"velocity":0.7480314960629921,"duration":0.33749999999997726},{"name":"B4","midi":71,"time":495.37500000000006,"velocity":0.7480314960629921,"duration":0.33749999999997726},{"name":"D5","midi":74,"time":495.75000000000006,"velocity":0.7480314960629921,"duration":0.5062500000000227},{"name":"B4","midi":71,"time":495.75000000000006,"velocity":0.7480314960629921,"duration":0.5062500000000227},{"name":"F#4","midi":66,"time":495.75000000000006,"velocity":0.7480314960629921,"duration":0.5062500000000227},{"name":"B3","midi":59,"time":495.75000000000006,"velocity":0.7480314960629921,"duration":0.5062500000000227},{"name":"E5","midi":76,"time":495.75000000000006,"velocity":0.7480314960629921,"duration":0.5062500000000227},{"name":"E5","midi":76,"time":496.31250000000006,"velocity":0.7480314960629921,"duration":0.16874999999998863},{"name":"B3","midi":59,"time":496.31250000000006,"velocity":0.7480314960629921,"duration":0.16874999999998863},{"name":"F#4","midi":66,"time":496.31250000000006,"velocity":0.7480314960629921,"duration":0.16874999999998863},{"name":"B4","midi":71,"time":496.31250000000006,"velocity":0.7480314960629921,"duration":0.16874999999998863},{"name":"D5","midi":74,"time":496.31250000000006,"velocity":0.7480314960629921,"duration":0.16874999999998863},{"name":"B3","midi":59,"time":496.50000000000006,"velocity":0.7480314960629921,"duration":0.33749999999997726},{"name":"F#4","midi":66,"time":496.50000000000006,"velocity":0.7480314960629921,"duration":0.33749999999997726},{"name":"B4","midi":71,"time":496.50000000000006,"velocity":0.7480314960629921,"duration":0.33749999999997726},{"name":"D5","midi":74,"time":496.50000000000006,"velocity":0.7480314960629921,"duration":0.33749999999997726},{"name":"F#5","midi":78,"time":496.50000000000006,"velocity":0.7480314960629921,"duration":0.33749999999997726},{"name":"F#4","midi":66,"time":496.87500000000006,"velocity":0.7480314960629921,"duration":0.33749999999997726},{"name":"F#5","midi":78,"time":496.87500000000006,"velocity":0.7480314960629921,"duration":0.33749999999997726},{"name":"D5","midi":74,"time":496.87500000000006,"velocity":0.7480314960629921,"duration":0.33749999999997726},{"name":"B3","midi":59,"time":496.87500000000006,"velocity":0.7480314960629921,"duration":0.33749999999997726},{"name":"B4","midi":71,"time":496.87500000000006,"velocity":0.7480314960629921,"duration":0.33749999999997726},{"name":"B4","midi":71,"time":497.25000000000006,"velocity":0.7480314960629921,"duration":0.5062500000000227},{"name":"D5","midi":74,"time":497.25000000000006,"velocity":0.7480314960629921,"duration":0.5062500000000227},{"name":"E5","midi":76,"time":497.25000000000006,"velocity":0.7480314960629921,"duration":0.5062500000000227},{"name":"B3","midi":59,"time":497.25000000000006,"velocity":0.7480314960629921,"duration":0.5062500000000227},{"name":"F#4","midi":66,"time":497.25000000000006,"velocity":0.7480314960629921,"duration":0.5062500000000227},{"name":"B3","midi":59,"time":497.81250000000006,"velocity":0.7480314960629921,"duration":0.16874999999998863},{"name":"E5","midi":76,"time":497.81250000000006,"velocity":0.7480314960629921,"duration":0.16874999999998863},{"name":"D5","midi":74,"time":497.81250000000006,"velocity":0.7480314960629921,"duration":0.16874999999998863},{"name":"B4","midi":71,"time":497.81250000000006,"velocity":0.7480314960629921,"duration":0.16874999999998863},{"name":"F#4","midi":66,"time":497.81250000000006,"velocity":0.7480314960629921,"duration":0.16874999999998863},{"name":"C#4","midi":61,"time":498.00000000000006,"velocity":0.7480314960629921,"duration":0.33749999999997726},{"name":"F#5","midi":78,"time":498.00000000000006,"velocity":0.7480314960629921,"duration":0.33749999999997726},{"name":"B4","midi":71,"time":498.00000000000006,"velocity":0.7480314960629921,"duration":0.33749999999997726},{"name":"G#4","midi":68,"time":498.00000000000006,"velocity":0.7480314960629921,"duration":0.33749999999997726},{"name":"C#4","midi":61,"time":498.37500000000006,"velocity":0.7480314960629921,"duration":0.33749999999997726},{"name":"G#4","midi":68,"time":498.37500000000006,"velocity":0.7480314960629921,"duration":0.33749999999997726},{"name":"F#5","midi":78,"time":498.37500000000006,"velocity":0.7480314960629921,"duration":0.33749999999997726},{"name":"B4","midi":71,"time":498.37500000000006,"velocity":0.7480314960629921,"duration":0.33749999999997726},{"name":"C#4","midi":61,"time":498.75000000000006,"velocity":0.7480314960629921,"duration":0.5062500000000227},{"name":"G#4","midi":68,"time":498.75000000000006,"velocity":0.7480314960629921,"duration":0.5062500000000227},{"name":"B4","midi":71,"time":498.75000000000006,"velocity":0.7480314960629921,"duration":0.5062500000000227},{"name":"E5","midi":76,"time":498.75000000000006,"velocity":0.7480314960629921,"duration":0.5062500000000227},{"name":"C#4","midi":61,"time":499.31250000000006,"velocity":0.7480314960629921,"duration":0.16874999999998863},{"name":"G#4","midi":68,"time":499.31250000000006,"velocity":0.7480314960629921,"duration":0.16874999999998863},{"name":"E5","midi":76,"time":499.31250000000006,"velocity":0.7480314960629921,"duration":0.16874999999998863},{"name":"B4","midi":71,"time":499.31250000000006,"velocity":0.7480314960629921,"duration":0.16874999999998863},{"name":"C#4","midi":61,"time":499.50000000000006,"velocity":0.7480314960629921,"duration":0.33749999999997726},{"name":"B4","midi":71,"time":499.50000000000006,"velocity":0.7480314960629921,"duration":0.33749999999997726},{"name":"F#5","midi":78,"time":499.50000000000006,"velocity":0.7480314960629921,"duration":0.33749999999997726},{"name":"G#4","midi":68,"time":499.50000000000006,"velocity":0.7480314960629921,"duration":0.33749999999997726},{"name":"G#4","midi":68,"time":499.87500000000006,"velocity":0.7480314960629921,"duration":0.33749999999997726},{"name":"C#4","midi":61,"time":499.87500000000006,"velocity":0.7480314960629921,"duration":0.33749999999997726},{"name":"B4","midi":71,"time":499.87500000000006,"velocity":0.7480314960629921,"duration":0.33749999999997726},{"name":"F#5","midi":78,"time":499.87500000000006,"velocity":0.7480314960629921,"duration":0.33749999999997726},{"name":"C#4","midi":61,"time":500.25000000000006,"velocity":0.7480314960629921,"duration":0.5062500000000227},{"name":"G#4","midi":68,"time":500.25000000000006,"velocity":0.7480314960629921,"duration":0.5062500000000227},{"name":"B4","midi":71,"time":500.25000000000006,"velocity":0.7480314960629921,"duration":0.5062500000000227},{"name":"E5","midi":76,"time":500.25000000000006,"velocity":0.7480314960629921,"duration":0.5062500000000227},{"name":"C#4","midi":61,"time":500.81250000000006,"velocity":0.7480314960629921,"duration":0.16874999999998863},{"name":"G#4","midi":68,"time":500.81250000000006,"velocity":0.7480314960629921,"duration":0.16874999999998863},{"name":"E5","midi":76,"time":500.81250000000006,"velocity":0.7480314960629921,"duration":0.16874999999998863},{"name":"B4","midi":71,"time":500.81250000000006,"velocity":0.7480314960629921,"duration":0.16874999999998863},{"name":"D4","midi":62,"time":501.00000000000006,"velocity":0.7480314960629921,"duration":0.33749999999997726},{"name":"A4","midi":69,"time":501.00000000000006,"velocity":0.7480314960629921,"duration":0.33749999999997726},{"name":"D5","midi":74,"time":501.00000000000006,"velocity":0.7480314960629921,"duration":0.33749999999997726},{"name":"F#5","midi":78,"time":501.00000000000006,"velocity":0.7480314960629921,"duration":0.33749999999997726},{"name":"A5","midi":81,"time":501.00000000000006,"velocity":0.7480314960629921,"duration":0.33749999999997726},{"name":"A4","midi":69,"time":501.37500000000006,"velocity":0.7480314960629921,"duration":0.33749999999997726},{"name":"D5","midi":74,"time":501.37500000000006,"velocity":0.7480314960629921,"duration":0.33749999999997726},{"name":"F#5","midi":78,"time":501.37500000000006,"velocity":0.7480314960629921,"duration":0.33749999999997726},{"name":"A5","midi":81,"time":501.37500000000006,"velocity":0.7480314960629921,"duration":0.33749999999997726},{"name":"D4","midi":62,"time":501.37500000000006,"velocity":0.7480314960629921,"duration":0.33749999999997726},{"name":"A4","midi":69,"time":501.75000000000006,"velocity":0.7480314960629921,"duration":0.5062500000000227},{"name":"D5","midi":74,"time":501.75000000000006,"velocity":0.7480314960629921,"duration":0.5062500000000227},{"name":"F#5","midi":78,"time":501.75000000000006,"velocity":0.7480314960629921,"duration":0.5062500000000227},{"name":"A5","midi":81,"time":501.75000000000006,"velocity":0.7480314960629921,"duration":0.5062500000000227},{"name":"D4","midi":62,"time":501.75000000000006,"velocity":0.7480314960629921,"duration":0.5062500000000227},{"name":"D4","midi":62,"time":502.31250000000006,"velocity":0.7480314960629921,"duration":0.16874999999998863},{"name":"A4","midi":69,"time":502.31250000000006,"velocity":0.7480314960629921,"duration":0.16874999999998863},{"name":"A5","midi":81,"time":502.31250000000006,"velocity":0.7480314960629921,"duration":0.16874999999998863},{"name":"F#5","midi":78,"time":502.31250000000006,"velocity":0.7480314960629921,"duration":0.16874999999998863},{"name":"D5","midi":74,"time":502.31250000000006,"velocity":0.7480314960629921,"duration":0.16874999999998863},{"name":"D4","midi":62,"time":502.50000000000006,"velocity":0.7480314960629921,"duration":0.33749999999997726},{"name":"D5","midi":74,"time":502.50000000000006,"velocity":0.7480314960629921,"duration":0.33749999999997726},{"name":"F#5","midi":78,"time":502.50000000000006,"velocity":0.7480314960629921,"duration":0.33749999999997726},{"name":"A5","midi":81,"time":502.50000000000006,"velocity":0.7480314960629921,"duration":0.33749999999997726},{"name":"A4","midi":69,"time":502.50000000000006,"velocity":0.7480314960629921,"duration":0.33749999999997726},{"name":"A5","midi":81,"time":502.87500000000006,"velocity":0.7480314960629921,"duration":0.33749999999997726},{"name":"F#5","midi":78,"time":502.87500000000006,"velocity":0.7480314960629921,"duration":0.33749999999997726},{"name":"D5","midi":74,"time":502.87500000000006,"velocity":0.7480314960629921,"duration":0.33749999999997726},{"name":"A4","midi":69,"time":502.87500000000006,"velocity":0.7480314960629921,"duration":0.33749999999997726},{"name":"D4","midi":62,"time":502.87500000000006,"velocity":0.7480314960629921,"duration":0.33749999999997726},{"name":"A5","midi":81,"time":503.25000000000006,"velocity":0.7480314960629921,"duration":0.5062500000000227},{"name":"F#5","midi":78,"time":503.25000000000006,"velocity":0.7480314960629921,"duration":0.5062500000000227},{"name":"D5","midi":74,"time":503.25000000000006,"velocity":0.7480314960629921,"duration":0.5062500000000227},{"name":"D4","midi":62,"time":503.25000000000006,"velocity":0.7480314960629921,"duration":0.5062500000000227},{"name":"A4","midi":69,"time":503.25000000000006,"velocity":0.7480314960629921,"duration":0.5062500000000227},{"name":"A5","midi":81,"time":503.81250000000006,"velocity":0.7480314960629921,"duration":0.16874999999998863},{"name":"D5","midi":74,"time":503.81250000000006,"velocity":0.7480314960629921,"duration":0.16874999999998863},{"name":"A4","midi":69,"time":503.81250000000006,"velocity":0.7480314960629921,"duration":0.16874999999998863},{"name":"D4","midi":62,"time":503.81250000000006,"velocity":0.7480314960629921,"duration":0.16874999999998863},{"name":"F#5","midi":78,"time":503.81250000000006,"velocity":0.7480314960629921,"duration":0.16874999999998863},{"name":"A5","midi":81,"time":504.00000000000006,"velocity":0.7480314960629921,"duration":0.33749999999997726},{"name":"D4","midi":62,"time":504.00000000000006,"velocity":0.7480314960629921,"duration":0.33749999999997726},{"name":"A4","midi":69,"time":504.00000000000006,"velocity":0.7480314960629921,"duration":0.33749999999997726},{"name":"D5","midi":74,"time":504.00000000000006,"velocity":0.7480314960629921,"duration":0.33749999999997726},{"name":"F#5","midi":78,"time":504.00000000000006,"velocity":0.7480314960629921,"duration":0.33749999999997726},{"name":"F#5","midi":78,"time":504.37500000000006,"velocity":0.7480314960629921,"duration":0.33749999999997726},{"name":"A5","midi":81,"time":504.37500000000006,"velocity":0.7480314960629921,"duration":0.33749999999997726},{"name":"A4","midi":69,"time":504.37500000000006,"velocity":0.7480314960629921,"duration":0.33749999999997726},{"name":"D4","midi":62,"time":504.37500000000006,"velocity":0.7480314960629921,"duration":0.33749999999997726},{"name":"D5","midi":74,"time":504.37500000000006,"velocity":0.7480314960629921,"duration":0.33749999999997726},{"name":"F#5","midi":78,"time":504.75000000000006,"velocity":0.7480314960629921,"duration":0.5062500000000227},{"name":"A5","midi":81,"time":504.75000000000006,"velocity":0.7480314960629921,"duration":0.5062500000000227},{"name":"D5","midi":74,"time":504.75000000000006,"velocity":0.7480314960629921,"duration":0.5062500000000227},{"name":"A4","midi":69,"time":504.75000000000006,"velocity":0.7480314960629921,"duration":0.5062500000000227},{"name":"D4","midi":62,"time":504.75000000000006,"velocity":0.7480314960629921,"duration":0.5062500000000227},{"name":"A4","midi":69,"time":505.31250000000006,"velocity":0.7480314960629921,"duration":0.16874999999998863},{"name":"D5","midi":74,"time":505.31250000000006,"velocity":0.7480314960629921,"duration":0.16874999999998863},{"name":"F#5","midi":78,"time":505.31250000000006,"velocity":0.7480314960629921,"duration":0.16874999999998863},{"name":"A5","midi":81,"time":505.31250000000006,"velocity":0.7480314960629921,"duration":0.16874999999998863},{"name":"D4","midi":62,"time":505.31250000000006,"velocity":0.7480314960629921,"duration":0.16874999999998863},{"name":"D4","midi":62,"time":505.50000000000006,"velocity":0.7480314960629921,"duration":0.33749999999997726},{"name":"A4","midi":69,"time":505.50000000000006,"velocity":0.7480314960629921,"duration":0.33749999999997726},{"name":"D5","midi":74,"time":505.50000000000006,"velocity":0.7480314960629921,"duration":0.33749999999997726},{"name":"F#5","midi":78,"time":505.50000000000006,"velocity":0.7480314960629921,"duration":0.33749999999997726},{"name":"A5","midi":81,"time":505.50000000000006,"velocity":0.7480314960629921,"duration":0.33749999999997726},{"name":"A5","midi":81,"time":505.87500000000006,"velocity":0.7480314960629921,"duration":0.33749999999997726},{"name":"F#5","midi":78,"time":505.87500000000006,"velocity":0.7480314960629921,"duration":0.33749999999997726},{"name":"D4","midi":62,"time":505.87500000000006,"velocity":0.7480314960629921,"duration":0.33749999999997726},{"name":"A4","midi":69,"time":505.87500000000006,"velocity":0.7480314960629921,"duration":0.33749999999997726},{"name":"D5","midi":74,"time":505.87500000000006,"velocity":0.7480314960629921,"duration":0.33749999999997726},{"name":"D4","midi":62,"time":506.25000000000006,"velocity":0.7480314960629921,"duration":0.5062500000000227},{"name":"A4","midi":69,"time":506.25000000000006,"velocity":0.7480314960629921,"duration":0.5062500000000227},{"name":"D5","midi":74,"time":506.25000000000006,"velocity":0.7480314960629921,"duration":0.5062500000000227},{"name":"F#5","midi":78,"time":506.25000000000006,"velocity":0.7480314960629921,"duration":0.5062500000000227},{"name":"A5","midi":81,"time":506.25000000000006,"velocity":0.7480314960629921,"duration":0.5062500000000227},{"name":"D5","midi":74,"time":506.81250000000006,"velocity":0.7480314960629921,"duration":0.16874999999998863},{"name":"A5","midi":81,"time":506.81250000000006,"velocity":0.7480314960629921,"duration":0.16874999999998863},{"name":"F#5","midi":78,"time":506.81250000000006,"velocity":0.7480314960629921,"duration":0.16874999999998863},{"name":"A4","midi":69,"time":506.81250000000006,"velocity":0.7480314960629921,"duration":0.16874999999998863},{"name":"D4","midi":62,"time":506.81250000000006,"velocity":0.7480314960629921,"duration":0.16874999999998863},{"name":"E4","midi":64,"time":507.00000000000006,"velocity":0.7480314960629921,"duration":0.33749999999997726},{"name":"F#5","midi":78,"time":507.00000000000006,"velocity":0.7480314960629921,"duration":0.33749999999997726},{"name":"A4","midi":69,"time":507.00000000000006,"velocity":0.7480314960629921,"duration":0.33749999999997726},{"name":"A3","midi":57,"time":507.00000000000006,"velocity":0.7480314960629921,"duration":0.33749999999997726},{"name":"C#5","midi":73,"time":507.00000000000006,"velocity":0.7480314960629921,"duration":0.33749999999997726},{"name":"A3","midi":57,"time":507.37500000000006,"velocity":0.7480314960629921,"duration":0.33749999999997726},{"name":"F#5","midi":78,"time":507.37500000000006,"velocity":0.7480314960629921,"duration":0.33749999999997726},{"name":"C#5","midi":73,"time":507.37500000000006,"velocity":0.7480314960629921,"duration":0.33749999999997726},{"name":"A4","midi":69,"time":507.37500000000006,"velocity":0.7480314960629921,"duration":0.33749999999997726},{"name":"E4","midi":64,"time":507.37500000000006,"velocity":0.7480314960629921,"duration":0.33749999999997726},{"name":"E5","midi":76,"time":507.75000000000006,"velocity":0.7480314960629921,"duration":0.5062500000000227},{"name":"C#5","midi":73,"time":507.75000000000006,"velocity":0.7480314960629921,"duration":0.5062500000000227},{"name":"A4","midi":69,"time":507.75000000000006,"velocity":0.7480314960629921,"duration":0.5062500000000227},{"name":"E4","midi":64,"time":507.75000000000006,"velocity":0.7480314960629921,"duration":0.5062500000000227},{"name":"A3","midi":57,"time":507.75000000000006,"velocity":0.7480314960629921,"duration":0.5062500000000227},{"name":"C#5","midi":73,"time":508.31250000000006,"velocity":0.7480314960629921,"duration":0.16874999999998863},{"name":"A4","midi":69,"time":508.31250000000006,"velocity":0.7480314960629921,"duration":0.16874999999998863},{"name":"E4","midi":64,"time":508.31250000000006,"velocity":0.7480314960629921,"duration":0.16874999999998863},{"name":"E5","midi":76,"time":508.31250000000006,"velocity":0.7480314960629921,"duration":0.16874999999998863},{"name":"A3","midi":57,"time":508.31250000000006,"velocity":0.7480314960629921,"duration":0.16874999999998863},{"name":"A3","midi":57,"time":508.50000000000006,"velocity":0.7480314960629921,"duration":0.33749999999997726},{"name":"E4","midi":64,"time":508.50000000000006,"velocity":0.7480314960629921,"duration":0.33749999999997726},{"name":"A4","midi":69,"time":508.50000000000006,"velocity":0.7480314960629921,"duration":0.33749999999997726},{"name":"C#5","midi":73,"time":508.50000000000006,"velocity":0.7480314960629921,"duration":0.33749999999997726},{"name":"F#5","midi":78,"time":508.50000000000006,"velocity":0.7480314960629921,"duration":0.33749999999997726},{"name":"A3","midi":57,"time":508.87500000000006,"velocity":0.7480314960629921,"duration":0.33749999999997726},{"name":"F#5","midi":78,"time":508.87500000000006,"velocity":0.7480314960629921,"duration":0.33749999999997726},{"name":"C#5","midi":73,"time":508.87500000000006,"velocity":0.7480314960629921,"duration":0.33749999999997726},{"name":"A4","midi":69,"time":508.87500000000006,"velocity":0.7480314960629921,"duration":0.33749999999997726},{"name":"E4","midi":64,"time":508.87500000000006,"velocity":0.7480314960629921,"duration":0.33749999999997726},{"name":"A3","midi":57,"time":509.25000000000006,"velocity":0.7480314960629921,"duration":0.5062500000000227},{"name":"E4","midi":64,"time":509.25000000000006,"velocity":0.7480314960629921,"duration":0.5062500000000227},{"name":"A4","midi":69,"time":509.25000000000006,"velocity":0.7480314960629921,"duration":0.5062500000000227},{"name":"E5","midi":76,"time":509.25000000000006,"velocity":0.7480314960629921,"duration":0.5062500000000227},{"name":"C#5","midi":73,"time":509.25000000000006,"velocity":0.7480314960629921,"duration":0.5062500000000227},{"name":"C#5","midi":73,"time":509.81250000000006,"velocity":0.7480314960629921,"duration":0.16874999999998863},{"name":"E5","midi":76,"time":509.81250000000006,"velocity":0.7480314960629921,"duration":0.16874999999998863},{"name":"A3","midi":57,"time":509.81250000000006,"velocity":0.7480314960629921,"duration":0.16874999999998863},{"name":"A4","midi":69,"time":509.81250000000006,"velocity":0.7480314960629921,"duration":0.16874999999998863},{"name":"E4","midi":64,"time":509.81250000000006,"velocity":0.7480314960629921,"duration":0.16874999999998863},{"name":"A3","midi":57,"time":510.00000000000006,"velocity":0.7480314960629921,"duration":0.33749999999997726},{"name":"E4","midi":64,"time":510.00000000000006,"velocity":0.7480314960629921,"duration":0.33749999999997726},{"name":"F#5","midi":78,"time":510.00000000000006,"velocity":0.7480314960629921,"duration":0.33749999999997726},{"name":"C#5","midi":73,"time":510.00000000000006,"velocity":0.7480314960629921,"duration":0.33749999999997726},{"name":"A4","midi":69,"time":510.00000000000006,"velocity":0.7480314960629921,"duration":0.33749999999997726},{"name":"A3","midi":57,"time":510.37500000000006,"velocity":0.7480314960629921,"duration":0.33749999999997726},{"name":"E4","midi":64,"time":510.37500000000006,"velocity":0.7480314960629921,"duration":0.33749999999997726},{"name":"A4","midi":69,"time":510.37500000000006,"velocity":0.7480314960629921,"duration":0.33749999999997726},{"name":"C#5","midi":73,"time":510.37500000000006,"velocity":0.7480314960629921,"duration":0.33749999999997726},{"name":"F#5","midi":78,"time":510.37500000000006,"velocity":0.7480314960629921,"duration":0.33749999999997726},{"name":"C#5","midi":73,"time":510.75000000000006,"velocity":0.7480314960629921,"duration":0.5062500000000227},{"name":"E5","midi":76,"time":510.75000000000006,"velocity":0.7480314960629921,"duration":0.5062500000000227},{"name":"A4","midi":69,"time":510.75000000000006,"velocity":0.7480314960629921,"duration":0.5062500000000227},{"name":"A3","midi":57,"time":510.75000000000006,"velocity":0.7480314960629921,"duration":0.5062500000000227},{"name":"E4","midi":64,"time":510.75000000000006,"velocity":0.7480314960629921,"duration":0.5062500000000227},{"name":"A4","midi":69,"time":511.31250000000006,"velocity":0.7480314960629921,"duration":0.16874999999998863},{"name":"E5","midi":76,"time":511.31250000000006,"velocity":0.7480314960629921,"duration":0.16874999999998863},{"name":"C#5","midi":73,"time":511.31250000000006,"velocity":0.7480314960629921,"duration":0.16874999999998863},{"name":"E4","midi":64,"time":511.31250000000006,"velocity":0.7480314960629921,"duration":0.16874999999998863},{"name":"A3","midi":57,"time":511.31250000000006,"velocity":0.7480314960629921,"duration":0.16874999999998863},{"name":"A4","midi":69,"time":511.50000000000006,"velocity":0.7480314960629921,"duration":0.33749999999997726},{"name":"C#5","midi":73,"time":511.50000000000006,"velocity":0.7480314960629921,"duration":0.33749999999997726},{"name":"F#5","midi":78,"time":511.50000000000006,"velocity":0.7480314960629921,"duration":0.33749999999997726},{"name":"E4","midi":64,"time":511.50000000000006,"velocity":0.7480314960629921,"duration":0.33749999999997726},{"name":"A3","midi":57,"time":511.50000000000006,"velocity":0.7480314960629921,"duration":0.33749999999997726},{"name":"A3","midi":57,"time":511.87500000000006,"velocity":0.7480314960629921,"duration":0.3375000000000341},{"name":"E4","midi":64,"time":511.87500000000006,"velocity":0.7480314960629921,"duration":0.3375000000000341},{"name":"A4","midi":69,"time":511.87500000000006,"velocity":0.7480314960629921,"duration":0.3375000000000341},{"name":"C#5","midi":73,"time":511.87500000000006,"velocity":0.7480314960629921,"duration":0.3375000000000341},{"name":"F#5","midi":78,"time":511.87500000000006,"velocity":0.7480314960629921,"duration":0.3375000000000341},{"name":"E4","midi":64,"time":512.2500000000001,"velocity":0.7480314960629921,"duration":0.5062500000000227},{"name":"E5","midi":76,"time":512.2500000000001,"velocity":0.7480314960629921,"duration":0.5062500000000227},{"name":"C#5","midi":73,"time":512.2500000000001,"velocity":0.7480314960629921,"duration":0.5062500000000227},{"name":"A4","midi":69,"time":512.2500000000001,"velocity":0.7480314960629921,"duration":0.5062500000000227},{"name":"A3","midi":57,"time":512.2500000000001,"velocity":0.7480314960629921,"duration":0.5062500000000227},{"name":"E4","midi":64,"time":512.8125000000001,"velocity":0.7480314960629921,"duration":0.16875000000004547},{"name":"A3","midi":57,"time":512.8125000000001,"velocity":0.7480314960629921,"duration":0.16875000000004547},{"name":"E5","midi":76,"time":512.8125000000001,"velocity":0.7480314960629921,"duration":0.16875000000004547},{"name":"C#5","midi":73,"time":512.8125000000001,"velocity":0.7480314960629921,"duration":0.16875000000004547},{"name":"A4","midi":69,"time":512.8125000000001,"velocity":0.7480314960629921,"duration":0.16875000000004547},{"name":"A3","midi":57,"time":513.0000000000001,"velocity":0.7480314960629921,"duration":0.33749999999997726},{"name":"E4","midi":64,"time":513.0000000000001,"velocity":0.7480314960629921,"duration":0.33749999999997726},{"name":"A4","midi":69,"time":513.0000000000001,"velocity":0.7480314960629921,"duration":0.33749999999997726},{"name":"C#5","midi":73,"time":513.0000000000001,"velocity":0.7480314960629921,"duration":0.33749999999997726},{"name":"F#5","midi":78,"time":513.0000000000001,"velocity":0.7480314960629921,"duration":0.33749999999997726},{"name":"F#5","midi":78,"time":513.3750000000001,"velocity":0.7480314960629921,"duration":0.33749999999997726},{"name":"A3","midi":57,"time":513.3750000000001,"velocity":0.7480314960629921,"duration":0.33749999999997726},{"name":"E4","midi":64,"time":513.3750000000001,"velocity":0.7480314960629921,"duration":0.33749999999997726},{"name":"A4","midi":69,"time":513.3750000000001,"velocity":0.7480314960629921,"duration":0.33749999999997726},{"name":"C#5","midi":73,"time":513.3750000000001,"velocity":0.7480314960629921,"duration":0.33749999999997726},{"name":"A4","midi":69,"time":513.7500000000001,"velocity":0.7480314960629921,"duration":0.5062500000000227},{"name":"E4","midi":64,"time":513.7500000000001,"velocity":0.7480314960629921,"duration":0.5062500000000227},{"name":"A3","midi":57,"time":513.7500000000001,"velocity":0.7480314960629921,"duration":0.5062500000000227},{"name":"C#5","midi":73,"time":513.7500000000001,"velocity":0.7480314960629921,"duration":0.5062500000000227},{"name":"E5","midi":76,"time":513.7500000000001,"velocity":0.7480314960629921,"duration":0.5062500000000227},{"name":"A4","midi":69,"time":514.3125000000001,"velocity":0.7480314960629921,"duration":0.16875000000004547},{"name":"C#5","midi":73,"time":514.3125000000001,"velocity":0.7480314960629921,"duration":0.16875000000004547},{"name":"A3","midi":57,"time":514.3125000000001,"velocity":0.7480314960629921,"duration":0.16875000000004547},{"name":"E4","midi":64,"time":514.3125000000001,"velocity":0.7480314960629921,"duration":0.16875000000004547},{"name":"E5","midi":76,"time":514.3125000000001,"velocity":0.7480314960629921,"duration":0.16875000000004547},{"name":"F#5","midi":78,"time":514.5000000000001,"velocity":0.7480314960629921,"duration":0.33749999999997726},{"name":"A3","midi":57,"time":514.5000000000001,"velocity":0.7480314960629921,"duration":0.33749999999997726},{"name":"E4","midi":64,"time":514.5000000000001,"velocity":0.7480314960629921,"duration":0.33749999999997726},{"name":"A4","midi":69,"time":514.5000000000001,"velocity":0.7480314960629921,"duration":0.33749999999997726},{"name":"C#5","midi":73,"time":514.5000000000001,"velocity":0.7480314960629921,"duration":0.33749999999997726},{"name":"C#5","midi":73,"time":514.8750000000001,"velocity":0.7480314960629921,"duration":0.33749999999997726},{"name":"F#5","midi":78,"time":514.8750000000001,"velocity":0.7480314960629921,"duration":0.33749999999997726},{"name":"A4","midi":69,"time":514.8750000000001,"velocity":0.7480314960629921,"duration":0.33749999999997726},{"name":"E4","midi":64,"time":514.8750000000001,"velocity":0.7480314960629921,"duration":0.33749999999997726},{"name":"A3","midi":57,"time":514.8750000000001,"velocity":0.7480314960629921,"duration":0.33749999999997726},{"name":"E4","midi":64,"time":515.2500000000001,"velocity":0.7480314960629921,"duration":0.5062500000000227},{"name":"A4","midi":69,"time":515.2500000000001,"velocity":0.7480314960629921,"duration":0.5062500000000227},{"name":"C#5","midi":73,"time":515.2500000000001,"velocity":0.7480314960629921,"duration":0.5062500000000227},{"name":"E5","midi":76,"time":515.2500000000001,"velocity":0.7480314960629921,"duration":0.5062500000000227},{"name":"A3","midi":57,"time":515.2500000000001,"velocity":0.7480314960629921,"duration":0.5062500000000227},{"name":"A3","midi":57,"time":515.8125000000001,"velocity":0.7480314960629921,"duration":0.16875000000004547},{"name":"E4","midi":64,"time":515.8125000000001,"velocity":0.7480314960629921,"duration":0.16875000000004547},{"name":"A4","midi":69,"time":515.8125000000001,"velocity":0.7480314960629921,"duration":0.16875000000004547},{"name":"C#5","midi":73,"time":515.8125000000001,"velocity":0.7480314960629921,"duration":0.16875000000004547},{"name":"E5","midi":76,"time":515.8125000000001,"velocity":0.7480314960629921,"duration":0.16875000000004547},{"name":"D4","midi":62,"time":516.0000000000001,"velocity":0.7480314960629921,"duration":0.33749999999997726},{"name":"D5","midi":74,"time":516.0000000000001,"velocity":0.7480314960629921,"duration":0.33749999999997726},{"name":"A4","midi":69,"time":516.0000000000001,"velocity":0.7480314960629921,"duration":0.33749999999997726},{"name":"F#5","midi":78,"time":516.0000000000001,"velocity":0.7480314960629921,"duration":0.33749999999997726},{"name":"D5","midi":74,"time":516.3750000000001,"velocity":0.7480314960629921,"duration":0.33749999999997726},{"name":"F#5","midi":78,"time":516.3750000000001,"velocity":0.7480314960629921,"duration":0.33749999999997726},{"name":"A4","midi":69,"time":516.3750000000001,"velocity":0.7480314960629921,"duration":0.33749999999997726},{"name":"D4","midi":62,"time":516.3750000000001,"velocity":0.7480314960629921,"duration":0.33749999999997726},{"name":"E5","midi":76,"time":516.7500000000001,"velocity":0.7480314960629921,"duration":0.5062500000000227},{"name":"D5","midi":74,"time":516.7500000000001,"velocity":0.7480314960629921,"duration":0.5062500000000227},{"name":"A4","midi":69,"time":516.7500000000001,"velocity":0.7480314960629921,"duration":0.5062500000000227},{"name":"D4","midi":62,"time":516.7500000000001,"velocity":0.7480314960629921,"duration":0.5062500000000227},{"name":"A4","midi":69,"time":517.3125000000001,"velocity":0.7480314960629921,"duration":0.16875000000004547},{"name":"E5","midi":76,"time":517.3125000000001,"velocity":0.7480314960629921,"duration":0.16875000000004547},{"name":"D5","midi":74,"time":517.3125000000001,"velocity":0.7480314960629921,"duration":0.16875000000004547},{"name":"D4","midi":62,"time":517.3125000000001,"velocity":0.7480314960629921,"duration":0.16875000000004547},{"name":"F#5","midi":78,"time":517.5000000000001,"velocity":0.7480314960629921,"duration":0.33749999999997726},{"name":"D5","midi":74,"time":517.5000000000001,"velocity":0.7480314960629921,"duration":0.33749999999997726},{"name":"D4","midi":62,"time":517.5000000000001,"velocity":0.7480314960629921,"duration":0.33749999999997726},{"name":"A4","midi":69,"time":517.5000000000001,"velocity":0.7480314960629921,"duration":0.33749999999997726},{"name":"A4","midi":69,"time":517.8750000000001,"velocity":0.7480314960629921,"duration":0.33749999999997726},{"name":"D4","midi":62,"time":517.8750000000001,"velocity":0.7480314960629921,"duration":0.33749999999997726},{"name":"F#5","midi":78,"time":517.8750000000001,"velocity":0.7480314960629921,"duration":0.33749999999997726},{"name":"D5","midi":74,"time":517.8750000000001,"velocity":0.7480314960629921,"duration":0.33749999999997726},{"name":"E5","midi":76,"time":518.2500000000001,"velocity":0.7480314960629921,"duration":0.5062500000000227},{"name":"D5","midi":74,"time":518.2500000000001,"velocity":0.7480314960629921,"duration":0.5062500000000227},{"name":"A4","midi":69,"time":518.2500000000001,"velocity":0.7480314960629921,"duration":0.5062500000000227},{"name":"D4","midi":62,"time":518.2500000000001,"velocity":0.7480314960629921,"duration":0.5062500000000227},{"name":"E5","midi":76,"time":518.8125000000001,"velocity":0.7480314960629921,"duration":0.16875000000004547},{"name":"D4","midi":62,"time":518.8125000000001,"velocity":0.7480314960629921,"duration":0.16875000000004547},{"name":"A4","midi":69,"time":518.8125000000001,"velocity":0.7480314960629921,"duration":0.16875000000004547},{"name":"D5","midi":74,"time":518.8125000000001,"velocity":0.7480314960629921,"duration":0.16875000000004547},{"name":"E5","midi":76,"time":519.0000000000001,"velocity":0.7480314960629921,"duration":0.33749999999997726},{"name":"D5","midi":74,"time":519.0000000000001,"velocity":0.7480314960629921,"duration":0.33749999999997726},{"name":"A4","midi":69,"time":519.0000000000001,"velocity":0.7480314960629921,"duration":0.33749999999997726},{"name":"D4","midi":62,"time":519.0000000000001,"velocity":0.7480314960629921,"duration":0.33749999999997726},{"name":"E5","midi":76,"time":519.3750000000001,"velocity":0.7480314960629921,"duration":0.33749999999997726},{"name":"D5","midi":74,"time":519.3750000000001,"velocity":0.7480314960629921,"duration":0.33749999999997726},{"name":"A4","midi":69,"time":519.3750000000001,"velocity":0.7480314960629921,"duration":0.33749999999997726},{"name":"D4","midi":62,"time":519.3750000000001,"velocity":0.7480314960629921,"duration":0.33749999999997726},{"name":"D5","midi":74,"time":519.7500000000001,"velocity":0.7480314960629921,"duration":0.5062500000000227},{"name":"A4","midi":69,"time":519.7500000000001,"velocity":0.7480314960629921,"duration":0.5062500000000227},{"name":"D4","midi":62,"time":519.7500000000001,"velocity":0.7480314960629921,"duration":0.5062500000000227},{"name":"E5","midi":76,"time":519.7500000000001,"velocity":0.7480314960629921,"duration":0.5062500000000227},{"name":"A4","midi":69,"time":520.3125000000001,"velocity":0.7480314960629921,"duration":0.16875000000004547},{"name":"D5","midi":74,"time":520.3125000000001,"velocity":0.7480314960629921,"duration":0.16875000000004547},{"name":"E5","midi":76,"time":520.3125000000001,"velocity":0.7480314960629921,"duration":0.16875000000004547},{"name":"D4","midi":62,"time":520.3125000000001,"velocity":0.7480314960629921,"duration":0.16875000000004547},{"name":"D4","midi":62,"time":520.5000000000001,"velocity":0.7480314960629921,"duration":0.33749999999997726},{"name":"A4","midi":69,"time":520.5000000000001,"velocity":0.7480314960629921,"duration":0.33749999999997726},{"name":"D5","midi":74,"time":520.5000000000001,"velocity":0.7480314960629921,"duration":0.33749999999997726},{"name":"F#5","midi":78,"time":520.5000000000001,"velocity":0.7480314960629921,"duration":0.33749999999997726},{"name":"D5","midi":74,"time":520.8750000000001,"velocity":0.7480314960629921,"duration":0.33749999999997726},{"name":"F#5","midi":78,"time":520.8750000000001,"velocity":0.7480314960629921,"duration":0.33749999999997726},{"name":"D4","midi":62,"time":520.8750000000001,"velocity":0.7480314960629921,"duration":0.33749999999997726},{"name":"A4","midi":69,"time":520.8750000000001,"velocity":0.7480314960629921,"duration":0.33749999999997726},{"name":"D5","midi":74,"time":521.2500000000001,"velocity":0.7480314960629921,"duration":0.5062500000000227},{"name":"E5","midi":76,"time":521.2500000000001,"velocity":0.7480314960629921,"duration":0.5062500000000227},{"name":"D4","midi":62,"time":521.2500000000001,"velocity":0.7480314960629921,"duration":0.5062500000000227},{"name":"A4","midi":69,"time":521.2500000000001,"velocity":0.7480314960629921,"duration":0.5062500000000227},{"name":"E5","midi":76,"time":521.8125000000001,"velocity":0.7480314960629921,"duration":0.16875000000004547},{"name":"D4","midi":62,"time":521.8125000000001,"velocity":0.7480314960629921,"duration":0.16875000000004547},{"name":"D5","midi":74,"time":521.8125000000001,"velocity":0.7480314960629921,"duration":0.16875000000004547},{"name":"A4","midi":69,"time":521.8125000000001,"velocity":0.7480314960629921,"duration":0.16875000000004547},{"name":"B4","midi":71,"time":522.0000000000001,"velocity":0.7480314960629921,"duration":0.33749999999997726},{"name":"D5","midi":74,"time":522.0000000000001,"velocity":0.7480314960629921,"duration":0.33749999999997726},{"name":"F#5","midi":78,"time":522.0000000000001,"velocity":0.7480314960629921,"duration":0.33749999999997726},{"name":"B3","midi":59,"time":522.0000000000001,"velocity":0.7480314960629921,"duration":0.33749999999997726},{"name":"F#4","midi":66,"time":522.0000000000001,"velocity":0.7480314960629921,"duration":0.33749999999997726},{"name":"B3","midi":59,"time":522.3750000000001,"velocity":0.7480314960629921,"duration":0.33749999999997726},{"name":"F#4","midi":66,"time":522.3750000000001,"velocity":0.7480314960629921,"duration":0.33749999999997726},{"name":"D5","midi":74,"time":522.3750000000001,"velocity":0.7480314960629921,"duration":0.33749999999997726},{"name":"F#5","midi":78,"time":522.3750000000001,"velocity":0.7480314960629921,"duration":0.33749999999997726},{"name":"B4","midi":71,"time":522.3750000000001,"velocity":0.7480314960629921,"duration":0.33749999999997726},{"name":"B4","midi":71,"time":522.7500000000001,"velocity":0.7480314960629921,"duration":0.5062500000000227},{"name":"D5","midi":74,"time":522.7500000000001,"velocity":0.7480314960629921,"duration":0.5062500000000227},{"name":"E5","midi":76,"time":522.7500000000001,"velocity":0.7480314960629921,"duration":0.5062500000000227},{"name":"B3","midi":59,"time":522.7500000000001,"velocity":0.7480314960629921,"duration":0.5062500000000227},{"name":"F#4","midi":66,"time":522.7500000000001,"velocity":0.7480314960629921,"duration":0.5062500000000227},{"name":"F#4","midi":66,"time":523.3125000000001,"velocity":0.7480314960629921,"duration":0.16875000000004547},{"name":"E5","midi":76,"time":523.3125000000001,"velocity":0.7480314960629921,"duration":0.16875000000004547},{"name":"D5","midi":74,"time":523.3125000000001,"velocity":0.7480314960629921,"duration":0.16875000000004547},{"name":"B4","midi":71,"time":523.3125000000001,"velocity":0.7480314960629921,"duration":0.16875000000004547},{"name":"B3","midi":59,"time":523.3125000000001,"velocity":0.7480314960629921,"duration":0.16875000000004547},{"name":"D5","midi":74,"time":523.5000000000001,"velocity":0.7480314960629921,"duration":0.33749999999997726},{"name":"F#5","midi":78,"time":523.5000000000001,"velocity":0.7480314960629921,"duration":0.33749999999997726},{"name":"F#4","midi":66,"time":523.5000000000001,"velocity":0.7480314960629921,"duration":0.33749999999997726},{"name":"B3","midi":59,"time":523.5000000000001,"velocity":0.7480314960629921,"duration":0.33749999999997726},{"name":"B4","midi":71,"time":523.5000000000001,"velocity":0.7480314960629921,"duration":0.33749999999997726},{"name":"B4","midi":71,"time":523.8750000000001,"velocity":0.7480314960629921,"duration":0.33749999999997726},{"name":"F#5","midi":78,"time":523.8750000000001,"velocity":0.7480314960629921,"duration":0.33749999999997726},{"name":"D5","midi":74,"time":523.8750000000001,"velocity":0.7480314960629921,"duration":0.33749999999997726},{"name":"B3","midi":59,"time":523.8750000000001,"velocity":0.7480314960629921,"duration":0.33749999999997726},{"name":"F#4","midi":66,"time":523.8750000000001,"velocity":0.7480314960629921,"duration":0.33749999999997726},{"name":"B3","midi":59,"time":524.2500000000001,"velocity":0.7480314960629921,"duration":0.5062500000000227},{"name":"E5","midi":76,"time":524.2500000000001,"velocity":0.7480314960629921,"duration":0.5062500000000227},{"name":"D5","midi":74,"time":524.2500000000001,"velocity":0.7480314960629921,"duration":0.5062500000000227},{"name":"F#4","midi":66,"time":524.2500000000001,"velocity":0.7480314960629921,"duration":0.5062500000000227},{"name":"B4","midi":71,"time":524.2500000000001,"velocity":0.7480314960629921,"duration":0.5062500000000227},{"name":"B3","midi":59,"time":524.8125000000001,"velocity":0.7480314960629921,"duration":0.16875000000004547},{"name":"F#4","midi":66,"time":524.8125000000001,"velocity":0.7480314960629921,"duration":0.16875000000004547},{"name":"B4","midi":71,"time":524.8125000000001,"velocity":0.7480314960629921,"duration":0.16875000000004547},{"name":"D5","midi":74,"time":524.8125000000001,"velocity":0.7480314960629921,"duration":0.16875000000004547},{"name":"E5","midi":76,"time":524.8125000000001,"velocity":0.7480314960629921,"duration":0.16875000000004547},{"name":"C#4","midi":61,"time":525.0000000000001,"velocity":0.7480314960629921,"duration":0.33749999999997726},{"name":"G#4","midi":68,"time":525.0000000000001,"velocity":0.7480314960629921,"duration":0.33749999999997726},{"name":"B4","midi":71,"time":525.0000000000001,"velocity":0.7480314960629921,"duration":0.33749999999997726},{"name":"F#5","midi":78,"time":525.0000000000001,"velocity":0.7480314960629921,"duration":0.33749999999997726},{"name":"C#4","midi":61,"time":525.3750000000001,"velocity":0.7480314960629921,"duration":0.33749999999997726},{"name":"G#4","midi":68,"time":525.3750000000001,"velocity":0.7480314960629921,"duration":0.33749999999997726},{"name":"B4","midi":71,"time":525.3750000000001,"velocity":0.7480314960629921,"duration":0.33749999999997726},{"name":"F#5","midi":78,"time":525.3750000000001,"velocity":0.7480314960629921,"duration":0.33749999999997726},{"name":"C#4","midi":61,"time":525.7500000000001,"velocity":0.7480314960629921,"duration":0.5062500000000227},{"name":"G#4","midi":68,"time":525.7500000000001,"velocity":0.7480314960629921,"duration":0.5062500000000227},{"name":"B4","midi":71,"time":525.7500000000001,"velocity":0.7480314960629921,"duration":0.5062500000000227},{"name":"E5","midi":76,"time":525.7500000000001,"velocity":0.7480314960629921,"duration":0.5062500000000227},{"name":"E5","midi":76,"time":526.3125000000001,"velocity":0.7480314960629921,"duration":0.16875000000004547},{"name":"G#4","midi":68,"time":526.3125000000001,"velocity":0.7480314960629921,"duration":0.16875000000004547},{"name":"C#4","midi":61,"time":526.3125000000001,"velocity":0.7480314960629921,"duration":0.16875000000004547},{"name":"B4","midi":71,"time":526.3125000000001,"velocity":0.7480314960629921,"duration":0.16875000000004547},{"name":"B4","midi":71,"time":526.5000000000001,"velocity":0.7480314960629921,"duration":0.33749999999997726},{"name":"F#5","midi":78,"time":526.5000000000001,"velocity":0.7480314960629921,"duration":0.33749999999997726},{"name":"C#4","midi":61,"time":526.5000000000001,"velocity":0.7480314960629921,"duration":0.33749999999997726},{"name":"G#4","midi":68,"time":526.5000000000001,"velocity":0.7480314960629921,"duration":0.33749999999997726},{"name":"B4","midi":71,"time":526.8750000000001,"velocity":0.7480314960629921,"duration":0.33749999999997726},{"name":"F#5","midi":78,"time":526.8750000000001,"velocity":0.7480314960629921,"duration":0.33749999999997726},{"name":"C#4","midi":61,"time":526.8750000000001,"velocity":0.7480314960629921,"duration":0.33749999999997726},{"name":"G#4","midi":68,"time":526.8750000000001,"velocity":0.7480314960629921,"duration":0.33749999999997726},{"name":"C#4","midi":61,"time":527.2500000000001,"velocity":0.7480314960629921,"duration":0.5062500000000227},{"name":"G#4","midi":68,"time":527.2500000000001,"velocity":0.7480314960629921,"duration":0.5062500000000227},{"name":"B4","midi":71,"time":527.2500000000001,"velocity":0.7480314960629921,"duration":0.5062500000000227},{"name":"E5","midi":76,"time":527.2500000000001,"velocity":0.7480314960629921,"duration":0.5062500000000227},{"name":"B4","midi":71,"time":527.8125000000001,"velocity":0.7480314960629921,"duration":0.16875000000004547},{"name":"G#4","midi":68,"time":527.8125000000001,"velocity":0.7480314960629921,"duration":0.16875000000004547},{"name":"C#4","midi":61,"time":527.8125000000001,"velocity":0.7480314960629921,"duration":0.16875000000004547},{"name":"E5","midi":76,"time":527.8125000000001,"velocity":0.7480314960629921,"duration":0.16875000000004547},{"name":"D4","midi":62,"time":528.0000000000001,"velocity":0.7480314960629921,"duration":0.33749999999997726},{"name":"F#5","midi":78,"time":528.0000000000001,"velocity":0.7480314960629921,"duration":0.33749999999997726},{"name":"D5","midi":74,"time":528.0000000000001,"velocity":0.7480314960629921,"duration":0.33749999999997726},{"name":"A5","midi":81,"time":528.0000000000001,"velocity":0.7480314960629921,"duration":0.33749999999997726},{"name":"A4","midi":69,"time":528.0000000000001,"velocity":0.7480314960629921,"duration":0.33749999999997726},{"name":"D4","midi":62,"time":528.3750000000001,"velocity":0.7480314960629921,"duration":0.33749999999997726},{"name":"A4","midi":69,"time":528.3750000000001,"velocity":0.7480314960629921,"duration":0.33749999999997726},{"name":"D5","midi":74,"time":528.3750000000001,"velocity":0.7480314960629921,"duration":0.33749999999997726},{"name":"F#5","midi":78,"time":528.3750000000001,"velocity":0.7480314960629921,"duration":0.33749999999997726},{"name":"A5","midi":81,"time":528.3750000000001,"velocity":0.7480314960629921,"duration":0.33749999999997726},{"name":"A5","midi":81,"time":528.7500000000001,"velocity":0.7480314960629921,"duration":0.5062500000000227},{"name":"F#5","midi":78,"time":528.7500000000001,"velocity":0.7480314960629921,"duration":0.5062500000000227},{"name":"D5","midi":74,"time":528.7500000000001,"velocity":0.7480314960629921,"duration":0.5062500000000227},{"name":"A4","midi":69,"time":528.7500000000001,"velocity":0.7480314960629921,"duration":0.5062500000000227},{"name":"D4","midi":62,"time":528.7500000000001,"velocity":0.7480314960629921,"duration":0.5062500000000227},{"name":"D4","midi":62,"time":529.3125000000001,"velocity":0.7480314960629921,"duration":0.16875000000004547},{"name":"F#5","midi":78,"time":529.3125000000001,"velocity":0.7480314960629921,"duration":0.16875000000004547},{"name":"D5","midi":74,"time":529.3125000000001,"velocity":0.7480314960629921,"duration":0.16875000000004547},{"name":"A4","midi":69,"time":529.3125000000001,"velocity":0.7480314960629921,"duration":0.16875000000004547},{"name":"A5","midi":81,"time":529.3125000000001,"velocity":0.7480314960629921,"duration":0.16875000000004547},{"name":"D4","midi":62,"time":529.5000000000001,"velocity":0.7480314960629921,"duration":0.33749999999997726},{"name":"A4","midi":69,"time":529.5000000000001,"velocity":0.7480314960629921,"duration":0.33749999999997726},{"name":"D5","midi":74,"time":529.5000000000001,"velocity":0.7480314960629921,"duration":0.33749999999997726},{"name":"F#5","midi":78,"time":529.5000000000001,"velocity":0.7480314960629921,"duration":0.33749999999997726},{"name":"A5","midi":81,"time":529.5000000000001,"velocity":0.7480314960629921,"duration":0.33749999999997726},{"name":"D5","midi":74,"time":529.8750000000001,"velocity":0.7480314960629921,"duration":0.33749999999997726},{"name":"D4","midi":62,"time":529.8750000000001,"velocity":0.7480314960629921,"duration":0.33749999999997726},{"name":"A4","midi":69,"time":529.8750000000001,"velocity":0.7480314960629921,"duration":0.33749999999997726},{"name":"F#5","midi":78,"time":529.8750000000001,"velocity":0.7480314960629921,"duration":0.33749999999997726},{"name":"A5","midi":81,"time":529.8750000000001,"velocity":0.7480314960629921,"duration":0.33749999999997726},{"name":"D5","midi":74,"time":530.2500000000001,"velocity":0.7480314960629921,"duration":0.5062500000000227},{"name":"F#5","midi":78,"time":530.2500000000001,"velocity":0.7480314960629921,"duration":0.5062500000000227},{"name":"A5","midi":81,"time":530.2500000000001,"velocity":0.7480314960629921,"duration":0.5062500000000227},{"name":"A4","midi":69,"time":530.2500000000001,"velocity":0.7480314960629921,"duration":0.5062500000000227},{"name":"D4","midi":62,"time":530.2500000000001,"velocity":0.7480314960629921,"duration":0.5062500000000227},{"name":"A4","midi":69,"time":530.8125000000001,"velocity":0.7480314960629921,"duration":0.16875000000004547},{"name":"D5","midi":74,"time":530.8125000000001,"velocity":0.7480314960629921,"duration":0.16875000000004547},{"name":"F#5","midi":78,"time":530.8125000000001,"velocity":0.7480314960629921,"duration":0.16875000000004547},{"name":"A5","midi":81,"time":530.8125000000001,"velocity":0.7480314960629921,"duration":0.16875000000004547},{"name":"D4","midi":62,"time":530.8125000000001,"velocity":0.7480314960629921,"duration":0.16875000000004547}]},{"instrumentFamily":"piano","notes":[{"name":"G#5","midi":80,"time":75,"velocity":0.7480314960629921,"duration":1.0250000000000057},{"name":"E5","midi":76,"time":76.125,"velocity":0.7480314960629921,"duration":0.6749999999999972},{"name":"C#5","midi":73,"time":76.875,"velocity":0.7480314960629921,"duration":0.3375000000000057},{"name":"E5","midi":76,"time":77.25,"velocity":0.7480314960629921,"duration":0.6749999999999972},{"name":"C#5","midi":73,"time":78,"velocity":0.7480314960629921,"duration":1.0250000000000057},{"name":"G#4","midi":68,"time":81,"velocity":0.7480314960629921,"duration":0.3375000000000057},{"name":"G#4","midi":68,"time":81.375,"velocity":0.7480314960629921,"duration":0.6749999999999972},{"name":"A4","midi":69,"time":82.125,"velocity":0.7480314960629921,"duration":1.0250000000000057},{"name":"B4","midi":71,"time":83.25,"velocity":0.7480314960629921,"duration":0.6749999999999972},{"name":"B4","midi":71,"time":84,"velocity":0.7480314960629921,"duration":0.3375000000000057},{"name":"C#5","midi":73,"time":84.375,"velocity":0.7480314960629921,"duration":0.6749999999999972},{"name":"A4","midi":69,"time":85.125,"velocity":0.7480314960629921,"duration":1.0250000000000057},{"name":"G#4","midi":68,"time":87,"velocity":0.7480314960629921,"duration":1.0250000000000057},{"name":"F#4","midi":66,"time":88.125,"velocity":0.7480314960629921,"duration":1.0250000000000057},{"name":"C#5","midi":73,"time":89.25,"velocity":0.7480314960629921,"duration":0.6749999999999972},{"name":"G#5","midi":80,"time":93,"velocity":0.7480314960629921,"duration":1.0250000000000057},{"name":"E5","midi":76,"time":94.125,"velocity":0.7480314960629921,"duration":0.6749999999999972},{"name":"C#5","midi":73,"time":94.875,"velocity":0.7480314960629921,"duration":0.3375000000000057},{"name":"E5","midi":76,"time":95.25,"velocity":0.7480314960629921,"duration":0.6749999999999972},{"name":"C#5","midi":73,"time":96,"velocity":0.7480314960629921,"duration":1.0250000000000057},{"name":"G#4","midi":68,"time":99,"velocity":0.7480314960629921,"duration":0.3375000000000057},{"name":"G#4","midi":68,"time":99.375,"velocity":0.7480314960629921,"duration":0.6749999999999972},{"name":"A4","midi":69,"time":100.125,"velocity":0.7480314960629921,"duration":1.0250000000000057},{"name":"B4","midi":71,"time":101.25,"velocity":0.7480314960629921,"duration":0.6749999999999972},{"name":"B4","midi":71,"time":102,"velocity":0.7480314960629921,"duration":0.3375000000000057},{"name":"C#5","midi":73,"time":102.375,"velocity":0.7480314960629921,"duration":0.6749999999999972},{"name":"A4","midi":69,"time":103.125,"velocity":0.7480314960629921,"duration":1.0250000000000057},{"name":"G#4","midi":68,"time":105,"velocity":0.7480314960629921,"duration":1.0250000000000057},{"name":"F#4","midi":66,"time":106.125,"velocity":0.7480314960629921,"duration":1.0250000000000057},{"name":"C#5","midi":73,"time":107.25,"velocity":0.7480314960629921,"duration":0.6749999999999972},{"name":"A4","midi":69,"time":111,"velocity":0.7480314960629921,"duration":1.0250000000000057},{"name":"B4","midi":71,"time":112.125,"velocity":0.7480314960629921,"duration":1.0250000000000057},{"name":"C#5","midi":73,"time":113.25,"velocity":0.7480314960629921,"duration":0.6749999999999972},{"name":"G#5","midi":80,"time":114,"velocity":0.7480314960629921,"duration":1.0250000000000057},{"name":"A5","midi":81,"time":118.5,"velocity":0.7480314960629921,"duration":0.5062499999999943},{"name":"G#5","midi":80,"time":119.0625,"velocity":0.7480314960629921,"duration":0.5062499999999943},{"name":"E5","midi":76,"time":119.625,"velocity":0.7480314960629921,"duration":0.3375000000000057},{"name":"C#5","midi":73,"time":120,"velocity":0.7480314960629921,"duration":1.0250000000000057},{"name":"C#5","midi":73,"time":122.625,"velocity":0.7480314960629921,"duration":0.3375000000000057},{"name":"D5","midi":74,"time":123,"velocity":0.7480314960629921,"duration":1.0250000000000057},{"name":"E5","midi":76,"time":124.125,"velocity":0.7480314960629921,"duration":1.0250000000000057},{"name":"C#5","midi":73,"time":125.25,"velocity":0.7480314960629921,"duration":1.4000000000000057},{"name":"A4","midi":69,"time":132,"velocity":0.7480314960629921,"duration":1.0250000000000057},{"name":"B4","midi":71,"time":133.125,"velocity":0.7480314960629921,"duration":1.0250000000000057},{"name":"C#5","midi":73,"time":134.25,"velocity":0.7480314960629921,"duration":0.6750000000000114},{"name":"G#5","midi":80,"time":135,"velocity":0.7480314960629921,"duration":1.0250000000000057},{"name":"A5","midi":81,"time":139.5,"velocity":0.7480314960629921,"duration":0.5062499999999943},{"name":"G#5","midi":80,"time":140.0625,"velocity":0.7480314960629921,"duration":0.5062499999999943},{"name":"E5","midi":76,"time":140.625,"velocity":0.7480314960629921,"duration":0.3375000000000057},{"name":"C#5","midi":73,"time":141,"velocity":0.7480314960629921,"duration":1.0250000000000057},{"name":"C#5","midi":73,"time":143.625,"velocity":0.7480314960629921,"duration":0.3375000000000057},{"name":"D5","midi":74,"time":144,"velocity":0.7480314960629921,"duration":1.0250000000000057},{"name":"E5","midi":76,"time":145.125,"velocity":0.7480314960629921,"duration":1.0250000000000057},{"name":"A4","midi":69,"time":146.25,"velocity":0.7480314960629921,"duration":1.4000000000000057},{"name":"G#5","midi":80,"time":153,"velocity":0.7480314960629921,"duration":1.0250000000000057},{"name":"E5","midi":76,"time":154.125,"velocity":0.7480314960629921,"duration":0.6750000000000114},{"name":"C#5","midi":73,"time":154.875,"velocity":0.7480314960629921,"duration":0.3375000000000057},{"name":"E5","midi":76,"time":155.25,"velocity":0.7480314960629921,"duration":0.6750000000000114},{"name":"C#5","midi":73,"time":156,"velocity":0.7480314960629921,"duration":1.0250000000000057},{"name":"G#4","midi":68,"time":159,"velocity":0.7480314960629921,"duration":0.3375000000000057},{"name":"G#4","midi":68,"time":159.375,"velocity":0.7480314960629921,"duration":0.6750000000000114},{"name":"A4","midi":69,"time":160.125,"velocity":0.7480314960629921,"duration":1.0250000000000057},{"name":"B4","midi":71,"time":161.25,"velocity":0.7480314960629921,"duration":0.6750000000000114},{"name":"B4","midi":71,"time":162,"velocity":0.7480314960629921,"duration":0.3375000000000057},{"name":"C#5","midi":73,"time":162.375,"velocity":0.7480314960629921,"duration":0.6750000000000114},{"name":"A4","midi":69,"time":163.125,"velocity":0.7480314960629921,"duration":1.0250000000000057},{"name":"G#4","midi":68,"time":165,"velocity":0.7480314960629921,"duration":1.0250000000000057},{"name":"F#4","midi":66,"time":166.125,"velocity":0.7480314960629921,"duration":1.0250000000000057},{"name":"C#5","midi":73,"time":167.25,"velocity":0.7480314960629921,"duration":0.6750000000000114},{"name":"G#5","midi":80,"time":171,"velocity":0.7480314960629921,"duration":1.0250000000000057},{"name":"E5","midi":76,"time":172.125,"velocity":0.7480314960629921,"duration":0.6750000000000114},{"name":"C#5","midi":73,"time":172.875,"velocity":0.7480314960629921,"duration":0.3375000000000057},{"name":"E5","midi":76,"time":173.25,"velocity":0.7480314960629921,"duration":0.6750000000000114},{"name":"C#5","midi":73,"time":174,"velocity":0.7480314960629921,"duration":1.0250000000000057},{"name":"G#4","midi":68,"time":177,"velocity":0.7480314960629921,"duration":0.3375000000000057},{"name":"G#4","midi":68,"time":177.375,"velocity":0.7480314960629921,"duration":0.6750000000000114},{"name":"A4","midi":69,"time":178.125,"velocity":0.7480314960629921,"duration":1.0250000000000057},{"name":"B4","midi":71,"time":179.25,"velocity":0.7480314960629921,"duration":0.6750000000000114},{"name":"B4","midi":71,"time":180,"velocity":0.7480314960629921,"duration":0.3375000000000057},{"name":"C#5","midi":73,"time":180.375,"velocity":0.7480314960629921,"duration":0.6750000000000114},{"name":"A4","midi":69,"time":181.125,"velocity":0.7480314960629921,"duration":1.0250000000000057},{"name":"G#4","midi":68,"time":183,"velocity":0.7480314960629921,"duration":1.0250000000000057},{"name":"F#4","midi":66,"time":184.125,"velocity":0.7480314960629921,"duration":1.0250000000000057},{"name":"C#5","midi":73,"time":185.25,"velocity":0.7480314960629921,"duration":0.6750000000000114},{"name":"A4","midi":69,"time":189,"velocity":0.7480314960629921,"duration":1.0250000000000057},{"name":"B4","midi":71,"time":190.125,"velocity":0.7480314960629921,"duration":1.0250000000000057},{"name":"C#5","midi":73,"time":191.25,"velocity":0.7480314960629921,"duration":0.6750000000000114},{"name":"G#5","midi":80,"time":192,"velocity":0.7480314960629921,"duration":1.0250000000000057},{"name":"A5","midi":81,"time":196.5,"velocity":0.7480314960629921,"duration":0.5062499999999943},{"name":"G#5","midi":80,"time":197.0625,"velocity":0.7480314960629921,"duration":0.5062499999999943},{"name":"E5","midi":76,"time":197.625,"velocity":0.7480314960629921,"duration":0.3375000000000057},{"name":"C#5","midi":73,"time":198,"velocity":0.7480314960629921,"duration":1.0250000000000057},{"name":"C#5","midi":73,"time":200.625,"velocity":0.7480314960629921,"duration":0.3375000000000057},{"name":"D5","midi":74,"time":201,"velocity":0.7480314960629921,"duration":1.0250000000000057},{"name":"E5","midi":76,"time":202.125,"velocity":0.7480314960629921,"duration":1.0250000000000057},{"name":"A4","midi":69,"time":203.25,"velocity":0.7480314960629921,"duration":1.4000000000000057},{"name":"B4","midi":71,"time":206.8125,"velocity":0.7480314960629921,"duration":0.16874999999998863},{"name":"C#5","midi":73,"time":207,"velocity":0.7480314960629921,"duration":0.16874999999998863},{"name":"B4","midi":71,"time":207.1875,"velocity":0.7480314960629921,"duration":0.16874999999998863},{"name":"C#5","midi":73,"time":207.375,"velocity":0.7480314960629921,"duration":0.16874999999998863},{"name":"B4","midi":71,"time":207.5625,"velocity":0.7480314960629921,"duration":0.16874999999998863},{"name":"C#5","midi":73,"time":207.75,"velocity":0.7480314960629921,"duration":0.3375000000000057},{"name":"C#5","midi":73,"time":208.125,"velocity":0.7480314960629921,"duration":0.16874999999998863},{"name":"B4","midi":71,"time":208.3125,"velocity":0.7480314960629921,"duration":0.16874999999998863},{"name":"C#5","midi":73,"time":208.5,"velocity":0.7480314960629921,"duration":0.16874999999998863},{"name":"B4","midi":71,"time":208.6875,"velocity":0.7480314960629921,"duration":0.16874999999998863},{"name":"C#5","midi":73,"time":208.875,"velocity":0.7480314960629921,"duration":0.3375000000000057},{"name":"C#5","midi":73,"time":209.25,"velocity":0.7480314960629921,"duration":0.3375000000000057},{"name":"E5","midi":76,"time":209.625,"velocity":0.7480314960629921,"duration":0.3375000000000057},{"name":"C#5","midi":73,"time":210,"velocity":0.7480314960629921,"duration":0.6750000000000114},{"name":"C#5","midi":73,"time":211.5,"velocity":0.7480314960629921,"duration":0.16874999999998863},{"name":"B4","midi":71,"time":211.6875,"velocity":0.7480314960629921,"duration":0.16874999999998863},{"name":"C#5","midi":73,"time":211.875,"velocity":0.7480314960629921,"duration":0.16874999999998863},{"name":"B4","midi":71,"time":212.0625,"velocity":0.7480314960629921,"duration":0.16874999999998863},{"name":"C#5","midi":73,"time":212.25,"velocity":0.7480314960629921,"duration":0.3375000000000057},{"name":"C#5","midi":73,"time":212.625,"velocity":0.7480314960629921,"duration":0.16874999999998863},{"name":"B4","midi":71,"time":212.8125,"velocity":0.7480314960629921,"duration":0.16874999999998863},{"name":"C#5","midi":73,"time":213,"velocity":0.7480314960629921,"duration":0.16874999999998863},{"name":"B4","midi":71,"time":213.1875,"velocity":0.7480314960629921,"duration":0.16874999999998863},{"name":"B4","midi":71,"time":213.375,"velocity":0.7480314960629921,"duration":0.6750000000000114},{"name":"C#5","midi":73,"time":217.5,"velocity":0.7480314960629921,"duration":0.16874999999998863},{"name":"B4","midi":71,"time":217.6875,"velocity":0.7480314960629921,"duration":0.16874999999998863},{"name":"C#5","midi":73,"time":217.875,"velocity":0.7480314960629921,"duration":0.16874999999998863},{"name":"B4","midi":71,"time":218.0625,"velocity":0.7480314960629921,"duration":0.16874999999998863},{"name":"C#5","midi":73,"time":218.25,"velocity":0.7480314960629921,"duration":0.3375000000000057},{"name":"C#5","midi":73,"time":218.625,"velocity":0.7480314960629921,"duration":0.16874999999998863},{"name":"B4","midi":71,"time":218.8125,"velocity":0.7480314960629921,"duration":0.16874999999998863},{"name":"C#5","midi":73,"time":219,"velocity":0.7480314960629921,"duration":0.3375000000000057},{"name":"A4","midi":69,"time":219.375,"velocity":0.7480314960629921,"duration":0.6750000000000114},{"name":"G#4","midi":68,"time":222,"velocity":0.7480314960629921,"duration":1.0250000000000057},{"name":"F#4","midi":66,"time":223.125,"velocity":0.7480314960629921,"duration":1.0250000000000057},{"name":"C#5","midi":73,"time":224.25,"velocity":0.7480314960629921,"duration":0.6750000000000114},{"name":"C#5","midi":73,"time":225,"velocity":0.7480314960629921,"duration":0.16874999999998863},{"name":"B4","midi":71,"time":225.1875,"velocity":0.7480314960629921,"duration":0.16874999999998863},{"name":"C#5","midi":73,"time":225.375,"velocity":0.7480314960629921,"duration":0.16874999999998863},{"name":"B4","midi":71,"time":225.5625,"velocity":0.7480314960629921,"duration":0.16874999999998863},{"name":"C#5","midi":73,"time":225.75,"velocity":0.7480314960629921,"duration":0.3375000000000057},{"name":"C#5","midi":73,"time":226.125,"velocity":0.7480314960629921,"duration":0.16874999999998863},{"name":"B4","midi":71,"time":226.3125,"velocity":0.7480314960629921,"duration":0.16874999999998863},{"name":"C#5","midi":73,"time":226.5,"velocity":0.7480314960629921,"duration":0.16874999999998863},{"name":"B4","midi":71,"time":226.6875,"velocity":0.7480314960629921,"duration":0.16874999999998863},{"name":"C#5","midi":73,"time":226.875,"velocity":0.7480314960629921,"duration":0.3375000000000057},{"name":"C#5","midi":73,"time":227.25,"velocity":0.7480314960629921,"duration":0.3375000000000057},{"name":"E5","midi":76,"time":227.625,"velocity":0.7480314960629921,"duration":0.3375000000000057},{"name":"C#5","midi":73,"time":228,"velocity":0.7480314960629921,"duration":0.6750000000000114},{"name":"C#5","midi":73,"time":229.5,"velocity":0.7480314960629921,"duration":0.16874999999998863},{"name":"B4","midi":71,"time":229.6875,"velocity":0.7480314960629921,"duration":0.16874999999998863},{"name":"C#5","midi":73,"time":229.875,"velocity":0.7480314960629921,"duration":0.16874999999998863},{"name":"B4","midi":71,"time":230.0625,"velocity":0.7480314960629921,"duration":0.16874999999998863},{"name":"C#5","midi":73,"time":230.25,"velocity":0.7480314960629921,"duration":0.3375000000000057},{"name":"C#5","midi":73,"time":230.625,"velocity":0.7480314960629921,"duration":0.16874999999998863},{"name":"B4","midi":71,"time":230.8125,"velocity":0.7480314960629921,"duration":0.16874999999998863},{"name":"C#5","midi":73,"time":231,"velocity":0.7480314960629921,"duration":0.16874999999998863},{"name":"B4","midi":71,"time":231.1875,"velocity":0.7480314960629921,"duration":0.16874999999998863},{"name":"B4","midi":71,"time":231.375,"velocity":0.7480314960629921,"duration":0.6750000000000114},{"name":"C#5","midi":73,"time":235.5,"velocity":0.7480314960629921,"duration":0.16874999999998863},{"name":"B4","midi":71,"time":235.6875,"velocity":0.7480314960629921,"duration":0.16874999999998863},{"name":"C#5","midi":73,"time":235.875,"velocity":0.7480314960629921,"duration":0.16874999999998863},{"name":"B4","midi":71,"time":236.0625,"velocity":0.7480314960629921,"duration":0.16874999999998863},{"name":"C#5","midi":73,"time":236.25,"velocity":0.7480314960629921,"duration":0.3375000000000057},{"name":"C#5","midi":73,"time":236.625,"velocity":0.7480314960629921,"duration":0.16874999999998863},{"name":"B4","midi":71,"time":236.8125,"velocity":0.7480314960629921,"duration":0.16874999999998863},{"name":"C#5","midi":73,"time":237,"velocity":0.7480314960629921,"duration":0.3375000000000057},{"name":"A4","midi":69,"time":237.375,"velocity":0.7480314960629921,"duration":0.6750000000000114},{"name":"G#4","midi":68,"time":240,"velocity":0.7480314960629921,"duration":1.0250000000000057},{"name":"F#4","midi":66,"time":241.125,"velocity":0.7480314960629921,"duration":1.0250000000000057},{"name":"C#5","midi":73,"time":242.25,"velocity":0.7480314960629921,"duration":0.6750000000000114}]},{"instrumentFamily":"piano","notes":[{"name":"A2","midi":45,"time":108,"velocity":0.7480314960629921,"duration":0.3375000000000057},{"name":"A3","midi":57,"time":108,"velocity":0.7480314960629921,"duration":0.3375000000000057},{"name":"A2","midi":45,"time":108.375,"velocity":0.7480314960629921,"duration":0.6749999999999972},{"name":"A3","midi":57,"time":108.375,"velocity":0.7480314960629921,"duration":0.6749999999999972},{"name":"A2","midi":45,"time":111,"velocity":0.7480314960629921,"duration":0.3375000000000057},{"name":"A3","midi":57,"time":111,"velocity":0.7480314960629921,"duration":0.3375000000000057},{"name":"A3","midi":57,"time":111.375,"velocity":0.7480314960629921,"duration":0.6749999999999972},{"name":"A2","midi":45,"time":111.375,"velocity":0.7480314960629921,"duration":0.6749999999999972},{"name":"C#4","midi":61,"time":114,"velocity":0.7480314960629921,"duration":0.3375000000000057},{"name":"C#3","midi":49,"time":114,"velocity":0.7480314960629921,"duration":0.3375000000000057},{"name":"C#3","midi":49,"time":114.375,"velocity":0.7480314960629921,"duration":0.6749999999999972},{"name":"C#4","midi":61,"time":114.375,"velocity":0.7480314960629921,"duration":0.6749999999999972},{"name":"C#3","midi":49,"time":117,"velocity":0.7480314960629921,"duration":0.3375000000000057},{"name":"C#4","midi":61,"time":117,"velocity":0.7480314960629921,"duration":0.3375000000000057},{"name":"C#4","midi":61,"time":117.375,"velocity":0.7480314960629921,"duration":0.6749999999999972},{"name":"C#3","midi":49,"time":117.375,"velocity":0.7480314960629921,"duration":0.6749999999999972},{"name":"F#4","midi":66,"time":120,"velocity":0.7480314960629921,"duration":0.3375000000000057},{"name":"F#3","midi":54,"time":120,"velocity":0.7480314960629921,"duration":0.3375000000000057},{"name":"F#4","midi":66,"time":120.375,"velocity":0.7480314960629921,"duration":0.6749999999999972},{"name":"F#3","midi":54,"time":120.375,"velocity":0.7480314960629921,"duration":0.6749999999999972},{"name":"D3","midi":50,"time":123,"velocity":0.7480314960629921,"duration":0.3375000000000057},{"name":"D4","midi":62,"time":123,"velocity":0.7480314960629921,"duration":0.3375000000000057},{"name":"D4","midi":62,"time":123.375,"velocity":0.7480314960629921,"duration":0.6749999999999972},{"name":"D3","midi":50,"time":123.375,"velocity":0.7480314960629921,"duration":0.6749999999999972},{"name":"D3","midi":50,"time":126,"velocity":0.7480314960629921,"duration":0.3375000000000057},{"name":"D4","midi":62,"time":126,"velocity":0.7480314960629921,"duration":0.3375000000000057},{"name":"D4","midi":62,"time":126.375,"velocity":0.7480314960629921,"duration":0.6749999999999972},{"name":"D3","midi":50,"time":126.375,"velocity":0.7480314960629921,"duration":0.6749999999999972},{"name":"A2","midi":45,"time":129,"velocity":0.7480314960629921,"duration":0.3375000000000057},{"name":"A3","midi":57,"time":129,"velocity":0.7480314960629921,"duration":0.3375000000000057},{"name":"A3","midi":57,"time":129.375,"velocity":0.7480314960629921,"duration":0.6750000000000114},{"name":"A2","midi":45,"time":129.375,"velocity":0.7480314960629921,"duration":0.6750000000000114},{"name":"A3","midi":57,"time":132,"velocity":0.7480314960629921,"duration":0.3375000000000057},{"name":"A2","midi":45,"time":132,"velocity":0.7480314960629921,"duration":0.3375000000000057},{"name":"A2","midi":45,"time":132.375,"velocity":0.7480314960629921,"duration":0.6750000000000114},{"name":"A3","midi":57,"time":132.375,"velocity":0.7480314960629921,"duration":0.6750000000000114},{"name":"C#3","midi":49,"time":135,"velocity":0.7480314960629921,"duration":0.3375000000000057},{"name":"C#4","midi":61,"time":135,"velocity":0.7480314960629921,"duration":0.3375000000000057},{"name":"C#3","midi":49,"time":135.375,"velocity":0.7480314960629921,"duration":0.6750000000000114},{"name":"C#4","midi":61,"time":135.375,"velocity":0.7480314960629921,"duration":0.6750000000000114},{"name":"C#3","midi":49,"time":138,"velocity":0.7480314960629921,"duration":0.3375000000000057},{"name":"C#4","midi":61,"time":138,"velocity":0.7480314960629921,"duration":0.3375000000000057},{"name":"C#3","midi":49,"time":138.375,"velocity":0.7480314960629921,"duration":0.6750000000000114},{"name":"C#4","midi":61,"time":138.375,"velocity":0.7480314960629921,"duration":0.6750000000000114},{"name":"F#3","midi":54,"time":141,"velocity":0.7480314960629921,"duration":0.3375000000000057},{"name":"F#4","midi":66,"time":141,"velocity":0.7480314960629921,"duration":0.3375000000000057},{"name":"F#4","midi":66,"time":141.375,"velocity":0.7480314960629921,"duration":0.6750000000000114},{"name":"F#3","midi":54,"time":141.375,"velocity":0.7480314960629921,"duration":0.6750000000000114},{"name":"D4","midi":62,"time":144,"velocity":0.7480314960629921,"duration":0.3375000000000057},{"name":"D3","midi":50,"time":144,"velocity":0.7480314960629921,"duration":0.3375000000000057},{"name":"D4","midi":62,"time":144.375,"velocity":0.7480314960629921,"duration":0.6750000000000114},{"name":"D3","midi":50,"time":144.375,"velocity":0.7480314960629921,"duration":0.6750000000000114},{"name":"D3","midi":50,"time":147,"velocity":0.7480314960629921,"duration":0.3375000000000057},{"name":"D4","midi":62,"time":147,"velocity":0.7480314960629921,"duration":0.3375000000000057},{"name":"D3","midi":50,"time":147.375,"velocity":0.7480314960629921,"duration":0.6750000000000114},{"name":"D4","midi":62,"time":147.375,"velocity":0.7480314960629921,"duration":0.6750000000000114},{"name":"E4","midi":64,"time":150,"velocity":0.7480314960629921,"duration":0.3375000000000057},{"name":"C#4","midi":61,"time":150.375,"velocity":0.7480314960629921,"duration":0.3375000000000057},{"name":"E4","midi":64,"time":150.75,"velocity":0.7480314960629921,"duration":0.3375000000000057},{"name":"C#4","midi":61,"time":151.125,"velocity":0.7480314960629921,"duration":0.3375000000000057},{"name":"E4","midi":64,"time":151.5,"velocity":0.7480314960629921,"duration":0.3375000000000057},{"name":"C#4","midi":61,"time":151.875,"velocity":0.7480314960629921,"duration":0.3375000000000057},{"name":"E4","midi":64,"time":152.25,"velocity":0.7480314960629921,"duration":0.3375000000000057},{"name":"C#4","midi":61,"time":152.625,"velocity":0.7480314960629921,"duration":0.3375000000000057},{"name":"E4","midi":64,"time":153,"velocity":0.7480314960629921,"duration":0.3375000000000057},{"name":"C#4","midi":61,"time":153.375,"velocity":0.7480314960629921,"duration":0.3375000000000057},{"name":"E4","midi":64,"time":153.75,"velocity":0.7480314960629921,"duration":0.3375000000000057},{"name":"C#4","midi":61,"time":154.125,"velocity":0.7480314960629921,"duration":0.3375000000000057},{"name":"E4","midi":64,"time":154.5,"velocity":0.7480314960629921,"duration":0.3375000000000057},{"name":"C#4","midi":61,"time":154.875,"velocity":0.7480314960629921,"duration":0.3375000000000057},{"name":"E4","midi":64,"time":155.25,"velocity":0.7480314960629921,"duration":0.3375000000000057},{"name":"C#4","midi":61,"time":155.625,"velocity":0.7480314960629921,"duration":0.3375000000000057},{"name":"E4","midi":64,"time":156,"velocity":0.7480314960629921,"duration":0.3375000000000057},{"name":"C#5","midi":73,"time":156.375,"velocity":0.7480314960629921,"duration":0.3375000000000057},{"name":"E4","midi":64,"time":156.75,"velocity":0.7480314960629921,"duration":0.3375000000000057},{"name":"C#5","midi":73,"time":157.125,"velocity":0.7480314960629921,"duration":0.3375000000000057},{"name":"E4","midi":64,"time":157.5,"velocity":0.7480314960629921,"duration":0.3375000000000057},{"name":"C#5","midi":73,"time":157.875,"velocity":0.7480314960629921,"duration":0.3375000000000057},{"name":"E4","midi":64,"time":158.25,"velocity":0.7480314960629921,"duration":0.3375000000000057},{"name":"C#5","midi":73,"time":158.625,"velocity":0.7480314960629921,"duration":0.3375000000000057},{"name":"E4","midi":64,"time":159,"velocity":0.7480314960629921,"duration":0.3375000000000057},{"name":"C#5","midi":73,"time":159.375,"velocity":0.7480314960629921,"duration":0.3375000000000057},{"name":"E4","midi":64,"time":159.75,"velocity":0.7480314960629921,"duration":0.3375000000000057},{"name":"C#5","midi":73,"time":160.125,"velocity":0.7480314960629921,"duration":0.3375000000000057},{"name":"E4","midi":64,"time":160.5,"velocity":0.7480314960629921,"duration":0.3375000000000057},{"name":"C#5","midi":73,"time":160.875,"velocity":0.7480314960629921,"duration":0.3375000000000057},{"name":"E4","midi":64,"time":161.25,"velocity":0.7480314960629921,"duration":0.3375000000000057},{"name":"C#5","midi":73,"time":161.625,"velocity":0.7480314960629921,"duration":0.3375000000000057},{"name":"F#4","midi":66,"time":162,"velocity":0.7480314960629921,"duration":0.3375000000000057},{"name":"A4","midi":69,"time":162.375,"velocity":0.7480314960629921,"duration":0.3375000000000057},{"name":"D5","midi":74,"time":162.375,"velocity":0.7480314960629921,"duration":0.3375000000000057},{"name":"F#4","midi":66,"time":162.75,"velocity":0.7480314960629921,"duration":0.3375000000000057},{"name":"D5","midi":74,"time":163.125,"velocity":0.7480314960629921,"duration":0.3375000000000057},{"name":"A4","midi":69,"time":163.125,"velocity":0.7480314960629921,"duration":0.3375000000000057},{"name":"F#4","midi":66,"time":163.5,"velocity":0.7480314960629921,"duration":0.3375000000000057},{"name":"D5","midi":74,"time":163.875,"velocity":0.7480314960629921,"duration":0.3375000000000057},{"name":"A4","midi":69,"time":163.875,"velocity":0.7480314960629921,"duration":0.3375000000000057},{"name":"F#4","midi":66,"time":164.25,"velocity":0.7480314960629921,"duration":0.3375000000000057},{"name":"A4","midi":69,"time":164.625,"velocity":0.7480314960629921,"duration":0.3375000000000057},{"name":"D5","midi":74,"time":164.625,"velocity":0.7480314960629921,"duration":0.3375000000000057},{"name":"F#4","midi":66,"time":165,"velocity":0.7480314960629921,"duration":0.3375000000000057},{"name":"A4","midi":69,"time":165.375,"velocity":0.7480314960629921,"duration":0.3375000000000057},{"name":"D5","midi":74,"time":165.375,"velocity":0.7480314960629921,"duration":0.3375000000000057},{"name":"F#4","midi":66,"time":165.75,"velocity":0.7480314960629921,"duration":0.3375000000000057},{"name":"A4","midi":69,"time":166.125,"velocity":0.7480314960629921,"duration":0.3375000000000057},{"name":"D5","midi":74,"time":166.125,"velocity":0.7480314960629921,"duration":0.3375000000000057},{"name":"F#4","midi":66,"time":166.5,"velocity":0.7480314960629921,"duration":0.3375000000000057},{"name":"A4","midi":69,"time":166.875,"velocity":0.7480314960629921,"duration":0.3375000000000057},{"name":"D5","midi":74,"time":166.875,"velocity":0.7480314960629921,"duration":0.3375000000000057},{"name":"F#4","midi":66,"time":167.25,"velocity":0.7480314960629921,"duration":0.3375000000000057},{"name":"D5","midi":74,"time":167.625,"velocity":0.7480314960629921,"duration":0.3375000000000057},{"name":"A4","midi":69,"time":167.625,"velocity":0.7480314960629921,"duration":0.3375000000000057},{"name":"E4","midi":64,"time":168,"velocity":0.7480314960629921,"duration":0.3375000000000057},{"name":"C#4","midi":61,"time":168.375,"velocity":0.7480314960629921,"duration":0.3375000000000057},{"name":"E4","midi":64,"time":168.75,"velocity":0.7480314960629921,"duration":0.3375000000000057},{"name":"C#4","midi":61,"time":169.125,"velocity":0.7480314960629921,"duration":0.3375000000000057},{"name":"E4","midi":64,"time":169.5,"velocity":0.7480314960629921,"duration":0.3375000000000057},{"name":"C#4","midi":61,"time":169.875,"velocity":0.7480314960629921,"duration":0.3375000000000057},{"name":"E4","midi":64,"time":170.25,"velocity":0.7480314960629921,"duration":0.3375000000000057},{"name":"C#4","midi":61,"time":170.625,"velocity":0.7480314960629921,"duration":0.3375000000000057},{"name":"E4","midi":64,"time":171,"velocity":0.7480314960629921,"duration":0.3375000000000057},{"name":"C#4","midi":61,"time":171.375,"velocity":0.7480314960629921,"duration":0.3375000000000057},{"name":"E4","midi":64,"time":171.75,"velocity":0.7480314960629921,"duration":0.3375000000000057},{"name":"C#4","midi":61,"time":172.125,"velocity":0.7480314960629921,"duration":0.3375000000000057},{"name":"E4","midi":64,"time":172.5,"velocity":0.7480314960629921,"duration":0.3375000000000057},{"name":"C#4","midi":61,"time":172.875,"velocity":0.7480314960629921,"duration":0.3375000000000057},{"name":"E4","midi":64,"time":173.25,"velocity":0.7480314960629921,"duration":0.3375000000000057},{"name":"C#4","midi":61,"time":173.625,"velocity":0.7480314960629921,"duration":0.3375000000000057},{"name":"E4","midi":64,"time":174,"velocity":0.7480314960629921,"duration":0.3375000000000057},{"name":"C#5","midi":73,"time":174.375,"velocity":0.7480314960629921,"duration":0.3375000000000057},{"name":"E4","midi":64,"time":174.75,"velocity":0.7480314960629921,"duration":0.3375000000000057},{"name":"C#5","midi":73,"time":175.125,"velocity":0.7480314960629921,"duration":0.3375000000000057},{"name":"E4","midi":64,"time":175.5,"velocity":0.7480314960629921,"duration":0.3375000000000057},{"name":"C#5","midi":73,"time":175.875,"velocity":0.7480314960629921,"duration":0.3375000000000057},{"name":"E4","midi":64,"time":176.25,"velocity":0.7480314960629921,"duration":0.3375000000000057},{"name":"C#5","midi":73,"time":176.625,"velocity":0.7480314960629921,"duration":0.3375000000000057},{"name":"E4","midi":64,"time":177,"velocity":0.7480314960629921,"duration":0.3375000000000057},{"name":"C#5","midi":73,"time":177.375,"velocity":0.7480314960629921,"duration":0.3375000000000057},{"name":"E4","midi":64,"time":177.75,"velocity":0.7480314960629921,"duration":0.3375000000000057},{"name":"C#5","midi":73,"time":178.125,"velocity":0.7480314960629921,"duration":0.3375000000000057},{"name":"E4","midi":64,"time":178.5,"velocity":0.7480314960629921,"duration":0.3375000000000057},{"name":"C#5","midi":73,"time":178.875,"velocity":0.7480314960629921,"duration":0.3375000000000057},{"name":"E4","midi":64,"time":179.25,"velocity":0.7480314960629921,"duration":0.3375000000000057},{"name":"C#5","midi":73,"time":179.625,"velocity":0.7480314960629921,"duration":0.3375000000000057},{"name":"F#4","midi":66,"time":180,"velocity":0.7480314960629921,"duration":0.3375000000000057},{"name":"A4","midi":69,"time":180.375,"velocity":0.7480314960629921,"duration":0.3375000000000057},{"name":"D5","midi":74,"time":180.375,"velocity":0.7480314960629921,"duration":0.3375000000000057},{"name":"F#4","midi":66,"time":180.75,"velocity":0.7480314960629921,"duration":0.3375000000000057},{"name":"A4","midi":69,"time":181.125,"velocity":0.7480314960629921,"duration":0.3375000000000057},{"name":"D5","midi":74,"time":181.125,"velocity":0.7480314960629921,"duration":0.3375000000000057},{"name":"F#4","midi":66,"time":181.5,"velocity":0.7480314960629921,"duration":0.3375000000000057},{"name":"D5","midi":74,"time":181.875,"velocity":0.7480314960629921,"duration":0.3375000000000057},{"name":"A4","midi":69,"time":181.875,"velocity":0.7480314960629921,"duration":0.3375000000000057},{"name":"F#4","midi":66,"time":182.25,"velocity":0.7480314960629921,"duration":0.3375000000000057},{"name":"D5","midi":74,"time":182.625,"velocity":0.7480314960629921,"duration":0.3375000000000057},{"name":"A4","midi":69,"time":182.625,"velocity":0.7480314960629921,"duration":0.3375000000000057},{"name":"F#4","midi":66,"time":183,"velocity":0.7480314960629921,"duration":0.3375000000000057},{"name":"A4","midi":69,"time":183.375,"velocity":0.7480314960629921,"duration":0.3375000000000057},{"name":"D5","midi":74,"time":183.375,"velocity":0.7480314960629921,"duration":0.3375000000000057},{"name":"F#4","midi":66,"time":183.75,"velocity":0.7480314960629921,"duration":0.3375000000000057},{"name":"D5","midi":74,"time":184.125,"velocity":0.7480314960629921,"duration":0.3375000000000057},{"name":"A4","midi":69,"time":184.125,"velocity":0.7480314960629921,"duration":0.3375000000000057},{"name":"F#4","midi":66,"time":184.5,"velocity":0.7480314960629921,"duration":0.3375000000000057},{"name":"A4","midi":69,"time":184.875,"velocity":0.7480314960629921,"duration":0.3375000000000057},{"name":"D5","midi":74,"time":184.875,"velocity":0.7480314960629921,"duration":0.3375000000000057},{"name":"F#4","midi":66,"time":185.25,"velocity":0.7480314960629921,"duration":0.3375000000000057},{"name":"A4","midi":69,"time":185.625,"velocity":0.7480314960629921,"duration":0.3375000000000057},{"name":"D5","midi":74,"time":185.625,"velocity":0.7480314960629921,"duration":0.3375000000000057},{"name":"A2","midi":45,"time":186,"velocity":0.7480314960629921,"duration":0.3375000000000057},{"name":"A3","midi":57,"time":186,"velocity":0.7480314960629921,"duration":0.3375000000000057},{"name":"A3","midi":57,"time":186.375,"velocity":0.7480314960629921,"duration":0.6750000000000114},{"name":"A2","midi":45,"time":186.375,"velocity":0.7480314960629921,"duration":0.6750000000000114},{"name":"A3","midi":57,"time":189,"velocity":0.7480314960629921,"duration":0.3375000000000057},{"name":"A2","midi":45,"time":189,"velocity":0.7480314960629921,"duration":0.3375000000000057},{"name":"A2","midi":45,"time":189.375,"velocity":0.7480314960629921,"duration":0.6750000000000114},{"name":"A3","midi":57,"time":189.375,"velocity":0.7480314960629921,"duration":0.6750000000000114},{"name":"C#4","midi":61,"time":192,"velocity":0.7480314960629921,"duration":0.3375000000000057},{"name":"C#3","midi":49,"time":192,"velocity":0.7480314960629921,"duration":0.3375000000000057},{"name":"C#3","midi":49,"time":192.375,"velocity":0.7480314960629921,"duration":0.6750000000000114},{"name":"C#4","midi":61,"time":192.375,"velocity":0.7480314960629921,"duration":0.6750000000000114},{"name":"C#4","midi":61,"time":195,"velocity":0.7480314960629921,"duration":0.3375000000000057},{"name":"C#3","midi":49,"time":195,"velocity":0.7480314960629921,"duration":0.3375000000000057},{"name":"C#4","midi":61,"time":195.375,"velocity":0.7480314960629921,"duration":0.6750000000000114},{"name":"C#3","midi":49,"time":195.375,"velocity":0.7480314960629921,"duration":0.6750000000000114},{"name":"F#4","midi":66,"time":198,"velocity":0.7480314960629921,"duration":0.3375000000000057},{"name":"F#3","midi":54,"time":198,"velocity":0.7480314960629921,"duration":0.3375000000000057},{"name":"F#3","midi":54,"time":198.375,"velocity":0.7480314960629921,"duration":0.6750000000000114},{"name":"F#4","midi":66,"time":198.375,"velocity":0.7480314960629921,"duration":0.6750000000000114},{"name":"D3","midi":50,"time":201,"velocity":0.7480314960629921,"duration":0.3375000000000057},{"name":"D4","midi":62,"time":201,"velocity":0.7480314960629921,"duration":0.3375000000000057},{"name":"D4","midi":62,"time":201.375,"velocity":0.7480314960629921,"duration":0.6750000000000114},{"name":"D3","midi":50,"time":201.375,"velocity":0.7480314960629921,"duration":0.6750000000000114},{"name":"D4","midi":62,"time":204,"velocity":0.7480314960629921,"duration":0.3375000000000057},{"name":"D3","midi":50,"time":204,"velocity":0.7480314960629921,"duration":0.3375000000000057},{"name":"D4","midi":62,"time":204.375,"velocity":0.7480314960629921,"duration":0.6750000000000114},{"name":"D3","midi":50,"time":204.375,"velocity":0.7480314960629921,"duration":0.6750000000000114},{"name":"D4","midi":62,"time":261,"velocity":0.7480314960629921,"duration":1.3999999999999773},{"name":"C#4","midi":61,"time":262.5,"velocity":0.7480314960629921,"duration":1.3999999999999773},{"name":"A3","midi":57,"time":264,"velocity":0.7480314960629921,"duration":5.899999999999977},{"name":"B3","midi":59,"time":282,"velocity":0.7480314960629921,"duration":2.8999999999999773},{"name":"D5","midi":74,"time":285,"velocity":0.7480314960629921,"duration":1.3999999999999773},{"name":"D4","midi":62,"time":285,"velocity":0.7480314960629921,"duration":1.3999999999999773},{"name":"F#3","midi":54,"time":285,"velocity":0.7480314960629921,"duration":1.3999999999999773},{"name":"C#4","midi":61,"time":286.5,"velocity":0.7480314960629921,"duration":1.3999999999999773},{"name":"C#5","midi":73,"time":286.5,"velocity":0.7480314960629921,"duration":1.3999999999999773},{"name":"A3","midi":57,"time":288,"velocity":0.7480314960629921,"duration":1.3999999999999773},{"name":"A4","midi":69,"time":288,"velocity":0.7480314960629921,"duration":1.3999999999999773},{"name":"F#3","midi":54,"time":289.5,"velocity":0.7480314960629921,"duration":1.3999999999999773},{"name":"B3","midi":59,"time":289.5,"velocity":0.7480314960629921,"duration":1.3999999999999773},{"name":"B4","midi":71,"time":289.5,"velocity":0.7480314960629921,"duration":1.3999999999999773},{"name":"C#4","midi":61,"time":291,"velocity":0.7480314960629921,"duration":4.399999999999977},{"name":"C#5","midi":73,"time":291,"velocity":0.7480314960629921,"duration":4.399999999999977},{"name":"F#5","midi":78,"time":295.5,"velocity":0.7480314960629921,"duration":1.3999999999999773},{"name":"F#4","midi":66,"time":295.5,"velocity":0.7480314960629921,"duration":1.3999999999999773},{"name":"B4","midi":71,"time":297,"velocity":0.7480314960629921,"duration":4.399999999999977},{"name":"B3","midi":59,"time":297,"velocity":0.7480314960629921,"duration":4.399999999999977},{"name":"C#5","midi":73,"time":301.5,"velocity":0.7480314960629921,"duration":1.3999999999999773},{"name":"C#4","midi":61,"time":301.5,"velocity":0.7480314960629921,"duration":1.3999999999999773},{"name":"B3","midi":59,"time":303,"velocity":0.7480314960629921,"duration":2.1499999999999773},{"name":"B4","midi":71,"time":303,"velocity":0.7480314960629921,"duration":2.1499999999999773},{"name":"G#3","midi":56,"time":305.25,"velocity":0.7480314960629921,"duration":3.6499999999999773},{"name":"G#4","midi":68,"time":305.25,"velocity":0.7480314960629921,"duration":3.6499999999999773},{"name":"F#4","midi":66,"time":309,"velocity":0.7480314960629921,"duration":2.1499999999999773},{"name":"F#3","midi":54,"time":309,"velocity":0.7480314960629921,"duration":2.1499999999999773},{"name":"A3","midi":57,"time":311.25,"velocity":0.7480314960629921,"duration":0.6750000000000114},{"name":"A4","midi":69,"time":311.25,"velocity":0.7480314960629921,"duration":0.6750000000000114},{"name":"A3","midi":57,"time":312,"velocity":0.7480314960629921,"duration":1.3999999999999773},{"name":"A4","midi":69,"time":312,"velocity":0.7480314960629921,"duration":1.3999999999999773},{"name":"B4","midi":71,"time":313.5,"velocity":0.7480314960629921,"duration":1.3999999999999773},{"name":"B3","midi":59,"time":313.5,"velocity":0.7480314960629921,"duration":1.3999999999999773},{"name":"C#4","midi":61,"time":315,"velocity":0.7480314960629921,"duration":4.399999999999977},{"name":"C#5","midi":73,"time":315,"velocity":0.7480314960629921,"duration":4.399999999999977},{"name":"F#5","midi":78,"time":319.5,"velocity":0.7480314960629921,"duration":1.3999999999999773},{"name":"F#4","midi":66,"time":319.5,"velocity":0.7480314960629921,"duration":1.3999999999999773},{"name":"B3","midi":59,"time":321,"velocity":0.7480314960629921,"duration":4.399999999999977},{"name":"B4","midi":71,"time":321,"velocity":0.7480314960629921,"duration":4.399999999999977},{"name":"C#5","midi":73,"time":325.5,"velocity":0.7480314960629921,"duration":1.3999999999999773},{"name":"C#4","midi":61,"time":325.5,"velocity":0.7480314960629921,"duration":1.3999999999999773},{"name":"B4","midi":71,"time":327,"velocity":0.7480314960629921,"duration":2.1499999999999773},{"name":"B3","midi":59,"time":327,"velocity":0.7480314960629921,"duration":2.1499999999999773},{"name":"G#3","midi":56,"time":329.25,"velocity":0.7480314960629921,"duration":3.6499999999999773},{"name":"G#4","midi":68,"time":329.25,"velocity":0.7480314960629921,"duration":3.6499999999999773},{"name":"F#3","midi":54,"time":333,"velocity":0.7480314960629921,"duration":2.1499999999999773},{"name":"F#4","midi":66,"time":333,"velocity":0.7480314960629921,"duration":2.1499999999999773},{"name":"A4","midi":69,"time":335.25,"velocity":0.7480314960629921,"duration":0.6750000000000114},{"name":"A3","midi":57,"time":335.25,"velocity":0.7480314960629921,"duration":0.6750000000000114},{"name":"A4","midi":69,"time":336,"velocity":0.7480314960629921,"duration":1.3999999999999773},{"name":"A3","midi":57,"time":336,"velocity":0.7480314960629921,"duration":1.3999999999999773},{"name":"B3","midi":59,"time":337.5,"velocity":0.7480314960629921,"duration":1.3999999999999773},{"name":"B4","midi":71,"time":337.5,"velocity":0.7480314960629921,"duration":1.3999999999999773},{"name":"C#4","midi":61,"time":339,"velocity":0.7480314960629921,"duration":4.399999999999977},{"name":"C#5","midi":73,"time":339,"velocity":0.7480314960629921,"duration":4.399999999999977},{"name":"F#5","midi":78,"time":343.5,"velocity":0.7480314960629921,"duration":1.3999999999999773},{"name":"F#4","midi":66,"time":343.5,"velocity":0.7480314960629921,"duration":1.3999999999999773},{"name":"F#3","midi":54,"time":345,"velocity":0.7480314960629921,"duration":4.399999999999977},{"name":"F#4","midi":66,"time":345,"velocity":0.7480314960629921,"duration":4.399999999999977},{"name":"B3","midi":59,"time":349.5,"velocity":0.7480314960629921,"duration":1.3999999999999773},{"name":"B4","midi":71,"time":349.5,"velocity":0.7480314960629921,"duration":1.3999999999999773},{"name":"A3","midi":57,"time":351,"velocity":0.7480314960629921,"duration":2.1499999999999773},{"name":"A4","midi":69,"time":351,"velocity":0.7480314960629921,"duration":2.1499999999999773},{"name":"G#3","midi":56,"time":353.25,"velocity":0.7480314960629921,"duration":3.6499999999999773},{"name":"G#4","midi":68,"time":353.25,"velocity":0.7480314960629921,"duration":3.6499999999999773},{"name":"F#3","midi":54,"time":357,"velocity":0.7480314960629921,"duration":2.1499999999999773},{"name":"F#4","midi":66,"time":357,"velocity":0.7480314960629921,"duration":2.1499999999999773},{"name":"A4","midi":69,"time":359.25,"velocity":0.7480314960629921,"duration":0.6750000000000114},{"name":"A3","midi":57,"time":359.25,"velocity":0.7480314960629921,"duration":0.6750000000000114},{"name":"A3","midi":57,"time":360,"velocity":0.7480314960629921,"duration":1.3999999999999773},{"name":"A4","midi":69,"time":360,"velocity":0.7480314960629921,"duration":1.3999999999999773},{"name":"B3","midi":59,"time":361.5,"velocity":0.7480314960629921,"duration":1.3999999999999773},{"name":"B4","midi":71,"time":361.5,"velocity":0.7480314960629921,"duration":1.3999999999999773},{"name":"C#4","midi":61,"time":363,"velocity":0.7480314960629921,"duration":4.399999999999977},{"name":"C#5","midi":73,"time":363,"velocity":0.7480314960629921,"duration":4.399999999999977},{"name":"F#5","midi":78,"time":367.5,"velocity":0.7480314960629921,"duration":1.3999999999999773},{"name":"F#4","midi":66,"time":367.5,"velocity":0.7480314960629921,"duration":1.3999999999999773},{"name":"B3","midi":59,"time":369,"velocity":0.7480314960629921,"duration":4.399999999999977},{"name":"B4","midi":71,"time":369,"velocity":0.7480314960629921,"duration":4.399999999999977},{"name":"C#5","midi":73,"time":373.5,"velocity":0.7480314960629921,"duration":1.3999999999999773},{"name":"C#4","midi":61,"time":373.5,"velocity":0.7480314960629921,"duration":1.3999999999999773},{"name":"B3","midi":59,"time":375,"velocity":0.7480314960629921,"duration":2.1499999999999773},{"name":"B4","midi":71,"time":375,"velocity":0.7480314960629921,"duration":2.1499999999999773},{"name":"G#3","midi":56,"time":377.25,"velocity":0.7480314960629921,"duration":3.6499999999999773},{"name":"G#4","midi":68,"time":377.25,"velocity":0.7480314960629921,"duration":3.6499999999999773},{"name":"F#3","midi":54,"time":381,"velocity":0.7480314960629921,"duration":2.1499999999999773},{"name":"F#4","midi":66,"time":381,"velocity":0.7480314960629921,"duration":2.1499999999999773},{"name":"A4","midi":69,"time":383.25,"velocity":0.7480314960629921,"duration":0.6750000000000114},{"name":"A3","midi":57,"time":383.25,"velocity":0.7480314960629921,"duration":0.6750000000000114},{"name":"A4","midi":69,"time":384,"velocity":0.7480314960629921,"duration":1.3999999999999773},{"name":"A3","midi":57,"time":384,"velocity":0.7480314960629921,"duration":1.3999999999999773},{"name":"B4","midi":71,"time":385.5,"velocity":0.7480314960629921,"duration":1.3999999999999773},{"name":"B3","midi":59,"time":385.5,"velocity":0.7480314960629921,"duration":1.3999999999999773},{"name":"C#4","midi":61,"time":387,"velocity":0.7480314960629921,"duration":4.399999999999977},{"name":"C#5","midi":73,"time":387,"velocity":0.7480314960629921,"duration":4.399999999999977},{"name":"F#4","midi":66,"time":391.5,"velocity":0.7480314960629921,"duration":1.3999999999999773},{"name":"F#5","midi":78,"time":391.5,"velocity":0.7480314960629921,"duration":1.3999999999999773},{"name":"F#3","midi":54,"time":393,"velocity":0.7480314960629921,"duration":4.399999999999977},{"name":"F#4","midi":66,"time":393,"velocity":0.7480314960629921,"duration":4.399999999999977},{"name":"B4","midi":71,"time":397.5,"velocity":0.7480314960629921,"duration":1.3999999999999773},{"name":"B3","midi":59,"time":397.5,"velocity":0.7480314960629921,"duration":1.3999999999999773},{"name":"A3","midi":57,"time":399,"velocity":0.7480314960629921,"duration":2.1499999999999773},{"name":"A4","midi":69,"time":399,"velocity":0.7480314960629921,"duration":2.1499999999999773},{"name":"G#3","midi":56,"time":401.25,"velocity":0.7480314960629921,"duration":3.6499999999999773},{"name":"G#4","midi":68,"time":401.25,"velocity":0.7480314960629921,"duration":3.6499999999999773},{"name":"F#3","midi":54,"time":405,"velocity":0.7480314960629921,"duration":2.1499999999999773},{"name":"F#4","midi":66,"time":405,"velocity":0.7480314960629921,"duration":2.1499999999999773},{"name":"A3","midi":57,"time":407.25,"velocity":0.7480314960629921,"duration":0.6750000000000114},{"name":"A4","midi":69,"time":407.25,"velocity":0.7480314960629921,"duration":0.6750000000000114},{"name":"A3","midi":57,"time":408,"velocity":0.7480314960629921,"duration":1.3999999999999773},{"name":"A4","midi":69,"time":408,"velocity":0.7480314960629921,"duration":1.3999999999999773},{"name":"B3","midi":59,"time":409.5,"velocity":0.7480314960629921,"duration":1.3999999999999773},{"name":"B4","midi":71,"time":409.5,"velocity":0.7480314960629921,"duration":1.3999999999999773},{"name":"C#4","midi":61,"time":411,"velocity":0.7480314960629921,"duration":4.399999999999977},{"name":"C#5","midi":73,"time":411,"velocity":0.7480314960629921,"duration":4.399999999999977},{"name":"F#4","midi":66,"time":415.5,"velocity":0.7480314960629921,"duration":1.3999999999999773},{"name":"F#5","midi":78,"time":415.5,"velocity":0.7480314960629921,"duration":1.3999999999999773},{"name":"F#3","midi":54,"time":417,"velocity":0.7480314960629921,"duration":4.399999999999977},{"name":"F#4","midi":66,"time":417,"velocity":0.7480314960629921,"duration":4.399999999999977},{"name":"B3","midi":59,"time":421.5,"velocity":0.7480314960629921,"duration":1.3999999999999773},{"name":"B4","midi":71,"time":421.5,"velocity":0.7480314960629921,"duration":1.3999999999999773},{"name":"A3","midi":57,"time":423,"velocity":0.7480314960629921,"duration":2.1499999999999773},{"name":"A4","midi":69,"time":423,"velocity":0.7480314960629921,"duration":2.1499999999999773},{"name":"G#4","midi":68,"time":425.25,"velocity":0.7480314960629921,"duration":3.6499999999999773},{"name":"G#3","midi":56,"time":425.25,"velocity":0.7480314960629921,"duration":3.6499999999999773},{"name":"F#3","midi":54,"time":429,"velocity":0.7480314960629921,"duration":2.1499999999999773},{"name":"F#4","midi":66,"time":429,"velocity":0.7480314960629921,"duration":2.1499999999999773},{"name":"A3","midi":57,"time":431.25,"velocity":0.7480314960629921,"duration":0.6750000000000114},{"name":"A4","midi":69,"time":431.25,"velocity":0.7480314960629921,"duration":0.6750000000000114},{"name":"A3","midi":57,"time":432,"velocity":0.7480314960629921,"duration":1.3999999999999773},{"name":"A4","midi":69,"time":432,"velocity":0.7480314960629921,"duration":1.3999999999999773},{"name":"B3","midi":59,"time":433.5,"velocity":0.7480314960629921,"duration":1.3999999999999773},{"name":"B4","midi":71,"time":433.5,"velocity":0.7480314960629921,"duration":1.3999999999999773},{"name":"C#4","midi":61,"time":435,"velocity":0.7480314960629921,"duration":4.399999999999977},{"name":"C#5","midi":73,"time":435,"velocity":0.7480314960629921,"duration":4.399999999999977},{"name":"F#5","midi":78,"time":439.5,"velocity":0.7480314960629921,"duration":1.3999999999999773},{"name":"F#4","midi":66,"time":439.5,"velocity":0.7480314960629921,"duration":1.3999999999999773},{"name":"F#3","midi":54,"time":441,"velocity":0.7480314960629921,"duration":4.399999999999977},{"name":"F#4","midi":66,"time":441,"velocity":0.7480314960629921,"duration":4.399999999999977},{"name":"B4","midi":71,"time":445.5,"velocity":0.7480314960629921,"duration":1.3999999999999773},{"name":"B3","midi":59,"time":445.5,"velocity":0.7480314960629921,"duration":1.3999999999999773},{"name":"A3","midi":57,"time":447,"velocity":0.7480314960629921,"duration":2.1499999999999773},{"name":"A4","midi":69,"time":447,"velocity":0.7480314960629921,"duration":2.1499999999999773},{"name":"G#3","midi":56,"time":449.25,"velocity":0.7480314960629921,"duration":3.6499999999999773},{"name":"G#4","midi":68,"time":449.25,"velocity":0.7480314960629921,"duration":3.6499999999999773},{"name":"F#4","midi":66,"time":453,"velocity":0.7480314960629921,"duration":2.1499999999999773},{"name":"F#3","midi":54,"time":453,"velocity":0.7480314960629921,"duration":2.1499999999999773},{"name":"A4","midi":69,"time":455.25,"velocity":0.7480314960629921,"duration":0.6750000000000114},{"name":"A3","midi":57,"time":455.25,"velocity":0.7480314960629921,"duration":0.6750000000000114},{"name":"A4","midi":69,"time":456,"velocity":0.7480314960629921,"duration":1.3999999999999773},{"name":"A3","midi":57,"time":456,"velocity":0.7480314960629921,"duration":1.3999999999999773},{"name":"B3","midi":59,"time":457.5,"velocity":0.7480314960629921,"duration":1.3999999999999773},{"name":"B4","midi":71,"time":457.5,"velocity":0.7480314960629921,"duration":1.3999999999999773},{"name":"C#4","midi":61,"time":459,"velocity":0.7480314960629921,"duration":4.399999999999977},{"name":"C#5","midi":73,"time":459,"velocity":0.7480314960629921,"duration":4.399999999999977},{"name":"F#5","midi":78,"time":463.5,"velocity":0.7480314960629921,"duration":1.3999999999999773},{"name":"F#4","midi":66,"time":463.5,"velocity":0.7480314960629921,"duration":1.3999999999999773},{"name":"F#4","midi":66,"time":465,"velocity":0.7480314960629921,"duration":4.399999999999977},{"name":"F#3","midi":54,"time":465,"velocity":0.7480314960629921,"duration":4.399999999999977},{"name":"B3","midi":59,"time":469.5,"velocity":0.7480314960629921,"duration":1.3999999999999773},{"name":"B4","midi":71,"time":469.5,"velocity":0.7480314960629921,"duration":1.3999999999999773},{"name":"A4","midi":69,"time":471,"velocity":0.7480314960629921,"duration":2.1499999999999773},{"name":"A3","midi":57,"time":471,"velocity":0.7480314960629921,"duration":2.1499999999999773},{"name":"G#4","midi":68,"time":473.25,"velocity":0.7480314960629921,"duration":3.6499999999999773},{"name":"G#3","midi":56,"time":473.25,"velocity":0.7480314960629921,"duration":3.6499999999999773},{"name":"F#4","midi":66,"time":477,"velocity":0.7480314960629921,"duration":2.1499999999999773},{"name":"F#3","midi":54,"time":477,"velocity":0.7480314960629921,"duration":2.1499999999999773},{"name":"A4","midi":69,"time":479.25,"velocity":0.7480314960629921,"duration":0.6750000000000114},{"name":"A3","midi":57,"time":479.25,"velocity":0.7480314960629921,"duration":0.6750000000000114},{"name":"A4","midi":69,"time":480,"velocity":0.7480314960629921,"duration":1.3999999999999773},{"name":"A3","midi":57,"time":480,"velocity":0.7480314960629921,"duration":1.3999999999999773},{"name":"B3","midi":59,"time":481.5,"velocity":0.7480314960629921,"duration":1.3999999999999773},{"name":"B4","midi":71,"time":481.5,"velocity":0.7480314960629921,"duration":1.3999999999999773},{"name":"C#4","midi":61,"time":483,"velocity":0.7480314960629921,"duration":4.399999999999977},{"name":"C#5","midi":73,"time":483,"velocity":0.7480314960629921,"duration":4.399999999999977},{"name":"F#4","midi":66,"time":487.5,"velocity":0.7480314960629921,"duration":1.3999999999999773},{"name":"F#5","midi":78,"time":487.5,"velocity":0.7480314960629921,"duration":1.3999999999999773},{"name":"F#4","midi":66,"time":489,"velocity":0.7480314960629921,"duration":4.399999999999977},{"name":"F#3","midi":54,"time":489,"velocity":0.7480314960629921,"duration":4.399999999999977},{"name":"B3","midi":59,"time":493.5,"velocity":0.7480314960629921,"duration":1.3999999999999773},{"name":"B4","midi":71,"time":493.5,"velocity":0.7480314960629921,"duration":1.3999999999999773},{"name":"A3","midi":57,"time":495,"velocity":0.7480314960629921,"duration":2.1499999999999773},{"name":"A4","midi":69,"time":495,"velocity":0.7480314960629921,"duration":2.1499999999999773},{"name":"G#3","midi":56,"time":497.25,"velocity":0.7480314960629921,"duration":3.6499999999999773},{"name":"G#4","midi":68,"time":497.25,"velocity":0.7480314960629921,"duration":3.6499999999999773},{"name":"F#3","midi":54,"time":501,"velocity":0.7480314960629921,"duration":2.1499999999999773},{"name":"F#4","midi":66,"time":501,"velocity":0.7480314960629921,"duration":2.1499999999999773},{"name":"A4","midi":69,"time":503.25,"velocity":0.7480314960629921,"duration":0.6750000000000114},{"name":"A3","midi":57,"time":503.25,"velocity":0.7480314960629921,"duration":0.6750000000000114},{"name":"A4","midi":69,"time":504,"velocity":0.7480314960629921,"duration":1.3999999999999773},{"name":"A3","midi":57,"time":504,"velocity":0.7480314960629921,"duration":1.3999999999999773},{"name":"B3","midi":59,"time":505.5,"velocity":0.7480314960629921,"duration":1.3999999999999773},{"name":"B4","midi":71,"time":505.5,"velocity":0.7480314960629921,"duration":1.3999999999999773},{"name":"C#5","midi":73,"time":507,"velocity":0.7480314960629921,"duration":4.399999999999977},{"name":"A5","midi":81,"time":507,"velocity":0.7480314960629921,"duration":2.8999999999999773},{"name":"C#4","midi":61,"time":507,"velocity":0.7480314960629921,"duration":4.399999999999977},{"name":"F#4","midi":66,"time":511.5,"velocity":0.7480314960629921,"duration":0.6749999999999545},{"name":"F#5","midi":78,"time":511.5,"velocity":0.7480314960629921,"duration":0.6749999999999545},{"name":"A5","midi":81,"time":511.5,"velocity":0.7480314960629921,"duration":0.6749999999999545},{"name":"G#5","midi":80,"time":512.25,"velocity":0.7480314960629921,"duration":0.33749999999997726},{"name":"E5","midi":76,"time":512.625,"velocity":0.7480314960629921,"duration":0.33749999999997726},{"name":"F#4","midi":66,"time":512.625,"velocity":0.7480314960629921,"duration":0.33749999999997726},{"name":"F#3","midi":54,"time":513,"velocity":0.7480314960629921,"duration":1.0249999999999773},{"name":"F#4","midi":66,"time":513,"velocity":0.7480314960629921,"duration":1.0249999999999773},{"name":"E5","midi":76,"time":513,"velocity":0.7480314960629921,"duration":1.0249999999999773},{"name":"F#5","midi":78,"time":514.125,"velocity":0.7480314960629921,"duration":0.33749999999997726},{"name":"F#5","midi":78,"time":514.5,"velocity":0.7480314960629921,"duration":0.6749999999999545},{"name":"A4","midi":69,"time":515.25,"velocity":0.7480314960629921,"duration":0.6749999999999545},{"name":"F#4","midi":66,"time":516,"velocity":0.7480314960629921,"duration":0.6749999999999545},{"name":"F#3","midi":54,"time":516,"velocity":0.7480314960629921,"duration":0.6749999999999545},{"name":"A4","midi":69,"time":516,"velocity":0.7480314960629921,"duration":0.6749999999999545},{"name":"B4","midi":71,"time":516.75,"velocity":0.7480314960629921,"duration":0.6749999999999545},{"name":"C#5","midi":73,"time":517.5,"velocity":0.7480314960629921,"duration":0.6749999999999545},{"name":"B4","midi":71,"time":517.5,"velocity":0.7480314960629921,"duration":0.6749999999999545},{"name":"D4","midi":62,"time":517.5,"velocity":0.7480314960629921,"duration":0.6749999999999545},{"name":"D5","midi":74,"time":518.25,"velocity":0.7480314960629921,"duration":0.6749999999999545},{"name":"C#5","midi":73,"time":519,"velocity":0.7480314960629921,"duration":0.6749999999999545},{"name":"A4","midi":69,"time":519,"velocity":0.7480314960629921,"duration":0.6749999999999545},{"name":"A3","midi":57,"time":519,"velocity":0.7480314960629921,"duration":0.6749999999999545},{"name":"B4","midi":71,"time":519.75,"velocity":0.7480314960629921,"duration":0.6749999999999545},{"name":"A3","midi":57,"time":520.5,"velocity":0.7480314960629921,"duration":0.6749999999999545},{"name":"A4","midi":69,"time":520.5,"velocity":0.7480314960629921,"duration":0.6749999999999545},{"name":"E5","midi":76,"time":520.5,"velocity":0.7480314960629921,"duration":0.6749999999999545},{"name":"D5","midi":74,"time":521.25,"velocity":0.7480314960629921,"duration":0.6749999999999545},{"name":"G#4","midi":68,"time":521.25,"velocity":0.7480314960629921,"duration":0.6749999999999545},{"name":"G#3","midi":56,"time":521.25,"velocity":0.7480314960629921,"duration":0.6749999999999545},{"name":"C#5","midi":73,"time":522,"velocity":0.7480314960629921,"duration":0.6749999999999545},{"name":"B4","midi":71,"time":522.75,"velocity":0.7480314960629921,"duration":0.6749999999999545},{"name":"A4","midi":69,"time":523.5,"velocity":0.7480314960629921,"duration":0.6749999999999545},{"name":"B4","midi":71,"time":524.25,"velocity":0.7480314960629921,"duration":0.6749999999999545},{"name":"G#4","midi":68,"time":524.25,"velocity":0.7480314960629921,"duration":0.6749999999999545},{"name":"G#3","midi":56,"time":524.25,"velocity":0.7480314960629921,"duration":0.6749999999999545},{"name":"F#3","midi":54,"time":525,"velocity":0.7480314960629921,"duration":2.1499999999999773},{"name":"F#4","midi":66,"time":525,"velocity":0.7480314960629921,"duration":2.1499999999999773},{"name":"A4","midi":69,"time":527.25,"velocity":0.7480314960629921,"duration":0.6749999999999545},{"name":"A3","midi":57,"time":527.25,"velocity":0.7480314960629921,"duration":0.6749999999999545},{"name":"A4","midi":69,"time":528,"velocity":0.7480314960629921,"duration":1.3999999999999773},{"name":"A3","midi":57,"time":528,"velocity":0.7480314960629921,"duration":1.3999999999999773},{"name":"B4","midi":71,"time":529.5,"velocity":0.7480314960629921,"duration":2.8999999999999773},{"name":"B3","midi":59,"time":529.5,"velocity":0.7480314960629921,"duration":2.8999999999999773}]},{"instrumentFamily":"piano","notes":[{"name":"F#6","midi":90,"time":243,"velocity":0.7480314960629921,"duration":0.3375000000000057},{"name":"F#6","midi":90,"time":243.375,"velocity":0.7480314960629921,"duration":0.3375000000000057},{"name":"F#6","midi":90,"time":243.75,"velocity":0.7480314960629921,"duration":0.3375000000000057},{"name":"F#6","midi":90,"time":244.125,"velocity":0.7480314960629921,"duration":0.3375000000000057},{"name":"F#6","midi":90,"time":244.5,"velocity":0.7480314960629921,"duration":0.3375000000000057},{"name":"F#6","midi":90,"time":244.875,"velocity":0.7480314960629921,"duration":0.3375000000000057},{"name":"F#6","midi":90,"time":245.25,"velocity":0.7480314960629921,"duration":0.3375000000000057},{"name":"E6","midi":88,"time":245.625,"velocity":0.7480314960629921,"duration":0.3375000000000057},{"name":"E6","midi":88,"time":246,"velocity":0.7480314960629921,"duration":0.3375000000000057},{"name":"E6","midi":88,"time":246.375,"velocity":0.7480314960629921,"duration":0.3375000000000057},{"name":"E6","midi":88,"time":246.75,"velocity":0.7480314960629921,"duration":0.3375000000000057},{"name":"E6","midi":88,"time":247.125,"velocity":0.7480314960629921,"duration":0.3375000000000057},{"name":"E6","midi":88,"time":247.5,"velocity":0.7480314960629921,"duration":0.3375000000000057},{"name":"F#6","midi":90,"time":247.875,"velocity":0.7480314960629921,"duration":0.3375000000000057},{"name":"E6","midi":88,"time":248.25,"velocity":0.7480314960629921,"duration":0.3375000000000057},{"name":"F#6","midi":90,"time":248.625,"velocity":0.7480314960629921,"duration":0.1875},{"name":"E6","midi":88,"time":248.8125,"velocity":0.7480314960629921,"duration":0.16874999999998863},{"name":"C#6","midi":85,"time":249,"velocity":0.7480314960629921,"duration":0.3375000000000057},{"name":"C#6","midi":85,"time":249.375,"velocity":0.7480314960629921,"duration":0.3375000000000057},{"name":"C#6","midi":85,"time":249.75,"velocity":0.7480314960629921,"duration":0.3375000000000057},{"name":"C#6","midi":85,"time":250.125,"velocity":0.7480314960629921,"duration":0.3375000000000057},{"name":"C#6","midi":85,"time":250.5,"velocity":0.7480314960629921,"duration":0.3375000000000057},{"name":"C#6","midi":85,"time":250.875,"velocity":0.7480314960629921,"duration":0.3375000000000057},{"name":"C#6","midi":85,"time":251.25,"velocity":0.7480314960629921,"duration":0.3375000000000057},{"name":"B5","midi":83,"time":251.625,"velocity":0.7480314960629921,"duration":0.3375000000000057},{"name":"B5","midi":83,"time":252,"velocity":0.7480314960629921,"duration":0.3375000000000057},{"name":"B5","midi":83,"time":252.375,"velocity":0.7480314960629921,"duration":0.3375000000000057},{"name":"B5","midi":83,"time":252.75,"velocity":0.7480314960629921,"duration":0.3375000000000057},{"name":"B5","midi":83,"time":253.125,"velocity":0.7480314960629921,"duration":0.3375000000000057},{"name":"B5","midi":83,"time":253.5,"velocity":0.7480314960629921,"duration":0.3375000000000057},{"name":"B5","midi":83,"time":253.875,"velocity":0.7480314960629921,"duration":0.3375000000000057},{"name":"B5","midi":83,"time":254.25,"velocity":0.7480314960629921,"duration":0.3375000000000057},{"name":"F#5","midi":78,"time":254.625,"velocity":0.7480314960629921,"duration":0.3375000000000057},{"name":"C#6","midi":85,"time":255,"velocity":0.7480314960629921,"duration":0.3375000000000057},{"name":"C#6","midi":85,"time":255.375,"velocity":0.7480314960629921,"duration":0.3375000000000057},{"name":"C#6","midi":85,"time":255.75,"velocity":0.7480314960629921,"duration":0.33749999999997726},{"name":"C#6","midi":85,"time":256.125,"velocity":0.7480314960629921,"duration":0.33749999999997726},{"name":"C#6","midi":85,"time":256.5,"velocity":0.7480314960629921,"duration":0.33749999999997726},{"name":"C#6","midi":85,"time":256.875,"velocity":0.7480314960629921,"duration":0.33749999999997726},{"name":"C#6","midi":85,"time":257.25,"velocity":0.7480314960629921,"duration":0.33749999999997726},{"name":"F#5","midi":78,"time":257.625,"velocity":0.7480314960629921,"duration":0.33749999999997726},{"name":"B5","midi":83,"time":258,"velocity":0.7480314960629921,"duration":0.33749999999997726},{"name":"B5","midi":83,"time":258.375,"velocity":0.7480314960629921,"duration":0.33749999999997726},{"name":"B5","midi":83,"time":258.75,"velocity":0.7480314960629921,"duration":0.33749999999997726},{"name":"B5","midi":83,"time":259.125,"velocity":0.7480314960629921,"duration":0.33749999999997726},{"name":"B5","midi":83,"time":259.5,"velocity":0.7480314960629921,"duration":0.33749999999997726},{"name":"B5","midi":83,"time":259.875,"velocity":0.7480314960629921,"duration":0.33749999999997726},{"name":"B5","midi":83,"time":260.25,"velocity":0.7480314960629921,"duration":0.33749999999997726},{"name":"B5","midi":83,"time":260.625,"velocity":0.7480314960629921,"duration":0.33749999999997726},{"name":"B5","midi":83,"time":261,"velocity":0.7480314960629921,"duration":0.33749999999997726},{"name":"F#5","midi":78,"time":261.375,"velocity":0.7480314960629921,"duration":0.33749999999997726},{"name":"F#5","midi":78,"time":261.75,"velocity":0.7480314960629921,"duration":0.33749999999997726},{"name":"F#5","midi":78,"time":262.125,"velocity":0.7480314960629921,"duration":0.33749999999997726},{"name":"F#5","midi":78,"time":262.5,"velocity":0.7480314960629921,"duration":0.33749999999997726},{"name":"F#5","midi":78,"time":262.875,"velocity":0.7480314960629921,"duration":0.33749999999997726},{"name":"F#5","midi":78,"time":263.25,"velocity":0.7480314960629921,"duration":0.33749999999997726},{"name":"F#5","midi":78,"time":263.625,"velocity":0.7480314960629921,"duration":0.33749999999997726},{"name":"F#5","midi":78,"time":264,"velocity":0.7480314960629921,"duration":0.33749999999997726},{"name":"F#5","midi":78,"time":264.375,"velocity":0.7480314960629921,"duration":0.33749999999997726},{"name":"F#5","midi":78,"time":264.75,"velocity":0.7480314960629921,"duration":0.33749999999997726},{"name":"F#5","midi":78,"time":265.125,"velocity":0.7480314960629921,"duration":0.33749999999997726},{"name":"F#5","midi":78,"time":265.5,"velocity":0.7480314960629921,"duration":0.33749999999997726},{"name":"F#5","midi":78,"time":265.875,"velocity":0.7480314960629921,"duration":0.33749999999997726},{"name":"F#5","midi":78,"time":266.25,"velocity":0.7480314960629921,"duration":0.33749999999997726},{"name":"F#5","midi":78,"time":266.625,"velocity":0.7480314960629921,"duration":0.33749999999997726},{"name":"F#6","midi":90,"time":267,"velocity":0.7480314960629921,"duration":0.33749999999997726},{"name":"F#6","midi":90,"time":267.375,"velocity":0.7480314960629921,"duration":0.33749999999997726},{"name":"F#6","midi":90,"time":267.75,"velocity":0.7480314960629921,"duration":0.33749999999997726},{"name":"F#6","midi":90,"time":268.125,"velocity":0.7480314960629921,"duration":0.33749999999997726},{"name":"F#6","midi":90,"time":268.5,"velocity":0.7480314960629921,"duration":0.33749999999997726},{"name":"F#6","midi":90,"time":268.875,"velocity":0.7480314960629921,"duration":0.33749999999997726},{"name":"F#6","midi":90,"time":269.25,"velocity":0.7480314960629921,"duration":0.33749999999997726},{"name":"E6","midi":88,"time":269.625,"velocity":0.7480314960629921,"duration":0.33749999999997726},{"name":"E6","midi":88,"time":270,"velocity":0.7480314960629921,"duration":0.33749999999997726},{"name":"E6","midi":88,"time":270.375,"velocity":0.7480314960629921,"duration":0.33749999999997726},{"name":"E6","midi":88,"time":270.75,"velocity":0.7480314960629921,"duration":0.33749999999997726},{"name":"E6","midi":88,"time":271.125,"velocity":0.7480314960629921,"duration":0.33749999999997726},{"name":"E6","midi":88,"time":271.5,"velocity":0.7480314960629921,"duration":0.33749999999997726},{"name":"F#6","midi":90,"time":271.875,"velocity":0.7480314960629921,"duration":0.33749999999997726},{"name":"E6","midi":88,"time":272.25,"velocity":0.7480314960629921,"duration":0.33749999999997726},{"name":"F#6","midi":90,"time":272.625,"velocity":0.7480314960629921,"duration":0.1875},{"name":"E6","midi":88,"time":272.8125,"velocity":0.7480314960629921,"duration":0.16874999999998863},{"name":"C#6","midi":85,"time":273,"velocity":0.7480314960629921,"duration":0.33749999999997726},{"name":"C#6","midi":85,"time":273.375,"velocity":0.7480314960629921,"duration":0.33749999999997726},{"name":"C#6","midi":85,"time":273.75,"velocity":0.7480314960629921,"duration":0.33749999999997726},{"name":"C#6","midi":85,"time":274.125,"velocity":0.7480314960629921,"duration":0.33749999999997726},{"name":"C#6","midi":85,"time":274.5,"velocity":0.7480314960629921,"duration":0.33749999999997726},{"name":"C#6","midi":85,"time":274.875,"velocity":0.7480314960629921,"duration":0.33749999999997726},{"name":"C#6","midi":85,"time":275.25,"velocity":0.7480314960629921,"duration":0.33749999999997726},{"name":"B5","midi":83,"time":275.625,"velocity":0.7480314960629921,"duration":0.33749999999997726},{"name":"B5","midi":83,"time":276,"velocity":0.7480314960629921,"duration":0.33749999999997726},{"name":"B5","midi":83,"time":276.375,"velocity":0.7480314960629921,"duration":0.33749999999997726},{"name":"B5","midi":83,"time":276.75,"velocity":0.7480314960629921,"duration":0.33749999999997726},{"name":"B5","midi":83,"time":277.125,"velocity":0.7480314960629921,"duration":0.33749999999997726},{"name":"B5","midi":83,"time":277.5,"velocity":0.7480314960629921,"duration":0.33749999999997726},{"name":"B5","midi":83,"time":277.875,"velocity":0.7480314960629921,"duration":0.33749999999997726},{"name":"B5","midi":83,"time":278.25,"velocity":0.7480314960629921,"duration":0.33749999999997726},{"name":"F#5","midi":78,"time":278.625,"velocity":0.7480314960629921,"duration":0.33749999999997726},{"name":"C#6","midi":85,"time":279,"velocity":0.7480314960629921,"duration":0.33749999999997726},{"name":"C#6","midi":85,"time":279.375,"velocity":0.7480314960629921,"duration":0.33749999999997726},{"name":"C#6","midi":85,"time":279.75,"velocity":0.7480314960629921,"duration":0.33749999999997726},{"name":"C#6","midi":85,"time":280.125,"velocity":0.7480314960629921,"duration":0.33749999999997726},{"name":"C#6","midi":85,"time":280.5,"velocity":0.7480314960629921,"duration":0.33749999999997726},{"name":"C#6","midi":85,"time":280.875,"velocity":0.7480314960629921,"duration":0.33749999999997726},{"name":"C#6","midi":85,"time":281.25,"velocity":0.7480314960629921,"duration":0.33749999999997726},{"name":"F#5","midi":78,"time":281.625,"velocity":0.7480314960629921,"duration":0.33749999999997726},{"name":"B5","midi":83,"time":282,"velocity":0.7480314960629921,"duration":0.33749999999997726},{"name":"B5","midi":83,"time":282.375,"velocity":0.7480314960629921,"duration":0.33749999999997726},{"name":"B5","midi":83,"time":282.75,"velocity":0.7480314960629921,"duration":0.33749999999997726},{"name":"B5","midi":83,"time":283.125,"velocity":0.7480314960629921,"duration":0.33749999999997726},{"name":"B5","midi":83,"time":283.5,"velocity":0.7480314960629921,"duration":0.33749999999997726},{"name":"B5","midi":83,"time":283.875,"velocity":0.7480314960629921,"duration":0.33749999999997726},{"name":"B5","midi":83,"time":284.25,"velocity":0.7480314960629921,"duration":0.33749999999997726},{"name":"B5","midi":83,"time":284.625,"velocity":0.7480314960629921,"duration":0.33749999999997726},{"name":"B5","midi":83,"time":285,"velocity":0.7480314960629921,"duration":0.33749999999997726},{"name":"F#5","midi":78,"time":285.375,"velocity":0.7480314960629921,"duration":0.33749999999997726},{"name":"F#5","midi":78,"time":285.75,"velocity":0.7480314960629921,"duration":0.33749999999997726},{"name":"F#5","midi":78,"time":286.125,"velocity":0.7480314960629921,"duration":0.33749999999997726},{"name":"F#5","midi":78,"time":286.5,"velocity":0.7480314960629921,"duration":0.33749999999997726},{"name":"F#5","midi":78,"time":286.875,"velocity":0.7480314960629921,"duration":0.33749999999997726},{"name":"F#5","midi":78,"time":287.25,"velocity":0.7480314960629921,"duration":0.33749999999997726},{"name":"F#5","midi":78,"time":287.625,"velocity":0.7480314960629921,"duration":0.33749999999997726},{"name":"F#5","midi":78,"time":288,"velocity":0.7480314960629921,"duration":0.33749999999997726},{"name":"F#5","midi":78,"time":288.375,"velocity":0.7480314960629921,"duration":0.33749999999997726},{"name":"F#5","midi":78,"time":288.75,"velocity":0.7480314960629921,"duration":0.33749999999997726},{"name":"F#5","midi":78,"time":289.125,"velocity":0.7480314960629921,"duration":0.33749999999997726},{"name":"F#5","midi":78,"time":289.5,"velocity":0.7480314960629921,"duration":0.33749999999997726},{"name":"F#5","midi":78,"time":289.875,"velocity":0.7480314960629921,"duration":0.33749999999997726},{"name":"F#5","midi":78,"time":290.25,"velocity":0.7480314960629921,"duration":0.33749999999997726},{"name":"F#5","midi":78,"time":290.625,"velocity":0.7480314960629921,"duration":0.33749999999997726},{"name":"A6","midi":93,"time":507,"velocity":0.7480314960629921,"duration":0.08437500000002274},{"name":"A5","midi":81,"time":507,"velocity":0.7480314960629921,"duration":0.08437500000002274},{"name":"A6","midi":93,"time":507.09375,"velocity":0.7480314960629921,"duration":0.08437500000002274},{"name":"A5","midi":81,"time":507.09375,"velocity":0.7480314960629921,"duration":0.08437500000002274},{"name":"A6","midi":93,"time":507.1875,"velocity":0.7480314960629921,"duration":0.08437500000002274},{"name":"A5","midi":81,"time":507.1875,"velocity":0.7480314960629921,"duration":0.08437500000002274},{"name":"A5","midi":81,"time":507.28125,"velocity":0.7480314960629921,"duration":0.08437500000002274},{"name":"A6","midi":93,"time":507.28125,"velocity":0.7480314960629921,"duration":0.08437500000002274},{"name":"A6","midi":93,"time":507.375,"velocity":0.7480314960629921,"duration":0.08437500000002274},{"name":"A5","midi":81,"time":507.375,"velocity":0.7480314960629921,"duration":0.08437500000002274},{"name":"A5","midi":81,"time":507.46875,"velocity":0.7480314960629921,"duration":0.08437500000002274},{"name":"A6","midi":93,"time":507.46875,"velocity":0.7480314960629921,"duration":0.08437500000002274},{"name":"A5","midi":81,"time":507.5625,"velocity":0.7480314960629921,"duration":0.08437500000002274},{"name":"A6","midi":93,"time":507.5625,"velocity":0.7480314960629921,"duration":0.08437500000002274},{"name":"A5","midi":81,"time":507.65625,"velocity":0.7480314960629921,"duration":0.08437500000002274},{"name":"A6","midi":93,"time":507.65625,"velocity":0.7480314960629921,"duration":0.08437500000002274},{"name":"A6","midi":93,"time":507.75,"velocity":0.7480314960629921,"duration":0.08437500000002274},{"name":"A5","midi":81,"time":507.75,"velocity":0.7480314960629921,"duration":0.08437500000002274},{"name":"A5","midi":81,"time":507.84375,"velocity":0.7480314960629921,"duration":0.08437500000002274},{"name":"A6","midi":93,"time":507.84375,"velocity":0.7480314960629921,"duration":0.08437500000002274},{"name":"A5","midi":81,"time":507.9375,"velocity":0.7480314960629921,"duration":0.08437500000002274},{"name":"A6","midi":93,"time":507.9375,"velocity":0.7480314960629921,"duration":0.08437500000002274},{"name":"A5","midi":81,"time":508.03125,"velocity":0.7480314960629921,"duration":0.08437500000002274},{"name":"A6","midi":93,"time":508.03125,"velocity":0.7480314960629921,"duration":0.08437500000002274},{"name":"A5","midi":81,"time":508.125,"velocity":0.7480314960629921,"duration":0.08437500000002274},{"name":"A6","midi":93,"time":508.125,"velocity":0.7480314960629921,"duration":0.08437500000002274},{"name":"A6","midi":93,"time":508.21875,"velocity":0.7480314960629921,"duration":0.08437500000002274},{"name":"A5","midi":81,"time":508.21875,"velocity":0.7480314960629921,"duration":0.08437500000002274},{"name":"A5","midi":81,"time":508.3125,"velocity":0.7480314960629921,"duration":0.08437500000002274},{"name":"A6","midi":93,"time":508.3125,"velocity":0.7480314960629921,"duration":0.08437500000002274},{"name":"A5","midi":81,"time":508.40625,"velocity":0.7480314960629921,"duration":0.08437500000002274},{"name":"A6","midi":93,"time":508.40625,"velocity":0.7480314960629921,"duration":0.08437500000002274},{"name":"A5","midi":81,"time":508.5,"velocity":0.7480314960629921,"duration":0.08437500000002274},{"name":"A6","midi":93,"time":508.5,"velocity":0.7480314960629921,"duration":0.08437500000002274},{"name":"A5","midi":81,"time":508.59375,"velocity":0.7480314960629921,"duration":0.08437500000002274},{"name":"A6","midi":93,"time":508.59375,"velocity":0.7480314960629921,"duration":0.08437500000002274},{"name":"A5","midi":81,"time":508.6875,"velocity":0.7480314960629921,"duration":0.08437500000002274},{"name":"A6","midi":93,"time":508.6875,"velocity":0.7480314960629921,"duration":0.08437500000002274},{"name":"A6","midi":93,"time":508.78125,"velocity":0.7480314960629921,"duration":0.08437500000002274},{"name":"A5","midi":81,"time":508.78125,"velocity":0.7480314960629921,"duration":0.08437500000002274},{"name":"A6","midi":93,"time":508.875,"velocity":0.7480314960629921,"duration":0.08437500000002274},{"name":"A5","midi":81,"time":508.875,"velocity":0.7480314960629921,"duration":0.08437500000002274},{"name":"A6","midi":93,"time":508.96875,"velocity":0.7480314960629921,"duration":0.08437500000002274},{"name":"A5","midi":81,"time":508.96875,"velocity":0.7480314960629921,"duration":0.08437500000002274},{"name":"A5","midi":81,"time":509.0625,"velocity":0.7480314960629921,"duration":0.08437500000002274},{"name":"A6","midi":93,"time":509.0625,"velocity":0.7480314960629921,"duration":0.08437500000002274},{"name":"A5","midi":81,"time":509.15625,"velocity":0.7480314960629921,"duration":0.08437500000002274},{"name":"A6","midi":93,"time":509.15625,"velocity":0.7480314960629921,"duration":0.08437500000002274},{"name":"A6","midi":93,"time":509.25,"velocity":0.7480314960629921,"duration":0.08437500000002274},{"name":"A5","midi":81,"time":509.25,"velocity":0.7480314960629921,"duration":0.08437500000002274},{"name":"A5","midi":81,"time":509.34375,"velocity":0.7480314960629921,"duration":0.08437500000002274},{"name":"A6","midi":93,"time":509.34375,"velocity":0.7480314960629921,"duration":0.08437500000002274},{"name":"A5","midi":81,"time":509.4375,"velocity":0.7480314960629921,"duration":0.08437500000002274},{"name":"A6","midi":93,"time":509.4375,"velocity":0.7480314960629921,"duration":0.08437500000002274},{"name":"A5","midi":81,"time":509.53125,"velocity":0.7480314960629921,"duration":0.08437500000002274},{"name":"A6","midi":93,"time":509.53125,"velocity":0.7480314960629921,"duration":0.08437500000002274},{"name":"A6","midi":93,"time":509.625,"velocity":0.7480314960629921,"duration":0.08437500000002274},{"name":"A5","midi":81,"time":509.625,"velocity":0.7480314960629921,"duration":0.08437500000002274},{"name":"A5","midi":81,"time":509.71875,"velocity":0.7480314960629921,"duration":0.08437500000002274},{"name":"A6","midi":93,"time":509.71875,"velocity":0.7480314960629921,"duration":0.08437500000002274},{"name":"A5","midi":81,"time":509.8125,"velocity":0.7480314960629921,"duration":0.08437500000002274},{"name":"A6","midi":93,"time":509.8125,"velocity":0.7480314960629921,"duration":0.08437500000002274},{"name":"A6","midi":93,"time":509.90625,"velocity":0.7480314960629921,"duration":0.08437500000002274},{"name":"A5","midi":81,"time":509.90625,"velocity":0.7480314960629921,"duration":0.08437500000002274},{"name":"A5","midi":81,"time":510,"velocity":0.7480314960629921,"duration":0.08437500000002274},{"name":"A6","midi":93,"time":510,"velocity":0.7480314960629921,"duration":0.08437500000002274},{"name":"A6","midi":93,"time":510.09375,"velocity":0.7480314960629921,"duration":0.08437500000002274},{"name":"A5","midi":81,"time":510.09375,"velocity":0.7480314960629921,"duration":0.08437500000002274},{"name":"A6","midi":93,"time":510.1875,"velocity":0.7480314960629921,"duration":0.08437500000002274},{"name":"A5","midi":81,"time":510.1875,"velocity":0.7480314960629921,"duration":0.08437500000002274},{"name":"A6","midi":93,"time":510.28125,"velocity":0.7480314960629921,"duration":0.08437500000002274},{"name":"A5","midi":81,"time":510.28125,"velocity":0.7480314960629921,"duration":0.08437500000002274},{"name":"A5","midi":81,"time":510.375,"velocity":0.7480314960629921,"duration":0.08437500000002274},{"name":"A6","midi":93,"time":510.375,"velocity":0.7480314960629921,"duration":0.08437500000002274},{"name":"A5","midi":81,"time":510.46875,"velocity":0.7480314960629921,"duration":0.08437500000002274},{"name":"A6","midi":93,"time":510.46875,"velocity":0.7480314960629921,"duration":0.08437500000002274},{"name":"A5","midi":81,"time":510.5625,"velocity":0.7480314960629921,"duration":0.08437500000002274},{"name":"A6","midi":93,"time":510.5625,"velocity":0.7480314960629921,"duration":0.08437500000002274},{"name":"A6","midi":93,"time":510.65625,"velocity":0.7480314960629921,"duration":0.08437500000002274},{"name":"A5","midi":81,"time":510.65625,"velocity":0.7480314960629921,"duration":0.08437500000002274},{"name":"A6","midi":93,"time":510.75,"velocity":0.7480314960629921,"duration":0.08437500000002274},{"name":"A5","midi":81,"time":510.75,"velocity":0.7480314960629921,"duration":0.08437500000002274},{"name":"A5","midi":81,"time":510.84375,"velocity":0.7480314960629921,"duration":0.08437500000002274},{"name":"A6","midi":93,"time":510.84375,"velocity":0.7480314960629921,"duration":0.08437500000002274},{"name":"A6","midi":93,"time":510.9375,"velocity":0.7480314960629921,"duration":0.08437500000002274},{"name":"A5","midi":81,"time":510.9375,"velocity":0.7480314960629921,"duration":0.08437500000002274},{"name":"A5","midi":81,"time":511.03125,"velocity":0.7480314960629921,"duration":0.08437500000002274},{"name":"A6","midi":93,"time":511.03125,"velocity":0.7480314960629921,"duration":0.08437500000002274},{"name":"A6","midi":93,"time":511.125,"velocity":0.7480314960629921,"duration":0.08437500000002274},{"name":"A5","midi":81,"time":511.125,"velocity":0.7480314960629921,"duration":0.08437500000002274},{"name":"A6","midi":93,"time":511.21875,"velocity":0.7480314960629921,"duration":0.08437500000002274},{"name":"A5","midi":81,"time":511.21875,"velocity":0.7480314960629921,"duration":0.08437500000002274},{"name":"A5","midi":81,"time":511.3125,"velocity":0.7480314960629921,"duration":0.08437500000002274},{"name":"A6","midi":93,"time":511.3125,"velocity":0.7480314960629921,"duration":0.08437500000002274},{"name":"A5","midi":81,"time":511.40625,"velocity":0.7480314960629921,"duration":0.08437500000002274},{"name":"A6","midi":93,"time":511.40625,"velocity":0.7480314960629921,"duration":0.08437500000002274},{"name":"A6","midi":93,"time":511.5,"velocity":0.7480314960629921,"duration":0.08437500000002274},{"name":"A5","midi":81,"time":511.5,"velocity":0.7480314960629921,"duration":0.08437500000002274},{"name":"A5","midi":81,"time":511.59375,"velocity":0.7480314960629921,"duration":0.08437500000002274},{"name":"A6","midi":93,"time":511.59375,"velocity":0.7480314960629921,"duration":0.08437500000002274},{"name":"A5","midi":81,"time":511.6875,"velocity":0.7480314960629921,"duration":0.08437500000002274},{"name":"A6","midi":93,"time":511.6875,"velocity":0.7480314960629921,"duration":0.08437500000002274},{"name":"A5","midi":81,"time":511.78125,"velocity":0.7480314960629921,"duration":0.08437500000002274},{"name":"A6","midi":93,"time":511.78125,"velocity":0.7480314960629921,"duration":0.08437500000002274},{"name":"A5","midi":81,"time":511.875,"velocity":0.7480314960629921,"duration":0.08437500000002274},{"name":"A6","midi":93,"time":511.875,"velocity":0.7480314960629921,"duration":0.08437500000002274},{"name":"A5","midi":81,"time":511.96875,"velocity":0.7480314960629921,"duration":0.08437500000002274},{"name":"A6","midi":93,"time":511.96875,"velocity":0.7480314960629921,"duration":0.08437500000002274},{"name":"A5","midi":81,"time":512.0625,"velocity":0.7480314960629921,"duration":0.08437500000002274},{"name":"A6","midi":93,"time":512.0625,"velocity":0.7480314960629921,"duration":0.08437500000002274},{"name":"A5","midi":81,"time":512.15625,"velocity":0.7480314960629921,"duration":0.08437500000002274},{"name":"A6","midi":93,"time":512.15625,"velocity":0.7480314960629921,"duration":0.08437500000002274},{"name":"G#5","midi":80,"time":512.25,"velocity":0.7480314960629921,"duration":0.08437500000002274},{"name":"G#6","midi":92,"time":512.25,"velocity":0.7480314960629921,"duration":0.08437500000002274},{"name":"G#5","midi":80,"time":512.34375,"velocity":0.7480314960629921,"duration":0.08437500000002274},{"name":"G#6","midi":92,"time":512.34375,"velocity":0.7480314960629921,"duration":0.08437500000002274},{"name":"G#6","midi":92,"time":512.4375,"velocity":0.7480314960629921,"duration":0.08437500000002274},{"name":"G#5","midi":80,"time":512.4375,"velocity":0.7480314960629921,"duration":0.08437500000002274},{"name":"G#6","midi":92,"time":512.53125,"velocity":0.7480314960629921,"duration":0.08437500000002274},{"name":"G#5","midi":80,"time":512.53125,"velocity":0.7480314960629921,"duration":0.08437500000002274},{"name":"E6","midi":88,"time":512.625,"velocity":0.7480314960629921,"duration":0.08437500000002274},{"name":"E5","midi":76,"time":512.625,"velocity":0.7480314960629921,"duration":0.08437500000002274},{"name":"E6","midi":88,"time":512.71875,"velocity":0.7480314960629921,"duration":0.08437500000002274},{"name":"E5","midi":76,"time":512.71875,"velocity":0.7480314960629921,"duration":0.08437500000002274},{"name":"E6","midi":88,"time":512.8125,"velocity":0.7480314960629921,"duration":0.08437500000002274},{"name":"E5","midi":76,"time":512.8125,"velocity":0.7480314960629921,"duration":0.08437500000002274},{"name":"E6","midi":88,"time":512.90625,"velocity":0.7480314960629921,"duration":0.08437500000002274},{"name":"E5","midi":76,"time":512.90625,"velocity":0.7480314960629921,"duration":0.08437500000002274},{"name":"E6","midi":88,"time":513,"velocity":0.7480314960629921,"duration":0.08437500000002274},{"name":"E5","midi":76,"time":513,"velocity":0.7480314960629921,"duration":0.08437500000002274},{"name":"E5","midi":76,"time":513.09375,"velocity":0.7480314960629921,"duration":0.08437500000002274},{"name":"E6","midi":88,"time":513.09375,"velocity":0.7480314960629921,"duration":0.08437500000002274},{"name":"E5","midi":76,"time":513.1875,"velocity":0.7480314960629921,"duration":0.08437500000002274},{"name":"E6","midi":88,"time":513.1875,"velocity":0.7480314960629921,"duration":0.08437500000002274},{"name":"E5","midi":76,"time":513.28125,"velocity":0.7480314960629921,"duration":0.08437500000002274},{"name":"E6","midi":88,"time":513.28125,"velocity":0.7480314960629921,"duration":0.08437500000002274},{"name":"E6","midi":88,"time":513.375,"velocity":0.7480314960629921,"duration":0.08437500000002274},{"name":"E5","midi":76,"time":513.375,"velocity":0.7480314960629921,"duration":0.08437500000002274},{"name":"E5","midi":76,"time":513.46875,"velocity":0.7480314960629921,"duration":0.08437500000002274},{"name":"E6","midi":88,"time":513.46875,"velocity":0.7480314960629921,"duration":0.08437500000002274},{"name":"E6","midi":88,"time":513.5625,"velocity":0.7480314960629921,"duration":0.08437500000002274},{"name":"E5","midi":76,"time":513.5625,"velocity":0.7480314960629921,"duration":0.08437500000002274},{"name":"E6","midi":88,"time":513.65625,"velocity":0.7480314960629921,"duration":0.08437500000002274},{"name":"E5","midi":76,"time":513.65625,"velocity":0.7480314960629921,"duration":0.08437500000002274},{"name":"E5","midi":76,"time":513.75,"velocity":0.7480314960629921,"duration":0.08437500000002274},{"name":"E6","midi":88,"time":513.75,"velocity":0.7480314960629921,"duration":0.08437500000002274},{"name":"E5","midi":76,"time":513.84375,"velocity":0.7480314960629921,"duration":0.08437500000002274},{"name":"E6","midi":88,"time":513.84375,"velocity":0.7480314960629921,"duration":0.08437500000002274},{"name":"E5","midi":76,"time":513.9375,"velocity":0.7480314960629921,"duration":0.08437500000002274},{"name":"E6","midi":88,"time":513.9375,"velocity":0.7480314960629921,"duration":0.08437500000002274},{"name":"E6","midi":88,"time":514.03125,"velocity":0.7480314960629921,"duration":0.08437500000002274},{"name":"E5","midi":76,"time":514.03125,"velocity":0.7480314960629921,"duration":0.08437500000002274},{"name":"F#5","midi":78,"time":514.125,"velocity":0.7480314960629921,"duration":0.08437500000002274},{"name":"F#6","midi":90,"time":514.125,"velocity":0.7480314960629921,"duration":0.08437500000002274},{"name":"F#5","midi":78,"time":514.21875,"velocity":0.7480314960629921,"duration":0.08437500000002274},{"name":"F#6","midi":90,"time":514.21875,"velocity":0.7480314960629921,"duration":0.08437500000002274},{"name":"F#6","midi":90,"time":514.3125,"velocity":0.7480314960629921,"duration":0.08437500000002274},{"name":"F#5","midi":78,"time":514.3125,"velocity":0.7480314960629921,"duration":0.08437500000002274},{"name":"F#5","midi":78,"time":514.40625,"velocity":0.7480314960629921,"duration":0.08437500000002274},{"name":"F#6","midi":90,"time":514.40625,"velocity":0.7480314960629921,"duration":0.08437500000002274},{"name":"F#6","midi":90,"time":514.5,"velocity":0.7480314960629921,"duration":0.08437500000002274},{"name":"F#5","midi":78,"time":514.5,"velocity":0.7480314960629921,"duration":0.08437500000002274},{"name":"F#5","midi":78,"time":514.59375,"velocity":0.7480314960629921,"duration":0.08437500000002274},{"name":"F#6","midi":90,"time":514.59375,"velocity":0.7480314960629921,"duration":0.08437500000002274},{"name":"F#5","midi":78,"time":514.6875,"velocity":0.7480314960629921,"duration":0.08437500000002274},{"name":"F#6","midi":90,"time":514.6875,"velocity":0.7480314960629921,"duration":0.08437500000002274},{"name":"F#5","midi":78,"time":514.78125,"velocity":0.7480314960629921,"duration":0.08437500000002274},{"name":"F#6","midi":90,"time":514.78125,"velocity":0.7480314960629921,"duration":0.08437500000002274},{"name":"F#6","midi":90,"time":514.875,"velocity":0.7480314960629921,"duration":0.08437500000002274},{"name":"F#5","midi":78,"time":514.875,"velocity":0.7480314960629921,"duration":0.08437500000002274},{"name":"F#6","midi":90,"time":514.96875,"velocity":0.7480314960629921,"duration":0.08437500000002274},{"name":"F#5","midi":78,"time":514.96875,"velocity":0.7480314960629921,"duration":0.08437500000002274},{"name":"F#5","midi":78,"time":515.0625,"velocity":0.7480314960629921,"duration":0.08437500000002274},{"name":"F#6","midi":90,"time":515.0625,"velocity":0.7480314960629921,"duration":0.08437500000002274},{"name":"F#5","midi":78,"time":515.15625,"velocity":0.7480314960629921,"duration":0.08437500000002274},{"name":"F#6","midi":90,"time":515.15625,"velocity":0.7480314960629921,"duration":0.08437500000002274},{"name":"A4","midi":69,"time":515.25,"velocity":0.7480314960629921,"duration":0.08437500000002274},{"name":"A5","midi":81,"time":515.25,"velocity":0.7480314960629921,"duration":0.08437500000002274},{"name":"A5","midi":81,"time":515.34375,"velocity":0.7480314960629921,"duration":0.08437500000002274},{"name":"A4","midi":69,"time":515.34375,"velocity":0.7480314960629921,"duration":0.08437500000002274},{"name":"A5","midi":81,"time":515.4375,"velocity":0.7480314960629921,"duration":0.08437500000002274},{"name":"A4","midi":69,"time":515.4375,"velocity":0.7480314960629921,"duration":0.08437500000002274},{"name":"A4","midi":69,"time":515.53125,"velocity":0.7480314960629921,"duration":0.08437500000002274},{"name":"A5","midi":81,"time":515.53125,"velocity":0.7480314960629921,"duration":0.08437500000002274},{"name":"A4","midi":69,"time":515.625,"velocity":0.7480314960629921,"duration":0.08437500000002274},{"name":"A5","midi":81,"time":515.625,"velocity":0.7480314960629921,"duration":0.08437500000002274},{"name":"A5","midi":81,"time":515.71875,"velocity":0.7480314960629921,"duration":0.08437500000002274},{"name":"A4","midi":69,"time":515.71875,"velocity":0.7480314960629921,"duration":0.08437500000002274},{"name":"A4","midi":69,"time":515.8125,"velocity":0.7480314960629921,"duration":0.08437500000002274},{"name":"A5","midi":81,"time":515.8125,"velocity":0.7480314960629921,"duration":0.08437500000002274},{"name":"A5","midi":81,"time":515.90625,"velocity":0.7480314960629921,"duration":0.08437500000002274},{"name":"A4","midi":69,"time":515.90625,"velocity":0.7480314960629921,"duration":0.08437500000002274},{"name":"A4","midi":69,"time":516,"velocity":0.7480314960629921,"duration":0.08437500000002274},{"name":"A5","midi":81,"time":516,"velocity":0.7480314960629921,"duration":0.08437500000002274},{"name":"A4","midi":69,"time":516.09375,"velocity":0.7480314960629921,"duration":0.08437500000002274},{"name":"A5","midi":81,"time":516.09375,"velocity":0.7480314960629921,"duration":0.08437500000002274},{"name":"A4","midi":69,"time":516.1875,"velocity":0.7480314960629921,"duration":0.08437500000002274},{"name":"A5","midi":81,"time":516.1875,"velocity":0.7480314960629921,"duration":0.08437500000002274},{"name":"A4","midi":69,"time":516.28125,"velocity":0.7480314960629921,"duration":0.08437500000002274},{"name":"A5","midi":81,"time":516.28125,"velocity":0.7480314960629921,"duration":0.08437500000002274},{"name":"A5","midi":81,"time":516.375,"velocity":0.7480314960629921,"duration":0.08437500000002274},{"name":"A4","midi":69,"time":516.375,"velocity":0.7480314960629921,"duration":0.08437500000002274},{"name":"A4","midi":69,"time":516.46875,"velocity":0.7480314960629921,"duration":0.08437500000002274},{"name":"A5","midi":81,"time":516.46875,"velocity":0.7480314960629921,"duration":0.08437500000002274},{"name":"A4","midi":69,"time":516.5625,"velocity":0.7480314960629921,"duration":0.08437500000002274},{"name":"A5","midi":81,"time":516.5625,"velocity":0.7480314960629921,"duration":0.08437500000002274},{"name":"A5","midi":81,"time":516.65625,"velocity":0.7480314960629921,"duration":0.08437500000002274},{"name":"A4","midi":69,"time":516.65625,"velocity":0.7480314960629921,"duration":0.08437500000002274},{"name":"B4","midi":71,"time":516.75,"velocity":0.7480314960629921,"duration":0.08437500000002274},{"name":"B5","midi":83,"time":516.75,"velocity":0.7480314960629921,"duration":0.08437500000002274},{"name":"B5","midi":83,"time":516.84375,"velocity":0.7480314960629921,"duration":0.08437500000002274},{"name":"B4","midi":71,"time":516.84375,"velocity":0.7480314960629921,"duration":0.08437500000002274},{"name":"B4","midi":71,"time":516.9375,"velocity":0.7480314960629921,"duration":0.08437500000002274},{"name":"B5","midi":83,"time":516.9375,"velocity":0.7480314960629921,"duration":0.08437500000002274},{"name":"B4","midi":71,"time":517.03125,"velocity":0.7480314960629921,"duration":0.08437500000002274},{"name":"B5","midi":83,"time":517.03125,"velocity":0.7480314960629921,"duration":0.08437500000002274},{"name":"B5","midi":83,"time":517.125,"velocity":0.7480314960629921,"duration":0.08437500000002274},{"name":"B4","midi":71,"time":517.125,"velocity":0.7480314960629921,"duration":0.08437500000002274},{"name":"B5","midi":83,"time":517.21875,"velocity":0.7480314960629921,"duration":0.08437500000002274},{"name":"B4","midi":71,"time":517.21875,"velocity":0.7480314960629921,"duration":0.08437500000002274},{"name":"B5","midi":83,"time":517.3125,"velocity":0.7480314960629921,"duration":0.08437500000002274},{"name":"B4","midi":71,"time":517.3125,"velocity":0.7480314960629921,"duration":0.08437500000002274},{"name":"B4","midi":71,"time":517.40625,"velocity":0.7480314960629921,"duration":0.08437500000002274},{"name":"B5","midi":83,"time":517.40625,"velocity":0.7480314960629921,"duration":0.08437500000002274},{"name":"C#6","midi":85,"time":517.5,"velocity":0.7480314960629921,"duration":0.08437500000002274},{"name":"C#5","midi":73,"time":517.5,"velocity":0.7480314960629921,"duration":0.08437500000002274},{"name":"C#5","midi":73,"time":517.59375,"velocity":0.7480314960629921,"duration":0.08437500000002274},{"name":"C#6","midi":85,"time":517.59375,"velocity":0.7480314960629921,"duration":0.08437500000002274},{"name":"C#5","midi":73,"time":517.6875,"velocity":0.7480314960629921,"duration":0.08437500000002274},{"name":"C#6","midi":85,"time":517.6875,"velocity":0.7480314960629921,"duration":0.08437500000002274},{"name":"C#5","midi":73,"time":517.78125,"velocity":0.7480314960629921,"duration":0.08437500000002274},{"name":"C#6","midi":85,"time":517.78125,"velocity":0.7480314960629921,"duration":0.08437500000002274},{"name":"C#5","midi":73,"time":517.875,"velocity":0.7480314960629921,"duration":0.08437500000002274},{"name":"C#6","midi":85,"time":517.875,"velocity":0.7480314960629921,"duration":0.08437500000002274},{"name":"C#6","midi":85,"time":517.96875,"velocity":0.7480314960629921,"duration":0.08437500000002274},{"name":"C#5","midi":73,"time":517.96875,"velocity":0.7480314960629921,"duration":0.08437500000002274},{"name":"C#6","midi":85,"time":518.0625,"velocity":0.7480314960629921,"duration":0.08437500000002274},{"name":"C#5","midi":73,"time":518.0625,"velocity":0.7480314960629921,"duration":0.08437500000002274},{"name":"C#5","midi":73,"time":518.15625,"velocity":0.7480314960629921,"duration":0.08437500000002274},{"name":"C#6","midi":85,"time":518.15625,"velocity":0.7480314960629921,"duration":0.08437500000002274},{"name":"D5","midi":74,"time":518.25,"velocity":0.7480314960629921,"duration":0.08437500000002274},{"name":"D6","midi":86,"time":518.25,"velocity":0.7480314960629921,"duration":0.08437500000002274},{"name":"D6","midi":86,"time":518.34375,"velocity":0.7480314960629921,"duration":0.08437500000002274},{"name":"D5","midi":74,"time":518.34375,"velocity":0.7480314960629921,"duration":0.08437500000002274},{"name":"D6","midi":86,"time":518.4375,"velocity":0.7480314960629921,"duration":0.08437500000002274},{"name":"D5","midi":74,"time":518.4375,"velocity":0.7480314960629921,"duration":0.08437500000002274},{"name":"D6","midi":86,"time":518.53125,"velocity":0.7480314960629921,"duration":0.08437500000002274},{"name":"D5","midi":74,"time":518.53125,"velocity":0.7480314960629921,"duration":0.08437500000002274},{"name":"D5","midi":74,"time":518.625,"velocity":0.7480314960629921,"duration":0.08437500000002274},{"name":"D6","midi":86,"time":518.625,"velocity":0.7480314960629921,"duration":0.08437500000002274},{"name":"D6","midi":86,"time":518.71875,"velocity":0.7480314960629921,"duration":0.08437500000002274},{"name":"D5","midi":74,"time":518.71875,"velocity":0.7480314960629921,"duration":0.08437500000002274},{"name":"D5","midi":74,"time":518.8125,"velocity":0.7480314960629921,"duration":0.08437500000002274},{"name":"D6","midi":86,"time":518.8125,"velocity":0.7480314960629921,"duration":0.08437500000002274},{"name":"D6","midi":86,"time":518.90625,"velocity":0.7480314960629921,"duration":0.08437500000002274},{"name":"D5","midi":74,"time":518.90625,"velocity":0.7480314960629921,"duration":0.08437500000002274},{"name":"C#6","midi":85,"time":519,"velocity":0.7480314960629921,"duration":0.08437500000002274},{"name":"C#5","midi":73,"time":519,"velocity":0.7480314960629921,"duration":0.08437500000002274},{"name":"C#6","midi":85,"time":519.09375,"velocity":0.7480314960629921,"duration":0.08437500000002274},{"name":"C#5","midi":73,"time":519.09375,"velocity":0.7480314960629921,"duration":0.08437500000002274},{"name":"C#6","midi":85,"time":519.1875,"velocity":0.7480314960629921,"duration":0.08437500000002274},{"name":"C#5","midi":73,"time":519.1875,"velocity":0.7480314960629921,"duration":0.08437500000002274},{"name":"C#6","midi":85,"time":519.28125,"velocity":0.7480314960629921,"duration":0.08437500000002274},{"name":"C#5","midi":73,"time":519.28125,"velocity":0.7480314960629921,"duration":0.08437500000002274},{"name":"C#5","midi":73,"time":519.375,"velocity":0.7480314960629921,"duration":0.08437500000002274},{"name":"C#6","midi":85,"time":519.375,"velocity":0.7480314960629921,"duration":0.08437500000002274},{"name":"C#5","midi":73,"time":519.46875,"velocity":0.7480314960629921,"duration":0.08437500000002274},{"name":"C#6","midi":85,"time":519.46875,"velocity":0.7480314960629921,"duration":0.08437500000002274},{"name":"C#6","midi":85,"time":519.5625,"velocity":0.7480314960629921,"duration":0.08437500000002274},{"name":"C#5","midi":73,"time":519.5625,"velocity":0.7480314960629921,"duration":0.08437500000002274},{"name":"C#5","midi":73,"time":519.65625,"velocity":0.7480314960629921,"duration":0.08437500000002274},{"name":"C#6","midi":85,"time":519.65625,"velocity":0.7480314960629921,"duration":0.08437500000002274},{"name":"B4","midi":71,"time":519.75,"velocity":0.7480314960629921,"duration":0.08437500000002274},{"name":"B5","midi":83,"time":519.75,"velocity":0.7480314960629921,"duration":0.08437500000002274},{"name":"B5","midi":83,"time":519.84375,"velocity":0.7480314960629921,"duration":0.08437500000002274},{"name":"B4","midi":71,"time":519.84375,"velocity":0.7480314960629921,"duration":0.08437500000002274},{"name":"B5","midi":83,"time":519.9375,"velocity":0.7480314960629921,"duration":0.08437500000002274},{"name":"B4","midi":71,"time":519.9375,"velocity":0.7480314960629921,"duration":0.08437500000002274},{"name":"B4","midi":71,"time":520.03125,"velocity":0.7480314960629921,"duration":0.08437500000002274},{"name":"B5","midi":83,"time":520.03125,"velocity":0.7480314960629921,"duration":0.08437500000002274},{"name":"B5","midi":83,"time":520.125,"velocity":0.7480314960629921,"duration":0.08437500000002274},{"name":"B4","midi":71,"time":520.125,"velocity":0.7480314960629921,"duration":0.08437500000002274},{"name":"B4","midi":71,"time":520.21875,"velocity":0.7480314960629921,"duration":0.08437500000002274},{"name":"B5","midi":83,"time":520.21875,"velocity":0.7480314960629921,"duration":0.08437500000002274},{"name":"B5","midi":83,"time":520.3125,"velocity":0.7480314960629921,"duration":0.08437500000002274},{"name":"B4","midi":71,"time":520.3125,"velocity":0.7480314960629921,"duration":0.08437500000002274},{"name":"B4","midi":71,"time":520.40625,"velocity":0.7480314960629921,"duration":0.08437500000002274},{"name":"B5","midi":83,"time":520.40625,"velocity":0.7480314960629921,"duration":0.08437500000002274},{"name":"E5","midi":76,"time":520.5,"velocity":0.7480314960629921,"duration":0.08437500000002274},{"name":"E6","midi":88,"time":520.5,"velocity":0.7480314960629921,"duration":0.08437500000002274},{"name":"E6","midi":88,"time":520.59375,"velocity":0.7480314960629921,"duration":0.08437500000002274},{"name":"E5","midi":76,"time":520.59375,"velocity":0.7480314960629921,"duration":0.08437500000002274},{"name":"E5","midi":76,"time":520.6875,"velocity":0.7480314960629921,"duration":0.08437500000002274},{"name":"E6","midi":88,"time":520.6875,"velocity":0.7480314960629921,"duration":0.08437500000002274},{"name":"E5","midi":76,"time":520.78125,"velocity":0.7480314960629921,"duration":0.08437500000002274},{"name":"E6","midi":88,"time":520.78125,"velocity":0.7480314960629921,"duration":0.08437500000002274},{"name":"E6","midi":88,"time":520.875,"velocity":0.7480314960629921,"duration":0.08437500000002274},{"name":"E5","midi":76,"time":520.875,"velocity":0.7480314960629921,"duration":0.08437500000002274},{"name":"E5","midi":76,"time":520.96875,"velocity":0.7480314960629921,"duration":0.08437500000002274},{"name":"E6","midi":88,"time":520.96875,"velocity":0.7480314960629921,"duration":0.08437500000002274},{"name":"E5","midi":76,"time":521.0625,"velocity":0.7480314960629921,"duration":0.08437500000002274},{"name":"E6","midi":88,"time":521.0625,"velocity":0.7480314960629921,"duration":0.08437500000002274},{"name":"E6","midi":88,"time":521.15625,"velocity":0.7480314960629921,"duration":0.08437500000002274},{"name":"E5","midi":76,"time":521.15625,"velocity":0.7480314960629921,"duration":0.08437500000002274},{"name":"D5","midi":74,"time":521.25,"velocity":0.7480314960629921,"duration":0.08437500000002274},{"name":"D6","midi":86,"time":521.25,"velocity":0.7480314960629921,"duration":0.08437500000002274},{"name":"D5","midi":74,"time":521.34375,"velocity":0.7480314960629921,"duration":0.08437500000002274},{"name":"D6","midi":86,"time":521.34375,"velocity":0.7480314960629921,"duration":0.08437500000002274},{"name":"D5","midi":74,"time":521.4375,"velocity":0.7480314960629921,"duration":0.08437500000002274},{"name":"D6","midi":86,"time":521.4375,"velocity":0.7480314960629921,"duration":0.08437500000002274},{"name":"D5","midi":74,"time":521.53125,"velocity":0.7480314960629921,"duration":0.08437500000002274},{"name":"D6","midi":86,"time":521.53125,"velocity":0.7480314960629921,"duration":0.08437500000002274},{"name":"D5","midi":74,"time":521.625,"velocity":0.7480314960629921,"duration":0.08437500000002274},{"name":"D6","midi":86,"time":521.625,"velocity":0.7480314960629921,"duration":0.08437500000002274},{"name":"D6","midi":86,"time":521.71875,"velocity":0.7480314960629921,"duration":0.08437500000002274},{"name":"D5","midi":74,"time":521.71875,"velocity":0.7480314960629921,"duration":0.08437500000002274},{"name":"D6","midi":86,"time":521.8125,"velocity":0.7480314960629921,"duration":0.08437500000002274},{"name":"D5","midi":74,"time":521.8125,"velocity":0.7480314960629921,"duration":0.08437500000002274},{"name":"D6","midi":86,"time":521.90625,"velocity":0.7480314960629921,"duration":0.08437500000002274},{"name":"D5","midi":74,"time":521.90625,"velocity":0.7480314960629921,"duration":0.08437500000002274},{"name":"C#6","midi":85,"time":522,"velocity":0.7480314960629921,"duration":0.08437500000002274},{"name":"C#5","midi":73,"time":522,"velocity":0.7480314960629921,"duration":0.08437500000002274},{"name":"C#6","midi":85,"time":522.09375,"velocity":0.7480314960629921,"duration":0.08437500000002274},{"name":"C#5","midi":73,"time":522.09375,"velocity":0.7480314960629921,"duration":0.08437500000002274},{"name":"C#6","midi":85,"time":522.1875,"velocity":0.7480314960629921,"duration":0.08437500000002274},{"name":"C#5","midi":73,"time":522.1875,"velocity":0.7480314960629921,"duration":0.08437500000002274},{"name":"C#6","midi":85,"time":522.28125,"velocity":0.7480314960629921,"duration":0.08437500000002274},{"name":"C#5","midi":73,"time":522.28125,"velocity":0.7480314960629921,"duration":0.08437500000002274},{"name":"C#6","midi":85,"time":522.375,"velocity":0.7480314960629921,"duration":0.08437500000002274},{"name":"C#5","midi":73,"time":522.375,"velocity":0.7480314960629921,"duration":0.08437500000002274},{"name":"C#5","midi":73,"time":522.46875,"velocity":0.7480314960629921,"duration":0.08437500000002274},{"name":"C#6","midi":85,"time":522.46875,"velocity":0.7480314960629921,"duration":0.08437500000002274},{"name":"C#5","midi":73,"time":522.5625,"velocity":0.7480314960629921,"duration":0.08437500000002274},{"name":"C#6","midi":85,"time":522.5625,"velocity":0.7480314960629921,"duration":0.08437500000002274},{"name":"C#5","midi":73,"time":522.65625,"velocity":0.7480314960629921,"duration":0.08437500000002274},{"name":"C#6","midi":85,"time":522.65625,"velocity":0.7480314960629921,"duration":0.08437500000002274},{"name":"B5","midi":83,"time":522.75,"velocity":0.7480314960629921,"duration":0.08437500000002274},{"name":"B4","midi":71,"time":522.75,"velocity":0.7480314960629921,"duration":0.08437500000002274},{"name":"B4","midi":71,"time":522.84375,"velocity":0.7480314960629921,"duration":0.08437500000002274},{"name":"B5","midi":83,"time":522.84375,"velocity":0.7480314960629921,"duration":0.08437500000002274},{"name":"B5","midi":83,"time":522.9375,"velocity":0.7480314960629921,"duration":0.08437500000002274},{"name":"B4","midi":71,"time":522.9375,"velocity":0.7480314960629921,"duration":0.08437500000002274},{"name":"B4","midi":71,"time":523.03125,"velocity":0.7480314960629921,"duration":0.08437500000002274},{"name":"B5","midi":83,"time":523.03125,"velocity":0.7480314960629921,"duration":0.08437500000002274},{"name":"B4","midi":71,"time":523.125,"velocity":0.7480314960629921,"duration":0.08437500000002274},{"name":"B5","midi":83,"time":523.125,"velocity":0.7480314960629921,"duration":0.08437500000002274},{"name":"B5","midi":83,"time":523.21875,"velocity":0.7480314960629921,"duration":0.08437500000002274},{"name":"B4","midi":71,"time":523.21875,"velocity":0.7480314960629921,"duration":0.08437500000002274},{"name":"B4","midi":71,"time":523.3125,"velocity":0.7480314960629921,"duration":0.08437500000002274},{"name":"B5","midi":83,"time":523.3125,"velocity":0.7480314960629921,"duration":0.08437500000002274},{"name":"B5","midi":83,"time":523.40625,"velocity":0.7480314960629921,"duration":0.08437500000002274},{"name":"B4","midi":71,"time":523.40625,"velocity":0.7480314960629921,"duration":0.08437500000002274},{"name":"A4","midi":69,"time":523.5,"velocity":0.7480314960629921,"duration":0.08437500000002274},{"name":"A5","midi":81,"time":523.5,"velocity":0.7480314960629921,"duration":0.08437500000002274},{"name":"A5","midi":81,"time":523.59375,"velocity":0.7480314960629921,"duration":0.08437500000002274},{"name":"A4","midi":69,"time":523.59375,"velocity":0.7480314960629921,"duration":0.08437500000002274},{"name":"A5","midi":81,"time":523.6875,"velocity":0.7480314960629921,"duration":0.08437500000002274},{"name":"A4","midi":69,"time":523.6875,"velocity":0.7480314960629921,"duration":0.08437500000002274},{"name":"A4","midi":69,"time":523.78125,"velocity":0.7480314960629921,"duration":0.08437500000002274},{"name":"A5","midi":81,"time":523.78125,"velocity":0.7480314960629921,"duration":0.08437500000002274},{"name":"A5","midi":81,"time":523.875,"velocity":0.7480314960629921,"duration":0.08437500000002274},{"name":"A4","midi":69,"time":523.875,"velocity":0.7480314960629921,"duration":0.08437500000002274},{"name":"A5","midi":81,"time":523.96875,"velocity":0.7480314960629921,"duration":0.08437500000002274},{"name":"A4","midi":69,"time":523.96875,"velocity":0.7480314960629921,"duration":0.08437500000002274},{"name":"A5","midi":81,"time":524.0625,"velocity":0.7480314960629921,"duration":0.08437500000002274},{"name":"A4","midi":69,"time":524.0625,"velocity":0.7480314960629921,"duration":0.08437500000002274},{"name":"A5","midi":81,"time":524.15625,"velocity":0.7480314960629921,"duration":0.08437500000002274},{"name":"A4","midi":69,"time":524.15625,"velocity":0.7480314960629921,"duration":0.08437500000002274},{"name":"B4","midi":71,"time":524.25,"velocity":0.7480314960629921,"duration":0.08437500000002274},{"name":"B5","midi":83,"time":524.25,"velocity":0.7480314960629921,"duration":0.08437500000002274},{"name":"B5","midi":83,"time":524.34375,"velocity":0.7480314960629921,"duration":0.08437500000002274},{"name":"B4","midi":71,"time":524.34375,"velocity":0.7480314960629921,"duration":0.08437500000002274},{"name":"B4","midi":71,"time":524.4375,"velocity":0.7480314960629921,"duration":0.08437500000002274},{"name":"B5","midi":83,"time":524.4375,"velocity":0.7480314960629921,"duration":0.08437500000002274},{"name":"B4","midi":71,"time":524.53125,"velocity":0.7480314960629921,"duration":0.08437500000002274},{"name":"B5","midi":83,"time":524.53125,"velocity":0.7480314960629921,"duration":0.08437500000002274},{"name":"B4","midi":71,"time":524.625,"velocity":0.7480314960629921,"duration":0.08437500000002274},{"name":"B5","midi":83,"time":524.625,"velocity":0.7480314960629921,"duration":0.08437500000002274},{"name":"B5","midi":83,"time":524.71875,"velocity":0.7480314960629921,"duration":0.08437500000002274},{"name":"B4","midi":71,"time":524.71875,"velocity":0.7480314960629921,"duration":0.08437500000002274},{"name":"B5","midi":83,"time":524.8125,"velocity":0.7480314960629921,"duration":0.08437500000002274},{"name":"B4","midi":71,"time":524.8125,"velocity":0.7480314960629921,"duration":0.08437500000002274},{"name":"B4","midi":71,"time":524.90625,"velocity":0.7480314960629921,"duration":0.08437500000002274},{"name":"B5","midi":83,"time":524.90625,"velocity":0.7480314960629921,"duration":0.08437500000002274},{"name":"F#4","midi":66,"time":525,"velocity":0.7480314960629921,"duration":0.08437500000002274},{"name":"F#5","midi":78,"time":525,"velocity":0.7480314960629921,"duration":0.08437500000002274},{"name":"A4","midi":69,"time":525,"velocity":0.7480314960629921,"duration":0.08437500000002274},{"name":"F#4","midi":66,"time":525.09375,"velocity":0.7480314960629921,"duration":0.08437500000002274},{"name":"A4","midi":69,"time":525.09375,"velocity":0.7480314960629921,"duration":0.08437500000002274},{"name":"F#5","midi":78,"time":525.09375,"velocity":0.7480314960629921,"duration":0.08437500000002274},{"name":"F#4","midi":66,"time":525.1875,"velocity":0.7480314960629921,"duration":0.08437500000002274},{"name":"F#5","midi":78,"time":525.1875,"velocity":0.7480314960629921,"duration":0.08437500000002274},{"name":"A4","midi":69,"time":525.1875,"velocity":0.7480314960629921,"duration":0.08437500000002274},{"name":"F#4","midi":66,"time":525.28125,"velocity":0.7480314960629921,"duration":0.08437500000002274},{"name":"F#5","midi":78,"time":525.28125,"velocity":0.7480314960629921,"duration":0.08437500000002274},{"name":"A4","midi":69,"time":525.28125,"velocity":0.7480314960629921,"duration":0.08437500000002274},{"name":"F#4","midi":66,"time":525.375,"velocity":0.7480314960629921,"duration":0.08437500000002274},{"name":"A4","midi":69,"time":525.375,"velocity":0.7480314960629921,"duration":0.08437500000002274},{"name":"F#5","midi":78,"time":525.375,"velocity":0.7480314960629921,"duration":0.08437500000002274},{"name":"F#5","midi":78,"time":525.46875,"velocity":0.7480314960629921,"duration":0.08437500000002274},{"name":"A4","midi":69,"time":525.46875,"velocity":0.7480314960629921,"duration":0.08437500000002274},{"name":"F#4","midi":66,"time":525.46875,"velocity":0.7480314960629921,"duration":0.08437500000002274},{"name":"A4","midi":69,"time":525.5625,"velocity":0.7480314960629921,"duration":0.08437500000002274},{"name":"F#4","midi":66,"time":525.5625,"velocity":0.7480314960629921,"duration":0.08437500000002274},{"name":"F#5","midi":78,"time":525.5625,"velocity":0.7480314960629921,"duration":0.08437500000002274},{"name":"F#4","midi":66,"time":525.65625,"velocity":0.7480314960629921,"duration":0.08437500000002274},{"name":"A4","midi":69,"time":525.65625,"velocity":0.7480314960629921,"duration":0.08437500000002274},{"name":"F#5","midi":78,"time":525.65625,"velocity":0.7480314960629921,"duration":0.08437500000002274},{"name":"F#4","midi":66,"time":525.75,"velocity":0.7480314960629921,"duration":0.08437500000002274},{"name":"A4","midi":69,"time":525.75,"velocity":0.7480314960629921,"duration":0.08437500000002274},{"name":"F#5","midi":78,"time":525.75,"velocity":0.7480314960629921,"duration":0.08437500000002274},{"name":"F#4","midi":66,"time":525.84375,"velocity":0.7480314960629921,"duration":0.08437500000002274},{"name":"A4","midi":69,"time":525.84375,"velocity":0.7480314960629921,"duration":0.08437500000002274},{"name":"F#5","midi":78,"time":525.84375,"velocity":0.7480314960629921,"duration":0.08437500000002274},{"name":"F#5","midi":78,"time":525.9375,"velocity":0.7480314960629921,"duration":0.08437500000002274},{"name":"F#4","midi":66,"time":525.9375,"velocity":0.7480314960629921,"duration":0.08437500000002274},{"name":"A4","midi":69,"time":525.9375,"velocity":0.7480314960629921,"duration":0.08437500000002274},{"name":"F#5","midi":78,"time":526.03125,"velocity":0.7480314960629921,"duration":0.08437500000002274},{"name":"A4","midi":69,"time":526.03125,"velocity":0.7480314960629921,"duration":0.08437500000002274},{"name":"F#4","midi":66,"time":526.03125,"velocity":0.7480314960629921,"duration":0.08437500000002274},{"name":"F#4","midi":66,"time":526.125,"velocity":0.7480314960629921,"duration":0.08437500000002274},{"name":"A4","midi":69,"time":526.125,"velocity":0.7480314960629921,"duration":0.08437500000002274},{"name":"F#5","midi":78,"time":526.125,"velocity":0.7480314960629921,"duration":0.08437500000002274},{"name":"F#5","midi":78,"time":526.21875,"velocity":0.7480314960629921,"duration":0.08437500000002274},{"name":"F#4","midi":66,"time":526.21875,"velocity":0.7480314960629921,"duration":0.08437500000002274},{"name":"A4","midi":69,"time":526.21875,"velocity":0.7480314960629921,"duration":0.08437500000002274},{"name":"A4","midi":69,"time":526.3125,"velocity":0.7480314960629921,"duration":0.08437500000002274},{"name":"F#4","midi":66,"time":526.3125,"velocity":0.7480314960629921,"duration":0.08437500000002274},{"name":"F#5","midi":78,"time":526.3125,"velocity":0.7480314960629921,"duration":0.08437500000002274},{"name":"F#4","midi":66,"time":526.40625,"velocity":0.7480314960629921,"duration":0.08437500000002274},{"name":"A4","midi":69,"time":526.40625,"velocity":0.7480314960629921,"duration":0.08437500000002274},{"name":"F#5","midi":78,"time":526.40625,"velocity":0.7480314960629921,"duration":0.08437500000002274},{"name":"F#4","midi":66,"time":526.5,"velocity":0.7480314960629921,"duration":0.08437500000002274},{"name":"A4","midi":69,"time":526.5,"velocity":0.7480314960629921,"duration":0.08437500000002274},{"name":"F#5","midi":78,"time":526.5,"velocity":0.7480314960629921,"duration":0.08437500000002274},{"name":"F#5","midi":78,"time":526.59375,"velocity":0.7480314960629921,"duration":0.08437500000002274},{"name":"A4","midi":69,"time":526.59375,"velocity":0.7480314960629921,"duration":0.08437500000002274},{"name":"F#4","midi":66,"time":526.59375,"velocity":0.7480314960629921,"duration":0.08437500000002274},{"name":"A4","midi":69,"time":526.6875,"velocity":0.7480314960629921,"duration":0.08437500000002274},{"name":"F#4","midi":66,"time":526.6875,"velocity":0.7480314960629921,"duration":0.08437500000002274},{"name":"F#5","midi":78,"time":526.6875,"velocity":0.7480314960629921,"duration":0.08437500000002274},{"name":"F#5","midi":78,"time":526.78125,"velocity":0.7480314960629921,"duration":0.08437500000002274},{"name":"A4","midi":69,"time":526.78125,"velocity":0.7480314960629921,"duration":0.08437500000002274},{"name":"F#4","midi":66,"time":526.78125,"velocity":0.7480314960629921,"duration":0.08437500000002274},{"name":"F#5","midi":78,"time":526.875,"velocity":0.7480314960629921,"duration":0.08437500000002274},{"name":"F#4","midi":66,"time":526.875,"velocity":0.7480314960629921,"duration":0.08437500000002274},{"name":"A4","midi":69,"time":526.875,"velocity":0.7480314960629921,"duration":0.08437500000002274},{"name":"F#4","midi":66,"time":526.96875,"velocity":0.7480314960629921,"duration":0.08437500000002274},{"name":"A4","midi":69,"time":526.96875,"velocity":0.7480314960629921,"duration":0.08437500000002274},{"name":"F#5","midi":78,"time":526.96875,"velocity":0.7480314960629921,"duration":0.08437500000002274},{"name":"A4","midi":69,"time":527.0625,"velocity":0.7480314960629921,"duration":0.08437500000002274},{"name":"F#4","midi":66,"time":527.0625,"velocity":0.7480314960629921,"duration":0.08437500000002274},{"name":"F#5","midi":78,"time":527.0625,"velocity":0.7480314960629921,"duration":0.08437500000002274},{"name":"F#4","midi":66,"time":527.15625,"velocity":0.7480314960629921,"duration":0.08437500000002274},{"name":"A4","midi":69,"time":527.15625,"velocity":0.7480314960629921,"duration":0.08437500000002274},{"name":"F#5","midi":78,"time":527.15625,"velocity":0.7480314960629921,"duration":0.08437500000002274},{"name":"F#5","midi":78,"time":527.25,"velocity":0.7480314960629921,"duration":0.08437500000002274},{"name":"A4","midi":69,"time":527.25,"velocity":0.7480314960629921,"duration":0.08437500000002274},{"name":"F#4","midi":66,"time":527.25,"velocity":0.7480314960629921,"duration":0.08437500000002274},{"name":"F#5","midi":78,"time":527.34375,"velocity":0.7480314960629921,"duration":0.08437500000002274},{"name":"F#4","midi":66,"time":527.34375,"velocity":0.7480314960629921,"duration":0.08437500000002274},{"name":"A4","midi":69,"time":527.34375,"velocity":0.7480314960629921,"duration":0.08437500000002274},{"name":"F#5","midi":78,"time":527.4375,"velocity":0.7480314960629921,"duration":0.08437500000002274},{"name":"A4","midi":69,"time":527.4375,"velocity":0.7480314960629921,"duration":0.08437500000002274},{"name":"F#4","midi":66,"time":527.4375,"velocity":0.7480314960629921,"duration":0.08437500000002274},{"name":"A4","midi":69,"time":527.53125,"velocity":0.7480314960629921,"duration":0.08437500000002274},{"name":"F#5","midi":78,"time":527.53125,"velocity":0.7480314960629921,"duration":0.08437500000002274},{"name":"F#4","midi":66,"time":527.53125,"velocity":0.7480314960629921,"duration":0.08437500000002274},{"name":"F#4","midi":66,"time":527.625,"velocity":0.7480314960629921,"duration":0.08437500000002274},{"name":"F#5","midi":78,"time":527.625,"velocity":0.7480314960629921,"duration":0.08437500000002274},{"name":"A4","midi":69,"time":527.625,"velocity":0.7480314960629921,"duration":0.08437500000002274},{"name":"F#5","midi":78,"time":527.71875,"velocity":0.7480314960629921,"duration":0.08437500000002274},{"name":"A4","midi":69,"time":527.71875,"velocity":0.7480314960629921,"duration":0.08437500000002274},{"name":"F#4","midi":66,"time":527.71875,"velocity":0.7480314960629921,"duration":0.08437500000002274},{"name":"F#4","midi":66,"time":527.8125,"velocity":0.7480314960629921,"duration":0.08437500000002274},{"name":"A4","midi":69,"time":527.8125,"velocity":0.7480314960629921,"duration":0.08437500000002274},{"name":"F#5","midi":78,"time":527.8125,"velocity":0.7480314960629921,"duration":0.08437500000002274},{"name":"F#4","midi":66,"time":527.90625,"velocity":0.7480314960629921,"duration":0.08437500000002274},{"name":"F#5","midi":78,"time":527.90625,"velocity":0.7480314960629921,"duration":0.08437500000002274},{"name":"A4","midi":69,"time":527.90625,"velocity":0.7480314960629921,"duration":0.08437500000002274},{"name":"F#4","midi":66,"time":528,"velocity":0.7480314960629921,"duration":0.08437500000002274},{"name":"A4","midi":69,"time":528,"velocity":0.7480314960629921,"duration":0.08437500000002274},{"name":"F#5","midi":78,"time":528,"velocity":0.7480314960629921,"duration":0.08437500000002274},{"name":"F#4","midi":66,"time":528.09375,"velocity":0.7480314960629921,"duration":0.08437500000002274},{"name":"A4","midi":69,"time":528.09375,"velocity":0.7480314960629921,"duration":0.08437500000002274},{"name":"F#5","midi":78,"time":528.09375,"velocity":0.7480314960629921,"duration":0.08437500000002274},{"name":"F#4","midi":66,"time":528.1875,"velocity":0.7480314960629921,"duration":0.08437500000002274},{"name":"A4","midi":69,"time":528.1875,"velocity":0.7480314960629921,"duration":0.08437500000002274},{"name":"F#5","midi":78,"time":528.1875,"velocity":0.7480314960629921,"duration":0.08437500000002274},{"name":"A4","midi":69,"time":528.28125,"velocity":0.7480314960629921,"duration":0.08437500000002274},{"name":"F#5","midi":78,"time":528.28125,"velocity":0.7480314960629921,"duration":0.08437500000002274},{"name":"F#4","midi":66,"time":528.28125,"velocity":0.7480314960629921,"duration":0.08437500000002274},{"name":"F#5","midi":78,"time":528.375,"velocity":0.7480314960629921,"duration":0.08437500000002274},{"name":"F#4","midi":66,"time":528.375,"velocity":0.7480314960629921,"duration":0.08437500000002274},{"name":"A4","midi":69,"time":528.375,"velocity":0.7480314960629921,"duration":0.08437500000002274},{"name":"F#4","midi":66,"time":528.46875,"velocity":0.7480314960629921,"duration":0.08437500000002274},{"name":"F#5","midi":78,"time":528.46875,"velocity":0.7480314960629921,"duration":0.08437500000002274},{"name":"A4","midi":69,"time":528.46875,"velocity":0.7480314960629921,"duration":0.08437500000002274},{"name":"F#4","midi":66,"time":528.5625,"velocity":0.7480314960629921,"duration":0.08437500000002274},{"name":"A4","midi":69,"time":528.5625,"velocity":0.7480314960629921,"duration":0.08437500000002274},{"name":"F#5","midi":78,"time":528.5625,"velocity":0.7480314960629921,"duration":0.08437500000002274},{"name":"F#4","midi":66,"time":528.65625,"velocity":0.7480314960629921,"duration":0.08437500000002274},{"name":"F#5","midi":78,"time":528.65625,"velocity":0.7480314960629921,"duration":0.08437500000002274},{"name":"A4","midi":69,"time":528.65625,"velocity":0.7480314960629921,"duration":0.08437500000002274},{"name":"F#4","midi":66,"time":528.75,"velocity":0.7480314960629921,"duration":0.08437500000002274},{"name":"A4","midi":69,"time":528.75,"velocity":0.7480314960629921,"duration":0.08437500000002274},{"name":"F#5","midi":78,"time":528.75,"velocity":0.7480314960629921,"duration":0.08437500000002274},{"name":"A4","midi":69,"time":528.84375,"velocity":0.7480314960629921,"duration":0.08437500000002274},{"name":"F#5","midi":78,"time":528.84375,"velocity":0.7480314960629921,"duration":0.08437500000002274},{"name":"F#4","midi":66,"time":528.84375,"velocity":0.7480314960629921,"duration":0.08437500000002274},{"name":"F#5","midi":78,"time":528.9375,"velocity":0.7480314960629921,"duration":0.08437500000002274},{"name":"F#4","midi":66,"time":528.9375,"velocity":0.7480314960629921,"duration":0.08437500000002274},{"name":"A4","midi":69,"time":528.9375,"velocity":0.7480314960629921,"duration":0.08437500000002274},{"name":"A4","midi":69,"time":529.03125,"velocity":0.7480314960629921,"duration":0.08437500000002274},{"name":"F#5","midi":78,"time":529.03125,"velocity":0.7480314960629921,"duration":0.08437500000002274},{"name":"F#4","midi":66,"time":529.03125,"velocity":0.7480314960629921,"duration":0.08437500000002274},{"name":"F#4","midi":66,"time":529.125,"velocity":0.7480314960629921,"duration":0.08437500000002274},{"name":"A4","midi":69,"time":529.125,"velocity":0.7480314960629921,"duration":0.08437500000002274},{"name":"F#5","midi":78,"time":529.125,"velocity":0.7480314960629921,"duration":0.08437500000002274},{"name":"F#5","midi":78,"time":529.21875,"velocity":0.7480314960629921,"duration":0.08437500000002274},{"name":"A4","midi":69,"time":529.21875,"velocity":0.7480314960629921,"duration":0.08437500000002274},{"name":"F#4","midi":66,"time":529.21875,"velocity":0.7480314960629921,"duration":0.08437500000002274},{"name":"A4","midi":69,"time":529.3125,"velocity":0.7480314960629921,"duration":0.08437500000002274},{"name":"F#4","midi":66,"time":529.3125,"velocity":0.7480314960629921,"duration":0.08437500000002274},{"name":"F#5","midi":78,"time":529.3125,"velocity":0.7480314960629921,"duration":0.08437500000002274},{"name":"F#4","midi":66,"time":529.40625,"velocity":0.7480314960629921,"duration":0.08437500000002274},{"name":"A4","midi":69,"time":529.40625,"velocity":0.7480314960629921,"duration":0.08437500000002274},{"name":"F#5","midi":78,"time":529.40625,"velocity":0.7480314960629921,"duration":0.08437500000002274},{"name":"F#5","midi":78,"time":529.5,"velocity":0.7480314960629921,"duration":0.08437500000002274},{"name":"A4","midi":69,"time":529.5,"velocity":0.7480314960629921,"duration":0.08437500000002274},{"name":"F#4","midi":66,"time":529.5,"velocity":0.7480314960629921,"duration":0.08437500000002274},{"name":"F#4","midi":66,"time":529.59375,"velocity":0.7480314960629921,"duration":0.08437500000002274},{"name":"A4","midi":69,"time":529.59375,"velocity":0.7480314960629921,"duration":0.08437500000002274},{"name":"F#5","midi":78,"time":529.59375,"velocity":0.7480314960629921,"duration":0.08437500000002274},{"name":"F#4","midi":66,"time":529.6875,"velocity":0.7480314960629921,"duration":0.08437500000002274},{"name":"A4","midi":69,"time":529.6875,"velocity":0.7480314960629921,"duration":0.08437500000002274},{"name":"F#5","midi":78,"time":529.6875,"velocity":0.7480314960629921,"duration":0.08437500000002274},{"name":"A4","midi":69,"time":529.78125,"velocity":0.7480314960629921,"duration":0.08437500000002274},{"name":"F#4","midi":66,"time":529.78125,"velocity":0.7480314960629921,"duration":0.08437500000002274},{"name":"F#5","midi":78,"time":529.78125,"velocity":0.7480314960629921,"duration":0.08437500000002274},{"name":"F#5","midi":78,"time":529.875,"velocity":0.7480314960629921,"duration":0.08437500000002274},{"name":"F#4","midi":66,"time":529.875,"velocity":0.7480314960629921,"duration":0.08437500000002274},{"name":"A4","midi":69,"time":529.875,"velocity":0.7480314960629921,"duration":0.08437500000002274},{"name":"F#5","midi":78,"time":529.96875,"velocity":0.7480314960629921,"duration":0.08437500000002274},{"name":"A4","midi":69,"time":529.96875,"velocity":0.7480314960629921,"duration":0.08437500000002274},{"name":"F#4","midi":66,"time":529.96875,"velocity":0.7480314960629921,"duration":0.08437500000002274},{"name":"F#4","midi":66,"time":530.0625,"velocity":0.7480314960629921,"duration":0.08437500000002274},{"name":"A4","midi":69,"time":530.0625,"velocity":0.7480314960629921,"duration":0.08437500000002274},{"name":"F#5","midi":78,"time":530.0625,"velocity":0.7480314960629921,"duration":0.08437500000002274},{"name":"F#4","midi":66,"time":530.15625,"velocity":0.7480314960629921,"duration":0.08437500000002274},{"name":"A4","midi":69,"time":530.15625,"velocity":0.7480314960629921,"duration":0.08437500000002274},{"name":"F#5","midi":78,"time":530.15625,"velocity":0.7480314960629921,"duration":0.08437500000002274},{"name":"F#4","midi":66,"time":530.25,"velocity":0.7480314960629921,"duration":0.08437500000002274},{"name":"A4","midi":69,"time":530.25,"velocity":0.7480314960629921,"duration":0.08437500000002274},{"name":"F#5","midi":78,"time":530.25,"velocity":0.7480314960629921,"duration":0.08437500000002274},{"name":"F#4","midi":66,"time":530.34375,"velocity":0.7480314960629921,"duration":0.08437500000002274},{"name":"A4","midi":69,"time":530.34375,"velocity":0.7480314960629921,"duration":0.08437500000002274},{"name":"F#5","midi":78,"time":530.34375,"velocity":0.7480314960629921,"duration":0.08437500000002274},{"name":"F#5","midi":78,"time":530.4375,"velocity":0.7480314960629921,"duration":0.08437500000002274},{"name":"A4","midi":69,"time":530.4375,"velocity":0.7480314960629921,"duration":0.08437500000002274},{"name":"F#4","midi":66,"time":530.4375,"velocity":0.7480314960629921,"duration":0.08437500000002274},{"name":"A4","midi":69,"time":530.53125,"velocity":0.7480314960629921,"duration":0.08437500000002274},{"name":"F#5","midi":78,"time":530.53125,"velocity":0.7480314960629921,"duration":0.08437500000002274},{"name":"F#4","midi":66,"time":530.53125,"velocity":0.7480314960629921,"duration":0.08437500000002274},{"name":"F#5","midi":78,"time":530.625,"velocity":0.7480314960629921,"duration":0.08437500000002274},{"name":"A4","midi":69,"time":530.625,"velocity":0.7480314960629921,"duration":0.08437500000002274},{"name":"F#4","midi":66,"time":530.625,"velocity":0.7480314960629921,"duration":0.08437500000002274},{"name":"F#4","midi":66,"time":530.71875,"velocity":0.7480314960629921,"duration":0.08437500000002274},{"name":"A4","midi":69,"time":530.71875,"velocity":0.7480314960629921,"duration":0.08437500000002274},{"name":"F#5","midi":78,"time":530.71875,"velocity":0.7480314960629921,"duration":0.08437500000002274},{"name":"F#4","midi":66,"time":530.8125,"velocity":0.7480314960629921,"duration":0.08437500000002274},{"name":"A4","midi":69,"time":530.8125,"velocity":0.7480314960629921,"duration":0.08437500000002274},{"name":"F#5","midi":78,"time":530.8125,"velocity":0.7480314960629921,"duration":0.08437500000002274},{"name":"F#5","midi":78,"time":530.90625,"velocity":0.7480314960629921,"duration":1.4937499999999773},{"name":"F#4","midi":66,"time":530.90625,"velocity":0.7480314960629921,"duration":1.4937499999999773},{"name":"A4","midi":69,"time":530.90625,"velocity":0.7480314960629921,"duration":0.09375},{"name":"A3","midi":57,"time":532.5,"velocity":0.7480314960629921,"duration":0.16875000000004547},{"name":"A4","midi":69,"time":532.5,"velocity":0.7480314960629921,"duration":0.16875000000004547},{"name":"E4","midi":64,"time":532.5,"velocity":0.7480314960629921,"duration":0.16875000000004547},{"name":"A3","midi":57,"time":532.6875,"velocity":0.7480314960629921,"duration":0.16875000000004547},{"name":"E4","midi":64,"time":532.6875,"velocity":0.7480314960629921,"duration":0.16875000000004547},{"name":"A4","midi":69,"time":532.6875,"velocity":0.7480314960629921,"duration":0.16875000000004547},{"name":"A4","midi":69,"time":532.875,"velocity":0.7480314960629921,"duration":0.16875000000004547},{"name":"E4","midi":64,"time":532.875,"velocity":0.7480314960629921,"duration":0.16875000000004547},{"name":"A3","midi":57,"time":532.875,"velocity":0.7480314960629921,"duration":0.16875000000004547},{"name":"A3","midi":57,"time":533.0625,"velocity":0.7480314960629921,"duration":0.16875000000004547},{"name":"E4","midi":64,"time":533.0625,"velocity":0.7480314960629921,"duration":0.16875000000004547},{"name":"A4","midi":69,"time":533.0625,"velocity":0.7480314960629921,"duration":0.16875000000004547},{"name":"A4","midi":69,"time":533.25,"velocity":0.7480314960629921,"duration":0.16875000000004547},{"name":"A3","midi":57,"time":533.25,"velocity":0.7480314960629921,"duration":0.16875000000004547},{"name":"E4","midi":64,"time":533.25,"velocity":0.7480314960629921,"duration":0.16875000000004547},{"name":"E4","midi":64,"time":533.4375,"velocity":0.7480314960629921,"duration":0.16875000000004547},{"name":"A3","midi":57,"time":533.4375,"velocity":0.7480314960629921,"duration":0.16875000000004547},{"name":"A4","midi":69,"time":533.4375,"velocity":0.7480314960629921,"duration":0.16875000000004547},{"name":"A3","midi":57,"time":533.625,"velocity":0.7480314960629921,"duration":0.16875000000004547},{"name":"E4","midi":64,"time":533.625,"velocity":0.7480314960629921,"duration":0.16875000000004547},{"name":"A4","midi":69,"time":533.625,"velocity":0.7480314960629921,"duration":0.16875000000004547},{"name":"A3","midi":57,"time":533.8125,"velocity":0.7480314960629921,"duration":0.16875000000004547},{"name":"E4","midi":64,"time":533.8125,"velocity":0.7480314960629921,"duration":0.16875000000004547},{"name":"A4","midi":69,"time":533.8125,"velocity":0.7480314960629921,"duration":0.16875000000004547},{"name":"A3","midi":57,"time":534,"velocity":0.7480314960629921,"duration":0.16875000000004547},{"name":"E4","midi":64,"time":534,"velocity":0.7480314960629921,"duration":0.16875000000004547},{"name":"A4","midi":69,"time":534,"velocity":0.7480314960629921,"duration":0.16875000000004547},{"name":"A3","midi":57,"time":534.1875,"velocity":0.7480314960629921,"duration":0.16875000000004547},{"name":"E4","midi":64,"time":534.1875,"velocity":0.7480314960629921,"duration":0.16875000000004547},{"name":"A4","midi":69,"time":534.1875,"velocity":0.7480314960629921,"duration":0.16875000000004547},{"name":"A4","midi":69,"time":534.375,"velocity":0.7480314960629921,"duration":0.16875000000004547},{"name":"A3","midi":57,"time":534.375,"velocity":0.7480314960629921,"duration":0.16875000000004547},{"name":"E4","midi":64,"time":534.375,"velocity":0.7480314960629921,"duration":0.16875000000004547},{"name":"A3","midi":57,"time":534.5625,"velocity":0.7480314960629921,"duration":0.16875000000004547},{"name":"E4","midi":64,"time":534.5625,"velocity":0.7480314960629921,"duration":0.16875000000004547},{"name":"A4","midi":69,"time":534.5625,"velocity":0.7480314960629921,"duration":0.16875000000004547},{"name":"A4","midi":69,"time":534.75,"velocity":0.7480314960629921,"duration":0.16875000000004547},{"name":"A3","midi":57,"time":534.75,"velocity":0.7480314960629921,"duration":0.16875000000004547},{"name":"E4","midi":64,"time":534.75,"velocity":0.7480314960629921,"duration":0.16875000000004547},{"name":"E4","midi":64,"time":534.9375,"velocity":0.7480314960629921,"duration":0.16875000000004547},{"name":"A3","midi":57,"time":534.9375,"velocity":0.7480314960629921,"duration":0.16875000000004547},{"name":"A4","midi":69,"time":534.9375,"velocity":0.7480314960629921,"duration":0.16875000000004547},{"name":"A3","midi":57,"time":535.125,"velocity":0.7480314960629921,"duration":0.16875000000004547},{"name":"E4","midi":64,"time":535.125,"velocity":0.7480314960629921,"duration":0.16875000000004547},{"name":"A4","midi":69,"time":535.125,"velocity":0.7480314960629921,"duration":0.16875000000004547},{"name":"E4","midi":64,"time":535.3125,"velocity":0.7480314960629921,"duration":0.16875000000004547},{"name":"A4","midi":69,"time":535.3125,"velocity":0.7480314960629921,"duration":0.16875000000004547},{"name":"A3","midi":57,"time":535.3125,"velocity":0.7480314960629921,"duration":0.16875000000004547},{"name":"A3","midi":57,"time":535.5,"velocity":0.7480314960629921,"duration":0.16875000000004547},{"name":"E4","midi":64,"time":535.5,"velocity":0.7480314960629921,"duration":0.16875000000004547},{"name":"A4","midi":69,"time":535.5,"velocity":0.7480314960629921,"duration":0.16875000000004547},{"name":"E4","midi":64,"time":535.6875,"velocity":0.7480314960629921,"duration":0.16875000000004547},{"name":"A3","midi":57,"time":535.6875,"velocity":0.7480314960629921,"duration":0.16875000000004547},{"name":"A4","midi":69,"time":535.6875,"velocity":0.7480314960629921,"duration":0.16875000000004547},{"name":"A3","midi":57,"time":535.875,"velocity":0.7480314960629921,"duration":0.16875000000004547},{"name":"E4","midi":64,"time":535.875,"velocity":0.7480314960629921,"duration":0.16875000000004547},{"name":"A4","midi":69,"time":535.875,"velocity":0.7480314960629921,"duration":0.16875000000004547},{"name":"A3","midi":57,"time":536.0625,"velocity":0.7480314960629921,"duration":0.16875000000004547},{"name":"E4","midi":64,"time":536.0625,"velocity":0.7480314960629921,"duration":0.16875000000004547},{"name":"A4","midi":69,"time":536.0625,"velocity":0.7480314960629921,"duration":0.16875000000004547},{"name":"E4","midi":64,"time":536.25,"velocity":0.7480314960629921,"duration":0.16875000000004547},{"name":"A4","midi":69,"time":536.25,"velocity":0.7480314960629921,"duration":0.16875000000004547},{"name":"A3","midi":57,"time":536.25,"velocity":0.7480314960629921,"duration":0.16875000000004547},{"name":"E4","midi":64,"time":536.4375,"velocity":0.7480314960629921,"duration":0.16875000000004547},{"name":"A3","midi":57,"time":536.4375,"velocity":0.7480314960629921,"duration":0.16875000000004547},{"name":"A4","midi":69,"time":536.4375,"velocity":0.7480314960629921,"duration":0.16875000000004547},{"name":"A4","midi":69,"time":536.625,"velocity":0.7480314960629921,"duration":0.16875000000004547},{"name":"E4","midi":64,"time":536.625,"velocity":0.7480314960629921,"duration":0.16875000000004547},{"name":"A3","midi":57,"time":536.625,"velocity":0.7480314960629921,"duration":0.16875000000004547},{"name":"A4","midi":69,"time":536.8125,"velocity":0.7480314960629921,"duration":0.16875000000004547},{"name":"E4","midi":64,"time":536.8125,"velocity":0.7480314960629921,"duration":0.16875000000004547},{"name":"A3","midi":57,"time":536.8125,"velocity":0.7480314960629921,"duration":0.16875000000004547},{"name":"A3","midi":57,"time":537,"velocity":0.7480314960629921,"duration":0.16875000000004547},{"name":"A4","midi":69,"time":537,"velocity":0.7480314960629921,"duration":0.16875000000004547},{"name":"E4","midi":64,"time":537,"velocity":0.7480314960629921,"duration":0.16875000000004547},{"name":"E4","midi":64,"time":537.1875,"velocity":0.7480314960629921,"duration":0.16875000000004547},{"name":"A4","midi":69,"time":537.1875,"velocity":0.7480314960629921,"duration":0.16875000000004547},{"name":"A3","midi":57,"time":537.1875,"velocity":0.7480314960629921,"duration":0.16875000000004547},{"name":"A3","midi":57,"time":537.375,"velocity":0.7480314960629921,"duration":0.16875000000004547},{"name":"E4","midi":64,"time":537.375,"velocity":0.7480314960629921,"duration":0.16875000000004547},{"name":"A4","midi":69,"time":537.375,"velocity":0.7480314960629921,"duration":0.16875000000004547},{"name":"A4","midi":69,"time":537.5625,"velocity":0.7480314960629921,"duration":0.16875000000004547},{"name":"A3","midi":57,"time":537.5625,"velocity":0.7480314960629921,"duration":0.16875000000004547},{"name":"E4","midi":64,"time":537.5625,"velocity":0.7480314960629921,"duration":0.16875000000004547},{"name":"A3","midi":57,"time":537.75,"velocity":0.7480314960629921,"duration":0.16875000000004547},{"name":"A4","midi":69,"time":537.75,"velocity":0.7480314960629921,"duration":0.16875000000004547},{"name":"E4","midi":64,"time":537.75,"velocity":0.7480314960629921,"duration":0.16875000000004547},{"name":"A3","midi":57,"time":537.9375,"velocity":0.7480314960629921,"duration":0.16875000000004547},{"name":"E4","midi":64,"time":537.9375,"velocity":0.7480314960629921,"duration":0.16875000000004547},{"name":"A4","midi":69,"time":537.9375,"velocity":0.7480314960629921,"duration":0.16875000000004547},{"name":"A4","midi":69,"time":538.125,"velocity":0.7480314960629921,"duration":0.16875000000004547},{"name":"E4","midi":64,"time":538.125,"velocity":0.7480314960629921,"duration":0.16875000000004547},{"name":"A3","midi":57,"time":538.125,"velocity":0.7480314960629921,"duration":0.16875000000004547},{"name":"A3","midi":57,"time":538.3125,"velocity":0.7480314960629921,"duration":0.16875000000004547},{"name":"A4","midi":69,"time":538.3125,"velocity":0.7480314960629921,"duration":0.16875000000004547},{"name":"E4","midi":64,"time":538.3125,"velocity":0.7480314960629921,"duration":0.16875000000004547},{"name":"A4","midi":69,"time":538.5,"velocity":0.7480314960629921,"duration":15},{"name":"E4","midi":64,"time":538.5,"velocity":0.7480314960629921,"duration":15},{"name":"A3","midi":57,"time":538.5,"velocity":0.7480314960629921,"duration":15}]},{"instrumentFamily":"drums","notes":[{"name":"G#2","midi":44,"time":291,"velocity":0.7480314960629921,"duration":0.33749999999997726},{"name":"B1","midi":35,"time":291,"velocity":0.7480314960629921,"duration":0.33749999999997726},{"name":"G2","midi":43,"time":291,"velocity":0.7480314960629921,"duration":0.33749999999997726},{"name":"C#3","midi":49,"time":291,"velocity":0.7480314960629921,"duration":0.33749999999997726},{"name":"G#2","midi":44,"time":291.375,"velocity":0.7480314960629921,"duration":0.33749999999997726},{"name":"D2","midi":38,"time":291.75,"velocity":0.7480314960629921,"duration":0.33749999999997726},{"name":"G#2","midi":44,"time":291.75,"velocity":0.7480314960629921,"duration":0.33749999999997726},{"name":"G#2","midi":44,"time":292.125,"velocity":0.7480314960629921,"duration":0.33749999999997726},{"name":"G2","midi":43,"time":292.5,"velocity":0.7480314960629921,"duration":0.33749999999997726},{"name":"B1","midi":35,"time":292.5,"velocity":0.7480314960629921,"duration":0.33749999999997726},{"name":"G#2","midi":44,"time":292.5,"velocity":0.7480314960629921,"duration":0.33749999999997726},{"name":"G2","midi":43,"time":292.875,"velocity":0.7480314960629921,"duration":0.33749999999997726},{"name":"G#2","midi":44,"time":292.875,"velocity":0.7480314960629921,"duration":0.33749999999997726},{"name":"B1","midi":35,"time":292.875,"velocity":0.7480314960629921,"duration":0.33749999999997726},{"name":"G#2","midi":44,"time":293.25,"velocity":0.7480314960629921,"duration":0.33749999999997726},{"name":"D2","midi":38,"time":293.25,"velocity":0.7480314960629921,"duration":0.33749999999997726},{"name":"G#2","midi":44,"time":293.625,"velocity":0.7480314960629921,"duration":0.33749999999997726},{"name":"B1","midi":35,"time":294,"velocity":0.7480314960629921,"duration":0.33749999999997726},{"name":"G2","midi":43,"time":294,"velocity":0.7480314960629921,"duration":0.33749999999997726},{"name":"G#2","midi":44,"time":294,"velocity":0.7480314960629921,"duration":0.33749999999997726},{"name":"G#2","midi":44,"time":294.375,"velocity":0.7480314960629921,"duration":0.33749999999997726},{"name":"G#2","midi":44,"time":294.75,"velocity":0.7480314960629921,"duration":0.33749999999997726},{"name":"D2","midi":38,"time":294.75,"velocity":0.7480314960629921,"duration":0.33749999999997726},{"name":"G#2","midi":44,"time":295.125,"velocity":0.7480314960629921,"duration":0.33749999999997726},{"name":"G2","midi":43,"time":295.5,"velocity":0.7480314960629921,"duration":0.33749999999997726},{"name":"B1","midi":35,"time":295.5,"velocity":0.7480314960629921,"duration":0.33749999999997726},{"name":"G#2","midi":44,"time":295.5,"velocity":0.7480314960629921,"duration":0.33749999999997726},{"name":"G#2","midi":44,"time":295.875,"velocity":0.7480314960629921,"duration":0.33749999999997726},{"name":"B1","midi":35,"time":295.875,"velocity":0.7480314960629921,"duration":0.33749999999997726},{"name":"G2","midi":43,"time":295.875,"velocity":0.7480314960629921,"duration":0.33749999999997726},{"name":"G#2","midi":44,"time":296.25,"velocity":0.7480314960629921,"duration":0.33749999999997726},{"name":"D2","midi":38,"time":296.25,"velocity":0.7480314960629921,"duration":0.33749999999997726},{"name":"G#2","midi":44,"time":296.625,"velocity":0.7480314960629921,"duration":0.33749999999997726},{"name":"G2","midi":43,"time":297,"velocity":0.7480314960629921,"duration":0.33749999999997726},{"name":"B1","midi":35,"time":297,"velocity":0.7480314960629921,"duration":0.33749999999997726},{"name":"G#2","midi":44,"time":297,"velocity":0.7480314960629921,"duration":0.33749999999997726},{"name":"G#2","midi":44,"time":297.375,"velocity":0.7480314960629921,"duration":0.33749999999997726},{"name":"G#2","midi":44,"time":297.75,"velocity":0.7480314960629921,"duration":0.33749999999997726},{"name":"D2","midi":38,"time":297.75,"velocity":0.7480314960629921,"duration":0.33749999999997726},{"name":"G#2","midi":44,"time":298.125,"velocity":0.7480314960629921,"duration":0.33749999999997726},{"name":"G#2","midi":44,"time":298.5,"velocity":0.7480314960629921,"duration":0.33749999999997726},{"name":"G2","midi":43,"time":298.5,"velocity":0.7480314960629921,"duration":0.33749999999997726},{"name":"B1","midi":35,"time":298.5,"velocity":0.7480314960629921,"duration":0.33749999999997726},{"name":"G#2","midi":44,"time":298.875,"velocity":0.7480314960629921,"duration":0.33749999999997726},{"name":"B1","midi":35,"time":298.875,"velocity":0.7480314960629921,"duration":0.33749999999997726},{"name":"G2","midi":43,"time":298.875,"velocity":0.7480314960629921,"duration":0.33749999999997726},{"name":"D2","midi":38,"time":299.25,"velocity":0.7480314960629921,"duration":0.33749999999997726},{"name":"G#2","midi":44,"time":299.25,"velocity":0.7480314960629921,"duration":0.33749999999997726},{"name":"G#2","midi":44,"time":299.625,"velocity":0.7480314960629921,"duration":0.33749999999997726},{"name":"G#2","midi":44,"time":300,"velocity":0.7480314960629921,"duration":0.33749999999997726},{"name":"B1","midi":35,"time":300,"velocity":0.7480314960629921,"duration":0.33749999999997726},{"name":"G2","midi":43,"time":300,"velocity":0.7480314960629921,"duration":0.33749999999997726},{"name":"G#2","midi":44,"time":300.375,"velocity":0.7480314960629921,"duration":0.33749999999997726},{"name":"G#2","midi":44,"time":300.75,"velocity":0.7480314960629921,"duration":0.33749999999997726},{"name":"D2","midi":38,"time":300.75,"velocity":0.7480314960629921,"duration":0.33749999999997726},{"name":"G#2","midi":44,"time":301.125,"velocity":0.7480314960629921,"duration":0.33749999999997726},{"name":"G2","midi":43,"time":301.5,"velocity":0.7480314960629921,"duration":0.33749999999997726},{"name":"B1","midi":35,"time":301.5,"velocity":0.7480314960629921,"duration":0.33749999999997726},{"name":"G#2","midi":44,"time":301.5,"velocity":0.7480314960629921,"duration":0.33749999999997726},{"name":"G2","midi":43,"time":301.875,"velocity":0.7480314960629921,"duration":0.33749999999997726},{"name":"B1","midi":35,"time":301.875,"velocity":0.7480314960629921,"duration":0.33749999999997726},{"name":"G#2","midi":44,"time":301.875,"velocity":0.7480314960629921,"duration":0.33749999999997726},{"name":"G#2","midi":44,"time":302.25,"velocity":0.7480314960629921,"duration":0.33749999999997726},{"name":"D2","midi":38,"time":302.25,"velocity":0.7480314960629921,"duration":0.33749999999997726},{"name":"G#2","midi":44,"time":302.625,"velocity":0.7480314960629921,"duration":0.33749999999997726},{"name":"G#2","midi":44,"time":303,"velocity":0.7480314960629921,"duration":0.33749999999997726},{"name":"G2","midi":43,"time":303,"velocity":0.7480314960629921,"duration":0.33749999999997726},{"name":"B1","midi":35,"time":303,"velocity":0.7480314960629921,"duration":0.33749999999997726},{"name":"G#2","midi":44,"time":303.375,"velocity":0.7480314960629921,"duration":0.33749999999997726},{"name":"D2","midi":38,"time":303.75,"velocity":0.7480314960629921,"duration":0.33749999999997726},{"name":"G#2","midi":44,"time":303.75,"velocity":0.7480314960629921,"duration":0.33749999999997726},{"name":"G#2","midi":44,"time":304.125,"velocity":0.7480314960629921,"duration":0.33749999999997726},{"name":"B1","midi":35,"time":304.5,"velocity":0.7480314960629921,"duration":0.33749999999997726},{"name":"G#2","midi":44,"time":304.5,"velocity":0.7480314960629921,"duration":0.33749999999997726},{"name":"G2","midi":43,"time":304.5,"velocity":0.7480314960629921,"duration":0.33749999999997726},{"name":"G#2","midi":44,"time":304.875,"velocity":0.7480314960629921,"duration":0.33749999999997726},{"name":"B1","midi":35,"time":304.875,"velocity":0.7480314960629921,"duration":0.33749999999997726},{"name":"G2","midi":43,"time":304.875,"velocity":0.7480314960629921,"duration":0.33749999999997726},{"name":"G#2","midi":44,"time":305.25,"velocity":0.7480314960629921,"duration":0.33749999999997726},{"name":"D2","midi":38,"time":305.25,"velocity":0.7480314960629921,"duration":0.33749999999997726},{"name":"G#2","midi":44,"time":305.625,"velocity":0.7480314960629921,"duration":0.33749999999997726},{"name":"G2","midi":43,"time":306,"velocity":0.7480314960629921,"duration":0.33749999999997726},{"name":"B1","midi":35,"time":306,"velocity":0.7480314960629921,"duration":0.33749999999997726},{"name":"G#2","midi":44,"time":306,"velocity":0.7480314960629921,"duration":0.33749999999997726},{"name":"G#2","midi":44,"time":306.375,"velocity":0.7480314960629921,"duration":0.33749999999997726},{"name":"D2","midi":38,"time":306.75,"velocity":0.7480314960629921,"duration":0.33749999999997726},{"name":"G#2","midi":44,"time":306.75,"velocity":0.7480314960629921,"duration":0.33749999999997726},{"name":"G#2","midi":44,"time":307.125,"velocity":0.7480314960629921,"duration":0.33749999999997726},{"name":"B1","midi":35,"time":307.5,"velocity":0.7480314960629921,"duration":0.33749999999997726},{"name":"G2","midi":43,"time":307.5,"velocity":0.7480314960629921,"duration":0.33749999999997726},{"name":"G#2","midi":44,"time":307.5,"velocity":0.7480314960629921,"duration":0.33749999999997726},{"name":"G2","midi":43,"time":307.875,"velocity":0.7480314960629921,"duration":0.33749999999997726},{"name":"B1","midi":35,"time":307.875,"velocity":0.7480314960629921,"duration":0.33749999999997726},{"name":"G#2","midi":44,"time":307.875,"velocity":0.7480314960629921,"duration":0.33749999999997726},{"name":"G#2","midi":44,"time":308.25,"velocity":0.7480314960629921,"duration":0.33749999999997726},{"name":"D2","midi":38,"time":308.25,"velocity":0.7480314960629921,"duration":0.33749999999997726},{"name":"G#2","midi":44,"time":308.625,"velocity":0.7480314960629921,"duration":0.33749999999997726},{"name":"G#2","midi":44,"time":309,"velocity":0.7480314960629921,"duration":0.33749999999997726},{"name":"G2","midi":43,"time":309,"velocity":0.7480314960629921,"duration":0.33749999999997726},{"name":"B1","midi":35,"time":309,"velocity":0.7480314960629921,"duration":0.33749999999997726},{"name":"G#2","midi":44,"time":309.375,"velocity":0.7480314960629921,"duration":0.33749999999997726},{"name":"D2","midi":38,"time":309.75,"velocity":0.7480314960629921,"duration":0.33749999999997726},{"name":"G#2","midi":44,"time":309.75,"velocity":0.7480314960629921,"duration":0.33749999999997726},{"name":"G#2","midi":44,"time":310.125,"velocity":0.7480314960629921,"duration":0.33749999999997726},{"name":"B1","midi":35,"time":310.5,"velocity":0.7480314960629921,"duration":0.33749999999997726},{"name":"G2","midi":43,"time":310.5,"velocity":0.7480314960629921,"duration":0.33749999999997726},{"name":"G#2","midi":44,"time":310.5,"velocity":0.7480314960629921,"duration":0.33749999999997726},{"name":"G2","midi":43,"time":310.875,"velocity":0.7480314960629921,"duration":0.33749999999997726},{"name":"G#2","midi":44,"time":310.875,"velocity":0.7480314960629921,"duration":0.33749999999997726},{"name":"B1","midi":35,"time":310.875,"velocity":0.7480314960629921,"duration":0.33749999999997726},{"name":"D2","midi":38,"time":311.25,"velocity":0.7480314960629921,"duration":0.33749999999997726},{"name":"G#2","midi":44,"time":311.25,"velocity":0.7480314960629921,"duration":0.33749999999997726},{"name":"G#2","midi":44,"time":311.625,"velocity":0.7480314960629921,"duration":0.33749999999997726},{"name":"G#2","midi":44,"time":312,"velocity":0.7480314960629921,"duration":0.33749999999997726},{"name":"B1","midi":35,"time":312,"velocity":0.7480314960629921,"duration":0.33749999999997726},{"name":"G2","midi":43,"time":312,"velocity":0.7480314960629921,"duration":0.33749999999997726},{"name":"G#2","midi":44,"time":312.375,"velocity":0.7480314960629921,"duration":0.33749999999997726},{"name":"D2","midi":38,"time":312.75,"velocity":0.7480314960629921,"duration":0.33749999999997726},{"name":"G#2","midi":44,"time":312.75,"velocity":0.7480314960629921,"duration":0.33749999999997726},{"name":"G#2","midi":44,"time":313.125,"velocity":0.7480314960629921,"duration":0.33749999999997726},{"name":"G#2","midi":44,"time":313.5,"velocity":0.7480314960629921,"duration":0.33749999999997726},{"name":"B1","midi":35,"time":313.5,"velocity":0.7480314960629921,"duration":0.33749999999997726},{"name":"G2","midi":43,"time":313.5,"velocity":0.7480314960629921,"duration":0.33749999999997726},{"name":"B1","midi":35,"time":313.875,"velocity":0.7480314960629921,"duration":0.33749999999997726},{"name":"G2","midi":43,"time":313.875,"velocity":0.7480314960629921,"duration":0.33749999999997726},{"name":"G#2","midi":44,"time":313.875,"velocity":0.7480314960629921,"duration":0.33749999999997726},{"name":"D2","midi":38,"time":314.25,"velocity":0.7480314960629921,"duration":0.33749999999997726},{"name":"G#2","midi":44,"time":314.25,"velocity":0.7480314960629921,"duration":0.33749999999997726},{"name":"G#2","midi":44,"time":314.625,"velocity":0.7480314960629921,"duration":0.33749999999997726},{"name":"B1","midi":35,"time":315,"velocity":0.7480314960629921,"duration":0.33749999999997726},{"name":"G#2","midi":44,"time":315,"velocity":0.7480314960629921,"duration":0.33749999999997726},{"name":"G2","midi":43,"time":315,"velocity":0.7480314960629921,"duration":0.33749999999997726},{"name":"G#2","midi":44,"time":315.375,"velocity":0.7480314960629921,"duration":0.33749999999997726},{"name":"G#2","midi":44,"time":315.75,"velocity":0.7480314960629921,"duration":0.33749999999997726},{"name":"D2","midi":38,"time":315.75,"velocity":0.7480314960629921,"duration":0.33749999999997726},{"name":"G#2","midi":44,"time":316.125,"velocity":0.7480314960629921,"duration":0.33749999999997726},{"name":"G#2","midi":44,"time":316.5,"velocity":0.7480314960629921,"duration":0.33749999999997726},{"name":"G2","midi":43,"time":316.5,"velocity":0.7480314960629921,"duration":0.33749999999997726},{"name":"B1","midi":35,"time":316.5,"velocity":0.7480314960629921,"duration":0.33749999999997726},{"name":"G#2","midi":44,"time":316.875,"velocity":0.7480314960629921,"duration":0.33749999999997726},{"name":"B1","midi":35,"time":316.875,"velocity":0.7480314960629921,"duration":0.33749999999997726},{"name":"G2","midi":43,"time":316.875,"velocity":0.7480314960629921,"duration":0.33749999999997726},{"name":"D2","midi":38,"time":317.25,"velocity":0.7480314960629921,"duration":0.33749999999997726},{"name":"G#2","midi":44,"time":317.25,"velocity":0.7480314960629921,"duration":0.33749999999997726},{"name":"G#2","midi":44,"time":317.625,"velocity":0.7480314960629921,"duration":0.33749999999997726},{"name":"G2","midi":43,"time":318,"velocity":0.7480314960629921,"duration":0.33749999999997726},{"name":"G#2","midi":44,"time":318,"velocity":0.7480314960629921,"duration":0.33749999999997726},{"name":"B1","midi":35,"time":318,"velocity":0.7480314960629921,"duration":0.33749999999997726},{"name":"G#2","midi":44,"time":318.375,"velocity":0.7480314960629921,"duration":0.33749999999997726},{"name":"D2","midi":38,"time":318.75,"velocity":0.7480314960629921,"duration":0.33749999999997726},{"name":"G#2","midi":44,"time":318.75,"velocity":0.7480314960629921,"duration":0.33749999999997726},{"name":"G#2","midi":44,"time":319.125,"velocity":0.7480314960629921,"duration":0.33749999999997726},{"name":"G#2","midi":44,"time":319.5,"velocity":0.7480314960629921,"duration":0.33749999999997726},{"name":"B1","midi":35,"time":319.5,"velocity":0.7480314960629921,"duration":0.33749999999997726},{"name":"G2","midi":43,"time":319.5,"velocity":0.7480314960629921,"duration":0.33749999999997726},{"name":"B1","midi":35,"time":319.875,"velocity":0.7480314960629921,"duration":0.33749999999997726},{"name":"G#2","midi":44,"time":319.875,"velocity":0.7480314960629921,"duration":0.33749999999997726},{"name":"G2","midi":43,"time":319.875,"velocity":0.7480314960629921,"duration":0.33749999999997726},{"name":"G#2","midi":44,"time":320.25,"velocity":0.7480314960629921,"duration":0.33749999999997726},{"name":"D2","midi":38,"time":320.25,"velocity":0.7480314960629921,"duration":0.33749999999997726},{"name":"G#2","midi":44,"time":320.625,"velocity":0.7480314960629921,"duration":0.33749999999997726},{"name":"G2","midi":43,"time":321,"velocity":0.7480314960629921,"duration":0.33749999999997726},{"name":"B1","midi":35,"time":321,"velocity":0.7480314960629921,"duration":0.33749999999997726},{"name":"G#2","midi":44,"time":321,"velocity":0.7480314960629921,"duration":0.33749999999997726},{"name":"G#2","midi":44,"time":321.375,"velocity":0.7480314960629921,"duration":0.33749999999997726},{"name":"G#2","midi":44,"time":321.75,"velocity":0.7480314960629921,"duration":0.33749999999997726},{"name":"D2","midi":38,"time":321.75,"velocity":0.7480314960629921,"duration":0.33749999999997726},{"name":"G#2","midi":44,"time":322.125,"velocity":0.7480314960629921,"duration":0.33749999999997726},{"name":"G2","midi":43,"time":322.5,"velocity":0.7480314960629921,"duration":0.33749999999997726},{"name":"G#2","midi":44,"time":322.5,"velocity":0.7480314960629921,"duration":0.33749999999997726},{"name":"B1","midi":35,"time":322.5,"velocity":0.7480314960629921,"duration":0.33749999999997726},{"name":"B1","midi":35,"time":322.875,"velocity":0.7480314960629921,"duration":0.33749999999997726},{"name":"G#2","midi":44,"time":322.875,"velocity":0.7480314960629921,"duration":0.33749999999997726},{"name":"G2","midi":43,"time":322.875,"velocity":0.7480314960629921,"duration":0.33749999999997726},{"name":"D2","midi":38,"time":323.25,"velocity":0.7480314960629921,"duration":0.33749999999997726},{"name":"G#2","midi":44,"time":323.25,"velocity":0.7480314960629921,"duration":0.33749999999997726},{"name":"G#2","midi":44,"time":323.625,"velocity":0.7480314960629921,"duration":0.33749999999997726},{"name":"G2","midi":43,"time":324,"velocity":0.7480314960629921,"duration":0.33749999999997726},{"name":"B1","midi":35,"time":324,"velocity":0.7480314960629921,"duration":0.33749999999997726},{"name":"G#2","midi":44,"time":324,"velocity":0.7480314960629921,"duration":0.33749999999997726},{"name":"G#2","midi":44,"time":324.375,"velocity":0.7480314960629921,"duration":0.33749999999997726},{"name":"D2","midi":38,"time":324.75,"velocity":0.7480314960629921,"duration":0.33749999999997726},{"name":"G#2","midi":44,"time":324.75,"velocity":0.7480314960629921,"duration":0.33749999999997726},{"name":"G#2","midi":44,"time":325.125,"velocity":0.7480314960629921,"duration":0.33749999999997726},{"name":"G#2","midi":44,"time":325.5,"velocity":0.7480314960629921,"duration":0.33749999999997726},{"name":"B1","midi":35,"time":325.5,"velocity":0.7480314960629921,"duration":0.33749999999997726},{"name":"G2","midi":43,"time":325.5,"velocity":0.7480314960629921,"duration":0.33749999999997726},{"name":"G#2","midi":44,"time":325.875,"velocity":0.7480314960629921,"duration":0.33749999999997726},{"name":"B1","midi":35,"time":325.875,"velocity":0.7480314960629921,"duration":0.33749999999997726},{"name":"G2","midi":43,"time":325.875,"velocity":0.7480314960629921,"duration":0.33749999999997726},{"name":"D2","midi":38,"time":326.25,"velocity":0.7480314960629921,"duration":0.33749999999997726},{"name":"G#2","midi":44,"time":326.25,"velocity":0.7480314960629921,"duration":0.33749999999997726},{"name":"G#2","midi":44,"time":326.625,"velocity":0.7480314960629921,"duration":0.33749999999997726},{"name":"B1","midi":35,"time":327,"velocity":0.7480314960629921,"duration":0.33749999999997726},{"name":"G2","midi":43,"time":327,"velocity":0.7480314960629921,"duration":0.33749999999997726},{"name":"G#2","midi":44,"time":327,"velocity":0.7480314960629921,"duration":0.33749999999997726},{"name":"G#2","midi":44,"time":327.375,"velocity":0.7480314960629921,"duration":0.33749999999997726},{"name":"D2","midi":38,"time":327.75,"velocity":0.7480314960629921,"duration":0.33749999999997726},{"name":"G#2","midi":44,"time":327.75,"velocity":0.7480314960629921,"duration":0.33749999999997726},{"name":"G#2","midi":44,"time":328.125,"velocity":0.7480314960629921,"duration":0.33749999999997726},{"name":"B1","midi":35,"time":328.5,"velocity":0.7480314960629921,"duration":0.33749999999997726},{"name":"G#2","midi":44,"time":328.5,"velocity":0.7480314960629921,"duration":0.33749999999997726},{"name":"G2","midi":43,"time":328.5,"velocity":0.7480314960629921,"duration":0.33749999999997726},{"name":"G2","midi":43,"time":328.875,"velocity":0.7480314960629921,"duration":0.33749999999997726},{"name":"B1","midi":35,"time":328.875,"velocity":0.7480314960629921,"duration":0.33749999999997726},{"name":"G#2","midi":44,"time":328.875,"velocity":0.7480314960629921,"duration":0.33749999999997726},{"name":"D2","midi":38,"time":329.25,"velocity":0.7480314960629921,"duration":0.33749999999997726},{"name":"G#2","midi":44,"time":329.25,"velocity":0.7480314960629921,"duration":0.33749999999997726},{"name":"G#2","midi":44,"time":329.625,"velocity":0.7480314960629921,"duration":0.33749999999997726},{"name":"B1","midi":35,"time":330,"velocity":0.7480314960629921,"duration":0.33749999999997726},{"name":"G2","midi":43,"time":330,"velocity":0.7480314960629921,"duration":0.33749999999997726},{"name":"G#2","midi":44,"time":330,"velocity":0.7480314960629921,"duration":0.33749999999997726},{"name":"G#2","midi":44,"time":330.375,"velocity":0.7480314960629921,"duration":0.33749999999997726},{"name":"G#2","midi":44,"time":330.75,"velocity":0.7480314960629921,"duration":0.33749999999997726},{"name":"D2","midi":38,"time":330.75,"velocity":0.7480314960629921,"duration":0.33749999999997726},{"name":"G#2","midi":44,"time":331.125,"velocity":0.7480314960629921,"duration":0.33749999999997726},{"name":"B1","midi":35,"time":331.5,"velocity":0.7480314960629921,"duration":0.33749999999997726},{"name":"G#2","midi":44,"time":331.5,"velocity":0.7480314960629921,"duration":0.33749999999997726},{"name":"G2","midi":43,"time":331.5,"velocity":0.7480314960629921,"duration":0.33749999999997726},{"name":"G#2","midi":44,"time":331.875,"velocity":0.7480314960629921,"duration":0.33749999999997726},{"name":"G2","midi":43,"time":331.875,"velocity":0.7480314960629921,"duration":0.33749999999997726},{"name":"B1","midi":35,"time":331.875,"velocity":0.7480314960629921,"duration":0.33749999999997726},{"name":"G#2","midi":44,"time":332.25,"velocity":0.7480314960629921,"duration":0.33749999999997726},{"name":"D2","midi":38,"time":332.25,"velocity":0.7480314960629921,"duration":0.33749999999997726},{"name":"G#2","midi":44,"time":332.625,"velocity":0.7480314960629921,"duration":0.33749999999997726},{"name":"G#2","midi":44,"time":333,"velocity":0.7480314960629921,"duration":0.33749999999997726},{"name":"B1","midi":35,"time":333,"velocity":0.7480314960629921,"duration":0.33749999999997726},{"name":"G2","midi":43,"time":333,"velocity":0.7480314960629921,"duration":0.33749999999997726},{"name":"G#2","midi":44,"time":333.375,"velocity":0.7480314960629921,"duration":0.33749999999997726},{"name":"D2","midi":38,"time":333.75,"velocity":0.7480314960629921,"duration":0.33749999999997726},{"name":"G#2","midi":44,"time":333.75,"velocity":0.7480314960629921,"duration":0.33749999999997726},{"name":"G#2","midi":44,"time":334.125,"velocity":0.7480314960629921,"duration":0.33749999999997726},{"name":"B1","midi":35,"time":334.5,"velocity":0.7480314960629921,"duration":0.33749999999997726},{"name":"G2","midi":43,"time":334.5,"velocity":0.7480314960629921,"duration":0.33749999999997726},{"name":"G#2","midi":44,"time":334.5,"velocity":0.7480314960629921,"duration":0.33749999999997726},{"name":"G2","midi":43,"time":334.875,"velocity":0.7480314960629921,"duration":0.33749999999997726},{"name":"G#2","midi":44,"time":334.875,"velocity":0.7480314960629921,"duration":0.33749999999997726},{"name":"B1","midi":35,"time":334.875,"velocity":0.7480314960629921,"duration":0.33749999999997726},{"name":"D2","midi":38,"time":335.25,"velocity":0.7480314960629921,"duration":0.33749999999997726},{"name":"G#2","midi":44,"time":335.25,"velocity":0.7480314960629921,"duration":0.33749999999997726},{"name":"G#2","midi":44,"time":335.625,"velocity":0.7480314960629921,"duration":0.33749999999997726},{"name":"G2","midi":43,"time":336,"velocity":0.7480314960629921,"duration":0.33749999999997726},{"name":"B1","midi":35,"time":336,"velocity":0.7480314960629921,"duration":0.33749999999997726},{"name":"G#2","midi":44,"time":336,"velocity":0.7480314960629921,"duration":0.33749999999997726},{"name":"G#2","midi":44,"time":336.375,"velocity":0.7480314960629921,"duration":0.33749999999997726},{"name":"D2","midi":38,"time":336.75,"velocity":0.7480314960629921,"duration":0.33749999999997726},{"name":"G#2","midi":44,"time":336.75,"velocity":0.7480314960629921,"duration":0.33749999999997726},{"name":"G#2","midi":44,"time":337.125,"velocity":0.7480314960629921,"duration":0.33749999999997726},{"name":"G2","midi":43,"time":337.5,"velocity":0.7480314960629921,"duration":0.33749999999997726},{"name":"G#2","midi":44,"time":337.5,"velocity":0.7480314960629921,"duration":0.33749999999997726},{"name":"B1","midi":35,"time":337.5,"velocity":0.7480314960629921,"duration":0.33749999999997726},{"name":"G2","midi":43,"time":337.875,"velocity":0.7480314960629921,"duration":0.33749999999997726},{"name":"B1","midi":35,"time":337.875,"velocity":0.7480314960629921,"duration":0.33749999999997726},{"name":"G#2","midi":44,"time":337.875,"velocity":0.7480314960629921,"duration":0.33749999999997726},{"name":"D2","midi":38,"time":338.25,"velocity":0.7480314960629921,"duration":0.33749999999997726},{"name":"G#2","midi":44,"time":338.25,"velocity":0.7480314960629921,"duration":0.33749999999997726},{"name":"G#2","midi":44,"time":338.625,"velocity":0.7480314960629921,"duration":0.33749999999997726},{"name":"B1","midi":35,"time":339,"velocity":0.7480314960629921,"duration":0.33749999999997726},{"name":"G2","midi":43,"time":339,"velocity":0.7480314960629921,"duration":0.33749999999997726},{"name":"C#3","midi":49,"time":339,"velocity":0.7480314960629921,"duration":0.33749999999997726},{"name":"G#2","midi":44,"time":339,"velocity":0.7480314960629921,"duration":0.33749999999997726},{"name":"G#2","midi":44,"time":339.375,"velocity":0.7480314960629921,"duration":0.33749999999997726},{"name":"D2","midi":38,"time":339.75,"velocity":0.7480314960629921,"duration":0.33749999999997726},{"name":"G#2","midi":44,"time":339.75,"velocity":0.7480314960629921,"duration":0.33749999999997726},{"name":"G#2","midi":44,"time":340.125,"velocity":0.7480314960629921,"duration":0.33749999999997726},{"name":"B1","midi":35,"time":340.5,"velocity":0.7480314960629921,"duration":0.33749999999997726},{"name":"G2","midi":43,"time":340.5,"velocity":0.7480314960629921,"duration":0.33749999999997726},{"name":"G#2","midi":44,"time":340.5,"velocity":0.7480314960629921,"duration":0.33749999999997726},{"name":"G2","midi":43,"time":340.875,"velocity":0.7480314960629921,"duration":0.33749999999997726},{"name":"G#2","midi":44,"time":340.875,"velocity":0.7480314960629921,"duration":0.33749999999997726},{"name":"B1","midi":35,"time":340.875,"velocity":0.7480314960629921,"duration":0.33749999999997726},{"name":"G#2","midi":44,"time":341.25,"velocity":0.7480314960629921,"duration":0.33749999999997726},{"name":"D2","midi":38,"time":341.25,"velocity":0.7480314960629921,"duration":0.33749999999997726},{"name":"G#2","midi":44,"time":341.625,"velocity":0.7480314960629921,"duration":0.33749999999997726},{"name":"G#2","midi":44,"time":342,"velocity":0.7480314960629921,"duration":0.33749999999997726},{"name":"G2","midi":43,"time":342,"velocity":0.7480314960629921,"duration":0.33749999999997726},{"name":"B1","midi":35,"time":342,"velocity":0.7480314960629921,"duration":0.33749999999997726},{"name":"G#2","midi":44,"time":342.375,"velocity":0.7480314960629921,"duration":0.33749999999997726},{"name":"D2","midi":38,"time":342.75,"velocity":0.7480314960629921,"duration":0.33749999999997726},{"name":"G#2","midi":44,"time":342.75,"velocity":0.7480314960629921,"duration":0.33749999999997726},{"name":"G#2","midi":44,"time":343.125,"velocity":0.7480314960629921,"duration":0.33749999999997726},{"name":"G#2","midi":44,"time":343.5,"velocity":0.7480314960629921,"duration":0.33749999999997726},{"name":"B1","midi":35,"time":343.5,"velocity":0.7480314960629921,"duration":0.33749999999997726},{"name":"G2","midi":43,"time":343.5,"velocity":0.7480314960629921,"duration":0.33749999999997726},{"name":"G#2","midi":44,"time":343.875,"velocity":0.7480314960629921,"duration":0.33749999999997726},{"name":"G2","midi":43,"time":343.875,"velocity":0.7480314960629921,"duration":0.33749999999997726},{"name":"B1","midi":35,"time":343.875,"velocity":0.7480314960629921,"duration":0.33749999999997726},{"name":"G#2","midi":44,"time":344.25,"velocity":0.7480314960629921,"duration":0.33749999999997726},{"name":"D2","midi":38,"time":344.25,"velocity":0.7480314960629921,"duration":0.33749999999997726},{"name":"G#2","midi":44,"time":344.625,"velocity":0.7480314960629921,"duration":0.33749999999997726},{"name":"B1","midi":35,"time":345,"velocity":0.7480314960629921,"duration":0.33749999999997726},{"name":"G#2","midi":44,"time":345,"velocity":0.7480314960629921,"duration":0.33749999999997726},{"name":"G2","midi":43,"time":345,"velocity":0.7480314960629921,"duration":0.33749999999997726},{"name":"G#2","midi":44,"time":345.375,"velocity":0.7480314960629921,"duration":0.33749999999997726},{"name":"G#2","midi":44,"time":345.75,"velocity":0.7480314960629921,"duration":0.33749999999997726},{"name":"D2","midi":38,"time":345.75,"velocity":0.7480314960629921,"duration":0.33749999999997726},{"name":"G#2","midi":44,"time":346.125,"velocity":0.7480314960629921,"duration":0.33749999999997726},{"name":"B1","midi":35,"time":346.5,"velocity":0.7480314960629921,"duration":0.33749999999997726},{"name":"G2","midi":43,"time":346.5,"velocity":0.7480314960629921,"duration":0.33749999999997726},{"name":"G#2","midi":44,"time":346.5,"velocity":0.7480314960629921,"duration":0.33749999999997726},{"name":"G2","midi":43,"time":346.875,"velocity":0.7480314960629921,"duration":0.33749999999997726},{"name":"G#2","midi":44,"time":346.875,"velocity":0.7480314960629921,"duration":0.33749999999997726},{"name":"B1","midi":35,"time":346.875,"velocity":0.7480314960629921,"duration":0.33749999999997726},{"name":"D2","midi":38,"time":347.25,"velocity":0.7480314960629921,"duration":0.33749999999997726},{"name":"G#2","midi":44,"time":347.25,"velocity":0.7480314960629921,"duration":0.33749999999997726},{"name":"G#2","midi":44,"time":347.625,"velocity":0.7480314960629921,"duration":0.33749999999997726},{"name":"B1","midi":35,"time":348,"velocity":0.7480314960629921,"duration":0.33749999999997726},{"name":"G#2","midi":44,"time":348,"velocity":0.7480314960629921,"duration":0.33749999999997726},{"name":"G2","midi":43,"time":348,"velocity":0.7480314960629921,"duration":0.33749999999997726},{"name":"G#2","midi":44,"time":348.375,"velocity":0.7480314960629921,"duration":0.33749999999997726},{"name":"D2","midi":38,"time":348.75,"velocity":0.7480314960629921,"duration":0.33749999999997726},{"name":"G#2","midi":44,"time":348.75,"velocity":0.7480314960629921,"duration":0.33749999999997726},{"name":"G#2","midi":44,"time":349.125,"velocity":0.7480314960629921,"duration":0.33749999999997726},{"name":"G#2","midi":44,"time":349.5,"velocity":0.7480314960629921,"duration":0.33749999999997726},{"name":"B1","midi":35,"time":349.5,"velocity":0.7480314960629921,"duration":0.33749999999997726},{"name":"G2","midi":43,"time":349.5,"velocity":0.7480314960629921,"duration":0.33749999999997726},{"name":"G2","midi":43,"time":349.875,"velocity":0.7480314960629921,"duration":0.33749999999997726},{"name":"B1","midi":35,"time":349.875,"velocity":0.7480314960629921,"duration":0.33749999999997726},{"name":"G#2","midi":44,"time":349.875,"velocity":0.7480314960629921,"duration":0.33749999999997726},{"name":"G#2","midi":44,"time":350.25,"velocity":0.7480314960629921,"duration":0.33749999999997726},{"name":"D2","midi":38,"time":350.25,"velocity":0.7480314960629921,"duration":0.33749999999997726},{"name":"G#2","midi":44,"time":350.625,"velocity":0.7480314960629921,"duration":0.33749999999997726},{"name":"G2","midi":43,"time":351,"velocity":0.7480314960629921,"duration":0.33749999999997726},{"name":"G#2","midi":44,"time":351,"velocity":0.7480314960629921,"duration":0.33749999999997726},{"name":"B1","midi":35,"time":351,"velocity":0.7480314960629921,"duration":0.33749999999997726},{"name":"G#2","midi":44,"time":351.375,"velocity":0.7480314960629921,"duration":0.33749999999997726},{"name":"D2","midi":38,"time":351.75,"velocity":0.7480314960629921,"duration":0.33749999999997726},{"name":"G#2","midi":44,"time":351.75,"velocity":0.7480314960629921,"duration":0.33749999999997726},{"name":"G#2","midi":44,"time":352.125,"velocity":0.7480314960629921,"duration":0.33749999999997726},{"name":"B1","midi":35,"time":352.5,"velocity":0.7480314960629921,"duration":0.33749999999997726},{"name":"G#2","midi":44,"time":352.5,"velocity":0.7480314960629921,"duration":0.33749999999997726},{"name":"G2","midi":43,"time":352.5,"velocity":0.7480314960629921,"duration":0.33749999999997726},{"name":"G2","midi":43,"time":352.875,"velocity":0.7480314960629921,"duration":0.33749999999997726},{"name":"G#2","midi":44,"time":352.875,"velocity":0.7480314960629921,"duration":0.33749999999997726},{"name":"B1","midi":35,"time":352.875,"velocity":0.7480314960629921,"duration":0.33749999999997726},{"name":"D2","midi":38,"time":353.25,"velocity":0.7480314960629921,"duration":0.33749999999997726},{"name":"G#2","midi":44,"time":353.25,"velocity":0.7480314960629921,"duration":0.33749999999997726},{"name":"G#2","midi":44,"time":353.625,"velocity":0.7480314960629921,"duration":0.33749999999997726},{"name":"G2","midi":43,"time":354,"velocity":0.7480314960629921,"duration":0.33749999999997726},{"name":"B1","midi":35,"time":354,"velocity":0.7480314960629921,"duration":0.33749999999997726},{"name":"G#2","midi":44,"time":354,"velocity":0.7480314960629921,"duration":0.33749999999997726},{"name":"G#2","midi":44,"time":354.375,"velocity":0.7480314960629921,"duration":0.33749999999997726},{"name":"G#2","midi":44,"time":354.75,"velocity":0.7480314960629921,"duration":0.33749999999997726},{"name":"D2","midi":38,"time":354.75,"velocity":0.7480314960629921,"duration":0.33749999999997726},{"name":"G#2","midi":44,"time":355.125,"velocity":0.7480314960629921,"duration":0.33749999999997726},{"name":"G#2","midi":44,"time":355.5,"velocity":0.7480314960629921,"duration":0.33749999999997726},{"name":"B1","midi":35,"time":355.5,"velocity":0.7480314960629921,"duration":0.33749999999997726},{"name":"G2","midi":43,"time":355.5,"velocity":0.7480314960629921,"duration":0.33749999999997726},{"name":"G2","midi":43,"time":355.875,"velocity":0.7480314960629921,"duration":0.33749999999997726},{"name":"B1","midi":35,"time":355.875,"velocity":0.7480314960629921,"duration":0.33749999999997726},{"name":"G#2","midi":44,"time":355.875,"velocity":0.7480314960629921,"duration":0.33749999999997726},{"name":"G#2","midi":44,"time":356.25,"velocity":0.7480314960629921,"duration":0.33749999999997726},{"name":"D2","midi":38,"time":356.25,"velocity":0.7480314960629921,"duration":0.33749999999997726},{"name":"G#2","midi":44,"time":356.625,"velocity":0.7480314960629921,"duration":0.33749999999997726},{"name":"B1","midi":35,"time":357,"velocity":0.7480314960629921,"duration":0.33749999999997726},{"name":"G2","midi":43,"time":357,"velocity":0.7480314960629921,"duration":0.33749999999997726},{"name":"G#2","midi":44,"time":357,"velocity":0.7480314960629921,"duration":0.33749999999997726},{"name":"G#2","midi":44,"time":357.375,"velocity":0.7480314960629921,"duration":0.33749999999997726},{"name":"G#2","midi":44,"time":357.75,"velocity":0.7480314960629921,"duration":0.33749999999997726},{"name":"D2","midi":38,"time":357.75,"velocity":0.7480314960629921,"duration":0.33749999999997726},{"name":"G#2","midi":44,"time":358.125,"velocity":0.7480314960629921,"duration":0.33749999999997726},{"name":"G#2","midi":44,"time":358.5,"velocity":0.7480314960629921,"duration":0.33749999999997726},{"name":"G2","midi":43,"time":358.5,"velocity":0.7480314960629921,"duration":0.33749999999997726},{"name":"B1","midi":35,"time":358.5,"velocity":0.7480314960629921,"duration":0.33749999999997726},{"name":"G2","midi":43,"time":358.875,"velocity":0.7480314960629921,"duration":0.33749999999997726},{"name":"B1","midi":35,"time":358.875,"velocity":0.7480314960629921,"duration":0.33749999999997726},{"name":"G#2","midi":44,"time":358.875,"velocity":0.7480314960629921,"duration":0.33749999999997726},{"name":"D2","midi":38,"time":359.25,"velocity":0.7480314960629921,"duration":0.33749999999997726},{"name":"G#2","midi":44,"time":359.25,"velocity":0.7480314960629921,"duration":0.33749999999997726},{"name":"G#2","midi":44,"time":359.625,"velocity":0.7480314960629921,"duration":0.33749999999997726},{"name":"G2","midi":43,"time":360,"velocity":0.7480314960629921,"duration":0.33749999999997726},{"name":"B1","midi":35,"time":360,"velocity":0.7480314960629921,"duration":0.33749999999997726},{"name":"G#2","midi":44,"time":360,"velocity":0.7480314960629921,"duration":0.33749999999997726},{"name":"G#2","midi":44,"time":360.375,"velocity":0.7480314960629921,"duration":0.33749999999997726},{"name":"D2","midi":38,"time":360.75,"velocity":0.7480314960629921,"duration":0.33749999999997726},{"name":"G#2","midi":44,"time":360.75,"velocity":0.7480314960629921,"duration":0.33749999999997726},{"name":"G#2","midi":44,"time":361.125,"velocity":0.7480314960629921,"duration":0.33749999999997726},{"name":"G2","midi":43,"time":361.5,"velocity":0.7480314960629921,"duration":0.33749999999997726},{"name":"B1","midi":35,"time":361.5,"velocity":0.7480314960629921,"duration":0.33749999999997726},{"name":"G#2","midi":44,"time":361.5,"velocity":0.7480314960629921,"duration":0.33749999999997726},{"name":"B1","midi":35,"time":361.875,"velocity":0.7480314960629921,"duration":0.33749999999997726},{"name":"G#2","midi":44,"time":361.875,"velocity":0.7480314960629921,"duration":0.33749999999997726},{"name":"G2","midi":43,"time":361.875,"velocity":0.7480314960629921,"duration":0.33749999999997726},{"name":"D2","midi":38,"time":362.25,"velocity":0.7480314960629921,"duration":0.33749999999997726},{"name":"G#2","midi":44,"time":362.25,"velocity":0.7480314960629921,"duration":0.33749999999997726},{"name":"G#2","midi":44,"time":362.625,"velocity":0.7480314960629921,"duration":0.33749999999997726},{"name":"C#3","midi":49,"time":363,"velocity":0.7480314960629921,"duration":0.33749999999997726},{"name":"D#3","midi":51,"time":363,"velocity":0.7480314960629921,"duration":0.33749999999997726},{"name":"G2","midi":43,"time":363,"velocity":0.7480314960629921,"duration":0.33749999999997726},{"name":"B1","midi":35,"time":363,"velocity":0.7480314960629921,"duration":0.33749999999997726},{"name":"D#3","midi":51,"time":363.375,"velocity":0.7480314960629921,"duration":0.33749999999997726},{"name":"D2","midi":38,"time":363.75,"velocity":0.7480314960629921,"duration":0.33749999999997726},{"name":"D#3","midi":51,"time":363.75,"velocity":0.7480314960629921,"duration":0.33749999999997726},{"name":"D#3","midi":51,"time":364.125,"velocity":0.7480314960629921,"duration":0.33749999999997726},{"name":"D#3","midi":51,"time":364.5,"velocity":0.7480314960629921,"duration":0.33749999999997726},{"name":"G2","midi":43,"time":364.5,"velocity":0.7480314960629921,"duration":0.33749999999997726},{"name":"B1","midi":35,"time":364.5,"velocity":0.7480314960629921,"duration":0.33749999999997726},{"name":"D#3","midi":51,"time":364.875,"velocity":0.7480314960629921,"duration":0.33749999999997726},{"name":"B1","midi":35,"time":364.875,"velocity":0.7480314960629921,"duration":0.33749999999997726},{"name":"G2","midi":43,"time":364.875,"velocity":0.7480314960629921,"duration":0.33749999999997726},{"name":"D#3","midi":51,"time":365.25,"velocity":0.7480314960629921,"duration":0.33749999999997726},{"name":"D2","midi":38,"time":365.25,"velocity":0.7480314960629921,"duration":0.33749999999997726},{"name":"D#3","midi":51,"time":365.625,"velocity":0.7480314960629921,"duration":0.33749999999997726},{"name":"G2","midi":43,"time":366,"velocity":0.7480314960629921,"duration":0.33749999999997726},{"name":"B1","midi":35,"time":366,"velocity":0.7480314960629921,"duration":0.33749999999997726},{"name":"D#3","midi":51,"time":366,"velocity":0.7480314960629921,"duration":0.33749999999997726},{"name":"D#3","midi":51,"time":366.375,"velocity":0.7480314960629921,"duration":0.33749999999997726},{"name":"D2","midi":38,"time":366.75,"velocity":0.7480314960629921,"duration":0.33749999999997726},{"name":"D#3","midi":51,"time":366.75,"velocity":0.7480314960629921,"duration":0.33749999999997726},{"name":"D#3","midi":51,"time":367.125,"velocity":0.7480314960629921,"duration":0.33749999999997726},{"name":"D#3","midi":51,"time":367.5,"velocity":0.7480314960629921,"duration":0.33749999999997726},{"name":"G2","midi":43,"time":367.5,"velocity":0.7480314960629921,"duration":0.33749999999997726},{"name":"B1","midi":35,"time":367.5,"velocity":0.7480314960629921,"duration":0.33749999999997726},{"name":"D#3","midi":51,"time":367.875,"velocity":0.7480314960629921,"duration":0.33749999999997726},{"name":"G2","midi":43,"time":367.875,"velocity":0.7480314960629921,"duration":0.33749999999997726},{"name":"B1","midi":35,"time":367.875,"velocity":0.7480314960629921,"duration":0.33749999999997726},{"name":"D2","midi":38,"time":368.25,"velocity":0.7480314960629921,"duration":0.33749999999997726},{"name":"D#3","midi":51,"time":368.25,"velocity":0.7480314960629921,"duration":0.33749999999997726},{"name":"D#3","midi":51,"time":368.625,"velocity":0.7480314960629921,"duration":0.33749999999997726},{"name":"B1","midi":35,"time":369,"velocity":0.7480314960629921,"duration":0.33749999999997726},{"name":"G2","midi":43,"time":369,"velocity":0.7480314960629921,"duration":0.33749999999997726},{"name":"D#3","midi":51,"time":369,"velocity":0.7480314960629921,"duration":0.33749999999997726},{"name":"D#3","midi":51,"time":369.375,"velocity":0.7480314960629921,"duration":0.33749999999997726},{"name":"D2","midi":38,"time":369.75,"velocity":0.7480314960629921,"duration":0.33749999999997726},{"name":"D#3","midi":51,"time":369.75,"velocity":0.7480314960629921,"duration":0.33749999999997726},{"name":"D#3","midi":51,"time":370.125,"velocity":0.7480314960629921,"duration":0.33749999999997726},{"name":"G2","midi":43,"time":370.5,"velocity":0.7480314960629921,"duration":0.33749999999997726},{"name":"B1","midi":35,"time":370.5,"velocity":0.7480314960629921,"duration":0.33749999999997726},{"name":"D#3","midi":51,"time":370.5,"velocity":0.7480314960629921,"duration":0.33749999999997726},{"name":"D#3","midi":51,"time":370.875,"velocity":0.7480314960629921,"duration":0.33749999999997726},{"name":"G2","midi":43,"time":370.875,"velocity":0.7480314960629921,"duration":0.33749999999997726},{"name":"B1","midi":35,"time":370.875,"velocity":0.7480314960629921,"duration":0.33749999999997726},{"name":"D#3","midi":51,"time":371.25,"velocity":0.7480314960629921,"duration":0.33749999999997726},{"name":"D2","midi":38,"time":371.25,"velocity":0.7480314960629921,"duration":0.33749999999997726},{"name":"D#3","midi":51,"time":371.625,"velocity":0.7480314960629921,"duration":0.33749999999997726},{"name":"B1","midi":35,"time":372,"velocity":0.7480314960629921,"duration":0.33749999999997726},{"name":"D#3","midi":51,"time":372,"velocity":0.7480314960629921,"duration":0.33749999999997726},{"name":"G2","midi":43,"time":372,"velocity":0.7480314960629921,"duration":0.33749999999997726},{"name":"D#3","midi":51,"time":372.375,"velocity":0.7480314960629921,"duration":0.33749999999997726},{"name":"D2","midi":38,"time":372.75,"velocity":0.7480314960629921,"duration":0.33749999999997726},{"name":"D#3","midi":51,"time":372.75,"velocity":0.7480314960629921,"duration":0.33749999999997726},{"name":"D#3","midi":51,"time":373.125,"velocity":0.7480314960629921,"duration":0.33749999999997726},{"name":"B1","midi":35,"time":373.5,"velocity":0.7480314960629921,"duration":0.33749999999997726},{"name":"G2","midi":43,"time":373.5,"velocity":0.7480314960629921,"duration":0.33749999999997726},{"name":"D#3","midi":51,"time":373.5,"velocity":0.7480314960629921,"duration":0.33749999999997726},{"name":"D#3","midi":51,"time":373.875,"velocity":0.7480314960629921,"duration":0.33749999999997726},{"name":"G2","midi":43,"time":373.875,"velocity":0.7480314960629921,"duration":0.33749999999997726},{"name":"B1","midi":35,"time":373.875,"velocity":0.7480314960629921,"duration":0.33749999999997726},{"name":"D#3","midi":51,"time":374.25,"velocity":0.7480314960629921,"duration":0.33749999999997726},{"name":"D2","midi":38,"time":374.25,"velocity":0.7480314960629921,"duration":0.33749999999997726},{"name":"D#3","midi":51,"time":374.625,"velocity":0.7480314960629921,"duration":0.33749999999997726},{"name":"D#3","midi":51,"time":375,"velocity":0.7480314960629921,"duration":0.33749999999997726},{"name":"G2","midi":43,"time":375,"velocity":0.7480314960629921,"duration":0.33749999999997726},{"name":"B1","midi":35,"time":375,"velocity":0.7480314960629921,"duration":0.33749999999997726},{"name":"D#3","midi":51,"time":375.375,"velocity":0.7480314960629921,"duration":0.33749999999997726},{"name":"D#3","midi":51,"time":375.75,"velocity":0.7480314960629921,"duration":0.33749999999997726},{"name":"D2","midi":38,"time":375.75,"velocity":0.7480314960629921,"duration":0.33749999999997726},{"name":"D#3","midi":51,"time":376.125,"velocity":0.7480314960629921,"duration":0.33749999999997726},{"name":"G2","midi":43,"time":376.5,"velocity":0.7480314960629921,"duration":0.33749999999997726},{"name":"D#3","midi":51,"time":376.5,"velocity":0.7480314960629921,"duration":0.33749999999997726},{"name":"B1","midi":35,"time":376.5,"velocity":0.7480314960629921,"duration":0.33749999999997726},{"name":"D#3","midi":51,"time":376.875,"velocity":0.7480314960629921,"duration":0.33749999999997726},{"name":"G2","midi":43,"time":376.875,"velocity":0.7480314960629921,"duration":0.33749999999997726},{"name":"B1","midi":35,"time":376.875,"velocity":0.7480314960629921,"duration":0.33749999999997726},{"name":"D#3","midi":51,"time":377.25,"velocity":0.7480314960629921,"duration":0.33749999999997726},{"name":"D2","midi":38,"time":377.25,"velocity":0.7480314960629921,"duration":0.33749999999997726},{"name":"D#3","midi":51,"time":377.625,"velocity":0.7480314960629921,"duration":0.33749999999997726},{"name":"D#3","midi":51,"time":378,"velocity":0.7480314960629921,"duration":0.33749999999997726},{"name":"G2","midi":43,"time":378,"velocity":0.7480314960629921,"duration":0.33749999999997726},{"name":"B1","midi":35,"time":378,"velocity":0.7480314960629921,"duration":0.33749999999997726},{"name":"D#3","midi":51,"time":378.375,"velocity":0.7480314960629921,"duration":0.33749999999997726},{"name":"D#3","midi":51,"time":378.75,"velocity":0.7480314960629921,"duration":0.33749999999997726},{"name":"D2","midi":38,"time":378.75,"velocity":0.7480314960629921,"duration":0.33749999999997726},{"name":"D#3","midi":51,"time":379.125,"velocity":0.7480314960629921,"duration":0.33749999999997726},{"name":"B1","midi":35,"time":379.5,"velocity":0.7480314960629921,"duration":0.33749999999997726},{"name":"G2","midi":43,"time":379.5,"velocity":0.7480314960629921,"duration":0.33749999999997726},{"name":"D#3","midi":51,"time":379.5,"velocity":0.7480314960629921,"duration":0.33749999999997726},{"name":"D#3","midi":51,"time":379.875,"velocity":0.7480314960629921,"duration":0.33749999999997726},{"name":"G2","midi":43,"time":379.875,"velocity":0.7480314960629921,"duration":0.33749999999997726},{"name":"B1","midi":35,"time":379.875,"velocity":0.7480314960629921,"duration":0.33749999999997726},{"name":"D#3","midi":51,"time":380.25,"velocity":0.7480314960629921,"duration":0.33749999999997726},{"name":"D2","midi":38,"time":380.25,"velocity":0.7480314960629921,"duration":0.33749999999997726},{"name":"D#3","midi":51,"time":380.625,"velocity":0.7480314960629921,"duration":0.33749999999997726},{"name":"B1","midi":35,"time":381,"velocity":0.7480314960629921,"duration":0.33749999999997726},{"name":"D#3","midi":51,"time":381,"velocity":0.7480314960629921,"duration":0.33749999999997726},{"name":"G2","midi":43,"time":381,"velocity":0.7480314960629921,"duration":0.33749999999997726},{"name":"D#3","midi":51,"time":381.375,"velocity":0.7480314960629921,"duration":0.33749999999997726},{"name":"D2","midi":38,"time":381.75,"velocity":0.7480314960629921,"duration":0.33749999999997726},{"name":"D#3","midi":51,"time":381.75,"velocity":0.7480314960629921,"duration":0.33749999999997726},{"name":"D#3","midi":51,"time":382.125,"velocity":0.7480314960629921,"duration":0.33749999999997726},{"name":"B1","midi":35,"time":382.5,"velocity":0.7480314960629921,"duration":0.33749999999997726},{"name":"G2","midi":43,"time":382.5,"velocity":0.7480314960629921,"duration":0.33749999999997726},{"name":"D#3","midi":51,"time":382.5,"velocity":0.7480314960629921,"duration":0.33749999999997726},{"name":"B1","midi":35,"time":382.875,"velocity":0.7480314960629921,"duration":0.33749999999997726},{"name":"G2","midi":43,"time":382.875,"velocity":0.7480314960629921,"duration":0.33749999999997726},{"name":"D#3","midi":51,"time":382.875,"velocity":0.7480314960629921,"duration":0.33749999999997726},{"name":"D#3","midi":51,"time":383.25,"velocity":0.7480314960629921,"duration":0.33749999999997726},{"name":"D2","midi":38,"time":383.25,"velocity":0.7480314960629921,"duration":0.33749999999997726},{"name":"D#3","midi":51,"time":383.625,"velocity":0.7480314960629921,"duration":0.33749999999997726},{"name":"G2","midi":43,"time":384,"velocity":0.7480314960629921,"duration":0.33749999999997726},{"name":"B1","midi":35,"time":384,"velocity":0.7480314960629921,"duration":0.33749999999997726},{"name":"D#3","midi":51,"time":384,"velocity":0.7480314960629921,"duration":0.33749999999997726},{"name":"D#3","midi":51,"time":384.375,"velocity":0.7480314960629921,"duration":0.33749999999997726},{"name":"D2","midi":38,"time":384.75,"velocity":0.7480314960629921,"duration":0.33749999999997726},{"name":"D#3","midi":51,"time":384.75,"velocity":0.7480314960629921,"duration":0.33749999999997726},{"name":"D#3","midi":51,"time":385.125,"velocity":0.7480314960629921,"duration":0.33749999999997726},{"name":"B1","midi":35,"time":385.5,"velocity":0.7480314960629921,"duration":0.33749999999997726},{"name":"D#3","midi":51,"time":385.5,"velocity":0.7480314960629921,"duration":0.33749999999997726},{"name":"G2","midi":43,"time":385.5,"velocity":0.7480314960629921,"duration":0.33749999999997726},{"name":"B1","midi":35,"time":385.875,"velocity":0.7480314960629921,"duration":0.33749999999997726},{"name":"G2","midi":43,"time":385.875,"velocity":0.7480314960629921,"duration":0.33749999999997726},{"name":"D#3","midi":51,"time":385.875,"velocity":0.7480314960629921,"duration":0.33749999999997726},{"name":"D#3","midi":51,"time":386.25,"velocity":0.7480314960629921,"duration":0.33749999999997726},{"name":"D2","midi":38,"time":386.25,"velocity":0.7480314960629921,"duration":0.33749999999997726},{"name":"D#3","midi":51,"time":386.625,"velocity":0.7480314960629921,"duration":0.33749999999997726},{"name":"D#3","midi":51,"time":387,"velocity":0.7480314960629921,"duration":0.33749999999997726},{"name":"B1","midi":35,"time":387,"velocity":0.7480314960629921,"duration":0.33749999999997726},{"name":"G2","midi":43,"time":387,"velocity":0.7480314960629921,"duration":0.33749999999997726},{"name":"D#3","midi":51,"time":387.375,"velocity":0.7480314960629921,"duration":0.33749999999997726},{"name":"D#3","midi":51,"time":387.75,"velocity":0.7480314960629921,"duration":0.33749999999997726},{"name":"D2","midi":38,"time":387.75,"velocity":0.7480314960629921,"duration":0.33749999999997726},{"name":"D#3","midi":51,"time":388.125,"velocity":0.7480314960629921,"duration":0.33749999999997726},{"name":"B1","midi":35,"time":388.5,"velocity":0.7480314960629921,"duration":0.33749999999997726},{"name":"D#3","midi":51,"time":388.5,"velocity":0.7480314960629921,"duration":0.33749999999997726},{"name":"G2","midi":43,"time":388.5,"velocity":0.7480314960629921,"duration":0.33749999999997726},{"name":"D#3","midi":51,"time":388.875,"velocity":0.7480314960629921,"duration":0.33749999999997726},{"name":"G2","midi":43,"time":388.875,"velocity":0.7480314960629921,"duration":0.33749999999997726},{"name":"B1","midi":35,"time":388.875,"velocity":0.7480314960629921,"duration":0.33749999999997726},{"name":"D2","midi":38,"time":389.25,"velocity":0.7480314960629921,"duration":0.33749999999997726},{"name":"D#3","midi":51,"time":389.25,"velocity":0.7480314960629921,"duration":0.33749999999997726},{"name":"D#3","midi":51,"time":389.625,"velocity":0.7480314960629921,"duration":0.33749999999997726},{"name":"B1","midi":35,"time":390,"velocity":0.7480314960629921,"duration":0.33749999999997726},{"name":"G2","midi":43,"time":390,"velocity":0.7480314960629921,"duration":0.33749999999997726},{"name":"D#3","midi":51,"time":390,"velocity":0.7480314960629921,"duration":0.33749999999997726},{"name":"D#3","midi":51,"time":390.375,"velocity":0.7480314960629921,"duration":0.33749999999997726},{"name":"D2","midi":38,"time":390.75,"velocity":0.7480314960629921,"duration":0.33749999999997726},{"name":"D#3","midi":51,"time":390.75,"velocity":0.7480314960629921,"duration":0.33749999999997726},{"name":"D#3","midi":51,"time":391.125,"velocity":0.7480314960629921,"duration":0.33749999999997726},{"name":"D#3","midi":51,"time":391.5,"velocity":0.7480314960629921,"duration":0.33749999999997726},{"name":"G2","midi":43,"time":391.5,"velocity":0.7480314960629921,"duration":0.33749999999997726},{"name":"B1","midi":35,"time":391.5,"velocity":0.7480314960629921,"duration":0.33749999999997726},{"name":"B1","midi":35,"time":391.875,"velocity":0.7480314960629921,"duration":0.33749999999997726},{"name":"D#3","midi":51,"time":391.875,"velocity":0.7480314960629921,"duration":0.33749999999997726},{"name":"G2","midi":43,"time":391.875,"velocity":0.7480314960629921,"duration":0.33749999999997726},{"name":"D2","midi":38,"time":392.25,"velocity":0.7480314960629921,"duration":0.33749999999997726},{"name":"D#3","midi":51,"time":392.25,"velocity":0.7480314960629921,"duration":0.33749999999997726},{"name":"D#3","midi":51,"time":392.625,"velocity":0.7480314960629921,"duration":0.33749999999997726},{"name":"B1","midi":35,"time":393,"velocity":0.7480314960629921,"duration":0.33749999999997726},{"name":"G2","midi":43,"time":393,"velocity":0.7480314960629921,"duration":0.33749999999997726},{"name":"D#3","midi":51,"time":393,"velocity":0.7480314960629921,"duration":0.33749999999997726},{"name":"D#3","midi":51,"time":393.375,"velocity":0.7480314960629921,"duration":0.33749999999997726},{"name":"D2","midi":38,"time":393.75,"velocity":0.7480314960629921,"duration":0.33749999999997726},{"name":"D#3","midi":51,"time":393.75,"velocity":0.7480314960629921,"duration":0.33749999999997726},{"name":"D#3","midi":51,"time":394.125,"velocity":0.7480314960629921,"duration":0.33749999999997726},{"name":"B1","midi":35,"time":394.5,"velocity":0.7480314960629921,"duration":0.33749999999997726},{"name":"D#3","midi":51,"time":394.5,"velocity":0.7480314960629921,"duration":0.33749999999997726},{"name":"G2","midi":43,"time":394.5,"velocity":0.7480314960629921,"duration":0.33749999999997726},{"name":"B1","midi":35,"time":394.875,"velocity":0.7480314960629921,"duration":0.33749999999997726},{"name":"D#3","midi":51,"time":394.875,"velocity":0.7480314960629921,"duration":0.33749999999997726},{"name":"G2","midi":43,"time":394.875,"velocity":0.7480314960629921,"duration":0.33749999999997726},{"name":"D2","midi":38,"time":395.25,"velocity":0.7480314960629921,"duration":0.33749999999997726},{"name":"D#3","midi":51,"time":395.25,"velocity":0.7480314960629921,"duration":0.33749999999997726},{"name":"D#3","midi":51,"time":395.625,"velocity":0.7480314960629921,"duration":0.33749999999997726},{"name":"B1","midi":35,"time":396,"velocity":0.7480314960629921,"duration":0.33749999999997726},{"name":"D#3","midi":51,"time":396,"velocity":0.7480314960629921,"duration":0.33749999999997726},{"name":"G2","midi":43,"time":396,"velocity":0.7480314960629921,"duration":0.33749999999997726},{"name":"D#3","midi":51,"time":396.375,"velocity":0.7480314960629921,"duration":0.33749999999997726},{"name":"D2","midi":38,"time":396.75,"velocity":0.7480314960629921,"duration":0.33749999999997726},{"name":"D#3","midi":51,"time":396.75,"velocity":0.7480314960629921,"duration":0.33749999999997726},{"name":"D#3","midi":51,"time":397.125,"velocity":0.7480314960629921,"duration":0.33749999999997726},{"name":"B1","midi":35,"time":397.5,"velocity":0.7480314960629921,"duration":0.33749999999997726},{"name":"G2","midi":43,"time":397.5,"velocity":0.7480314960629921,"duration":0.33749999999997726},{"name":"D#3","midi":51,"time":397.5,"velocity":0.7480314960629921,"duration":0.33749999999997726},{"name":"D#3","midi":51,"time":397.875,"velocity":0.7480314960629921,"duration":0.33749999999997726},{"name":"G2","midi":43,"time":397.875,"velocity":0.7480314960629921,"duration":0.33749999999997726},{"name":"B1","midi":35,"time":397.875,"velocity":0.7480314960629921,"duration":0.33749999999997726},{"name":"D2","midi":38,"time":398.25,"velocity":0.7480314960629921,"duration":0.33749999999997726},{"name":"D#3","midi":51,"time":398.25,"velocity":0.7480314960629921,"duration":0.33749999999997726},{"name":"D#3","midi":51,"time":398.625,"velocity":0.7480314960629921,"duration":0.33749999999997726},{"name":"D#3","midi":51,"time":399,"velocity":0.7480314960629921,"duration":0.33749999999997726},{"name":"G2","midi":43,"time":399,"velocity":0.7480314960629921,"duration":0.33749999999997726},{"name":"B1","midi":35,"time":399,"velocity":0.7480314960629921,"duration":0.33749999999997726},{"name":"D#3","midi":51,"time":399.375,"velocity":0.7480314960629921,"duration":0.33749999999997726},{"name":"D2","midi":38,"time":399.75,"velocity":0.7480314960629921,"duration":0.33749999999997726},{"name":"D#3","midi":51,"time":399.75,"velocity":0.7480314960629921,"duration":0.33749999999997726},{"name":"D#3","midi":51,"time":400.125,"velocity":0.7480314960629921,"duration":0.33749999999997726},{"name":"B1","midi":35,"time":400.5,"velocity":0.7480314960629921,"duration":0.33749999999997726},{"name":"G2","midi":43,"time":400.5,"velocity":0.7480314960629921,"duration":0.33749999999997726},{"name":"D#3","midi":51,"time":400.5,"velocity":0.7480314960629921,"duration":0.33749999999997726},{"name":"B1","midi":35,"time":400.875,"velocity":0.7480314960629921,"duration":0.33749999999997726},{"name":"G2","midi":43,"time":400.875,"velocity":0.7480314960629921,"duration":0.33749999999997726},{"name":"D#3","midi":51,"time":400.875,"velocity":0.7480314960629921,"duration":0.33749999999997726},{"name":"D2","midi":38,"time":401.25,"velocity":0.7480314960629921,"duration":0.33749999999997726},{"name":"D#3","midi":51,"time":401.25,"velocity":0.7480314960629921,"duration":0.33749999999997726},{"name":"D#3","midi":51,"time":401.625,"velocity":0.7480314960629921,"duration":0.33749999999997726},{"name":"B1","midi":35,"time":402,"velocity":0.7480314960629921,"duration":0.33749999999997726},{"name":"G2","midi":43,"time":402,"velocity":0.7480314960629921,"duration":0.33749999999997726},{"name":"D#3","midi":51,"time":402,"velocity":0.7480314960629921,"duration":0.33749999999997726},{"name":"D#3","midi":51,"time":402.375,"velocity":0.7480314960629921,"duration":0.33749999999997726},{"name":"D2","midi":38,"time":402.75,"velocity":0.7480314960629921,"duration":0.33749999999997726},{"name":"D#3","midi":51,"time":402.75,"velocity":0.7480314960629921,"duration":0.33749999999997726},{"name":"D#3","midi":51,"time":403.125,"velocity":0.7480314960629921,"duration":0.33749999999997726},{"name":"D#3","midi":51,"time":403.5,"velocity":0.7480314960629921,"duration":0.33749999999997726},{"name":"G2","midi":43,"time":403.5,"velocity":0.7480314960629921,"duration":0.33749999999997726},{"name":"B1","midi":35,"time":403.5,"velocity":0.7480314960629921,"duration":0.33749999999997726},{"name":"B1","midi":35,"time":403.875,"velocity":0.7480314960629921,"duration":0.33749999999997726},{"name":"G2","midi":43,"time":403.875,"velocity":0.7480314960629921,"duration":0.33749999999997726},{"name":"D#3","midi":51,"time":403.875,"velocity":0.7480314960629921,"duration":0.33749999999997726},{"name":"D2","midi":38,"time":404.25,"velocity":0.7480314960629921,"duration":0.33749999999997726},{"name":"D#3","midi":51,"time":404.25,"velocity":0.7480314960629921,"duration":0.33749999999997726},{"name":"D#3","midi":51,"time":404.625,"velocity":0.7480314960629921,"duration":0.33749999999997726},{"name":"B1","midi":35,"time":405,"velocity":0.7480314960629921,"duration":0.33749999999997726},{"name":"G2","midi":43,"time":405,"velocity":0.7480314960629921,"duration":0.33749999999997726},{"name":"D#3","midi":51,"time":405,"velocity":0.7480314960629921,"duration":0.33749999999997726},{"name":"D#3","midi":51,"time":405.375,"velocity":0.7480314960629921,"duration":0.33749999999997726},{"name":"D#3","midi":51,"time":405.75,"velocity":0.7480314960629921,"duration":0.33749999999997726},{"name":"D2","midi":38,"time":405.75,"velocity":0.7480314960629921,"duration":0.33749999999997726},{"name":"D#3","midi":51,"time":406.125,"velocity":0.7480314960629921,"duration":0.33749999999997726},{"name":"B1","midi":35,"time":406.5,"velocity":0.7480314960629921,"duration":0.33749999999997726},{"name":"D#3","midi":51,"time":406.5,"velocity":0.7480314960629921,"duration":0.33749999999997726},{"name":"G2","midi":43,"time":406.5,"velocity":0.7480314960629921,"duration":0.33749999999997726},{"name":"D#3","midi":51,"time":406.875,"velocity":0.7480314960629921,"duration":0.33749999999997726},{"name":"G2","midi":43,"time":406.875,"velocity":0.7480314960629921,"duration":0.33749999999997726},{"name":"B1","midi":35,"time":406.875,"velocity":0.7480314960629921,"duration":0.33749999999997726},{"name":"D#3","midi":51,"time":407.25,"velocity":0.7480314960629921,"duration":0.33749999999997726},{"name":"D2","midi":38,"time":407.25,"velocity":0.7480314960629921,"duration":0.33749999999997726},{"name":"D#3","midi":51,"time":407.625,"velocity":0.7480314960629921,"duration":0.33749999999997726},{"name":"G2","midi":43,"time":408,"velocity":0.7480314960629921,"duration":0.33749999999997726},{"name":"B1","midi":35,"time":408,"velocity":0.7480314960629921,"duration":0.33749999999997726},{"name":"D#3","midi":51,"time":408,"velocity":0.7480314960629921,"duration":0.33749999999997726},{"name":"D#3","midi":51,"time":408.375,"velocity":0.7480314960629921,"duration":0.33749999999997726},{"name":"D#3","midi":51,"time":408.75,"velocity":0.7480314960629921,"duration":0.33749999999997726},{"name":"D2","midi":38,"time":408.75,"velocity":0.7480314960629921,"duration":0.33749999999997726},{"name":"D#3","midi":51,"time":409.125,"velocity":0.7480314960629921,"duration":0.33749999999997726},{"name":"B1","midi":35,"time":409.5,"velocity":0.7480314960629921,"duration":0.33749999999997726},{"name":"G2","midi":43,"time":409.5,"velocity":0.7480314960629921,"duration":0.33749999999997726},{"name":"D#3","midi":51,"time":409.5,"velocity":0.7480314960629921,"duration":0.33749999999997726},{"name":"B1","midi":35,"time":409.875,"velocity":0.7480314960629921,"duration":0.33749999999997726},{"name":"G2","midi":43,"time":409.875,"velocity":0.7480314960629921,"duration":0.33749999999997726},{"name":"D#3","midi":51,"time":409.875,"velocity":0.7480314960629921,"duration":0.33749999999997726},{"name":"D#3","midi":51,"time":410.25,"velocity":0.7480314960629921,"duration":0.33749999999997726},{"name":"D2","midi":38,"time":410.25,"velocity":0.7480314960629921,"duration":0.33749999999997726},{"name":"D#3","midi":51,"time":410.625,"velocity":0.7480314960629921,"duration":0.33749999999997726},{"name":"B1","midi":35,"time":411,"velocity":0.7480314960629921,"duration":0.33749999999997726},{"name":"G2","midi":43,"time":411,"velocity":0.7480314960629921,"duration":0.33749999999997726},{"name":"D#3","midi":51,"time":411,"velocity":0.7480314960629921,"duration":0.33749999999997726},{"name":"D#3","midi":51,"time":411.375,"velocity":0.7480314960629921,"duration":0.33749999999997726},{"name":"D2","midi":38,"time":411.75,"velocity":0.7480314960629921,"duration":0.33749999999997726},{"name":"D#3","midi":51,"time":411.75,"velocity":0.7480314960629921,"duration":0.33749999999997726},{"name":"D#3","midi":51,"time":412.125,"velocity":0.7480314960629921,"duration":0.33749999999997726},{"name":"G2","midi":43,"time":412.5,"velocity":0.7480314960629921,"duration":0.33749999999997726},{"name":"B1","midi":35,"time":412.5,"velocity":0.7480314960629921,"duration":0.33749999999997726},{"name":"D#3","midi":51,"time":412.5,"velocity":0.7480314960629921,"duration":0.33749999999997726},{"name":"B1","midi":35,"time":412.875,"velocity":0.7480314960629921,"duration":0.33749999999997726},{"name":"G2","midi":43,"time":412.875,"velocity":0.7480314960629921,"duration":0.33749999999997726},{"name":"D#3","midi":51,"time":412.875,"velocity":0.7480314960629921,"duration":0.33749999999997726},{"name":"D#3","midi":51,"time":413.25,"velocity":0.7480314960629921,"duration":0.33749999999997726},{"name":"D2","midi":38,"time":413.25,"velocity":0.7480314960629921,"duration":0.33749999999997726},{"name":"D#3","midi":51,"time":413.625,"velocity":0.7480314960629921,"duration":0.33749999999997726},{"name":"B1","midi":35,"time":414,"velocity":0.7480314960629921,"duration":0.33749999999997726},{"name":"G2","midi":43,"time":414,"velocity":0.7480314960629921,"duration":0.33749999999997726},{"name":"D#3","midi":51,"time":414,"velocity":0.7480314960629921,"duration":0.33749999999997726},{"name":"D#3","midi":51,"time":414.375,"velocity":0.7480314960629921,"duration":0.33749999999997726},{"name":"D#3","midi":51,"time":414.75,"velocity":0.7480314960629921,"duration":0.33749999999997726},{"name":"D2","midi":38,"time":414.75,"velocity":0.7480314960629921,"duration":0.33749999999997726},{"name":"D#3","midi":51,"time":415.125,"velocity":0.7480314960629921,"duration":0.33749999999997726},{"name":"B1","midi":35,"time":415.5,"velocity":0.7480314960629921,"duration":0.33749999999997726},{"name":"G2","midi":43,"time":415.5,"velocity":0.7480314960629921,"duration":0.33749999999997726},{"name":"D#3","midi":51,"time":415.5,"velocity":0.7480314960629921,"duration":0.33749999999997726},{"name":"D#3","midi":51,"time":415.875,"velocity":0.7480314960629921,"duration":0.33749999999997726},{"name":"G2","midi":43,"time":415.875,"velocity":0.7480314960629921,"duration":0.33749999999997726},{"name":"B1","midi":35,"time":415.875,"velocity":0.7480314960629921,"duration":0.33749999999997726},{"name":"D#3","midi":51,"time":416.25,"velocity":0.7480314960629921,"duration":0.33749999999997726},{"name":"D2","midi":38,"time":416.25,"velocity":0.7480314960629921,"duration":0.33749999999997726},{"name":"D#3","midi":51,"time":416.625,"velocity":0.7480314960629921,"duration":0.33749999999997726},{"name":"B1","midi":35,"time":417,"velocity":0.7480314960629921,"duration":0.33749999999997726},{"name":"G2","midi":43,"time":417,"velocity":0.7480314960629921,"duration":0.33749999999997726},{"name":"D#3","midi":51,"time":417,"velocity":0.7480314960629921,"duration":0.33749999999997726},{"name":"D#3","midi":51,"time":417.375,"velocity":0.7480314960629921,"duration":0.33749999999997726},{"name":"D2","midi":38,"time":417.75,"velocity":0.7480314960629921,"duration":0.33749999999997726},{"name":"D#3","midi":51,"time":417.75,"velocity":0.7480314960629921,"duration":0.33749999999997726},{"name":"D#3","midi":51,"time":418.125,"velocity":0.7480314960629921,"duration":0.33749999999997726},{"name":"D#3","midi":51,"time":418.5,"velocity":0.7480314960629921,"duration":0.33749999999997726},{"name":"G2","midi":43,"time":418.5,"velocity":0.7480314960629921,"duration":0.33749999999997726},{"name":"B1","midi":35,"time":418.5,"velocity":0.7480314960629921,"duration":0.33749999999997726},{"name":"D#3","midi":51,"time":418.875,"velocity":0.7480314960629921,"duration":0.33749999999997726},{"name":"B1","midi":35,"time":418.875,"velocity":0.7480314960629921,"duration":0.33749999999997726},{"name":"G2","midi":43,"time":418.875,"velocity":0.7480314960629921,"duration":0.33749999999997726},{"name":"D#3","midi":51,"time":419.25,"velocity":0.7480314960629921,"duration":0.33749999999997726},{"name":"D2","midi":38,"time":419.25,"velocity":0.7480314960629921,"duration":0.33749999999997726},{"name":"D#3","midi":51,"time":419.625,"velocity":0.7480314960629921,"duration":0.33749999999997726},{"name":"D#3","midi":51,"time":420,"velocity":0.7480314960629921,"duration":0.33749999999997726},{"name":"G2","midi":43,"time":420,"velocity":0.7480314960629921,"duration":0.33749999999997726},{"name":"B1","midi":35,"time":420,"velocity":0.7480314960629921,"duration":0.33749999999997726},{"name":"D#3","midi":51,"time":420.375,"velocity":0.7480314960629921,"duration":0.33749999999997726},{"name":"D#3","midi":51,"time":420.75,"velocity":0.7480314960629921,"duration":0.33749999999997726},{"name":"D2","midi":38,"time":420.75,"velocity":0.7480314960629921,"duration":0.33749999999997726},{"name":"D#3","midi":51,"time":421.125,"velocity":0.7480314960629921,"duration":0.33749999999997726},{"name":"B1","midi":35,"time":421.5,"velocity":0.7480314960629921,"duration":0.33749999999997726},{"name":"G2","midi":43,"time":421.5,"velocity":0.7480314960629921,"duration":0.33749999999997726},{"name":"D#3","midi":51,"time":421.5,"velocity":0.7480314960629921,"duration":0.33749999999997726},{"name":"D#3","midi":51,"time":421.875,"velocity":0.7480314960629921,"duration":0.33749999999997726},{"name":"G2","midi":43,"time":421.875,"velocity":0.7480314960629921,"duration":0.33749999999997726},{"name":"B1","midi":35,"time":421.875,"velocity":0.7480314960629921,"duration":0.33749999999997726},{"name":"D#3","midi":51,"time":422.25,"velocity":0.7480314960629921,"duration":0.33749999999997726},{"name":"D2","midi":38,"time":422.25,"velocity":0.7480314960629921,"duration":0.33749999999997726},{"name":"D#3","midi":51,"time":422.625,"velocity":0.7480314960629921,"duration":0.33749999999997726},{"name":"G2","midi":43,"time":423,"velocity":0.7480314960629921,"duration":0.33749999999997726},{"name":"D#3","midi":51,"time":423,"velocity":0.7480314960629921,"duration":0.33749999999997726},{"name":"B1","midi":35,"time":423,"velocity":0.7480314960629921,"duration":0.33749999999997726},{"name":"D#3","midi":51,"time":423.375,"velocity":0.7480314960629921,"duration":0.33749999999997726},{"name":"D2","midi":38,"time":423.75,"velocity":0.7480314960629921,"duration":0.33749999999997726},{"name":"D#3","midi":51,"time":423.75,"velocity":0.7480314960629921,"duration":0.33749999999997726},{"name":"D#3","midi":51,"time":424.125,"velocity":0.7480314960629921,"duration":0.33749999999997726},{"name":"B1","midi":35,"time":424.5,"velocity":0.7480314960629921,"duration":0.33749999999997726},{"name":"G2","midi":43,"time":424.5,"velocity":0.7480314960629921,"duration":0.33749999999997726},{"name":"D#3","midi":51,"time":424.5,"velocity":0.7480314960629921,"duration":0.33749999999997726},{"name":"G2","midi":43,"time":424.875,"velocity":0.7480314960629921,"duration":0.33749999999997726},{"name":"D#3","midi":51,"time":424.875,"velocity":0.7480314960629921,"duration":0.33749999999997726},{"name":"B1","midi":35,"time":424.875,"velocity":0.7480314960629921,"duration":0.33749999999997726},{"name":"D2","midi":38,"time":425.25,"velocity":0.7480314960629921,"duration":0.33749999999997726},{"name":"D#3","midi":51,"time":425.25,"velocity":0.7480314960629921,"duration":0.33749999999997726},{"name":"D#3","midi":51,"time":425.625,"velocity":0.7480314960629921,"duration":0.33749999999997726},{"name":"G2","midi":43,"time":426,"velocity":0.7480314960629921,"duration":0.33749999999997726},{"name":"B1","midi":35,"time":426,"velocity":0.7480314960629921,"duration":0.33749999999997726},{"name":"D#3","midi":51,"time":426,"velocity":0.7480314960629921,"duration":0.33749999999997726},{"name":"D#3","midi":51,"time":426.375,"velocity":0.7480314960629921,"duration":0.33749999999997726},{"name":"D#3","midi":51,"time":426.75,"velocity":0.7480314960629921,"duration":0.33749999999997726},{"name":"D2","midi":38,"time":426.75,"velocity":0.7480314960629921,"duration":0.33749999999997726},{"name":"D#3","midi":51,"time":427.125,"velocity":0.7480314960629921,"duration":0.33749999999997726},{"name":"D#3","midi":51,"time":427.5,"velocity":0.7480314960629921,"duration":0.33749999999997726},{"name":"G2","midi":43,"time":427.5,"velocity":0.7480314960629921,"duration":0.33749999999997726},{"name":"B1","midi":35,"time":427.5,"velocity":0.7480314960629921,"duration":0.33749999999997726},{"name":"B1","midi":35,"time":427.875,"velocity":0.7480314960629921,"duration":0.33749999999997726},{"name":"G2","midi":43,"time":427.875,"velocity":0.7480314960629921,"duration":0.33749999999997726},{"name":"D#3","midi":51,"time":427.875,"velocity":0.7480314960629921,"duration":0.33749999999997726},{"name":"D2","midi":38,"time":428.25,"velocity":0.7480314960629921,"duration":0.33749999999997726},{"name":"D#3","midi":51,"time":428.25,"velocity":0.7480314960629921,"duration":0.33749999999997726},{"name":"D#3","midi":51,"time":428.625,"velocity":0.7480314960629921,"duration":0.33749999999997726},{"name":"D#3","midi":51,"time":429,"velocity":0.7480314960629921,"duration":0.33749999999997726},{"name":"G2","midi":43,"time":429,"velocity":0.7480314960629921,"duration":0.33749999999997726},{"name":"B1","midi":35,"time":429,"velocity":0.7480314960629921,"duration":0.33749999999997726},{"name":"D#3","midi":51,"time":429.375,"velocity":0.7480314960629921,"duration":0.33749999999997726},{"name":"D#3","midi":51,"time":429.75,"velocity":0.7480314960629921,"duration":0.33749999999997726},{"name":"D2","midi":38,"time":429.75,"velocity":0.7480314960629921,"duration":0.33749999999997726},{"name":"D#3","midi":51,"time":430.125,"velocity":0.7480314960629921,"duration":0.33749999999997726},{"name":"D#3","midi":51,"time":430.5,"velocity":0.7480314960629921,"duration":0.33749999999997726},{"name":"B1","midi":35,"time":430.5,"velocity":0.7480314960629921,"duration":0.33749999999997726},{"name":"G2","midi":43,"time":430.5,"velocity":0.7480314960629921,"duration":0.33749999999997726},{"name":"B1","midi":35,"time":430.875,"velocity":0.7480314960629921,"duration":0.33749999999997726},{"name":"G2","midi":43,"time":430.875,"velocity":0.7480314960629921,"duration":0.33749999999997726},{"name":"D#3","midi":51,"time":430.875,"velocity":0.7480314960629921,"duration":0.33749999999997726},{"name":"D2","midi":38,"time":431.25,"velocity":0.7480314960629921,"duration":0.33749999999997726},{"name":"D#3","midi":51,"time":431.25,"velocity":0.7480314960629921,"duration":0.33749999999997726},{"name":"D#3","midi":51,"time":431.625,"velocity":0.7480314960629921,"duration":0.33749999999997726},{"name":"B1","midi":35,"time":432,"velocity":0.7480314960629921,"duration":0.33749999999997726},{"name":"D#3","midi":51,"time":432,"velocity":0.7480314960629921,"duration":0.33749999999997726},{"name":"G2","midi":43,"time":432,"velocity":0.7480314960629921,"duration":0.33749999999997726},{"name":"D#3","midi":51,"time":432.375,"velocity":0.7480314960629921,"duration":0.33749999999997726},{"name":"D#3","midi":51,"time":432.75,"velocity":0.7480314960629921,"duration":0.33749999999997726},{"name":"D2","midi":38,"time":432.75,"velocity":0.7480314960629921,"duration":0.33749999999997726},{"name":"D#3","midi":51,"time":433.125,"velocity":0.7480314960629921,"duration":0.33749999999997726},{"name":"D#3","midi":51,"time":433.5,"velocity":0.7480314960629921,"duration":0.33749999999997726},{"name":"B1","midi":35,"time":433.5,"velocity":0.7480314960629921,"duration":0.33749999999997726},{"name":"G2","midi":43,"time":433.5,"velocity":0.7480314960629921,"duration":0.33749999999997726},{"name":"D#3","midi":51,"time":433.875,"velocity":0.7480314960629921,"duration":0.33749999999997726},{"name":"B1","midi":35,"time":433.875,"velocity":0.7480314960629921,"duration":0.33749999999997726},{"name":"G2","midi":43,"time":433.875,"velocity":0.7480314960629921,"duration":0.33749999999997726},{"name":"D2","midi":38,"time":434.25,"velocity":0.7480314960629921,"duration":0.33749999999997726},{"name":"D#3","midi":51,"time":434.25,"velocity":0.7480314960629921,"duration":0.33749999999997726},{"name":"D#3","midi":51,"time":434.625,"velocity":0.7480314960629921,"duration":0.33749999999997726},{"name":"B1","midi":35,"time":435,"velocity":0.7480314960629921,"duration":0.33749999999997726},{"name":"G2","midi":43,"time":435,"velocity":0.7480314960629921,"duration":0.33749999999997726},{"name":"D#3","midi":51,"time":435,"velocity":0.7480314960629921,"duration":0.33749999999997726},{"name":"D#3","midi":51,"time":435.375,"velocity":0.7480314960629921,"duration":0.33749999999997726},{"name":"D#3","midi":51,"time":435.75,"velocity":0.7480314960629921,"duration":0.33749999999997726},{"name":"D2","midi":38,"time":435.75,"velocity":0.7480314960629921,"duration":0.33749999999997726},{"name":"D#3","midi":51,"time":436.125,"velocity":0.7480314960629921,"duration":0.33749999999997726},{"name":"D#3","midi":51,"time":436.5,"velocity":0.7480314960629921,"duration":0.33749999999997726},{"name":"G2","midi":43,"time":436.5,"velocity":0.7480314960629921,"duration":0.33749999999997726},{"name":"B1","midi":35,"time":436.5,"velocity":0.7480314960629921,"duration":0.33749999999997726},{"name":"G2","midi":43,"time":436.875,"velocity":0.7480314960629921,"duration":0.33749999999997726},{"name":"D#3","midi":51,"time":436.875,"velocity":0.7480314960629921,"duration":0.33749999999997726},{"name":"B1","midi":35,"time":436.875,"velocity":0.7480314960629921,"duration":0.33749999999997726},{"name":"D#3","midi":51,"time":437.25,"velocity":0.7480314960629921,"duration":0.33749999999997726},{"name":"D2","midi":38,"time":437.25,"velocity":0.7480314960629921,"duration":0.33749999999997726},{"name":"D#3","midi":51,"time":437.625,"velocity":0.7480314960629921,"duration":0.33749999999997726},{"name":"D#3","midi":51,"time":438,"velocity":0.7480314960629921,"duration":0.33749999999997726},{"name":"G2","midi":43,"time":438,"velocity":0.7480314960629921,"duration":0.33749999999997726},{"name":"B1","midi":35,"time":438,"velocity":0.7480314960629921,"duration":0.33749999999997726},{"name":"D#3","midi":51,"time":438.375,"velocity":0.7480314960629921,"duration":0.33749999999997726},{"name":"D2","midi":38,"time":438.75,"velocity":0.7480314960629921,"duration":0.33749999999997726},{"name":"D#3","midi":51,"time":438.75,"velocity":0.7480314960629921,"duration":0.33749999999997726},{"name":"D#3","midi":51,"time":439.125,"velocity":0.7480314960629921,"duration":0.33749999999997726},{"name":"B1","midi":35,"time":439.5,"velocity":0.7480314960629921,"duration":0.33749999999997726},{"name":"G2","midi":43,"time":439.5,"velocity":0.7480314960629921,"duration":0.33749999999997726},{"name":"D#3","midi":51,"time":439.5,"velocity":0.7480314960629921,"duration":0.33749999999997726},{"name":"D#3","midi":51,"time":439.875,"velocity":0.7480314960629921,"duration":0.33749999999997726},{"name":"B1","midi":35,"time":439.875,"velocity":0.7480314960629921,"duration":0.33749999999997726},{"name":"G2","midi":43,"time":439.875,"velocity":0.7480314960629921,"duration":0.33749999999997726},{"name":"D2","midi":38,"time":440.25,"velocity":0.7480314960629921,"duration":0.33749999999997726},{"name":"D#3","midi":51,"time":440.25,"velocity":0.7480314960629921,"duration":0.33749999999997726},{"name":"D#3","midi":51,"time":440.625,"velocity":0.7480314960629921,"duration":0.33749999999997726},{"name":"B1","midi":35,"time":441,"velocity":0.7480314960629921,"duration":0.33749999999997726},{"name":"D#3","midi":51,"time":441,"velocity":0.7480314960629921,"duration":0.33749999999997726},{"name":"G2","midi":43,"time":441,"velocity":0.7480314960629921,"duration":0.33749999999997726},{"name":"D#3","midi":51,"time":441.375,"velocity":0.7480314960629921,"duration":0.33749999999997726},{"name":"D2","midi":38,"time":441.75,"velocity":0.7480314960629921,"duration":0.33749999999997726},{"name":"D#3","midi":51,"time":441.75,"velocity":0.7480314960629921,"duration":0.33749999999997726},{"name":"D#3","midi":51,"time":442.125,"velocity":0.7480314960629921,"duration":0.33749999999997726},{"name":"B1","midi":35,"time":442.5,"velocity":0.7480314960629921,"duration":0.33749999999997726},{"name":"G2","midi":43,"time":442.5,"velocity":0.7480314960629921,"duration":0.33749999999997726},{"name":"D#3","midi":51,"time":442.5,"velocity":0.7480314960629921,"duration":0.33749999999997726},{"name":"D#3","midi":51,"time":442.875,"velocity":0.7480314960629921,"duration":0.33749999999997726},{"name":"B1","midi":35,"time":442.875,"velocity":0.7480314960629921,"duration":0.33749999999997726},{"name":"G2","midi":43,"time":442.875,"velocity":0.7480314960629921,"duration":0.33749999999997726},{"name":"D2","midi":38,"time":443.25,"velocity":0.7480314960629921,"duration":0.33749999999997726},{"name":"D#3","midi":51,"time":443.25,"velocity":0.7480314960629921,"duration":0.33749999999997726},{"name":"D#3","midi":51,"time":443.625,"velocity":0.7480314960629921,"duration":0.33749999999997726},{"name":"D#3","midi":51,"time":444,"velocity":0.7480314960629921,"duration":0.33749999999997726},{"name":"G2","midi":43,"time":444,"velocity":0.7480314960629921,"duration":0.33749999999997726},{"name":"B1","midi":35,"time":444,"velocity":0.7480314960629921,"duration":0.33749999999997726},{"name":"D#3","midi":51,"time":444.375,"velocity":0.7480314960629921,"duration":0.33749999999997726},{"name":"D#3","midi":51,"time":444.75,"velocity":0.7480314960629921,"duration":0.33749999999997726},{"name":"D2","midi":38,"time":444.75,"velocity":0.7480314960629921,"duration":0.33749999999997726},{"name":"D#3","midi":51,"time":445.125,"velocity":0.7480314960629921,"duration":0.33749999999997726},{"name":"B1","midi":35,"time":445.5,"velocity":0.7480314960629921,"duration":0.33749999999997726},{"name":"G2","midi":43,"time":445.5,"velocity":0.7480314960629921,"duration":0.33749999999997726},{"name":"D#3","midi":51,"time":445.5,"velocity":0.7480314960629921,"duration":0.33749999999997726},{"name":"G2","midi":43,"time":445.875,"velocity":0.7480314960629921,"duration":0.33749999999997726},{"name":"B1","midi":35,"time":445.875,"velocity":0.7480314960629921,"duration":0.33749999999997726},{"name":"D#3","midi":51,"time":445.875,"velocity":0.7480314960629921,"duration":0.33749999999997726},{"name":"D2","midi":38,"time":446.25,"velocity":0.7480314960629921,"duration":0.33749999999997726},{"name":"D#3","midi":51,"time":446.25,"velocity":0.7480314960629921,"duration":0.33749999999997726},{"name":"D#3","midi":51,"time":446.625,"velocity":0.7480314960629921,"duration":0.33749999999997726},{"name":"G2","midi":43,"time":447,"velocity":0.7480314960629921,"duration":0.33749999999997726},{"name":"D#3","midi":51,"time":447,"velocity":0.7480314960629921,"duration":0.33749999999997726},{"name":"B1","midi":35,"time":447,"velocity":0.7480314960629921,"duration":0.33749999999997726},{"name":"D#3","midi":51,"time":447.375,"velocity":0.7480314960629921,"duration":0.33749999999997726},{"name":"D#3","midi":51,"time":447.75,"velocity":0.7480314960629921,"duration":0.33749999999997726},{"name":"D2","midi":38,"time":447.75,"velocity":0.7480314960629921,"duration":0.33749999999997726},{"name":"D#3","midi":51,"time":448.125,"velocity":0.7480314960629921,"duration":0.33749999999997726},{"name":"B1","midi":35,"time":448.5,"velocity":0.7480314960629921,"duration":0.33749999999997726},{"name":"G2","midi":43,"time":448.5,"velocity":0.7480314960629921,"duration":0.33749999999997726},{"name":"D#3","midi":51,"time":448.5,"velocity":0.7480314960629921,"duration":0.33749999999997726},{"name":"B1","midi":35,"time":448.875,"velocity":0.7480314960629921,"duration":0.33749999999997726},{"name":"G2","midi":43,"time":448.875,"velocity":0.7480314960629921,"duration":0.33749999999997726},{"name":"D#3","midi":51,"time":448.875,"velocity":0.7480314960629921,"duration":0.33749999999997726},{"name":"D2","midi":38,"time":449.25,"velocity":0.7480314960629921,"duration":0.33749999999997726},{"name":"D#3","midi":51,"time":449.25,"velocity":0.7480314960629921,"duration":0.33749999999997726},{"name":"D#3","midi":51,"time":449.625,"velocity":0.7480314960629921,"duration":0.33749999999997726},{"name":"D#3","midi":51,"time":450,"velocity":0.7480314960629921,"duration":0.33749999999997726},{"name":"G2","midi":43,"time":450,"velocity":0.7480314960629921,"duration":0.33749999999997726},{"name":"B1","midi":35,"time":450,"velocity":0.7480314960629921,"duration":0.33749999999997726},{"name":"D#3","midi":51,"time":450.375,"velocity":0.7480314960629921,"duration":0.33749999999997726},{"name":"D#3","midi":51,"time":450.75,"velocity":0.7480314960629921,"duration":0.33749999999997726},{"name":"D2","midi":38,"time":450.75,"velocity":0.7480314960629921,"duration":0.33749999999997726},{"name":"D#3","midi":51,"time":451.125,"velocity":0.7480314960629921,"duration":0.33749999999997726},{"name":"B1","midi":35,"time":451.5,"velocity":0.7480314960629921,"duration":0.33749999999997726},{"name":"G2","midi":43,"time":451.5,"velocity":0.7480314960629921,"duration":0.33749999999997726},{"name":"D#3","midi":51,"time":451.5,"velocity":0.7480314960629921,"duration":0.33749999999997726},{"name":"G2","midi":43,"time":451.875,"velocity":0.7480314960629921,"duration":0.33749999999997726},{"name":"B1","midi":35,"time":451.875,"velocity":0.7480314960629921,"duration":0.33749999999997726},{"name":"D#3","midi":51,"time":451.875,"velocity":0.7480314960629921,"duration":0.33749999999997726},{"name":"D#3","midi":51,"time":452.25,"velocity":0.7480314960629921,"duration":0.33749999999997726},{"name":"D2","midi":38,"time":452.25,"velocity":0.7480314960629921,"duration":0.33749999999997726},{"name":"D#3","midi":51,"time":452.625,"velocity":0.7480314960629921,"duration":0.33749999999997726},{"name":"B1","midi":35,"time":453,"velocity":0.7480314960629921,"duration":0.33749999999997726},{"name":"D#3","midi":51,"time":453,"velocity":0.7480314960629921,"duration":0.33749999999997726},{"name":"G2","midi":43,"time":453,"velocity":0.7480314960629921,"duration":0.33749999999997726},{"name":"D#3","midi":51,"time":453.375,"velocity":0.7480314960629921,"duration":0.33749999999997726},{"name":"D2","midi":38,"time":453.75,"velocity":0.7480314960629921,"duration":0.33749999999997726},{"name":"D#3","midi":51,"time":453.75,"velocity":0.7480314960629921,"duration":0.33749999999997726},{"name":"D#3","midi":51,"time":454.125,"velocity":0.7480314960629921,"duration":0.33749999999997726},{"name":"D#3","midi":51,"time":454.5,"velocity":0.7480314960629921,"duration":0.33749999999997726},{"name":"G2","midi":43,"time":454.5,"velocity":0.7480314960629921,"duration":0.33749999999997726},{"name":"B1","midi":35,"time":454.5,"velocity":0.7480314960629921,"duration":0.33749999999997726},{"name":"D#3","midi":51,"time":454.875,"velocity":0.7480314960629921,"duration":0.33749999999997726},{"name":"G2","midi":43,"time":454.875,"velocity":0.7480314960629921,"duration":0.33749999999997726},{"name":"B1","midi":35,"time":454.875,"velocity":0.7480314960629921,"duration":0.33749999999997726},{"name":"D#3","midi":51,"time":455.25,"velocity":0.7480314960629921,"duration":0.33749999999997726},{"name":"D2","midi":38,"time":455.25,"velocity":0.7480314960629921,"duration":0.33749999999997726},{"name":"D#3","midi":51,"time":455.625,"velocity":0.7480314960629921,"duration":0.33749999999997726},{"name":"D#3","midi":51,"time":456,"velocity":0.7480314960629921,"duration":0.33749999999997726},{"name":"G2","midi":43,"time":456,"velocity":0.7480314960629921,"duration":0.33749999999997726},{"name":"B1","midi":35,"time":456,"velocity":0.7480314960629921,"duration":0.33749999999997726},{"name":"D#3","midi":51,"time":456.375,"velocity":0.7480314960629921,"duration":0.33749999999997726},{"name":"D#3","midi":51,"time":456.75,"velocity":0.7480314960629921,"duration":0.33749999999997726},{"name":"D2","midi":38,"time":456.75,"velocity":0.7480314960629921,"duration":0.33749999999997726},{"name":"D#3","midi":51,"time":457.125,"velocity":0.7480314960629921,"duration":0.33749999999997726},{"name":"D#3","midi":51,"time":457.5,"velocity":0.7480314960629921,"duration":0.33749999999997726},{"name":"B1","midi":35,"time":457.5,"velocity":0.7480314960629921,"duration":0.33749999999997726},{"name":"G2","midi":43,"time":457.5,"velocity":0.7480314960629921,"duration":0.33749999999997726},{"name":"G2","midi":43,"time":457.875,"velocity":0.7480314960629921,"duration":0.33749999999997726},{"name":"D#3","midi":51,"time":457.875,"velocity":0.7480314960629921,"duration":0.33749999999997726},{"name":"B1","midi":35,"time":457.875,"velocity":0.7480314960629921,"duration":0.33749999999997726},{"name":"D#3","midi":51,"time":458.25,"velocity":0.7480314960629921,"duration":0.33749999999997726},{"name":"D2","midi":38,"time":458.25,"velocity":0.7480314960629921,"duration":0.33749999999997726},{"name":"D#3","midi":51,"time":458.625,"velocity":0.7480314960629921,"duration":0.33749999999997726},{"name":"D#3","midi":51,"time":459,"velocity":0.7480314960629921,"duration":0.33749999999997726},{"name":"G2","midi":43,"time":459,"velocity":0.7480314960629921,"duration":0.33749999999997726},{"name":"B1","midi":35,"time":459,"velocity":0.7480314960629921,"duration":0.33749999999997726},{"name":"D#3","midi":51,"time":459.375,"velocity":0.7480314960629921,"duration":0.33749999999997726},{"name":"D#3","midi":51,"time":459.75,"velocity":0.7480314960629921,"duration":0.33749999999997726},{"name":"D2","midi":38,"time":459.75,"velocity":0.7480314960629921,"duration":0.33749999999997726},{"name":"D#3","midi":51,"time":460.125,"velocity":0.7480314960629921,"duration":0.33749999999997726},{"name":"D#3","midi":51,"time":460.5,"velocity":0.7480314960629921,"duration":0.33749999999997726},{"name":"G2","midi":43,"time":460.5,"velocity":0.7480314960629921,"duration":0.33749999999997726},{"name":"B1","midi":35,"time":460.5,"velocity":0.7480314960629921,"duration":0.33749999999997726},{"name":"G2","midi":43,"time":460.875,"velocity":0.7480314960629921,"duration":0.33749999999997726},{"name":"D#3","midi":51,"time":460.875,"velocity":0.7480314960629921,"duration":0.33749999999997726},{"name":"B1","midi":35,"time":460.875,"velocity":0.7480314960629921,"duration":0.33749999999997726},{"name":"D2","midi":38,"time":461.25,"velocity":0.7480314960629921,"duration":0.33749999999997726},{"name":"D#3","midi":51,"time":461.25,"velocity":0.7480314960629921,"duration":0.33749999999997726},{"name":"D#3","midi":51,"time":461.625,"velocity":0.7480314960629921,"duration":0.33749999999997726},{"name":"B1","midi":35,"time":462,"velocity":0.7480314960629921,"duration":0.33749999999997726},{"name":"G2","midi":43,"time":462,"velocity":0.7480314960629921,"duration":0.33749999999997726},{"name":"D#3","midi":51,"time":462,"velocity":0.7480314960629921,"duration":0.33749999999997726},{"name":"D#3","midi":51,"time":462.375,"velocity":0.7480314960629921,"duration":0.33749999999997726},{"name":"D2","midi":38,"time":462.75,"velocity":0.7480314960629921,"duration":0.33749999999997726},{"name":"D#3","midi":51,"time":462.75,"velocity":0.7480314960629921,"duration":0.33749999999997726},{"name":"D#3","midi":51,"time":463.125,"velocity":0.7480314960629921,"duration":0.33749999999997726},{"name":"D#3","midi":51,"time":463.5,"velocity":0.7480314960629921,"duration":0.33749999999997726},{"name":"G2","midi":43,"time":463.5,"velocity":0.7480314960629921,"duration":0.33749999999997726},{"name":"B1","midi":35,"time":463.5,"velocity":0.7480314960629921,"duration":0.33749999999997726},{"name":"B1","midi":35,"time":463.875,"velocity":0.7480314960629921,"duration":0.33749999999997726},{"name":"G2","midi":43,"time":463.875,"velocity":0.7480314960629921,"duration":0.33749999999997726},{"name":"D#3","midi":51,"time":463.875,"velocity":0.7480314960629921,"duration":0.33749999999997726},{"name":"D#3","midi":51,"time":464.25,"velocity":0.7480314960629921,"duration":0.33749999999997726},{"name":"D2","midi":38,"time":464.25,"velocity":0.7480314960629921,"duration":0.33749999999997726},{"name":"D#3","midi":51,"time":464.625,"velocity":0.7480314960629921,"duration":0.33749999999997726},{"name":"G2","midi":43,"time":465,"velocity":0.7480314960629921,"duration":0.33749999999997726},{"name":"B1","midi":35,"time":465,"velocity":0.7480314960629921,"duration":0.33749999999997726},{"name":"D#3","midi":51,"time":465,"velocity":0.7480314960629921,"duration":0.33749999999997726},{"name":"D#3","midi":51,"time":465.375,"velocity":0.7480314960629921,"duration":0.33749999999997726},{"name":"D2","midi":38,"time":465.75,"velocity":0.7480314960629921,"duration":0.33749999999997726},{"name":"D#3","midi":51,"time":465.75,"velocity":0.7480314960629921,"duration":0.33749999999997726},{"name":"D#3","midi":51,"time":466.125,"velocity":0.7480314960629921,"duration":0.33749999999997726},{"name":"B1","midi":35,"time":466.5,"velocity":0.7480314960629921,"duration":0.33749999999997726},{"name":"G2","midi":43,"time":466.5,"velocity":0.7480314960629921,"duration":0.33749999999997726},{"name":"D#3","midi":51,"time":466.5,"velocity":0.7480314960629921,"duration":0.33749999999997726},{"name":"B1","midi":35,"time":466.875,"velocity":0.7480314960629921,"duration":0.33749999999997726},{"name":"D#3","midi":51,"time":466.875,"velocity":0.7480314960629921,"duration":0.33749999999997726},{"name":"G2","midi":43,"time":466.875,"velocity":0.7480314960629921,"duration":0.33749999999997726},{"name":"D2","midi":38,"time":467.25,"velocity":0.7480314960629921,"duration":0.33749999999997726},{"name":"D#3","midi":51,"time":467.25,"velocity":0.7480314960629921,"duration":0.33749999999997726},{"name":"D#3","midi":51,"time":467.625,"velocity":0.7480314960629921,"duration":0.33749999999997726},{"name":"G2","midi":43,"time":468,"velocity":0.7480314960629921,"duration":0.33749999999997726},{"name":"D#3","midi":51,"time":468,"velocity":0.7480314960629921,"duration":0.33749999999997726},{"name":"B1","midi":35,"time":468,"velocity":0.7480314960629921,"duration":0.33749999999997726},{"name":"D#3","midi":51,"time":468.375,"velocity":0.7480314960629921,"duration":0.33749999999997726},{"name":"D#3","midi":51,"time":468.75,"velocity":0.7480314960629921,"duration":0.33749999999997726},{"name":"D2","midi":38,"time":468.75,"velocity":0.7480314960629921,"duration":0.33749999999997726},{"name":"D#3","midi":51,"time":469.125,"velocity":0.7480314960629921,"duration":0.33749999999997726},{"name":"G2","midi":43,"time":469.5,"velocity":0.7480314960629921,"duration":0.33749999999997726},{"name":"B1","midi":35,"time":469.5,"velocity":0.7480314960629921,"duration":0.33749999999997726},{"name":"D#3","midi":51,"time":469.5,"velocity":0.7480314960629921,"duration":0.33749999999997726},{"name":"D#3","midi":51,"time":469.875,"velocity":0.7480314960629921,"duration":0.33749999999997726},{"name":"G2","midi":43,"time":469.875,"velocity":0.7480314960629921,"duration":0.33749999999997726},{"name":"B1","midi":35,"time":469.875,"velocity":0.7480314960629921,"duration":0.33749999999997726},{"name":"D2","midi":38,"time":470.25,"velocity":0.7480314960629921,"duration":0.33749999999997726},{"name":"D#3","midi":51,"time":470.25,"velocity":0.7480314960629921,"duration":0.33749999999997726},{"name":"D#3","midi":51,"time":470.625,"velocity":0.7480314960629921,"duration":0.33749999999997726},{"name":"G2","midi":43,"time":471,"velocity":0.7480314960629921,"duration":0.33749999999997726},{"name":"B1","midi":35,"time":471,"velocity":0.7480314960629921,"duration":0.33749999999997726},{"name":"D#3","midi":51,"time":471,"velocity":0.7480314960629921,"duration":0.33749999999997726},{"name":"D#3","midi":51,"time":471.375,"velocity":0.7480314960629921,"duration":0.33749999999997726},{"name":"D#3","midi":51,"time":471.75,"velocity":0.7480314960629921,"duration":0.33749999999997726},{"name":"D2","midi":38,"time":471.75,"velocity":0.7480314960629921,"duration":0.33749999999997726},{"name":"D#3","midi":51,"time":472.125,"velocity":0.7480314960629921,"duration":0.33749999999997726},{"name":"G2","midi":43,"time":472.5,"velocity":0.7480314960629921,"duration":0.33749999999997726},{"name":"D#3","midi":51,"time":472.5,"velocity":0.7480314960629921,"duration":0.33749999999997726},{"name":"B1","midi":35,"time":472.5,"velocity":0.7480314960629921,"duration":0.33749999999997726},{"name":"D#3","midi":51,"time":472.875,"velocity":0.7480314960629921,"duration":0.33749999999997726},{"name":"G2","midi":43,"time":472.875,"velocity":0.7480314960629921,"duration":0.33749999999997726},{"name":"B1","midi":35,"time":472.875,"velocity":0.7480314960629921,"duration":0.33749999999997726},{"name":"D#3","midi":51,"time":473.25,"velocity":0.7480314960629921,"duration":0.33749999999997726},{"name":"D2","midi":38,"time":473.25,"velocity":0.7480314960629921,"duration":0.33749999999997726},{"name":"D#3","midi":51,"time":473.625,"velocity":0.7480314960629921,"duration":0.33749999999997726},{"name":"G2","midi":43,"time":474,"velocity":0.7480314960629921,"duration":0.33749999999997726},{"name":"D#3","midi":51,"time":474,"velocity":0.7480314960629921,"duration":0.33749999999997726},{"name":"B1","midi":35,"time":474,"velocity":0.7480314960629921,"duration":0.33749999999997726},{"name":"D#3","midi":51,"time":474.375,"velocity":0.7480314960629921,"duration":0.33749999999997726},{"name":"D2","midi":38,"time":474.75,"velocity":0.7480314960629921,"duration":0.33749999999997726},{"name":"D#3","midi":51,"time":474.75,"velocity":0.7480314960629921,"duration":0.33749999999997726},{"name":"D#3","midi":51,"time":475.125,"velocity":0.7480314960629921,"duration":0.33749999999997726},{"name":"B1","midi":35,"time":475.5,"velocity":0.7480314960629921,"duration":0.33749999999997726},{"name":"G2","midi":43,"time":475.5,"velocity":0.7480314960629921,"duration":0.33749999999997726},{"name":"D#3","midi":51,"time":475.5,"velocity":0.7480314960629921,"duration":0.33749999999997726},{"name":"D#3","midi":51,"time":475.875,"velocity":0.7480314960629921,"duration":0.33749999999997726},{"name":"B1","midi":35,"time":475.875,"velocity":0.7480314960629921,"duration":0.33749999999997726},{"name":"G2","midi":43,"time":475.875,"velocity":0.7480314960629921,"duration":0.33749999999997726},{"name":"D#3","midi":51,"time":476.25,"velocity":0.7480314960629921,"duration":0.33749999999997726},{"name":"D2","midi":38,"time":476.25,"velocity":0.7480314960629921,"duration":0.33749999999997726},{"name":"D#3","midi":51,"time":476.625,"velocity":0.7480314960629921,"duration":0.33749999999997726},{"name":"D#3","midi":51,"time":477,"velocity":0.7480314960629921,"duration":0.33749999999997726},{"name":"B1","midi":35,"time":477,"velocity":0.7480314960629921,"duration":0.33749999999997726},{"name":"G2","midi":43,"time":477,"velocity":0.7480314960629921,"duration":0.33749999999997726},{"name":"D#3","midi":51,"time":477.375,"velocity":0.7480314960629921,"duration":0.33749999999997726},{"name":"D#3","midi":51,"time":477.75,"velocity":0.7480314960629921,"duration":0.33749999999997726},{"name":"D2","midi":38,"time":477.75,"velocity":0.7480314960629921,"duration":0.33749999999997726},{"name":"D#3","midi":51,"time":478.125,"velocity":0.7480314960629921,"duration":0.33749999999997726},{"name":"B1","midi":35,"time":478.5,"velocity":0.7480314960629921,"duration":0.33749999999997726},{"name":"G2","midi":43,"time":478.5,"velocity":0.7480314960629921,"duration":0.33749999999997726},{"name":"D#3","midi":51,"time":478.5,"velocity":0.7480314960629921,"duration":0.33749999999997726},{"name":"G2","midi":43,"time":478.875,"velocity":0.7480314960629921,"duration":0.33749999999997726},{"name":"D#3","midi":51,"time":478.875,"velocity":0.7480314960629921,"duration":0.33749999999997726},{"name":"B1","midi":35,"time":478.875,"velocity":0.7480314960629921,"duration":0.33749999999997726},{"name":"D#3","midi":51,"time":479.25,"velocity":0.7480314960629921,"duration":0.33749999999997726},{"name":"D2","midi":38,"time":479.25,"velocity":0.7480314960629921,"duration":0.33749999999997726},{"name":"D#3","midi":51,"time":479.625,"velocity":0.7480314960629921,"duration":0.33749999999997726},{"name":"D#3","midi":51,"time":480,"velocity":0.7480314960629921,"duration":0.33749999999997726},{"name":"G2","midi":43,"time":480,"velocity":0.7480314960629921,"duration":0.33749999999997726},{"name":"B1","midi":35,"time":480,"velocity":0.7480314960629921,"duration":0.33749999999997726},{"name":"D#3","midi":51,"time":480.375,"velocity":0.7480314960629921,"duration":0.33749999999997726},{"name":"D2","midi":38,"time":480.75,"velocity":0.7480314960629921,"duration":0.33749999999997726},{"name":"D#3","midi":51,"time":480.75,"velocity":0.7480314960629921,"duration":0.33749999999997726},{"name":"D#3","midi":51,"time":481.125,"velocity":0.7480314960629921,"duration":0.33749999999997726},{"name":"B1","midi":35,"time":481.5,"velocity":0.7480314960629921,"duration":0.33749999999997726},{"name":"G2","midi":43,"time":481.5,"velocity":0.7480314960629921,"duration":0.33749999999997726},{"name":"D#3","midi":51,"time":481.5,"velocity":0.7480314960629921,"duration":0.33749999999997726},{"name":"D#3","midi":51,"time":481.875,"velocity":0.7480314960629921,"duration":0.33749999999997726},{"name":"B1","midi":35,"time":481.875,"velocity":0.7480314960629921,"duration":0.33749999999997726},{"name":"G2","midi":43,"time":481.875,"velocity":0.7480314960629921,"duration":0.33749999999997726},{"name":"D2","midi":38,"time":482.25,"velocity":0.7480314960629921,"duration":0.33749999999997726},{"name":"D#3","midi":51,"time":482.25,"velocity":0.7480314960629921,"duration":0.33749999999997726},{"name":"D#3","midi":51,"time":482.625,"velocity":0.7480314960629921,"duration":0.33749999999997726},{"name":"G2","midi":43,"time":483,"velocity":0.7480314960629921,"duration":0.33749999999997726},{"name":"B1","midi":35,"time":483,"velocity":0.7480314960629921,"duration":0.33749999999997726},{"name":"D#3","midi":51,"time":483,"velocity":0.7480314960629921,"duration":0.33749999999997726},{"name":"D#3","midi":51,"time":483.375,"velocity":0.7480314960629921,"duration":0.33749999999997726},{"name":"D2","midi":38,"time":483.75,"velocity":0.7480314960629921,"duration":0.33749999999997726},{"name":"D#3","midi":51,"time":483.75,"velocity":0.7480314960629921,"duration":0.33749999999997726},{"name":"D#3","midi":51,"time":484.125,"velocity":0.7480314960629921,"duration":0.33749999999997726},{"name":"D#3","midi":51,"time":484.5,"velocity":0.7480314960629921,"duration":0.33749999999997726},{"name":"G2","midi":43,"time":484.5,"velocity":0.7480314960629921,"duration":0.33749999999997726},{"name":"B1","midi":35,"time":484.5,"velocity":0.7480314960629921,"duration":0.33749999999997726},{"name":"B1","midi":35,"time":484.875,"velocity":0.7480314960629921,"duration":0.33749999999997726},{"name":"G2","midi":43,"time":484.875,"velocity":0.7480314960629921,"duration":0.33749999999997726},{"name":"D#3","midi":51,"time":484.875,"velocity":0.7480314960629921,"duration":0.33749999999997726},{"name":"D#3","midi":51,"time":485.25,"velocity":0.7480314960629921,"duration":0.33749999999997726},{"name":"D2","midi":38,"time":485.25,"velocity":0.7480314960629921,"duration":0.33749999999997726},{"name":"D#3","midi":51,"time":485.625,"velocity":0.7480314960629921,"duration":0.33749999999997726},{"name":"B1","midi":35,"time":486,"velocity":0.7480314960629921,"duration":0.33749999999997726},{"name":"G2","midi":43,"time":486,"velocity":0.7480314960629921,"duration":0.33749999999997726},{"name":"D#3","midi":51,"time":486,"velocity":0.7480314960629921,"duration":0.33749999999997726},{"name":"D#3","midi":51,"time":486.375,"velocity":0.7480314960629921,"duration":0.33749999999997726},{"name":"D2","midi":38,"time":486.75,"velocity":0.7480314960629921,"duration":0.33749999999997726},{"name":"D#3","midi":51,"time":486.75,"velocity":0.7480314960629921,"duration":0.33749999999997726},{"name":"D#3","midi":51,"time":487.125,"velocity":0.7480314960629921,"duration":0.33749999999997726},{"name":"D#3","midi":51,"time":487.5,"velocity":0.7480314960629921,"duration":0.33749999999997726},{"name":"G2","midi":43,"time":487.5,"velocity":0.7480314960629921,"duration":0.33749999999997726},{"name":"B1","midi":35,"time":487.5,"velocity":0.7480314960629921,"duration":0.33749999999997726},{"name":"B1","midi":35,"time":487.875,"velocity":0.7480314960629921,"duration":0.33749999999997726},{"name":"G2","midi":43,"time":487.875,"velocity":0.7480314960629921,"duration":0.33749999999997726},{"name":"D#3","midi":51,"time":487.875,"velocity":0.7480314960629921,"duration":0.33749999999997726},{"name":"D2","midi":38,"time":488.25,"velocity":0.7480314960629921,"duration":0.33749999999997726},{"name":"D#3","midi":51,"time":488.25,"velocity":0.7480314960629921,"duration":0.33749999999997726},{"name":"D#3","midi":51,"time":488.625,"velocity":0.7480314960629921,"duration":0.33749999999997726},{"name":"D#3","midi":51,"time":489,"velocity":0.7480314960629921,"duration":0.33749999999997726},{"name":"B1","midi":35,"time":489,"velocity":0.7480314960629921,"duration":0.33749999999997726},{"name":"G2","midi":43,"time":489,"velocity":0.7480314960629921,"duration":0.33749999999997726},{"name":"D#3","midi":51,"time":489.375,"velocity":0.7480314960629921,"duration":0.33749999999997726},{"name":"D2","midi":38,"time":489.75,"velocity":0.7480314960629921,"duration":0.33749999999997726},{"name":"D#3","midi":51,"time":489.75,"velocity":0.7480314960629921,"duration":0.33749999999997726},{"name":"D#3","midi":51,"time":490.125,"velocity":0.7480314960629921,"duration":0.33749999999997726},{"name":"B1","midi":35,"time":490.5,"velocity":0.7480314960629921,"duration":0.33749999999997726},{"name":"G2","midi":43,"time":490.5,"velocity":0.7480314960629921,"duration":0.33749999999997726},{"name":"D#3","midi":51,"time":490.5,"velocity":0.7480314960629921,"duration":0.33749999999997726},{"name":"G2","midi":43,"time":490.875,"velocity":0.7480314960629921,"duration":0.33749999999997726},{"name":"B1","midi":35,"time":490.875,"velocity":0.7480314960629921,"duration":0.33749999999997726},{"name":"D#3","midi":51,"time":490.875,"velocity":0.7480314960629921,"duration":0.33749999999997726},{"name":"D#3","midi":51,"time":491.25,"velocity":0.7480314960629921,"duration":0.33749999999997726},{"name":"D2","midi":38,"time":491.25,"velocity":0.7480314960629921,"duration":0.33749999999997726},{"name":"D#3","midi":51,"time":491.625,"velocity":0.7480314960629921,"duration":0.33749999999997726},{"name":"B1","midi":35,"time":492,"velocity":0.7480314960629921,"duration":0.33749999999997726},{"name":"G2","midi":43,"time":492,"velocity":0.7480314960629921,"duration":0.33749999999997726},{"name":"D#3","midi":51,"time":492,"velocity":0.7480314960629921,"duration":0.33749999999997726},{"name":"D#3","midi":51,"time":492.375,"velocity":0.7480314960629921,"duration":0.33749999999997726},{"name":"D#3","midi":51,"time":492.75,"velocity":0.7480314960629921,"duration":0.33749999999997726},{"name":"D2","midi":38,"time":492.75,"velocity":0.7480314960629921,"duration":0.33749999999997726},{"name":"D#3","midi":51,"time":493.125,"velocity":0.7480314960629921,"duration":0.33749999999997726},{"name":"D#3","midi":51,"time":493.5,"velocity":0.7480314960629921,"duration":0.33749999999997726},{"name":"G2","midi":43,"time":493.5,"velocity":0.7480314960629921,"duration":0.33749999999997726},{"name":"B1","midi":35,"time":493.5,"velocity":0.7480314960629921,"duration":0.33749999999997726},{"name":"G2","midi":43,"time":493.875,"velocity":0.7480314960629921,"duration":0.33749999999997726},{"name":"B1","midi":35,"time":493.875,"velocity":0.7480314960629921,"duration":0.33749999999997726},{"name":"D#3","midi":51,"time":493.875,"velocity":0.7480314960629921,"duration":0.33749999999997726},{"name":"D#3","midi":51,"time":494.25,"velocity":0.7480314960629921,"duration":0.33749999999997726},{"name":"D2","midi":38,"time":494.25,"velocity":0.7480314960629921,"duration":0.33749999999997726},{"name":"D#3","midi":51,"time":494.625,"velocity":0.7480314960629921,"duration":0.33749999999997726},{"name":"D#3","midi":51,"time":495,"velocity":0.7480314960629921,"duration":0.33749999999997726},{"name":"G2","midi":43,"time":495,"velocity":0.7480314960629921,"duration":0.33749999999997726},{"name":"B1","midi":35,"time":495,"velocity":0.7480314960629921,"duration":0.33749999999997726},{"name":"D#3","midi":51,"time":495.375,"velocity":0.7480314960629921,"duration":0.33749999999997726},{"name":"D2","midi":38,"time":495.75,"velocity":0.7480314960629921,"duration":0.33749999999997726},{"name":"D#3","midi":51,"time":495.75,"velocity":0.7480314960629921,"duration":0.33749999999997726},{"name":"D#3","midi":51,"time":496.125,"velocity":0.7480314960629921,"duration":0.33749999999997726},{"name":"D#3","midi":51,"time":496.5,"velocity":0.7480314960629921,"duration":0.33749999999997726},{"name":"G2","midi":43,"time":496.5,"velocity":0.7480314960629921,"duration":0.33749999999997726},{"name":"B1","midi":35,"time":496.5,"velocity":0.7480314960629921,"duration":0.33749999999997726},{"name":"B1","midi":35,"time":496.875,"velocity":0.7480314960629921,"duration":0.33749999999997726},{"name":"G2","midi":43,"time":496.875,"velocity":0.7480314960629921,"duration":0.33749999999997726},{"name":"D#3","midi":51,"time":496.875,"velocity":0.7480314960629921,"duration":0.33749999999997726},{"name":"D#3","midi":51,"time":497.25,"velocity":0.7480314960629921,"duration":0.33749999999997726},{"name":"D2","midi":38,"time":497.25,"velocity":0.7480314960629921,"duration":0.33749999999997726},{"name":"D#3","midi":51,"time":497.625,"velocity":0.7480314960629921,"duration":0.33749999999997726},{"name":"G2","midi":43,"time":498,"velocity":0.7480314960629921,"duration":0.33749999999997726},{"name":"D#3","midi":51,"time":498,"velocity":0.7480314960629921,"duration":0.33749999999997726},{"name":"B1","midi":35,"time":498,"velocity":0.7480314960629921,"duration":0.33749999999997726},{"name":"D#3","midi":51,"time":498.375,"velocity":0.7480314960629921,"duration":0.33749999999997726},{"name":"D#3","midi":51,"time":498.75,"velocity":0.7480314960629921,"duration":0.33749999999997726},{"name":"D2","midi":38,"time":498.75,"velocity":0.7480314960629921,"duration":0.33749999999997726},{"name":"D#3","midi":51,"time":499.125,"velocity":0.7480314960629921,"duration":0.33749999999997726},{"name":"B1","midi":35,"time":499.5,"velocity":0.7480314960629921,"duration":0.33749999999997726},{"name":"G2","midi":43,"time":499.5,"velocity":0.7480314960629921,"duration":0.33749999999997726},{"name":"D#3","midi":51,"time":499.5,"velocity":0.7480314960629921,"duration":0.33749999999997726},{"name":"D#3","midi":51,"time":499.875,"velocity":0.7480314960629921,"duration":0.33749999999997726},{"name":"G2","midi":43,"time":499.875,"velocity":0.7480314960629921,"duration":0.33749999999997726},{"name":"B1","midi":35,"time":499.875,"velocity":0.7480314960629921,"duration":0.33749999999997726},{"name":"D#3","midi":51,"time":500.25,"velocity":0.7480314960629921,"duration":0.33749999999997726},{"name":"D2","midi":38,"time":500.25,"velocity":0.7480314960629921,"duration":0.33749999999997726},{"name":"D#3","midi":51,"time":500.625,"velocity":0.7480314960629921,"duration":0.33749999999997726},{"name":"B1","midi":35,"time":501,"velocity":0.7480314960629921,"duration":0.33749999999997726},{"name":"G2","midi":43,"time":501,"velocity":0.7480314960629921,"duration":0.33749999999997726},{"name":"D#3","midi":51,"time":501,"velocity":0.7480314960629921,"duration":0.33749999999997726},{"name":"D#3","midi":51,"time":501.375,"velocity":0.7480314960629921,"duration":0.33749999999997726},{"name":"D2","midi":38,"time":501.75,"velocity":0.7480314960629921,"duration":0.33749999999997726},{"name":"D#3","midi":51,"time":501.75,"velocity":0.7480314960629921,"duration":0.33749999999997726},{"name":"D#3","midi":51,"time":502.125,"velocity":0.7480314960629921,"duration":0.33749999999997726},{"name":"B1","midi":35,"time":502.5,"velocity":0.7480314960629921,"duration":0.33749999999997726},{"name":"G2","midi":43,"time":502.5,"velocity":0.7480314960629921,"duration":0.33749999999997726},{"name":"D#3","midi":51,"time":502.5,"velocity":0.7480314960629921,"duration":0.33749999999997726},{"name":"B1","midi":35,"time":502.875,"velocity":0.7480314960629921,"duration":0.33749999999997726},{"name":"D#3","midi":51,"time":502.875,"velocity":0.7480314960629921,"duration":0.33749999999997726},{"name":"G2","midi":43,"time":502.875,"velocity":0.7480314960629921,"duration":0.33749999999997726},{"name":"D2","midi":38,"time":503.25,"velocity":0.7480314960629921,"duration":0.33749999999997726},{"name":"D#3","midi":51,"time":503.25,"velocity":0.7480314960629921,"duration":0.33749999999997726},{"name":"D#3","midi":51,"time":503.625,"velocity":0.7480314960629921,"duration":0.33749999999997726},{"name":"B1","midi":35,"time":504,"velocity":0.7480314960629921,"duration":0.33749999999997726},{"name":"G2","midi":43,"time":504,"velocity":0.7480314960629921,"duration":0.33749999999997726},{"name":"D#3","midi":51,"time":504,"velocity":0.7480314960629921,"duration":0.33749999999997726},{"name":"D#3","midi":51,"time":504.375,"velocity":0.7480314960629921,"duration":0.33749999999997726},{"name":"D2","midi":38,"time":504.75,"velocity":0.7480314960629921,"duration":0.33749999999997726},{"name":"D#3","midi":51,"time":504.75,"velocity":0.7480314960629921,"duration":0.33749999999997726},{"name":"D#3","midi":51,"time":505.125,"velocity":0.7480314960629921,"duration":0.33749999999997726},{"name":"B1","midi":35,"time":505.5,"velocity":0.7480314960629921,"duration":0.33749999999997726},{"name":"G2","midi":43,"time":505.5,"velocity":0.7480314960629921,"duration":0.33749999999997726},{"name":"D#3","midi":51,"time":505.5,"velocity":0.7480314960629921,"duration":0.33749999999997726},{"name":"B1","midi":35,"time":505.875,"velocity":0.7480314960629921,"duration":0.33749999999997726},{"name":"G2","midi":43,"time":505.875,"velocity":0.7480314960629921,"duration":0.33749999999997726},{"name":"D#3","midi":51,"time":505.875,"velocity":0.7480314960629921,"duration":0.33749999999997726},{"name":"D2","midi":38,"time":506.25,"velocity":0.7480314960629921,"duration":0.33749999999997726},{"name":"D#3","midi":51,"time":506.25,"velocity":0.7480314960629921,"duration":0.33749999999997726},{"name":"D#3","midi":51,"time":506.625,"velocity":0.7480314960629921,"duration":0.33749999999997726},{"name":"B1","midi":35,"time":507,"velocity":0.7480314960629921,"duration":0.33749999999997726},{"name":"D#3","midi":51,"time":507,"velocity":0.7480314960629921,"duration":0.33749999999997726},{"name":"G2","midi":43,"time":507,"velocity":0.7480314960629921,"duration":0.33749999999997726},{"name":"D#3","midi":51,"time":507.375,"velocity":0.7480314960629921,"duration":0.33749999999997726},{"name":"D#3","midi":51,"time":507.75,"velocity":0.7480314960629921,"duration":0.33749999999997726},{"name":"D2","midi":38,"time":507.75,"velocity":0.7480314960629921,"duration":0.33749999999997726},{"name":"D#3","midi":51,"time":508.125,"velocity":0.7480314960629921,"duration":0.33749999999997726},{"name":"B1","midi":35,"time":508.5,"velocity":0.7480314960629921,"duration":0.33749999999997726},{"name":"G2","midi":43,"time":508.5,"velocity":0.7480314960629921,"duration":0.33749999999997726},{"name":"D#3","midi":51,"time":508.5,"velocity":0.7480314960629921,"duration":0.33749999999997726},{"name":"B1","midi":35,"time":508.875,"velocity":0.7480314960629921,"duration":0.33749999999997726},{"name":"G2","midi":43,"time":508.875,"velocity":0.7480314960629921,"duration":0.33749999999997726},{"name":"D#3","midi":51,"time":508.875,"velocity":0.7480314960629921,"duration":0.33749999999997726},{"name":"D#3","midi":51,"time":509.25,"velocity":0.7480314960629921,"duration":0.33749999999997726},{"name":"D2","midi":38,"time":509.25,"velocity":0.7480314960629921,"duration":0.33749999999997726},{"name":"D#3","midi":51,"time":509.625,"velocity":0.7480314960629921,"duration":0.33749999999997726},{"name":"D#3","midi":51,"time":510,"velocity":0.7480314960629921,"duration":0.33749999999997726},{"name":"G2","midi":43,"time":510,"velocity":0.7480314960629921,"duration":0.33749999999997726},{"name":"B1","midi":35,"time":510,"velocity":0.7480314960629921,"duration":0.33749999999997726},{"name":"D#3","midi":51,"time":510.375,"velocity":0.7480314960629921,"duration":0.33749999999997726},{"name":"D#3","midi":51,"time":510.75,"velocity":0.7480314960629921,"duration":0.33749999999997726},{"name":"D2","midi":38,"time":510.75,"velocity":0.7480314960629921,"duration":0.33749999999997726},{"name":"D#3","midi":51,"time":511.125,"velocity":0.7480314960629921,"duration":0.33749999999997726},{"name":"B1","midi":35,"time":511.5,"velocity":0.7480314960629921,"duration":0.33749999999997726},{"name":"G2","midi":43,"time":511.5,"velocity":0.7480314960629921,"duration":0.33749999999997726},{"name":"D#3","midi":51,"time":511.5,"velocity":0.7480314960629921,"duration":0.33749999999997726},{"name":"B1","midi":35,"time":511.875,"velocity":0.7480314960629921,"duration":0.33749999999997726},{"name":"G2","midi":43,"time":511.875,"velocity":0.7480314960629921,"duration":0.33749999999997726},{"name":"D#3","midi":51,"time":511.875,"velocity":0.7480314960629921,"duration":0.33749999999997726},{"name":"D2","midi":38,"time":512.25,"velocity":0.7480314960629921,"duration":0.33749999999997726},{"name":"D#3","midi":51,"time":512.25,"velocity":0.7480314960629921,"duration":0.33749999999997726},{"name":"D#3","midi":51,"time":512.625,"velocity":0.7480314960629921,"duration":0.33749999999997726},{"name":"G2","midi":43,"time":513,"velocity":0.7480314960629921,"duration":0.33749999999997726},{"name":"D#3","midi":51,"time":513,"velocity":0.7480314960629921,"duration":0.33749999999997726},{"name":"B1","midi":35,"time":513,"velocity":0.7480314960629921,"duration":0.33749999999997726},{"name":"D#3","midi":51,"time":513.375,"velocity":0.7480314960629921,"duration":0.33749999999997726},{"name":"D#3","midi":51,"time":513.75,"velocity":0.7480314960629921,"duration":0.33749999999997726},{"name":"D2","midi":38,"time":513.75,"velocity":0.7480314960629921,"duration":0.33749999999997726},{"name":"D#3","midi":51,"time":514.125,"velocity":0.7480314960629921,"duration":0.33749999999997726},{"name":"B1","midi":35,"time":514.5,"velocity":0.7480314960629921,"duration":0.33749999999997726},{"name":"G2","midi":43,"time":514.5,"velocity":0.7480314960629921,"duration":0.33749999999997726},{"name":"D#3","midi":51,"time":514.5,"velocity":0.7480314960629921,"duration":0.33749999999997726},{"name":"G2","midi":43,"time":514.875,"velocity":0.7480314960629921,"duration":0.33749999999997726},{"name":"B1","midi":35,"time":514.875,"velocity":0.7480314960629921,"duration":0.33749999999997726},{"name":"D#3","midi":51,"time":514.875,"velocity":0.7480314960629921,"duration":0.33749999999997726},{"name":"D#3","midi":51,"time":515.25,"velocity":0.7480314960629921,"duration":0.33749999999997726},{"name":"D2","midi":38,"time":515.25,"velocity":0.7480314960629921,"duration":0.33749999999997726},{"name":"D#3","midi":51,"time":515.625,"velocity":0.7480314960629921,"duration":0.33749999999997726},{"name":"B1","midi":35,"time":516,"velocity":0.7480314960629921,"duration":0.33749999999997726},{"name":"G2","midi":43,"time":516,"velocity":0.7480314960629921,"duration":0.33749999999997726},{"name":"D#3","midi":51,"time":516,"velocity":0.7480314960629921,"duration":0.33749999999997726},{"name":"D#3","midi":51,"time":516.375,"velocity":0.7480314960629921,"duration":0.33749999999997726},{"name":"D#3","midi":51,"time":516.75,"velocity":0.7480314960629921,"duration":0.33749999999997726},{"name":"D2","midi":38,"time":516.75,"velocity":0.7480314960629921,"duration":0.33749999999997726},{"name":"D#3","midi":51,"time":517.125,"velocity":0.7480314960629921,"duration":0.33749999999997726},{"name":"D#3","midi":51,"time":517.5,"velocity":0.7480314960629921,"duration":0.33749999999997726},{"name":"G2","midi":43,"time":517.5,"velocity":0.7480314960629921,"duration":0.33749999999997726},{"name":"B1","midi":35,"time":517.5,"velocity":0.7480314960629921,"duration":0.33749999999997726},{"name":"D#3","midi":51,"time":517.875,"velocity":0.7480314960629921,"duration":0.33749999999997726},{"name":"G2","midi":43,"time":517.875,"velocity":0.7480314960629921,"duration":0.33749999999997726},{"name":"B1","midi":35,"time":517.875,"velocity":0.7480314960629921,"duration":0.33749999999997726},{"name":"D2","midi":38,"time":518.25,"velocity":0.7480314960629921,"duration":0.33749999999997726},{"name":"D#3","midi":51,"time":518.25,"velocity":0.7480314960629921,"duration":0.33749999999997726},{"name":"D#3","midi":51,"time":518.625,"velocity":0.7480314960629921,"duration":0.33749999999997726},{"name":"D#3","midi":51,"time":519,"velocity":0.7480314960629921,"duration":0.33749999999997726},{"name":"B1","midi":35,"time":519,"velocity":0.7480314960629921,"duration":0.33749999999997726},{"name":"G2","midi":43,"time":519,"velocity":0.7480314960629921,"duration":0.33749999999997726},{"name":"D#3","midi":51,"time":519.375,"velocity":0.7480314960629921,"duration":0.33749999999997726},{"name":"D#3","midi":51,"time":519.75,"velocity":0.7480314960629921,"duration":0.33749999999997726},{"name":"D2","midi":38,"time":519.75,"velocity":0.7480314960629921,"duration":0.33749999999997726},{"name":"D#3","midi":51,"time":520.125,"velocity":0.7480314960629921,"duration":0.33749999999997726},{"name":"B1","midi":35,"time":520.5,"velocity":0.7480314960629921,"duration":0.33749999999997726},{"name":"D#3","midi":51,"time":520.5,"velocity":0.7480314960629921,"duration":0.33749999999997726},{"name":"G2","midi":43,"time":520.5,"velocity":0.7480314960629921,"duration":0.33749999999997726},{"name":"D#3","midi":51,"time":520.875,"velocity":0.7480314960629921,"duration":0.33749999999997726},{"name":"G2","midi":43,"time":520.875,"velocity":0.7480314960629921,"duration":0.33749999999997726},{"name":"B1","midi":35,"time":520.875,"velocity":0.7480314960629921,"duration":0.33749999999997726},{"name":"D#3","midi":51,"time":521.25,"velocity":0.7480314960629921,"duration":0.33749999999997726},{"name":"D2","midi":38,"time":521.25,"velocity":0.7480314960629921,"duration":0.33749999999997726},{"name":"D#3","midi":51,"time":521.625,"velocity":0.7480314960629921,"duration":0.33749999999997726},{"name":"G2","midi":43,"time":522,"velocity":0.7480314960629921,"duration":0.33749999999997726},{"name":"D#3","midi":51,"time":522,"velocity":0.7480314960629921,"duration":0.33749999999997726},{"name":"B1","midi":35,"time":522,"velocity":0.7480314960629921,"duration":0.33749999999997726},{"name":"D#3","midi":51,"time":522.375,"velocity":0.7480314960629921,"duration":0.33749999999997726},{"name":"D2","midi":38,"time":522.75,"velocity":0.7480314960629921,"duration":0.33749999999997726},{"name":"D#3","midi":51,"time":522.75,"velocity":0.7480314960629921,"duration":0.33749999999997726},{"name":"D#3","midi":51,"time":523.125,"velocity":0.7480314960629921,"duration":0.33749999999997726},{"name":"D#3","midi":51,"time":523.5,"velocity":0.7480314960629921,"duration":0.33749999999997726},{"name":"G2","midi":43,"time":523.5,"velocity":0.7480314960629921,"duration":0.33749999999997726},{"name":"B1","midi":35,"time":523.5,"velocity":0.7480314960629921,"duration":0.33749999999997726},{"name":"G2","midi":43,"time":523.875,"velocity":0.7480314960629921,"duration":0.33749999999997726},{"name":"D#3","midi":51,"time":523.875,"velocity":0.7480314960629921,"duration":0.33749999999997726},{"name":"B1","midi":35,"time":523.875,"velocity":0.7480314960629921,"duration":0.33749999999997726},{"name":"D#3","midi":51,"time":524.25,"velocity":0.7480314960629921,"duration":0.33749999999997726},{"name":"D2","midi":38,"time":524.25,"velocity":0.7480314960629921,"duration":0.33749999999997726},{"name":"D#3","midi":51,"time":524.625,"velocity":0.7480314960629921,"duration":0.33749999999997726},{"name":"B1","midi":35,"time":525,"velocity":0.7480314960629921,"duration":0.33749999999997726},{"name":"G2","midi":43,"time":525,"velocity":0.7480314960629921,"duration":0.33749999999997726},{"name":"D#3","midi":51,"time":525,"velocity":0.7480314960629921,"duration":0.33749999999997726},{"name":"D#3","midi":51,"time":525.375,"velocity":0.7480314960629921,"duration":0.33749999999997726},{"name":"D#3","midi":51,"time":525.75,"velocity":0.7480314960629921,"duration":0.33749999999997726},{"name":"D2","midi":38,"time":525.75,"velocity":0.7480314960629921,"duration":0.33749999999997726},{"name":"D#3","midi":51,"time":526.125,"velocity":0.7480314960629921,"duration":0.33749999999997726},{"name":"B1","midi":35,"time":526.5,"velocity":0.7480314960629921,"duration":0.33749999999997726},{"name":"D#3","midi":51,"time":526.5,"velocity":0.7480314960629921,"duration":0.33749999999997726},{"name":"G2","midi":43,"time":526.5,"velocity":0.7480314960629921,"duration":0.33749999999997726},{"name":"D#3","midi":51,"time":526.875,"velocity":0.7480314960629921,"duration":0.33749999999997726},{"name":"G2","midi":43,"time":526.875,"velocity":0.7480314960629921,"duration":0.33749999999997726},{"name":"B1","midi":35,"time":526.875,"velocity":0.7480314960629921,"duration":0.33749999999997726},{"name":"D2","midi":38,"time":527.25,"velocity":0.7480314960629921,"duration":0.33749999999997726},{"name":"D#3","midi":51,"time":527.25,"velocity":0.7480314960629921,"duration":0.33749999999997726},{"name":"D#3","midi":51,"time":527.625,"velocity":0.7480314960629921,"duration":0.33749999999997726},{"name":"D#3","midi":51,"time":528,"velocity":0.7480314960629921,"duration":0.33749999999997726},{"name":"G2","midi":43,"time":528,"velocity":0.7480314960629921,"duration":0.33749999999997726},{"name":"B1","midi":35,"time":528,"velocity":0.7480314960629921,"duration":0.33749999999997726},{"name":"D#3","midi":51,"time":528.375,"velocity":0.7480314960629921,"duration":0.33749999999997726},{"name":"D#3","midi":51,"time":528.75,"velocity":0.7480314960629921,"duration":0.33749999999997726},{"name":"D2","midi":38,"time":528.75,"velocity":0.7480314960629921,"duration":0.33749999999997726},{"name":"D#3","midi":51,"time":529.125,"velocity":0.7480314960629921,"duration":0.33749999999997726},{"name":"D#3","midi":51,"time":529.5,"velocity":0.7480314960629921,"duration":0.33749999999997726},{"name":"G2","midi":43,"time":529.5,"velocity":0.7480314960629921,"duration":0.33749999999997726},{"name":"B1","midi":35,"time":529.5,"velocity":0.7480314960629921,"duration":0.33749999999997726},{"name":"B1","midi":35,"time":529.875,"velocity":0.7480314960629921,"duration":0.33749999999997726},{"name":"G2","midi":43,"time":529.875,"velocity":0.7480314960629921,"duration":0.33749999999997726},{"name":"D#3","midi":51,"time":529.875,"velocity":0.7480314960629921,"duration":0.33749999999997726},{"name":"D2","midi":38,"time":530.25,"velocity":0.7480314960629921,"duration":0.33749999999997726},{"name":"D#3","midi":51,"time":530.25,"velocity":0.7480314960629921,"duration":0.33749999999997726},{"name":"D#3","midi":51,"time":530.625,"velocity":0.7480314960629921,"duration":0.33749999999997726}]},{"instrumentFamily":"piano","notes":[{"name":"C#6","midi":85,"time":435,"velocity":0.7480314960629921,"duration":0.6750000000000114},{"name":"C#6","midi":85,"time":435.75,"velocity":0.7480314960629921,"duration":0.33749999999997726},{"name":"B5","midi":83,"time":436.125,"velocity":0.7480314960629921,"duration":0.33749999999997726},{"name":"C#6","midi":85,"time":436.5,"velocity":0.7480314960629921,"duration":0.6750000000000114},{"name":"C#6","midi":85,"time":437.25,"velocity":0.7480314960629921,"duration":0.33749999999997726},{"name":"B5","midi":83,"time":437.625,"velocity":0.7480314960629921,"duration":0.33749999999997726},{"name":"C#6","midi":85,"time":438,"velocity":0.7480314960629921,"duration":0.33749999999997726},{"name":"B5","midi":83,"time":438.375,"velocity":0.7480314960629921,"duration":0.33749999999997726},{"name":"C#6","midi":85,"time":438.75,"velocity":0.7480314960629921,"duration":0.6750000000000114},{"name":"C#6","midi":85,"time":439.5,"velocity":0.7480314960629921,"duration":0.33749999999997726},{"name":"B5","midi":83,"time":439.875,"velocity":0.7480314960629921,"duration":0.33749999999997726},{"name":"C#6","midi":85,"time":440.25,"velocity":0.7480314960629921,"duration":0.33749999999997726},{"name":"B5","midi":83,"time":440.625,"velocity":0.7480314960629921,"duration":0.33749999999997726},{"name":"C#6","midi":85,"time":441,"velocity":0.7480314960629921,"duration":0.6750000000000114},{"name":"C#6","midi":85,"time":441.75,"velocity":0.7480314960629921,"duration":0.33749999999997726},{"name":"B5","midi":83,"time":442.125,"velocity":0.7480314960629921,"duration":0.33749999999997726},{"name":"C#6","midi":85,"time":442.5,"velocity":0.7480314960629921,"duration":0.6750000000000114},{"name":"C#6","midi":85,"time":443.25,"velocity":0.7480314960629921,"duration":0.33749999999997726},{"name":"B5","midi":83,"time":443.625,"velocity":0.7480314960629921,"duration":0.33749999999997726},{"name":"C#6","midi":85,"time":444,"velocity":0.7480314960629921,"duration":0.33749999999997726},{"name":"B5","midi":83,"time":444.375,"velocity":0.7480314960629921,"duration":0.33749999999997726},{"name":"C#6","midi":85,"time":444.75,"velocity":0.7480314960629921,"duration":0.6750000000000114},{"name":"C#6","midi":85,"time":445.5,"velocity":0.7480314960629921,"duration":0.33749999999997726},{"name":"B5","midi":83,"time":445.875,"velocity":0.7480314960629921,"duration":0.33749999999997726},{"name":"C#6","midi":85,"time":446.25,"velocity":0.7480314960629921,"duration":0.33749999999997726},{"name":"B5","midi":83,"time":446.625,"velocity":0.7480314960629921,"duration":0.33749999999997726},{"name":"A5","midi":81,"time":447,"velocity":0.7480314960629921,"duration":0.6750000000000114},{"name":"A5","midi":81,"time":447.75,"velocity":0.7480314960629921,"duration":0.33749999999997726},{"name":"B5","midi":83,"time":448.125,"velocity":0.7480314960629921,"duration":0.33749999999997726},{"name":"A5","midi":81,"time":448.5,"velocity":0.7480314960629921,"duration":0.6750000000000114},{"name":"G#5","midi":80,"time":449.25,"velocity":0.7480314960629921,"duration":0.33749999999997726},{"name":"A5","midi":81,"time":449.625,"velocity":0.7480314960629921,"duration":0.33749999999997726},{"name":"G#5","midi":80,"time":450,"velocity":0.7480314960629921,"duration":0.33749999999997726},{"name":"A5","midi":81,"time":450.375,"velocity":0.7480314960629921,"duration":0.33749999999997726},{"name":"G#5","midi":80,"time":450.75,"velocity":0.7480314960629921,"duration":0.6750000000000114},{"name":"G#5","midi":80,"time":451.5,"velocity":0.7480314960629921,"duration":0.33749999999997726},{"name":"A5","midi":81,"time":451.875,"velocity":0.7480314960629921,"duration":0.33749999999997726},{"name":"G#5","midi":80,"time":452.25,"velocity":0.7480314960629921,"duration":0.33749999999997726},{"name":"E5","midi":76,"time":452.625,"velocity":0.7480314960629921,"duration":0.33749999999997726},{"name":"F#5","midi":78,"time":453,"velocity":0.7480314960629921,"duration":0.6750000000000114},{"name":"F#5","midi":78,"time":453.75,"velocity":0.7480314960629921,"duration":0.33749999999997726},{"name":"E5","midi":76,"time":454.125,"velocity":0.7480314960629921,"duration":0.33749999999997726},{"name":"F#5","midi":78,"time":454.5,"velocity":0.7480314960629921,"duration":0.6750000000000114},{"name":"F#5","midi":78,"time":455.25,"velocity":0.7480314960629921,"duration":0.33749999999997726},{"name":"E5","midi":76,"time":455.625,"velocity":0.7480314960629921,"duration":0.33749999999997726},{"name":"F#5","midi":78,"time":456,"velocity":0.7480314960629921,"duration":0.6750000000000114},{"name":"G#5","midi":80,"time":456.75,"velocity":0.7480314960629921,"duration":0.6750000000000114},{"name":"A5","midi":81,"time":457.5,"velocity":0.7480314960629921,"duration":0.6750000000000114},{"name":"C#6","midi":85,"time":458.25,"velocity":0.7480314960629921,"duration":0.33749999999997726},{"name":"B5","midi":83,"time":458.625,"velocity":0.7480314960629921,"duration":0.33749999999997726},{"name":"C#6","midi":85,"time":459,"velocity":0.7480314960629921,"duration":0.6750000000000114},{"name":"C#6","midi":85,"time":459.75,"velocity":0.7480314960629921,"duration":0.33749999999997726},{"name":"B5","midi":83,"time":460.125,"velocity":0.7480314960629921,"duration":0.33749999999997726},{"name":"C#6","midi":85,"time":460.5,"velocity":0.7480314960629921,"duration":0.6750000000000114},{"name":"C#6","midi":85,"time":461.25,"velocity":0.7480314960629921,"duration":0.33749999999997726},{"name":"B5","midi":83,"time":461.625,"velocity":0.7480314960629921,"duration":0.33749999999997726},{"name":"C#6","midi":85,"time":462,"velocity":0.7480314960629921,"duration":0.33749999999997726},{"name":"B5","midi":83,"time":462.375,"velocity":0.7480314960629921,"duration":0.33749999999997726},{"name":"C#6","midi":85,"time":462.75,"velocity":0.7480314960629921,"duration":0.6750000000000114},{"name":"C#6","midi":85,"time":463.5,"velocity":0.7480314960629921,"duration":0.33749999999997726},{"name":"B5","midi":83,"time":463.875,"velocity":0.7480314960629921,"duration":0.33749999999997726},{"name":"C#6","midi":85,"time":464.25,"velocity":0.7480314960629921,"duration":0.33749999999997726},{"name":"B5","midi":83,"time":464.625,"velocity":0.7480314960629921,"duration":0.33749999999997726},{"name":"C#6","midi":85,"time":465,"velocity":0.7480314960629921,"duration":0.6750000000000114},{"name":"C#6","midi":85,"time":465.75,"velocity":0.7480314960629921,"duration":0.33749999999997726},{"name":"B5","midi":83,"time":466.125,"velocity":0.7480314960629921,"duration":0.33749999999997726},{"name":"C#6","midi":85,"time":466.5,"velocity":0.7480314960629921,"duration":0.6750000000000114},{"name":"C#6","midi":85,"time":467.25,"velocity":0.7480314960629921,"duration":0.33749999999997726},{"name":"B5","midi":83,"time":467.625,"velocity":0.7480314960629921,"duration":0.33749999999997726},{"name":"C#6","midi":85,"time":468,"velocity":0.7480314960629921,"duration":0.33749999999997726},{"name":"B5","midi":83,"time":468.375,"velocity":0.7480314960629921,"duration":0.33749999999997726},{"name":"C#6","midi":85,"time":468.75,"velocity":0.7480314960629921,"duration":0.6750000000000114},{"name":"C#6","midi":85,"time":469.5,"velocity":0.7480314960629921,"duration":0.33749999999997726},{"name":"B5","midi":83,"time":469.875,"velocity":0.7480314960629921,"duration":0.33749999999997726},{"name":"C#6","midi":85,"time":470.25,"velocity":0.7480314960629921,"duration":0.33749999999997726},{"name":"B5","midi":83,"time":470.625,"velocity":0.7480314960629921,"duration":0.33749999999997726},{"name":"A5","midi":81,"time":471,"velocity":0.7480314960629921,"duration":0.6750000000000114},{"name":"A5","midi":81,"time":471.75,"velocity":0.7480314960629921,"duration":0.33749999999997726},{"name":"B5","midi":83,"time":472.125,"velocity":0.7480314960629921,"duration":0.33749999999997726},{"name":"A5","midi":81,"time":472.5,"velocity":0.7480314960629921,"duration":0.6750000000000114},{"name":"G#5","midi":80,"time":473.25,"velocity":0.7480314960629921,"duration":0.33749999999997726},{"name":"A5","midi":81,"time":473.625,"velocity":0.7480314960629921,"duration":0.33749999999997726},{"name":"G#5","midi":80,"time":474,"velocity":0.7480314960629921,"duration":0.33749999999997726},{"name":"A5","midi":81,"time":474.375,"velocity":0.7480314960629921,"duration":0.33749999999997726},{"name":"G#5","midi":80,"time":474.75,"velocity":0.7480314960629921,"duration":0.6750000000000114},{"name":"G#5","midi":80,"time":475.5,"velocity":0.7480314960629921,"duration":0.33749999999997726},{"name":"A5","midi":81,"time":475.875,"velocity":0.7480314960629921,"duration":0.33749999999997726},{"name":"G#5","midi":80,"time":476.25,"velocity":0.7480314960629921,"duration":0.33749999999997726},{"name":"E5","midi":76,"time":476.625,"velocity":0.7480314960629921,"duration":0.33749999999997726},{"name":"F#5","midi":78,"time":477,"velocity":0.7480314960629921,"duration":0.6750000000000114},{"name":"F#5","midi":78,"time":477.75,"velocity":0.7480314960629921,"duration":0.33749999999997726},{"name":"E5","midi":76,"time":478.125,"velocity":0.7480314960629921,"duration":0.33749999999997726},{"name":"F#5","midi":78,"time":478.5,"velocity":0.7480314960629921,"duration":0.6750000000000114},{"name":"F#5","midi":78,"time":479.25,"velocity":0.7480314960629921,"duration":0.33749999999997726},{"name":"E5","midi":76,"time":479.625,"velocity":0.7480314960629921,"duration":0.33749999999997726},{"name":"F#5","midi":78,"time":480,"velocity":0.7480314960629921,"duration":0.6750000000000114},{"name":"G#5","midi":80,"time":480.75,"velocity":0.7480314960629921,"duration":0.6750000000000114},{"name":"A5","midi":81,"time":481.5,"velocity":0.7480314960629921,"duration":0.6750000000000114},{"name":"C#6","midi":85,"time":482.25,"velocity":0.7480314960629921,"duration":0.33749999999997726},{"name":"B5","midi":83,"time":482.625,"velocity":0.7480314960629921,"duration":0.33749999999997726},{"name":"C#6","midi":85,"time":483,"velocity":0.7480314960629921,"duration":0.6750000000000114},{"name":"C#6","midi":85,"time":483.75,"velocity":0.7480314960629921,"duration":0.33749999999997726},{"name":"B5","midi":83,"time":484.125,"velocity":0.7480314960629921,"duration":0.33749999999997726},{"name":"C#6","midi":85,"time":484.5,"velocity":0.7480314960629921,"duration":0.6750000000000114},{"name":"C#6","midi":85,"time":485.25,"velocity":0.7480314960629921,"duration":0.33749999999997726},{"name":"B5","midi":83,"time":485.625,"velocity":0.7480314960629921,"duration":0.33749999999997726},{"name":"C#6","midi":85,"time":486,"velocity":0.7480314960629921,"duration":0.33749999999997726},{"name":"B5","midi":83,"time":486.375,"velocity":0.7480314960629921,"duration":0.33749999999997726},{"name":"C#6","midi":85,"time":486.75,"velocity":0.7480314960629921,"duration":0.6750000000000114},{"name":"C#6","midi":85,"time":487.5,"velocity":0.7480314960629921,"duration":0.33749999999997726},{"name":"B5","midi":83,"time":487.875,"velocity":0.7480314960629921,"duration":0.33749999999997726},{"name":"C#6","midi":85,"time":488.25,"velocity":0.7480314960629921,"duration":0.33749999999997726},{"name":"B5","midi":83,"time":488.625,"velocity":0.7480314960629921,"duration":0.33749999999997726},{"name":"C#6","midi":85,"time":489,"velocity":0.7480314960629921,"duration":0.6750000000000114},{"name":"C#6","midi":85,"time":489.75,"velocity":0.7480314960629921,"duration":0.33749999999997726},{"name":"B5","midi":83,"time":490.125,"velocity":0.7480314960629921,"duration":0.33749999999997726},{"name":"C#6","midi":85,"time":490.5,"velocity":0.7480314960629921,"duration":0.6750000000000114},{"name":"C#6","midi":85,"time":491.25,"velocity":0.7480314960629921,"duration":0.33749999999997726},{"name":"B5","midi":83,"time":491.625,"velocity":0.7480314960629921,"duration":0.33749999999997726},{"name":"C#6","midi":85,"time":492,"velocity":0.7480314960629921,"duration":0.33749999999997726},{"name":"B5","midi":83,"time":492.375,"velocity":0.7480314960629921,"duration":0.33749999999997726},{"name":"C#6","midi":85,"time":492.75,"velocity":0.7480314960629921,"duration":0.6750000000000114},{"name":"C#6","midi":85,"time":493.5,"velocity":0.7480314960629921,"duration":0.33749999999997726},{"name":"B5","midi":83,"time":493.875,"velocity":0.7480314960629921,"duration":0.33749999999997726},{"name":"C#6","midi":85,"time":494.25,"velocity":0.7480314960629921,"duration":0.33749999999997726},{"name":"B5","midi":83,"time":494.625,"velocity":0.7480314960629921,"duration":0.33749999999997726},{"name":"A5","midi":81,"time":495,"velocity":0.7480314960629921,"duration":0.6750000000000114},{"name":"A5","midi":81,"time":495.75,"velocity":0.7480314960629921,"duration":0.33749999999997726},{"name":"B5","midi":83,"time":496.125,"velocity":0.7480314960629921,"duration":0.33749999999997726},{"name":"A5","midi":81,"time":496.5,"velocity":0.7480314960629921,"duration":0.6750000000000114},{"name":"G#5","midi":80,"time":497.25,"velocity":0.7480314960629921,"duration":0.33749999999997726},{"name":"A5","midi":81,"time":497.625,"velocity":0.7480314960629921,"duration":0.33749999999997726},{"name":"G#5","midi":80,"time":498,"velocity":0.7480314960629921,"duration":0.33749999999997726},{"name":"A5","midi":81,"time":498.375,"velocity":0.7480314960629921,"duration":0.33749999999997726},{"name":"G#5","midi":80,"time":498.75,"velocity":0.7480314960629921,"duration":0.6750000000000114},{"name":"G#5","midi":80,"time":499.5,"velocity":0.7480314960629921,"duration":0.33749999999997726},{"name":"A5","midi":81,"time":499.875,"velocity":0.7480314960629921,"duration":0.33749999999997726},{"name":"G#5","midi":80,"time":500.25,"velocity":0.7480314960629921,"duration":0.33749999999997726},{"name":"E5","midi":76,"time":500.625,"velocity":0.7480314960629921,"duration":0.33749999999997726},{"name":"F#5","midi":78,"time":501,"velocity":0.7480314960629921,"duration":0.6750000000000114},{"name":"F#5","midi":78,"time":501.75,"velocity":0.7480314960629921,"duration":0.33749999999997726},{"name":"E5","midi":76,"time":502.125,"velocity":0.7480314960629921,"duration":0.33749999999997726},{"name":"F#5","midi":78,"time":502.5,"velocity":0.7480314960629921,"duration":0.6750000000000114},{"name":"F#5","midi":78,"time":503.25,"velocity":0.7480314960629921,"duration":0.33749999999997726},{"name":"E5","midi":76,"time":503.625,"velocity":0.7480314960629921,"duration":0.33749999999997726},{"name":"F#5","midi":78,"time":504,"velocity":0.7480314960629921,"duration":0.6750000000000114},{"name":"G#5","midi":80,"time":504.75,"velocity":0.7480314960629921,"duration":0.6750000000000114},{"name":"A5","midi":81,"time":505.5,"velocity":0.7480314960629921,"duration":0.6750000000000114},{"name":"C#6","midi":85,"time":506.25,"velocity":0.7480314960629921,"duration":0.33749999999997726},{"name":"B5","midi":83,"time":506.625,"velocity":0.7480314960629921,"duration":0.33749999999997726},{"name":"C#6","midi":85,"time":507,"velocity":0.7480314960629921,"duration":0.6750000000000114},{"name":"C#6","midi":85,"time":507.75,"velocity":0.7480314960629921,"duration":0.33749999999997726},{"name":"B5","midi":83,"time":508.125,"velocity":0.7480314960629921,"duration":0.33749999999997726},{"name":"C#6","midi":85,"time":508.5,"velocity":0.7480314960629921,"duration":0.6750000000000114},{"name":"C#6","midi":85,"time":509.25,"velocity":0.7480314960629921,"duration":0.33749999999997726},{"name":"B5","midi":83,"time":509.625,"velocity":0.7480314960629921,"duration":0.33749999999997726},{"name":"C#6","midi":85,"time":510,"velocity":0.7480314960629921,"duration":0.33749999999997726},{"name":"B5","midi":83,"time":510.375,"velocity":0.7480314960629921,"duration":0.33749999999997726},{"name":"C#6","midi":85,"time":510.75,"velocity":0.7480314960629921,"duration":0.6750000000000114},{"name":"C#6","midi":85,"time":511.5,"velocity":0.7480314960629921,"duration":0.33749999999997726},{"name":"B5","midi":83,"time":511.875,"velocity":0.7480314960629921,"duration":0.33749999999997726},{"name":"C#6","midi":85,"time":512.25,"velocity":0.7480314960629921,"duration":0.33749999999997726},{"name":"B5","midi":83,"time":512.625,"velocity":0.7480314960629921,"duration":0.33749999999997726},{"name":"C#6","midi":85,"time":513,"velocity":0.7480314960629921,"duration":0.6749999999999545},{"name":"C#6","midi":85,"time":513.75,"velocity":0.7480314960629921,"duration":0.33749999999997726},{"name":"B5","midi":83,"time":514.125,"velocity":0.7480314960629921,"duration":0.33749999999997726},{"name":"C#6","midi":85,"time":514.5,"velocity":0.7480314960629921,"duration":0.6749999999999545},{"name":"C#6","midi":85,"time":515.25,"velocity":0.7480314960629921,"duration":0.33749999999997726},{"name":"B5","midi":83,"time":515.625,"velocity":0.7480314960629921,"duration":0.33749999999997726},{"name":"C#6","midi":85,"time":516,"velocity":0.7480314960629921,"duration":0.33749999999997726},{"name":"B5","midi":83,"time":516.375,"velocity":0.7480314960629921,"duration":0.33749999999997726},{"name":"C#6","midi":85,"time":516.75,"velocity":0.7480314960629921,"duration":0.6749999999999545},{"name":"C#6","midi":85,"time":517.5,"velocity":0.7480314960629921,"duration":0.33749999999997726},{"name":"B5","midi":83,"time":517.875,"velocity":0.7480314960629921,"duration":0.33749999999997726},{"name":"C#6","midi":85,"time":518.25,"velocity":0.7480314960629921,"duration":0.33749999999997726},{"name":"B5","midi":83,"time":518.625,"velocity":0.7480314960629921,"duration":0.33749999999997726},{"name":"A5","midi":81,"time":519,"velocity":0.7480314960629921,"duration":0.6749999999999545},{"name":"A5","midi":81,"time":519.75,"velocity":0.7480314960629921,"duration":0.33749999999997726},{"name":"B5","midi":83,"time":520.125,"velocity":0.7480314960629921,"duration":0.33749999999997726},{"name":"A5","midi":81,"time":520.5,"velocity":0.7480314960629921,"duration":0.6749999999999545},{"name":"G#5","midi":80,"time":521.25,"velocity":0.7480314960629921,"duration":0.33749999999997726},{"name":"A5","midi":81,"time":521.625,"velocity":0.7480314960629921,"duration":0.33749999999997726},{"name":"G#5","midi":80,"time":522,"velocity":0.7480314960629921,"duration":0.33749999999997726},{"name":"A5","midi":81,"time":522.375,"velocity":0.7480314960629921,"duration":0.33749999999997726},{"name":"G#5","midi":80,"time":522.75,"velocity":0.7480314960629921,"duration":0.6749999999999545},{"name":"G#5","midi":80,"time":523.5,"velocity":0.7480314960629921,"duration":0.33749999999997726},{"name":"A5","midi":81,"time":523.875,"velocity":0.7480314960629921,"duration":0.33749999999997726},{"name":"G#5","midi":80,"time":524.25,"velocity":0.7480314960629921,"duration":0.33749999999997726},{"name":"E5","midi":76,"time":524.625,"velocity":0.7480314960629921,"duration":0.33749999999997726},{"name":"F#5","midi":78,"time":525,"velocity":0.7480314960629921,"duration":0.6749999999999545},{"name":"F#5","midi":78,"time":525.75,"velocity":0.7480314960629921,"duration":0.33749999999997726},{"name":"E5","midi":76,"time":526.125,"velocity":0.7480314960629921,"duration":0.33749999999997726},{"name":"F#5","midi":78,"time":526.5,"velocity":0.7480314960629921,"duration":0.6749999999999545},{"name":"F#5","midi":78,"time":527.25,"velocity":0.7480314960629921,"duration":0.33749999999997726},{"name":"E5","midi":76,"time":527.625,"velocity":0.7480314960629921,"duration":0.33749999999997726},{"name":"F#5","midi":78,"time":528,"velocity":0.7480314960629921,"duration":0.6749999999999545},{"name":"G#5","midi":80,"time":528.75,"velocity":0.7480314960629921,"duration":0.6749999999999545},{"name":"A5","midi":81,"time":529.5,"velocity":0.7480314960629921,"duration":0.6749999999999545},{"name":"B5","midi":83,"time":530.25,"velocity":0.7480314960629921,"duration":2.1499999999999773}]},{"instrumentFamily":"piano","notes":[{"name":"A4","midi":69,"time":407.25,"velocity":0.7480314960629921,"duration":2.1499999999999773},{"name":"B4","midi":71,"time":409.5,"velocity":0.7480314960629921,"duration":1.3999999999999773},{"name":"C#5","midi":73,"time":411,"velocity":0.7480314960629921,"duration":4.399999999999977},{"name":"F#5","midi":78,"time":415.5,"velocity":0.7480314960629921,"duration":1.3999999999999773},{"name":"F#4","midi":66,"time":417,"velocity":0.7480314960629921,"duration":4.399999999999977},{"name":"B4","midi":71,"time":421.5,"velocity":0.7480314960629921,"duration":1.3999999999999773},{"name":"A4","midi":69,"time":423,"velocity":0.7480314960629921,"duration":2.1499999999999773},{"name":"G#4","midi":68,"time":425.25,"velocity":0.7480314960629921,"duration":3.6499999999999773},{"name":"F#4","midi":66,"time":429,"velocity":0.7480314960629921,"duration":2.1499999999999773},{"name":"A4","midi":69,"time":431.25,"velocity":0.7480314960629921,"duration":0.6750000000000114},{"name":"A4","midi":69,"time":432,"velocity":0.7480314960629921,"duration":1.3999999999999773},{"name":"B4","midi":71,"time":433.5,"velocity":0.7480314960629921,"duration":1.3999999999999773},{"name":"C#5","midi":73,"time":435,"velocity":0.7480314960629921,"duration":4.399999999999977},{"name":"F#5","midi":78,"time":439.5,"velocity":0.7480314960629921,"duration":1.3999999999999773},{"name":"F#4","midi":66,"time":441,"velocity":0.7480314960629921,"duration":4.399999999999977},{"name":"B4","midi":71,"time":445.5,"velocity":0.7480314960629921,"duration":1.3999999999999773},{"name":"A4","midi":69,"time":447,"velocity":0.7480314960629921,"duration":2.1499999999999773},{"name":"G#4","midi":68,"time":449.25,"velocity":0.7480314960629921,"duration":3.6499999999999773},{"name":"F#4","midi":66,"time":453,"velocity":0.7480314960629921,"duration":2.1499999999999773},{"name":"A4","midi":69,"time":455.25,"velocity":0.7480314960629921,"duration":0.6750000000000114},{"name":"A4","midi":69,"time":456,"velocity":0.7480314960629921,"duration":1.3999999999999773},{"name":"B4","midi":71,"time":457.5,"velocity":0.7480314960629921,"duration":1.3999999999999773},{"name":"C#4","midi":61,"time":457.875,"velocity":0.7480314960629921,"duration":1.0249999999999773},{"name":"C#5","midi":73,"time":459,"velocity":0.7480314960629921,"duration":4.399999999999977},{"name":"F#5","midi":78,"time":463.5,"velocity":0.7480314960629921,"duration":1.3999999999999773},{"name":"F#4","midi":66,"time":465,"velocity":0.7480314960629921,"duration":4.399999999999977},{"name":"B4","midi":71,"time":469.5,"velocity":0.7480314960629921,"duration":1.3999999999999773},{"name":"A4","midi":69,"time":471,"velocity":0.7480314960629921,"duration":2.1499999999999773},{"name":"G#4","midi":68,"time":473.25,"velocity":0.7480314960629921,"duration":3.6499999999999773},{"name":"F#4","midi":66,"time":477,"velocity":0.7480314960629921,"duration":2.1499999999999773},{"name":"A4","midi":69,"time":479.25,"velocity":0.7480314960629921,"duration":0.6750000000000114},{"name":"A4","midi":69,"time":480,"velocity":0.7480314960629921,"duration":1.3999999999999773},{"name":"B4","midi":71,"time":481.5,"velocity":0.7480314960629921,"duration":1.3999999999999773},{"name":"C#4","midi":61,"time":481.875,"velocity":0.7480314960629921,"duration":1.0249999999999773},{"name":"C#5","midi":73,"time":483,"velocity":0.7480314960629921,"duration":4.399999999999977},{"name":"F#5","midi":78,"time":487.5,"velocity":0.7480314960629921,"duration":1.3999999999999773},{"name":"F#4","midi":66,"time":489,"velocity":0.7480314960629921,"duration":4.399999999999977},{"name":"B4","midi":71,"time":493.5,"velocity":0.7480314960629921,"duration":1.3999999999999773},{"name":"A4","midi":69,"time":495,"velocity":0.7480314960629921,"duration":2.1499999999999773},{"name":"G#4","midi":68,"time":497.25,"velocity":0.7480314960629921,"duration":3.6499999999999773},{"name":"F#4","midi":66,"time":501,"velocity":0.7480314960629921,"duration":2.1499999999999773},{"name":"A4","midi":69,"time":503.25,"velocity":0.7480314960629921,"duration":0.6750000000000114},{"name":"A4","midi":69,"time":504,"velocity":0.7480314960629921,"duration":1.3999999999999773},{"name":"B4","midi":71,"time":505.5,"velocity":0.7480314960629921,"duration":1.3999999999999773},{"name":"C#5","midi":73,"time":507,"velocity":0.7480314960629921,"duration":4.399999999999977},{"name":"F#5","midi":78,"time":511.5,"velocity":0.7480314960629921,"duration":1.3999999999999773},{"name":"F#4","midi":66,"time":513,"velocity":0.7480314960629921,"duration":4.399999999999977},{"name":"B4","midi":71,"time":517.5,"velocity":0.7480314960629921,"duration":1.3999999999999773},{"name":"A4","midi":69,"time":519,"velocity":0.7480314960629921,"duration":2.1499999999999773},{"name":"G#4","midi":68,"time":521.25,"velocity":0.7480314960629921,"duration":3.6499999999999773},{"name":"F#4","midi":66,"time":525,"velocity":0.7480314960629921,"duration":2.1499999999999773},{"name":"A4","midi":69,"time":527.25,"velocity":0.7480314960629921,"duration":0.6749999999999545},{"name":"A4","midi":69,"time":528,"velocity":0.7480314960629921,"duration":1.3999999999999773},{"name":"B4","midi":71,"time":529.5,"velocity":0.7480314960629921,"duration":1.3999999999999773},{"name":"B4","midi":71,"time":531,"velocity":0.7480314960629921,"duration":1.3999999999999773}]},{"instrumentFamily":"piano","notes":[{"name":"A1","midi":33,"time":291,"velocity":0.7480314960629921,"duration":0.33749999999997726},{"name":"A1","midi":33,"time":291.375,"velocity":0.7480314960629921,"duration":0.33749999999997726},{"name":"A1","midi":33,"time":291.75,"velocity":0.7480314960629921,"duration":0.33749999999997726},{"name":"A1","midi":33,"time":292.125,"velocity":0.7480314960629921,"duration":0.33749999999997726},{"name":"A1","midi":33,"time":292.5,"velocity":0.7480314960629921,"duration":0.33749999999997726},{"name":"A1","midi":33,"time":292.875,"velocity":0.7480314960629921,"duration":0.33749999999997726},{"name":"A1","midi":33,"time":293.25,"velocity":0.7480314960629921,"duration":0.33749999999997726},{"name":"A1","midi":33,"time":293.625,"velocity":0.7480314960629921,"duration":0.33749999999997726},{"name":"A1","midi":33,"time":294,"velocity":0.7480314960629921,"duration":0.33749999999997726},{"name":"A1","midi":33,"time":294.375,"velocity":0.7480314960629921,"duration":0.33749999999997726},{"name":"A1","midi":33,"time":294.75,"velocity":0.7480314960629921,"duration":0.33749999999997726},{"name":"A1","midi":33,"time":295.125,"velocity":0.7480314960629921,"duration":0.33749999999997726},{"name":"A1","midi":33,"time":295.5,"velocity":0.7480314960629921,"duration":0.33749999999997726},{"name":"A1","midi":33,"time":295.875,"velocity":0.7480314960629921,"duration":0.33749999999997726},{"name":"A1","midi":33,"time":296.25,"velocity":0.7480314960629921,"duration":0.33749999999997726},{"name":"A1","midi":33,"time":296.625,"velocity":0.7480314960629921,"duration":0.33749999999997726},{"name":"E2","midi":40,"time":297,"velocity":0.7480314960629921,"duration":0.33749999999997726},{"name":"E2","midi":40,"time":297.375,"velocity":0.7480314960629921,"duration":0.33749999999997726},{"name":"E2","midi":40,"time":297.75,"velocity":0.7480314960629921,"duration":0.33749999999997726},{"name":"E2","midi":40,"time":298.125,"velocity":0.7480314960629921,"duration":0.33749999999997726},{"name":"E2","midi":40,"time":298.5,"velocity":0.7480314960629921,"duration":0.33749999999997726},{"name":"E2","midi":40,"time":298.875,"velocity":0.7480314960629921,"duration":0.33749999999997726},{"name":"E2","midi":40,"time":299.25,"velocity":0.7480314960629921,"duration":0.33749999999997726},{"name":"E2","midi":40,"time":299.625,"velocity":0.7480314960629921,"duration":0.33749999999997726},{"name":"E2","midi":40,"time":300,"velocity":0.7480314960629921,"duration":0.33749999999997726},{"name":"E2","midi":40,"time":300.375,"velocity":0.7480314960629921,"duration":0.33749999999997726},{"name":"E2","midi":40,"time":300.75,"velocity":0.7480314960629921,"duration":0.33749999999997726},{"name":"E2","midi":40,"time":301.125,"velocity":0.7480314960629921,"duration":0.33749999999997726},{"name":"E2","midi":40,"time":301.5,"velocity":0.7480314960629921,"duration":0.33749999999997726},{"name":"F#2","midi":42,"time":301.875,"velocity":0.7480314960629921,"duration":0.33749999999997726},{"name":"F#2","midi":42,"time":302.25,"velocity":0.7480314960629921,"duration":0.33749999999997726},{"name":"F#2","midi":42,"time":302.625,"velocity":0.7480314960629921,"duration":0.33749999999997726},{"name":"B1","midi":35,"time":303,"velocity":0.7480314960629921,"duration":0.33749999999997726},{"name":"B1","midi":35,"time":303.375,"velocity":0.7480314960629921,"duration":0.33749999999997726},{"name":"B1","midi":35,"time":303.75,"velocity":0.7480314960629921,"duration":0.33749999999997726},{"name":"B1","midi":35,"time":304.125,"velocity":0.7480314960629921,"duration":0.33749999999997726},{"name":"B1","midi":35,"time":304.5,"velocity":0.7480314960629921,"duration":0.33749999999997726},{"name":"B1","midi":35,"time":304.875,"velocity":0.7480314960629921,"duration":0.33749999999997726},{"name":"B1","midi":35,"time":305.25,"velocity":0.7480314960629921,"duration":0.33749999999997726},{"name":"B1","midi":35,"time":305.625,"velocity":0.7480314960629921,"duration":0.33749999999997726},{"name":"B1","midi":35,"time":306,"velocity":0.7480314960629921,"duration":0.33749999999997726},{"name":"B1","midi":35,"time":306.375,"velocity":0.7480314960629921,"duration":0.33749999999997726},{"name":"B1","midi":35,"time":306.75,"velocity":0.7480314960629921,"duration":0.33749999999997726},{"name":"B1","midi":35,"time":307.125,"velocity":0.7480314960629921,"duration":0.33749999999997726},{"name":"B1","midi":35,"time":307.5,"velocity":0.7480314960629921,"duration":0.33749999999997726},{"name":"C#2","midi":37,"time":307.875,"velocity":0.7480314960629921,"duration":0.33749999999997726},{"name":"C#2","midi":37,"time":308.25,"velocity":0.7480314960629921,"duration":0.33749999999997726},{"name":"C#2","midi":37,"time":308.625,"velocity":0.7480314960629921,"duration":0.33749999999997726},{"name":"D2","midi":38,"time":309,"velocity":0.7480314960629921,"duration":0.33749999999997726},{"name":"D2","midi":38,"time":309.375,"velocity":0.7480314960629921,"duration":0.33749999999997726},{"name":"D2","midi":38,"time":309.75,"velocity":0.7480314960629921,"duration":0.33749999999997726},{"name":"D2","midi":38,"time":310.125,"velocity":0.7480314960629921,"duration":0.33749999999997726},{"name":"D2","midi":38,"time":310.5,"velocity":0.7480314960629921,"duration":0.33749999999997726},{"name":"D2","midi":38,"time":310.875,"velocity":0.7480314960629921,"duration":0.33749999999997726},{"name":"D2","midi":38,"time":311.25,"velocity":0.7480314960629921,"duration":0.33749999999997726},{"name":"D2","midi":38,"time":311.625,"velocity":0.7480314960629921,"duration":0.33749999999997726},{"name":"D2","midi":38,"time":312,"velocity":0.7480314960629921,"duration":0.33749999999997726},{"name":"D2","midi":38,"time":312.375,"velocity":0.7480314960629921,"duration":0.33749999999997726},{"name":"D2","midi":38,"time":312.75,"velocity":0.7480314960629921,"duration":0.33749999999997726},{"name":"D2","midi":38,"time":313.125,"velocity":0.7480314960629921,"duration":0.33749999999997726},{"name":"D2","midi":38,"time":313.5,"velocity":0.7480314960629921,"duration":0.33749999999997726},{"name":"E2","midi":40,"time":313.875,"velocity":0.7480314960629921,"duration":0.33749999999997726},{"name":"E2","midi":40,"time":314.25,"velocity":0.7480314960629921,"duration":0.33749999999997726},{"name":"E2","midi":40,"time":314.625,"velocity":0.7480314960629921,"duration":0.33749999999997726},{"name":"A2","midi":45,"time":315,"velocity":0.7480314960629921,"duration":0.33749999999997726},{"name":"A2","midi":45,"time":315.375,"velocity":0.7480314960629921,"duration":0.33749999999997726},{"name":"A2","midi":45,"time":315.75,"velocity":0.7480314960629921,"duration":0.33749999999997726},{"name":"A2","midi":45,"time":316.125,"velocity":0.7480314960629921,"duration":0.33749999999997726},{"name":"A2","midi":45,"time":316.5,"velocity":0.7480314960629921,"duration":0.33749999999997726},{"name":"A2","midi":45,"time":316.875,"velocity":0.7480314960629921,"duration":0.33749999999997726},{"name":"A2","midi":45,"time":317.25,"velocity":0.7480314960629921,"duration":0.33749999999997726},{"name":"A2","midi":45,"time":317.625,"velocity":0.7480314960629921,"duration":0.33749999999997726},{"name":"A2","midi":45,"time":318,"velocity":0.7480314960629921,"duration":0.33749999999997726},{"name":"A2","midi":45,"time":318.375,"velocity":0.7480314960629921,"duration":0.33749999999997726},{"name":"A2","midi":45,"time":318.75,"velocity":0.7480314960629921,"duration":0.33749999999997726},{"name":"A2","midi":45,"time":319.125,"velocity":0.7480314960629921,"duration":0.33749999999997726},{"name":"A2","midi":45,"time":319.5,"velocity":0.7480314960629921,"duration":0.33749999999997726},{"name":"A2","midi":45,"time":319.875,"velocity":0.7480314960629921,"duration":0.33749999999997726},{"name":"A2","midi":45,"time":320.25,"velocity":0.7480314960629921,"duration":0.33749999999997726},{"name":"A2","midi":45,"time":320.625,"velocity":0.7480314960629921,"duration":0.33749999999997726},{"name":"E2","midi":40,"time":321,"velocity":0.7480314960629921,"duration":0.33749999999997726},{"name":"E2","midi":40,"time":321.375,"velocity":0.7480314960629921,"duration":0.33749999999997726},{"name":"E2","midi":40,"time":321.75,"velocity":0.7480314960629921,"duration":0.33749999999997726},{"name":"E2","midi":40,"time":322.125,"velocity":0.7480314960629921,"duration":0.33749999999997726},{"name":"E2","midi":40,"time":322.5,"velocity":0.7480314960629921,"duration":0.33749999999997726},{"name":"E2","midi":40,"time":322.875,"velocity":0.7480314960629921,"duration":0.33749999999997726},{"name":"E2","midi":40,"time":323.25,"velocity":0.7480314960629921,"duration":0.33749999999997726},{"name":"E2","midi":40,"time":323.625,"velocity":0.7480314960629921,"duration":0.33749999999997726},{"name":"E2","midi":40,"time":324,"velocity":0.7480314960629921,"duration":0.33749999999997726},{"name":"E2","midi":40,"time":324.375,"velocity":0.7480314960629921,"duration":0.33749999999997726},{"name":"E2","midi":40,"time":324.75,"velocity":0.7480314960629921,"duration":0.33749999999997726},{"name":"E2","midi":40,"time":325.125,"velocity":0.7480314960629921,"duration":0.33749999999997726},{"name":"E2","midi":40,"time":325.5,"velocity":0.7480314960629921,"duration":0.33749999999997726},{"name":"F#2","midi":42,"time":325.875,"velocity":0.7480314960629921,"duration":0.33749999999997726},{"name":"F#2","midi":42,"time":326.25,"velocity":0.7480314960629921,"duration":0.33749999999997726},{"name":"F#2","midi":42,"time":326.625,"velocity":0.7480314960629921,"duration":0.33749999999997726},{"name":"B1","midi":35,"time":327,"velocity":0.7480314960629921,"duration":0.33749999999997726},{"name":"B1","midi":35,"time":327.375,"velocity":0.7480314960629921,"duration":0.33749999999997726},{"name":"B1","midi":35,"time":327.75,"velocity":0.7480314960629921,"duration":0.33749999999997726},{"name":"B1","midi":35,"time":328.125,"velocity":0.7480314960629921,"duration":0.33749999999997726},{"name":"B1","midi":35,"time":328.5,"velocity":0.7480314960629921,"duration":0.33749999999997726},{"name":"B1","midi":35,"time":328.875,"velocity":0.7480314960629921,"duration":0.33749999999997726},{"name":"B1","midi":35,"time":329.25,"velocity":0.7480314960629921,"duration":0.33749999999997726},{"name":"B1","midi":35,"time":329.625,"velocity":0.7480314960629921,"duration":0.33749999999997726},{"name":"B1","midi":35,"time":330,"velocity":0.7480314960629921,"duration":0.33749999999997726},{"name":"B1","midi":35,"time":330.375,"velocity":0.7480314960629921,"duration":0.33749999999997726},{"name":"B1","midi":35,"time":330.75,"velocity":0.7480314960629921,"duration":0.33749999999997726},{"name":"B1","midi":35,"time":331.125,"velocity":0.7480314960629921,"duration":0.33749999999997726},{"name":"B1","midi":35,"time":331.5,"velocity":0.7480314960629921,"duration":0.33749999999997726},{"name":"C#2","midi":37,"time":331.875,"velocity":0.7480314960629921,"duration":0.33749999999997726},{"name":"C#2","midi":37,"time":332.25,"velocity":0.7480314960629921,"duration":0.33749999999997726},{"name":"C#2","midi":37,"time":332.625,"velocity":0.7480314960629921,"duration":0.33749999999997726},{"name":"D2","midi":38,"time":333,"velocity":0.7480314960629921,"duration":0.33749999999997726},{"name":"D2","midi":38,"time":333.375,"velocity":0.7480314960629921,"duration":0.33749999999997726},{"name":"D2","midi":38,"time":333.75,"velocity":0.7480314960629921,"duration":0.33749999999997726},{"name":"D2","midi":38,"time":334.125,"velocity":0.7480314960629921,"duration":0.33749999999997726},{"name":"D2","midi":38,"time":334.5,"velocity":0.7480314960629921,"duration":0.33749999999997726},{"name":"D2","midi":38,"time":334.875,"velocity":0.7480314960629921,"duration":0.33749999999997726},{"name":"D2","midi":38,"time":335.25,"velocity":0.7480314960629921,"duration":0.33749999999997726},{"name":"D2","midi":38,"time":335.625,"velocity":0.7480314960629921,"duration":0.33749999999997726},{"name":"D2","midi":38,"time":336,"velocity":0.7480314960629921,"duration":0.33749999999997726},{"name":"D2","midi":38,"time":336.375,"velocity":0.7480314960629921,"duration":0.33749999999997726},{"name":"D2","midi":38,"time":336.75,"velocity":0.7480314960629921,"duration":0.33749999999997726},{"name":"D2","midi":38,"time":337.125,"velocity":0.7480314960629921,"duration":0.33749999999997726},{"name":"D2","midi":38,"time":337.5,"velocity":0.7480314960629921,"duration":0.33749999999997726},{"name":"C#2","midi":37,"time":337.875,"velocity":0.7480314960629921,"duration":0.33749999999997726},{"name":"D2","midi":38,"time":338.25,"velocity":0.7480314960629921,"duration":0.33749999999997726},{"name":"E2","midi":40,"time":338.625,"velocity":0.7480314960629921,"duration":0.33749999999997726},{"name":"A2","midi":45,"time":339,"velocity":0.7480314960629921,"duration":0.33749999999997726},{"name":"A2","midi":45,"time":339.375,"velocity":0.7480314960629921,"duration":0.33749999999997726},{"name":"A2","midi":45,"time":339.75,"velocity":0.7480314960629921,"duration":0.33749999999997726},{"name":"A2","midi":45,"time":340.125,"velocity":0.7480314960629921,"duration":0.33749999999997726},{"name":"A2","midi":45,"time":340.5,"velocity":0.7480314960629921,"duration":0.33749999999997726},{"name":"A2","midi":45,"time":340.875,"velocity":0.7480314960629921,"duration":0.33749999999997726},{"name":"A2","midi":45,"time":341.25,"velocity":0.7480314960629921,"duration":0.33749999999997726},{"name":"A2","midi":45,"time":341.625,"velocity":0.7480314960629921,"duration":0.33749999999997726},{"name":"A2","midi":45,"time":342,"velocity":0.7480314960629921,"duration":0.33749999999997726},{"name":"A2","midi":45,"time":342.375,"velocity":0.7480314960629921,"duration":0.33749999999997726},{"name":"A2","midi":45,"time":342.75,"velocity":0.7480314960629921,"duration":0.33749999999997726},{"name":"A2","midi":45,"time":343.125,"velocity":0.7480314960629921,"duration":0.33749999999997726},{"name":"A2","midi":45,"time":343.5,"velocity":0.7480314960629921,"duration":0.33749999999997726},{"name":"A2","midi":45,"time":343.875,"velocity":0.7480314960629921,"duration":0.33749999999997726},{"name":"A2","midi":45,"time":344.25,"velocity":0.7480314960629921,"duration":0.33749999999997726},{"name":"A2","midi":45,"time":344.625,"velocity":0.7480314960629921,"duration":0.33749999999997726},{"name":"D2","midi":38,"time":345,"velocity":0.7480314960629921,"duration":0.33749999999997726},{"name":"D2","midi":38,"time":345.375,"velocity":0.7480314960629921,"duration":0.33749999999997726},{"name":"D2","midi":38,"time":345.75,"velocity":0.7480314960629921,"duration":0.33749999999997726},{"name":"D2","midi":38,"time":346.125,"velocity":0.7480314960629921,"duration":0.33749999999997726},{"name":"D2","midi":38,"time":346.5,"velocity":0.7480314960629921,"duration":0.33749999999997726},{"name":"D2","midi":38,"time":346.875,"velocity":0.7480314960629921,"duration":0.33749999999997726},{"name":"D2","midi":38,"time":347.25,"velocity":0.7480314960629921,"duration":0.33749999999997726},{"name":"D2","midi":38,"time":347.625,"velocity":0.7480314960629921,"duration":0.33749999999997726},{"name":"D2","midi":38,"time":348,"velocity":0.7480314960629921,"duration":0.33749999999997726},{"name":"D2","midi":38,"time":348.375,"velocity":0.7480314960629921,"duration":0.33749999999997726},{"name":"D2","midi":38,"time":348.75,"velocity":0.7480314960629921,"duration":0.33749999999997726},{"name":"D2","midi":38,"time":349.125,"velocity":0.7480314960629921,"duration":0.33749999999997726},{"name":"D2","midi":38,"time":349.5,"velocity":0.7480314960629921,"duration":0.33749999999997726},{"name":"D2","midi":38,"time":349.875,"velocity":0.7480314960629921,"duration":0.33749999999997726},{"name":"D2","midi":38,"time":350.25,"velocity":0.7480314960629921,"duration":0.33749999999997726},{"name":"D2","midi":38,"time":350.625,"velocity":0.7480314960629921,"duration":0.33749999999997726},{"name":"B1","midi":35,"time":351,"velocity":0.7480314960629921,"duration":0.33749999999997726},{"name":"B1","midi":35,"time":351.375,"velocity":0.7480314960629921,"duration":0.33749999999997726},{"name":"B1","midi":35,"time":351.75,"velocity":0.7480314960629921,"duration":0.33749999999997726},{"name":"B1","midi":35,"time":352.125,"velocity":0.7480314960629921,"duration":0.33749999999997726},{"name":"B1","midi":35,"time":352.5,"velocity":0.7480314960629921,"duration":0.33749999999997726},{"name":"B1","midi":35,"time":352.875,"velocity":0.7480314960629921,"duration":0.33749999999997726},{"name":"B1","midi":35,"time":353.25,"velocity":0.7480314960629921,"duration":0.33749999999997726},{"name":"B1","midi":35,"time":353.625,"velocity":0.7480314960629921,"duration":0.33749999999997726},{"name":"C#2","midi":37,"time":354,"velocity":0.7480314960629921,"duration":0.33749999999997726},{"name":"C#2","midi":37,"time":354.375,"velocity":0.7480314960629921,"duration":0.33749999999997726},{"name":"C#2","midi":37,"time":354.75,"velocity":0.7480314960629921,"duration":0.33749999999997726},{"name":"C#2","midi":37,"time":355.125,"velocity":0.7480314960629921,"duration":0.33749999999997726},{"name":"C#2","midi":37,"time":355.5,"velocity":0.7480314960629921,"duration":0.33749999999997726},{"name":"C#2","midi":37,"time":355.875,"velocity":0.7480314960629921,"duration":0.33749999999997726},{"name":"C#2","midi":37,"time":356.25,"velocity":0.7480314960629921,"duration":0.33749999999997726},{"name":"C#2","midi":37,"time":356.625,"velocity":0.7480314960629921,"duration":0.33749999999997726},{"name":"D2","midi":38,"time":357,"velocity":0.7480314960629921,"duration":0.33749999999997726},{"name":"D2","midi":38,"time":357.375,"velocity":0.7480314960629921,"duration":0.33749999999997726},{"name":"D2","midi":38,"time":357.75,"velocity":0.7480314960629921,"duration":0.33749999999997726},{"name":"D2","midi":38,"time":358.125,"velocity":0.7480314960629921,"duration":0.33749999999997726},{"name":"D2","midi":38,"time":358.5,"velocity":0.7480314960629921,"duration":0.33749999999997726},{"name":"D2","midi":38,"time":358.875,"velocity":0.7480314960629921,"duration":0.33749999999997726},{"name":"D2","midi":38,"time":359.25,"velocity":0.7480314960629921,"duration":0.33749999999997726},{"name":"D2","midi":38,"time":359.625,"velocity":0.7480314960629921,"duration":0.33749999999997726},{"name":"D2","midi":38,"time":360,"velocity":0.7480314960629921,"duration":0.33749999999997726},{"name":"D2","midi":38,"time":360.375,"velocity":0.7480314960629921,"duration":0.33749999999997726},{"name":"D2","midi":38,"time":360.75,"velocity":0.7480314960629921,"duration":0.33749999999997726},{"name":"D2","midi":38,"time":361.125,"velocity":0.7480314960629921,"duration":0.33749999999997726},{"name":"E2","midi":40,"time":361.5,"velocity":0.7480314960629921,"duration":0.33749999999997726},{"name":"E2","midi":40,"time":361.875,"velocity":0.7480314960629921,"duration":0.33749999999997726},{"name":"E2","midi":40,"time":362.25,"velocity":0.7480314960629921,"duration":0.33749999999997726},{"name":"E2","midi":40,"time":362.625,"velocity":0.7480314960629921,"duration":0.33749999999997726},{"name":"A1","midi":33,"time":363,"velocity":0.7480314960629921,"duration":0.33749999999997726},{"name":"A1","midi":33,"time":363.375,"velocity":0.7480314960629921,"duration":0.33749999999997726},{"name":"A1","midi":33,"time":363.75,"velocity":0.7480314960629921,"duration":0.33749999999997726},{"name":"A1","midi":33,"time":364.125,"velocity":0.7480314960629921,"duration":0.33749999999997726},{"name":"A1","midi":33,"time":364.5,"velocity":0.7480314960629921,"duration":0.33749999999997726},{"name":"A1","midi":33,"time":364.875,"velocity":0.7480314960629921,"duration":0.33749999999997726},{"name":"A1","midi":33,"time":365.25,"velocity":0.7480314960629921,"duration":0.33749999999997726},{"name":"A1","midi":33,"time":365.625,"velocity":0.7480314960629921,"duration":0.33749999999997726},{"name":"A1","midi":33,"time":366,"velocity":0.7480314960629921,"duration":0.33749999999997726},{"name":"A1","midi":33,"time":366.375,"velocity":0.7480314960629921,"duration":0.33749999999997726},{"name":"A1","midi":33,"time":366.75,"velocity":0.7480314960629921,"duration":0.33749999999997726},{"name":"A1","midi":33,"time":367.125,"velocity":0.7480314960629921,"duration":0.33749999999997726},{"name":"A1","midi":33,"time":367.5,"velocity":0.7480314960629921,"duration":0.33749999999997726},{"name":"A1","midi":33,"time":367.875,"velocity":0.7480314960629921,"duration":0.33749999999997726},{"name":"A1","midi":33,"time":368.25,"velocity":0.7480314960629921,"duration":0.33749999999997726},{"name":"A1","midi":33,"time":368.625,"velocity":0.7480314960629921,"duration":0.33749999999997726},{"name":"E2","midi":40,"time":369,"velocity":0.7480314960629921,"duration":0.33749999999997726},{"name":"E2","midi":40,"time":369.375,"velocity":0.7480314960629921,"duration":0.33749999999997726},{"name":"E2","midi":40,"time":369.75,"velocity":0.7480314960629921,"duration":0.33749999999997726},{"name":"E2","midi":40,"time":370.125,"velocity":0.7480314960629921,"duration":0.33749999999997726},{"name":"E2","midi":40,"time":370.5,"velocity":0.7480314960629921,"duration":0.33749999999997726},{"name":"E2","midi":40,"time":370.875,"velocity":0.7480314960629921,"duration":0.33749999999997726},{"name":"E2","midi":40,"time":371.25,"velocity":0.7480314960629921,"duration":0.33749999999997726},{"name":"E2","midi":40,"time":371.625,"velocity":0.7480314960629921,"duration":0.33749999999997726},{"name":"E2","midi":40,"time":372,"velocity":0.7480314960629921,"duration":0.33749999999997726},{"name":"E2","midi":40,"time":372.375,"velocity":0.7480314960629921,"duration":0.33749999999997726},{"name":"E2","midi":40,"time":372.75,"velocity":0.7480314960629921,"duration":0.33749999999997726},{"name":"E2","midi":40,"time":373.125,"velocity":0.7480314960629921,"duration":0.33749999999997726},{"name":"E2","midi":40,"time":373.5,"velocity":0.7480314960629921,"duration":0.33749999999997726},{"name":"F#2","midi":42,"time":373.875,"velocity":0.7480314960629921,"duration":0.33749999999997726},{"name":"F#2","midi":42,"time":374.25,"velocity":0.7480314960629921,"duration":0.33749999999997726},{"name":"F#2","midi":42,"time":374.625,"velocity":0.7480314960629921,"duration":0.33749999999997726},{"name":"B1","midi":35,"time":375,"velocity":0.7480314960629921,"duration":0.33749999999997726},{"name":"B1","midi":35,"time":375.375,"velocity":0.7480314960629921,"duration":0.33749999999997726},{"name":"B1","midi":35,"time":375.75,"velocity":0.7480314960629921,"duration":0.33749999999997726},{"name":"B1","midi":35,"time":376.125,"velocity":0.7480314960629921,"duration":0.33749999999997726},{"name":"B1","midi":35,"time":376.5,"velocity":0.7480314960629921,"duration":0.33749999999997726},{"name":"B1","midi":35,"time":376.875,"velocity":0.7480314960629921,"duration":0.33749999999997726},{"name":"B1","midi":35,"time":377.25,"velocity":0.7480314960629921,"duration":0.33749999999997726},{"name":"B1","midi":35,"time":377.625,"velocity":0.7480314960629921,"duration":0.33749999999997726},{"name":"B1","midi":35,"time":378,"velocity":0.7480314960629921,"duration":0.33749999999997726},{"name":"B1","midi":35,"time":378.375,"velocity":0.7480314960629921,"duration":0.33749999999997726},{"name":"B1","midi":35,"time":378.75,"velocity":0.7480314960629921,"duration":0.33749999999997726},{"name":"B1","midi":35,"time":379.125,"velocity":0.7480314960629921,"duration":0.33749999999997726},{"name":"B1","midi":35,"time":379.5,"velocity":0.7480314960629921,"duration":0.33749999999997726},{"name":"C#2","midi":37,"time":379.875,"velocity":0.7480314960629921,"duration":0.33749999999997726},{"name":"C#2","midi":37,"time":380.25,"velocity":0.7480314960629921,"duration":0.33749999999997726},{"name":"C#2","midi":37,"time":380.625,"velocity":0.7480314960629921,"duration":0.33749999999997726},{"name":"D2","midi":38,"time":381,"velocity":0.7480314960629921,"duration":0.33749999999997726},{"name":"D2","midi":38,"time":381.375,"velocity":0.7480314960629921,"duration":0.33749999999997726},{"name":"D2","midi":38,"time":381.75,"velocity":0.7480314960629921,"duration":0.33749999999997726},{"name":"D2","midi":38,"time":382.125,"velocity":0.7480314960629921,"duration":0.33749999999997726},{"name":"D2","midi":38,"time":382.5,"velocity":0.7480314960629921,"duration":0.33749999999997726},{"name":"D2","midi":38,"time":382.875,"velocity":0.7480314960629921,"duration":0.33749999999997726},{"name":"D2","midi":38,"time":383.25,"velocity":0.7480314960629921,"duration":0.33749999999997726},{"name":"D2","midi":38,"time":383.625,"velocity":0.7480314960629921,"duration":0.33749999999997726},{"name":"D2","midi":38,"time":384,"velocity":0.7480314960629921,"duration":0.33749999999997726},{"name":"D2","midi":38,"time":384.375,"velocity":0.7480314960629921,"duration":0.33749999999997726},{"name":"D2","midi":38,"time":384.75,"velocity":0.7480314960629921,"duration":0.33749999999997726},{"name":"D2","midi":38,"time":385.125,"velocity":0.7480314960629921,"duration":0.33749999999997726},{"name":"D2","midi":38,"time":385.5,"velocity":0.7480314960629921,"duration":0.33749999999997726},{"name":"E2","midi":40,"time":385.875,"velocity":0.7480314960629921,"duration":0.33749999999997726},{"name":"E2","midi":40,"time":386.25,"velocity":0.7480314960629921,"duration":0.33749999999997726},{"name":"E2","midi":40,"time":386.625,"velocity":0.7480314960629921,"duration":0.33749999999997726},{"name":"A2","midi":45,"time":387,"velocity":0.7480314960629921,"duration":0.33749999999997726},{"name":"A2","midi":45,"time":387.375,"velocity":0.7480314960629921,"duration":0.33749999999997726},{"name":"A2","midi":45,"time":387.75,"velocity":0.7480314960629921,"duration":0.33749999999997726},{"name":"A2","midi":45,"time":388.125,"velocity":0.7480314960629921,"duration":0.33749999999997726},{"name":"A2","midi":45,"time":388.5,"velocity":0.7480314960629921,"duration":0.33749999999997726},{"name":"A2","midi":45,"time":388.875,"velocity":0.7480314960629921,"duration":0.33749999999997726},{"name":"A2","midi":45,"time":389.25,"velocity":0.7480314960629921,"duration":0.33749999999997726},{"name":"A2","midi":45,"time":389.625,"velocity":0.7480314960629921,"duration":0.33749999999997726},{"name":"A2","midi":45,"time":390,"velocity":0.7480314960629921,"duration":0.33749999999997726},{"name":"A2","midi":45,"time":390.375,"velocity":0.7480314960629921,"duration":0.33749999999997726},{"name":"A2","midi":45,"time":390.75,"velocity":0.7480314960629921,"duration":0.33749999999997726},{"name":"A2","midi":45,"time":391.125,"velocity":0.7480314960629921,"duration":0.33749999999997726},{"name":"A2","midi":45,"time":391.5,"velocity":0.7480314960629921,"duration":0.33749999999997726},{"name":"A2","midi":45,"time":391.875,"velocity":0.7480314960629921,"duration":0.33749999999997726},{"name":"A2","midi":45,"time":392.25,"velocity":0.7480314960629921,"duration":0.33749999999997726},{"name":"A2","midi":45,"time":392.625,"velocity":0.7480314960629921,"duration":0.33749999999997726},{"name":"D2","midi":38,"time":393,"velocity":0.7480314960629921,"duration":0.33749999999997726},{"name":"D2","midi":38,"time":393.375,"velocity":0.7480314960629921,"duration":0.33749999999997726},{"name":"D2","midi":38,"time":393.75,"velocity":0.7480314960629921,"duration":0.33749999999997726},{"name":"D2","midi":38,"time":394.125,"velocity":0.7480314960629921,"duration":0.33749999999997726},{"name":"D2","midi":38,"time":394.5,"velocity":0.7480314960629921,"duration":0.33749999999997726},{"name":"D2","midi":38,"time":394.875,"velocity":0.7480314960629921,"duration":0.33749999999997726},{"name":"D2","midi":38,"time":395.25,"velocity":0.7480314960629921,"duration":0.33749999999997726},{"name":"D2","midi":38,"time":395.625,"velocity":0.7480314960629921,"duration":0.33749999999997726},{"name":"D2","midi":38,"time":396,"velocity":0.7480314960629921,"duration":0.33749999999997726},{"name":"D2","midi":38,"time":396.375,"velocity":0.7480314960629921,"duration":0.33749999999997726},{"name":"D2","midi":38,"time":396.75,"velocity":0.7480314960629921,"duration":0.33749999999997726},{"name":"D2","midi":38,"time":397.125,"velocity":0.7480314960629921,"duration":0.33749999999997726},{"name":"D2","midi":38,"time":397.5,"velocity":0.7480314960629921,"duration":0.33749999999997726},{"name":"D2","midi":38,"time":397.875,"velocity":0.7480314960629921,"duration":0.33749999999997726},{"name":"D2","midi":38,"time":398.25,"velocity":0.7480314960629921,"duration":0.33749999999997726},{"name":"D2","midi":38,"time":398.625,"velocity":0.7480314960629921,"duration":0.33749999999997726},{"name":"B1","midi":35,"time":399,"velocity":0.7480314960629921,"duration":0.33749999999997726},{"name":"B1","midi":35,"time":399.375,"velocity":0.7480314960629921,"duration":0.33749999999997726},{"name":"B1","midi":35,"time":399.75,"velocity":0.7480314960629921,"duration":0.33749999999997726},{"name":"B1","midi":35,"time":400.125,"velocity":0.7480314960629921,"duration":0.33749999999997726},{"name":"B1","midi":35,"time":400.5,"velocity":0.7480314960629921,"duration":0.33749999999997726},{"name":"B1","midi":35,"time":400.875,"velocity":0.7480314960629921,"duration":0.33749999999997726},{"name":"B1","midi":35,"time":401.25,"velocity":0.7480314960629921,"duration":0.33749999999997726},{"name":"B1","midi":35,"time":401.625,"velocity":0.7480314960629921,"duration":0.33749999999997726},{"name":"C#2","midi":37,"time":402,"velocity":0.7480314960629921,"duration":0.33749999999997726},{"name":"C#2","midi":37,"time":402.375,"velocity":0.7480314960629921,"duration":0.33749999999997726},{"name":"C#2","midi":37,"time":402.75,"velocity":0.7480314960629921,"duration":0.33749999999997726},{"name":"C#2","midi":37,"time":403.125,"velocity":0.7480314960629921,"duration":0.33749999999997726},{"name":"C#2","midi":37,"time":403.5,"velocity":0.7480314960629921,"duration":0.33749999999997726},{"name":"C#2","midi":37,"time":403.875,"velocity":0.7480314960629921,"duration":0.33749999999997726},{"name":"C#2","midi":37,"time":404.25,"velocity":0.7480314960629921,"duration":0.33749999999997726},{"name":"C#2","midi":37,"time":404.625,"velocity":0.7480314960629921,"duration":0.33749999999997726},{"name":"D2","midi":38,"time":405,"velocity":0.7480314960629921,"duration":0.33749999999997726},{"name":"D2","midi":38,"time":405.375,"velocity":0.7480314960629921,"duration":0.33749999999997726},{"name":"D2","midi":38,"time":405.75,"velocity":0.7480314960629921,"duration":0.33749999999997726},{"name":"D2","midi":38,"time":406.125,"velocity":0.7480314960629921,"duration":0.33749999999997726},{"name":"D2","midi":38,"time":406.5,"velocity":0.7480314960629921,"duration":0.33749999999997726},{"name":"D2","midi":38,"time":406.875,"velocity":0.7480314960629921,"duration":0.33749999999997726},{"name":"D2","midi":38,"time":407.25,"velocity":0.7480314960629921,"duration":0.33749999999997726},{"name":"D2","midi":38,"time":407.625,"velocity":0.7480314960629921,"duration":0.33749999999997726},{"name":"D2","midi":38,"time":408,"velocity":0.7480314960629921,"duration":0.33749999999997726},{"name":"D2","midi":38,"time":408.375,"velocity":0.7480314960629921,"duration":0.33749999999997726},{"name":"D2","midi":38,"time":408.75,"velocity":0.7480314960629921,"duration":0.33749999999997726},{"name":"D2","midi":38,"time":409.125,"velocity":0.7480314960629921,"duration":0.33749999999997726},{"name":"E2","midi":40,"time":409.5,"velocity":0.7480314960629921,"duration":0.33749999999997726},{"name":"E2","midi":40,"time":409.875,"velocity":0.7480314960629921,"duration":0.33749999999997726},{"name":"E2","midi":40,"time":410.25,"velocity":0.7480314960629921,"duration":0.33749999999997726},{"name":"E2","midi":40,"time":410.625,"velocity":0.7480314960629921,"duration":0.33749999999997726},{"name":"A2","midi":45,"time":411,"velocity":0.7480314960629921,"duration":0.33749999999997726},{"name":"A2","midi":45,"time":411.375,"velocity":0.7480314960629921,"duration":0.33749999999997726},{"name":"A2","midi":45,"time":411.75,"velocity":0.7480314960629921,"duration":0.33749999999997726},{"name":"A2","midi":45,"time":412.125,"velocity":0.7480314960629921,"duration":0.33749999999997726},{"name":"A2","midi":45,"time":412.5,"velocity":0.7480314960629921,"duration":0.33749999999997726},{"name":"A2","midi":45,"time":412.875,"velocity":0.7480314960629921,"duration":0.33749999999997726},{"name":"A2","midi":45,"time":413.25,"velocity":0.7480314960629921,"duration":0.33749999999997726},{"name":"A2","midi":45,"time":413.625,"velocity":0.7480314960629921,"duration":0.33749999999997726},{"name":"A2","midi":45,"time":414,"velocity":0.7480314960629921,"duration":0.33749999999997726},{"name":"A2","midi":45,"time":414.375,"velocity":0.7480314960629921,"duration":0.33749999999997726},{"name":"A2","midi":45,"time":414.75,"velocity":0.7480314960629921,"duration":0.33749999999997726},{"name":"A2","midi":45,"time":415.125,"velocity":0.7480314960629921,"duration":0.33749999999997726},{"name":"A2","midi":45,"time":415.5,"velocity":0.7480314960629921,"duration":0.33749999999997726},{"name":"A2","midi":45,"time":415.875,"velocity":0.7480314960629921,"duration":0.33749999999997726},{"name":"A2","midi":45,"time":416.25,"velocity":0.7480314960629921,"duration":0.33749999999997726},{"name":"A2","midi":45,"time":416.625,"velocity":0.7480314960629921,"duration":0.33749999999997726},{"name":"D2","midi":38,"time":417,"velocity":0.7480314960629921,"duration":0.33749999999997726},{"name":"D2","midi":38,"time":417.375,"velocity":0.7480314960629921,"duration":0.33749999999997726},{"name":"D2","midi":38,"time":417.75,"velocity":0.7480314960629921,"duration":0.33749999999997726},{"name":"D2","midi":38,"time":418.125,"velocity":0.7480314960629921,"duration":0.33749999999997726},{"name":"D2","midi":38,"time":418.5,"velocity":0.7480314960629921,"duration":0.33749999999997726},{"name":"D2","midi":38,"time":418.875,"velocity":0.7480314960629921,"duration":0.33749999999997726},{"name":"D2","midi":38,"time":419.25,"velocity":0.7480314960629921,"duration":0.33749999999997726},{"name":"D2","midi":38,"time":419.625,"velocity":0.7480314960629921,"duration":0.33749999999997726},{"name":"D2","midi":38,"time":420,"velocity":0.7480314960629921,"duration":0.33749999999997726},{"name":"D2","midi":38,"time":420.375,"velocity":0.7480314960629921,"duration":0.33749999999997726},{"name":"D2","midi":38,"time":420.75,"velocity":0.7480314960629921,"duration":0.33749999999997726},{"name":"D2","midi":38,"time":421.125,"velocity":0.7480314960629921,"duration":0.33749999999997726},{"name":"D2","midi":38,"time":421.5,"velocity":0.7480314960629921,"duration":0.33749999999997726},{"name":"D2","midi":38,"time":421.875,"velocity":0.7480314960629921,"duration":0.33749999999997726},{"name":"D2","midi":38,"time":422.25,"velocity":0.7480314960629921,"duration":0.33749999999997726},{"name":"D2","midi":38,"time":422.625,"velocity":0.7480314960629921,"duration":0.33749999999997726},{"name":"B1","midi":35,"time":423,"velocity":0.7480314960629921,"duration":0.33749999999997726},{"name":"B1","midi":35,"time":423.375,"velocity":0.7480314960629921,"duration":0.33749999999997726},{"name":"B1","midi":35,"time":423.75,"velocity":0.7480314960629921,"duration":0.33749999999997726},{"name":"B1","midi":35,"time":424.125,"velocity":0.7480314960629921,"duration":0.33749999999997726},{"name":"B1","midi":35,"time":424.5,"velocity":0.7480314960629921,"duration":0.33749999999997726},{"name":"B1","midi":35,"time":424.875,"velocity":0.7480314960629921,"duration":0.33749999999997726},{"name":"B1","midi":35,"time":425.25,"velocity":0.7480314960629921,"duration":0.33749999999997726},{"name":"B1","midi":35,"time":425.625,"velocity":0.7480314960629921,"duration":0.33749999999997726},{"name":"C#2","midi":37,"time":426,"velocity":0.7480314960629921,"duration":0.33749999999997726},{"name":"C#2","midi":37,"time":426.375,"velocity":0.7480314960629921,"duration":0.33749999999997726},{"name":"C#2","midi":37,"time":426.75,"velocity":0.7480314960629921,"duration":0.33749999999997726},{"name":"C#2","midi":37,"time":427.125,"velocity":0.7480314960629921,"duration":0.33749999999997726},{"name":"C#2","midi":37,"time":427.5,"velocity":0.7480314960629921,"duration":0.33749999999997726},{"name":"C#2","midi":37,"time":427.875,"velocity":0.7480314960629921,"duration":0.33749999999997726},{"name":"C#2","midi":37,"time":428.25,"velocity":0.7480314960629921,"duration":0.33749999999997726},{"name":"C#2","midi":37,"time":428.625,"velocity":0.7480314960629921,"duration":0.33749999999997726},{"name":"D2","midi":38,"time":429,"velocity":0.7480314960629921,"duration":0.33749999999997726},{"name":"D2","midi":38,"time":429.375,"velocity":0.7480314960629921,"duration":0.33749999999997726},{"name":"D2","midi":38,"time":429.75,"velocity":0.7480314960629921,"duration":0.33749999999997726},{"name":"D2","midi":38,"time":430.125,"velocity":0.7480314960629921,"duration":0.33749999999997726},{"name":"D2","midi":38,"time":430.5,"velocity":0.7480314960629921,"duration":0.33749999999997726},{"name":"D2","midi":38,"time":430.875,"velocity":0.7480314960629921,"duration":0.33749999999997726},{"name":"D2","midi":38,"time":431.25,"velocity":0.7480314960629921,"duration":0.33749999999997726},{"name":"D2","midi":38,"time":431.625,"velocity":0.7480314960629921,"duration":0.33749999999997726},{"name":"D2","midi":38,"time":432,"velocity":0.7480314960629921,"duration":0.33749999999997726},{"name":"D2","midi":38,"time":432.375,"velocity":0.7480314960629921,"duration":0.33749999999997726},{"name":"D2","midi":38,"time":432.75,"velocity":0.7480314960629921,"duration":0.33749999999997726},{"name":"D2","midi":38,"time":433.125,"velocity":0.7480314960629921,"duration":0.33749999999997726},{"name":"E2","midi":40,"time":433.5,"velocity":0.7480314960629921,"duration":0.33749999999997726},{"name":"E2","midi":40,"time":433.875,"velocity":0.7480314960629921,"duration":0.33749999999997726},{"name":"E2","midi":40,"time":434.25,"velocity":0.7480314960629921,"duration":0.33749999999997726},{"name":"E2","midi":40,"time":434.625,"velocity":0.7480314960629921,"duration":0.33749999999997726},{"name":"A2","midi":45,"time":435,"velocity":0.7480314960629921,"duration":0.33749999999997726},{"name":"A2","midi":45,"time":435.375,"velocity":0.7480314960629921,"duration":0.33749999999997726},{"name":"A2","midi":45,"time":435.75,"velocity":0.7480314960629921,"duration":0.33749999999997726},{"name":"A2","midi":45,"time":436.125,"velocity":0.7480314960629921,"duration":0.33749999999997726},{"name":"A2","midi":45,"time":436.5,"velocity":0.7480314960629921,"duration":0.33749999999997726},{"name":"A2","midi":45,"time":436.875,"velocity":0.7480314960629921,"duration":0.33749999999997726},{"name":"A2","midi":45,"time":437.25,"velocity":0.7480314960629921,"duration":0.33749999999997726},{"name":"A2","midi":45,"time":437.625,"velocity":0.7480314960629921,"duration":0.33749999999997726},{"name":"A2","midi":45,"time":438,"velocity":0.7480314960629921,"duration":0.33749999999997726},{"name":"A2","midi":45,"time":438.375,"velocity":0.7480314960629921,"duration":0.33749999999997726},{"name":"A2","midi":45,"time":438.75,"velocity":0.7480314960629921,"duration":0.33749999999997726},{"name":"A2","midi":45,"time":439.125,"velocity":0.7480314960629921,"duration":0.33749999999997726},{"name":"A2","midi":45,"time":439.5,"velocity":0.7480314960629921,"duration":0.33749999999997726},{"name":"A2","midi":45,"time":439.875,"velocity":0.7480314960629921,"duration":0.33749999999997726},{"name":"A2","midi":45,"time":440.25,"velocity":0.7480314960629921,"duration":0.33749999999997726},{"name":"A2","midi":45,"time":440.625,"velocity":0.7480314960629921,"duration":0.33749999999997726},{"name":"D2","midi":38,"time":441,"velocity":0.7480314960629921,"duration":0.33749999999997726},{"name":"D2","midi":38,"time":441.375,"velocity":0.7480314960629921,"duration":0.33749999999997726},{"name":"D2","midi":38,"time":441.75,"velocity":0.7480314960629921,"duration":0.33749999999997726},{"name":"D2","midi":38,"time":442.125,"velocity":0.7480314960629921,"duration":0.33749999999997726},{"name":"D2","midi":38,"time":442.5,"velocity":0.7480314960629921,"duration":0.33749999999997726},{"name":"D2","midi":38,"time":442.875,"velocity":0.7480314960629921,"duration":0.33749999999997726},{"name":"D2","midi":38,"time":443.25,"velocity":0.7480314960629921,"duration":0.33749999999997726},{"name":"D2","midi":38,"time":443.625,"velocity":0.7480314960629921,"duration":0.33749999999997726},{"name":"D2","midi":38,"time":444,"velocity":0.7480314960629921,"duration":0.33749999999997726},{"name":"D2","midi":38,"time":444.375,"velocity":0.7480314960629921,"duration":0.33749999999997726},{"name":"D2","midi":38,"time":444.75,"velocity":0.7480314960629921,"duration":0.33749999999997726},{"name":"D2","midi":38,"time":445.125,"velocity":0.7480314960629921,"duration":0.33749999999997726},{"name":"D2","midi":38,"time":445.5,"velocity":0.7480314960629921,"duration":0.33749999999997726},{"name":"D2","midi":38,"time":445.875,"velocity":0.7480314960629921,"duration":0.33749999999997726},{"name":"D2","midi":38,"time":446.25,"velocity":0.7480314960629921,"duration":0.33749999999997726},{"name":"D2","midi":38,"time":446.625,"velocity":0.7480314960629921,"duration":0.33749999999997726},{"name":"B1","midi":35,"time":447,"velocity":0.7480314960629921,"duration":0.33749999999997726},{"name":"B1","midi":35,"time":447.375,"velocity":0.7480314960629921,"duration":0.33749999999997726},{"name":"B1","midi":35,"time":447.75,"velocity":0.7480314960629921,"duration":0.33749999999997726},{"name":"B1","midi":35,"time":448.125,"velocity":0.7480314960629921,"duration":0.33749999999997726},{"name":"B1","midi":35,"time":448.5,"velocity":0.7480314960629921,"duration":0.33749999999997726},{"name":"B1","midi":35,"time":448.875,"velocity":0.7480314960629921,"duration":0.33749999999997726},{"name":"B1","midi":35,"time":449.25,"velocity":0.7480314960629921,"duration":0.33749999999997726},{"name":"B1","midi":35,"time":449.625,"velocity":0.7480314960629921,"duration":0.33749999999997726},{"name":"C#2","midi":37,"time":450,"velocity":0.7480314960629921,"duration":0.33749999999997726},{"name":"C#2","midi":37,"time":450.375,"velocity":0.7480314960629921,"duration":0.33749999999997726},{"name":"C#2","midi":37,"time":450.75,"velocity":0.7480314960629921,"duration":0.33749999999997726},{"name":"C#2","midi":37,"time":451.125,"velocity":0.7480314960629921,"duration":0.33749999999997726},{"name":"C#2","midi":37,"time":451.5,"velocity":0.7480314960629921,"duration":0.33749999999997726},{"name":"C#2","midi":37,"time":451.875,"velocity":0.7480314960629921,"duration":0.33749999999997726},{"name":"C#2","midi":37,"time":452.25,"velocity":0.7480314960629921,"duration":0.33749999999997726},{"name":"C#2","midi":37,"time":452.625,"velocity":0.7480314960629921,"duration":0.33749999999997726},{"name":"D2","midi":38,"time":453,"velocity":0.7480314960629921,"duration":0.33749999999997726},{"name":"D2","midi":38,"time":453.375,"velocity":0.7480314960629921,"duration":0.33749999999997726},{"name":"D2","midi":38,"time":453.75,"velocity":0.7480314960629921,"duration":0.33749999999997726},{"name":"D2","midi":38,"time":454.125,"velocity":0.7480314960629921,"duration":0.33749999999997726},{"name":"D2","midi":38,"time":454.5,"velocity":0.7480314960629921,"duration":0.33749999999997726},{"name":"D2","midi":38,"time":454.875,"velocity":0.7480314960629921,"duration":0.33749999999997726},{"name":"D2","midi":38,"time":455.25,"velocity":0.7480314960629921,"duration":0.33749999999997726},{"name":"D2","midi":38,"time":455.625,"velocity":0.7480314960629921,"duration":0.33749999999997726},{"name":"D2","midi":38,"time":456,"velocity":0.7480314960629921,"duration":0.33749999999997726},{"name":"D2","midi":38,"time":456.375,"velocity":0.7480314960629921,"duration":0.33749999999997726},{"name":"D2","midi":38,"time":456.75,"velocity":0.7480314960629921,"duration":0.33749999999997726},{"name":"D2","midi":38,"time":457.125,"velocity":0.7480314960629921,"duration":0.33749999999997726},{"name":"E2","midi":40,"time":457.5,"velocity":0.7480314960629921,"duration":0.33749999999997726},{"name":"E2","midi":40,"time":457.875,"velocity":0.7480314960629921,"duration":0.33749999999997726},{"name":"E2","midi":40,"time":458.25,"velocity":0.7480314960629921,"duration":0.33749999999997726},{"name":"E2","midi":40,"time":458.625,"velocity":0.7480314960629921,"duration":0.33749999999997726},{"name":"A2","midi":45,"time":459,"velocity":0.7480314960629921,"duration":0.33749999999997726},{"name":"A2","midi":45,"time":459.375,"velocity":0.7480314960629921,"duration":0.33749999999997726},{"name":"A2","midi":45,"time":459.75,"velocity":0.7480314960629921,"duration":0.33749999999997726},{"name":"A2","midi":45,"time":460.125,"velocity":0.7480314960629921,"duration":0.33749999999997726},{"name":"A2","midi":45,"time":460.5,"velocity":0.7480314960629921,"duration":0.33749999999997726},{"name":"A2","midi":45,"time":460.875,"velocity":0.7480314960629921,"duration":0.33749999999997726},{"name":"A2","midi":45,"time":461.25,"velocity":0.7480314960629921,"duration":0.33749999999997726},{"name":"A2","midi":45,"time":461.625,"velocity":0.7480314960629921,"duration":0.33749999999997726},{"name":"A2","midi":45,"time":462,"velocity":0.7480314960629921,"duration":0.33749999999997726},{"name":"A2","midi":45,"time":462.375,"velocity":0.7480314960629921,"duration":0.33749999999997726},{"name":"A2","midi":45,"time":462.75,"velocity":0.7480314960629921,"duration":0.33749999999997726},{"name":"A2","midi":45,"time":463.125,"velocity":0.7480314960629921,"duration":0.33749999999997726},{"name":"A2","midi":45,"time":463.5,"velocity":0.7480314960629921,"duration":0.33749999999997726},{"name":"A2","midi":45,"time":463.875,"velocity":0.7480314960629921,"duration":0.33749999999997726},{"name":"A2","midi":45,"time":464.25,"velocity":0.7480314960629921,"duration":0.33749999999997726},{"name":"A2","midi":45,"time":464.625,"velocity":0.7480314960629921,"duration":0.33749999999997726},{"name":"D2","midi":38,"time":465,"velocity":0.7480314960629921,"duration":0.33749999999997726},{"name":"D2","midi":38,"time":465.375,"velocity":0.7480314960629921,"duration":0.33749999999997726},{"name":"D2","midi":38,"time":465.75,"velocity":0.7480314960629921,"duration":0.33749999999997726},{"name":"D2","midi":38,"time":466.125,"velocity":0.7480314960629921,"duration":0.33749999999997726},{"name":"D2","midi":38,"time":466.5,"velocity":0.7480314960629921,"duration":0.33749999999997726},{"name":"D2","midi":38,"time":466.875,"velocity":0.7480314960629921,"duration":0.33749999999997726},{"name":"D2","midi":38,"time":467.25,"velocity":0.7480314960629921,"duration":0.33749999999997726},{"name":"D2","midi":38,"time":467.625,"velocity":0.7480314960629921,"duration":0.33749999999997726},{"name":"D2","midi":38,"time":468,"velocity":0.7480314960629921,"duration":0.33749999999997726},{"name":"D2","midi":38,"time":468.375,"velocity":0.7480314960629921,"duration":0.33749999999997726},{"name":"D2","midi":38,"time":468.75,"velocity":0.7480314960629921,"duration":0.33749999999997726},{"name":"D2","midi":38,"time":469.125,"velocity":0.7480314960629921,"duration":0.33749999999997726},{"name":"D2","midi":38,"time":469.5,"velocity":0.7480314960629921,"duration":0.33749999999997726},{"name":"D2","midi":38,"time":469.875,"velocity":0.7480314960629921,"duration":0.33749999999997726},{"name":"D2","midi":38,"time":470.25,"velocity":0.7480314960629921,"duration":0.33749999999997726},{"name":"D2","midi":38,"time":470.625,"velocity":0.7480314960629921,"duration":0.33749999999997726},{"name":"B1","midi":35,"time":471,"velocity":0.7480314960629921,"duration":0.33749999999997726},{"name":"B1","midi":35,"time":471.375,"velocity":0.7480314960629921,"duration":0.33749999999997726},{"name":"B1","midi":35,"time":471.75,"velocity":0.7480314960629921,"duration":0.33749999999997726},{"name":"B1","midi":35,"time":472.125,"velocity":0.7480314960629921,"duration":0.33749999999997726},{"name":"B1","midi":35,"time":472.5,"velocity":0.7480314960629921,"duration":0.33749999999997726},{"name":"B1","midi":35,"time":472.875,"velocity":0.7480314960629921,"duration":0.33749999999997726},{"name":"B1","midi":35,"time":473.25,"velocity":0.7480314960629921,"duration":0.33749999999997726},{"name":"B1","midi":35,"time":473.625,"velocity":0.7480314960629921,"duration":0.33749999999997726},{"name":"C#2","midi":37,"time":474,"velocity":0.7480314960629921,"duration":0.33749999999997726},{"name":"C#2","midi":37,"time":474.375,"velocity":0.7480314960629921,"duration":0.33749999999997726},{"name":"C#2","midi":37,"time":474.75,"velocity":0.7480314960629921,"duration":0.33749999999997726},{"name":"C#2","midi":37,"time":475.125,"velocity":0.7480314960629921,"duration":0.33749999999997726},{"name":"C#2","midi":37,"time":475.5,"velocity":0.7480314960629921,"duration":0.33749999999997726},{"name":"C#2","midi":37,"time":475.875,"velocity":0.7480314960629921,"duration":0.33749999999997726},{"name":"C#2","midi":37,"time":476.25,"velocity":0.7480314960629921,"duration":0.33749999999997726},{"name":"C#2","midi":37,"time":476.625,"velocity":0.7480314960629921,"duration":0.33749999999997726},{"name":"D2","midi":38,"time":477,"velocity":0.7480314960629921,"duration":0.33749999999997726},{"name":"D2","midi":38,"time":477.375,"velocity":0.7480314960629921,"duration":0.33749999999997726},{"name":"D2","midi":38,"time":477.75,"velocity":0.7480314960629921,"duration":0.33749999999997726},{"name":"D2","midi":38,"time":478.125,"velocity":0.7480314960629921,"duration":0.33749999999997726},{"name":"D2","midi":38,"time":478.5,"velocity":0.7480314960629921,"duration":0.33749999999997726},{"name":"D2","midi":38,"time":478.875,"velocity":0.7480314960629921,"duration":0.33749999999997726},{"name":"D2","midi":38,"time":479.25,"velocity":0.7480314960629921,"duration":0.33749999999997726},{"name":"D2","midi":38,"time":479.625,"velocity":0.7480314960629921,"duration":0.33749999999997726},{"name":"D2","midi":38,"time":480,"velocity":0.7480314960629921,"duration":0.33749999999997726},{"name":"D2","midi":38,"time":480.375,"velocity":0.7480314960629921,"duration":0.33749999999997726},{"name":"D2","midi":38,"time":480.75,"velocity":0.7480314960629921,"duration":0.33749999999997726},{"name":"D2","midi":38,"time":481.125,"velocity":0.7480314960629921,"duration":0.33749999999997726},{"name":"E2","midi":40,"time":481.5,"velocity":0.7480314960629921,"duration":0.33749999999997726},{"name":"E2","midi":40,"time":481.875,"velocity":0.7480314960629921,"duration":0.33749999999997726},{"name":"E2","midi":40,"time":482.25,"velocity":0.7480314960629921,"duration":0.33749999999997726},{"name":"E2","midi":40,"time":482.625,"velocity":0.7480314960629921,"duration":0.33749999999997726},{"name":"A2","midi":45,"time":483,"velocity":0.7480314960629921,"duration":0.33749999999997726},{"name":"A2","midi":45,"time":483.375,"velocity":0.7480314960629921,"duration":0.33749999999997726},{"name":"A2","midi":45,"time":483.75,"velocity":0.7480314960629921,"duration":0.33749999999997726},{"name":"A2","midi":45,"time":484.125,"velocity":0.7480314960629921,"duration":0.33749999999997726},{"name":"A2","midi":45,"time":484.5,"velocity":0.7480314960629921,"duration":0.33749999999997726},{"name":"A2","midi":45,"time":484.875,"velocity":0.7480314960629921,"duration":0.33749999999997726},{"name":"A2","midi":45,"time":485.25,"velocity":0.7480314960629921,"duration":0.33749999999997726},{"name":"A2","midi":45,"time":485.625,"velocity":0.7480314960629921,"duration":0.33749999999997726},{"name":"A2","midi":45,"time":486,"velocity":0.7480314960629921,"duration":0.33749999999997726},{"name":"A2","midi":45,"time":486.375,"velocity":0.7480314960629921,"duration":0.33749999999997726},{"name":"A2","midi":45,"time":486.75,"velocity":0.7480314960629921,"duration":0.33749999999997726},{"name":"A2","midi":45,"time":487.125,"velocity":0.7480314960629921,"duration":0.33749999999997726},{"name":"A2","midi":45,"time":487.5,"velocity":0.7480314960629921,"duration":0.33749999999997726},{"name":"A2","midi":45,"time":487.875,"velocity":0.7480314960629921,"duration":0.33749999999997726},{"name":"A2","midi":45,"time":488.25,"velocity":0.7480314960629921,"duration":0.33749999999997726},{"name":"A2","midi":45,"time":488.625,"velocity":0.7480314960629921,"duration":0.33749999999997726},{"name":"D2","midi":38,"time":489,"velocity":0.7480314960629921,"duration":0.33749999999997726},{"name":"D2","midi":38,"time":489.375,"velocity":0.7480314960629921,"duration":0.33749999999997726},{"name":"D2","midi":38,"time":489.75,"velocity":0.7480314960629921,"duration":0.33749999999997726},{"name":"D2","midi":38,"time":490.125,"velocity":0.7480314960629921,"duration":0.33749999999997726},{"name":"D2","midi":38,"time":490.5,"velocity":0.7480314960629921,"duration":0.33749999999997726},{"name":"D2","midi":38,"time":490.875,"velocity":0.7480314960629921,"duration":0.33749999999997726},{"name":"D2","midi":38,"time":491.25,"velocity":0.7480314960629921,"duration":0.33749999999997726},{"name":"D2","midi":38,"time":491.625,"velocity":0.7480314960629921,"duration":0.33749999999997726},{"name":"D2","midi":38,"time":492,"velocity":0.7480314960629921,"duration":0.33749999999997726},{"name":"D2","midi":38,"time":492.375,"velocity":0.7480314960629921,"duration":0.33749999999997726},{"name":"D2","midi":38,"time":492.75,"velocity":0.7480314960629921,"duration":0.33749999999997726},{"name":"D2","midi":38,"time":493.125,"velocity":0.7480314960629921,"duration":0.33749999999997726},{"name":"D2","midi":38,"time":493.5,"velocity":0.7480314960629921,"duration":0.33749999999997726},{"name":"D2","midi":38,"time":493.875,"velocity":0.7480314960629921,"duration":0.33749999999997726},{"name":"D2","midi":38,"time":494.25,"velocity":0.7480314960629921,"duration":0.33749999999997726},{"name":"D2","midi":38,"time":494.625,"velocity":0.7480314960629921,"duration":0.33749999999997726},{"name":"B1","midi":35,"time":495,"velocity":0.7480314960629921,"duration":0.33749999999997726},{"name":"B1","midi":35,"time":495.375,"velocity":0.7480314960629921,"duration":0.33749999999997726},{"name":"B1","midi":35,"time":495.75,"velocity":0.7480314960629921,"duration":0.33749999999997726},{"name":"B1","midi":35,"time":496.125,"velocity":0.7480314960629921,"duration":0.33749999999997726},{"name":"B1","midi":35,"time":496.5,"velocity":0.7480314960629921,"duration":0.33749999999997726},{"name":"B1","midi":35,"time":496.875,"velocity":0.7480314960629921,"duration":0.33749999999997726},{"name":"B1","midi":35,"time":497.25,"velocity":0.7480314960629921,"duration":0.33749999999997726},{"name":"B1","midi":35,"time":497.625,"velocity":0.7480314960629921,"duration":0.33749999999997726},{"name":"C#2","midi":37,"time":498,"velocity":0.7480314960629921,"duration":0.33749999999997726},{"name":"C#2","midi":37,"time":498.375,"velocity":0.7480314960629921,"duration":0.33749999999997726},{"name":"C#2","midi":37,"time":498.75,"velocity":0.7480314960629921,"duration":0.33749999999997726},{"name":"C#2","midi":37,"time":499.125,"velocity":0.7480314960629921,"duration":0.33749999999997726},{"name":"C#2","midi":37,"time":499.5,"velocity":0.7480314960629921,"duration":0.33749999999997726},{"name":"C#2","midi":37,"time":499.875,"velocity":0.7480314960629921,"duration":0.33749999999997726},{"name":"C#2","midi":37,"time":500.25,"velocity":0.7480314960629921,"duration":0.33749999999997726},{"name":"C#2","midi":37,"time":500.625,"velocity":0.7480314960629921,"duration":0.33749999999997726},{"name":"D2","midi":38,"time":501,"velocity":0.7480314960629921,"duration":0.33749999999997726},{"name":"D2","midi":38,"time":501.375,"velocity":0.7480314960629921,"duration":0.33749999999997726},{"name":"D2","midi":38,"time":501.75,"velocity":0.7480314960629921,"duration":0.33749999999997726},{"name":"D2","midi":38,"time":502.125,"velocity":0.7480314960629921,"duration":0.33749999999997726},{"name":"D2","midi":38,"time":502.5,"velocity":0.7480314960629921,"duration":0.33749999999997726},{"name":"D2","midi":38,"time":502.875,"velocity":0.7480314960629921,"duration":0.33749999999997726},{"name":"D2","midi":38,"time":503.25,"velocity":0.7480314960629921,"duration":0.33749999999997726},{"name":"D2","midi":38,"time":503.625,"velocity":0.7480314960629921,"duration":0.33749999999997726},{"name":"D2","midi":38,"time":504,"velocity":0.7480314960629921,"duration":0.33749999999997726},{"name":"D2","midi":38,"time":504.375,"velocity":0.7480314960629921,"duration":0.33749999999997726},{"name":"D2","midi":38,"time":504.75,"velocity":0.7480314960629921,"duration":0.33749999999997726},{"name":"D2","midi":38,"time":505.125,"velocity":0.7480314960629921,"duration":0.33749999999997726},{"name":"E2","midi":40,"time":505.5,"velocity":0.7480314960629921,"duration":0.33749999999997726},{"name":"E2","midi":40,"time":505.875,"velocity":0.7480314960629921,"duration":0.33749999999997726},{"name":"E2","midi":40,"time":506.25,"velocity":0.7480314960629921,"duration":0.33749999999997726},{"name":"E2","midi":40,"time":506.625,"velocity":0.7480314960629921,"duration":0.33749999999997726},{"name":"A2","midi":45,"time":507,"velocity":0.7480314960629921,"duration":0.33749999999997726},{"name":"A2","midi":45,"time":507.375,"velocity":0.7480314960629921,"duration":0.33749999999997726},{"name":"A2","midi":45,"time":507.75,"velocity":0.7480314960629921,"duration":0.33749999999997726},{"name":"A2","midi":45,"time":508.125,"velocity":0.7480314960629921,"duration":0.33749999999997726},{"name":"A2","midi":45,"time":508.5,"velocity":0.7480314960629921,"duration":0.33749999999997726},{"name":"A2","midi":45,"time":508.875,"velocity":0.7480314960629921,"duration":0.33749999999997726},{"name":"A2","midi":45,"time":509.25,"velocity":0.7480314960629921,"duration":0.33749999999997726},{"name":"A2","midi":45,"time":509.625,"velocity":0.7480314960629921,"duration":0.33749999999997726},{"name":"A2","midi":45,"time":510,"velocity":0.7480314960629921,"duration":0.33749999999997726},{"name":"A2","midi":45,"time":510.375,"velocity":0.7480314960629921,"duration":0.33749999999997726},{"name":"A2","midi":45,"time":510.75,"velocity":0.7480314960629921,"duration":0.33749999999997726},{"name":"A2","midi":45,"time":511.125,"velocity":0.7480314960629921,"duration":0.33749999999997726},{"name":"A2","midi":45,"time":511.5,"velocity":0.7480314960629921,"duration":0.33749999999997726},{"name":"A2","midi":45,"time":511.875,"velocity":0.7480314960629921,"duration":0.33749999999997726},{"name":"A2","midi":45,"time":512.25,"velocity":0.7480314960629921,"duration":0.33749999999997726},{"name":"A2","midi":45,"time":512.625,"velocity":0.7480314960629921,"duration":0.33749999999997726},{"name":"D2","midi":38,"time":513,"velocity":0.7480314960629921,"duration":0.33749999999997726},{"name":"D2","midi":38,"time":513.375,"velocity":0.7480314960629921,"duration":0.33749999999997726},{"name":"D2","midi":38,"time":513.75,"velocity":0.7480314960629921,"duration":0.33749999999997726},{"name":"D2","midi":38,"time":514.125,"velocity":0.7480314960629921,"duration":0.33749999999997726},{"name":"D2","midi":38,"time":514.5,"velocity":0.7480314960629921,"duration":0.33749999999997726},{"name":"D2","midi":38,"time":514.875,"velocity":0.7480314960629921,"duration":0.33749999999997726},{"name":"D2","midi":38,"time":515.25,"velocity":0.7480314960629921,"duration":0.33749999999997726},{"name":"D2","midi":38,"time":515.625,"velocity":0.7480314960629921,"duration":0.33749999999997726},{"name":"D2","midi":38,"time":516,"velocity":0.7480314960629921,"duration":0.33749999999997726},{"name":"D2","midi":38,"time":516.375,"velocity":0.7480314960629921,"duration":0.33749999999997726},{"name":"D2","midi":38,"time":516.75,"velocity":0.7480314960629921,"duration":0.33749999999997726},{"name":"D2","midi":38,"time":517.125,"velocity":0.7480314960629921,"duration":0.33749999999997726},{"name":"D2","midi":38,"time":517.5,"velocity":0.7480314960629921,"duration":0.33749999999997726},{"name":"D2","midi":38,"time":517.875,"velocity":0.7480314960629921,"duration":0.33749999999997726},{"name":"D2","midi":38,"time":518.25,"velocity":0.7480314960629921,"duration":0.33749999999997726},{"name":"D2","midi":38,"time":518.625,"velocity":0.7480314960629921,"duration":0.33749999999997726},{"name":"B1","midi":35,"time":519,"velocity":0.7480314960629921,"duration":0.33749999999997726},{"name":"B1","midi":35,"time":519.375,"velocity":0.7480314960629921,"duration":0.33749999999997726},{"name":"B1","midi":35,"time":519.75,"velocity":0.7480314960629921,"duration":0.33749999999997726},{"name":"B1","midi":35,"time":520.125,"velocity":0.7480314960629921,"duration":0.33749999999997726},{"name":"B1","midi":35,"time":520.5,"velocity":0.7480314960629921,"duration":0.33749999999997726},{"name":"B1","midi":35,"time":520.875,"velocity":0.7480314960629921,"duration":0.33749999999997726},{"name":"B1","midi":35,"time":521.25,"velocity":0.7480314960629921,"duration":0.33749999999997726},{"name":"B1","midi":35,"time":521.625,"velocity":0.7480314960629921,"duration":0.33749999999997726},{"name":"C#2","midi":37,"time":522,"velocity":0.7480314960629921,"duration":0.33749999999997726},{"name":"C#2","midi":37,"time":522.375,"velocity":0.7480314960629921,"duration":0.33749999999997726},{"name":"C#2","midi":37,"time":522.75,"velocity":0.7480314960629921,"duration":0.33749999999997726},{"name":"C#2","midi":37,"time":523.125,"velocity":0.7480314960629921,"duration":0.33749999999997726},{"name":"C#2","midi":37,"time":523.5,"velocity":0.7480314960629921,"duration":0.33749999999997726},{"name":"C#2","midi":37,"time":523.875,"velocity":0.7480314960629921,"duration":0.33749999999997726},{"name":"C#2","midi":37,"time":524.25,"velocity":0.7480314960629921,"duration":0.33749999999997726},{"name":"C#2","midi":37,"time":524.625,"velocity":0.7480314960629921,"duration":0.33749999999997726},{"name":"D2","midi":38,"time":525,"velocity":0.7480314960629921,"duration":0.33749999999997726},{"name":"D2","midi":38,"time":525.375,"velocity":0.7480314960629921,"duration":0.33749999999997726},{"name":"D2","midi":38,"time":525.75,"velocity":0.7480314960629921,"duration":0.33749999999997726},{"name":"D2","midi":38,"time":526.125,"velocity":0.7480314960629921,"duration":0.33749999999997726},{"name":"D2","midi":38,"time":526.5,"velocity":0.7480314960629921,"duration":0.33749999999997726},{"name":"D2","midi":38,"time":526.875,"velocity":0.7480314960629921,"duration":0.33749999999997726},{"name":"D2","midi":38,"time":527.25,"velocity":0.7480314960629921,"duration":0.33749999999997726},{"name":"D2","midi":38,"time":527.625,"velocity":0.7480314960629921,"duration":0.33749999999997726},{"name":"D2","midi":38,"time":528,"velocity":0.7480314960629921,"duration":0.33749999999997726},{"name":"D2","midi":38,"time":528.375,"velocity":0.7480314960629921,"duration":0.33749999999997726},{"name":"D2","midi":38,"time":528.75,"velocity":0.7480314960629921,"duration":0.33749999999997726},{"name":"D2","midi":38,"time":529.125,"velocity":0.7480314960629921,"duration":0.33749999999997726},{"name":"E2","midi":40,"time":529.5,"velocity":0.7480314960629921,"duration":0.33749999999997726},{"name":"E2","midi":40,"time":529.875,"velocity":0.7480314960629921,"duration":0.33749999999997726},{"name":"E2","midi":40,"time":530.25,"velocity":0.7480314960629921,"duration":0.33749999999997726},{"name":"E2","midi":40,"time":530.625,"velocity":0.7480314960629921,"duration":1.7749999999999773},{"name":"A1","midi":33,"time":532.5,"velocity":0.7480314960629921,"duration":0.16875000000004547},{"name":"A1","midi":33,"time":532.6875,"velocity":0.7480314960629921,"duration":0.16875000000004547},{"name":"A1","midi":33,"time":532.875,"velocity":0.7480314960629921,"duration":0.16875000000004547},{"name":"A1","midi":33,"time":533.0625,"velocity":0.7480314960629921,"duration":0.16875000000004547},{"name":"A1","midi":33,"time":533.25,"velocity":0.7480314960629921,"duration":0.16875000000004547},{"name":"A1","midi":33,"time":533.4375,"velocity":0.7480314960629921,"duration":0.16875000000004547},{"name":"A1","midi":33,"time":533.625,"velocity":0.7480314960629921,"duration":0.16875000000004547},{"name":"A1","midi":33,"time":533.8125,"velocity":0.7480314960629921,"duration":0.16875000000004547},{"name":"A1","midi":33,"time":534,"velocity":0.7480314960629921,"duration":0.16875000000004547},{"name":"A1","midi":33,"time":534.1875,"velocity":0.7480314960629921,"duration":0.16875000000004547},{"name":"A1","midi":33,"time":534.375,"velocity":0.7480314960629921,"duration":0.16875000000004547},{"name":"A1","midi":33,"time":534.5625,"velocity":0.7480314960629921,"duration":0.16875000000004547},{"name":"A1","midi":33,"time":534.75,"velocity":0.7480314960629921,"duration":0.16875000000004547},{"name":"A1","midi":33,"time":534.9375,"velocity":0.7480314960629921,"duration":0.16875000000004547},{"name":"A1","midi":33,"time":535.125,"velocity":0.7480314960629921,"duration":0.16875000000004547},{"name":"A1","midi":33,"time":535.3125,"velocity":0.7480314960629921,"duration":0.16875000000004547},{"name":"A1","midi":33,"time":535.5,"velocity":0.7480314960629921,"duration":0.16875000000004547},{"name":"A1","midi":33,"time":535.6875,"velocity":0.7480314960629921,"duration":0.16875000000004547},{"name":"A1","midi":33,"time":535.875,"velocity":0.7480314960629921,"duration":0.16875000000004547},{"name":"A1","midi":33,"time":536.0625,"velocity":0.7480314960629921,"duration":0.16875000000004547},{"name":"A1","midi":33,"time":536.25,"velocity":0.7480314960629921,"duration":0.16875000000004547},{"name":"A1","midi":33,"time":536.4375,"velocity":0.7480314960629921,"duration":0.16875000000004547},{"name":"A1","midi":33,"time":536.625,"velocity":0.7480314960629921,"duration":0.16875000000004547},{"name":"A1","midi":33,"time":536.8125,"velocity":0.7480314960629921,"duration":0.16875000000004547},{"name":"A1","midi":33,"time":537,"velocity":0.7480314960629921,"duration":0.16875000000004547},{"name":"A1","midi":33,"time":537.1875,"velocity":0.7480314960629921,"duration":0.16875000000004547},{"name":"A1","midi":33,"time":537.375,"velocity":0.7480314960629921,"duration":0.16875000000004547},{"name":"A1","midi":33,"time":537.5625,"velocity":0.7480314960629921,"duration":0.16875000000004547},{"name":"A1","midi":33,"time":537.75,"velocity":0.7480314960629921,"duration":0.16875000000004547},{"name":"A1","midi":33,"time":537.9375,"velocity":0.7480314960629921,"duration":0.16875000000004547},{"name":"A1","midi":33,"time":538.125,"velocity":0.7480314960629921,"duration":0.16875000000004547},{"name":"A1","midi":33,"time":538.3125,"velocity":0.7480314960629921,"duration":0.16875000000004547},{"name":"A1","midi":33,"time":538.5,"velocity":0.7480314960629921,"duration":15}]}]}
